o arm_right
v 2.72049 4.57542 -3.24557
v 2.89468 4.31674 -3.03760
v 2.84493 4.20689 -3.15931
v 2.84493 4.20689 -3.15931
v 2.69746 4.21999 -3.19956
v 2.49440 4.53899 -3.29885
v 2.72049 4.57542 -3.24557
v 2.80951 4.55548 -3.06722
v 2.59732 5.04235 -3.07570
v 2.78306 5.36414 -3.05955
v 2.69813 5.53344 -3.00024
v 2.83416 5.36711 -2.95524
v 2.58453 4.19955 -3.21414
v 2.69813 5.53344 -3.00024
v 2.78306 5.36414 -3.05955
v 2.50945 5.32779 -3.05782
v 2.83416 5.36711 -2.95524
v 2.73419 5.02378 -2.86003
v 2.78306 5.36414 -3.05955
v 2.58453 4.19955 -3.21414
v 2.44523 4.44069 -3.19648
v 2.49440 4.53899 -3.29885
v 2.68943 4.98342 -2.92184
v 2.68943 4.98342 -2.92184
v 2.49381 4.28386 -3.15633
v 2.50945 5.32779 -3.05782
v 2.78306 5.36414 -3.05955
v 2.68943 4.98342 -2.92184
v 2.50945 5.32779 -3.05782
v 2.72049 4.57542 -3.24557
v 2.49440 4.53899 -3.29885
v 2.59732 5.04235 -3.07570
v 2.36946 5.03717 -3.12024
v 2.48841 5.34748 -3.07056
v 2.48841 5.34748 -3.07056
v 2.40374 4.59160 -3.18087
v 2.38222 4.48898 -3.28021
v 2.44523 4.44069 -3.19648
v 2.50119 4.12493 -3.18726
v 2.40374 4.59160 -3.18087
v 2.38011 4.69083 -3.15127
v 2.36946 5.03717 -3.12024
v 2.50945 5.32779 -3.05782
v 2.48841 5.34748 -3.07056
v 2.41596 5.47448 -2.99956
v 2.24086 4.44777 -3.25422
v 2.32361 4.78185 -3.17525
v 2.38222 4.48898 -3.28021
v 2.32361 4.78185 -3.17525
v 2.24086 4.44777 -3.25422
v 2.38222 4.48898 -3.28021
v 2.50119 4.12493 -3.18726
v 2.41596 5.47448 -2.99956
v 2.38011 4.69083 -3.15127
v 2.29416 5.30629 -3.09461
v 2.27604 5.27907 -3.11170
v 2.36523 5.44586 -3.00697
v 2.41596 5.47448 -2.99956
v 2.32284 4.88790 -3.07779
v 2.22418 5.05260 -3.07644
v 2.32284 4.88790 -3.07779
v 2.41596 5.47448 -2.99956
v 2.36523 5.44586 -3.00697
v 2.33924 5.47852 -3.08273
v 2.22418 5.05260 -3.07644
v 2.28302 5.00878 -3.03043
v 2.33924 5.47852 -3.08273
v 2.30259 5.56392 -3.05462
v 2.27161 5.73851 -2.91124
v 2.28302 5.00878 -3.03043
v 2.41596 5.47448 -2.99956
v 2.25634 5.41884 -3.01966
v 2.25657 5.05187 -3.01782
v 2.27604 5.27907 -3.11170
v 2.25634 5.41884 -3.01966
v 2.41089 6.04196 -2.80977
v 2.33924 5.47852 -3.08273
v 2.21829 5.49934 -2.99647
v 2.30259 5.56392 -3.05462
v 2.09831 5.09866 -2.99367
v 1.93897 5.21097 -3.11022
v 2.29416 5.30629 -3.09461
v 2.19410 5.48953 -3.06134
v 2.25634 5.41884 -3.01966
v 2.19410 5.48953 -3.06134
v 2.25634 5.41884 -3.01966
v 2.25657 5.05187 -3.01782
v 2.15633 5.64475 -2.93794
v 2.21888 5.05761 -2.99848
v 2.21829 5.49934 -2.99647
v 2.25657 5.05187 -3.01782
v 2.22418 5.05260 -3.07644
v 2.21888 5.05761 -2.99848
v 2.15633 5.64475 -2.93794
v 2.09218 5.04133 -3.03713
v 1.93897 5.21097 -3.11022
v 1.82302 5.41562 -3.07171
v 2.09218 5.04133 -3.03713
v 2.09831 5.09866 -2.99367
v 2.21888 5.05761 -2.99848
v 2.09218 5.04133 -3.03713
v 2.09831 5.09866 -2.99367
v 2.09218 5.04133 -3.03713
v 2.05903 5.03835 -2.96445
v 2.05903 5.03835 -2.96445
v 2.00515 5.01869 -2.92843
v 2.09831 5.09866 -2.99367
v 2.09218 5.04133 -3.03713
v 2.00515 5.01869 -2.92843
v 2.05903 5.03835 -2.96445
v 1.81304 4.95614 -2.80622
v 1.81304 4.95614 -2.80622
v 2.00515 5.01869 -2.92843
v 1.81304 4.95614 -2.80622
v 1.93897 5.21097 -3.11022
v 1.72694 5.46198 -2.92810
v 1.93879 4.31426 -2.99605
v 1.93879 4.31426 -2.99605
v 1.83122 4.89669 -2.67883
v 1.81304 4.95614 -2.80622
v 1.98331 4.18270 -2.80515
v 1.90354 4.98916 -2.84161
v 1.93897 5.21097 -3.11022
v 1.81304 4.95614 -2.80622
v 1.90354 4.98916 -2.84161
v 1.81304 4.95614 -2.80622
v 1.89977 4.97498 -2.77840
v 1.90354 4.98916 -2.84161
v 1.82164 4.93506 -2.67468
v 1.82164 4.93506 -2.67468
v 1.70595 5.21181 -2.58987
v 1.89977 4.97498 -2.77840
v 1.82164 4.93506 -2.67468
v 1.89977 4.97498 -2.77840
v 1.70595 5.21181 -2.58987
v 2.41089 6.04196 -2.80977
v 2.27828 6.15878 -2.19607
v 2.72914 6.02053 -2.02145
v 2.38163 6.15573 -1.85839
v 2.53802 5.77020 -1.78331
v 2.72914 6.02053 -2.02145
v 2.38163 6.15573 -1.85839
v 2.70993 5.79185 -1.88441
v 2.65351 5.64230 -1.79471
v 2.69698 5.64858 -1.86217
v 2.65351 5.64230 -1.79471
v 2.65351 5.64230 -1.79471
v 2.69945 5.61131 -1.71832
v 2.68205 5.63174 -1.77415
v 2.27828 6.15878 -2.19607
v 2.46568 5.90308 -1.57658
v 2.69945 5.61131 -1.71832
v 2.65351 5.64230 -1.79471
v 2.61192 5.59761 -1.63433
v 2.69945 5.61131 -1.71832
v 2.46568 5.90308 -1.57658
v 2.36164 6.33173 -1.93565
v 2.53802 5.77020 -1.78331
v 2.38361 5.92006 -1.76007
v 2.38163 6.15573 -1.85839
v 2.39174 6.12092 -1.77020
v 2.38361 5.92006 -1.76007
v 2.38361 5.92006 -1.76007
v 2.70993 5.79185 -1.88441
v 2.89468 4.31674 -3.03760
v 3.10775 4.53810 -2.86233
v 3.13847 4.24077 -2.87595
v 3.10775 4.53810 -2.86233
v 3.11764 4.53599 -2.66806
v 3.13847 4.24077 -2.87595
v 3.14834 4.28606 -2.68928
v 3.13984 4.24313 -2.83550
v 3.13984 4.24313 -2.83550
v 3.22791 4.25652 -2.62065
v 3.24310 4.25360 -2.64083
v 2.80951 4.55548 -3.06722
v 3.22791 4.25652 -2.62065
v 3.13984 4.24313 -2.83550
v 3.14834 4.28606 -2.68928
v 3.33903 4.19372 -2.52219
v 3.22791 4.25652 -2.62065
v 3.28508 4.55911 -2.45757
v 3.14834 4.28606 -2.68928
v 2.95993 5.00036 -2.70081
v 3.11764 4.53599 -2.66806
v 3.33903 4.19372 -2.52219
v 3.17977 4.80519 -2.27478
v 3.26546 4.15184 -2.38426
v 2.97743 4.98766 -2.65220
v 3.28508 4.55911 -2.45757
v 2.97743 4.98766 -2.65220
v 3.08408 4.97923 -2.60675
v 2.83416 5.36711 -2.95524
v 3.03341 5.34158 -2.63452
v 2.92450 5.35703 -2.90307
v 2.68943 4.98342 -2.92184
v 3.18278 5.12456 -2.39285
v 2.92442 4.96733 -2.75825
v 2.95993 5.00036 -2.70081
v 2.73419 5.02378 -2.86003
v 2.97743 4.98766 -2.65220
v 2.92450 5.35703 -2.90307
v 3.03341 5.34158 -2.63452
v 2.92442 4.96733 -2.75825
v 3.04178 5.28085 -2.61360
v 3.04178 5.28085 -2.61360
v 2.92450 5.35703 -2.90307
v 2.92442 4.96733 -2.75825
v 2.73419 5.02378 -2.86003
v 3.14440 5.32524 -2.37109
v 2.92442 4.96733 -2.75825
v 2.97743 4.98766 -2.65220
v 2.95993 5.00036 -2.70081
v 2.83416 5.36711 -2.95524
v 3.18278 5.12456 -2.39285
v 3.14440 5.32524 -2.37109
v 3.10257 5.31189 -2.26161
v 3.14440 5.32524 -2.37109
v 3.11205 5.35276 -2.25543
v 3.11205 5.35276 -2.25543
v 2.83416 5.36711 -2.95524
v 2.69813 5.53344 -3.00024
v 3.03068 5.28903 -2.10724
v 3.11205 5.35276 -2.25543
v 3.08511 4.60001 -2.21585
v 3.18086 4.15217 -2.31359
v 3.14844 4.54674 -2.08001
v 3.18086 4.15217 -2.31359
v 3.08511 4.60001 -2.21585
v 2.72914 6.02053 -2.02145
v 2.41089 6.04196 -2.80977
v 2.96563 4.98105 -2.09298
v 2.96563 4.98105 -2.09298
v 2.92539 5.11205 -2.06488
v 3.03068 5.28903 -2.10724
v 3.01318 5.29661 -2.05230
v 3.11205 5.35276 -2.25543
v 2.72914 6.02053 -2.02145
v 3.01318 5.29661 -2.05230
v 3.14844 4.54674 -2.08001
v 3.04480 4.48069 -1.89875
v 3.18095 3.92994 -2.09544
v 2.92539 5.11205 -2.06488
v 2.93938 5.11492 -2.00734
v 2.92539 5.11205 -2.06488
v 2.70993 5.79185 -1.88441
v 3.01318 5.29661 -2.05230
v 2.93938 5.11492 -2.00734
v 2.92539 5.11205 -2.06488
v 2.93938 5.11492 -2.00734
v 2.81711 5.36116 -1.93599
v 2.93938 5.11492 -2.00734
v 2.86585 4.41673 -1.93747
v 2.90131 4.02725 -2.09085
v 3.04480 4.48069 -1.89875
v 2.81711 5.36116 -1.93599
v 2.82534 5.25554 -1.86585
v 2.78407 5.20330 -1.82546
v 2.73960 5.34888 -1.85802
v 2.63572 5.06079 -1.85317
v 2.74046 5.33038 -1.86932
v 2.82534 5.25554 -1.86585
v 2.73960 5.34888 -1.85802
v 2.81711 5.36116 -1.93599
v 2.82690 5.33956 -1.84640
v 2.78503 5.36660 -1.82097
v 2.81711 5.36116 -1.93599
v 2.78503 5.36660 -1.82097
v 2.73960 5.34888 -1.85802
v 2.78407 5.20330 -1.82546
v 2.82534 5.25554 -1.86585
v 2.85450 5.25989 -1.81424
v 2.82534 5.25554 -1.86585
v 2.74046 5.33038 -1.86932
v 2.85450 5.25989 -1.81424
v 2.78503 5.36660 -1.82097
v 2.82690 5.33956 -1.84640
v 2.70871 5.56346 -1.76858
v 2.78503 5.36660 -1.82097
v 2.69698 5.64858 -1.86217
v 2.82690 5.33956 -1.84640
v 2.81711 5.36116 -1.93599
v 2.69698 5.64858 -1.86217
v 2.73960 5.34888 -1.85802
v 2.53415 4.98010 -1.71507
v 2.86585 4.41673 -1.93747
v 2.63572 5.06079 -1.85317
v 2.85450 5.25989 -1.81424
v 2.72930 5.16400 -1.82468
v 2.78407 5.20330 -1.82546
v 2.78407 5.20330 -1.82546
v 2.72930 5.16400 -1.82468
v 2.70871 5.56346 -1.76858
v 2.68205 5.63174 -1.77415
v 2.33450 4.81341 -1.76463
v 2.76378 4.34131 -1.83320
v 2.53415 4.98010 -1.71507
v 2.76378 4.34131 -1.83320
v 2.69945 5.61131 -1.71832
v 2.60962 5.08513 -1.85759
v 2.47719 4.16869 -1.83417
v 2.60962 5.08513 -1.85759
v 2.57592 5.16963 -1.54797
v 2.69698 5.64858 -1.86217
v 2.65351 5.64230 -1.79471
v 2.68205 5.63174 -1.77415
v 2.61192 5.59761 -1.63433
v 2.85450 5.25989 -1.81424
v 2.69945 5.61131 -1.71832
v 2.48559 5.05762 -1.75059
v 2.60962 5.08513 -1.85759
v 2.09134 4.08598 -2.48880
v 1.83122 4.89669 -2.67883
v 1.98331 4.18270 -2.80515
v 2.48559 5.05762 -1.75059
v 2.45390 5.46801 -1.46060
v 2.48559 5.05762 -1.75059
v 2.45356 5.03303 -1.75439
v 2.53415 4.98010 -1.71507
v 2.35426 4.40020 -1.86159
v 2.18031 4.40997 -1.91834
v 2.26149 4.26982 -2.12589
v 1.83122 4.89669 -2.67883
v 1.75435 4.79445 -2.55322
v 1.82164 4.93506 -2.67468
v 2.45356 5.03303 -1.75439
v 1.95292 4.69966 -2.36223
v 1.88815 4.80022 -2.50244
v 2.25325 4.75807 -1.77779
v 1.75435 4.79445 -2.55322
v 1.83122 4.89669 -2.67883
v 1.88815 4.80022 -2.50244
v 2.47719 4.16869 -1.83417
v 2.25325 4.75807 -1.77779
v 2.35805 4.45126 -1.83540
v 1.97770 4.56829 -2.31890
v 1.70595 5.21181 -2.58987
v 2.35426 4.40020 -1.86159
v 2.18031 4.40997 -1.91834
v 1.92365 4.76796 -2.37055
v 2.07818 4.16605 -2.21536
v 2.16561 4.36818 -2.13899
v 1.98602 4.57457 -2.14738
v 2.38766 5.34291 -1.54188
v 2.45356 5.03303 -1.75439
v 2.57592 5.16963 -1.54797
v 2.29602 4.91322 -1.72460
v 2.57592 5.16963 -1.54797
v 1.95292 4.69966 -2.36223
v 1.97770 4.56829 -2.31890
v 1.92365 4.76796 -2.37055
v 1.88374 4.77630 -2.35511
v 1.92365 4.76796 -2.37055
v 2.23050 4.73950 -1.86606
v 1.98602 4.57457 -2.14738
v 2.30357 4.86124 -1.72246
v 2.23334 4.76161 -1.72643
v 2.33450 4.81341 -1.76463
v 2.23334 4.76161 -1.72643
v 2.25325 4.75807 -1.77779
v 1.69992 4.89100 -2.33235
v 2.30357 4.86124 -1.72246
v 2.16561 4.36818 -2.13899
v 2.18031 4.40997 -1.91834
v 1.69992 4.89100 -2.33235
v 1.88374 4.77630 -2.35511
v 2.23050 4.73950 -1.86606
v 2.14710 4.75870 -1.86947
v 2.23050 4.73950 -1.86606
v 2.25325 4.75807 -1.77779
v 2.14710 4.75870 -1.86947
v 1.75435 4.79445 -2.55322
v 1.88374 4.77630 -2.35511
v 1.76575 4.90497 -2.35294
v 2.09995 5.09271 -1.63725
v 2.45356 5.03303 -1.75439
v 1.90417 4.69383 -1.95409
v 2.23334 4.76161 -1.72643
v 2.23334 4.76161 -1.72643
v 3.04178 5.28085 -2.61360
v 3.03341 5.34158 -2.63452
v 3.17977 4.80519 -2.27478
v 3.18278 5.12456 -2.39285
v 2.35805 4.45126 -1.83540
v 3.20252 4.03926 -3.15669
v 3.35361 3.79726 -2.99546
v 3.28893 3.92271 -3.02918
v 3.24276 4.06445 -3.03137
v 3.41705 3.99956 -2.89304
v 3.15095 3.27816 -3.08091
v 3.35361 3.79726 -2.99546
v 3.30820 3.85435 -2.63598
v 2.95804 4.08042 -3.41262
v 2.65360 3.79995 -3.46303
v 3.20252 4.03926 -3.15669
v 2.95804 4.08042 -3.41262
v 2.89468 4.31674 -3.03760
v 3.41705 3.99956 -2.89304
v 3.24276 4.06445 -3.03137
v 3.24310 4.25360 -2.64083
v 3.41705 3.99956 -2.89304
v 3.14302 4.21699 -2.87772
v 3.22222 3.11537 -2.94656
v 3.21881 3.54645 -2.82807
v 3.36243 3.61139 -2.59109
v 3.41249 3.70432 -2.42218
v 3.21881 3.54645 -2.82807
v 3.24310 4.25360 -2.64083
v 3.30820 3.85435 -2.63598
v 3.41705 3.99956 -2.89304
v 3.39042 3.71028 -2.54027
v 3.30820 3.85435 -2.63598
v 3.13984 4.24313 -2.83550
v 3.33903 4.19372 -2.52219
v 3.14302 4.21699 -2.87772
v 2.89468 4.31674 -3.03760
v 3.13847 4.24077 -2.87595
v 2.83525 4.11046 -3.26334
v 2.89468 4.31674 -3.03760
v 3.13847 4.24077 -2.87595
v 3.13984 4.24313 -2.83550
v 3.14302 4.21699 -2.87772
v 3.22791 4.25652 -2.62065
v 2.59802 3.65529 -3.58775
v 2.71410 3.97303 -3.31498
v 2.89468 4.31674 -3.03760
v 2.83525 4.11046 -3.26334
v 2.84493 4.20689 -3.15931
v 3.22791 4.25652 -2.62065
v 2.65360 3.79995 -3.46303
v 2.59516 3.80959 -3.53283
v 2.69746 4.21999 -3.19956
v 2.68560 4.01287 -3.35151
v 3.41249 3.70432 -2.42218
v 3.39042 3.71028 -2.54027
v 3.29730 4.05765 -2.31111
v 2.71410 3.97303 -3.31498
v 3.39042 3.71028 -2.54027
v 3.33903 4.19372 -2.52219
v 3.26546 4.15184 -2.38426
v 3.22222 3.11537 -2.94656
v 2.71410 3.97303 -3.31498
v 2.68560 4.01287 -3.35151
v 2.69192 3.97101 -3.27968
v 2.69192 3.97101 -3.27968
v 3.07051 3.29469 -2.52844
v 3.41249 3.70432 -2.42218
v 3.25935 3.70802 -2.32218
v 3.14835 3.60788 -2.27489
v 2.59516 3.80959 -3.53283
v 2.40116 3.67626 -3.58947
v 2.68560 4.01287 -3.35151
v 2.52542 3.65682 -3.67337
v 2.57056 4.02893 -3.27785
v 2.57860 4.06312 -3.36342
v 2.68560 4.01287 -3.35151
v 2.40116 3.67626 -3.58947
v 2.57860 4.06312 -3.36342
v 2.58453 4.19955 -3.21414
v 2.36749 3.46375 -3.68582
v 2.11193 3.67416 -3.73149
v 2.69192 3.97101 -3.27968
v 2.59443 4.09719 -3.27481
v 2.57056 4.02893 -3.27785
v 2.30411 4.13970 -3.38671
v 2.30411 4.13970 -3.38671
v 2.47417 4.07299 -3.31478
v 2.59443 4.09719 -3.27481
v 2.57056 4.02893 -3.27785
v 2.58453 4.19955 -3.21414
v 2.55110 4.10843 -3.15627
v 2.47417 4.07299 -3.31478
v 2.55110 4.10843 -3.15627
v 2.57056 4.02893 -3.27785
v 2.53981 4.15567 -3.12943
v 2.50119 4.12493 -3.18726
v 2.43559 4.06776 -3.29732
v 2.45611 4.14361 -3.19104
v 2.11193 3.67416 -3.73149
v 2.01954 3.02296 -3.86527
v 2.49381 4.28386 -3.15633
v 2.53981 4.15567 -3.12943
v 2.03893 3.63378 -3.70278
v 2.49381 4.28386 -3.15633
v 2.47417 4.07299 -3.31478
v 2.43559 4.06776 -3.29732
v 2.45611 4.14361 -3.19104
v 2.44523 4.44069 -3.19648
v 2.11935 3.87586 -3.51499
v 2.30411 4.13970 -3.38671
v 2.37822 4.13074 -3.17499
v 2.43559 4.06776 -3.29732
v 2.30411 4.13970 -3.38671
v 2.37822 4.13074 -3.17499
v 2.89000 3.54840 -2.08623
v 2.91890 3.17238 -2.54263
v 1.98653 3.16270 -3.70311
v 2.03893 3.63378 -3.70278
v 2.30475 4.16545 -3.17557
v 2.37822 4.13074 -3.17499
v 2.30475 4.16545 -3.17557
v 2.45611 4.14361 -3.19104
v 2.24265 4.19370 -3.24479
v 2.24086 4.44777 -3.25422
v 2.07649 3.57139 -3.09501
v 2.11935 3.87586 -3.51499
v 2.24265 4.19370 -3.24479
v 2.00312 3.42523 -3.49517
v 2.50119 4.12493 -3.18726
v 2.26773 4.10366 -3.10462
v 2.24086 4.44777 -3.25422
v 2.30475 4.16545 -3.17557
v 2.26773 4.10366 -3.10462
v 2.24265 4.19370 -3.24479
v 2.30475 4.16545 -3.17557
v 2.24265 4.19370 -3.24479
v 2.26773 4.10366 -3.10462
v 2.22575 3.94820 -2.98835
v 1.93879 4.31426 -2.99605
v 1.83602 2.81788 -3.48913
v 2.61977 3.05036 -2.51258
v 2.27525 3.27943 -2.59555
v 2.26837 3.13832 -2.68121
v 2.06877 3.20678 -2.75657
v 2.11414 4.03146 -2.93211
v 2.13043 3.31617 -3.15989
v 2.19213 3.50052 -3.04567
v 2.04600 3.41217 -3.17763
v 2.30010 3.90431 -2.86266
v 2.31112 3.82447 -2.83944
v 2.33430 3.87104 -2.83242
v 2.23747 3.88261 -2.86499
v 2.30010 3.90431 -2.86266
v 2.22575 3.94820 -2.98835
v 2.23747 3.88261 -2.86499
v 2.04600 3.41217 -3.17763
v 2.24586 3.80856 -2.81282
v 2.31112 3.82447 -2.83944
v 2.25191 3.67151 -2.93303
v 2.33430 3.87104 -2.83242
v 2.22683 3.60272 -2.97707
v 2.11539 3.49157 -2.99654
v 2.22683 3.60272 -2.97707
v 2.89000 3.54840 -2.08623
v 2.04825 3.31613 -3.10274
v 2.19213 3.50052 -3.04567
v 2.25191 3.67151 -2.93303
v 2.06877 3.20678 -2.75657
v 2.31112 3.82447 -2.83944
v 2.23747 3.88261 -2.86499
v 2.22575 3.94820 -2.98835
v 2.30010 3.90431 -2.86266
v 2.11414 4.03146 -2.93211
v 2.22575 3.94820 -2.98835
v 2.07649 3.57139 -3.09501
v 2.23747 3.88261 -2.86499
v 2.33998 3.85959 -2.70139
v 2.33430 3.87104 -2.83242
v 2.24586 3.80856 -2.81282
v 2.33998 3.85959 -2.70139
v 2.33430 3.87104 -2.83242
v 2.36724 3.83816 -2.54764
v 2.29662 3.74039 -2.41851
v 2.11539 3.49157 -2.99654
v 2.04825 3.31613 -3.10274
v 2.24586 3.80856 -2.81282
v 2.29664 3.38749 -2.59132
v 2.27525 3.27943 -2.59555
v 2.38774 3.61495 -2.49000
v 2.26343 3.27166 -2.63263
v 2.26343 3.27166 -2.63263
v 2.29664 3.38749 -2.59132
v 2.26837 3.13832 -2.68121
v 1.93879 4.31426 -2.99605
v 2.11414 4.03146 -2.93211
v 1.98331 4.18270 -2.80515
v 2.29662 3.74039 -2.41851
v 1.98331 4.18270 -2.80515
v 3.07051 3.29469 -2.52844
v 2.30010 3.90431 -2.86266
v 2.26149 4.26982 -2.12589
v 2.18031 4.40997 -1.91834
v 2.16561 4.36818 -2.13899
v 2.07818 4.16605 -2.21536
v 2.26149 4.26982 -2.12589
v 2.16561 4.36818 -2.13899
v 2.09134 4.08598 -2.48880
v 2.07818 4.16605 -2.21536
v 1.98602 4.57457 -2.14738
v 3.29730 4.05765 -2.31111
v 3.25935 3.70802 -2.32218
v 3.41249 3.70432 -2.42218
v 3.26546 4.15184 -2.38426
v 3.29730 4.05765 -2.31111
v 3.39042 3.71028 -2.54027
v 3.24719 4.02595 -2.25083
v 3.19796 4.10543 -2.30355
v 3.29730 4.05765 -2.31111
v 3.26546 4.15184 -2.38426
v 3.25935 3.70802 -2.32218
v 3.24719 4.02595 -2.25083
v 3.25345 3.98879 -2.22033
v 3.18086 4.15217 -2.31359
v 3.24719 4.02595 -2.25083
v 3.18086 4.15217 -2.31359
v 3.24719 4.02595 -2.25083
v 3.19796 4.10543 -2.30355
v 3.18086 4.15217 -2.31359
v 3.25345 3.98879 -2.22033
v 3.24719 4.02595 -2.25083
v 2.89000 3.54840 -2.08623
v 3.07051 3.29469 -2.52844
v 3.14835 3.60788 -2.27489
v 3.25345 3.98879 -2.22033
v 3.18095 3.92994 -2.09544
v 3.25935 3.70802 -2.32218
v 3.14844 4.54674 -2.08001
v 3.25345 3.98879 -2.22033
v 3.18086 4.15217 -2.31359
v 3.14844 4.54674 -2.08001
v 3.07657 3.73233 -2.18941
v 3.18095 3.92994 -2.09544
v 3.03625 3.97222 -2.09209
v 3.07657 3.73233 -2.18941
v 3.18095 3.92994 -2.09544
v 3.03625 3.97222 -2.09209
v 2.99816 3.97201 -2.05630
v 2.90131 4.02725 -2.09085
v 3.18095 3.92994 -2.09544
v 3.04480 4.48069 -1.89875
v 3.03625 3.97222 -2.09209
v 2.90131 4.02725 -2.09085
v 2.99816 3.97201 -2.05630
v 3.03625 3.97222 -2.09209
v 2.99816 3.97201 -2.05630
v 2.90131 4.02725 -2.09085
v 2.87544 4.01596 -2.09114
v 2.82494 3.91148 -2.11645
v 2.89000 3.54840 -2.08623
v 2.86585 4.41673 -1.93747
v 2.87544 4.01596 -2.09114
v 2.87544 4.01596 -2.09114
v 2.80296 3.96117 -2.02463
v 2.82494 3.91148 -2.11645
v 2.73969 3.86777 -2.15221
v 2.82494 3.91148 -2.11645
v 2.80296 3.96117 -2.02463
v 2.73969 3.86777 -2.15221
v 2.62512 3.84429 -2.18922
v 2.86585 4.41673 -1.93747
v 2.62512 3.84429 -2.18922
v 2.49772 3.78026 -2.24117
v 2.27525 3.27943 -2.59555
v 2.56759 3.87380 -2.21815
v 2.36724 3.83816 -2.54764
v 2.09134 4.08598 -2.48880
v 2.33998 3.85959 -2.70139
v 2.38774 3.61495 -2.49000
v 2.45860 3.81501 -2.38944
v 2.29662 3.74039 -2.41851
v 2.45860 3.81501 -2.38944
v 2.38774 3.61495 -2.49000
v 2.27525 3.27943 -2.59555
v 2.41377 3.82455 -2.39006
v 2.49772 3.78026 -2.24117
v 2.51928 3.89333 -2.30169
v 2.62512 3.84429 -2.18922
v 2.57575 3.94100 -2.06526
v 2.56759 3.87380 -2.21815
v 2.56759 3.87380 -2.21815
v 2.29664 3.38749 -2.59132
v 2.76378 4.34131 -1.83320
v 2.30010 3.90431 -2.86266
v 2.24586 3.80856 -2.81282
v 2.29662 3.74039 -2.41851
v 2.36724 3.83816 -2.54764
v 2.57575 3.94100 -2.06526
v 2.41377 3.82455 -2.39006
v 2.51928 3.89333 -2.30169
v 2.41377 3.82455 -2.39006
v 2.45860 3.81501 -2.38944
v 2.66825 4.03903 -1.98563
v 2.41377 3.82455 -2.39006
v 2.47719 4.16869 -1.83417
v 2.76378 4.34131 -1.83320
v 2.07818 4.16605 -2.21536
v 2.28471 4.17352 -2.14276
v 2.47719 4.16869 -1.83417
v 2.37192 4.17803 -2.05304
v 1.98331 4.18270 -2.80515
v 2.07818 4.16605 -2.21536
v 2.26149 4.26982 -2.12589
v 2.35426 4.40020 -1.86159
v 2.35805 4.45126 -1.83540
v 3.25935 3.70802 -2.32218
v 2.90131 4.02725 -2.09085
v 2.53535 3.46044 -3.17193
v 3.28893 3.92271 -3.02918
v 3.35361 3.79726 -2.99546
v 3.15095 3.27816 -3.08091
v 3.21881 3.54645 -2.82807
v 3.22222 3.11537 -2.94656
v 3.07051 3.29469 -2.52844
v 2.91890 3.17238 -2.54263
v 2.89000 3.54840 -2.08623
v 2.61977 3.05036 -2.51258
v 2.27525 3.27943 -2.59555
v 2.26837 3.13832 -2.68121
v 2.06877 3.20678 -2.75657
v 2.04825 3.31613 -3.10274
v 2.19213 3.50052 -3.04567
v 2.13043 3.31617 -3.15989
v 2.04600 3.41217 -3.17763
v 1.83602 2.81788 -3.48913
v 2.00312 3.42523 -3.49517
v 1.98653 3.16270 -3.70311
v 2.03893 3.63378 -3.70278
v 2.01954 3.02296 -3.86527
v 2.11193 3.67416 -3.73149
v 2.36749 3.46375 -3.68582
v 2.40116 3.67626 -3.58947
v 2.52542 3.65682 -3.67337
v 2.59516 3.80959 -3.53283
v 2.59802 3.65529 -3.58775
v 2.65360 3.79995 -3.46303
v 2.95804 4.08042 -3.41262
v 3.20252 4.03926 -3.15669
v 2.16407 5.34695 -2.25621
v 2.27161 5.73851 -2.91124
v 2.30259 5.56392 -3.05462
v 2.15633 5.64475 -2.93794
v 2.19410 5.48953 -3.06134
v 1.82302 5.41562 -3.07171
v 1.93897 5.21097 -3.11022
v 1.72694 5.46198 -2.92810
v 1.90354 4.98916 -2.84161
v 1.70595 5.21181 -2.58987
v 1.75435 4.79445 -2.55322
v 1.76575 4.90497 -2.35294
v 1.88374 4.77630 -2.35511
v 1.69992 4.89100 -2.33235
v 1.98602 4.57457 -2.14738
v 1.90417 4.69383 -1.95409
v 2.18031 4.40997 -1.91834
v 2.14710 4.75870 -1.86947
v 2.23334 4.76161 -1.72643
v 2.09995 5.09271 -1.63725
v 2.45356 5.03303 -1.75439
v 2.38766 5.34291 -1.54188
v 2.57592 5.16963 -1.54797
v 2.45390 5.46801 -1.46060
v 2.61192 5.59761 -1.63433
v 2.46568 5.90308 -1.57658
v 2.38361 5.92006 -1.76007
v 2.39174 6.12092 -1.77020
v 2.38163 6.15573 -1.85839
v 2.36164 6.33173 -1.93565
v 2.27828 6.15878 -2.19607
v 2.41089 6.04196 -2.80977
v 2.41596 5.47448 -2.99956
vt 0.55638 0.69972
vt 0.54246 0.70680
vt 0.53979 0.70019
vt 0.02740 0.09035
vt 0.02159 0.08770
vt 0.01737 0.07196
vt 0.02700 0.07375
vt 0.55308 0.70739
vt 0.57505 0.71003
vt 0.00010 0.11444
vt 0.00010 0.10617
vt 0.00492 0.11394
vt 0.01682 0.08701
vt 0.89215 0.71439
vt 0.90026 0.71278
vt 0.89886 0.72419
vt 0.96369 0.34470
vt 0.96235 0.36006
vt 0.95892 0.34386
vt 0.83635 0.17917
vt 0.84662 0.17372
vt 0.85134 0.17783
vt 0.57037 0.71636
vt 0.95892 0.36117
vt 0.83962 0.17451
vt 0.96878 0.91888
vt 0.95785 0.91532
vt 0.96857 0.90173
vt 0.58718 0.71292
vt 0.64696 0.13607
vt 0.65387 0.12486
vt 0.67824 0.14476
vt 0.68834 0.13499
vt 0.69387 0.15197
vt 0.58835 0.71233
vt 0.85275 0.17140
vt 0.84822 0.01394
vt 0.85001 0.00948
vt 0.86317 0.00716
vt 0.84350 0.01021
vt 0.85666 0.16932
vt 0.87082 0.16626
vt 0.34275 0.97960
vt 0.34368 0.98052
vt 0.34280 0.98724
vt 0.09357 0.57520
vt 0.09892 0.56149
vt 0.09977 0.57466
vt 0.83514 0.01225
vt 0.51422 0.00109
vt 0.52045 0.00109
vt 0.52028 0.01751
vt 0.89154 0.72639
vt 0.83908 0.00993
vt 0.70413 0.14305
vt 0.70385 0.14209
vt 0.70438 0.15892
vt 0.70270 0.16276
vt 0.86432 0.16445
vt 0.82245 0.01156
vt 0.83004 0.00903
vt 0.14955 0.98764
vt 0.14973 0.99008
vt 0.14625 0.99101
vt 0.09629 0.54906
vt 0.86899 0.16126
vt 0.98157 0.54080
vt 0.98157 0.53676
vt 0.98559 0.52815
vt 0.82441 0.00853
vt 0.98627 0.54120
vt 0.14954 0.99478
vt 0.87067 0.15988
vt 0.88073 0.16194
vt 0.70679 0.15505
vt 0.86730 0.72054
vt 0.97884 0.94286
vt 0.98353 0.94699
vt 0.97848 0.94689
vt 0.87298 0.15325
vt 0.88058 0.14761
vt 0.85549 0.01210
vt 0.86400 0.00982
vt 0.86125 0.01311
vt 0.71802 0.14051
vt 0.98383 0.94317
vt 0.82225 0.00878
vt 0.98312 0.95400
vt 0.87082 0.15811
vt 0.86504 0.01254
vt 0.99531 0.19549
vt 0.99314 0.19725
vt 0.99415 0.19414
vt 0.87206 0.01222
vt 0.98861 0.19371
vt 0.71912 0.13190
vt 0.73227 0.13005
vt 0.58739 0.99349
vt 0.58832 0.99635
vt 0.58304 0.99696
vt 0.09058 0.54831
vt 0.26935 0.99553
vt 0.27236 0.99553
vt 0.27075 0.99844
vt 0.99650 0.82036
vt 0.99747 0.81771
vt 0.99729 0.82350
vt 0.16679 0.96616
vt 0.16109 0.96471
vt 0.16391 0.96449
vt 0.07510 0.54738
vt 0.15130 0.96560
vt 0.86928 0.14880
vt 0.86504 0.13992
vt 0.54683 0.81362
vt 0.54661 0.83393
vt 0.07611 0.57574
vt 0.12607 0.33599
vt 0.11774 0.30926
vt 0.12345 0.30773
vt 0.11715 0.34013
vt 0.96303 0.38585
vt 0.96557 0.37148
vt 0.96611 0.38882
vt 0.62315 0.00169
vt 0.62710 0.00331
vt 0.62338 0.00438
vt 0.56502 0.81834
vt 0.62684 0.00886
vt 0.11789 0.30761
vt 0.44361 0.94087
vt 0.44823 0.95511
vt 0.44272 0.95383
vt 0.56815 0.81873
vt 0.56802 0.83673
vt 0.74083 0.79896
vt 0.76296 0.78380
vt 0.77653 0.79998
vt 0.77776 0.78293
vt 0.02060 0.17422
vt 0.03695 0.17699
vt 0.02690 0.19081
vt 0.09870 0.98827
vt 0.09870 0.98057
vt 0.10130 0.98274
vt 0.02102 0.16698
vt 0.01127 0.00701
vt 0.01127 0.00304
vt 0.01185 0.00558
vt 0.46859 0.77281
vt 0.63213 0.90561
vt 0.63173 0.92240
vt 0.62790 0.92137
vt 0.72829 0.91816
vt 0.72364 0.92033
vt 0.72671 0.90382
vt 0.45997 0.78331
vt 0.62591 0.91439
vt 0.01933 0.18322
vt 0.45447 0.77735
vt 0.45047 0.77715
vt 0.62365 0.90559
vt 0.44742 0.76927
vt 0.02801 0.17020
vt 0.26087 0.78587
vt 0.27066 0.79814
vt 0.25740 0.79882
vt 0.94433 0.47709
vt 0.95293 0.47634
vt 0.94510 0.49035
vt 0.95316 0.48755
vt 0.94687 0.49007
vt 0.57298 0.99097
vt 0.58330 0.99097
vt 0.58272 0.99194
vt 0.27155 0.78209
vt 0.74836 0.99065
vt 0.75868 0.99065
vt 0.75243 0.99327
vt 0.80596 0.63503
vt 0.79930 0.63196
vt 0.80112 0.61540
vt 0.79492 0.62985
vt 0.94901 0.45488
vt 0.79131 0.61642
vt 0.48305 0.67159
vt 0.47116 0.70440
vt 0.47651 0.66926
vt 0.95132 0.45540
vt 0.47963 0.69233
vt 0.78356 0.59296
vt 0.78962 0.59110
vt 0.12882 0.04912
vt 0.13228 0.03268
vt 0.13181 0.04555
vt 0.29229 0.78158
vt 0.80161 0.58476
vt 0.29153 0.79429
vt 0.29334 0.79710
vt 0.29436 0.78480
vt 0.63475 0.92794
vt 0.65469 0.92872
vt 0.64652 0.93867
vt 0.63710 0.92314
vt 0.79717 0.57715
vt 0.77048 0.58627
vt 0.70399 0.94031
vt 0.72244 0.94062
vt 0.71837 0.94964
vt 0.80841 0.57427
vt 0.75468 0.99898
vt 0.74934 0.99898
vt 0.75149 0.99800
vt 0.70268 0.94477
vt 0.14592 0.21442
vt 0.13474 0.22092
vt 0.13535 0.21447
vt 0.13299 0.02000
vt 0.12960 0.01571
vt 0.13951 0.75903
vt 0.17284 0.75652
vt 0.17771 0.76496
vt 0.13126 0.20710
vt 0.13377 0.21525
vt 0.46642 0.69189
vt 0.47284 0.66893
vt 0.27068 0.72867
vt 0.28985 0.73565
vt 0.26906 0.73554
vt 0.13938 0.79474
vt 0.17703 0.79221
vt 0.45510 0.70643
vt 0.25056 0.73441
vt 0.44940 0.71041
vt 0.44776 0.71599
vt 0.12936 0.20759
vt 0.21516 0.79779
vt 0.19408 0.76897
vt 0.22166 0.78976
vt 0.64760 0.61019
vt 0.64774 0.61990
vt 0.62119 0.61758
vt 0.12275 0.20311
vt 0.24382 0.73201
vt 0.24435 0.73459
vt 0.20591 0.76804
vt 0.00113 0.29119
vt 0.00389 0.29968
vt 0.00133 0.30027
vt 0.67464 0.60924
vt 0.22226 0.77926
vt 0.23054 0.78877
vt 0.86951 0.36091
vt 0.87275 0.37927
vt 0.86098 0.35979
vt 0.68717 0.61065
vt 0.68325 0.61471
vt 0.68193 0.61790
vt 0.68886 0.61526
vt 0.87276 0.33050
vt 0.02444 0.99712
vt 0.02945 0.99756
vt 0.02382 0.99786
vt 0.07158 0.99257
vt 0.07332 0.99630
vt 0.07140 0.99788
vt 0.99775 0.45851
vt 0.99270 0.46015
vt 0.99296 0.45744
vt 0.77275 0.00398
vt 0.76946 0.00291
vt 0.77062 0.00054
vt 0.19150 0.80997
vt 0.19210 0.80609
vt 0.19334 0.80887
vt 0.19467 0.80295
vt 0.00769 0.07422
vt 0.00769 0.06246
vt 0.00889 0.07204
vt 0.20549 0.78715
vt 0.19178 0.78168
vt 0.19489 0.77446
vt 0.21227 0.76916
vt 0.19204 0.80494
vt 0.91798 0.16676
vt 0.94780 0.17382
vt 0.91724 0.17514
vt 0.61158 0.94024
vt 0.61641 0.94532
vt 0.61418 0.94334
vt 0.86482 0.32576
vt 0.86759 0.32688
vt 0.20042 0.79108
vt 0.20328 0.79083
vt 0.15635 0.82881
vt 0.12959 0.81907
vt 0.16014 0.81769
vt 0.94855 0.16657
vt 0.20259 0.79236
vt 0.87369 0.32920
vt 0.12730 0.83374
vt 0.62026 0.95060
vt 0.62912 0.93935
vt 0.13339 0.00528
vt 0.13217 0.00192
vt 0.13366 0.00125
vt 0.02973 0.67278
vt 0.03493 0.65335
vt 0.03482 0.67092
vt 0.91376 0.16786
vt 0.91565 0.17498
vt 0.79394 0.54966
vt 0.76087 0.53030
vt 0.79440 0.52284
vt 0.62762 0.95028
vt 0.01784 0.67221
vt 0.17126 0.47516
vt 0.17060 0.47437
vt 0.17328 0.47330
vt 0.84058 0.97603
vt 0.83806 0.98377
vt 0.82726 0.97931
vt 0.95070 0.56881
vt 0.94932 0.56098
vt 0.95243 0.56918
vt 0.62884 0.95160
vt 0.77212 0.54996
vt 0.76622 0.54146
vt 0.15539 0.83311
vt 0.02128 0.86267
vt 0.02914 0.86143
vt 0.02336 0.86868
vt 0.07747 0.63364
vt 0.07711 0.60555
vt 0.07865 0.62009
vt 0.77692 0.55608
vt 0.96626 0.56893
vt 0.73828 0.75607
vt 0.74210 0.76325
vt 0.76884 0.54902
vt 0.77991 0.92174
vt 0.78584 0.93022
vt 0.77948 0.94057
vt 0.58356 0.92375
vt 0.59933 0.91759
vt 0.59386 0.92855
vt 0.16153 0.46457
vt 0.01783 0.65739
vt 0.03880 0.06598
vt 0.04062 0.06002
vt 0.03879 0.06930
vt 0.01810 0.87271
vt 0.01974 0.87375
vt 0.08118 0.60626
vt 0.78319 0.56158
vt 0.15947 0.82919
vt 0.15715 0.83407
vt 0.99106 0.20704
vt 0.99638 0.20704
vt 0.99497 0.20904
vt 0.76345 0.57234
vt 0.16382 0.46206
vt 0.79290 0.56626
vt 0.78798 0.57503
vt 0.04614 0.07810
vt 0.04046 0.07027
vt 0.75437 0.75442
vt 0.75668 0.75744
vt 0.04213 0.98831
vt 0.04106 0.99229
vt 0.03878 0.98650
vt 0.87802 0.97531
vt 0.87874 0.98582
vt 0.87149 0.98310
vt 0.15041 0.45647
vt 0.15085 0.46705
vt 0.77655 0.57598
vt 0.03921 0.99390
vt 0.16680 0.45399
vt 0.64374 0.93792
vt 0.79839 0.57402
vt 0.15514 0.20220
vt 0.48541 0.71395
vt 0.74032 0.75454
vt 0.51306 0.30671
vt 0.53195 0.31151
vt 0.52555 0.31129
vt 0.52101 0.30480
vt 0.52784 0.28612
vt 0.35820 0.12753
vt 0.36749 0.16039
vt 0.34827 0.17154
vt 0.53178 0.14202
vt 0.51217 0.12610
vt 0.20370 0.70725
vt 0.20370 0.68566
vt 0.22802 0.69769
vt 0.20493 0.72794
vt 0.20788 0.71421
vt 0.22896 0.72992
vt 0.36708 0.17465
vt 0.22224 0.71568
vt 0.48590 0.15441
vt 0.51138 0.14522
vt 0.52372 0.15725
vt 0.53426 0.16313
vt 0.35099 0.14906
vt 0.80764 0.00322
vt 0.79066 0.02090
vt 0.78352 0.00322
vt 0.53067 0.15699
vt 0.53401 0.14588
vt 0.22485 0.71720
vt 0.55510 0.14051
vt 0.01768 0.80743
vt 0.01768 0.78855
vt 0.01901 0.80681
vt 0.53657 0.13118
vt 0.55524 0.12838
vt 0.00539 0.00189
vt 0.00416 0.00402
vt 0.00422 0.00100
vt 0.80894 0.00405
vt 0.14602 0.14700
vt 0.52644 0.12568
vt 0.62914 0.82770
vt 0.62746 0.84650
vt 0.62716 0.83789
vt 0.55381 0.13083
vt 0.14612 0.13495
vt 0.14158 0.13813
vt 0.61812 0.84006
vt 0.14234 0.12075
vt 0.93539 0.23948
vt 0.93231 0.23288
vt 0.95814 0.23358
vt 0.14604 0.12067
vt 0.09116 0.86423
vt 0.09116 0.83476
vt 0.10080 0.83650
vt 0.37958 0.43011
vt 0.51625 0.88900
vt 0.51908 0.88662
vt 0.51724 0.89132
vt 0.52731 0.12331
vt 0.40020 0.40964
vt 0.38364 0.38113
vt 0.39461 0.37959
vt 0.40250 0.38488
vt 0.09712 0.68234
vt 0.10332 0.66904
vt 0.10097 0.69930
vt 0.09417 0.66940
vt 0.52535 0.89211
vt 0.29466 0.28256
vt 0.30185 0.28289
vt 0.29219 0.31166
vt 0.52628 0.88658
vt 0.61156 0.84251
vt 0.29480 0.32570
vt 0.27509 0.32107
vt 0.62017 0.85622
vt 0.61316 0.84957
vt 0.61237 0.85388
vt 0.27741 0.28417
vt 0.54355 0.88786
vt 0.53199 0.89064
vt 0.03211 0.85474
vt 0.03547 0.85756
vt 0.02489 0.85431
vt 0.02719 0.86076
vt 0.32926 0.89379
vt 0.32390 0.88432
vt 0.33214 0.88763
vt 0.02383 0.86061
vt 0.32311 0.88793
vt 0.53396 0.89231
vt 0.32130 0.89028
vt 0.60724 0.49572
vt 0.64769 0.49989
vt 0.01679 0.85601
vt 0.32054 0.88410
vt 0.60938 0.50061
vt 0.31330 0.88837
vt 0.39646 0.98056
vt 0.39643 0.98315
vt 0.38846 0.98399
vt 0.30454 0.89368
vt 0.59021 0.50133
vt 0.57028 0.49470
vt 0.38937 0.98878
vt 0.27392 0.98820
vt 0.27392 0.97763
vt 0.28294 0.98781
vt 0.38753 0.32661
vt 0.40363 0.29456
vt 0.34303 0.26243
vt 0.35726 0.23748
vt 0.28538 0.98353
vt 0.38135 0.89802
vt 0.37709 0.90048
vt 0.38330 0.89354
vt 0.56387 0.50228
vt 0.36041 0.89327
vt 0.32361 0.22189
vt 0.35496 0.21843
vt 0.28384 0.97784
vt 0.33997 0.24234
vt 0.38583 0.89198
vt 0.33741 0.88928
vt 0.35976 0.89375
vt 0.34159 0.89376
vt 0.34076 0.19221
vt 0.35096 0.19238
vt 0.98942 0.83712
vt 0.98460 0.83374
vt 0.99480 0.83418
vt 0.32984 0.19727
vt 0.35204 0.86955
vt 0.31962 0.27426
vt 0.74563 0.32936
vt 0.76821 0.34136
vt 0.24420 0.38069
vt 0.25773 0.37953
vt 0.33239 0.87551
vt 0.29867 0.48729
vt 0.29968 0.50091
vt 0.29160 0.49063
vt 0.21987 0.00053
vt 0.21615 0.00399
vt 0.21646 0.00083
vt 0.22204 0.00391
vt 0.00001 0.42751
vt 0.00286 0.41872
vt 0.00401 0.42714
vt 0.32345 0.23212
vt 0.56942 0.54041
vt 0.56835 0.53616
vt 0.57978 0.53658
vt 0.56534 0.53513
vt 0.58496 0.53662
vt 0.59292 0.54199
vt 0.30038 0.50863
vt 0.76396 0.29050
vt 0.60599 0.54247
vt 0.59271 0.53645
vt 0.30089 0.51378
vt 0.37088 0.32942
vt 0.30209 0.52516
vt 0.29634 0.52645
vt 0.06792 0.60609
vt 0.07630 0.60218
vt 0.06992 0.61496
vt 0.32717 0.88296
vt 0.29096 0.50164
vt 0.32137 0.19659
vt 0.67544 0.99117
vt 0.68314 0.99325
vt 0.95898 0.32549
vt 0.96411 0.31766
vt 0.96565 0.32549
vt 0.96296 0.30818
vt 0.37180 0.37024
vt 0.34994 0.33713
vt 0.35006 0.32405
vt 0.34931 0.36068
vt 0.11295 0.66598
vt 0.11067 0.67226
vt 0.11218 0.64993
vt 0.11260 0.67369
vt 0.24522 0.37215
vt 0.24412 0.36451
vt 0.11154 0.68223
vt 0.15230 0.91862
vt 0.17283 0.91862
vt 0.16253 0.92862
vt 0.24544 0.34074
vt 0.07599 0.62797
vt 0.41104 0.30378
vt 0.68586 0.99117
vt 0.35662 0.98037
vt 0.35041 0.98893
vt 0.35110 0.97992
vt 0.18483 0.98209
vt 0.18483 0.99128
vt 0.17949 0.98978
vt 0.19557 0.88509
vt 0.20293 0.89386
vt 0.19592 0.90939
vt 0.97456 0.82200
vt 0.98073 0.83360
vt 0.97454 0.83649
vt 0.13693 0.94759
vt 0.13958 0.94381
vt 0.15503 0.94765
vt 0.97771 0.82181
vt 0.15583 0.99667
vt 0.15291 0.99375
vt 0.15739 0.99267
vt 0.01202 0.38763
vt 0.01202 0.39981
vt 0.01059 0.39869
vt 0.15772 0.99677
vt 0.15182 0.99672
vt 0.99747 0.47850
vt 0.99747 0.48432
vt 0.99700 0.48034
vt 0.14096 0.98041
vt 0.14096 0.98794
vt 0.14045 0.98620
vt 0.14561 0.42317
vt 0.16768 0.42452
vt 0.14925 0.43177
vt 0.11728 0.51841
vt 0.12308 0.51891
vt 0.11712 0.52956
vt 0.11734 0.49657
vt 0.04613 0.09094
vt 0.03942 0.08752
vt 0.03880 0.07037
vt 0.14245 0.43168
vt 0.13893 0.44567
vt 0.98966 0.78832
vt 0.99269 0.77902
vt 0.99526 0.78769
vt 0.12988 0.42663
vt 0.12980 0.42501
vt 0.06079 0.32273
vt 0.06309 0.33355
vt 0.04194 0.32611
vt 0.09853 0.99594
vt 0.09853 0.99050
vt 0.09996 0.99461
vt 0.06220 0.32799
vt 0.34012 0.76289
vt 0.33762 0.76645
vt 0.33656 0.76645
vt 0.33298 0.76385
vt 0.32944 0.75049
vt 0.97563 0.90255
vt 0.97663 0.91855
vt 0.03421 0.64822
vt 0.03344 0.65235
vt 0.03018 0.65007
vt 0.04040 0.73981
vt 0.03670 0.73887
vt 0.03635 0.73491
vt 0.32916 0.76389
vt 0.32473 0.76507
vt 0.05022 0.64747
vt 0.04497 0.74006
vt 0.31904 0.76515
vt 0.29807 0.75274
vt 0.32304 0.76710
vt 0.04104 0.38808
vt 0.05437 0.39241
vt 0.03958 0.39378
vt 0.93875 0.73977
vt 0.94752 0.73979
vt 0.94285 0.74465
vt 0.19582 0.87796
vt 0.20454 0.87890
vt 0.21786 0.88247
vt 0.04227 0.38205
vt 0.19351 0.88335
vt 0.19103 0.87917
vt 0.08116 0.50451
vt 0.07936 0.49863
vt 0.08350 0.50329
vt 0.18918 0.88235
vt 0.92886 0.74022
vt 0.04936 0.65354
vt 0.03883 0.40016
vt 0.95440 0.13364
vt 0.96520 0.12315
vt 0.96462 0.12972
vt 0.04494 0.73391
vt 0.94733 0.74149
vt 0.08717 0.50358
vt 0.09261 0.50542
vt 0.09121 0.50641
vt 0.04028 0.73039
vt 0.96972 0.12627
vt 0.04505 0.72125
vt 0.03334 0.71924
vt 0.09790 0.48714
vt 0.08992 0.48896
vt 0.07648 0.48630
vt 0.08527 0.48855
vt 0.05383 0.40539
vt 0.06117 0.38422
vt 0.09027 0.48522
vt 0.08192 0.47810
vt 0.08148 0.47600
vt 0.14728 0.43936
vt 0.97563 0.91824
vt 0.52555 0.31129
vt 0.52555 0.31129
vt 0.52555 0.31129
vt 0.52555 0.31129
vt 0.52555 0.31129
vt 0.52555 0.31129
vt 0.52555 0.31129
vt 0.52555 0.31129
vt 0.52555 0.31129
vt 0.52555 0.31129
vt 0.52555 0.31129
vt 0.52555 0.31129
vt 0.52555 0.31129
vt 0.52555 0.31129
vt 0.52555 0.31129
vt 0.52555 0.31129
vt 0.52555 0.31129
vt 0.52555 0.31129
vt 0.52555 0.31129
vt 0.52555 0.31129
vt 0.52555 0.31129
vt 0.52555 0.31129
vt 0.52555 0.31129
vt 0.52555 0.31129
vt 0.52555 0.31129
vt 0.52555 0.31129
vt 0.52555 0.31129
vt 0.52555 0.31129
vt 0.52555 0.31129
vt 0.52555 0.31129
vt 0.52555 0.31129
vt 0.98559 0.52815
vt 0.98559 0.52815
vt 0.98559 0.52815
vt 0.98559 0.52815
vt 0.98559 0.52815
vt 0.98559 0.52815
vt 0.98559 0.52815
vt 0.98559 0.52815
vt 0.98559 0.52815
vt 0.98559 0.52815
vt 0.98559 0.52815
vt 0.98559 0.52815
vt 0.98559 0.52815
vt 0.98559 0.52815
vt 0.98559 0.52815
vt 0.98559 0.52815
vt 0.98559 0.52815
vt 0.98559 0.52815
vt 0.98559 0.52815
vt 0.98559 0.52815
vt 0.98559 0.52815
vt 0.98559 0.52815
vt 0.98559 0.52815
vt 0.98559 0.52815
vt 0.98559 0.52815
vt 0.98559 0.52815
vt 0.98559 0.52815
vt 0.98559 0.52815
vt 0.98559 0.52815
vt 0.98559 0.52815
vt 0.98559 0.52815
vt 0.98559 0.52815
vt 0.98559 0.52815
vn 0.8592 0.3046 -0.4111
vn 0.8574 0.1940 -0.4768
vn 0.8492 0.1697 -0.5002
vn 0.2488 -0.1400 -0.9583
vn 0.2193 -0.1600 -0.9625
vn 0.2304 -0.1526 -0.9611
vn 0.2485 -0.1404 -0.9584
vn 0.8648 0.3092 -0.3957
vn 0.8583 0.3221 -0.3994
vn 0.7621 0.5182 -0.3881
vn 0.7621 0.5182 -0.3881
vn 0.7621 0.5182 -0.3881
vn 0.1607 -0.1986 -0.9668
vn -0.0609 0.3161 -0.9468
vn -0.0471 0.3092 -0.9498
vn -0.0622 0.3217 -0.9448
vn 0.8428 -0.3571 -0.4028
vn 0.8509 -0.3512 -0.3907
vn 0.8442 -0.3561 -0.4006
vn -0.7001 -0.3592 -0.6172
vn -0.7300 -0.2921 -0.6179
vn -0.7737 -0.1660 -0.6114
vn 0.8578 0.3439 -0.3819
vn 0.8523 -0.3501 -0.3885
vn -0.7197 -0.3728 -0.5857
vn 0.0404 -0.3486 -0.9364
vn 0.0404 -0.3486 -0.9364
vn 0.0404 -0.3486 -0.9364
vn 0.6977 0.2566 -0.6689
vn 0.1554 0.3737 -0.9145
vn 0.1593 0.3727 -0.9142
vn 0.1780 0.2525 -0.9511
vn 0.1763 0.2116 -0.9614
vn 0.0760 0.3015 -0.9505
vn 0.6607 0.2477 -0.7086
vn -0.8038 -0.0567 -0.5923
vn 0.8257 0.2497 -0.5059
vn 0.8331 0.1810 -0.5226
vn 0.8269 0.1305 -0.5470
vn 0.7936 0.3287 -0.5121
vn -0.7732 0.0268 -0.6336
vn -0.7129 -0.0883 -0.6957
vn 0.7427 0.5952 -0.3068
vn 0.7427 0.5952 -0.3068
vn 0.7427 0.5952 -0.3068
vn -0.4638 0.1948 -0.8643
vn -0.2050 0.2730 -0.9399
vn -0.2523 0.2814 -0.9258
vn 0.8280 0.4143 -0.3779
vn -0.0956 -0.2755 -0.9566
vn -0.0956 -0.2755 -0.9566
vn -0.0956 -0.2755 -0.9566
vn -0.0590 0.3213 -0.9451
vn 0.7821 0.3607 -0.5081
vn 0.1050 0.4771 -0.8726
vn 0.1132 0.2519 -0.9611
vn -0.0563 0.5013 -0.8635
vn -0.1145 0.4342 -0.8935
vn -0.7333 0.0359 -0.6790
vn 0.7391 0.4869 -0.4655
vn 0.6985 0.4232 -0.5771
vn 0.4831 -0.7316 -0.4811
vn 0.3943 -0.7870 -0.4746
vn 0.3373 -0.8169 -0.4679
vn -0.2800 0.2636 -0.9231
vn -0.6987 -0.1090 -0.7070
vn 0.6651 0.5240 -0.5321
vn 0.7663 0.4834 -0.4231
vn 0.6234 0.5547 -0.5512
vn 0.7337 0.4805 -0.4805
vn 0.6343 0.5338 -0.5591
vn 0.2639 -0.8495 -0.4568
vn -0.5898 -0.2582 -0.7652
vn -0.2654 -0.4590 -0.8478
vn -0.0376 0.5451 -0.8375
vn -0.1464 0.4000 -0.9047
vn -0.5814 -0.0059 -0.8136
vn -0.5915 0.0235 -0.8060
vn -0.5881 0.0464 -0.8074
vn 0.0198 -0.5955 -0.8031
vn 0.0183 -0.6683 -0.7437
vn 0.7960 0.4973 -0.3452
vn 0.8009 0.4817 -0.3555
vn 0.7956 0.4934 -0.3514
vn -0.0049 0.2411 -0.9705
vn -0.5851 -0.0433 -0.8098
vn 0.7271 0.5618 -0.3946
vn -0.6092 0.0956 -0.7872
vn -0.3154 -0.3662 -0.8754
vn 0.7931 0.4844 -0.3691
vn 0.1225 0.9909 -0.0553
vn -0.0327 0.9973 -0.0662
vn -0.0067 0.9979 -0.0645
vn 0.8320 0.4709 -0.2936
vn -0.1058 0.9919 -0.0709
vn -0.0376 0.1642 -0.9857
vn -0.0069 0.2085 -0.9780
vn 0.1672 0.5841 -0.7942
vn 0.1672 0.5841 -0.7942
vn 0.1672 0.5841 -0.7942
vn -0.5100 0.1799 -0.8411
vn -0.8498 0.3730 -0.3724
vn -0.8498 0.3730 -0.3724
vn -0.8498 0.3730 -0.3724
vn -0.5414 -0.0539 -0.8390
vn -0.5414 -0.0539 -0.8390
vn -0.5414 -0.0539 -0.8390
vn -0.4026 0.9055 -0.1337
vn -0.3715 0.9224 -0.1054
vn -0.4313 0.8879 -0.1603
vn -0.6592 0.1017 -0.7450
vn -0.3644 0.9260 -0.0989
vn -0.1115 -0.7027 -0.7027
vn -0.1998 -0.7086 -0.6768
vn -0.8197 -0.3841 -0.4250
vn -0.7889 -0.4050 -0.4622
vn -0.6692 0.0871 -0.7379
vn -0.9732 -0.2187 0.0715
vn -0.9742 -0.2222 0.0394
vn -0.9766 -0.2113 0.0407
vn -0.9725 -0.2204 0.0749
vn -0.0343 0.7728 0.6337
vn -0.0343 0.7728 0.6337
vn -0.0343 0.7728 0.6337
vn -0.2678 0.9434 0.1957
vn -0.2633 0.9480 0.1786
vn -0.2645 0.9468 0.1834
vn -0.8377 -0.4511 -0.3076
vn -0.2608 0.9504 0.1693
vn -0.9693 -0.2445 0.0242
vn -0.7678 -0.1286 -0.6277
vn -0.7678 -0.1286 -0.6277
vn -0.7678 -0.1286 -0.6277
vn -0.8246 -0.5394 -0.1702
vn -0.8510 -0.4511 -0.2690
vn 0.3264 0.9390 -0.1082
vn 0.3265 0.9396 -0.1028
vn 0.3267 0.9399 -0.0994
vn 0.3239 0.9418 -0.0907
vn 0.4620 0.3653 0.8082
vn 0.4794 0.3845 0.7889
vn 0.4928 0.3547 0.7945
vn 0.8402 0.0083 0.5423
vn 0.8402 0.0083 0.5423
vn 0.8402 0.0083 0.5423
vn 0.4474 0.3298 0.8314
vn 0.1295 0.9435 0.3049
vn 0.1295 0.9435 0.3049
vn 0.1295 0.9435 0.3049
vn 0.9567 -0.0271 -0.2898
vn 0.5539 0.8058 -0.2097
vn 0.7279 0.6648 -0.1680
vn 0.7266 0.6657 -0.1702
vn 0.6088 0.1440 0.7802
vn 0.6659 0.1821 0.7235
vn 0.5010 0.1328 0.8552
vn 0.9634 -0.0100 -0.2680
vn 0.7058 0.6820 -0.1915
vn 0.4585 0.3455 0.8188
vn 0.9885 0.0279 -0.1489
vn 0.9897 -0.0251 -0.1406
vn 0.6529 0.7233 -0.2251
vn 0.9689 -0.0514 -0.2418
vn 0.4243 0.4074 0.8087
vn 0.5688 0.0990 -0.8165
vn 0.5652 0.2467 -0.7872
vn 0.5707 0.0963 -0.8155
vn 0.9784 0.2008 -0.0476
vn 0.9738 0.2190 -0.0603
vn 0.9938 0.0914 -0.0636
vn 0.9890 0.1228 -0.0820
vn 0.9943 -0.1027 -0.0276
vn 0.0703 0.9934 -0.0907
vn 0.0703 0.9934 -0.0907
vn 0.0703 0.9934 -0.0907
vn 0.5546 0.2804 -0.7835
vn 0.5294 0.8052 -0.2672
vn 0.5294 0.8052 -0.2672
vn 0.5294 0.8052 -0.2672
vn 0.7140 0.2228 -0.6638
vn 0.6979 0.2331 -0.6772
vn 0.7629 0.1764 -0.6221
vn 0.7195 0.2033 -0.6642
vn 0.9314 0.3020 -0.2030
vn 0.7444 0.1478 -0.6512
vn 0.8799 0.0375 0.4737
vn 0.7835 0.0213 0.6212
vn 0.7767 0.0016 0.6298
vn 0.9210 0.2948 -0.2545
vn 0.9004 0.0658 0.4301
vn 0.3966 0.0913 -0.9135
vn 0.6537 0.1412 -0.7435
vn 0.1438 0.9895 -0.0106
vn 0.2555 0.9637 -0.0778
vn 0.1018 0.9947 0.0159
vn 0.5574 0.4285 -0.7112
vn 0.8634 0.1770 -0.4724
vn 0.5806 0.4175 -0.6990
vn 0.6380 0.4277 -0.6403
vn 0.5520 0.4279 -0.7156
vn 0.8994 -0.1421 -0.4135
vn 0.9121 -0.1327 -0.3878
vn 0.8931 -0.1196 -0.4336
vn 0.8952 -0.1554 -0.4177
vn 0.9044 0.0726 -0.4205
vn 0.3941 0.0344 -0.9184
vn 0.4170 -0.3467 -0.8402
vn 0.3699 -0.3237 -0.8709
vn 0.3810 -0.3292 -0.8640
vn 0.8927 0.1838 -0.4115
vn -0.8806 0.2720 0.3880
vn -0.8806 0.2720 0.3880
vn -0.8806 0.2720 0.3880
vn 0.4371 -0.3563 -0.8258
vn 0.9073 0.1303 0.3998
vn 0.9292 0.0665 0.3633
vn 0.9189 -0.0836 0.3855
vn 0.3911 0.9140 -0.1081
vn 0.3562 0.9289 -0.1013
vn 0.7785 0.5519 -0.2988
vn 0.7770 0.5550 -0.2972
vn 0.7780 0.5528 -0.2984
vn 0.8954 -0.2640 0.3586
vn 0.9001 -0.2660 0.3450
vn 0.6127 -0.0534 0.7885
vn 0.6406 -0.0305 0.7672
vn 0.9017 0.3113 -0.3000
vn 0.9096 0.2644 -0.3204
vn 0.9000 0.3225 -0.2931
vn 0.7787 0.5515 -0.2991
vn 0.7785 0.5518 -0.2992
vn 0.6591 0.0256 0.7516
vn 0.8877 0.3598 -0.2874
vn 0.5692 -0.0874 0.8176
vn 0.5400 -0.1219 0.8328
vn 0.8512 -0.4099 0.3276
vn 0.8218 0.3018 0.4834
vn 0.7867 0.2854 0.5473
vn 0.6799 0.1515 0.7175
vn 0.8367 0.1402 0.5294
vn 0.8373 0.1329 0.5303
vn 0.8625 0.0328 0.5051
vn 0.8444 -0.4240 0.3274
vn 0.9042 0.3415 -0.2567
vn 0.9128 0.3315 -0.2384
vn 0.7312 0.2200 0.6458
vn 0.8906 -0.4103 -0.1961
vn 0.8906 -0.4103 -0.1961
vn 0.8906 -0.4103 -0.1961
vn 0.8072 0.2137 0.5502
vn 0.5223 0.0230 0.8525
vn 0.5114 0.0049 0.8593
vn -0.1038 -0.2861 0.9525
vn -0.0678 -0.3709 0.9262
vn -0.1092 -0.2452 0.9633
vn 0.7275 0.4181 0.5441
vn 0.7924 0.2076 0.5735
vn 0.7748 0.0681 0.6286
vn 0.5829 0.4806 0.6551
vn -0.1678 -0.1213 0.9784
vn -0.4537 -0.4798 0.7510
vn -0.4537 -0.4798 0.7510
vn -0.4537 -0.4798 0.7510
vn -0.5914 -0.7963 -0.1273
vn -0.5914 -0.7963 -0.1273
vn -0.5914 -0.7963 -0.1273
vn 0.2733 -0.9543 0.1213
vn 0.2733 -0.9543 0.1213
vn 0.2733 -0.9543 0.1213
vn 0.6269 -0.7219 -0.2931
vn 0.6269 -0.7219 -0.2931
vn 0.6269 -0.7219 -0.2931
vn 0.6142 0.6779 -0.4041
vn 0.5394 0.4490 -0.7123
vn 0.6468 0.5314 -0.5470
vn 0.6506 0.3966 -0.6476
vn 0.5017 -0.0355 0.8644
vn 0.5017 -0.0355 0.8644
vn 0.5017 -0.0355 0.8644
vn 0.9020 0.3888 0.1881
vn 0.9203 0.3884 0.0470
vn 0.9220 0.3872 -0.0075
vn 0.6284 0.0635 0.7753
vn 0.4315 0.4848 -0.7608
vn 0.6303 0.3589 0.6885
vn 0.6830 0.1176 0.7209
vn 0.6064 0.4086 0.6821
vn 0.5571 -0.7630 0.3280
vn 0.5238 -0.7943 0.3078
vn 0.5443 -0.7514 0.3729
vn 0.0687 -0.0761 0.9948
vn -0.0234 -0.1072 0.9940
vn 0.9097 0.4151 -0.0166
vn 0.9219 0.3774 0.0872
vn 0.1438 -0.3086 0.9403
vn 0.0264 -0.1202 0.9924
vn -0.0109 -0.2729 0.9619
vn 0.6713 0.1056 0.7336
vn 0.9024 0.3827 -0.1980
vn -0.2248 -0.0645 0.9723
vn 0.0404 -0.0983 0.9943
vn 0.4572 -0.8441 0.2801
vn 0.4908 -0.8234 0.2846
vn 0.1978 0.9560 0.2165
vn 0.1978 0.9560 0.2165
vn 0.1978 0.9560 0.2165
vn 0.6870 0.1108 0.7182
vn 0.6835 0.0894 0.7245
vn 0.6805 0.1022 0.7256
vn 0.4470 0.5898 0.6725
vn 0.4438 0.5974 0.6680
vn -0.9514 -0.2453 0.1862
vn -0.9401 -0.2739 0.2032
vn -0.9382 -0.2434 0.2459
vn 0.5217 -0.8236 0.2227
vn 0.6854 0.0918 0.7224
vn -0.2937 0.2399 0.9253
vn -0.2123 0.3533 0.9111
vn -0.1803 0.3279 0.9273
vn -0.2075 -0.8464 0.4904
vn -0.2075 -0.8464 0.4904
vn -0.2075 -0.8464 0.4904
vn -0.7932 -0.1337 -0.5942
vn -0.7883 -0.1425 -0.5986
vn -0.7882 -0.1404 -0.5993
vn 0.5863 -0.7908 0.1757
vn -0.9472 -0.2859 0.1455
vn -0.7929 -0.6056 -0.0681
vn -0.0760 -0.1236 0.9894
vn 0.1962 -0.8878 -0.4162
vn 0.2340 -0.8192 -0.5235
vn 0.1127 -0.9534 -0.2800
vn -0.8607 -0.3613 0.3587
vn -0.8815 -0.3587 0.3068
vn -0.8628 -0.3611 0.3538
vn -0.9381 -0.3462 0.0063
vn -0.7886 -0.1439 -0.5979
vn -0.3030 -0.4169 0.8570
vn -0.3432 -0.2061 0.9164
vn -0.9148 -0.3730 0.1551
vn -0.2982 -0.2218 0.9284
vn -0.2982 -0.2218 0.9284
vn -0.2982 -0.2218 0.9284
vn -0.3110 -0.5787 0.7539
vn -0.4605 -0.5653 0.6844
vn -0.4584 -0.5251 0.7171
vn 0.1433 -0.0428 0.9887
vn 0.6788 0.0634 0.7316
vn -0.6142 -0.3493 -0.7077
vn -0.3849 -0.3159 -0.8672
vn -0.4206 -0.3322 -0.8442
vn -0.1425 -0.9763 -0.1628
vn -0.2616 -0.9514 -0.1623
vn -0.8830 -0.3585 0.3031
vn -0.7954 -0.5988 0.0939
vn 0.3643 -0.4721 0.8027
vn 0.4898 -0.3765 0.7864
vn 0.5155 -0.8177 0.2560
vn 0.5155 -0.8177 0.2560
vn 0.5155 -0.8177 0.2560
vn -0.7374 -0.6749 0.0270
vn -0.0792 0.0295 0.9964
vn -0.7467 -0.6427 0.1715
vn -0.7358 -0.6605 0.1495
vn -0.2435 -0.2713 -0.9311
vn -0.3209 -0.2968 -0.8994
vn -0.0183 0.0978 0.9950
vn 0.0100 -0.0941 0.9955
vn -0.2268 -0.9396 0.2563
vn -0.0939 -0.9903 0.1020
vn -0.1729 -0.9657 0.1936
vn -0.8007 -0.5042 0.3238
vn -0.6771 -0.6273 0.3847
vn -0.7884 -0.5681 0.2360
vn 0.2870 -0.1632 0.9439
vn 0.2841 -0.1686 0.9438
vn -0.7326 -0.6758 0.0813
vn -0.0488 -0.9976 0.0497
vn 0.2159 -0.1009 0.9712
vn 0.7961 -0.0961 -0.5974
vn 0.9213 -0.0069 -0.3886
vn 0.9051 0.1399 0.4014
vn 0.9233 0.1255 0.3629
vn -0.3272 -0.2632 0.9075
vn 0.8274 0.1840 -0.5306
vn 0.6664 0.1571 -0.7288
vn 0.8075 0.2013 -0.5544
vn 0.8224 0.2490 -0.5115
vn 0.6507 0.1706 -0.7398
vn 0.8451 -0.5162 0.1386
vn 0.9050 -0.3811 0.1895
vn 0.9105 -0.3765 0.1710
vn -0.5004 0.6718 -0.5462
vn -0.5196 0.6613 -0.5410
vn 0.5455 0.7583 -0.3568
vn 0.5308 0.7545 -0.3857
vn 0.5410 0.7525 -0.3756
vn 0.5631 0.7436 -0.3606
vn 0.5598 0.7485 -0.3554
vn 0.5775 0.7345 -0.3563
vn 0.9109 -0.3740 0.1745
vn 0.5139 0.7519 -0.4128
vn 0.8511 -0.0357 -0.5238
vn 0.8462 0.1317 -0.5162
vn 0.9265 -0.0373 -0.3743
vn 0.9673 -0.1521 -0.2030
vn 0.9342 -0.3396 0.1097
vn 0.8268 0.1414 0.5444
vn 0.8742 0.1482 0.4623
vn 0.8776 0.1486 0.4556
vn 0.9162 -0.0284 -0.3998
vn 0.8167 0.1136 -0.5658
vn 0.5766 0.7314 -0.3642
vn 0.7280 0.1576 -0.6673
vn 0.5809 0.1703 -0.7960
vn 0.5809 0.1703 -0.7960
vn 0.5809 0.1703 -0.7960
vn -0.4944 0.6892 -0.5296
vn -0.4664 0.7107 -0.5266
vn 0.9806 0.1906 -0.0443
vn 0.9806 0.1906 -0.0443
vn 0.9806 0.1906 -0.0443
vn 0.8008 0.1376 0.5829
vn 0.7430 0.2517 -0.6201
vn -0.5620 0.6737 -0.4799
vn 0.0568 0.7295 -0.6816
vn 0.1132 0.4931 -0.8625
vn 0.1176 0.7228 -0.6810
vn 0.7051 0.1670 -0.6893
vn 0.7710 0.2076 -0.6020
vn 0.7595 0.2238 -0.6109
vn 0.0811 0.5757 -0.8136
vn 0.8345 0.1520 -0.5297
vn 0.9239 0.3499 -0.1550
vn 0.9239 0.3499 -0.1550
vn 0.9239 0.3499 -0.1550
vn 0.8488 0.1395 -0.5099
vn 0.8703 0.0743 0.4868
vn 0.8703 0.0743 0.4868
vn 0.8703 0.0743 0.4868
vn 0.5112 -0.7813 0.3582
vn 0.5457 0.7440 0.3857
vn 0.4156 0.8121 0.4097
vn 0.4517 0.7875 0.4193
vn -0.6303 0.6896 -0.3567
vn 0.5864 -0.6338 0.5043
vn 0.5739 -0.5494 0.6072
vn 0.5321 -0.2015 0.8223
vn 0.5518 -0.5375 0.6376
vn -0.3000 0.7081 -0.6392
vn -0.3068 0.7139 -0.6294
vn -0.2974 0.7058 -0.6430
vn -0.3099 0.7165 -0.6250
vn 0.3260 0.8605 0.3915
vn 0.2399 0.4054 -0.8821
vn 0.2791 0.3858 -0.8794
vn 0.3641 0.3937 -0.8441
vn 0.3012 0.8806 0.3658
vn 0.0141 0.5135 -0.8580
vn 0.4067 0.3072 -0.8603
vn 0.3648 0.3279 -0.8715
vn 0.0342 0.0650 -0.9973
vn 0.0197 0.2671 -0.9634
vn 0.0052 0.0427 -0.9991
vn 0.2598 0.4322 -0.8636
vn 0.1878 0.9008 0.3915
vn 0.2119 0.9035 0.3725
vn -0.7428 0.2867 -0.6051
vn -0.8880 0.2229 -0.4022
vn -0.8728 -0.0736 -0.4825
vn -0.9296 0.1196 -0.3487
vn 0.4786 0.7733 -0.4157
vn 0.5465 0.6395 -0.5407
vn 0.5049 0.7572 -0.4144
vn -0.8402 -0.1498 -0.5211
vn 0.5780 0.6343 -0.5134
vn 0.1168 0.8506 0.5127
vn 0.3776 0.8268 -0.4168
vn -0.5380 0.4999 -0.6786
vn -0.5946 0.2419 -0.7668
vn -0.7219 -0.3804 -0.5781
vn 0.7197 0.2858 -0.6328
vn -0.5169 0.3940 -0.7600
vn 0.8448 0.1398 -0.5165
vn -0.3357 0.7962 -0.5034
vn -0.3128 0.8007 -0.5110
vn -0.2591 0.8091 -0.5273
vn 0.8553 0.1370 -0.4996
vn -0.5228 0.6373 -0.5661
vn -0.5701 0.6460 -0.5076
vn -0.2436 0.8111 -0.5318
vn 0.5552 0.8162 -0.1599
vn 0.5112 0.8492 -0.1326
vn 0.4810 0.8668 -0.1317
vn 0.4059 -0.6926 0.5964
vn 0.3917 -0.6972 0.6004
vn -0.9490 0.1688 -0.2662
vn -0.9797 0.2001 0.0085
vn 0.4546 0.8840 -0.1092
vn -0.1414 -0.3146 -0.9387
vn -0.1394 -0.2977 -0.9444
vn -0.0461 -0.2359 -0.9707
vn -0.5787 0.6468 -0.4967
vn -0.1209 -0.2832 -0.9514
vn -0.9571 0.2562 0.1354
vn -0.9533 0.2743 0.1272
vn 0.5071 0.8554 -0.1059
vn -0.9772 0.2107 0.0261
vn -0.0033 -0.2056 -0.9786
vn -0.5711 -0.4004 -0.7166
vn -0.5300 -0.3726 -0.7618
vn -0.6833 -0.3353 -0.6486
vn -0.9431 0.2736 0.1891
vn -0.9535 0.1454 0.2640
vn -0.2582 0.7912 0.5545
vn -0.2582 0.7912 0.5545
vn -0.2582 0.7912 0.5545
vn -0.9283 0.3245 0.1812
vn -0.5169 -0.4240 -0.7437
vn -0.9573 0.2376 -0.1647
vn -0.5264 -0.5601 0.6396
vn -0.5275 -0.5630 0.6361
vn -0.4519 -0.5207 0.7243
vn -0.4380 -0.5030 0.7451
vn -0.5719 -0.4391 -0.6929
vn -0.4976 -0.2864 0.8188
vn -0.5000 -0.3536 0.7905
vn -0.5102 -0.2993 0.8063
vn -0.2738 0.2337 0.9330
vn -0.3528 0.2162 0.9104
vn -0.5631 0.1582 0.8111
vn -0.1260 0.2611 0.9571
vn -0.3045 0.8287 0.4696
vn -0.3045 0.8287 0.4696
vn -0.3045 0.8287 0.4696
vn -0.9757 0.1695 0.1387
vn -0.4310 0.5439 -0.7200
vn -0.4289 0.4353 -0.7916
vn -0.4466 0.5815 -0.6800
vn -0.4248 0.3378 -0.8399
vn -0.4764 0.5916 -0.6504
vn -0.4796 0.5859 -0.6532
vn -0.5438 -0.3062 0.7813
vn -0.4650 -0.4164 0.7812
vn -0.5164 0.4376 -0.7361
vn -0.4811 0.5873 -0.6508
vn -0.5520 -0.2905 0.7817
vn -0.9815 0.1423 0.1281
vn -0.5127 -0.2949 0.8063
vn -0.5281 -0.2938 0.7967
vn -0.5781 -0.8139 0.0576
vn -0.5942 -0.7919 0.1409
vn -0.6048 -0.7666 0.2157
vn -0.6186 -0.3565 -0.7001
vn -0.5329 -0.3071 0.7885
vn -0.9231 0.2963 0.2452
vn -0.6809 -0.7316 -0.0345
vn -0.6809 -0.7316 -0.0345
vn -0.5858 0.8002 0.1283
vn -0.6310 0.7526 0.1883
vn -0.5600 0.8229 0.0962
vn -0.6511 0.7274 0.2169
vn -0.9425 0.2897 0.1666
vn -0.9484 0.2557 0.1873
vn -0.9897 0.1026 0.0999
vn -0.9421 0.2885 0.1712
vn -0.8915 0.1599 0.4238
vn -0.9493 0.0827 0.3033
vn -0.8837 0.1577 0.4406
vn -0.9487 -0.0491 0.3124
vn -0.4710 -0.2193 0.8545
vn -0.3328 -0.3725 0.8663
vn -0.9316 -0.1543 0.3291
vn -0.8153 -0.5479 -0.1875
vn -0.8153 -0.5479 -0.1875
vn -0.8153 -0.5479 -0.1875
vn -0.2896 -0.4209 0.8597
vn -0.6096 -0.7479 0.2628
vn 0.4802 -0.6619 0.5757
vn -0.6809 -0.7316 -0.0345
vn -0.7165 -0.6751 0.1757
vn -0.7165 -0.6751 0.1757
vn -0.7165 -0.6751 0.1757
vn -0.3342 -0.2032 0.9204
vn -0.3342 -0.2032 0.9204
vn -0.3342 -0.2032 0.9204
vn -0.9746 -0.2230 0.0183
vn -0.9746 -0.2230 0.0183
vn -0.9746 -0.2230 0.0183
vn 0.7257 -0.1003 0.6807
vn 0.5809 -0.0887 0.8091
vn 0.5433 -0.0854 0.8352
vn 0.9568 0.2872 -0.0465
vn 0.9568 0.2872 -0.0465
vn 0.9568 0.2872 -0.0465
vn 0.7912 -0.1050 0.6026
vn 0.4622 0.5510 0.6948
vn 0.3648 0.6537 0.6629
vn 0.4430 0.5654 0.6957
vn 0.9901 0.0656 -0.1237
vn 0.9901 0.0656 -0.1237
vn 0.9901 0.0656 -0.1237
vn 0.5961 0.3709 0.7121
vn 0.3678 0.6614 0.6536
vn 0.8515 0.2082 -0.4811
vn 0.8515 0.2082 -0.4811
vn 0.8515 0.2082 -0.4811
vn 0.5449 0.5850 0.6007
vn 0.5449 0.5850 0.6007
vn 0.5449 0.5850 0.6007
vn 0.6073 -0.3738 0.7010
vn 0.5567 -0.6019 0.5725
vn 0.5813 -0.3719 0.7238
vn 0.8740 -0.0512 0.4833
vn 0.8742 -0.0525 0.4828
vn 0.8837 -0.1431 0.4456
vn 0.8577 0.0324 0.5132
vn 0.9252 0.2466 -0.2882
vn 0.9252 0.2466 -0.2882
vn 0.9252 0.2466 -0.2882
vn 0.5711 -0.3041 0.7626
vn 0.4351 -0.5637 0.7021
vn -0.0920 -0.3876 0.9173
vn -0.0920 -0.3876 0.9173
vn -0.0920 -0.3876 0.9173
vn 0.6744 -0.1775 0.7167
vn 0.6551 -0.1916 0.7308
vn -0.1045 -0.3443 0.9331
vn -0.1020 -0.3375 0.9357
vn -0.1094 -0.3582 0.9273
vn 0.3523 0.8553 0.3798
vn 0.3523 0.8553 0.3798
vn 0.3523 0.8553 0.3798
vn 0.0580 0.1201 0.9910
vn -0.3068 0.0101 0.9518
vn -0.1506 0.3209 0.9351
vn -0.2586 0.0429 0.9651
vn -0.3471 -0.0064 0.9378
vn -0.4244 -0.1256 0.8967
vn 0.1429 -0.3514 0.9252
vn 0.1429 -0.3514 0.9252
vn 0.7597 -0.3141 0.5693
vn 0.7657 -0.3374 0.5477
vn 0.7624 -0.4750 0.4395
vn 0.0232 -0.8121 0.5830
vn 0.2170 -0.8358 0.5042
vn 0.0078 -0.6765 0.7364
vn -0.3497 0.0289 0.9364
vn -0.4609 -0.1059 0.8811
vn 0.7674 -0.2211 0.6017
vn -0.0352 -0.7965 0.6037
vn -0.4471 -0.1696 0.8783
vn -0.5104 -0.3340 0.7924
vn -0.3812 -0.0029 0.9244
vn -0.6577 -0.7497 0.0735
vn -0.6619 -0.7446 0.0863
vn -0.6790 -0.7340 -0.0126
vn 0.0863 -0.4451 0.8913
vn 0.0016 -0.3661 0.9305
vn 0.0559 -0.4391 0.8967
vn -0.9216 0.2527 0.2948
vn -0.9525 0.2892 0.0959
vn -0.9405 0.2236 0.2557
vn -0.6497 -0.7458 0.1471
vn -0.8745 0.3134 0.3702
vn -0.8279 0.3791 0.4133
vn -0.5624 -0.7455 0.3576
vn -0.7089 -0.6347 0.3075
vn -0.6897 -0.6485 0.3218
vn -0.7385 0.4222 0.5258
vn 0.0985 -0.4376 0.8937
vn 0.7719 -0.2206 0.5961
vn -0.6756 -0.7370 -0.0190
vn -0.6395 0.7395 0.2102
vn -0.6186 0.7512 0.2304
vn -0.6290 0.7455 0.2205
vn -0.0091 -0.7165 0.6975
vn -0.0642 -0.2383 0.9691
vn -0.4581 -0.6621 0.5931
vn -0.2028 -0.6406 0.7406
vn -0.1550 -0.6813 0.7154
vn 0.0571 -0.5638 0.8239
vn -0.6041 0.7586 0.2439
vn 0.2480 -0.5589 0.7913
vn 0.2100 -0.4923 0.8447
vn -0.2654 -0.5163 0.8143
vn -0.4412 -0.4949 0.7486
vn -0.7819 -0.5016 0.3701
vn -0.6974 -0.5543 0.4542
vn -0.6605 -0.7508 -0.0040
vn -0.6524 -0.7352 0.1839
vn -0.5846 -0.3522 0.7309
vn -0.7383 -0.3458 0.5791
vn -0.6911 -0.2885 0.6626
vn 0.5012 -0.4058 0.7643
vn 0.1429 -0.3514 0.9252
vn 0.0000 1.0000 0.0000
vn 0.0000 1.0000 0.0000
vn 0.0000 1.0000 0.0000
vn 0.0000 1.0000 0.0000
vn 0.0000 1.0000 0.0000
vn 0.0000 1.0000 0.0000
vn 0.0000 1.0000 0.0000
vn 0.0000 1.0000 0.0000
vn 0.0000 1.0000 0.0000
vn 0.0000 1.0000 0.0000
vn 0.0000 1.0000 0.0000
vn 0.0000 1.0000 0.0000
vn 0.0000 1.0000 0.0000
vn 0.0000 1.0000 0.0000
vn 0.0000 1.0000 0.0000
vn 0.0000 1.0000 0.0000
vn 0.0000 1.0000 0.0000
vn 0.0000 1.0000 0.0000
vn 0.0000 1.0000 0.0000
vn 0.0000 1.0000 0.0000
vn 0.0000 1.0000 0.0000
vn 0.0000 1.0000 0.0000
vn 0.0000 1.0000 0.0000
vn 0.0000 1.0000 0.0000
vn 0.0000 1.0000 0.0000
vn 0.0000 1.0000 0.0000
vn 0.0000 1.0000 0.0000
vn 0.0000 1.0000 0.0000
vn 0.0000 1.0000 0.0000
vn 0.0000 1.0000 0.0000
vn 0.0000 1.0000 0.0000
vn 0.0000 1.0000 0.0000
vn 0.0000 1.0000 0.0000
vn 0.0000 1.0000 0.0000
vn 0.0000 1.0000 0.0000
vn 0.0000 1.0000 0.0000
vn 0.0000 1.0000 0.0000
vn 0.0000 1.0000 0.0000
vn 0.0000 1.0000 0.0000
vn 0.0000 1.0000 0.0000
vn 0.0000 1.0000 0.0000
vn 0.0000 1.0000 0.0000
vn 0.0000 1.0000 0.0000
vn 0.0000 1.0000 0.0000
vn 0.0000 1.0000 0.0000
vn 0.0000 1.0000 0.0000
vn 0.0000 1.0000 0.0000
vn 0.0000 1.0000 0.0000
vn 0.0000 1.0000 0.0000
vn 0.0000 1.0000 0.0000
vn 0.0000 1.0000 0.0000
vn 0.0000 1.0000 0.0000
vn 0.0000 1.0000 0.0000
vn 0.0000 1.0000 0.0000
vn 0.0000 1.0000 0.0000
vn 0.0000 1.0000 0.0000
vn 0.0000 1.0000 0.0000
vn 0.0000 1.0000 0.0000
vn 0.0000 1.0000 0.0000
vn 0.0000 1.0000 0.0000
vn 0.0000 1.0000 0.0000
vn 0.0000 1.0000 0.0000
vn 0.0000 1.0000 0.0000
vn 0.0000 1.0000 0.0000
f 386/386/386 387/387/387 388/388/388
f 386/386/386 388/388/388 389/389/389
f 385/385/385 388/388/388 387/387/387
f 391/391/391 392/392/392 390/390/390
f 395/395/395 396/396/396 397/397/397
f 398/398/398 399/399/399 400/400/400
f 392/392/392 391/391/391 401/401/401
f 399/399/399 397/397/397 402/402/402
f 395/395/395 397/397/397 399/399/399
f 405/405/405 403/403/403 404/404/404
f 406/406/406 403/403/403 405/405/405
f 407/407/407 390/390/390 392/392/392
f 408/408/408 409/409/409 410/410/410
f 411/411/411 404/404/404 412/412/412
f 404/404/404 411/411/411 405/405/405
f 411/411/411 406/406/406 405/405/405
f 399/399/399 413/413/413 400/400/400
f 414/414/414 411/411/411 412/412/412
f 399/399/399 402/402/402 413/413/413
f 415/415/415 416/416/416 417/417/417
f 418/418/418 419/419/419 393/393/393
f 420/420/420 421/421/421 422/422/422
f 165/165/165 166/166/166 167/167/167
f 423/423/423 409/409/409 408/408/408
f 168/168/168 169/169/169 170/170/170
f 418/418/418 393/393/393 425/425/425
f 171/171/171 172/172/172 170/170/170
f 426/426/426 427/427/427 428/428/428
f 414/414/414 412/412/412 429/429/429
f 430/430/430 424/424/424 431/431/431
f 173/173/173 174/174/174 175/175/175
f 427/427/427 432/432/432 428/428/428
f 170/170/170 169/169/169 171/171/171
f 176/176/176 166/166/166 165/165/165
f 393/393/393 394/394/394 425/425/425
f 430/430/430 431/431/431 433/433/433
f 434/434/434 435/435/435 436/436/436
f 177/177/177 178/178/178 179/179/179
f 590/590/590 591/591/591 592/592/592
f 437/437/437 430/430/430 433/433/433
f 180/180/180 181/181/181 182/182/182
f 438/438/438 439/439/439 440/440/440
f 1/1/1 2/2/2 3/3/3
f 442/442/442 443/443/443 444/444/444
f 418/418/418 425/425/425 445/445/445
f 182/182/182 181/181/181 183/183/183
f 168/168/168 184/184/184 169/169/169
f 593/593/593 594/594/594 595/595/595
f 4/4/4 5/5/5 6/6/6
f 185/185/185 182/182/182 183/183/183
f 186/186/186 187/187/187 188/188/188
f 447/447/447 448/448/448 449/449/449
f 450/450/450 451/451/451 452/452/452
f 7/7/7 4/4/4 6/6/6
f 453/453/453 451/451/451 450/450/450
f 8/8/8 2/2/2 1/1/1
f 8/8/8 1/1/1 9/9/9
f 169/169/169 184/184/184 189/189/189
f 444/444/444 443/443/443 454/454/454
f 187/187/187 186/186/186 190/190/190
f 455/455/455 456/456/456 457/457/457
f 185/185/185 191/191/191 192/192/192
f 454/454/454 443/443/443 458/458/458
f 182/182/182 185/185/185 192/192/192
f 459/459/459 432/432/432 427/427/427
f 460/460/460 461/461/461 457/457/457
f 193/193/193 194/194/194 195/195/195
f 446/446/446 441/441/441 447/447/447
f 176/176/176 196/196/196 166/166/166
f 591/591/591 590/590/590 596/596/596
f 192/192/192 197/197/197 182/182/182
f 198/198/198 199/199/199 166/166/166
f 10/10/10 11/11/11 12/12/12
f 597/597/597 598/598/598 599/599/599
f 427/427/427 462/462/462 463/463/463
f 200/200/200 198/198/198 166/166/166
f 462/462/462 464/464/464 463/463/463
f 6/6/6 5/5/5 13/13/13
f 201/201/201 202/202/202 203/203/203
f 427/427/427 463/463/463 459/459/459
f 202/202/202 201/201/201 204/204/204
f 14/14/14 15/15/15 16/16/16
f 197/197/197 192/192/192 205/205/205
f 192/192/192 191/191/191 206/206/206
f 455/455/455 457/457/457 465/465/465
f 380/380/380 201/201/201 203/203/203
f 207/207/207 208/208/208 209/209/209
f 200/200/200 166/166/166 196/196/196
f 449/449/449 446/446/446 447/447/447
f 205/205/205 381/381/381 210/210/210
f 211/211/211 212/212/212 213/213/213
f 197/197/197 205/205/205 210/210/210
f 466/466/466 467/467/467 458/458/458
f 600/600/600 601/601/601 602/602/602
f 214/214/214 207/207/207 209/209/209
f 454/454/454 458/458/458 467/467/467
f 468/468/468 469/469/469 470/470/470
f 599/599/599 603/603/603 597/597/597
f 597/597/597 604/604/604 598/598/598
f 17/17/17 18/18/18 19/19/19
f 470/470/470 469/469/469 471/471/471
f 20/20/20 21/21/21 22/22/22
f 9/9/9 23/23/23 8/8/8
f 472/472/472 473/473/473 474/474/474
f 605/605/605 606/606/606 607/607/607
f 215/215/215 216/216/216 217/217/217
f 18/18/18 24/24/24 19/19/19
f 218/218/218 194/194/194 219/219/219
f 219/219/219 194/194/194 193/193/193
f 220/220/220 221/221/221 222/222/222
f 608/608/608 609/609/609 610/610/610
f 215/215/215 223/223/223 382/382/382
f 471/471/471 475/475/475 470/470/470
f 21/21/21 20/20/20 25/25/25
f 611/611/611 612/612/612 613/613/613
f 465/465/465 457/457/457 461/461/461
f 187/187/187 190/190/190 383/383/383
f 26/26/26 27/27/27 28/28/28
f 472/472/472 476/476/476 473/473/473
f 216/216/216 224/224/224 217/217/217
f 466/466/466 477/477/477 467/467/467
f 472/472/472 478/478/478 476/476/476
f 614/614/614 615/615/615 616/616/616
f 188/188/188 225/225/225 226/226/226
f 9/9/9 29/29/29 23/23/23
f 470/470/470 475/475/475 481/481/481
f 30/30/30 31/31/31 32/32/32
f 473/473/473 476/476/476 482/482/482
f 483/483/483 479/479/479 480/480/480
f 484/484/484 482/482/482 476/476/476
f 187/187/187 225/225/225 188/188/188
f 485/485/485 486/486/486 487/487/487
f 617/617/617 615/615/615 614/614/614
f 33/33/33 34/34/34 32/32/32
f 488/488/488 484/484/484 476/476/476
f 29/29/29 9/9/9 35/35/35
f 618/618/618 619/619/619 620/620/620
f 479/479/479 489/489/489 490/490/490
f 22/22/22 21/21/21 36/36/36
f 37/37/37 38/38/38 39/39/39
f 621/621/621 613/613/613 695/695/695
f 31/31/31 33/33/33 32/32/32
f 486/486/486 491/491/491 487/487/487
f 38/38/38 37/37/37 40/40/40
f 227/227/227 228/228/228 229/229/229
f 492/492/492 493/493/493 494/494/494
f 622/622/622 621/621/621 695/695/695
f 22/22/22 41/41/41 42/42/42
f 220/220/220 222/222/222 230/230/230
f 43/43/43 44/44/44 45/45/45
f 22/22/22 36/36/36 41/41/41
f 217/217/217 223/223/223 215/215/215
f 46/46/46 47/47/47 48/48/48
f 49/49/49 40/40/40 37/37/37
f 495/495/495 496/496/496 579/579/579
f 479/479/479 483/483/483 489/489/489
f 621/621/621 611/611/611 613/613/613
f 50/50/50 51/51/51 52/52/52
f 16/16/16 53/53/53 14/14/14
f 40/40/40 49/49/49 54/54/54
f 231/231/231 230/230/230 222/222/222
f 55/55/55 34/34/34 56/56/56
f 217/217/217 224/224/224 223/223/223
f 34/34/34 57/57/57 58/58/58
f 494/494/494 493/493/493 499/499/499
f 33/33/33 56/56/56 34/34/34
f 500/500/500 501/501/501 502/502/502
f 490/490/490 489/489/489 503/503/503
f 225/225/225 187/187/187 232/232/232
f 501/501/501 504/504/504 502/502/502
f 505/505/505 506/506/506 498/498/498
f 623/623/623 624/624/624 625/625/625
f 233/233/233 227/227/227 229/229/229
f 507/507/507 499/499/499 493/493/493
f 621/621/621 626/626/626 627/627/627
f 42/42/42 41/41/41 59/59/59
f 508/508/508 498/498/498 497/497/497
f 508/508/508 505/505/505 498/498/498
f 504/504/504 509/509/509 502/502/502
f 60/60/60 54/54/54 49/49/49
f 234/234/234 187/187/187 235/235/235
f 54/54/54 60/60/60 61/61/61
f 224/224/224 236/236/236 223/223/223
f 510/510/510 511/511/511 512/512/512
f 62/62/62 63/63/63 64/64/64
f 513/513/513 514/514/514 506/506/506
f 65/65/65 47/47/47 46/46/46
f 237/237/237 238/238/238 239/239/239
f 240/240/240 241/241/241 242/242/242
f 223/223/223 236/236/236 243/243/243
f 515/515/515 516/516/516 517/517/517
f 55/55/55 57/57/57 34/34/34
f 227/227/227 233/233/233 244/244/244
f 59/59/59 66/66/66 42/42/42
f 67/67/67 68/68/68 69/69/69
f 628/628/628 629/629/629 630/630/630
f 70/70/70 61/61/61 60/60/60
f 71/71/71 67/67/67 69/69/69
f 505/505/505 518/518/518 506/506/506
f 234/234/234 232/232/232 187/187/187
f 631/631/631 632/632/632 633/633/633
f 513/513/513 506/506/506 518/518/518
f 634/634/634 629/629/629 628/628/628
f 63/63/63 72/72/72 64/64/64
f 511/511/511 510/510/510 519/519/519
f 73/73/73 74/74/74 42/42/42
f 55/55/55 75/75/75 57/57/57
f 621/621/621 627/627/627 611/611/611
f 66/66/66 73/73/73 42/42/42
f 76/76/76 14/14/14 53/53/53
f 77/77/77 78/78/78 79/79/79
f 74/74/74 80/80/80 81/81/81
f 82/82/82 83/83/83 84/84/84
f 85/85/85 55/55/55 56/56/56
f 86/86/86 78/78/78 77/77/77
f 60/60/60 87/87/87 70/70/70
f 245/245/245 244/244/244 233/233/233
f 635/635/635 636/636/636 637/637/637
f 238/238/238 246/246/246 239/239/239
f 79/79/79 78/78/78 88/88/88
f 247/247/247 248/248/248 249/249/249
f 74/74/74 73/73/73 89/89/89
f 84/84/84 83/83/83 90/90/90
f 637/637/637 638/638/638 635/635/635
f 519/519/519 510/510/510 525/525/525
f 638/638/638 639/639/639 635/635/635
f 91/91/91 92/92/92 93/93/93
f 241/241/241 240/240/240 250/250/250
f 239/239/239 251/251/251 252/252/252
f 83/83/83 94/94/94 90/90/90
f 696/696/696 640/640/640 641/641/641
f 526/526/526 527/527/527 528/528/528
f 95/95/95 93/93/93 92/92/92
f 529/529/529 530/530/530 531/531/531
f 253/253/253 254/254/254 255/255/255
f 530/530/530 529/529/529 532/532/532
f 533/533/533 534/534/534 535/535/535
f 520/520/520 536/536/536 508/508/508
f 537/537/537 538/538/538 539/539/539
f 538/538/538 537/537/537 540/540/540
f 74/74/74 89/89/89 80/80/80
f 539/539/539 541/541/541 542/542/542
f 508/508/508 536/536/536 505/505/505
f 642/642/642 643/643/643 644/644/644
f 527/527/527 543/543/543 528/528/528
f 544/544/544 522/522/522 521/521/521
f 541/541/541 546/546/546 542/542/542
f 645/645/645 646/646/646 647/647/647
f 648/648/648 639/639/639 638/638/638
f 547/547/547 528/528/528 543/543/543
f 56/56/56 96/96/96 97/97/97
f 98/98/98 99/99/99 100/100/100
f 547/547/547 549/549/549 550/550/550
f 537/537/537 539/539/539 542/542/542
f 101/101/101 65/65/65 46/46/46
f 551/551/551 552/552/552 553/553/553
f 547/547/547 550/550/550 528/528/528
f 554/554/554 525/525/525 510/510/510
f 250/250/250 256/256/256 257/257/257
f 528/528/528 550/550/550 555/555/555
f 556/556/556 518/518/518 505/505/505
f 97/97/97 85/85/85 56/56/56
f 557/557/557 580/580/580 558/558/558
f 546/546/546 545/545/545 542/542/542
f 257/257/257 258/258/258 250/250/250
f 250/250/250 258/258/258 241/241/241
f 559/559/559 560/560/560 561/561/561
f 639/639/639 648/648/648 649/649/649
f 642/642/642 650/650/650 643/643/643
f 239/239/239 246/246/246 251/251/251
f 559/559/559 562/562/562 560/560/560
f 563/563/563 564/564/564 565/565/565
f 563/563/563 566/566/566 564/564/564
f 651/651/651 645/645/645 647/647/647
f 102/102/102 103/103/103 104/104/104
f 639/639/639 652/652/652 653/653/653
f 639/639/639 649/649/649 654/654/654
f 257/257/257 256/256/256 259/259/259
f 255/255/255 260/260/260 253/253/253
f 655/655/655 656/656/656 657/657/657
f 105/105/105 106/106/106 107/107/107
f 108/108/108 109/109/109 110/110/110
f 261/261/261 262/262/262 263/263/263
f 658/658/658 659/659/659 660/660/660
f 661/661/661 662/662/662 663/663/663
f 655/655/655 664/664/664 656/656/656
f 661/661/661 665/665/665 666/666/666
f 111/111/111 101/101/101 46/46/46
f 136/136/136 137/137/137 138/138/138
f 667/667/667 668/668/668 669/669/669
f 567/567/567 568/568/568 569/569/569
f 264/264/264 265/265/265 266/266/266
f 267/267/267 268/268/268 269/269/269
f 270/270/270 271/271/271 272/272/272
f 670/670/670 666/666/666 665/665/665
f 273/273/273 274/274/274 275/275/275
f 660/660/660 671/671/671 658/658/658
f 643/643/643 650/650/650 672/672/672
f 657/657/657 656/656/656 673/673/673
f 275/275/275 274/274/274 276/276/276
f 570/570/570 568/568/568 567/567/567
f 639/639/639 654/654/654 652/652/652
f 524/524/524 571/571/571 572/572/572
f 674/674/674 675/675/675 676/676/676
f 112/112/112 109/109/109 108/108/108
f 573/573/573 568/568/568 570/570/570
f 661/661/661 663/663/663 665/665/665
f 138/138/138 137/137/137 139/139/139
f 677/677/677 651/651/651 647/647/647
f 524/524/524 523/523/523 571/571/571
f 277/277/277 278/278/278 279/279/279
f 678/678/678 660/660/660 659/659/659
f 280/280/280 281/281/281 282/282/282
f 679/679/679 680/680/680 681/681/681
f 647/647/647 682/682/682 677/677/677
f 81/81/81 80/80/80 113/113/113
f 251/251/251 246/246/246 283/283/283
f 81/81/81 113/113/113 114/114/114
f 565/565/565 548/548/548 563/563/563
f 676/676/676 675/675/675 683/683/683
f 574/574/574 575/575/575 576/576/576
f 276/276/276 274/274/274 284/284/284
f 677/677/677 682/682/682 684/684/684
f 285/285/285 286/286/286 287/287/287
f 288/288/288 289/289/289 290/290/290
f 140/140/140 141/141/141 142/142/142
f 291/291/291 292/292/292 255/255/255
f 669/669/669 668/668/668 679/679/679
f 577/577/577 524/524/524 572/572/572
f 143/143/143 144/144/144 145/145/145
f 140/140/140 146/146/146 164/164/164
f 276/276/276 293/293/293 275/275/275
f 685/685/685 682/682/682 647/647/647
f 140/140/140 164/164/164 141/141/141
f 281/281/281 280/280/280 294/294/294
f 111/111/111 46/46/46 117/117/117
f 682/682/682 685/685/685 684/684/684
f 680/680/680 679/679/679 686/686/686
f 118/118/118 119/119/119 120/120/120
f 295/295/295 296/296/296 297/297/297
f 119/119/119 118/118/118 121/121/121
f 578/578/578 553/553/553 552/552/552
f 292/292/292 260/260/260 255/255/255
f 298/298/298 286/286/286 285/285/285
f 299/299/299 275/275/275 293/293/293
f 294/294/294 293/293/293 281/281/281
f 292/292/292 300/300/300 260/260/260
f 296/296/296 295/295/295 301/301/301
f 686/686/686 679/679/679 687/687/687
f 122/122/122 123/123/123 124/124/124
f 302/302/302 289/289/289 303/303/303
f 304/304/304 305/305/305 306/306/306
f 293/293/293 294/294/294 299/299/299
f 679/679/679 668/668/668 688/688/688
f 147/147/147 148/148/148 149/149/149
f 679/679/679 689/689/689 687/687/687
f 289/289/289 288/288/288 303/303/303
f 125/125/125 126/126/126 127/127/127
f 656/656/656 690/690/690 673/673/673
f 151/151/151 152/152/152 153/153/153
f 664/664/664 691/691/691 656/656/656
f 307/307/307 308/308/308 309/309/309
f 154/154/154 155/155/155 156/156/156
f 689/689/689 679/679/679 688/688/688
f 310/310/310 287/287/287 311/311/311
f 128/128/128 116/116/116 115/115/115
f 153/153/153 158/158/158 151/151/151
f 312/312/312 313/313/313 314/314/314
f 129/129/129 127/127/127 126/126/126
f 692/692/692 687/687/687 689/689/689
f 315/315/315 302/302/302 303/303/303
f 689/689/689 693/693/693 692/692/692
f 159/159/159 140/140/140 142/142/142
f 287/287/287 310/310/310 285/285/285
f 693/693/693 689/689/689 688/688/688
f 316/316/316 308/308/308 307/307/307
f 686/686/686 687/687/687 692/692/692
f 317/317/317 318/318/318 319/319/319
f 320/320/320 321/321/321 322/322/322
f 130/130/130 120/120/120 119/119/119
f 150/150/150 157/157/157 160/160/160
f 581/581/581 582/582/582 583/583/583
f 131/131/131 132/132/132 133/133/133
f 584/584/584 585/585/585 586/586/586
f 323/323/323 324/324/324 325/325/325
f 315/315/315 303/303/303 326/326/326
f 313/313/313 327/327/327 328/328/328
f 134/134/134 135/135/135 128/128/128
f 688/688/688 694/694/694 693/693/693
f 313/313/313 312/312/312 327/327/327
f 301/301/301 295/295/295 329/329/329
f 330/330/330 331/331/331 332/332/332
f 158/158/158 162/162/162 151/151/151
f 333/333/333 334/334/334 335/335/335
f 327/327/327 312/312/312 336/336/336
f 160/160/160 161/161/161 163/163/163
f 324/324/324 337/337/337 325/325/325
f 338/338/338 384/384/384 339/339/339
f 327/327/327 340/340/340 328/328/328
f 341/341/341 342/342/342 343/343/343
f 344/344/344 345/345/345 346/346/346
f 318/318/318 347/347/347 319/319/319
f 348/348/348 308/308/308 316/316/316
f 349/349/349 350/350/350 351/351/351
f 587/587/587 588/588/588 589/589/589
f 352/352/352 332/332/332 353/353/353
f 334/334/334 354/354/354 335/335/335
f 336/336/336 312/312/312 355/355/355
f 330/330/330 332/332/332 352/352/352
f 295/295/295 297/297/297 356/356/356
f 295/295/295 356/356/356 357/357/357
f 358/358/358 359/359/359 360/360/360
f 355/355/355 361/361/361 336/336/336
f 347/347/347 362/362/362 319/319/319
f 355/355/355 363/363/363 364/364/364
f 365/365/365 366/366/366 350/350/350
f 350/350/350 366/366/366 351/351/351
f 384/384/384 367/367/367 368/368/368
f 369/369/369 370/370/370 371/371/371
f 372/372/372 373/373/373 374/374/374
f 375/375/375 347/347/347 376/376/376
f 377/377/377 355/355/355 364/364/364
f 370/370/370 378/378/378 371/371/371
f 347/347/347 379/379/379 362/362/362
f 339/339/339 384/384/384 368/368/368
f 375/375/375 379/379/379 347/347/347
f 697/697/697 698/698/698 699/699/699
f 697/697/697 699/699/699 698/698/698
f 697/697/697 699/699/699 700/700/700
f 697/697/697 700/700/700 699/699/699
f 697/697/697 700/700/700 701/701/701
f 697/697/697 701/701/701 700/700/700
f 697/697/697 701/701/701 702/702/702
f 697/697/697 702/702/702 701/701/701
f 697/697/697 702/702/702 703/703/703
f 697/697/697 703/703/703 702/702/702
f 697/697/697 703/703/703 704/704/704
f 697/697/697 704/704/704 703/703/703
f 697/697/697 704/704/704 705/705/705
f 697/697/697 705/705/705 704/704/704
f 697/697/697 705/705/705 706/706/706
f 697/697/697 706/706/706 705/705/705
f 697/697/697 706/706/706 707/707/707
f 697/697/697 707/707/707 706/706/706
f 697/697/697 707/707/707 708/708/708
f 697/697/697 708/708/708 707/707/707
f 697/697/697 708/708/708 709/709/709
f 697/697/697 709/709/709 708/708/708
f 697/697/697 709/709/709 710/710/710
f 697/697/697 710/710/710 709/709/709
f 697/697/697 710/710/710 711/711/711
f 697/697/697 711/711/711 710/710/710
f 697/697/697 711/711/711 712/712/712
f 697/697/697 712/712/712 711/711/711
f 697/697/697 712/712/712 713/713/713
f 697/697/697 713/713/713 712/712/712
f 697/697/697 713/713/713 714/714/714
f 697/697/697 714/714/714 713/713/713
f 697/697/697 714/714/714 715/715/715
f 697/697/697 715/715/715 714/714/714
f 697/697/697 715/715/715 716/716/716
f 697/697/697 716/716/716 715/715/715
f 697/697/697 716/716/716 717/717/717
f 697/697/697 717/717/717 716/716/716
f 697/697/697 717/717/717 718/718/718
f 697/697/697 718/718/718 717/717/717
f 697/697/697 718/718/718 719/719/719
f 697/697/697 719/719/719 718/718/718
f 697/697/697 719/719/719 720/720/720
f 697/697/697 720/720/720 719/719/719
f 697/697/697 720/720/720 721/721/721
f 697/697/697 721/721/721 720/720/720
f 697/697/697 721/721/721 722/722/722
f 697/697/697 722/722/722 721/721/721
f 697/697/697 722/722/722 723/723/723
f 697/697/697 723/723/723 722/722/722
f 697/697/697 723/723/723 724/724/724
f 697/697/697 724/724/724 723/723/723
f 697/697/697 724/724/724 725/725/725
f 697/697/697 725/725/725 724/724/724
f 697/697/697 725/725/725 726/726/726
f 697/697/697 726/726/726 725/725/725
f 697/697/697 726/726/726 727/727/727
f 697/697/697 727/727/727 726/726/726
f 697/697/697 727/727/727 698/698/698
f 697/697/697 698/698/698 727/727/727
f 728/728/728 729/729/729 730/730/730
f 728/728/728 730/730/730 729/729/729
f 728/728/728 730/730/730 731/731/731
f 728/728/728 731/731/731 730/730/730
f 728/728/728 731/731/731 732/732/732
f 728/728/728 732/732/732 731/731/731
f 728/728/728 732/732/732 733/733/733
f 728/728/728 733/733/733 732/732/732
f 728/728/728 733/733/733 734/734/734
f 728/728/728 734/734/734 733/733/733
f 728/728/728 734/734/734 735/735/735
f 728/728/728 735/735/735 734/734/734
f 728/728/728 735/735/735 736/736/736
f 728/728/728 736/736/736 735/735/735
f 728/728/728 736/736/736 737/737/737
f 728/728/728 737/737/737 736/736/736
f 728/728/728 737/737/737 738/738/738
f 728/728/728 738/738/738 737/737/737
f 728/728/728 738/738/738 739/739/739
f 728/728/728 739/739/739 738/738/738
f 728/728/728 739/739/739 740/740/740
f 728/728/728 740/740/740 739/739/739
f 728/728/728 740/740/740 741/741/741
f 728/728/728 741/741/741 740/740/740
f 728/728/728 741/741/741 742/742/742
f 728/728/728 742/742/742 741/741/741
f 728/728/728 742/742/742 743/743/743
f 728/728/728 743/743/743 742/742/742
f 728/728/728 743/743/743 744/744/744
f 728/728/728 744/744/744 743/743/743
f 728/728/728 744/744/744 745/745/745
f 728/728/728 745/745/745 744/744/744
f 728/728/728 745/745/745 746/746/746
f 728/728/728 746/746/746 745/745/745
f 728/728/728 746/746/746 747/747/747
f 728/728/728 747/747/747 746/746/746
f 728/728/728 747/747/747 748/748/748
f 728/728/728 748/748/748 747/747/747
f 728/728/728 748/748/748 749/749/749
f 728/728/728 749/749/749 748/748/748
f 728/728/728 749/749/749 750/750/750
f 728/728/728 750/750/750 749/749/749
f 728/728/728 750/750/750 751/751/751
f 728/728/728 751/751/751 750/750/750
f 728/728/728 751/751/751 752/752/752
f 728/728/728 752/752/752 751/751/751
f 728/728/728 752/752/752 753/753/753
f 728/728/728 753/753/753 752/752/752
f 728/728/728 753/753/753 754/754/754
f 728/728/728 754/754/754 753/753/753
f 728/728/728 754/754/754 755/755/755
f 728/728/728 755/755/755 754/754/754
f 728/728/728 755/755/755 756/756/756
f 728/728/728 756/756/756 755/755/755
f 728/728/728 756/756/756 757/757/757
f 728/728/728 757/757/757 756/756/756
f 728/728/728 757/757/757 758/758/758
f 728/728/728 758/758/758 757/757/757
f 728/728/728 758/758/758 759/759/759
f 728/728/728 759/759/759 758/758/758
f 728/728/728 759/759/759 760/760/760
f 728/728/728 760/760/760 759/759/759
f 728/728/728 760/760/760 729/729/729
f 728/728/728 729/729/729 760/760/760
