o arm_left
v -0.99253 6.18401 -2.20245
v -1.01857 6.24689 -2.21805
v -1.00848 6.29520 -2.20148
v -1.04245 6.48388 -2.19316
v -1.00848 6.29520 -2.20148
v -1.05233 6.48462 -2.19781
v -0.92756 6.44473 -1.76256
v -1.04245 6.48388 -2.19316
v -1.29896 6.19055 -2.15456
v -1.01857 6.24689 -2.21805
v -1.02957 6.14664 -2.30051
v -1.00676 6.56131 -1.93298
v -1.04245 6.48388 -2.19316
v -1.05233 6.48462 -2.19781
v -1.25829 5.97061 -2.27249
v -1.30109 6.09068 -2.27250
v -1.28706 6.08995 -2.25699
v -1.29896 6.19055 -2.15456
v -1.05233 6.48462 -2.19781
v -1.01857 6.24689 -2.21805
v -1.29896 6.19055 -2.15456
v -1.24410 6.45174 -2.14936
v -1.71022 5.87887 -2.22315
v -1.30109 6.09068 -2.27250
v -1.30424 6.09066 -2.16656
v -1.29896 6.19055 -2.15456
v -1.28706 6.08995 -2.25699
v -1.24410 6.45174 -2.14936
v -1.59991 5.52661 -2.18643
v -1.27837 5.60699 -2.33098
v -1.25773 5.40625 -2.20665
v -1.30424 6.09066 -2.16656
v -1.30109 6.09068 -2.27250
v -1.57821 6.06293 -2.16072
v -1.62715 6.52273 -1.45754
v -1.30109 6.09068 -2.27250
v -1.30992 5.95925 -2.35619
v -1.71022 5.87887 -2.22315
v -1.55711 5.43956 -2.12674
v -1.30424 6.09066 -2.16656
v -1.57821 6.06293 -2.16072
v -1.72599 4.69335 -2.32623
v -1.22491 5.10925 -1.96534
v -1.44519 4.55844 -2.16734
v -1.55308 5.10797 -2.15518
v -1.70645 6.03527 -2.15960
v -1.55139 6.24369 -2.10029
v -1.67641 6.36697 -2.01640
v -1.58133 5.11574 -2.09292
v -1.51388 5.23000 -2.09550
v -1.55308 5.10797 -2.15518
v -1.55711 5.43956 -2.12674
v -1.47449 5.25631 -2.06174
v -1.54966 5.44590 -2.08790
v -1.66412 5.12320 -2.17447
v -1.70645 6.03527 -2.15960
v -1.54966 5.44590 -2.08790
v -1.51388 5.23000 -2.09550
v -1.58133 5.11574 -2.09292
v -1.58241 5.50885 -2.09252
v -1.59991 5.52661 -2.18643
v -1.72021 6.04586 -2.14030
v -1.58241 5.50885 -2.09252
v -1.66412 5.12320 -2.17447
v -1.58133 5.11574 -2.09292
v -1.55308 5.10797 -2.15518
v -1.72021 6.04586 -2.14030
v -1.59558 5.54931 -2.06924
v -1.66223 5.69972 -2.08184
v -1.85823 4.77199 -2.34692
v -1.85823 4.77199 -2.34692
v -1.73194 5.13692 -2.10225
v -1.66412 5.12320 -2.17447
v -1.72021 6.04586 -2.14030
v -1.73194 5.13692 -2.10225
v -1.69624 5.71187 -2.07253
v -1.71022 5.87887 -2.22315
v -1.59991 5.52661 -2.18643
v -1.66223 5.69972 -2.08184
v -1.69624 5.71187 -2.07253
v -1.59991 5.52661 -2.18643
v -1.72021 6.04586 -2.14030
v -1.69624 5.71187 -2.07253
v -1.66223 5.69972 -2.08184
v -1.59558 5.54931 -2.06924
v -1.73194 5.13692 -2.10225
v -1.80715 5.38969 -1.97902
v -2.00349 5.67555 -1.98789
v -1.72021 6.04586 -2.14030
v -1.58241 5.50885 -2.09252
v -1.74551 5.31476 -1.99794
v -1.79919 5.18103 -2.02521
v -1.72021 6.04586 -2.14030
v -2.13228 5.75989 -1.82143
v -1.67641 6.36697 -2.01640
v -2.00349 5.67555 -1.98789
v -1.67641 6.36697 -2.01640
v -1.85827 5.14929 -2.00983
v -2.04951 4.75022 -2.20749
v -2.15050 4.78903 -2.12987
v -1.85823 4.77199 -2.34692
v -1.95830 5.29527 -1.98075
v -1.95899 5.31105 -1.90529
v -1.80715 5.38969 -1.97902
v -1.95830 5.29527 -1.98075
v -2.08071 4.96286 -2.03211
v -2.16693 5.18477 -1.99101
v -2.08071 4.96286 -2.03211
v -1.95899 5.31105 -1.90529
v -1.95830 5.29527 -1.98075
v -1.99628 5.31150 -1.95634
v -1.95899 5.31105 -1.90529
v -2.03273 5.60041 -1.87985
v -2.00349 5.67555 -1.98789
v -1.95899 5.31105 -1.90529
v -1.97399 5.34870 -1.81233
v -1.97399 5.34870 -1.81233
v -2.15050 4.78903 -2.12987
v -1.98120 5.36096 -1.74402
v -1.99628 5.31150 -1.95634
v -2.13228 5.75989 -1.82143
v -2.19706 5.22443 -1.95899
v -2.29970 4.78533 -1.98289
v -1.97399 5.34870 -1.81233
v -2.12214 5.25059 -1.74767
v -1.98120 5.36096 -1.74402
v -2.29970 4.78533 -1.98289
v -2.09352 5.27471 -1.63988
v -1.96498 5.38131 -1.69037
v -1.98120 5.36096 -1.74402
v -1.96498 5.38131 -1.69037
v -2.04610 5.60744 -1.70453
v -1.99628 5.31150 -1.95634
v -2.19617 5.23931 -1.82822
v -1.97399 5.34870 -1.81233
v -1.96498 5.38131 -1.69037
v -2.17645 5.31694 -1.62643
v -2.04610 5.60744 -1.70453
v -1.76041 6.38645 -1.20611
v -2.19706 5.22443 -1.95899
v -1.67641 6.36697 -2.01640
v -2.09352 5.27471 -1.63988
v -2.12214 5.25059 -1.74767
v -2.13228 5.75989 -1.82143
v -2.13228 5.75989 -1.82143
v -2.12942 5.85351 -1.37932
v -2.30507 4.86476 -1.96993
v -2.03493 5.66110 -1.47133
v -2.19706 5.22443 -1.95899
v -2.30507 4.86476 -1.96993
v -2.26348 5.04366 -1.80692
v -2.04610 5.60744 -1.70453
v -2.17645 5.31694 -1.62643
v -2.03176 5.62859 -1.58058
v -2.03176 5.62859 -1.58058
v -2.19617 5.23931 -1.82822
v -2.18977 5.22777 -1.77196
v -2.12214 5.25059 -1.74767
v -2.18977 5.22777 -1.77196
v -2.18561 5.27890 -1.73327
v -2.09352 5.27471 -1.63988
v -2.12214 5.25059 -1.74767
v -2.18561 5.27890 -1.73327
v -2.18977 5.22777 -1.77196
v -2.29970 4.78533 -1.98289
v -2.29751 4.93285 -1.82440
v -2.39049 5.08003 -1.80143
v -2.18561 5.27890 -1.73327
v -2.26348 5.04366 -1.80692
v -2.18561 5.27890 -1.73327
v -2.18977 5.22777 -1.77196
v -2.26348 5.04366 -1.80692
v -2.17645 5.31694 -1.62643
v -2.12942 5.85351 -1.37932
v -2.17621 5.58310 -1.29587
v -2.03176 5.62859 -1.58058
v -2.12116 5.53358 -1.56747
v -2.03176 5.62859 -1.58058
v -2.17645 5.31694 -1.62643
v -2.12116 5.53358 -1.56747
v -2.39049 5.08003 -1.80143
v -2.47053 5.15016 -1.58196
v -2.18561 5.27890 -1.73327
v -2.03493 5.66110 -1.47133
v -2.17645 5.31694 -1.62643
v -2.29751 4.93285 -1.82440
v -2.43948 4.68465 -1.74393
v -2.04969 5.72160 -1.26797
v -2.47053 5.15016 -1.58196
v -2.12600 5.91908 -1.04196
v -2.04969 5.72160 -1.26797
v -2.01409 5.68353 -1.17257
v -2.47053 5.15016 -1.58196
v -2.04969 5.72160 -1.26797
v -2.42208 5.19120 -1.21511
v -2.01409 5.68353 -1.17257
v -2.43948 4.68465 -1.74393
v -2.47053 5.15016 -1.58196
v -2.39049 5.08003 -1.80143
v -2.17621 5.58310 -1.29587
v -2.52163 4.72594 -1.48432
v -2.12600 5.91908 -1.04196
v -2.52970 5.19529 -1.38988
v -2.52970 5.19529 -1.38988
v -2.52970 5.19529 -1.38988
v -2.39279 4.67034 -1.01909
v -1.87024 5.41908 -0.94117
v -1.87024 5.41908 -0.94117
v -1.82635 5.44296 -0.92358
v -2.01409 5.68353 -1.17257
v -1.85372 5.47030 -0.97116
v -2.01409 5.68353 -1.17257
v -2.42208 5.19120 -1.21511
v -2.12600 5.91908 -1.04196
v -1.98995 5.03906 -0.81303
v -2.15491 5.11919 -0.99424
v -1.90367 4.87439 -0.90262
v -1.98995 5.03906 -0.81303
v -2.13574 5.09656 -0.89420
v -2.12785 4.73766 -0.81357
v -2.13574 5.09656 -0.89420
v -2.27544 4.96187 -1.00248
v -2.19700 4.98665 -0.99776
v -2.15491 5.11919 -0.99424
v -2.27544 4.96187 -1.00248
v -2.19700 4.98665 -0.99776
v -2.12785 4.73766 -0.81357
v -2.27130 4.73448 -1.00289
v -2.23886 4.74975 -0.87111
v -2.39279 4.67034 -1.01909
v -2.27130 4.73448 -1.00289
v -2.23886 4.74975 -0.87111
v -2.39279 4.67034 -1.01909
v -2.21637 3.47913 -2.85082
v -2.15376 2.80464 -2.67382
v -2.28746 2.98839 -3.03054
v -1.96795 3.83553 -2.25633
v -2.21637 3.47913 -2.85082
v -2.30838 3.44334 -2.81807
v -2.18023 3.69879 -2.76956
v -2.18023 3.69879 -2.76956
v -2.33346 3.27049 -2.87526
v -2.13430 4.03223 -2.64300
v -2.26940 3.75202 -2.70723
v -2.15376 2.80464 -2.67382
v -2.13430 4.03223 -2.64300
v -2.21461 4.07837 -2.57003
v -2.30838 3.44334 -2.81807
v -2.01147 3.47662 -2.36548
v -2.22078 4.22125 -2.46983
v -2.52378 3.43492 -2.99556
v -2.30764 4.18506 -2.62176
v -2.21461 4.07837 -2.57003
v -2.26940 3.75202 -2.70723
v -2.01147 3.47662 -2.36548
v -2.09319 3.48492 -2.23183
v -2.47326 3.73051 -2.88459
v -2.24163 4.16165 -2.48053
v -2.42753 3.86156 -2.80972
v -2.09319 3.48492 -2.23183
v -1.91223 3.33800 -2.16496
v -2.21461 4.07837 -2.57003
v -2.30764 4.18506 -2.62176
v -2.24163 4.16165 -2.48053
v -1.86972 3.66768 -2.07453
v -1.96795 3.83553 -2.25633
v -2.67372 3.77438 -2.65388
v -2.30764 4.18506 -2.62176
v -2.42753 3.86156 -2.80972
v -2.47326 3.73051 -2.88459
v -2.52378 3.43492 -2.99556
v -2.70164 3.44839 -2.76923
v -2.30764 4.18506 -2.62176
v -2.31370 4.14361 -2.40446
v -2.24163 4.16165 -2.48053
v -2.42101 4.14339 -2.42282
v -2.72580 3.46596 -2.76999
v -2.70260 3.32025 -2.81458
v -2.72580 3.46596 -2.76999
v -2.70164 3.44839 -2.76923
v -2.79592 3.44645 -2.65411
v -2.56441 4.13415 -2.43907
v -2.70164 3.44839 -2.76923
v -2.72580 3.46596 -2.76999
v -2.79592 3.44645 -2.65411
v -2.56441 4.13415 -2.43907
v -2.63268 4.09091 -2.28430
v -2.41841 4.34223 -2.37461
v -2.42101 4.14339 -2.42282
v -2.62294 4.23068 -2.25650
v -2.67372 3.77438 -2.65388
v -2.70206 3.71802 -2.47599
v -2.56441 4.13415 -2.43907
v -2.63268 4.09091 -2.28430
v -3.06215 3.42156 -2.53820
v -2.79592 3.44645 -2.65411
v -2.72580 3.46596 -2.76999
v -2.74102 3.58987 -2.54832
v -2.78654 3.45455 -2.63614
v -2.79592 3.44645 -2.65411
v -2.67273 3.91191 -2.36278
v -2.78654 3.45455 -2.63614
v -2.78654 3.45455 -2.63614
v -3.06215 3.42156 -2.53820
v -2.74102 3.58987 -2.54832
v -2.63268 4.09091 -2.28430
v -2.70206 3.71802 -2.47599
v -3.07427 3.27737 -2.56549
v -2.70206 3.71802 -2.47599
v -2.97378 3.95479 -2.29663
v -2.67273 3.91191 -2.36278
v -3.06215 3.42156 -2.53820
v -2.70206 3.71802 -2.47599
v -3.06215 3.42156 -2.53820
v -3.07427 3.27737 -2.56549
v -3.07427 3.27737 -2.56549
v -2.94539 4.10201 -2.23256
v -2.62294 4.23068 -2.25650
v -2.94539 4.10201 -2.23256
v -2.95355 4.13601 -1.84915
v -3.07427 3.27737 -2.56549
v -2.94431 3.58454 -1.96814
v -2.89019 3.23967 -1.96752
v -2.90502 2.97648 -2.15062
v -2.97378 3.95479 -2.29663
v -2.95408 4.11412 -1.98688
v -2.94539 4.10201 -2.23256
v -2.95355 4.13601 -1.84915
v -2.96015 3.69707 -1.97601
v -2.85423 3.41064 -1.66376
v -2.80134 3.02763 -1.98789
v -2.69973 3.27570 -1.71063
v -2.88902 3.38589 -1.99080
v -2.88902 3.38589 -1.99080
v -2.97399 3.44188 -1.90730
v -2.94431 3.58454 -1.96814
v -2.85423 3.41064 -1.66376
v -2.81582 3.06802 -2.01826
v -2.89019 3.23967 -1.96752
v -2.83738 3.40640 -1.81745
v -2.97399 3.44188 -1.90730
v -2.71285 3.46289 -1.49800
v -2.83738 3.40640 -1.81745
v -2.94431 3.58454 -1.96814
v -3.03227 3.58467 -1.86671
v -2.65021 3.51590 -1.45797
v -2.87724 3.65449 -1.72293
v -3.03227 3.58467 -1.86671
v -2.71285 3.46289 -1.49800
v -3.02445 4.17619 -1.62210
v -2.86138 3.70312 -1.44552
v -3.02445 4.17619 -1.62210
v -2.86138 3.70312 -1.44552
v -2.87724 3.65449 -1.72293
v -1.50616 4.32868 -1.76327
v -1.63650 4.20720 -1.96892
v -1.44519 4.55844 -2.16734
v -1.43762 4.47566 -1.87583
v -1.44519 4.55844 -2.16734
v -1.63650 4.20720 -1.96892
v -1.72599 4.69335 -2.32623
v -1.90482 4.45370 -2.21879
v -1.85823 4.77199 -2.34692
v -1.46056 4.41418 -1.74248
v -2.00633 4.02142 -1.97075
v -1.50616 4.32868 -1.76327
v -1.58537 4.32493 -1.70431
v -1.63650 4.20720 -1.96892
v -2.04951 4.75022 -2.20749
v -1.50616 4.32868 -1.76327
v -1.46056 4.41418 -1.74248
v -1.58537 4.32493 -1.70431
v -1.63650 4.20720 -1.96892
v -1.58537 4.32493 -1.70431
v -1.90780 3.98367 -1.65464
v -2.13430 4.03223 -2.64300
v -2.22078 4.22125 -2.46983
v -1.96795 3.83553 -2.25633
v -1.89325 3.49194 -1.95937
v -1.86972 3.66768 -2.07453
v -1.80464 3.98090 -1.93783
v -1.84517 3.99550 -1.92668
v -1.46056 4.41418 -1.74248
v -1.68659 4.30838 -1.48941
v -1.90482 4.45370 -2.21879
v -1.99213 4.49139 -2.30214
v -2.03965 4.50001 -2.17301
v -1.84016 3.99676 -1.87252
v -1.84517 3.99550 -1.92668
v -1.99213 4.49139 -2.30214
v -2.23727 4.25300 -2.19361
v -2.24402 4.26871 -2.18843
v -1.80782 3.95319 -1.89978
v -2.03965 4.50001 -2.17301
v -2.23727 4.25300 -2.19361
v -1.99213 4.49139 -2.30214
v -2.05492 3.99776 -2.03835
v -2.06383 3.83380 -2.12438
v -1.96795 3.83553 -2.25633
v -1.80464 3.98090 -1.93783
v -1.86972 3.66768 -2.07453
v -2.06383 3.83380 -2.12438
v -1.80464 3.98090 -1.93783
v -1.84517 3.99550 -1.92668
v -1.84016 3.99676 -1.87252
v -2.06945 3.70555 -2.17205
v -2.22078 4.22125 -2.46983
v -2.24163 4.16165 -2.48053
v -2.31370 4.14361 -2.40446
v -2.06945 3.70555 -2.17205
v -1.91223 3.33800 -2.16496
v -2.09319 3.48492 -2.23183
v -1.80464 3.98090 -1.93783
v -1.84016 3.99676 -1.87252
v -1.80782 3.95319 -1.89978
v -2.09319 3.48492 -2.23183
v -2.05492 3.99776 -2.03835
v -2.10890 4.47350 -2.13703
v -1.59318 4.33146 -1.13867
v -2.05492 3.99776 -2.03835
v -2.00633 4.02142 -1.97075
v -1.99213 4.49139 -2.30214
v -2.24402 4.26871 -2.18843
v -2.10890 4.47350 -2.13703
v -2.03965 4.50001 -2.17301
v -1.89325 3.49194 -1.95937
v -1.84124 3.48146 -1.86605
v -1.94382 3.36813 -1.88795
v -2.05492 3.99776 -2.03835
v -1.87515 3.81963 -1.75671
v -1.84124 3.48146 -1.86605
v -1.89325 3.49194 -1.95937
v -1.90780 3.98367 -1.65464
v -2.15050 4.78903 -2.12987
v -2.33837 4.35845 -2.18895
v -2.23727 4.25300 -2.19361
v -2.31370 4.14361 -2.40446
v -2.29534 4.28711 -2.42809
v -2.22078 4.22125 -2.46983
v -2.15122 4.14348 -2.06924
v -2.08045 4.05134 -1.99710
v -1.80782 3.95319 -1.89978
v -1.90780 3.98367 -1.65464
v -1.91369 3.93931 -1.69637
v -1.78857 3.83057 -1.58262
v -1.87515 3.81963 -1.75671
v -1.65672 4.30313 -1.41976
v -1.78857 3.83057 -1.58262
v -2.01388 3.29178 -1.52499
v -2.15122 4.14348 -2.06924
v -2.37947 4.36882 -2.34876
v -2.29534 4.28711 -2.42809
v -2.08045 4.05134 -1.99710
v -2.08045 4.05134 -1.99710
v -1.91369 3.93931 -1.69637
v -1.91369 3.93931 -1.69637
v -2.37947 4.36882 -2.34876
v -1.81136 4.10311 -1.33294
v -1.84877 4.08157 -1.57533
v -2.24402 4.26871 -2.18843
v -2.23727 4.25300 -2.19361
v -2.33837 4.35845 -2.18895
v -2.31370 4.14361 -2.40446
v -2.42101 4.14339 -2.42282
v -2.37947 4.36882 -2.34876
v -2.26659 4.32889 -2.03299
v -1.84877 4.08157 -1.57533
v -1.75929 4.01596 -1.45778
v -2.41841 4.34223 -2.37461
v -2.26896 4.30954 -2.06202
v -2.26659 4.32889 -2.03299
v -1.79749 4.15542 -1.37368
v -1.91369 3.93931 -1.69637
v -1.90780 3.98367 -1.65464
v -1.84877 4.08157 -1.57533
v -2.33837 4.35845 -2.18895
v -2.26896 4.30954 -2.06202
v -2.24402 4.26871 -2.18843
v -2.30007 4.36001 -2.00095
v -1.79749 4.15542 -1.37368
v -1.81136 4.10311 -1.33294
v -2.37947 4.36882 -2.34876
v -2.53134 4.27872 -2.08538
v -2.33837 4.35845 -2.18895
v -1.75929 4.01596 -1.45778
v -1.79749 4.15542 -1.37368
v -1.81136 4.10311 -1.33294
v -2.41841 4.34223 -2.37461
v -2.62294 4.23068 -2.25650
v -2.26896 4.30954 -2.06202
v -2.30007 4.36001 -2.00095
v -2.26659 4.32889 -2.03299
v -2.30007 4.36001 -2.00095
v -1.84351 4.09233 -1.27453
v -2.29970 4.78533 -1.98289
v -1.84351 4.09233 -1.27453
v -1.95116 3.74470 -1.08033
v -2.38227 4.44271 -1.90927
v -2.31018 4.37151 -1.94009
v -2.01388 3.29178 -1.52499
v -2.21976 3.72899 -1.07243
v -2.32242 4.40676 -1.84754
v -2.30007 4.36001 -2.00095
v -2.31018 4.37151 -1.94009
v -2.32242 4.40676 -1.84754
v -2.32951 4.48837 -1.82198
v -2.59881 4.22579 -2.01154
v -2.29970 4.78533 -1.98289
v -2.32242 4.40676 -1.84754
v -2.38227 4.44271 -1.90927
v -2.32951 4.48837 -1.82198
v -2.45035 4.49047 -1.91822
v -2.29751 4.93285 -1.82440
v -1.74562 4.38652 -0.87694
v -1.92086 4.20555 -1.10186
v -2.50571 4.35413 -1.88601
v -2.38227 4.44271 -1.90927
v -2.29751 4.93285 -1.82440
v -2.32951 4.48837 -1.82198
v -2.43948 4.68465 -1.74393
v -2.49177 4.52987 -1.76914
v -2.45035 4.49047 -1.91822
v -2.38227 4.44271 -1.90927
v -2.50571 4.35413 -1.88601
v -2.45035 4.49047 -1.91822
v -2.49177 4.52987 -1.76914
v -2.32951 4.48837 -1.82198
v -1.95116 3.74470 -1.08033
v -2.59881 4.22579 -2.01154
v -2.62294 4.23068 -2.25650
v -2.71607 4.23797 -1.86875
v -2.61555 4.23225 -1.88328
v -1.89886 4.21075 -0.92340
v -1.99873 4.09166 -0.96383
v -1.92086 4.20555 -1.10186
v -2.03056 4.18891 -0.91932
v -1.89886 4.21075 -0.92340
v -2.45035 4.49047 -1.91822
v -2.60092 4.41979 -1.59633
v -2.49177 4.52987 -1.76914
v -1.99873 4.09166 -0.96383
v -2.61555 4.23225 -1.88328
v -2.43948 4.68465 -1.74393
v -1.89506 4.58846 -0.81646
v -2.00916 4.68081 -0.88937
v -1.99873 4.09166 -0.96383
v -2.09285 4.43983 -0.96804
v -2.03056 4.18891 -0.91932
v -2.17338 3.90563 -1.00477
v -2.62294 4.23068 -2.25650
v -2.95355 4.13601 -1.84915
v -2.12785 4.73766 -0.81357
v -2.00916 4.68081 -0.88937
v -1.90367 4.87439 -0.90262
v -2.65345 4.27458 -1.71058
v -2.70329 4.29917 -1.58515
v -2.14529 4.31419 -1.00412
v -2.26745 4.34030 -0.90646
v -2.09285 4.43983 -0.96804
v -2.16252 4.19743 -0.91146
v -2.20115 3.81093 -0.97727
v -2.45435 3.71585 -1.02541
v -2.19085 3.81610 -1.03194
v -2.65345 4.27458 -1.71058
v -2.65148 4.40569 -1.53178
v -2.52163 4.72594 -1.48432
v -2.21976 3.72899 -1.07243
v -2.19085 3.81610 -1.03194
v -2.20115 3.81093 -0.97727
v -2.17338 3.90563 -1.00477
v -2.49104 3.23783 -1.48298
v -2.26265 4.33078 -0.86755
v -2.03056 4.18891 -0.91932
v -2.14529 4.31419 -1.00412
v -2.75940 4.29170 -1.59580
v -2.26265 4.33078 -0.86755
v -2.70329 4.29917 -1.58515
v -2.66906 4.25428 -1.53180
v -2.25602 3.89139 -0.88597
v -2.62988 4.41730 -1.33371
v -2.16252 4.19743 -0.91146
v -2.25602 3.89139 -0.88597
v -2.26745 4.34030 -0.90646
v -2.60092 4.41979 -1.59633
v -2.70329 4.29917 -1.58515
v -2.66906 4.25428 -1.53180
v -2.14529 4.31419 -1.00412
v -2.34121 4.46429 -1.05525
v -2.27130 4.73448 -1.00289
v -2.39279 4.67034 -1.01909
v -2.25602 3.89139 -0.88597
v -2.12785 4.73766 -0.81357
v -2.37945 4.22925 -0.94001
v -2.26745 4.34030 -0.90646
v -2.23886 4.74975 -0.87111
v -2.34121 4.46429 -1.05525
v -2.23886 4.74975 -0.87111
v -2.27130 4.73448 -1.00289
v -2.38005 4.27867 -1.00842
v -2.37945 4.22925 -0.94001
v -2.44568 4.37762 -1.07465
v -2.62988 4.41730 -1.33371
v -2.52970 5.19529 -1.38988
v -2.75940 4.29170 -1.59580
v -3.02445 4.17619 -1.62210
v -2.44568 4.37762 -1.07465
v -2.38005 4.27867 -1.00842
v -2.34121 4.46429 -1.05525
v -2.52970 5.19529 -1.38988
v -2.62988 4.41730 -1.33371
v -2.54395 4.51499 -1.22185
v -2.39279 4.67034 -1.01909
v -2.81039 4.06017 -1.44994
v -2.52159 4.07711 -1.20861
v -2.42331 4.20748 -1.09056
v -2.47628 4.08917 -0.92033
v -2.42331 4.20748 -1.09056
v -2.38005 4.27867 -1.00842
v -2.44568 4.37762 -1.07465
v -2.26745 4.34030 -0.90646
v -2.26265 4.33078 -0.86755
v -2.59686 3.70432 -1.09823
v -2.52159 4.07711 -1.20861
v -2.52159 4.07711 -1.20861
v -2.58214 4.06561 -1.20596
v -2.53140 4.04834 -1.19625
v -2.44568 4.37762 -1.07465
v -2.55164 4.11707 -1.19631
v -2.52159 4.07711 -1.20861
v -2.86531 4.09250 -1.49094
v -2.44568 4.37762 -1.07465
v -2.55164 4.11707 -1.19631
v -2.65021 3.51590 -1.45797
v -2.59008 3.79179 -1.28986
v -2.86138 3.70312 -1.44552
v -2.59008 3.79179 -1.28986
v -2.59686 3.70432 -1.09823
v -2.53140 4.04834 -1.19625
v -2.81039 4.06017 -1.44994
v -2.45973 4.08757 -0.89778
v -2.58214 4.06561 -1.20596
v -2.71285 3.46289 -1.49800
v -2.82192 4.15546 -1.33003
v -2.53140 4.04834 -1.19625
v -2.58214 4.06561 -1.20596
v -2.45973 4.08757 -0.89778
v -2.82192 4.15546 -1.33003
v -2.54395 4.51499 -1.22185
v -2.65021 3.51590 -1.45797
v -2.68851 3.26354 -1.57775
v -2.87724 3.65449 -1.72293
v -2.86531 4.09250 -1.49094
v -3.02445 4.17619 -1.62210
v -2.83685 3.98522 -1.44058
v -2.86138 3.70312 -1.44552
v -2.83685 3.98522 -1.44058
v -2.81039 4.06017 -1.44994
v -2.59686 3.70432 -1.09823
v -2.45973 4.08757 -0.89778
v -2.47628 4.08917 -0.92033
v -3.02445 4.17619 -1.62210
v -2.60092 4.41979 -1.59633
v -2.45035 4.49047 -1.91822
v -2.03056 4.18891 -0.91932
v -2.16252 4.19743 -0.91146
v -2.52163 4.72594 -1.48432
v -2.82192 4.15546 -1.33003
v -2.81039 4.06017 -1.44994
v -1.56627 5.33707 -1.65293
v -1.00848 6.29520 -2.20148
v -0.99253 6.18401 -2.20245
v -1.01857 6.24689 -2.21805
v -1.02957 6.14664 -2.30051
v -1.28706 6.08995 -2.25699
v -1.25829 5.97061 -2.27249
v -1.30109 6.09068 -2.27250
v -1.30992 5.95925 -2.35619
v -1.71022 5.87887 -2.22315
v -1.27837 5.60699 -2.33098
v -1.59991 5.52661 -2.18643
v -1.25773 5.40625 -2.20665
v -1.55711 5.43956 -2.12674
v -1.47449 5.25631 -2.06174
v -1.54966 5.44590 -2.08790
v -1.51388 5.23000 -2.09550
v -1.55308 5.10797 -2.15518
v -1.22491 5.10925 -1.96534
v -1.44519 4.55844 -2.16734
v -1.43762 4.47566 -1.87583
v -1.46056 4.41418 -1.74248
v -1.68659 4.30838 -1.48941
v -1.79749 4.15542 -1.37368
v -1.65672 4.30313 -1.41976
v -1.81136 4.10311 -1.33294
v -1.59318 4.33146 -1.13867
v -1.84351 4.09233 -1.27453
v -1.92086 4.20555 -1.10186
v -1.89886 4.21075 -0.92340
v -1.74562 4.38652 -0.87694
v -2.03056 4.18891 -0.91932
v -1.89506 4.58846 -0.81646
v -2.00916 4.68081 -0.88937
v -1.90367 4.87439 -0.90262
v -1.98995 5.03906 -0.81303
v -1.87024 5.41908 -0.94117
v -2.15491 5.11919 -0.99424
v -1.85372 5.47030 -0.97116
v -2.01409 5.68353 -1.17257
v -1.82635 5.44296 -0.92358
v -2.12600 5.91908 -1.04196
v -1.76041 6.38645 -1.20611
v -1.67641 6.36697 -2.01640
v -1.62715 6.52273 -1.45754
v -1.24410 6.45174 -2.14936
v -1.00676 6.56131 -1.93298
v -1.04245 6.48388 -2.19316
v -0.92756 6.44473 -1.76256
v -2.49029 3.35978 -2.10991
v -2.28746 2.98839 -3.03054
v -1.96795 3.83553 -2.25633
v -2.15376 2.80464 -2.67382
v -2.09319 3.48492 -2.23183
v -1.91223 3.33800 -2.16496
v -1.89325 3.49194 -1.95937
v -1.94382 3.36813 -1.88795
v -1.84124 3.48146 -1.86605
v -2.01388 3.29178 -1.52499
v -2.21976 3.72899 -1.07243
v -2.49104 3.23783 -1.48298
v -2.59686 3.70432 -1.09823
v -2.68851 3.26354 -1.57775
v -2.65021 3.51590 -1.45797
v -2.69973 3.27570 -1.71063
v -2.71285 3.46289 -1.49800
v -2.80134 3.02763 -1.98789
v -2.85423 3.41064 -1.66376
v -2.81582 3.06802 -2.01826
v -2.83738 3.40640 -1.81745
v -2.89019 3.23967 -1.96752
v -2.88902 3.38589 -1.99080
v -2.90502 2.97648 -2.15062
v -2.94431 3.58454 -1.96814
v -3.07427 3.27737 -2.56549
v -2.72580 3.46596 -2.76999
v -2.70260 3.32025 -2.81458
v -2.70164 3.44839 -2.76923
v -2.52378 3.43492 -2.99556
v -2.30838 3.44334 -2.81807
v -2.33346 3.27049 -2.87526
v -2.21637 3.47913 -2.85082
vt 0.12436 0.91759
vt 0.12669 0.91639
vt 0.12853 0.91702
vt 0.13565 0.91602
vt 0.65506 0.78457
vt 0.13567 0.91561
vt 0.63748 0.78344
vt 0.65231 0.79121
vt 0.69803 0.98001
vt 0.70900 0.97996
vt 0.70858 0.98482
vt 0.09469 0.58645
vt 0.09473 0.57620
vt 0.09509 0.57599
vt 0.97875 0.89085
vt 0.98061 0.89525
vt 0.97983 0.89536
vt 0.08470 0.31075
vt 0.09372 0.32206
vt 0.08470 0.32172
vt 0.97810 0.90047
vt 0.10258 0.57649
vt 0.12920 0.89598
vt 0.52154 0.00535
vt 0.52126 0.00139
vt 0.52497 0.00068
vt 0.69859 0.98537
vt 0.09394 0.31456
vt 0.14307 0.89536
vt 0.14266 0.88183
vt 0.15115 0.88442
vt 0.16991 0.95719
vt 0.16888 0.95336
vt 0.18000 0.95503
vt 0.12061 0.60013
vt 0.01575 0.31859
vt 0.02158 0.31885
vt 0.02158 0.33493
vt 0.14733 0.89545
vt 0.08101 0.30999
vt 0.08156 0.29969
vt 0.10715 0.75043
vt 0.10229 0.77788
vt 0.09510 0.75554
vt 0.11219 0.76770
vt 0.18477 0.95387
vt 0.08850 0.30164
vt 0.09437 0.29733
vt 0.37390 0.99420
vt 0.37887 0.99420
vt 0.37423 0.99676
vt 0.96132 0.75193
vt 0.96317 0.74424
vt 0.96282 0.75193
vt 0.11574 0.76535
vt 0.01528 0.33448
vt 0.74307 0.95105
vt 0.74718 0.95814
vt 0.74632 0.96303
vt 0.96280 0.75459
vt 0.95933 0.75570
vt 0.08169 0.29452
vt 0.74108 0.94928
vt 0.99140 0.42065
vt 0.98804 0.42344
vt 0.98716 0.42103
vt 0.18539 0.95461
vt 0.96378 0.75612
vt 0.96373 0.76229
vt 0.11284 0.74926
vt 0.34833 0.18526
vt 0.36507 0.20836
vt 0.36187 0.20808
vt 0.01460 0.33518
vt 0.99375 0.42357
vt 0.05134 0.93261
vt 0.04488 0.92719
vt 0.05876 0.92768
vt 0.00152 0.71212
vt 0.00250 0.71113
vt 0.00204 0.72003
vt 0.03873 0.93050
vt 0.35780 0.24589
vt 0.35730 0.24413
vt 0.35893 0.23433
vt 0.74076 0.96429
vt 0.36770 0.22258
vt 0.36771 0.24272
vt 0.35487 0.26609
vt 0.35841 0.23166
vt 0.36662 0.21793
vt 0.36826 0.20871
vt 0.43360 0.85556
vt 0.42419 0.87573
vt 0.42440 0.84638
vt 0.43248 0.87389
vt 0.11971 0.57834
vt 0.37014 0.20478
vt 0.01396 0.72663
vt 0.01267 0.73145
vt 0.01284 0.71780
vt 0.86161 0.00157
vt 0.86161 0.00446
vt 0.85497 0.00231
vt 0.37471 0.21293
vt 0.36083 0.18867
vt 0.38990 0.20623
vt 0.39100 0.19954
vt 0.37287 0.22560
vt 0.99425 0.50266
vt 0.99288 0.50383
vt 0.99145 0.50194
vt 0.95892 0.80418
vt 0.96279 0.80093
vt 0.96190 0.81500
vt 0.98766 0.50170
vt 0.95820 0.81415
vt 0.34993 0.17840
vt 0.95602 0.81426
vt 0.37833 0.21250
vt 0.95480 0.79807
vt 0.39293 0.20711
vt 0.34892 0.17260
vt 0.26305 0.99009
vt 0.27011 0.99057
vt 0.26373 0.99261
vt 0.41147 0.19549
vt 0.26992 0.99484
vt 0.26339 0.99481
vt 0.57563 0.85760
vt 0.57340 0.85760
vt 0.57184 0.84872
vt 0.19097 0.99384
vt 0.19290 0.98476
vt 0.19657 0.99329
vt 0.27464 0.97366
vt 0.26855 0.97975
vt 0.26807 0.96749
vt 0.13720 0.70362
vt 0.18817 0.98614
vt 0.10807 0.71272
vt 0.27207 0.97966
vt 0.19675 0.98621
vt 0.57474 0.84139
vt 0.10778 0.68337
vt 0.12464 0.68187
vt 0.41074 0.19751
vt 0.56287 0.84900
vt 0.01762 0.49314
vt 0.01883 0.47912
vt 0.02412 0.48664
vt 0.27661 0.97555
vt 0.28041 0.96387
vt 0.28118 0.97683
vt 0.56713 0.84929
vt 0.02243 0.49424
vt 0.19494 0.98405
vt 0.96844 0.99569
vt 0.97126 0.99569
vt 0.97008 0.99778
vt 0.65075 0.99828
vt 0.65091 0.99402
vt 0.65355 0.99425
vt 0.02459 0.49417
vt 0.01869 0.47611
vt 0.02397 0.48226
vt 0.05663 0.11874
vt 0.05141 0.12841
vt 0.05168 0.11874
vt 0.39516 0.99322
vt 0.39734 0.99221
vt 0.40484 0.99301
vt 0.65427 0.99845
vt 0.55783 0.84187
vt 0.08294 0.74011
vt 0.07092 0.74134
vt 0.07291 0.73685
vt 0.05183 0.03281
vt 0.05576 0.04518
vt 0.05140 0.03771
vt 0.18649 0.97333
vt 0.19518 0.97051
vt 0.19166 0.98303
vt 0.07465 0.74343
vt 0.19592 0.98326
vt 0.05173 0.11435
vt 0.05509 0.10375
vt 0.08171 0.74710
vt 0.05127 0.05713
vt 0.54497 0.84245
vt 0.55493 0.84838
vt 0.55179 0.85098
vt 0.07845 0.71822
vt 0.67422 0.00976
vt 0.66365 0.03168
vt 0.67031 0.00863
vt 0.57682 0.95763
vt 0.59293 0.94856
vt 0.59189 0.95763
vt 0.67290 0.01673
vt 0.57656 0.94733
vt 0.13744 0.68057
vt 0.59329 0.94086
vt 0.08586 0.72036
vt 0.66969 0.03643
vt 0.64588 0.04262
vt 0.29170 0.80244
vt 0.34113 0.06857
vt 0.07730 0.58180
vt 0.06958 0.56644
vt 0.33960 0.06541
vt 0.33127 0.05281
vt 0.37004 0.05610
vt 0.05688 0.56723
vt 0.91659 0.64639
vt 0.36529 0.07148
vt 0.92499 0.64314
vt 0.30913 0.80787
vt 0.30990 0.80020
vt 0.91969 0.63226
vt 0.36213 0.07495
vt 0.37460 0.06385
vt 0.04297 0.22364
vt 0.04350 0.21759
vt 0.04572 0.22596
vt 0.36805 0.07991
vt 0.32358 0.80862
vt 0.37491 0.09420
vt 0.37082 0.09640
vt 0.04557 0.23969
vt 0.04172 0.23505
vt 0.32539 0.80344
vt 0.38883 0.05184
vt 0.34864 0.55395
vt 0.23077 0.62076
vt 0.23077 0.59653
vt 0.29536 0.61864
vt 0.26091 0.59427
vt 0.35028 0.55968
vt 0.33509 0.55295
vt 0.27446 0.59339
vt 0.36078 0.56046
vt 0.29502 0.59202
vt 0.33137 0.55881
vt 0.43706 0.10673
vt 0.31451 0.55195
vt 0.31088 0.55765
vt 0.38686 0.32581
vt 0.27391 0.62155
vt 0.30109 0.55970
vt 0.37202 0.33178
vt 0.37862 0.28262
vt 0.38640 0.28637
vt 0.38604 0.30690
vt 0.48017 0.10826
vt 0.48254 0.11693
vt 0.37196 0.31345
vt 0.30452 0.56098
vt 0.37376 0.30460
vt 0.87668 0.44959
vt 0.86302 0.44700
vt 0.28032 0.00103
vt 0.28539 0.00802
vt 0.27641 0.00705
vt 0.86774 0.46617
vt 0.50181 0.10765
vt 0.24034 0.44214
vt 0.25777 0.41581
vt 0.25735 0.43832
vt 0.25725 0.44735
vt 0.25720 0.46567
vt 0.24110 0.46203
vt 0.10937 0.18877
vt 0.10186 0.17856
vt 0.10780 0.17988
vt 0.09739 0.18292
vt 0.87655 0.14448
vt 0.00062 0.73909
vt 0.00062 0.73026
vt 0.00189 0.73141
vt 0.23268 0.46067
vt 0.09109 0.18830
vt 0.00530 0.16581
vt 0.00375 0.16509
vt 0.00470 0.15731
vt 0.23955 0.41734
vt 0.08259 0.18302
vt 0.66059 0.56454
vt 0.65099 0.57127
vt 0.64855 0.55565
vt 0.38384 0.01627
vt 0.38535 0.02698
vt 0.36030 0.02413
vt 0.64153 0.55987
vt 0.10536 0.91486
vt 0.08882 0.91260
vt 0.08308 0.90725
vt 0.39368 0.02442
vt 0.40270 0.02109
vt 0.40352 0.02015
vt 0.37318 0.03148
vt 0.08853 0.91381
vt 0.08638 0.33705
vt 0.07346 0.32621
vt 0.09372 0.33086
vt 0.36202 0.03398
vt 0.10041 0.32526
vt 0.90103 0.13717
vt 0.61997 0.57126
vt 0.62380 0.54852
vt 0.63119 0.56475
vt 0.90007 0.14555
vt 0.94951 0.04081
vt 0.95419 0.06737
vt 0.94933 0.07426
vt 0.54693 0.16436
vt 0.63215 0.54431
vt 0.36403 0.86577
vt 0.34993 0.85167
vt 0.36464 0.83523
vt 0.58665 0.56844
vt 0.49142 0.18471
vt 0.46178 0.22717
vt 0.57675 0.80956
vt 0.48385 0.16214
vt 0.45779 0.15199
vt 0.46870 0.14929
vt 0.44999 0.15194
vt 0.48389 0.18347
vt 0.34359 0.68611
vt 0.37240 0.68863
vt 0.51884 0.73666
vt 0.46978 0.21552
vt 0.55189 0.81365
vt 0.46780 0.21231
vt 0.54033 0.81087
vt 0.52013 0.05486
vt 0.54554 0.04233
vt 0.76023 0.48461
vt 0.75389 0.47302
vt 0.76342 0.47200
vt 0.53475 0.73995
vt 0.52337 0.04661
vt 0.48312 0.20133
vt 0.47614 0.19977
vt 0.53901 0.73692
vt 0.75419 0.45764
vt 0.76570 0.46315
vt 0.33519 0.69582
vt 0.43440 0.14956
vt 0.50019 0.06119
vt 0.76094 0.42677
vt 0.32270 0.68509
vt 0.50799 0.04703
vt 0.92837 0.01624
vt 0.91878 0.00982
vt 0.92858 0.00504
vt 0.93198 0.01372
vt 0.22459 0.26997
vt 0.20680 0.27863
vt 0.21302 0.26005
vt 0.19885 0.26535
vt 0.21053 0.25575
vt 0.93084 0.01878
vt 0.19349 0.28689
vt 0.58034 0.98404
vt 0.57694 0.98528
vt 0.57741 0.97452
vt 0.20148 0.25200
vt 0.36428 0.99519
vt 0.36085 0.99637
vt 0.36409 0.99157
vt 0.08273 0.44140
vt 0.07341 0.44678
vt 0.06989 0.42985
vt 0.63633 0.92175
vt 0.64020 0.91263
vt 0.65269 0.92643
vt 0.07419 0.83216
vt 0.08231 0.83565
vt 0.07970 0.84863
vt 0.19846 0.28792
vt 0.07560 0.45214
vt 0.06495 0.44466
vt 0.49668 0.99413
vt 0.50131 0.99413
vt 0.49949 0.99884
vt 0.07817 0.43107
vt 0.08013 0.43071
vt 0.99228 0.61127
vt 0.99228 0.62441
vt 0.99164 0.62425
vt 0.07668 0.84866
vt 0.19519 0.25803
vt 0.18828 0.27651
vt 0.19561 0.26381
vt 0.03340 0.37046
vt 0.04017 0.37102
vt 0.04171 0.37679
vt 0.44195 0.91557
vt 0.43885 0.90321
vt 0.44831 0.90437
vt 0.72622 0.99057
vt 0.72747 0.99162
vt 0.72647 0.99335
vt 0.04518 0.37096
vt 0.99709 0.90979
vt 0.99889 0.91130
vt 0.99724 0.91483
vt 0.44635 0.89976
vt 0.07987 0.82503
vt 0.44316 0.89197
vt 0.25481 0.98803
vt 0.25757 0.98764
vt 0.25603 0.98925
vt 0.05353 0.36994
vt 0.65832 0.91763
vt 0.19327 0.25502
vt 0.40699 0.85302
vt 0.73612 0.99062
vt 0.73359 0.99254
vt 0.69481 0.97031
vt 0.69399 0.95733
vt 0.69959 0.96461
vt 0.69906 0.96758
vt 0.89498 0.49017
vt 0.89355 0.49339
vt 0.89047 0.48702
vt 0.45060 0.91076
vt 0.12270 0.38812
vt 0.11766 0.37605
vt 0.12107 0.37409
vt 0.26579 0.98919
vt 0.19948 0.24636
vt 0.64801 0.90322
vt 0.64947 0.90837
vt 0.00491 0.18368
vt 0.00011 0.18607
vt 0.00012 0.18212
vt 0.65535 0.91186
vt 0.65915 0.91512
vt 0.44839 0.99113
vt 0.45815 0.99113
vt 0.45664 0.99279
vt 0.11717 0.39263
vt 0.07075 0.84575
vt 0.06228 0.44546
vt 0.89437 0.50875
vt 0.87800 0.49680
vt 0.18896 0.28215
vt 0.64198 0.90371
vt 0.64052 0.90869
vt 0.73660 0.99323
vt 0.19094 0.28681
vt 0.12453 0.39289
vt 0.07060 0.85056
vt 0.00037 0.19125
vt 0.05825 0.43654
vt 0.06729 0.43424
vt 0.99809 0.19565
vt 0.99837 0.19506
vt 0.99839 0.20042
vt 0.00496 0.25014
vt 0.00107 0.24931
vt 0.00479 0.24131
vt 0.18751 0.24693
vt 0.12311 0.39999
vt 0.11726 0.40088
vt 0.00297 0.24206
vt 0.69870 0.95582
vt 0.69998 0.95591
vt 0.06018 0.43809
vt 0.46654 0.00417
vt 0.46712 0.00633
vt 0.46668 0.01141
vt 0.04143 0.97285
vt 0.03812 0.96835
vt 0.04307 0.96837
vt 0.18697 0.24443
vt 0.11878 0.40682
vt 0.40129 0.86535
vt 0.44553 0.85335
vt 0.43494 0.84892
vt 0.44345 0.84689
vt 0.89367 0.51770
vt 0.89544 0.52204
vt 0.89350 0.52216
vt 0.44513 0.85536
vt 0.43625 0.85662
vt 0.71234 0.00070
vt 0.71234 0.00382
vt 0.71178 0.00185
vt 0.03524 0.96955
vt 0.40360 0.86621
vt 0.19627 0.23771
vt 0.89098 0.52345
vt 0.87541 0.51920
vt 0.03063 0.97242
vt 0.03295 0.96931
vt 0.54981 0.52850
vt 0.53111 0.51307
vt 0.02930 0.96928
vt 0.51948 0.01906
vt 0.51720 0.01939
vt 0.51355 0.01926
vt 0.51168 0.01674
vt 0.43077 0.84981
vt 0.51386 0.00452
vt 0.99579 0.42493
vt 0.99491 0.42822
vt 0.99265 0.42481
vt 0.99282 0.43047
vt 0.50665 0.00121
vt 0.50157 0.52096
vt 0.88808 0.52980
vt 0.43220 0.84120
vt 0.43743 0.83849
vt 0.97120 0.84385
vt 0.95493 0.84517
vt 0.96134 0.83925
vt 0.95531 0.83875
vt 0.93677 0.99625
vt 0.93677 0.99319
vt 0.94212 0.99493
vt 0.21611 0.99207
vt 0.21955 0.99680
vt 0.21312 0.99687
vt 0.52733 0.52217
vt 0.74510 0.78907
vt 0.73745 0.79938
vt 0.74843 0.77948
vt 0.42771 0.84582
vt 0.94882 0.82565
vt 0.87825 0.53058
vt 0.95522 0.82409
vt 0.51202 0.51357
vt 0.50972 0.51789
vt 0.89796 0.50340
vt 0.89752 0.47813
vt 0.89963 0.49523
vt 0.94950 0.81981
vt 0.74833 0.78390
vt 0.90425 0.50059
vt 0.30138 0.90560
vt 0.30242 0.91151
vt 0.51530 0.51601
vt 0.29264 0.91166
vt 0.28548 0.90522
vt 0.52400 0.51230
vt 0.73673 0.76142
vt 0.75505 0.77260
vt 0.06746 0.90711
vt 0.06801 0.91264
vt 0.06004 0.91404
vt 0.42089 0.84432
vt 0.41678 0.84160
vt 0.28749 0.91187
vt 0.08317 0.90870
vt 0.07768 0.91410
vt 0.51330 0.50889
vt 0.52659 0.51196
vt 0.53347 0.50462
vt 0.52744 0.51284
vt 0.75640 0.78205
vt 0.89750 0.47319
vt 0.90769 0.48814
vt 0.95767 0.73947
vt 0.95402 0.73914
vt 0.95366 0.73712
vt 0.95053 0.73919
vt 0.55655 0.51213
vt 0.99441 0.60484
vt 0.98599 0.61050
vt 0.98787 0.60381
vt 0.76501 0.78066
vt 0.50964 0.49825
vt 0.76429 0.78272
vt 0.88737 0.47121
vt 0.52288 0.50743
vt 0.90638 0.46703
vt 0.93931 0.73882
vt 0.94999 0.73390
vt 0.99367 0.60356
vt 0.63423 0.93032
vt 0.63707 0.93538
vt 0.63492 0.93725
vt 0.08282 0.91450
vt 0.98581 0.36587
vt 0.98637 0.37625
vt 0.98247 0.37302
vt 0.52320 0.50844
vt 0.03071 0.31933
vt 0.03323 0.34047
vt 0.03071 0.33513
vt 0.03512 0.32065
vt 0.79949 0.43542
vt 0.80201 0.44817
vt 0.79768 0.44566
vt 0.80355 0.42953
vt 0.80655 0.42878
vt 0.98268 0.36194
vt 0.09264 0.09772
vt 0.12143 0.09840
vt 0.63905 0.93611
vt 0.77031 0.77495
vt 0.27091 0.98986
vt 0.27583 0.98908
vt 0.27158 0.99484
vt 0.46760 0.58786
vt 0.44485 0.58623
vt 0.44408 0.58085
vt 0.45016 0.57197
vt 0.63747 0.94618
vt 0.79922 0.41872
vt 0.80164 0.42569
vt 0.80902 0.42301
vt 0.38164 0.97732
vt 0.38327 0.98127
vt 0.37854 0.98281
vt 0.80632 0.43468
vt 0.80778 0.43492
vt 0.53745 0.50029
vt 0.37892 0.97045
vt 0.63696 0.99560
vt 0.63696 0.99786
vt 0.63590 0.99617
vt 0.99173 0.88250
vt 0.99201 0.89372
vt 0.99047 0.89480
vt 0.64005 0.94517
vt 0.43935 0.57417
vt 0.42819 0.57797
vt 0.40241 0.57502
vt 0.41515 0.57471
vt 0.40716 0.58459
vt 0.79999 0.40758
vt 0.80768 0.40693
vt 0.80000 0.41781
vt 0.86994 0.46419
vt 0.80987 0.42359
vt 0.99245 0.89589
vt 0.39923 0.57759
vt 0.42569 0.58934
vt 0.42461 0.57669
vt 0.42507 0.57849
vt 0.52112 0.49721
vt 0.91398 0.45412
vt 0.91328 0.46527
vt 0.79758 0.39579
vt 0.79667 0.38550
vt 0.02100 0.94054
vt 0.03365 0.92966
vt 0.03969 0.93552
vt 0.02825 0.92644
vt 0.01911 0.93171
vt 0.63790 0.94908
vt 0.02999 0.92557
vt 0.50626 0.95684
vt 0.52288 0.95684
vt 0.52238 0.95774
vt 0.64768 0.94231
vt 0.42154 0.83634
vt 0.43137 0.83685
vt 0.50896 0.50836
vt 0.51156 0.50427
vt 0.10459 0.10329
vt 0.02861 0.92027
vt 0.91100 0.45188
vt 0.12853 0.91702
vt 0.12853 0.91702
vt 0.12853 0.91702
vt 0.12853 0.91702
vt 0.12853 0.91702
vt 0.12853 0.91702
vt 0.12853 0.91702
vt 0.12853 0.91702
vt 0.12853 0.91702
vt 0.12853 0.91702
vt 0.12853 0.91702
vt 0.12853 0.91702
vt 0.12853 0.91702
vt 0.12853 0.91702
vt 0.12853 0.91702
vt 0.12853 0.91702
vt 0.12853 0.91702
vt 0.12853 0.91702
vt 0.12853 0.91702
vt 0.12853 0.91702
vt 0.12853 0.91702
vt 0.12853 0.91702
vt 0.12853 0.91702
vt 0.12853 0.91702
vt 0.12853 0.91702
vt 0.12853 0.91702
vt 0.12853 0.91702
vt 0.12853 0.91702
vt 0.12853 0.91702
vt 0.12853 0.91702
vt 0.12853 0.91702
vt 0.12853 0.91702
vt 0.12853 0.91702
vt 0.12853 0.91702
vt 0.12853 0.91702
vt 0.12853 0.91702
vt 0.12853 0.91702
vt 0.12853 0.91702
vt 0.12853 0.91702
vt 0.12853 0.91702
vt 0.12853 0.91702
vt 0.12853 0.91702
vt 0.12853 0.91702
vt 0.12853 0.91702
vt 0.12853 0.91702
vt 0.12853 0.91702
vt 0.12853 0.91702
vt 0.12853 0.91702
vt 0.12853 0.91702
vt 0.48025 0.00832
vt 0.48025 0.00832
vt 0.48025 0.00832
vt 0.48025 0.00832
vt 0.48025 0.00832
vt 0.48025 0.00832
vt 0.48025 0.00832
vt 0.48025 0.00832
vt 0.48025 0.00832
vt 0.48025 0.00832
vt 0.48025 0.00832
vt 0.48025 0.00832
vt 0.48025 0.00832
vt 0.48025 0.00832
vt 0.48025 0.00832
vt 0.48025 0.00832
vt 0.48025 0.00832
vt 0.48025 0.00832
vt 0.48025 0.00832
vt 0.48025 0.00832
vt 0.48025 0.00832
vt 0.48025 0.00832
vt 0.48025 0.00832
vt 0.48025 0.00832
vt 0.48025 0.00832
vt 0.48025 0.00832
vt 0.48025 0.00832
vt 0.48025 0.00832
vt 0.48025 0.00832
vt 0.48025 0.00832
vt 0.48025 0.00832
vt 0.48025 0.00832
vt 0.48025 0.00832
vn 0.8691 0.1950 -0.4544
vn 0.7355 0.1519 -0.6603
vn 0.6157 0.1376 -0.7759
vn 0.4413 0.1376 -0.8867
vn 0.9587 0.1597 -0.2353
vn 0.4314 0.1371 -0.8917
vn 0.9308 0.2972 -0.2126
vn 0.9494 0.2092 -0.2343
vn -0.2723 0.6593 -0.7009
vn -0.2897 0.6268 -0.7234
vn -0.2828 0.6399 -0.7145
vn -0.2285 0.9472 -0.2248
vn 0.2137 0.9279 -0.3055
vn -0.0508 0.9616 -0.2697
vn 0.8265 0.2032 -0.5249
vn 0.7138 0.3839 -0.5858
vn 0.6712 0.4548 -0.5855
vn -0.1606 0.1165 -0.9801
vn -0.2418 0.0604 -0.9684
vn -0.2301 0.0500 -0.9719
vn 0.6066 0.6013 -0.5201
vn -0.2347 0.9445 -0.2299
vn -0.3286 -0.1521 -0.9321
vn -0.9980 0.0562 -0.0296
vn -0.9980 0.0562 -0.0296
vn -0.9980 0.0562 -0.0296
vn -0.2648 0.6724 -0.6912
vn -0.2526 0.0980 -0.9626
vn -0.3118 -0.4098 -0.8573
vn -0.2934 -0.3124 -0.9035
vn -0.2527 -0.5132 -0.8202
vn -0.1007 0.9949 -0.0028
vn -0.1107 0.9935 -0.0279
vn -0.1936 0.9456 -0.2615
vn -0.2317 0.9458 -0.2274
vn -0.3471 0.4832 -0.8038
vn -0.3616 0.5179 -0.7752
vn -0.3400 0.3966 -0.8527
vn -0.2715 -0.5573 -0.7847
vn -0.0334 0.1210 -0.9921
vn -0.1453 0.3125 -0.9387
vn 0.4065 0.2009 -0.8913
vn 0.5016 0.1853 -0.8450
vn 0.5258 0.0995 -0.8448
vn 0.4136 0.2196 -0.8835
vn -0.1824 0.8242 -0.5361
vn -0.2289 0.2971 -0.9270
vn -0.2833 0.3264 -0.9018
vn -0.7878 0.4558 -0.4143
vn -0.7878 0.4558 -0.4143
vn -0.7878 0.4558 -0.4143
vn -0.9043 -0.3803 0.1942
vn -0.9152 -0.3312 0.2294
vn -0.8939 -0.3826 0.2338
vn 0.2213 0.2962 -0.9292
vn -0.5479 0.3262 -0.7704
vn 0.1224 0.0033 -0.9925
vn -0.0762 0.0225 -0.9969
vn 0.0353 0.0059 -0.9994
vn -0.9169 -0.3805 0.1207
vn -0.9173 -0.3844 0.1046
vn -0.1975 0.3535 -0.9144
vn 0.1067 0.0013 -0.9943
vn 0.1432 0.9882 -0.0551
vn 0.1443 0.9879 -0.0562
vn 0.1454 0.9877 -0.0574
vn -0.1783 0.8036 -0.5678
vn -0.9173 -0.3832 0.1081
vn -0.9121 -0.3950 0.1102
vn 0.3073 0.2772 -0.9104
vn -0.4583 0.5885 -0.6661
vn -0.5127 0.5118 -0.6894
vn -0.5288 0.5913 -0.6089
vn -0.7010 0.2829 -0.6546
vn 0.1423 0.9883 -0.0541
vn -0.9435 -0.2619 -0.2028
vn -0.9897 -0.1321 -0.0546
vn -0.9126 -0.3132 -0.2625
vn 0.0575 -0.5010 0.8635
vn 0.0575 -0.5010 0.8635
vn 0.0575 -0.5010 0.8635
vn -0.9975 -0.0681 0.0170
vn -0.2552 -0.1940 -0.9472
vn -0.3308 -0.2235 -0.9169
vn -0.4220 -0.0429 -0.9057
vn 0.0620 0.0012 -0.9981
vn -0.2535 -0.0769 -0.9643
vn -0.2595 -0.2085 -0.9430
vn -0.2366 -0.2095 -0.9488
vn -0.6711 0.2311 -0.7045
vn -0.5007 0.2431 -0.8307
vn -0.5073 0.4201 -0.7524
vn -0.7091 0.3229 -0.6269
vn -0.7020 0.2826 -0.6537
vn -0.7111 0.3354 -0.6180
vn -0.6967 0.2575 -0.6696
vn -0.2569 0.9366 -0.2385
vn -0.2892 0.3861 -0.8759
vn -0.5926 0.0641 -0.8029
vn -0.5926 0.0641 -0.8029
vn -0.5926 0.0641 -0.8029
vn -0.5197 0.8353 -0.1794
vn -0.5197 0.8353 -0.1794
vn -0.5197 0.8353 -0.1794
vn -0.1156 0.2622 -0.9580
vn -0.4840 0.5829 -0.6526
vn -0.3144 0.2685 -0.9105
vn -0.1815 0.1105 -0.9771
vn -0.3171 -0.2463 -0.9158
vn 0.2772 0.9410 -0.1943
vn 0.3110 0.9248 -0.2192
vn 0.3754 0.8877 -0.2665
vn -0.8772 -0.3075 -0.3687
vn -0.8596 -0.2801 -0.4274
vn -0.9628 -0.2334 -0.1357
vn 0.4030 0.8691 -0.2869
vn -0.9685 -0.2418 -0.0586
vn -0.5271 0.5674 -0.6325
vn -0.9519 -0.2779 -0.1287
vn -0.2550 0.5592 -0.7889
vn -0.8310 -0.3650 -0.4197
vn -0.3807 0.3806 -0.8427
vn -0.5871 0.5629 -0.5818
vn -0.6005 0.7736 -0.2022
vn -0.6145 0.7868 -0.0577
vn -0.6268 0.7694 -0.1228
vn -0.3320 0.1027 -0.9376
vn -0.6251 0.7800 -0.0282
vn -0.6558 0.7500 -0.0863
vn -0.8870 -0.2910 0.3584
vn -0.8792 -0.2918 0.3766
vn -0.9078 -0.3490 0.2325
vn -0.4168 0.8974 -0.1447
vn -0.4178 0.9068 0.0566
vn -0.4382 0.8974 -0.0505
vn -0.2437 -0.1512 -0.9580
vn -0.2421 -0.1560 -0.9576
vn -0.2448 -0.1478 -0.9582
vn -0.7978 0.5953 -0.0962
vn -0.3946 0.9132 -0.1013
vn -0.8044 0.5851 -0.1032
vn -0.2392 -0.1648 -0.9569
vn -0.4281 0.8616 0.2728
vn -0.9000 -0.4011 0.1709
vn -0.8118 0.5723 -0.1159
vn -0.8051 0.5835 -0.1065
vn -0.3366 0.1295 -0.9327
vn -0.8757 -0.4701 0.1101
vn -0.9499 0.3087 -0.0480
vn -0.9984 0.0470 0.0325
vn -0.9517 0.3031 -0.0476
vn -0.9084 0.4167 0.0340
vn -0.9084 0.4167 0.0340
vn -0.9084 0.4167 0.0340
vn -0.6462 -0.7363 0.2004
vn -0.9416 0.3308 0.0637
vn -0.3836 0.8951 0.2272
vn 0.0850 0.5968 -0.7979
vn 0.0850 0.5968 -0.7979
vn 0.0850 0.5968 -0.7979
vn 0.3655 0.8736 -0.3212
vn 0.3343 0.8969 -0.2895
vn 0.3551 0.8817 -0.3107
vn -0.9252 0.3372 0.1744
vn -0.9926 -0.0817 0.0898
vn -0.9632 0.2591 -0.0712
vn -0.0919 0.1441 -0.9853
vn 0.0407 0.2863 -0.9573
vn 0.0215 0.2221 -0.9747
vn -0.7971 0.4043 -0.4485
vn -0.7971 0.4043 -0.4485
vn -0.7971 0.4043 -0.4485
vn 0.3826 0.8595 -0.3389
vn -0.8724 -0.4778 0.1034
vn -0.6939 0.6686 -0.2672
vn -0.7035 0.6650 -0.2506
vn -0.7145 0.6483 -0.2631
vn -0.4822 0.3425 -0.8063
vn -0.3333 0.3258 -0.8847
vn -0.4547 0.3401 -0.8232
vn -0.5513 0.7152 -0.4296
vn -0.5422 0.7463 -0.3861
vn -0.5251 0.7898 -0.3169
vn -0.6772 0.6971 -0.2354
vn -0.5060 0.8254 -0.2505
vn -0.2637 -0.0161 -0.9645
vn -0.3691 -0.0888 -0.9251
vn -0.6886 0.6798 -0.2522
vn -0.3183 0.3237 -0.8910
vn -0.8776 -0.4681 0.1040
vn -0.8951 -0.4385 0.0809
vn -0.8656 -0.4835 0.1301
vn -0.6659 0.6698 -0.3286
vn -0.6965 0.5366 0.4764
vn -0.7918 0.3531 0.4985
vn -0.6974 0.5370 0.4746
vn -0.9446 0.0499 -0.3245
vn -0.9455 0.0502 -0.3218
vn -0.9310 0.0631 -0.3597
vn -0.6943 0.5348 0.4815
vn -0.9508 0.0439 -0.3067
vn -0.8010 0.5892 -0.1064
vn -0.9517 0.0447 -0.3037
vn -0.6454 0.6750 -0.3574
vn -0.7885 0.3664 0.4941
vn -0.8405 0.1488 0.5210
vn -0.3051 0.3979 0.8652
vn -0.6192 0.5154 0.5924
vn -0.8618 -0.4668 0.1987
vn -0.8534 -0.4942 0.1660
vn -0.5584 0.4538 0.6945
vn -0.5106 0.3555 0.7829
vn -0.5576 0.3425 0.7562
vn -0.8528 -0.4960 0.1638
vn 0.4899 -0.2079 0.8466
vn -0.7040 0.4476 0.5514
vn 0.4829 -0.2095 0.8503
vn -0.3704 0.2994 0.8793
vn -0.3782 0.2887 0.8795
vn 0.4720 -0.2175 0.8544
vn -0.8528 0.4505 0.2642
vn -0.6171 0.2853 0.7333
vn -0.0627 -0.0122 0.9980
vn -0.0575 -0.0083 0.9983
vn -0.0502 -0.0312 0.9982
vn -0.9289 0.2876 0.2333
vn -0.4313 0.1887 0.8822
vn -0.9409 0.2732 0.2001
vn -0.9373 0.2779 0.2101
vn -0.1205 0.0077 0.9927
vn -0.1436 0.0222 0.9894
vn -0.4358 0.1882 0.8801
vn -0.6685 0.2287 0.7077
vn -0.4420 0.3608 -0.8213
vn 0.9306 -0.0197 -0.3656
vn 0.9297 -0.0142 -0.3681
vn 0.9216 0.0059 -0.3880
vn 0.9216 0.0050 -0.3881
vn -0.4266 0.3509 -0.8336
vn -0.3858 0.3634 -0.8480
vn 0.9243 -0.0023 -0.3817
vn -0.3991 0.3245 -0.8576
vn 0.9220 0.0198 -0.3866
vn -0.3868 0.3712 -0.8441
vn 0.8833 -0.1790 0.4333
vn -0.4470 0.4244 -0.7874
vn -0.4470 0.4769 -0.7568
vn 0.6297 0.1791 -0.7560
vn 0.8622 0.0488 -0.5043
vn -0.6323 0.4263 -0.6468
vn 0.6148 0.2227 -0.7567
vn 0.6372 0.2030 -0.7434
vn 0.6430 0.2026 -0.7386
vn 0.6316 0.1992 -0.7493
vn 0.7940 -0.3364 0.5063
vn 0.8095 -0.3168 0.4943
vn 0.6284 0.1926 -0.7536
vn -0.7449 0.3612 -0.5609
vn 0.6287 0.2059 -0.7499
vn 0.4722 0.1551 -0.8677
vn 0.4370 0.1334 -0.8895
vn 0.7868 0.5520 -0.2762
vn 0.7868 0.5520 -0.2762
vn 0.7868 0.5520 -0.2762
vn 0.4649 0.1779 -0.8673
vn 0.8176 -0.2560 0.5157
vn -0.6402 0.4221 -0.6419
vn -0.5632 0.5503 -0.6164
vn -0.5763 0.5546 -0.6003
vn -0.6669 0.4114 -0.6212
vn -0.7500 0.3050 -0.5870
vn -0.7384 0.3125 -0.5976
vn -0.0541 0.9826 0.1779
vn -0.0391 0.9817 0.1861
vn -0.0496 0.9813 0.1858
vn -0.0679 0.9811 0.1810
vn -0.5695 0.1511 -0.8080
vn 0.2612 0.3203 -0.9106
vn 0.2612 0.3203 -0.9106
vn 0.2612 0.3203 -0.9106
vn -0.7165 0.3049 -0.6274
vn -0.0867 0.9735 0.2115
vn 0.5199 0.7334 0.4380
vn 0.5199 0.7334 0.4380
vn 0.5199 0.7334 0.4380
vn -0.5553 0.5442 -0.6288
vn -0.0886 0.9688 0.2315
vn -0.5697 0.2007 -0.7969
vn -0.5700 0.1999 -0.7970
vn -0.4266 0.2056 -0.8808
vn -0.9465 0.3204 -0.0379
vn -0.9432 0.3195 -0.0907
vn -0.9123 0.3285 -0.2444
vn -0.2882 0.2812 -0.9153
vn -0.0822 0.9963 0.0252
vn -0.1065 0.9938 -0.0313
vn -0.0270 0.9883 0.1500
vn -0.9446 0.3267 -0.0311
vn -0.9111 0.3347 0.2404
vn -0.8894 0.3312 0.3149
vn -0.8907 0.3252 -0.3174
vn -0.2189 0.9273 -0.3035
vn -0.3322 0.5896 -0.7362
vn -0.3232 0.5712 -0.7545
vn -0.3141 0.5527 -0.7720
vn -0.8938 0.3321 -0.3015
vn -0.3062 0.5368 -0.7861
vn -0.5400 0.1973 -0.8183
vn -0.2015 0.4339 -0.8781
vn -0.1640 0.4295 -0.8880
vn -0.1249 0.4707 -0.8734
vn -0.5738 0.1986 -0.7946
vn -0.0179 -0.1845 0.9827
vn -0.0179 -0.1845 0.9827
vn -0.0179 -0.1845 0.9827
vn -0.9590 -0.0625 0.2766
vn -0.1384 0.3749 -0.9167
vn -0.3749 0.9227 -0.0898
vn -0.3749 0.9227 -0.0898
vn -0.3749 0.9227 -0.0898
vn -0.2470 0.3889 -0.8876
vn -0.9876 -0.0413 0.1511
vn -0.7260 -0.0940 -0.6812
vn -0.5484 -0.2784 0.7885
vn -0.9950 0.0718 0.0692
vn -0.9825 0.1855 -0.0171
vn -0.9766 0.2106 -0.0449
vn -0.9769 0.0793 -0.1987
vn -0.9700 -0.0177 -0.2428
vn -0.5313 -0.5679 0.6287
vn -0.6522 -0.5402 0.5319
vn 0.0419 -0.7500 0.6601
vn -0.7299 -0.1081 -0.6749
vn -0.6310 -0.2606 0.7308
vn -0.7318 -0.1063 -0.6732
vn -0.6340 -0.2596 0.7285
vn -0.9956 -0.0742 -0.0569
vn -0.9870 0.0477 -0.1531
vn -0.5630 -0.4472 0.6950
vn -0.5595 -0.4219 0.7134
vn -0.5708 -0.4358 0.6958
vn 0.1867 -0.7316 0.6557
vn -0.9933 -0.0411 -0.1079
vn -0.7480 -0.1417 -0.6484
vn -0.8228 -0.0121 -0.5681
vn 0.1991 -0.7294 0.6545
vn -0.5557 -0.3340 0.7613
vn -0.5559 -0.3640 0.7473
vn -0.5568 -0.5279 0.6414
vn -0.9328 0.1246 -0.3381
vn -0.9946 -0.0767 0.0703
vn -0.5688 -0.3079 0.7628
vn -0.5761 -0.4978 0.6483
vn -0.9959 -0.0890 0.0203
vn 0.8446 -0.5159 -0.1432
vn 0.8130 -0.5503 -0.1902
vn 0.8681 -0.4695 -0.1612
vn 0.8110 -0.5592 -0.1718
vn 0.1885 -0.5589 -0.8076
vn 0.2373 -0.5177 -0.8220
vn 0.0773 -0.4674 -0.8807
vn 0.0908 -0.5050 -0.8583
vn -0.3222 -0.3126 -0.8936
vn 0.7040 -0.6929 -0.1555
vn 0.1840 -0.4979 -0.8475
vn 0.2954 -0.8928 0.3401
vn 0.2954 -0.8928 0.3401
vn 0.2954 -0.8928 0.3401
vn -0.5542 -0.1443 -0.8198
vn 0.5439 -0.4606 0.7013
vn 0.5439 -0.4606 0.7013
vn 0.5439 -0.4606 0.7013
vn 0.7330 -0.6645 0.1451
vn 0.6737 -0.7043 0.2238
vn 0.7323 -0.6490 0.2059
vn 0.8589 0.4989 -0.1157
vn 0.7976 0.5980 -0.0778
vn 0.8520 0.5186 -0.0720
vn 0.9763 -0.2061 0.0660
vn 0.9856 -0.1624 -0.0464
vn 0.9831 -0.1759 -0.0516
vn 0.1896 -0.3684 -0.9101
vn 0.6116 -0.7570 0.2298
vn 0.7323 -0.6797 0.0401
vn 0.3436 0.9370 0.0639
vn 0.3436 0.9370 0.0639
vn 0.3436 0.9370 0.0639
vn 0.7377 -0.6675 0.1014
vn 0.7064 -0.7061 -0.0488
vn -0.4722 0.0862 -0.8773
vn -0.4722 0.0862 -0.8773
vn -0.4722 0.0862 -0.8773
vn 0.9814 -0.1479 0.1224
vn -0.3881 -0.1408 -0.9108
vn 0.3138 -0.6110 -0.7268
vn 0.3488 -0.6611 -0.6643
vn 0.7654 -0.3311 0.5519
vn 0.7744 -0.2964 0.5589
vn 0.7790 -0.2729 0.5644
vn 0.4171 0.3361 -0.8444
vn 0.4581 0.2518 -0.8525
vn 0.4329 0.3212 -0.8423
vn 0.2907 0.9331 -0.2115
vn 0.2759 0.9353 -0.2215
vn 0.3256 0.9441 -0.0522
vn 0.7841 -0.2415 0.5718
vn -0.7186 0.3583 -0.5960
vn -0.7186 0.3583 -0.5960
vn -0.7186 0.3583 -0.5960
vn 0.4621 0.2375 -0.8544
vn 0.9675 -0.2402 0.0801
vn 0.4593 0.1859 -0.8687
vn 0.8426 0.3994 0.3614
vn 0.8460 0.4360 0.3068
vn 0.8445 0.4160 0.3372
vn 0.7832 -0.2397 0.5736
vn 0.8429 0.5319 -0.0814
vn -0.5046 -0.0761 -0.8600
vn 0.4284 -0.6609 0.6162
vn 0.3937 0.7420 -0.5426
vn 0.3114 0.8075 -0.5009
vn -0.6401 0.6675 -0.3803
vn -0.7317 0.5755 -0.3652
vn -0.6765 0.6320 -0.3782
vn -0.4473 0.8663 -0.2225
vn 0.7028 -0.5485 -0.4531
vn 0.8555 -0.5145 -0.0577
vn 0.7447 -0.6323 -0.2135
vn 0.3627 0.4175 -0.8331
vn 0.8402 0.3187 -0.4388
vn 0.8615 0.2324 -0.4516
vn 0.8604 0.2328 -0.4533
vn 0.8464 0.4471 0.2896
vn -0.6435 -0.0211 -0.7652
vn 0.6812 0.7287 -0.0708
vn 0.7790 0.6260 -0.0329
vn -0.6075 -0.0527 -0.7926
vn -0.6440 -0.0433 -0.7639
vn -0.5340 -0.0704 -0.8426
vn 0.8075 0.5885 -0.0405
vn 0.8433 0.5188 -0.1405
vn 0.7974 -0.4663 0.3831
vn 0.7974 -0.4663 0.3831
vn 0.7974 -0.4663 0.3831
vn 0.8147 0.2747 -0.5107
vn 0.9318 -0.0946 0.3503
vn 0.4999 -0.6603 -0.5606
vn 0.8940 -0.3430 0.2885
vn 0.8955 -0.3794 0.2325
vn 0.1960 -0.5561 -0.8077
vn 0.6279 0.7697 -0.1151
vn 0.5926 0.7851 -0.1803
vn 0.4736 0.6678 -0.5742
vn 0.0459 -0.5938 -0.8033
vn 0.7747 0.3226 -0.5438
vn 0.8845 0.0509 0.4638
vn -0.7000 -0.0279 -0.7136
vn 0.4098 -0.6109 -0.6773
vn 0.7475 -0.6310 0.2075
vn 0.4254 0.4428 -0.7893
vn 0.4254 0.4428 -0.7893
vn 0.4254 0.4428 -0.7893
vn 0.1612 0.2811 -0.9461
vn 0.1949 0.2735 -0.9419
vn 0.3375 0.2371 -0.9110
vn -0.6336 -0.0031 -0.7737
vn 0.8096 0.2841 -0.5137
vn 0.8304 0.3353 -0.4451
vn 0.4396 0.2062 -0.8741
vn -0.7315 0.5933 -0.3360
vn -0.7442 0.5794 -0.3323
vn 0.6189 -0.6570 -0.4305
vn -0.1948 0.6857 -0.7014
vn -0.1948 0.6857 -0.7014
vn -0.1948 0.6857 -0.7014
vn 0.6867 0.7169 -0.1205
vn 0.7257 0.6743 -0.1370
vn 0.6862 0.7209 -0.0975
vn -0.6865 0.0209 -0.7268
vn 0.8143 0.4466 -0.3707
vn 0.5870 -0.7710 0.2470
vn -0.4423 0.8966 0.0202
vn -0.5477 0.8342 -0.0645
vn -0.4064 0.9135 -0.0192
vn 0.9220 -0.1865 0.3392
vn 0.9310 0.0360 0.3632
vn 0.9026 -0.0693 0.4248
vn -0.5180 0.8502 -0.0940
vn -0.5101 0.8599 0.0214
vn 0.2175 0.8039 -0.5536
vn 0.2175 0.8039 -0.5536
vn 0.2175 0.8039 -0.5536
vn 0.6697 0.7330 -0.1191
vn 0.5109 -0.7615 0.3990
vn -0.7018 0.0308 -0.7117
vn 0.8992 -0.0518 0.4344
vn 0.9219 -0.1999 0.3318
vn 0.6508 0.7452 -0.1452
vn 0.6846 0.7252 -0.0738
vn 0.0201 -0.7145 0.6994
vn 0.1228 -0.6697 0.7324
vn 0.6454 0.7383 -0.1958
vn -0.9868 0.0086 -0.1612
vn -0.9663 0.1709 -0.1929
vn -0.9905 -0.0385 -0.1326
vn -0.9902 0.0069 -0.1395
vn -0.6624 0.7458 -0.0706
vn -0.9953 0.0569 -0.0793
vn 0.7640 0.2524 -0.5938
vn 0.5993 0.5011 -0.6243
vn 0.6834 0.3901 -0.6171
vn 0.5038 0.6021 -0.6194
vn -0.9960 0.0714 -0.0526
vn 0.1534 -0.1852 0.9707
vn 0.8938 -0.0379 0.4470
vn -0.7389 0.5982 -0.3102
vn -0.5917 0.7415 -0.3163
vn -0.5372 0.0341 -0.8428
vn -0.3877 0.1448 -0.9104
vn -0.4570 0.0955 -0.8843
vn -0.2458 0.2361 -0.9401
vn -0.0259 -0.2199 -0.9752
vn -0.0259 -0.2199 -0.9752
vn -0.0259 -0.2199 -0.9752
vn 0.1795 0.9623 -0.2044
vn 0.1795 0.9623 -0.2044
vn 0.1795 0.9623 -0.2044
vn 0.0774 -0.5314 0.8436
vn 0.1017 0.9948 -0.0014
vn 0.1137 0.9935 0.0086
vn -0.1944 0.9668 -0.1658
vn -0.7288 0.6363 -0.2529
vn 0.7560 -0.6518 -0.0603
vn 0.8828 -0.0362 0.4682
vn 0.7513 -0.6559 -0.0735
vn 0.0557 -0.3729 0.9262
vn 0.0850 -0.3376 0.9375
vn -0.8771 0.3444 -0.3347
vn -0.8168 0.1796 -0.5483
vn -0.8768 0.3470 -0.3329
vn 0.7767 -0.6250 -0.0775
vn 0.0392 0.9921 -0.1194
vn -0.8621 0.3630 -0.3536
vn -0.5253 0.0536 0.8492
vn -0.4662 0.1163 0.8770
vn 0.0885 -0.3437 0.9349
vn -0.5976 -0.0080 0.8018
vn -0.5993 0.0066 0.8005
vn 0.1017 -0.3054 0.9468
vn -0.3999 0.9096 -0.1132
vn -0.4000 0.8873 -0.2295
vn 0.4181 -0.2795 0.8643
vn 0.4384 -0.2793 0.8543
vn 0.4612 -0.1920 0.8662
vn -0.7735 0.5404 -0.3311
vn -0.7176 0.5721 -0.3972
vn -0.5859 0.0119 0.8103
vn 0.4817 -0.4063 0.7765
vn 0.5061 -0.4229 0.7516
vn 0.0776 -0.3432 0.9361
vn 0.1465 -0.7287 0.6690
vn -0.1820 -0.5272 0.8300
vn 0.0775 -0.3679 0.9266
vn -0.0482 0.9763 -0.2111
vn -0.8890 0.3130 -0.3341
vn -0.8925 0.3943 -0.2190
vn 0.9190 -0.3692 0.1381
vn 0.9387 -0.3117 0.1472
vn 0.9224 -0.2147 0.3210
vn 0.8574 -0.1678 0.4865
vn -0.0336 -0.7035 0.7099
vn 0.4403 0.8549 0.2745
vn 0.5429 0.7513 0.3753
vn 0.5245 0.7731 0.3568
vn -0.2219 0.9479 -0.2284
vn 0.1097 -0.0949 0.9894
vn -0.0866 0.9706 -0.2246
vn -0.6036 0.0701 -0.7942
vn -0.2043 -0.2023 0.9578
vn -0.8381 0.5391 0.0827
vn 0.8149 -0.2038 0.5425
vn 0.8195 -0.1567 0.5513
vn 0.3431 0.9213 0.1830
vn -0.4921 0.4846 0.7232
vn -0.3520 0.5927 0.7244
vn -0.3610 0.5533 0.7506
vn 0.5073 -0.4267 0.7487
vn -0.0331 -0.1808 0.9829
vn -0.0353 -0.1813 0.9828
vn -0.0347 -0.1812 0.9829
vn 0.1312 -0.7033 0.6987
vn -0.4296 -0.0120 0.9030
vn -0.2494 -0.1157 0.9615
vn -0.1014 -0.1926 0.9761
vn -0.4597 0.0066 0.8881
vn -0.9568 0.2334 0.1731
vn -0.9564 0.2165 0.1960
vn -0.9554 0.2062 0.2114
vn -0.9413 0.2699 0.2032
vn -0.8347 0.4715 0.2845
vn -0.0325 -0.1807 0.9830
vn -0.8794 0.0793 -0.4694
vn -0.8794 0.0793 -0.4694
vn -0.2937 0.5854 0.7557
vn -0.3824 0.8879 -0.2557
vn -0.4109 0.3029 0.8599
vn -0.4109 0.3029 0.8599
vn -0.4109 0.3029 0.8599
vn -0.8430 0.1456 0.5180
vn -0.8420 0.1459 0.5194
vn -0.7970 0.1027 0.5952
vn -0.8352 0.1091 0.5390
vn -0.3887 0.4048 0.8276
vn -0.8888 0.4395 0.1305
vn -0.8721 0.4516 0.1887
vn -0.8290 0.4893 0.2708
vn -0.7118 -0.1577 0.6845
vn -0.8098 -0.1593 0.5646
vn -0.7582 -0.1589 0.6324
vn -0.7185 0.6499 0.2476
vn -0.7240 0.6258 0.2901
vn -0.3498 -0.5374 0.7674
vn -0.6676 -0.1559 0.7280
vn -0.0368 0.4047 0.9136
vn -0.0368 0.4047 0.9136
vn -0.0368 0.4047 0.9136
vn -0.1262 -0.3772 0.9175
vn -0.0523 -0.3294 0.9428
vn -0.0058 -0.2980 0.9546
vn -0.3236 0.5136 0.7946
vn -0.8101 0.0468 0.5844
vn -0.5124 0.0728 0.8556
vn -0.2974 -0.3933 0.8699
vn -0.3866 -0.3099 0.8686
vn -0.3855 -0.3326 0.8607
vn -0.9823 0.1789 0.0548
vn -0.9785 0.1920 0.0755
vn -0.9485 0.2893 0.1294
vn -0.5663 0.0658 -0.8216
vn -0.6773 0.5345 0.5055
vn 0.0867 -0.2328 0.9687
vn -0.2666 -0.3601 0.8940
vn -0.4757 -0.0629 0.8774
vn -0.2699 -0.2750 0.9228
vn -0.4086 -0.1169 0.9053
vn -0.2159 -0.1663 0.9621
vn -0.8794 0.4297 -0.2048
vn -0.8016 0.5893 0.1011
vn -0.8952 -0.0729 0.4397
vn -0.9864 0.1271 0.1040
vn -0.9544 -0.0814 0.2869
vn -0.8149 -0.2538 0.5210
vn -0.6972 -0.3207 0.6413
vn -0.9973 0.0431 0.0603
vn -0.9956 0.0859 0.0371
vn -0.4687 0.2704 0.8410
vn -0.9077 0.2815 -0.3110
vn -0.8067 -0.0204 0.5907
vn -0.8067 -0.0204 0.5907
vn -0.8067 -0.0204 0.5907
vn -0.3232 0.5696 0.7557
vn -0.7704 0.5204 -0.3683
vn -0.8921 0.2780 -0.3563
vn 0.0385 -0.2863 0.9574
vn 0.2010 -0.1669 0.9653
vn -0.8794 0.0793 -0.4694
vn -0.9675 0.1919 -0.1649
vn -0.8817 0.3244 -0.3425
vn 0.0000 1.0000 0.0000
vn 0.0000 1.0000 0.0000
vn 0.0000 1.0000 0.0000
vn 0.0000 1.0000 0.0000
vn 0.0000 1.0000 0.0000
vn 0.0000 1.0000 0.0000
vn 0.0000 1.0000 0.0000
vn 0.0000 1.0000 0.0000
vn 0.0000 1.0000 0.0000
vn 0.0000 1.0000 0.0000
vn 0.0000 1.0000 0.0000
vn 0.0000 1.0000 0.0000
vn 0.0000 1.0000 0.0000
vn 0.0000 1.0000 0.0000
vn 0.0000 1.0000 0.0000
vn 0.0000 1.0000 0.0000
vn 0.0000 1.0000 0.0000
vn 0.0000 1.0000 0.0000
vn 0.0000 1.0000 0.0000
vn 0.0000 1.0000 0.0000
vn 0.0000 1.0000 0.0000
vn 0.0000 1.0000 0.0000
vn 0.0000 1.0000 0.0000
vn 0.0000 1.0000 0.0000
vn 0.0000 1.0000 0.0000
vn 0.0000 1.0000 0.0000
vn 0.0000 1.0000 0.0000
vn 0.0000 1.0000 0.0000
vn 0.0000 1.0000 0.0000
vn 0.0000 1.0000 0.0000
vn 0.0000 1.0000 0.0000
vn 0.0000 1.0000 0.0000
vn 0.0000 1.0000 0.0000
vn 0.0000 1.0000 0.0000
vn 0.0000 1.0000 0.0000
vn 0.0000 1.0000 0.0000
vn 0.0000 1.0000 0.0000
vn 0.0000 1.0000 0.0000
vn 0.0000 1.0000 0.0000
vn 0.0000 1.0000 0.0000
vn 0.0000 1.0000 0.0000
vn 0.0000 1.0000 0.0000
vn 0.0000 1.0000 0.0000
vn 0.0000 1.0000 0.0000
vn 0.0000 1.0000 0.0000
vn 0.0000 1.0000 0.0000
vn 0.0000 1.0000 0.0000
vn 0.0000 1.0000 0.0000
vn 0.0000 1.0000 0.0000
vn 0.0000 1.0000 0.0000
vn 0.0000 1.0000 0.0000
vn 0.0000 1.0000 0.0000
vn 0.0000 1.0000 0.0000
vn 0.0000 1.0000 0.0000
vn 0.0000 1.0000 0.0000
vn 0.0000 1.0000 0.0000
vn 0.0000 1.0000 0.0000
vn 0.0000 1.0000 0.0000
vn 0.0000 1.0000 0.0000
vn 0.0000 1.0000 0.0000
vn 0.0000 1.0000 0.0000
vn 0.0000 1.0000 0.0000
vn 0.0000 1.0000 0.0000
vn 0.0000 1.0000 0.0000
vn 0.0000 1.0000 0.0000
vn 0.0000 1.0000 0.0000
vn 0.0000 1.0000 0.0000
vn 0.0000 1.0000 0.0000
vn 0.0000 1.0000 0.0000
vn 0.0000 1.0000 0.0000
vn 0.0000 1.0000 0.0000
vn 0.0000 1.0000 0.0000
vn 0.0000 1.0000 0.0000
vn 0.0000 1.0000 0.0000
vn 0.0000 1.0000 0.0000
vn 0.0000 1.0000 0.0000
vn 0.0000 1.0000 0.0000
vn 0.0000 1.0000 0.0000
vn 0.0000 1.0000 0.0000
vn 0.0000 1.0000 0.0000
vn 0.0000 1.0000 0.0000
vn 0.0000 1.0000 0.0000
f 2/2/2 3/3/3 1/1/1
f 4/4/4 3/3/3 2/2/2
f 6/6/6 4/4/4 2/2/2
f 7/7/7 5/5/5 8/8/8
f 9/9/9 10/10/10 11/11/11
f 12/12/12 13/13/13 14/14/14
f 16/16/16 17/17/17 15/15/15
f 18/18/18 19/19/19 20/20/20
f 16/16/16 21/21/21 17/17/17
f 24/24/24 25/25/25 26/26/26
f 9/9/9 11/11/11 27/27/27
f 18/18/18 28/28/28 19/19/19
f 32/32/32 33/33/33 34/34/34
f 14/14/14 22/22/22 12/12/12
f 36/36/36 37/37/37 38/38/38
f 31/31/31 39/39/39 29/29/29
f 40/40/40 41/41/41 18/18/18
f 42/42/42 43/43/43 44/44/44
f 34/34/34 33/33/33 46/46/46
f 41/41/41 47/47/47 18/18/18
f 42/42/42 45/45/45 43/43/43
f 47/47/47 48/48/48 28/28/28
f 49/49/49 50/50/50 51/51/51
f 23/23/23 30/30/30 29/29/29
f 52/52/52 53/53/53 54/54/54
f 42/42/42 55/55/55 45/45/45
f 355/355/355 356/356/356 357/357/357
f 38/38/38 56/56/56 36/36/36
f 358/358/358 355/355/355 357/357/357
f 57/57/57 58/58/58 59/59/59
f 47/47/47 28/28/28 18/18/18
f 52/52/52 54/54/54 60/60/60
f 359/359/359 360/360/360 361/361/361
f 60/60/60 61/61/61 52/52/52
f 41/41/41 62/62/62 47/47/47
f 57/57/57 59/59/59 63/63/63
f 64/64/64 65/65/65 66/66/66
f 67/67/67 34/34/34 46/46/46
f 61/61/61 60/60/60 68/68/68
f 68/68/68 69/69/69 61/61/61
f 70/70/70 55/55/55 42/42/42
f 362/362/362 363/363/363 361/361/361
f 62/62/62 48/48/48 47/47/47
f 71/71/71 72/72/72 73/73/73
f 56/56/56 38/38/38 74/74/74
f 64/64/64 75/75/75 65/65/65
f 76/76/76 77/77/77 78/78/78
f 79/79/79 80/80/80 81/81/81
f 358/358/358 364/364/364 355/355/355
f 77/77/77 76/76/76 82/82/82
f 83/83/83 84/84/84 85/85/85
f 86/86/86 63/63/63 59/59/59
f 238/238/238 237/237/237 236/236/236
f 234/234/234 239/239/239 240/240/240
f 241/241/241 237/237/237 238/238/238
f 85/85/85 87/87/87 88/88/88
f 234/234/234 242/242/242 239/239/239
f 241/241/241 243/243/243 237/237/237
f 362/362/362 360/360/360 365/365/365
f 89/89/89 83/83/83 88/88/88
f 90/90/90 91/91/91 85/85/85
f 90/90/90 72/72/72 92/92/92
f 85/85/85 88/88/88 83/83/83
f 72/72/72 71/71/71 92/92/92
f 240/240/240 239/239/239 244/244/244
f 93/93/93 94/94/94 95/95/95
f 366/366/366 367/367/367 368/368/368
f 363/363/363 362/362/362 369/369/369
f 90/90/90 92/92/92 91/91/91
f 246/246/246 244/244/244 247/247/247
f 85/85/85 91/91/91 87/87/87
f 362/362/362 361/361/361 360/360/360
f 370/370/370 371/371/371 372/372/372
f 93/93/93 96/96/96 94/94/94
f 22/22/22 97/97/97 35/35/35
f 249/249/249 235/235/235 237/237/237
f 246/246/246 240/240/240 244/244/244
f 92/92/92 98/98/98 91/91/91
f 373/373/373 374/374/374 375/375/375
f 246/246/246 247/247/247 250/250/250
f 376/376/376 377/377/377 378/378/378
f 252/252/252 253/253/253 254/254/254
f 255/255/255 256/256/256 245/245/245
f 257/257/257 254/254/254 248/248/248
f 257/257/257 248/248/248 251/251/251
f 71/71/71 98/98/98 92/92/92
f 379/379/379 380/380/380 381/381/381
f 250/250/250 247/247/247 258/258/258
f 99/99/99 100/100/100 101/101/101
f 259/259/259 254/254/254 257/257/257
f 262/262/262 263/263/263 264/264/264
f 382/382/382 365/365/365 360/360/360
f 374/374/374 383/383/383 384/384/384
f 385/385/385 386/386/386 387/387/387
f 252/252/252 254/254/254 259/259/259
f 373/373/373 388/388/388 389/389/389
f 390/390/390 391/391/391 392/392/392
f 265/265/265 261/261/261 260/260/260
f 256/256/256 255/255/255 266/266/266
f 379/379/379 381/381/381 393/393/393
f 394/394/394 369/369/369 362/362/362
f 362/362/362 395/395/395 396/396/396
f 397/397/397 398/398/398 399/399/399
f 400/400/400 401/401/401 402/402/402
f 102/102/102 103/103/103 104/104/104
f 403/403/403 404/404/404 405/405/405
f 399/399/399 398/398/398 406/406/406
f 407/407/407 408/408/408 409/409/409
f 401/401/401 410/410/410 402/402/402
f 379/379/379 411/411/411 380/380/380
f 401/401/401 412/412/412 410/410/410
f 87/87/87 91/91/91 105/105/105
f 267/267/267 268/268/268 269/269/269
f 413/413/413 414/414/414 415/415/415
f 71/71/71 106/106/106 98/98/98
f 406/406/406 416/416/416 399/399/399
f 377/377/377 417/417/417 378/378/378
f 418/418/418 369/369/369 394/394/394
f 98/98/98 107/107/107 105/105/105
f 267/267/267 269/269/269 270/270/270
f 105/105/105 91/91/91 98/98/98
f 420/420/420 421/421/421 403/403/403
f 422/422/422 423/423/423 424/424/424
f 425/425/425 422/422/422 424/424/424
f 403/403/403 421/421/421 404/404/404
f 426/426/426 427/427/427 428/428/428
f 400/400/400 402/402/402 429/429/429
f 270/270/270 271/271/271 272/272/272
f 430/430/430 431/431/431 432/432/432
f 415/415/415 414/414/414 433/433/433
f 369/369/369 418/418/418 434/434/434
f 377/377/377 435/435/435 436/436/436
f 437/437/437 438/438/438 439/439/439
f 108/108/108 107/107/107 98/98/98
f 88/88/88 87/87/87 109/109/109
f 273/273/273 274/274/274 275/275/275
f 436/436/436 440/440/440 441/441/441
f 442/442/442 443/443/443 444/444/444
f 430/430/430 445/445/445 431/431/431
f 446/446/446 379/379/379 393/393/393
f 110/110/110 111/111/111 112/112/112
f 113/113/113 114/114/114 115/115/115
f 448/448/448 449/449/449 427/427/427
f 436/436/436 417/417/417 377/377/377
f 436/436/436 441/441/441 417/417/417
f 450/450/450 362/362/362 365/365/365
f 112/112/112 111/111/111 116/116/116
f 451/451/451 377/377/377 452/452/452
f 451/451/451 435/435/435 377/377/377
f 421/421/421 420/420/420 453/453/453
f 117/117/117 113/113/113 115/115/115
f 375/375/375 388/388/388 373/373/373
f 118/118/118 106/106/106 71/71/71
f 450/450/450 365/365/365 454/454/454
f 395/395/395 362/362/362 450/450/450
f 455/455/455 445/445/445 430/430/430
f 393/393/393 456/456/456 446/446/446
f 113/113/113 117/117/117 119/119/119
f 105/105/105 107/107/107 120/120/120
f 438/438/438 437/437/437 457/457/457
f 374/374/374 459/459/459 375/375/375
f 460/460/460 461/461/461 462/462/462
f 114/114/114 113/113/113 121/121/121
f 463/463/463 464/464/464 465/465/465
f 273/273/273 276/276/276 274/274/274
f 434/434/434 418/418/418 466/466/466
f 445/445/445 455/455/455 467/467/467
f 467/467/467 468/468/468 445/445/445
f 465/465/465 464/464/464 469/469/469
f 423/423/423 470/470/470 471/471/471
f 424/424/424 423/423/423 471/471/471
f 120/120/120 107/107/107 122/122/122
f 473/473/473 474/474/474 475/475/475
f 118/118/118 123/123/123 106/106/106
f 459/459/459 374/374/374 384/384/384
f 278/278/278 279/279/279 280/280/280
f 476/476/476 477/477/477 478/478/478
f 124/124/124 125/125/125 126/126/126
f 281/281/281 267/267/267 270/270/270
f 108/108/108 127/127/127 107/107/107
f 276/276/276 273/273/273 282/282/282
f 459/459/459 384/384/384 472/472/472
f 283/283/283 284/284/284 285/285/285
f 126/126/126 128/128/128 129/129/129
f 130/130/130 131/131/131 132/132/132
f 479/479/479 434/434/434 466/466/466
f 113/113/113 119/119/119 121/121/121
f 286/286/286 268/268/268 267/267/267
f 133/133/133 134/134/134 135/135/135
f 136/136/136 137/137/137 138/138/138
f 468/468/468 467/467/467 480/480/480
f 482/482/482 483/483/483 484/484/484
f 272/272/272 281/281/281 270/270/270
f 140/140/140 134/134/134 133/133/133
f 136/136/136 142/142/142 137/137/137
f 485/485/485 486/486/486 487/487/487
f 472/472/472 447/447/447 458/458/458
f 143/143/143 135/135/135 134/134/134
f 287/287/287 276/276/276 282/282/282
f 128/128/128 126/126/126 125/125/125
f 488/488/488 489/489/489 482/482/482
f 490/490/490 491/491/491 492/492/492
f 122/122/122 107/107/107 127/127/127
f 144/144/144 130/130/130 132/132/132
f 288/288/288 289/289/289 290/290/290
f 449/449/449 448/448/448 485/485/485
f 291/291/291 292/292/292 293/293/293
f 141/141/141 145/145/145 146/146/146
f 127/127/127 147/147/147 122/122/122
f 477/477/477 476/476/476 493/493/493
f 132/132/132 148/148/148 144/144/144
f 149/149/149 150/150/150 151/151/151
f 494/494/494 481/481/481 419/419/419
f 434/434/434 479/479/479 495/495/495
f 152/152/152 153/153/153 154/154/154
f 485/485/485 496/496/496 497/497/497
f 498/498/498 493/493/493 476/476/476
f 289/289/289 294/294/294 290/290/290
f 485/485/485 487/487/487 496/496/496
f 295/295/295 296/296/296 297/297/297
f 291/291/291 298/298/298 292/292/292
f 132/132/132 155/155/155 148/148/148
f 151/151/151 156/156/156 149/149/149
f 299/299/299 298/298/298 291/291/291
f 134/134/134 157/157/157 143/143/143
f 482/482/482 489/489/489 483/483/483
f 300/300/300 299/299/299 291/291/291
f 158/158/158 159/159/159 160/160/160
f 293/293/293 292/292/292 301/301/301
f 161/161/161 162/162/162 163/163/163
f 498/498/498 499/499/499 493/493/493
f 164/164/164 156/156/156 151/151/151
f 165/165/165 166/166/166 150/150/150
f 498/498/498 502/502/502 499/499/499
f 503/503/503 504/504/504 505/505/505
f 295/295/295 302/302/302 296/296/296
f 150/150/150 166/166/166 151/151/151
f 303/303/303 304/304/304 305/305/305
f 167/167/167 168/168/168 169/169/169
f 170/170/170 171/171/171 172/172/172
f 306/306/306 293/293/293 301/301/301
f 305/305/305 304/304/304 307/307/307
f 173/173/173 161/161/161 163/163/163
f 505/505/505 506/506/506 503/503/503
f 144/144/144 148/148/148 174/174/174
f 489/489/489 507/507/507 483/483/483
f 506/506/506 508/508/508 503/503/503
f 175/175/175 176/176/176 177/177/177
f 178/178/178 179/179/179 180/180/180
f 449/449/449 485/485/485 497/497/497
f 509/509/509 510/510/510 511/511/511
f 181/181/181 182/182/182 183/183/183
f 175/175/175 184/184/184 176/176/176
f 185/185/185 183/183/183 182/182/182
f 510/510/510 512/512/512 511/511/511
f 508/508/508 506/506/506 513/513/513
f 309/309/309 310/310/310 311/311/311
f 497/497/497 496/496/496 515/515/515
f 141/141/141 146/146/146 139/139/139
f 186/186/186 187/187/187 167/167/167
f 516/516/516 517/517/517 484/484/484
f 518/518/518 519/519/519 520/520/520
f 167/167/167 169/169/169 186/186/186
f 516/516/516 484/484/484 483/483/483
f 521/521/521 520/520/520 519/519/519
f 277/277/277 308/308/308 312/312/312
f 522/522/522 523/523/523 524/524/524
f 188/188/188 184/184/184 175/175/175
f 525/525/525 526/526/526 527/527/527
f 313/313/313 314/314/314 315/315/315
f 501/501/501 500/500/500 528/528/528
f 529/529/529 530/530/530 531/531/531
f 516/516/516 483/483/483 532/532/532
f 497/497/497 515/515/515 534/534/534
f 483/483/483 507/507/507 532/532/532
f 179/179/179 189/189/189 180/180/180
f 190/190/190 148/148/148 191/191/191
f 190/190/190 174/174/174 148/148/148
f 192/192/192 190/190/190 191/191/191
f 310/310/310 294/294/294 311/311/311
f 211/211/211 212/212/212 213/213/213
f 210/210/210 209/209/209 214/214/214
f 193/193/193 175/175/175 177/177/177
f 194/194/194 195/195/195 196/196/196
f 197/197/197 198/198/198 199/199/199
f 195/195/195 194/194/194 200/200/200
f 537/537/537 514/514/514 536/536/536
f 211/211/211 213/213/213 216/216/216
f 201/201/201 198/198/198 197/197/197
f 317/317/317 290/290/290 294/294/294
f 139/139/139 146/146/146 202/202/202
f 318/318/318 319/319/319 320/320/320
f 538/538/538 539/539/539 540/540/540
f 533/533/533 541/541/541 535/535/535
f 531/531/531 542/542/542 529/529/529
f 516/516/516 532/532/532 662/662/662
f 516/516/516 662/662/662 663/663/663
f 294/294/294 310/310/310 317/317/317
f 540/540/540 539/539/539 543/543/543
f 546/546/546 537/537/537 536/536/536
f 203/203/203 198/198/198 201/201/201
f 544/544/544 547/547/547 548/548/548
f 310/310/310 309/309/309 321/321/321
f 546/546/546 549/549/549 528/528/528
f 531/531/531 550/550/550 551/551/551
f 552/552/552 553/553/553 554/554/554
f 662/662/662 532/532/532 555/555/555
f 547/547/547 544/544/544 545/545/545
f 662/662/662 555/555/555 556/556/556
f 548/548/548 547/547/547 557/557/557
f 553/553/553 558/558/558 559/559/559
f 219/219/219 218/218/218 207/207/207
f 217/217/217 215/215/215 220/220/220
f 325/325/325 326/326/326 327/327/327
f 325/325/325 316/316/316 322/322/322
f 326/326/326 328/328/328 327/327/327
f 553/553/553 552/552/552 558/558/558
f 549/549/549 546/546/546 560/560/560
f 561/561/561 562/562/562 501/501/501
f 326/326/326 325/325/325 329/329/329
f 563/563/563 528/528/528 549/549/549
f 531/531/531 564/564/564 542/542/542
f 528/528/528 563/563/563 501/501/501
f 543/543/543 565/565/565 566/566/566
f 216/216/216 221/221/221 208/208/208
f 213/213/213 222/222/222 216/216/216
f 567/567/567 568/568/568 569/569/569
f 570/570/570 569/569/569 568/568/568
f 565/565/565 543/543/543 539/539/539
f 536/536/536 560/560/560 546/546/546
f 223/223/223 224/224/224 225/225/225
f 216/216/216 226/226/226 221/221/221
f 175/175/175 193/193/193 204/204/204
f 572/572/572 573/573/573 574/574/574
f 333/333/333 323/323/323 335/335/335
f 219/219/219 227/227/227 218/218/218
f 324/324/324 334/334/334 336/336/336
f 575/575/575 564/564/564 531/531/531
f 195/195/195 200/200/200 205/205/205
f 664/664/664 576/576/576 665/665/665
f 322/322/322 329/329/329 325/325/325
f 577/577/577 564/564/564 575/575/575
f 339/339/339 340/340/340 341/341/341
f 539/539/539 578/578/578 565/565/565
f 337/337/337 343/343/343 338/338/338
f 579/579/579 665/665/665 576/576/576
f 565/565/565 580/580/580 566/566/566
f 570/570/570 581/581/581 582/582/582
f 570/570/570 582/582/582 569/569/569
f 226/226/226 228/228/228 229/229/229
f 572/572/572 574/574/574 583/583/583
f 223/223/223 225/225/225 230/230/230
f 584/584/584 585/585/585 586/586/586
f 344/344/344 333/333/333 345/345/345
f 558/558/558 587/587/587 559/559/559
f 195/195/195 205/205/205 206/206/206
f 226/226/226 229/229/229 221/221/221
f 231/231/231 223/223/223 230/230/230
f 588/588/588 589/589/589 590/590/590
f 344/344/344 345/345/345 329/329/329
f 562/562/562 561/561/561 591/591/591
f 592/592/592 593/593/593 594/594/594
f 326/326/326 329/329/329 328/328/328
f 593/593/593 592/592/592 595/595/595
f 345/345/345 333/333/333 335/335/335
f 346/346/346 342/342/342 332/332/332
f 219/219/219 232/232/232 227/227/227
f 233/233/233 222/222/222 213/213/213
f 340/340/340 347/347/347 348/348/348
f 596/596/596 597/597/597 598/598/598
f 340/340/340 348/348/348 341/341/341
f 349/349/349 330/330/330 331/331/331
f 596/596/596 599/599/599 600/600/600
f 588/588/588 590/590/590 601/601/601
f 666/666/666 602/602/602 603/603/603
f 604/604/604 586/586/586 585/585/585
f 571/571/571 501/501/501 562/562/562
f 596/596/596 600/600/600 597/597/597
f 531/531/531 605/605/605 575/575/575
f 606/606/606 607/607/607 608/608/608
f 609/609/609 610/610/610 611/611/611
f 337/337/337 354/354/354 343/343/343
f 611/611/611 612/612/612 609/609/609
f 345/345/345 350/350/350 329/329/329
f 586/586/586 604/604/604 613/613/613
f 614/614/614 600/600/600 615/615/615
f 614/614/614 616/616/616 600/600/600
f 617/617/617 618/618/618 619/619/619
f 620/620/620 600/600/600 621/621/621
f 622/622/622 571/571/571 562/562/562
f 619/619/619 623/623/623 617/617/617
f 624/624/624 625/625/625 626/626/626
f 599/599/599 615/615/615 600/600/600
f 627/627/627 628/628/628 629/629/629
f 604/604/604 630/630/630 613/613/613
f 631/631/631 612/612/612 611/611/611
f 631/631/631 611/611/611 632/632/632
f 633/633/633 634/634/634 635/635/635
f 636/636/636 637/637/637 638/638/638
f 578/578/578 639/639/639 565/565/565
f 600/600/600 640/640/640 621/621/621
f 628/628/628 641/641/641 629/629/629
f 329/329/329 350/350/350 328/328/328
f 633/633/633 635/635/635 642/642/642
f 632/632/632 611/611/611 643/643/643
f 605/605/605 531/531/531 551/551/551
f 644/644/644 645/645/645 634/634/634
f 646/646/646 579/579/579 576/576/576
f 616/616/616 614/614/614 638/638/638
f 622/622/622 562/562/562 579/579/579
f 647/647/647 648/648/648 580/580/580
f 616/616/616 640/640/640 600/600/600
f 649/649/649 650/650/650 636/636/636
f 351/351/351 354/354/354 337/337/337
f 651/651/651 652/652/652 653/653/653
f 636/636/636 650/650/650 637/637/637
f 652/652/652 651/651/651 654/654/654
f 637/637/637 616/616/616 638/638/638
f 352/352/352 348/348/348 347/347/347
f 579/579/579 646/646/646 622/622/622
f 349/349/349 353/353/353 330/330/330
f 635/635/635 645/645/645 643/643/643
f 654/654/654 651/651/651 655/655/655
f 613/613/613 630/630/630 656/656/656
f 634/634/634 645/645/645 635/635/635
f 657/657/657 654/654/654 667/667/667
f 658/658/658 659/659/659 660/660/660
f 630/630/630 604/604/604 661/661/661
f 643/643/643 645/645/645 632/632/632
f 580/580/580 565/565/565 647/647/647
f 647/647/647 565/565/565 668/668/668
f 654/654/654 655/655/655 667/667/667
f 669/669/669 670/670/670 671/671/671
f 669/669/669 671/671/671 670/670/670
f 669/669/669 671/671/671 672/672/672
f 669/669/669 672/672/672 671/671/671
f 669/669/669 672/672/672 673/673/673
f 669/669/669 673/673/673 672/672/672
f 669/669/669 673/673/673 674/674/674
f 669/669/669 674/674/674 673/673/673
f 669/669/669 674/674/674 675/675/675
f 669/669/669 675/675/675 674/674/674
f 669/669/669 675/675/675 676/676/676
f 669/669/669 676/676/676 675/675/675
f 669/669/669 676/676/676 677/677/677
f 669/669/669 677/677/677 676/676/676
f 669/669/669 677/677/677 678/678/678
f 669/669/669 678/678/678 677/677/677
f 669/669/669 678/678/678 679/679/679
f 669/669/669 679/679/679 678/678/678
f 669/669/669 679/679/679 680/680/680
f 669/669/669 680/680/680 679/679/679
f 669/669/669 680/680/680 681/681/681
f 669/669/669 681/681/681 680/680/680
f 669/669/669 681/681/681 682/682/682
f 669/669/669 682/682/682 681/681/681
f 669/669/669 682/682/682 683/683/683
f 669/669/669 683/683/683 682/682/682
f 669/669/669 683/683/683 684/684/684
f 669/669/669 684/684/684 683/683/683
f 669/669/669 684/684/684 685/685/685
f 669/669/669 685/685/685 684/684/684
f 669/669/669 685/685/685 686/686/686
f 669/669/669 686/686/686 685/685/685
f 669/669/669 686/686/686 687/687/687
f 669/669/669 687/687/687 686/686/686
f 669/669/669 687/687/687 688/688/688
f 669/669/669 688/688/688 687/687/687
f 669/669/669 688/688/688 689/689/689
f 669/669/669 689/689/689 688/688/688
f 669/669/669 689/689/689 690/690/690
f 669/669/669 690/690/690 689/689/689
f 669/669/669 690/690/690 691/691/691
f 669/669/669 691/691/691 690/690/690
f 669/669/669 691/691/691 692/692/692
f 669/669/669 692/692/692 691/691/691
f 669/669/669 692/692/692 693/693/693
f 669/669/669 693/693/693 692/692/692
f 669/669/669 693/693/693 694/694/694
f 669/669/669 694/694/694 693/693/693
f 669/669/669 694/694/694 695/695/695
f 669/669/669 695/695/695 694/694/694
f 669/669/669 695/695/695 696/696/696
f 669/669/669 696/696/696 695/695/695
f 669/669/669 696/696/696 697/697/697
f 669/669/669 697/697/697 696/696/696
f 669/669/669 697/697/697 698/698/698
f 669/669/669 698/698/698 697/697/697
f 669/669/669 698/698/698 699/699/699
f 669/669/669 699/699/699 698/698/698
f 669/669/669 699/699/699 700/700/700
f 669/669/669 700/700/700 699/699/699
f 669/669/669 700/700/700 701/701/701
f 669/669/669 701/701/701 700/700/700
f 669/669/669 701/701/701 702/702/702
f 669/669/669 702/702/702 701/701/701
f 669/669/669 702/702/702 703/703/703
f 669/669/669 703/703/703 702/702/702
f 669/669/669 703/703/703 704/704/704
f 669/669/669 704/704/704 703/703/703
f 669/669/669 704/704/704 705/705/705
f 669/669/669 705/705/705 704/704/704
f 669/669/669 705/705/705 706/706/706
f 669/669/669 706/706/706 705/705/705
f 669/669/669 706/706/706 707/707/707
f 669/669/669 707/707/707 706/706/706
f 669/669/669 707/707/707 708/708/708
f 669/669/669 708/708/708 707/707/707
f 669/669/669 708/708/708 709/709/709
f 669/669/669 709/709/709 708/708/708
f 669/669/669 709/709/709 710/710/710
f 669/669/669 710/710/710 709/709/709
f 669/669/669 710/710/710 711/711/711
f 669/669/669 711/711/711 710/710/710
f 669/669/669 711/711/711 712/712/712
f 669/669/669 712/712/712 711/711/711
f 669/669/669 712/712/712 713/713/713
f 669/669/669 713/713/713 712/712/712
f 669/669/669 713/713/713 714/714/714
f 669/669/669 714/714/714 713/713/713
f 669/669/669 714/714/714 715/715/715
f 669/669/669 715/715/715 714/714/714
f 669/669/669 715/715/715 716/716/716
f 669/669/669 716/716/716 715/715/715
f 669/669/669 716/716/716 717/717/717
f 669/669/669 717/717/717 716/716/716
f 669/669/669 717/717/717 670/670/670
f 669/669/669 670/670/670 717/717/717
f 718/718/718 719/719/719 720/720/720
f 718/718/718 720/720/720 719/719/719
f 718/718/718 720/720/720 721/721/721
f 718/718/718 721/721/721 720/720/720
f 718/718/718 721/721/721 722/722/722
f 718/718/718 722/722/722 721/721/721
f 718/718/718 722/722/722 723/723/723
f 718/718/718 723/723/723 722/722/722
f 718/718/718 723/723/723 724/724/724
f 718/718/718 724/724/724 723/723/723
f 718/718/718 724/724/724 725/725/725
f 718/718/718 725/725/725 724/724/724
f 718/718/718 725/725/725 726/726/726
f 718/718/718 726/726/726 725/725/725
f 718/718/718 726/726/726 727/727/727
f 718/718/718 727/727/727 726/726/726
f 718/718/718 727/727/727 728/728/728
f 718/718/718 728/728/728 727/727/727
f 718/718/718 728/728/728 729/729/729
f 718/718/718 729/729/729 728/728/728
f 718/718/718 729/729/729 730/730/730
f 718/718/718 730/730/730 729/729/729
f 718/718/718 730/730/730 731/731/731
f 718/718/718 731/731/731 730/730/730
f 718/718/718 731/731/731 732/732/732
f 718/718/718 732/732/732 731/731/731
f 718/718/718 732/732/732 733/733/733
f 718/718/718 733/733/733 732/732/732
f 718/718/718 733/733/733 734/734/734
f 718/718/718 734/734/734 733/733/733
f 718/718/718 734/734/734 735/735/735
f 718/718/718 735/735/735 734/734/734
f 718/718/718 735/735/735 736/736/736
f 718/718/718 736/736/736 735/735/735
f 718/718/718 736/736/736 737/737/737
f 718/718/718 737/737/737 736/736/736
f 718/718/718 737/737/737 738/738/738
f 718/718/718 738/738/738 737/737/737
f 718/718/718 738/738/738 739/739/739
f 718/718/718 739/739/739 738/738/738
f 718/718/718 739/739/739 740/740/740
f 718/718/718 740/740/740 739/739/739
f 718/718/718 740/740/740 741/741/741
f 718/718/718 741/741/741 740/740/740
f 718/718/718 741/741/741 742/742/742
f 718/718/718 742/742/742 741/741/741
f 718/718/718 742/742/742 743/743/743
f 718/718/718 743/743/743 742/742/742
f 718/718/718 743/743/743 744/744/744
f 718/718/718 744/744/744 743/743/743
f 718/718/718 744/744/744 745/745/745
f 718/718/718 745/745/745 744/744/744
f 718/718/718 745/745/745 746/746/746
f 718/718/718 746/746/746 745/745/745
f 718/718/718 746/746/746 747/747/747
f 718/718/718 747/747/747 746/746/746
f 718/718/718 747/747/747 748/748/748
f 718/718/718 748/748/748 747/747/747
f 718/718/718 748/748/748 749/749/749
f 718/718/718 749/749/749 748/748/748
f 718/718/718 749/749/749 750/750/750
f 718/718/718 750/750/750 749/749/749
f 718/718/718 750/750/750 719/719/719
f 718/718/718 719/719/719 750/750/750
