o forearm_right
v 2.57808 1.94972 -4.80289
v 2.53075 1.82370 -5.07942
v 2.53789 2.04897 -5.00941
v 2.54879 1.52719 -4.86143
v 2.54194 2.23446 -4.92278
v 2.54644 2.22939 -4.93989
v 2.57661 2.46940 -4.66422
v 2.60011 1.95723 -4.79932
v 2.54194 2.23446 -4.92278
v 2.60011 1.95723 -4.79932
v 2.57808 1.94972 -4.80289
v 2.54194 2.23446 -4.92278
v 2.52830 2.35635 -4.95777
v 2.64306 1.84921 -4.37557
v 2.52830 2.35635 -4.95777
v 2.54194 2.23446 -4.92278
v 2.44167 2.23051 -4.91611
v 2.54194 2.23446 -4.92278
v 2.54644 2.22939 -4.93989
v 2.44167 2.23051 -4.91611
v 2.53075 1.82370 -5.07942
v 2.26350 1.68669 -4.96392
v 2.25452 1.85695 -5.07697
v 2.60011 1.95723 -4.79932
v 2.59989 2.03171 -4.52557
v 2.57808 1.94972 -4.80289
v 2.61205 1.49797 -4.49470
v 2.29347 1.50345 -4.52028
v 2.54879 1.52719 -4.86143
v 2.57808 1.94972 -4.80289
v 2.60888 1.86979 -4.47960
v 2.64306 1.84921 -4.37557
v 2.53075 1.82370 -5.07942
v 2.25452 1.85695 -5.07697
v 2.53789 2.04897 -5.00941
v 2.57808 1.94972 -4.80289
v 2.59989 2.03171 -4.52557
v 2.60888 1.86979 -4.47960
v 2.26084 2.22841 -4.90650
v 2.61843 2.20942 -4.57286
v 2.63938 2.03837 -4.53334
v 2.61205 1.49797 -4.49470
v 2.26084 2.22841 -4.90650
v 2.63938 2.03837 -4.53334
v 2.27810 1.52913 -4.85444
v 2.57661 2.46940 -4.66422
v 2.56238 2.19686 -4.53582
v 2.61843 2.20942 -4.57286
v 2.44770 1.50073 -4.47699
v 2.58114 2.54944 -4.61711
v 2.63383 2.61003 -4.42087
v 2.56191 2.43573 -4.63682
v 2.59407 2.16706 -4.53739
v 2.56191 2.43573 -4.63682
v 2.24911 2.22035 -4.95087
v 2.63938 2.03837 -4.53334
v 2.57734 2.25001 -4.46110
v 2.59407 2.16706 -4.53739
v 2.59989 2.03171 -4.52557
v 2.63938 2.03837 -4.53334
v 2.54879 1.52719 -4.86143
v 2.24911 2.22035 -4.95087
v 2.54644 2.22939 -4.93989
v 2.24490 1.93606 -4.79089
v 2.24911 2.22035 -4.95087
v 2.25452 1.85695 -5.07697
v 2.58114 2.54944 -4.61711
v 2.56191 2.43573 -4.63682
v 2.44906 2.44641 -4.62685
v 2.52830 2.35635 -4.95777
v 2.19473 2.33488 -4.92413
v 2.57661 2.46940 -4.66422
v 2.59407 2.16706 -4.53739
v 2.56238 2.19686 -4.53582
v 2.57661 2.46940 -4.66422
v 2.44906 2.44641 -4.62685
v 2.56191 2.43573 -4.63682
v 2.26350 1.68669 -4.96392
v 2.19473 2.33488 -4.92413
v 2.27810 1.52913 -4.85444
v 2.59407 2.16706 -4.53739
v 2.56238 2.19686 -4.53582
v 2.57734 2.25001 -4.46110
v 2.27810 1.52913 -4.85444
v 2.61168 1.84519 -4.36642
v 2.61168 1.84519 -4.36642
v 2.61168 1.84519 -4.36642
v 2.61205 1.49797 -4.49470
v 2.64306 1.84921 -4.37557
v 2.31150 2.44939 -4.61446
v 2.26084 2.22841 -4.90650
v 2.26070 1.81722 -4.37939
v 2.22026 1.94631 -4.78954
v 2.68634 2.67936 -4.17939
v 2.24490 1.93606 -4.79089
v 2.25061 2.46811 -4.62596
v 2.31150 2.44939 -4.61446
v 2.61565 2.01454 -4.10315
v 2.67465 2.55583 -4.16212
v 2.33523 1.95484 -4.73193
v 2.22026 1.94631 -4.78954
v 2.24490 1.93606 -4.79089
v 2.63383 2.61003 -4.42087
v 2.53931 2.67217 -4.17966
v 2.68634 2.67936 -4.17939
v 2.25061 2.46811 -4.62596
v 2.33523 1.95484 -4.73193
v 2.31425 1.91306 -4.64543
v 2.30333 1.99070 -4.58463
v 2.24490 1.93606 -4.79089
v 2.31425 1.91306 -4.64543
v 2.33523 1.95484 -4.73193
v 2.44770 1.50073 -4.47699
v 2.22026 1.94631 -4.78954
v 2.33523 1.95484 -4.73193
v 2.30333 1.99070 -4.58463
v 2.62112 2.18136 -4.14752
v 2.19473 2.33488 -4.92413
v 2.22026 1.94631 -4.78954
v 2.24743 2.43588 -4.60161
v 2.17516 2.51823 -4.59836
v 2.29757 1.89753 -4.56230
v 2.24479 1.99567 -4.55075
v 2.68634 2.67936 -4.17939
v 2.53931 2.67217 -4.17966
v 2.58168 2.64850 -4.14265
v 2.58114 2.54944 -4.61711
v 2.23442 2.55122 -4.40130
v 2.67465 2.55583 -4.16212
v 2.68634 2.67936 -4.17939
v 2.58168 2.64850 -4.14265
v 2.29757 1.89753 -4.56230
v 2.57947 2.53984 -4.12907
v 2.62112 2.18136 -4.14752
v 2.58779 2.21278 -4.13806
v 2.61565 2.01454 -4.10315
v 2.59255 2.38693 -4.13844
v 2.61168 1.84519 -4.36642
v 2.61565 2.01454 -4.10315
v 2.43763 2.01217 -4.08614
v 2.57744 2.05862 -4.10089
v 2.25061 2.46811 -4.62596
v 2.25514 1.85830 -4.39535
v 2.29400 1.58582 -4.46460
v 2.59255 2.38693 -4.13844
v 2.57947 2.53984 -4.12907
v 2.61037 2.47767 -4.07904
v 2.24743 2.43588 -4.60161
v 2.23421 2.09668 -4.56292
v 2.24743 2.43588 -4.60161
v 2.26659 2.02604 -4.44300
v 2.59720 2.48068 -4.07227
v 2.61037 2.47767 -4.07904
v 2.57947 2.53984 -4.12907
v 2.58779 2.21278 -4.13806
v 2.29347 1.50345 -4.52028
v 2.65101 2.58115 -4.02711
v 2.59720 2.48068 -4.07227
v 2.58168 2.64850 -4.14265
v 2.57947 2.53984 -4.12907
v 2.25514 1.85830 -4.39535
v 2.43763 2.01217 -4.08614
v 2.17516 2.51823 -4.59836
v 2.53931 2.67217 -4.17966
v 2.50530 2.69061 -4.16299
v 2.51212 2.69434 -4.13700
v 2.65101 2.58115 -4.02711
v 2.24479 1.99567 -4.55075
v 2.29347 1.50345 -4.52028
v 2.65101 2.58115 -4.02711
v 2.51212 2.69434 -4.13700
v 2.55723 2.96902 -4.02974
v 2.65101 2.58115 -4.02711
v 2.66646 2.30729 -3.89265
v 2.67936 2.22631 -3.81538
v 2.57744 2.05862 -4.10089
v 2.58600 2.41400 -3.98514
v 2.70821 2.89159 -3.83799
v 2.26659 2.02604 -4.44300
v 2.26070 1.81722 -4.37939
v 2.23421 2.09668 -4.56292
v 2.14259 2.08291 -4.55417
v 2.23421 2.09668 -4.56292
v 2.26165 2.07245 -4.42333
v 2.14259 2.08291 -4.55417
v 2.26070 1.81722 -4.37939
v 2.29400 1.58582 -4.46460
v 2.66646 2.30729 -3.89265
v 2.57653 2.34529 -3.89677
v 2.50864 2.21745 -3.86553
v 2.57744 2.05862 -4.10089
v 2.67936 2.22631 -3.81538
v 2.26165 2.07245 -4.42333
v 2.45403 2.63434 -4.15382
v 2.23442 2.55122 -4.40130
v 2.17516 2.51823 -4.59836
v 2.14259 2.08291 -4.55417
v 2.45403 2.63434 -4.15382
v 2.50530 2.69061 -4.16299
v 2.53931 2.67217 -4.17966
v 2.51212 2.69434 -4.13700
v 2.50530 2.69061 -4.16299
v 2.42772 2.67460 -4.04265
v 1.94316 2.09145 -4.81163
v 1.87508 2.10249 -5.03719
v 1.93673 2.22493 -4.88675
v 1.73714 1.59935 -5.17363
v 1.84687 1.96955 -5.00050
v 1.87120 1.98754 -4.96855
v 2.57818 2.22640 -3.82614
v 1.91284 1.95820 -4.87285
v 2.58600 2.41400 -3.98514
v 2.59720 2.48068 -4.07227
v 2.62135 2.44668 -3.76429
v 1.52420 2.19320 -4.85538
v 1.93673 2.22493 -4.88675
v 1.87508 2.10249 -5.03719
v 2.25311 2.04770 -4.09279
v 2.67936 2.22631 -3.81538
v 2.58664 2.26169 -3.81131
v 2.65101 2.58115 -4.02711
v 2.42772 2.67460 -4.04265
v 2.50530 2.69061 -4.16299
v 2.38378 2.67858 -4.02477
v 1.92560 1.32300 -4.78901
v 2.70821 2.89159 -3.83799
v 2.70762 2.84900 -3.74658
v 2.31090 2.58353 -4.13434
v 2.00196 2.20220 -4.67878
v 2.64255 2.23581 -3.80181
v 2.55723 2.96902 -4.02974
v 2.51212 2.69434 -4.13700
v 2.43159 3.07575 -3.87007
v 2.16982 2.06955 -4.37582
v 2.21769 2.04512 -4.21897
v 2.16982 2.06955 -4.37582
v 2.57653 2.34529 -3.89677
v 1.94316 2.09145 -4.81163
v 2.00196 2.20220 -4.67878
v 2.07499 2.28278 -4.56973
v 2.07499 2.28278 -4.56973
v 2.64255 2.23581 -3.80181
v 2.50530 2.69061 -4.16299
v 2.45403 2.63434 -4.15382
v 2.38378 2.67858 -4.02477
v 1.99329 2.34188 -4.73278
v 2.04360 1.58879 -4.61547
v 2.08435 1.68749 -4.54719
v 2.00089 2.25278 -4.61447
v 2.64255 2.23581 -3.80181
v 2.58664 2.26169 -3.81131
v 2.57818 2.22640 -3.82614
v 2.17551 2.10515 -4.35977
v 2.19806 1.93322 -4.28376
v 2.71983 2.78006 -3.57935
v 2.41951 2.23328 -3.84984
v 2.21769 2.04512 -4.21897
v 2.18532 2.06068 -4.34251
v 1.99329 2.34188 -4.73278
v 2.00089 2.25278 -4.61447
v 2.16982 2.06955 -4.37582
v 2.17551 2.10515 -4.35977
v 2.21077 2.10948 -4.21935
v 1.99329 2.34188 -4.73278
v 1.97401 2.30981 -4.66646
v 2.00089 2.25278 -4.61447
v 2.62242 2.35906 -3.45560
v 2.57818 2.22640 -3.82614
v 2.57573 2.16458 -3.74690
v 2.50864 2.21745 -3.86553
v 2.31090 2.58353 -4.13434
v 2.35238 2.54779 -4.11320
v 2.45403 2.63434 -4.15382
v 2.23913 2.36479 -4.25921
v 2.31090 2.58353 -4.13434
v 1.84687 1.96955 -5.00050
v 1.73714 1.59935 -5.17363
v 1.36484 1.64828 -4.98572
v 2.24186 2.01765 -4.08928
v 2.11150 2.35661 -4.48537
v 1.92560 1.32300 -4.78901
v 1.55034 1.36087 -4.61830
v 1.42528 1.53679 -4.84536
v 1.89642 2.36055 -4.64639
v 2.11150 2.35661 -4.48537
v 2.06414 2.36555 -4.46170
v 2.35238 2.54779 -4.11320
v 2.26215 2.42736 -4.20321
v 2.57573 2.16458 -3.74690
v 2.57818 2.22640 -3.82614
v 2.58664 2.26169 -3.81131
v 2.00089 2.25278 -4.61447
v 1.97401 2.30981 -4.66646
v 1.97337 2.41729 -4.68329
v 2.03044 2.31248 -4.53387
v 2.03044 2.31248 -4.53387
v 2.18532 2.06068 -4.34251
v 2.25311 2.04770 -4.09279
v 2.23913 2.36479 -4.25921
v 2.23913 2.32090 -4.22206
v 2.15209 2.36785 -4.26556
v 2.35238 2.54779 -4.11320
v 2.30674 2.55283 -4.10806
v 2.38378 2.67858 -4.02477
v 2.18532 2.06068 -4.34251
v 2.23913 2.32090 -4.22206
v 2.06414 2.36555 -4.46170
v 1.97337 2.41729 -4.68329
v 1.97401 2.30981 -4.66646
v 1.89642 2.36055 -4.64639
v 2.12433 2.16486 -4.36099
v 2.18532 2.06068 -4.34251
v 2.17551 2.10515 -4.35977
v 2.11150 2.35661 -4.48537
v 2.06414 2.36555 -4.46170
v 2.30674 2.55283 -4.10806
v 2.21799 2.01669 -4.20428
v 2.19806 1.93322 -4.28376
v 1.73714 1.59935 -5.17363
v 2.26215 2.42736 -4.20321
v 2.23913 2.36479 -4.25921
v 2.15209 2.36785 -4.26556
v 2.30674 2.55283 -4.10806
v 2.10096 2.60536 -4.35430
v 2.42772 2.67460 -4.04265
v 2.37764 2.68910 -3.96970
v 2.17209 1.97017 -4.26992
v 2.21769 2.04512 -4.21897
v 2.20783 2.30704 -4.18599
v 2.37764 2.68910 -3.96970
v 1.69475 2.60610 -4.30768
v 2.10096 2.60536 -4.35430
v 1.97337 2.41729 -4.68329
v 2.24186 2.01765 -4.08928
v 2.21077 2.10948 -4.21935
v 2.17209 1.97017 -4.26992
v 2.12433 2.16486 -4.36099
v 2.21769 2.04512 -4.21897
v 2.21799 2.01669 -4.20428
v 2.15209 2.36785 -4.26556
v 2.17424 2.43781 -4.19451
v 2.24984 2.28278 -4.13292
v 2.20783 2.30704 -4.18599
v 2.24063 2.19743 -4.14791
v 2.24063 2.19743 -4.14791
v 2.19724 2.72239 -3.96441
v 2.24984 2.28278 -4.13292
v 2.24984 2.28278 -4.13292
v 2.15948 2.69053 -4.20673
v 1.73714 1.59935 -5.17363
v 1.36256 1.63000 -4.98261
v 1.36484 1.64828 -4.98572
v 2.17424 2.43781 -4.19451
v 1.87120 1.98754 -4.96855
v 1.84687 1.96955 -5.00050
v 1.51184 2.05918 -4.78410
v 2.57094 2.09976 -3.59583
v 2.35555 2.13162 -3.60031
v 2.41951 2.23328 -3.84984
v 2.50864 2.21745 -3.86553
v 1.68940 1.73637 -4.38030
v 2.04360 1.58879 -4.61547
v 2.08435 1.68749 -4.54719
v 2.21435 2.02342 -4.10816
v 2.57573 2.16458 -3.74690
v 2.20049 2.58690 -4.08360
v 2.21435 2.02342 -4.10816
v 2.19806 1.93322 -4.28376
v 2.17209 1.97017 -4.26992
v 2.06481 1.97495 -4.23251
v 2.22121 2.05315 -4.10478
v 2.22121 2.05315 -4.10478
v 2.21435 2.02342 -4.10816
v 2.19735 2.12194 -4.05883
v 2.21799 2.01669 -4.20428
v 2.22121 2.05315 -4.10478
v 2.43159 3.07575 -3.87007
v 2.37764 2.68910 -3.96970
v 2.28302 2.95414 -3.85528
v 1.55034 1.36087 -4.61830
v 1.92560 1.32300 -4.78901
v 1.87120 1.98754 -4.96855
v 1.52420 2.19320 -4.85538
v 1.87508 2.10249 -5.03719
v 2.20049 2.58690 -4.08360
v 1.79472 2.40027 -4.60373
v 1.36256 1.63000 -4.98261
v 1.79472 2.40027 -4.60373
v 2.26364 2.23466 -3.83414
v 1.81993 2.80101 -4.03071
v 2.15948 2.69053 -4.20673
v 2.57094 2.09976 -3.59583
v 1.79472 2.40027 -4.60373
v 1.61924 2.47299 -4.50907
v 2.57094 2.09976 -3.59583
v 2.62242 2.35906 -3.45560
v 2.35555 2.13162 -3.60031
v 2.19724 2.72239 -3.96441
v 1.51184 2.05918 -4.78410
v 2.19806 1.93322 -4.28376
v 2.20049 2.58690 -4.08360
v 1.81993 2.80101 -4.03071
v 2.05124 2.65961 -4.01200
v 2.26364 2.23466 -3.83414
v 2.21799 2.01669 -4.20428
v 2.06481 1.97495 -4.23251
v 2.17209 1.97017 -4.26992
v 2.15948 2.69053 -4.20673
v 2.22229 2.25898 -3.91159
v 1.40315 1.77415 -4.92010
v 2.19735 2.12194 -4.05883
v 2.05124 2.65961 -4.01200
v 2.72347 2.76363 -3.29046
v 2.42597 2.33483 -3.47007
v 2.22229 2.25898 -3.91159
v 2.08894 2.25557 -3.91205
v 1.59748 2.33732 -4.66215
v 1.52420 2.19320 -4.85538
v 1.51184 2.05918 -4.78410
v 1.59748 2.33732 -4.66215
v 1.51184 2.05918 -4.78410
v 1.61924 2.47299 -4.50907
v 1.81596 2.01386 -4.11439
v 1.64748 2.43024 -4.53222
v 1.40315 1.77415 -4.92010
v 1.36484 1.64828 -4.98572
v 1.36256 1.63000 -4.98261
v 1.64748 2.43024 -4.53222
v 1.50951 1.99516 -4.75371
v 2.06481 1.97495 -4.23251
v 1.81596 2.01386 -4.11439
v 2.19806 1.93322 -4.28376
v 1.52299 1.82330 -4.69010
v 1.57610 1.74452 -4.58297
v 1.98220 3.06826 -3.95011
v 1.42528 1.53679 -4.84536
v 2.22229 2.25898 -3.91159
v 2.08894 2.25557 -3.91205
v 2.05124 2.65961 -4.01200
v 1.81993 2.80101 -4.03071
v 1.91034 2.74992 -4.01366
v 1.60993 2.38119 -4.47929
v 1.61924 2.47299 -4.50907
v 1.64748 2.43024 -4.53222
v 1.52299 1.82330 -4.69010
v 1.49650 1.81334 -4.67422
v 1.50951 1.99516 -4.75371
v 1.81267 1.96852 -4.12916
v 2.19806 1.93322 -4.28376
v 1.81596 2.01386 -4.11439
v 2.07297 2.11586 -3.53760
v 1.55034 1.36087 -4.61830
v 1.64748 2.43024 -4.53222
v 1.63501 2.31904 -4.47139
v 1.61945 1.95999 -4.29143
v 1.63501 2.31904 -4.47139
v 1.52299 1.82330 -4.69010
v 1.52455 1.74382 -4.55990
v 1.49650 1.81334 -4.67422
v 1.91034 2.74992 -4.01366
v 1.99089 2.22312 -3.42842
v 1.57610 1.74452 -4.58297
v 1.68940 1.73637 -4.38030
v 1.71225 1.95544 -4.31524
v 1.81267 1.96852 -4.12916
v 1.49650 1.81334 -4.67422
v 1.52455 1.74382 -4.55990
v 1.79570 2.25319 -4.14582
v 1.72606 2.08049 -4.29872
v 1.61945 1.95999 -4.29143
v 1.71225 1.95544 -4.31524
v 2.01954 3.02296 -3.86527
v 2.12798 3.00643 -3.86639
v 1.98220 3.06826 -3.95011
v 1.71225 1.95544 -4.31524
v 1.52455 1.74382 -4.55990
v 1.57610 1.74452 -4.58297
v 1.72606 2.08049 -4.29872
v 1.75744 2.26664 -4.14255
v 1.69475 2.60610 -4.30768
v 1.61924 2.47299 -4.50907
v 1.81267 1.96852 -4.12916
v 1.81596 2.01386 -4.11439
v 1.91068 2.23896 -3.88066
v 1.63315 2.08326 -4.30840
v 1.72606 2.08049 -4.29872
v 1.79570 2.25319 -4.14582
v 1.81993 2.80101 -4.03071
v 1.81177 2.79879 -4.01832
v 1.91034 2.74992 -4.01366
v 1.63315 2.08326 -4.30840
v 1.86290 2.27549 -3.99406
v 1.91068 2.23896 -3.88066
v 1.89620 2.91658 -3.69078
v 2.07297 2.11586 -3.53760
v 1.75744 2.26664 -4.14255
v 1.63315 2.08326 -4.30840
v 1.81177 2.79879 -4.01832
v 1.81993 2.80101 -4.03071
v 1.69475 2.60610 -4.30768
v 1.88649 2.72645 -3.94382
v 1.61945 1.95999 -4.29143
v 1.75744 2.26664 -4.14255
v 1.79570 2.25319 -4.14582
v 1.81876 2.28508 -3.98756
v 1.63315 2.08326 -4.30840
v 1.63315 2.08326 -4.30840
v 1.60993 2.38119 -4.47929
v 1.86290 2.27549 -3.99406
v 1.91068 2.23896 -3.88066
v 1.88649 2.72645 -3.94382
v 1.85459 2.67493 -3.86814
v 1.98220 3.06826 -3.95011
v 1.87753 2.23399 -3.87081
v 1.81177 2.79879 -4.01832
v 1.95843 2.95006 -3.73587
v 1.81876 2.28508 -3.98756
v 1.83811 2.42535 -3.88465
v 1.85459 2.67493 -3.86814
v 1.91034 2.74992 -4.01366
v 1.79857 2.24567 -3.88828
v 1.81876 2.28508 -3.98756
v 1.86290 2.27549 -3.99406
v 1.85459 2.67493 -3.86814
v 1.90347 2.10235 -3.86228
v 1.87753 2.23399 -3.87081
v 1.83298 2.09051 -3.66151
v 1.79857 2.24567 -3.88828
v 1.81885 2.39432 -3.87310
v 1.83811 2.42535 -3.88465
v 1.79857 2.24567 -3.88828
v 1.87753 2.23399 -3.87081
v 1.90347 2.10235 -3.86228
v 1.79857 2.24567 -3.88828
v 1.89620 2.91658 -3.69078
v 1.49952 1.94926 -3.93093
v 1.82219 2.17893 -3.71233
v 1.76106 2.58107 -3.87967
v 1.81885 2.39432 -3.87310
v 1.79307 2.43055 -3.81991
v 1.83602 2.81788 -3.48913
v 1.76106 2.58107 -3.87967
v 1.79307 2.43055 -3.81991
v 1.81885 2.39432 -3.87310
v 1.92272 2.15411 -3.62990
v 1.94227 2.10978 -3.51546
v 1.95111 2.24582 -3.58180
v 1.99089 2.22312 -3.42842
v 2.01259 2.41400 -3.52485
v 1.95111 2.24582 -3.58180
v 2.01259 2.41400 -3.52485
v 1.73977 2.32648 -3.64774
v 1.94227 2.10978 -3.51546
v 1.92272 2.15411 -3.62990
v 1.72007 2.45279 -3.69603
v 1.82219 2.17893 -3.71233
v 1.92272 2.15411 -3.62990
v 2.05560 2.71841 -3.32609
v 2.05871 2.70924 -3.40364
v 1.82219 2.17893 -3.71233
v 2.08525 2.47340 -3.26779
v 1.94227 2.10978 -3.51546
v 1.72630 2.03542 -3.72397
v 1.83298 2.09051 -3.66151
v 1.78767 2.07253 -3.55114
v 2.17396 2.78593 -3.10408
v 2.08525 2.47340 -3.26779
v 1.74862 2.58723 -3.56365
v 1.90347 2.10235 -3.86228
v 1.49952 1.94926 -3.93093
v 1.63657 1.99528 -3.80052
v 1.33580 2.36807 -3.94253
v 2.05871 2.70924 -3.40364
v 1.74862 2.58723 -3.56365
v 2.13119 2.78326 -3.15695
v 1.69201 2.59750 -3.71103
v 1.73977 2.32648 -3.64774
v 1.72007 2.45279 -3.69603
v 1.72630 2.03542 -3.72397
v 1.61802 2.00804 -3.57272
v 1.71610 1.70024 -3.70875
v 1.83602 2.81788 -3.48913
v 1.49978 1.75567 -3.91024
v 1.72630 2.03542 -3.72397
v 1.71610 1.70024 -3.70875
v 1.63657 1.99528 -3.80052
v 1.83602 2.81788 -3.48913
v 1.49952 1.94926 -3.93093
v 1.67701 2.45184 -3.62387
v 1.69201 2.59750 -3.71103
v 1.76106 2.58107 -3.87967
v 1.33580 2.36807 -3.94253
v 1.58612 2.51785 -3.55329
v 1.78767 2.07253 -3.55114
v 1.67701 2.45184 -3.62387
v 1.61802 2.00804 -3.57272
v 1.67701 2.45184 -3.62387
v 1.45705 1.96593 -3.92840
v 1.59882 2.24588 -3.55114
v 1.78767 2.07253 -3.55114
v 1.58612 2.51785 -3.55329
v 1.49952 1.94926 -3.93093
v 1.32641 2.05889 -3.88439
v 1.45705 1.96593 -3.92840
v 1.61802 2.00804 -3.57272
v 1.33455 2.05862 -3.95044
v 1.45705 1.96593 -3.92840
v 1.32641 2.05889 -3.88439
v 1.49978 1.75567 -3.91024
v 1.71610 1.70024 -3.70875
v 1.43713 1.63447 -3.59877
v 1.33455 2.05862 -3.95044
v 1.32641 2.05889 -3.88439
v 1.49952 1.94926 -3.93093
v 1.49978 1.75567 -3.91024
v 1.56618 1.74341 -3.50744
v 1.32522 2.39039 -3.84264
v 1.29976 2.41377 -3.61931
v 1.33455 2.05862 -3.95044
v 1.33061 2.21729 -3.89712
v 1.33580 2.36807 -3.94253
v 1.37294 2.23029 -3.56825
v 1.32641 2.05889 -3.88439
v 1.38384 2.44579 -3.59063
v 1.58612 2.51785 -3.55329
v 1.31061 2.22561 -3.75095
v 1.51287 1.96236 -3.44793
v 1.59882 2.24588 -3.55114
v 1.22076 1.78659 -3.77433
v 1.37294 2.23029 -3.56825
v 1.53110 2.23647 -3.46586
v 1.59882 2.24588 -3.55114
v 1.43713 1.63447 -3.59877
v 1.71610 1.70024 -3.70875
v 1.56618 1.74341 -3.50744
v 1.22076 1.78659 -3.77433
v 1.33061 2.21729 -3.89712
v 1.53110 2.23647 -3.46586
v 1.31061 2.22561 -3.75095
v 1.33061 2.21729 -3.89712
v 1.20148 2.13738 -3.82933
v 1.32522 2.39039 -3.84264
v 1.38384 2.44579 -3.59063
v 1.29976 2.41377 -3.61931
v 1.28899 2.22844 -3.57939
v 1.28148 1.85404 -3.49637
v 1.56618 1.74341 -3.50744
v 1.51287 1.96236 -3.44793
v 1.28899 2.22844 -3.57939
v 1.20148 2.13738 -3.82933
v 1.43713 1.63447 -3.59877
v 1.28403 2.20969 -3.56299
v 1.22076 1.78659 -3.77433
v 1.28403 2.20969 -3.56299
v 1.20148 2.13738 -3.82933
v 1.53110 2.23647 -3.46586
v 1.29976 2.41377 -3.61931
v 1.28148 1.85404 -3.49637
v 1.28899 2.22844 -3.57939
v 1.28403 2.20969 -3.56299
v 1.37294 2.23029 -3.56825
v 1.28899 2.22844 -3.57939
v 1.28899 2.22844 -3.57939
v 1.43713 1.63447 -3.59877
v 1.28148 1.85404 -3.49637
v 1.22076 1.78659 -3.77433
v 1.28403 2.20969 -3.56299
v 2.25514 1.85830 -4.39535
v 2.24479 1.99567 -4.55075
v 2.23421 2.09668 -4.56292
v 2.65101 2.58115 -4.02711
v 2.26070 1.81722 -4.37939
v 1.40315 1.77415 -4.92010
v 1.52299 1.82330 -4.69010
v 3.04426 3.30799 -3.42940
v 3.07579 3.35965 -3.43424
v 3.16411 3.49108 -3.34333
v 3.16411 3.49108 -3.34333
v 3.09785 3.32685 -3.38346
v 3.04426 3.30799 -3.42940
v 2.95933 3.10744 -3.57975
v 2.73634 3.55556 -3.82301
v 3.07579 3.35965 -3.43424
v 3.20186 3.61684 -3.25630
v 3.15687 3.51686 -3.24890
v 3.16411 3.49108 -3.34333
v 3.20186 3.61684 -3.25630
v 3.16411 3.49108 -3.34333
v 3.20252 4.03926 -3.15669
v 3.21985 3.70952 -3.14863
v 3.30189 3.61137 -3.07938
v 3.23741 3.38720 -3.18776
v 2.95933 3.10744 -3.57975
v 3.15687 3.51686 -3.24890
v 3.21985 3.70952 -3.14863
v 3.09785 3.32685 -3.38346
v 3.00180 3.11813 -3.44264
v 3.35361 3.79726 -2.99546
v 3.28893 3.92271 -3.02918
v 3.07579 3.35965 -3.43424
v 2.69949 3.48958 -3.87692
v 2.95804 4.08042 -3.41262
v 3.28893 3.92271 -3.02918
v 2.84184 2.78202 -3.69169
v 2.84184 2.78202 -3.69169
v 2.85126 2.95372 -3.50957
v 3.08242 3.35341 -3.29756
v 3.07579 3.35965 -3.43424
v 2.73634 3.55556 -3.82301
v 2.69949 3.48958 -3.87692
v 2.66437 3.29386 -3.90842
v 2.69949 3.48958 -3.87692
v 2.92153 3.08795 -3.50053
v 3.08242 3.35341 -3.29756
v 2.60886 3.02234 -3.95117
v 3.01747 3.07803 -3.29651
v 2.77223 2.77260 -3.57959
v 2.92153 3.08795 -3.50053
v 2.70821 2.89159 -3.83799
v 2.55723 2.96902 -4.02974
v 3.15095 3.27816 -3.08091
v 3.30189 3.61137 -3.07938
v 3.35361 3.79726 -2.99546
v 2.90758 2.93060 -3.48394
v 2.56404 3.03499 -4.00174
v 3.23741 3.38720 -3.18776
v 2.54185 3.18112 -3.78496
v 2.66437 3.29386 -3.90842
v 2.60886 3.02234 -3.95117
v 2.95721 3.10326 -3.35215
v 3.00180 3.11813 -3.44264
v 2.70821 2.89159 -3.83799
v 2.84184 2.78202 -3.69169
v 2.77223 2.77260 -3.57959
v 2.70762 2.84900 -3.74658
v 3.01747 3.07803 -3.29651
v 2.90713 3.00448 -3.37647
v 2.90758 2.93060 -3.48394
v 2.85126 2.95372 -3.50957
v 2.95721 3.10326 -3.35215
v 2.85679 2.89949 -3.42862
v 2.85679 2.89949 -3.42862
v 2.85126 2.95372 -3.50957
v 2.90758 2.93060 -3.48394
v 2.95804 4.08042 -3.41262
v 2.59802 3.65529 -3.58775
v 2.65360 3.79995 -3.46303
v 2.43159 3.07575 -3.87007
v 2.60886 3.02234 -3.95117
v 2.56404 3.03499 -4.00174
v 2.53748 3.01753 -3.80813
v 2.65101 2.58115 -4.02711
v 2.70762 2.84900 -3.74658
v 2.71983 2.78006 -3.57935
v 2.85629 2.87567 -3.38380
v 2.90713 3.00448 -3.37647
v 2.85126 2.95372 -3.50957
v 2.83219 2.96236 -3.49845
v 2.77492 2.94321 -3.49837
v 2.71983 2.78006 -3.57935
v 2.83219 2.96236 -3.49845
v 3.22222 3.11537 -2.94656
v 3.15095 3.27816 -3.08091
v 3.21881 3.54645 -2.82807
v 2.83827 2.85752 -3.31660
v 2.71983 2.78006 -3.57935
v 2.85629 2.87567 -3.38380
v 2.77223 2.77260 -3.57959
v 2.85679 2.89949 -3.42862
v 2.90713 3.00448 -3.37647
v 2.85629 2.87567 -3.38380
v 2.77492 2.94321 -3.49837
v 2.83219 2.96236 -3.49845
v 2.85679 2.89949 -3.42862
v 2.83827 2.85752 -3.31660
v 2.85629 2.87567 -3.38380
v 2.69949 3.48958 -3.87692
v 2.55219 3.52887 -3.70294
v 2.53843 3.48960 -3.72730
v 2.53748 3.01753 -3.80813
v 2.55723 2.96902 -4.02974
v 2.43159 3.07575 -3.87007
v 2.56404 3.03499 -4.00174
v 2.75210 2.85163 -3.37555
v 2.74844 2.78250 -3.27371
v 2.77492 2.94321 -3.49837
v 2.75210 2.85163 -3.37555
v 2.53748 3.01753 -3.80813
v 2.43159 3.07575 -3.87007
v 2.54185 3.18112 -3.78496
v 2.74844 2.78250 -3.27371
v 2.83827 2.85752 -3.31660
v 2.77161 2.83419 -3.25057
v 2.72347 2.76363 -3.29046
v 2.62242 2.35906 -3.45560
v 2.59802 3.65529 -3.58775
v 2.55219 3.52887 -3.70294
v 2.52542 3.65682 -3.67337
v 2.53843 3.48960 -3.72730
v 2.54185 3.18112 -3.78496
v 2.39898 3.54349 -3.69274
v 2.39898 3.54349 -3.69274
v 2.55219 3.52887 -3.70294
v 2.76108 2.90820 -2.95832
v 2.39898 3.54349 -3.69274
v 2.43061 3.52587 -3.63818
v 2.55219 3.52887 -3.70294
v 2.59516 3.80959 -3.53283
v 2.52542 3.65682 -3.67337
v 2.55219 3.52887 -3.70294
v 2.40116 3.67626 -3.58947
v 2.39898 3.54349 -3.69274
v 2.43159 3.07575 -3.87007
v 2.36648 3.32202 -3.73546
v 2.74844 2.78250 -3.27371
v 2.32773 3.01798 -3.82774
v 2.74844 2.78250 -3.27371
v 3.22222 3.11537 -2.94656
v 2.84979 3.00641 -2.65772
v 2.28302 2.95414 -3.85528
v 2.38329 3.54314 -3.66774
v 3.07051 3.29469 -2.52844
v 2.91354 3.13296 -2.55639
v 2.77161 2.83419 -3.25057
v 2.72347 2.76363 -3.29046
v 2.74844 2.78250 -3.27371
v 2.65461 2.80476 -3.23120
v 2.43061 3.52587 -3.63818
v 2.28302 2.95414 -3.85528
v 2.12798 3.00643 -3.86639
v 2.32773 3.01798 -3.82774
v 2.61451 2.82741 -3.24259
v 2.72347 2.76363 -3.29046
v 2.77161 2.83419 -3.25057
v 2.36648 3.32202 -3.73546
v 2.36749 3.46375 -3.68582
v 2.38329 3.54314 -3.66774
v 2.43061 3.52587 -3.63818
v 2.38329 3.54314 -3.66774
v 2.40116 3.67626 -3.58947
v 2.77161 2.83419 -3.25057
v 2.65461 2.80476 -3.23120
v 2.61451 2.82741 -3.24259
v 2.40116 3.67626 -3.58947
v 2.04450 3.06008 -3.87393
v 2.36749 3.46375 -3.68582
v 2.11193 3.67416 -3.73149
v 2.42597 2.33483 -3.47007
v 2.65461 2.80476 -3.23120
v 2.76108 2.90820 -2.95832
v 2.61451 2.82741 -3.24259
v 2.28302 2.95414 -3.85528
v 1.98220 3.06826 -3.95011
v 2.12798 3.00643 -3.86639
v 2.50509 2.83772 -3.19891
v 2.82155 3.02623 -2.65628
v 2.84979 3.00641 -2.65772
v 3.07051 3.29469 -2.52844
v 2.91890 3.17238 -2.54263
v 2.91354 3.13296 -2.55639
v 2.01954 3.02296 -3.86527
v 2.11193 3.67416 -3.73149
v 2.04450 3.06008 -3.87393
v 2.01954 3.02296 -3.86527
v 2.50509 2.83772 -3.19891
v 2.54135 2.86169 -3.05175
v 2.82155 3.02623 -2.65628
v 2.84979 3.00641 -2.65772
v 2.91354 3.13296 -2.55639
v 2.91890 3.17238 -2.54263
v 2.35118 2.76124 -3.18889
v 2.17396 2.78593 -3.10408
v 2.35118 2.76124 -3.18889
v 2.89000 3.54840 -2.08623
v 2.91890 3.17238 -2.54263
v 1.98653 3.16270 -3.70311
v 2.01954 3.02296 -3.86527
v 1.95843 2.95006 -3.73587
v 2.03893 3.63378 -3.70278
v 2.51047 2.91022 -2.88163
v 2.00312 3.42523 -3.49517
v 2.61977 3.05036 -2.51258
v 2.37891 2.85895 -2.89434
v 2.17396 2.78593 -3.10408
v 2.11641 2.96280 -3.28681
v 2.05871 2.70924 -3.40364
v 2.05560 2.71841 -3.32609
v 2.37891 2.85895 -2.89434
v 2.51047 2.91022 -2.88163
v 2.27525 3.27943 -2.59555
v 1.83602 2.81788 -3.48913
v 2.11641 2.96280 -3.28681
v 2.12525 3.06022 -3.24626
v 1.83602 2.81788 -3.48913
v 2.61977 3.05036 -2.51258
v 2.27525 3.27943 -2.59555
v 2.51047 2.91022 -2.88163
v 2.12525 3.06022 -3.24626
v 2.13119 2.78326 -3.15695
v 2.26837 3.13832 -2.68121
v 2.06877 3.20678 -2.75657
v 2.13119 2.78326 -3.15695
v 2.08525 2.47340 -3.26779
v 2.17396 2.78593 -3.10408
v 2.05871 3.03399 -3.20274
v 2.17396 2.78593 -3.10408
v 2.37891 2.85895 -2.89434
v 2.13119 2.78326 -3.15695
v 2.09851 2.88005 -3.12877
v 2.05871 2.70924 -3.40364
v 2.13043 3.31617 -3.15989
v 2.26837 3.13832 -2.68121
v 2.13043 3.31617 -3.15989
v 2.04600 3.41217 -3.17763
v 2.05871 3.03399 -3.20274
v 2.37891 2.85895 -2.89434
v 2.04825 3.31613 -3.10274
v 2.19213 3.50052 -3.04567
v 2.06877 3.20678 -2.75657
v 2.04825 3.31613 -3.10274
v 2.71983 2.78006 -3.57935
v 2.13119 2.78326 -3.15695
v 2.05560 2.71841 -3.32609
v 2.53535 3.46044 -3.17193
v 3.28893 3.92271 -3.02918
v 3.35361 3.79726 -2.99546
v 3.15095 3.27816 -3.08091
v 3.21881 3.54645 -2.82807
v 3.22222 3.11537 -2.94656
v 3.07051 3.29469 -2.52844
v 2.91890 3.17238 -2.54263
v 2.89000 3.54840 -2.08623
v 2.61977 3.05036 -2.51258
v 2.27525 3.27943 -2.59555
v 2.26837 3.13832 -2.68121
v 2.06877 3.20678 -2.75657
v 2.04825 3.31613 -3.10274
v 2.19213 3.50052 -3.04567
v 2.13043 3.31617 -3.15989
v 2.04600 3.41217 -3.17763
v 1.83602 2.81788 -3.48913
v 2.00312 3.42523 -3.49517
v 1.98653 3.16270 -3.70311
v 2.03893 3.63378 -3.70278
v 2.01954 3.02296 -3.86527
v 2.11193 3.67416 -3.73149
v 2.36749 3.46375 -3.68582
v 2.40116 3.67626 -3.58947
v 2.52542 3.65682 -3.67337
v 2.59516 3.80959 -3.53283
v 2.59802 3.65529 -3.58775
v 2.65360 3.79995 -3.46303
v 2.95804 4.08042 -3.41262
v 3.20252 4.03926 -3.15669
vt 0.08416 0.44266
vt 0.09129 0.45073
vt 0.08303 0.45073
vt 0.09896 0.44035
vt 0.07592 0.44978
vt 0.07626 0.45033
vt 0.96282 0.82064
vt 0.97375 0.80563
vt 0.97437 0.81643
vt 0.99456 0.35141
vt 0.99539 0.35134
vt 0.99498 0.36223
vt 0.97396 0.82088
vt 0.08303 0.42716
vt 0.42957 0.96313
vt 0.42934 0.95866
vt 0.43286 0.95866
vt 0.66456 0.99243
vt 0.66439 0.99181
vt 0.66808 0.99256
vt 0.97715 0.70709
vt 0.98649 0.70078
vt 0.98686 0.70794
vt 0.54719 0.99156
vt 0.55709 0.99242
vt 0.54693 0.99234
vt 0.01258 0.14445
vt 0.02360 0.14640
vt 0.01358 0.15749
vt 0.08877 0.96510
vt 0.07707 0.96569
vt 0.07323 0.96501
vt 0.92963 0.95747
vt 0.92878 0.96718
vt 0.92137 0.95747
vt 0.09291 0.77141
vt 0.09398 0.78155
vt 0.08868 0.77892
vt 0.43920 0.95886
vt 0.96308 0.81088
vt 0.55701 0.99099
vt 0.09606 0.42760
vt 0.67442 0.99275
vt 0.96395 0.80475
vt 0.02304 0.15813
vt 0.97642 0.81199
vt 0.97409 0.80169
vt 0.97642 0.80223
vt 0.01837 0.14438
vt 0.11100 0.79432
vt 0.10820 0.79898
vt 0.10801 0.79213
vt 0.97512 0.80057
vt 0.97553 0.81066
vt 0.67480 0.99117
vt 0.97667 0.79605
vt 0.09937 0.78959
vt 0.99703 0.97123
vt 0.99703 0.96646
vt 0.99845 0.96666
vt 0.97646 0.69420
vt 0.91532 0.96776
vt 0.91459 0.95736
vt 0.17014 0.85265
vt 0.18074 0.85229
vt 0.17221 0.86193
vt 0.73367 0.94511
vt 0.73391 0.94102
vt 0.73789 0.94102
vt 0.72986 0.98475
vt 0.72884 0.97303
vt 0.74101 0.98469
vt 0.09779 0.78503
vt 0.10112 0.78732
vt 0.00956 0.07452
vt 0.00862 0.07915
vt 0.00811 0.07520
vt 0.16629 0.86368
vt 0.44133 0.96275
vt 0.98594 0.69407
vt 0.43588 0.99298
vt 0.43705 0.99396
vt 0.43581 0.99697
vt 0.15977 0.86259
vt 0.07304 0.96615
vt 0.08594 0.78134
vt 0.74861 0.96239
vt 0.74974 0.97531
vt 0.74746 0.96247
vt 0.00898 0.08398
vt 0.18041 0.85129
vt 0.76095 0.96238
vt 0.44151 0.94832
vt 0.10291 0.80698
vt 0.44066 0.94793
vt 0.00998 0.08601
vt 0.74272 0.94067
vt 0.08347 0.79399
vt 0.09813 0.80475
vt 0.99929 0.03669
vt 0.99929 0.04120
vt 0.99870 0.04048
vt 0.03255 0.04015
vt 0.02752 0.03229
vt 0.03255 0.03116
vt 0.74044 0.97320
vt 0.36409 0.92610
vt 0.36105 0.92668
vt 0.35743 0.92407
vt 0.17163 0.97176
vt 0.16642 0.96945
vt 0.16972 0.96844
vt 0.75547 0.97453
vt 0.97992 0.00648
vt 0.98216 0.00257
vt 0.98741 0.00397
vt 0.08849 0.79739
vt 0.70154 0.94897
vt 0.71611 0.94991
vt 0.70319 0.96057
vt 0.74773 0.94262
vt 0.35753 0.92645
vt 0.98849 0.00608
vt 0.29929 0.99212
vt 0.30139 0.99683
vt 0.29936 0.99615
vt 0.03222 0.04756
vt 0.01868 0.04297
vt 0.05515 0.87269
vt 0.05076 0.87254
vt 0.05246 0.86889
vt 0.16348 0.97010
vt 0.05628 0.86930
vt 0.06840 0.87294
vt 0.06752 0.87156
vt 0.07445 0.87319
vt 0.06148 0.87071
vt 0.98495 0.95963
vt 0.98524 0.97059
vt 0.97900 0.97114
vt 0.07308 0.87166
vt 0.70187 0.96048
vt 0.15820 0.84469
vt 0.76060 0.97109
vt 0.97198 0.67702
vt 0.97484 0.67246
vt 0.97547 0.67539
vt 0.00859 0.08628
vt 0.71454 0.96005
vt 0.74495 0.93998
vt 0.35019 0.92302
vt 0.76082 0.95023
vt 0.76134 0.95027
vt 0.76050 0.95315
vt 0.96884 0.68225
vt 0.76109 0.97454
vt 0.67047 0.99361
vt 0.67476 0.99361
vt 0.67109 0.99885
vt 0.67410 0.99648
vt 0.15751 0.97175
vt 0.07532 0.86698
vt 0.01820 0.05025
vt 0.99401 0.95589
vt 0.99539 0.95535
vt 0.99593 0.95613
vt 0.29409 0.99598
vt 0.71755 0.95920
vt 0.14790 0.85513
vt 0.98263 0.23979
vt 0.98994 0.24069
vt 0.99085 0.25110
vt 0.99402 0.96324
vt 0.97829 0.68400
vt 0.97918 0.68784
vt 0.96705 0.68752
vt 0.75990 0.94648
vt 0.98202 0.25267
vt 0.99244 0.00552
vt 0.15668 0.84436
vt 0.74447 0.92802
vt 0.74764 0.92726
vt 0.02056 0.98043
vt 0.02561 0.98043
vt 0.02033 0.98368
vt 0.97263 0.95890
vt 0.14955 0.85203
vt 0.76216 0.94125
vt 0.75903 0.94264
vt 0.01657 0.41600
vt 0.02664 0.41777
vt 0.01531 0.42211
vt 0.34871 0.92254
vt 0.02413 0.03233
vt 0.02399 0.89790
vt 0.01671 0.89730
vt 0.01671 0.88193
vt 0.85789 0.99462
vt 0.85822 0.99728
vt 0.85686 0.99784
vt 0.92548 0.99886
vt 0.92486 0.99813
vt 0.92991 0.99818
vt 0.91121 0.74687
vt 0.90518 0.75072
vt 0.90557 0.74593
vt 0.90002 0.76916
vt 0.90607 0.75554
vt 0.90726 0.75475
vt 0.01537 0.41855
vt 0.91129 0.75454
vt 0.54349 0.91976
vt 0.53971 0.92056
vt 0.54744 0.91290
vt 0.57108 0.95515
vt 0.57091 0.94061
vt 0.57775 0.94261
vt 0.07478 0.86042
vt 0.76220 0.93730
vt 0.75891 0.93844
vt 0.53778 0.91673
vt 0.62785 0.96876
vt 0.62723 0.97377
vt 0.62702 0.96732
vt 0.91608 0.77719
vt 0.98451 0.10447
vt 0.98781 0.10319
vt 0.01883 0.03318
vt 0.90671 0.74309
vt 0.76078 0.93732
vt 0.20811 0.96326
vt 0.19766 0.96326
vt 0.21289 0.95681
vt 0.02666 0.98390
vt 0.34063 0.92768
vt 0.92986 0.74644
vt 0.54734 0.91895
vt 0.97293 0.83796
vt 0.97292 0.83156
vt 0.97386 0.82625
vt 0.92187 0.74026
vt 0.01464 0.42087
vt 0.00231 0.21124
vt 0.00387 0.21342
vt 0.00021 0.21735
vt 0.90072 0.74173
vt 0.92225 0.76719
vt 0.92485 0.76330
vt 0.97199 0.82885
vt 0.46726 0.00117
vt 0.46726 0.00335
vt 0.46590 0.00318
vt 0.93071 0.74536
vt 0.93516 0.75255
vt 0.54246 0.90004
vt 0.01561 0.41293
vt 0.03244 0.98325
vt 0.02794 0.98357
vt 0.56408 0.93882
vt 0.90527 0.74093
vt 0.02296 0.88089
vt 0.02366 0.88208
vt 0.02873 0.88184
vt 0.00008 0.28955
vt 0.00275 0.28955
vt 0.00494 0.29139
vt 0.55676 0.90662
vt 0.99703 0.90728
vt 0.99879 0.90422
vt 0.99895 0.90934
vt 0.14430 0.99666
vt 0.14272 0.99534
vt 0.14573 0.99149
vt 0.02832 0.89093
vt 0.03377 0.89832
vt 0.86548 0.94253
vt 0.88028 0.94172
vt 0.88028 0.95642
vt 0.97215 0.97125
vt 0.92535 0.73788
vt 0.46771 0.93643
vt 0.46731 0.95092
vt 0.45638 0.95188
vt 0.00329 0.28627
vt 0.97386 0.82212
vt 0.97200 0.82184
vt 0.00582 0.21790
vt 0.03059 0.89297
vt 0.55557 0.91882
vt 0.55213 0.91957
vt 0.55150 0.91835
vt 0.06928 0.37761
vt 0.06982 0.38042
vt 0.06808 0.38382
vt 0.97187 0.82519
vt 0.06561 0.37759
vt 0.93132 0.74670
vt 0.02592 0.40643
vt 0.19448 0.00643
vt 0.19473 0.00443
vt 0.19748 0.00702
vt 0.93525 0.66641
vt 0.93519 0.66727
vt 0.92994 0.66609
vt 0.02421 0.88047
vt 0.02946 0.88927
vt 0.06226 0.37751
vt 0.96539 0.71140
vt 0.96451 0.70769
vt 0.96769 0.70865
vt 0.52248 0.95503
vt 0.51851 0.95342
vt 0.52022 0.95345
vt 0.53031 0.95334
vt 0.53061 0.95520
vt 0.14290 0.99695
vt 0.34005 0.92887
vt 0.51361 0.95396
vt 0.44988 0.93725
vt 0.94023 0.66452
vt 0.94205 0.66348
vt 0.94269 0.66549
vt 0.03455 0.89712
vt 0.05418 0.38211
vt 0.19772 0.95878
vt 0.19882 0.95583
vt 0.51476 0.95514
vt 0.02863 0.87957
vt 0.19603 0.00328
vt 0.62805 0.96563
vt 0.05977 0.73050
vt 0.04581 0.73368
vt 0.04581 0.71968
vt 0.07587 0.86015
vt 0.05940 0.36444
vt 0.06405 0.36177
vt 0.06298 0.36941
vt 0.06058 0.36250
vt 0.06083 0.36141
vt 0.05606 0.37325
vt 0.94023 0.66689
vt 0.03247 0.88766
vt 0.05456 0.36952
vt 0.03165 0.88472
vt 0.05541 0.36538
vt 0.62321 0.96140
vt 0.19492 0.00102
vt 0.05315 0.36744
vt 0.04792 0.38136
vt 0.95211 0.64656
vt 0.93734 0.64656
vt 0.93741 0.64591
vt 0.05252 0.37376
vt 0.98415 0.46596
vt 0.98570 0.46596
vt 0.98540 0.48027
vt 0.56071 0.91624
vt 0.09008 0.89212
vt 0.09313 0.88292
vt 0.09635 0.88292
vt 0.89477 0.87295
vt 0.89033 0.85783
vt 0.89477 0.85784
vt 0.97104 0.97083
vt 0.09828 0.88766
vt 0.93384 0.67084
vt 0.33672 0.93092
vt 0.99805 0.52780
vt 0.99900 0.52915
vt 0.99799 0.53301
vt 0.07465 0.85922
vt 0.33591 0.93093
vt 0.07569 0.85897
vt 0.02326 0.40415
vt 0.02958 0.40402
vt 0.02607 0.40523
vt 0.90756 0.67228
vt 0.91937 0.66843
vt 0.91561 0.67452
vt 0.87846 0.87270
vt 0.87848 0.85820
vt 0.96589 0.63507
vt 0.97967 0.64009
vt 0.96548 0.63974
vt 0.04627 0.37578
vt 0.00488 0.28248
vt 0.45017 0.95201
vt 0.55942 0.94598
vt 0.01479 0.40750
vt 0.05934 0.74314
vt 0.04575 0.73999
vt 0.09760 0.89338
vt 0.97179 0.70890
vt 0.97921 0.70943
vt 0.09448 0.32121
vt 0.09539 0.31076
vt 0.10203 0.32227
vt 0.92567 0.67191
vt 0.98025 0.63479
vt 0.90797 0.85874
vt 0.97750 0.92777
vt 0.98321 0.94208
vt 0.97805 0.93408
vt 0.08764 0.88293
vt 0.80141 0.95521
vt 0.80508 0.95950
vt 0.80124 0.95845
vt 0.98330 0.92814
vt 0.01617 0.40462
vt 0.87514 0.95678
vt 0.80538 0.95028
vt 0.93005 0.67737
vt 0.09589 0.29506
vt 0.10180 0.31347
vt 0.08644 0.87997
vt 0.08178 0.87960
vt 0.56257 0.95283
vt 0.09520 0.15648
vt 0.09059 0.15599
vt 0.09833 0.14865
vt 0.86344 0.95670
vt 0.05963 0.72164
vt 0.81475 0.96072
vt 0.55692 0.95125
vt 0.44931 0.63568
vt 0.45201 0.63129
vt 0.45251 0.63141
vt 0.97759 0.70831
vt 0.08924 0.15737
vt 0.97998 0.53647
vt 0.97998 0.52673
vt 0.98082 0.54161
vt 0.08555 0.16229
vt 0.45399 0.64931
vt 0.91900 0.68928
vt 0.45562 0.63652
vt 0.80829 0.94381
vt 0.81223 0.94631
vt 0.00496 0.71911
vt 0.00496 0.72863
vt 0.00459 0.72496
vt 0.81704 0.96538
vt 0.81366 0.96570
vt 0.81457 0.96395
vt 0.37740 0.00412
vt 0.37838 0.00355
vt 0.37814 0.01052
vt 0.98172 0.48487
vt 0.98045 0.49941
vt 0.98009 0.48451
vt 0.08002 0.89349
vt 0.46677 0.64182
vt 0.10032 0.14309
vt 0.09836 0.13965
vt 0.07931 0.13953
vt 0.81903 0.96410
vt 0.18631 0.99360
vt 0.18304 0.99783
vt 0.18517 0.99354
vt 0.93078 0.68524
vt 0.11629 0.31976
vt 0.18493 0.99842
vt 0.45739 0.65679
vt 0.45365 0.66213
vt 0.90750 0.87333
vt 0.08064 0.15615
vt 0.07657 0.15144
vt 0.45059 0.67504
vt 0.56910 0.99405
vt 0.56457 0.99741
vt 0.56466 0.99405
vt 0.06753 0.94617
vt 0.06945 0.94284
vt 0.06963 0.94911
vt 0.97450 0.74414
vt 0.98723 0.74104
vt 0.98731 0.74302
vt 0.44985 0.66632
vt 0.81674 0.88760
vt 0.81774 0.90097
vt 0.80888 0.90097
vt 0.45946 0.66969
vt 0.45866 0.67117
vt 0.81786 0.94929
vt 0.80107 0.99338
vt 0.80268 0.99052
vt 0.81099 0.99199
vt 0.99203 0.24760
vt 0.99159 0.24731
vt 0.99482 0.24519
vt 0.82906 0.96447
vt 0.45273 0.67994
vt 0.45693 0.68379
vt 0.05918 0.94586
vt 0.11202 0.32409
vt 0.81076 0.99340
vt 0.56895 0.99732
vt 0.96393 0.57043
vt 0.96415 0.56995
vt 0.97677 0.57075
vt 0.99311 0.24309
vt 0.97471 0.74079
vt 0.58065 0.00211
vt 0.58074 0.00353
vt 0.57504 0.00383
vt 0.08640 0.13778
vt 0.80724 0.88570
vt 0.80783 0.89774
vt 0.57519 0.00542
vt 0.07546 0.88029
vt 0.09960 0.71422
vt 0.09623 0.71464
vt 0.10598 0.70355
vt 0.07426 0.88057
vt 0.83059 0.90096
vt 0.06201 0.94509
vt 0.82205 0.88508
vt 0.82775 0.88733
vt 0.99111 0.24034
vt 0.10229 0.71459
vt 0.07157 0.87959
vt 0.07258 0.87592
vt 0.07418 0.87598
vt 0.83296 0.89439
vt 0.76765 0.94258
vt 0.76296 0.94300
vt 0.76738 0.93513
vt 0.82420 0.88195
vt 0.09210 0.72366
vt 0.09318 0.72287
vt 0.09025 0.72861
vt 0.06010 0.91927
vt 0.06091 0.91464
vt 0.06258 0.92070
vt 0.09505 0.70410
vt 0.07623 0.91493
vt 0.07183 0.88626
vt 0.05944 0.93210
vt 0.05992 0.92527
vt 0.09067 0.72170
vt 0.05148 0.94323
vt 0.75018 0.94309
vt 0.75556 0.94097
vt 0.75703 0.94290
vt 0.07505 0.88959
vt 0.07539 0.89393
vt 0.30625 0.88506
vt 0.30480 0.89048
vt 0.29967 0.88497
vt 0.05865 0.69265
vt 0.05865 0.69923
vt 0.05042 0.69205
vt 0.11657 0.32504
vt 0.30998 0.88461
vt 0.08628 0.71911
vt 0.76428 0.93695
vt 0.05865 0.68889
vt 0.28707 0.88737
vt 0.28837 0.88496
vt 0.05438 0.68711
vt 0.29411 0.89278
vt 0.30986 0.88896
vt 0.97265 0.13297
vt 0.97718 0.13156
vt 0.97869 0.13551
vt 0.11559 0.29610
vt 0.11575 0.30884
vt 0.08470 0.71262
vt 0.97391 0.12485
vt 0.96151 0.13384
vt 0.96832 0.13350
vt 0.07618 0.93068
vt 0.05688 0.71038
vt 0.04769 0.70126
vt 0.28248 0.89248
vt 0.74893 0.93681
vt 0.75851 0.93433
vt 0.75407 0.93610
vt 0.87795 0.92870
vt 0.87887 0.93522
vt 0.86687 0.93262
vt 0.08692 0.70387
vt 0.86385 0.98530
vt 0.85392 0.97515
vt 0.86568 0.97493
vt 0.85538 0.97927
vt 0.04770 0.71028
vt 0.85705 0.98588
vt 0.75367 0.93318
vt 0.96163 0.06910
vt 0.95532 0.07021
vt 0.95532 0.05341
vt 0.75051 0.92977
vt 0.76759 0.93090
vt 0.08346 0.71825
vt 0.97367 0.13947
vt 0.04687 0.69555
vt 0.07741 0.91602
vt 0.89043 0.94175
vt 0.88162 0.94346
vt 0.89579 0.93387
vt 0.21904 0.96542
vt 0.21904 0.97277
vt 0.21864 0.96697
vt 0.88551 0.94855
vt 0.20443 0.99251
vt 0.20443 0.99794
vt 0.20210 0.99261
vt 0.94821 0.95796
vt 0.95215 0.96773
vt 0.94140 0.96773
vt 0.08026 0.92064
vt 0.08537 0.95433
vt 0.08171 0.96072
vt 0.07490 0.96072
vt 0.87080 0.94063
vt 0.95889 0.05388
vt 0.96679 0.05447
vt 0.98671 0.15229
vt 0.98098 0.15356
vt 0.97590 0.15140
vt 0.89691 0.94636
vt 0.98645 0.15461
vt 0.90065 0.93975
vt 0.96779 0.06534
vt 0.98014 0.15867
vt 0.87894 0.94115
vt 0.88715 0.93384
vt 0.93730 0.95740
vt 0.49763 0.96922
vt 0.50086 0.97497
vt 0.49773 0.97717
vt 0.18376 0.98118
vt 0.17744 0.98988
vt 0.17704 0.98097
vt 0.07541 0.94981
vt 0.09093 0.95428
vt 0.88791 0.93759
vt 0.01188 0.58773
vt 0.01447 0.59222
vt 0.00865 0.59234
vt 0.97475 0.15482
vt 0.96741 0.05772
vt 0.97309 0.16256
vt 0.00878 0.58253
vt 0.05210 0.10345
vt 0.04464 0.11113
vt 0.04300 0.10313
vt 0.89940 0.94797
vt 0.08786 0.94933
vt 0.05095 0.11347
vt 0.49809 0.96605
vt 0.67508 0.97270
vt 0.68844 0.96265
vt 0.68754 0.97270
vt 0.03885 0.09443
vt 0.90281 0.94226
vt 0.67576 0.96248
vt 0.97939 0.16468
vt 0.68292 0.99725
vt 0.68391 0.99421
vt 0.68381 0.99717
vt 0.68924 0.96304
vt 0.00561 0.21484
vt 0.00561 0.20476
vt 0.01499 0.20887
vt 0.04774 0.09155
vt 0.35056 0.92888
vt 0.35063 0.91660
vt 0.34807 0.91580
vt 0.98785 0.11691
vt 0.34982 0.93032
vt 0.08908 0.16524
vt 0.45027 0.64514
vt 0.53637 0.69178
vt 0.53302 0.69331
vt 0.52213 0.69138
vt 0.93297 0.03925
vt 0.93397 0.05021
vt 0.93084 0.05334
vt 0.67828 0.74011
vt 0.67000 0.77280
vt 0.65930 0.74111
vt 0.37587 0.58730
vt 0.36968 0.58976
vt 0.36671 0.58461
vt 0.49541 0.32696
vt 0.48401 0.33056
vt 0.51306 0.30671
vt 0.54121 0.32396
vt 0.54440 0.31859
vt 0.56616 0.32311
vt 0.55182 0.69606
vt 0.55999 0.32918
vt 0.38322 0.59191
vt 0.35575 0.58556
vt 0.93450 0.06457
vt 0.53195 0.31151
vt 0.52555 0.31129
vt 0.47076 0.33700
vt 0.43428 0.32861
vt 0.49134 0.29408
vt 0.39833 0.59478
vt 0.69975 0.73518
vt 0.57385 0.69628
vt 0.56104 0.68814
vt 0.35843 0.59040
vt 0.39405 0.81552
vt 0.42737 0.81261
vt 0.43007 0.81754
vt 0.68657 0.76805
vt 0.67559 0.77337
vt 0.55219 0.69062
vt 0.57475 0.33091
vt 0.70191 0.76074
vt 0.59691 0.33004
vt 0.57374 0.68827
vt 0.93025 0.06919
vt 0.70224 0.74866
vt 0.70803 0.76306
vt 0.35820 0.12753
vt 0.36749 0.14765
vt 0.36749 0.16039
vt 0.93507 0.07752
vt 0.70389 0.76441
vt 0.36781 0.13207
vt 0.46754 0.12493
vt 0.47183 0.13673
vt 0.45532 0.13275
vt 0.34132 0.59274
vt 0.34141 0.58656
vt 0.81518 0.93576
vt 0.82603 0.94415
vt 0.82302 0.95159
vt 0.81659 0.94170
vt 0.36319 0.10860
vt 0.33450 0.59353
vt 0.32857 0.58830
vt 0.93116 0.07834
vt 0.59719 0.33318
vt 0.32679 0.59290
vt 0.40497 0.99404
vt 0.40059 0.99800
vt 0.40005 0.99404
vt 0.53178 0.14202
vt 0.50011 0.12625
vt 0.51217 0.12610
vt 0.23566 0.97654
vt 0.22599 0.98406
vt 0.22464 0.98012
vt 0.23566 0.98477
vt 0.63559 0.86101
vt 0.61327 0.86914
vt 0.60562 0.86126
vt 0.61647 0.33588
vt 0.60583 0.33477
vt 0.98787 0.05067
vt 0.98648 0.05103
vt 0.98348 0.04893
vt 0.81987 0.95218
vt 0.40169 0.99892
vt 0.48590 0.15441
vt 0.48901 0.14127
vt 0.51138 0.14522
vt 0.35636 0.09276
vt 0.98385 0.03741
vt 0.36068 0.09225
vt 0.98700 0.03800
vt 0.99590 0.85297
vt 0.99326 0.86023
vt 0.99304 0.85183
vt 0.85722 0.94352
vt 0.85374 0.94465
vt 0.85173 0.93912
vt 0.45444 0.13714
vt 0.85142 0.93606
vt 0.48370 0.13953
vt 0.48940 0.12673
vt 0.48649 0.12651
vt 0.45765 0.12334
vt 0.98252 0.15108
vt 0.98682 0.13786
vt 0.98656 0.14944
vt 0.85763 0.93414
vt 0.35079 0.08766
vt 0.62947 0.82070
vt 0.62704 0.82976
vt 0.12228 0.64648
vt 0.13001 0.64929
vt 0.12225 0.65649
vt 0.39297 0.46865
vt 0.38616 0.46539
vt 0.39201 0.46507
vt 0.62383 0.83667
vt 0.59666 0.83711
vt 0.14602 0.14700
vt 0.14587 0.15772
vt 0.14081 0.15137
vt 0.73011 0.90128
vt 0.71225 0.89478
vt 0.73650 0.89452
vt 0.12943 0.67966
vt 0.73250 0.90297
vt 0.40268 0.45024
vt 0.98989 0.16136
vt 0.98930 0.16528
vt 0.98101 0.16426
vt 0.14158 0.13813
vt 0.53752 0.98320
vt 0.52980 0.98571
vt 0.53851 0.97409
vt 0.89238 0.06076
vt 0.89526 0.09099
vt 0.88998 0.07435
vt 0.85703 0.92671
vt 0.88810 0.09366
vt 0.62592 0.83714
vt 0.37958 0.43011
vt 0.40886 0.43132
vt 0.88614 0.09826
vt 0.99135 0.16240
vt 0.40020 0.40964
vt 0.40826 0.42078
vt 0.99667 0.82999
vt 0.99667 0.82428
vt 0.99730 0.82634
vt 0.39852 0.46859
vt 0.52933 0.97737
vt 0.30178 0.35792
vt 0.29189 0.35879
vt 0.30280 0.35302
vt 0.17157 0.17196
vt 0.17563 0.16486
vt 0.18031 0.16813
vt 0.29787 0.33426
vt 0.88975 0.06526
vt 0.89065 0.06031
vt 0.00052 0.48558
vt 0.00388 0.48668
vt 0.00014 0.49532
vt 0.00364 0.72715
vt 0.00492 0.73444
vt 0.00312 0.73667
vt 0.88938 0.05098
vt 0.28592 0.35792
vt 0.29480 0.32570
vt 0.27509 0.32107
vt 0.14742 0.14690
vt 0.41199 0.24452
vt 0.40872 0.26305
vt 0.40950 0.24308
vt 0.02529 0.44408
vt 0.02529 0.42376
vt 0.02747 0.43439
vt 0.16602 0.17649
vt 0.40225 0.28196
vt 0.40429 0.28245
vt 0.01486 0.66247
vt 0.01589 0.67426
vt 0.01426 0.67622
vt 0.28551 0.36065
vt 0.60724 0.49572
vt 0.64557 0.49811
vt 0.64769 0.49989
vt 0.40240 0.24209
vt 0.39977 0.25101
vt 0.69117 0.95607
vt 0.69325 0.95589
vt 0.69267 0.96643
vt 0.69159 0.96873
vt 0.15561 0.17709
vt 0.14683 0.18526
vt 0.39397 0.23668
vt 0.38753 0.32661
vt 0.40363 0.29456
vt 0.34303 0.26243
vt 0.34786 0.27463
vt 0.33813 0.27463
vt 0.35726 0.23748
vt 0.39296 0.25950
vt 0.33997 0.24234
vt 0.38727 0.28365
vt 0.38638 0.25397
vt 0.38198 0.23620
vt 0.62902 0.53402
vt 0.64622 0.53240
vt 0.64423 0.53670
vt 0.63990 0.86030
vt 0.63893 0.85176
vt 0.67062 0.85176
vt 0.28905 0.44811
vt 0.30405 0.46517
vt 0.30293 0.47149
vt 0.31962 0.27426
vt 0.74563 0.32936
vt 0.76821 0.34136
vt 0.73883 0.35322
vt 0.62264 0.53469
vt 0.25773 0.41504
vt 0.24420 0.38069
vt 0.25773 0.37953
vt 0.04471 0.20526
vt 0.04122 0.22509
vt 0.04123 0.20305
vt 0.62391 0.53961
vt 0.03965 0.40517
vt 0.03965 0.42348
vt 0.03874 0.40115
vt 0.36312 0.30039
vt 0.30492 0.44792
vt 0.60637 0.53642
vt 0.66194 0.85675
vt 0.29867 0.48729
vt 0.29160 0.49063
vt 0.35438 0.30643
vt 0.23926 0.40245
vt 0.60599 0.54247
vt 0.59271 0.53645
vt 0.37088 0.32942
vt 0.35006 0.32405
vt 0.61796 0.82015
vt 0.36531 0.29435
vt 0.35681 0.28604
vt 0.52555 0.31129
vt 0.52555 0.31129
vt 0.52555 0.31129
vt 0.52555 0.31129
vt 0.52555 0.31129
vt 0.52555 0.31129
vt 0.52555 0.31129
vt 0.52555 0.31129
vt 0.52555 0.31129
vt 0.52555 0.31129
vt 0.52555 0.31129
vt 0.52555 0.31129
vt 0.52555 0.31129
vt 0.52555 0.31129
vt 0.52555 0.31129
vt 0.52555 0.31129
vt 0.52555 0.31129
vt 0.52555 0.31129
vt 0.52555 0.31129
vt 0.52555 0.31129
vt 0.52555 0.31129
vt 0.52555 0.31129
vt 0.52555 0.31129
vt 0.52555 0.31129
vt 0.52555 0.31129
vt 0.52555 0.31129
vt 0.52555 0.31129
vt 0.52555 0.31129
vt 0.52555 0.31129
vt 0.52555 0.31129
vt 0.52555 0.31129
vn 0.9867 -0.0137 -0.1623
vn 0.9869 -0.0202 -0.1598
vn 0.9862 0.0362 -0.1613
vn 0.9864 -0.0417 -0.1594
vn 0.9959 -0.0552 0.0715
vn 0.9426 -0.1581 0.2943
vn 0.9761 0.0886 -0.1987
vn 0.9763 0.0935 -0.1953
vn 0.9742 0.0861 -0.2088
vn 0.2640 -0.3456 -0.9005
vn 0.2640 -0.3456 -0.9005
vn 0.2640 -0.3456 -0.9005
vn 0.9813 0.0572 -0.1835
vn 0.9854 -0.0382 -0.1659
vn -0.0587 -0.2659 -0.9622
vn -0.0527 -0.2810 -0.9583
vn -0.0491 -0.2833 -0.9577
vn -0.0574 0.9530 -0.2976
vn -0.0505 0.9614 -0.2706
vn -0.0203 0.9905 -0.1363
vn -0.0554 -0.5781 -0.8140
vn -0.0481 -0.5745 -0.8170
vn -0.0741 -0.5543 -0.8290
vn 0.2703 -0.9290 0.2529
vn 0.2131 -0.9427 0.2567
vn 0.2750 -0.9276 0.2526
vn -0.0117 -0.9976 -0.0682
vn -0.0109 -0.9975 -0.0694
vn -0.0100 -0.9970 -0.0769
vn -0.2006 0.9464 0.2531
vn -0.1883 0.9498 0.2498
vn -0.0761 0.9731 0.2175
vn 0.0271 0.2959 -0.9548
vn 0.0135 0.3140 -0.9493
vn 0.0170 0.3289 -0.9442
vn 0.9957 0.0305 -0.0873
vn 0.9979 0.0643 -0.0020
vn 0.9983 0.0446 -0.0383
vn -0.1937 -0.2865 -0.9383
vn 0.9798 0.0893 -0.1787
vn 0.2097 -0.9434 0.2569
vn 0.9847 -0.0285 -0.1721
vn -0.0233 0.9850 -0.1711
vn 0.9821 0.0811 -0.1698
vn -0.0090 -0.9971 -0.0762
vn 0.5703 0.3256 0.7542
vn 0.4516 0.3863 0.8042
vn 0.4943 0.3490 0.7962
vn -0.0171 -0.9999 -0.0022
vn 0.9671 -0.1254 -0.2210
vn 0.9729 -0.1311 -0.1907
vn 0.9705 -0.1176 -0.2105
vn 0.5607 0.3178 0.7645
vn 0.6341 0.3022 0.7117
vn -0.0236 0.9847 -0.1727
vn 0.6357 0.2469 0.7314
vn 0.9914 -0.0556 -0.1186
vn 0.1769 0.0931 0.9798
vn 0.1769 0.0931 0.9798
vn 0.1769 0.0931 0.9798
vn -0.0362 -0.5852 -0.8101
vn 0.0108 0.3394 -0.9406
vn 0.0236 0.3585 -0.9332
vn -0.9989 -0.0466 -0.0004
vn -0.9886 0.0848 0.1247
vn -0.9990 -0.0373 -0.0233
vn -0.0698 0.1736 -0.9823
vn -0.0695 0.1818 -0.9809
vn -0.0802 0.1952 -0.9775
vn -0.0948 0.9341 -0.3441
vn -0.0723 0.9252 -0.3726
vn -0.0729 0.9254 -0.3719
vn 0.9863 0.0560 0.1554
vn 0.9862 -0.0627 -0.1529
vn 0.1171 0.6159 0.7790
vn 0.0836 0.6957 0.7134
vn 0.1264 0.5923 0.7957
vn -0.9972 -0.0757 0.0019
vn -0.1515 -0.2523 -0.9558
vn -0.0252 -0.5720 -0.8199
vn 0.5563 0.6206 -0.5527
vn 0.5563 0.6206 -0.5527
vn 0.5563 0.6206 -0.5527
vn -0.9954 -0.0946 0.0191
vn -0.0626 0.9750 0.2134
vn 0.9972 0.0697 -0.0282
vn 0.1552 -0.3422 0.9267
vn 0.0583 -0.2988 0.9525
vn 0.3032 -0.3300 0.8940
vn 0.0720 0.6819 0.7278
vn -0.9630 0.1429 0.2287
vn -0.0160 -0.3303 0.9437
vn -0.2061 -0.3493 -0.9141
vn 0.9746 -0.1264 -0.1845
vn -0.1962 -0.3513 -0.9154
vn 0.0452 0.6255 0.7789
vn -0.0824 0.0848 -0.9930
vn 0.9951 0.0144 -0.0970
vn 0.9741 -0.1264 -0.1878
vn -0.2658 -0.7230 0.6377
vn -0.2658 -0.7230 0.6377
vn -0.2658 -0.7230 0.6377
vn -0.1338 0.9520 -0.2753
vn -0.1803 0.9621 -0.2043
vn -0.0466 0.9628 -0.2663
vn -0.0505 0.9153 -0.3995
vn -0.9749 0.0349 -0.2197
vn -0.9773 0.0271 -0.2102
vn -0.9736 0.0113 -0.2280
vn -0.2728 0.9230 0.2716
vn -0.1207 0.9700 0.2109
vn -0.3897 0.8628 0.3222
vn 0.0014 -0.3200 0.9474
vn -0.0215 -0.9753 0.2200
vn -0.0420 -0.9728 0.2278
vn 0.0274 -0.9751 0.2199
vn 0.9819 -0.1021 -0.1594
vn -0.9872 0.0049 0.1598
vn -0.9942 -0.0080 0.1071
vn -0.9897 0.0888 0.1125
vn -0.1242 -0.0282 -0.9919
vn -0.9733 0.0037 -0.2294
vn 0.0544 -0.9702 0.2361
vn -0.0411 0.8197 0.5714
vn -0.0145 0.8347 0.5506
vn 0.0388 0.8613 0.5066
vn -0.1331 0.9660 -0.2218
vn -0.1689 0.9717 -0.1655
vn 0.3120 0.0551 0.9484
vn 0.3021 0.1039 0.9476
vn 0.3052 0.1074 0.9462
vn -0.1208 0.9739 0.1920
vn 0.3227 0.0348 0.9459
vn 0.3985 0.1489 0.9050
vn 0.3156 0.0611 0.9469
vn 0.2099 0.1174 0.9706
vn 0.2908 -0.0077 0.9567
vn 0.0522 -0.8433 0.5349
vn 0.0627 -0.8398 0.5392
vn 0.0238 -0.8363 0.5478
vn 0.1915 0.1356 0.9721
vn -0.9788 0.1758 0.1049
vn -0.9940 -0.1057 0.0262
vn -0.1627 -0.4237 0.8911
vn 0.9591 -0.0031 -0.2830
vn 0.8984 0.1030 -0.4270
vn 0.9292 0.0494 -0.3663
vn 0.0337 0.6003 0.7991
vn -0.9980 -0.0038 0.0640
vn -0.1546 -0.1014 -0.9828
vn -0.9941 -0.0510 -0.0957
vn 0.4519 0.6817 0.5755
vn 0.4311 0.6921 0.5789
vn 0.4511 0.6848 0.5724
vn 0.9577 -0.0794 -0.2767
vn -0.2357 -0.5432 0.8058
vn 0.7989 -0.1682 -0.5774
vn 0.8437 -0.1393 -0.5185
vn 0.8436 -0.1394 -0.5187
vn 0.9318 -0.0636 -0.3573
vn -0.1332 0.9718 0.1944
vn 0.0219 0.2310 0.9727
vn -0.0824 0.9867 -0.1405
vn 0.5734 0.8171 -0.0591
vn 0.3756 0.8984 -0.2276
vn 0.5460 0.8335 -0.0852
vn 0.0921 0.8833 0.4596
vn -0.9888 -0.0891 0.1200
vn -0.9880 -0.1361 0.0734
vn 0.7464 0.1761 -0.6418
vn 0.6902 0.1621 -0.7053
vn 0.7721 0.1826 -0.6087
vn 0.6318 0.7751 -0.0001
vn 0.9575 -0.0718 -0.2793
vn 0.9572 -0.1118 -0.2670
vn 0.9554 -0.1282 -0.2658
vn 0.4463 0.6826 0.5787
vn 0.8073 0.1914 -0.5583
vn 0.0677 -0.9638 0.2581
vn -0.9909 -0.1256 0.0492
vn -0.0782 -0.1100 -0.9909
vn -0.0890 -0.1067 -0.9903
vn 0.1276 -0.9727 -0.1940
vn 0.0152 -0.9917 -0.1275
vn 0.0766 -0.9859 -0.1486
vn -0.0077 -0.8386 0.5448
vn -0.8628 -0.2793 0.4214
vn 0.2817 0.7147 0.6402
vn 0.2845 0.7299 0.6216
vn -0.0759 -0.8467 0.5266
vn -0.0148 -0.8224 0.5687
vn -0.0857 -0.8680 0.4892
vn -0.9956 -0.0739 -0.0588
vn -0.3767 0.9260 0.0233
vn -0.9608 0.1367 0.2410
vn -0.9573 0.0992 0.2713
vn -0.9737 0.1297 0.1874
vn -0.3556 0.1743 -0.9183
vn -0.3556 0.1743 -0.9183
vn -0.3556 0.1743 -0.9183
vn -0.2914 0.9547 -0.0609
vn -0.2914 0.9547 -0.0609
vn -0.2914 0.9547 -0.0609
vn 0.9268 -0.0638 -0.3699
vn 0.9330 -0.1448 -0.3293
vn 0.9477 -0.1080 -0.3006
vn 0.8840 -0.0458 -0.4653
vn 0.7766 0.0630 -0.6269
vn 0.8655 -0.1755 -0.4692
vn -0.0318 -0.9561 0.2914
vn 0.9039 -0.0649 -0.4228
vn 0.9499 -0.2933 -0.1087
vn 0.9145 -0.3882 -0.1145
vn 0.9679 -0.2376 -0.0813
vn -0.1058 0.8104 -0.5763
vn -0.1064 0.8029 -0.5866
vn -0.1066 0.7921 -0.6010
vn -0.1376 0.1759 0.9747
vn 0.3064 0.7334 0.6068
vn 0.2890 0.7162 0.6352
vn 0.9260 -0.3681 -0.0838
vn 0.1566 0.9733 0.1678
vn 0.1868 0.9509 0.2469
vn 0.0864 0.9884 -0.1245
vn 0.8730 -0.0466 -0.4855
vn 0.9876 -0.1447 -0.0611
vn 0.9876 -0.1447 -0.0611
vn -0.3366 0.9415 -0.0175
vn 0.9804 -0.0311 -0.1945
vn 0.3488 0.8762 0.3326
vn -0.5893 0.3760 -0.7151
vn -0.7149 0.3017 -0.6307
vn -0.6724 0.3239 -0.6656
vn -0.0501 -0.9863 -0.1570
vn -0.9847 -0.0520 -0.1663
vn 0.8982 -0.0557 -0.4361
vn 0.9637 -0.2089 -0.1662
vn 0.2805 0.6725 -0.6849
vn 0.2486 0.6920 -0.6778
vn 0.0259 0.7904 -0.6121
vn 0.8976 -0.0028 -0.4408
vn -0.0514 -0.8780 0.4758
vn -0.6645 0.5175 -0.5391
vn -0.6629 0.5197 -0.5389
vn -0.6618 0.5212 -0.5389
vn 0.9742 -0.0261 -0.2238
vn 0.8664 -0.0401 -0.4978
vn 0.8894 0.0138 -0.4569
vn 0.0518 0.7876 -0.6140
vn -0.2965 -0.3085 0.9038
vn -0.2965 -0.3085 0.9038
vn -0.2965 -0.3085 0.9038
vn 0.9125 0.0347 -0.4075
vn 0.8980 -0.0469 -0.4376
vn 0.9653 -0.2558 -0.0528
vn 0.0189 -0.8174 0.5757
vn 0.0161 -0.9915 -0.1291
vn -0.0193 -0.9866 -0.1618
vn -0.1117 0.8179 -0.5644
vn 0.9984 0.0524 -0.0246
vn -0.9814 0.1386 0.1332
vn -0.9851 0.0845 0.1497
vn -0.9713 0.0371 0.2346
vn 0.5414 0.6974 0.4696
vn 0.5423 0.6837 0.4884
vn 0.5273 0.6946 0.4893
vn 0.9775 -0.2017 -0.0615
vn 0.4072 -0.7262 -0.5539
vn 0.4072 -0.7262 -0.5539
vn 0.4072 -0.7262 -0.5539
vn 0.0429 0.5451 0.8373
vn 0.0188 0.5251 0.8508
vn -0.0462 0.4683 0.8823
vn -0.9646 0.1522 0.2150
vn -0.9601 0.2117 0.1824
vn -0.3563 0.4972 -0.7911
vn -0.3443 0.4795 -0.8072
vn -0.3560 0.4977 -0.7910
vn -0.2416 -0.8056 0.5409
vn 0.9095 0.0243 -0.4149
vn -0.3042 -0.8335 -0.4613
vn -0.2998 -0.8270 -0.4756
vn -0.3003 -0.8387 -0.4543
vn 0.4829 0.7937 0.3699
vn -0.1586 0.7760 -0.6104
vn -0.0984 0.7852 -0.6114
vn -0.6605 0.5229 -0.5388
vn -0.9615 0.2476 0.1190
vn 0.9904 -0.1336 -0.0334
vn 0.9758 -0.1859 -0.1148
vn 0.9813 -0.1584 -0.1091
vn 0.9211 -0.0087 -0.3892
vn 0.8486 -0.0769 -0.5233
vn 0.9194 -0.0096 -0.3930
vn 0.0432 0.7952 -0.6049
vn 0.9265 -0.0302 -0.3751
vn 0.8884 -0.1159 -0.4441
vn -0.1652 -0.7951 0.5835
vn 0.0330 -0.6457 -0.7629
vn -0.0962 -0.8216 -0.5618
vn -0.0737 -0.7479 -0.6598
vn -0.0306 0.5649 -0.8247
vn -0.0119 0.5747 -0.8183
vn -0.0546 0.6116 -0.7893
vn -0.9631 -0.1136 0.2440
vn -0.9776 0.1333 0.1630
vn 0.9192 0.0255 -0.3929
vn -0.3698 -0.0749 -0.9260
vn -0.3371 -0.1476 -0.9298
vn -0.3805 -0.0831 -0.9210
vn 0.5629 0.4834 0.6705
vn 0.4598 0.4090 0.7882
vn 0.4738 0.4260 0.7707
vn 0.4623 0.4876 0.7406
vn 0.4737 0.4892 0.7323
vn 0.1552 0.6302 0.7607
vn -0.9899 -0.1195 -0.0770
vn 0.7342 0.4133 0.5387
vn -0.3040 -0.8403 -0.4489
vn 0.0162 0.6431 -0.7656
vn 0.0781 0.6487 -0.7570
vn 0.0454 0.6815 -0.7304
vn -0.9613 0.2423 0.1310
vn 0.9183 0.0435 -0.3937
vn -0.7293 0.3716 -0.5745
vn -0.7542 0.2724 -0.5976
vn 0.8045 0.4019 0.4373
vn -0.9653 -0.1023 0.2400
vn -0.1062 -0.8938 -0.4357
vn 0.1396 0.9754 -0.1706
vn -0.0767 0.8490 -0.5229
vn -0.0337 0.8605 -0.5083
vn -0.0777 0.8664 -0.4932
vn -0.2567 0.1337 0.9572
vn 0.8421 0.0413 -0.5376
vn 0.8271 -0.0568 -0.5591
vn 0.8755 0.0584 -0.4796
vn 0.7640 -0.0265 -0.6447
vn 0.8659 -0.2222 -0.4482
vn 0.9015 0.0720 -0.4267
vn 0.0066 0.6588 -0.7522
vn -0.9721 0.1181 0.2027
vn 0.8465 0.0874 -0.5251
vn -0.9389 0.0413 0.3416
vn 0.8544 0.0772 -0.5138
vn 0.1743 0.9706 -0.1659
vn -0.0404 -0.9204 -0.3887
vn 0.7889 0.0227 -0.6142
vn 0.9393 0.0458 -0.3401
vn -0.4583 -0.0931 -0.8838
vn -0.4583 -0.0931 -0.8838
vn -0.4583 -0.0931 -0.8838
vn 0.9464 0.0398 -0.3206
vn -0.0572 0.8879 -0.4564
vn -0.0572 0.8879 -0.4564
vn -0.0572 0.8879 -0.4564
vn 0.9858 -0.1608 -0.0490
vn -0.0796 -0.9176 -0.3893
vn -0.1578 -0.8997 -0.4070
vn -0.1645 -0.9067 -0.3884
vn 0.2193 -0.6816 0.6980
vn 0.2584 -0.6049 0.7532
vn 0.2083 -0.6886 0.6946
vn -0.4814 -0.7354 0.4768
vn -0.1090 -0.9221 -0.3712
vn -0.0314 0.6184 -0.7852
vn -0.9909 0.1267 -0.0463
vn 0.3217 -0.1253 0.9385
vn 0.3217 -0.1253 0.9385
vn 0.3217 -0.1253 0.9385
vn -0.4453 0.1278 0.8862
vn -0.9717 0.2302 -0.0529
vn -0.5602 0.0354 0.8276
vn -0.7345 -0.5171 0.4394
vn -0.8829 -0.4309 0.1864
vn -0.7378 -0.5745 0.3544
vn -0.3177 0.2779 -0.9065
vn -0.0646 0.3760 -0.9243
vn -0.0236 0.2974 -0.9545
vn 0.2705 -0.5947 0.7571
vn 0.2769 -0.6085 0.7437
vn -0.4965 -0.4195 -0.7600
vn -0.4853 -0.3875 -0.7838
vn -0.5004 -0.4314 -0.7506
vn 0.9581 0.0423 -0.2835
vn 0.4629 0.8176 0.3423
vn -0.2944 -0.8478 -0.4411
vn -0.1078 0.8240 -0.5562
vn -0.3346 -0.7268 0.5998
vn -0.0398 0.8394 -0.5421
vn 0.0187 0.8627 -0.5053
vn -0.1265 -0.9101 -0.3945
vn -0.4125 0.1409 -0.9000
vn -0.3953 0.2103 -0.8942
vn -0.0866 -0.4606 0.8834
vn -0.0292 -0.4252 0.9046
vn 0.1001 -0.5508 0.8286
vn 0.0404 0.4995 -0.8654
vn -0.4813 -0.3766 -0.7915
vn 0.1754 -0.7601 0.6257
vn 0.4899 0.7692 0.4103
vn 0.4935 0.7843 0.3758
vn 0.5013 0.8448 0.1872
vn -0.0061 -0.9318 -0.3630
vn 0.1175 -0.8151 0.5673
vn 0.1349 -0.8143 0.5646
vn 0.1386 -0.8512 0.5062
vn 0.4824 0.7427 0.4644
vn -0.8836 -0.2586 0.3904
vn -0.3668 0.5140 -0.7754
vn 0.1120 -0.7560 0.6450
vn 0.1365 0.3879 -0.9115
vn -0.0223 -0.3731 0.9275
vn 0.1087 -0.5301 0.8409
vn 0.0253 -0.9498 -0.3117
vn 0.0303 -0.9463 -0.3219
vn -0.0929 0.8180 -0.5677
vn -0.9562 0.2012 0.2126
vn -0.9491 0.1822 0.2569
vn -0.9569 0.1867 0.2226
vn -0.3659 0.5107 -0.7780
vn -0.1202 0.8483 -0.5156
vn 0.1263 -0.7682 0.6276
vn -0.1002 0.8271 -0.5530
vn -0.8914 0.0592 0.4493
vn -0.9552 0.1613 0.2482
vn -0.9138 0.0850 0.3973
vn -0.3874 0.2280 -0.8932
vn -0.9377 0.1542 0.3111
vn 0.4396 0.4478 0.7787
vn 0.4396 0.4478 0.7787
vn 0.4396 0.4478 0.7787
vn -0.8910 0.0945 0.4441
vn -0.8768 0.0124 0.4806
vn 0.3020 0.1924 -0.9337
vn -0.8823 0.0428 0.4687
vn 0.0164 -0.7333 0.6797
vn 0.1317 -0.6827 0.7188
vn 0.5106 0.7903 -0.3388
vn 0.5106 0.7903 -0.3388
vn 0.5106 0.7903 -0.3388
vn -0.6540 -0.3034 -0.6930
vn -0.7437 -0.1368 -0.6544
vn -0.7121 -0.1856 -0.6771
vn -0.3829 -0.3469 -0.8562
vn -0.3829 -0.3469 -0.8562
vn -0.3829 -0.3469 -0.8562
vn 0.3285 -0.3143 0.8907
vn 0.3285 -0.3143 0.8907
vn 0.3285 -0.3143 0.8907
vn -0.0077 -0.9349 -0.3548
vn -0.8718 0.0134 0.4897
vn -0.9528 0.2210 0.2086
vn -0.9644 0.1678 0.2048
vn -0.9626 0.1487 0.2265
vn -0.7236 -0.3663 -0.5850
vn -0.0549 -0.8525 -0.5198
vn -0.1848 -0.8398 -0.5105
vn 0.0084 -0.8534 -0.5211
vn 0.1195 0.1684 -0.9785
vn 0.2025 -0.6063 0.7690
vn -0.2153 -0.8346 -0.5070
vn -0.8735 -0.0323 0.4857
vn -0.8551 -0.0572 0.5153
vn 0.1784 -0.7646 0.6193
vn -0.9076 0.2210 0.3570
vn -0.9536 0.1458 0.2632
vn -0.9109 -0.0139 0.4124
vn 0.0437 0.0218 0.9988
vn 0.1048 -0.0325 0.9940
vn 0.2386 -0.1531 0.9590
vn 0.0292 0.8890 0.4570
vn 0.1411 0.8978 0.4172
vn 0.0373 0.8883 0.4578
vn 0.1286 -0.7967 0.5906
vn 0.2238 -0.8155 0.5337
vn 0.2441 -0.8182 0.5205
vn -0.9308 0.0551 0.3615
vn -0.9177 0.0686 0.3911
vn -0.9324 0.0037 0.3615
vn -0.9075 0.0950 0.4090
vn -0.8502 -0.1064 0.5157
vn -0.8965 -0.0319 0.4418
vn 0.1372 -0.7122 0.6884
vn -0.1051 -0.6332 0.7668
vn -0.0987 -0.6370 0.7644
vn -0.1372 -0.6131 0.7780
vn 0.3906 0.8264 0.4055
vn 0.3499 0.8237 0.4461
vn 0.3897 0.8248 0.4097
vn -0.7499 -0.3721 -0.5469
vn -0.9158 0.0419 0.3994
vn -0.9176 -0.0097 0.3974
vn -0.1949 0.8990 0.3922
vn 0.1885 -0.6259 0.7567
vn -0.1466 -0.6070 0.7811
vn -0.0982 0.1464 0.9843
vn -0.6003 0.7561 -0.2607
vn -0.6003 0.7561 -0.2607
vn -0.6003 0.7561 -0.2607
vn 0.2359 0.8047 0.5448
vn 0.1146 -0.7932 0.5981
vn -0.3050 -0.9240 0.2306
vn -0.2860 -0.9304 0.2292
vn -0.1943 -0.9558 0.2209
vn -0.9742 0.1333 0.1818
vn -0.8726 0.1986 0.4461
vn -0.7831 0.2624 0.5639
vn -0.1763 -0.9597 0.2190
vn 0.0124 -0.9369 -0.3494
vn -0.9394 0.2589 -0.2245
vn -0.9227 0.2752 -0.2700
vn -0.9461 0.2704 -0.1780
vn -0.0007 -0.9036 -0.4284
vn -0.9457 0.0168 0.3245
vn -0.1809 0.8925 0.4132
vn -0.9831 0.0852 0.1619
vn -0.9879 0.0463 0.1479
vn 0.1597 0.7834 0.6006
vn -0.9374 0.2582 -0.2334
vn -0.0820 -0.9371 -0.3394
vn -0.2505 -0.8812 -0.4008
vn -0.1490 -0.9244 -0.3512
vn -0.9510 0.0425 0.3063
vn 0.9201 0.2030 0.3351
vn 0.9050 0.2358 0.3543
vn 0.8534 0.3244 0.4080
vn -0.9701 0.2157 -0.1118
vn -0.7274 0.2078 -0.6539
vn -0.7870 0.1684 -0.5936
vn -0.6904 0.1661 -0.7042
vn 0.2130 -0.0213 -0.9768
vn 0.1911 -0.0381 -0.9808
vn 0.1667 0.0008 -0.9860
vn -0.9354 0.3143 -0.1621
vn 0.0628 -0.0185 -0.9979
vn -0.0175 -0.9482 -0.3171
vn 0.1502 0.0422 -0.9877
vn 0.2938 0.0573 -0.9541
vn -0.8271 0.1271 -0.5475
vn -0.2110 0.9014 0.3782
vn 0.8951 0.3155 0.3152
vn 0.9044 0.2864 0.3162
vn 0.9232 0.2944 0.2471
vn -0.2174 -0.9748 -0.0500
vn -0.0173 -0.9333 -0.3586
vn -0.9430 0.1908 0.2728
vn -0.9434 0.2175 0.2506
vn -0.9589 0.1594 0.2347
vn -0.3746 -0.2521 0.8922
vn -0.3364 -0.2658 0.9034
vn -0.3757 -0.3248 0.8680
vn 0.1570 -0.6430 0.7496
vn -0.9484 0.1845 0.2577
vn -0.8513 0.3741 -0.3678
vn 0.8569 0.3314 0.3948
vn -0.4842 -0.4353 0.7591
vn -0.9647 0.0294 0.2616
vn -0.9821 0.1783 -0.0605
vn -0.5982 -0.5774 0.5557
vn -0.9546 0.0275 0.2966
vn -0.9448 0.2169 0.2454
vn 0.3902 -0.9188 0.0598
vn 0.4293 -0.9011 0.0618
vn 0.3877 -0.9198 0.0598
vn 0.2785 -0.5065 0.8160
vn 0.2569 -0.5393 0.8020
vn -0.8907 0.3982 -0.2192
vn 0.3906 -0.9198 0.0383
vn 0.3616 -0.9309 -0.0515
vn 0.3671 -0.9298 -0.0256
vn 0.1264 0.0245 -0.9916
vn -0.3716 -0.2339 0.8984
vn -0.3353 -0.2577 0.9062
vn -0.9111 -0.0122 0.4119
vn 0.8338 0.2720 0.4804
vn 0.7270 0.2482 0.6402
vn 0.8484 0.2146 0.4840
vn 0.8129 0.0017 0.5823
vn 0.7832 0.0021 0.6217
vn 0.8056 -0.0051 0.5925
vn -0.9214 0.3781 -0.0899
vn 0.6822 -0.0597 -0.7287
vn 0.6674 -0.0455 -0.7434
vn 0.6731 -0.0540 -0.7375
vn 0.6663 -0.0394 -0.7446
vn -0.4119 -0.1351 0.9012
vn 0.7005 -0.0749 -0.7097
vn 0.7315 0.2422 0.6373
vn -0.4129 0.9029 -0.1197
vn -0.4036 0.8798 -0.2510
vn -0.4087 0.8797 -0.2430
vn 0.7294 0.2932 0.6180
vn 0.8328 0.3789 0.4035
vn -0.7129 0.5631 -0.4180
vn 0.3455 -0.9352 0.0782
vn -0.2294 -0.2917 0.9286
vn -0.0212 -0.0415 -0.9989
vn -0.0362 -0.0099 0.9993
vn -0.0635 -0.0692 0.9956
vn -0.1090 0.0442 0.9930
vn -0.2080 -0.6418 0.7381
vn -0.2080 -0.6418 0.7381
vn -0.2080 -0.6418 0.7381
vn -0.0892 -0.0972 0.9912
vn -0.5939 -0.8015 -0.0699
vn -0.5939 -0.8015 -0.0699
vn -0.5939 -0.8015 -0.0699
vn -0.1072 -0.9191 -0.3792
vn 0.0835 -0.9342 -0.3467
vn -0.1075 -0.9190 -0.3792
vn 0.1947 0.0243 -0.9805
vn -0.5811 -0.0826 -0.8096
vn -0.3175 -0.1011 -0.9429
vn -0.4016 -0.1526 -0.9031
vn 0.7894 -0.0032 0.6138
vn -0.4261 0.8822 -0.2006
vn -0.4281 0.9016 -0.0626
vn -0.9931 0.0145 -0.1166
vn -0.9938 0.0023 -0.1115
vn -0.9932 0.0112 -0.1164
vn -0.1342 0.0805 0.9877
vn -0.9923 0.0164 -0.1223
vn -0.2563 0.1404 0.9564
vn -0.3747 0.9059 0.1974
vn -0.9924 0.0195 -0.1222
vn 0.7661 0.0051 0.6427
vn 0.7769 -0.0063 0.6295
vn -0.2899 -0.8708 -0.3971
vn -0.1826 0.9573 0.2241
vn -0.0877 0.9933 0.0754
vn -0.0727 0.9960 0.0522
vn 0.3690 -0.8136 0.4493
vn 0.3690 -0.8136 0.4493
vn 0.3690 -0.8136 0.4493
vn -0.4547 -0.1659 -0.8750
vn -0.4652 -0.1310 -0.8755
vn 0.7836 -0.0115 0.6210
vn -0.5808 0.8078 -0.1007
vn -0.5684 0.8133 -0.1240
vn -0.5760 0.8100 -0.1098
vn -0.9933 0.0252 -0.1129
vn -0.3078 0.9400 -0.1472
vn -0.9924 0.0271 -0.1205
vn -0.5876 0.8044 -0.0872
vn -0.2100 -0.1622 0.9641
vn -0.1234 -0.4081 0.9046
vn -0.1764 -0.0625 0.9823
vn -0.1988 0.1369 0.9704
vn -0.3773 -0.1636 -0.9116
vn -0.1657 -0.5108 0.8436
vn -0.2036 0.9446 0.2576
vn -0.9695 0.0232 0.2438
vn -0.9565 0.1878 0.2235
vn -0.9562 0.0136 0.2927
vn -0.3275 0.1392 0.9346
vn -0.3878 0.2156 0.8961
vn -0.9782 0.0450 0.2027
vn -0.9917 0.0306 -0.1254
vn -0.1120 0.6706 0.7334
vn -0.1120 0.6706 0.7334
vn -0.1120 0.6706 0.7334
vn -0.9036 0.3915 0.1738
vn -0.7019 -0.6417 0.3091
vn -0.7019 -0.6417 0.3091
vn -0.7019 -0.6417 0.3091
vn -0.3765 0.1732 0.9100
vn -0.9868 -0.0757 -0.1426
vn -0.9730 -0.0756 0.2181
vn -0.9739 -0.1026 0.2024
vn 0.9876 -0.1447 -0.0611
vn -0.9869 -0.1526 -0.0525
vn -0.8999 0.1167 0.4202
vn -0.8887 0.0238 0.4579
vn 0.8462 -0.5083 0.1596
vn 0.8525 -0.5223 -0.0198
vn 0.8489 -0.5244 -0.0665
vn 0.6659 -0.0877 -0.7408
vn 0.6664 -0.0904 -0.7402
vn 0.6598 -0.0936 -0.7456
vn 0.7344 -0.0029 -0.6787
vn 0.7758 -0.0205 -0.6306
vn 0.7591 0.0247 -0.6504
vn 0.9010 -0.3924 0.1849
vn 0.8947 -0.4037 0.1911
vn 0.8980 -0.4020 0.1785
vn 0.8358 0.1248 -0.5347
vn 0.7557 0.1130 -0.6451
vn 0.8274 0.1840 -0.5306
vn 0.7257 0.1313 -0.6753
vn 0.7171 0.1298 -0.6848
vn 0.6435 0.0038 -0.7654
vn 0.8257 -0.4867 0.2853
vn 0.6711 0.0687 -0.7381
vn 0.8969 -0.3980 0.1927
vn 0.8370 -0.4665 0.2859
vn 0.6113 -0.0954 -0.7856
vn 0.6664 0.1571 -0.7288
vn 0.8075 0.2013 -0.5544
vn 0.7532 -0.0526 -0.6557
vn 0.7471 0.1352 -0.6509
vn 0.7330 0.1792 -0.6561
vn 0.8963 -0.3990 0.1936
vn 0.7276 -0.0198 -0.6857
vn 0.7852 -0.4703 0.4028
vn 0.8207 -0.4435 0.3602
vn 0.8311 -0.4715 0.2951
vn -0.7713 -0.0846 0.6308
vn -0.7713 -0.0846 0.6308
vn -0.7713 -0.0846 0.6308
vn 0.9129 -0.1241 -0.3890
vn 0.8634 -0.0746 -0.4989
vn 0.8270 -0.4911 0.2738
vn 0.5946 -0.1096 -0.7965
vn 0.7729 0.0590 -0.6318
vn 0.6338 -0.1556 -0.7578
vn 0.7560 -0.4953 0.4278
vn 0.5785 -0.1228 -0.8064
vn 0.7257 -0.0430 -0.6867
vn 0.7825 0.1373 -0.6073
vn 0.8451 -0.5162 0.1386
vn 0.8592 -0.3907 0.3303
vn 0.9050 -0.3811 0.1895
vn 0.4380 -0.1327 -0.8891
vn 0.7579 0.1870 -0.6249
vn 0.8582 -0.4626 0.2223
vn -0.8070 0.1653 -0.5669
vn -0.7453 0.1889 -0.6395
vn -0.8459 0.1716 -0.5049
vn 0.8160 -0.4818 0.3194
vn 0.8158 -0.4773 0.3264
vn -0.2500 -0.9015 -0.3532
vn -0.3783 -0.8729 -0.3082
vn -0.2232 -0.9092 -0.3516
vn 0.0059 -0.9085 -0.4179
vn 0.7728 -0.6271 0.0980
vn 0.7977 -0.4976 0.3406
vn 0.7744 -0.5199 0.3606
vn 0.3662 -0.1297 -0.9215
vn 0.6379 -0.1448 -0.7564
vn 0.7471 -0.5463 0.3787
vn -0.2149 -0.8181 -0.5334
vn -0.3875 -0.7779 -0.4947
vn -0.0905 -0.8302 -0.5499
vn -0.5004 0.6718 -0.5462
vn -0.5330 0.6662 -0.5216
vn -0.5196 0.6613 -0.5410
vn 0.3489 0.9245 0.1537
vn 0.3184 0.9451 0.0734
vn 0.2837 0.9589 -0.0115
vn 0.3708 0.9034 0.2154
vn 0.9895 -0.0932 -0.1107
vn 0.9895 -0.0932 -0.1107
vn 0.9895 -0.0932 -0.1107
vn 0.6648 -0.2218 -0.7133
vn 0.6605 -0.2058 -0.7220
vn 0.1643 -0.5067 0.8464
vn 0.1960 -0.5822 0.7891
vn 0.1926 -0.4982 0.8454
vn -0.1326 -0.9197 -0.3695
vn -0.5685 -0.7009 -0.4307
vn 0.8511 -0.0357 -0.5238
vn 0.8629 -0.0382 -0.5040
vn 0.8462 0.1317 -0.5162
vn 0.6930 -0.7209 -0.0018
vn 0.0100 -0.3793 0.9252
vn 0.7403 -0.6721 0.0169
vn -0.0445 -0.3433 0.9382
vn 0.9189 -0.3525 -0.1772
vn 0.9189 -0.3525 -0.1772
vn 0.9189 -0.3525 -0.1772
vn 0.1610 -0.7597 -0.6300
vn 0.2272 -0.6826 -0.6945
vn -0.0148 -0.8549 -0.5185
vn 0.7459 -0.1982 -0.6358
vn 0.0952 -0.8315 -0.5474
vn -0.6026 0.4431 -0.6638
vn -0.5238 0.6283 -0.5752
vn -0.6426 0.3988 -0.6543
vn -0.8926 0.0865 -0.4426
vn -0.5976 0.3647 -0.7140
vn -0.5976 0.3647 -0.7140
vn -0.5976 0.3647 -0.7140
vn 0.1437 -0.8150 -0.5614
vn 0.6288 -0.7765 -0.0412
vn 0.9531 -0.2991 -0.0459
vn 0.9340 -0.3511 -0.0670
vn 0.5440 0.1034 -0.8327
vn 0.4619 0.2123 -0.8612
vn 0.4000 0.2850 -0.8711
vn 0.6829 -0.5308 0.5019
vn 0.5108 -0.8095 0.2897
vn 0.5238 -0.7841 0.3328
vn 0.8913 -0.4182 -0.1756
vn 0.9722 -0.2324 -0.0254
vn 0.7430 0.2517 -0.6201
vn 0.7313 0.2951 -0.6148
vn 0.7356 0.2755 -0.6188
vn -0.1038 0.3325 -0.9374
vn -0.1709 0.1792 -0.9689
vn -0.1266 0.2823 -0.9509
vn 0.3352 0.3543 -0.8729
vn -0.0061 0.5287 -0.8488
vn 0.3905 -0.8976 0.2044
vn 0.1768 0.9620 0.2082
vn 0.1395 0.9631 0.2302
vn 0.1084 0.9627 0.2481
vn 0.7595 0.2238 -0.6109
vn -0.5495 0.0773 -0.8319
vn -0.5060 0.1372 -0.8516
vn -0.5069 0.1359 -0.8512
vn -0.7784 0.2650 -0.5690
vn -0.5308 0.3533 -0.7704
vn -0.6245 0.2446 -0.7418
vn 0.1457 -0.8210 -0.5520
vn -0.5566 0.5348 -0.6357
vn 0.7061 -0.5974 -0.3802
vn 0.5112 -0.7813 0.3582
vn 0.4998 -0.7945 0.3448
vn -0.5666 0.6273 -0.5343
vn 0.2441 0.9553 0.1670
vn 0.5864 -0.6338 0.5043
vn 0.5746 -0.6597 0.4843
vn -0.4402 -0.1950 0.8764
vn -0.4402 -0.1950 0.8764
vn -0.4402 -0.1950 0.8764
vn 0.2745 -0.9298 0.2453
vn -0.4652 0.1890 -0.8647
vn 0.1656 0.2907 -0.9424
vn 0.1735 0.1897 -0.9664
vn 0.1674 0.2745 -0.9468
vn 0.1826 -0.4851 0.8553
vn 0.0951 -0.4884 0.8674
vn 0.0657 -0.5247 0.8488
vn 0.2719 0.2325 -0.9339
vn -0.7594 0.2387 -0.6053
vn -0.9228 0.2504 -0.2929
vn 0.5848 0.3514 -0.7311
vn 0.5848 0.3514 -0.7311
vn 0.5848 0.3514 -0.7311
vn -0.0237 -0.4822 -0.8758
vn -0.0237 -0.4822 -0.8758
vn -0.0237 -0.4822 -0.8758
vn -0.9579 0.2298 -0.1721
vn 0.1180 0.0299 -0.9926
vn 0.4067 0.3072 -0.8603
vn 0.3648 0.3279 -0.8715
vn 0.2614 -0.4804 0.8372
vn -0.5313 -0.7024 0.4736
vn -0.3123 -0.8603 0.4028
vn -0.1945 -0.9162 0.3504
vn 0.3049 0.9385 0.1621
vn 0.3049 0.9385 0.1621
vn 0.3049 0.9385 0.1621
vn 0.2888 -0.4892 0.8230
vn -0.0013 -0.8844 0.4668
vn -0.5130 -0.7597 0.3996
vn 0.1940 -0.3469 0.9177
vn 0.1940 -0.3469 0.9177
vn 0.1940 -0.3469 0.9177
vn -0.0409 -0.2012 -0.9788
vn -0.5380 0.4999 -0.6786
vn -0.6187 0.2414 -0.7476
vn -0.5946 0.2419 -0.7668
vn 0.2224 -0.9695 0.1031
vn 0.3542 -0.8963 0.2668
vn -0.3301 -0.4776 0.8142
vn -0.3068 -0.4959 0.8124
vn -0.5996 -0.2068 0.7731
vn -0.6180 -0.1829 0.7646
vn 0.3108 -0.4847 0.8176
vn 0.3231 -0.4808 0.8151
vn 0.2060 -0.9482 0.2416
vn 0.4059 -0.6926 0.5964
vn 0.3917 -0.6972 0.6004
vn -0.9490 0.1688 -0.2662
vn -0.9351 0.1511 -0.3206
vn -0.9194 0.1757 -0.3517
vn -0.9797 0.2001 0.0085
vn 0.2211 -0.9300 0.2937
vn -0.9772 0.2107 0.0261
vn 0.2583 -0.8267 0.5000
vn 0.2291 -0.9253 0.3024
vn 0.0177 -0.9495 0.3133
vn -0.8354 0.2836 -0.4709
vn -0.9655 0.2512 -0.0685
vn -0.9500 0.2658 -0.1639
vn 0.1465 -0.5487 0.8230
vn 0.1354 -0.5515 0.8231
vn 0.2080 -0.5320 0.8208
vn -0.4639 -0.2821 0.8398
vn -0.4500 -0.3024 0.8403
vn -0.4699 -0.2795 0.8374
vn -0.9573 0.2376 -0.1647
vn -0.5264 -0.5601 0.6396
vn -0.5275 -0.5630 0.6361
vn -0.5690 -0.6986 0.4338
vn -0.6157 0.2802 -0.7365
vn -0.4530 -0.6470 0.6134
vn -0.4519 -0.5207 0.7243
vn -0.4380 -0.5030 0.7451
vn -0.7700 -0.1106 0.6284
vn -0.7700 -0.1106 0.6284
vn -0.7700 -0.1106 0.6284
vn -0.5955 0.2817 -0.7523
vn -0.7201 0.4070 0.5620
vn -0.7201 0.4070 0.5620
vn -0.7201 0.4070 0.5620
vn -0.9235 -0.2733 0.2690
vn -0.4609 -0.2827 0.8412
vn -0.5247 0.4125 -0.7447
vn 0.2854 -0.5074 0.8131
vn -0.4976 -0.2864 0.8188
vn -0.5102 -0.2993 0.8063
vn -0.9810 -0.1375 0.1369
vn -0.4527 -0.6471 0.6135
vn -0.5164 0.4376 -0.7361
vn -0.4811 0.5873 -0.6508
vn -0.9815 0.1423 0.1281
vn -0.9897 0.1026 0.0999
vn 0.9618 -0.2716 -0.0330
vn -0.7969 -0.4007 0.4521
vn -0.8920 -0.2348 0.3863
vn 0.0000 1.0000 0.0000
vn 0.0000 1.0000 0.0000
vn 0.0000 1.0000 0.0000
vn 0.0000 1.0000 0.0000
vn 0.0000 1.0000 0.0000
vn 0.0000 1.0000 0.0000
vn 0.0000 1.0000 0.0000
vn 0.0000 1.0000 0.0000
vn 0.0000 1.0000 0.0000
vn 0.0000 1.0000 0.0000
vn 0.0000 1.0000 0.0000
vn 0.0000 1.0000 0.0000
vn 0.0000 1.0000 0.0000
vn 0.0000 1.0000 0.0000
vn 0.0000 1.0000 0.0000
vn 0.0000 1.0000 0.0000
vn 0.0000 1.0000 0.0000
vn 0.0000 1.0000 0.0000
vn 0.0000 1.0000 0.0000
vn 0.0000 1.0000 0.0000
vn 0.0000 1.0000 0.0000
vn 0.0000 1.0000 0.0000
vn 0.0000 1.0000 0.0000
vn 0.0000 1.0000 0.0000
vn 0.0000 1.0000 0.0000
vn 0.0000 1.0000 0.0000
vn 0.0000 1.0000 0.0000
vn 0.0000 1.0000 0.0000
vn 0.0000 1.0000 0.0000
vn 0.0000 1.0000 0.0000
vn 0.0000 1.0000 0.0000
f 1/1/1 2/2/2 3/3/3
f 1/1/1 4/4/4 2/2/2
f 3/3/3 5/5/5 1/1/1
f 6/6/6 5/5/5 3/3/3
f 7/7/7 8/8/8 9/9/9
f 10/10/10 11/11/11 12/12/12
f 7/7/7 9/9/9 13/13/13
f 1/1/1 14/14/14 4/4/4
f 15/15/15 16/16/16 17/17/17
f 18/18/18 19/19/19 20/20/20
f 21/21/21 22/22/22 23/23/23
f 24/24/24 25/25/25 26/26/26
f 27/27/27 28/28/28 29/29/29
f 30/30/30 31/31/31 32/32/32
f 33/33/33 34/34/34 35/35/35
f 36/36/36 37/37/37 38/38/38
f 15/15/15 17/17/17 39/39/39
f 7/7/7 40/40/40 8/8/8
f 24/24/24 41/41/41 25/25/25
f 42/42/42 4/4/4 14/14/14
f 20/20/20 19/19/19 43/43/43
f 40/40/40 44/44/44 8/8/8
f 29/29/29 28/28/28 45/45/45
f 46/46/46 47/47/47 48/48/48
f 49/49/49 28/28/28 27/27/27
f 50/50/50 51/51/51 52/52/52
f 48/48/48 47/47/47 53/53/53
f 46/46/46 54/54/54 47/47/47
f 19/19/19 55/55/55 43/43/43
f 53/53/53 56/56/56 48/48/48
f 51/51/51 57/57/57 52/52/52
f 58/58/58 59/59/59 60/60/60
f 22/22/22 21/21/21 61/61/61
f 62/62/62 63/63/63 35/35/35
f 64/64/64 65/65/65 66/66/66
f 67/67/67 68/68/68 69/69/69
f 62/62/62 35/35/35 34/34/34
f 70/70/70 71/71/71 72/72/72
f 57/57/57 37/37/37 73/73/73
f 52/52/52 57/57/57 74/74/74
f 75/75/75 76/76/76 77/77/77
f 64/64/64 66/66/66 78/78/78
f 15/15/15 39/39/39 79/79/79
f 22/22/22 61/61/61 80/80/80
f 81/81/81 82/82/82 83/83/83
f 78/78/78 84/84/84 64/64/64
f 32/32/32 31/31/31 85/85/85
f 38/38/38 37/37/37 86/86/86
f 86/86/86 37/37/37 57/57/57
f 87/87/87 88/88/88 89/89/89
f 75/75/75 90/90/90 76/76/76
f 65/65/65 64/64/64 91/91/91
f 88/88/88 87/87/87 92/92/92
f 93/93/93 79/79/79 39/39/39
f 51/51/51 94/94/94 57/57/57
f 39/39/39 95/95/95 93/93/93
f 75/75/75 96/96/96 90/90/90
f 69/69/69 97/97/97 67/67/67
f 57/57/57 98/98/98 86/86/86
f 57/57/57 94/94/94 99/99/99
f 100/100/100 101/101/101 102/102/102
f 103/103/103 104/104/104 105/105/105
f 72/72/72 71/71/71 106/106/106
f 107/107/107 108/108/108 109/109/109
f 110/110/110 111/111/111 112/112/112
f 92/92/92 113/113/113 88/88/88
f 114/114/114 115/115/115 116/116/116
f 57/57/57 99/99/99 117/117/117
f 118/118/118 119/119/119 120/120/120
f 67/67/67 97/97/97 121/121/121
f 57/57/57 117/117/117 98/98/98
f 109/109/109 108/108/108 122/122/122
f 116/116/116 123/123/123 114/114/114
f 124/124/124 125/125/125 126/126/126
f 103/103/103 127/127/127 128/128/128
f 129/129/129 130/130/130 131/131/131
f 132/132/132 111/111/111 110/110/110
f 131/131/131 133/133/133 129/129/129
f 134/134/134 135/135/135 136/136/136
f 128/128/128 104/104/104 103/103/103
f 137/137/137 129/129/129 133/133/133
f 138/138/138 139/139/139 140/140/140
f 136/136/136 135/135/135 141/141/141
f 118/118/118 120/120/120 142/142/142
f 84/84/84 143/143/143 64/64/64
f 137/137/137 134/134/134 129/129/129
f 144/144/144 113/113/113 92/92/92
f 675/675/675 676/676/676 677/677/677
f 145/145/145 146/146/146 147/147/147
f 90/90/90 96/96/96 148/148/148
f 678/678/678 679/679/679 680/680/680
f 135/135/135 134/134/134 137/137/137
f 120/120/120 119/119/119 149/149/149
f 97/97/97 150/150/150 121/121/121
f 151/151/151 109/109/109 122/122/122
f 681/681/681 682/682/682 683/683/683
f 684/684/684 685/685/685 686/686/686
f 152/152/152 153/153/153 154/154/154
f 147/147/147 155/155/155 145/145/145
f 113/113/113 144/144/144 156/156/156
f 157/157/157 158/158/158 159/159/159
f 687/687/687 688/688/688 689/689/689
f 160/160/160 159/159/159 158/158/158
f 110/110/110 161/161/161 132/132/132
f 136/136/136 141/141/141 162/162/162
f 163/163/163 128/128/128 127/127/127
f 690/690/690 691/691/691 692/692/692
f 693/693/693 676/676/676 675/675/675
f 164/164/164 165/165/165 166/166/166
f 692/692/692 694/694/694 690/690/690
f 684/684/684 695/695/695 685/685/685
f 686/686/686 685/685/685 696/696/696
f 167/167/167 126/126/126 125/125/125
f 168/168/168 149/149/149 119/119/119
f 169/169/169 143/143/143 84/84/84
f 679/679/679 697/697/697 680/680/680
f 170/170/170 171/171/171 172/172/172
f 698/698/698 691/691/691 699/699/699
f 688/688/688 700/700/700 701/701/701
f 164/164/164 166/166/166 173/173/173
f 689/689/689 688/688/688 702/702/702
f 155/155/155 147/147/147 174/174/174
f 689/689/689 699/699/699 687/687/687
f 155/155/155 175/175/175 176/176/176
f 703/703/703 695/695/695 684/684/684
f 682/682/682 681/681/681 704/704/704
f 152/152/152 177/177/177 153/153/153
f 705/705/705 693/693/693 706/706/706
f 696/696/696 685/685/685 707/707/707
f 708/708/708 709/709/709 710/710/710
f 682/682/682 711/711/711 712/712/712
f 178/178/178 170/170/170 172/172/172
f 123/123/123 116/116/116 179/179/179
f 691/691/691 690/690/690 699/699/699
f 675/675/675 713/713/713 693/693/693
f 694/694/694 692/692/692 714/714/714
f 715/715/715 711/711/711 682/682/682
f 682/682/682 704/704/704 715/715/715
f 716/716/716 714/714/714 692/692/692
f 705/705/705 706/706/706 717/717/717
f 169/169/169 180/180/180 143/143/143
f 680/680/680 697/697/697 718/718/718
f 715/715/715 719/719/719 720/720/720
f 151/151/151 122/122/122 668/668/668
f 715/715/715 704/704/704 719/719/719
f 150/150/150 181/181/181 182/182/182
f 183/183/183 184/184/184 185/185/185
f 706/706/706 693/693/693 713/713/713
f 721/721/721 722/722/722 723/723/723
f 669/669/669 151/151/151 670/670/670
f 718/718/718 697/697/697 724/724/724
f 174/174/174 175/175/175 155/155/155
f 715/715/715 720/720/720 725/725/725
f 186/186/186 138/138/138 140/140/140
f 187/187/187 180/180/180 169/169/169
f 721/721/721 726/726/726 722/722/722
f 188/188/188 153/153/153 189/189/189
f 727/727/727 728/728/728 729/729/729
f 190/190/190 191/191/191 192/192/192
f 702/702/702 688/688/688 701/701/701
f 151/151/151 193/193/193 670/670/670
f 121/121/121 150/150/150 182/182/182
f 696/696/696 730/730/730 731/731/731
f 730/730/730 696/696/696 707/707/707
f 104/104/104 128/128/128 194/194/194
f 732/732/732 733/733/733 734/734/734
f 195/195/195 196/196/196 197/197/197
f 198/198/198 199/199/199 200/200/200
f 732/732/732 734/734/734 735/735/735
f 726/726/726 721/721/721 736/736/736
f 201/201/201 202/202/202 203/203/203
f 737/737/737 738/738/738 731/731/731
f 668/668/668 193/193/193 151/151/151
f 204/204/204 205/205/205 206/206/206
f 207/207/207 208/208/208 209/209/209
f 190/190/190 192/192/192 210/210/210
f 205/205/205 211/211/211 209/209/209
f 212/212/212 213/213/213 214/214/214
f 215/215/215 216/216/216 217/217/217
f 718/718/718 724/724/724 739/739/739
f 141/141/141 218/218/218 162/162/162
f 207/207/207 209/209/209 211/211/211
f 204/204/204 211/211/211 205/205/205
f 219/219/219 188/188/188 220/220/220
f 214/214/214 213/213/213 221/221/221
f 188/188/188 189/189/189 220/220/220
f 222/222/222 223/223/223 224/224/224
f 189/189/189 153/153/153 177/177/177
f 714/714/714 716/716/716 740/740/740
f 207/207/207 211/211/211 225/225/225
f 671/671/671 226/226/226 227/227/227
f 228/228/228 194/194/194 128/128/128
f 206/206/206 229/229/229 204/204/204
f 219/219/219 220/220/220 230/230/230
f 738/738/738 737/737/737 741/741/741
f 231/231/231 232/232/232 233/233/233
f 184/184/184 234/234/234 185/185/185
f 742/742/742 743/743/743 744/744/744
f 668/668/668 672/672/672 235/235/235
f 204/204/204 236/236/236 211/211/211
f 214/214/214 237/237/237 212/212/212
f 238/238/238 239/239/239 240/240/240
f 745/745/745 746/746/746 747/747/747
f 204/204/204 241/241/241 236/236/236
f 192/192/192 242/242/242 210/210/210
f 243/243/243 244/244/244 245/245/245
f 748/748/748 749/749/749 750/750/750
f 206/206/206 246/246/246 229/229/229
f 225/225/225 211/211/211 247/247/247
f 737/737/737 731/731/731 730/730/730
f 748/748/748 751/751/751 749/749/749
f 211/211/211 248/248/248 247/247/247
f 752/752/752 753/753/753 754/754/754
f 249/249/249 240/240/240 239/239/239
f 716/716/716 755/755/755 756/756/756
f 716/716/716 756/756/756 740/740/740
f 757/757/757 758/758/758 759/759/759
f 250/250/250 251/251/251 252/252/252
f 734/734/734 760/760/760 735/735/735
f 253/253/253 236/236/236 241/241/241
f 211/211/211 254/254/254 248/248/248
f 221/221/221 255/255/255 214/214/214
f 236/236/236 254/254/254 211/211/211
f 191/191/191 190/190/190 256/256/256
f 184/184/184 257/257/257 258/258/258
f 216/216/216 215/215/215 259/259/259
f 229/229/229 246/246/246 260/260/260
f 743/743/743 742/742/742 761/761/761
f 195/195/195 261/261/261 262/262/262
f 195/195/195 262/262/262 263/263/263
f 184/184/184 258/258/258 234/234/234
f 264/264/264 265/265/265 266/266/266
f 195/195/195 197/197/197 261/261/261
f 762/762/762 763/763/763 764/764/764
f 668/668/668 235/235/235 193/193/193
f 214/214/214 255/255/255 267/267/267
f 268/268/268 269/269/269 270/270/270
f 765/765/765 736/736/736 721/721/721
f 271/271/271 272/272/272 273/273/273
f 274/274/274 275/275/275 195/195/195
f 276/276/276 277/277/277 278/278/278
f 279/279/279 186/186/186 140/140/140
f 280/280/280 253/253/253 241/241/241
f 757/757/757 759/759/759 766/766/766
f 281/281/281 282/282/282 283/283/283
f 264/264/264 284/284/284 265/265/265
f 285/285/285 240/240/240 286/286/286
f 244/244/244 287/287/287 245/245/245
f 736/736/736 765/765/765 767/767/767
f 768/768/768 757/757/757 766/766/766
f 274/274/274 288/288/288 275/275/275
f 195/195/195 263/263/263 274/274/274
f 289/289/289 290/290/290 291/291/291
f 292/292/292 293/293/293 294/294/294
f 769/769/769 770/770/770 771/771/771
f 240/240/240 249/249/249 295/295/295
f 772/772/772 773/773/773 774/774/774
f 214/214/214 291/291/291 237/237/237
f 296/296/296 292/292/292 294/294/294
f 297/297/297 254/254/254 236/236/236
f 286/286/286 240/240/240 295/295/295
f 256/256/256 298/298/298 191/191/191
f 762/762/762 775/775/775 763/763/763
f 299/299/299 300/300/300 301/301/301
f 302/302/302 303/303/303 304/304/304
f 263/263/263 262/262/262 305/305/305
f 274/274/274 263/263/263 306/306/306
f 307/307/307 296/296/296 294/294/294
f 308/308/308 309/309/309 310/310/310
f 311/311/311 312/312/312 313/313/313
f 772/772/772 774/774/774 776/776/776
f 314/314/314 315/315/315 313/313/313
f 272/272/272 271/271/271 316/316/316
f 745/745/745 777/777/777 778/778/778
f 728/728/728 727/727/727 779/779/779
f 672/672/672 317/317/317 235/235/235
f 318/318/318 312/312/312 311/311/311
f 777/777/777 728/728/728 779/779/779
f 281/281/281 283/283/283 319/319/319
f 320/320/320 321/321/321 322/322/322
f 288/288/288 323/323/323 275/275/275
f 727/727/727 729/729/729 780/780/780
f 294/294/294 324/324/324 307/307/307
f 325/325/325 326/326/326 232/232/232
f 311/311/311 327/327/327 318/318/318
f 313/313/313 315/315/315 311/311/311
f 305/305/305 328/328/328 263/263/263
f 300/300/300 329/329/329 301/301/301
f 330/330/330 222/222/222 224/224/224
f 777/777/777 779/779/779 778/778/778
f 331/331/331 332/332/332 333/333/333
f 218/218/218 334/334/334 162/162/162
f 335/335/335 336/336/336 337/337/337
f 336/336/336 335/335/335 338/338/338
f 339/339/339 336/336/336 338/338/338
f 337/337/337 307/307/307 340/340/340
f 303/303/303 320/320/320 341/341/341
f 781/781/781 782/782/782 783/783/783
f 340/340/340 307/307/307 324/324/324
f 776/776/776 784/784/784 772/772/772
f 233/233/233 232/232/232 326/326/326
f 746/746/746 745/745/745 778/778/778
f 341/341/341 320/320/320 322/322/322
f 263/263/263 342/342/342 306/306/306
f 343/343/343 335/335/335 337/337/337
f 337/337/337 340/340/340 343/343/343
f 342/342/342 263/263/263 344/344/344
f 214/214/214 267/267/267 291/291/291
f 335/335/335 343/343/343 345/345/345
f 346/346/346 330/330/330 224/224/224
f 300/300/300 347/347/347 329/329/329
f 767/767/767 765/765/765 785/785/785
f 345/345/345 343/343/343 348/348/348
f 786/786/786 787/787/787 921/921/921
f 349/349/349 340/340/340 324/324/324
f 788/788/788 789/789/789 790/790/790
f 350/350/350 351/351/351 352/352/352
f 791/791/791 792/792/792 793/793/793
f 921/921/921 794/794/794 795/795/795
f 349/349/349 353/353/353 340/340/340
f 796/796/796 797/797/797 798/798/798
f 354/354/354 355/355/355 356/356/356
f 291/291/291 267/267/267 357/357/357
f 358/358/358 359/359/359 360/360/360
f 799/799/799 800/800/800 801/801/801
f 357/357/357 289/289/289 291/291/291
f 361/361/361 362/362/362 363/363/363
f 186/186/186 279/279/279 364/364/364
f 358/358/358 360/360/360 365/365/365
f 304/304/304 303/303/303 366/366/366
f 672/672/672 367/367/367 317/317/317
f 368/368/368 369/369/369 370/370/370
f 802/802/802 790/790/790 789/789/789
f 803/803/803 799/799/799 801/801/801
f 792/792/792 804/804/804 793/793/793
f 218/218/218 371/371/371 334/334/334
f 372/372/372 317/317/317 367/367/367
f 371/371/371 373/373/373 334/334/334
f 374/374/374 375/375/375 376/376/376
f 377/377/377 378/378/378 379/379/379
f 380/380/380 381/381/381 362/362/362
f 382/382/382 383/383/383 384/384/384
f 805/805/805 806/806/806 807/807/807
f 353/353/353 349/349/349 385/385/385
f 284/284/284 264/264/264 386/386/386
f 341/341/341 366/366/366 303/303/303
f 387/387/387 319/319/319 283/283/283
f 809/809/809 810/810/810 811/811/811
f 808/808/808 796/796/796 798/798/798
f 259/259/259 215/215/215 388/388/388
f 298/298/298 256/256/256 389/389/389
f 376/376/376 298/298/298 389/389/389
f 812/812/812 813/813/813 814/814/814
f 332/332/332 390/390/390 391/391/391
f 776/776/776 815/815/815 784/784/784
f 365/365/365 392/392/392 358/358/358
f 310/310/310 393/393/393 308/308/308
f 308/308/308 393/393/393 394/394/394
f 813/813/813 816/816/816 814/814/814
f 395/395/395 396/396/396 397/397/397
f 921/921/921 787/787/787 794/794/794
f 379/379/379 378/378/378 398/398/398
f 787/787/787 817/817/817 794/794/794
f 804/804/804 818/818/818 819/819/819
f 813/813/813 820/820/820 816/816/816
f 805/805/805 821/821/821 806/806/806
f 818/818/818 822/822/822 823/823/823
f 824/824/824 825/825/825 826/826/826
f 383/383/383 382/382/382 399/399/399
f 804/804/804 792/792/792 818/818/818
f 363/363/363 400/400/400 361/361/361
f 401/401/401 402/402/402 403/403/403
f 793/793/793 804/804/804 827/827/827
f 374/374/374 376/376/376 389/389/389
f 404/404/404 359/359/359 358/358/358
f 810/810/810 828/828/828 811/811/811
f 405/405/405 406/406/406 407/407/407
f 401/401/401 408/408/408 402/402/402
f 366/366/366 398/398/398 304/304/304
f 829/829/829 830/830/830 831/831/831
f 409/409/409 374/374/374 389/389/389
f 832/832/832 833/833/833 834/834/834
f 830/830/830 835/835/835 831/831/831
f 823/823/823 819/819/819 818/818/818
f 814/814/814 836/836/836 812/812/812
f 276/276/276 278/278/278 410/410/410
f 411/411/411 406/406/406 405/405/405
f 812/812/812 836/836/836 837/837/837
f 838/838/838 839/839/839 840/840/840
f 398/398/398 366/366/366 412/412/412
f 398/398/398 412/412/412 379/379/379
f 841/841/841 842/842/842 843/843/843
f 836/836/836 844/844/844 837/837/837
f 396/396/396 413/413/413 414/414/414
f 830/830/830 845/845/845 835/835/835
f 397/397/397 396/396/396 414/414/414
f 415/415/415 404/404/404 416/416/416
f 846/846/846 835/835/835 847/847/847
f 832/832/832 848/848/848 833/833/833
f 332/332/332 331/331/331 390/390/390
f 388/388/388 215/215/215 417/417/417
f 418/418/418 419/419/419 420/420/420
f 410/410/410 421/421/421 276/276/276
f 849/849/849 850/850/850 851/851/851
f 333/333/333 422/422/422 331/331/331
f 423/423/423 406/406/406 411/411/411
f 417/417/417 424/424/424 388/388/388
f 361/361/361 380/380/380 362/362/362
f 425/425/425 426/426/426 427/427/427
f 393/393/393 428/428/428 394/394/394
f 419/419/419 673/673/673 429/429/429
f 430/430/430 431/431/431 432/432/432
f 835/835/835 845/845/845 847/847/847
f 673/673/673 433/433/433 429/429/429
f 425/425/425 434/434/434 674/674/674
f 412/412/412 435/435/435 379/379/379
f 427/427/427 436/436/436 425/425/425
f 411/411/411 437/437/437 438/438/438
f 439/439/439 440/440/440 441/441/441
f 852/852/852 853/853/853 854/854/854
f 848/848/848 832/832/832 855/855/855
f 442/442/442 443/443/443 444/444/444
f 851/851/851 850/850/850 856/856/856
f 434/434/434 425/425/425 436/436/436
f 445/445/445 446/446/446 447/447/447
f 448/448/448 449/449/449 450/450/450
f 358/358/358 451/451/451 404/404/404
f 452/452/452 434/434/434 436/436/436
f 453/453/453 420/420/420 454/454/454
f 419/419/419 455/455/455 420/420/420
f 456/456/456 442/442/442 444/444/444
f 457/457/457 458/458/458 459/459/459
f 435/435/435 412/412/412 460/460/460
f 414/414/414 461/461/461 397/397/397
f 457/457/457 462/462/462 458/458/458
f 856/856/856 850/850/850 857/857/857
f 434/434/434 452/452/452 463/463/463
f 454/454/454 420/420/420 455/455/455
f 464/464/464 434/434/434 463/463/463
f 455/455/455 419/419/419 429/429/429
f 858/858/858 859/859/859 860/860/860
f 830/830/830 861/861/861 845/845/845
f 862/862/862 863/863/863 864/864/864
f 400/400/400 465/465/465 361/361/361
f 466/466/466 467/467/467 429/429/429
f 464/464/464 463/463/463 468/468/468
f 469/469/469 470/470/470 471/471/471
f 472/472/472 473/473/473 474/474/474
f 475/475/475 476/476/476 477/477/477
f 865/865/865 851/851/851 866/866/866
f 468/468/468 478/478/478 464/464/464
f 479/479/479 480/480/480 481/481/481
f 482/482/482 483/483/483 463/463/463
f 484/484/484 411/411/411 438/438/438
f 463/463/463 483/483/483 468/468/468
f 485/485/485 486/486/486 487/487/487
f 429/429/429 467/467/467 455/455/455
f 867/867/867 868/868/868 869/869/869
f 488/488/488 489/489/489 490/490/490
f 869/869/869 870/870/870 867/867/867
f 848/848/848 871/871/871 872/872/872
f 848/848/848 855/855/855 871/871/871
f 456/456/456 491/491/491 442/442/442
f 423/423/423 411/411/411 484/484/484
f 492/492/492 468/468/468 493/493/493
f 494/494/494 472/472/472 474/474/474
f 495/495/495 397/397/397 461/461/461
f 493/493/493 468/468/468 483/483/483
f 487/487/487 496/496/496 485/485/485
f 470/470/470 469/469/469 497/497/497
f 498/498/498 499/499/499 500/500/500
f 489/489/489 501/501/501 490/490/490
f 476/476/476 475/475/475 502/502/502
f 503/503/503 504/504/504 505/505/505
f 455/455/455 506/506/506 454/454/454
f 507/507/507 479/479/479 481/481/481
f 507/507/507 481/481/481 508/508/508
f 873/873/873 865/865/865 866/866/866
f 504/504/504 509/509/509 505/505/505
f 510/510/510 404/404/404 451/451/451
f 511/511/511 512/512/512 513/513/513
f 510/510/510 451/451/451 514/514/514
f 480/480/480 479/479/479 515/515/515
f 876/876/876 877/877/877 878/878/878
f 879/879/879 877/877/877 876/876/876
f 494/494/494 516/516/516 472/472/472
f 517/517/517 518/518/518 515/515/515
f 515/515/515 479/479/479 517/517/517
f 501/501/501 489/489/489 519/519/519
f 513/513/513 520/520/520 511/511/511
f 514/514/514 521/521/521 510/510/510
f 522/522/522 523/523/523 521/521/521
f 510/510/510 416/416/416 404/404/404
f 510/510/510 521/521/521 523/523/523
f 524/524/524 515/515/515 518/518/518
f 525/525/525 526/526/526 527/527/527
f 517/517/517 528/528/528 518/518/518
f 880/880/880 866/866/866 851/851/851
f 529/529/529 530/530/530 531/531/531
f 532/532/532 533/533/533 534/534/534
f 512/512/512 535/535/535 513/513/513
f 856/856/856 875/875/875 882/882/882
f 536/536/536 534/534/534 533/533/533
f 514/514/514 451/451/451 537/537/537
f 534/534/534 538/538/538 539/539/539
f 880/880/880 851/851/851 856/856/856
f 866/866/866 883/883/883 873/873/873
f 529/529/529 540/540/540 530/530/530
f 875/875/875 874/874/874 882/882/882
f 516/516/516 494/494/494 541/541/541
f 873/873/873 883/883/883 884/884/884
f 542/542/542 543/543/543 544/544/544
f 883/883/883 866/866/866 880/880/880
f 880/880/880 856/856/856 882/882/882
f 545/545/545 451/451/451 546/546/546
f 530/530/530 540/540/540 512/512/512
f 547/547/547 548/548/548 549/549/549
f 550/550/550 551/551/551 552/552/552
f 553/553/553 495/495/495 461/461/461
f 545/545/545 537/537/537 451/451/451
f 548/548/548 547/547/547 554/554/554
f 540/540/540 555/555/555 512/512/512
f 526/526/526 556/556/556 527/527/527
f 552/552/552 557/557/557 550/550/550
f 885/885/885 886/886/886 887/887/887
f 888/888/888 889/889/889 890/890/890
f 549/549/549 558/558/558 559/559/559
f 557/557/557 552/552/552 560/560/560
f 558/558/558 549/549/549 561/561/561
f 548/548/548 561/561/561 549/549/549
f 891/891/891 892/892/892 893/893/893
f 554/554/554 562/562/562 548/548/548
f 881/881/881 876/876/876 894/894/894
f 563/563/563 564/564/564 565/565/565
f 895/895/895 896/896/896 897/897/897
f 876/876/876 878/878/878 894/894/894
f 414/414/414 566/566/566 567/567/567
f 535/535/535 512/512/512 568/568/568
f 563/563/563 569/569/569 564/564/564
f 570/570/570 569/569/569 571/571/571
f 887/887/887 898/898/898 885/885/885
f 567/567/567 461/461/461 414/414/414
f 572/572/572 538/538/538 534/534/534
f 573/573/573 574/574/574 551/551/551
f 558/558/558 561/561/561 575/575/575
f 555/555/555 568/568/568 512/512/512
f 543/543/543 542/542/542 576/576/576
f 569/569/569 563/563/563 571/571/571
f 899/899/899 900/900/900 901/901/901
f 902/902/902 903/903/903 904/904/904
f 552/552/552 551/551/551 574/574/574
f 898/898/898 887/887/887 905/905/905
f 906/906/906 907/907/907 908/908/908
f 922/922/922 909/909/909 923/923/923
f 891/891/891 910/910/910 892/892/892
f 527/527/527 556/556/556 577/577/577
f 905/905/905 911/911/911 898/898/898
f 912/912/912 888/888/888 890/890/890
f 576/576/576 578/578/578 543/543/543
f 579/579/579 580/580/580 581/581/581
f 568/568/568 582/582/582 535/535/535
f 909/909/909 915/915/915 923/923/923
f 583/583/583 584/584/584 585/585/585
f 913/913/913 914/914/914 893/893/893
f 583/583/583 586/586/586 584/584/584
f 574/574/574 573/573/573 587/587/587
f 899/899/899 916/916/916 900/900/900
f 917/917/917 918/918/918 911/911/911
f 891/891/891 893/893/893 914/914/914
f 919/919/919 909/909/909 922/922/922
f 909/909/909 919/919/919 915/915/915
f 536/536/536 572/572/572 534/534/534
f 911/911/911 905/905/905 917/917/917
f 586/586/586 583/583/583 588/588/588
f 578/578/578 576/576/576 589/589/589
f 590/590/590 591/591/591 592/592/592
f 593/593/593 527/527/527 577/577/577
f 527/527/527 593/593/593 594/594/594
f 555/555/555 595/595/595 568/568/568
f 596/596/596 563/563/563 565/565/565
f 552/552/552 574/574/574 597/597/597
f 577/577/577 589/589/589 593/593/593
f 572/572/572 536/536/536 598/598/598
f 599/599/599 600/600/600 601/601/601
f 919/919/919 920/920/920 915/915/915
f 602/602/602 603/603/603 604/604/604
f 599/599/599 605/605/605 600/600/600
f 606/606/606 607/607/607 608/608/608
f 609/609/609 610/610/610 611/611/611
f 576/576/576 593/593/593 589/589/589
f 572/572/572 598/598/598 612/612/612
f 613/613/613 614/614/614 615/615/615
f 616/616/616 581/581/581 580/580/580
f 590/590/590 617/617/617 618/618/618
f 619/619/619 620/620/620 621/621/621
f 622/622/622 599/599/599 601/601/601
f 617/617/617 590/590/590 592/592/592
f 623/623/623 620/620/620 619/619/619
f 601/601/601 624/624/624 622/622/622
f 618/618/618 625/625/625 590/590/590
f 620/620/620 626/626/626 621/621/621
f 616/616/616 580/580/580 627/627/627
f 628/628/628 627/627/627 580/580/580
f 611/611/611 629/629/629 609/609/609
f 630/630/630 631/631/631 632/632/632
f 633/633/633 634/634/634 635/635/635
f 613/613/613 636/636/636 637/637/637
f 613/613/613 615/615/615 636/636/636
f 627/627/627 628/628/628 638/638/638
f 639/639/639 640/640/640 641/641/641
f 626/626/626 642/642/642 621/621/621
f 625/625/625 618/618/618 643/643/643
f 626/626/626 644/644/644 642/642/642
f 641/641/641 645/645/645 639/639/639
f 646/646/646 647/647/647 648/648/648
f 622/622/622 624/624/624 649/649/649
f 650/650/650 637/637/637 636/636/636
f 651/651/651 647/647/647 646/646/646
f 652/652/652 631/631/631 630/630/630
f 653/653/653 654/654/654 655/655/655
f 646/646/646 648/648/648 656/656/656
f 657/657/657 649/649/649 624/624/624
f 654/654/654 653/653/653 658/658/658
f 644/644/644 626/626/626 659/659/659
f 660/660/660 661/661/661 662/662/662
f 663/663/663 655/655/655 654/654/654
f 664/664/664 665/665/665 666/666/666
f 646/646/646 656/656/656 667/667/667
f 924/924/924 925/925/925 926/926/926
f 924/924/924 926/926/926 925/925/925
f 924/924/924 926/926/926 927/927/927
f 924/924/924 927/927/927 926/926/926
f 924/924/924 927/927/927 928/928/928
f 924/924/924 928/928/928 927/927/927
f 924/924/924 928/928/928 929/929/929
f 924/924/924 929/929/929 928/928/928
f 924/924/924 929/929/929 930/930/930
f 924/924/924 930/930/930 929/929/929
f 924/924/924 930/930/930 931/931/931
f 924/924/924 931/931/931 930/930/930
f 924/924/924 931/931/931 932/932/932
f 924/924/924 932/932/932 931/931/931
f 924/924/924 932/932/932 933/933/933
f 924/924/924 933/933/933 932/932/932
f 924/924/924 933/933/933 934/934/934
f 924/924/924 934/934/934 933/933/933
f 924/924/924 934/934/934 935/935/935
f 924/924/924 935/935/935 934/934/934
f 924/924/924 935/935/935 936/936/936
f 924/924/924 936/936/936 935/935/935
f 924/924/924 936/936/936 937/937/937
f 924/924/924 937/937/937 936/936/936
f 924/924/924 937/937/937 938/938/938
f 924/924/924 938/938/938 937/937/937
f 924/924/924 938/938/938 939/939/939
f 924/924/924 939/939/939 938/938/938
f 924/924/924 939/939/939 940/940/940
f 924/924/924 940/940/940 939/939/939
f 924/924/924 940/940/940 941/941/941
f 924/924/924 941/941/941 940/940/940
f 924/924/924 941/941/941 942/942/942
f 924/924/924 942/942/942 941/941/941
f 924/924/924 942/942/942 943/943/943
f 924/924/924 943/943/943 942/942/942
f 924/924/924 943/943/943 944/944/944
f 924/924/924 944/944/944 943/943/943
f 924/924/924 944/944/944 945/945/945
f 924/924/924 945/945/945 944/944/944
f 924/924/924 945/945/945 946/946/946
f 924/924/924 946/946/946 945/945/945
f 924/924/924 946/946/946 947/947/947
f 924/924/924 947/947/947 946/946/946
f 924/924/924 947/947/947 948/948/948
f 924/924/924 948/948/948 947/947/947
f 924/924/924 948/948/948 949/949/949
f 924/924/924 949/949/949 948/948/948
f 924/924/924 949/949/949 950/950/950
f 924/924/924 950/950/950 949/949/949
f 924/924/924 950/950/950 951/951/951
f 924/924/924 951/951/951 950/950/950
f 924/924/924 951/951/951 952/952/952
f 924/924/924 952/952/952 951/951/951
f 924/924/924 952/952/952 953/953/953
f 924/924/924 953/953/953 952/952/952
f 924/924/924 953/953/953 954/954/954
f 924/924/924 954/954/954 953/953/953
f 924/924/924 954/954/954 925/925/925
f 924/924/924 925/925/925 954/954/954
