o horn_right
v 2.30290 8.23200 -3.68936
v 2.32734 8.30395 -3.56851
v 2.30689 8.18945 -3.60668
v 2.30290 8.23200 -3.68936
v 2.20288 7.56156 -3.80197
v 2.15620 8.26083 -3.84980
v 2.08152 8.03627 -3.93780
v 2.27039 8.08567 -3.64180
v 2.20288 7.56156 -3.80197
v 2.28516 8.44212 -3.53250
v 2.32734 8.30395 -3.56851
v 2.32734 8.30395 -3.56851
v 2.23079 8.29696 -3.47310
v 2.30689 8.18945 -3.60668
v 1.98736 7.77420 -4.04462
v 1.89850 7.39884 -4.10844
v 1.91933 7.09125 -3.95814
v 1.85875 7.57209 -4.19791
v 2.20288 7.56156 -3.80197
v 2.27039 8.08567 -3.64180
v 2.17772 7.76302 -3.70017
v 2.08369 7.38179 -3.69761
v 1.91933 7.09125 -3.95814
v 1.85875 7.57209 -4.19791
v 1.80762 7.70874 -4.00324
v 1.98736 7.77420 -4.04462
v 2.11538 7.47930 -3.69090
v 2.27039 8.08567 -3.64180
v 2.30689 8.18945 -3.60668
v 2.03590 8.21096 -3.60126
v 2.02956 8.30640 -3.76809
v 2.28516 8.44212 -3.53250
v 2.15620 8.26083 -3.84980
v 2.04412 8.36585 -3.66457
v 2.06566 8.44040 -3.53533
v 1.82579 7.87704 -3.89975
v 2.08152 8.03627 -3.93780
v 2.09465 7.61884 -3.66503
v 2.09465 7.61884 -3.66503
v 2.17772 7.76302 -3.70017
v 2.06840 7.65338 -3.68892
v 2.28872 8.50887 -3.28580
v 2.29508 8.48635 -3.27850
v 2.28872 8.50887 -3.28580
v 1.92167 8.07990 -3.83263
v 2.15620 8.26083 -3.84980
v 2.29859 8.34775 -3.25261
v 2.23079 8.29696 -3.47310
v 2.32734 8.30395 -3.56851
v 1.89850 7.39884 -4.10844
v 2.09465 7.61884 -3.66503
v 2.09085 7.54778 -3.60473
v 2.29859 8.34775 -3.25261
v 2.23158 8.23809 -3.45357
v 2.30689 8.18945 -3.60668
v 2.23079 8.29696 -3.47310
v 2.09535 7.45049 -3.62678
v 2.02956 8.30640 -3.76809
v 2.00941 7.46243 -3.57218
v 2.30689 8.18945 -3.60668
v 2.04620 8.25470 -3.52136
v 2.03590 8.21096 -3.60126
v 2.15834 8.49926 -3.34658
v 2.16844 8.35400 -3.31677
v 2.06098 7.35079 -3.44703
v 1.92167 8.07990 -3.83263
v 2.03590 8.21096 -3.60126
v 2.02956 8.30640 -3.76809
v 2.09085 7.54778 -3.60473
v 2.23158 8.23809 -3.45357
v 2.09542 7.43903 -3.51158
v 1.85875 7.57209 -4.19791
v 1.33465 7.46399 -4.19444
v 1.33465 7.46399 -4.19444
v 2.04412 8.36585 -3.66457
v 1.80762 7.70874 -4.00324
v 1.81755 7.75752 -3.88930
v 1.82579 7.87704 -3.89975
v 2.07877 7.37682 -3.46675
v 2.06098 7.35079 -3.44703
v 2.23158 8.23809 -3.45357
v 2.23079 8.29696 -3.47310
v 2.05260 8.30544 -3.51866
v 1.86257 7.77777 -3.67983
v 2.05260 8.30544 -3.51866
v 2.29859 8.34775 -3.25261
v 2.29508 8.48635 -3.27850
v 2.28872 8.50887 -3.28580
v 1.85337 7.81508 -3.73375
v 1.97140 7.54644 -3.61906
v 2.04620 8.25470 -3.52136
v 2.15834 8.49926 -3.34658
v 2.06566 8.44040 -3.53533
v 2.05260 8.30544 -3.51866
v 2.07877 7.37682 -3.46675
v 2.09542 7.43903 -3.51158
v 2.04620 8.25470 -3.52136
v 1.90378 7.57466 -3.57504
v 1.97140 7.54644 -3.61906
v 2.06840 7.65338 -3.68892
v 1.87654 7.62160 -3.58622
v 2.16844 8.35400 -3.31677
v 1.81755 7.75752 -3.88930
v 1.41323 7.70906 -3.74315
v 2.15834 8.49926 -3.34658
v 2.07877 7.37682 -3.46675
v 2.03499 7.40914 -3.48103
v 1.91545 7.55359 -3.58353
v 2.16844 8.35400 -3.31677
v 1.71247 7.76897 -3.75910
v 1.85337 7.81508 -3.73375
v 1.91545 7.55359 -3.58353
v 1.97072 7.46284 -3.53831
v 2.07877 7.37682 -3.46675
v 2.03499 7.40914 -3.48103
v 2.06098 7.35079 -3.44703
v 1.86257 7.77777 -3.67983
v 1.86257 7.77777 -3.67983
v 1.86257 7.77777 -3.67983
v 1.85337 7.81508 -3.73375
v 1.83607 7.81998 -3.70299
v 1.97072 7.46284 -3.53831
v 1.92296 7.42780 -3.52208
v 1.83607 7.81998 -3.70299
v 1.72284 7.80258 -3.69451
v 1.91545 7.55359 -3.58353
v 1.83607 7.81998 -3.70299
v 1.83484 7.56081 -3.56493
v 1.84860 7.53374 -3.60234
v 1.72284 7.80258 -3.69451
v 1.91667 7.40266 -3.53434
v 1.92296 7.42780 -3.52208
v 1.84860 7.53374 -3.60234
v 1.84860 7.53374 -3.60234
v 1.91545 7.55359 -3.58353
v 1.83484 7.56081 -3.56493
v 1.83484 7.56081 -3.56493
v 1.92520 7.29096 -3.45006
v 1.92520 7.29096 -3.45006
v 1.76591 7.70102 -3.69922
v 1.78609 7.50741 -3.62738
v 1.84860 7.53374 -3.60234
v 1.76591 7.70102 -3.69922
v 1.84860 7.53374 -3.60234
v 1.79840 7.64087 -3.60849
v 1.91667 7.40266 -3.53434
v 1.79840 7.64087 -3.60849
v 1.92520 7.29096 -3.45006
v 1.71247 7.76897 -3.75910
v 1.83484 7.56081 -3.56493
v 1.72284 7.80258 -3.69451
v 1.71247 7.76897 -3.75910
v 1.71247 7.76897 -3.75910
v 1.25811 7.34243 -3.50605
v 1.78609 7.50741 -3.62738
v 1.77978 7.44170 -3.54539
v 1.14355 7.58503 -3.66867
v 1.41323 7.70906 -3.74315
v 1.77978 7.44170 -3.54539
v 1.36277 7.31586 -3.50042
v 2.11538 7.47930 -3.69090
v 2.09535 7.45049 -3.62678
v 1.63289 7.43886 -3.70902
v 1.89850 7.39884 -4.10844
v 1.91933 7.09125 -3.95814
v 2.06098 7.35079 -3.44703
v 1.92520 7.29096 -3.45006
v 1.77978 7.44170 -3.54539
v 1.36277 7.31586 -3.50042
v 1.78609 7.50741 -3.62738
v 1.25811 7.34243 -3.50605
v 1.71247 7.76897 -3.75910
v 1.14355 7.58503 -3.66867
v 1.41323 7.70906 -3.74315
v 1.33465 7.46399 -4.19444
vt 0.26890 0.29813
vt 0.27529 0.30388
vt 0.26792 0.30365
vt 0.73728 0.32379
vt 0.72312 0.28490
vt 0.74924 0.31819
vt 0.74779 0.30305
vt 0.26097 0.30333
vt 0.22772 0.30240
vt 0.73961 0.33945
vt 0.73465 0.33198
vt 0.00861 0.53303
vt 0.01387 0.52676
vt 0.01400 0.53806
vt 0.74650 0.28513
vt 0.73961 0.26251
vt 0.72280 0.25050
vt 0.75007 0.26837
vt 0.75307 0.11924
vt 0.76873 0.08919
vt 0.76245 0.10941
vt 0.75336 0.13393
vt 0.72976 0.14498
vt 0.71208 0.21056
vt 0.72651 0.21310
vt 0.72248 0.22418
vt 0.75724 0.12674
vt 0.83839 0.62105
vt 0.83900 0.62798
vt 0.82281 0.62548
vt 0.25072 0.77536
vt 0.23035 0.76586
vt 0.25369 0.76635
vt 0.24362 0.77678
vt 0.23467 0.77836
vt 0.73631 0.21994
vt 0.73387 0.23807
vt 0.76143 0.11932
vt 0.83468 0.59068
vt 0.83746 0.60054
vt 0.83244 0.59265
vt 0.73233 0.35302
vt 0.73099 0.35238
vt 0.21566 0.77048
vt 0.74391 0.23183
vt 0.74367 0.24970
vt 0.01877 0.19211
vt 0.02881 0.20219
vt 0.02614 0.20994
vt 0.14690 0.36980
vt 0.83221 0.92144
vt 0.83269 0.91592
vt 0.72377 0.34791
vt 0.13139 0.98718
vt 0.13469 0.97701
vt 0.13495 0.98831
vt 0.83765 0.91216
vt 0.75201 0.24517
vt 0.83287 0.57872
vt 0.15367 0.94825
vt 0.13760 0.95376
vt 0.13729 0.94825
vt 0.22161 0.77681
vt 0.02750 0.19157
vt 0.76543 0.14439
vt 0.41847 0.59109
vt 0.40584 0.60311
vt 0.40289 0.59190
vt 0.83622 0.58528
vt 0.14884 0.95778
vt 0.83244 0.90745
vt 0.14712 0.38179
vt 0.17936 0.38175
vt 0.72072 0.17951
vt 0.39778 0.59704
vt 0.44404 0.58663
vt 0.43929 0.59242
vt 0.43252 0.58983
vt 0.83299 0.90285
vt 0.83339 0.90067
vt 0.98257 0.97193
vt 0.98627 0.97243
vt 0.98627 0.98352
vt 0.81870 0.59728
vt 0.39900 0.60649
vt 0.98674 0.44761
vt 0.98668 0.43911
vt 0.98706 0.43768
vt 0.43317 0.60061
vt 0.82902 0.58362
vt 0.98321 0.98385
vt 0.99574 0.43732
vt 0.39135 0.60346
vt 0.03953 0.19935
vt 0.83960 0.57246
vt 0.83917 0.57717
vt 0.40203 0.60710
vt 0.78781 0.90739
vt 0.79232 0.90988
vt 0.79232 0.91954
vt 0.78473 0.90868
vt 0.39186 0.61890
vt 0.73339 0.21606
vt 0.74815 0.19458
vt 0.38410 0.61443
vt 0.83788 0.57102
vt 0.83482 0.57247
vt 0.78933 0.90719
vt 0.99539 0.44627
vt 0.74271 0.21217
vt 0.74222 0.22122
vt 0.82552 0.58165
vt 0.83046 0.57676
vt 0.01459 0.51276
vt 0.01653 0.50998
vt 0.01619 0.51433
vt 0.77798 0.91737
vt 0.43431 0.60443
vt 0.91057 0.99408
vt 0.91456 0.99408
vt 0.91336 0.99586
vt 0.01920 0.50448
vt 0.02259 0.50596
vt 0.74432 0.22078
vt 0.74662 0.21425
vt 0.02078 0.49771
vt 0.77505 0.91891
vt 0.78510 0.90408
vt 0.02509 0.49713
vt 0.77000 0.91418
vt 0.01834 0.02169
vt 0.01989 0.02245
vt 0.01830 0.03148
vt 0.63225 0.99403
vt 0.63660 0.99403
vt 0.63252 0.99692
vt 0.78588 0.90357
vt 0.01845 0.01324
vt 0.02511 0.51493
vt 0.37653 0.80196
vt 0.36463 0.80579
vt 0.36388 0.80150
vt 0.02104 0.75559
vt 0.02118 0.76825
vt 0.01815 0.76179
vt 0.35409 0.80111
vt 0.77998 0.90702
vt 0.34596 0.80340
vt 0.38268 0.80350
vt 0.01833 0.76770
vt 0.01765 0.74987
vt 0.02205 0.74933
vt 0.76436 0.48935
vt 0.79901 0.45555
vt 0.79211 0.49644
vt 0.35888 0.80844
vt 0.77598 0.45149
vt 0.76597 0.46908
vt 0.79739 0.49461
vt 0.80197 0.46679
vt 0.83914 0.91630
vt 0.75902 0.13130
vt 0.73961 0.26251
vt 0.73961 0.26251
vt 0.73961 0.26251
vt 0.73961 0.26251
vt 0.73961 0.26251
vt 0.73961 0.26251
vt 0.73961 0.26251
vt 0.73961 0.26251
vt 0.73961 0.26251
vt 0.73961 0.26251
vt 0.73961 0.26251
vt 0.73961 0.26251
vt 0.73961 0.26251
vn 0.9774 -0.1924 -0.0880
vn 0.9837 -0.1365 -0.1177
vn 0.9655 -0.2096 -0.1544
vn 0.7516 0.2824 -0.5961
vn 0.7535 -0.0758 -0.6530
vn 0.7470 0.1323 -0.6516
vn 0.7535 0.0045 -0.6575
vn 0.9783 -0.1914 0.0798
vn 0.9749 -0.1697 0.1443
vn 0.9076 0.3550 -0.2239
vn 0.9095 0.3174 -0.2686
vn 0.6736 -0.3392 0.6567
vn 0.6736 -0.3392 0.6567
vn 0.6736 -0.3392 0.6567
vn 0.7517 0.0095 -0.6594
vn 0.7468 -0.2053 -0.6326
vn 0.7500 -0.2487 -0.6128
vn 0.7508 -0.0866 -0.6549
vn 0.8461 -0.2940 0.4446
vn 0.5891 -0.3046 0.7484
vn 0.6285 -0.2632 0.7320
vn 0.8943 -0.4381 0.0909
vn 0.8557 -0.5163 0.0360
vn -0.2437 0.7626 -0.5992
vn -0.3220 0.7620 -0.5619
vn -0.3938 0.5619 -0.7275
vn 0.8591 -0.2684 0.4359
vn 0.0339 -0.2496 0.9678
vn -0.0063 -0.3185 0.9480
vn 0.0444 -0.2255 0.9732
vn -0.0046 0.8687 -0.4953
vn -0.0036 0.9305 -0.3662
vn -0.0060 0.8693 -0.4943
vn -0.0012 0.8670 -0.4983
vn 0.0070 0.9093 -0.4162
vn -0.3922 0.4795 -0.7850
vn -0.4035 0.4538 -0.7945
vn 0.5077 -0.0835 0.8574
vn -0.1705 0.5040 0.8467
vn 0.0253 -0.0746 0.9969
vn -0.0909 0.2980 0.9503
vn 0.9659 0.2462 -0.0806
vn 0.9842 0.1760 -0.0170
vn 0.0304 0.9566 -0.2896
vn -0.3981 0.4446 -0.8024
vn -0.3907 0.4292 -0.8144
vn -0.0545 -0.9692 0.2400
vn 0.0387 -0.9731 0.2271
vn 0.2215 -0.9630 0.1537
vn 0.0929 -0.4297 -0.8982
vn 0.9755 0.1096 0.1907
vn 0.9854 0.0623 0.1583
vn 0.9956 0.0411 0.0849
vn 0.9053 0.1446 0.3994
vn 0.9053 0.1446 0.3994
vn 0.9053 0.1446 0.3994
vn 0.9923 -0.0400 0.1169
vn -0.3820 0.4170 -0.8247
vn 0.1166 0.7147 0.6897
vn -0.1363 -0.9428 0.3043
vn -0.0974 -0.9116 0.3994
vn -0.0596 -0.8724 0.4852
vn 0.0872 0.9380 -0.3354
vn -0.1595 -0.9462 0.2816
vn 0.9130 -0.4067 0.0324
vn -0.9046 0.3385 0.2590
vn -0.9618 0.2154 0.1688
vn -0.9529 0.2463 0.1771
vn -0.3582 0.6116 0.7054
vn -0.1674 -0.9604 0.2227
vn 0.9799 -0.1983 -0.0204
vn 0.0852 -0.4417 -0.8931
vn 0.0877 -0.4229 -0.9019
vn -0.2059 0.8634 -0.4606
vn -0.9910 0.0952 0.0944
vn -0.9958 0.0735 0.0553
vn -0.9906 0.0781 0.1118
vn -0.9574 0.2010 0.2074
vn 0.7693 -0.6069 -0.1997
vn 0.7131 -0.6620 -0.2308
vn -0.2470 0.2488 0.9365
vn -0.2224 0.3041 0.9263
vn -0.3242 0.0513 0.9446
vn 0.0577 -0.1330 0.9895
vn -0.9691 0.1187 0.2163
vn -0.4300 0.1549 0.8894
vn -0.4680 0.1508 0.8708
vn -0.4318 0.1566 0.8882
vn -0.9156 0.2740 0.2944
vn 0.2598 0.5576 0.7885
vn -0.3439 -0.0065 0.9390
vn -0.4288 0.1552 0.8900
vn -0.9409 0.1064 0.3214
vn -0.1211 -0.9471 0.2973
vn -0.3398 0.6051 0.7199
vn -0.3191 0.6088 0.7263
vn -0.9907 0.1216 0.0611
vn 0.3115 0.0818 0.9468
vn 0.5540 0.0294 0.8320
vn 0.4105 0.3814 0.8282
vn 0.1232 0.4300 0.8944
vn -0.8923 0.0675 0.4463
vn -0.2619 0.9046 -0.3363
vn -0.2211 0.8850 -0.4098
vn -0.9006 0.0265 0.4339
vn 0.4864 0.8069 0.3352
vn 0.4642 0.8152 0.3462
vn 0.4407 -0.1146 0.8904
vn -0.4311 0.1526 0.8893
vn -0.2179 0.9281 -0.3018
vn -0.2152 0.9287 -0.3019
vn 0.4990 0.5929 0.6320
vn 0.4523 0.7333 0.5077
vn 0.1288 0.5413 0.8309
vn -0.1850 0.4618 0.8675
vn -0.1043 0.4796 0.8713
vn 0.1545 0.5181 0.8412
vn -0.8889 0.2916 0.3533
vn 0.7212 0.6211 0.3067
vn 0.7212 0.6211 0.3067
vn 0.7212 0.6211 0.3067
vn -0.0966 0.5237 0.8464
vn -0.1804 0.4826 0.8571
vn -0.1652 0.9553 -0.2451
vn -0.2062 0.8922 -0.4018
vn -0.2801 0.4078 0.8690
vn 0.0032 0.5078 0.8615
vn -0.0479 0.3594 0.9319
vn -0.3554 0.3931 0.8480
vn -0.0387 0.4886 0.8717
vn -0.9210 0.0417 0.3873
vn -0.8682 -0.0243 0.4956
vn -0.7906 -0.0969 0.6046
vn 0.0673 -0.7965 0.6009
vn 0.0673 -0.7965 0.6009
vn 0.0673 -0.7965 0.6009
vn 0.1931 -0.2728 0.9425
vn -0.9604 0.1172 0.2526
vn -0.2183 0.4517 0.8651
vn -0.5683 0.2336 0.7890
vn -0.3186 0.3802 0.8683
vn -0.4468 0.2420 0.8613
vn -0.9100 -0.3964 0.1222
vn -0.9054 -0.4245 -0.0033
vn -0.9076 -0.4180 0.0391
vn -0.1402 0.5540 0.8206
vn -0.1552 0.4092 0.8992
vn 0.0778 0.6612 0.7461
vn -0.5829 0.2286 0.7797
vn -0.9047 -0.4254 -0.0249
vn -0.8850 -0.3873 0.2585
vn -0.8612 -0.3808 0.3365
vn 0.0150 0.5055 0.8627
vn 0.1834 0.5979 0.7803
vn -0.0242 0.5912 0.8062
vn 0.3494 0.7178 0.6022
vn 0.0041 0.6382 0.7699
vn -0.0917 0.6516 0.7530
vn -0.1162 0.6401 0.7595
vn 0.0814 0.6007 0.7953
vn 0.9676 0.0312 0.2507
vn 0.9600 -0.2629 0.0970
vn 0.0000 1.0000 0.0000
vn 0.0000 1.0000 0.0000
vn 0.0000 1.0000 0.0000
vn 0.0000 1.0000 0.0000
vn 0.0000 1.0000 0.0000
vn 0.0000 1.0000 0.0000
vn 0.0000 1.0000 0.0000
vn 0.0000 1.0000 0.0000
vn 0.0000 1.0000 0.0000
vn 0.0000 1.0000 0.0000
vn 0.0000 1.0000 0.0000
vn 0.0000 1.0000 0.0000
vn 0.0000 1.0000 0.0000
f 1/1/1 2/2/2 3/3/3
f 4/4/4 5/5/5 6/6/6
f 7/7/7 6/6/6 5/5/5
f 1/1/1 8/8/8 9/9/9
f 1/1/1 3/3/3 8/8/8
f 4/4/4 10/10/10 11/11/11
f 6/6/6 10/10/10 4/4/4
f 12/12/12 13/13/13 14/14/14
f 5/5/5 15/15/15 7/7/7
f 16/16/16 5/5/5 17/17/17
f 15/15/15 5/5/5 18/18/18
f 19/19/19 20/20/20 21/21/21
f 5/5/5 16/16/16 18/18/18
f 22/22/22 23/23/23 19/19/19
f 24/24/24 25/25/25 26/26/26
f 21/21/21 27/27/27 19/19/19
f 28/28/28 29/29/29 30/30/30
f 31/31/31 32/32/32 33/33/33
f 27/27/27 22/22/22 19/19/19
f 32/32/32 34/34/34 35/35/35
f 36/36/36 37/37/37 26/26/26
f 27/27/27 21/21/21 38/38/38
f 39/39/39 40/40/40 41/41/41
f 10/10/10 42/42/42 43/43/43
f 32/32/32 35/35/35 44/44/44
f 45/45/45 46/46/46 37/37/37
f 47/47/47 48/48/48 49/49/49
f 10/10/10 43/43/43 11/11/11
f 30/30/30 40/40/40 28/28/28
f 51/51/51 52/52/52 161/161/161
f 37/37/37 36/36/36 45/45/45
f 53/53/53 11/11/11 43/43/43
f 54/54/54 55/55/55 56/56/56
f 161/161/161 52/52/52 57/57/57
f 45/45/45 58/58/58 46/46/46
f 36/36/36 26/26/26 25/25/25
f 39/39/39 41/41/41 59/59/59
f 60/60/60 61/61/61 62/62/62
f 44/44/44 35/35/35 63/63/63
f 162/162/162 22/22/22 27/27/27
f 48/48/48 47/47/47 64/64/64
f 22/22/22 65/65/65 23/23/23
f 32/32/32 31/31/31 34/34/34
f 65/65/65 22/22/22 162/162/162
f 66/66/66 67/67/67 68/68/68
f 69/69/69 39/39/39 59/59/59
f 61/61/61 60/60/60 70/70/70
f 57/57/57 52/52/52 71/71/71
f 72/72/72 50/50/50 73/73/73
f 24/24/24 74/74/74 25/25/25
f 75/75/75 68/68/68 67/67/67
f 76/76/76 77/77/77 78/78/78
f 57/57/57 79/79/79 80/80/80
f 81/81/81 82/82/82 83/83/83
f 41/41/41 40/40/40 84/84/84
f 75/75/75 67/67/67 85/85/85
f 71/71/71 79/79/79 57/57/57
f 86/86/86 87/87/87 88/88/88
f 89/89/89 67/67/67 66/66/66
f 66/66/66 78/78/78 89/89/89
f 41/41/41 90/90/90 59/59/59
f 81/81/81 83/83/83 91/91/91
f 86/86/86 88/88/88 92/92/92
f 75/75/75 85/85/85 93/93/93
f 48/48/48 64/64/64 94/94/94
f 95/95/95 96/96/96 69/69/69
f 69/69/69 59/59/59 95/95/95
f 67/67/67 97/97/97 85/85/85
f 78/78/78 77/77/77 89/89/89
f 98/98/98 99/99/99 100/100/100
f 100/100/100 101/101/101 98/98/98
f 102/102/102 93/93/93 85/85/85
f 103/103/103 74/74/74 104/104/104
f 103/103/103 25/25/25 74/74/74
f 102/102/102 105/105/105 93/93/93
f 106/106/106 59/59/59 107/107/107
f 99/99/99 98/98/98 108/108/108
f 86/86/86 92/92/92 109/109/109
f 103/103/103 110/110/110 111/111/111
f 59/59/59 90/90/90 112/112/112
f 84/84/84 40/40/40 30/30/30
f 107/107/107 59/59/59 113/113/113
f 112/112/112 113/113/113 59/59/59
f 114/114/114 115/115/115 116/116/116
f 100/100/100 117/117/117 101/101/101
f 89/89/89 118/118/118 67/67/67
f 119/119/119 120/120/120 121/121/121
f 115/115/115 122/122/122 123/123/123
f 124/124/124 111/111/111 125/125/125
f 122/122/122 126/126/126 123/123/123
f 117/117/117 127/127/127 101/101/101
f 115/115/115 123/123/123 116/116/116
f 98/98/98 101/101/101 128/128/128
f 129/129/129 123/123/123 126/126/126
f 127/127/127 130/130/130 101/101/101
f 125/125/125 111/111/111 110/110/110
f 131/131/131 132/132/132 133/133/133
f 134/134/134 135/135/135 136/136/136
f 98/98/98 137/137/137 108/108/108
f 132/132/132 131/131/131 138/138/138
f 123/123/123 139/139/139 116/116/116
f 140/140/140 141/141/141 142/142/142
f 143/143/143 144/144/144 145/145/145
f 146/146/146 142/142/142 141/141/141
f 101/101/101 147/147/147 128/128/128
f 101/101/101 130/130/130 147/147/147
f 148/148/148 146/146/146 141/141/141
f 140/140/140 149/149/149 141/141/141
f 144/144/144 150/150/150 145/145/145
f 143/143/143 145/145/145 151/151/151
f 143/143/143 151/151/151 152/152/152
f 153/153/153 154/154/154 155/155/155
f 156/156/156 148/148/148 141/141/141
f 104/104/104 110/110/110 103/103/103
f 157/157/157 153/153/153 158/158/158
f 159/159/159 155/155/155 160/160/160
f 163/163/163 164/164/164 165/165/165
f 163/163/163 165/165/165 164/164/164
f 163/163/163 165/165/165 166/166/166
f 163/163/163 166/166/166 165/165/165
f 163/163/163 166/166/166 167/167/167
f 163/163/163 167/167/167 166/166/166
f 163/163/163 167/167/167 168/168/168
f 163/163/163 168/168/168 167/167/167
f 163/163/163 168/168/168 169/169/169
f 163/163/163 169/169/169 168/168/168
f 163/163/163 169/169/169 170/170/170
f 163/163/163 170/170/170 169/169/169
f 163/163/163 170/170/170 171/171/171
f 163/163/163 171/171/171 170/170/170
f 163/163/163 171/171/171 172/172/172
f 163/163/163 172/172/172 171/171/171
f 163/163/163 172/172/172 173/173/173
f 163/163/163 173/173/173 172/172/172
f 163/163/163 173/173/173 174/174/174
f 163/163/163 174/174/174 173/173/173
f 163/163/163 174/174/174 175/175/175
f 163/163/163 175/175/175 174/174/174
f 163/163/163 175/175/175 164/164/164
f 163/163/163 164/164/164 175/175/175
