o horn_left
v -1.94784 7.51590 -6.03246
v -1.72226 7.54247 -5.99347
v -1.97099 7.61018 -5.99859
v -1.94784 7.51590 -6.03246
v -1.98596 7.56336 -6.12340
v -1.79168 7.46616 -6.13575
v -1.94784 7.51590 -6.03246
v -1.97099 7.61018 -5.99859
v -2.08510 7.65041 -6.07353
v -1.94784 7.51590 -6.03246
v -2.08510 7.65041 -6.07353
v -1.98596 7.56336 -6.12340
v -1.97099 7.61018 -5.99859
v -1.72226 7.54247 -5.99347
v -1.95408 7.68546 -5.92840
v -1.97099 7.61018 -5.99859
v -1.95408 7.68546 -5.92840
v -2.29418 7.84625 -5.83034
v -1.55551 7.99243 -5.87873
v -1.60849 8.01830 -5.92697
v -1.51609 7.93421 -5.86547
v -1.60849 8.01830 -5.92697
v -1.38226 8.00295 -6.05001
v -1.71138 8.04871 -5.93075
v -1.60849 8.01830 -5.92697
v -1.71138 8.04871 -5.93075
v -1.82293 8.02467 -5.86249
v -2.51478 7.98695 -5.75297
v -2.29418 7.84625 -5.83034
v -2.41922 7.94603 -5.69441
v -2.51478 7.98695 -5.75297
v -2.41922 7.94603 -5.69441
v -2.51328 8.05143 -5.57782
v -2.51478 7.98695 -5.75297
v -2.51328 8.05143 -5.57782
v -2.58242 8.09431 -5.65640
v -2.51478 7.98695 -5.75297
v -2.58242 8.09431 -5.65640
v -2.51949 8.18952 -5.71442
v -2.51478 7.98695 -5.75297
v -2.51949 8.18952 -5.71442
v -2.52152 8.13547 -5.81188
v -2.51478 7.98695 -5.75297
v -2.52152 8.13547 -5.81188
v -2.59245 8.05341 -5.87087
v -2.49739 8.01375 -5.96657
v -2.50750 7.95811 -5.90474
v -2.59245 8.05341 -5.87087
v -2.59953 8.10273 -5.91349
v -2.51532 8.07597 -5.95654
v -2.49739 8.01375 -5.96657
v -2.59953 8.10273 -5.91349
v -2.49739 8.01375 -5.96657
v -2.59245 8.05341 -5.87087
v -2.59953 8.10273 -5.91349
v -2.47280 8.12076 -5.95884
v -2.51532 8.07597 -5.95654
v -2.40739 8.23629 -5.78733
v -2.47291 8.15033 -5.91076
v -2.52152 8.13547 -5.81188
v -2.40739 8.23629 -5.78733
v -2.52152 8.13547 -5.81188
v -2.51949 8.18952 -5.71442
v -2.40739 8.23629 -5.78733
v -2.34444 8.27546 -5.73994
v -2.16581 8.17128 -5.93731
v -2.29941 8.49170 -5.07087
v -2.35421 8.34778 -5.18571
v -2.29446 8.35920 -5.20071
v -2.27755 8.61224 -5.07349
v -2.29941 8.49170 -5.07087
v -2.25047 8.54005 -5.15328
v -2.27755 8.61224 -5.07349
v -2.25047 8.54005 -5.15328
v -2.11810 8.87294 -5.06318
v -2.27755 8.61224 -5.07349
v -2.22679 8.81042 -5.00307
v -2.40358 8.53459 -5.08181
v -2.27755 8.61224 -5.07349
v -2.40358 8.53459 -5.08181
v -2.29941 8.49170 -5.07087
v -2.18474 8.89510 -5.10697
v -2.33298 8.66557 -5.20136
v -2.25229 8.82891 -5.09080
v -2.18474 8.89510 -5.10697
v -2.25229 8.82891 -5.09080
v -2.15365 8.95321 -5.07620
v -2.13957 9.00000 -4.99710
v -2.29003 8.81797 -5.00775
v -2.22679 8.81042 -5.00307
v -2.13957 9.00000 -4.99710
v -2.22679 8.81042 -5.00307
v -2.08900 8.94919 -5.00426
v -2.13957 9.00000 -4.99710
v -2.08900 8.94919 -5.00426
v -2.10079 8.98289 -5.05838
v -0.82609 7.67458 -5.73898
v -0.99589 7.74435 -5.78189
v -1.16487 7.46580 -5.81098
v -1.16487 7.46580 -5.81098
v -0.99589 7.74435 -5.78189
v -1.24004 7.67732 -5.79622
v -1.16487 7.46580 -5.81098
v -0.96555 7.37429 -5.80949
v -0.75149 7.44862 -5.74083
v -0.96555 7.37429 -5.80949
v -1.16487 7.46580 -5.81098
v -1.44267 7.48994 -5.90620
v -0.96555 7.37429 -5.80949
v -1.44267 7.48994 -5.90620
v -0.73891 7.21415 -5.87708
v -1.44267 7.48994 -5.90620
v -1.18375 7.34548 -6.01207
v -0.89713 7.22906 -6.02399
v -1.44267 7.48994 -5.90620
v -0.89713 7.22906 -6.02399
v -0.73891 7.21415 -5.87708
v -0.89713 7.22906 -6.02399
v -1.18375 7.34548 -6.01207
v -0.79947 7.09445 -6.15162
v -0.79947 7.09445 -6.15162
v -1.29273 7.21903 -6.17215
v -0.82255 7.04611 -6.21434
v -0.99588 7.91683 -6.37367
v -1.21745 7.98579 -6.17543
v -0.69641 7.90832 -6.16662
v -1.21745 7.98579 -6.17543
v -0.99588 7.91683 -6.37367
v -1.41404 7.98420 -6.33320
v -1.21745 7.98579 -6.17543
v -1.38226 8.00295 -6.05001
v -1.13439 7.96347 -6.02103
v -1.21745 7.98579 -6.17543
v -1.13439 7.96347 -6.02103
v -0.77946 7.90277 -5.96932
v -1.13439 7.96347 -6.02103
v -1.38226 8.00295 -6.05001
v -1.60849 8.01830 -5.92697
v -1.13439 7.96347 -6.02103
v -1.60849 8.01830 -5.92697
v -1.18304 7.91995 -5.82584
v -1.13439 7.96347 -6.02103
v -1.18304 7.91995 -5.82584
v -0.70268 7.85419 -5.84225
v -1.18304 7.91995 -5.82584
v -1.60849 8.01830 -5.92697
v -1.55551 7.99243 -5.87873
v -1.18304 7.91995 -5.82584
v -1.55551 7.99243 -5.87873
v -1.51609 7.93421 -5.86547
v -1.18304 7.91995 -5.82584
v -1.51609 7.93421 -5.86547
v -1.39038 7.82383 -5.82292
v -1.18304 7.91995 -5.82584
v -1.39038 7.82383 -5.82292
v -0.99589 7.74435 -5.78189
v -1.18304 7.91995 -5.82584
v -0.99589 7.74435 -5.78189
v -0.84120 7.82473 -5.76869
v -1.39038 7.82383 -5.82292
v -1.24004 7.67732 -5.79622
v -0.99589 7.74435 -5.78189
v -1.39038 7.82383 -5.82292
v -1.51609 7.93421 -5.86547
v -1.67035 7.65658 -5.92535
v -1.39038 7.82383 -5.82292
v -1.67035 7.65658 -5.92535
v -1.49491 7.58327 -5.85287
v -1.39038 7.82383 -5.82292
v -1.49491 7.58327 -5.85287
v -1.16487 7.46580 -5.81098
v -1.39038 7.82383 -5.82292
v -1.16487 7.46580 -5.81098
v -1.24004 7.67732 -5.79622
v -1.49491 7.58327 -5.85287
v -1.67035 7.65658 -5.92535
v -1.72226 7.54247 -5.99347
v -1.49491 7.58327 -5.85287
v -1.72226 7.54247 -5.99347
v -1.44267 7.48994 -5.90620
v -1.49491 7.58327 -5.85287
v -1.44267 7.48994 -5.90620
v -1.16487 7.46580 -5.81098
v -1.44267 7.48994 -5.90620
v -1.72226 7.54247 -5.99347
v -1.51153 7.44673 -6.03058
v -1.44267 7.48994 -5.90620
v -1.51153 7.44673 -6.03058
v -1.18375 7.34548 -6.01207
v -1.51153 7.44673 -6.03058
v -1.72226 7.54247 -5.99347
v -1.94784 7.51590 -6.03246
v -1.51153 7.44673 -6.03058
v -1.30559 7.32157 -6.09270
v -1.18375 7.34548 -6.01207
v -1.30559 7.32157 -6.09270
v -0.79947 7.09445 -6.15162
v -1.18375 7.34548 -6.01207
v -1.30559 7.32157 -6.09270
v -1.51153 7.44673 -6.03058
v -1.56731 7.38869 -6.15690
v -1.30559 7.32157 -6.09270
v -1.56731 7.38869 -6.15690
v -1.29273 7.21903 -6.17215
v -1.30559 7.32157 -6.09270
v -1.29273 7.21903 -6.17215
v -0.79947 7.09445 -6.15162
v -1.29273 7.21903 -6.17215
v -1.56731 7.38869 -6.15690
v -1.59696 7.38557 -6.27058
v -1.29273 7.21903 -6.17215
v -1.59696 7.38557 -6.27058
v -1.25026 7.19035 -6.25150
v -1.25026 7.19035 -6.25150
v -0.83633 7.04299 -6.29383
v -0.82255 7.04611 -6.21434
v -1.25026 7.19035 -6.25150
v -0.82255 7.04611 -6.21434
v -1.29273 7.21903 -6.17215
v -1.25026 7.19035 -6.25150
v -1.35528 7.25284 -6.38716
v -0.98567 7.10734 -6.41763
v -1.25026 7.19035 -6.25150
v -0.98567 7.10734 -6.41763
v -0.83633 7.04299 -6.29383
v -0.98567 7.10734 -6.41763
v -1.35528 7.25284 -6.38716
v -1.18252 7.23504 -6.51706
v -1.18252 7.23504 -6.51706
v -1.16022 7.37037 -6.68056
v -0.85173 7.20304 -6.62407
v -1.18252 7.23504 -6.51706
v -0.85173 7.20304 -6.62407
v -0.98567 7.10734 -6.41763
v -1.16022 7.37037 -6.68056
v -1.08688 7.37284 -6.70720
v -0.78808 7.28519 -6.70731
v -1.08688 7.37284 -6.70720
v -1.16022 7.37037 -6.68056
v -1.14240 7.49505 -6.74055
v -1.08688 7.37284 -6.70720
v -1.14240 7.49505 -6.74055
v -0.78808 7.28519 -6.70731
v -1.14240 7.49505 -6.74055
v -1.07856 7.59665 -6.71879
v -0.81260 7.55131 -6.73520
v -1.07856 7.59665 -6.71879
v -1.30018 7.76306 -6.62851
v -0.93657 7.67364 -6.67399
v -1.30018 7.76306 -6.62851
v -1.47609 7.83103 -6.55088
v -1.07149 7.82279 -6.52499
v -1.30018 7.76306 -6.62851
v -1.07149 7.82279 -6.52499
v -0.93657 7.67364 -6.67399
v -1.47609 7.83103 -6.55088
v -1.75526 7.88599 -6.47236
v -1.69781 7.99441 -6.33195
v -1.47609 7.83103 -6.55088
v -1.69781 7.99441 -6.33195
v -1.67428 8.02456 -6.28002
v -1.47609 7.83103 -6.55088
v -1.67428 8.02456 -6.28002
v -1.41404 7.98420 -6.33320
v -1.47609 7.83103 -6.55088
v -1.41404 7.98420 -6.33320
v -0.99588 7.91683 -6.37367
v -1.47609 7.83103 -6.55088
v -0.99588 7.91683 -6.37367
v -1.07149 7.82279 -6.52499
v -1.67428 8.02456 -6.28002
v -1.69781 7.99441 -6.33195
v -1.83055 8.07302 -6.11901
v -1.67428 8.02456 -6.28002
v -1.83055 8.07302 -6.11901
v -1.21745 7.98579 -6.17543
v -1.67428 8.02456 -6.28002
v -1.21745 7.98579 -6.17543
v -1.41404 7.98420 -6.33320
v -1.83055 8.07302 -6.11901
v -1.71138 8.04871 -5.93075
v -1.38226 8.00295 -6.05001
v -1.83055 8.07302 -6.11901
v -1.38226 8.00295 -6.05001
v -1.21745 7.98579 -6.17543
v -1.83055 8.07302 -6.11901
v -1.69781 7.99441 -6.33195
v -2.12927 8.14112 -6.03040
v -1.83055 8.07302 -6.11901
v -2.12927 8.14112 -6.03040
v -2.16581 8.17128 -5.93731
v -1.83055 8.07302 -6.11901
v -2.16581 8.17128 -5.93731
v -1.71138 8.04871 -5.93075
v -2.16581 8.17128 -5.93731
v -2.19199 8.20206 -5.81999
v -2.07983 8.14374 -5.81276
v -2.16581 8.17128 -5.93731
v -2.07983 8.14374 -5.81276
v -1.71138 8.04871 -5.93075
v -2.07983 8.14374 -5.81276
v -2.12566 8.13987 -5.69301
v -2.00247 8.08482 -5.79299
v -2.07983 8.14374 -5.81276
v -2.00247 8.08482 -5.79299
v -1.82293 8.02467 -5.86249
v -2.07983 8.14374 -5.81276
v -1.82293 8.02467 -5.86249
v -1.71138 8.04871 -5.93075
v -2.00247 8.08482 -5.79299
v -2.12566 8.13987 -5.69301
v -2.05548 7.97435 -5.79516
v -2.00247 8.08482 -5.79299
v -2.05548 7.97435 -5.79516
v -1.82293 8.02467 -5.86249
v -2.05548 7.97435 -5.79516
v -1.70560 7.87909 -5.90742
v -1.60849 8.01830 -5.92697
v -2.05548 7.97435 -5.79516
v -1.60849 8.01830 -5.92697
v -1.82293 8.02467 -5.86249
v -2.05548 7.97435 -5.79516
v -1.81061 7.76236 -5.91370
v -1.70560 7.87909 -5.90742
v -1.81061 7.76236 -5.91370
v -1.67035 7.65658 -5.92535
v -1.51609 7.93421 -5.86547
v -1.81061 7.76236 -5.91370
v -1.51609 7.93421 -5.86547
v -1.70560 7.87909 -5.90742
v -1.81061 7.76236 -5.91370
v -1.82473 7.72262 -5.91983
v -1.67035 7.65658 -5.92535
v -1.82473 7.72262 -5.91983
v -1.81061 7.76236 -5.91370
v -1.95408 7.68546 -5.92840
v -1.82473 7.72262 -5.91983
v -1.95408 7.68546 -5.92840
v -1.72226 7.54247 -5.99347
v -1.82473 7.72262 -5.91983
v -1.72226 7.54247 -5.99347
v -1.67035 7.65658 -5.92535
v -1.81061 7.76236 -5.91370
v -2.05548 7.97435 -5.79516
v -2.17534 7.88390 -5.78345
v -1.81061 7.76236 -5.91370
v -2.17534 7.88390 -5.78345
v -1.95408 7.68546 -5.92840
v -2.17534 7.88390 -5.78345
v -2.29836 7.98525 -5.59835
v -2.41922 7.94603 -5.69441
v -2.17534 7.88390 -5.78345
v -2.41922 7.94603 -5.69441
v -2.29418 7.84625 -5.83034
v -2.17534 7.88390 -5.78345
v -2.29418 7.84625 -5.83034
v -1.95408 7.68546 -5.92840
v -2.29836 7.98525 -5.59835
v -2.32957 8.04202 -5.50865
v -2.51328 8.05143 -5.57782
v -2.29836 7.98525 -5.59835
v -2.51328 8.05143 -5.57782
v -2.41922 7.94603 -5.69441
v -2.32957 8.04202 -5.50865
v -2.36601 8.18842 -5.36853
v -2.53522 8.20687 -5.41461
v -2.32957 8.04202 -5.50865
v -2.53522 8.20687 -5.41461
v -2.51328 8.05143 -5.57782
v -2.53522 8.20687 -5.41461
v -2.35421 8.34778 -5.18571
v -2.55041 8.41584 -5.21101
v -2.53522 8.20687 -5.41461
v -2.55041 8.41584 -5.21101
v -2.62987 8.23031 -5.44957
v -2.53522 8.20687 -5.41461
v -2.62987 8.23031 -5.44957
v -2.58242 8.09431 -5.65640
v -2.53522 8.20687 -5.41461
v -2.58242 8.09431 -5.65640
v -2.51328 8.05143 -5.57782
v -2.62987 8.23031 -5.44957
v -2.51949 8.18952 -5.71442
v -2.58242 8.09431 -5.65640
v -2.62987 8.23031 -5.44957
v -2.47097 8.33723 -5.52110
v -2.40739 8.23629 -5.78733
v -2.62987 8.23031 -5.44957
v -2.40739 8.23629 -5.78733
v -2.51949 8.18952 -5.71442
v -2.47097 8.33723 -5.52110
v -2.62987 8.23031 -5.44957
v -2.42066 8.45136 -5.40213
v -2.47097 8.33723 -5.52110
v -2.42066 8.45136 -5.40213
v -2.34444 8.27546 -5.73994
v -2.47097 8.33723 -5.52110
v -2.34444 8.27546 -5.73994
v -2.40739 8.23629 -5.78733
v -2.42066 8.45136 -5.40213
v -2.35063 8.48198 -5.33508
v -2.31347 8.28776 -5.64479
v -2.42066 8.45136 -5.40213
v -2.31347 8.28776 -5.64479
v -2.34444 8.27546 -5.73994
v -2.31347 8.28776 -5.64479
v -2.19199 8.20206 -5.81999
v -2.16581 8.17128 -5.93731
v -2.31347 8.28776 -5.64479
v -2.16581 8.17128 -5.93731
v -2.34444 8.27546 -5.73994
v -2.31347 8.28776 -5.64479
v -2.23661 8.24873 -5.62720
v -2.07983 8.14374 -5.81276
v -2.31347 8.28776 -5.64479
v -2.07983 8.14374 -5.81276
v -2.19199 8.20206 -5.81999
v -2.23661 8.24873 -5.62720
v -2.19038 8.20431 -5.58430
v -2.12566 8.13987 -5.69301
v -2.23661 8.24873 -5.62720
v -2.12566 8.13987 -5.69301
v -2.07983 8.14374 -5.81276
v -2.19038 8.20431 -5.58430
v -2.29177 8.12540 -5.47007
v -2.19733 8.01326 -5.65918
v -2.19038 8.20431 -5.58430
v -2.19733 8.01326 -5.65918
v -2.12566 8.13987 -5.69301
v -2.19733 8.01326 -5.65918
v -2.05548 7.97435 -5.79516
v -2.12566 8.13987 -5.69301
v -2.19733 8.01326 -5.65918
v -2.29177 8.12540 -5.47007
v -2.32957 8.04202 -5.50865
v -2.19733 8.01326 -5.65918
v -2.32957 8.04202 -5.50865
v -2.29836 7.98525 -5.59835
v -2.19733 8.01326 -5.65918
v -2.29836 7.98525 -5.59835
v -2.17534 7.88390 -5.78345
v -2.19733 8.01326 -5.65918
v -2.17534 7.88390 -5.78345
v -2.05548 7.97435 -5.79516
v -2.29177 8.12540 -5.47007
v -2.36601 8.18842 -5.36853
v -2.32957 8.04202 -5.50865
v -2.29177 8.12540 -5.47007
v -2.19038 8.20431 -5.58430
v -2.25556 8.41983 -5.27129
v -2.29177 8.12540 -5.47007
v -2.25556 8.41983 -5.27129
v -2.29446 8.35920 -5.20071
v -2.29177 8.12540 -5.47007
v -2.29446 8.35920 -5.20071
v -2.35421 8.34778 -5.18571
v -2.29177 8.12540 -5.47007
v -2.35421 8.34778 -5.18571
v -2.36601 8.18842 -5.36853
v -2.25556 8.41983 -5.27129
v -2.25194 8.43664 -5.26866
v -2.25047 8.54005 -5.15328
v -2.25556 8.41983 -5.27129
v -2.25047 8.54005 -5.15328
v -2.29941 8.49170 -5.07087
v -2.25556 8.41983 -5.27129
v -2.29941 8.49170 -5.07087
v -2.29446 8.35920 -5.20071
v -2.25194 8.43664 -5.26866
v -2.20570 8.67497 -5.15498
v -2.25047 8.54005 -5.15328
v -2.20570 8.67497 -5.15498
v -2.14994 8.81715 -5.09745
v -2.11810 8.87294 -5.06318
v -2.20570 8.67497 -5.15498
v -2.11810 8.87294 -5.06318
v -2.25047 8.54005 -5.15328
v -2.11810 8.87294 -5.06318
v -2.09345 8.94836 -5.06551
v -2.09491 8.92594 -5.03612
v -2.11810 8.87294 -5.06318
v -2.09491 8.92594 -5.03612
v -2.08900 8.94919 -5.00426
v -2.11810 8.87294 -5.06318
v -2.08900 8.94919 -5.00426
v -2.27755 8.61224 -5.07349
v -2.08900 8.94919 -5.00426
v -2.22679 8.81042 -5.00307
v -2.27755 8.61224 -5.07349
v -2.11810 8.87294 -5.06318
v -2.14994 8.81715 -5.09745
v -2.10079 8.98289 -5.05838
v -2.11810 8.87294 -5.06318
v -2.10079 8.98289 -5.05838
v -2.09345 8.94836 -5.06551
v -2.10079 8.98289 -5.05838
v -2.14994 8.81715 -5.09745
v -2.18474 8.89510 -5.10697
v -2.10079 8.98289 -5.05838
v -2.18474 8.89510 -5.10697
v -2.15365 8.95321 -5.07620
v -2.10079 8.98289 -5.05838
v -2.15365 8.95321 -5.07620
v -2.13957 9.00000 -4.99710
v -2.10079 8.98289 -5.05838
v -2.09458 8.98957 -5.04224
v -2.09345 8.94836 -5.06551
v -2.14994 8.81715 -5.09745
v -2.20570 8.67497 -5.15498
v -2.18474 8.89510 -5.10697
v -2.20570 8.67497 -5.15498
v -2.30358 8.62671 -5.23067
v -2.18474 8.89510 -5.10697
v -2.30358 8.62671 -5.23067
v -2.33298 8.66557 -5.20136
v -2.18474 8.89510 -5.10697
v -2.30358 8.62671 -5.23067
v -2.20570 8.67497 -5.15498
v -2.25194 8.43664 -5.26866
v -2.33298 8.66557 -5.20136
v -2.42992 8.62140 -5.06280
v -2.25229 8.82891 -5.09080
v -2.42992 8.62140 -5.06280
v -2.15365 8.95321 -5.07620
v -2.25229 8.82891 -5.09080
v -2.15365 8.95321 -5.07620
v -2.42992 8.62140 -5.06280
v -2.29003 8.81797 -5.00775
v -2.15365 8.95321 -5.07620
v -2.29003 8.81797 -5.00775
v -2.13957 9.00000 -4.99710
v -2.29003 8.81797 -5.00775
v -2.42992 8.62140 -5.06280
v -2.22679 8.81042 -5.00307
v -2.42992 8.62140 -5.06280
v -2.45945 8.56548 -5.08047
v -2.40358 8.53459 -5.08181
v -2.42992 8.62140 -5.06280
v -2.40358 8.53459 -5.08181
v -2.22679 8.81042 -5.00307
v -2.45945 8.56548 -5.08047
v -2.55041 8.41584 -5.21101
v -2.40358 8.53459 -5.08181
v -2.45945 8.56548 -5.08047
v -2.42992 8.62140 -5.06280
v -2.55041 8.41584 -5.21101
v -2.42992 8.62140 -5.06280
v -2.62987 8.23031 -5.44957
v -2.55041 8.41584 -5.21101
v -2.42992 8.62140 -5.06280
v -2.33298 8.66557 -5.20136
v -2.42066 8.45136 -5.40213
v -2.42992 8.62140 -5.06280
v -2.42066 8.45136 -5.40213
v -2.62987 8.23031 -5.44957
v -2.33298 8.66557 -5.20136
v -2.30358 8.62671 -5.23067
v -2.35063 8.48198 -5.33508
v -2.33298 8.66557 -5.20136
v -2.35063 8.48198 -5.33508
v -2.42066 8.45136 -5.40213
v -2.30358 8.62671 -5.23067
v -2.25194 8.43664 -5.26866
v -2.35063 8.48198 -5.33508
v -2.25194 8.43664 -5.26866
v -2.23661 8.24873 -5.62720
v -2.31347 8.28776 -5.64479
v -2.25194 8.43664 -5.26866
v -2.31347 8.28776 -5.64479
v -2.35063 8.48198 -5.33508
v -2.25194 8.43664 -5.26866
v -2.25556 8.41983 -5.27129
v -2.19038 8.20431 -5.58430
v -2.25194 8.43664 -5.26866
v -2.19038 8.20431 -5.58430
v -2.23661 8.24873 -5.62720
v -2.55041 8.41584 -5.21101
v -2.35421 8.34778 -5.18571
v -2.29941 8.49170 -5.07087
v -2.55041 8.41584 -5.21101
v -2.29941 8.49170 -5.07087
v -2.40358 8.53459 -5.08181
v -2.53522 8.20687 -5.41461
v -2.36601 8.18842 -5.36853
v -2.35421 8.34778 -5.18571
v -1.70560 7.87909 -5.90742
v -1.51609 7.93421 -5.86547
v -1.60849 8.01830 -5.92697
v -2.12927 8.14112 -6.03040
v -2.40739 8.23629 -5.78733
v -2.16581 8.17128 -5.93731
v -2.12927 8.14112 -6.03040
v -1.69781 7.99441 -6.33195
v -2.20090 8.05136 -6.19413
v -2.12927 8.14112 -6.03040
v -2.20090 8.05136 -6.19413
v -2.40739 8.23629 -5.78733
v -2.20090 8.05136 -6.19413
v -1.69781 7.99441 -6.33195
v -1.99841 7.95452 -6.35741
v -2.20090 8.05136 -6.19413
v -2.47280 8.12076 -5.95884
v -2.40739 8.23629 -5.78733
v -2.47280 8.12076 -5.95884
v -2.20090 8.05136 -6.19413
v -2.30295 7.93069 -6.29935
v -2.47280 8.12076 -5.95884
v -2.47291 8.15033 -5.91076
v -2.40739 8.23629 -5.78733
v -2.47291 8.15033 -5.91076
v -2.47280 8.12076 -5.95884
v -2.59953 8.10273 -5.91349
v -2.47291 8.15033 -5.91076
v -2.59953 8.10273 -5.91349
v -2.52152 8.13547 -5.81188
v -2.47280 8.12076 -5.95884
v -2.30295 7.93069 -6.29935
v -2.42982 8.02487 -6.09123
v -2.47280 8.12076 -5.95884
v -2.42982 8.02487 -6.09123
v -2.51532 8.07597 -5.95654
v -2.42982 8.02487 -6.09123
v -2.30295 7.93069 -6.29935
v -2.31037 7.85777 -6.30739
v -2.42982 8.02487 -6.09123
v -2.31037 7.85777 -6.30739
v -2.45834 7.97143 -6.10302
v -2.42982 8.02487 -6.09123
v -2.45834 7.97143 -6.10302
v -2.49739 8.01375 -5.96657
v -2.42982 8.02487 -6.09123
v -2.49739 8.01375 -5.96657
v -2.51532 8.07597 -5.95654
v -2.45834 7.97143 -6.10302
v -2.31037 7.85777 -6.30739
v -2.43950 7.91460 -6.09440
v -2.45834 7.97143 -6.10302
v -2.43950 7.91460 -6.09440
v -2.49739 8.01375 -5.96657
v -2.43950 7.91460 -6.09440
v -2.31037 7.85777 -6.30739
v -2.28969 7.75089 -6.22198
v -2.43950 7.91460 -6.09440
v -2.28969 7.75089 -6.22198
v -2.50750 7.95811 -5.90474
v -2.43950 7.91460 -6.09440
v -2.50750 7.95811 -5.90474
v -2.49739 8.01375 -5.96657
v -2.28969 7.75089 -6.22198
v -2.26385 7.71769 -6.13230
v -2.50750 7.95811 -5.90474
v -2.50750 7.95811 -5.90474
v -2.26385 7.71769 -6.13230
v -2.51478 7.98695 -5.75297
v -2.50750 7.95811 -5.90474
v -2.51478 7.98695 -5.75297
v -2.59245 8.05341 -5.87087
v -2.26385 7.71769 -6.13230
v -1.98596 7.56336 -6.12340
v -2.08510 7.65041 -6.07353
v -2.26385 7.71769 -6.13230
v -2.08510 7.65041 -6.07353
v -2.26204 7.75353 -5.96426
v -2.26385 7.71769 -6.13230
v -2.26204 7.75353 -5.96426
v -2.51478 7.98695 -5.75297
v -2.26204 7.75353 -5.96426
v -2.08510 7.65041 -6.07353
v -1.97099 7.61018 -5.99859
v -2.26204 7.75353 -5.96426
v -1.97099 7.61018 -5.99859
v -2.29418 7.84625 -5.83034
v -2.26204 7.75353 -5.96426
v -2.29418 7.84625 -5.83034
v -2.51478 7.98695 -5.75297
v -1.98596 7.56336 -6.12340
v -2.26385 7.71769 -6.13230
v -2.03546 7.57291 -6.27585
v -2.03546 7.57291 -6.27585
v -1.83159 7.49008 -6.27053
v -1.98596 7.56336 -6.12340
v -2.03546 7.57291 -6.27585
v -2.26385 7.71769 -6.13230
v -2.28969 7.75089 -6.22198
v -2.03546 7.57291 -6.27585
v -2.28969 7.75089 -6.22198
v -2.05703 7.63096 -6.36255
v -2.03546 7.57291 -6.27585
v -2.05703 7.63096 -6.36255
v -1.86516 7.55907 -6.42916
v -2.03546 7.57291 -6.27585
v -1.86516 7.55907 -6.42916
v -1.83159 7.49008 -6.27053
v -1.86516 7.55907 -6.42916
v -1.64794 7.35989 -6.38037
v -1.83159 7.49008 -6.27053
v -1.86516 7.55907 -6.42916
v -1.59036 7.48557 -6.54839
v -1.64794 7.35989 -6.38037
v -1.59036 7.48557 -6.54839
v -1.16022 7.37037 -6.68056
v -1.18252 7.23504 -6.51706
v -1.59036 7.48557 -6.54839
v -1.18252 7.23504 -6.51706
v -1.64794 7.35989 -6.38037
v -1.59036 7.48557 -6.54839
v -1.86516 7.55907 -6.42916
v -1.76837 7.65574 -6.57278
v -1.59036 7.48557 -6.54839
v -1.76837 7.65574 -6.57278
v -1.16022 7.37037 -6.68056
v -1.76837 7.65574 -6.57278
v -1.83585 7.75445 -6.57109
v -1.55550 7.64458 -6.66619
v -1.76837 7.65574 -6.57278
v -1.55550 7.64458 -6.66619
v -1.14240 7.49505 -6.74055
v -1.76837 7.65574 -6.57278
v -1.14240 7.49505 -6.74055
v -1.16022 7.37037 -6.68056
v -1.55550 7.64458 -6.66619
v -1.83585 7.75445 -6.57109
v -1.30018 7.76306 -6.62851
v -1.55550 7.64458 -6.66619
v -1.30018 7.76306 -6.62851
v -1.07856 7.59665 -6.71879
v -1.55550 7.64458 -6.66619
v -1.07856 7.59665 -6.71879
v -1.14240 7.49505 -6.74055
v -1.83585 7.75445 -6.57109
v -2.08799 7.85292 -6.43948
v -1.99841 7.95452 -6.35741
v -1.83585 7.75445 -6.57109
v -1.99841 7.95452 -6.35741
v -1.75526 7.88599 -6.47236
v -1.83585 7.75445 -6.57109
v -1.75526 7.88599 -6.47236
v -1.47609 7.83103 -6.55088
v -1.83585 7.75445 -6.57109
v -1.47609 7.83103 -6.55088
v -1.30018 7.76306 -6.62851
v -2.08799 7.85292 -6.43948
v -2.30295 7.93069 -6.29935
v -2.20090 8.05136 -6.19413
v -2.08799 7.85292 -6.43948
v -2.20090 8.05136 -6.19413
v -1.99841 7.95452 -6.35741
v -2.08799 7.85292 -6.43948
v -1.83585 7.75445 -6.57109
v -1.76837 7.65574 -6.57278
v -2.08799 7.85292 -6.43948
v -1.76837 7.65574 -6.57278
v -2.07212 7.76593 -6.44600
v -2.08799 7.85292 -6.43948
v -2.07212 7.76593 -6.44600
v -2.31037 7.85777 -6.30739
v -2.08799 7.85292 -6.43948
v -2.31037 7.85777 -6.30739
v -2.30295 7.93069 -6.29935
v -2.07212 7.76593 -6.44600
v -1.76837 7.65574 -6.57278
v -1.86516 7.55907 -6.42916
v -2.07212 7.76593 -6.44600
v -1.86516 7.55907 -6.42916
v -2.05703 7.63096 -6.36255
v -2.07212 7.76593 -6.44600
v -2.05703 7.63096 -6.36255
v -2.31037 7.85777 -6.30739
v -2.05703 7.63096 -6.36255
v -2.28969 7.75089 -6.22198
v -2.31037 7.85777 -6.30739
v -1.64794 7.35989 -6.38037
v -1.35528 7.25284 -6.38716
v -1.25026 7.19035 -6.25150
v -1.64794 7.35989 -6.38037
v -1.25026 7.19035 -6.25150
v -1.59696 7.38557 -6.27058
v -1.64794 7.35989 -6.38037
v -1.59696 7.38557 -6.27058
v -1.83159 7.49008 -6.27053
v -1.64794 7.35989 -6.38037
v -1.18252 7.23504 -6.51706
v -1.35528 7.25284 -6.38716
v -1.83159 7.49008 -6.27053
v -1.59696 7.38557 -6.27058
v -1.56731 7.38869 -6.15690
v -1.83159 7.49008 -6.27053
v -1.56731 7.38869 -6.15690
v -1.79168 7.46616 -6.13575
v -1.83159 7.49008 -6.27053
v -1.79168 7.46616 -6.13575
v -1.98596 7.56336 -6.12340
v -1.99841 7.95452 -6.35741
v -1.69781 7.99441 -6.33195
v -1.75526 7.88599 -6.47236
v -1.56731 7.38869 -6.15690
v -1.51153 7.44673 -6.03058
v -1.94784 7.51590 -6.03246
v -1.56731 7.38869 -6.15690
v -1.94784 7.51590 -6.03246
v -1.79168 7.46616 -6.13575
v -2.08900 8.94919 -5.00426
v -2.09458 8.98957 -5.04224
v -2.10079 8.98289 -5.05838
v -2.59953 8.10273 -5.91349
v -2.59245 8.05341 -5.87087
v -2.52152 8.13547 -5.81188
v -2.09491 8.92594 -5.03612
v -2.09345 8.94836 -5.06551
v -2.09458 8.98957 -5.04224
v -2.09491 8.92594 -5.03612
v -2.09458 8.98957 -5.04224
v -2.08900 8.94919 -5.00426
vt 0.12621 0.84524
vt 0.13430 0.83923
vt 0.12903 0.84921
vt 0.94065 0.57022
vt 0.93572 0.57022
vt 0.93899 0.56175
vt 0.92549 0.66049
vt 0.92074 0.65955
vt 0.92062 0.65380
vt 0.92558 0.66035
vt 0.92062 0.65380
vt 0.92507 0.65518
vt 0.12903 0.84921
vt 0.13436 0.83936
vt 0.13232 0.85224
vt 0.12903 0.84921
vt 0.13226 0.85225
vt 0.12803 0.86981
vt 0.87185 0.62690
vt 0.86959 0.62831
vt 0.87342 0.62406
vt 0.94263 0.13683
vt 0.93721 0.14750
vt 0.94233 0.13178
vt 0.15502 0.85003
vt 0.15327 0.85436
vt 0.14875 0.85864
vt 0.94065 0.59776
vt 0.94177 0.58731
vt 0.94510 0.59468
vt 0.37073 0.56962
vt 0.37522 0.57152
vt 0.37276 0.57793
vt 0.37077 0.56961
vt 0.37276 0.57793
vt 0.36817 0.57554
vt 0.37078 0.56952
vt 0.36817 0.57554
vt 0.36401 0.57666
vt 0.37081 0.56956
vt 0.36401 0.57666
vt 0.36362 0.57149
vt 0.37082 0.56962
vt 0.36364 0.57126
vt 0.36419 0.56663
vt 0.20524 0.75998
vt 0.20781 0.76024
vt 0.20628 0.76628
vt 0.20458 0.76685
vt 0.20330 0.76235
vt 0.20516 0.76000
vt 0.20454 0.76687
vt 0.20520 0.75998
vt 0.20630 0.76627
vt 0.20448 0.76688
vt 0.20045 0.76187
vt 0.20330 0.76235
vt 0.19383 0.76597
vt 0.19920 0.76351
vt 0.20098 0.76689
vt 0.19387 0.76583
vt 0.20101 0.76683
vt 0.19868 0.77015
vt 0.19401 0.76576
vt 0.19055 0.76551
vt 0.18981 0.75268
vt 0.15127 0.90416
vt 0.14436 0.89955
vt 0.14661 0.89759
vt 0.15642 0.90668
vt 0.15113 0.90447
vt 0.15454 0.90218
vt 0.36376 0.68865
vt 0.36480 0.68374
vt 0.37110 0.69885
vt 0.15640 0.90671
vt 0.16523 0.91198
vt 0.14967 0.90853
vt 0.15640 0.90660
vt 0.14970 0.90851
vt 0.15132 0.90409
vt 0.16120 0.78800
vt 0.17435 0.78548
vt 0.16563 0.78886
vt 0.16120 0.78786
vt 0.16563 0.78886
vt 0.15806 0.78858
vt 0.17483 0.91434
vt 0.16356 0.91418
vt 0.16522 0.91202
vt 0.17483 0.91446
vt 0.16522 0.91208
vt 0.17452 0.91125
vt 0.80239 0.39606
vt 0.80158 0.39382
vt 0.80460 0.39448
vt 0.16647 0.81943
vt 0.16380 0.82601
vt 0.14849 0.82304
vt 0.14841 0.82348
vt 0.16380 0.82602
vt 0.15390 0.83167
vt 0.14882 0.82271
vt 0.15125 0.81419
vt 0.16048 0.81083
vt 0.15121 0.81425
vt 0.14838 0.82321
vt 0.14073 0.83081
vt 0.15132 0.81424
vt 0.14059 0.83081
vt 0.15264 0.80101
vt 0.91547 0.62163
vt 0.91982 0.63388
vt 0.91982 0.64746
vt 0.91586 0.62197
vt 0.91964 0.64731
vt 0.91260 0.65487
vt 0.14797 0.80338
vt 0.14320 0.81612
vt 0.14630 0.79374
vt 0.14626 0.79372
vt 0.13537 0.81272
vt 0.14359 0.79180
vt 0.92419 0.16581
vt 0.93180 0.15526
vt 0.93271 0.18029
vt 0.93184 0.15525
vt 0.92429 0.16580
vt 0.92556 0.14573
vt 0.93181 0.15526
vt 0.93721 0.14750
vt 0.93868 0.15946
vt 0.93179 0.15526
vt 0.93868 0.15946
vt 0.94129 0.17661
vt 0.93868 0.15946
vt 0.93721 0.14750
vt 0.94276 0.13680
vt 0.93861 0.15949
vt 0.94273 0.13680
vt 0.94805 0.15750
vt 0.93868 0.15946
vt 0.94798 0.15754
vt 0.94765 0.18053
vt 0.94806 0.15750
vt 0.94272 0.13681
vt 0.94517 0.13948
vt 0.16454 0.83590
vt 0.15575 0.84869
vt 0.15486 0.84629
vt 0.16452 0.83582
vt 0.15487 0.84633
vt 0.15467 0.84008
vt 0.16453 0.83583
vt 0.15473 0.84033
vt 0.16384 0.82596
vt 0.16451 0.83581
vt 0.16383 0.82587
vt 0.17149 0.82352
vt 0.15466 0.84027
vt 0.15389 0.83176
vt 0.16382 0.82576
vt 0.15465 0.83998
vt 0.15483 0.84615
vt 0.13985 0.84261
vt 0.15451 0.84035
vt 0.13996 0.84226
vt 0.14270 0.83603
vt 0.15452 0.84030
vt 0.14273 0.83599
vt 0.14832 0.82350
vt 0.15467 0.83989
vt 0.14829 0.82381
vt 0.15391 0.83165
vt 0.12159 0.78261
vt 0.12172 0.77512
vt 0.12818 0.77526
vt 0.12159 0.78261
vt 0.12821 0.77474
vt 0.12640 0.78421
vt 0.14264 0.83619
vt 0.14100 0.83074
vt 0.14816 0.82326
vt 0.14136 0.83087
vt 0.13376 0.83933
vt 0.13741 0.82917
vt 0.91598 0.62200
vt 0.92144 0.61851
vt 0.91973 0.63383
vt 0.13694 0.82917
vt 0.13418 0.83939
vt 0.12688 0.84501
vt 0.13718 0.82912
vt 0.13883 0.81766
vt 0.14328 0.81613
vt 0.13883 0.81766
vt 0.14626 0.79373
vt 0.14348 0.81612
vt 0.13883 0.81766
vt 0.13669 0.82910
vt 0.13327 0.82659
vt 0.13883 0.81766
vt 0.13327 0.82659
vt 0.13515 0.81285
vt 0.13883 0.81766
vt 0.13556 0.81270
vt 0.14617 0.79371
vt 0.94718 0.54000
vt 0.94222 0.55171
vt 0.93672 0.55126
vt 0.94717 0.53997
vt 0.93672 0.55126
vt 0.94457 0.53718
vt 0.94455 0.53694
vt 0.95039 0.51834
vt 0.95410 0.51891
vt 0.94451 0.53666
vt 0.95420 0.51982
vt 0.94715 0.53975
vt 0.94453 0.53691
vt 0.93638 0.53919
vt 0.94198 0.52295
vt 0.94451 0.53704
vt 0.94202 0.52284
vt 0.95037 0.51838
vt 0.94199 0.52282
vt 0.93639 0.53918
vt 0.93354 0.52949
vt 0.93351 0.52949
vt 0.92536 0.52539
vt 0.93433 0.51312
vt 0.93350 0.52949
vt 0.93434 0.51312
vt 0.94170 0.52287
vt 0.92571 0.52530
vt 0.92573 0.52158
vt 0.93091 0.50859
vt 0.19235 0.67907
vt 0.19450 0.68211
vt 0.18915 0.68338
vt 0.19235 0.67907
vt 0.18909 0.68347
vt 0.18767 0.66608
vt 0.18915 0.68335
vt 0.18340 0.68397
vt 0.17796 0.67329
vt 0.18342 0.68402
vt 0.18289 0.69781
vt 0.17643 0.68174
vt 0.18300 0.69780
vt 0.18510 0.70730
vt 0.17399 0.69325
vt 0.18265 0.69782
vt 0.17404 0.69322
vt 0.17647 0.68175
vt 0.18529 0.70727
vt 0.19045 0.72020
vt 0.18417 0.72370
vt 0.18476 0.70738
vt 0.18450 0.72363
vt 0.18257 0.72459
vt 0.18496 0.70733
vt 0.18257 0.72459
vt 0.17706 0.71325
vt 0.18480 0.70737
vt 0.17727 0.71320
vt 0.16809 0.69590
vt 0.18480 0.70737
vt 0.16809 0.69590
vt 0.17402 0.69325
vt 0.92762 0.13327
vt 0.92556 0.13217
vt 0.93381 0.12586
vt 0.92762 0.13327
vt 0.93384 0.12586
vt 0.93172 0.15527
vt 0.92762 0.13327
vt 0.93170 0.15527
vt 0.92556 0.14573
vt 0.93361 0.12596
vt 0.94220 0.13180
vt 0.93747 0.14739
vt 0.93395 0.12584
vt 0.93721 0.14750
vt 0.93182 0.15526
vt 0.93381 0.12586
vt 0.92556 0.13217
vt 0.93781 0.11156
vt 0.93393 0.12586
vt 0.93711 0.11151
vt 0.94038 0.10979
vt 0.93391 0.12585
vt 0.94056 0.10973
vt 0.94204 0.13186
vt 0.94050 0.10975
vt 0.94482 0.10858
vt 0.94529 0.11436
vt 0.94047 0.10975
vt 0.94624 0.11404
vt 0.94214 0.13182
vt 0.94609 0.11452
vt 0.95140 0.11207
vt 0.94798 0.11800
vt 0.94608 0.11406
vt 0.94798 0.11800
vt 0.94584 0.12666
vt 0.94586 0.11391
vt 0.94584 0.12666
vt 0.94206 0.13175
vt 0.14546 0.86764
vt 0.14378 0.87521
vt 0.13977 0.86634
vt 0.14546 0.86764
vt 0.13979 0.86632
vt 0.14876 0.85867
vt 0.13977 0.86628
vt 0.14700 0.84986
vt 0.15508 0.85009
vt 0.13977 0.86628
vt 0.15508 0.85009
vt 0.14875 0.85864
vt 0.13978 0.86622
vt 0.13953 0.85007
vt 0.14701 0.84988
vt 0.13957 0.84987
vt 0.13993 0.84233
vt 0.15483 0.84615
vt 0.13952 0.85003
vt 0.15486 0.84553
vt 0.14701 0.84988
vt 0.13952 0.84997
vt 0.13763 0.84923
vt 0.13995 0.84228
vt 0.13763 0.84923
vt 0.13940 0.85004
vt 0.13225 0.85227
vt 0.13763 0.84923
vt 0.13236 0.85219
vt 0.13402 0.83955
vt 0.13763 0.84923
vt 0.13406 0.83946
vt 0.13992 0.84231
vt 0.13956 0.84995
vt 0.13976 0.86634
vt 0.13281 0.86801
vt 0.13938 0.85004
vt 0.13309 0.86791
vt 0.13228 0.85226
vt 0.13277 0.86800
vt 0.13293 0.87890
vt 0.12714 0.87938
vt 0.94561 0.58266
vt 0.94510 0.59468
vt 0.94173 0.58737
vt 0.13262 0.86801
vt 0.12783 0.86983
vt 0.13243 0.85224
vt 0.95115 0.59069
vt 0.95412 0.59314
vt 0.94807 0.60031
vt 0.95118 0.59072
vt 0.94802 0.60026
vt 0.94490 0.59450
vt 0.13403 0.88335
vt 0.13815 0.89160
vt 0.13347 0.89660
vt 0.13383 0.88337
vt 0.13370 0.89658
vt 0.12861 0.88807
vt 0.13370 0.89658
vt 0.14432 0.89956
vt 0.14069 0.90725
vt 0.37056 0.58818
vt 0.36746 0.60151
vt 0.36761 0.58663
vt 0.37055 0.58820
vt 0.36757 0.58660
vt 0.36817 0.57554
vt 0.37064 0.58817
vt 0.36817 0.57554
vt 0.37276 0.57793
vt 0.19978 0.78037
vt 0.19868 0.77015
vt 0.20405 0.77123
vt 0.19971 0.78067
vt 0.19135 0.77594
vt 0.19387 0.76585
vt 0.19964 0.78079
vt 0.19387 0.76585
vt 0.19868 0.77015
vt 0.19135 0.77594
vt 0.19971 0.78067
vt 0.18540 0.77923
vt 0.19135 0.77594
vt 0.18524 0.77965
vt 0.19055 0.76551
vt 0.19135 0.77594
vt 0.19055 0.76551
vt 0.19392 0.76579
vt 0.18492 0.77933
vt 0.18216 0.77894
vt 0.18948 0.76663
vt 0.95856 0.09706
vt 0.95068 0.10279
vt 0.94707 0.10118
vt 0.95093 0.10268
vt 0.94482 0.10858
vt 0.94058 0.10972
vt 0.95088 0.10269
vt 0.94073 0.10962
vt 0.94707 0.10118
vt 0.95087 0.10267
vt 0.95228 0.10645
vt 0.94628 0.11395
vt 0.95091 0.10262
vt 0.94621 0.11398
vt 0.94482 0.10858
vt 0.37075 0.65832
vt 0.36737 0.65842
vt 0.36809 0.65295
vt 0.37076 0.65834
vt 0.36806 0.65292
vt 0.37145 0.64884
vt 0.14410 0.88158
vt 0.13805 0.88532
vt 0.13688 0.87497
vt 0.14404 0.88164
vt 0.13704 0.87481
vt 0.14362 0.87543
vt 0.13688 0.87497
vt 0.13985 0.86627
vt 0.14372 0.87533
vt 0.13688 0.87497
vt 0.13811 0.88525
vt 0.13390 0.88335
vt 0.13688 0.87497
vt 0.13390 0.88335
vt 0.13275 0.87872
vt 0.13688 0.87497
vt 0.13277 0.87884
vt 0.13280 0.86790
vt 0.13688 0.87497
vt 0.13279 0.86792
vt 0.13979 0.86632
vt 0.13812 0.88534
vt 0.13815 0.89160
vt 0.13390 0.88335
vt 0.13859 0.88450
vt 0.14404 0.88166
vt 0.14994 0.89654
vt 0.13814 0.88512
vt 0.15010 0.89608
vt 0.14649 0.89808
vt 0.13807 0.88520
vt 0.14661 0.89759
vt 0.14436 0.89955
vt 0.13810 0.88523
vt 0.14437 0.89955
vt 0.13815 0.89160
vt 0.36489 0.67574
vt 0.36527 0.67642
vt 0.36422 0.68364
vt 0.36445 0.67574
vt 0.36459 0.68374
vt 0.36132 0.68446
vt 0.36474 0.67571
vt 0.36101 0.68449
vt 0.36093 0.67571
vt 0.36509 0.67640
vt 0.36821 0.68859
vt 0.36457 0.68374
vt 0.36851 0.68883
vt 0.37045 0.69572
vt 0.37072 0.69891
vt 0.36818 0.68856
vt 0.37108 0.69884
vt 0.36481 0.68375
vt 0.37090 0.69912
vt 0.37289 0.70148
vt 0.37122 0.70164
vt 0.17083 0.90880
vt 0.17348 0.91011
vt 0.17450 0.91133
vt 0.17086 0.90864
vt 0.17448 0.91146
vt 0.15641 0.90665
vt 0.17445 0.91125
vt 0.16523 0.91198
vt 0.15640 0.90671
vt 0.37079 0.69868
vt 0.37047 0.69558
vt 0.37389 0.70283
vt 0.37070 0.69882
vt 0.37342 0.70294
vt 0.37289 0.70148
vt 0.15541 0.78788
vt 0.16316 0.78456
vt 0.16114 0.78761
vt 0.15533 0.78786
vt 0.16132 0.78779
vt 0.15808 0.78870
vt 0.15540 0.78791
vt 0.15822 0.78846
vt 0.15558 0.79114
vt 0.15558 0.78801
vt 0.15496 0.78816
vt 0.15657 0.78664
vt 0.16314 0.78458
vt 0.17022 0.78183
vt 0.16125 0.78781
vt 0.17032 0.78195
vt 0.17519 0.78308
vt 0.16114 0.78764
vt 0.17515 0.78293
vt 0.17433 0.78550
vt 0.16127 0.78777
vt 0.37080 0.68393
vt 0.36859 0.68850
vt 0.36483 0.67658
vt 0.17435 0.78552
vt 0.17857 0.79064
vt 0.16562 0.78897
vt 0.17857 0.79055
vt 0.15804 0.78887
vt 0.16563 0.78886
vt 0.15805 0.78869
vt 0.17856 0.79074
vt 0.16698 0.79173
vt 0.15805 0.78864
vt 0.16699 0.79156
vt 0.15574 0.79091
vt 0.16355 0.91416
vt 0.15203 0.91222
vt 0.16523 0.91197
vt 0.15208 0.91214
vt 0.14912 0.91120
vt 0.14970 0.90851
vt 0.15207 0.91214
vt 0.14970 0.90851
vt 0.16513 0.91212
vt 0.14912 0.91120
vt 0.14093 0.90718
vt 0.14955 0.90860
vt 0.18158 0.79000
vt 0.17863 0.79027
vt 0.19009 0.78690
vt 0.17863 0.79031
vt 0.19980 0.78039
vt 0.19009 0.78691
vt 0.17854 0.79080
vt 0.17440 0.78523
vt 0.18539 0.77920
vt 0.17861 0.79045
vt 0.18533 0.77952
vt 0.19981 0.78034
vt 0.17441 0.78551
vt 0.17513 0.78292
vt 0.18216 0.77894
vt 0.17462 0.78561
vt 0.18216 0.77894
vt 0.18580 0.77950
vt 0.37057 0.68405
vt 0.36543 0.67630
vt 0.36996 0.67542
vt 0.36485 0.67621
vt 0.37075 0.65832
vt 0.37389 0.65902
vt 0.36536 0.67650
vt 0.37333 0.65869
vt 0.36975 0.67528
vt 0.36538 0.67627
vt 0.36489 0.67562
vt 0.36732 0.65837
vt 0.36470 0.67601
vt 0.36750 0.65850
vt 0.37078 0.65835
vt 0.14075 0.90727
vt 0.14440 0.89954
vt 0.15135 0.90419
vt 0.14084 0.90723
vt 0.15129 0.90422
vt 0.14970 0.90851
vt 0.13346 0.89660
vt 0.13815 0.89160
vt 0.14439 0.89955
vt 0.86749 0.62191
vt 0.87342 0.62406
vt 0.86959 0.62831
vt 0.93734 0.11154
vt 0.94557 0.09823
vt 0.94034 0.10979
vt 0.19000 0.74878
vt 0.18472 0.72355
vt 0.19590 0.74575
vt 0.19004 0.74879
vt 0.19610 0.74564
vt 0.19363 0.76597
vt 0.19595 0.74573
vt 0.18453 0.72361
vt 0.19432 0.73287
vt 0.19571 0.74588
vt 0.20028 0.76195
vt 0.19391 0.76581
vt 0.20031 0.76195
vt 0.19594 0.74572
vt 0.20349 0.74436
vt 0.20038 0.76188
vt 0.19921 0.76355
vt 0.19379 0.76590
vt 0.31748 0.86343
vt 0.31847 0.86242
vt 0.31988 0.86867
vt 0.31747 0.86343
vt 0.32071 0.86853
vt 0.31563 0.86818
vt 0.20041 0.76183
vt 0.20356 0.74430
vt 0.20311 0.75533
vt 0.20044 0.76174
vt 0.20311 0.75533
vt 0.20330 0.76235
vt 0.20311 0.75533
vt 0.20355 0.74431
vt 0.20663 0.74266
vt 0.20311 0.75533
vt 0.20660 0.74274
vt 0.20599 0.75480
vt 0.20311 0.75533
vt 0.20599 0.75480
vt 0.20527 0.76045
vt 0.20311 0.75533
vt 0.20549 0.76018
vt 0.20330 0.76235
vt 0.36350 0.55661
vt 0.36492 0.54741
vt 0.36616 0.55553
vt 0.36350 0.55661
vt 0.36615 0.55551
vt 0.36476 0.56266
vt 0.36615 0.55551
vt 0.36489 0.54682
vt 0.37134 0.54781
vt 0.36615 0.55551
vt 0.37133 0.54781
vt 0.36832 0.56260
vt 0.36615 0.55551
vt 0.36824 0.56315
vt 0.36541 0.56292
vt 0.37130 0.54770
vt 0.37520 0.55033
vt 0.36836 0.56293
vt 0.36829 0.56310
vt 0.37524 0.55025
vt 0.37106 0.56925
vt 0.36833 0.56309
vt 0.37043 0.56986
vt 0.36432 0.56623
vt 0.92960 0.58157
vt 0.93585 0.57045
vt 0.93572 0.57506
vt 0.92983 0.58200
vt 0.93572 0.57506
vt 0.93684 0.58393
vt 0.92986 0.58219
vt 0.93697 0.58416
vt 0.94074 0.59808
vt 0.93699 0.58425
vt 0.93572 0.57506
vt 0.94118 0.57130
vt 0.93699 0.58425
vt 0.94118 0.57130
vt 0.94179 0.58740
vt 0.93699 0.58425
vt 0.94180 0.58741
vt 0.94092 0.59814
vt 0.93571 0.57018
vt 0.92974 0.58171
vt 0.92809 0.57000
vt 0.92809 0.57000
vt 0.93220 0.56131
vt 0.93572 0.57025
vt 0.92809 0.57000
vt 0.92949 0.58225
vt 0.92512 0.58146
vt 0.92809 0.57000
vt 0.92512 0.58147
vt 0.92341 0.56947
vt 0.92809 0.57000
vt 0.92340 0.56943
vt 0.92409 0.56007
vt 0.92809 0.57000
vt 0.92407 0.56011
vt 0.93202 0.56151
vt 0.92415 0.56001
vt 0.93122 0.55190
vt 0.93205 0.56156
vt 0.92430 0.55995
vt 0.92382 0.54615
vt 0.93104 0.55200
vt 0.92382 0.54615
vt 0.92552 0.52538
vt 0.93337 0.52954
vt 0.92382 0.54615
vt 0.93349 0.52949
vt 0.93099 0.55200
vt 0.20161 0.70298
vt 0.20639 0.71689
vt 0.19986 0.71302
vt 0.92382 0.54615
vt 0.91855 0.55301
vt 0.92558 0.52533
vt 0.19953 0.71315
vt 0.19797 0.71784
vt 0.19460 0.70326
vt 0.20029 0.71278
vt 0.19460 0.70326
vt 0.18919 0.68335
vt 0.19995 0.71297
vt 0.18935 0.68326
vt 0.19473 0.68198
vt 0.19460 0.70326
vt 0.19813 0.71786
vt 0.18267 0.69782
vt 0.19460 0.70326
vt 0.18293 0.69782
vt 0.18327 0.68398
vt 0.19460 0.70326
vt 0.18338 0.68399
vt 0.18907 0.68328
vt 0.19802 0.71783
vt 0.20092 0.73190
vt 0.19404 0.73294
vt 0.19790 0.71787
vt 0.19432 0.73287
vt 0.19045 0.72020
vt 0.19788 0.71787
vt 0.19045 0.72020
vt 0.18496 0.70733
vt 0.19795 0.71786
vt 0.18495 0.70733
vt 0.18291 0.69782
vt 0.20077 0.73196
vt 0.20357 0.74430
vt 0.19583 0.74579
vt 0.20068 0.73199
vt 0.19588 0.74576
vt 0.19432 0.73287
vt 0.20094 0.73190
vt 0.19794 0.71786
vt 0.20010 0.71297
vt 0.20090 0.73190
vt 0.19993 0.71300
vt 0.20381 0.72909
vt 0.20085 0.73192
vt 0.20381 0.72909
vt 0.20660 0.74262
vt 0.20082 0.73190
vt 0.20663 0.74263
vt 0.20356 0.74431
vt 0.20381 0.72909
vt 0.20004 0.71297
vt 0.20633 0.71693
vt 0.91808 0.56837
vt 0.92428 0.55995
vt 0.92379 0.56920
vt 0.20381 0.72909
vt 0.20872 0.72690
vt 0.20656 0.74263
vt 0.92384 0.56910
vt 0.92503 0.58152
vt 0.91987 0.58084
vt 0.93120 0.55193
vt 0.93638 0.53919
vt 0.94456 0.53672
vt 0.93122 0.55198
vt 0.94457 0.53696
vt 0.93672 0.55126
vt 0.93122 0.55197
vt 0.93672 0.55126
vt 0.93241 0.56162
vt 0.93123 0.55192
vt 0.93365 0.52939
vt 0.93638 0.53919
vt 0.93221 0.56137
vt 0.93672 0.55126
vt 0.94222 0.55171
vt 0.93222 0.56122
vt 0.94222 0.55171
vt 0.93899 0.56175
vt 0.93223 0.56117
vt 0.93899 0.56175
vt 0.93570 0.57030
vt 0.19432 0.73287
vt 0.18420 0.72373
vt 0.19045 0.72020
vt 0.94222 0.55171
vt 0.94855 0.55111
vt 0.94071 0.57016
vt 0.94222 0.55171
vt 0.94055 0.56979
vt 0.93899 0.56175
vt 0.37085 0.70351
vt 0.37346 0.70366
vt 0.37382 0.70288
vt 0.36116 0.56611
vt 0.36424 0.56627
vt 0.36363 0.57142
vt 0.37122 0.70164
vt 0.37289 0.70148
vt 0.37346 0.70366
vt 0.37122 0.70164
vt 0.37346 0.70366
vt 0.37085 0.70351
vn -0.4503 -0.7739 0.4453
vn -0.1824 -0.5101 0.8406
vn -0.3298 -0.6001 0.7288
vn -0.4503 -0.7739 0.4453
vn -0.5205 -0.8538 -0.0094
vn -0.3657 -0.9284 -0.0659
vn -0.4503 -0.7739 0.4453
vn -0.3298 -0.6001 0.7288
vn -0.4814 -0.8193 0.3114
vn -0.4503 -0.7739 0.4453
vn -0.4814 -0.8193 0.3114
vn -0.5205 -0.8538 -0.0094
vn -0.3298 -0.6001 0.7288
vn -0.1824 -0.5101 0.8406
vn -0.0204 -0.5542 0.8321
vn -0.3298 -0.6001 0.7288
vn -0.0204 -0.5542 0.8321
vn -0.2153 -0.8020 0.5572
vn -0.3958 0.4196 0.8169
vn 0.0962 0.7225 0.6846
vn -0.2296 0.1017 0.9680
vn 0.0962 0.7225 0.6846
vn 0.1475 0.9845 0.0950
vn 0.2310 0.9135 0.3350
vn 0.0962 0.7225 0.6846
vn 0.2310 0.9135 0.3350
vn 0.3436 0.2293 0.9107
vn -0.7803 -0.5946 0.1939
vn -0.2153 -0.8020 0.5572
vn -0.3187 -0.8633 0.3913
vn -0.7803 -0.5946 0.1939
vn -0.3187 -0.8633 0.3913
vn -0.5208 -0.7149 0.4667
vn -0.7803 -0.5946 0.1939
vn -0.5208 -0.7149 0.4667
vn -0.9579 -0.2367 -0.1625
vn -0.7803 -0.5946 0.1939
vn -0.9579 -0.2367 -0.1625
vn -0.7521 0.5339 -0.3865
vn -0.7803 -0.5946 0.1939
vn -0.7521 0.5339 -0.3865
vn -0.8293 0.5561 0.0545
vn -0.7803 -0.5946 0.1939
vn -0.8293 0.5561 0.0545
vn -0.9633 -0.2365 0.1269
vn -0.8537 -0.2026 -0.4798
vn -0.7780 -0.6175 -0.1160
vn -0.9633 -0.2365 0.1269
vn -0.8805 0.3404 -0.3299
vn -0.5503 0.1969 -0.8114
vn -0.8537 -0.2026 -0.4798
vn -0.8805 0.3404 -0.3299
vn -0.8537 -0.2026 -0.4798
vn -0.9633 -0.2365 0.1269
vn -0.8805 0.3404 -0.3299
vn -0.3548 0.7243 -0.5912
vn -0.5503 0.1969 -0.8114
vn -0.3404 0.8373 -0.4277
vn -0.3042 0.8708 -0.3861
vn -0.8293 0.5561 0.0545
vn -0.3404 0.8373 -0.4277
vn -0.8293 0.5561 0.0545
vn -0.7521 0.5339 -0.3865
vn -0.3404 0.8373 -0.4277
vn 0.0302 0.9214 -0.3875
vn 0.2034 0.9589 -0.1977
vn 0.3777 -0.3589 0.8536
vn -0.0226 -0.6821 0.7309
vn 0.6689 -0.5334 0.5177
vn 0.4581 -0.3402 0.8212
vn 0.3777 -0.3589 0.8536
vn 0.8875 -0.3095 0.3415
vn 0.4581 -0.3402 0.8212
vn 0.8875 -0.3095 0.3415
vn 0.9188 -0.3495 -0.1834
vn 0.4581 -0.3402 0.8212
vn 0.1464 -0.2320 0.9616
vn -0.1792 -0.3659 0.9133
vn 0.4581 -0.3402 0.8212
vn -0.1792 -0.3659 0.9133
vn 0.3777 -0.3589 0.8536
vn -0.1561 0.4753 -0.8658
vn -0.4997 0.6130 -0.6119
vn -0.7312 0.6159 -0.2935
vn -0.1561 0.4753 -0.8658
vn -0.7312 0.6159 -0.2935
vn -0.3850 0.6621 -0.6430
vn -0.1320 0.8375 0.5303
vn -0.6880 0.3848 0.6153
vn 0.1464 -0.2320 0.9616
vn -0.1320 0.8375 0.5303
vn 0.1464 -0.2320 0.9616
vn 0.7989 0.0424 0.6000
vn -0.1320 0.8375 0.5303
vn 0.7989 0.0424 0.6000
vn 0.3628 0.7400 -0.5664
vn -0.1353 0.0852 0.9871
vn -0.1462 0.0781 0.9862
vn -0.2343 -0.3753 0.8968
vn -0.2343 -0.3753 0.8968
vn -0.1462 0.0781 0.9862
vn -0.1866 -0.0684 0.9801
vn -0.2343 -0.3753 0.8968
vn -0.2565 -0.5368 0.8037
vn -0.5669 -0.1466 0.8106
vn -0.2565 -0.5368 0.8037
vn -0.2343 -0.3753 0.8968
vn -0.3149 -0.7290 0.6078
vn -0.2565 -0.5368 0.8037
vn -0.3149 -0.7290 0.6078
vn -0.8037 -0.5612 0.1978
vn -0.3149 -0.7290 0.6078
vn -0.3023 -0.8159 0.4928
vn -0.2969 -0.8448 0.4451
vn -0.3149 -0.7290 0.6078
vn -0.2969 -0.8448 0.4451
vn -0.8037 -0.5612 0.1978
vn -0.2969 -0.8448 0.4451
vn -0.3023 -0.8159 0.4928
vn -0.6375 -0.4674 0.6125
vn -0.6375 -0.4674 0.6125
vn -0.3707 -0.8140 0.4471
vn -0.6197 -0.7252 0.3001
vn 0.1081 0.9203 -0.3760
vn 0.1445 0.9876 -0.0611
vn -0.3167 0.9485 0.0071
vn 0.1445 0.9876 -0.0611
vn 0.1081 0.9203 -0.3760
vn 0.0839 0.9168 -0.3903
vn 0.1445 0.9876 -0.0611
vn 0.1475 0.9845 0.0950
vn 0.1524 0.9769 0.1499
vn 0.1445 0.9876 -0.0611
vn 0.1524 0.9769 0.1499
vn 0.0874 0.9779 0.1897
vn 0.1524 0.9769 0.1499
vn 0.1475 0.9845 0.0950
vn 0.0962 0.7225 0.6846
vn 0.1524 0.9769 0.1499
vn 0.0962 0.7225 0.6846
vn 0.0403 0.6741 0.7375
vn 0.1524 0.9769 0.1499
vn 0.0403 0.6741 0.7375
vn -0.2786 0.8576 0.4324
vn 0.0403 0.6741 0.7375
vn 0.0962 0.7225 0.6846
vn -0.3958 0.4196 0.8169
vn 0.0403 0.6741 0.7375
vn -0.3958 0.4196 0.8169
vn -0.2296 0.1017 0.9680
vn 0.0403 0.6741 0.7375
vn -0.2296 0.1017 0.9680
vn -0.1888 0.0916 0.9777
vn 0.0403 0.6741 0.7375
vn -0.1888 0.0916 0.9777
vn -0.1462 0.0781 0.9862
vn 0.0403 0.6741 0.7375
vn -0.1462 0.0781 0.9862
vn 0.0107 0.5215 0.8532
vn -0.1888 0.0916 0.9777
vn -0.1866 -0.0684 0.9801
vn -0.1462 0.0781 0.9862
vn -0.1888 0.0916 0.9777
vn -0.2296 0.1017 0.9680
vn -0.2668 -0.2379 0.9339
vn -0.1888 0.0916 0.9777
vn -0.2668 -0.2379 0.9339
vn -0.3228 -0.2868 0.9019
vn -0.1888 0.0916 0.9777
vn -0.3228 -0.2868 0.9019
vn -0.2343 -0.3753 0.8968
vn -0.1888 0.0916 0.9777
vn -0.2343 -0.3753 0.8968
vn -0.1866 -0.0684 0.9801
vn -0.3228 -0.2868 0.9019
vn -0.2668 -0.2379 0.9339
vn -0.1824 -0.5101 0.8406
vn -0.3228 -0.2868 0.9019
vn -0.1824 -0.5101 0.8406
vn -0.3149 -0.7290 0.6078
vn -0.3228 -0.2868 0.9019
vn -0.3149 -0.7290 0.6078
vn -0.2343 -0.3753 0.8968
vn -0.3149 -0.7290 0.6078
vn -0.1824 -0.5101 0.8406
vn -0.2624 -0.8226 0.5044
vn -0.3149 -0.7290 0.6078
vn -0.2624 -0.8226 0.5044
vn -0.3023 -0.8159 0.4928
vn -0.2624 -0.8226 0.5044
vn -0.1824 -0.5101 0.8406
vn -0.4503 -0.7739 0.4453
vn -0.2624 -0.8226 0.5044
vn -0.2768 -0.6920 0.6667
vn -0.3023 -0.8159 0.4928
vn -0.2768 -0.6920 0.6667
vn -0.6375 -0.4674 0.6125
vn -0.3023 -0.8159 0.4928
vn -0.2768 -0.6920 0.6667
vn -0.2624 -0.8226 0.5044
vn -0.3582 -0.8801 0.3118
vn -0.2768 -0.6920 0.6667
vn -0.3582 -0.8801 0.3118
vn -0.3707 -0.8140 0.4471
vn -0.2768 -0.6920 0.6667
vn -0.3707 -0.8140 0.4471
vn -0.6375 -0.4674 0.6125
vn -0.3707 -0.8140 0.4471
vn -0.3582 -0.8801 0.3118
vn -0.4439 -0.8559 0.2654
vn -0.3707 -0.8140 0.4471
vn -0.4439 -0.8559 0.2654
vn -0.3810 -0.9243 0.0235
vn -0.3810 -0.9243 0.0235
vn -0.5145 -0.8569 -0.0331
vn -0.6197 -0.7252 0.3001
vn -0.3810 -0.9243 0.0235
vn -0.6197 -0.7252 0.3001
vn -0.3707 -0.8140 0.4471
vn -0.3810 -0.9243 0.0235
vn -0.3466 -0.9064 -0.2416
vn -0.3029 -0.9009 -0.3110
vn -0.3810 -0.9243 0.0235
vn -0.3029 -0.9009 -0.3110
vn -0.5145 -0.8569 -0.0331
vn -0.3029 -0.9009 -0.3110
vn -0.3466 -0.9064 -0.2416
vn -0.3357 -0.7852 -0.5203
vn -0.3357 -0.7852 -0.5203
vn -0.3174 -0.5653 -0.7614
vn -0.3348 -0.6821 -0.6502
vn -0.3357 -0.7852 -0.5203
vn -0.3348 -0.6821 -0.6502
vn -0.3029 -0.9009 -0.3110
vn -0.3174 -0.5653 -0.7614
vn -0.1934 -0.5155 -0.8348
vn -0.6344 -0.3643 -0.6818
vn -0.1934 -0.5155 -0.8348
vn -0.3174 -0.5653 -0.7614
vn -0.1651 -0.0821 -0.9829
vn -0.1934 -0.5155 -0.8348
vn -0.1651 -0.0821 -0.9829
vn -0.6344 -0.3643 -0.6818
vn -0.1651 -0.0821 -0.9829
vn -0.0274 0.3565 -0.9339
vn -0.2324 0.2337 -0.9441
vn -0.0274 0.3565 -0.9339
vn -0.0024 0.6337 -0.7736
vn 0.0062 0.6447 -0.7644
vn -0.0024 0.6337 -0.7736
vn -0.0225 0.7371 -0.6754
vn 0.0715 0.7982 -0.5982
vn -0.0024 0.6337 -0.7736
vn 0.0715 0.7982 -0.5982
vn 0.0062 0.6447 -0.7644
vn -0.0225 0.7371 -0.6754
vn -0.0832 0.7219 -0.6870
vn -0.0034 0.8492 -0.5280
vn -0.0225 0.7371 -0.6754
vn -0.0034 0.8492 -0.5280
vn 0.0096 0.9297 -0.3683
vn -0.0225 0.7371 -0.6754
vn 0.0096 0.9297 -0.3683
vn 0.0839 0.9168 -0.3903
vn -0.0225 0.7371 -0.6754
vn 0.0839 0.9168 -0.3903
vn 0.1081 0.9203 -0.3760
vn -0.0225 0.7371 -0.6754
vn 0.1081 0.9203 -0.3760
vn 0.0715 0.7982 -0.5982
vn 0.0096 0.9297 -0.3683
vn -0.0034 0.8492 -0.5280
vn 0.1618 0.9751 -0.1516
vn 0.0096 0.9297 -0.3683
vn 0.1618 0.9751 -0.1516
vn 0.1445 0.9876 -0.0611
vn 0.0096 0.9297 -0.3683
vn 0.1445 0.9876 -0.0611
vn 0.0839 0.9168 -0.3903
vn 0.1618 0.9751 -0.1516
vn 0.2310 0.9135 0.3350
vn 0.1475 0.9845 0.0950
vn 0.1618 0.9751 -0.1516
vn 0.1475 0.9845 0.0950
vn 0.1445 0.9876 -0.0611
vn 0.1618 0.9751 -0.1516
vn -0.0034 0.8492 -0.5280
vn 0.0318 0.9305 -0.3650
vn 0.1618 0.9751 -0.1516
vn 0.0318 0.9305 -0.3650
vn 0.2034 0.9589 -0.1977
vn 0.1618 0.9751 -0.1516
vn 0.2034 0.9589 -0.1977
vn 0.2310 0.9135 0.3350
vn 0.2034 0.9589 -0.1977
vn 0.4494 0.8845 -0.1251
vn 0.4665 0.8750 0.1298
vn 0.2034 0.9589 -0.1977
vn 0.4665 0.8750 0.1298
vn 0.2310 0.9135 0.3350
vn 0.4665 0.8750 0.1298
vn 0.8046 0.2329 0.5462
vn 0.5318 0.3384 0.7763
vn 0.4665 0.8750 0.1298
vn 0.5318 0.3384 0.7763
vn 0.3436 0.2293 0.9107
vn 0.4665 0.8750 0.1298
vn 0.3436 0.2293 0.9107
vn 0.2310 0.9135 0.3350
vn 0.5318 0.3384 0.7763
vn 0.8046 0.2329 0.5462
vn 0.4025 -0.2696 0.8748
vn 0.5318 0.3384 0.7763
vn 0.4025 -0.2696 0.8748
vn 0.3436 0.2293 0.9107
vn 0.4025 -0.2696 0.8748
vn -0.0129 0.0503 0.9987
vn 0.0962 0.7225 0.6846
vn 0.4025 -0.2696 0.8748
vn 0.0962 0.7225 0.6846
vn 0.3436 0.2293 0.9107
vn 0.4025 -0.2696 0.8748
vn 0.0645 -0.2166 0.9741
vn -0.0129 0.0503 0.9987
vn 0.0645 -0.2166 0.9741
vn -0.2668 -0.2379 0.9339
vn -0.2296 0.1017 0.9680
vn 0.0645 -0.2166 0.9741
vn -0.2296 0.1017 0.9680
vn -0.0129 0.0503 0.9987
vn 0.0645 -0.2166 0.9741
vn -0.0219 -0.2405 0.9704
vn -0.2668 -0.2379 0.9339
vn -0.0219 -0.2405 0.9704
vn 0.0645 -0.2166 0.9741
vn -0.0204 -0.5542 0.8321
vn -0.0219 -0.2405 0.9704
vn -0.0204 -0.5542 0.8321
vn -0.1824 -0.5101 0.8406
vn -0.0219 -0.2405 0.9704
vn -0.1824 -0.5101 0.8406
vn -0.2668 -0.2379 0.9339
vn 0.0645 -0.2166 0.9741
vn 0.4025 -0.2696 0.8748
vn 0.1663 -0.6296 0.7589
vn 0.0645 -0.2166 0.9741
vn 0.1663 -0.6296 0.7589
vn -0.0204 -0.5542 0.8321
vn 0.1663 -0.6296 0.7589
vn 0.1768 -0.7955 0.5795
vn -0.3187 -0.8633 0.3913
vn 0.1663 -0.6296 0.7589
vn -0.3187 -0.8633 0.3913
vn -0.2153 -0.8020 0.5572
vn 0.1663 -0.6296 0.7589
vn -0.2153 -0.8020 0.5572
vn -0.0204 -0.5542 0.8321
vn 0.1768 -0.7955 0.5795
vn 0.1473 -0.7447 0.6510
vn -0.5208 -0.7149 0.4667
vn 0.1768 -0.7955 0.5795
vn -0.5208 -0.7149 0.4667
vn -0.3187 -0.8633 0.3913
vn 0.1473 -0.7447 0.6510
vn -0.0102 -0.7392 0.6734
vn -0.3622 -0.7099 0.6041
vn 0.1473 -0.7447 0.6510
vn -0.3622 -0.7099 0.6041
vn -0.5208 -0.7149 0.4667
vn -0.3622 -0.7099 0.6041
vn -0.0226 -0.6821 0.7309
vn -0.8930 -0.0291 0.4490
vn -0.3622 -0.7099 0.6041
vn -0.8930 -0.0291 0.4490
vn -0.9832 -0.1100 0.1457
vn -0.3622 -0.7099 0.6041
vn -0.9832 -0.1100 0.1457
vn -0.9579 -0.2367 -0.1625
vn -0.3622 -0.7099 0.6041
vn -0.9579 -0.2367 -0.1625
vn -0.5208 -0.7149 0.4667
vn -0.9832 -0.1100 0.1457
vn -0.7521 0.5339 -0.3865
vn -0.9579 -0.2367 -0.1625
vn -0.9832 -0.1100 0.1457
vn -0.5656 0.7043 -0.4290
vn -0.3404 0.8373 -0.4277
vn -0.9832 -0.1100 0.1457
vn -0.3404 0.8373 -0.4277
vn -0.7521 0.5339 -0.3865
vn -0.5656 0.7043 -0.4290
vn -0.9832 -0.1100 0.1457
vn -0.2960 0.8092 -0.5076
vn -0.5656 0.7043 -0.4290
vn -0.2960 0.8092 -0.5076
vn 0.0302 0.9214 -0.3875
vn -0.5656 0.7043 -0.4290
vn 0.0302 0.9214 -0.3875
vn -0.3404 0.8373 -0.4277
vn -0.2960 0.8092 -0.5076
vn 0.5014 0.5891 -0.6337
vn 0.4812 0.8299 -0.2824
vn -0.2960 0.8092 -0.5076
vn 0.4812 0.8299 -0.2824
vn 0.0302 0.9214 -0.3875
vn 0.4812 0.8299 -0.2824
vn 0.4494 0.8845 -0.1251
vn 0.2034 0.9589 -0.1977
vn 0.4812 0.8299 -0.2824
vn 0.2034 0.9589 -0.1977
vn 0.0302 0.9214 -0.3875
vn 0.4812 0.8299 -0.2824
vn 0.6139 0.7712 -0.1685
vn 0.4665 0.8750 0.1298
vn 0.4812 0.8299 -0.2824
vn 0.4665 0.8750 0.1298
vn 0.4494 0.8845 -0.1251
vn 0.6139 0.7712 -0.1685
vn 0.9479 0.1994 0.2485
vn 0.8046 0.2329 0.5462
vn 0.6139 0.7712 -0.1685
vn 0.8046 0.2329 0.5462
vn 0.4665 0.8750 0.1298
vn 0.9479 0.1994 0.2485
vn 0.6452 -0.4829 0.5921
vn 0.6286 -0.4160 0.6571
vn 0.9479 0.1994 0.2485
vn 0.6286 -0.4160 0.6571
vn 0.8046 0.2329 0.5462
vn 0.6286 -0.4160 0.6571
vn 0.4025 -0.2696 0.8748
vn 0.8046 0.2329 0.5462
vn 0.6286 -0.4160 0.6571
vn 0.6452 -0.4829 0.5921
vn 0.1473 -0.7447 0.6510
vn 0.6286 -0.4160 0.6571
vn 0.1473 -0.7447 0.6510
vn 0.1768 -0.7955 0.5795
vn 0.6286 -0.4160 0.6571
vn 0.1768 -0.7955 0.5795
vn 0.1663 -0.6296 0.7589
vn 0.6286 -0.4160 0.6571
vn 0.1663 -0.6296 0.7589
vn 0.4025 -0.2696 0.8748
vn 0.6452 -0.4829 0.5921
vn -0.0102 -0.7392 0.6734
vn 0.1473 -0.7447 0.6510
vn 0.6452 -0.4829 0.5921
vn 0.9479 0.1994 0.2485
vn 0.9083 -0.2772 0.3134
vn 0.6452 -0.4829 0.5921
vn 0.9083 -0.2772 0.3134
vn 0.6689 -0.5334 0.5177
vn 0.6452 -0.4829 0.5921
vn 0.6689 -0.5334 0.5177
vn -0.0226 -0.6821 0.7309
vn 0.6452 -0.4829 0.5921
vn -0.0226 -0.6821 0.7309
vn -0.0102 -0.7392 0.6734
vn 0.9083 -0.2772 0.3134
vn 0.9805 0.1176 -0.1573
vn 0.8875 -0.3095 0.3415
vn 0.9083 -0.2772 0.3134
vn 0.8875 -0.3095 0.3415
vn 0.3777 -0.3589 0.8536
vn 0.9083 -0.2772 0.3134
vn 0.3777 -0.3589 0.8536
vn 0.6689 -0.5334 0.5177
vn 0.9805 0.1176 -0.1573
vn 0.8305 -0.0769 -0.5517
vn 0.8875 -0.3095 0.3415
vn 0.8305 -0.0769 -0.5517
vn 0.6522 0.0356 -0.7572
vn 0.9188 -0.3495 -0.1834
vn 0.8305 -0.0769 -0.5517
vn 0.9188 -0.3495 -0.1834
vn 0.8875 -0.3095 0.3415
vn 0.9188 -0.3495 -0.1834
vn 0.5771 0.0246 -0.8163
vn 0.9540 -0.2999 0.0030
vn 0.9188 -0.3495 -0.1834
vn 0.9540 -0.2999 0.0030
vn 0.7989 0.0424 0.6000
vn 0.9188 -0.3495 -0.1834
vn 0.7989 0.0424 0.6000
vn 0.4581 -0.3402 0.8212
vn 0.7989 0.0424 0.6000
vn 0.1464 -0.2320 0.9616
vn 0.4581 -0.3402 0.8212
vn 0.9188 -0.3495 -0.1834
vn 0.6522 0.0356 -0.7572
vn 0.3628 0.7400 -0.5664
vn 0.9188 -0.3495 -0.1834
vn 0.3628 0.7400 -0.5664
vn 0.5771 0.0246 -0.8163
vn 0.3628 0.7400 -0.5664
vn 0.6522 0.0356 -0.7572
vn -0.1561 0.4753 -0.8658
vn 0.3628 0.7400 -0.5664
vn -0.1561 0.4753 -0.8658
vn -0.3850 0.6621 -0.6430
vn 0.3628 0.7400 -0.5664
vn -0.3850 0.6621 -0.6430
vn -0.1320 0.8375 0.5303
vn 0.3628 0.7400 -0.5664
vn 0.1399 0.9335 0.3301
vn 0.5771 0.0246 -0.8163
vn 0.6522 0.0356 -0.7572
vn 0.8305 -0.0769 -0.5517
vn -0.1561 0.4753 -0.8658
vn 0.8305 -0.0769 -0.5517
vn 0.2366 0.4441 -0.8641
vn -0.1561 0.4753 -0.8658
vn 0.2366 0.4441 -0.8641
vn -0.4997 0.6130 -0.6119
vn -0.1561 0.4753 -0.8658
vn 0.2366 0.4441 -0.8641
vn 0.8305 -0.0769 -0.5517
vn 0.9805 0.1176 -0.1573
vn -0.4997 0.6130 -0.6119
vn -0.7312 0.3290 0.5976
vn -0.7312 0.6159 -0.2935
vn -0.7312 0.3290 0.5976
vn -0.3850 0.6621 -0.6430
vn -0.7312 0.6159 -0.2935
vn -0.3850 0.6621 -0.6430
vn -0.7312 0.3290 0.5976
vn -0.6880 0.3848 0.6153
vn -0.3850 0.6621 -0.6430
vn -0.6880 0.3848 0.6153
vn -0.1320 0.8375 0.5303
vn -0.6880 0.3848 0.6153
vn -0.7312 0.3290 0.5976
vn 0.1464 -0.2320 0.9616
vn -0.7312 0.3290 0.5976
vn -0.6986 -0.0095 0.7155
vn -0.1792 -0.3659 0.9133
vn -0.7312 0.3290 0.5976
vn -0.1792 -0.3659 0.9133
vn 0.1464 -0.2320 0.9616
vn -0.6986 -0.0095 0.7155
vn -0.8930 -0.0291 0.4490
vn -0.1792 -0.3659 0.9133
vn -0.6986 -0.0095 0.7155
vn -0.7312 0.3290 0.5976
vn -0.8930 -0.0291 0.4490
vn -0.7312 0.3290 0.5976
vn -0.9832 -0.1100 0.1457
vn -0.8930 -0.0291 0.4490
vn -0.7312 0.3290 0.5976
vn -0.4997 0.6130 -0.6119
vn -0.2960 0.8092 -0.5076
vn -0.7312 0.3290 0.5976
vn -0.2960 0.8092 -0.5076
vn -0.9832 -0.1100 0.1457
vn -0.4997 0.6130 -0.6119
vn 0.2366 0.4441 -0.8641
vn 0.5014 0.5891 -0.6337
vn -0.4997 0.6130 -0.6119
vn 0.5014 0.5891 -0.6337
vn -0.2960 0.8092 -0.5076
vn 0.2366 0.4441 -0.8641
vn 0.9805 0.1176 -0.1573
vn 0.5014 0.5891 -0.6337
vn 0.9805 0.1176 -0.1573
vn 0.6139 0.7712 -0.1685
vn 0.4812 0.8299 -0.2824
vn 0.9805 0.1176 -0.1573
vn 0.4812 0.8299 -0.2824
vn 0.5014 0.5891 -0.6337
vn 0.9805 0.1176 -0.1573
vn 0.9083 -0.2772 0.3134
vn 0.9479 0.1994 0.2485
vn 0.9805 0.1176 -0.1573
vn 0.9479 0.1994 0.2485
vn 0.6139 0.7712 -0.1685
vn -0.8930 -0.0291 0.4490
vn -0.0226 -0.6821 0.7309
vn 0.3777 -0.3589 0.8536
vn -0.8930 -0.0291 0.4490
vn 0.3777 -0.3589 0.8536
vn -0.1792 -0.3659 0.9133
vn -0.3622 -0.7099 0.6041
vn -0.0102 -0.7392 0.6734
vn -0.0226 -0.6821 0.7309
vn -0.0129 0.0503 0.9987
vn -0.2296 0.1017 0.9680
vn 0.0962 0.7225 0.6846
vn 0.0318 0.9305 -0.3650
vn -0.3404 0.8373 -0.4277
vn 0.2034 0.9589 -0.1977
vn 0.0318 0.9305 -0.3650
vn -0.0034 0.8492 -0.5280
vn -0.1599 0.8166 -0.5547
vn 0.0318 0.9305 -0.3650
vn -0.1599 0.8166 -0.5547
vn -0.3404 0.8373 -0.4277
vn -0.1599 0.8166 -0.5547
vn -0.0034 0.8492 -0.5280
vn -0.1166 0.7560 -0.6442
vn -0.1599 0.8166 -0.5547
vn -0.3548 0.7243 -0.5912
vn -0.3404 0.8373 -0.4277
vn -0.3548 0.7243 -0.5912
vn -0.1599 0.8166 -0.5547
vn -0.5293 0.4527 -0.7176
vn -0.3548 0.7243 -0.5912
vn -0.3042 0.8708 -0.3861
vn -0.3404 0.8373 -0.4277
vn -0.3042 0.8708 -0.3861
vn -0.3548 0.7243 -0.5912
vn -0.8805 0.3404 -0.3299
vn -0.3042 0.8708 -0.3861
vn -0.8805 0.3404 -0.3299
vn -0.8293 0.5561 0.0545
vn -0.3548 0.7243 -0.5912
vn -0.5293 0.4527 -0.7176
vn -0.6595 0.4905 -0.5696
vn -0.3548 0.7243 -0.5912
vn -0.6595 0.4905 -0.5696
vn -0.5503 0.1969 -0.8114
vn -0.6595 0.4905 -0.5696
vn -0.5293 0.4527 -0.7176
vn -0.7179 -0.1845 -0.6713
vn -0.6595 0.4905 -0.5696
vn -0.7179 -0.1845 -0.6713
vn -0.8794 0.0932 -0.4669
vn -0.6595 0.4905 -0.5696
vn -0.8794 0.0932 -0.4669
vn -0.8537 -0.2026 -0.4798
vn -0.6595 0.4905 -0.5696
vn -0.8537 -0.2026 -0.4798
vn -0.5503 0.1969 -0.8114
vn -0.8794 0.0932 -0.4669
vn -0.7179 -0.1845 -0.6713
vn -0.8528 -0.4521 -0.2612
vn -0.8794 0.0932 -0.4669
vn -0.8528 -0.4521 -0.2612
vn -0.8537 -0.2026 -0.4798
vn -0.8528 -0.4521 -0.2612
vn -0.7179 -0.1845 -0.6713
vn -0.7010 -0.6460 -0.3022
vn -0.8528 -0.4521 -0.2612
vn -0.7010 -0.6460 -0.3022
vn -0.7780 -0.6175 -0.1160
vn -0.8528 -0.4521 -0.2612
vn -0.7780 -0.6175 -0.1160
vn -0.8537 -0.2026 -0.4798
vn -0.7010 -0.6460 -0.3022
vn -0.5840 -0.8100 0.0530
vn -0.7780 -0.6175 -0.1160
vn -0.7780 -0.6175 -0.1160
vn -0.5840 -0.8100 0.0530
vn -0.7803 -0.5946 0.1939
vn -0.7780 -0.6175 -0.1160
vn -0.7803 -0.5946 0.1939
vn -0.9633 -0.2365 0.1269
vn -0.5840 -0.8100 0.0530
vn -0.5205 -0.8538 -0.0094
vn -0.4814 -0.8193 0.3114
vn -0.5840 -0.8100 0.0530
vn -0.4814 -0.8193 0.3114
vn -0.4521 -0.8364 0.3097
vn -0.5840 -0.8100 0.0530
vn -0.4521 -0.8364 0.3097
vn -0.7803 -0.5946 0.1939
vn -0.4521 -0.8364 0.3097
vn -0.4814 -0.8193 0.3114
vn -0.3298 -0.6001 0.7288
vn -0.4521 -0.8364 0.3097
vn -0.3298 -0.6001 0.7288
vn -0.2153 -0.8020 0.5572
vn -0.4521 -0.8364 0.3097
vn -0.2153 -0.8020 0.5572
vn -0.7803 -0.5946 0.1939
vn -0.5205 -0.8538 -0.0094
vn -0.5840 -0.8100 0.0530
vn -0.4779 -0.8624 -0.1667
vn -0.4779 -0.8624 -0.1667
vn -0.4555 -0.8870 -0.0757
vn -0.5205 -0.8538 -0.0094
vn -0.4779 -0.8624 -0.1667
vn -0.5840 -0.8100 0.0530
vn -0.7010 -0.6460 -0.3022
vn -0.4779 -0.8624 -0.1667
vn -0.7010 -0.6460 -0.3022
vn -0.5254 -0.6455 -0.5544
vn -0.4779 -0.8624 -0.1667
vn -0.5254 -0.6455 -0.5544
vn -0.4855 -0.6880 -0.5393
vn -0.4779 -0.8624 -0.1667
vn -0.4855 -0.6880 -0.5393
vn -0.4555 -0.8870 -0.0757
vn -0.4855 -0.6880 -0.5393
vn -0.4849 -0.8576 -0.1714
vn -0.4555 -0.8870 -0.0757
vn -0.4855 -0.6880 -0.5393
vn -0.3967 -0.5931 -0.7006
vn -0.4849 -0.8576 -0.1714
vn -0.3967 -0.5931 -0.7006
vn -0.3174 -0.5653 -0.7614
vn -0.3357 -0.7852 -0.5203
vn -0.3967 -0.5931 -0.7006
vn -0.3357 -0.7852 -0.5203
vn -0.4849 -0.8576 -0.1714
vn -0.3967 -0.5931 -0.7006
vn -0.4855 -0.6880 -0.5393
vn -0.4381 -0.4194 -0.7951
vn -0.3967 -0.5931 -0.7006
vn -0.4381 -0.4194 -0.7951
vn -0.3174 -0.5653 -0.7614
vn -0.4381 -0.4194 -0.7951
vn -0.3689 0.1724 -0.9133
vn -0.2644 -0.0663 -0.9621
vn -0.4381 -0.4194 -0.7951
vn -0.2644 -0.0663 -0.9621
vn -0.1651 -0.0821 -0.9829
vn -0.4381 -0.4194 -0.7951
vn -0.1651 -0.0821 -0.9829
vn -0.3174 -0.5653 -0.7614
vn -0.2644 -0.0663 -0.9621
vn -0.3689 0.1724 -0.9133
vn -0.0024 0.6337 -0.7736
vn -0.2644 -0.0663 -0.9621
vn -0.0024 0.6337 -0.7736
vn -0.0274 0.3565 -0.9339
vn -0.2644 -0.0663 -0.9621
vn -0.0274 0.3565 -0.9339
vn -0.1651 -0.0821 -0.9829
vn -0.3689 0.1724 -0.9133
vn -0.3459 0.3701 -0.8622
vn -0.1166 0.7560 -0.6442
vn -0.3689 0.1724 -0.9133
vn -0.1166 0.7560 -0.6442
vn -0.0832 0.7219 -0.6870
vn -0.3689 0.1724 -0.9133
vn -0.0832 0.7219 -0.6870
vn -0.0225 0.7371 -0.6754
vn -0.3689 0.1724 -0.9133
vn -0.0225 0.7371 -0.6754
vn -0.0024 0.6337 -0.7736
vn -0.3459 0.3701 -0.8622
vn -0.5293 0.4527 -0.7176
vn -0.1599 0.8166 -0.5547
vn -0.3459 0.3701 -0.8622
vn -0.1599 0.8166 -0.5547
vn -0.1166 0.7560 -0.6442
vn -0.3459 0.3701 -0.8622
vn -0.3689 0.1724 -0.9133
vn -0.4381 -0.4194 -0.7951
vn -0.3459 0.3701 -0.8622
vn -0.4381 -0.4194 -0.7951
vn -0.4936 -0.2613 -0.8295
vn -0.3459 0.3701 -0.8622
vn -0.4936 -0.2613 -0.8295
vn -0.7179 -0.1845 -0.6713
vn -0.3459 0.3701 -0.8622
vn -0.7179 -0.1845 -0.6713
vn -0.5293 0.4527 -0.7176
vn -0.4936 -0.2613 -0.8295
vn -0.4381 -0.4194 -0.7951
vn -0.4855 -0.6880 -0.5393
vn -0.4936 -0.2613 -0.8295
vn -0.4855 -0.6880 -0.5393
vn -0.5254 -0.6455 -0.5544
vn -0.4936 -0.2613 -0.8295
vn -0.5254 -0.6455 -0.5544
vn -0.7179 -0.1845 -0.6713
vn -0.5254 -0.6455 -0.5544
vn -0.7010 -0.6460 -0.3022
vn -0.7179 -0.1845 -0.6713
vn -0.4849 -0.8576 -0.1714
vn -0.3466 -0.9064 -0.2416
vn -0.3810 -0.9243 0.0235
vn -0.4849 -0.8576 -0.1714
vn -0.3810 -0.9243 0.0235
vn -0.4439 -0.8559 0.2654
vn -0.4849 -0.8576 -0.1714
vn -0.4439 -0.8559 0.2654
vn -0.4555 -0.8870 -0.0757
vn -0.4849 -0.8576 -0.1714
vn -0.3357 -0.7852 -0.5203
vn -0.3466 -0.9064 -0.2416
vn -0.4555 -0.8870 -0.0757
vn -0.4439 -0.8559 0.2654
vn -0.3582 -0.8801 0.3118
vn -0.4555 -0.8870 -0.0757
vn -0.3582 -0.8801 0.3118
vn -0.3657 -0.9284 -0.0659
vn -0.4555 -0.8870 -0.0757
vn -0.3657 -0.9284 -0.0659
vn -0.5205 -0.8538 -0.0094
vn -0.1166 0.7560 -0.6442
vn -0.0034 0.8492 -0.5280
vn -0.0832 0.7219 -0.6870
vn -0.3582 -0.8801 0.3118
vn -0.2624 -0.8226 0.5044
vn -0.4503 -0.7739 0.4453
vn -0.3582 -0.8801 0.3118
vn -0.4503 -0.7739 0.4453
vn -0.3657 -0.9284 -0.0659
vn 0.7989 0.0424 0.6000
vn 0.1399 0.9335 0.3301
vn 0.3628 0.7400 -0.5664
vn -0.8805 0.3404 -0.3299
vn -0.9633 -0.2365 0.1269
vn -0.8293 0.5561 0.0545
vn 0.9540 -0.2999 0.0030
vn 0.5771 0.0246 -0.8163
vn 0.1399 0.9335 0.3301
vn 0.9540 -0.2999 0.0030
vn 0.1399 0.9335 0.3301
vn 0.7989 0.0424 0.6000
f 1/1/1 2/2/2 3/3/3
f 4/4/4 5/5/5 6/6/6
f 7/7/7 8/8/8 9/9/9
f 10/10/10 11/11/11 12/12/12
f 13/13/13 14/14/14 15/15/15
f 16/16/16 17/17/17 18/18/18
f 19/19/19 20/20/20 21/21/21
f 22/22/22 23/23/23 24/24/24
f 25/25/25 26/26/26 27/27/27
f 28/28/28 29/29/29 30/30/30
f 31/31/31 32/32/32 33/33/33
f 34/34/34 35/35/35 36/36/36
f 37/37/37 38/38/38 39/39/39
f 40/40/40 41/41/41 42/42/42
f 43/43/43 44/44/44 45/45/45
f 46/46/46 47/47/47 48/48/48
f 49/49/49 50/50/50 51/51/51
f 52/52/52 53/53/53 54/54/54
f 55/55/55 56/56/56 57/57/57
f 58/58/58 59/59/59 60/60/60
f 61/61/61 62/62/62 63/63/63
f 64/64/64 65/65/65 66/66/66
f 67/67/67 68/68/68 69/69/69
f 70/70/70 71/71/71 72/72/72
f 73/73/73 74/74/74 75/75/75
f 76/76/76 77/77/77 78/78/78
f 79/79/79 80/80/80 81/81/81
f 82/82/82 83/83/83 84/84/84
f 85/85/85 86/86/86 87/87/87
f 88/88/88 89/89/89 90/90/90
f 91/91/91 92/92/92 93/93/93
f 94/94/94 95/95/95 96/96/96
f 97/97/97 98/98/98 99/99/99
f 100/100/100 101/101/101 102/102/102
f 103/103/103 104/104/104 105/105/105
f 106/106/106 107/107/107 108/108/108
f 109/109/109 110/110/110 111/111/111
f 112/112/112 113/113/113 114/114/114
f 115/115/115 116/116/116 117/117/117
f 118/118/118 119/119/119 120/120/120
f 121/121/121 122/122/122 123/123/123
f 124/124/124 125/125/125 126/126/126
f 127/127/127 128/128/128 129/129/129
f 130/130/130 131/131/131 132/132/132
f 133/133/133 134/134/134 135/135/135
f 136/136/136 137/137/137 138/138/138
f 139/139/139 140/140/140 141/141/141
f 142/142/142 143/143/143 144/144/144
f 145/145/145 146/146/146 147/147/147
f 148/148/148 149/149/149 150/150/150
f 151/151/151 152/152/152 153/153/153
f 154/154/154 155/155/155 156/156/156
f 157/157/157 158/158/158 159/159/159
f 160/160/160 161/161/161 162/162/162
f 163/163/163 164/164/164 165/165/165
f 166/166/166 167/167/167 168/168/168
f 169/169/169 170/170/170 171/171/171
f 172/172/172 173/173/173 174/174/174
f 175/175/175 176/176/176 177/177/177
f 178/178/178 179/179/179 180/180/180
f 181/181/181 182/182/182 183/183/183
f 184/184/184 185/185/185 186/186/186
f 187/187/187 188/188/188 189/189/189
f 190/190/190 191/191/191 192/192/192
f 193/193/193 194/194/194 195/195/195
f 196/196/196 197/197/197 198/198/198
f 199/199/199 200/200/200 201/201/201
f 202/202/202 203/203/203 204/204/204
f 205/205/205 206/206/206 207/207/207
f 208/208/208 209/209/209 210/210/210
f 211/211/211 212/212/212 213/213/213
f 214/214/214 215/215/215 216/216/216
f 217/217/217 218/218/218 219/219/219
f 220/220/220 221/221/221 222/222/222
f 223/223/223 224/224/224 225/225/225
f 226/226/226 227/227/227 228/228/228
f 229/229/229 230/230/230 231/231/231
f 232/232/232 233/233/233 234/234/234
f 235/235/235 236/236/236 237/237/237
f 238/238/238 239/239/239 240/240/240
f 241/241/241 242/242/242 243/243/243
f 244/244/244 245/245/245 246/246/246
f 247/247/247 248/248/248 249/249/249
f 250/250/250 251/251/251 252/252/252
f 253/253/253 254/254/254 255/255/255
f 256/256/256 257/257/257 258/258/258
f 259/259/259 260/260/260 261/261/261
f 262/262/262 263/263/263 264/264/264
f 265/265/265 266/266/266 267/267/267
f 268/268/268 269/269/269 270/270/270
f 271/271/271 272/272/272 273/273/273
f 274/274/274 275/275/275 276/276/276
f 277/277/277 278/278/278 279/279/279
f 280/280/280 281/281/281 282/282/282
f 283/283/283 284/284/284 285/285/285
f 286/286/286 287/287/287 288/288/288
f 289/289/289 290/290/290 291/291/291
f 292/292/292 293/293/293 294/294/294
f 295/295/295 296/296/296 297/297/297
f 298/298/298 299/299/299 300/300/300
f 301/301/301 302/302/302 303/303/303
f 304/304/304 305/305/305 306/306/306
f 307/307/307 308/308/308 309/309/309
f 310/310/310 311/311/311 312/312/312
f 313/313/313 314/314/314 315/315/315
f 316/316/316 317/317/317 318/318/318
f 319/319/319 320/320/320 321/321/321
f 322/322/322 323/323/323 324/324/324
f 325/325/325 326/326/326 327/327/327
f 328/328/328 329/329/329 330/330/330
f 331/331/331 332/332/332 333/333/333
f 334/334/334 335/335/335 336/336/336
f 337/337/337 338/338/338 339/339/339
f 340/340/340 341/341/341 342/342/342
f 343/343/343 344/344/344 345/345/345
f 346/346/346 347/347/347 348/348/348
f 349/349/349 350/350/350 351/351/351
f 352/352/352 353/353/353 354/354/354
f 355/355/355 356/356/356 357/357/357
f 358/358/358 359/359/359 360/360/360
f 361/361/361 362/362/362 363/363/363
f 364/364/364 365/365/365 366/366/366
f 367/367/367 368/368/368 369/369/369
f 370/370/370 371/371/371 372/372/372
f 373/373/373 374/374/374 375/375/375
f 376/376/376 377/377/377 378/378/378
f 379/379/379 380/380/380 381/381/381
f 382/382/382 383/383/383 384/384/384
f 385/385/385 386/386/386 387/387/387
f 388/388/388 389/389/389 390/390/390
f 391/391/391 392/392/392 393/393/393
f 394/394/394 395/395/395 396/396/396
f 397/397/397 398/398/398 399/399/399
f 400/400/400 401/401/401 402/402/402
f 403/403/403 404/404/404 405/405/405
f 406/406/406 407/407/407 408/408/408
f 409/409/409 410/410/410 411/411/411
f 412/412/412 413/413/413 414/414/414
f 415/415/415 416/416/416 417/417/417
f 418/418/418 419/419/419 420/420/420
f 421/421/421 422/422/422 423/423/423
f 424/424/424 425/425/425 426/426/426
f 427/427/427 428/428/428 429/429/429
f 430/430/430 431/431/431 432/432/432
f 433/433/433 434/434/434 435/435/435
f 436/436/436 437/437/437 438/438/438
f 439/439/439 440/440/440 441/441/441
f 442/442/442 443/443/443 444/444/444
f 445/445/445 446/446/446 447/447/447
f 448/448/448 449/449/449 450/450/450
f 451/451/451 452/452/452 453/453/453
f 454/454/454 455/455/455 456/456/456
f 457/457/457 458/458/458 459/459/459
f 460/460/460 461/461/461 462/462/462
f 463/463/463 464/464/464 465/465/465
f 466/466/466 467/467/467 468/468/468
f 469/469/469 470/470/470 471/471/471
f 472/472/472 473/473/473 474/474/474
f 475/475/475 476/476/476 477/477/477
f 478/478/478 479/479/479 480/480/480
f 481/481/481 482/482/482 483/483/483
f 484/484/484 485/485/485 486/486/486
f 487/487/487 488/488/488 489/489/489
f 490/490/490 491/491/491 492/492/492
f 493/493/493 494/494/494 495/495/495
f 496/496/496 497/497/497 498/498/498
f 499/499/499 500/500/500 501/501/501
f 502/502/502 503/503/503 504/504/504
f 505/505/505 506/506/506 507/507/507
f 508/508/508 509/509/509 510/510/510
f 511/511/511 512/512/512 513/513/513
f 514/514/514 515/515/515 516/516/516
f 517/517/517 518/518/518 519/519/519
f 520/520/520 521/521/521 522/522/522
f 523/523/523 524/524/524 525/525/525
f 526/526/526 527/527/527 528/528/528
f 529/529/529 530/530/530 531/531/531
f 532/532/532 533/533/533 534/534/534
f 535/535/535 536/536/536 537/537/537
f 538/538/538 539/539/539 540/540/540
f 541/541/541 542/542/542 543/543/543
f 544/544/544 545/545/545 546/546/546
f 547/547/547 548/548/548 549/549/549
f 550/550/550 551/551/551 552/552/552
f 553/553/553 554/554/554 555/555/555
f 556/556/556 557/557/557 558/558/558
f 559/559/559 560/560/560 561/561/561
f 562/562/562 563/563/563 564/564/564
f 565/565/565 566/566/566 567/567/567
f 568/568/568 569/569/569 570/570/570
f 571/571/571 572/572/572 573/573/573
f 574/574/574 575/575/575 576/576/576
f 577/577/577 578/578/578 579/579/579
f 580/580/580 581/581/581 582/582/582
f 583/583/583 584/584/584 585/585/585
f 586/586/586 587/587/587 588/588/588
f 589/589/589 590/590/590 591/591/591
f 592/592/592 593/593/593 594/594/594
f 595/595/595 596/596/596 597/597/597
f 598/598/598 599/599/599 600/600/600
f 601/601/601 602/602/602 603/603/603
f 604/604/604 605/605/605 606/606/606
f 607/607/607 608/608/608 609/609/609
f 610/610/610 611/611/611 612/612/612
f 613/613/613 614/614/614 615/615/615
f 616/616/616 617/617/617 618/618/618
f 619/619/619 620/620/620 621/621/621
f 622/622/622 623/623/623 624/624/624
f 625/625/625 626/626/626 627/627/627
f 628/628/628 629/629/629 630/630/630
f 631/631/631 632/632/632 633/633/633
f 634/634/634 635/635/635 636/636/636
f 637/637/637 638/638/638 639/639/639
f 640/640/640 641/641/641 642/642/642
f 643/643/643 644/644/644 645/645/645
f 646/646/646 647/647/647 648/648/648
f 649/649/649 650/650/650 651/651/651
f 652/652/652 653/653/653 654/654/654
f 655/655/655 656/656/656 657/657/657
f 658/658/658 659/659/659 660/660/660
f 661/661/661 662/662/662 663/663/663
f 664/664/664 665/665/665 666/666/666
f 667/667/667 668/668/668 669/669/669
f 670/670/670 671/671/671 672/672/672
f 673/673/673 674/674/674 675/675/675
f 676/676/676 677/677/677 678/678/678
f 679/679/679 680/680/680 681/681/681
f 682/682/682 683/683/683 684/684/684
f 685/685/685 686/686/686 687/687/687
f 688/688/688 689/689/689 690/690/690
f 691/691/691 692/692/692 693/693/693
f 694/694/694 695/695/695 696/696/696
f 697/697/697 698/698/698 699/699/699
f 700/700/700 701/701/701 702/702/702
f 703/703/703 704/704/704 705/705/705
f 706/706/706 707/707/707 708/708/708
f 709/709/709 710/710/710 711/711/711
f 712/712/712 713/713/713 714/714/714
f 715/715/715 716/716/716 717/717/717
f 718/718/718 719/719/719 720/720/720
f 721/721/721 722/722/722 723/723/723
f 724/724/724 725/725/725 726/726/726
f 727/727/727 728/728/728 729/729/729
f 730/730/730 731/731/731 732/732/732
f 733/733/733 734/734/734 735/735/735
f 736/736/736 737/737/737 738/738/738
f 739/739/739 740/740/740 741/741/741
f 742/742/742 743/743/743 744/744/744
f 745/745/745 746/746/746 747/747/747
f 748/748/748 749/749/749 750/750/750
f 751/751/751 752/752/752 753/753/753
f 754/754/754 755/755/755 756/756/756
f 757/757/757 758/758/758 759/759/759
f 760/760/760 761/761/761 762/762/762
f 763/763/763 764/764/764 765/765/765
f 766/766/766 767/767/767 768/768/768
f 769/769/769 770/770/770 771/771/771
f 772/772/772 773/773/773 774/774/774
f 775/775/775 776/776/776 777/777/777
f 778/778/778 779/779/779 780/780/780
f 781/781/781 782/782/782 783/783/783
f 784/784/784 785/785/785 786/786/786
f 787/787/787 788/788/788 789/789/789
f 790/790/790 791/791/791 792/792/792
f 793/793/793 794/794/794 795/795/795
f 796/796/796 797/797/797 798/798/798
f 799/799/799 800/800/800 801/801/801
f 802/802/802 803/803/803 804/804/804
f 805/805/805 806/806/806 807/807/807
f 808/808/808 809/809/809 810/810/810
f 811/811/811 812/812/812 813/813/813
