o leg_right
v 2.58841 0.33909 -1.93569
v 2.77705 0.05460 -1.42753
v 2.61986 0.07456 -2.00127
v 2.58841 0.33909 -1.93569
v 2.61986 0.07456 -2.00127
v 2.27667 0.36329 -1.86128
v 2.30188 0.04659 -1.93981
v 2.58841 0.33909 -1.93569
v 2.45134 0.70116 -1.44496
v 2.60642 0.54918 -1.61116
v 2.15671 0.02470 -2.01032
v 2.14984 0.01123 -2.00874
v 2.16204 0.30007 -1.93418
v 2.27734 0.50027 -1.68871
v 2.20265 0.45688 -1.75543
v 2.15671 0.02470 -2.01032
v 2.16204 0.30007 -1.93418
v 2.27667 0.36329 -1.86128
v 2.15671 0.02470 -2.01032
v 2.28767 0.03003 -1.64494
v 2.14984 0.01123 -2.00874
v 1.91672 0.00418 -1.95649
v 2.28767 0.03003 -1.64494
v 2.27403 0.38145 -1.57444
v 2.27734 0.50027 -1.68871
v 2.27667 0.36329 -1.86128
v 2.30188 0.04659 -1.93981
v 2.28087 0.10590 -1.63475
v 1.97122 0.31169 -1.89106
v 2.23069 0.56376 -1.63697
v 2.20265 0.45688 -1.75543
v 2.23069 0.56376 -1.63697
v 2.26951 0.55642 -1.51387
v 2.16204 0.30007 -1.93418
v 2.24783 0.65267 -1.54108
v 2.24783 0.65267 -1.54108
v 1.71124 0.00000 -1.88246
v 1.91672 0.00418 -1.95649
v 2.14984 0.01123 -2.00874
v 1.97122 0.31169 -1.89106
v 1.73947 0.29561 -1.82838
v 2.09863 0.69784 -1.49025
v 2.28767 0.03003 -1.64494
v 1.79336 0.00489 -1.92009
v 1.79336 0.00489 -1.92009
v 1.86753 0.67205 -1.42276
v 1.79327 0.45660 -1.65581
v 1.71124 0.00000 -1.88246
v 1.73947 0.29561 -1.82838
v 1.71124 0.00000 -1.88246
v 1.79327 0.45660 -1.65581
v 1.73947 0.29561 -1.82838
v 2.27667 0.36329 -1.86128
v 2.20265 0.45688 -1.75543
v 2.35943 2.31011 -1.69862
v 2.35109 2.30159 -1.70309
v 2.29359 2.54853 -1.68986
v 2.29359 2.54853 -1.68986
v 2.44686 2.44151 -1.18404
v 2.35943 2.31011 -1.69862
v 2.40914 2.30519 -1.43762
v 2.15484 2.26853 -1.68001
v 2.46122 2.13217 -1.27991
v 2.40289 2.10347 -1.43967
v 2.46149 2.04414 -1.31794
v 2.46149 2.04414 -1.31794
v 2.46122 2.13217 -1.27991
v 2.43740 2.04521 -1.30283
v 2.05806 2.60278 -1.62932
v 2.24525 2.74964 -1.56700
v 2.43740 2.04521 -1.30283
v 2.43504 2.01732 -1.28770
v 2.46149 2.04414 -1.31794
v 2.43740 2.04521 -1.30283
v 2.46122 2.13217 -1.27991
v 2.43504 2.01732 -1.28770
v 2.35317 2.63746 -1.16855
v 2.40289 2.10347 -1.43967
v 2.16599 2.23357 -1.41222
v 2.40914 2.30519 -1.43762
v 2.24525 2.74964 -1.56700
v 2.02789 2.25145 -1.67134
v 1.52721 2.41400 -1.63540
v 2.46122 2.13217 -1.27991
v 2.36439 2.40133 -1.16647
v 2.48814 1.99532 -1.01604
v 2.16599 2.23357 -1.41222
v 2.35943 2.31011 -1.69862
v 2.40914 2.30519 -1.43762
v 2.44686 2.44151 -1.18404
v 2.36439 2.40133 -1.16647
v 2.46122 2.13217 -1.27991
v 2.35943 2.31011 -1.69862
v 2.15484 2.26853 -1.68001
v 2.35109 2.30159 -1.70309
v 2.46149 2.04414 -1.31794
v 2.05498 1.97441 -1.19115
v 2.40289 2.10347 -1.43967
v 2.46878 1.78788 -1.01146
v 2.43504 2.01732 -1.28770
v 2.46878 1.78788 -1.01146
v 2.47154 2.40800 -0.76424
v 2.37378 2.37324 -0.89791
v 2.00598 2.19218 -1.39134
v 2.15484 2.26853 -1.68001
v 2.49159 1.79270 -0.84351
v 1.89256 2.22922 -1.65695
v 2.02789 2.25145 -1.67134
v 2.36439 2.40133 -1.16647
v 2.44686 2.44151 -1.18404
v 2.47154 2.40800 -0.76424
v 1.76344 3.29154 -1.27430
v 1.94043 3.02870 -1.38936
v 2.15921 3.05945 -1.37223
v 1.89355 2.04146 -1.37037
v 2.37378 2.37324 -0.89791
v 1.89355 2.04146 -1.37037
v 2.11047 1.76773 -0.99044
v 1.89256 2.22922 -1.65695
v 2.11047 1.76773 -0.99044
v 2.46878 1.78788 -1.01146
v 2.30685 1.78679 -0.87421
v 2.00598 2.19218 -1.39134
v 2.45601 2.08280 -0.54191
v 2.40492 2.40306 -0.74713
v 2.40439 2.62370 -0.66553
v 2.39975 2.53425 -0.69509
v 2.40492 2.40306 -0.74713
v 2.47154 2.40800 -0.76424
v 2.40439 2.62370 -0.66553
v 2.36542 2.63977 -0.65481
v 1.59883 2.17859 -1.61030
v 1.59883 2.17859 -1.61030
v 2.05498 1.97441 -1.19115
v 1.94940 1.99060 -1.16135
v 1.84956 1.93518 -1.19754
v 1.84956 1.93518 -1.19754
v 1.94940 1.99060 -1.16135
v 1.79348 2.04383 -1.36412
v 1.96023 1.76572 -0.95879
v 2.31407 2.68057 -0.63594
v 2.38405 2.58043 -0.53830
v 2.36542 2.63977 -0.65481
v 2.24261 2.64039 -0.62667
v 2.00598 2.19218 -1.39134
v 1.79348 2.04383 -1.36412
v 1.59883 2.17859 -1.61030
v 2.24625 2.66412 -0.64916
v 2.21150 3.12288 -0.72237
v 2.24625 2.66412 -0.64916
v 2.31407 2.68057 -0.63594
v 2.37070 2.60236 -0.47430
v 2.24625 2.66412 -0.64916
v 2.31407 2.68057 -0.63594
v 2.24529 2.85673 -0.56168
v 2.37070 2.60236 -0.47430
v 1.82405 2.02345 -1.14031
v 2.24529 2.85673 -0.56168
v 2.26155 2.59443 -0.52212
v 2.25802 3.03729 -0.50589
v 2.26155 2.59443 -0.52212
v 2.24261 2.64039 -0.62667
v 2.24625 2.66412 -0.64916
v 2.26155 2.59443 -0.52212
v 2.25802 3.03729 -0.50589
v 1.66644 1.88589 -1.24237
v 1.70591 2.03279 -1.13401
v 1.82405 2.02345 -1.14031
v 1.66644 1.88589 -1.24237
v 1.84956 1.93518 -1.19754
v 1.65531 1.89108 -1.22710
v 1.66644 1.88589 -1.24237
v 1.52721 2.41400 -1.63540
v 1.59883 2.17859 -1.61030
v 2.16354 3.04309 -0.48879
v 1.85158 1.78565 -0.87575
v 1.50735 2.23421 -1.01536
v 1.70591 2.03279 -1.13401
v 1.76754 1.85649 -0.94955
v 1.65531 1.89108 -1.22710
v 2.16354 3.04309 -0.48879
v 1.50735 2.23421 -1.01536
v 1.50735 2.23421 -1.01536
v 1.66644 1.88589 -1.24237
v 1.65531 1.89108 -1.22710
v 1.44668 2.62024 -1.54304
v 1.62054 2.23114 -1.00683
v 1.45897 2.24412 -0.80100
v 1.76754 1.85649 -0.94955
v 1.62180 2.26770 -0.78861
v 1.62054 2.23114 -1.00683
v 1.70591 2.03279 -1.13401
v 1.50735 2.23421 -1.01536
v 1.62054 2.23114 -1.00683
v 1.62180 2.26770 -0.78861
v 1.45897 2.24412 -0.80100
v 1.45897 2.24412 -0.80100
v 1.62180 2.26770 -0.78861
v 1.57321 2.47745 -0.71705
v 1.45747 2.41115 -0.67106
v 1.57321 2.47745 -0.71705
v 1.63094 2.37897 -0.52991
v 1.57321 2.47745 -0.71705
v 1.45747 2.41115 -0.67106
v 1.38362 2.57591 -0.60521
v 1.31043 2.65948 -0.64346
v 1.49695 2.57802 -0.67499
v 1.49695 2.57802 -0.67499
v 1.39554 2.70907 -0.61244
v 2.48814 1.99532 -1.01604
v 2.28329 2.53211 -0.40540
v 2.37070 2.60236 -0.47430
v 2.40927 2.52432 -0.31819
v 2.26155 2.59443 -0.52212
v 2.26155 2.59443 -0.52212
v 2.28329 2.53211 -0.40540
v 2.28410 2.50910 -0.39540
v 2.35466 2.70913 -0.16848
v 2.40927 2.52432 -0.31819
v 2.37070 2.60236 -0.47430
v 2.24265 2.47020 -0.29515
v 2.24799 2.49346 -0.33589
v 2.28329 2.53211 -0.40540
v 2.24799 2.49346 -0.33589
v 2.28410 2.50910 -0.39540
v 2.14330 3.22829 -0.02065
v 2.17851 2.45326 -0.30027
v 2.28410 2.50910 -0.39540
v 2.24799 2.49346 -0.33589
v 2.35466 2.70913 -0.16848
v 2.10575 2.43947 -0.24352
v 2.24265 2.47020 -0.29515
v 2.17851 2.45326 -0.30027
v 2.40927 2.52432 -0.31819
v 2.16565 2.26783 -0.03937
v 2.28410 2.50910 -0.39540
v 2.17851 2.45326 -0.30027
v 2.25739 2.98773 0.06569
v 2.24265 2.47020 -0.29515
v 2.10575 2.43947 -0.24352
v 2.17851 2.45326 -0.30027
v 2.25616 2.97132 0.06755
v 2.35466 2.70913 -0.16848
v 2.25739 2.98773 0.06569
v 2.10575 2.43947 -0.24352
v 2.25616 2.97132 0.06755
v 2.18323 2.96344 0.09712
v 2.23471 3.00424 0.09079
v 1.98457 2.76909 0.06054
v 1.98425 2.45483 -0.24469
v 2.23471 3.00424 0.09079
v 1.76211 2.40872 -0.20302
v 2.14391 3.11369 0.16450
v 2.23471 3.00424 0.09079
v 2.27240 2.89714 0.24209
v 2.04786 2.87589 0.09952
v 2.04786 2.87589 0.09952
v 2.18323 2.96344 0.09712
v 2.23471 3.00424 0.09079
v 1.77361 2.14908 0.05661
v 1.76825 1.99235 -0.10080
v 1.57321 2.47745 -0.71705
v 1.62180 2.26770 -0.78861
v 2.18161 2.83771 0.23808
v 1.79290 2.05861 0.14644
v 2.30794 2.05239 0.25230
v 2.27240 2.89714 0.24209
v 1.98425 2.45483 -0.24469
v 1.89476 2.99499 0.41880
v 2.18161 2.83771 0.23808
v 2.20246 3.01160 0.35991
v 2.08872 2.79346 0.24191
v 1.63094 2.37897 -0.52991
v 1.57451 2.60690 0.05051
v 1.76211 2.40872 -0.20302
v 2.27240 2.89714 0.24209
v 2.04786 2.87589 0.09952
v 1.69409 2.27151 -0.29781
v 1.63094 2.37897 -0.52991
v 1.54505 2.29082 -0.45145
v 1.45747 2.41115 -0.67106
v 1.93404 2.81058 0.10417
v 1.93404 2.81058 0.10417
v 2.08872 2.79346 0.24191
v 1.73565 2.32441 -0.12175
v 1.60183 2.21415 -0.30302
v 1.69409 2.27151 -0.29781
v 1.73565 2.32441 -0.12175
v 1.71421 2.37967 -0.21115
v 1.45747 2.41115 -0.67106
v 1.54505 2.29082 -0.45145
v 1.38362 2.57591 -0.60521
v 1.71421 2.37967 -0.21115
v 1.77361 2.14908 0.05661
v 1.71421 2.37967 -0.21115
v 1.60183 2.21415 -0.30302
v 1.69409 2.27151 -0.29781
v 1.81836 1.93006 0.27253
v 1.19792 3.02425 -0.26576
v 1.71951 2.82071 0.18191
v 2.08872 2.79346 0.24191
v 1.89476 2.99499 0.41880
v 1.71951 2.82071 0.18191
v 1.93404 2.81058 0.10417
v 2.08872 2.79346 0.24191
v 1.60183 2.21415 -0.30302
v 1.55459 2.33389 -0.20134
v 1.79290 2.05861 0.14644
v 1.81836 1.93006 0.27253
v 1.55459 2.33389 -0.20134
v 1.58142 2.64662 0.05738
v 1.71951 2.82071 0.18191
v 1.57451 2.60690 0.05051
v 1.71951 2.82071 0.18191
v 1.55900 2.66248 0.17118
v 1.58142 2.64662 0.05738
v 1.37938 2.78487 0.18931
v 1.37938 2.78487 0.18931
v 1.43759 2.82744 0.20861
v 1.58142 2.64662 0.05738
v 1.55900 2.66248 0.17118
v 1.52575 2.73827 0.43822
v 1.58142 2.64662 0.05738
v 1.57451 2.60690 0.05051
v 2.60642 0.54918 -1.61116
v 2.77705 0.05460 -1.42753
v 2.58841 0.33909 -1.93569
v 2.60721 0.65630 -1.45166
v 2.60642 0.54918 -1.61116
v 2.45134 0.70116 -1.44496
v 2.60721 0.65630 -1.45166
v 2.61986 0.07456 -2.00127
v 2.77705 0.05460 -1.42753
v 2.30188 0.04659 -1.93981
v 2.66847 0.64779 -1.23462
v 2.81345 0.06463 -1.06220
v 2.75607 0.33054 -1.08936
v 2.81114 0.08745 -1.01661
v 2.81345 0.06463 -1.06220
v 2.81114 0.08745 -1.01661
v 2.84684 0.06555 -0.99502
v 2.28767 0.03003 -1.64494
v 2.75607 0.33054 -1.08936
v 2.70795 0.47684 -1.14228
v 2.73545 0.53057 -1.14062
v 2.60721 0.65630 -1.45166
v 2.49781 0.68812 -1.22413
v 2.66847 0.64779 -1.23462
v 2.84684 0.06555 -0.99502
v 2.81114 0.08745 -1.01661
v 2.66847 0.64779 -1.23462
v 2.70795 0.47684 -1.14228
v 2.75607 0.33054 -1.08936
v 2.73545 0.53057 -1.14062
v 2.94431 0.09796 -0.48273
v 2.84684 0.06555 -0.99502
v 2.66914 0.74833 -1.21083
v 2.53711 0.74625 -1.23805
v 2.67807 0.79245 -1.12079
v 2.66914 0.74833 -1.21083
v 2.57042 0.66469 -1.22143
v 2.66914 0.74833 -1.21083
v 2.67807 0.79245 -1.12079
v 2.86222 0.48470 -0.63653
v 2.28767 0.03003 -1.64494
v 2.28087 0.10590 -1.63475
v 2.30188 0.04659 -1.93981
v 2.66847 0.64779 -1.23462
v 2.49781 0.68812 -1.22413
v 2.57042 0.66469 -1.22143
v 2.57042 0.66469 -1.22143
v 2.55083 0.48239 -1.16904
v 2.66847 0.64779 -1.23462
v 2.70795 0.47684 -1.14228
v 2.45134 0.70116 -1.44496
v 2.27734 0.50027 -1.68871
v 2.26271 0.65768 -1.48413
v 2.53711 0.74625 -1.23805
v 2.55172 0.38607 -1.11456
v 1.88707 0.02162 -0.94323
v 2.81345 0.06463 -1.06220
v 2.27667 0.36329 -1.86128
v 2.27618 0.23964 -1.60915
v 2.28087 0.10590 -1.63475
v 2.28767 0.03003 -1.64494
v 2.20265 0.45688 -1.75543
v 2.27403 0.38145 -1.57444
v 2.26951 0.55642 -1.51387
v 2.27403 0.38145 -1.57444
v 2.49781 0.68812 -1.22413
v 2.55172 0.38607 -1.11456
v 2.27618 0.23964 -1.60915
v 2.48248 0.63513 -1.20360
v 2.48248 0.63513 -1.20360
v 2.27734 0.50027 -1.68871
v 2.26951 0.55642 -1.51387
v 2.68764 0.95745 -0.80359
v 2.26271 0.65768 -1.48413
v 2.24783 0.65267 -1.54108
v 2.26271 0.65768 -1.48413
v 2.34504 0.66206 -1.21759
v 2.44338 0.67559 -1.21173
v 2.44338 0.67559 -1.21173
v 2.44338 0.67559 -1.21173
v 2.93016 0.52581 -0.43885
v 2.40908 0.42312 -1.13078
v 2.31303 0.50897 -1.14339
v 2.24783 0.65267 -1.54108
v 2.09863 0.69784 -1.49025
v 2.26271 0.65768 -1.48413
v 2.34504 0.66206 -1.21759
v 2.68764 0.95745 -0.80359
v 2.93016 0.52581 -0.43885
v 2.68764 0.95745 -0.80359
v 2.69280 0.88819 -0.68914
v 2.84684 0.06555 -0.99502
v 2.94431 0.09796 -0.48273
v 2.13301 0.69890 -1.18171
v 2.31303 0.50897 -1.14339
v 2.40908 0.42312 -1.13078
v 2.33767 0.48025 -1.13824
v 2.73186 0.79208 -0.59535
v 2.80662 0.61257 -0.41329
v 2.27567 0.60571 -1.17157
v 1.96545 0.74817 -1.16578
v 2.70549 0.98457 -0.59657
v 2.69280 0.88819 -0.68914
v 2.64258 0.91919 -0.66877
v 2.60358 0.98193 -0.74176
v 2.60358 0.98193 -0.74176
v 2.64258 0.91919 -0.66877
v 2.83471 0.50067 -0.40708
v 2.93016 0.52581 -0.43885
v 2.80662 0.61257 -0.41329
v 2.71873 0.28027 -0.41295
v 2.58797 0.26483 -0.39732
v 2.77859 0.09859 -0.45372
v 2.27567 0.60571 -1.17157
v 2.62896 0.99835 -0.57682
v 2.13301 0.69890 -1.18171
v 2.70549 0.98457 -0.59657
v 2.73186 0.79208 -0.59535
v 2.69280 0.88819 -0.68914
v 2.93016 0.52581 -0.43885
v 2.83471 0.50067 -0.40708
v 2.71084 0.46284 -0.38608
v 2.74964 0.92100 -0.33606
v 1.96545 0.74817 -1.16578
v 1.96148 0.68362 -1.16688
v 2.94431 0.09796 -0.48273
v 2.04623 0.08664 -0.35375
v 1.96545 0.74817 -1.16578
v 1.86753 0.67205 -1.42276
v 2.30652 0.93666 -0.56915
v 2.62896 0.99835 -0.57682
v 2.67221 0.95923 -0.43774
v 2.70549 0.98457 -0.59657
v 2.79603 0.72358 -0.24331
v 2.80662 0.61257 -0.41329
v 1.73538 0.00440 -1.68159
v 1.71124 0.00000 -1.88246
v 2.93016 0.52581 -0.43885
v 2.79995 0.51092 -0.26554
v 2.74964 0.92100 -0.33606
v 2.84715 0.56784 -0.14694
v 2.48814 1.99532 -1.01604
v 2.45601 2.08280 -0.54191
v 2.45601 2.08280 -0.54191
v 2.49159 1.79270 -0.84351
v 2.49159 1.79270 -0.84351
v 2.71084 0.46284 -0.38608
v 2.83471 0.50067 -0.40708
v 2.46878 1.78788 -1.01146
v 2.49159 1.79270 -0.84351
v 2.30685 1.78679 -0.87421
v 2.79995 0.51092 -0.26554
v 2.81833 0.24424 -0.28287
v 2.77382 0.24342 -0.29346
v 2.40570 1.71166 -0.68942
v 2.71084 0.46284 -0.38608
v 2.77382 0.24342 -0.29346
v 2.71873 0.28027 -0.41295
v 2.58797 0.26483 -0.39732
v 2.94431 0.09796 -0.48273
v 2.77859 0.09859 -0.45372
v 2.84130 0.56576 -0.07915
v 2.81833 0.24424 -0.28287
v 2.79995 0.51092 -0.26554
v 2.58582 1.22484 -0.51903
v 2.67221 0.95923 -0.43774
v 2.62896 0.99835 -0.57682
v 2.75461 0.50032 -0.26688
v 2.75461 0.50032 -0.26688
v 2.76887 0.86664 -0.24355
v 2.70959 0.91866 -0.28519
v 2.75553 0.89142 -0.21038
v 2.75461 0.50032 -0.26688
v 2.84130 0.56576 -0.07915
v 2.79603 0.72358 -0.24331
v 2.76887 0.86664 -0.24355
v 2.78849 0.86348 -0.23698
v 2.75553 0.89142 -0.21038
v 2.83471 0.50067 -0.40708
v 2.84715 0.56784 -0.14694
v 2.84130 0.56576 -0.07915
v 2.89350 0.49743 0.14084
v 1.71124 0.00000 -1.88246
v 1.73538 0.00440 -1.68159
v 1.79327 0.45660 -1.65581
v 2.77382 0.24342 -0.29346
v 2.81833 0.24424 -0.28287
v 2.90696 0.16091 0.12455
v 2.58797 0.26483 -0.39732
v 2.71873 0.28027 -0.41295
v 2.78849 0.86348 -0.23698
v 2.76887 0.86664 -0.24355
v 2.77336 0.84727 -0.13653
v 2.70959 0.91866 -0.28519
v 2.51031 1.67097 -0.44424
v 2.50203 1.67727 -0.51458
v 2.86499 0.61828 0.06013
v 2.51927 1.52265 -0.44199
v 2.58582 1.22484 -0.51903
v 2.30652 0.93666 -0.56915
v 2.37378 2.37324 -0.89791
v 2.40492 2.40306 -0.74713
v 2.56947 2.08136 -0.03894
v 2.60358 0.98193 -0.74176
v 2.25134 0.90198 -0.59884
v 2.64258 0.91919 -0.66877
v 2.77336 0.84727 -0.13653
v 2.62896 0.99835 -0.57682
v 2.77318 0.85926 -0.10140
v 2.25134 0.90198 -0.59884
v 2.74010 0.87496 -0.14632
v 2.77318 0.85926 -0.10140
v 2.51447 1.92371 -0.35445
v 2.50203 1.67727 -0.51458
v 2.74010 0.87496 -0.14632
v 1.77241 0.00964 -1.31386
v 1.85158 1.78565 -0.87575
v 2.11047 1.76773 -0.99044
v 2.48508 1.99298 -0.41960
v 2.82225 0.81180 -0.05255
v 2.78849 0.86348 -0.23698
v 2.75700 0.85046 -0.05049
v 2.82225 0.81180 -0.05255
v 2.40012 1.43250 -0.48907
v 2.30685 1.78679 -0.87421
v 2.40570 1.71166 -0.68942
v 2.90696 0.16091 0.12455
v 1.86753 0.67205 -1.42276
v 1.77241 0.00964 -1.31386
v 2.50203 1.67727 -0.51458
v 2.36542 2.63977 -0.65481
v 2.38405 2.58043 -0.53830
v 2.75700 0.85046 -0.05049
v 2.78176 0.83974 -0.04497
v 2.78176 0.83974 -0.04497
v 2.49077 1.59892 -0.45616
v 2.49077 1.59892 -0.45616
v 2.51031 1.67097 -0.44424
v 2.78176 0.83974 -0.04497
v 1.96545 0.74817 -1.16578
v 2.13301 0.69890 -1.18171
v 1.96148 0.68362 -1.16688
v 2.37282 1.42785 -0.46681
v 2.72328 1.06802 0.01214
v 2.37282 1.42785 -0.46681
v 1.92945 0.53182 -1.10578
v 2.67416 1.34752 0.08778
v 2.51927 1.52265 -0.44199
v 1.96148 0.68362 -1.16688
v 2.40012 1.43250 -0.48907
v 2.50203 1.67727 -0.51458
v 2.37282 1.42785 -0.46681
v 2.30685 1.78679 -0.87421
v 2.40012 1.43250 -0.48907
v 1.82433 1.67224 -0.74373
v 2.41859 0.26039 -0.37176
v 2.44674 2.40642 -0.24569
v 1.88437 0.83402 -0.85850
v 2.58797 0.26483 -0.39732
v 2.41859 0.26039 -0.37176
v 2.94431 0.09796 -0.48273
v 2.58760 1.81863 -0.05228
v 1.85158 1.78565 -0.87575
v 1.92945 0.53182 -1.10578
v 1.80851 0.39477 -0.98971
v 1.96148 0.68362 -1.16688
v 1.96545 0.74817 -1.16578
v 2.75700 0.85046 -0.05049
v 2.55079 0.81491 0.01247
v 2.78176 0.83974 -0.04497
v 1.85074 0.75196 -1.06866
v 2.24541 1.41708 -0.45723
v 2.37282 1.42785 -0.46681
v 1.90952 1.41170 -0.44194
v 1.96023 1.76572 -0.95879
v 1.85074 0.75196 -1.06866
v 2.78176 0.83974 -0.04497
v 2.82225 0.81180 -0.05255
v 2.62562 1.97084 0.05785
v 1.92670 0.92862 -0.60871
v 1.88261 0.21579 -1.00309
v 2.37875 0.81393 0.01230
v 2.28410 2.50910 -0.39540
v 2.44674 2.40642 -0.24569
v 2.38405 2.58043 -0.53830
v 2.24541 1.41708 -0.45723
v 2.04623 0.08664 -0.35375
v 2.26155 2.59443 -0.52212
v 2.48178 2.31586 -0.08211
v 1.85705 0.02511 -0.97875
v 1.88261 0.21579 -1.00309
v 1.85705 0.02511 -0.97875
v 2.58760 1.81863 -0.05228
v 2.62562 1.97084 0.05785
v 2.55114 2.07502 0.17009
v 1.80851 0.39477 -0.98971
v 1.88437 0.83402 -0.85850
v 1.85074 0.75196 -1.06866
v 1.78449 0.04687 -0.90650
v 1.97702 0.86424 -0.53006
v 2.86499 0.61828 0.06013
v 1.85705 0.02511 -0.97875
v 1.88707 0.02162 -0.94323
v 1.88261 0.21579 -1.00309
v 1.97702 0.86424 -0.53006
v 2.89350 0.49743 0.14084
v 2.24602 0.25764 -0.34817
v 2.51178 2.23128 0.08737
v 2.72328 1.06802 0.01214
v 2.37875 0.81393 0.01230
v 2.75700 0.85046 -0.05049
v 1.88707 0.02162 -0.94323
v 1.78449 0.04687 -0.90650
v 2.60598 2.11298 0.16272
v 2.60598 2.11298 0.16272
v 2.12034 1.42572 -0.41657
v 2.12132 0.26526 -0.33048
v 1.92670 0.92862 -0.60871
v 2.19054 0.13642 0.25311
v 2.16565 2.26783 -0.03937
v 2.12034 1.42572 -0.41657
v 1.90952 1.41170 -0.44194
v 2.24541 1.41708 -0.45723
v 2.48178 2.31586 -0.08211
v 2.62380 1.86725 0.39014
v 2.14740 0.22236 -0.20188
v 2.54828 2.15703 0.21367
v 2.54828 2.15703 0.21367
v 2.67416 1.34752 0.08778
v 2.35386 2.00580 0.19695
v 2.55114 2.07502 0.17009
v 1.99279 0.90187 -0.47792
v 2.24602 0.25764 -0.34817
v 2.51178 2.23128 0.08737
v 2.49355 2.14389 0.22705
v 2.54828 2.15703 0.21367
v 1.93176 0.73022 -0.41123
v 1.92670 0.92862 -0.60871
v 1.99279 0.90187 -0.47792
v 2.32452 2.19429 0.07925
v 1.98104 1.49316 -0.33537
v 2.49355 2.14389 0.22705
v 2.30794 2.05239 0.25230
v 1.76754 1.85649 -0.94955
v 2.35386 2.00580 0.19695
v 2.62380 1.86725 0.39014
v 2.55114 2.07502 0.17009
v 1.92541 0.08210 -0.36718
v 2.12132 0.26526 -0.33048
v 1.78449 0.04687 -0.90650
v 1.97246 1.20685 -0.38389
v 2.14818 0.77947 0.05454
v 1.93176 0.73022 -0.41123
v 1.97702 0.86424 -0.53006
v 1.98007 0.79000 -0.45180
v 1.99279 0.90187 -0.47792
v 2.12808 0.43984 -0.30852
v 2.12132 0.26526 -0.33048
v 2.14772 0.44340 -0.16458
v 1.98007 0.79000 -0.45180
v 2.12808 0.43984 -0.30852
v 2.14772 0.44340 -0.16458
v 2.10484 0.45218 -0.15597
v 2.14190 1.71393 0.43272
v 2.14740 0.22236 -0.20188
v 2.89350 0.49743 0.14084
v 2.19054 0.13642 0.25311
v 2.90696 0.16091 0.12455
v 2.30794 2.05239 0.25230
v 1.96188 1.41969 -0.31894
v 2.12808 0.43984 -0.30852
v 1.92541 0.08210 -0.36718
v 2.10484 0.45218 -0.15597
v 2.14740 0.22236 -0.20188
v 2.09815 0.22158 -0.17177
v 1.95271 0.47852 -0.31254
v 1.98104 1.49316 -0.33537
v 2.00166 1.34042 -0.19134
v 1.97246 1.20685 -0.38389
v 1.95271 0.47852 -0.31254
v 1.98346 0.62042 -0.30766
v 2.14772 0.44340 -0.16458
v 1.98346 0.62042 -0.30766
v 1.92541 0.08210 -0.36718
v 2.09230 1.20241 0.16547
v 2.10484 0.45218 -0.15597
v 2.09815 0.22158 -0.17177
v 2.20343 0.47200 0.27595
v 2.12582 0.75471 0.04013
v 2.09230 1.20241 0.16547
v 2.25066 1.96568 0.20790
v 1.93814 0.60707 -0.31576
v 1.96188 1.41969 -0.31894
v 2.09815 0.22158 -0.17177
v 2.62380 1.86725 0.39014
v 1.95271 0.47852 -0.31254
v 1.98346 0.62042 -0.30766
v 1.93814 0.60707 -0.31576
v 1.82433 1.67224 -0.74373
v 1.90268 1.58120 -0.25748
v 1.76754 1.85649 -0.94955
v 1.90268 1.58120 -0.25748
v 1.93814 0.60707 -0.31576
v 1.93814 0.60707 -0.31576
v 1.92541 0.08210 -0.36718
v 1.95271 0.47852 -0.31254
v 2.04531 0.48067 -0.01333
v 2.25066 1.96568 0.20790
v 1.97924 1.89966 0.22158
v 1.95271 0.47852 -0.31254
v 2.04531 0.48067 -0.01333
v 1.90268 1.58120 -0.25748
v 1.76825 1.99235 -0.10080
v 1.62180 2.26770 -0.78861
v 2.19054 0.13642 0.25311
v 1.90952 1.41170 -0.44194
v 2.12475 0.46297 -0.01856
v 2.14818 0.77947 0.05454
v 2.04531 0.48067 -0.01333
v 2.12475 0.46297 -0.01856
v 2.14818 0.77947 0.05454
v 2.20343 0.47200 0.27595
v 2.12582 0.75471 0.04013
v 2.14818 0.77947 0.05454
v 2.12475 0.46297 -0.01856
v 2.20343 0.47200 0.27595
v 2.04531 0.48067 -0.01333
v 2.20343 0.47200 0.27595
v 2.20343 0.47200 0.27595
v 1.93316 1.57970 0.04112
v 2.14190 1.71393 0.43272
v 1.95284 1.67043 0.44159
v 1.97924 1.89966 0.22158
v 1.86831 1.74686 0.15382
v 2.00091 1.50879 0.35335
v 1.95284 1.67043 0.44159
v 1.93316 1.57970 0.04112
v 1.89259 1.75165 0.15674
v 1.86831 1.74686 0.15382
v 1.81836 1.93006 0.27253
v 2.00091 1.50879 0.35335
v 1.89259 1.75165 0.15674
v 1.87384 1.86725 0.22574
v 1.87384 1.86725 0.22574
v 1.81836 1.93006 0.27253
v 1.87384 1.86725 0.22574
v 1.95284 1.67043 0.44159
v 2.45134 0.70116 -1.44496
v 2.28087 0.10590 -1.63475
v 2.27403 0.38145 -1.57444
v 2.26951 0.55642 -1.51387
v 2.53711 0.74625 -1.23805
v 2.49781 0.68812 -1.22413
v 2.30685 1.78679 -0.87421
v 2.35326 0.47078 -1.13747
v 2.31303 0.50897 -1.14339
v 2.33767 0.48025 -1.13824
v 2.40908 0.42312 -1.13078
v 1.83105 2.80893 -0.46437
v 2.15921 3.05945 -1.37223
v 2.35317 2.63746 -1.16855
v 2.21150 3.12288 -0.72237
v 2.25802 3.03729 -0.50589
v 2.16354 3.04309 -0.48879
v 2.37070 2.60236 -0.47430
v 2.14330 3.22829 -0.02065
v 2.25739 2.98773 0.06569
v 2.14391 3.11369 0.16450
v 2.27240 2.89714 0.24209
v 2.20246 3.01160 0.35991
v 2.18161 2.83771 0.23808
v 1.89476 2.99499 0.41880
v 1.71951 2.82071 0.18191
v 1.52575 2.73827 0.43822
v 1.55900 2.66248 0.17118
v 1.43759 2.82744 0.20861
v 1.58142 2.64662 0.05738
v 1.37938 2.78487 0.18931
v 1.55459 2.33389 -0.20134
v 1.19792 3.02425 -0.26576
v 1.38362 2.57591 -0.60521
v 1.39554 2.70907 -0.61244
v 1.49695 2.57802 -0.67499
v 1.31043 2.65948 -0.64346
v 1.45897 2.24412 -0.80100
v 1.44668 2.62024 -1.54304
v 1.52721 2.41400 -1.63540
v 1.76344 3.29154 -1.27430
v 2.05806 2.60278 -1.62932
v 1.94043 3.02870 -1.38936
v 2.24525 2.74964 -1.56700
vt 0.04556 0.12873
vt 0.04556 0.15017
vt 0.03635 0.13147
vt 0.01631 0.96796
vt 0.00673 0.96880
vt 0.01804 0.95683
vt 0.00659 0.95741
vt 0.86581 0.91463
vt 0.84474 0.92056
vt 0.85226 0.91463
vt 0.61493 0.95921
vt 0.61467 0.95968
vt 0.61434 0.94922
vt 0.85610 0.92608
vt 0.29731 0.96776
vt 0.28583 0.95436
vt 0.29414 0.95992
vt 0.86381 0.92570
vt 0.01333 0.73794
vt 0.01333 0.75154
vt 0.01280 0.73791
vt 0.60631 0.96005
vt 0.28159 0.96727
vt 0.98664 0.47283
vt 0.98705 0.46706
vt 0.99476 0.46687
vt 0.17231 0.00109
vt 0.16768 0.01097
vt 0.26880 0.92815
vt 0.28265 0.93505
vt 0.27698 0.93501
vt 0.98666 0.50080
vt 0.98346 0.49760
vt 0.26853 0.93501
vt 0.28727 0.93489
vt 0.98204 0.50089
vt 0.67590 0.02291
vt 0.67507 0.01530
vt 0.67522 0.00694
vt 0.60748 0.94894
vt 0.59907 0.94954
vt 0.28876 0.92934
vt 0.68875 0.00523
vt 0.60180 0.96004
vt 0.67527 0.01981
vt 0.28850 0.92087
vt 0.27711 0.92019
vt 0.59863 0.96010
vt 0.26864 0.91972
vt 0.18342 0.94374
vt 0.20150 0.94374
vt 0.19356 0.94671
vt 0.16085 0.00109
vt 0.99233 0.50083
vt 0.79756 0.51586
vt 0.79799 0.51566
vt 0.79694 0.52508
vt 0.84070 0.06494
vt 0.82097 0.06896
vt 0.83680 0.05657
vt 0.82765 0.06042
vt 0.80535 0.51699
vt 0.81939 0.05696
vt 0.82479 0.05344
vt 0.81928 0.05338
vt 0.19273 0.99469
vt 0.19273 0.99827
vt 0.19170 0.99496
vt 0.80460 0.53035
vt 0.79619 0.53403
vt 0.76800 0.00258
vt 0.76868 0.00161
vt 0.76866 0.00341
vt 0.03486 0.13779
vt 0.03159 0.13898
vt 0.03538 0.13673
vt 0.82441 0.07632
vt 0.34461 0.91243
vt 0.33706 0.90566
vt 0.34656 0.90516
vt 0.84020 0.07391
vt 0.81004 0.51799
vt 0.82564 0.53002
vt 0.12804 0.88260
vt 0.12212 0.89244
vt 0.11913 0.87590
vt 0.11743 0.79230
vt 0.12619 0.78241
vt 0.12694 0.79230
vt 0.00862 0.86305
vt 0.01199 0.86396
vt 0.00934 0.87514
vt 0.99338 0.02373
vt 0.99338 0.03155
vt 0.99306 0.02408
vt 0.72176 0.51922
vt 0.74718 0.51995
vt 0.72425 0.52551
vt 0.03601 0.12327
vt 0.72339 0.51704
vt 0.72810 0.50445
vt 0.80654 0.07525
vt 0.11241 0.88974
vt 0.11121 0.79244
vt 0.11837 0.78225
vt 0.03209 0.11831
vt 0.10843 0.78193
vt 0.11358 0.78199
vt 0.05281 0.94876
vt 0.05330 0.94531
vt 0.06830 0.95011
vt 0.80669 0.56123
vt 0.80339 0.54908
vt 0.83937 0.08792
vt 0.75446 0.53605
vt 0.06231 0.95215
vt 0.32540 0.91028
vt 0.74467 0.50572
vt 0.81510 0.51891
vt 0.98606 0.89088
vt 0.98606 0.87746
vt 0.99083 0.88379
vt 0.33084 0.90578
vt 0.10110 0.87647
vt 0.06814 0.95268
vt 0.80735 0.08442
vt 0.07939 0.58256
vt 0.07789 0.57750
vt 0.08030 0.57662
vt 0.08072 0.58582
vt 0.07952 0.58696
vt 0.09718 0.78238
vt 0.82621 0.52080
vt 0.04678 0.53608
vt 0.05022 0.53377
vt 0.05452 0.53501
vt 0.75875 0.53034
vt 0.75403 0.51499
vt 0.32178 0.90931
vt 0.75534 0.49964
vt 0.07822 0.58915
vt 0.99689 0.18055
vt 0.99674 0.18548
vt 0.99206 0.18507
vt 0.76196 0.55446
vt 0.76133 0.54049
vt 0.76869 0.56080
vt 0.07556 0.58921
vt 0.81887 0.10088
vt 0.99227 0.18628
vt 0.00002 0.95902
vt 0.00415 0.95334
vt 0.00148 0.96124
vt 0.07393 0.94289
vt 0.08105 0.94549
vt 0.07057 0.94907
vt 0.05424 0.53097
vt 0.07797 0.59674
vt 0.00551 0.95758
vt 0.81004 0.10164
vt 0.99225 0.18075
vt 0.99823 0.17805
vt 0.99875 0.17693
vt 0.99843 0.18236
vt 0.08065 0.60328
vt 0.76411 0.54009
vt 0.05832 0.52925
vt 0.76126 0.50844
vt 0.73333 0.01379
vt 0.73396 0.00654
vt 0.73401 0.01406
vt 0.24487 0.62755
vt 0.25350 0.65114
vt 0.24642 0.64521
vt 0.07739 0.60478
vt 0.76322 0.49046
vt 0.26147 0.62839
vt 0.76748 0.50689
vt 0.76685 0.49222
vt 0.06203 0.53471
vt 0.08873 0.94799
vt 0.06277 0.51869
vt 0.52791 0.95625
vt 0.51129 0.95625
vt 0.51188 0.95581
vt 0.26229 0.65289
vt 0.05870 0.51990
vt 0.26683 0.62216
vt 0.65128 0.95164
vt 0.65176 0.93429
vt 0.65887 0.93850
vt 0.66028 0.94775
vt 0.18563 0.00615
vt 0.18558 0.00191
vt 0.19381 0.00119
vt 0.19376 0.00735
vt 0.84017 0.89306
vt 0.83408 0.89393
vt 0.83334 0.88550
vt 0.00592 0.97105
vt 0.00091 0.97268
vt 0.00061 0.96450
vt 0.02751 0.33904
vt 0.02224 0.33892
vt 0.02224 0.33174
vt 0.84052 0.87557
vt 0.83484 0.88076
vt 0.02658 0.33416
vt 0.02518 0.32770
vt 0.02982 0.12798
vt 0.01904 0.46837
vt 0.01478 0.47294
vt 0.01276 0.46471
vt 0.02019 0.47463
vt 0.04350 0.98101
vt 0.04405 0.98735
vt 0.04339 0.98833
vt 0.29498 0.42372
vt 0.29417 0.43527
vt 0.28573 0.43600
vt 0.02079 0.46232
vt 0.02060 0.46456
vt 0.99858 0.01639
vt 0.99858 0.01226
vt 0.99941 0.01554
vt 0.28585 0.39780
vt 0.99319 0.01091
vt 0.99319 0.00367
vt 0.99425 0.00688
vt 0.59603 0.63913
vt 0.61836 0.64603
vt 0.60950 0.65143
vt 0.02393 0.46206
vt 0.59812 0.65454
vt 0.85989 0.76580
vt 0.87933 0.75748
vt 0.87485 0.76316
vt 0.29635 0.40591
vt 0.77629 0.00274
vt 0.77629 0.00983
vt 0.77497 0.00560
vt 0.89415 0.30935
vt 0.89263 0.29205
vt 0.89480 0.30978
vt 0.87279 0.76708
vt 0.59662 0.62099
vt 0.60209 0.61804
vt 0.89435 0.31151
vt 0.61835 0.61812
vt 0.87399 0.77276
vt 0.59733 0.61813
vt 0.87234 0.78357
vt 0.89485 0.31909
vt 0.95543 0.03573
vt 0.96426 0.03729
vt 0.95557 0.04649
vt 0.99492 0.38608
vt 0.99492 0.39373
vt 0.99453 0.39683
vt 0.85500 0.78514
vt 0.87620 0.50377
vt 0.86548 0.46698
vt 0.87620 0.46796
vt 0.96395 0.04243
vt 0.84889 0.78497
vt 0.84206 0.76099
vt 0.88540 0.31092
vt 0.62558 0.64336
vt 0.79932 0.14015
vt 0.80397 0.12305
vt 0.81072 0.13059
vt 0.96357 0.04730
vt 0.86658 0.47731
vt 0.64531 0.62495
vt 0.63850 0.64570
vt 0.80906 0.12229
vt 0.61229 0.61580
vt 0.86729 0.48978
vt 0.82101 0.91744
vt 0.81755 0.91145
vt 0.83012 0.91181
vt 0.61652 0.61431
vt 0.95534 0.05271
vt 0.79930 0.12446
vt 0.86699 0.78549
vt 0.80919 0.91120
vt 0.80857 0.91632
vt 0.86187 0.49689
vt 0.86099 0.49188
vt 0.26996 0.05454
vt 0.27106 0.04201
vt 0.27861 0.05742
vt 0.64159 0.64723
vt 0.86652 0.50794
vt 0.87202 0.78623
vt 0.65613 0.65507
vt 0.64769 0.65267
vt 0.84026 0.78487
vt 0.30664 0.05909
vt 0.84181 0.92053
vt 0.83640 0.90359
vt 0.85158 0.90757
vt 0.95986 0.49011
vt 0.96527 0.49948
vt 0.96012 0.50788
vt 0.27199 0.03369
vt 0.27977 0.03369
vt 0.86893 0.51356
vt 0.87238 0.52147
vt 0.65408 0.64377
vt 0.61217 0.59579
vt 0.61135 0.60268
vt 0.61222 0.59468
vt 0.20213 0.46559
vt 0.20321 0.45334
vt 0.20842 0.45426
vt 0.39991 0.88981
vt 0.65874 0.62244
vt 0.42799 0.77711
vt 0.41769 0.76904
vt 0.42321 0.76848
vt 0.18998 0.45590
vt 0.38805 0.88606
vt 0.38668 0.88814
vt 0.15610 0.67893
vt 0.13836 0.69934
vt 0.13974 0.66952
vt 0.16436 0.68336
vt 0.98596 0.95214
vt 0.98596 0.93881
vt 0.99143 0.94454
vt 0.45517 0.57059
vt 0.42625 0.57312
vt 0.45495 0.55473
vt 0.16868 0.69349
vt 0.14707 0.71499
vt 0.15807 0.70746
vt 0.14911 0.71641
vt 0.36199 0.00381
vt 0.36390 0.00222
vt 0.36565 0.00370
vt 0.44091 0.55146
vt 0.36840 0.60526
vt 0.36627 0.61348
vt 0.36301 0.61357
vt 0.65737 0.78150
vt 0.66402 0.79198
vt 0.65546 0.79234
vt 0.37326 0.59159
vt 0.37349 0.59394
vt 0.01465 0.51459
vt 0.01550 0.52423
vt 0.01480 0.53214
vt 0.30424 0.70175
vt 0.27300 0.72628
vt 0.27986 0.70175
vt 0.17107 0.24111
vt 0.16882 0.23493
vt 0.17596 0.24076
vt 0.35455 0.61850
vt 0.35785 0.62178
vt 0.31586 0.70154
vt 0.31650 0.70641
vt 0.29364 0.72488
vt 0.25849 0.94691
vt 0.26211 0.94594
vt 0.26108 0.96110
vt 0.00501 0.79622
vt 0.00501 0.80479
vt 0.00454 0.80109
vt 0.37025 0.76704
vt 0.37025 0.77634
vt 0.36536 0.76716
vt 0.36248 0.77639
vt 0.66527 0.78103
vt 0.95946 0.40050
vt 0.96617 0.41118
vt 0.35233 0.62171
vt 0.36964 0.78170
vt 0.41066 0.52620
vt 0.40839 0.57174
vt 0.98681 0.60317
vt 0.97764 0.61335
vt 0.14503 0.01310
vt 0.14129 0.01343
vt 0.16068 0.00325
vt 0.15879 0.01325
vt 0.16775 0.01434
vt 0.97350 0.60756
vt 0.35437 0.62370
vt 0.37430 0.62342
vt 0.15167 0.01298
vt 0.37438 0.76910
vt 0.35954 0.62736
vt 0.99121 0.77486
vt 0.98726 0.76681
vt 0.31947 0.72305
vt 0.98981 0.76233
vt 0.13524 0.99405
vt 0.13812 0.99405
vt 0.67158 0.79169
vt 0.35866 0.63204
vt 0.37649 0.76730
vt 0.66678 0.79239
vt 0.29202 0.73514
vt 0.37677 0.78049
vt 0.36871 0.63398
vt 0.67499 0.77557
vt 0.68274 0.77754
vt 0.67454 0.77841
vt 0.38121 0.76840
vt 0.19325 0.23841
vt 0.09721 0.42497
vt 0.09608 0.39500
vt 0.09933 0.40066
vt 0.40489 0.57279
vt 0.37941 0.57313
vt 0.68217 0.79267
vt 0.38198 0.77681
vt 0.37356 0.63040
vt 0.37020 0.63322
vt 0.10052 0.40738
vt 0.10291 0.42015
vt 0.36545 0.63662
vt 0.36718 0.65414
vt 0.28804 0.80333
vt 0.28835 0.80987
vt 0.28565 0.80846
vt 0.19579 0.23384
vt 0.10124 0.39412
vt 0.10197 0.39913
vt 0.06230 0.99318
vt 0.06528 0.99727
vt 0.05784 0.99662
vt 0.04177 0.91715
vt 0.04821 0.91771
vt 0.03888 0.92624
vt 0.38438 0.77214
vt 0.28418 0.80269
vt 0.39185 0.76848
vt 0.31885 0.44576
vt 0.32758 0.43997
vt 0.32733 0.44963
vt 0.94683 0.23048
vt 0.95180 0.22953
vt 0.95819 0.22930
vt 0.31390 0.42540
vt 0.16753 0.20686
vt 0.69060 0.79278
vt 0.03068 0.92657
vt 0.38084 0.52890
vt 0.40034 0.76740
vt 0.69429 0.77999
vt 0.26864 0.80656
vt 0.08035 0.63423
vt 0.07971 0.64156
vt 0.07643 0.63425
vt 0.32182 0.41441
vt 0.33322 0.42355
vt 0.44742 0.52524
vt 0.45727 0.52580
vt 0.03092 0.90559
vt 0.95412 0.22279
vt 0.07703 0.64749
vt 0.33160 0.40238
vt 0.45571 0.36954
vt 0.43213 0.37505
vt 0.43213 0.37505
vt 0.45095 0.35957
vt 0.45095 0.35957
vt 0.04205 0.90815
vt 0.33909 0.42148
vt 0.07967 0.50395
vt 0.07172 0.50170
vt 0.07670 0.49404
vt 0.42373 0.96884
vt 0.42329 0.95578
vt 0.42552 0.95578
vt 0.06584 0.49428
vt 0.01279 0.26510
vt 0.01937 0.27515
vt 0.01279 0.27411
vt 0.02418 0.38922
vt 0.02418 0.36958
vt 0.02758 0.37704
vt 0.33392 0.39678
vt 0.34816 0.38009
vt 0.34052 0.39481
vt 0.43320 0.32884
vt 0.43141 0.31515
vt 0.43761 0.31513
vt 0.95638 0.22311
vt 0.42596 0.96841
vt 0.31277 0.41886
vt 0.07949 0.64947
vt 0.07804 0.65371
vt 0.01872 0.26254
vt 0.95254 0.21324
vt 0.13419 0.01134
vt 0.13419 0.00424
vt 0.13516 0.00457
vt 0.30995 0.41995
vt 0.58156 0.95854
vt 0.59468 0.95854
vt 0.59784 0.95956
vt 0.33392 0.38311
vt 0.87943 0.01792
vt 0.88927 0.01711
vt 0.89314 0.03904
vt 0.93141 0.49306
vt 0.93235 0.49103
vt 0.95309 0.49103
vt 0.92446 0.50085
vt 0.92488 0.49439
vt 0.47841 0.99249
vt 0.47798 0.99156
vt 0.48328 0.99129
vt 0.42129 0.31192
vt 0.43504 0.35230
vt 0.43765 0.35291
vt 0.33104 0.39349
vt 0.91571 0.44383
vt 0.93097 0.44222
vt 0.94365 0.45733
vt 0.44502 0.39886
vt 0.44035 0.40169
vt 0.41228 0.37618
vt 0.61572 0.00925
vt 0.63274 0.01756
vt 0.61369 0.01389
vt 0.30362 0.41914
vt 0.94253 0.44135
vt 0.30072 0.41970
vt 0.26626 0.80911
vt 0.07942 0.65672
vt 0.07829 0.65931
vt 0.42721 0.36522
vt 0.05600 0.49519
vt 0.41054 0.31075
vt 0.42945 0.52386
vt 0.04565 0.26261
vt 0.03978 0.25008
vt 0.42844 0.36931
vt 0.48785 0.99342
vt 0.31697 0.41382
vt 0.40479 0.31198
vt 0.32144 0.40141
vt 0.07416 0.54684
vt 0.07464 0.57276
vt 0.06982 0.56303
vt 0.34125 0.36193
vt 0.90591 0.04850
vt 0.90722 0.01546
vt 0.06406 0.55501
vt 0.42546 0.41237
vt 0.42024 0.40835
vt 0.07959 0.66161
vt 0.48777 0.99100
vt 0.29606 0.41953
vt 0.43751 0.34946
vt 0.91185 0.44500
vt 0.90847 0.44353
vt 0.07841 0.66225
vt 0.00019 0.82428
vt 0.00283 0.81614
vt 0.00333 0.82456
vt 0.91967 0.45146
vt 0.40425 0.32371
vt 0.44407 0.34742
vt 0.92103 0.04035
vt 0.40598 0.33799
vt 0.43420 0.34424
vt 0.91922 0.04828
vt 0.98555 0.13650
vt 0.98263 0.12384
vt 0.98722 0.13696
vt 0.91022 0.79402
vt 0.93615 0.79402
vt 0.91443 0.81867
vt 0.92398 0.50919
vt 0.40980 0.39415
vt 0.18216 0.20024
vt 0.37428 0.68919
vt 0.38261 0.68992
vt 0.35600 0.69635
vt 0.40916 0.35779
vt 0.90630 0.81588
vt 0.83869 0.77111
vt 0.83264 0.77976
vt 0.83963 0.76303
vt 0.83882 0.75998
vt 0.20925 0.81470
vt 0.21975 0.81655
vt 0.20813 0.81543
vt 0.17103 0.20042
vt 0.93648 0.80175
vt 0.93701 0.79552
vt 0.93430 0.81801
vt 0.04138 0.25739
vt 0.83172 0.76182
vt 0.20810 0.81578
vt 0.20615 0.81722
vt 0.40390 0.37033
vt 0.19534 0.20010
vt 0.83814 0.78746
vt 0.22803 0.81520
vt 0.32812 0.69853
vt 0.32218 0.70883
vt 0.32171 0.69195
vt 0.91941 0.45770
vt 0.40012 0.69969
vt 0.32770 0.69101
vt 0.40378 0.38540
vt 0.92408 0.01481
vt 0.92407 0.02427
vt 0.41261 0.52503
vt 0.16349 0.14873
vt 0.17203 0.14494
vt 0.18006 0.14709
vt 0.18708 0.16331
vt 0.19805 0.18315
vt 0.18708 0.18127
vt 0.40962 0.52084
vt 0.25236 0.80957
vt 0.20585 0.82833
vt 0.48911 0.99331
vt 0.48852 0.99111
vt 0.49842 0.99164
vt 0.64605 0.02163
vt 0.20571 0.83555
vt 0.39107 0.69059
vt 0.40170 0.38076
vt 0.78365 0.38488
vt 0.76495 0.37558
vt 0.78365 0.37371
vt 0.83933 0.79730
vt 0.83387 0.79720
vt 0.18064 0.14387
vt 0.40016 0.37503
vt 0.91790 0.46395
vt 0.39723 0.69062
vt 0.64862 0.01673
vt 0.95205 0.52654
vt 0.33809 0.71787
vt 0.45443 0.91832
vt 0.46177 0.91098
vt 0.45233 0.92439
vt 0.32236 0.71810
vt 0.39354 0.35500
vt 0.92953 0.52389
vt 0.39756 0.38010
vt 0.18444 0.14593
vt 0.78340 0.39920
vt 0.18063 0.15736
vt 0.39788 0.36315
vt 0.25262 0.80635
vt 0.92335 0.51766
vt 0.32267 0.72745
vt 0.32520 0.73513
vt 0.32240 0.73481
vt 0.21854 0.17382
vt 0.21107 0.18525
vt 0.94266 0.47332
vt 0.33191 0.72614
vt 0.45445 0.90979
vt 0.18500 0.14870
vt 0.18453 0.15885
vt 0.90068 0.81904
vt 0.27869 0.82523
vt 0.28888 0.81094
vt 0.28894 0.82612
vt 0.38248 0.52320
vt 0.92279 0.52379
vt 0.18751 0.14583
vt 0.92706 0.47315
vt 0.23956 0.81600
vt 0.64820 0.03038
vt 0.72223 0.24076
vt 0.72103 0.24546
vt 0.72051 0.24034
vt 0.57322 0.98843
vt 0.56463 0.98843
vt 0.57431 0.98142
vt 0.64580 0.02689
vt 0.09607 0.45158
vt 0.09715 0.44458
vt 0.09932 0.44477
vt 0.26415 0.81006
vt 0.56338 0.98181
vt 0.77731 0.81705
vt 0.74179 0.80111
vt 0.77731 0.80061
vt 0.33504 0.73663
vt 0.91620 0.47287
vt 0.39762 0.68204
vt 0.40600 0.70048
vt 0.00567 0.49387
vt 0.01694 0.49105
vt 0.01695 0.49387
vt 0.10443 0.45419
vt 0.91296 0.47090
vt 0.70587 0.22006
vt 0.71380 0.22273
vt 0.40631 0.68092
vt 0.71781 0.25672
vt 0.00603 0.49172
vt 0.64567 0.03774
vt 0.21453 0.14239
vt 0.75395 0.39769
vt 0.03780 0.65434
vt 0.04908 0.65434
vt 0.03526 0.67581
vt 0.69290 0.25313
vt 0.68889 0.23410
vt 0.18066 0.16278
vt 0.64800 0.03799
vt 0.71131 0.21135
vt 0.93044 0.52656
vt 0.78372 0.42862
vt 0.12590 0.98716
vt 0.12590 0.99425
vt 0.12385 0.99313
vt 0.71929 0.17956
vt 0.70002 0.20117
vt 0.72495 0.16631
vt 0.90761 0.47523
vt 0.22196 0.16703
vt 0.06012 0.45045
vt 0.06012 0.47618
vt 0.05897 0.45666
vt 0.10428 0.43892
vt 0.27329 0.82474
vt 0.25966 0.82525
vt 0.72178 0.26550
vt 0.70109 0.26765
vt 0.45230 0.90325
vt 0.68862 0.18294
vt 0.71609 0.14944
vt 0.05167 0.67579
vt 0.71171 0.19767
vt 0.63371 0.95317
vt 0.63371 0.93728
vt 0.63764 0.95255
vt 0.10039 0.43806
vt 0.75342 0.37620
vt 0.10087 0.42319
vt 0.75208 0.37503
vt 0.39534 0.95780
vt 0.38023 0.96271
vt 0.37953 0.94785
vt 0.74693 0.36183
vt 0.24002 0.83466
vt 0.74299 0.81748
vt 0.68294 0.20461
vt 0.75917 0.42545
vt 0.25469 0.81052
vt 0.18176 0.17638
vt 0.67977 0.19787
vt 0.67338 0.21560
vt 0.66450 0.21171
vt 0.16503 0.18323
vt 0.17530 0.18256
vt 0.17534 0.18377
vt 0.18626 0.18343
vt 0.75115 0.41556
vt 0.67323 0.20388
vt 0.18189 0.18176
vt 0.66603 0.20343
vt 0.67559 0.19016
vt 0.25428 0.82528
vt 0.74973 0.42473
vt 0.95946 0.41809
vt 0.98124 0.61894
vt 0.98317 0.77486
vt 0.13639 0.99891
vt 0.35301 0.63102
vt 0.35598 0.63092
vt 0.04536 0.24041
vt 0.36871 0.63398
vt 0.36871 0.63398
vt 0.36871 0.63398
vt 0.36871 0.63398
vt 0.83937 0.08792
vt 0.83937 0.08792
vt 0.83937 0.08792
vt 0.83937 0.08792
vt 0.83937 0.08792
vt 0.83937 0.08792
vt 0.83937 0.08792
vt 0.83937 0.08792
vt 0.83937 0.08792
vt 0.83937 0.08792
vt 0.83937 0.08792
vt 0.83937 0.08792
vt 0.83937 0.08792
vt 0.83937 0.08792
vt 0.83937 0.08792
vt 0.83937 0.08792
vt 0.83937 0.08792
vt 0.83937 0.08792
vt 0.83937 0.08792
vt 0.83937 0.08792
vt 0.83937 0.08792
vt 0.83937 0.08792
vt 0.83937 0.08792
vt 0.83937 0.08792
vt 0.83937 0.08792
vt 0.83937 0.08792
vt 0.83937 0.08792
vt 0.83937 0.08792
vt 0.83937 0.08792
vt 0.83937 0.08792
vt 0.83937 0.08792
vt 0.83937 0.08792
vt 0.83937 0.08792
vn 0.9509 0.1761 -0.2544
vn 0.9509 0.1761 -0.2544
vn 0.9509 0.1761 -0.2544
vn -0.2114 0.2114 -0.9542
vn -0.2074 0.2160 -0.9541
vn -0.2071 0.2164 -0.9541
vn -0.2038 0.2203 -0.9539
vn -0.0191 0.7985 -0.6017
vn 0.0328 0.8086 -0.5874
vn 0.2198 0.8133 -0.5387
vn -0.6108 0.2220 -0.7600
vn -0.3265 0.2491 -0.9118
vn -0.2150 0.2438 -0.9457
vn -0.0747 0.7895 -0.6093
vn 0.9442 0.0869 -0.3176
vn 0.9423 0.0900 -0.3225
vn 0.9622 0.0552 -0.2670
vn -0.0872 0.7804 -0.6192
vn 0.8373 -0.4612 -0.2934
vn 0.8373 -0.4612 -0.2934
vn 0.8373 -0.4612 -0.2934
vn -0.2442 0.2456 -0.9381
vn 0.9362 0.0992 -0.3370
vn -0.9997 0.0179 -0.0103
vn -0.9997 0.0179 -0.0103
vn -0.9997 0.0179 -0.0103
vn -0.9962 -0.0654 -0.0559
vn -0.9962 -0.0654 -0.0559
vn -0.1576 0.7495 -0.6430
vn -0.0609 0.7390 -0.6709
vn -0.0888 0.7518 -0.6533
vn 0.9513 0.0914 -0.2945
vn 0.9492 0.1169 -0.2923
vn -0.0992 0.7591 -0.6434
vn -0.0249 0.7258 -0.6874
vn 0.9477 0.1311 -0.2910
vn 0.0209 -0.9998 -0.0041
vn 0.0430 -0.9971 0.0632
vn 0.0368 -0.9986 0.0390
vn -0.2320 0.2416 -0.9422
vn -0.2965 0.2379 -0.9249
vn -0.1466 0.7353 -0.6618
vn 0.0365 -0.9986 0.0378
vn -0.3354 0.2263 -0.9145
vn -0.1143 -0.9223 -0.3692
vn -0.2522 0.7391 -0.6246
vn -0.2169 0.7493 -0.6256
vn -0.4179 0.2019 -0.8858
vn -0.2215 0.7465 -0.6274
vn -0.9648 0.0447 0.2590
vn -0.9648 0.0447 0.2590
vn -0.9648 0.0447 0.2590
vn -0.9962 -0.0654 -0.0559
vn 0.9522 0.0779 -0.2956
vn 0.3594 0.1332 -0.9237
vn 0.0759 0.0709 -0.9946
vn -0.0994 0.2378 -0.9662
vn 0.9291 0.3129 -0.1973
vn 0.9300 0.3433 -0.1316
vn 0.9464 0.2357 -0.2210
vn 0.9741 0.0667 -0.2162
vn -0.0840 0.0066 -0.9964
vn 0.9496 0.0832 -0.3024
vn 0.9371 0.0299 -0.3476
vn 0.9177 0.1600 -0.3639
vn 0.4876 -0.3450 0.8020
vn 0.4876 -0.3450 0.8020
vn 0.4876 -0.3450 0.8020
vn -0.1130 0.4397 -0.8910
vn -0.0766 0.4920 -0.8672
vn 0.5036 0.3790 0.7764
vn 0.5036 0.3790 0.7764
vn 0.5036 0.3790 0.7764
vn 0.9533 -0.2020 -0.2245
vn 0.9569 -0.2041 -0.2065
vn 0.9617 -0.1796 -0.2072
vn 0.9171 0.3827 -0.1124
vn -0.1162 -0.0022 -0.9933
vn -0.1237 -0.0216 -0.9921
vn -0.1078 0.0134 -0.9941
vn 0.9288 0.3354 -0.1572
vn -0.0738 -0.0100 -0.9972
vn -0.1108 0.1879 -0.9759
vn 0.9475 0.3132 0.0658
vn 0.9538 0.2996 0.0239
vn 0.9549 0.2956 0.0245
vn 0.2474 -0.9647 -0.0907
vn 0.2357 -0.9657 -0.1086
vn 0.2751 -0.9588 -0.0704
vn 0.3232 -0.2664 0.9080
vn 0.3232 -0.2664 0.9080
vn 0.3232 -0.2664 0.9080
vn 0.1922 -0.5970 0.7788
vn 0.1922 -0.5970 0.7788
vn 0.1922 -0.5970 0.7788
vn -0.0206 -0.8468 -0.5315
vn -0.0481 -0.8206 -0.5695
vn 0.0272 -0.9022 -0.4305
vn 0.9832 -0.0952 -0.1556
vn -0.0909 -0.7267 -0.6809
vn -0.0447 -0.7426 -0.6682
vn 0.9313 0.3575 -0.0698
vn 0.9574 0.2886 0.0038
vn 0.1640 -0.9720 -0.1684
vn 0.1618 -0.9715 -0.1735
vn 0.9867 -0.0950 -0.1313
vn 0.1375 -0.9713 -0.1942
vn 0.1269 -0.9724 -0.1959
vn 0.4253 -0.8997 -0.0984
vn 0.4192 -0.9027 -0.0968
vn 0.2369 -0.9686 0.0755
vn 0.0373 0.4449 -0.8948
vn 0.1246 0.5155 -0.8478
vn 0.9237 0.3543 -0.1457
vn 0.0480 -0.8770 -0.4781
vn 0.4164 -0.9066 -0.0688
vn -0.0806 -0.0765 -0.9938
vn -0.0871 -0.6900 -0.7185
vn -0.1017 -0.0854 -0.9911
vn 0.0597 -0.9963 0.0626
vn 0.0597 -0.9963 0.0626
vn 0.0597 -0.9963 0.0626
vn -0.1103 -0.0558 -0.9923
vn 0.9581 0.2862 0.0121
vn 0.1161 -0.9787 0.1696
vn 0.9329 0.3498 -0.0854
vn 0.1352 -0.3470 0.9281
vn 0.2376 -0.3500 0.9061
vn 0.2663 -0.3421 0.9011
vn 0.1476 -0.3173 0.9368
vn 0.1277 -0.2834 0.9505
vn 0.1366 -0.9715 -0.1938
vn -0.1308 -0.1445 -0.9808
vn 0.1050 -0.6693 0.7355
vn 0.0752 -0.6366 0.7675
vn 0.0124 -0.5627 0.8266
vn 0.2115 -0.8131 -0.5424
vn -0.2683 -0.6720 -0.6902
vn -0.0641 -0.0904 -0.9938
vn -0.3396 -0.6744 -0.6556
vn 0.0197 -0.4118 0.9110
vn 0.1282 0.9039 0.4081
vn 0.1156 0.8666 0.4854
vn 0.1503 0.8128 0.5628
vn 0.3743 -0.6563 -0.6552
vn 0.2506 -0.7441 -0.6193
vn 0.3386 -0.6865 -0.6435
vn -0.0557 -0.4761 0.8777
vn 0.9391 0.3368 -0.0683
vn 0.1703 0.6641 0.7280
vn 0.2949 -0.8155 -0.4979
vn 0.2807 -0.8247 -0.4911
vn 0.2873 -0.8204 -0.4943
vn 0.9062 0.4050 -0.1215
vn 0.9045 0.4190 -0.0785
vn 0.9058 0.4098 -0.1070
vn 0.0005 -0.5439 0.8392
vn 0.1614 -0.3059 0.9383
vn 0.2739 -0.8289 -0.4877
vn 0.9349 0.3470 -0.0751
vn 0.1539 0.9145 0.3742
vn 0.8188 -0.4560 -0.3488
vn 0.8188 -0.4560 -0.3488
vn 0.8188 -0.4560 -0.3488
vn 0.1554 -0.3016 0.9407
vn 0.3213 -0.7266 -0.6072
vn -0.0284 -0.5437 0.8388
vn -0.2138 -0.7067 -0.6744
vn 0.1421 -0.9009 0.4101
vn 0.1421 -0.9009 0.4101
vn 0.1421 -0.9009 0.4101
vn -0.9357 -0.3333 -0.1164
vn -0.9417 -0.3175 -0.1112
vn -0.9531 -0.2965 -0.0607
vn 0.1519 -0.3015 0.9413
vn -0.3839 -0.7062 -0.5949
vn -0.9147 -0.3705 -0.1614
vn -0.0939 -0.7352 -0.6713
vn -0.0524 -0.7437 -0.6664
vn -0.0182 -0.5444 0.8386
vn 0.9038 0.4227 -0.0668
vn -0.0674 -0.5549 0.8292
vn -0.8045 0.0196 -0.5938
vn -0.8045 0.0196 -0.5938
vn -0.8045 0.0196 -0.5938
vn -0.9426 -0.3115 -0.1203
vn -0.0773 -0.5615 0.8238
vn -0.9364 -0.3191 -0.1462
vn -0.9311 -0.3648 0.0033
vn -0.9323 -0.3558 0.0650
vn -0.9321 -0.3608 0.0324
vn -0.9277 -0.3708 -0.0445
vn 0.0315 -0.9910 0.1304
vn -0.0391 -0.9855 0.1654
vn 0.0828 -0.9911 0.1046
vn 0.1371 -0.9876 0.0766
vn -0.0044 -0.3366 0.9416
vn -0.0244 -0.3278 0.9444
vn 0.0061 -0.3490 0.9371
vn 0.2649 -0.8173 -0.5118
vn 0.2649 -0.8173 -0.5118
vn 0.2649 -0.8173 -0.5118
vn -0.4695 0.0931 -0.8780
vn -0.4406 0.1559 -0.8841
vn -0.5096 0.0261 -0.8600
vn -0.0516 -0.4163 0.9077
vn -0.0243 -0.4088 0.9123
vn -0.5237 -0.0296 -0.8514
vn -0.5302 -0.0028 -0.8478
vn 0.9769 -0.1116 -0.1825
vn 0.2541 -0.8500 -0.4615
vn 0.2795 -0.8267 -0.4884
vn 0.2569 -0.8565 -0.4476
vn 0.2756 -0.8257 -0.4922
vn 0.9754 -0.0582 -0.2127
vn 0.9754 -0.0582 -0.2127
vn 0.9754 -0.0582 -0.2127
vn 0.9196 0.3834 -0.0856
vn 0.9409 0.3319 -0.0665
vn 0.9211 0.3781 -0.0923
vn 0.2314 -0.8663 -0.4428
vn 0.0337 -0.8698 -0.4921
vn 0.7909 0.2674 0.5504
vn 0.7909 0.2674 0.5504
vn 0.7909 0.2674 0.5504
vn 0.9084 0.4065 -0.0985
vn 0.5387 -0.8357 0.1073
vn 0.5387 -0.8357 0.1073
vn 0.5387 -0.8357 0.1073
vn 0.3597 -0.5492 0.7543
vn 0.2024 -0.6306 0.7493
vn 0.3622 -0.5635 0.7425
vn 0.2613 -0.8526 -0.4525
vn 0.2872 -0.5503 0.7841
vn -0.0208 0.7541 0.6565
vn 0.0944 0.8093 0.5798
vn 0.1495 0.8024 0.5777
vn 0.9124 0.3985 -0.0937
vn 0.2482 -0.9651 0.0838
vn 0.2482 -0.9651 0.0838
vn 0.2482 -0.9651 0.0838
vn 0.8748 -0.0103 0.4845
vn 0.9136 -0.0221 0.4059
vn 0.8111 0.0337 0.5840
vn 0.1956 0.7782 0.5968
vn 0.3732 -0.4827 0.7923
vn 0.3744 -0.4992 0.7815
vn 0.8210 0.3866 0.4203
vn 0.2794 -0.5725 0.7709
vn 0.0144 0.7455 0.6663
vn 0.3840 -0.3521 0.8535
vn -0.2051 0.7213 0.6616
vn 0.8229 0.5587 0.1035
vn 0.4384 -0.6785 -0.5894
vn 0.4438 -0.6659 -0.5997
vn 0.4066 -0.7196 -0.5629
vn -0.3421 0.5499 0.7620
vn -0.3421 0.5499 0.7620
vn -0.3421 0.5499 0.7620
vn -0.0399 0.7024 0.7106
vn -0.9798 -0.1278 0.1542
vn -0.9654 -0.2289 0.1254
vn -0.9610 -0.2573 0.1016
vn 0.4165 -0.6898 -0.5922
vn -0.1000 0.7110 0.6961
vn -0.1250 0.7479 0.6519
vn 0.8445 0.5296 0.0793
vn 0.0793 -0.6908 0.7187
vn 0.2388 -0.4144 0.8782
vn 0.2624 -0.5436 0.7973
vn 0.2160 -0.5136 0.8304
vn 0.3609 -0.7584 -0.5427
vn -0.9609 -0.0365 0.2745
vn 0.0634 -0.6767 0.7335
vn 0.2704 -0.6512 0.7091
vn 0.3380 -0.5669 0.7513
vn 0.3276 -0.4891 0.8084
vn -0.9739 -0.0800 0.2128
vn 0.3358 -0.7766 -0.5330
vn 0.3156 -0.7837 -0.5350
vn 0.3009 -0.7807 -0.5478
vn 0.2302 -0.5792 0.7820
vn 0.4014 -0.7380 -0.5424
vn 0.2635 -0.4806 0.8364
vn -0.1378 0.7095 0.6911
vn 0.4414 -0.7520 -0.4896
vn 0.4843 -0.7362 -0.4726
vn -0.9739 0.0115 0.2265
vn -0.9729 -0.0040 0.2309
vn -0.8894 -0.4433 0.1119
vn -0.8882 -0.4461 0.1096
vn -0.8888 -0.4459 0.1063
vn 0.3109 -0.6310 0.7108
vn -0.9837 -0.0920 0.1545
vn -0.5017 0.6768 0.5387
vn 0.2652 -0.6393 0.7218
vn 0.3490 -0.6246 0.6986
vn -0.1399 0.6791 0.7206
vn -0.8854 -0.4512 0.1119
vn -0.1306 -0.7500 0.6484
vn -0.1613 -0.7342 0.6595
vn -0.0903 -0.7592 0.6446
vn -0.0653 -0.9966 -0.0504
vn -0.0653 -0.9966 -0.0504
vn -0.0653 -0.9966 -0.0504
vn -0.8890 -0.4445 0.1105
vn -0.8875 -0.4469 0.1127
vn -0.9893 -0.0821 0.1207
vn -0.9897 -0.0785 0.1197
vn -0.1125 -0.6693 0.7344
vn 0.0948 -0.3208 0.9424
vn 0.2220 -0.6777 0.7010
vn 0.0464 -0.1780 0.9830
vn 0.6715 -0.6873 0.2769
vn 0.6703 -0.6973 0.2538
vn 0.6752 -0.7006 0.2306
vn 0.1410 -0.5362 0.8322
vn -0.0897 -0.6718 0.7353
vn -0.7937 -0.6064 0.0484
vn -0.8113 -0.5792 -0.0792
vn -0.8078 -0.5888 -0.0253
vn 0.5867 -0.5962 0.5481
vn 0.3916 -0.2678 0.8803
vn 0.4201 -0.2251 0.8791
vn 0.9474 0.2548 -0.1940
vn 0.9590 0.2327 -0.1615
vn 0.9454 0.2473 -0.2125
vn 0.9406 0.2566 -0.2225
vn 0.2100 0.8112 -0.5459
vn 0.2100 0.8112 -0.5459
vn 0.2100 0.8112 -0.5459
vn 0.0768 -0.9955 -0.0557
vn 0.0555 -0.9985 -0.0032
vn 0.0753 -0.9957 -0.0543
vn 0.9492 0.2380 -0.2054
vn 0.9746 0.2074 -0.0847
vn 0.9685 0.1929 -0.1575
vn 0.9772 0.2054 -0.0534
vn 0.6288 0.7075 -0.3224
vn 0.6288 0.7075 -0.3224
vn 0.6288 0.7075 -0.3224
vn 0.0557 -0.9984 -0.0116
vn 0.3283 -0.2026 -0.9226
vn 0.2886 -0.2337 -0.9285
vn 0.3461 -0.1679 -0.9231
vn 0.2569 0.9664 -0.0116
vn 0.0516 0.9975 0.0489
vn 0.2283 0.9732 -0.0263
vn 0.4286 -0.1749 -0.8863
vn 0.4263 -0.1755 -0.8874
vn 0.7955 0.4198 0.4369
vn 0.7955 0.4198 0.4369
vn 0.7955 0.4198 0.4369
vn 0.9571 0.1929 -0.2162
vn 0.9609 0.1203 -0.2497
vn 0.9660 0.1704 -0.1946
vn 0.0776 0.8922 -0.4448
vn 0.0018 0.9002 -0.4355
vn 0.0907 0.8845 -0.4576
vn 0.2540 -0.1794 -0.9504
vn 0.1183 -0.2378 -0.9641
vn 0.9497 0.2285 -0.2144
vn 0.9467 0.2532 -0.1991
vn 0.9457 0.1566 -0.2849
vn -0.9952 -0.0822 -0.0526
vn -0.9952 -0.0822 -0.0526
vn -0.9952 -0.0822 -0.0526
vn 0.2133 0.7353 0.6433
vn 0.2133 0.7353 0.6433
vn 0.2133 0.7353 0.6433
vn 0.1444 0.2589 0.9551
vn -0.0036 0.4048 0.9145
vn 0.0446 0.3407 0.9391
vn -0.1332 0.4605 0.8776
vn -0.0088 0.9991 0.0407
vn -0.0550 0.7894 -0.6113
vn -0.0550 0.7894 -0.6113
vn 0.0973 -0.1604 -0.9822
vn -0.0424 0.4916 0.8698
vn -0.0397 -0.9955 0.0865
vn 0.0278 -0.9984 0.0491
vn -0.9997 -0.0211 -0.0123
vn -0.9996 -0.0238 -0.0136
vn 0.9537 0.1173 -0.2770
vn 0.9562 0.1215 -0.2662
vn 0.9404 0.1140 -0.3203
vn 0.9395 0.1130 -0.3234
vn 0.9397 0.1333 -0.3149
vn -0.9999 -0.0131 -0.0084
vn -0.0321 -0.2122 -0.9767
vn -0.0061 -0.3276 -0.9448
vn 0.9392 0.0958 -0.3297
vn 0.0675 0.2488 0.9662
vn -0.0849 -0.3348 -0.9384
vn -0.9991 -0.0229 -0.0374
vn -0.9985 -0.0452 -0.0302
vn 0.9387 0.2717 -0.2121
vn -0.9979 -0.0595 -0.0257
vn 0.9548 0.1410 -0.2617
vn 0.9548 0.1410 -0.2617
vn -0.0416 0.9988 0.0240
vn -0.1584 -0.1858 -0.9697
vn -0.0669 0.1797 0.9814
vn -0.1476 0.9414 0.3035
vn 0.9293 0.1290 -0.3462
vn 0.1065 0.3468 0.9318
vn -0.0697 -0.3022 -0.9507
vn 0.2403 0.9595 -0.1470
vn 0.0899 0.9955 -0.0304
vn 0.1095 0.9927 -0.0511
vn 0.1345 0.3533 0.9258
vn -0.0300 0.9030 -0.4286
vn 0.5799 0.6869 0.4380
vn 0.5566 0.7216 0.4116
vn 0.6003 0.7010 0.3850
vn -0.1586 -0.9830 0.0924
vn 0.0162 -0.9984 0.0538
vn 0.0488 0.9985 -0.0233
vn 0.1721 0.3715 0.9124
vn 0.1012 -0.0329 -0.9943
vn -0.1183 -0.2727 -0.9548
vn 0.5504 0.6880 0.4731
vn 0.5749 0.6883 0.4425
vn -0.1134 -0.2611 -0.9586
vn -0.1229 -0.2283 -0.9658
vn 0.0099 0.7369 -0.6759
vn 0.1255 0.6786 -0.7238
vn -0.0084 0.7224 -0.6914
vn -0.0774 0.9171 -0.3912
vn 0.5440 0.7399 0.3958
vn 0.5885 0.7413 0.3228
vn 0.2839 0.1241 0.9508
vn 0.2839 0.1241 0.9508
vn 0.2839 0.1241 0.9508
vn 0.1922 -0.1384 0.9715
vn 0.1371 -0.1737 0.9753
vn 0.1626 -0.1648 0.9729
vn 0.2547 0.4021 0.8795
vn -0.1045 0.7460 -0.6577
vn 0.2078 0.4147 0.8859
vn 0.9740 0.1322 -0.1843
vn 0.9721 0.1650 -0.1666
vn 0.9554 0.1292 -0.2655
vn 0.3201 -0.9177 0.2352
vn 0.3248 -0.9229 0.2068
vn 0.2935 -0.9418 0.1640
vn 0.9759 0.1862 -0.1141
vn -0.1415 0.9286 -0.3430
vn -0.0980 0.9952 0.0022
vn 0.2013 -0.1229 0.9718
vn 0.0256 -0.9967 0.0765
vn 0.2053 0.4110 0.8883
vn -0.1121 0.9937 -0.0038
vn -0.1707 0.7794 -0.6028
vn 0.2231 0.9543 0.1990
vn 0.2136 0.9565 0.1986
vn 0.2207 0.9549 0.1986
vn 0.9749 0.1735 -0.1399
vn 0.9597 0.2572 -0.1127
vn 0.0467 -0.9988 0.0151
vn 0.0452 -0.9988 0.0164
vn 0.2437 -0.1082 0.9638
vn 0.3606 -0.9163 0.1744
vn 0.2083 0.9562 0.2058
vn 0.9473 0.3200 0.0175
vn 0.9964 0.0644 0.0556
vn 0.9781 0.2005 -0.0557
vn 0.9754 0.0084 -0.2200
vn 0.9923 0.0954 -0.0791
vn 0.9964 0.0644 0.0556
vn 0.2669 -0.1290 0.9551
vn 0.9658 0.2364 -0.1072
vn 0.0278 -0.9993 0.0249
vn 0.1002 -0.9696 -0.2232
vn 0.0671 -0.9741 -0.2158
vn 0.0324 0.1006 -0.9944
vn 0.2293 0.0788 -0.9702
vn 0.2059 0.0816 -0.9752
vn 0.2188 -0.9086 -0.3560
vn 0.9199 0.1045 -0.3780
vn 0.9177 0.1012 -0.3842
vn 0.9149 0.0972 -0.3918
vn -0.1703 0.1358 -0.9760
vn -0.1703 0.1358 -0.9760
vn -0.1703 0.1358 -0.9760
vn 0.9787 0.1138 -0.1707
vn 0.9743 0.0632 -0.2160
vn 0.9676 0.0822 -0.2388
vn 0.9510 0.2467 -0.1864
vn 0.9500 0.2528 -0.1835
vn 0.9445 0.2377 -0.2269
vn 0.2160 -0.9513 0.2199
vn 0.0053 0.1033 -0.9946
vn 0.9468 0.3216 -0.0126
vn 0.2028 0.9547 0.2175
vn 0.1306 0.9555 0.2646
vn 0.9219 0.1075 -0.3723
vn 0.4225 -0.8906 0.1683
vn 0.3257 0.0603 -0.9436
vn 0.3257 0.0603 -0.9436
vn 0.3257 0.0603 -0.9436
vn 0.9104 0.4123 0.0347
vn 0.9050 -0.4203 0.0653
vn 0.9050 -0.4203 0.0653
vn 0.9050 -0.4203 0.0653
vn 0.9765 0.0664 -0.2054
vn -0.9860 0.1196 0.1159
vn -0.9869 0.1202 0.1073
vn -0.9796 0.1476 0.1361
vn 0.0295 -0.9749 -0.2208
vn 0.0689 -0.9743 -0.2142
vn 0.0031 -0.9809 -0.1945
vn 0.0124 -0.9747 -0.2231
vn 0.0726 -0.9432 -0.3243
vn 0.1376 0.9744 0.1779
vn 0.1000 0.9798 0.1732
vn 0.3566 0.9188 0.1693
vn 0.9493 0.2881 -0.1253
vn 0.9848 -0.0387 -0.1693
vn 0.9289 -0.3202 -0.1859
vn 0.9767 0.0920 -0.1939
vn 0.1691 0.0297 -0.9852
vn -0.0686 0.2351 -0.9696
vn -0.1758 0.2057 -0.9627
vn 0.9766 0.0255 -0.2138
vn 0.9781 0.1076 -0.1784
vn 0.9511 0.2383 -0.1967
vn 0.0732 0.7813 0.6198
vn 0.0120 0.8598 0.5105
vn 0.0776 0.7762 0.6257
vn 0.9600 0.2725 -0.0646
vn -0.0679 0.2345 -0.9697
vn 0.9706 0.2290 -0.0730
vn -0.2182 0.8115 -0.5422
vn 0.1045 0.9593 0.2622
vn 0.1775 0.9563 0.2324
vn 0.9727 0.1882 -0.1354
vn 0.2692 -0.9061 -0.3266
vn 0.9425 0.3227 -0.0871
vn 0.0804 -0.9967 0.0073
vn 0.0319 -0.9740 0.2243
vn 0.0095 -0.9845 0.1751
vn 0.9545 0.2973 -0.0221
vn 0.5179 0.8534 0.0589
vn 0.9795 0.0840 -0.1829
vn 0.9581 0.2374 -0.1603
vn 0.9808 0.1339 -0.1421
vn 0.7617 -0.3878 -0.5191
vn 0.7229 -0.4124 -0.5544
vn 0.7382 -0.4030 -0.5410
vn 0.9780 0.0489 -0.2027
vn -0.9515 0.2010 0.2331
vn -0.9687 0.1652 0.1852
vn 0.7782 -0.3764 -0.5028
vn 0.9641 0.2483 -0.0943
vn 0.9182 0.3927 0.0515
vn 0.2938 0.9219 0.2527
vn 0.5699 0.8216 0.0152
vn 0.9723 0.2228 -0.0709
vn 0.8079 -0.4224 -0.4109
vn 0.4094 -0.0165 -0.9122
vn 0.4783 0.0156 -0.8780
vn 0.3334 0.9055 0.2624
vn -0.0881 0.0224 -0.9958
vn -0.0881 0.0224 -0.9958
vn -0.0881 0.0224 -0.9958
vn 0.0125 0.1768 -0.9841
vn 0.9597 0.2105 -0.1863
vn 0.7301 -0.4727 -0.4934
vn -0.9388 0.2194 0.2653
vn 0.9686 0.1735 -0.1782
vn 0.9616 0.1443 -0.2335
vn -0.8954 0.3154 0.3144
vn 0.6396 -0.1886 0.7452
vn 0.6396 -0.1886 0.7452
vn 0.6396 -0.1886 0.7452
vn -0.0055 -0.7413 -0.6711
vn 0.0045 -0.8386 -0.5448
vn -0.0150 -0.7525 -0.6583
vn -0.0021 -0.9759 -0.2183
vn 0.9329 0.3598 0.0118
vn -0.1550 0.9364 -0.3150
vn 0.1514 -0.1748 0.9729
vn 0.1419 -0.1986 0.9698
vn 0.1446 -0.1946 0.9702
vn 0.9723 0.1329 -0.1924
vn -0.0304 -0.7551 -0.6549
vn -0.5449 -0.2073 -0.8125
vn -0.5797 -0.1599 -0.7990
vn -0.7818 0.0320 -0.6227
vn -0.7070 -0.0378 -0.7062
vn 0.1093 0.6687 0.7354
vn 0.0566 0.6828 0.7285
vn 0.1159 0.6531 0.7484
vn -0.2402 0.9166 -0.3195
vn -0.0034 -0.8933 -0.4494
vn 0.0750 -0.9905 -0.1150
vn -0.0293 -0.7655 -0.6428
vn 0.0829 -0.9390 0.3338
vn -0.6452 -0.0914 -0.7585
vn 0.2331 0.0750 0.9696
vn 0.2162 0.4166 0.8829
vn 0.9251 0.1747 -0.3372
vn -0.1384 0.9337 -0.3302
vn -0.5210 -0.1837 -0.8335
vn -0.0052 0.7946 0.6072
vn 0.0815 0.8491 0.5219
vn -0.0031 0.8486 0.5291
vn 0.1324 0.8467 0.5153
vn -0.2025 0.1977 -0.9591
vn -0.0175 -0.1249 0.9921
vn 0.1650 0.8315 0.5305
vn 0.9368 0.3499 -0.0025
vn -0.9593 0.1895 0.2092
vn -0.9898 0.1236 -0.0713
vn -0.2356 -0.9663 0.1041
vn 0.2735 -0.6078 0.7456
vn 0.2969 -0.5936 0.7480
vn 0.3575 -0.4681 0.8081
vn -0.9837 0.1156 0.1383
vn -0.9840 0.1273 0.1242
vn -0.9849 0.1393 0.1033
vn -0.1595 -0.9764 0.1458
vn -0.2418 0.8204 -0.5181
vn 0.2330 0.5642 0.7921
vn -0.7420 0.1818 0.6452
vn -0.7420 0.1818 0.6452
vn -0.7420 0.1818 0.6452
vn -0.1115 0.7380 0.6655
vn 0.1583 0.5463 0.8225
vn 0.1339 -0.1882 0.9730
vn 0.8745 0.4827 -0.0474
vn 0.1739 -0.2354 0.9563
vn 0.1904 -0.2331 0.9536
vn 0.1818 -0.2460 0.9521
vn -0.3840 -0.2800 -0.8799
vn -0.4306 -0.2463 -0.8683
vn 0.4214 -0.4567 0.7835
vn 0.8424 0.5337 -0.0738
vn -0.4139 0.1719 -0.8940
vn 0.0055 -0.1429 0.9897
vn -0.0107 0.7704 0.6374
vn -0.0039 -0.9821 -0.1881
vn -0.0508 0.8242 0.5640
vn 0.0174 -0.9294 0.3688
vn -0.0610 -0.7948 0.6038
vn 0.0285 -0.9563 0.2909
vn -0.0958 0.8549 0.5098
vn 0.9769 0.1884 -0.1007
vn -0.0410 -0.9763 -0.2124
vn 0.7001 0.6852 0.2005
vn 0.3310 -0.4461 0.8315
vn 0.2079 -0.3602 0.9094
vn 0.3302 -0.5501 0.7670
vn 0.9680 0.2281 -0.1043
vn -0.2418 0.8200 -0.5187
vn -0.0408 -0.9647 -0.2601
vn -0.3092 0.8238 0.4752
vn -0.1859 0.8234 0.5361
vn -0.0765 0.8497 0.5216
vn -0.9853 0.0748 0.1538
vn -0.9864 0.1026 0.1283
vn -0.3422 0.1911 -0.9200
vn -0.1370 0.8079 0.5732
vn -0.1034 -0.7555 0.6469
vn 0.3039 -0.3748 0.8759
vn 0.2919 -0.5565 0.7778
vn -0.0564 -0.7516 -0.6572
vn -0.1629 0.6922 0.7030
vn -0.1527 0.6897 0.7079
vn -0.1477 0.6943 0.7043
vn 0.0312 -0.9979 0.0570
vn -0.1001 -0.9498 -0.2965
vn -0.9775 0.0652 0.2007
vn -0.5130 0.2229 -0.8289
vn 0.1032 0.5603 0.8218
vn -0.1912 0.6434 0.7413
vn -0.9711 0.1531 0.1830
vn -0.9661 0.1576 0.2044
vn -0.9731 0.0527 0.2243
vn -0.9907 0.0214 0.1346
vn -0.9854 -0.0120 0.1696
vn -0.9874 -0.0008 0.1579
vn -0.2669 0.6795 0.6834
vn -0.2119 -0.9762 0.0467
vn -0.1905 -0.9804 0.0503
vn -0.2277 -0.9711 0.0719
vn -0.1404 0.6921 0.7080
vn -0.9815 -0.0305 0.1888
vn 0.1823 -0.0497 0.9820
vn 0.1896 -0.0644 0.9798
vn 0.1778 -0.0405 0.9832
vn -0.2393 0.7619 0.6018
vn -0.5676 0.0792 -0.8194
vn -0.0573 -0.1298 0.9899
vn -0.0829 -0.1068 0.9908
vn -0.2267 0.1503 -0.9623
vn -0.4814 0.0851 -0.8723
vn -0.5211 0.0734 -0.8503
vn -0.2313 -0.9709 0.0614
vn -0.6223 -0.0128 -0.7827
vn -0.9668 -0.1741 0.1867
vn -0.9617 -0.1340 0.2388
vn -0.0520 -0.1328 0.9898
vn -0.9355 0.2024 0.2898
vn -0.1617 0.1645 -0.9731
vn -0.2767 0.5872 0.7607
vn -0.9715 0.0255 0.2357
vn 0.2014 -0.3553 0.9128
vn -0.9749 0.0131 0.2219
vn -0.9754 0.0170 0.2198
vn -0.9757 0.0197 0.2184
vn -0.9646 0.0440 0.2602
vn -0.9577 -0.2402 0.1581
vn 0.2074 -0.5509 0.8084
vn -0.3047 0.5736 0.7604
vn -0.9535 -0.2608 0.1515
vn -0.0923 -0.9800 -0.1763
vn 0.2281 -0.4704 0.8524
vn -0.1770 0.0046 0.9841
vn -0.1770 0.0046 0.9841
vn -0.1770 0.0046 0.9841
vn -0.9786 -0.1615 0.1274
vn -0.9439 -0.3198 0.0832
vn -0.9471 -0.3133 0.0688
vn -0.6936 0.0198 -0.7201
vn -0.9961 0.0157 0.0867
vn -0.6652 -0.0568 0.7445
vn -0.6652 -0.0568 0.7445
vn -0.6652 -0.0568 0.7445
vn -0.2277 -0.9687 0.0985
vn -0.1776 0.6971 0.6947
vn -0.1524 0.6923 0.7053
vn -0.9377 0.1933 0.2888
vn -0.9320 0.2086 0.2963
vn -0.1592 -0.7299 0.6647
vn -0.9425 -0.3292 0.0582
vn -0.9338 -0.3534 0.0574
vn -0.9760 0.0227 0.2168
vn -0.9766 -0.1750 0.1246
vn 0.0139 -0.2260 0.9740
vn 0.0139 -0.2260 0.9740
vn 0.0139 -0.2260 0.9740
vn -0.3119 -0.9426 0.1193
vn -0.1329 -0.2403 0.9615
vn -0.3619 -0.9238 0.1250
vn -0.4856 -0.0689 0.8714
vn -0.9661 0.0120 0.2577
vn -0.9661 0.0120 0.2577
vn -0.9661 0.0120 0.2577
vn -0.5363 -0.0070 0.8439
vn 0.1333 0.5948 0.7927
vn 0.1943 -0.0740 0.9782
vn -0.9238 -0.3694 0.1004
vn 0.1998 -0.4618 0.8642
vn -0.1391 0.6940 0.7064
vn 0.1687 -0.5177 0.8388
vn -0.9389 -0.3369 0.0705
vn -0.9297 -0.3474 0.1229
vn -0.9438 -0.3064 0.1243
vn 0.0099 -0.5563 0.8309
vn 0.0036 -0.5339 0.8455
vn 0.0157 -0.5345 0.8450
vn 0.1643 -0.5029 0.8487
vn 0.1834 -0.4617 0.8679
vn -0.9539 -0.2738 0.1237
vn 0.1494 -0.4991 0.8536
vn -0.9619 -0.2370 0.1359
vn -0.9485 -0.3078 0.0760
vn -0.1850 0.6915 0.6983
vn 0.1430 -0.4411 0.8860
vn -0.0550 0.7894 -0.6113
vn -0.9994 -0.0317 -0.0175
vn -0.9991 -0.0116 -0.0410
vn 0.9548 0.1410 -0.2617
vn -0.1582 -0.1688 -0.9729
vn -0.1994 -0.0987 -0.9750
vn 0.0020 -0.9873 0.1587
vn 0.0000 1.0000 0.0000
vn 0.0000 1.0000 0.0000
vn 0.0000 1.0000 0.0000
vn 0.0000 1.0000 0.0000
vn 0.0000 1.0000 0.0000
vn 0.0000 1.0000 0.0000
vn 0.0000 1.0000 0.0000
vn 0.0000 1.0000 0.0000
vn 0.0000 1.0000 0.0000
vn 0.0000 1.0000 0.0000
vn 0.0000 1.0000 0.0000
vn 0.0000 1.0000 0.0000
vn 0.0000 1.0000 0.0000
vn 0.0000 1.0000 0.0000
vn 0.0000 1.0000 0.0000
vn 0.0000 1.0000 0.0000
vn 0.0000 1.0000 0.0000
vn 0.0000 1.0000 0.0000
vn 0.0000 1.0000 0.0000
vn 0.0000 1.0000 0.0000
vn 0.0000 1.0000 0.0000
vn 0.0000 1.0000 0.0000
vn 0.0000 1.0000 0.0000
vn 0.0000 1.0000 0.0000
vn 0.0000 1.0000 0.0000
vn 0.0000 1.0000 0.0000
vn 0.0000 1.0000 0.0000
vn 0.0000 1.0000 0.0000
vn 0.0000 1.0000 0.0000
vn 0.0000 1.0000 0.0000
vn 0.0000 1.0000 0.0000
vn 0.0000 1.0000 0.0000
vn 0.0000 1.0000 0.0000
vn 0.0000 1.0000 0.0000
vn 0.0000 1.0000 0.0000
vn 0.0000 1.0000 0.0000
vn 0.0000 1.0000 0.0000
f 1/1/1 2/2/2 3/3/3
f 325/325/325 326/326/326 327/327/327
f 4/4/4 5/5/5 6/6/6
f 326/326/326 325/325/325 328/328/328
f 329/329/329 330/330/330 331/331/331
f 5/5/5 7/7/7 6/6/6
f 332/332/332 333/333/333 334/334/334
f 335/335/335 336/336/336 326/326/326
f 335/335/335 326/326/326 328/328/328
f 337/337/337 336/336/336 335/335/335
f 8/8/8 9/9/9 10/10/10
f 337/337/337 338/338/338 336/336/336
f 339/339/339 340/340/340 341/341/341
f 342/342/342 334/334/334 333/333/333
f 11/11/11 12/12/12 13/13/13
f 343/343/343 344/344/344 345/345/345
f 8/8/8 14/14/14 9/9/9
f 346/346/346 347/347/347 348/348/348
f 345/345/345 349/349/349 350/350/350
f 351/351/351 352/352/352 353/353/353
f 15/15/15 16/16/16 17/17/17
f 345/345/345 350/350/350 343/343/343
f 354/354/354 355/355/355 356/356/356
f 55/55/55 56/56/56 57/57/57
f 357/357/357 358/358/358 359/359/359
f 8/8/8 18/18/18 14/14/14
f 19/19/19 20/20/20 21/21/21
f 22/22/22 13/13/13 12/12/12
f 58/58/58 59/59/59 60/60/60
f 360/360/360 345/345/345 361/361/361
f 362/362/362 363/363/363 364/364/364
f 365/365/365 366/366/366 367/367/367
f 59/59/59 61/61/61 60/60/60
f 368/368/368 369/369/369 370/370/370
f 56/56/56 62/62/62 57/57/57
f 371/371/371 372/372/372 373/373/373
f 374/374/374 373/373/373 372/372/372
f 346/346/346 375/375/375 347/347/347
f 361/361/361 345/345/345 344/344/344
f 23/23/23 16/16/16 15/15/15
f 772/772/772 376/376/376 377/377/377
f 360/360/360 361/361/361 378/378/378
f 374/374/374 372/372/372 379/379/379
f 380/380/380 333/333/333 381/381/381
f 24/24/24 25/25/25 26/26/26
f 53/53/53 27/27/27 28/28/28
f 382/382/382 773/773/773 383/383/383
f 384/384/384 385/385/385 386/386/386
f 387/387/387 386/386/386 388/388/388
f 383/383/383 389/389/389 382/382/382
f 29/29/29 30/30/30 31/31/31
f 361/361/361 390/390/390 378/378/378
f 364/364/364 355/355/355 354/354/354
f 344/344/344 391/391/391 361/361/361
f 61/61/61 63/63/63 64/64/64
f 392/392/392 384/384/384 386/386/386
f 386/386/386 387/387/387 392/392/392
f 393/393/393 372/372/372 371/371/371
f 54/54/54 32/32/32 33/33/33
f 64/64/64 63/63/63 65/65/65
f 394/394/394 361/361/361 391/391/391
f 395/395/395 774/774/774 396/396/396
f 59/59/59 63/63/63 61/61/61
f 66/66/66 67/67/67 68/68/68
f 397/397/397 364/364/364 363/363/363
f 354/354/354 362/362/362 364/364/364
f 395/395/395 396/396/396 398/398/398
f 34/34/34 29/29/29 31/31/31
f 69/69/69 70/70/70 57/57/57
f 35/35/35 30/30/30 29/29/29
f 71/71/71 72/72/72 73/73/73
f 33/33/33 32/32/32 36/36/36
f 74/74/74 75/75/75 76/76/76
f 399/399/399 400/400/400 775/775/775
f 59/59/59 58/58/58 77/77/77
f 347/347/347 375/375/375 401/401/401
f 776/776/776 777/777/777 402/402/402
f 78/78/78 79/79/79 80/80/80
f 81/81/81 77/77/77 58/58/58
f 403/403/403 372/372/372 393/393/393
f 37/37/37 38/38/38 39/39/39
f 404/404/404 347/347/347 401/401/401
f 57/57/57 82/82/82 83/83/83
f 364/364/364 397/397/397 405/405/405
f 84/84/84 85/85/85 86/86/86
f 87/87/87 88/88/88 89/89/89
f 372/372/372 406/406/406 379/379/379
f 364/364/364 405/405/405 355/355/355
f 90/90/90 91/91/91 92/92/92
f 407/407/407 394/394/394 391/391/391
f 408/408/408 409/409/409 410/410/410
f 372/372/372 403/403/403 411/411/411
f 22/22/22 40/40/40 13/13/13
f 40/40/40 22/22/22 41/41/41
f 29/29/29 42/42/42 35/35/35
f 358/358/358 412/412/412 359/359/359
f 410/410/410 401/401/401 375/375/375
f 43/43/43 37/37/37 39/39/39
f 57/57/57 62/62/62 82/82/82
f 93/93/93 94/94/94 95/95/95
f 413/413/413 414/414/414 415/415/415
f 210/210/210 76/76/76 75/75/75
f 416/416/416 417/417/417 381/381/381
f 410/410/410 418/418/418 401/401/401
f 96/96/96 97/97/97 98/98/98
f 406/406/406 372/372/372 419/419/419
f 342/342/342 333/333/333 380/380/380
f 420/420/420 407/407/407 391/391/391
f 76/76/76 210/210/210 99/99/99
f 41/41/41 22/22/22 44/44/44
f 96/96/96 100/100/100 97/97/97
f 421/421/421 407/407/407 420/420/420
f 422/422/422 413/413/413 415/415/415
f 394/394/394 407/407/407 402/402/402
f 97/97/97 100/100/100 101/101/101
f 419/419/419 372/372/372 411/411/411
f 423/423/423 413/413/413 422/422/422
f 407/407/407 424/424/424 402/402/402
f 77/77/77 102/102/102 59/59/59
f 37/37/37 45/45/45 38/38/38
f 776/776/776 402/402/402 424/424/424
f 424/424/424 425/425/425 776/776/776
f 85/85/85 103/103/103 86/86/86
f 426/426/426 427/427/427 428/428/428
f 429/429/429 412/412/412 358/358/358
f 430/430/430 431/431/431 415/415/415
f 83/83/83 69/69/69 57/57/57
f 432/432/432 433/433/433 434/434/434
f 430/430/430 415/415/415 414/414/414
f 104/104/104 105/105/105 88/88/88
f 435/435/435 436/436/436 437/437/437
f 29/29/29 46/46/46 42/42/42
f 106/106/106 99/99/99 210/210/210
f 88/88/88 87/87/87 104/104/104
f 411/411/411 438/438/438 419/419/419
f 439/439/439 426/426/426 428/428/428
f 438/438/438 411/411/411 440/440/440
f 104/104/104 107/107/107 108/108/108
f 441/441/441 442/442/442 443/443/443
f 444/444/444 445/445/445 446/446/446
f 441/441/441 447/447/447 442/442/442
f 109/109/109 110/110/110 111/111/111
f 429/429/429 358/358/358 448/448/448
f 410/410/410 409/409/409 418/418/418
f 409/409/409 449/449/449 418/418/418
f 437/437/437 450/450/450 435/435/435
f 114/114/114 77/77/77 81/81/81
f 29/29/29 47/47/47 46/46/46
f 97/97/97 115/115/115 98/98/98
f 104/104/104 108/108/108 105/105/105
f 381/381/381 417/417/417 451/451/451
f 438/438/438 440/440/440 452/452/452
f 116/116/116 109/109/109 111/111/111
f 409/409/409 453/453/453 449/449/449
f 454/454/454 439/439/439 428/428/428
f 79/79/79 78/78/78 117/117/117
f 41/41/41 44/44/44 48/48/48
f 455/455/455 456/456/456 457/457/457
f 458/458/458 442/442/442 447/447/447
f 442/442/442 458/458/458 459/459/459
f 460/460/460 461/461/461 342/342/342
f 435/435/435 450/450/450 462/462/462
f 445/445/445 463/463/463 446/446/446
f 464/464/464 457/457/457 456/456/456
f 97/97/97 101/101/101 118/118/118
f 459/459/459 458/458/458 465/465/465
f 83/83/83 82/82/82 119/119/119
f 466/466/466 467/467/467 470/470/470
f 435/435/435 462/462/462 471/471/471
f 459/459/459 465/465/465 472/472/472
f 120/120/120 121/121/121 122/122/122
f 117/117/117 123/123/123 79/79/79
f 473/473/473 474/474/474 475/475/475
f 476/476/476 477/477/477 478/478/478
f 342/342/342 380/380/380 460/460/460
f 47/47/47 29/29/29 49/49/49
f 474/474/474 479/479/479 475/475/475
f 103/103/103 124/124/124 86/86/86
f 480/480/480 481/481/481 482/482/482
f 483/483/483 484/484/484 485/485/485
f 116/116/116 111/111/111 125/125/125
f 126/126/126 102/102/102 77/77/77
f 486/486/486 487/487/487 488/488/488
f 489/489/489 490/490/490 491/491/491
f 50/50/50 51/51/51 52/52/52
f 446/446/446 463/463/463 492/492/492
f 476/476/476 478/478/478 493/493/493
f 447/447/447 494/494/494 458/458/458
f 464/464/464 495/495/495 496/496/496
f 480/480/480 497/497/497 481/481/481
f 445/445/445 498/498/498 463/463/463
f 495/495/495 464/464/464 456/456/456
f 499/499/499 500/500/500 501/501/501
f 494/494/494 447/447/447 502/502/502
f 503/503/503 504/504/504 505/505/505
f 486/486/486 506/506/506 487/487/487
f 507/507/507 508/508/508 509/509/509
f 510/510/510 511/511/511 512/512/512
f 510/510/510 513/513/513 514/514/514
f 69/69/69 83/83/83 112/112/112
f 515/515/515 516/516/516 517/517/517
f 489/489/489 518/518/518 490/490/490
f 127/127/127 128/128/128 129/129/129
f 486/486/486 465/465/465 458/458/458
f 130/130/130 127/127/127 129/129/129
f 469/469/469 519/519/519 520/520/520
f 458/458/458 521/521/521 486/486/486
f 522/522/522 523/523/523 524/524/524
f 525/525/525 526/526/526 527/527/527
f 528/528/528 529/529/529 530/530/530
f 130/130/130 131/131/131 127/127/127
f 531/531/531 494/494/494 502/502/502
f 527/527/527 468/468/468 525/525/525
f 69/69/69 113/113/113 70/70/70
f 532/532/532 524/524/524 523/523/523
f 531/531/531 502/502/502 533/533/533
f 454/454/454 428/428/428 534/534/534
f 132/132/132 107/107/107 104/104/104
f 496/496/496 535/535/535 536/536/536
f 469/469/469 467/467/467 537/537/537
f 496/496/496 495/495/495 535/535/535
f 474/474/474 538/538/538 479/479/479
f 489/489/489 539/539/539 518/518/518
f 540/540/540 460/460/460 380/380/380
f 778/778/778 541/541/541 542/542/542
f 119/119/119 133/133/133 83/83/83
f 527/527/527 543/543/543 468/468/468
f 544/544/544 515/515/515 517/517/517
f 127/127/127 131/131/131 128/128/128
f 521/521/521 458/458/458 545/545/545
f 539/539/539 489/489/489 546/546/546
f 521/521/521 545/545/545 547/547/547
f 548/548/548 549/549/549 550/550/550
f 487/487/487 506/506/506 551/551/551
f 552/552/552 509/509/509 553/553/553
f 134/134/134 135/135/135 136/136/136
f 486/486/486 521/521/521 506/506/506
f 550/550/550 554/554/554 548/548/548
f 137/137/137 115/115/115 97/97/97
f 519/519/519 469/469/469 537/537/537
f 555/555/555 556/556/556 527/527/527
f 536/536/536 535/535/535 557/557/557
f 544/544/544 517/517/517 558/558/558
f 97/97/97 118/118/118 138/138/138
f 531/531/531 533/533/533 559/559/559
f 519/519/519 560/560/560 520/520/520
f 123/123/123 117/117/117 139/139/139
f 526/526/526 555/555/555 527/527/527
f 522/522/522 561/561/561 562/562/562
f 563/563/563 536/536/536 557/557/557
f 381/381/381 451/451/451 380/380/380
f 564/564/564 565/565/565 566/566/566
f 567/567/567 561/561/561 522/522/522
f 537/537/537 467/467/467 543/543/543
f 138/138/138 118/118/118 140/140/140
f 141/141/141 131/131/131 130/130/130
f 568/568/568 546/546/546 489/489/489
f 142/142/142 143/143/143 144/144/144
f 569/569/569 520/520/520 560/560/560
f 553/553/553 570/570/570 552/552/552
f 571/571/571 572/572/572 519/519/519
f 145/145/145 146/146/146 147/147/147
f 570/570/570 573/573/573 552/552/552
f 131/131/131 141/141/141 148/148/148
f 574/574/574 575/575/575 576/576/576
f 577/577/577 578/578/578 579/579/579
f 537/537/537 571/571/571 519/519/519
f 508/508/508 553/553/553 509/509/509
f 115/115/115 137/137/137 146/146/146
f 510/510/510 580/580/580 513/513/513
f 527/527/527 556/556/556 581/581/581
f 567/567/567 522/522/522 524/524/524
f 143/143/143 150/150/150 144/144/144
f 582/582/582 429/429/429 448/448/448
f 151/151/151 152/152/152 153/153/153
f 583/583/583 584/584/584 585/585/585
f 154/154/154 155/155/155 156/156/156
f 537/537/537 586/586/586 571/571/571
f 157/157/157 136/136/136 135/135/135
f 579/579/579 587/587/587 577/577/577
f 588/588/588 589/589/589 590/590/590
f 590/590/590 589/589/589 591/591/591
f 592/592/592 593/593/593 594/594/594
f 141/141/141 130/130/130 158/158/158
f 448/448/448 595/595/595 582/582/582
f 596/596/596 578/578/578 597/597/597
f 578/578/578 596/596/596 598/598/598
f 159/159/159 153/153/153 152/152/152
f 77/77/77 160/160/160 126/126/126
f 586/586/586 543/543/543 527/527/527
f 568/568/568 489/489/489 571/571/571
f 542/542/542 541/541/541 599/599/599
f 77/77/77 149/149/149 160/160/160
f 586/586/586 537/537/537 543/543/543
f 161/161/161 142/142/142 144/144/144
f 162/162/162 163/163/163 164/164/164
f 165/165/165 158/158/158 130/130/130
f 591/591/591 589/589/589 600/600/600
f 166/166/166 147/147/147 146/146/146
f 601/601/601 593/593/593 602/602/602
f 571/571/571 489/489/489 572/572/572
f 603/603/603 586/586/586 527/527/527
f 582/582/582 604/604/604 429/429/429
f 157/157/157 167/167/167 136/136/136
f 588/588/588 605/605/605 589/589/589
f 593/593/593 592/592/592 606/606/606
f 607/607/607 608/608/608 609/609/609
f 211/211/211 212/212/212 213/213/213
f 214/214/214 212/212/212 211/211/211
f 137/137/137 166/166/166 146/146/146
f 524/524/524 610/610/610 567/567/567
f 138/138/138 140/140/140 168/168/168
f 585/585/585 584/584/584 611/611/611
f 607/607/607 609/609/609 612/612/612
f 613/613/613 527/527/527 581/581/581
f 553/553/553 614/614/614 570/570/570
f 614/614/614 615/615/615 570/570/570
f 380/380/380 616/616/616 540/540/540
f 215/215/215 216/216/216 217/217/217
f 169/169/169 170/170/170 171/171/171
f 617/617/617 618/618/618 619/619/619
f 218/218/218 219/219/219 220/220/220
f 172/172/172 173/173/173 174/174/174
f 165/165/165 175/175/175 158/158/158
f 620/620/620 621/621/621 622/622/622
f 623/623/623 380/380/380 451/451/451
f 140/140/140 176/176/176 168/168/168
f 177/177/177 173/173/173 172/172/172
f 534/534/534 624/624/624 454/454/454
f 211/211/211 213/213/213 221/221/221
f 625/625/625 602/602/602 593/593/593
f 626/626/626 627/627/627 628/628/628
f 211/211/211 221/221/221 222/222/222
f 528/528/528 629/629/629 529/529/529
f 630/630/630 625/625/625 593/593/593
f 178/178/178 168/168/168 179/179/179
f 223/223/223 224/224/224 225/225/225
f 611/611/611 584/584/584 631/631/631
f 613/613/613 632/632/632 527/527/527
f 180/180/180 136/136/136 167/167/167
f 176/176/176 179/179/179 168/168/168
f 633/633/633 634/634/634 635/635/635
f 181/181/181 156/156/156 155/155/155
f 605/605/605 636/636/636 637/637/637
f 618/618/618 638/638/638 619/619/619
f 527/527/527 639/639/639 603/603/603
f 579/579/579 578/578/578 598/598/598
f 527/527/527 632/632/632 639/639/639
f 589/589/589 605/605/605 637/637/637
f 227/227/227 228/228/228 229/229/229
f 167/167/167 182/182/182 180/180/180
f 524/524/524 640/640/640 610/610/610
f 611/611/611 631/631/631 641/641/641
f 642/642/642 629/629/629 528/528/528
f 510/510/510 512/512/512 643/643/643
f 230/230/230 231/231/231 232/232/232
f 644/644/644 608/608/608 607/607/607
f 222/222/222 221/221/221 233/233/233
f 230/230/230 232/232/232 234/234/234
f 183/183/183 184/184/184 185/185/185
f 645/645/645 646/646/646 647/647/647
f 644/644/644 648/648/648 608/608/608
f 586/586/586 649/649/649 571/571/571
f 650/650/650 580/580/580 510/510/510
f 643/643/643 650/650/650 510/510/510
f 651/651/651 639/639/639 632/632/632
f 235/235/235 236/236/236 237/237/237
f 638/638/638 652/652/652 619/619/619
f 633/633/633 653/653/653 634/634/634
f 654/654/654 619/619/619 652/652/652
f 586/586/586 655/655/655 649/649/649
f 656/656/656 454/454/454 624/624/624
f 650/650/650 657/657/657 580/580/580
f 658/658/658 648/648/648 659/659/659
f 238/238/238 218/218/218 220/220/220
f 659/659/659 660/660/660 658/658/658
f 661/661/661 662/662/662 621/621/621
f 640/640/640 524/524/524 663/663/663
f 239/239/239 240/240/240 241/241/241
f 644/644/644 664/664/664 648/648/648
f 177/177/177 186/186/186 173/173/173
f 661/661/661 621/621/621 620/620/620
f 646/646/646 645/645/645 665/665/665
f 242/242/242 243/243/243 244/244/244
f 652/652/652 666/666/666 667/667/667
f 579/579/579 668/668/668 587/587/587
f 654/654/654 652/652/652 667/667/667
f 669/669/669 670/670/670 671/671/671
f 672/672/672 623/623/623 451/451/451
f 657/657/657 650/650/650 673/673/673
f 620/620/620 674/674/674 661/661/661
f 675/675/675 640/640/640 663/663/663
f 237/237/237 245/245/245 235/235/235
f 676/676/676 630/630/630 593/593/593
f 677/677/677 629/629/629 642/642/642
f 187/187/187 182/182/182 167/167/167
f 678/678/678 679/679/679 680/680/680
f 681/681/681 682/682/682 683/683/683
f 664/664/664 659/659/659 648/648/648
f 238/238/238 220/220/220 226/226/226
f 629/629/629 677/677/677 684/684/684
f 685/685/685 686/686/686 687/687/687
f 669/669/669 688/688/688 670/670/670
f 230/230/230 246/246/246 247/247/247
f 683/683/683 682/682/682 689/689/689
f 690/690/690 691/691/691 692/692/692
f 659/659/659 664/664/664 693/693/693
f 675/675/675 694/694/694 640/640/640
f 177/177/177 188/188/188 186/186/186
f 695/695/695 696/696/696 641/641/641
f 697/697/697 698/698/698 699/699/699
f 687/687/687 700/700/700 685/685/685
f 640/640/640 694/694/694 701/701/701
f 702/702/702 703/703/703 680/680/680
f 695/695/695 704/704/704 696/696/696
f 705/705/705 680/680/680 679/679/679
f 697/697/697 706/706/706 698/698/698
f 189/189/189 190/190/190 191/191/191
f 677/677/677 707/707/707 684/684/684
f 674/674/674 708/708/708 661/661/661
f 641/641/641 696/696/696 611/611/611
f 189/189/189 191/191/191 192/192/192
f 709/709/709 634/634/634 653/653/653
f 710/710/710 711/711/711 712/712/712
f 713/713/713 714/714/714 680/680/680
f 242/242/242 244/244/244 248/248/248
f 664/664/664 644/644/644 693/693/693
f 667/667/667 715/715/715 654/654/654
f 677/677/677 716/716/716 707/707/707
f 702/702/702 717/717/717 703/703/703
f 650/650/650 643/643/643 718/718/718
f 231/231/231 230/230/230 249/249/249
f 235/235/235 245/245/245 250/250/250
f 709/709/709 653/653/653 719/719/719
f 720/720/720 721/721/721 722/722/722
f 247/247/247 246/246/246 251/251/251
f 723/723/723 724/724/724 725/725/725
f 193/193/193 194/194/194 195/195/195
f 247/247/247 249/249/249 230/230/230
f 694/694/694 726/726/726 701/701/701
f 727/727/727 661/661/661 708/708/708
f 728/728/728 729/729/729 730/730/730
f 731/731/731 700/700/700 687/687/687
f 593/593/593 606/606/606 676/676/676
f 688/688/688 732/732/732 733/733/733
f 734/734/734 735/735/735 705/705/705
f 646/646/646 665/665/665 736/736/736
f 737/737/737 725/725/725 724/724/724
f 250/250/250 252/252/252 235/235/235
f 248/248/248 244/244/244 253/253/253
f 705/705/705 735/735/735 680/680/680
f 737/737/737 738/738/738 725/725/725
f 711/711/711 739/739/739 712/712/712
f 254/254/254 255/255/255 256/256/256
f 723/723/723 740/740/740 724/724/724
f 741/741/741 742/742/742 743/743/743
f 731/731/731 687/687/687 744/744/744
f 735/735/735 713/713/713 680/680/680
f 709/709/709 745/745/745 634/634/634
f 746/746/746 744/744/744 687/687/687
f 745/745/745 709/709/709 747/747/747
f 257/257/257 258/258/258 259/259/259
f 252/252/252 260/260/260 235/235/235
f 261/261/261 262/262/262 263/263/263
f 255/255/255 264/264/264 256/256/256
f 702/702/702 680/680/680 714/714/714
f 748/748/748 749/749/749 750/750/750
f 714/714/714 717/717/717 702/702/702
f 745/745/745 747/747/747 751/751/751
f 265/265/265 266/266/266 235/235/235
f 196/196/196 193/193/193 195/195/195
f 688/688/688 669/669/669 732/732/732
f 267/267/267 248/248/248 253/253/253
f 752/752/752 630/630/630 676/676/676
f 197/197/197 198/198/198 199/199/199
f 268/268/268 231/231/231 249/249/249
f 691/691/691 690/690/690 753/753/753
f 200/200/200 201/201/201 202/202/202
f 235/235/235 260/260/260 265/265/265
f 754/754/754 717/717/717 714/714/714
f 256/256/256 264/264/264 272/272/272
f 261/261/261 273/273/273 262/262/262
f 755/755/755 709/709/709 719/719/719
f 274/274/274 275/275/275 268/268/268
f 270/270/270 276/276/276 271/271/271
f 277/277/277 249/249/249 247/247/247
f 273/273/273 261/261/261 278/278/278
f 203/203/203 204/204/204 205/205/205
f 754/754/754 724/724/724 717/717/717
f 279/279/279 280/280/280 281/281/281
f 277/277/277 282/282/282 249/249/249
f 688/688/688 733/733/733 756/756/756
f 283/283/283 256/256/256 272/272/272
f 199/199/199 206/206/206 197/197/197
f 715/715/715 667/667/667 757/757/757
f 269/269/269 284/284/284 270/270/270
f 252/252/252 285/285/285 260/260/260
f 286/286/286 279/279/279 287/287/287
f 207/207/207 206/206/206 199/199/199
f 203/203/203 205/205/205 208/208/208
f 758/758/758 724/724/724 754/754/754
f 758/758/758 737/737/737 724/724/724
f 759/759/759 754/754/754 714/714/714
f 759/759/759 760/760/760 754/754/754
f 288/288/288 289/289/289 278/278/278
f 290/290/290 291/291/291 292/292/292
f 279/279/279 286/286/286 280/280/280
f 274/274/274 293/293/293 275/275/275
f 294/294/294 278/278/278 261/261/261
f 288/288/288 278/278/278 294/294/294
f 252/252/252 295/295/295 285/285/285
f 205/205/205 209/209/209 208/208/208
f 293/293/293 296/296/296 297/297/297
f 249/249/249 274/274/274 268/268/268
f 265/265/265 298/298/298 266/266/266
f 761/761/761 762/762/762 763/763/763
f 292/292/292 291/291/291 299/299/299
f 757/757/757 667/667/667 764/764/764
f 755/755/755 765/765/765 709/709/709
f 760/760/760 766/766/766 754/754/754
f 300/300/300 301/301/301 302/302/302
f 303/303/303 304/304/304 305/305/305
f 767/767/767 763/763/763 762/762/762
f 757/757/757 764/764/764 767/767/767
f 291/291/291 306/306/306 307/307/307
f 768/768/768 766/766/766 760/760/760
f 274/274/274 296/296/296 293/293/293
f 261/261/261 308/308/308 294/294/294
f 764/764/764 763/763/763 767/767/767
f 769/769/769 737/737/737 758/758/758
f 308/308/308 261/261/261 309/309/309
f 296/296/296 274/274/274 310/310/310
f 733/733/733 770/770/770 756/756/756
f 755/755/755 771/771/771 765/765/765
f 249/249/249 282/282/282 311/311/311
f 299/299/299 291/291/291 307/307/307
f 312/312/312 311/311/311 282/282/282
f 249/249/249 311/311/311 313/313/313
f 314/314/314 315/315/315 316/316/316
f 274/274/274 318/318/318 310/310/310
f 319/319/319 320/320/320 321/321/321
f 323/323/323 317/317/317 324/324/324
f 322/322/322 315/315/315 314/314/314
f 779/779/779 780/780/780 781/781/781
f 779/779/779 781/781/781 780/780/780
f 779/779/779 781/781/781 782/782/782
f 779/779/779 782/782/782 781/781/781
f 779/779/779 782/782/782 780/780/780
f 779/779/779 780/780/780 782/782/782
f 783/783/783 784/784/784 785/785/785
f 783/783/783 785/785/785 784/784/784
f 783/783/783 785/785/785 786/786/786
f 783/783/783 786/786/786 785/785/785
f 783/783/783 786/786/786 787/787/787
f 783/783/783 787/787/787 786/786/786
f 783/783/783 787/787/787 788/788/788
f 783/783/783 788/788/788 787/787/787
f 783/783/783 788/788/788 789/789/789
f 783/783/783 789/789/789 788/788/788
f 783/783/783 789/789/789 790/790/790
f 783/783/783 790/790/790 789/789/789
f 783/783/783 790/790/790 791/791/791
f 783/783/783 791/791/791 790/790/790
f 783/783/783 791/791/791 792/792/792
f 783/783/783 792/792/792 791/791/791
f 783/783/783 792/792/792 793/793/793
f 783/783/783 793/793/793 792/792/792
f 783/783/783 793/793/793 794/794/794
f 783/783/783 794/794/794 793/793/793
f 783/783/783 794/794/794 795/795/795
f 783/783/783 795/795/795 794/794/794
f 783/783/783 795/795/795 796/796/796
f 783/783/783 796/796/796 795/795/795
f 783/783/783 796/796/796 797/797/797
f 783/783/783 797/797/797 796/796/796
f 783/783/783 797/797/797 798/798/798
f 783/783/783 798/798/798 797/797/797
f 783/783/783 798/798/798 799/799/799
f 783/783/783 799/799/799 798/798/798
f 783/783/783 799/799/799 800/800/800
f 783/783/783 800/800/800 799/799/799
f 783/783/783 800/800/800 801/801/801
f 783/783/783 801/801/801 800/800/800
f 783/783/783 801/801/801 802/802/802
f 783/783/783 802/802/802 801/801/801
f 783/783/783 802/802/802 803/803/803
f 783/783/783 803/803/803 802/802/802
f 783/783/783 803/803/803 804/804/804
f 783/783/783 804/804/804 803/803/803
f 783/783/783 804/804/804 805/805/805
f 783/783/783 805/805/805 804/804/804
f 783/783/783 805/805/805 806/806/806
f 783/783/783 806/806/806 805/805/805
f 783/783/783 806/806/806 807/807/807
f 783/783/783 807/807/807 806/806/806
f 783/783/783 807/807/807 808/808/808
f 783/783/783 808/808/808 807/807/807
f 783/783/783 808/808/808 809/809/809
f 783/783/783 809/809/809 808/808/808
f 783/783/783 809/809/809 810/810/810
f 783/783/783 810/810/810 809/809/809
f 783/783/783 810/810/810 811/811/811
f 783/783/783 811/811/811 810/810/810
f 783/783/783 811/811/811 812/812/812
f 783/783/783 812/812/812 811/811/811
f 783/783/783 812/812/812 813/813/813
f 783/783/783 813/813/813 812/812/812
f 783/783/783 813/813/813 814/814/814
f 783/783/783 814/814/814 813/813/813
f 783/783/783 814/814/814 815/815/815
f 783/783/783 815/815/815 814/814/814
f 783/783/783 815/815/815 784/784/784
f 783/783/783 784/784/784 815/815/815
