o tail_4
v -0.03115 1.63752 7.96377
v -0.04015 1.57368 7.86670
v -0.03624 1.60321 7.94814
v -0.03624 1.60321 7.94814
v -0.02938 1.63800 7.98819
v -0.03115 1.63752 7.96377
v -0.02322 1.59193 8.01710
v -0.02628 1.54904 7.97612
v -0.01953 1.51399 7.93925
v -0.02322 1.59193 8.01710
v -0.02701 1.59743 8.00851
v -0.02888 1.56394 7.96725
v -0.02322 1.59193 8.01710
v -0.02888 1.56394 7.96725
v -0.02628 1.54904 7.97612
v -0.00011 1.63301 8.03933
v -0.00654 1.59688 8.01380
v 0.01996 1.60331 7.99870
v -0.00011 1.63301 8.03933
v 0.01996 1.60331 7.99870
v 0.01275 1.63633 8.02237
v 0.01996 1.60331 7.99870
v 0.02005 1.58978 7.95337
v 0.01449 1.63603 7.97925
v 0.01996 1.60331 7.99870
v 0.01449 1.63603 7.97925
v 0.00634 1.65144 8.02302
v 0.01996 1.60331 7.99870
v 0.00634 1.65144 8.02302
v 0.01275 1.63633 8.02237
v 0.01449 1.63603 7.97925
v 0.00421 1.64829 7.99600
v -0.00641 1.65014 8.03029
v 0.01449 1.63603 7.97925
v -0.00641 1.65014 8.03029
v 0.00634 1.65144 8.02302
v -0.00641 1.65014 8.03029
v -0.00011 1.63301 8.03933
v 0.00634 1.65144 8.02302
v -0.00641 1.65014 8.03029
v -0.01171 1.61850 8.03334
v -0.00011 1.63301 8.03933
v -0.01171 1.61850 8.03334
v -0.00641 1.65014 8.03029
v -0.02322 1.59193 8.01710
v -0.00641 1.65014 8.03029
v -0.02931 1.61432 7.99854
v -0.02701 1.59743 8.00851
v -0.00641 1.65014 8.03029
v -0.02701 1.59743 8.00851
v -0.02322 1.59193 8.01710
v -0.02931 1.61432 7.99854
v -0.02888 1.56394 7.96725
v -0.02701 1.59743 8.00851
v -0.02931 1.61432 7.99854
v -0.03650 1.54165 7.88155
v -0.03564 1.47377 7.80234
v -0.02931 1.61432 7.99854
v -0.03564 1.47377 7.80234
v -0.02888 1.56394 7.96725
v -0.03564 1.47377 7.80234
v -0.03133 1.44767 7.78799
v -0.01961 1.42097 7.80079
v -0.03564 1.47377 7.80234
v -0.01961 1.42097 7.80079
v -0.01953 1.51399 7.93925
v -0.03564 1.47377 7.80234
v -0.01953 1.51399 7.93925
v -0.02628 1.54904 7.97612
v -0.03564 1.47377 7.80234
v -0.02628 1.54904 7.97612
v -0.02888 1.56394 7.96725
v -0.01953 1.51399 7.93925
v -0.01961 1.42097 7.80079
v -0.00349 1.43718 7.79118
v -0.01953 1.51399 7.93925
v -0.00349 1.43718 7.79118
v 0.01193 1.54721 7.95061
v 0.01193 1.54721 7.95061
v -0.00654 1.59688 8.01380
v -0.02322 1.59193 8.01710
v 0.01193 1.54721 7.95061
v -0.02322 1.59193 8.01710
v -0.01953 1.51399 7.93925
v 0.01193 1.54721 7.95061
v 0.01956 1.49029 7.82420
v 0.01996 1.60331 7.99870
v 0.01193 1.54721 7.95061
v 0.01996 1.60331 7.99870
v -0.00654 1.59688 8.01380
v 0.01956 1.49029 7.82420
v 0.02005 1.58978 7.95337
v 0.01996 1.60331 7.99870
v 0.01956 1.49029 7.82420
v 0.01584 1.48816 7.77255
v 0.01875 1.52392 7.77328
v 0.01956 1.49029 7.82420
v 0.01875 1.52392 7.77328
v 0.01449 1.63603 7.97925
v 0.01956 1.49029 7.82420
v 0.01449 1.63603 7.97925
v 0.02005 1.58978 7.95337
v 0.01875 1.52392 7.77328
v 0.00843 1.52524 7.76163
v 0.00103 1.62574 7.93884
v 0.01875 1.52392 7.77328
v 0.00103 1.62574 7.93884
v 0.01449 1.63603 7.97925
v 0.00103 1.62574 7.93884
v 0.00421 1.64829 7.99600
v 0.01449 1.63603 7.97925
v 0.00103 1.62574 7.93884
v -0.01892 1.64728 8.00061
v 0.00421 1.64829 7.99600
v -0.01892 1.64728 8.00061
v -0.00641 1.65014 8.03029
v 0.00421 1.64829 7.99600
v -0.01892 1.64728 8.00061
v 0.00103 1.62574 7.93884
v -0.03115 1.63752 7.96377
v -0.01892 1.64728 8.00061
v -0.03115 1.63752 7.96377
v -0.02938 1.63800 7.98819
v -0.01892 1.64728 8.00061
v -0.02938 1.63800 7.98819
v -0.02931 1.61432 7.99854
v -0.01892 1.64728 8.00061
v -0.02931 1.61432 7.99854
v -0.00641 1.65014 8.03029
v 0.00103 1.62574 7.93884
v 0.00843 1.52524 7.76163
v -0.03874 1.51925 7.76474
v 0.00103 1.62574 7.93884
v -0.03874 1.51925 7.76474
v -0.03115 1.63752 7.96377
v -0.03874 1.51925 7.76474
v -0.01700 1.51492 7.63837
v -0.04039 1.50412 7.62997
v -0.03874 1.51925 7.76474
v -0.04015 1.57368 7.86670
v -0.03115 1.63752 7.96377
v -0.03874 1.51925 7.76474
v -0.03624 1.60321 7.94814
v -0.04015 1.57368 7.86670
v -0.03874 1.51925 7.76474
v -0.04039 1.50412 7.62997
v -0.03692 1.45136 7.63126
v -0.03874 1.51925 7.76474
v -0.03692 1.45136 7.63126
v -0.03650 1.54165 7.88155
v -0.03874 1.51925 7.76474
v -0.03650 1.54165 7.88155
v -0.03624 1.60321 7.94814
v -0.03692 1.45136 7.63126
v -0.03564 1.47377 7.80234
v -0.03650 1.54165 7.88155
v -0.03692 1.45136 7.63126
v -0.03837 1.51994 7.48760
v 0.00862 1.46447 7.46304
v -0.03692 1.45136 7.63126
v -0.03133 1.44767 7.78799
v -0.03564 1.47377 7.80234
v -0.03692 1.45136 7.63126
v 0.00862 1.46447 7.46304
v -0.01021 1.40035 7.62743
v -0.03692 1.45136 7.63126
v -0.01021 1.40035 7.62743
v -0.01961 1.42097 7.80079
v -0.03692 1.45136 7.63126
v -0.01961 1.42097 7.80079
v -0.03133 1.44767 7.78799
v -0.01021 1.40035 7.62743
v 0.00862 1.46447 7.46304
v 0.02107 1.46899 7.46351
v -0.01021 1.40035 7.62743
v -0.00349 1.43718 7.79118
v -0.01961 1.42097 7.80079
v -0.01021 1.40035 7.62743
v 0.02107 1.46899 7.46351
v 0.02460 1.50730 7.43388
v -0.01021 1.40035 7.62743
v 0.01956 1.49029 7.82420
v -0.00349 1.43718 7.79118
v -0.01021 1.40035 7.62743
v 0.02460 1.50730 7.43388
v 0.01287 1.45944 7.60078
v -0.01021 1.40035 7.62743
v 0.01287 1.45944 7.60078
v 0.01956 1.49029 7.82420
v 0.01287 1.45944 7.60078
v 0.01844 1.48952 7.55542
v 0.01584 1.48816 7.77255
v 0.01287 1.45944 7.60078
v 0.01584 1.48816 7.77255
v 0.01956 1.49029 7.82420
v 0.01844 1.48952 7.55542
v 0.02065 1.51679 7.63193
v 0.01875 1.52392 7.77328
v 0.01844 1.48952 7.55542
v 0.01875 1.52392 7.77328
v 0.01584 1.48816 7.77255
v 0.02065 1.51679 7.63193
v 0.00843 1.52524 7.76163
v 0.01875 1.52392 7.77328
v 0.02065 1.51679 7.63193
v 0.02845 1.66806 7.36795
v -0.01226 1.56264 7.50561
v 0.02065 1.51679 7.63193
v -0.01226 1.56264 7.50561
v -0.01700 1.51492 7.63837
v 0.02065 1.51679 7.63193
v -0.01700 1.51492 7.63837
v -0.03874 1.51925 7.76474
v 0.02065 1.51679 7.63193
v -0.03874 1.51925 7.76474
v 0.00843 1.52524 7.76163
v -0.01226 1.56264 7.50561
v 0.02845 1.66806 7.36795
v -0.05071 1.63602 7.36537
v -0.01226 1.56264 7.50561
v -0.04039 1.50412 7.62997
v -0.01700 1.51492 7.63837
v -0.01226 1.56264 7.50561
v -0.05071 1.63602 7.36537
v -0.03837 1.51994 7.48760
v -0.01226 1.56264 7.50561
v -0.03837 1.51994 7.48760
v -0.04039 1.50412 7.62997
v -0.03837 1.51994 7.48760
v -0.05071 1.63602 7.36537
v -0.06782 1.65892 7.30411
v -0.03837 1.51994 7.48760
v -0.03692 1.45136 7.63126
v -0.04039 1.50412 7.62997
v -0.06782 1.65892 7.30411
v -0.05683 1.59439 7.31202
v -0.03837 1.51994 7.48760
v -0.05683 1.59439 7.31202
v -0.05361 1.62149 7.24859
v 0.00862 1.46447 7.46304
v -0.05683 1.59439 7.31202
v 0.00862 1.46447 7.46304
v -0.03837 1.51994 7.48760
v -0.05361 1.62149 7.24859
v 0.01516 1.50940 7.39520
v 0.00862 1.46447 7.46304
v 0.01516 1.50940 7.39520
v -0.05361 1.62149 7.24859
v 0.03889 1.73315 7.10141
v 0.01516 1.50940 7.39520
v 0.02107 1.46899 7.46351
v 0.00862 1.46447 7.46304
v 0.01516 1.50940 7.39520
v 0.03889 1.73315 7.10141
v 0.07741 1.75450 7.09978
v 0.01516 1.50940 7.39520
v 0.07741 1.75450 7.09978
v 0.02460 1.50730 7.43388
v 0.01516 1.50940 7.39520
v 0.02460 1.50730 7.43388
v 0.02107 1.46899 7.46351
v 0.02460 1.50730 7.43388
v 0.07741 1.75450 7.09978
v 0.06992 1.82222 7.17375
v 0.02460 1.50730 7.43388
v 0.06992 1.82222 7.17375
v 0.01844 1.48952 7.55542
v 0.02460 1.50730 7.43388
v 0.01844 1.48952 7.55542
v 0.01287 1.45944 7.60078
v 0.06992 1.82222 7.17375
v 0.04153 1.66912 7.37221
v 0.01844 1.48952 7.55542
v 0.04153 1.66912 7.37221
v 0.06992 1.82222 7.17375
v 0.05483 1.87047 7.20064
v 0.04153 1.66912 7.37221
v 0.02065 1.51679 7.63193
v 0.01844 1.48952 7.55542
v 0.04153 1.66912 7.37221
v 0.05483 1.87047 7.20064
v 0.02845 1.66806 7.36795
v 0.04153 1.66912 7.37221
v 0.02845 1.66806 7.36795
v 0.02065 1.51679 7.63193
v 0.05483 1.87047 7.20064
v 0.08841 2.07800 7.05342
v 0.03565 2.31783 6.92720
v 0.05483 1.87047 7.20064
v 0.03565 2.31783 6.92720
v -0.00748 1.89113 7.20180
v 0.05483 1.87047 7.20064
v -0.00748 1.89113 7.20180
v 0.02845 1.66806 7.36795
v -0.00748 1.89113 7.20180
v -0.06916 2.01248 7.11225
v -0.05071 1.63602 7.36537
v -0.00748 1.89113 7.20180
v -0.05071 1.63602 7.36537
v 0.02845 1.66806 7.36795
v -0.06916 2.01248 7.11225
v -0.10186 1.97041 7.08609
v -0.05071 1.63602 7.36537
v -0.10186 1.97041 7.08609
v -0.17471 2.21061 6.80995
v -0.06782 1.65892 7.30411
v -0.10186 1.97041 7.08609
v -0.06782 1.65892 7.30411
v -0.05071 1.63602 7.36537
v -0.17471 2.21061 6.80995
v -0.17886 2.14377 6.78217
v -0.06782 1.65892 7.30411
v -0.17886 2.14377 6.78217
v -0.15076 2.07881 6.73591
v -0.05683 1.59439 7.31202
v -0.17886 2.14377 6.78217
v -0.05683 1.59439 7.31202
v -0.06782 1.65892 7.30411
v -0.15076 2.07881 6.73591
v -0.11581 2.03237 6.66531
v -0.05361 1.62149 7.24859
v -0.15076 2.07881 6.73591
v -0.05361 1.62149 7.24859
v -0.05683 1.59439 7.31202
v -0.11581 2.03237 6.66531
v -0.05404 1.99772 6.65207
v -0.05361 1.62149 7.24859
v -0.05404 1.99772 6.65207
v 0.02877 1.96751 6.69454
v 0.03889 1.73315 7.10141
v -0.05404 1.99772 6.65207
v 0.03889 1.73315 7.10141
v -0.05361 1.62149 7.24859
v 0.02877 1.96751 6.69454
v 0.09537 2.00098 6.67067
v 0.03889 1.73315 7.10141
v 0.09537 2.00098 6.67067
v 0.10841 1.91418 6.89491
v 0.07741 1.75450 7.09978
v 0.09537 2.00098 6.67067
v 0.07741 1.75450 7.09978
v 0.03889 1.73315 7.10141
v 0.10841 1.91418 6.89491
v 0.09537 2.00098 6.67067
v 0.16928 2.09733 6.78738
v 0.10841 1.91418 6.89491
v 0.16928 2.09733 6.78738
v 0.07741 1.75450 7.09978
v 0.16928 2.09733 6.78738
v 0.12060 2.15997 6.91710
v 0.06992 1.82222 7.17375
v 0.16928 2.09733 6.78738
v 0.06992 1.82222 7.17375
v 0.07741 1.75450 7.09978
v 0.12060 2.15997 6.91710
v 0.10010 2.31319 6.86368
v 0.08841 2.07800 7.05342
v 0.12060 2.15997 6.91710
v 0.08841 2.07800 7.05342
v 0.05483 1.87047 7.20064
v 0.12060 2.15997 6.91710
v 0.05483 1.87047 7.20064
v 0.06992 1.82222 7.17375
v 0.10010 2.31319 6.86368
v 0.12060 2.15997 6.91710
v 0.14186 2.52675 6.61975
v 0.10010 2.31319 6.86368
v 0.14186 2.52675 6.61975
v 0.04977 2.58124 6.64267
v 0.10010 2.31319 6.86368
v 0.04977 2.58124 6.64267
v 0.03565 2.31783 6.92720
v 0.10010 2.31319 6.86368
v 0.03565 2.31783 6.92720
v 0.08841 2.07800 7.05342
v 0.03565 2.31783 6.92720
v 0.04977 2.58124 6.64267
v -0.04350 2.59246 6.65043
v 0.03565 2.31783 6.92720
v -0.04350 2.59246 6.65043
v -0.03138 2.36034 6.90669
v 0.03565 2.31783 6.92720
v -0.03138 2.36034 6.90669
v -0.00748 1.89113 7.20180
v -0.03138 2.36034 6.90669
v -0.04350 2.59246 6.65043
v -0.11435 2.53717 6.67919
v -0.03138 2.36034 6.90669
v -0.11435 2.53717 6.67919
v -0.06916 2.01248 7.11225
v -0.03138 2.36034 6.90669
v -0.06916 2.01248 7.11225
v -0.00748 1.89113 7.20180
v -0.11435 2.53717 6.67919
v -0.17076 2.49197 6.59463
v -0.17471 2.21061 6.80995
v -0.11435 2.53717 6.67919
v -0.17471 2.21061 6.80995
v -0.10186 1.97041 7.08609
v -0.11435 2.53717 6.67919
v -0.10186 1.97041 7.08609
v -0.06916 2.01248 7.11225
v -0.17076 2.49197 6.59463
v -0.11435 2.53717 6.67919
v -0.14227 2.75444 6.30481
v -0.17076 2.49197 6.59463
v -0.14227 2.75444 6.30481
v -0.20947 2.67587 6.27077
v -0.17076 2.49197 6.59463
v -0.20947 2.67587 6.27077
v -0.22971 2.47971 6.43518
v -0.17076 2.49197 6.59463
v -0.22971 2.47971 6.43518
v -0.17471 2.21061 6.80995
v -0.22971 2.47971 6.43518
v -0.23236 2.28625 6.51227
v -0.17886 2.14377 6.78217
v -0.22971 2.47971 6.43518
v -0.17886 2.14377 6.78217
v -0.17471 2.21061 6.80995
v -0.23236 2.28625 6.51227
v -0.15076 2.07881 6.73591
v -0.17886 2.14377 6.78217
v -0.23236 2.28625 6.51227
v -0.14996 2.13978 6.43086
v -0.11581 2.03237 6.66531
v -0.23236 2.28625 6.51227
v -0.11581 2.03237 6.66531
v -0.15076 2.07881 6.73591
v -0.14996 2.13978 6.43086
v -0.05994 2.08944 6.39345
v -0.05404 1.99772 6.65207
v -0.14996 2.13978 6.43086
v -0.05404 1.99772 6.65207
v -0.11581 2.03237 6.66531
v -0.05994 2.08944 6.39345
v 0.03666 2.08788 6.38498
v 0.02877 1.96751 6.69454
v -0.05994 2.08944 6.39345
v 0.02877 1.96751 6.69454
v -0.05404 1.99772 6.65207
v 0.03666 2.08788 6.38498
v 0.12168 2.13660 6.41192
v 0.09537 2.00098 6.67067
v 0.03666 2.08788 6.38498
v 0.09537 2.00098 6.67067
v 0.02877 1.96751 6.69454
v 0.12168 2.13660 6.41192
v 0.22448 2.34122 6.40030
v 0.16928 2.09733 6.78738
v 0.12168 2.13660 6.41192
v 0.16928 2.09733 6.78738
v 0.09537 2.00098 6.67067
v 0.22448 2.34122 6.40030
v 0.23268 2.42450 6.47855
v 0.16928 2.09733 6.78738
v 0.23268 2.42450 6.47855
v 0.21897 2.66479 6.15291
v 0.14186 2.52675 6.61975
v 0.23268 2.42450 6.47855
v 0.14186 2.52675 6.61975
v 0.12060 2.15997 6.91710
v 0.23268 2.42450 6.47855
v 0.12060 2.15997 6.91710
v 0.16928 2.09733 6.78738
v 0.13001 2.80295 6.15366
v 0.05858 2.77942 6.31317
v 0.04977 2.58124 6.64267
v 0.13001 2.80295 6.15366
v 0.04977 2.58124 6.64267
v 0.14186 2.52675 6.61975
v 0.05858 2.77942 6.31317
v -0.04480 2.79039 6.31903
v -0.04350 2.59246 6.65043
v 0.05858 2.77942 6.31317
v -0.04350 2.59246 6.65043
v 0.04977 2.58124 6.64267
v -0.04480 2.79039 6.31903
v -0.14227 2.75444 6.30481
v -0.11435 2.53717 6.67919
v -0.04480 2.79039 6.31903
v -0.11435 2.53717 6.67919
v -0.04350 2.59246 6.65043
v 0.01956 1.49029 7.82420
v 0.01193 1.54721 7.95061
v -0.00349 1.43718 7.79118
v -0.00654 1.59688 8.01380
v -0.01171 1.61850 8.03334
v -0.02322 1.59193 8.01710
v -0.00654 1.59688 8.01380
v -0.00011 1.63301 8.03933
v -0.01171 1.61850 8.03334
v -0.03650 1.54165 7.88155
v -0.02931 1.61432 7.99854
v -0.03624 1.60321 7.94814
v -0.02931 1.61432 7.99854
v -0.02938 1.63800 7.98819
v -0.03624 1.60321 7.94814
v 0.01275 1.63633 8.02237
v 0.00634 1.65144 8.02302
v -0.00011 1.63301 8.03933
vt 0.00240 0.57615
vt 0.00748 0.57410
vt 0.00417 0.57643
vt 0.00416 0.57635
vt 0.00172 0.57710
vt 0.00243 0.57636
vt 0.20860 0.71835
vt 0.20851 0.71586
vt 0.20883 0.71363
vt 0.00280 0.57942
vt 0.00281 0.57892
vt 0.00522 0.57823
vt 0.00280 0.57942
vt 0.00522 0.57823
vt 0.00557 0.57898
vt 0.20996 0.72041
vt 0.20952 0.71845
vt 0.21097 0.71823
vt 0.35575 0.48988
vt 0.35366 0.48884
vt 0.35549 0.48909
vt 0.35365 0.48882
vt 0.35224 0.48713
vt 0.35475 0.48737
vt 0.35367 0.48885
vt 0.35477 0.48739
vt 0.35622 0.48887
vt 0.35368 0.48864
vt 0.35618 0.48915
vt 0.35554 0.48918
vt 0.21068 0.81003
vt 0.21122 0.81054
vt 0.21156 0.81198
vt 0.21068 0.81003
vt 0.21156 0.81198
vt 0.21134 0.81168
vt 0.21015 0.72115
vt 0.20993 0.72041
vt 0.21069 0.72089
vt 0.00002 0.57878
vt 0.00131 0.57950
vt 0.00047 0.57962
vt 0.00126 0.57955
vt 0.00006 0.57873
vt 0.00276 0.57943
vt 0.00006 0.57873
vt 0.00240 0.57809
vt 0.00279 0.57892
vt 0.00004 0.57872
vt 0.00281 0.57892
vt 0.00278 0.57944
vt 0.00240 0.57810
vt 0.00522 0.57823
vt 0.00281 0.57892
vt 0.00241 0.57807
vt 0.00836 0.57552
vt 0.01313 0.57434
vt 0.00241 0.57808
vt 0.01313 0.57434
vt 0.00521 0.57824
vt 0.01311 0.57436
vt 0.01451 0.57457
vt 0.01523 0.57589
vt 0.01310 0.57437
vt 0.01523 0.57589
vt 0.00794 0.57860
vt 0.01311 0.57436
vt 0.00794 0.57860
vt 0.00557 0.57898
vt 0.01313 0.57434
vt 0.00555 0.57899
vt 0.00521 0.57824
vt 0.20891 0.71356
vt 0.20951 0.70702
vt 0.21042 0.70752
vt 0.20888 0.71350
vt 0.21042 0.70752
vt 0.21052 0.71496
vt 0.21051 0.71498
vt 0.20952 0.71845
vt 0.20869 0.71838
vt 0.21049 0.71504
vt 0.20875 0.71819
vt 0.20881 0.71364
vt 0.35033 0.48760
vt 0.34547 0.48342
vt 0.35357 0.48899
vt 0.21051 0.71498
vt 0.21097 0.71824
vt 0.20953 0.71844
vt 0.34553 0.48333
vt 0.35224 0.48713
vt 0.35366 0.48885
vt 0.34554 0.48327
vt 0.34451 0.48111
vt 0.34611 0.48057
vt 0.34553 0.48333
vt 0.34610 0.48054
vt 0.35476 0.48743
vt 0.34554 0.48334
vt 0.35476 0.48738
vt 0.35224 0.48713
vt 0.34611 0.48057
vt 0.34596 0.47991
vt 0.35359 0.48564
vt 0.34610 0.48057
vt 0.35359 0.48564
vt 0.35480 0.48733
vt 0.21145 0.80857
vt 0.21124 0.81052
vt 0.21074 0.81000
vt 0.21145 0.80860
vt 0.21234 0.81085
vt 0.21125 0.81056
vt 0.21213 0.81099
vt 0.21169 0.81201
vt 0.21139 0.81046
vt 0.21234 0.81085
vt 0.21146 0.80858
vt 0.21297 0.80953
vt 0.21234 0.81085
vt 0.21284 0.80962
vt 0.21283 0.81056
vt 0.00099 0.57750
vt 0.00172 0.57710
vt 0.00239 0.57809
vt 0.21234 0.81085
vt 0.21276 0.81151
vt 0.21172 0.81202
vt 0.72234 0.77620
vt 0.72220 0.76869
vt 0.72434 0.76920
vt 0.72240 0.77610
vt 0.72422 0.76935
vt 0.72374 0.77757
vt 0.35531 0.70593
vt 0.35412 0.70058
vt 0.35523 0.70042
vt 0.72433 0.76913
vt 0.72440 0.77327
vt 0.72380 0.77754
vt 0.01229 0.57176
vt 0.00420 0.57636
vt 0.00748 0.57410
vt 0.01230 0.57175
vt 0.01640 0.56715
vt 0.01845 0.56862
vt 0.01229 0.57176
vt 0.01846 0.56859
vt 0.00836 0.57552
vt 0.01229 0.57176
vt 0.00836 0.57552
vt 0.00420 0.57636
vt 0.01845 0.56861
vt 0.01312 0.57435
vt 0.00836 0.57550
vt 0.01841 0.56863
vt 0.01983 0.56156
vt 0.02205 0.56290
vt 0.01842 0.56865
vt 0.01451 0.57457
vt 0.01314 0.57434
vt 0.01841 0.56865
vt 0.02221 0.56282
vt 0.02062 0.57013
vt 0.01842 0.56864
vt 0.02059 0.57019
vt 0.01526 0.57589
vt 0.01840 0.56866
vt 0.01526 0.57587
vt 0.01451 0.57457
vt 0.33805 0.47608
vt 0.33772 0.46836
vt 0.33813 0.46834
vt 0.33805 0.47608
vt 0.34260 0.48252
vt 0.34195 0.48311
vt 0.33802 0.47620
vt 0.33813 0.46834
vt 0.33928 0.46654
vt 0.33812 0.47600
vt 0.34544 0.48341
vt 0.34260 0.48252
vt 0.33802 0.47620
vt 0.33928 0.46654
vt 0.34020 0.47409
vt 0.33801 0.47613
vt 0.34015 0.47427
vt 0.34552 0.48333
vt 0.34016 0.47426
vt 0.34067 0.47190
vt 0.34452 0.48108
vt 0.34016 0.47426
vt 0.34451 0.48111
vt 0.34556 0.48325
vt 0.34067 0.47191
vt 0.34325 0.47472
vt 0.34611 0.48056
vt 0.34068 0.47190
vt 0.34611 0.48056
vt 0.34451 0.48111
vt 0.35233 0.70028
vt 0.35311 0.70564
vt 0.35265 0.70620
vt 0.35241 0.70028
vt 0.35193 0.68579
vt 0.35370 0.69389
vt 0.35241 0.70026
vt 0.35389 0.69387
vt 0.35412 0.70058
vt 0.35236 0.70020
vt 0.35412 0.70060
vt 0.35535 0.70588
vt 0.35233 0.70030
vt 0.35535 0.70579
vt 0.35310 0.70570
vt 0.35390 0.69391
vt 0.35184 0.68578
vt 0.35564 0.68634
vt 0.35373 0.69392
vt 0.35527 0.70042
vt 0.35412 0.70058
vt 0.01707 0.56157
vt 0.01805 0.55397
vt 0.01927 0.56153
vt 0.01712 0.56158
vt 0.01919 0.56138
vt 0.01655 0.56733
vt 0.01942 0.56161
vt 0.01806 0.55387
vt 0.01873 0.55087
vt 0.01940 0.56164
vt 0.01844 0.56863
vt 0.01642 0.56713
vt 0.01873 0.55087
vt 0.02108 0.55295
vt 0.01942 0.56161
vt 0.02111 0.55295
vt 0.02186 0.54995
vt 0.02223 0.56288
vt 0.02109 0.55295
vt 0.02205 0.56291
vt 0.01983 0.56155
vt 0.70429 0.83947
vt 0.70614 0.84713
vt 0.70594 0.85079
vt 0.70648 0.84722
vt 0.70381 0.83924
vt 0.70882 0.83172
vt 0.70637 0.84729
vt 0.70650 0.85079
vt 0.70613 0.85068
vt 0.70657 0.84715
vt 0.70884 0.83174
vt 0.71073 0.83160
vt 0.70647 0.84725
vt 0.71078 0.83161
vt 0.70688 0.84910
vt 0.33867 0.46480
vt 0.33929 0.46646
vt 0.33813 0.46834
vt 0.33929 0.46643
vt 0.34422 0.44875
vt 0.34854 0.45062
vt 0.33928 0.46652
vt 0.34855 0.45056
vt 0.34068 0.47188
vt 0.33929 0.46650
vt 0.34069 0.47184
vt 0.34018 0.47421
vt 0.34853 0.45044
vt 0.34534 0.46130
vt 0.34069 0.47198
vt 0.34528 0.46118
vt 0.34856 0.45065
vt 0.35118 0.45078
vt 0.34535 0.46128
vt 0.34326 0.47470
vt 0.34068 0.47189
vt 0.35126 0.68597
vt 0.35081 0.67427
vt 0.35185 0.68591
vt 0.35126 0.68595
vt 0.35138 0.68588
vt 0.35278 0.70020
vt 0.35032 0.67482
vt 0.34938 0.66368
vt 0.35255 0.65282
vt 0.35078 0.67438
vt 0.35214 0.65352
vt 0.35381 0.67387
vt 0.35088 0.67449
vt 0.35353 0.67356
vt 0.35190 0.68582
vt 0.35377 0.67379
vt 0.35682 0.66740
vt 0.35561 0.68645
vt 0.35371 0.67384
vt 0.35557 0.68630
vt 0.35191 0.68582
vt 0.00995 0.53478
vt 0.01210 0.53435
vt 0.01799 0.55395
vt 0.01205 0.53433
vt 0.00989 0.51686
vt 0.01870 0.55082
vt 0.01205 0.53433
vt 0.01869 0.55081
vt 0.01801 0.55395
vt 0.00994 0.51687
vt 0.01334 0.51750
vt 0.01875 0.55083
vt 0.01328 0.51753
vt 0.01698 0.51794
vt 0.02108 0.55295
vt 0.01335 0.51748
vt 0.02098 0.55302
vt 0.01873 0.55085
vt 0.01690 0.51799
vt 0.02054 0.51712
vt 0.02185 0.54986
vt 0.01694 0.51796
vt 0.02166 0.54998
vt 0.02111 0.55294
vt 0.70296 0.80830
vt 0.70606 0.80830
vt 0.70440 0.83981
vt 0.70605 0.80819
vt 0.70983 0.81068
vt 0.70885 0.83190
vt 0.70607 0.80844
vt 0.70882 0.83176
vt 0.70379 0.83954
vt 0.70981 0.81096
vt 0.71315 0.80960
vt 0.70886 0.83161
vt 0.71291 0.80961
vt 0.71304 0.82083
vt 0.71077 0.83161
vt 0.71330 0.80946
vt 0.71076 0.83158
vt 0.70883 0.83175
vt 0.34760 0.43767
vt 0.34740 0.42648
vt 0.35363 0.43082
vt 0.34760 0.43767
vt 0.35359 0.43086
vt 0.34447 0.44855
vt 0.35368 0.43056
vt 0.35886 0.43457
vt 0.34855 0.45064
vt 0.35374 0.43085
vt 0.34854 0.45062
vt 0.34422 0.44877
vt 0.35875 0.43433
vt 0.36469 0.42943
vt 0.35769 0.44137
vt 0.35886 0.43460
vt 0.35769 0.44137
vt 0.35119 0.45082
vt 0.35885 0.43457
vt 0.35119 0.45081
vt 0.34856 0.45066
vt 0.36469 0.42943
vt 0.35904 0.43479
vt 0.36974 0.41593
vt 0.34902 0.65059
vt 0.34707 0.63568
vt 0.35163 0.63545
vt 0.34902 0.65059
vt 0.35163 0.63545
vt 0.35201 0.65325
vt 0.34902 0.65059
vt 0.35223 0.65316
vt 0.34978 0.66343
vt 0.35217 0.65324
vt 0.35163 0.63545
vt 0.35611 0.63551
vt 0.35215 0.65325
vt 0.35611 0.63551
vt 0.35544 0.65139
vt 0.35223 0.65304
vt 0.35544 0.65139
vt 0.35373 0.67417
vt 0.35544 0.65139
vt 0.35611 0.63551
vt 0.35929 0.63780
vt 0.35544 0.65139
vt 0.35989 0.63817
vt 0.35716 0.66771
vt 0.35573 0.65188
vt 0.35685 0.66753
vt 0.35379 0.67393
vt 0.00022 0.50485
vt 0.00427 0.50190
vt 0.00993 0.51688
vt -0.00018 0.50477
vt 0.00994 0.51688
vt 0.01217 0.53436
vt -0.00015 0.50477
vt 0.01211 0.53435
vt 0.00960 0.53479
vt 0.00427 0.50190
vt -0.00003 0.50474
vt 0.00119 0.48508
vt 0.00427 0.50190
vt 0.00119 0.48508
vt 0.00546 0.48469
vt 0.00427 0.50190
vt 0.00546 0.48469
vt 0.00928 0.49556
vt 0.00427 0.50190
vt 0.00895 0.49528
vt 0.00991 0.51687
vt 0.00906 0.49528
vt 0.01483 0.50304
vt 0.01334 0.51750
vt 0.00911 0.49531
vt 0.01334 0.51749
vt 0.00994 0.51689
vt 0.01470 0.50312
vt 0.01700 0.51793
vt 0.01330 0.51750
vt 0.01512 0.50301
vt 0.02236 0.50522
vt 0.02050 0.51712
vt 0.01508 0.50301
vt 0.02050 0.51712
vt 0.01698 0.51793
vt 0.70239 0.79655
vt 0.70663 0.79543
vt 0.70611 0.80833
vt 0.70239 0.79655
vt 0.70611 0.80833
vt 0.70330 0.80853
vt 0.70663 0.79543
vt 0.71124 0.79531
vt 0.70986 0.81079
vt 0.70663 0.79543
vt 0.70988 0.81081
vt 0.70609 0.80832
vt 0.71121 0.79532
vt 0.71543 0.79639
vt 0.71310 0.80959
vt 0.71123 0.79531
vt 0.71307 0.80961
vt 0.70982 0.81079
vt 0.34874 0.41351
vt 0.35785 0.41069
vt 0.35367 0.43081
vt 0.34882 0.41347
vt 0.35378 0.43074
vt 0.34738 0.42650
vt 0.35760 0.41078
vt 0.36262 0.41292
vt 0.35397 0.43031
vt 0.36253 0.41276
vt 0.36750 0.39476
vt 0.36989 0.41606
vt 0.36274 0.41299
vt 0.36986 0.41609
vt 0.35899 0.43476
vt 0.36262 0.41292
vt 0.35858 0.43515
vt 0.35397 0.43031
vt 0.34735 0.60990
vt 0.35113 0.61716
vt 0.35163 0.63545
vt 0.34753 0.60987
vt 0.35163 0.63545
vt 0.34704 0.63566
vt 0.35113 0.61716
vt 0.35609 0.61714
vt 0.35611 0.63551
vt 0.35113 0.61716
vt 0.35611 0.63551
vt 0.35163 0.63545
vt 0.35609 0.61714
vt 0.36065 0.61726
vt 0.35947 0.63789
vt 0.35609 0.61714
vt 0.35948 0.63789
vt 0.35611 0.63551
vt 0.21177 0.71013
vt 0.21057 0.71485
vt 0.21032 0.70774
vt 0.20952 0.71845
vt 0.20934 0.71981
vt 0.20868 0.71842
vt 0.20952 0.71845
vt 0.20995 0.72040
vt 0.20933 0.71976
vt 0.00836 0.57552
vt 0.00241 0.57807
vt 0.00417 0.57642
vt 0.00240 0.57810
vt 0.00172 0.57710
vt 0.00417 0.57643
vt 0.21078 0.72017
vt 0.21069 0.72089
vt 0.20993 0.72041
vn -0.6226 0.7538 -0.2101
vn -0.9808 0.1680 -0.0994
vn -0.9959 -0.0142 0.0889
vn -0.9959 -0.0142 0.0889
vn -0.8902 0.4015 0.2150
vn -0.6226 0.7538 -0.2101
vn -0.4629 -0.4656 0.7543
vn -0.5553 -0.5818 0.5942
vn -0.2238 -0.8086 0.5441
vn -0.4629 -0.4656 0.7543
vn -0.9498 -0.0362 0.3107
vn -0.9911 -0.0808 0.1059
vn -0.4629 -0.4656 0.7543
vn -0.9911 -0.0808 0.1059
vn -0.5553 -0.5818 0.5942
vn 0.1886 0.0116 0.9820
vn 0.4073 -0.6161 0.6742
vn 0.8956 -0.2401 0.3745
vn 0.1886 0.0116 0.9820
vn 0.8956 -0.2401 0.3745
vn 0.9492 0.1807 0.2574
vn 0.8956 -0.2401 0.3745
vn 0.9919 0.1030 -0.0740
vn 0.8089 0.5638 -0.1665
vn 0.8956 -0.2401 0.3745
vn 0.8089 0.5638 -0.1665
vn 0.4460 0.8844 0.1373
vn 0.8956 -0.2401 0.3745
vn 0.4460 0.8844 0.1373
vn 0.9492 0.1807 0.2574
vn 0.8089 0.5638 -0.1665
vn 0.4809 0.8754 -0.0491
vn -0.3357 0.7587 0.5583
vn 0.8089 0.5638 -0.1665
vn -0.3357 0.7587 0.5583
vn 0.4460 0.8844 0.1373
vn -0.3357 0.7587 0.5583
vn 0.1886 0.0116 0.9820
vn 0.4460 0.8844 0.1373
vn -0.3357 0.7587 0.5583
vn -0.4318 -0.2678 0.8613
vn 0.1886 0.0116 0.9820
vn -0.4318 -0.2678 0.8613
vn -0.3357 0.7587 0.5583
vn -0.4629 -0.4656 0.7543
vn -0.3357 0.7587 0.5583
vn -0.9561 0.0738 0.2835
vn -0.9498 -0.0362 0.3107
vn -0.3357 0.7587 0.5583
vn -0.9498 -0.0362 0.3107
vn -0.4629 -0.4656 0.7543
vn -0.9561 0.0738 0.2835
vn -0.9911 -0.0808 0.1059
vn -0.9498 -0.0362 0.3107
vn -0.9561 0.0738 0.2835
vn -0.9792 -0.1560 0.1296
vn -0.9819 -0.1624 0.0978
vn -0.9561 0.0738 0.2835
vn -0.9819 -0.1624 0.0978
vn -0.9911 -0.0808 0.1059
vn -0.9819 -0.1624 0.0978
vn -0.9515 -0.2891 0.1053
vn -0.1607 -0.9170 0.3652
vn -0.9819 -0.1624 0.0978
vn -0.1607 -0.9170 0.3652
vn -0.2238 -0.8086 0.5441
vn -0.9819 -0.1624 0.0978
vn -0.2238 -0.8086 0.5441
vn -0.5553 -0.5818 0.5942
vn -0.9819 -0.1624 0.0978
vn -0.5553 -0.5818 0.5942
vn -0.9911 -0.0808 0.1059
vn -0.2238 -0.8086 0.5441
vn -0.1607 -0.9170 0.3652
vn 0.8170 -0.5477 0.1805
vn -0.2238 -0.8086 0.5441
vn 0.8170 -0.5477 0.1805
vn 0.7319 -0.5261 0.4331
vn 0.7319 -0.5261 0.4331
vn 0.4073 -0.6161 0.6742
vn -0.4629 -0.4656 0.7543
vn 0.7319 -0.5261 0.4331
vn -0.4629 -0.4656 0.7543
vn -0.2238 -0.8086 0.5441
vn 0.7319 -0.5261 0.4331
vn 0.9539 -0.2755 0.1194
vn 0.8956 -0.2401 0.3745
vn 0.7319 -0.5261 0.4331
vn 0.8956 -0.2401 0.3745
vn 0.4073 -0.6161 0.6742
vn 0.9539 -0.2755 0.1194
vn 0.9919 0.1030 -0.0740
vn 0.8956 -0.2401 0.3745
vn 0.9539 -0.2755 0.1194
vn 0.9871 0.1508 -0.0543
vn 0.8990 0.4014 -0.1752
vn 0.9539 -0.2755 0.1194
vn 0.8990 0.4014 -0.1752
vn 0.8089 0.5638 -0.1665
vn 0.9539 -0.2755 0.1194
vn 0.8089 0.5638 -0.1665
vn 0.9919 0.1030 -0.0740
vn 0.8990 0.4014 -0.1752
vn 0.0790 0.9716 -0.2231
vn 0.2625 0.8582 -0.4412
vn 0.8990 0.4014 -0.1752
vn 0.2625 0.8582 -0.4412
vn 0.8089 0.5638 -0.1665
vn 0.2625 0.8582 -0.4412
vn 0.4809 0.8754 -0.0491
vn 0.8089 0.5638 -0.1665
vn 0.2625 0.8582 -0.4412
vn -0.5695 0.8174 0.0869
vn 0.4809 0.8754 -0.0491
vn -0.5695 0.8174 0.0869
vn -0.3357 0.7587 0.5583
vn 0.4809 0.8754 -0.0491
vn -0.5695 0.8174 0.0869
vn 0.2625 0.8582 -0.4412
vn -0.6226 0.7538 -0.2101
vn -0.5695 0.8174 0.0869
vn -0.6226 0.7538 -0.2101
vn -0.8902 0.4015 0.2150
vn -0.5695 0.8174 0.0869
vn -0.8902 0.4015 0.2150
vn -0.9561 0.0738 0.2835
vn -0.5695 0.8174 0.0869
vn -0.9561 0.0738 0.2835
vn -0.3357 0.7587 0.5583
vn 0.2625 0.8582 -0.4412
vn 0.0790 0.9716 -0.2231
vn -0.8347 0.5274 -0.1587
vn 0.2625 0.8582 -0.4412
vn -0.8347 0.5274 -0.1587
vn -0.6226 0.7538 -0.2101
vn -0.8347 0.5274 -0.1587
vn -0.2372 0.9664 0.0987
vn -0.9014 0.4289 0.0588
vn -0.8347 0.5274 -0.1587
vn -0.9808 0.1680 -0.0994
vn -0.6226 0.7538 -0.2101
vn -0.8347 0.5274 -0.1587
vn -0.9959 -0.0142 0.0889
vn -0.9808 0.1680 -0.0994
vn -0.8347 0.5274 -0.1587
vn -0.9014 0.4289 0.0588
vn -0.9512 -0.2982 -0.0794
vn -0.8347 0.5274 -0.1587
vn -0.9512 -0.2982 -0.0794
vn -0.9792 -0.1560 0.1296
vn -0.8347 0.5274 -0.1587
vn -0.9792 -0.1560 0.1296
vn -0.9959 -0.0142 0.0889
vn -0.9512 -0.2982 -0.0794
vn -0.9819 -0.1624 0.0978
vn -0.9792 -0.1560 0.1296
vn -0.9512 -0.2982 -0.0794
vn -0.9911 -0.1327 -0.0060
vn -0.2404 -0.8847 -0.3994
vn -0.9512 -0.2982 -0.0794
vn -0.9515 -0.2891 0.1053
vn -0.9819 -0.1624 0.0978
vn -0.9512 -0.2982 -0.0794
vn -0.2404 -0.8847 -0.3994
vn 0.0294 -0.9898 -0.1396
vn -0.9512 -0.2982 -0.0794
vn 0.0294 -0.9898 -0.1396
vn -0.1607 -0.9170 0.3652
vn -0.9512 -0.2982 -0.0794
vn -0.1607 -0.9170 0.3652
vn -0.9515 -0.2891 0.1053
vn 0.0294 -0.9898 -0.1396
vn -0.2404 -0.8847 -0.3994
vn 0.8396 -0.5179 -0.1638
vn 0.0294 -0.9898 -0.1396
vn 0.8170 -0.5477 0.1805
vn -0.1607 -0.9170 0.3652
vn 0.0294 -0.9898 -0.1396
vn 0.8396 -0.5179 -0.1638
vn 0.9741 -0.2112 -0.0811
vn 0.0294 -0.9898 -0.1396
vn 0.9539 -0.2755 0.1194
vn 0.8170 -0.5477 0.1805
vn 0.0294 -0.9898 -0.1396
vn 0.9741 -0.2112 -0.0811
vn 0.9598 -0.2806 -0.0064
vn 0.0294 -0.9898 -0.1396
vn 0.9598 -0.2806 -0.0064
vn 0.9539 -0.2755 0.1194
vn 0.9598 -0.2806 -0.0064
vn 0.9915 -0.1278 0.0237
vn 0.9871 0.1508 -0.0543
vn 0.9598 -0.2806 -0.0064
vn 0.9871 0.1508 -0.0543
vn 0.9539 -0.2755 0.1194
vn 0.9915 -0.1278 0.0237
vn 0.7908 0.5933 0.1507
vn 0.8990 0.4014 -0.1752
vn 0.9915 -0.1278 0.0237
vn 0.8990 0.4014 -0.1752
vn 0.9871 0.1508 -0.0543
vn 0.7908 0.5933 0.1507
vn 0.0790 0.9716 -0.2231
vn 0.8990 0.4014 -0.1752
vn 0.7908 0.5933 0.1507
vn -0.2695 0.7056 0.6553
vn -0.6780 0.6470 0.3489
vn 0.7908 0.5933 0.1507
vn -0.6780 0.6470 0.3489
vn -0.2372 0.9664 0.0987
vn 0.7908 0.5933 0.1507
vn -0.2372 0.9664 0.0987
vn -0.8347 0.5274 -0.1587
vn 0.7908 0.5933 0.1507
vn -0.8347 0.5274 -0.1587
vn 0.0790 0.9716 -0.2231
vn -0.6780 0.6470 0.3489
vn -0.2695 0.7056 0.6553
vn -0.6950 0.4863 0.5297
vn -0.6780 0.6470 0.3489
vn -0.9014 0.4289 0.0588
vn -0.2372 0.9664 0.0987
vn -0.6780 0.6470 0.3489
vn -0.6950 0.4863 0.5297
vn -0.9911 -0.1327 -0.0060
vn -0.6780 0.6470 0.3489
vn -0.9911 -0.1327 -0.0060
vn -0.9014 0.4289 0.0588
vn -0.9911 -0.1327 -0.0060
vn -0.6950 0.4863 0.5297
vn -0.9830 -0.0220 0.1823
vn -0.9911 -0.1327 -0.0060
vn -0.9512 -0.2982 -0.0794
vn -0.9014 0.4289 0.0588
vn -0.9830 -0.0220 0.1823
vn -0.8690 -0.4683 -0.1598
vn -0.9911 -0.1327 -0.0060
vn -0.8690 -0.4683 -0.1598
vn -0.5009 -0.7263 -0.4708
vn -0.2404 -0.8847 -0.3994
vn -0.8690 -0.4683 -0.1598
vn -0.2404 -0.8847 -0.3994
vn -0.9911 -0.1327 -0.0060
vn -0.5009 -0.7263 -0.4708
vn 0.4104 -0.7709 -0.4871
vn -0.2404 -0.8847 -0.3994
vn 0.4104 -0.7709 -0.4871
vn -0.5009 -0.7263 -0.4708
vn 0.2735 -0.8074 -0.5229
vn 0.4104 -0.7709 -0.4871
vn 0.8396 -0.5179 -0.1638
vn -0.2404 -0.8847 -0.3994
vn 0.4104 -0.7709 -0.4871
vn 0.2735 -0.8074 -0.5229
vn 0.8429 -0.5030 -0.1910
vn 0.4104 -0.7709 -0.4871
vn 0.8429 -0.5030 -0.1910
vn 0.9741 -0.2112 -0.0811
vn 0.4104 -0.7709 -0.4871
vn 0.9741 -0.2112 -0.0811
vn 0.8396 -0.5179 -0.1638
vn 0.9741 -0.2112 -0.0811
vn 0.8429 -0.5030 -0.1910
vn 0.9741 0.0369 0.2230
vn 0.9741 -0.2112 -0.0811
vn 0.9741 0.0369 0.2230
vn 0.9915 -0.1278 0.0237
vn 0.9741 -0.2112 -0.0811
vn 0.9915 -0.1278 0.0237
vn 0.9598 -0.2806 -0.0064
vn 0.9741 0.0369 0.2230
vn 0.5751 0.5883 0.5684
vn 0.9915 -0.1278 0.0237
vn 0.5751 0.5883 0.5684
vn 0.9741 0.0369 0.2230
vn 0.6654 0.3983 0.6314
vn 0.5751 0.5883 0.5684
vn 0.7908 0.5933 0.1507
vn 0.9915 -0.1278 0.0237
vn 0.5751 0.5883 0.5684
vn 0.6654 0.3983 0.6314
vn -0.2695 0.7056 0.6553
vn 0.5751 0.5883 0.5684
vn -0.2695 0.7056 0.6553
vn 0.7908 0.5933 0.1507
vn 0.6654 0.3983 0.6314
vn 0.7662 0.2969 0.5699
vn 0.3734 0.5755 0.7276
vn 0.6654 0.3983 0.6314
vn 0.3734 0.5755 0.7276
vn 0.0238 0.5581 0.8294
vn 0.6654 0.3983 0.6314
vn 0.0238 0.5581 0.8294
vn -0.2695 0.7056 0.6553
vn 0.0238 0.5581 0.8294
vn -0.5449 0.4488 0.7082
vn -0.6950 0.4863 0.5297
vn 0.0238 0.5581 0.8294
vn -0.6950 0.4863 0.5297
vn -0.2695 0.7056 0.6553
vn -0.5449 0.4488 0.7082
vn -0.8569 0.2508 0.4503
vn -0.6950 0.4863 0.5297
vn -0.8569 0.2508 0.4503
vn -0.9228 0.1784 0.3414
vn -0.9830 -0.0220 0.1823
vn -0.8569 0.2508 0.4503
vn -0.9830 -0.0220 0.1823
vn -0.6950 0.4863 0.5297
vn -0.9228 0.1784 0.3414
vn -0.9836 -0.1663 0.0696
vn -0.9830 -0.0220 0.1823
vn -0.9836 -0.1663 0.0696
vn -0.9118 -0.3936 -0.1167
vn -0.8690 -0.4683 -0.1598
vn -0.9836 -0.1663 0.0696
vn -0.8690 -0.4683 -0.1598
vn -0.9830 -0.0220 0.1823
vn -0.9118 -0.3936 -0.1167
vn -0.7348 -0.6268 -0.2593
vn -0.5009 -0.7263 -0.4708
vn -0.9118 -0.3936 -0.1167
vn -0.5009 -0.7263 -0.4708
vn -0.8690 -0.4683 -0.1598
vn -0.7348 -0.6268 -0.2593
vn -0.3316 -0.8588 -0.3904
vn -0.5009 -0.7263 -0.4708
vn -0.3316 -0.8588 -0.3904
vn 0.0936 -0.8886 -0.4489
vn 0.2735 -0.8074 -0.5229
vn -0.3316 -0.8588 -0.3904
vn 0.2735 -0.8074 -0.5229
vn -0.5009 -0.7263 -0.4708
vn 0.0936 -0.8886 -0.4489
vn 0.6415 -0.7039 -0.3051
vn 0.2735 -0.8074 -0.5229
vn 0.6415 -0.7039 -0.3051
vn 0.8794 -0.4300 -0.2045
vn 0.8429 -0.5030 -0.1910
vn 0.6415 -0.7039 -0.3051
vn 0.8429 -0.5030 -0.1910
vn 0.2735 -0.8074 -0.5229
vn 0.8794 -0.4300 -0.2045
vn 0.6415 -0.7039 -0.3051
vn 0.9821 -0.1739 0.0717
vn 0.8794 -0.4300 -0.2045
vn 0.9821 -0.1739 0.0717
vn 0.8429 -0.5030 -0.1910
vn 0.9821 -0.1739 0.0717
vn 0.9266 0.1702 0.3353
vn 0.9741 0.0369 0.2230
vn 0.9821 -0.1739 0.0717
vn 0.9741 0.0369 0.2230
vn 0.8429 -0.5030 -0.1910
vn 0.9266 0.1702 0.3353
vn 0.7616 0.4148 0.4979
vn 0.7662 0.2969 0.5699
vn 0.9266 0.1702 0.3353
vn 0.7662 0.2969 0.5699
vn 0.6654 0.3983 0.6314
vn 0.9266 0.1702 0.3353
vn 0.6654 0.3983 0.6314
vn 0.9741 0.0369 0.2230
vn 0.7616 0.4148 0.4979
vn 0.9266 0.1702 0.3353
vn 0.7271 0.5195 0.4489
vn 0.7616 0.4148 0.4979
vn 0.7271 0.5195 0.4489
vn 0.3477 0.7472 0.5664
vn 0.7616 0.4148 0.4979
vn 0.3477 0.7472 0.5664
vn 0.3734 0.5755 0.7276
vn 0.7616 0.4148 0.4979
vn 0.3734 0.5755 0.7276
vn 0.7662 0.2969 0.5699
vn 0.3734 0.5755 0.7276
vn 0.3477 0.7472 0.5664
vn -0.1207 0.8049 0.5811
vn 0.3734 0.5755 0.7276
vn -0.1207 0.8049 0.5811
vn -0.2392 0.6323 0.7369
vn 0.3734 0.5755 0.7276
vn -0.2392 0.6323 0.7369
vn 0.0238 0.5581 0.8294
vn -0.2392 0.6323 0.7369
vn -0.1207 0.8049 0.5811
vn -0.6203 0.5826 0.5251
vn -0.2392 0.6323 0.7369
vn -0.6203 0.5826 0.5251
vn -0.5449 0.4488 0.7082
vn -0.2392 0.6323 0.7369
vn -0.5449 0.4488 0.7082
vn 0.0238 0.5581 0.8294
vn -0.6203 0.5826 0.5251
vn -0.8739 0.3470 0.3405
vn -0.9228 0.1784 0.3414
vn -0.6203 0.5826 0.5251
vn -0.9228 0.1784 0.3414
vn -0.8569 0.2508 0.4503
vn -0.6203 0.5826 0.5251
vn -0.8569 0.2508 0.4503
vn -0.5449 0.4488 0.7082
vn -0.8739 0.3470 0.3405
vn -0.6203 0.5826 0.5251
vn -0.5972 0.7183 0.3571
vn -0.8739 0.3470 0.3405
vn -0.5972 0.7183 0.3571
vn -0.8952 0.3915 0.2129
vn -0.8739 0.3470 0.3405
vn -0.8952 0.3915 0.2129
vn -0.9580 0.1976 0.2076
vn -0.8739 0.3470 0.3405
vn -0.9580 0.1976 0.2076
vn -0.9228 0.1784 0.3414
vn -0.9580 0.1976 0.2076
vn -0.9820 -0.1680 0.0868
vn -0.9836 -0.1663 0.0696
vn -0.9580 0.1976 0.2076
vn -0.9836 -0.1663 0.0696
vn -0.9228 0.1784 0.3414
vn -0.9820 -0.1680 0.0868
vn -0.9118 -0.3936 -0.1167
vn -0.9836 -0.1663 0.0696
vn -0.9820 -0.1680 0.0868
vn -0.7496 -0.6495 -0.1272
vn -0.7348 -0.6268 -0.2593
vn -0.9820 -0.1680 0.0868
vn -0.7348 -0.6268 -0.2593
vn -0.9118 -0.3936 -0.1167
vn -0.7496 -0.6495 -0.1272
vn -0.3092 -0.9249 -0.2213
vn -0.3316 -0.8588 -0.3904
vn -0.7496 -0.6495 -0.1272
vn -0.3316 -0.8588 -0.3904
vn -0.7348 -0.6268 -0.2593
vn -0.3092 -0.9249 -0.2213
vn 0.2554 -0.9385 -0.2324
vn 0.0936 -0.8886 -0.4489
vn -0.3092 -0.9249 -0.2213
vn 0.0936 -0.8886 -0.4489
vn -0.3316 -0.8588 -0.3904
vn 0.2554 -0.9385 -0.2324
vn 0.7508 -0.6414 -0.1579
vn 0.6415 -0.7039 -0.3051
vn 0.2554 -0.9385 -0.2324
vn 0.6415 -0.7039 -0.3051
vn 0.0936 -0.8886 -0.4489
vn 0.7508 -0.6414 -0.1579
vn 0.9612 -0.2758 0.0017
vn 0.9821 -0.1739 0.0717
vn 0.7508 -0.6414 -0.1579
vn 0.9821 -0.1739 0.0717
vn 0.6415 -0.7039 -0.3051
vn 0.9612 -0.2758 0.0017
vn 0.9714 0.1341 0.1958
vn 0.9821 -0.1739 0.0717
vn 0.9714 0.1341 0.1958
vn 0.8955 0.3987 0.1978
vn 0.7271 0.5195 0.4489
vn 0.9714 0.1341 0.1958
vn 0.7271 0.5195 0.4489
vn 0.9266 0.1702 0.3353
vn 0.9714 0.1341 0.1958
vn 0.9266 0.1702 0.3353
vn 0.9821 -0.1739 0.0717
vn 0.6974 0.6548 0.2913
vn 0.3930 0.8126 0.4304
vn 0.3477 0.7472 0.5664
vn 0.6974 0.6548 0.2913
vn 0.3477 0.7472 0.5664
vn 0.7271 0.5195 0.4489
vn 0.3930 0.8126 0.4304
vn -0.1311 0.8944 0.4277
vn -0.1207 0.8049 0.5811
vn 0.3930 0.8126 0.4304
vn -0.1207 0.8049 0.5811
vn 0.3477 0.7472 0.5664
vn -0.1311 0.8944 0.4277
vn -0.5972 0.7183 0.3571
vn -0.6203 0.5826 0.5251
vn -0.1311 0.8944 0.4277
vn -0.6203 0.5826 0.5251
vn -0.1207 0.8049 0.5811
vn 0.9539 -0.2755 0.1194
vn 0.7319 -0.5261 0.4331
vn 0.8170 -0.5477 0.1805
vn 0.4073 -0.6161 0.6742
vn -0.4318 -0.2678 0.8613
vn -0.4629 -0.4656 0.7543
vn 0.4073 -0.6161 0.6742
vn 0.1886 0.0116 0.9820
vn -0.4318 -0.2678 0.8613
vn -0.9792 -0.1560 0.1296
vn -0.9561 0.0738 0.2835
vn -0.9959 -0.0142 0.0889
vn -0.9561 0.0738 0.2835
vn -0.8902 0.4015 0.2150
vn -0.9959 -0.0142 0.0889
vn 0.9492 0.1807 0.2574
vn 0.4460 0.8844 0.1373
vn 0.1886 0.0116 0.9820
f 1/1/1 2/2/2 3/3/3
f 4/4/4 5/5/5 6/6/6
f 7/7/7 8/8/8 9/9/9
f 10/10/10 11/11/11 12/12/12
f 13/13/13 14/14/14 15/15/15
f 16/16/16 17/17/17 18/18/18
f 19/19/19 20/20/20 21/21/21
f 22/22/22 23/23/23 24/24/24
f 25/25/25 26/26/26 27/27/27
f 28/28/28 29/29/29 30/30/30
f 31/31/31 32/32/32 33/33/33
f 34/34/34 35/35/35 36/36/36
f 37/37/37 38/38/38 39/39/39
f 40/40/40 41/41/41 42/42/42
f 43/43/43 44/44/44 45/45/45
f 46/46/46 47/47/47 48/48/48
f 49/49/49 50/50/50 51/51/51
f 52/52/52 53/53/53 54/54/54
f 55/55/55 56/56/56 57/57/57
f 58/58/58 59/59/59 60/60/60
f 61/61/61 62/62/62 63/63/63
f 64/64/64 65/65/65 66/66/66
f 67/67/67 68/68/68 69/69/69
f 70/70/70 71/71/71 72/72/72
f 73/73/73 74/74/74 75/75/75
f 76/76/76 77/77/77 78/78/78
f 79/79/79 80/80/80 81/81/81
f 82/82/82 83/83/83 84/84/84
f 85/85/85 86/86/86 87/87/87
f 88/88/88 89/89/89 90/90/90
f 91/91/91 92/92/92 93/93/93
f 94/94/94 95/95/95 96/96/96
f 97/97/97 98/98/98 99/99/99
f 100/100/100 101/101/101 102/102/102
f 103/103/103 104/104/104 105/105/105
f 106/106/106 107/107/107 108/108/108
f 109/109/109 110/110/110 111/111/111
f 112/112/112 113/113/113 114/114/114
f 115/115/115 116/116/116 117/117/117
f 118/118/118 119/119/119 120/120/120
f 121/121/121 122/122/122 123/123/123
f 124/124/124 125/125/125 126/126/126
f 127/127/127 128/128/128 129/129/129
f 130/130/130 131/131/131 132/132/132
f 133/133/133 134/134/134 135/135/135
f 136/136/136 137/137/137 138/138/138
f 139/139/139 140/140/140 141/141/141
f 142/142/142 143/143/143 144/144/144
f 145/145/145 146/146/146 147/147/147
f 148/148/148 149/149/149 150/150/150
f 151/151/151 152/152/152 153/153/153
f 154/154/154 155/155/155 156/156/156
f 157/157/157 158/158/158 159/159/159
f 160/160/160 161/161/161 162/162/162
f 163/163/163 164/164/164 165/165/165
f 166/166/166 167/167/167 168/168/168
f 169/169/169 170/170/170 171/171/171
f 172/172/172 173/173/173 174/174/174
f 175/175/175 176/176/176 177/177/177
f 178/178/178 179/179/179 180/180/180
f 181/181/181 182/182/182 183/183/183
f 184/184/184 185/185/185 186/186/186
f 187/187/187 188/188/188 189/189/189
f 190/190/190 191/191/191 192/192/192
f 193/193/193 194/194/194 195/195/195
f 196/196/196 197/197/197 198/198/198
f 199/199/199 200/200/200 201/201/201
f 202/202/202 203/203/203 204/204/204
f 205/205/205 206/206/206 207/207/207
f 208/208/208 209/209/209 210/210/210
f 211/211/211 212/212/212 213/213/213
f 214/214/214 215/215/215 216/216/216
f 217/217/217 218/218/218 219/219/219
f 220/220/220 221/221/221 222/222/222
f 223/223/223 224/224/224 225/225/225
f 226/226/226 227/227/227 228/228/228
f 229/229/229 230/230/230 231/231/231
f 232/232/232 233/233/233 234/234/234
f 235/235/235 236/236/236 237/237/237
f 238/238/238 239/239/239 240/240/240
f 241/241/241 242/242/242 243/243/243
f 244/244/244 245/245/245 246/246/246
f 247/247/247 248/248/248 249/249/249
f 250/250/250 251/251/251 252/252/252
f 253/253/253 254/254/254 255/255/255
f 256/256/256 257/257/257 258/258/258
f 259/259/259 260/260/260 261/261/261
f 262/262/262 263/263/263 264/264/264
f 265/265/265 266/266/266 267/267/267
f 268/268/268 269/269/269 270/270/270
f 271/271/271 272/272/272 273/273/273
f 274/274/274 275/275/275 276/276/276
f 277/277/277 278/278/278 279/279/279
f 280/280/280 281/281/281 282/282/282
f 283/283/283 284/284/284 285/285/285
f 286/286/286 287/287/287 288/288/288
f 289/289/289 290/290/290 291/291/291
f 292/292/292 293/293/293 294/294/294
f 295/295/295 296/296/296 297/297/297
f 298/298/298 299/299/299 300/300/300
f 301/301/301 302/302/302 303/303/303
f 304/304/304 305/305/305 306/306/306
f 307/307/307 308/308/308 309/309/309
f 310/310/310 311/311/311 312/312/312
f 313/313/313 314/314/314 315/315/315
f 316/316/316 317/317/317 318/318/318
f 319/319/319 320/320/320 321/321/321
f 322/322/322 323/323/323 324/324/324
f 325/325/325 326/326/326 327/327/327
f 328/328/328 329/329/329 330/330/330
f 331/331/331 332/332/332 333/333/333
f 334/334/334 335/335/335 336/336/336
f 337/337/337 338/338/338 339/339/339
f 340/340/340 341/341/341 342/342/342
f 343/343/343 344/344/344 345/345/345
f 346/346/346 347/347/347 348/348/348
f 349/349/349 350/350/350 351/351/351
f 352/352/352 353/353/353 354/354/354
f 355/355/355 356/356/356 357/357/357
f 358/358/358 359/359/359 360/360/360
f 361/361/361 362/362/362 363/363/363
f 364/364/364 365/365/365 366/366/366
f 367/367/367 368/368/368 369/369/369
f 370/370/370 371/371/371 372/372/372
f 373/373/373 374/374/374 375/375/375
f 376/376/376 377/377/377 378/378/378
f 379/379/379 380/380/380 381/381/381
f 382/382/382 383/383/383 384/384/384
f 385/385/385 386/386/386 387/387/387
f 388/388/388 389/389/389 390/390/390
f 391/391/391 392/392/392 393/393/393
f 394/394/394 395/395/395 396/396/396
f 397/397/397 398/398/398 399/399/399
f 400/400/400 401/401/401 402/402/402
f 403/403/403 404/404/404 405/405/405
f 406/406/406 407/407/407 408/408/408
f 409/409/409 410/410/410 411/411/411
f 412/412/412 413/413/413 414/414/414
f 415/415/415 416/416/416 417/417/417
f 418/418/418 419/419/419 420/420/420
f 421/421/421 422/422/422 423/423/423
f 424/424/424 425/425/425 426/426/426
f 427/427/427 428/428/428 429/429/429
f 430/430/430 431/431/431 432/432/432
f 433/433/433 434/434/434 435/435/435
f 436/436/436 437/437/437 438/438/438
f 439/439/439 440/440/440 441/441/441
f 442/442/442 443/443/443 444/444/444
f 445/445/445 446/446/446 447/447/447
f 448/448/448 449/449/449 450/450/450
f 451/451/451 452/452/452 453/453/453
f 454/454/454 455/455/455 456/456/456
f 457/457/457 458/458/458 459/459/459
f 460/460/460 461/461/461 462/462/462
f 463/463/463 464/464/464 465/465/465
f 466/466/466 467/467/467 468/468/468
f 469/469/469 470/470/470 471/471/471
f 472/472/472 473/473/473 474/474/474
f 475/475/475 476/476/476 477/477/477
f 478/478/478 479/479/479 480/480/480
f 481/481/481 482/482/482 483/483/483
f 484/484/484 485/485/485 486/486/486
f 487/487/487 488/488/488 489/489/489
f 490/490/490 491/491/491 492/492/492
f 493/493/493 494/494/494 495/495/495
f 496/496/496 497/497/497 498/498/498
f 499/499/499 500/500/500 501/501/501
