o leg_right
v 1.12685 1.27000 -0.95216
v 1.10415 1.91327 -0.87838
v 1.12636 1.29777 -0.86688
v 1.12480 1.43826 -1.03550
v 1.11549 1.61893 -1.12875
v 1.10964 1.41787 -0.82954
v 1.11385 1.73123 -1.18813
v 1.11887 1.69117 -1.31093
v 1.10415 1.91327 -0.87838
v 1.11887 1.69117 -1.31093
v 1.09475 1.86221 -1.00274
v 1.12480 1.43826 -1.03550
v 0.93656 1.70965 -1.18457
v 1.11549 1.61893 -1.12875
v 1.11887 1.69117 -1.31093
v 1.08006 1.94542 -1.33642
v 1.09475 1.86221 -1.00274
v 1.09677 1.46752 -0.75138
v 1.08576 1.92191 -0.90319
v 1.07620 1.94826 -0.80446
v 1.08576 1.92191 -0.90319
v 1.09475 1.86221 -1.00274
v 1.08426 1.93070 -0.85922
v 1.04648 2.16274 -1.35387
v 1.08426 1.93070 -0.85922
v 1.07620 1.94826 -0.80446
v 1.05477 1.93705 -0.70220
v 1.06518 1.86757 -0.71742
v 1.05477 1.93705 -0.70220
v 1.05477 1.93705 -0.70220
v 1.07620 1.94826 -0.80446
v 1.11887 1.69117 -1.31093
v 1.11385 1.73123 -1.18813
v 0.93656 1.70965 -1.18457
v 1.03575 2.15727 -1.26188
v 1.11887 1.69117 -1.31093
v 0.93368 1.67040 -1.31214
v 1.08006 1.94542 -1.33642
v 1.06518 1.86757 -0.71742
v 1.05477 1.93705 -0.70220
v 1.02828 1.90289 -0.70154
v 1.04648 2.16274 -1.35387
v 1.08006 1.94542 -1.33642
v 1.03505 2.16609 -1.36146
v 0.96144 2.02556 -0.41382
v 1.11385 1.73123 -1.18813
v 0.99282 2.29845 -1.26065
v 1.00053 2.19616 -1.02148
v 1.01826 2.23159 -1.31010
v 1.04648 2.16274 -1.35387
v 1.03505 2.16609 -1.36146
v 1.01826 2.23159 -1.31010
v 0.97977 1.90323 -0.62396
v 1.06518 1.86757 -0.71742
v 1.02828 1.90289 -0.70154
v 0.98436 1.91877 -0.68656
v 0.98436 1.91877 -0.68656
v 1.00472 1.93070 -0.59427
v 1.05477 1.93705 -0.70220
v 0.96144 2.02556 -0.41382
v 0.99282 2.29845 -1.26065
v 0.75608 1.70003 -1.18444
v 0.94381 2.44574 -1.15163
v 0.98177 2.26263 -0.99836
v 1.05477 1.93705 -0.70220
v 0.95451 1.92765 -0.63407
v 0.98436 1.91877 -0.68656
v 1.00053 2.19616 -1.02148
v 0.98177 2.26263 -0.99836
v 0.98277 2.32866 -0.93715
v 1.00472 1.93070 -0.59427
v 0.95451 1.92765 -0.63407
v 0.98277 2.32866 -0.93715
v 0.95243 2.44399 -0.82679
v 0.93328 2.19345 -0.23229
v 0.98277 2.32866 -0.93715
v 0.98177 2.26263 -0.99836
v 0.95739 2.33634 -0.93985
v 0.95225 2.06758 -0.31834
v 0.95243 2.44399 -0.82679
v 0.88500 2.61672 -1.02421
v 0.95739 2.33634 -0.93985
v 0.86399 1.91767 -0.62882
v 0.93823 1.86126 -0.52863
v 0.86399 1.91767 -0.62882
v 1.00472 1.93070 -0.59427
v 0.91581 1.93020 -0.65036
v 0.98436 1.91877 -0.68656
v 0.91089 1.91171 -0.70724
v 1.12685 1.27000 -0.95216
v 0.69682 1.22964 -0.93572
v 0.83055 1.90050 -0.72450
v 0.91581 1.93020 -0.65036
v 1.03505 2.16609 -1.36146
v 0.49487 2.09895 -1.36529
v 0.93368 1.67040 -1.31214
v 0.88500 2.61672 -1.02421
v 0.41191 2.54457 -1.04015
v 0.91581 1.93020 -0.65036
v 0.75442 1.92076 -0.66315
v 0.91089 1.91171 -0.70724
v 0.49487 2.09895 -1.36529
v 0.94381 2.44574 -1.15163
v 0.95451 1.92765 -0.63407
v 0.86399 1.91767 -0.62882
v 0.97977 1.90323 -0.62396
v 0.83055 1.90050 -0.72450
v 0.91581 1.93020 -0.65036
v 0.78542 1.91503 -0.65566
v 0.75442 1.92076 -0.66315
v 0.78542 1.91503 -0.65566
v 0.79786 1.66782 -1.31777
v 0.65877 1.60225 -1.13077
v 0.75608 1.70003 -1.18444
v 0.58348 1.64589 -1.31035
v 0.61279 1.80932 -0.57807
v 0.75421 1.89724 -0.73632
v 0.86241 1.84758 -0.50677
v 0.71117 1.89616 -0.62031
v 0.71117 1.89616 -0.62031
v 0.83055 1.90050 -0.72450
v 0.75421 1.89724 -0.73632
v 0.72927 1.88679 -0.73667
v 0.58348 1.64589 -1.31035
v 0.79786 1.66782 -1.31777
v 0.93368 1.67040 -1.31214
v 0.73073 1.91047 -0.65566
v 0.73073 1.91047 -0.65566
v 0.94381 2.44574 -1.15163
v 0.72927 1.88679 -0.73667
v 0.65911 1.69499 -1.18002
v 0.58348 1.64589 -1.31035
v 0.73073 1.91047 -0.65566
v 0.64579 1.88826 -0.62885
v 0.75442 1.92076 -0.66315
v 0.56804 1.88171 -0.74601
v 0.64579 1.88826 -0.62885
v 0.56804 1.88171 -0.74601
v 0.65877 1.60225 -1.13077
v 0.69682 1.22964 -0.93572
v 0.65784 1.26953 -0.89460
v 0.65911 1.69499 -1.18002
v 0.65877 1.60225 -1.13077
v 0.64425 1.68124 -1.13050
v 0.65911 1.69499 -1.18002
v 0.61711 1.71234 -1.11369
v 0.58953 1.68324 -1.11699
v 0.60252 1.88068 -0.62045
v 0.64579 1.88826 -0.62885
v 0.57832 1.90025 -0.67285
v 0.75442 1.92076 -0.66315
v 0.60252 1.88068 -0.62045
v 0.57832 1.90025 -0.67285
v 0.64425 1.68124 -1.13050
v 0.65877 1.60225 -1.13077
v 0.61711 1.71234 -1.11369
v 0.61711 1.71234 -1.11369
v 0.58786 1.71235 -1.11379
v 0.71117 1.89616 -0.62031
v 0.65877 1.60225 -1.13077
v 0.58953 1.68324 -1.11699
v 0.61711 1.71234 -1.11369
v 0.60252 1.88068 -0.62045
v 0.64939 1.27351 -0.66549
v 0.54237 1.86875 -0.72115
v 0.58953 1.68324 -1.11699
v 0.58786 1.71235 -1.11379
v 0.56804 1.88171 -0.74601
v 0.51168 1.92023 -0.70586
v 0.58953 1.68324 -1.11699
v 0.57007 1.73823 -1.07265
v 0.58786 1.71235 -1.11379
v 0.57071 1.68837 -1.20680
v 0.57487 1.65024 -1.31271
v 0.52158 1.86684 -0.60911
v 0.57007 1.73823 -1.07265
v 0.55897 1.80265 -0.95799
v 0.57007 1.73823 -1.07265
v 0.54550 1.87974 -0.78234
v 0.49487 2.09895 -1.36529
v 0.57071 1.68837 -1.20680
v 0.57007 1.73823 -1.07265
v 0.54550 1.87974 -0.78234
v 0.51168 1.92023 -0.70586
v 0.61279 1.80932 -0.57807
v 0.60252 1.88068 -0.62045
v 0.54237 1.86875 -0.72115
v 0.56055 1.71872 -1.32228
v 0.57487 1.65024 -1.31271
v 0.58348 1.64589 -1.31035
v 0.52153 1.85585 -0.89088
v 0.55897 1.80265 -0.95799
v 0.54550 1.87974 -0.78234
v 0.58348 1.64589 -1.31035
v 0.48697 2.08156 -1.34869
v 0.48697 2.08156 -1.34869
v 0.49487 2.09895 -1.36529
v 0.57007 1.73823 -1.07265
v 0.48697 2.08156 -1.34869
v 0.94381 2.44574 -1.15163
v 0.46829 2.19166 -1.29628
v 0.51168 1.92023 -0.70586
v 0.52158 1.86684 -0.60911
v 0.52598 1.87044 -0.47894
v 0.50220 1.97204 -0.68711
v 0.52153 1.85585 -0.89088
v 0.46954 2.13807 -1.01174
v 0.46829 2.19166 -1.29628
v 0.48285 2.11497 -1.35560
v 0.49487 2.09895 -1.36529
v 0.48697 2.08156 -1.34869
v 0.48285 2.11497 -1.35560
v 0.41191 2.54457 -1.04015
v 0.48285 2.11497 -1.35560
v 0.48697 2.08156 -1.34869
v 0.46829 2.19166 -1.29628
v 0.44422 2.31920 -0.95677
v 0.48697 2.08156 -1.34869
v 0.45808 2.22345 -0.97896
v 0.45808 2.22345 -0.97896
v 0.46954 2.13807 -1.01174
v 0.39403 2.14996 -0.97862
v 0.37494 1.93980 -0.36708
v 0.37667 2.03554 -0.63194
v 0.50220 1.97204 -0.68711
v 0.44422 2.31920 -0.95677
v 0.43030 2.39725 -0.87350
v 0.41091 2.32596 -0.94993
v 0.43030 2.39725 -0.87350
v 0.44422 2.31920 -0.95677
v 0.38529 2.65686 -0.71247
v 0.41091 2.32596 -0.94993
v 0.39846 2.32881 -0.93684
v 0.36475 2.40547 -0.83737
v 0.46954 2.13807 -1.01174
v 0.39403 2.14996 -0.97862
v 0.39403 2.14996 -0.97862
v 0.39846 2.32881 -0.93684
v 0.41091 2.32596 -0.94993
v 0.37494 1.93980 -0.36708
v 0.39186 2.08751 -0.26538
v 0.39846 2.32881 -0.93684
v 0.37667 2.03554 -0.63194
v 0.39403 2.14996 -0.97862
v 0.86399 1.91767 -0.62882
v 0.54237 1.86875 -0.72115
v 0.52153 1.85585 -0.89088
v 0.48697 2.08156 -1.34869
v 1.42996 0.04229 -0.96212
v 1.43393 0.15981 -0.96067
v 1.43748 0.03936 -0.95042
v 1.42996 0.04229 -0.96212
v 1.39804 0.04738 -0.96982
v 1.43393 0.15981 -0.96067
v 1.43393 0.15981 -0.96067
v 1.37911 0.03905 -0.72406
v 1.43748 0.03936 -0.95042
v 1.42996 0.04229 -0.96212
v 1.43748 0.03936 -0.95042
v 1.39804 0.04738 -0.96982
v 1.43748 0.03936 -0.95042
v 1.37911 0.03905 -0.72406
v 1.33575 0.03330 -0.62885
v 1.41216 0.03506 -1.48768
v 1.41003 0.15711 -1.49692
v 1.42197 0.04728 -1.48566
v 1.42197 0.04728 -1.48566
v 1.41003 0.15711 -1.49692
v 1.42072 0.15530 -1.48527
v 1.40279 0.22115 -1.46378
v 1.41202 0.24120 -0.93732
v 1.34452 0.16373 -0.62723
v 1.42197 0.04728 -1.48566
v 1.42072 0.15530 -1.48527
v 1.39804 0.04738 -0.96982
v 1.39571 0.15774 -0.96700
v 1.42197 0.04728 -1.48566
v 1.39804 0.04738 -0.96982
v 1.41216 0.03506 -1.48768
v 1.41202 0.24120 -0.93732
v 1.39571 0.15774 -0.96700
v 1.37796 0.33794 -0.92483
v 1.37342 0.24484 -0.95427
v 1.36469 0.39391 -0.90809
v 1.40279 0.22115 -1.46378
v 1.37721 0.29673 -1.18912
v 1.39804 0.04738 -0.96982
v 1.43748 0.03936 -0.95042
v 1.41216 0.03506 -1.48768
v 1.35302 0.04392 -0.63040
v 1.41216 0.03506 -1.48768
v 1.37342 0.24484 -0.95427
v 1.35526 0.43880 -1.34834
v 1.36844 0.35207 -1.19925
v 1.35377 0.31252 -0.93921
v 1.37721 0.29673 -1.18912
v 1.36844 0.35207 -1.19925
v 1.39086 0.32276 -1.17658
v 1.35377 0.31252 -0.93921
v 1.35302 0.04392 -0.63040
v 1.34097 0.47352 -1.23140
v 1.35377 0.31252 -0.93921
v 1.37721 0.29673 -1.18912
v 1.39086 0.32276 -1.17658
v 1.34097 0.47352 -1.23140
v 1.33963 0.54464 -1.22938
v 1.33212 0.39869 -0.91274
v 1.36469 0.39391 -0.90809
v 1.39086 0.32276 -1.17658
v 1.33212 0.39869 -0.91274
v 1.35377 0.31252 -0.93921
v 1.35302 0.04392 -0.63040
v 1.34452 0.16373 -0.62723
v 1.33356 0.05044 -0.61268
v 1.35302 0.04392 -0.63040
v 1.33356 0.05044 -0.61268
v 1.33575 0.03330 -0.62885
v 1.33454 0.40201 -0.79313
v 1.36469 0.39391 -0.90809
v 1.31422 0.40620 -0.83627
v 1.33212 0.39869 -0.91274
v 1.33169 0.53559 -1.23721
v 1.29486 0.59285 -1.04414
v 1.15291 0.03960 -1.51309
v 1.26221 0.04836 -0.34986
v 1.33356 0.05044 -0.61268
v 1.33454 0.40201 -0.79313
v 1.30289 0.39393 -0.63372
v 1.36469 0.39391 -0.90809
v 1.31422 0.40620 -0.83627
v 1.33963 0.54464 -1.22938
v 1.29277 0.40049 -0.65339
v 1.30289 0.39393 -0.63372
v 1.11657 0.04421 -1.21460
v 1.31698 0.54963 -1.23174
v 1.33963 0.54464 -1.22938
v 1.33169 0.53559 -1.23721
v 1.33963 0.54464 -1.22938
v 1.31698 0.54963 -1.23174
v 1.29486 0.59285 -1.04414
v 1.25720 0.37037 -0.38088
v 1.25879 0.05888 -0.34378
v 1.25170 0.63743 -0.86140
v 1.22108 0.39194 -0.64680
v 1.27553 0.38245 -0.48006
v 1.25170 0.63743 -0.86140
v 1.22417 0.64162 -0.65275
v 1.15291 0.03960 -1.51309
v 1.29277 0.40049 -0.65339
v 1.22417 0.64162 -0.65275
v 1.19310 0.65963 -0.65343
v 1.29277 0.40049 -0.65339
v 1.21197 0.39227 -0.58832
v 1.19989 0.38193 -0.40349
v 1.27553 0.38245 -0.48006
v 1.10519 0.47275 -1.23301
v 1.34097 0.47352 -1.23140
v 1.35526 0.43880 -1.34834
v 1.25720 0.37037 -0.38088
v 1.14763 0.16115 -1.51350
v 1.40279 0.22115 -1.46378
v 1.21450 0.66218 -0.66003
v 1.20159 0.65904 -0.78592
v 1.21450 0.66218 -0.66003
v 1.22108 0.39194 -0.64680
v 1.21450 0.66218 -0.66003
v 1.10519 0.47275 -1.23301
v 1.34097 0.47352 -1.23140
v 0.81789 0.65070 -0.80029
v 1.22108 0.39194 -0.64680
v 1.19310 0.65963 -0.65343
v 1.21197 0.39227 -0.58832
v 1.19310 0.65963 -0.65343
v 1.17379 0.65695 -0.79784
v 0.90740 0.04957 -0.36695
v 1.26221 0.04836 -0.34986
v 1.25879 0.05888 -0.34378
v 1.20159 0.65904 -0.78592
v 1.19285 0.72172 -0.76422
v 1.20159 0.65904 -0.78592
v 1.17379 0.65695 -0.79784
v 1.19285 0.72172 -0.76422
v 1.19989 0.38193 -0.40349
v 1.17533 0.57603 -0.41742
v 1.17322 0.64834 -0.38511
v 1.11880 0.43596 -1.36099
v 1.17050 0.86967 -0.69745
v 1.11880 0.43596 -1.36099
v 1.35526 0.43880 -1.34834
v 1.17050 0.86967 -0.69745
v 1.26221 0.04836 -0.34986
v 0.90740 0.04957 -0.36695
v 1.33356 0.05044 -0.61268
v 1.16266 0.94739 -0.65745
v 1.15072 0.93795 -0.67057
v 1.16266 0.94739 -0.65745
v 1.16266 0.94739 -0.65745
v 1.15072 0.93795 -0.67057
v 1.15405 1.01417 -0.70538
v 1.14425 1.21771 -0.81505
v 1.10462 1.12095 -0.11195
v 1.14425 1.21771 -0.81505
v 1.13678 1.30356 -0.85963
v 1.14425 1.21771 -0.81505
v 1.12636 1.29777 -0.86688
v 1.15291 0.03960 -1.51309
v 1.11657 0.04421 -1.21460
v 1.14763 0.16115 -1.51350
v 1.11327 1.45824 -0.73096
v 1.15405 1.01417 -0.70538
v 0.88537 1.27972 -0.86058
v 1.11975 0.09637 -1.22108
v 1.11131 0.23380 -1.22185
v 1.13678 1.30356 -0.85963
v 1.08576 1.40833 -0.31090
v 1.10964 1.41787 -0.82954
v 1.13678 1.30356 -0.85963
v 1.12636 1.29777 -0.86688
v 1.10964 1.41787 -0.82954
v 1.12636 1.29777 -0.86688
v 1.10138 1.29794 -0.87384
v 1.12685 1.27000 -0.95216
v 1.11880 0.43596 -1.36099
v 1.10462 1.12095 -0.11195
v 1.09384 1.12473 -0.10608
v 1.12012 0.99751 -0.17972
v 0.77915 0.54134 -1.23425
v 0.71285 0.04492 -0.66718
v 1.09677 1.46752 -0.75138
v 1.10420 1.45972 -0.67576
v 1.11975 0.09637 -1.22108
v 1.06997 0.33285 -1.22385
v 1.11131 0.23380 -1.22185
v 1.09696 0.38078 -1.21925
v 1.10519 0.47275 -1.23301
v 1.09696 0.38078 -1.21925
v 1.10462 1.12095 -0.11195
v 0.77403 0.97288 -0.19356
v 1.17322 0.64834 -0.38511
v 0.77403 0.97288 -0.19356
v 1.10462 1.12095 -0.11195
v 1.12012 0.99751 -0.17972
v 1.05371 0.46830 -1.23230
v 1.11657 0.04421 -1.21460
v 1.06977 1.45962 -0.63714
v 1.19989 0.38193 -0.40349
v 1.17533 0.57603 -0.41742
v 0.90113 0.38474 -0.43813
v 0.71285 0.04492 -0.66718
v 1.07974 1.33265 -0.19543
v 1.08576 1.40833 -0.31090
v 1.11327 1.45824 -0.73096
v 1.05625 1.44365 -0.45196
v 1.11327 1.45824 -0.73096
v 1.10420 1.45972 -0.67576
v 1.06977 1.45962 -0.63714
v 1.11657 0.04421 -1.21460
v 1.06216 0.15856 -1.48849
v 1.06997 0.33285 -1.22385
v 1.09677 1.46752 -0.75138
v 1.06518 1.86757 -0.71742
v 1.06977 1.45962 -0.63714
v 1.06052 1.44594 -0.56163
v 1.05625 1.44365 -0.45196
v 1.11327 1.45824 -0.73096
v 1.07069 0.04384 -1.48444
v 1.06977 1.45962 -0.63714
v 1.06052 1.44594 -0.56163
v 1.11327 1.45824 -0.73096
v 1.07069 0.04384 -1.48444
v 1.06271 0.04052 -1.48750
v 0.77403 0.97288 -0.19356
v 1.09384 1.12473 -0.10608
v 1.10462 1.12095 -0.11195
v 1.07974 1.33265 -0.19543
v 1.06216 0.15856 -1.48849
v 1.07069 0.04384 -1.48444
v 1.06271 0.04052 -1.48750
v 1.05625 1.44365 -0.45196
v 1.06052 1.44594 -0.56163
v 1.05287 0.30679 -1.41112
v 1.10138 1.29794 -0.87384
v 0.73636 1.30923 -0.20451
v 1.07974 1.33265 -0.19543
v 1.05037 0.43541 -1.33702
v 1.05371 0.46830 -1.23230
v 1.06518 1.86757 -0.71742
v 0.97977 1.90323 -0.62396
v 1.05625 1.44365 -0.45196
v 1.01362 1.42978 -0.38239
v 1.01362 1.42978 -0.38239
v 0.86894 0.04935 -0.37586
v 0.87952 0.37255 -0.40631
v 0.80318 0.47810 -1.23002
v 1.05371 0.46830 -1.23230
v 1.05037 0.43541 -1.33702
v 0.90740 0.04957 -0.36695
v 1.25879 0.05888 -0.34378
v 1.25720 0.37037 -0.38088
v 1.09384 1.12473 -0.10608
v 1.07974 1.33265 -0.19543
v 0.74810 1.21750 -0.16219
v 0.77608 0.04524 -1.11617
v 1.17533 0.57603 -0.41742
v 0.95452 1.87406 -0.52154
v 1.00472 1.93070 -0.59427
v 0.96144 2.02556 -0.41382
v 0.79468 0.15746 -1.48872
v 0.88537 1.27972 -0.86058
v 0.69682 1.22964 -0.93572
v 0.73636 1.30923 -0.20451
v 1.05287 0.30679 -1.41112
v 0.95452 1.87406 -0.52154
v 0.93823 1.86126 -0.52863
v 1.00472 1.93070 -0.59427
v 0.96144 2.02556 -0.41382
v 0.95225 2.06758 -0.31834
v 0.91380 2.02269 -0.34223
v 0.81789 0.65070 -0.80029
v 0.72509 1.40810 -0.37394
v 0.96144 2.02556 -0.41382
v 0.89957 1.92315 -0.46069
v 0.95452 1.87406 -0.52154
v 0.91380 2.02269 -0.34223
v 0.91766 2.02856 -0.36455
v 0.96144 2.02556 -0.41382
v 0.90113 0.38474 -0.43813
v 0.91766 2.02856 -0.36455
v 0.92018 2.00621 -0.40895
v 0.86241 1.84758 -0.50677
v 0.93823 1.86126 -0.52863
v 0.97977 1.90323 -0.62396
v 0.61279 1.80932 -0.57807
v 1.01362 1.42978 -0.38239
v 0.89830 0.51733 -0.45118
v 0.93328 2.19345 -0.23229
v 0.91380 2.02269 -0.34223
v 0.95225 2.06758 -0.31834
v 0.91766 2.02856 -0.36455
v 0.91380 2.02269 -0.34223
v 0.92018 2.00621 -0.40895
v 0.72709 1.40090 -0.33964
v 0.86241 1.84758 -0.50677
v 0.86399 1.91767 -0.62882
v 0.93823 1.86126 -0.52863
v 0.89957 1.92315 -0.46069
v 0.89830 0.51733 -0.45118
v 0.85692 0.60071 -0.40871
v 0.88057 0.38016 -0.47653
v 0.86894 0.04935 -0.37586
v 0.89830 0.51733 -0.45118
v 0.88484 0.48259 -0.46582
v 0.90113 0.38474 -0.43813
v 0.88057 0.38016 -0.47653
v 0.76164 1.10201 -0.11704
v 0.87952 0.37255 -0.40631
v 0.88057 0.38016 -0.47653
v 0.88484 0.48259 -0.46582
v 0.83421 0.48789 -0.47850
v 0.88057 0.38016 -0.47653
v 0.87112 0.16987 -0.49701
v 0.87952 0.37255 -0.40631
v 0.87915 0.15747 -0.64146
v 0.87112 0.16987 -0.49701
v 0.86471 0.16223 -0.64620
v 0.86894 0.04935 -0.37586
v 0.79478 0.04355 -1.48589
v 0.87112 0.16987 -0.49701
v 0.77915 0.54134 -1.23425
v 0.71285 0.04492 -0.66718
v 0.87112 0.16987 -0.49701
v 0.87915 0.15747 -0.64146
v 0.87915 0.15747 -0.64146
v 0.86471 0.16223 -0.64620
v 0.71285 0.04492 -0.66718
v 0.71285 0.04492 -0.66718
v 0.86894 0.04935 -0.37586
v 0.87112 0.16987 -0.49701
v 0.37494 1.93980 -0.36708
v 0.85692 0.60071 -0.40871
v 0.84504 0.61302 -0.42579
v 0.89830 0.51733 -0.45118
v 0.87112 0.16987 -0.49701
v 0.83000 0.46009 -0.65101
v 0.86471 0.16223 -0.64620
v 0.89830 0.51733 -0.45118
v 1.05037 0.43541 -1.33702
v 1.05287 0.30679 -1.41112
v 0.80527 0.43688 -1.34191
v 0.72509 1.40810 -0.37394
v 0.84504 0.61302 -0.42579
v 0.80527 0.43688 -1.34191
v 0.82543 0.74499 -0.32820
v 0.78598 0.84771 -0.70494
v 0.83421 0.48789 -0.47850
v 0.82543 0.74499 -0.32820
v 0.73923 1.10956 -0.75650
v 0.75421 1.23708 -0.83437
v 1.15072 0.93795 -0.67057
v 0.77747 0.90411 -0.67304
v 0.76159 0.43171 -0.66566
v 0.83000 0.46009 -0.65101
v 0.81528 0.59363 -0.66064
v 0.80081 0.43726 -1.32747
v 0.81528 0.59363 -0.66064
v 0.80067 0.78105 -0.36252
v 0.80067 0.78105 -0.36252
v 1.05287 0.30679 -1.41112
v 0.80081 0.43726 -1.32747
v 0.80527 0.43688 -1.34191
v 0.80318 0.47810 -1.23002
v 0.81612 0.61670 -0.73233
v 0.81789 0.65070 -0.80029
v 0.81612 0.61670 -0.73233
v 0.79079 0.59440 -0.67336
v 0.81528 0.59363 -0.66064
v 0.74696 1.02420 -0.70473
v 0.77403 0.97288 -0.19356
v 0.80691 0.62343 -0.79341
v 0.80691 0.62343 -0.79341
v 0.77747 0.90411 -0.67304
v 0.76164 1.10201 -0.11704
v 0.71285 0.04492 -0.66718
v 0.79478 0.04355 -1.48589
v 0.80081 0.43726 -1.32747
v 0.80318 0.47810 -1.23002
v 0.80527 0.43688 -1.34191
v 0.77830 0.50296 -0.66440
v 0.80318 0.47810 -1.23002
v 0.80081 0.43726 -1.32747
v 0.78141 0.28489 -1.18434
v 0.75421 1.23708 -0.83437
v 0.67097 1.22013 -0.85640
v 0.88537 1.27972 -0.86058
v 0.78598 0.84771 -0.70494
v 0.79079 0.59440 -0.67336
v 0.88537 1.27972 -0.86058
v 0.67097 1.22013 -0.85640
v 0.71604 1.26267 -0.86841
v 0.76213 0.30773 -0.96002
v 0.77608 0.04524 -1.11617
v 0.79468 0.15746 -1.48872
v 0.78140 0.28999 -1.10157
v 0.76159 0.43171 -0.66566
v 0.77747 0.90411 -0.67304
v 0.79478 0.04355 -1.48589
v 0.77915 0.54134 -1.23425
v 0.75180 0.31336 -1.18971
v 0.78141 0.28489 -1.18434
v 0.78140 0.28999 -1.10157
v 0.76913 0.28658 -1.08908
v 0.78141 0.28489 -1.18434
v 0.71257 0.15246 -0.66070
v 0.73533 0.15980 -0.93293
v 0.79079 0.59440 -0.67336
v 0.71604 1.26267 -0.86841
v 0.77608 0.04524 -1.11617
v 0.75680 0.16093 -1.10652
v 0.78140 0.28999 -1.10157
v 0.53047 1.81614 -0.51145
v 0.71249 1.83198 -0.50882
v 0.78140 0.28999 -1.10157
v 0.75680 0.16093 -1.10652
v 0.76913 0.28658 -1.08908
v 0.75085 0.28885 -1.17413
v 0.75085 0.28885 -1.17413
v 0.74696 1.02420 -0.70473
v 0.75680 0.16093 -1.10652
v 0.76913 0.28658 -1.08908
v 0.75180 0.31336 -1.18971
v 0.76159 0.43171 -0.66566
v 0.76164 1.10201 -0.11704
v 0.74810 1.21750 -0.16219
v 0.73923 1.10956 -0.75650
v 0.75085 0.28885 -1.17413
v 0.75125 0.04883 -1.09849
v 0.76213 0.30773 -0.96002
v 0.72500 1.23112 -0.82490
v 0.75125 0.04883 -1.09849
v 0.75125 0.04883 -1.09849
v 0.71117 1.89616 -0.62031
v 0.71249 1.83198 -0.50882
v 0.72192 1.35321 -0.35439
v 0.73636 1.30923 -0.20451
v 0.72265 1.30810 -0.52903
v 0.71257 0.15246 -0.66070
v 0.72500 1.23112 -0.82490
v 0.72709 1.40090 -0.33964
v 0.72300 1.26919 -0.69135
v 0.72500 1.23112 -0.82490
v 0.72509 1.40810 -0.37394
v 0.65215 1.50640 -0.42898
v 0.72192 1.35321 -0.35439
v 0.66947 1.36439 -0.36279
v 0.71285 0.04492 -0.66718
v 0.64939 1.27351 -0.66549
v 0.72300 1.26919 -0.69135
v 0.72265 1.30810 -0.52903
v 0.60252 1.88068 -0.62045
v 0.65784 1.26953 -0.89460
v 0.72192 1.35321 -0.35439
v 0.66947 1.36439 -0.36279
v 0.65808 1.34200 -0.39582
v 0.65784 1.26953 -0.89460
v 0.63379 1.32736 -0.44491
v 0.65808 1.34200 -0.39582
v 0.66947 1.36439 -0.36279
v 0.63379 1.32736 -0.44491
v 0.65784 1.26953 -0.89460
v 0.67097 1.22013 -0.85640
v 0.64939 1.27351 -0.66549
v 0.54237 1.86875 -0.72115
v 0.58953 1.68324 -1.11699
v 0.65215 1.50640 -0.42898
v 0.61279 1.80932 -0.57807
v 0.52158 1.86684 -0.60911
v 0.53047 1.81614 -0.51145
v 0.52598 1.87044 -0.47894
v 0.52598 1.87044 -0.47894
v 0.52158 1.86684 -0.60911
v 0.53047 1.81614 -0.51145
v 0.89957 1.92315 -0.46069
v 0.91380 2.02269 -0.34223
v 0.81528 0.59363 -0.66064
v 0.78598 0.84771 -0.70494
v 0.86241 1.84758 -0.50677
v 0.64939 1.27351 -0.66549
v 0.52598 1.87044 -0.47894
v 0.89957 1.92315 -0.46069
v 0.37494 1.93980 -0.36708
v 0.52598 1.87044 -0.47894
v 0.37494 1.93980 -0.36708
v 0.50220 1.97204 -0.68711
v 0.37494 1.93980 -0.36708
v 0.93328 2.19345 -0.23229
v 0.39186 2.08751 -0.26538
v 0.91380 2.02269 -0.34223
v 0.61107 2.40110 -0.76888
v 0.93328 2.19345 -0.23229
v 0.95243 2.44399 -0.82679
v 0.95739 2.33634 -0.93985
v 0.88500 2.61672 -1.02421
v 0.41191 2.54457 -1.04015
v 0.38529 2.65686 -0.71247
v 0.43030 2.39725 -0.87350
v 0.36475 2.40547 -0.83737
v 0.39846 2.32881 -0.93684
v 0.39186 2.08751 -0.26538
v 0.57240 1.67580 -1.28803
v 0.57071 1.68837 -1.20680
v 0.57487 1.65024 -1.31271
v 0.56055 1.71872 -1.32228
v 0.58348 1.64589 -1.31035
vt 0.06613 0.47854
vt 0.03791 0.47014
vt 0.06556 0.47451
vt 0.05794 0.48094
vt 0.04911 0.48368
vt 0.06047 0.47180
vt 0.04361 0.48545
vt 0.04443 0.49127
vt 0.66772 0.92251
vt 0.64564 0.92155
vt 0.66169 0.92144
vt 0.89993 0.95739
vt 0.88549 0.96530
vt 0.89068 0.95739
vt 0.27852 0.56724
vt 0.29078 0.57165
vt 0.27794 0.58337
vt 0.05885 0.46787
vt 0.66698 0.92125
vt 0.99505 0.61275
vt 0.99586 0.61734
vt 0.99531 0.62261
vt 0.66897 0.92170
vt 0.30211 0.57947
vt 0.27974 0.59240
vt 0.27997 0.59333
vt 0.27444 0.59695
vt 0.04120 0.46306
vt 0.03820 0.46176
vt 0.67608 0.92319
vt 0.67160 0.92187
vt 0.49077 0.95603
vt 0.49066 0.96190
vt 0.48254 0.96190
vt 0.30000 0.58423
vt 0.11168 0.94456
vt 0.12015 0.94456
vt 0.11215 0.95630
vt 0.78029 0.99562
vt 0.77846 0.99832
vt 0.77799 0.99641
vt 0.01978 0.34171
vt 0.00976 0.34171
vt 0.02004 0.34112
vt 0.27837 0.61487
vt 0.88491 0.95720
vt 0.30621 0.58270
vt 0.30347 0.59429
vt 0.30446 0.58051
vt 0.92924 0.77260
vt 0.92911 0.77197
vt 0.93287 0.77110
vt 0.99988 0.00852
vt 0.99973 0.01450
vt 0.99846 0.01243
vt 0.99760 0.01037
vt 0.77577 0.99627
vt 0.46079 0.01917
vt 0.45570 0.01732
vt 0.47005 0.01719
vt 0.93661 0.76983
vt 0.47432 0.96190
vt 0.31454 0.58631
vt 0.30858 0.59396
vt 0.27574 0.00469
vt 0.27656 0.01016
vt 0.27487 0.00796
vt 0.67506 0.99809
vt 0.67186 0.99895
vt 0.66787 0.99802
vt 0.27918 0.00888
vt 0.99842 0.00773
vt 0.30733 0.60339
vt 0.30494 0.61006
vt 0.28046 0.62574
vt 0.02693 0.37479
vt 0.02587 0.37875
vt 0.02581 0.37433
vt 0.27836 0.61974
vt 0.02748 0.36743
vt 0.32462 0.58532
vt 0.31550 0.59444
vt 0.27499 0.01399
vt 0.99351 0.45468
vt 0.99942 0.45660
vt 0.99373 0.45997
vt 0.29319 0.98600
vt 0.29094 0.98876
vt 0.29056 0.98530
vt 0.90846 0.95768
vt 0.90953 0.97730
vt 0.29032 0.98154
vt 0.27520 0.01150
vt 0.11308 0.96655
vt 0.92584 0.74745
vt 0.48231 0.95582
vt 0.13622 0.86215
vt 0.13622 0.84039
vt 0.45780 0.98580
vt 0.45412 0.97942
vt 0.45989 0.98404
vt 0.13781 0.96626
vt 0.12625 0.86343
vt 0.14995 0.02592
vt 0.14582 0.02628
vt 0.15082 0.02451
vt 0.45852 0.98054
vt 0.13946 0.00230
vt 0.14543 0.00228
vt 0.14681 0.00278
vt 0.29383 0.98007
vt 0.12630 0.94515
vt 0.89036 0.97816
vt 0.88550 0.97351
vt 0.46635 0.95583
vt 0.13352 0.02336
vt 0.45696 0.97739
vt 0.00474 0.26372
vt 0.01192 0.26894
vt 0.13881 0.02671
vt 0.99510 0.74893
vt 0.99499 0.74542
vt 0.99541 0.74427
vt 0.99227 0.30011
vt 0.99227 0.30991
vt 0.99157 0.31605
vt 0.29421 0.97760
vt 0.14792 0.00227
vt 0.94487 0.76736
vt 0.29045 0.97686
vt 0.88560 0.97793
vt 0.13610 0.94520
vt 0.00628 0.32913
vt 0.00211 0.32913
vt 0.00749 0.32895
vt 0.45257 0.97011
vt 0.29580 0.97375
vt 0.99528 0.73693
vt 0.64635 0.98103
vt 0.66554 0.98124
vt 0.66461 0.98425
vt 0.46991 0.96210
vt 0.99579 0.29913
vt 0.99753 0.30234
vt 0.99567 0.30390
vt 0.99928 0.30336
vt 0.64305 0.98462
vt 0.29642 0.97181
vt 0.23047 0.01337
vt 0.22795 0.01607
vt 0.22928 0.00812
vt 0.23063 0.01539
vt 0.45003 0.97246
vt 0.55661 0.00771
vt 0.55724 0.00412
vt 0.55753 0.00952
vt 0.46805 0.96524
vt 0.46672 0.96526
vt 0.29586 0.97677
vt 0.56587 0.00699
vt 0.56432 0.00236
vt 0.56598 0.00158
vt 0.13384 0.02715
vt 0.33826 0.77507
vt 0.31772 0.79271
vt 0.30784 0.77446
vt 0.56475 0.00109
vt 0.29095 0.96953
vt 0.22577 0.01881
vt 0.43068 0.00162
vt 0.43068 0.00495
vt 0.42993 0.00272
vt 0.46579 0.96092
vt 0.46590 0.95581
vt 0.23080 0.01916
vt 0.46581 0.96743
vt 0.30983 0.78369
vt 0.30792 0.77859
vt 0.45326 0.96829
vt 0.31977 0.97851
vt 0.33900 0.98500
vt 0.33699 0.99119
vt 0.31495 0.79162
vt 0.44912 0.96908
vt 0.99198 0.26330
vt 0.99438 0.26625
vt 0.29227 0.96842
vt 0.00605 0.82791
vt 0.00285 0.82819
vt 0.00254 0.82787
vt 0.45675 0.96448
vt 0.46099 0.96420
vt 0.28944 0.96831
vt 0.34083 0.98022
vt 0.28851 0.77608
vt 0.96701 0.47440
vt 0.96759 0.47341
vt 0.96675 0.49477
vt 0.02235 0.79362
vt 0.05037 0.79362
vt 0.02544 0.79830
vt 0.78640 0.31063
vt 0.78575 0.30562
vt 0.78862 0.30001
vt 0.78844 0.31157
vt 0.30789 0.78720
vt 0.78653 0.32864
vt 0.93105 0.74609
vt 0.92666 0.74687
vt 0.81249 0.99636
vt 0.81176 0.99725
vt 0.81175 0.99568
vt 0.79152 0.34534
vt 0.00244 0.27222
vt 0.00124 0.27121
vt 0.00684 0.27153
vt 0.79275 0.33555
vt 0.11070 0.84011
vt 0.78984 0.33179
vt 0.00637 0.80764
vt 0.01046 0.80672
vt 0.00980 0.81045
vt 0.55882 0.92426
vt 0.57160 0.92356
vt 0.57337 0.93019
vt 0.00195 0.80853
vt 0.79675 0.33964
vt 0.72851 0.01111
vt 0.72647 0.01548
vt 0.72715 0.01030
vt 0.80537 0.35122
vt 0.00167 0.81008
vt 0.72899 0.01178
vt 0.72908 0.01769
vt 0.58967 0.92684
vt 0.58820 0.92335
vt 0.14180 0.00343
vt 0.13345 0.00343
vt 0.13370 0.00263
vt 0.04681 0.04071
vt 0.05472 0.03859
vt 0.05491 0.07101
vt 0.04690 0.05350
vt 0.04661 0.07011
vt 0.00500 0.27012
vt 0.99198 0.27104
vt 0.78082 0.31661
vt 0.76837 0.33621
vt 0.68292 0.99889
vt 0.67595 0.99828
vt 0.68314 0.99808
vt 0.71838 0.98220
vt 0.71906 0.98034
vt 0.72519 0.98380
vt 0.84994 0.84804
vt 0.85543 0.83361
vt 0.85553 0.84939
vt 0.00003 0.93173
vt 0.00045 0.93099
vt 0.00048 0.93365
vt 0.60577 0.17576
vt 0.59403 0.17963
vt 0.58776 0.17887
vt 0.01536 0.80665
vt 0.01489 0.81391
vt 0.01469 0.80731
vt 0.16139 0.00598
vt 0.15486 0.00692
vt 0.15497 0.00598
vt 0.15073 0.00570
vt 0.84469 0.84590
vt 0.84543 0.82755
vt 0.39002 0.91393
vt 0.39002 0.90750
vt 0.42072 0.91380
vt 0.72552 0.98151
vt 0.54788 0.93481
vt 0.51718 0.93481
vt 0.54797 0.93388
vt 0.73039 0.98374
vt 0.42087 0.90723
vt 0.73648 0.98294
vt 0.73091 0.98128
vt 0.74004 0.98316
vt 0.39133 0.90346
vt 0.40769 0.89884
vt 0.04602 0.55233
vt 0.04843 0.55121
vt 0.04659 0.58314
vt 0.85380 0.82939
vt 0.61658 0.15230
vt 0.42167 0.90189
vt 0.39827 0.89025
vt 0.40711 0.89551
vt 0.42261 0.89771
vt 0.99084 0.59806
vt 0.99048 0.60143
vt 0.98928 0.59915
vt 0.73519 0.98109
vt 0.58763 0.17964
vt 0.40524 0.88809
vt 0.99105 0.63273
vt 0.99105 0.61778
vt 0.99279 0.61854
vt 0.99042 0.60908
vt 0.98896 0.61305
vt 0.74071 0.98116
vt 0.74004 0.98303
vt 0.89753 0.87862
vt 0.91307 0.87250
vt 0.91181 0.87787
vt 0.00325 0.00075
vt 0.01039 0.00075
vt 0.00374 0.00228
vt 0.66507 0.04328
vt 0.66389 0.04438
vt 0.66391 0.04297
vt 0.89991 0.45584
vt 0.90137 0.46277
vt 0.89854 0.45833
vt 0.89940 0.46294
vt 0.98977 0.61277
vt 0.90459 0.86122
vt 0.03076 0.80828
vt 0.85433 0.80798
vt 0.85257 0.82237
vt 0.83133 0.83573
vt 0.83195 0.82576
vt 0.83277 0.84337
vt 0.91766 0.87154
vt 0.89363 0.86528
vt 0.89796 0.44740
vt 0.89870 0.44625
vt 0.58059 0.14231
vt 0.92764 0.90970
vt 0.92731 0.91104
vt 0.92666 0.91048
vt 0.80936 0.89467
vt 0.80797 0.89470
vt 0.80697 0.88323
vt 0.83535 0.81063
vt 0.85384 0.80768
vt 0.91540 0.85739
vt 0.89378 0.44634
vt 0.83383 0.81685
vt 0.80470 0.87198
vt 0.92785 0.85605
vt 0.59365 0.13147
vt 0.92860 0.87094
vt 0.98854 0.16879
vt 0.99017 0.16741
vt 0.98699 0.18361
vt 0.89372 0.44282
vt 0.89453 0.43182
vt 0.89836 0.43695
vt 0.74149 0.03510
vt 0.74179 0.02109
vt 0.74907 0.02045
vt 0.89815 0.43091
vt 0.03045 0.81551
vt 0.01482 0.81822
vt 0.92737 0.85471
vt 0.80185 0.86723
vt 0.80314 0.85981
vt 0.99129 0.18338
vt 0.98883 0.16740
vt 0.92420 0.89672
vt 0.92292 0.91069
vt 0.77901 0.86757
vt 0.78049 0.34237
vt 0.78105 0.35837
vt 0.77697 0.34249
vt 0.80189 0.85934
vt 0.80018 0.86790
vt 0.47580 0.99408
vt 0.49692 0.99408
vt 0.49674 0.99481
vt 0.78894 0.35818
vt 0.78769 0.36196
vt 0.53924 0.96435
vt 0.54103 0.96420
vt 0.53930 0.96833
vt 0.76595 0.34207
vt 0.76687 0.35370
vt 0.76504 0.35804
vt 0.74942 0.03453
vt 0.78381 0.37090
vt 0.02992 0.83426
vt 0.01589 0.83310
vt 0.53928 0.97807
vt 0.93010 0.55063
vt 0.93010 0.57175
vt 0.91429 0.54715
vt 0.78150 0.37558
vt 0.53984 0.98256
vt 0.53889 0.98328
vt 0.97862 0.45623
vt 0.97743 0.45633
vt 0.97790 0.45137
vt 0.97782 0.43761
vt 0.74912 0.38661
vt 0.79109 0.39156
vt 0.03740 0.96243
vt 0.03966 0.95712
vt 0.03819 0.96270
vt 0.92942 0.63846
vt 0.94643 0.64399
vt 0.92731 0.64538
vt 0.78627 0.40603
vt 0.04497 0.94443
vt 0.05168 0.96777
vt 0.94513 0.64684
vt 0.94273 0.65467
vt 0.79381 0.39664
vt 0.76118 0.40357
vt 0.79214 0.40366
vt 0.99710 0.49532
vt 0.99785 0.49497
vt 0.99765 0.50251
vt 0.05399 0.73475
vt 0.05249 0.73441
vt 0.05383 0.72942
vt 0.93128 0.66372
vt 0.96775 0.87020
vt 0.96819 0.87083
vt 0.95933 0.87027
vt 0.93007 0.87781
vt 0.62685 0.04491
vt 0.78765 0.40694
vt 0.78311 0.40710
vt 0.90179 0.89509
vt 0.91609 0.89377
vt 0.90996 0.89554
vt 0.94040 0.66313
vt 0.93792 0.66810
vt 0.91874 0.89572
vt 0.80916 0.85988
vt 0.82132 0.84145
vt 0.84096 0.86752
vt 0.87031 0.98570
vt 0.89131 0.97887
vt 0.89089 0.98729
vt 0.92422 0.89365
vt 0.89871 0.89448
vt 0.78112 0.40944
vt 0.98613 0.94269
vt 0.97447 0.94269
vt 0.98360 0.92499
vt 0.91283 0.58417
vt 0.75420 0.39924
vt 0.07298 0.35164
vt 0.08000 0.32743
vt 0.07778 0.34424
vt 0.00122 0.77616
vt 0.00443 0.77530
vt 0.00737 0.77622
vt 0.93000 0.26426
vt 0.94626 0.27184
vt 0.93017 0.28166
vt 0.95033 0.95837
vt 0.93626 0.97775
vt 0.94454 0.95445
vt 0.25906 0.02304
vt 0.25264 0.02191
vt 0.26959 0.02206
vt 0.94626 0.26500
vt 0.05404 0.00775
vt 0.05856 0.00855
vt 0.04800 0.00892
vt 0.57033 0.13166
vt 0.56986 0.13160
vt 0.96001 0.89091
vt 0.21450 0.01831
vt 0.21463 0.01906
vt 0.20102 0.01874
vt 0.60515 0.94948
vt 0.59832 0.94989
vt 0.59814 0.94937
vt 0.93553 0.94801
vt 0.94110 0.95141
vt 0.94140 0.28054
vt 0.03947 0.96356
vt 0.08941 0.36701
vt 0.07039 0.35944
vt 0.93674 0.28803
vt 0.93045 0.28978
vt 0.06016 0.42057
vt 0.06071 0.41277
vt 0.08979 0.41789
vt 0.07860 0.34909
vt 0.09236 0.41370
vt 0.92968 0.57406
vt 0.87577 0.42847
vt 0.96982 0.02608
vt 0.98473 0.02593
vt 0.98473 0.03246
vt 0.06933 0.95929
vt 0.08916 0.96603
vt 0.08339 0.98377
vt 0.97574 0.82941
vt 0.96226 0.82968
vt 0.96768 0.80942
vt 0.56363 0.14912
vt 0.84563 0.86814
vt 0.17175 0.01600
vt 0.17175 0.00976
vt 0.18279 0.01538
vt 0.60540 0.93357
vt 0.03960 0.73523
vt 0.02815 0.73040
vt 0.96164 0.80921
vt 0.61510 0.94912
vt 0.90183 0.99927
vt 0.90109 0.99820
vt 0.90801 0.99836
vt 0.41339 0.00123
vt 0.41705 0.00627
vt 0.41326 0.00634
vt 0.56205 0.96675
vt 0.09426 0.35624
vt 0.07475 0.95526
vt 0.07270 0.94790
vt 0.07723 0.94448
vt 0.99927 0.91884
vt 0.99807 0.91954
vt 0.99416 0.91914
vt 0.87668 0.43069
vt 0.07101 0.95644
vt 0.07243 0.95384
vt 0.07192 0.94225
vt 0.07655 0.94338
vt 0.11070 0.89829
vt 0.11463 0.87595
vt 0.14234 0.89705
vt 0.97571 0.92578
vt 0.01489 0.01061
vt 0.02702 0.01061
vt 0.02381 0.01262
vt 0.00265 0.96872
vt 0.00151 0.96952
vt 0.00333 0.96584
vt 0.09337 0.35813
vt 0.44892 0.00512
vt 0.44401 0.01189
vt 0.44436 0.00376
vt 0.00121 0.96028
vt 0.85145 0.85221
vt 0.84619 0.84915
vt 0.87489 0.43258
vt 0.06707 0.95865
vt 0.06567 0.00353
vt 0.06768 0.00224
vt 0.07359 0.00383
vt 0.07372 0.00122
vt 0.96896 0.89062
vt 0.06185 0.97725
vt 0.91984 0.27341
vt 0.91899 0.26734
vt 0.92206 0.26680
vt 0.69085 0.99053
vt 0.67847 0.99271
vt 0.69007 0.98640
vt 0.72284 0.00247
vt 0.71424 0.00172
vt 0.72313 0.00157
vt 0.67076 0.98608
vt 0.55312 0.13178
vt 0.92160 0.28586
vt 0.77600 0.89411
vt 0.60177 0.04168
vt 0.60177 0.02599
vt 0.60834 0.03160
vt 0.06457 0.25198
vt 0.06503 0.25281
vt 0.05981 0.26304
vt 0.95457 0.75658
vt 0.97422 0.75658
vt 0.96803 0.76464
vt 0.35322 0.06711
vt 0.29166 0.28431
vt 0.29023 0.28404
vt 0.29585 0.28119
vt 0.26185 0.25827
vt 0.25816 0.27342
vt 0.25163 0.25854
vt 0.91784 0.26525
vt 0.97155 0.40634
vt 0.96971 0.39770
vt 0.98584 0.40348
vt 0.14195 0.87984
vt 0.92005 0.25895
vt 0.97017 0.03316
vt 0.83663 0.84621
vt 0.56212 0.97990
vt 0.27082 0.27387
vt 0.28383 0.28922
vt 0.06458 0.96072
vt 0.06000 0.96838
vt 0.04724 0.93999
vt 0.06815 0.94769
vt 0.08192 0.25600
vt 0.08282 0.25160
vt 0.26066 0.28045
vt 0.62459 0.93430
vt 0.09081 0.25110
vt 0.92086 0.24798
vt 0.28011 0.28871
vt 0.07117 0.02664
vt 0.05358 0.02664
vt 0.05406 0.02588
vt 0.92619 0.87888
vt 0.82799 0.52461
vt 0.82454 0.52490
vt 0.08592 0.00345
vt 0.08971 0.00203
vt 0.09040 0.00352
vt 0.06668 0.95515
vt 0.28925 0.30180
vt 0.82524 0.52266
vt 0.08232 0.00262
vt 0.56209 0.98378
vt 0.97510 0.80961
vt 0.55366 0.17630
vt 0.59863 0.93345
vt 0.65805 0.99844
vt 0.65176 0.99844
vt 0.65884 0.99802
vt 0.08591 0.25425
vt 0.08217 0.93237
vt 0.08840 0.93313
vt 0.08269 0.94423
vt 0.92392 0.28791
vt 0.92905 0.28882
vt 0.91590 0.29023
vt 0.82978 0.53578
vt 0.09120 0.25270
vt 0.27305 0.01598
vt 0.26029 0.01950
vt 0.26296 0.01686
vt 0.80967 0.50584
vt 0.08277 0.95905
vt 0.10222 0.94647
vt 0.07788 0.94531
vt 0.08196 0.25608
vt 0.26178 0.29720
vt 0.10394 0.95302
vt 0.79889 0.52434
vt 0.91652 0.87468
vt 0.99360 0.80697
vt 0.99347 0.80204
vt 0.99422 0.80129
vt 0.91461 0.87623
vt 0.06611 0.26185
vt 0.81308 0.49853
vt 0.83529 0.51550
vt 0.02948 0.73480
vt 0.66560 0.01574
vt 0.65885 0.01759
vt 0.65107 0.01691
vt 0.05328 0.93548
vt 0.06352 0.93912
vt 0.00316 0.31944
vt 0.01098 0.31944
vt 0.00347 0.32046
vt 0.99542 0.80632
vt 0.91483 0.87431
vt 0.26124 0.30543
vt 0.80490 0.49511
vt 0.80388 0.50262
vt 0.79451 0.51236
vt 0.83299 0.50470
vt 0.29342 0.31024
vt 0.29039 0.31832
vt 0.25840 0.31507
vt 0.79473 0.51112
vt 0.66554 0.01756
vt 0.99492 0.79353
vt 0.06185 0.96860
vt 0.80561 0.48754
vt 0.56219 0.14973
vt 0.96424 0.04805
vt 0.97189 0.04805
vt 0.27818 0.33036
vt 0.28881 0.32551
vt 0.26751 0.32973
vt 0.82476 0.49179
vt 0.92564 0.28721
vt 0.28077 0.33229
vt 0.26047 0.32347
vt 0.25543 0.31911
vt 0.27976 0.33314
vt 0.13484 0.87620
vt 0.14536 0.87926
vt 0.14422 0.87624
vt 0.82751 0.48139
vt 0.92901 0.27696
vt 0.92483 0.27899
vt 0.92375 0.26913
vt 0.96463 0.05456
vt 0.02580 0.73379
vt 0.92260 0.25846
vt 0.92582 0.25826
vt 0.92666 0.26058
vt 0.25928 0.01585
vt 0.92843 0.26344
vt 0.10323 0.21634
vt 0.10547 0.21738
vt 0.09988 0.21598
vt 0.90274 0.73314
vt 0.90647 0.73249
vt 0.91240 0.74276
vt 0.08752 0.25037
vt 0.87598 0.74212
vt 0.10273 0.22634
vt 0.09642 0.24554
vt 0.96558 0.05940
vt 0.97212 0.05891
vt 0.05206 0.93905
vt 0.99521 0.38159
vt 0.99065 0.38785
vt 0.99144 0.38134
vt 0.35322 0.03541
vt 0.36244 0.03600
vt 0.83079 0.52568
vt 0.25872 0.29408
vt 0.97162 0.03909
vt 0.08645 0.21428
vt 0.04751 0.57911
vt 0.05335 0.55731
vt 0.05401 0.58915
vt 0.62263 0.98851
vt 0.63180 0.99620
vt 0.61113 0.99634
vt 0.80586 0.73749
vt 0.79377 0.77605
vt 0.79466 0.74049
vt 0.80644 0.77261
vt 0.28046 0.62574
vt 0.28046 0.62574
vt 0.28046 0.62574
vt 0.28046 0.62574
vt 0.28046 0.62574
vt 0.28046 0.62574
vt 0.28046 0.62574
vt 0.28046 0.62574
vt 0.28046 0.62574
vt 0.28046 0.62574
vt 0.28046 0.62574
vt 0.46579 0.96092
vt 0.46579 0.96092
vt 0.46579 0.96092
vt 0.46579 0.96092
vt 0.46579 0.96092
vn 0.9994 0.0343 0.0087
vn 0.9872 0.0483 0.1520
vn 0.9985 0.0368 0.0403
vn 0.9991 0.0348 0.0260
vn 0.9993 0.0380 0.0006
vn 0.9662 0.0359 0.2554
vn 0.9991 -0.0150 0.0401
vn 0.9979 -0.0364 0.0527
vn 0.6526 0.7433 -0.1471
vn 0.6456 0.6880 -0.3313
vn 0.6504 0.6842 -0.3301
vn 0.0211 -0.4582 -0.8886
vn 0.0264 -0.4689 -0.8828
vn 0.0437 -0.4596 -0.8870
vn 0.9886 0.1503 -0.0060
vn 0.9884 0.1515 -0.0057
vn 0.9860 0.1667 0.0075
vn 0.9860 0.0304 0.1641
vn 0.6811 0.6839 -0.2614
vn -0.9946 0.0194 -0.1015
vn -0.9946 0.0194 -0.1015
vn -0.9946 0.0194 -0.1015
vn 0.7055 0.7079 -0.0322
vn 0.9618 0.2639 0.0727
vn 0.9720 -0.1408 0.1883
vn 0.9707 0.1783 0.1614
vn 0.9451 0.2377 0.2242
vn 0.9647 0.0704 0.2536
vn 0.9622 0.0876 0.2579
vn 0.7109 0.6954 0.1054
vn 0.7253 0.6793 -0.1112
vn 0.1045 -0.9461 0.3066
vn 0.1209 -0.9422 0.3123
vn 0.0658 -0.9693 0.2367
vn 0.9211 0.3704 0.1197
vn 0.0174 -0.0971 -0.9951
vn 0.0264 -0.0953 -0.9951
vn 0.0306 -0.1041 -0.9941
vn 0.2460 -0.1720 0.9539
vn 0.2515 -0.1762 0.9517
vn 0.2524 -0.1769 0.9513
vn 0.5573 0.0194 -0.8301
vn 0.5573 0.0194 -0.8301
vn 0.5573 0.0194 -0.8301
vn 0.9888 0.1165 0.0938
vn 0.0390 -0.4666 -0.8836
vn 0.9568 0.2767 0.0888
vn 0.9774 0.1889 0.0946
vn 0.9493 0.2947 0.1099
vn 0.5582 0.5958 -0.5774
vn 0.2777 0.6293 -0.7258
vn 0.2762 0.6359 -0.7206
vn 0.5901 0.7598 0.2730
vn 0.7121 0.5448 0.4428
vn 0.6501 0.6437 0.4037
vn 0.4599 0.8534 0.2455
vn 0.2581 -0.1814 0.9490
vn 0.8634 -0.3307 0.3809
vn 0.8634 -0.3307 0.3809
vn 0.8634 -0.3307 0.3809
vn -0.0594 0.5864 -0.8079
vn 0.0686 -0.9485 0.3092
vn 0.9612 0.2648 0.0773
vn 0.9647 0.2549 0.0656
vn 0.1801 -0.9750 0.1305
vn 0.0559 -0.9980 0.0302
vn 0.2254 -0.9314 0.2857
vn 0.8232 0.3792 -0.4226
vn 0.8232 0.3792 -0.4226
vn 0.8232 0.3792 -0.4226
vn 0.0850 -0.9959 -0.0310
vn 0.6270 0.7441 0.2307
vn 0.9901 0.1088 0.0891
vn 0.9718 0.2043 0.1174
vn 0.9887 0.1309 0.0727
vn 0.2762 0.6732 -0.6859
vn 0.2721 0.6519 -0.7078
vn 0.2723 0.6842 -0.6765
vn 0.9933 0.0787 0.0842
vn 0.2095 0.7176 -0.6641
vn 0.9636 0.2630 0.0472
vn 0.9617 0.2637 0.0749
vn 0.1061 -0.9927 -0.0578
vn 0.2179 -0.7725 -0.5964
vn 0.2179 -0.7725 -0.5964
vn 0.2179 -0.7725 -0.5964
vn -0.0481 0.9538 -0.2967
vn -0.0045 0.9511 -0.3087
vn -0.0431 0.9512 -0.3054
vn 0.0074 -0.4437 -0.8961
vn 0.0139 -0.4608 -0.8874
vn -0.0913 0.9571 -0.2748
vn -0.1093 -0.9884 0.1051
vn 0.0233 -0.1037 -0.9943
vn -0.0153 0.5948 -0.8037
vn 0.0947 -0.9326 0.3482
vn -0.0669 0.6125 -0.7876
vn -0.0663 0.5775 -0.8137
vn 0.0313 -0.9514 0.3065
vn 0.0428 -0.9511 0.3061
vn 0.0366 -0.9454 0.3238
vn 0.0112 -0.1062 -0.9943
vn -0.0676 0.5643 -0.8228
vn 0.0102 0.3914 0.9202
vn 0.0091 0.4056 0.9140
vn 0.0107 0.3954 0.9185
vn 0.0342 -0.9356 0.3515
vn 0.0979 -0.5513 -0.8285
vn 0.0933 -0.5650 -0.8198
vn 0.0602 -0.6559 -0.7525
vn -0.0871 0.9616 -0.2602
vn 0.0216 -0.0945 -0.9953
vn 0.0047 -0.4701 -0.8826
vn 0.0155 -0.4931 -0.8699
vn -0.2317 -0.9221 0.3100
vn -0.0490 0.4785 0.8767
vn 0.0311 -0.9516 0.3059
vn 0.0941 -0.8638 -0.4949
vn 0.0941 -0.8638 -0.4949
vn -0.0258 0.4608 0.8871
vn -0.1581 0.3455 0.9250
vn -0.1486 0.3225 0.9348
vn -0.0701 0.1332 0.9886
vn 0.0434 -0.6734 -0.7380
vn 0.0434 -0.6734 -0.7380
vn 0.0434 -0.6734 -0.7380
vn -0.2119 0.9402 -0.2665
vn 0.0556 -0.6676 -0.7424
vn -0.0624 0.5809 -0.8116
vn -0.1398 0.9709 -0.1942
vn -0.0160 -0.4689 -0.8831
vn -0.0216 -0.1245 -0.9920
vn -0.3007 -0.0010 -0.9537
vn -0.3007 -0.0010 -0.9537
vn -0.3007 -0.0010 -0.9537
vn -0.2196 -0.9360 0.2752
vn -0.1884 0.9819 -0.0201
vn -0.0609 0.1112 0.9919
vn -0.6565 -0.4354 -0.6160
vn -0.8235 -0.3268 -0.4637
vn -0.8078 -0.3397 -0.4818
vn 0.0605 -0.9472 0.3147
vn -0.9299 -0.1699 -0.3263
vn -0.8704 -0.3403 -0.3558
vn -0.8878 -0.2992 -0.3496
vn -0.7895 -0.4878 -0.3725
vn -0.6421 -0.4425 -0.6260
vn -0.1333 0.9911 -0.0066
vn 0.1164 -0.8984 -0.4235
vn -0.0627 -0.9417 -0.3304
vn 0.1278 -0.8896 -0.4385
vn 0.0582 -0.9111 -0.4081
vn -0.0906 -0.9617 0.2586
vn -0.6111 -0.1097 -0.7839
vn -0.6111 -0.1097 -0.7839
vn -0.6111 -0.1097 -0.7839
vn -0.0012 -0.9676 0.2523
vn -0.3048 -0.9018 0.3064
vn -0.1393 0.9766 0.1637
vn -0.0308 0.1418 -0.9894
vn -0.0197 0.1314 -0.9911
vn -0.0164 0.1283 -0.9916
vn -0.0726 0.5016 0.8620
vn -0.9831 -0.1798 -0.0329
vn -0.9870 -0.1544 -0.0452
vn -0.9727 -0.2321 0.0049
vn 0.0034 0.1098 -0.9939
vn -0.2494 0.9632 0.0998
vn 0.0150 -0.9011 -0.4333
vn -0.9201 -0.0098 -0.3916
vn -0.9201 -0.0098 -0.3916
vn -0.9201 -0.0098 -0.3916
vn -0.4300 -0.8521 0.2983
vn -0.4922 -0.8250 0.2777
vn 0.0803 -0.8692 -0.4879
vn -0.4920 -0.8168 0.3013
vn -0.9355 -0.3532 0.0043
vn -0.9266 -0.3591 0.1120
vn -0.4170 -0.8638 0.2828
vn -0.9842 -0.1768 0.0130
vn -0.9838 -0.1790 0.0070
vn -0.9855 -0.1608 0.0551
vn -0.9913 -0.1160 -0.0623
vn -0.4023 -0.8707 0.2830
vn -0.8549 0.1686 0.4907
vn -0.8549 0.1686 0.4907
vn -0.3519 0.9283 0.1203
vn -0.2199 0.0896 0.9714
vn -0.2199 0.0896 0.9714
vn -0.2199 0.0896 0.9714
vn -0.5498 -0.7820 0.2935
vn -0.5662 -0.7699 0.2945
vn -0.3249 0.9336 0.1510
vn -0.9797 -0.1965 -0.0403
vn -0.9508 -0.3067 -0.0438
vn -0.1619 -0.6419 -0.7495
vn -0.1619 -0.6419 -0.7495
vn -0.1619 -0.6419 -0.7495
vn -0.0410 -0.4352 0.8994
vn -0.0410 -0.4352 0.8994
vn -0.0410 -0.4352 0.8994
vn -0.9835 -0.1804 0.0168
vn -0.9924 -0.1174 0.0368
vn -0.9879 -0.1521 0.0289
vn -0.9829 -0.1835 0.0147
vn -0.8871 -0.4370 -0.1484
vn -0.9860 -0.1660 -0.0147
vn -0.0542 0.5863 -0.8083
vn 0.2238 0.6225 -0.7499
vn -0.7725 -0.2182 -0.5964
vn -0.7725 -0.2182 -0.5964
vn -0.7725 -0.2182 -0.5964
vn -0.9889 -0.1463 -0.0251
vn -0.9885 -0.1357 -0.0672
vn -0.9885 -0.1357 -0.0672
vn -0.9885 -0.1357 -0.0672
vn -0.9896 -0.1436 -0.0027
vn -0.0739 0.5447 -0.8354
vn -0.9851 -0.1582 0.0678
vn -0.2580 0.2206 -0.9406
vn -0.3443 0.2960 -0.8910
vn -0.2930 0.2552 -0.9214
vn -0.5306 -0.7960 -0.2912
vn -0.5196 -0.7957 -0.3111
vn -0.5363 -0.7800 -0.3224
vn -0.1774 0.1775 -0.9680
vn -0.9888 -0.1467 -0.0277
vn -0.1630 0.7418 -0.6505
vn -0.2220 0.7615 -0.6089
vn 0.0077 0.7303 -0.6831
vn -0.9880 -0.1528 -0.0226
vn -0.1643 0.1740 -0.9709
vn -0.3861 0.7169 -0.5805
vn -0.1634 0.7266 -0.6673
vn -0.3554 -0.8769 -0.3236
vn -0.2804 -0.9073 -0.3135
vn -0.6929 0.1802 -0.6982
vn -0.6929 0.1802 -0.6982
vn -0.6929 0.1802 -0.6982
vn -0.9948 0.0983 0.0260
vn -0.9950 0.0968 0.0250
vn -0.9984 0.0534 -0.0195
vn -0.9950 0.0971 0.0223
vn -0.9987 0.0338 -0.0388
vn 0.0941 -0.8638 -0.4949
vn -0.8549 0.1686 0.4907
vn -0.9833 -0.1818 0.0001
vn -0.9864 -0.1627 -0.0237
vn 0.8387 -0.0216 -0.5442
vn 0.8387 -0.0216 -0.5442
vn 0.8387 -0.0216 -0.5442
vn 0.2351 0.0041 -0.9720
vn 0.2211 0.0088 -0.9752
vn 0.1596 0.1642 -0.9734
vn 0.9609 0.1131 0.2528
vn 0.9640 0.0631 0.2584
vn 0.9671 0.0497 0.2495
vn -0.1153 -0.9786 -0.1703
vn -0.1153 -0.9786 -0.1703
vn -0.1153 -0.9786 -0.1703
vn 0.0779 -0.9969 0.0059
vn 0.3005 -0.9504 0.0795
vn 0.2061 -0.9760 0.0710
vn 0.1560 -0.0719 -0.9851
vn 0.0846 0.1945 -0.9773
vn 0.2813 -0.0676 -0.9572
vn 0.7376 0.0109 -0.6752
vn 0.7365 0.2088 -0.6434
vn 0.7378 0.1918 -0.6472
vn 0.7089 0.3857 -0.5905
vn 0.9429 0.2106 0.2579
vn 0.9633 0.0926 0.2520
vn 0.9989 0.0114 0.0463
vn 0.9928 0.1130 0.0400
vn 0.9987 0.0188 0.0479
vn 0.1904 0.1661 -0.9675
vn 0.7763 -0.6293 0.0361
vn 0.7763 -0.6293 0.0361
vn 0.7763 -0.6293 0.0361
vn 0.3823 0.2580 -0.8873
vn 0.9893 0.1379 0.0471
vn 0.5223 0.3463 -0.7793
vn 0.3932 0.2500 -0.8848
vn 0.7783 0.3421 -0.5265
vn 0.9705 0.2397 0.0244
vn 0.9807 0.1902 0.0446
vn 0.2076 0.9780 -0.0176
vn 0.2076 0.9780 -0.0176
vn 0.2076 0.9780 -0.0176
vn 0.9623 0.0613 0.2649
vn -0.0187 -0.9998 0.0046
vn 0.9676 0.2450 0.0607
vn 0.9780 0.2047 0.0392
vn 0.9841 0.1768 0.0159
vn 0.9620 0.2630 0.0736
vn 0.6971 -0.0208 -0.7167
vn 0.6879 -0.0343 -0.7250
vn 0.7009 -0.0203 -0.7130
vn 0.2380 0.2966 -0.9249
vn 0.5265 -0.8287 0.1897
vn 0.9713 0.2328 0.0496
vn 0.8568 -0.5034 0.1121
vn 0.8568 -0.5034 0.1121
vn 0.8568 -0.5034 0.1121
vn 0.7727 0.0296 -0.6341
vn 0.7104 0.0332 -0.7031
vn 0.1859 0.3249 -0.9273
vn 0.1799 0.3209 -0.9299
vn 0.9557 0.2537 0.1491
vn 0.9482 0.2713 0.1654
vn 0.9679 0.1942 0.1596
vn 0.6783 0.0288 0.7343
vn 0.6783 0.0288 0.7343
vn 0.6783 0.0288 0.7343
vn 0.4252 -0.5919 0.6848
vn 0.1084 -0.6750 0.7298
vn 0.1734 -0.6642 0.7272
vn 0.1444 0.9889 0.0345
vn 0.1708 0.9841 -0.0484
vn 0.1935 0.9811 -0.0066
vn 0.1534 0.9863 -0.0610
vn 0.6817 0.0335 -0.7309
vn 0.9499 0.2723 0.1535
vn 0.0721 -0.0206 -0.9972
vn 0.9449 0.0857 0.3160
vn 0.9635 -0.0597 0.2611
vn 0.9546 0.1961 0.2242
vn 0.9645 0.1798 0.1932
vn 0.9414 0.2246 0.2517
vn 0.9483 0.2813 0.1470
vn 0.9522 0.2586 0.1628
vn 0.1697 0.9598 0.2235
vn 0.0587 0.9859 0.1568
vn -0.0138 -0.9999 -0.0011
vn 0.0436 0.4022 -0.9145
vn 0.2024 0.5324 -0.8219
vn 0.0780 0.2368 -0.9684
vn 0.2301 0.9539 -0.1926
vn 0.1202 0.9692 -0.2149
vn 0.1162 0.9708 -0.2099
vn 0.9611 0.0985 0.2580
vn 0.9452 0.0819 0.3161
vn 0.9503 0.2794 0.1371
vn -0.0312 0.9986 0.0438
vn 0.9654 0.1736 0.1946
vn 0.0428 0.9732 -0.2261
vn 0.9263 0.3587 0.1150
vn -0.0188 -0.9997 0.0131
vn 0.9549 0.2713 0.1205
vn 0.0271 0.0845 0.9961
vn 0.1008 0.1854 0.9775
vn 0.0802 0.0310 0.9963
vn 0.0135 0.9988 0.0472
vn 0.0258 0.9335 0.3577
vn 0.0627 0.9948 0.0802
vn 0.0018 0.9604 -0.2787
vn -0.0012 0.9586 -0.2847
vn 0.0003 0.9595 -0.2818
vn 0.1067 0.9685 0.2250
vn 0.0614 0.2606 -0.9635
vn 0.0554 0.4747 -0.8784
vn 0.8845 0.4540 0.1076
vn 0.1937 0.9716 -0.1357
vn -0.0583 0.9981 -0.0189
vn 0.0875 0.0338 0.9956
vn 0.2221 0.4166 0.8815
vn -0.0037 -0.0801 -0.9968
vn 0.0071 -0.0922 -0.9957
vn -0.0100 0.9694 -0.2452
vn 0.9825 0.1065 0.1525
vn 0.9888 0.1236 0.0841
vn 0.9899 0.0953 0.1047
vn -0.1221 0.9924 -0.0122
vn 0.0013 0.9564 -0.2921
vn -0.0431 -0.5105 0.8588
vn -0.0431 -0.5105 0.8588
vn -0.0431 -0.5105 0.8588
vn 0.9912 0.1165 0.0630
vn 0.9904 0.1195 0.0694
vn 0.3468 0.3496 -0.8704
vn 0.1423 0.4037 -0.9038
vn 0.1637 0.4159 -0.8945
vn 0.9897 0.1083 0.0935
vn 0.9925 0.0709 0.0998
vn 0.9953 0.0654 0.0720
vn 0.0032 0.9612 -0.2760
vn 0.9938 0.0945 0.0583
vn 0.0482 0.4823 -0.8747
vn 0.0413 0.4752 -0.8789
vn 0.0574 0.4000 -0.9147
vn -0.0030 -1.0000 -0.0087
vn 0.0044 -1.0000 0.0076
vn 0.0018 -1.0000 -0.0004
vn 0.9932 0.0975 0.0642
vn 0.2788 0.4362 -0.8556
vn 0.4851 0.4384 -0.7566
vn 0.8087 -0.2706 -0.5222
vn 0.8016 -0.2770 -0.5298
vn 0.8915 -0.1827 -0.4146
vn 0.8975 -0.1749 -0.4048
vn 0.9898 0.1155 0.0835
vn 0.9922 0.1070 0.0645
vn 0.6521 -0.3040 -0.6945
vn 0.0727 -0.5057 -0.8597
vn 0.4286 -0.4216 -0.7991
vn -0.9918 -0.0435 -0.1201
vn -0.9953 0.0253 -0.0935
vn -0.9927 -0.0405 -0.1138
vn 0.8214 0.5700 -0.0180
vn 0.0226 -0.4407 -0.8973
vn 0.0022 -0.5182 -0.8553
vn -0.9956 0.0039 -0.0941
vn -0.9902 -0.0599 -0.1259
vn 0.9901 0.1399 0.0128
vn 0.9874 0.1287 0.0924
vn 0.9389 0.3051 -0.1595
vn 0.4135 0.3223 -0.8515
vn 0.4135 0.3223 -0.8515
vn 0.4135 0.3223 -0.8515
vn -0.0922 -0.9470 0.3079
vn 0.0147 -0.9402 0.3403
vn 0.0649 -0.9330 0.3539
vn -0.9905 -0.0239 -0.1357
vn 0.3117 -0.4269 0.8489
vn 0.1117 -0.4820 0.8690
vn 0.0153 -0.4985 0.8668
vn -0.0789 -0.0864 -0.9931
vn -0.0573 -0.6891 0.7224
vn 0.6142 0.7683 -0.1804
vn 0.1396 0.9863 0.0880
vn -0.3629 -0.0872 -0.9277
vn 0.1274 0.0120 -0.9918
vn 0.0485 0.0001 -0.9988
vn -0.9856 -0.0349 -0.1655
vn -0.9897 0.0699 -0.1253
vn 0.1690 -0.0411 -0.9848
vn 0.0098 -0.4993 0.8664
vn 0.0036 -0.4989 0.8667
vn 0.0863 -0.4256 0.9008
vn 0.0008 0.4813 -0.8765
vn 0.0008 0.4813 -0.8765
vn 0.0008 0.4813 -0.8765
vn 0.0110 -0.0812 -0.9966
vn -0.3820 -0.0911 -0.9197
vn 0.1005 0.9907 0.0923
vn -0.1145 0.0568 0.9918
vn -0.1214 0.0668 0.9904
vn -0.1302 0.0797 0.9883
vn 0.0075 -0.9999 0.0106
vn 0.9690 0.1805 0.1689
vn 0.0029 0.9110 0.4124
vn 0.4280 0.8937 0.1342
vn 0.3532 0.9223 0.1570
vn 0.0407 -0.9986 0.0335
vn 0.0407 -0.9986 0.0335
vn 0.0407 -0.9986 0.0335
vn 0.9814 0.1317 -0.1400
vn 0.9838 0.1096 -0.1418
vn 0.9876 0.1179 -0.1035
vn 0.9707 0.0568 0.2333
vn 0.9886 0.0397 0.1450
vn 0.9901 0.0231 0.1382
vn -0.1868 0.9823 0.0132
vn -0.1868 0.9823 0.0132
vn -0.1868 0.9823 0.0132
vn 0.9836 0.0672 -0.1673
vn 0.4866 0.8473 0.2131
vn 0.4866 0.8473 0.2131
vn 0.4866 0.8473 0.2131
vn 0.4065 -0.9111 -0.0679
vn 0.1513 -0.9883 -0.0204
vn 0.0050 -0.5070 0.8619
vn 0.5399 0.3629 0.7594
vn 0.5399 0.3629 0.7594
vn 0.5399 0.3629 0.7594
vn 0.0087 0.2248 -0.9744
vn 0.3622 -0.0060 -0.9321
vn 0.1605 -0.0098 -0.9870
vn 0.9974 -0.0099 0.0720
vn 0.8867 -0.4617 0.0249
vn 0.9888 0.1057 -0.1050
vn 0.0815 -0.5604 -0.8242
vn -0.0643 0.8268 0.5588
vn -0.0714 0.8359 0.5441
vn 0.9918 0.0938 -0.0868
vn 0.9911 0.1147 -0.0677
vn 0.7556 0.3361 0.5622
vn 0.7573 0.3357 0.5602
vn 0.7717 0.3315 0.5427
vn -0.0068 0.9559 0.2937
vn 0.7739 0.3309 0.5400
vn 0.0024 -0.9999 0.0140
vn -0.1599 0.9511 0.2642
vn 0.0185 0.9426 -0.3333
vn 0.0345 0.9532 -0.3004
vn 0.0284 0.9493 -0.3131
vn -0.1840 0.2420 0.9527
vn -0.0684 0.1176 0.9907
vn -0.0727 0.1137 0.9909
vn -0.0465 0.3843 0.9220
vn -0.0455 0.3958 0.9172
vn -0.0516 0.3884 0.9200
vn -0.0403 -0.9992 -0.0067
vn 0.0316 -0.4561 0.8894
vn 0.8781 -0.3032 0.3700
vn 0.8781 -0.3032 0.3700
vn 0.8781 -0.3032 0.3700
vn -0.0118 0.2390 -0.9710
vn 0.0971 -0.9233 0.3717
vn -0.0819 -0.8903 0.4479
vn -0.0522 0.4128 0.9093
vn -0.0154 0.4819 -0.8761
vn 0.6482 -0.7492 -0.1360
vn 0.6482 -0.7492 -0.1360
vn 0.6482 -0.7492 -0.1360
vn 0.5991 -0.7100 0.3701
vn 0.5991 -0.7100 0.3701
vn 0.5991 -0.7100 0.3701
vn -0.0095 0.4255 -0.9049
vn -0.0402 0.9732 0.2263
vn 0.3870 -0.6684 0.6352
vn 0.2620 -0.5643 0.7829
vn 0.3127 -0.6223 0.7176
vn -0.3934 -0.8702 -0.2967
vn -0.3934 -0.8702 -0.2967
vn -0.3934 -0.8702 -0.2967
vn -0.2089 0.9522 0.2228
vn 0.4249 -0.7987 0.4261
vn 0.3898 -0.6732 0.6284
vn 0.1372 -0.5711 0.8093
vn 0.3076 -0.7292 0.6113
vn -0.0048 0.4542 0.8909
vn -0.0128 0.4517 0.8921
vn -0.0065 0.4528 0.8916
vn -0.1400 0.0940 0.9857
vn 0.1247 -0.5471 0.8277
vn 0.1247 -0.5471 0.8277
vn 0.1247 -0.5471 0.8277
vn 0.9802 -0.1487 0.1304
vn 0.9581 -0.2431 0.1516
vn 0.9322 -0.3204 0.1682
vn -0.0495 0.9241 0.3788
vn 0.0130 -0.8672 -0.4979
vn 0.0130 -0.8672 -0.4979
vn 0.0130 -0.8672 -0.4979
vn 0.9258 -0.3367 0.1716
vn -0.0112 -0.4583 0.8887
vn -0.0130 -0.4781 0.8782
vn -0.3804 0.9200 0.0940
vn -0.1370 0.1809 0.9739
vn -0.7855 0.0440 0.6173
vn -0.8022 0.0352 0.5960
vn -0.8692 -0.0047 0.4945
vn -0.8809 -0.0127 0.4731
vn 0.0065 -0.5093 0.8605
vn -0.0663 0.0958 0.9932
vn -0.2378 -0.0847 0.9676
vn -0.2573 -0.1983 0.9458
vn -0.2349 -0.2297 0.9445
vn -0.9989 0.0459 -0.0100
vn -0.9993 0.0359 0.0124
vn -0.9991 0.0425 -0.0024
vn -0.3307 -0.9417 0.0624
vn -0.3307 -0.9417 0.0624
vn -0.3307 -0.9417 0.0624
vn -0.9993 0.0342 0.0161
vn -0.0113 -0.9999 0.0040
vn -0.2356 -0.0837 0.9682
vn -0.0138 0.9699 -0.2432
vn -0.5467 0.8311 -0.1018
vn -0.5467 0.8311 -0.1018
vn -0.5467 0.8311 -0.1018
vn -0.2581 0.1638 0.9521
vn -0.1856 0.0851 0.9789
vn -0.1023 -0.0453 0.9937
vn -0.7958 0.4364 0.4198
vn -0.7958 0.4364 0.4198
vn -0.7958 0.4364 0.4198
vn 0.0888 -0.7678 0.6345
vn -0.8496 -0.4590 0.2597
vn -0.8604 -0.4232 0.2839
vn -0.8311 -0.5170 0.2051
vn -0.9922 -0.1158 0.0467
vn -0.9928 -0.1121 0.0431
vn -0.9922 -0.1148 0.0485
vn -0.2325 -0.3395 0.9114
vn 0.0203 0.4994 -0.8661
vn 0.0203 0.4994 -0.8661
vn 0.0203 0.4994 -0.8661
vn -0.0745 0.4132 0.9076
vn -0.1347 -0.3747 0.9173
vn 0.0125 0.9384 -0.3454
vn -0.0249 -0.5067 0.8618
vn -0.0297 0.4582 -0.8883
vn -0.9922 -0.1186 0.0375
vn -0.8934 -0.3513 0.2801
vn -0.0217 -0.5167 -0.8559
vn -0.0635 -0.5146 -0.8551
vn 0.0438 -0.4166 -0.9080
vn -0.0015 -0.2771 -0.9608
vn -0.1910 0.0150 0.9815
vn -0.2184 0.0230 0.9756
vn -0.9926 -0.1179 0.0292
vn -0.0287 0.4996 -0.8658
vn -0.3861 0.1178 0.9149
vn -0.1168 -0.3769 0.9189
vn -0.9596 -0.2451 0.1384
vn -0.4892 -0.8626 -0.1285
vn -0.4892 -0.8626 -0.1285
vn -0.4892 -0.8626 -0.1285
vn -0.1389 -0.1243 -0.9825
vn -0.9925 0.1180 0.0332
vn -0.9913 0.1289 -0.0267
vn -0.3796 0.9074 0.1802
vn -0.1701 0.9436 0.2839
vn -0.1275 0.9446 0.3025
vn -0.0115 -0.4083 -0.9128
vn -0.9887 -0.1419 0.0491
vn -0.9497 0.2989 -0.0931
vn -0.4139 0.8959 0.1611
vn -0.0384 0.4874 -0.8723
vn -0.0552 0.3579 0.9321
vn -0.0232 -0.9997 -0.0040
vn -0.0063 -0.0248 -0.9997
vn -0.7388 0.6278 -0.2450
vn -0.7388 0.6278 -0.2450
vn -0.7388 0.6278 -0.2450
vn -0.4762 0.0990 0.8737
vn -0.9940 0.1071 -0.0206
vn -0.9968 0.0675 -0.0418
vn -0.9954 0.0053 -0.0961
vn 0.2468 -0.9475 -0.2032
vn 0.1020 -0.9839 0.1470
vn 0.2553 -0.9355 -0.2444
vn -0.9895 -0.1263 -0.0701
vn -0.4651 0.1491 0.8726
vn 0.0782 -0.3469 -0.9346
vn 0.2259 -0.4789 -0.8483
vn 0.1444 -0.4077 -0.9016
vn -0.9884 0.1486 -0.0330
vn -0.9986 0.0217 -0.0485
vn -0.9988 0.0213 -0.0435
vn -0.9998 0.0218 -0.0015
vn -0.7531 0.1654 0.6368
vn -0.9805 -0.1960 -0.0147
vn -0.9987 -0.0021 -0.0505
vn -0.9898 0.1326 0.0515
vn -0.1390 -0.3052 -0.9421
vn -0.0806 -0.9967 0.0073
vn 0.3217 -0.9450 0.0583
vn -0.4027 -0.9108 0.0911
vn -0.1793 -0.3587 -0.9161
vn -0.0938 -0.0175 0.9954
vn -0.9925 0.0797 -0.0927
vn -0.9806 0.1763 -0.0856
vn -0.0636 -0.8886 0.4542
vn -0.5309 -0.0178 -0.8473
vn -0.1660 0.0544 -0.9846
vn -0.1249 0.0618 -0.9902
vn 0.0306 -0.5124 0.8582
vn 0.0342 -0.5206 0.8531
vn -0.7258 0.1639 -0.6680
vn -0.7258 0.1639 -0.6680
vn -0.7258 0.1639 -0.6680
vn -0.1768 -0.9842 0.0118
vn -0.3326 -0.4966 -0.8017
vn -0.9927 -0.1171 0.0299
vn -0.9901 0.0868 -0.1107
vn -0.9917 0.1072 -0.0714
vn -0.9931 0.1069 0.0473
vn -0.9819 0.1721 -0.0786
vn -0.9939 -0.1081 0.0214
vn -0.9927 -0.1138 0.0393
vn -0.9945 -0.1004 0.0307
vn -0.9966 0.0681 0.0465
vn -0.5823 -0.0293 -0.8125
vn -0.5747 -0.8120 0.1019
vn -0.1735 -0.4983 -0.8495
vn -0.9938 0.0224 -0.1092
vn -0.1594 -0.9869 -0.0231
vn 0.1133 -0.8605 -0.4967
vn 0.0993 -0.8668 -0.4886
vn -0.9969 -0.0350 0.0706
vn -0.9944 -0.0760 0.0735
vn -0.9935 -0.1111 0.0245
vn -0.9929 0.0848 -0.0830
vn 0.1231 -0.9835 0.1322
vn -0.9924 0.0783 0.0946
vn -0.9937 -0.1099 0.0219
vn -0.9941 -0.1075 0.0157
vn -0.9936 0.0843 0.0757
vn -0.1053 0.4254 0.8989
vn -0.0780 0.3384 0.9378
vn -0.1089 0.3735 0.9212
vn -0.9961 0.0028 -0.0886
vn 0.0285 -0.9682 0.2486
vn 0.0335 -0.9656 0.2578
vn 0.0195 -0.9705 0.2404
vn 0.0964 -0.8740 -0.4762
vn -0.3158 -0.8130 0.4891
vn -0.0845 -0.9156 0.3932
vn -0.2576 -0.7562 0.6015
vn -0.0781 -0.9254 0.3708
vn 0.2934 -0.5347 -0.7924
vn 0.0175 -0.9675 0.2524
vn -0.8083 -0.3189 0.4950
vn -0.9125 0.0081 0.4089
vn -0.9729 -0.0719 0.2197
vn -0.9768 -0.2119 -0.0324
vn -0.9599 -0.2788 -0.0306
vn -0.9781 -0.2057 -0.0325
vn -0.9523 0.0082 0.3051
vn -0.9831 -0.1801 -0.0331
vn -0.8767 0.1116 0.4679
vn -0.8693 0.1226 0.4788
vn 0.0841 -0.8807 -0.4661
vn 0.0835 -0.8813 -0.4652
vn 0.0302 -0.5115 0.8588
vn -0.9939 -0.1040 0.0365
vn -0.9939 -0.1040 0.0365
vn -0.9939 -0.1040 0.0365
vn 0.0888 -0.7678 0.6345
vn 0.0888 -0.7678 0.6345
vn -0.9916 -0.1121 -0.0644
vn -0.9913 -0.1226 -0.0475
vn 0.0965 -0.8621 -0.4974
vn -0.9835 -0.1792 -0.0258
vn 0.0824 -0.7933 0.6032
vn 0.0824 -0.7933 0.6032
vn 0.0824 -0.7933 0.6032
vn -0.5746 -0.7594 -0.3050
vn -0.5746 -0.7594 -0.3050
vn -0.5746 -0.7594 -0.3050
vn 0.0576 -0.5645 0.8234
vn 0.1002 -0.7389 0.6663
vn 0.1153 -0.7383 0.6646
vn 0.0451 -0.5444 0.8376
vn 0.0000 1.0000 0.0000
vn 0.0000 1.0000 0.0000
vn 0.0000 1.0000 0.0000
vn 0.0000 1.0000 0.0000
vn 0.0000 1.0000 0.0000
vn 0.0000 1.0000 0.0000
vn 0.0000 1.0000 0.0000
vn 0.0000 1.0000 0.0000
vn 0.0000 1.0000 0.0000
vn 0.0000 1.0000 0.0000
vn 0.0000 1.0000 0.0000
vn 0.0000 1.0000 0.0000
vn 0.0000 1.0000 0.0000
vn 0.0000 1.0000 0.0000
vn 0.0000 1.0000 0.0000
vn 0.0000 1.0000 0.0000
f 249/249/249 250/250/250 251/251/251
f 252/252/252 253/253/253 254/254/254
f 255/255/255 256/256/256 257/257/257
f 258/258/258 259/259/259 260/260/260
f 261/261/261 262/262/262 263/263/263
f 264/264/264 265/265/265 266/266/266
f 267/267/267 268/268/268 269/269/269
f 269/269/269 268/268/268 270/270/270
f 255/255/255 271/271/271 272/272/272
f 273/273/273 274/274/274 275/275/275
f 253/253/253 276/276/276 254/254/254
f 277/277/277 278/278/278 279/279/279
f 255/255/255 272/272/272 256/256/256
f 280/280/280 254/254/254 276/276/276
f 281/281/281 275/275/275 274/274/274
f 282/282/282 280/280/280 283/283/283
f 280/280/280 282/282/282 284/284/284
f 285/285/285 286/286/286 274/274/274
f 280/280/280 276/276/276 283/283/283
f 287/287/287 288/288/288 289/289/289
f 272/272/272 290/290/290 256/256/256
f 291/291/291 261/261/261 263/263/263
f 292/292/292 281/281/281 274/274/274
f 285/285/285 293/293/293 286/286/286
f 293/293/293 294/294/294 286/286/286
f 286/286/286 295/295/295 292/292/292
f 296/296/296 297/297/297 298/298/298
f 299/299/299 282/282/282 283/283/283
f 286/286/286 292/292/292 274/274/274
f 262/262/262 300/300/300 263/263/263
f 293/293/293 301/301/301 294/294/294
f 302/302/302 303/303/303 304/304/304
f 298/298/298 297/297/297 305/305/305
f 306/306/306 298/298/298 305/305/305
f 307/307/307 308/308/308 282/282/282
f 309/309/309 310/310/310 311/311/311
f 312/312/312 313/313/313 314/314/314
f 315/315/315 316/316/316 317/317/317
f 282/282/282 299/299/299 307/307/307
f 318/318/318 319/319/319 320/320/320
f 319/319/319 321/321/321 320/320/320
f 306/306/306 305/305/305 322/322/322
f 309/309/309 323/323/323 310/310/310
f 265/265/265 264/264/264 324/324/324
f 272/272/272 325/325/325 326/326/326
f 272/272/272 327/327/327 328/328/328
f 329/329/329 272/272/272 271/271/271
f 323/323/323 330/330/330 310/310/310
f 272/272/272 329/329/329 327/327/327
f 331/331/331 323/323/323 309/309/309
f 332/332/332 318/318/318 320/320/320
f 333/333/333 318/318/318 332/332/332
f 263/263/263 334/334/334 291/291/291
f 335/335/335 336/336/336 337/337/337
f 338/338/338 339/339/339 340/340/340
f 341/341/341 342/342/342 272/272/272
f 343/343/343 330/330/330 323/323/323
f 332/332/332 344/344/344 333/333/333
f 345/345/345 272/272/272 328/328/328
f 272/272/272 345/345/345 341/341/341
f 342/342/342 325/325/325 272/272/272
f 339/339/339 346/346/346 340/340/340
f 343/343/343 347/347/347 330/330/330
f 334/334/334 348/348/348 291/291/291
f 330/330/330 347/347/347 349/349/349
f 350/350/350 351/351/351 352/352/352
f 353/353/353 354/354/354 355/355/355
f 356/356/356 357/357/357 358/358/358
f 354/354/354 359/359/359 355/355/355
f 265/265/265 360/360/360 361/361/361
f 343/343/343 362/362/362 347/347/347
f 344/344/344 353/353/353 333/333/333
f 346/346/346 363/363/363 364/364/364
f 351/351/351 365/365/365 352/352/352
f 353/353/353 355/355/355 333/333/333
f 350/350/350 366/366/366 351/351/351
f 367/367/367 337/337/337 368/368/368
f 339/339/339 369/369/369 346/346/346
f 370/370/370 371/371/371 372/372/372
f 324/324/324 360/360/360 265/265/265
f 373/373/373 364/364/364 363/363/363
f 363/363/363 346/346/346 374/374/374
f 375/375/375 376/376/376 377/377/377
f 378/378/378 379/379/379 371/371/371
f 380/380/380 381/381/381 382/382/382
f 383/383/383 371/371/371 384/384/384
f 385/385/385 371/371/371 379/379/379
f 384/384/384 371/371/371 385/385/385
f 358/358/358 386/386/386 356/356/356
f 383/383/383 372/372/372 371/371/371
f 385/385/385 379/379/379 387/387/387
f 361/361/361 388/388/388 389/389/389
f 390/390/390 382/382/382 381/381/381
f 391/391/391 392/392/392 393/393/393
f 385/385/385 387/387/387 394/394/394
f 390/390/390 395/395/395 396/396/396
f 388/388/388 361/361/361 360/360/360
f 397/397/397 398/398/398 399/399/399
f 397/397/397 399/399/399 400/400/400
f 394/394/394 401/401/401 385/385/385
f 402/402/402 401/401/401 394/394/394
f 403/403/403 404/404/404 405/405/405
f 406/406/406 407/407/407 408/408/408
f 401/401/401 402/402/402 409/409/409
f 374/374/374 346/346/346 369/369/369
f 410/410/410 411/411/411 404/404/404
f 408/408/408 412/412/412 413/413/413
f 402/402/402 414/414/414 409/409/409
f 1/1/1 2/2/2 3/3/3
f 4/4/4 2/2/2 1/1/1
f 401/401/401 409/409/409 415/415/415
f 409/409/409 414/414/414 416/416/416
f 417/417/417 418/418/418 419/419/419
f 5/5/5 2/2/2 4/4/4
f 420/420/420 421/421/421 422/422/422
f 413/413/413 423/423/423 408/408/408
f 424/424/424 425/425/425 426/426/426
f 408/408/408 407/407/407 412/412/412
f 2/2/2 6/6/6 3/3/3
f 367/367/367 427/427/427 337/337/337
f 7/7/7 2/2/2 5/5/5
f 7/7/7 8/8/8 2/2/2
f 428/428/428 317/317/317 316/316/316
f 416/416/416 429/429/429 409/409/409
f 9/9/9 10/10/10 11/11/11
f 409/409/409 429/429/429 430/430/430
f 431/431/431 432/432/432 433/433/433
f 12/12/12 13/13/13 14/14/14
f 413/413/413 434/434/434 423/423/423
f 15/15/15 16/16/16 17/17/17
f 18/18/18 6/6/6 2/2/2
f 434/434/434 435/435/435 423/423/423
f 9/9/9 11/11/11 19/19/19
f 436/436/436 433/433/433 432/432/432
f 437/437/437 438/438/438 439/439/439
f 440/440/440 441/441/441 442/442/442
f 443/443/443 367/367/367 436/436/436
f 432/432/432 431/431/431 444/444/444
f 430/430/430 429/429/429 445/445/445
f 446/446/446 447/447/447 448/448/448
f 393/393/393 392/392/392 449/449/449
f 20/20/20 21/21/21 22/22/22
f 401/401/401 415/415/415 450/450/450
f 451/451/451 452/452/452 453/453/453
f 454/454/454 455/455/455 456/456/456
f 9/9/9 19/19/19 23/23/23
f 17/17/17 16/16/16 24/24/24
f 457/457/457 458/458/458 459/459/459
f 25/25/25 26/26/26 27/27/27
f 460/460/460 461/461/461 462/462/462
f 463/463/463 464/464/464 465/465/465
f 466/466/466 458/458/458 457/457/457
f 28/28/28 2/2/2 29/29/29
f 30/30/30 9/9/9 23/23/23
f 31/31/31 23/23/23 19/19/19
f 443/443/443 436/436/436 432/432/432
f 467/467/467 468/468/468 469/469/469
f 32/32/32 33/33/33 34/34/34
f 18/18/18 2/2/2 28/28/28
f 26/26/26 17/17/17 24/24/24
f 470/470/470 334/334/334 471/471/471
f 426/426/426 425/425/425 472/472/472
f 473/473/473 474/474/474 475/475/475
f 26/26/26 24/24/24 35/35/35
f 476/476/476 477/477/477 478/478/478
f 479/479/479 480/480/480 462/462/462
f 459/459/459 458/458/458 481/481/481
f 479/479/479 462/462/462 461/461/461
f 482/482/482 405/405/405 404/404/404
f 451/451/451 483/483/483 484/484/484
f 485/485/485 486/486/486 459/459/459
f 485/485/485 459/459/459 481/481/481
f 36/36/36 37/37/37 38/38/38
f 39/39/39 40/40/40 41/41/41
f 42/42/42 43/43/43 44/44/44
f 487/487/487 488/488/488 489/489/489
f 451/451/451 453/453/453 490/490/490
f 45/45/45 27/27/27 26/26/26
f 13/13/13 46/46/46 14/14/14
f 35/35/35 47/47/47 48/48/48
f 35/35/35 49/49/49 47/47/47
f 427/427/427 367/367/367 443/443/443
f 489/489/489 488/488/488 491/491/491
f 50/50/50 51/51/51 52/52/52
f 53/53/53 54/54/54 55/55/55
f 49/49/49 35/35/35 24/24/24
f 392/392/392 492/492/492 449/449/449
f 53/53/53 55/55/55 56/56/56
f 40/40/40 57/57/57 41/41/41
f 58/58/58 59/59/59 60/60/60
f 354/354/354 493/493/493 359/359/359
f 494/494/494 495/495/495 496/496/496
f 26/26/26 35/35/35 45/45/45
f 497/497/497 498/498/498 499/499/499
f 482/482/482 404/404/404 411/411/411
f 500/500/500 501/501/501 502/502/502
f 51/51/51 61/61/61 52/52/52
f 32/32/32 34/34/34 62/62/62
f 35/35/35 48/48/48 45/45/45
f 48/48/48 47/47/47 63/63/63
f 48/48/48 63/63/63 64/64/64
f 263/263/263 503/503/503 334/334/334
f 439/439/439 438/438/438 504/504/504
f 65/65/65 66/66/66 67/67/67
f 68/68/68 69/69/69 70/70/70
f 65/65/65 71/71/71 66/66/66
f 505/505/505 506/506/506 507/507/507
f 53/53/53 56/56/56 72/72/72
f 73/73/73 74/74/74 75/75/75
f 478/478/478 508/508/508 476/476/476
f 421/421/421 509/509/509 510/510/510
f 76/76/76 77/77/77 78/78/78
f 48/48/48 79/79/79 45/45/45
f 511/511/511 502/502/502 501/501/501
f 73/73/73 79/79/79 48/48/48
f 508/508/508 512/512/512 476/476/476
f 73/73/73 75/75/75 79/79/79
f 335/335/335 337/337/337 427/427/427
f 76/76/76 78/78/78 80/80/80
f 513/513/513 514/514/514 515/515/515
f 81/81/81 82/82/82 63/63/63
f 64/64/64 63/63/63 82/82/82
f 71/71/71 83/83/83 66/66/66
f 84/84/84 85/85/85 86/86/86
f 516/516/516 517/517/517 518/518/518
f 390/390/390 381/381/381 519/519/519
f 490/490/490 520/520/520 451/451/451
f 471/471/471 334/334/334 503/503/503
f 521/521/521 522/522/522 523/523/523
f 87/87/87 88/88/88 89/89/89
f 524/524/524 525/525/525 526/526/526
f 493/493/493 354/354/354 527/527/527
f 521/521/521 528/528/528 529/529/529
f 530/530/530 531/531/531 523/523/523
f 532/532/532 533/533/533 534/534/534
f 522/522/522 521/521/521 529/529/529
f 523/523/523 522/522/522 530/530/530
f 421/421/421 510/510/510 422/422/422
f 12/12/12 90/90/90 91/91/91
f 89/89/89 92/92/92 87/87/87
f 13/13/13 12/12/12 91/91/91
f 447/447/447 535/535/535 448/448/448
f 67/67/67 66/66/66 93/93/93
f 536/536/536 537/537/537 538/538/538
f 539/539/539 540/540/540 541/541/541
f 520/520/520 542/542/542 451/451/451
f 543/543/543 544/544/544 545/545/545
f 37/37/37 94/94/94 38/38/38
f 541/541/541 540/540/540 546/546/546
f 547/547/547 504/504/504 548/548/548
f 527/527/527 549/549/549 493/493/493
f 734/734/734 735/735/735 736/736/736
f 51/51/51 95/95/95 61/61/61
f 499/499/499 550/550/550 497/497/497
f 551/551/551 552/552/552 553/553/553
f 62/62/62 96/96/96 32/32/32
f 554/554/554 553/553/553 552/552/552
f 425/425/425 555/555/555 472/472/472
f 499/499/499 556/556/556 550/550/550
f 557/557/557 558/558/558 559/559/559
f 560/560/560 561/561/561 562/562/562
f 563/563/563 564/564/564 565/565/565
f 562/562/562 561/561/561 566/566/566
f 567/567/567 471/471/471 503/503/503
f 557/557/557 559/559/559 568/568/568
f 339/339/339 569/569/569 369/369/369
f 570/570/570 571/571/571 572/572/572
f 573/573/573 574/574/574 575/575/575
f 576/576/576 577/577/577 578/578/578
f 579/579/579 722/722/722 723/723/723
f 580/580/580 581/581/581 582/582/582
f 395/395/395 390/390/390 519/519/519
f 99/99/99 100/100/100 101/101/101
f 37/37/37 102/102/102 94/94/94
f 98/98/98 97/97/97 103/103/103
f 583/583/583 584/584/584 585/585/585
f 586/586/586 559/559/559 558/558/558
f 587/587/587 588/588/588 589/589/589
f 590/590/590 534/534/534 533/533/533
f 586/586/586 591/591/591 559/559/559
f 496/496/496 592/592/592 494/494/494
f 504/504/504 593/593/593 548/548/548
f 519/519/519 594/594/594 395/395/395
f 104/104/104 105/105/105 106/106/106
f 595/595/595 584/584/584 583/583/583
f 580/580/580 596/596/596 581/581/581
f 593/593/593 504/504/504 438/438/438
f 411/411/411 597/597/597 598/598/598
f 410/410/410 599/599/599 600/600/600
f 107/107/107 101/101/101 100/100/100
f 601/601/601 574/574/574 602/602/602
f 108/108/108 109/109/109 110/110/110
f 584/584/584 595/595/595 603/603/603
f 508/508/508 604/604/604 512/512/512
f 605/605/605 601/601/601 602/602/602
f 597/597/597 411/411/411 410/410/410
f 591/591/591 606/606/606 559/559/559
f 595/595/595 607/607/607 603/603/603
f 451/451/451 542/542/542 483/483/483
f 596/596/596 607/607/607 581/581/581
f 608/608/608 609/609/609 610/610/610
f 443/443/443 611/611/611 427/427/427
f 612/612/612 724/724/724 613/613/613
f 614/614/614 615/615/615 616/616/616
f 600/600/600 617/617/617 410/410/410
f 596/596/596 618/618/618 607/607/607
f 612/612/612 613/613/613 619/619/619
f 614/614/614 620/620/620 615/615/615
f 594/594/594 621/621/621 395/395/395
f 502/502/502 622/622/622 500/500/500
f 87/87/87 92/92/92 111/111/111
f 503/503/503 263/263/263 623/623/623
f 478/478/478 624/624/624 508/508/508
f 102/102/102 37/37/37 112/112/112
f 625/625/625 626/626/626 627/627/627
f 601/601/601 605/605/605 628/628/628
f 13/13/13 113/113/113 114/114/114
f 629/629/629 630/630/630 631/631/631
f 62/62/62 115/115/115 96/96/96
f 632/632/632 633/633/633 634/634/634
f 724/724/724 635/635/635 613/613/613
f 605/605/605 636/636/636 628/628/628
f 637/637/637 638/638/638 639/639/639
f 116/116/116 106/106/106 105/105/105
f 117/117/117 107/107/107 100/100/100
f 619/619/619 613/613/613 640/640/640
f 641/641/641 630/630/630 642/642/642
f 641/641/641 631/631/631 630/630/630
f 641/641/641 643/643/643 631/631/631
f 628/628/628 636/636/636 644/644/644
f 603/603/603 645/645/645 725/725/725
f 603/603/603 607/607/607 645/645/645
f 646/646/646 641/641/641 642/642/642
f 613/613/613 647/647/647 640/640/640
f 427/427/427 611/611/611 648/648/648
f 649/649/649 650/650/650 651/651/651
f 652/652/652 648/648/648 611/611/611
f 653/653/653 574/574/574 601/601/601
f 619/619/619 654/654/654 655/655/655
f 510/510/510 509/509/509 656/656/656
f 118/118/118 119/119/119 245/245/245
f 657/657/657 658/658/658 659/659/659
f 522/522/522 660/660/660 661/661/661
f 662/662/662 663/663/663 664/664/664
f 649/649/649 651/651/651 665/665/665
f 648/648/648 652/652/652 666/666/666
f 617/617/617 597/597/597 410/410/410
f 645/645/645 607/607/607 667/667/667
f 668/668/668 640/640/640 669/669/669
f 116/116/116 105/105/105 120/120/120
f 121/121/121 122/122/122 123/123/123
f 619/619/619 640/640/640 654/654/654
f 647/647/647 670/670/670 640/640/640
f 618/618/618 667/667/667 607/607/607
f 668/668/668 654/654/654 640/640/640
f 124/124/124 125/125/125 126/126/126
f 92/92/92 127/127/127 111/111/111
f 109/109/109 128/128/128 110/110/110
f 734/734/734 737/737/737 735/735/735
f 654/654/654 671/671/671 655/655/655
f 672/672/672 673/673/673 618/618/618
f 667/667/667 618/618/618 674/674/674
f 670/670/670 675/675/675 640/640/640
f 657/657/657 676/676/676 658/658/658
f 651/651/651 677/677/677 665/665/665
f 129/129/129 61/61/61 95/95/95
f 674/674/674 618/618/618 673/673/673
f 597/597/597 678/678/678 598/598/598
f 654/654/654 668/668/668 679/679/679
f 503/503/503 623/623/623 680/680/680
f 127/127/127 92/92/92 130/130/130
f 681/681/681 726/726/726 682/682/682
f 683/683/683 674/674/674 673/673/673
f 673/673/673 684/684/684 683/683/683
f 674/674/674 683/683/683 685/685/685
f 671/671/671 654/654/654 686/686/686
f 632/632/632 687/687/687 633/633/633
f 653/653/653 575/575/575 574/574/574
f 91/91/91 113/113/113 13/13/13
f 683/683/683 684/684/684 688/688/688
f 674/674/674 689/689/689 690/690/690
f 674/674/674 685/685/685 689/689/689
f 131/131/131 114/114/114 113/113/113
f 691/691/691 683/683/683 688/688/688
f 654/654/654 679/679/679 686/686/686
f 533/533/533 692/692/692 590/590/590
f 693/693/693 590/590/590 694/694/694
f 102/102/102 112/112/112 132/132/132
f 695/695/695 686/686/686 679/679/679
f 696/696/696 697/697/697 698/698/698
f 661/661/661 530/530/530 522/522/522
f 133/133/133 134/134/134 135/135/135
f 117/117/117 100/100/100 136/136/136
f 682/682/682 699/699/699 681/681/681
f 130/130/130 137/137/137 127/127/127
f 510/510/510 656/656/656 700/700/700
f 123/123/123 122/122/122 138/138/138
f 701/701/701 702/702/702 703/703/703
f 139/139/139 140/140/140 141/141/141
f 633/633/633 697/697/697 696/696/696
f 639/639/639 638/638/638 704/704/704
f 687/687/687 697/697/697 633/633/633
f 698/698/698 701/701/701 705/705/705
f 705/705/705 696/696/696 698/698/698
f 692/692/692 694/694/694 590/590/590
f 115/115/115 62/62/62 142/142/142
f 706/706/706 707/707/707 708/708/708
f 143/143/143 144/144/144 145/145/145
f 709/709/709 710/710/710 711/711/711
f 701/701/701 703/703/703 705/705/705
f 145/145/145 144/144/144 146/146/146
f 141/141/141 147/147/147 139/139/139
f 727/727/727 708/708/708 712/712/712
f 130/130/130 148/148/148 137/137/137
f 149/149/149 150/150/150 151/151/151
f 713/713/713 709/709/709 711/711/711
f 714/714/714 712/712/712 707/707/707
f 149/149/149 152/152/152 150/150/150
f 136/136/136 100/100/100 153/153/153
f 154/154/154 155/155/155 156/156/156
f 157/157/157 158/158/158 142/142/142
f 137/137/137 148/148/148 159/159/159
f 707/707/707 712/712/712 708/708/708
f 160/160/160 161/161/161 162/162/162
f 712/712/712 714/714/714 715/715/715
f 120/120/120 163/163/163 116/116/116
f 164/164/164 165/165/165 166/166/166
f 161/161/161 167/167/167 162/162/162
f 115/115/115 142/142/142 158/158/158
f 682/682/682 716/716/716 699/699/699
f 682/682/682 717/717/717 716/716/716
f 522/522/522 718/718/718 660/660/660
f 168/168/168 148/148/148 130/130/130
f 150/150/150 152/152/152 169/169/169
f 170/170/170 171/171/171 172/172/172
f 115/115/115 158/158/158 173/173/173
f 115/115/115 173/173/173 174/174/174
f 169/169/169 152/152/152 175/175/175
f 173/173/173 158/158/158 176/176/176
f 166/166/166 177/177/177 178/178/178
f 179/179/179 136/136/136 153/153/153
f 180/180/180 181/181/181 182/182/182
f 728/728/728 729/729/729 730/730/730
f 166/166/166 183/183/183 177/177/177
f 153/153/153 184/184/184 179/179/179
f 246/246/246 185/185/185 186/186/186
f 165/165/165 183/183/183 166/166/166
f 148/148/148 168/168/168 187/187/187
f 188/188/188 189/189/189 190/190/190
f 179/179/179 191/191/191 192/192/192
f 193/193/193 187/187/187 168/168/168
f 194/194/194 181/181/181 180/180/180
f 195/195/195 178/178/178 177/177/177
f 196/196/196 197/197/197 198/198/198
f 199/199/199 200/200/200 201/201/201
f 719/719/719 720/720/720 721/721/721
f 179/179/179 184/184/184 191/191/191
f 202/202/202 203/203/203 204/204/204
f 205/205/205 202/202/202 204/204/204
f 206/206/206 195/195/195 177/177/177
f 205/205/205 247/247/247 202/202/202
f 248/248/248 247/247/247 207/207/207
f 208/208/208 95/95/95 209/209/209
f 247/247/247 205/205/205 207/207/207
f 95/95/95 208/208/208 129/129/129
f 210/210/210 211/211/211 212/212/212
f 248/248/248 207/207/207 213/213/213
f 214/214/214 215/215/215 216/216/216
f 207/207/207 217/217/217 213/213/213
f 103/103/103 218/218/218 98/98/98
f 207/207/207 219/219/219 217/217/217
f 220/220/220 221/221/221 222/222/222
f 223/223/223 224/224/224 225/225/225
f 731/731/731 732/732/732 733/733/733
f 220/220/220 222/222/222 226/226/226
f 217/217/217 227/227/227 213/213/213
f 228/228/228 229/229/229 230/230/230
f 232/232/232 226/226/226 222/222/222
f 229/229/229 228/228/228 233/233/233
f 231/231/231 213/213/213 227/227/227
f 235/235/235 224/224/224 236/236/236
f 229/229/229 233/233/233 234/234/234
f 237/237/237 238/238/238 239/239/239
f 235/235/235 225/225/225 224/224/224
f 240/240/240 241/241/241 242/242/242
f 243/243/243 242/242/242 244/244/244
f 240/240/240 242/242/242 243/243/243
f 738/738/738 739/739/739 740/740/740
f 738/738/738 740/740/740 739/739/739
f 738/738/738 740/740/740 741/741/741
f 738/738/738 741/741/741 740/740/740
f 738/738/738 741/741/741 742/742/742
f 738/738/738 742/742/742 741/741/741
f 738/738/738 742/742/742 743/743/743
f 738/738/738 743/743/743 742/742/742
f 738/738/738 743/743/743 744/744/744
f 738/738/738 744/744/744 743/743/743
f 738/738/738 744/744/744 745/745/745
f 738/738/738 745/745/745 744/744/744
f 738/738/738 745/745/745 746/746/746
f 738/738/738 746/746/746 745/745/745
f 738/738/738 746/746/746 747/747/747
f 738/738/738 747/747/747 746/746/746
f 738/738/738 747/747/747 748/748/748
f 738/738/738 748/748/748 747/747/747
f 738/738/738 748/748/748 739/739/739
f 738/738/738 739/739/739 748/748/748
f 749/749/749 750/750/750 751/751/751
f 749/749/749 751/751/751 750/750/750
f 749/749/749 751/751/751 752/752/752
f 749/749/749 752/752/752 751/751/751
f 749/749/749 752/752/752 753/753/753
f 749/749/749 753/753/753 752/752/752
f 749/749/749 753/753/753 750/750/750
f 749/749/749 750/750/750 753/753/753
