o tail_1
v -0.15642 2.81983 1.28561
v -0.16143 2.68499 1.49145
v -0.15247 2.83586 1.46238
v -0.20857 2.88501 1.60442
v -0.16143 2.68499 1.49145
v -0.20986 2.61403 1.60045
v -0.48074 2.69802 1.09382
v -0.55287 2.68676 1.08906
v -0.57542 2.72917 1.15060
v -0.48074 2.69802 1.09382
v -0.57542 2.72917 1.15060
v -0.51777 2.73803 1.14600
v -0.48074 2.69802 1.09382
v -0.51777 2.73803 1.14600
v -0.47537 2.79987 1.08935
v -0.20986 2.61403 1.60045
v -0.20938 2.62027 1.73970
v -0.20857 2.88501 1.60442
v -0.20986 2.61403 1.60045
v -0.16143 2.68499 1.49145
v -0.14844 2.58084 1.55085
v -0.20986 2.61403 1.60045
v -0.14844 2.58084 1.55085
v -0.20938 2.62027 1.73970
v -0.50236 2.76508 1.22269
v -0.47537 2.79987 1.08935
v -0.51777 2.73803 1.14600
v -0.50236 2.76508 1.22269
v -0.53783 2.57137 1.28610
v -0.47738 2.55659 1.29344
v -0.50236 2.76508 1.22269
v -0.47738 2.55659 1.29344
v -0.46404 2.79377 1.28503
v -0.14844 2.58084 1.55085
v -0.14698 2.32532 1.61579
v -0.08016 2.44588 1.64777
v -0.60268 2.68670 1.07982
v -0.60812 2.56705 1.19149
v -0.55287 2.68676 1.08906
v -0.60812 2.56705 1.19149
v -0.57542 2.72917 1.15060
v -0.55287 2.68676 1.08906
v -0.20938 2.62027 1.73970
v -0.18657 2.74594 1.70876
v -0.20857 2.88501 1.60442
v -0.59433 2.73781 1.22987
v -0.57542 2.72917 1.15060
v -0.60812 2.56705 1.19149
v -0.59433 2.73781 1.22987
v -0.60812 2.56705 1.19149
v -0.60664 2.50346 1.23244
v -0.59433 2.73781 1.22987
v -0.50236 2.76508 1.22269
v -0.51777 2.73803 1.14600
v -0.59433 2.73781 1.22987
v -0.51777 2.73803 1.14600
v -0.57542 2.72917 1.15060
v -0.59433 2.73781 1.22987
v -0.60664 2.50346 1.23244
v -0.53783 2.57137 1.28610
v -0.59433 2.73781 1.22987
v -0.53783 2.57137 1.28610
v -0.50236 2.76508 1.22269
v 0.20413 2.87372 1.65521
v 0.20573 2.62323 1.74589
v 0.20761 2.72806 1.59433
v 0.20489 2.58813 1.60030
v 0.06338 2.58281 1.55376
v 0.07940 2.46792 1.65330
v 0.20489 2.58813 1.60030
v 0.07940 2.46792 1.65330
v 0.13815 2.45237 1.61444
v 0.20489 2.58813 1.60030
v 0.20573 2.62323 1.74589
v 0.06338 2.58281 1.55376
v 0.20489 2.58813 1.60030
v 0.14298 2.57279 1.51793
v 0.20261 2.59692 1.54429
v 0.14298 2.57279 1.51793
v 0.14841 2.81951 1.48627
v 0.20261 2.59692 1.54429
v 0.20489 2.58813 1.60030
v 0.13815 2.45237 1.61444
v 0.13811 2.43351 1.52764
v 0.20489 2.58813 1.60030
v 0.13811 2.43351 1.52764
v 0.14298 2.57279 1.51793
v 0.20261 2.59692 1.54429
v 0.20761 2.72806 1.59433
v 0.20489 2.58813 1.60030
v 0.48814 2.77330 1.22292
v 0.46061 2.86362 1.20683
v 0.42853 2.76057 1.28299
v 0.48814 2.77330 1.22292
v 0.47932 2.75066 1.10322
v 0.46061 2.86362 1.20683
v 0.48814 2.77330 1.22292
v 0.54492 2.71575 1.11339
v 0.47932 2.75066 1.10322
v 0.48814 2.77330 1.22292
v 0.42853 2.76057 1.28299
v 0.39655 2.59883 1.29432
v 0.48814 2.77330 1.22292
v 0.39655 2.59883 1.29432
v 0.46946 2.60696 1.28764
v 0.20573 2.62323 1.74589
v 0.20489 2.58813 1.60030
v 0.20761 2.72806 1.59433
v -0.15562 2.10095 1.58073
v -0.15508 2.11902 1.50409
v -0.24132 2.04990 1.59494
v -0.15562 2.10095 1.58073
v -0.24132 2.04990 1.59494
v -0.16352 2.02249 1.63604
v 0.60220 2.78686 1.21378
v 0.60029 2.68697 1.09890
v 0.54492 2.71575 1.11339
v 0.60220 2.78686 1.21378
v 0.54492 2.71575 1.11339
v 0.48814 2.77330 1.22292
v 0.60220 2.78686 1.21378
v 0.59921 2.62071 1.27262
v 0.60029 2.68697 1.09890
v 0.60220 2.78686 1.21378
v 0.48814 2.77330 1.22292
v 0.46946 2.60696 1.28764
v 0.60220 2.78686 1.21378
v 0.46946 2.60696 1.28764
v 0.59921 2.62071 1.27262
v -0.38622 2.01989 1.39788
v -0.47331 1.88605 1.39508
v -0.47588 1.88055 1.23715
v -0.38622 2.01989 1.39788
v -0.31042 2.06012 1.44304
v -0.15187 2.09827 1.40134
v -0.38622 2.01989 1.39788
v -0.15187 2.09827 1.40134
v -0.15201 2.27706 1.33416
v -0.38622 2.01989 1.39788
v -0.42873 1.79575 1.41840
v -0.33466 1.90294 1.45078
v -0.38622 2.01989 1.39788
v -0.33466 1.90294 1.45078
v -0.31042 2.06012 1.44304
v -0.31595 2.07771 1.55980
v -0.15508 2.11902 1.50409
v -0.15187 2.09827 1.40134
v -0.31595 2.07771 1.55980
v -0.15187 2.09827 1.40134
v -0.31042 2.06012 1.44304
v -0.31595 2.07771 1.55980
v -0.31042 2.06012 1.44304
v -0.33993 1.95913 1.51899
v -0.31595 2.07771 1.55980
v -0.33993 1.95913 1.51899
v -0.34081 2.00387 1.58440
v -0.31595 2.07771 1.55980
v -0.34081 2.00387 1.58440
v -0.24132 2.04990 1.59494
v -0.31595 2.07771 1.55980
v -0.24132 2.04990 1.59494
v -0.15508 2.11902 1.50409
v -0.34081 2.00387 1.58440
v -0.42655 1.89877 1.61787
v -0.24132 2.04990 1.59494
v -0.49088 2.30348 1.29436
v -0.50156 1.99620 1.09922
v -0.49163 1.99262 1.01963
v -0.49088 2.30348 1.29436
v -0.47694 1.87926 0.94234
v -0.47588 1.88055 1.23715
v -0.36338 1.87793 1.43220
v -0.43173 1.98328 1.58101
v -0.33993 1.95913 1.51899
v -0.36338 1.87793 1.43220
v -0.33993 1.95913 1.51899
v -0.33466 1.90294 1.45078
v 0.14750 2.12065 1.59373
v 0.14598 2.17666 1.49056
v 0.13811 2.43351 1.52764
v 0.14750 2.12065 1.59373
v 0.16298 2.11067 1.58273
v 0.14598 2.17666 1.49056
v -0.43173 1.98328 1.58101
v -0.34081 2.00387 1.58440
v -0.33993 1.95913 1.51899
v -0.43173 1.98328 1.58101
v -0.44141 1.87499 1.56781
v -0.42655 1.89877 1.61787
v -0.43173 1.98328 1.58101
v -0.42655 1.89877 1.61787
v -0.34081 2.00387 1.58440
v 0.47983 2.14324 1.22904
v 0.51454 2.32055 1.30077
v 0.47119 2.25488 1.32799
v 0.47983 2.14324 1.22904
v 0.60778 2.00285 1.07509
v 0.60591 2.24531 1.24936
v 0.47983 2.14324 1.22904
v 0.60591 2.24531 1.24936
v 0.51454 2.32055 1.30077
v 0.47983 2.14324 1.22904
v 0.47119 2.25488 1.32799
v 0.47867 2.06944 1.29187
v 0.15130 2.10325 1.41134
v 0.14598 2.17666 1.49056
v 0.15700 2.09567 1.46327
v -0.42873 1.79575 1.41840
v -0.43981 1.69680 1.47942
v -0.44261 1.82903 1.50201
v -0.42873 1.79575 1.41840
v -0.38622 2.01989 1.39788
v -0.42525 1.70463 1.10995
v -0.42873 1.79575 1.41840
v -0.42525 1.70463 1.10995
v -0.42391 1.65937 1.31926
v -0.42873 1.79575 1.41840
v -0.42391 1.65937 1.31926
v -0.39008 1.67991 1.37506
v 0.35065 2.04204 1.40985
v 0.29345 2.05725 1.46986
v 0.37045 1.94394 1.47918
v 0.35065 2.04204 1.40985
v 0.37045 1.94394 1.47918
v 0.39396 1.93102 1.42441
v 0.35065 2.04204 1.40985
v 0.39396 1.93102 1.42441
v 0.43506 1.96794 1.39926
v 0.35065 2.04204 1.40985
v 0.18052 2.10787 1.39625
v 0.29345 2.05725 1.46986
v 0.47867 2.06944 1.29187
v 0.49910 2.00251 1.09124
v 0.47983 2.14324 1.22904
v 0.38201 2.02600 1.58625
v 0.34097 2.02545 1.56458
v 0.38594 1.86466 1.64077
v 0.38201 2.02600 1.58625
v 0.38594 1.86466 1.64077
v 0.43556 1.87995 1.60158
v 0.46585 1.90299 1.39276
v 0.43506 1.96794 1.39926
v 0.39396 1.93102 1.42441
v 0.46585 1.90299 1.39276
v 0.39396 1.93102 1.42441
v 0.42488 1.78996 1.38227
v 0.46585 1.90299 1.39276
v 0.47314 1.90239 1.35041
v 0.43506 1.96794 1.39926
v 0.46585 1.90299 1.39276
v 0.42715 1.83765 1.27464
v 0.47314 1.90239 1.35041
v 0.46585 1.90299 1.39276
v 0.42488 1.78996 1.38227
v 0.42715 1.83765 1.27464
v 0.49910 2.00251 1.09124
v 0.60778 2.00285 1.07509
v 0.47983 2.14324 1.22904
v 0.49910 2.00251 1.09124
v 0.47867 2.06944 1.29187
v 0.47620 1.91043 1.02579
v -0.44434 1.41994 1.46189
v -0.38851 1.54420 1.43909
v -0.37725 1.42547 1.45356
v -0.44434 1.41994 1.46189
v -0.37725 1.42547 1.45356
v -0.38433 1.40294 1.50630
v -0.36612 1.52922 1.74226
v -0.33536 1.78193 1.66777
v -0.42655 1.89877 1.61787
v -0.36612 1.52922 1.74226
v -0.42655 1.89877 1.61787
v -0.43916 1.74563 1.64529
v 0.42488 1.78996 1.38227
v 0.43345 1.81679 1.48865
v 0.43298 1.67461 1.44022
v 0.42488 1.78996 1.38227
v 0.43298 1.67461 1.44022
v 0.41047 1.72514 1.38977
v 0.43298 1.67461 1.44022
v 0.34840 1.70554 1.38829
v 0.41047 1.72514 1.38977
v 0.42488 1.78996 1.38227
v 0.41047 1.72514 1.38977
v 0.42589 1.73502 1.36563
v -0.42091 1.42141 1.27724
v -0.38710 1.48539 1.30002
v -0.42381 1.43600 1.26286
v -0.37725 1.42547 1.45356
v -0.38851 1.54420 1.43909
v -0.32980 1.54949 1.40320
v -0.37725 1.42547 1.45356
v -0.32980 1.54949 1.40320
v -0.32892 1.39888 1.39013
v -0.41967 1.45410 1.11996
v -0.42091 1.42141 1.27724
v -0.42381 1.43600 1.26286
v -0.33020 1.41416 1.27871
v -0.38710 1.48539 1.30002
v -0.42091 1.42141 1.27724
v -0.33020 1.41416 1.27871
v -0.31749 1.37393 1.10580
v -0.31799 1.25160 1.42274
v -0.33020 1.41416 1.27871
v -0.31799 1.25160 1.42274
v -0.32892 1.39888 1.39013
v -0.43254 1.38637 1.60602
v -0.44434 1.41994 1.46189
v -0.38433 1.40294 1.50630
v -0.43254 1.38637 1.60602
v -0.38433 1.40294 1.50630
v -0.38275 1.37893 1.58206
v -0.43254 1.38637 1.60602
v -0.42488 1.37914 1.71688
v -0.43916 1.74563 1.64529
v -0.43254 1.38637 1.60602
v -0.38275 1.37893 1.58206
v -0.37850 1.18412 1.58874
v -0.38275 1.37893 1.58206
v -0.38433 1.40294 1.50630
v -0.37850 1.18412 1.58874
v 0.34840 1.70554 1.38829
v 0.43298 1.67461 1.44022
v 0.37109 1.42998 1.44508
v 0.34840 1.70554 1.38829
v 0.37109 1.42998 1.44508
v 0.32543 1.50904 1.39190
v -0.31799 1.25160 1.42274
v -0.37725 1.42547 1.45356
v -0.32892 1.39888 1.39013
v -0.31799 1.25160 1.42274
v -0.38433 1.40294 1.50630
v -0.37725 1.42547 1.45356
v -0.31799 1.25160 1.42274
v -0.35957 1.10740 1.48654
v -0.38433 1.40294 1.50630
v -0.31799 1.25160 1.42274
v -0.27766 1.12701 1.46634
v -0.35957 1.10740 1.48654
v 0.43414 1.43367 1.45043
v 0.43298 1.67461 1.44022
v 0.43056 1.45105 1.50745
v 0.43414 1.43367 1.45043
v 0.37109 1.42998 1.44508
v 0.43298 1.67461 1.44022
v 0.43414 1.43367 1.45043
v 0.43056 1.45105 1.50745
v 0.37374 1.39151 1.58111
v 0.43414 1.43367 1.45043
v 0.37374 1.39151 1.58111
v 0.37109 1.42998 1.44508
v -0.21877 1.22944 1.41131
v -0.31799 1.25160 1.42274
v -0.25522 1.27552 1.33641
v -0.21877 1.22944 1.41131
v -0.27766 1.12701 1.46634
v -0.31799 1.25160 1.42274
v 0.37109 1.42998 1.44508
v 0.37374 1.39151 1.58111
v 0.37306 1.27677 1.54191
v 0.37109 1.42998 1.44508
v 0.37306 1.27677 1.54191
v 0.31701 1.28966 1.38472
v 0.37109 1.42998 1.44508
v 0.31701 1.28966 1.38472
v 0.32543 1.50904 1.39190
v 0.42282 1.40566 1.59872
v 0.41269 1.30908 1.71396
v 0.39874 1.17707 1.64067
v 0.42282 1.40566 1.59872
v 0.37374 1.39151 1.58111
v 0.43056 1.45105 1.50745
v 0.42282 1.40566 1.59872
v 0.39874 1.17707 1.64067
v 0.37306 1.27677 1.54191
v 0.42282 1.40566 1.59872
v 0.37306 1.27677 1.54191
v 0.37374 1.39151 1.58111
v -0.35957 1.10740 1.48654
v -0.34210 1.08075 1.57334
v -0.37850 1.18412 1.58874
v -0.35957 1.10740 1.48654
v -0.37850 1.18412 1.58874
v -0.38433 1.40294 1.50630
v 0.42193 1.42576 1.26948
v 0.42493 1.43201 1.11011
v 0.41758 1.50611 1.29668
v 0.32917 1.41459 1.28362
v 0.32594 1.50452 1.32786
v 0.32543 1.50904 1.39190
v 0.32917 1.41459 1.28362
v 0.32543 1.50904 1.39190
v 0.31701 1.28966 1.38472
v 0.32917 1.41459 1.28362
v 0.32247 1.33378 1.29873
v 0.31458 1.34758 1.20558
v 0.32917 1.41459 1.28362
v 0.31458 1.34758 1.20558
v 0.32799 1.40307 1.19068
v 0.32917 1.41459 1.28362
v 0.31701 1.28966 1.38472
v 0.32247 1.33378 1.29873
v -0.21513 1.07884 1.44557
v -0.27766 1.12701 1.46634
v -0.21877 1.22944 1.41131
v -0.21513 1.07884 1.44557
v -0.25714 1.04542 1.59419
v -0.27766 1.12701 1.46634
v 0.42493 1.43201 1.11011
v 0.42193 1.42576 1.26948
v 0.39816 1.41679 1.10284
v -0.19764 0.90451 1.05682
v -0.21513 1.07884 1.44557
v -0.21877 1.22944 1.41131
v -0.19764 0.90451 1.05682
v -0.20349 0.89984 1.27299
v -0.21513 1.07884 1.44557
v 0.35071 1.20809 1.45586
v 0.30111 1.08056 1.52801
v 0.25750 1.21149 1.43575
v 0.35071 1.20809 1.45586
v 0.25750 1.21149 1.43575
v 0.31701 1.28966 1.38472
v 0.35071 1.20809 1.45586
v 0.31701 1.28966 1.38472
v 0.37306 1.27677 1.54191
v 0.39874 1.17707 1.64067
v 0.35071 1.20809 1.45586
v 0.37306 1.27677 1.54191
v 0.39874 1.17707 1.64067
v 0.35866 1.08412 1.72511
v 0.30111 1.08056 1.52801
v 0.39874 1.17707 1.64067
v 0.30111 1.08056 1.52801
v 0.35071 1.20809 1.45586
v -0.20349 0.89984 1.27299
v -0.19126 0.74720 1.31476
v -0.18986 0.73724 1.56580
v -0.19126 0.74720 1.31476
v 0.04502 0.74116 1.54895
v -0.18986 0.73724 1.56580
v 0.35866 1.08412 1.72511
v 0.25749 1.01175 1.65351
v 0.30111 1.08056 1.52801
v -0.18986 0.73724 1.56580
v -0.21241 0.90905 1.70724
v -0.20349 0.89984 1.27299
v -0.18986 0.73724 1.56580
v 0.04502 0.74116 1.54895
v 0.02753 0.66081 1.59401
v -0.18986 0.73724 1.56580
v 0.02753 0.66081 1.59401
v -0.17815 0.64513 1.61342
v -0.18986 0.73724 1.56580
v -0.17815 0.64513 1.61342
v -0.21241 0.90905 1.70724
v 0.19772 0.89887 1.27680
v 0.19331 0.84518 1.40055
v 0.15601 0.73658 1.56882
v 0.19772 0.89887 1.27680
v 0.15601 0.73658 1.56882
v 0.17042 0.75030 1.30857
v 0.15601 0.73658 1.56882
v 0.19046 0.79802 1.59678
v 0.17732 0.68320 1.68540
v 0.15601 0.73658 1.56882
v 0.17732 0.68320 1.68540
v 0.13453 0.64097 1.69400
v 0.15601 0.73658 1.56882
v 0.13453 0.64097 1.69400
v 0.15859 0.64417 1.60920
v 0.15601 0.73658 1.56882
v 0.15859 0.64417 1.60920
v 0.02753 0.66081 1.59401
v 0.15601 0.73658 1.56882
v 0.02753 0.66081 1.59401
v 0.04502 0.74116 1.54895
v 0.15859 0.64417 1.60920
v 0.13453 0.64097 1.69400
v 0.02753 0.66081 1.59401
v 0.61336 2.32328 1.09382
v 0.60029 2.68697 1.09890
v 0.59921 2.62071 1.27262
v 0.59921 2.62071 1.27262
v 0.60308 2.42907 1.28650
v 0.60591 2.24531 1.24936
v 0.59921 2.62071 1.27262
v 0.60591 2.24531 1.24936
v 0.61336 2.32328 1.09382
v 0.60308 2.42907 1.28650
v 0.59921 2.62071 1.27262
v 0.46946 2.60696 1.28764
v 0.60308 2.42907 1.28650
v 0.46946 2.60696 1.28764
v 0.51454 2.32055 1.30077
v 0.60308 2.42907 1.28650
v 0.51454 2.32055 1.30077
v 0.60591 2.24531 1.24936
v 0.51454 2.32055 1.30077
v 0.46946 2.60696 1.28764
v 0.47119 2.25488 1.32799
v 0.46946 2.60696 1.28764
v 0.43121 2.27178 1.35033
v 0.47119 2.25488 1.32799
v 0.43121 2.27178 1.35033
v 0.35425 2.40367 1.32193
v 0.35065 2.04204 1.40985
v 0.43121 2.27178 1.35033
v 0.35065 2.04204 1.40985
v 0.44881 2.17893 1.36579
v 0.43121 2.27178 1.35033
v 0.44881 2.17893 1.36579
v 0.47119 2.25488 1.32799
v 0.43121 2.27178 1.35033
v 0.46946 2.60696 1.28764
v 0.35425 2.40367 1.32193
v 0.35425 2.40367 1.32193
v 0.46946 2.60696 1.28764
v 0.39655 2.59883 1.29432
v 0.39655 2.59883 1.29432
v 0.18142 2.44271 1.31635
v 0.35425 2.40367 1.32193
v 0.39655 2.59883 1.29432
v 0.37300 2.75104 1.28759
v 0.17929 2.88254 1.29333
v 0.17929 2.88254 1.29333
v 0.18142 2.44271 1.31635
v 0.39655 2.59883 1.29432
v 0.18142 2.44271 1.31635
v 0.17929 2.88254 1.29333
v 0.14885 2.90619 1.31185
v 0.18142 2.44271 1.31635
v 0.14885 2.90619 1.31185
v 0.14621 2.42306 1.35353
v 0.18142 2.44271 1.31635
v 0.14621 2.42306 1.35353
v 0.14448 2.25710 1.35770
v 0.14448 2.25710 1.35770
v 0.18052 2.10787 1.39625
v 0.35065 2.04204 1.40985
v 0.14448 2.25710 1.35770
v 0.35425 2.40367 1.32193
v 0.18142 2.44271 1.31635
v 0.18052 2.10787 1.39625
v 0.15130 2.10325 1.41134
v 0.15700 2.09567 1.46327
v 0.18052 2.10787 1.39625
v 0.15700 2.09567 1.46327
v 0.27803 2.06782 1.47456
v 0.18052 2.10787 1.39625
v 0.27803 2.06782 1.47456
v 0.29345 2.05725 1.46986
v 0.27803 2.06782 1.47456
v 0.26535 2.08225 1.57933
v 0.34097 2.02545 1.56458
v 0.27803 2.06782 1.47456
v 0.34097 2.02545 1.56458
v 0.29345 2.05725 1.46986
v 0.26535 2.08225 1.57933
v 0.38594 1.86466 1.64077
v 0.34097 2.02545 1.56458
v 0.38594 1.86466 1.64077
v 0.26001 1.71970 1.68582
v 0.31979 1.55791 1.72181
v 0.38594 1.86466 1.64077
v 0.26535 2.08225 1.57933
v 0.16298 2.11067 1.58273
v 0.38594 1.86466 1.64077
v 0.16298 2.11067 1.58273
v 0.19092 1.92349 1.63719
v 0.38594 1.86466 1.64077
v 0.19092 1.92349 1.63719
v 0.19083 1.72692 1.68551
v 0.38594 1.86466 1.64077
v 0.19083 1.72692 1.68551
v 0.26001 1.71970 1.68582
v 0.19083 1.72692 1.68551
v 0.19092 1.92349 1.63719
v 0.14750 2.12065 1.59373
v 0.19083 1.72692 1.68551
v 0.14750 2.12065 1.59373
v 0.15685 1.69046 1.77070
v 0.19092 1.92349 1.63719
v 0.16298 2.11067 1.58273
v 0.14750 2.12065 1.59373
v 0.16298 2.11067 1.58273
v 0.26535 2.08225 1.57933
v 0.27803 2.06782 1.47456
v 0.27803 2.06782 1.47456
v 0.15700 2.09567 1.46327
v 0.16298 2.11067 1.58273
v 0.14448 2.25710 1.35770
v 0.15130 2.10325 1.41134
v 0.18052 2.10787 1.39625
v 0.14448 2.25710 1.35770
v 0.14621 2.42306 1.35353
v 0.13811 2.43351 1.52764
v 0.13811 2.43351 1.52764
v 0.14621 2.42306 1.35353
v 0.14298 2.57279 1.51793
v 0.14298 2.57279 1.51793
v 0.14621 2.42306 1.35353
v 0.14885 2.90619 1.31185
v 0.14298 2.57279 1.51793
v 0.14885 2.90619 1.31185
v 0.14841 2.81951 1.48627
v 0.13811 2.43351 1.52764
v 0.14598 2.17666 1.49056
v 0.15130 2.10325 1.41134
v 0.13811 2.43351 1.52764
v 0.15130 2.10325 1.41134
v 0.14448 2.25710 1.35770
v 0.37300 2.75104 1.28759
v 0.39655 2.59883 1.29432
v 0.42853 2.76057 1.28299
v 0.37300 2.75104 1.28759
v 0.42853 2.76057 1.28299
v 0.46061 2.86362 1.20683
v 0.14448 2.25710 1.35770
v 0.35065 2.04204 1.40985
v 0.35425 2.40367 1.32193
v 0.44881 2.17893 1.36579
v 0.35065 2.04204 1.40985
v 0.47382 2.07674 1.36728
v 0.44881 2.17893 1.36579
v 0.47382 2.07674 1.36728
v 0.47867 2.06944 1.29187
v 0.44881 2.17893 1.36579
v 0.47867 2.06944 1.29187
v 0.47119 2.25488 1.32799
v 0.47382 2.07674 1.36728
v 0.35065 2.04204 1.40985
v 0.43506 1.96794 1.39926
v 0.47382 2.07674 1.36728
v 0.43506 1.96794 1.39926
v 0.47314 1.90239 1.35041
v 0.47382 2.07674 1.36728
v 0.47314 1.90239 1.35041
v 0.47867 2.06944 1.29187
v 0.81520 2.66252 1.10581
v 0.91689 2.51793 1.11392
v 0.91386 2.68441 1.08546
v -0.20938 2.62027 1.73970
v -0.14844 2.58084 1.55085
v 0.06338 2.58281 1.55376
v -0.20938 2.62027 1.73970
v 0.06338 2.58281 1.55376
v 0.20573 2.62323 1.74589
v -0.14844 2.58084 1.55085
v 0.07940 2.46792 1.65330
v 0.06338 2.58281 1.55376
v -0.14844 2.58084 1.55085
v -0.08016 2.44588 1.64777
v 0.07940 2.46792 1.65330
v 0.07940 2.46792 1.65330
v -0.08016 2.44588 1.64777
v -0.08342 2.29083 1.65492
v 0.07940 2.46792 1.65330
v -0.08342 2.29083 1.65492
v 0.10760 2.30151 1.65814
v -0.08342 2.29083 1.65492
v -0.15071 2.14868 1.66011
v 0.14150 2.15963 1.66169
v -0.08342 2.29083 1.65492
v 0.14150 2.15963 1.66169
v 0.10760 2.30151 1.65814
v 0.14150 2.15963 1.66169
v 0.14750 2.12065 1.59373
v 0.10760 2.30151 1.65814
v -0.15071 2.14868 1.66011
v -0.15562 2.10095 1.58073
v -0.16352 2.02249 1.63604
v -0.15071 2.14868 1.66011
v -0.08342 2.29083 1.65492
v -0.14698 2.32532 1.61579
v -0.15071 2.14868 1.66011
v -0.14698 2.32532 1.61579
v -0.15562 2.10095 1.58073
v -0.08342 2.29083 1.65492
v -0.08016 2.44588 1.64777
v -0.14698 2.32532 1.61579
v -0.80254 2.70554 1.08647
v -0.92775 2.47848 1.10610
v -0.76939 2.47170 1.10865
v -0.62039 2.29295 1.04016
v -0.60773 2.22044 1.17753
v -0.60812 2.56705 1.19149
v -0.62039 2.29295 1.04016
v -0.60812 2.56705 1.19149
v -0.60268 2.68670 1.07982
v 0.19046 0.79802 1.59678
v 0.20551 0.94361 1.68764
v 0.20453 0.86084 1.75716
v 0.20551 0.94361 1.68764
v 0.21095 1.00235 1.62722
v 0.23721 0.98120 1.72282
v 0.21095 1.00235 1.62722
v 0.23988 1.05963 1.54378
v 0.25749 1.01175 1.65351
v 0.21095 1.00235 1.62722
v 0.25749 1.01175 1.65351
v 0.23721 0.98120 1.72282
v 0.23988 1.05963 1.54378
v 0.25750 1.21149 1.43575
v 0.30111 1.08056 1.52801
v 0.23988 1.05963 1.54378
v 0.30111 1.08056 1.52801
v 0.25749 1.01175 1.65351
v 0.23988 1.05963 1.54378
v 0.21095 1.00235 1.62722
v 0.20861 1.06702 1.41766
v 0.20861 1.06702 1.41766
v 0.20915 1.27610 1.27038
v 0.23988 1.05963 1.54378
v 0.20861 1.06702 1.41766
v 0.21095 1.00235 1.62722
v 0.20551 0.94361 1.68764
v 0.20551 0.94361 1.68764
v 0.19772 0.89887 1.27680
v 0.19806 1.12358 0.98535
v 0.20551 0.94361 1.68764
v 0.19806 1.12358 0.98535
v 0.20861 1.06702 1.41766
v 0.20915 1.27610 1.27038
v 0.23132 1.27867 1.32508
v 0.25750 1.21149 1.43575
v 0.20915 1.27610 1.27038
v 0.25750 1.21149 1.43575
v 0.23988 1.05963 1.54378
v 0.20915 1.27610 1.27038
v 0.20861 1.06702 1.41766
v 0.20495 1.30370 0.97633
v 0.20495 1.30370 0.97633
v 0.20861 1.06702 1.41766
v 0.19806 1.12358 0.98535
v 0.20495 1.30370 0.97633
v 0.21402 1.38967 1.05867
v 0.20915 1.27610 1.27038
v -0.32886 1.43381 1.11206
v -0.31749 1.37393 1.10580
v -0.33020 1.41416 1.27871
v -0.32886 1.43381 1.11206
v -0.33020 1.41416 1.27871
v -0.42091 1.42141 1.27724
v -0.32886 1.43381 1.11206
v -0.42091 1.42141 1.27724
v -0.41967 1.45410 1.11996
v -0.31749 1.37393 1.10580
v -0.23047 1.42214 1.03224
v -0.24931 1.32089 1.22718
v -0.24931 1.32089 1.22718
v -0.21350 1.35550 0.98880
v -0.21877 1.22944 1.41131
v -0.24931 1.32089 1.22718
v -0.21877 1.22944 1.41131
v -0.25522 1.27552 1.33641
v -0.24931 1.32089 1.22718
v -0.25522 1.27552 1.33641
v -0.31799 1.25160 1.42274
v -0.24931 1.32089 1.22718
v -0.31799 1.25160 1.42274
v -0.31749 1.37393 1.10580
v -0.21350 1.35550 0.98880
v -0.19764 0.90451 1.05682
v -0.21877 1.22944 1.41131
v 0.21402 1.38967 1.05867
v 0.31458 1.34758 1.20558
v 0.20915 1.27610 1.27038
v 0.31458 1.34758 1.20558
v 0.21402 1.38967 1.05867
v 0.29356 1.40092 1.07763
v 0.31458 1.34758 1.20558
v 0.32247 1.33378 1.29873
v 0.28378 1.29300 1.30981
v 0.31458 1.34758 1.20558
v 0.28378 1.29300 1.30981
v 0.23132 1.27867 1.32508
v 0.31458 1.34758 1.20558
v 0.23132 1.27867 1.32508
v 0.20915 1.27610 1.27038
v 0.28378 1.29300 1.30981
v 0.32247 1.33378 1.29873
v 0.31701 1.28966 1.38472
v 0.28378 1.29300 1.30981
v 0.31701 1.28966 1.38472
v 0.25750 1.21149 1.43575
v 0.28378 1.29300 1.30981
v 0.25750 1.21149 1.43575
v 0.23132 1.27867 1.32508
v 0.29356 1.40092 1.07763
v 0.32799 1.40307 1.19068
v 0.31458 1.34758 1.20558
v 0.29356 1.40092 1.07763
v 0.39816 1.41679 1.10284
v 0.32799 1.40307 1.19068
v 0.42610 1.58961 1.06464
v 0.42531 1.61535 1.33367
v 0.42493 1.43201 1.11011
v 0.42531 1.61535 1.33367
v 0.41758 1.50611 1.29668
v 0.42493 1.43201 1.11011
v 0.42531 1.61535 1.33367
v 0.41047 1.72514 1.38977
v 0.32917 1.41459 1.28362
v 0.42531 1.61535 1.33367
v 0.32917 1.41459 1.28362
v 0.41758 1.50611 1.29668
v 0.41047 1.72514 1.38977
v 0.34840 1.70554 1.38829
v 0.34247 1.61026 1.34874
v 0.41047 1.72514 1.38977
v 0.34247 1.61026 1.34874
v 0.32594 1.50452 1.32786
v 0.41047 1.72514 1.38977
v 0.32594 1.50452 1.32786
v 0.32917 1.41459 1.28362
v 0.42531 1.61535 1.33367
v 0.42589 1.73502 1.36563
v 0.41047 1.72514 1.38977
v 0.42589 1.73502 1.36563
v 0.42715 1.83765 1.27464
v 0.42488 1.78996 1.38227
v 0.42589 1.73502 1.36563
v 0.42531 1.61535 1.33367
v 0.42610 1.58961 1.06464
v 0.42715 1.83765 1.27464
v 0.42589 1.73502 1.36563
v 0.42729 1.84578 1.00588
v 0.42715 1.83765 1.27464
v 0.42729 1.84578 1.00588
v 0.47620 1.91043 1.02579
v 0.42715 1.83765 1.27464
v 0.47620 1.91043 1.02579
v 0.47314 1.90239 1.35041
v 0.47314 1.90239 1.35041
v 0.47620 1.91043 1.02579
v 0.47867 2.06944 1.29187
v 0.42589 1.73502 1.36563
v 0.42610 1.58961 1.06464
v 0.42729 1.84578 1.00588
v 0.20551 0.94361 1.68764
v 0.19046 0.79802 1.59678
v 0.19331 0.84518 1.40055
v 0.20551 0.94361 1.68764
v 0.19331 0.84518 1.40055
v 0.19772 0.89887 1.27680
v 0.13453 0.64097 1.69400
v -0.17815 0.64513 1.61342
v 0.02753 0.66081 1.59401
v 0.19046 0.79802 1.59678
v 0.15601 0.73658 1.56882
v 0.19331 0.84518 1.40055
v 0.15601 0.73658 1.56882
v 0.04502 0.74116 1.54895
v -0.19126 0.74720 1.31476
v 0.15601 0.73658 1.56882
v -0.19126 0.74720 1.31476
v 0.17042 0.75030 1.30857
v 0.17042 0.75030 1.30857
v -0.19126 0.74720 1.31476
v -0.20349 0.89984 1.27299
v 0.17042 0.75030 1.30857
v -0.20349 0.89984 1.27299
v 0.19772 0.89887 1.27680
v -0.06832 0.90443 0.96106
v 0.19772 0.89887 1.27680
v -0.20349 0.89984 1.27299
v -0.21241 0.90905 1.70724
v -0.22205 0.97413 1.71170
v -0.21513 1.07884 1.44557
v -0.22205 0.97413 1.71170
v -0.25717 0.95465 1.75827
v -0.25714 1.04542 1.59419
v -0.22205 0.97413 1.71170
v -0.25714 1.04542 1.59419
v -0.21513 1.07884 1.44557
v -0.25717 0.95465 1.75827
v -0.31555 1.02969 1.68129
v -0.34210 1.08075 1.57334
v -0.25717 0.95465 1.75827
v -0.34210 1.08075 1.57334
v -0.25714 1.04542 1.59419
v -0.21241 0.90905 1.70724
v -0.21513 1.07884 1.44557
v -0.20349 0.89984 1.27299
v -0.31555 1.02969 1.68129
v -0.34198 1.08059 1.69799
v -0.34210 1.08075 1.57334
v -0.34198 1.08059 1.69799
v -0.39991 1.14971 1.65353
v -0.37850 1.18412 1.58874
v -0.34198 1.08059 1.69799
v -0.37850 1.18412 1.58874
v -0.34210 1.08075 1.57334
v -0.39991 1.14971 1.65353
v -0.42010 1.16004 1.80421
v -0.43254 1.38637 1.60602
v -0.39991 1.14971 1.65353
v -0.43254 1.38637 1.60602
v -0.37850 1.18412 1.58874
v -0.25714 1.04542 1.59419
v -0.34210 1.08075 1.57334
v -0.35957 1.10740 1.48654
v -0.25714 1.04542 1.59419
v -0.35957 1.10740 1.48654
v -0.27766 1.12701 1.46634
v 0.32799 1.40307 1.19068
v 0.39816 1.41679 1.10284
v 0.42193 1.42576 1.26948
v 0.32799 1.40307 1.19068
v 0.42193 1.42576 1.26948
v 0.32917 1.41459 1.28362
v 0.32594 1.50452 1.32786
v 0.34247 1.61026 1.34874
v 0.34840 1.70554 1.38829
v 0.32594 1.50452 1.32786
v 0.34840 1.70554 1.38829
v 0.32543 1.50904 1.39190
v 0.32917 1.41459 1.28362
v 0.42193 1.42576 1.26948
v 0.41758 1.50611 1.29668
v -0.19673 1.84243 1.66216
v -0.16352 2.02249 1.63604
v -0.24132 2.04990 1.59494
v -0.19673 1.84243 1.66216
v -0.16255 1.68941 1.76396
v -0.16352 2.02249 1.63604
v -0.19673 1.84243 1.66216
v -0.24132 2.04990 1.59494
v -0.33536 1.78193 1.66777
v 0.41269 1.30908 1.71396
v 0.43556 1.87995 1.60158
v 0.38594 1.86466 1.64077
v 0.41269 1.30908 1.71396
v 0.42282 1.40566 1.59872
v 0.43761 1.68730 1.57256
v 0.41269 1.30908 1.71396
v 0.43761 1.68730 1.57256
v 0.43556 1.87995 1.60158
v 0.43761 1.68730 1.57256
v 0.42282 1.40566 1.59872
v 0.43056 1.45105 1.50745
v 0.43761 1.68730 1.57256
v 0.43056 1.45105 1.50745
v 0.43345 1.81679 1.48865
v 0.43761 1.68730 1.57256
v 0.43345 1.81679 1.48865
v 0.43556 1.87995 1.60158
v 0.43056 1.45105 1.50745
v 0.43298 1.67461 1.44022
v 0.43345 1.81679 1.48865
v -0.43254 1.38637 1.60602
v -0.44261 1.82903 1.50201
v -0.44434 1.41994 1.46189
v -0.43254 1.38637 1.60602
v -0.43916 1.74563 1.64529
v -0.44261 1.82903 1.50201
v -0.44261 1.82903 1.50201
v -0.43981 1.69680 1.47942
v -0.44434 1.41994 1.46189
v -0.36338 1.87793 1.43220
v -0.33466 1.90294 1.45078
v -0.44261 1.82903 1.50201
v -0.44261 1.82903 1.50201
v -0.44141 1.87499 1.56781
v -0.43173 1.98328 1.58101
v -0.44261 1.82903 1.50201
v -0.43173 1.98328 1.58101
v -0.36338 1.87793 1.43220
v -0.44261 1.82903 1.50201
v -0.43916 1.74563 1.64529
v -0.42655 1.89877 1.61787
v -0.44261 1.82903 1.50201
v -0.42655 1.89877 1.61787
v -0.44141 1.87499 1.56781
v -0.33020 1.41416 1.27871
v -0.34080 1.67203 1.37220
v -0.39008 1.67991 1.37506
v -0.33020 1.41416 1.27871
v -0.39008 1.67991 1.37506
v -0.38710 1.48539 1.30002
v -0.33020 1.41416 1.27871
v -0.32892 1.39888 1.39013
v -0.32980 1.54949 1.40320
v -0.33020 1.41416 1.27871
v -0.32980 1.54949 1.40320
v -0.34080 1.67203 1.37220
v -0.39008 1.67991 1.37506
v -0.42391 1.65937 1.31926
v -0.42381 1.43600 1.26286
v -0.39008 1.67991 1.37506
v -0.42381 1.43600 1.26286
v -0.38710 1.48539 1.30002
v -0.42391 1.65937 1.31926
v -0.42525 1.70463 1.10995
v -0.42381 1.43600 1.26286
v -0.42525 1.70463 1.10995
v -0.41967 1.45410 1.11996
v -0.42381 1.43600 1.26286
v -0.34080 1.67203 1.37220
v -0.32980 1.54949 1.40320
v -0.36178 1.66837 1.41801
v -0.32980 1.54949 1.40320
v -0.38851 1.54420 1.43909
v -0.42873 1.79575 1.41840
v -0.32980 1.54949 1.40320
v -0.42873 1.79575 1.41840
v -0.36178 1.66837 1.41801
v 0.43345 1.81679 1.48865
v 0.37045 1.94394 1.47918
v 0.38201 2.02600 1.58625
v 0.43345 1.81679 1.48865
v 0.38201 2.02600 1.58625
v 0.43556 1.87995 1.60158
v 0.43345 1.81679 1.48865
v 0.42488 1.78996 1.38227
v 0.39396 1.93102 1.42441
v 0.43345 1.81679 1.48865
v 0.39396 1.93102 1.42441
v 0.37045 1.94394 1.47918
v -0.42655 1.89877 1.61787
v -0.33536 1.78193 1.66777
v -0.24132 2.04990 1.59494
v -0.38851 1.54420 1.43909
v -0.44434 1.41994 1.46189
v -0.43981 1.69680 1.47942
v -0.38851 1.54420 1.43909
v -0.43981 1.69680 1.47942
v -0.42873 1.79575 1.41840
v 0.61028 2.09705 0.99970
v 0.61336 2.32328 1.09382
v 0.60591 2.24531 1.24936
v 0.61028 2.09705 0.99970
v 0.60591 2.24531 1.24936
v 0.60778 2.00285 1.07509
v 0.34097 2.02545 1.56458
v 0.38201 2.02600 1.58625
v 0.37045 1.94394 1.47918
v 0.34097 2.02545 1.56458
v 0.37045 1.94394 1.47918
v 0.29345 2.05725 1.46986
v -0.42525 1.70463 1.10995
v -0.38622 2.01989 1.39788
v -0.43364 1.86706 0.93143
v -0.43364 1.86706 0.93143
v -0.38622 2.01989 1.39788
v -0.47588 1.88055 1.23715
v -0.44261 1.82903 1.50201
v -0.33466 1.90294 1.45078
v -0.42873 1.79575 1.41840
v 0.14598 2.17666 1.49056
v 0.16298 2.11067 1.58273
v 0.15700 2.09567 1.46327
v 0.13811 2.43351 1.52764
v 0.13815 2.45237 1.61444
v 0.14750 2.12065 1.59373
v 0.10760 2.30151 1.65814
v 0.14750 2.12065 1.59373
v 0.13815 2.45237 1.61444
v 0.10760 2.30151 1.65814
v 0.13815 2.45237 1.61444
v 0.07940 2.46792 1.65330
v -0.60773 2.22044 1.17753
v -0.50156 1.99620 1.09922
v -0.60812 2.56705 1.19149
v -0.50156 1.99620 1.09922
v -0.60664 2.50346 1.23244
v -0.60812 2.56705 1.19149
v -0.50156 1.99620 1.09922
v -0.49088 2.30348 1.29436
v -0.53783 2.57137 1.28610
v -0.50156 1.99620 1.09922
v -0.53783 2.57137 1.28610
v -0.60664 2.50346 1.23244
v -0.49088 2.30348 1.29436
v -0.47556 2.33634 1.32714
v -0.47738 2.55659 1.29344
v -0.49088 2.30348 1.29436
v -0.47738 2.55659 1.29344
v -0.53783 2.57137 1.28610
v -0.47556 2.33634 1.32714
v -0.47331 1.88605 1.39508
v -0.38622 2.01989 1.39788
v -0.47556 2.33634 1.32714
v -0.38622 2.01989 1.39788
v -0.15201 2.27706 1.33416
v -0.47556 2.33634 1.32714
v -0.15201 2.27706 1.33416
v -0.15642 2.81983 1.28561
v -0.47556 2.33634 1.32714
v -0.15642 2.81983 1.28561
v -0.47738 2.55659 1.29344
v -0.15201 2.27706 1.33416
v -0.14698 2.32532 1.61579
v -0.14844 2.58084 1.55085
v -0.15201 2.27706 1.33416
v -0.14844 2.58084 1.55085
v -0.16143 2.68499 1.49145
v -0.15201 2.27706 1.33416
v -0.16143 2.68499 1.49145
v -0.15642 2.81983 1.28561
v -0.15201 2.27706 1.33416
v -0.15562 2.10095 1.58073
v -0.14698 2.32532 1.61579
v -0.33993 1.95913 1.51899
v -0.31042 2.06012 1.44304
v -0.33466 1.90294 1.45078
v -0.15201 2.27706 1.33416
v -0.15187 2.09827 1.40134
v -0.15508 2.11902 1.50409
v -0.15201 2.27706 1.33416
v -0.15508 2.11902 1.50409
v -0.15562 2.10095 1.58073
v 0.20261 2.59692 1.54429
v 0.14841 2.81951 1.48627
v 0.19887 2.87276 1.50057
v 0.20261 2.59692 1.54429
v 0.19887 2.87276 1.50057
v 0.20761 2.72806 1.59433
v -0.47738 2.55659 1.29344
v -0.15642 2.81983 1.28561
v -0.46404 2.79377 1.28503
v -0.42873 1.79575 1.41840
v -0.39008 1.67991 1.37506
v -0.36178 1.66837 1.41801
v -0.39008 1.67991 1.37506
v -0.34080 1.67203 1.37220
v -0.36178 1.66837 1.41801
v -0.47556 2.33634 1.32714
v -0.49088 2.30348 1.29436
v -0.47588 1.88055 1.23715
v -0.47556 2.33634 1.32714
v -0.47588 1.88055 1.23715
v -0.47331 1.88605 1.39508
v -0.50156 1.99620 1.09922
v -0.60773 2.22044 1.17753
v -0.60371 1.99164 1.04562
vt 0.05410 0.09527
vt 0.04695 0.11191
vt 0.04260 0.10146
vt 0.03184 0.10417
vt 0.04714 0.11173
vt 0.04312 0.12061
vt 0.54201 0.97676
vt 0.54712 0.97820
vt 0.54712 0.98315
vt 0.54201 0.97676
vt 0.54712 0.98315
vt 0.54325 0.98142
vt 0.80661 0.97053
vt 0.80249 0.96785
vt 0.80640 0.96304
vt 0.04301 0.12070
vt 0.03421 0.12596
vt 0.03178 0.10422
vt 0.04292 0.12070
vt 0.04667 0.11191
vt 0.04752 0.12070
vt 0.93346 0.95455
vt 0.93714 0.95905
vt 0.92335 0.95504
vt 0.79676 0.96613
vt 0.80640 0.96304
vt 0.80249 0.96785
vt 0.00779 0.89786
vt 0.00509 0.88383
vt 0.00949 0.88256
vt 0.79704 0.96628
vt 0.79313 0.98198
vt 0.79210 0.96455
vt 0.90532 0.41804
vt 0.90477 0.39973
vt 0.91041 0.40832
vt 0.66315 0.14291
vt 0.65506 0.15184
vt 0.66256 0.14297
vt 0.65506 0.15184
vt 0.65794 0.13990
vt 0.66256 0.14297
vt 0.03517 0.12552
vt 0.03107 0.11699
vt 0.03093 0.10462
vt 0.65206 0.13934
vt 0.65794 0.13990
vt 0.65506 0.15184
vt 0.65206 0.13934
vt 0.65506 0.15184
vt 0.65212 0.15657
vt 0.54645 0.98913
vt 0.54007 0.98645
vt 0.54325 0.98142
vt 0.54645 0.98913
vt 0.54325 0.98142
vt 0.54712 0.98315
vt 0.00103 0.89597
vt 0.00000 0.87874
vt 0.00509 0.88383
vt 0.00103 0.89597
vt 0.00509 0.88383
vt 0.00758 0.89826
vt 0.14622 0.50394
vt 0.14537 0.52352
vt 0.13799 0.51214
vt 0.93138 0.41869
vt 0.92097 0.41818
vt 0.92218 0.40990
vt 0.93138 0.41869
vt 0.92216 0.40997
vt 0.92648 0.40874
vt 0.93374 0.98509
vt 0.92296 0.98523
vt 0.93707 0.97465
vt 0.47893 0.95149
vt 0.47423 0.95148
vt 0.47888 0.95065
vt 0.12829 0.52058
vt 0.13302 0.50289
vt 0.13091 0.51967
vt 0.13448 0.52184
vt 0.13164 0.53152
vt 0.12520 0.53040
vt 0.13448 0.52184
vt 0.12551 0.53044
vt 0.12846 0.52062
vt 0.13091 0.51967
vt 0.13800 0.51215
vt 0.13448 0.52184
vt 0.96510 0.25693
vt 0.97188 0.25647
vt 0.96387 0.26141
vt 0.96513 0.25705
vt 0.96412 0.24814
vt 0.97197 0.25629
vt 0.25674 0.83929
vt 0.25505 0.82991
vt 0.26007 0.83101
vt 0.47032 0.89475
vt 0.46613 0.89397
vt 0.46373 0.88211
vt 0.47053 0.89470
vt 0.46370 0.88208
vt 0.46907 0.88274
vt 0.14537 0.52352
vt 0.13448 0.52184
vt 0.13799 0.51214
vt 0.86011 0.41174
vt 0.86534 0.41154
vt 0.85972 0.41825
vt 0.96116 0.63821
vt 0.95573 0.63327
vt 0.96168 0.63209
vt 0.24904 0.83652
vt 0.25195 0.82762
vt 0.25543 0.83031
vt 0.24907 0.83611
vt 0.25571 0.83004
vt 0.25645 0.83961
vt 0.32034 0.93604
vt 0.31188 0.92625
vt 0.32546 0.92611
vt 0.47886 0.89598
vt 0.47054 0.89470
vt 0.46909 0.88254
vt 0.47893 0.89565
vt 0.46912 0.88283
vt 0.47864 0.88362
vt 0.99142 0.70224
vt 0.98657 0.69318
vt 0.99652 0.68716
vt 0.87515 0.68931
vt 0.87135 0.68422
vt 0.87369 0.67305
vt 0.01596 0.84347
vt 0.03325 0.84911
vt 0.03335 0.86205
vt 0.66014 0.98868
vt 0.66031 0.97194
vt 0.66549 0.98110
vt 0.66013 0.98868
vt 0.66552 0.98109
vt 0.66504 0.99276
vt 0.86273 0.68526
vt 0.86565 0.67294
vt 0.87327 0.67223
vt 0.86273 0.68526
vt 0.87322 0.67218
vt 0.87126 0.68408
vt 0.06704 0.15200
vt 0.07494 0.14856
vt 0.07431 0.15768
vt 0.06704 0.15200
vt 0.07433 0.15769
vt 0.06852 0.15766
vt 0.94970 0.63490
vt 0.94849 0.62948
vt 0.95539 0.63370
vt 0.94970 0.63490
vt 0.95539 0.63385
vt 0.96114 0.63842
vt 0.94852 0.62948
vt 0.94335 0.62093
vt 0.95550 0.63350
vt 0.26061 0.96647
vt 0.25540 0.94019
vt 0.25932 0.93598
vt 0.91109 0.68147
vt 0.93833 0.65139
vt 0.94131 0.67287
vt 0.95680 0.04284
vt 0.95617 0.05526
vt 0.95215 0.04814
vt 0.95680 0.04284
vt 0.95220 0.04807
vt 0.95427 0.04317
vt 0.12094 0.55351
vt 0.11549 0.54681
vt 0.12521 0.53037
vt 0.12090 0.55353
vt 0.11967 0.55404
vt 0.11557 0.54675
vt 0.95610 0.05531
vt 0.95028 0.05233
vt 0.95218 0.04810
vt 0.06921 0.15877
vt 0.07451 0.16480
vt 0.07043 0.16542
vt 0.94218 0.62703
vt 0.94341 0.62151
vt 0.94854 0.62843
vt 0.24899 0.20440
vt 0.26285 0.20279
vt 0.25981 0.20599
vt 0.46960 0.84841
vt 0.47917 0.83730
vt 0.47893 0.85590
vt 0.46960 0.84841
vt 0.47893 0.85590
vt 0.47235 0.86139
vt 0.24899 0.20440
vt 0.25979 0.20639
vt 0.24674 0.21117
vt 0.10807 0.54965
vt 0.11548 0.54678
vt 0.11136 0.55155
vt 0.08692 0.16359
vt 0.08716 0.17215
vt 0.08044 0.16493
vt 0.08691 0.16359
vt 0.07917 0.14901
vt 0.10958 0.15680
vt 0.08692 0.16360
vt 0.10955 0.15667
vt 0.09854 0.16794
vt 0.08694 0.16352
vt 0.09860 0.16778
vt 0.09434 0.16898
vt 0.24928 0.21970
vt 0.25299 0.22301
vt 0.24595 0.22782
vt 0.24923 0.21973
vt 0.24595 0.22782
vt 0.24305 0.22485
vt 0.46003 0.84147
vt 0.46316 0.83331
vt 0.46620 0.83595
vt 0.84244 0.50494
vt 0.84372 0.51782
vt 0.83828 0.50941
vt 0.24671 0.21115
vt 0.23488 0.20109
vt 0.24899 0.20440
vt 0.95883 0.24478
vt 0.95564 0.24469
vt 0.95984 0.23323
vt 0.95886 0.24482
vt 0.95987 0.23305
vt 0.96366 0.23451
vt 0.46843 0.83114
vt 0.46620 0.83595
vt 0.46316 0.83331
vt 0.24011 0.22388
vt 0.24304 0.22481
vt 0.23252 0.22737
vt 0.24011 0.22388
vt 0.23917 0.22161
vt 0.24443 0.22183
vt 0.24011 0.22388
vt 0.23144 0.21900
vt 0.23853 0.22117
vt 0.24011 0.22388
vt 0.23274 0.22751
vt 0.23145 0.21897
vt 0.47096 0.83772
vt 0.47886 0.83803
vt 0.46960 0.84841
vt 0.23488 0.20109
vt 0.24678 0.21101
vt 0.22650 0.20083
vt 0.31699 0.99461
vt 0.32061 0.98518
vt 0.32191 0.99390
vt 0.97787 0.40756
vt 0.98284 0.40735
vt 0.98200 0.41126
vt 0.95142 0.59469
vt 0.95113 0.61340
vt 0.94329 0.62104
vt 0.95146 0.59481
vt 0.94343 0.62088
vt 0.94388 0.60970
vt 0.23258 0.22756
vt 0.23833 0.23322
vt 0.22754 0.23561
vt 0.23286 0.22795
vt 0.22755 0.23562
vt 0.22880 0.23054
vt 0.22787 0.23570
vt 0.22816 0.23142
vt 0.22915 0.23063
vt 0.23258 0.22756
vt 0.22876 0.23044
vt 0.22849 0.22861
vt 0.99295 0.65684
vt 0.99554 0.66159
vt 0.99233 0.65792
vt 0.32193 0.99389
vt 0.32061 0.98518
vt 0.32487 0.98446
vt 0.32195 0.99390
vt 0.32487 0.98446
vt 0.32536 0.99547
vt 0.04110 0.98796
vt 0.04057 0.99911
vt 0.04012 0.99791
vt 0.99971 0.65626
vt 0.99554 0.66159
vt 0.99306 0.65689
vt 0.11118 0.18132
vt 0.12344 0.17677
vt 0.10898 0.19715
vt 0.11118 0.18132
vt 0.10896 0.19714
vt 0.10497 0.18678
vt 0.97790 0.41823
vt 0.97788 0.40756
vt 0.98202 0.41120
vt 0.97804 0.41834
vt 0.98206 0.41122
vt 0.98169 0.41674
vt 0.09202 0.19633
vt 0.08552 0.20128
vt 0.07501 0.17588
vt 0.95970 0.68279
vt 0.96254 0.68346
vt 0.96287 0.69777
vt 0.09388 0.19581
vt 0.09753 0.19127
vt 0.10137 0.20804
vt 0.64025 0.80882
vt 0.64689 0.81144
vt 0.64186 0.82919
vt 0.64062 0.80889
vt 0.64188 0.82925
vt 0.63861 0.82331
vt 0.10918 0.19707
vt 0.09986 0.18775
vt 0.10501 0.18677
vt 0.10922 0.19711
vt 0.09783 0.19122
vt 0.09986 0.18774
vt 0.10868 0.19736
vt 0.11108 0.20840
vt 0.09726 0.19149
vt 0.77763 0.82347
vt 0.78012 0.83302
vt 0.77411 0.83419
vt 0.21277 0.24543
vt 0.22753 0.23559
vt 0.21602 0.24835
vt 0.64666 0.82901
vt 0.64233 0.82922
vt 0.64631 0.81130
vt 0.99047 0.19876
vt 0.99094 0.20302
vt 0.98612 0.20863
vt 0.99047 0.19876
vt 0.98697 0.20856
vt 0.98583 0.19873
vt 0.99703 0.28461
vt 0.98974 0.28556
vt 0.99422 0.27907
vt 0.78470 0.82559
vt 0.78035 0.83267
vt 0.77754 0.82359
vt 0.21236 0.24538
vt 0.21506 0.25527
vt 0.20637 0.25723
vt 0.21229 0.24527
vt 0.20638 0.25723
vt 0.20102 0.24680
vt 0.21232 0.24530
vt 0.20115 0.24687
vt 0.21511 0.23876
vt 0.21665 0.25584
vt 0.21497 0.26679
vt 0.20388 0.26726
vt 0.99064 0.20970
vt 0.98724 0.20850
vt 0.99066 0.20290
vt 0.93700 0.93103
vt 0.93623 0.94807
vt 0.93314 0.94038
vt 0.93705 0.93101
vt 0.93356 0.94062
vt 0.93345 0.93239
vt 0.11082 0.20862
vt 0.10664 0.21386
vt 0.10140 0.20806
vt 0.11084 0.20858
vt 0.10139 0.20804
vt 0.09753 0.19128
vt 0.20536 0.23436
vt 0.19967 0.22409
vt 0.21145 0.23301
vt 0.20516 0.23574
vt 0.21251 0.23509
vt 0.21523 0.23895
vt 0.20516 0.23573
vt 0.21523 0.23895
vt 0.20115 0.24688
vt 0.20517 0.23574
vt 0.20065 0.23977
vt 0.19794 0.23338
vt 0.20518 0.23573
vt 0.19793 0.23341
vt 0.20091 0.23032
vt 0.20517 0.23573
vt 0.20114 0.24687
vt 0.20065 0.23977
vt 0.78453 0.83669
vt 0.78017 0.83299
vt 0.78437 0.82565
vt 0.98782 0.11634
vt 0.98504 0.12733
vt 0.98313 0.11796
vt 0.56543 0.98356
vt 0.56515 0.99529
vt 0.56355 0.98305
vt 0.14575 0.20357
vt 0.11479 0.20865
vt 0.11077 0.19801
vt 0.14575 0.20357
vt 0.13267 0.21263
vt 0.11479 0.20865
vt 0.26752 0.98515
vt 0.26821 0.99552
vt 0.26111 0.98763
vt 0.26752 0.98515
vt 0.26111 0.98763
vt 0.26306 0.98101
vt 0.19875 0.25444
vt 0.20108 0.24672
vt 0.20627 0.25704
vt 0.20395 0.26735
vt 0.19875 0.25444
vt 0.20639 0.25726
vt 0.20380 0.26722
vt 0.20070 0.27610
vt 0.19364 0.26387
vt 0.20379 0.26722
vt 0.19364 0.26387
vt 0.19875 0.25444
vt 0.13267 0.21263
vt 0.13632 0.22368
vt 0.12133 0.23449
vt 0.00046 0.97967
vt 0.01778 0.96238
vt 0.01891 0.97967
vt 0.79257 0.97266
vt 0.78568 0.96588
vt 0.79176 0.95758
vt 0.12133 0.23449
vt 0.10562 0.22967
vt 0.13267 0.21262
vt 0.75927 0.96798
vt 0.76024 0.98522
vt 0.75430 0.98393
vt 0.75991 0.96795
vt 0.75411 0.98393
vt 0.75294 0.96880
vt 0.12133 0.23449
vt 0.12218 0.24209
vt 0.10563 0.22968
vt 0.17230 0.25510
vt 0.17374 0.26490
vt 0.17304 0.27975
vt 0.17239 0.25507
vt 0.17291 0.27975
vt 0.16466 0.26266
vt 0.17352 0.27972
vt 0.17842 0.27910
vt 0.17441 0.28902
vt 0.17329 0.27966
vt 0.17441 0.28902
vt 0.17217 0.29120
vt 0.17311 0.27961
vt 0.17213 0.29121
vt 0.16904 0.28572
vt 0.75979 0.99339
vt 0.75280 0.99358
vt 0.75411 0.98394
vt 0.75979 0.99337
vt 0.75395 0.98399
vt 0.76011 0.98524
vt 0.72539 0.39263
vt 0.73150 0.39454
vt 0.72420 0.40225
vt 0.31604 0.90108
vt 0.32546 0.92613
vt 0.31184 0.92625
vt 0.31182 0.92625
vt 0.30570 0.91352
vt 0.30328 0.89995
vt 0.31182 0.92626
vt 0.30328 0.89994
vt 0.31604 0.90107
vt 0.47881 0.86951
vt 0.47862 0.88357
vt 0.46909 0.88268
vt 0.47881 0.86951
vt 0.46908 0.88268
vt 0.47227 0.86164
vt 0.47881 0.86951
vt 0.47208 0.86169
vt 0.47893 0.85590
vt 0.47244 0.86171
vt 0.46911 0.88268
vt 0.46909 0.85690
vt 0.46895 0.88262
vt 0.46608 0.85818
vt 0.46915 0.85691
vt 0.46608 0.85818
vt 0.46048 0.86788
vt 0.46001 0.84132
vt 0.46605 0.85809
vt 0.46001 0.84141
vt 0.46732 0.85138
vt 0.46608 0.85818
vt 0.46732 0.85138
vt 0.46810 0.85657
vt 0.46601 0.85804
vt 0.46907 0.88266
vt 0.46051 0.86790
vt 0.46051 0.86790
vt 0.46907 0.88266
vt 0.46370 0.88212
vt 0.46370 0.88216
vt 0.44778 0.87079
vt 0.46048 0.86785
vt 0.46369 0.88210
vt 0.46204 0.89330
vt 0.44785 0.90309
vt 0.44785 0.90308
vt 0.44776 0.87076
vt 0.46369 0.88211
vt 0.44818 0.87086
vt 0.44755 0.90304
vt 0.44538 0.90484
vt 0.44747 0.87077
vt 0.44554 0.90488
vt 0.44487 0.86943
vt 0.44821 0.87081
vt 0.44527 0.86946
vt 0.44493 0.85726
vt 0.44498 0.85733
vt 0.44755 0.84639
vt 0.46000 0.84137
vt 0.44500 0.85739
vt 0.46044 0.86767
vt 0.44778 0.87076
vt 0.84376 0.51784
vt 0.84259 0.51993
vt 0.83881 0.51954
vt 0.84372 0.51783
vt 0.83876 0.51951
vt 0.83798 0.51062
vt 0.84366 0.51777
vt 0.83803 0.51069
vt 0.83830 0.50942
vt 0.83795 0.51039
vt 0.83023 0.51163
vt 0.83146 0.50612
vt 0.83797 0.51058
vt 0.83143 0.50629
vt 0.83833 0.50962
vt 0.95023 0.24858
vt 0.96003 0.23320
vt 0.95605 0.24474
vt 0.95995 0.23321
vt 0.95145 0.22192
vt 0.95667 0.21042
vt 0.95981 0.23280
vt 0.94997 0.24830
vt 0.94237 0.25000
vt 0.95995 0.23312
vt 0.94230 0.24978
vt 0.94532 0.23640
vt 0.95994 0.23311
vt 0.94532 0.23639
vt 0.94634 0.22214
vt 0.95994 0.23313
vt 0.94633 0.22212
vt 0.95145 0.22192
vt 0.11615 0.58283
vt 0.11837 0.56810
vt 0.12206 0.55367
vt 0.11615 0.58283
vt 0.12087 0.55350
vt 0.12050 0.58773
vt 0.11933 0.56811
vt 0.12009 0.55386
vt 0.12046 0.55350
vt 0.82995 0.51915
vt 0.83023 0.51158
vt 0.83797 0.51059
vt 0.83798 0.51056
vt 0.83878 0.51953
vt 0.82993 0.51920
vt 0.44730 0.85725
vt 0.44535 0.84607
vt 0.44665 0.84636
vt 0.10870 0.53761
vt 0.11306 0.52620
vt 0.12521 0.53037
vt 0.12521 0.53037
vt 0.11307 0.52620
vt 0.12845 0.52062
vt 0.12845 0.52062
vt 0.11307 0.52620
vt 0.12376 0.49216
vt 0.12845 0.52062
vt 0.12377 0.49216
vt 0.13321 0.50294
vt 0.12521 0.53038
vt 0.11549 0.54681
vt 0.10804 0.54958
vt 0.12521 0.53038
vt 0.10804 0.54958
vt 0.10870 0.53761
vt 0.46204 0.89330
vt 0.46370 0.88212
vt 0.46613 0.89397
vt 0.46205 0.89326
vt 0.46613 0.89397
vt 0.46854 0.90152
vt 0.44497 0.85727
vt 0.46002 0.84136
vt 0.46048 0.86784
vt 0.46732 0.85138
vt 0.46029 0.84156
vt 0.46911 0.84385
vt 0.25644 0.21167
vt 0.25007 0.21564
vt 0.24672 0.21118
vt 0.25644 0.21167
vt 0.24688 0.21146
vt 0.25988 0.20659
vt 0.46911 0.84385
vt 0.46031 0.84160
vt 0.46620 0.83595
vt 0.46911 0.84385
vt 0.46620 0.83595
vt 0.46802 0.83114
vt 0.25007 0.21564
vt 0.23847 0.22123
vt 0.24673 0.21118
vt 0.77724 0.94812
vt 0.78440 0.93727
vt 0.78451 0.94951
vt 0.92319 0.95469
vt 0.93714 0.95906
vt 0.93712 0.97464
vt 0.92326 0.95469
vt 0.93707 0.97465
vt 0.92302 0.98524
vt 0.90541 0.41780
vt 0.92216 0.40991
vt 0.92095 0.41843
vt 0.90554 0.41733
vt 0.91041 0.40832
vt 0.92210 0.41020
vt 0.92214 0.40998
vt 0.91041 0.40832
vt 0.91019 0.39692
vt 0.92215 0.40996
vt 0.91018 0.39694
vt 0.92424 0.39774
vt 0.91018 0.39694
vt 0.90525 0.38648
vt 0.92675 0.38732
vt 0.91018 0.39694
vt 0.92675 0.38732
vt 0.92424 0.39774
vt 0.12666 0.55276
vt 0.12094 0.55350
vt 0.13039 0.54303
vt 0.05838 0.15167
vt 0.06513 0.15138
vt 0.06498 0.15844
vt 0.05835 0.15167
vt 0.05304 0.14272
vt 0.05480 0.13882
vt 0.05838 0.15166
vt 0.05393 0.13902
vt 0.06513 0.15138
vt 0.91019 0.39693
vt 0.91041 0.40832
vt 0.90557 0.39936
vt 0.92707 0.73373
vt 0.91809 0.71704
vt 0.92968 0.71657
vt 0.66646 0.17182
vt 0.65649 0.17733
vt 0.65506 0.15184
vt 0.66649 0.17184
vt 0.65506 0.15184
vt 0.66315 0.14291
vt 0.17826 0.27905
vt 0.19088 0.27921
vt 0.18836 0.28673
vt 0.19064 0.27889
vt 0.19232 0.27320
vt 0.19461 0.27996
vt 0.78311 0.96327
vt 0.78664 0.95770
vt 0.78600 0.96593
vt 0.78317 0.96324
vt 0.78620 0.96573
vt 0.78349 0.97052
vt 0.26461 0.99863
vt 0.26111 0.98763
vt 0.26813 0.99563
vt 0.78665 0.95770
vt 0.79057 0.95795
vt 0.78601 0.96592
vt 0.19264 0.26571
vt 0.19171 0.27323
vt 0.18838 0.25751
vt 0.18836 0.25751
vt 0.19597 0.24030
vt 0.19280 0.26576
vt 0.18833 0.25752
vt 0.19230 0.27315
vt 0.19090 0.27920
vt 0.19089 0.27920
vt 0.17241 0.25506
vt 0.17540 0.22816
vt 0.19085 0.27920
vt 0.17544 0.22815
vt 0.18835 0.25751
vt 0.19609 0.24033
vt 0.19815 0.24359
vt 0.19816 0.25310
vt 0.19596 0.24028
vt 0.19816 0.25310
vt 0.19303 0.26578
vt 0.19589 0.24026
vt 0.18836 0.25751
vt 0.18642 0.22071
vt 0.18641 0.22071
vt 0.18837 0.25751
vt 0.17542 0.22815
vt 0.18641 0.22071
vt 0.19498 0.22261
vt 0.19590 0.24026
vt 0.12061 0.17335
vt 0.12346 0.17679
vt 0.11118 0.18133
vt 0.04711 0.98686
vt 0.04735 0.99916
vt 0.04072 0.99919
vt 0.04680 0.98673
vt 0.04087 0.99925
vt 0.04061 0.98762
vt 0.98938 0.26217
vt 0.99572 0.25635
vt 0.99454 0.27102
vt 0.11830 0.18494
vt 0.13165 0.17317
vt 0.11102 0.19821
vt 0.11830 0.18494
vt 0.11131 0.19836
vt 0.11342 0.19216
vt 0.99454 0.27102
vt 0.99422 0.27907
vt 0.98968 0.28545
vt 0.99454 0.27102
vt 0.98973 0.28563
vt 0.98936 0.26205
vt 0.13159 0.17313
vt 0.14575 0.20357
vt 0.11078 0.19801
vt 0.21004 0.92290
vt 0.21526 0.93504
vt 0.20716 0.93820
vt 0.21551 0.93451
vt 0.20972 0.92341
vt 0.21540 0.92536
vt 0.21444 0.93528
vt 0.21479 0.94182
vt 0.21185 0.94216
vt 0.21550 0.93474
vt 0.21185 0.94216
vt 0.20786 0.94263
vt 0.21550 0.93474
vt 0.20786 0.94263
vt 0.20664 0.93881
vt 0.19849 0.24205
vt 0.20065 0.23977
vt 0.20183 0.24665
vt 0.21185 0.94216
vt 0.21381 0.94773
vt 0.20842 0.95100
vt 0.21185 0.94216
vt 0.20842 0.95100
vt 0.20786 0.94263
vt 0.19644 0.22333
vt 0.20093 0.23035
vt 0.19783 0.23329
vt 0.55575 0.98127
vt 0.56314 0.98315
vt 0.55842 0.98955
vt 0.20786 0.21522
vt 0.21974 0.23116
vt 0.19967 0.22409
vt 0.21974 0.23116
vt 0.21145 0.23301
vt 0.19967 0.22409
vt 0.99810 0.31186
vt 0.99571 0.31984
vt 0.99322 0.29622
vt 0.99800 0.31195
vt 0.99332 0.29611
vt 0.99875 0.30372
vt 0.22877 0.23043
vt 0.22748 0.23129
vt 0.21996 0.23236
vt 0.99567 0.31984
vt 0.99203 0.31067
vt 0.99195 0.30318
vt 0.99573 0.31984
vt 0.99203 0.30275
vt 0.99328 0.29616
vt 0.21977 0.23125
vt 0.22849 0.22861
vt 0.22881 0.23058
vt 0.22849 0.22861
vt 0.23148 0.21896
vt 0.23258 0.22756
vt 0.22849 0.22861
vt 0.21974 0.23116
vt 0.20786 0.21521
vt 0.23148 0.21897
vt 0.22849 0.22861
vt 0.22174 0.20174
vt 0.23151 0.21895
vt 0.22174 0.20174
vt 0.22650 0.20055
vt 0.23161 0.21889
vt 0.22630 0.20067
vt 0.23835 0.22130
vt 0.23846 0.22123
vt 0.22659 0.20049
vt 0.24671 0.21119
vt 0.22849 0.22861
vt 0.20786 0.21521
vt 0.22173 0.20175
vt 0.19090 0.27920
vt 0.17825 0.27905
vt 0.17375 0.26490
vt 0.19091 0.27920
vt 0.17374 0.26490
vt 0.17241 0.25506
vt 0.73161 0.39446
vt 0.72559 0.41741
vt 0.72414 0.40227
vt 0.17846 0.27891
vt 0.17337 0.27962
vt 0.17337 0.26515
vt 0.01931 0.95423
vt 0.01778 0.96238
vt 0.00045 0.97966
vt 0.01931 0.95423
vt 0.00045 0.97966
vt 0.00015 0.95304
vt 0.97919 0.62092
vt 0.97916 0.59431
vt 0.99056 0.59352
vt 0.97916 0.62092
vt 0.99056 0.59352
vt 0.99010 0.62304
vt 0.44061 0.93943
vt 0.41761 0.95929
vt 0.41753 0.92976
vt 0.10563 0.22969
vt 0.10268 0.22586
vt 0.11480 0.20865
vt 0.98797 0.13588
vt 0.98561 0.13955
vt 0.98504 0.12733
vt 0.98764 0.13570
vt 0.98504 0.12733
vt 0.98782 0.11634
vt 0.98570 0.13951
vt 0.98100 0.13390
vt 0.97905 0.12622
vt 0.98561 0.13958
vt 0.97868 0.12595
vt 0.98504 0.12733
vt 0.10562 0.22968
vt 0.11481 0.20867
vt 0.13265 0.21261
vt 0.10211 0.22126
vt 0.09894 0.21877
vt 0.10666 0.21387
vt 0.09925 0.21896
vt 0.09876 0.21279
vt 0.10191 0.20830
vt 0.09898 0.21885
vt 0.10140 0.20807
vt 0.10665 0.21385
vt 0.09876 0.21279
vt 0.08897 0.21819
vt 0.09216 0.19650
vt 0.09876 0.21279
vt 0.09288 0.19617
vt 0.10010 0.20830
vt 0.98499 0.12774
vt 0.97878 0.12557
vt 0.97720 0.11956
vt 0.98504 0.12733
vt 0.97738 0.11997
vt 0.98280 0.11745
vt 0.55834 0.98961
vt 0.56343 0.98310
vt 0.56543 0.99511
vt 0.55836 0.98950
vt 0.56533 0.99533
vt 0.55851 0.99631
vt 0.21251 0.23509
vt 0.21996 0.23236
vt 0.22746 0.23112
vt 0.21251 0.23509
vt 0.22746 0.23121
vt 0.21523 0.23895
vt 0.99325 0.29628
vt 0.99997 0.29788
vt 0.99876 0.30367
vt 0.95978 0.62026
vt 0.96168 0.63209
vt 0.95573 0.63327
vt 0.07057 0.17056
vt 0.07019 0.18417
vt 0.06446 0.15855
vt 0.96059 0.61925
vt 0.95534 0.63378
vt 0.95118 0.61332
vt 0.21493 0.26673
vt 0.24659 0.23789
vt 0.24746 0.24139
vt 0.21497 0.26678
vt 0.21666 0.25583
vt 0.23339 0.24343
vt 0.21504 0.26686
vt 0.23339 0.24344
vt 0.24655 0.23784
vt 0.23336 0.24351
vt 0.21666 0.25583
vt 0.21603 0.24836
vt 0.23339 0.24344
vt 0.21604 0.24836
vt 0.23833 0.23322
vt 0.23339 0.24344
vt 0.23833 0.23323
vt 0.24661 0.23791
vt 0.21601 0.24832
vt 0.22754 0.23561
vt 0.23832 0.23320
vt 0.09190 0.19621
vt 0.08056 0.16514
vt 0.09944 0.18840
vt 0.09201 0.19634
vt 0.07501 0.17588
vt 0.08040 0.16496
vt 0.08041 0.16495
vt 0.08716 0.17215
vt 0.09947 0.18843
vt 0.50973 0.30754
vt 0.50964 0.30477
vt 0.50964 0.31443
vt 0.08041 0.16494
vt 0.07451 0.16480
vt 0.06939 0.15946
vt 0.08037 0.16504
vt 0.06935 0.15863
vt 0.08287 0.15909
vt 0.08028 0.16501
vt 0.07510 0.17585
vt 0.07042 0.16540
vt 0.08041 0.16495
vt 0.07046 0.16539
vt 0.07451 0.16480
vt 0.99971 0.65652
vt 0.99897 0.67548
vt 0.99535 0.67606
vt 0.99972 0.65636
vt 0.99535 0.67610
vt 0.99554 0.66159
vt 0.11118 0.18132
vt 0.10496 0.18678
vt 0.09805 0.17807
vt 0.11118 0.18132
vt 0.09805 0.17807
vt 0.09498 0.16928
vt 0.09426 0.16908
vt 0.09847 0.16805
vt 0.11159 0.17861
vt 0.09426 0.16908
vt 0.11143 0.17885
vt 0.10686 0.17783
vt 0.09854 0.16794
vt 0.10955 0.15667
vt 0.11107 0.17936
vt 0.10955 0.15667
vt 0.11910 0.17245
vt 0.11107 0.17936
vt 0.09517 0.16955
vt 0.09805 0.17807
vt 0.09225 0.17138
vt 0.32487 0.98446
vt 0.32061 0.98518
vt 0.31644 0.96688
vt 0.15369 0.38729
vt 0.15481 0.39528
vt 0.15511 0.39058
vt 0.23833 0.23322
vt 0.24608 0.22757
vt 0.25507 0.23166
vt 0.23826 0.23358
vt 0.25522 0.23134
vt 0.24667 0.23762
vt 0.23833 0.23324
vt 0.23255 0.22763
vt 0.24305 0.22485
vt 0.23835 0.23322
vt 0.24305 0.22485
vt 0.24595 0.22782
vt 0.94336 0.62092
vt 0.95113 0.61340
vt 0.95540 0.63370
vt 0.09594 0.17987
vt 0.09891 0.18883
vt 0.08716 0.17215
vt 0.09594 0.17987
vt 0.08716 0.17215
vt 0.08703 0.16358
vt 0.31637 0.88305
vt 0.31603 0.90108
vt 0.30329 0.89994
vt 0.31637 0.88305
vt 0.30328 0.89994
vt 0.30867 0.87863
vt 0.83201 0.50537
vt 0.82990 0.50291
vt 0.83779 0.50392
vt 0.25411 0.23031
vt 0.24595 0.22782
vt 0.25287 0.22279
vt 0.10956 0.15666
vt 0.07917 0.14899
vt 0.11380 0.13950
vt 0.76175 0.89254
vt 0.76085 0.92669
vt 0.75540 0.91423
vt 0.08039 0.16468
vt 0.08078 0.15831
vt 0.08691 0.16349
vt 0.11546 0.54685
vt 0.11987 0.55393
vt 0.11154 0.55126
vt 0.12521 0.53037
vt 0.13164 0.53152
vt 0.12094 0.55351
vt 0.13039 0.54303
vt 0.12078 0.55342
vt 0.13184 0.53162
vt 0.13039 0.54303
vt 0.13164 0.53152
vt 0.13474 0.53160
vt 0.64212 0.73546
vt 0.64675 0.71763
vt 0.64675 0.76056
vt 0.64675 0.71763
vt 0.64602 0.75604
vt 0.64675 0.76056
vt 0.63861 0.76335
vt 0.64663 0.78888
vt 0.64103 0.80783
vt 0.63861 0.76335
vt 0.64103 0.80783
vt 0.63861 0.80209
vt 0.00841 0.86413
vt 0.00955 0.86661
vt 0.00901 0.88276
vt 0.00841 0.86413
vt 0.00938 0.88264
vt 0.00509 0.88383
vt 0.00953 0.86666
vt 0.00948 0.83366
vt 0.01606 0.84331
vt 0.00955 0.86657
vt 0.01596 0.84353
vt 0.03333 0.86216
vt 0.00955 0.86658
vt 0.03333 0.86204
vt 0.03328 0.90186
vt 0.00956 0.86656
vt 0.03329 0.90182
vt 0.00953 0.88279
vt 0.07314 0.13056
vt 0.05392 0.13902
vt 0.04754 0.12070
vt 0.07315 0.13055
vt 0.04753 0.12070
vt 0.04695 0.11187
vt 0.07314 0.13056
vt 0.04695 0.11189
vt 0.05409 0.09527
vt 0.07314 0.13056
vt 0.06517 0.15137
vt 0.05391 0.13902
vt 0.07432 0.15769
vt 0.07492 0.14829
vt 0.08078 0.15830
vt 0.07315 0.13056
vt 0.07628 0.14426
vt 0.06913 0.14716
vt 0.07315 0.13056
vt 0.06913 0.14716
vt 0.06516 0.15138
vt 0.13091 0.51967
vt 0.13302 0.50289
vt 0.13580 0.49971
vt 0.13091 0.51967
vt 0.13604 0.49987
vt 0.13778 0.51204
vt 0.00953 0.88276
vt 0.03328 0.90194
vt 0.01063 0.90015
vt 0.08694 0.16353
vt 0.09435 0.16897
vt 0.09228 0.17130
vt 0.15191 0.39253
vt 0.15188 0.38888
vt 0.15511 0.39058
vt 0.90907 0.68424
vt 0.91109 0.68147
vt 0.94131 0.67287
vt 0.90905 0.68416
vt 0.94131 0.67287
vt 0.94256 0.68442
vt 0.64675 0.71763
vt 0.64212 0.73546
vt 0.63929 0.71855
vn -0.7088 -0.1335 0.6927
vn -0.9770 -0.0680 -0.2021
vn -0.9262 -0.2188 -0.3070
vn -0.9436 0.0258 0.3300
vn -0.9770 -0.0680 -0.2021
vn -0.8529 -0.4866 -0.1890
vn -0.7024 0.7111 0.0327
vn -0.4168 0.8250 0.3818
vn -0.6315 0.6581 -0.4099
vn -0.7024 0.7111 0.0327
vn -0.6315 0.6581 -0.4099
vn -0.5627 0.7051 -0.4315
vn -0.7024 0.7111 0.0327
vn -0.5627 0.7051 -0.4315
vn -0.9938 0.0916 0.0622
vn -0.8529 -0.4866 -0.1890
vn -0.5886 -0.4356 0.6810
vn -0.9436 0.0258 0.3300
vn -0.8529 -0.4866 -0.1890
vn -0.9770 -0.0680 -0.2021
vn -0.8730 -0.4377 0.2151
vn -0.8529 -0.4866 -0.1890
vn -0.8730 -0.4377 0.2151
vn -0.5886 -0.4356 0.6810
vn -0.7880 0.4842 0.3803
vn -0.9938 0.0916 0.0622
vn -0.5627 0.7051 -0.4315
vn -0.7880 0.4842 0.3803
vn -0.3475 0.0806 0.9342
vn -0.1465 0.1265 0.9811
vn -0.7880 0.4842 0.3803
vn -0.1465 0.1265 0.9811
vn -0.5516 0.1375 0.8227
vn -0.8730 -0.4377 0.2151
vn -0.8644 0.0895 0.4948
vn -0.3234 0.2604 0.9097
vn -0.7318 0.4439 0.5172
vn -0.9969 0.0644 0.0442
vn -0.4168 0.8250 0.3818
vn -0.9969 0.0644 0.0442
vn -0.6315 0.6581 -0.4099
vn -0.4168 0.8250 0.3818
vn -0.5886 -0.4356 0.6810
vn -0.4179 0.3290 0.8468
vn -0.9436 0.0258 0.3300
vn -0.6735 0.6159 0.4088
vn -0.6315 0.6581 -0.4099
vn -0.9969 0.0644 0.0442
vn -0.6735 0.6159 0.4088
vn -0.9969 0.0644 0.0442
vn -0.8673 -0.1973 0.4569
vn -0.6735 0.6159 0.4088
vn -0.7880 0.4842 0.3803
vn -0.5627 0.7051 -0.4315
vn -0.6735 0.6159 0.4088
vn -0.5627 0.7051 -0.4315
vn -0.6315 0.6581 -0.4099
vn -0.6735 0.6159 0.4088
vn -0.8673 -0.1973 0.4569
vn -0.3475 0.0806 0.9342
vn -0.6735 0.6159 0.4088
vn -0.3475 0.0806 0.9342
vn -0.7880 0.4842 0.3803
vn 0.6588 0.5756 0.4844
vn 0.5696 -0.3981 0.7191
vn 0.9993 0.0120 -0.0355
vn 0.8588 -0.4794 0.1809
vn -0.1300 -0.2979 0.9457
vn 0.1464 0.2757 0.9500
vn 0.8588 -0.4794 0.1809
vn 0.1464 0.2757 0.9500
vn 0.8386 -0.1382 0.5269
vn 0.8588 -0.4794 0.1809
vn 0.5696 -0.3981 0.7191
vn -0.1300 -0.2979 0.9457
vn 0.8588 -0.4794 0.1809
vn 0.9181 -0.1392 -0.3712
vn 0.7763 -0.4373 -0.4540
vn 0.9181 -0.1392 -0.3712
vn 0.8246 -0.2462 -0.5093
vn 0.7763 -0.4373 -0.4540
vn 0.8588 -0.4794 0.1809
vn 0.8386 -0.1382 0.5269
vn 0.9972 -0.0703 -0.0253
vn 0.8588 -0.4794 0.1809
vn 0.9972 -0.0703 -0.0253
vn 0.9181 -0.1392 -0.3712
vn 0.7763 -0.4373 -0.4540
vn 0.9993 0.0120 -0.0355
vn 0.8588 -0.4794 0.1809
vn 0.6207 0.5759 0.5321
vn 0.9428 0.0593 0.3281
vn 0.3627 0.2585 0.8953
vn 0.6207 0.5759 0.5321
vn 0.7503 0.5952 0.2878
vn 0.9428 0.0593 0.3281
vn 0.6207 0.5759 0.5321
vn 0.3985 0.9167 -0.0298
vn 0.7503 0.5952 0.2878
vn 0.6207 0.5759 0.5321
vn 0.3627 0.2585 0.8953
vn 0.1010 0.1244 0.9871
vn 0.6207 0.5759 0.5321
vn 0.1010 0.1244 0.9871
vn 0.0817 0.2298 0.9698
vn 0.5696 -0.3981 0.7191
vn 0.8588 -0.4794 0.1809
vn 0.9993 0.0120 -0.0355
vn -0.8824 0.4207 0.2107
vn -0.8473 0.5310 0.0110
vn -0.2155 0.5638 0.7973
vn -0.8824 0.4207 0.2107
vn -0.2155 0.5638 0.7973
vn -0.8251 0.2395 0.5117
vn 0.5518 0.8068 0.2113
vn 0.7614 0.5622 0.3227
vn 0.3985 0.9167 -0.0298
vn 0.5518 0.8068 0.2113
vn 0.3985 0.9167 -0.0298
vn 0.6207 0.5759 0.5321
vn 0.5518 0.8068 0.2113
vn 0.6999 0.1607 0.6959
vn 0.7614 0.5622 0.3227
vn 0.5518 0.8068 0.2113
vn 0.6207 0.5759 0.5321
vn 0.0817 0.2298 0.9698
vn 0.5518 0.8068 0.2113
vn 0.0817 0.2298 0.9698
vn 0.6999 0.1607 0.6959
vn -0.3809 0.1595 0.9108
vn -0.2348 -0.7744 0.5876
vn -0.3413 -0.9254 0.1646
vn -0.3809 0.1595 0.9108
vn -0.6156 0.7854 -0.0639
vn -0.6950 0.6078 0.3842
vn -0.3809 0.1595 0.9108
vn -0.6950 0.6078 0.3842
vn -0.6853 0.1419 0.7143
vn -0.3809 0.1595 0.9108
vn -0.9888 0.1292 -0.0750
vn -0.7915 0.6012 0.1098
vn -0.3809 0.1595 0.9108
vn -0.7915 0.6012 0.1098
vn -0.6156 0.7854 -0.0639
vn -0.6017 0.7177 0.3506
vn -0.8473 0.5310 0.0110
vn -0.6950 0.6078 0.3842
vn -0.6017 0.7177 0.3506
vn -0.6950 0.6078 0.3842
vn -0.6156 0.7854 -0.0639
vn -0.6017 0.7177 0.3506
vn -0.6156 0.7854 -0.0639
vn -0.6975 0.5581 -0.4494
vn -0.6017 0.7177 0.3506
vn -0.6975 0.5581 -0.4494
vn -0.5902 0.6753 0.4422
vn -0.6017 0.7177 0.3506
vn -0.5902 0.6753 0.4422
vn -0.2155 0.5638 0.7973
vn -0.6017 0.7177 0.3506
vn -0.2155 0.5638 0.7973
vn -0.8473 0.5310 0.0110
vn -0.5902 0.6753 0.4422
vn -0.6634 0.2291 0.7124
vn -0.2155 0.5638 0.7973
vn -0.9076 -0.1031 0.4069
vn 0.4273 -0.6939 0.5796
vn -0.4265 -0.8456 0.3211
vn -0.9076 -0.1031 0.4069
vn -0.7308 -0.6086 -0.3091
vn -0.3413 -0.9254 0.1646
vn 0.1417 -0.3256 -0.9348
vn -0.6572 0.7319 0.1798
vn -0.6975 0.5581 -0.4494
vn 0.1417 -0.3256 -0.9348
vn -0.6975 0.5581 -0.4494
vn -0.7915 0.6012 0.1098
vn 0.9297 0.2583 0.2627
vn 0.9965 0.0828 0.0076
vn 0.9972 -0.0703 -0.0253
vn 0.9297 0.2583 0.2627
vn 0.6239 0.6200 0.4757
vn 0.9965 0.0828 0.0076
vn -0.6572 0.7319 0.1798
vn -0.5902 0.6753 0.4422
vn -0.6975 0.5581 -0.4494
vn -0.6572 0.7319 0.1798
vn -0.9048 -0.3134 0.2884
vn -0.6634 0.2291 0.7124
vn -0.6572 0.7319 0.1798
vn -0.6634 0.2291 0.7124
vn -0.5902 0.6753 0.4422
vn 0.8135 -0.2887 0.5049
vn 0.3943 -0.1048 0.9130
vn 0.7405 -0.0242 0.6716
vn 0.8135 -0.2887 0.5049
vn 0.6714 -0.6531 0.3502
vn 0.7492 -0.2639 0.6074
vn 0.8135 -0.2887 0.5049
vn 0.7492 -0.2639 0.6074
vn 0.3943 -0.1048 0.9130
vn 0.8135 -0.2887 0.5049
vn 0.7405 -0.0242 0.6716
vn 0.9963 0.0217 0.0834
vn 0.6427 0.6726 0.3668
vn 0.9965 0.0828 0.0076
vn 0.6856 0.7280 -0.0037
vn -0.9888 0.1292 -0.0750
vn -0.9187 -0.0412 -0.3929
vn -0.9511 0.2096 -0.2268
vn -0.9888 0.1292 -0.0750
vn -0.3809 0.1595 0.9108
vn -0.9997 -0.0075 -0.0251
vn -0.9888 0.1292 -0.0750
vn -0.9997 -0.0075 -0.0251
vn -0.9567 -0.1178 0.2663
vn -0.9888 0.1292 -0.0750
vn -0.9567 -0.1178 0.2663
vn -0.6016 -0.5357 0.5925
vn 0.4136 0.4257 0.8048
vn 0.5907 0.8051 0.0538
vn 0.8730 0.4871 -0.0255
vn 0.4136 0.4257 0.8048
vn 0.8730 0.4871 -0.0255
vn 0.7468 0.2732 0.6064
vn 0.4136 0.4257 0.8048
vn 0.7468 0.2732 0.6064
vn 0.5423 0.1324 0.8297
vn 0.4136 0.4257 0.8048
vn 0.2017 0.6484 0.7341
vn 0.5907 0.8051 0.0538
vn 0.9963 0.0217 0.0834
vn 0.6512 -0.6814 0.3341
vn 0.8135 -0.2887 0.5049
vn 0.3524 0.8555 0.3794
vn 0.5387 0.8075 0.2403
vn 0.3398 0.2483 0.9071
vn 0.3524 0.8555 0.3794
vn 0.3398 0.2483 0.9071
vn 0.9007 0.2412 0.3612
vn 0.8399 -0.0595 0.5395
vn 0.5423 0.1324 0.8297
vn 0.7468 0.2732 0.6064
vn 0.8399 -0.0595 0.5395
vn 0.7468 0.2732 0.6064
vn 0.9979 -0.0615 0.0210
vn 0.8399 -0.0595 0.5395
vn 0.9387 -0.3025 0.1652
vn 0.5423 0.1324 0.8297
vn 0.8399 -0.0595 0.5395
vn 0.9520 -0.3057 -0.0157
vn 0.9387 -0.3025 0.1652
vn 0.8399 -0.0595 0.5395
vn 0.9979 -0.0615 0.0210
vn 0.9520 -0.3057 -0.0157
vn 0.6512 -0.6814 0.3341
vn 0.6714 -0.6531 0.3502
vn 0.8135 -0.2887 0.5049
vn 0.6512 -0.6814 0.3341
vn 0.9963 0.0217 0.0834
vn 0.9393 -0.2846 -0.1916
vn -0.6575 -0.5099 -0.5547
vn -0.5017 -0.0757 -0.8617
vn -0.6075 -0.3373 -0.7191
vn -0.6575 -0.5099 -0.5547
vn -0.6075 -0.3373 -0.7191
vn -0.6531 -0.6903 -0.3114
vn -0.6713 0.4683 0.5745
vn -0.1139 0.2945 0.9488
vn -0.6634 0.2291 0.7124
vn -0.6713 0.4683 0.5745
vn -0.6634 0.2291 0.7124
vn -0.8742 0.1082 0.4734
vn 0.9979 -0.0615 0.0210
vn 0.9832 0.1584 -0.0908
vn 0.8836 -0.1392 -0.4472
vn 0.9979 -0.0615 0.0210
vn 0.8836 -0.1392 -0.4472
vn 0.8757 -0.4827 -0.0132
vn 0.8836 -0.1392 -0.4472
vn 0.7059 -0.7075 0.0346
vn 0.8757 -0.4827 -0.0132
vn 0.9979 -0.0615 0.0210
vn 0.8757 -0.4827 -0.0132
vn 0.9637 -0.0696 0.2578
vn -0.6422 -0.5941 0.4843
vn -0.2536 -0.3253 0.9110
vn -0.9812 -0.0615 0.1827
vn -0.6075 -0.3373 -0.7191
vn -0.5017 -0.0757 -0.8617
vn -0.8851 -0.0972 -0.4551
vn -0.6075 -0.3373 -0.7191
vn -0.8851 -0.0972 -0.4551
vn -0.9587 -0.0684 -0.2760
vn -0.7285 -0.5954 -0.3386
vn -0.6422 -0.5941 0.4843
vn -0.9812 -0.0615 0.1827
vn -0.8679 -0.4497 0.2110
vn -0.2536 -0.3253 0.9110
vn -0.6422 -0.5941 0.4843
vn -0.8679 -0.4497 0.2110
vn -0.6087 -0.6294 -0.4830
vn -0.6656 -0.3975 -0.6316
vn -0.8679 -0.4497 0.2110
vn -0.6656 -0.3975 -0.6316
vn -0.9587 -0.0684 -0.2760
vn -0.9401 -0.2509 -0.2307
vn -0.6575 -0.5099 -0.5547
vn -0.6531 -0.6903 -0.3114
vn -0.9401 -0.2509 -0.2307
vn -0.6531 -0.6903 -0.3114
vn -0.7528 -0.4442 -0.4858
vn -0.9401 -0.2509 -0.2307
vn -0.9876 0.0853 0.1315
vn -0.8742 0.1082 0.4734
vn -0.9401 -0.2509 -0.2307
vn -0.7528 -0.4442 -0.4858
vn -0.9393 -0.2476 -0.2377
vn -0.7528 -0.4442 -0.4858
vn -0.6531 -0.6903 -0.3114
vn -0.9393 -0.2476 -0.2377
vn 0.7059 -0.7075 0.0346
vn 0.8836 -0.1392 -0.4472
vn 0.6615 -0.3094 -0.6832
vn 0.7059 -0.7075 0.0346
vn 0.6615 -0.3094 -0.6832
vn 0.9248 -0.0745 -0.3732
vn -0.6656 -0.3975 -0.6316
vn -0.6075 -0.3373 -0.7191
vn -0.9587 -0.0684 -0.2760
vn -0.6656 -0.3975 -0.6316
vn -0.6531 -0.6903 -0.3114
vn -0.6075 -0.3373 -0.7191
vn -0.6656 -0.3975 -0.6316
vn -0.6276 -0.5775 -0.5221
vn -0.6531 -0.6903 -0.3114
vn -0.6656 -0.3975 -0.6316
vn -0.3069 -0.5435 -0.7812
vn -0.6276 -0.5775 -0.5221
vn 0.6707 -0.5029 -0.5452
vn 0.8836 -0.1392 -0.4472
vn 0.9614 -0.2657 0.0718
vn 0.6707 -0.5029 -0.5452
vn 0.6615 -0.3094 -0.6832
vn 0.8836 -0.1392 -0.4472
vn 0.6707 -0.5029 -0.5452
vn 0.9614 -0.2657 0.0718
vn 0.7393 -0.2625 -0.6201
vn 0.6707 -0.5029 -0.5452
vn 0.7393 -0.2625 -0.6201
vn 0.6615 -0.3094 -0.6832
vn -0.7079 -0.4706 -0.5267
vn -0.6656 -0.3975 -0.6316
vn -0.2534 -0.8858 -0.3888
vn -0.7079 -0.4706 -0.5267
vn -0.3069 -0.5435 -0.7812
vn -0.6656 -0.3975 -0.6316
vn 0.6615 -0.3094 -0.6832
vn 0.7393 -0.2625 -0.6201
vn 0.9411 -0.0522 -0.3342
vn 0.6615 -0.3094 -0.6832
vn 0.9411 -0.0522 -0.3342
vn 0.8231 -0.4118 -0.3911
vn 0.6615 -0.3094 -0.6832
vn 0.8231 -0.4118 -0.3911
vn 0.9248 -0.0745 -0.3732
vn 0.9409 -0.2275 -0.2508
vn 0.9949 -0.0868 0.0520
vn 0.9461 -0.3079 -0.1009
vn 0.9409 -0.2275 -0.2508
vn 0.7393 -0.2625 -0.6201
vn 0.9614 -0.2657 0.0718
vn 0.9409 -0.2275 -0.2508
vn 0.9461 -0.3079 -0.1009
vn 0.9411 -0.0522 -0.3342
vn 0.9409 -0.2275 -0.2508
vn 0.9411 -0.0522 -0.3342
vn 0.7393 -0.2625 -0.6201
vn -0.6276 -0.5775 -0.5221
vn -0.7158 -0.6859 -0.1314
vn -0.9393 -0.2476 -0.2377
vn -0.6276 -0.5775 -0.5221
vn -0.9393 -0.2476 -0.2377
vn -0.6531 -0.6903 -0.3114
vn 0.6856 -0.5754 0.4460
vn 0.8235 -0.5169 -0.2339
vn 0.7378 -0.2409 0.6306
vn 0.8585 -0.4183 0.2967
vn 0.8489 -0.2252 0.4782
vn 0.9248 -0.0745 -0.3732
vn 0.8585 -0.4183 0.2967
vn 0.9248 -0.0745 -0.3732
vn 0.8231 -0.4118 -0.3911
vn 0.8585 -0.4183 0.2967
vn 0.9144 -0.3876 -0.1168
vn 0.7346 -0.6178 -0.2805
vn 0.8585 -0.4183 0.2967
vn 0.7346 -0.6178 -0.2805
vn 0.6510 -0.7565 -0.0619
vn 0.8585 -0.4183 0.2967
vn 0.8231 -0.4118 -0.3911
vn 0.9144 -0.3876 -0.1168
vn -0.9342 -0.2501 -0.2545
vn -0.3069 -0.5435 -0.7812
vn -0.7079 -0.4706 -0.5267
vn -0.9342 -0.2501 -0.2545
vn -0.3710 -0.8395 -0.3969
vn -0.3069 -0.5435 -0.7812
vn 0.8235 -0.5169 -0.2339
vn 0.6856 -0.5754 0.4460
vn 0.3649 -0.8462 -0.3884
vn -0.6888 -0.7124 -0.1343
vn -0.9342 -0.2501 -0.2545
vn -0.7079 -0.4706 -0.5267
vn -0.6888 -0.7124 -0.1343
vn -0.8565 -0.4198 -0.3002
vn -0.9342 -0.2501 -0.2545
vn 0.7141 -0.3477 -0.6076
vn 0.4441 -0.7000 -0.5593
vn 0.5262 -0.5695 -0.6315
vn 0.7141 -0.3477 -0.6076
vn 0.5262 -0.5695 -0.6315
vn 0.8231 -0.4118 -0.3911
vn 0.7141 -0.3477 -0.6076
vn 0.8231 -0.4118 -0.3911
vn 0.9411 -0.0522 -0.3342
vn 0.9461 -0.3079 -0.1009
vn 0.7141 -0.3477 -0.6076
vn 0.9411 -0.0522 -0.3342
vn 0.9461 -0.3079 -0.1009
vn 0.8916 -0.3656 -0.2672
vn 0.4441 -0.7000 -0.5593
vn 0.9461 -0.3079 -0.1009
vn 0.4441 -0.7000 -0.5593
vn 0.7141 -0.3477 -0.6076
vn -0.8565 -0.4198 -0.3002
vn -0.5709 -0.6551 -0.4949
vn -0.8105 -0.5180 -0.2734
vn -0.5709 -0.6551 -0.4949
vn 0.0074 -0.8855 -0.4645
vn -0.8105 -0.5180 -0.2734
vn 0.8916 -0.3656 -0.2672
vn 0.4393 -0.8109 -0.3866
vn 0.4441 -0.7000 -0.5593
vn -0.8105 -0.5180 -0.2734
vn -0.9721 -0.1982 -0.1253
vn -0.8565 -0.4198 -0.3002
vn -0.8105 -0.5180 -0.2734
vn 0.0074 -0.8855 -0.4645
vn 0.0160 -0.7741 -0.6329
vn -0.8105 -0.5180 -0.2734
vn 0.0160 -0.7741 -0.6329
vn -0.5694 -0.7120 -0.4109
vn -0.8105 -0.5180 -0.2734
vn -0.5694 -0.7120 -0.4109
vn -0.9721 -0.1982 -0.1253
vn 0.8619 -0.4224 -0.2806
vn 0.9100 -0.3925 -0.1337
vn 0.6753 -0.6325 -0.3795
vn 0.8619 -0.4224 -0.2806
vn 0.6753 -0.6325 -0.3795
vn 0.5481 -0.6607 -0.5129
vn 0.6753 -0.6325 -0.3795
vn 0.9688 -0.2299 -0.0931
vn 0.8545 -0.4740 -0.2126
vn 0.6753 -0.6325 -0.3795
vn 0.8545 -0.4740 -0.2126
vn 0.3674 -0.9209 -0.1301
vn 0.6753 -0.6325 -0.3795
vn 0.3674 -0.9209 -0.1301
vn 0.6980 -0.6423 -0.3166
vn 0.6753 -0.6325 -0.3795
vn 0.6980 -0.6423 -0.3166
vn 0.0160 -0.7741 -0.6329
vn 0.6753 -0.6325 -0.3795
vn 0.0160 -0.7741 -0.6329
vn 0.0074 -0.8855 -0.4645
vn 0.6980 -0.6423 -0.3166
vn 0.3674 -0.9209 -0.1301
vn 0.0160 -0.7741 -0.6329
vn 0.8706 -0.0855 0.4845
vn 0.7614 0.5622 0.3227
vn 0.6999 0.1607 0.6959
vn 0.6999 0.1607 0.6959
vn 0.7398 0.0159 0.6727
vn 0.7492 -0.2639 0.6074
vn 0.6999 0.1607 0.6959
vn 0.7492 -0.2639 0.6074
vn 0.8706 -0.0855 0.4845
vn 0.7398 0.0159 0.6727
vn 0.6999 0.1607 0.6959
vn 0.0817 0.2298 0.9698
vn 0.7398 0.0159 0.6727
vn 0.0817 0.2298 0.9698
vn 0.3943 -0.1048 0.9130
vn 0.7398 0.0159 0.6727
vn 0.3943 -0.1048 0.9130
vn 0.7492 -0.2639 0.6074
vn 0.3943 -0.1048 0.9130
vn 0.0817 0.2298 0.9698
vn 0.7405 -0.0242 0.6716
vn 0.0817 0.2298 0.9698
vn 0.2770 0.1973 0.9404
vn 0.7405 -0.0242 0.6716
vn 0.2770 0.1973 0.9404
vn -0.0036 0.1881 0.9822
vn 0.4136 0.4257 0.8048
vn 0.2770 0.1973 0.9404
vn 0.4136 0.4257 0.8048
vn 0.5947 0.1257 0.7941
vn 0.2770 0.1973 0.9404
vn 0.5947 0.1257 0.7941
vn 0.7405 -0.0242 0.6716
vn 0.2770 0.1973 0.9404
vn 0.0817 0.2298 0.9698
vn -0.0036 0.1881 0.9822
vn -0.0036 0.1881 0.9822
vn 0.0817 0.2298 0.9698
vn 0.1010 0.1244 0.9871
vn 0.1010 0.1244 0.9871
vn 0.3703 0.1074 0.9227
vn -0.0036 0.1881 0.9822
vn 0.1010 0.1244 0.9871
vn 0.1202 0.1160 0.9860
vn 0.3352 0.0656 0.9399
vn 0.3352 0.0656 0.9399
vn 0.3703 0.1074 0.9227
vn 0.1010 0.1244 0.9871
vn 0.3703 0.1074 0.9227
vn 0.3352 0.0656 0.9399
vn 0.9263 -0.2249 0.3023
vn 0.3703 0.1074 0.9227
vn 0.9263 -0.2249 0.3023
vn 0.9217 0.0075 0.3877
vn 0.3703 0.1074 0.9227
vn 0.9217 0.0075 0.3877
vn 0.7070 0.1768 0.6847
vn 0.7070 0.1768 0.6847
vn 0.2017 0.6484 0.7341
vn 0.4136 0.4257 0.8048
vn 0.7070 0.1768 0.6847
vn -0.0036 0.1881 0.9822
vn 0.3703 0.1074 0.9227
vn 0.2017 0.6484 0.7341
vn 0.6427 0.6726 0.3668
vn 0.6856 0.7280 -0.0037
vn 0.2017 0.6484 0.7341
vn 0.6856 0.7280 -0.0037
vn 0.4496 0.8889 -0.0882
vn 0.2017 0.6484 0.7341
vn 0.4496 0.8889 -0.0882
vn 0.5907 0.8051 0.0538
vn 0.4496 0.8889 -0.0882
vn 0.3736 0.7844 0.4951
vn 0.5387 0.8075 0.2403
vn 0.4496 0.8889 -0.0882
vn 0.5387 0.8075 0.2403
vn 0.5907 0.8051 0.0538
vn 0.3736 0.7844 0.4951
vn 0.3398 0.2483 0.9071
vn 0.5387 0.8075 0.2403
vn 0.3398 0.2483 0.9071
vn 0.1044 0.3364 0.9359
vn 0.3719 0.5372 0.7570
vn 0.3398 0.2483 0.9071
vn 0.3736 0.7844 0.4951
vn 0.6239 0.6200 0.4757
vn 0.3398 0.2483 0.9071
vn 0.6239 0.6200 0.4757
vn 0.0950 0.2555 0.9621
vn 0.3398 0.2483 0.9071
vn 0.0950 0.2555 0.9621
vn 0.4866 0.3630 0.7946
vn 0.3398 0.2483 0.9071
vn 0.4866 0.3630 0.7946
vn 0.1044 0.3364 0.9359
vn 0.4866 0.3630 0.7946
vn 0.0950 0.2555 0.9621
vn 0.9297 0.2583 0.2627
vn 0.4866 0.3630 0.7946
vn 0.9297 0.2583 0.2627
vn 0.9514 0.1871 0.2446
vn 0.0950 0.2555 0.9621
vn 0.6239 0.6200 0.4757
vn 0.9297 0.2583 0.2627
vn 0.6239 0.6200 0.4757
vn 0.3736 0.7844 0.4951
vn 0.4496 0.8889 -0.0882
vn 0.4496 0.8889 -0.0882
vn 0.6856 0.7280 -0.0037
vn 0.6239 0.6200 0.4757
vn 0.7070 0.1768 0.6847
vn 0.6427 0.6726 0.3668
vn 0.2017 0.6484 0.7341
vn 0.7070 0.1768 0.6847
vn 0.9217 0.0075 0.3877
vn 0.9972 -0.0703 -0.0253
vn 0.9972 -0.0703 -0.0253
vn 0.9217 0.0075 0.3877
vn 0.9181 -0.1392 -0.3712
vn 0.9181 -0.1392 -0.3712
vn 0.9217 0.0075 0.3877
vn 0.9263 -0.2249 0.3023
vn 0.9181 -0.1392 -0.3712
vn 0.9263 -0.2249 0.3023
vn 0.8246 -0.2462 -0.5093
vn 0.9972 -0.0703 -0.0253
vn 0.9965 0.0828 0.0076
vn 0.6427 0.6726 0.3668
vn 0.9972 -0.0703 -0.0253
vn 0.6427 0.6726 0.3668
vn 0.7070 0.1768 0.6847
vn 0.1202 0.1160 0.9860
vn 0.1010 0.1244 0.9871
vn 0.3627 0.2585 0.8953
vn 0.1202 0.1160 0.9860
vn 0.3627 0.2585 0.8953
vn 0.9428 0.0593 0.3281
vn 0.7070 0.1768 0.6847
vn 0.4136 0.4257 0.8048
vn -0.0036 0.1881 0.9822
vn 0.5947 0.1257 0.7941
vn 0.4136 0.4257 0.8048
vn 0.8119 0.1295 0.5692
vn 0.5947 0.1257 0.7941
vn 0.8119 0.1295 0.5692
vn 0.9963 0.0217 0.0834
vn 0.5947 0.1257 0.7941
vn 0.9963 0.0217 0.0834
vn 0.7405 -0.0242 0.6716
vn 0.8119 0.1295 0.5692
vn 0.4136 0.4257 0.8048
vn 0.5423 0.1324 0.8297
vn 0.8119 0.1295 0.5692
vn 0.5423 0.1324 0.8297
vn 0.9387 -0.3025 0.1652
vn 0.8119 0.1295 0.5692
vn 0.9387 -0.3025 0.1652
vn 0.9963 0.0217 0.0834
vn -0.1163 0.2877 0.9506
vn 0.3968 -0.0181 0.9177
vn 0.4463 0.3304 0.8316
vn -0.5886 -0.4356 0.6810
vn -0.8730 -0.4377 0.2151
vn -0.1300 -0.2979 0.9457
vn -0.5886 -0.4356 0.6810
vn -0.1300 -0.2979 0.9457
vn 0.5696 -0.3981 0.7191
vn -0.8730 -0.4377 0.2151
vn 0.1464 0.2757 0.9500
vn -0.1300 -0.2979 0.9457
vn -0.8730 -0.4377 0.2151
vn -0.3234 0.2604 0.9097
vn 0.1464 0.2757 0.9500
vn 0.1464 0.2757 0.9500
vn -0.3234 0.2604 0.9097
vn -0.2143 0.0907 0.9725
vn 0.1464 0.2757 0.9500
vn -0.2143 0.0907 0.9725
vn 0.4645 0.0335 0.8850
vn -0.2143 0.0907 0.9725
vn -0.7988 0.3300 0.5030
vn 0.7955 0.3891 0.4646
vn -0.2143 0.0907 0.9725
vn 0.7955 0.3891 0.4646
vn 0.4645 0.0335 0.8850
vn 0.7955 0.3891 0.4646
vn 0.9297 0.2583 0.2627
vn 0.4645 0.0335 0.8850
vn -0.7988 0.3300 0.5030
vn -0.8824 0.4207 0.2107
vn -0.8251 0.2395 0.5117
vn -0.7988 0.3300 0.5030
vn -0.2143 0.0907 0.9725
vn -0.8644 0.0895 0.4948
vn -0.7988 0.3300 0.5030
vn -0.8644 0.0895 0.4948
vn -0.8824 0.4207 0.2107
vn -0.2143 0.0907 0.9725
vn -0.3234 0.2604 0.9097
vn -0.8644 0.0895 0.4948
vn 0.2016 0.4526 0.8686
vn -0.4696 -0.0434 0.8818
vn 0.1544 -0.0419 0.9871
vn -0.6091 -0.1571 0.7774
vn -0.4482 -0.1255 0.8851
vn -0.9969 0.0644 0.0442
vn -0.6091 -0.1571 0.7774
vn -0.9969 0.0644 0.0442
vn -0.7318 0.4439 0.5172
vn 0.9688 -0.2299 -0.0931
vn 0.9536 -0.2419 -0.1794
vn 0.9683 -0.2022 -0.1463
vn 0.9536 -0.2419 -0.1794
vn 0.7974 -0.5492 -0.2501
vn 0.4911 -0.7846 -0.3785
vn 0.7974 -0.5492 -0.2501
vn 0.5159 -0.7373 -0.4360
vn 0.4393 -0.8109 -0.3866
vn 0.7974 -0.5492 -0.2501
vn 0.4393 -0.8109 -0.3866
vn 0.4911 -0.7846 -0.3785
vn 0.5159 -0.7373 -0.4360
vn 0.5262 -0.5695 -0.6315
vn 0.4441 -0.7000 -0.5593
vn 0.5159 -0.7373 -0.4360
vn 0.4441 -0.7000 -0.5593
vn 0.4393 -0.8109 -0.3866
vn 0.5159 -0.7373 -0.4360
vn 0.7974 -0.5492 -0.2501
vn 0.9806 -0.1544 -0.1206
vn 0.9806 -0.1544 -0.1206
vn 0.8646 -0.4640 -0.1929
vn 0.5159 -0.7373 -0.4360
vn 0.9806 -0.1544 -0.1206
vn 0.7974 -0.5492 -0.2501
vn 0.9536 -0.2419 -0.1794
vn 0.9536 -0.2419 -0.1794
vn 0.8619 -0.4224 -0.2806
vn 0.9969 -0.0519 -0.0593
vn 0.9536 -0.2419 -0.1794
vn 0.9969 -0.0519 -0.0593
vn 0.9806 -0.1544 -0.1206
vn 0.8646 -0.4640 -0.1929
vn 0.5816 -0.6858 -0.4375
vn 0.5262 -0.5695 -0.6315
vn 0.8646 -0.4640 -0.1929
vn 0.5262 -0.5695 -0.6315
vn 0.5159 -0.7373 -0.4360
vn 0.8646 -0.4640 -0.1929
vn 0.9806 -0.1544 -0.1206
vn 0.9980 -0.0637 -0.0006
vn 0.9980 -0.0637 -0.0006
vn 0.9806 -0.1544 -0.1206
vn 0.9969 -0.0519 -0.0593
vn 0.9980 -0.0637 -0.0006
vn 0.8509 -0.3823 -0.3602
vn 0.8646 -0.4640 -0.1929
vn -0.6572 -0.5864 -0.4735
vn -0.6087 -0.6294 -0.4830
vn -0.8679 -0.4497 0.2110
vn -0.6572 -0.5864 -0.4735
vn -0.8679 -0.4497 0.2110
vn -0.6422 -0.5941 0.4843
vn -0.6572 -0.5864 -0.4735
vn -0.6422 -0.5941 0.4843
vn -0.7285 -0.5954 -0.3386
vn -0.6087 -0.6294 -0.4830
vn -0.8265 -0.3009 -0.4757
vn -0.4356 -0.8405 -0.3223
vn -0.4356 -0.8405 -0.3223
vn -0.9928 -0.0993 -0.0667
vn -0.7079 -0.4706 -0.5267
vn -0.4356 -0.8405 -0.3223
vn -0.7079 -0.4706 -0.5267
vn -0.2534 -0.8858 -0.3888
vn -0.4356 -0.8405 -0.3223
vn -0.2534 -0.8858 -0.3888
vn -0.6656 -0.3975 -0.6316
vn -0.4356 -0.8405 -0.3223
vn -0.6656 -0.3975 -0.6316
vn -0.6087 -0.6294 -0.4830
vn -0.9928 -0.0993 -0.0667
vn -0.6888 -0.7124 -0.1343
vn -0.7079 -0.4706 -0.5267
vn 0.8509 -0.3823 -0.3602
vn 0.7346 -0.6178 -0.2805
vn 0.8646 -0.4640 -0.1929
vn 0.7346 -0.6178 -0.2805
vn 0.8509 -0.3823 -0.3602
vn 0.2712 -0.7230 -0.6354
vn 0.7346 -0.6178 -0.2805
vn 0.9144 -0.3876 -0.1168
vn 0.3977 -0.8305 -0.3900
vn 0.7346 -0.6178 -0.2805
vn 0.3977 -0.8305 -0.3900
vn 0.5816 -0.6858 -0.4375
vn 0.7346 -0.6178 -0.2805
vn 0.5816 -0.6858 -0.4375
vn 0.8646 -0.4640 -0.1929
vn 0.3977 -0.8305 -0.3900
vn 0.9144 -0.3876 -0.1168
vn 0.8231 -0.4118 -0.3911
vn 0.3977 -0.8305 -0.3900
vn 0.8231 -0.4118 -0.3911
vn 0.5262 -0.5695 -0.6315
vn 0.3977 -0.8305 -0.3900
vn 0.5262 -0.5695 -0.6315
vn 0.5816 -0.6858 -0.4375
vn 0.2712 -0.7230 -0.6354
vn 0.6510 -0.7565 -0.0619
vn 0.7346 -0.6178 -0.2805
vn 0.2712 -0.7230 -0.6354
vn 0.3649 -0.8462 -0.3884
vn 0.6510 -0.7565 -0.0619
vn 0.9772 -0.0743 -0.1990
vn 0.8245 -0.2319 0.5162
vn 0.8235 -0.5169 -0.2339
vn 0.8245 -0.2319 0.5162
vn 0.7378 -0.2409 0.6306
vn 0.8235 -0.5169 -0.2339
vn 0.8245 -0.2319 0.5162
vn 0.8757 -0.4827 -0.0132
vn 0.8585 -0.4183 0.2967
vn 0.8245 -0.2319 0.5162
vn 0.8585 -0.4183 0.2967
vn 0.7378 -0.2409 0.6306
vn 0.8757 -0.4827 -0.0132
vn 0.7059 -0.7075 0.0346
vn 0.3734 -0.2533 0.8924
vn 0.8757 -0.4827 -0.0132
vn 0.3734 -0.2533 0.8924
vn 0.8489 -0.2252 0.4782
vn 0.8757 -0.4827 -0.0132
vn 0.8489 -0.2252 0.4782
vn 0.8585 -0.4183 0.2967
vn 0.8245 -0.2319 0.5162
vn 0.9637 -0.0696 0.2578
vn 0.8757 -0.4827 -0.0132
vn 0.9637 -0.0696 0.2578
vn 0.9520 -0.3057 -0.0157
vn 0.9979 -0.0615 0.0210
vn 0.9637 -0.0696 0.2578
vn 0.8245 -0.2319 0.5162
vn 0.9772 -0.0743 -0.1990
vn 0.9520 -0.3057 -0.0157
vn 0.9637 -0.0696 0.2578
vn 0.9506 -0.2980 -0.0866
vn 0.9520 -0.3057 -0.0157
vn 0.9506 -0.2980 -0.0866
vn 0.9393 -0.2846 -0.1916
vn 0.9520 -0.3057 -0.0157
vn 0.9393 -0.2846 -0.1916
vn 0.9387 -0.3025 0.1652
vn 0.9387 -0.3025 0.1652
vn 0.9393 -0.2846 -0.1916
vn 0.9963 0.0217 0.0834
vn 0.9637 -0.0696 0.2578
vn 0.9772 -0.0743 -0.1990
vn 0.9506 -0.2980 -0.0866
vn 0.9536 -0.2419 -0.1794
vn 0.9688 -0.2299 -0.0931
vn 0.9100 -0.3925 -0.1337
vn 0.9536 -0.2419 -0.1794
vn 0.9100 -0.3925 -0.1337
vn 0.8619 -0.4224 -0.2806
vn 0.3674 -0.9209 -0.1301
vn -0.5694 -0.7120 -0.4109
vn 0.0160 -0.7741 -0.6329
vn 0.9688 -0.2299 -0.0931
vn 0.6753 -0.6325 -0.3795
vn 0.9100 -0.3925 -0.1337
vn 0.6753 -0.6325 -0.3795
vn 0.0074 -0.8855 -0.4645
vn -0.5709 -0.6551 -0.4949
vn 0.6753 -0.6325 -0.3795
vn -0.5709 -0.6551 -0.4949
vn 0.5481 -0.6607 -0.5129
vn 0.5481 -0.6607 -0.5129
vn -0.5709 -0.6551 -0.4949
vn -0.8565 -0.4198 -0.3002
vn 0.5481 -0.6607 -0.5129
vn -0.8565 -0.4198 -0.3002
vn 0.8619 -0.4224 -0.2806
vn -0.0345 -0.8608 -0.5078
vn 0.8619 -0.4224 -0.2806
vn -0.8565 -0.4198 -0.3002
vn -0.9721 -0.1982 -0.1253
vn -0.7127 -0.5336 -0.4554
vn -0.9342 -0.2501 -0.2545
vn -0.7127 -0.5336 -0.4554
vn -0.5182 -0.7642 -0.3840
vn -0.3710 -0.8395 -0.3969
vn -0.7127 -0.5336 -0.4554
vn -0.3710 -0.8395 -0.3969
vn -0.9342 -0.2501 -0.2545
vn -0.5182 -0.7642 -0.3840
vn -0.7302 -0.6084 -0.3108
vn -0.7158 -0.6859 -0.1314
vn -0.5182 -0.7642 -0.3840
vn -0.7158 -0.6859 -0.1314
vn -0.3710 -0.8395 -0.3969
vn -0.9721 -0.1982 -0.1253
vn -0.9342 -0.2501 -0.2545
vn -0.8565 -0.4198 -0.3002
vn -0.7302 -0.6084 -0.3108
vn -0.8643 -0.3950 -0.3114
vn -0.7158 -0.6859 -0.1314
vn -0.8643 -0.3950 -0.3114
vn -0.7970 -0.5101 -0.3235
vn -0.9393 -0.2476 -0.2377
vn -0.8643 -0.3950 -0.3114
vn -0.9393 -0.2476 -0.2377
vn -0.7158 -0.6859 -0.1314
vn -0.7970 -0.5101 -0.3235
vn -0.9745 -0.2177 0.0542
vn -0.9401 -0.2509 -0.2307
vn -0.7970 -0.5101 -0.3235
vn -0.9401 -0.2509 -0.2307
vn -0.9393 -0.2476 -0.2377
vn -0.3710 -0.8395 -0.3969
vn -0.7158 -0.6859 -0.1314
vn -0.6276 -0.5775 -0.5221
vn -0.3710 -0.8395 -0.3969
vn -0.6276 -0.5775 -0.5221
vn -0.3069 -0.5435 -0.7812
vn 0.6510 -0.7565 -0.0619
vn 0.3649 -0.8462 -0.3884
vn 0.6856 -0.5754 0.4460
vn 0.6510 -0.7565 -0.0619
vn 0.6856 -0.5754 0.4460
vn 0.8585 -0.4183 0.2967
vn 0.8489 -0.2252 0.4782
vn 0.3734 -0.2533 0.8924
vn 0.7059 -0.7075 0.0346
vn 0.8489 -0.2252 0.4782
vn 0.7059 -0.7075 0.0346
vn 0.9248 -0.0745 -0.3732
vn 0.8585 -0.4183 0.2967
vn 0.6856 -0.5754 0.4460
vn 0.7378 -0.2409 0.6306
vn -0.4624 0.2809 0.8410
vn -0.8251 0.2395 0.5117
vn -0.2155 0.5638 0.7973
vn -0.4624 0.2809 0.8410
vn -0.8816 0.2625 0.3922
vn -0.8251 0.2395 0.5117
vn -0.4624 0.2809 0.8410
vn -0.2155 0.5638 0.7973
vn -0.1139 0.2945 0.9488
vn 0.9949 -0.0868 0.0520
vn 0.9007 0.2412 0.3612
vn 0.3398 0.2483 0.9071
vn 0.9949 -0.0868 0.0520
vn 0.9409 -0.2275 -0.2508
vn 0.9992 -0.0119 0.0387
vn 0.9949 -0.0868 0.0520
vn 0.9992 -0.0119 0.0387
vn 0.9007 0.2412 0.3612
vn 0.9992 -0.0119 0.0387
vn 0.9409 -0.2275 -0.2508
vn 0.9614 -0.2657 0.0718
vn 0.9992 -0.0119 0.0387
vn 0.9614 -0.2657 0.0718
vn 0.9832 0.1584 -0.0908
vn 0.9992 -0.0119 0.0387
vn 0.9832 0.1584 -0.0908
vn 0.9007 0.2412 0.3612
vn 0.9614 -0.2657 0.0718
vn 0.8836 -0.1392 -0.4472
vn 0.9832 0.1584 -0.0908
vn -0.9401 -0.2509 -0.2307
vn -0.9511 0.2096 -0.2268
vn -0.6575 -0.5099 -0.5547
vn -0.9401 -0.2509 -0.2307
vn -0.8742 0.1082 0.4734
vn -0.9511 0.2096 -0.2268
vn -0.9511 0.2096 -0.2268
vn -0.9187 -0.0412 -0.3929
vn -0.6575 -0.5099 -0.5547
vn 0.1417 -0.3256 -0.9348
vn -0.7915 0.6012 0.1098
vn -0.9511 0.2096 -0.2268
vn -0.9511 0.2096 -0.2268
vn -0.9048 -0.3134 0.2884
vn -0.6572 0.7319 0.1798
vn -0.9511 0.2096 -0.2268
vn -0.6572 0.7319 0.1798
vn 0.1417 -0.3256 -0.9348
vn -0.9511 0.2096 -0.2268
vn -0.8742 0.1082 0.4734
vn -0.6634 0.2291 0.7124
vn -0.9511 0.2096 -0.2268
vn -0.6634 0.2291 0.7124
vn -0.9048 -0.3134 0.2884
vn -0.8679 -0.4497 0.2110
vn -0.6604 -0.6699 0.3392
vn -0.6016 -0.5357 0.5925
vn -0.8679 -0.4497 0.2110
vn -0.6016 -0.5357 0.5925
vn -0.2536 -0.3253 0.9110
vn -0.8679 -0.4497 0.2110
vn -0.9587 -0.0684 -0.2760
vn -0.8851 -0.0972 -0.4551
vn -0.8679 -0.4497 0.2110
vn -0.8851 -0.0972 -0.4551
vn -0.6604 -0.6699 0.3392
vn -0.6016 -0.5357 0.5925
vn -0.9567 -0.1178 0.2663
vn -0.9812 -0.0615 0.1827
vn -0.6016 -0.5357 0.5925
vn -0.9812 -0.0615 0.1827
vn -0.2536 -0.3253 0.9110
vn -0.9567 -0.1178 0.2663
vn -0.9997 -0.0075 -0.0251
vn -0.9812 -0.0615 0.1827
vn -0.9997 -0.0075 -0.0251
vn -0.7285 -0.5954 -0.3386
vn -0.9812 -0.0615 0.1827
vn -0.6604 -0.6699 0.3392
vn -0.8851 -0.0972 -0.4551
vn -0.3459 -0.3335 -0.8770
vn -0.8851 -0.0972 -0.4551
vn -0.5017 -0.0757 -0.8617
vn -0.9888 0.1292 -0.0750
vn -0.8851 -0.0972 -0.4551
vn -0.9888 0.1292 -0.0750
vn -0.3459 -0.3335 -0.8770
vn 0.9832 0.1584 -0.0908
vn 0.8730 0.4871 -0.0255
vn 0.3524 0.8555 0.3794
vn 0.9832 0.1584 -0.0908
vn 0.3524 0.8555 0.3794
vn 0.9007 0.2412 0.3612
vn 0.9832 0.1584 -0.0908
vn 0.9979 -0.0615 0.0210
vn 0.7468 0.2732 0.6064
vn 0.9832 0.1584 -0.0908
vn 0.7468 0.2732 0.6064
vn 0.8730 0.4871 -0.0255
vn -0.6634 0.2291 0.7124
vn -0.1139 0.2945 0.9488
vn -0.2155 0.5638 0.7973
vn -0.5017 -0.0757 -0.8617
vn -0.6575 -0.5099 -0.5547
vn -0.9187 -0.0412 -0.3929
vn -0.5017 -0.0757 -0.8617
vn -0.9187 -0.0412 -0.3929
vn -0.9888 0.1292 -0.0750
vn 0.8622 -0.4007 0.3099
vn 0.8706 -0.0855 0.4845
vn 0.7492 -0.2639 0.6074
vn 0.8622 -0.4007 0.3099
vn 0.7492 -0.2639 0.6074
vn 0.6714 -0.6531 0.3502
vn 0.5387 0.8075 0.2403
vn 0.3524 0.8555 0.3794
vn 0.8730 0.4871 -0.0255
vn 0.5387 0.8075 0.2403
vn 0.8730 0.4871 -0.0255
vn 0.5907 0.8051 0.0538
vn -0.9997 -0.0075 -0.0251
vn -0.3809 0.1595 0.9108
vn -0.7210 -0.5237 -0.4537
vn -0.7210 -0.5237 -0.4537
vn -0.3809 0.1595 0.9108
vn -0.3413 -0.9254 0.1646
vn -0.9511 0.2096 -0.2268
vn -0.7915 0.6012 0.1098
vn -0.9888 0.1292 -0.0750
vn 0.9965 0.0828 0.0076
vn 0.6239 0.6200 0.4757
vn 0.6856 0.7280 -0.0037
vn 0.9972 -0.0703 -0.0253
vn 0.8386 -0.1382 0.5269
vn 0.9297 0.2583 0.2627
vn 0.4645 0.0335 0.8850
vn 0.9297 0.2583 0.2627
vn 0.8386 -0.1382 0.5269
vn 0.4645 0.0335 0.8850
vn 0.8386 -0.1382 0.5269
vn 0.1464 0.2757 0.9500
vn -0.4482 -0.1255 0.8851
vn 0.4273 -0.6939 0.5796
vn -0.9969 0.0644 0.0442
vn 0.4273 -0.6939 0.5796
vn -0.8673 -0.1973 0.4569
vn -0.9969 0.0644 0.0442
vn 0.4273 -0.6939 0.5796
vn -0.9076 -0.1031 0.4069
vn -0.3475 0.0806 0.9342
vn 0.4273 -0.6939 0.5796
vn -0.3475 0.0806 0.9342
vn -0.8673 -0.1973 0.4569
vn -0.9076 -0.1031 0.4069
vn -0.5754 0.1002 0.8117
vn -0.1465 0.1265 0.9811
vn -0.9076 -0.1031 0.4069
vn -0.1465 0.1265 0.9811
vn -0.3475 0.0806 0.9342
vn -0.5754 0.1002 0.8117
vn -0.2348 -0.7744 0.5876
vn -0.3809 0.1595 0.9108
vn -0.5754 0.1002 0.8117
vn -0.3809 0.1595 0.9108
vn -0.6853 0.1419 0.7143
vn -0.5754 0.1002 0.8117
vn -0.6853 0.1419 0.7143
vn -0.7088 -0.1335 0.6927
vn -0.5754 0.1002 0.8117
vn -0.7088 -0.1335 0.6927
vn -0.1465 0.1265 0.9811
vn -0.6853 0.1419 0.7143
vn -0.8644 0.0895 0.4948
vn -0.8730 -0.4377 0.2151
vn -0.6853 0.1419 0.7143
vn -0.8730 -0.4377 0.2151
vn -0.9770 -0.0680 -0.2021
vn -0.6853 0.1419 0.7143
vn -0.9770 -0.0680 -0.2021
vn -0.7088 -0.1335 0.6927
vn -0.6853 0.1419 0.7143
vn -0.8824 0.4207 0.2107
vn -0.8644 0.0895 0.4948
vn -0.6975 0.5581 -0.4494
vn -0.6156 0.7854 -0.0639
vn -0.7915 0.6012 0.1098
vn -0.6853 0.1419 0.7143
vn -0.6950 0.6078 0.3842
vn -0.8473 0.5310 0.0110
vn -0.6853 0.1419 0.7143
vn -0.8473 0.5310 0.0110
vn -0.8824 0.4207 0.2107
vn 0.7763 -0.4373 -0.4540
vn 0.8246 -0.2462 -0.5093
vn 0.9385 -0.2798 -0.2023
vn 0.7763 -0.4373 -0.4540
vn 0.9385 -0.2798 -0.2023
vn 0.9993 0.0120 -0.0355
vn -0.1465 0.1265 0.9811
vn -0.7088 -0.1335 0.6927
vn -0.5516 0.1375 0.8227
vn -0.9888 0.1292 -0.0750
vn -0.6016 -0.5357 0.5925
vn -0.3459 -0.3335 -0.8770
vn -0.6016 -0.5357 0.5925
vn -0.6604 -0.6699 0.3392
vn -0.3459 -0.3335 -0.8770
vn -0.5754 0.1002 0.8117
vn -0.9076 -0.1031 0.4069
vn -0.3413 -0.9254 0.1646
vn -0.5754 0.1002 0.8117
vn -0.3413 -0.9254 0.1646
vn -0.2348 -0.7744 0.5876
vn 0.4273 -0.6939 0.5796
vn -0.4482 -0.1255 0.8851
vn -0.6604 -0.7072 0.2524
f 1/1/1 2/2/2 3/3/3
f 4/4/4 5/5/5 6/6/6
f 7/7/7 8/8/8 9/9/9
f 10/10/10 11/11/11 12/12/12
f 13/13/13 14/14/14 15/15/15
f 16/16/16 17/17/17 18/18/18
f 19/19/19 20/20/20 21/21/21
f 22/22/22 23/23/23 24/24/24
f 25/25/25 26/26/26 27/27/27
f 28/28/28 29/29/29 30/30/30
f 31/31/31 32/32/32 33/33/33
f 34/34/34 35/35/35 36/36/36
f 37/37/37 38/38/38 39/39/39
f 40/40/40 41/41/41 42/42/42
f 43/43/43 44/44/44 45/45/45
f 46/46/46 47/47/47 48/48/48
f 49/49/49 50/50/50 51/51/51
f 52/52/52 53/53/53 54/54/54
f 55/55/55 56/56/56 57/57/57
f 58/58/58 59/59/59 60/60/60
f 61/61/61 62/62/62 63/63/63
f 64/64/64 65/65/65 66/66/66
f 67/67/67 68/68/68 69/69/69
f 70/70/70 71/71/71 72/72/72
f 73/73/73 74/74/74 75/75/75
f 76/76/76 77/77/77 78/78/78
f 79/79/79 80/80/80 81/81/81
f 82/82/82 83/83/83 84/84/84
f 85/85/85 86/86/86 87/87/87
f 88/88/88 89/89/89 90/90/90
f 91/91/91 92/92/92 93/93/93
f 94/94/94 95/95/95 96/96/96
f 97/97/97 98/98/98 99/99/99
f 100/100/100 101/101/101 102/102/102
f 103/103/103 104/104/104 105/105/105
f 106/106/106 107/107/107 108/108/108
f 109/109/109 110/110/110 111/111/111
f 112/112/112 113/113/113 114/114/114
f 115/115/115 116/116/116 117/117/117
f 118/118/118 119/119/119 120/120/120
f 121/121/121 122/122/122 123/123/123
f 124/124/124 125/125/125 126/126/126
f 127/127/127 128/128/128 129/129/129
f 130/130/130 131/131/131 132/132/132
f 133/133/133 134/134/134 135/135/135
f 136/136/136 137/137/137 138/138/138
f 139/139/139 140/140/140 141/141/141
f 142/142/142 143/143/143 144/144/144
f 145/145/145 146/146/146 147/147/147
f 148/148/148 149/149/149 150/150/150
f 151/151/151 152/152/152 153/153/153
f 154/154/154 155/155/155 156/156/156
f 157/157/157 158/158/158 159/159/159
f 160/160/160 161/161/161 162/162/162
f 163/163/163 164/164/164 165/165/165
f 166/166/166 167/167/167 168/168/168
f 169/169/169 170/170/170 171/171/171
f 172/172/172 173/173/173 174/174/174
f 175/175/175 176/176/176 177/177/177
f 178/178/178 179/179/179 180/180/180
f 181/181/181 182/182/182 183/183/183
f 184/184/184 185/185/185 186/186/186
f 187/187/187 188/188/188 189/189/189
f 190/190/190 191/191/191 192/192/192
f 193/193/193 194/194/194 195/195/195
f 196/196/196 197/197/197 198/198/198
f 199/199/199 200/200/200 201/201/201
f 202/202/202 203/203/203 204/204/204
f 205/205/205 206/206/206 207/207/207
f 208/208/208 209/209/209 210/210/210
f 211/211/211 212/212/212 213/213/213
f 214/214/214 215/215/215 216/216/216
f 217/217/217 218/218/218 219/219/219
f 220/220/220 221/221/221 222/222/222
f 223/223/223 224/224/224 225/225/225
f 226/226/226 227/227/227 228/228/228
f 229/229/229 230/230/230 231/231/231
f 232/232/232 233/233/233 234/234/234
f 235/235/235 236/236/236 237/237/237
f 238/238/238 239/239/239 240/240/240
f 241/241/241 242/242/242 243/243/243
f 244/244/244 245/245/245 246/246/246
f 247/247/247 248/248/248 249/249/249
f 250/250/250 251/251/251 252/252/252
f 253/253/253 254/254/254 255/255/255
f 256/256/256 257/257/257 258/258/258
f 259/259/259 260/260/260 261/261/261
f 262/262/262 263/263/263 264/264/264
f 265/265/265 266/266/266 267/267/267
f 268/268/268 269/269/269 270/270/270
f 271/271/271 272/272/272 273/273/273
f 274/274/274 275/275/275 276/276/276
f 277/277/277 278/278/278 279/279/279
f 280/280/280 281/281/281 282/282/282
f 283/283/283 284/284/284 285/285/285
f 286/286/286 287/287/287 288/288/288
f 289/289/289 290/290/290 291/291/291
f 292/292/292 293/293/293 294/294/294
f 295/295/295 296/296/296 297/297/297
f 298/298/298 299/299/299 300/300/300
f 301/301/301 302/302/302 303/303/303
f 304/304/304 305/305/305 306/306/306
f 307/307/307 308/308/308 309/309/309
f 310/310/310 311/311/311 312/312/312
f 313/313/313 314/314/314 315/315/315
f 316/316/316 317/317/317 318/318/318
f 319/319/319 320/320/320 321/321/321
f 322/322/322 323/323/323 324/324/324
f 325/325/325 326/326/326 327/327/327
f 328/328/328 329/329/329 330/330/330
f 331/331/331 332/332/332 333/333/333
f 334/334/334 335/335/335 336/336/336
f 337/337/337 338/338/338 339/339/339
f 340/340/340 341/341/341 342/342/342
f 343/343/343 344/344/344 345/345/345
f 346/346/346 347/347/347 348/348/348
f 349/349/349 350/350/350 351/351/351
f 352/352/352 353/353/353 354/354/354
f 355/355/355 356/356/356 357/357/357
f 358/358/358 359/359/359 360/360/360
f 361/361/361 362/362/362 363/363/363
f 364/364/364 365/365/365 366/366/366
f 367/367/367 368/368/368 369/369/369
f 370/370/370 371/371/371 372/372/372
f 373/373/373 374/374/374 375/375/375
f 376/376/376 377/377/377 378/378/378
f 379/379/379 380/380/380 381/381/381
f 382/382/382 383/383/383 384/384/384
f 385/385/385 386/386/386 387/387/387
f 388/388/388 389/389/389 390/390/390
f 391/391/391 392/392/392 393/393/393
f 394/394/394 395/395/395 396/396/396
f 397/397/397 398/398/398 399/399/399
f 400/400/400 401/401/401 402/402/402
f 403/403/403 404/404/404 405/405/405
f 406/406/406 407/407/407 408/408/408
f 409/409/409 410/410/410 411/411/411
f 412/412/412 413/413/413 414/414/414
f 415/415/415 416/416/416 417/417/417
f 418/418/418 419/419/419 420/420/420
f 421/421/421 422/422/422 423/423/423
f 424/424/424 425/425/425 426/426/426
f 427/427/427 428/428/428 429/429/429
f 430/430/430 431/431/431 432/432/432
f 433/433/433 434/434/434 435/435/435
f 436/436/436 437/437/437 438/438/438
f 439/439/439 440/440/440 441/441/441
f 442/442/442 443/443/443 444/444/444
f 445/445/445 446/446/446 447/447/447
f 448/448/448 449/449/449 450/450/450
f 451/451/451 452/452/452 453/453/453
f 454/454/454 455/455/455 456/456/456
f 457/457/457 458/458/458 459/459/459
f 460/460/460 461/461/461 462/462/462
f 463/463/463 464/464/464 465/465/465
f 466/466/466 467/467/467 468/468/468
f 469/469/469 470/470/470 471/471/471
f 472/472/472 473/473/473 474/474/474
f 475/475/475 476/476/476 477/477/477
f 478/478/478 479/479/479 480/480/480
f 481/481/481 482/482/482 483/483/483
f 484/484/484 485/485/485 486/486/486
f 487/487/487 488/488/488 489/489/489
f 490/490/490 491/491/491 492/492/492
f 493/493/493 494/494/494 495/495/495
f 496/496/496 497/497/497 498/498/498
f 499/499/499 500/500/500 501/501/501
f 502/502/502 503/503/503 504/504/504
f 505/505/505 506/506/506 507/507/507
f 508/508/508 509/509/509 510/510/510
f 511/511/511 512/512/512 513/513/513
f 514/514/514 515/515/515 516/516/516
f 517/517/517 518/518/518 519/519/519
f 520/520/520 521/521/521 522/522/522
f 523/523/523 524/524/524 525/525/525
f 526/526/526 527/527/527 528/528/528
f 529/529/529 530/530/530 531/531/531
f 532/532/532 533/533/533 534/534/534
f 535/535/535 536/536/536 537/537/537
f 538/538/538 539/539/539 540/540/540
f 541/541/541 542/542/542 543/543/543
f 544/544/544 545/545/545 546/546/546
f 547/547/547 548/548/548 549/549/549
f 550/550/550 551/551/551 552/552/552
f 553/553/553 554/554/554 555/555/555
f 556/556/556 557/557/557 558/558/558
f 559/559/559 560/560/560 561/561/561
f 562/562/562 563/563/563 564/564/564
f 565/565/565 566/566/566 567/567/567
f 568/568/568 569/569/569 570/570/570
f 571/571/571 572/572/572 573/573/573
f 574/574/574 575/575/575 576/576/576
f 577/577/577 578/578/578 579/579/579
f 580/580/580 581/581/581 582/582/582
f 583/583/583 584/584/584 585/585/585
f 586/586/586 587/587/587 588/588/588
f 589/589/589 590/590/590 591/591/591
f 592/592/592 593/593/593 594/594/594
f 595/595/595 596/596/596 597/597/597
f 598/598/598 599/599/599 600/600/600
f 601/601/601 602/602/602 603/603/603
f 604/604/604 605/605/605 606/606/606
f 607/607/607 608/608/608 609/609/609
f 610/610/610 611/611/611 612/612/612
f 613/613/613 614/614/614 615/615/615
f 616/616/616 617/617/617 618/618/618
f 619/619/619 620/620/620 621/621/621
f 622/622/622 623/623/623 624/624/624
f 625/625/625 626/626/626 627/627/627
f 628/628/628 629/629/629 630/630/630
f 631/631/631 632/632/632 633/633/633
f 634/634/634 635/635/635 636/636/636
f 637/637/637 638/638/638 639/639/639
f 640/640/640 641/641/641 642/642/642
f 643/643/643 644/644/644 645/645/645
f 646/646/646 647/647/647 648/648/648
f 649/649/649 650/650/650 651/651/651
f 652/652/652 653/653/653 654/654/654
f 655/655/655 656/656/656 657/657/657
f 658/658/658 659/659/659 660/660/660
f 661/661/661 662/662/662 663/663/663
f 664/664/664 665/665/665 666/666/666
f 667/667/667 668/668/668 669/669/669
f 670/670/670 671/671/671 672/672/672
f 673/673/673 674/674/674 675/675/675
f 676/676/676 677/677/677 678/678/678
f 679/679/679 680/680/680 681/681/681
f 682/682/682 683/683/683 684/684/684
f 685/685/685 686/686/686 687/687/687
f 688/688/688 689/689/689 690/690/690
f 691/691/691 692/692/692 693/693/693
f 694/694/694 695/695/695 696/696/696
f 697/697/697 698/698/698 699/699/699
f 700/700/700 701/701/701 702/702/702
f 703/703/703 704/704/704 705/705/705
f 706/706/706 707/707/707 708/708/708
f 709/709/709 710/710/710 711/711/711
f 712/712/712 713/713/713 714/714/714
f 715/715/715 716/716/716 717/717/717
f 718/718/718 719/719/719 720/720/720
f 721/721/721 722/722/722 723/723/723
f 724/724/724 725/725/725 726/726/726
f 727/727/727 728/728/728 729/729/729
f 730/730/730 731/731/731 732/732/732
f 733/733/733 734/734/734 735/735/735
f 736/736/736 737/737/737 738/738/738
f 739/739/739 740/740/740 741/741/741
f 742/742/742 743/743/743 744/744/744
f 745/745/745 746/746/746 747/747/747
f 748/748/748 749/749/749 750/750/750
f 751/751/751 752/752/752 753/753/753
f 754/754/754 755/755/755 756/756/756
f 757/757/757 758/758/758 759/759/759
f 760/760/760 761/761/761 762/762/762
f 763/763/763 764/764/764 765/765/765
f 766/766/766 767/767/767 768/768/768
f 769/769/769 770/770/770 771/771/771
f 772/772/772 773/773/773 774/774/774
f 775/775/775 776/776/776 777/777/777
f 778/778/778 779/779/779 780/780/780
f 781/781/781 782/782/782 783/783/783
f 784/784/784 785/785/785 786/786/786
f 787/787/787 788/788/788 789/789/789
f 790/790/790 791/791/791 792/792/792
f 793/793/793 794/794/794 795/795/795
f 796/796/796 797/797/797 798/798/798
f 799/799/799 800/800/800 801/801/801
f 802/802/802 803/803/803 804/804/804
f 805/805/805 806/806/806 807/807/807
f 808/808/808 809/809/809 810/810/810
f 811/811/811 812/812/812 813/813/813
f 814/814/814 815/815/815 816/816/816
f 817/817/817 818/818/818 819/819/819
f 820/820/820 821/821/821 822/822/822
f 823/823/823 824/824/824 825/825/825
f 826/826/826 827/827/827 828/828/828
f 829/829/829 830/830/830 831/831/831
f 832/832/832 833/833/833 834/834/834
f 835/835/835 836/836/836 837/837/837
f 838/838/838 839/839/839 840/840/840
f 841/841/841 842/842/842 843/843/843
f 844/844/844 845/845/845 846/846/846
f 847/847/847 848/848/848 849/849/849
f 850/850/850 851/851/851 852/852/852
f 853/853/853 854/854/854 855/855/855
f 856/856/856 857/857/857 858/858/858
f 859/859/859 860/860/860 861/861/861
f 862/862/862 863/863/863 864/864/864
f 865/865/865 866/866/866 867/867/867
f 868/868/868 869/869/869 870/870/870
f 871/871/871 872/872/872 873/873/873
f 874/874/874 875/875/875 876/876/876
f 877/877/877 878/878/878 879/879/879
f 880/880/880 881/881/881 882/882/882
f 883/883/883 884/884/884 885/885/885
f 886/886/886 887/887/887 888/888/888
f 889/889/889 890/890/890 891/891/891
f 892/892/892 893/893/893 894/894/894
f 895/895/895 896/896/896 897/897/897
f 898/898/898 899/899/899 900/900/900
f 901/901/901 902/902/902 903/903/903
f 904/904/904 905/905/905 906/906/906
f 907/907/907 908/908/908 909/909/909
f 910/910/910 911/911/911 912/912/912
f 913/913/913 914/914/914 915/915/915
f 916/916/916 917/917/917 918/918/918
f 919/919/919 920/920/920 921/921/921
f 922/922/922 923/923/923 924/924/924
f 925/925/925 926/926/926 927/927/927
f 928/928/928 929/929/929 930/930/930
f 931/931/931 932/932/932 933/933/933
f 934/934/934 935/935/935 936/936/936
f 937/937/937 938/938/938 939/939/939
f 940/940/940 941/941/941 942/942/942
f 943/943/943 944/944/944 945/945/945
f 946/946/946 947/947/947 948/948/948
f 949/949/949 950/950/950 951/951/951
f 952/952/952 953/953/953 954/954/954
f 955/955/955 956/956/956 957/957/957
f 958/958/958 959/959/959 960/960/960
f 961/961/961 962/962/962 963/963/963
f 964/964/964 965/965/965 966/966/966
f 967/967/967 968/968/968 969/969/969
f 970/970/970 971/971/971 972/972/972
f 973/973/973 974/974/974 975/975/975
f 976/976/976 977/977/977 978/978/978
f 979/979/979 980/980/980 981/981/981
f 982/982/982 983/983/983 984/984/984
f 985/985/985 986/986/986 987/987/987
f 988/988/988 989/989/989 990/990/990
f 991/991/991 992/992/992 993/993/993
f 994/994/994 995/995/995 996/996/996
f 997/997/997 998/998/998 999/999/999
f 1000/1000/1000 1001/1001/1001 1002/1002/1002
f 1003/1003/1003 1004/1004/1004 1005/1005/1005
f 1006/1006/1006 1007/1007/1007 1008/1008/1008
f 1009/1009/1009 1010/1010/1010 1011/1011/1011
f 1012/1012/1012 1013/1013/1013 1014/1014/1014
f 1015/1015/1015 1016/1016/1016 1017/1017/1017
f 1018/1018/1018 1019/1019/1019 1020/1020/1020
f 1021/1021/1021 1022/1022/1022 1023/1023/1023
f 1024/1024/1024 1025/1025/1025 1026/1026/1026
f 1027/1027/1027 1028/1028/1028 1029/1029/1029
f 1030/1030/1030 1031/1031/1031 1032/1032/1032
f 1033/1033/1033 1034/1034/1034 1035/1035/1035
f 1036/1036/1036 1037/1037/1037 1038/1038/1038
f 1039/1039/1039 1040/1040/1040 1041/1041/1041
f 1042/1042/1042 1043/1043/1043 1044/1044/1044
f 1045/1045/1045 1046/1046/1046 1047/1047/1047
f 1048/1048/1048 1049/1049/1049 1050/1050/1050
f 1051/1051/1051 1052/1052/1052 1053/1053/1053
f 1054/1054/1054 1055/1055/1055 1056/1056/1056
f 1057/1057/1057 1058/1058/1058 1059/1059/1059
f 1060/1060/1060 1061/1061/1061 1062/1062/1062
f 1063/1063/1063 1064/1064/1064 1065/1065/1065
f 1066/1066/1066 1067/1067/1067 1068/1068/1068
f 1069/1069/1069 1070/1070/1070 1071/1071/1071
f 1072/1072/1072 1073/1073/1073 1074/1074/1074
f 1075/1075/1075 1076/1076/1076 1077/1077/1077
f 1078/1078/1078 1079/1079/1079 1080/1080/1080
f 1081/1081/1081 1082/1082/1082 1083/1083/1083
f 1084/1084/1084 1085/1085/1085 1086/1086/1086
f 1087/1087/1087 1088/1088/1088 1089/1089/1089
f 1090/1090/1090 1091/1091/1091 1092/1092/1092
f 1093/1093/1093 1094/1094/1094 1095/1095/1095
f 1096/1096/1096 1097/1097/1097 1098/1098/1098
f 1099/1099/1099 1100/1100/1100 1101/1101/1101
f 1102/1102/1102 1103/1103/1103 1104/1104/1104
f 1105/1105/1105 1106/1106/1106 1107/1107/1107
f 1108/1108/1108 1109/1109/1109 1110/1110/1110
f 1111/1111/1111 1112/1112/1112 1113/1113/1113
f 1114/1114/1114 1115/1115/1115 1116/1116/1116
f 1117/1117/1117 1118/1118/1118 1119/1119/1119
f 1120/1120/1120 1121/1121/1121 1122/1122/1122
f 1123/1123/1123 1124/1124/1124 1125/1125/1125
f 1126/1126/1126 1127/1127/1127 1128/1128/1128
f 1129/1129/1129 1130/1130/1130 1131/1131/1131
f 1132/1132/1132 1133/1133/1133 1134/1134/1134
f 1135/1135/1135 1136/1136/1136 1137/1137/1137
