o tail_3
v -0.14758 1.42505 2.42852
v -0.16152 1.26761 2.39326
v -0.04762 1.27468 2.42910
v -0.14758 1.42505 2.42852
v -0.04762 1.27468 2.42910
v 0.14617 1.28006 2.40504
v -0.14758 1.42505 2.42852
v 0.14617 1.28006 2.40504
v 0.14574 1.43103 2.42191
v -0.16152 1.26761 2.39326
v -0.17166 1.20180 2.32747
v -0.13240 1.16019 2.52089
v -0.16152 1.26761 2.39326
v -0.13240 1.16019 2.52089
v -0.00050 1.19178 2.49813
v -0.16152 1.26761 2.39326
v -0.00050 1.19178 2.49813
v -0.04762 1.27468 2.42910
v -0.19902 1.12234 2.40179
v -0.17166 1.20180 2.32747
v -0.22028 1.19702 2.23062
v -0.19902 1.12234 2.40179
v -0.26127 1.10555 2.36611
v -0.22717 1.05370 2.40841
v -0.19902 1.12234 2.40179
v -0.15874 1.06530 2.52515
v -0.13240 1.16019 2.52089
v -0.19902 1.12234 2.40179
v -0.13240 1.16019 2.52089
v -0.17166 1.20180 2.32747
v 0.12077 1.21187 2.45612
v -0.00050 1.19178 2.49813
v 0.02414 1.12109 2.64745
v 0.12077 1.21187 2.45612
v 0.02414 1.12109 2.64745
v 0.16545 1.11446 2.41921
v 0.14617 1.28006 2.40504
v -0.04762 1.27468 2.42910
v -0.00050 1.19178 2.49813
v 0.14617 1.28006 2.40504
v -0.00050 1.19178 2.49813
v 0.12077 1.21187 2.45612
v 0.12077 1.21187 2.45612
v 0.16545 1.11446 2.41921
v 0.17825 1.17963 2.30046
v 0.12077 1.21187 2.45612
v 0.17825 1.17963 2.30046
v 0.14617 1.28006 2.40504
v -0.25807 1.09583 2.41575
v -0.22717 1.05370 2.40841
v -0.26127 1.10555 2.36611
v -0.25807 1.09583 2.41575
v -0.23121 0.94050 2.40010
v -0.22717 1.05370 2.40841
v -0.25807 1.09583 2.41575
v -0.27481 0.87322 2.32319
v -0.23121 0.94050 2.40010
v -0.17934 0.82922 2.36258
v -0.17413 0.93158 2.41196
v -0.23121 0.94050 2.40010
v -0.17934 0.82922 2.36258
v -0.23121 0.94050 2.40010
v -0.27481 0.87322 2.32319
v -0.17934 0.82922 2.36258
v -0.27481 0.87322 2.32319
v -0.29804 0.89318 2.19589
v 0.25006 1.10141 2.41533
v 0.27116 1.12494 2.32153
v 0.17825 1.17963 2.30046
v 0.25006 1.10141 2.41533
v 0.17825 1.17963 2.30046
v 0.16545 1.11446 2.41921
v 0.16423 0.83436 2.39481
v 0.15699 0.76542 2.35337
v 0.16840 0.82103 2.28525
v 0.16423 0.83436 2.39481
v 0.16840 0.82103 2.28525
v 0.22579 0.82624 2.32393
v 0.26021 0.83582 2.39242
v 0.16423 0.83436 2.39481
v 0.22579 0.82624 2.32393
v 0.26021 0.83582 2.39242
v 0.22579 0.82624 2.32393
v 0.28288 0.84200 2.29715
v 0.16840 0.82103 2.28525
v 0.15699 0.76542 2.35337
v 0.22579 0.82624 2.32393
v 0.15699 0.76542 2.35337
v 0.21807 0.78929 2.28697
v 0.22579 0.82624 2.32393
v 0.21807 0.78929 2.28697
v 0.28288 0.84200 2.29715
v 0.22579 0.82624 2.32393
v 0.21807 0.78929 2.28697
v 0.14899 0.66930 2.29840
v 0.19353 0.69164 2.27700
v 0.21807 0.78929 2.28697
v 0.15699 0.76542 2.35337
v 0.14130 0.67443 2.41387
v 0.21807 0.78929 2.28697
v 0.14130 0.67443 2.41387
v 0.14899 0.66930 2.29840
v -0.13939 0.62829 2.30756
v -0.11289 0.48872 2.31171
v -0.17934 0.82922 2.36258
v -0.12459 0.62978 2.74178
v -0.11611 0.65325 3.13781
v -0.17413 0.93158 2.41196
v -0.12459 0.62978 2.74178
v -0.17413 0.93158 2.41196
v -0.17934 0.82922 2.36258
v -0.12459 0.62978 2.74178
v -0.17934 0.82922 2.36258
v -0.11289 0.48872 2.31171
v -0.12459 0.62978 2.74178
v -0.11289 0.48872 2.31171
v -0.10120 0.49911 2.71023
v -0.10120 0.49911 2.71023
v -0.11289 0.48872 2.31171
v 0.01514 0.49799 2.70831
v 0.16729 1.31414 2.01192
v 0.14574 1.43103 2.42191
v 0.14617 1.28006 2.40504
v -0.04442 1.05353 2.80477
v 0.01207 1.00951 2.92264
v 0.02414 1.12109 2.64745
v 0.01207 1.00951 2.92264
v 0.08519 1.01818 2.88699
v 0.16545 1.11446 2.41921
v 0.01207 1.00951 2.92264
v 0.16545 1.11446 2.41921
v 0.02414 1.12109 2.64745
v 0.08519 1.01818 2.88699
v 0.09836 0.94542 3.09244
v 0.14815 1.03566 2.60585
v 0.08519 1.01818 2.88699
v 0.14815 1.03566 2.60585
v 0.16545 1.11446 2.41921
v 0.14815 1.03566 2.60585
v 0.16423 0.83436 2.39481
v 0.16302 1.02466 2.41350
v 0.14815 1.03566 2.60585
v 0.10953 0.72515 3.15945
v 0.12640 0.63483 2.74284
v 0.14815 1.03566 2.60585
v 0.12640 0.63483 2.74284
v 0.15699 0.76542 2.35337
v 0.14815 1.03566 2.60585
v 0.15699 0.76542 2.35337
v 0.16423 0.83436 2.39481
v -0.11192 1.07243 2.70221
v -0.13240 1.16019 2.52089
v -0.15874 1.06530 2.52515
v -0.11192 1.07243 2.70221
v -0.15874 1.06530 2.52515
v -0.10792 0.87868 3.09596
v -0.11192 1.07243 2.70221
v -0.04442 1.05353 2.80477
v -0.13240 1.16019 2.52089
v -0.15874 1.06530 2.52515
v -0.15014 0.93336 2.74560
v -0.10792 0.87868 3.09596
v -0.15014 0.93336 2.74560
v -0.17413 0.93158 2.41196
v -0.11611 0.65325 3.13781
v -0.15014 0.93336 2.74560
v -0.15874 1.06530 2.52515
v -0.17413 0.93158 2.41196
v -0.04442 1.05353 2.80477
v 0.02414 1.12109 2.64745
v -0.00050 1.19178 2.49813
v -0.04442 1.05353 2.80477
v -0.00050 1.19178 2.49813
v -0.13240 1.16019 2.52089
v -0.05416 0.63619 2.92955
v -0.12459 0.62978 2.74178
v 0.12640 0.63483 2.74284
v 0.12640 0.63483 2.74284
v 0.01514 0.49799 2.70831
v 0.10540 0.49395 2.70173
v 0.12640 0.63483 2.74284
v -0.12459 0.62978 2.74178
v -0.10120 0.49911 2.71023
v 0.12640 0.63483 2.74284
v -0.10120 0.49911 2.71023
v 0.01514 0.49799 2.70831
v 0.01514 0.49799 2.70831
v 0.04788 0.49155 2.44945
v 0.11763 0.53124 2.40997
v 0.01514 0.49799 2.70831
v 0.11763 0.53124 2.40997
v 0.10540 0.49395 2.70173
v 0.04788 0.49155 2.44945
v 0.06956 0.49138 2.28644
v 0.11763 0.53124 2.40997
v 0.04788 0.49155 2.44945
v 0.01514 0.49799 2.70831
v -0.02885 0.48930 2.31727
v 0.04788 0.49155 2.44945
v -0.02885 0.48930 2.31727
v 0.06956 0.49138 2.28644
v 0.11763 0.53124 2.40997
v 0.14899 0.66930 2.29840
v 0.14130 0.67443 2.41387
v 0.12640 0.63483 2.74284
v 0.14130 0.67443 2.41387
v 0.15699 0.76542 2.35337
v 0.01514 0.49799 2.70831
v -0.11289 0.48872 2.31171
v -0.02885 0.48930 2.31727
v 0.28288 0.84200 2.29715
v 0.25006 1.10141 2.41533
v 0.26021 0.83582 2.39242
v 0.25006 1.10141 2.41533
v 0.28288 0.84200 2.29715
v 0.27116 1.12494 2.32153
v 0.25006 1.10141 2.41533
v 0.16302 1.02466 2.41350
v 0.16423 0.83436 2.39481
v 0.25006 1.10141 2.41533
v 0.16423 0.83436 2.39481
v 0.26021 0.83582 2.39242
v -0.29804 0.89318 2.19589
v -0.27481 0.87322 2.32319
v -0.25807 1.09583 2.41575
v -0.29804 0.89318 2.19589
v -0.25807 1.09583 2.41575
v -0.26127 1.10555 2.36611
v -0.17413 0.93158 2.41196
v -0.15874 1.06530 2.52515
v -0.19902 1.12234 2.40179
v -0.17413 0.93158 2.41196
v -0.19902 1.12234 2.40179
v -0.22717 1.05370 2.40841
v -0.17413 0.93158 2.41196
v -0.22717 1.05370 2.40841
v -0.23121 0.94050 2.40010
v 0.14574 1.43103 2.42191
v -0.15103 1.63854 1.98232
v -0.14758 1.42505 2.42852
v 0.11763 0.53124 2.40997
v 0.06956 0.49138 2.28644
v 0.15146 0.62919 2.16788
v 0.11763 0.53124 2.40997
v 0.15146 0.62919 2.16788
v 0.14899 0.66930 2.29840
v -0.24283 0.79405 2.25963
v -0.13939 0.62829 2.30756
v -0.17934 0.82922 2.36258
v 0.11763 0.53124 2.40997
v 0.14130 0.67443 2.41387
v 0.12640 0.63483 2.74284
v 0.11763 0.53124 2.40997
v 0.12640 0.63483 2.74284
v 0.10540 0.49395 2.70173
v 0.14815 1.03566 2.60585
v 0.16302 1.02466 2.41350
v 0.16545 1.11446 2.41921
v 0.16302 1.02466 2.41350
v 0.25006 1.10141 2.41533
v 0.16545 1.11446 2.41921
v 0.00144 0.55367 2.24685
v 0.06956 0.49138 2.28644
v -0.02885 0.48930 2.31727
v -0.13939 0.62829 2.30756
v -0.02885 0.48930 2.31727
v -0.11289 0.48872 2.31171
vt 0.04060 0.22725
vt 0.04910 0.23551
vt 0.04686 0.23650
vt 0.75629 0.58946
vt 0.74515 0.58223
vt 0.74534 0.56796
vt 0.75629 0.58946
vt 0.74534 0.56796
vt 0.75648 0.56787
vt 0.04910 0.23551
vt 0.05559 0.23692
vt 0.04551 0.24731
vt 0.74463 0.59061
vt 0.73780 0.58855
vt 0.73918 0.57883
vt 0.74463 0.59061
vt 0.73918 0.57883
vt 0.74515 0.58223
vt 0.05438 0.24477
vt 0.05633 0.23716
vt 0.06182 0.23326
vt 0.99525 0.02147
vt 0.99088 0.01979
vt 0.99355 0.01629
vt 0.05435 0.24479
vt 0.04925 0.25327
vt 0.04548 0.24730
vt 0.05436 0.24477
vt 0.04581 0.24733
vt 0.05565 0.23682
vt 0.62339 0.83300
vt 0.63202 0.83676
vt 0.62927 0.84733
vt 0.62339 0.83300
vt 0.62927 0.84733
vt 0.62032 0.82971
vt 0.74534 0.56796
vt 0.74515 0.58223
vt 0.73918 0.57883
vt 0.74534 0.56796
vt 0.73918 0.57883
vt 0.74047 0.56989
vt 0.15417 0.63952
vt 0.14892 0.64508
vt 0.14244 0.63749
vt 0.15417 0.63952
vt 0.14275 0.63735
vt 0.15260 0.63343
vt 0.10753 0.49183
vt 0.10528 0.49156
vt 0.10842 0.48856
vt 0.99107 0.01925
vt 0.99382 0.00794
vt 0.99355 0.01629
vt 0.05428 0.24727
vt 0.06916 0.25690
vt 0.06181 0.25588
vt 0.99819 -0.00005
vt 0.99810 0.00772
vt 0.99382 0.00794
vt 0.99819 -0.00005
vt 0.99382 0.00794
vt 0.99097 0.00261
vt 0.06871 0.26115
vt 0.06916 0.25690
vt 0.07611 0.25052
vt 0.98428 0.19849
vt 0.98271 0.19167
vt 0.98924 0.19047
vt 0.98428 0.19863
vt 0.98962 0.18997
vt 0.99055 0.19873
vt 0.21098 0.32789
vt 0.20506 0.32792
vt 0.20596 0.32151
vt 0.89356 0.32711
vt 0.89225 0.31917
vt 0.89696 0.32111
vt 0.90044 0.32558
vt 0.89357 0.32712
vt 0.89696 0.32111
vt 0.90045 0.32554
vt 0.89696 0.32111
vt 0.90050 0.31839
vt 0.44088 0.21891
vt 0.44468 0.21763
vt 0.44088 0.22316
vt 0.44470 0.21764
vt 0.44361 0.22228
vt 0.44088 0.22316
vt 0.89587 0.31857
vt 0.90099 0.31873
vt 0.89696 0.32111
vt 0.20405 0.32280
vt 0.19677 0.32775
vt 0.19752 0.32591
vt 0.20405 0.32280
vt 0.20505 0.32792
vt 0.20164 0.33521
vt 0.20405 0.32280
vt 0.20164 0.33521
vt 0.19759 0.32783
vt 0.08035 0.27127
vt 0.08580 0.27997
vt 0.06874 0.26118
vt 0.05368 0.28878
vt 0.02844 0.30337
vt 0.06158 0.25702
vt 0.05368 0.28879
vt 0.06156 0.25695
vt 0.06874 0.26108
vt 0.05380 0.28850
vt 0.06873 0.26118
vt 0.08565 0.28040
vt 0.05368 0.28878
vt 0.08582 0.28003
vt 0.06097 0.29553
vt 0.44558 0.98282
vt 0.44483 0.95349
vt 0.45415 0.98271
vt 0.12689 0.62007
vt 0.15794 0.62363
vt 0.15260 0.63343
vt 0.63327 0.85924
vt 0.62842 0.86721
vt 0.62927 0.84733
vt 0.62842 0.86721
vt 0.62328 0.86418
vt 0.62031 0.82970
vt 0.62842 0.86721
vt 0.62034 0.82970
vt 0.62927 0.84733
vt 0.24129 0.35191
vt 0.24424 0.36768
vt 0.23211 0.33341
vt 0.24129 0.35191
vt 0.23183 0.33350
vt 0.22952 0.31875
vt 0.23170 0.33352
vt 0.21098 0.32790
vt 0.22367 0.32182
vt 0.23169 0.33355
vt 0.23326 0.38021
vt 0.21169 0.35744
vt 0.23164 0.33365
vt 0.21170 0.35739
vt 0.20505 0.32795
vt 0.23170 0.33351
vt 0.20509 0.32797
vt 0.21098 0.32790
vt 0.03817 0.26001
vt 0.04553 0.24726
vt 0.04921 0.25328
vt 0.03817 0.26001
vt 0.04914 0.25323
vt 0.02175 0.28781
vt 0.63889 0.85202
vt 0.63310 0.85866
vt 0.64158 0.83922
vt 0.04924 0.25328
vt 0.04106 0.27032
vt 0.02195 0.28791
vt 0.04107 0.27032
vt 0.06155 0.25691
vt 0.02842 0.30344
vt 0.04106 0.27033
vt 0.04920 0.25329
vt 0.06159 0.25688
vt 0.63330 0.85873
vt 0.62927 0.84733
vt 0.63202 0.83676
vt 0.63329 0.85876
vt 0.63202 0.83676
vt 0.64155 0.83957
vt 0.55202 0.96652
vt 0.54711 0.95260
vt 0.56558 0.95305
vt 0.10065 0.97721
vt 0.09071 0.98568
vt 0.09035 0.97911
vt 0.10067 0.97722
vt 0.10088 0.99569
vt 0.09114 0.99426
vt 0.10079 0.97725
vt 0.09104 0.99424
vt 0.09078 0.98571
vt 0.45415 0.98271
vt 0.45662 0.96367
vt 0.46205 0.96083
vt 0.45415 0.98270
vt 0.46174 0.96073
vt 0.46079 0.98225
vt 0.45662 0.96367
vt 0.45826 0.95168
vt 0.46054 0.96060
vt 0.45662 0.96367
vt 0.45415 0.98271
vt 0.45101 0.95392
vt 0.45662 0.96367
vt 0.45101 0.95392
vt 0.45826 0.95168
vt 0.19245 0.34049
vt 0.19691 0.32813
vt 0.20164 0.33521
vt 0.21170 0.35742
vt 0.20164 0.33521
vt 0.20506 0.32792
vt 0.45415 0.98270
vt 0.44482 0.95349
vt 0.45101 0.95393
vt 0.20776 0.32136
vt 0.22858 0.31892
vt 0.21101 0.32762
vt 0.22859 0.31893
vt 0.20776 0.32136
vt 0.22650 0.31212
vt 0.99872 0.93341
vt 0.99230 0.92779
vt 0.99235 0.91374
vt 0.99872 0.93342
vt 0.99237 0.91373
vt 0.99940 0.91383
vt 0.07609 0.25053
vt 0.06916 0.25690
vt 0.05448 0.24699
vt 0.07612 0.25052
vt 0.05449 0.24699
vt 0.05709 0.24439
vt 0.06160 0.25681
vt 0.04916 0.25341
vt 0.05438 0.24481
vt 0.99806 0.00761
vt 0.99528 0.02144
vt 0.99355 0.01629
vt 0.99806 0.00760
vt 0.99355 0.01629
vt 0.99382 0.00794
vt 0.71752 0.96747
vt 0.73936 0.93559
vt 0.73910 0.96778
vt 0.19259 0.34040
vt 0.18523 0.33422
vt 0.18941 0.32145
vt 0.19250 0.34041
vt 0.18941 0.32145
vt 0.19690 0.32816
vt 0.07634 0.25918
vt 0.08035 0.27127
vt 0.06873 0.26118
vt 0.19245 0.34047
vt 0.20164 0.33521
vt 0.21170 0.35742
vt 0.19245 0.34047
vt 0.21170 0.35742
vt 0.20124 0.36024
vt 0.23167 0.33346
vt 0.22367 0.32182
vt 0.22954 0.31875
vt 0.99230 0.92779
vt 0.99872 0.93342
vt 0.99250 0.93440
vt 0.80030 0.99168
vt 0.79843 0.99831
vt 0.79491 0.99200
vt 0.80030 0.98008
vt 0.79491 0.99200
vt 0.79205 0.98651
vn -0.5681 0.4121 0.7123
vn -0.8696 0.1296 0.4765
vn -0.0921 0.3112 0.9459
vn -0.5681 0.4121 0.7123
vn -0.0921 0.3112 0.9459
vn 0.7793 0.1368 0.6116
vn -0.5681 0.4121 0.7123
vn 0.7793 0.1368 0.6116
vn 0.5855 0.3998 0.7053
vn -0.8696 0.1296 0.4765
vn -0.9051 0.3589 0.2281
vn -0.6149 0.6332 0.4700
vn -0.8696 0.1296 0.4765
vn -0.6149 0.6332 0.4700
vn -0.0339 0.8068 0.5898
vn -0.8696 0.1296 0.4765
vn -0.0339 0.8068 0.5898
vn -0.0921 0.3112 0.9459
vn -0.7491 0.4277 0.5059
vn -0.9051 0.3589 0.2281
vn -0.5766 0.7349 0.3570
vn -0.7491 0.4277 0.5059
vn -0.7767 0.5017 0.3808
vn 0.0748 0.1082 0.9913
vn -0.7491 0.4277 0.5059
vn -0.9631 0.1413 0.2292
vn -0.6149 0.6332 0.4700
vn -0.7491 0.4277 0.5059
vn -0.6149 0.6332 0.4700
vn -0.9051 0.3589 0.2281
vn 0.6449 0.4241 0.6358
vn -0.0339 0.8068 0.5898
vn 0.3195 0.8521 0.4145
vn 0.6449 0.4241 0.6358
vn 0.3195 0.8521 0.4145
vn 0.7099 0.3925 0.5849
vn 0.7793 0.1368 0.6116
vn -0.0921 0.3112 0.9459
vn -0.0339 0.8068 0.5898
vn 0.7793 0.1368 0.6116
vn -0.0339 0.8068 0.5898
vn 0.6449 0.4241 0.6358
vn 0.6449 0.4241 0.6358
vn 0.7099 0.3925 0.5849
vn 0.7494 0.5870 0.3062
vn 0.6449 0.4241 0.6358
vn 0.7494 0.5870 0.3062
vn 0.7793 0.1368 0.6116
vn -0.1996 0.6907 0.6951
vn 0.0748 0.1082 0.9913
vn -0.7767 0.5017 0.3808
vn -0.1996 0.6907 0.6951
vn -0.4853 -0.2540 0.8366
vn 0.0748 0.1082 0.9913
vn -0.1996 0.6907 0.6951
vn -0.7754 -0.5612 0.2895
vn -0.4853 -0.2540 0.8366
vn -0.8641 -0.3147 0.3928
vn -0.7930 -0.1528 0.5898
vn -0.4853 -0.2540 0.8366
vn -0.8641 -0.3147 0.3928
vn -0.4853 -0.2540 0.8366
vn -0.7754 -0.5612 0.2895
vn -0.8641 -0.3147 0.3928
vn -0.7754 -0.5612 0.2895
vn -0.9536 -0.2962 0.0544
vn 0.5689 0.3688 0.7351
vn 0.8274 0.4885 0.2771
vn 0.7494 0.5870 0.3062
vn 0.5689 0.3688 0.7351
vn 0.7494 0.5870 0.3062
vn 0.7099 0.3925 0.5849
vn 0.7306 -0.4613 0.5034
vn 0.8822 0.1201 0.4554
vn 0.2877 -0.1812 0.9404
vn 0.7306 -0.4613 0.5034
vn 0.2877 -0.1812 0.9404
vn 0.2693 -0.8730 0.4065
vn 0.5406 -0.5741 0.6150
vn 0.7306 -0.4613 0.5034
vn 0.2693 -0.8730 0.4065
vn 0.5406 -0.5741 0.6150
vn 0.2693 -0.8730 0.4065
vn 0.8700 -0.4671 0.1581
vn 0.2877 -0.1812 0.9404
vn 0.8822 0.1201 0.4554
vn 0.2693 -0.8730 0.4065
vn 0.8822 0.1201 0.4554
vn 0.7933 -0.5055 0.3393
vn 0.2693 -0.8730 0.4065
vn 0.7933 -0.5055 0.3393
vn 0.8700 -0.4671 0.1581
vn 0.2693 -0.8730 0.4065
vn 0.7933 -0.5055 0.3393
vn 0.8865 -0.4155 0.2035
vn 0.7357 -0.4850 0.4728
vn 0.7933 -0.5055 0.3393
vn 0.8822 0.1201 0.4554
vn 0.9804 -0.1782 0.0845
vn 0.7933 -0.5055 0.3393
vn 0.9804 -0.1782 0.0845
vn 0.8865 -0.4155 0.2035
vn -0.8955 -0.4425 -0.0476
vn -0.5021 -0.6359 -0.5861
vn -0.8641 -0.3147 0.3928
vn -0.8247 -0.4783 0.3019
vn -0.5680 -0.6128 0.5494
vn -0.7930 -0.1528 0.5898
vn -0.8247 -0.4783 0.3019
vn -0.7930 -0.1528 0.5898
vn -0.8641 -0.3147 0.3928
vn -0.8247 -0.4783 0.3019
vn -0.8641 -0.3147 0.3928
vn -0.5021 -0.6359 -0.5861
vn -0.8247 -0.4783 0.3019
vn -0.5021 -0.6359 -0.5861
vn -0.5195 -0.6764 0.5221
vn -0.5195 -0.6764 0.5221
vn -0.5021 -0.6359 -0.5861
vn 0.0278 -0.7954 0.6054
vn 0.6986 0.4858 0.5254
vn 0.5855 0.3998 0.7053
vn 0.7793 0.1368 0.6116
vn -0.1582 0.9177 0.3645
vn 0.1209 0.9543 0.2734
vn 0.3195 0.8521 0.4145
vn 0.1209 0.9543 0.2734
vn 0.3614 0.9022 0.2353
vn 0.7099 0.3925 0.5849
vn 0.1209 0.9543 0.2734
vn 0.7099 0.3925 0.5849
vn 0.3195 0.8521 0.4145
vn 0.3614 0.9022 0.2353
vn 0.7551 0.6226 0.2056
vn 0.9759 0.1586 0.1500
vn 0.3614 0.9022 0.2353
vn 0.9759 0.1586 0.1500
vn 0.7099 0.3925 0.5849
vn 0.9759 0.1586 0.1500
vn 0.7306 -0.4613 0.5034
vn 0.7064 -0.0683 0.7045
vn 0.9759 0.1586 0.1500
vn 0.8690 -0.3867 0.3087
vn 0.8501 -0.4287 0.3059
vn 0.9759 0.1586 0.1500
vn 0.8501 -0.4287 0.3059
vn 0.8822 0.1201 0.4554
vn 0.9759 0.1586 0.1500
vn 0.8822 0.1201 0.4554
vn 0.7306 -0.4613 0.5034
vn -0.6927 0.6380 0.3363
vn -0.6149 0.6332 0.4700
vn -0.9631 0.1413 0.2292
vn -0.6927 0.6380 0.3363
vn -0.9631 0.1413 0.2292
vn -0.9479 0.2874 0.1374
vn -0.6927 0.6380 0.3363
vn -0.1582 0.9177 0.3645
vn -0.6149 0.6332 0.4700
vn -0.9631 0.1413 0.2292
vn -0.9909 0.0802 0.1077
vn -0.9479 0.2874 0.1374
vn -0.9909 0.0802 0.1077
vn -0.7930 -0.1528 0.5898
vn -0.5680 -0.6128 0.5494
vn -0.9909 0.0802 0.1077
vn -0.9631 0.1413 0.2292
vn -0.7930 -0.1528 0.5898
vn -0.1582 0.9177 0.3645
vn 0.3195 0.8521 0.4145
vn -0.0339 0.8068 0.5898
vn -0.1582 0.9177 0.3645
vn -0.0339 0.8068 0.5898
vn -0.6149 0.6332 0.4700
vn -0.0192 -0.9987 0.0478
vn -0.8247 -0.4783 0.3019
vn 0.8501 -0.4287 0.3059
vn 0.8501 -0.4287 0.3059
vn 0.0278 -0.7954 0.6054
vn 0.5226 -0.7367 0.4291
vn 0.8501 -0.4287 0.3059
vn -0.8247 -0.4783 0.3019
vn -0.5195 -0.6764 0.5221
vn 0.8501 -0.4287 0.3059
vn -0.5195 -0.6764 0.5221
vn 0.0278 -0.7954 0.6054
vn 0.0278 -0.7954 0.6054
vn 0.2715 -0.9610 0.0529
vn 0.8252 -0.5641 0.0287
vn 0.0278 -0.7954 0.6054
vn 0.8252 -0.5641 0.0287
vn 0.5226 -0.7367 0.4291
vn 0.2715 -0.9610 0.0529
vn 0.2935 -0.9150 -0.2769
vn 0.8252 -0.5641 0.0287
vn 0.2715 -0.9610 0.0529
vn 0.0278 -0.7954 0.6054
vn -0.1191 -0.9181 -0.3780
vn 0.2715 -0.9610 0.0529
vn -0.1191 -0.9181 -0.3780
vn 0.2935 -0.9150 -0.2769
vn 0.8252 -0.5641 0.0287
vn 0.8865 -0.4155 0.2035
vn 0.9804 -0.1782 0.0845
vn 0.8501 -0.4287 0.3059
vn 0.9804 -0.1782 0.0845
vn 0.8822 0.1201 0.4554
vn 0.0278 -0.7954 0.6054
vn -0.5021 -0.6359 -0.5861
vn -0.1191 -0.9181 -0.3780
vn 0.8700 -0.4671 0.1581
vn 0.5689 0.3688 0.7351
vn 0.5406 -0.5741 0.6150
vn 0.5689 0.3688 0.7351
vn 0.8700 -0.4671 0.1581
vn 0.8274 0.4885 0.2771
vn 0.5689 0.3688 0.7351
vn 0.7064 -0.0683 0.7045
vn 0.7306 -0.4613 0.5034
vn 0.5689 0.3688 0.7351
vn 0.7306 -0.4613 0.5034
vn 0.5406 -0.5741 0.6150
vn -0.9536 -0.2962 0.0544
vn -0.7754 -0.5612 0.2895
vn -0.1996 0.6907 0.6951
vn -0.9536 -0.2962 0.0544
vn -0.1996 0.6907 0.6951
vn -0.7767 0.5017 0.3808
vn -0.7930 -0.1528 0.5898
vn -0.9631 0.1413 0.2292
vn -0.7491 0.4277 0.5059
vn -0.7930 -0.1528 0.5898
vn -0.7491 0.4277 0.5059
vn 0.0748 0.1082 0.9913
vn -0.7930 -0.1528 0.5898
vn 0.0748 0.1082 0.9913
vn -0.4853 -0.2540 0.8366
vn 0.5855 0.3998 0.7053
vn -0.8188 0.3181 0.4779
vn -0.5681 0.4121 0.7123
vn 0.8252 -0.5641 0.0287
vn 0.2935 -0.9150 -0.2769
vn 0.8174 -0.5733 0.0563
vn 0.8252 -0.5641 0.0287
vn 0.8174 -0.5733 0.0563
vn 0.8865 -0.4155 0.2035
vn -0.8931 -0.3256 0.3105
vn -0.8955 -0.4425 -0.0476
vn -0.8641 -0.3147 0.3928
vn 0.8252 -0.5641 0.0287
vn 0.9804 -0.1782 0.0845
vn 0.8501 -0.4287 0.3059
vn 0.8252 -0.5641 0.0287
vn 0.8501 -0.4287 0.3059
vn 0.5226 -0.7367 0.4291
vn 0.9759 0.1586 0.1500
vn 0.7064 -0.0683 0.7045
vn 0.7099 0.3925 0.5849
vn 0.7064 -0.0683 0.7045
vn 0.5689 0.3688 0.7351
vn 0.7099 0.3925 0.5849
vn -0.2054 -0.8089 -0.5509
vn 0.2935 -0.9150 -0.2769
vn -0.1191 -0.9181 -0.3780
vn -0.8955 -0.4425 -0.0476
vn -0.1191 -0.9181 -0.3780
vn -0.5021 -0.6359 -0.5861
f 1/1/1 2/2/2 3/3/3
f 4/4/4 5/5/5 6/6/6
f 7/7/7 8/8/8 9/9/9
f 10/10/10 11/11/11 12/12/12
f 13/13/13 14/14/14 15/15/15
f 16/16/16 17/17/17 18/18/18
f 19/19/19 20/20/20 21/21/21
f 22/22/22 23/23/23 24/24/24
f 25/25/25 26/26/26 27/27/27
f 28/28/28 29/29/29 30/30/30
f 31/31/31 32/32/32 33/33/33
f 34/34/34 35/35/35 36/36/36
f 37/37/37 38/38/38 39/39/39
f 40/40/40 41/41/41 42/42/42
f 43/43/43 44/44/44 45/45/45
f 46/46/46 47/47/47 48/48/48
f 49/49/49 50/50/50 51/51/51
f 52/52/52 53/53/53 54/54/54
f 55/55/55 56/56/56 57/57/57
f 58/58/58 59/59/59 60/60/60
f 61/61/61 62/62/62 63/63/63
f 64/64/64 65/65/65 66/66/66
f 67/67/67 68/68/68 69/69/69
f 70/70/70 71/71/71 72/72/72
f 73/73/73 74/74/74 75/75/75
f 76/76/76 77/77/77 78/78/78
f 79/79/79 80/80/80 81/81/81
f 82/82/82 83/83/83 84/84/84
f 85/85/85 86/86/86 87/87/87
f 88/88/88 89/89/89 90/90/90
f 91/91/91 92/92/92 93/93/93
f 94/94/94 95/95/95 96/96/96
f 97/97/97 98/98/98 99/99/99
f 100/100/100 101/101/101 102/102/102
f 103/103/103 104/104/104 105/105/105
f 106/106/106 107/107/107 108/108/108
f 109/109/109 110/110/110 111/111/111
f 112/112/112 113/113/113 114/114/114
f 115/115/115 116/116/116 117/117/117
f 118/118/118 119/119/119 120/120/120
f 121/121/121 122/122/122 123/123/123
f 124/124/124 125/125/125 126/126/126
f 127/127/127 128/128/128 129/129/129
f 130/130/130 131/131/131 132/132/132
f 133/133/133 134/134/134 135/135/135
f 136/136/136 137/137/137 138/138/138
f 139/139/139 140/140/140 141/141/141
f 142/142/142 143/143/143 144/144/144
f 145/145/145 146/146/146 147/147/147
f 148/148/148 149/149/149 150/150/150
f 151/151/151 152/152/152 153/153/153
f 154/154/154 155/155/155 156/156/156
f 157/157/157 158/158/158 159/159/159
f 160/160/160 161/161/161 162/162/162
f 163/163/163 164/164/164 165/165/165
f 166/166/166 167/167/167 168/168/168
f 169/169/169 170/170/170 171/171/171
f 172/172/172 173/173/173 174/174/174
f 175/175/175 176/176/176 177/177/177
f 178/178/178 179/179/179 180/180/180
f 181/181/181 182/182/182 183/183/183
f 184/184/184 185/185/185 186/186/186
f 187/187/187 188/188/188 189/189/189
f 190/190/190 191/191/191 192/192/192
f 193/193/193 194/194/194 195/195/195
f 196/196/196 197/197/197 198/198/198
f 199/199/199 200/200/200 201/201/201
f 202/202/202 203/203/203 204/204/204
f 205/205/205 206/206/206 207/207/207
f 208/208/208 209/209/209 210/210/210
f 211/211/211 212/212/212 213/213/213
f 214/214/214 215/215/215 216/216/216
f 217/217/217 218/218/218 219/219/219
f 220/220/220 221/221/221 222/222/222
f 223/223/223 224/224/224 225/225/225
f 226/226/226 227/227/227 228/228/228
f 229/229/229 230/230/230 231/231/231
f 232/232/232 233/233/233 234/234/234
f 235/235/235 236/236/236 237/237/237
f 238/238/238 239/239/239 240/240/240
f 241/241/241 242/242/242 243/243/243
f 244/244/244 245/245/245 246/246/246
f 247/247/247 248/248/248 249/249/249
f 250/250/250 251/251/251 252/252/252
f 253/253/253 254/254/254 255/255/255
f 256/256/256 257/257/257 258/258/258
f 259/259/259 260/260/260 261/261/261
f 262/262/262 263/263/263 264/264/264
f 265/265/265 266/266/266 267/267/267
