o leg_right_1
v 1.77880 0.00038 -1.03719
v 1.76394 0.31604 -0.93544
v 1.75814 0.00952 -0.95749
v 1.77880 0.00038 -1.03719
v 1.75814 0.00952 -0.95749
v 1.74124 0.00000 -0.96434
v 1.76394 0.31604 -0.93544
v 1.77880 0.00038 -1.03719
v 1.63819 0.83732 -0.99078
v 1.73373 0.00480 -1.01561
v 1.77880 0.00038 -1.03719
v 1.74124 0.00000 -0.96434
v 1.76394 0.31604 -0.93544
v 1.63819 0.83732 -0.99078
v 1.73474 0.48512 -0.90008
v 1.76394 0.31604 -0.93544
v 1.73474 0.48512 -0.90008
v 1.67794 0.29721 -0.87911
v 1.69103 0.62967 -0.87014
v 1.70901 0.78225 -0.78625
v 1.71360 0.62307 -0.76168
v 1.67794 0.29721 -0.87911
v 1.65364 0.30001 -0.94799
v 1.76394 0.31604 -0.93544
v 1.75814 0.00952 -0.95749
v 1.73373 0.00480 -1.01561
v 1.74124 0.00000 -0.96434
v 1.64577 0.76237 -0.74452
v 1.71360 0.62307 -0.76168
v 1.70901 0.78225 -0.78625
v 1.66952 0.77972 -0.85772
v 1.70901 0.78225 -0.78625
v 1.69103 0.62967 -0.87014
v 1.73474 0.48512 -0.90008
v 1.66952 0.77972 -0.85772
v 1.69103 0.62967 -0.87014
v 1.67794 0.29721 -0.87911
v 1.73474 0.48512 -0.90008
v 1.62305 0.45077 -0.84979
v 1.65364 0.30001 -0.94799
v 1.75814 0.00952 -0.95749
v 1.76394 0.31604 -0.93544
v 1.66952 0.77972 -0.85772
v 1.73474 0.48512 -0.90008
v 1.63819 0.83732 -0.99078
v 1.75814 0.00952 -0.95749
v 1.65364 0.30001 -0.94799
v 1.73373 0.00480 -1.01561
v 1.77880 0.00038 -1.03719
v 1.73373 0.00480 -1.01561
v 1.62752 0.46746 -1.02946
v 1.71360 0.62307 -0.76168
v 1.55987 0.58894 -0.77383
v 1.69103 0.62967 -0.87014
v 1.63819 0.83732 -0.99078
v 1.77880 0.00038 -1.03719
v 1.59322 0.82349 -1.04337
v 1.62752 0.46746 -1.02946
v 1.59322 0.82349 -1.04337
v 1.77880 0.00038 -1.03719
v 1.70901 0.78225 -0.78625
v 1.66952 0.77972 -0.85772
v 1.64577 0.76237 -0.74452
v 1.55987 0.58894 -0.77383
v 1.71360 0.62307 -0.76168
v 1.64577 0.76237 -0.74452
v 1.73474 0.48512 -0.90008
v 1.69103 0.62967 -0.87014
v 1.62305 0.45077 -0.84979
v 1.65364 0.30001 -0.94799
v 1.67794 0.29721 -0.87911
v 1.62305 0.45077 -0.84979
v 1.58473 0.59937 -0.82975
v 1.62305 0.45077 -0.84979
v 1.69103 0.62967 -0.87014
v 1.60675 1.00562 -0.77610
v 1.64577 0.76237 -0.74452
v 1.66952 0.77972 -0.85772
v 1.64577 0.76237 -0.74452
v 1.60675 1.00562 -0.77610
v 1.60046 0.75413 -0.77700
v 1.65364 0.30001 -0.94799
v 1.62305 0.45077 -0.84979
v 1.58820 0.45061 -1.00175
v 1.63905 1.01060 -0.69779
v 1.60675 1.00562 -0.77610
v 1.61410 1.16332 -0.75070
v 1.58820 0.45061 -1.00175
v 1.62752 0.46746 -1.02946
v 1.73373 0.00480 -1.01561
v 1.55987 0.58894 -0.77383
v 1.58473 0.59937 -0.82975
v 1.69103 0.62967 -0.87014
v 1.65364 0.30001 -0.94799
v 1.58820 0.45061 -1.00175
v 1.73373 0.00480 -1.01561
v 1.63905 1.01060 -0.69779
v 1.56919 0.98455 -0.64111
v 1.60675 1.00562 -0.77610
v 1.60675 1.00562 -0.77610
v 1.57258 1.15234 -0.75979
v 1.61410 1.16332 -0.75070
v 1.59322 0.82349 -1.04337
v 1.62752 0.46746 -1.02946
v 1.55401 0.59543 -0.97856
v 1.59545 0.46578 -1.09862
v 1.59281 0.59716 -1.10491
v 1.62752 0.46746 -1.02946
v 1.55987 0.58894 -0.77383
v 1.64577 0.76237 -0.74452
v 1.52728 0.73127 -0.76156
v 1.62752 0.46746 -1.02946
v 1.59281 0.59716 -1.10491
v 1.55401 0.59543 -0.97856
v 1.66952 0.77972 -0.85772
v 1.57258 1.15234 -0.75979
v 1.60675 1.00562 -0.77610
v 1.59545 0.46578 -1.09862
v 1.62752 0.46746 -1.02946
v 1.58820 0.45061 -1.00175
v 1.63819 0.83732 -0.99078
v 1.42841 1.47849 -0.92825
v 1.66952 0.77972 -0.85772
v 1.64577 0.76237 -0.74452
v 1.60046 0.75413 -0.77700
v 1.52728 0.73127 -0.76156
v 1.59322 0.82349 -1.04337
v 1.55401 0.59543 -0.97856
v 1.51451 0.74665 -0.99529
v 1.52728 0.73127 -0.76156
v 1.60046 0.75413 -0.77700
v 1.57230 0.74567 -0.82282
v 1.55302 0.87864 -0.78248
v 1.57230 0.74567 -0.82282
v 1.60046 0.75413 -0.77700
v 1.49088 0.96472 -0.74823
v 1.60675 1.00562 -0.77610
v 1.56919 0.98455 -0.64111
v 1.58820 0.45061 -1.00175
v 1.62305 0.45077 -0.84979
v 1.54200 0.45109 -1.01704
v 1.62305 0.45077 -0.84979
v 1.58473 0.59937 -0.82975
v 1.54200 0.45109 -1.01704
v 1.60046 0.75413 -0.77700
v 1.60675 1.00562 -0.77610
v 1.49088 0.96472 -0.74823
v 1.57258 1.15234 -0.75979
v 1.66952 0.77972 -0.85772
v 1.42841 1.47849 -0.92825
v 1.50462 0.56999 -1.03567
v 1.55401 0.59543 -0.97856
v 1.59281 0.59716 -1.10491
v 1.56919 0.98455 -0.64111
v 1.63905 1.01060 -0.69779
v 1.53812 1.13112 -0.63959
v 1.55302 0.87864 -0.78248
v 1.60046 0.75413 -0.77700
v 1.49088 0.96472 -0.74823
v 1.58473 0.59937 -0.82975
v 1.55401 0.59543 -0.97856
v 1.50462 0.56999 -1.03567
v 1.54200 0.45109 -1.01704
v 1.58473 0.59937 -0.82975
v 1.50462 0.56999 -1.03567
v 1.59545 0.46578 -1.09862
v 1.58820 0.45061 -1.00175
v 1.54200 0.45109 -1.01704
v 1.63905 1.01060 -0.69779
v 1.61410 1.16332 -0.75070
v 1.53812 1.13112 -0.63959
v 1.51158 0.88282 -1.00823
v 1.59322 0.82349 -1.04337
v 1.51451 0.74665 -0.99529
v 1.58473 0.59937 -0.82975
v 1.51737 0.59675 -0.87430
v 1.55401 0.59543 -0.97856
v 1.55987 0.58894 -0.77383
v 1.52728 0.73127 -0.76156
v 1.51737 0.59675 -0.87430
v 1.61410 1.16332 -0.75070
v 1.57258 1.15234 -0.75979
v 1.49179 1.12306 -0.69007
v 1.53812 1.13112 -0.63959
v 1.61410 1.16332 -0.75070
v 1.49179 1.12306 -0.69007
v 1.59545 0.46578 -1.09862
v 1.50462 0.56999 -1.03567
v 1.59281 0.59716 -1.10491
v 1.51737 0.59675 -0.87430
v 1.58473 0.59937 -0.82975
v 1.55987 0.58894 -0.77383
v 1.50462 0.56999 -1.03567
v 1.59545 0.46578 -1.09862
v 1.54200 0.45109 -1.01704
v 1.55302 0.87864 -0.78248
v 1.51399 0.86602 -0.78804
v 1.57230 0.74567 -0.82282
v 1.50546 1.02910 -1.04877
v 1.63819 0.83732 -0.99078
v 1.59322 0.82349 -1.04337
v 1.51737 0.59675 -0.87430
v 1.52728 0.73127 -0.76156
v 1.50275 0.73662 -0.90266
v 1.51399 0.86602 -0.78804
v 1.50275 0.73662 -0.90266
v 1.57230 0.74567 -0.82282
v 1.50275 0.73662 -0.90266
v 1.55401 0.59543 -0.97856
v 1.51737 0.59675 -0.87430
v 1.51451 0.74665 -0.99529
v 1.51318 0.75318 -1.09470
v 1.51158 0.88282 -1.00823
v 1.51158 0.88282 -1.00823
v 1.50546 1.02910 -1.04877
v 1.59322 0.82349 -1.04337
v 1.50275 0.73662 -0.90266
v 1.51451 0.74665 -0.99529
v 1.55401 0.59543 -0.97856
v 1.57230 0.74567 -0.82282
v 1.50275 0.73662 -0.90266
v 1.52728 0.73127 -0.76156
v 1.45856 1.47264 -0.72515
v 1.57258 1.15234 -0.75979
v 1.42841 1.47849 -0.92825
v 1.51399 0.86602 -0.78804
v 1.48530 0.87082 -0.87209
v 1.50275 0.73662 -0.90266
v 1.51399 0.86602 -0.78804
v 1.55302 0.87864 -0.78248
v 1.49088 0.96472 -0.74823
v 1.51158 0.88282 -1.00823
v 1.51318 0.75318 -1.09470
v 1.46772 0.89419 -1.08921
v 1.40164 1.48742 -0.64362
v 1.57258 1.15234 -0.75979
v 1.45856 1.47264 -0.72515
v 1.49179 1.12306 -0.69007
v 1.57258 1.15234 -0.75979
v 1.40164 1.36676 -0.66515
v 1.48530 0.87082 -0.87209
v 1.44634 0.73078 -0.88366
v 1.50275 0.73662 -0.90266
v 1.50275 0.73662 -0.90266
v 1.44634 0.73078 -0.88366
v 1.51451 0.74665 -0.99529
v 1.50546 1.02910 -1.04877
v 1.51158 0.88282 -1.00823
v 1.44885 1.01315 -0.99899
v 1.48530 0.87082 -0.87209
v 1.51399 0.86602 -0.78804
v 1.49088 0.96472 -0.74823
v 1.44634 0.73078 -0.88366
v 1.42125 0.72421 -0.98031
v 1.51451 0.74665 -0.99529
v 1.56919 0.98455 -0.64111
v 1.40885 0.94505 -0.79119
v 1.49088 0.96472 -0.74823
v 1.51158 0.88282 -1.00823
v 1.43512 0.87823 -0.93229
v 1.44885 1.01315 -0.99899
v 1.48530 0.87082 -0.87209
v 1.49088 0.96472 -0.74823
v 1.42774 0.99618 -0.84433
v 1.40164 1.36676 -0.66515
v 1.57258 1.15234 -0.75979
v 1.40164 1.48742 -0.64362
v 1.40885 0.94505 -0.79119
v 1.56919 0.98455 -0.64111
v 1.44491 0.94854 -0.67339
v 1.46772 0.89419 -1.08921
v 1.38505 0.85648 -0.97268
v 1.51158 0.88282 -1.00823
v 1.42125 0.72421 -0.98031
v 1.51318 0.75318 -1.09470
v 1.51451 0.74665 -0.99529
v 1.42841 1.47849 -0.92825
v 1.63819 0.83732 -0.99078
v 1.50546 1.02910 -1.04877
v 1.49179 1.12306 -0.69007
v 1.40164 1.36676 -0.66515
v 1.44241 1.24357 -0.70594
v 1.48530 0.87082 -0.87209
v 1.42074 0.86148 -0.86508
v 1.44634 0.73078 -0.88366
v 1.40600 1.09120 -0.66887
v 1.53812 1.13112 -0.63959
v 1.49179 1.12306 -0.69007
v 1.43512 0.87823 -0.93229
v 1.51158 0.88282 -1.00823
v 1.38505 0.85648 -0.97268
v 1.56919 0.98455 -0.64111
v 1.53812 1.13112 -0.63959
v 1.40600 1.09120 -0.66887
v 1.42841 1.47849 -0.92825
v 1.50546 1.02910 -1.04877
v 1.39209 1.36914 -1.01041
v 1.43267 1.13259 -0.76050
v 1.40346 1.09687 -0.81543
v 1.49179 1.12306 -0.69007
v 1.43512 0.87823 -0.93229
v 1.40346 0.99511 -0.93531
v 1.44885 1.01315 -0.99899
v 1.56919 0.98455 -0.64111
v 1.40600 1.09120 -0.66887
v 1.44491 0.94854 -0.67339
v 1.42774 0.99618 -0.84433
v 1.43512 0.87823 -0.93229
v 1.48530 0.87082 -0.87209
v 1.49088 0.96472 -0.74823
v 1.40885 0.94505 -0.79119
v 1.42774 0.99618 -0.84433
v 1.48530 0.87082 -0.87209
v 1.43512 0.87823 -0.93229
v 1.38505 0.85648 -0.97268
v 1.49179 1.12306 -0.69007
v 1.44241 1.24357 -0.70594
v 1.43267 1.13259 -0.76050
v 1.42125 0.72421 -0.98031
v 1.38505 0.85648 -0.97268
v 1.51318 0.75318 -1.09470
v 1.40600 1.09120 -0.66887
v 1.49179 1.12306 -0.69007
v 1.40346 1.09687 -0.81543
v 1.51318 0.75318 -1.09470
v 1.38505 0.85648 -0.97268
v 1.46772 0.89419 -1.08921
v 1.43512 0.87823 -0.93229
v 1.42774 0.99618 -0.84433
v 1.40346 0.99511 -0.93531
v 1.50546 1.02910 -1.04877
v 1.44885 1.01315 -0.99899
v 1.40320 1.13780 -0.98670
v 1.40320 1.13780 -0.98670
v 1.36191 1.29803 -0.97707
v 1.50546 1.02910 -1.04877
v 1.42074 0.86148 -0.86508
v 1.48530 0.87082 -0.87209
v 1.38505 0.85648 -0.97268
v 1.34538 1.20670 -0.73056
v 1.43267 1.13259 -0.76050
v 1.44241 1.24357 -0.70594
v 1.40885 0.94505 -0.79119
v 1.40346 1.09687 -0.81543
v 1.42774 0.99618 -0.84433
v 1.44994 1.49439 -0.55730
v 1.34213 1.45031 -0.58168
v 1.40164 1.48742 -0.64362
v 1.40600 1.09120 -0.66887
v 1.40885 0.94505 -0.79119
v 1.44491 0.94854 -0.67339
v 1.43267 1.13259 -0.76050
v 1.39682 1.13468 -0.82521
v 1.40346 1.09687 -0.81543
v 1.38505 0.85648 -0.97268
v 1.44634 0.73078 -0.88366
v 1.42074 0.86148 -0.86508
v 1.36534 0.99164 -0.98340
v 1.40320 1.13780 -0.98670
v 1.44885 1.01315 -0.99899
v 1.36191 1.29803 -0.97707
v 1.39209 1.36914 -1.01041
v 1.50546 1.02910 -1.04877
v 1.38505 0.85648 -0.97268
v 1.42125 0.72421 -0.98031
v 1.44634 0.73078 -0.88366
v 1.40320 1.13780 -0.98670
v 1.36652 1.14108 -1.09395
v 1.36191 1.29803 -0.97707
v 1.42841 1.47849 -0.92825
v 1.39209 1.36914 -1.01041
v 1.29888 1.58043 -0.95420
v 1.40346 1.09687 -0.81543
v 1.39682 1.13468 -0.82521
v 1.42774 0.99618 -0.84433
v 1.37524 1.46090 -0.50213
v 1.34213 1.45031 -0.58168
v 1.44994 1.49439 -0.55730
v 1.44885 1.01315 -0.99899
v 1.40346 0.99511 -0.93531
v 1.36534 0.99164 -0.98340
v 1.42774 0.99618 -0.84433
v 1.36534 0.99164 -0.98340
v 1.40346 0.99511 -0.93531
v 1.34437 1.64333 -0.62832
v 1.44994 1.49439 -0.55730
v 1.40164 1.48742 -0.64362
v 1.40164 1.36676 -0.66515
v 1.34213 1.45031 -0.58168
v 1.36227 1.35519 -0.62252
v 1.40164 1.36676 -0.66515
v 1.36227 1.35519 -0.62252
v 1.44241 1.24357 -0.70594
v 1.44241 1.24357 -0.70594
v 1.36227 1.35519 -0.62252
v 1.38588 1.22005 -0.66197
v 1.40885 0.94505 -0.79119
v 1.40600 1.09120 -0.66887
v 1.40346 1.09687 -0.81543
v 1.36042 1.64860 -0.52680
v 1.44994 1.49439 -0.55730
v 1.34437 1.64333 -0.62832
v 1.40164 1.48742 -0.64362
v 1.34213 1.45031 -0.58168
v 1.40164 1.36676 -0.66515
v 1.34538 1.20670 -0.73056
v 1.44241 1.24357 -0.70594
v 1.38588 1.22005 -0.66197
v 1.36042 1.64860 -0.52680
v 1.37524 1.46090 -0.50213
v 1.44994 1.49439 -0.55730
v 1.30513 1.11224 -0.98668
v 1.36534 0.99164 -0.98340
v 1.42774 0.99618 -0.84433
v 1.36042 1.64860 -0.52680
v 1.29798 1.61966 -0.49485
v 1.37524 1.46090 -0.50213
v 1.40164 1.48742 -0.64362
v 1.45856 1.47264 -0.72515
v 1.34437 1.64333 -0.62832
v 1.36652 1.14108 -1.09395
v 1.34537 1.29436 -1.08058
v 1.36191 1.29803 -0.97707
v 1.39209 1.36914 -1.01041
v 1.36191 1.29803 -0.97707
v 1.31568 1.39723 -0.96986
v 1.40320 1.13780 -0.98670
v 1.36534 0.99164 -0.98340
v 1.30513 1.11224 -0.98668
v 1.36227 1.35519 -0.62252
v 1.24432 1.31859 -0.73413
v 1.38588 1.22005 -0.66197
v 1.43267 1.13259 -0.76050
v 1.32744 1.10441 -0.76776
v 1.39682 1.13468 -0.82521
v 1.21764 1.85605 -0.82012
v 1.45856 1.47264 -0.72515
v 1.42841 1.47849 -0.92825
v 1.42774 0.99618 -0.84433
v 1.39682 1.13468 -0.82521
v 1.30513 1.11224 -0.98668
v 1.38588 1.22005 -0.66197
v 1.24432 1.31859 -0.73413
v 1.34538 1.20670 -0.73056
v 1.43267 1.13259 -0.76050
v 1.34538 1.20670 -0.73056
v 1.32744 1.10441 -0.76776
v 1.34213 1.45031 -0.58168
v 1.37524 1.46090 -0.50213
v 1.29798 1.61966 -0.49485
v 1.36652 1.14108 -1.09395
v 1.40320 1.13780 -0.98670
v 1.30513 1.11224 -0.98668
v 1.31568 1.39723 -0.96986
v 1.29888 1.58043 -0.95420
v 1.39209 1.36914 -1.01041
v 1.32744 1.10441 -0.76776
v 1.30513 1.11224 -0.98668
v 1.39682 1.13468 -0.82521
v 1.36191 1.29803 -0.97707
v 1.28290 1.26668 -1.05951
v 1.23823 1.24655 -0.96207
v 1.31568 1.39723 -0.96986
v 1.36191 1.29803 -0.97707
v 1.27461 1.36830 -0.90089
v 1.27461 1.36830 -0.90089
v 1.36191 1.29803 -0.97707
v 1.29877 1.27283 -0.92607
v 1.27402 1.31445 -0.58532
v 1.24432 1.31859 -0.73413
v 1.36227 1.35519 -0.62252
v 1.32744 1.10441 -0.76776
v 1.34538 1.20670 -0.73056
v 1.24432 1.31859 -0.73413
v 1.36191 1.29803 -0.97707
v 1.23823 1.24655 -0.96207
v 1.29877 1.27283 -0.92607
v 1.36191 1.29803 -0.97707
v 1.34537 1.29436 -1.08058
v 1.28290 1.26668 -1.05951
v 1.28290 1.26668 -1.05951
v 1.34537 1.29436 -1.08058
v 1.36652 1.14108 -1.09395
v 1.36227 1.35519 -0.62252
v 1.34213 1.45031 -0.58168
v 1.27402 1.31445 -0.58532
v 1.45856 1.47264 -0.72515
v 1.21764 1.85605 -0.82012
v 1.15389 1.98446 -0.60125
v 1.36652 1.14108 -1.09395
v 1.30513 1.11224 -0.98668
v 1.23823 1.24655 -0.96207
v 1.15389 1.98446 -0.60125
v 1.34437 1.64333 -0.62832
v 1.45856 1.47264 -0.72515
v 1.26989 1.24746 -0.83625
v 1.27461 1.36830 -0.90089
v 1.29877 1.27283 -0.92607
v 1.28290 1.26668 -1.05951
v 1.36652 1.14108 -1.09395
v 1.23823 1.24655 -0.96207
v 1.29798 1.61966 -0.49485
v 1.36042 1.64860 -0.52680
v 1.25913 1.77133 -0.52391
v 1.27461 1.36830 -0.90089
v 1.26989 1.24746 -0.83625
v 1.24022 1.35672 -0.81422
v 1.24370 1.36914 -0.96542
v 1.31568 1.39723 -0.96986
v 1.27461 1.36830 -0.90089
v 1.24022 1.35672 -0.81422
v 1.26989 1.24746 -0.83625
v 1.32744 1.10441 -0.76776
v 1.36042 1.64860 -0.52680
v 1.34437 1.64333 -0.62832
v 1.25913 1.77133 -0.52391
v 1.23823 1.24655 -0.96207
v 1.32744 1.10441 -0.76776
v 1.26989 1.24746 -0.83625
v 1.24260 1.56282 -1.00714
v 1.29888 1.58043 -0.95420
v 1.22571 1.52993 -0.91284
v 1.30513 1.11224 -0.98668
v 1.32744 1.10441 -0.76776
v 1.23823 1.24655 -0.96207
v 1.29888 1.58043 -0.95420
v 1.31568 1.39723 -0.96986
v 1.22571 1.52993 -0.91284
v 1.29877 1.27283 -0.92607
v 1.23823 1.24655 -0.96207
v 1.26989 1.24746 -0.83625
v 1.14764 1.84516 -0.93854
v 1.42841 1.47849 -0.92825
v 1.29888 1.58043 -0.95420
v 1.31568 1.39723 -0.96986
v 1.24370 1.36914 -0.96542
v 1.21460 1.50356 -0.96355
v 1.25967 1.51809 -0.56236
v 1.27402 1.31445 -0.58532
v 1.34213 1.45031 -0.58168
v 1.34213 1.45031 -0.58168
v 1.20218 1.72591 -0.51255
v 1.25967 1.51809 -0.56236
v 1.31568 1.39723 -0.96986
v 1.21460 1.50356 -0.96355
v 1.22571 1.52993 -0.91284
v 1.42841 1.47849 -0.92825
v 1.14764 1.84516 -0.93854
v 1.21764 1.85605 -0.82012
v 1.29798 1.61966 -0.49485
v 1.20218 1.72591 -0.51255
v 1.34213 1.45031 -0.58168
v 1.29798 1.61966 -0.49485
v 1.25913 1.77133 -0.52391
v 1.20218 1.72591 -0.51255
v 1.32744 1.10441 -0.76776
v 1.24432 1.31859 -0.73413
v 1.24022 1.35672 -0.81422
v 1.24370 1.36914 -0.96542
v 1.27461 1.36830 -0.90089
v 1.24022 1.35672 -0.81422
v 1.29888 1.58043 -0.95420
v 1.24260 1.56282 -1.00714
v 1.14764 1.84516 -0.93854
v 1.19179 1.47855 -0.54511
v 1.24432 1.31859 -0.73413
v 1.27402 1.31445 -0.58532
v 1.24370 1.36914 -0.96542
v 1.18789 1.47481 -0.90372
v 1.21460 1.50356 -0.96355
v 1.24370 1.36914 -0.96542
v 1.24022 1.35672 -0.81422
v 1.18789 1.47481 -0.90372
v 1.19319 1.43105 -0.68987
v 1.24432 1.31859 -0.73413
v 1.19179 1.47855 -0.54511
v 1.19179 1.47855 -0.54511
v 1.27402 1.31445 -0.58532
v 1.25967 1.51809 -0.56236
v 1.20218 1.72591 -0.51255
v 1.16042 1.71080 -0.54373
v 1.25967 1.51809 -0.56236
v 1.14764 1.84516 -0.93854
v 1.24260 1.56282 -1.00714
v 1.14799 1.68488 -0.97144
v 1.18789 1.47481 -0.90372
v 1.22571 1.52993 -0.91284
v 1.21460 1.50356 -0.96355
v 1.19319 1.43105 -0.68987
v 1.19179 1.47855 -0.54511
v 1.13409 1.48118 -0.65514
v 1.24022 1.35672 -0.81422
v 1.23535 1.44538 -0.79091
v 1.18789 1.47481 -0.90372
v 1.24432 1.31859 -0.73413
v 1.23535 1.44538 -0.79091
v 1.24022 1.35672 -0.81422
v 1.25967 1.51809 -0.56236
v 1.16042 1.71080 -0.54373
v 1.17672 1.70446 -0.50692
v 1.24432 1.31859 -0.73413
v 1.19319 1.43105 -0.68987
v 1.23535 1.44538 -0.79091
v 1.34437 1.64333 -0.62832
v 1.13120 1.96976 -0.56658
v 1.25913 1.77133 -0.52391
v 1.20218 1.72591 -0.51255
v 1.06802 1.93571 -0.50941
v 1.16042 1.71080 -0.54373
v 1.23535 1.44538 -0.79091
v 1.19319 1.43105 -0.68987
v 1.10762 1.40966 -0.84849
v 1.10762 1.40966 -0.84849
v 1.18789 1.47481 -0.90372
v 1.23535 1.44538 -0.79091
v 1.13120 1.96976 -0.56658
v 1.34437 1.64333 -0.62832
v 1.15389 1.98446 -0.60125
v 1.14799 1.68488 -0.97144
v 1.24260 1.56282 -1.00714
v 1.22571 1.52993 -0.91284
v 1.20218 1.72591 -0.51255
v 1.25913 1.77133 -0.52391
v 1.06802 1.93571 -0.50941
v 1.14188 1.39551 -0.68829
v 1.10762 1.40966 -0.84849
v 1.19319 1.43105 -0.68987
v 1.18789 1.47481 -0.90372
v 1.05400 1.79379 -0.85464
v 1.22571 1.52993 -0.91284
v 1.25967 1.51809 -0.56236
v 1.06742 1.60685 -0.50818
v 1.19179 1.47855 -0.54511
v 1.14764 1.84516 -0.93854
v 1.05400 1.79379 -0.85464
v 1.21764 1.85605 -0.82012
v 1.13120 1.96976 -0.56658
v 1.13001 1.96440 -0.49863
v 1.25913 1.77133 -0.52391
v 1.19319 1.43105 -0.68987
v 1.13409 1.48118 -0.65514
v 1.14188 1.39551 -0.68829
v 1.15389 1.98446 -0.60125
v 1.21764 1.85605 -0.82012
v 1.11201 2.03630 -0.61562
v 1.14799 1.68488 -0.97144
v 1.08909 1.81817 -0.90904
v 1.14764 1.84516 -0.93854
v 1.05400 1.79379 -0.85464
v 1.14764 1.84516 -0.93854
v 1.08909 1.81817 -0.90904
v 1.06742 1.60685 -0.50818
v 1.13409 1.48118 -0.65514
v 1.19179 1.47855 -0.54511
v 1.22571 1.52993 -0.91284
v 1.08909 1.81817 -0.90904
v 1.14799 1.68488 -0.97144
v 1.21764 1.85605 -0.82012
v 1.08986 2.04333 -0.72340
v 1.11201 2.03630 -0.61562
v 1.22571 1.52993 -0.91284
v 1.05400 1.79379 -0.85464
v 1.08909 1.81817 -0.90904
v 1.06742 1.60685 -0.50818
v 1.25967 1.51809 -0.56236
v 1.17672 1.70446 -0.50692
v 1.08237 1.80231 -0.51753
v 1.06742 1.60685 -0.50818
v 1.16042 1.71080 -0.54373
v 1.17672 1.70446 -0.50692
v 1.16042 1.71080 -0.54373
v 1.06742 1.60685 -0.50818
v 1.04750 1.60935 -0.61825
v 1.13409 1.48118 -0.65514
v 1.06742 1.60685 -0.50818
v 1.11201 2.03630 -0.61562
v 1.13120 1.96976 -0.56658
v 1.15389 1.98446 -0.60125
v 1.07463 1.47652 -0.72758
v 1.10762 1.40966 -0.84849
v 1.14188 1.39551 -0.68829
v 1.16042 1.71080 -0.54373
v 1.06802 1.93571 -0.50941
v 1.08237 1.80231 -0.51753
v 1.13001 1.96440 -0.49863
v 1.06802 1.93571 -0.50941
v 1.25913 1.77133 -0.52391
v 1.14188 1.39551 -0.68829
v 1.13409 1.48118 -0.65514
v 1.07463 1.47652 -0.72758
v 1.18789 1.47481 -0.90372
v 1.11287 1.59715 -0.87048
v 1.05400 1.79379 -0.85464
v 1.07463 1.47652 -0.72758
v 1.06425 1.54149 -0.74441
v 1.10762 1.40966 -0.84849
v 1.18789 1.47481 -0.90372
v 1.10762 1.40966 -0.84849
v 1.11287 1.59715 -0.87048
v 1.06802 1.93571 -0.50941
v 1.13001 1.96440 -0.49863
v 1.13120 1.96976 -0.56658
v 1.07463 1.47652 -0.72758
v 1.13409 1.48118 -0.65514
v 1.07338 1.46654 -0.64488
v 1.11287 1.59715 -0.87048
v 1.10762 1.40966 -0.84849
v 1.02737 1.54600 -0.85160
v 1.13409 1.48118 -0.65514
v 1.04750 1.60935 -0.61825
v 1.07338 1.46654 -0.64488
v 0.98942 2.00189 -0.80393
v 1.21764 1.85605 -0.82012
v 1.05400 1.79379 -0.85464
v 1.10762 1.40966 -0.84849
v 1.06425 1.54149 -0.74441
v 1.02737 1.54600 -0.85160
v 1.05400 1.79379 -0.85464
v 1.11287 1.59715 -0.87048
v 1.01795 1.83961 -0.77169
v 1.08986 2.04333 -0.72340
v 1.21764 1.85605 -0.82012
v 0.98942 2.00189 -0.80393
v 1.04413 1.79131 -0.52862
v 1.08237 1.80231 -0.51753
v 1.06802 1.93571 -0.50941
v 1.08237 1.80231 -0.51753
v 1.00185 1.76583 -0.50847
v 1.06742 1.60685 -0.50818
v 1.07338 1.46654 -0.64488
v 1.01458 1.61382 -0.72107
v 1.07463 1.47652 -0.72758
v 0.99376 1.82282 -0.82611
v 1.11287 1.59715 -0.87048
v 0.92661 1.78548 -0.79623
v 1.02737 1.54600 -0.85160
v 0.92661 1.78548 -0.79623
v 1.11287 1.59715 -0.87048
v 1.08986 2.04333 -0.72340
v 0.98942 2.00189 -0.80393
v 0.97785 1.98745 -0.74664
v 1.07463 1.47652 -0.72758
v 1.01458 1.61382 -0.72107
v 1.06425 1.54149 -0.74441
v 1.02737 1.54600 -0.85160
v 1.06425 1.54149 -0.74441
v 1.01458 1.61382 -0.72107
v 1.01795 1.83961 -0.77169
v 1.11287 1.59715 -0.87048
v 0.99376 1.82282 -0.82611
v 1.06802 1.93571 -0.50941
v 0.93846 2.03406 -0.48481
v 1.04413 1.79131 -0.52862
v 1.01458 1.61382 -0.72107
v 1.07338 1.46654 -0.64488
v 1.04750 1.60935 -0.61825
v 1.08237 1.80231 -0.51753
v 1.04413 1.79131 -0.52862
v 1.00185 1.76583 -0.50847
v 1.06742 1.60685 -0.50818
v 1.00185 1.76583 -0.50847
v 1.04750 1.60935 -0.61825
v 0.98664 2.23705 -0.64659
v 1.13120 1.96976 -0.56658
v 1.11201 2.03630 -0.61562
v 1.08986 2.04333 -0.72340
v 0.98664 2.23705 -0.64659
v 1.11201 2.03630 -0.61562
v 1.05400 1.79379 -0.85464
v 1.01795 1.83961 -0.77169
v 0.97785 1.98745 -0.74664
v 1.04750 1.60935 -0.61825
v 0.97691 1.59391 -0.65600
v 1.01458 1.61382 -0.72107
v 1.04413 1.79131 -0.52862
v 0.94790 1.78829 -0.72581
v 0.95178 1.75298 -0.58549
v 0.96009 1.82872 -0.67142
v 0.94790 1.78829 -0.72581
v 1.04413 1.79131 -0.52862
v 1.04413 1.79131 -0.52862
v 1.00615 1.84465 -0.57190
v 0.96009 1.82872 -0.67142
v 0.95178 1.75298 -0.58549
v 1.00185 1.76583 -0.50847
v 1.04413 1.79131 -0.52862
v 0.97571 2.22765 -0.50827
v 1.13120 1.96976 -0.56658
v 0.98664 2.23705 -0.64659
v 1.01458 1.61382 -0.72107
v 0.92661 1.78548 -0.79623
v 1.02737 1.54600 -0.85160
v 0.97785 1.98745 -0.74664
v 0.98942 2.00189 -0.80393
v 1.05400 1.79379 -0.85464
v 1.06802 1.93571 -0.50941
v 1.13120 1.96976 -0.56658
v 0.93846 2.03406 -0.48481
v 0.97571 2.22765 -0.50827
v 0.93846 2.03406 -0.48481
v 1.13120 1.96976 -0.56658
v 1.08986 2.04333 -0.72340
v 0.88072 2.19767 -0.70529
v 0.98664 2.23705 -0.64659
v 0.95178 1.75298 -0.58549
v 1.04750 1.60935 -0.61825
v 1.00185 1.76583 -0.50847
v 0.96009 1.82872 -0.67142
v 1.00615 1.84465 -0.57190
v 0.95710 1.82660 -0.56956
v 1.04413 1.79131 -0.52862
v 0.93028 2.02363 -0.54492
v 1.00615 1.84465 -0.57190
v 0.93028 2.02363 -0.54492
v 1.04413 1.79131 -0.52862
v 0.93846 2.03406 -0.48481
v 0.95710 1.82660 -0.56956
v 1.00615 1.84465 -0.57190
v 0.93028 2.02363 -0.54492
v 0.99376 1.82282 -0.82611
v 0.94790 1.78829 -0.72581
v 1.01795 1.83961 -0.77169
v 0.88072 2.19767 -0.70529
v 1.08986 2.04333 -0.72340
v 0.97785 1.98745 -0.74664
v 0.94790 1.78829 -0.72581
v 0.97785 1.98745 -0.74664
v 1.01795 1.83961 -0.77169
v 0.97571 2.22765 -0.50827
v 0.98664 2.23705 -0.64659
v 0.87880 2.18229 -0.51372
v 1.04750 1.60935 -0.61825
v 0.95178 1.75298 -0.58549
v 0.97691 1.59391 -0.65600
v 0.97785 1.98745 -0.74664
v 0.94790 1.78829 -0.72581
v 0.89492 2.08108 -0.70366
v 0.97785 1.98745 -0.74664
v 0.89492 2.08108 -0.70366
v 0.88072 2.19767 -0.70529
v 0.94790 1.78829 -0.72581
v 0.91185 1.75340 -0.66823
v 0.95178 1.75298 -0.58549
v 0.94790 1.78829 -0.72581
v 0.92661 1.78548 -0.79623
v 1.01458 1.61382 -0.72107
v 0.92661 1.78548 -0.79623
v 0.94790 1.78829 -0.72581
v 0.99376 1.82282 -0.82611
v 0.91185 1.75340 -0.66823
v 0.94790 1.78829 -0.72581
v 1.01458 1.61382 -0.72107
v 0.88072 2.19767 -0.70529
v 0.87880 2.18229 -0.51372
v 0.98664 2.23705 -0.64659
v 0.97691 1.59391 -0.65600
v 0.95178 1.75298 -0.58549
v 0.91185 1.75340 -0.66823
v 0.91185 1.75340 -0.66823
v 1.01458 1.61382 -0.72107
v 0.97691 1.59391 -0.65600
v 0.89212 1.89675 -0.62804
v 0.96009 1.82872 -0.67142
v 0.95710 1.82660 -0.56956
v 0.89492 2.08108 -0.70366
v 0.94790 1.78829 -0.72581
v 0.96009 1.82872 -0.67142
v 0.86936 1.98114 -0.57207
v 0.95710 1.82660 -0.56956
v 0.93028 2.02363 -0.54492
v 0.86936 1.98114 -0.57207
v 0.89212 1.89675 -0.62804
v 0.95710 1.82660 -0.56956
v 0.97571 2.22765 -0.50827
v 0.87880 2.18229 -0.51372
v 0.93846 2.03406 -0.48481
v 0.96009 1.82872 -0.67142
v 0.89212 1.89675 -0.62804
v 0.89713 2.00106 -0.68664
v 0.87880 2.18229 -0.51372
v 0.93028 2.02363 -0.54492
v 0.93846 2.03406 -0.48481
v 0.96009 1.82872 -0.67142
v 0.89713 2.00106 -0.68664
v 0.89492 2.08108 -0.70366
v 0.89713 2.00106 -0.68664
v 0.89212 1.89675 -0.62804
v 0.80985 1.80831 -0.75001
v 0.87880 2.18229 -0.51372
v 0.81843 2.16049 -0.54178
v 0.93028 2.02363 -0.54492
v 0.89492 2.08108 -0.70366
v 0.89713 2.00106 -0.68664
v 0.87236 2.19063 -0.65132
v 0.87236 2.19063 -0.65132
v 0.88072 2.19767 -0.70529
v 0.89492 2.08108 -0.70366
v 0.93028 2.02363 -0.54492
v 0.81843 2.16049 -0.54178
v 0.86936 1.98114 -0.57207
v 0.88072 2.19767 -0.70529
v 0.87236 2.19063 -0.65132
v 0.87880 2.18229 -0.51372
v 0.80985 1.80831 -0.75001
v 0.89212 1.89675 -0.62804
v 0.84353 1.79989 -0.63690
v 0.80650 2.16288 -0.61661
v 0.81843 2.16049 -0.54178
v 0.87880 2.18229 -0.51372
v 0.89212 1.89675 -0.62804
v 0.86936 1.98114 -0.57207
v 0.84353 1.79989 -0.63690
v 0.80650 2.16288 -0.61661
v 0.87880 2.18229 -0.51372
v 0.87236 2.19063 -0.65132
v 0.86936 1.98114 -0.57207
v 0.80650 2.16288 -0.61661
v 0.89713 2.00106 -0.68664
v 0.80650 2.16288 -0.61661
v 0.87236 2.19063 -0.65132
v 0.89713 2.00106 -0.68664
v 0.86936 1.98114 -0.57207
v 0.81843 2.16049 -0.54178
v 0.80650 2.16288 -0.61661
v 0.81774 1.94794 -0.50604
v 0.79745 1.80208 -0.55752
v 0.86936 1.98114 -0.57207
v 0.80985 1.80831 -0.75001
v 0.84353 1.79989 -0.63690
v 0.79745 1.80208 -0.55752
v 0.89713 2.00106 -0.68664
v 0.80985 1.80831 -0.75001
v 0.81717 2.03900 -0.71160
v 0.84353 1.79989 -0.63690
v 0.86936 1.98114 -0.57207
v 0.79745 1.80208 -0.55752
v 0.80705 1.75753 -0.55422
v 0.80985 1.80831 -0.75001
v 0.75905 1.79551 -0.54574
v 0.72648 2.03563 -0.57307
v 0.86936 1.98114 -0.57207
v 0.89713 2.00106 -0.68664
v 0.79745 1.80208 -0.55752
v 0.81774 1.94794 -0.50604
v 0.75905 1.79551 -0.54574
v 0.86936 1.98114 -0.57207
v 0.72648 2.03563 -0.57307
v 0.81774 1.94794 -0.50604
v 0.79745 1.80208 -0.55752
v 0.75905 1.79551 -0.54574
v 0.80985 1.80831 -0.75001
v 0.81717 2.03900 -0.71160
v 0.66107 1.89509 -0.71546
v 0.72648 2.03563 -0.57307
v 0.89713 2.00106 -0.68664
v 0.81717 2.03900 -0.71160
v 0.72648 2.03563 -0.57307
v 0.81774 1.94794 -0.50604
v 0.72648 2.03563 -0.57307
v 0.72097 1.84865 -0.58311
v 0.75905 1.79551 -0.54574
v 0.69407 1.47051 -0.58068
v 0.80705 1.75753 -0.55422
v 0.81774 1.94794 -0.50604
v 0.72097 1.84865 -0.58311
v 0.75905 1.79551 -0.54574
v 0.75905 1.79551 -0.54574
v 0.72097 1.84865 -0.58311
v 0.66002 1.84373 -0.50450
v 0.64691 1.87137 -0.59747
v 0.72097 1.84865 -0.58311
v 0.72648 2.03563 -0.57307
v 0.66002 1.84373 -0.50450
v 0.72097 1.84865 -0.58311
v 0.64691 1.87137 -0.59747
v 0.72648 2.03563 -0.57307
v 0.66107 1.89509 -0.71546
v 0.64691 1.87137 -0.59747
v 0.73190 1.81013 -0.61996
v 0.80985 1.80831 -0.75001
v 0.81717 2.03900 -0.71160
v 0.66107 1.89509 -0.71546
v 0.64691 1.87137 -0.59747
v 0.66002 1.84373 -0.50450
v 0.75905 1.79551 -0.54574
v 0.69407 1.47051 -0.58068
v 0.80705 1.75753 -0.55422
vt 0.78491 0.32391
vt 0.78752 0.30115
vt 0.79079 0.32266
vt 0.29904 1.00000
vt 0.30146 0.99523
vt 0.30270 0.99603
vt 0.78752 0.30115
vt 0.78433 0.32393
vt 0.77322 0.26542
vt 0.30255 0.99976
vt 0.29907 1.00000
vt 0.30270 0.99603
vt 0.78752 0.30115
vt 0.77319 0.26548
vt 0.78729 0.28871
vt 0.09727 0.61781
vt 0.09642 0.63061
vt 0.08961 0.61786
vt 0.06962 0.53699
vt 0.07565 0.52567
vt 0.07763 0.53722
vt 0.02182 0.54549
vt 0.01647 0.54549
vt 0.01998 0.53805
vt 0.30150 0.99526
vt 0.30255 0.99976
vt 0.30270 0.99603
vt 0.36490 0.94706
vt 0.37592 0.94964
vt 0.36452 0.95269
vt 0.06967 0.52584
vt 0.07565 0.52567
vt 0.06962 0.53699
vt 0.22776 0.25466
vt 0.22785 0.23233
vt 0.22884 0.24343
vt 0.08961 0.61786
vt 0.09648 0.63058
vt 0.08721 0.62976
vt 0.23357 0.51875
vt 0.22911 0.54067
vt 0.22588 0.51839
vt 0.78633 0.26761
vt 0.78758 0.28869
vt 0.77321 0.26544
vt 0.40732 0.36348
vt 0.40179 0.33808
vt 0.41033 0.36342
vt 0.87661 0.38188
vt 0.87327 0.38036
vt 0.87850 0.34597
vt 0.37780 0.79582
vt 0.38230 0.78679
vt 0.38784 0.79945
vt 0.77332 0.26541
vt 0.78358 0.32399
vt 0.76828 0.26654
vt 0.87849 0.34595
vt 0.88553 0.32069
vt 0.87670 0.38188
vt 0.21430 0.61958
vt 0.21856 0.61870
vt 0.21466 0.62538
vt 0.49788 0.95695
vt 0.49811 0.94549
vt 0.50919 0.94815
vt 0.22773 0.25465
vt 0.22884 0.24343
vt 0.23656 0.25497
vt 0.40246 0.33810
vt 0.39445 0.33584
vt 0.39719 0.32451
vt 0.71809 0.94440
vt 0.72890 0.94782
vt 0.71565 0.95267
vt 0.29784 0.09040
vt 0.30301 0.10783
vt 0.29446 0.10823
vt 0.29609 0.83747
vt 0.29900 0.85512
vt 0.29333 0.83758
vt 0.40246 0.33810
vt 0.39719 0.32451
vt 0.41044 0.32508
vt 0.07474 0.86295
vt 0.08063 0.86315
vt 0.07833 0.87437
vt 0.87477 0.34601
vt 0.87849 0.34595
vt 0.87328 0.38037
vt 0.38230 0.78679
vt 0.38735 0.79064
vt 0.38784 0.79945
vt 0.40246 0.33810
vt 0.40608 0.32555
vt 0.40790 0.36293
vt 0.43689 0.84868
vt 0.43053 0.85125
vt 0.43613 0.84251
vt 0.99510 0.94446
vt 0.98410 0.94482
vt 0.98388 0.94164
vt 0.88577 0.32076
vt 0.87849 0.34595
vt 0.87537 0.33498
vt 0.05385 0.87992
vt 0.05378 0.87046
vt 0.05909 0.88042
vt 0.49788 0.95695
vt 0.50919 0.94816
vt 0.50861 0.95717
vt 0.05909 0.88042
vt 0.05378 0.87046
vt 0.06314 0.87001
vt 0.29446 0.10823
vt 0.29703 0.07923
vt 0.29754 0.09032
vt 0.20012 0.42431
vt 0.19633 0.42714
vt 0.19372 0.42390
vt 0.77327 0.26543
vt 0.76828 0.21874
vt 0.78633 0.26761
vt 0.21223 0.62448
vt 0.21430 0.62779
vt 0.21009 0.63226
vt 0.88554 0.32066
vt 0.87525 0.33491
vt 0.87730 0.32358
vt 0.21009 0.63226
vt 0.21430 0.62779
vt 0.21553 0.63175
vt 0.97004 0.24004
vt 0.97245 0.25003
vt 0.96847 0.24968
vt 0.42690 0.84211
vt 0.43613 0.84251
vt 0.43053 0.85125
vt 0.19310 0.42353
vt 0.18208 0.42044
vt 0.19610 0.42143
vt 0.25714 0.90147
vt 0.25615 0.89017
vt 0.27072 0.90038
vt 0.29333 0.83758
vt 0.29903 0.85512
vt 0.28990 0.85471
vt 0.79232 0.23849
vt 0.78633 0.26761
vt 0.76626 0.21971
vt 0.19234 0.16891
vt 0.19637 0.16470
vt 0.19909 0.17388
vt 0.08098 0.77453
vt 0.07414 0.77393
vt 0.08071 0.76355
vt 0.97002 0.24003
vt 0.96847 0.24968
vt 0.96939 0.23239
vt 0.19850 0.15375
vt 0.19643 0.16468
vt 0.19237 0.16887
vt 0.27072 0.90038
vt 0.25617 0.89017
vt 0.27246 0.89133
vt 0.20067 0.42424
vt 0.19343 0.42396
vt 0.19480 0.42015
vt 0.07414 0.77393
vt 0.07092 0.76266
vt 0.08071 0.76355
vt 0.88103 0.31424
vt 0.88552 0.32059
vt 0.87731 0.32356
vt 0.38735 0.79064
vt 0.38885 0.78469
vt 0.39572 0.78439
vt 0.18558 0.95835
vt 0.19632 0.95835
vt 0.18621 0.96634
vt 0.17454 0.57884
vt 0.17651 0.58139
vt 0.17462 0.58927
vt 0.16978 0.58780
vt 0.17455 0.57885
vt 0.17461 0.58928
vt 0.04796 0.36729
vt 0.05402 0.37644
vt 0.04576 0.37668
vt 0.38885 0.78469
vt 0.38735 0.79064
vt 0.38230 0.78679
vt 0.04978 0.35556
vt 0.04440 0.34636
vt 0.05128 0.34650
vt 0.97004 0.24004
vt 0.97199 0.24026
vt 0.97245 0.25003
vt 0.75923 0.25100
vt 0.77296 0.26513
vt 0.76831 0.26746
vt 0.18621 0.96634
vt 0.19632 0.95835
vt 0.19621 0.96858
vt 0.04636 0.86961
vt 0.05643 0.86189
vt 0.05646 0.86964
vt 0.07162 0.75033
vt 0.07814 0.76058
vt 0.07022 0.76074
vt 0.91337 0.96598
vt 0.91334 0.95875
vt 0.92305 0.96463
vt 0.88103 0.31424
vt 0.88601 0.30429
vt 0.88551 0.32067
vt 0.07183 0.75022
vt 0.07806 0.74944
vt 0.07747 0.76094
vt 0.21553 0.63175
vt 0.21813 0.63932
vt 0.21009 0.63226
vt 0.78539 0.21510
vt 0.79156 0.23856
vt 0.76915 0.21932
vt 0.04644 0.86975
vt 0.04647 0.86324
vt 0.05655 0.86208
vt 0.11332 0.98243
vt 0.11343 0.97963
vt 0.12088 0.98269
vt 0.92305 0.96463
vt 0.91338 0.95868
vt 0.92422 0.95815
vt 0.79131 0.21114
vt 0.79027 0.23712
vt 0.78539 0.21510
vt 0.45862 0.71603
vt 0.45778 0.70813
vt 0.47774 0.71528
vt 0.05669 0.80420
vt 0.06166 0.81366
vt 0.05733 0.81434
vt 0.62943 0.85696
vt 0.63295 0.85434
vt 0.63066 0.86372
vt 0.88601 0.30429
vt 0.88103 0.31424
vt 0.88043 0.30365
vt 0.97710 0.22619
vt 0.97715 0.23259
vt 0.96941 0.23451
vt 0.63295 0.85434
vt 0.63698 0.86047
vt 0.63065 0.86372
vt 0.43053 0.85125
vt 0.42173 0.83746
vt 0.42684 0.84214
vt 0.88103 0.31424
vt 0.87339 0.31220
vt 0.88042 0.30365
vt 0.97710 0.22619
vt 0.96948 0.23458
vt 0.96686 0.22659
vt 0.47774 0.71528
vt 0.45758 0.70901
vt 0.48616 0.71213
vt 0.42173 0.83746
vt 0.43053 0.85125
vt 0.42199 0.84649
vt 0.47573 0.02870
vt 0.48609 0.02557
vt 0.48043 0.03360
vt 0.63694 0.86048
vt 0.63292 0.87066
vt 0.63066 0.86371
vt 0.76954 0.21625
vt 0.77106 0.26455
vt 0.76289 0.25175
vt 0.19957 0.40083
vt 0.19978 0.41996
vt 0.19758 0.41024
vt 0.05669 0.80420
vt 0.06149 0.80381
vt 0.06166 0.81366
vt 0.17607 0.59601
vt 0.16978 0.58780
vt 0.17461 0.58928
vt 0.48762 0.03031
vt 0.48043 0.03360
vt 0.48609 0.02557
vt 0.55619 0.95679
vt 0.56713 0.95586
vt 0.56713 0.96620
vt 0.76954 0.21664
vt 0.76289 0.25175
vt 0.76228 0.22517
vt 0.19300 0.40246
vt 0.18821 0.40048
vt 0.19957 0.40083
vt 0.87339 0.31220
vt 0.87459 0.30340
vt 0.88044 0.30367
vt 0.55619 0.95679
vt 0.56713 0.96620
vt 0.55629 0.96657
vt 0.96686 0.22604
vt 0.97605 0.22051
vt 0.97710 0.22619
vt 0.10921 0.98609
vt 0.10987 0.99299
vt 0.10435 0.99330
vt 0.05275 0.62929
vt 0.05175 0.62361
vt 0.05317 0.61884
vt 0.19957 0.40083
vt 0.19767 0.41026
vt 0.19300 0.40246
vt 0.05742 0.11938
vt 0.05742 0.10931
vt 0.06828 0.11958
vt 0.17607 0.59601
vt 0.17461 0.58928
vt 0.18580 0.59145
vt 0.06807 0.11973
vt 0.05742 0.10931
vt 0.06799 0.10888
vt 0.97605 0.22051
vt 0.96701 0.22628
vt 0.96723 0.21949
vt 0.07961 0.34857
vt 0.08267 0.34445
vt 0.09145 0.34802
vt 0.23115 0.06643
vt 0.22864 0.07824
vt 0.22683 0.05540
vt 0.33571 0.96255
vt 0.33940 0.95946
vt 0.33957 0.96992
vt 0.77081 0.83699
vt 0.76702 0.84480
vt 0.76340 0.83684
vt 0.07006 0.26135
vt 0.05972 0.25688
vt 0.06759 0.25639
vt 0.02932 0.67660
vt 0.02190 0.68120
vt 0.02241 0.67436
vt 0.07322 0.79285
vt 0.06256 0.80188
vt 0.06237 0.79285
vt 0.19300 0.40246
vt 0.18759 0.40292
vt 0.18831 0.40029
vt 0.05705 0.45170
vt 0.04986 0.46150
vt 0.04873 0.45170
vt 0.63627 0.97445
vt 0.62674 0.96884
vt 0.63643 0.96811
vt 0.96314 0.70886
vt 0.96732 0.70484
vt 0.96767 0.73126
vt 0.05705 0.45170
vt 0.05719 0.46177
vt 0.04986 0.46150
vt 0.20659 0.94467
vt 0.20702 0.93650
vt 0.21873 0.94472
vt 0.77059 0.21562
vt 0.76228 0.22517
vt 0.75725 0.21193
vt 0.19770 0.97157
vt 0.20037 0.97241
vt 0.19007 0.97065
vt 0.02777 0.68367
vt 0.02190 0.68120
vt 0.02932 0.67660
vt 0.05752 0.04583
vt 0.06199 0.04202
vt 0.06394 0.04608
vt 0.06176 0.03512
vt 0.06394 0.04608
vt 0.06199 0.04202
vt 0.55421 0.92589
vt 0.56587 0.91756
vt 0.56636 0.92481
vt 0.64282 0.97127
vt 0.63983 0.98049
vt 0.63924 0.97298
vt 0.52570 0.97204
vt 0.52490 0.96809
vt 0.53561 0.97217
vt 0.53560 0.97219
vt 0.52491 0.96807
vt 0.53516 0.96680
vt 0.06256 0.80188
vt 0.07322 0.79285
vt 0.07332 0.80314
vt 0.55271 0.91815
vt 0.56587 0.91756
vt 0.55404 0.92558
vt 0.51833 0.01016
vt 0.52045 0.01669
vt 0.51088 0.01518
vt 0.68331 0.98710
vt 0.68904 0.99241
vt 0.68355 0.99301
vt 0.39892 0.92384
vt 0.39296 0.91130
vt 0.40017 0.91068
vt 0.08123 0.89949
vt 0.09091 0.90067
vt 0.09131 0.91169
vt 0.39890 0.92386
vt 0.39339 0.92414
vt 0.39296 0.91130
vt 0.79131 0.21114
vt 0.78539 0.21510
vt 0.79249 0.20107
vt 0.20710 0.93633
vt 0.21837 0.93701
vt 0.21876 0.94466
vt 0.89553 0.77249
vt 0.90024 0.77635
vt 0.89262 0.77847
vt 0.62674 0.96884
vt 0.63627 0.97445
vt 0.62660 0.97619
vt 0.80206 0.98146
vt 0.80144 0.96944
vt 0.81196 0.97813
vt 0.25690 0.25857
vt 0.24992 0.25467
vt 0.25671 0.25315
vt 0.77863 0.18824
vt 0.78539 0.21510
vt 0.76884 0.21916
vt 0.09095 0.91201
vt 0.08064 0.91285
vt 0.08151 0.89924
vt 0.81196 0.97813
vt 0.80135 0.96960
vt 0.81198 0.97222
vt 0.76702 0.84480
vt 0.77081 0.83699
vt 0.77497 0.84392
vt 0.96958 0.05377
vt 0.96894 0.06010
vt 0.95609 0.05854
vt 0.26303 0.23419
vt 0.26223 0.24246
vt 0.25541 0.23951
vt 0.89242 0.77837
vt 0.87891 0.77773
vt 0.89553 0.77249
vt 0.24995 0.25464
vt 0.25544 0.23951
vt 0.25671 0.25315
vt 0.52840 0.83104
vt 0.51972 0.83110
vt 0.52206 0.82346
vt 0.02673 0.52113
vt 0.02738 0.52911
vt 0.02140 0.52161
vt 0.02140 0.52161
vt 0.02738 0.52911
vt 0.02131 0.52897
vt 0.82651 0.91457
vt 0.83734 0.91208
vt 0.82964 0.92153
vt 0.77500 0.84391
vt 0.77081 0.83699
vt 0.77527 0.82690
vt 0.52840 0.83103
vt 0.52206 0.82346
vt 0.52738 0.82489
vt 0.52840 0.83104
vt 0.52227 0.83568
vt 0.51972 0.83110
vt 0.80093 0.95191
vt 0.80143 0.95712
vt 0.79020 0.95549
vt 0.31513 0.46621
vt 0.31352 0.45889
vt 0.32249 0.46550
vt 0.78539 0.21510
vt 0.77871 0.18810
vt 0.79681 0.17562
vt 0.97717 0.95551
vt 0.97724 0.96479
vt 0.96629 0.96645
vt 0.79768 0.17538
vt 0.79256 0.20104
vt 0.78539 0.21510
vt 0.23521 0.00853
vt 0.24257 0.01528
vt 0.23521 0.01569
vt 0.96641 0.95846
vt 0.97720 0.95556
vt 0.96629 0.96645
vt 0.38617 0.96469
vt 0.38257 0.96046
vt 0.39273 0.95531
vt 0.24286 0.01466
vt 0.23521 0.00853
vt 0.24366 0.00818
vt 0.33942 0.97959
vt 0.33381 0.97872
vt 0.33838 0.97445
vt 0.94620 0.42465
vt 0.94640 0.43459
vt 0.93359 0.44222
vt 0.11609 0.26297
vt 0.11817 0.27010
vt 0.10514 0.26625
vt 0.95246 0.44656
vt 0.94074 0.43869
vt 0.94654 0.43404
vt 0.02783 0.57364
vt 0.02333 0.57730
vt 0.02115 0.57064
vt 0.94760 0.45521
vt 0.94245 0.44124
vt 0.95246 0.44656
vt 0.87891 0.77773
vt 0.89242 0.77843
vt 0.88149 0.78443
vt 0.52738 0.82489
vt 0.52206 0.82346
vt 0.53001 0.81823
vt 0.73546 0.19750
vt 0.76954 0.21575
vt 0.75725 0.21193
vt 0.32785 0.97554
vt 0.32836 0.96991
vt 0.33813 0.97240
vt 0.31669 0.45161
vt 0.32249 0.46550
vt 0.31352 0.45889
vt 0.31352 0.45889
vt 0.31361 0.43568
vt 0.31669 0.45161
vt 0.97429 0.09396
vt 0.98441 0.09707
vt 0.98676 0.09389
vt 0.70521 0.62089
vt 0.74761 0.61817
vt 0.74504 0.63052
vt 0.95608 0.05850
vt 0.94638 0.05432
vt 0.96958 0.05377
vt 0.84986 0.90255
vt 0.85191 0.88821
vt 0.85754 0.89179
vt 0.93362 0.44224
vt 0.93690 0.42405
vt 0.94620 0.42465
vt 0.37975 0.95359
vt 0.37758 0.94882
vt 0.38026 0.94248
vt 0.81086 0.71701
vt 0.80433 0.71620
vt 0.81039 0.68894
vt 0.98405 0.91732
vt 0.99810 0.90526
vt 0.99778 0.91637
vt 0.95568 0.41652
vt 0.94995 0.41280
vt 0.95705 0.41005
vt 0.95568 0.41652
vt 0.94620 0.42465
vt 0.94995 0.41280
vt 0.98869 0.90719
vt 0.99809 0.90525
vt 0.98406 0.91733
vt 0.32249 0.45177
vt 0.32249 0.46550
vt 0.31669 0.45161
vt 0.19252 0.36054
vt 0.19728 0.36138
vt 0.19298 0.38088
vt 0.59698 0.70346
vt 0.62469 0.70605
vt 0.61083 0.70928
vt 0.75030 0.98877
vt 0.74954 0.99333
vt 0.74606 0.99184
vt 0.98869 0.90719
vt 0.98402 0.91731
vt 0.98309 0.90843
vt 0.94620 0.42465
vt 0.94423 0.41830
vt 0.94995 0.41280
vt 0.93702 0.42384
vt 0.94423 0.41830
vt 0.94620 0.42465
vt 0.50455 0.82784
vt 0.48459 0.82660
vt 0.48570 0.82308
vt 0.93705 0.42392
vt 0.93343 0.41491
vt 0.94423 0.41830
vt 0.86336 0.66837
vt 0.89963 0.66700
vt 0.87909 0.67505
vt 0.20635 0.65115
vt 0.20421 0.67163
vt 0.20200 0.65151
vt 0.82689 0.85370
vt 0.82709 0.86140
vt 0.81639 0.85444
vt 0.81639 0.85444
vt 0.82052 0.84702
vt 0.82689 0.85370
vt 0.32068 0.57314
vt 0.32023 0.54051
vt 0.32420 0.57261
vt 0.34486 0.70859
vt 0.35905 0.70683
vt 0.36004 0.71582
vt 0.96591 0.39307
vt 0.97188 0.39352
vt 0.96690 0.41352
vt 0.82350 0.86392
vt 0.81640 0.85445
vt 0.82743 0.86177
vt 0.79758 0.55766
vt 0.76547 0.55653
vt 0.79459 0.55223
vt 0.17926 0.24045
vt 0.19220 0.22507
vt 0.18654 0.24081
vt 0.04815 0.80836
vt 0.05701 0.79957
vt 0.05834 0.81593
vt 0.19383 0.10962
vt 0.19380 0.11525
vt 0.17451 0.11414
vt 0.65607 0.00591
vt 0.66142 0.00301
vt 0.65919 0.00926
vt 0.27878 0.46123
vt 0.29921 0.45413
vt 0.27867 0.46687
vt 0.61083 0.70928
vt 0.59627 0.70988
vt 0.59698 0.70345
vt 0.05701 0.79957
vt 0.04815 0.80837
vt 0.05153 0.80280
vt 0.36533 0.87223
vt 0.35150 0.88493
vt 0.34887 0.87393
vt 0.36002 0.71586
vt 0.33086 0.71267
vt 0.34486 0.70859
vt 0.29921 0.45413
vt 0.28703 0.47048
vt 0.27867 0.46687
vt 0.36002 0.71582
vt 0.33097 0.71789
vt 0.33086 0.71267
vt 0.19220 0.22507
vt 0.17926 0.24045
vt 0.17934 0.22101
vt 0.12537 0.70597
vt 0.13355 0.72198
vt 0.12164 0.71663
vt 0.23746 0.03041
vt 0.23685 0.03348
vt 0.22400 0.03107
vt 0.36579 0.88232
vt 0.35174 0.88521
vt 0.36533 0.87223
vt 0.93426 0.72477
vt 0.92958 0.71954
vt 0.93195 0.72031
vt 0.51685 0.90512
vt 0.52582 0.89563
vt 0.52496 0.91037
vt 0.49024 0.08994
vt 0.46995 0.09082
vt 0.48045 0.08716
vt 0.97185 0.41285
vt 0.96663 0.41345
vt 0.97202 0.39356
vt 0.03797 0.86505
vt 0.03865 0.85670
vt 0.04659 0.85940
vt 0.80871 0.64351
vt 0.82220 0.64395
vt 0.84039 0.64880
vt 0.51685 0.90512
vt 0.51135 0.90231
vt 0.52582 0.89563
vt 0.67433 0.91834
vt 0.67476 0.90761
vt 0.68775 0.91883
vt 0.01206 0.10978
vt 0.00946 0.10469
vt 0.01472 0.10267
vt 0.33447 0.01292
vt 0.33684 0.02121
vt 0.33129 0.01984
vt 0.68803 0.91845
vt 0.67459 0.90784
vt 0.68876 0.90915
vt 0.13911 0.91476
vt 0.12517 0.91069
vt 0.13863 0.90907
vt 0.74505 0.55462
vt 0.76512 0.53988
vt 0.76555 0.55626
vt 0.52575 0.89549
vt 0.51135 0.90231
vt 0.51164 0.89199
vt 0.84047 0.64851
vt 0.82213 0.64422
vt 0.84768 0.64272
vt 0.13716 0.19883
vt 0.15380 0.20336
vt 0.13538 0.20815
vt 0.48006 0.08418
vt 0.48049 0.08732
vt 0.46999 0.09098
vt 0.12570 0.70580
vt 0.13374 0.70617
vt 0.13355 0.72198
vt 0.11813 0.61839
vt 0.12624 0.60439
vt 0.12552 0.61802
vt 0.32630 0.73215
vt 0.35000 0.73004
vt 0.32665 0.73972
vt 0.35100 0.73901
vt 0.32658 0.73956
vt 0.34989 0.72978
vt 0.62343 0.91017
vt 0.62927 0.90267
vt 0.63148 0.90627
vt 0.11661 0.40036
vt 0.11826 0.41405
vt 0.11497 0.40638
vt 0.25707 0.71650
vt 0.26749 0.71685
vt 0.26749 0.72520
vt 0.26794 0.06251
vt 0.26943 0.03695
vt 0.27324 0.06046
vt 0.46991 0.09086
vt 0.45787 0.08464
vt 0.48006 0.08418
vt 0.12624 0.60439
vt 0.11813 0.61839
vt 0.11634 0.60495
vt 0.07656 0.14197
vt 0.07497 0.13895
vt 0.07593 0.13464
vt 0.74619 0.87457
vt 0.73078 0.87813
vt 0.74299 0.86482
vt 0.93958 0.74347
vt 0.92963 0.71946
vt 0.93444 0.72447
vt 0.45479 0.87556
vt 0.45722 0.85941
vt 0.46247 0.87533
vt 0.18204 0.38107
vt 0.17603 0.38682
vt 0.16323 0.38570
vt 0.05417 0.74973
vt 0.04716 0.74709
vt 0.05020 0.74062
vt 0.17525 0.85144
vt 0.19532 0.84937
vt 0.18433 0.85687
vt 0.46269 0.74988
vt 0.46573 0.74546
vt 0.46591 0.76355
vt 0.46591 0.76355
vt 0.46126 0.75902
vt 0.46242 0.74995
vt 0.06887 0.13164
vt 0.07593 0.13464
vt 0.07497 0.13895
vt 0.92806 0.74479
vt 0.92962 0.71947
vt 0.93945 0.74352
vt 0.26749 0.72520
vt 0.25699 0.74108
vt 0.25696 0.71666
vt 0.31075 0.81897
vt 0.31331 0.81871
vt 0.31742 0.83675
vt 0.47000 0.09068
vt 0.47020 0.09785
vt 0.45787 0.08464
vt 0.44504 0.09490
vt 0.45787 0.08464
vt 0.47022 0.09784
vt 0.14499 0.68699
vt 0.16338 0.68450
vt 0.16036 0.69312
vt 0.72829 0.87050
vt 0.74300 0.86482
vt 0.73078 0.87813
vt 0.03844 0.85499
vt 0.04019 0.84599
vt 0.04375 0.84844
vt 0.46591 0.76355
vt 0.44505 0.75866
vt 0.46126 0.75902
vt 0.44501 0.75880
vt 0.46591 0.76355
vt 0.44371 0.76365
vt 0.30101 0.16459
vt 0.30055 0.16029
vt 0.31676 0.15940
vt 0.08968 0.27615
vt 0.09971 0.27967
vt 0.09093 0.28169
vt 0.14657 0.59980
vt 0.14869 0.61791
vt 0.14026 0.61506
vt 0.52308 0.78019
vt 0.53440 0.79247
vt 0.52230 0.78817
vt 0.65837 0.89909
vt 0.65146 0.90628
vt 0.65310 0.89350
vt 0.12993 0.78180
vt 0.12582 0.79743
vt 0.12309 0.78179
vt 0.53440 0.79247
vt 0.52295 0.78033
vt 0.54518 0.79106
vt 0.14026 0.61506
vt 0.14107 0.60584
vt 0.14651 0.59976
vt 0.19535 0.84943
vt 0.19272 0.85592
vt 0.18433 0.85687
vt 0.26361 0.74190
vt 0.25699 0.74108
vt 0.26749 0.72520
vt 0.09680 0.27360
vt 0.09969 0.27972
vt 0.08967 0.27618
vt 0.26861 0.74138
vt 0.26361 0.74190
vt 0.26749 0.72520
vt 0.64298 0.90287
vt 0.65310 0.89350
vt 0.65146 0.90628
vt 0.13283 0.55368
vt 0.12892 0.53813
vt 0.13724 0.53844
vt 0.13009 0.18662
vt 0.13417 0.20278
vt 0.12779 0.20202
vt 0.82214 0.90200
vt 0.81523 0.90643
vt 0.81353 0.89858
vt 0.37106 0.78028
vt 0.34647 0.78127
vt 0.34968 0.77662
vt 0.31566 0.16592
vt 0.30101 0.16459
vt 0.31678 0.15948
vt 0.82794 0.89569
vt 0.82214 0.90201
vt 0.81353 0.89858
vt 0.44504 0.09490
vt 0.44466 0.08625
vt 0.45787 0.08464
vt 0.87550 0.04303
vt 0.88272 0.03822
vt 0.89069 0.04397
vt 0.16561 0.93013
vt 0.17940 0.92959
vt 0.17838 0.93424
vt 0.87549 0.04300
vt 0.89069 0.04368
vt 0.89693 0.04621
vt 0.16281 0.73965
vt 0.16810 0.74800
vt 0.15714 0.75702
vt 0.98295 0.24902
vt 0.98395 0.25449
vt 0.96946 0.25284
vt 0.89644 0.04684
vt 0.89048 0.04394
vt 0.90641 0.04607
vt 0.08602 0.48945
vt 0.08479 0.49303
vt 0.07717 0.48948
vt 0.31676 0.15948
vt 0.33098 0.16285
vt 0.31566 0.16592
vt 0.64298 0.90287
vt 0.64544 0.89978
vt 0.65309 0.89350
vt 0.15717 0.75704
vt 0.16812 0.74802
vt 0.16694 0.75693
vt 0.99797 0.01226
vt 0.99254 0.01540
vt 0.98745 0.01262
vt 0.13409 0.82248
vt 0.13102 0.83026
vt 0.13117 0.81419
vt 0.64400 0.89427
vt 0.65309 0.89350
vt 0.64544 0.89978
vt 0.15707 0.81919
vt 0.15017 0.83399
vt 0.14727 0.81785
vt 0.90630 0.03950
vt 0.90641 0.04607
vt 0.89050 0.04383
vt 0.15707 0.81919
vt 0.15639 0.83481
vt 0.15017 0.83399
vt 0.85670 0.87876
vt 0.84398 0.87842
vt 0.85859 0.87187
vt 0.99186 0.70090
vt 0.98212 0.70104
vt 0.97684 0.69557
vt 0.16281 0.73964
vt 0.15715 0.75702
vt 0.15736 0.73845
vt 0.84255 0.87096
vt 0.85859 0.87187
vt 0.84398 0.87842
vt 0.99790 0.74602
vt 0.99710 0.76274
vt 0.99280 0.74583
vt 0.70263 0.81989
vt 0.70065 0.83239
vt 0.69076 0.83234
vt 0.97427 0.11203
vt 0.97405 0.12490
vt 0.97114 0.11131
vt 0.70065 0.83239
vt 0.70269 0.81991
vt 0.70786 0.83057
vt 0.97684 0.69557
vt 0.97680 0.69221
vt 0.99182 0.70102
vt 0.41418 0.89356
vt 0.39827 0.88641
vt 0.41375 0.88016
vt 0.69075 0.83233
vt 0.68983 0.82478
vt 0.70263 0.81989
vt 0.17029 0.14393
vt 0.15871 0.14165
vt 0.16986 0.13091
vt 0.90714 0.03961
vt 0.93773 0.04014
vt 0.90962 0.04460
vt 0.17039 0.14395
vt 0.16986 0.13091
vt 0.17604 0.13140
vt 0.02243 0.13349
vt 0.02782 0.13658
vt 0.02290 0.14319
vt 0.89226 0.88925
vt 0.89846 0.89127
vt 0.89016 0.90425
vt 0.02240 0.96111
vt 0.02240 0.95287
vt 0.02832 0.95559
vt 0.46418 0.89047
vt 0.47955 0.88250
vt 0.47923 0.89250
vt 0.15714 0.75702
vt 0.15714 0.75702
vt 0.15714 0.75702
vt 0.15714 0.75702
vt 0.15714 0.75702
vt 0.15714 0.75702
vt 0.15714 0.75702
vt 0.15714 0.75702
vt 0.15714 0.75702
vn 0.5279 -0.5940 -0.6070
vn 0.9272 -0.0900 0.3637
vn 0.2050 -0.5105 0.8351
vn 0.5279 -0.5940 -0.6070
vn 0.2050 -0.5105 0.8351
vn -0.6322 -0.3433 0.6946
vn 0.9272 -0.0900 0.3637
vn 0.5279 -0.5940 -0.6070
vn 0.8733 0.2655 -0.4085
vn -0.7080 -0.6258 -0.3274
vn 0.5279 -0.5940 -0.6070
vn -0.6322 -0.3433 0.6946
vn 0.9272 -0.0900 0.3637
vn 0.8733 0.2655 -0.4085
vn 0.8898 0.1015 0.4448
vn 0.9272 -0.0900 0.3637
vn 0.8898 0.1015 0.4448
vn -0.1094 -0.7245 0.6805
vn 0.7760 -0.2325 0.5864
vn 0.6676 0.7131 0.2140
vn 0.6842 -0.5258 0.5054
vn -0.1094 -0.7245 0.6805
vn -0.7569 -0.4841 0.4391
vn 0.9272 -0.0900 0.3637
vn 0.2050 -0.5105 0.8351
vn -0.7080 -0.6258 -0.3274
vn -0.6322 -0.3433 0.6946
vn 0.1340 0.2979 0.9451
vn 0.6842 -0.5258 0.5054
vn 0.6676 0.7131 0.2140
vn 0.9327 0.3417 -0.1152
vn 0.6676 0.7131 0.2140
vn 0.7760 -0.2325 0.5864
vn 0.8898 0.1015 0.4448
vn 0.9327 0.3417 -0.1152
vn 0.7760 -0.2325 0.5864
vn -0.1094 -0.7245 0.6805
vn 0.8898 0.1015 0.4448
vn -0.3452 -0.2999 0.8893
vn -0.7569 -0.4841 0.4391
vn 0.2050 -0.5105 0.8351
vn 0.9272 -0.0900 0.3637
vn 0.9327 0.3417 -0.1152
vn 0.8898 0.1015 0.4448
vn 0.8733 0.2655 -0.4085
vn 0.2050 -0.5105 0.8351
vn -0.7569 -0.4841 0.4391
vn -0.7080 -0.6258 -0.3274
vn 0.5279 -0.5940 -0.6070
vn -0.7080 -0.6258 -0.3274
vn 0.0761 -0.3319 -0.9403
vn 0.6842 -0.5258 0.5054
vn -0.3238 -0.7594 0.5644
vn 0.7760 -0.2325 0.5864
vn 0.8733 0.2655 -0.4085
vn 0.5279 -0.5940 -0.6070
vn 0.1889 0.0575 -0.9803
vn 0.0761 -0.3319 -0.9403
vn 0.1889 0.0575 -0.9803
vn 0.5279 -0.5940 -0.6070
vn 0.6676 0.7131 0.2140
vn 0.9327 0.3417 -0.1152
vn 0.1340 0.2979 0.9451
vn -0.3238 -0.7594 0.5644
vn 0.6842 -0.5258 0.5054
vn 0.1340 0.2979 0.9451
vn 0.8898 0.1015 0.4448
vn 0.7760 -0.2325 0.5864
vn -0.3452 -0.2999 0.8893
vn -0.7569 -0.4841 0.4391
vn -0.1094 -0.7245 0.6805
vn -0.3452 -0.2999 0.8893
vn 0.0072 -0.9492 0.3145
vn -0.3452 -0.2999 0.8893
vn 0.7760 -0.2325 0.5864
vn 0.9656 -0.1663 0.1999
vn 0.1340 0.2979 0.9451
vn 0.9327 0.3417 -0.1152
vn 0.1340 0.2979 0.9451
vn 0.9656 -0.1663 0.1999
vn -0.6097 0.5841 0.5358
vn -0.7569 -0.4841 0.4391
vn -0.3452 -0.2999 0.8893
vn -0.3565 -0.9028 -0.2405
vn 0.8923 -0.3878 0.2311
vn 0.9656 -0.1663 0.1999
vn 0.5743 0.7688 -0.2815
vn -0.3565 -0.9028 -0.2405
vn 0.0761 -0.3319 -0.9403
vn -0.7080 -0.6258 -0.3274
vn -0.3238 -0.7594 0.5644
vn 0.0072 -0.9492 0.3145
vn 0.7760 -0.2325 0.5864
vn -0.7569 -0.4841 0.4391
vn -0.3565 -0.9028 -0.2405
vn -0.7080 -0.6258 -0.3274
vn 0.8923 -0.3878 0.2311
vn 0.3360 -0.5841 0.7389
vn 0.9656 -0.1663 0.1999
vn 0.9656 -0.1663 0.1999
vn 0.6972 0.6997 -0.1562
vn 0.5743 0.7688 -0.2815
vn 0.1889 0.0575 -0.9803
vn 0.0761 -0.3319 -0.9403
vn -0.7792 0.4798 -0.4032
vn 0.1623 -0.5526 -0.8175
vn 0.2978 0.6633 -0.6865
vn 0.0761 -0.3319 -0.9403
vn -0.3238 -0.7594 0.5644
vn 0.1340 0.2979 0.9451
vn -0.6499 0.4216 0.6324
vn 0.0761 -0.3319 -0.9403
vn 0.2978 0.6633 -0.6865
vn -0.7792 0.4798 -0.4032
vn 0.9327 0.3417 -0.1152
vn 0.6972 0.6997 -0.1562
vn 0.9656 -0.1663 0.1999
vn 0.1623 -0.5526 -0.8175
vn 0.0761 -0.3319 -0.9403
vn -0.3565 -0.9028 -0.2405
vn 0.8733 0.2655 -0.4085
vn 0.7723 0.4311 -0.4667
vn 0.9327 0.3417 -0.1152
vn 0.1340 0.2979 0.9451
vn -0.6097 0.5841 0.5358
vn -0.6499 0.4216 0.6324
vn 0.1889 0.0575 -0.9803
vn -0.7792 0.4798 -0.4032
vn -0.0918 -0.7750 -0.6252
vn -0.6499 0.4216 0.6324
vn -0.6097 0.5841 0.5358
vn -0.7156 0.4489 0.5352
vn -0.7401 -0.5680 0.3600
vn -0.7156 0.4489 0.5352
vn -0.6097 0.5841 0.5358
vn 0.0116 -0.9456 0.3252
vn 0.9656 -0.1663 0.1999
vn 0.3360 -0.5841 0.7389
vn -0.3565 -0.9028 -0.2405
vn -0.3452 -0.2999 0.8893
vn -0.6645 -0.7439 -0.0712
vn -0.3452 -0.2999 0.8893
vn 0.0072 -0.9492 0.3145
vn -0.6645 -0.7439 -0.0712
vn -0.6097 0.5841 0.5358
vn 0.9656 -0.1663 0.1999
vn 0.0116 -0.9456 0.3252
vn 0.6972 0.6997 -0.1562
vn 0.9327 0.3417 -0.1152
vn 0.7723 0.4311 -0.4667
vn -0.9258 0.3107 -0.2152
vn -0.7792 0.4798 -0.4032
vn 0.2978 0.6633 -0.6865
vn 0.3360 -0.5841 0.7389
vn 0.8923 -0.3878 0.2311
vn 0.0844 0.6257 0.7755
vn -0.7401 -0.5680 0.3600
vn -0.6097 0.5841 0.5358
vn 0.0116 -0.9456 0.3252
vn 0.0072 -0.9492 0.3145
vn -0.7792 0.4798 -0.4032
vn -0.9258 0.3107 -0.2152
vn -0.6645 -0.7439 -0.0712
vn 0.0072 -0.9492 0.3145
vn -0.9258 0.3107 -0.2152
vn 0.1623 -0.5526 -0.8175
vn -0.3565 -0.9028 -0.2405
vn -0.6645 -0.7439 -0.0712
vn 0.8923 -0.3878 0.2311
vn 0.5743 0.7688 -0.2815
vn 0.0844 0.6257 0.7755
vn -0.2955 0.2492 -0.9223
vn 0.1889 0.0575 -0.9803
vn -0.0918 -0.7750 -0.6252
vn 0.0072 -0.9492 0.3145
vn -0.7143 -0.6998 0.0015
vn -0.7792 0.4798 -0.4032
vn -0.3238 -0.7594 0.5644
vn -0.6499 0.4216 0.6324
vn -0.7143 -0.6998 0.0015
vn 0.5743 0.7688 -0.2815
vn 0.6972 0.6997 -0.1562
vn -0.3229 0.8079 0.4930
vn 0.0844 0.6257 0.7755
vn 0.5743 0.7688 -0.2815
vn -0.3229 0.8079 0.4930
vn 0.1623 -0.5526 -0.8175
vn -0.9258 0.3107 -0.2152
vn 0.2978 0.6633 -0.6865
vn -0.7143 -0.6998 0.0015
vn 0.0072 -0.9492 0.3145
vn -0.3238 -0.7594 0.5644
vn -0.9258 0.3107 -0.2152
vn 0.1623 -0.5526 -0.8175
vn -0.6645 -0.7439 -0.0712
vn -0.7401 -0.5680 0.3600
vn -0.5550 -0.3852 0.7373
vn -0.7156 0.4489 0.5352
vn 0.0514 0.0630 -0.9967
vn 0.8733 0.2655 -0.4085
vn 0.1889 0.0575 -0.9803
vn -0.7143 -0.6998 0.0015
vn -0.6499 0.4216 0.6324
vn -0.7420 -0.5671 0.3575
vn -0.5550 -0.3852 0.7373
vn -0.7420 -0.5671 0.3575
vn -0.7156 0.4489 0.5352
vn -0.7420 -0.5671 0.3575
vn -0.7792 0.4798 -0.4032
vn -0.7143 -0.6998 0.0015
vn -0.0918 -0.7750 -0.6252
vn 0.3567 -0.4827 -0.7999
vn -0.2955 0.2492 -0.9223
vn -0.2955 0.2492 -0.9223
vn 0.0514 0.0630 -0.9967
vn 0.1889 0.0575 -0.9803
vn -0.7420 -0.5671 0.3575
vn -0.0918 -0.7750 -0.6252
vn -0.7792 0.4798 -0.4032
vn -0.7156 0.4489 0.5352
vn -0.7420 -0.5671 0.3575
vn -0.6499 0.4216 0.6324
vn 0.9094 0.3689 0.1922
vn 0.6972 0.6997 -0.1562
vn 0.7723 0.4311 -0.4667
vn -0.5550 -0.3852 0.7373
vn -0.7372 -0.1510 0.6586
vn -0.7420 -0.5671 0.3575
vn -0.5550 -0.3852 0.7373
vn -0.7401 -0.5680 0.3600
vn 0.0116 -0.9456 0.3252
vn -0.2955 0.2492 -0.9223
vn 0.3567 -0.4827 -0.7999
vn -0.0996 0.6575 -0.7468
vn 0.9442 -0.0312 0.3280
vn 0.6972 0.6997 -0.1562
vn 0.9094 0.3689 0.1922
vn -0.3229 0.8079 0.4930
vn 0.6972 0.6997 -0.1562
vn 0.5584 -0.0993 0.8236
vn -0.7372 -0.1510 0.6586
vn -0.2836 -0.7006 0.6548
vn -0.7420 -0.5671 0.3575
vn -0.7420 -0.5671 0.3575
vn -0.2836 -0.7006 0.6548
vn -0.0918 -0.7750 -0.6252
vn 0.0514 0.0630 -0.9967
vn -0.2955 0.2492 -0.9223
vn -0.5243 -0.2743 -0.8062
vn -0.7372 -0.1510 0.6586
vn -0.5550 -0.3852 0.7373
vn 0.0116 -0.9456 0.3252
vn -0.2836 -0.7006 0.6548
vn -0.5888 -0.7861 -0.1880
vn -0.0918 -0.7750 -0.6252
vn 0.3360 -0.5841 0.7389
vn -0.5087 -0.8016 -0.3141
vn 0.0116 -0.9456 0.3252
vn -0.2955 0.2492 -0.9223
vn -0.9361 0.2953 0.1913
vn -0.5243 -0.2743 -0.8062
vn -0.7372 -0.1510 0.6586
vn 0.0116 -0.9456 0.3252
vn -0.8891 -0.4510 0.0780
vn 0.5584 -0.0993 0.8236
vn 0.6972 0.6997 -0.1562
vn 0.9442 -0.0312 0.3280
vn -0.5087 -0.8016 -0.3141
vn 0.3360 -0.5841 0.7389
vn -0.3465 -0.7641 0.5441
vn -0.0996 0.6575 -0.7468
vn -0.9132 0.3881 -0.1247
vn -0.2955 0.2492 -0.9223
vn -0.5888 -0.7861 -0.1880
vn 0.3567 -0.4827 -0.7999
vn -0.0918 -0.7750 -0.6252
vn 0.7723 0.4311 -0.4667
vn 0.8733 0.2655 -0.4085
vn 0.0514 0.0630 -0.9967
vn -0.3229 0.8079 0.4930
vn 0.5584 -0.0993 0.8236
vn -0.4348 -0.5917 0.6788
vn -0.7372 -0.1510 0.6586
vn -0.5192 0.4656 0.7167
vn -0.2836 -0.7006 0.6548
vn -0.7306 0.3960 0.5562
vn 0.0844 0.6257 0.7755
vn -0.3229 0.8079 0.4930
vn -0.9361 0.2953 0.1913
vn -0.2955 0.2492 -0.9223
vn -0.9132 0.3881 -0.1247
vn 0.3360 -0.5841 0.7389
vn 0.0844 0.6257 0.7755
vn -0.7306 0.3960 0.5562
vn 0.7723 0.4311 -0.4667
vn 0.0514 0.0630 -0.9967
vn 0.0728 0.1480 -0.9863
vn -0.5285 -0.4751 0.7036
vn -0.9972 -0.0288 0.0692
vn -0.3229 0.8079 0.4930
vn -0.9361 0.2953 0.1913
vn -0.3936 -0.9054 -0.1590
vn -0.5243 -0.2743 -0.8062
vn 0.3360 -0.5841 0.7389
vn -0.7306 0.3960 0.5562
vn -0.3465 -0.7641 0.5441
vn -0.8891 -0.4510 0.0780
vn -0.9361 0.2953 0.1913
vn -0.7372 -0.1510 0.6586
vn 0.0116 -0.9456 0.3252
vn -0.5087 -0.8016 -0.3141
vn -0.8891 -0.4510 0.0780
vn -0.7372 -0.1510 0.6586
vn -0.9361 0.2953 0.1913
vn -0.9132 0.3881 -0.1247
vn -0.3229 0.8079 0.4930
vn -0.4348 -0.5917 0.6788
vn -0.5285 -0.4751 0.7036
vn -0.5888 -0.7861 -0.1880
vn -0.9132 0.3881 -0.1247
vn 0.3567 -0.4827 -0.7999
vn -0.7306 0.3960 0.5562
vn -0.3229 0.8079 0.4930
vn -0.9972 -0.0288 0.0692
vn 0.3567 -0.4827 -0.7999
vn -0.9132 0.3881 -0.1247
vn -0.0996 0.6575 -0.7468
vn -0.9361 0.2953 0.1913
vn -0.8891 -0.4510 0.0780
vn -0.3936 -0.9054 -0.1590
vn 0.0514 0.0630 -0.9967
vn -0.5243 -0.2743 -0.8062
vn -0.0478 -0.2441 -0.9686
vn -0.0478 -0.2441 -0.9686
vn -0.4707 0.3235 -0.8208
vn 0.0514 0.0630 -0.9967
vn -0.5192 0.4656 0.7167
vn -0.7372 -0.1510 0.6586
vn -0.9132 0.3881 -0.1247
vn -0.2760 -0.5324 0.8002
vn -0.5285 -0.4751 0.7036
vn -0.4348 -0.5917 0.6788
vn -0.5087 -0.8016 -0.3141
vn -0.9972 -0.0288 0.0692
vn -0.8891 -0.4510 0.0780
vn 0.9595 -0.2408 0.1459
vn 0.2638 -0.5550 0.7889
vn 0.9442 -0.0312 0.3280
vn -0.7306 0.3960 0.5562
vn -0.5087 -0.8016 -0.3141
vn -0.3465 -0.7641 0.5441
vn -0.5285 -0.4751 0.7036
vn -0.4349 -0.8688 0.2365
vn -0.9972 -0.0288 0.0692
vn -0.9132 0.3881 -0.1247
vn -0.2836 -0.7006 0.6548
vn -0.5192 0.4656 0.7167
vn -0.5072 -0.7356 -0.4490
vn -0.0478 -0.2441 -0.9686
vn -0.5243 -0.2743 -0.8062
vn -0.4707 0.3235 -0.8208
vn 0.0728 0.1480 -0.9863
vn 0.0514 0.0630 -0.9967
vn -0.9132 0.3881 -0.1247
vn -0.5888 -0.7861 -0.1880
vn -0.2836 -0.7006 0.6548
vn -0.0478 -0.2441 -0.9686
vn 0.2617 -0.4827 -0.8358
vn -0.4707 0.3235 -0.8208
vn 0.7723 0.4311 -0.4667
vn 0.0728 0.1480 -0.9863
vn 0.3433 0.0957 -0.9344
vn -0.9972 -0.0288 0.0692
vn -0.4349 -0.8688 0.2365
vn -0.8891 -0.4510 0.0780
vn 0.0335 -0.6546 0.7553
vn 0.2638 -0.5550 0.7889
vn 0.9595 -0.2408 0.1459
vn -0.5243 -0.2743 -0.8062
vn -0.3936 -0.9054 -0.1590
vn -0.5072 -0.7356 -0.4490
vn -0.8891 -0.4510 0.0780
vn -0.5072 -0.7356 -0.4490
vn -0.3936 -0.9054 -0.1590
vn 0.8646 0.5009 0.0385
vn 0.9595 -0.2408 0.1459
vn 0.9442 -0.0312 0.3280
vn 0.5584 -0.0993 0.8236
vn 0.2638 -0.5550 0.7889
vn 0.4946 -0.3754 0.7839
vn 0.5584 -0.0993 0.8236
vn 0.4946 -0.3754 0.7839
vn -0.4348 -0.5917 0.6788
vn -0.4348 -0.5917 0.6788
vn 0.4946 -0.3754 0.7839
vn 0.1004 -0.7145 0.6924
vn -0.5087 -0.8016 -0.3141
vn -0.7306 0.3960 0.5562
vn -0.9972 -0.0288 0.0692
vn 0.7419 0.4797 0.4686
vn 0.9595 -0.2408 0.1459
vn 0.8646 0.5009 0.0385
vn 0.9442 -0.0312 0.3280
vn 0.2638 -0.5550 0.7889
vn 0.5584 -0.0993 0.8236
vn -0.2760 -0.5324 0.8002
vn -0.4348 -0.5917 0.6788
vn 0.1004 -0.7145 0.6924
vn 0.7419 0.4797 0.4686
vn 0.0335 -0.6546 0.7553
vn 0.9595 -0.2408 0.1459
vn -0.7013 -0.6266 -0.3399
vn -0.5072 -0.7356 -0.4490
vn -0.8891 -0.4510 0.0780
vn 0.7419 0.4797 0.4686
vn -0.1728 -0.1373 0.9753
vn 0.0335 -0.6546 0.7553
vn 0.9442 -0.0312 0.3280
vn 0.9094 0.3689 0.1922
vn 0.8646 0.5009 0.0385
vn 0.2617 -0.4827 -0.8358
vn 0.2718 0.7087 -0.6511
vn -0.4707 0.3235 -0.8208
vn 0.0728 0.1480 -0.9863
vn -0.4707 0.3235 -0.8208
vn -0.3910 -0.1949 -0.8995
vn -0.0478 -0.2441 -0.9686
vn -0.5072 -0.7356 -0.4490
vn -0.7013 -0.6266 -0.3399
vn 0.4946 -0.3754 0.7839
vn -0.8690 -0.4757 0.1362
vn 0.1004 -0.7145 0.6924
vn -0.5285 -0.4751 0.7036
vn -0.3374 -0.8221 0.4585
vn -0.4349 -0.8688 0.2365
vn 0.6343 0.6724 -0.3815
vn 0.9094 0.3689 0.1922
vn 0.7723 0.4311 -0.4667
vn -0.8891 -0.4510 0.0780
vn -0.4349 -0.8688 0.2365
vn -0.7013 -0.6266 -0.3399
vn 0.1004 -0.7145 0.6924
vn -0.8690 -0.4757 0.1362
vn -0.2760 -0.5324 0.8002
vn -0.5285 -0.4751 0.7036
vn -0.2760 -0.5324 0.8002
vn -0.3374 -0.8221 0.4585
vn 0.2638 -0.5550 0.7889
vn 0.0335 -0.6546 0.7553
vn -0.1728 -0.1373 0.9753
vn 0.2617 -0.4827 -0.8358
vn -0.0478 -0.2441 -0.9686
vn -0.7013 -0.6266 -0.3399
vn -0.3910 -0.1949 -0.8995
vn 0.3433 0.0957 -0.9344
vn 0.0728 0.1480 -0.9863
vn -0.3374 -0.8221 0.4585
vn -0.7013 -0.6266 -0.3399
vn -0.4349 -0.8688 0.2365
vn -0.4707 0.3235 -0.8208
vn -0.7482 0.3840 -0.5411
vn -0.9520 0.2899 -0.0986
vn -0.3910 -0.1949 -0.8995
vn -0.4707 0.3235 -0.8208
vn -0.4389 -0.7871 -0.4334
vn -0.4389 -0.7871 -0.4334
vn -0.4707 0.3235 -0.8208
vn -0.7431 0.5959 -0.3046
vn -0.1247 -0.8053 0.5796
vn -0.8690 -0.4757 0.1362
vn 0.4946 -0.3754 0.7839
vn -0.3374 -0.8221 0.4585
vn -0.2760 -0.5324 0.8002
vn -0.8690 -0.4757 0.1362
vn -0.4707 0.3235 -0.8208
vn -0.9520 0.2899 -0.0986
vn -0.7431 0.5959 -0.3046
vn -0.4707 0.3235 -0.8208
vn 0.2718 0.7087 -0.6511
vn -0.7482 0.3840 -0.5411
vn -0.7482 0.3840 -0.5411
vn 0.2718 0.7087 -0.6511
vn 0.2617 -0.4827 -0.8358
vn 0.4946 -0.3754 0.7839
vn 0.2638 -0.5550 0.7889
vn -0.1247 -0.8053 0.5796
vn 0.9094 0.3689 0.1922
vn 0.6343 0.6724 -0.3815
vn 0.7668 0.5648 0.3049
vn 0.2617 -0.4827 -0.8358
vn -0.7013 -0.6266 -0.3399
vn -0.9520 0.2899 -0.0986
vn 0.7668 0.5648 0.3049
vn 0.8646 0.5009 0.0385
vn 0.9094 0.3689 0.1922
vn -0.9845 -0.1600 0.0722
vn -0.4389 -0.7871 -0.4334
vn -0.7431 0.5959 -0.3046
vn -0.7482 0.3840 -0.5411
vn 0.2617 -0.4827 -0.8358
vn -0.9520 0.2899 -0.0986
vn -0.1728 -0.1373 0.9753
vn 0.7419 0.4797 0.4686
vn 0.6210 0.4519 0.6404
vn -0.4389 -0.7871 -0.4334
vn -0.9845 -0.1600 0.0722
vn -0.9613 -0.2711 -0.0489
vn -0.3472 -0.6959 -0.6287
vn -0.3910 -0.1949 -0.8995
vn -0.4389 -0.7871 -0.4334
vn -0.9613 -0.2711 -0.0489
vn -0.9845 -0.1600 0.0722
vn -0.3374 -0.8221 0.4585
vn 0.7419 0.4797 0.4686
vn 0.8646 0.5009 0.0385
vn 0.6210 0.4519 0.6404
vn -0.9520 0.2899 -0.0986
vn -0.3374 -0.8221 0.4585
vn -0.9845 -0.1600 0.0722
vn 0.0493 -0.4805 -0.8756
vn 0.3433 0.0957 -0.9344
vn -0.5080 -0.0149 -0.8612
vn -0.7013 -0.6266 -0.3399
vn -0.3374 -0.8221 0.4585
vn -0.9520 0.2899 -0.0986
vn 0.3433 0.0957 -0.9344
vn -0.3910 -0.1949 -0.8995
vn -0.5080 -0.0149 -0.8612
vn -0.7431 0.5959 -0.3046
vn -0.9520 0.2899 -0.0986
vn -0.9845 -0.1600 0.0722
vn -0.0489 0.7850 -0.6176
vn 0.7723 0.4311 -0.4667
vn 0.3433 0.0957 -0.9344
vn -0.3910 -0.1949 -0.8995
vn -0.3472 -0.6959 -0.6287
vn -0.3235 0.5500 -0.7699
vn 0.1571 -0.1453 0.9768
vn -0.1247 -0.8053 0.5796
vn 0.2638 -0.5550 0.7889
vn 0.2638 -0.5550 0.7889
vn -0.2317 -0.1270 0.9645
vn 0.1571 -0.1453 0.9768
vn -0.3910 -0.1949 -0.8995
vn -0.3235 0.5500 -0.7699
vn -0.5080 -0.0149 -0.8612
vn 0.7723 0.4311 -0.4667
vn -0.0489 0.7850 -0.6176
vn 0.6343 0.6724 -0.3815
vn -0.1728 -0.1373 0.9753
vn -0.2317 -0.1270 0.9645
vn 0.2638 -0.5550 0.7889
vn -0.1728 -0.1373 0.9753
vn 0.6210 0.4519 0.6404
vn -0.2317 -0.1270 0.9645
vn -0.3374 -0.8221 0.4585
vn -0.8690 -0.4757 0.1362
vn -0.9613 -0.2711 -0.0489
vn -0.3472 -0.6959 -0.6287
vn -0.4389 -0.7871 -0.4334
vn -0.9613 -0.2711 -0.0489
vn 0.3433 0.0957 -0.9344
vn 0.0493 -0.4805 -0.8756
vn -0.0489 0.7850 -0.6176
vn -0.2531 -0.4549 0.8538
vn -0.8690 -0.4757 0.1362
vn -0.1247 -0.8053 0.5796
vn -0.3472 -0.6959 -0.6287
vn -0.7289 -0.2677 -0.6301
vn -0.3235 0.5500 -0.7699
vn -0.3472 -0.6959 -0.6287
vn -0.9613 -0.2711 -0.0489
vn -0.7289 -0.2677 -0.6301
vn -0.4618 -0.8622 0.2081
vn -0.8690 -0.4757 0.1362
vn -0.2531 -0.4549 0.8538
vn -0.2531 -0.4549 0.8538
vn -0.1247 -0.8053 0.5796
vn 0.1571 -0.1453 0.9768
vn -0.2317 -0.1270 0.9645
vn -0.1388 0.1438 0.9798
vn 0.1571 -0.1453 0.9768
vn -0.0489 0.7850 -0.6176
vn 0.0493 -0.4805 -0.8756
vn -0.7289 -0.1768 -0.6614
vn -0.7289 -0.2677 -0.6301
vn -0.5080 -0.0149 -0.8612
vn -0.3235 0.5500 -0.7699
vn -0.4618 -0.8622 0.2081
vn -0.2531 -0.4549 0.8538
vn -0.3935 -0.7223 0.5687
vn -0.9613 -0.2711 -0.0489
vn -0.6389 -0.7665 -0.0657
vn -0.7289 -0.2677 -0.6301
vn -0.8690 -0.4757 0.1362
vn -0.6389 -0.7665 -0.0657
vn -0.9613 -0.2711 -0.0489
vn 0.1571 -0.1453 0.9768
vn -0.1388 0.1438 0.9798
vn 0.3634 0.6920 0.6237
vn -0.8690 -0.4757 0.1362
vn -0.4618 -0.8622 0.2081
vn -0.6389 -0.7665 -0.0657
vn 0.8646 0.5009 0.0385
vn 0.6411 0.5822 0.5000
vn 0.6210 0.4519 0.6404
vn -0.2317 -0.1270 0.9645
vn 0.1004 0.1703 0.9803
vn -0.1388 0.1438 0.9798
vn -0.6389 -0.7665 -0.0657
vn -0.4618 -0.8622 0.2081
vn -0.3845 -0.7994 -0.4616
vn -0.3845 -0.7994 -0.4616
vn -0.7289 -0.2677 -0.6301
vn -0.6389 -0.7665 -0.0657
vn 0.6411 0.5822 0.5000
vn 0.8646 0.5009 0.0385
vn 0.7668 0.5648 0.3049
vn -0.7289 -0.1768 -0.6614
vn 0.0493 -0.4805 -0.8756
vn -0.5080 -0.0149 -0.8612
vn -0.2317 -0.1270 0.9645
vn 0.6210 0.4519 0.6404
vn 0.1004 0.1703 0.9803
vn -0.0924 -0.8802 0.4655
vn -0.3845 -0.7994 -0.4616
vn -0.4618 -0.8622 0.2081
vn -0.7289 -0.2677 -0.6301
vn -0.7954 0.0371 -0.6050
vn -0.5080 -0.0149 -0.8612
vn 0.1571 -0.1453 0.9768
vn -0.4985 -0.3744 0.7819
vn -0.2531 -0.4549 0.8538
vn -0.0489 0.7850 -0.6176
vn -0.7954 0.0371 -0.6050
vn 0.6343 0.6724 -0.3815
vn 0.6411 0.5822 0.5000
vn 0.1859 0.6921 0.6974
vn 0.6210 0.4519 0.6404
vn -0.4618 -0.8622 0.2081
vn -0.3935 -0.7223 0.5687
vn -0.0924 -0.8802 0.4655
vn 0.7668 0.5648 0.3049
vn 0.6343 0.6724 -0.3815
vn 0.7973 0.5804 0.1658
vn -0.7289 -0.1768 -0.6614
vn -0.7611 0.5177 -0.3909
vn -0.0489 0.7850 -0.6176
vn -0.7954 0.0371 -0.6050
vn -0.0489 0.7850 -0.6176
vn -0.7611 0.5177 -0.3909
vn -0.4985 -0.3744 0.7819
vn -0.3935 -0.7223 0.5687
vn -0.2531 -0.4549 0.8538
vn -0.5080 -0.0149 -0.8612
vn -0.7611 0.5177 -0.3909
vn -0.7289 -0.1768 -0.6614
vn 0.6343 0.6724 -0.3815
vn 0.5580 0.6413 -0.5266
vn 0.7973 0.5804 0.1658
vn -0.5080 -0.0149 -0.8612
vn -0.7954 0.0371 -0.6050
vn -0.7611 0.5177 -0.3909
vn -0.4985 -0.3744 0.7819
vn 0.1571 -0.1453 0.9768
vn 0.3634 0.6920 0.6237
vn 0.0854 0.0305 0.9959
vn -0.4985 -0.3744 0.7819
vn -0.1388 0.1438 0.9798
vn 0.3634 0.6920 0.6237
vn -0.1388 0.1438 0.9798
vn -0.4985 -0.3744 0.7819
vn -0.7083 -0.5685 0.4185
vn -0.3935 -0.7223 0.5687
vn -0.4985 -0.3744 0.7819
vn 0.7973 0.5804 0.1658
vn 0.6411 0.5822 0.5000
vn 0.7668 0.5648 0.3049
vn -0.8699 -0.4933 0.0002
vn -0.3845 -0.7994 -0.4616
vn -0.0924 -0.8802 0.4655
vn -0.1388 0.1438 0.9798
vn 0.1004 0.1703 0.9803
vn 0.0854 0.0305 0.9959
vn 0.1859 0.6921 0.6974
vn 0.1004 0.1703 0.9803
vn 0.6210 0.4519 0.6404
vn -0.0924 -0.8802 0.4655
vn -0.3935 -0.7223 0.5687
vn -0.8699 -0.4933 0.0002
vn -0.7289 -0.2677 -0.6301
vn -0.4114 -0.0412 -0.9105
vn -0.7954 0.0371 -0.6050
vn -0.8699 -0.4933 0.0002
vn -0.8788 -0.4355 -0.1949
vn -0.3845 -0.7994 -0.4616
vn -0.7289 -0.2677 -0.6301
vn -0.3845 -0.7994 -0.4616
vn -0.4114 -0.0412 -0.9105
vn 0.1004 0.1703 0.9803
vn 0.1859 0.6921 0.6974
vn 0.6411 0.5822 0.5000
vn -0.8699 -0.4933 0.0002
vn -0.3935 -0.7223 0.5687
vn -0.3461 -0.7689 0.5377
vn -0.4114 -0.0412 -0.9105
vn -0.3845 -0.7994 -0.4616
vn -0.7466 -0.3483 -0.5669
vn -0.3935 -0.7223 0.5687
vn -0.7083 -0.5685 0.4185
vn -0.3461 -0.7689 0.5377
vn -0.5718 0.5453 -0.6129
vn 0.6343 0.6724 -0.3815
vn -0.7954 0.0371 -0.6050
vn -0.3845 -0.7994 -0.4616
vn -0.8788 -0.4355 -0.1949
vn -0.7466 -0.3483 -0.5669
vn -0.7954 0.0371 -0.6050
vn -0.4114 -0.0412 -0.9105
vn -0.7724 0.2400 -0.5881
vn 0.5580 0.6413 -0.5266
vn 0.6343 0.6724 -0.3815
vn -0.5718 0.5453 -0.6129
vn -0.5963 0.5112 0.6189
vn 0.0854 0.0305 0.9959
vn 0.1004 0.1703 0.9803
vn 0.0854 0.0305 0.9959
vn -0.5831 0.2953 0.7569
vn -0.4985 -0.3744 0.7819
vn -0.3461 -0.7689 0.5377
vn -0.8442 -0.5304 -0.0772
vn -0.8699 -0.4933 0.0002
vn -0.0720 0.7049 -0.7056
vn -0.4114 -0.0412 -0.9105
vn -0.9141 0.2776 -0.2955
vn -0.7466 -0.3483 -0.5669
vn -0.9141 0.2776 -0.2955
vn -0.4114 -0.0412 -0.9105
vn 0.5580 0.6413 -0.5266
vn -0.5718 0.5453 -0.6129
vn -0.6212 0.2123 -0.7544
vn -0.8699 -0.4933 0.0002
vn -0.8442 -0.5304 -0.0772
vn -0.8788 -0.4355 -0.1949
vn -0.7466 -0.3483 -0.5669
vn -0.8788 -0.4355 -0.1949
vn -0.8442 -0.5304 -0.0772
vn -0.7724 0.2400 -0.5881
vn -0.4114 -0.0412 -0.9105
vn -0.0720 0.7049 -0.7056
vn 0.1004 0.1703 0.9803
vn -0.4442 -0.2110 0.8707
vn -0.5963 0.5112 0.6189
vn -0.8442 -0.5304 -0.0772
vn -0.3461 -0.7689 0.5377
vn -0.7083 -0.5685 0.4185
vn 0.0854 0.0305 0.9959
vn -0.5963 0.5112 0.6189
vn -0.5831 0.2953 0.7569
vn -0.4985 -0.3744 0.7819
vn -0.5831 0.2953 0.7569
vn -0.7083 -0.5685 0.4185
vn 0.3319 0.9041 -0.2692
vn 0.6411 0.5822 0.5000
vn 0.7973 0.5804 0.1658
vn 0.5580 0.6413 -0.5266
vn 0.3319 0.9041 -0.2692
vn 0.7973 0.5804 0.1658
vn -0.7954 0.0371 -0.6050
vn -0.7724 0.2400 -0.5881
vn -0.6212 0.2123 -0.7544
vn -0.7083 -0.5685 0.4185
vn -0.5159 -0.8498 0.1084
vn -0.8442 -0.5304 -0.0772
vn -0.5963 0.5112 0.6189
vn -0.9882 0.1322 -0.0768
vn -0.8195 0.2361 0.5221
vn -0.8719 -0.4427 0.2092
vn -0.9882 0.1322 -0.0768
vn -0.5963 0.5112 0.6189
vn -0.5963 0.5112 0.6189
vn -0.6382 -0.5177 0.5698
vn -0.8719 -0.4427 0.2092
vn -0.8195 0.2361 0.5221
vn -0.5831 0.2953 0.7569
vn -0.5963 0.5112 0.6189
vn 0.2344 0.7601 0.6061
vn 0.6411 0.5822 0.5000
vn 0.3319 0.9041 -0.2692
vn -0.8442 -0.5304 -0.0772
vn -0.9141 0.2776 -0.2955
vn -0.7466 -0.3483 -0.5669
vn -0.6212 0.2123 -0.7544
vn -0.5718 0.5453 -0.6129
vn -0.7954 0.0371 -0.6050
vn 0.1004 0.1703 0.9803
vn 0.6411 0.5822 0.5000
vn -0.4442 -0.2110 0.8707
vn 0.2344 0.7601 0.6061
vn -0.4442 -0.2110 0.8707
vn 0.6411 0.5822 0.5000
vn 0.5580 0.6413 -0.5266
vn -0.5733 0.5377 -0.6182
vn 0.3319 0.9041 -0.2692
vn -0.8195 0.2361 0.5221
vn -0.7083 -0.5685 0.4185
vn -0.5831 0.2953 0.7569
vn -0.8719 -0.4427 0.2092
vn -0.6382 -0.5177 0.5698
vn -0.2127 -0.7908 0.5740
vn -0.5963 0.5112 0.6189
vn -0.6600 -0.3392 0.6703
vn -0.6382 -0.5177 0.5698
vn -0.6600 -0.3392 0.6703
vn -0.5963 0.5112 0.6189
vn -0.4442 -0.2110 0.8707
vn -0.2127 -0.7908 0.5740
vn -0.6382 -0.5177 0.5698
vn -0.6600 -0.3392 0.6703
vn -0.0720 0.7049 -0.7056
vn -0.9882 0.1322 -0.0768
vn -0.7724 0.2400 -0.5881
vn -0.5733 0.5377 -0.6182
vn 0.5580 0.6413 -0.5266
vn -0.6212 0.2123 -0.7544
vn -0.9882 0.1322 -0.0768
vn -0.6212 0.2123 -0.7544
vn -0.7724 0.2400 -0.5881
vn 0.2344 0.7601 0.6061
vn 0.3319 0.9041 -0.2692
vn -0.4737 0.5108 0.7174
vn -0.7083 -0.5685 0.4185
vn -0.8195 0.2361 0.5221
vn -0.5159 -0.8498 0.1084
vn -0.6212 0.2123 -0.7544
vn -0.9882 0.1322 -0.0768
vn -0.8023 -0.0926 -0.5897
vn -0.6212 0.2123 -0.7544
vn -0.8023 -0.0926 -0.5897
vn -0.5733 0.5377 -0.6182
vn -0.9882 0.1322 -0.0768
vn -0.9756 0.2167 -0.0343
vn -0.8195 0.2361 0.5221
vn -0.9882 0.1322 -0.0768
vn -0.9141 0.2776 -0.2955
vn -0.8442 -0.5304 -0.0772
vn -0.9141 0.2776 -0.2955
vn -0.9882 0.1322 -0.0768
vn -0.0720 0.7049 -0.7056
vn -0.9756 0.2167 -0.0343
vn -0.9882 0.1322 -0.0768
vn -0.8442 -0.5304 -0.0772
vn -0.5733 0.5377 -0.6182
vn -0.4737 0.5108 0.7174
vn 0.3319 0.9041 -0.2692
vn -0.5159 -0.8498 0.1084
vn -0.8195 0.2361 0.5221
vn -0.9756 0.2167 -0.0343
vn -0.9756 0.2167 -0.0343
vn -0.8442 -0.5304 -0.0772
vn -0.5159 -0.8498 0.1084
vn -0.0581 -0.9949 0.0823
vn -0.8719 -0.4427 0.2092
vn -0.2127 -0.7908 0.5740
vn -0.8023 -0.0926 -0.5897
vn -0.9882 0.1322 -0.0768
vn -0.8719 -0.4427 0.2092
vn -0.1092 0.0963 0.9893
vn -0.2127 -0.7908 0.5740
vn -0.6600 -0.3392 0.6703
vn -0.1092 0.0963 0.9893
vn -0.0581 -0.9949 0.0823
vn -0.2127 -0.7908 0.5740
vn 0.2344 0.7601 0.6061
vn -0.4737 0.5108 0.7174
vn -0.4442 -0.2110 0.8707
vn -0.8719 -0.4427 0.2092
vn -0.0581 -0.9949 0.0823
vn -0.2229 0.0577 -0.9731
vn -0.4737 0.5108 0.7174
vn -0.6600 -0.3392 0.6703
vn -0.4442 -0.2110 0.8707
vn -0.8719 -0.4427 0.2092
vn -0.2229 0.0577 -0.9731
vn -0.8023 -0.0926 -0.5897
vn -0.2229 0.0577 -0.9731
vn -0.0581 -0.9949 0.0823
vn 0.7252 -0.1510 -0.6717
vn -0.4737 0.5108 0.7174
vn -0.7735 0.3035 0.5564
vn -0.6600 -0.3392 0.6703
vn -0.8023 -0.0926 -0.5897
vn -0.2229 0.0577 -0.9731
vn -0.6634 0.7134 -0.2256
vn -0.6634 0.7134 -0.2256
vn -0.5733 0.5377 -0.6182
vn -0.8023 -0.0926 -0.5897
vn -0.6600 -0.3392 0.6703
vn -0.7735 0.3035 0.5564
vn -0.1092 0.0963 0.9893
vn -0.5733 0.5377 -0.6182
vn -0.6634 0.7134 -0.2256
vn -0.4737 0.5108 0.7174
vn 0.7252 -0.1510 -0.6717
vn -0.0581 -0.9949 0.0823
vn 0.5811 -0.8095 0.0837
vn -0.8847 0.3695 -0.2841
vn -0.7735 0.3035 0.5564
vn -0.4737 0.5108 0.7174
vn -0.0581 -0.9949 0.0823
vn -0.1092 0.0963 0.9893
vn 0.5811 -0.8095 0.0837
vn -0.8847 0.3695 -0.2841
vn -0.4737 0.5108 0.7174
vn -0.6634 0.7134 -0.2256
vn -0.1092 0.0963 0.9893
vn -0.8847 0.3695 -0.2841
vn -0.2229 0.0577 -0.9731
vn -0.8847 0.3695 -0.2841
vn -0.6634 0.7134 -0.2256
vn -0.2229 0.0577 -0.9731
vn -0.1092 0.0963 0.9893
vn -0.7735 0.3035 0.5564
vn -0.8847 0.3695 -0.2841
vn 0.2290 0.1252 0.9654
vn 0.4819 -0.7277 0.4880
vn -0.1092 0.0963 0.9893
vn 0.7252 -0.1510 -0.6717
vn 0.5811 -0.8095 0.0837
vn 0.4819 -0.7277 0.4880
vn -0.2229 0.0577 -0.9731
vn 0.7252 -0.1510 -0.6717
vn 0.0904 0.8315 -0.5480
vn 0.5811 -0.8095 0.0837
vn -0.1092 0.0963 0.9893
vn 0.4819 -0.7277 0.4880
vn 0.7869 0.1154 0.6062
vn 0.7252 -0.1510 -0.6717
vn 0.3065 -0.0202 0.9517
vn -0.4534 0.7810 0.4294
vn -0.1092 0.0963 0.9893
vn -0.2229 0.0577 -0.9731
vn 0.4819 -0.7277 0.4880
vn 0.2290 0.1252 0.9654
vn 0.3065 -0.0202 0.9517
vn -0.1092 0.0963 0.9893
vn -0.4534 0.7810 0.4294
vn 0.2290 0.1252 0.9654
vn 0.4819 -0.7277 0.4880
vn 0.3065 -0.0202 0.9517
vn 0.7252 -0.1510 -0.6717
vn 0.0904 0.8315 -0.5480
vn -0.5742 0.5685 -0.5892
vn -0.4534 0.7810 0.4294
vn -0.2229 0.0577 -0.9731
vn 0.0904 0.8315 -0.5480
vn -0.4534 0.7810 0.4294
vn 0.2290 0.1252 0.9654
vn -0.4534 0.7810 0.4294
vn -0.1499 0.4597 0.8753
vn 0.3065 -0.0202 0.9517
vn 0.7457 -0.2647 0.6114
vn 0.7869 0.1154 0.6062
vn 0.2290 0.1252 0.9654
vn -0.1499 0.4597 0.8753
vn 0.3065 -0.0202 0.9517
vn 0.3065 -0.0202 0.9517
vn -0.1499 0.4597 0.8753
vn -0.2263 0.5517 0.8028
vn -0.5885 0.5497 0.5929
vn -0.1499 0.4597 0.8753
vn -0.4534 0.7810 0.4294
vn -0.2263 0.5517 0.8028
vn -0.1499 0.4597 0.8753
vn -0.5885 0.5497 0.5929
vn -0.4534 0.7810 0.4294
vn -0.5742 0.5685 -0.5892
vn -0.5885 0.5497 0.5929
vn 0.0000 1.0000 0.0000
vn 0.0000 1.0000 0.0000
vn 0.0000 1.0000 0.0000
vn 0.0000 1.0000 0.0000
vn 0.0000 1.0000 0.0000
vn 0.0000 1.0000 0.0000
vn 0.0000 1.0000 0.0000
vn 0.0000 1.0000 0.0000
vn 0.0000 1.0000 0.0000
f 1/1/1 2/2/2 3/3/3
f 4/4/4 5/5/5 6/6/6
f 7/7/7 8/8/8 9/9/9
f 10/10/10 11/11/11 12/12/12
f 13/13/13 14/14/14 15/15/15
f 16/16/16 17/17/17 18/18/18
f 19/19/19 20/20/20 21/21/21
f 22/22/22 23/23/23 24/24/24
f 25/25/25 26/26/26 27/27/27
f 28/28/28 29/29/29 30/30/30
f 31/31/31 32/32/32 33/33/33
f 34/34/34 35/35/35 36/36/36
f 37/37/37 38/38/38 39/39/39
f 40/40/40 41/41/41 42/42/42
f 43/43/43 44/44/44 45/45/45
f 46/46/46 47/47/47 48/48/48
f 49/49/49 50/50/50 51/51/51
f 52/52/52 53/53/53 54/54/54
f 55/55/55 56/56/56 57/57/57
f 58/58/58 59/59/59 60/60/60
f 61/61/61 62/62/62 63/63/63
f 64/64/64 65/65/65 66/66/66
f 67/67/67 68/68/68 69/69/69
f 70/70/70 71/71/71 72/72/72
f 73/73/73 74/74/74 75/75/75
f 76/76/76 77/77/77 78/78/78
f 79/79/79 80/80/80 81/81/81
f 82/82/82 83/83/83 84/84/84
f 85/85/85 86/86/86 87/87/87
f 88/88/88 89/89/89 90/90/90
f 91/91/91 92/92/92 93/93/93
f 94/94/94 95/95/95 96/96/96
f 97/97/97 98/98/98 99/99/99
f 100/100/100 101/101/101 102/102/102
f 103/103/103 104/104/104 105/105/105
f 106/106/106 107/107/107 108/108/108
f 109/109/109 110/110/110 111/111/111
f 112/112/112 113/113/113 114/114/114
f 115/115/115 116/116/116 117/117/117
f 118/118/118 119/119/119 120/120/120
f 121/121/121 122/122/122 123/123/123
f 124/124/124 125/125/125 126/126/126
f 127/127/127 128/128/128 129/129/129
f 130/130/130 131/131/131 132/132/132
f 133/133/133 134/134/134 135/135/135
f 136/136/136 137/137/137 138/138/138
f 139/139/139 140/140/140 141/141/141
f 142/142/142 143/143/143 144/144/144
f 145/145/145 146/146/146 147/147/147
f 148/148/148 149/149/149 150/150/150
f 151/151/151 152/152/152 153/153/153
f 154/154/154 155/155/155 156/156/156
f 157/157/157 158/158/158 159/159/159
f 160/160/160 161/161/161 162/162/162
f 163/163/163 164/164/164 165/165/165
f 166/166/166 167/167/167 168/168/168
f 169/169/169 170/170/170 171/171/171
f 172/172/172 173/173/173 174/174/174
f 175/175/175 176/176/176 177/177/177
f 178/178/178 179/179/179 180/180/180
f 181/181/181 182/182/182 183/183/183
f 184/184/184 185/185/185 186/186/186
f 187/187/187 188/188/188 189/189/189
f 190/190/190 191/191/191 192/192/192
f 193/193/193 194/194/194 195/195/195
f 196/196/196 197/197/197 198/198/198
f 199/199/199 200/200/200 201/201/201
f 202/202/202 203/203/203 204/204/204
f 205/205/205 206/206/206 207/207/207
f 208/208/208 209/209/209 210/210/210
f 211/211/211 212/212/212 213/213/213
f 214/214/214 215/215/215 216/216/216
f 217/217/217 218/218/218 219/219/219
f 220/220/220 221/221/221 222/222/222
f 223/223/223 224/224/224 225/225/225
f 226/226/226 227/227/227 228/228/228
f 229/229/229 230/230/230 231/231/231
f 232/232/232 233/233/233 234/234/234
f 235/235/235 236/236/236 237/237/237
f 238/238/238 239/239/239 240/240/240
f 241/241/241 242/242/242 243/243/243
f 244/244/244 245/245/245 246/246/246
f 247/247/247 248/248/248 249/249/249
f 250/250/250 251/251/251 252/252/252
f 253/253/253 254/254/254 255/255/255
f 256/256/256 257/257/257 258/258/258
f 259/259/259 260/260/260 261/261/261
f 262/262/262 263/263/263 264/264/264
f 265/265/265 266/266/266 267/267/267
f 268/268/268 269/269/269 270/270/270
f 271/271/271 272/272/272 273/273/273
f 274/274/274 275/275/275 276/276/276
f 277/277/277 278/278/278 279/279/279
f 280/280/280 281/281/281 282/282/282
f 283/283/283 284/284/284 285/285/285
f 286/286/286 287/287/287 288/288/288
f 289/289/289 290/290/290 291/291/291
f 292/292/292 293/293/293 294/294/294
f 295/295/295 296/296/296 297/297/297
f 298/298/298 299/299/299 300/300/300
f 301/301/301 302/302/302 303/303/303
f 304/304/304 305/305/305 306/306/306
f 307/307/307 308/308/308 309/309/309
f 310/310/310 311/311/311 312/312/312
f 313/313/313 314/314/314 315/315/315
f 316/316/316 317/317/317 318/318/318
f 319/319/319 320/320/320 321/321/321
f 322/322/322 323/323/323 324/324/324
f 325/325/325 326/326/326 327/327/327
f 328/328/328 329/329/329 330/330/330
f 331/331/331 332/332/332 333/333/333
f 334/334/334 335/335/335 336/336/336
f 337/337/337 338/338/338 339/339/339
f 340/340/340 341/341/341 342/342/342
f 343/343/343 344/344/344 345/345/345
f 346/346/346 347/347/347 348/348/348
f 349/349/349 350/350/350 351/351/351
f 352/352/352 353/353/353 354/354/354
f 355/355/355 356/356/356 357/357/357
f 358/358/358 359/359/359 360/360/360
f 361/361/361 362/362/362 363/363/363
f 364/364/364 365/365/365 366/366/366
f 367/367/367 368/368/368 369/369/369
f 370/370/370 371/371/371 372/372/372
f 373/373/373 374/374/374 375/375/375
f 376/376/376 377/377/377 378/378/378
f 379/379/379 380/380/380 381/381/381
f 382/382/382 383/383/383 384/384/384
f 385/385/385 386/386/386 387/387/387
f 388/388/388 389/389/389 390/390/390
f 391/391/391 392/392/392 393/393/393
f 394/394/394 395/395/395 396/396/396
f 397/397/397 398/398/398 399/399/399
f 400/400/400 401/401/401 402/402/402
f 403/403/403 404/404/404 405/405/405
f 406/406/406 407/407/407 408/408/408
f 409/409/409 410/410/410 411/411/411
f 412/412/412 413/413/413 414/414/414
f 415/415/415 416/416/416 417/417/417
f 418/418/418 419/419/419 420/420/420
f 421/421/421 422/422/422 423/423/423
f 424/424/424 425/425/425 426/426/426
f 427/427/427 428/428/428 429/429/429
f 430/430/430 431/431/431 432/432/432
f 433/433/433 434/434/434 435/435/435
f 436/436/436 437/437/437 438/438/438
f 439/439/439 440/440/440 441/441/441
f 442/442/442 443/443/443 444/444/444
f 445/445/445 446/446/446 447/447/447
f 448/448/448 449/449/449 450/450/450
f 451/451/451 452/452/452 453/453/453
f 454/454/454 455/455/455 456/456/456
f 457/457/457 458/458/458 459/459/459
f 460/460/460 461/461/461 462/462/462
f 463/463/463 464/464/464 465/465/465
f 466/466/466 467/467/467 468/468/468
f 469/469/469 470/470/470 471/471/471
f 472/472/472 473/473/473 474/474/474
f 475/475/475 476/476/476 477/477/477
f 478/478/478 479/479/479 480/480/480
f 481/481/481 482/482/482 483/483/483
f 484/484/484 485/485/485 486/486/486
f 487/487/487 488/488/488 489/489/489
f 490/490/490 491/491/491 492/492/492
f 493/493/493 494/494/494 495/495/495
f 496/496/496 497/497/497 498/498/498
f 499/499/499 500/500/500 501/501/501
f 502/502/502 503/503/503 504/504/504
f 505/505/505 506/506/506 507/507/507
f 508/508/508 509/509/509 510/510/510
f 511/511/511 512/512/512 513/513/513
f 514/514/514 515/515/515 516/516/516
f 517/517/517 518/518/518 519/519/519
f 520/520/520 521/521/521 522/522/522
f 523/523/523 524/524/524 525/525/525
f 526/526/526 527/527/527 528/528/528
f 529/529/529 530/530/530 531/531/531
f 532/532/532 533/533/533 534/534/534
f 535/535/535 536/536/536 537/537/537
f 538/538/538 539/539/539 540/540/540
f 541/541/541 542/542/542 543/543/543
f 544/544/544 545/545/545 546/546/546
f 547/547/547 548/548/548 549/549/549
f 550/550/550 551/551/551 552/552/552
f 553/553/553 554/554/554 555/555/555
f 556/556/556 557/557/557 558/558/558
f 559/559/559 560/560/560 561/561/561
f 562/562/562 563/563/563 564/564/564
f 565/565/565 566/566/566 567/567/567
f 568/568/568 569/569/569 570/570/570
f 571/571/571 572/572/572 573/573/573
f 574/574/574 575/575/575 576/576/576
f 577/577/577 578/578/578 579/579/579
f 580/580/580 581/581/581 582/582/582
f 583/583/583 584/584/584 585/585/585
f 586/586/586 587/587/587 588/588/588
f 589/589/589 590/590/590 591/591/591
f 592/592/592 593/593/593 594/594/594
f 595/595/595 596/596/596 597/597/597
f 598/598/598 599/599/599 600/600/600
f 601/601/601 602/602/602 603/603/603
f 604/604/604 605/605/605 606/606/606
f 607/607/607 608/608/608 609/609/609
f 610/610/610 611/611/611 612/612/612
f 613/613/613 614/614/614 615/615/615
f 616/616/616 617/617/617 618/618/618
f 619/619/619 620/620/620 621/621/621
f 622/622/622 623/623/623 624/624/624
f 625/625/625 626/626/626 627/627/627
f 628/628/628 629/629/629 630/630/630
f 631/631/631 632/632/632 633/633/633
f 634/634/634 635/635/635 636/636/636
f 637/637/637 638/638/638 639/639/639
f 640/640/640 641/641/641 642/642/642
f 643/643/643 644/644/644 645/645/645
f 646/646/646 647/647/647 648/648/648
f 649/649/649 650/650/650 651/651/651
f 652/652/652 653/653/653 654/654/654
f 655/655/655 656/656/656 657/657/657
f 658/658/658 659/659/659 660/660/660
f 661/661/661 662/662/662 663/663/663
f 664/664/664 665/665/665 666/666/666
f 667/667/667 668/668/668 669/669/669
f 670/670/670 671/671/671 672/672/672
f 673/673/673 674/674/674 675/675/675
f 676/676/676 677/677/677 678/678/678
f 679/679/679 680/680/680 681/681/681
f 682/682/682 683/683/683 684/684/684
f 685/685/685 686/686/686 687/687/687
f 688/688/688 689/689/689 690/690/690
f 691/691/691 692/692/692 693/693/693
f 694/694/694 695/695/695 696/696/696
f 697/697/697 698/698/698 699/699/699
f 700/700/700 701/701/701 702/702/702
f 703/703/703 704/704/704 705/705/705
f 706/706/706 707/707/707 708/708/708
f 709/709/709 710/710/710 711/711/711
f 712/712/712 713/713/713 714/714/714
f 715/715/715 716/716/716 717/717/717
f 718/718/718 719/719/719 720/720/720
f 721/721/721 722/722/722 723/723/723
f 724/724/724 725/725/725 726/726/726
f 727/727/727 728/728/728 729/729/729
f 730/730/730 731/731/731 732/732/732
f 733/733/733 734/734/734 735/735/735
f 736/736/736 737/737/737 738/738/738
f 739/739/739 740/740/740 741/741/741
f 742/742/742 743/743/743 744/744/744
f 745/745/745 746/746/746 747/747/747
f 748/748/748 749/749/749 750/750/750
f 751/751/751 752/752/752 753/753/753
f 754/754/754 755/755/755 756/756/756
f 757/757/757 758/758/758 759/759/759
f 760/760/760 761/761/761 762/762/762
f 763/763/763 764/764/764 765/765/765
f 766/766/766 767/767/767 768/768/768
f 769/769/769 770/770/770 771/771/771
f 772/772/772 773/773/773 774/774/774
f 775/775/775 776/776/776 777/777/777
f 778/778/778 779/779/779 780/780/780
f 781/781/781 782/782/782 783/783/783
f 784/784/784 785/785/785 786/786/786
f 787/787/787 788/788/788 789/789/789
f 790/790/790 791/791/791 792/792/792
f 793/793/793 794/794/794 795/795/795
f 796/796/796 797/797/797 798/798/798
f 799/799/799 800/800/800 801/801/801
f 802/802/802 803/803/803 804/804/804
f 805/805/805 806/806/806 807/807/807
f 808/808/808 809/809/809 810/810/810
f 811/811/811 812/812/812 813/813/813
f 814/814/814 815/815/815 816/816/816
f 817/817/817 818/818/818 819/819/819
f 820/820/820 821/821/821 822/822/822
f 823/823/823 824/824/824 825/825/825
f 826/826/826 827/827/827 828/828/828
f 829/829/829 830/830/830 831/831/831
f 832/832/832 833/833/833 834/834/834
f 835/835/835 836/836/836 837/837/837
f 838/838/838 839/839/839 840/840/840
f 841/841/841 842/842/842 843/843/843
f 844/844/844 845/845/845 846/846/846
f 847/847/847 848/848/848 849/849/849
f 850/850/850 851/851/851 852/852/852
f 853/853/853 854/854/854 855/855/855
f 856/856/856 857/857/857 858/858/858
f 859/859/859 860/860/860 861/861/861
f 862/862/862 863/863/863 864/864/864
f 865/865/865 866/866/866 867/867/867
f 868/868/868 869/869/869 870/870/870
f 871/871/871 872/872/872 873/873/873
f 874/874/874 875/875/875 876/876/876
f 877/877/877 878/878/878 879/879/879
f 880/880/880 881/881/881 882/882/882
f 883/883/883 884/884/884 885/885/885
f 886/886/886 887/887/887 888/888/888
f 889/889/889 890/890/890 891/891/891
f 892/892/892 893/893/893 894/894/894
f 895/895/895 896/896/896 897/897/897
f 898/898/898 899/899/899 900/900/900
f 901/901/901 902/902/902 903/903/903
f 904/904/904 905/905/905 906/906/906
f 907/907/907 908/908/908 909/909/909
f 910/910/910 911/911/911 912/912/912
f 913/913/913 914/914/914 915/915/915
f 916/916/916 917/917/917 918/918/918
f 919/919/919 920/920/920 921/921/921
f 922/922/922 923/923/923 924/924/924
f 925/925/925 926/926/926 927/927/927
f 928/928/928 929/929/929 930/930/930
f 931/931/931 932/932/932 933/933/933
f 934/934/934 935/935/935 936/936/936
f 937/937/937 938/938/938 939/939/939
f 940/940/940 941/941/941 942/942/942
f 943/943/943 944/944/944 945/945/945
f 946/946/946 947/947/947 948/948/948
f 949/949/949 950/950/950 951/951/951
f 952/952/952 953/953/953 954/954/954
f 955/955/955 956/956/956 957/957/957
f 958/958/958 959/959/959 960/960/960
f 961/961/961 962/962/962 963/963/963
f 964/964/964 965/965/965 966/966/966
f 967/967/967 968/968/968 969/969/969
f 970/970/970 971/971/971 972/972/972
f 973/973/973 974/974/974 975/975/975
f 976/976/976 977/977/977 978/978/978
f 979/979/979 980/980/980 981/981/981
f 979/979/979 981/981/981 980/980/980
f 979/979/979 981/981/981 982/982/982
f 979/979/979 982/982/982 981/981/981
f 979/979/979 982/982/982 983/983/983
f 979/979/979 983/983/983 982/982/982
f 979/979/979 983/983/983 984/984/984
f 979/979/979 984/984/984 983/983/983
f 979/979/979 984/984/984 985/985/985
f 979/979/979 985/985/985 984/984/984
f 979/979/979 985/985/985 986/986/986
f 979/979/979 986/986/986 985/985/985
f 979/979/979 986/986/986 987/987/987
f 979/979/979 987/987/987 986/986/986
f 979/979/979 987/987/987 980/980/980
f 979/979/979 980/980/980 987/987/987
