o leg_right_2
v 1.78960 0.35496 1.02259
v 1.83203 0.55331 0.95170
v 1.83462 0.50489 1.12998
v 1.83203 0.55331 0.95170
v 1.80429 0.56519 0.90546
v 1.73682 1.35415 0.68574
v 1.76916 1.02029 1.00669
v 1.83203 0.55331 0.95170
v 1.73682 1.35415 0.68574
v 1.76916 1.02029 1.00669
v 1.83462 0.50489 1.12998
v 1.83203 0.55331 0.95170
v 1.78982 0.07099 1.23969
v 1.78680 0.05931 1.18709
v 1.78960 0.35496 1.02259
v 1.78982 0.07099 1.23969
v 1.78960 0.35496 1.02259
v 1.83462 0.50489 1.12998
v 1.80388 0.89547 1.13268
v 1.76916 1.02029 1.00669
v 1.77925 1.03532 1.09884
v 1.74203 1.08749 1.01145
v 1.76916 1.02029 1.00669
v 1.73682 1.35415 0.68574
v 1.78680 0.05931 1.18709
v 1.70928 0.34332 1.09877
v 1.78960 0.35496 1.02259
v 1.78982 0.07099 1.23969
v 1.83462 0.50489 1.12998
v 1.70857 0.36118 1.17361
v 1.80388 0.89547 1.13268
v 1.77925 1.03532 1.09884
v 1.69508 1.02579 1.14167
v 1.80388 0.89547 1.13268
v 1.69508 1.02579 1.14167
v 1.72690 0.88550 1.16975
v 1.78960 0.35496 1.02259
v 1.80429 0.56519 0.90546
v 1.83203 0.55331 0.95170
v 1.73682 1.35415 0.68574
v 1.80429 0.56519 0.90546
v 1.74175 1.02251 0.71587
v 1.80429 0.56519 0.90546
v 1.70403 0.83255 0.78761
v 1.74175 1.02251 0.71587
v 1.70852 0.71090 1.10052
v 1.74501 0.57710 1.13081
v 1.83462 0.50489 1.12998
v 1.78982 0.07099 1.23969
v 1.70928 0.34332 1.09877
v 1.78680 0.05931 1.18709
v 1.74501 0.57710 1.13081
v 1.70857 0.36118 1.17361
v 1.83462 0.50489 1.12998
v 1.70881 1.23650 0.97681
v 1.74203 1.08749 1.01145
v 1.72342 1.40291 0.85501
v 1.80429 0.56519 0.90546
v 1.72039 0.53519 1.01141
v 1.71097 0.51225 0.94512
v 1.71097 0.51225 0.94512
v 1.72616 0.69656 0.87452
v 1.80429 0.56519 0.90546
v 1.76916 1.02029 1.00669
v 1.70852 0.71090 1.10052
v 1.83462 0.50489 1.12998
v 1.72342 1.40291 0.85501
v 1.74203 1.08749 1.01145
v 1.73682 1.35415 0.68574
v 1.73682 1.35415 0.68574
v 1.74175 1.02251 0.71587
v 1.68614 1.32663 0.61328
v 1.70928 0.34332 1.09877
v 1.78982 0.07099 1.23969
v 1.70857 0.36118 1.17361
v 1.70881 1.23650 0.97681
v 1.68778 1.36282 0.94579
v 1.69769 1.38296 1.05759
v 1.74501 0.57710 1.13081
v 1.70852 0.71090 1.10052
v 1.73273 0.57801 1.20424
v 1.72039 0.53519 1.01141
v 1.80429 0.56519 0.90546
v 1.78960 0.35496 1.02259
v 1.76916 1.02029 1.00669
v 1.74203 1.08749 1.01145
v 1.60724 0.98858 1.02306
v 1.70403 0.83255 0.78761
v 1.69987 0.95754 0.75534
v 1.74175 1.02251 0.71587
v 1.70881 1.23650 0.97681
v 1.69769 1.38296 1.05759
v 1.73552 1.25854 1.07355
v 1.73273 0.57801 1.20424
v 1.70852 0.71090 1.10052
v 1.71078 0.71543 1.17921
v 1.78960 0.35496 1.02259
v 1.70928 0.34332 1.09877
v 1.72039 0.53519 1.01141
v 1.80429 0.56519 0.90546
v 1.72616 0.69656 0.87452
v 1.70403 0.83255 0.78761
v 1.76916 1.02029 1.00669
v 1.67827 0.84940 1.06008
v 1.70852 0.71090 1.10052
v 1.68778 1.36282 0.94579
v 1.70881 1.23650 0.97681
v 1.72342 1.40291 0.85501
v 1.69508 1.02579 1.14167
v 1.77925 1.03532 1.09884
v 1.76916 1.02029 1.00669
v 1.72616 0.69656 0.87452
v 1.68005 0.84029 0.85860
v 1.70403 0.83255 0.78761
v 1.74501 0.57710 1.13081
v 1.73273 0.57801 1.20424
v 1.64926 0.55844 1.15643
v 1.60724 0.98858 1.02306
v 1.69508 1.02579 1.14167
v 1.76916 1.02029 1.00669
v 1.80388 0.89547 1.13268
v 1.72690 0.88550 1.16975
v 1.76916 1.02029 1.00669
v 1.69848 1.10009 1.06737
v 1.74203 1.08749 1.01145
v 1.70881 1.23650 0.97681
v 1.70881 1.23650 0.97681
v 1.67733 1.23176 1.03774
v 1.69848 1.10009 1.06737
v 1.73682 1.35415 0.68574
v 1.61522 1.62785 0.59732
v 1.72342 1.40291 0.85501
v 1.71078 0.71543 1.17921
v 1.64926 0.55844 1.15643
v 1.73273 0.57801 1.20424
v 1.64926 0.55844 1.15643
v 1.70857 0.36118 1.17361
v 1.74501 0.57710 1.13081
v 1.67733 1.23176 1.03774
v 1.73552 1.25854 1.07355
v 1.65491 1.24051 1.11672
v 1.67733 1.23176 1.03774
v 1.65491 1.24051 1.11672
v 1.58909 1.21486 1.05623
v 1.71097 0.51225 0.94512
v 1.72039 0.53519 1.01141
v 1.64659 0.83652 0.92883
v 1.74203 1.08749 1.01145
v 1.63208 1.07420 1.00638
v 1.60724 0.98858 1.02306
v 1.69848 1.10009 1.06737
v 1.67733 1.23176 1.03774
v 1.58909 1.21486 1.05623
v 1.70881 1.23650 0.97681
v 1.73552 1.25854 1.07355
v 1.67733 1.23176 1.03774
v 1.68005 0.84029 0.85860
v 1.71097 0.51225 0.94512
v 1.64659 0.83652 0.92883
v 1.68614 1.32663 0.61328
v 1.61522 1.62785 0.59732
v 1.73682 1.35415 0.68574
v 1.72616 0.69656 0.87452
v 1.71097 0.51225 0.94512
v 1.68005 0.84029 0.85860
v 1.64926 0.55844 1.15643
v 1.61378 0.65480 1.00884
v 1.70857 0.36118 1.17361
v 1.70928 0.34332 1.09877
v 1.61378 0.65480 1.00884
v 1.72039 0.53519 1.01141
v 1.70857 0.36118 1.17361
v 1.61378 0.65480 1.00884
v 1.70928 0.34332 1.09877
v 1.69987 0.95754 0.75534
v 1.63045 0.94121 0.81964
v 1.67363 1.01995 0.78769
v 1.74203 1.08749 1.01145
v 1.63755 1.09572 1.07231
v 1.63208 1.07420 1.00638
v 1.70852 0.71090 1.10052
v 1.63250 0.69981 1.14497
v 1.71078 0.71543 1.17921
v 1.60724 0.98858 1.02306
v 1.64578 0.85944 1.09996
v 1.69508 1.02579 1.14167
v 1.67827 0.84940 1.06008
v 1.76916 1.02029 1.00669
v 1.72690 0.88550 1.16975
v 1.69848 1.10009 1.06737
v 1.63755 1.09572 1.07231
v 1.74203 1.08749 1.01145
v 1.69987 0.95754 0.75534
v 1.70403 0.83255 0.78761
v 1.60425 0.92061 0.76189
v 1.69769 1.38296 1.05759
v 1.65491 1.24051 1.11672
v 1.73552 1.25854 1.07355
v 1.63465 1.27209 0.65939
v 1.68614 1.32663 0.61328
v 1.74175 1.02251 0.71587
v 1.63465 1.27209 0.65939
v 1.74175 1.02251 0.71587
v 1.69987 0.95754 0.75534
v 1.72342 1.40291 0.85501
v 1.62378 1.59969 0.89324
v 1.68778 1.36282 0.94579
v 1.63250 0.69981 1.14497
v 1.64926 0.55844 1.15643
v 1.71078 0.71543 1.17921
v 1.51326 1.87420 0.74792
v 1.72342 1.40291 0.85501
v 1.61522 1.62785 0.59732
v 1.58909 1.21486 1.05623
v 1.63755 1.09572 1.07231
v 1.69848 1.10009 1.06737
v 1.63045 0.94121 0.81964
v 1.69987 0.95754 0.75534
v 1.60425 0.92061 0.76189
v 1.69508 1.02579 1.14167
v 1.64578 0.85944 1.09996
v 1.72690 0.88550 1.16975
v 1.62386 1.36371 1.06430
v 1.69769 1.38296 1.05759
v 1.68778 1.36282 0.94579
v 1.61378 0.65480 1.00884
v 1.64659 0.83652 0.92883
v 1.72039 0.53519 1.01141
v 1.64659 0.83652 0.92883
v 1.61378 0.65480 1.00884
v 1.61997 0.76182 0.96998
v 1.67827 0.84940 1.06008
v 1.72690 0.88550 1.16975
v 1.64578 0.85944 1.09996
v 1.70852 0.71090 1.10052
v 1.62463 0.78210 1.06773
v 1.61378 0.65480 1.00884
v 1.70852 0.71090 1.10052
v 1.67827 0.84940 1.06008
v 1.62463 0.78210 1.06773
v 1.70403 0.83255 0.78761
v 1.58127 0.81549 0.83259
v 1.60425 0.92061 0.76189
v 1.65491 1.24051 1.11672
v 1.69769 1.38296 1.05759
v 1.62386 1.36371 1.06430
v 1.67363 1.01995 0.78769
v 1.57549 1.12091 0.78593
v 1.69987 0.95754 0.75534
v 1.68005 0.84029 0.85860
v 1.64659 0.83652 0.92883
v 1.58127 0.81549 0.83259
v 1.62463 0.78210 1.06773
v 1.61997 0.76182 0.96998
v 1.61378 0.65480 1.00884
v 1.72342 1.40291 0.85501
v 1.56272 1.72326 0.87322
v 1.62378 1.59969 0.89324
v 1.55489 0.95892 0.92423
v 1.62680 0.98222 0.86535
v 1.64659 0.83652 0.92883
v 1.60724 0.98858 1.02306
v 1.63208 1.07420 1.00638
v 1.57811 1.15772 0.96618
v 1.61997 0.76182 0.96998
v 1.55489 0.95892 0.92423
v 1.64659 0.83652 0.92883
v 1.70852 0.71090 1.10052
v 1.61378 0.65480 1.00884
v 1.63250 0.69981 1.14497
v 1.70403 0.83255 0.78761
v 1.68005 0.84029 0.85860
v 1.58127 0.81549 0.83259
v 1.63250 0.69981 1.14497
v 1.61378 0.65480 1.00884
v 1.64926 0.55844 1.15643
v 1.62386 1.36371 1.06430
v 1.68778 1.36282 0.94579
v 1.62378 1.59969 0.89324
v 1.69987 0.95754 0.75534
v 1.62437 1.11531 0.66189
v 1.57453 1.24295 0.62290
v 1.63208 1.07420 1.00638
v 1.63755 1.09572 1.07231
v 1.57811 1.15772 0.96618
v 1.51326 1.87420 0.74792
v 1.56272 1.72326 0.87322
v 1.72342 1.40291 0.85501
v 1.65491 1.24051 1.11672
v 1.62386 1.36371 1.06430
v 1.56139 1.34028 1.02992
v 1.63045 0.94121 0.81964
v 1.57549 1.12091 0.78593
v 1.67363 1.01995 0.78769
v 1.60724 0.98858 1.02306
v 1.67827 0.84940 1.06008
v 1.64578 0.85944 1.09996
v 1.56139 1.34028 1.02992
v 1.62386 1.36371 1.06430
v 1.58072 1.58059 0.97207
v 1.62680 0.98222 0.86535
v 1.55578 0.91551 0.82941
v 1.58127 0.81549 0.83259
v 1.63465 1.27209 0.65939
v 1.69987 0.95754 0.75534
v 1.57453 1.24295 0.62290
v 1.55817 0.96978 1.02991
v 1.62463 0.78210 1.06773
v 1.67827 0.84940 1.06008
v 1.63755 1.09572 1.07231
v 1.58909 1.21486 1.05623
v 1.57811 1.15772 0.96618
v 1.58072 1.58059 0.97207
v 1.62386 1.36371 1.06430
v 1.62378 1.59969 0.89324
v 1.58127 0.81549 0.83259
v 1.64659 0.83652 0.92883
v 1.62680 0.98222 0.86535
v 1.58663 1.74054 0.98348
v 1.64271 1.61771 1.00260
v 1.62378 1.59969 0.89324
v 1.56298 1.50494 0.66666
v 1.63465 1.27209 0.65939
v 1.54326 1.26544 0.75549
v 1.58663 1.74054 0.98348
v 1.62378 1.59969 0.89324
v 1.56272 1.72326 0.87322
v 1.63045 0.94121 0.81964
v 1.62680 0.98222 0.86535
v 1.57549 1.12091 0.78593
v 1.55817 0.96978 1.02991
v 1.67827 0.84940 1.06008
v 1.60724 0.98858 1.02306
v 1.62680 0.98222 0.86535
v 1.55489 0.95892 0.92423
v 1.57549 1.12091 0.78593
v 1.68614 1.32663 0.61328
v 1.53299 1.58842 0.60169
v 1.61522 1.62785 0.59732
v 1.61997 0.76182 0.96998
v 1.62463 0.78210 1.06773
v 1.57446 0.75858 0.98994
v 1.62680 0.98222 0.86535
v 1.63045 0.94121 0.81964
v 1.55578 0.91551 0.82941
v 1.56609 1.10203 0.68028
v 1.57453 1.24295 0.62290
v 1.62437 1.11531 0.66189
v 1.62437 1.11531 0.66189
v 1.69987 0.95754 0.75534
v 1.57549 1.12091 0.78593
v 1.63465 1.27209 0.65939
v 1.53299 1.58842 0.60169
v 1.68614 1.32663 0.61328
v 1.56139 1.34028 1.02992
v 1.58909 1.21486 1.05623
v 1.65491 1.24051 1.11672
v 1.58663 1.74054 0.98348
v 1.50504 1.70967 1.03306
v 1.64271 1.61771 1.00260
v 1.63045 0.94121 0.81964
v 1.60425 0.92061 0.76189
v 1.55578 0.91551 0.82941
v 1.62378 1.59969 0.89324
v 1.64271 1.61771 1.00260
v 1.58072 1.58059 0.97207
v 1.62437 1.11531 0.66189
v 1.57549 1.12091 0.78593
v 1.56609 1.10203 0.68028
v 1.58072 1.58059 0.97207
v 1.64271 1.61771 1.00260
v 1.55987 1.58974 1.04935
v 1.56298 1.50494 0.66666
v 1.53299 1.58842 0.60169
v 1.63465 1.27209 0.65939
v 1.57453 1.24295 0.62290
v 1.48974 1.24338 0.72807
v 1.63465 1.27209 0.65939
v 1.61997 0.76182 0.96998
v 1.57446 0.75858 0.98994
v 1.55489 0.95892 0.92423
v 1.60425 0.92061 0.76189
v 1.58127 0.81549 0.83259
v 1.55578 0.91551 0.82941
v 1.61522 1.62785 0.59732
v 1.53299 1.58842 0.60169
v 1.56042 1.59209 0.52486
v 1.54326 1.26544 0.75549
v 1.63465 1.27209 0.65939
v 1.48974 1.24338 0.72807
v 1.55817 0.96978 1.02991
v 1.60724 0.98858 1.02306
v 1.55489 0.95892 0.92423
v 1.56609 1.10203 0.68028
v 1.57549 1.12091 0.78593
v 1.51775 1.10642 0.74733
v 1.57811 1.15772 0.96618
v 1.58909 1.21486 1.05623
v 1.56139 1.34028 1.02992
v 1.57549 1.12091 0.78593
v 1.53498 1.12406 0.85743
v 1.54326 1.26544 0.75549
v 1.64271 1.61771 1.00260
v 1.50504 1.70967 1.03306
v 1.55987 1.58974 1.04935
v 1.55489 0.95892 0.92423
v 1.53498 1.12406 0.85743
v 1.57549 1.12091 0.78593
v 1.60724 0.98858 1.02306
v 1.57811 1.15772 0.96618
v 1.53498 1.12406 0.85743
v 1.56609 1.10203 0.68028
v 1.51775 1.10642 0.74733
v 1.57453 1.24295 0.62290
v 1.58072 1.58059 0.97207
v 1.50693 1.53844 0.95486
v 1.56139 1.34028 1.02992
v 1.60724 0.98858 1.02306
v 1.53498 1.12406 0.85743
v 1.55489 0.95892 0.92423
v 1.50693 1.53844 0.95486
v 1.58072 1.58059 0.97207
v 1.55987 1.58974 1.04935
v 1.50733 1.49144 0.92896
v 1.56154 1.35828 0.94906
v 1.56139 1.34028 1.02992
v 1.55817 0.96978 1.02991
v 1.57446 0.75858 0.98994
v 1.62463 0.78210 1.06773
v 1.57446 0.75858 0.98994
v 1.55817 0.96978 1.02991
v 1.55489 0.95892 0.92423
v 1.49549 1.46502 0.74223
v 1.56298 1.50494 0.66666
v 1.54326 1.26544 0.75549
v 1.53666 1.49161 0.59160
v 1.53299 1.58842 0.60169
v 1.56298 1.50494 0.66666
v 1.50693 1.53844 0.95486
v 1.55987 1.58974 1.04935
v 1.50504 1.70967 1.03306
v 1.49323 1.56958 0.54804
v 1.53299 1.58842 0.60169
v 1.53666 1.49161 0.59160
v 1.56139 1.34028 1.02992
v 1.56154 1.35828 0.94906
v 1.47786 1.33442 0.90346
v 1.54326 1.26544 0.75549
v 1.53498 1.12406 0.85743
v 1.49549 1.46502 0.74223
v 1.57811 1.15772 0.96618
v 1.48668 1.12193 0.88402
v 1.53498 1.12406 0.85743
v 1.50733 1.49144 0.92896
v 1.56139 1.34028 1.02992
v 1.50693 1.53844 0.95486
v 1.49323 1.56958 0.54804
v 1.56042 1.59209 0.52486
v 1.53299 1.58842 0.60169
v 1.50504 1.70967 1.03306
v 1.58663 1.74054 0.98348
v 1.56272 1.72326 0.87322
v 1.54326 1.26544 0.75549
v 1.48974 1.24338 0.72807
v 1.57549 1.12091 0.78593
v 1.56272 1.72326 0.87322
v 1.51326 1.87420 0.74792
v 1.38881 2.07250 0.77906
v 1.47786 1.33442 0.90346
v 1.57811 1.15772 0.96618
v 1.56139 1.34028 1.02992
v 1.56298 1.50494 0.66666
v 1.49549 1.46502 0.74223
v 1.49306 1.46148 0.62790
v 1.57811 1.15772 0.96618
v 1.50995 1.14017 0.95238
v 1.48668 1.12193 0.88402
v 1.56272 1.72326 0.87322
v 1.45261 1.68158 0.97719
v 1.50504 1.70967 1.03306
v 1.53666 1.49161 0.59160
v 1.56298 1.50494 0.66666
v 1.49306 1.46148 0.62790
v 1.56272 1.72326 0.87322
v 1.44802 1.86752 0.92986
v 1.45261 1.68158 0.97719
v 1.57811 1.15772 0.96618
v 1.47786 1.33442 0.90346
v 1.50995 1.14017 0.95238
v 1.53498 1.12406 0.85743
v 1.48668 1.12193 0.88402
v 1.49549 1.46502 0.74223
v 1.48974 1.24338 0.72807
v 1.51775 1.10642 0.74733
v 1.57549 1.12091 0.78593
v 1.56154 1.35828 0.94906
v 1.43678 1.46362 0.86941
v 1.47786 1.33442 0.90346
v 1.43678 1.46362 0.86941
v 1.56154 1.35828 0.94906
v 1.50733 1.49144 0.92896
v 1.49306 1.46148 0.62790
v 1.49323 1.56958 0.54804
v 1.53666 1.49161 0.59160
v 1.48974 1.24338 0.72807
v 1.57453 1.24295 0.62290
v 1.51775 1.10642 0.74733
v 1.50504 1.70967 1.03306
v 1.45261 1.68158 0.97719
v 1.50693 1.53844 0.95486
v 1.49306 1.46148 0.62790
v 1.44491 1.44069 0.67096
v 1.45010 1.52710 0.63852
v 1.49306 1.46148 0.62790
v 1.49549 1.46502 0.74223
v 1.44491 1.44069 0.67096
v 1.42065 1.45809 0.78702
v 1.49549 1.46502 0.74223
v 1.48668 1.12193 0.88402
v 1.42065 1.45809 0.78702
v 1.50995 1.14017 0.95238
v 1.47786 1.33442 0.90346
v 1.47786 1.33442 0.90346
v 1.43678 1.46362 0.86941
v 1.42065 1.45809 0.78702
v 1.38881 2.07250 0.77906
v 1.44202 1.86710 0.88077
v 1.56272 1.72326 0.87322
v 1.42065 1.45809 0.78702
v 1.48668 1.12193 0.88402
v 1.50995 1.14017 0.95238
v 1.44802 1.86752 0.92986
v 1.56272 1.72326 0.87322
v 1.44202 1.86710 0.88077
v 1.49323 1.56958 0.54804
v 1.41718 1.71405 0.53888
v 1.56042 1.59209 0.52486
v 1.49306 1.46148 0.62790
v 1.37917 1.70320 0.58524
v 1.49323 1.56958 0.54804
v 1.44491 1.44069 0.67096
v 1.49549 1.46502 0.74223
v 1.42065 1.45809 0.78702
v 1.37917 1.70320 0.58524
v 1.49306 1.46148 0.62790
v 1.45010 1.52710 0.63852
v 1.56042 1.59209 0.52486
v 1.25227 2.25155 0.47524
v 1.61522 1.62785 0.59732
v 1.41718 1.71405 0.53888
v 1.25227 2.25155 0.47524
v 1.56042 1.59209 0.52486
v 1.30439 1.92070 0.80614
v 1.43678 1.46362 0.86941
v 1.50733 1.49144 0.92896
v 1.61522 1.62785 0.59732
v 1.25227 2.25155 0.47524
v 1.31524 2.29052 0.55180
v 1.37917 1.70320 0.58524
v 1.41718 1.71405 0.53888
v 1.49323 1.56958 0.54804
v 1.44491 1.44069 0.67096
v 1.42065 1.45809 0.78702
v 1.39641 1.51672 0.73454
v 1.38337 1.83796 0.92334
v 1.44802 1.86752 0.92986
v 1.44202 1.86710 0.88077
v 1.44491 1.44069 0.67096
v 1.39641 1.51672 0.73454
v 1.45010 1.52710 0.63852
v 1.51326 1.87420 0.74792
v 1.61522 1.62785 0.59732
v 1.31524 2.29052 0.55180
v 1.45261 1.68158 0.97719
v 1.38337 1.83796 0.92334
v 1.50693 1.53844 0.95486
v 1.38337 1.83796 0.92334
v 1.45261 1.68158 0.97719
v 1.44802 1.86752 0.92986
v 1.27969 2.03399 0.53526
v 1.25227 2.25155 0.47524
v 1.41718 1.71405 0.53888
v 1.28758 2.03282 0.84560
v 1.50733 1.49144 0.92896
v 1.50693 1.53844 0.95486
v 1.30439 1.92070 0.80614
v 1.50733 1.49144 0.92896
v 1.28758 2.03282 0.84560
v 1.39641 1.51672 0.73454
v 1.35678 1.50137 0.63864
v 1.45010 1.52710 0.63852
v 1.38881 2.07250 0.77906
v 1.51326 1.87420 0.74792
v 1.38588 2.07115 0.73931
v 1.31524 2.29052 0.55180
v 1.27266 2.27801 0.61365
v 1.51326 1.87420 0.74792
v 1.34598 1.64555 0.85715
v 1.43678 1.46362 0.86941
v 1.30439 1.92070 0.80614
v 1.32002 2.04792 0.79967
v 1.44202 1.86710 0.88077
v 1.38881 2.07250 0.77906
v 1.43678 1.46362 0.86941
v 1.36728 1.51789 0.83161
v 1.42065 1.45809 0.78702
v 1.42065 1.45809 0.78702
v 1.36728 1.51789 0.83161
v 1.39641 1.51672 0.73454
v 1.34598 1.64555 0.85715
v 1.36728 1.51789 0.83161
v 1.43678 1.46362 0.86941
v 1.38881 2.07250 0.77906
v 1.38588 2.07115 0.73931
v 1.32002 2.04792 0.79967
v 1.27266 2.27801 0.61365
v 1.38588 2.07115 0.73931
v 1.51326 1.87420 0.74792
v 1.38337 1.83796 0.92334
v 1.28758 2.03282 0.84560
v 1.50693 1.53844 0.95486
v 1.29736 1.79580 0.84180
v 1.34598 1.64555 0.85715
v 1.30439 1.92070 0.80614
v 1.27969 2.03399 0.53526
v 1.41718 1.71405 0.53888
v 1.25684 2.02063 0.54372
v 1.44202 1.86710 0.88077
v 1.32002 2.04792 0.79967
v 1.34127 2.05469 0.85642
v 1.37917 1.70320 0.58524
v 1.25684 2.02063 0.54372
v 1.41718 1.71405 0.53888
v 1.36728 1.51789 0.83161
v 1.34598 1.64555 0.85715
v 1.26190 1.60830 0.80928
v 1.35052 1.67169 0.57896
v 1.31125 1.86317 0.62063
v 1.37917 1.70320 0.58524
v 1.27266 2.27801 0.61365
v 1.26837 2.27620 0.69901
v 1.38588 2.07115 0.73931
v 1.37917 1.70320 0.58524
v 1.31125 1.86317 0.62063
v 1.25684 2.02063 0.54372
v 1.29314 1.66109 0.73431
v 1.35678 1.50137 0.63864
v 1.39641 1.51672 0.73454
v 1.34127 2.05469 0.85642
v 1.28758 2.03282 0.84560
v 1.44202 1.86710 0.88077
v 1.34127 2.05469 0.85642
v 1.32002 2.04792 0.79967
v 1.28758 2.03282 0.84560
v 1.31125 1.86317 0.62063
v 1.35052 1.67169 0.57896
v 1.24872 1.83020 0.57248
v 1.39641 1.51672 0.73454
v 1.36728 1.51789 0.83161
v 1.31245 1.49748 0.75881
v 1.28758 2.03282 0.84560
v 1.38337 1.83796 0.92334
v 1.44202 1.86710 0.88077
v 1.37917 1.70320 0.58524
v 1.27309 1.64898 0.60834
v 1.35052 1.67169 0.57896
v 1.45010 1.52710 0.63852
v 1.35678 1.50137 0.63864
v 1.27309 1.64898 0.60834
v 1.45010 1.52710 0.63852
v 1.27309 1.64898 0.60834
v 1.37917 1.70320 0.58524
v 1.35678 1.50137 0.63864
v 1.29314 1.66109 0.73431
v 1.27309 1.64898 0.60834
v 1.31245 1.49748 0.75881
v 1.36728 1.51789 0.83161
v 1.26190 1.60830 0.80928
v 1.39641 1.51672 0.73454
v 1.31245 1.49748 0.75881
v 1.29314 1.66109 0.73431
v 1.34598 1.64555 0.85715
v 1.27074 1.62378 0.87852
v 1.26190 1.60830 0.80928
v 1.32002 2.04792 0.79967
v 1.38588 2.07115 0.73931
v 1.26837 2.27620 0.69901
v 1.34598 1.64555 0.85715
v 1.29736 1.79580 0.84180
v 1.27074 1.62378 0.87852
v 1.30439 1.92070 0.80614
v 1.28758 2.03282 0.84560
v 1.27847 1.92637 0.77528
v 1.35052 1.67169 0.57896
v 1.27309 1.64898 0.60834
v 1.24872 1.83020 0.57248
v 1.29736 1.79580 0.84180
v 1.30439 1.92070 0.80614
v 1.27847 1.92637 0.77528
v 1.31245 1.49748 0.75881
v 1.26190 1.60830 0.80928
v 1.29314 1.66109 0.73431
v 1.31125 1.86317 0.62063
v 1.21973 1.89360 0.64381
v 1.25684 2.02063 0.54372
v 1.27847 1.92637 0.77528
v 1.28758 2.03282 0.84560
v 1.24295 2.00905 0.73037
v 1.27847 1.92637 0.77528
v 1.25389 1.86777 0.78428
v 1.29736 1.79580 0.84180
v 1.31524 2.29052 0.55180
v 1.25227 2.25155 0.47524
v 1.20087 2.23129 0.49853
v 1.20601 1.82205 0.82924
v 1.27074 1.62378 0.87852
v 1.29736 1.79580 0.84180
v 1.28758 2.03282 0.84560
v 1.32002 2.04792 0.79967
v 1.24134 2.02312 0.81859
v 1.19127 1.98435 0.73385
v 1.27847 1.92637 0.77528
v 1.24295 2.00905 0.73037
v 1.24146 2.23451 0.77511
v 1.24134 2.02312 0.81859
v 1.32002 2.04792 0.79967
v 1.25389 1.86777 0.78428
v 1.20601 1.82205 0.82924
v 1.29736 1.79580 0.84180
v 1.31524 2.29052 0.55180
v 1.20087 2.23129 0.49853
v 1.27266 2.27801 0.61365
v 1.24295 2.00905 0.73037
v 1.28758 2.03282 0.84560
v 1.24134 2.02312 0.81859
v 1.23867 1.81438 0.70089
v 1.21973 1.89360 0.64381
v 1.31125 1.86317 0.62063
v 1.32002 2.04792 0.79967
v 1.26837 2.27620 0.69901
v 1.24146 2.23451 0.77511
v 1.20575 1.64628 0.67002
v 1.27309 1.64898 0.60834
v 1.29314 1.66109 0.73431
v 1.25684 2.02063 0.54372
v 1.18120 2.11203 0.49914
v 1.27969 2.03399 0.53526
v 1.27847 1.92637 0.77528
v 1.19127 1.98435 0.73385
v 1.25389 1.86777 0.78428
v 1.20575 1.64628 0.67002
v 1.19485 1.80869 0.64826
v 1.27309 1.64898 0.60834
v 1.29314 1.66109 0.73431
v 1.26190 1.60830 0.80928
v 1.20575 1.64628 0.67002
v 1.24134 2.02312 0.81859
v 1.16114 2.22363 0.68357
v 1.24295 2.00905 0.73037
v 1.27266 2.27801 0.61365
v 1.20087 2.23129 0.49853
v 1.09550 2.18702 0.59688
v 1.19127 1.98435 0.73385
v 1.23867 1.81438 0.70089
v 1.25389 1.86777 0.78428
v 1.27969 2.03399 0.53526
v 1.20087 2.23129 0.49853
v 1.25227 2.25155 0.47524
v 1.27266 2.27801 0.61365
v 1.09550 2.18702 0.59688
v 1.26837 2.27620 0.69901
v 1.15988 1.77734 0.67093
v 1.25389 1.86777 0.78428
v 1.23867 1.81438 0.70089
v 1.25389 1.86777 0.78428
v 1.15988 1.77734 0.67093
v 1.20601 1.82205 0.82924
v 1.10424 2.11305 0.59007
v 1.27969 2.03399 0.53526
v 1.18120 2.11203 0.49914
v 1.27074 1.62378 0.87852
v 1.20601 1.82205 0.82924
v 1.26190 1.60830 0.80928
v 1.24872 1.83020 0.57248
v 1.19485 1.80869 0.64826
v 1.31125 1.86317 0.62063
v 1.20601 1.82205 0.82924
v 1.15988 1.77734 0.67093
v 1.26190 1.60830 0.80928
v 1.27309 1.64898 0.60834
v 1.19485 1.80869 0.64826
v 1.24872 1.83020 0.57248
v 1.24134 2.02312 0.81859
v 1.24146 2.23451 0.77511
v 1.17598 2.20982 0.78146
v 1.19127 1.98435 0.73385
v 1.21973 1.89360 0.64381
v 1.23867 1.81438 0.70089
v 1.19485 1.80869 0.64826
v 1.23867 1.81438 0.70089
v 1.31125 1.86317 0.62063
v 1.16114 2.22363 0.68357
v 1.24134 2.02312 0.81859
v 1.17598 2.20982 0.78146
v 1.26190 1.60830 0.80928
v 1.15988 1.77734 0.67093
v 1.20575 1.64628 0.67002
v 1.23867 1.81438 0.70089
v 1.19485 1.80869 0.64826
v 1.15988 1.77734 0.67093
v 1.17598 2.20982 0.78146
v 1.24146 2.23451 0.77511
v 1.26837 2.27620 0.69901
v 1.24295 2.00905 0.73037
v 1.16114 2.22363 0.68357
v 1.19127 1.98435 0.73385
v 1.27969 2.03399 0.53526
v 1.10424 2.11305 0.59007
v 1.09550 2.18702 0.59688
v 1.09550 2.18702 0.59688
v 1.20087 2.23129 0.49853
v 1.27969 2.03399 0.53526
v 1.26837 2.27620 0.69901
v 1.16114 2.22363 0.68357
v 1.17598 2.20982 0.78146
v 1.16114 2.22363 0.68357
v 1.10767 2.20659 0.68811
v 1.19127 1.98435 0.73385
v 1.19485 1.80869 0.64826
v 1.20575 1.64628 0.67002
v 1.15988 1.77734 0.67093
v 1.10767 2.20659 0.68811
v 1.12269 2.08122 0.65391
v 1.19127 1.98435 0.73385
v 1.19127 1.98435 0.73385
v 1.12269 2.08122 0.65391
v 1.09804 1.88156 0.56697
v 1.09550 2.18702 0.59688
v 1.10767 2.20659 0.68811
v 1.16114 2.22363 0.68357
v 1.25684 2.02063 0.54372
v 1.21973 1.89360 0.64381
v 1.04575 1.60679 0.40692
v 1.10424 2.11305 0.59007
v 1.10767 2.20659 0.68811
v 1.09550 2.18702 0.59688
v 1.09550 2.18702 0.59688
v 1.16114 2.22363 0.68357
v 1.26837 2.27620 0.69901
v 1.10424 2.11305 0.59007
v 1.12269 2.08122 0.65391
v 1.10767 2.20659 0.68811
v 0.95710 1.77617 0.50233
v 1.09804 1.88156 0.56697
v 1.12269 2.08122 0.65391
v 1.19127 1.98435 0.73385
v 0.96735 1.58201 0.49616
v 1.21973 1.89360 0.64381
v 0.96735 1.58201 0.49616
v 1.19127 1.98435 0.73385
v 1.09804 1.88156 0.56697
v 0.97413 1.87699 0.45575
v 1.12269 2.08122 0.65391
v 1.10424 2.11305 0.59007
v 1.09804 1.88156 0.56697
v 0.95710 1.77617 0.50233
v 0.93032 1.62604 0.43002
v 0.95710 1.77617 0.50233
v 1.12269 2.08122 0.65391
v 0.97413 1.87699 0.45575
v 1.07347 1.84889 0.51349
v 1.18120 2.11203 0.49914
v 1.25684 2.02063 0.54372
v 1.04575 1.60679 0.40692
v 1.21973 1.89360 0.64381
v 0.96735 1.58201 0.49616
v 1.09804 1.88156 0.56697
v 0.93032 1.62604 0.43002
v 0.95710 1.77617 0.50233
v 0.97413 1.87699 0.45575
v 1.10424 2.11305 0.59007
vt 0.59024 0.31290
vt 0.58973 0.29896
vt 0.59995 0.30527
vt 0.58973 0.29896
vt 0.58663 0.29720
vt 0.58775 0.24374
vt 0.60172 0.27052
vt 0.58973 0.29896
vt 0.58776 0.24374
vt 0.60178 0.27055
vt 0.59997 0.30521
vt 0.58973 0.29896
vt 0.89536 0.79549
vt 0.89458 0.79388
vt 0.87266 0.79183
vt 0.59876 0.33444
vt 0.59024 0.31280
vt 0.59995 0.30526
vt 0.04626 0.26842
vt 0.05624 0.26237
vt 0.05575 0.26830
vt 0.60338 0.26621
vt 0.60171 0.27044
vt 0.58772 0.24375
vt 0.89458 0.79388
vt 0.87514 0.79858
vt 0.87266 0.79183
vt 0.81549 0.49467
vt 0.84392 0.48773
vt 0.83540 0.49722
vt 0.04091 0.10865
vt 0.04042 0.09916
vt 0.04660 0.09916
vt 0.04091 0.10865
vt 0.04660 0.09916
vt 0.04651 0.10870
vt 0.99610 0.81816
vt 0.99546 0.80262
vt 0.99729 0.80424
vt 0.58774 0.24374
vt 0.58662 0.29720
vt 0.58316 0.26492
vt 0.59635 0.45296
vt 0.61621 0.45026
vt 0.62875 0.45501
vt 0.85844 0.49396
vt 0.84926 0.49291
vt 0.84391 0.48767
vt 0.18979 0.56929
vt 0.18634 0.58951
vt 0.18629 0.56963
vt 0.84926 0.49291
vt 0.83540 0.49722
vt 0.84389 0.48773
vt 0.60428 0.25609
vt 0.60338 0.26621
vt 0.59920 0.24365
vt 0.04268 0.21723
vt 0.03403 0.21485
vt 0.03759 0.21224
vt 0.59326 0.44627
vt 0.60579 0.44925
vt 0.59637 0.45299
vt 0.87865 0.48694
vt 0.85843 0.49396
vt 0.84392 0.48766
vt 0.59919 0.24365
vt 0.60338 0.26621
vt 0.58772 0.24375
vt 0.58774 0.24374
vt 0.58316 0.26492
vt 0.58172 0.24377
vt 0.18628 0.58950
vt 0.18993 0.56931
vt 0.19121 0.58913
vt 0.44915 0.01654
vt 0.44075 0.01740
vt 0.44019 0.01035
vt 0.03943 0.23716
vt 0.04859 0.23686
vt 0.03883 0.24197
vt 0.99007 0.80755
vt 0.99554 0.80264
vt 0.99612 0.81816
vt 0.50721 0.92153
vt 0.51189 0.92212
vt 0.50795 0.93229
vt 0.61617 0.45036
vt 0.62447 0.45132
vt 0.62875 0.45501
vt 0.44894 0.01683
vt 0.44019 0.01035
vt 0.44872 0.01019
vt 0.03883 0.24197
vt 0.04861 0.23688
vt 0.04802 0.24186
vt 0.23590 0.85442
vt 0.24210 0.85172
vt 0.24157 0.86544
vt 0.59634 0.45293
vt 0.60579 0.44925
vt 0.61628 0.45048
vt 0.87865 0.48695
vt 0.86799 0.49442
vt 0.85843 0.49396
vt 0.60483 0.24751
vt 0.60454 0.25598
vt 0.59920 0.24365
vt 0.25254 0.94449
vt 0.25837 0.94652
vt 0.25839 0.95263
vt 0.04835 0.16338
vt 0.05725 0.15930
vt 0.05894 0.16377
vt 0.01334 0.46668
vt 0.00854 0.46598
vt 0.01158 0.46037
vt 0.24762 0.95308
vt 0.25254 0.94449
vt 0.25839 0.95263
vt 0.76635 0.90534
vt 0.77119 0.90254
vt 0.76997 0.91653
vt 0.64979 0.97476
vt 0.64600 0.97751
vt 0.64111 0.96866
vt 0.05137 0.08058
vt 0.04743 0.07970
vt 0.04753 0.07081
vt 0.58757 0.24386
vt 0.58815 0.22315
vt 0.59902 0.24322
vt 0.53881 0.02050
vt 0.52977 0.02681
vt 0.52961 0.02050
vt 0.84858 0.49921
vt 0.83540 0.49722
vt 0.84926 0.49291
vt 0.50322 0.97196
vt 0.50005 0.96840
vt 0.50603 0.96738
vt 0.50322 0.97196
vt 0.50603 0.96738
vt 0.50916 0.97256
vt 0.97308 0.47180
vt 0.96862 0.47199
vt 0.96629 0.45143
vt 0.51189 0.92212
vt 0.51300 0.92925
vt 0.50794 0.93228
vt 0.03272 0.85625
vt 0.03207 0.84738
vt 0.03804 0.84738
vt 0.50001 0.97508
vt 0.50005 0.96840
vt 0.50322 0.97196
vt 0.97077 0.44979
vt 0.97310 0.47182
vt 0.96627 0.45141
vt 0.58172 0.24377
vt 0.58392 0.22373
vt 0.58773 0.24368
vt 0.60579 0.44925
vt 0.59330 0.44616
vt 0.61543 0.44714
vt 0.23016 0.05762
vt 0.23774 0.04877
vt 0.23227 0.07087
vt 0.43960 0.06679
vt 0.46156 0.06589
vt 0.45261 0.07120
vt 0.23228 0.07087
vt 0.23774 0.04878
vt 0.23721 0.07075
vt 0.00470 0.06896
vt 0.00557 0.06278
vt 0.00940 0.06765
vt 0.02135 0.78745
vt 0.01346 0.78725
vt 0.01551 0.78321
vt 0.86764 0.93105
vt 0.86310 0.93462
vt 0.86295 0.92897
vt 0.05420 0.51398
vt 0.05157 0.52364
vt 0.04440 0.51451
vt 0.08758 0.73574
vt 0.08675 0.74858
vt 0.07965 0.73649
vt 0.01698 0.78914
vt 0.01346 0.78725
vt 0.02135 0.78745
vt 0.02641 0.54572
vt 0.02543 0.55389
vt 0.01989 0.54715
vt 0.02805 0.58252
vt 0.03411 0.59099
vt 0.02805 0.59105
vt 0.64634 0.45106
vt 0.64994 0.45546
vt 0.62875 0.45501
vt 0.64636 0.45115
vt 0.62875 0.45501
vt 0.62454 0.45132
vt 0.59920 0.24365
vt 0.60679 0.23124
vt 0.60487 0.24746
vt 0.53901 0.02614
vt 0.52979 0.02685
vt 0.53881 0.02050
vt 0.60290 0.20957
vt 0.59920 0.24365
vt 0.58823 0.22305
vt 0.03804 0.84738
vt 0.03667 0.85570
vt 0.03272 0.85625
vt 0.04113 0.21286
vt 0.03958 0.20688
vt 0.04493 0.21078
vt 0.04440 0.51451
vt 0.05157 0.52364
vt 0.04442 0.52405
vt 0.06127 0.62077
vt 0.06404 0.62491
vt 0.05771 0.62878
vt 0.46160 0.06588
vt 0.47352 0.07128
vt 0.45264 0.07120
vt 0.47351 0.07127
vt 0.46162 0.06594
vt 0.46867 0.06808
vt 0.88617 0.97912
vt 0.89307 0.97480
vt 0.88912 0.98078
vt 0.01881 0.95701
vt 0.01612 0.96305
vt 0.00995 0.95632
vt 0.85843 0.49388
vt 0.86799 0.49458
vt 0.86415 0.49869
vt 0.02502 0.55412
vt 0.01648 0.55440
vt 0.01989 0.54715
vt 0.03411 0.59099
vt 0.02805 0.58252
vt 0.03273 0.58232
vt 0.49725 0.02052
vt 0.48837 0.02276
vt 0.50065 0.01735
vt 0.03897 0.66246
vt 0.03942 0.66747
vt 0.03241 0.66438
vt 0.01637 0.96279
vt 0.01003 0.96364
vt 0.01003 0.95623
vt 0.59920 0.24365
vt 0.60774 0.22192
vt 0.60662 0.23118
vt 0.48245 0.06682
vt 0.48381 0.07291
vt 0.47353 0.07121
vt 0.50791 0.93225
vt 0.51300 0.92927
vt 0.51964 0.93139
vt 0.46867 0.06808
vt 0.48244 0.06681
vt 0.47354 0.07123
vt 0.86766 0.93116
vt 0.87088 0.93990
vt 0.86310 0.93462
vt 0.03779 0.65770
vt 0.03897 0.66246
vt 0.03241 0.66438
vt 0.22834 0.04853
vt 0.23773 0.04875
vt 0.23015 0.05764
vt 0.61362 0.24900
vt 0.60505 0.24748
vt 0.60699 0.23127
vt 0.51147 0.84296
vt 0.50605 0.83126
vt 0.50387 0.82228
vt 0.63844 0.00804
vt 0.63844 0.01257
vt 0.63171 0.00696
vt 0.60319 0.20961
vt 0.60774 0.22192
vt 0.59920 0.24365
vt 0.96628 0.59509
vt 0.96701 0.58627
vt 0.97172 0.58607
vt 0.10174 0.27056
vt 0.09003 0.26646
vt 0.09897 0.26507
vt 0.58205 0.02566
vt 0.57194 0.02576
vt 0.57238 0.02289
vt 0.58661 0.89393
vt 0.58248 0.89411
vt 0.58097 0.87882
vt 0.05002 0.21831
vt 0.04749 0.22458
vt 0.04085 0.22511
vt 0.50839 0.82140
vt 0.51151 0.84295
vt 0.50405 0.82223
vt 0.87709 0.50117
vt 0.86415 0.49869
vt 0.86799 0.49459
vt 0.63844 0.01257
vt 0.63009 0.01377
vt 0.63158 0.00715
vt 0.61244 0.23345
vt 0.61363 0.24900
vt 0.60694 0.23128
vt 0.04097 0.22528
vt 0.03966 0.21792
vt 0.05002 0.21831
vt 0.04572 0.40233
vt 0.04604 0.41120
vt 0.03895 0.41100
vt 0.68880 0.88669
vt 0.70437 0.88485
vt 0.70425 0.89291
vt 0.04572 0.40233
vt 0.03905 0.41106
vt 0.03873 0.40203
vt 0.98765 0.02993
vt 0.98875 0.02609
vt 0.99965 0.02675
vt 0.87709 0.50117
vt 0.86798 0.49461
vt 0.87792 0.49783
vt 0.12297 0.72265
vt 0.12227 0.71653
vt 0.13375 0.72424
vt 0.64994 0.45546
vt 0.66819 0.44792
vt 0.66987 0.45323
vt 0.01732 0.82592
vt 0.01094 0.82469
vt 0.01683 0.82271
vt 0.01158 0.37173
vt 0.01540 0.37055
vt 0.01726 0.37538
vt 0.04251 0.07989
vt 0.04525 0.07040
vt 0.04657 0.07954
vt 0.48849 0.01401
vt 0.50084 0.01770
vt 0.48832 0.02267
vt 0.64651 0.45106
vt 0.66819 0.44792
vt 0.64994 0.45546
vt 0.97172 0.58607
vt 0.97231 0.59458
vt 0.96628 0.59509
vt 0.03808 0.24660
vt 0.03156 0.24660
vt 0.03798 0.23773
vt 0.04113 0.21286
vt 0.04493 0.21078
vt 0.04509 0.21619
vt 0.05140 0.71724
vt 0.05805 0.72029
vt 0.05360 0.72279
vt 0.71190 0.98656
vt 0.70876 0.97847
vt 0.71403 0.98309
vt 0.05360 0.72279
vt 0.05805 0.72029
vt 0.05712 0.72667
vt 0.96636 0.63059
vt 0.96278 0.63678
vt 0.96414 0.61489
vt 0.28395 0.02845
vt 0.27522 0.02949
vt 0.28396 0.02349
vt 0.46867 0.06808
vt 0.46879 0.06484
vt 0.48243 0.06673
vt 0.79517 0.98891
vt 0.79952 0.98179
vt 0.80056 0.98839
vt 0.16309 0.99809
vt 0.15711 0.99587
vt 0.16094 0.99161
vt 0.27552 0.02534
vt 0.28396 0.02349
vt 0.27522 0.02949
vt 0.13870 0.01345
vt 0.14209 0.01326
vt 0.13959 0.02031
vt 0.95055 0.97578
vt 0.95058 0.98279
vt 0.94702 0.97985
vt 0.97895 0.59636
vt 0.97231 0.59458
vt 0.97172 0.58607
vt 0.33503 0.37003
vt 0.34036 0.36972
vt 0.33529 0.37986
vt 0.03798 0.23773
vt 0.03156 0.24660
vt 0.03153 0.23796
vt 0.34239 0.35824
vt 0.34036 0.36972
vt 0.33503 0.37003
vt 0.86607 0.95178
vt 0.87773 0.95323
vt 0.87748 0.96102
vt 0.69409 0.01873
vt 0.69409 0.02411
vt 0.68467 0.01587
vt 0.58097 0.87882
vt 0.58624 0.87981
vt 0.58661 0.89393
vt 0.86607 0.95179
vt 0.87748 0.96102
vt 0.86607 0.95901
vt 0.04933 0.72647
vt 0.05360 0.72279
vt 0.05712 0.72667
vt 0.45508 0.52567
vt 0.45597 0.53505
vt 0.45109 0.53733
vt 0.10988 0.14657
vt 0.10426 0.13372
vt 0.11008 0.13357
vt 0.10426 0.13372
vt 0.10988 0.14657
vt 0.10310 0.14741
vt 0.69109 0.89274
vt 0.68880 0.88669
vt 0.70429 0.89279
vt 0.00802 0.35922
vt 0.01436 0.35922
vt 0.00932 0.36430
vt 0.07994 0.97334
vt 0.07911 0.98108
vt 0.07046 0.98108
vt 0.12530 0.98874
vt 0.12380 0.99336
vt 0.11836 0.98924
vt 0.05515 0.52533
vt 0.05109 0.52887
vt 0.04531 0.52614
vt 0.33526 0.37985
vt 0.34036 0.36972
vt 0.33729 0.39307
vt 0.36331 0.98407
vt 0.36797 0.99097
vt 0.36450 0.99190
vt 0.45525 0.52574
vt 0.45109 0.53733
vt 0.45287 0.52321
vt 0.15573 0.99120
vt 0.16094 0.99161
vt 0.15711 0.99587
vt 0.13966 0.96412
vt 0.13344 0.96611
vt 0.12941 0.95988
vt 0.43653 0.02033
vt 0.43597 0.02430
vt 0.42676 0.01942
vt 0.60775 0.22192
vt 0.60334 0.20954
vt 0.61043 0.19594
vt 0.98105 0.58289
vt 0.97874 0.59653
vt 0.97172 0.58607
vt 0.76658 0.92556
vt 0.76375 0.93205
vt 0.76071 0.92530
vt 0.36331 0.98407
vt 0.36748 0.98615
vt 0.36797 0.99097
vt 0.12944 0.95984
vt 0.13959 0.95881
vt 0.13966 0.96412
vt 0.01422 0.58841
vt 0.01738 0.59260
vt 0.01163 0.59154
vt 0.07274 0.85080
vt 0.07826 0.83956
vt 0.08293 0.85114
vt 0.22965 0.91538
vt 0.23079 0.90163
vt 0.23415 0.91439
vt 0.34036 0.36972
vt 0.34394 0.36979
vt 0.33764 0.39310
vt 0.43597 0.02430
vt 0.42679 0.02399
vt 0.42677 0.01939
vt 0.73594 0.96822
vt 0.72942 0.97807
vt 0.72993 0.96910
vt 0.72931 0.97800
vt 0.73594 0.96822
vt 0.73553 0.97760
vt 0.70518 0.00336
vt 0.70593 0.01272
vt 0.70233 0.00675
vt 0.68492 0.02466
vt 0.68459 0.01600
vt 0.69409 0.02411
vt 0.07046 0.98108
vt 0.07023 0.97578
vt 0.07999 0.97342
vt 0.36887 0.99235
vt 0.36946 0.99651
vt 0.36407 0.99386
vt 0.76054 0.92532
vt 0.76369 0.93206
vt 0.75853 0.92923
vt 0.34335 0.39295
vt 0.33767 0.39311
vt 0.34394 0.36979
vt 0.72133 0.76560
vt 0.72611 0.74205
vt 0.72664 0.75523
vt 0.72667 0.75524
vt 0.72657 0.76429
vt 0.72132 0.76560
vt 0.63349 0.72273
vt 0.62896 0.70814
vt 0.63297 0.69662
vt 0.72132 0.76560
vt 0.72128 0.74243
vt 0.72611 0.74205
vt 0.07568 0.09159
vt 0.08531 0.09943
vt 0.07432 0.09450
vt 0.91863 0.34887
vt 0.91821 0.33742
vt 0.92382 0.34937
vt 0.52964 0.83282
vt 0.52244 0.85029
vt 0.52168 0.83774
vt 0.75853 0.92923
vt 0.76368 0.93210
vt 0.76045 0.93679
vt 0.77541 0.82755
vt 0.77767 0.80871
vt 0.77844 0.81411
vt 0.80228 0.54230
vt 0.85118 0.55731
vt 0.80056 0.54893
vt 0.91819 0.33738
vt 0.92427 0.29819
vt 0.92385 0.34932
vt 0.37820 0.55327
vt 0.38175 0.58430
vt 0.37579 0.58506
vt 0.80053 0.54914
vt 0.85118 0.55731
vt 0.84927 0.56412
vt 0.51548 0.83370
vt 0.51861 0.83381
vt 0.51948 0.84524
vt 0.27574 0.87549
vt 0.26820 0.87749
vt 0.26933 0.87233
vt 0.00615 0.77598
vt 0.00506 0.77146
vt 0.00828 0.77136
vt 0.27574 0.87549
vt 0.26934 0.87228
vt 0.27555 0.86984
vt 0.81512 0.57047
vt 0.79924 0.55616
vt 0.84967 0.56438
vt 0.44954 0.51362
vt 0.45088 0.50206
vt 0.45288 0.52311
vt 0.10464 0.47548
vt 0.09303 0.47493
vt 0.10488 0.47097
vt 0.91847 0.31296
vt 0.92427 0.29819
vt 0.91809 0.33736
vt 0.37407 0.54676
vt 0.37554 0.58509
vt 0.37323 0.58264
vt 0.37797 0.55327
vt 0.37554 0.58509
vt 0.37407 0.54676
vt 0.31217 0.93545
vt 0.30705 0.93997
vt 0.30513 0.93397
vt 0.18717 0.83777
vt 0.20248 0.83898
vt 0.18727 0.84034
vt 0.60890 0.03883
vt 0.60970 0.03399
vt 0.64386 0.03673
vt 0.32664 0.24729
vt 0.32859 0.23418
vt 0.33004 0.26537
vt 0.62862 0.72309
vt 0.62918 0.70809
vt 0.63349 0.72273
vt 0.26371 0.88042
vt 0.26311 0.87451
vt 0.26820 0.87753
vt 0.26824 0.87748
vt 0.26299 0.87471
vt 0.26912 0.87240
vt 0.25732 0.86848
vt 0.26334 0.87455
vt 0.26310 0.88030
vt 0.00491 0.39454
vt 0.00410 0.39209
vt 0.00981 0.39395
vt 0.43768 0.03881
vt 0.44179 0.05709
vt 0.43796 0.07307
vt 0.45086 0.50203
vt 0.45326 0.48722
vt 0.45286 0.52312
vt 0.32668 0.25763
vt 0.32671 0.24741
vt 0.32995 0.26541
vt 0.91833 0.31296
vt 0.91801 0.33736
vt 0.91644 0.31316
vt 0.99393 0.38622
vt 0.99606 0.40119
vt 0.99226 0.40004
vt 0.65188 0.76309
vt 0.62796 0.76128
vt 0.65212 0.76010
vt 0.02252 0.50103
vt 0.03076 0.49981
vt 0.03033 0.50560
vt 0.52830 0.91416
vt 0.54231 0.91416
vt 0.53011 0.91644
vt 0.43768 0.03881
vt 0.44347 0.04037
vt 0.44179 0.05709
vt 0.65190 0.76318
vt 0.63983 0.76618
vt 0.62795 0.76126
vt 0.84564 0.94663
vt 0.84558 0.93387
vt 0.85130 0.93704
vt 0.99429 0.68471
vt 0.99794 0.68432
vt 0.99357 0.69858
vt 0.00494 0.94700
vt 0.00278 0.95033
vt 0.00111 0.94693
vt 0.95993 0.90754
vt 0.97394 0.90754
vt 0.96198 0.91284
vt 0.31218 0.93548
vt 0.31876 0.93522
vt 0.31544 0.94030
vt 0.99798 0.68433
vt 0.99811 0.69917
vt 0.99361 0.69859
vt 0.02732 0.21750
vt 0.02582 0.20913
vt 0.02823 0.21465
vt 0.32528 0.90935
vt 0.32692 0.90276
vt 0.33899 0.90278
vt 0.32528 0.90935
vt 0.33901 0.90281
vt 0.33894 0.91118
vt 0.95884 0.03361
vt 0.97006 0.02568
vt 0.97088 0.03456
vt 0.03875 0.06451
vt 0.03396 0.06155
vt 0.04012 0.05626
vt 0.07407 0.77411
vt 0.06844 0.77320
vt 0.07169 0.76287
vt 0.01160 0.83647
vt 0.01152 0.83119
vt 0.01615 0.83149
vt 0.73981 0.85027
vt 0.74589 0.85038
vt 0.74516 0.86717
vt 0.32656 0.24732
vt 0.32668 0.25763
vt 0.32131 0.24738
vt 0.37819 0.55327
vt 0.37386 0.54677
vt 0.38036 0.55192
vt 0.10869 0.08012
vt 0.10833 0.08611
vt 0.09576 0.08274
vt 0.32668 0.25763
vt 0.33002 0.26538
vt 0.32900 0.26685
vt 0.06844 0.77320
vt 0.06584 0.76519
vt 0.07161 0.76286
vt 0.97902 0.40180
vt 0.98167 0.40822
vt 0.97064 0.41120
vt 0.02082 0.39185
vt 0.02745 0.38592
vt 0.02714 0.39473
vt 0.10238 0.00531
vt 0.09932 0.00694
vt 0.09307 0.00472
vt 0.18086 0.29725
vt 0.18801 0.29512
vt 0.19055 0.29847
vt 0.32174 0.26126
vt 0.32131 0.24738
vt 0.32668 0.25763
vt 0.00108 0.94694
vt 0.00277 0.95033
vt 0.00000 0.94801
vt 0.92536 0.71710
vt 0.92134 0.72382
vt 0.92134 0.71684
vt 0.99846 0.43551
vt 0.98413 0.44036
vt 0.98422 0.43448
vt 0.32618 0.26424
vt 0.32178 0.26147
vt 0.32668 0.25763
vt 0.18085 0.29733
vt 0.19055 0.29847
vt 0.18138 0.30262
vt 0.01352 0.72206
vt 0.02234 0.72219
vt 0.01929 0.72449
vt 0.98706 0.40397
vt 0.98157 0.40826
vt 0.97902 0.40180
vt 0.16074 0.41941
vt 0.16350 0.43704
vt 0.15823 0.43347
vt 0.06534 0.97785
vt 0.06171 0.97316
vt 0.07064 0.97344
vt 0.74224 0.62946
vt 0.74117 0.63827
vt 0.74089 0.62929
vt 0.92140 0.72387
vt 0.92536 0.71710
vt 0.92451 0.72699
vt 0.36264 0.93849
vt 0.35861 0.94927
vt 0.35694 0.93684
vt 0.36218 0.02380
vt 0.35810 0.02882
vt 0.35746 0.01799
vt 0.13547 0.60343
vt 0.14250 0.58702
vt 0.14173 0.60343
vt 0.18138 0.30262
vt 0.19055 0.29847
vt 0.19414 0.30842
vt 0.04337 0.92422
vt 0.05028 0.91370
vt 0.05251 0.92035
vt 0.91853 0.31298
vt 0.92007 0.29802
vt 0.92427 0.29819
vt 0.18138 0.30262
vt 0.19414 0.30842
vt 0.17874 0.30800
vt 0.09937 0.61639
vt 0.09845 0.60431
vt 0.10187 0.61045
vt 0.20978 0.97826
vt 0.20715 0.99003
vt 0.20425 0.97841
vt 0.99292 0.90000
vt 0.99479 0.88611
vt 0.99897 0.89424
vt 0.59021 0.95465
vt 0.57631 0.95351
vt 0.59031 0.95001
vt 0.19181 0.02786
vt 0.19843 0.02879
vt 0.19066 0.03375
vt 0.47991 0.86638
vt 0.47693 0.87793
vt 0.46437 0.86662
vt 0.57666 0.93291
vt 0.57348 0.92053
vt 0.57983 0.92039
vt 0.98413 0.44036
vt 0.99846 0.43551
vt 0.99824 0.44043
vt 0.04337 0.92422
vt 0.04345 0.91504
vt 0.05028 0.91370
vt 0.19843 0.02879
vt 0.19898 0.03357
vt 0.19066 0.03375
vt 0.14250 0.58702
vt 0.13547 0.60343
vt 0.13588 0.58933
vt 0.46430 0.86671
vt 0.47676 0.87812
vt 0.46712 0.87718
vt 0.19898 0.03357
vt 0.19843 0.02879
vt 0.20194 0.02785
vt 0.18273 0.31701
vt 0.17857 0.31437
vt 0.17874 0.30800
vt 0.92134 0.71684
vt 0.92091 0.70042
vt 0.92536 0.71710
vt 0.27334 0.87975
vt 0.28224 0.86911
vt 0.28731 0.86997
vt 0.28713 0.86961
vt 0.28874 0.88006
vt 0.27371 0.88046
vt 0.17874 0.30800
vt 0.18658 0.31115
vt 0.18273 0.31701
vt 0.92091 0.70042
vt 0.92485 0.70016
vt 0.92536 0.71710
vt 0.35861 0.94927
vt 0.36264 0.93849
vt 0.36206 0.94819
vt 0.70375 0.81345
vt 0.71277 0.81198
vt 0.71970 0.81919
vt 0.71970 0.81919
vt 0.71293 0.81183
vt 0.72710 0.80591
vt 0.19414 0.30843
vt 0.18982 0.31341
vt 0.18658 0.31115
vt 0.62673 0.62801
vt 0.61834 0.63636
vt 0.59327 0.62301
vt 0.71087 0.80718
vt 0.70375 0.81345
vt 0.70563 0.80714
vt 0.19414 0.30842
vt 0.18658 0.31115
vt 0.17874 0.30800
vt 0.71092 0.80724
vt 0.71276 0.81195
vt 0.70375 0.81345
vt 0.40066 0.31856
vt 0.38878 0.32417
vt 0.37413 0.31954
vt 0.66181 0.67558
vt 0.62557 0.67388
vt 0.65508 0.66937
vt 0.84127 0.60814
vt 0.87755 0.60963
vt 0.86349 0.61544
vt 0.25814 0.51934
vt 0.26334 0.54120
vt 0.25831 0.54045
vt 0.38878 0.32417
vt 0.40066 0.31856
vt 0.41211 0.32156
vt 0.26449 0.51467
vt 0.26343 0.54118
vt 0.25814 0.51934
vt 0.74117 0.63827
vt 0.74117 0.63827
vt 0.74117 0.63827
vt 0.74117 0.63827
vt 0.74117 0.63827
vt 0.74117 0.63827
vt 0.74117 0.63827
vt 0.74117 0.63827
vt 0.74117 0.63827
vt 0.74117 0.63827
vt 0.74117 0.63827
vn 0.2929 -0.4815 -0.8260
vn 0.9500 -0.1266 -0.2855
vn 0.8036 0.0762 0.5902
vn 0.9500 -0.1266 -0.2855
vn 0.3723 -0.4111 -0.8321
vn 0.9423 0.1670 -0.2902
vn 0.8873 0.3574 0.2915
vn 0.9500 -0.1266 -0.2855
vn 0.9423 0.1670 -0.2902
vn 0.8873 0.3574 0.2915
vn 0.8036 0.0762 0.5902
vn 0.9500 -0.1266 -0.2855
vn 0.1167 -0.7129 0.6915
vn 0.0721 -0.9673 -0.2432
vn 0.2929 -0.4815 -0.8260
vn 0.1167 -0.7129 0.6915
vn 0.2929 -0.4815 -0.8260
vn 0.8036 0.0762 0.5902
vn 0.7049 -0.6879 0.1727
vn 0.8873 0.3574 0.2915
vn 0.5835 0.7709 0.2556
vn 0.7292 0.0783 0.6799
vn 0.8873 0.3574 0.2915
vn 0.9423 0.1670 -0.2902
vn 0.0721 -0.9673 -0.2432
vn -0.8622 -0.3418 -0.3739
vn 0.2929 -0.4815 -0.8260
vn 0.1167 -0.7129 0.6915
vn 0.8036 0.0762 0.5902
vn -0.6541 -0.0463 0.7550
vn 0.7049 -0.6879 0.1727
vn 0.5835 0.7709 0.2556
vn -0.2885 0.6881 0.6658
vn 0.7049 -0.6879 0.1727
vn -0.2885 0.6881 0.6658
vn 0.1793 -0.5682 0.8031
vn 0.2929 -0.4815 -0.8260
vn 0.3723 -0.4111 -0.8321
vn 0.9500 -0.1266 -0.2855
vn 0.9423 0.1670 -0.2902
vn 0.3723 -0.4111 -0.8321
vn 0.4348 -0.2414 -0.8676
vn 0.3723 -0.4111 -0.8321
vn -0.1939 -0.5551 -0.8088
vn 0.4348 -0.2414 -0.8676
vn 0.1188 0.6060 0.7865
vn 0.5090 0.0741 0.8576
vn 0.8036 0.0762 0.5902
vn 0.1167 -0.7129 0.6915
vn -0.8622 -0.3418 -0.3739
vn 0.0721 -0.9673 -0.2432
vn 0.5090 0.0741 0.8576
vn -0.6541 -0.0463 0.7550
vn 0.8036 0.0762 0.5902
vn 0.9336 0.1431 0.3285
vn 0.7292 0.0783 0.6799
vn 0.9369 0.2862 0.2007
vn 0.3723 -0.4111 -0.8321
vn -0.6376 -0.4906 -0.5940
vn -0.3938 -0.8915 -0.2241
vn -0.3938 -0.8915 -0.2241
vn -0.5729 -0.3830 -0.7247
vn 0.3723 -0.4111 -0.8321
vn 0.8873 0.3574 0.2915
vn 0.1188 0.6060 0.7865
vn 0.8036 0.0762 0.5902
vn 0.9369 0.2862 0.2007
vn 0.7292 0.0783 0.6799
vn 0.9423 0.1670 -0.2902
vn 0.9423 0.1670 -0.2902
vn 0.4348 -0.2414 -0.8676
vn 0.2693 -0.1567 -0.9502
vn -0.8622 -0.3418 -0.3739
vn 0.1167 -0.7129 0.6915
vn -0.6541 -0.0463 0.7550
vn 0.9336 0.1431 0.3285
vn 0.8786 0.3591 0.3149
vn 0.4734 0.8117 0.3421
vn 0.5090 0.0741 0.8576
vn 0.1188 0.6060 0.7865
vn 0.4499 -0.3853 0.8057
vn -0.6376 -0.4906 -0.5940
vn 0.3723 -0.4111 -0.8321
vn 0.2929 -0.4815 -0.8260
vn 0.8873 0.3574 0.2915
vn 0.7292 0.0783 0.6799
vn -0.5611 0.4680 0.6827
vn -0.1939 -0.5551 -0.8088
vn -0.4838 -0.1693 -0.8586
vn 0.4348 -0.2414 -0.8676
vn 0.9336 0.1431 0.3285
vn 0.4734 0.8117 0.3421
vn 0.8805 -0.2843 0.3793
vn 0.4499 -0.3853 0.8057
vn 0.1188 0.6060 0.7865
vn 0.3653 0.6865 0.6287
vn 0.2929 -0.4815 -0.8260
vn -0.8622 -0.3418 -0.3739
vn -0.6376 -0.4906 -0.5940
vn 0.3723 -0.4111 -0.8321
vn -0.5729 -0.3830 -0.7247
vn -0.1939 -0.5551 -0.8088
vn 0.8873 0.3574 0.2915
vn 0.0137 -0.2282 0.9735
vn 0.1188 0.6060 0.7865
vn 0.8786 0.3591 0.3149
vn 0.9336 0.1431 0.3285
vn 0.9369 0.2862 0.2007
vn -0.2885 0.6881 0.6658
vn 0.5835 0.7709 0.2556
vn 0.8873 0.3574 0.2915
vn -0.5729 -0.3830 -0.7247
vn -0.4703 -0.8613 -0.1925
vn -0.1939 -0.5551 -0.8088
vn 0.5090 0.0741 0.8576
vn 0.4499 -0.3853 0.8057
vn -0.7066 -0.2527 0.6609
vn -0.5611 0.4680 0.6827
vn -0.2885 0.6881 0.6658
vn 0.8873 0.3574 0.2915
vn 0.7049 -0.6879 0.1727
vn 0.1793 -0.5682 0.8031
vn 0.8873 0.3574 0.2915
vn 0.4579 -0.3786 0.8043
vn 0.7292 0.0783 0.6799
vn 0.9336 0.1431 0.3285
vn 0.9336 0.1431 0.3285
vn 0.5819 -0.5867 0.5633
vn 0.4579 -0.3786 0.8043
vn 0.9423 0.1670 -0.2902
vn 0.8480 0.1517 -0.5078
vn 0.9369 0.2862 0.2007
vn 0.3653 0.6865 0.6287
vn -0.7066 -0.2527 0.6609
vn 0.4499 -0.3853 0.8057
vn -0.7066 -0.2527 0.6609
vn -0.6541 -0.0463 0.7550
vn 0.5090 0.0741 0.8576
vn 0.5819 -0.5867 0.5633
vn 0.8805 -0.2843 0.3793
vn 0.0005 -0.4334 0.9012
vn 0.5819 -0.5867 0.5633
vn 0.0005 -0.4334 0.9012
vn -0.6959 -0.2476 0.6741
vn -0.3938 -0.8915 -0.2241
vn -0.6376 -0.4906 -0.5940
vn -0.7374 -0.4488 -0.5048
vn 0.7292 0.0783 0.6799
vn -0.3956 -0.2048 0.8953
vn -0.5611 0.4680 0.6827
vn 0.4579 -0.3786 0.8043
vn 0.5819 -0.5867 0.5633
vn -0.6959 -0.2476 0.6741
vn 0.9336 0.1431 0.3285
vn 0.8805 -0.2843 0.3793
vn 0.5819 -0.5867 0.5633
vn -0.4703 -0.8613 -0.1925
vn -0.3938 -0.8915 -0.2241
vn -0.7374 -0.4488 -0.5048
vn 0.2693 -0.1567 -0.9502
vn 0.8480 0.1517 -0.5078
vn 0.9423 0.1670 -0.2902
vn -0.5729 -0.3830 -0.7247
vn -0.3938 -0.8915 -0.2241
vn -0.4703 -0.8613 -0.1925
vn -0.7066 -0.2527 0.6609
vn -0.8977 -0.1889 -0.3981
vn -0.6541 -0.0463 0.7550
vn -0.8622 -0.3418 -0.3739
vn -0.8977 -0.1889 -0.3981
vn -0.6376 -0.4906 -0.5940
vn -0.6541 -0.0463 0.7550
vn -0.8977 -0.1889 -0.3981
vn -0.8622 -0.3418 -0.3739
vn -0.4838 -0.1693 -0.8586
vn -0.6145 0.5974 -0.5153
vn -0.7975 -0.5182 -0.3091
vn 0.7292 0.0783 0.6799
vn -0.3431 -0.5279 0.7769
vn -0.3956 -0.2048 0.8953
vn 0.1188 0.6060 0.7865
vn -0.7259 0.5703 0.3846
vn 0.3653 0.6865 0.6287
vn -0.5611 0.4680 0.6827
vn -0.6989 -0.6488 0.3011
vn -0.2885 0.6881 0.6658
vn 0.0137 -0.2282 0.9735
vn 0.8873 0.3574 0.2915
vn 0.1793 -0.5682 0.8031
vn 0.4579 -0.3786 0.8043
vn -0.3431 -0.5279 0.7769
vn 0.7292 0.0783 0.6799
vn -0.4838 -0.1693 -0.8586
vn -0.1939 -0.5551 -0.8088
vn -0.4936 0.2989 -0.8167
vn 0.4734 0.8117 0.3421
vn 0.0005 -0.4334 0.9012
vn 0.8805 -0.2843 0.3793
vn -0.3593 -0.0678 -0.9308
vn 0.2693 -0.1567 -0.9502
vn 0.4348 -0.2414 -0.8676
vn -0.3593 -0.0678 -0.9308
vn 0.4348 -0.2414 -0.8676
vn -0.4838 -0.1693 -0.8586
vn 0.9369 0.2862 0.2007
vn 0.9483 0.3022 0.0973
vn 0.8786 0.3591 0.3149
vn -0.7259 0.5703 0.3846
vn -0.7066 -0.2527 0.6609
vn 0.3653 0.6865 0.6287
vn 0.8836 0.4569 0.1022
vn 0.9369 0.2862 0.2007
vn 0.8480 0.1517 -0.5078
vn -0.6959 -0.2476 0.6741
vn -0.3431 -0.5279 0.7769
vn 0.4579 -0.3786 0.8043
vn -0.6145 0.5974 -0.5153
vn -0.4838 -0.1693 -0.8586
vn -0.4936 0.2989 -0.8167
vn -0.2885 0.6881 0.6658
vn -0.6989 -0.6488 0.3011
vn 0.1793 -0.5682 0.8031
vn -0.1680 0.5106 0.8432
vn 0.4734 0.8117 0.3421
vn 0.8786 0.3591 0.3149
vn -0.8977 -0.1889 -0.3981
vn -0.7374 -0.4488 -0.5048
vn -0.6376 -0.4906 -0.5940
vn -0.7374 -0.4488 -0.5048
vn -0.8977 -0.1889 -0.3981
vn -0.6015 -0.4375 -0.6685
vn 0.0137 -0.2282 0.9735
vn 0.1793 -0.5682 0.8031
vn -0.6989 -0.6488 0.3011
vn 0.1188 0.6060 0.7865
vn -0.5652 -0.0888 0.8202
vn -0.8977 -0.1889 -0.3981
vn 0.1188 0.6060 0.7865
vn 0.0137 -0.2282 0.9735
vn -0.5652 -0.0888 0.8202
vn -0.1939 -0.5551 -0.8088
vn -0.6593 -0.7513 -0.0288
vn -0.4936 0.2989 -0.8167
vn 0.0005 -0.4334 0.9012
vn 0.4734 0.8117 0.3421
vn -0.1680 0.5106 0.8432
vn -0.7975 -0.5182 -0.3091
vn -0.7968 -0.5914 -0.1235
vn -0.4838 -0.1693 -0.8586
vn -0.4703 -0.8613 -0.1925
vn -0.7374 -0.4488 -0.5048
vn -0.6593 -0.7513 -0.0288
vn -0.5652 -0.0888 0.8202
vn -0.6015 -0.4375 -0.6685
vn -0.8977 -0.1889 -0.3981
vn 0.9369 0.2862 0.2007
vn 0.7845 0.5890 0.1939
vn 0.9483 0.3022 0.0973
vn -0.9320 -0.1771 -0.3162
vn -0.8919 -0.2869 -0.3495
vn -0.7374 -0.4488 -0.5048
vn -0.5611 0.4680 0.6827
vn -0.3956 -0.2048 0.8953
vn -0.7685 -0.2621 0.5837
vn -0.6015 -0.4375 -0.6685
vn -0.9320 -0.1771 -0.3162
vn -0.7374 -0.4488 -0.5048
vn 0.1188 0.6060 0.7865
vn -0.8977 -0.1889 -0.3981
vn -0.7259 0.5703 0.3846
vn -0.1939 -0.5551 -0.8088
vn -0.4703 -0.8613 -0.1925
vn -0.6593 -0.7513 -0.0288
vn -0.7259 0.5703 0.3846
vn -0.8977 -0.1889 -0.3981
vn -0.7066 -0.2527 0.6609
vn -0.1680 0.5106 0.8432
vn 0.8786 0.3591 0.3149
vn 0.9483 0.3022 0.0973
vn -0.4838 -0.1693 -0.8586
vn 0.4956 -0.4169 -0.7619
vn -0.2150 0.3313 -0.9187
vn -0.3956 -0.2048 0.8953
vn -0.3431 -0.5279 0.7769
vn -0.7685 -0.2621 0.5837
vn 0.8836 0.4569 0.1022
vn 0.7845 0.5890 0.1939
vn 0.9369 0.2862 0.2007
vn 0.0005 -0.4334 0.9012
vn -0.1680 0.5106 0.8432
vn -0.7811 0.0714 0.6203
vn -0.6145 0.5974 -0.5153
vn -0.7968 -0.5914 -0.1235
vn -0.7975 -0.5182 -0.3091
vn -0.5611 0.4680 0.6827
vn 0.0137 -0.2282 0.9735
vn -0.6989 -0.6488 0.3011
vn -0.7811 0.0714 0.6203
vn -0.1680 0.5106 0.8432
vn 0.5973 -0.5431 0.5902
vn -0.8919 -0.2869 -0.3495
vn -0.9456 0.2820 0.1622
vn -0.6593 -0.7513 -0.0288
vn -0.3593 -0.0678 -0.9308
vn -0.4838 -0.1693 -0.8586
vn -0.2150 0.3313 -0.9187
vn -0.6780 0.4963 0.5422
vn -0.5652 -0.0888 0.8202
vn 0.0137 -0.2282 0.9735
vn -0.3431 -0.5279 0.7769
vn -0.6959 -0.2476 0.6741
vn -0.7685 -0.2621 0.5837
vn 0.5973 -0.5431 0.5902
vn -0.1680 0.5106 0.8432
vn 0.9483 0.3022 0.0973
vn -0.6593 -0.7513 -0.0288
vn -0.7374 -0.4488 -0.5048
vn -0.8919 -0.2869 -0.3495
vn 0.4280 0.8669 0.2556
vn 0.8965 -0.1854 0.4023
vn 0.9483 0.3022 0.0973
vn -0.4186 -0.8239 -0.3820
vn -0.3593 -0.0678 -0.9308
vn -0.9509 0.1500 -0.2709
vn 0.4280 0.8669 0.2556
vn 0.9483 0.3022 0.0973
vn 0.7845 0.5890 0.1939
vn -0.6145 0.5974 -0.5153
vn -0.8919 -0.2869 -0.3495
vn -0.7968 -0.5914 -0.1235
vn -0.6780 0.4963 0.5422
vn 0.0137 -0.2282 0.9735
vn -0.5611 0.4680 0.6827
vn -0.8919 -0.2869 -0.3495
vn -0.9320 -0.1771 -0.3162
vn -0.7968 -0.5914 -0.1235
vn 0.2693 -0.1567 -0.9502
vn 0.5167 -0.5597 -0.6479
vn 0.8480 0.1517 -0.5078
vn -0.6015 -0.4375 -0.6685
vn -0.5652 -0.0888 0.8202
vn -0.6482 -0.7534 -0.1105
vn -0.8919 -0.2869 -0.3495
vn -0.6145 0.5974 -0.5153
vn -0.9456 0.2820 0.1622
vn -0.3128 -0.8259 -0.4691
vn -0.2150 0.3313 -0.9187
vn 0.4956 -0.4169 -0.7619
vn 0.4956 -0.4169 -0.7619
vn -0.4838 -0.1693 -0.8586
vn -0.7968 -0.5914 -0.1235
vn -0.3593 -0.0678 -0.9308
vn 0.5167 -0.5597 -0.6479
vn 0.2693 -0.1567 -0.9502
vn -0.7811 0.0714 0.6203
vn -0.6959 -0.2476 0.6741
vn 0.0005 -0.4334 0.9012
vn 0.4280 0.8669 0.2556
vn -0.3888 0.5422 0.7449
vn 0.8965 -0.1854 0.4023
vn -0.6145 0.5974 -0.5153
vn -0.4936 0.2989 -0.8167
vn -0.9456 0.2820 0.1622
vn 0.9483 0.3022 0.0973
vn 0.8965 -0.1854 0.4023
vn 0.5973 -0.5431 0.5902
vn 0.4956 -0.4169 -0.7619
vn -0.7968 -0.5914 -0.1235
vn -0.3128 -0.8259 -0.4691
vn 0.5973 -0.5431 0.5902
vn 0.8965 -0.1854 0.4023
vn 0.0213 -0.4700 0.8824
vn -0.4186 -0.8239 -0.3820
vn 0.5167 -0.5597 -0.6479
vn -0.3593 -0.0678 -0.9308
vn -0.2150 0.3313 -0.9187
vn -0.9194 0.3851 0.0794
vn -0.3593 -0.0678 -0.9308
vn -0.6015 -0.4375 -0.6685
vn -0.6482 -0.7534 -0.1105
vn -0.9320 -0.1771 -0.3162
vn -0.4936 0.2989 -0.8167
vn -0.6593 -0.7513 -0.0288
vn -0.9456 0.2820 0.1622
vn 0.8480 0.1517 -0.5078
vn 0.5167 -0.5597 -0.6479
vn 0.4620 -0.5320 -0.7096
vn -0.9509 0.1500 -0.2709
vn -0.3593 -0.0678 -0.9308
vn -0.9194 0.3851 0.0794
vn -0.6780 0.4963 0.5422
vn -0.5611 0.4680 0.6827
vn -0.9320 -0.1771 -0.3162
vn -0.3128 -0.8259 -0.4691
vn -0.7968 -0.5914 -0.1235
vn -0.7075 -0.6688 0.2285
vn -0.7685 -0.2621 0.5837
vn -0.6959 -0.2476 0.6741
vn -0.7811 0.0714 0.6203
vn -0.7968 -0.5914 -0.1235
vn -0.7962 -0.5016 -0.3383
vn -0.9509 0.1500 -0.2709
vn 0.8965 -0.1854 0.4023
vn -0.3888 0.5422 0.7449
vn 0.0213 -0.4700 0.8824
vn -0.9320 -0.1771 -0.3162
vn -0.7962 -0.5016 -0.3383
vn -0.7968 -0.5914 -0.1235
vn -0.5611 0.4680 0.6827
vn -0.7685 -0.2621 0.5837
vn -0.7962 -0.5016 -0.3383
vn -0.3128 -0.8259 -0.4691
vn -0.7075 -0.6688 0.2285
vn -0.2150 0.3313 -0.9187
vn 0.5973 -0.5431 0.5902
vn -0.7153 -0.2462 0.6540
vn -0.7811 0.0714 0.6203
vn -0.5611 0.4680 0.6827
vn -0.7962 -0.5016 -0.3383
vn -0.9320 -0.1771 -0.3162
vn -0.7153 -0.2462 0.6540
vn 0.5973 -0.5431 0.5902
vn 0.0213 -0.4700 0.8824
vn -0.8192 -0.1726 0.5470
vn -0.8790 0.2835 0.3834
vn -0.7811 0.0714 0.6203
vn -0.6780 0.4963 0.5422
vn -0.6482 -0.7534 -0.1105
vn -0.5652 -0.0888 0.8202
vn -0.6482 -0.7534 -0.1105
vn -0.6780 0.4963 0.5422
vn -0.9320 -0.1771 -0.3162
vn -0.2577 -0.8171 -0.5157
vn -0.4186 -0.8239 -0.3820
vn -0.9509 0.1500 -0.2709
vn 0.5432 -0.5424 -0.6408
vn 0.5167 -0.5597 -0.6479
vn -0.4186 -0.8239 -0.3820
vn -0.7153 -0.2462 0.6540
vn 0.0213 -0.4700 0.8824
vn -0.3888 0.5422 0.7449
vn -0.1796 -0.5392 -0.8228
vn 0.5167 -0.5597 -0.6479
vn 0.5432 -0.5424 -0.6408
vn -0.7811 0.0714 0.6203
vn -0.8790 0.2835 0.3834
vn -0.7995 0.0217 0.6002
vn -0.9509 0.1500 -0.2709
vn -0.7962 -0.5016 -0.3383
vn -0.2577 -0.8171 -0.5157
vn -0.7685 -0.2621 0.5837
vn -0.6346 -0.7636 -0.1193
vn -0.7962 -0.5016 -0.3383
vn -0.8192 -0.1726 0.5470
vn -0.7811 0.0714 0.6203
vn -0.7153 -0.2462 0.6540
vn -0.1796 -0.5392 -0.8228
vn 0.4620 -0.5320 -0.7096
vn 0.5167 -0.5597 -0.6479
vn -0.3888 0.5422 0.7449
vn 0.4280 0.8669 0.2556
vn 0.7845 0.5890 0.1939
vn -0.9509 0.1500 -0.2709
vn -0.9194 0.3851 0.0794
vn -0.7968 -0.5914 -0.1235
vn 0.7845 0.5890 0.1939
vn 0.8836 0.4569 0.1022
vn 0.3225 0.8784 0.3526
vn -0.7995 0.0217 0.6002
vn -0.7685 -0.2621 0.5837
vn -0.7811 0.0714 0.6203
vn -0.4186 -0.8239 -0.3820
vn -0.2577 -0.8171 -0.5157
vn -0.0345 -0.8714 -0.4894
vn -0.7685 -0.2621 0.5837
vn -0.4089 -0.5620 0.7190
vn -0.6346 -0.7636 -0.1193
vn 0.7845 0.5890 0.1939
vn -0.7884 0.0196 0.6149
vn -0.3888 0.5422 0.7449
vn 0.5432 -0.5424 -0.6408
vn -0.4186 -0.8239 -0.3820
vn -0.0345 -0.8714 -0.4894
vn 0.7845 0.5890 0.1939
vn 0.2314 0.8101 0.5387
vn -0.7884 0.0196 0.6149
vn -0.7685 -0.2621 0.5837
vn -0.7995 0.0217 0.6002
vn -0.4089 -0.5620 0.7190
vn -0.7962 -0.5016 -0.3383
vn -0.6346 -0.7636 -0.1193
vn -0.2577 -0.8171 -0.5157
vn -0.9194 0.3851 0.0794
vn -0.7075 -0.6688 0.2285
vn -0.7968 -0.5914 -0.1235
vn -0.8790 0.2835 0.3834
vn -0.7578 -0.2534 0.6013
vn -0.7995 0.0217 0.6002
vn -0.7578 -0.2534 0.6013
vn -0.8790 0.2835 0.3834
vn -0.8192 -0.1726 0.5470
vn -0.0345 -0.8714 -0.4894
vn -0.1796 -0.5392 -0.8228
vn 0.5432 -0.5424 -0.6408
vn -0.9194 0.3851 0.0794
vn -0.2150 0.3313 -0.9187
vn -0.7075 -0.6688 0.2285
vn -0.3888 0.5422 0.7449
vn -0.7884 0.0196 0.6149
vn -0.7153 -0.2462 0.6540
vn -0.0345 -0.8714 -0.4894
vn -0.3927 -0.8500 -0.3511
vn -0.5699 -0.5071 -0.6466
vn -0.0345 -0.8714 -0.4894
vn -0.2577 -0.8171 -0.5157
vn -0.3927 -0.8500 -0.3511
vn -0.7715 -0.6116 -0.1755
vn -0.2577 -0.8171 -0.5157
vn -0.6346 -0.7636 -0.1193
vn -0.7715 -0.6116 -0.1755
vn -0.4089 -0.5620 0.7190
vn -0.7995 0.0217 0.6002
vn -0.7995 0.0217 0.6002
vn -0.7578 -0.2534 0.6013
vn -0.7715 -0.6116 -0.1755
vn 0.3225 0.8784 0.3526
vn 0.4900 0.6989 0.5210
vn 0.7845 0.5890 0.1939
vn -0.7715 -0.6116 -0.1755
vn -0.6346 -0.7636 -0.1193
vn -0.4089 -0.5620 0.7190
vn 0.2314 0.8101 0.5387
vn 0.7845 0.5890 0.1939
vn 0.4900 0.6989 0.5210
vn -0.1796 -0.5392 -0.8228
vn -0.4896 -0.2922 -0.8215
vn 0.4620 -0.5320 -0.7096
vn -0.0345 -0.8714 -0.4894
vn -0.4140 -0.2802 -0.8661
vn -0.1796 -0.5392 -0.8228
vn -0.3927 -0.8500 -0.3511
vn -0.2577 -0.8171 -0.5157
vn -0.7715 -0.6116 -0.1755
vn -0.4140 -0.2802 -0.8661
vn -0.0345 -0.8714 -0.4894
vn -0.5699 -0.5071 -0.6466
vn 0.4620 -0.5320 -0.7096
vn -0.0790 0.5238 -0.8482
vn 0.8480 0.1517 -0.5078
vn -0.4896 -0.2922 -0.8215
vn -0.0790 0.5238 -0.8482
vn 0.4620 -0.5320 -0.7096
vn -0.7793 -0.1182 0.6154
vn -0.7578 -0.2534 0.6013
vn -0.8192 -0.1726 0.5470
vn 0.8480 0.1517 -0.5078
vn -0.0790 0.5238 -0.8482
vn 0.4441 0.8808 -0.1640
vn -0.4140 -0.2802 -0.8661
vn -0.4896 -0.2922 -0.8215
vn -0.1796 -0.5392 -0.8228
vn -0.3927 -0.8500 -0.3511
vn -0.7715 -0.6116 -0.1755
vn -0.6396 -0.7361 -0.2216
vn -0.6540 0.1267 0.7458
vn 0.2314 0.8101 0.5387
vn 0.4900 0.6989 0.5210
vn -0.3927 -0.8500 -0.3511
vn -0.6396 -0.7361 -0.2216
vn -0.5699 -0.5071 -0.6466
vn 0.8836 0.4569 0.1022
vn 0.8480 0.1517 -0.5078
vn 0.4441 0.8808 -0.1640
vn -0.7884 0.0196 0.6149
vn -0.6540 0.1267 0.7458
vn -0.7153 -0.2462 0.6540
vn -0.6540 0.1267 0.7458
vn -0.7884 0.0196 0.6149
vn 0.2314 0.8101 0.5387
vn -0.4062 -0.2341 -0.8833
vn -0.0790 0.5238 -0.8482
vn -0.4896 -0.2922 -0.8215
vn -0.6368 0.4246 0.6435
vn -0.8192 -0.1726 0.5470
vn -0.7153 -0.2462 0.6540
vn -0.7793 -0.1182 0.6154
vn -0.8192 -0.1726 0.5470
vn -0.6368 0.4246 0.6435
vn -0.6396 -0.7361 -0.2216
vn -0.3713 -0.8315 -0.4131
vn -0.5699 -0.5071 -0.6466
vn 0.3225 0.8784 0.3526
vn 0.8836 0.4569 0.1022
vn 0.7082 0.6656 0.2354
vn 0.4441 0.8808 -0.1640
vn 0.1042 0.9820 0.1576
vn 0.8836 0.4569 0.1022
vn 0.1386 -0.0324 0.9898
vn -0.7578 -0.2534 0.6013
vn -0.7793 -0.1182 0.6154
vn 0.2697 0.7347 0.6224
vn 0.4900 0.6989 0.5210
vn 0.3225 0.8784 0.3526
vn -0.7578 -0.2534 0.6013
vn -0.5948 -0.5992 0.5360
vn -0.7715 -0.6116 -0.1755
vn -0.7715 -0.6116 -0.1755
vn -0.5948 -0.5992 0.5360
vn -0.6396 -0.7361 -0.2216
vn 0.1386 -0.0324 0.9898
vn -0.5948 -0.5992 0.5360
vn -0.7578 -0.2534 0.6013
vn 0.3225 0.8784 0.3526
vn 0.7082 0.6656 0.2354
vn 0.2697 0.7347 0.6224
vn 0.1042 0.9820 0.1576
vn 0.7082 0.6656 0.2354
vn 0.8836 0.4569 0.1022
vn -0.6540 0.1267 0.7458
vn -0.6368 0.4246 0.6435
vn -0.7153 -0.2462 0.6540
vn 0.1401 0.3023 0.9429
vn 0.1386 -0.0324 0.9898
vn -0.7793 -0.1182 0.6154
vn -0.4062 -0.2341 -0.8833
vn -0.4896 -0.2922 -0.8215
vn 0.1822 -0.3101 -0.9331
vn 0.4900 0.6989 0.5210
vn 0.2697 0.7347 0.6224
vn 0.3465 0.7917 0.5030
vn -0.4140 -0.2802 -0.8661
vn 0.1822 -0.3101 -0.9331
vn -0.4896 -0.2922 -0.8215
vn -0.5948 -0.5992 0.5360
vn 0.1386 -0.0324 0.9898
vn -0.7737 -0.5968 0.2128
vn 0.5049 -0.7434 -0.4386
vn -0.7177 -0.1048 -0.6884
vn -0.4140 -0.2802 -0.8661
vn 0.1042 0.9820 0.1576
vn 0.2865 0.9221 0.2602
vn 0.7082 0.6656 0.2354
vn -0.4140 -0.2802 -0.8661
vn -0.7177 -0.1048 -0.6884
vn 0.1822 -0.3101 -0.9331
vn -0.3897 -0.8669 -0.3107
vn -0.3713 -0.8315 -0.4131
vn -0.6396 -0.7361 -0.2216
vn 0.3465 0.7917 0.5030
vn -0.6368 0.4246 0.6435
vn 0.4900 0.6989 0.5210
vn 0.3465 0.7917 0.5030
vn 0.2697 0.7347 0.6224
vn -0.6368 0.4246 0.6435
vn -0.7177 -0.1048 -0.6884
vn 0.5049 -0.7434 -0.4386
vn -0.3477 0.4787 -0.8062
vn -0.6396 -0.7361 -0.2216
vn -0.5948 -0.5992 0.5360
vn -0.5036 -0.8141 -0.2892
vn -0.6368 0.4246 0.6435
vn -0.6540 0.1267 0.7458
vn 0.4900 0.6989 0.5210
vn -0.4140 -0.2802 -0.8661
vn -0.5072 -0.5423 -0.6698
vn 0.5049 -0.7434 -0.4386
vn -0.5699 -0.5071 -0.6466
vn -0.3713 -0.8315 -0.4131
vn -0.5072 -0.5423 -0.6698
vn -0.5699 -0.5071 -0.6466
vn -0.5072 -0.5423 -0.6698
vn -0.4140 -0.2802 -0.8661
vn -0.3713 -0.8315 -0.4131
vn -0.3897 -0.8669 -0.3107
vn -0.5072 -0.5423 -0.6698
vn -0.5036 -0.8141 -0.2892
vn -0.5948 -0.5992 0.5360
vn -0.7737 -0.5968 0.2128
vn -0.6396 -0.7361 -0.2216
vn -0.5036 -0.8141 -0.2892
vn -0.3897 -0.8669 -0.3107
vn 0.1386 -0.0324 0.9898
vn -0.2834 -0.5709 0.7705
vn -0.7737 -0.5968 0.2128
vn 0.2697 0.7347 0.6224
vn 0.7082 0.6656 0.2354
vn 0.2865 0.9221 0.2602
vn 0.1386 -0.0324 0.9898
vn 0.1401 0.3023 0.9429
vn -0.2834 -0.5709 0.7705
vn -0.7793 -0.1182 0.6154
vn -0.6368 0.4246 0.6435
vn -0.6226 0.0925 0.7771
vn 0.5049 -0.7434 -0.4386
vn -0.5072 -0.5423 -0.6698
vn -0.3477 0.4787 -0.8062
vn 0.1401 0.3023 0.9429
vn -0.7793 -0.1182 0.6154
vn -0.6226 0.0925 0.7771
vn -0.5036 -0.8141 -0.2892
vn -0.7737 -0.5968 0.2128
vn -0.3897 -0.8669 -0.3107
vn -0.7177 -0.1048 -0.6884
vn -0.0269 -0.9858 -0.1655
vn 0.1822 -0.3101 -0.9331
vn -0.6226 0.0925 0.7771
vn -0.6368 0.4246 0.6435
vn -0.6190 -0.0385 0.7845
vn -0.6226 0.0925 0.7771
vn -0.6351 0.4232 0.6462
vn 0.1401 0.3023 0.9429
vn 0.4441 0.8808 -0.1640
vn -0.0790 0.5238 -0.8482
vn -0.6123 0.3773 -0.6948
vn -0.6461 0.4210 0.6367
vn -0.2834 -0.5709 0.7705
vn 0.1401 0.3023 0.9429
vn -0.6368 0.4246 0.6435
vn 0.2697 0.7347 0.6224
vn -0.4255 -0.5515 0.7175
vn -0.5450 -0.0037 0.8384
vn -0.6226 0.0925 0.7771
vn -0.6190 -0.0385 0.7845
vn 0.2230 0.6466 0.7295
vn -0.4255 -0.5515 0.7175
vn 0.2697 0.7347 0.6224
vn -0.6351 0.4232 0.6462
vn -0.6461 0.4210 0.6367
vn 0.1401 0.3023 0.9429
vn 0.4441 0.8808 -0.1640
vn -0.6123 0.3773 -0.6948
vn 0.1042 0.9820 0.1576
vn -0.6190 -0.0385 0.7845
vn -0.6368 0.4246 0.6435
vn -0.4255 -0.5515 0.7175
vn -0.7533 0.6173 -0.2268
vn -0.0269 -0.9858 -0.1655
vn -0.7177 -0.1048 -0.6884
vn 0.2697 0.7347 0.6224
vn 0.2865 0.9221 0.2602
vn 0.2230 0.6466 0.7295
vn -0.6368 -0.7263 -0.2588
vn -0.5072 -0.5423 -0.6698
vn -0.3897 -0.8669 -0.3107
vn 0.1822 -0.3101 -0.9331
vn 0.2515 0.8567 -0.4504
vn -0.4062 -0.2341 -0.8833
vn -0.6226 0.0925 0.7771
vn -0.5450 -0.0037 0.8384
vn -0.6351 0.4232 0.6462
vn -0.6368 -0.7263 -0.2588
vn -0.7692 0.5722 -0.2845
vn -0.5072 -0.5423 -0.6698
vn -0.3897 -0.8669 -0.3107
vn -0.7737 -0.5968 0.2128
vn -0.6368 -0.7263 -0.2588
vn -0.4255 -0.5515 0.7175
vn -0.5618 0.7697 0.3032
vn -0.6190 -0.0385 0.7845
vn 0.1042 0.9820 0.1576
vn -0.6123 0.3773 -0.6948
vn -0.8758 0.3298 -0.3525
vn -0.5450 -0.0037 0.8384
vn -0.7533 0.6173 -0.2268
vn -0.6351 0.4232 0.6462
vn -0.4062 -0.2341 -0.8833
vn -0.6123 0.3773 -0.6948
vn -0.0790 0.5238 -0.8482
vn 0.1042 0.9820 0.1576
vn -0.8758 0.3298 -0.3525
vn 0.2865 0.9221 0.2602
vn -0.9311 0.1772 -0.3189
vn -0.6351 0.4232 0.6462
vn -0.7533 0.6173 -0.2268
vn -0.6351 0.4232 0.6462
vn -0.9311 0.1772 -0.3189
vn -0.6461 0.4210 0.6367
vn -0.8937 0.3391 -0.2939
vn -0.4062 -0.2341 -0.8833
vn 0.2515 0.8567 -0.4504
vn -0.2834 -0.5709 0.7705
vn -0.6461 0.4210 0.6367
vn -0.7737 -0.5968 0.2128
vn -0.3477 0.4787 -0.8062
vn -0.7692 0.5722 -0.2845
vn -0.7177 -0.1048 -0.6884
vn -0.6461 0.4210 0.6367
vn -0.9311 0.1772 -0.3189
vn -0.7737 -0.5968 0.2128
vn -0.5072 -0.5423 -0.6698
vn -0.7692 0.5722 -0.2845
vn -0.3477 0.4787 -0.8062
vn -0.4255 -0.5515 0.7175
vn 0.2230 0.6466 0.7295
vn -0.7039 0.3213 0.6335
vn -0.5450 -0.0037 0.8384
vn -0.0269 -0.9858 -0.1655
vn -0.7533 0.6173 -0.2268
vn -0.7692 0.5722 -0.2845
vn -0.7533 0.6173 -0.2268
vn -0.7177 -0.1048 -0.6884
vn -0.5618 0.7697 0.3032
vn -0.4255 -0.5515 0.7175
vn -0.7039 0.3213 0.6335
vn -0.7737 -0.5968 0.2128
vn -0.9311 0.1772 -0.3189
vn -0.6368 -0.7263 -0.2588
vn -0.7533 0.6173 -0.2268
vn -0.7692 0.5722 -0.2845
vn -0.9311 0.1772 -0.3189
vn -0.7039 0.3213 0.6335
vn 0.2230 0.6466 0.7295
vn 0.2865 0.9221 0.2602
vn -0.6190 -0.0385 0.7845
vn -0.5618 0.7697 0.3032
vn -0.5450 -0.0037 0.8384
vn -0.4062 -0.2341 -0.8833
vn -0.8937 0.3391 -0.2939
vn -0.8758 0.3298 -0.3525
vn -0.8758 0.3298 -0.3525
vn -0.6123 0.3773 -0.6948
vn -0.4062 -0.2341 -0.8833
vn 0.2865 0.9221 0.2602
vn -0.5618 0.7697 0.3032
vn -0.7039 0.3213 0.6335
vn -0.5618 0.7697 0.3032
vn -0.6583 0.5222 0.5422
vn -0.5450 -0.0037 0.8384
vn -0.7692 0.5722 -0.2845
vn -0.6368 -0.7263 -0.2588
vn -0.9311 0.1772 -0.3189
vn -0.6583 0.5222 0.5422
vn -0.8875 -0.0994 0.4499
vn -0.5450 -0.0037 0.8384
vn -0.5450 -0.0037 0.8384
vn -0.8875 -0.0994 0.4499
vn -0.6592 -0.0624 0.7494
vn -0.8758 0.3298 -0.3525
vn -0.6583 0.5222 0.5422
vn -0.5618 0.7697 0.3032
vn 0.1822 -0.3101 -0.9331
vn -0.0269 -0.9858 -0.1655
vn 0.8626 -0.4641 -0.2015
vn -0.8937 0.3391 -0.2939
vn -0.6583 0.5222 0.5422
vn -0.8758 0.3298 -0.3525
vn -0.8758 0.3298 -0.3525
vn -0.5618 0.7697 0.3032
vn 0.2865 0.9221 0.2602
vn -0.8937 0.3391 -0.2939
vn -0.8875 -0.0994 0.4499
vn -0.6583 0.5222 0.5422
vn 0.0619 -0.1016 0.9929
vn -0.6592 -0.0624 0.7494
vn -0.8875 -0.0994 0.4499
vn -0.5450 -0.0037 0.8384
vn -0.5714 -0.5374 0.6202
vn -0.0269 -0.9858 -0.1655
vn -0.5714 -0.5374 0.6202
vn -0.5450 -0.0037 0.8384
vn -0.6592 -0.0624 0.7494
vn -0.4259 0.8864 0.1816
vn -0.8875 -0.0994 0.4499
vn -0.8937 0.3391 -0.2939
vn -0.6592 -0.0624 0.7494
vn 0.0619 -0.1016 0.9929
vn -0.6028 -0.7318 0.3181
vn 0.0619 -0.1016 0.9929
vn -0.8875 -0.0994 0.4499
vn -0.4259 0.8864 0.1816
vn 0.0000 1.0000 0.0000
vn 0.0000 1.0000 0.0000
vn 0.0000 1.0000 0.0000
vn 0.0000 1.0000 0.0000
vn 0.0000 1.0000 0.0000
vn 0.0000 1.0000 0.0000
vn 0.0000 1.0000 0.0000
vn 0.0000 1.0000 0.0000
vn 0.0000 1.0000 0.0000
vn 0.0000 1.0000 0.0000
vn 0.0000 1.0000 0.0000
f 1/1/1 2/2/2 3/3/3
f 4/4/4 5/5/5 6/6/6
f 7/7/7 8/8/8 9/9/9
f 10/10/10 11/11/11 12/12/12
f 13/13/13 14/14/14 15/15/15
f 16/16/16 17/17/17 18/18/18
f 19/19/19 20/20/20 21/21/21
f 22/22/22 23/23/23 24/24/24
f 25/25/25 26/26/26 27/27/27
f 28/28/28 29/29/29 30/30/30
f 31/31/31 32/32/32 33/33/33
f 34/34/34 35/35/35 36/36/36
f 37/37/37 38/38/38 39/39/39
f 40/40/40 41/41/41 42/42/42
f 43/43/43 44/44/44 45/45/45
f 46/46/46 47/47/47 48/48/48
f 49/49/49 50/50/50 51/51/51
f 52/52/52 53/53/53 54/54/54
f 55/55/55 56/56/56 57/57/57
f 58/58/58 59/59/59 60/60/60
f 61/61/61 62/62/62 63/63/63
f 64/64/64 65/65/65 66/66/66
f 67/67/67 68/68/68 69/69/69
f 70/70/70 71/71/71 72/72/72
f 73/73/73 74/74/74 75/75/75
f 76/76/76 77/77/77 78/78/78
f 79/79/79 80/80/80 81/81/81
f 82/82/82 83/83/83 84/84/84
f 85/85/85 86/86/86 87/87/87
f 88/88/88 89/89/89 90/90/90
f 91/91/91 92/92/92 93/93/93
f 94/94/94 95/95/95 96/96/96
f 97/97/97 98/98/98 99/99/99
f 100/100/100 101/101/101 102/102/102
f 103/103/103 104/104/104 105/105/105
f 106/106/106 107/107/107 108/108/108
f 109/109/109 110/110/110 111/111/111
f 112/112/112 113/113/113 114/114/114
f 115/115/115 116/116/116 117/117/117
f 118/118/118 119/119/119 120/120/120
f 121/121/121 122/122/122 123/123/123
f 124/124/124 125/125/125 126/126/126
f 127/127/127 128/128/128 129/129/129
f 130/130/130 131/131/131 132/132/132
f 133/133/133 134/134/134 135/135/135
f 136/136/136 137/137/137 138/138/138
f 139/139/139 140/140/140 141/141/141
f 142/142/142 143/143/143 144/144/144
f 145/145/145 146/146/146 147/147/147
f 148/148/148 149/149/149 150/150/150
f 151/151/151 152/152/152 153/153/153
f 154/154/154 155/155/155 156/156/156
f 157/157/157 158/158/158 159/159/159
f 160/160/160 161/161/161 162/162/162
f 163/163/163 164/164/164 165/165/165
f 166/166/166 167/167/167 168/168/168
f 169/169/169 170/170/170 171/171/171
f 172/172/172 173/173/173 174/174/174
f 175/175/175 176/176/176 177/177/177
f 178/178/178 179/179/179 180/180/180
f 181/181/181 182/182/182 183/183/183
f 184/184/184 185/185/185 186/186/186
f 187/187/187 188/188/188 189/189/189
f 190/190/190 191/191/191 192/192/192
f 193/193/193 194/194/194 195/195/195
f 196/196/196 197/197/197 198/198/198
f 199/199/199 200/200/200 201/201/201
f 202/202/202 203/203/203 204/204/204
f 205/205/205 206/206/206 207/207/207
f 208/208/208 209/209/209 210/210/210
f 211/211/211 212/212/212 213/213/213
f 214/214/214 215/215/215 216/216/216
f 217/217/217 218/218/218 219/219/219
f 220/220/220 221/221/221 222/222/222
f 223/223/223 224/224/224 225/225/225
f 226/226/226 227/227/227 228/228/228
f 229/229/229 230/230/230 231/231/231
f 232/232/232 233/233/233 234/234/234
f 235/235/235 236/236/236 237/237/237
f 238/238/238 239/239/239 240/240/240
f 241/241/241 242/242/242 243/243/243
f 244/244/244 245/245/245 246/246/246
f 247/247/247 248/248/248 249/249/249
f 250/250/250 251/251/251 252/252/252
f 253/253/253 254/254/254 255/255/255
f 256/256/256 257/257/257 258/258/258
f 259/259/259 260/260/260 261/261/261
f 262/262/262 263/263/263 264/264/264
f 265/265/265 266/266/266 267/267/267
f 268/268/268 269/269/269 270/270/270
f 271/271/271 272/272/272 273/273/273
f 274/274/274 275/275/275 276/276/276
f 277/277/277 278/278/278 279/279/279
f 280/280/280 281/281/281 282/282/282
f 283/283/283 284/284/284 285/285/285
f 286/286/286 287/287/287 288/288/288
f 289/289/289 290/290/290 291/291/291
f 292/292/292 293/293/293 294/294/294
f 295/295/295 296/296/296 297/297/297
f 298/298/298 299/299/299 300/300/300
f 301/301/301 302/302/302 303/303/303
f 304/304/304 305/305/305 306/306/306
f 307/307/307 308/308/308 309/309/309
f 310/310/310 311/311/311 312/312/312
f 313/313/313 314/314/314 315/315/315
f 316/316/316 317/317/317 318/318/318
f 319/319/319 320/320/320 321/321/321
f 322/322/322 323/323/323 324/324/324
f 325/325/325 326/326/326 327/327/327
f 328/328/328 329/329/329 330/330/330
f 331/331/331 332/332/332 333/333/333
f 334/334/334 335/335/335 336/336/336
f 337/337/337 338/338/338 339/339/339
f 340/340/340 341/341/341 342/342/342
f 343/343/343 344/344/344 345/345/345
f 346/346/346 347/347/347 348/348/348
f 349/349/349 350/350/350 351/351/351
f 352/352/352 353/353/353 354/354/354
f 355/355/355 356/356/356 357/357/357
f 358/358/358 359/359/359 360/360/360
f 361/361/361 362/362/362 363/363/363
f 364/364/364 365/365/365 366/366/366
f 367/367/367 368/368/368 369/369/369
f 370/370/370 371/371/371 372/372/372
f 373/373/373 374/374/374 375/375/375
f 376/376/376 377/377/377 378/378/378
f 379/379/379 380/380/380 381/381/381
f 382/382/382 383/383/383 384/384/384
f 385/385/385 386/386/386 387/387/387
f 388/388/388 389/389/389 390/390/390
f 391/391/391 392/392/392 393/393/393
f 394/394/394 395/395/395 396/396/396
f 397/397/397 398/398/398 399/399/399
f 400/400/400 401/401/401 402/402/402
f 403/403/403 404/404/404 405/405/405
f 406/406/406 407/407/407 408/408/408
f 409/409/409 410/410/410 411/411/411
f 412/412/412 413/413/413 414/414/414
f 415/415/415 416/416/416 417/417/417
f 418/418/418 419/419/419 420/420/420
f 421/421/421 422/422/422 423/423/423
f 424/424/424 425/425/425 426/426/426
f 427/427/427 428/428/428 429/429/429
f 430/430/430 431/431/431 432/432/432
f 433/433/433 434/434/434 435/435/435
f 436/436/436 437/437/437 438/438/438
f 439/439/439 440/440/440 441/441/441
f 442/442/442 443/443/443 444/444/444
f 445/445/445 446/446/446 447/447/447
f 448/448/448 449/449/449 450/450/450
f 451/451/451 452/452/452 453/453/453
f 454/454/454 455/455/455 456/456/456
f 457/457/457 458/458/458 459/459/459
f 460/460/460 461/461/461 462/462/462
f 463/463/463 464/464/464 465/465/465
f 466/466/466 467/467/467 468/468/468
f 469/469/469 470/470/470 471/471/471
f 472/472/472 473/473/473 474/474/474
f 475/475/475 476/476/476 477/477/477
f 478/478/478 479/479/479 480/480/480
f 481/481/481 482/482/482 483/483/483
f 484/484/484 485/485/485 486/486/486
f 487/487/487 488/488/488 489/489/489
f 490/490/490 491/491/491 492/492/492
f 493/493/493 494/494/494 495/495/495
f 496/496/496 497/497/497 498/498/498
f 499/499/499 500/500/500 501/501/501
f 502/502/502 503/503/503 504/504/504
f 505/505/505 506/506/506 507/507/507
f 508/508/508 509/509/509 510/510/510
f 511/511/511 512/512/512 513/513/513
f 514/514/514 515/515/515 516/516/516
f 517/517/517 518/518/518 519/519/519
f 520/520/520 521/521/521 522/522/522
f 523/523/523 524/524/524 525/525/525
f 526/526/526 527/527/527 528/528/528
f 529/529/529 530/530/530 531/531/531
f 532/532/532 533/533/533 534/534/534
f 535/535/535 536/536/536 537/537/537
f 538/538/538 539/539/539 540/540/540
f 541/541/541 542/542/542 543/543/543
f 544/544/544 545/545/545 546/546/546
f 547/547/547 548/548/548 549/549/549
f 550/550/550 551/551/551 552/552/552
f 553/553/553 554/554/554 555/555/555
f 556/556/556 557/557/557 558/558/558
f 559/559/559 560/560/560 561/561/561
f 562/562/562 563/563/563 564/564/564
f 565/565/565 566/566/566 567/567/567
f 568/568/568 569/569/569 570/570/570
f 571/571/571 572/572/572 573/573/573
f 574/574/574 575/575/575 576/576/576
f 577/577/577 578/578/578 579/579/579
f 580/580/580 581/581/581 582/582/582
f 583/583/583 584/584/584 585/585/585
f 586/586/586 587/587/587 588/588/588
f 589/589/589 590/590/590 591/591/591
f 592/592/592 593/593/593 594/594/594
f 595/595/595 596/596/596 597/597/597
f 598/598/598 599/599/599 600/600/600
f 601/601/601 602/602/602 603/603/603
f 604/604/604 605/605/605 606/606/606
f 607/607/607 608/608/608 609/609/609
f 610/610/610 611/611/611 612/612/612
f 613/613/613 614/614/614 615/615/615
f 616/616/616 617/617/617 618/618/618
f 619/619/619 620/620/620 621/621/621
f 622/622/622 623/623/623 624/624/624
f 625/625/625 626/626/626 627/627/627
f 628/628/628 629/629/629 630/630/630
f 631/631/631 632/632/632 633/633/633
f 634/634/634 635/635/635 636/636/636
f 637/637/637 638/638/638 639/639/639
f 640/640/640 641/641/641 642/642/642
f 643/643/643 644/644/644 645/645/645
f 646/646/646 647/647/647 648/648/648
f 649/649/649 650/650/650 651/651/651
f 652/652/652 653/653/653 654/654/654
f 655/655/655 656/656/656 657/657/657
f 658/658/658 659/659/659 660/660/660
f 661/661/661 662/662/662 663/663/663
f 664/664/664 665/665/665 666/666/666
f 667/667/667 668/668/668 669/669/669
f 670/670/670 671/671/671 672/672/672
f 673/673/673 674/674/674 675/675/675
f 676/676/676 677/677/677 678/678/678
f 679/679/679 680/680/680 681/681/681
f 682/682/682 683/683/683 684/684/684
f 685/685/685 686/686/686 687/687/687
f 688/688/688 689/689/689 690/690/690
f 691/691/691 692/692/692 693/693/693
f 694/694/694 695/695/695 696/696/696
f 697/697/697 698/698/698 699/699/699
f 700/700/700 701/701/701 702/702/702
f 703/703/703 704/704/704 705/705/705
f 706/706/706 707/707/707 708/708/708
f 709/709/709 710/710/710 711/711/711
f 712/712/712 713/713/713 714/714/714
f 715/715/715 716/716/716 717/717/717
f 718/718/718 719/719/719 720/720/720
f 721/721/721 722/722/722 723/723/723
f 724/724/724 725/725/725 726/726/726
f 727/727/727 728/728/728 729/729/729
f 730/730/730 731/731/731 732/732/732
f 733/733/733 734/734/734 735/735/735
f 736/736/736 737/737/737 738/738/738
f 739/739/739 740/740/740 741/741/741
f 742/742/742 743/743/743 744/744/744
f 745/745/745 746/746/746 747/747/747
f 748/748/748 749/749/749 750/750/750
f 751/751/751 752/752/752 753/753/753
f 754/754/754 755/755/755 756/756/756
f 757/757/757 758/758/758 759/759/759
f 760/760/760 761/761/761 762/762/762
f 763/763/763 764/764/764 765/765/765
f 766/766/766 767/767/767 768/768/768
f 769/769/769 770/770/770 771/771/771
f 772/772/772 773/773/773 774/774/774
f 775/775/775 776/776/776 777/777/777
f 778/778/778 779/779/779 780/780/780
f 781/781/781 782/782/782 783/783/783
f 784/784/784 785/785/785 786/786/786
f 787/787/787 788/788/788 789/789/789
f 790/790/790 791/791/791 792/792/792
f 793/793/793 794/794/794 795/795/795
f 796/796/796 797/797/797 798/798/798
f 799/799/799 800/800/800 801/801/801
f 802/802/802 803/803/803 804/804/804
f 805/805/805 806/806/806 807/807/807
f 808/808/808 809/809/809 810/810/810
f 811/811/811 812/812/812 813/813/813
f 814/814/814 815/815/815 816/816/816
f 817/817/817 818/818/818 819/819/819
f 820/820/820 821/821/821 822/822/822
f 823/823/823 824/824/824 825/825/825
f 826/826/826 827/827/827 828/828/828
f 829/829/829 830/830/830 831/831/831
f 832/832/832 833/833/833 834/834/834
f 835/835/835 836/836/836 837/837/837
f 838/838/838 839/839/839 840/840/840
f 841/841/841 842/842/842 843/843/843
f 844/844/844 845/845/845 846/846/846
f 847/847/847 848/848/848 849/849/849
f 850/850/850 851/851/851 852/852/852
f 853/853/853 854/854/854 855/855/855
f 856/856/856 857/857/857 858/858/858
f 859/859/859 860/860/860 861/861/861
f 862/862/862 863/863/863 864/864/864
f 865/865/865 866/866/866 867/867/867
f 868/868/868 869/869/869 870/870/870
f 871/871/871 872/872/872 873/873/873
f 871/871/871 873/873/873 872/872/872
f 871/871/871 873/873/873 874/874/874
f 871/871/871 874/874/874 873/873/873
f 871/871/871 874/874/874 875/875/875
f 871/871/871 875/875/875 874/874/874
f 871/871/871 875/875/875 876/876/876
f 871/871/871 876/876/876 875/875/875
f 871/871/871 876/876/876 877/877/877
f 871/871/871 877/877/877 876/876/876
f 871/871/871 877/877/877 878/878/878
f 871/871/871 878/878/878 877/877/877
f 871/871/871 878/878/878 879/879/879
f 871/871/871 879/879/879 878/878/878
f 871/871/871 879/879/879 880/880/880
f 871/871/871 880/880/880 879/879/879
f 871/871/871 880/880/880 881/881/881
f 871/871/871 881/881/881 880/880/880
f 871/871/871 881/881/881 872/872/872
f 871/871/871 872/872/872 881/881/881
