o leg_left_1
v -1.09846 1.73394 -0.03827
v -1.06730 1.88820 -0.14013
v -1.12912 1.89750 0.02193
v -1.09846 1.73394 -0.03827
v -1.09168 1.73387 -0.13256
v -1.06730 1.88820 -0.14013
v -1.09168 1.73387 -0.13256
v -1.12181 1.79918 -0.15393
v -1.06730 1.88820 -0.14013
v -1.06730 1.88820 -0.14013
v -1.16620 1.93014 -0.18529
v -1.12912 1.89750 0.02193
v -1.13090 1.73758 -0.13421
v -1.12181 1.79918 -0.15393
v -1.09168 1.73387 -0.13256
v -1.09846 1.73394 -0.03827
v -1.13090 1.73758 -0.13421
v -1.09168 1.73387 -0.13256
v -1.11494 1.58703 -0.07745
v -1.09885 1.59912 -0.13941
v -1.14015 1.60526 -0.10267
v -1.15417 1.62983 -0.18952
v -1.09885 1.59912 -0.13941
v -1.13521 1.46348 -0.18232
v -1.16620 1.93014 -0.18529
v -1.06730 1.88820 -0.14013
v -1.12181 1.79918 -0.15393
v -1.11494 1.58703 -0.07745
v -1.13521 1.46348 -0.18232
v -1.09885 1.59912 -0.13941
v -1.15417 1.62983 -0.18952
v -1.13090 1.73758 -0.13421
v -1.11730 1.69538 -0.07381
v -1.15417 1.62983 -0.18952
v -1.14015 1.60526 -0.10267
v -1.09885 1.59912 -0.13941
v -1.20186 1.92333 0.01738
v -1.12912 1.89750 0.02193
v -1.16620 1.93014 -0.18529
v -1.09846 1.73394 -0.03827
v -1.12912 1.89750 0.02193
v -1.17329 1.74570 0.04193
v -1.11730 1.69538 -0.07381
v -1.14015 1.60526 -0.10267
v -1.15417 1.62983 -0.18952
v -1.13521 1.46348 -0.18232
v -1.11494 1.58703 -0.07745
v -1.17752 1.42866 -0.13127
v -1.11881 1.75852 -0.19198
v -1.13090 1.73758 -0.13421
v -1.16474 1.62803 -0.23347
v -1.13481 1.45925 -0.32641
v -1.13804 1.44682 -0.25913
v -1.18510 1.26802 -0.30617
v -1.13090 1.73758 -0.13421
v -1.11881 1.75852 -0.19198
v -1.12181 1.79918 -0.15393
v -1.17752 1.42866 -0.13127
v -1.17885 1.42339 -0.20701
v -1.13521 1.46348 -0.18232
v -1.14015 1.60526 -0.10267
v -1.11730 1.69538 -0.07381
v -1.16713 1.72024 -0.07670
v -1.15417 1.62983 -0.18952
v -1.16474 1.62803 -0.23347
v -1.13090 1.73758 -0.13421
v -1.13481 1.45925 -0.32641
v -1.18510 1.26802 -0.30617
v -1.18285 1.28440 -0.37113
v -1.11494 1.58703 -0.07745
v -1.14015 1.60526 -0.10267
v -1.20229 1.60507 -0.08096
v -1.11730 1.69538 -0.07381
v -1.13090 1.73758 -0.13421
v -1.16713 1.72024 -0.07670
v -1.18510 1.26802 -0.30617
v -1.13804 1.44682 -0.25913
v -1.20128 1.43344 -0.23521
v -1.17329 1.74570 0.04193
v -1.12912 1.89750 0.02193
v -1.27886 1.70184 0.01295
v -1.13481 1.45925 -0.32641
v -1.19199 1.48524 -0.32908
v -1.13804 1.44682 -0.25913
v -1.17885 1.42339 -0.20701
v -1.15417 1.62983 -0.18952
v -1.13521 1.46348 -0.18232
v -1.09846 1.73394 -0.03827
v -1.17329 1.74570 0.04193
v -1.13090 1.73758 -0.13421
v -1.16474 1.62803 -0.23347
v -1.15417 1.62983 -0.18952
v -1.20128 1.43344 -0.23521
v -1.17885 1.42339 -0.20701
v -1.20128 1.43344 -0.23521
v -1.15417 1.62983 -0.18952
v -1.13481 1.45925 -0.32641
v -1.18285 1.28440 -0.37113
v -1.19199 1.48524 -0.32908
v -1.16620 1.93014 -0.18529
v -1.23621 1.94865 -0.18511
v -1.23082 1.93551 -0.05713
v -1.20128 1.43344 -0.23521
v -1.13804 1.44682 -0.25913
v -1.19199 1.48524 -0.32908
v -1.13090 1.73758 -0.13421
v -1.17329 1.74570 0.04193
v -1.16713 1.72024 -0.07670
v -1.16474 1.62803 -0.23347
v -1.25078 1.65347 -0.27815
v -1.11881 1.75852 -0.19198
v -1.20229 1.60507 -0.08096
v -1.17752 1.42866 -0.13127
v -1.11494 1.58703 -0.07745
v -1.18159 1.90903 -0.23941
v -1.23214 1.92396 -0.24736
v -1.16620 1.93014 -0.18529
v -1.11881 1.75852 -0.19198
v -1.25078 1.65347 -0.27815
v -1.12181 1.79918 -0.15393
v -1.17885 1.42339 -0.20701
v -1.17752 1.42866 -0.13127
v -1.20128 1.43344 -0.23521
v -1.18974 1.51829 -0.30611
v -1.16474 1.62803 -0.23347
v -1.20128 1.43344 -0.23521
v -1.14015 1.60526 -0.10267
v -1.16713 1.72024 -0.07670
v -1.20229 1.60507 -0.08096
v -1.12181 1.79918 -0.15393
v -1.25078 1.65347 -0.27815
v -1.16620 1.93014 -0.18529
v -1.20128 1.43344 -0.23521
v -1.20453 1.53178 -0.35873
v -1.18974 1.51829 -0.30611
v -1.20453 1.53178 -0.35873
v -1.20128 1.43344 -0.23521
v -1.19199 1.48524 -0.32908
v -1.16474 1.62803 -0.23347
v -1.18974 1.51829 -0.30611
v -1.24814 1.54097 -0.30155
v -1.22044 1.29458 -0.37703
v -1.18510 1.26802 -0.30617
v -1.22811 1.27388 -0.31709
v -1.20186 1.92333 0.01738
v -1.27886 1.70184 0.01295
v -1.12912 1.89750 0.02193
v -1.20229 1.60507 -0.08096
v -1.16713 1.72024 -0.07670
v -1.17329 1.74570 0.04193
v -1.20186 1.92333 0.01738
v -1.16620 1.93014 -0.18529
v -1.23082 1.93551 -0.05713
v -1.18159 1.90903 -0.23941
v -1.21912 1.80605 -0.27695
v -1.23214 1.92396 -0.24736
v -1.16620 1.93014 -0.18529
v -1.21912 1.80605 -0.27695
v -1.18159 1.90903 -0.23941
v -1.20453 1.53178 -0.35873
v -1.24814 1.54097 -0.30155
v -1.18974 1.51829 -0.30611
v -1.19199 1.48524 -0.32908
v -1.18285 1.28440 -0.37113
v -1.22044 1.29458 -0.37703
v -1.18285 1.28440 -0.37113
v -1.18510 1.26802 -0.30617
v -1.22044 1.29458 -0.37703
v -1.21912 1.80605 -0.27695
v -1.16620 1.93014 -0.18529
v -1.25078 1.65347 -0.27815
v -1.17752 1.42866 -0.13127
v -1.20229 1.60507 -0.08096
v -1.24815 1.45300 -0.12749
v -1.17752 1.42866 -0.13127
v -1.22804 1.41975 -0.17512
v -1.20128 1.43344 -0.23521
v -1.23214 1.92396 -0.24736
v -1.23621 1.94865 -0.18511
v -1.16620 1.93014 -0.18529
v -1.24612 1.55246 -0.36680
v -1.24814 1.54097 -0.30155
v -1.20453 1.53178 -0.35873
v -1.26281 1.42962 -0.06689
v -1.20229 1.60507 -0.08096
v -1.17329 1.74570 0.04193
v -1.21973 1.81137 -0.31398
v -1.21912 1.80605 -0.27695
v -1.25078 1.65347 -0.27815
v -1.17752 1.42866 -0.13127
v -1.27998 1.43437 -0.17366
v -1.22804 1.41975 -0.17512
v -1.20186 1.92333 0.01738
v -1.23082 1.93551 -0.05713
v -1.27886 1.70184 0.01295
v -1.19199 1.48524 -0.32908
v -1.25152 1.31943 -0.42068
v -1.20453 1.53178 -0.35873
v -1.18510 1.26802 -0.30617
v -1.26472 1.26661 -0.26385
v -1.22811 1.27388 -0.31709
v -1.18510 1.26802 -0.30617
v -1.20128 1.43344 -0.23521
v -1.26472 1.26661 -0.26385
v -1.24814 1.54097 -0.30155
v -1.25078 1.65347 -0.27815
v -1.16474 1.62803 -0.23347
v -1.19199 1.48524 -0.32908
v -1.22044 1.29458 -0.37703
v -1.25152 1.31943 -0.42068
v -1.17752 1.42866 -0.13127
v -1.24815 1.45300 -0.12749
v -1.27998 1.43437 -0.17366
v -1.26281 1.42962 -0.06689
v -1.24815 1.45300 -0.12749
v -1.20229 1.60507 -0.08096
v -1.27058 1.82918 -0.27037
v -1.23214 1.92396 -0.24736
v -1.21912 1.80605 -0.27695
v -1.26709 1.27283 -0.22926
v -1.20128 1.43344 -0.23521
v -1.22804 1.41975 -0.17512
v -1.23486 1.28095 -0.53616
v -1.23759 1.26665 -0.48894
v -1.26302 1.14999 -0.53315
v -1.25684 1.95212 -0.12624
v -1.23082 1.93551 -0.05713
v -1.23621 1.94865 -0.18511
v -1.22521 1.65392 -0.35317
v -1.25078 1.65347 -0.27815
v -1.24814 1.54097 -0.30155
v -1.22521 1.65392 -0.35317
v -1.24814 1.54097 -0.30155
v -1.24612 1.55246 -0.36680
v -1.27886 1.70184 0.01295
v -1.26281 1.42962 -0.06689
v -1.17329 1.74570 0.04193
v -1.22521 1.65392 -0.35317
v -1.24612 1.55246 -0.36680
v -1.29061 1.58237 -0.38458
v -1.26199 1.12755 -0.42894
v -1.22044 1.29458 -0.37703
v -1.22811 1.27388 -0.31709
v -1.26302 1.14999 -0.53315
v -1.25866 1.16078 -0.57808
v -1.23486 1.28095 -0.53616
v -1.25078 1.65347 -0.27815
v -1.26831 1.67822 -0.36060
v -1.21973 1.81137 -0.31398
v -1.25331 1.17135 -0.26930
v -1.23168 1.26216 -0.24763
v -1.23941 1.24800 -0.18424
v -1.23486 1.28095 -0.53616
v -1.25866 1.16078 -0.57808
v -1.37190 1.20136 -0.62288
v -1.26472 1.26661 -0.26385
v -1.23168 1.26216 -0.24763
v -1.25331 1.17135 -0.26930
v -1.23941 1.24800 -0.18424
v -1.23168 1.26216 -0.24763
v -1.26709 1.27283 -0.22926
v -1.21973 1.81137 -0.31398
v -1.29439 1.84321 -0.31709
v -1.21912 1.80605 -0.27695
v -1.20128 1.43344 -0.23521
v -1.26709 1.27283 -0.22926
v -1.26472 1.26661 -0.26385
v -1.23621 1.94865 -0.18511
v -1.23214 1.92396 -0.24736
v -1.27058 1.82918 -0.27037
v -1.26281 1.42962 -0.06689
v -1.27998 1.43437 -0.17366
v -1.24815 1.45300 -0.12749
v -1.23168 1.26216 -0.24763
v -1.26472 1.26661 -0.26385
v -1.26709 1.27283 -0.22926
v -1.25152 1.31943 -0.42068
v -1.24612 1.55246 -0.36680
v -1.20453 1.53178 -0.35873
v -1.29061 1.58237 -0.38458
v -1.26831 1.67822 -0.36060
v -1.22521 1.65392 -0.35317
v -1.22521 1.65392 -0.35317
v -1.26831 1.67822 -0.36060
v -1.25078 1.65347 -0.27815
v -1.24612 1.55246 -0.36680
v -1.25633 1.56731 -0.40923
v -1.29061 1.58237 -0.38458
v -1.22811 1.27388 -0.31709
v -1.26858 1.11254 -0.35250
v -1.26199 1.12755 -0.42894
v -1.24612 1.55246 -0.36680
v -1.31471 1.27582 -0.45517
v -1.25633 1.56731 -0.40923
v -1.25684 1.95212 -0.12624
v -1.23621 1.94865 -0.18511
v -1.27058 1.82918 -0.27037
v -1.25331 1.17135 -0.26930
v -1.23941 1.24800 -0.18424
v -1.31365 1.16905 -0.20686
v -1.23941 1.24800 -0.18424
v -1.34212 1.24789 -0.12134
v -1.31365 1.16905 -0.20686
v -1.25633 1.56731 -0.40923
v -1.31471 1.27582 -0.45517
v -1.29865 1.54314 -0.42894
v -1.26281 1.42962 -0.06689
v -1.29674 1.42794 -0.06551
v -1.27998 1.43437 -0.17366
v -1.25152 1.31943 -0.42068
v -1.30173 1.32942 -0.42531
v -1.24612 1.55246 -0.36680
v -1.25633 1.56731 -0.40923
v -1.29865 1.54314 -0.42894
v -1.29061 1.58237 -0.38458
v -1.25152 1.31943 -0.42068
v -1.22044 1.29458 -0.37703
v -1.30173 1.32942 -0.42531
v -1.21912 1.80605 -0.27695
v -1.29439 1.84321 -0.31709
v -1.27058 1.82918 -0.27037
v -1.30173 1.32942 -0.42531
v -1.31471 1.27582 -0.45517
v -1.24612 1.55246 -0.36680
v -1.32235 1.27916 -0.21783
v -1.26709 1.27283 -0.22926
v -1.27998 1.43437 -0.17366
v -1.27998 1.43437 -0.17366
v -1.26709 1.27283 -0.22926
v -1.22804 1.41975 -0.17512
v -1.23082 1.93551 -0.05713
v -1.31295 1.66689 -0.08883
v -1.27886 1.70184 0.01295
v -1.23941 1.24800 -0.18424
v -1.26709 1.27283 -0.22926
v -1.32235 1.27916 -0.21783
v -1.21973 1.81137 -0.31398
v -1.26831 1.67822 -0.36060
v -1.29439 1.84321 -0.31709
v -1.25684 1.95212 -0.12624
v -1.27058 1.82918 -0.27037
v -1.31726 1.81372 -0.18970
v -1.30011 1.63517 -0.40264
v -1.26831 1.67822 -0.36060
v -1.29061 1.58237 -0.38458
v -1.26281 1.42962 -0.06689
v -1.27886 1.70184 0.01295
v -1.29674 1.42794 -0.06551
v -1.26302 1.14999 -0.53315
v -1.23759 1.26665 -0.48894
v -1.33825 1.20514 -0.45380
v -1.22044 1.29458 -0.37703
v -1.26199 1.12755 -0.42894
v -1.30173 1.32942 -0.42531
v -1.23759 1.26665 -0.48894
v -1.23486 1.28095 -0.53616
v -1.36269 1.33643 -0.58252
v -1.26199 1.12755 -0.42894
v -1.26858 1.11254 -0.35250
v -1.31123 1.13634 -0.43765
v -1.25331 1.17135 -0.26930
v -1.31365 1.16905 -0.20686
v -1.31295 1.18583 -0.28384
v -1.25331 1.17135 -0.26930
v -1.31295 1.18583 -0.28384
v -1.26472 1.26661 -0.26385
v -1.29061 1.58237 -0.38458
v -1.29344 1.63635 -0.44697
v -1.30011 1.63517 -0.40264
v -1.31726 1.81372 -0.18970
v -1.27058 1.82918 -0.27037
v -1.29439 1.84321 -0.31709
v -1.29674 1.42794 -0.06551
v -1.32235 1.27916 -0.21783
v -1.27998 1.43437 -0.17366
v -1.26858 1.11254 -0.35250
v -1.31293 1.11601 -0.35560
v -1.31123 1.13634 -0.43765
v -1.22811 1.27388 -0.31709
v -1.31293 1.11601 -0.35560
v -1.26858 1.11254 -0.35250
v -1.31471 1.27582 -0.45517
v -1.33825 1.20514 -0.45380
v -1.23759 1.26665 -0.48894
v -1.34774 1.65379 -0.44448
v -1.30011 1.63517 -0.40264
v -1.29344 1.63635 -0.44697
v -1.29344 1.63635 -0.44697
v -1.29061 1.58237 -0.38458
v -1.29865 1.54314 -0.42894
v -1.31970 1.15987 -0.52900
v -1.25866 1.16078 -0.57808
v -1.26302 1.14999 -0.53315
v -1.26302 1.14999 -0.53315
v -1.33825 1.20514 -0.45380
v -1.31970 1.15987 -0.52900
v -1.29344 1.63635 -0.44697
v -1.29865 1.54314 -0.42894
v -1.32034 1.49206 -0.48607
v -1.26199 1.12755 -0.42894
v -1.31123 1.13634 -0.43765
v -1.33825 1.20514 -0.45380
v -1.34212 1.24789 -0.12134
v -1.23941 1.24800 -0.18424
v -1.32235 1.27916 -0.21783
v -1.31293 1.11601 -0.35560
v -1.22811 1.27388 -0.31709
v -1.26472 1.26661 -0.26385
v -1.33995 1.51544 -0.12758
v -1.27886 1.70184 0.01295
v -1.31295 1.66689 -0.08883
v -1.26831 1.67822 -0.36060
v -1.31724 1.76030 -0.37133
v -1.29439 1.84321 -0.31709
v -1.40579 1.26557 -0.12375
v -1.29674 1.42794 -0.06551
v -1.27886 1.70184 0.01295
v -1.26472 1.26661 -0.26385
v -1.31295 1.18583 -0.28384
v -1.31293 1.11601 -0.35560
v -1.31471 1.27582 -0.45517
v -1.30173 1.32942 -0.42531
v -1.33825 1.20514 -0.45380
v -1.25866 1.16078 -0.57808
v -1.37156 1.17791 -0.54548
v -1.37190 1.20136 -0.62288
v -1.31471 1.27582 -0.45517
v -1.36241 1.30854 -0.48961
v -1.29865 1.54314 -0.42894
v -1.26831 1.67822 -0.36060
v -1.30011 1.63517 -0.40264
v -1.36466 1.65296 -0.40174
v -1.36466 1.65296 -0.40174
v -1.31724 1.76030 -0.37133
v -1.26831 1.67822 -0.36060
v -1.31123 1.13634 -0.43765
v -1.35596 0.99329 -0.48784
v -1.33825 1.20514 -0.45380
v -1.37190 1.20136 -0.62288
v -1.36269 1.33643 -0.58252
v -1.23486 1.28095 -0.53616
v -1.32235 1.27916 -0.21783
v -1.29674 1.42794 -0.06551
v -1.34212 1.24789 -0.12134
v -1.31123 1.13634 -0.43765
v -1.34192 0.97839 -0.40104
v -1.35596 0.99329 -0.48784
v -1.26199 1.12755 -0.42894
v -1.33825 1.20514 -0.45380
v -1.30173 1.32942 -0.42531
v -1.29865 1.54314 -0.42894
v -1.36241 1.30854 -0.48961
v -1.32034 1.49206 -0.48607
v -1.31123 1.13634 -0.43765
v -1.31293 1.11601 -0.35560
v -1.34192 0.97839 -0.40104
v -1.31295 1.18583 -0.28384
v -1.31365 1.16905 -0.20686
v -1.31293 1.11601 -0.35560
v -1.25866 1.16078 -0.57808
v -1.31970 1.15987 -0.52900
v -1.37156 1.17791 -0.54548
v -1.31970 1.15987 -0.52900
v -1.33825 1.20514 -0.45380
v -1.35596 0.99329 -0.48784
v -1.36241 1.30854 -0.48961
v -1.36269 1.33643 -0.58252
v -1.32034 1.49206 -0.48607
v -1.39607 1.64471 -0.13811
v -1.25684 1.95212 -0.12624
v -1.31726 1.81372 -0.18970
v -1.32034 1.49206 -0.48607
v -1.36269 1.33643 -0.58252
v -1.32469 1.49505 -0.52734
v -1.39607 1.64471 -0.13811
v -1.33995 1.51544 -0.12758
v -1.31295 1.66689 -0.08883
v -1.27886 1.70184 0.01295
v -1.33723 1.50067 -0.08923
v -1.40579 1.26557 -0.12375
v -1.33723 1.50067 -0.08923
v -1.27886 1.70184 0.01295
v -1.33995 1.51544 -0.12758
v -1.31726 1.81372 -0.18970
v -1.29439 1.84321 -0.31709
v -1.43566 1.52979 -0.39738
v -1.40579 1.26557 -0.12375
v -1.34212 1.24789 -0.12134
v -1.29674 1.42794 -0.06551
v -1.36269 1.33643 -0.58252
v -1.31471 1.27582 -0.45517
v -1.23759 1.26665 -0.48894
v -1.23082 1.93551 -0.05713
v -1.39607 1.64471 -0.13811
v -1.31295 1.66689 -0.08883
v -1.31365 1.16905 -0.20686
v -1.38873 1.10540 -0.22388
v -1.31293 1.11601 -0.35560
v -1.31724 1.76030 -0.37133
v -1.36466 1.65296 -0.40174
v -1.29439 1.84321 -0.31709
v -1.31365 1.16905 -0.20686
v -1.34212 1.24789 -0.12134
v -1.38873 1.10540 -0.22388
v -1.34774 1.65379 -0.44448
v -1.36466 1.65296 -0.40174
v -1.30011 1.63517 -0.40264
v -1.34192 0.97839 -0.40104
v -1.39336 0.98230 -0.43350
v -1.35596 0.99329 -0.48784
v -1.31970 1.15987 -0.52900
v -1.35596 0.99329 -0.48784
v -1.35921 1.00090 -0.54848
v -1.23082 1.93551 -0.05713
v -1.25684 1.95212 -0.12624
v -1.39607 1.64471 -0.13811
v -1.32469 1.49505 -0.52734
v -1.37008 1.50529 -0.53390
v -1.32034 1.49206 -0.48607
v -1.36269 1.33643 -0.58252
v -1.36241 1.30854 -0.48961
v -1.31471 1.27582 -0.45517
v -1.32034 1.49206 -0.48607
v -1.34774 1.65379 -0.44448
v -1.29344 1.63635 -0.44697
v -1.38873 1.10540 -0.22388
v -1.38020 1.10870 -0.26826
v -1.31293 1.11601 -0.35560
v -1.43103 1.00438 -0.39318
v -1.34192 0.97839 -0.40104
v -1.31293 1.11601 -0.35560
v -1.43566 1.52979 -0.39738
v -1.29439 1.84321 -0.31709
v -1.36466 1.65296 -0.40174
v -1.32034 1.49206 -0.48607
v -1.39828 1.50899 -0.49123
v -1.34774 1.65379 -0.44448
v -1.31293 1.11601 -0.35560
v -1.38020 1.10870 -0.26826
v -1.36358 1.12516 -0.34835
v -1.39336 0.98230 -0.43350
v -1.39164 0.99827 -0.50990
v -1.35596 0.99329 -0.48784
v -1.43103 1.00438 -0.39318
v -1.31293 1.11601 -0.35560
v -1.36358 1.12516 -0.34835
v -1.32469 1.49505 -0.52734
v -1.36269 1.33643 -0.58252
v -1.37008 1.50529 -0.53390
v -1.36544 0.93029 -0.40006
v -1.38161 0.91984 -0.30990
v -1.39997 0.78366 -0.34364
v -1.41806 0.80157 -0.44137
v -1.41623 0.95873 -0.41941
v -1.36544 0.93029 -0.40006
v -1.39828 1.50899 -0.49123
v -1.36466 1.65296 -0.40174
v -1.34774 1.65379 -0.44448
v -1.42071 1.33318 -0.57386
v -1.36269 1.33643 -0.58252
v -1.37190 1.20136 -0.62288
v -1.39828 1.50899 -0.49123
v -1.32034 1.49206 -0.48607
v -1.37008 1.50529 -0.53390
v -1.33995 1.51544 -0.12758
v -1.38998 1.51348 -0.10128
v -1.33723 1.50067 -0.08923
v -1.39997 0.78366 -0.34364
v -1.41806 0.80157 -0.44137
v -1.36544 0.93029 -0.40006
v -1.39164 0.99827 -0.50990
v -1.35921 1.00090 -0.54848
v -1.35596 0.99329 -0.48784
v -1.35921 1.00090 -0.54848
v -1.42290 1.01272 -0.55872
v -1.31970 1.15987 -0.52900
v -1.31970 1.15987 -0.52900
v -1.41825 1.08794 -0.56093
v -1.37156 1.17791 -0.54548
v -1.37190 1.20136 -0.62288
v -1.37156 1.17791 -0.54548
v -1.41825 1.08794 -0.56093
v -1.40108 1.53381 -0.15214
v -1.33995 1.51544 -0.12758
v -1.39607 1.64471 -0.13811
v -1.34212 1.24789 -0.12134
v -1.40579 1.26557 -0.12375
v -1.45549 1.26521 -0.10108
v -1.34192 0.97839 -0.40104
v -1.43103 1.00438 -0.39318
v -1.41623 0.95873 -0.41941
v -1.34192 0.97839 -0.40104
v -1.41623 0.95873 -0.41941
v -1.39336 0.98230 -0.43350
v -1.36358 1.12516 -0.34835
v -1.38020 1.10870 -0.26826
v -1.41256 0.98905 -0.30466
v -1.40108 1.53381 -0.15214
v -1.38998 1.51348 -0.10128
v -1.33995 1.51544 -0.12758
v -1.37190 1.20136 -0.62288
v -1.41825 1.08794 -0.56093
v -1.43324 1.02152 -0.65427
v -1.31970 1.15987 -0.52900
v -1.42290 1.01272 -0.55872
v -1.41825 1.08794 -0.56093
v -1.40136 0.83838 -0.53498
v -1.39164 0.99827 -0.50990
v -1.39336 0.98230 -0.43350
v -1.39607 1.64471 -0.13811
v -1.31726 1.81372 -0.18970
v -1.43566 1.52979 -0.39738
v -1.33723 1.50067 -0.08923
v -1.38998 1.51348 -0.10128
v -1.44639 1.29269 -0.15063
v -1.39336 0.98230 -0.43350
v -1.41806 0.80157 -0.44137
v -1.40136 0.83838 -0.53498
v -1.41623 0.95873 -0.41941
v -1.45423 0.94933 -0.33287
v -1.36544 0.93029 -0.40006
v -1.43103 1.00438 -0.39318
v -1.36358 1.12516 -0.34835
v -1.41256 0.98905 -0.30466
v -1.41806 0.80157 -0.44137
v -1.39336 0.98230 -0.43350
v -1.41623 0.95873 -0.41941
v -1.50495 1.10985 -0.14776
v -1.38873 1.10540 -0.22388
v -1.34212 1.24789 -0.12134
v -1.35921 1.00090 -0.54848
v -1.39164 0.99827 -0.50990
v -1.42290 1.01272 -0.55872
v -1.43566 1.52979 -0.39738
v -1.36466 1.65296 -0.40174
v -1.39828 1.50899 -0.49123
v -1.36269 1.33643 -0.58252
v -1.42071 1.33318 -0.57386
v -1.37008 1.50529 -0.53390
v -1.41806 0.80157 -0.44137
v -1.43210 0.68864 -0.46920
v -1.40136 0.83838 -0.53498
v -1.33723 1.50067 -0.08923
v -1.44639 1.29269 -0.15063
v -1.40579 1.26557 -0.12375
v -1.38020 1.10870 -0.26826
v -1.45087 1.12369 -0.26747
v -1.41256 0.98905 -0.30466
v -1.37008 1.50529 -0.53390
v -1.42071 1.33318 -0.57386
v -1.39828 1.50899 -0.49123
v -1.43031 0.69604 -0.54010
v -1.46961 0.72197 -0.59965
v -1.40136 0.83838 -0.53498
v -1.40136 0.83838 -0.53498
v -1.43210 0.68864 -0.46920
v -1.43031 0.69604 -0.54010
v -1.40108 1.53381 -0.15214
v -1.44639 1.29269 -0.15063
v -1.38998 1.51348 -0.10128
v -1.41256 0.98905 -0.30466
v -1.47449 0.99649 -0.31220
v -1.43103 1.00438 -0.39318
v -1.38873 1.10540 -0.22388
v -1.45087 1.12369 -0.26747
v -1.38020 1.10870 -0.26826
v -1.43210 0.68864 -0.46920
v -1.41806 0.80157 -0.44137
v -1.45463 0.80795 -0.43604
v -1.39607 1.64471 -0.13811
v -1.44639 1.29269 -0.15063
v -1.40108 1.53381 -0.15214
v -1.44966 0.86173 -0.55423
v -1.42290 1.01272 -0.55872
v -1.39164 0.99827 -0.50990
v -1.40136 0.83838 -0.53498
v -1.46961 0.72197 -0.59965
v -1.44966 0.86173 -0.55423
v -1.43103 1.00438 -0.39318
v -1.45423 0.94933 -0.33287
v -1.41623 0.95873 -0.41941
v -1.42290 1.01272 -0.55872
v -1.43324 1.02152 -0.65427
v -1.41825 1.08794 -0.56093
v -1.44966 0.86173 -0.55423
v -1.39164 0.99827 -0.50990
v -1.40136 0.83838 -0.53498
v -1.45423 0.94933 -0.33287
v -1.38161 0.91984 -0.30990
v -1.36544 0.93029 -0.40006
v -1.43210 0.68864 -0.46920
v -1.46785 0.68094 -0.50827
v -1.43031 0.69604 -0.54010
v -1.45549 1.26521 -0.10108
v -1.40579 1.26557 -0.12375
v -1.44639 1.29269 -0.15063
v -1.41806 0.80157 -0.44137
v -1.39997 0.78366 -0.34364
v -1.46952 0.79650 -0.36736
v -1.47449 0.99649 -0.31220
v -1.45423 0.94933 -0.33287
v -1.43103 1.00438 -0.39318
v -1.38161 0.91984 -0.30990
v -1.52038 0.79252 -0.26574
v -1.39997 0.78366 -0.34364
v -1.39828 1.50899 -0.49123
v -1.42071 1.33318 -0.57386
v -1.43566 1.52979 -0.39738
v -1.48798 0.68322 -0.46953
v -1.43210 0.68864 -0.46920
v -1.45463 0.80795 -0.43604
v -1.39997 0.78366 -0.34364
v -1.52038 0.79252 -0.26574
v -1.46952 0.79650 -0.36736
v -1.45423 0.94933 -0.33287
v -1.50279 0.95707 -0.30996
v -1.38161 0.91984 -0.30990
v -1.41256 0.98905 -0.30466
v -1.45087 1.12369 -0.26747
v -1.47449 0.99649 -0.31220
v -1.41806 0.80157 -0.44137
v -1.46952 0.79650 -0.36736
v -1.45463 0.80795 -0.43604
v -1.44639 1.29269 -0.15063
v -1.39607 1.64471 -0.13811
v -1.51000 1.32958 -0.24248
v -1.43566 1.52979 -0.39738
v -1.51000 1.32958 -0.24248
v -1.39607 1.64471 -0.13811
v -1.42290 1.01272 -0.55872
v -1.47021 0.73034 -0.66100
v -1.43324 1.02152 -0.65427
v -1.42290 1.01272 -0.55872
v -1.46961 0.72197 -0.59965
v -1.47021 0.73034 -0.66100
v -1.46961 0.72197 -0.59965
v -1.42290 1.01272 -0.55872
v -1.44966 0.86173 -0.55423
v -1.44639 1.29269 -0.15063
v -1.55855 1.30225 -0.13845
v -1.45549 1.26521 -0.10108
v -1.46961 0.72197 -0.59965
v -1.43031 0.69604 -0.54010
v -1.46785 0.68094 -0.50827
v -1.34212 1.24789 -0.12134
v -1.45549 1.26521 -0.10108
v -1.50495 1.10985 -0.14776
v -1.46785 0.68094 -0.50827
v -1.43210 0.68864 -0.46920
v -1.48798 0.68322 -0.46953
v -1.43324 1.02152 -0.65427
v -1.50433 0.93775 -0.67070
v -1.42071 1.33318 -0.57386
v -1.42071 1.33318 -0.57386
v -1.37190 1.20136 -0.62288
v -1.43324 1.02152 -0.65427
v -1.42071 1.33318 -0.57386
v -1.54507 1.17079 -0.49054
v -1.43566 1.52979 -0.39738
v -1.45463 0.80795 -0.43604
v -1.46952 0.79650 -0.36736
v -1.48194 0.69119 -0.39690
v -1.45087 1.12369 -0.26747
v -1.38873 1.10540 -0.22388
v -1.54493 1.17651 -0.29144
v -1.48798 0.68322 -0.46953
v -1.45463 0.80795 -0.43604
v -1.48194 0.69119 -0.39690
v -1.46961 0.72197 -0.59965
v -1.48960 0.64438 -0.52701
v -1.49757 0.65695 -0.59540
v -1.50433 0.93775 -0.67070
v -1.43324 1.02152 -0.65427
v -1.47021 0.73034 -0.66100
v -1.47449 0.99649 -0.31220
v -1.50279 0.95707 -0.30996
v -1.45423 0.94933 -0.33287
v -1.46961 0.72197 -0.59965
v -1.46785 0.68094 -0.50827
v -1.48960 0.64438 -0.52701
v -1.45450 0.64458 -0.66508
v -1.49757 0.65695 -0.59540
v -1.48960 0.64438 -0.52701
v -1.47449 0.99649 -0.31220
v -1.45087 1.12369 -0.26747
v -1.50279 0.95707 -0.30996
v -1.51301 0.54484 -0.53865
v -1.46785 0.68094 -0.50827
v -1.47663 0.65973 -0.42991
v -1.50369 0.54400 -0.64811
v -1.46472 0.55041 -0.68105
v -1.51301 0.54484 -0.53865
v -1.47021 0.73034 -0.66100
v -1.46961 0.72197 -0.59965
v -1.51520 0.72821 -0.63994
v -1.51301 0.54484 -0.53865
v -1.47663 0.65973 -0.42991
v -1.50037 0.52903 -0.46291
v -1.45450 0.64458 -0.66508
v -1.48960 0.64438 -0.52701
v -1.51301 0.54484 -0.53865
v -1.42071 1.33318 -0.57386
v -1.50433 0.93775 -0.67070
v -1.54507 1.17079 -0.49054
v -1.45450 0.64458 -0.66508
v -1.51301 0.54484 -0.53865
v -1.46472 0.55041 -0.68105
v -1.54493 1.17651 -0.29144
v -1.50279 0.95707 -0.30996
v -1.45087 1.12369 -0.26747
v -1.54493 1.17651 -0.29144
v -1.51000 1.32958 -0.24248
v -1.43566 1.52979 -0.39738
v -1.51301 0.54484 -0.53865
v -1.48960 0.64438 -0.52701
v -1.46785 0.68094 -0.50827
v -1.47663 0.65973 -0.42991
v -1.46785 0.68094 -0.50827
v -1.48798 0.68322 -0.46953
v -1.50495 1.10985 -0.14776
v -1.55855 1.30225 -0.13845
v -1.59820 1.14746 -0.18220
v -1.52038 0.79252 -0.26574
v -1.38161 0.91984 -0.30990
v -1.49497 0.93292 -0.23446
v -1.54493 1.17651 -0.29144
v -1.43566 1.52979 -0.39738
v -1.54507 1.17079 -0.49054
v -1.47021 0.73034 -0.66100
v -1.51520 0.72821 -0.63994
v -1.50433 0.93775 -0.67070
v -1.50037 0.52903 -0.46291
v -1.47663 0.65973 -0.42991
v -1.59379 0.67316 -0.36087
v -1.49757 0.65695 -0.59540
v -1.51520 0.72821 -0.63994
v -1.46961 0.72197 -0.59965
v -1.51520 0.72821 -0.63994
v -1.49757 0.65695 -0.59540
v -1.52590 0.66370 -0.65265
v -1.50369 0.54400 -0.64811
v -1.51301 0.54484 -0.53865
v -1.54188 0.38207 -0.61287
v -1.52590 0.66370 -0.65265
v -1.49757 0.65695 -0.59540
v -1.45450 0.64458 -0.66508
v -1.38873 1.10540 -0.22388
v -1.50495 1.10985 -0.14776
v -1.59820 1.14746 -0.18220
v -1.50279 0.95707 -0.30996
v -1.49497 0.93292 -0.23446
v -1.38161 0.91984 -0.30990
v -1.54117 0.53496 -0.56331
v -1.54188 0.38207 -0.61287
v -1.51301 0.54484 -0.53865
v -1.54188 0.38207 -0.61287
v -1.53310 0.39495 -0.67299
v -1.50369 0.54400 -0.64811
v -1.47663 0.65973 -0.42991
v -1.48798 0.68322 -0.46953
v -1.59379 0.69570 -0.42249
v -1.59379 0.69570 -0.42249
v -1.59379 0.67316 -0.36087
v -1.47663 0.65973 -0.42991
v -1.55855 1.30225 -0.13845
v -1.44639 1.29269 -0.15063
v -1.51000 1.32958 -0.24248
v -1.59379 0.69570 -0.42249
v -1.48798 0.68322 -0.46953
v -1.48194 0.69119 -0.39690
v -1.46472 0.55041 -0.68105
v -1.50369 0.54400 -0.64811
v -1.55786 0.56676 -0.66634
v -1.45450 0.64458 -0.66508
v -1.56272 0.68012 -0.70547
v -1.52590 0.66370 -0.65265
v -1.38873 1.10540 -0.22388
v -1.59820 1.14746 -0.18220
v -1.54493 1.17651 -0.29144
v -1.48194 0.69119 -0.39690
v -1.46952 0.79650 -0.36736
v -1.59379 0.69570 -0.42249
v -1.50279 0.95707 -0.30996
v -1.54493 1.17651 -0.29144
v -1.56984 0.98322 -0.33703
v -1.52038 0.79252 -0.26574
v -1.49497 0.93292 -0.23446
v -1.59570 0.96091 -0.26243
v -1.55855 1.30225 -0.13845
v -1.51000 1.32958 -0.24248
v -1.56354 1.32653 -0.21456
v -1.51301 0.54484 -0.53865
v -1.50037 0.52903 -0.46291
v -1.54625 0.53869 -0.47865
v -1.51301 0.54484 -0.53865
v -1.54625 0.53869 -0.47865
v -1.54117 0.53496 -0.56331
v -1.45450 0.64458 -0.66508
v -1.46472 0.55041 -0.68105
v -1.57484 0.56816 -0.72722
v -1.59570 0.96091 -0.26243
v -1.49497 0.93292 -0.23446
v -1.50279 0.95707 -0.30996
v -1.54188 0.38207 -0.61287
v -1.54117 0.53496 -0.56331
v -1.58307 0.39509 -0.59844
v -1.46472 0.55041 -0.68105
v -1.55786 0.56676 -0.66634
v -1.57484 0.56816 -0.72722
v -1.57484 0.56816 -0.72722
v -1.56272 0.68012 -0.70547
v -1.45450 0.64458 -0.66508
v -1.53310 0.39495 -0.67299
v -1.54188 0.38207 -0.61287
v -1.56647 0.38723 -0.66481
v -1.54625 0.53869 -0.47865
v -1.57344 0.39794 -0.52048
v -1.54117 0.53496 -0.56331
v -1.56647 0.38723 -0.66481
v -1.54188 0.38207 -0.61287
v -1.58307 0.39509 -0.59844
v -1.54117 0.53496 -0.56331
v -1.57344 0.39794 -0.52048
v -1.58307 0.39509 -0.59844
v -1.57484 0.56816 -0.72722
v -1.52590 0.66370 -0.65265
v -1.56272 0.68012 -0.70547
v -1.52038 0.79252 -0.26574
v -1.58459 0.82876 -0.38207
v -1.46952 0.79650 -0.36736
v -1.51000 1.32958 -0.24248
v -1.54493 1.17651 -0.29144
v -1.56354 1.32653 -0.21456
v -1.54625 0.53869 -0.47865
v -1.50037 0.52903 -0.46291
v -1.64639 0.57072 -0.50068
v -1.55786 0.56676 -0.66634
v -1.50369 0.54400 -0.64811
v -1.53310 0.39495 -0.67299
v -1.57484 0.56816 -0.72722
v -1.55786 0.56676 -0.66634
v -1.52590 0.66370 -0.65265
v -1.59820 1.14746 -0.18220
v -1.55855 1.30225 -0.13845
v -1.56354 1.32653 -0.21456
v -1.55855 1.30225 -0.13845
v -1.50495 1.10985 -0.14776
v -1.45549 1.26521 -0.10108
v -1.58289 0.73373 -0.60447
v -1.50433 0.93775 -0.67070
v -1.51520 0.72821 -0.63994
v -1.51520 0.72821 -0.63994
v -1.52590 0.66370 -0.65265
v -1.62404 0.74187 -0.63972
v -1.56647 0.38723 -0.66481
v -1.58307 0.39509 -0.59844
v -1.59213 0.26120 -0.63226
v -1.59213 0.26120 -0.63226
v -1.60463 0.27929 -0.70343
v -1.56647 0.38723 -0.66481
v -1.59379 0.69570 -0.42249
v -1.46952 0.79650 -0.36736
v -1.58459 0.82876 -0.38207
v -1.56354 1.32653 -0.21456
v -1.54493 1.17651 -0.29144
v -1.59552 1.16727 -0.25917
v -1.54507 1.17079 -0.49054
v -1.59574 0.88388 -0.56645
v -1.54493 1.17651 -0.29144
v -1.59574 0.88388 -0.56645
v -1.54507 1.17079 -0.49054
v -1.50433 0.93775 -0.67070
v -1.59379 0.69570 -0.42249
v -1.66363 0.69979 -0.39284
v -1.59379 0.67316 -0.36087
v -1.54625 0.53869 -0.47865
v -1.64639 0.57072 -0.50068
v -1.57344 0.39794 -0.52048
v -1.55786 0.56676 -0.66634
v -1.53310 0.39495 -0.67299
v -1.56647 0.38723 -0.66481
v -1.52590 0.66370 -0.65265
v -1.55786 0.56676 -0.66634
v -1.62404 0.74187 -0.63972
v -1.56984 0.98322 -0.33703
v -1.64040 0.71346 -0.46934
v -1.58459 0.82876 -0.38207
v -1.59820 1.14746 -0.18220
v -1.59552 1.16727 -0.25917
v -1.54493 1.17651 -0.29144
v -1.56984 0.98322 -0.33703
v -1.58459 0.82876 -0.38207
v -1.61737 0.82910 -0.36551
v -1.58289 0.73373 -0.60447
v -1.51520 0.72821 -0.63994
v -1.62404 0.74187 -0.63972
v -1.56984 0.98322 -0.33703
v -1.59570 0.96091 -0.26243
v -1.50279 0.95707 -0.30996
v -1.59379 0.69570 -0.42249
v -1.58459 0.82876 -0.38207
v -1.64040 0.71346 -0.46934
v -1.50433 0.93775 -0.67070
v -1.58289 0.73373 -0.60447
v -1.59574 0.88388 -0.56645
v -1.54493 1.17651 -0.29144
v -1.64040 0.71346 -0.46934
v -1.56984 0.98322 -0.33703
v -1.61122 0.54043 -0.39581
v -1.50037 0.52903 -0.46291
v -1.59379 0.67316 -0.36087
v -1.59820 1.14746 -0.18220
v -1.56354 1.32653 -0.21456
v -1.59552 1.16727 -0.25917
v -1.56647 0.38723 -0.66481
v -1.60463 0.27929 -0.70343
v -1.55786 0.56676 -0.66634
v -1.58459 0.82876 -0.38207
v -1.52038 0.79252 -0.26574
v -1.61737 0.82910 -0.36551
v -1.64040 0.71346 -0.46934
v -1.54493 1.17651 -0.29144
v -1.59574 0.88388 -0.56645
v -1.61737 0.82910 -0.36551
v -1.59570 0.96091 -0.26243
v -1.56984 0.98322 -0.33703
v -1.55786 0.56676 -0.66634
v -1.60463 0.27929 -0.70343
v -1.62404 0.74187 -0.63972
v -1.50037 0.52903 -0.46291
v -1.61122 0.54043 -0.39581
v -1.68278 0.55314 -0.42662
v -1.57344 0.39794 -0.52048
v -1.61614 0.25984 -0.57508
v -1.58307 0.39509 -0.59844
v -1.50037 0.52903 -0.46291
v -1.68297 0.56553 -0.48708
v -1.64639 0.57072 -0.50068
v -1.58289 0.73373 -0.60447
v -1.62404 0.74187 -0.63972
v -1.64040 0.71346 -0.46934
v -1.59213 0.26120 -0.63226
v -1.58307 0.39509 -0.59844
v -1.61614 0.25984 -0.57508
v -1.57344 0.39794 -0.52048
v -1.64639 0.57072 -0.50068
v -1.63102 0.40591 -0.52218
v -1.50037 0.52903 -0.46291
v -1.68278 0.55314 -0.42662
v -1.68297 0.56553 -0.48708
v -1.58289 0.73373 -0.60447
v -1.64040 0.71346 -0.46934
v -1.59574 0.88388 -0.56645
v -1.52038 0.79252 -0.26574
v -1.59570 0.96091 -0.26243
v -1.61737 0.82910 -0.36551
v -1.66363 0.69979 -0.39284
v -1.59379 0.69570 -0.42249
v -1.64040 0.71346 -0.46934
v -1.60463 0.27929 -0.70343
v -1.59213 0.26120 -0.63226
v -1.63108 0.16416 -0.64107
v -1.60463 0.27929 -0.70343
v -1.63108 0.16416 -0.64107
v -1.66215 0.02749 -0.69083
v -1.63108 0.16416 -0.64107
v -1.59213 0.26120 -0.63226
v -1.70280 0.29136 -0.60801
v -1.60463 0.27929 -0.70343
v -1.67257 0.03534 -0.74416
v -1.67770 0.29679 -0.70542
v -1.66215 0.02749 -0.69083
v -1.67257 0.03534 -0.74416
v -1.60463 0.27929 -0.70343
v -1.66363 0.69979 -0.39284
v -1.61122 0.54043 -0.39581
v -1.59379 0.67316 -0.36087
v -1.60463 0.27929 -0.70343
v -1.67770 0.29679 -0.70542
v -1.62404 0.74187 -0.63972
v -1.66363 0.69979 -0.39284
v -1.64040 0.71346 -0.46934
v -1.66967 0.71500 -0.45380
v -1.66363 0.69979 -0.39284
v -1.68278 0.55314 -0.42662
v -1.61122 0.54043 -0.39581
v -1.70280 0.29136 -0.60801
v -1.57344 0.39794 -0.52048
v -1.63102 0.40591 -0.52218
v -1.64639 0.57072 -0.50068
v -1.68297 0.56553 -0.48708
v -1.64040 0.71346 -0.46934
v -1.61614 0.25984 -0.57508
v -1.70280 0.29136 -0.60801
v -1.59213 0.26120 -0.63226
v -1.63108 0.16416 -0.64107
v -1.70280 0.29136 -0.60801
v -1.66215 0.02749 -0.69083
v -1.63102 0.40591 -0.52218
v -1.64639 0.57072 -0.50068
v -1.70280 0.29136 -0.60801
v -1.64639 0.57072 -0.50068
v -1.64040 0.71346 -0.46934
v -1.70280 0.29136 -0.60801
v -1.64040 0.71346 -0.46934
v -1.62404 0.74187 -0.63972
v -1.70280 0.29136 -0.60801
v -1.64040 0.71346 -0.46934
v -1.68297 0.56553 -0.48708
v -1.66967 0.71500 -0.45380
v -1.67257 0.03534 -0.74416
v -1.66215 0.02749 -0.69083
v -1.70396 0.02860 -0.69926
v -1.70280 0.29136 -0.60801
v -1.61614 0.25984 -0.57508
v -1.57344 0.39794 -0.52048
v -1.66967 0.71500 -0.45380
v -1.68297 0.56553 -0.48708
v -1.66363 0.69979 -0.39284
v -1.66215 0.02749 -0.69083
v -1.70280 0.29136 -0.60801
v -1.70396 0.02860 -0.69926
v -1.66363 0.69979 -0.39284
v -1.68297 0.56553 -0.48708
v -1.68278 0.55314 -0.42662
v -1.70280 0.29136 -0.60801
v -1.62404 0.74187 -0.63972
v -1.67770 0.29679 -0.70542
v -1.70396 0.02860 -0.69926
v -1.67770 0.29679 -0.70542
v -1.67257 0.03534 -0.74416
v -1.67770 0.29679 -0.70542
v -1.70396 0.02860 -0.69926
v -1.70280 0.29136 -0.60801
vt 0.20825 0.55112
vt 0.19259 0.56080
vt 0.19252 0.54374
vt 0.20825 0.55112
vt 0.20795 0.56040
vt 0.19259 0.56080
vt 0.31621 0.42530
vt 0.31051 0.42062
vt 0.31231 0.41044
vt 0.30770 0.81682
vt 0.29716 0.82129
vt 0.30167 0.80086
vt 0.20084 0.98456
vt 0.20421 0.97916
vt 0.20409 0.98653
vt 0.17003 0.78654
vt 0.16465 0.77818
vt 0.16842 0.77740
vt 0.27633 0.93539
vt 0.27005 0.93663
vt 0.27365 0.93252
vt 0.91315 0.79842
vt 0.91314 0.80634
vt 0.89873 0.80634
vt 0.30087 0.41058
vt 0.31231 0.41044
vt 0.31051 0.42062
vt 0.20244 0.61651
vt 0.20949 0.60211
vt 0.20883 0.61651
vt 0.37700 0.05815
vt 0.36507 0.06019
vt 0.36452 0.05287
vt 0.26488 0.93062
vt 0.27365 0.93252
vt 0.27005 0.93663
vt 0.29409 0.80131
vt 0.30167 0.80086
vt 0.29716 0.82129
vt 0.20825 0.55112
vt 0.19249 0.54407
vt 0.20748 0.54033
vt 0.36452 0.05287
vt 0.37359 0.04984
vt 0.37701 0.05812
vt 0.20949 0.60211
vt 0.20244 0.61651
vt 0.20296 0.59905
vt 0.36645 0.06603
vt 0.36509 0.06005
vt 0.37990 0.06153
vt 0.21422 0.83701
vt 0.21422 0.84374
vt 0.19552 0.84261
vt 0.00981 0.64716
vt 0.01518 0.64895
vt 0.01139 0.65289
vt 0.20295 0.59876
vt 0.20979 0.59582
vt 0.20949 0.60211
vt 0.08945 0.28498
vt 0.08482 0.29334
vt 0.07962 0.29163
vt 0.37701 0.05817
vt 0.37990 0.06153
vt 0.36507 0.06023
vt 0.97311 0.84754
vt 0.97311 0.86454
vt 0.96772 0.86258
vt 0.27633 0.93539
vt 0.27365 0.93252
vt 0.27631 0.92663
vt 0.66089 0.98531
vt 0.66824 0.98573
vt 0.66310 0.99032
vt 0.30544 0.80123
vt 0.32360 0.79665
vt 0.32305 0.80339
vt 0.68567 0.45531
vt 0.67011 0.45370
vt 0.69326 0.44661
vt 0.05784 0.93956
vt 0.06399 0.93902
vt 0.05793 0.94629
vt 0.89322 0.80327
vt 0.91311 0.79835
vt 0.89873 0.80634
vt 0.17003 0.78654
vt 0.16477 0.79600
vt 0.16461 0.77820
vt 0.37990 0.06153
vt 0.37703 0.05815
vt 0.39579 0.05033
vt 0.89322 0.80327
vt 0.89294 0.80003
vt 0.91310 0.79833
vt 0.87466 0.04105
vt 0.85640 0.03945
vt 0.87608 0.03504
vt 0.29716 0.82129
vt 0.29008 0.82121
vt 0.29099 0.80861
vt 0.06384 0.94959
vt 0.05793 0.94629
vt 0.06399 0.93902
vt 0.14554 0.43756
vt 0.14587 0.41976
vt 0.14853 0.43139
vt 0.29017 0.72057
vt 0.29188 0.73027
vt 0.27599 0.72060
vt 0.97002 0.76525
vt 0.95215 0.76202
vt 0.96880 0.75657
vt 0.76971 0.01934
vt 0.76634 0.02335
vt 0.76642 0.01444
vt 0.23214 0.26005
vt 0.22892 0.27837
vt 0.22882 0.25570
vt 0.36556 0.98363
vt 0.36295 0.97677
vt 0.36880 0.98537
vt 0.39304 0.06089
vt 0.37990 0.06153
vt 0.39579 0.05033
vt 0.08948 0.23558
vt 0.07760 0.23558
vt 0.08768 0.22937
vt 0.31051 0.42062
vt 0.29941 0.44038
vt 0.30087 0.41058
vt 0.39579 0.05033
vt 0.39552 0.06583
vt 0.39304 0.06089
vt 0.23152 0.89140
vt 0.21602 0.89140
vt 0.22637 0.88931
vt 0.29017 0.72057
vt 0.30332 0.72026
vt 0.30247 0.72636
vt 0.14236 0.95811
vt 0.14724 0.95288
vt 0.14764 0.95669
vt 0.67030 0.44619
vt 0.69331 0.44674
vt 0.67014 0.45377
vt 0.71548 0.68470
vt 0.70418 0.68798
vt 0.69846 0.67753
vt 0.29409 0.80131
vt 0.29716 0.82129
vt 0.29098 0.80861
vt 0.86975 0.94700
vt 0.88112 0.94700
vt 0.87031 0.95221
vt 0.31321 0.24582
vt 0.30802 0.26097
vt 0.30869 0.24962
vt 0.20496 0.98699
vt 0.20970 0.99230
vt 0.20353 0.99233
vt 0.87608 0.03504
vt 0.85640 0.03945
vt 0.85658 0.03558
vt 0.14183 0.95478
vt 0.14724 0.95288
vt 0.14236 0.95811
vt 0.30802 0.26097
vt 0.31321 0.24582
vt 0.31236 0.27565
vt 0.95214 0.76203
vt 0.97002 0.76525
vt 0.95422 0.76906
vt 0.36255 0.97697
vt 0.36891 0.97877
vt 0.36880 0.98537
vt 0.02163 0.51809
vt 0.02735 0.51575
vt 0.02959 0.52210
vt 0.20943 0.98580
vt 0.20970 0.99230
vt 0.20496 0.98699
vt 0.73245 0.67777
vt 0.71557 0.68476
vt 0.69849 0.67757
vt 0.30439 0.26155
vt 0.30802 0.26097
vt 0.31236 0.27565
vt 0.95229 0.76197
vt 0.94957 0.77252
vt 0.94843 0.76735
vt 0.52184 0.39027
vt 0.51402 0.38946
vt 0.52445 0.36739
vt 0.22991 0.36240
vt 0.22487 0.38123
vt 0.22549 0.35904
vt 0.14724 0.95288
vt 0.15305 0.95794
vt 0.14764 0.95669
vt 0.30544 0.80123
vt 0.32305 0.80339
vt 0.30658 0.81001
vt 0.30247 0.72636
vt 0.29188 0.73027
vt 0.29017 0.72057
vt 0.22991 0.36240
vt 0.23063 0.38189
vt 0.22487 0.38123
vt 0.95230 0.76197
vt 0.95422 0.76906
vt 0.94957 0.77252
vt 0.73245 0.67777
vt 0.73181 0.68427
vt 0.71557 0.68476
vt 0.88059 0.95255
vt 0.87031 0.95221
vt 0.88112 0.94700
vt 0.25871 0.85100
vt 0.24298 0.85760
vt 0.24286 0.85100
vt 0.07223 0.40955
vt 0.07645 0.40932
vt 0.07645 0.42020
vt 0.28804 0.81543
vt 0.29098 0.80861
vt 0.28997 0.82119
vt 0.06774 0.60512
vt 0.07547 0.60427
vt 0.07449 0.61552
vt 0.06774 0.60512
vt 0.07449 0.61552
vt 0.06798 0.61537
vt 0.69328 0.44659
vt 0.71962 0.45577
vt 0.68565 0.45529
vt 0.74716 0.96245
vt 0.74836 0.97264
vt 0.74293 0.97152
vt 0.96157 0.87621
vt 0.96112 0.89157
vt 0.95567 0.89109
vt 0.07645 0.42020
vt 0.07250 0.42062
vt 0.07223 0.40955
vt 0.31236 0.27565
vt 0.30376 0.27618
vt 0.30439 0.26155
vt 0.02727 0.96913
vt 0.02245 0.96250
vt 0.02702 0.95927
vt 0.09833 0.14042
vt 0.08726 0.14063
vt 0.08726 0.12965
vt 0.86343 0.01126
vt 0.86402 0.01438
vt 0.85583 0.01438
vt 0.28700 0.90958
vt 0.29166 0.91268
vt 0.28854 0.91433
vt 0.21784 0.91497
vt 0.21050 0.91185
vt 0.21963 0.91176
vt 0.24298 0.85760
vt 0.25871 0.85100
vt 0.26037 0.85404
vt 0.84232 0.17016
vt 0.83845 0.16483
vt 0.84247 0.15536
vt 0.05933 0.78785
vt 0.06996 0.78785
vt 0.06507 0.79097
vt 0.29166 0.91268
vt 0.29117 0.91581
vt 0.28854 0.91433
vt 0.56915 0.77403
vt 0.59220 0.76947
vt 0.59136 0.77403
vt 0.74293 0.97152
vt 0.74241 0.96163
vt 0.74716 0.96245
vt 0.01792 0.45330
vt 0.01711 0.44851
vt 0.02534 0.45097
vt 0.35644 0.99426
vt 0.35644 0.99878
vt 0.35216 0.99778
vt 0.95567 0.89109
vt 0.95489 0.87657
vt 0.96157 0.87621
vt 0.30509 0.07854
vt 0.30254 0.10772
vt 0.30058 0.07825
vt 0.84758 0.17330
vt 0.84231 0.17016
vt 0.84247 0.15536
vt 0.24699 0.56734
vt 0.23774 0.56390
vt 0.24634 0.55994
vt 0.23774 0.56390
vt 0.23828 0.55362
vt 0.24634 0.55994
vt 0.30265 0.26274
vt 0.30459 0.29221
vt 0.29900 0.26639
vt 0.05670 0.83222
vt 0.05773 0.82904
vt 0.06712 0.83431
vt 0.56915 0.77403
vt 0.56892 0.76899
vt 0.59220 0.76947
vt 0.00210 0.10825
vt 0.00210 0.10309
vt 0.00636 0.10713
vt 0.03873 0.47818
vt 0.03399 0.47645
vt 0.04259 0.47608
vt 0.21963 0.91176
vt 0.21050 0.91185
vt 0.21489 0.90883
vt 0.30426 0.10181
vt 0.30254 0.10772
vt 0.30509 0.07854
vt 0.96739 0.51617
vt 0.97294 0.51666
vt 0.96744 0.53256
vt 0.96744 0.53256
vt 0.97294 0.51666
vt 0.97273 0.53250
vt 0.51401 0.38946
vt 0.51492 0.36174
vt 0.52444 0.36739
vt 0.28700 0.90958
vt 0.28854 0.91433
vt 0.28476 0.91737
vt 0.27966 0.75597
vt 0.26501 0.75606
vt 0.27992 0.74800
vt 0.84758 0.17330
vt 0.84247 0.15536
vt 0.85145 0.15769
vt 0.25888 0.75311
vt 0.26499 0.75583
vt 0.25514 0.75722
vt 0.71962 0.45577
vt 0.69328 0.44659
vt 0.72064 0.45263
vt 0.06956 0.72677
vt 0.05873 0.72564
vt 0.06514 0.71728
vt 0.13859 0.05832
vt 0.13859 0.07369
vt 0.12998 0.05835
vt 0.32355 0.90835
vt 0.32202 0.91228
vt 0.30946 0.91228
vt 0.01401 0.10975
vt 0.01401 0.10307
vt 0.01832 0.11027
vt 0.01543 0.84647
vt 0.02286 0.84647
vt 0.01805 0.85119
vt 0.85583 0.01438
vt 0.85552 0.00899
vt 0.86343 0.01126
vt 0.34134 0.36336
vt 0.34736 0.36878
vt 0.34296 0.36867
vt 0.21482 0.89955
vt 0.21489 0.90883
vt 0.21050 0.91185
vt 0.31743 0.82513
vt 0.33569 0.83564
vt 0.31930 0.83573
vt 0.01401 0.10307
vt 0.01782 0.10306
vt 0.01832 0.11027
vt 0.73633 0.88439
vt 0.72066 0.88439
vt 0.72221 0.88090
vt 0.05886 0.71840
vt 0.06514 0.71728
vt 0.05873 0.72564
vt 0.43766 0.98092
vt 0.44200 0.98574
vt 0.43766 0.98652
vt 0.34736 0.36878
vt 0.34134 0.36336
vt 0.34582 0.35957
vt 0.08862 0.85757
vt 0.08538 0.86343
vt 0.08415 0.85965
vt 0.06491 0.40771
vt 0.05444 0.40771
vt 0.06132 0.40432
vt 0.34750 0.36857
vt 0.34582 0.35957
vt 0.35169 0.35442
vt 0.13859 0.07369
vt 0.13432 0.07445
vt 0.12993 0.06969
vt 0.27721 0.91277
vt 0.28700 0.90958
vt 0.28476 0.91737
vt 0.13054 0.49341
vt 0.13066 0.50908
vt 0.12519 0.50810
vt 0.51379 0.34620
vt 0.52441 0.36735
vt 0.51492 0.36174
vt 0.26522 0.75628
vt 0.26994 0.74826
vt 0.27992 0.74800
vt 0.73982 0.44698
vt 0.72066 0.45259
vt 0.69328 0.44660
vt 0.12519 0.50810
vt 0.12493 0.49988
vt 0.13054 0.49341
vt 0.06930 0.55371
vt 0.07069 0.54853
vt 0.07093 0.55987
vt 0.08538 0.86343
vt 0.09352 0.85736
vt 0.09635 0.86367
vt 0.30459 0.29221
vt 0.29810 0.29097
vt 0.29900 0.26639
vt 0.86527 0.88367
vt 0.85897 0.88546
vt 0.85548 0.87988
vt 0.25804 0.74848
vt 0.26994 0.74826
vt 0.26509 0.75632
vt 0.75070 0.82509
vt 0.74720 0.83815
vt 0.74707 0.81974
vt 0.08726 0.12965
vt 0.09921 0.12790
vt 0.09833 0.14042
vt 0.33569 0.83564
vt 0.31743 0.82513
vt 0.33647 0.82552
vt 0.13696 0.90079
vt 0.12499 0.90826
vt 0.12344 0.90079
vt 0.13859 0.07369
vt 0.12993 0.06969
vt 0.12998 0.05835
vt 0.34582 0.35957
vt 0.35235 0.33585
vt 0.35161 0.35432
vt 0.13696 0.90079
vt 0.13762 0.90799
vt 0.12499 0.90826
vt 0.29679 0.91787
vt 0.29342 0.92370
vt 0.29297 0.91021
vt 0.08538 0.86343
vt 0.08862 0.85757
vt 0.09352 0.85736
vt 0.16468 0.79773
vt 0.17097 0.79333
vt 0.17009 0.81172
vt 0.12089 0.27905
vt 0.12878 0.27648
vt 0.12969 0.29252
vt 0.86647 0.14605
vt 0.84758 0.17330
vt 0.85145 0.15769
vt 0.34628 0.83551
vt 0.34630 0.81706
vt 0.34987 0.83358
vt 0.93499 0.08880
vt 0.94418 0.07840
vt 0.94325 0.09395
vt 0.52424 0.36744
vt 0.51777 0.34549
vt 0.51839 0.32122
vt 0.51776 0.34549
vt 0.52441 0.36735
vt 0.51379 0.34620
vt 0.85145 0.15769
vt 0.83927 0.15304
vt 0.85315 0.12128
vt 0.73990 0.44703
vt 0.73967 0.45350
vt 0.72066 0.45259
vt 0.30946 0.91228
vt 0.31843 0.90323
vt 0.32355 0.90835
vt 0.94269 0.12169
vt 0.93499 0.08880
vt 0.94325 0.09395
vt 0.24634 0.55994
vt 0.25369 0.55559
vt 0.25704 0.56818
vt 0.83977 0.14307
vt 0.84426 0.13205
vt 0.83927 0.15304
vt 0.24634 0.55994
vt 0.23828 0.55362
vt 0.25369 0.55559
vt 0.43766 0.98092
vt 0.44183 0.97917
vt 0.44200 0.98574
vt 0.98932 0.55242
vt 0.98475 0.55492
vt 0.98215 0.54982
vt 0.16468 0.79773
vt 0.17009 0.81172
vt 0.16486 0.81184
vt 0.85360 0.17724
vt 0.84758 0.17330
vt 0.86647 0.14605
vt 0.37695 0.00711
vt 0.37736 0.01171
vt 0.37293 0.00642
vt 0.30946 0.91228
vt 0.31287 0.90472
vt 0.31843 0.90323
vt 0.95397 0.87664
vt 0.93848 0.88265
vt 0.93906 0.87708
vt 0.10428 0.12660
vt 0.10285 0.12299
vt 0.10367 0.11358
vt 0.13722 0.65487
vt 0.12944 0.65317
vt 0.13334 0.64115
vt 0.85315 0.12128
vt 0.83927 0.15304
vt 0.84426 0.13205
vt 0.95396 0.87664
vt 0.95411 0.88448
vt 0.93848 0.88265
vt 0.10367 0.11358
vt 0.10285 0.12299
vt 0.10021 0.11637
vt 0.98475 0.55492
vt 0.97898 0.55155
vt 0.98215 0.54982
vt 0.13722 0.65487
vt 0.13334 0.64115
vt 0.13759 0.64244
vt 0.84510 0.86542
vt 0.86201 0.86542
vt 0.84536 0.87003
vt 0.17760 0.91986
vt 0.17840 0.92770
vt 0.16630 0.92770
vt 0.12314 0.71249
vt 0.10958 0.71249
vt 0.11170 0.70770
vt 0.84513 0.11511
vt 0.84426 0.13205
vt 0.84021 0.13006
vt 0.35134 0.24172
vt 0.34633 0.24210
vt 0.34633 0.23002
vt 0.37302 0.01426
vt 0.37293 0.00642
vt 0.37736 0.01171
vt 0.04738 0.00997
vt 0.05074 0.01439
vt 0.04536 0.01348
vt 0.16630 0.92770
vt 0.16521 0.91914
vt 0.17760 0.91986
vt 0.97898 0.55155
vt 0.97745 0.54752
vt 0.98215 0.54982
vt 0.20832 0.89231
vt 0.20881 0.89790
vt 0.19421 0.89245
vt 0.19421 0.89245
vt 0.20252 0.89933
vt 0.19398 0.89735
vt 0.08542 0.74828
vt 0.07852 0.74780
vt 0.07818 0.73904
vt 0.93747 0.07809
vt 0.94418 0.07840
vt 0.93499 0.08880
vt 0.75359 0.74222
vt 0.75914 0.74559
vt 0.76165 0.75033
vt 0.12944 0.65317
vt 0.13722 0.65487
vt 0.13394 0.65821
vt 0.01938 0.34888
vt 0.01295 0.35097
vt 0.01421 0.34819
vt 0.86008 0.93546
vt 0.85295 0.93573
vt 0.85295 0.92469
vt 0.05410 0.01005
vt 0.05074 0.01439
vt 0.04738 0.00997
vt 0.37744 0.48409
vt 0.37267 0.47454
vt 0.37991 0.46938
vt 0.19421 0.89245
vt 0.20881 0.89790
vt 0.20252 0.89933
vt 0.13971 0.49620
vt 0.13922 0.51006
vt 0.13257 0.50948
vt 0.86647 0.14605
vt 0.85145 0.15769
vt 0.85315 0.12128
vt 0.23820 0.56698
vt 0.24365 0.56729
vt 0.24365 0.59019
vt 0.13257 0.50948
vt 0.13130 0.49392
vt 0.13971 0.49620
vt 0.24382 0.33117
vt 0.23860 0.33740
vt 0.23979 0.32781
vt 0.86062 0.92304
vt 0.86008 0.93546
vt 0.85295 0.92469
vt 0.97383 0.84619
vt 0.97383 0.83058
vt 0.97594 0.83279
vt 0.25378 0.54370
vt 0.25369 0.55559
vt 0.23828 0.55362
vt 0.97745 0.54752
vt 0.97898 0.55155
vt 0.97388 0.55184
vt 0.85315 0.12128
vt 0.84426 0.13205
vt 0.84513 0.11511
vt 0.34633 0.24210
vt 0.35134 0.24172
vt 0.34789 0.25706
vt 0.08133 0.82821
vt 0.07975 0.83718
vt 0.07382 0.82568
vt 0.23820 0.56698
vt 0.24365 0.59019
vt 0.23830 0.59126
vt 0.63266 0.93597
vt 0.63884 0.93597
vt 0.63321 0.94700
vt 0.84063 0.11285
vt 0.84713 0.09601
vt 0.84513 0.11511
vt 0.07330 0.59711
vt 0.06769 0.59529
vt 0.07453 0.58588
vt 0.07382 0.82568
vt 0.07975 0.83718
vt 0.07421 0.83697
vt 0.23784 0.64531
vt 0.23784 0.62122
vt 0.24302 0.64352
vt 0.63108 0.97965
vt 0.63645 0.97965
vt 0.63370 0.98704
vt 0.10428 0.12660
vt 0.09761 0.12627
vt 0.10285 0.12299
vt 0.04330 0.47597
vt 0.05241 0.47591
vt 0.05267 0.47881
vt 0.34065 0.51498
vt 0.34065 0.48004
vt 0.34210 0.50409
vt 0.74968 0.93238
vt 0.74968 0.94430
vt 0.74510 0.94351
vt 0.61375 0.77079
vt 0.62451 0.77521
vt 0.61298 0.77515
vt 0.59247 0.97476
vt 0.59664 0.96881
vt 0.59661 0.97694
vt 0.37247 0.46868
vt 0.37995 0.46928
vt 0.37267 0.47454
vt 0.61298 0.77515
vt 0.60125 0.77244
vt 0.61375 0.77079
vt 0.23860 0.33740
vt 0.23353 0.33259
vt 0.23979 0.32781
vt 0.82809 0.96311
vt 0.82517 0.96014
vt 0.82824 0.95757
vt 0.76165 0.75033
vt 0.75914 0.74559
vt 0.76461 0.74554
vt 0.59967 0.85394
vt 0.59365 0.86013
vt 0.59195 0.85398
vt 0.59232 0.96687
vt 0.59664 0.96881
vt 0.59247 0.97476
vt 0.59637 0.92448
vt 0.60760 0.93662
vt 0.59532 0.93653
vt 0.84513 0.11511
vt 0.84713 0.09601
vt 0.85315 0.12128
vt 0.04240 0.48021
vt 0.04330 0.47597
vt 0.05267 0.47881
vt 0.59365 0.86013
vt 0.58233 0.85536
vt 0.59195 0.85398
vt 0.23860 0.33740
vt 0.23887 0.34203
vt 0.23353 0.33259
vt 0.63321 0.94700
vt 0.63884 0.93597
vt 0.63854 0.94767
vt 0.01569 0.40710
vt 0.00867 0.40714
vt 0.01375 0.40493
vt 0.56050 0.68550
vt 0.52728 0.67471
vt 0.56173 0.67402
vt 0.85315 0.12128
vt 0.87787 0.11353
vt 0.86647 0.14605
vt 0.37247 0.46868
vt 0.38052 0.44645
vt 0.37995 0.46927
vt 0.37247 0.46868
vt 0.37574 0.44579
vt 0.38052 0.44645
vt 0.37574 0.44579
vt 0.37247 0.46868
vt 0.37216 0.45676
vt 0.76461 0.74554
vt 0.77263 0.75324
vt 0.76165 0.75033
vt 0.82546 0.95236
vt 0.82824 0.95757
vt 0.82517 0.96014
vt 0.23828 0.55362
vt 0.23927 0.54371
vt 0.25378 0.54370
vt 0.00425 0.93352
vt 0.00425 0.93769
vt 0.00126 0.93470
vt 0.42582 0.25492
vt 0.43019 0.24748
vt 0.42894 0.27977
vt 0.35134 0.24172
vt 0.34633 0.23002
vt 0.35082 0.21420
vt 0.71698 0.68594
vt 0.73558 0.68922
vt 0.70733 0.70640
vt 0.42628 0.01820
vt 0.42614 0.01267
vt 0.43468 0.01313
vt 0.48091 0.88450
vt 0.47446 0.88278
vt 0.49023 0.88296
vt 0.43662 0.01842
vt 0.42628 0.01820
vt 0.43468 0.01313
vt 0.02107 0.74482
vt 0.02491 0.73734
vt 0.02593 0.74253
vt 0.43019 0.24751
vt 0.42581 0.25488
vt 0.42472 0.23209
vt 0.58815 0.87837
vt 0.58530 0.87534
vt 0.58972 0.87391
vt 0.02107 0.74482
vt 0.02131 0.73703
vt 0.02491 0.73734
vt 0.96845 0.29577
vt 0.97437 0.29327
vt 0.97950 0.29507
vt 0.58815 0.87837
vt 0.59023 0.88989
vt 0.58530 0.87534
vt 0.85382 0.94679
vt 0.86522 0.94693
vt 0.86467 0.95325
vt 0.18241 0.94573
vt 0.17905 0.94357
vt 0.19074 0.94387
vt 0.00251 0.73695
vt 0.00256 0.73213
vt 0.00604 0.73537
vt 0.85382 0.94679
vt 0.86467 0.95325
vt 0.85403 0.95289
vt 0.08704 0.45267
vt 0.08660 0.44160
vt 0.09460 0.44170
vt 0.45738 0.40841
vt 0.45374 0.44051
vt 0.44423 0.41945
vt 0.08704 0.45267
vt 0.09460 0.44170
vt 0.09443 0.45337
vt 0.27917 0.85586
vt 0.29616 0.86474
vt 0.28081 0.86517
vt 0.88309 0.09825
vt 0.87787 0.11353
vt 0.85315 0.12128
vt 0.07274 0.07312
vt 0.07344 0.08109
vt 0.07226 0.08451
vt 0.30253 0.86262
vt 0.30091 0.85648
vt 0.30310 0.85902
vt 0.26300 0.85151
vt 0.27683 0.86156
vt 0.26270 0.86060
vt 0.60760 0.93662
vt 0.59637 0.92448
vt 0.60806 0.92414
vt 0.74021 0.70561
vt 0.70733 0.70640
vt 0.73558 0.68922
vt 0.42472 0.23209
vt 0.42807 0.23127
vt 0.43018 0.24751
vt 0.94013 0.95818
vt 0.92951 0.95747
vt 0.92951 0.94684
vt 0.84148 0.99264
vt 0.83568 0.99593
vt 0.83616 0.99122
vt 0.00878 0.65663
vt 0.00252 0.65838
vt 0.00434 0.65396
vt 0.12172 0.08008
vt 0.12320 0.08849
vt 0.10951 0.08516
vt 0.97035 0.29027
vt 0.97437 0.29324
vt 0.96845 0.29577
vt 0.55085 0.83689
vt 0.54141 0.84411
vt 0.53277 0.84131
vt 0.23887 0.34203
vt 0.23243 0.34424
vt 0.23353 0.33259
vt 0.11733 0.37241
vt 0.11515 0.38472
vt 0.11490 0.37063
vt 0.10951 0.08516
vt 0.10976 0.08034
vt 0.12172 0.08008
vt 0.30253 0.86262
vt 0.30311 0.85903
vt 0.31193 0.86098
vt 0.31193 0.86098
vt 0.31258 0.86604
vt 0.30253 0.86262
vt 0.77263 0.75324
vt 0.76461 0.74554
vt 0.77562 0.74204
vt 0.24400 0.02187
vt 0.23860 0.01465
vt 0.24397 0.01294
vt 0.04123 0.55210
vt 0.03951 0.55570
vt 0.03473 0.55570
vt 0.96845 0.29577
vt 0.96680 0.28652
vt 0.97035 0.29027
vt 0.55085 0.83689
vt 0.53277 0.84131
vt 0.53615 0.83117
vt 0.06796 0.34713
vt 0.06816 0.35568
vt 0.05909 0.34615
vt 0.29616 0.86474
vt 0.27917 0.85586
vt 0.29613 0.85817
vt 0.12952 0.85722
vt 0.12235 0.84698
vt 0.12976 0.84144
vt 0.77263 0.75324
vt 0.77562 0.74204
vt 0.77799 0.74748
vt 0.02696 0.07237
vt 0.02733 0.07845
vt 0.02388 0.07676
vt 0.02696 0.07237
vt 0.02388 0.07676
vt 0.02484 0.07023
vt 0.30300 0.01708
vt 0.30579 0.02400
vt 0.29716 0.02767
vt 0.23879 0.35096
vt 0.23243 0.34424
vt 0.23887 0.34203
vt 0.09569 0.82605
vt 0.10819 0.82605
vt 0.09699 0.82935
vt 0.04125 0.55212
vt 0.03473 0.55570
vt 0.03187 0.55171
vt 0.29716 0.02767
vt 0.29389 0.01937
vt 0.30300 0.01708
vt 0.92554 0.99732
vt 0.92703 0.99273
vt 0.92826 0.99704
vt 0.93799 0.14599
vt 0.93962 0.13449
vt 0.94449 0.14484
vt 0.15242 0.99828
vt 0.14793 0.99828
vt 0.14838 0.99476
vt 0.94449 0.14484
vt 0.93962 0.13449
vt 0.94559 0.13322
vt 0.80310 0.02024
vt 0.81185 0.01507
vt 0.81202 0.02024
vt 0.94716 0.96577
vt 0.93677 0.96320
vt 0.94416 0.95746
vt 0.13474 0.62261
vt 0.13972 0.63796
vt 0.12930 0.62498
vt 0.08277 0.85826
vt 0.08310 0.85444
vt 0.08332 0.86660
vt 0.40484 0.91171
vt 0.40918 0.91373
vt 0.40571 0.92519
vt 0.80310 0.02024
vt 0.80385 0.01538
vt 0.81185 0.01507
vt 0.57827 0.83202
vt 0.57039 0.84625
vt 0.56345 0.84256
vt 0.19950 0.39314
vt 0.18362 0.38160
vt 0.20027 0.38180
vt 0.09256 0.04941
vt 0.11005 0.04648
vt 0.09570 0.05442
vt 0.80441 0.66862
vt 0.80953 0.66835
vt 0.80505 0.67707
vt 0.95084 0.13215
vt 0.94559 0.13322
vt 0.94705 0.12256
vt 0.94705 0.12256
vt 0.95283 0.12297
vt 0.95084 0.13215
vt 0.05909 0.34615
vt 0.06815 0.35568
vt 0.05889 0.35698
vt 0.68802 0.88633
vt 0.68802 0.90084
vt 0.68294 0.89981
vt 0.44423 0.41945
vt 0.44238 0.44278
vt 0.42974 0.41396
vt 0.44238 0.44278
vt 0.44423 0.41945
vt 0.45371 0.44053
vt 0.31193 0.86098
vt 0.31769 0.86231
vt 0.31258 0.86604
vt 0.49481 0.74649
vt 0.49554 0.75481
vt 0.48321 0.74688
vt 0.56815 0.91445
vt 0.55485 0.91679
vt 0.55418 0.91414
vt 0.80953 0.66835
vt 0.81749 0.66922
vt 0.80508 0.67709
vt 0.48364 0.64777
vt 0.50706 0.64254
vt 0.49620 0.64777
vt 0.53277 0.84131
vt 0.53219 0.83453
vt 0.53615 0.83117
vt 0.83733 0.92162
vt 0.83733 0.93418
vt 0.83448 0.93403
vt 0.71738 0.87197
vt 0.72161 0.87615
vt 0.71346 0.87365
vt 0.24395 0.34620
vt 0.23879 0.35096
vt 0.23887 0.34203
vt 0.50704 0.64786
vt 0.49620 0.64777
vt 0.50706 0.64254
vt 0.45371 0.44061
vt 0.44312 0.45484
vt 0.44238 0.44278
vt 0.46808 0.64738
vt 0.50706 0.64254
vt 0.48364 0.64777
vt 0.94020 0.94807
vt 0.94013 0.95818
vt 0.92951 0.94684
vt 0.12634 0.35966
vt 0.14218 0.35966
vt 0.12917 0.36585
vt 0.95084 0.13215
vt 0.95275 0.12295
vt 0.95410 0.14574
vt 0.93677 0.96320
vt 0.94716 0.96577
vt 0.93598 0.96595
vt 0.43073 0.45322
vt 0.42974 0.41396
vt 0.44238 0.44278
vt 0.65008 0.92461
vt 0.66320 0.92461
vt 0.66127 0.93069
vt 0.81749 0.66922
vt 0.84029 0.66811
vt 0.80508 0.67709
vt 0.77278 0.90437
vt 0.77939 0.89672
vt 0.78550 0.89726
vt 0.93962 0.13449
vt 0.94223 0.12277
vt 0.94559 0.13322
vt 0.77278 0.90437
vt 0.78714 0.90177
vt 0.78493 0.90389
vt 0.71738 0.87197
vt 0.71347 0.87366
vt 0.71636 0.86048
vt 0.94705 0.12256
vt 0.94559 0.13322
vt 0.94223 0.12277
vt 0.48321 0.74688
vt 0.49554 0.75481
vt 0.48302 0.75139
vt 0.77278 0.90437
vt 0.78550 0.89726
vt 0.78714 0.90177
vt 0.44312 0.45484
vt 0.43073 0.45322
vt 0.44238 0.44278
vt 0.49400 0.90685
vt 0.48239 0.89842
vt 0.49523 0.89573
vt 0.31769 0.86231
vt 0.31193 0.86098
vt 0.31497 0.85662
vt 0.95283 0.12296
vt 0.94705 0.12256
vt 0.94695 0.11440
vt 0.95277 0.12299
vt 0.94695 0.11440
vt 0.94960 0.10314
vt 0.20575 0.24015
vt 0.20240 0.23271
vt 0.21103 0.22978
vt 0.40564 0.79915
vt 0.40495 0.81905
vt 0.39990 0.79912
vt 0.94960 0.10314
vt 0.95369 0.10309
vt 0.95276 0.12300
vt 0.07929 0.45294
vt 0.08580 0.44163
vt 0.08559 0.45239
vt 0.84030 0.66819
vt 0.84017 0.67398
vt 0.80508 0.67710
vt 0.31769 0.86231
vt 0.31497 0.85662
vt 0.31743 0.85741
vt 0.07929 0.45294
vt 0.07968 0.44115
vt 0.08580 0.44163
vt 0.47124 0.75541
vt 0.48321 0.74688
vt 0.48302 0.75139
vt 0.94505 0.93139
vt 0.94810 0.93113
vt 0.94499 0.94277
vt 0.01823 0.47894
vt 0.02584 0.47894
vt 0.01810 0.48376
vt 0.20575 0.24015
vt 0.21106 0.22980
vt 0.20850 0.25138
vt 0.34688 0.55119
vt 0.34388 0.56382
vt 0.34077 0.54034
vt 0.34388 0.56382
vt 0.34301 0.57516
vt 0.34076 0.54035
vt 0.45702 0.24619
vt 0.47034 0.24799
vt 0.45704 0.28106
vt 0.94499 0.94277
vt 0.94810 0.93113
vt 0.94755 0.94306
vt 0.11608 0.99948
vt 0.11445 0.99553
vt 0.11777 0.99553
vt 0.47125 0.75543
vt 0.47123 0.74782
vt 0.48321 0.74688
vt 0.73072 0.93738
vt 0.74267 0.93738
vt 0.73081 0.94229
vt 0.20850 0.25138
vt 0.21106 0.22980
vt 0.21182 0.25141
vt 0.73081 0.94229
vt 0.74267 0.93738
vt 0.74260 0.94218
vt 0.45713 0.28110
vt 0.47048 0.24805
vt 0.46477 0.28282
vt 0.45814 0.30270
vt 0.46477 0.28282
vt 0.46221 0.30317
vt 0.46477 0.28282
vt 0.45814 0.30270
vt 0.45714 0.28110
vn 0.6262 -0.7121 0.3175
vn 0.8484 0.3982 -0.3488
vn 0.5184 0.4853 0.7041
vn 0.6262 -0.7121 0.3175
vn 0.5505 -0.6922 -0.4668
vn 0.8484 0.3982 -0.3488
vn 0.5505 -0.6922 -0.4668
vn 0.5732 -0.0083 -0.8194
vn 0.8484 0.3982 -0.3488
vn 0.8484 0.3982 -0.3488
vn 0.5763 0.7281 -0.3711
vn 0.5184 0.4853 0.7041
vn 0.8232 -0.5131 -0.2429
vn 0.5732 -0.0083 -0.8194
vn 0.5505 -0.6922 -0.4668
vn 0.6262 -0.7121 0.3175
vn 0.8232 -0.5131 -0.2429
vn 0.5505 -0.6922 -0.4668
vn 0.5910 0.2074 0.7796
vn 0.9073 0.4078 -0.1024
vn 0.5744 0.6279 0.5252
vn 0.9413 0.0077 -0.3374
vn 0.9073 0.4078 -0.1024
vn 0.8610 -0.3693 -0.3497
vn 0.5763 0.7281 -0.3711
vn 0.8484 0.3982 -0.3488
vn 0.5732 -0.0083 -0.8194
vn 0.5910 0.2074 0.7796
vn 0.8610 -0.3693 -0.3497
vn 0.9073 0.4078 -0.1024
vn 0.9413 0.0077 -0.3374
vn 0.8232 -0.5131 -0.2429
vn 0.7205 0.0857 0.6881
vn 0.9413 0.0077 -0.3374
vn 0.5744 0.6279 0.5252
vn 0.9073 0.4078 -0.1024
vn -0.2500 0.6920 0.6773
vn 0.5184 0.4853 0.7041
vn 0.5763 0.7281 -0.3711
vn 0.6262 -0.7121 0.3175
vn 0.5184 0.4853 0.7041
vn 0.2887 -0.2230 0.9311
vn 0.7205 0.0857 0.6881
vn 0.5744 0.6279 0.5252
vn 0.9413 0.0077 -0.3374
vn 0.8610 -0.3693 -0.3497
vn 0.5910 0.2074 0.7796
vn 0.3021 -0.7667 0.5665
vn 0.7787 0.2987 -0.5518
vn 0.8232 -0.5131 -0.2429
vn 0.8193 -0.0017 -0.5734
vn 0.7813 0.4499 -0.4326
vn 0.7209 0.3414 0.6031
vn 0.5579 -0.7983 0.2270
vn 0.8232 -0.5131 -0.2429
vn 0.7787 0.2987 -0.5518
vn 0.5732 -0.0083 -0.8194
vn 0.3021 -0.7667 0.5665
vn 0.3082 -0.8664 -0.3929
vn 0.8610 -0.3693 -0.3497
vn 0.5744 0.6279 0.5252
vn 0.7205 0.0857 0.6881
vn 0.7727 -0.3329 0.5404
vn 0.9413 0.0077 -0.3374
vn 0.8193 -0.0017 -0.5734
vn 0.8232 -0.5131 -0.2429
vn 0.7813 0.4499 -0.4326
vn 0.5579 -0.7983 0.2270
vn 0.4808 -0.5680 -0.6680
vn 0.5910 0.2074 0.7796
vn 0.5744 0.6279 0.5252
vn 0.6928 -0.2594 0.6729
vn 0.7205 0.0857 0.6881
vn 0.8232 -0.5131 -0.2429
vn 0.7727 -0.3329 0.5404
vn 0.5579 -0.7983 0.2270
vn 0.7209 0.3414 0.6031
vn 0.8988 -0.3062 0.3138
vn 0.2887 -0.2230 0.9311
vn 0.5184 0.4853 0.7041
vn -0.6578 0.0291 0.7527
vn 0.7813 0.4499 -0.4326
vn 0.8576 0.4759 -0.1950
vn 0.7209 0.3414 0.6031
vn 0.3082 -0.8664 -0.3929
vn 0.9413 0.0077 -0.3374
vn 0.8610 -0.3693 -0.3497
vn 0.6262 -0.7121 0.3175
vn 0.2887 -0.2230 0.9311
vn 0.8232 -0.5131 -0.2429
vn 0.8193 -0.0017 -0.5734
vn 0.9413 0.0077 -0.3374
vn 0.8988 -0.3062 0.3138
vn 0.3082 -0.8664 -0.3929
vn 0.8988 -0.3062 0.3138
vn 0.9413 0.0077 -0.3374
vn 0.7813 0.4499 -0.4326
vn 0.4808 -0.5680 -0.6680
vn 0.8576 0.4759 -0.1950
vn 0.5763 0.7281 -0.3711
vn -0.3014 0.9230 -0.2394
vn -0.4150 0.8473 0.3315
vn 0.8988 -0.3062 0.3138
vn 0.7209 0.3414 0.6031
vn 0.8576 0.4759 -0.1950
vn 0.8232 -0.5131 -0.2429
vn 0.2887 -0.2230 0.9311
vn 0.7727 -0.3329 0.5404
vn 0.8193 -0.0017 -0.5734
vn 0.8896 0.1128 -0.4427
vn 0.7787 0.2987 -0.5518
vn 0.6928 -0.2594 0.6729
vn 0.3021 -0.7667 0.5665
vn 0.5910 0.2074 0.7796
vn 0.7404 0.3056 -0.5987
vn -0.2906 0.6796 -0.6736
vn 0.5763 0.7281 -0.3711
vn 0.7787 0.2987 -0.5518
vn 0.8896 0.1128 -0.4427
vn 0.5732 -0.0083 -0.8194
vn 0.3082 -0.8664 -0.3929
vn 0.3021 -0.7667 0.5665
vn 0.8988 -0.3062 0.3138
vn 0.9126 0.1246 -0.3895
vn 0.8193 -0.0017 -0.5734
vn 0.8988 -0.3062 0.3138
vn 0.5744 0.6279 0.5252
vn 0.7727 -0.3329 0.5404
vn 0.6928 -0.2594 0.6729
vn 0.5732 -0.0083 -0.8194
vn 0.8896 0.1128 -0.4427
vn 0.5763 0.7281 -0.3711
vn 0.8988 -0.3062 0.3138
vn 0.7146 0.5392 -0.4457
vn 0.9126 0.1246 -0.3895
vn 0.7146 0.5392 -0.4457
vn 0.8988 -0.3062 0.3138
vn 0.8576 0.4759 -0.1950
vn 0.8193 -0.0017 -0.5734
vn 0.9126 0.1246 -0.3895
vn 0.7564 0.5471 -0.3585
vn 0.6207 -0.2721 -0.7354
vn 0.5579 -0.7983 0.2270
vn 0.4610 -0.8874 -0.0053
vn -0.2500 0.6920 0.6773
vn -0.6578 0.0291 0.7527
vn 0.5184 0.4853 0.7041
vn 0.6928 -0.2594 0.6729
vn 0.7727 -0.3329 0.5404
vn 0.2887 -0.2230 0.9311
vn -0.2500 0.6920 0.6773
vn 0.5763 0.7281 -0.3711
vn -0.4150 0.8473 0.3315
vn 0.7404 0.3056 -0.5987
vn 0.9103 0.1686 -0.3780
vn -0.2906 0.6796 -0.6736
vn 0.5763 0.7281 -0.3711
vn 0.9103 0.1686 -0.3780
vn 0.7404 0.3056 -0.5987
vn 0.7146 0.5392 -0.4457
vn 0.7564 0.5471 -0.3585
vn 0.9126 0.1246 -0.3895
vn 0.8576 0.4759 -0.1950
vn 0.4808 -0.5680 -0.6680
vn 0.6207 -0.2721 -0.7354
vn 0.4808 -0.5680 -0.6680
vn 0.5579 -0.7983 0.2270
vn 0.6207 -0.2721 -0.7354
vn 0.9103 0.1686 -0.3780
vn 0.5763 0.7281 -0.3711
vn 0.8896 0.1128 -0.4427
vn 0.3021 -0.7667 0.5665
vn 0.6928 -0.2594 0.6729
vn 0.4392 -0.7747 0.4548
vn 0.3021 -0.7667 0.5665
vn 0.2113 -0.8439 0.4932
vn 0.8988 -0.3062 0.3138
vn -0.2906 0.6796 -0.6736
vn -0.3014 0.9230 -0.2394
vn 0.5763 0.7281 -0.3711
vn 0.8505 0.2990 -0.4327
vn 0.7564 0.5471 -0.3585
vn 0.7146 0.5392 -0.4457
vn 0.4767 -0.7388 0.4764
vn 0.6928 -0.2594 0.6729
vn 0.2887 -0.2230 0.9311
vn 0.7634 0.4672 -0.4460
vn 0.9103 0.1686 -0.3780
vn 0.8896 0.1128 -0.4427
vn 0.3021 -0.7667 0.5665
vn 0.4425 -0.7038 0.5557
vn 0.2113 -0.8439 0.4932
vn -0.2500 0.6920 0.6773
vn -0.4150 0.8473 0.3315
vn -0.6578 0.0291 0.7527
vn 0.8576 0.4759 -0.1950
vn 0.3207 -0.4199 -0.8490
vn 0.7146 0.5392 -0.4457
vn 0.5579 -0.7983 0.2270
vn 0.9760 -0.2171 -0.0156
vn 0.4610 -0.8874 -0.0053
vn 0.5579 -0.7983 0.2270
vn 0.8988 -0.3062 0.3138
vn 0.9760 -0.2171 -0.0156
vn 0.7564 0.5471 -0.3585
vn 0.8896 0.1128 -0.4427
vn 0.8193 -0.0017 -0.5734
vn 0.8576 0.4759 -0.1950
vn 0.6207 -0.2721 -0.7354
vn 0.3207 -0.4199 -0.8490
vn 0.3021 -0.7667 0.5665
vn 0.4392 -0.7747 0.4548
vn 0.4425 -0.7038 0.5557
vn 0.4767 -0.7388 0.4764
vn 0.4392 -0.7747 0.4548
vn 0.6928 -0.2594 0.6729
vn -0.0735 0.9574 -0.2794
vn -0.2906 0.6796 -0.6736
vn 0.9103 0.1686 -0.3780
vn 0.6352 0.5316 0.5603
vn 0.8988 -0.3062 0.3138
vn 0.2113 -0.8439 0.4932
vn 0.8147 0.5216 -0.2534
vn 0.7826 0.2823 0.5548
vn 0.4912 -0.8425 0.2211
vn -0.4419 0.8921 0.0941
vn -0.4150 0.8473 0.3315
vn -0.3014 0.9230 -0.2394
vn 0.8451 0.4041 -0.3501
vn 0.8896 0.1128 -0.4427
vn 0.7564 0.5471 -0.3585
vn 0.8451 0.4041 -0.3501
vn 0.7564 0.5471 -0.3585
vn 0.8505 0.2990 -0.4327
vn -0.6578 0.0291 0.7527
vn 0.4767 -0.7388 0.4764
vn 0.2887 -0.2230 0.9311
vn 0.8451 0.4041 -0.3501
vn 0.8505 0.2990 -0.4327
vn 0.7433 0.3549 -0.5671
vn 0.5525 -0.6068 -0.5714
vn 0.6207 -0.2721 -0.7354
vn 0.4610 -0.8874 -0.0053
vn 0.4912 -0.8425 0.2211
vn 0.5637 -0.5755 -0.5924
vn 0.8147 0.5216 -0.2534
vn 0.8896 0.1128 -0.4427
vn 0.6236 0.2765 -0.7312
vn 0.7634 0.4672 -0.4460
vn 0.5794 -0.6834 -0.4442
vn 0.8224 0.4815 -0.3031
vn 0.7655 0.1965 0.6128
vn 0.8147 0.5216 -0.2534
vn 0.5637 -0.5755 -0.5924
vn 0.2359 -0.1068 -0.9659
vn 0.9760 -0.2171 -0.0156
vn 0.8224 0.4815 -0.3031
vn 0.5794 -0.6834 -0.4442
vn 0.7655 0.1965 0.6128
vn 0.8224 0.4815 -0.3031
vn 0.6352 0.5316 0.5603
vn 0.7634 0.4672 -0.4460
vn -0.2299 0.8771 -0.4218
vn 0.9103 0.1686 -0.3780
vn 0.8988 -0.3062 0.3138
vn 0.6352 0.5316 0.5603
vn 0.9760 -0.2171 -0.0156
vn -0.3014 0.9230 -0.2394
vn -0.2906 0.6796 -0.6736
vn -0.0735 0.9574 -0.2794
vn 0.4767 -0.7388 0.4764
vn 0.4425 -0.7038 0.5557
vn 0.4392 -0.7747 0.4548
vn 0.8224 0.4815 -0.3031
vn 0.9760 -0.2171 -0.0156
vn 0.6352 0.5316 0.5603
vn 0.3207 -0.4199 -0.8490
vn 0.8505 0.2990 -0.4327
vn 0.7146 0.5392 -0.4457
vn 0.7433 0.3549 -0.5671
vn 0.6236 0.2765 -0.7312
vn 0.8451 0.4041 -0.3501
vn 0.8451 0.4041 -0.3501
vn 0.6236 0.2765 -0.7312
vn 0.8896 0.1128 -0.4427
vn 0.8505 0.2990 -0.4327
vn 0.6360 0.5712 -0.5189
vn 0.7433 0.3549 -0.5671
vn 0.4610 -0.8874 -0.0053
vn 0.4228 -0.7693 0.4790
vn 0.5525 -0.6068 -0.5714
vn 0.8505 0.2990 -0.4327
vn 0.9388 0.1667 0.3014
vn 0.6360 0.5712 -0.5189
vn -0.4419 0.8921 0.0941
vn -0.3014 0.9230 -0.2394
vn -0.0735 0.9574 -0.2794
vn 0.5794 -0.6834 -0.4442
vn 0.7655 0.1965 0.6128
vn 0.4952 -0.7223 0.4829
vn 0.7655 0.1965 0.6128
vn 0.4744 -0.2764 0.8358
vn 0.4952 -0.7223 0.4829
vn 0.6360 0.5712 -0.5189
vn 0.9388 0.1667 0.3014
vn 0.7883 0.0602 -0.6123
vn 0.4767 -0.7388 0.4764
vn 0.2068 -0.5517 0.8080
vn 0.4425 -0.7038 0.5557
vn 0.3207 -0.4199 -0.8490
vn 0.8021 -0.1416 -0.5802
vn 0.8505 0.2990 -0.4327
vn 0.6360 0.5712 -0.5189
vn 0.7883 0.0602 -0.6123
vn 0.7433 0.3549 -0.5671
vn 0.3207 -0.4199 -0.8490
vn 0.6207 -0.2721 -0.7354
vn 0.8021 -0.1416 -0.5802
vn 0.9103 0.1686 -0.3780
vn -0.2299 0.8771 -0.4218
vn -0.0735 0.9574 -0.2794
vn 0.8021 -0.1416 -0.5802
vn 0.9388 0.1667 0.3014
vn 0.8505 0.2990 -0.4327
vn 0.6739 0.2547 0.6935
vn 0.6352 0.5316 0.5603
vn 0.4425 -0.7038 0.5557
vn 0.4425 -0.7038 0.5557
vn 0.6352 0.5316 0.5603
vn 0.2113 -0.8439 0.4932
vn -0.4150 0.8473 0.3315
vn -0.7914 0.0786 0.6062
vn -0.6578 0.0291 0.7527
vn 0.7655 0.1965 0.6128
vn 0.6352 0.5316 0.5603
vn 0.6739 0.2547 0.6935
vn 0.7634 0.4672 -0.4460
vn 0.6236 0.2765 -0.7312
vn -0.2299 0.8771 -0.4218
vn -0.4419 0.8921 0.0941
vn -0.0735 0.9574 -0.2794
vn -0.8650 0.4895 -0.1104
vn 0.7445 0.5590 -0.3651
vn 0.6236 0.2765 -0.7312
vn 0.7433 0.3549 -0.5671
vn 0.4767 -0.7388 0.4764
vn -0.6578 0.0291 0.7527
vn 0.2068 -0.5517 0.8080
vn 0.4912 -0.8425 0.2211
vn 0.7826 0.2823 0.5548
vn 0.9398 -0.2866 -0.1861
vn 0.6207 -0.2721 -0.7354
vn 0.5525 -0.6068 -0.5714
vn 0.8021 -0.1416 -0.5802
vn 0.7826 0.2823 0.5548
vn 0.8147 0.5216 -0.2534
vn 0.4026 0.3923 -0.8271
vn 0.5525 -0.6068 -0.5714
vn 0.4228 -0.7693 0.4790
vn 0.5668 -0.3340 -0.7531
vn 0.5794 -0.6834 -0.4442
vn 0.4952 -0.7223 0.4829
vn 0.8446 -0.5333 -0.0467
vn 0.5794 -0.6834 -0.4442
vn 0.8446 -0.5333 -0.0467
vn 0.9760 -0.2171 -0.0156
vn 0.7433 0.3549 -0.5671
vn 0.6834 0.5414 -0.4898
vn 0.7445 0.5590 -0.3651
vn -0.8650 0.4895 -0.1104
vn -0.0735 0.9574 -0.2794
vn -0.2299 0.8771 -0.4218
vn 0.2068 -0.5517 0.8080
vn 0.6739 0.2547 0.6935
vn 0.4425 -0.7038 0.5557
vn 0.4228 -0.7693 0.4790
vn 0.4398 -0.7828 0.4401
vn 0.5668 -0.3340 -0.7531
vn 0.4610 -0.8874 -0.0053
vn 0.4398 -0.7828 0.4401
vn 0.4228 -0.7693 0.4790
vn 0.9388 0.1667 0.3014
vn 0.9398 -0.2866 -0.1861
vn 0.7826 0.2823 0.5548
vn -0.2229 0.8237 -0.5214
vn 0.7445 0.5590 -0.3651
vn 0.6834 0.5414 -0.4898
vn 0.6834 0.5414 -0.4898
vn 0.7433 0.3549 -0.5671
vn 0.7883 0.0602 -0.6123
vn 0.3454 -0.9217 -0.1766
vn 0.5637 -0.5755 -0.5924
vn 0.4912 -0.8425 0.2211
vn 0.4912 -0.8425 0.2211
vn 0.9398 -0.2866 -0.1861
vn 0.3454 -0.9217 -0.1766
vn 0.6834 0.5414 -0.4898
vn 0.7883 0.0602 -0.6123
vn 0.9013 0.1639 -0.4010
vn 0.5525 -0.6068 -0.5714
vn 0.5668 -0.3340 -0.7531
vn 0.9398 -0.2866 -0.1861
vn 0.4744 -0.2764 0.8358
vn 0.7655 0.1965 0.6128
vn 0.6739 0.2547 0.6935
vn 0.4398 -0.7828 0.4401
vn 0.4610 -0.8874 -0.0053
vn 0.9760 -0.2171 -0.0156
vn -0.5319 0.5497 0.6442
vn -0.6578 0.0291 0.7527
vn -0.7914 0.0786 0.6062
vn 0.6236 0.2765 -0.7312
vn -0.1337 0.4965 -0.8576
vn -0.2299 0.8771 -0.4218
vn -0.0472 0.5290 0.8473
vn 0.2068 -0.5517 0.8080
vn -0.6578 0.0291 0.7527
vn 0.9760 -0.2171 -0.0156
vn 0.8446 -0.5333 -0.0467
vn 0.4398 -0.7828 0.4401
vn 0.9388 0.1667 0.3014
vn 0.8021 -0.1416 -0.5802
vn 0.9398 -0.2866 -0.1861
vn 0.5637 -0.5755 -0.5924
vn 0.4099 -0.6558 -0.6340
vn 0.2359 -0.1068 -0.9659
vn 0.9388 0.1667 0.3014
vn 0.8729 0.4299 -0.2305
vn 0.7883 0.0602 -0.6123
vn 0.6236 0.2765 -0.7312
vn 0.7445 0.5590 -0.3651
vn -0.5533 0.6645 -0.5023
vn -0.5533 0.6645 -0.5023
vn -0.1337 0.4965 -0.8576
vn 0.6236 0.2765 -0.7312
vn 0.5668 -0.3340 -0.7531
vn 0.6047 -0.7704 -0.2021
vn 0.9398 -0.2866 -0.1861
vn 0.2359 -0.1068 -0.9659
vn 0.4026 0.3923 -0.8271
vn 0.8147 0.5216 -0.2534
vn 0.6739 0.2547 0.6935
vn 0.2068 -0.5517 0.8080
vn 0.4744 -0.2764 0.8358
vn 0.5668 -0.3340 -0.7531
vn 0.5665 -0.7246 0.3925
vn 0.6047 -0.7704 -0.2021
vn 0.5525 -0.6068 -0.5714
vn 0.9398 -0.2866 -0.1861
vn 0.8021 -0.1416 -0.5802
vn 0.7883 0.0602 -0.6123
vn 0.8729 0.4299 -0.2305
vn 0.9013 0.1639 -0.4010
vn 0.5668 -0.3340 -0.7531
vn 0.4398 -0.7828 0.4401
vn 0.5665 -0.7246 0.3925
vn 0.8446 -0.5333 -0.0467
vn 0.4952 -0.7223 0.4829
vn 0.4398 -0.7828 0.4401
vn 0.5637 -0.5755 -0.5924
vn 0.3454 -0.9217 -0.1766
vn 0.4099 -0.6558 -0.6340
vn 0.3454 -0.9217 -0.1766
vn 0.9398 -0.2866 -0.1861
vn 0.6047 -0.7704 -0.2021
vn 0.8729 0.4299 -0.2305
vn 0.4026 0.3923 -0.8271
vn 0.9013 0.1639 -0.4010
vn -0.8348 0.2002 0.5129
vn -0.4419 0.8921 0.0941
vn -0.8650 0.4895 -0.1104
vn 0.9013 0.1639 -0.4010
vn 0.4026 0.3923 -0.8271
vn 0.7184 0.5334 -0.4466
vn -0.8348 0.2002 0.5129
vn -0.5319 0.5497 0.6442
vn -0.7914 0.0786 0.6062
vn -0.6578 0.0291 0.7527
vn -0.8433 0.3806 0.3794
vn -0.0472 0.5290 0.8473
vn -0.8433 0.3806 0.3794
vn -0.6578 0.0291 0.7527
vn -0.5319 0.5497 0.6442
vn -0.8650 0.4895 -0.1104
vn -0.2299 0.8771 -0.4218
vn -0.8955 0.3813 -0.2296
vn -0.0472 0.5290 0.8473
vn 0.4744 -0.2764 0.8358
vn 0.2068 -0.5517 0.8080
vn 0.4026 0.3923 -0.8271
vn 0.9388 0.1667 0.3014
vn 0.7826 0.2823 0.5548
vn -0.4150 0.8473 0.3315
vn -0.8348 0.2002 0.5129
vn -0.7914 0.0786 0.6062
vn 0.4952 -0.7223 0.4829
vn 0.1916 -0.9435 0.2704
vn 0.4398 -0.7828 0.4401
vn -0.1337 0.4965 -0.8576
vn -0.5533 0.6645 -0.5023
vn -0.2299 0.8771 -0.4218
vn 0.4952 -0.7223 0.4829
vn 0.4744 -0.2764 0.8358
vn 0.1916 -0.9435 0.2704
vn -0.2229 0.8237 -0.5214
vn -0.5533 0.6645 -0.5023
vn 0.7445 0.5590 -0.3651
vn 0.5665 -0.7246 0.3925
vn 0.6101 -0.7706 -0.1841
vn 0.6047 -0.7704 -0.2021
vn 0.3454 -0.9217 -0.1766
vn 0.6047 -0.7704 -0.2021
vn 0.4871 -0.6117 -0.6233
vn -0.4150 0.8473 0.3315
vn -0.4419 0.8921 0.0941
vn -0.8348 0.2002 0.5129
vn 0.7184 0.5334 -0.4466
vn -0.1636 0.7751 -0.6103
vn 0.9013 0.1639 -0.4010
vn 0.4026 0.3923 -0.8271
vn 0.8729 0.4299 -0.2305
vn 0.9388 0.1667 0.3014
vn 0.9013 0.1639 -0.4010
vn -0.2229 0.8237 -0.5214
vn 0.6834 0.5414 -0.4898
vn 0.1916 -0.9435 0.2704
vn 0.1856 -0.9584 0.2169
vn 0.4398 -0.7828 0.4401
vn 0.6591 -0.4549 0.5988
vn 0.5665 -0.7246 0.3925
vn 0.4398 -0.7828 0.4401
vn -0.8955 0.3813 -0.2296
vn -0.2299 0.8771 -0.4218
vn -0.5533 0.6645 -0.5023
vn 0.9013 0.1639 -0.4010
vn -0.5992 0.5372 -0.5936
vn -0.2229 0.8237 -0.5214
vn 0.4398 -0.7828 0.4401
vn 0.1856 -0.9584 0.2169
vn 0.3588 -0.8644 0.3521
vn 0.6101 -0.7706 -0.1841
vn 0.5002 -0.7945 -0.3444
vn 0.6047 -0.7704 -0.2021
vn 0.6591 -0.4549 0.5988
vn 0.4398 -0.7828 0.4401
vn 0.3588 -0.8644 0.3521
vn 0.7184 0.5334 -0.4466
vn 0.4026 0.3923 -0.8271
vn -0.1636 0.7751 -0.6103
vn 0.8596 0.4152 -0.2978
vn 0.7645 0.3658 0.5307
vn 0.5905 -0.7746 0.2264
vn 0.8191 -0.5350 0.2070
vn 0.8385 -0.0073 0.5449
vn 0.8596 0.4152 -0.2978
vn -0.5992 0.5372 -0.5936
vn -0.5533 0.6645 -0.5023
vn -0.2229 0.8237 -0.5214
vn -0.5298 0.3366 -0.7785
vn 0.4026 0.3923 -0.8271
vn 0.2359 -0.1068 -0.9659
vn -0.5992 0.5372 -0.5936
vn 0.9013 0.1639 -0.4010
vn -0.1636 0.7751 -0.6103
vn -0.5319 0.5497 0.6442
vn -0.4508 0.5229 0.7235
vn -0.8433 0.3806 0.3794
vn 0.5905 -0.7746 0.2264
vn 0.8191 -0.5350 0.2070
vn 0.8596 0.4152 -0.2978
vn 0.5002 -0.7945 -0.3444
vn 0.4871 -0.6117 -0.6233
vn 0.6047 -0.7704 -0.2021
vn 0.4871 -0.6117 -0.6233
vn 0.8166 -0.2322 -0.5284
vn 0.3454 -0.9217 -0.1766
vn 0.3454 -0.9217 -0.1766
vn 0.8248 -0.2084 -0.5257
vn 0.4099 -0.6558 -0.6340
vn 0.2359 -0.1068 -0.9659
vn 0.4099 -0.6558 -0.6340
vn 0.8248 -0.2084 -0.5257
vn 0.0590 0.1236 0.9906
vn -0.5319 0.5497 0.6442
vn -0.8348 0.2002 0.5129
vn 0.4744 -0.2764 0.8358
vn -0.0472 0.5290 0.8473
vn 0.0167 0.3219 0.9466
vn 0.5665 -0.7246 0.3925
vn 0.6591 -0.4549 0.5988
vn 0.8385 -0.0073 0.5449
vn 0.5665 -0.7246 0.3925
vn 0.8385 -0.0073 0.5449
vn 0.6101 -0.7706 -0.1841
vn 0.3588 -0.8644 0.3521
vn 0.1856 -0.9584 0.2169
vn 0.4294 -0.8001 0.4188
vn 0.0590 0.1236 0.9906
vn -0.4508 0.5229 0.7235
vn -0.5319 0.5497 0.6442
vn 0.2359 -0.1068 -0.9659
vn 0.8248 -0.2084 -0.5257
vn 0.6318 0.0457 -0.7738
vn 0.3454 -0.9217 -0.1766
vn 0.8166 -0.2322 -0.5284
vn 0.8248 -0.2084 -0.5257
vn 0.8859 -0.0101 -0.4637
vn 0.5002 -0.7945 -0.3444
vn 0.6101 -0.7706 -0.1841
vn -0.8348 0.2002 0.5129
vn -0.8650 0.4895 -0.1104
vn -0.8955 0.3813 -0.2296
vn -0.8433 0.3806 0.3794
vn -0.4508 0.5229 0.7235
vn -0.3058 0.6000 0.7393
vn 0.6101 -0.7706 -0.1841
vn 0.8191 -0.5350 0.2070
vn 0.8859 -0.0101 -0.4637
vn 0.8385 -0.0073 0.5449
vn 0.5893 0.6452 0.4863
vn 0.8596 0.4152 -0.2978
vn 0.6591 -0.4549 0.5988
vn 0.3588 -0.8644 0.3521
vn 0.4294 -0.8001 0.4188
vn 0.8191 -0.5350 0.2070
vn 0.6101 -0.7706 -0.1841
vn 0.8385 -0.0073 0.5449
vn -0.1869 -0.8272 0.5299
vn 0.1916 -0.9435 0.2704
vn 0.4744 -0.2764 0.8358
vn 0.4871 -0.6117 -0.6233
vn 0.5002 -0.7945 -0.3444
vn 0.8166 -0.2322 -0.5284
vn -0.8955 0.3813 -0.2296
vn -0.5533 0.6645 -0.5023
vn -0.5992 0.5372 -0.5936
vn 0.4026 0.3923 -0.8271
vn -0.5298 0.3366 -0.7785
vn -0.1636 0.7751 -0.6103
vn 0.8191 -0.5350 0.2070
vn 0.5693 -0.6502 0.5031
vn 0.8859 -0.0101 -0.4637
vn -0.8433 0.3806 0.3794
vn -0.3058 0.6000 0.7393
vn -0.0472 0.5290 0.8473
vn 0.1856 -0.9584 0.2169
vn -0.3642 -0.5673 0.7386
vn 0.4294 -0.8001 0.4188
vn -0.1636 0.7751 -0.6103
vn -0.5298 0.3366 -0.7785
vn -0.5992 0.5372 -0.5936
vn 0.6655 -0.6557 -0.3567
vn 0.7890 -0.4251 -0.4436
vn 0.8859 -0.0101 -0.4637
vn 0.8859 -0.0101 -0.4637
vn 0.5693 -0.6502 0.5031
vn 0.6655 -0.6557 -0.3567
vn 0.0590 0.1236 0.9906
vn -0.3058 0.6000 0.7393
vn -0.4508 0.5229 0.7235
vn 0.4294 -0.8001 0.4188
vn 0.4264 -0.4494 0.7850
vn 0.6591 -0.4549 0.5988
vn 0.1916 -0.9435 0.2704
vn -0.3642 -0.5673 0.7386
vn 0.1856 -0.9584 0.2169
vn 0.5693 -0.6502 0.5031
vn 0.8191 -0.5350 0.2070
vn 0.4194 -0.8026 0.4243
vn -0.8348 0.2002 0.5129
vn -0.3058 0.6000 0.7393
vn 0.0590 0.1236 0.9906
vn 0.8624 -0.0120 -0.5060
vn 0.8166 -0.2322 -0.5284
vn 0.5002 -0.7945 -0.3444
vn 0.8859 -0.0101 -0.4637
vn 0.7890 -0.4251 -0.4436
vn 0.8624 -0.0120 -0.5060
vn 0.6591 -0.4549 0.5988
vn 0.5893 0.6452 0.4863
vn 0.8385 -0.0073 0.5449
vn 0.8166 -0.2322 -0.5284
vn 0.6318 0.0457 -0.7738
vn 0.8248 -0.2084 -0.5257
vn 0.8624 -0.0120 -0.5060
vn 0.5002 -0.7945 -0.3444
vn 0.8859 -0.0101 -0.4637
vn 0.5893 0.6452 0.4863
vn 0.7645 0.3658 0.5307
vn 0.8596 0.4152 -0.2978
vn 0.5693 -0.6502 0.5031
vn 0.6739 -0.7288 -0.1215
vn 0.6655 -0.6557 -0.3567
vn 0.0167 0.3219 0.9466
vn -0.0472 0.5290 0.8473
vn -0.3058 0.6000 0.7393
vn 0.8191 -0.5350 0.2070
vn 0.5905 -0.7746 0.2264
vn 0.0538 -0.9737 0.2214
vn 0.4264 -0.4494 0.7850
vn 0.5893 0.6452 0.4863
vn 0.6591 -0.4549 0.5988
vn 0.7645 0.3658 0.5307
vn -0.1441 -0.7513 0.6441
vn 0.5905 -0.7746 0.2264
vn -0.5992 0.5372 -0.5936
vn -0.5298 0.3366 -0.7785
vn -0.8955 0.3813 -0.2296
vn 0.7518 0.0065 0.6594
vn 0.5693 -0.6502 0.5031
vn 0.4194 -0.8026 0.4243
vn 0.5905 -0.7746 0.2264
vn -0.1441 -0.7513 0.6441
vn 0.0538 -0.9737 0.2214
vn 0.5893 0.6452 0.4863
vn 0.1976 0.5969 0.7776
vn 0.7645 0.3658 0.5307
vn 0.4294 -0.8001 0.4188
vn -0.3642 -0.5673 0.7386
vn 0.4264 -0.4494 0.7850
vn 0.8191 -0.5350 0.2070
vn 0.0538 -0.9737 0.2214
vn 0.4194 -0.8026 0.4243
vn -0.3058 0.6000 0.7393
vn -0.8348 0.2002 0.5129
vn -0.8263 0.5628 -0.0236
vn -0.8955 0.3813 -0.2296
vn -0.8263 0.5628 -0.0236
vn -0.8348 0.2002 0.5129
vn 0.8166 -0.2322 -0.5284
vn 0.4111 -0.5822 -0.7014
vn 0.6318 0.0457 -0.7738
vn 0.8166 -0.2322 -0.5284
vn 0.7890 -0.4251 -0.4436
vn 0.4111 -0.5822 -0.7014
vn 0.7890 -0.4251 -0.4436
vn 0.8166 -0.2322 -0.5284
vn 0.8624 -0.0120 -0.5060
vn -0.3058 0.6000 0.7393
vn -0.5264 0.5512 0.6473
vn 0.0167 0.3219 0.9466
vn 0.7890 -0.4251 -0.4436
vn 0.6655 -0.6557 -0.3567
vn 0.6739 -0.7288 -0.1215
vn 0.4744 -0.2764 0.8358
vn 0.0167 0.3219 0.9466
vn -0.1869 -0.8272 0.5299
vn 0.6739 -0.7288 -0.1215
vn 0.5693 -0.6502 0.5031
vn 0.7518 0.0065 0.6594
vn 0.6318 0.0457 -0.7738
vn -0.3581 0.1299 -0.9246
vn -0.5298 0.3366 -0.7785
vn -0.5298 0.3366 -0.7785
vn 0.2359 -0.1068 -0.9659
vn 0.6318 0.0457 -0.7738
vn -0.5298 0.3366 -0.7785
vn -0.9177 0.2803 -0.2814
vn -0.8955 0.3813 -0.2296
vn 0.4194 -0.8026 0.4243
vn 0.0538 -0.9737 0.2214
vn 0.4646 -0.6742 0.5741
vn -0.3642 -0.5673 0.7386
vn 0.1916 -0.9435 0.2704
vn -0.9718 -0.1696 -0.1641
vn 0.7518 0.0065 0.6594
vn 0.4194 -0.8026 0.4243
vn 0.4646 -0.6742 0.5741
vn 0.7890 -0.4251 -0.4436
vn 0.9311 -0.1852 -0.3143
vn 0.8670 0.4503 -0.2132
vn -0.3581 0.1299 -0.9246
vn 0.6318 0.0457 -0.7738
vn 0.4111 -0.5822 -0.7014
vn 0.4264 -0.4494 0.7850
vn 0.1976 0.5969 0.7776
vn 0.5893 0.6452 0.4863
vn 0.7890 -0.4251 -0.4436
vn 0.6739 -0.7288 -0.1215
vn 0.9311 -0.1852 -0.3143
vn 0.8417 0.4488 -0.3003
vn 0.8670 0.4503 -0.2132
vn 0.9311 -0.1852 -0.3143
vn 0.4264 -0.4494 0.7850
vn -0.3642 -0.5673 0.7386
vn 0.1976 0.5969 0.7776
vn 0.7304 -0.6615 0.1698
vn 0.6739 -0.7288 -0.1215
vn 0.8001 0.2437 0.5482
vn 0.4220 -0.8016 -0.4235
vn 0.6750 -0.5954 -0.4358
vn 0.7304 -0.6615 0.1698
vn 0.4111 -0.5822 -0.7014
vn 0.7890 -0.4251 -0.4436
vn 0.0087 -0.1931 -0.9811
vn 0.7304 -0.6615 0.1698
vn 0.8001 0.2437 0.5482
vn 0.6079 -0.7682 0.2011
vn 0.8417 0.4488 -0.3003
vn 0.9311 -0.1852 -0.3143
vn 0.7304 -0.6615 0.1698
vn -0.5298 0.3366 -0.7785
vn -0.3581 0.1299 -0.9246
vn -0.9177 0.2803 -0.2814
vn 0.8417 0.4488 -0.3003
vn 0.7304 -0.6615 0.1698
vn 0.6750 -0.5954 -0.4358
vn -0.9718 -0.1696 -0.1641
vn 0.1976 0.5969 0.7776
vn -0.3642 -0.5673 0.7386
vn -0.9718 -0.1696 -0.1641
vn -0.8263 0.5628 -0.0236
vn -0.8955 0.3813 -0.2296
vn 0.7304 -0.6615 0.1698
vn 0.9311 -0.1852 -0.3143
vn 0.6739 -0.7288 -0.1215
vn 0.8001 0.2437 0.5482
vn 0.6739 -0.7288 -0.1215
vn 0.7518 0.0065 0.6594
vn -0.1869 -0.8272 0.5299
vn -0.5264 0.5512 0.6473
vn -0.7971 -0.5383 0.2736
vn -0.1441 -0.7513 0.6441
vn 0.7645 0.3658 0.5307
vn 0.2170 0.3919 0.8940
vn -0.9718 -0.1696 -0.1641
vn -0.8955 0.3813 -0.2296
vn -0.9177 0.2803 -0.2814
vn 0.4111 -0.5822 -0.7014
vn 0.0087 -0.1931 -0.9811
vn -0.3581 0.1299 -0.9246
vn 0.6079 -0.7682 0.2011
vn 0.8001 0.2437 0.5482
vn 0.1215 0.3495 0.9290
vn 0.8670 0.4503 -0.2132
vn 0.0087 -0.1931 -0.9811
vn 0.7890 -0.4251 -0.4436
vn 0.0087 -0.1931 -0.9811
vn 0.8670 0.4503 -0.2132
vn 0.1773 0.7989 -0.5747
vn 0.4220 -0.8016 -0.4235
vn 0.7304 -0.6615 0.1698
vn 0.4555 -0.7955 0.3995
vn 0.1773 0.7989 -0.5747
vn 0.8670 0.4503 -0.2132
vn 0.8417 0.4488 -0.3003
vn 0.1916 -0.9435 0.2704
vn -0.1869 -0.8272 0.5299
vn -0.7971 -0.5383 0.2736
vn 0.1976 0.5969 0.7776
vn 0.2170 0.3919 0.8940
vn 0.7645 0.3658 0.5307
vn 0.3247 -0.6635 0.6741
vn 0.4555 -0.7955 0.3995
vn 0.7304 -0.6615 0.1698
vn 0.4555 -0.7955 0.3995
vn 0.5338 -0.4935 -0.6867
vn 0.4220 -0.8016 -0.4235
vn 0.8001 0.2437 0.5482
vn 0.7518 0.0065 0.6594
vn -0.1081 0.5731 0.8123
vn -0.1081 0.5731 0.8123
vn 0.1215 0.3495 0.9290
vn 0.8001 0.2437 0.5482
vn -0.5264 0.5512 0.6473
vn -0.3058 0.6000 0.7393
vn -0.8263 0.5628 -0.0236
vn -0.1081 0.5731 0.8123
vn 0.7518 0.0065 0.6594
vn 0.4646 -0.6742 0.5741
vn 0.6750 -0.5954 -0.4358
vn 0.4220 -0.8016 -0.4235
vn -0.3572 -0.2321 -0.9047
vn 0.8417 0.4488 -0.3003
vn -0.5603 0.7323 -0.3870
vn 0.1773 0.7989 -0.5747
vn 0.1916 -0.9435 0.2704
vn -0.7971 -0.5383 0.2736
vn -0.9718 -0.1696 -0.1641
vn 0.4646 -0.6742 0.5741
vn 0.0538 -0.9737 0.2214
vn -0.1081 0.5731 0.8123
vn 0.1976 0.5969 0.7776
vn -0.9718 -0.1696 -0.1641
vn -0.8006 0.2738 0.5330
vn -0.1441 -0.7513 0.6441
vn 0.2170 0.3919 0.8940
vn -0.6297 0.5278 0.5700
vn -0.5264 0.5512 0.6473
vn -0.8263 0.5628 -0.0236
vn -0.5903 0.7888 -0.1711
vn 0.7304 -0.6615 0.1698
vn 0.6079 -0.7682 0.2011
vn -0.0665 -0.8126 0.5790
vn 0.7304 -0.6615 0.1698
vn -0.0665 -0.8126 0.5790
vn 0.3247 -0.6635 0.6741
vn 0.8417 0.4488 -0.3003
vn 0.6750 -0.5954 -0.4358
vn -0.6379 -0.3749 -0.6727
vn -0.6297 0.5278 0.5700
vn 0.2170 0.3919 0.8940
vn 0.1976 0.5969 0.7776
vn 0.4555 -0.7955 0.3995
vn 0.3247 -0.6635 0.6741
vn 0.8253 -0.4533 0.3368
vn 0.6750 -0.5954 -0.4358
vn -0.3572 -0.2321 -0.9047
vn -0.6379 -0.3749 -0.6727
vn -0.6379 -0.3749 -0.6727
vn -0.5603 0.7323 -0.3870
vn 0.8417 0.4488 -0.3003
vn 0.5338 -0.4935 -0.6867
vn 0.4555 -0.7955 0.3995
vn 0.6896 -0.4609 -0.5585
vn -0.0665 -0.8126 0.5790
vn 0.6170 -0.4240 0.6630
vn 0.3247 -0.6635 0.6741
vn 0.6896 -0.4609 -0.5585
vn 0.4555 -0.7955 0.3995
vn 0.8253 -0.4533 0.3368
vn 0.3247 -0.6635 0.6741
vn 0.6170 -0.4240 0.6630
vn 0.8253 -0.4533 0.3368
vn -0.6379 -0.3749 -0.6727
vn 0.1773 0.7989 -0.5747
vn -0.5603 0.7323 -0.3870
vn -0.1441 -0.7513 0.6441
vn -0.7666 -0.5597 0.3147
vn 0.0538 -0.9737 0.2214
vn -0.8263 0.5628 -0.0236
vn -0.9718 -0.1696 -0.1641
vn -0.5903 0.7888 -0.1711
vn -0.0665 -0.8126 0.5790
vn 0.6079 -0.7682 0.2011
vn -0.8184 -0.5547 0.1499
vn -0.3572 -0.2321 -0.9047
vn 0.4220 -0.8016 -0.4235
vn 0.5338 -0.4935 -0.6867
vn -0.6379 -0.3749 -0.6727
vn -0.3572 -0.2321 -0.9047
vn 0.1773 0.7989 -0.5747
vn -0.7971 -0.5383 0.2736
vn -0.5264 0.5512 0.6473
vn -0.5903 0.7888 -0.1711
vn -0.5264 0.5512 0.6473
vn -0.1869 -0.8272 0.5299
vn 0.0167 0.3219 0.9466
vn -0.4568 0.8215 -0.3413
vn -0.3581 0.1299 -0.9246
vn 0.0087 -0.1931 -0.9811
vn 0.0087 -0.1931 -0.9811
vn 0.1773 0.7989 -0.5747
vn -0.4704 0.7264 -0.5011
vn 0.6896 -0.4609 -0.5585
vn 0.8253 -0.4533 0.3368
vn 0.8517 -0.4572 0.2561
vn 0.8517 -0.4572 0.2561
vn 0.6409 -0.0791 -0.7635
vn 0.6896 -0.4609 -0.5585
vn -0.1081 0.5731 0.8123
vn 0.0538 -0.9737 0.2214
vn -0.7666 -0.5597 0.3147
vn -0.5903 0.7888 -0.1711
vn -0.9718 -0.1696 -0.1641
vn -0.7322 -0.4409 -0.5192
vn -0.9177 0.2803 -0.2814
vn -0.9116 0.1766 -0.3712
vn -0.9718 -0.1696 -0.1641
vn -0.9116 0.1766 -0.3712
vn -0.9177 0.2803 -0.2814
vn -0.3581 0.1299 -0.9246
vn -0.1081 0.5731 0.8123
vn -0.5542 0.5771 0.5998
vn 0.1215 0.3495 0.9290
vn -0.0665 -0.8126 0.5790
vn -0.8184 -0.5547 0.1499
vn 0.6170 -0.4240 0.6630
vn -0.3572 -0.2321 -0.9047
vn 0.5338 -0.4935 -0.6867
vn 0.6896 -0.4609 -0.5585
vn 0.1773 0.7989 -0.5747
vn -0.3572 -0.2321 -0.9047
vn -0.4704 0.7264 -0.5011
vn -0.8006 0.2738 0.5330
vn -0.8603 0.5029 -0.0836
vn -0.7666 -0.5597 0.3147
vn -0.7971 -0.5383 0.2736
vn -0.7322 -0.4409 -0.5192
vn -0.9718 -0.1696 -0.1641
vn -0.8006 0.2738 0.5330
vn -0.7666 -0.5597 0.3147
vn -0.8387 -0.4269 -0.3381
vn -0.4568 0.8215 -0.3413
vn 0.0087 -0.1931 -0.9811
vn -0.4704 0.7264 -0.5011
vn -0.8006 0.2738 0.5330
vn -0.6297 0.5278 0.5700
vn 0.1976 0.5969 0.7776
vn -0.1081 0.5731 0.8123
vn -0.7666 -0.5597 0.3147
vn -0.8603 0.5029 -0.0836
vn -0.3581 0.1299 -0.9246
vn -0.4568 0.8215 -0.3413
vn -0.9116 0.1766 -0.3712
vn -0.9718 -0.1696 -0.1641
vn -0.8603 0.5029 -0.0836
vn -0.8006 0.2738 0.5330
vn -0.0551 -0.7315 0.6796
vn 0.6079 -0.7682 0.2011
vn 0.1215 0.3495 0.9290
vn -0.7971 -0.5383 0.2736
vn -0.5903 0.7888 -0.1711
vn -0.7322 -0.4409 -0.5192
vn 0.6896 -0.4609 -0.5585
vn 0.6409 -0.0791 -0.7635
vn -0.3572 -0.2321 -0.9047
vn -0.7666 -0.5597 0.3147
vn -0.1441 -0.7513 0.6441
vn -0.8387 -0.4269 -0.3381
vn -0.8603 0.5029 -0.0836
vn -0.9718 -0.1696 -0.1641
vn -0.9116 0.1766 -0.3712
vn -0.8387 -0.4269 -0.3381
vn -0.6297 0.5278 0.5700
vn -0.8006 0.2738 0.5330
vn -0.3572 -0.2321 -0.9047
vn 0.6409 -0.0791 -0.7635
vn -0.4704 0.7264 -0.5011
vn 0.6079 -0.7682 0.2011
vn -0.0551 -0.7315 0.6796
vn -0.7452 -0.5843 0.3214
vn 0.6170 -0.4240 0.6630
vn 0.1958 -0.7847 0.5882
vn 0.8253 -0.4533 0.3368
vn 0.6079 -0.7682 0.2011
vn -0.7229 -0.4132 -0.5537
vn -0.8184 -0.5547 0.1499
vn -0.4568 0.8215 -0.3413
vn -0.4704 0.7264 -0.5011
vn -0.8603 0.5029 -0.0836
vn 0.8517 -0.4572 0.2561
vn 0.8253 -0.4533 0.3368
vn 0.1958 -0.7847 0.5882
vn 0.6170 -0.4240 0.6630
vn -0.8184 -0.5547 0.1499
vn -0.3177 -0.2952 0.9011
vn 0.6079 -0.7682 0.2011
vn -0.7452 -0.5843 0.3214
vn -0.7229 -0.4132 -0.5537
vn -0.4568 0.8215 -0.3413
vn -0.8603 0.5029 -0.0836
vn -0.9116 0.1766 -0.3712
vn -0.1441 -0.7513 0.6441
vn -0.6297 0.5278 0.5700
vn -0.8387 -0.4269 -0.3381
vn -0.5542 0.5771 0.5998
vn -0.1081 0.5731 0.8123
vn -0.8603 0.5029 -0.0836
vn 0.6409 -0.0791 -0.7635
vn 0.8517 -0.4572 0.2561
vn 0.6114 -0.3746 0.6970
vn 0.6409 -0.0791 -0.7635
vn 0.6114 -0.3746 0.6970
vn 0.4941 -0.7586 0.4247
vn 0.6114 -0.3746 0.6970
vn 0.8517 -0.4572 0.2561
vn -0.8788 -0.1978 0.4343
vn 0.6409 -0.0791 -0.7635
vn 0.0854 -0.5182 -0.8510
vn -0.5923 0.1661 -0.7884
vn 0.4941 -0.7586 0.4247
vn 0.0854 -0.5182 -0.8510
vn 0.6409 -0.0791 -0.7635
vn -0.5542 0.5771 0.5998
vn -0.0551 -0.7315 0.6796
vn 0.1215 0.3495 0.9290
vn 0.6409 -0.0791 -0.7635
vn -0.5923 0.1661 -0.7884
vn -0.4704 0.7264 -0.5011
vn -0.5542 0.5771 0.5998
vn -0.8603 0.5029 -0.0836
vn -0.6167 0.7543 -0.2253
vn -0.5542 0.5771 0.5998
vn -0.7452 -0.5843 0.3214
vn -0.0551 -0.7315 0.6796
vn -0.8788 -0.1978 0.4343
vn 0.6170 -0.4240 0.6630
vn -0.3177 -0.2952 0.9011
vn -0.8184 -0.5547 0.1499
vn -0.7229 -0.4132 -0.5537
vn -0.8603 0.5029 -0.0836
vn 0.1958 -0.7847 0.5882
vn -0.8788 -0.1978 0.4343
vn 0.8517 -0.4572 0.2561
vn 0.6114 -0.3746 0.6970
vn -0.8788 -0.1978 0.4343
vn 0.4941 -0.7586 0.4247
vn -0.3177 -0.2952 0.9011
vn -0.8184 -0.5547 0.1499
vn -0.8788 -0.1978 0.4343
vn -0.8184 -0.5547 0.1499
vn -0.8603 0.5029 -0.0836
vn -0.8788 -0.1978 0.4343
vn -0.8603 0.5029 -0.0836
vn -0.4704 0.7264 -0.5011
vn -0.8788 -0.1978 0.4343
vn -0.8603 0.5029 -0.0836
vn -0.7229 -0.4132 -0.5537
vn -0.6167 0.7543 -0.2253
vn 0.0854 -0.5182 -0.8510
vn 0.4941 -0.7586 0.4247
vn -0.7511 -0.6406 0.1595
vn -0.8788 -0.1978 0.4343
vn 0.1958 -0.7847 0.5882
vn 0.6170 -0.4240 0.6630
vn -0.6167 0.7543 -0.2253
vn -0.7229 -0.4132 -0.5537
vn -0.5542 0.5771 0.5998
vn 0.4941 -0.7586 0.4247
vn -0.8788 -0.1978 0.4343
vn -0.7511 -0.6406 0.1595
vn -0.5542 0.5771 0.5998
vn -0.7229 -0.4132 -0.5537
vn -0.7452 -0.5843 0.3214
vn -0.8788 -0.1978 0.4343
vn -0.4704 0.7264 -0.5011
vn -0.5923 0.1661 -0.7884
vn -0.7511 -0.6406 0.1595
vn -0.5923 0.1661 -0.7884
vn 0.0854 -0.5182 -0.8510
vn -0.5923 0.1661 -0.7884
vn -0.7511 -0.6406 0.1595
vn -0.8788 -0.1978 0.4343
f 1/1/1 2/2/2 3/3/3
f 4/4/4 5/5/5 6/6/6
f 7/7/7 8/8/8 9/9/9
f 10/10/10 11/11/11 12/12/12
f 13/13/13 14/14/14 15/15/15
f 16/16/16 17/17/17 18/18/18
f 19/19/19 20/20/20 21/21/21
f 22/22/22 23/23/23 24/24/24
f 25/25/25 26/26/26 27/27/27
f 28/28/28 29/29/29 30/30/30
f 31/31/31 32/32/32 33/33/33
f 34/34/34 35/35/35 36/36/36
f 37/37/37 38/38/38 39/39/39
f 40/40/40 41/41/41 42/42/42
f 43/43/43 44/44/44 45/45/45
f 46/46/46 47/47/47 48/48/48
f 49/49/49 50/50/50 51/51/51
f 52/52/52 53/53/53 54/54/54
f 55/55/55 56/56/56 57/57/57
f 58/58/58 59/59/59 60/60/60
f 61/61/61 62/62/62 63/63/63
f 64/64/64 65/65/65 66/66/66
f 67/67/67 68/68/68 69/69/69
f 70/70/70 71/71/71 72/72/72
f 73/73/73 74/74/74 75/75/75
f 76/76/76 77/77/77 78/78/78
f 79/79/79 80/80/80 81/81/81
f 82/82/82 83/83/83 84/84/84
f 85/85/85 86/86/86 87/87/87
f 88/88/88 89/89/89 90/90/90
f 91/91/91 92/92/92 93/93/93
f 94/94/94 95/95/95 96/96/96
f 97/97/97 98/98/98 99/99/99
f 100/100/100 101/101/101 102/102/102
f 103/103/103 104/104/104 105/105/105
f 106/106/106 107/107/107 108/108/108
f 109/109/109 110/110/110 111/111/111
f 112/112/112 113/113/113 114/114/114
f 115/115/115 116/116/116 117/117/117
f 118/118/118 119/119/119 120/120/120
f 121/121/121 122/122/122 123/123/123
f 124/124/124 125/125/125 126/126/126
f 127/127/127 128/128/128 129/129/129
f 130/130/130 131/131/131 132/132/132
f 133/133/133 134/134/134 135/135/135
f 136/136/136 137/137/137 138/138/138
f 139/139/139 140/140/140 141/141/141
f 142/142/142 143/143/143 144/144/144
f 145/145/145 146/146/146 147/147/147
f 148/148/148 149/149/149 150/150/150
f 151/151/151 152/152/152 153/153/153
f 154/154/154 155/155/155 156/156/156
f 157/157/157 158/158/158 159/159/159
f 160/160/160 161/161/161 162/162/162
f 163/163/163 164/164/164 165/165/165
f 166/166/166 167/167/167 168/168/168
f 169/169/169 170/170/170 171/171/171
f 172/172/172 173/173/173 174/174/174
f 175/175/175 176/176/176 177/177/177
f 178/178/178 179/179/179 180/180/180
f 181/181/181 182/182/182 183/183/183
f 184/184/184 185/185/185 186/186/186
f 187/187/187 188/188/188 189/189/189
f 190/190/190 191/191/191 192/192/192
f 193/193/193 194/194/194 195/195/195
f 196/196/196 197/197/197 198/198/198
f 199/199/199 200/200/200 201/201/201
f 202/202/202 203/203/203 204/204/204
f 205/205/205 206/206/206 207/207/207
f 208/208/208 209/209/209 210/210/210
f 211/211/211 212/212/212 213/213/213
f 214/214/214 215/215/215 216/216/216
f 217/217/217 218/218/218 219/219/219
f 220/220/220 221/221/221 222/222/222
f 223/223/223 224/224/224 225/225/225
f 226/226/226 227/227/227 228/228/228
f 229/229/229 230/230/230 231/231/231
f 232/232/232 233/233/233 234/234/234
f 235/235/235 236/236/236 237/237/237
f 238/238/238 239/239/239 240/240/240
f 241/241/241 242/242/242 243/243/243
f 244/244/244 245/245/245 246/246/246
f 247/247/247 248/248/248 249/249/249
f 250/250/250 251/251/251 252/252/252
f 253/253/253 254/254/254 255/255/255
f 256/256/256 257/257/257 258/258/258
f 259/259/259 260/260/260 261/261/261
f 262/262/262 263/263/263 264/264/264
f 265/265/265 266/266/266 267/267/267
f 268/268/268 269/269/269 270/270/270
f 271/271/271 272/272/272 273/273/273
f 274/274/274 275/275/275 276/276/276
f 277/277/277 278/278/278 279/279/279
f 280/280/280 281/281/281 282/282/282
f 283/283/283 284/284/284 285/285/285
f 286/286/286 287/287/287 288/288/288
f 289/289/289 290/290/290 291/291/291
f 292/292/292 293/293/293 294/294/294
f 295/295/295 296/296/296 297/297/297
f 298/298/298 299/299/299 300/300/300
f 301/301/301 302/302/302 303/303/303
f 304/304/304 305/305/305 306/306/306
f 307/307/307 308/308/308 309/309/309
f 310/310/310 311/311/311 312/312/312
f 313/313/313 314/314/314 315/315/315
f 316/316/316 317/317/317 318/318/318
f 319/319/319 320/320/320 321/321/321
f 322/322/322 323/323/323 324/324/324
f 325/325/325 326/326/326 327/327/327
f 328/328/328 329/329/329 330/330/330
f 331/331/331 332/332/332 333/333/333
f 334/334/334 335/335/335 336/336/336
f 337/337/337 338/338/338 339/339/339
f 340/340/340 341/341/341 342/342/342
f 343/343/343 344/344/344 345/345/345
f 346/346/346 347/347/347 348/348/348
f 349/349/349 350/350/350 351/351/351
f 352/352/352 353/353/353 354/354/354
f 355/355/355 356/356/356 357/357/357
f 358/358/358 359/359/359 360/360/360
f 361/361/361 362/362/362 363/363/363
f 364/364/364 365/365/365 366/366/366
f 367/367/367 368/368/368 369/369/369
f 370/370/370 371/371/371 372/372/372
f 373/373/373 374/374/374 375/375/375
f 376/376/376 377/377/377 378/378/378
f 379/379/379 380/380/380 381/381/381
f 382/382/382 383/383/383 384/384/384
f 385/385/385 386/386/386 387/387/387
f 388/388/388 389/389/389 390/390/390
f 391/391/391 392/392/392 393/393/393
f 394/394/394 395/395/395 396/396/396
f 397/397/397 398/398/398 399/399/399
f 400/400/400 401/401/401 402/402/402
f 403/403/403 404/404/404 405/405/405
f 406/406/406 407/407/407 408/408/408
f 409/409/409 410/410/410 411/411/411
f 412/412/412 413/413/413 414/414/414
f 415/415/415 416/416/416 417/417/417
f 418/418/418 419/419/419 420/420/420
f 421/421/421 422/422/422 423/423/423
f 424/424/424 425/425/425 426/426/426
f 427/427/427 428/428/428 429/429/429
f 430/430/430 431/431/431 432/432/432
f 433/433/433 434/434/434 435/435/435
f 436/436/436 437/437/437 438/438/438
f 439/439/439 440/440/440 441/441/441
f 442/442/442 443/443/443 444/444/444
f 445/445/445 446/446/446 447/447/447
f 448/448/448 449/449/449 450/450/450
f 451/451/451 452/452/452 453/453/453
f 454/454/454 455/455/455 456/456/456
f 457/457/457 458/458/458 459/459/459
f 460/460/460 461/461/461 462/462/462
f 463/463/463 464/464/464 465/465/465
f 466/466/466 467/467/467 468/468/468
f 469/469/469 470/470/470 471/471/471
f 472/472/472 473/473/473 474/474/474
f 475/475/475 476/476/476 477/477/477
f 478/478/478 479/479/479 480/480/480
f 481/481/481 482/482/482 483/483/483
f 484/484/484 485/485/485 486/486/486
f 487/487/487 488/488/488 489/489/489
f 490/490/490 491/491/491 492/492/492
f 493/493/493 494/494/494 495/495/495
f 496/496/496 497/497/497 498/498/498
f 499/499/499 500/500/500 501/501/501
f 502/502/502 503/503/503 504/504/504
f 505/505/505 506/506/506 507/507/507
f 508/508/508 509/509/509 510/510/510
f 511/511/511 512/512/512 513/513/513
f 514/514/514 515/515/515 516/516/516
f 517/517/517 518/518/518 519/519/519
f 520/520/520 521/521/521 522/522/522
f 523/523/523 524/524/524 525/525/525
f 526/526/526 527/527/527 528/528/528
f 529/529/529 530/530/530 531/531/531
f 532/532/532 533/533/533 534/534/534
f 535/535/535 536/536/536 537/537/537
f 538/538/538 539/539/539 540/540/540
f 541/541/541 542/542/542 543/543/543
f 544/544/544 545/545/545 546/546/546
f 547/547/547 548/548/548 549/549/549
f 550/550/550 551/551/551 552/552/552
f 553/553/553 554/554/554 555/555/555
f 556/556/556 557/557/557 558/558/558
f 559/559/559 560/560/560 561/561/561
f 562/562/562 563/563/563 564/564/564
f 565/565/565 566/566/566 567/567/567
f 568/568/568 569/569/569 570/570/570
f 571/571/571 572/572/572 573/573/573
f 574/574/574 575/575/575 576/576/576
f 577/577/577 578/578/578 579/579/579
f 580/580/580 581/581/581 582/582/582
f 583/583/583 584/584/584 585/585/585
f 586/586/586 587/587/587 588/588/588
f 589/589/589 590/590/590 591/591/591
f 592/592/592 593/593/593 594/594/594
f 595/595/595 596/596/596 597/597/597
f 598/598/598 599/599/599 600/600/600
f 601/601/601 602/602/602 603/603/603
f 604/604/604 605/605/605 606/606/606
f 607/607/607 608/608/608 609/609/609
f 610/610/610 611/611/611 612/612/612
f 613/613/613 614/614/614 615/615/615
f 616/616/616 617/617/617 618/618/618
f 619/619/619 620/620/620 621/621/621
f 622/622/622 623/623/623 624/624/624
f 625/625/625 626/626/626 627/627/627
f 628/628/628 629/629/629 630/630/630
f 631/631/631 632/632/632 633/633/633
f 634/634/634 635/635/635 636/636/636
f 637/637/637 638/638/638 639/639/639
f 640/640/640 641/641/641 642/642/642
f 643/643/643 644/644/644 645/645/645
f 646/646/646 647/647/647 648/648/648
f 649/649/649 650/650/650 651/651/651
f 652/652/652 653/653/653 654/654/654
f 655/655/655 656/656/656 657/657/657
f 658/658/658 659/659/659 660/660/660
f 661/661/661 662/662/662 663/663/663
f 664/664/664 665/665/665 666/666/666
f 667/667/667 668/668/668 669/669/669
f 670/670/670 671/671/671 672/672/672
f 673/673/673 674/674/674 675/675/675
f 676/676/676 677/677/677 678/678/678
f 679/679/679 680/680/680 681/681/681
f 682/682/682 683/683/683 684/684/684
f 685/685/685 686/686/686 687/687/687
f 688/688/688 689/689/689 690/690/690
f 691/691/691 692/692/692 693/693/693
f 694/694/694 695/695/695 696/696/696
f 697/697/697 698/698/698 699/699/699
f 700/700/700 701/701/701 702/702/702
f 703/703/703 704/704/704 705/705/705
f 706/706/706 707/707/707 708/708/708
f 709/709/709 710/710/710 711/711/711
f 712/712/712 713/713/713 714/714/714
f 715/715/715 716/716/716 717/717/717
f 718/718/718 719/719/719 720/720/720
f 721/721/721 722/722/722 723/723/723
f 724/724/724 725/725/725 726/726/726
f 727/727/727 728/728/728 729/729/729
f 730/730/730 731/731/731 732/732/732
f 733/733/733 734/734/734 735/735/735
f 736/736/736 737/737/737 738/738/738
f 739/739/739 740/740/740 741/741/741
f 742/742/742 743/743/743 744/744/744
f 745/745/745 746/746/746 747/747/747
f 748/748/748 749/749/749 750/750/750
f 751/751/751 752/752/752 753/753/753
f 754/754/754 755/755/755 756/756/756
f 757/757/757 758/758/758 759/759/759
f 760/760/760 761/761/761 762/762/762
f 763/763/763 764/764/764 765/765/765
f 766/766/766 767/767/767 768/768/768
f 769/769/769 770/770/770 771/771/771
f 772/772/772 773/773/773 774/774/774
f 775/775/775 776/776/776 777/777/777
f 778/778/778 779/779/779 780/780/780
f 781/781/781 782/782/782 783/783/783
f 784/784/784 785/785/785 786/786/786
f 787/787/787 788/788/788 789/789/789
f 790/790/790 791/791/791 792/792/792
f 793/793/793 794/794/794 795/795/795
f 796/796/796 797/797/797 798/798/798
f 799/799/799 800/800/800 801/801/801
f 802/802/802 803/803/803 804/804/804
f 805/805/805 806/806/806 807/807/807
f 808/808/808 809/809/809 810/810/810
f 811/811/811 812/812/812 813/813/813
f 814/814/814 815/815/815 816/816/816
f 817/817/817 818/818/818 819/819/819
f 820/820/820 821/821/821 822/822/822
f 823/823/823 824/824/824 825/825/825
f 826/826/826 827/827/827 828/828/828
f 829/829/829 830/830/830 831/831/831
f 832/832/832 833/833/833 834/834/834
f 835/835/835 836/836/836 837/837/837
f 838/838/838 839/839/839 840/840/840
f 841/841/841 842/842/842 843/843/843
f 844/844/844 845/845/845 846/846/846
f 847/847/847 848/848/848 849/849/849
f 850/850/850 851/851/851 852/852/852
f 853/853/853 854/854/854 855/855/855
f 856/856/856 857/857/857 858/858/858
f 859/859/859 860/860/860 861/861/861
f 862/862/862 863/863/863 864/864/864
f 865/865/865 866/866/866 867/867/867
f 868/868/868 869/869/869 870/870/870
f 871/871/871 872/872/872 873/873/873
f 874/874/874 875/875/875 876/876/876
f 877/877/877 878/878/878 879/879/879
f 880/880/880 881/881/881 882/882/882
f 883/883/883 884/884/884 885/885/885
f 886/886/886 887/887/887 888/888/888
f 889/889/889 890/890/890 891/891/891
f 892/892/892 893/893/893 894/894/894
f 895/895/895 896/896/896 897/897/897
f 898/898/898 899/899/899 900/900/900
f 901/901/901 902/902/902 903/903/903
f 904/904/904 905/905/905 906/906/906
f 907/907/907 908/908/908 909/909/909
f 910/910/910 911/911/911 912/912/912
f 913/913/913 914/914/914 915/915/915
f 916/916/916 917/917/917 918/918/918
f 919/919/919 920/920/920 921/921/921
f 922/922/922 923/923/923 924/924/924
f 925/925/925 926/926/926 927/927/927
f 928/928/928 929/929/929 930/930/930
f 931/931/931 932/932/932 933/933/933
f 934/934/934 935/935/935 936/936/936
f 937/937/937 938/938/938 939/939/939
f 940/940/940 941/941/941 942/942/942
f 943/943/943 944/944/944 945/945/945
f 946/946/946 947/947/947 948/948/948
f 949/949/949 950/950/950 951/951/951
f 952/952/952 953/953/953 954/954/954
f 955/955/955 956/956/956 957/957/957
f 958/958/958 959/959/959 960/960/960
f 961/961/961 962/962/962 963/963/963
f 964/964/964 965/965/965 966/966/966
f 967/967/967 968/968/968 969/969/969
f 970/970/970 971/971/971 972/972/972
f 973/973/973 974/974/974 975/975/975
f 976/976/976 977/977/977 978/978/978
f 979/979/979 980/980/980 981/981/981
f 982/982/982 983/983/983 984/984/984
f 985/985/985 986/986/986 987/987/987
f 988/988/988 989/989/989 990/990/990
f 991/991/991 992/992/992 993/993/993
f 994/994/994 995/995/995 996/996/996
f 997/997/997 998/998/998 999/999/999
f 1000/1000/1000 1001/1001/1001 1002/1002/1002
f 1003/1003/1003 1004/1004/1004 1005/1005/1005
f 1006/1006/1006 1007/1007/1007 1008/1008/1008
f 1009/1009/1009 1010/1010/1010 1011/1011/1011
f 1012/1012/1012 1013/1013/1013 1014/1014/1014
f 1015/1015/1015 1016/1016/1016 1017/1017/1017
f 1018/1018/1018 1019/1019/1019 1020/1020/1020
f 1021/1021/1021 1022/1022/1022 1023/1023/1023
f 1024/1024/1024 1025/1025/1025 1026/1026/1026
f 1027/1027/1027 1028/1028/1028 1029/1029/1029
f 1030/1030/1030 1031/1031/1031 1032/1032/1032
f 1033/1033/1033 1034/1034/1034 1035/1035/1035
f 1036/1036/1036 1037/1037/1037 1038/1038/1038
f 1039/1039/1039 1040/1040/1040 1041/1041/1041
f 1042/1042/1042 1043/1043/1043 1044/1044/1044
f 1045/1045/1045 1046/1046/1046 1047/1047/1047
f 1048/1048/1048 1049/1049/1049 1050/1050/1050
f 1051/1051/1051 1052/1052/1052 1053/1053/1053
f 1054/1054/1054 1055/1055/1055 1056/1056/1056
f 1057/1057/1057 1058/1058/1058 1059/1059/1059
f 1060/1060/1060 1061/1061/1061 1062/1062/1062
f 1063/1063/1063 1064/1064/1064 1065/1065/1065
f 1066/1066/1066 1067/1067/1067 1068/1068/1068
f 1069/1069/1069 1070/1070/1070 1071/1071/1071
f 1072/1072/1072 1073/1073/1073 1074/1074/1074
f 1075/1075/1075 1076/1076/1076 1077/1077/1077
f 1078/1078/1078 1079/1079/1079 1080/1080/1080
f 1081/1081/1081 1082/1082/1082 1083/1083/1083
f 1084/1084/1084 1085/1085/1085 1086/1086/1086
f 1087/1087/1087 1088/1088/1088 1089/1089/1089
f 1090/1090/1090 1091/1091/1091 1092/1092/1092
f 1093/1093/1093 1094/1094/1094 1095/1095/1095
f 1096/1096/1096 1097/1097/1097 1098/1098/1098
f 1099/1099/1099 1100/1100/1100 1101/1101/1101
f 1102/1102/1102 1103/1103/1103 1104/1104/1104
f 1105/1105/1105 1106/1106/1106 1107/1107/1107
f 1108/1108/1108 1109/1109/1109 1110/1110/1110
f 1111/1111/1111 1112/1112/1112 1113/1113/1113
f 1114/1114/1114 1115/1115/1115 1116/1116/1116
f 1117/1117/1117 1118/1118/1118 1119/1119/1119
f 1120/1120/1120 1121/1121/1121 1122/1122/1122
f 1123/1123/1123 1124/1124/1124 1125/1125/1125
f 1126/1126/1126 1127/1127/1127 1128/1128/1128
f 1129/1129/1129 1130/1130/1130 1131/1131/1131
f 1132/1132/1132 1133/1133/1133 1134/1134/1134
