o arm_right
v 1.72462 5.44180 -3.17605
v 1.90995 5.49017 -3.26935
v 1.98791 5.25909 -3.26934
v 1.06598 5.18296 -2.83864
v 0.88031 5.20794 -3.10632
v 1.11554 5.34146 -3.05190
v 1.06598 5.18296 -2.83864
v 1.11554 5.34146 -3.05190
v 1.29551 5.19183 -2.54661
v 1.84430 5.00080 -3.21443
v 2.03106 4.86676 -3.19831
v 1.94595 4.82867 -3.04974
v 1.84430 5.00080 -3.21443
v 1.64592 5.34995 -3.02509
v 1.72462 5.44180 -3.17605
v 1.84430 5.00080 -3.21443
v 1.94595 4.82867 -3.04974
v 1.84581 4.88478 -2.87744
v 1.84430 5.00080 -3.21443
v 1.84581 4.88478 -2.87744
v 1.70817 5.08607 -2.89792
v 1.84430 5.00080 -3.21443
v 1.70817 5.08607 -2.89792
v 1.64592 5.34995 -3.02509
v 1.41373 5.32440 -2.12405
v 1.42066 5.18868 -2.28393
v 1.45868 5.36207 -2.39097
v 2.17832 4.70193 -3.06429
v 2.12841 4.74906 -3.06071
v 2.29394 4.75243 -3.11061
v 2.17832 4.70193 -3.06429
v 2.29394 4.75243 -3.11061
v 2.25641 4.65611 -3.25786
v 2.17832 4.70193 -3.06429
v 2.25641 4.65611 -3.25786
v 2.14281 4.60365 -3.19503
v 2.17832 4.70193 -3.06429
v 2.14281 4.60365 -3.19503
v 2.08789 4.53879 -3.10660
v 2.33799 4.89222 -3.14385
v 2.31879 5.16992 -3.22284
v 2.41058 4.93695 -3.15281
v 2.33799 4.89222 -3.14385
v 2.03106 4.86676 -3.19831
v 2.09303 5.05523 -3.28535
v 2.33799 4.89222 -3.14385
v 2.09303 5.05523 -3.28535
v 2.31879 5.16992 -3.22284
v 2.33799 4.89222 -3.14385
v 2.29394 4.75243 -3.11061
v 2.12841 4.74906 -3.06071
v 2.01225 4.64362 -2.86861
v 1.99939 4.57145 -2.60945
v 1.98987 4.75147 -2.73411
v 2.01225 4.64362 -2.86861
v 1.98987 4.75147 -2.73411
v 2.12841 4.74906 -3.06071
v 2.01225 4.64362 -2.86861
v 2.12841 4.74906 -3.06071
v 2.17832 4.70193 -3.06429
v 2.01225 4.64362 -2.86861
v 2.17832 4.70193 -3.06429
v 2.08789 4.53879 -3.10660
v 2.01225 4.64362 -2.86861
v 2.08789 4.53879 -3.10660
v 1.93987 4.57818 -2.86044
v 2.01225 4.64362 -2.86861
v 1.93987 4.57818 -2.86044
v 1.96031 4.51237 -2.73970
v 2.01225 4.64362 -2.86861
v 1.96031 4.51237 -2.73970
v 1.99939 4.57145 -2.60945
v 2.47642 4.79164 -3.35606
v 2.41058 4.93695 -3.15281
v 2.61920 4.91391 -3.20675
v 2.47642 4.79164 -3.35606
v 2.61920 4.91391 -3.20675
v 2.61251 4.66815 -3.52825
v 2.47642 4.79164 -3.35606
v 2.33312 4.75422 -3.33407
v 2.33799 4.89222 -3.14385
v 2.47642 4.79164 -3.35606
v 2.33799 4.89222 -3.14385
v 2.41058 4.93695 -3.15281
v 2.47642 4.79164 -3.35606
v 2.31647 4.41091 -3.56627
v 2.33312 4.75422 -3.33407
v 2.88243 4.93250 -2.96586
v 2.68637 5.08571 -2.98665
v 2.78694 5.09670 -2.81585
v 2.88243 4.93250 -2.96586
v 2.89496 4.70559 -3.22527
v 2.82912 4.73578 -3.24178
v 2.88243 4.93250 -2.96586
v 2.97472 4.82454 -2.97227
v 2.99045 4.60417 -3.14993
v 2.88243 4.93250 -2.96586
v 2.99045 4.60417 -3.14993
v 2.89496 4.70559 -3.22527
v 1.99939 4.57145 -2.60945
v 2.08833 4.64783 -2.45615
v 2.05336 4.77573 -2.47195
v 1.99939 4.57145 -2.60945
v 2.05336 4.77573 -2.47195
v 1.98987 4.75147 -2.73411
v 1.99939 4.57145 -2.60945
v 2.04878 4.45723 -2.46037
v 2.08833 4.64783 -2.45615
v 2.99854 4.83064 -2.75817
v 2.94040 4.86399 -2.66675
v 3.07139 4.87455 -2.68433
v 2.99854 4.83064 -2.75817
v 2.97472 4.82454 -2.97227
v 2.88243 4.93250 -2.96586
v 2.99854 4.83064 -2.75817
v 2.88243 4.93250 -2.96586
v 2.94040 4.86399 -2.66675
v 2.99854 4.83064 -2.75817
v 3.09744 4.73033 -2.79350
v 3.00669 4.73910 -2.90226
v 2.99854 4.83064 -2.75817
v 3.00669 4.73910 -2.90226
v 2.97472 4.82454 -2.97227
v 2.13925 4.45300 -2.39961
v 2.08833 4.64783 -2.45615
v 2.04878 4.45723 -2.46037
v 2.13925 4.45300 -2.39961
v 2.21183 4.66135 -2.36197
v 2.08833 4.64783 -2.45615
v 2.13925 4.45300 -2.39961
v 2.04878 4.45723 -2.46037
v 2.12447 4.18090 -2.59096
v 2.13925 4.45300 -2.39961
v 2.15656 4.28871 -2.32975
v 2.29482 4.42834 -2.24554
v 2.13925 4.45300 -2.39961
v 2.29482 4.42834 -2.24554
v 2.21183 4.66135 -2.36197
v 2.13925 4.45300 -2.39961
v 2.12447 4.18090 -2.59096
v 2.15656 4.28871 -2.32975
v 3.04750 4.77286 -2.59238
v 2.86568 4.75713 -2.50010
v 3.12666 4.64442 -2.63281
v 3.04750 4.77286 -2.59238
v 3.01673 4.84969 -2.59376
v 2.92544 4.83079 -2.60584
v 3.04750 4.77286 -2.59238
v 2.92544 4.83079 -2.60584
v 2.86568 4.75713 -2.50010
v 3.04750 4.77286 -2.59238
v 3.12666 4.64442 -2.63281
v 3.20777 4.89371 -2.65367
v 3.07236 4.65172 -3.03072
v 3.00669 4.73910 -2.90226
v 3.09913 4.54449 -2.95903
v 3.07236 4.65172 -3.03072
v 2.99045 4.60417 -3.14993
v 3.00669 4.73910 -2.90226
v 3.09744 4.73033 -2.79350
v 3.15575 4.49902 -2.86468
v 3.09913 4.54449 -2.95903
v 3.09744 4.73033 -2.79350
v 3.09913 4.54449 -2.95903
v 3.00669 4.73910 -2.90226
v 3.09744 4.73033 -2.79350
v 3.12666 4.64442 -2.63281
v 3.12673 4.50947 -2.63240
v 3.09744 4.73033 -2.79350
v 3.12673 4.50947 -2.63240
v 3.15575 4.49902 -2.86468
v 2.86568 4.75713 -2.50010
v 2.63751 4.83177 -2.37036
v 2.76748 4.57978 -2.37053
v 2.53189 4.68692 -2.21438
v 2.54679 4.70249 -2.29511
v 2.35108 4.70636 -2.29388
v 2.53189 4.68692 -2.21438
v 2.52458 4.53563 -2.18764
v 2.54679 4.70249 -2.29511
v 2.54679 4.70249 -2.29511
v 2.47953 4.81762 -2.32416
v 2.35022 4.79930 -2.31958
v 2.54679 4.70249 -2.29511
v 2.35022 4.79930 -2.31958
v 2.35108 4.70636 -2.29388
v 2.54679 4.70249 -2.29511
v 2.63751 4.83177 -2.37036
v 2.47953 4.81762 -2.32416
v 2.54679 4.70249 -2.29511
v 2.76748 4.57978 -2.37053
v 2.63751 4.83177 -2.37036
v 3.20777 4.89371 -2.65367
v 2.99854 4.83064 -2.75817
v 3.07139 4.87455 -2.68433
v 2.27205 4.23522 -2.27916
v 2.29482 4.42834 -2.24554
v 2.15656 4.28871 -2.32975
v 3.12673 4.50947 -2.63240
v 3.11848 4.36271 -2.47573
v 3.20153 4.35486 -2.73435
v 3.12673 4.50947 -2.63240
v 3.20153 4.35486 -2.73435
v 3.15575 4.49902 -2.86468
v 2.02497 3.85828 -3.18120
v 1.93912 4.09008 -3.05999
v 2.02042 3.92024 -3.29216
v 2.02497 3.85828 -3.18120
v 2.02042 3.92024 -3.29216
v 2.11340 3.92107 -3.27535
v 2.02497 3.85828 -3.18120
v 2.11340 3.92107 -3.27535
v 2.12224 3.85381 -3.15247
v 2.02497 3.85828 -3.18120
v 2.12224 3.85381 -3.15247
v 2.06240 3.99988 -2.90337
v 2.02497 3.85828 -3.18120
v 2.06240 3.99988 -2.90337
v 1.93912 4.09008 -3.05999
v 2.51064 4.25307 -2.22475
v 2.53905 3.98293 -2.17235
v 2.54780 4.18462 -2.10190
v 2.51064 4.25307 -2.22475
v 2.54780 4.18462 -2.10190
v 2.55017 4.38150 -2.17281
v 2.51064 4.25307 -2.22475
v 2.55017 4.38150 -2.17281
v 2.52458 4.53563 -2.18764
v 2.51064 4.25307 -2.22475
v 2.52458 4.53563 -2.18764
v 2.29482 4.42834 -2.24554
v 2.55017 4.38150 -2.17281
v 2.54780 4.18462 -2.10190
v 2.71259 4.21215 -2.10419
v 2.55017 4.38150 -2.17281
v 2.71259 4.21215 -2.10419
v 2.70267 4.40046 -2.18683
v 2.55017 4.38150 -2.17281
v 2.63886 4.42994 -2.30591
v 2.54679 4.70249 -2.29511
v 2.55017 4.38150 -2.17281
v 2.54679 4.70249 -2.29511
v 2.52458 4.53563 -2.18764
v 2.55017 4.38150 -2.17281
v 2.70267 4.40046 -2.18683
v 2.63886 4.42994 -2.30591
v 2.12224 3.85381 -3.15247
v 2.13668 3.95157 -2.85639
v 2.06240 3.99988 -2.90337
v 2.54780 4.18462 -2.10190
v 2.53905 3.98293 -2.17235
v 2.69337 3.98304 -2.17464
v 2.54780 4.18462 -2.10190
v 2.69337 3.98304 -2.17464
v 2.71259 4.21215 -2.10419
v 2.70267 4.40046 -2.18683
v 2.71259 4.21215 -2.10419
v 2.73892 4.33819 -2.21680
v 2.73892 4.33819 -2.21680
v 2.81469 4.30273 -2.27047
v 2.85788 4.34564 -2.38002
v 2.96110 4.24408 -2.41253
v 2.85788 4.34564 -2.38002
v 2.81469 4.30273 -2.27047
v 2.96110 4.24408 -2.41253
v 3.09210 4.27691 -2.40124
v 3.11848 4.36271 -2.47573
v 2.96110 4.24408 -2.41253
v 3.11848 4.36271 -2.47573
v 2.85788 4.34564 -2.38002
v 2.96110 4.24408 -2.41253
v 2.98571 4.14720 -2.52184
v 3.09210 4.27691 -2.40124
v 2.96110 4.24408 -2.41253
v 2.81469 4.30273 -2.27047
v 2.86099 4.10050 -2.37962
v 2.96110 4.24408 -2.41253
v 2.86099 4.10050 -2.37962
v 2.98571 4.14720 -2.52184
v 2.67142 4.02274 -2.29009
v 2.69337 3.98304 -2.17464
v 2.53905 3.98293 -2.17235
v 2.67142 4.02274 -2.29009
v 2.53905 3.98293 -2.17235
v 2.51064 4.25307 -2.22475
v 2.67142 4.02274 -2.29009
v 2.85605 3.93980 -2.41874
v 2.81469 4.30273 -2.27047
v 2.67142 4.02274 -2.29009
v 2.81469 4.30273 -2.27047
v 2.73892 4.33819 -2.21680
v 2.67142 4.02274 -2.29009
v 2.72723 3.80510 -2.46804
v 2.85605 3.93980 -2.41874
v 2.67142 4.02274 -2.29009
v 2.51064 4.25307 -2.22475
v 2.52111 4.09269 -2.36565
v 2.67142 4.02274 -2.29009
v 2.52111 4.09269 -2.36565
v 2.48340 3.88011 -2.47452
v 2.67142 4.02274 -2.29009
v 2.48340 3.88011 -2.47452
v 2.72723 3.80510 -2.46804
v 2.98571 4.14720 -2.52184
v 3.13407 4.10844 -2.53024
v 3.09210 4.27691 -2.40124
v 3.07061 3.88768 -2.84690
v 3.15382 4.06809 -2.75164
v 2.97127 3.87995 -2.59642
v 3.15382 4.06809 -2.75164
v 3.13688 3.89781 -2.71018
v 2.97127 3.87995 -2.59642
v 3.07061 3.88768 -2.84690
v 3.17594 4.15478 -2.91818
v 3.15382 4.06809 -2.75164
v 3.07061 3.88768 -2.84690
v 2.97127 3.87995 -2.59642
v 2.96390 3.76467 -2.75297
v 3.13688 3.89781 -2.71018
v 3.15382 4.06809 -2.75164
v 3.20153 4.35486 -2.73435
v 3.13688 3.89781 -2.71018
v 3.20153 4.35486 -2.73435
v 3.13407 4.10844 -2.53024
v 3.13688 3.89781 -2.71018
v 3.13407 4.10844 -2.53024
v 2.98571 4.14720 -2.52184
v 3.13688 3.89781 -2.71018
v 2.98571 4.14720 -2.52184
v 2.97127 3.87995 -2.59642
v 2.97127 3.87995 -2.59642
v 2.86099 4.10050 -2.37962
v 2.85605 3.93980 -2.41874
v 2.97127 3.87995 -2.59642
v 2.98571 4.14720 -2.52184
v 2.86099 4.10050 -2.37962
v 2.97127 3.87995 -2.59642
v 2.72723 3.80510 -2.46804
v 2.82522 3.72284 -2.71783
v 2.97127 3.87995 -2.59642
v 2.85605 3.93980 -2.41874
v 2.72723 3.80510 -2.46804
v 2.85605 3.93980 -2.41874
v 2.86099 4.10050 -2.37962
v 2.81469 4.30273 -2.27047
v 1.08409 4.80810 -2.13542
v 1.02407 4.88385 -2.42078
v 1.20930 4.94599 -2.32215
v 1.99443 5.29372 -2.16145
v 2.32292 5.11688 -2.22209
v 2.20234 5.39029 -2.19932
v 2.32292 5.11688 -2.22209
v 1.99443 5.29372 -2.16145
v 2.42495 4.93845 -2.25511
v 2.32292 5.11688 -2.22209
v 2.42495 4.93845 -2.25511
v 2.53154 4.98947 -2.34456
v 2.32292 5.11688 -2.22209
v 2.53154 4.98947 -2.34456
v 2.27726 5.44057 -2.32881
v 2.32292 5.11688 -2.22209
v 2.27726 5.44057 -2.32881
v 2.20234 5.39029 -2.19932
v 2.53154 4.98947 -2.34456
v 2.61625 5.03746 -2.45232
v 2.27726 5.44057 -2.32881
v 2.61625 5.03746 -2.45232
v 2.68901 5.09395 -2.53996
v 2.50508 5.51501 -2.54447
v 2.61625 5.03746 -2.45232
v 2.50508 5.51501 -2.54447
v 2.27726 5.44057 -2.32881
v 2.50508 5.51501 -2.54447
v 2.68901 5.09395 -2.53996
v 2.66343 5.26105 -2.64302
v 2.66343 5.26105 -2.64302
v 2.79111 5.09793 -2.72834
v 2.69475 5.28745 -2.73358
v 2.66343 5.26105 -2.64302
v 2.69475 5.28745 -2.73358
v 2.67802 5.50806 -2.76381
v 2.69475 5.28745 -2.73358
v 2.79111 5.09793 -2.72834
v 2.78694 5.09670 -2.81585
v 2.69475 5.28745 -2.73358
v 2.78694 5.09670 -2.81585
v 2.70359 5.28839 -2.83325
v 2.69475 5.28745 -2.73358
v 2.70359 5.28839 -2.83325
v 2.72237 5.50008 -2.84532
v 2.65055 5.50180 -2.92297
v 2.70359 5.28839 -2.83325
v 2.62146 5.28049 -2.93960
v 2.56818 5.44752 -2.94926
v 2.62146 5.28049 -2.93960
v 2.55074 5.26852 -3.01231
v 2.55074 5.26852 -3.01231
v 2.62146 5.28049 -2.93960
v 2.68637 5.08571 -2.98665
v 2.55074 5.26852 -3.01231
v 2.68637 5.08571 -2.98665
v 2.51263 5.03900 -3.09139
v 2.55074 5.26852 -3.01231
v 2.51263 5.03900 -3.09139
v 2.41302 5.23955 -3.09772
v 2.55074 5.26852 -3.01231
v 2.41302 5.23955 -3.09772
v 2.56818 5.44752 -2.94926
v 2.41302 5.23955 -3.09772
v 2.51263 5.03900 -3.09139
v 2.41058 4.93695 -3.15281
v 2.41302 5.23955 -3.09772
v 2.41058 4.93695 -3.15281
v 2.31879 5.16992 -3.22284
v 2.41302 5.23955 -3.09772
v 2.31879 5.16992 -3.22284
v 2.17119 5.60088 -3.12509
v 2.51263 5.03900 -3.09139
v 2.68637 5.08571 -2.98665
v 2.71422 4.93489 -3.11473
v 2.51263 5.03900 -3.09139
v 2.71422 4.93489 -3.11473
v 2.61920 4.91391 -3.20675
v 2.51263 5.03900 -3.09139
v 2.61920 4.91391 -3.20675
v 2.41058 4.93695 -3.15281
v 2.71422 4.93489 -3.11473
v 2.88243 4.93250 -2.96586
v 2.82912 4.73578 -3.24178
v 2.71422 4.93489 -3.11473
v 2.82912 4.73578 -3.24178
v 2.76706 4.81970 -3.29547
v 2.71422 4.93489 -3.11473
v 2.76706 4.81970 -3.29547
v 2.61920 4.91391 -3.20675
v 2.71422 4.93489 -3.11473
v 2.68637 5.08571 -2.98665
v 2.88243 4.93250 -2.96586
v 2.76706 4.81970 -3.29547
v 2.82912 4.73578 -3.24178
v 2.74979 4.65319 -3.51749
v 2.76706 4.81970 -3.29547
v 2.74979 4.65319 -3.51749
v 2.61251 4.66815 -3.52825
v 2.76706 4.81970 -3.29547
v 2.61251 4.66815 -3.52825
v 2.61920 4.91391 -3.20675
v 2.74979 4.65319 -3.51749
v 2.79038 4.34106 -3.57439
v 2.65224 4.18448 -3.74621
v 2.74979 4.65319 -3.51749
v 2.65224 4.18448 -3.74621
v 2.56123 4.40904 -3.65974
v 2.74979 4.65319 -3.51749
v 2.56123 4.40904 -3.65974
v 2.61251 4.66815 -3.52825
v 2.56123 4.40904 -3.65974
v 2.65224 4.18448 -3.74621
v 2.48120 4.13742 -3.74688
v 2.56123 4.40904 -3.65974
v 2.48120 4.13742 -3.74688
v 2.43670 4.38768 -3.59998
v 2.56123 4.40904 -3.65974
v 2.43670 4.38768 -3.59998
v 2.47642 4.79164 -3.35606
v 2.56123 4.40904 -3.65974
v 2.47642 4.79164 -3.35606
v 2.61251 4.66815 -3.52825
v 2.43670 4.38768 -3.59998
v 2.48120 4.13742 -3.74688
v 2.34469 4.13072 -3.69753
v 2.43670 4.38768 -3.59998
v 2.34469 4.13072 -3.69753
v 2.31647 4.41091 -3.56627
v 2.43670 4.38768 -3.59998
v 2.31647 4.41091 -3.56627
v 2.47642 4.79164 -3.35606
v 2.31647 4.41091 -3.56627
v 2.34469 4.13072 -3.69753
v 2.26526 4.07717 -3.61364
v 2.31647 4.41091 -3.56627
v 2.26526 4.07717 -3.61364
v 2.28029 4.30914 -3.50185
v 2.31647 4.41091 -3.56627
v 2.28029 4.30914 -3.50185
v 2.24808 4.50112 -3.35660
v 2.24808 4.50112 -3.35660
v 2.28029 4.30914 -3.50185
v 2.17028 4.26302 -3.47736
v 2.24808 4.50112 -3.35660
v 2.17028 4.26302 -3.47736
v 2.12102 4.44477 -3.33482
v 2.24808 4.50112 -3.35660
v 2.12102 4.44477 -3.33482
v 2.14281 4.60365 -3.19503
v 2.24808 4.50112 -3.35660
v 2.14281 4.60365 -3.19503
v 2.25641 4.65611 -3.25786
v 2.24808 4.50112 -3.35660
v 2.25641 4.65611 -3.25786
v 2.33312 4.75422 -3.33407
v 2.24808 4.50112 -3.35660
v 2.33312 4.75422 -3.33407
v 2.31647 4.41091 -3.56627
v 2.12102 4.44477 -3.33482
v 2.17028 4.26302 -3.47736
v 2.10295 4.19286 -3.42413
v 2.12102 4.44477 -3.33482
v 2.10295 4.19286 -3.42413
v 2.08139 4.36069 -3.25282
v 2.12102 4.44477 -3.33482
v 2.08139 4.36069 -3.25282
v 2.08789 4.53879 -3.10660
v 2.12102 4.44477 -3.33482
v 2.08789 4.53879 -3.10660
v 2.14281 4.60365 -3.19503
v 2.08139 4.36069 -3.25282
v 2.10295 4.19286 -3.42413
v 2.06988 4.12548 -3.36854
v 2.08139 4.36069 -3.25282
v 2.06988 4.12548 -3.36854
v 1.99790 4.31825 -3.22090
v 2.08139 4.36069 -3.25282
v 1.99790 4.31825 -3.22090
v 2.08789 4.53879 -3.10660
v 1.99790 4.31825 -3.22090
v 2.06988 4.12548 -3.36854
v 2.03164 4.04513 -3.33873
v 1.99790 4.31825 -3.22090
v 2.03164 4.04513 -3.33873
v 1.94853 4.25330 -3.18533
v 1.99790 4.31825 -3.22090
v 1.94853 4.25330 -3.18533
v 1.93987 4.57818 -2.86044
v 1.99790 4.31825 -3.22090
v 1.93987 4.57818 -2.86044
v 2.08789 4.53879 -3.10660
v 1.94853 4.25330 -3.18533
v 2.03164 4.04513 -3.33873
v 2.02042 3.92024 -3.29216
v 1.94853 4.25330 -3.18533
v 2.02042 3.92024 -3.29216
v 1.93912 4.09008 -3.05999
v 1.94853 4.25330 -3.18533
v 1.93912 4.09008 -3.05999
v 1.96031 4.51237 -2.73970
v 1.94853 4.25330 -3.18533
v 1.96031 4.51237 -2.73970
v 1.93987 4.57818 -2.86044
v 2.03164 4.04513 -3.33873
v 2.06988 4.12548 -3.36854
v 2.12980 4.00077 -3.45446
v 2.03164 4.04513 -3.33873
v 2.12980 4.00077 -3.45446
v 2.11340 3.92107 -3.27535
v 2.03164 4.04513 -3.33873
v 2.11340 3.92107 -3.27535
v 2.02042 3.92024 -3.29216
v 2.12980 4.00077 -3.45446
v 2.17474 3.80088 -3.67511
v 2.14173 3.74936 -3.60037
v 2.12980 4.00077 -3.45446
v 2.14173 3.74936 -3.60037
v 2.12224 3.85381 -3.15247
v 2.12980 4.00077 -3.45446
v 2.12224 3.85381 -3.15247
v 2.11340 3.92107 -3.27535
v 2.19629 3.84334 -2.80888
v 2.13668 3.95157 -2.85639
v 2.12224 3.85381 -3.15247
v 2.19629 3.84334 -2.80888
v 2.27613 3.73183 -2.87278
v 2.26476 3.97077 -2.52602
v 2.19629 3.84334 -2.80888
v 2.26476 3.97077 -2.52602
v 2.14872 4.01496 -2.58700
v 2.19629 3.84334 -2.80888
v 2.14872 4.01496 -2.58700
v 2.12447 4.18090 -2.59096
v 2.19629 3.84334 -2.80888
v 2.12447 4.18090 -2.59096
v 2.13668 3.95157 -2.85639
v 2.12447 4.18090 -2.59096
v 2.03296 4.20010 -2.72977
v 2.06240 3.99988 -2.90337
v 2.12447 4.18090 -2.59096
v 2.06240 3.99988 -2.90337
v 2.13668 3.95157 -2.85639
v 2.12447 4.18090 -2.59096
v 2.14872 4.01496 -2.58700
v 2.15656 4.28871 -2.32975
v 2.12447 4.18090 -2.59096
v 2.04878 4.45723 -2.46037
v 2.03296 4.20010 -2.72977
v 2.03296 4.20010 -2.72977
v 1.93912 4.09008 -3.05999
v 2.06240 3.99988 -2.90337
v 2.03296 4.20010 -2.72977
v 2.04878 4.45723 -2.46037
v 1.99939 4.57145 -2.60945
v 2.03296 4.20010 -2.72977
v 1.96031 4.51237 -2.73970
v 1.93912 4.09008 -3.05999
v 2.03296 4.20010 -2.72977
v 1.99939 4.57145 -2.60945
v 1.96031 4.51237 -2.73970
v 2.14872 4.01496 -2.58700
v 2.26476 3.97077 -2.52602
v 2.27205 4.23522 -2.27916
v 2.14872 4.01496 -2.58700
v 2.27205 4.23522 -2.27916
v 2.15656 4.28871 -2.32975
v 2.26476 3.97077 -2.52602
v 2.27613 3.73183 -2.87278
v 2.40458 3.78057 -2.66943
v 2.26476 3.97077 -2.52602
v 2.40458 3.78057 -2.66943
v 2.40928 3.97673 -2.52659
v 2.26476 3.97077 -2.52602
v 2.40928 3.97673 -2.52659
v 2.27205 4.23522 -2.27916
v 2.40928 3.97673 -2.52659
v 2.40458 3.78057 -2.66943
v 2.52983 3.72150 -2.65785
v 2.40928 3.97673 -2.52659
v 2.52983 3.72150 -2.65785
v 2.48340 3.88011 -2.47452
v 2.40928 3.97673 -2.52659
v 2.48340 3.88011 -2.47452
v 2.52111 4.09269 -2.36565
v 2.40928 3.97673 -2.52659
v 2.52111 4.09269 -2.36565
v 2.27205 4.23522 -2.27916
v 2.52983 3.72150 -2.65785
v 2.72723 3.80510 -2.46804
v 2.48340 3.88011 -2.47452
v 2.91695 3.47044 -3.36609
v 3.17594 4.15478 -2.91818
v 3.07061 3.88768 -2.84690
v 2.91695 3.47044 -3.36609
v 3.00127 3.85906 -3.31366
v 3.17594 4.15478 -2.91818
v 3.00127 3.85906 -3.31366
v 2.90723 3.71734 -3.55094
v 2.99873 3.92910 -3.42366
v 3.00127 3.85906 -3.31366
v 2.99873 3.92910 -3.42366
v 3.00716 4.16621 -3.28222
v 3.00127 3.85906 -3.31366
v 3.00716 4.16621 -3.28222
v 3.07749 4.11686 -3.17370
v 3.00127 3.85906 -3.31366
v 3.07749 4.11686 -3.17370
v 3.17594 4.15478 -2.91818
v 3.07749 4.11686 -3.17370
v 3.00716 4.16621 -3.28222
v 3.06229 4.36694 -3.12231
v 3.07749 4.11686 -3.17370
v 3.06229 4.36694 -3.12231
v 3.15264 4.31244 -3.03843
v 3.07749 4.11686 -3.17370
v 3.15264 4.31244 -3.03843
v 3.17594 4.15478 -2.91818
v 3.15264 4.31244 -3.03843
v 3.06229 4.36694 -3.12231
v 3.09913 4.54449 -2.95903
v 3.15264 4.31244 -3.03843
v 3.09913 4.54449 -2.95903
v 3.15575 4.49902 -2.86468
v 3.15264 4.31244 -3.03843
v 3.15575 4.49902 -2.86468
v 3.20153 4.35486 -2.73435
v 3.15264 4.31244 -3.03843
v 3.20153 4.35486 -2.73435
v 3.17594 4.15478 -2.91818
v 3.06229 4.36694 -3.12231
v 3.00716 4.16621 -3.28222
v 3.05171 4.36452 -3.23731
v 3.06229 4.36694 -3.12231
v 3.05171 4.36452 -3.23731
v 3.07236 4.65172 -3.03072
v 3.06229 4.36694 -3.12231
v 3.07236 4.65172 -3.03072
v 3.09913 4.54449 -2.95903
v 3.05171 4.36452 -3.23731
v 2.99338 4.42616 -3.26104
v 2.99045 4.60417 -3.14993
v 3.05171 4.36452 -3.23731
v 2.99045 4.60417 -3.14993
v 3.07236 4.65172 -3.03072
v 2.99338 4.42616 -3.26104
v 2.87602 4.28068 -3.37489
v 2.92004 4.47434 -3.29891
v 2.99338 4.42616 -3.26104
v 2.92004 4.47434 -3.29891
v 2.99045 4.60417 -3.14993
v 2.92004 4.47434 -3.29891
v 2.87602 4.28068 -3.37489
v 2.88597 4.52391 -3.36716
v 2.92004 4.47434 -3.29891
v 2.88597 4.52391 -3.36716
v 2.89496 4.70559 -3.22527
v 2.92004 4.47434 -3.29891
v 2.89496 4.70559 -3.22527
v 2.99045 4.60417 -3.14993
v 2.88597 4.52391 -3.36716
v 2.87602 4.28068 -3.37489
v 2.79038 4.34106 -3.57439
v 2.88597 4.52391 -3.36716
v 2.79038 4.34106 -3.57439
v 2.74979 4.65319 -3.51749
v 2.88597 4.52391 -3.36716
v 2.74979 4.65319 -3.51749
v 2.82912 4.73578 -3.24178
v 2.88597 4.52391 -3.36716
v 2.82912 4.73578 -3.24178
v 2.89496 4.70559 -3.22527
v 2.87602 4.28068 -3.37489
v 2.83573 4.02165 -3.55175
v 2.73850 4.10384 -3.67801
v 2.87602 4.28068 -3.37489
v 2.73850 4.10384 -3.67801
v 2.79038 4.34106 -3.57439
v 2.73850 4.10384 -3.67801
v 2.77584 3.71104 -3.88268
v 2.71172 3.75159 -3.95372
v 2.73850 4.10384 -3.67801
v 2.71172 3.75159 -3.95372
v 2.62093 3.86551 -3.90152
v 2.73850 4.10384 -3.67801
v 2.62093 3.86551 -3.90152
v 2.65224 4.18448 -3.74621
v 2.73850 4.10384 -3.67801
v 2.65224 4.18448 -3.74621
v 2.79038 4.34106 -3.57439
v 2.62093 3.86551 -3.90152
v 2.50145 3.71223 -4.01128
v 2.48120 4.13742 -3.74688
v 2.62093 3.86551 -3.90152
v 2.48120 4.13742 -3.74688
v 2.65224 4.18448 -3.74621
v 2.50145 3.71223 -4.01128
v 2.35945 3.88311 -3.88694
v 2.48120 4.13742 -3.74688
v 2.35945 3.88311 -3.88694
v 2.34469 4.13072 -3.69753
v 2.48120 4.13742 -3.74688
v 2.35945 3.88311 -3.88694
v 2.30617 3.83779 -3.83113
v 2.26526 4.07717 -3.61364
v 2.35945 3.88311 -3.88694
v 2.26526 4.07717 -3.61364
v 2.34469 4.13072 -3.69753
v 2.26526 4.07717 -3.61364
v 2.30617 3.83779 -3.83113
v 2.17150 4.01993 -3.57388
v 2.26526 4.07717 -3.61364
v 2.17150 4.01993 -3.57388
v 2.10295 4.19286 -3.42413
v 2.26526 4.07717 -3.61364
v 2.10295 4.19286 -3.42413
v 2.17028 4.26302 -3.47736
v 2.26526 4.07717 -3.61364
v 2.17028 4.26302 -3.47736
v 2.28029 4.30914 -3.50185
v 2.17150 4.01993 -3.57388
v 2.17474 3.80088 -3.67511
v 2.12980 4.00077 -3.45446
v 2.17150 4.01993 -3.57388
v 2.12980 4.00077 -3.45446
v 2.06988 4.12548 -3.36854
v 2.17150 4.01993 -3.57388
v 2.06988 4.12548 -3.36854
v 2.10295 4.19286 -3.42413
v 2.82570 3.78333 -3.74105
v 2.77584 3.71104 -3.88268
v 2.73850 4.10384 -3.67801
v 2.82570 3.78333 -3.74105
v 2.73850 4.10384 -3.67801
v 2.83573 4.02165 -3.55175
v 2.82570 3.78333 -3.74105
v 2.83573 4.02165 -3.55175
v 2.89722 4.00193 -3.52654
v 2.82570 3.78333 -3.74105
v 2.89722 4.00193 -3.52654
v 2.87778 3.75539 -3.69871
v 2.89722 4.00193 -3.52654
v 2.90773 3.87819 -3.54493
v 2.87778 3.75539 -3.69871
v 2.89722 4.00193 -3.52654
v 2.83573 4.02165 -3.55175
v 2.87602 4.28068 -3.37489
v 2.89722 4.00193 -3.52654
v 2.87602 4.28068 -3.37489
v 2.99338 4.42616 -3.26104
v 2.89722 4.00193 -3.52654
v 2.99338 4.42616 -3.26104
v 3.05171 4.36452 -3.23731
v 2.89722 4.00193 -3.52654
v 3.05171 4.36452 -3.23731
v 2.90773 3.87819 -3.54493
v 2.90773 3.87819 -3.54493
v 2.92193 3.95579 -3.45176
v 2.90723 3.71734 -3.55094
v 2.62146 5.28049 -2.93960
v 2.70359 5.28839 -2.83325
v 2.68637 5.08571 -2.98665
v 2.70359 5.28839 -2.83325
v 2.78694 5.09670 -2.81585
v 2.68637 5.08571 -2.98665
v 2.79111 5.09793 -2.72834
v 2.66343 5.26105 -2.64302
v 2.94040 4.86399 -2.66675
v 2.79111 5.09793 -2.72834
v 2.94040 4.86399 -2.66675
v 2.88243 4.93250 -2.96586
v 2.79111 5.09793 -2.72834
v 2.88243 4.93250 -2.96586
v 2.78694 5.09670 -2.81585
v 2.66343 5.26105 -2.64302
v 2.68901 5.09395 -2.53996
v 2.92544 4.83079 -2.60584
v 2.66343 5.26105 -2.64302
v 2.92544 4.83079 -2.60584
v 2.94040 4.86399 -2.66675
v 2.68901 5.09395 -2.53996
v 2.61625 5.03746 -2.45232
v 2.86568 4.75713 -2.50010
v 2.68901 5.09395 -2.53996
v 2.86568 4.75713 -2.50010
v 2.92544 4.83079 -2.60584
v 2.61625 5.03746 -2.45232
v 2.53154 4.98947 -2.34456
v 2.63751 4.83177 -2.37036
v 2.61625 5.03746 -2.45232
v 2.63751 4.83177 -2.37036
v 2.86568 4.75713 -2.50010
v 2.53154 4.98947 -2.34456
v 2.42495 4.93845 -2.25511
v 2.47953 4.81762 -2.32416
v 2.53154 4.98947 -2.34456
v 2.47953 4.81762 -2.32416
v 2.63751 4.83177 -2.37036
v 2.42495 4.93845 -2.25511
v 2.35022 4.79930 -2.31958
v 2.47953 4.81762 -2.32416
v 2.42495 4.93845 -2.25511
v 2.19654 4.86544 -2.21867
v 2.24854 4.77096 -2.30046
v 2.42495 4.93845 -2.25511
v 2.24854 4.77096 -2.30046
v 2.35022 4.79930 -2.31958
v 2.42495 4.93845 -2.25511
v 1.99443 5.29372 -2.16145
v 2.09412 5.03626 -2.18342
v 2.42495 4.93845 -2.25511
v 2.09412 5.03626 -2.18342
v 2.19654 4.86544 -2.21867
v 2.24854 4.77096 -2.30046
v 2.21183 4.66135 -2.36197
v 2.35108 4.70636 -2.29388
v 2.24854 4.77096 -2.30046
v 2.35108 4.70636 -2.29388
v 2.35022 4.79930 -2.31958
v 2.24854 4.77096 -2.30046
v 2.19654 4.86544 -2.21867
v 2.08797 4.86357 -2.24603
v 2.24854 4.77096 -2.30046
v 2.08797 4.86357 -2.24603
v 2.21183 4.66135 -2.36197
v 2.08797 4.86357 -2.24603
v 2.11074 4.76382 -2.39287
v 2.21183 4.66135 -2.36197
v 2.08797 4.86357 -2.24603
v 2.19654 4.86544 -2.21867
v 2.09412 5.03626 -2.18342
v 2.08797 4.86357 -2.24603
v 1.94086 5.01020 -2.30439
v 2.11074 4.76382 -2.39287
v 1.94086 5.01020 -2.30439
v 1.85607 4.98204 -2.41529
v 1.96788 4.84162 -2.43896
v 1.94086 5.01020 -2.30439
v 1.96788 4.84162 -2.43896
v 2.11074 4.76382 -2.39287
v 1.94086 5.01020 -2.30439
v 2.08797 4.86357 -2.24603
v 1.91023 5.25643 -2.22003
v 1.94086 5.01020 -2.30439
v 1.91023 5.25643 -2.22003
v 1.82526 5.21847 -2.29827
v 1.94086 5.01020 -2.30439
v 1.82526 5.21847 -2.29827
v 1.76191 5.16597 -2.42434
v 1.94086 5.01020 -2.30439
v 1.76191 5.16597 -2.42434
v 1.85607 4.98204 -2.41529
v 1.76191 5.16597 -2.42434
v 1.67120 5.10499 -2.64334
v 1.81278 4.92803 -2.62510
v 1.76191 5.16597 -2.42434
v 1.81278 4.92803 -2.62510
v 1.85607 4.98204 -2.41529
v 1.76191 5.16597 -2.42434
v 1.82526 5.21847 -2.29827
v 1.78333 5.44512 -2.26660
v 1.67120 5.10499 -2.64334
v 1.76191 5.16597 -2.42434
v 1.64339 5.39397 -2.47988
v 1.67120 5.10499 -2.64334
v 1.64339 5.39397 -2.47988
v 1.59763 5.31837 -2.66102
v 1.67120 5.10499 -2.64334
v 1.59763 5.31837 -2.66102
v 1.62291 5.32507 -2.86741
v 1.67120 5.10499 -2.64334
v 1.62291 5.32507 -2.86741
v 1.70817 5.08607 -2.89792
v 1.62291 5.32507 -2.86741
v 1.64592 5.34995 -3.02509
v 1.70817 5.08607 -2.89792
v 1.62291 5.32507 -2.86741
v 1.59763 5.31837 -2.66102
v 1.52989 5.38418 -2.66566
v 1.62291 5.32507 -2.86741
v 1.52989 5.38418 -2.66566
v 1.51790 5.41907 -3.01490
v 1.62291 5.32507 -2.86741
v 1.51790 5.41907 -3.01490
v 1.64592 5.34995 -3.02509
v 1.52989 5.38418 -2.66566
v 1.59763 5.31837 -2.66102
v 1.64339 5.39397 -2.47988
v 1.43772 5.40096 -2.64034
v 1.45868 5.36207 -2.39097
v 1.29551 5.19183 -2.54661
v 1.43772 5.40096 -2.64034
v 1.29551 5.19183 -2.54661
v 1.11554 5.34146 -3.05190
v 1.43772 5.40096 -2.64034
v 1.11554 5.34146 -3.05190
v 1.33050 5.44633 -3.06153
v 1.64339 5.39397 -2.47988
v 1.76191 5.16597 -2.42434
v 1.78333 5.44512 -2.26660
v 1.81278 4.92803 -2.62510
v 1.96788 4.84162 -2.43896
v 1.85607 4.98204 -2.41529
v 1.81278 4.92803 -2.62510
v 1.67120 5.10499 -2.64334
v 1.70817 5.08607 -2.89792
v 1.81278 4.92803 -2.62510
v 1.70817 5.08607 -2.89792
v 1.84581 4.88478 -2.87744
v 1.81278 4.92803 -2.62510
v 1.84581 4.88478 -2.87744
v 1.98987 4.75147 -2.73411
v 1.81278 4.92803 -2.62510
v 1.98987 4.75147 -2.73411
v 2.05336 4.77573 -2.47195
v 1.81278 4.92803 -2.62510
v 2.05336 4.77573 -2.47195
v 1.96788 4.84162 -2.43896
v 1.84581 4.88478 -2.87744
v 1.94595 4.82867 -3.04974
v 2.12841 4.74906 -3.06071
v 1.84581 4.88478 -2.87744
v 2.12841 4.74906 -3.06071
v 1.98987 4.75147 -2.73411
v 1.94595 4.82867 -3.04974
v 2.03106 4.86676 -3.19831
v 2.12841 4.74906 -3.06071
v 1.82526 5.21847 -2.29827
v 1.91023 5.25643 -2.22003
v 1.78333 5.44512 -2.26660
v 1.91023 5.25643 -2.22003
v 2.08797 4.86357 -2.24603
v 2.09412 5.03626 -2.18342
v 1.91023 5.25643 -2.22003
v 2.09412 5.03626 -2.18342
v 1.99443 5.29372 -2.16145
v 1.91023 5.25643 -2.22003
v 1.99443 5.29372 -2.16145
v 1.89535 5.52124 -2.21865
v 1.96788 4.84162 -2.43896
v 2.05336 4.77573 -2.47195
v 2.11074 4.76382 -2.39287
v 2.11074 4.76382 -2.39287
v 2.05336 4.77573 -2.47195
v 2.08833 4.64783 -2.45615
v 2.11074 4.76382 -2.39287
v 2.08833 4.64783 -2.45615
v 2.21183 4.66135 -2.36197
v 2.35108 4.70636 -2.29388
v 2.21183 4.66135 -2.36197
v 2.30821 4.56446 -2.27460
v 2.35108 4.70636 -2.29388
v 2.30821 4.56446 -2.27460
v 2.53189 4.68692 -2.21438
v 2.30821 4.56446 -2.27460
v 2.21183 4.66135 -2.36197
v 2.29482 4.42834 -2.24554
v 2.30821 4.56446 -2.27460
v 2.29482 4.42834 -2.24554
v 2.52458 4.53563 -2.18764
v 2.30821 4.56446 -2.27460
v 2.52458 4.53563 -2.18764
v 2.53189 4.68692 -2.21438
v 3.17594 4.15478 -2.91818
v 3.20153 4.35486 -2.73435
v 3.15382 4.06809 -2.75164
v 3.13407 4.10844 -2.53024
v 3.20153 4.35486 -2.73435
v 3.11848 4.36271 -2.47573
v 3.13407 4.10844 -2.53024
v 3.11848 4.36271 -2.47573
v 3.09210 4.27691 -2.40124
v 2.52111 4.09269 -2.36565
v 2.51064 4.25307 -2.22475
v 2.27205 4.23522 -2.27916
v 2.85788 4.34564 -2.38002
v 3.11848 4.36271 -2.47573
v 3.12673 4.50947 -2.63240
v 2.85788 4.34564 -2.38002
v 3.12673 4.50947 -2.63240
v 2.80397 4.47195 -2.38896
v 2.80397 4.47195 -2.38896
v 2.86568 4.75713 -2.50010
v 2.76748 4.57978 -2.37053
v 2.80397 4.47195 -2.38896
v 2.76748 4.57978 -2.37053
v 2.54679 4.70249 -2.29511
v 2.80397 4.47195 -2.38896
v 2.54679 4.70249 -2.29511
v 2.63886 4.42994 -2.30591
v 2.80397 4.47195 -2.38896
v 3.12673 4.50947 -2.63240
v 3.12666 4.64442 -2.63281
v 2.80397 4.47195 -2.38896
v 3.12666 4.64442 -2.63281
v 2.86568 4.75713 -2.50010
v 2.51064 4.25307 -2.22475
v 2.29482 4.42834 -2.24554
v 2.27205 4.23522 -2.27916
v 2.99045 4.60417 -3.14993
v 2.97472 4.82454 -2.97227
v 3.00669 4.73910 -2.90226
v 2.92544 4.83079 -2.60584
v 3.01673 4.84969 -2.59376
v 3.07139 4.87455 -2.68433
v 2.92544 4.83079 -2.60584
v 3.07139 4.87455 -2.68433
v 2.94040 4.86399 -2.66675
v 2.33312 4.75422 -3.33407
v 2.25641 4.65611 -3.25786
v 2.29394 4.75243 -3.11061
v 2.33312 4.75422 -3.33407
v 2.29394 4.75243 -3.11061
v 2.33799 4.89222 -3.14385
v 1.34754 5.03864 -2.18794
v 1.20930 4.94599 -2.32215
v 1.29551 5.19183 -2.54661
v 1.34754 5.03864 -2.18794
v 1.29551 5.19183 -2.54661
v 1.42066 5.18868 -2.28393
v 1.34754 5.03864 -2.18794
v 1.22367 4.94871 -2.12655
v 1.20930 4.94599 -2.32215
v 1.20930 4.94599 -2.32215
v 1.03711 4.98583 -2.55594
v 1.06598 5.18296 -2.83864
v 1.20930 4.94599 -2.32215
v 1.06598 5.18296 -2.83864
v 1.29551 5.19183 -2.54661
v 1.20930 4.94599 -2.32215
v 1.02407 4.88385 -2.42078
v 1.03711 4.98583 -2.55594
v 2.12841 4.74906 -3.06071
v 2.03106 4.86676 -3.19831
v 2.33799 4.89222 -3.14385
v 2.09303 5.05523 -3.28535
v 2.03106 4.86676 -3.19831
v 1.84430 5.00080 -3.21443
v 2.09303 5.05523 -3.28535
v 1.84430 5.00080 -3.21443
v 1.72462 5.44180 -3.17605
v 2.09303 5.05523 -3.28535
v 1.72462 5.44180 -3.17605
v 1.98791 5.25909 -3.26934
v 2.09303 5.05523 -3.28535
v 1.98791 5.25909 -3.26934
v 2.04291 5.46355 -3.21554
v 2.09303 5.05523 -3.28535
v 2.04291 5.46355 -3.21554
v 2.31879 5.16992 -3.22284
v 1.45868 5.36207 -2.39097
v 1.42066 5.18868 -2.28393
v 1.29551 5.19183 -2.54661
v 0.88031 5.20794 -3.10632
v 1.08864 5.47415 -3.22469
v 1.11554 5.34146 -3.05190
v 3.04750 4.77286 -2.59238
v 3.20777 4.89371 -2.65367
v 3.07139 4.87455 -2.68433
v 3.04750 4.77286 -2.59238
v 3.07139 4.87455 -2.68433
v 3.01673 4.84969 -2.59376
v 3.20777 4.89371 -2.65367
v 3.12666 4.64442 -2.63281
v 3.09744 4.73033 -2.79350
v 3.20777 4.89371 -2.65367
v 3.09744 4.73033 -2.79350
v 2.99854 4.83064 -2.75817
v 2.73892 4.33819 -2.21680
v 2.71259 4.21215 -2.10419
v 2.69337 3.98304 -2.17464
v 2.73892 4.33819 -2.21680
v 2.69337 3.98304 -2.17464
v 2.67142 4.02274 -2.29009
v 2.92193 3.95579 -3.45176
v 2.99873 3.92910 -3.42366
v 2.90723 3.71734 -3.55094
v 2.73892 4.33819 -2.21680
v 2.85788 4.34564 -2.38002
v 2.70267 4.40046 -2.18683
v 2.85788 4.34564 -2.38002
v 2.80397 4.47195 -2.38896
v 2.63886 4.42994 -2.30591
v 2.85788 4.34564 -2.38002
v 2.63886 4.42994 -2.30591
v 2.70267 4.40046 -2.18683
v 2.90773 3.87819 -3.54493
v 3.05171 4.36452 -3.23731
v 3.00716 4.16621 -3.28222
v 2.90773 3.87819 -3.54493
v 3.00716 4.16621 -3.28222
v 2.92193 3.95579 -3.45176
v 3.00716 4.16621 -3.28222
v 2.99873 3.92910 -3.42366
v 2.92193 3.95579 -3.45176
vt 0.51646 0.63202
vt 0.52156 0.64031
vt 0.51096 0.64668
vt 0.46371 0.99330
vt 0.45907 0.97717
vt 0.46948 0.98322
vt 0.22680 0.01303
vt 0.23473 0.00171
vt 0.23174 0.02701
vt 0.20674 0.90497
vt 0.21713 0.90555
vt 0.21284 0.91280
vt 0.01928 0.88939
vt 0.00626 0.90345
vt -0.00086 0.89718
vt 0.20623 0.90462
vt 0.21278 0.91298
vt 0.20728 0.92187
vt 0.20611 0.90461
vt 0.20714 0.92184
vt 0.19862 0.92095
vt 0.01956 0.88896
vt 0.02039 0.90614
vt 0.00627 0.90347
vt 0.24163 0.04734
vt 0.23420 0.03967
vt 0.24271 0.03335
vt 0.48454 0.66342
vt 0.48620 0.66033
vt 0.48870 0.66846
vt 0.05980 0.99803
vt 0.05395 0.99720
vt 0.05325 0.98929
vt 0.05980 0.99803
vt 0.05325 0.98929
vt 0.05928 0.99088
vt 0.75854 0.57258
vt 0.75712 0.56423
vt 0.76312 0.56456
vt 0.49633 0.66892
vt 0.51029 0.66410
vt 0.49947 0.67164
vt 0.49609 0.66902
vt 0.49166 0.65368
vt 0.50218 0.65428
vt 0.49632 0.66892
vt 0.50218 0.65428
vt 0.51016 0.66473
vt 0.49581 0.66905
vt 0.48995 0.66805
vt 0.48622 0.66040
vt 0.76916 0.57651
vt 0.78158 0.58258
vt 0.77074 0.58523
vt 0.76916 0.57651
vt 0.77054 0.58478
vt 0.75720 0.57398
vt 0.47857 0.65633
vt 0.48659 0.66094
vt 0.48454 0.66343
vt 0.76916 0.57651
vt 0.75885 0.57254
vt 0.76305 0.56460
vt 0.76916 0.57651
vt 0.76304 0.56460
vt 0.77234 0.57403
vt 0.76916 0.57651
vt 0.77217 0.57421
vt 0.77885 0.57596
vt 0.76916 0.57651
vt 0.77890 0.57569
vt 0.78151 0.58269
vt 0.92997 0.68756
vt 0.94101 0.69236
vt 0.93152 0.69815
vt 0.93000 0.68762
vt 0.93110 0.69726
vt 0.91799 0.68684
vt 0.93000 0.68764
vt 0.93553 0.68309
vt 0.94331 0.68929
vt 0.92997 0.68751
vt 0.94338 0.68961
vt 0.94100 0.69265
vt 0.88550 0.49683
vt 0.87804 0.51535
vt 0.87825 0.49920
vt 0.93158 0.71624
vt 0.93810 0.70814
vt 0.94146 0.71775
vt 0.93128 0.71629
vt 0.91972 0.70801
vt 0.92161 0.70492
vt 0.93119 0.71632
vt 0.92706 0.71972
vt 0.91792 0.71444
vt 0.93119 0.71632
vt 0.91792 0.71444
vt 0.92062 0.70795
vt 0.78112 0.58247
vt 0.78425 0.59104
vt 0.77957 0.59526
vt 0.78154 0.58257
vt 0.77957 0.59526
vt 0.77128 0.58538
vt 0.78171 0.58276
vt 0.79094 0.58371
vt 0.78428 0.59110
vt 0.93439 0.72813
vt 0.94006 0.72923
vt 0.93492 0.73338
vt 0.93393 0.72843
vt 0.92733 0.71962
vt 0.93173 0.71609
vt 0.93439 0.72812
vt 0.93117 0.71662
vt 0.93974 0.72953
vt 0.93446 0.72812
vt 0.92900 0.73074
vt 0.92852 0.72348
vt 0.94298 0.67354
vt 0.94192 0.66487
vt 0.94664 0.66349
vt 0.74902 0.11161
vt 0.74617 0.10164
vt 0.75318 0.10873
vt 0.74902 0.11161
vt 0.74018 0.10447
vt 0.74638 0.10145
vt 0.74902 0.11161
vt 0.75254 0.10886
vt 0.75796 0.12276
vt 0.74902 0.11161
vt 0.75272 0.11896
vt 0.74240 0.11721
vt 0.74902 0.11161
vt 0.74290 0.11674
vt 0.74013 0.10451
vt 0.79259 0.58570
vt 0.79457 0.56871
vt 0.80069 0.58187
vt 0.70117 0.12109
vt 0.70884 0.11747
vt 0.70132 0.12868
vt 0.70117 0.12109
vt 0.70049 0.11689
vt 0.70504 0.11529
vt 0.70117 0.12109
vt 0.70523 0.11544
vt 0.70964 0.11745
vt 0.70117 0.12109
vt 0.70100 0.12886
vt 0.69123 0.11979
vt 0.27600 0.65143
vt 0.27329 0.65912
vt 0.27011 0.64955
vt 0.99462 0.58719
vt 0.99884 0.58119
vt 0.99789 0.59345
vt 0.26770 0.66166
vt 0.26579 0.65138
vt 0.27022 0.64969
vt 0.26894 0.66228
vt 0.26985 0.64964
vt 0.27218 0.65841
vt 0.26902 0.66229
vt 0.26030 0.66417
vt 0.25631 0.65883
vt 0.26906 0.66226
vt 0.25630 0.65885
vt 0.26566 0.65132
vt 0.70959 0.11718
vt 0.71708 0.10819
vt 0.71756 0.12273
vt 0.72504 0.11211
vt 0.72406 0.11143
vt 0.73260 0.10615
vt 0.25233 0.98117
vt 0.25282 0.98888
vt 0.24895 0.97948
vt 0.72416 0.11160
vt 0.72419 0.10475
vt 0.73034 0.10215
vt 0.72415 0.11160
vt 0.73034 0.10215
vt 0.73267 0.10628
vt 0.72412 0.11162
vt 0.71698 0.10818
vt 0.72419 0.10475
vt 0.72416 0.11167
vt 0.71799 0.12271
vt 0.71686 0.10822
vt 0.93151 0.73959
vt 0.93436 0.72808
vt 0.93492 0.73338
vt 0.74857 0.12499
vt 0.74259 0.11718
vt 0.75257 0.11946
vt 0.25630 0.65885
vt 0.24580 0.65827
vt 0.25605 0.64940
vt 0.25626 0.65879
vt 0.25680 0.65036
vt 0.26552 0.65112
vt 0.78356 0.53586
vt 0.78094 0.54867
vt 0.77727 0.53441
vt 0.00992 0.98239
vt 0.00804 0.97705
vt 0.01283 0.97695
vt 0.00992 0.98239
vt 0.01283 0.97695
vt 0.01509 0.98284
vt 0.00992 0.98239
vt 0.01504 0.98265
vt 0.01364 0.99641
vt 0.00992 0.98239
vt 0.01364 0.99641
vt 0.00471 0.99047
vt 0.36893 0.97840
vt 0.36824 0.99224
vt 0.36318 0.98252
vt 0.36896 0.97846
vt 0.36318 0.98252
vt 0.36533 0.97209
vt 0.73757 0.13063
vt 0.73225 0.12617
vt 0.72920 0.11874
vt 0.73765 0.13066
vt 0.72942 0.11868
vt 0.74242 0.11718
vt 0.99210 0.52644
vt 0.99169 0.53659
vt 0.98329 0.53493
vt 0.99210 0.52644
vt 0.98329 0.53493
vt 0.98435 0.52502
vt 0.25259 0.99624
vt 0.24555 0.99224
vt 0.24838 0.97971
vt 0.25207 0.99648
vt 0.24895 0.97948
vt 0.25282 0.98888
vt 0.99764 0.01480
vt 0.99179 0.00966
vt 0.99764 0.00697
vt 0.78399 0.53706
vt 0.79204 0.55090
vt 0.78914 0.55090
vt 0.99169 0.53659
vt 0.99210 0.54692
vt 0.98420 0.54669
vt 0.99169 0.53659
vt 0.98420 0.54669
vt 0.98329 0.53493
vt 0.08090 0.96975
vt 0.08326 0.97955
vt 0.07868 0.97253
vt 0.24448 0.99924
vt 0.24208 0.99492
vt 0.24275 0.98911
vt 0.71851 0.14250
vt 0.72062 0.13545
vt 0.72295 0.13638
vt 0.71851 0.14250
vt 0.71181 0.14421
vt 0.70851 0.14041
vt 0.71851 0.14250
vt 0.70879 0.14130
vt 0.72082 0.13542
vt 0.86600 0.82242
vt 0.87249 0.82292
vt 0.86638 0.82899
vt 0.23770 0.65388
vt 0.23239 0.65938
vt 0.23099 0.64842
vt 0.23770 0.65388
vt 0.23101 0.64841
vt 0.23922 0.64686
vt 0.97402 0.99107
vt 0.97517 0.99384
vt 0.96727 0.99332
vt 0.97402 0.99107
vt 0.96727 0.99332
vt 0.96726 0.97913
vt 0.73677 0.14487
vt 0.73129 0.15297
vt 0.72311 0.13619
vt 0.73549 0.14610
vt 0.72372 0.13570
vt 0.72534 0.13286
vt 0.73677 0.14487
vt 0.74049 0.15499
vt 0.73129 0.15346
vt 0.43712 0.98178
vt 0.43652 0.99298
vt 0.43024 0.98764
vt 0.73677 0.14487
vt 0.74172 0.13764
vt 0.74932 0.14573
vt 0.73677 0.14487
vt 0.74932 0.14573
vt 0.74112 0.15591
vt 0.86480 0.98245
vt 0.85718 0.98435
vt 0.85910 0.97511
vt 0.24574 0.62687
vt 0.24819 0.63772
vt 0.23422 0.63364
vt 0.24819 0.63772
vt 0.24124 0.63212
vt 0.23432 0.63373
vt 0.24576 0.62688
vt 0.25772 0.63618
vt 0.24819 0.63772
vt 0.24573 0.62687
vt 0.23452 0.63368
vt 0.23715 0.62409
vt 0.24122 0.63205
vt 0.24819 0.63772
vt 0.25657 0.65005
vt 0.24124 0.63212
vt 0.25643 0.64998
vt 0.24042 0.64624
vt 0.85729 0.99507
vt 0.85718 0.98435
vt 0.86467 0.98348
vt 0.85729 0.99507
vt 0.86474 0.98271
vt 0.86611 0.99577
vt 0.23434 0.63369
vt 0.23099 0.64843
vt 0.22760 0.64090
vt 0.23422 0.63379
vt 0.23961 0.64666
vt 0.23115 0.64829
vt 0.29601 0.79418
vt 0.28694 0.80310
vt 0.28887 0.78903
vt 0.23384 0.63373
vt 0.22829 0.64068
vt 0.22389 0.63284
vt 0.73118 0.15314
vt 0.72661 0.14627
vt 0.72340 0.13590
vt 0.92021 0.41599
vt 0.92818 0.40371
vt 0.92956 0.41387
vt 0.73239 0.07138
vt 0.72285 0.08769
vt 0.72082 0.07253
vt 0.72285 0.08769
vt 0.73244 0.07133
vt 0.72312 0.09823
vt 0.72285 0.08769
vt 0.72319 0.09816
vt 0.71742 0.09851
vt 0.98976 0.58185
vt 0.99661 0.57813
vt 0.99500 0.59736
vt 0.98976 0.58185
vt 0.99527 0.59714
vt 0.98823 0.59396
vt 0.71748 0.09850
vt 0.71269 0.09838
vt 0.71628 0.07201
vt 0.71266 0.09839
vt 0.70816 0.09762
vt 0.70544 0.07418
vt 0.71257 0.09840
vt 0.70516 0.07421
vt 0.71685 0.07194
vt 0.60226 0.85973
vt 0.60113 0.87858
vt 0.59636 0.87028
vt 0.59640 0.87020
vt 0.59133 0.87673
vt 0.59163 0.86854
vt 0.59622 0.87041
vt 0.59163 0.86854
vt 0.59043 0.85776
vt 0.59163 0.86854
vt 0.59133 0.87673
vt 0.58686 0.87681
vt 0.59163 0.86854
vt 0.58686 0.87681
vt 0.58653 0.86812
vt 0.59163 0.86854
vt 0.58651 0.86830
vt 0.58609 0.85755
vt 0.52928 0.67797
vt 0.51892 0.68367
vt 0.51801 0.67909
vt 0.52574 0.67445
vt 0.51801 0.67909
vt 0.51693 0.67547
vt 0.51693 0.67547
vt 0.51801 0.67909
vt 0.50920 0.68434
vt 0.51693 0.67547
vt 0.50967 0.68468
vt 0.50547 0.67603
vt 0.51693 0.67547
vt 0.50547 0.67603
vt 0.51427 0.66867
vt 0.51693 0.67547
vt 0.51402 0.66853
vt 0.52559 0.67435
vt 0.51426 0.66867
vt 0.50547 0.67603
vt 0.49939 0.67188
vt 0.51435 0.66886
vt 0.49949 0.67198
vt 0.51048 0.66480
vt 0.51425 0.66866
vt 0.51060 0.66467
vt 0.52977 0.65255
vt 0.94033 0.69788
vt 0.93801 0.70767
vt 0.93173 0.70477
vt 0.94033 0.69788
vt 0.93173 0.70477
vt 0.93215 0.69836
vt 0.50547 0.67603
vt 0.50037 0.68260
vt 0.50019 0.67182
vt 0.93173 0.70477
vt 0.93162 0.71631
vt 0.92161 0.70492
vt 0.93173 0.70477
vt 0.92161 0.70492
vt 0.92235 0.70057
vt 0.93173 0.70477
vt 0.92235 0.70057
vt 0.93140 0.69799
vt 0.93173 0.70477
vt 0.93871 0.70799
vt 0.93155 0.71631
vt 0.28853 0.64739
vt 0.28446 0.64622
vt 0.29250 0.63368
vt 0.92235 0.70057
vt 0.91349 0.69235
vt 0.91799 0.68684
vt 0.92235 0.70057
vt 0.91799 0.68684
vt 0.93029 0.69752
vt 0.29248 0.63360
vt 0.28574 0.61974
vt 0.28692 0.60692
vt 0.89955 0.50176
vt 0.89573 0.52437
vt 0.89045 0.51416
vt 0.89955 0.50176
vt 0.89045 0.51416
vt 0.89244 0.50148
vt 0.89045 0.51416
vt 0.89571 0.52475
vt 0.88711 0.52776
vt 0.89045 0.51416
vt 0.88691 0.52762
vt 0.88429 0.51605
vt 0.89045 0.51416
vt 0.88429 0.51605
vt 0.88525 0.49649
vt 0.89045 0.51416
vt 0.88520 0.49645
vt 0.89244 0.50148
vt 0.88429 0.51605
vt 0.88708 0.52776
vt 0.88028 0.52896
vt 0.88429 0.51605
vt 0.88028 0.52896
vt 0.87808 0.51543
vt 0.88429 0.51605
vt 0.87827 0.51581
vt 0.88529 0.49640
vt 0.74813 0.54467
vt 0.75243 0.52961
vt 0.75802 0.53021
vt 0.74823 0.54473
vt 0.75812 0.53029
vt 0.75435 0.54292
vt 0.74820 0.54471
vt 0.75435 0.54292
vt 0.75366 0.55512
vt 0.99527 0.60653
vt 0.99432 0.61556
vt 0.98826 0.61658
vt 0.99527 0.60653
vt 0.98826 0.61658
vt 0.98823 0.60782
vt 0.75366 0.55512
vt 0.75728 0.55330
vt 0.75712 0.56423
vt 0.75366 0.55512
vt 0.75712 0.56423
vt 0.75216 0.56444
vt 0.75366 0.55512
vt 0.75216 0.56444
vt 0.74540 0.56583
vt 0.75366 0.55512
vt 0.74522 0.56577
vt 0.74829 0.54474
vt 0.75728 0.55330
vt 0.75761 0.54164
vt 0.76247 0.54057
vt 0.75728 0.55330
vt 0.76247 0.54057
vt 0.76352 0.55277
vt 0.75728 0.55330
vt 0.76352 0.55277
vt 0.76311 0.56461
vt 0.75728 0.55330
vt 0.76312 0.56459
vt 0.75712 0.56423
vt 0.76352 0.55277
vt 0.76247 0.54057
vt 0.76710 0.53979
vt 0.76352 0.55277
vt 0.76710 0.53979
vt 0.76675 0.55198
vt 0.76352 0.55277
vt 0.76675 0.55198
vt 0.76369 0.56459
vt 0.76675 0.55198
vt 0.76710 0.53979
vt 0.77121 0.53762
vt 0.76675 0.55198
vt 0.77121 0.53762
vt 0.77065 0.55055
vt 0.76675 0.55198
vt 0.77065 0.55055
vt 0.77204 0.57404
vt 0.76675 0.55198
vt 0.77228 0.57405
vt 0.76273 0.56460
vt 0.77065 0.55055
vt 0.77121 0.53762
vt 0.77727 0.53441
vt 0.77065 0.55055
vt 0.77727 0.53441
vt 0.78098 0.54838
vt 0.77065 0.55055
vt 0.78099 0.54859
vt 0.77886 0.57574
vt 0.77096 0.55053
vt 0.77890 0.57574
vt 0.77214 0.57406
vt 0.77121 0.53762
vt 0.76710 0.53979
vt 0.76739 0.53212
vt 0.97970 0.19094
vt 0.98459 0.19220
vt 0.98449 0.19729
vt 0.97970 0.19094
vt 0.98449 0.19729
vt 0.97970 0.19761
vt 0.76774 0.53237
vt 0.76558 0.51724
vt 0.77040 0.51773
vt 0.76764 0.53223
vt 0.77041 0.51772
vt 0.78420 0.53689
vt 0.76764 0.53223
vt 0.78420 0.53689
vt 0.77723 0.53532
vt 0.79732 0.54851
vt 0.79204 0.55090
vt 0.78453 0.53685
vt 0.25582 0.79075
vt 0.25992 0.78652
vt 0.26096 0.80486
vt 0.25583 0.79068
vt 0.26096 0.80486
vt 0.25423 0.80305
vt 0.79704 0.54863
vt 0.80011 0.56259
vt 0.79472 0.56852
vt 0.79709 0.54859
vt 0.79457 0.56870
vt 0.79204 0.55090
vt 0.17427 0.99114
vt 0.16825 0.98502
vt 0.16999 0.97531
vt 0.17417 0.99124
vt 0.16999 0.97531
vt 0.17448 0.97697
vt 0.79447 0.56873
vt 0.80017 0.56257
vt 0.80081 0.58184
vt 0.17432 0.99110
vt 0.16873 0.99975
vt 0.16825 0.98502
vt 0.78935 0.56437
vt 0.78172 0.54846
vt 0.78914 0.55090
vt 0.79008 0.56458
vt 0.79015 0.58335
vt 0.78163 0.58260
vt 0.78936 0.56439
vt 0.77893 0.57574
vt 0.78070 0.54860
vt 0.78944 0.56438
vt 0.78182 0.58257
vt 0.77878 0.57575
vt 0.25423 0.80305
vt 0.26096 0.80486
vt 0.26147 0.81863
vt 0.76171 0.13099
vt 0.74869 0.12501
vt 0.75257 0.11951
vt 0.26096 0.80486
vt 0.25980 0.78677
vt 0.26796 0.79571
vt 0.26096 0.80486
vt 0.26796 0.79571
vt 0.26811 0.80346
vt 0.75665 0.13584
vt 0.75012 0.13932
vt 0.74875 0.12524
vt 0.26811 0.80346
vt 0.26796 0.79571
vt 0.27477 0.79490
vt 0.26811 0.80346
vt 0.27477 0.79490
vt 0.27307 0.80507
vt 0.75015 0.13940
vt 0.74932 0.14573
vt 0.74172 0.13764
vt 0.75015 0.13940
vt 0.74172 0.13764
vt 0.74803 0.12443
vt 0.27477 0.79490
vt 0.28575 0.80342
vt 0.27307 0.80507
vt 0.25275 0.59306
vt 0.25770 0.63593
vt 0.24576 0.62688
vt 0.25231 0.59290
vt 0.26303 0.61047
vt 0.25802 0.63591
vt 0.26303 0.61047
vt 0.26732 0.59668
vt 0.26955 0.60977
vt 0.26303 0.61047
vt 0.26955 0.60977
vt 0.27101 0.62373
vt 0.26303 0.61047
vt 0.27101 0.62373
vt 0.26589 0.62574
vt 0.26303 0.61047
vt 0.26589 0.62574
vt 0.25786 0.63606
vt 0.26589 0.62574
vt 0.27101 0.62373
vt 0.27113 0.63719
vt 0.26589 0.62574
vt 0.27113 0.63719
vt 0.26707 0.63839
vt 0.26589 0.62574
vt 0.26707 0.63839
vt 0.25766 0.63613
vt 0.26707 0.63839
vt 0.27113 0.63719
vt 0.27093 0.64968
vt 0.26707 0.63839
vt 0.27056 0.64975
vt 0.26610 0.65139
vt 0.26707 0.63839
vt 0.26594 0.65139
vt 0.25685 0.65012
vt 0.26707 0.63839
vt 0.25680 0.65009
vt 0.25790 0.63612
vt 0.27113 0.63719
vt 0.27107 0.62372
vt 0.27552 0.63340
vt 0.27113 0.63719
vt 0.27559 0.63338
vt 0.27611 0.65151
vt 0.27113 0.63719
vt 0.27635 0.65148
vt 0.27045 0.64969
vt 0.98369 0.68313
vt 0.97996 0.68065
vt 0.97800 0.67260
vt 0.98364 0.68317
vt 0.97798 0.67265
vt 0.98214 0.66966
vt 0.97991 0.68073
vt 0.97530 0.68872
vt 0.97555 0.67900
vt 0.97995 0.68065
vt 0.97555 0.67900
vt 0.97839 0.67209
vt 0.27997 0.63476
vt 0.27684 0.62430
vt 0.28385 0.63431
vt 0.27997 0.63476
vt 0.28385 0.63431
vt 0.28364 0.64609
vt 0.27997 0.63476
vt 0.28364 0.64609
vt 0.27827 0.64519
vt 0.28385 0.63431
vt 0.27661 0.62436
vt 0.28574 0.61974
vt 0.28348 0.63433
vt 0.28574 0.61974
vt 0.29249 0.63362
vt 0.28357 0.63422
vt 0.29242 0.63366
vt 0.28451 0.64624
vt 0.91348 0.70297
vt 0.92161 0.70492
vt 0.91972 0.70801
vt 0.27710 0.62429
vt 0.27576 0.60811
vt 0.28256 0.60661
vt 0.27661 0.62436
vt 0.28220 0.60665
vt 0.28574 0.61974
vt 0.28214 0.60662
vt 0.27909 0.58483
vt 0.28214 0.58368
vt 0.90061 0.52887
vt 0.89959 0.54597
vt 0.89491 0.54028
vt 0.90056 0.52893
vt 0.89491 0.54028
vt 0.89546 0.52493
vt 0.90063 0.52890
vt 0.89568 0.52478
vt 0.90263 0.51721
vt 0.89491 0.54028
vt 0.88909 0.54804
vt 0.88716 0.52745
vt 0.89491 0.54028
vt 0.88711 0.52772
vt 0.89577 0.52497
vt 0.88907 0.54783
vt 0.88145 0.54023
vt 0.88720 0.52823
vt 0.88181 0.54093
vt 0.88028 0.52896
vt 0.88707 0.52773
vt 0.75337 0.51371
vt 0.75749 0.51375
vt 0.75807 0.53021
vt 0.75337 0.51371
vt 0.75800 0.53019
vt 0.75243 0.52961
vt 0.75800 0.53019
vt 0.75737 0.51372
vt 0.76204 0.52905
vt 0.75796 0.53018
vt 0.76229 0.52913
vt 0.76247 0.54057
vt 0.75773 0.53000
vt 0.76247 0.54057
vt 0.75761 0.54164
vt 0.99069 0.62655
vt 0.98826 0.61658
vt 0.99432 0.61556
vt 0.76206 0.52900
vt 0.76558 0.51724
vt 0.76760 0.53229
vt 0.76210 0.52915
vt 0.76759 0.53228
vt 0.76710 0.53979
vt 0.76212 0.52909
vt 0.76710 0.53979
vt 0.76247 0.54057
vt 0.27645 0.59261
vt 0.27926 0.58485
vt 0.28209 0.60660
vt 0.27618 0.59258
vt 0.28241 0.60664
vt 0.27587 0.60812
vt 0.97710 0.71225
vt 0.97555 0.70123
vt 0.97893 0.70164
vt 0.97710 0.71225
vt 0.97893 0.70164
vt 0.98015 0.71327
vt 0.27480 0.60861
vt 0.27177 0.60314
vt 0.27418 0.59322
vt 0.97893 0.70164
vt 0.97555 0.70123
vt 0.97515 0.68896
vt 0.97886 0.70210
vt 0.97524 0.68881
vt 0.97989 0.68060
vt 0.97880 0.70179
vt 0.97974 0.68091
vt 0.98350 0.68335
vt 0.97893 0.70164
vt 0.98387 0.68312
vt 0.98069 0.70764
vt 0.27186 0.60318
vt 0.27067 0.60933
vt 0.26732 0.59659
vt 0.51801 0.67909
vt 0.51907 0.68365
vt 0.50906 0.68418
vt 0.58667 0.86855
vt 0.58686 0.87681
vt 0.57797 0.87799
vt 0.59133 0.87673
vt 0.59628 0.87052
vt 0.59356 0.88688
vt 0.59133 0.87673
vt 0.59368 0.88684
vt 0.57863 0.88301
vt 0.94420 0.72126
vt 0.93171 0.71609
vt 0.94146 0.71775
vt 0.59595 0.87080
vt 0.60129 0.87837
vt 0.59718 0.88787
vt 0.59633 0.87033
vt 0.59671 0.88855
vt 0.59349 0.88686
vt 0.70835 0.09762
vt 0.71273 0.09839
vt 0.70845 0.11711
vt 0.60240 0.87755
vt 0.60209 0.89300
vt 0.59687 0.88830
vt 0.71269 0.09839
vt 0.71742 0.09851
vt 0.71712 0.10818
vt 0.71272 0.09838
vt 0.71704 0.10819
vt 0.70843 0.11713
vt 0.71739 0.09853
vt 0.72318 0.09817
vt 0.72419 0.10475
vt 0.71741 0.09851
vt 0.72419 0.10475
vt 0.71704 0.10817
vt 0.72317 0.09805
vt 0.73034 0.10215
vt 0.72419 0.10475
vt 0.72319 0.09824
vt 0.73506 0.09550
vt 0.73551 0.10075
vt 0.72320 0.09807
vt 0.73550 0.10089
vt 0.73034 0.10215
vt 0.72322 0.09813
vt 0.73236 0.07140
vt 0.73493 0.08528
vt 0.72324 0.09812
vt 0.73493 0.08528
vt 0.73496 0.09549
vt 0.73551 0.10075
vt 0.74027 0.10447
vt 0.73298 0.10640
vt 0.73551 0.10075
vt 0.73261 0.10626
vt 0.73034 0.10215
vt 0.73551 0.10075
vt 0.73506 0.09541
vt 0.74006 0.09271
vt 0.73551 0.10075
vt 0.73998 0.09262
vt 0.74005 0.10417
vt 0.21929 0.95455
vt 0.22146 0.94686
vt 0.22758 0.94832
vt 0.73984 0.09250
vt 0.73506 0.09541
vt 0.73493 0.08528
vt 0.21934 0.95453
vt 0.21071 0.95160
vt 0.22123 0.94697
vt 0.21071 0.95160
vt 0.20673 0.94578
vt 0.21356 0.94448
vt 0.21071 0.95160
vt 0.21356 0.94448
vt 0.22114 0.94720
vt 0.74268 0.08208
vt 0.74038 0.09254
vt 0.73726 0.07064
vt 0.74268 0.08208
vt 0.73726 0.07064
vt 0.74221 0.06987
vt 0.74268 0.08208
vt 0.74221 0.06987
vt 0.74674 0.07020
vt 0.74268 0.08208
vt 0.74674 0.07020
vt 0.74745 0.08081
vt 0.02236 0.93062
vt 0.02338 0.91914
vt 0.03094 0.91736
vt 0.02238 0.93062
vt 0.03110 0.91742
vt 0.03078 0.92846
vt 0.02237 0.93063
vt 0.02097 0.93750
vt 0.01074 0.94232
vt 0.02305 0.91898
vt 0.02238 0.93063
vt 0.01124 0.93103
vt 0.02294 0.91892
vt 0.01134 0.93109
vt 0.01340 0.92138
vt 0.02330 0.91897
vt 0.01294 0.92117
vt 0.00974 0.91098
vt 0.02296 0.91910
vt 0.01019 0.91081
vt 0.02026 0.90618
vt 0.00974 0.91098
vt 0.00603 0.90370
vt 0.02057 0.90597
vt 0.74268 0.92216
vt 0.74504 0.93255
vt 0.74124 0.93373
vt 0.74268 0.92216
vt 0.74124 0.93373
vt 0.73421 0.91721
vt 0.74268 0.92216
vt 0.73454 0.91718
vt 0.74091 0.91425
vt 0.74124 0.93373
vt 0.74504 0.93255
vt 0.74979 0.94087
vt 0.24327 0.02061
vt 0.24284 0.03340
vt 0.23156 0.02685
vt 0.24313 0.02052
vt 0.23174 0.02701
vt 0.23473 0.00171
vt 0.73698 0.93669
vt 0.71532 0.92156
vt 0.72448 0.91813
vt 0.01131 0.93106
vt 0.02237 0.93063
vt 0.01064 0.94224
vt 0.20517 0.93487
vt 0.21356 0.94448
vt 0.20673 0.94578
vt 0.03103 0.91736
vt 0.02323 0.91901
vt 0.02065 0.90606
vt 0.03108 0.91736
vt 0.02045 0.90612
vt 0.02970 0.90421
vt 0.20519 0.93488
vt 0.20748 0.92190
vt 0.21597 0.92922
vt 0.20526 0.93482
vt 0.21502 0.92954
vt 0.21846 0.94278
vt 0.20521 0.93486
vt 0.21804 0.94291
vt 0.21356 0.94448
vt 0.20743 0.92192
vt 0.21317 0.91312
vt 0.22178 0.91220
vt 0.20749 0.92198
vt 0.22262 0.91237
vt 0.21516 0.92890
vt 0.21301 0.91303
vt 0.21712 0.90551
vt 0.22304 0.91281
vt 0.74221 0.06987
vt 0.73726 0.07064
vt 0.73785 0.05889
vt 0.73726 0.07064
vt 0.74029 0.09256
vt 0.73493 0.08528
vt 0.73726 0.07064
vt 0.73493 0.08528
vt 0.73245 0.07137
vt 0.73726 0.07064
vt 0.73246 0.07134
vt 0.73088 0.05860
vt 0.21356 0.94448
vt 0.21846 0.94278
vt 0.22145 0.94686
vt 0.78257 0.59770
vt 0.77957 0.59526
vt 0.78421 0.59103
vt 0.74195 0.09720
vt 0.74645 0.10155
vt 0.74025 0.10445
vt 0.73282 0.10615
vt 0.74019 0.10447
vt 0.73830 0.11147
vt 0.73263 0.10651
vt 0.73828 0.11152
vt 0.72508 0.11211
vt 0.73830 0.11147
vt 0.74019 0.10447
vt 0.74240 0.11720
vt 0.73830 0.11147
vt 0.74241 0.11721
vt 0.72934 0.11864
vt 0.73828 0.11151
vt 0.72937 0.11859
vt 0.72508 0.11212
vt 0.25776 0.63613
vt 0.25657 0.65005
vt 0.24819 0.63772
vt 0.24024 0.64615
vt 0.25653 0.65023
vt 0.24543 0.65802
vt 0.24042 0.64589
vt 0.24539 0.65797
vt 0.23958 0.65663
vt 0.74172 0.13764
vt 0.73714 0.12977
vt 0.74868 0.12508
vt 0.72027 0.13539
vt 0.70824 0.14093
vt 0.70448 0.13437
vt 0.71953 0.13541
vt 0.70548 0.13465
vt 0.71883 0.12840
vt 0.71888 0.12850
vt 0.70954 0.11713
vt 0.71799 0.12271
vt 0.71928 0.12840
vt 0.71799 0.12271
vt 0.72418 0.11169
vt 0.71924 0.12842
vt 0.72424 0.11164
vt 0.72783 0.12577
vt 0.71909 0.12848
vt 0.70509 0.13453
vt 0.70181 0.12845
vt 0.72023 0.12785
vt 0.70132 0.12868
vt 0.70884 0.11747
vt 0.73744 0.13055
vt 0.74242 0.11718
vt 0.74868 0.12502
vt 0.94135 0.65037
vt 0.94678 0.66349
vt 0.94183 0.66487
vt 0.94252 0.73078
vt 0.94001 0.73456
vt 0.93492 0.73338
vt 0.94248 0.73072
vt 0.93492 0.73338
vt 0.93977 0.72903
vt 0.74540 0.56583
vt 0.75216 0.56444
vt 0.75432 0.57325
vt 0.74566 0.56588
vt 0.75410 0.57325
vt 0.74793 0.57761
vt 0.22631 0.04548
vt 0.21918 0.03947
vt 0.23151 0.02682
vt 0.22631 0.04548
vt 0.23148 0.02679
vt 0.23420 0.03967
vt 0.22631 0.04548
vt 0.22061 0.04954
vt 0.21898 0.03965
vt 0.21951 0.03974
vt 0.21805 0.02836
vt 0.22654 0.01286
vt 0.21905 0.03933
vt 0.22715 0.01339
vt 0.23156 0.02687
vt 0.21929 0.03959
vt 0.21348 0.03570
vt 0.21805 0.02836
vt 0.48622 0.66040
vt 0.49213 0.65354
vt 0.49581 0.66905
vt 0.50218 0.65428
vt 0.49167 0.65370
vt 0.49563 0.64272
vt 0.50218 0.65428
vt 0.49624 0.64241
vt 0.51644 0.63152
vt 0.50259 0.65333
vt 0.51621 0.63207
vt 0.51096 0.64668
vt 0.50218 0.65428
vt 0.51096 0.64668
vt 0.52161 0.64720
vt 0.50218 0.65428
vt 0.52134 0.64720
vt 0.51066 0.66434
vt 0.24282 0.03348
vt 0.23420 0.03967
vt 0.23165 0.02707
vt 0.98924 0.26951
vt 0.98157 0.25352
vt 0.99010 0.25557
vt 0.70117 0.12109
vt 0.69104 0.11921
vt 0.69768 0.11703
vt 0.70117 0.12109
vt 0.69768 0.11703
vt 0.70049 0.11689
vt 0.26988 0.67233
vt 0.26025 0.66454
vt 0.26905 0.66243
vt 0.99660 0.77883
vt 0.98641 0.78033
vt 0.98631 0.77336
vt 0.07874 0.97206
vt 0.08326 0.97955
vt 0.07753 0.99036
vt 0.07850 0.97195
vt 0.07753 0.99036
vt 0.07211 0.98768
vt 0.10873 0.79381
vt 0.11282 0.79495
vt 0.10903 0.80543
vt 0.07883 0.97195
vt 0.07005 0.96906
vt 0.08054 0.97014
vt 0.98949 -0.00235
vt 0.99286 -0.00077
vt 0.99764 0.00697
vt 0.98993 -0.00277
vt 0.99764 0.00697
vt 0.99136 0.01010
vt 0.27194 0.60320
vt 0.27567 0.63333
vt 0.27101 0.62373
vt 0.27211 0.60328
vt 0.27101 0.62373
vt 0.27069 0.60934
vt 0.11234 0.78363
vt 0.11282 0.79495
vt 0.10865 0.79393
vn -0.4446 -0.5737 -0.6879
vn 0.1308 -0.3781 -0.9165
vn -0.1016 0.0109 -0.9948
vn 0.5675 -0.6996 -0.4342
vn 0.4186 -0.6846 -0.5968
vn 0.4755 -0.7428 -0.4714
vn 0.5675 -0.6996 -0.4342
vn 0.4755 -0.7428 -0.4714
vn 0.6936 -0.6098 -0.3835
vn -0.6018 -0.3959 -0.6936
vn -0.1590 -0.6557 -0.7381
vn -0.5267 -0.8246 -0.2064
vn -0.6018 -0.3959 -0.6936
vn -0.7197 -0.5448 -0.4304
vn -0.4446 -0.5737 -0.6879
vn -0.6018 -0.3959 -0.6936
vn -0.5267 -0.8246 -0.2064
vn -0.7144 -0.6924 -0.1012
vn -0.6018 -0.3959 -0.6936
vn -0.7144 -0.6924 -0.1012
vn -0.8772 -0.4529 -0.1591
vn -0.6018 -0.3959 -0.6936
vn -0.8772 -0.4529 -0.1591
vn -0.7197 -0.5448 -0.4304
vn 0.9180 -0.2045 0.3398
vn 0.9186 -0.3872 -0.0788
vn 0.9091 -0.4132 -0.0539
vn -0.6564 0.2183 -0.7221
vn -0.3948 -0.6242 -0.6741
vn -0.6818 0.3232 -0.6563
vn -0.6564 0.2183 -0.7221
vn -0.6818 0.3232 -0.6563
vn -0.7337 0.5304 -0.4247
vn -0.6564 0.2183 -0.7221
vn -0.7337 0.5304 -0.4247
vn -0.7271 0.5572 -0.4011
vn -0.6564 0.2183 -0.7221
vn -0.7271 0.5572 -0.4011
vn -0.7762 0.4929 -0.3931
vn -0.2857 0.0354 -0.9577
vn 0.4909 0.1110 -0.8641
vn -0.0215 0.3917 -0.9198
vn -0.2857 0.0354 -0.9577
vn -0.1590 -0.6557 -0.7381
vn 0.0531 -0.1548 -0.9865
vn -0.2857 0.0354 -0.9577
vn 0.0531 -0.1548 -0.9865
vn 0.4909 0.1110 -0.8641
vn -0.2857 0.0354 -0.9577
vn -0.6818 0.3232 -0.6563
vn -0.3948 -0.6242 -0.6741
vn -0.8711 0.4067 -0.2753
vn -0.9652 0.0180 0.2608
vn -0.8989 -0.4377 -0.0180
vn -0.8711 0.4067 -0.2753
vn -0.8989 -0.4377 -0.0180
vn -0.3948 -0.6242 -0.6741
vn -0.8711 0.4067 -0.2753
vn -0.3948 -0.6242 -0.6741
vn -0.6564 0.2183 -0.7221
vn -0.8711 0.4067 -0.2753
vn -0.6564 0.2183 -0.7221
vn -0.7762 0.4929 -0.3931
vn -0.8711 0.4067 -0.2753
vn -0.7762 0.4929 -0.3931
vn -0.8864 0.4623 0.0216
vn -0.8711 0.4067 -0.2753
vn -0.8864 0.4623 0.0216
vn -0.9678 0.0850 0.2369
vn -0.8711 0.4067 -0.2753
vn -0.9678 0.0850 0.2369
vn -0.9652 0.0180 0.2608
vn -0.2091 0.7109 -0.6715
vn -0.0215 0.3917 -0.9198
vn 0.1256 0.7984 -0.5889
vn -0.2091 0.7109 -0.6715
vn 0.1256 0.7984 -0.5889
vn -0.1313 0.6105 -0.7811
vn -0.2091 0.7109 -0.6715
vn -0.6080 0.5799 -0.5423
vn -0.2857 0.0354 -0.9577
vn -0.2091 0.7109 -0.6715
vn -0.2857 0.0354 -0.9577
vn -0.0215 0.3917 -0.9198
vn -0.2091 0.7109 -0.6715
vn -0.6082 0.3751 -0.6996
vn -0.6080 0.5799 -0.5423
vn 0.6822 0.6437 -0.3466
vn 0.5677 0.5041 -0.6509
vn 0.8343 0.5121 -0.2043
vn 0.6822 0.6437 -0.3466
vn 0.6429 0.5102 -0.5713
vn 0.6675 0.5701 -0.4790
vn 0.6822 0.6437 -0.3466
vn 0.8126 0.4805 -0.3298
vn 0.7098 0.4307 -0.5574
vn 0.6822 0.6437 -0.3466
vn 0.7098 0.4307 -0.5574
vn 0.6429 0.5102 -0.5713
vn -0.9652 0.0180 0.2608
vn -0.7461 -0.0628 0.6628
vn -0.7710 -0.5247 0.3609
vn -0.9652 0.0180 0.2608
vn -0.7710 -0.5247 0.3609
vn -0.8989 -0.4377 -0.0180
vn -0.9652 0.0180 0.2608
vn -0.7828 -0.1566 0.6022
vn -0.7461 -0.0628 0.6628
vn 0.4637 0.8126 -0.3530
vn 0.4891 0.8380 0.2418
vn -0.0361 0.9991 0.0199
vn 0.4637 0.8126 -0.3530
vn 0.8126 0.4805 -0.3298
vn 0.6822 0.6437 -0.3466
vn 0.4637 0.8126 -0.3530
vn 0.6822 0.6437 -0.3466
vn 0.4891 0.8380 0.2418
vn 0.4637 0.8126 -0.3530
vn 0.8097 0.3513 -0.4701
vn 0.8464 0.4525 -0.2808
vn 0.4637 0.8126 -0.3530
vn 0.8464 0.4525 -0.2808
vn 0.8126 0.4805 -0.3298
vn -0.7125 -0.0113 0.7016
vn -0.7461 -0.0628 0.6628
vn -0.7828 -0.1566 0.6022
vn -0.7125 -0.0113 0.7016
vn -0.5392 -0.1506 0.8286
vn -0.7461 -0.0628 0.6628
vn -0.7125 -0.0113 0.7016
vn -0.7828 -0.1566 0.6022
vn -0.8993 -0.3084 0.3100
vn -0.7125 -0.0113 0.7016
vn -0.7845 -0.1657 0.5976
vn -0.4289 0.0524 0.9018
vn -0.7125 -0.0113 0.7016
vn -0.4289 0.0524 0.9018
vn -0.5392 -0.1506 0.8286
vn -0.7125 -0.0113 0.7016
vn -0.8993 -0.3084 0.3100
vn -0.7845 -0.1657 0.5976
vn 0.3580 0.2003 0.9120
vn 0.5412 0.3314 0.7728
vn 0.9030 -0.0423 0.4275
vn 0.3580 0.2003 0.9120
vn 0.1535 0.6313 0.7602
vn 0.3905 0.6451 0.6568
vn 0.3580 0.2003 0.9120
vn 0.3905 0.6451 0.6568
vn 0.5412 0.3314 0.7728
vn 0.3580 0.2003 0.9120
vn 0.9030 -0.0423 0.4275
vn 0.7380 0.6532 0.1697
vn 0.7569 0.5824 -0.2963
vn 0.8464 0.4525 -0.2808
vn 0.9066 0.2874 -0.3088
vn 0.7569 0.5824 -0.2963
vn 0.7098 0.4307 -0.5574
vn 0.8464 0.4525 -0.2808
vn 0.8097 0.3513 -0.4701
vn 0.9466 0.2782 -0.1628
vn 0.9066 0.2874 -0.3088
vn 0.8097 0.3513 -0.4701
vn 0.9066 0.2874 -0.3088
vn 0.8464 0.4525 -0.2808
vn 0.8097 0.3513 -0.4701
vn 0.9030 -0.0423 0.4275
vn 0.8626 0.2599 0.4339
vn 0.8097 0.3513 -0.4701
vn 0.8626 0.2599 0.4339
vn 0.9466 0.2782 -0.1628
vn 0.5412 0.3314 0.7728
vn 0.4608 0.2710 0.8451
vn 0.5017 0.0886 0.8605
vn 0.4450 0.5361 0.7173
vn 0.4294 0.4249 0.7969
vn -0.2130 0.2340 0.9486
vn 0.4450 0.5361 0.7173
vn 0.3234 0.1543 0.9336
vn 0.4294 0.4249 0.7969
vn 0.4294 0.4249 0.7969
vn 0.2212 0.0407 0.9744
vn 0.1582 -0.1476 0.9763
vn 0.4294 0.4249 0.7969
vn 0.1582 -0.1476 0.9763
vn -0.2130 0.2340 0.9486
vn 0.4294 0.4249 0.7969
vn 0.4608 0.2710 0.8451
vn 0.2212 0.0407 0.9744
vn 0.4294 0.4249 0.7969
vn 0.5017 0.0886 0.8605
vn 0.4608 0.2710 0.8451
vn 0.7380 0.6532 0.1697
vn 0.4637 0.8126 -0.3530
vn -0.0361 0.9991 0.0199
vn -0.3377 -0.4338 0.8353
vn -0.4289 0.0524 0.9018
vn -0.7845 -0.1657 0.5976
vn 0.8626 0.2599 0.4339
vn 0.6609 0.3984 0.6359
vn 0.9906 0.1099 0.0820
vn 0.8626 0.2599 0.4339
vn 0.9906 0.1099 0.0820
vn 0.9466 0.2782 -0.1628
vn -0.5118 -0.8566 -0.0651
vn -0.9642 -0.2458 0.0997
vn -0.4929 -0.5554 -0.6697
vn -0.5118 -0.8566 -0.0651
vn -0.4929 -0.5554 -0.6697
vn -0.2869 -0.7934 -0.5369
vn -0.5118 -0.8566 -0.0651
vn -0.2869 -0.7934 -0.5369
vn -0.7572 -0.6420 0.1202
vn -0.5118 -0.8566 -0.0651
vn -0.7572 -0.6420 0.1202
vn -0.7161 -0.5844 0.3816
vn -0.5118 -0.8566 -0.0651
vn -0.7161 -0.5844 0.3816
vn -0.9642 -0.2458 0.0997
vn -0.6978 -0.2735 0.6620
vn -0.6443 -0.7441 0.1764
vn -0.5336 -0.0120 0.8456
vn -0.6978 -0.2735 0.6620
vn -0.5336 -0.0120 0.8456
vn -0.3054 0.3416 0.8888
vn -0.6978 -0.2735 0.6620
vn -0.3054 0.3416 0.8888
vn 0.3234 0.1543 0.9336
vn -0.6978 -0.2735 0.6620
vn 0.3234 0.1543 0.9336
vn -0.4289 0.0524 0.9018
vn -0.3054 0.3416 0.8888
vn -0.5336 -0.0120 0.8456
vn 0.6069 0.0168 0.7946
vn -0.3054 0.3416 0.8888
vn 0.6069 0.0168 0.7946
vn 0.3859 0.7215 0.5750
vn -0.3054 0.3416 0.8888
vn 0.5035 0.5717 0.6478
vn 0.4294 0.4249 0.7969
vn -0.3054 0.3416 0.8888
vn 0.4294 0.4249 0.7969
vn 0.3234 0.1543 0.9336
vn -0.3054 0.3416 0.8888
vn 0.3859 0.7215 0.5750
vn 0.5035 0.5717 0.6478
vn -0.7572 -0.6420 0.1202
vn -0.8038 -0.5114 0.3038
vn -0.7161 -0.5844 0.3816
vn -0.5336 -0.0120 0.8456
vn -0.6443 -0.7441 0.1764
vn 0.5726 -0.7553 0.3188
vn -0.5336 -0.0120 0.8456
vn 0.5726 -0.7553 0.3188
vn 0.6069 0.0168 0.7946
vn 0.3859 0.7215 0.5750
vn 0.6069 0.0168 0.7946
vn 0.8234 0.1095 0.5568
vn 0.8234 0.1095 0.5568
vn 0.6530 0.1614 0.7400
vn 0.5559 0.4588 0.6931
vn 0.4787 -0.2076 0.8530
vn 0.5559 0.4588 0.6931
vn 0.6530 0.1614 0.7400
vn 0.4787 -0.2076 0.8530
vn 0.3686 0.0739 0.9266
vn 0.6609 0.3984 0.6359
vn 0.4787 -0.2076 0.8530
vn 0.6609 0.3984 0.6359
vn 0.5559 0.4588 0.6931
vn 0.4787 -0.2076 0.8530
vn 0.3964 -0.5164 0.7591
vn 0.3686 0.0739 0.9266
vn 0.4787 -0.2076 0.8530
vn 0.6530 0.1614 0.7400
vn 0.7361 -0.2268 0.6377
vn 0.4787 -0.2076 0.8530
vn 0.7361 -0.2268 0.6377
vn 0.3964 -0.5164 0.7591
vn 0.1612 -0.8281 0.5369
vn 0.5726 -0.7553 0.3188
vn -0.6443 -0.7441 0.1764
vn 0.1612 -0.8281 0.5369
vn -0.6443 -0.7441 0.1764
vn -0.6978 -0.2735 0.6620
vn 0.1612 -0.8281 0.5369
vn 0.5801 -0.4264 0.6941
vn 0.6530 0.1614 0.7400
vn 0.1612 -0.8281 0.5369
vn 0.6530 0.1614 0.7400
vn 0.8234 0.1095 0.5568
vn 0.1612 -0.8281 0.5369
vn 0.1310 -0.7746 0.6188
vn 0.5801 -0.4264 0.6941
vn 0.1612 -0.8281 0.5369
vn -0.6978 -0.2735 0.6620
vn -0.4288 -0.5489 0.7175
vn 0.1612 -0.8281 0.5369
vn -0.4288 -0.5489 0.7175
vn -0.5976 -0.5479 0.5854
vn 0.1612 -0.8281 0.5369
vn -0.5976 -0.5479 0.5854
vn 0.1310 -0.7746 0.6188
vn 0.3964 -0.5164 0.7591
vn 0.5893 -0.4685 0.6582
vn 0.3686 0.0739 0.9266
vn 0.8723 -0.4665 0.1467
vn 0.9407 -0.3037 -0.1513
vn 0.6419 -0.5566 0.5274
vn 0.9407 -0.3037 -0.1513
vn 0.3546 -0.8610 -0.3647
vn 0.6419 -0.5566 0.5274
vn 0.8723 -0.4665 0.1467
vn 0.9760 -0.1683 -0.1383
vn 0.9407 -0.3037 -0.1513
vn 0.8723 -0.4665 0.1467
vn 0.6419 -0.5566 0.5274
vn 0.6146 -0.6906 0.3812
vn 0.3546 -0.8610 -0.3647
vn 0.9407 -0.3037 -0.1513
vn 0.9906 0.1099 0.0820
vn 0.3546 -0.8610 -0.3647
vn 0.9906 0.1099 0.0820
vn 0.5893 -0.4685 0.6582
vn 0.3546 -0.8610 -0.3647
vn 0.5893 -0.4685 0.6582
vn 0.3964 -0.5164 0.7591
vn 0.3546 -0.8610 -0.3647
vn 0.3964 -0.5164 0.7591
vn 0.6419 -0.5566 0.5274
vn 0.6419 -0.5566 0.5274
vn 0.7361 -0.2268 0.6377
vn 0.5801 -0.4264 0.6941
vn 0.6419 -0.5566 0.5274
vn 0.3964 -0.5164 0.7591
vn 0.7361 -0.2268 0.6377
vn 0.6419 -0.5566 0.5274
vn 0.1310 -0.7746 0.6188
vn 0.2995 -0.8548 0.4238
vn 0.6419 -0.5566 0.5274
vn 0.5801 -0.4264 0.6941
vn 0.1310 -0.7746 0.6188
vn 0.5801 -0.4264 0.6941
vn 0.7361 -0.2268 0.6377
vn 0.6530 0.1614 0.7400
vn 0.6299 -0.7751 0.0498
vn 0.3960 -0.7933 -0.4625
vn 0.6095 -0.7331 -0.3017
vn -0.2033 -0.0104 0.9791
vn 0.4011 0.1006 0.9105
vn 0.4489 0.2712 0.8514
vn 0.4011 0.1006 0.9105
vn -0.2033 -0.0104 0.9791
vn 0.4297 -0.1396 0.8921
vn 0.4011 0.1006 0.9105
vn 0.4297 -0.1396 0.8921
vn 0.6083 0.2131 0.7645
vn 0.4011 0.1006 0.9105
vn 0.6083 0.2131 0.7645
vn 0.6510 0.3782 0.6581
vn 0.4011 0.1006 0.9105
vn 0.6510 0.3782 0.6581
vn 0.4489 0.2712 0.8514
vn 0.6083 0.2131 0.7645
vn 0.6176 0.3389 0.7098
vn 0.6510 0.3782 0.6581
vn 0.6176 0.3389 0.7098
vn 0.6619 0.3884 0.6412
vn 0.6878 0.3908 0.6117
vn 0.6176 0.3389 0.7098
vn 0.6878 0.3908 0.6117
vn 0.6510 0.3782 0.6581
vn 0.6878 0.3908 0.6117
vn 0.6619 0.3884 0.6412
vn 0.8230 0.3696 0.4314
vn 0.8230 0.3696 0.4314
vn 0.8511 0.5210 0.0651
vn 0.9356 0.2353 0.2631
vn 0.8230 0.3696 0.4314
vn 0.9356 0.2353 0.2631
vn 0.7610 0.2315 0.6061
vn 0.9356 0.2353 0.2631
vn 0.8511 0.5210 0.0651
vn 0.8343 0.5121 -0.2043
vn 0.9356 0.2353 0.2631
vn 0.8343 0.5121 -0.2043
vn 0.9425 0.1648 -0.2907
vn 0.9356 0.2353 0.2631
vn 0.9425 0.1648 -0.2907
vn 0.9719 0.1448 -0.1855
vn 0.5525 0.1455 -0.8207
vn 0.9425 0.1648 -0.2907
vn 0.6960 0.2212 -0.6831
vn 0.3373 0.1672 -0.9264
vn 0.6960 0.2212 -0.6831
vn 0.5464 0.2524 -0.7986
vn 0.5464 0.2524 -0.7986
vn 0.6960 0.2212 -0.6831
vn 0.5677 0.5041 -0.6509
vn 0.5464 0.2524 -0.7986
vn 0.5677 0.5041 -0.6509
vn 0.2990 0.4219 -0.8559
vn 0.5464 0.2524 -0.7986
vn 0.2990 0.4219 -0.8559
vn 0.5564 0.2796 -0.7825
vn 0.5464 0.2524 -0.7986
vn 0.5564 0.2796 -0.7825
vn 0.3373 0.1672 -0.9264
vn 0.5564 0.2796 -0.7825
vn 0.2990 0.4219 -0.8559
vn -0.0215 0.3917 -0.9198
vn 0.5564 0.2796 -0.7825
vn -0.0215 0.3917 -0.9198
vn 0.4909 0.1110 -0.8641
vn 0.5564 0.2796 -0.7825
vn 0.4909 0.1110 -0.8641
vn 0.7335 -0.1670 -0.6588
vn 0.2990 0.4219 -0.8559
vn 0.5677 0.5041 -0.6509
vn 0.4393 0.7081 -0.5528
vn 0.2990 0.4219 -0.8559
vn 0.4393 0.7081 -0.5528
vn 0.1256 0.7984 -0.5889
vn 0.2990 0.4219 -0.8559
vn 0.1256 0.7984 -0.5889
vn -0.0215 0.3917 -0.9198
vn 0.4393 0.7081 -0.5528
vn 0.6822 0.6437 -0.3466
vn 0.6675 0.5701 -0.4790
vn 0.4393 0.7081 -0.5528
vn 0.6675 0.5701 -0.4790
vn 0.5779 0.6935 -0.4301
vn 0.4393 0.7081 -0.5528
vn 0.5779 0.6935 -0.4301
vn 0.1256 0.7984 -0.5889
vn 0.4393 0.7081 -0.5528
vn 0.5677 0.5041 -0.6509
vn 0.6822 0.6437 -0.3466
vn 0.5779 0.6935 -0.4301
vn 0.6675 0.5701 -0.4790
vn 0.4995 0.5241 -0.6898
vn 0.5779 0.6935 -0.4301
vn 0.4995 0.5241 -0.6898
vn -0.1313 0.6105 -0.7811
vn 0.5779 0.6935 -0.4301
vn -0.1313 0.6105 -0.7811
vn 0.1256 0.7984 -0.5889
vn 0.4995 0.5241 -0.6898
vn 0.8109 0.1085 -0.5750
vn 0.3438 0.3257 -0.8807
vn 0.4995 0.5241 -0.6898
vn 0.3438 0.3257 -0.8807
vn -0.1741 0.4392 -0.8814
vn 0.4995 0.5241 -0.6898
vn -0.1741 0.4392 -0.8814
vn -0.1313 0.6105 -0.7811
vn -0.1741 0.4392 -0.8814
vn 0.3438 0.3257 -0.8807
vn -0.2091 0.4619 -0.8620
vn -0.1741 0.4392 -0.8814
vn -0.2091 0.4619 -0.8620
vn -0.3088 0.4574 -0.8339
vn -0.1741 0.4392 -0.8814
vn -0.3088 0.4574 -0.8339
vn -0.2091 0.7109 -0.6715
vn -0.1741 0.4392 -0.8814
vn -0.2091 0.7109 -0.6715
vn -0.1313 0.6105 -0.7811
vn -0.3088 0.4574 -0.8339
vn -0.2091 0.4619 -0.8620
vn -0.5698 0.3994 -0.7182
vn -0.3088 0.4574 -0.8339
vn -0.5698 0.3994 -0.7182
vn -0.6082 0.3751 -0.6996
vn -0.3088 0.4574 -0.8339
vn -0.6082 0.3751 -0.6996
vn -0.2091 0.7109 -0.6715
vn -0.6082 0.3751 -0.6996
vn -0.5698 0.3994 -0.7182
vn -0.6820 0.3594 -0.6370
vn -0.6082 0.3751 -0.6996
vn -0.6820 0.3594 -0.6370
vn -0.7504 0.3318 -0.5717
vn -0.6082 0.3751 -0.6996
vn -0.7504 0.3318 -0.5717
vn -0.6641 0.4460 -0.6001
vn -0.6641 0.4460 -0.6001
vn -0.7504 0.3318 -0.5717
vn -0.5744 0.3456 -0.7420
vn -0.6641 0.4460 -0.6001
vn -0.5744 0.3456 -0.7420
vn -0.7186 0.4262 -0.5496
vn -0.6641 0.4460 -0.6001
vn -0.7186 0.4262 -0.5496
vn -0.7271 0.5572 -0.4011
vn -0.6641 0.4460 -0.6001
vn -0.7271 0.5572 -0.4011
vn -0.7337 0.5304 -0.4247
vn -0.6641 0.4460 -0.6001
vn -0.7337 0.5304 -0.4247
vn -0.6080 0.5799 -0.5423
vn -0.6641 0.4460 -0.6001
vn -0.6080 0.5799 -0.5423
vn -0.6082 0.3751 -0.6996
vn -0.7186 0.4262 -0.5496
vn -0.5744 0.3456 -0.7420
vn -0.8429 0.1822 -0.5063
vn -0.7186 0.4262 -0.5496
vn -0.8429 0.1822 -0.5063
vn -0.7901 0.3550 -0.4998
vn -0.7186 0.4262 -0.5496
vn -0.7901 0.3550 -0.4998
vn -0.7762 0.4929 -0.3931
vn -0.7186 0.4262 -0.5496
vn -0.7762 0.4929 -0.3931
vn -0.7271 0.5572 -0.4011
vn -0.7901 0.3550 -0.4998
vn -0.8429 0.1822 -0.5063
vn -0.8346 0.1265 -0.5361
vn -0.7901 0.3550 -0.4998
vn -0.8346 0.1265 -0.5361
vn -0.6791 0.4008 -0.6150
vn -0.7901 0.3550 -0.4998
vn -0.6791 0.4008 -0.6150
vn -0.7762 0.4929 -0.3931
vn -0.6791 0.4008 -0.6150
vn -0.8346 0.1265 -0.5361
vn -0.7903 -0.1475 -0.5947
vn -0.6791 0.4008 -0.6150
vn -0.7903 -0.1475 -0.5947
vn -0.9247 0.1321 -0.3570
vn -0.6791 0.4008 -0.6150
vn -0.9247 0.1321 -0.3570
vn -0.8864 0.4623 0.0216
vn -0.6791 0.4008 -0.6150
vn -0.8864 0.4623 0.0216
vn -0.7762 0.4929 -0.3931
vn -0.9247 0.1321 -0.3570
vn -0.7903 -0.1475 -0.5947
vn -0.4929 -0.5554 -0.6697
vn -0.9247 0.1321 -0.3570
vn -0.4929 -0.5554 -0.6697
vn -0.9642 -0.2458 0.0997
vn -0.9247 0.1321 -0.3570
vn -0.9642 -0.2458 0.0997
vn -0.9678 0.0850 0.2369
vn -0.9247 0.1321 -0.3570
vn -0.9678 0.0850 0.2369
vn -0.8864 0.4623 0.0216
vn -0.7903 -0.1475 -0.5947
vn -0.8346 0.1265 -0.5361
vn -0.9403 -0.1412 -0.3098
vn -0.7903 -0.1475 -0.5947
vn -0.9403 -0.1412 -0.3098
vn -0.2869 -0.7934 -0.5369
vn -0.7903 -0.1475 -0.5947
vn -0.2869 -0.7934 -0.5369
vn -0.4929 -0.5554 -0.6697
vn -0.9403 -0.1412 -0.3098
vn -0.9829 0.1065 -0.1501
vn -0.9869 0.0713 -0.1445
vn -0.9403 -0.1412 -0.3098
vn -0.9869 0.0713 -0.1445
vn -0.7572 -0.6420 0.1202
vn -0.9403 -0.1412 -0.3098
vn -0.7572 -0.6420 0.1202
vn -0.2869 -0.7934 -0.5369
vn -0.7699 -0.5380 0.3433
vn -0.8038 -0.5114 0.3038
vn -0.7572 -0.6420 0.1202
vn -0.7699 -0.5380 0.3433
vn -0.5346 -0.6816 0.4996
vn -0.3130 -0.6814 0.6617
vn -0.7699 -0.5380 0.3433
vn -0.3130 -0.6814 0.6617
vn -0.8457 -0.4486 0.2889
vn -0.7699 -0.5380 0.3433
vn -0.8457 -0.4486 0.2889
vn -0.8993 -0.3084 0.3100
vn -0.7699 -0.5380 0.3433
vn -0.8993 -0.3084 0.3100
vn -0.8038 -0.5114 0.3038
vn -0.8993 -0.3084 0.3100
vn -0.8522 -0.3547 0.3846
vn -0.7161 -0.5844 0.3816
vn -0.8993 -0.3084 0.3100
vn -0.7161 -0.5844 0.3816
vn -0.8038 -0.5114 0.3038
vn -0.8993 -0.3084 0.3100
vn -0.8457 -0.4486 0.2889
vn -0.7845 -0.1657 0.5976
vn -0.8993 -0.3084 0.3100
vn -0.7828 -0.1566 0.6022
vn -0.8522 -0.3547 0.3846
vn -0.8522 -0.3547 0.3846
vn -0.9642 -0.2458 0.0997
vn -0.7161 -0.5844 0.3816
vn -0.8522 -0.3547 0.3846
vn -0.7828 -0.1566 0.6022
vn -0.9652 0.0180 0.2608
vn -0.8522 -0.3547 0.3846
vn -0.9678 0.0850 0.2369
vn -0.9642 -0.2458 0.0997
vn -0.8522 -0.3547 0.3846
vn -0.9652 0.0180 0.2608
vn -0.9678 0.0850 0.2369
vn -0.8457 -0.4486 0.2889
vn -0.3130 -0.6814 0.6617
vn -0.3377 -0.4338 0.8353
vn -0.8457 -0.4486 0.2889
vn -0.3377 -0.4338 0.8353
vn -0.7845 -0.1657 0.5976
vn -0.3130 -0.6814 0.6617
vn -0.5346 -0.6816 0.4996
vn -0.3917 -0.6762 0.6240
vn -0.3130 -0.6814 0.6617
vn -0.3917 -0.6762 0.6240
vn -0.3443 -0.5896 0.7306
vn -0.3130 -0.6814 0.6617
vn -0.3443 -0.5896 0.7306
vn -0.3377 -0.4338 0.8353
vn -0.3443 -0.5896 0.7306
vn -0.3917 -0.6762 0.6240
vn -0.2163 -0.8269 0.5191
vn -0.3443 -0.5896 0.7306
vn -0.2163 -0.8269 0.5191
vn -0.5976 -0.5479 0.5854
vn -0.3443 -0.5896 0.7306
vn -0.5976 -0.5479 0.5854
vn -0.4288 -0.5489 0.7175
vn -0.3443 -0.5896 0.7306
vn -0.4288 -0.5489 0.7175
vn -0.3377 -0.4338 0.8353
vn -0.2163 -0.8269 0.5191
vn 0.1310 -0.7746 0.6188
vn -0.5976 -0.5479 0.5854
vn 0.9427 -0.3263 0.0696
vn 0.9760 -0.1683 -0.1383
vn 0.8723 -0.4665 0.1467
vn 0.9427 -0.3263 0.0696
vn 0.9569 -0.1426 -0.2530
vn 0.9760 -0.1683 -0.1383
vn 0.9569 -0.1426 -0.2530
vn 0.9689 -0.0476 -0.2430
vn 0.8414 0.1269 -0.5252
vn 0.9569 -0.1426 -0.2530
vn 0.8414 0.1269 -0.5252
vn 0.9439 -0.0386 -0.3279
vn 0.9569 -0.1426 -0.2530
vn 0.9439 -0.0386 -0.3279
vn 0.8929 0.0101 -0.4501
vn 0.9569 -0.1426 -0.2530
vn 0.8929 0.0101 -0.4501
vn 0.9760 -0.1683 -0.1383
vn 0.8929 0.0101 -0.4501
vn 0.9439 -0.0386 -0.3279
vn 0.9229 0.1059 -0.3702
vn 0.8929 0.0101 -0.4501
vn 0.9229 0.1059 -0.3702
vn 0.8934 0.1392 -0.4272
vn 0.8929 0.0101 -0.4501
vn 0.8934 0.1392 -0.4272
vn 0.9760 -0.1683 -0.1383
vn 0.8934 0.1392 -0.4272
vn 0.9229 0.1059 -0.3702
vn 0.9066 0.2874 -0.3088
vn 0.8934 0.1392 -0.4272
vn 0.9066 0.2874 -0.3088
vn 0.9466 0.2782 -0.1628
vn 0.8934 0.1392 -0.4272
vn 0.9466 0.2782 -0.1628
vn 0.9906 0.1099 0.0820
vn 0.8934 0.1392 -0.4272
vn 0.9906 0.1099 0.0820
vn 0.9760 -0.1683 -0.1383
vn 0.9229 0.1059 -0.3702
vn 0.9439 -0.0386 -0.3279
vn 0.8993 0.1076 -0.4240
vn 0.9229 0.1059 -0.3702
vn 0.8993 0.1076 -0.4240
vn 0.7569 0.5824 -0.2963
vn 0.9229 0.1059 -0.3702
vn 0.7569 0.5824 -0.2963
vn 0.9066 0.2874 -0.3088
vn 0.8993 0.1076 -0.4240
vn 0.6067 0.3543 -0.7116
vn 0.7098 0.4307 -0.5574
vn 0.8993 0.1076 -0.4240
vn 0.7098 0.4307 -0.5574
vn 0.7569 0.5824 -0.2963
vn 0.6067 0.3543 -0.7116
vn 0.6537 0.2589 -0.7111
vn 0.7814 0.2021 -0.5904
vn 0.6067 0.3543 -0.7116
vn 0.7814 0.2021 -0.5904
vn 0.7098 0.4307 -0.5574
vn 0.7814 0.2021 -0.5904
vn 0.6537 0.2589 -0.7111
vn 0.8735 0.2053 -0.4414
vn 0.7814 0.2021 -0.5904
vn 0.8735 0.2053 -0.4414
vn 0.6429 0.5102 -0.5713
vn 0.7814 0.2021 -0.5904
vn 0.6429 0.5102 -0.5713
vn 0.7098 0.4307 -0.5574
vn 0.8735 0.2053 -0.4414
vn 0.6537 0.2589 -0.7111
vn 0.8109 0.1085 -0.5750
vn 0.8735 0.2053 -0.4414
vn 0.8109 0.1085 -0.5750
vn 0.4995 0.5241 -0.6898
vn 0.8735 0.2053 -0.4414
vn 0.4995 0.5241 -0.6898
vn 0.6675 0.5701 -0.4790
vn 0.8735 0.2053 -0.4414
vn 0.6675 0.5701 -0.4790
vn 0.6429 0.5102 -0.5713
vn 0.6537 0.2589 -0.7111
vn 0.6742 0.3926 -0.6255
vn 0.7814 0.2334 -0.5787
vn 0.6537 0.2589 -0.7111
vn 0.7814 0.2334 -0.5787
vn 0.8109 0.1085 -0.5750
vn 0.7814 0.2334 -0.5787
vn 0.8444 0.2869 -0.4524
vn 0.5385 0.4879 -0.6870
vn 0.7814 0.2334 -0.5787
vn 0.5385 0.4879 -0.6870
vn 0.1925 0.5400 -0.8194
vn 0.7814 0.2334 -0.5787
vn 0.1925 0.5400 -0.8194
vn 0.3438 0.3257 -0.8807
vn 0.7814 0.2334 -0.5787
vn 0.3438 0.3257 -0.8807
vn 0.8109 0.1085 -0.5750
vn 0.1925 0.5400 -0.8194
vn -0.0733 0.5207 -0.8506
vn -0.2091 0.4619 -0.8620
vn 0.1925 0.5400 -0.8194
vn -0.2091 0.4619 -0.8620
vn 0.3438 0.3257 -0.8807
vn -0.0733 0.5207 -0.8506
vn -0.4915 0.4740 -0.7306
vn -0.2091 0.4619 -0.8620
vn -0.4915 0.4740 -0.7306
vn -0.5698 0.3994 -0.7182
vn -0.2091 0.4619 -0.8620
vn -0.4915 0.4740 -0.7306
vn -0.6622 0.4638 -0.5886
vn -0.6820 0.3594 -0.6370
vn -0.4915 0.4740 -0.7306
vn -0.6820 0.3594 -0.6370
vn -0.5698 0.3994 -0.7182
vn -0.6820 0.3594 -0.6370
vn -0.6622 0.4638 -0.5886
vn -0.7914 0.2809 -0.5429
vn -0.6820 0.3594 -0.6370
vn -0.7914 0.2809 -0.5429
vn -0.8429 0.1822 -0.5063
vn -0.6820 0.3594 -0.6370
vn -0.8429 0.1822 -0.5063
vn -0.5744 0.3456 -0.7420
vn -0.6820 0.3594 -0.6370
vn -0.5744 0.3456 -0.7420
vn -0.7504 0.3318 -0.5717
vn -0.7914 0.2809 -0.5429
vn -0.9829 0.1065 -0.1501
vn -0.9403 -0.1412 -0.3098
vn -0.7914 0.2809 -0.5429
vn -0.9403 -0.1412 -0.3098
vn -0.8346 0.1265 -0.5361
vn -0.7914 0.2809 -0.5429
vn -0.8346 0.1265 -0.5361
vn -0.8429 0.1822 -0.5063
vn 0.7773 0.3202 -0.5415
vn 0.8444 0.2869 -0.4524
vn 0.7814 0.2334 -0.5787
vn 0.7773 0.3202 -0.5415
vn 0.7814 0.2334 -0.5787
vn 0.6742 0.3926 -0.6255
vn 0.7773 0.3202 -0.5415
vn 0.6742 0.3926 -0.6255
vn 0.6501 0.3383 -0.6804
vn 0.7773 0.3202 -0.5415
vn 0.6501 0.3383 -0.6804
vn 0.9316 0.0650 -0.3575
vn 0.6501 0.3383 -0.6804
vn 0.9709 0.0349 -0.2369
vn 0.9316 0.0650 -0.3575
vn 0.6501 0.3383 -0.6804
vn 0.6742 0.3926 -0.6255
vn 0.6537 0.2589 -0.7111
vn 0.6501 0.3383 -0.6804
vn 0.6537 0.2589 -0.7111
vn 0.6067 0.3543 -0.7116
vn 0.6501 0.3383 -0.6804
vn 0.6067 0.3543 -0.7116
vn 0.8993 0.1076 -0.4240
vn 0.6501 0.3383 -0.6804
vn 0.8993 0.1076 -0.4240
vn 0.9709 0.0349 -0.2369
vn 0.9709 0.0349 -0.2369
vn 0.9365 -0.1636 -0.3100
vn 0.9689 -0.0476 -0.2430
vn 0.6960 0.2212 -0.6831
vn 0.9425 0.1648 -0.2907
vn 0.5677 0.5041 -0.6509
vn 0.9425 0.1648 -0.2907
vn 0.8343 0.5121 -0.2043
vn 0.5677 0.5041 -0.6509
vn 0.8511 0.5210 0.0651
vn 0.8230 0.3696 0.4314
vn 0.4891 0.8380 0.2418
vn 0.8511 0.5210 0.0651
vn 0.4891 0.8380 0.2418
vn 0.6822 0.6437 -0.3466
vn 0.8511 0.5210 0.0651
vn 0.6822 0.6437 -0.3466
vn 0.8343 0.5121 -0.2043
vn 0.8230 0.3696 0.4314
vn 0.6619 0.3884 0.6412
vn 0.3905 0.6451 0.6568
vn 0.8230 0.3696 0.4314
vn 0.3905 0.6451 0.6568
vn 0.4891 0.8380 0.2418
vn 0.6619 0.3884 0.6412
vn 0.6176 0.3389 0.7098
vn 0.5412 0.3314 0.7728
vn 0.6619 0.3884 0.6412
vn 0.5412 0.3314 0.7728
vn 0.3905 0.6451 0.6568
vn 0.6176 0.3389 0.7098
vn 0.6083 0.2131 0.7645
vn 0.4608 0.2710 0.8451
vn 0.6176 0.3389 0.7098
vn 0.4608 0.2710 0.8451
vn 0.5412 0.3314 0.7728
vn 0.6083 0.2131 0.7645
vn 0.4297 -0.1396 0.8921
vn 0.2212 0.0407 0.9744
vn 0.6083 0.2131 0.7645
vn 0.2212 0.0407 0.9744
vn 0.4608 0.2710 0.8451
vn 0.4297 -0.1396 0.8921
vn 0.1582 -0.1476 0.9763
vn 0.2212 0.0407 0.9744
vn 0.4297 -0.1396 0.8921
vn 0.0322 -0.4346 0.9001
vn 0.0241 -0.4272 0.9038
vn 0.4297 -0.1396 0.8921
vn 0.0241 -0.4272 0.9038
vn 0.1582 -0.1476 0.9763
vn 0.4297 -0.1396 0.8921
vn -0.2033 -0.0104 0.9791
vn -0.1462 -0.1724 0.9741
vn 0.4297 -0.1396 0.8921
vn -0.1462 -0.1724 0.9741
vn 0.0322 -0.4346 0.9001
vn 0.0241 -0.4272 0.9038
vn -0.5392 -0.1506 0.8286
vn -0.2130 0.2340 0.9486
vn 0.0241 -0.4272 0.9038
vn -0.2130 0.2340 0.9486
vn 0.1582 -0.1476 0.9763
vn 0.0241 -0.4272 0.9038
vn 0.0322 -0.4346 0.9001
vn -0.4928 -0.5400 0.6823
vn 0.0241 -0.4272 0.9038
vn -0.4928 -0.5400 0.6823
vn -0.5392 -0.1506 0.8286
vn -0.4928 -0.5400 0.6823
vn -0.6980 -0.5174 0.4951
vn -0.5392 -0.1506 0.8286
vn -0.4928 -0.5400 0.6823
vn 0.0322 -0.4346 0.9001
vn -0.1462 -0.1724 0.9741
vn -0.4928 -0.5400 0.6823
vn -0.6405 -0.4277 0.6379
vn -0.6980 -0.5174 0.4951
vn -0.6405 -0.4277 0.6379
vn -0.7382 -0.4875 0.4663
vn -0.5989 -0.7057 0.3785
vn -0.6405 -0.4277 0.6379
vn -0.5989 -0.7057 0.3785
vn -0.6980 -0.5174 0.4951
vn -0.6405 -0.4277 0.6379
vn -0.4928 -0.5400 0.6823
vn -0.5403 -0.2040 0.8164
vn -0.6405 -0.4277 0.6379
vn -0.5403 -0.2040 0.8164
vn -0.7044 -0.2999 0.6434
vn -0.6405 -0.4277 0.6379
vn -0.7044 -0.2999 0.6434
vn -0.7931 -0.3647 0.4879
vn -0.6405 -0.4277 0.6379
vn -0.7931 -0.3647 0.4879
vn -0.7382 -0.4875 0.4663
vn -0.7931 -0.3647 0.4879
vn -0.8682 -0.4672 0.1674
vn -0.7497 -0.6397 0.1694
vn -0.7931 -0.3647 0.4879
vn -0.7497 -0.6397 0.1694
vn -0.7382 -0.4875 0.4663
vn -0.7931 -0.3647 0.4879
vn -0.7044 -0.2999 0.6434
vn -0.6817 -0.0266 0.7311
vn -0.8682 -0.4672 0.1674
vn -0.7931 -0.3647 0.4879
vn -0.7491 -0.2909 0.5952
vn -0.8682 -0.4672 0.1674
vn -0.7491 -0.2909 0.5952
vn -0.8469 -0.5119 0.1439
vn -0.8682 -0.4672 0.1674
vn -0.8469 -0.5119 0.1439
vn -0.8064 -0.5763 -0.1327
vn -0.8682 -0.4672 0.1674
vn -0.8064 -0.5763 -0.1327
vn -0.8772 -0.4529 -0.1591
vn -0.8064 -0.5763 -0.1327
vn -0.7197 -0.5448 -0.4304
vn -0.8772 -0.4529 -0.1591
vn -0.8064 -0.5763 -0.1327
vn -0.8469 -0.5119 0.1439
vn -0.4159 -0.8968 0.1508
vn -0.8064 -0.5763 -0.1327
vn -0.4159 -0.8968 0.1508
vn -0.2752 -0.8862 -0.3727
vn -0.8064 -0.5763 -0.1327
vn -0.2752 -0.8862 -0.3727
vn -0.7197 -0.5448 -0.4304
vn -0.4159 -0.8968 0.1508
vn -0.8469 -0.5119 0.1439
vn -0.7491 -0.2909 0.5952
vn 0.3529 -0.9301 -0.1019
vn 0.9091 -0.4132 -0.0539
vn 0.6936 -0.6098 -0.3835
vn 0.3529 -0.9301 -0.1019
vn 0.6936 -0.6098 -0.3835
vn 0.4755 -0.7428 -0.4714
vn 0.3529 -0.9301 -0.1019
vn 0.4755 -0.7428 -0.4714
vn 0.2294 -0.8557 -0.4638
vn -0.7491 -0.2909 0.5952
vn -0.7931 -0.3647 0.4879
vn -0.6817 -0.0266 0.7311
vn -0.7497 -0.6397 0.1694
vn -0.5989 -0.7057 0.3785
vn -0.7382 -0.4875 0.4663
vn -0.7497 -0.6397 0.1694
vn -0.8682 -0.4672 0.1674
vn -0.8772 -0.4529 -0.1591
vn -0.7497 -0.6397 0.1694
vn -0.8772 -0.4529 -0.1591
vn -0.7144 -0.6924 -0.1012
vn -0.7497 -0.6397 0.1694
vn -0.7144 -0.6924 -0.1012
vn -0.8989 -0.4377 -0.0180
vn -0.7497 -0.6397 0.1694
vn -0.8989 -0.4377 -0.0180
vn -0.7710 -0.5247 0.3609
vn -0.7497 -0.6397 0.1694
vn -0.7710 -0.5247 0.3609
vn -0.5989 -0.7057 0.3785
vn -0.7144 -0.6924 -0.1012
vn -0.5267 -0.8246 -0.2064
vn -0.3948 -0.6242 -0.6741
vn -0.7144 -0.6924 -0.1012
vn -0.3948 -0.6242 -0.6741
vn -0.8989 -0.4377 -0.0180
vn -0.5267 -0.8246 -0.2064
vn -0.1590 -0.6557 -0.7381
vn -0.3948 -0.6242 -0.6741
vn -0.7044 -0.2999 0.6434
vn -0.5403 -0.2040 0.8164
vn -0.6817 -0.0266 0.7311
vn -0.5403 -0.2040 0.8164
vn -0.4928 -0.5400 0.6823
vn -0.1462 -0.1724 0.9741
vn -0.5403 -0.2040 0.8164
vn -0.1462 -0.1724 0.9741
vn -0.2033 -0.0104 0.9791
vn -0.5403 -0.2040 0.8164
vn -0.2033 -0.0104 0.9791
vn -0.2117 0.2506 0.9446
vn -0.5989 -0.7057 0.3785
vn -0.7710 -0.5247 0.3609
vn -0.6980 -0.5174 0.4951
vn -0.6980 -0.5174 0.4951
vn -0.7710 -0.5247 0.3609
vn -0.7461 -0.0628 0.6628
vn -0.6980 -0.5174 0.4951
vn -0.7461 -0.0628 0.6628
vn -0.5392 -0.1506 0.8286
vn -0.2130 0.2340 0.9486
vn -0.5392 -0.1506 0.8286
vn -0.4364 0.2305 0.8698
vn -0.2130 0.2340 0.9486
vn -0.4364 0.2305 0.8698
vn 0.4450 0.5361 0.7173
vn -0.4364 0.2305 0.8698
vn -0.5392 -0.1506 0.8286
vn -0.4289 0.0524 0.9018
vn -0.4364 0.2305 0.8698
vn -0.4289 0.0524 0.9018
vn 0.3234 0.1543 0.9336
vn -0.4364 0.2305 0.8698
vn 0.3234 0.1543 0.9336
vn 0.4450 0.5361 0.7173
vn 0.9760 -0.1683 -0.1383
vn 0.9906 0.1099 0.0820
vn 0.9407 -0.3037 -0.1513
vn 0.5893 -0.4685 0.6582
vn 0.9906 0.1099 0.0820
vn 0.6609 0.3984 0.6359
vn 0.5893 -0.4685 0.6582
vn 0.6609 0.3984 0.6359
vn 0.3686 0.0739 0.9266
vn -0.4288 -0.5489 0.7175
vn -0.6978 -0.2735 0.6620
vn -0.3377 -0.4338 0.8353
vn 0.5559 0.4588 0.6931
vn 0.6609 0.3984 0.6359
vn 0.8626 0.2599 0.4339
vn 0.5559 0.4588 0.6931
vn 0.8626 0.2599 0.4339
vn 0.4931 0.1781 0.8515
vn 0.4931 0.1781 0.8515
vn 0.5412 0.3314 0.7728
vn 0.5017 0.0886 0.8605
vn 0.4931 0.1781 0.8515
vn 0.5017 0.0886 0.8605
vn 0.4294 0.4249 0.7969
vn 0.4931 0.1781 0.8515
vn 0.4294 0.4249 0.7969
vn 0.5035 0.5717 0.6478
vn 0.4931 0.1781 0.8515
vn 0.8626 0.2599 0.4339
vn 0.9030 -0.0423 0.4275
vn 0.4931 0.1781 0.8515
vn 0.9030 -0.0423 0.4275
vn 0.5412 0.3314 0.7728
vn -0.6978 -0.2735 0.6620
vn -0.4289 0.0524 0.9018
vn -0.3377 -0.4338 0.8353
vn 0.7098 0.4307 -0.5574
vn 0.8126 0.4805 -0.3298
vn 0.8464 0.4525 -0.2808
vn 0.3905 0.6451 0.6568
vn 0.1535 0.6313 0.7602
vn -0.0361 0.9991 0.0199
vn 0.3905 0.6451 0.6568
vn -0.0361 0.9991 0.0199
vn 0.4891 0.8380 0.2418
vn -0.6080 0.5799 -0.5423
vn -0.7337 0.5304 -0.4247
vn -0.6818 0.3232 -0.6563
vn -0.6080 0.5799 -0.5423
vn -0.6818 0.3232 -0.6563
vn -0.2857 0.0354 -0.9577
vn 0.7948 -0.5948 0.1206
vn 0.6095 -0.7331 -0.3017
vn 0.6936 -0.6098 -0.3835
vn 0.7948 -0.5948 0.1206
vn 0.6936 -0.6098 -0.3835
vn 0.9186 -0.3872 -0.0788
vn 0.7948 -0.5948 0.1206
vn 0.6769 -0.6305 0.3799
vn 0.6095 -0.7331 -0.3017
vn 0.6095 -0.7331 -0.3017
vn 0.4114 -0.7834 -0.4659
vn 0.5675 -0.6996 -0.4342
vn 0.6095 -0.7331 -0.3017
vn 0.5675 -0.6996 -0.4342
vn 0.6936 -0.6098 -0.3835
vn 0.6095 -0.7331 -0.3017
vn 0.3960 -0.7933 -0.4625
vn 0.4114 -0.7834 -0.4659
vn -0.3948 -0.6242 -0.6741
vn -0.1590 -0.6557 -0.7381
vn -0.2857 0.0354 -0.9577
vn 0.0531 -0.1548 -0.9865
vn -0.1590 -0.6557 -0.7381
vn -0.6018 -0.3959 -0.6936
vn 0.0531 -0.1548 -0.9865
vn -0.6018 -0.3959 -0.6936
vn -0.4446 -0.5737 -0.6879
vn 0.0531 -0.1548 -0.9865
vn -0.4446 -0.5737 -0.6879
vn -0.1016 0.0109 -0.9948
vn 0.0531 -0.1548 -0.9865
vn -0.1016 0.0109 -0.9948
vn 0.3880 0.0618 -0.9196
vn 0.0531 -0.1548 -0.9865
vn 0.3880 0.0618 -0.9196
vn 0.4909 0.1110 -0.8641
vn 0.9091 -0.4132 -0.0539
vn 0.9186 -0.3872 -0.0788
vn 0.6936 -0.6098 -0.3835
vn 0.4186 -0.6846 -0.5968
vn 0.3953 -0.7999 -0.4515
vn 0.4755 -0.7428 -0.4714
vn 0.3580 0.2003 0.9120
vn 0.7380 0.6532 0.1697
vn -0.0361 0.9991 0.0199
vn 0.3580 0.2003 0.9120
vn -0.0361 0.9991 0.0199
vn 0.1535 0.6313 0.7602
vn 0.7380 0.6532 0.1697
vn 0.9030 -0.0423 0.4275
vn 0.8097 0.3513 -0.4701
vn 0.7380 0.6532 0.1697
vn 0.8097 0.3513 -0.4701
vn 0.4637 0.8126 -0.3530
vn 0.8234 0.1095 0.5568
vn 0.6069 0.0168 0.7946
vn 0.5726 -0.7553 0.3188
vn 0.8234 0.1095 0.5568
vn 0.5726 -0.7553 0.3188
vn 0.1612 -0.8281 0.5369
vn 0.9365 -0.1636 -0.3100
vn 0.8414 0.1269 -0.5252
vn 0.9689 -0.0476 -0.2430
vn 0.8234 0.1095 0.5568
vn 0.5559 0.4588 0.6931
vn 0.3859 0.7215 0.5750
vn 0.5559 0.4588 0.6931
vn 0.4931 0.1781 0.8515
vn 0.5035 0.5717 0.6478
vn 0.5559 0.4588 0.6931
vn 0.5035 0.5717 0.6478
vn 0.3859 0.7215 0.5750
vn 0.9709 0.0349 -0.2369
vn 0.8993 0.1076 -0.4240
vn 0.9439 -0.0386 -0.3279
vn 0.9709 0.0349 -0.2369
vn 0.9439 -0.0386 -0.3279
vn 0.9365 -0.1636 -0.3100
vn 0.9439 -0.0386 -0.3279
vn 0.8414 0.1269 -0.5252
vn 0.9365 -0.1636 -0.3100
f 1/1/1 2/2/2 3/3/3
f 4/4/4 5/5/5 6/6/6
f 7/7/7 8/8/8 9/9/9
f 10/10/10 11/11/11 12/12/12
f 13/13/13 14/14/14 15/15/15
f 16/16/16 17/17/17 18/18/18
f 19/19/19 20/20/20 21/21/21
f 22/22/22 23/23/23 24/24/24
f 25/25/25 26/26/26 27/27/27
f 28/28/28 29/29/29 30/30/30
f 31/31/31 32/32/32 33/33/33
f 34/34/34 35/35/35 36/36/36
f 37/37/37 38/38/38 39/39/39
f 40/40/40 41/41/41 42/42/42
f 43/43/43 44/44/44 45/45/45
f 46/46/46 47/47/47 48/48/48
f 49/49/49 50/50/50 51/51/51
f 52/52/52 53/53/53 54/54/54
f 55/55/55 56/56/56 57/57/57
f 58/58/58 59/59/59 60/60/60
f 61/61/61 62/62/62 63/63/63
f 64/64/64 65/65/65 66/66/66
f 67/67/67 68/68/68 69/69/69
f 70/70/70 71/71/71 72/72/72
f 73/73/73 74/74/74 75/75/75
f 76/76/76 77/77/77 78/78/78
f 79/79/79 80/80/80 81/81/81
f 82/82/82 83/83/83 84/84/84
f 85/85/85 86/86/86 87/87/87
f 88/88/88 89/89/89 90/90/90
f 91/91/91 92/92/92 93/93/93
f 94/94/94 95/95/95 96/96/96
f 97/97/97 98/98/98 99/99/99
f 100/100/100 101/101/101 102/102/102
f 103/103/103 104/104/104 105/105/105
f 106/106/106 107/107/107 108/108/108
f 109/109/109 110/110/110 111/111/111
f 112/112/112 113/113/113 114/114/114
f 115/115/115 116/116/116 117/117/117
f 118/118/118 119/119/119 120/120/120
f 121/121/121 122/122/122 123/123/123
f 124/124/124 125/125/125 126/126/126
f 127/127/127 128/128/128 129/129/129
f 130/130/130 131/131/131 132/132/132
f 133/133/133 134/134/134 135/135/135
f 136/136/136 137/137/137 138/138/138
f 139/139/139 140/140/140 141/141/141
f 142/142/142 143/143/143 144/144/144
f 145/145/145 146/146/146 147/147/147
f 148/148/148 149/149/149 150/150/150
f 151/151/151 152/152/152 153/153/153
f 154/154/154 155/155/155 156/156/156
f 157/157/157 158/158/158 159/159/159
f 160/160/160 161/161/161 162/162/162
f 163/163/163 164/164/164 165/165/165
f 166/166/166 167/167/167 168/168/168
f 169/169/169 170/170/170 171/171/171
f 172/172/172 173/173/173 174/174/174
f 175/175/175 176/176/176 177/177/177
f 178/178/178 179/179/179 180/180/180
f 181/181/181 182/182/182 183/183/183
f 184/184/184 185/185/185 186/186/186
f 187/187/187 188/188/188 189/189/189
f 190/190/190 191/191/191 192/192/192
f 193/193/193 194/194/194 195/195/195
f 196/196/196 197/197/197 198/198/198
f 199/199/199 200/200/200 201/201/201
f 202/202/202 203/203/203 204/204/204
f 205/205/205 206/206/206 207/207/207
f 208/208/208 209/209/209 210/210/210
f 211/211/211 212/212/212 213/213/213
f 214/214/214 215/215/215 216/216/216
f 217/217/217 218/218/218 219/219/219
f 220/220/220 221/221/221 222/222/222
f 223/223/223 224/224/224 225/225/225
f 226/226/226 227/227/227 228/228/228
f 229/229/229 230/230/230 231/231/231
f 232/232/232 233/233/233 234/234/234
f 235/235/235 236/236/236 237/237/237
f 238/238/238 239/239/239 240/240/240
f 241/241/241 242/242/242 243/243/243
f 244/244/244 245/245/245 246/246/246
f 247/247/247 248/248/248 249/249/249
f 250/250/250 251/251/251 252/252/252
f 253/253/253 254/254/254 255/255/255
f 256/256/256 257/257/257 258/258/258
f 259/259/259 260/260/260 261/261/261
f 262/262/262 263/263/263 264/264/264
f 265/265/265 266/266/266 267/267/267
f 268/268/268 269/269/269 270/270/270
f 271/271/271 272/272/272 273/273/273
f 274/274/274 275/275/275 276/276/276
f 277/277/277 278/278/278 279/279/279
f 280/280/280 281/281/281 282/282/282
f 283/283/283 284/284/284 285/285/285
f 286/286/286 287/287/287 288/288/288
f 289/289/289 290/290/290 291/291/291
f 292/292/292 293/293/293 294/294/294
f 295/295/295 296/296/296 297/297/297
f 298/298/298 299/299/299 300/300/300
f 301/301/301 302/302/302 303/303/303
f 304/304/304 305/305/305 306/306/306
f 307/307/307 308/308/308 309/309/309
f 310/310/310 311/311/311 312/312/312
f 313/313/313 314/314/314 315/315/315
f 316/316/316 317/317/317 318/318/318
f 319/319/319 320/320/320 321/321/321
f 322/322/322 323/323/323 324/324/324
f 325/325/325 326/326/326 327/327/327
f 328/328/328 329/329/329 330/330/330
f 331/331/331 332/332/332 333/333/333
f 334/334/334 335/335/335 336/336/336
f 337/337/337 338/338/338 339/339/339
f 340/340/340 341/341/341 342/342/342
f 343/343/343 344/344/344 345/345/345
f 346/346/346 347/347/347 348/348/348
f 349/349/349 350/350/350 351/351/351
f 352/352/352 353/353/353 354/354/354
f 355/355/355 356/356/356 357/357/357
f 358/358/358 359/359/359 360/360/360
f 361/361/361 362/362/362 363/363/363
f 364/364/364 365/365/365 366/366/366
f 367/367/367 368/368/368 369/369/369
f 370/370/370 371/371/371 372/372/372
f 373/373/373 374/374/374 375/375/375
f 376/376/376 377/377/377 378/378/378
f 379/379/379 380/380/380 381/381/381
f 382/382/382 383/383/383 384/384/384
f 385/385/385 386/386/386 387/387/387
f 388/388/388 389/389/389 390/390/390
f 391/391/391 392/392/392 393/393/393
f 394/394/394 395/395/395 396/396/396
f 397/397/397 398/398/398 399/399/399
f 400/400/400 401/401/401 402/402/402
f 403/403/403 404/404/404 405/405/405
f 406/406/406 407/407/407 408/408/408
f 409/409/409 410/410/410 411/411/411
f 412/412/412 413/413/413 414/414/414
f 415/415/415 416/416/416 417/417/417
f 418/418/418 419/419/419 420/420/420
f 421/421/421 422/422/422 423/423/423
f 424/424/424 425/425/425 426/426/426
f 427/427/427 428/428/428 429/429/429
f 430/430/430 431/431/431 432/432/432
f 433/433/433 434/434/434 435/435/435
f 436/436/436 437/437/437 438/438/438
f 439/439/439 440/440/440 441/441/441
f 442/442/442 443/443/443 444/444/444
f 445/445/445 446/446/446 447/447/447
f 448/448/448 449/449/449 450/450/450
f 451/451/451 452/452/452 453/453/453
f 454/454/454 455/455/455 456/456/456
f 457/457/457 458/458/458 459/459/459
f 460/460/460 461/461/461 462/462/462
f 463/463/463 464/464/464 465/465/465
f 466/466/466 467/467/467 468/468/468
f 469/469/469 470/470/470 471/471/471
f 472/472/472 473/473/473 474/474/474
f 475/475/475 476/476/476 477/477/477
f 478/478/478 479/479/479 480/480/480
f 481/481/481 482/482/482 483/483/483
f 484/484/484 485/485/485 486/486/486
f 487/487/487 488/488/488 489/489/489
f 490/490/490 491/491/491 492/492/492
f 493/493/493 494/494/494 495/495/495
f 496/496/496 497/497/497 498/498/498
f 499/499/499 500/500/500 501/501/501
f 502/502/502 503/503/503 504/504/504
f 505/505/505 506/506/506 507/507/507
f 508/508/508 509/509/509 510/510/510
f 511/511/511 512/512/512 513/513/513
f 514/514/514 515/515/515 516/516/516
f 517/517/517 518/518/518 519/519/519
f 520/520/520 521/521/521 522/522/522
f 523/523/523 524/524/524 525/525/525
f 526/526/526 527/527/527 528/528/528
f 529/529/529 530/530/530 531/531/531
f 532/532/532 533/533/533 534/534/534
f 535/535/535 536/536/536 537/537/537
f 538/538/538 539/539/539 540/540/540
f 541/541/541 542/542/542 543/543/543
f 544/544/544 545/545/545 546/546/546
f 547/547/547 548/548/548 549/549/549
f 550/550/550 551/551/551 552/552/552
f 553/553/553 554/554/554 555/555/555
f 556/556/556 557/557/557 558/558/558
f 559/559/559 560/560/560 561/561/561
f 562/562/562 563/563/563 564/564/564
f 565/565/565 566/566/566 567/567/567
f 568/568/568 569/569/569 570/570/570
f 571/571/571 572/572/572 573/573/573
f 574/574/574 575/575/575 576/576/576
f 577/577/577 578/578/578 579/579/579
f 580/580/580 581/581/581 582/582/582
f 583/583/583 584/584/584 585/585/585
f 586/586/586 587/587/587 588/588/588
f 589/589/589 590/590/590 591/591/591
f 592/592/592 593/593/593 594/594/594
f 595/595/595 596/596/596 597/597/597
f 598/598/598 599/599/599 600/600/600
f 601/601/601 602/602/602 603/603/603
f 604/604/604 605/605/605 606/606/606
f 607/607/607 608/608/608 609/609/609
f 610/610/610 611/611/611 612/612/612
f 613/613/613 614/614/614 615/615/615
f 616/616/616 617/617/617 618/618/618
f 619/619/619 620/620/620 621/621/621
f 622/622/622 623/623/623 624/624/624
f 625/625/625 626/626/626 627/627/627
f 628/628/628 629/629/629 630/630/630
f 631/631/631 632/632/632 633/633/633
f 634/634/634 635/635/635 636/636/636
f 637/637/637 638/638/638 639/639/639
f 640/640/640 641/641/641 642/642/642
f 643/643/643 644/644/644 645/645/645
f 646/646/646 647/647/647 648/648/648
f 649/649/649 650/650/650 651/651/651
f 652/652/652 653/653/653 654/654/654
f 655/655/655 656/656/656 657/657/657
f 658/658/658 659/659/659 660/660/660
f 661/661/661 662/662/662 663/663/663
f 664/664/664 665/665/665 666/666/666
f 667/667/667 668/668/668 669/669/669
f 670/670/670 671/671/671 672/672/672
f 673/673/673 674/674/674 675/675/675
f 676/676/676 677/677/677 678/678/678
f 679/679/679 680/680/680 681/681/681
f 682/682/682 683/683/683 684/684/684
f 685/685/685 686/686/686 687/687/687
f 688/688/688 689/689/689 690/690/690
f 691/691/691 692/692/692 693/693/693
f 694/694/694 695/695/695 696/696/696
f 697/697/697 698/698/698 699/699/699
f 700/700/700 701/701/701 702/702/702
f 703/703/703 704/704/704 705/705/705
f 706/706/706 707/707/707 708/708/708
f 709/709/709 710/710/710 711/711/711
f 712/712/712 713/713/713 714/714/714
f 715/715/715 716/716/716 717/717/717
f 718/718/718 719/719/719 720/720/720
f 721/721/721 722/722/722 723/723/723
f 724/724/724 725/725/725 726/726/726
f 727/727/727 728/728/728 729/729/729
f 730/730/730 731/731/731 732/732/732
f 733/733/733 734/734/734 735/735/735
f 736/736/736 737/737/737 738/738/738
f 739/739/739 740/740/740 741/741/741
f 742/742/742 743/743/743 744/744/744
f 745/745/745 746/746/746 747/747/747
f 748/748/748 749/749/749 750/750/750
f 751/751/751 752/752/752 753/753/753
f 754/754/754 755/755/755 756/756/756
f 757/757/757 758/758/758 759/759/759
f 760/760/760 761/761/761 762/762/762
f 763/763/763 764/764/764 765/765/765
f 766/766/766 767/767/767 768/768/768
f 769/769/769 770/770/770 771/771/771
f 772/772/772 773/773/773 774/774/774
f 775/775/775 776/776/776 777/777/777
f 778/778/778 779/779/779 780/780/780
f 781/781/781 782/782/782 783/783/783
f 784/784/784 785/785/785 786/786/786
f 787/787/787 788/788/788 789/789/789
f 790/790/790 791/791/791 792/792/792
f 793/793/793 794/794/794 795/795/795
f 796/796/796 797/797/797 798/798/798
f 799/799/799 800/800/800 801/801/801
f 802/802/802 803/803/803 804/804/804
f 805/805/805 806/806/806 807/807/807
f 808/808/808 809/809/809 810/810/810
f 811/811/811 812/812/812 813/813/813
f 814/814/814 815/815/815 816/816/816
f 817/817/817 818/818/818 819/819/819
f 820/820/820 821/821/821 822/822/822
f 823/823/823 824/824/824 825/825/825
f 826/826/826 827/827/827 828/828/828
f 829/829/829 830/830/830 831/831/831
f 832/832/832 833/833/833 834/834/834
f 835/835/835 836/836/836 837/837/837
f 838/838/838 839/839/839 840/840/840
f 841/841/841 842/842/842 843/843/843
f 844/844/844 845/845/845 846/846/846
f 847/847/847 848/848/848 849/849/849
f 850/850/850 851/851/851 852/852/852
f 853/853/853 854/854/854 855/855/855
f 856/856/856 857/857/857 858/858/858
f 859/859/859 860/860/860 861/861/861
f 862/862/862 863/863/863 864/864/864
f 865/865/865 866/866/866 867/867/867
f 868/868/868 869/869/869 870/870/870
f 871/871/871 872/872/872 873/873/873
f 874/874/874 875/875/875 876/876/876
f 877/877/877 878/878/878 879/879/879
f 880/880/880 881/881/881 882/882/882
f 883/883/883 884/884/884 885/885/885
f 886/886/886 887/887/887 888/888/888
f 889/889/889 890/890/890 891/891/891
f 892/892/892 893/893/893 894/894/894
f 895/895/895 896/896/896 897/897/897
f 898/898/898 899/899/899 900/900/900
f 901/901/901 902/902/902 903/903/903
f 904/904/904 905/905/905 906/906/906
f 907/907/907 908/908/908 909/909/909
f 910/910/910 911/911/911 912/912/912
f 913/913/913 914/914/914 915/915/915
f 916/916/916 917/917/917 918/918/918
f 919/919/919 920/920/920 921/921/921
f 922/922/922 923/923/923 924/924/924
f 925/925/925 926/926/926 927/927/927
f 928/928/928 929/929/929 930/930/930
f 931/931/931 932/932/932 933/933/933
f 934/934/934 935/935/935 936/936/936
f 937/937/937 938/938/938 939/939/939
f 940/940/940 941/941/941 942/942/942
f 943/943/943 944/944/944 945/945/945
f 946/946/946 947/947/947 948/948/948
f 949/949/949 950/950/950 951/951/951
f 952/952/952 953/953/953 954/954/954
f 955/955/955 956/956/956 957/957/957
f 958/958/958 959/959/959 960/960/960
f 961/961/961 962/962/962 963/963/963
f 964/964/964 965/965/965 966/966/966
f 967/967/967 968/968/968 969/969/969
f 970/970/970 971/971/971 972/972/972
f 973/973/973 974/974/974 975/975/975
f 976/976/976 977/977/977 978/978/978
f 979/979/979 980/980/980 981/981/981
f 982/982/982 983/983/983 984/984/984
f 985/985/985 986/986/986 987/987/987
f 988/988/988 989/989/989 990/990/990
f 991/991/991 992/992/992 993/993/993
f 994/994/994 995/995/995 996/996/996
f 997/997/997 998/998/998 999/999/999
f 1000/1000/1000 1001/1001/1001 1002/1002/1002
f 1003/1003/1003 1004/1004/1004 1005/1005/1005
f 1006/1006/1006 1007/1007/1007 1008/1008/1008
f 1009/1009/1009 1010/1010/1010 1011/1011/1011
f 1012/1012/1012 1013/1013/1013 1014/1014/1014
f 1015/1015/1015 1016/1016/1016 1017/1017/1017
f 1018/1018/1018 1019/1019/1019 1020/1020/1020
f 1021/1021/1021 1022/1022/1022 1023/1023/1023
f 1024/1024/1024 1025/1025/1025 1026/1026/1026
f 1027/1027/1027 1028/1028/1028 1029/1029/1029
f 1030/1030/1030 1031/1031/1031 1032/1032/1032
f 1033/1033/1033 1034/1034/1034 1035/1035/1035
f 1036/1036/1036 1037/1037/1037 1038/1038/1038
f 1039/1039/1039 1040/1040/1040 1041/1041/1041
f 1042/1042/1042 1043/1043/1043 1044/1044/1044
f 1045/1045/1045 1046/1046/1046 1047/1047/1047
f 1048/1048/1048 1049/1049/1049 1050/1050/1050
f 1051/1051/1051 1052/1052/1052 1053/1053/1053
f 1054/1054/1054 1055/1055/1055 1056/1056/1056
f 1057/1057/1057 1058/1058/1058 1059/1059/1059
f 1060/1060/1060 1061/1061/1061 1062/1062/1062
f 1063/1063/1063 1064/1064/1064 1065/1065/1065
f 1066/1066/1066 1067/1067/1067 1068/1068/1068
f 1069/1069/1069 1070/1070/1070 1071/1071/1071
f 1072/1072/1072 1073/1073/1073 1074/1074/1074
f 1075/1075/1075 1076/1076/1076 1077/1077/1077
f 1078/1078/1078 1079/1079/1079 1080/1080/1080
f 1081/1081/1081 1082/1082/1082 1083/1083/1083
f 1084/1084/1084 1085/1085/1085 1086/1086/1086
f 1087/1087/1087 1088/1088/1088 1089/1089/1089
f 1090/1090/1090 1091/1091/1091 1092/1092/1092
f 1093/1093/1093 1094/1094/1094 1095/1095/1095
f 1096/1096/1096 1097/1097/1097 1098/1098/1098
f 1099/1099/1099 1100/1100/1100 1101/1101/1101
f 1102/1102/1102 1103/1103/1103 1104/1104/1104
f 1105/1105/1105 1106/1106/1106 1107/1107/1107
f 1108/1108/1108 1109/1109/1109 1110/1110/1110
f 1111/1111/1111 1112/1112/1112 1113/1113/1113
f 1114/1114/1114 1115/1115/1115 1116/1116/1116
f 1117/1117/1117 1118/1118/1118 1119/1119/1119
f 1120/1120/1120 1121/1121/1121 1122/1122/1122
f 1123/1123/1123 1124/1124/1124 1125/1125/1125
f 1126/1126/1126 1127/1127/1127 1128/1128/1128
f 1129/1129/1129 1130/1130/1130 1131/1131/1131
f 1132/1132/1132 1133/1133/1133 1134/1134/1134
f 1135/1135/1135 1136/1136/1136 1137/1137/1137
f 1138/1138/1138 1139/1139/1139 1140/1140/1140
