o forearm_left
v -1.68769 1.76520 -3.62093
v -1.67948 1.69513 -3.84907
v -1.86302 2.15371 -4.00563
v -2.05025 1.69243 -3.89883
v -1.86302 2.15371 -4.00563
v -1.67948 1.69513 -3.84907
v -1.68769 1.76520 -3.62093
v -2.05025 1.69243 -3.89883
v -1.67948 1.69513 -3.84907
v -1.71295 1.79948 -3.47176
v -1.88809 2.25022 -3.86252
v -1.90691 2.26432 -3.81870
v -2.17066 1.97322 -3.98742
v -1.88809 2.25022 -3.86252
v -1.86302 2.15371 -4.00563
v -2.26253 2.18496 -4.04471
v -1.80653 2.20026 -3.33527
v -1.97112 2.55189 -3.38144
v -1.95029 2.35979 -3.81614
v -1.86815 1.80828 -3.50397
v -1.71295 1.79948 -3.47176
v -1.77115 1.81712 -3.43818
v -2.26253 2.18496 -4.04471
v -1.95029 2.35979 -3.81614
v -2.23948 2.23961 -3.85448
v -2.28240 2.42817 -3.84136
v -1.90691 2.26432 -3.81870
v -2.17066 1.97322 -3.98742
v -2.05025 1.69243 -3.89883
v -2.05311 1.90549 -3.60586
v -1.77115 1.81712 -3.43818
v -1.97177 1.87373 -3.56429
v -1.86815 1.80828 -3.50397
v -2.26253 2.18496 -4.04471
v -2.24623 2.22810 -3.88102
v -2.01140 1.80258 -3.59339
v -2.01140 1.80258 -3.59339
v -1.80305 2.18229 -3.31497
v -1.80305 2.18229 -3.31497
v -1.77115 1.81712 -3.43818
v -1.71295 1.79948 -3.47176
v -1.90691 2.26432 -3.81870
v -2.23948 2.23961 -3.85448
v -1.92777 2.14274 -3.18890
v -2.01140 1.80258 -3.59339
v -1.80653 2.20026 -3.33527
v -1.77518 2.20455 -3.31946
v -1.80305 2.18229 -3.31497
v -2.24623 2.22810 -3.88102
v -2.23948 2.23961 -3.85448
v -1.77115 1.81712 -3.43818
v -2.05311 1.90549 -3.60586
v -1.97177 1.87373 -3.56429
v -1.95029 2.35979 -3.81614
v -2.28240 2.42817 -3.84136
v -2.05311 1.90549 -3.60586
v -1.69987 2.33347 -3.10108
v -1.77518 2.20455 -3.31946
v -1.80653 2.20026 -3.33527
v -1.69987 2.33347 -3.10108
v -1.74658 2.45844 -3.09098
v -1.71232 2.39011 -3.08531
v -2.09407 2.54420 -3.49238
v -1.74658 2.45844 -3.09098
v -1.74280 2.43346 -3.04872
v -1.71232 2.39011 -3.08531
v -1.96969 2.73901 -3.26941
v -1.74280 2.43346 -3.04872
v -1.69987 2.33347 -3.10108
v -1.71232 2.39011 -3.08531
v -2.28240 2.42817 -3.84136
v -2.23948 2.23961 -3.85448
v -2.30563 2.43089 -3.81178
v -1.82042 2.28638 -2.97776
v -1.80305 2.18229 -3.31497
v -1.77518 2.20455 -3.31946
v -1.69987 2.33347 -3.10108
v -2.11459 2.63325 -3.48836
v -2.28231 2.54898 -3.42746
v -2.30563 2.43089 -3.81178
v -2.23619 2.37828 -3.43243
v -2.30563 2.43089 -3.81178
v -1.92777 2.14274 -3.18890
v -1.82042 2.28638 -2.97776
v -2.11178 2.66666 -2.96966
v -1.96969 2.73901 -3.26941
v -2.63986 1.21375 -4.22740
v -2.64336 1.22451 -4.24278
v -2.69541 1.45657 -4.25192
v -2.16785 2.15717 -3.41588
v -1.77115 1.81712 -3.43818
v -1.92777 2.14274 -3.18890
v -2.11214 2.03051 -3.21642
v -2.51891 1.42141 -3.95470
v -2.79519 1.85018 -4.26490
v -2.44850 1.47480 -3.82253
v -2.44850 1.47480 -3.82253
v -2.45413 1.46935 -3.80406
v -2.51891 1.42141 -3.95470
v -2.11214 2.03051 -3.21642
v -2.45569 2.58289 -3.35483
v -2.11459 2.63325 -3.48836
v -2.09407 2.54420 -3.49238
v -2.11214 2.03051 -3.21642
v -2.28231 2.54898 -3.42746
v -2.94691 1.18821 -4.07472
v -2.69541 1.45657 -4.25192
v -2.64336 1.22451 -4.24278
v -2.25152 1.99718 -3.09910
v -2.67353 1.96224 -4.04076
v -2.28231 2.54898 -3.42746
v -2.39456 2.65605 -3.23360
v -2.23374 2.76816 -2.98965
v -2.11459 2.63325 -3.48836
v -3.13474 1.78362 -4.05526
v -2.79519 1.85018 -4.26490
v -2.44588 1.68584 -3.61167
v -2.45413 1.46935 -3.80406
v -2.44850 1.47480 -3.82253
v -1.96969 2.73901 -3.26941
v -2.94691 1.18821 -4.07472
v -2.64336 1.22451 -4.24278
v -2.63986 1.21375 -4.22740
v -2.04332 2.24606 -2.73887
v -2.46712 1.83905 -3.52896
v -2.71974 2.17895 -3.96017
v -2.23619 2.37828 -3.43243
v -2.16785 2.15717 -3.41588
v -2.41901 2.10718 -3.38402
v -2.23374 2.76816 -2.98965
v -2.44588 1.68584 -3.61167
v -2.10086 2.56351 -2.81468
v -2.22660 2.73938 -2.95687
v -2.16785 2.15717 -3.41588
v -2.36170 2.07308 -3.25281
v -2.41901 2.10718 -3.38402
v -2.42133 2.08630 -3.32264
v -2.44391 2.44626 -3.37076
v -2.04332 2.24606 -2.73887
v -3.09244 1.88617 -3.87370
v -2.71974 2.17895 -3.96017
v -2.67353 1.96224 -4.04076
v -2.45569 2.58289 -3.35483
v -2.12271 2.64246 -2.92809
v -2.54230 1.84606 -3.29492
v -2.44588 1.68584 -3.61167
v -2.46712 1.83905 -3.52896
v -2.74831 2.37118 -3.87852
v -2.11214 2.03051 -3.21642
v -2.25152 1.99718 -3.09910
v -2.36725 3.55705 -2.72398
v -2.03701 2.47583 -2.72496
v -2.59601 2.46520 -3.62079
v -2.63986 1.21375 -4.22740
v -2.87924 1.34736 -3.77799
v -3.03075 1.18092 -4.01035
v -3.09244 1.88617 -3.87370
v -2.67353 1.96224 -4.04076
v -2.79519 1.85018 -4.26490
v -2.11178 2.66666 -2.96966
v -2.09810 2.66056 -2.93287
v -2.12271 2.64246 -2.92809
v -2.44745 2.07013 -3.33397
v -2.14899 2.68824 -2.94862
v -2.11214 2.03051 -3.21642
v -2.44745 2.07013 -3.33397
v -1.97298 2.65178 -2.89334
v -2.07150 2.56753 -2.77673
v -2.12271 2.64246 -2.92809
v -2.09810 2.66056 -2.93287
v -2.09810 2.66056 -2.93287
v -2.09810 2.66056 -2.93287
v -3.13474 1.78362 -4.05526
v -2.43760 2.20774 -3.38104
v -2.25152 1.99718 -3.09910
v -2.35768 1.87949 -3.26025
v -2.36170 2.07308 -3.25281
v -2.41901 2.10718 -3.38402
v -2.44745 2.07013 -3.33397
v -2.43760 2.20774 -3.38104
v -2.54962 2.51532 -3.50325
v -2.45569 2.58289 -3.35483
v -2.44391 2.44626 -3.37076
v -2.43760 2.20774 -3.38104
v -2.42133 2.08630 -3.32264
v -2.44745 2.07013 -3.33397
v -2.54962 2.51532 -3.50325
v -2.43760 2.20774 -3.38104
v -2.48521 2.21911 -3.38333
v -2.30428 2.72953 -3.08033
v -2.12271 2.64246 -2.92809
v -2.07150 2.56753 -2.77673
v -2.10086 2.56351 -2.81468
v -2.03701 2.47583 -2.72496
v -2.48521 2.21911 -3.38333
v -2.22660 2.73938 -2.95687
v -2.54962 2.51532 -3.50325
v -2.82383 1.35698 -3.57652
v -2.50163 2.66731 -3.37242
v -2.44063 2.05796 -3.31633
v -2.44745 2.07013 -3.33397
v -2.94691 1.18821 -4.07472
v -2.48585 2.72019 -3.31919
v -2.39456 2.65605 -3.23360
v -2.03701 2.47583 -2.72496
v -1.99147 2.45424 -2.64673
v -2.04332 2.24606 -2.73887
v -1.97004 2.53061 -2.61991
v -2.04507 2.73390 -2.72407
v -2.30428 2.72953 -3.08033
v -2.02997 2.83521 -2.68534
v -2.35768 1.87949 -3.26025
v -2.44063 2.05796 -3.31633
v -2.42133 2.08630 -3.32264
v -2.22660 2.73938 -2.95687
v -3.08085 2.30416 -3.69327
v -1.89252 2.80520 -2.46469
v -2.52027 1.94618 -3.22236
v -3.07899 1.44144 -4.04409
v -2.52027 1.94618 -3.22236
v -2.52027 1.94618 -3.22236
v -2.82383 1.35698 -3.57652
v -2.45413 1.46935 -3.80406
v -2.44588 1.68584 -3.61167
v -2.54165 1.87955 -3.17348
v -3.03075 1.18092 -4.01035
v -2.54230 1.84606 -3.29492
v -2.54165 1.87955 -3.17348
v -2.44588 1.68584 -3.61167
v -2.51183 1.84761 -3.15965
v -2.54962 2.51532 -3.50325
v -2.81719 2.50722 -3.25967
v -2.50163 2.66731 -3.37242
v -2.62597 2.69242 -3.19089
v -2.89738 1.35097 -3.74622
v -2.66500 1.68164 -3.30687
v -2.74831 2.37118 -3.87852
v -3.02582 2.32012 -3.71880
v -3.09352 1.86340 -3.87517
v -3.09244 1.88617 -3.87370
v -3.13474 1.78362 -4.05526
v -1.99147 2.45424 -2.64673
v -1.97004 2.53061 -2.61991
v -2.48040 2.09318 -2.42107
v -2.48585 2.72019 -3.31919
v -2.62597 2.69242 -3.19089
v -2.30428 2.72953 -3.08033
v -2.54165 1.87955 -3.17348
v -2.54165 1.87955 -3.17348
v -2.89738 1.35097 -3.74622
v -3.07899 1.44144 -4.04409
v -3.03075 1.18092 -4.01035
v -2.95197 2.41525 -3.38003
v -2.93449 2.38451 -3.34576
v -2.59601 2.46520 -3.62079
v -2.62597 2.69242 -3.19089
v -2.48585 2.72019 -3.31919
v -3.12446 1.72133 -4.06574
v -2.04332 2.24606 -2.73887
v -2.57885 1.81357 -3.20751
v -2.66500 1.68164 -3.30687
v -2.54165 1.87955 -3.17348
v -2.67763 1.96713 -2.52776
v -2.35768 1.87949 -3.26025
v -2.54165 1.87955 -3.17348
v -2.51183 1.84761 -3.15965
v -2.57885 1.81357 -3.20751
v -2.82383 1.35698 -3.57652
v -2.54962 2.51532 -3.50325
v -2.59601 2.46520 -3.62079
v -2.93449 2.38451 -3.34576
v -2.60346 2.81031 -3.05079
v -2.65938 2.68587 -3.15319
v -2.51183 1.84761 -3.15965
v -2.70257 1.78150 -3.29585
v -2.66500 1.68164 -3.30687
v -2.66313 1.76281 -3.26609
v -2.57885 1.81357 -3.20751
v -2.60346 2.81031 -3.05079
v -2.22660 2.73938 -2.95687
v -2.23374 2.76816 -2.98965
v -2.86488 1.93042 -3.41891
v -2.70257 1.78150 -3.29585
v -2.66313 1.76281 -3.26609
v -2.70962 1.74905 -3.28319
v -2.57885 1.81357 -3.20751
v -2.84568 1.81076 -2.79267
v -2.92370 1.72894 -3.00065
v -2.95197 2.41525 -3.38003
v -2.59601 2.46520 -3.62079
v -2.74831 2.37118 -3.87852
v -2.62597 2.69242 -3.19089
v -2.65938 2.68587 -3.15319
v -2.65970 2.71555 -3.17497
v -2.75304 1.75396 -3.31496
v -3.08085 2.30416 -3.69327
v -2.70962 1.74905 -3.28319
v -1.89252 2.80520 -2.46469
v -2.13713 2.86076 -2.10201
v -3.02582 2.32012 -3.71880
v -2.65970 2.71555 -3.17497
v -2.82488 1.93011 -3.36166
v -2.60950 2.90425 -3.01537
v -2.82488 1.93011 -3.36166
v -2.60346 2.81031 -3.05079
v -2.84508 1.75968 -3.14684
v -2.75304 1.75396 -3.31496
v -2.70962 1.74905 -3.28319
v -2.87932 1.89307 -3.36262
v -2.90266 1.92051 -3.37794
v -2.86488 1.93042 -3.41891
v -2.82488 1.93011 -3.36166
v -2.90266 1.92051 -3.37794
v -3.08085 2.30416 -3.69327
v -3.02953 2.34711 -3.57680
v -3.18657 2.33171 -3.07579
v -2.75304 1.75396 -3.31496
v -2.84508 1.75968 -3.14684
v -2.89165 1.71563 -3.19007
v -2.86488 1.93042 -3.41891
v -2.90266 1.92051 -3.37794
v -2.91621 2.07654 -3.37806
v -2.93157 2.18760 -3.42829
v -3.02953 2.34711 -3.57680
v -2.93796 2.15405 -3.38163
v -3.18657 2.33171 -3.07579
v -2.75985 2.75416 -2.88220
v -2.60346 2.81031 -3.05079
v -2.60346 2.81031 -3.05079
v -2.65970 2.71555 -3.17497
v -2.65938 2.68587 -3.15319
v -2.93157 2.18760 -3.42829
v -2.97583 2.30642 -3.45045
v -2.82925 1.74846 -3.11957
v -3.03795 2.34710 -3.41255
v -2.97583 2.30642 -3.45045
v -2.97964 2.34316 -3.43719
v -2.93796 2.15405 -3.38163
v -2.91621 2.07654 -3.37806
v -3.35104 2.08158 -3.64008
v -2.82925 1.74846 -3.11957
v -2.70962 1.74905 -3.28319
v -2.75985 2.75416 -2.88220
v -2.66591 2.78854 -2.97210
v -2.60346 2.81031 -3.05079
v -3.03215 1.83882 -3.45714
v -2.95197 2.41525 -3.38003
v -2.89165 1.71563 -3.19007
v -2.87932 1.89307 -3.36262
v -2.75304 1.75396 -3.31496
v -2.93449 2.38451 -3.34576
v -2.79418 1.85226 -2.72691
v -2.60346 2.81031 -3.05079
v -2.66591 2.78854 -2.97210
v -2.60950 2.90425 -3.01537
v -2.87932 1.89307 -3.36262
v -2.93589 1.86739 -3.30356
v -3.03215 1.83882 -3.45714
v -2.97583 2.30642 -3.45045
v -3.03795 2.34710 -3.41255
v -2.97964 2.34316 -3.43719
v -3.03795 2.34710 -3.41255
v -3.07357 1.30685 -3.50006
v -3.14531 1.26657 -3.56025
v -2.93589 1.86739 -3.30356
v -2.97964 2.34316 -3.43719
v -3.03795 2.34710 -3.41255
v -3.00236 2.38618 -3.37095
v -3.13275 1.33188 -3.29341
v -3.03215 1.83882 -3.45714
v -2.93589 1.86739 -3.30356
v -2.89165 1.71563 -3.19007
v -2.91027 1.63667 -3.16815
v -2.84508 1.75968 -3.14684
v -2.82925 1.74846 -3.11957
v -2.93449 2.38451 -3.34576
v -3.37971 1.10762 -3.69923
v -3.37971 1.10762 -3.69923
v -3.07357 1.30685 -3.50006
v -3.35894 1.24808 -3.23922
v -3.14531 1.26657 -3.56025
v -3.07357 1.30685 -3.50006
v -3.37971 1.10762 -3.69923
v -2.63083 2.01674 -2.41166
v -2.92433 1.68599 -3.02843
v -2.91027 1.63667 -3.16815
v -2.82925 1.74846 -3.11957
v -3.07357 1.30685 -3.50006
v -3.03215 1.83882 -3.45714
v -3.13275 1.33188 -3.29341
v -3.00924 2.74204 -2.52309
v -2.51575 3.44493 -2.80447
v -3.59588 1.67320 -3.80262
v -3.56365 2.06988 -3.38054
v -3.35104 2.08158 -3.64008
v -2.92370 1.72894 -3.00065
v -3.08643 2.51044 -2.91372
v -3.22935 2.30651 -3.11260
v -2.65408 2.04098 -2.28027
v -3.13275 1.33188 -3.29341
v -3.40487 1.77038 -3.68226
v -3.15282 1.33881 -3.27482
v -3.07357 1.30685 -3.50006
v -3.13275 1.33188 -3.29341
v -3.59588 1.67320 -3.80262
v -3.41724 1.76979 -3.68090
v -3.40487 1.77038 -3.68226
v -3.22935 2.30651 -3.11260
v -3.22935 2.30651 -3.11260
v -2.93449 2.38451 -3.34576
v -3.00236 2.38618 -3.37095
v -2.72739 1.94133 -2.52481
v -2.92433 1.68599 -3.02843
v -3.29083 1.47633 -3.22519
v -3.15282 1.33881 -3.27482
v -3.15282 1.33881 -3.27482
v -2.96555 1.72469 -2.96642
v -2.97546 1.80851 -3.01758
v -3.01291 1.90710 -2.99815
v -3.00440 1.88668 -3.03261
v -2.96555 1.72469 -2.96642
v -2.97546 1.80851 -3.01758
v -2.92370 1.72894 -3.00065
v -2.45707 2.51126 -2.08111
v -2.96555 1.72469 -2.96642
v -2.92370 1.72894 -3.00065
v -2.97546 1.80851 -3.01758
v -3.29083 1.47633 -3.22519
v -2.84568 1.81076 -2.79267
v -2.79418 1.85226 -2.72691
v -2.86287 1.93918 -2.77461
v -2.96555 1.72469 -2.96642
v -2.98700 1.92702 -2.94828
v -3.59588 1.67320 -3.80262
v -3.37971 1.10762 -3.69923
v -3.61485 1.67162 -3.80089
v -3.11943 1.96531 -3.11300
v -3.01291 1.90710 -2.99815
v -2.92370 1.72894 -3.00065
v -3.40451 1.10578 -3.70650
v -3.75691 1.54047 -3.43572
v -3.37971 1.10762 -3.69923
v -3.00440 1.88668 -3.03261
v -3.75691 1.54047 -3.43572
v -3.61485 1.67162 -3.80089
v -3.37971 1.10762 -3.69923
v -2.90154 1.92034 -2.80363
v -2.79418 1.85226 -2.72691
v -2.72739 1.94133 -2.52481
v -2.77460 1.87555 -2.63443
v -3.15282 1.33881 -3.27482
v -2.86287 1.93918 -2.77461
v -2.79418 1.85226 -2.72691
v -2.88533 1.90145 -2.74374
v -3.13762 2.42846 -3.01507
v -3.40487 1.77038 -3.68226
v -3.41724 1.76979 -3.68090
v -3.35104 2.08158 -3.64008
v -3.61485 1.67162 -3.80089
v -3.02673 2.07359 -2.97741
v -3.00440 1.88668 -3.03261
v -2.54859 2.25645 -2.20190
v -2.90154 1.92034 -2.80363
v -2.98700 1.92702 -2.94828
v -2.86287 1.93918 -2.77461
v -2.77460 1.87555 -2.63443
v -2.72739 1.94133 -2.52481
v -2.77544 1.91413 -2.58005
v -3.18657 2.33171 -3.07579
v -3.09056 2.62140 -2.65399
v -2.67763 1.96713 -2.52776
v -2.73074 1.99951 -2.52602
v -2.72739 1.94133 -2.52481
v -2.84750 1.81694 -2.66581
v -3.07359 2.19776 -2.99012
v -3.68952 1.68219 -3.65814
v -2.73074 1.99951 -2.52602
v -2.67763 1.96713 -2.52776
v -2.63083 2.01674 -2.41166
v -2.79696 2.10927 -2.32122
v -3.06141 2.64258 -2.60836
v -2.77544 1.91413 -2.58005
v -2.72739 1.94133 -2.52481
v -2.73074 1.99951 -2.52602
v -3.35894 1.24808 -3.23922
v -3.15282 1.33881 -3.27482
v -3.29083 1.47633 -3.22519
v -2.84750 1.81694 -2.66581
v -2.45707 2.51126 -2.08111
v -2.35303 2.83406 -1.93366
v -2.54924 2.56317 -2.13318
v -2.65408 2.04098 -2.28027
v -3.12783 2.31912 -3.00828
v -2.54859 2.25645 -2.20190
v -2.58684 2.26730 -2.22279
v -2.92887 1.74271 -2.62046
v -2.92887 1.74271 -2.62046
v -3.07359 2.19776 -2.99012
v -3.28271 2.23462 -3.04927
v -3.12783 2.31912 -3.00828
v -3.11114 2.35887 -2.95649
v -3.18657 2.33171 -3.07579
v -3.11114 2.35887 -2.95649
v -3.13762 2.42846 -3.01507
v -3.11520 2.46175 -2.94643
v -3.13762 2.42846 -3.01507
v -3.11520 2.46175 -2.94643
v -3.08643 2.51044 -2.91372
v -2.77460 1.87555 -2.63443
v -2.77544 1.91413 -2.58005
v -2.92887 1.74271 -2.62046
v -2.65408 2.04098 -2.28027
v -2.54859 2.25645 -2.20190
v -2.74256 2.13467 -2.25699
v -2.73074 1.99951 -2.52602
v -2.74256 2.13467 -2.25699
v -3.11114 2.35887 -2.95649
v -3.22224 2.43561 -2.89605
v -3.11520 2.46175 -2.94643
v -3.57337 1.71512 -3.34896
v -3.22224 2.43561 -2.89605
v -3.11520 2.46175 -2.94643
v -3.79942 1.66793 -3.46200
v -3.62478 1.77158 -3.39139
v -3.22935 2.30651 -3.11260
v -2.62460 3.03175 -2.11103
v -3.52369 1.58195 -3.31251
v -2.93130 2.81572 -2.42258
v -3.46377 1.45533 -3.28776
v -3.35894 1.24808 -3.23922
v -3.39016 1.23604 -3.21963
v -3.58841 1.10516 -3.33973
v -3.64161 2.14750 -2.91181
v -3.11114 2.35887 -2.95649
v -3.12783 2.31912 -3.00828
v -2.65408 2.04098 -2.28027
v -2.74256 2.13467 -2.25699
v -2.79696 2.10927 -2.32122
v -3.35894 1.24808 -3.23922
v -3.46377 1.45533 -3.28776
v -3.39016 1.23604 -3.21963
v -3.28271 2.23462 -3.04927
v -2.90686 3.26456 -2.30434
v -3.02673 2.07359 -2.97741
v -2.83931 2.49067 -2.39426
v -2.86675 2.45583 -2.39848
v -2.82310 2.31741 -2.36465
v -3.56365 2.06988 -3.38054
v -3.56365 2.06988 -3.38054
v -3.35104 2.08158 -3.64008
v -3.41724 1.76979 -3.68090
v -3.61485 1.67162 -3.80089
v -3.79942 1.66793 -3.46200
v -3.68952 1.68219 -3.65814
v -3.50321 1.51658 -3.28346
v -3.02923 1.64338 -2.59727
v -3.62478 1.77158 -3.39139
v -2.86675 2.45583 -2.39848
v -2.85595 2.33718 -2.35884
v -2.82310 2.31741 -2.36465
v -2.98700 1.92702 -2.94828
v -3.33408 1.47634 -2.90572
v -3.55586 1.90745 -3.08117
v -3.20620 2.34363 -2.90266
v -2.79696 2.10927 -2.32122
v -3.52369 1.58195 -3.31251
v -3.40451 1.10578 -3.70650
v -2.79696 2.10927 -2.32122
v -3.06083 2.50259 -2.63528
v -3.20620 2.34363 -2.90266
v -3.40451 1.10578 -3.70650
v -3.58841 1.10516 -3.33973
v -3.66278 1.28856 -3.38593
v -2.79974 3.09388 -2.23093
v -2.91628 2.52377 -2.45160
v -2.99156 2.56230 -2.52581
v -3.33408 1.47634 -2.90572
v -3.20620 2.34363 -2.90266
v -3.06083 2.50259 -2.63528
v -3.22224 2.43561 -2.89605
v -3.09056 2.62140 -2.65399
v -3.54369 2.08630 -3.11044
v -3.00924 2.74204 -2.52309
v -3.62478 1.77158 -3.39139
v -3.54369 2.08630 -3.11044
v -3.58841 1.10516 -3.33973
v -3.39016 1.23604 -3.21963
v -3.50321 1.51658 -3.28346
v -3.61956 1.75616 -3.34466
v -3.57337 1.71512 -3.34896
v -3.02036 1.94541 -2.40929
v -2.79696 2.10927 -2.32122
v -3.06141 2.64258 -2.60836
v -3.66278 1.28856 -3.38593
v -2.87459 3.15267 -2.29972
v -3.57394 2.22275 -2.74211
v -2.99156 2.56230 -2.52581
v -3.61956 1.75616 -3.34466
v -3.79942 1.66793 -3.46200
v -3.57337 1.71512 -3.34896
v -3.62478 1.77158 -3.39139
v -3.61956 1.75616 -3.34466
v -2.88846 3.28776 -2.27326
v -3.23888 1.59557 -2.58048
v -3.63492 1.34033 -2.95082
v -3.33408 1.47634 -2.90572
v -2.79974 3.09388 -2.23093
v -2.91131 3.12767 -2.26635
v -2.87459 3.15267 -2.29972
v -2.90686 3.26456 -2.30434
v -2.85595 2.33718 -2.35884
v -3.02036 1.94541 -2.40929
v -2.79696 2.10927 -2.32122
v -3.75691 1.54047 -3.43572
v -3.62478 1.77158 -3.39139
v -3.64678 1.76201 -3.36388
v -3.61956 1.75616 -3.34466
v -3.75691 1.54047 -3.43572
v -3.64678 1.76201 -3.36388
v -3.02923 1.64338 -2.59727
v -3.02923 1.64338 -2.59727
v -3.02923 1.64338 -2.59727
v -3.45658 1.68406 -2.58764
v -3.23888 1.59557 -2.58048
v -3.57394 2.22275 -2.74211
v -3.02923 1.64338 -2.59727
v -3.02036 1.94541 -2.40929
v -3.45658 1.68406 -2.58764
v -3.64678 1.76201 -3.36388
v -3.79942 1.66793 -3.46200
v -3.45658 1.68406 -2.58764
v -3.63492 1.34033 -2.95082
v -3.62141 2.01384 -2.69440
v -3.77368 1.83161 -3.11644
v -3.54369 2.08630 -3.11044
v -3.55586 1.90745 -3.08117
v -3.61465 1.94105 -2.96076
v -3.77368 1.83161 -3.11644
v -3.61465 1.94105 -2.96076
v -3.55586 1.90745 -3.08117
v -3.39894 1.55195 -2.57124
v -3.64161 2.14750 -2.91181
v -3.39894 1.55195 -2.57124
v -3.79261 1.87449 -2.97409
v -3.66263 1.95485 -2.86830
v -3.66263 1.95485 -2.86830
v -3.45658 1.68406 -2.58764
v -3.44214 1.54716 -2.52361
v -3.39894 1.55195 -2.57124
v -3.68013 1.46005 -2.56974
v -3.44214 1.54716 -2.52361
v -3.80877 1.94581 -2.74478
v -3.57394 2.22275 -2.74211
v -3.64161 2.14750 -2.91181
v -3.62141 2.01384 -2.69440
v -3.66263 1.95485 -2.86830
v -3.62141 2.01384 -2.69440
v -3.79261 1.87449 -2.97409
v -3.77368 1.83161 -3.11644
v -3.63492 1.34033 -2.95082
v -3.74210 1.69028 -2.64789
v -3.44214 1.54716 -2.52361
v -3.62141 2.01384 -2.69440
v -3.62141 2.01384 -2.69440
v -3.68013 1.46005 -2.56974
v -3.74210 1.69028 -2.64789
v -3.80950 1.93313 -2.73686
v -3.80877 1.94581 -2.74478
v -3.68013 1.46005 -2.56974
v -3.80950 1.93313 -2.73686
v -3.80877 1.94581 -2.74478
v -1.97112 2.55189 -3.38144
v -2.09407 2.54420 -3.49238
v -2.48040 2.09318 -2.42107
v -2.67763 1.96713 -2.52776
v -1.57693 3.31294 -2.08289
v -2.13713 2.86076 -2.10201
v -1.83510 3.03442 -2.31981
v -1.89252 2.80520 -2.46469
v -1.64832 3.28033 -1.85453
v -1.87806 3.19593 -1.68128
v -1.89009 3.11757 -1.74500
v -1.71263 3.18563 -1.92617
v -1.87806 3.19593 -1.68128
v -1.89009 3.11757 -1.74500
v -1.74077 3.20881 -1.95998
v -1.82327 3.15122 -1.62711
v -1.82327 3.15122 -1.62711
v -2.03879 3.09851 -1.66847
v -1.82178 3.04238 -1.70167
v -1.83409 3.03623 -1.71069
v -1.89009 3.11757 -1.74500
v -1.82327 3.15122 -1.62711
v -1.87806 3.19593 -1.68128
v -2.03879 3.09851 -1.66847
v -1.83409 3.03623 -1.71069
v -2.15799 3.06329 -1.57226
v -2.18259 3.01423 -1.67203
v -2.12973 2.98188 -1.50435
v -2.20667 2.91556 -1.86908
v -2.21673 2.86070 -1.91594
v -2.34212 2.82296 -1.92869
v -2.13713 2.86076 -2.10201
v -2.21673 2.86070 -1.91594
v -2.12973 2.98188 -1.50435
v -1.82178 3.04238 -1.70167
v -1.82178 3.04238 -1.70167
v -2.12973 2.98188 -1.50435
v -1.83409 3.03623 -1.71069
v -2.15799 3.06329 -1.57226
v -2.47994 2.76297 -1.76958
v -2.45707 2.51126 -2.08111
v -2.34212 2.82296 -1.92869
v -2.12973 2.98188 -1.50435
v -2.21673 2.86070 -1.91594
v -2.20667 2.91556 -1.86908
v -2.18259 3.01423 -1.67203
v -2.35303 2.83406 -1.93366
v -2.45707 2.51126 -2.08111
v -2.34212 2.82296 -1.92869
v -2.35647 2.91398 -1.88072
v -2.34212 2.82296 -1.92869
v -2.50413 2.77037 -1.76399
v -2.35647 2.91398 -1.88072
v -2.27386 3.25819 -1.23560
v -2.46383 2.92904 -1.91708
v -2.15799 3.06329 -1.57226
v -2.54924 2.56317 -2.13318
v -2.12973 2.98188 -1.50435
v -2.30176 2.88874 -1.59920
v -2.34212 2.82296 -1.92869
v -2.47994 2.76297 -1.76958
v -2.50413 2.77037 -1.76399
v -2.46383 2.92904 -1.91708
v -2.62460 3.03175 -2.11103
v -2.46383 2.92904 -1.91708
v -2.35647 2.91398 -1.88072
v -2.46792 2.92752 -1.89170
v -2.38892 2.94080 -1.83329
v -2.12973 2.98188 -1.50435
v -2.29533 2.95627 -1.40057
v -2.18765 2.98077 -1.50234
v -2.64803 2.96898 -1.95781
v -2.41001 3.05240 -1.74449
v -2.18765 2.98077 -1.50234
v -2.62460 3.03175 -2.11103
v -2.38892 2.94080 -1.83329
v -2.29533 2.95627 -1.40057
v -2.49300 3.13266 -1.72981
v -2.42126 3.12614 -1.69136
v -2.41001 3.05240 -1.74449
v -2.48604 2.99389 -1.66272
v -2.39600 3.02730 -1.53946
v -2.64803 2.96898 -1.95781
v -2.44495 2.80637 -1.68926
v -2.91131 3.12767 -2.26635
v -2.79974 3.09388 -2.23093
v -2.42126 3.12614 -1.69136
v -2.39600 3.02730 -1.53946
v -2.50413 2.77037 -1.76399
v -2.44495 2.80637 -1.68926
v -2.50413 2.77037 -1.76399
v -2.87459 3.15267 -2.29972
v -2.94236 3.25979 -2.21739
v -2.88846 3.28776 -2.27326
v -2.47583 3.07795 -1.61998
v -2.68386 3.12700 -1.85512
v -2.90686 3.26456 -2.30434
v -2.88262 3.35167 -2.24700
v -2.91131 3.12767 -2.26635
v -2.88846 3.28776 -2.27326
v -2.49300 3.13266 -1.72981
v -2.42126 3.12614 -1.69136
v -2.53881 3.11814 -1.67095
v -2.48604 2.99389 -1.66272
v -2.52002 3.27443 -1.66867
v -2.28967 3.26156 -1.24125
v -2.53881 3.11814 -1.67095
v -2.39600 3.02730 -1.53946
v -2.29533 2.95627 -1.40057
v -2.47583 3.07795 -1.61998
v -2.47583 3.07795 -1.61998
v -2.91131 3.12767 -2.26635
v -2.53881 3.11814 -1.67095
v -2.47583 3.07795 -1.61998
v -2.39600 3.02730 -1.53946
v -2.92907 3.22082 -2.19072
v -2.94236 3.25979 -2.21739
v -2.88262 3.35167 -2.24700
v -2.53881 3.11814 -1.67095
v -2.52002 3.27443 -1.66867
v -2.49300 3.13266 -1.72981
v -2.56048 3.35557 -1.57301
v -2.47509 3.42246 -1.56203
v -2.52002 3.27443 -1.66867
v -2.56048 3.35557 -1.57301
v -2.58856 3.78247 -1.50551
v -2.92907 3.22082 -2.19072
v -2.68386 3.12700 -1.85512
v -2.99297 3.19839 -2.11430
v -2.56048 3.35557 -1.57301
v -2.98267 3.35033 -2.01748
v -2.92907 3.22082 -2.19072
v -2.99297 3.19839 -2.11430
v -2.94236 3.25979 -2.21739
v -2.98267 3.35033 -2.01748
v -2.99297 3.19839 -2.11430
v -2.99297 3.19839 -2.11430
v -2.13713 2.86076 -2.10201
v -2.54924 2.56317 -2.13318
v -2.46792 2.92752 -1.89170
v -2.41001 3.05240 -1.74449
v -2.22672 3.11880 -2.10737
v -2.07150 2.56753 -2.77673
v -1.97298 2.65178 -2.89334
v -2.09810 2.66056 -2.93287
v -2.36725 3.55705 -2.72398
v -2.60950 2.90425 -3.01537
v -2.51575 3.44493 -2.80447
v -2.90686 3.26456 -2.30434
v -2.88262 3.35167 -2.24700
v -2.94236 3.25979 -2.21739
v -2.98267 3.35033 -2.01748
v -2.68386 3.12700 -1.85512
v -2.58856 3.78247 -1.50551
v -2.52002 3.27443 -1.66867
v -2.47509 3.42246 -1.56203
v -2.56048 3.35557 -1.57301
v -2.28967 3.26156 -1.24125
v -2.29533 2.95627 -1.40057
v -2.27386 3.25819 -1.23560
v -1.82327 3.15122 -1.62711
v -1.64832 3.28033 -1.85453
v -1.87806 3.19593 -1.68128
v -1.71263 3.18563 -1.92617
v -1.89009 3.11757 -1.74500
v -1.74077 3.20881 -1.95998
v -2.03879 3.09851 -1.66847
v -1.57693 3.31294 -2.08289
v -2.13713 2.86076 -2.10201
v -1.83510 3.03442 -2.31981
v -1.89252 2.80520 -2.46469
v -2.02997 2.83521 -2.68534
v -1.97004 2.53061 -2.61991
v -2.04507 2.73390 -2.72407
v -3.11273 1.64880 -4.05503
v -3.13474 1.78362 -4.05526
v -3.12446 1.72133 -4.06574
v -3.07899 1.44144 -4.04409
vt 0.86727 0.36083
vt 0.86560 0.37408
vt 0.83771 0.36792
vt 0.56682 0.21482
vt 0.54293 0.20264
vt 0.56920 0.19526
vt 0.27849 0.07414
vt 0.26580 0.09494
vt 0.26596 0.07524
vt 0.86664 0.35264
vt 0.83631 0.35774
vt 0.83625 0.35496
vt 0.55081 0.21972
vt 0.08617 0.06786
vt 0.08519 0.05873
vt 0.10640 0.05873
vt 0.85217 0.33434
vt 0.83363 0.32500
vt 0.83074 0.35334
vt 0.28618 0.08276
vt 0.28665 0.07441
vt 0.28898 0.07724
vt 0.53885 0.22345
vt 0.32972 0.05012
vt 0.33544 0.06572
vt 0.32539 0.06749
vt 0.33485 0.04807
vt 0.73373 0.21694
vt 0.75047 0.21628
vt 0.74554 0.23470
vt 0.04693 0.07976
vt 0.05043 0.09210
vt 0.04671 0.08595
vt 0.72124 0.21790
vt 0.10509 0.06759
vt 0.28254 0.09088
vt 0.75129 0.23348
vt 0.85350 0.33441
vt 0.11746 0.30219
vt 0.09716 0.30376
vt 0.09522 0.30066
vt 0.08703 0.07034
vt 0.10465 0.06909
vt 0.11889 0.31165
vt 0.04680 0.09484
vt 0.00343 0.34159
vt 0.00157 0.34159
vt 0.00291 0.34025
vt 0.72231 0.22679
vt 0.72236 0.22836
vt 0.06906 0.96808
vt 0.07066 0.98590
vt 0.06973 0.98089
vt 0.11942 0.14441
vt 0.10233 0.14002
vt 0.05234 0.09683
vt 0.03136 0.22649
vt 0.03014 0.21261
vt 0.03139 0.21123
vt 0.85553 0.31853
vt 0.85002 0.31426
vt 0.85338 0.31580
vt 0.11172 0.12198
vt 0.09168 0.37468
vt 0.09384 0.37736
vt 0.09062 0.37864
vt 0.82904 0.31618
vt 0.39236 0.98901
vt 0.39568 0.98358
vt 0.39476 0.98661
vt 0.50265 0.00660
vt 0.51270 0.00838
vt 0.50181 0.00840
vt 0.57979 0.31457
vt 0.56931 0.32591
vt 0.56785 0.32464
vt 0.57122 0.31236
vt 0.82257 0.32049
vt 0.10154 0.11825
vt 0.10069 0.13901
vt 0.72290 0.25175
vt 0.71294 0.23383
vt 0.57810 0.32883
vt 0.38649 0.98151
vt 0.11054 0.36045
vt 0.09366 0.35465
vt 0.34283 0.82114
vt 0.34280 0.82014
vt 0.35241 0.81208
vt 0.73473 0.24869
vt 0.09146 0.27383
vt 0.09146 0.29695
vt 0.08013 0.29521
vt 0.36051 0.82849
vt 0.36860 0.79810
vt 0.36710 0.83366
vt 0.10658 0.55906
vt 0.10745 0.55845
vt 0.10682 0.56743
vt 0.74489 0.25646
vt 0.09062 0.51844
vt 0.11010 0.51850
vt 0.11052 0.52330
vt 0.09102 0.97821
vt 0.10016 0.52165
vt 0.16457 0.56067
vt 0.18206 0.54817
vt 0.18294 0.56067
vt 0.59993 0.33342
vt 0.38073 0.80635
vt 0.71417 0.25500
vt 0.57465 0.19964
vt 0.58502 0.18683
vt 0.58787 0.21460
vt 0.15873 0.52830
vt 0.17999 0.52687
vt 0.61647 0.02853
vt 0.63173 0.02853
vt 0.63215 0.02950
vt 0.59728 0.20304
vt 0.47217 0.04500
vt 0.45380 0.04500
vt 0.45408 0.04404
vt 0.59621 0.31219
vt 0.39175 0.83402
vt 0.39243 0.80219
vt 0.10126 0.53090
vt 0.10292 0.54301
vt 0.08934 0.54359
vt 0.11348 0.35381
vt 0.38267 0.83572
vt 0.11543 0.37095
vt 0.11377 0.35550
vt 0.34222 0.08781
vt 0.35530 0.09296
vt 0.35021 0.09880
vt 0.35334 0.09743
vt 0.09045 0.52571
vt 0.36921 0.98018
vt 0.69200 0.07975
vt 0.70427 0.10196
vt 0.69200 0.10384
vt 0.57020 0.20643
vt 0.11287 0.36356
vt 0.48059 0.09179
vt 0.49569 0.10393
vt 0.48647 0.10333
vt 0.40311 0.79916
vt 0.35217 0.07977
vt 0.36102 0.08388
vt 0.31100 0.32022
vt 0.11648 0.37906
vt 0.41570 0.80986
vt 0.10655 0.58657
vt 0.12823 0.56929
vt 0.13018 0.58622
vt 0.08575 0.62033
vt 0.10984 0.62035
vt 0.10729 0.63480
vt 0.00380 0.76820
vt 0.00170 0.76820
vt 0.00177 0.76657
vt 0.47080 0.10031
vt 0.11235 0.35970
vt 0.58662 0.33463
vt 0.35381 0.09909
vt 0.01442 0.60396
vt 0.01442 0.61315
vt 0.00709 0.60743
vt 0.26529 0.34170
vt 0.11162 0.36116
vt 0.00779 0.60596
vt 0.08624 0.63153
vt 0.08908 0.53821
vt 0.01503 0.16089
vt 0.02355 0.15258
vt 0.02563 0.16257
vt 0.00459 0.95090
vt 0.00691 0.94814
vt 0.00680 0.95581
vt 0.17029 0.51333
vt 0.16089 0.51020
vt 0.16577 0.50482
vt 0.17399 0.49530
vt 0.03050 0.16219
vt 0.40764 0.83550
vt 0.26496 0.08312
vt 0.24671 0.08546
vt 0.24779 0.08312
vt 0.58060 0.19143
vt 0.15317 0.95023
vt 0.16208 0.95288
vt 0.15968 0.95369
vt 0.36945 0.99231
vt 0.41249 0.82852
vt 0.11499 0.35806
vt 0.42158 0.81396
vt 0.13106 0.55857
vt 0.15959 0.51518
vt 0.35483 0.09850
vt 0.23930 0.08346
vt 0.12466 0.58712
vt 0.15559 0.51571
vt 0.15288 0.50881
vt 0.16641 0.95680
vt 0.17131 0.95678
vt 0.16848 0.96874
vt 0.17210 0.95244
vt 0.16300 0.94363
vt 0.14317 0.50593
vt 0.16382 0.93792
vt 0.18883 0.02598
vt 0.19662 0.01853
vt 0.19840 0.01898
vt 0.26778 0.33406
vt 0.71598 0.08038
vt 0.17750 0.93621
vt 0.18809 0.01654
vt 0.15912 0.54656
vt 0.36313 0.10132
vt 0.47399 0.09127
vt 0.80505 0.19365
vt 0.81126 0.21643
vt 0.79615 0.21856
vt 0.77153 0.21111
vt 0.15899 0.56063
vt 0.09219 0.38474
vt 0.09391 0.37833
vt 0.09360 0.40406
vt 0.18229 0.01863
vt 0.56431 0.80593
vt 0.57493 0.79083
vt 0.57506 0.80826
vt 0.56295 0.19505
vt 0.12987 0.56824
vt 0.78341 0.20343
vt 0.71531 0.10072
vt 0.71620 0.08367
vt 0.86252 0.60169
vt 0.86134 0.60205
vt 0.86524 0.59143
vt 0.96266 0.71744
vt 0.96346 0.72178
vt 0.93271 0.70574
vt 0.18531 0.98469
vt 0.18843 0.99430
vt 0.17075 0.99084
vt 0.47583 0.08717
vt 0.18360 0.01661
vt 0.89295 0.60553
vt 0.88120 0.58498
vt 0.89940 0.58809
vt 0.07629 0.81866
vt 0.07879 0.81799
vt 0.07842 0.84134
vt 0.58504 0.80209
vt 0.57823 0.80988
vt 0.86696 0.58986
vt 0.96006 0.70711
vt 0.04602 0.03285
vt 0.03621 0.03285
vt 0.05034 0.03219
vt 0.63200 0.32950
vt 0.59815 0.34969
vt 0.10596 0.99740
vt 0.10521 0.99510
vt 0.10989 0.99548
vt 0.89158 0.61543
vt 0.45225 0.96521
vt 0.45350 0.97226
vt 0.43015 0.97143
vt 0.56520 0.18560
vt 0.58690 0.80027
vt 0.60806 0.35324
vt 0.87648 0.63659
vt 0.88067 0.63511
vt 0.87990 0.63931
vt 0.88329 0.64113
vt 0.23901 0.06082
vt 0.21822 0.06082
vt 0.21926 0.05874
vt 0.86408 0.62815
vt 0.86047 0.40400
vt 0.86238 0.40127
vt 0.86180 0.40400
vt 0.60940 0.35842
vt 0.63412 0.34856
vt 0.63164 0.35995
vt 0.51037 0.06923
vt 0.53315 0.06976
vt 0.53315 0.08629
vt 0.00382 0.52443
vt 0.00382 0.52710
vt 0.00218 0.52606
vt 0.86018 0.40616
vt 0.84238 0.61601
vt 0.87805 0.63937
vt 0.96646 0.73877
vt 0.94390 0.74881
vt 0.51610 0.08728
vt 0.56130 0.19342
vt 0.85344 0.41092
vt 0.27204 0.31230
vt 0.86590 0.63180
vt 0.26684 0.31329
vt 0.01486 0.77938
vt 0.02495 0.77897
vt 0.02471 0.78181
vt 0.85419 0.41477
vt 0.85148 0.41479
vt 0.99628 0.68184
vt 0.99514 0.67834
vt 0.99885 0.68034
vt 0.51285 0.08784
vt 0.51209 0.08081
vt 0.41081 0.96798
vt 0.71184 0.00771
vt 0.71184 0.01780
vt 0.70787 0.01692
vt 0.94355 0.12438
vt 0.94321 0.12142
vt 0.95145 0.12142
vt 0.95754 0.12363
vt 0.84108 0.62300
vt 0.95569 0.12120
vt 0.57643 0.76886
vt 0.60418 0.79599
vt 0.59336 0.80324
vt 0.00453 0.47912
vt 0.00453 0.47038
vt 0.00647 0.47035
vt 0.85008 0.63105
vt 0.84370 0.62982
vt 0.01407 0.78095
vt 0.96725 0.12075
vt 0.96430 0.12400
vt 0.84223 0.63099
vt 0.84252 0.40581
vt 0.84607 0.40868
vt 0.82246 0.41846
vt 0.62190 0.36485
vt 0.61226 0.36665
vt 0.01920 0.13309
vt 0.01982 0.14015
vt 0.01953 0.14555
vt 0.84881 0.42291
vt 0.83805 0.63053
vt 0.21729 0.00524
vt 0.22943 0.01003
vt 0.22039 0.01477
vt 0.83697 0.63218
vt 0.63428 0.34328
vt 0.61016 0.80505
vt 0.60748 0.80147
vt 0.61329 0.80291
vt 0.74163 0.01450
vt 0.73711 0.01450
vt 0.73889 0.00501
vt 0.50569 0.99466
vt 0.50433 0.99884
vt 0.50382 0.99554
vt 0.83141 0.40093
vt 0.86190 0.44943
vt 0.86079 0.45352
vt 0.22752 0.00594
vt 0.16756 0.23884
vt 0.16446 0.24009
vt 0.16385 0.23660
vt 0.12626 0.13880
vt 0.12654 0.16735
vt 0.11688 0.16735
vt 0.11171 0.15850
vt 0.11195 0.15408
vt 0.10813 0.16044
vt 0.10657 0.15961
vt 0.16578 0.23332
vt 0.85256 0.46851
vt 0.12133 0.73018
vt 0.10749 0.74717
vt 0.09597 0.73009
vt 0.60997 0.06657
vt 0.61525 0.06750
vt 0.59335 0.06682
vt 0.92642 0.70135
vt 0.78215 0.10462
vt 0.78714 0.11066
vt 0.77952 0.11184
vt 0.11017 0.61465
vt 0.11888 0.58783
vt 0.12145 0.61627
vt 0.61224 0.77398
vt 0.64580 0.80530
vt 0.82447 0.44777
vt 0.14671 0.26593
vt 0.16436 0.26481
vt 0.77959 0.10377
vt 0.58814 0.77262
vt 0.40994 0.97112
vt 0.92212 0.70507
vt 0.80777 0.10711
vt 0.83077 0.43753
vt 0.30531 0.01416
vt 0.31800 0.01416
vt 0.30662 0.01486
vt 0.82235 0.07914
vt 0.82244 0.06667
vt 0.82290 0.06620
vt 0.14560 0.24018
vt 0.84027 0.06093
vt 0.82006 0.06093
vt 0.82198 0.05763
vt 0.63475 0.33073
vt 0.29420 0.10540
vt 0.31853 0.10226
vt 0.31853 0.11285
vt 0.80757 0.10564
vt 0.63415 0.35955
vt 0.61704 0.01300
vt 0.61903 0.01829
vt 0.61704 0.01746
vt 0.99415 0.64347
vt 0.99935 0.64347
vt 0.99505 0.64618
vt 0.92155 0.73347
vt 0.61908 0.00822
vt 0.39401 0.43224
vt 0.39138 0.42591
vt 0.42475 0.42716
vt 0.35693 0.43562
vt 0.35136 0.43761
vt 0.35792 0.43292
vt 0.36581 0.43320
vt 0.37251 0.42592
vt 0.89899 0.14456
vt 0.86664 0.14456
vt 0.89925 0.14359
vt 0.38587 0.41721
vt 0.37549 0.42569
vt 0.29228 0.10351
vt 0.50611 0.14646
vt 0.47337 0.14646
vt 0.50662 0.14519
vt 0.38773 0.42422
vt 0.99236 0.38235
vt 0.97162 0.38895
vt 0.97162 0.35633
vt 0.36130 0.43185
vt 0.70439 0.01326
vt 0.70829 0.02476
vt 0.70510 0.01833
vt 0.09586 0.74210
vt 0.73457 0.15388
vt 0.73453 0.14753
vt 0.73701 0.15247
vt 0.58166 0.77044
vt 0.27135 0.03678
vt 0.27118 0.03614
vt 0.28810 0.03576
vt 0.82166 0.07987
vt 0.37369 0.41491
vt 0.37742 0.42584
vt 0.91898 0.71815
vt 0.73658 0.15586
vt 0.73868 0.16446
vt 0.73461 0.15396
vt 0.85354 0.01585
vt 0.85354 0.00867
vt 0.85482 0.01258
vt 0.37307 0.39010
vt 0.60331 0.77191
vt 0.00314 0.28751
vt 0.00122 0.28486
vt 0.00429 0.28478
vt 0.70053 0.01586
vt 0.37085 0.40297
vt 0.81324 0.07866
vt 0.03491 0.66662
vt 0.03235 0.66866
vt 0.02751 0.66347
vt 0.03328 0.65400
vt 0.60617 0.77208
vt 0.25890 0.00691
vt 0.25684 0.00335
vt 0.25892 0.00109
vt 0.80122 0.01535
vt 0.79150 0.02241
vt 0.78908 0.01210
vt 0.73906 0.14643
vt 0.57624 0.70415
vt 0.59303 0.68994
vt 0.57526 0.71506
vt 0.02512 0.65674
vt 0.36716 0.39259
vt 0.55764 0.70788
vt 0.55889 0.71090
vt 0.74526 0.14544
vt 0.69441 0.01724
vt 0.26307 0.77111
vt 0.27403 0.76730
vt 0.26878 0.77526
vt 0.36458 0.38807
vt 0.99321 0.75017
vt 0.99313 0.74260
vt 0.99742 0.74516
vt 0.99836 0.74108
vt 0.00271 0.06610
vt 0.00379 0.07014
vt 0.00292 0.07347
vt 0.09241 0.50533
vt 0.09338 0.50195
vt 0.10130 0.51136
vt 0.03045 0.53137
vt 0.03045 0.54466
vt 0.02408 0.53402
vt 0.09171 0.49638
vt 0.55060 0.70941
vt 0.00697 0.79894
vt 0.00187 0.80484
vt 0.00154 0.79847
vt 0.42550 0.41241
vt 0.58717 0.76491
vt 0.58555 0.77068
vt 0.80141 0.07782
vt 0.80368 0.06673
vt 0.37670 0.38855
vt 0.59311 0.73768
vt 0.43159 0.41822
vt 0.56095 0.74549
vt 0.43565 0.42544
vt 0.44003 0.43368
vt 0.09525 0.72818
vt 0.10379 0.71707
vt 0.27770 0.26122
vt 0.26566 0.28888
vt 0.26321 0.28631
vt 0.43240 0.99060
vt 0.43753 0.99521
vt 0.43472 0.99890
vt 0.34807 0.11979
vt 0.36052 0.12087
vt 0.34786 0.12182
vt 0.26399 0.27681
vt 0.64123 0.76581
vt 0.25768 0.76661
vt 0.54955 0.73264
vt 0.54343 0.73462
vt 0.54562 0.72248
vt 0.40748 0.38780
vt 0.36994 0.05770
vt 0.35230 0.05886
vt 0.35230 0.04194
vt 0.54337 0.05420
vt 0.56369 0.05420
vt 0.55184 0.05485
vt 0.36413 0.12219
vt 0.75279 0.14520
vt 0.42529 0.40461
vt 0.05034 0.57006
vt 0.04924 0.56354
vt 0.05081 0.56223
vt 0.25183 0.76094
vt 0.25505 0.73107
vt 0.27826 0.74516
vt 0.00680 0.80475
vt 0.54627 0.71089
vt 0.36799 0.12149
vt 0.12186 0.72892
vt 0.04975 0.55100
vt 0.28090 0.29978
vt 0.27017 0.28522
vt 0.11131 0.71478
vt 0.08972 0.71565
vt 0.08972 0.70495
vt 0.58058 0.75055
vt 0.54621 0.73802
vt 0.54381 0.74511
vt 0.76872 0.16378
vt 0.54180 0.76679
vt 0.54429 0.75230
vt 0.54580 0.76611
vt 0.54975 0.75226
vt 0.28265 0.75366
vt 0.55365 0.74817
vt 0.37106 0.04169
vt 0.26561 0.26075
vt 0.15925 0.63120
vt 0.14527 0.63007
vt 0.14527 0.61379
vt 0.37851 0.12284
vt 0.37571 0.12117
vt 0.10839 0.49685
vt 0.09819 0.48543
vt 0.54841 0.74992
vt 0.15938 0.62050
vt 0.57907 0.75620
vt 0.28488 0.26875
vt 0.28507 0.30603
vt 0.14624 0.59943
vt 0.15846 0.59891
vt 0.99930 0.88885
vt 0.99470 0.88885
vt 0.99658 0.88704
vt 0.58510 0.76425
vt 0.88743 0.21261
vt 0.91444 0.22894
vt 0.89689 0.22900
vt 0.63142 0.00796
vt 0.63142 0.00154
vt 0.63421 0.00244
vt 0.58306 0.76541
vt 0.53672 0.73140
vt 0.51457 0.72571
vt 0.52838 0.72291
vt 0.15889 0.60610
vt 0.00339 0.39474
vt 0.00339 0.39666
vt 0.00161 0.39664
vt 0.08929 0.69055
vt 0.80179 0.06706
vt 0.87646 0.21553
vt 0.10755 0.51557
vt 0.97670 0.36027
vt 0.99578 0.37241
vt 0.98385 0.36909
vt 0.50661 0.75248
vt 0.98066 0.77897
vt 0.99582 0.76796
vt 0.99516 0.79633
vt 0.14770 0.59841
vt 0.99194 0.38954
vt 0.48192 0.73000
vt 0.26551 0.71698
vt 0.49434 0.74506
vt 0.28644 0.73598
vt 0.28385 0.01382
vt 0.28453 0.02336
vt 0.27725 0.02336
vt 0.09518 0.09230
vt 0.10545 0.08423
vt 0.10742 0.09123
vt 0.98909 0.37610
vt 0.27176 0.01353
vt 0.89595 0.21060
vt 0.09542 0.08441
vt 0.27175 0.02399
vt 0.10358 0.07902
vt 0.67163 0.99378
vt 0.67915 0.99105
vt 0.67924 0.99444
vt 0.91131 0.20800
vt 0.89775 0.20772
vt 0.09655 0.07178
vt 0.19973 0.02290
vt 0.20153 0.01265
vt 0.21125 0.02200
vt 0.21198 0.01212
vt 0.65142 0.99337
vt 0.11462 0.68122
vt 0.10672 0.68121
vt 0.10672 0.65295
vt 0.10763 0.39513
vt 0.12084 0.38192
vt 0.11883 0.40967
vt 0.10719 0.06978
vt 0.12789 0.65314
vt 0.12785 0.66635
vt 0.10783 0.40921
vt 0.10801 0.40998
vt 0.10727 0.38192
vt 0.12749 0.68042
vt 0.12729 0.68118
vt 0.11854 0.11772
vt 0.82583 0.32666
vt 0.62749 0.31326
vt 0.92631 0.69591
vt 0.98595 0.26081
vt 0.96359 0.28431
vt 0.96647 0.26603
vt 0.95402 0.26690
vt 0.99933 0.99313
vt 0.98630 0.98957
vt 0.02457 0.88601
vt 0.02457 0.87418
vt 0.02909 0.88670
vt 0.71396 0.10678
vt 0.70191 0.11004
vt 0.34930 0.51472
vt 0.98516 0.99342
vt 0.72129 0.10873
vt 0.00688 0.65605
vt 0.00639 0.65661
vt 0.00212 0.65461
vt 0.00652 0.65012
vt 0.00251 0.65005
vt 0.98547 0.29039
vt 0.71407 0.10207
vt 0.72837 0.10907
vt 0.98058 0.29609
vt 0.73031 0.10452
vt 0.97125 0.29252
vt 0.96797 0.29231
vt 0.28755 0.90455
vt 0.29612 0.91337
vt 0.28725 0.91210
vt 0.33858 0.54262
vt 0.34460 0.51514
vt 0.36784 0.03368
vt 0.38454 0.03368
vt 0.36813 0.03436
vt 0.98552 0.29747
vt 0.27777 0.89989
vt 0.30176 0.97872
vt 0.30720 0.99427
vt 0.05322 0.17092
vt 0.05460 0.15124
vt 0.05618 0.15412
vt 0.05740 0.16403
vt 0.21330 0.05890
vt 0.19665 0.05847
vt 0.21311 0.05819
vt 0.21756 0.05965
vt 0.99933 0.72419
vt 0.98867 0.72367
vt 0.99852 0.71958
vt 0.34943 0.54596
vt 0.21651 0.06469
vt 0.05784 0.16914
vt 0.19699 0.06537
vt 0.26553 0.91587
vt 0.27030 0.90767
vt 0.55861 0.99507
vt 0.54879 0.99593
vt 0.54794 0.99513
vt 0.23118 0.04770
vt 0.23497 0.05936
vt 0.66343 0.15754
vt 0.65895 0.15899
vt 0.66258 0.15554
vt 0.65862 0.15677
vt 0.99610 0.40234
vt 0.99894 0.41076
vt 0.99555 0.40490
vt 0.67017 0.15216
vt 0.65443 0.15435
vt 0.26502 0.91445
vt 0.67498 0.15898
vt 0.99639 0.71767
vt 0.33688 0.55672
vt 0.52447 0.50278
vt 0.99325 0.70753
vt 0.99434 0.71151
vt 0.98877 0.71259
vt 0.25899 0.90913
vt 0.51509 0.50648
vt 0.27337 0.90093
vt 0.68875 0.15461
vt 0.68413 0.15754
vt 0.52513 0.49922
vt 0.99106 0.41357
vt 0.27764 0.89904
vt 0.25815 0.90082
vt 0.25386 0.89903
vt 0.38673 0.07003
vt 0.39117 0.07519
vt 0.38760 0.07620
vt 0.98872 0.70831
vt 0.52248 0.51054
vt 0.16077 0.00056
vt 0.16185 0.00526
vt 0.50038 0.50557
vt 0.16189 0.00214
vt 0.00072 0.54180
vt 0.00439 0.54147
vt 0.00051 0.54521
vt 0.25265 0.90608
vt 0.53348 0.49964
vt 0.59201 0.05051
vt 0.61047 0.06472
vt 0.60088 0.06588
vt 0.59252 0.06602
vt 0.25371 0.90917
vt 0.00449 0.54607
vt 0.38903 0.06905
vt 0.00758 0.95965
vt 0.00793 0.96372
vt 0.00782 0.96931
vt 0.50239 0.50696
vt 0.50053 0.50785
vt 0.38811 0.07929
vt 0.24356 0.01725
vt 0.24061 0.02371
vt 0.24018 0.01666
vt 0.24356 0.02886
vt 0.38227 0.99717
vt 0.38912 0.99220
vt 0.38714 0.99780
vt 0.55886 0.51036
vt 0.05148 0.62897
vt 0.05148 0.64817
vt 0.04707 0.63025
vt 0.61159 0.05316
vt 0.52872 0.53446
vt 0.93316 0.00001
vt 0.93776 0.00017
vt 0.93218 0.00199
vt 0.39930 0.08110
vt 0.52058 0.53606
vt 0.39676 0.07338
vt 0.31905 0.99128
vt 0.21375 0.05651
vt 0.51342 0.49988
vt 0.52109 0.49903
vt 0.18274 0.59898
vt 0.18274 0.59898
vt 0.18274 0.59898
vt 0.18274 0.59898
vt 0.18274 0.59898
vt 0.18274 0.59898
vt 0.18274 0.59898
vt 0.18274 0.59898
vt 0.18274 0.59898
vt 0.18274 0.59898
vt 0.18274 0.59898
vt 0.18274 0.59898
vt 0.18274 0.59898
vt 0.18274 0.59898
vt 0.18274 0.59898
vt 0.18274 0.59898
vt 0.18274 0.59898
vt 0.18274 0.59898
vt 0.18274 0.59898
vt 0.18274 0.59898
vt 0.18274 0.59898
vt 0.18274 0.59898
vt 0.18274 0.59898
vt 0.18274 0.59898
vt 0.18274 0.59898
vt 0.18274 0.59898
vt 0.18274 0.59898
vt 0.18274 0.59898
vt 0.18274 0.59898
vt 0.18274 0.59898
vt 0.18274 0.59898
vt 0.18274 0.59898
vt 0.18274 0.59898
vt 0.15873 0.52830
vt 0.15873 0.52830
vt 0.15873 0.52830
vt 0.15873 0.52830
vn 0.9098 0.4150 0.0045
vn 0.9343 0.3488 -0.0735
vn 0.9381 0.3434 -0.0455
vn 0.1170 -0.2689 -0.9560
vn 0.1028 -0.2561 -0.9612
vn 0.1299 -0.2734 -0.9531
vn -0.0721 -0.9598 0.2714
vn -0.0596 -0.9438 0.3249
vn -0.0322 -0.9558 0.2924
vn 0.9314 0.3611 -0.0468
vn 0.9111 0.4075 0.0616
vn 0.9026 0.4304 -0.0038
vn 0.0877 -0.2468 -0.9651
vn 0.0291 0.9107 -0.4121
vn 0.1180 0.8328 -0.5409
vn 0.0023 0.9399 -0.3415
vn 0.9253 0.3119 -0.2160
vn 0.7760 0.3763 -0.5061
vn 0.9001 0.4128 -0.1393
vn -0.0980 -0.9700 0.2225
vn -0.1039 -0.9660 0.2367
vn -0.1155 -0.9477 0.2976
vn 0.0770 -0.2291 -0.9703
vn 0.0993 0.0775 -0.9921
vn 0.0953 0.0871 -0.9916
vn 0.0939 0.0903 -0.9915
vn 0.1013 0.0727 -0.9922
vn -0.9164 -0.3323 0.2233
vn -0.9173 -0.3262 0.2283
vn -0.9125 -0.3795 0.1527
vn -0.5510 -0.1104 0.8271
vn -0.5107 -0.0724 0.8567
vn -0.5471 -0.1006 0.8310
vn -0.9100 -0.3607 0.2045
vn -0.0427 0.9498 -0.3101
vn -0.0833 -0.9477 0.3081
vn -0.9098 -0.3398 0.2382
vn 0.9754 0.2187 0.0267
vn 0.7055 -0.1705 0.6880
vn 0.4806 -0.2424 0.8428
vn 0.4238 -0.2561 0.8689
vn -0.0359 0.9467 -0.3202
vn -0.0367 0.9222 -0.3849
vn 0.7265 -0.1619 0.6679
vn -0.5035 -0.0717 0.8610
vn 0.4122 -0.6459 -0.6425
vn 0.4122 -0.6459 -0.6425
vn 0.4122 -0.6459 -0.6425
vn -0.9097 -0.3336 0.2474
vn -0.9244 -0.3201 0.2071
vn -0.4151 -0.8789 0.2349
vn -0.4207 -0.8728 0.2473
vn -0.5353 -0.6207 0.5729
vn 0.2141 0.8972 -0.3862
vn 0.0260 0.9393 -0.3421
vn -0.4807 -0.0891 0.8724
vn 0.1604 0.8248 -0.5422
vn 0.1604 0.8248 -0.5422
vn 0.1604 0.8248 -0.5422
vn 0.7697 0.3318 -0.5453
vn 0.7870 0.3153 -0.5302
vn 0.7458 0.3257 -0.5811
vn 0.2261 0.8813 -0.4151
vn 0.6577 0.6669 0.3503
vn 0.6977 0.6404 0.3211
vn 0.8713 0.4527 0.1897
vn 0.7497 0.3195 -0.5795
vn 0.7320 -0.0513 0.6794
vn 0.7301 -0.0437 0.6820
vn 0.7601 -0.0138 0.6496
vn -0.7851 -0.1367 -0.6041
vn -0.7851 -0.1367 -0.6041
vn -0.7851 -0.1367 -0.6041
vn 0.5101 -0.8093 0.2913
vn 0.5937 -0.7598 0.2651
vn 0.6138 -0.7455 0.2598
vn 0.5717 -0.7776 0.2619
vn 0.7680 0.2044 -0.6069
vn -0.0797 0.9569 -0.2793
vn -0.2375 0.9325 -0.2721
vn -0.9507 -0.2854 0.1209
vn -0.9357 -0.3297 0.1255
vn 0.4916 -0.8163 0.3032
vn 0.7324 -0.0592 0.6783
vn 0.5274 0.7859 0.3229
vn 0.5468 0.7171 0.4322
vn 0.9294 0.1801 -0.3224
vn 0.9739 0.2156 -0.0713
vn 0.8559 0.1738 -0.4871
vn -0.9215 -0.3853 0.0478
vn 0.2015 -0.5325 0.8221
vn 0.2015 -0.5325 0.8221
vn 0.2015 -0.5325 0.8221
vn 0.8603 0.1104 -0.4978
vn 0.8407 0.1712 -0.5136
vn 0.8841 0.2228 -0.4108
vn 0.6404 -0.7675 -0.0311
vn 0.4684 -0.8800 0.0786
vn 0.3661 -0.8922 0.2644
vn -0.9117 -0.4109 -0.0063
vn -0.3677 0.0751 -0.9270
vn -0.3590 -0.0405 -0.9324
vn -0.3569 -0.0146 -0.9340
vn -0.4094 -0.8849 0.2221
vn -0.3072 0.2406 -0.9207
vn -0.5137 -0.1581 -0.8433
vn -0.4802 -0.1361 -0.8666
vn -0.4669 -0.1391 -0.8734
vn 0.4664 -0.8326 0.2989
vn 0.8868 0.2376 -0.3964
vn -0.9551 -0.2621 0.1385
vn -0.2259 0.9121 -0.3421
vn -0.0704 0.9107 -0.4070
vn -0.2258 0.9196 -0.3216
vn -0.4801 -0.1352 -0.8668
vn -0.4970 -0.1542 -0.8540
vn 0.9475 -0.2320 0.2204
vn 0.9475 -0.2320 0.2204
vn 0.9475 -0.2320 0.2204
vn -0.2189 0.9275 -0.3032
vn -0.1960 -0.8237 -0.5321
vn -0.1960 -0.8237 -0.5321
vn -0.1960 -0.8237 -0.5321
vn 0.4831 -0.8257 0.2913
vn 0.9164 0.2285 -0.3285
vn 0.9080 0.2831 -0.3088
vn -0.1839 -0.0513 -0.9816
vn -0.1042 -0.1062 -0.9888
vn -0.1721 -0.0521 -0.9837
vn 0.5201 0.7165 0.4650
vn 0.9099 0.2875 -0.2991
vn 0.5242 0.7454 0.4119
vn 0.5077 0.7181 0.4760
vn -0.0041 -0.9096 -0.4155
vn 0.0757 -0.9195 -0.3858
vn 0.2491 -0.9206 -0.3007
vn 0.3741 -0.8600 -0.3472
vn -0.3448 0.0353 -0.9380
vn 0.7347 -0.0613 0.6755
vn -0.4476 0.3236 -0.8336
vn -0.4569 0.2912 -0.8406
vn -0.3971 0.2443 -0.8846
vn -0.2814 0.8777 -0.3878
vn 0.2054 0.8213 0.5321
vn 0.9313 -0.2833 0.2293
vn 0.9512 -0.0337 0.3067
vn 0.9437 -0.1235 0.3069
vn 0.8806 0.1764 -0.4398
vn -0.2036 -0.8512 -0.4837
vn -0.0852 -0.8802 -0.4670
vn 0.2942 0.3100 -0.9040
vn 0.5232 0.7651 0.3754
vn 0.8957 0.0890 -0.4356
vn 0.3438 -0.8387 0.4224
vn 0.3600 -0.8673 0.3438
vn 0.2931 -0.8779 0.3787
vn -0.3552 0.8669 -0.3497
vn -0.2850 0.9102 -0.3003
vn -0.3169 0.8919 -0.3228
vn 0.5188 -0.7910 -0.3241
vn 0.5188 -0.7910 -0.3241
vn 0.5188 -0.7910 -0.3241
vn 0.9036 -0.3364 0.2650
vn 0.5472 0.8206 -0.1651
vn 0.4601 -0.8319 0.3103
vn 0.5375 -0.6894 -0.4856
vn 0.1743 -0.8310 -0.5283
vn 0.1654 -0.8605 -0.4819
vn 0.1931 -0.7518 -0.6305
vn 0.3217 0.3054 -0.8962
vn 0.4954 0.8650 -0.0802
vn 0.2236 -0.5212 -0.8237
vn -0.3978 0.8354 -0.3792
vn 0.0840 0.0451 -0.9954
vn 0.8211 0.0389 -0.5693
vn 0.8049 0.0395 -0.5920
vn 0.7884 0.0399 -0.6138
vn -0.8157 -0.1341 -0.5627
vn -0.8157 -0.1341 -0.5627
vn -0.8157 -0.1341 -0.5627
vn 0.7908 0.1421 -0.5955
vn 0.7733 0.2536 -0.5812
vn 0.7994 0.0818 -0.5952
vn 0.7926 0.0472 -0.6078
vn 0.7636 0.0406 -0.6444
vn 0.9476 0.1526 -0.2807
vn -0.0470 -0.3836 -0.9223
vn -0.0369 -0.3445 -0.9381
vn -0.0414 -0.3618 -0.9314
vn 0.1440 0.8651 -0.4805
vn 0.7054 -0.5107 -0.4915
vn 0.8234 -0.0715 -0.5629
vn 0.7433 -0.4055 -0.5319
vn 0.7347 -0.0611 0.6757
vn 0.9433 0.1304 -0.3050
vn 0.5306 0.7379 -0.4171
vn 0.9225 0.0454 -0.3835
vn 0.2141 -0.9768 0.0063
vn 0.7689 0.3010 -0.5640
vn 0.4000 -0.6750 -0.6201
vn -0.0311 -0.3215 -0.9464
vn 0.0759 -0.9970 -0.0142
vn 0.7638 0.3093 -0.5665
vn 0.7561 0.3003 -0.5815
vn 0.8495 0.0015 -0.5277
vn 0.8601 -0.0309 -0.5092
vn 0.8650 0.0066 -0.5017
vn 0.8476 0.0183 -0.5303
vn 0.8581 0.0525 -0.5109
vn 0.7555 0.2936 -0.5857
vn 0.8555 0.0578 -0.5145
vn -0.3457 -0.4566 -0.8198
vn -0.0664 -0.3271 -0.9427
vn 0.0767 -0.2663 -0.9608
vn 0.3259 0.3136 -0.8918
vn -0.4721 0.3567 -0.8061
vn 0.8509 0.0551 -0.5225
vn -0.3596 -0.4836 -0.7981
vn -0.4164 -0.1079 -0.9027
vn 0.2954 -0.7293 -0.6172
vn 0.9368 -0.3156 0.1510
vn 0.5887 -0.6249 0.5128
vn 0.5499 -0.5664 0.6138
vn 0.5928 -0.6273 0.5052
vn 0.6101 -0.6635 0.4331
vn -0.5839 -0.2097 -0.7843
vn 0.5819 0.7832 -0.2191
vn 0.5819 0.7832 -0.2191
vn 0.5819 0.7832 -0.2191
vn -0.3229 -0.5275 -0.7858
vn -0.5325 0.6311 -0.5641
vn -0.5501 0.6518 -0.5221
vn -0.5461 0.6689 -0.5044
vn 0.1837 0.7501 -0.6353
vn 0.2790 -0.9497 0.1420
vn 0.5612 -0.6738 0.4806
vn -0.5172 0.2684 -0.8127
vn -0.4832 0.3352 -0.8088
vn -0.9336 -0.1000 0.3440
vn -0.9196 -0.0353 0.3912
vn -0.9126 -0.2108 0.3503
vn 0.6171 -0.4195 0.6658
vn 0.6535 -0.4853 0.5808
vn 0.6037 -0.6197 0.5015
vn -0.1364 0.9885 0.0650
vn -0.1364 0.9885 0.0650
vn -0.1364 0.9885 0.0650
vn 0.9632 -0.2603 0.0666
vn -0.1966 -0.5382 -0.8195
vn -0.8848 -0.1709 0.4334
vn -0.8667 -0.1149 0.4855
vn -0.8626 -0.0953 0.4969
vn 0.2709 0.7811 0.5626
vn 0.2709 0.7811 0.5626
vn 0.2709 0.7811 0.5626
vn -0.6927 0.4774 -0.5405
vn -0.5745 0.6595 -0.4847
vn -0.9868 -0.1611 -0.0106
vn 0.6236 -0.4410 0.6455
vn 0.8844 -0.3266 -0.3332
vn 0.8844 -0.3266 -0.3332
vn 0.8844 -0.3266 -0.3332
vn 0.4245 -0.8678 0.2583
vn 0.4237 -0.8589 0.2878
vn 0.5303 0.1331 -0.8373
vn 0.5303 0.1331 -0.8373
vn 0.5303 0.1331 -0.8373
vn -0.8438 -0.2268 0.4864
vn -0.3930 0.8932 -0.2186
vn -0.3946 0.8911 -0.2242
vn -0.3827 0.9055 -0.1832
vn 0.1920 0.7355 -0.6497
vn -0.5705 0.7039 -0.4232
vn 0.3513 -0.9040 0.2437
vn -0.6619 -0.2874 0.6924
vn -0.5798 -0.3305 0.7447
vn -0.3031 -0.5546 0.7749
vn -0.2820 -0.4862 0.8270
vn -0.0241 0.7486 0.6626
vn -0.0241 0.7486 0.6626
vn -0.0241 0.7486 0.6626
vn -0.8493 -0.1942 0.4909
vn 0.4435 -0.2939 -0.8467
vn 0.4192 -0.4076 -0.8113
vn 0.4677 -0.4076 -0.7843
vn 0.3253 -0.9233 0.2041
vn 0.3651 -0.8984 0.2440
vn 0.3251 -0.9207 0.2161
vn -0.2825 0.9394 -0.1942
vn -0.2616 0.9462 -0.1906
vn -0.2728 0.9421 -0.1947
vn -0.6191 -0.4690 -0.6299
vn -0.6191 -0.4690 -0.6299
vn -0.6191 -0.4690 -0.6299
vn 0.3953 -0.1818 -0.9003
vn -0.8749 -0.1736 0.4522
vn -0.0353 -0.7297 0.6829
vn 0.6828 -0.4960 0.5365
vn 0.6515 -0.5146 0.5574
vn -0.3153 0.9292 -0.1931
vn 0.1970 0.7343 -0.6496
vn 0.2040 -0.2096 -0.9563
vn 0.2777 0.3262 -0.9036
vn -0.7533 -0.2321 0.6153
vn 0.2883 0.3540 -0.8897
vn -0.2652 -0.9454 -0.1897
vn -0.0980 -0.9950 -0.0198
vn -0.1180 -0.9922 -0.0399
vn 0.2861 -0.2035 -0.9363
vn 0.4721 -0.0573 -0.8797
vn 0.1436 -0.9840 -0.1056
vn 0.1436 -0.9840 -0.1056
vn 0.1436 -0.9840 -0.1056
vn -0.3515 0.9180 -0.1837
vn -0.3436 0.9209 -0.1840
vn -0.3810 0.9072 -0.1783
vn 0.4948 -0.8161 0.2986
vn 0.4948 -0.8161 0.2986
vn 0.4948 -0.8161 0.2986
vn -0.7787 -0.1004 -0.6192
vn -0.7259 -0.0635 -0.6848
vn -0.9153 -0.2351 -0.3270
vn -0.8100 -0.4006 -0.4282
vn -0.9016 -0.1725 0.3968
vn -0.8720 -0.3330 -0.3587
vn -0.5657 0.6147 -0.5497
vn -0.6951 0.5338 -0.4816
vn -0.6624 0.6305 -0.4045
vn -0.9408 0.1940 0.2780
vn -0.9408 0.1940 0.2780
vn -0.9408 0.1940 0.2780
vn -0.9078 -0.2331 0.3484
vn -0.9169 -0.2542 0.3078
vn -0.2899 -0.9325 -0.2153
vn -0.6902 -0.4009 -0.6023
vn -0.6475 -0.3659 -0.6685
vn -0.9369 -0.0186 0.3490
vn 0.5124 0.1147 -0.8511
vn 0.5154 0.0710 -0.8540
vn 0.5131 0.0534 -0.8567
vn 0.2806 -0.9555 0.0914
vn 0.3199 -0.9189 0.2306
vn -0.3868 0.9207 -0.0522
vn -0.3868 0.9207 -0.0522
vn -0.3868 0.9207 -0.0522
vn 0.5152 0.0281 -0.8566
vn -0.9073 0.0151 0.4202
vn -0.4240 -0.6161 -0.6638
vn -0.4214 -0.6170 -0.6646
vn -0.4272 -0.6149 -0.6628
vn -0.8946 -0.0107 0.4466
vn 0.3975 -0.8788 0.2640
vn -0.7943 0.1689 -0.5836
vn -0.7296 0.1028 -0.6761
vn -0.7818 0.2632 -0.5653
vn 0.3642 -0.9297 -0.0553
vn 0.3642 -0.9297 -0.0553
vn 0.3642 -0.9297 -0.0553
vn -0.3568 0.2842 -0.8899
vn -0.3568 0.2842 -0.8899
vn -0.3568 0.2842 -0.8899
vn 0.5099 0.1279 -0.8507
vn 0.6386 0.0124 -0.7694
vn 0.5237 0.0497 -0.8505
vn -0.4147 -0.6194 -0.6666
vn -0.0208 0.8352 -0.5496
vn -0.4214 0.8320 -0.3609
vn -0.1950 0.8735 -0.4462
vn 0.7783 -0.2966 -0.5535
vn 0.8297 -0.3138 -0.4617
vn 0.7869 -0.3076 -0.5350
vn 0.6991 -0.3358 -0.6312
vn 0.7315 -0.3015 -0.6116
vn 0.7799 -0.2711 -0.5641
vn 0.7794 -0.2988 -0.5506
vn 0.2008 0.8516 -0.4842
vn 0.5004 0.0483 -0.8644
vn 0.2605 -0.9538 0.1497
vn 0.4144 -0.8732 0.2566
vn 0.4489 -0.8588 0.2469
vn 0.6550 -0.6827 -0.3239
vn 0.6550 -0.6827 -0.3239
vn 0.6550 -0.6827 -0.3239
vn 0.4533 -0.8659 0.2117
vn 0.7387 -0.5260 0.4215
vn 0.7083 -0.6403 0.2973
vn 0.7287 -0.5817 0.3614
vn 0.9536 -0.0972 0.2848
vn 0.9536 -0.0972 0.2848
vn 0.9536 -0.0972 0.2848
vn -0.7288 0.4938 -0.4742
vn -0.7873 0.3494 -0.5080
vn 0.5129 0.0427 -0.8573
vn -0.4618 0.8442 -0.2723
vn -0.4553 0.8246 -0.3358
vn 0.7580 -0.3622 0.5426
vn -0.4968 0.7716 -0.3973
vn -0.3810 0.9072 -0.1783
vn 0.5761 -0.6755 0.4602
vn 0.4201 -0.6891 0.5905
vn 0.5084 0.0570 -0.8592
vn -0.3021 -0.9528 0.0289
vn -0.3021 -0.9528 0.0289
vn -0.3021 -0.9528 0.0289
vn -0.1173 0.8545 -0.5061
vn -0.1960 0.8884 -0.4150
vn -0.0983 0.8447 -0.5260
vn -0.4786 0.8574 -0.1894
vn -0.0655 0.9683 0.2410
vn -0.0655 0.9683 0.2410
vn -0.0655 0.9683 0.2410
vn 0.4587 -0.8591 0.2271
vn -0.1463 -0.5289 0.8360
vn -0.1772 -0.4908 0.8531
vn -0.1793 -0.4882 0.8541
vn 0.3537 -0.6849 0.6371
vn 0.2982 -0.9211 0.2505
vn -0.9185 -0.2975 -0.2606
vn -0.9362 -0.3343 -0.1081
vn -0.9361 -0.3510 -0.0232
vn -0.5221 -0.4884 -0.6991
vn -0.5221 -0.4884 -0.6991
vn -0.5221 -0.4884 -0.6991
vn 0.6133 -0.5186 0.5958
vn -0.9110 -0.2878 -0.2953
vn -0.4609 -0.1126 0.8803
vn -0.5209 -0.0572 0.8516
vn -0.4035 0.0037 0.9150
vn -0.7406 -0.2181 0.6355
vn -0.7110 -0.1903 0.6769
vn -0.6027 -0.1896 0.7752
vn -0.7982 -0.1372 0.5866
vn -0.8107 -0.1795 0.5573
vn -0.0717 -0.2058 -0.9760
vn -0.0717 -0.2058 -0.9760
vn -0.0717 -0.2058 -0.9760
vn -0.6197 -0.1191 0.7758
vn -0.7950 -0.3808 0.4722
vn -0.1399 -0.5364 0.8323
vn 0.1779 0.6202 -0.7640
vn 0.1779 0.6202 -0.7640
vn 0.1779 0.6202 -0.7640
vn -0.6034 -0.0706 0.7944
vn -0.8033 -0.3881 -0.4519
vn -0.7956 -0.4016 -0.4537
vn -0.7898 -0.4113 -0.4550
vn -0.7075 -0.2964 0.6415
vn 0.6461 -0.7613 0.0550
vn 0.8456 -0.5319 -0.0451
vn 0.7837 -0.6208 -0.0227
vn 0.4266 -0.8624 0.2725
vn -0.1571 -0.5676 -0.8082
vn -0.2400 -0.6814 -0.6913
vn 0.3050 -0.7007 -0.6450
vn -0.5316 0.7052 -0.4693
vn -0.1151 0.1529 -0.9815
vn -0.1151 0.1529 -0.9815
vn -0.1151 0.1529 -0.9815
vn -0.2558 0.9109 -0.3238
vn -0.7541 -0.1570 0.6378
vn -0.6608 -0.7058 0.2552
vn 0.6393 -0.5080 0.5773
vn 0.6012 -0.7009 -0.3838
vn 0.6906 -0.6037 -0.3982
vn 0.6209 -0.6836 -0.3837
vn -0.1966 -0.8011 0.5654
vn -0.1966 -0.8011 0.5654
vn -0.1966 -0.8011 0.5654
vn -0.6775 -0.2336 0.6974
vn -0.4867 0.8370 -0.2501
vn 0.0470 0.0234 0.9986
vn 0.0470 0.0234 0.9986
vn 0.0470 0.0234 0.9986
vn 0.6354 -0.7714 -0.0354
vn -0.7403 -0.2175 0.6362
vn -0.3141 0.9377 -0.1485
vn -0.3654 -0.8190 0.4425
vn -0.4397 -0.7482 0.4969
vn -0.3675 -0.8779 0.3070
vn -0.3732 -0.8980 0.2333
vn -0.5415 0.7953 -0.2723
vn -0.7471 -0.0291 0.6640
vn -0.7471 -0.0291 0.6640
vn -0.7471 -0.0291 0.6640
vn 0.2224 -0.1258 0.9668
vn 0.2224 -0.1258 0.9668
vn 0.2224 -0.1258 0.9668
vn 0.0155 -0.6741 -0.7385
vn -0.5573 -0.1829 0.8099
vn -0.5611 -0.1874 0.8063
vn -0.6107 -0.1606 0.7754
vn -0.4493 -0.8894 0.0846
vn -0.7407 -0.3358 0.5819
vn -0.4929 -0.0685 0.8674
vn -0.5072 0.0639 0.8594
vn 0.4131 -0.6266 -0.6609
vn 0.6459 -0.7589 -0.0831
vn 0.2714 -0.0045 -0.9625
vn 0.2589 -0.0536 -0.9644
vn 0.2681 -0.0244 -0.9630
vn -0.7231 -0.4155 0.5517
vn -0.8512 0.1084 0.5135
vn -0.8974 0.0291 0.4402
vn -0.8998 0.0243 0.4355
vn -0.9377 -0.0702 0.3403
vn -0.8746 0.4821 0.0518
vn -0.8746 0.4821 0.0518
vn -0.8746 0.4821 0.0518
vn 0.6004 -0.6479 0.4688
vn 0.5755 -0.6362 0.5138
vn 0.5324 -0.5131 0.6732
vn -0.0762 -0.3076 0.9484
vn -0.0762 -0.3076 0.9484
vn -0.0762 -0.3076 0.9484
vn 0.4031 -0.6772 0.6155
vn -0.6018 0.1872 0.7765
vn -0.4610 0.0313 -0.8869
vn -0.4662 0.0216 -0.8844
vn -0.4389 0.0703 -0.8958
vn -0.4669 0.0909 0.8797
vn -0.4786 0.7685 -0.4247
vn -0.4447 0.6655 -0.5995
vn -0.3800 0.9016 -0.2067
vn -0.4353 0.8757 -0.2088
vn -0.5595 -0.1812 0.8088
vn -0.6364 -0.1790 0.7503
vn -0.2990 0.1231 0.9462
vn -0.7027 -0.1282 0.6998
vn -0.3434 0.0305 0.9387
vn -0.3448 0.0452 0.9376
vn 0.4534 -0.8584 0.2398
vn 0.4158 -0.8784 0.2354
vn -0.3893 0.8514 -0.3515
vn -0.3606 0.8056 -0.4702
vn -0.3578 0.8040 -0.4750
vn -0.4729 -0.6056 0.6400
vn -0.4729 -0.6056 0.6400
vn -0.4729 -0.6056 0.6400
vn 0.3779 0.3880 0.8407
vn 0.6974 0.4188 0.5816
vn 0.4016 0.3919 0.8277
vn -0.3588 0.8417 -0.4035
vn -0.7933 0.3607 -0.4903
vn 0.2023 -0.1125 -0.9728
vn -0.5549 0.0544 0.8302
vn -0.4806 0.2386 0.8438
vn -0.5290 0.1120 0.8412
vn -0.5169 -0.0056 0.8560
vn -0.7793 0.2106 -0.5903
vn -0.7562 0.2402 -0.6086
vn -0.7765 0.2142 -0.5926
vn -0.8581 0.2177 -0.4650
vn -0.8581 0.2177 -0.4650
vn -0.8581 0.2177 -0.4650
vn 0.7405 0.4482 0.5007
vn 0.6661 -0.6021 -0.4402
vn -0.5124 0.1133 0.8513
vn 0.3513 0.3253 0.8779
vn 0.3380 0.2990 0.8924
vn 0.3164 0.2570 0.9132
vn 0.2269 -0.1800 -0.9571
vn 0.2423 -0.2562 -0.9358
vn 0.2351 -0.2265 -0.9452
vn -0.4899 -0.0227 -0.8715
vn -0.7697 0.0364 0.6374
vn 0.6506 0.4647 0.6007
vn 0.0648 -0.9974 0.0308
vn 0.3027 0.2309 0.9247
vn -0.4275 0.8764 -0.2217
vn -0.3761 0.8520 -0.3643
vn -0.8100 -0.4109 -0.4183
vn -0.8071 -0.4294 -0.4054
vn -0.8111 -0.4039 -0.4231
vn -0.6573 -0.1913 0.7289
vn -0.6667 0.0015 0.7453
vn -0.6980 0.0628 0.7133
vn 0.7125 -0.5852 -0.3872
vn -0.8146 -0.1817 0.5508
vn -0.8205 -0.1234 0.5583
vn -0.8175 -0.1710 0.5500
vn -0.8200 -0.1169 0.5603
vn 0.2421 -0.1327 -0.9612
vn -0.7544 -0.1018 0.6485
vn -0.7983 0.1844 -0.5734
vn -0.3661 0.8231 -0.4341
vn -0.5233 -0.0082 0.8521
vn -0.5127 -0.0113 0.8585
vn -0.5214 -0.0189 0.8531
vn 0.4590 0.3991 0.7938
vn 0.4157 0.3812 0.8258
vn 0.4226 -0.6255 0.6559
vn 0.3568 -0.7704 0.5283
vn -0.8073 -0.1032 0.5810
vn -0.5289 -0.0113 0.8486
vn -0.6582 -0.1798 0.7311
vn -0.4328 0.8755 -0.2150
vn -0.4360 0.8769 -0.2024
vn -0.5409 -0.0157 0.8409
vn -0.5255 -0.0143 0.8507
vn 0.6637 0.7293 0.1664
vn 0.6637 0.7293 0.1664
vn 0.6637 0.7293 0.1664
vn -0.7553 -0.1271 0.6429
vn 0.2654 -0.9221 0.2816
vn 0.3217 -0.9030 0.2847
vn 0.3494 -0.9081 0.2306
vn -0.0376 -0.7795 -0.6253
vn -0.0376 -0.7795 -0.6253
vn -0.0376 -0.7795 -0.6253
vn -0.8372 -0.0634 0.5433
vn -0.4449 0.1561 0.8819
vn -0.4031 0.0515 0.9137
vn -0.3969 0.0485 0.9166
vn -0.5150 -0.0048 0.8572
vn -0.0187 0.9489 0.3151
vn -0.0187 0.9489 0.3151
vn -0.0187 0.9489 0.3151
vn -0.8130 -0.3894 -0.4330
vn -0.4835 0.8714 -0.0834
vn 0.2346 -0.9329 0.2734
vn 0.5907 -0.4388 0.6771
vn 0.0389 0.1752 0.9837
vn 0.0261 0.1442 0.9892
vn 0.0352 0.1663 0.9854
vn -0.4957 0.3049 0.8133
vn -0.0311 -0.5275 0.8490
vn -0.0311 -0.5275 0.8490
vn -0.0311 -0.5275 0.8490
vn -0.5666 0.0623 0.8217
vn -0.8161 -0.3646 -0.4484
vn -0.4235 0.0732 0.9029
vn 0.2491 -0.2498 -0.9357
vn -0.4594 0.1732 0.8712
vn 0.2387 -0.2490 -0.9387
vn -0.8989 -0.0121 -0.4379
vn -0.8997 -0.0103 -0.4365
vn -0.8951 -0.0101 -0.4457
vn -0.2880 0.8967 -0.3361
vn -0.2901 0.8985 -0.3295
vn -0.2509 0.8937 -0.3719
vn 0.0211 0.1323 0.9910
vn -0.8950 -0.0112 -0.4457
vn 0.2824 -0.9110 0.3007
vn -0.3124 0.8992 -0.3065
vn -0.8880 -0.0070 -0.4597
vn -0.3003 0.9100 -0.2857
vn 0.3622 0.4260 0.8291
vn 0.6139 0.3867 0.6883
vn 0.6688 0.3717 0.6438
vn 0.2975 -0.9051 0.3038
vn 0.3063 -0.9340 0.1839
vn -0.2893 0.9168 -0.2752
vn -0.9298 0.2687 0.2517
vn -0.9517 0.2139 0.2200
vn -0.9541 0.2072 0.2160
vn -0.9725 0.1469 0.1807
vn 0.3097 0.4295 0.8483
vn -0.9603 -0.2784 -0.0177
vn -0.9577 -0.2846 -0.0417
vn -0.9608 -0.2766 -0.0225
vn -0.2808 0.2407 0.9291
vn -0.2715 0.2401 0.9320
vn -0.3000 0.2545 0.9194
vn -0.2699 0.9295 -0.2514
vn -0.9626 -0.2692 -0.0296
vn -0.9617 -0.2731 -0.0248
vn -0.3517 0.3665 0.8614
vn -0.3902 0.5040 0.7706
vn -0.2697 0.2436 0.9316
vn -0.9870 -0.1563 -0.0367
vn -0.9972 0.0112 -0.0737
vn 0.2649 0.8711 -0.4137
vn 0.7060 0.2892 -0.6464
vn 0.4426 -0.8549 0.2705
vn 0.4543 -0.8706 0.1889
vn 0.6013 -0.7559 0.2587
vn 0.6244 -0.7005 0.3455
vn 0.6470 -0.6712 0.3619
vn 0.6766 -0.5070 0.5340
vn 0.0642 -0.9280 -0.3670
vn -0.0962 -0.8386 -0.5362
vn 0.7022 -0.5110 0.4958
vn 0.7472 -0.4112 0.5221
vn 0.7182 -0.4783 0.5053
vn -0.2103 -0.7723 -0.5995
vn -0.1451 -0.8705 -0.4702
vn 0.6652 -0.3152 0.6768
vn -0.1188 -0.8214 -0.5578
vn -0.3184 -0.6755 -0.6650
vn 0.6868 0.2258 -0.6909
vn 0.5737 0.0500 -0.8175
vn 0.7582 0.3329 -0.5606
vn 0.7703 0.3464 -0.5355
vn 0.7847 0.3142 -0.5344
vn 0.5263 -0.7943 0.3034
vn -0.3323 -0.5998 -0.7278
vn -0.3388 -0.6686 -0.6620
vn 0.4754 -0.8189 0.3214
vn -0.3385 -0.6693 -0.6613
vn 0.5834 -0.7343 0.3469
vn 0.8209 -0.4504 0.3510
vn 0.2920 -0.9554 -0.0440
vn 0.2752 -0.9542 0.1174
vn 0.3351 -0.9364 0.1046
vn 0.5302 -0.4380 0.7260
vn 0.5397 -0.4708 0.6979
vn 0.3134 -0.9273 0.2047
vn 0.3134 -0.9273 0.2047
vn 0.3134 -0.9273 0.2047
vn 0.4786 -0.8289 0.2895
vn 0.1417 -0.9265 0.3487
vn 0.6059 -0.5185 0.6034
vn 0.6059 -0.5185 0.6034
vn 0.9542 0.1410 -0.2641
vn 0.9786 -0.0038 -0.2057
vn 0.9772 0.0246 -0.2106
vn 0.9405 0.2273 -0.2526
vn -0.4988 -0.4060 0.7658
vn -0.5593 -0.1885 0.8073
vn -0.6149 -0.2736 0.7395
vn -0.3705 -0.5239 0.7669
vn -0.7296 0.2252 -0.6457
vn -0.7615 0.2745 -0.5871
vn -0.7316 0.2307 -0.6415
vn 0.5392 -0.4115 0.7348
vn -0.2881 -0.4807 0.8283
vn 0.9545 0.0958 -0.2825
vn -0.2549 -0.4470 0.8575
vn 0.2502 -0.8667 0.4316
vn 0.0270 -0.7684 0.6394
vn -0.3581 -0.7280 -0.5846
vn -0.3581 -0.7280 -0.5846
vn -0.3581 -0.7280 -0.5846
vn -0.7995 -0.1560 0.5801
vn -0.7995 -0.1560 0.5801
vn -0.1490 -0.9789 -0.1397
vn -0.1457 -0.9334 0.3280
vn -0.2067 -0.9702 0.1267
vn -0.2986 -0.7604 0.5768
vn 0.0109 -0.9747 -0.2231
vn -0.1210 -0.9283 -0.3516
vn -0.0334 -0.9631 -0.2673
vn -0.1109 -0.9197 -0.3767
vn -0.3987 -0.6160 0.6794
vn -0.0499 -0.6940 0.7182
vn -0.1052 -0.9182 -0.3819
vn -0.7629 0.2697 -0.5876
vn 0.5252 -0.4365 0.7304
vn -0.4523 -0.5248 0.7211
vn -0.8162 0.2917 -0.4988
vn -0.7943 0.2752 -0.5416
vn -0.8034 0.2967 -0.5161
vn -0.5021 -0.4053 0.7640
vn -0.6035 -0.5368 0.5896
vn 0.2523 -0.8931 0.3726
vn -0.1480 -0.9400 -0.3073
vn -0.2477 -0.9594 -0.1353
vn -0.4276 -0.5704 0.7013
vn -0.1395 -0.9190 -0.3689
vn -0.1389 -0.8448 0.5168
vn -0.5817 -0.3642 0.7273
vn -0.7088 -0.2708 0.6513
vn -0.7133 0.0835 -0.6959
vn -0.8288 0.2293 -0.5105
vn -0.7527 0.1935 -0.6292
vn -0.8445 0.3206 -0.4290
vn -0.6042 -0.4376 0.6659
vn -0.8540 -0.0987 0.5109
vn -0.9287 0.0145 0.3706
vn -0.8146 -0.4464 0.3704
vn -0.7857 -0.1724 0.5941
vn 0.0285 -0.9754 -0.2184
vn -0.0127 -0.9040 -0.4273
vn -0.0142 -0.9005 -0.4347
vn -0.7591 -0.2175 0.6135
vn -0.5613 -0.3453 0.7521
vn -0.7959 -0.2515 0.5507
vn -0.7651 -0.3291 0.5534
vn -0.7815 -0.3241 0.5333
vn -0.8402 -0.2386 0.4870
vn -0.7584 -0.2199 0.6137
vn -0.0460 -0.8113 -0.5828
vn -0.7042 0.0952 -0.7037
vn -0.5463 -0.8375 0.0148
vn -0.5463 -0.8375 0.0148
vn -0.5463 -0.8375 0.0148
vn -0.8862 -0.3820 0.2622
vn -0.9604 -0.2615 0.0964
vn -0.7831 0.3418 -0.5195
vn -0.8186 0.1067 -0.5645
vn -0.8642 0.1111 -0.4906
vn -0.7971 0.1046 -0.5946
vn -0.8773 0.1124 -0.4665
vn -0.3920 0.6131 -0.6859
vn -0.3920 0.6131 -0.6859
vn -0.3920 0.6131 -0.6859
vn -0.6347 -0.2894 0.7165
vn 0.0085 -0.9614 -0.2750
vn 0.0085 -0.9614 -0.2750
vn 0.0085 -0.9614 -0.2750
vn -0.7870 -0.1850 0.5886
vn -0.6367 -0.3261 0.6987
vn -0.5213 -0.5958 -0.6108
vn -0.5213 -0.5958 -0.6108
vn -0.5213 -0.5958 -0.6108
vn -0.9098 0.2894 -0.2974
vn -0.6444 -0.3794 0.6640
vn -0.9194 0.2538 -0.3003
vn 0.6059 -0.5185 0.6034
vn -0.7995 -0.1560 0.5801
vn -0.4061 -0.5962 0.6926
vn -0.4424 -0.5822 0.6822
vn 0.0000 1.0000 0.0000
vn 0.0000 1.0000 0.0000
vn 0.0000 1.0000 0.0000
vn 0.0000 1.0000 0.0000
vn 0.0000 1.0000 0.0000
vn 0.0000 1.0000 0.0000
vn 0.0000 1.0000 0.0000
vn 0.0000 1.0000 0.0000
vn 0.0000 1.0000 0.0000
vn 0.0000 1.0000 0.0000
vn 0.0000 1.0000 0.0000
vn 0.0000 1.0000 0.0000
vn 0.0000 1.0000 0.0000
vn 0.0000 1.0000 0.0000
vn 0.0000 1.0000 0.0000
vn 0.0000 1.0000 0.0000
vn 0.0000 1.0000 0.0000
vn 0.0000 1.0000 0.0000
vn 0.0000 1.0000 0.0000
vn 0.0000 1.0000 0.0000
vn 0.0000 1.0000 0.0000
vn 0.0000 1.0000 0.0000
vn 0.0000 1.0000 0.0000
vn 0.0000 1.0000 0.0000
vn 0.0000 1.0000 0.0000
vn 0.0000 1.0000 0.0000
vn 0.0000 1.0000 0.0000
vn 0.0000 1.0000 0.0000
vn 0.0000 1.0000 0.0000
vn 0.0000 1.0000 0.0000
vn 0.0000 1.0000 0.0000
vn 0.0000 1.0000 0.0000
vn 0.0000 1.0000 0.0000
vn 0.0000 1.0000 0.0000
vn 0.0000 1.0000 0.0000
vn 0.0000 1.0000 0.0000
vn 0.0000 1.0000 0.0000
f 1/1/1 2/2/2 3/3/3
f 4/4/4 5/5/5 6/6/6
f 7/7/7 8/8/8 9/9/9
f 10/10/10 1/1/1 3/3/3
f 11/11/11 12/12/12 10/10/10
f 10/10/10 3/3/3 11/11/11
f 5/5/5 4/4/4 13/13/13
f 14/14/14 15/15/15 16/16/16
f 10/10/10 12/12/12 17/17/17
f 18/18/18 12/12/12 19/19/19
f 20/20/20 21/21/21 22/22/22
f 21/21/21 20/20/20 7/7/7
f 23/23/23 5/5/5 13/13/13
f 24/24/24 25/25/25 26/26/26
f 27/27/27 25/25/25 24/24/24
f 28/28/28 29/29/29 30/30/30
f 31/31/31 32/32/32 33/33/33
f 30/30/30 34/34/34 28/28/28
f 16/16/16 35/35/35 14/14/14
f 36/36/36 7/7/7 20/20/20
f 29/29/29 37/37/37 30/30/30
f 7/7/7 36/36/36 8/8/8
f 17/17/17 38/38/38 10/10/10
f 39/39/39 40/40/40 41/41/41
f 42/42/42 14/14/14 43/43/43
f 40/40/40 39/39/39 44/44/44
f 32/32/32 45/45/45 33/33/33
f 46/46/46 47/47/47 48/48/48
f 43/43/43 14/14/14 35/35/35
f 17/17/17 12/12/12 18/18/18
f 49/49/49 34/34/34 30/30/30
f 49/49/49 30/30/30 50/50/50
f 51/51/51 52/52/52 53/53/53
f 672/672/672 54/54/54 55/55/55
f 56/56/56 45/45/45 32/32/32
f 57/57/57 58/58/58 59/59/59
f 60/60/60 17/17/17 61/61/61
f 60/60/60 61/61/61 62/62/62
f 55/55/55 63/63/63 672/672/672
f 64/64/64 65/65/65 66/66/66
f 18/18/18 67/67/67 61/61/61
f 68/68/68 69/69/69 70/70/70
f 61/61/61 17/17/17 18/18/18
f 71/71/71 72/72/72 73/73/73
f 673/673/673 67/67/67 18/18/18
f 74/74/74 75/75/75 76/76/76
f 74/74/74 76/76/76 77/77/77
f 673/673/673 78/78/78 67/67/67
f 55/55/55 79/79/79 63/63/63
f 55/55/55 80/80/80 79/79/79
f 50/50/50 81/81/81 82/82/82
f 74/74/74 83/83/83 75/75/75
f 68/68/68 84/84/84 69/69/69
f 85/85/85 64/64/64 86/86/86
f 87/87/87 88/88/88 89/89/89
f 30/30/30 90/90/90 50/50/50
f 91/91/91 92/92/92 93/93/93
f 90/90/90 81/81/81 50/50/50
f 89/89/89 94/94/94 87/87/87
f 95/95/95 96/96/96 89/89/89
f 96/96/96 94/94/94 89/89/89
f 97/97/97 98/98/98 99/99/99
f 90/90/90 30/30/30 100/100/100
f 85/85/85 65/65/65 64/64/64
f 101/101/101 102/102/102 103/103/103
f 51/51/51 104/104/104 52/52/52
f 101/101/101 103/103/103 105/105/105
f 106/106/106 107/107/107 108/108/108
f 74/74/74 109/109/109 83/83/83
f 110/110/110 96/96/96 95/95/95
f 81/81/81 111/111/111 82/82/82
f 112/112/112 113/113/113 114/114/114
f 107/107/107 115/115/115 116/116/116
f 117/117/117 118/118/118 119/119/119
f 114/114/114 113/113/113 120/120/120
f 121/121/121 122/122/122 123/123/123
f 74/74/74 124/124/124 109/109/109
f 125/125/125 110/110/110 126/126/126
f 127/127/127 128/128/128 129/129/129
f 105/105/105 127/127/127 129/129/129
f 85/85/85 86/86/86 130/130/130
f 107/107/107 106/106/106 115/115/115
f 110/110/110 125/125/125 96/96/96
f 96/96/96 125/125/125 131/131/131
f 65/65/65 85/85/85 132/132/132
f 85/85/85 130/130/130 133/133/133
f 134/134/134 135/135/135 136/136/136
f 135/135/135 137/137/137 136/136/136
f 129/129/129 138/138/138 105/105/105
f 84/84/84 68/68/68 139/139/139
f 140/140/140 141/141/141 142/142/142
f 143/143/143 112/112/112 114/114/114
f 85/85/85 144/144/144 132/132/132
f 145/145/145 146/146/146 147/147/147
f 125/125/125 126/126/126 148/148/148
f 134/134/134 149/149/149 150/150/150
f 150/150/150 135/135/135 134/134/134
f 132/132/132 152/152/152 65/65/65
f 148/148/148 153/153/153 125/125/125
f 154/154/154 155/155/155 156/156/156
f 157/157/157 158/158/158 159/159/159
f 160/160/160 161/161/161 162/162/162
f 145/145/145 147/147/147 163/163/163
f 138/138/138 101/101/101 105/105/105
f 133/133/133 164/164/164 85/85/85
f 83/83/83 109/109/109 165/165/165
f 137/137/137 166/166/166 136/136/136
f 167/167/167 168/168/168 169/169/169
f 85/85/85 164/164/164 171/171/171
f 167/167/167 169/169/169 172/172/172
f 159/159/159 173/173/173 157/157/157
f 138/138/138 129/129/129 174/174/174
f 175/175/175 176/176/176 177/177/177
f 178/178/178 179/179/179 180/180/180
f 181/181/181 182/182/182 183/183/183
f 181/181/181 183/183/183 184/184/184
f 177/177/177 176/176/176 185/185/185
f 153/153/153 186/186/186 125/125/125
f 187/187/187 188/188/188 189/189/189
f 112/112/112 190/190/190 113/113/113
f 191/191/191 192/192/192 193/193/193
f 68/68/68 194/194/194 139/139/139
f 186/186/186 153/153/153 195/195/195
f 171/171/171 164/164/164 196/196/196
f 153/153/153 197/197/197 195/195/195
f 98/98/98 198/198/198 99/99/99
f 199/199/199 182/182/182 181/181/181
f 137/137/137 200/200/200 166/166/166
f 188/188/188 201/201/201 189/189/189
f 154/154/154 156/156/156 202/202/202
f 182/182/182 203/203/203 204/204/204
f 182/182/182 199/199/199 203/203/203
f 205/205/205 206/206/206 207/207/207
f 205/205/205 208/208/208 206/206/206
f 193/193/193 192/192/192 205/205/205
f 192/192/192 209/209/209 205/205/205
f 208/208/208 205/205/205 209/209/209
f 203/203/203 210/210/210 204/204/204
f 212/212/212 213/213/213 214/214/214
f 215/215/215 151/151/151 170/170/170
f 216/216/216 141/141/141 140/140/140
f 211/211/211 217/217/217 208/208/208
f 212/212/212 218/218/218 213/213/213
f 219/219/219 115/115/115 106/106/106
f 154/154/154 99/99/99 155/155/155
f 200/200/200 220/220/220 166/166/166
f 163/163/163 221/221/221 145/145/145
f 222/222/222 223/223/223 224/224/224
f 224/224/224 225/225/225 222/222/222
f 219/219/219 106/106/106 226/226/226
f 227/227/227 228/228/228 229/229/229
f 218/218/218 212/212/212 230/230/230
f 231/231/231 232/232/232 233/233/233
f 190/190/190 234/234/234 113/113/113
f 99/99/99 235/235/235 155/155/155
f 236/236/236 222/222/222 225/225/225
f 237/237/237 141/141/141 238/238/238
f 155/155/155 235/235/235 156/156/156
f 239/239/239 240/240/240 241/241/241
f 242/242/242 243/243/243 244/244/244
f 238/238/238 141/141/141 216/216/216
f 245/245/245 246/246/246 247/247/247
f 145/145/145 221/221/221 248/248/248
f 218/218/218 230/230/230 249/249/249
f 250/250/250 251/251/251 252/252/252
f 99/99/99 198/198/198 235/235/235
f 253/253/253 254/254/254 255/255/255
f 233/233/233 256/256/256 257/257/257
f 251/251/251 250/250/250 241/241/241
f 251/251/251 241/241/241 258/258/258
f 244/244/244 259/259/259 242/242/242
f 260/260/260 261/261/261 262/262/262
f 263/263/263 264/264/264 109/109/109
f 265/265/265 266/266/266 267/267/267
f 241/241/241 250/250/250 268/268/268
f 269/269/269 270/270/270 271/271/271
f 272/272/272 113/113/113 234/234/234
f 233/233/233 273/273/273 256/256/256
f 241/241/241 268/268/268 239/239/239
f 263/263/263 274/274/274 264/264/264
f 275/275/275 276/276/276 277/277/277
f 278/278/278 277/277/277 276/276/276
f 268/268/268 276/276/276 275/275/275
f 279/279/279 280/280/280 281/281/281
f 268/268/268 282/282/282 239/239/239
f 283/283/283 284/284/284 285/285/285
f 282/282/282 240/240/240 239/239/239
f 232/232/232 273/273/273 233/233/233
f 286/286/286 287/287/287 288/288/288
f 289/289/289 290/290/290 291/291/291
f 292/292/292 293/293/293 294/294/294
f 285/285/285 295/295/295 283/283/283
f 240/240/240 282/282/282 296/296/296
f 297/297/297 277/277/277 278/278/278
f 243/243/243 298/298/298 299/299/299
f 289/289/289 291/291/291 300/300/300
f 272/272/272 234/234/234 301/301/301
f 283/283/283 295/295/295 302/302/302
f 151/151/151 215/215/215 303/303/303
f 679/679/679 678/678/678 677/677/677
f 304/304/304 268/268/268 275/275/275
f 304/304/304 282/282/282 268/268/268
f 305/305/305 303/303/303 215/215/215
f 306/306/306 307/307/307 308/308/308
f 295/295/295 309/309/309 302/302/302
f 124/124/124 674/674/674 109/109/109
f 302/302/302 309/309/309 310/310/310
f 311/311/311 312/312/312 313/313/313
f 300/300/300 314/314/314 315/315/315
f 316/316/316 269/269/269 271/271/271
f 317/317/317 318/318/318 319/319/319
f 320/320/320 321/321/321 322/322/322
f 289/289/289 300/300/300 315/315/315
f 682/682/682 683/683/683 684/684/684
f 320/320/320 322/322/322 323/323/323
f 282/282/282 324/324/324 296/296/296
f 323/323/323 322/322/322 325/325/325
f 286/286/286 274/274/274 287/287/287
f 232/232/232 231/231/231 326/326/326
f 273/273/273 327/327/327 328/328/328
f 329/329/329 330/330/330 331/331/331
f 332/332/332 333/333/333 324/324/324
f 282/282/282 332/332/332 324/324/324
f 306/306/306 308/308/308 334/334/334
f 323/323/323 335/335/335 336/336/336
f 333/333/333 337/337/337 324/324/324
f 323/323/323 325/325/325 335/335/335
f 338/338/338 339/339/339 340/340/340
f 341/341/341 342/342/342 286/286/286
f 343/343/343 344/344/344 345/345/345
f 340/340/340 339/339/339 310/310/310
f 310/310/310 309/309/309 346/346/346
f 347/347/347 324/324/324 337/337/337
f 348/348/348 349/349/349 350/350/350
f 351/351/351 347/347/347 337/337/337
f 352/352/352 287/287/287 274/274/274
f 353/353/353 354/354/354 355/355/355
f 356/356/356 357/357/357 358/358/358
f 359/359/359 360/360/360 361/361/361
f 674/674/674 263/263/263 109/109/109
f 310/310/310 346/346/346 340/340/340
f 354/354/354 327/327/327 355/355/355
f 362/362/362 338/338/338 340/340/340
f 363/363/363 364/364/364 346/346/346
f 688/688/688 681/681/681 680/680/680
f 349/349/349 348/348/348 365/365/365
f 286/286/286 288/288/288 341/341/341
f 366/366/366 367/367/367 368/368/368
f 369/369/369 370/370/370 371/371/371
f 689/689/689 686/686/686 685/685/685
f 690/690/690 691/691/691 692/692/692
f 263/263/263 352/352/352 274/274/274
f 371/371/371 372/372/372 373/373/373
f 690/690/690 692/692/692 693/693/693
f 374/374/374 375/375/375 372/372/372
f 366/366/366 368/368/368 376/376/376
f 377/377/377 346/346/346 364/364/364
f 694/694/694 693/693/693 692/692/692
f 378/378/378 379/379/379 380/380/380
f 244/244/244 243/243/243 299/299/299
f 375/375/375 373/373/373 372/372/372
f 369/369/369 371/371/371 373/373/373
f 381/381/381 382/382/382 383/383/383
f 244/244/244 384/384/384 675/675/675
f 385/385/385 386/386/386 387/387/387
f 388/388/388 389/389/389 390/390/390
f 695/695/695 677/677/677 676/676/676
f 355/355/355 391/391/391 392/392/392
f 689/689/689 685/685/685 696/696/696
f 346/346/346 377/377/377 393/393/393
f 394/394/394 367/367/367 395/395/395
f 697/697/697 689/689/689 696/696/696
f 695/695/695 698/698/698 677/677/677
f 391/391/391 355/355/355 327/327/327
f 696/696/696 699/699/699 697/697/697
f 385/385/385 387/387/387 396/396/396
f 397/397/397 273/273/273 232/232/232
f 316/316/316 271/271/271 398/398/398
f 244/244/244 399/399/399 384/384/384
f 385/385/385 400/400/400 386/386/386
f 700/700/700 701/701/701 677/677/677
f 401/401/401 340/340/340 346/346/346
f 702/702/702 703/703/703 704/704/704
f 346/346/346 393/393/393 401/401/401
f 402/402/402 403/403/403 404/404/404
f 405/405/405 406/406/406 407/407/407
f 687/687/687 705/705/705 706/706/706
f 394/394/394 408/408/408 367/367/367
f 409/409/409 410/410/410 411/411/411
f 352/352/352 263/263/263 412/412/412
f 413/413/413 414/414/414 415/415/415
f 385/385/385 416/416/416 400/400/400
f 707/707/707 708/708/708 709/709/709
f 287/287/287 417/417/417 288/288/288
f 418/418/418 419/419/419 420/420/420
f 695/695/695 710/710/710 698/698/698
f 421/421/421 422/422/422 423/423/423
f 367/367/367 408/408/408 368/368/368
f 424/424/424 244/244/244 299/299/299
f 425/425/425 419/419/419 418/418/418
f 426/426/426 427/427/427 428/428/428
f 429/429/429 430/430/430 431/431/431
f 432/432/432 429/429/429 433/433/433
f 434/434/434 435/435/435 436/436/436
f 677/677/677 698/698/698 700/700/700
f 437/437/437 428/428/428 427/427/427
f 432/432/432 433/433/433 438/438/438
f 413/413/413 439/439/439 414/414/414
f 440/440/440 441/441/441 442/442/442
f 443/443/443 437/437/437 427/427/427
f 444/444/444 445/445/445 446/446/446
f 447/447/447 429/429/429 431/431/431
f 433/433/433 429/429/429 447/447/447
f 448/448/448 449/449/449 450/450/450
f 379/379/379 451/451/451 380/380/380
f 452/452/452 453/453/453 454/454/454
f 232/232/232 326/326/326 455/455/455
f 456/456/456 457/457/457 458/458/458
f 405/405/405 459/459/459 406/406/406
f 433/433/433 460/460/460 437/437/437
f 438/438/438 433/433/433 437/437/437
f 438/438/438 437/437/437 461/461/461
f 462/462/462 244/244/244 424/424/424
f 463/463/463 454/454/454 464/464/464
f 454/454/454 463/463/463 465/465/465
f 466/466/466 467/467/467 468/468/468
f 702/702/702 704/704/704 711/711/711
f 460/460/460 469/469/469 437/437/437
f 397/397/397 470/470/470 273/273/273
f 471/471/471 472/472/472 473/473/473
f 474/474/474 448/448/448 450/450/450
f 712/712/712 809/809/809 713/713/713
f 460/460/460 475/475/475 469/469/469
f 459/459/459 476/476/476 406/406/406
f 714/714/714 715/715/715 716/716/716
f 477/477/477 478/478/478 479/479/479
f 477/477/477 479/479/479 480/480/480
f 716/716/716 717/717/717 714/714/714
f 327/327/327 481/481/481 391/391/391
f 482/482/482 483/483/483 484/484/484
f 232/232/232 455/455/455 397/397/397
f 485/485/485 486/486/486 487/487/487
f 453/453/453 488/488/488 454/454/454
f 489/489/489 490/490/490 491/491/491
f 462/462/462 399/399/399 244/244/244
f 492/492/492 480/480/480 479/479/479
f 475/475/475 493/493/493 469/469/469
f 718/718/718 719/719/719 720/720/720
f 494/494/494 489/489/489 495/495/495
f 718/718/718 720/720/720 721/721/721
f 722/722/722 723/723/723 724/724/724
f 687/687/687 725/725/725 705/705/705
f 491/491/491 495/495/495 489/489/489
f 496/496/496 454/454/454 488/488/488
f 474/474/474 450/450/450 497/497/497
f 498/498/498 499/499/499 500/500/500
f 493/493/493 501/501/501 469/469/469
f 502/502/502 503/503/503 504/504/504
f 721/721/721 726/726/726 718/718/718
f 714/714/714 717/717/717 727/727/727
f 728/728/728 718/718/718 726/726/726
f 505/505/505 504/504/504 503/503/503
f 506/506/506 507/507/507 508/508/508
f 509/509/509 510/510/510 511/511/511
f 711/711/711 729/729/729 730/730/730
f 512/512/512 513/513/513 514/514/514
f 511/511/511 510/510/510 515/515/515
f 494/494/494 495/495/495 516/516/516
f 517/517/517 518/518/518 519/519/519
f 437/437/437 520/520/520 428/428/428
f 731/731/731 732/732/732 733/733/733
f 521/521/521 397/397/397 522/522/522
f 406/406/406 523/523/523 524/524/524
f 734/734/734 735/735/735 810/810/810
f 525/525/525 437/437/437 469/469/469
f 736/736/736 737/737/737 738/738/738
f 526/526/526 495/495/495 491/491/491
f 737/737/737 739/739/739 738/738/738
f 428/428/428 520/520/520 527/527/527
f 528/528/528 495/495/495 526/526/526
f 711/711/711 704/704/704 729/729/729
f 529/529/529 530/530/530 428/428/428
f 378/378/378 531/531/531 532/532/532
f 378/378/378 380/380/380 531/531/531
f 533/533/533 534/534/534 535/535/535
f 327/327/327 273/273/273 470/470/470
f 536/536/536 537/537/537 538/538/538
f 539/539/539 540/540/540 541/541/541
f 535/535/535 542/542/542 533/533/533
f 740/740/740 741/741/741 742/742/742
f 392/392/392 391/391/391 543/543/543
f 544/544/544 499/499/499 498/498/498
f 545/545/545 546/546/546 495/495/495
f 495/495/495 528/528/528 545/545/545
f 495/495/495 546/546/546 547/547/547
f 525/525/525 548/548/548 437/437/437
f 738/738/738 743/743/743 736/736/736
f 476/476/476 523/523/523 406/406/406
f 549/549/549 550/550/550 551/551/551
f 552/552/552 553/553/553 554/554/554
f 428/428/428 527/527/527 529/529/529
f 540/540/540 555/555/555 541/541/541
f 496/496/496 556/556/556 454/454/454
f 744/744/744 738/738/738 739/739/739
f 470/470/470 397/397/397 521/521/521
f 730/730/730 729/729/729 745/745/745
f 520/520/520 437/437/437 557/557/557
f 558/558/558 559/559/559 560/560/560
f 746/746/746 736/736/736 743/743/743
f 547/547/547 516/516/516 495/495/495
f 556/556/556 464/464/464 454/454/454
f 561/561/561 562/562/562 563/563/563
f 723/723/723 747/747/747 724/724/724
f 517/517/517 564/564/564 518/518/518
f 516/516/516 547/547/547 565/565/565
f 566/566/566 555/555/555 540/540/540
f 548/548/548 557/557/557 437/437/437
f 532/532/532 567/567/567 378/378/378
f 560/560/560 559/559/559 568/568/568
f 533/533/533 569/569/569 570/570/570
f 533/533/533 570/570/570 534/534/534
f 571/571/571 572/572/572 573/573/573
f 528/528/528 526/526/526 574/574/574
f 575/575/575 576/576/576 546/546/546
f 546/546/546 545/545/545 575/575/575
f 464/464/464 556/556/556 577/577/577
f 578/578/578 579/579/579 580/580/580
f 748/748/748 705/705/705 725/725/725
f 470/470/470 481/481/481 327/327/327
f 749/749/749 811/811/811 812/812/812
f 581/581/581 580/580/580 579/579/579
f 750/750/750 751/751/751 752/752/752
f 545/545/545 528/528/528 575/575/575
f 753/753/753 730/730/730 745/745/745
f 499/499/499 561/561/561 582/582/582
f 749/749/749 754/754/754 811/811/811
f 575/575/575 583/583/583 576/576/576
f 499/499/499 544/544/544 561/561/561
f 711/711/711 730/730/730 755/755/755
f 551/551/551 584/584/584 549/549/549
f 585/585/585 533/533/533 542/542/542
f 752/752/752 751/751/751 747/747/747
f 586/586/586 587/587/587 588/588/588
f 575/575/575 528/528/528 583/583/583
f 555/555/555 566/566/566 589/589/589
f 590/590/590 589/589/589 566/566/566
f 511/511/511 515/515/515 591/591/591
f 515/515/515 592/592/592 591/591/591
f 756/756/756 757/757/757 746/746/746
f 749/749/749 812/812/812 758/758/758
f 579/579/579 593/593/593 581/581/581
f 579/579/579 576/576/576 593/593/593
f 586/586/586 588/588/588 594/594/594
f 528/528/528 595/595/595 583/583/583
f 576/576/576 583/583/583 593/593/593
f 742/742/742 741/741/741 759/759/759
f 595/595/595 528/528/528 574/574/574
f 755/755/755 760/760/760 711/711/711
f 723/723/723 752/752/752 747/747/747
f 730/730/730 753/753/753 761/761/761
f 596/596/596 597/597/597 569/569/569
f 588/588/588 598/598/598 599/599/599
f 600/600/600 601/601/601 602/602/602
f 583/583/583 595/595/595 603/603/603
f 743/743/743 756/756/756 746/746/746
f 604/604/604 605/605/605 606/606/606
f 607/607/607 608/608/608 609/609/609
f 610/610/610 583/583/583 603/603/603
f 761/761/761 753/753/753 762/762/762
f 611/611/611 612/612/612 613/613/613
f 588/588/588 599/599/599 614/614/614
f 615/615/615 616/616/616 617/617/617
f 763/763/763 764/764/764 765/765/765
f 571/571/571 573/573/573 618/618/618
f 523/523/523 619/619/619 524/524/524
f 606/606/606 620/620/620 604/604/604
f 511/511/511 591/591/591 621/621/621
f 614/614/614 594/594/594 588/588/588
f 622/622/622 623/623/623 624/624/624
f 750/750/750 752/752/752 766/766/766
f 767/767/767 754/754/754 749/749/749
f 576/576/576 625/625/625 546/546/546
f 767/767/767 770/770/770 754/754/754
f 582/582/582 561/561/561 563/563/563
f 768/768/768 771/771/771 769/769/769
f 626/626/626 627/627/627 628/628/628
f 772/772/772 773/773/773 774/774/774
f 775/775/775 762/762/762 753/753/753
f 598/598/598 629/629/629 599/599/599
f 767/767/767 749/749/749 776/776/776
f 777/777/777 778/778/778 779/779/779
f 779/779/779 780/780/780 777/777/777
f 775/775/775 753/753/753 781/781/781
f 782/782/782 774/774/774 773/773/773
f 783/783/783 764/764/764 763/763/763
f 630/630/630 445/445/445 444/444/444
f 784/784/784 785/785/785 786/786/786
f 770/770/770 787/787/787 788/788/788
f 765/765/765 764/764/764 789/789/789
f 611/611/611 631/631/631 612/612/612
f 790/790/790 791/791/791 792/792/792
f 787/787/787 770/770/770 767/767/767
f 562/562/562 632/632/632 563/563/563
f 611/611/611 546/546/546 633/633/633
f 791/791/791 790/790/790 793/793/793
f 794/794/794 795/795/795 796/796/796
f 625/625/625 633/633/633 546/546/546
f 798/798/798 799/799/799 800/800/800
f 797/797/797 767/767/767 776/776/776
f 777/777/777 801/801/801 778/778/778
f 634/634/634 563/563/563 632/632/632
f 803/803/803 804/804/804 805/805/805
f 635/635/635 636/636/636 637/637/637
f 802/802/802 807/807/807 767/767/767
f 596/596/596 569/569/569 533/533/533
f 638/638/638 639/639/639 640/640/640
f 623/623/623 641/641/641 624/624/624
f 637/637/637 642/642/642 635/635/635
f 764/764/764 808/808/808 806/806/806
f 605/605/605 604/604/604 643/643/643
f 638/638/638 644/644/644 639/639/639
f 642/642/642 637/637/637 645/645/645
f 639/639/639 644/644/644 646/646/646
f 631/631/631 611/611/611 633/633/633
f 647/647/647 648/648/648 649/649/649
f 650/650/650 643/643/643 651/651/651
f 652/652/652 646/646/646 644/644/644
f 653/653/653 654/654/654 655/655/655
f 654/654/654 656/656/656 655/655/655
f 648/648/648 647/647/647 657/657/657
f 650/650/650 605/605/605 643/643/643
f 658/658/658 659/659/659 660/660/660
f 661/661/661 662/662/662 663/663/663
f 652/652/652 664/664/664 646/646/646
f 660/660/660 665/665/665 666/666/666
f 661/661/661 663/663/663 667/667/667
f 668/668/668 667/667/667 663/663/663
f 662/662/662 661/661/661 669/669/669
f 658/658/658 670/670/670 671/671/671
f 666/666/666 670/670/670 660/660/660
f 658/658/658 660/660/660 670/670/670
f 813/813/813 814/814/814 815/815/815
f 813/813/813 815/815/815 814/814/814
f 813/813/813 815/815/815 816/816/816
f 813/813/813 816/816/816 815/815/815
f 813/813/813 816/816/816 817/817/817
f 813/813/813 817/817/817 816/816/816
f 813/813/813 817/817/817 818/818/818
f 813/813/813 818/818/818 817/817/817
f 813/813/813 818/818/818 819/819/819
f 813/813/813 819/819/819 818/818/818
f 813/813/813 819/819/819 820/820/820
f 813/813/813 820/820/820 819/819/819
f 813/813/813 820/820/820 821/821/821
f 813/813/813 821/821/821 820/820/820
f 813/813/813 821/821/821 822/822/822
f 813/813/813 822/822/822 821/821/821
f 813/813/813 822/822/822 823/823/823
f 813/813/813 823/823/823 822/822/822
f 813/813/813 823/823/823 824/824/824
f 813/813/813 824/824/824 823/823/823
f 813/813/813 824/824/824 825/825/825
f 813/813/813 825/825/825 824/824/824
f 813/813/813 825/825/825 826/826/826
f 813/813/813 826/826/826 825/825/825
f 813/813/813 826/826/826 827/827/827
f 813/813/813 827/827/827 826/826/826
f 813/813/813 827/827/827 828/828/828
f 813/813/813 828/828/828 827/827/827
f 813/813/813 828/828/828 829/829/829
f 813/813/813 829/829/829 828/828/828
f 813/813/813 829/829/829 830/830/830
f 813/813/813 830/830/830 829/829/829
f 813/813/813 830/830/830 831/831/831
f 813/813/813 831/831/831 830/830/830
f 813/813/813 831/831/831 832/832/832
f 813/813/813 832/832/832 831/831/831
f 813/813/813 832/832/832 833/833/833
f 813/813/813 833/833/833 832/832/832
f 813/813/813 833/833/833 834/834/834
f 813/813/813 834/834/834 833/833/833
f 813/813/813 834/834/834 835/835/835
f 813/813/813 835/835/835 834/834/834
f 813/813/813 835/835/835 836/836/836
f 813/813/813 836/836/836 835/835/835
f 813/813/813 836/836/836 837/837/837
f 813/813/813 837/837/837 836/836/836
f 813/813/813 837/837/837 838/838/838
f 813/813/813 838/838/838 837/837/837
f 813/813/813 838/838/838 839/839/839
f 813/813/813 839/839/839 838/838/838
f 813/813/813 839/839/839 840/840/840
f 813/813/813 840/840/840 839/839/839
f 813/813/813 840/840/840 841/841/841
f 813/813/813 841/841/841 840/840/840
f 813/813/813 841/841/841 842/842/842
f 813/813/813 842/842/842 841/841/841
f 813/813/813 842/842/842 843/843/843
f 813/813/813 843/843/843 842/842/842
f 813/813/813 843/843/843 844/844/844
f 813/813/813 844/844/844 843/843/843
f 813/813/813 844/844/844 845/845/845
f 813/813/813 845/845/845 844/844/844
f 813/813/813 845/845/845 814/814/814
f 813/813/813 814/814/814 845/845/845
f 846/846/846 847/847/847 848/848/848
f 846/846/846 848/848/848 847/847/847
f 846/846/846 848/848/848 849/849/849
f 846/846/846 849/849/849 848/848/848
f 846/846/846 849/849/849 847/847/847
f 846/846/846 847/847/847 849/849/849
