o horn_right
v 0.93349 7.60257 -5.15339
v 0.83087 7.76077 -5.14039
v 0.93785 7.80047 -5.07989
v 0.93349 7.60257 -5.15339
v 0.93785 7.80047 -5.07989
v 0.96568 7.61919 -5.05091
v 0.96568 7.61919 -5.05091
v 0.93785 7.80047 -5.07989
v 0.99820 7.79239 -5.02616
v 0.91386 7.96583 -4.90296
v 1.04358 7.92514 -4.94741
v 0.93785 7.80047 -5.07989
v 1.23507 7.72489 -4.95336
v 1.32573 7.80685 -4.88352
v 1.36013 7.73666 -4.83962
v 1.23507 7.72489 -4.95336
v 1.36013 7.73666 -4.83962
v 1.15151 7.64150 -4.91623
v 1.23507 7.72489 -4.95336
v 1.15151 7.64150 -4.91623
v 0.96568 7.61919 -5.05091
v 1.26613 7.54446 -4.67671
v 1.52540 7.79326 -4.63157
v 1.52946 7.68035 -4.47529
v 1.26613 7.54446 -4.67671
v 1.34656 7.70242 -4.76250
v 1.52540 7.79326 -4.63157
v 0.82917 7.64662 -4.15351
v 0.92808 7.69343 -4.13610
v 0.92743 7.76606 -4.10754
v 0.82917 7.64662 -4.15351
v 0.92743 7.76606 -4.10754
v 0.80828 7.72691 -4.14110
v 1.52946 7.68035 -4.47529
v 1.59512 7.74191 -4.14428
v 1.26307 7.60871 -4.28577
v 1.52946 7.68035 -4.47529
v 1.26307 7.60871 -4.28577
v 1.29960 7.52666 -4.63589
v 1.52946 7.68035 -4.47529
v 1.67941 7.76286 -4.44635
v 1.59512 7.74191 -4.14428
v 1.52946 7.68035 -4.47529
v 1.52540 7.79326 -4.63157
v 1.67941 7.76286 -4.44635
v 1.26307 7.60871 -4.28577
v 1.59512 7.74191 -4.14428
v 1.37109 7.69010 -4.12026
v 1.26307 7.60871 -4.28577
v 1.37109 7.69010 -4.12026
v 1.20259 7.65788 -4.18097
v 1.84119 7.90240 -4.49741
v 1.84774 7.80330 -4.43573
v 1.67941 7.76286 -4.44635
v 1.84119 7.90240 -4.49741
v 1.89031 7.90152 -4.28869
v 1.84774 7.80330 -4.43573
v 1.10246 8.02140 -4.21643
v 1.12955 8.09507 -4.19868
v 0.96666 8.04956 -4.29454
v 1.10246 8.02140 -4.21643
v 0.96666 8.04956 -4.29454
v 0.95242 7.92721 -4.19128
v 1.10246 8.02140 -4.21643
v 0.95242 7.92721 -4.19128
v 1.13292 8.06090 -4.11120
v 1.10246 8.02140 -4.21643
v 1.13292 8.06090 -4.11120
v 1.12955 8.09507 -4.19868
v 1.12955 8.09507 -4.19868
v 0.84932 8.04961 -4.48244
v 0.96666 8.04956 -4.29454
v 1.57944 7.87263 -3.99542
v 1.88671 7.93209 -3.74561
v 1.68103 7.94586 -3.79811
v 1.57944 7.87263 -3.99542
v 1.59512 7.74191 -4.14428
v 1.74876 7.83449 -4.12034
v 1.57944 7.87263 -3.99542
v 1.74876 7.83449 -4.12034
v 1.88671 7.93209 -3.74561
v 1.57944 7.87263 -3.99542
v 1.37109 7.69010 -4.12026
v 1.59512 7.74191 -4.14428
v 1.57944 7.87263 -3.99542
v 1.34315 7.82786 -4.03636
v 1.37109 7.69010 -4.12026
v 1.13292 8.06090 -4.11120
v 0.95242 7.92721 -4.19128
v 0.92601 7.84866 -4.12590
v 1.13292 8.06090 -4.11120
v 0.92601 7.84866 -4.12590
v 1.18489 7.95743 -4.02323
v 2.03393 8.12166 -3.77253
v 2.00095 8.02244 -3.87151
v 2.03614 8.22851 -3.77837
v 2.03393 8.12166 -3.77253
v 2.03614 8.22851 -3.77837
v 1.89554 8.26097 -3.67344
v 1.63996 8.29871 -3.76239
v 1.65018 8.22988 -3.75269
v 1.59312 8.30018 -3.68444
v 1.91449 8.00390 -3.79637
v 2.00095 8.02244 -3.87151
v 2.03393 8.12166 -3.77253
v 1.97398 8.39998 -3.73305
v 1.89172 8.40628 -3.92285
v 1.88033 8.48810 -3.64375
v 1.97398 8.39998 -3.73305
v 1.88033 8.48810 -3.64375
v 1.89750 8.35938 -3.65516
v 1.97398 8.39998 -3.73305
v 1.89750 8.35938 -3.65516
v 1.89554 8.26097 -3.67344
v 1.66774 8.51259 -3.80842
v 1.58000 8.42549 -3.75067
v 1.47176 8.68633 -3.64110
v 1.66774 8.51259 -3.80842
v 1.47176 8.68633 -3.64110
v 1.63951 8.63650 -3.70090
v 1.66774 8.51259 -3.80842
v 1.63951 8.63650 -3.70090
v 1.72676 8.55914 -3.81224
v 1.88033 8.48810 -3.64375
v 1.89172 8.40628 -3.92285
v 1.78729 8.59814 -3.69693
v 1.88033 8.48810 -3.64375
v 1.87940 8.30728 -3.52227
v 1.89750 8.35938 -3.65516
v 1.47176 8.68633 -3.64110
v 1.56237 8.77636 -3.59545
v 1.63951 8.63650 -3.70090
v 1.47176 8.68633 -3.64110
v 1.58000 8.42549 -3.75067
v 1.45415 8.54697 -3.57901
v 1.47176 8.68633 -3.64110
v 1.45415 8.54697 -3.57901
v 1.40618 8.65372 -3.63054
v 1.23507 7.72489 -4.95336
v 0.96568 7.61919 -5.05091
v 0.99820 7.79239 -5.02616
v 2.03614 8.22851 -3.77837
v 1.98143 8.08936 -4.14029
v 1.97231 8.25793 -3.97271
v 2.03614 8.22851 -3.77837
v 1.97231 8.25793 -3.97271
v 1.97398 8.39998 -3.73305
v 2.03614 8.22851 -3.77837
v 2.00095 8.02244 -3.87151
v 1.99281 7.98671 -4.10568
v 2.03614 8.22851 -3.77837
v 1.99281 7.98671 -4.10568
v 1.98143 8.08936 -4.14029
v 1.58000 8.42549 -3.75067
v 1.66774 8.51259 -3.80842
v 1.66768 8.45359 -3.90175
v 1.66768 8.45359 -3.90175
v 1.68353 8.42977 -4.02217
v 1.65764 8.35866 -3.97034
v 1.66768 8.45359 -3.90175
v 1.65764 8.35866 -3.97034
v 1.63996 8.29871 -3.76239
v 1.65764 8.35866 -3.97034
v 1.62673 8.30858 -4.10995
v 1.62677 8.17084 -3.97189
v 1.65764 8.35866 -3.97034
v 1.62677 8.17084 -3.97189
v 1.65178 8.20914 -3.84529
v 1.65764 8.35866 -3.97034
v 1.65178 8.20914 -3.84529
v 1.63996 8.29871 -3.76239
v 1.65178 8.20914 -3.84529
v 1.62677 8.17084 -3.97189
v 1.60999 8.13469 -3.91074
v 1.65178 8.20914 -3.84529
v 1.65018 8.22988 -3.75269
v 1.63996 8.29871 -3.76239
v 1.65178 8.20914 -3.84529
v 1.60999 8.13469 -3.91074
v 1.62819 8.07411 -3.87246
v 1.65178 8.20914 -3.84529
v 1.62819 8.07411 -3.87246
v 1.65975 8.18218 -3.74583
v 1.65178 8.20914 -3.84529
v 1.65975 8.18218 -3.74583
v 1.65018 8.22988 -3.75269
v 1.65975 8.18218 -3.74583
v 1.66910 8.15688 -3.67404
v 1.65861 8.24006 -3.62275
v 1.65975 8.18218 -3.74583
v 1.65861 8.24006 -3.62275
v 1.59312 8.30018 -3.68444
v 1.65975 8.18218 -3.74583
v 1.59312 8.30018 -3.68444
v 1.65018 8.22988 -3.75269
v 1.65861 8.24006 -3.62275
v 1.54866 8.33884 -3.57693
v 1.59312 8.30018 -3.68444
v 1.65861 8.24006 -3.62275
v 1.66910 8.15688 -3.67404
v 1.70137 8.08739 -3.66500
v 1.65861 8.24006 -3.62275
v 1.70137 8.08739 -3.66500
v 1.72571 8.21329 -3.59023
v 1.65274 8.73935 -3.58588
v 1.63951 8.63650 -3.70090
v 1.56237 8.77636 -3.59545
v 1.65274 8.73935 -3.58588
v 1.88033 8.48810 -3.64375
v 1.78729 8.59814 -3.69693
v 1.65274 8.73935 -3.58588
v 1.78729 8.59814 -3.69693
v 1.63951 8.63650 -3.70090
v 1.87940 8.30728 -3.52227
v 1.70137 8.08739 -3.66500
v 1.88671 7.93209 -3.74561
v 1.87940 8.30728 -3.52227
v 1.88671 7.93209 -3.74561
v 1.91449 8.00390 -3.79637
v 1.87940 8.30728 -3.52227
v 1.91449 8.00390 -3.79637
v 1.89554 8.26097 -3.67344
v 1.87940 8.30728 -3.52227
v 1.89554 8.26097 -3.67344
v 1.89750 8.35938 -3.65516
v 1.73769 8.01911 -3.69681
v 1.66936 8.03928 -3.70742
v 1.68103 7.94586 -3.79811
v 1.73769 8.01911 -3.69681
v 1.68103 7.94586 -3.79811
v 1.88671 7.93209 -3.74561
v 1.73769 8.01911 -3.69681
v 1.88671 7.93209 -3.74561
v 1.70137 8.08739 -3.66500
v 1.73769 8.01911 -3.69681
v 1.70137 8.08739 -3.66500
v 1.66936 8.03928 -3.70742
v 1.66936 8.03928 -3.70742
v 1.65975 8.18218 -3.74583
v 1.65302 8.01522 -3.85767
v 1.66936 8.03928 -3.70742
v 1.65302 8.01522 -3.85767
v 1.68103 7.94586 -3.79811
v 1.66936 8.03928 -3.70742
v 1.70137 8.08739 -3.66500
v 1.66910 8.15688 -3.67404
v 1.66936 8.03928 -3.70742
v 1.66910 8.15688 -3.67404
v 1.65975 8.18218 -3.74583
v 1.65302 8.01522 -3.85767
v 1.57944 7.87263 -3.99542
v 1.68103 7.94586 -3.79811
v 1.65302 8.01522 -3.85767
v 1.65975 8.18218 -3.74583
v 1.62819 8.07411 -3.87246
v 1.65302 8.01522 -3.85767
v 1.62819 8.07411 -3.87246
v 1.18489 7.95743 -4.02323
v 1.65302 8.01522 -3.85767
v 1.18489 7.95743 -4.02323
v 1.32851 7.89054 -3.97759
v 1.65302 8.01522 -3.85767
v 1.32851 7.89054 -3.97759
v 1.34315 7.82786 -4.03636
v 1.65302 8.01522 -3.85767
v 1.34315 7.82786 -4.03636
v 1.57944 7.87263 -3.99542
v 1.32851 7.89054 -3.97759
v 1.12303 7.74988 -4.06712
v 1.34315 7.82786 -4.03636
v 1.12303 7.74988 -4.06712
v 1.32851 7.89054 -3.97759
v 0.92743 7.76606 -4.10754
v 1.12303 7.74988 -4.06712
v 1.04109 7.65239 -4.22460
v 1.20259 7.65788 -4.18097
v 1.12303 7.74988 -4.06712
v 1.20259 7.65788 -4.18097
v 1.37109 7.69010 -4.12026
v 1.12303 7.74988 -4.06712
v 1.37109 7.69010 -4.12026
v 1.34315 7.82786 -4.03636
v 1.04109 7.65239 -4.22460
v 1.26307 7.60871 -4.28577
v 1.20259 7.65788 -4.18097
v 1.04109 7.65239 -4.22460
v 0.82917 7.64662 -4.15351
v 0.86499 7.58985 -4.25956
v 1.04109 7.65239 -4.22460
v 1.12303 7.74988 -4.06712
v 0.92808 7.69343 -4.13610
v 1.04109 7.65239 -4.22460
v 0.92808 7.69343 -4.13610
v 0.82917 7.64662 -4.15351
v 1.12303 7.74988 -4.06712
v 0.92743 7.76606 -4.10754
v 0.92808 7.69343 -4.13610
v 0.92743 7.76606 -4.10754
v 1.18489 7.95743 -4.02323
v 0.92601 7.84866 -4.12590
v 0.92743 7.76606 -4.10754
v 1.32851 7.89054 -3.97759
v 1.18489 7.95743 -4.02323
v 1.18489 7.95743 -4.02323
v 1.32719 8.06214 -4.05600
v 1.13292 8.06090 -4.11120
v 1.18489 7.95743 -4.02323
v 1.62819 8.07411 -3.87246
v 1.48552 8.07732 -3.98362
v 1.18489 7.95743 -4.02323
v 1.48552 8.07732 -3.98362
v 1.32719 8.06214 -4.05600
v 1.48552 8.07732 -3.98362
v 1.32276 8.15588 -4.09092
v 1.32719 8.06214 -4.05600
v 1.48552 8.07732 -3.98362
v 1.62819 8.07411 -3.87246
v 1.60999 8.13469 -3.91074
v 1.48552 8.07732 -3.98362
v 1.60999 8.13469 -3.91074
v 1.62677 8.17084 -3.97189
v 1.48552 8.07732 -3.98362
v 1.62677 8.17084 -3.97189
v 1.32276 8.15588 -4.09092
v 1.32276 8.15588 -4.09092
v 1.44354 8.23396 -4.29343
v 1.12955 8.09507 -4.19868
v 1.32276 8.15588 -4.09092
v 1.12955 8.09507 -4.19868
v 1.13292 8.06090 -4.11120
v 1.32276 8.15588 -4.09092
v 1.13292 8.06090 -4.11120
v 1.32719 8.06214 -4.05600
v 1.32276 8.15588 -4.09092
v 1.49305 8.22508 -4.10414
v 1.44354 8.23396 -4.29343
v 1.49305 8.22508 -4.10414
v 1.32276 8.15588 -4.09092
v 1.62677 8.17084 -3.97189
v 1.49305 8.22508 -4.10414
v 1.62677 8.17084 -3.97189
v 1.62673 8.30858 -4.10995
v 1.49305 8.22508 -4.10414
v 1.62673 8.30858 -4.10995
v 1.44354 8.23396 -4.29343
v 1.44354 8.23396 -4.29343
v 1.51523 8.23172 -4.43780
v 1.28381 8.09698 -4.68509
v 1.44354 8.23396 -4.29343
v 1.28381 8.09698 -4.68509
v 1.28511 8.16173 -4.43225
v 1.44354 8.23396 -4.29343
v 1.28511 8.16173 -4.43225
v 1.12955 8.09507 -4.19868
v 1.44354 8.23396 -4.29343
v 1.60853 8.29125 -4.30031
v 1.51523 8.23172 -4.43780
v 1.60853 8.29125 -4.30031
v 1.68346 8.23666 -4.36170
v 1.51523 8.23172 -4.43780
v 1.60853 8.29125 -4.30031
v 1.44354 8.23396 -4.29343
v 1.62673 8.30858 -4.10995
v 1.60853 8.29125 -4.30031
v 1.62673 8.30858 -4.10995
v 1.65722 8.38282 -4.16697
v 1.60853 8.29125 -4.30031
v 1.65722 8.38282 -4.16697
v 1.75720 8.38628 -4.21071
v 1.60853 8.29125 -4.30031
v 1.75720 8.38628 -4.21071
v 1.68346 8.23666 -4.36170
v 1.75720 8.38628 -4.21071
v 1.84011 8.33201 -4.20663
v 1.76692 8.19557 -4.34901
v 1.75720 8.38628 -4.21071
v 1.76692 8.19557 -4.34901
v 1.68346 8.23666 -4.36170
v 1.75720 8.38628 -4.21071
v 1.65722 8.38282 -4.16697
v 1.68353 8.42977 -4.02217
v 1.75720 8.38628 -4.21071
v 1.68353 8.42977 -4.02217
v 1.75966 8.46919 -3.92772
v 1.75720 8.38628 -4.21071
v 1.75966 8.46919 -3.92772
v 1.87862 8.39413 -4.02143
v 1.75720 8.38628 -4.21071
v 1.87862 8.39413 -4.02143
v 1.84011 8.33201 -4.20663
v 1.87862 8.39413 -4.02143
v 1.87451 8.24515 -4.16267
v 1.84011 8.33201 -4.20663
v 1.87862 8.39413 -4.02143
v 1.75966 8.46919 -3.92772
v 1.89172 8.40628 -3.92285
v 1.87862 8.39413 -4.02143
v 1.89172 8.40628 -3.92285
v 1.87451 8.24515 -4.16267
v 1.75966 8.46919 -3.92772
v 1.68353 8.42977 -4.02217
v 1.66768 8.45359 -3.90175
v 1.75966 8.46919 -3.92772
v 1.66768 8.45359 -3.90175
v 1.66774 8.51259 -3.80842
v 1.75966 8.46919 -3.92772
v 1.66774 8.51259 -3.80842
v 1.72676 8.55914 -3.81224
v 1.75966 8.46919 -3.92772
v 1.72676 8.55914 -3.81224
v 1.78729 8.59814 -3.69693
v 1.75966 8.46919 -3.92772
v 1.78729 8.59814 -3.69693
v 1.89172 8.40628 -3.92285
v 1.87451 8.24515 -4.16267
v 1.98143 8.08936 -4.14029
v 1.84041 8.14068 -4.34678
v 1.87451 8.24515 -4.16267
v 1.84041 8.14068 -4.34678
v 1.76692 8.19557 -4.34901
v 1.87451 8.24515 -4.16267
v 1.76692 8.19557 -4.34901
v 1.84011 8.33201 -4.20663
v 1.87451 8.24515 -4.16267
v 1.97231 8.25793 -3.97271
v 1.98143 8.08936 -4.14029
v 1.84041 8.14068 -4.34678
v 1.80891 8.04536 -4.58347
v 1.70520 8.08361 -4.52592
v 1.84041 8.14068 -4.34678
v 1.70520 8.08361 -4.52592
v 1.76692 8.19557 -4.34901
v 1.70520 8.08361 -4.52592
v 1.80891 8.04536 -4.58347
v 1.55801 7.96424 -4.77717
v 1.70520 8.08361 -4.52592
v 1.55801 7.96424 -4.77717
v 1.48169 8.06688 -4.65423
v 1.70520 8.08361 -4.52592
v 1.48169 8.06688 -4.65423
v 1.68346 8.23666 -4.36170
v 1.70520 8.08361 -4.52592
v 1.68346 8.23666 -4.36170
v 1.76692 8.19557 -4.34901
v 1.48169 8.06688 -4.65423
v 1.55801 7.96424 -4.77717
v 1.27670 7.94095 -4.85128
v 1.48169 8.06688 -4.65423
v 1.27670 7.94095 -4.85128
v 1.28381 8.09698 -4.68509
v 1.48169 8.06688 -4.65423
v 1.28381 8.09698 -4.68509
v 1.51523 8.23172 -4.43780
v 1.48169 8.06688 -4.65423
v 1.51523 8.23172 -4.43780
v 1.68346 8.23666 -4.36170
v 1.28381 8.09698 -4.68509
v 1.27670 7.94095 -4.85128
v 1.04358 7.92514 -4.94741
v 1.28381 8.09698 -4.68509
v 1.04358 7.92514 -4.94741
v 0.91386 7.96583 -4.90296
v 1.28381 8.09698 -4.68509
v 0.91386 7.96583 -4.90296
v 0.85106 8.05650 -4.68447
v 1.28381 8.09698 -4.68509
v 0.85106 8.05650 -4.68447
v 1.10144 8.11745 -4.56213
v 1.28381 8.09698 -4.68509
v 1.10144 8.11745 -4.56213
v 1.28511 8.16173 -4.43225
v 1.10144 8.11745 -4.56213
v 0.85106 8.05650 -4.68447
v 0.84932 8.04961 -4.48244
v 1.10144 8.11745 -4.56213
v 0.84932 8.04961 -4.48244
v 1.12955 8.09507 -4.19868
v 1.10144 8.11745 -4.56213
v 1.12955 8.09507 -4.19868
v 1.28511 8.16173 -4.43225
v 1.27670 7.94095 -4.85128
v 0.99820 7.79239 -5.02616
v 1.04358 7.92514 -4.94741
v 1.27670 7.94095 -4.85128
v 1.32573 7.80685 -4.88352
v 1.23507 7.72489 -4.95336
v 1.27670 7.94095 -4.85128
v 1.23507 7.72489 -4.95336
v 0.99820 7.79239 -5.02616
v 1.27670 7.94095 -4.85128
v 1.55801 7.96424 -4.77717
v 1.32573 7.80685 -4.88352
v 1.55801 7.96424 -4.77717
v 1.62574 7.87099 -4.76558
v 1.32573 7.80685 -4.88352
v 1.55801 7.96424 -4.77717
v 1.80891 8.04536 -4.58347
v 1.62574 7.87099 -4.76558
v 1.62574 7.87099 -4.76558
v 1.36013 7.73666 -4.83962
v 1.32573 7.80685 -4.88352
v 1.62574 7.87099 -4.76558
v 1.80891 8.04536 -4.58347
v 1.84273 7.97390 -4.55906
v 1.62574 7.87099 -4.76558
v 1.52540 7.79326 -4.63157
v 1.34656 7.70242 -4.76250
v 1.62574 7.87099 -4.76558
v 1.34656 7.70242 -4.76250
v 1.36013 7.73666 -4.83962
v 1.62574 7.87099 -4.76558
v 1.84273 7.97390 -4.55906
v 1.84119 7.90240 -4.49741
v 1.62574 7.87099 -4.76558
v 1.84119 7.90240 -4.49741
v 1.52540 7.79326 -4.63157
v 1.80891 8.04536 -4.58347
v 1.84041 8.14068 -4.34678
v 1.84273 7.97390 -4.55906
v 1.84041 8.14068 -4.34678
v 1.98143 8.08936 -4.14029
v 1.84273 7.97390 -4.55906
v 1.87451 8.24515 -4.16267
v 1.89172 8.40628 -3.92285
v 1.97398 8.39998 -3.73305
v 1.87451 8.24515 -4.16267
v 1.97398 8.39998 -3.73305
v 1.97231 8.25793 -3.97271
v 1.65722 8.38282 -4.16697
v 1.62673 8.30858 -4.10995
v 1.65764 8.35866 -3.97034
v 1.65722 8.38282 -4.16697
v 1.65764 8.35866 -3.97034
v 1.68353 8.42977 -4.02217
v 1.99281 7.98671 -4.10568
v 1.89031 7.90152 -4.28869
v 1.84119 7.90240 -4.49741
v 1.99281 7.98671 -4.10568
v 1.84119 7.90240 -4.49741
v 1.84273 7.97390 -4.55906
v 1.99281 7.98671 -4.10568
v 1.84273 7.97390 -4.55906
v 1.98143 8.08936 -4.14029
v 1.99281 7.98671 -4.10568
v 2.00095 8.02244 -3.87151
v 1.91449 8.00390 -3.79637
v 1.99281 7.98671 -4.10568
v 1.91449 8.00390 -3.79637
v 1.89031 7.90152 -4.28869
v 1.89031 7.90152 -4.28869
v 1.86327 7.86295 -4.10839
v 1.84774 7.80330 -4.43573
v 1.89031 7.90152 -4.28869
v 1.91449 8.00390 -3.79637
v 1.88671 7.93209 -3.74561
v 1.89031 7.90152 -4.28869
v 1.88671 7.93209 -3.74561
v 1.86327 7.86295 -4.10839
v 1.86327 7.86295 -4.10839
v 1.74876 7.83449 -4.12034
v 1.67941 7.76286 -4.44635
v 1.86327 7.86295 -4.10839
v 1.67941 7.76286 -4.44635
v 1.84774 7.80330 -4.43573
v 1.86327 7.86295 -4.10839
v 1.88671 7.93209 -3.74561
v 1.74876 7.83449 -4.12034
v 0.99820 7.79239 -5.02616
v 0.93785 7.80047 -5.07989
v 1.04358 7.92514 -4.94741
v 1.54866 8.33884 -3.57693
v 1.45415 8.54697 -3.57901
v 1.58000 8.42549 -3.75067
v 1.54866 8.33884 -3.57693
v 1.58000 8.42549 -3.75067
v 1.59312 8.30018 -3.68444
v 1.78729 8.59814 -3.69693
v 1.72676 8.55914 -3.81224
v 1.63951 8.63650 -3.70090
v 1.89554 8.26097 -3.67344
v 1.91449 8.00390 -3.79637
v 2.03393 8.12166 -3.77253
v 0.92601 7.84866 -4.12590
v 0.95242 7.92721 -4.19128
v 0.82994 7.86079 -4.24055
v 0.92601 7.84866 -4.12590
v 0.80828 7.72691 -4.14110
v 0.92743 7.76606 -4.10754
v 1.74876 7.83449 -4.12034
v 1.59512 7.74191 -4.14428
v 1.67941 7.76286 -4.44635
v 0.84932 8.04961 -4.48244
v 0.80196 7.99787 -4.33283
v 0.96666 8.04956 -4.29454
v 0.95242 7.92721 -4.19128
v 0.96666 8.04956 -4.29454
v 0.82994 7.86079 -4.24055
v 0.96666 8.04956 -4.29454
v 0.80196 7.99787 -4.33283
v 0.82994 7.86079 -4.24055
v 1.84119 7.90240 -4.49741
v 1.67941 7.76286 -4.44635
v 1.52540 7.79326 -4.63157
v 1.34656 7.70242 -4.76250
v 1.07750 7.54898 -4.87599
v 1.15151 7.64150 -4.91623
v 1.34656 7.70242 -4.76250
v 1.15151 7.64150 -4.91623
v 1.36013 7.73666 -4.83962
v 0.93785 7.80047 -5.07989
v 0.83087 7.76077 -5.14039
v 0.91386 7.96583 -4.90296
v 1.63996 8.29871 -3.76239
v 1.59312 8.30018 -3.68444
v 1.58000 8.42549 -3.75067
v 1.97398 8.39998 -3.73305
v 1.89554 8.26097 -3.67344
v 2.03614 8.22851 -3.77837
v 1.63996 8.29871 -3.76239
v 1.58000 8.42549 -3.75067
v 1.66768 8.45359 -3.90175
vt 0.92078 0.15647
vt 0.92211 0.14987
vt 0.92456 0.14653
vt 0.92078 0.15647
vt 0.92550 0.14687
vt 0.92614 0.15583
vt 0.94061 0.13118
vt 0.93156 0.12861
vt 0.93295 0.12669
vt 0.14066 0.76944
vt 0.13367 0.77136
vt 0.13332 0.76251
vt 0.94039 0.11657
vt 0.93884 0.11025
vt 0.94285 0.11002
vt 0.94044 0.11635
vt 0.94285 0.11002
vt 0.94348 0.12175
vt 0.99829 0.15509
vt 0.99618 0.15220
vt 1.00023 0.14128
vt 0.87497 0.58927
vt 0.88933 0.58093
vt 0.88956 0.59031
vt 0.87579 0.58959
vt 0.87954 0.58036
vt 0.88771 0.58045
vt 0.96548 0.08727
vt 0.96433 0.09281
vt 0.96065 0.09383
vt 0.96531 0.08711
vt 0.96076 0.09387
vt 0.96106 0.08732
vt 0.30005 0.85727
vt 0.28682 0.86863
vt 0.28523 0.85077
vt 0.30005 0.85727
vt 0.28528 0.85087
vt 0.30223 0.84422
vt 0.30005 0.85727
vt 0.30210 0.86408
vt 0.28684 0.86862
vt 0.59658 0.97381
vt 0.58922 0.97241
vt 0.59524 0.96517
vt 0.28525 0.85074
vt 0.28664 0.86815
vt 0.28027 0.85962
vt 0.28539 0.85059
vt 0.28016 0.85960
vt 0.27883 0.85066
vt 0.59089 0.95512
vt 0.59634 0.95625
vt 0.59542 0.96502
vt 0.37040 0.81602
vt 0.36540 0.82508
vt 0.36506 0.81581
vt 0.16210 0.98767
vt 0.15867 0.98977
vt 0.15923 0.98086
vt 0.16210 0.98767
vt 0.15919 0.98085
vt 0.16555 0.97930
vt 0.79954 0.99084
vt 0.80403 0.98528
vt 0.80361 0.99473
vt 0.79954 0.99084
vt 0.80379 0.99461
vt 0.80010 0.99224
vt 0.15264 0.80563
vt 0.15589 0.78548
vt 0.15652 0.79684
vt 0.27888 0.87076
vt 0.27531 0.89023
vt 0.27217 0.88004
vt 0.27877 0.87115
vt 0.28662 0.86846
vt 0.28900 0.87511
vt 0.27888 0.87077
vt 0.28890 0.87526
vt 0.27532 0.89022
vt 0.27880 0.87089
vt 0.28038 0.85918
vt 0.28661 0.86842
vt 0.96423 0.12796
vt 0.96339 0.11549
vt 0.97083 0.11466
vt 0.94854 0.10775
vt 0.95298 0.09699
vt 0.95662 0.09484
vt 0.94868 0.10784
vt 0.95662 0.09484
vt 0.95489 0.10947
vt 0.36188 0.85395
vt 0.36012 0.84681
vt 0.36662 0.85655
vt 0.63319 0.98944
vt 0.63257 0.98400
vt 0.63935 0.98218
vt 0.04654 0.90958
vt 0.04953 0.90813
vt 0.04913 0.91299
vt 0.63976 0.99495
vt 0.63530 0.99442
vt 0.63336 0.98911
vt 0.13278 0.84983
vt 0.13108 0.83935
vt 0.14016 0.85086
vt 0.37145 0.86243
vt 0.37140 0.86882
vt 0.36663 0.86509
vt 0.63514 0.97519
vt 0.63924 0.97711
vt 0.63962 0.98213
vt 0.39645 0.98261
vt 0.39061 0.98397
vt 0.39516 0.97110
vt 0.39697 0.98345
vt 0.39513 0.97075
vt 0.39996 0.97815
vt 0.39757 0.98227
vt 0.39977 0.97853
vt 0.40094 0.98349
vt 0.13983 0.85095
vt 0.13129 0.83919
vt 0.14266 0.84616
vt 0.37149 0.86922
vt 0.36053 0.86925
vt 0.36663 0.86509
vt 0.39497 0.97101
vt 0.40145 0.97081
vt 0.39986 0.97832
vt 0.03561 0.92654
vt 0.04210 0.91399
vt 0.04322 0.92458
vt 0.39517 0.97133
vt 0.38868 0.97404
vt 0.39183 0.97123
vt 0.94066 0.11616
vt 0.94057 0.13143
vt 0.93297 0.12664
vt 0.36676 0.85668
vt 0.36965 0.83710
vt 0.37229 0.84893
vt 0.36695 0.85667
vt 0.37164 0.84897
vt 0.37221 0.86313
vt 0.36642 0.85671
vt 0.36012 0.84681
vt 0.36511 0.83572
vt 0.36651 0.85670
vt 0.36511 0.83572
vt 0.37027 0.83705
vt 0.04210 0.91399
vt 0.03627 0.91433
vt 0.03569 0.90870
vt 0.03587 0.90860
vt 0.03300 0.90299
vt 0.03766 0.90297
vt 0.03579 0.90869
vt 0.03767 0.90296
vt 0.04641 0.90978
vt 0.03766 0.90294
vt 0.03576 0.89558
vt 0.04558 0.89724
vt 0.03767 0.90297
vt 0.04556 0.89719
vt 0.04758 0.90363
vt 0.03766 0.90296
vt 0.04762 0.90365
vt 0.04645 0.90979
vt 0.04751 0.90374
vt 0.04556 0.89719
vt 0.04900 0.89862
vt 0.04758 0.90366
vt 0.04953 0.90813
vt 0.04643 0.90981
vt 0.04773 0.90376
vt 0.04900 0.89862
vt 0.05244 0.89837
vt 0.04758 0.90363
vt 0.05253 0.89847
vt 0.05146 0.90674
vt 0.04767 0.90363
vt 0.05163 0.90699
vt 0.04953 0.90813
vt 0.05167 0.90699
vt 0.05475 0.90923
vt 0.05284 0.91385
vt 0.05174 0.90697
vt 0.05290 0.91386
vt 0.04913 0.91299
vt 0.05138 0.90731
vt 0.04913 0.91299
vt 0.04953 0.90813
vt 0.87303 0.73503
vt 0.86975 0.74038
vt 0.86913 0.73423
vt 0.96687 0.92643
vt 0.96802 0.93055
vt 0.96749 0.93447
vt 0.96699 0.92646
vt 0.96769 0.93450
vt 0.96417 0.92898
vt 0.15297 0.84674
vt 0.14979 0.84163
vt 0.15641 0.84355
vt 0.15234 0.84712
vt 0.14004 0.85084
vt 0.14331 0.84583
vt 0.15320 0.84691
vt 0.14325 0.84603
vt 0.14941 0.84142
vt 0.95481 0.92721
vt 0.96759 0.93440
vt 0.96161 0.94502
vt 0.36021 0.86880
vt 0.35169 0.84958
vt 0.35620 0.84921
vt 0.36053 0.86925
vt 0.35606 0.84906
vt 0.36306 0.86153
vt 0.36053 0.86925
vt 0.36307 0.86155
vt 0.36663 0.86509
vt 0.26891 0.88438
vt 0.26755 0.88098
vt 0.27292 0.87964
vt 0.96715 0.93835
vt 0.97179 0.94143
vt 0.96156 0.94492
vt 0.96715 0.93835
vt 0.96149 0.94462
vt 0.96778 0.93500
vt 0.96715 0.93835
vt 0.96758 0.93443
vt 0.97014 0.93619
vt 0.05861 0.90430
vt 0.05163 0.90699
vt 0.05515 0.89730
vt 0.05857 0.90430
vt 0.05515 0.89730
vt 0.05980 0.89775
vt 0.05857 0.90430
vt 0.05785 0.90770
vt 0.05475 0.90923
vt 0.05853 0.90429
vt 0.05475 0.90923
vt 0.05170 0.90701
vt 0.27234 0.87666
vt 0.27919 0.87062
vt 0.27289 0.87970
vt 0.05519 0.89731
vt 0.05142 0.90691
vt 0.05237 0.89837
vt 0.95853 0.13411
vt 0.95526 0.13350
vt 0.95487 0.10931
vt 0.95850 0.13407
vt 0.95490 0.10933
vt 0.96018 0.11581
vt 0.99511 0.87785
vt 0.99604 0.86111
vt 0.99940 0.86125
vt 0.99521 0.87779
vt 0.99940 0.86125
vt 1.00149 0.87274
vt 0.96018 0.11580
vt 0.96444 0.10345
vt 0.96339 0.11549
vt 0.96412 0.10353
vt 0.96018 0.11580
vt 0.96077 0.09385
vt 0.27134 0.84944
vt 0.27674 0.84242
vt 0.27894 0.85056
vt 0.27171 0.84918
vt 0.27864 0.85077
vt 0.28039 0.85929
vt 0.96431 0.10344
vt 0.97083 0.11472
vt 0.96339 0.11549
vt 0.27667 0.84248
vt 0.28526 0.85092
vt 0.27882 0.85064
vt 0.27674 0.84240
vt 0.26846 0.83465
vt 0.27400 0.83442
vt 0.27685 0.84219
vt 0.27121 0.84960
vt 0.26971 0.83949
vt 0.27697 0.84172
vt 0.26971 0.83949
vt 0.26811 0.83536
vt 0.96445 0.10321
vt 0.96074 0.09389
vt 0.96433 0.09281
vt 0.96078 0.09388
vt 0.95493 0.10953
vt 0.95662 0.09484
vt 0.96074 0.09379
vt 0.96017 0.11578
vt 0.95488 0.10949
vt 0.95423 0.10943
vt 0.95153 0.11780
vt 0.94942 0.10800
vt 0.95495 0.10947
vt 0.95553 0.13350
vt 0.95302 0.12607
vt 0.95474 0.10943
vt 0.95302 0.12607
vt 0.95153 0.11780
vt 0.95302 0.12607
vt 0.94682 0.11876
vt 0.95153 0.11780
vt 0.95302 0.12607
vt 0.95535 0.13355
vt 0.95196 0.13324
vt 0.95302 0.12607
vt 0.95196 0.13324
vt 0.95029 0.13436
vt 0.95302 0.12607
vt 0.94994 0.13415
vt 0.94683 0.11876
vt 0.14822 0.81577
vt 0.13829 0.81058
vt 0.15229 0.80573
vt 0.94676 0.11873
vt 0.94700 0.10798
vt 0.94988 0.10838
vt 0.94689 0.11875
vt 0.94890 0.10799
vt 0.95153 0.11780
vt 0.14843 0.81573
vt 0.14112 0.82015
vt 0.13770 0.81072
vt 0.14112 0.82015
vt 0.14803 0.81573
vt 0.13909 0.82973
vt 0.14112 0.82015
vt 0.13891 0.82964
vt 0.13548 0.82356
vt 0.14112 0.82015
vt 0.13602 0.82375
vt 0.13758 0.81076
vt 0.13790 0.81060
vt 0.13067 0.80663
vt 0.13214 0.78970
vt 0.13785 0.81067
vt 0.13234 0.78943
vt 0.14000 0.80021
vt 0.13784 0.81069
vt 0.14000 0.80021
vt 0.15285 0.80557
vt 0.13787 0.81065
vt 0.13112 0.81517
vt 0.13067 0.80663
vt 0.13112 0.81517
vt 0.12609 0.81491
vt 0.13067 0.80663
vt 0.03090 0.88713
vt 0.03479 0.88536
vt 0.03569 0.89565
vt 0.03090 0.88713
vt 0.03577 0.89559
vt 0.03078 0.89551
vt 0.13112 0.81517
vt 0.13356 0.82223
vt 0.12813 0.82327
vt 0.13112 0.81517
vt 0.12813 0.82327
vt 0.12586 0.81482
vt 0.85966 0.74195
vt 0.86475 0.74195
vt 0.86475 0.74932
vt 0.85966 0.74195
vt 0.86475 0.74932
vt 0.85998 0.75003
vt 0.12813 0.82327
vt 0.13356 0.82223
vt 0.13695 0.82914
vt 0.12813 0.82327
vt 0.13695 0.82914
vt 0.13673 0.83552
vt 0.12813 0.82327
vt 0.13679 0.83535
vt 0.12851 0.83482
vt 0.12813 0.82327
vt 0.12851 0.83482
vt 0.12437 0.82585
vt 0.99344 0.26400
vt 0.99032 0.25402
vt 0.99460 0.25400
vt 0.12851 0.83482
vt 0.13668 0.83534
vt 0.13065 0.83936
vt 0.99344 0.26400
vt 0.99194 0.26880
vt 0.99029 0.25402
vt 0.13683 0.83521
vt 0.13695 0.82914
vt 0.14126 0.83376
vt 0.13677 0.83525
vt 0.14124 0.83377
vt 0.14421 0.83814
vt 0.13669 0.83552
vt 0.14423 0.83814
vt 0.14208 0.83929
vt 0.13680 0.83537
vt 0.14208 0.83929
vt 0.14307 0.84592
vt 0.13677 0.83536
vt 0.14319 0.84596
vt 0.13083 0.83936
vt 0.12339 0.82873
vt 0.11832 0.83279
vt 0.11896 0.81992
vt 0.99042 0.25400
vt 0.98945 0.24309
vt 0.99105 0.24407
vt 0.99031 0.25396
vt 0.99105 0.24407
vt 0.99460 0.25400
vt 0.12339 0.82873
vt 0.12499 0.83961
vt 0.11829 0.83280
vt 0.11893 0.81989
vt 0.11286 0.80902
vt 0.11909 0.80840
vt 0.11902 0.81993
vt 0.11909 0.80840
vt 0.12238 0.81769
vt 0.11909 0.80840
vt 0.11286 0.80903
vt 0.11716 0.79340
vt 0.11909 0.80840
vt 0.11752 0.79371
vt 0.12468 0.79648
vt 0.11909 0.80840
vt 0.12468 0.79648
vt 0.12560 0.81458
vt 0.11909 0.80840
vt 0.12578 0.81472
vt 0.12238 0.81769
vt 0.12468 0.79648
vt 0.11754 0.79386
vt 0.12682 0.78229
vt 0.12468 0.79648
vt 0.12650 0.78195
vt 0.13238 0.78949
vt 0.12468 0.79648
vt 0.13239 0.78949
vt 0.13067 0.80663
vt 0.12468 0.79648
vt 0.13067 0.80663
vt 0.12575 0.81467
vt 0.13230 0.78941
vt 0.12651 0.78193
vt 0.13367 0.77136
vt 0.13223 0.78926
vt 0.13367 0.77136
vt 0.14067 0.76945
vt 0.13233 0.78929
vt 0.14068 0.76944
vt 0.15024 0.77694
vt 0.13233 0.78944
vt 0.15024 0.77694
vt 0.14367 0.78938
vt 0.13233 0.78951
vt 0.14367 0.78938
vt 0.14000 0.80021
vt 0.14367 0.78938
vt 0.15024 0.77694
vt 0.15610 0.78545
vt 0.14367 0.78938
vt 0.15610 0.78545
vt 0.15294 0.80557
vt 0.14367 0.78938
vt 0.15287 0.80559
vt 0.14000 0.80021
vt 0.93185 0.11103
vt 0.93269 0.12628
vt 0.92781 0.12220
vt 0.93146 0.11054
vt 0.93847 0.11031
vt 0.94050 0.11612
vt 0.93146 0.11053
vt 0.94051 0.11611
vt 0.93296 0.12662
vt 0.93149 0.11059
vt 0.93556 0.09657
vt 0.93855 0.11044
vt 0.93557 0.09658
vt 0.94113 0.09468
vt 0.93875 0.11069
vt 0.11690 0.79335
vt 0.11279 0.80895
vt 0.11363 0.79577
vt 0.94090 0.09519
vt 0.94285 0.11002
vt 0.93873 0.11042
vt 0.94127 0.09487
vt 0.93702 0.08305
vt 0.94117 0.08232
vt 0.99842 0.85478
vt 0.99044 0.85212
vt 0.99454 0.84247
vt 0.99848 0.85476
vt 0.99454 0.84247
vt 0.99838 0.84164
vt 0.37419 0.80264
vt 0.37539 0.81515
vt 0.37069 0.81604
vt 0.37402 0.80250
vt 0.37080 0.81603
vt 0.36659 0.80642
vt 0.37859 0.81610
vt 0.37652 0.82906
vt 0.37575 0.81531
vt 0.37652 0.82906
vt 0.36917 0.83701
vt 0.37575 0.81531
vt 0.98992 0.25410
vt 0.99214 0.26873
vt 0.98780 0.27760
vt 0.12383 0.82871
vt 0.13263 0.84983
vt 0.12499 0.83961
vt 0.03078 0.89551
vt 0.03577 0.89559
vt 0.03766 0.90297
vt 0.03078 0.89551
vt 0.03766 0.90297
vt 0.03300 0.90299
vt 0.36511 0.83572
vt 0.36543 0.82507
vt 0.37022 0.81546
vt 0.36641 0.83495
vt 0.37050 0.81604
vt 0.37423 0.81597
vt 0.36511 0.83572
vt 0.37535 0.81531
vt 0.37022 0.83703
vt 0.99852 0.12130
vt 0.99842 0.13339
vt 0.99428 0.13715
vt 0.99852 0.12130
vt 0.99429 0.13716
vt 0.99408 0.11164
vt 0.36545 0.82509
vt 0.35841 0.83154
vt 0.36501 0.81591
vt 0.36537 0.82502
vt 0.35604 0.84907
vt 0.35147 0.84925
vt 0.36538 0.82503
vt 0.35146 0.84924
vt 0.35845 0.83162
vt 0.29121 0.88027
vt 0.28900 0.87511
vt 0.30213 0.86427
vt 0.29120 0.88019
vt 0.30214 0.86431
vt 0.30569 0.87163
vt 0.29121 0.88027
vt 0.27531 0.89023
vt 0.28899 0.87507
vt 0.93282 0.12646
vt 0.93165 0.12991
vt 0.92781 0.12220
vt 0.05121 0.91823
vt 0.04322 0.92458
vt 0.04210 0.91399
vt 0.05121 0.91815
vt 0.04210 0.91399
vt 0.04913 0.91299
vt 0.14301 0.84581
vt 0.14208 0.83929
vt 0.14956 0.84155
vt 0.63956 0.98216
vt 0.63888 0.99584
vt 0.63286 0.98965
vt 0.99752 0.05411
vt 0.99444 0.05474
vt 0.99193 0.04882
vt 0.95662 0.09484
vt 0.96106 0.08732
vt 0.96077 0.09386
vt 0.28900 0.87511
vt 0.28664 0.86820
vt 0.30230 0.86466
vt 0.15623 0.78548
vt 0.16197 0.79045
vt 0.15630 0.79682
vt 0.16539 0.97927
vt 0.15931 0.98088
vt 0.16643 0.97198
vt 0.15916 0.98083
vt 0.16015 0.97192
vt 0.16664 0.97202
vt 0.92731 0.99627
vt 0.92280 0.98914
vt 0.93117 0.98008
vt 0.87954 0.58036
vt 0.86747 0.58358
vt 0.87064 0.57838
vt 0.87954 0.58036
vt 0.87064 0.57838
vt 0.87842 0.57611
vt 0.13331 0.76238
vt 0.13599 0.75734
vt 0.14066 0.76941
vt 0.04670 0.91067
vt 0.04888 0.91188
vt 0.04210 0.91399
vt 0.37126 0.86362
vt 0.36295 0.86181
vt 0.36634 0.85694
vt 0.04650 0.90945
vt 0.04210 0.91399
vt 0.03575 0.90872
vn 0.4558 -0.4814 -0.7486
vn 0.0167 0.3804 -0.9247
vn 0.4389 0.4421 -0.7822
vn 0.4558 -0.4814 -0.7486
vn 0.4389 0.4421 -0.7822
vn 0.6372 -0.4448 -0.6294
vn 0.6372 -0.4448 -0.6294
vn 0.4389 0.4421 -0.7822
vn 0.5268 0.1618 -0.8345
vn 0.0416 0.8191 -0.5721
vn 0.1896 0.6385 -0.7459
vn 0.4389 0.4421 -0.7822
vn 0.5227 -0.2310 -0.8206
vn 0.4418 0.0853 -0.8931
vn 0.5388 -0.6303 -0.5590
vn 0.5227 -0.2310 -0.8206
vn 0.5388 -0.6303 -0.5590
vn 0.5259 -0.6876 -0.5007
vn 0.5227 -0.2310 -0.8206
vn 0.5259 -0.6876 -0.5007
vn 0.6372 -0.4448 -0.6294
vn 0.4639 -0.7747 -0.4298
vn 0.5378 -0.7738 -0.3348
vn 0.5161 -0.8423 -0.1557
vn 0.4639 -0.7747 -0.4298
vn 0.5697 -0.7252 -0.3866
vn 0.5378 -0.7738 -0.3348
vn 0.4529 -0.4735 0.7555
vn 0.0530 -0.6008 0.7976
vn -0.2744 -0.0765 0.9586
vn 0.4529 -0.4735 0.7555
vn -0.2744 -0.0765 0.9586
vn 0.0658 0.0394 0.9971
vn 0.5161 -0.8423 -0.1557
vn 0.3674 -0.8515 0.3741
vn 0.2264 -0.9057 0.3583
vn 0.5161 -0.8423 -0.1557
vn 0.2264 -0.9057 0.3583
vn 0.4435 -0.8266 -0.3464
vn 0.5161 -0.8423 -0.1557
vn 0.4361 -0.8651 -0.2478
vn 0.3674 -0.8515 0.3741
vn 0.5161 -0.8423 -0.1557
vn 0.5378 -0.7738 -0.3348
vn 0.4361 -0.8651 -0.2478
vn 0.2264 -0.9057 0.3583
vn 0.3674 -0.8515 0.3741
vn 0.1147 -0.7919 0.5997
vn 0.2264 -0.9057 0.3583
vn 0.1147 -0.7919 0.5997
vn -0.0610 -0.8658 0.4966
vn 0.7629 -0.4611 -0.4532
vn 0.6288 -0.6903 -0.3580
vn 0.4361 -0.8651 -0.2478
vn 0.7629 -0.4611 -0.4532
vn 0.8593 -0.5060 -0.0748
vn 0.6288 -0.6903 -0.3580
vn -0.6904 0.5403 0.4811
vn -0.5894 0.7515 0.2963
vn -0.4098 0.7588 0.5062
vn -0.6904 0.5403 0.4811
vn -0.4098 0.7588 0.5062
vn -0.5601 0.6428 0.5226
vn -0.6904 0.5403 0.4811
vn -0.5601 0.6428 0.5226
vn -0.5447 0.6512 0.5285
vn -0.6904 0.5403 0.4811
vn -0.5447 0.6512 0.5285
vn -0.5894 0.7515 0.2963
vn -0.5894 0.7515 0.2963
vn -0.2294 0.9689 0.0923
vn -0.4098 0.7588 0.5062
vn 0.0000 -0.7715 0.6362
vn 0.4988 -0.6998 0.5114
vn -0.5874 -0.6404 0.4948
vn 0.0000 -0.7715 0.6362
vn 0.3674 -0.8515 0.3741
vn 0.2488 -0.9342 0.2557
vn 0.0000 -0.7715 0.6362
vn 0.2488 -0.9342 0.2557
vn 0.4988 -0.6998 0.5114
vn 0.0000 -0.7715 0.6362
vn 0.1147 -0.7919 0.5997
vn 0.3674 -0.8515 0.3741
vn 0.0000 -0.7715 0.6362
vn 0.0373 -0.6034 0.7965
vn 0.1147 -0.7919 0.5997
vn -0.5447 0.6512 0.5285
vn -0.5601 0.6428 0.5226
vn -0.4630 0.4504 0.7634
vn -0.5447 0.6512 0.5285
vn -0.4630 0.4504 0.7634
vn -0.3576 0.2933 0.8866
vn 0.8434 -0.2891 0.4528
vn 0.7504 -0.6410 0.1612
vn 0.9463 0.1473 0.2878
vn 0.8434 -0.2891 0.4528
vn 0.9463 0.1473 0.2878
vn 0.8801 -0.0557 0.4714
vn -0.9246 -0.1889 -0.3309
vn -0.9498 -0.2038 -0.2375
vn -0.8627 -0.4588 -0.2128
vn 0.8138 -0.4768 0.3323
vn 0.7504 -0.6410 0.1612
vn 0.8434 -0.2891 0.4528
vn 0.8628 0.4512 0.2281
vn 0.6980 0.6488 -0.3031
vn 0.8615 0.4737 0.1829
vn 0.8628 0.4512 0.2281
vn 0.8615 0.4737 0.1829
vn 0.9000 -0.0085 0.4359
vn 0.8628 0.4512 0.2281
vn 0.9000 -0.0085 0.4359
vn 0.8801 -0.0557 0.4714
vn -0.5571 0.5248 -0.6436
vn -0.8300 -0.1425 -0.5393
vn -0.2942 0.2864 -0.9118
vn -0.5571 0.5248 -0.6436
vn -0.2942 0.2864 -0.9118
vn 0.0403 0.7029 -0.7101
vn -0.5571 0.5248 -0.6436
vn 0.0403 0.7029 -0.7101
vn -0.0204 0.7812 -0.6240
vn 0.8615 0.4737 0.1829
vn 0.6980 0.6488 -0.3031
vn 0.5877 0.7694 -0.2502
vn 0.8615 0.4737 0.1829
vn 0.6922 -0.2396 0.6807
vn 0.9000 -0.0085 0.4359
vn -0.2942 0.2864 -0.9118
vn 0.0244 0.6375 -0.7700
vn 0.0403 0.7029 -0.7101
vn -0.2942 0.2864 -0.9118
vn -0.8300 -0.1425 -0.5393
vn -0.9061 -0.3644 -0.2148
vn -0.2942 0.2864 -0.9118
vn -0.9061 -0.3644 -0.2148
vn -0.6862 -0.2242 -0.6920
vn 0.5227 -0.2310 -0.8206
vn 0.6372 -0.4448 -0.6294
vn 0.5268 0.1618 -0.8345
vn 0.9463 0.1473 0.2878
vn 0.9154 0.2378 -0.3247
vn 0.8101 0.4808 -0.3356
vn 0.9463 0.1473 0.2878
vn 0.8101 0.4808 -0.3356
vn 0.8628 0.4512 0.2281
vn 0.9463 0.1473 0.2878
vn 0.7504 -0.6410 0.1612
vn 0.8660 -0.4967 -0.0580
vn 0.9463 0.1473 0.2878
vn 0.8660 -0.4967 -0.0580
vn 0.9154 0.2378 -0.3247
vn -0.8300 -0.1425 -0.5393
vn -0.5571 0.5248 -0.6436
vn -0.7381 0.5681 -0.3638
vn -0.7381 0.5681 -0.3638
vn -0.6099 0.7704 -0.1858
vn -0.9796 0.2009 0.0057
vn -0.7381 0.5681 -0.3638
vn -0.9796 0.2009 0.0057
vn -0.9246 -0.1889 -0.3309
vn -0.9796 0.2009 0.0057
vn -0.7958 0.5728 0.1967
vn -0.7602 0.5276 0.3791
vn -0.9796 0.2009 0.0057
vn -0.7602 0.5276 0.3791
vn -0.9936 0.0749 0.0848
vn -0.9796 0.2009 0.0057
vn -0.9936 0.0749 0.0848
vn -0.9246 -0.1889 -0.3309
vn -0.9936 0.0749 0.0848
vn -0.7602 0.5276 0.3791
vn -0.7894 0.4256 0.4423
vn -0.9936 0.0749 0.0848
vn -0.9498 -0.2038 -0.2375
vn -0.9246 -0.1889 -0.3309
vn -0.9936 0.0749 0.0848
vn -0.7894 0.4256 0.4423
vn -0.7401 0.0756 0.6682
vn -0.9936 0.0749 0.0848
vn -0.7401 0.0756 0.6682
vn -0.9853 -0.1545 0.0726
vn -0.9936 0.0749 0.0848
vn -0.9853 -0.1545 0.0726
vn -0.9498 -0.2038 -0.2375
vn -0.9853 -0.1545 0.0726
vn -0.9391 -0.2120 0.2706
vn -0.6773 -0.6137 0.4057
vn -0.9853 -0.1545 0.0726
vn -0.6773 -0.6137 0.4057
vn -0.8627 -0.4588 -0.2128
vn -0.9853 -0.1545 0.0726
vn -0.8627 -0.4588 -0.2128
vn -0.9498 -0.2038 -0.2375
vn -0.6773 -0.6137 0.4057
vn -0.7942 -0.6071 -0.0251
vn -0.8627 -0.4588 -0.2128
vn -0.6773 -0.6137 0.4057
vn -0.9391 -0.2120 0.2706
vn -0.3771 -0.4155 0.8277
vn -0.6773 -0.6137 0.4057
vn -0.3771 -0.4155 0.8277
vn -0.2571 -0.5547 0.7913
vn 0.5457 0.6572 -0.5198
vn 0.0403 0.7029 -0.7101
vn 0.0244 0.6375 -0.7700
vn 0.5457 0.6572 -0.5198
vn 0.8615 0.4737 0.1829
vn 0.5877 0.7694 -0.2502
vn 0.5457 0.6572 -0.5198
vn 0.5877 0.7694 -0.2502
vn 0.0403 0.7029 -0.7101
vn 0.6922 -0.2396 0.6807
vn -0.3771 -0.4155 0.8277
vn 0.4988 -0.6998 0.5114
vn 0.6922 -0.2396 0.6807
vn 0.4988 -0.6998 0.5114
vn 0.8138 -0.4768 0.3323
vn 0.6922 -0.2396 0.6807
vn 0.8138 -0.4768 0.3323
vn 0.8801 -0.0557 0.4714
vn 0.6922 -0.2396 0.6807
vn 0.8801 -0.0557 0.4714
vn 0.9000 -0.0085 0.4359
vn -0.1252 -0.5651 0.8155
vn -0.7508 -0.3892 0.5337
vn -0.5874 -0.6404 0.4948
vn -0.1252 -0.5651 0.8155
vn -0.5874 -0.6404 0.4948
vn 0.4988 -0.6998 0.5114
vn -0.1252 -0.5651 0.8155
vn 0.4988 -0.6998 0.5114
vn -0.3771 -0.4155 0.8277
vn -0.1252 -0.5651 0.8155
vn -0.3771 -0.4155 0.8277
vn -0.7508 -0.3892 0.5337
vn -0.7508 -0.3892 0.5337
vn -0.9853 -0.1545 0.0726
vn -0.7997 -0.1586 0.5791
vn -0.7508 -0.3892 0.5337
vn -0.7997 -0.1586 0.5791
vn -0.5874 -0.6404 0.4948
vn -0.7508 -0.3892 0.5337
vn -0.3771 -0.4155 0.8277
vn -0.9391 -0.2120 0.2706
vn -0.7508 -0.3892 0.5337
vn -0.9391 -0.2120 0.2706
vn -0.9853 -0.1545 0.0726
vn -0.7997 -0.1586 0.5791
vn 0.0000 -0.7715 0.6362
vn -0.5874 -0.6404 0.4948
vn -0.7997 -0.1586 0.5791
vn -0.9853 -0.1545 0.0726
vn -0.7401 0.0756 0.6682
vn -0.7997 -0.1586 0.5791
vn -0.7401 0.0756 0.6682
vn -0.3576 0.2933 0.8866
vn -0.7997 -0.1586 0.5791
vn -0.3576 0.2933 0.8866
vn -0.1577 -0.3793 0.9118
vn -0.7997 -0.1586 0.5791
vn -0.1577 -0.3793 0.9118
vn 0.0373 -0.6034 0.7965
vn -0.7997 -0.1586 0.5791
vn 0.0373 -0.6034 0.7965
vn 0.0000 -0.7715 0.6362
vn -0.1577 -0.3793 0.9118
vn -0.1086 -0.5708 0.8139
vn 0.0373 -0.6034 0.7965
vn -0.1086 -0.5708 0.8139
vn -0.1577 -0.3793 0.9118
vn -0.2744 -0.0765 0.9586
vn -0.1086 -0.5708 0.8139
vn 0.0625 -0.7518 0.6565
vn -0.0610 -0.8658 0.4966
vn -0.1086 -0.5708 0.8139
vn -0.0610 -0.8658 0.4966
vn 0.1147 -0.7919 0.5997
vn -0.1086 -0.5708 0.8139
vn 0.1147 -0.7919 0.5997
vn 0.0373 -0.6034 0.7965
vn 0.0625 -0.7518 0.6565
vn 0.2264 -0.9057 0.3583
vn -0.0610 -0.8658 0.4966
vn 0.0625 -0.7518 0.6565
vn 0.4529 -0.4735 0.7555
vn 0.2782 -0.6542 0.7033
vn 0.0625 -0.7518 0.6565
vn -0.1086 -0.5708 0.8139
vn 0.0530 -0.6008 0.7976
vn 0.0625 -0.7518 0.6565
vn 0.0530 -0.6008 0.7976
vn 0.4529 -0.4735 0.7555
vn -0.1086 -0.5708 0.8139
vn -0.2744 -0.0765 0.9586
vn 0.0530 -0.6008 0.7976
vn -0.2744 -0.0765 0.9586
vn -0.3576 0.2933 0.8866
vn -0.4630 0.4504 0.7634
vn -0.2744 -0.0765 0.9586
vn -0.1577 -0.3793 0.9118
vn -0.3576 0.2933 0.8866
vn -0.3576 0.2933 0.8866
vn -0.3441 0.4945 0.7981
vn -0.5447 0.6512 0.5285
vn -0.3576 0.2933 0.8866
vn -0.7401 0.0756 0.6682
vn -0.4102 0.6094 0.6785
vn -0.3576 0.2933 0.8866
vn -0.4102 0.6094 0.6785
vn -0.3441 0.4945 0.7981
vn -0.4102 0.6094 0.6785
vn -0.3899 0.7249 0.5679
vn -0.3441 0.4945 0.7981
vn -0.4102 0.6094 0.6785
vn -0.7401 0.0756 0.6682
vn -0.7894 0.4256 0.4423
vn -0.4102 0.6094 0.6785
vn -0.7894 0.4256 0.4423
vn -0.7602 0.5276 0.3791
vn -0.4102 0.6094 0.6785
vn -0.7602 0.5276 0.3791
vn -0.3899 0.7249 0.5679
vn -0.3899 0.7249 0.5679
vn -0.3667 0.9298 -0.0324
vn -0.5894 0.7515 0.2963
vn -0.3899 0.7249 0.5679
vn -0.5894 0.7515 0.2963
vn -0.5447 0.6512 0.5285
vn -0.3899 0.7249 0.5679
vn -0.5447 0.6512 0.5285
vn -0.3441 0.4945 0.7981
vn -0.3899 0.7249 0.5679
vn -0.3900 0.8295 0.3999
vn -0.3667 0.9298 -0.0324
vn -0.3900 0.8295 0.3999
vn -0.3899 0.7249 0.5679
vn -0.7602 0.5276 0.3791
vn -0.3900 0.8295 0.3999
vn -0.7602 0.5276 0.3791
vn -0.7958 0.5728 0.1967
vn -0.3900 0.8295 0.3999
vn -0.7958 0.5728 0.1967
vn -0.3667 0.9298 -0.0324
vn -0.3667 0.9298 -0.0324
vn -0.0412 0.9053 -0.4229
vn 0.0536 0.8641 -0.5004
vn -0.3667 0.9298 -0.0324
vn 0.0536 0.8641 -0.5004
vn -0.2622 0.9588 -0.1093
vn -0.3667 0.9298 -0.0324
vn -0.2622 0.9588 -0.1093
vn -0.5894 0.7515 0.2963
vn -0.3667 0.9298 -0.0324
vn -0.2152 0.9007 -0.3775
vn -0.0412 0.9053 -0.4229
vn -0.2152 0.9007 -0.3775
vn 0.2710 0.7157 -0.6437
vn -0.0412 0.9053 -0.4229
vn -0.2152 0.9007 -0.3775
vn -0.3667 0.9298 -0.0324
vn -0.7958 0.5728 0.1967
vn -0.2152 0.9007 -0.3775
vn -0.7958 0.5728 0.1967
vn -0.6038 0.7701 -0.2059
vn -0.2152 0.9007 -0.3775
vn -0.6038 0.7701 -0.2059
vn 0.1690 0.8361 -0.5219
vn -0.2152 0.9007 -0.3775
vn 0.1690 0.8361 -0.5219
vn 0.2710 0.7157 -0.6437
vn 0.1690 0.8361 -0.5219
vn 0.7192 0.4612 -0.5197
vn 0.4987 0.6116 -0.6142
vn 0.1690 0.8361 -0.5219
vn 0.4987 0.6116 -0.6142
vn 0.2710 0.7157 -0.6437
vn 0.1690 0.8361 -0.5219
vn -0.6038 0.7701 -0.2059
vn -0.6099 0.7704 -0.1858
vn 0.1690 0.8361 -0.5219
vn -0.6099 0.7704 -0.1858
vn 0.0918 0.9112 -0.4016
vn 0.1690 0.8361 -0.5219
vn 0.0918 0.9112 -0.4016
vn 0.7740 0.5871 -0.2373
vn 0.1690 0.8361 -0.5219
vn 0.7740 0.5871 -0.2373
vn 0.7192 0.4612 -0.5197
vn 0.7740 0.5871 -0.2373
vn 0.8333 0.3695 -0.4112
vn 0.7192 0.4612 -0.5197
vn 0.7740 0.5871 -0.2373
vn 0.0918 0.9112 -0.4016
vn 0.6980 0.6488 -0.3031
vn 0.7740 0.5871 -0.2373
vn 0.6980 0.6488 -0.3031
vn 0.8333 0.3695 -0.4112
vn 0.0918 0.9112 -0.4016
vn -0.6099 0.7704 -0.1858
vn -0.7381 0.5681 -0.3638
vn 0.0918 0.9112 -0.4016
vn -0.7381 0.5681 -0.3638
vn -0.5571 0.5248 -0.6436
vn 0.0918 0.9112 -0.4016
vn -0.5571 0.5248 -0.6436
vn -0.0204 0.7812 -0.6240
vn 0.0918 0.9112 -0.4016
vn -0.0204 0.7812 -0.6240
vn 0.5877 0.7694 -0.2502
vn 0.0918 0.9112 -0.4016
vn 0.5877 0.7694 -0.2502
vn 0.6980 0.6488 -0.3031
vn 0.8333 0.3695 -0.4112
vn 0.9154 0.2378 -0.3247
vn 0.6391 0.6155 -0.4612
vn 0.8333 0.3695 -0.4112
vn 0.6391 0.6155 -0.4612
vn 0.4987 0.6116 -0.6142
vn 0.8333 0.3695 -0.4112
vn 0.4987 0.6116 -0.6142
vn 0.7192 0.4612 -0.5197
vn 0.8333 0.3695 -0.4112
vn 0.8101 0.4808 -0.3356
vn 0.9154 0.2378 -0.3247
vn 0.6391 0.6155 -0.4612
vn 0.5761 0.5847 -0.5711
vn 0.2260 0.8207 -0.5247
vn 0.6391 0.6155 -0.4612
vn 0.2260 0.8207 -0.5247
vn 0.4987 0.6116 -0.6142
vn 0.2260 0.8207 -0.5247
vn 0.5761 0.5847 -0.5711
vn 0.3035 0.5197 -0.7986
vn 0.2260 0.8207 -0.5247
vn 0.3035 0.5197 -0.7986
vn 0.2098 0.7711 -0.6012
vn 0.2260 0.8207 -0.5247
vn 0.2098 0.7711 -0.6012
vn 0.2710 0.7157 -0.6437
vn 0.2260 0.8207 -0.5247
vn 0.2710 0.7157 -0.6437
vn 0.4987 0.6116 -0.6142
vn 0.2098 0.7711 -0.6012
vn 0.3035 0.5197 -0.7986
vn 0.2544 0.5462 -0.7981
vn 0.2098 0.7711 -0.6012
vn 0.2544 0.5462 -0.7981
vn 0.0536 0.8641 -0.5004
vn 0.2098 0.7711 -0.6012
vn 0.0536 0.8641 -0.5004
vn -0.0412 0.9053 -0.4229
vn 0.2098 0.7711 -0.6012
vn -0.0412 0.9053 -0.4229
vn 0.2710 0.7157 -0.6437
vn 0.0536 0.8641 -0.5004
vn 0.2544 0.5462 -0.7981
vn 0.1896 0.6385 -0.7459
vn 0.0536 0.8641 -0.5004
vn 0.1896 0.6385 -0.7459
vn 0.0416 0.8191 -0.5721
vn 0.0536 0.8641 -0.5004
vn 0.0416 0.8191 -0.5721
vn -0.1685 0.9752 -0.1436
vn 0.0536 0.8641 -0.5004
vn -0.1685 0.9752 -0.1436
vn -0.1653 0.9796 -0.1144
vn 0.0536 0.8641 -0.5004
vn -0.1653 0.9796 -0.1144
vn -0.2622 0.9588 -0.1093
vn -0.1653 0.9796 -0.1144
vn -0.1685 0.9752 -0.1436
vn -0.2294 0.9689 0.0923
vn -0.1653 0.9796 -0.1144
vn -0.2294 0.9689 0.0923
vn -0.5894 0.7515 0.2963
vn -0.1653 0.9796 -0.1144
vn -0.5894 0.7515 0.2963
vn -0.2622 0.9588 -0.1093
vn 0.2544 0.5462 -0.7981
vn 0.5268 0.1618 -0.8345
vn 0.1896 0.6385 -0.7459
vn 0.2544 0.5462 -0.7981
vn 0.4418 0.0853 -0.8931
vn 0.5227 -0.2310 -0.8206
vn 0.2544 0.5462 -0.7981
vn 0.5227 -0.2310 -0.8206
vn 0.5268 0.1618 -0.8345
vn 0.2544 0.5462 -0.7981
vn 0.3035 0.5197 -0.7986
vn 0.4418 0.0853 -0.8931
vn 0.3035 0.5197 -0.7986
vn 0.5938 -0.3767 -0.7110
vn 0.4418 0.0853 -0.8931
vn 0.3035 0.5197 -0.7986
vn 0.5761 0.5847 -0.5711
vn 0.5938 -0.3767 -0.7110
vn 0.5938 -0.3767 -0.7110
vn 0.5388 -0.6303 -0.5590
vn 0.4418 0.0853 -0.8931
vn 0.5938 -0.3767 -0.7110
vn 0.5761 0.5847 -0.5711
vn 0.8616 -0.0520 -0.5049
vn 0.5938 -0.3767 -0.7110
vn 0.5378 -0.7738 -0.3348
vn 0.5697 -0.7252 -0.3866
vn 0.5938 -0.3767 -0.7110
vn 0.5697 -0.7252 -0.3866
vn 0.5388 -0.6303 -0.5590
vn 0.5938 -0.3767 -0.7110
vn 0.8616 -0.0520 -0.5049
vn 0.7629 -0.4611 -0.4532
vn 0.5938 -0.3767 -0.7110
vn 0.7629 -0.4611 -0.4532
vn 0.5378 -0.7738 -0.3348
vn 0.5761 0.5847 -0.5711
vn 0.6391 0.6155 -0.4612
vn 0.8616 -0.0520 -0.5049
vn 0.6391 0.6155 -0.4612
vn 0.9154 0.2378 -0.3247
vn 0.8616 -0.0520 -0.5049
vn 0.8333 0.3695 -0.4112
vn 0.6980 0.6488 -0.3031
vn 0.8628 0.4512 0.2281
vn 0.8333 0.3695 -0.4112
vn 0.8628 0.4512 0.2281
vn 0.8101 0.4808 -0.3356
vn -0.6038 0.7701 -0.2059
vn -0.7958 0.5728 0.1967
vn -0.9796 0.2009 0.0057
vn -0.6038 0.7701 -0.2059
vn -0.9796 0.2009 0.0057
vn -0.6099 0.7704 -0.1858
vn 0.8660 -0.4967 -0.0580
vn 0.8593 -0.5060 -0.0748
vn 0.7629 -0.4611 -0.4532
vn 0.8660 -0.4967 -0.0580
vn 0.7629 -0.4611 -0.4532
vn 0.8616 -0.0520 -0.5049
vn 0.8660 -0.4967 -0.0580
vn 0.8616 -0.0520 -0.5049
vn 0.9154 0.2378 -0.3247
vn 0.8660 -0.4967 -0.0580
vn 0.7504 -0.6410 0.1612
vn 0.8138 -0.4768 0.3323
vn 0.8660 -0.4967 -0.0580
vn 0.8138 -0.4768 0.3323
vn 0.8593 -0.5060 -0.0748
vn 0.8593 -0.5060 -0.0748
vn 0.6071 -0.7869 0.1105
vn 0.6288 -0.6903 -0.3580
vn 0.8593 -0.5060 -0.0748
vn 0.8138 -0.4768 0.3323
vn 0.4988 -0.6998 0.5114
vn 0.8593 -0.5060 -0.0748
vn 0.4988 -0.6998 0.5114
vn 0.6071 -0.7869 0.1105
vn 0.6071 -0.7869 0.1105
vn 0.2488 -0.9342 0.2557
vn 0.4361 -0.8651 -0.2478
vn 0.6071 -0.7869 0.1105
vn 0.4361 -0.8651 -0.2478
vn 0.6288 -0.6903 -0.3580
vn 0.6071 -0.7869 0.1105
vn 0.4988 -0.6998 0.5114
vn 0.2488 -0.9342 0.2557
vn 0.5268 0.1618 -0.8345
vn 0.4389 0.4421 -0.7822
vn 0.1896 0.6385 -0.7459
vn -0.7942 -0.6071 -0.0251
vn -0.9061 -0.3644 -0.2148
vn -0.8300 -0.1425 -0.5393
vn -0.7942 -0.6071 -0.0251
vn -0.8300 -0.1425 -0.5393
vn -0.8627 -0.4588 -0.2128
vn 0.5877 0.7694 -0.2502
vn -0.0204 0.7812 -0.6240
vn 0.0403 0.7029 -0.7101
vn 0.8801 -0.0557 0.4714
vn 0.8138 -0.4768 0.3323
vn 0.8434 -0.2891 0.4528
vn -0.4630 0.4504 0.7634
vn -0.5601 0.6428 0.5226
vn -0.3338 0.6858 0.6468
vn -0.4630 0.4504 0.7634
vn 0.0658 0.0394 0.9971
vn -0.2744 -0.0765 0.9586
vn 0.2488 -0.9342 0.2557
vn 0.3674 -0.8515 0.3741
vn 0.4361 -0.8651 -0.2478
vn -0.2294 0.9689 0.0923
vn -0.1241 0.7915 0.5984
vn -0.4098 0.7588 0.5062
vn -0.5601 0.6428 0.5226
vn -0.4098 0.7588 0.5062
vn -0.3338 0.6858 0.6468
vn -0.4098 0.7588 0.5062
vn -0.1241 0.7915 0.5984
vn -0.3338 0.6858 0.6468
vn 0.7629 -0.4611 -0.4532
vn 0.4361 -0.8651 -0.2478
vn 0.5378 -0.7738 -0.3348
vn 0.5697 -0.7252 -0.3866
vn 0.5016 -0.7234 -0.4746
vn 0.5259 -0.6876 -0.5007
vn 0.5697 -0.7252 -0.3866
vn 0.5259 -0.6876 -0.5007
vn 0.5388 -0.6303 -0.5590
vn 0.4389 0.4421 -0.7822
vn 0.0167 0.3804 -0.9247
vn 0.0416 0.8191 -0.5721
vn -0.9246 -0.1889 -0.3309
vn -0.8627 -0.4588 -0.2128
vn -0.8300 -0.1425 -0.5393
vn 0.8628 0.4512 0.2281
vn 0.8801 -0.0557 0.4714
vn 0.9463 0.1473 0.2878
vn -0.9246 -0.1889 -0.3309
vn -0.8300 -0.1425 -0.5393
vn -0.7381 0.5681 -0.3638
f 1/1/1 2/2/2 3/3/3
f 4/4/4 5/5/5 6/6/6
f 7/7/7 8/8/8 9/9/9
f 10/10/10 11/11/11 12/12/12
f 13/13/13 14/14/14 15/15/15
f 16/16/16 17/17/17 18/18/18
f 19/19/19 20/20/20 21/21/21
f 22/22/22 23/23/23 24/24/24
f 25/25/25 26/26/26 27/27/27
f 28/28/28 29/29/29 30/30/30
f 31/31/31 32/32/32 33/33/33
f 34/34/34 35/35/35 36/36/36
f 37/37/37 38/38/38 39/39/39
f 40/40/40 41/41/41 42/42/42
f 43/43/43 44/44/44 45/45/45
f 46/46/46 47/47/47 48/48/48
f 49/49/49 50/50/50 51/51/51
f 52/52/52 53/53/53 54/54/54
f 55/55/55 56/56/56 57/57/57
f 58/58/58 59/59/59 60/60/60
f 61/61/61 62/62/62 63/63/63
f 64/64/64 65/65/65 66/66/66
f 67/67/67 68/68/68 69/69/69
f 70/70/70 71/71/71 72/72/72
f 73/73/73 74/74/74 75/75/75
f 76/76/76 77/77/77 78/78/78
f 79/79/79 80/80/80 81/81/81
f 82/82/82 83/83/83 84/84/84
f 85/85/85 86/86/86 87/87/87
f 88/88/88 89/89/89 90/90/90
f 91/91/91 92/92/92 93/93/93
f 94/94/94 95/95/95 96/96/96
f 97/97/97 98/98/98 99/99/99
f 100/100/100 101/101/101 102/102/102
f 103/103/103 104/104/104 105/105/105
f 106/106/106 107/107/107 108/108/108
f 109/109/109 110/110/110 111/111/111
f 112/112/112 113/113/113 114/114/114
f 115/115/115 116/116/116 117/117/117
f 118/118/118 119/119/119 120/120/120
f 121/121/121 122/122/122 123/123/123
f 124/124/124 125/125/125 126/126/126
f 127/127/127 128/128/128 129/129/129
f 130/130/130 131/131/131 132/132/132
f 133/133/133 134/134/134 135/135/135
f 136/136/136 137/137/137 138/138/138
f 139/139/139 140/140/140 141/141/141
f 142/142/142 143/143/143 144/144/144
f 145/145/145 146/146/146 147/147/147
f 148/148/148 149/149/149 150/150/150
f 151/151/151 152/152/152 153/153/153
f 154/154/154 155/155/155 156/156/156
f 157/157/157 158/158/158 159/159/159
f 160/160/160 161/161/161 162/162/162
f 163/163/163 164/164/164 165/165/165
f 166/166/166 167/167/167 168/168/168
f 169/169/169 170/170/170 171/171/171
f 172/172/172 173/173/173 174/174/174
f 175/175/175 176/176/176 177/177/177
f 178/178/178 179/179/179 180/180/180
f 181/181/181 182/182/182 183/183/183
f 184/184/184 185/185/185 186/186/186
f 187/187/187 188/188/188 189/189/189
f 190/190/190 191/191/191 192/192/192
f 193/193/193 194/194/194 195/195/195
f 196/196/196 197/197/197 198/198/198
f 199/199/199 200/200/200 201/201/201
f 202/202/202 203/203/203 204/204/204
f 205/205/205 206/206/206 207/207/207
f 208/208/208 209/209/209 210/210/210
f 211/211/211 212/212/212 213/213/213
f 214/214/214 215/215/215 216/216/216
f 217/217/217 218/218/218 219/219/219
f 220/220/220 221/221/221 222/222/222
f 223/223/223 224/224/224 225/225/225
f 226/226/226 227/227/227 228/228/228
f 229/229/229 230/230/230 231/231/231
f 232/232/232 233/233/233 234/234/234
f 235/235/235 236/236/236 237/237/237
f 238/238/238 239/239/239 240/240/240
f 241/241/241 242/242/242 243/243/243
f 244/244/244 245/245/245 246/246/246
f 247/247/247 248/248/248 249/249/249
f 250/250/250 251/251/251 252/252/252
f 253/253/253 254/254/254 255/255/255
f 256/256/256 257/257/257 258/258/258
f 259/259/259 260/260/260 261/261/261
f 262/262/262 263/263/263 264/264/264
f 265/265/265 266/266/266 267/267/267
f 268/268/268 269/269/269 270/270/270
f 271/271/271 272/272/272 273/273/273
f 274/274/274 275/275/275 276/276/276
f 277/277/277 278/278/278 279/279/279
f 280/280/280 281/281/281 282/282/282
f 283/283/283 284/284/284 285/285/285
f 286/286/286 287/287/287 288/288/288
f 289/289/289 290/290/290 291/291/291
f 292/292/292 293/293/293 294/294/294
f 295/295/295 296/296/296 297/297/297
f 298/298/298 299/299/299 300/300/300
f 301/301/301 302/302/302 303/303/303
f 304/304/304 305/305/305 306/306/306
f 307/307/307 308/308/308 309/309/309
f 310/310/310 311/311/311 312/312/312
f 313/313/313 314/314/314 315/315/315
f 316/316/316 317/317/317 318/318/318
f 319/319/319 320/320/320 321/321/321
f 322/322/322 323/323/323 324/324/324
f 325/325/325 326/326/326 327/327/327
f 328/328/328 329/329/329 330/330/330
f 331/331/331 332/332/332 333/333/333
f 334/334/334 335/335/335 336/336/336
f 337/337/337 338/338/338 339/339/339
f 340/340/340 341/341/341 342/342/342
f 343/343/343 344/344/344 345/345/345
f 346/346/346 347/347/347 348/348/348
f 349/349/349 350/350/350 351/351/351
f 352/352/352 353/353/353 354/354/354
f 355/355/355 356/356/356 357/357/357
f 358/358/358 359/359/359 360/360/360
f 361/361/361 362/362/362 363/363/363
f 364/364/364 365/365/365 366/366/366
f 367/367/367 368/368/368 369/369/369
f 370/370/370 371/371/371 372/372/372
f 373/373/373 374/374/374 375/375/375
f 376/376/376 377/377/377 378/378/378
f 379/379/379 380/380/380 381/381/381
f 382/382/382 383/383/383 384/384/384
f 385/385/385 386/386/386 387/387/387
f 388/388/388 389/389/389 390/390/390
f 391/391/391 392/392/392 393/393/393
f 394/394/394 395/395/395 396/396/396
f 397/397/397 398/398/398 399/399/399
f 400/400/400 401/401/401 402/402/402
f 403/403/403 404/404/404 405/405/405
f 406/406/406 407/407/407 408/408/408
f 409/409/409 410/410/410 411/411/411
f 412/412/412 413/413/413 414/414/414
f 415/415/415 416/416/416 417/417/417
f 418/418/418 419/419/419 420/420/420
f 421/421/421 422/422/422 423/423/423
f 424/424/424 425/425/425 426/426/426
f 427/427/427 428/428/428 429/429/429
f 430/430/430 431/431/431 432/432/432
f 433/433/433 434/434/434 435/435/435
f 436/436/436 437/437/437 438/438/438
f 439/439/439 440/440/440 441/441/441
f 442/442/442 443/443/443 444/444/444
f 445/445/445 446/446/446 447/447/447
f 448/448/448 449/449/449 450/450/450
f 451/451/451 452/452/452 453/453/453
f 454/454/454 455/455/455 456/456/456
f 457/457/457 458/458/458 459/459/459
f 460/460/460 461/461/461 462/462/462
f 463/463/463 464/464/464 465/465/465
f 466/466/466 467/467/467 468/468/468
f 469/469/469 470/470/470 471/471/471
f 472/472/472 473/473/473 474/474/474
f 475/475/475 476/476/476 477/477/477
f 478/478/478 479/479/479 480/480/480
f 481/481/481 482/482/482 483/483/483
f 484/484/484 485/485/485 486/486/486
f 487/487/487 488/488/488 489/489/489
f 490/490/490 491/491/491 492/492/492
f 493/493/493 494/494/494 495/495/495
f 496/496/496 497/497/497 498/498/498
f 499/499/499 500/500/500 501/501/501
f 502/502/502 503/503/503 504/504/504
f 505/505/505 506/506/506 507/507/507
f 508/508/508 509/509/509 510/510/510
f 511/511/511 512/512/512 513/513/513
f 514/514/514 515/515/515 516/516/516
f 517/517/517 518/518/518 519/519/519
f 520/520/520 521/521/521 522/522/522
f 523/523/523 524/524/524 525/525/525
f 526/526/526 527/527/527 528/528/528
f 529/529/529 530/530/530 531/531/531
f 532/532/532 533/533/533 534/534/534
f 535/535/535 536/536/536 537/537/537
f 538/538/538 539/539/539 540/540/540
f 541/541/541 542/542/542 543/543/543
f 544/544/544 545/545/545 546/546/546
f 547/547/547 548/548/548 549/549/549
f 550/550/550 551/551/551 552/552/552
f 553/553/553 554/554/554 555/555/555
f 556/556/556 557/557/557 558/558/558
f 559/559/559 560/560/560 561/561/561
f 562/562/562 563/563/563 564/564/564
f 565/565/565 566/566/566 567/567/567
f 568/568/568 569/569/569 570/570/570
f 571/571/571 572/572/572 573/573/573
f 574/574/574 575/575/575 576/576/576
f 577/577/577 578/578/578 579/579/579
f 580/580/580 581/581/581 582/582/582
f 583/583/583 584/584/584 585/585/585
f 586/586/586 587/587/587 588/588/588
f 589/589/589 590/590/590 591/591/591
f 592/592/592 593/593/593 594/594/594
f 595/595/595 596/596/596 597/597/597
f 598/598/598 599/599/599 600/600/600
f 601/601/601 602/602/602 603/603/603
f 604/604/604 605/605/605 606/606/606
f 607/607/607 608/608/608 609/609/609
f 610/610/610 611/611/611 612/612/612
f 613/613/613 614/614/614 615/615/615
f 616/616/616 617/617/617 618/618/618
f 619/619/619 620/620/620 621/621/621
