o horn_left
v -0.90561 7.47990 -5.01099
v -1.09722 7.62559 -4.89301
v -1.10555 7.73685 -4.98558
v -0.90561 7.47990 -5.01099
v -1.10555 7.73685 -4.98558
v -0.93455 7.59089 -5.08136
v -0.93455 7.59089 -5.08136
v -0.80608 7.76831 -5.12804
v -0.86007 7.61213 -5.13763
v -0.93455 7.59089 -5.08136
v -1.10555 7.73685 -4.98558
v -0.80608 7.76831 -5.12804
v -1.24484 7.80062 -4.92786
v -1.38582 7.78284 -4.83650
v -1.32273 7.94144 -4.81205
v -1.37194 7.62888 -4.65791
v -1.30022 7.56613 -4.47474
v -1.44125 7.66320 -4.58699
v -1.37194 7.62888 -4.65791
v -1.35027 7.76007 -4.70454
v -1.24435 7.60537 -4.75572
v -1.35027 7.76007 -4.70454
v -1.28217 7.67724 -4.79548
v -1.24435 7.60537 -4.75572
v -1.32273 7.94144 -4.81205
v -1.38582 7.78284 -4.83650
v -1.47761 7.89884 -4.81932
v -1.32273 7.94144 -4.81205
v -1.50554 8.00335 -4.66885
v -1.37073 8.09977 -4.67183
v -1.32273 7.94144 -4.81205
v -1.37073 8.09977 -4.67183
v -1.30128 8.05870 -4.79516
v -1.30128 8.05870 -4.79516
v -1.05329 8.08990 -4.78202
v -1.32273 7.94144 -4.81205
v -1.30128 8.05870 -4.79516
v -1.37073 8.09977 -4.67183
v -1.31632 8.17347 -4.61784
v -1.30128 8.05870 -4.79516
v -1.31632 8.17347 -4.61784
v -1.05329 8.08990 -4.78202
v -1.08979 7.66777 -4.18413
v -0.87646 7.51706 -4.30891
v -0.88702 7.64914 -4.18516
v -1.08979 7.66777 -4.18413
v -1.14796 7.64731 -4.15815
v -0.87646 7.51706 -4.30891
v -1.08979 7.66777 -4.18413
v -0.88702 7.64914 -4.18516
v -1.23147 7.83089 -4.01491
v -1.84887 7.92520 -4.62676
v -1.75700 7.92755 -4.69641
v -1.70682 7.87042 -4.67853
v -1.66821 7.69450 -4.42613
v -1.56665 7.71117 -4.46817
v -1.58501 7.68758 -4.34845
v -1.66821 7.69450 -4.42613
v -1.58501 7.68758 -4.34845
v -1.67542 7.74415 -4.24441
v -1.66821 7.69450 -4.42613
v -1.67542 7.74415 -4.24441
v -1.70326 7.77667 -4.44994
v -1.70326 7.77667 -4.44994
v -1.56665 7.71117 -4.46817
v -1.66821 7.69450 -4.42613
v -1.70326 7.77667 -4.44994
v -1.59961 7.80668 -4.51790
v -1.56665 7.71117 -4.46817
v -1.70326 7.77667 -4.44994
v -1.83136 7.80812 -4.42503
v -1.59961 7.80668 -4.51790
v -1.84964 7.89604 -4.47829
v -1.84887 7.92520 -4.62676
v -1.59961 7.80668 -4.51790
v -1.84964 7.89604 -4.47829
v -1.59961 7.80668 -4.51790
v -1.83136 7.80812 -4.42503
v -1.84964 7.89604 -4.47829
v -1.93469 7.94989 -4.28297
v -1.90060 8.00789 -4.35435
v -1.65363 7.77951 -4.01789
v -1.48608 7.89058 -4.00801
v -1.66548 7.92178 -3.88337
v -1.65363 7.77951 -4.01789
v -1.66548 7.92178 -3.88337
v -1.77243 7.89873 -3.87192
v -1.65363 7.77951 -4.01789
v -1.77243 7.89873 -3.87192
v -1.70326 7.77667 -4.44994
v -1.65363 7.77951 -4.01789
v -1.70326 7.77667 -4.44994
v -1.67542 7.74415 -4.24441
v -1.84082 8.10756 -4.36816
v -1.95860 8.15380 -4.17143
v -1.87075 8.20570 -4.16603
v -1.66548 7.92178 -3.88337
v -1.48608 7.89058 -4.00801
v -1.43794 7.93971 -3.95191
v -1.66548 7.92178 -3.88337
v -1.43794 7.93971 -3.95191
v -1.63569 8.09523 -3.83822
v -1.66548 7.92178 -3.88337
v -1.69823 7.94011 -3.71791
v -1.77243 7.89873 -3.87192
v -1.66548 7.92178 -3.88337
v -1.63569 8.09523 -3.83822
v -1.69823 7.94011 -3.71791
v -1.63569 8.09523 -3.83822
v -1.43794 7.93971 -3.95191
v -1.33622 7.98357 -3.97000
v -1.63569 8.09523 -3.83822
v -1.65685 8.20401 -3.76786
v -1.66047 8.19784 -3.68154
v -1.63569 8.09523 -3.83822
v -1.66047 8.19784 -3.68154
v -1.69941 8.26064 -3.55050
v -1.63569 8.09523 -3.83822
v -1.69941 8.26064 -3.55050
v -1.69823 7.94011 -3.71791
v -1.65456 8.35470 -4.08713
v -1.56301 8.26581 -4.45143
v -1.69984 8.32320 -4.30490
v -1.65456 8.35470 -4.08713
v -1.69984 8.32320 -4.30490
v -1.69302 8.39814 -4.15565
v -1.65456 8.35470 -4.08713
v -1.75098 8.42021 -4.07761
v -1.68113 8.42851 -3.95867
v -1.65456 8.35470 -4.08713
v -1.68113 8.42851 -3.95867
v -1.65609 8.27327 -3.94610
v -1.65456 8.35470 -4.08713
v -1.69302 8.39814 -4.15565
v -1.77077 8.37114 -4.18200
v -1.65456 8.35470 -4.08713
v -1.77077 8.37114 -4.18200
v -1.75098 8.42021 -4.07761
v -1.68113 8.42851 -3.95867
v -1.75098 8.42021 -4.07761
v -1.85129 8.39391 -4.07680
v -1.68113 8.42851 -3.95867
v -1.85129 8.39391 -4.07680
v -1.75310 8.49302 -3.90985
v -1.68113 8.42851 -3.95867
v -1.75310 8.49302 -3.90985
v -1.62341 8.42875 -3.78157
v -1.68113 8.42851 -3.95867
v -1.62341 8.42875 -3.78157
v -1.65230 8.32216 -3.82183
v -1.68113 8.42851 -3.95867
v -1.65230 8.32216 -3.82183
v -1.65609 8.27327 -3.94610
v -1.55218 8.29943 -3.71682
v -1.60456 8.28596 -3.65174
v -1.65230 8.32216 -3.82183
v -1.55218 8.29943 -3.71682
v -1.65230 8.32216 -3.82183
v -1.62341 8.42875 -3.78157
v -1.60456 8.28596 -3.65174
v -1.66047 8.19784 -3.68154
v -1.65685 8.20401 -3.76786
v -1.60456 8.28596 -3.65174
v -1.69941 8.26064 -3.55050
v -1.66047 8.19784 -3.68154
v -2.02016 8.35322 -3.70462
v -1.92698 8.31022 -3.69953
v -1.89377 8.42590 -3.61010
v -2.02016 8.35322 -3.70462
v -1.89377 8.42590 -3.61010
v -1.92376 8.45416 -3.69102
v -2.02016 8.35322 -3.70462
v -2.03814 8.17493 -3.76356
v -1.90713 8.06330 -3.73968
v -2.02016 8.35322 -3.70462
v -1.90713 8.06330 -3.73968
v -1.92698 8.31022 -3.69953
v -1.92376 8.45416 -3.69102
v -1.97635 8.33106 -3.90621
v -2.02016 8.35322 -3.70462
v -1.39934 8.68853 -3.65587
v -1.45526 8.57084 -3.50157
v -1.51906 8.61189 -3.70888
v -1.38909 8.91208 -3.54748
v -1.39934 8.68853 -3.65587
v -1.63692 8.65344 -3.72311
v -1.24484 7.80062 -4.92786
v -1.09722 7.62559 -4.89301
v -1.38582 7.78284 -4.83650
v -1.44125 7.66320 -4.58699
v -1.56665 7.71117 -4.46817
v -1.59961 7.80668 -4.51790
v -1.44125 7.66320 -4.58699
v -1.59961 7.80668 -4.51790
v -1.37194 7.62888 -4.65791
v -1.44125 7.66320 -4.58699
v -1.30022 7.56613 -4.47474
v -1.56665 7.71117 -4.46817
v -1.37194 7.62888 -4.65791
v -1.59961 7.80668 -4.51790
v -1.60114 7.83520 -4.62583
v -1.37194 7.62888 -4.65791
v -1.60114 7.83520 -4.62583
v -1.35027 7.76007 -4.70454
v -1.50554 8.00335 -4.66885
v -1.32273 7.94144 -4.81205
v -1.65449 8.00967 -4.68664
v -1.69302 8.39814 -4.15565
v -1.69984 8.32320 -4.30490
v -1.72580 8.26288 -4.36240
v -1.69302 8.39814 -4.15565
v -1.72580 8.26288 -4.36240
v -1.77077 8.37114 -4.18200
v -1.62341 8.42875 -3.78157
v -1.75310 8.49302 -3.90985
v -1.63692 8.65344 -3.72311
v -1.62341 8.42875 -3.78157
v -1.63692 8.65344 -3.72311
v -1.51906 8.61189 -3.70888
v -0.80357 7.92906 -4.28237
v -0.80399 8.01269 -4.41059
v -0.97896 8.08105 -4.33312
v -0.80357 7.92906 -4.28237
v -0.97896 8.08105 -4.33312
v -0.98118 7.99842 -4.23237
v -0.80357 7.92906 -4.28237
v -0.98118 7.99842 -4.23237
v -0.86623 7.90817 -4.20856
v -0.86623 7.90817 -4.20856
v -0.96665 7.86758 -4.09379
v -0.86663 7.80319 -4.13926
v -0.86663 7.80319 -4.13926
v -0.96665 7.86758 -4.09379
v -1.00648 7.78993 -4.08045
v -0.86663 7.80319 -4.13926
v -1.00648 7.78993 -4.08045
v -0.81988 7.69957 -4.15343
v -0.81988 7.69957 -4.15343
v -1.00648 7.78993 -4.08045
v -0.88702 7.64914 -4.18516
v -1.00648 7.78993 -4.08045
v -0.96665 7.86758 -4.09379
v -1.21487 7.96456 -4.07710
v -1.00648 7.78993 -4.08045
v -1.21487 7.96456 -4.07710
v -1.33622 7.98357 -3.97000
v -1.00648 7.78993 -4.08045
v -1.33622 7.98357 -3.97000
v -1.23147 7.83089 -4.01491
v -1.00648 7.78993 -4.08045
v -1.23147 7.83089 -4.01491
v -0.88702 7.64914 -4.18516
v -1.33622 7.98357 -3.97000
v -1.43794 7.93971 -3.95191
v -1.23147 7.83089 -4.01491
v -1.21487 7.96456 -4.07710
v -1.14232 8.05258 -4.09527
v -1.51666 8.18193 -4.02711
v -1.21487 7.96456 -4.07710
v -1.51666 8.18193 -4.02711
v -1.58223 8.12747 -3.98560
v -1.21487 7.96456 -4.07710
v -1.58223 8.12747 -3.98560
v -1.63569 8.09523 -3.83822
v -1.21487 7.96456 -4.07710
v -1.63569 8.09523 -3.83822
v -1.33622 7.98357 -3.97000
v -1.58223 8.12747 -3.98560
v -1.51666 8.18193 -4.02711
v -1.65609 8.27327 -3.94610
v -1.58223 8.12747 -3.98560
v -1.65609 8.27327 -3.94610
v -1.65817 8.22641 -3.86159
v -1.58223 8.12747 -3.98560
v -1.65817 8.22641 -3.86159
v -1.65685 8.20401 -3.76786
v -1.58223 8.12747 -3.98560
v -1.65685 8.20401 -3.76786
v -1.63569 8.09523 -3.83822
v -1.65817 8.22641 -3.86159
v -1.65609 8.27327 -3.94610
v -1.65230 8.32216 -3.82183
v -1.65817 8.22641 -3.86159
v -1.65230 8.32216 -3.82183
v -1.60456 8.28596 -3.65174
v -1.65817 8.22641 -3.86159
v -1.60456 8.28596 -3.65174
v -1.65685 8.20401 -3.76786
v -1.51666 8.18193 -4.02711
v -1.35172 8.14903 -4.13225
v -1.65456 8.35470 -4.08713
v -1.51666 8.18193 -4.02711
v -1.65456 8.35470 -4.08713
v -1.65609 8.27327 -3.94610
v -1.35172 8.14903 -4.13225
v -1.15410 8.15352 -4.24268
v -1.65456 8.35470 -4.08713
v -1.35172 8.14903 -4.13225
v -1.51666 8.18193 -4.02711
v -1.14232 8.05258 -4.09527
v -1.35172 8.14903 -4.13225
v -1.14232 8.05258 -4.09527
v -1.15410 8.15352 -4.24268
v -1.15410 8.15352 -4.24268
v -1.24993 8.18254 -4.36539
v -1.65456 8.35470 -4.08713
v -1.24993 8.18254 -4.36539
v -1.31632 8.17347 -4.61784
v -1.56301 8.26581 -4.45143
v -1.24993 8.18254 -4.36539
v -1.56301 8.26581 -4.45143
v -1.65456 8.35470 -4.08713
v -1.56301 8.26581 -4.45143
v -1.31632 8.17347 -4.61784
v -1.37073 8.09977 -4.67183
v -1.56301 8.26581 -4.45143
v -1.37073 8.09977 -4.67183
v -1.60299 8.19077 -4.50205
v -1.60299 8.19077 -4.50205
v -1.37073 8.09977 -4.67183
v -1.50554 8.00335 -4.66885
v -1.60299 8.19077 -4.50205
v -1.79817 8.20019 -4.32978
v -1.72580 8.26288 -4.36240
v -1.60299 8.19077 -4.50205
v -1.72580 8.26288 -4.36240
v -1.69984 8.32320 -4.30490
v -1.60299 8.19077 -4.50205
v -1.69984 8.32320 -4.30490
v -1.56301 8.26581 -4.45143
v -1.60299 8.19077 -4.50205
v -1.50554 8.00335 -4.66885
v -1.84082 8.10756 -4.36816
v -1.60299 8.19077 -4.50205
v -1.84082 8.10756 -4.36816
v -1.79817 8.20019 -4.32978
v -1.84082 8.10756 -4.36816
v -1.50554 8.00335 -4.66885
v -1.65449 8.00967 -4.68664
v -1.84082 8.10756 -4.36816
v -1.65449 8.00967 -4.68664
v -1.84389 8.04789 -4.59563
v -1.65449 8.00967 -4.68664
v -1.67339 7.96668 -4.74685
v -1.84389 8.04789 -4.59563
v -1.67339 7.96668 -4.74685
v -1.55623 7.85670 -4.79906
v -1.75700 7.92755 -4.69641
v -1.67339 7.96668 -4.74685
v -1.75700 7.92755 -4.69641
v -1.84887 7.92520 -4.62676
v -1.67339 7.96668 -4.74685
v -1.84887 7.92520 -4.62676
v -1.84389 8.04789 -4.59563
v -1.55623 7.85670 -4.79906
v -1.35027 7.76007 -4.70454
v -1.70682 7.87042 -4.67853
v -1.55623 7.85670 -4.79906
v -1.70682 7.87042 -4.67853
v -1.75700 7.92755 -4.69641
v -1.55623 7.85670 -4.79906
v -1.67339 7.96668 -4.74685
v -1.47761 7.89884 -4.81932
v -1.70682 7.87042 -4.67853
v -1.35027 7.76007 -4.70454
v -1.60114 7.83520 -4.62583
v -1.70682 7.87042 -4.67853
v -1.60114 7.83520 -4.62583
v -1.84887 7.92520 -4.62676
v -1.55623 7.85670 -4.79906
v -1.38582 7.78284 -4.83650
v -1.35027 7.76007 -4.70454
v -1.55623 7.85670 -4.79906
v -1.47761 7.89884 -4.81932
v -1.38582 7.78284 -4.83650
v -1.67339 7.96668 -4.74685
v -1.65449 8.00967 -4.68664
v -1.32273 7.94144 -4.81205
v -1.67339 7.96668 -4.74685
v -1.32273 7.94144 -4.81205
v -1.47761 7.89884 -4.81932
v -1.31632 8.17347 -4.61784
v -0.96280 8.08051 -4.70452
v -1.05329 8.08990 -4.78202
v -1.31632 8.17347 -4.61784
v -1.24993 8.18254 -4.36539
v -0.91891 8.07146 -4.59457
v -1.31632 8.17347 -4.61784
v -0.91891 8.07146 -4.59457
v -0.96280 8.08051 -4.70452
v -0.91891 8.07146 -4.59457
v -1.24993 8.18254 -4.36539
v -1.15410 8.15352 -4.24268
v -0.91891 8.07146 -4.59457
v -1.15410 8.15352 -4.24268
v -0.97896 8.08105 -4.33312
v -0.91891 8.07146 -4.59457
v -0.97896 8.08105 -4.33312
v -0.80399 8.01269 -4.41059
v -0.96280 8.08051 -4.70452
v -0.82888 7.98952 -4.91660
v -1.05329 8.08990 -4.78202
v -0.82888 7.98952 -4.91660
v -1.32273 7.94144 -4.81205
v -1.05329 8.08990 -4.78202
v -0.71455 7.99759 -4.84617
v -0.96280 8.08051 -4.70452
v -0.91891 8.07146 -4.59457
v -0.82888 7.98952 -4.91660
v -0.90616 7.82651 -5.02891
v -1.24484 7.80062 -4.92786
v -0.82888 7.98952 -4.91660
v -1.24484 7.80062 -4.92786
v -1.32273 7.94144 -4.81205
v -0.90616 7.82651 -5.02891
v -0.80608 7.76831 -5.12804
v -1.10555 7.73685 -4.98558
v -0.90616 7.82651 -5.02891
v -1.10555 7.73685 -4.98558
v -1.24484 7.80062 -4.92786
v -1.15410 8.15352 -4.24268
v -0.98118 7.99842 -4.23237
v -0.97896 8.08105 -4.33312
v -1.15410 8.15352 -4.24268
v -1.14232 8.05258 -4.09527
v -0.86623 7.90817 -4.20856
v -1.15410 8.15352 -4.24268
v -0.86623 7.90817 -4.20856
v -0.98118 7.99842 -4.23237
v -1.14232 8.05258 -4.09527
v -1.21487 7.96456 -4.07710
v -0.96665 7.86758 -4.09379
v -1.14232 8.05258 -4.09527
v -0.96665 7.86758 -4.09379
v -0.86623 7.90817 -4.20856
v -1.63692 8.65344 -3.72311
v -1.75310 8.49302 -3.90985
v -1.82241 8.54109 -3.81389
v -1.63692 8.65344 -3.72311
v -1.82241 8.54109 -3.81389
v -1.68553 8.71393 -3.67159
v -1.82241 8.54109 -3.81389
v -1.92376 8.45416 -3.69102
v -1.78977 8.71305 -3.53498
v -1.82241 8.54109 -3.81389
v -1.78977 8.71305 -3.53498
v -1.68553 8.71393 -3.67159
v -1.82241 8.54109 -3.81389
v -1.75310 8.49302 -3.90985
v -1.88081 8.39452 -3.92561
v -1.82241 8.54109 -3.81389
v -1.88081 8.39452 -3.92561
v -1.97635 8.33106 -3.90621
v -1.82241 8.54109 -3.81389
v -1.97635 8.33106 -3.90621
v -1.92376 8.45416 -3.69102
v -1.88081 8.39452 -3.92561
v -1.75310 8.49302 -3.90985
v -1.85129 8.39391 -4.07680
v -1.97635 8.33106 -3.90621
v -2.01908 8.13088 -3.97138
v -2.02016 8.35322 -3.70462
v -1.97635 8.33106 -3.90621
v -1.88081 8.39452 -3.92561
v -1.87075 8.20570 -4.16603
v -1.97635 8.33106 -3.90621
v -1.87075 8.20570 -4.16603
v -1.95860 8.15380 -4.17143
v -1.97635 8.33106 -3.90621
v -1.95860 8.15380 -4.17143
v -2.00890 8.06648 -4.19117
v -1.97635 8.33106 -3.90621
v -2.00890 8.06648 -4.19117
v -2.01908 8.13088 -3.97138
v -2.00890 8.06648 -4.19117
v -1.93469 7.94989 -4.28297
v -2.02749 8.04011 -3.94231
v -2.00890 8.06648 -4.19117
v -2.02749 8.04011 -3.94231
v -2.01908 8.13088 -3.97138
v -2.00890 8.06648 -4.19117
v -1.95860 8.15380 -4.17143
v -1.84082 8.10756 -4.36816
v -2.00890 8.06648 -4.19117
v -1.84082 8.10756 -4.36816
v -1.90060 8.00789 -4.35435
v -2.00890 8.06648 -4.19117
v -1.90060 8.00789 -4.35435
v -1.93469 7.94989 -4.28297
v -2.02749 8.04011 -3.94231
v -1.90713 8.06330 -3.73968
v -2.03814 8.17493 -3.76356
v -2.02749 8.04011 -3.94231
v -2.03814 8.17493 -3.76356
v -2.02016 8.35322 -3.70462
v -2.02749 8.04011 -3.94231
v -2.02016 8.35322 -3.70462
v -2.01908 8.13088 -3.97138
v -2.02749 8.04011 -3.94231
v -1.93469 7.94989 -4.28297
v -1.89998 7.95609 -4.14447
v -1.89998 7.95609 -4.14447
v -1.89012 7.96111 -3.90179
v -2.02749 8.04011 -3.94231
v -1.89998 7.95609 -4.14447
v -1.93469 7.94989 -4.28297
v -1.84964 7.89604 -4.47829
v -1.89998 7.95609 -4.14447
v -1.84964 7.89604 -4.47829
v -1.83136 7.80812 -4.42503
v -1.89998 7.95609 -4.14447
v -1.83136 7.80812 -4.42503
v -1.89012 7.96111 -3.90179
v -1.89012 7.96111 -3.90179
v -1.84618 7.91159 -3.87528
v -1.85548 7.98759 -3.69984
v -1.89012 7.96111 -3.90179
v -1.85548 7.98759 -3.69984
v -1.90713 8.06330 -3.73968
v -1.89012 7.96111 -3.90179
v -1.90713 8.06330 -3.73968
v -2.02749 8.04011 -3.94231
v -1.89012 7.96111 -3.90179
v -1.81254 7.86542 -4.08665
v -1.84618 7.91159 -3.87528
v -1.81254 7.86542 -4.08665
v -1.77243 7.89873 -3.87192
v -1.84618 7.91159 -3.87528
v -1.81254 7.86542 -4.08665
v -1.89012 7.96111 -3.90179
v -1.83136 7.80812 -4.42503
v -1.81254 7.86542 -4.08665
v -1.83136 7.80812 -4.42503
v -1.70326 7.77667 -4.44994
v -1.81254 7.86542 -4.08665
v -1.70326 7.77667 -4.44994
v -1.77243 7.89873 -3.87192
v -1.90713 8.06330 -3.73968
v -1.85548 7.98759 -3.69984
v -1.84430 8.29112 -3.53404
v -1.90713 8.06330 -3.73968
v -1.84430 8.29112 -3.53404
v -1.89384 8.22753 -3.64565
v -1.90713 8.06330 -3.73968
v -1.89384 8.22753 -3.64565
v -1.92698 8.31022 -3.69953
v -1.89384 8.22753 -3.64565
v -1.89377 8.42590 -3.61010
v -1.92698 8.31022 -3.69953
v -1.84430 8.29112 -3.53404
v -1.69823 7.94011 -3.71791
v -1.69941 8.26064 -3.55050
v -1.84430 8.29112 -3.53404
v -1.85548 7.98759 -3.69984
v -1.69823 7.94011 -3.71791
v -1.85548 7.98759 -3.69984
v -1.84618 7.91159 -3.87528
v -1.77243 7.89873 -3.87192
v -1.85548 7.98759 -3.69984
v -1.77243 7.89873 -3.87192
v -1.69823 7.94011 -3.71791
v -1.88081 8.39452 -3.92561
v -1.85129 8.39391 -4.07680
v -1.83756 8.29828 -4.18822
v -1.88081 8.39452 -3.92561
v -1.83756 8.29828 -4.18822
v -1.87075 8.20570 -4.16603
v -1.83756 8.29828 -4.18822
v -1.85129 8.39391 -4.07680
v -1.75098 8.42021 -4.07761
v -1.83756 8.29828 -4.18822
v -1.75098 8.42021 -4.07761
v -1.77077 8.37114 -4.18200
v -1.83756 8.29828 -4.18822
v -1.77077 8.37114 -4.18200
v -1.72580 8.26288 -4.36240
v -1.83756 8.29828 -4.18822
v -1.72580 8.26288 -4.36240
v -1.79817 8.20019 -4.32978
v -1.83756 8.29828 -4.18822
v -1.79817 8.20019 -4.32978
v -1.84082 8.10756 -4.36816
v -1.83756 8.29828 -4.18822
v -1.84082 8.10756 -4.36816
v -1.87075 8.20570 -4.16603
v -1.68553 8.71393 -3.67159
v -1.38909 8.91208 -3.54748
v -1.63692 8.65344 -3.72311
v -1.60114 7.83520 -4.62583
v -1.59961 7.80668 -4.51790
v -1.84887 7.92520 -4.62676
v -1.53443 8.41979 -3.57231
v -1.55218 8.29943 -3.71682
v -1.51906 8.61189 -3.70888
v -1.51906 8.61189 -3.70888
v -1.55218 8.29943 -3.71682
v -1.62341 8.42875 -3.78157
v -1.43794 7.93971 -3.95191
v -1.48608 7.89058 -4.00801
v -1.08979 7.66777 -4.18413
v -1.43794 7.93971 -3.95191
v -1.08979 7.66777 -4.18413
v -1.23147 7.83089 -4.01491
v -1.48608 7.89058 -4.00801
v -1.65363 7.77951 -4.01789
v -1.14796 7.64731 -4.15815
v -1.48608 7.89058 -4.00801
v -1.14796 7.64731 -4.15815
v -1.08979 7.66777 -4.18413
v -1.52117 7.70653 -4.08092
v -1.65363 7.77951 -4.01789
v -1.67542 7.74415 -4.24441
v -1.52117 7.70653 -4.08092
v -1.67542 7.74415 -4.24441
v -1.58501 7.68758 -4.34845
v -1.52117 7.70653 -4.08092
v -1.58501 7.68758 -4.34845
v -1.40583 7.65001 -4.37116
v -1.52117 7.70653 -4.08092
v -1.40583 7.65001 -4.37116
v -1.35452 7.67090 -4.13480
v -1.40583 7.65001 -4.37116
v -1.22312 7.55528 -4.27807
v -1.35452 7.67090 -4.13480
v -1.40583 7.65001 -4.37116
v -1.58501 7.68758 -4.34845
v -1.56665 7.71117 -4.46817
v -1.40583 7.65001 -4.37116
v -1.56665 7.71117 -4.46817
v -1.30022 7.56613 -4.47474
v -1.22312 7.55528 -4.27807
v -1.14796 7.64731 -4.15815
v -1.35452 7.67090 -4.13480
v -1.65363 7.77951 -4.01789
v -1.52117 7.70653 -4.08092
v -1.35452 7.67090 -4.13480
v -1.65363 7.77951 -4.01789
v -1.35452 7.67090 -4.13480
v -1.14796 7.64731 -4.15815
v -1.90060 8.00789 -4.35435
v -1.84082 8.10756 -4.36816
v -1.84389 8.04789 -4.59563
v -1.90060 8.00789 -4.35435
v -1.84389 8.04789 -4.59563
v -1.84964 7.89604 -4.47829
v -1.84389 8.04789 -4.59563
v -1.84887 7.92520 -4.62676
v -1.84964 7.89604 -4.47829
v -1.28217 7.67724 -4.79548
v -1.09956 7.56918 -4.84147
v -1.24435 7.60537 -4.75572
v -1.28217 7.67724 -4.79548
v -1.35027 7.76007 -4.70454
v -1.38582 7.78284 -4.83650
v -1.28217 7.67724 -4.79548
v -1.38582 7.78284 -4.83650
v -1.09722 7.62559 -4.89301
v -1.28217 7.67724 -4.79548
v -1.09722 7.62559 -4.89301
v -1.09956 7.56918 -4.84147
v -1.24484 7.80062 -4.92786
v -1.10555 7.73685 -4.98558
v -1.09722 7.62559 -4.89301
v -1.63692 8.65344 -3.72311
v -1.39934 8.68853 -3.65587
v -1.51906 8.61189 -3.70888
vt 0.17549 0.76371
vt 0.17678 0.77593
vt 0.17151 0.77542
vt 0.07178 0.98970
vt 0.06812 1.00145
vt 0.06626 0.99327
vt 0.92486 0.87637
vt 0.93455 0.88225
vt 0.92641 0.88004
vt 0.92486 0.87637
vt 0.93137 0.86772
vt 0.93435 0.88274
vt 0.93386 0.86063
vt 0.93275 0.85305
vt 0.94042 0.85647
vt 0.18114 0.79395
vt 0.19130 0.79443
vt 0.18290 0.79879
vt 0.99011 0.86961
vt 0.99599 0.86563
vt 0.99413 0.87454
vt 0.82158 0.59681
vt 0.81820 0.59153
vt 0.82110 0.58854
vt 0.94029 0.85643
vt 0.93291 0.85335
vt 0.93804 0.84852
vt 0.88168 0.98936
vt 0.88225 0.99804
vt 0.87595 0.99842
vt 0.88160 0.98925
vt 0.87589 0.99837
vt 0.87591 0.99159
vt 0.47990 0.83802
vt 0.47378 0.82712
vt 0.48291 0.83719
vt 0.47990 0.83802
vt 0.47564 0.84418
vt 0.47191 0.84340
vt 0.47990 0.83802
vt 0.47189 0.84340
vt 0.47380 0.82712
vt 0.75044 0.91436
vt 0.74712 0.90073
vt 0.75359 0.90440
vt 0.98417 0.54684
vt 0.98535 0.54407
vt 0.98767 0.55953
vt 0.75044 0.91434
vt 0.75401 0.90454
vt 0.75649 0.92519
vt 0.93769 0.82993
vt 0.93827 0.83439
vt 0.93540 0.83715
vt 0.18501 0.81312
vt 0.18532 0.80766
vt 0.19039 0.81090
vt 0.18514 0.81338
vt 0.19061 0.81129
vt 0.19309 0.81797
vt 0.99838 0.33383
vt 0.99957 0.34342
vt 0.99403 0.33432
vt 0.18211 0.81464
vt 0.18523 0.80766
vt 0.18539 0.81320
vt 0.99408 0.35511
vt 0.99743 0.35969
vt 0.99275 0.36266
vt 0.99404 0.35506
vt 0.99446 0.34908
vt 0.99700 0.35932
vt 0.17809 0.82174
vt 0.17112 0.81860
vt 0.18220 0.80876
vt 0.99819 0.34621
vt 0.99775 0.35979
vt 0.99367 0.34840
vt 0.87481 0.16145
vt 0.87920 0.17124
vt 0.87440 0.16995
vt 0.81356 0.91592
vt 0.80521 0.92202
vt 0.80677 0.91328
vt 0.20401 0.82242
vt 0.20954 0.82715
vt 0.20781 0.83208
vt 0.20392 0.82246
vt 0.20759 0.83231
vt 0.18314 0.81436
vt 0.20394 0.82242
vt 0.18275 0.81535
vt 0.19309 0.81797
vt 0.86936 0.17252
vt 0.87442 0.18186
vt 0.87180 0.18381
vt 0.80677 0.91328
vt 0.80521 0.92202
vt 0.80195 0.92368
vt 0.80677 0.91328
vt 0.80195 0.92368
vt 0.79812 0.91233
vt 0.20954 0.82715
vt 0.21569 0.83286
vt 0.20768 0.83209
vt 0.93300 0.24302
vt 0.93623 0.25172
vt 0.92626 0.24826
vt 0.79788 0.91209
vt 0.80195 0.92368
vt 0.79802 0.92739
vt 0.93603 0.25160
vt 0.93601 0.25816
vt 0.93216 0.26039
vt 0.93606 0.25180
vt 0.93216 0.26039
vt 0.92795 0.26648
vt 0.93624 0.25168
vt 0.92798 0.26646
vt 0.92622 0.24830
vt 0.45458 0.87180
vt 0.46954 0.85904
vt 0.46571 0.86884
vt 0.45458 0.87182
vt 0.46578 0.86937
vt 0.45856 0.87239
vt 0.45458 0.87179
vt 0.45620 0.87692
vt 0.44913 0.87635
vt 0.95365 0.25511
vt 0.94999 0.26168
vt 0.94543 0.25583
vt 0.45455 0.87187
vt 0.45856 0.87239
vt 0.46153 0.87520
vt 0.45459 0.87179
vt 0.46153 0.87520
vt 0.45620 0.87692
vt 0.44913 0.87635
vt 0.45620 0.87692
vt 0.45841 0.88136
vt 0.44913 0.87635
vt 0.45841 0.88136
vt 0.44789 0.88140
vt 0.44913 0.87635
vt 0.44824 0.87999
vt 0.43963 0.87741
vt 0.94999 0.26168
vt 0.94359 0.26672
vt 0.94150 0.26163
vt 0.94999 0.26168
vt 0.94161 0.26153
vt 0.94542 0.25583
vt 0.07868 0.99471
vt 0.07508 0.99387
vt 0.08199 0.98798
vt 0.84625 0.59683
vt 0.84226 0.59316
vt 0.84520 0.58892
vt 0.93392 0.26552
vt 0.93216 0.26039
vt 0.93601 0.25816
vt 0.93369 0.26533
vt 0.92770 0.26640
vt 0.93216 0.26039
vt 0.57955 0.97954
vt 0.57473 0.98161
vt 0.57321 0.97557
vt 0.58023 0.97927
vt 0.57321 0.97557
vt 0.57514 0.97425
vt 0.57967 0.97979
vt 0.58005 0.98900
vt 0.57303 0.99433
vt 0.57964 0.97994
vt 0.57282 0.99407
vt 0.57473 0.98161
vt 0.87649 0.21090
vt 0.87530 0.19824
vt 0.88144 0.20672
vt 0.94727 0.28370
vt 0.93695 0.28276
vt 0.94617 0.27804
vt 0.78134 0.39712
vt 0.78140 0.40793
vt 0.76919 0.41043
vt 0.93391 0.86024
vt 0.92529 0.86839
vt 0.93222 0.85324
vt 0.18281 0.79891
vt 0.18509 0.80776
vt 0.18299 0.80852
vt 0.18281 0.79891
vt 0.18225 0.80871
vt 0.18110 0.79393
vt 0.18281 0.79891
vt 0.19168 0.79405
vt 0.18529 0.80772
vt 0.18114 0.79397
vt 0.18230 0.80847
vt 0.17701 0.80665
vt 0.18116 0.79387
vt 0.17701 0.80665
vt 0.17845 0.79284
vt 0.97530 0.55888
vt 0.97524 0.54667
vt 0.98073 0.56434
vt 0.45891 0.87243
vt 0.46533 0.86888
vt 0.46896 0.86842
vt 0.45856 0.87239
vt 0.46891 0.86843
vt 0.46153 0.87520
vt 0.77025 0.42152
vt 0.76287 0.41814
vt 0.76920 0.41029
vt 0.77068 0.42075
vt 0.76922 0.41022
vt 0.77548 0.41164
vt 0.44542 0.82542
vt 0.45128 0.82324
vt 0.45132 0.83342
vt 0.44523 0.82538
vt 0.45132 0.83342
vt 0.44679 0.83513
vt 0.44529 0.82539
vt 0.44679 0.83513
vt 0.44287 0.82965
vt 0.79361 0.95083
vt 0.79725 0.94713
vt 0.79863 0.95291
vt 0.79863 0.95291
vt 0.79725 0.94713
vt 0.80169 0.94662
vt 0.79863 0.95291
vt 0.80169 0.94662
vt 0.80287 0.95664
vt 0.80263 0.95679
vt 0.80192 0.94680
vt 0.80639 0.95442
vt 0.80169 0.94662
vt 0.79725 0.94713
vt 0.79694 0.93351
vt 0.80169 0.94662
vt 0.79656 0.93369
vt 0.79750 0.92799
vt 0.80169 0.94662
vt 0.79808 0.92788
vt 0.80362 0.93530
vt 0.80169 0.94662
vt 0.80362 0.93530
vt 0.80648 0.95449
vt 0.79807 0.92777
vt 0.80195 0.92368
vt 0.80362 0.93530
vt 0.79675 0.93367
vt 0.79140 0.93542
vt 0.79178 0.91528
vt 0.79709 0.93337
vt 0.79163 0.91541
vt 0.79544 0.91331
vt 0.99468 0.62807
vt 0.99547 0.64833
vt 0.98911 0.65294
vt 0.99494 0.62823
vt 0.98878 0.65273
vt 0.99127 0.63572
vt 0.94383 0.24927
vt 0.94786 0.25076
vt 0.94539 0.25589
vt 0.94383 0.24927
vt 0.94543 0.25583
vt 0.94056 0.25634
vt 0.94383 0.24927
vt 0.94056 0.25634
vt 0.93601 0.25816
vt 0.94383 0.24927
vt 0.93601 0.25816
vt 0.93655 0.25269
vt 0.94056 0.25634
vt 0.94543 0.25583
vt 0.94154 0.26148
vt 0.94056 0.25634
vt 0.94163 0.26152
vt 0.93397 0.26539
vt 0.94056 0.25634
vt 0.93391 0.26523
vt 0.93601 0.25816
vt 0.44880 0.86552
vt 0.45019 0.85543
vt 0.45530 0.87194
vt 0.44899 0.86557
vt 0.45440 0.87172
vt 0.44817 0.87437
vt 0.11278 0.76788
vt 0.10874 0.77682
vt 0.10880 0.74970
vt 0.45019 0.85543
vt 0.44921 0.86555
vt 0.44394 0.84592
vt 0.11278 0.76788
vt 0.11372 0.77981
vt 0.10881 0.77678
vt 0.45092 0.84394
vt 0.45872 0.84594
vt 0.45460 0.87186
vt 0.45871 0.84589
vt 0.47189 0.84340
vt 0.46952 0.85894
vt 0.45871 0.84593
vt 0.46954 0.85902
vt 0.45458 0.87179
vt 0.46963 0.85902
vt 0.47191 0.84340
vt 0.47557 0.84420
vt 0.46940 0.85902
vt 0.47602 0.84421
vt 0.47300 0.85923
vt 0.93896 0.98054
vt 0.93913 0.99292
vt 0.93205 0.98820
vt 0.86016 0.16987
vt 0.86649 0.17697
vt 0.86236 0.17762
vt 0.47311 0.85930
vt 0.46898 0.86842
vt 0.46621 0.86906
vt 0.47306 0.85925
vt 0.46625 0.86899
vt 0.46956 0.85903
vt 0.86040 0.16998
vt 0.86113 0.15710
vt 0.86959 0.17256
vt 0.05189 0.87819
vt 0.04168 0.88670
vt 0.04210 0.88161
vt 0.97377 0.58244
vt 0.97524 0.55896
vt 0.98072 0.56435
vt 0.97370 0.58251
vt 0.98075 0.56433
vt 0.98306 0.57504
vt 0.98057 0.56442
vt 0.98369 0.56294
vt 0.98318 0.57500
vt 0.94070 0.83863
vt 0.93565 0.84442
vt 0.93826 0.83444
vt 0.94073 0.83842
vt 0.93827 0.83439
vt 0.93762 0.82961
vt 0.94079 0.83828
vt 0.93769 0.82948
vt 0.94391 0.82922
vt 0.16982 0.80088
vt 0.17921 0.79288
vt 0.17208 0.81053
vt 0.17008 0.80084
vt 0.17217 0.81052
vt 0.16962 0.81289
vt 0.93560 0.84479
vt 0.94072 0.83842
vt 0.93804 0.84852
vt 0.17212 0.81051
vt 0.17919 0.79292
vt 0.17701 0.80665
vt 0.17211 0.81053
vt 0.17700 0.80666
vt 0.17105 0.81864
vt 0.16987 0.80085
vt 0.17262 0.79166
vt 0.17909 0.79288
vt 0.93564 0.84455
vt 0.93804 0.84852
vt 0.93239 0.85344
vt 0.98368 0.56294
vt 0.98088 0.56429
vt 0.97548 0.54656
vt 0.98392 0.56283
vt 0.97530 0.54663
vt 0.98047 0.55230
vt 0.47190 0.84344
vt 0.46819 0.82458
vt 0.47377 0.82712
vt 0.47189 0.84339
vt 0.45872 0.84593
vt 0.46213 0.82489
vt 0.47190 0.84344
vt 0.46212 0.82485
vt 0.46819 0.82458
vt 0.46212 0.82488
vt 0.45872 0.84592
vt 0.45093 0.84397
vt 0.46221 0.82498
vt 0.45091 0.84395
vt 0.45132 0.83342
vt 0.46208 0.82487
vt 0.45141 0.83348
vt 0.45112 0.82321
vt 0.46819 0.82463
vt 0.47515 0.81325
vt 0.47378 0.82708
vt 0.94435 0.88150
vt 0.94062 0.85636
vt 0.94838 0.87006
vt 0.46930 0.80945
vt 0.46818 0.82458
vt 0.46215 0.82492
vt 0.94442 0.88148
vt 0.93665 0.87753
vt 0.93486 0.86012
vt 0.94450 0.88144
vt 0.93459 0.86021
vt 0.94059 0.85637
vt 0.93665 0.87753
vt 0.93381 0.88303
vt 0.93165 0.86739
vt 0.93651 0.87763
vt 0.93164 0.86740
vt 0.93389 0.86056
vt 0.45078 0.84393
vt 0.44679 0.83513
vt 0.45132 0.83342
vt 0.45133 0.84416
vt 0.44376 0.84583
vt 0.44341 0.82980
vt 0.45078 0.84392
vt 0.44395 0.82994
vt 0.44679 0.83513
vt 0.79140 0.93542
vt 0.79694 0.93351
vt 0.79725 0.94713
vt 0.79140 0.93542
vt 0.79725 0.94713
vt 0.79310 0.95112
vt 0.43699 0.88106
vt 0.44888 0.88137
vt 0.44543 0.88681
vt 0.43703 0.88105
vt 0.44543 0.88681
vt 0.43529 0.88491
vt 0.86808 0.20883
vt 0.87652 0.21090
vt 0.86992 0.22533
vt 0.86918 0.20865
vt 0.86927 0.22550
vt 0.86442 0.22005
vt 0.44543 0.88681
vt 0.44904 0.88151
vt 0.45203 0.88600
vt 0.86842 0.20866
vt 0.87146 0.19948
vt 0.87517 0.19817
vt 0.86842 0.20866
vt 0.87516 0.19826
vt 0.87614 0.21104
vt 0.87130 0.19957
vt 0.86753 0.20302
vt 0.86668 0.19326
vt 0.87539 0.19820
vt 0.88161 0.18930
vt 0.88075 0.20712
vt 0.87530 0.19819
vt 0.87147 0.19948
vt 0.87196 0.18382
vt 0.63154 1.00512
vt 0.62796 0.99032
vt 0.63216 0.99042
vt 0.87550 0.19820
vt 0.87442 0.18186
vt 0.87776 0.17830
vt 0.87548 0.19816
vt 0.87776 0.17830
vt 0.88187 0.18934
vt 0.87776 0.17830
vt 0.87951 0.17077
vt 0.88656 0.18773
vt 0.87776 0.17830
vt 0.88652 0.18776
vt 0.88187 0.18934
vt 0.87776 0.17830
vt 0.87442 0.18186
vt 0.86963 0.17255
vt 0.87776 0.17830
vt 0.86929 0.17239
vt 0.87440 0.16995
vt 0.87776 0.17830
vt 0.87440 0.16995
vt 0.87915 0.17095
vt 0.19836 0.84329
vt 0.21040 0.84278
vt 0.20603 0.84881
vt 0.88652 0.18776
vt 0.88652 0.19924
vt 0.88093 0.20708
vt 0.88652 0.18776
vt 0.88091 0.20706
vt 0.88187 0.18934
vt 0.19835 0.84323
vt 0.18498 0.83056
vt 0.19212 0.83213
vt 0.19212 0.83213
vt 0.20355 0.83707
vt 0.19833 0.84324
vt 0.19212 0.83213
vt 0.18508 0.83014
vt 0.17781 0.82244
vt 0.88265 0.17723
vt 0.87479 0.16153
vt 0.87994 0.16102
vt 0.88286 0.17706
vt 0.87994 0.16103
vt 0.89009 0.18719
vt 0.88991 0.18728
vt 0.89243 0.18694
vt 0.89471 0.19650
vt 0.88990 0.18728
vt 0.89471 0.19650
vt 0.89077 0.19707
vt 0.20351 0.83727
vt 0.21036 0.84255
vt 0.19828 0.84283
vt 0.20352 0.83721
vt 0.19697 0.82875
vt 0.20584 0.83546
vt 0.19697 0.82875
vt 0.20767 0.83208
vt 0.20584 0.83546
vt 0.19697 0.82875
vt 0.20351 0.83721
vt 0.18108 0.82169
vt 0.19698 0.82877
vt 0.18108 0.82143
vt 0.18292 0.81482
vt 0.19697 0.82875
vt 0.18292 0.81481
vt 0.20772 0.83215
vt 0.89072 0.19703
vt 0.89471 0.19650
vt 0.88754 0.21270
vt 0.89071 0.19703
vt 0.88740 0.21266
vt 0.88685 0.20597
vt 0.57261 0.99410
vt 0.57248 0.98571
vt 0.57473 0.98161
vt 0.88685 0.20597
vt 0.87983 0.21347
vt 0.88209 0.20620
vt 0.94958 0.17104
vt 0.96266 0.15747
vt 0.95693 0.17255
vt 0.94948 0.17125
vt 0.95438 0.15668
vt 0.96278 0.15720
vt 0.21353 0.84048
vt 0.20584 0.83546
vt 0.20767 0.83207
vt 0.21353 0.84048
vt 0.20767 0.83206
vt 0.21647 0.83269
vt 0.87135 0.19939
vt 0.86668 0.19326
vt 0.86710 0.18576
vt 0.87141 0.19947
vt 0.86710 0.18576
vt 0.87180 0.18381
vt 0.46338 0.87762
vt 0.45841 0.88136
vt 0.45620 0.87692
vt 0.46338 0.87762
vt 0.45620 0.87692
vt 0.46153 0.87520
vt 0.86710 0.18576
vt 0.86381 0.18835
vt 0.86201 0.17765
vt 0.86710 0.18576
vt 0.86223 0.17761
vt 0.86645 0.17697
vt 0.86710 0.18576
vt 0.86646 0.17697
vt 0.86961 0.17255
vt 0.86710 0.18576
vt 0.86961 0.17259
vt 0.87180 0.18381
vt 0.76659 0.40745
vt 0.78137 0.39733
vt 0.76921 0.41023
vt 0.17701 0.80665
vt 0.18222 0.80872
vt 0.17104 0.81865
vt 0.93496 0.27385
vt 0.93755 0.26450
vt 0.94616 0.27795
vt 0.90333 0.82859
vt 0.88791 0.82906
vt 0.89445 0.82435
vt 0.75627 0.93703
vt 0.75283 0.93809
vt 0.75080 0.91446
vt 0.75627 0.93703
vt 0.75095 0.91457
vt 0.75649 0.92519
vt 0.80521 0.92202
vt 0.81356 0.91593
vt 0.81127 0.94228
vt 0.80546 0.92278
vt 0.81099 0.94167
vt 0.80908 0.94426
vt 0.20421 0.81444
vt 0.20394 0.82246
vt 0.19309 0.81797
vt 0.20420 0.81445
vt 0.19309 0.81797
vt 0.19048 0.81101
vt 0.20421 0.81440
vt 0.19048 0.81105
vt 0.19359 0.80211
vt 0.20420 0.81439
vt 0.19360 0.80211
vt 0.20558 0.80532
vt 0.19358 0.80220
vt 0.20223 0.79520
vt 0.20558 0.80539
vt 0.19352 0.80210
vt 0.19046 0.81105
vt 0.18529 0.80768
vt 0.19359 0.80208
vt 0.18532 0.80773
vt 0.19150 0.79392
vt 0.20224 0.79518
vt 0.20858 0.79512
vt 0.20560 0.80532
vt 0.20399 0.82243
vt 0.20422 0.81440
vt 0.20582 0.80537
vt 0.81282 0.91558
vt 0.81358 0.93175
vt 0.81134 0.94213
vt 0.87418 0.17019
vt 0.86968 0.17226
vt 0.86504 0.16126
vt 0.87440 0.16995
vt 0.86500 0.16142
vt 0.87483 0.16145
vt 0.86515 0.16121
vt 0.86909 0.15626
vt 0.87480 0.16152
vt 0.17679 0.78706
vt 0.17906 0.77686
vt 0.17938 0.78569
vt 0.17679 0.78706
vt 0.17928 0.79277
vt 0.17227 0.79180
vt 0.17679 0.78706
vt 0.17202 0.79171
vt 0.17658 0.77604
vt 0.17679 0.78706
vt 0.17670 0.77603
vt 0.17906 0.77686
vt 0.93386 0.86018
vt 0.93074 0.86687
vt 0.92531 0.86842
vt 0.76922 0.41024
vt 0.78140 0.40793
vt 0.77550 0.41161
vn -0.3712 -0.8032 -0.4659
vn -0.6021 -0.5309 -0.5963
vn -0.5148 -0.1514 -0.8438
vn -0.3712 -0.8032 -0.4659
vn -0.5148 -0.1514 -0.8438
vn -0.4924 -0.3759 -0.7851
vn -0.4924 -0.3759 -0.7851
vn -0.2043 0.3991 -0.8938
vn -0.3352 -0.2843 -0.8982
vn -0.4924 -0.3759 -0.7851
vn -0.5148 -0.1514 -0.8438
vn -0.2043 0.3991 -0.8938
vn -0.4405 0.0424 -0.8967
vn -0.5598 -0.4864 -0.6709
vn -0.2804 0.4372 -0.8545
vn -0.5872 -0.6466 -0.4870
vn -0.4335 -0.9007 0.0276
vn -0.6148 -0.7355 -0.2846
vn -0.5872 -0.6466 -0.4870
vn -0.6098 -0.6306 -0.4801
vn -0.5856 -0.5859 -0.5602
vn -0.6098 -0.6306 -0.4801
vn -0.6670 -0.6511 -0.3623
vn -0.5856 -0.5859 -0.5602
vn -0.2804 0.4372 -0.8545
vn -0.5598 -0.4864 -0.6709
vn -0.1557 0.2621 -0.9524
vn -0.2804 0.4372 -0.8545
vn -0.1855 0.7941 -0.5788
vn -0.4278 0.6071 -0.6696
vn -0.2804 0.4372 -0.8545
vn -0.4278 0.6071 -0.6696
vn -0.3683 0.4689 -0.8028
vn -0.3683 0.4689 -0.8028
vn 0.0470 0.8511 -0.5228
vn -0.2804 0.4372 -0.8545
vn -0.3683 0.4689 -0.8028
vn -0.4278 0.6071 -0.6696
vn 0.0090 0.9181 -0.3964
vn -0.3683 0.4689 -0.8028
vn 0.0090 0.9181 -0.3964
vn 0.0470 0.8511 -0.5228
vn 0.1858 -0.4666 0.8647
vn -0.1775 -0.6424 0.7455
vn -0.0500 -0.6211 0.7822
vn 0.1858 -0.4666 0.8647
vn 0.2222 -0.4463 0.8669
vn -0.1775 -0.6424 0.7455
vn 0.1858 -0.4666 0.8647
vn -0.0500 -0.6211 0.7822
vn 0.0180 -0.5151 0.8569
vn -0.8106 -0.3723 -0.4521
vn -0.5860 -0.1859 -0.7887
vn -0.4321 -0.8553 -0.2858
vn -0.5216 -0.7854 -0.3332
vn -0.4132 -0.7989 -0.4370
vn -0.2198 -0.9748 0.0371
vn -0.5216 -0.7854 -0.3332
vn -0.2198 -0.9748 0.0371
vn -0.7909 -0.5899 0.1628
vn -0.5216 -0.7854 -0.3332
vn -0.7909 -0.5899 0.1628
vn -0.5004 -0.7157 -0.4873
vn -0.5004 -0.7157 -0.4873
vn -0.4132 -0.7989 -0.4370
vn -0.5216 -0.7854 -0.3332
vn -0.5004 -0.7157 -0.4873
vn -0.5028 -0.7197 -0.4788
vn -0.4132 -0.7989 -0.4370
vn -0.5004 -0.7157 -0.4873
vn -0.6102 -0.7442 -0.2716
vn -0.5028 -0.7197 -0.4788
vn -0.8189 -0.4772 -0.3189
vn -0.8106 -0.3723 -0.4521
vn -0.5028 -0.7197 -0.4788
vn -0.8189 -0.4772 -0.3189
vn -0.5028 -0.7197 -0.4788
vn -0.6102 -0.7442 -0.2716
vn -0.8189 -0.4772 -0.3189
vn -0.7414 -0.6457 -0.1830
vn -0.8932 0.1598 -0.4202
vn -0.2598 -0.8220 0.5068
vn 0.1586 -0.6268 0.7628
vn 0.4466 -0.6441 0.6211
vn -0.2598 -0.8220 0.5068
vn 0.4466 -0.6441 0.6211
vn -0.0986 -0.9375 0.3337
vn -0.2598 -0.8220 0.5068
vn -0.0986 -0.9375 0.3337
vn -0.5004 -0.7157 -0.4873
vn -0.2598 -0.8220 0.5068
vn -0.5004 -0.7157 -0.4873
vn -0.7909 -0.5899 0.1628
vn -0.6521 0.5881 -0.4784
vn -0.6123 0.6321 -0.4749
vn -0.7138 0.5655 -0.4131
vn 0.4466 -0.6441 0.6211
vn 0.1586 -0.6268 0.7628
vn 0.1796 -0.5083 0.8422
vn 0.4466 -0.6441 0.6211
vn 0.1796 -0.5083 0.8422
vn 0.8811 -0.0072 0.4729
vn 0.4466 -0.6441 0.6211
vn 0.4557 -0.6976 0.5529
vn -0.0986 -0.9375 0.3337
vn 0.4466 -0.6441 0.6211
vn 0.8811 -0.0072 0.4729
vn 0.4557 -0.6976 0.5529
vn 0.8811 -0.0072 0.4729
vn 0.1796 -0.5083 0.8422
vn 0.4475 0.3937 0.8029
vn 0.8811 -0.0072 0.4729
vn 0.9925 -0.1198 0.0246
vn 0.8019 -0.5066 0.3166
vn 0.8811 -0.0072 0.4729
vn 0.8019 -0.5066 0.3166
vn 0.3661 -0.6009 0.7106
vn 0.8811 -0.0072 0.4729
vn 0.3661 -0.6009 0.7106
vn 0.4557 -0.6976 0.5529
vn 0.6237 0.7811 0.0288
vn -0.0598 0.8794 -0.4723
vn -0.3244 0.8760 -0.3570
vn 0.6237 0.7811 0.0288
vn -0.3244 0.8760 -0.3570
vn 0.2263 0.9707 0.0809
vn 0.6237 0.7811 0.0288
vn 0.0442 0.9538 -0.2972
vn 0.7295 0.6259 -0.2759
vn 0.6237 0.7811 0.0288
vn 0.7295 0.6259 -0.2759
vn 0.9281 0.2999 0.2204
vn 0.6237 0.7811 0.0288
vn 0.2263 0.9707 0.0809
vn -0.4109 0.8371 -0.3611
vn 0.6237 0.7811 0.0288
vn -0.4109 0.8371 -0.3611
vn 0.0442 0.9538 -0.2972
vn 0.7295 0.6259 -0.2759
vn 0.0442 0.9538 -0.2972
vn -0.6694 0.6302 -0.3934
vn 0.7295 0.6259 -0.2759
vn -0.6694 0.6302 -0.3934
vn 0.0846 0.8122 -0.5773
vn 0.7295 0.6259 -0.2759
vn 0.0846 0.8122 -0.5773
vn 0.7371 0.1152 -0.6659
vn 0.7295 0.6259 -0.2759
vn 0.7371 0.1152 -0.6659
vn 0.9446 -0.0632 -0.3221
vn 0.7295 0.6259 -0.2759
vn 0.9446 -0.0632 -0.3221
vn 0.9281 0.2999 0.2204
vn 0.6884 -0.6464 -0.3289
vn 0.5917 -0.7808 0.2004
vn 0.9446 -0.0632 -0.3221
vn 0.6884 -0.6464 -0.3289
vn 0.9446 -0.0632 -0.3221
vn 0.7371 0.1152 -0.6659
vn 0.5917 -0.7808 0.2004
vn 0.8019 -0.5066 0.3166
vn 0.9925 -0.1198 0.0246
vn 0.5917 -0.7808 0.2004
vn 0.3661 -0.6009 0.7106
vn 0.8019 -0.5066 0.3166
vn -0.8590 0.2275 0.4586
vn -0.5601 -0.2553 0.7881
vn -0.9141 0.0831 0.3968
vn -0.8590 0.2275 0.4586
vn -0.9141 0.0831 0.3968
vn -0.8230 0.5649 0.0604
vn -0.8590 0.2275 0.4586
vn -0.8791 -0.2055 0.4300
vn -0.7435 -0.4416 0.5022
vn -0.8590 0.2275 0.4586
vn -0.7435 -0.4416 0.5022
vn -0.5601 -0.2553 0.7881
vn -0.8230 0.5649 0.0604
vn -0.7727 0.5279 -0.3524
vn -0.8590 0.2275 0.4586
vn 0.7654 -0.0990 -0.6359
vn 0.7569 -0.6535 -0.0004
vn 0.5875 -0.0320 -0.8086
vn 0.6871 0.5113 -0.5162
vn 0.7654 -0.0990 -0.6359
vn 0.1351 0.5090 -0.8501
vn -0.4405 0.0424 -0.8967
vn -0.6021 -0.5309 -0.5963
vn -0.5598 -0.4864 -0.6709
vn -0.6148 -0.7355 -0.2846
vn -0.4132 -0.7989 -0.4370
vn -0.5028 -0.7197 -0.4788
vn -0.6148 -0.7355 -0.2846
vn -0.5028 -0.7197 -0.4788
vn -0.5872 -0.6466 -0.4870
vn -0.6148 -0.7355 -0.2846
vn -0.4335 -0.9007 0.0276
vn -0.4132 -0.7989 -0.4370
vn -0.5872 -0.6466 -0.4870
vn -0.5028 -0.7197 -0.4788
vn -0.4230 -0.8862 -0.1890
vn -0.5872 -0.6466 -0.4870
vn -0.4230 -0.8862 -0.1890
vn -0.6098 -0.6306 -0.4801
vn -0.1855 0.7941 -0.5788
vn -0.2804 0.4372 -0.8545
vn -0.0042 0.9057 -0.4239
vn 0.2263 0.9707 0.0809
vn -0.3244 0.8760 -0.3570
vn -0.5133 0.5763 -0.6359
vn 0.2263 0.9707 0.0809
vn -0.5133 0.5763 -0.6359
vn -0.4109 0.8371 -0.3611
vn 0.7371 0.1152 -0.6659
vn 0.0846 0.8122 -0.5773
vn 0.1351 0.5090 -0.8501
vn 0.7371 0.1152 -0.6659
vn 0.1351 0.5090 -0.8501
vn 0.5875 -0.0320 -0.8086
vn 0.3505 0.7422 0.5712
vn 0.3365 0.8924 0.3006
vn 0.4670 0.8295 0.3063
vn 0.3505 0.7422 0.5712
vn 0.4670 0.8295 0.3063
vn 0.6290 0.7746 0.0660
vn 0.3505 0.7422 0.5712
vn 0.6290 0.7746 0.0660
vn 0.4832 0.6157 0.6225
vn 0.4832 0.6157 0.6225
vn 0.4013 0.2576 0.8790
vn 0.4193 0.2507 0.8725
vn 0.4193 0.2507 0.8725
vn 0.4013 0.2576 0.8790
vn 0.2361 -0.1968 0.9516
vn 0.4193 0.2507 0.8725
vn 0.2361 -0.1968 0.9516
vn 0.0463 -0.2733 0.9608
vn 0.0463 -0.2733 0.9608
vn 0.2361 -0.1968 0.9516
vn -0.0500 -0.6211 0.7822
vn 0.2361 -0.1968 0.9516
vn 0.4013 0.2576 0.8790
vn 0.3695 0.3966 0.8403
vn 0.2361 -0.1968 0.9516
vn 0.3695 0.3966 0.8403
vn 0.4475 0.3937 0.8029
vn 0.2361 -0.1968 0.9516
vn 0.4475 0.3937 0.8029
vn 0.0180 -0.5151 0.8569
vn 0.2361 -0.1968 0.9516
vn 0.0180 -0.5151 0.8569
vn -0.0500 -0.6211 0.7822
vn 0.4475 0.3937 0.8029
vn 0.1796 -0.5083 0.8422
vn 0.0180 -0.5151 0.8569
vn 0.3695 0.3966 0.8403
vn 0.3566 0.5093 0.7832
vn 0.4893 0.4422 0.7516
vn 0.3695 0.3966 0.8403
vn 0.4893 0.4422 0.7516
vn 0.6367 0.4526 0.6243
vn 0.3695 0.3966 0.8403
vn 0.6367 0.4526 0.6243
vn 0.8811 -0.0072 0.4729
vn 0.3695 0.3966 0.8403
vn 0.8811 -0.0072 0.4729
vn 0.4475 0.3937 0.8029
vn 0.6367 0.4526 0.6243
vn 0.4893 0.4422 0.7516
vn 0.9281 0.2999 0.2204
vn 0.6367 0.4526 0.6243
vn 0.9281 0.2999 0.2204
vn 0.9745 0.2214 0.0365
vn 0.6367 0.4526 0.6243
vn 0.9745 0.2214 0.0365
vn 0.9925 -0.1198 0.0246
vn 0.6367 0.4526 0.6243
vn 0.9925 -0.1198 0.0246
vn 0.8811 -0.0072 0.4729
vn 0.9745 0.2214 0.0365
vn 0.9281 0.2999 0.2204
vn 0.9446 -0.0632 -0.3221
vn 0.9745 0.2214 0.0365
vn 0.9446 -0.0632 -0.3221
vn 0.5917 -0.7808 0.2004
vn 0.9745 0.2214 0.0365
vn 0.5917 -0.7808 0.2004
vn 0.9925 -0.1198 0.0246
vn 0.4893 0.4422 0.7516
vn 0.4075 0.7155 0.5675
vn 0.6237 0.7811 0.0288
vn 0.4893 0.4422 0.7516
vn 0.6237 0.7811 0.0288
vn 0.9281 0.2999 0.2204
vn 0.4075 0.7155 0.5675
vn 0.4183 0.8631 0.2831
vn 0.6237 0.7811 0.0288
vn 0.4075 0.7155 0.5675
vn 0.4893 0.4422 0.7516
vn 0.3566 0.5093 0.7832
vn 0.4075 0.7155 0.5675
vn 0.3566 0.5093 0.7832
vn 0.4183 0.8631 0.2831
vn 0.4183 0.8631 0.2831
vn 0.3048 0.9492 -0.0784
vn 0.6237 0.7811 0.0288
vn 0.3048 0.9492 -0.0784
vn 0.0090 0.9181 -0.3964
vn -0.0598 0.8794 -0.4723
vn 0.3048 0.9492 -0.0784
vn -0.0598 0.8794 -0.4723
vn 0.6237 0.7811 0.0288
vn -0.0598 0.8794 -0.4723
vn 0.0090 0.9181 -0.3964
vn -0.4278 0.6071 -0.6696
vn -0.0598 0.8794 -0.4723
vn -0.4278 0.6071 -0.6696
vn -0.4361 0.5323 -0.7256
vn -0.4361 0.5323 -0.7256
vn -0.4278 0.6071 -0.6696
vn -0.1855 0.7941 -0.5788
vn -0.4361 0.5323 -0.7256
vn -0.6312 0.4992 -0.5936
vn -0.5133 0.5763 -0.6359
vn -0.4361 0.5323 -0.7256
vn -0.5133 0.5763 -0.6359
vn -0.3244 0.8760 -0.3570
vn -0.4361 0.5323 -0.7256
vn -0.3244 0.8760 -0.3570
vn -0.0598 0.8794 -0.4723
vn -0.4361 0.5323 -0.7256
vn -0.1855 0.7941 -0.5788
vn -0.6521 0.5881 -0.4784
vn -0.4361 0.5323 -0.7256
vn -0.6521 0.5881 -0.4784
vn -0.6312 0.4992 -0.5936
vn -0.6521 0.5881 -0.4784
vn -0.1855 0.7941 -0.5788
vn -0.0042 0.9057 -0.4239
vn -0.6521 0.5881 -0.4784
vn -0.0042 0.9057 -0.4239
vn -0.6307 0.6398 -0.4392
vn -0.0042 0.9057 -0.4239
vn -0.3320 0.4325 -0.8383
vn -0.6307 0.6398 -0.4392
vn -0.3320 0.4325 -0.8383
vn -0.4067 -0.4910 -0.7704
vn -0.5860 -0.1859 -0.7887
vn -0.3320 0.4325 -0.8383
vn -0.5860 -0.1859 -0.7887
vn -0.8106 -0.3723 -0.4521
vn -0.3320 0.4325 -0.8383
vn -0.8106 -0.3723 -0.4521
vn -0.6307 0.6398 -0.4392
vn -0.4067 -0.4910 -0.7704
vn -0.6098 -0.6306 -0.4801
vn -0.4321 -0.8553 -0.2858
vn -0.4067 -0.4910 -0.7704
vn -0.4321 -0.8553 -0.2858
vn -0.5860 -0.1859 -0.7887
vn -0.4067 -0.4910 -0.7704
vn -0.3320 0.4325 -0.8383
vn -0.1557 0.2621 -0.9524
vn -0.4321 -0.8553 -0.2858
vn -0.6098 -0.6306 -0.4801
vn -0.4230 -0.8862 -0.1890
vn -0.4321 -0.8553 -0.2858
vn -0.4230 -0.8862 -0.1890
vn -0.8106 -0.3723 -0.4521
vn -0.4067 -0.4910 -0.7704
vn -0.5598 -0.4864 -0.6709
vn -0.6098 -0.6306 -0.4801
vn -0.4067 -0.4910 -0.7704
vn -0.1557 0.2621 -0.9524
vn -0.5598 -0.4864 -0.6709
vn -0.3320 0.4325 -0.8383
vn -0.0042 0.9057 -0.4239
vn -0.2804 0.4372 -0.8545
vn -0.3320 0.4325 -0.8383
vn -0.2804 0.4372 -0.8545
vn -0.1557 0.2621 -0.9524
vn 0.0090 0.9181 -0.3964
vn 0.2586 0.9594 -0.1129
vn 0.0470 0.8511 -0.5228
vn 0.0090 0.9181 -0.3964
vn 0.3048 0.9492 -0.0784
vn 0.3045 0.9525 -0.0001
vn 0.0090 0.9181 -0.3964
vn 0.3045 0.9525 -0.0001
vn 0.2586 0.9594 -0.1129
vn 0.3045 0.9525 -0.0001
vn 0.3048 0.9492 -0.0784
vn 0.4183 0.8631 0.2831
vn 0.3045 0.9525 -0.0001
vn 0.4183 0.8631 0.2831
vn 0.4670 0.8295 0.3063
vn 0.3045 0.9525 -0.0001
vn 0.4670 0.8295 0.3063
vn 0.3365 0.8924 0.3006
vn 0.2586 0.9594 -0.1129
vn -0.0729 0.8114 -0.5799
vn 0.0470 0.8511 -0.5228
vn -0.0729 0.8114 -0.5799
vn -0.2804 0.4372 -0.8545
vn 0.0470 0.8511 -0.5228
vn 0.1516 0.9784 -0.1405
vn 0.2586 0.9594 -0.1129
vn 0.3045 0.9525 -0.0001
vn -0.0729 0.8114 -0.5799
vn -0.2901 0.6028 -0.7432
vn -0.4405 0.0424 -0.8967
vn -0.0729 0.8114 -0.5799
vn -0.4405 0.0424 -0.8967
vn -0.2804 0.4372 -0.8545
vn -0.2901 0.6028 -0.7432
vn -0.2043 0.3991 -0.8938
vn -0.5148 -0.1514 -0.8438
vn -0.2901 0.6028 -0.7432
vn -0.5148 -0.1514 -0.8438
vn -0.4405 0.0424 -0.8967
vn 0.4183 0.8631 0.2831
vn 0.6290 0.7746 0.0660
vn 0.4670 0.8295 0.3063
vn 0.4183 0.8631 0.2831
vn 0.3566 0.5093 0.7832
vn 0.4832 0.6157 0.6225
vn 0.4183 0.8631 0.2831
vn 0.4832 0.6157 0.6225
vn 0.6290 0.7746 0.0660
vn 0.3566 0.5093 0.7832
vn 0.3695 0.3966 0.8403
vn 0.4013 0.2576 0.8790
vn 0.3566 0.5093 0.7832
vn 0.4013 0.2576 0.8790
vn 0.4832 0.6157 0.6225
vn 0.1351 0.5090 -0.8501
vn 0.0846 0.8122 -0.5773
vn -0.5250 0.7146 -0.4623
vn 0.1351 0.5090 -0.8501
vn -0.5250 0.7146 -0.4623
vn -0.3185 0.6650 -0.6756
vn -0.5250 0.7146 -0.4623
vn -0.8230 0.5649 0.0604
vn -0.8400 0.5422 0.0175
vn -0.5250 0.7146 -0.4623
vn -0.8400 0.5422 0.0175
vn -0.3185 0.6650 -0.6756
vn -0.5250 0.7146 -0.4623
vn 0.0846 0.8122 -0.5773
vn -0.6095 0.6586 -0.4414
vn -0.5250 0.7146 -0.4623
vn -0.6095 0.6586 -0.4414
vn -0.7727 0.5279 -0.3524
vn -0.5250 0.7146 -0.4623
vn -0.7727 0.5279 -0.3524
vn -0.8230 0.5649 0.0604
vn -0.6095 0.6586 -0.4414
vn 0.0846 0.8122 -0.5773
vn -0.6694 0.6302 -0.3934
vn -0.7727 0.5279 -0.3524
vn -0.9837 0.1500 -0.0988
vn -0.8590 0.2275 0.4586
vn -0.7727 0.5279 -0.3524
vn -0.6095 0.6586 -0.4414
vn -0.7138 0.5655 -0.4131
vn -0.7727 0.5279 -0.3524
vn -0.7138 0.5655 -0.4131
vn -0.6123 0.6321 -0.4749
vn -0.7727 0.5279 -0.3524
vn -0.6123 0.6321 -0.4749
vn -0.9357 0.0510 -0.3490
vn -0.7727 0.5279 -0.3524
vn -0.9357 0.0510 -0.3490
vn -0.9837 0.1500 -0.0988
vn -0.9357 0.0510 -0.3490
vn -0.7414 -0.6457 -0.1830
vn -0.8687 -0.4823 0.1130
vn -0.9357 0.0510 -0.3490
vn -0.8687 -0.4823 0.1130
vn -0.9837 0.1500 -0.0988
vn -0.9357 0.0510 -0.3490
vn -0.6123 0.6321 -0.4749
vn -0.6521 0.5881 -0.4784
vn -0.9357 0.0510 -0.3490
vn -0.6521 0.5881 -0.4784
vn -0.8932 0.1598 -0.4202
vn -0.9357 0.0510 -0.3490
vn -0.8932 0.1598 -0.4202
vn -0.7414 -0.6457 -0.1830
vn -0.8687 -0.4823 0.1130
vn -0.7435 -0.4416 0.5022
vn -0.8791 -0.2055 0.4300
vn -0.8687 -0.4823 0.1130
vn -0.8791 -0.2055 0.4300
vn -0.8590 0.2275 0.4586
vn -0.8687 -0.4823 0.1130
vn -0.8590 0.2275 0.4586
vn -0.9837 0.1500 -0.0988
vn -0.8687 -0.4823 0.1130
vn -0.7414 -0.6457 -0.1830
vn -0.6614 -0.7456 0.0808
vn -0.6614 -0.7456 0.0808
vn -0.6859 -0.7063 0.1751
vn -0.8687 -0.4823 0.1130
vn -0.6614 -0.7456 0.0808
vn -0.7414 -0.6457 -0.1830
vn -0.8189 -0.4772 -0.3189
vn -0.6614 -0.7456 0.0808
vn -0.8189 -0.4772 -0.3189
vn -0.6102 -0.7442 -0.2716
vn -0.6614 -0.7456 0.0808
vn -0.6102 -0.7442 -0.2716
vn -0.6859 -0.7063 0.1751
vn -0.6859 -0.7063 0.1751
vn -0.5068 -0.8332 0.2214
vn -0.5040 -0.6221 0.5991
vn -0.6859 -0.7063 0.1751
vn -0.5040 -0.6221 0.5991
vn -0.7435 -0.4416 0.5022
vn -0.6859 -0.7063 0.1751
vn -0.7435 -0.4416 0.5022
vn -0.8687 -0.4823 0.1130
vn -0.6859 -0.7063 0.1751
vn -0.3883 -0.9052 0.1727
vn -0.5068 -0.8332 0.2214
vn -0.3883 -0.9052 0.1727
vn -0.0986 -0.9375 0.3337
vn -0.5068 -0.8332 0.2214
vn -0.3883 -0.9052 0.1727
vn -0.6859 -0.7063 0.1751
vn -0.6102 -0.7442 -0.2716
vn -0.3883 -0.9052 0.1727
vn -0.6102 -0.7442 -0.2716
vn -0.5004 -0.7157 -0.4873
vn -0.3883 -0.9052 0.1727
vn -0.5004 -0.7157 -0.4873
vn -0.0986 -0.9375 0.3337
vn -0.7435 -0.4416 0.5022
vn -0.5040 -0.6221 0.5991
vn -0.4770 -0.4301 0.7665
vn -0.7435 -0.4416 0.5022
vn -0.4770 -0.4301 0.7665
vn -0.8880 -0.1681 0.4281
vn -0.7435 -0.4416 0.5022
vn -0.8880 -0.1681 0.4281
vn -0.5601 -0.2553 0.7881
vn -0.8880 -0.1681 0.4281
vn -0.9141 0.0831 0.3968
vn -0.5601 -0.2553 0.7881
vn -0.4770 -0.4301 0.7665
vn 0.4557 -0.6976 0.5529
vn 0.3661 -0.6009 0.7106
vn -0.4770 -0.4301 0.7665
vn -0.5040 -0.6221 0.5991
vn 0.4557 -0.6976 0.5529
vn -0.5040 -0.6221 0.5991
vn -0.5068 -0.8332 0.2214
vn -0.0986 -0.9375 0.3337
vn -0.5040 -0.6221 0.5991
vn -0.0986 -0.9375 0.3337
vn 0.4557 -0.6976 0.5529
vn -0.6095 0.6586 -0.4414
vn -0.6694 0.6302 -0.3934
vn -0.7876 0.4699 -0.3986
vn -0.6095 0.6586 -0.4414
vn -0.7876 0.4699 -0.3986
vn -0.7138 0.5655 -0.4131
vn -0.7876 0.4699 -0.3986
vn -0.6694 0.6302 -0.3934
vn 0.0442 0.9538 -0.2972
vn -0.7876 0.4699 -0.3986
vn 0.0442 0.9538 -0.2972
vn -0.4109 0.8371 -0.3611
vn -0.7876 0.4699 -0.3986
vn -0.4109 0.8371 -0.3611
vn -0.5133 0.5763 -0.6359
vn -0.7876 0.4699 -0.3986
vn -0.5133 0.5763 -0.6359
vn -0.6312 0.4992 -0.5936
vn -0.7876 0.4699 -0.3986
vn -0.6312 0.4992 -0.5936
vn -0.6521 0.5881 -0.4784
vn -0.7876 0.4699 -0.3986
vn -0.6521 0.5881 -0.4784
vn -0.7138 0.5655 -0.4131
vn -0.3185 0.6650 -0.6756
vn 0.6871 0.5113 -0.5162
vn 0.1351 0.5090 -0.8501
vn -0.4230 -0.8862 -0.1890
vn -0.5028 -0.7197 -0.4788
vn -0.8106 -0.3723 -0.4521
vn 0.9801 -0.1985 -0.0018
vn 0.6884 -0.6464 -0.3289
vn 0.5875 -0.0320 -0.8086
vn 0.5875 -0.0320 -0.8086
vn 0.6884 -0.6464 -0.3289
vn 0.7371 0.1152 -0.6659
vn 0.1796 -0.5083 0.8422
vn 0.1586 -0.6268 0.7628
vn 0.1858 -0.4666 0.8647
vn 0.1796 -0.5083 0.8422
vn 0.1858 -0.4666 0.8647
vn 0.0180 -0.5151 0.8569
vn 0.1586 -0.6268 0.7628
vn -0.2598 -0.8220 0.5068
vn 0.2222 -0.4463 0.8669
vn 0.1586 -0.6268 0.7628
vn 0.2222 -0.4463 0.8669
vn 0.1858 -0.4666 0.8647
vn -0.0779 -0.8090 0.5827
vn -0.2598 -0.8220 0.5068
vn -0.7909 -0.5899 0.1628
vn -0.0779 -0.8090 0.5827
vn -0.7909 -0.5899 0.1628
vn -0.2198 -0.9748 0.0371
vn -0.0779 -0.8090 0.5827
vn -0.2198 -0.9748 0.0371
vn -0.3928 -0.9096 0.1357
vn -0.0779 -0.8090 0.5827
vn -0.3928 -0.9096 0.1357
vn -0.1368 -0.8684 0.4766
vn -0.3928 -0.9096 0.1357
vn -0.2571 -0.8977 0.3578
vn -0.1368 -0.8684 0.4766
vn -0.3928 -0.9096 0.1357
vn -0.2198 -0.9748 0.0371
vn -0.4132 -0.7989 -0.4370
vn -0.3928 -0.9096 0.1357
vn -0.4132 -0.7989 -0.4370
vn -0.4335 -0.9007 0.0276
vn -0.2571 -0.8977 0.3578
vn 0.2222 -0.4463 0.8669
vn -0.1368 -0.8684 0.4766
vn -0.2598 -0.8220 0.5068
vn -0.0779 -0.8090 0.5827
vn -0.1368 -0.8684 0.4766
vn -0.2598 -0.8220 0.5068
vn -0.1368 -0.8684 0.4766
vn 0.2222 -0.4463 0.8669
vn -0.8932 0.1598 -0.4202
vn -0.6521 0.5881 -0.4784
vn -0.6307 0.6398 -0.4392
vn -0.8932 0.1598 -0.4202
vn -0.6307 0.6398 -0.4392
vn -0.8189 -0.4772 -0.3189
vn -0.6307 0.6398 -0.4392
vn -0.8106 -0.3723 -0.4521
vn -0.8189 -0.4772 -0.3189
vn -0.6670 -0.6511 -0.3623
vn -0.5372 -0.6144 -0.5778
vn -0.5856 -0.5859 -0.5602
vn -0.6670 -0.6511 -0.3623
vn -0.6098 -0.6306 -0.4801
vn -0.5598 -0.4864 -0.6709
vn -0.6670 -0.6511 -0.3623
vn -0.5598 -0.4864 -0.6709
vn -0.6021 -0.5309 -0.5963
vn -0.6670 -0.6511 -0.3623
vn -0.6021 -0.5309 -0.5963
vn -0.5372 -0.6144 -0.5778
vn -0.4405 0.0424 -0.8967
vn -0.5148 -0.1514 -0.8438
vn -0.6021 -0.5309 -0.5963
vn 0.1351 0.5090 -0.8501
vn 0.7654 -0.0990 -0.6359
vn 0.5875 -0.0320 -0.8086
f 1/1/1 2/2/2 3/3/3
f 4/4/4 5/5/5 6/6/6
f 7/7/7 8/8/8 9/9/9
f 10/10/10 11/11/11 12/12/12
f 13/13/13 14/14/14 15/15/15
f 16/16/16 17/17/17 18/18/18
f 19/19/19 20/20/20 21/21/21
f 22/22/22 23/23/23 24/24/24
f 25/25/25 26/26/26 27/27/27
f 28/28/28 29/29/29 30/30/30
f 31/31/31 32/32/32 33/33/33
f 34/34/34 35/35/35 36/36/36
f 37/37/37 38/38/38 39/39/39
f 40/40/40 41/41/41 42/42/42
f 43/43/43 44/44/44 45/45/45
f 46/46/46 47/47/47 48/48/48
f 49/49/49 50/50/50 51/51/51
f 52/52/52 53/53/53 54/54/54
f 55/55/55 56/56/56 57/57/57
f 58/58/58 59/59/59 60/60/60
f 61/61/61 62/62/62 63/63/63
f 64/64/64 65/65/65 66/66/66
f 67/67/67 68/68/68 69/69/69
f 70/70/70 71/71/71 72/72/72
f 73/73/73 74/74/74 75/75/75
f 76/76/76 77/77/77 78/78/78
f 79/79/79 80/80/80 81/81/81
f 82/82/82 83/83/83 84/84/84
f 85/85/85 86/86/86 87/87/87
f 88/88/88 89/89/89 90/90/90
f 91/91/91 92/92/92 93/93/93
f 94/94/94 95/95/95 96/96/96
f 97/97/97 98/98/98 99/99/99
f 100/100/100 101/101/101 102/102/102
f 103/103/103 104/104/104 105/105/105
f 106/106/106 107/107/107 108/108/108
f 109/109/109 110/110/110 111/111/111
f 112/112/112 113/113/113 114/114/114
f 115/115/115 116/116/116 117/117/117
f 118/118/118 119/119/119 120/120/120
f 121/121/121 122/122/122 123/123/123
f 124/124/124 125/125/125 126/126/126
f 127/127/127 128/128/128 129/129/129
f 130/130/130 131/131/131 132/132/132
f 133/133/133 134/134/134 135/135/135
f 136/136/136 137/137/137 138/138/138
f 139/139/139 140/140/140 141/141/141
f 142/142/142 143/143/143 144/144/144
f 145/145/145 146/146/146 147/147/147
f 148/148/148 149/149/149 150/150/150
f 151/151/151 152/152/152 153/153/153
f 154/154/154 155/155/155 156/156/156
f 157/157/157 158/158/158 159/159/159
f 160/160/160 161/161/161 162/162/162
f 163/163/163 164/164/164 165/165/165
f 166/166/166 167/167/167 168/168/168
f 169/169/169 170/170/170 171/171/171
f 172/172/172 173/173/173 174/174/174
f 175/175/175 176/176/176 177/177/177
f 178/178/178 179/179/179 180/180/180
f 181/181/181 182/182/182 183/183/183
f 184/184/184 185/185/185 186/186/186
f 187/187/187 188/188/188 189/189/189
f 190/190/190 191/191/191 192/192/192
f 193/193/193 194/194/194 195/195/195
f 196/196/196 197/197/197 198/198/198
f 199/199/199 200/200/200 201/201/201
f 202/202/202 203/203/203 204/204/204
f 205/205/205 206/206/206 207/207/207
f 208/208/208 209/209/209 210/210/210
f 211/211/211 212/212/212 213/213/213
f 214/214/214 215/215/215 216/216/216
f 217/217/217 218/218/218 219/219/219
f 220/220/220 221/221/221 222/222/222
f 223/223/223 224/224/224 225/225/225
f 226/226/226 227/227/227 228/228/228
f 229/229/229 230/230/230 231/231/231
f 232/232/232 233/233/233 234/234/234
f 235/235/235 236/236/236 237/237/237
f 238/238/238 239/239/239 240/240/240
f 241/241/241 242/242/242 243/243/243
f 244/244/244 245/245/245 246/246/246
f 247/247/247 248/248/248 249/249/249
f 250/250/250 251/251/251 252/252/252
f 253/253/253 254/254/254 255/255/255
f 256/256/256 257/257/257 258/258/258
f 259/259/259 260/260/260 261/261/261
f 262/262/262 263/263/263 264/264/264
f 265/265/265 266/266/266 267/267/267
f 268/268/268 269/269/269 270/270/270
f 271/271/271 272/272/272 273/273/273
f 274/274/274 275/275/275 276/276/276
f 277/277/277 278/278/278 279/279/279
f 280/280/280 281/281/281 282/282/282
f 283/283/283 284/284/284 285/285/285
f 286/286/286 287/287/287 288/288/288
f 289/289/289 290/290/290 291/291/291
f 292/292/292 293/293/293 294/294/294
f 295/295/295 296/296/296 297/297/297
f 298/298/298 299/299/299 300/300/300
f 301/301/301 302/302/302 303/303/303
f 304/304/304 305/305/305 306/306/306
f 307/307/307 308/308/308 309/309/309
f 310/310/310 311/311/311 312/312/312
f 313/313/313 314/314/314 315/315/315
f 316/316/316 317/317/317 318/318/318
f 319/319/319 320/320/320 321/321/321
f 322/322/322 323/323/323 324/324/324
f 325/325/325 326/326/326 327/327/327
f 328/328/328 329/329/329 330/330/330
f 331/331/331 332/332/332 333/333/333
f 334/334/334 335/335/335 336/336/336
f 337/337/337 338/338/338 339/339/339
f 340/340/340 341/341/341 342/342/342
f 343/343/343 344/344/344 345/345/345
f 346/346/346 347/347/347 348/348/348
f 349/349/349 350/350/350 351/351/351
f 352/352/352 353/353/353 354/354/354
f 355/355/355 356/356/356 357/357/357
f 358/358/358 359/359/359 360/360/360
f 361/361/361 362/362/362 363/363/363
f 364/364/364 365/365/365 366/366/366
f 367/367/367 368/368/368 369/369/369
f 370/370/370 371/371/371 372/372/372
f 373/373/373 374/374/374 375/375/375
f 376/376/376 377/377/377 378/378/378
f 379/379/379 380/380/380 381/381/381
f 382/382/382 383/383/383 384/384/384
f 385/385/385 386/386/386 387/387/387
f 388/388/388 389/389/389 390/390/390
f 391/391/391 392/392/392 393/393/393
f 394/394/394 395/395/395 396/396/396
f 397/397/397 398/398/398 399/399/399
f 400/400/400 401/401/401 402/402/402
f 403/403/403 404/404/404 405/405/405
f 406/406/406 407/407/407 408/408/408
f 409/409/409 410/410/410 411/411/411
f 412/412/412 413/413/413 414/414/414
f 415/415/415 416/416/416 417/417/417
f 418/418/418 419/419/419 420/420/420
f 421/421/421 422/422/422 423/423/423
f 424/424/424 425/425/425 426/426/426
f 427/427/427 428/428/428 429/429/429
f 430/430/430 431/431/431 432/432/432
f 433/433/433 434/434/434 435/435/435
f 436/436/436 437/437/437 438/438/438
f 439/439/439 440/440/440 441/441/441
f 442/442/442 443/443/443 444/444/444
f 445/445/445 446/446/446 447/447/447
f 448/448/448 449/449/449 450/450/450
f 451/451/451 452/452/452 453/453/453
f 454/454/454 455/455/455 456/456/456
f 457/457/457 458/458/458 459/459/459
f 460/460/460 461/461/461 462/462/462
f 463/463/463 464/464/464 465/465/465
f 466/466/466 467/467/467 468/468/468
f 469/469/469 470/470/470 471/471/471
f 472/472/472 473/473/473 474/474/474
f 475/475/475 476/476/476 477/477/477
f 478/478/478 479/479/479 480/480/480
f 481/481/481 482/482/482 483/483/483
f 484/484/484 485/485/485 486/486/486
f 487/487/487 488/488/488 489/489/489
f 490/490/490 491/491/491 492/492/492
f 493/493/493 494/494/494 495/495/495
f 496/496/496 497/497/497 498/498/498
f 499/499/499 500/500/500 501/501/501
f 502/502/502 503/503/503 504/504/504
f 505/505/505 506/506/506 507/507/507
f 508/508/508 509/509/509 510/510/510
f 511/511/511 512/512/512 513/513/513
f 514/514/514 515/515/515 516/516/516
f 517/517/517 518/518/518 519/519/519
f 520/520/520 521/521/521 522/522/522
f 523/523/523 524/524/524 525/525/525
f 526/526/526 527/527/527 528/528/528
f 529/529/529 530/530/530 531/531/531
f 532/532/532 533/533/533 534/534/534
f 535/535/535 536/536/536 537/537/537
f 538/538/538 539/539/539 540/540/540
f 541/541/541 542/542/542 543/543/543
f 544/544/544 545/545/545 546/546/546
f 547/547/547 548/548/548 549/549/549
f 550/550/550 551/551/551 552/552/552
f 553/553/553 554/554/554 555/555/555
f 556/556/556 557/557/557 558/558/558
f 559/559/559 560/560/560 561/561/561
f 562/562/562 563/563/563 564/564/564
f 565/565/565 566/566/566 567/567/567
f 568/568/568 569/569/569 570/570/570
f 571/571/571 572/572/572 573/573/573
f 574/574/574 575/575/575 576/576/576
f 577/577/577 578/578/578 579/579/579
f 580/580/580 581/581/581 582/582/582
f 583/583/583 584/584/584 585/585/585
f 586/586/586 587/587/587 588/588/588
f 589/589/589 590/590/590 591/591/591
f 592/592/592 593/593/593 594/594/594
f 595/595/595 596/596/596 597/597/597
f 598/598/598 599/599/599 600/600/600
f 601/601/601 602/602/602 603/603/603
f 604/604/604 605/605/605 606/606/606
f 607/607/607 608/608/608 609/609/609
f 610/610/610 611/611/611 612/612/612
f 613/613/613 614/614/614 615/615/615
f 616/616/616 617/617/617 618/618/618
f 619/619/619 620/620/620 621/621/621
f 622/622/622 623/623/623 624/624/624
f 625/625/625 626/626/626 627/627/627
f 628/628/628 629/629/629 630/630/630
f 631/631/631 632/632/632 633/633/633
f 634/634/634 635/635/635 636/636/636
f 637/637/637 638/638/638 639/639/639
f 640/640/640 641/641/641 642/642/642
f 643/643/643 644/644/644 645/645/645
f 646/646/646 647/647/647 648/648/648
f 649/649/649 650/650/650 651/651/651
f 652/652/652 653/653/653 654/654/654
f 655/655/655 656/656/656 657/657/657
f 658/658/658 659/659/659 660/660/660
f 661/661/661 662/662/662 663/663/663
f 664/664/664 665/665/665 666/666/666
