o tail_2
v 1.13338 2.08540 3.42925
v 1.14772 2.52402 3.49879
v 1.21034 2.06027 4.00581
v 1.13338 2.08540 3.42925
v -0.00890 2.09169 3.45110
v 1.21034 2.06027 4.00581
v -0.06174 2.07866 4.07747
v 1.16446 3.19595 3.83682
v 1.21034 2.06027 4.00581
v 1.16446 3.19595 3.83682
v 0.86474 3.31021 3.54993
v 1.26144 2.14787 4.94232
v 0.60067 3.33166 4.19392
v 0.96031 3.33090 4.97129
v 1.24880 3.19910 4.72367
v 1.27002 2.73389 4.95970
v 1.24880 3.19910 4.72367
v 1.27091 3.20025 4.95984
v 1.27091 3.20025 4.95984
v 1.10444 2.85388 4.96759
v 1.27002 2.73389 4.95970
v 1.27091 3.20025 4.95984
v 1.26144 2.14787 4.94232
v 0.99621 2.26779 4.98034
v 1.11573 3.11499 4.97323
v 1.12741 2.96647 4.96839
v 0.65140 3.34604 4.36395
v 0.60067 3.33166 4.19392
v 0.65386 3.41243 4.45777
v 0.65140 3.34604 4.36395
v 0.42386 3.77203 4.21585
v 0.65386 3.41243 4.45777
v 0.64981 3.34561 4.41704
v 0.65140 3.34604 4.36395
v 1.02149 2.54297 4.97721
v 0.96937 2.18794 4.99670
v 0.65226 3.39522 4.46288
v 0.42386 3.77203 4.21585
v 0.60067 3.33166 4.19392
v 0.37440 3.32843 4.08671
v 0.29219 3.32678 4.14391
v 1.21034 2.06027 4.00581
v 1.26144 2.14787 4.94232
v 0.58335 2.16281 5.02667
v 1.02149 2.54297 4.97721
v 0.97964 2.37364 5.00196
v 0.99621 2.26779 4.98034
v 0.50541 3.70362 4.37805
v 0.73316 3.35350 4.96767
v 0.70940 3.35381 4.84699
v 0.93772 2.22569 5.04407
v 1.02149 2.54297 4.97721
v 0.64981 3.34561 4.41704
v 0.65226 3.39522 4.46288
v 0.53056 3.34192 4.46664
v 0.96937 2.18794 4.99670
v 0.65386 3.41243 4.45777
v 0.50541 3.70362 4.37805
v 0.65226 3.39522 4.46288
v -0.04665 2.75014 3.79969
v 0.53056 3.34192 4.46664
v 0.47275 3.34548 4.84515
v 0.78144 3.52061 4.77174
v 0.78992 3.47491 4.94655
v 0.70940 3.35381 4.84699
v 0.64981 3.34561 4.41704
v 0.29219 3.32678 4.14391
v 0.15951 3.72220 4.21008
v 0.37440 3.32843 4.08671
v 0.38531 3.33518 4.53727
v -0.00890 2.09169 3.45110
v -0.06174 2.07866 4.07747
v 0.78144 3.52061 4.77174
v 0.57618 3.63380 4.58540
v 0.69658 3.92994 4.83352
v 0.49339 3.60287 4.64465
v 0.57618 3.63380 4.58540
v 0.59298 3.53553 4.74740
v 0.56790 3.65505 4.58417
v 0.56875 3.84983 4.67903
v 0.42386 3.77203 4.21585
v 0.29472 3.74800 4.38257
v 0.50541 3.70362 4.37805
v 0.38531 3.33518 4.53727
v 0.78144 3.52061 4.77174
v 0.70940 3.35381 4.84699
v 0.47275 3.34548 4.84515
v -0.06174 2.07866 4.07747
v 1.26144 2.14787 4.94232
v 0.96937 2.18794 4.99670
v 0.66866 2.18788 5.02950
v -0.05635 2.11008 4.42212
v 0.73316 3.35350 4.96767
v 0.58335 2.16281 5.02667
v 0.58208 4.00199 4.75826
v -0.01075 3.21388 3.96109
v 0.29472 3.74800 4.38257
v 0.15951 3.72220 4.21008
v 0.29219 3.32678 4.14391
v 0.24992 3.30996 4.32412
v 0.22306 3.31389 4.49568
v -0.01075 3.21388 3.96109
v 0.38531 3.33518 4.53727
v 0.39244 3.53362 4.75284
v 0.22306 3.31389 4.49568
v 0.77085 2.21567 5.15984
v 0.58208 4.00199 4.75826
v 0.56875 3.84983 4.67903
v 0.46171 3.95187 4.81334
v 0.75516 2.42157 5.03842
v 0.66866 2.18788 5.02950
v 0.76393 2.31458 5.09500
v 0.39244 3.53362 4.75284
v 0.56790 3.65505 4.58417
v 0.77085 2.21567 5.15984
v 0.66866 2.18788 5.02950
v 0.96937 2.18794 4.99670
v 0.29219 3.32678 4.14391
v 0.15822 3.65657 4.36700
v 0.15951 3.72220 4.21008
v -0.01161 3.21330 4.34977
v 0.24992 3.30996 4.32412
v 0.15822 3.65657 4.36700
v 0.75516 2.42157 5.03842
v 0.57101 2.68372 5.03716
v 0.15822 3.65657 4.36700
v 0.22306 3.31389 4.49568
v 0.39244 3.53362 4.75284
v -0.05635 2.11008 4.42212
v -0.01161 3.21330 4.34977
v 0.39244 3.53362 4.75284
v 0.56790 3.65505 4.58417
v 0.49339 3.60287 4.64465
v -0.01521 3.21299 4.48271
v 0.22306 3.31389 4.49568
v -0.03674 2.44552 5.01238
v 0.39244 3.53362 4.75284
v 0.47275 3.34548 4.84515
v 0.44048 3.35116 4.95592
v 0.39244 3.53362 4.75284
v 0.44686 3.81574 5.03270
v 0.46171 3.95187 4.81334
v 0.27687 3.32387 5.00139
v 0.46171 3.95187 4.81334
v 0.69658 3.92994 4.83352
v 0.58208 4.00199 4.75826
v 0.38718 3.46715 4.93885
v 0.45945 2.44032 5.07129
v 0.08974 2.17442 5.02374
v 0.43791 2.18197 5.06749
v 0.44048 3.35116 4.95592
v -0.01959 3.12378 4.54458
v -0.01521 3.21299 4.48271
v 0.16299 2.21219 5.09264
v 0.43791 2.18197 5.06749
v -0.02623 3.21829 5.02962
v -0.02623 3.21829 5.02962
v -0.03799 2.16941 5.00573
v -0.03799 2.16941 5.00573
v 0.08974 2.17442 5.02374
v 0.16299 2.21219 5.09264
v 0.11798 2.62398 5.04578
v -0.03799 2.16941 5.00573
v 0.08974 2.17442 5.02374
v 0.11798 2.62398 5.04578
v -0.03674 2.44552 5.01238
v 0.57618 3.63380 4.58540
v 0.49339 3.60287 4.64465
v 0.56790 3.65505 4.58417
v 0.22306 3.31389 4.49568
v -0.01521 3.21299 4.48271
v 1.00138 3.13629 4.97945
v 1.27091 3.20025 4.95984
v 0.96031 3.33090 4.97129
v 1.11573 3.11499 4.97323
v 1.11573 3.11499 4.97323
v 1.11240 3.22457 5.15733
v 1.12741 2.96647 4.96839
v 1.12741 2.96647 4.96839
v 1.11243 2.24693 5.20259
v 1.10444 2.85388 4.96759
v 1.11243 2.24693 5.20259
v 1.02149 2.54297 4.97721
v 1.00138 3.13629 4.97945
v 1.11240 3.22457 5.15733
v 1.11573 3.11499 4.97323
v 0.93772 2.22569 5.04407
v 0.83662 3.19205 4.98836
v 0.74433 3.32973 5.00095
v 0.77085 2.21567 5.15984
v 1.11243 2.24693 5.20259
v 1.14010 2.37126 5.50096
v 0.93772 2.22569 5.04407
v 0.83662 3.19205 4.98836
v 1.14010 2.37126 5.50096
v 0.74433 3.32973 5.00095
v 0.96031 3.33090 4.97129
v 0.73316 3.35350 4.96767
v 0.73969 3.72501 5.16541
v 0.78992 3.47491 4.94655
v 0.78144 3.52061 4.77174
v 0.82376 3.66279 5.60142
v 1.10287 3.54325 5.59805
v 0.81777 3.29883 5.11687
v 0.69658 3.92994 4.83352
v 0.71626 3.22979 5.00521
v 0.81777 3.29883 5.11687
v 0.78992 3.47491 4.94655
v 0.74433 3.32973 5.00095
v 0.73316 3.35350 4.96767
v 0.81777 3.29883 5.11687
v 0.81809 2.35116 5.46905
v 0.71626 3.22979 5.00521
v 0.78687 3.42374 5.26306
v 0.71626 3.22979 5.00521
v 0.76393 2.31458 5.09500
v 0.75209 2.55564 5.03805
v 0.75516 2.42157 5.03842
v 0.75209 2.55564 5.03805
v 0.72424 2.55909 5.08791
v 0.73328 2.63160 5.04072
v 0.73328 2.63160 5.04072
v 0.75516 2.42157 5.03842
v 0.75209 2.55564 5.03805
v 0.76393 2.31458 5.09500
v 0.57101 2.68372 5.03716
v 0.78687 3.42374 5.26306
v 1.12830 2.94599 6.10552
v 0.76393 2.31458 5.09500
v 0.66866 2.18788 5.02950
v 0.77085 2.21567 5.15984
v 0.73969 3.72501 5.16541
v 0.77064 3.50324 5.19726
v 0.78687 3.42374 5.26306
v 0.77085 2.21567 5.15984
v 0.72424 2.55909 5.08791
v 0.53985 2.58454 5.06861
v 0.73328 2.63160 5.04072
v 1.10308 3.69257 6.03809
v 1.10287 3.54325 5.59805
v 0.57101 2.68372 5.03716
v 0.76401 2.46583 5.25547
v 0.78687 3.42374 5.26306
v 0.77064 3.50324 5.19726
v 0.66096 3.46014 5.24545
v 0.81809 2.35116 5.46905
v 0.47262 2.60953 5.06932
v 0.47834 2.65860 5.05619
v 0.66096 3.46014 5.24545
v 0.73969 3.72501 5.16541
v 0.44002 3.73536 5.16477
v 0.77064 3.50324 5.19726
v 0.44002 3.73536 5.16477
v 0.73969 3.72501 5.16541
v 0.69658 3.92994 4.83352
v 0.47834 2.65860 5.05619
v 0.45945 2.44032 5.07129
v 0.48937 2.58196 5.08727
v 0.53985 2.58454 5.06861
v 0.72424 2.55909 5.08791
v 0.48937 2.58196 5.08727
v 0.44686 3.81574 5.03270
v 0.39244 3.53362 4.75284
v 0.44002 3.73536 5.16477
v 0.38718 3.46715 4.93885
v 0.44686 3.81574 5.03270
v 0.66270 3.68091 5.54064
v 0.48937 2.58196 5.08727
v 0.47262 2.60953 5.06932
v 0.47834 2.65860 5.05619
v 0.46171 3.95187 4.81334
v 0.46630 3.24268 4.98328
v 0.42590 3.34029 4.98340
v 0.46251 3.22381 4.97790
v 0.38718 3.46715 4.93885
v 0.44048 3.35116 4.95592
v 0.42590 3.34029 4.98340
v 1.12830 2.94599 6.10552
v 0.45945 2.44032 5.07129
v 0.36434 3.29085 5.10822
v 0.42626 2.20710 5.09369
v 0.43791 2.18197 5.06749
v 0.45945 2.44032 5.07129
v 0.46630 3.24268 4.98328
v 0.36434 3.29085 5.10822
v 0.46251 3.22381 4.97790
v 0.26506 3.19266 5.01001
v 0.46630 3.24268 4.98328
v 0.44048 3.35116 4.95592
v 0.27687 3.32387 5.00139
v 0.42590 3.34029 4.98340
v 0.42626 2.20710 5.09369
v 0.81809 2.35116 5.46905
v 0.41708 2.34078 5.46199
v 0.76401 2.46583 5.25547
v 0.42590 3.34029 4.98340
v 0.27687 3.32387 5.00139
v 0.26506 3.19266 5.01001
v 0.46251 3.22381 4.97790
v 0.44975 2.44655 5.27619
v 0.39916 3.49902 5.19350
v 0.39916 3.49902 5.19350
v 0.16299 2.21219 5.09264
v 0.43791 2.18197 5.06749
v 0.42626 2.20710 5.09369
v 0.38075 3.41232 5.26846
v 0.36434 3.29085 5.10822
v 0.46630 3.24268 4.98328
v 0.26506 3.19266 5.01001
v 0.39916 3.49902 5.19350
v 0.44975 2.44655 5.27619
v 0.38075 3.41232 5.26846
v 0.38075 3.41232 5.26846
v 0.10326 3.25271 5.03276
v 0.41708 2.34078 5.46199
v 0.10326 3.25271 5.03276
v 0.27687 3.32387 5.00139
v -0.02623 3.21829 5.02962
v 0.41708 2.34078 5.46199
v 0.41708 2.34078 5.46199
v 0.15773 2.20724 5.17811
v 0.42626 2.20710 5.09369
v 0.12709 3.15877 5.02763
v 0.50115 3.67551 5.57139
v 0.12987 3.32064 5.24671
v 0.12709 3.15877 5.02763
v 0.16299 2.21219 5.09264
v 0.12045 3.04214 5.03193
v 0.15249 2.39359 5.05523
v 0.12619 2.20928 5.16018
v 0.11798 2.62398 5.04578
v 0.11798 2.62398 5.04578
v 0.16299 2.21219 5.09264
v 0.15249 2.39359 5.05523
v 0.16299 2.21219 5.09264
v -0.02623 3.21829 5.02962
v 0.11798 2.62398 5.04578
v 0.12619 2.20928 5.16018
v 0.12619 2.20928 5.16018
v 0.12045 3.04214 5.03193
v 0.11798 2.62398 5.04578
v 0.12987 3.32064 5.24671
v 0.12709 3.15877 5.02763
v 0.15773 2.20724 5.17811
v 0.41708 2.34078 5.46199
v 0.12619 2.20928 5.16018
v -0.03674 2.44552 5.01238
v 0.12830 3.58190 5.59880
v 0.13199 3.51687 5.50547
v 0.07847 2.34007 5.46134
v 0.12619 2.20928 5.16018
v 0.08911 2.82502 5.96500
v 0.13199 3.51687 5.50547
v 0.08567 2.98962 6.13258
v 0.08567 2.98962 6.13258
v 0.07847 2.34007 5.46134
v 0.08911 2.82502 5.96500
v 0.57101 2.68372 5.03716
v 0.69338 3.22142 3.99783
v 1.14772 2.52402 3.49879
v 1.21034 2.06027 4.00581
v 1.16446 3.19595 3.83682
v 0.86474 3.31021 3.54993
v 0.60067 3.33166 4.19392
v 0.37440 3.32843 4.08671
v 0.42386 3.77203 4.21585
v 0.29472 3.74800 4.38257
v 0.15951 3.72220 4.21008
v 0.27185 2.69358 3.75701
v 1.13338 2.08540 3.42925
v -0.00890 2.09169 3.45110
v -0.04665 2.75014 3.79969
v -0.01075 3.21388 3.96109
v 0.29219 3.32678 4.14391
v 0.60486 3.47017 5.69604
v 0.82376 3.66279 5.60142
v 1.10287 3.54325 5.59805
v 1.10308 3.69257 6.03809
v 1.12830 2.94599 6.10552
v 0.08567 2.98962 6.13258
v 0.13199 3.51687 5.50547
v 0.12830 3.58190 5.59880
v 0.38075 3.41232 5.26846
v 0.50115 3.67551 5.57139
v 0.66270 3.68091 5.54064
vt 0.35526 0.94149
vt 0.11704 0.84930
vt 0.09156 0.84930
vt 0.10809 0.83555
vt 0.39745 0.94169
vt 0.35293 0.92012
vt 0.39995 0.91861
vt 0.26958 0.21160
vt 0.27493 0.24242
vt 0.89828 0.30928
vt 0.88920 0.32278
vt 0.30040 0.23946
vt 0.86717 0.31863
vt 0.86573 0.29469
vt 0.88218 0.29032
vt 0.30055 0.22350
vt 0.29382 0.21098
vt 0.30028 0.21081
vt 0.10696 0.52895
vt 0.11135 0.53844
vt 0.10679 0.54164
vt 0.87624 0.28732
vt 0.10675 0.55760
vt 0.11409 0.55444
vt 0.11117 0.53133
vt 0.11078 0.53537
vt 0.86558 0.31340
vt 0.49871 0.02349
vt 0.49698 0.01604
vt 0.49871 0.01864
vt 0.48578 0.02332
vt 0.99468 0.85186
vt 0.99663 0.85099
vt 0.99781 0.85182
vt 0.11350 0.54694
vt 0.11486 0.55664
vt 0.99483 0.85140
vt 0.02952 0.79079
vt 0.03085 0.80366
vt 0.02418 0.80226
vt 0.86825 0.33046
vt 0.44526 0.16612
vt 0.44567 0.19176
vt 0.42714 0.19338
vt 0.02929 0.18684
vt 0.02839 0.18213
vt 0.02936 0.17932
vt 0.48819 0.01862
vt 0.86253 0.29774
vt 0.86279 0.30112
vt 0.02708 0.17799
vt 0.02922 0.18685
vt 0.00508 0.93411
vt 0.00692 0.93411
vt 0.00581 0.93755
vt 0.02870 0.17708
vt 0.11498 0.01314
vt 0.11339 0.02216
vt 0.11480 0.01269
vt 0.43596 0.94154
vt 0.86124 0.30954
vt 0.85811 0.29989
vt 0.43998 0.00072
vt 0.43815 0.00529
vt 0.43476 0.00190
vt 0.86515 0.31210
vt 0.06099 0.01604
vt 0.07248 0.01604
vt 0.06008 0.01862
vt 0.10708 0.01266
vt 0.44207 0.95997
vt 0.43027 0.96048
vt 0.14665 0.01987
vt 0.14694 0.01172
vt 0.15729 0.01549
vt 0.43781 0.02130
vt 0.43654 0.02243
vt 0.43503 0.01722
vt 0.14743 0.01134
vt 0.15332 0.01115
vt 0.39382 0.00911
vt 0.39713 0.01385
vt 0.39127 0.01374
vt 0.00684 0.94183
vt 0.42888 0.02203
vt 0.42440 0.01811
vt 0.42969 0.01278
vt 0.41058 0.16680
vt 0.29630 0.10204
vt 0.30434 0.10065
vt 0.31258 0.10051
vt 0.41037 0.17621
vt 0.43446 0.00523
vt 0.31489 0.10123
vt 0.15800 0.01134
vt 0.87023 0.33995
vt 0.10818 0.02486
vt 0.40116 0.00939
vt 0.67722 0.99503
vt 0.67218 0.99547
vt 0.66746 0.99524
vt 0.43159 0.92781
vt 0.85715 0.30691
vt 0.44004 0.02026
vt 0.10263 0.01381
vt 0.02167 0.17683
vt 0.20312 0.98889
vt 0.20780 0.98889
vt 0.20389 0.99266
vt 0.91723 0.00311
vt 0.91723 0.00990
vt 0.91518 0.00570
vt 0.43419 0.01208
vt 0.21369 0.98861
vt 0.00879 0.79766
vt 0.00422 0.79766
vt 0.00851 0.79063
vt 0.02485 0.85041
vt 0.01985 0.84013
vt 0.02432 0.83893
vt 0.86275 0.34234
vt 0.86322 0.33496
vt 0.10380 0.02386
vt 0.31031 0.09411
vt 0.31542 0.08705
vt 0.40162 0.01399
vt 0.01517 0.84910
vt 0.21509 0.99588
vt 0.42137 0.96026
vt 0.42084 0.92716
vt 0.00287 0.36523
vt 0.00287 0.37264
vt 0.00263 0.36967
vt 0.86071 0.34249
vt 0.86028 0.33697
vt 0.40300 0.94871
vt 0.00841 0.82491
vt 0.00259 0.82305
vt 0.00276 0.81991
vt 0.01995 0.32271
vt 0.01995 0.33362
vt 0.01307 0.33212
vt 0.85195 0.29543
vt 0.15304 0.00153
vt 0.15304 0.00797
vt 0.15062 0.00453
vt 0.00626 0.81998
vt 0.31854 0.09370
vt 0.41371 0.19283
vt 0.31901 0.10075
vt 0.85620 0.29711
vt 0.41527 0.92905
vt 0.41696 0.92649
vt 0.41560 0.19506
vt 0.42314 0.19446
vt 0.84450 0.28941
vt 0.40264 0.92296
vt 0.40176 0.95737
vt 0.41026 0.19219
vt 0.01783 0.67322
vt 0.01518 0.67199
vt 0.01781 0.66095
vt 0.99282 0.01599
vt 0.99244 0.01949
vt 0.98017 0.01949
vt 0.98532 0.01553
vt 0.99455 0.88963
vt 0.99745 0.88963
vt 0.99454 0.89026
vt 0.85315 0.30844
vt 0.84781 0.30539
vt 0.16868 0.04783
vt 0.17289 0.04054
vt 0.17399 0.05070
vt 0.16906 0.04432
vt 0.44775 0.57192
vt 0.45337 0.57517
vt 0.44374 0.57400
vt 0.97264 0.44965
vt 0.99359 0.44030
vt 0.97612 0.44946
vt 0.42822 0.59090
vt 0.98586 0.44897
vt 0.87815 0.69535
vt 0.88593 0.69473
vt 0.87909 0.69745
vt 0.99585 0.44712
vt 0.16887 0.05310
vt 0.17204 0.05701
vt 0.85681 0.69721
vt 0.84645 0.69567
vt 0.84559 0.68588
vt 0.85166 0.70061
vt 0.87859 0.69065
vt 0.43596 0.59696
vt 0.78904 0.01105
vt 0.79018 0.00454
vt 0.79025 0.01146
vt 0.92368 0.05840
vt 0.93129 0.06518
vt 0.92977 0.07045
vt 0.90633 0.68089
vt 0.90416 0.69050
vt 0.93678 0.06012
vt 0.91714 0.06833
vt 0.87851 0.68414
vt 0.88284 0.68189
vt 0.01252 0.99413
vt 0.01668 0.99672
vt 0.01543 0.99703
vt 0.02000 0.99404
vt 0.85535 0.68699
vt 0.16890 0.05696
vt 0.93298 0.05561
vt 0.01890 0.99895
vt 0.00254 0.14183
vt 0.00254 0.13431
vt 0.00347 0.13827
vt 0.16809 0.04060
vt 0.16983 0.04072
vt 0.16842 0.04295
vt 0.99331 0.69047
vt 0.99052 0.69622
vt 0.99199 0.69244
vt 0.16950 0.03321
vt 0.99848 0.69067
vt 0.89018 0.67989
vt 0.84591 0.66059
vt 0.60001 0.00547
vt 0.60162 0.00053
vt 0.60359 0.00522
vt 0.02236 0.00616
vt 0.01561 0.00735
vt 0.01266 0.00621
vt 0.17127 0.03009
vt 0.99414 0.62965
vt 0.99463 0.62400
vt 0.99677 0.62971
vt 0.47885 0.59144
vt 0.46836 0.58205
vt 0.99786 0.62466
vt 0.17476 0.03742
vt 0.02176 0.10748
vt 0.01863 0.10699
vt 0.02056 0.10365
vt 0.18108 0.03333
vt 0.95825 0.99893
vt 0.95980 0.99885
vt 0.89212 0.67438
vt 0.01363 0.76008
vt 0.01363 0.75099
vt 0.02039 0.76125
vt 0.01880 0.89619
vt 0.02788 0.89659
vt 0.02581 0.90831
vt 0.99671 0.62192
vt 0.95311 0.99873
vt 0.02799 0.69202
vt 0.02954 0.69151
vt 0.03513 0.69250
vt 0.99423 0.62242
vt 0.69205 0.01913
vt 0.70420 0.01913
vt 0.69099 0.02370
vt 0.70171 0.02457
vt 0.01870 0.90088
vt 0.90700 0.67423
vt 0.94793 0.02694
vt 0.94895 0.02647
vt 0.95046 0.02682
vt 0.01865 0.90872
vt 0.64741 0.00784
vt 0.64769 0.00465
vt 0.64773 0.00836
vt 0.03697 0.99477
vt 0.03398 0.99728
vt 0.03318 0.99668
vt 0.46014 0.60435
vt 0.94410 0.02474
vt 0.70198 0.03201
vt 0.96617 0.00405
vt 0.96691 0.00494
vt 0.95905 0.00495
vt 0.03094 0.99896
vt 0.02956 0.99404
vt 0.00222 0.94216
vt 0.00276 0.93605
vt 0.00278 0.94239
vt 0.00064 0.09490
vt 0.00064 0.08969
vt 0.00136 0.09421
vt 0.93726 0.02259
vt 0.03785 0.70569
vt 0.02569 0.70553
vt 0.03628 0.69832
vt 0.13057 0.94815
vt 0.13515 0.94821
vt 0.13591 0.95214
vt 0.12979 0.95177
vt 0.02674 0.69906
vt 0.01853 0.09573
vt 0.02089 0.75000
vt 0.12761 0.00423
vt 0.13602 0.00423
vt 0.13552 0.00527
vt 0.89119 0.66120
vt 0.88604 0.65914
vt 0.88062 0.65629
vt 0.88514 0.65391
vt 0.69559 0.02940
vt 0.94177 0.03056
vt 0.69593 0.03290
vt 0.02199 0.09513
vt 0.14067 0.94987
vt 0.93648 0.03444
vt 0.66097 0.99521
vt 0.66671 0.99571
vt 0.65695 0.99578
vt 0.86751 0.68734
vt 0.02848 0.22291
vt 0.01645 0.22018
vt 0.02150 0.21330
vt 0.14021 0.95277
vt 0.90666 0.66591
vt 0.89278 0.65329
vt 0.88624 0.64971
vt 0.01504 0.21800
vt 0.14077 0.95627
vt 0.23820 0.02648
vt 0.23641 0.02026
vt 0.24340 0.03127
vt 0.32735 0.01372
vt 0.33999 0.01372
vt 0.33439 0.01430
vt 0.23484 0.02197
vt 0.14468 0.95053
vt 0.14206 0.96889
vt 0.01536 0.22031
vt 0.56771 0.61699
vt 0.54636 0.60297
vt 0.55772 0.60861
vt 0.53596 0.60534
vt 0.54320 0.60137
vt 0.90302 0.01925
vt 0.91536 0.01925
vt 0.90205 0.01977
vt 0.14735 0.97381
vt 0.90581 0.65918
vt 0.90287 0.65674
vt 0.87777 0.68735
vt 0.87634 0.69731
vt 0.87742 0.66616
vt 0.52727 0.60996
vt 0.53384 0.63395
vt 0.87752 0.65904
vt 0.56024 0.62373
vt 0.54049 0.63143
vt 0.96085 0.99607
vt 0.43180 0.09357
vt 0.43180 0.09357
vt 0.43180 0.09357
vt 0.43180 0.09357
vt 0.43180 0.09357
vt 0.43180 0.09357
vt 0.43180 0.09357
vt 0.43180 0.09357
vt 0.43180 0.09357
vt 0.43180 0.09357
vt 0.35526 0.94149
vt 0.35526 0.94149
vt 0.35526 0.94149
vt 0.35526 0.94149
vt 0.35526 0.94149
vt 0.35526 0.94149
vt 0.90633 0.68089
vt 0.90633 0.68089
vt 0.90633 0.68089
vt 0.90633 0.68089
vt 0.90633 0.68089
vt 0.90633 0.68089
vt 0.90633 0.68089
vt 0.90633 0.68089
vt 0.90633 0.68089
vt 0.90633 0.68089
vt 0.90633 0.68089
vn 0.0240 -0.9895 -0.1428
vn 0.9911 -0.0114 -0.1328
vn 0.9911 -0.0114 -0.1328
vn 0.9911 -0.0114 -0.1328
vn -0.0111 -0.9978 -0.0651
vn -0.0094 -0.9993 -0.0360
vn -0.0157 -0.9996 -0.0221
vn 0.9976 0.0307 -0.0621
vn 0.9976 0.0222 -0.0654
vn 0.3811 0.9240 -0.0304
vn 0.2084 0.9779 -0.0174
vn 0.9969 0.0101 -0.0779
vn 0.0447 0.9988 -0.0213
vn 0.2493 0.9678 -0.0350
vn 0.3864 0.9214 -0.0402
vn 0.9953 -0.0081 -0.0968
vn 0.9955 -0.0024 -0.0941
vn 0.9956 -0.0019 -0.0932
vn 0.0783 -0.0149 0.9968
vn 0.0604 -0.0097 0.9981
vn 0.0324 -0.0211 0.9992
vn 0.3861 0.9215 -0.0406
vn 0.1338 0.0188 0.9908
vn 0.1657 0.0562 0.9845
vn 0.0994 -0.0246 0.9948
vn 0.1047 -0.0279 0.9941
vn 0.3965 0.9004 -0.1792
vn 0.8818 0.3709 -0.2913
vn 0.8815 0.3719 -0.2909
vn 0.8761 0.3825 -0.2937
vn 0.8828 0.3701 -0.2891
vn 0.9961 -0.0809 0.0334
vn 0.9964 -0.0788 0.0299
vn 0.9965 -0.0785 0.0294
vn 0.1110 0.0011 0.9939
vn 0.1990 0.1322 0.9711
vn 0.9960 -0.0821 0.0354
vn 0.4202 0.2102 -0.8827
vn 0.4161 0.2111 -0.8845
vn 0.4175 0.2108 -0.8839
vn -0.2678 0.9635 0.0002
vn -0.0096 -0.9955 0.0941
vn -0.0103 -0.9955 0.0937
vn -0.0165 -0.9924 0.1220
vn 0.6548 -0.0516 0.7541
vn 0.8412 -0.1284 0.5253
vn 0.6399 -0.0564 0.7664
vn 0.8829 0.3715 -0.2873
vn 0.0992 0.9949 -0.0170
vn 0.0608 0.9979 -0.0244
vn 0.6716 -0.2988 0.6780
vn 0.9482 -0.1980 0.2483
vn 0.3077 -0.6539 0.6912
vn 0.3127 -0.6663 0.6769
vn 0.3284 -0.7053 0.6283
vn 0.7134 -0.1812 0.6769
vn 0.0370 0.2814 0.9589
vn 0.1243 0.3580 0.9254
vn 0.1427 0.3251 0.9348
vn -0.9995 0.0295 -0.0155
vn -0.0421 0.9990 -0.0153
vn -0.0960 0.9951 -0.0238
vn 0.8777 -0.4516 -0.1607
vn 0.8786 -0.4477 -0.1662
vn 0.8788 -0.4470 -0.1671
vn 0.0170 0.9999 -0.0017
vn -0.5695 -0.0539 -0.8202
vn -0.6270 -0.1001 -0.7726
vn -0.5841 -0.0653 -0.8091
vn -0.0563 0.3255 0.9439
vn -0.9964 -0.0125 -0.0844
vn -0.9997 0.0125 -0.0242
vn 0.7225 0.2472 -0.6457
vn 0.7225 0.2689 -0.6369
vn 0.6736 0.2899 -0.6798
vn -0.0290 -0.8487 -0.5280
vn -0.0290 -0.8560 -0.5162
vn 0.0141 -0.6977 -0.7162
vn 0.7795 0.2715 -0.5645
vn 0.6449 0.3185 -0.6948
vn 0.0222 0.9870 0.1595
vn -0.1788 0.9613 0.2094
vn 0.2031 0.9346 0.2920
vn 0.3322 -0.7151 0.6151
vn 0.0329 -0.6109 -0.7910
vn 0.0218 -0.4190 -0.9078
vn 0.0163 -0.4521 -0.8918
vn -0.0072 -0.9956 0.0932
vn 0.0972 -0.4705 0.8770
vn 0.0948 -0.4875 0.8679
vn 0.0444 -0.2659 0.9630
vn -0.0056 -0.9954 0.0954
vn 0.8800 -0.4418 -0.1745
vn 0.1319 -0.0736 0.9885
vn 0.6498 0.3055 -0.6961
vn -0.3530 0.9356 0.0072
vn -0.1037 0.3321 0.9375
vn -0.3757 0.9132 0.1579
vn -0.8220 0.5517 -0.1414
vn -0.8220 0.5517 -0.1414
vn -0.8220 0.5517 -0.1414
vn -0.9972 0.0742 0.0086
vn -0.0966 0.9953 -0.0058
vn -0.0068 -0.8394 -0.5435
vn -0.2775 0.2849 0.9175
vn 0.5248 -0.4592 0.7167
vn -0.5175 0.4304 -0.7395
vn -0.5633 0.3769 -0.7353
vn -0.6116 0.3508 -0.7092
vn -0.7557 0.2567 0.6025
vn -0.7557 0.2567 0.6025
vn -0.7557 0.2567 0.6025
vn -0.0200 -0.4473 -0.8941
vn -0.7188 0.2451 -0.6505
vn 0.0212 -0.9811 0.1926
vn 0.0212 -0.9811 0.1926
vn 0.0212 -0.9811 0.1926
vn -0.9478 -0.2654 -0.1769
vn -0.9475 -0.2785 -0.1573
vn -0.9463 -0.2955 -0.1314
vn -0.3478 0.9376 -0.0027
vn -0.3576 0.9337 -0.0203
vn -0.2958 0.2863 0.9114
vn -0.0401 -0.0233 0.9989
vn 0.1229 -0.0180 0.9923
vn -0.5524 0.7706 0.3178
vn -0.9476 -0.2527 -0.1954
vn -0.7500 0.2147 -0.6257
vn -0.9995 0.0262 0.0171
vn -0.9989 0.0466 0.0006
vn -0.5968 0.8012 -0.0441
vn -0.5968 0.8012 -0.0441
vn -0.5968 0.8012 -0.0441
vn -0.3609 0.9320 -0.0334
vn -0.3850 0.9194 -0.0813
vn -0.9997 0.0212 0.0134
vn -0.8686 -0.4527 -0.2013
vn -0.8519 -0.4735 -0.2239
vn -0.8663 -0.4557 -0.2045
vn -0.9868 0.1588 0.0318
vn -0.9868 0.1588 0.0318
vn -0.9868 0.1588 0.0318
vn -0.2383 0.9711 -0.0086
vn 0.0093 0.7293 0.6840
vn 0.0093 0.7293 0.6840
vn 0.0093 0.7293 0.6840
vn -0.8836 -0.4324 -0.1796
vn 0.3064 -0.0163 0.9518
vn -0.0087 -0.9808 0.1950
vn 0.2656 -0.0363 0.9634
vn -0.1922 0.9756 -0.1060
vn -0.9994 0.0144 -0.0296
vn -0.9992 0.0318 -0.0249
vn -0.0255 -0.8717 0.4893
vn -0.0982 -0.9886 0.1143
vn -0.3465 0.9380 0.0062
vn -0.9997 0.0164 -0.0169
vn -0.9996 0.0038 0.0310
vn 0.0249 -0.9946 0.1004
vn -0.6872 0.0076 0.7264
vn -0.6872 0.0076 0.7264
vn -0.6872 0.0076 0.7264
vn -0.1484 -0.0362 0.9882
vn -0.1380 -0.0399 0.9896
vn -0.1661 -0.0298 0.9856
vn -0.1857 -0.0228 0.9824
vn -0.5025 -0.2437 -0.8295
vn -0.5025 -0.2437 -0.8295
vn -0.5025 -0.2437 -0.8295
vn -0.2702 0.9628 -0.0038
vn -0.3891 0.9210 -0.0168
vn 0.0647 0.0538 0.9965
vn 0.0604 0.0510 0.9968
vn 0.0876 0.0389 0.9954
vn 0.0623 0.0433 0.9971
vn 0.9964 0.0794 -0.0292
vn 0.9996 0.0281 0.0018
vn 0.9984 0.0198 0.0523
vn 0.8628 -0.1726 -0.4752
vn 0.6963 -0.2895 -0.6569
vn 0.8509 -0.1799 -0.4935
vn 0.9982 -0.0028 -0.0609
vn 0.7444 -0.2444 -0.6214
vn 0.1989 0.8228 -0.5325
vn 0.2459 0.7891 -0.5629
vn 0.1315 0.8529 -0.5053
vn 0.6580 -0.3176 -0.6827
vn 0.1137 0.0219 0.9933
vn 0.1377 0.0017 0.9904
vn 0.0495 -0.9625 0.2666
vn 0.0499 -0.9531 0.2984
vn -0.0003 -0.8263 0.5632
vn 0.0864 -0.9955 0.0383
vn 0.2087 0.8392 -0.5021
vn 0.9984 0.0116 -0.0550
vn 0.0729 0.8230 0.5634
vn 0.0729 0.8230 0.5634
vn 0.0729 0.8230 0.5634
vn 0.9816 0.1905 0.0156
vn 0.9824 0.1867 0.0120
vn 0.9800 0.1993 0.0005
vn 0.3158 0.7701 -0.5543
vn 0.3203 0.7732 -0.5473
vn 0.9836 0.1757 0.0397
vn 0.9791 0.2032 -0.0017
vn 0.2360 0.7738 -0.5879
vn 0.2733 0.7266 -0.6303
vn 0.7086 -0.4317 -0.5581
vn 0.7401 -0.3680 -0.5629
vn 0.7171 -0.4306 -0.5481
vn 0.7507 -0.3402 -0.5663
vn 0.0042 -0.8107 0.5853
vn 0.1396 0.0029 0.9902
vn 0.9831 0.1733 0.0596
vn 0.7880 -0.2454 -0.5647
vn -0.9936 -0.0225 0.1114
vn -0.9936 -0.0225 0.1114
vn -0.9936 -0.0225 0.1114
vn -0.8647 -0.1751 -0.4709
vn -0.9361 -0.1603 -0.3130
vn -0.8617 -0.1969 -0.4676
vn -0.0135 -0.0124 0.9999
vn 0.0005 -0.0109 0.9999
vn 0.1669 0.0066 0.9860
vn -0.9717 -0.1627 -0.1716
vn -0.0263 -0.0137 0.9996
vn 0.3296 0.7538 -0.5685
vn -0.0128 -0.7315 0.6817
vn -0.7801 0.3039 0.5469
vn -0.7801 0.3039 0.5469
vn -0.7801 0.3039 0.5469
vn -0.9878 -0.1244 0.0935
vn -0.9878 -0.1244 0.0935
vn -0.9878 -0.1244 0.0935
vn -0.9866 -0.1133 0.1174
vn 0.0122 -0.5465 -0.8373
vn -0.1450 -0.3485 -0.9260
vn -0.0144 -0.4654 -0.8850
vn 0.9986 0.0383 0.0349
vn 0.9994 0.0333 -0.0091
vn -0.0907 -0.2750 -0.9572
vn -0.9777 -0.0977 0.1857
vn 0.0802 0.6452 0.7598
vn 0.0511 0.6837 0.7280
vn 0.0025 0.7262 0.6875
vn -0.9760 -0.1005 0.1932
vn 0.2746 0.0521 0.9602
vn 0.1317 0.2421 0.9613
vn 0.0619 0.7992 -0.5978
vn 0.0028 0.1426 0.9898
vn -0.0065 0.1294 0.9916
vn -0.0034 0.1339 0.9910
vn 0.0272 0.8526 0.5219
vn 0.0283 0.8522 0.5225
vn 0.0305 0.8504 0.5252
vn -0.1843 -0.3096 -0.9328
vn 0.3201 -0.0139 0.9473
vn -0.0792 -0.8296 -0.5527
vn -0.0891 -0.9253 -0.3687
vn -0.0217 -0.8516 -0.5238
vn -0.3006 -0.3953 -0.8680
vn -0.9878 0.1505 0.0404
vn -0.9861 0.1624 0.0343
vn -0.9867 0.1589 0.0324
vn -0.9856 0.1653 0.0342
vn 0.0272 0.8521 0.5227
vn 0.1000 0.7838 -0.6129
vn 0.8125 -0.1251 -0.5694
vn 0.5092 -0.2302 -0.8293
vn 0.4487 -0.2797 -0.8488
vn 0.0338 0.8482 0.5286
vn -0.4125 -0.1719 0.8946
vn -0.4125 -0.1719 0.8946
vn -0.4125 -0.1719 0.8946
vn -0.7372 -0.4128 -0.5349
vn -0.7260 -0.4143 -0.5490
vn -0.7538 -0.3866 -0.5313
vn 0.9991 0.0359 0.0237
vn 0.9285 -0.1583 -0.3358
vn -0.9855 0.1691 0.0068
vn 0.8800 -0.0803 0.4681
vn 0.8800 -0.0803 0.4681
vn 0.8800 -0.0803 0.4681
vn -0.7900 -0.3264 -0.5189
vn -0.7697 -0.3648 -0.5240
vn -0.1996 0.3054 -0.9311
vn -0.1996 0.3054 -0.9311
vn -0.1996 0.3054 -0.9311
vn -0.0627 0.9390 0.3381
vn -0.0627 0.9390 0.3381
vn -0.0627 0.9390 0.3381
vn 0.9847 -0.1626 0.0616
vn 0.0311 -0.8773 -0.4790
vn 0.0251 -0.8736 -0.4860
vn 0.0256 -0.8736 -0.4860
vn 0.1436 0.0219 0.9893
vn 0.1304 0.0533 0.9901
vn 0.1433 0.0301 0.9892
vn 0.1599 0.0037 0.9871
vn -0.0030 -0.8564 -0.5164
vn -0.0460 0.6746 0.7367
vn -0.0114 0.1226 0.9924
vn -0.0168 -0.7253 0.6882
vn -0.0168 -0.7253 0.6882
vn -0.0168 -0.7253 0.6882
vn -0.2166 0.7837 -0.5822
vn -0.2306 0.7947 -0.5615
vn -0.2702 0.8036 -0.5302
vn -0.2544 0.7896 -0.5584
vn -0.9850 0.1719 -0.0175
vn 0.9831 -0.1615 0.0853
vn -0.9833 0.1787 -0.0348
vn -0.0509 0.6593 0.7502
vn 0.0801 0.0038 0.9968
vn 0.9838 -0.1593 0.0823
vn -0.2256 0.7972 0.5601
vn -0.2256 0.7972 0.5601
vn -0.2256 0.7972 0.5601
vn -0.0008 -0.7737 0.6335
vn 0.1069 -0.9338 0.3415
vn 0.0196 -0.9969 0.0760
vn 0.0834 -0.9602 0.2666
vn 0.2290 0.0049 0.9734
vn -0.2058 0.7778 -0.5939
vn -0.2407 0.7823 -0.5744
vn -0.2638 0.7774 -0.5710
vn -0.0215 -0.9980 -0.0592
vn 0.0266 0.0249 0.9994
vn -0.8652 -0.1491 -0.4787
vn -0.8655 -0.1488 -0.4782
vn -0.8652 -0.1492 -0.4787
vn 0.8642 0.1491 0.4805
vn 0.8642 0.1491 0.4805
vn 0.8642 0.1491 0.4805
vn -0.8656 -0.1487 -0.4780
vn -0.0345 0.0019 0.9994
vn -0.1685 -0.0141 0.9856
vn -0.0308 -0.9977 -0.0597
vn -0.9920 -0.0259 -0.1241
vn -0.9986 0.0379 -0.0375
vn -0.9944 0.0094 0.1054
vn -0.9970 0.0651 -0.0407
vn -0.9980 0.0557 -0.0284
vn -0.4214 -0.6094 0.6716
vn -0.4214 -0.6094 0.6716
vn -0.4214 -0.6094 0.6716
vn -0.1896 -0.0193 0.9817
vn -0.2270 0.7842 -0.5775
vn -0.2101 0.7939 -0.5707
vn 0.0007 -0.8278 0.5611
vn 0.0012 -0.9172 0.3985
vn -0.0090 -0.7186 0.6954
vn -0.9983 0.0408 -0.0405
vn -0.9995 0.0314 -0.0069
vn -0.0124 -0.7253 0.6883
vn -0.9963 0.0074 -0.0854
vn -0.9993 0.0219 -0.0284
vn 0.2424 0.0970 0.9653
vn 0.0000 1.0000 0.0000
vn 0.0000 1.0000 0.0000
vn 0.0000 1.0000 0.0000
vn 0.0000 1.0000 0.0000
vn 0.0000 1.0000 0.0000
vn 0.0000 1.0000 0.0000
vn 0.0000 1.0000 0.0000
vn 0.0000 1.0000 0.0000
vn 0.0000 1.0000 0.0000
vn 0.0000 1.0000 0.0000
vn 0.0000 1.0000 0.0000
vn 0.0000 1.0000 0.0000
vn 0.0000 1.0000 0.0000
vn 0.0000 1.0000 0.0000
vn 0.0000 1.0000 0.0000
vn 0.0000 1.0000 0.0000
vn 0.0000 1.0000 0.0000
vn 0.0000 1.0000 0.0000
vn 0.0000 1.0000 0.0000
vn 0.0000 1.0000 0.0000
vn 0.0000 1.0000 0.0000
vn 0.0000 1.0000 0.0000
vn 0.0000 1.0000 0.0000
vn 0.0000 1.0000 0.0000
vn 0.0000 1.0000 0.0000
vn 0.0000 1.0000 0.0000
vn 0.0000 1.0000 0.0000
f 2/2/2 3/3/3 4/4/4
f 8/8/8 12/12/12 9/9/9
f 11/11/11 13/13/13 14/14/14
f 14/14/14 10/10/10 11/11/11
f 14/14/14 15/15/15 10/10/10
f 16/16/16 8/8/8 17/17/17
f 16/16/16 12/12/12 8/8/8
f 18/18/18 16/16/16 17/17/17
f 6/6/6 5/5/5 1/1/1
f 19/19/19 20/20/20 21/21/21
f 15/15/15 14/14/14 22/22/22
f 21/21/21 20/20/20 23/23/23
f 172/172/172 173/173/173 174/174/174
f 20/20/20 24/24/24 23/23/23
f 19/19/19 25/25/25 26/26/26
f 19/19/19 26/26/26 20/20/20
f 14/14/14 13/13/13 27/27/27
f 172/172/172 175/175/175 173/173/173
f 176/176/176 177/177/177 178/178/178
f 6/6/6 7/7/7 5/5/5
f 179/179/179 180/180/180 181/181/181
f 28/28/28 29/29/29 30/30/30
f 182/182/182 178/178/178 177/177/177
f 31/31/31 29/29/29 28/28/28
f 32/32/32 33/33/33 34/34/34
f 180/180/180 183/183/183 181/181/181
f 20/20/20 35/35/35 24/24/24
f 23/23/23 24/24/24 36/36/36
f 32/32/32 37/37/37 33/33/33
f 38/38/38 39/39/39 40/40/40
f 184/184/184 185/185/185 186/186/186
f 42/42/42 43/43/43 44/44/44
f 45/45/45 46/46/46 47/47/47
f 180/180/180 187/187/187 183/183/183
f 31/31/31 48/48/48 29/29/29
f 49/49/49 14/14/14 50/50/50
f 51/51/51 46/46/46 52/52/52
f 53/53/53 54/54/54 55/55/55
f 188/188/188 174/174/174 189/189/189
f 174/174/174 188/188/188 172/172/172
f 56/56/56 47/47/47 46/46/46
f 57/57/57 58/58/58 59/59/59
f 46/46/46 51/51/51 56/56/56
f 190/190/190 191/191/191 192/192/192
f 61/61/61 62/62/62 50/50/50
f 191/191/191 190/190/190 193/193/193
f 63/63/63 64/64/64 65/65/65
f 185/185/185 184/184/184 194/194/194
f 195/195/195 182/182/182 177/177/177
f 50/50/50 14/14/14 66/66/66
f 67/67/67 68/68/68 69/69/69
f 59/59/59 58/58/58 70/70/70
f 60/60/60 71/71/71 72/72/72
f 73/73/73 74/74/74 75/75/75
f 196/196/196 197/197/197 198/198/198
f 76/76/76 77/77/77 78/78/78
f 74/74/74 79/79/79 80/80/80
f 81/81/81 82/82/82 83/83/83
f 74/74/74 80/80/80 75/75/75
f 54/54/54 84/84/84 55/55/55
f 78/78/78 77/77/77 85/85/85
f 199/199/199 200/200/200 201/201/201
f 85/85/85 86/86/86 87/87/87
f 88/88/88 42/42/42 44/44/44
f 202/202/202 203/203/203 185/185/185
f 85/85/85 87/87/87 78/78/78
f 50/50/50 66/66/66 61/61/61
f 89/89/89 90/90/90 91/91/91
f 200/200/200 199/199/199 204/204/204
f 88/88/88 44/44/44 92/92/92
f 201/201/201 205/205/205 199/199/199
f 64/64/64 93/93/93 65/65/65
f 206/206/206 207/207/207 185/185/185
f 185/185/185 194/194/194 206/206/206
f 94/94/94 89/89/89 91/91/91
f 75/75/75 80/80/80 95/95/95
f 208/208/208 209/209/209 210/210/210
f 208/208/208 211/211/211 209/209/209
f 58/58/58 97/97/97 70/70/70
f 192/192/192 212/212/212 190/190/190
f 188/188/188 189/189/189 213/213/213
f 207/207/207 202/202/202 185/185/185
f 99/99/99 100/100/100 101/101/101
f 204/204/204 199/199/199 214/214/214
f 211/211/211 215/215/215 209/209/209
f 216/216/216 217/217/217 218/218/218
f 219/219/219 220/220/220 221/221/221
f 61/61/61 103/103/103 62/62/62
f 104/104/104 76/76/76 78/78/78
f 97/97/97 105/105/105 70/70/70
f 56/56/56 51/51/51 106/106/106
f 107/107/107 108/108/108 109/109/109
f 222/222/222 223/223/223 224/224/224
f 220/220/220 219/219/219 225/225/225
f 110/110/110 111/111/111 112/112/112
f 113/113/113 78/78/78 87/87/87
f 223/223/223 222/222/222 226/226/226
f 109/109/109 108/108/108 114/114/114
f 115/115/115 116/116/116 117/117/117
f 202/202/202 207/207/207 227/227/227
f 118/118/118 119/119/119 120/120/120
f 228/228/228 212/212/212 192/192/192
f 41/41/41 121/121/121 122/122/122
f 229/229/229 230/230/230 231/231/231
f 123/123/123 105/105/105 97/97/97
f 124/124/124 125/125/125 91/91/91
f 232/232/232 233/233/233 234/234/234
f 98/98/98 126/126/126 82/82/82
f 96/96/96 121/121/121 41/41/41
f 220/220/220 225/225/225 235/235/235
f 118/118/118 127/127/127 119/119/119
f 128/128/128 109/109/109 114/114/114
f 236/236/236 237/237/237 238/238/238
f 72/72/72 129/129/129 60/60/60
f 195/195/195 177/177/177 240/240/240
f 125/125/125 94/94/94 91/91/91
f 60/60/60 130/130/130 102/102/102
f 131/131/131 132/132/132 133/133/133
f 237/237/237 241/241/241 238/238/238
f 242/242/242 220/220/220 235/235/235
f 134/134/134 135/135/135 122/122/122
f 243/243/243 244/244/244 245/245/245
f 60/60/60 129/129/129 136/136/136
f 137/137/137 138/138/138 139/139/139
f 60/60/60 136/136/136 130/130/130
f 140/140/140 141/141/141 142/142/142
f 143/143/143 62/62/62 170/170/170
f 242/242/242 235/235/235 246/246/246
f 144/144/144 145/145/145 146/146/146
f 247/247/247 358/358/358 248/248/248
f 202/202/202 227/227/227 249/249/249
f 250/250/250 251/251/251 252/252/252
f 170/170/170 62/62/62 103/103/103
f 253/253/253 254/254/254 255/255/255
f 237/237/237 256/256/256 241/241/241
f 239/239/239 195/195/195 240/240/240
f 137/137/137 139/139/139 147/147/147
f 358/358/358 247/247/247 257/257/257
f 258/258/258 259/259/259 260/260/260
f 237/237/237 261/261/261 256/256/256
f 262/262/262 263/263/263 264/264/264
f 94/94/94 125/125/125 148/148/148
f 265/265/265 264/264/264 263/263/263
f 255/255/255 266/266/266 253/253/253
f 249/249/249 267/267/267 202/202/202
f 92/92/92 44/44/44 149/149/149
f 148/148/148 150/150/150 94/94/94
f 143/143/143 151/151/151 62/62/62
f 268/268/268 269/269/269 270/270/270
f 255/255/255 271/271/271 266/266/266
f 272/272/272 273/273/273 274/274/274
f 121/121/121 134/134/134 122/122/122
f 275/275/275 276/276/276 277/277/277
f 239/239/239 278/278/278 195/195/195
f 268/268/268 279/279/279 269/269/269
f 265/265/265 280/280/280 264/264/264
f 281/281/281 282/282/282 283/283/283
f 277/277/277 284/284/284 285/285/285
f 286/286/286 287/287/287 288/288/288
f 289/289/289 290/290/290 291/291/291
f 279/279/279 268/268/268 292/292/292
f 293/293/293 294/294/294 295/295/295
f 296/296/296 297/297/297 298/298/298
f 298/298/298 299/299/299 296/296/296
f 277/277/277 285/285/285 275/275/275
f 294/294/294 260/260/260 295/295/295
f 130/130/130 152/152/152 153/153/153
f 260/260/260 300/300/300 258/258/258
f 245/245/245 244/244/244 301/301/301
f 154/154/154 44/44/44 155/155/155
f 252/252/252 251/251/251 302/302/302
f 303/303/303 304/304/304 305/305/305
f 267/267/267 249/249/249 306/306/306
f 152/152/152 130/130/130 136/136/136
f 149/149/149 44/44/44 154/154/154
f 307/307/307 308/308/308 309/309/309
f 280/280/280 310/310/310 264/264/264
f 268/268/268 311/311/311 292/292/292
f 294/294/294 300/300/300 260/260/260
f 280/280/280 312/312/312 310/310/310
f 171/171/171 156/156/156 170/170/170
f 245/245/245 301/301/301 313/313/313
f 170/170/170 156/156/156 143/143/143
f 298/298/298 297/297/297 314/314/314
f 152/152/152 136/136/136 157/157/157
f 315/315/315 292/292/292 311/311/311
f 316/316/316 317/317/317 318/318/318
f 212/212/212 228/228/228 319/319/319
f 309/309/309 306/306/306 307/307/307
f 320/320/320 321/321/321 322/322/322
f 298/298/298 314/314/314 323/323/323
f 267/267/267 306/306/306 324/324/324
f 157/157/157 153/153/153 152/152/152
f 325/325/325 309/309/309 326/326/326
f 136/136/136 129/129/129 158/158/158
f 92/92/92 149/149/149 159/159/159
f 321/321/321 327/327/327 322/322/322
f 314/314/314 328/328/328 323/323/323
f 325/325/325 306/306/306 309/309/309
f 329/329/329 330/330/330 331/331/331
f 332/332/332 333/333/333 334/334/334
f 329/329/329 335/335/335 330/330/330
f 328/328/328 336/336/336 337/337/337
f 160/160/160 161/161/161 162/162/162
f 327/327/327 321/321/321 338/338/338
f 336/336/336 328/328/328 314/314/314
f 163/163/163 164/164/164 165/165/165
f 339/339/339 340/340/340 341/341/341
f 340/340/340 342/342/342 343/343/343
f 344/344/344 345/345/345 346/346/346
f 166/166/166 163/163/163 165/165/165
f 347/347/347 337/337/337 336/336/336
f 325/325/325 349/349/349 306/306/306
f 350/350/350 351/351/351 319/319/319
f 319/319/319 228/228/228 352/352/352
f 340/340/340 353/353/353 342/342/342
f 340/340/340 354/354/354 353/353/353
f 355/355/355 352/352/352 228/228/228
f 340/340/340 339/339/339 356/356/356
f 306/306/306 349/349/349 348/348/348
f 319/319/319 352/352/352 350/350/350
f 356/356/356 357/357/357 340/340/340
f 357/357/357 354/354/354 340/340/340
f 66/66/66 14/14/14 27/27/27
f 167/167/167 168/168/168 169/169/169
f 359/359/359 360/360/360 361/361/361
f 359/359/359 361/361/361 360/360/360
f 359/359/359 361/361/361 362/362/362
f 359/359/359 362/362/362 361/361/361
f 359/359/359 362/362/362 363/363/363
f 359/359/359 363/363/363 362/362/362
f 359/359/359 363/363/363 364/364/364
f 359/359/359 364/364/364 363/363/363
f 359/359/359 364/364/364 365/365/365
f 359/359/359 365/365/365 364/364/364
f 359/359/359 365/365/365 366/366/366
f 359/359/359 366/366/366 365/365/365
f 359/359/359 366/366/366 367/367/367
f 359/359/359 367/367/367 366/366/366
f 359/359/359 367/367/367 368/368/368
f 359/359/359 368/368/368 367/367/367
f 359/359/359 368/368/368 360/360/360
f 359/359/359 360/360/360 368/368/368
f 369/369/369 370/370/370 371/371/371
f 369/369/369 371/371/371 370/370/370
f 369/369/369 371/371/371 372/372/372
f 369/369/369 372/372/372 371/371/371
f 369/369/369 372/372/372 373/373/373
f 369/369/369 373/373/373 372/372/372
f 369/369/369 373/373/373 374/374/374
f 369/369/369 374/374/374 373/373/373
f 369/369/369 374/374/374 370/370/370
f 369/369/369 370/370/370 374/374/374
f 375/375/375 376/376/376 377/377/377
f 375/375/375 377/377/377 376/376/376
f 375/375/375 377/377/377 378/378/378
f 375/375/375 378/378/378 377/377/377
f 375/375/375 378/378/378 379/379/379
f 375/375/375 379/379/379 378/378/378
f 375/375/375 379/379/379 380/380/380
f 375/375/375 380/380/380 379/379/379
f 375/375/375 380/380/380 381/381/381
f 375/375/375 381/381/381 380/380/380
f 375/375/375 381/381/381 382/382/382
f 375/375/375 382/382/382 381/381/381
f 375/375/375 382/382/382 383/383/383
f 375/375/375 383/383/383 382/382/382
f 375/375/375 383/383/383 384/384/384
f 375/375/375 384/384/384 383/383/383
f 375/375/375 384/384/384 385/385/385
f 375/375/375 385/385/385 384/384/384
f 375/375/375 385/385/385 376/376/376
f 375/375/375 376/376/376 385/385/385
