o tail_1
v 1.50082 3.78720 2.61471
v 1.24986 4.13306 2.57473
v 1.42279 3.16197 2.67229
v 1.40776 3.34283 2.76573
v 1.39267 3.03470 2.62363
v 1.42279 3.16197 2.67229
v 1.42763 3.62545 2.84725
v 1.40776 3.34283 2.76573
v 1.42763 3.62545 2.84725
v 1.38603 3.53212 2.98310
v 1.38603 3.53212 2.98310
v 1.39267 3.03470 2.62363
v 1.33971 3.43878 3.13204
v 1.06068 4.05480 2.73542
v 1.08150 4.16606 2.76058
v 1.08823 4.13569 2.62290
v 1.23508 3.09932 3.40486
v 1.35107 2.32171 2.92851
v 1.06068 4.05480 2.73542
v 0.94978 4.05159 2.74534
v 1.06068 4.05480 2.73542
v 1.08150 4.16606 2.76058
v 1.02231 3.95932 2.82847
v 1.08227 3.74779 3.07710
v 0.94978 4.05159 2.74534
v 0.89062 4.00486 2.78599
v 1.07201 2.54455 3.20973
v 1.23508 3.09932 3.40486
v 1.12236 2.90073 3.36128
v 0.70950 4.01473 2.80106
v 0.89062 4.00486 2.78599
v 0.79958 4.00691 2.78886
v 0.64710 4.25063 2.61118
v 0.64710 4.25063 2.61118
v 0.79958 4.00691 2.78886
v 0.74605 4.03002 2.77762
v 0.70950 4.01473 2.80106
v 0.70950 4.01473 2.80106
v 1.12236 2.90073 3.36128
v 1.20144 3.11892 3.44144
v 1.20304 2.74693 3.33927
v 0.49688 4.32495 2.63077
v 1.02583 2.76676 3.32134
v 1.02583 2.76676 3.32134
v 0.60453 4.30327 2.65625
v 0.74605 4.03002 2.77762
v 0.68940 4.11446 2.70739
v 0.63076 3.98939 2.83158
v 0.64967 4.16056 2.71634
v 0.64710 4.25063 2.61118
v 0.60292 4.18268 2.73777
v 0.63884 4.12724 2.83347
v 0.00010 4.18119 2.48926
v 0.41446 4.53247 2.62490
v 0.00010 4.18119 2.48926
v 0.23928 4.35042 2.46817
v 0.24803 4.50036 2.52951
v 0.41446 4.53247 2.62490
v 0.23928 4.35042 2.46817
v 0.23928 4.35042 2.46817
v 0.00010 4.18119 2.48926
v 0.17877 4.18544 2.51462
v -0.30374 3.30093 2.06583
v 0.23928 4.35042 2.46817
v 0.17877 4.18544 2.51462
v 0.24803 4.50036 2.52951
v 0.38645 3.99189 2.82412
v 0.31177 4.02334 2.77047
v 0.13910 4.01113 2.74678
v -0.28268 3.23891 2.22021
v 0.00010 4.18119 2.48926
v 0.15915 4.12568 2.59055
v 0.17877 4.18544 2.51462
v 0.15915 4.12568 2.59055
v 0.14743 4.16073 2.79430
v -0.26817 4.06348 2.25626
v 0.13910 4.01113 2.74678
v -0.28268 3.23891 2.22021
v -0.24588 3.45807 2.27970
v -0.24588 3.45807 2.27970
v -0.27812 3.55919 2.35947
v -0.27927 3.89206 2.49329
v -0.27927 3.89206 2.49329
v -0.27927 3.89206 2.49329
v -0.02430 3.72441 3.09666
v -0.25435 3.59516 2.96224
v -0.27812 3.55919 2.35947
v -0.22716 2.33468 2.88696
v -0.03929 2.21529 3.08409
v 0.15189 2.54617 3.22105
v 0.03240 2.71464 3.28921
v 0.18865 2.50958 3.20849
v 0.11710 2.12330 3.18491
v -0.05470 2.69378 3.33975
v 0.18865 2.50958 3.20849
v -0.05470 2.69378 3.33975
v 0.15189 2.54617 3.22105
v 0.18865 2.50958 3.20849
v 0.15189 2.54617 3.22105
v 0.07800 2.60556 3.25124
v 0.03240 2.71464 3.28921
v -0.27927 3.89206 2.49329
v 0.07800 2.60556 3.25124
v -0.25435 3.59516 2.96224
v -0.02430 3.72441 3.09666
v -0.13139 2.48374 3.28955
v -0.27889 2.61355 3.01835
v -0.22684 3.29367 3.43658
v -0.17984 3.11871 3.40642
v -0.13409 2.82095 3.39779
v -0.27889 2.61355 3.01835
v -0.03929 2.21529 3.08409
v -0.04011 2.90156 3.34849
v -0.04011 2.90156 3.34849
v -0.06792 3.04677 3.40538
v -0.02529 2.25403 3.48913
v -0.03254 2.55221 3.55514
v -0.07323 2.12116 3.44209
v -0.02529 2.25403 3.48913
v -0.04665 2.75014 3.79969
v -0.03254 2.55221 3.55514
v -0.22684 3.29367 3.43658
v -0.00890 2.09169 3.45110
v -0.07323 2.78827 3.59512
v -0.07323 2.12116 3.44209
v -0.07323 2.78827 3.59512
v -0.13139 2.48374 3.28955
v -0.13409 2.82095 3.39779
v 1.33971 3.43878 3.13204
v 0.64750 4.33212 2.54390
v 0.17877 4.18544 2.51462
v 0.13910 4.01113 2.74678
v -0.17984 3.11871 3.40642
v 1.39267 3.03470 2.62363
v 1.42255 2.92373 2.55156
v 1.42279 3.16197 2.67229
v 1.39267 3.03470 2.62363
v 1.35195 2.54235 2.61210
v 1.35107 2.32171 2.92851
v 1.33971 3.43878 3.13204
v 0.37475 2.52130 2.60022
v 1.35107 2.32171 2.92851
v 1.21606 2.28736 2.98792
v 1.35107 2.32171 2.92851
v 1.07201 2.54455 3.20973
v 1.21606 2.28736 2.98792
v 1.23508 3.09932 3.40486
v 1.01457 2.22870 3.07097
v 1.17167 2.16337 3.18014
v 1.13338 2.08540 3.42925
v 1.06067 2.15057 3.18348
v 1.17167 2.16337 3.18014
v 1.02583 2.76676 3.32134
v 1.19362 2.50542 3.26978
v 1.16884 2.75872 3.50926
v 1.17167 2.16337 3.18014
v 1.19362 2.50542 3.26978
v 0.82711 2.29028 3.21686
v 1.20304 2.74693 3.33927
v 1.20304 2.74693 3.33927
v 1.13338 2.08540 3.42925
v 1.14772 2.52402 3.49879
v 0.97699 2.69674 3.29464
v 1.02583 2.76676 3.32134
v 0.83141 2.13436 3.19227
v 0.72497 2.38462 3.18461
v 0.62266 2.22240 3.08027
v 0.92956 2.62333 3.26509
v 0.97699 2.69674 3.29464
v 1.02583 2.76676 3.32134
v 1.06067 2.15057 3.18348
v 0.83141 2.13436 3.19227
v 0.85753 2.52365 3.22422
v 1.01457 2.22870 3.07097
v 0.62266 2.22240 3.08027
v 0.92956 2.62333 3.26509
v 0.80794 2.45563 3.19898
v 0.85753 2.52365 3.22422
v 0.67380 2.12214 3.19548
v 0.80794 2.45563 3.19898
v -0.03929 2.21529 3.08409
v 0.64607 2.38263 3.17430
v 0.72497 2.38462 3.18461
v 0.67380 2.12214 3.19548
v 0.64607 2.38263 3.17430
v 0.54458 2.12250 3.16523
v 0.49222 2.37875 3.16109
v 0.54458 2.12250 3.16523
v 0.35383 2.38451 3.15878
v 0.49222 2.37875 3.16109
v 0.35383 2.38451 3.15878
v 0.11710 2.12330 3.18491
v -0.00890 2.09169 3.45110
v 0.31310 2.39363 3.16295
v 0.31310 2.39363 3.16295
v 0.11710 2.12330 3.18491
v -0.03929 2.21529 3.08409
v 0.18865 2.50958 3.20849
v 0.18865 2.50958 3.20849
v 1.17167 2.16337 3.18014
v 1.02583 2.76676 3.32134
v -0.21202 2.54794 2.48949
v -0.03929 2.21529 3.08409
v -0.21015 2.32185 2.87303
v 0.11710 2.12330 3.18491
v -0.00890 2.09169 3.45110
v -0.13680 2.18807 3.20579
v -0.21015 2.32185 2.87303
v -0.22716 2.33468 2.88696
v -0.21202 2.54794 2.48949
v -0.03929 2.21529 3.08409
v -0.27889 2.61355 3.01835
v -0.22716 2.33468 2.88696
v -0.03929 2.21529 3.08409
v -0.13680 2.18807 3.20579
v -0.13139 2.48374 3.28955
v 0.11710 2.12330 3.18491
v -0.07323 2.12116 3.44209
v -0.13680 2.18807 3.20579
v -0.07323 2.12116 3.44209
v -0.13139 2.48374 3.28955
v -0.00890 2.09169 3.45110
v -0.02529 2.25403 3.48913
v -0.07323 2.12116 3.44209
v 1.07592 4.21733 2.73222
v 1.01580 4.59348 3.06002
v 1.08150 4.16606 2.76058
v 1.01291 4.12623 3.00590
v 0.94978 4.05159 2.74534
v 1.08150 4.16606 2.76058
v 1.02753 4.12710 2.92823
v 1.01291 4.12623 3.00590
v 1.08227 3.74779 3.07710
v 1.33971 3.43878 3.13204
v 1.38603 3.53212 2.98310
v 0.86334 3.68999 3.17745
v 1.02231 3.95932 2.82847
v 0.89062 4.00486 2.78599
v 1.01580 4.59348 3.06002
v 0.79958 4.00691 2.78886
v 0.89062 4.00486 2.78599
v 1.02753 4.12710 2.92823
v 0.99937 4.56328 3.15988
v 0.70950 4.01473 2.80106
v 0.69223 4.49403 2.68205
v 1.23508 3.09932 3.40486
v 1.20144 3.11892 3.44144
v 1.12236 2.90073 3.36128
v 0.91331 4.58151 3.08403
v 0.99937 4.56328 3.15988
v 1.20304 2.74693 3.33927
v 1.20144 3.11892 3.44144
v 1.16884 2.75872 3.50926
v 1.21265 3.24767 3.48125
v 1.23508 3.09932 3.40486
v 1.33971 3.43878 3.13204
v 1.21265 3.24767 3.48125
v 1.01291 4.12623 3.00590
v 0.78422 4.10111 3.08962
v 0.79958 4.00691 2.78886
v 0.70755 4.05486 2.82783
v 0.74605 4.03002 2.77762
v 0.71601 4.06486 2.92291
v 0.65323 4.34769 2.84789
v 0.69223 4.49403 2.68205
v 0.71601 4.06486 2.92291
v 1.21265 3.24767 3.48125
v 0.82314 4.53885 3.20999
v 0.64710 4.25063 2.61118
v 0.60453 4.30327 2.65625
v 0.60292 4.18268 2.73777
v 1.01291 4.12623 3.00590
v 0.99937 4.56328 3.15988
v 0.82314 4.53885 3.20999
v 0.68940 4.11446 2.70739
v 0.64967 4.16056 2.71634
v 0.63884 4.12724 2.83347
v 0.65652 4.49245 2.92142
v 0.64750 4.33212 2.54390
v 0.70950 4.01473 2.80106
v 0.74605 4.03002 2.77762
v 0.63076 3.98939 2.83158
v 0.64967 4.16056 2.71634
v 0.68940 4.11446 2.70739
v 0.78422 4.10111 3.08962
v 0.70950 4.01473 2.80106
v 0.63076 3.98939 2.83158
v 0.70755 4.05486 2.82783
v 0.64710 4.25063 2.61118
v 0.97226 3.51782 3.41424
v 0.82738 3.64673 3.23321
v 0.78403 3.55843 3.36008
v 1.16884 2.75872 3.50926
v 1.21265 3.24767 3.48125
v 1.14582 3.20241 3.54049
v 0.70755 4.05486 2.82783
v 0.71601 4.06486 2.92291
v 0.70950 4.01473 2.80106
v 0.65652 4.49245 2.92142
v 0.60026 4.46360 3.07191
v 0.60292 4.18268 2.73777
v 0.60453 4.30327 2.65625
v 0.62147 4.53314 2.68241
v 0.63076 3.98939 2.83158
v 0.68482 3.89265 2.95694
v 0.62147 4.53314 2.68241
v 0.60453 4.30327 2.65625
v 0.49688 4.32495 2.63077
v 0.68482 3.89265 2.95694
v 0.69782 3.86183 2.98651
v 0.97226 3.51782 3.41424
v 0.56400 4.69154 3.05253
v 0.53220 4.19697 3.03677
v 0.85276 3.75194 3.12864
v 0.86744 3.77699 3.31183
v 0.86334 3.68999 3.17745
v 0.58258 4.07246 2.82024
v 1.21265 3.24767 3.48125
v 0.61383 4.12187 2.99266
v 0.58258 4.07246 2.82024
v 0.72119 4.09197 3.05300
v 0.55243 4.06574 2.85575
v 0.61383 4.12187 2.99266
v 0.72119 4.09197 3.05300
v 0.82738 3.64673 3.23321
v 0.86334 3.68999 3.17745
v 0.86744 3.77699 3.31183
v 1.14582 3.20241 3.54049
v 1.21265 3.24767 3.48125
v 0.86474 3.31021 3.54993
v 0.85276 3.75194 3.12864
v 0.81457 3.81531 3.23517
v 0.86744 3.77699 3.31183
v 0.85276 3.75194 3.12864
v 0.86334 3.68999 3.17745
v 0.71605 3.65931 3.23478
v 0.58618 4.20425 3.01558
v 0.70777 3.98236 3.10545
v 0.69782 3.86183 2.98651
v 0.72119 4.09197 3.05300
v 0.78422 4.10111 3.08962
v 0.61383 4.12187 2.99266
v 0.58618 4.20425 3.01558
v 0.82314 4.53885 3.20999
v 0.55763 3.93127 2.90980
v 1.16884 2.75872 3.50926
v 1.14582 3.20241 3.54049
v 1.16446 3.19595 3.83682
v 0.61383 4.12187 2.99266
v 0.71605 3.65931 3.23478
v 0.78807 3.82868 3.28789
v 0.85276 3.75194 3.12864
v 0.81457 3.81531 3.23517
v 1.14772 2.52402 3.49879
v 1.21034 2.06027 4.00581
v 0.64005 3.63346 3.28484
v 0.36474 4.73094 3.07567
v 0.62147 4.53314 2.68241
v 0.41446 4.53247 2.62490
v 0.64005 3.63346 3.28484
v 0.78807 3.82868 3.28789
v 0.55763 3.93127 2.90980
v 0.62557 3.84331 3.02116
v 0.69782 3.86183 2.98651
v 0.63698 3.89597 3.12341
v 0.70777 3.98236 3.10545
v 0.72119 4.09197 3.05300
v 0.59412 3.99801 3.08233
v 0.70777 3.98236 3.10545
v 0.61383 4.12187 2.99266
v 0.60026 4.46360 3.07191
v 0.24803 4.50036 2.52951
v 0.61477 3.87654 2.98172
v 0.55763 3.93127 2.90980
v 0.62557 3.84331 3.02116
v 0.38645 3.99189 2.82412
v 0.55763 3.93127 2.90980
v 0.55243 4.06574 2.85575
v 0.55763 3.93127 2.90980
v 0.61477 3.87654 2.98172
v 0.61026 4.00797 3.02933
v 0.82895 3.68768 3.35916
v 0.97226 3.51782 3.41424
v 0.66879 3.42951 3.42834
v 1.21265 3.24767 3.48125
v 0.61383 4.12187 2.99266
v 0.56400 4.69154 3.05253
v 0.61383 4.12187 2.99266
v 0.61026 4.00797 3.02933
v 0.59412 3.99801 3.08233
v 0.60026 4.46360 3.07191
v 0.61477 3.87654 2.98172
v 0.63698 3.89597 3.12341
v 0.38645 3.99189 2.82412
v 0.78403 3.55843 3.36008
v 0.63698 3.89597 3.12341
v 0.61477 3.87654 2.98172
v 0.62557 3.84331 3.02116
v 0.70096 3.51345 3.41503
v 1.16446 3.19595 3.83682
v 1.14582 3.20241 3.54049
v 0.86474 3.31021 3.54993
v 0.86744 3.77699 3.31183
v 0.78807 3.82868 3.28789
v 0.82895 3.68768 3.35916
v 0.61477 3.87654 2.98172
v 0.63698 3.89597 3.12341
v 0.59231 3.93624 3.09716
v 0.55243 4.06574 2.85575
v 0.58258 4.07246 2.82024
v 0.53220 4.19697 3.03677
v 0.59231 3.93624 3.09716
v 0.78403 3.59369 3.39264
v 0.72108 3.63928 3.25833
v 0.71605 3.65931 3.23478
v 0.64005 3.63346 3.28484
v 0.78403 3.59369 3.39264
v 0.72093 3.68376 3.34974
v 0.59231 3.93624 3.09716
v 0.32116 4.15761 3.09488
v 0.51462 4.67667 3.18145
v 0.74657 3.55700 3.37104
v 0.72093 3.68376 3.34974
v 0.71605 3.65931 3.23478
v 0.72108 3.63928 3.25833
v 0.72108 3.63928 3.25833
v 0.69944 3.60633 3.30436
v 0.72093 3.68376 3.34974
v 0.78403 3.55843 3.36008
v 0.78403 3.59369 3.39264
v 0.74657 3.55700 3.37104
v 0.70807 3.57284 3.35462
v 0.70751 3.63750 3.37030
v 0.72093 3.68376 3.34974
v 0.69944 3.60633 3.30436
v 0.19010 4.60607 2.79057
v 0.74657 3.55700 3.37104
v 0.78403 3.59369 3.39264
v 0.70751 3.63750 3.37030
v 0.70807 3.57284 3.35462
v 0.72093 3.68376 3.34974
v 0.69944 3.60633 3.30436
v 0.63710 3.68615 3.30533
v 0.42607 3.75112 3.11734
v 0.31177 4.02334 2.77047
v 0.38645 3.99189 2.82412
v 0.32116 4.15761 3.09488
v 0.64005 3.63346 3.28484
v 0.32116 4.15761 3.09488
v 0.53220 4.19697 3.03677
v 0.51462 4.67667 3.18145
v 0.70807 3.57284 3.35462
v 0.70751 3.63750 3.37030
v 0.70096 3.51345 3.41503
v 0.38645 3.99189 2.82412
v 0.29759 3.74034 3.11192
v 0.13910 4.01113 2.74678
v 0.41194 3.67069 3.22651
v 0.70096 3.51345 3.41503
v 0.40817 3.75826 3.10532
v 0.66879 3.42951 3.42834
v 0.64005 3.63346 3.28484
v 0.56716 3.72060 3.38667
v 0.63710 3.68615 3.30533
v 0.72093 3.68376 3.34974
v 0.65446 4.07811 3.52577
v 0.51462 4.67667 3.18145
v 0.56400 4.69154 3.05253
v 0.36474 4.73094 3.07567
v 0.14743 4.16073 2.79430
v 0.61859 3.59137 3.74586
v 0.62199 3.40145 3.48667
v 0.64365 3.86778 3.39881
v 0.32113 4.67090 3.25160
v 0.66879 3.42951 3.42834
v 0.62199 3.40145 3.48667
v 0.65446 4.07811 3.52577
v 0.52813 3.79953 3.46216
v 0.64365 3.86778 3.39881
v 0.64005 3.63346 3.28484
v 0.38693 3.73908 3.30287
v 0.56716 3.72060 3.38667
v 0.19010 4.60607 2.79057
v 0.24803 4.50036 2.52951
v 0.17877 4.18544 2.51462
v 0.32113 4.67090 3.25160
v 0.40817 3.75826 3.10532
v 0.42434 3.82864 3.17616
v 0.42607 3.75112 3.11734
v 0.65410 3.46558 3.49102
v 0.41194 3.67069 3.22651
v 0.41194 3.67069 3.22651
v 0.42607 3.75112 3.11734
v 0.42434 3.82864 3.17616
v 0.14743 4.16073 2.79430
v 0.13910 4.01113 2.74678
v 0.31177 4.02334 2.77047
v 0.60067 3.33166 4.19392
v 0.57131 4.22065 3.86993
v 0.38491 3.33498 3.54221
v 0.62199 3.40145 3.48667
v 0.65410 3.46558 3.49102
v 0.52791 3.41703 3.50907
v 0.65446 4.07811 3.52577
v 0.39749 3.88909 3.24497
v 0.38693 3.73908 3.30287
v 0.14743 4.16073 2.79430
v 0.15492 4.20524 2.98712
v 0.52813 3.79953 3.46216
v 0.30258 3.84564 3.23025
v 0.39749 3.88909 3.24497
v 0.42434 3.82864 3.17616
v 0.15492 4.20524 2.98712
v 0.40817 3.75826 3.10532
v 0.29759 3.74034 3.11192
v 0.38491 3.33498 3.54221
v 0.52791 3.41703 3.50907
v 0.65410 3.46558 3.49102
v 0.48422 3.58310 3.74002
v 0.61859 3.59137 3.74586
v 0.14278 4.69914 3.01406
v 0.14278 4.69914 3.01406
v 0.15146 4.68195 3.12594
v 0.22846 3.78309 3.28907
v 0.30258 3.84564 3.23025
v 0.29759 3.74034 3.11192
v 0.31206 3.66943 3.21860
v 0.32076 3.73720 3.27365
v 0.38693 3.73908 3.30287
v 0.31353 3.77885 3.27097
v 0.38491 3.33498 3.54221
v 0.39749 3.88909 3.24497
v 0.32076 3.73720 3.27365
v 0.30258 3.84564 3.23025
v 0.32076 3.73720 3.27365
v 0.52813 3.79953 3.46216
v 0.47092 4.05911 3.50224
v 0.65446 4.07811 3.52577
v 0.31353 3.77885 3.27097
v 0.15146 4.68195 3.12594
v 0.32113 4.67090 3.25160
v 0.15146 4.68195 3.12594
v 0.32116 4.15761 3.09488
v 0.21941 3.65408 3.23737
v 0.32076 3.73720 3.27365
v 0.31206 3.66943 3.21860
v 0.14278 4.69914 3.01406
v -0.02430 3.72441 3.09666
v 0.21941 3.65408 3.23737
v 0.31206 3.66943 3.21860
v 0.15492 4.20524 2.98712
v 0.65446 4.07811 3.52577
v 0.47092 4.05911 3.50224
v 0.38267 4.20865 3.85994
v 0.22846 3.78309 3.28907
v 0.22846 3.78309 3.28907
v 0.43995 3.45818 3.60835
v 0.38491 3.33498 3.54221
v 0.57131 4.22065 3.86993
v 0.48422 3.58310 3.74002
v 0.61859 3.59137 3.74586
v 0.17936 3.56292 3.38791
v 0.22846 3.78309 3.28907
v 0.21941 3.65408 3.23737
v 0.00580 3.54578 3.39119
v 0.17936 3.56292 3.38791
v 0.22218 4.10164 3.42170
v 0.39670 3.68561 3.67945
v 0.43995 3.45818 3.60835
v 0.48422 3.58310 3.74002
v 0.22218 4.10164 3.42170
v 0.43995 3.45818 3.60835
v 0.25657 3.45100 3.45784
v 0.38491 3.33498 3.54221
v 0.28886 3.60066 3.70933
v 0.43995 3.45818 3.60835
v 0.39670 3.68561 3.67945
v 0.57131 4.22065 3.86993
v 0.38267 4.20865 3.85994
v 0.15012 3.61200 3.67803
v 0.18229 3.46693 3.44983
v 0.25657 3.45100 3.45784
v 0.28886 3.60066 3.70933
v 0.43995 3.45818 3.60835
v 0.20261 4.12315 3.50287
v 0.19152 4.16007 3.60713
v 0.38776 3.89610 3.75432
v 0.25657 3.45100 3.45784
v 0.26791 3.31993 3.55350
v 0.38491 3.33498 3.54221
v 0.22218 4.10164 3.42170
v 0.38776 3.89610 3.75432
v 0.17936 3.56292 3.38791
v 0.18229 3.46693 3.44983
v 0.16280 3.59480 3.68723
v 0.26791 3.31993 3.55350
v 0.17936 3.56292 3.38791
v 0.16280 3.59480 3.68723
v 0.15012 3.61200 3.67803
v 0.38267 4.20865 3.85994
v 0.20261 4.12315 3.50287
v 0.18229 3.46693 3.44983
v -0.09645 3.36913 3.51863
v 0.38267 4.20865 3.85994
v -0.01845 3.23404 3.57988
v -0.01560 3.21421 3.76827
v 0.16280 3.59480 3.68723
v 0.19152 4.16007 3.60713
v 0.15012 3.61200 3.67803
v 0.28886 3.60066 3.70933
v 0.38267 4.20865 3.85994
v -0.01845 3.23404 3.57988
v 0.17999 4.22956 3.79711
v 0.17999 4.22956 3.79711
v -0.18894 3.33278 3.45854
v -0.02430 3.72441 3.09666
v -0.22684 3.29367 3.43658
v 0.37440 3.32843 4.08671
v 0.28886 3.60066 3.70933
v 0.15012 3.61200 3.67803
v 0.16280 3.59480 3.68723
v -0.25435 3.59516 2.96224
v 0.42386 3.77203 4.21585
v 0.37440 3.32843 4.08671
v 0.29219 3.32678 4.14391
v 0.17999 4.22956 3.79711
v 0.00580 3.54578 3.39119
v -0.09645 3.36913 3.51863
v -0.04011 2.90156 3.34849
v -0.06792 3.04677 3.40538
v -0.17984 3.11871 3.40642
v -0.11038 3.01156 3.43386
v -0.06792 3.04677 3.40538
v -0.13409 2.82095 3.39779
v -0.07138 3.16500 3.45469
v -0.06791 3.24012 3.50521
v -0.01845 3.23404 3.57988
v -0.06791 3.24012 3.50521
v -0.13409 2.82095 3.39779
v -0.09645 3.36913 3.51863
v -0.07138 3.16500 3.45469
v -0.11038 3.01156 3.43386
v -0.03910 2.91419 3.63263
v 0.25145 3.75409 4.12911
v -0.07138 3.16500 3.45469
v -0.09645 3.36913 3.51863
v -0.07323 2.78827 3.59512
v -0.03254 2.55221 3.55514
v -0.03910 2.91419 3.63263
v -0.03254 2.55221 3.55514
v -0.04665 2.75014 3.79969
v -0.07323 2.78827 3.59512
v -0.22684 3.29367 3.43658
v 0.15951 3.72220 4.21008
v 0.37440 3.32843 4.08671
v 0.25145 3.75409 4.12911
v -0.18894 3.33278 3.45854
v -0.01560 3.21421 3.76827
v 0.42386 3.77203 4.21585
v 0.29472 3.74800 4.38257
v 0.25145 3.75409 4.12911
v -0.01075 3.21388 3.96109
v 0.15951 3.72220 4.21008
v -0.01075 3.21388 3.96109
v 1.08227 3.74779 3.07710
v 0.60292 4.18268 2.73777
v 0.63884 4.12724 2.83347
v 0.62557 3.84331 3.02116
v 0.64005 3.63346 3.28484
v 0.65804 3.68669 2.65357
v 1.42255 2.92373 2.55156
v 1.42279 3.16197 2.67229
v 1.50082 3.78720 2.61471
v 1.42763 3.62545 2.84725
v 1.24986 4.13306 2.57473
v 1.06068 4.05480 2.73542
v 1.08823 4.13569 2.62290
v 1.08150 4.16606 2.76058
v 1.07592 4.21733 2.73222
v 1.01291 4.12623 3.00590
v 1.01580 4.59348 3.06002
v 0.91331 4.58151 3.08403
v 0.69223 4.49403 2.68205
v 0.65323 4.34769 2.84789
v 0.64750 4.33212 2.54390
v 0.64710 4.25063 2.61118
v 0.49688 4.32495 2.63077
v 0.62147 4.53314 2.68241
v 0.41446 4.53247 2.62490
v 0.00010 4.18119 2.48926
v -0.26817 4.06348 2.25626
v -0.27927 3.89206 2.49329
v -0.30374 3.30093 2.06583
v -0.24588 3.45807 2.27970
v -0.28268 3.23891 2.22021
v -0.22716 2.33468 2.88696
v -0.21202 2.54794 2.48949
v -0.03929 2.21529 3.08409
v 0.37475 2.52130 2.60022
v 1.35107 2.32171 2.92851
v 1.35195 2.54235 2.61210
v 1.39267 3.03470 2.62363
v 0.73738 3.10782 3.94097
v 1.13338 2.08540 3.42925
v 1.14772 2.52402 3.49879
v 1.21034 2.06027 4.00581
v 1.16446 3.19595 3.83682
v 0.86474 3.31021 3.54993
v 0.60067 3.33166 4.19392
v 0.37440 3.32843 4.08671
v 0.42386 3.77203 4.21585
v 0.29472 3.74800 4.38257
v 0.15951 3.72220 4.21008
v 0.05647 2.84562 3.83895
v -0.00890 2.09169 3.45110
v -0.04665 2.75014 3.79969
v -0.01075 3.21388 3.96109
v 0.29219 3.32678 4.14391
vt 0.10613 0.33349
vt 0.10920 0.79601
vt 0.12045 0.32126
vt 0.00962 0.90375
vt 0.00962 0.89365
vt 0.01039 0.89773
vt 0.10614 0.32478
vt 0.11441 0.32186
vt 0.09992 0.78066
vt 0.09510 0.77913
vt 0.10608 0.31972
vt 0.12433 0.31997
vt 0.10579 0.31432
vt 0.10171 0.79800
vt 0.29743 0.00936
vt 0.29390 0.01165
vt 0.87125 0.15738
vt 0.84555 0.14803
vt 0.29796 0.01277
vt 0.00636 0.78560
vt 0.00382 0.78773
vt 0.00115 0.78555
vt 0.09783 0.79660
vt 0.09076 0.78971
vt 0.09956 0.80052
vt 0.09703 0.80086
vt 0.53009 0.04580
vt 0.51193 0.04544
vt 0.51865 0.04379
vt 0.00083 0.13561
vt 0.00083 0.14103
vt 0.00067 0.13832
vt 0.47745 0.00341
vt 0.01202 0.29688
vt 0.00386 0.42787
vt 0.00226 0.42861
vt 0.00114 0.42781
vt 0.09374 0.80516
vt 0.02193 0.80300
vt 0.02898 0.80490
vt 0.01754 0.80582
vt 0.48216 0.00515
vt 0.52346 0.04224
vt 0.01754 0.80049
vt 0.47882 0.00541
vt 0.46189 0.00266
vt 0.46449 0.00526
vt 0.45897 0.00535
vt 0.75221 0.00071
vt 0.75221 0.00483
vt 0.75054 0.00068
vt 0.01162 0.30444
vt 0.57166 0.85385
vt 0.38537 0.03411
vt 0.40203 0.03411
vt 0.39375 0.03693
vt 0.99441 0.36171
vt 0.99942 0.36461
vt 0.99058 0.36465
vt 0.32249 0.00463
vt 0.32249 0.01337
vt 0.31933 0.00903
vt 0.16445 0.63783
vt 0.88552 0.01429
vt 0.88737 0.00921
vt 0.88721 0.01881
vt 0.00264 0.34231
vt 0.00386 0.34493
vt 0.00289 0.35004
vt 0.15965 0.60179
vt 0.14285 0.07847
vt 0.13994 0.07341
vt 0.14285 0.07310
vt 0.01266 0.66329
vt 0.00651 0.66361
vt 0.56918 0.84300
vt 0.00886 0.66766
vt 0.57670 0.14941
vt 0.16022 0.63095
vt 0.16209 0.59540
vt 0.16129 0.59153
vt 0.16027 0.61652
vt 0.57787 0.84363
vt 0.16307 0.58101
vt 0.12028 0.07698
vt 0.56143 0.16858
vt 0.56648 0.15132
vt 0.59864 0.17468
vt 0.36827 0.11779
vt 0.37799 0.11062
vt 0.38385 0.11336
vt 0.28909 0.40171
vt 0.27917 0.41702
vt 0.29272 0.38521
vt 0.37669 0.10970
vt 0.64576 0.99508
vt 0.63744 0.99573
vt 0.63588 0.99545
vt 0.30912 0.38089
vt 0.30325 0.38255
vt 0.29577 0.38256
vt 0.55594 0.15298
vt 0.64040 0.99591
vt 0.59415 0.84651
vt 0.59424 0.85532
vt 0.28634 0.39461
vt 0.58956 0.17670
vt 0.56702 0.18436
vt 0.39711 0.11791
vt 0.28851 0.37858
vt 0.43112 0.14729
vt 0.44256 0.15530
vt 0.38993 0.11469
vt 0.28821 0.37298
vt 0.28326 0.36487
vt 0.46053 0.05583
vt 0.45144 0.05583
vt 0.46466 0.05422
vt 0.89643 0.07105
vt 0.91380 0.06967
vt 0.90521 0.07341
vt 0.40836 0.15428
vt 0.89160 0.06980
vt 0.44430 0.05473
vt 0.07896 0.42357
vt 0.05861 0.42413
vt 0.06927 0.41679
vt 0.05879 0.41792
vt 0.87931 0.14677
vt 0.01103 0.29390
vt 0.01450 0.66100
vt 0.13414 0.07342
vt 0.41372 0.15536
vt 0.52741 0.05417
vt 0.53212 0.05588
vt 0.52231 0.05488
vt 0.24809 0.34907
vt 0.26416 0.34042
vt 0.26543 0.32623
vt 0.22582 0.33997
vt 0.36045 0.28941
vt 0.33645 0.31367
vt 0.33495 0.30844
vt 0.81161 0.50592
vt 0.82240 0.52043
vt 0.81084 0.51144
vt 0.84290 0.50906
vt 0.81014 0.51988
vt 0.35357 0.95108
vt 0.35526 0.94149
vt 0.35770 0.95095
vt 0.37235 0.07955
vt 0.37311 0.10304
vt 0.36896 0.09218
vt 0.42329 0.09539
vt 0.44754 0.10191
vt 0.43446 0.10184
vt 0.52862 0.30614
vt 0.42518 0.10152
vt 0.36676 0.10120
vt 0.44815 0.09219
vt 0.43180 0.09357
vt 0.82659 0.52359
vt 0.82820 0.52206
vt 0.36619 0.95070
vt 0.81582 0.53280
vt 0.80986 0.53414
vt 0.82491 0.52546
vt 0.53679 0.32943
vt 0.53763 0.33466
vt 0.51630 0.29859
vt 0.52717 0.30029
vt 0.82249 0.52894
vt 0.33055 0.30335
vt 0.33038 0.29212
vt 0.53594 0.32405
vt 0.81926 0.53021
vt 0.53498 0.31660
vt 0.37203 0.95062
vt 0.53457 0.31165
vt 0.33378 0.27171
vt 0.81447 0.53563
vt 0.53566 0.30606
vt 0.53337 0.29546
vt 0.53882 0.30305
vt 0.53934 0.29056
vt 0.54572 0.29761
vt 0.37677 0.95183
vt 0.55202 0.29298
vt 0.81178 0.54104
vt 0.80941 0.54596
vt 0.39257 0.95148
vt 0.39745 0.94169
vt 0.55396 0.29155
vt 0.80854 0.54750
vt 0.55720 0.27615
vt 0.79141 0.55711
vt 0.56162 0.28671
vt 0.80647 0.55363
vt 0.51201 0.29835
vt 0.50191 0.30713
vt 0.25377 0.66708
vt 0.25762 0.68980
vt 0.25264 0.68164
vt 0.34335 0.98969
vt 0.35199 0.99412
vt 0.34335 0.99831
vt 0.07914 0.86631
vt 0.07997 0.86624
vt 0.07728 0.88079
vt 0.07661 0.85708
vt 0.53141 0.03949
vt 0.53389 0.02955
vt 0.54362 0.03012
vt 0.99237 0.81580
vt 0.98412 0.81002
vt 0.99887 0.81014
vt 0.35145 0.99639
vt 0.01791 0.10684
vt 0.00960 0.10684
vt 0.01787 0.09676
vt 0.00151 0.71907
vt 0.00700 0.71907
vt 0.00258 0.72115
vt 0.70413 0.03492
vt 0.69675 0.04644
vt 0.70321 0.03360
vt 0.69619 0.03364
vt 0.38263 0.00410
vt 0.38609 0.00737
vt 0.38184 0.00983
vt 0.38029 0.01132
vt 0.51529 0.03136
vt 0.51933 0.04164
vt 0.51438 0.04178
vt 0.77872 0.08192
vt 0.77094 0.09443
vt 0.38034 0.00369
vt 0.06597 0.57504
vt 0.01543 0.85508
vt 0.01505 0.85752
vt 0.00932 0.86020
vt 0.69390 0.04605
vt 0.76454 0.08621
vt 0.05627 0.58487
vt 0.97636 0.00794
vt 0.97574 0.00662
vt 0.98240 0.00607
vt 0.06320 0.57422
vt 0.06562 0.57219
vt 0.21217 0.02115
vt 0.22210 0.02456
vt 0.21217 0.02588
vt 0.97207 0.00630
vt 0.64471 0.01516
vt 0.64471 0.02736
vt 0.64043 0.01682
vt 0.00742 0.85919
vt 0.00708 0.85254
vt 0.32538 0.01350
vt 0.32704 0.01098
vt 0.32685 0.01282
vt 0.01205 0.85199
vt 0.03210 0.96216
vt 0.03510 0.96749
vt 0.32542 0.00892
vt 0.22555 0.02583
vt 0.06088 0.57051
vt 0.25456 0.00064
vt 0.25456 0.00286
vt 0.25069 0.00199
vt 0.02930 0.09024
vt 0.02938 0.10286
vt 0.02435 0.10286
vt 0.33021 0.01286
vt 0.33144 0.01173
vt 0.32917 0.00930
vt 0.05562 0.57832
vt 0.02980 0.97012
vt 0.00909 0.30930
vt 0.01032 0.30951
vt 0.00669 0.30935
vt 0.00767 0.01978
vt 0.00931 0.01943
vt 0.02264 0.09057
vt 0.17450 0.00008
vt 0.17544 0.00229
vt 0.17329 0.00058
vt 0.33495 0.01312
vt 0.78704 0.08402
vt 0.78028 0.08146
vt 0.78551 0.08063
vt 0.02503 0.94090
vt 0.03585 0.93304
vt 0.03600 0.93576
vt 0.00739 0.74218
vt 0.00555 0.74034
vt 0.00870 0.74205
vt 0.03637 0.96102
vt 0.05409 0.57415
vt 0.66027 0.04473
vt 0.66390 0.04314
vt 0.66994 0.04499
vt 0.00931 0.01438
vt 0.00867 0.73662
vt 0.45183 0.00108
vt 0.45812 0.00158
vt 0.45759 0.00460
vt 0.76877 0.08043
vt 0.76991 0.08037
vt 0.52680 0.03126
vt 0.67228 0.05581
vt 0.65907 0.05302
vt 0.99827 0.01344
vt 0.99322 0.01344
vt 0.99717 0.01158
vt 0.65689 0.04643
vt 0.53064 0.04050
vt 0.02673 0.95710
vt 0.00703 0.01569
vt 0.00852 0.85116
vt 0.00627 0.01466
vt 0.32696 0.00551
vt 0.00273 0.73806
vt 0.16734 0.00263
vt 0.16943 0.00207
vt 0.16932 0.00643
vt 0.16490 0.07375
vt 0.16646 0.07598
vt 0.15675 0.07465
vt 0.99366 0.59402
vt 0.99719 0.59399
vt 0.99799 0.59661
vt 0.94953 0.00488
vt 0.95075 0.00309
vt 0.95487 0.00459
vt 0.02913 0.95663
vt 0.00417 0.73505
vt 0.00877 0.73541
vt 0.02995 0.49970
vt 0.02795 0.49962
vt 0.03321 0.49858
vt 0.03332 0.49614
vt 0.02421 0.48780
vt 0.00824 0.01123
vt 0.26095 0.22371
vt 0.26150 0.21160
vt 0.26958 0.21160
vt 0.17066 0.00538
vt 0.00442 0.78213
vt 0.00123 0.77800
vt 0.00628 0.77711
vt 0.00276 0.77738
vt 0.26073 0.23013
vt 0.27493 0.24242
vt 0.77520 0.07566
vt 0.59617 0.03181
vt 0.58311 0.03648
vt 0.58275 0.03064
vt 0.95742 0.00491
vt 0.99884 0.59409
vt 0.17652 0.00542
vt 0.21959 0.00229
vt 0.21909 0.00447
vt 0.21671 0.00103
vt 0.00528 0.30528
vt 0.00860 0.30528
vt 0.00559 0.30845
vt 0.21462 0.00330
vt 0.00979 0.30852
vt 0.03151 0.48913
vt 0.58092 0.02567
vt 0.75902 0.24480
vt 0.76313 0.24409
vt 0.75716 0.24560
vt 0.47722 0.00549
vt 0.47175 0.00549
vt 0.47361 0.00201
vt 0.00212 0.18614
vt 0.00360 0.18363
vt 0.00624 0.18637
vt 0.16639 0.00611
vt 0.03622 0.42443
vt 0.04116 0.41737
vt 0.04131 0.43305
vt 0.00688 0.18956
vt 0.59417 0.03701
vt 0.99260 0.70216
vt 0.99569 0.70113
vt 0.99679 0.70220
vt 0.03636 0.95658
vt 0.99785 0.69800
vt 0.00272 0.30700
vt 0.76861 0.24497
vt 0.16324 0.00413
vt 0.44550 0.99453
vt 0.44550 0.99847
vt 0.44445 0.99749
vt 0.78773 0.07997
vt 0.89828 0.30928
vt 0.89937 0.31819
vt 0.88920 0.32278
vt 0.37372 0.00578
vt 0.37386 0.00312
vt 0.37652 0.00668
vt 0.18792 0.99887
vt 0.18671 0.99512
vt 0.18848 0.99533
vt 0.00802 0.48361
vt 0.00711 0.48452
vt 0.00702 0.47758
vt 0.99840 0.70155
vt 0.37941 0.00738
vt 0.99730 0.50898
vt 0.99681 0.50968
vt 0.99557 0.50742
vt 0.16350 0.00541
vt 0.00127 0.78267
vt 0.00386 0.30838
vt 0.01269 0.47546
vt 0.67113 0.05941
vt 0.78596 0.08008
vt 0.00527 0.54728
vt 0.00223 0.54827
vt 0.00251 0.54747
vt 0.00399 0.60348
vt 0.00399 0.60513
vt 0.00151 0.60471
vt 0.99727 0.23321
vt 0.99727 0.23452
vt 0.99622 0.23339
vt 0.78672 0.07912
vt 0.37966 0.00492
vt 0.37835 0.00435
vt 0.99743 0.50733
vt 0.58874 0.02556
vt 0.00346 0.66370
vt 0.00399 0.66515
vt 0.00151 0.66516
vt 0.00226 0.66351
vt 0.03745 0.48547
vt 0.03987 0.48612
vt 0.03787 0.48802
vt 0.75578 0.25178
vt 0.01185 0.41236
vt 0.01447 0.41273
vt 0.01447 0.42156
vt 0.03941 0.48792
vt 0.37148 0.02674
vt 0.37111 0.03279
vt 0.35747 0.03279
vt 0.86711 0.10202
vt 0.86548 0.10123
vt 0.86904 0.10075
vt 0.01299 0.48428
vt 0.75752 0.25666
vt 0.77477 0.25188
vt 0.75144 0.24912
vt 0.03869 0.41747
vt 0.75633 0.25272
vt 0.15105 0.07883
vt 0.02554 0.96609
vt 0.02804 0.96940
vt 0.02554 0.96763
vt 0.86410 0.10160
vt 0.85470 0.09431
vt 0.02014 0.16564
vt 0.02312 0.16331
vt 0.02432 0.16875
vt 0.00704 0.41572
vt 0.86895 0.09123
vt 0.14988 0.07700
vt 0.03232 0.48771
vt 0.01975 0.17123
vt 0.87151 0.10073
vt 0.87289 0.09905
vt 0.02566 0.48704
vt 0.02949 0.97221
vt 0.02557 0.97319
vt 0.00911 0.41056
vt 0.01389 0.40480
vt 0.01325 0.41019
vt 0.03666 0.94100
vt 0.03706 0.93319
vt 0.04541 0.93047
vt 0.35688 0.02721
vt 0.99787 0.13937
vt 0.99512 0.13937
vt 0.99770 0.13877
vt 0.87095 0.09877
vt 0.01105 0.40437
vt 0.00077 0.87729
vt 0.00441 0.87659
vt 0.00487 0.87920
vt 0.06596 0.99502
vt 0.06345 0.99848
vt 0.06010 0.99511
vt 0.86717 0.31863
vt 0.85297 0.08407
vt 0.88174 0.33134
vt 0.00456 0.76390
vt 0.00594 0.76252
vt 0.00586 0.76623
vt 0.02581 0.97988
vt 0.00471 0.88179
vt 0.00063 0.88016
vt 0.04848 0.93752
vt 0.04881 0.94291
vt 0.01640 0.41027
vt 0.00194 0.71097
vt 0.00461 0.70993
vt 0.00528 0.71244
vt 0.00898 0.42075
vt 0.00477 0.71515
vt 0.00172 0.71528
vt 0.14369 0.07401
vt 0.01256 0.75806
vt 0.01256 0.76177
vt 0.00473 0.75774
vt 0.00477 0.76140
vt 0.59546 0.02553
vt 0.03623 0.94770
vt 0.02422 0.17486
vt 0.01603 0.40085
vt 0.11565 0.99505
vt 0.11997 0.99506
vt 0.11906 0.99845
vt 0.35279 0.99473
vt 0.35475 0.99456
vt 0.35271 0.99588
vt 0.00513 0.77075
vt 0.35503 0.99894
vt 0.11670 0.99809
vt 0.35232 0.99800
vt 0.01400 0.40283
vt 0.55412 0.02153
vt 0.55218 0.01447
vt 0.55717 0.01359
vt 0.11601 0.99717
vt 0.03761 0.95047
vt 0.73907 0.03129
vt 0.73958 0.02556
vt 0.75367 0.03075
vt 0.13868 0.99619
vt 0.14129 0.99881
vt 0.13890 0.99879
vt 0.02727 0.17435
vt 0.76373 0.26275
vt 0.75720 0.26336
vt 0.75667 0.26026
vt 0.75309 0.02524
vt 0.01518 0.68620
vt 0.01552 0.68115
vt 0.02634 0.68115
vt 0.54488 0.02343
vt 0.14247 0.99623
vt 0.00946 0.75588
vt 0.01278 0.75349
vt 0.06078 0.36786
vt 0.04329 0.37153
vt 0.04327 0.36786
vt 0.06132 0.32369
vt 0.05736 0.32911
vt 0.05670 0.32537
vt 0.75797 0.27106
vt 0.75551 0.26877
vt 0.54499 0.01404
vt 0.06427 0.88727
vt 0.06422 0.88068
vt 0.06735 0.88469
vt 0.05931 0.33829
vt 0.03754 0.99459
vt 0.04400 0.99459
vt 0.03994 0.99790
vt 0.06830 0.91895
vt 0.06426 0.92377
vt 0.06490 0.91721
vt 0.02557 0.68624
vt 0.06078 0.37301
vt 0.06886 0.32650
vt 0.01339 0.36914
vt 0.01232 0.37092
vt 0.00512 0.36741
vt 0.00642 0.37356
vt 0.01781 0.67400
vt 0.02081 0.67440
vt 0.06505 0.89331
vt 0.75291 0.27364
vt 0.75269 0.27897
vt 0.75092 0.27917
vt 0.01546 0.67394
vt 0.06483 0.91112
vt 0.00880 0.40446
vt 0.00821 0.40140
vt 0.01530 0.39945
vt 0.88001 0.33406
vt 0.00520 0.92831
vt 0.00520 0.92011
vt 0.00581 0.92029
vt 0.06625 0.90221
vt 0.06144 0.33928
vt 0.75497 0.27279
vt 0.75904 0.27783
vt 0.06446 0.90215
vt 0.87857 0.34236
vt 0.87379 0.34074
vt 0.00744 0.36481
vt 0.06406 0.34080
vt 0.99201 0.65943
vt 0.99590 0.65956
vt 0.99740 0.67673
vt 0.75536 0.28348
vt 0.06879 0.34364
vt 0.02624 0.67535
vt 0.04487 0.70627
vt 0.03844 0.69250
vt 0.04646 0.70626
vt 0.86941 0.32715
vt 0.62079 0.00806
vt 0.62079 0.01195
vt 0.62033 0.01152
vt 0.04635 0.69094
vt 0.02952 0.79079
vt 0.02418 0.80226
vt 0.86825 0.33046
vt 0.99160 0.67657
vt 0.03808 0.70191
vt 0.04186 0.70726
vt 0.04039 0.80902
vt 0.03628 0.81033
vt 0.03321 0.80842
vt 0.01544 0.55393
vt 0.01690 0.55309
vt 0.01512 0.55924
vt 0.01625 0.54966
vt 0.01549 0.54731
vt 0.44107 0.92724
vt 0.44375 0.92672
vt 0.44767 0.93250
vt 0.44390 0.92421
vt 0.44571 0.92598
vt 0.44636 0.92939
vt 0.43969 0.93549
vt 0.02429 0.79014
vt 0.03316 0.81188
vt 0.02765 0.81389
vt 0.02179 0.88662
vt 0.02830 0.88777
vt 0.01822 0.88759
vt 0.44285 0.94271
vt 0.43596 0.94154
vt 0.44314 0.93622
vt 0.02829 0.80927
vt 0.07248 0.01604
vt 0.06008 0.01862
vt 0.07217 0.01947
vt 0.02764 0.81073
vt 0.43656 0.92827
vt 0.39382 0.00911
vt 0.39713 0.01385
vt 0.39866 0.00701
vt 0.87023 0.33995
vt 0.40116 0.00939
vt 0.43159 0.92781
vt 0.77765 0.08997
vt 0.00620 0.01939
vt 0.02616 0.96117
vt 0.76861 0.07784
vt 0.74949 0.24229
vt 0.12833 0.32020
vt 0.12833 0.32020
vt 0.12833 0.32020
vt 0.12833 0.32020
vt 0.12833 0.32020
vt 0.12833 0.32020
vt 0.12833 0.32020
vt 0.12833 0.32020
vt 0.12833 0.32020
vt 0.12833 0.32020
vt 0.12833 0.32020
vt 0.12833 0.32020
vt 0.12833 0.32020
vt 0.12833 0.32020
vt 0.12833 0.32020
vt 0.12833 0.32020
vt 0.12833 0.32020
vt 0.12833 0.32020
vt 0.12833 0.32020
vt 0.12833 0.32020
vt 0.12833 0.32020
vt 0.12833 0.32020
vt 0.12833 0.32020
vt 0.12833 0.32020
vt 0.12833 0.32020
vt 0.12833 0.32020
vt 0.12833 0.32020
vt 0.12833 0.32020
vt 0.12833 0.32020
vt 0.12833 0.32020
vt 0.12833 0.32020
vt 0.12833 0.32020
vt 0.12833 0.32020
vt 0.35526 0.94149
vt 0.35526 0.94149
vt 0.35526 0.94149
vt 0.35526 0.94149
vt 0.35526 0.94149
vt 0.35526 0.94149
vt 0.35526 0.94149
vt 0.35526 0.94149
vt 0.35526 0.94149
vt 0.35526 0.94149
vt 0.35526 0.94149
vt 0.89160 0.06980
vt 0.89160 0.06980
vt 0.89160 0.06980
vt 0.89160 0.06980
vt 0.89160 0.06980
vn 0.9748 -0.1240 0.1857
vn 0.4744 0.6260 0.6189
vn 0.9689 -0.1078 0.2225
vn 0.3543 -0.4059 0.8424
vn 0.3543 -0.4059 0.8424
vn 0.3543 -0.4059 0.8424
vn 0.9652 -0.1144 0.2351
vn 0.9063 -0.1822 0.3812
vn 0.6415 0.5250 0.5594
vn 0.5994 0.5384 0.5924
vn 0.9676 -0.1365 0.2123
vn 0.9647 -0.1458 0.2195
vn 0.9670 -0.1407 0.2125
vn 0.2719 0.6345 0.7235
vn 0.9816 -0.1651 0.0957
vn 0.9827 -0.1648 0.0844
vn 0.9506 -0.0463 0.3070
vn 0.9506 -0.0463 0.3070
vn 0.9748 -0.2034 0.0925
vn 0.0935 -0.2362 0.9672
vn 0.0935 -0.2362 0.9672
vn 0.0935 -0.2362 0.9672
vn 0.1082 0.7299 0.6749
vn 0.4819 0.6103 0.6287
vn 0.0149 0.6756 0.7371
vn 0.0598 0.7678 0.6379
vn 0.2632 -0.4090 0.8738
vn 0.3977 -0.4063 0.8227
vn 0.3683 -0.4076 0.8356
vn 0.0026 0.8507 -0.5256
vn 0.0026 0.8507 -0.5256
vn 0.0026 0.8507 -0.5256
vn 0.2964 0.9025 -0.3126
vn -0.9907 -0.0837 -0.1073
vn 0.1553 0.6992 0.6979
vn 0.1553 0.6992 0.6979
vn 0.1553 0.6992 0.6979
vn 0.0925 0.8089 0.5807
vn 0.2001 0.2408 -0.9497
vn 0.2368 0.2582 -0.9366
vn 0.1594 0.2213 -0.9621
vn 0.3537 0.8291 -0.4330
vn 0.1962 -0.4073 0.8920
vn 0.1210 0.2025 -0.9717
vn 0.2918 0.7472 -0.5971
vn 0.1033 0.6761 0.7296
vn 0.1033 0.6761 0.7296
vn 0.1033 0.6761 0.7296
vn 0.5492 0.6413 0.5359
vn 0.5492 0.6413 0.5359
vn 0.5492 0.6413 0.5359
vn -0.9968 -0.0475 -0.0634
vn -0.5100 0.6640 0.5468
vn 0.5726 -0.7767 0.2622
vn 0.5726 -0.7767 0.2622
vn 0.5726 -0.7767 0.2622
vn 0.4233 0.3218 -0.8469
vn 0.4233 0.3218 -0.8469
vn 0.4233 0.3218 -0.8469
vn -0.1408 0.3158 0.9383
vn -0.1408 0.3158 0.9383
vn -0.1408 0.3158 0.9383
vn -0.8089 -0.3939 0.4365
vn -0.8917 0.2149 -0.3983
vn -0.8917 0.2149 -0.3983
vn -0.8917 0.2149 -0.3983
vn -0.1411 0.7559 0.6394
vn -0.1411 0.7559 0.6394
vn -0.1411 0.7559 0.6394
vn -0.6522 0.2903 -0.7003
vn -0.1051 0.7998 0.5911
vn -0.0937 0.8037 0.5876
vn -0.1039 0.7944 0.5984
vn -0.9814 0.1717 -0.0861
vn -0.9920 0.1023 -0.0747
vn -0.6600 0.5925 0.4619
vn -0.9945 0.0778 -0.0707
vn -0.9984 -0.0528 -0.0187
vn -0.8463 -0.2935 0.4445
vn -0.6964 0.2909 -0.6561
vn -0.7457 0.2497 -0.6177
vn -0.8541 -0.2810 0.4375
vn -0.6461 0.6303 0.4305
vn -0.7519 0.2437 -0.6126
vn -0.1257 0.7953 0.5930
vn -0.9989 -0.0163 0.0446
vn -0.9992 -0.0089 0.0399
vn -0.9848 -0.1382 -0.1054
vn -0.0711 -0.3681 0.9271
vn -0.0198 -0.3725 0.9278
vn -0.1330 -0.3605 0.9233
vn -0.3937 0.1285 -0.9102
vn -0.2686 0.1761 -0.9470
vn -0.3502 0.1815 -0.9189
vn -0.0417 -0.3614 0.9315
vn -0.6754 -0.5977 -0.4321
vn -0.6696 -0.4844 -0.5630
vn -0.6683 -0.4753 -0.5721
vn -0.1842 0.2536 -0.9496
vn -0.2451 0.2258 -0.9428
vn -0.4955 0.0889 -0.8640
vn -0.9990 -0.0198 0.0405
vn -0.6696 -0.6539 -0.3521
vn -0.6294 0.6349 0.4481
vn -0.6231 0.6369 0.4540
vn -0.0691 0.2557 -0.9643
vn -0.9979 -0.0527 -0.0365
vn -0.9988 0.0236 0.0448
vn -0.1691 -0.3555 0.9193
vn -0.4790 0.1477 -0.8654
vn -0.7196 -0.3288 0.6117
vn -0.7175 -0.3304 0.6133
vn -0.1799 -0.3600 0.9154
vn -0.5543 0.1450 -0.8196
vn -0.5827 0.1972 -0.7883
vn -0.3180 -0.2123 0.9240
vn -0.3211 -0.2118 0.9230
vn -0.3189 -0.2121 0.9238
vn -0.9849 -0.1203 0.1244
vn -0.9993 -0.0358 -0.0115
vn -0.9988 -0.0140 -0.0464
vn -0.7516 -0.3029 0.5861
vn -0.9805 -0.1329 0.1449
vn -0.3213 -0.2117 0.9230
vn -0.9694 -0.0549 0.2392
vn -0.9612 -0.0811 0.2637
vn -0.9668 -0.0635 0.2474
vn -0.9555 -0.0971 0.2786
vn 0.9506 -0.0463 0.3070
vn -0.9894 -0.1297 -0.0663
vn -0.9747 0.2041 -0.0912
vn -0.1189 0.7979 0.5910
vn -0.7466 -0.3070 0.5902
vn 0.3919 -0.4245 0.8162
vn 0.1012 -0.5226 0.8466
vn 0.4260 -0.4093 0.8069
vn 0.9976 -0.0348 0.0606
vn 0.9957 -0.0813 -0.0447
vn 0.9985 -0.0450 0.0311
vn 0.9937 -0.0102 0.1116
vn 0.0441 -0.8539 -0.5186
vn 0.0124 -0.8376 -0.5462
vn -0.0017 -0.8540 -0.5203
vn 0.4570 -0.4183 0.7849
vn 0.2940 -0.4277 0.8547
vn 0.4512 -0.4243 0.7851
vn 0.4622 -0.4121 0.7852
vn 0.2489 -0.4509 0.8572
vn 0.1015 -0.9538 -0.2829
vn 0.0240 -0.9895 -0.1428
vn 0.0765 -0.9579 -0.2766
vn 0.0886 0.2472 -0.9649
vn 0.1167 0.2638 -0.9575
vn 0.0959 0.2516 -0.9631
vn 0.9748 -0.0937 0.2025
vn 0.9863 -0.0763 0.1465
vn 0.9672 -0.1180 0.2249
vn 0.1055 0.0710 -0.9919
vn 0.9745 -0.0963 0.2027
vn 0.1268 0.2697 -0.9546
vn 0.9877 -0.0688 0.1408
vn 0.8889 -0.0999 0.4470
vn 0.1163 -0.4275 0.8965
vn 0.1199 -0.4256 0.8970
vn 0.0659 -0.9573 -0.2816
vn 0.0390 -0.4795 0.8767
vn -0.0190 -0.5017 0.8649
vn 0.1064 -0.4357 0.8938
vn 0.5090 -0.0230 -0.8605
vn 0.5000 -0.0187 -0.8659
vn -0.0479 0.1557 -0.9867
vn -0.0402 0.1546 -0.9872
vn 0.1018 -0.4190 0.9023
vn -0.0006 -0.8161 -0.5779
vn 0.0055 -0.8341 -0.5516
vn 0.5970 -0.0679 -0.7994
vn 0.1284 -0.3946 0.9098
vn 0.5301 -0.0424 -0.8469
vn 0.0616 -0.9603 -0.2720
vn 0.4180 -0.0497 -0.9071
vn 0.0311 -0.8560 -0.5161
vn -0.0836 -0.4953 0.8648
vn 0.1708 -0.1481 -0.9741
vn 0.1338 0.0199 -0.9908
vn 0.1301 -0.0861 -0.9877
vn 0.1161 -0.0004 -0.9933
vn 0.0658 -0.0250 -0.9976
vn -0.0028 -0.9911 -0.1330
vn -0.0884 -0.0889 -0.9921
vn -0.0430 -0.4868 0.8724
vn -0.0127 -0.4528 0.8915
vn -0.0077 -0.9925 -0.1217
vn -0.0111 -0.9978 -0.0651
vn -0.1567 0.0102 -0.9876
vn -0.0004 -0.4085 0.9128
vn -0.1150 0.0027 -0.9934
vn -0.0020 -0.4012 0.9160
vn -0.2534 0.1057 -0.9615
vn -0.0150 -0.3794 0.9251
vn -0.0303 0.2011 -0.9791
vn -0.0218 0.2228 -0.9747
vn 0.0295 -0.8687 -0.4945
vn 0.0700 -0.8618 -0.5024
vn 0.0902 -0.8578 -0.5060
vn -0.2583 -0.9374 -0.2336
vn -0.3257 -0.9254 -0.1937
vn -0.2811 -0.9340 -0.2204
vn -0.6719 -0.7246 -0.1529
vn -0.6710 -0.7260 -0.1506
vn -0.7288 -0.5914 -0.3451
vn -0.5739 -0.8173 0.0520
vn -0.7735 -0.3818 0.5059
vn -0.7735 -0.3818 0.5059
vn -0.7735 -0.3818 0.5059
vn -0.0097 0.2727 -0.9620
vn -0.0097 0.2727 -0.9620
vn -0.0097 0.2727 -0.9620
vn -0.3942 -0.9066 -0.1506
vn -0.9679 -0.0519 0.2457
vn -0.9679 -0.0519 0.2457
vn -0.9679 -0.0519 0.2457
vn -0.2433 -0.2444 0.9386
vn -0.2433 -0.2444 0.9386
vn -0.2433 -0.2444 0.9386
vn 0.9483 0.1811 0.2605
vn 0.9907 0.0276 0.1331
vn 0.9099 0.2723 0.3132
vn 0.9764 -0.0023 0.2158
vn 0.6440 -0.7639 0.0417
vn 0.6656 -0.7452 0.0410
vn 0.7951 -0.5946 0.1194
vn 0.8459 -0.5107 0.1537
vn 0.5763 0.5821 0.5736
vn 0.5740 0.5971 0.5603
vn 0.5893 0.5893 0.5526
vn 0.0936 0.7657 0.6364
vn 0.0828 0.7703 0.6322
vn 0.6384 -0.7683 0.0458
vn -0.0943 0.9950 0.0343
vn 0.1116 -0.8356 0.5379
vn 0.0034 -0.7600 0.6499
vn 0.1390 -0.9601 0.2429
vn 0.9876 -0.0241 0.1552
vn 0.0889 0.7718 0.6296
vn -0.2858 0.9393 -0.1898
vn 0.5565 -0.4017 0.7272
vn 0.5912 -0.3454 0.7288
vn 0.5210 -0.4543 0.7226
vn -0.1731 0.9814 0.0834
vn -0.0483 0.9573 0.2849
vn 0.9784 -0.0508 0.2004
vn 0.9959 -0.0834 0.0357
vn 0.9813 -0.0540 0.1848
vn 0.6275 -0.2793 0.7268
vn 0.9440 -0.0266 0.3289
vn 0.9440 -0.0266 0.3289
vn 0.9440 -0.0266 0.3289
vn 0.1129 -0.9936 0.0102
vn 0.1365 -0.9806 0.1409
vn -0.4146 -0.9008 0.1294
vn -0.6093 -0.7906 -0.0606
vn -0.5575 -0.8300 -0.0167
vn 0.1608 -0.9412 0.2970
vn -0.9838 0.1118 -0.1404
vn -0.9756 0.2161 -0.0388
vn -0.4137 -0.9009 0.1316
vn 0.9960 -0.0888 0.0070
vn -0.2722 0.9537 0.1281
vn 0.8422 0.2942 0.4519
vn 0.8422 0.2942 0.4519
vn 0.8422 0.2942 0.4519
vn 0.3429 -0.2851 0.8951
vn 0.2996 -0.3088 0.9027
vn 0.3169 -0.2994 0.9000
vn -0.7357 -0.6368 -0.2306
vn -0.9154 -0.3569 -0.1861
vn -0.7490 -0.6376 -0.1802
vn -0.3259 0.9454 -0.0031
vn -0.9774 0.2111 0.0076
vn -0.1612 0.9226 0.3504
vn -0.1612 0.9226 0.3504
vn -0.1612 0.9226 0.3504
vn 0.5059 0.2776 0.8168
vn 0.5704 0.4048 0.7147
vn 0.3570 -0.2771 0.8920
vn -0.4471 0.4812 -0.7540
vn -0.6542 0.5207 -0.5486
vn -0.5107 0.5617 -0.6509
vn -0.9693 -0.1980 -0.1459
vn 0.0119 0.8137 0.5812
vn 0.0312 0.8115 0.5835
vn 0.0233 0.7782 0.6276
vn 0.6698 -0.0175 0.7424
vn 0.6698 -0.0175 0.7424
vn 0.6698 -0.0175 0.7424
vn 0.9884 0.1147 -0.1000
vn 0.9885 -0.1515 -0.0017
vn 0.9972 -0.0714 -0.0240
vn -0.9635 0.1206 -0.2392
vn -0.3538 0.9339 0.0514
vn 0.9840 -0.0241 0.1768
vn 0.9950 -0.0647 -0.0759
vn 0.9851 -0.0509 0.1644
vn 0.5757 0.3841 0.7218
vn 0.9933 -0.0327 -0.1105
vn 0.2603 0.0828 -0.9620
vn 0.2468 0.0916 -0.9647
vn 0.2555 0.0859 -0.9630
vn 0.0800 0.7654 0.6386
vn -0.0988 0.6960 0.7112
vn 0.5626 0.6052 0.5631
vn 0.9583 -0.0705 0.2770
vn 0.9726 -0.0394 0.2291
vn 0.9910 0.0964 -0.0926
vn 0.9910 0.0964 -0.0926
vn 0.9910 0.0964 -0.0926
vn 0.9731 -0.0133 0.2300
vn 0.5543 0.6286 0.5456
vn -0.9457 -0.0416 -0.3224
vn 0.5957 0.4375 0.6736
vn 0.0239 -0.9789 0.2031
vn 0.6000 0.3955 0.6954
vn -0.7237 -0.6764 -0.1366
vn 0.9858 -0.1648 -0.0313
vn 0.9136 -0.3727 0.1625
vn 0.8764 -0.4159 0.2426
vn 0.9160 -0.3721 0.1498
vn 0.2575 0.6055 0.7531
vn 0.2576 0.6870 0.6795
vn 0.2154 0.8207 0.5291
vn 0.7141 0.6837 -0.1507
vn 0.6505 0.7562 -0.0707
vn 0.6395 0.7667 -0.0578
vn -0.1653 -0.6276 -0.7607
vn -0.1582 -0.6421 -0.7501
vn -0.0058 -0.8753 -0.4836
vn -0.9077 -0.0499 -0.4165
vn 0.9902 -0.1091 -0.0871
vn 0.9547 0.1655 -0.2475
vn -0.4978 -0.0387 0.8664
vn -0.4557 -0.2201 0.8625
vn -0.4941 -0.3606 0.7911
vn -0.4651 -0.2559 0.8475
vn -0.4579 -0.1814 0.8703
vn 0.5558 0.3285 0.7637
vn 0.9972 0.0144 -0.0735
vn 0.9965 0.0560 -0.0615
vn 0.9976 0.0307 -0.0621
vn -0.6941 0.5185 -0.4994
vn -0.8472 0.4492 -0.2837
vn -0.8165 0.4451 -0.3676
vn -0.7256 0.4566 -0.5148
vn -0.8027 0.3400 -0.4900
vn 0.9779 -0.0794 -0.1934
vn 0.9976 0.0222 -0.0654
vn 0.0984 0.7809 0.6168
vn 0.0564 0.9213 -0.3847
vn 0.1132 0.9153 -0.3864
vn 0.0737 0.9157 -0.3950
vn 0.0162 -0.8983 -0.4390
vn 0.5334 0.8441 0.0541
vn -0.7970 0.4226 -0.4313
vn 0.3980 -0.8329 0.3846
vn 0.5683 -0.7029 0.4278
vn 0.6511 -0.6163 0.4431
vn -0.1321 0.3886 0.9119
vn -0.2042 0.5324 0.8215
vn -0.1984 0.4177 0.8867
vn 0.7336 -0.5070 0.4525
vn -0.2628 0.5929 0.7612
vn -0.4798 -0.1612 0.8624
vn 0.0229 0.9193 -0.3930
vn -0.1167 0.7435 0.6585
vn -0.0489 0.7691 0.6373
vn -0.0649 0.7702 0.6345
vn -0.3206 0.3426 0.8831
vn -0.3206 0.3426 0.8831
vn -0.3206 0.3426 0.8831
vn -0.8871 -0.0951 0.4517
vn -0.8372 -0.2114 0.5043
vn -0.9225 0.0343 0.3842
vn 0.9339 -0.3353 0.1237
vn -0.0175 0.2160 0.9763
vn -0.0078 0.1838 0.9829
vn -0.0199 0.2240 0.9744
vn -0.9358 0.1342 0.3260
vn 0.1384 0.9181 -0.3714
vn -0.9508 -0.0676 -0.3023
vn -0.9563 -0.0054 -0.2923
vn -0.9673 0.0022 -0.2535
vn -0.9371 0.1219 -0.3270
vn -0.9731 0.0241 -0.2290
vn -0.1994 0.2928 0.9352
vn -0.1021 0.7654 0.6355
vn 0.9243 -0.3198 0.2083
vn -0.9786 -0.1168 0.1694
vn -0.9786 -0.1168 0.1694
vn -0.9786 -0.1168 0.1694
vn 0.0267 0.7291 0.6839
vn 0.3811 0.9240 -0.0304
vn 0.3580 0.9337 -0.0021
vn 0.2084 0.9779 -0.0174
vn 0.0302 0.4579 0.8886
vn -0.0307 0.4344 0.9002
vn -0.1340 0.4158 0.8995
vn -0.7188 -0.6646 0.2038
vn -0.7188 -0.6646 0.2038
vn -0.7188 -0.6646 0.2038
vn 0.5083 -0.6780 0.5310
vn 0.6843 -0.5519 0.4766
vn 0.3337 -0.7451 0.5775
vn -0.9829 -0.0153 -0.1834
vn -0.0743 0.4071 0.9103
vn 0.1482 0.7692 0.6216
vn 0.1484 0.7688 0.6221
vn 0.1480 0.7697 0.6210
vn 0.8914 -0.3075 0.3329
vn -0.9139 0.4033 -0.0469
vn -0.3308 0.2296 0.9154
vn 0.2787 -0.7749 0.5673
vn 0.9342 -0.0712 0.3496
vn 0.1289 0.6346 0.7620
vn -0.9844 -0.1584 0.0755
vn -0.9844 -0.1584 0.0755
vn -0.9844 -0.1584 0.0755
vn -0.9173 0.3574 -0.1754
vn -0.9173 0.3574 -0.1754
vn -0.9173 0.3574 -0.1754
vn 0.2341 -0.6595 0.7143
vn 0.2341 -0.6595 0.7143
vn 0.2341 -0.6595 0.7143
vn -0.0054 0.7134 0.7008
vn -0.0366 0.4085 0.9120
vn -0.0915 0.4264 0.8998
vn 0.1478 0.7700 0.6207
vn -0.0337 0.9229 -0.3835
vn -0.3999 -0.1857 0.8975
vn -0.3638 -0.1680 0.9162
vn -0.4051 -0.1882 0.8947
vn -0.4561 -0.2133 0.8640
vn 0.4506 0.3840 -0.8059
vn 0.4406 0.3541 -0.8249
vn 0.4393 0.3738 -0.8169
vn -0.0609 0.7945 0.6042
vn -0.5685 -0.7542 0.3286
vn -0.5583 -0.7608 0.3311
vn -0.5123 -0.8081 0.2909
vn 0.4325 0.3477 -0.8319
vn 0.3101 -0.2677 0.9122
vn 0.3016 -0.2652 0.9158
vn 0.3268 -0.2728 0.9049
vn 0.9948 -0.0160 0.1012
vn 0.9644 0.0071 0.2645
vn 0.9510 -0.1398 0.2760
vn 0.2504 -0.7977 0.5486
vn -0.0762 0.7960 0.6005
vn -0.1080 0.7755 0.6220
vn -0.0197 0.8062 0.5913
vn 0.0004 0.1566 0.9877
vn -0.0932 0.8105 0.5782
vn 0.1880 0.8353 0.5166
vn -0.6880 0.2291 -0.6886
vn -0.6389 0.3365 -0.6919
vn -0.6675 0.2733 -0.6927
vn 0.8877 -0.0545 0.4572
vn 0.9714 0.0278 0.2359
vn 0.1624 0.9523 0.2584
vn 0.2117 0.9584 0.1916
vn 0.0030 0.9626 0.2711
vn -0.5284 -0.7954 0.2971
vn 0.9704 -0.0126 0.2413
vn 0.0746 0.6946 0.7155
vn 0.5150 0.4161 -0.7494
vn -0.0371 0.9485 0.3144
vn 0.8099 -0.2244 0.5419
vn 0.8516 -0.3519 0.3886
vn 0.5282 0.4188 -0.7387
vn -0.6138 0.3971 -0.6824
vn -0.6126 0.4092 -0.6762
vn 0.2976 0.8017 -0.5183
vn 0.2831 0.7797 -0.5585
vn 0.3268 0.7823 -0.5302
vn -0.9333 0.2142 -0.2882
vn -0.9302 0.2185 -0.2949
vn -0.9777 0.1291 -0.1657
vn 0.3349 -0.2751 0.9012
vn 0.6122 0.4866 -0.6233
vn 0.6122 0.4866 -0.6233
vn 0.6122 0.4866 -0.6233
vn 0.8687 -0.4108 0.2768
vn 0.2747 0.7592 -0.5901
vn 0.9739 -0.0042 0.2267
vn 0.9945 -0.0484 0.0930
vn 0.9705 0.0135 0.2406
vn -0.1093 -0.2953 0.9491
vn -0.1093 -0.2953 0.9491
vn -0.1093 -0.2953 0.9491
vn 0.0447 0.9988 -0.0213
vn 0.9743 0.0292 0.2234
vn -0.0519 0.9984 0.0223
vn 0.2079 -0.1374 0.9685
vn 0.2022 -0.1668 0.9651
vn 0.2258 -0.0365 0.9735
vn -0.6160 0.4300 -0.6601
vn 0.9460 0.0567 0.3194
vn 0.9525 0.0312 0.3032
vn -0.9021 0.4268 -0.0634
vn -0.9991 0.0214 -0.0378
vn 0.3274 0.7500 -0.5748
vn -0.1897 0.7157 -0.6721
vn -0.2099 0.6925 -0.6903
vn -0.2010 0.7094 -0.6756
vn -0.3983 -0.8902 0.2210
vn -0.1754 0.7309 -0.6595
vn -0.1590 0.7408 -0.6526
vn 0.0183 0.6020 0.7983
vn 0.3950 -0.6815 0.6161
vn 0.2747 -0.7836 0.5572
vn 0.1737 -0.8371 0.5187
vn 0.0357 -0.8942 0.4464
vn -0.0241 0.9211 -0.3887
vn -0.9998 0.0129 -0.0195
vn -0.1710 0.9622 0.2120
vn 0.2651 0.7748 -0.5740
vn -0.9889 -0.0759 0.1283
vn -0.9937 -0.0598 0.0950
vn -0.9869 -0.0629 0.1489
vn -0.4036 -0.0111 0.9149
vn -0.2679 0.2517 0.9301
vn -0.2979 0.2860 0.9107
vn 0.2304 -0.0084 0.9730
vn -0.2672 0.4092 0.8724
vn -0.9756 -0.0819 0.2039
vn -0.3344 0.4499 0.8281
vn 0.2580 0.7313 -0.6314
vn 0.3731 0.2214 -0.9009
vn 0.2823 0.2503 -0.9261
vn 0.1074 0.1748 -0.9787
vn -0.9849 -0.1721 -0.0174
vn -0.9970 -0.0285 0.0729
vn -0.5882 -0.2362 0.7735
vn -0.5853 -0.2354 0.7759
vn -0.5784 -0.2335 0.7815
vn -0.1071 0.5045 -0.8567
vn -0.0832 0.4821 -0.8721
vn -0.2531 0.6294 -0.7347
vn -0.1842 0.9692 0.1633
vn -0.0619 0.8208 0.5679
vn -0.0507 0.8595 0.5085
vn -0.0578 0.8406 0.5385
vn -0.5750 -0.2326 0.7844
vn -0.0425 0.9184 -0.3934
vn 0.0834 0.9324 -0.3516
vn 0.0875 0.9279 -0.3624
vn 0.4119 0.3021 -0.8597
vn 0.0288 0.3701 -0.9286
vn 0.3834 -0.6822 0.6226
vn 0.4819 -0.5717 0.6640
vn -0.0383 -0.1945 0.9802
vn -0.0321 -0.1953 0.9802
vn -0.0305 -0.1955 0.9802
vn -0.9818 0.1003 -0.1608
vn -0.9639 0.1050 -0.2449
vn -0.9747 0.1387 -0.1753
vn -0.0370 0.7109 0.7022
vn -0.0602 0.7386 0.6714
vn 0.3428 0.3668 -0.8648
vn -0.7435 -0.2744 0.6098
vn -0.7635 -0.3205 0.5607
vn -0.7509 -0.2980 0.5893
vn -0.9759 0.0464 -0.2134
vn -0.6257 -0.1331 0.7687
vn -0.6257 -0.1331 0.7687
vn -0.6257 -0.1331 0.7687
vn 0.4252 -0.2330 0.8746
vn 0.4057 -0.2016 0.8915
vn 0.4378 -0.2522 0.8630
vn -0.0378 0.9200 -0.3902
vn -0.0395 -0.1943 0.9801
vn -0.9899 0.0740 -0.1206
vn -0.1844 -0.8408 0.5090
vn -0.2864 -0.8067 0.5169
vn -0.2085 -0.8411 0.4990
vn -0.3866 -0.7699 0.5078
vn 0.2236 0.9394 -0.2598
vn 0.2092 0.9233 -0.3222
vn -0.6925 -0.2444 0.6788
vn 0.0064 0.5781 0.8160
vn -0.0030 0.5642 0.8256
vn 0.0021 0.5897 0.8076
vn 0.2271 0.9535 -0.1980
vn 0.4498 -0.2797 0.8482
vn -0.9969 -0.0618 -0.0486
vn -0.9969 -0.0618 -0.0486
vn -0.9969 -0.0618 -0.0486
vn -0.2065 0.9778 0.0345
vn -0.8091 -0.5873 0.0178
vn -0.8091 -0.5873 0.0178
vn -0.8091 -0.5873 0.0178
vn -0.6863 -0.2428 0.6855
vn -0.9821 0.0377 -0.1843
vn 0.0026 0.5454 0.8382
vn -0.0147 0.5081 0.8612
vn 0.4489 -0.2795 0.8487
vn -0.2769 0.9552 0.1048
vn -0.3282 0.9439 0.0356
vn -0.0417 -0.8811 0.4712
vn -0.9929 0.0618 -0.1022
vn -0.2473 -0.1931 0.9496
vn -0.2312 -0.2002 0.9521
vn -0.2964 -0.1709 0.9397
vn -0.0343 0.3962 0.9175
vn -0.9944 0.0643 -0.0839
vn 0.1965 0.9246 -0.3262
vn -0.6898 0.6255 0.3647
vn -0.6177 0.6494 0.4435
vn -0.7206 0.6055 0.3379
vn -0.0169 0.9998 -0.0126
vn -0.1774 0.3591 0.9163
vn -0.1774 0.3591 0.9163
vn -0.1774 0.3591 0.9163
vn -0.6220 0.6440 0.4454
vn 0.4202 0.2102 -0.8827
vn 0.4175 0.2108 -0.8839
vn -0.2678 0.9635 0.0002
vn -0.3076 -0.1658 0.9370
vn -0.5738 0.6724 0.4676
vn -0.5709 0.6714 0.4726
vn -0.2450 -0.3940 0.8859
vn -0.2421 -0.3897 0.8886
vn -0.2822 -0.3414 0.8965
vn -0.6833 0.2353 -0.6912
vn -0.6745 0.2520 -0.6939
vn -0.6619 0.2180 -0.7171
vn -0.8771 0.2763 -0.3928
vn -0.8965 0.2750 -0.3474
vn -0.9359 -0.0176 0.3517
vn -0.8562 -0.1690 0.4882
vn -0.9259 0.1114 0.3610
vn -0.8372 -0.2365 0.4931
vn -0.8788 -0.2375 0.4137
vn -0.8941 0.0267 0.4470
vn -0.9862 0.0836 0.1433
vn 0.4219 0.2097 -0.8820
vn -0.2572 -0.3405 0.9044
vn -0.3787 -0.2434 0.8929
vn -0.2721 -0.2061 0.9399
vn -0.2721 -0.2061 0.9399
vn -0.2721 -0.2061 0.9399
vn -0.9986 -0.0070 -0.0520
vn -0.9995 0.0295 -0.0155
vn -0.9355 0.1598 0.3150
vn -0.4270 -0.2166 0.8779
vn -0.6270 -0.1001 -0.7726
vn -0.5841 -0.0653 -0.8091
vn -0.6358 -0.1075 -0.7644
vn -0.5672 0.0900 0.8187
vn -0.9974 0.0683 0.0237
vn 0.0222 0.9870 0.1595
vn -0.1788 0.9613 0.2094
vn -0.2027 0.9775 0.0581
vn -0.3530 0.9356 0.0072
vn -0.3757 0.9132 0.1579
vn -0.9972 0.0742 0.0086
vn 0.0714 0.7826 0.6184
vn 0.5660 0.4016 0.7200
vn -0.9938 0.0705 -0.0861
vn 0.0953 0.7814 0.6166
vn -0.0444 0.7899 0.6116
vn 0.0000 1.0000 0.0000
vn 0.0000 1.0000 0.0000
vn 0.0000 1.0000 0.0000
vn 0.0000 1.0000 0.0000
vn 0.0000 1.0000 0.0000
vn 0.0000 1.0000 0.0000
vn 0.0000 1.0000 0.0000
vn 0.0000 1.0000 0.0000
vn 0.0000 1.0000 0.0000
vn 0.0000 1.0000 0.0000
vn 0.0000 1.0000 0.0000
vn 0.0000 1.0000 0.0000
vn 0.0000 1.0000 0.0000
vn 0.0000 1.0000 0.0000
vn 0.0000 1.0000 0.0000
vn 0.0000 1.0000 0.0000
vn 0.0000 1.0000 0.0000
vn 0.0000 1.0000 0.0000
vn 0.0000 1.0000 0.0000
vn 0.0000 1.0000 0.0000
vn 0.0000 1.0000 0.0000
vn 0.0000 1.0000 0.0000
vn 0.0000 1.0000 0.0000
vn 0.0000 1.0000 0.0000
vn 0.0000 1.0000 0.0000
vn 0.0000 1.0000 0.0000
vn 0.0000 1.0000 0.0000
vn 0.0000 1.0000 0.0000
vn 0.0000 1.0000 0.0000
vn 0.0000 1.0000 0.0000
vn 0.0000 1.0000 0.0000
vn 0.0000 1.0000 0.0000
vn 0.0000 1.0000 0.0000
vn 0.0000 1.0000 0.0000
vn 0.0000 1.0000 0.0000
vn 0.0000 1.0000 0.0000
vn 0.0000 1.0000 0.0000
vn 0.0000 1.0000 0.0000
vn 0.0000 1.0000 0.0000
vn 0.0000 1.0000 0.0000
vn 0.0000 1.0000 0.0000
vn 0.0000 1.0000 0.0000
vn 0.0000 1.0000 0.0000
vn 0.0000 1.0000 0.0000
vn 0.0000 1.0000 0.0000
vn 0.0000 1.0000 0.0000
vn 0.0000 1.0000 0.0000
vn 0.0000 1.0000 0.0000
vn 0.0000 1.0000 0.0000
f 135/135/135 136/136/136 134/134/134
f 4/4/4 5/5/5 6/6/6
f 7/7/7 3/3/3 1/1/1
f 3/3/3 7/7/7 8/8/8
f 2/2/2 10/10/10 9/9/9
f 11/11/11 12/12/12 8/8/8
f 7/7/7 11/11/11 8/8/8
f 138/138/138 137/137/137 139/139/139
f 137/137/137 140/140/140 139/139/139
f 12/12/12 11/11/11 13/13/13
f 142/142/142 143/143/143 141/141/141
f 17/17/17 18/18/18 129/129/129
f 15/15/15 19/19/19 16/16/16
f 20/20/20 21/21/21 22/22/22
f 144/144/144 145/145/145 146/146/146
f 14/14/14 23/23/23 2/2/2
f 225/225/225 228/228/228 227/227/227
f 229/229/229 230/230/230 231/231/231
f 232/232/232 231/231/231 230/230/230
f 233/233/233 234/234/234 235/235/235
f 23/23/23 24/24/24 2/2/2
f 236/236/236 665/665/665 237/237/237
f 229/229/229 231/231/231 238/238/238
f 14/14/14 25/25/25 23/23/23
f 23/23/23 25/25/25 26/26/26
f 2/2/2 24/24/24 10/10/10
f 144/144/144 147/147/147 145/145/145
f 240/240/240 241/241/241 242/242/242
f 226/226/226 243/243/243 228/228/228
f 148/148/148 146/146/146 145/145/145
f 27/27/27 28/28/28 29/29/29
f 149/149/149 150/150/150 151/151/151
f 237/237/237 244/244/244 236/236/236
f 152/152/152 153/153/153 154/154/154
f 155/155/155 156/156/156 157/157/157
f 200/200/200 158/158/158 201/201/201
f 155/155/155 157/157/157 159/159/159
f 246/246/246 247/247/247 248/248/248
f 154/154/154 153/153/153 160/160/160
f 249/249/249 250/250/250 239/239/239
f 30/30/30 31/31/31 32/32/32
f 155/155/155 161/161/161 156/156/156
f 35/35/35 36/36/36 37/37/37
f 251/251/251 252/252/252 253/253/253
f 246/246/246 254/254/254 247/247/247
f 23/23/23 26/26/26 38/38/38
f 39/39/39 40/40/40 41/41/41
f 255/255/255 256/256/256 257/257/257
f 242/242/242 258/258/258 259/259/259
f 260/260/260 261/261/261 262/262/262
f 242/242/242 263/263/263 240/240/240
f 27/27/27 29/29/29 43/43/43
f 41/41/41 44/44/44 39/39/39
f 266/266/266 261/261/261 260/260/260
f 252/252/252 267/267/267 253/253/253
f 33/33/33 42/42/42 45/45/45
f 268/268/268 250/250/250 249/249/249
f 269/269/269 270/270/270 271/271/271
f 46/46/46 47/47/47 48/48/48
f 272/272/272 273/273/273 274/274/274
f 262/262/262 261/261/261 275/275/275
f 276/276/276 275/275/275 277/277/277
f 278/278/278 249/249/249 245/245/245
f 280/280/280 281/281/281 282/282/282
f 283/283/283 666/666/666 284/284/284
f 261/261/261 277/277/277 275/275/275
f 155/155/155 162/162/162 161/161/161
f 242/242/242 259/259/259 263/263/263
f 272/272/272 274/274/274 285/285/285
f 49/49/49 50/50/50 51/51/51
f 286/286/286 287/287/287 288/288/288
f 289/289/289 276/276/276 277/277/277
f 34/34/34 52/52/52 130/130/130
f 290/290/290 291/291/291 292/292/292
f 293/293/293 294/294/294 295/295/295
f 296/296/296 297/297/297 298/298/298
f 163/163/163 145/145/145 164/164/164
f 264/264/264 299/299/299 265/265/265
f 300/300/300 268/268/268 249/249/249
f 249/249/249 278/278/278 300/300/300
f 301/301/301 302/302/302 303/303/303
f 165/165/165 151/151/151 150/150/150
f 304/304/304 284/284/284 666/666/666
f 166/166/166 167/167/167 148/148/148
f 168/168/168 145/145/145 163/163/163
f 158/158/158 169/169/169 170/170/170
f 298/298/298 297/297/297 305/305/305
f 306/306/306 307/307/307 308/308/308
f 158/158/158 171/171/171 172/172/172
f 145/145/145 168/168/168 173/173/173
f 143/143/143 174/174/174 175/175/175
f 236/236/236 309/309/309 310/310/310
f 309/309/309 236/236/236 244/244/244
f 176/176/176 169/169/169 158/158/158
f 279/279/279 667/667/667 264/264/264
f 311/311/311 234/234/234 233/233/233
f 290/290/290 665/665/665 291/291/291
f 312/312/312 313/313/313 303/303/303
f 665/665/665 236/236/236 291/291/291
f 314/314/314 315/315/315 316/316/316
f 145/145/145 173/173/173 177/177/177
f 303/303/303 317/317/317 301/301/301
f 234/234/234 311/311/311 318/318/318
f 264/264/264 667/667/667 319/319/319
f 200/200/200 171/171/171 158/158/158
f 304/304/304 666/666/666 320/320/320
f 263/263/263 259/259/259 321/321/321
f 304/304/304 320/320/320 322/322/322
f 261/261/261 323/323/323 277/277/277
f 305/305/305 297/297/297 324/324/324
f 176/176/176 158/158/158 178/178/178
f 148/148/148 145/145/145 177/177/177
f 325/325/325 326/326/326 327/327/327
f 328/328/328 329/329/329 330/330/330
f 331/331/331 332/332/332 333/333/333
f 150/150/150 179/179/179 165/165/165
f 166/166/166 148/148/148 177/177/177
f 334/334/334 335/335/335 336/336/336
f 337/337/337 299/299/299 264/264/264
f 338/338/338 339/339/339 305/305/305
f 340/340/340 341/341/341 342/342/342
f 343/343/343 341/341/341 344/344/344
f 178/178/178 158/158/158 180/180/180
f 54/54/54 55/55/55 56/56/56
f 264/264/264 319/319/319 337/337/337
f 304/304/304 322/322/322 345/345/345
f 324/324/324 338/338/338 305/305/305
f 346/346/346 347/347/347 348/348/348
f 349/349/349 288/288/288 287/287/287
f 350/350/350 351/351/351 352/352/352
f 352/352/352 351/351/351 353/353/353
f 354/354/354 346/346/346 355/355/355
f 143/143/143 181/181/181 141/141/141
f 341/341/341 343/343/343 342/342/342
f 356/356/356 236/236/236 310/310/310
f 357/357/357 358/358/358 359/359/359
f 335/335/335 360/360/360 336/336/336
f 332/332/332 361/361/361 333/333/333
f 349/349/349 287/287/287 362/362/362
f 363/363/363 364/364/364 365/365/365
f 366/366/366 367/367/367 368/368/368
f 365/365/365 364/364/364 369/369/369
f 167/167/167 166/166/166 182/182/182
f 180/180/180 158/158/158 183/183/183
f 370/370/370 368/368/368 367/367/367
f 343/343/343 344/344/344 371/371/371
f 372/372/372 357/357/357 359/359/359
f 373/373/373 374/374/374 375/375/375
f 376/376/376 377/377/377 378/378/378
f 356/356/356 310/310/310 668/668/668
f 379/379/379 380/380/380 381/381/381
f 382/382/382 325/325/325 327/327/327
f 383/383/383 384/384/384 385/385/385
f 386/386/386 379/379/379 381/381/381
f 357/357/357 387/387/387 358/358/358
f 158/158/158 184/184/184 185/185/185
f 158/158/158 185/185/185 183/183/183
f 57/57/57 58/58/58 59/59/59
f 388/388/388 389/389/389 390/390/390
f 337/337/337 391/391/391 299/299/299
f 392/392/392 390/390/390 389/389/389
f 184/184/184 158/158/158 172/172/172
f 60/60/60 61/61/61 62/62/62
f 366/366/366 368/368/368 393/393/393
f 355/355/355 346/346/346 348/348/348
f 313/313/313 317/317/317 303/303/303
f 143/143/143 175/175/175 181/181/181
f 394/394/394 375/375/375 374/374/374
f 382/382/382 395/395/395 325/325/325
f 396/396/396 397/397/397 398/398/398
f 399/399/399 290/290/290 292/292/292
f 400/400/400 401/401/401 402/402/402
f 403/403/403 404/404/404 405/405/405
f 406/406/406 407/407/407 408/408/408
f 64/64/64 65/65/65 66/66/66
f 409/409/409 410/410/410 411/411/411
f 390/390/390 392/392/392 412/412/412
f 405/405/405 404/404/404 413/413/413
f 414/414/414 415/415/415 416/416/416
f 382/382/382 417/417/417 395/395/395
f 351/351/351 350/350/350 418/418/418
f 368/368/368 419/419/419 393/393/393
f 420/420/420 409/409/409 411/411/411
f 312/312/312 421/421/421 313/313/313
f 292/292/292 422/422/422 399/399/399
f 423/423/423 424/424/424 425/425/425
f 426/426/426 427/427/427 428/428/428
f 429/429/429 430/430/430 431/431/431
f 399/399/399 422/422/422 432/432/432
f 184/184/184 186/186/186 187/187/187
f 187/187/187 185/185/185 184/184/184
f 404/404/404 433/433/433 413/413/413
f 67/67/67 68/68/68 69/69/69
f 434/434/434 433/433/433 404/404/404
f 435/435/435 414/414/414 416/416/416
f 357/357/357 372/372/372 436/436/436
f 437/437/437 438/438/438 439/439/439
f 437/437/437 439/439/439 440/440/440
f 71/71/71 72/72/72 73/73/73
f 441/441/441 442/442/442 443/443/443
f 375/375/375 444/444/444 669/669/669
f 445/445/445 446/446/446 447/447/447
f 442/442/442 448/448/448 443/443/443
f 449/449/449 450/450/450 451/451/451
f 452/452/452 453/453/453 454/454/454
f 409/409/409 420/420/420 455/455/455
f 456/456/456 394/394/394 457/457/457
f 150/150/150 188/188/188 179/179/179
f 131/131/131 74/74/74 75/75/75
f 189/189/189 187/187/187 186/186/186
f 182/182/182 190/190/190 167/167/167
f 458/458/458 669/669/669 444/444/444
f 383/383/383 459/459/459 384/384/384
f 460/460/460 444/444/444 375/375/375
f 330/330/330 329/329/329 461/461/461
f 462/462/462 463/463/463 464/464/464
f 465/465/465 466/466/466 453/453/453
f 456/456/456 375/375/375 394/394/394
f 467/467/467 468/468/468 469/469/469
f 445/445/445 447/447/447 470/470/470
f 454/454/454 453/453/453 471/471/471
f 74/74/74 77/77/77 75/75/75
f 461/461/461 472/472/472 330/330/330
f 473/473/473 441/441/441 443/443/443
f 467/467/467 469/469/469 474/474/474
f 475/475/475 454/454/454 476/476/476
f 375/375/375 456/456/456 460/460/460
f 191/191/191 167/167/167 190/190/190
f 473/473/473 477/477/477 441/441/441
f 464/464/464 478/478/478 479/479/479
f 480/480/480 481/481/481 482/482/482
f 483/483/483 484/484/484 485/485/485
f 449/449/449 451/451/451 486/486/486
f 487/487/487 488/488/488 489/489/489
f 454/454/454 490/490/490 476/476/476
f 491/491/491 481/481/481 480/480/480
f 454/454/454 471/471/471 490/490/490
f 492/492/492 493/493/493 494/494/494
f 188/188/188 150/150/150 192/192/192
f 464/464/464 463/463/463 478/478/478
f 150/150/150 193/193/193 192/192/192
f 132/132/132 72/72/72 71/71/71
f 495/495/495 496/496/496 497/497/497
f 471/471/471 453/453/453 466/466/466
f 471/471/471 466/466/466 499/499/499
f 189/189/189 186/186/186 194/194/194
f 498/498/498 402/402/402 500/500/500
f 501/501/501 502/502/502 503/503/503
f 479/479/479 478/478/478 504/504/504
f 494/494/494 505/505/505 506/506/506
f 485/485/485 507/507/507 508/508/508
f 509/509/509 482/482/482 481/481/481
f 510/510/510 511/511/511 512/512/512
f 513/513/513 470/470/470 447/447/447
f 514/514/514 515/515/515 510/510/510
f 70/70/70 81/81/81 80/80/80
f 330/330/330 472/472/472 516/516/516
f 517/517/517 518/518/518 519/519/519
f 191/191/191 195/195/195 167/167/167
f 494/494/494 506/506/506 492/492/492
f 512/512/512 514/514/514 510/510/510
f 63/63/63 79/79/79 82/82/82
f 76/76/76 83/83/83 53/53/53
f 519/519/519 518/518/518 520/520/520
f 81/81/81 84/84/84 80/80/80
f 521/521/521 357/357/357 436/436/436
f 485/485/485 522/522/522 483/483/483
f 474/474/474 469/469/469 523/523/523
f 508/508/508 522/522/522 485/485/485
f 194/194/194 186/186/186 196/196/196
f 524/524/524 509/509/509 481/481/481
f 525/525/525 526/526/526 527/527/527
f 528/528/528 529/529/529 530/530/530
f 197/197/197 167/167/167 195/195/195
f 503/503/503 531/531/531 501/501/501
f 532/532/532 530/530/530 529/529/529
f 525/525/525 527/527/527 533/533/533
f 71/71/71 85/85/85 132/132/132
f 532/532/532 534/534/534 530/530/530
f 481/481/481 535/535/535 524/524/524
f 536/536/536 537/537/537 538/538/538
f 525/525/525 533/533/533 539/539/539
f 522/522/522 508/508/508 540/540/540
f 541/541/541 542/542/542 543/543/543
f 544/544/544 545/545/545 546/546/546
f 547/547/547 523/523/523 469/469/469
f 548/548/548 549/549/549 550/550/550
f 551/551/551 543/543/543 542/542/542
f 194/194/194 196/196/196 198/198/198
f 552/552/552 553/553/553 554/554/554
f 536/536/536 555/555/555 537/537/537
f 545/545/545 544/544/544 556/556/556
f 550/550/550 456/456/456 548/548/548
f 517/517/517 519/519/519 557/557/557
f 517/517/517 557/557/557 558/558/558
f 559/559/559 560/560/560 561/561/561
f 562/562/562 563/563/563 564/564/564
f 565/565/565 566/566/566 549/549/549
f 555/555/555 567/567/567 537/537/537
f 202/202/202 203/203/203 204/204/204
f 548/548/548 456/456/456 457/457/457
f 78/78/78 86/86/86 87/87/87
f 568/568/568 569/569/569 570/570/570
f 571/571/571 563/563/563 562/562/562
f 572/572/572 573/573/573 574/574/574
f 197/197/197 195/195/195 199/199/199
f 575/575/575 576/576/576 577/577/577
f 578/578/578 552/552/552 554/554/554
f 579/579/579 560/560/560 559/559/559
f 580/580/580 571/571/571 562/562/562
f 581/581/581 582/582/582 583/583/583
f 565/565/565 549/549/549 548/548/548
f 89/89/89 90/90/90 91/91/91
f 583/583/583 582/582/582 584/584/584
f 205/205/205 206/206/206 207/207/207
f 208/208/208 209/209/209 210/210/210
f 92/92/92 93/93/93 94/94/94
f 89/89/89 95/95/95 90/90/90
f 96/96/96 97/97/97 98/98/98
f 99/99/99 100/100/100 101/101/101
f 87/87/87 86/86/86 102/102/102
f 553/553/553 585/585/585 586/586/586
f 96/96/96 103/103/103 97/97/97
f 568/568/568 570/570/570 587/587/587
f 588/588/588 589/589/589 590/590/590
f 553/553/553 591/591/591 585/585/585
f 211/211/211 209/209/209 208/208/208
f 104/104/104 53/53/53 83/83/83
f 586/586/586 554/554/554 553/553/553
f 577/577/577 592/592/592 575/575/575
f 593/593/593 594/594/594 595/595/595
f 500/500/500 596/596/596 498/498/498
f 597/597/597 598/598/598 599/599/599
f 104/104/104 105/105/105 53/53/53
f 570/570/570 600/600/600 587/587/587
f 601/601/601 571/571/571 580/580/580
f 94/94/94 101/101/101 100/100/100
f 566/566/566 565/565/565 602/602/602
f 93/93/93 106/106/106 94/94/94
f 212/212/212 213/213/213 214/214/214
f 603/603/603 588/588/588 602/602/602
f 78/78/78 107/107/107 108/108/108
f 589/589/589 588/588/588 603/603/603
f 592/592/592 604/604/604 575/575/575
f 605/605/605 606/606/606 596/596/596
f 603/603/603 602/602/602 565/565/565
f 91/91/91 109/109/109 89/89/89
f 101/101/101 94/94/94 110/110/110
f 581/581/581 583/583/583 607/607/607
f 608/608/608 601/601/601 580/580/580
f 133/133/133 111/111/111 112/112/112
f 609/609/609 610/610/610 611/611/611
f 108/108/108 86/86/86 78/78/78
f 107/107/107 78/78/78 88/88/88
f 109/109/109 91/91/91 113/113/113
f 589/589/589 603/603/603 612/612/612
f 580/580/580 613/613/613 608/608/608
f 215/215/215 216/216/216 217/217/217
f 586/586/586 614/614/614 554/554/554
f 615/615/615 616/616/616 617/617/617
f 101/101/101 110/110/110 114/114/114
f 618/618/618 498/498/498 596/596/596
f 619/619/619 620/620/620 621/621/621
f 207/207/207 206/206/206 218/218/218
f 616/616/616 622/622/622 617/617/617
f 219/219/219 220/220/220 221/221/221
f 606/606/606 625/625/625 596/596/596
f 611/611/611 626/626/626 609/609/609
f 627/627/627 616/616/616 615/615/615
f 110/110/110 94/94/94 106/106/106
f 114/114/114 110/110/110 115/115/115
f 222/222/222 223/223/223 224/224/224
f 628/628/628 627/627/627 615/615/615
f 116/116/116 117/117/117 118/118/118
f 629/629/629 630/630/630 631/631/631
f 632/632/632 633/633/633 634/634/634
f 635/635/635 633/633/633 632/632/632
f 119/119/119 120/120/120 121/121/121
f 133/133/133 122/122/122 111/111/111
f 635/635/635 632/632/632 636/636/636
f 637/637/637 638/638/638 639/639/639
f 638/638/638 640/640/640 641/641/641
f 639/639/639 638/638/638 642/642/642
f 640/640/640 638/638/638 637/637/637
f 120/120/120 119/119/119 123/123/123
f 643/643/643 637/637/637 639/639/639
f 644/644/644 623/623/623 624/624/624
f 124/124/124 118/118/118 117/117/117
f 618/618/618 596/596/596 625/625/625
f 630/630/630 645/645/645 631/631/631
f 125/125/125 126/126/126 127/127/127
f 631/631/631 645/645/645 646/646/646
f 126/126/126 128/128/128 127/127/127
f 647/647/647 648/648/648 649/649/649
f 650/650/650 651/651/651 643/643/643
f 652/652/652 643/643/643 639/639/639
f 631/631/631 646/646/646 653/653/653
f 637/637/637 643/643/643 651/651/651
f 654/654/654 656/656/656 655/655/655
f 646/646/646 657/657/657 653/653/653
f 651/651/651 658/658/658 637/637/637
f 661/661/661 660/660/660 659/659/659
f 606/606/606 662/662/662 625/625/625
f 661/661/661 663/663/663 660/660/660
f 664/664/664 658/658/658 651/651/651
f 670/670/670 671/671/671 672/672/672
f 670/670/670 672/672/672 671/671/671
f 670/670/670 672/672/672 673/673/673
f 670/670/670 673/673/673 672/672/672
f 670/670/670 673/673/673 674/674/674
f 670/670/670 674/674/674 673/673/673
f 670/670/670 674/674/674 675/675/675
f 670/670/670 675/675/675 674/674/674
f 670/670/670 675/675/675 676/676/676
f 670/670/670 676/676/676 675/675/675
f 670/670/670 676/676/676 677/677/677
f 670/670/670 677/677/677 676/676/676
f 670/670/670 677/677/677 678/678/678
f 670/670/670 678/678/678 677/677/677
f 670/670/670 678/678/678 679/679/679
f 670/670/670 679/679/679 678/678/678
f 670/670/670 679/679/679 680/680/680
f 670/670/670 680/680/680 679/679/679
f 670/670/670 680/680/680 681/681/681
f 670/670/670 681/681/681 680/680/680
f 670/670/670 681/681/681 682/682/682
f 670/670/670 682/682/682 681/681/681
f 670/670/670 682/682/682 683/683/683
f 670/670/670 683/683/683 682/682/682
f 670/670/670 683/683/683 684/684/684
f 670/670/670 684/684/684 683/683/683
f 670/670/670 684/684/684 685/685/685
f 670/670/670 685/685/685 684/684/684
f 670/670/670 685/685/685 686/686/686
f 670/670/670 686/686/686 685/685/685
f 670/670/670 686/686/686 687/687/687
f 670/670/670 687/687/687 686/686/686
f 670/670/670 687/687/687 688/688/688
f 670/670/670 688/688/688 687/687/687
f 670/670/670 688/688/688 689/689/689
f 670/670/670 689/689/689 688/688/688
f 670/670/670 689/689/689 690/690/690
f 670/670/670 690/690/690 689/689/689
f 670/670/670 690/690/690 691/691/691
f 670/670/670 691/691/691 690/690/690
f 670/670/670 691/691/691 692/692/692
f 670/670/670 692/692/692 691/691/691
f 670/670/670 692/692/692 693/693/693
f 670/670/670 693/693/693 692/692/692
f 670/670/670 693/693/693 694/694/694
f 670/670/670 694/694/694 693/693/693
f 670/670/670 694/694/694 695/695/695
f 670/670/670 695/695/695 694/694/694
f 670/670/670 695/695/695 696/696/696
f 670/670/670 696/696/696 695/695/695
f 670/670/670 696/696/696 697/697/697
f 670/670/670 697/697/697 696/696/696
f 670/670/670 697/697/697 698/698/698
f 670/670/670 698/698/698 697/697/697
f 670/670/670 698/698/698 699/699/699
f 670/670/670 699/699/699 698/698/698
f 670/670/670 699/699/699 700/700/700
f 670/670/670 700/700/700 699/699/699
f 670/670/670 700/700/700 701/701/701
f 670/670/670 701/701/701 700/700/700
f 670/670/670 701/701/701 702/702/702
f 670/670/670 702/702/702 701/701/701
f 670/670/670 702/702/702 671/671/671
f 670/670/670 671/671/671 702/702/702
f 703/703/703 704/704/704 705/705/705
f 703/703/703 705/705/705 704/704/704
f 703/703/703 705/705/705 706/706/706
f 703/703/703 706/706/706 705/705/705
f 703/703/703 706/706/706 707/707/707
f 703/703/703 707/707/707 706/706/706
f 703/703/703 707/707/707 708/708/708
f 703/703/703 708/708/708 707/707/707
f 703/703/703 708/708/708 709/709/709
f 703/703/703 709/709/709 708/708/708
f 703/703/703 709/709/709 710/710/710
f 703/703/703 710/710/710 709/709/709
f 703/703/703 710/710/710 711/711/711
f 703/703/703 711/711/711 710/710/710
f 703/703/703 711/711/711 712/712/712
f 703/703/703 712/712/712 711/711/711
f 703/703/703 712/712/712 713/713/713
f 703/703/703 713/713/713 712/712/712
f 703/703/703 713/713/713 704/704/704
f 703/703/703 704/704/704 713/713/713
f 714/714/714 715/715/715 716/716/716
f 714/714/714 716/716/716 715/715/715
f 714/714/714 716/716/716 717/717/717
f 714/714/714 717/717/717 716/716/716
f 714/714/714 717/717/717 718/718/718
f 714/714/714 718/718/718 717/717/717
f 714/714/714 718/718/718 715/715/715
f 714/714/714 715/715/715 718/718/718
