o leg_right
v 0.07967 0.69692 -0.22399
v 0.04688 0.69577 -0.22139
v 0.07853 0.69822 -0.22930
v -0.01664 0.69815 -0.23222
v 0.05562 0.63536 -0.22553
v 0.04688 0.69577 -0.22139
v 0.03760 0.69540 -0.16568
v 0.02240 0.69167 -0.08675
v 0.02240 0.69543 -0.18164
v 0.04688 0.69577 -0.22139
v -0.01798 0.69774 -0.22817
v 0.04688 0.69577 -0.22139
v 0.01131 0.62063 -0.23072
v -0.01798 0.69774 -0.22817
v 0.07967 0.69692 -0.22399
v 0.25427 0.43984 -0.21348
v 0.25510 0.44157 -0.21607
v 0.23710 0.54818 -0.19123
v 0.23041 0.54728 -0.14292
v 0.24010 0.54747 -0.21493
v 0.24859 0.43984 -0.22557
v 0.23313 0.54824 -0.22461
v 0.25510 0.44157 -0.21607
v 0.24010 0.54747 -0.21493
v 0.23716 0.43994 -0.07363
v 0.22279 0.54722 -0.08310
v 0.23313 0.54824 -0.22461
v 0.22168 0.54893 -0.21727
v 0.24010 0.54747 -0.21493
v 0.22391 0.54826 -0.18261
v 0.23041 0.54728 -0.14292
v 0.23710 0.54818 -0.19123
v 0.23175 0.44158 -0.05504
v 0.21440 0.54552 -0.04875
v 0.22052 0.54860 -0.21937
v 0.21440 0.54552 -0.04875
v 0.21221 0.48667 -0.05370
v 0.23175 0.44158 -0.05504
v 0.20970 0.54540 -0.11322
v 0.22168 0.54893 -0.21727
v 0.20873 0.61189 -0.17345
v 0.22391 0.54826 -0.18261
v 0.20285 0.54723 -0.22169
v 0.22279 0.54722 -0.08310
v 0.20479 0.54631 -0.08495
v 0.21440 0.54552 -0.04875
v 0.19779 0.64721 -0.13048
v 0.20083 0.54611 -0.05291
v 0.20477 0.63470 -0.21889
v 0.20083 0.54611 -0.05291
v 0.18654 0.71777 -0.11856
v 0.22168 0.54893 -0.21727
v 0.20285 0.54723 -0.22169
v 0.20477 0.63470 -0.21889
v 0.21221 0.48667 -0.05370
v 0.20083 0.54611 -0.05291
v 0.20184 0.51902 -0.04779
v 0.19688 0.67397 -0.21923
v 0.18678 0.73246 -0.15431
v 0.20083 0.54611 -0.05291
v 0.20479 0.54631 -0.08495
v 0.19867 0.55319 -0.05129
v 0.19867 0.55319 -0.05129
v 0.19325 0.54430 -0.04897
v 0.24859 0.43984 -0.22557
v 0.22527 0.43848 -0.22700
v 0.23313 0.54824 -0.22461
v 0.20970 0.54540 -0.11322
v 0.18961 0.62059 -0.04973
v 0.13589 0.54155 -0.23689
v 0.19688 0.67397 -0.21923
v 0.16674 0.73485 -0.22355
v 0.17527 0.54144 -0.04974
v 0.16980 0.73452 -0.04680
v 0.14027 0.54344 -0.22928
v 0.19867 0.55319 -0.05129
v 0.17201 0.54327 -0.05368
v 0.19325 0.54430 -0.04897
v 0.18961 0.62059 -0.04973
v 0.09761 0.53669 -0.06311
v 0.10625 0.53563 -0.06020
v 0.17527 0.54144 -0.04974
v 0.19325 0.54430 -0.04897
v 0.17201 0.54327 -0.05368
v 0.13589 0.54155 -0.23689
v 0.16980 0.73452 -0.04680
v 0.16342 0.73016 -0.04617
v 0.14027 0.54344 -0.22928
v 0.12741 0.47255 -0.05918
v 0.07967 0.69692 -0.22399
v 0.11920 0.71734 -0.05358
v 0.10625 0.53563 -0.06020
v 0.09614 0.54210 -0.23198
v 0.10175 0.69870 -0.05652
v 0.09761 0.53669 -0.06311
v 0.09614 0.54210 -0.23198
v 0.07037 0.53846 -0.24237
v 0.09201 0.69836 -0.05743
v 0.07322 0.70120 -0.06044
v 0.10175 0.69870 -0.05652
v 0.08127 0.69355 -0.03943
v 0.09201 0.69836 -0.05743
v 0.09314 0.67121 -0.02650
v 0.09185 0.66971 -0.02712
v 0.09386 0.71121 -0.02089
v 0.08573 0.74047 -0.00757
v 0.09314 0.67121 -0.02650
v 0.06957 0.54008 -0.23170
v 0.04241 0.56165 -0.06972
v 0.06949 0.52963 -0.06629
v 0.09185 0.66971 -0.02712
v 0.09314 0.67121 -0.02650
v 0.03839 0.66376 0.01854
v 0.07503 0.69307 -0.03222
v 0.06949 0.52963 -0.06629
v 0.10625 0.53563 -0.06020
v 0.06949 0.52963 -0.06629
v 0.06982 0.53022 -0.06202
v 0.08127 0.69355 -0.03943
v 0.07322 0.70120 -0.06044
v 0.07541 0.69891 -0.02973
v 0.03839 0.66376 0.01854
v 0.07503 0.69307 -0.03222
v 0.07370 0.49879 -0.24354
v 0.07037 0.53846 -0.24237
v 0.07503 0.69307 -0.03222
v 0.06957 0.54008 -0.23170
v 0.06458 0.57803 -0.22945
v 0.09185 0.66971 -0.02712
v 0.03839 0.66376 0.01854
v 0.00814 0.66405 -0.04221
v 0.07037 0.53846 -0.24237
v 0.05677 0.53340 -0.15755
v 0.06957 0.54008 -0.23170
v 0.06232 0.53727 -0.17873
v 0.06957 0.54008 -0.23170
v 0.06232 0.53727 -0.17873
v 0.06458 0.57803 -0.22945
v 0.05557 0.66892 -0.04591
v 0.04566 0.69499 -0.04475
v 0.04566 0.69499 -0.04475
v 0.04637 0.68411 0.01759
v 0.05562 0.63536 -0.22553
v 0.05485 0.53436 -0.12809
v 0.05562 0.63536 -0.22553
v 0.03760 0.69540 -0.16568
v 0.05485 0.53436 -0.12809
v 0.05557 0.66892 -0.04591
v 0.04688 0.69577 -0.22139
v 0.04241 0.56165 -0.06972
v 0.04651 0.53018 -0.07585
v 0.03240 0.69466 -0.05120
v 0.03240 0.69466 -0.05120
v 0.03093 0.63111 -0.06957
v 0.02226 0.69078 -0.06796
v 0.02226 0.69078 -0.06796
v 0.03093 0.63111 -0.06957
v 0.02953 0.66762 -0.05756
v 0.02145 0.68226 -0.07090
v 0.02240 0.69167 -0.08675
v 0.02953 0.66762 -0.05756
v 0.02105 0.69112 -0.06530
v 0.03093 0.63111 -0.06957
v 0.02226 0.69078 -0.06796
v 0.02145 0.68226 -0.07090
v 0.02953 0.66762 -0.05756
v 0.00814 0.66405 -0.04221
v 0.02573 0.67121 -0.05779
v 0.04688 0.69577 -0.22139
v 0.02240 0.69543 -0.18164
v 0.01209 0.61896 -0.20252
v 0.02573 0.67121 -0.05779
v 0.01597 0.69261 -0.05639
v 0.02240 0.69167 -0.08675
v 0.01209 0.61896 -0.20252
v 0.02240 0.69543 -0.18164
v 0.02105 0.69112 -0.06530
v 0.02145 0.68226 -0.07090
v 0.02226 0.69078 -0.06796
v 0.01209 0.61896 -0.20252
v 0.02145 0.68226 -0.07090
v 0.02105 0.69112 -0.06530
v 0.01597 0.69261 -0.05639
v 0.00807 0.69144 -0.04700
v 0.01597 0.69261 -0.05639
v 0.01209 0.61896 -0.20252
v 0.02105 0.69112 -0.06530
v 0.01290 0.62788 -0.06780
v 0.02145 0.68226 -0.07090
v -0.01181 0.66512 -0.06499
v 0.02105 0.69112 -0.06530
v 0.01120 0.69166 -0.06405
v 0.01379 0.61261 -0.05647
v 0.01684 0.61516 -0.10514
v 0.01249 0.61544 -0.06916
v 0.01120 0.69166 -0.06405
v 0.01379 0.61261 -0.05647
v 0.00626 0.53229 -0.10768
v 0.01684 0.61516 -0.10514
v 0.01279 0.61738 -0.10494
v 0.01131 0.62063 -0.23072
v 0.04688 0.69577 -0.22139
v 0.01209 0.61896 -0.20252
v 0.01279 0.61738 -0.10494
v 0.01249 0.61544 -0.06916
v 0.01368 0.61802 -0.20409
v 0.00742 0.57335 -0.20606
v 0.01127 0.61880 -0.24382
v 0.01131 0.62063 -0.23072
v 0.01131 0.62063 -0.23072
v 0.01209 0.61896 -0.20252
v 0.01368 0.61802 -0.20409
v 0.00626 0.53229 -0.10768
v 0.00814 0.58432 -0.10864
v 0.01684 0.61516 -0.10514
v 0.01279 0.61738 -0.10494
v 0.00742 0.57335 -0.20606
v 0.01368 0.61802 -0.20409
v 0.01209 0.61896 -0.20252
v 0.00710 0.58762 -0.20322
v 0.00814 0.58432 -0.10864
v 0.00722 0.55471 -0.05641
v 0.00456 0.57659 -0.24457
v 0.00516 0.57147 -0.20507
v 0.00456 0.57659 -0.24457
v 0.00742 0.57335 -0.20606
v 0.00516 0.57147 -0.20507
v 0.00045 0.69175 -0.05150
v 0.00334 0.57387 -0.23780
v 0.00710 0.58762 -0.20322
v -0.00181 0.53827 -0.23925
v -0.01412 0.65692 -0.06452
v 0.01290 0.62788 -0.06780
v 0.00062 0.53834 -0.22027
v 0.01131 0.62063 -0.23072
v 0.01127 0.61880 -0.24382
v -0.01913 0.62423 -0.23168
v -0.00135 0.51319 -0.11054
v 0.23041 0.54728 -0.14292
v 0.22279 0.54722 -0.08310
v 0.13589 0.54155 -0.23689
v 0.02105 0.69112 -0.06530
v 0.30493 0.07622 -0.27306
v 0.31033 0.00477 -0.29303
v 0.30473 0.08013 -0.28644
v 0.29915 0.09084 -0.23262
v 0.29856 0.07161 -0.21947
v 0.29988 0.08967 -0.22905
v 0.29993 0.07251 -0.21188
v 0.29993 0.07251 -0.21188
v 0.29856 0.07161 -0.21947
v 0.30493 0.07622 -0.27306
v 0.28075 0.00492 -0.04696
v 0.29054 0.06743 -0.15501
v 0.29054 0.06743 -0.15501
v 0.27792 0.17204 -0.18174
v 0.29054 0.06743 -0.15501
v 0.28833 0.10733 -0.14094
v 0.28946 0.10776 -0.13858
v 0.29045 0.07319 -0.14102
v 0.29045 0.07319 -0.14102
v 0.28846 0.06476 -0.11698
v 0.29054 0.06743 -0.15501
v 0.28352 0.17581 -0.23209
v 0.28009 0.05835 -0.07786
v 0.28075 0.00492 -0.04696
v 0.28009 0.05835 -0.07786
v 0.28838 0.00485 -0.10480
v 0.29045 0.07319 -0.14102
v 0.29054 0.06743 -0.15501
v 0.28804 0.06990 -0.13766
v 0.28594 0.07674 -0.14230
v 0.28840 0.06948 -0.14464
v 0.29054 0.06743 -0.15501
v 0.28840 0.06948 -0.14464
v 0.28804 0.06990 -0.13766
v 0.28946 0.10776 -0.13858
v 0.28446 0.10717 -0.14084
v 0.28594 0.07674 -0.14230
v 0.28443 0.07120 -0.14126
v 0.28840 0.06948 -0.14464
v 0.28594 0.07674 -0.14230
v 0.29045 0.07319 -0.14102
v 0.28355 0.07334 -0.13799
v 0.29045 0.07319 -0.14102
v 0.28594 0.07674 -0.14230
v 0.28833 0.10733 -0.14094
v 0.28946 0.10776 -0.13858
v 0.28833 0.10733 -0.14094
v 0.28446 0.10717 -0.14084
v 0.28804 0.06990 -0.13766
v 0.28846 0.06476 -0.11698
v 0.28009 0.05835 -0.07786
v 0.29054 0.06743 -0.15501
v 0.28443 0.07120 -0.14126
v 0.28446 0.10717 -0.14084
v 0.28076 0.09984 -0.09059
v 0.28355 0.07334 -0.13799
v 0.28077 0.10554 -0.11819
v 0.28355 0.07334 -0.13799
v 0.28076 0.09984 -0.09059
v 0.27886 0.10270 -0.10202
v 0.27232 0.16638 -0.13124
v 0.28077 0.10554 -0.11819
v 0.26744 0.16155 -0.08223
v 0.27886 0.10270 -0.10202
v 0.27605 0.09989 -0.08296
v 0.27693 0.09695 -0.07357
v 0.27792 0.17204 -0.18174
v 0.28352 0.17581 -0.23209
v 0.27122 0.17203 -0.18586
v 0.27421 0.17587 -0.22164
v 0.27693 0.09695 -0.07357
v 0.27993 0.28196 -0.20953
v 0.27706 0.28216 -0.18828
v 0.27605 0.28220 -0.23419
v 0.26850 0.11517 -0.04501
v 0.27993 0.28196 -0.20953
v 0.27605 0.28220 -0.23419
v 0.27503 0.28419 -0.23876
v 0.28075 0.00492 -0.04696
v 0.26850 0.11517 -0.04501
v 0.27827 0.00540 -0.04513
v 0.27605 0.09989 -0.08296
v 0.27175 0.17647 -0.22685
v 0.27314 0.30394 -0.23878
v 0.27503 0.28419 -0.23876
v 0.27365 0.28672 -0.24013
v 0.27314 0.30394 -0.23878
v 0.27232 0.16638 -0.13124
v 0.26257 0.15964 -0.04515
v 0.26943 0.33187 -0.23788
v 0.26081 0.27646 -0.19829
v 0.26323 0.27872 -0.22317
v 0.23713 0.17472 -0.22926
v 0.26840 0.22791 -0.22352
v 0.27175 0.17647 -0.22685
v 0.26840 0.22791 -0.22352
v 0.27421 0.17587 -0.22164
v 0.27175 0.17647 -0.22685
v 0.26946 0.36973 -0.21101
v 0.26081 0.27646 -0.19829
v 0.27122 0.17203 -0.18586
v 0.26176 0.36292 -0.15335
v 0.27706 0.28216 -0.18828
v 0.26461 0.37149 -0.23594
v 0.26946 0.36973 -0.21101
v 0.26461 0.37149 -0.23594
v 0.26297 0.37309 -0.23358
v 0.22614 0.08999 -0.24681
v 0.28352 0.17581 -0.23209
v 0.29915 0.09084 -0.23262
v 0.26744 0.16155 -0.08223
v 0.26176 0.16348 -0.09753
v 0.22962 0.27746 -0.22647
v 0.25381 0.27235 -0.14137
v 0.26464 0.27840 -0.08114
v 0.26323 0.27872 -0.22317
v 0.26257 0.15964 -0.04515
v 0.25850 0.16058 -0.05493
v 0.26943 0.33187 -0.23788
v 0.22962 0.27746 -0.22647
v 0.26323 0.27872 -0.22317
v 0.25415 0.35917 -0.09537
v 0.25381 0.27235 -0.14137
v 0.26176 0.16348 -0.09753
v 0.26464 0.27840 -0.08114
v 0.25457 0.37024 -0.20502
v 0.26176 0.36292 -0.15335
v 0.26946 0.36973 -0.21101
v 0.22471 0.15780 -0.05166
v 0.26850 0.11517 -0.04501
v 0.26257 0.15964 -0.04515
v 0.21572 0.17281 -0.24166
v 0.25034 0.22153 -0.05458
v 0.27503 0.28419 -0.23876
v 0.27605 0.28220 -0.23419
v 0.27365 0.28672 -0.24013
v 0.24565 0.26800 -0.07161
v 0.25242 0.27068 -0.04396
v 0.25850 0.16058 -0.05493
v 0.25289 0.35585 -0.07186
v 0.26297 0.37309 -0.23358
v 0.22165 0.26690 -0.05446
v 0.22279 0.15872 -0.05645
v 0.25850 0.16058 -0.05493
v 0.24465 0.36200 -0.14397
v 0.25415 0.35917 -0.09537
v 0.25028 0.36577 -0.17812
v 0.25024 0.35623 -0.06522
v 0.25510 0.44157 -0.21607
v 0.25427 0.43984 -0.21348
v 0.24859 0.43984 -0.22557
v 0.25289 0.35585 -0.07186
v 0.25415 0.35917 -0.09537
v 0.25024 0.35623 -0.06522
v 0.22471 0.15780 -0.05166
v 0.23993 0.35917 -0.11440
v 0.25242 0.27068 -0.04396
v 0.24303 0.35104 -0.04193
v 0.27365 0.28672 -0.24013
v 0.24521 0.43849 -0.20324
v 0.25427 0.43984 -0.21348
v 0.24466 0.43899 -0.19517
v 0.25457 0.37024 -0.20502
v 0.24466 0.43899 -0.19517
v 0.25028 0.36577 -0.17812
v 0.24977 0.40153 -0.20419
v 0.23800 0.43900 -0.16766
v 0.22279 0.15872 -0.05645
v 0.23505 0.12264 -0.05070
v 0.25427 0.43984 -0.21348
v 0.23041 0.54728 -0.14292
v 0.23716 0.43994 -0.07363
v 0.24977 0.40153 -0.20419
v 0.22753 0.39793 -0.20921
v 0.22278 0.43724 -0.20830
v 0.23713 0.17472 -0.22926
v 0.25034 0.22153 -0.05458
v 0.23182 0.36871 -0.21074
v 0.23310 0.37145 -0.22882
v 0.24284 0.26751 -0.05345
v 0.24284 0.26751 -0.05345
v 0.23716 0.43994 -0.07363
v 0.24565 0.26800 -0.07161
v 0.24521 0.43849 -0.20324
v 0.23800 0.43900 -0.16766
v 0.30473 0.08013 -0.28644
v 0.31033 0.00477 -0.29303
v 0.12573 0.07823 -0.30266
v 0.24465 0.36200 -0.14397
v 0.23335 0.35540 -0.07056
v 0.25024 0.35623 -0.06522
v 0.24284 0.26751 -0.05345
v 0.24188 0.35349 -0.04309
v 0.25242 0.27068 -0.04396
v 0.19600 0.26694 -0.05166
v 0.23614 0.26798 -0.04692
v 0.29915 0.09084 -0.23262
v 0.30473 0.08013 -0.28644
v 0.22614 0.08999 -0.24681
v 0.23614 0.26798 -0.04692
v 0.24521 0.43849 -0.20324
v 0.22527 0.43848 -0.22700
v 0.24859 0.43984 -0.22557
v 0.21572 0.17281 -0.24166
v 0.23043 0.43896 -0.12008
v 0.22661 0.43807 -0.09841
v 0.23993 0.35917 -0.11440
v 0.24188 0.35349 -0.04309
v 0.22866 0.35354 -0.05445
v 0.23175 0.44158 -0.05504
v 0.23142 0.43893 -0.05648
v 0.16451 0.36728 -0.24801
v 0.26297 0.37309 -0.23358
v 0.26461 0.37149 -0.23594
v 0.23142 0.43893 -0.05648
v 0.23043 0.43896 -0.12008
v 0.18166 0.34680 -0.05067
v 0.24303 0.35104 -0.04193
v 0.24188 0.35349 -0.04309
v 0.22165 0.26690 -0.05446
v 0.09794 0.27986 -0.26046
v 0.22279 0.54722 -0.08310
v 0.23310 0.37145 -0.22882
v 0.22856 0.40408 -0.22744
v 0.23182 0.36871 -0.21074
v 0.22753 0.39793 -0.20921
v 0.23335 0.35540 -0.07056
v 0.23175 0.44158 -0.05504
v 0.21952 0.43856 -0.05520
v 0.23142 0.43893 -0.05648
v 0.23182 0.36871 -0.21074
v 0.19788 0.12165 -0.05270
v 0.25457 0.37024 -0.20502
v 0.22278 0.43724 -0.20830
v 0.21952 0.43856 -0.05520
v 0.22866 0.35354 -0.05445
v 0.22661 0.43807 -0.09841
v 0.21221 0.48667 -0.05370
v 0.22278 0.43724 -0.20830
v 0.18357 0.36837 -0.23391
v 0.18357 0.36837 -0.23391
v 0.22856 0.40408 -0.22744
v 0.23310 0.37145 -0.22882
v 0.21952 0.43856 -0.05520
v 0.19913 0.00393 -0.05452
v 0.28075 0.00492 -0.04696
v 0.27827 0.00540 -0.04513
v 0.21560 0.43914 -0.05166
v 0.22866 0.35354 -0.05445
v 0.21952 0.43856 -0.05520
v 0.22527 0.43848 -0.22700
v 0.23505 0.12264 -0.05070
v 0.19699 0.12362 -0.05829
v 0.19788 0.12165 -0.05270
v 0.26461 0.37149 -0.23594
v 0.20878 0.15861 -0.05837
v 0.22527 0.43848 -0.22700
v 0.19013 0.17187 -0.23452
v 0.16376 0.27566 -0.23400
v 0.16451 0.36728 -0.24801
v 0.19195 0.34918 -0.05674
v 0.19699 0.12362 -0.05829
v 0.19600 0.26694 -0.05166
v 0.21221 0.48667 -0.05370
v 0.12573 0.07823 -0.30266
v 0.19013 0.17187 -0.23452
v 0.18166 0.34680 -0.05067
v 0.20184 0.51902 -0.04779
v 0.20878 0.15861 -0.05837
v 0.18704 0.00391 -0.30150
v 0.21560 0.43914 -0.05166
v 0.16473 0.43609 -0.05451
v 0.16917 0.43477 -0.05670
v 0.27827 0.00540 -0.04513
v 0.17196 0.15421 -0.06270
v 0.15553 0.43426 -0.23592
v 0.16473 0.43609 -0.05451
v 0.21560 0.43914 -0.05166
v 0.17196 0.15421 -0.06270
v 0.19195 0.34918 -0.05674
v 0.21560 0.43914 -0.05166
v 0.16917 0.43477 -0.05670
v 0.31033 0.00477 -0.29303
v 0.22866 0.35354 -0.05445
v 0.19913 0.00393 -0.05452
v 0.17196 0.15421 -0.06270
v 0.16376 0.27566 -0.23400
v 0.15545 0.26326 -0.06308
v 0.17486 0.12293 -0.06197
v 0.11328 0.16843 -0.25612
v 0.12741 0.47255 -0.05918
v 0.15545 0.26326 -0.06308
v 0.15839 0.26419 -0.05736
v 0.17486 0.12293 -0.06197
v 0.16451 0.36728 -0.24801
v 0.13926 0.34491 -0.06307
v 0.11328 0.16843 -0.25612
v 0.13781 0.11870 -0.06328
v 0.15839 0.26419 -0.05736
v 0.09794 0.27986 -0.26046
v 0.16002 0.17092 -0.23873
v 0.11018 0.23616 -0.24379
v 0.16193 0.36760 -0.23687
v 0.13781 0.11870 -0.06328
v 0.08698 0.11034 -0.06494
v 0.13926 0.34491 -0.06307
v 0.16193 0.36760 -0.23687
v 0.13209 0.43378 -0.06129
v 0.13209 0.43378 -0.06129
v 0.18704 0.00391 -0.30150
v 0.11736 0.00393 -0.25141
v 0.12595 0.00391 -0.30534
v 0.12144 0.36574 -0.24446
v 0.09271 0.00392 -0.06593
v 0.11771 0.16892 -0.24688
v 0.13589 0.54155 -0.23689
v 0.16002 0.17092 -0.23873
v 0.13314 0.08839 -0.26434
v 0.11906 0.15072 -0.06881
v 0.09032 0.46414 -0.06067
v 0.13503 0.26250 -0.06552
v 0.11771 0.16892 -0.24688
v 0.11737 0.26133 -0.06404
v 0.12144 0.36574 -0.24446
v 0.13209 0.43378 -0.06129
v 0.10983 0.44095 -0.06114
v 0.07227 0.33998 -0.07190
v 0.10976 0.27465 -0.24353
v 0.13314 0.08839 -0.26434
v 0.12395 0.08475 -0.27612
v 0.12494 0.13777 -0.06683
v 0.13372 0.12123 -0.06894
v 0.11737 0.26133 -0.06404
v 0.12595 0.00391 -0.30534
v 0.13781 0.11870 -0.06328
v 0.12494 0.13777 -0.06683
v 0.13372 0.12123 -0.06894
v 0.10666 0.26018 -0.06965
v 0.12349 0.08902 -0.26567
v 0.12395 0.08475 -0.27612
v 0.12573 0.07823 -0.30266
v 0.12410 0.07884 -0.27652
v 0.11546 0.15380 -0.07120
v 0.13503 0.26250 -0.06552
v 0.12215 0.07793 -0.26230
v 0.11546 0.15380 -0.07120
v 0.12349 0.08902 -0.26567
v 0.12410 0.07884 -0.27652
v 0.11925 0.07619 -0.25901
v 0.12215 0.07793 -0.26230
v 0.12349 0.08902 -0.26567
v 0.11924 0.07618 -0.23803
v 0.11328 0.16843 -0.25612
v 0.12573 0.07823 -0.30266
v 0.11924 0.07618 -0.23803
v 0.12494 0.13777 -0.06683
v 0.11906 0.15072 -0.06881
v 0.11546 0.15380 -0.07120
v 0.06824 0.33823 -0.06802
v 0.11736 0.00393 -0.25141
v 0.11925 0.07619 -0.25901
v 0.12573 0.07823 -0.30266
v 0.07227 0.33998 -0.07190
v 0.10976 0.27465 -0.24353
v 0.12595 0.00391 -0.30534
v 0.08698 0.11034 -0.06494
v 0.11018 0.23616 -0.24379
v 0.11771 0.16892 -0.24688
v 0.11606 0.17062 -0.24411
v 0.11116 0.16761 -0.24025
v 0.11451 0.07423 -0.22563
v 0.10503 0.44274 -0.06400
v 0.10666 0.26018 -0.06965
v 0.11451 0.07423 -0.22563
v 0.10267 0.16201 -0.18695
v 0.10692 0.12444 -0.18752
v 0.11116 0.16761 -0.24025
v 0.09065 0.36495 -0.25604
v 0.11240 0.07373 -0.18987
v 0.10889 0.07145 -0.19324
v 0.11240 0.07373 -0.18987
v 0.11360 0.07324 -0.18548
v 0.11240 0.07373 -0.18987
v 0.10653 0.07063 -0.15182
v 0.10984 0.16811 -0.21105
v 0.13209 0.43378 -0.06129
v 0.10983 0.44095 -0.06114
v 0.10503 0.44274 -0.06400
v 0.10984 0.16811 -0.21105
v 0.11606 0.17062 -0.24411
v 0.11116 0.16761 -0.24025
v 0.10889 0.07145 -0.19324
v 0.07738 0.48768 -0.06200
v 0.10625 0.53563 -0.06020
v 0.11360 0.07324 -0.18548
v 0.11116 0.16761 -0.24025
v 0.10645 0.27403 -0.24308
v 0.10653 0.07063 -0.15182
v 0.10459 0.16397 -0.18513
v 0.07273 0.25846 -0.07159
v 0.10463 0.08895 -0.15115
v 0.09271 0.00392 -0.06593
v 0.10653 0.07063 -0.15182
v 0.10267 0.16201 -0.18695
v 0.10211 0.06795 -0.15096
v 0.10983 0.44095 -0.06114
v 0.09032 0.46414 -0.06067
v 0.10503 0.44274 -0.06400
v 0.10459 0.16397 -0.18513
v 0.10122 0.27274 -0.22041
v 0.06824 0.33823 -0.06802
v 0.10120 0.12449 -0.15142
v 0.10459 0.16397 -0.18513
v 0.10267 0.16201 -0.18695
v 0.10692 0.12444 -0.18752
v 0.10645 0.27403 -0.24308
v 0.10653 0.07063 -0.15182
v 0.10211 0.06795 -0.15096
v 0.10463 0.08895 -0.15115
v 0.09712 0.12503 -0.14903
v 0.10211 0.06795 -0.15096
v 0.10120 0.12449 -0.15142
v 0.10645 0.27403 -0.24308
v 0.09746 0.12452 -0.13235
v 0.08792 0.26699 -0.14775
v 0.10122 0.27274 -0.22041
v 0.09794 0.27986 -0.26046
v 0.10645 0.27403 -0.24308
v 0.08412 0.27253 -0.17700
v 0.09271 0.00392 -0.06593
v 0.07710 0.25797 -0.07407
v 0.09065 0.36495 -0.25604
v 0.09746 0.12452 -0.13235
v 0.10120 0.12449 -0.15142
v 0.09712 0.12503 -0.14903
v 0.08698 0.11034 -0.06494
v 0.09712 0.12503 -0.14903
v 0.07710 0.25797 -0.07407
v 0.09035 0.36508 -0.25061
v 0.11546 0.15380 -0.07120
v 0.08974 0.11553 -0.07617
v 0.13372 0.12123 -0.06894
v 0.08331 0.18803 -0.07555
v 0.07273 0.25846 -0.07159
v 0.09035 0.36508 -0.25061
v 0.07940 0.45207 -0.24545
v 0.08974 0.11553 -0.07617
v 0.08974 0.11553 -0.07617
v 0.08974 0.11553 -0.07617
v 0.09746 0.12452 -0.13235
v 0.09035 0.36508 -0.25061
v 0.09065 0.36495 -0.25604
v 0.08850 0.36309 -0.24840
v 0.08792 0.26699 -0.14775
v 0.09794 0.27986 -0.26046
v 0.08412 0.27253 -0.17700
v 0.09065 0.36495 -0.25604
v 0.09032 0.46414 -0.06067
v 0.08130 0.47885 -0.06587
v 0.10503 0.44274 -0.06400
v 0.08331 0.18803 -0.07555
v 0.08850 0.36309 -0.24840
v 0.06783 0.33850 -0.08147
v 0.07940 0.45207 -0.24545
v 0.09035 0.36508 -0.25061
v 0.08850 0.36309 -0.24840
v 0.07843 0.26036 -0.08836
v 0.07738 0.48768 -0.06200
v 0.05377 0.47410 -0.07168
v 0.07843 0.26036 -0.08836
v 0.07710 0.25797 -0.07407
v 0.07661 0.48940 -0.06601
v 0.08130 0.47885 -0.06587
v 0.07370 0.49879 -0.24354
v 0.06982 0.53022 -0.06202
v 0.07370 0.49879 -0.24354
v 0.07940 0.45207 -0.24545
v 0.05677 0.53340 -0.15755
v 0.06982 0.53022 -0.06202
v 0.07273 0.25846 -0.07159
v 0.06949 0.52963 -0.06629
v 0.07661 0.48940 -0.06601
v 0.06949 0.52963 -0.06629
v 0.04241 0.56165 -0.06972
v 0.07037 0.53846 -0.24237
v 0.06612 0.38131 -0.07831
v 0.06783 0.33850 -0.08147
v 0.07227 0.33998 -0.07190
v 0.06824 0.33823 -0.06802
v 0.05377 0.47410 -0.07168
v 0.06783 0.33850 -0.08147
v 0.05772 0.42610 -0.08070
v 0.05772 0.42610 -0.08070
v 0.06139 0.41903 -0.07832
v 0.06139 0.41903 -0.07832
v 0.05739 0.44894 -0.07779
v 0.05739 0.44894 -0.07779
v 0.04552 0.52782 -0.07777
v 0.04552 0.52782 -0.07777
v 0.05485 0.53436 -0.12809
v 0.04552 0.52782 -0.07777
v 0.04651 0.53018 -0.07585
v 0.04651 0.53018 -0.07585
v 0.04651 0.53018 -0.07585
v 0.04241 0.56165 -0.06972
v 0.00626 0.53229 -0.10768
v -0.00135 0.51319 -0.11054
v 0.00814 0.58432 -0.10864
v -0.00552 0.47556 -0.11003
v 0.00516 0.57147 -0.20507
v 0.00710 0.58762 -0.20322
v 0.00626 0.53229 -0.10768
v 0.00722 0.55471 -0.05641
v -0.00216 0.47496 -0.10882
v 0.00062 0.53834 -0.22027
v 0.00248 0.53394 -0.22163
v -0.00181 0.53827 -0.23925
v 0.00057 0.53682 -0.24927
v -0.00135 0.51319 -0.11054
v -0.00330 0.47313 -0.05741
v 0.30473 0.08013 -0.28644
v 0.30493 0.07622 -0.27306
v 0.28009 0.05835 -0.07786
v 0.28075 0.00492 -0.04696
v 0.23716 0.43994 -0.07363
v 0.20184 0.51902 -0.04779
v 0.05677 0.53340 -0.15755
v 0.00062 0.53834 -0.22027
v 0.01433 0.65816 0.03974
v 0.03839 0.66376 0.01854
v 0.04637 0.68411 0.01759
v 0.01809 0.73468 0.06373
v 0.00807 0.69144 -0.04700
v 0.00814 0.66405 -0.04221
v 0.00662 0.67595 -0.04313
v 0.00807 0.69144 -0.04700
v 0.00045 0.69175 -0.05150
v 0.01597 0.69261 -0.05639
v 0.00293 0.67145 -0.04060
v 0.00807 0.69144 -0.04700
v 0.00662 0.67595 -0.04313
v 0.00045 0.69175 -0.05150
v -0.00203 0.67624 -0.05115
v 0.00662 0.67595 -0.04313
v 0.00293 0.67145 -0.04060
v -0.00203 0.67624 -0.05115
v 0.01120 0.69166 -0.06405
v -0.00615 0.69074 -0.06294
v 0.00045 0.69175 -0.05150
v 0.03839 0.66376 0.01854
v 0.01433 0.65816 0.03974
v 0.00814 0.66405 -0.04221
v -0.01670 0.65550 0.01206
v 0.28307 0.02271 -0.07654
v 0.28009 0.05835 -0.07786
v 0.28838 0.00485 -0.10480
v 0.28075 0.00492 -0.04696
v 0.04172 0.64514 -0.10666
v 0.18678 0.73246 -0.15431
v 0.19688 0.67397 -0.21923
v 0.16674 0.73485 -0.22355
v 0.07967 0.69692 -0.22399
v 0.07853 0.69822 -0.22930
v -0.01664 0.69815 -0.23222
v -0.01798 0.69774 -0.22817
v 0.01131 0.62063 -0.23072
v -0.01913 0.62423 -0.23168
v 0.01127 0.61880 -0.24382
v 0.00456 0.57659 -0.24457
v 0.00334 0.57387 -0.23780
v -0.00181 0.53827 -0.23925
v 0.00057 0.53682 -0.24927
v 0.00248 0.53394 -0.22163
v 0.00062 0.53834 -0.22027
v -0.00552 0.47556 -0.11003
v -0.00135 0.51319 -0.11054
v 0.00626 0.53229 -0.10768
v -0.00216 0.47496 -0.10882
v -0.00330 0.47313 -0.05741
v 0.00722 0.55471 -0.05641
v 0.01379 0.61261 -0.05647
v 0.01249 0.61544 -0.06916
v 0.01290 0.62788 -0.06780
v -0.01412 0.65692 -0.06452
v 0.02105 0.69112 -0.06530
v -0.01181 0.66512 -0.06499
v 0.01120 0.69166 -0.06405
v -0.00615 0.69074 -0.06294
v 0.00045 0.69175 -0.05150
v -0.00203 0.67624 -0.05115
v 0.00293 0.67145 -0.04060
v 0.00814 0.66405 -0.04221
v -0.01670 0.65550 0.01206
v 0.01433 0.65816 0.03974
v 0.01809 0.73468 0.06373
v 0.04637 0.68411 0.01759
v 0.08573 0.74047 -0.00757
v 0.09314 0.67121 -0.02650
v 0.09386 0.71121 -0.02089
v 0.07503 0.69307 -0.03222
v 0.07541 0.69891 -0.02973
v 0.08127 0.69355 -0.03943
v 0.10175 0.69870 -0.05652
v 0.11920 0.71734 -0.05358
v 0.16342 0.73016 -0.04617
v 0.16980 0.73452 -0.04680
v 0.18654 0.71777 -0.11856
vt 0.13175 0.15661
vt 0.13014 0.14530
vt 0.13363 0.15611
vt 0.13273 0.12306
vt 0.07550 0.67231
vt 0.07550 0.69355
vt 0.58150 0.87173
vt 0.55356 0.87173
vt 0.58593 0.86550
vt 0.60110 0.87123
vt 0.45368 0.91317
vt 0.46068 0.89163
vt 0.48226 0.91108
vt 0.13130 0.12267
vt 0.06414 0.69226
vt 0.33679 0.14770
vt 0.33621 0.14858
vt 0.30139 0.13860
vt 0.30219 0.12269
vt 0.30135 0.14640
vt 0.14622 0.48535
vt 0.14579 0.44959
vt 0.15000 0.48502
vt 0.14967 0.45009
vt 0.33672 0.14108
vt 0.32119 0.10917
vt 0.35420 0.18996
vt 0.35760 0.19282
vt 0.35152 0.19280
vt 0.35541 0.20395
vt 0.35165 0.21653
vt 0.35150 0.20060
vt 0.13834 0.46886
vt 0.14945 0.43622
vt 0.35807 0.19218
vt 0.15241 0.65373
vt 0.14882 0.63477
vt 0.15297 0.61926
vt 0.35712 0.22703
vt 0.90903 0.20679
vt 0.92922 0.22222
vt 0.90804 0.21809
vt 0.36390 0.19210
vt 0.35156 0.23623
vt 0.35747 0.23640
vt 0.35282 0.24772
vt 0.94050 0.23690
vt 0.14783 0.65451
vt 0.93757 0.20781
vt 0.35740 0.24694
vt 0.96352 0.24203
vt 0.68162 0.22088
vt 0.68107 0.22719
vt 0.65308 0.22142
vt 0.58845 0.03016
vt 0.58722 0.04988
vt 0.58554 0.04103
vt 0.95064 0.20839
vt 0.96886 0.23059
vt 0.90651 0.26112
vt 0.90691 0.25058
vt 0.90889 0.26181
vt 0.58668 0.05230
vt 0.58438 0.04968
vt 0.50269 0.09173
vt 0.50568 0.08470
vt 0.53666 0.10292
vt 0.90683 0.24121
vt 0.93105 0.26332
vt 0.38628 0.18972
vt 0.64000 0.22167
vt 0.61868 0.22795
vt 0.57843 0.04991
vt 0.96872 0.26618
vt 0.67865 0.24767
vt 0.43036 0.64033
vt 0.42107 0.64110
vt 0.42758 0.63823
vt 0.43712 0.66149
vt 0.39800 0.64958
vt 0.55569 0.05243
vt 0.60324 0.09954
vt 0.59732 0.09902
vt 0.60438 0.09817
vt 0.54886 0.07325
vt 0.44731 0.69786
vt 0.44481 0.69748
vt 0.38453 0.19207
vt 0.55849 0.03087
vt 0.62576 0.25815
vt 0.42977 0.69989
vt 0.62610 0.09856
vt 0.39894 0.19299
vt 0.42195 0.69682
vt 0.62896 0.09766
vt 0.67653 0.26196
vt 0.40776 0.19053
vt 0.41901 0.69808
vt 0.41378 0.70156
vt 0.98349 0.37047
vt 0.99036 0.37608
vt 0.98377 0.37365
vt 0.25725 0.89608
vt 0.25658 0.89618
vt 0.26593 0.88614
vt 0.12282 0.62490
vt 0.13305 0.60366
vt 0.40758 0.19406
vt 0.38502 0.66467
vt 0.38865 0.65142
vt 0.68082 0.93462
vt 0.68106 0.93525
vt 0.65778 0.93473
vt 0.25664 0.88663
vt 0.63842 0.09872
vt 0.28688 0.00457
vt 0.29921 0.00457
vt 0.29884 0.00594
vt 0.07694 0.29944
vt 0.98362 0.37993
vt 0.07311 0.30089
vt 0.11084 0.59668
vt 0.07386 0.29895
vt 0.07650 0.15000
vt 0.06414 0.14598
vt 0.99298 0.37776
vt 0.67561 0.27061
vt 0.66311 0.26999
vt 0.19438 0.93936
vt 0.19996 0.91700
vt 0.21953 0.92740
vt 0.16551 0.55323
vt 0.16693 0.58130
vt 0.16490 0.55671
vt 0.16547 0.57419
vt 0.35622 0.61981
vt 0.35622 0.63729
vt 0.34370 0.62011
vt 0.20760 0.93748
vt 0.99052 0.38792
vt 0.24869 0.87985
vt 0.11159 0.60379
vt 0.32472 0.62079
vt 0.16618 0.59091
vt 0.64412 0.26951
vt 0.30385 0.63990
vt 0.35627 0.65404
vt 0.24569 0.88846
vt 0.30476 0.62148
vt 0.34626 0.67298
vt 0.35669 0.67136
vt 0.24476 0.87706
vt 0.98926 0.39257
vt 0.32328 0.67236
vt 0.98454 0.39707
vt 0.39710 0.70562
vt 0.39129 0.68679
vt 0.23801 0.88318
vt 0.30630 0.67150
vt 0.30347 0.66618
vt 0.21674 0.93562
vt 0.98549 0.39726
vt 0.41576 0.95926
vt 0.39606 0.95926
vt 0.39880 0.95816
vt 0.01435 0.76928
vt 0.00567 0.76961
vt 0.01349 0.76780
vt 0.10182 0.34578
vt 0.11079 0.33345
vt 0.12941 0.35174
vt 0.23780 0.88148
vt 0.23994 0.87409
vt 0.26396 0.43119
vt 0.25647 0.38705
vt 0.27707 0.40308
vt 0.00396 0.92431
vt 0.00054 0.92431
vt 0.00339 0.92354
vt 0.29872 0.35204
vt 0.29872 0.39983
vt 0.29688 0.40272
vt 0.98874 0.39821
vt 0.00729 0.76067
vt 0.01131 0.76042
vt 0.36862 0.45704
vt 0.37293 0.40651
vt 0.39000 0.41848
vt 0.25911 0.43477
vt 0.93977 0.98532
vt 0.92609 0.98532
vt 0.92851 0.98315
vt 0.86181 0.97638
vt 0.84589 0.97731
vt 0.85761 0.97564
vt 0.98664 0.40030
vt 0.11397 0.29467
vt 0.12912 0.26739
vt 0.12992 0.29467
vt 0.84591 0.97580
vt 0.99898 0.89495
vt 0.97299 0.90339
vt 0.99552 0.88640
vt 0.38631 0.43053
vt 0.39317 0.42105
vt 0.07919 0.96898
vt 0.09393 0.96898
vt 0.07960 0.98197
vt 0.07874 0.97774
vt 0.50386 0.99981
vt 0.49463 0.99981
vt 0.49512 0.99918
vt 0.10841 0.57865
vt 0.11002 0.59557
vt 0.10819 0.60594
vt 0.10958 0.60654
vt 0.68002 0.98091
vt 0.69476 0.98061
vt 0.69503 0.98135
vt 0.68468 0.98186
vt 0.39481 0.43746
vt 0.11282 0.27567
vt 0.09356 0.98163
vt 0.67934 0.98165
vt 0.03292 0.56926
vt 0.02068 0.57248
vt 0.02013 0.57164
vt 0.99142 0.40281
vt 0.03053 0.56896
vt 0.37720 0.46286
vt 0.02732 0.55765
vt 0.84528 0.94621
vt 0.83693 0.93626
vt 0.02142 0.55971
vt 0.27218 0.53179
vt 0.26786 0.53179
vt 0.27199 0.52178
vt 0.41416 0.45069
vt 0.30292 0.11652
vt 0.13834 0.43304
vt 0.07147 0.12578
vt 0.85777 0.93617
vt 0.26536 0.38910
vt 0.28070 0.39474
vt 0.26449 0.39165
vt 0.63471 0.55587
vt 0.26761 0.37885
vt 0.63492 0.55484
vt 0.63865 0.55142
vt 0.28041 0.92414
vt 0.27888 0.92471
vt 0.26746 0.92471
vt 0.28206 0.34600
vt 0.26696 0.36584
vt 0.29260 0.92462
vt 0.61973 0.52572
vt 0.64074 0.53537
vt 0.46777 0.00273
vt 0.46787 0.00328
vt 0.46056 0.00301
vt 0.66732 0.48729
vt 0.66214 0.49104
vt 0.67042 0.48418
vt 0.61136 0.54424
vt 0.26640 0.35012
vt 0.03087 0.31081
vt 0.03087 0.32382
vt 0.02018 0.31689
vt 0.00079 0.44049
vt 0.00387 0.44131
vt 0.00014 0.44139
vt 0.64212 0.53109
vt 0.64268 0.53332
vt 0.00481 0.96351
vt 0.00256 0.96317
vt 0.00117 0.96267
vt 0.66391 0.49205
vt 0.64004 0.52443
vt 0.99666 0.17606
vt 0.99745 0.17511
vt 0.99834 0.17586
vt 0.99664 0.23132
vt 0.99786 0.23153
vt 0.99666 0.23258
vt 0.51239 0.00190
vt 0.51155 0.00281
vt 0.50518 0.00169
vt 0.37170 0.98561
vt 0.37216 0.98592
vt 0.37202 0.98673
vt 0.99786 0.23265
vt 0.64089 0.97010
vt 0.64940 0.97084
vt 0.63288 0.97083
vt 0.00154 0.96371
vt 0.50513 0.00250
vt 0.65443 0.50249
vt 0.99667 0.17479
vt 0.36717 0.98686
vt 0.00070 0.96376
vt 0.36129 0.98603
vt 0.36369 0.98679
vt 0.62219 0.51707
vt 0.64268 0.51640
vt 0.62219 0.50386
vt 0.64423 0.51174
vt 0.35958 0.98685
vt 0.35757 0.98631
vt 0.23189 0.43657
vt 0.23816 0.44525
vt 0.23109 0.43802
vt 0.23536 0.44431
vt 0.64794 0.50219
vt 0.19115 0.72442
vt 0.19115 0.71990
vt 0.19266 0.72946
vt 0.64361 0.49816
vt 0.65039 0.12494
vt 0.65565 0.12468
vt 0.65665 0.12505
vt 0.71829 0.92711
vt 0.74167 0.92711
vt 0.71845 0.92774
vt 0.64720 0.50671
vt 0.23545 0.44553
vt 0.65696 0.12922
vt 0.45188 0.11802
vt 0.45239 0.11759
vt 0.45604 0.11759
vt 0.22557 0.42784
vt 0.62257 0.49347
vt 0.65724 0.13516
vt 0.19503 0.72149
vt 0.19512 0.72678
vt 0.15500 0.84391
vt 0.14411 0.83669
vt 0.15500 0.83659
vt 0.17504 0.37868
vt 0.16406 0.37990
vt 0.16415 0.37868
vt 0.65211 0.14349
vt 0.18576 0.38323
vt 0.16390 0.38751
vt 0.63977 0.14320
vt 0.64589 0.12539
vt 0.65748 0.14358
vt 0.00831 0.51869
vt 0.00320 0.52035
vt 0.00341 0.51968
vt 0.20991 0.18733
vt 0.22258 0.16937
vt 0.22559 0.18733
vt 0.21954 0.41932
vt 0.22011 0.42274
vt 0.20224 0.72670
vt 0.19505 0.70937
vt 0.62318 0.12664
vt 0.18578 0.37794
vt 0.21476 0.41304
vt 0.21504 0.41527
vt 0.46194 0.11693
vt 0.13328 0.84438
vt 0.13336 0.83725
vt 0.62742 0.14354
vt 0.18597 0.39535
vt 0.16373 0.40632
vt 0.19072 0.69715
vt 0.97000 0.38208
vt 0.97287 0.37135
vt 0.97297 0.38370
vt 0.20693 0.83743
vt 0.21582 0.82801
vt 0.21504 0.83743
vt 0.22685 0.45424
vt 0.17681 0.41448
vt 0.00229 0.98460
vt 0.00333 0.98487
vt 0.00167 0.98486
vt 0.19496 0.69453
vt 0.19265 0.68897
vt 0.16387 0.41535
vt 0.62242 0.14325
vt 0.97102 0.38830
vt 0.17138 0.06007
vt 0.17432 0.08269
vt 0.16680 0.08335
vt 0.96955 0.36893
vt 0.97282 0.35900
vt 0.96981 0.37626
vt 0.62093 0.14351
vt 0.00252 0.13135
vt 0.00291 0.13191
vt 0.00010 0.13176
vt 0.78126 0.00003
vt 0.78625 0.00047
vt 0.77981 0.00046
vt 0.20847 0.41816
vt 0.96934 0.36259
vt 0.61480 0.12596
vt 0.61570 0.14300
vt 0.19330 0.73098
vt 0.30913 0.06099
vt 0.30676 0.05933
vt 0.31084 0.06088
vt 0.77029 0.05347
vt 0.77157 0.03874
vt 0.77608 0.05398
vt 0.77010 0.04680
vt 0.31677 0.06156
vt 0.20863 0.41925
vt 0.20876 0.82992
vt 0.42510 0.90176
vt 0.44130 0.87946
vt 0.45478 0.90282
vt 0.03296 0.44572
vt 0.03782 0.44550
vt 0.03782 0.45385
vt 0.22942 0.44968
vt 0.16672 0.07038
vt 0.96508 0.38266
vt 0.96489 0.38651
vt 0.16693 0.06056
vt 0.19503 0.69066
vt 0.33646 0.05931
vt 0.18636 0.41018
vt 0.76988 0.03895
vt 0.77752 0.03824
vt 0.21769 0.28785
vt 0.21908 0.30378
vt 0.17982 0.28907
vt 0.78342 0.05422
vt 0.96912 0.35322
vt 0.97280 0.35256
vt 0.18662 0.41405
vt 0.61591 0.14358
vt 0.67374 0.08924
vt 0.68577 0.08902
vt 0.67726 0.08955
vt 0.38181 0.07377
vt 0.38181 0.08539
vt 0.36619 0.07516
vt 0.19618 0.68906
vt 0.03297 0.45357
vt 0.30464 0.06574
vt 0.30437 0.06081
vt 0.20814 0.16979
vt 0.32692 0.06192
vt 0.33155 0.06219
vt 0.78976 0.05435
vt 0.97163 0.34768
vt 0.96856 0.34970
vt 0.78707 0.92915
vt 0.78759 0.92953
vt 0.72035 0.94813
vt 0.74136 0.94813
vt 0.74161 0.94877
vt 0.34020 0.06009
vt 0.78765 0.03750
vt 0.68731 0.07198
vt 0.67421 0.07219
vt 0.67444 0.07161
vt 0.19947 0.69011
vt 0.45160 0.08029
vt 0.76396 0.92972
vt 0.63506 0.98707
vt 0.62811 0.98707
vt 0.63543 0.98322
vt 0.62920 0.98316
vt 0.79914 0.05446
vt 0.42820 0.99067
vt 0.42803 0.99332
vt 0.42758 0.99083
vt 0.03770 0.43927
vt 0.20091 0.82989
vt 0.03275 0.43904
vt 0.30862 0.06582
vt 0.80149 0.03655
vt 0.80269 0.05454
vt 0.79229 0.03734
vt 0.43829 0.99303
vt 0.62085 0.98333
vt 0.95437 0.38626
vt 0.16959 0.70652
vt 0.15792 0.71002
vt 0.15959 0.70327
vt 0.34078 0.06255
vt 0.76458 0.80693
vt 0.76503 0.82420
vt 0.76458 0.82373
vt 0.13866 0.59242
vt 0.13833 0.57416
vt 0.13975 0.59213
vt 0.62082 0.98731
vt 0.35460 0.02709
vt 0.35513 0.03525
vt 0.35392 0.03491
vt 0.47033 0.11611
vt 0.20628 0.42108
vt 0.15589 0.71702
vt 0.15512 0.85390
vt 0.13299 0.85835
vt 0.95001 0.38871
vt 0.96077 0.34912
vt 0.20059 0.83051
vt 0.20469 0.68859
vt 0.13995 0.60239
vt 0.34392 0.08500
vt 0.22143 0.45568
vt 0.95876 0.34753
vt 0.13856 0.60953
vt 0.17728 0.08230
vt 0.19304 0.30448
vt 0.03887 0.21109
vt 0.03821 0.20035
vt 0.03887 0.20120
vt 0.21708 0.80481
vt 0.19555 0.83721
vt 0.17001 0.72162
vt 0.13770 0.37851
vt 0.13792 0.38927
vt 0.19978 0.42552
vt 0.27325 0.28071
vt 0.29108 0.27248
vt 0.29185 0.28234
vt 0.81728 0.82424
vt 0.27282 0.27291
vt 0.20028 0.80507
vt 0.18514 0.08215
vt 0.21622 0.72670
vt 0.21355 0.68958
vt 0.35520 0.03999
vt 0.18632 0.17040
vt 0.12943 0.37120
vt 0.18542 0.05890
vt 0.69380 0.08893
vt 0.19586 0.83059
vt 0.46980 0.09484
vt 0.27426 0.29189
vt 0.20978 0.46784
vt 0.18802 0.83005
vt 0.21273 0.68848
vt 0.23062 0.73084
vt 0.21641 0.45967
vt 0.14078 0.87020
vt 0.94977 0.38631
vt 0.35414 0.04778
vt 0.35237 0.05850
vt 0.94955 0.34899
vt 0.17394 0.70806
vt 0.29298 0.29013
vt 0.03871 0.19332
vt 0.81597 0.79822
vt 0.80374 0.78489
vt 0.81524 0.78534
vt 0.94109 0.38682
vt 0.17773 0.80585
vt 0.20959 0.46568
vt 0.16557 0.74418
vt 0.15502 0.86031
vt 0.18996 0.18748
vt 0.18430 0.83703
vt 0.13061 0.36327
vt 0.21789 0.68936
vt 0.15504 0.86940
vt 0.22151 0.68844
vt 0.18217 0.71086
vt 0.13782 0.37147
vt 0.13583 0.36696
vt 0.27566 0.30610
vt 0.13267 0.86991
vt 0.34631 0.07684
vt 0.34412 0.07923
vt 0.18544 0.83423
vt 0.35534 0.04879
vt 0.70259 0.08880
vt 0.18014 0.30474
vt 0.34831 0.99878
vt 0.34341 0.99883
vt 0.34721 0.99767
vt 0.22395 0.68923
vt 0.34425 0.07685
vt 0.93469 0.53014
vt 0.93464 0.52322
vt 0.93493 0.53052
vt 0.18352 0.83783
vt 0.18974 0.05847
vt 0.93525 0.53465
vt 0.33938 0.99863
vt 0.93409 0.53067
vt 0.13144 0.29226
vt 0.13084 0.28843
vt 0.13144 0.28923
vt 0.18791 0.18732
vt 0.93687 0.54118
vt 0.93105 0.53692
vt 0.13083 0.29775
vt 0.13149 0.28406
vt 0.00677 0.99972
vt 0.00375 0.99999
vt 0.00274 0.99951
vt 0.93451 0.34804
vt 0.30106 0.40074
vt 0.31634 0.40176
vt 0.31716 0.41103
vt 0.93527 0.34901
vt 0.22776 0.72738
vt 0.30152 0.41225
vt 0.17732 0.82831
vt 0.91462 0.59564
vt 0.91321 0.58223
vt 0.91378 0.58154
vt 0.91173 0.58165
vt 0.13082 0.28132
vt 0.29582 0.29546
vt 0.19579 0.05812
vt 0.31564 0.39467
vt 0.93226 0.55605
vt 0.93700 0.55830
vt 0.20767 0.46519
vt 0.93434 0.38842
vt 0.13151 0.27380
vt 0.13053 0.27437
vt 0.94061 0.55069
vt 0.10505 0.99905
vt 0.10592 0.99945
vt 0.09778 0.99932
vt 0.92238 0.57566
vt 0.08732 0.00267
vt 0.09223 0.00225
vt 0.09336 0.00276
vt 0.60634 0.01029
vt 0.59923 0.01025
vt 0.60027 0.00923
vt 0.31476 0.38777
vt 0.12546 0.36090
vt 0.11583 0.36773
vt 0.94135 0.55097
vt 0.93027 0.53806
vt 0.13277 0.87062
vt 0.13131 0.26565
vt 0.93303 0.57536
vt 0.23108 0.68844
vt 0.94746 0.55997
vt 0.29942 0.36133
vt 0.94859 0.55568
vt 0.61171 0.00933
vt 0.13025 0.26531
vt 0.80086 0.00009
vt 0.80725 0.00009
vt 0.80179 0.00091
vt 0.61198 0.00997
vt 0.91905 0.60346
vt 0.71156 0.07177
vt 0.94392 0.56553
vt 0.16909 0.99922
vt 0.16870 0.99978
vt 0.16073 0.99941
vt 0.91144 0.60441
vt 0.17736 0.00571
vt 0.17689 0.00471
vt 0.18124 0.00568
vt 0.18898 0.00482
vt 0.31366 0.37878
vt 0.18877 0.00580
vt 0.22845 0.72718
vt 0.95172 0.57060
vt 0.94678 0.60833
vt 0.23167 0.72052
vt 0.23421 0.72874
vt 0.23153 0.72543
vt 0.23349 0.71085
vt 0.76430 0.78437
vt 0.20209 0.05772
vt 0.46959 0.07917
vt 0.99420 0.99161
vt 0.99829 0.99161
vt 0.99764 0.99237
vt 0.32185 0.36003
vt 0.32570 0.37773
vt 0.23026 0.68913
vt 0.93442 0.38728
vt 0.19709 0.08059
vt 0.20365 0.08783
vt 0.19418 0.08792
vt 0.20288 0.07251
vt 0.71215 0.08861
vt 0.18845 0.71315
vt 0.18370 0.73105
vt 0.97032 0.57711
vt 0.35503 0.05826
vt 0.32311 0.36239
vt 0.32566 0.37422
vt 0.00228 0.79535
vt 0.00336 0.79574
vt 0.00164 0.79572
vt 0.23134 0.70490
vt 0.66043 0.15666
vt 0.66043 0.17456
vt 0.64240 0.15628
vt 0.26467 0.95898
vt 0.26100 0.95800
vt 0.27011 0.95809
vt 0.97094 0.60248
vt 0.64262 0.15798
vt 0.64486 0.19375
vt 0.04972 0.68660
vt 0.04972 0.66809
vt 0.05038 0.66775
vt 0.96266 0.61842
vt 0.25900 0.95890
vt 0.30418 0.30511
vt 0.23065 0.69217
vt 0.96527 0.61786
vt 0.25857 0.95807
vt 0.30418 0.29910
vt 0.18115 0.74064
vt 0.11640 0.35998
vt 0.61385 0.15702
vt 0.62377 0.15728
vt 0.60496 0.17479
vt 0.24991 0.95942
vt 0.66156 0.19708
vt 0.24996 0.95851
vt 0.30654 0.29969
vt 0.31515 0.29973
vt 0.32278 0.30426
vt 0.60546 0.15665
vt 0.52112 0.86994
vt 0.51208 0.87062
vt 0.51234 0.86839
vt 0.64471 0.19658
vt 0.54087 0.86897
vt 0.93393 0.35082
vt 0.53067 0.87106
vt 0.62630 0.19265
vt 0.52912 0.87012
vt 0.52912 0.87023
vt 0.53549 0.87014
vt 0.53548 0.87043
vt 0.60471 0.19181
vt 0.55227 0.87135
vt 0.04540 0.50774
vt 0.04419 0.49693
vt 0.55277 0.87011
vt 0.55276 0.87089
vt 0.04476 0.49657
vt 0.55949 0.86896
vt 0.07595 0.23933
vt 0.07482 0.24356
vt 0.07470 0.22843
vt 0.56963 0.28991
vt 0.58945 0.26936
vt 0.59289 0.26966
vt 0.12620 0.96742
vt 0.12121 0.95673
vt 0.13841 0.96734
vt 0.58232 0.26634
vt 0.11417 0.00126
vt 0.11038 0.00024
vt 0.10831 0.00097
vt 0.57761 0.28960
vt 0.13855 0.95650
vt 0.63606 0.57141
vt 0.63691 0.56764
vt 0.65344 0.49548
vt 0.65556 0.48115
vt 0.78660 0.93322
vt 0.12088 0.38778
vt 0.04486 0.51394
vt 0.11441 0.00024
vt 0.53230 0.67986
vt 0.54805 0.67741
vt 0.55166 0.68521
vt 0.53686 0.71008
vt 0.02468 0.46919
vt 0.03389 0.46515
vt 0.03022 0.46749
vt 0.04816 0.00348
vt 0.04610 0.00103
vt 0.05200 0.00120
vt 0.03243 0.46813
vt 0.01261 0.58187
vt 0.01261 0.57608
vt 0.01580 0.58213
vt 0.94366 0.99060
vt 0.94790 0.99112
vt 0.94730 0.99334
vt 0.01686 0.57654
vt 0.00787 0.93152
vt 0.00164 0.93241
vt 0.00436 0.93635
vt 0.10511 0.21829
vt 0.11842 0.21522
vt 0.10425 0.24674
vt 0.12450 0.23160
vt 0.67043 0.68833
vt 0.67043 0.68833
vt 0.67043 0.68833
vt 0.67043 0.68833
vt 0.67043 0.68833
vt 0.67043 0.68833
vt 0.67043 0.68833
vt 0.67043 0.68833
vt 0.67043 0.68833
vt 0.67043 0.68833
vt 0.67043 0.68833
vt 0.67043 0.68833
vt 0.67043 0.68833
vt 0.67043 0.68833
vt 0.67043 0.68833
vt 0.67043 0.68833
vt 0.67043 0.68833
vt 0.67043 0.68833
vt 0.67043 0.68833
vt 0.67043 0.68833
vt 0.67043 0.68833
vt 0.67043 0.68833
vt 0.67043 0.68833
vt 0.67043 0.68833
vt 0.67043 0.68833
vt 0.67043 0.68833
vt 0.67043 0.68833
vt 0.67043 0.68833
vt 0.67043 0.68833
vt 0.67043 0.68833
vt 0.67043 0.68833
vt 0.67043 0.68833
vt 0.67043 0.68833
vt 0.67043 0.68833
vt 0.67043 0.68833
vt 0.67043 0.68833
vt 0.67043 0.68833
vt 0.67043 0.68833
vt 0.67043 0.68833
vt 0.67043 0.68833
vt 0.67043 0.68833
vt 0.67043 0.68833
vt 0.67043 0.68833
vt 0.67043 0.68833
vt 0.67043 0.68833
vt 0.67043 0.68833
vt 0.67043 0.68833
vt 0.67043 0.68833
vt 0.67043 0.68833
vt 0.67043 0.68833
vt 0.67043 0.68833
vt 0.67043 0.68833
vt 0.67043 0.68833
vt 0.67043 0.68833
vn 0.0150 -0.9707 -0.2399
vn 0.0086 -0.9660 -0.2582
vn 0.0140 -0.9698 -0.2435
vn -0.0168 -0.9928 -0.1189
vn -0.0810 0.0565 -0.9951
vn -0.0810 0.0565 -0.9951
vn 0.0293 -0.9991 -0.0295
vn 0.0398 -0.9984 -0.0395
vn 0.0149 -0.9998 -0.0158
vn 0.0045 -1.0000 -0.0059
vn 0.1059 0.0731 -0.9917
vn 0.1059 0.0731 -0.9917
vn 0.1059 0.0731 -0.9917
vn -0.0189 -0.9941 -0.1067
vn -0.0810 0.0565 -0.9951
vn 0.9490 0.0882 0.3028
vn 0.9412 0.0827 0.3275
vn 0.9824 0.1313 0.1328
vn 0.9822 0.1273 0.1383
vn 0.9831 0.1379 0.1205
vn 0.8083 0.1204 -0.5763
vn 0.8099 0.1209 -0.5739
vn 0.8084 0.1204 -0.5762
vn 0.8101 0.1209 -0.5737
vn 0.9819 0.1425 0.1251
vn 0.9819 0.1425 0.1251
vn 0.0398 0.9986 -0.0336
vn 0.0149 0.9980 -0.0620
vn 0.0639 0.9979 0.0114
vn 0.0165 0.9998 0.0132
vn -0.0487 0.9985 0.0241
vn -0.0053 0.9998 -0.0173
vn 0.9594 0.1455 0.2416
vn 0.9594 0.1455 0.2416
vn -0.0494 0.9868 -0.1544
vn -0.2746 -0.0705 0.9590
vn -0.1294 -0.0784 0.9885
vn -0.1147 -0.0790 0.9903
vn -0.0890 0.9960 -0.0122
vn 0.9745 0.2222 -0.0312
vn 0.9780 0.2057 0.0358
vn 0.9771 0.2069 0.0485
vn -0.0481 0.9858 -0.1608
vn -0.0615 0.9981 0.0007
vn -0.0391 0.9992 -0.0041
vn 0.0087 0.9998 0.0193
vn 0.9807 0.1414 0.1350
vn -0.2950 -0.0692 0.9530
vn 0.9815 0.1910 0.0106
vn 0.0398 0.9991 0.0110
vn 0.9847 0.1330 0.1129
vn 0.2259 0.0262 -0.9738
vn 0.1691 0.0278 -0.9852
vn 0.1499 0.0156 -0.9886
vn 0.7873 0.1428 0.5998
vn 0.4820 0.0660 0.8737
vn 0.4853 0.0932 0.8694
vn 0.9789 0.2019 -0.0297
vn 0.9879 0.1500 0.0389
vn 0.9571 0.2636 0.1200
vn 0.9783 0.1327 0.1592
vn 0.9736 0.1802 0.1400
vn 0.4716 -0.0583 0.8799
vn 0.2356 0.0733 0.9691
vn 0.0604 0.0174 -0.9980
vn 0.0831 0.0158 -0.9964
vn 0.1161 0.0133 -0.9931
vn 0.9737 0.1412 0.1787
vn 0.9798 0.1586 0.1215
vn -0.0212 0.9726 -0.2315
vn 0.2068 0.0330 -0.9778
vn 0.0528 0.0246 -0.9983
vn -0.1174 -0.0529 0.9917
vn 0.9740 0.1441 0.1750
vn 0.0786 0.0378 -0.9962
vn -0.1459 0.0941 0.9848
vn -0.1450 0.1545 0.9773
vn -0.2180 0.3686 0.9037
vn -0.1096 -0.0419 0.9931
vn -0.1209 -0.0244 0.9924
vn -0.1353 -0.0392 0.9900
vn -0.1539 0.8410 0.5187
vn -0.1558 0.8400 0.5197
vn -0.1508 0.8411 0.5194
vn 0.1244 0.0127 -0.9921
vn 0.1039 -0.0075 0.9946
vn -0.0097 -0.0397 0.9992
vn -0.0267 0.9736 -0.2265
vn -0.1336 -0.0288 0.9906
vn -0.0097 0.0385 -0.9992
vn -0.1002 -0.1030 0.9896
vn -0.1580 0.6853 0.7109
vn -0.0281 0.9640 -0.2645
vn -0.0989 -0.0532 0.9937
vn -0.2146 0.5236 0.8245
vn 0.0215 0.0559 -0.9982
vn -0.0659 0.9813 -0.1809
vn -0.1300 -0.0393 0.9907
vn -0.1521 -0.0403 0.9875
vn 0.0554 -0.9725 -0.2264
vn -0.1613 -0.9497 -0.2685
vn -0.0016 -0.9660 -0.2586
vn 0.3103 0.1264 -0.9422
vn 0.3942 0.1323 -0.9095
vn 0.3551 0.1570 -0.9216
vn 0.6596 -0.1572 0.7350
vn 0.6500 -0.1348 0.7479
vn -0.0768 0.9849 -0.1553
vn -0.1358 -0.0273 0.9904
vn -0.1145 0.0098 0.9934
vn 0.5233 -0.6710 0.5253
vn 0.5233 -0.6710 0.5253
vn 0.5233 -0.6710 0.5253
vn 0.3797 0.1395 -0.9145
vn -0.2207 0.5037 0.8352
vn -0.1397 0.9822 -0.1258
vn -0.1397 0.9822 -0.1258
vn -0.1397 0.9822 -0.1258
vn 0.7094 -0.2162 0.6709
vn 0.0001 -0.9721 -0.2346
vn 0.8033 -0.1599 0.5738
vn 0.6759 -0.1733 0.7163
vn 0.7291 -0.3085 0.6110
vn 0.0816 0.0363 -0.9960
vn 0.0816 0.0363 -0.9960
vn -0.0615 -0.9602 -0.2725
vn -0.0149 0.0571 -0.9983
vn -0.0274 0.0511 -0.9983
vn 0.0792 -0.9947 -0.0657
vn 0.0750 -0.9963 -0.0421
vn 0.0834 -0.9938 -0.0738
vn -0.9196 0.3722 -0.1253
vn -0.7372 0.6720 -0.0700
vn -0.9173 0.3782 -0.1244
vn -0.7194 0.6919 -0.0622
vn -0.9826 -0.1210 -0.1411
vn -0.9790 -0.1367 -0.1511
vn -0.9790 -0.1355 -0.1526
vn 0.0915 -0.9875 -0.1285
vn 0.0970 -0.9719 -0.2145
vn 0.4266 0.1872 -0.8848
vn 0.7481 -0.2477 0.6156
vn -0.9779 -0.1382 -0.1568
vn -0.7355 0.6740 -0.0696
vn -0.0790 0.0558 -0.9953
vn -0.9752 -0.1475 -0.1651
vn -0.9785 -0.1376 -0.1534
vn 0.4292 0.1967 -0.8815
vn -0.9779 -0.1302 -0.1639
vn -0.9796 -0.1408 -0.1431
vn -0.9817 -0.0960 -0.1645
vn 0.3535 0.1886 -0.9162
vn 0.1449 -0.9869 0.0706
vn -0.9732 -0.1588 -0.1665
vn 0.1379 -0.9800 0.1433
vn -0.1366 -0.0465 0.9895
vn -0.1582 -0.0331 0.9869
vn 0.3362 0.1750 -0.9254
vn -0.9625 -0.1932 -0.1907
vn -0.9530 -0.2325 -0.1945
vn 0.0940 -0.9906 -0.0995
vn 0.0573 -0.9835 0.1715
vn -0.7914 -0.1311 0.5970
vn -0.7914 -0.1311 0.5970
vn -0.7914 -0.1311 0.5970
vn -0.4413 -0.5150 -0.7349
vn -0.6061 -0.1911 -0.7721
vn -0.5470 -0.3725 -0.7497
vn 0.8254 -0.2496 0.5063
vn 0.8254 -0.2496 0.5063
vn 0.8254 -0.2496 0.5063
vn 0.2078 0.1578 -0.9654
vn 0.2700 0.1905 -0.9438
vn 0.9923 -0.1232 -0.0109
vn 0.9914 -0.1307 -0.0062
vn 0.9912 -0.1322 -0.0052
vn 0.8743 -0.2300 0.4275
vn 0.8743 -0.2300 0.4275
vn 0.8743 -0.2300 0.4275
vn -0.9829 -0.1287 0.1318
vn -0.9829 -0.1287 0.1318
vn -0.9829 -0.1287 0.1318
vn 0.0392 -0.9894 0.1401
vn -0.6750 -0.2124 -0.7066
vn -0.7156 -0.2844 -0.6380
vn 0.9899 -0.1413 -0.0111
vn 0.9918 -0.1279 0.0025
vn 0.9966 -0.0819 0.0034
vn 0.9926 -0.1205 -0.0127
vn 0.1180 -0.1372 0.9835
vn 0.1180 -0.1372 0.9835
vn 0.1180 -0.1372 0.9835
vn 0.7164 0.6929 0.0812
vn 0.4954 0.8670 0.0531
vn 0.7076 0.7021 0.0801
vn 0.0240 -0.9938 0.1084
vn 0.9913 -0.1228 0.0468
vn 0.9919 -0.1201 0.0424
vn 0.9902 -0.1281 0.0554
vn 0.4813 0.8751 0.0514
vn 0.9051 -0.4223 -0.0499
vn 0.9051 -0.4223 -0.0499
vn 0.9051 -0.4223 -0.0499
vn 0.9993 -0.0377 -0.0068
vn 0.9994 -0.0335 0.0064
vn 0.9917 -0.1124 -0.0625
vn 0.9865 -0.1458 -0.0749
vn 0.9925 -0.0991 -0.0718
vn 0.9402 0.3369 -0.0505
vn 0.5360 0.8435 0.0352
vn 0.5360 0.8435 0.0352
vn 0.5360 0.8435 0.0352
vn 0.4717 -0.0333 -0.8811
vn 0.4535 -0.0270 -0.8909
vn 0.0500 0.0984 -0.9939
vn 0.0104 0.1096 -0.9939
vn 0.5204 -0.1548 0.8398
vn 0.6584 -0.1250 0.7422
vn 0.6604 -0.1250 0.7405
vn 0.6807 -0.1278 0.7213
vn 0.9905 -0.1369 -0.0131
vn 0.9932 -0.1127 0.0308
vn 0.9842 -0.1548 -0.0860
vn 0.5021 -0.1575 0.8503
vn 0.7749 -0.6252 -0.0927
vn 0.6063 -0.7874 -0.1112
vn 0.8652 -0.4903 -0.1048
vn 0.0782 -0.9941 0.0746
vn 0.8969 -0.4346 -0.0817
vn 0.9886 -0.1497 -0.0162
vn 0.9894 -0.1089 -0.0958
vn 0.0691 -0.0482 0.9964
vn 0.0691 -0.0482 0.9964
vn 0.9890 -0.0779 -0.1259
vn 0.1204 0.9831 -0.1377
vn 0.1192 0.9829 -0.1407
vn 0.1157 0.9820 -0.1490
vn 0.9911 -0.1319 -0.0156
vn 0.9819 0.1425 0.1251
vn 0.9594 0.1455 0.2416
vn 0.0816 0.0363 -0.9960
vn 0.0691 -0.0482 0.9964
vn 0.9962 0.0564 0.0671
vn 0.9933 0.0463 0.1060
vn 0.9973 0.0736 0.0061
vn 0.9400 0.3318 -0.0789
vn 0.9917 0.0449 0.1206
vn 0.9823 0.1786 0.0561
vn 0.9777 0.1466 0.1506
vn 0.5206 -0.8537 0.0074
vn 0.5590 -0.8292 -0.0025
vn 0.5644 -0.8255 -0.0039
vn 0.9884 0.0730 0.1332
vn 0.9891 0.0692 0.1296
vn 0.5155 -0.8568 0.0087
vn 0.9762 0.1743 0.1293
vn 0.9734 0.1467 0.1763
vn 0.8962 0.0567 -0.4400
vn 0.8962 0.0567 -0.4400
vn 0.8962 0.0567 -0.4400
vn 0.9967 -0.0472 0.0659
vn 0.9858 0.0392 0.1636
vn 0.9939 -0.0998 0.0473
vn 0.9751 0.1893 0.1155
vn 0.9848 0.0958 0.1446
vn -0.9876 -0.0875 -0.1303
vn -0.9876 -0.0875 -0.1303
vn -0.9876 -0.0875 -0.1303
vn -0.8745 0.4465 -0.1892
vn -0.8745 0.4465 -0.1892
vn -0.8745 0.4465 -0.1892
vn 0.9550 0.0829 0.2849
vn 0.9506 0.2760 0.1420
vn 0.6574 0.7535 -0.0127
vn 0.5996 0.8001 -0.0185
vn 0.4938 0.8543 -0.1622
vn 0.9866 0.0544 0.1538
vn 0.9823 0.1456 0.1181
vn 0.7976 -0.1052 0.5939
vn 0.7881 -0.1001 0.6074
vn 0.6410 -0.0302 0.7670
vn -0.3162 -0.6510 -0.6901
vn -0.3332 -0.5949 -0.7315
vn -0.3326 -0.5969 -0.7301
vn 0.2880 0.0200 -0.9574
vn 0.2710 0.0216 -0.9623
vn -0.0006 0.0444 -0.9990
vn -0.0811 0.9967 0.0057
vn -0.0463 0.9868 -0.1553
vn -0.1155 0.9933 -0.0038
vn -0.3492 -0.5325 -0.7711
vn 0.5061 -0.8618 -0.0330
vn 0.5061 -0.8618 -0.0330
vn 0.5061 -0.8618 -0.0330
vn 0.4845 0.8563 -0.1787
vn -0.0297 0.0466 -0.9985
vn 0.9756 0.0595 0.2114
vn 0.9139 -0.1800 0.3639
vn 0.1940 0.9630 0.1869
vn 0.5892 0.7394 -0.3258
vn 0.3103 0.9311 0.1916
vn 0.2558 0.9469 0.1948
vn 0.9770 0.1708 0.1273
vn 0.9764 0.1587 0.1464
vn 0.9803 0.1499 0.1287
vn 0.9804 0.1351 0.1437
vn 0.3850 0.8934 0.2314
vn 0.3984 0.8853 0.2398
vn -0.0575 0.9941 0.0917
vn 0.0529 0.9986 0.0010
vn -0.0367 0.9957 0.0846
vn 0.1214 0.9873 0.1027
vn 0.9701 0.1746 0.1684
vn -0.0641 -0.9979 0.0005
vn 0.3270 -0.9448 -0.0222
vn 0.0791 -0.9336 -0.3494
vn 0.9785 0.1285 0.1611
vn 0.9926 0.1209 -0.0052
vn 0.9769 0.1502 -0.1522
vn 0.9822 0.1033 -0.1567
vn 0.6006 0.0526 0.7978
vn 0.6006 0.0526 0.7978
vn 0.6006 0.0526 0.7978
vn 0.9789 0.1559 0.1320
vn 0.0186 0.9969 -0.0758
vn 0.9831 0.1227 -0.1360
vn 0.7679 0.0729 -0.6364
vn 0.5518 0.0731 -0.8308
vn 0.4225 0.0835 -0.9025
vn 0.0478 0.9936 0.1020
vn 0.9801 0.1380 0.1426
vn 0.9799 0.1202 -0.1594
vn 0.3526 -0.9349 -0.0406
vn 0.1725 -0.9769 -0.1265
vn 0.0986 0.0450 -0.9941
vn 0.1061 0.0387 -0.9936
vn 0.0657 0.0687 -0.9955
vn 0.9916 0.1110 0.0665
vn 0.9845 0.1028 -0.1418
vn 0.9043 0.0858 -0.4182
vn 0.9921 0.1226 -0.0259
vn 0.9877 0.1081 0.1127
vn 0.9874 0.1142 0.1095
vn 0.9820 0.1337 0.1334
vn 0.9832 0.1314 0.1268
vn 0.9753 0.1274 -0.1807
vn 0.6416 0.7638 -0.0708
vn 0.6416 0.7638 -0.0708
vn 0.6416 0.7638 -0.0708
vn 0.1616 0.0805 -0.9836
vn 0.1607 0.0614 -0.9851
vn 0.1901 0.0411 -0.9809
vn 0.1153 0.9901 0.0801
vn 0.0677 0.9927 0.0999
vn 0.0647 -0.9170 -0.3937
vn 0.4156 -0.9095 0.0102
vn 0.9672 0.1232 0.2222
vn 0.9894 0.1000 0.1052
vn -0.0178 0.9945 0.1036
vn 0.0199 0.9955 0.0926
vn 0.1161 0.0616 -0.9913
vn 0.1096 0.0298 -0.9935
vn 0.0970 0.0168 -0.9951
vn 0.9828 0.1473 0.1112
vn 0.9854 0.1200 0.1207
vn 0.9871 0.1219 0.1033
vn 0.4706 -0.8823 -0.0051
vn 0.0148 0.9938 0.1102
vn -0.0024 0.9948 0.1016
vn 0.0840 0.9886 0.1252
vn -0.1869 -0.0252 0.9821
vn -0.1318 0.0044 0.9913
vn -0.1685 -0.0192 0.9855
vn -0.0497 0.9969 -0.0606
vn 0.9852 0.1298 0.1120
vn -0.8749 -0.4841 -0.0160
vn -0.8749 -0.4841 -0.0160
vn -0.8749 -0.4841 -0.0160
vn 0.4514 -0.8922 -0.0130
vn 0.3050 -0.9503 0.0633
vn 0.9877 0.1317 0.0845
vn 0.9659 0.1191 0.2298
vn -0.0207 0.9955 0.0927
vn -0.0820 -0.0217 0.9964
vn -0.0895 -0.0193 0.9958
vn -0.0368 -0.0172 0.9992
vn -0.0214 0.9967 0.0779
vn -0.0851 0.9936 0.0741
vn -0.0644 0.9876 0.1433
vn 0.9329 0.1206 0.3393
vn 0.6175 -0.7311 -0.2902
vn 0.6175 -0.7311 -0.2902
vn 0.6175 -0.7311 -0.2902
vn 0.4924 0.8578 0.1475
vn 0.4924 0.8578 0.1475
vn 0.4924 0.8578 0.1475
vn -0.0618 0.9731 0.2221
vn -0.1017 0.9919 0.0764
vn 0.9387 0.1014 0.3295
vn 0.8963 0.2812 0.3429
vn 0.0021 -0.8330 -0.5532
vn 0.1589 -0.9872 0.0129
vn 0.0917 -0.9954 -0.0286
vn 0.1713 -0.9842 0.0444
vn 0.9803 0.1186 0.1581
vn 0.9813 0.1250 0.1464
vn 0.9747 0.1284 0.1828
vn 0.9860 0.1513 -0.0705
vn 0.0836 -0.9964 0.0116
vn -0.0443 0.9776 0.2058
vn -0.1289 0.1865 0.9740
vn 0.9829 0.1394 0.1202
vn 0.9829 0.1394 0.1202
vn 0.9829 0.1394 0.1202
vn 0.2172 0.0612 -0.9742
vn 0.2093 0.0653 -0.9757
vn 0.2152 0.0505 -0.9753
vn -0.0462 0.9962 -0.0737
vn -0.0113 -0.0098 0.9999
vn -0.0584 0.9921 0.1106
vn -0.0485 0.9980 0.0401
vn -0.0465 -0.0321 0.9984
vn 0.1903 -0.9770 0.0963
vn 0.1665 -0.9860 0.0006
vn 0.9795 0.1487 0.1357
vn 0.9909 0.1207 0.0590
vn 0.9722 0.1304 0.1947
vn 0.0889 0.0934 -0.9917
vn 0.0836 0.0799 -0.9933
vn 0.0710 0.0517 -0.9961
vn 0.9756 0.1370 0.1715
vn -0.0799 0.9930 0.0869
vn -0.0767 0.9930 0.0900
vn 0.9757 0.1553 0.1547
vn 0.7704 0.5288 0.3562
vn -0.1331 -0.0628 0.9891
vn -0.1390 -0.0425 0.9894
vn -0.0962 -0.4126 0.9058
vn 0.0259 0.9809 -0.1925
vn 0.0201 0.9788 -0.2037
vn 0.0157 0.9752 -0.2206
vn 0.0532 -0.9900 0.1305
vn 0.2168 0.0518 -0.9748
vn 0.0684 -0.9963 -0.0521
vn 0.0596 -0.9978 -0.0279
vn 0.1360 0.0786 -0.9876
vn 0.0838 -0.9964 0.0088
vn 0.1751 -0.9845 -0.0042
vn 0.9784 0.1302 0.1607
vn -0.0933 0.9892 0.1131
vn -0.1043 0.9867 0.1248
vn 0.9591 -0.0281 0.2816
vn 0.9178 -0.2701 0.2910
vn 0.0306 0.8376 -0.5454
vn 0.0306 0.8376 -0.5454
vn 0.0306 0.8376 -0.5454
vn 0.0641 -0.9979 0.0132
vn 0.9778 0.1315 0.1633
vn -0.1438 -0.0342 0.9890
vn -0.1487 0.1320 0.9800
vn -0.1559 0.3629 0.9187
vn 0.0143 -0.9921 0.1248
vn 0.1106 0.0584 -0.9921
vn 0.9527 0.1508 0.2639
vn 0.9870 0.1335 0.0898
vn 0.9872 0.1214 0.1031
vn 0.9863 0.1355 0.0941
vn 0.9865 0.1303 0.0996
vn 0.9680 0.1191 0.2208
vn 0.0495 -0.2513 0.9666
vn 0.0109 -0.0967 0.9953
vn 0.1080 -0.4831 0.8689
vn 0.2264 0.0701 -0.9715
vn -0.1083 0.0039 0.9941
vn 0.2396 0.0624 -0.9689
vn 0.0684 -0.9960 -0.0571
vn 0.9758 0.1299 0.1757
vn 0.9515 0.1049 0.2891
vn 0.9759 0.1370 0.1702
vn -0.0052 -0.0319 0.9995
vn 0.9872 0.1001 0.1244
vn -0.0547 0.9985 -0.0038
vn 0.1234 0.0311 -0.9919
vn 0.1152 0.0347 -0.9927
vn 0.0988 0.0556 -0.9936
vn 0.0327 -0.9993 0.0168
vn 0.0056 -1.0000 0.0023
vn 0.0049 -0.9969 0.0780
vn -0.0104 -0.9708 0.2395
vn 0.6746 0.0794 0.7339
vn 0.6748 0.0791 0.7337
vn 0.6748 0.0793 0.7337
vn 0.9862 0.0924 0.1374
vn -0.0431 0.9402 0.3380
vn -0.0691 0.9375 0.3412
vn -0.0660 0.9330 0.3537
vn 0.1133 0.0593 -0.9918
vn -0.1495 0.8752 0.4601
vn 0.1251 0.0203 -0.9919
vn 0.1240 0.0339 -0.9917
vn 0.1378 0.0326 -0.9899
vn -0.0387 0.9989 -0.0267
vn -0.1238 0.9774 0.1713
vn -0.1902 -0.0173 0.9816
vn 0.0240 -0.9758 0.2171
vn 0.6693 0.0795 0.7387
vn 0.0095 0.9686 -0.2483
vn -0.0412 0.9989 -0.0241
vn -0.1091 0.9743 0.1971
vn 0.6691 0.0795 0.7389
vn -0.1237 -0.0212 0.9921
vn 0.0666 0.0393 -0.9970
vn 0.0196 -0.8370 0.5469
vn -0.0235 -0.8755 0.4827
vn 0.0085 -0.8475 0.5307
vn -0.1147 -0.0146 0.9933
vn -0.1319 0.0335 0.9907
vn 0.1579 0.0230 -0.9872
vn -0.0997 -0.0553 0.9935
vn -0.0525 -0.0573 0.9970
vn -0.1596 0.8613 0.4825
vn -0.0920 -0.0348 0.9951
vn -0.0932 -0.0317 0.9951
vn -0.1137 -0.0295 0.9931
vn 0.0061 -1.0000 0.0011
vn -0.0574 -0.0412 0.9975
vn -0.1121 -0.0166 0.9936
vn -0.1318 -0.0218 0.9910
vn 0.0755 -0.9370 -0.3410
vn 0.0277 -0.9882 0.1508
vn -0.1152 0.9044 0.4109
vn 0.1588 0.1156 -0.9805
vn -0.0742 0.0267 0.9969
vn -0.1230 -0.0152 0.9923
vn -0.1538 -0.0367 0.9874
vn -0.1021 0.0139 0.9947
vn 0.1142 0.0542 -0.9920
vn -0.1232 -0.0306 0.9919
vn -0.0877 0.9961 -0.0117
vn -0.0938 0.0726 0.9929
vn 0.0446 -0.9902 0.1322
vn 0.0838 -0.9348 -0.3451
vn -0.0198 0.9958 -0.0895
vn 0.1543 0.0343 -0.9874
vn -0.0349 0.9987 -0.0367
vn -0.1488 0.7990 0.5826
vn -0.1757 0.8973 0.4049
vn -0.1063 0.9703 0.2172
vn 0.1578 0.0291 -0.9870
vn -0.1197 -0.0338 0.9922
vn -0.0343 -0.8841 0.4661
vn 0.0050 -1.0000 0.0075
vn 0.0026 -1.0000 0.0006
vn -0.0000 -1.0000 0.0005
vn -0.0335 0.9993 0.0146
vn -0.1074 -0.0158 0.9941
vn -0.1001 0.9950 -0.0047
vn 0.1151 0.0305 -0.9929
vn 0.1523 0.0398 -0.9875
vn 0.1656 0.1413 -0.9760
vn -0.1317 0.3760 0.9172
vn -0.0696 -0.0051 0.9976
vn 0.0641 -0.9975 0.0286
vn 0.1858 0.0659 -0.9804
vn 0.0682 -0.9953 0.0690
vn 0.1724 0.0501 -0.9838
vn -0.1468 -0.4743 0.8681
vn -0.1326 -0.1645 0.9774
vn -0.1353 -0.0301 0.9903
vn 0.0274 0.0070 -0.9996
vn 0.0382 0.9568 -0.2882
vn -0.0316 0.9617 -0.2722
vn -0.1487 0.0831 0.9854
vn -0.1595 0.8620 0.4812
vn -0.1558 -0.0446 0.9868
vn 0.0628 0.0361 -0.9974
vn -0.8008 -0.4719 0.3689
vn -0.8644 -0.4784 0.1547
vn -0.8078 -0.4734 0.3512
vn 0.0462 -0.9919 0.1187
vn 0.1116 0.9217 -0.3716
vn -0.9955 0.0107 -0.0942
vn -0.9979 -0.0208 -0.0619
vn -0.9950 -0.0183 -0.0982
vn -0.1319 0.5070 0.8518
vn -0.1324 -0.0193 0.9910
vn -0.9854 -0.0282 -0.1679
vn -0.8685 -0.4777 0.1325
vn -0.9316 0.0018 -0.3634
vn -0.6247 0.7789 -0.0554
vn -0.5142 0.8577 -0.0052
vn -0.5236 0.8519 -0.0137
vn 0.1443 0.1365 -0.9801
vn -0.9858 -0.0936 -0.1391
vn -0.9849 -0.0890 -0.1484
vn -0.6298 0.7747 -0.0575
vn -0.3874 0.9219 0.0008
vn -0.6469 -0.1807 0.7408
vn -0.6469 -0.1807 0.7408
vn -0.6469 -0.1807 0.7408
vn -0.2421 0.9545 0.1739
vn -0.9891 0.0037 -0.1474
vn -0.9896 0.0107 -0.1435
vn -0.9885 0.0072 -0.1510
vn -0.2338 0.9540 0.1877
vn 0.0925 -0.9316 -0.3515
vn -0.9875 0.0028 -0.1573
vn -0.1083 -0.0150 0.9940
vn -0.9712 -0.0961 -0.2180
vn -0.8291 0.0933 -0.5512
vn -0.8784 0.0761 -0.4719
vn -0.7019 0.3398 -0.6260
vn -0.3273 0.9446 0.0234
vn -0.1457 -0.0369 0.9886
vn -0.1447 -0.0243 0.9892
vn -0.9874 0.0176 -0.1571
vn -0.9829 -0.0967 -0.1564
vn -0.9847 -0.0954 -0.1460
vn -0.1685 0.9853 0.0286
vn -0.0193 0.9997 -0.0170
vn -0.5328 0.8460 -0.0198
vn -0.5248 0.8509 -0.0244
vn -0.9922 -0.1099 0.0590
vn 0.0681 0.9935 0.0914
vn 0.0681 0.9935 0.0914
vn 0.0681 0.9935 0.0914
vn -0.9741 -0.0941 -0.2055
vn -0.3060 -0.9486 -0.0807
vn -0.3060 -0.9486 -0.0807
vn -0.3060 -0.9486 -0.0807
vn -0.7200 0.6926 -0.0438
vn -0.5451 0.8375 -0.0390
vn -0.5591 0.8281 -0.0395
vn -0.9891 -0.0091 -0.1471
vn -0.0732 0.0065 0.9973
vn -0.0523 -0.0013 0.9986
vn -0.9925 -0.1223 0.0070
vn -0.9844 -0.0907 -0.1506
vn -0.1384 0.0051 -0.9904
vn -0.5215 0.8531 -0.0129
vn -0.9747 -0.0908 -0.2044
vn -0.0939 -0.9956 -0.0008
vn -0.9756 -0.1101 -0.1898
vn -0.9886 -0.0415 -0.1447
vn -0.9729 -0.0933 -0.2116
vn -0.7042 0.7094 -0.0300
vn -0.5206 0.8537 -0.0129
vn -0.5733 -0.4956 0.6525
vn -0.5733 -0.4956 0.6525
vn -0.5733 -0.4956 0.6525
vn -0.7014 0.7122 -0.0284
vn -0.9734 -0.0924 -0.2099
vn -0.1529 -0.0466 0.9872
vn -0.9812 -0.0834 -0.1739
vn -0.6399 -0.0841 0.7638
vn -0.6399 -0.0841 0.7638
vn -0.6399 -0.0841 0.7638
vn -0.9692 -0.0911 -0.2288
vn -0.1992 0.0149 -0.9798
vn -0.1999 0.0150 -0.9797
vn -0.2153 0.0125 -0.9765
vn -0.4845 -0.0496 -0.8734
vn -0.9857 -0.0703 -0.1534
vn -0.5092 -0.0556 -0.8588
vn 0.1210 -0.9218 -0.3683
vn -0.9822 -0.0839 -0.1678
vn -0.9806 -0.0881 -0.1750
vn -0.3396 -0.9305 -0.1372
vn -0.3494 -0.9270 -0.1361
vn -0.3571 -0.9243 -0.1350
vn -0.3222 -0.9368 -0.1361
vn 0.0001 -1.0000 -0.0001
vn -0.1504 -0.0292 0.9882
vn 0.1059 0.0606 -0.9925
vn 0.1459 0.9889 0.0268
vn 0.1459 0.9889 0.0268
vn 0.1459 0.9889 0.0268
vn -0.9914 0.0009 -0.1305
vn -0.9927 0.0135 -0.1195
vn -0.0826 -0.9952 0.0525
vn -0.0163 0.9996 -0.0247
vn -0.1540 -0.0183 0.9879
vn -0.1586 -0.0215 0.9871
vn -0.1596 -0.0208 0.9870
vn -0.1555 -0.0291 0.9874
vn -0.1632 -0.0533 0.9851
vn 0.1918 0.0821 -0.9780
vn 0.1007 0.0432 -0.9940
vn -0.9850 -0.0833 -0.1512
vn -0.1796 0.9092 0.3755
vn -0.9127 0.4067 -0.0393
vn -0.6341 0.7724 0.0365
vn -0.7628 0.6440 -0.0579
vn -0.7628 0.6440 -0.0579
vn -0.7628 0.6440 -0.0579
vn -0.2346 -0.9604 -0.1506
vn -0.9827 -0.0754 -0.1694
vn -0.9880 -0.0666 -0.1395
vn -0.9629 -0.1329 -0.2350
vn -0.8332 -0.5447 -0.0952
vn -0.8733 -0.4671 0.1382
vn -0.8267 -0.5496 -0.1203
vn -0.9839 -0.0878 -0.1557
vn -0.9629 -0.1459 -0.2272
vn -0.9936 -0.0777 -0.0822
vn -0.7423 -0.0538 -0.6680
vn -0.7423 -0.0538 -0.6680
vn -0.7423 -0.0538 -0.6680
vn -0.9855 -0.0917 -0.1430
vn -0.9398 -0.3349 0.0678
vn -0.1905 -0.0513 0.9804
vn -0.0068 -0.9934 -0.1149
vn -0.9906 -0.0856 -0.1066
vn -0.9630 -0.2592 0.0741
vn -0.1935 -0.0749 0.9782
vn 0.0725 0.0496 -0.9961
vn -0.0486 -0.0083 0.9988
vn -0.9831 -0.1007 -0.1530
vn -0.9820 -0.0996 -0.1607
vn -0.9833 -0.1055 -0.1483
vn -0.9797 -0.1728 0.1013
vn -0.9922 -0.0731 -0.1008
vn -0.9798 -0.1728 0.1004
vn -0.1982 -0.0566 0.9785
vn -0.1486 -0.0196 0.9887
vn -0.1822 -0.0358 0.9826
vn -0.9837 -0.0777 -0.1624
vn -0.8877 -0.1157 0.4456
vn -0.8891 -0.0690 0.4525
vn -0.9147 -0.0745 0.3973
vn -0.9979 -0.0574 0.0287
vn -0.9904 -0.1315 -0.0420
vn -0.3738 0.9270 0.0299
vn -0.6702 -0.0996 0.7355
vn -0.9830 -0.1125 -0.1449
vn -0.9869 -0.1241 -0.1027
vn -0.6519 -0.0843 0.7536
vn -0.9903 -0.1316 -0.0446
vn -0.6798 -0.1026 0.7262
vn -0.9827 -0.1137 -0.1465
vn -0.8100 -0.1221 0.5736
vn -0.8027 0.5921 -0.0719
vn -0.8810 0.4617 -0.1034
vn -0.9917 -0.1287 -0.0048
vn -0.8120 -0.1224 0.5707
vn -0.8834 0.4568 -0.1045
vn -0.9917 -0.1286 -0.0034
vn 0.4231 -0.0341 -0.9055
vn 0.4854 -0.0632 -0.8720
vn 0.4200 -0.0319 -0.9070
vn 0.9918 -0.1264 -0.0170
vn 0.9925 -0.1216 -0.0112
vn 0.9932 -0.1166 -0.0058
vn 0.9882 -0.1460 0.0454
vn 0.9900 -0.1372 0.0316
vn 0.9906 -0.1344 0.0272
vn 0.9902 -0.1377 -0.0233
vn 0.8790 0.4664 -0.0992
vn 0.6623 0.7489 0.0230
vn 0.6306 0.7752 0.0372
vn 0.9939 -0.1099 0.0023
vn 0.9916 -0.1280 0.0173
vn 0.9704 0.2354 0.0538
vn 0.9734 0.2221 0.0562
vn 0.9778 0.0798 0.1940
vn 0.9810 0.1061 0.1627
vn 0.9565 0.1151 0.2682
vn -0.0967 -0.0373 0.9946
vn -0.8010 0.5944 -0.0713
vn 0.9012 0.4174 -0.1167
vn 0.6875 -0.2436 0.6841
vn 0.6730 -0.2313 0.7025
vn 0.6830 -0.2400 0.6899
vn 0.6962 -0.2337 0.6788
vn -0.6101 -0.1380 -0.7802
vn -0.5403 -0.1911 -0.8195
vn -0.5755 -0.1357 -0.8065
vn 0.0214 -0.9942 -0.1055
vn 0.0214 -0.9942 -0.1055
vn 0.0214 -0.9942 -0.1055
vn -0.5173 -0.1828 -0.8360
vn 0.4840 -0.2541 -0.8374
vn 0.6138 -0.1685 -0.7713
vn 0.7192 -0.1828 -0.6703
vn 0.6626 -0.6382 -0.3921
vn 0.4765 -0.6938 -0.5400
vn 0.5169 -0.6609 -0.5441
vn 0.7942 -0.1415 -0.5910
vn 0.0563 -0.9968 0.0559
vn 0.0563 -0.9968 0.0559
vn 0.0563 -0.9968 0.0559
vn 0.1562 -0.9843 -0.0825
vn 0.1571 -0.9841 -0.0826
vn 0.1531 -0.9846 -0.0846
vn 0.1515 -0.9847 -0.0857
vn 0.0000 1.0000 0.0000
vn 0.0000 1.0000 0.0000
vn 0.0000 1.0000 0.0000
vn 0.0000 1.0000 0.0000
vn 0.0000 1.0000 0.0000
vn 0.0000 1.0000 0.0000
vn 0.0000 1.0000 0.0000
vn 0.0000 1.0000 0.0000
vn 0.0000 1.0000 0.0000
vn 0.0000 1.0000 0.0000
vn 0.0000 1.0000 0.0000
vn 0.0000 1.0000 0.0000
vn 0.0000 1.0000 0.0000
vn 0.0000 1.0000 0.0000
vn 0.0000 1.0000 0.0000
vn 0.0000 1.0000 0.0000
vn 0.0000 1.0000 0.0000
vn 0.0000 1.0000 0.0000
vn 0.0000 1.0000 0.0000
vn 0.0000 1.0000 0.0000
vn 0.0000 1.0000 0.0000
vn 0.0000 1.0000 0.0000
vn 0.0000 1.0000 0.0000
vn 0.0000 1.0000 0.0000
vn 0.0000 1.0000 0.0000
vn 0.0000 1.0000 0.0000
vn 0.0000 1.0000 0.0000
vn 0.0000 1.0000 0.0000
vn 0.0000 1.0000 0.0000
vn 0.0000 1.0000 0.0000
vn 0.0000 1.0000 0.0000
vn 0.0000 1.0000 0.0000
vn 0.0000 1.0000 0.0000
vn 0.0000 1.0000 0.0000
vn 0.0000 1.0000 0.0000
vn 0.0000 1.0000 0.0000
vn 0.0000 1.0000 0.0000
vn 0.0000 1.0000 0.0000
vn 0.0000 1.0000 0.0000
vn 0.0000 1.0000 0.0000
vn 0.0000 1.0000 0.0000
vn 0.0000 1.0000 0.0000
vn 0.0000 1.0000 0.0000
vn 0.0000 1.0000 0.0000
vn 0.0000 1.0000 0.0000
vn 0.0000 1.0000 0.0000
vn 0.0000 1.0000 0.0000
vn 0.0000 1.0000 0.0000
vn 0.0000 1.0000 0.0000
vn 0.0000 1.0000 0.0000
vn 0.0000 1.0000 0.0000
vn 0.0000 1.0000 0.0000
vn 0.0000 1.0000 0.0000
vn 0.0000 1.0000 0.0000
f 243/243/243 244/244/244 245/245/245
f 763/763/763 246/246/246 764/764/764
f 244/244/244 243/243/243 247/247/247
f 764/764/764 246/246/246 248/248/248
f 248/248/248 249/249/249 764/764/764
f 250/250/250 251/251/251 252/252/252
f 244/244/244 247/247/247 253/253/253
f 254/254/254 253/253/253 247/247/247
f 250/250/250 255/255/255 251/251/251
f 249/249/249 248/248/248 256/256/256
f 257/257/257 249/249/249 256/256/256
f 258/258/258 259/259/259 260/260/260
f 261/261/261 262/262/262 263/263/263
f 248/248/248 246/246/246 264/264/264
f 253/253/253 254/254/254 265/265/265
f 266/266/266 267/267/267 268/268/268
f 269/269/269 270/270/270 271/271/271
f 257/257/257 272/272/272 273/273/273
f 274/274/274 275/275/275 276/276/276
f 261/261/261 277/277/277 262/262/262
f 278/278/278 257/257/257 256/256/256
f 279/279/279 280/280/280 281/281/281
f 282/282/282 283/283/283 284/284/284
f 285/285/285 286/286/286 287/287/287
f 288/288/288 289/289/289 290/290/290
f 283/283/283 291/291/291 284/284/284
f 292/292/292 293/293/293 294/294/294
f 276/276/276 275/275/275 295/295/295
f 257/257/257 278/278/278 272/272/272
f 296/296/296 287/287/287 286/286/286
f 256/256/256 248/248/248 264/264/264
f 297/297/297 262/262/262 277/277/277
f 279/279/279 298/298/298 280/280/280
f 288/288/288 290/290/290 299/299/299
f 276/276/276 295/295/295 300/300/300
f 765/765/765 262/262/262 297/297/297
f 299/299/299 301/301/301 288/288/288
f 301/301/301 299/299/299 302/302/302
f 278/278/278 303/303/303 304/304/304
f 304/304/304 305/305/305 306/306/306
f 301/301/301 307/307/307 308/308/308
f 301/301/301 302/302/302 307/307/307
f 309/309/309 310/310/310 311/311/311
f 310/310/310 312/312/312 311/311/311
f 313/313/313 765/765/765 297/297/297
f 314/314/314 315/315/315 316/316/316
f 766/766/766 765/765/765 317/317/317
f 318/318/318 319/319/319 320/320/320
f 321/321/321 322/322/322 323/323/323
f 324/324/324 306/306/306 317/317/317
f 304/304/304 303/303/303 305/305/305
f 303/303/303 278/278/278 256/256/256
f 310/310/310 325/325/325 312/312/312
f 320/320/320 326/326/326 318/318/318
f 313/313/313 324/324/324 317/317/317
f 327/327/327 328/328/328 329/329/329
f 309/309/309 311/311/311 330/330/330
f 317/317/317 765/765/765 313/313/313
f 305/305/305 331/331/331 306/306/306
f 332/332/332 318/318/318 326/326/326
f 315/315/315 333/333/333 334/334/334
f 335/335/335 336/336/336 337/337/337
f 338/338/338 339/339/339 340/340/340
f 315/315/315 334/334/334 316/316/316
f 341/341/341 318/318/318 332/332/332
f 342/342/342 343/343/343 339/339/339
f 338/338/338 342/342/342 339/339/339
f 318/318/318 344/344/344 345/345/345
f 346/346/346 341/341/341 332/332/332
f 347/347/347 348/348/348 349/349/349
f 318/318/318 341/341/341 344/344/344
f 350/350/350 351/351/351 352/352/352
f 353/353/353 330/330/330 354/354/354
f 331/331/331 317/317/317 306/306/306
f 330/330/330 311/311/311 354/354/354
f 334/334/334 355/355/355 316/316/316
f 315/315/315 356/356/356 333/333/333
f 357/357/357 345/345/345 344/344/344
f 338/338/338 358/358/358 342/342/342
f 359/359/359 353/353/353 360/360/360
f 354/354/354 360/360/360 353/353/353
f 329/329/329 328/328/328 361/361/361
f 336/336/336 362/362/362 363/363/363
f 364/364/364 357/357/357 344/344/344
f 343/343/343 365/365/365 366/366/366
f 342/342/342 365/365/365 343/343/343
f 315/315/315 367/367/367 356/356/356
f 368/368/368 369/369/369 370/370/370
f 371/371/371 372/372/372 373/373/373
f 310/310/310 374/374/374 325/325/325
f 375/375/375 366/366/366 365/365/365
f 376/376/376 377/377/377 378/378/378
f 379/379/379 367/367/367 380/380/380
f 375/375/375 381/381/381 366/366/366
f 382/382/382 357/357/357 364/364/364
f 368/368/368 370/370/370 383/383/383
f 384/384/384 385/385/385 386/386/386
f 369/369/369 387/387/387 388/388/388
f 368/368/368 389/389/389 369/369/369
f 382/382/382 390/390/390 357/357/357
f 391/391/391 392/392/392 393/393/393
f 394/394/394 395/395/395 396/396/396
f 359/359/359 360/360/360 397/397/397
f 367/367/367 379/379/379 356/356/356
f 388/388/388 387/387/387 398/398/398
f 16/16/16 17/17/17 18/18/18
f 399/399/399 357/357/357 400/400/400
f 316/316/316 355/355/355 401/401/401
f 402/402/402 403/403/403 404/404/404
f 405/405/405 406/406/406 407/407/407
f 406/406/406 405/405/405 408/408/408
f 390/390/390 400/400/400 357/357/357
f 403/403/403 409/409/409 404/404/404
f 360/360/360 410/410/410 397/397/397
f 411/411/411 372/372/372 371/371/371
f 412/412/412 413/413/413 414/414/414
f 415/415/415 416/416/416 417/417/417
f 374/374/374 418/418/418 325/325/325
f 419/419/419 384/384/384 386/386/386
f 369/369/369 389/389/389 387/387/387
f 18/18/18 19/19/19 16/16/16
f 420/420/420 383/383/383 421/421/421
f 419/419/419 422/422/422 384/384/384
f 379/379/379 380/380/380 423/423/423
f 424/424/424 409/409/409 403/403/403
f 375/375/375 365/365/365 425/425/425
f 406/406/406 408/408/408 426/426/426
f 17/17/17 20/20/20 18/18/18
f 406/406/406 427/427/427 407/407/407
f 21/21/21 22/22/22 23/23/23
f 428/428/428 429/429/429 430/430/430
f 431/431/431 407/407/407 427/427/427
f 388/388/388 432/432/432 433/433/433
f 434/434/434 375/375/375 425/425/425
f 23/23/23 22/22/22 24/24/24
f 420/420/420 368/368/368 383/383/383
f 390/390/390 435/435/435 400/400/400
f 436/436/436 437/437/437 438/438/438
f 439/439/439 440/440/440 441/441/441
f 380/380/380 442/442/442 423/423/423
f 415/415/415 417/417/417 443/443/443
f 403/403/403 444/444/444 445/445/445
f 446/446/446 351/351/351 350/350/350
f 388/388/388 398/398/398 432/432/432
f 424/424/424 447/447/447 409/409/409
f 447/447/447 424/424/424 448/448/448
f 427/427/427 449/449/449 431/431/431
f 450/450/450 433/433/433 451/451/451
f 767/767/767 452/452/452 453/453/453
f 454/454/454 455/455/455 456/456/456
f 448/448/448 424/424/424 457/457/457
f 449/449/449 427/427/427 458/458/458
f 336/336/336 335/335/335 362/362/362
f 432/432/432 451/451/451 433/433/433
f 459/459/459 460/460/460 461/461/461
f 25/25/25 239/239/239 26/26/26
f 442/442/442 462/462/462 423/423/423
f 361/361/361 328/328/328 463/463/463
f 444/444/444 403/403/403 402/402/402
f 27/27/27 28/28/28 29/29/29
f 464/464/464 452/452/452 767/767/767
f 465/465/465 466/466/466 467/467/467
f 466/466/466 468/468/468 467/467/467
f 458/458/458 469/469/469 449/449/449
f 470/470/470 471/471/471 472/472/472
f 415/415/415 473/473/473 416/416/416
f 30/30/30 29/29/29 28/28/28
f 474/474/474 372/372/372 411/411/411
f 415/415/415 475/475/475 473/473/473
f 444/444/444 402/402/402 476/476/476
f 477/477/477 478/478/478 469/469/469
f 458/458/458 479/479/479 469/469/469
f 460/460/460 459/459/459 436/436/436
f 471/471/471 470/470/470 480/480/480
f 31/31/31 32/32/32 30/30/30
f 30/30/30 32/32/32 29/29/29
f 466/466/466 481/481/481 468/468/468
f 383/383/383 482/482/482 421/421/421
f 483/483/483 484/484/484 485/485/485
f 457/457/457 486/486/486 448/448/448
f 487/487/487 488/488/488 489/489/489
f 490/490/490 491/491/491 492/492/492
f 33/33/33 240/240/240 34/34/34
f 481/481/481 466/466/466 493/493/493
f 494/494/494 495/495/495 496/496/496
f 497/497/497 361/361/361 463/463/463
f 498/498/498 397/397/397 410/410/410
f 484/484/484 483/483/483 499/499/499
f 335/335/335 500/500/500 501/501/501
f 27/27/27 35/35/35 28/28/28
f 383/383/383 502/502/502 482/482/482
f 36/36/36 37/37/37 38/38/38
f 451/451/451 503/503/503 450/450/450
f 477/477/477 469/469/469 479/479/479
f 39/39/39 31/31/31 30/30/30
f 411/411/411 371/371/371 504/504/504
f 505/505/505 462/462/462 442/442/442
f 501/501/501 362/362/362 335/335/335
f 506/506/506 490/490/490 492/492/492
f 40/40/40 41/41/41 42/42/42
f 35/35/35 27/27/27 43/43/43
f 44/44/44 39/39/39 45/45/45
f 31/31/31 39/39/39 44/44/44
f 45/45/45 46/46/46 44/44/44
f 28/28/28 35/35/35 43/43/43
f 507/507/507 441/441/441 440/440/440
f 374/374/374 508/508/508 418/418/418
f 509/509/509 450/450/450 503/503/503
f 490/490/490 506/506/506 510/510/510
f 385/385/385 384/384/384 511/511/511
f 42/42/42 41/41/41 47/47/47
f 48/48/48 37/37/37 36/36/36
f 49/49/49 41/41/41 40/40/40
f 430/430/430 429/429/429 512/512/512
f 436/436/436 459/459/459 437/437/437
f 513/513/513 514/514/514 515/515/515
f 46/46/46 45/45/45 50/50/50
f 41/41/41 49/49/49 51/51/51
f 516/516/516 372/372/372 474/474/474
f 504/504/504 371/371/371 517/517/517
f 52/52/52 53/53/53 54/54/54
f 518/518/518 499/499/499 483/483/483
f 55/55/55 56/56/56 57/57/57
f 58/58/58 59/59/59 49/49/49
f 519/519/519 520/520/520 768/768/768
f 60/60/60 61/61/61 62/62/62
f 51/51/51 49/49/49 59/59/59
f 521/521/521 397/397/397 498/498/498
f 522/522/522 523/523/523 524/524/524
f 63/63/63 64/64/64 56/56/56
f 65/65/65 66/66/66 67/67/67
f 47/47/47 68/68/68 42/42/42
f 525/525/525 488/488/488 487/487/487
f 523/523/523 522/522/522 526/526/526
f 56/56/56 64/64/64 57/57/57
f 69/69/69 62/62/62 61/61/61
f 51/51/51 47/47/47 41/41/41
f 527/527/527 516/516/516 474/474/474
f 27/27/27 70/70/70 43/43/43
f 71/71/71 54/54/54 72/72/72
f 57/57/57 64/64/64 73/73/73
f 384/384/384 528/528/528 511/511/511
f 51/51/51 68/68/68 47/47/47
f 69/69/69 61/61/61 68/68/68
f 401/401/401 355/355/355 529/529/529
f 68/68/68 51/51/51 74/74/74
f 505/505/505 530/530/530 462/462/462
f 496/496/496 495/495/495 531/531/531
f 446/446/446 350/350/350 532/532/532
f 54/54/54 53/53/53 75/75/75
f 76/76/76 77/77/77 78/78/78
f 74/74/74 69/69/69 68/68/68
f 768/768/768 533/533/533 519/519/519
f 76/76/76 79/79/79 80/80/80
f 384/384/384 534/534/534 528/528/528
f 535/535/535 437/437/437 459/459/459
f 73/73/73 81/81/81 57/57/57
f 536/536/536 504/504/504 517/517/517
f 463/463/463 537/537/537 497/497/497
f 522/522/522 524/524/524 538/538/538
f 77/77/77 76/76/76 80/80/80
f 374/374/374 539/539/539 508/508/508
f 82/82/82 83/83/83 84/84/84
f 85/85/85 67/67/67 66/66/66
f 54/54/54 75/75/75 72/72/72
f 540/540/540 536/536/536 517/517/517
f 505/505/505 541/541/541 530/530/530
f 86/86/86 87/87/87 79/79/79
f 70/70/70 88/88/88 43/43/43
f 401/401/401 529/529/529 542/542/542
f 508/508/508 539/539/539 543/543/543
f 544/544/544 501/501/501 500/500/500
f 545/545/545 482/482/482 502/502/502
f 496/496/496 546/546/546 547/547/547
f 546/546/546 496/496/496 531/531/531
f 509/509/509 503/503/503 548/548/548
f 57/57/57 81/81/81 89/89/89
f 483/483/483 549/549/549 518/518/518
f 538/538/538 524/524/524 550/550/550
f 551/551/551 515/515/515 514/514/514
f 552/552/552 525/525/525 553/553/553
f 553/553/553 554/554/554 552/552/552
f 545/545/545 502/502/502 555/555/555
f 527/527/527 474/474/474 556/556/556
f 543/543/543 539/539/539 557/557/557
f 499/499/499 518/518/518 558/558/558
f 90/90/90 72/72/72 75/75/75
f 500/500/500 559/559/559 544/544/544
f 525/525/525 487/487/487 553/553/553
f 560/560/560 532/532/532 350/350/350
f 91/91/91 79/79/79 87/87/87
f 540/540/540 517/517/517 561/561/561
f 519/519/519 533/533/533 562/562/562
f 92/92/92 82/82/82 84/84/84
f 80/80/80 79/79/79 91/91/91
f 541/541/541 563/563/563 530/530/530
f 564/564/564 544/544/544 559/559/559
f 563/563/563 541/541/541 565/565/565
f 549/549/549 566/566/566 518/518/518
f 567/567/567 519/519/519 568/568/568
f 550/550/550 569/569/569 538/538/538
f 544/544/544 570/570/570 501/501/501
f 571/571/571 507/507/507 572/572/572
f 561/561/561 573/573/573 540/540/540
f 571/571/571 441/441/441 507/507/507
f 546/546/546 574/574/574 547/547/547
f 459/459/459 575/575/575 535/535/535
f 576/576/576 430/430/430 512/512/512
f 577/577/577 578/578/578 579/579/579
f 93/93/93 88/88/88 70/70/70
f 580/580/580 563/563/563 565/565/565
f 91/91/91 94/94/94 80/80/80
f 571/571/571 572/572/572 581/581/581
f 562/562/562 568/568/568 519/519/519
f 582/582/582 583/583/583 584/584/584
f 561/561/561 517/517/517 585/585/585
f 528/528/528 534/534/534 586/586/586
f 582/582/582 584/584/584 587/587/587
f 579/579/579 578/578/578 588/588/588
f 582/582/582 587/587/587 589/589/589
f 84/84/84 95/95/95 92/92/92
f 590/590/590 591/591/591 592/592/592
f 593/593/593 532/532/532 560/560/560
f 587/587/587 594/594/594 595/595/595
f 596/596/596 591/591/591 590/590/590
f 592/592/592 591/591/591 597/597/597
f 587/587/587 595/595/595 589/589/589
f 598/598/598 599/599/599 600/600/600
f 601/601/601 509/509/509 548/548/548
f 602/602/602 603/603/603 604/604/604
f 548/548/548 605/605/605 601/601/601
f 542/542/542 529/529/529 606/606/606
f 96/96/96 90/90/90 75/75/75
f 602/602/602 604/604/604 607/607/607
f 608/608/608 556/556/556 474/474/474
f 609/609/609 610/610/610 611/611/611
f 610/610/610 612/612/612 611/611/611
f 597/597/597 591/591/591 613/613/613
f 614/614/614 569/569/569 550/550/550
f 615/615/615 528/528/528 586/586/586
f 602/602/602 616/616/616 603/603/603
f 617/617/617 594/594/594 618/618/618
f 619/619/619 557/557/557 539/539/539
f 502/502/502 620/620/620 555/555/555
f 621/621/621 597/597/597 622/622/622
f 597/597/597 613/613/613 622/622/622
f 594/594/594 623/623/623 618/618/618
f 624/624/624 625/625/625 626/626/626
f 611/611/611 627/627/627 609/609/609
f 628/628/628 629/629/629 630/630/630
f 631/631/631 632/632/632 633/633/633
f 602/602/602 634/634/634 616/616/616
f 635/635/635 562/562/562 636/636/636
f 637/637/637 618/618/618 623/623/623
f 594/594/594 617/617/617 638/638/638
f 544/544/544 639/639/639 570/570/570
f 621/621/621 622/622/622 640/640/640
f 595/595/595 594/594/594 638/638/638
f 641/641/641 609/609/609 627/627/627
f 642/642/642 580/580/580 565/565/565
f 518/518/518 566/566/566 558/558/558
f 618/618/618 637/637/637 643/643/643
f 634/634/634 602/602/602 644/644/644
f 637/637/637 645/645/645 643/643/643
f 633/633/633 646/646/646 631/631/631
f 640/640/640 622/622/622 647/647/647
f 648/648/648 649/649/649 650/650/650
f 631/631/631 646/646/646 651/651/651
f 609/609/609 641/641/641 652/652/652
f 653/653/653 575/575/575 459/459/459
f 562/562/562 533/533/533 636/636/636
f 641/641/641 618/618/618 654/654/654
f 655/655/655 656/656/656 657/657/657
f 609/609/609 652/652/652 658/658/658
f 659/659/659 660/660/660 661/661/661
f 643/643/643 654/654/654 618/618/618
f 660/660/660 662/662/662 661/661/661
f 97/97/97 93/93/93 70/70/70
f 654/654/654 652/652/652 641/641/641
f 663/663/663 634/634/634 644/644/644
f 661/661/661 662/662/662 664/664/664
f 606/606/606 665/665/665 542/542/542
f 666/666/666 667/667/667 654/654/654
f 668/668/668 669/669/669 670/670/670
f 669/669/669 668/668/668 671/671/671
f 553/553/553 487/487/487 672/672/672
f 615/615/615 673/673/673 528/528/528
f 537/537/537 463/463/463 674/674/674
f 675/675/675 676/676/676 677/677/677
f 663/663/663 678/678/678 679/679/679
f 580/580/580 642/642/642 680/680/680
f 555/555/555 620/620/620 681/681/681
f 98/98/98 99/99/99 80/80/80
f 663/663/663 644/644/644 678/678/678
f 682/682/682 683/683/683 684/684/684
f 667/667/667 652/652/652 654/654/654
f 98/98/98 80/80/80 94/94/94
f 685/685/685 682/682/682 528/528/528
f 653/653/653 686/686/686 575/575/575
f 566/566/566 687/687/687 688/688/688
f 100/100/100 101/101/101 102/102/102
f 103/103/103 104/104/104 105/105/105
f 689/689/689 667/667/667 666/666/666
f 547/547/547 574/574/574 690/690/690
f 97/97/97 108/108/108 93/93/93
f 691/691/691 692/692/692 679/679/679
f 80/80/80 109/109/109 110/110/110
f 679/679/679 678/678/678 691/691/691
f 693/693/693 694/694/694 695/695/695
f 671/671/671 668/668/668 696/696/696
f 673/673/673 685/685/685 528/528/528
f 697/697/697 698/698/698 699/699/699
f 700/700/700 701/701/701 702/702/702
f 685/685/685 683/683/683 682/682/682
f 689/689/689 703/703/703 667/667/667
f 111/111/111 112/112/112 113/113/113
f 698/698/698 704/704/704 699/699/699
f 705/705/705 704/704/704 698/698/698
f 105/105/105 104/104/104 114/114/114
f 558/558/558 566/566/566 688/688/688
f 706/706/706 707/707/707 708/708/708
f 703/703/703 709/709/709 667/667/667
f 92/92/92 95/95/95 115/115/115
f 701/701/701 700/700/700 710/710/710
f 642/642/642 671/671/671 696/696/696
f 614/614/614 711/711/711 569/569/569
f 116/116/116 117/117/117 118/118/118
f 101/101/101 120/120/120 102/102/102
f 642/642/642 696/696/696 712/712/712
f 713/713/713 709/709/709 703/703/703
f 107/107/107 106/106/106 122/122/122
f 119/119/119 121/121/121 123/123/123
f 701/701/701 710/710/710 714/714/714
f 680/680/680 642/642/642 712/712/712
f 711/711/711 614/614/614 715/715/715
f 1/1/1 2/2/2 3/3/3
f 688/688/688 716/716/716 558/558/558
f 636/636/636 717/717/717 635/635/635
f 124/124/124 125/125/125 241/241/241
f 718/718/718 719/719/719 720/720/720
f 710/710/710 721/721/721 714/714/714
f 704/704/704 720/720/720 719/719/719
f 722/722/722 705/705/705 698/698/698
f 101/101/101 126/126/126 120/120/120
f 704/704/704 705/705/705 720/720/720
f 721/721/721 723/723/723 714/714/714
f 96/96/96 127/127/127 128/128/128
f 129/129/129 130/130/130 131/131/131
f 724/724/724 725/725/725 726/726/726
f 109/109/109 80/80/80 99/99/99
f 727/727/727 718/718/718 720/720/720
f 728/728/728 729/729/729 730/730/730
f 722/722/722 731/731/731 705/705/705
f 732/732/732 728/728/728 730/730/730
f 132/132/132 133/133/133 134/134/134
f 733/733/733 601/601/601 605/605/605
f 135/135/135 134/134/134 133/133/133
f 136/136/136 137/137/137 138/138/138
f 129/129/129 131/131/131 139/139/139
f 726/726/726 711/711/711 724/724/724
f 729/729/729 728/728/728 734/734/734
f 705/705/705 735/735/735 720/720/720
f 140/140/140 120/120/120 126/126/126
f 114/114/114 104/104/104 141/141/141
f 736/736/736 728/728/728 732/732/732
f 122/122/122 106/106/106 142/142/142
f 137/137/137 143/143/143 138/138/138
f 728/728/728 737/737/737 734/734/734
f 711/711/711 715/715/715 724/724/724
f 128/128/128 90/90/90 96/96/96
f 144/144/144 135/135/135 133/133/133
f 738/738/738 736/736/736 732/732/732
f 737/737/737 739/739/739 734/734/734
f 145/145/145 90/90/90 128/128/128
f 720/720/720 735/735/735 740/740/740
f 143/143/143 137/137/137 146/146/146
f 137/137/137 147/147/147 146/146/146
f 734/734/734 739/739/739 741/741/741
f 141/141/141 104/104/104 148/148/148
f 143/143/143 146/146/146 149/149/149
f 742/742/742 769/769/769 743/743/743
f 732/732/732 744/744/744 738/738/738
f 739/739/739 745/745/745 741/741/741
f 4/4/4 3/3/3 2/2/2
f 5/5/5 6/6/6 15/15/15
f 742/742/742 743/743/743 746/746/746
f 744/744/744 732/732/732 747/747/747
f 150/150/150 147/147/147 151/151/151
f 148/148/148 152/152/152 141/141/141
f 140/140/140 153/153/153 120/120/120
f 771/771/771 772/772/772 773/773/773
f 150/150/150 154/154/154 147/147/147
f 153/153/153 155/155/155 120/120/120
f 99/99/99 156/156/156 157/157/157
f 148/148/148 158/158/158 152/152/152
f 7/7/7 8/8/8 9/9/9
f 157/157/157 109/109/109 99/99/99
f 154/154/154 146/146/146 147/147/147
f 154/154/154 159/159/159 146/146/146
f 160/160/160 146/146/146 159/159/159
f 7/7/7 9/9/9 10/10/10
f 131/131/131 161/161/161 139/139/139
f 153/153/153 162/162/162 155/155/155
f 163/163/163 164/164/164 165/165/165
f 166/166/166 167/167/167 168/168/168
f 169/169/169 170/170/170 171/171/171
f 158/158/158 172/172/172 173/173/173
f 174/174/174 175/175/175 176/176/176
f 158/158/158 173/173/173 152/152/152
f 177/177/177 178/178/178 179/179/179
f 180/180/180 181/181/181 182/182/182
f 162/162/162 153/153/153 183/183/183
f 184/184/184 185/185/185 168/168/168
f 186/186/186 187/187/187 188/188/188
f 175/175/175 174/174/174 189/189/189
f 190/190/190 191/191/191 192/192/192
f 167/167/167 184/184/184 168/168/168
f 193/193/193 194/194/194 195/195/195
f 196/196/196 162/162/162 183/183/183
f 197/197/197 198/198/198 199/199/199
f 194/194/194 200/200/200 195/195/195
f 201/201/201 202/202/202 203/203/203
f 188/188/188 204/204/204 186/186/186
f 774/774/774 771/771/771 773/773/773
f 188/188/188 205/205/205 204/204/204
f 206/206/206 207/207/207 208/208/208
f 206/206/206 208/208/208 209/209/209
f 792/792/792 793/793/793 794/794/794
f 11/11/11 12/12/12 13/13/13
f 210/210/210 211/211/211 212/212/212
f 213/213/213 214/214/214 215/215/215
f 216/216/216 215/215/215 214/214/214
f 217/217/217 218/218/218 219/219/219
f 217/217/217 219/219/219 220/220/220
f 204/204/204 221/221/221 186/186/186
f 198/198/198 197/197/197 222/222/222
f 223/223/223 208/208/208 207/207/207
f 775/775/775 776/776/776 777/777/777
f 217/217/217 220/220/220 224/224/224
f 225/225/225 226/226/226 227/227/227
f 778/778/778 779/779/779 780/780/780
f 183/183/183 228/228/228 196/196/196
f 225/225/225 227/227/227 229/229/229
f 221/221/221 230/230/230 186/186/186
f 748/748/748 749/749/749 750/750/750
f 751/751/751 752/752/752 753/753/753
f 229/229/229 227/227/227 231/231/231
f 754/754/754 755/755/755 756/756/756
f 232/232/232 233/233/233 242/242/242
f 2/2/2 14/14/14 4/4/4
f 776/776/776 781/781/781 777/777/777
f 227/227/227 234/234/234 231/231/231
f 793/793/793 795/795/795 794/794/794
f 757/757/757 752/752/752 751/751/751
f 782/782/782 783/783/783 784/784/784
f 235/235/235 236/236/236 237/237/237
f 785/785/785 786/786/786 787/787/787
f 758/758/758 759/759/759 770/770/770
f 758/758/758 760/760/760 759/759/759
f 784/784/784 783/783/783 788/788/788
f 751/751/751 753/753/753 761/761/761
f 221/221/221 238/238/238 230/230/230
f 756/756/756 755/755/755 762/762/762
f 789/789/789 791/791/791 790/790/790
f 796/796/796 797/797/797 798/798/798
f 796/796/796 798/798/798 797/797/797
f 796/796/796 798/798/798 799/799/799
f 796/796/796 799/799/799 798/798/798
f 796/796/796 799/799/799 797/797/797
f 796/796/796 797/797/797 799/799/799
f 800/800/800 801/801/801 802/802/802
f 800/800/800 802/802/802 801/801/801
f 800/800/800 802/802/802 803/803/803
f 800/800/800 803/803/803 802/802/802
f 800/800/800 803/803/803 804/804/804
f 800/800/800 804/804/804 803/803/803
f 800/800/800 804/804/804 805/805/805
f 800/800/800 805/805/805 804/804/804
f 800/800/800 805/805/805 806/806/806
f 800/800/800 806/806/806 805/805/805
f 800/800/800 806/806/806 807/807/807
f 800/800/800 807/807/807 806/806/806
f 800/800/800 807/807/807 808/808/808
f 800/800/800 808/808/808 807/807/807
f 800/800/800 808/808/808 809/809/809
f 800/800/800 809/809/809 808/808/808
f 800/800/800 809/809/809 810/810/810
f 800/800/800 810/810/810 809/809/809
f 800/800/800 810/810/810 811/811/811
f 800/800/800 811/811/811 810/810/810
f 800/800/800 811/811/811 812/812/812
f 800/800/800 812/812/812 811/811/811
f 800/800/800 812/812/812 813/813/813
f 800/800/800 813/813/813 812/812/812
f 800/800/800 813/813/813 814/814/814
f 800/800/800 814/814/814 813/813/813
f 800/800/800 814/814/814 815/815/815
f 800/800/800 815/815/815 814/814/814
f 800/800/800 815/815/815 816/816/816
f 800/800/800 816/816/816 815/815/815
f 800/800/800 816/816/816 817/817/817
f 800/800/800 817/817/817 816/816/816
f 800/800/800 817/817/817 818/818/818
f 800/800/800 818/818/818 817/817/817
f 800/800/800 818/818/818 819/819/819
f 800/800/800 819/819/819 818/818/818
f 800/800/800 819/819/819 820/820/820
f 800/800/800 820/820/820 819/819/819
f 800/800/800 820/820/820 821/821/821
f 800/800/800 821/821/821 820/820/820
f 800/800/800 821/821/821 822/822/822
f 800/800/800 822/822/822 821/821/821
f 800/800/800 822/822/822 823/823/823
f 800/800/800 823/823/823 822/822/822
f 800/800/800 823/823/823 824/824/824
f 800/800/800 824/824/824 823/823/823
f 800/800/800 824/824/824 825/825/825
f 800/800/800 825/825/825 824/824/824
f 800/800/800 825/825/825 826/826/826
f 800/800/800 826/826/826 825/825/825
f 800/800/800 826/826/826 827/827/827
f 800/800/800 827/827/827 826/826/826
f 800/800/800 827/827/827 828/828/828
f 800/800/800 828/828/828 827/827/827
f 800/800/800 828/828/828 829/829/829
f 800/800/800 829/829/829 828/828/828
f 800/800/800 829/829/829 830/830/830
f 800/800/800 830/830/830 829/829/829
f 800/800/800 830/830/830 831/831/831
f 800/800/800 831/831/831 830/830/830
f 800/800/800 831/831/831 832/832/832
f 800/800/800 832/832/832 831/831/831
f 800/800/800 832/832/832 833/833/833
f 800/800/800 833/833/833 832/832/832
f 800/800/800 833/833/833 834/834/834
f 800/800/800 834/834/834 833/833/833
f 800/800/800 834/834/834 835/835/835
f 800/800/800 835/835/835 834/834/834
f 800/800/800 835/835/835 836/836/836
f 800/800/800 836/836/836 835/835/835
f 800/800/800 836/836/836 837/837/837
f 800/800/800 837/837/837 836/836/836
f 800/800/800 837/837/837 838/838/838
f 800/800/800 838/838/838 837/837/837
f 800/800/800 838/838/838 839/839/839
f 800/800/800 839/839/839 838/838/838
f 800/800/800 839/839/839 840/840/840
f 800/800/800 840/840/840 839/839/839
f 800/800/800 840/840/840 841/841/841
f 800/800/800 841/841/841 840/840/840
f 800/800/800 841/841/841 842/842/842
f 800/800/800 842/842/842 841/841/841
f 800/800/800 842/842/842 843/843/843
f 800/800/800 843/843/843 842/842/842
f 800/800/800 843/843/843 844/844/844
f 800/800/800 844/844/844 843/843/843
f 800/800/800 844/844/844 845/845/845
f 800/800/800 845/845/845 844/844/844
f 800/800/800 845/845/845 846/846/846
f 800/800/800 846/846/846 845/845/845
f 800/800/800 846/846/846 847/847/847
f 800/800/800 847/847/847 846/846/846
f 800/800/800 847/847/847 848/848/848
f 800/800/800 848/848/848 847/847/847
f 800/800/800 848/848/848 849/849/849
f 800/800/800 849/849/849 848/848/848
f 800/800/800 849/849/849 801/801/801
f 800/800/800 801/801/801 849/849/849
