o forearm_right
v 0.80919 2.36718 -0.18586
v 0.78279 2.21999 -0.11784
v 0.78279 2.21999 -0.11784
v 0.76948 2.35006 -0.16219
v 1.24353 2.02582 -0.16317
v 1.24353 2.02582 -0.16317
v 1.24353 2.02582 -0.16317
v 1.27211 1.90878 -0.22549
v 1.27211 1.90878 -0.22549
v 1.27211 1.90878 -0.22549
v 1.21679 1.91483 -0.30587
v 1.21679 1.91483 -0.30587
v 1.21679 1.91483 -0.30587
v 1.22812 1.81723 -0.24943
v 1.22812 1.81723 -0.24943
v 1.22812 1.81723 -0.24943
v 1.22812 1.81723 -0.24943
v 1.22812 1.81723 -0.24943
v 1.22812 1.81723 -0.24943
v 1.22812 1.81723 -0.24943
v 1.22812 1.81723 -0.24943
v 1.23488 1.88038 -0.19362
v 1.23488 1.88038 -0.19362
v 1.23488 1.88038 -0.19362
v 1.23488 1.88038 -0.19362
v 1.23488 1.88038 -0.19362
v 1.23488 1.88038 -0.19362
v 1.19381 1.81615 -0.19924
v 1.19381 1.81615 -0.19924
v 1.26193 1.88200 -0.12501
v 1.26193 1.88200 -0.12501
v 1.26193 1.88200 -0.12501
v 1.19296 2.02923 -0.24713
v 1.19296 2.02923 -0.24713
v 1.19296 2.02923 -0.24713
v 1.19296 2.02923 -0.24713
v 1.19841 1.96132 -0.08132
v 1.19841 1.96132 -0.08132
v 1.19841 1.96132 -0.08132
v 1.22387 1.98356 -0.08100
v 1.22387 1.98356 -0.08100
v 1.22387 1.98356 -0.08100
v 1.25163 1.85278 -0.27307
v 1.25163 1.85278 -0.27307
v 1.25163 1.85278 -0.27307
v 1.19781 1.89886 -0.28471
v 1.19781 1.89886 -0.28471
v 1.19781 1.89886 -0.28471
v 1.20962 1.85217 -0.07892
v 1.20962 1.85217 -0.07892
v 1.20962 1.85217 -0.07892
v 1.16231 1.84058 -0.09116
v 1.16231 1.84058 -0.09116
v 1.16231 1.84058 -0.09116
v 1.16231 1.84058 -0.09116
v 1.16231 1.84058 -0.09116
v 1.21620 1.86201 -0.13855
v 1.21620 1.86201 -0.13855
v 1.21620 1.86201 -0.13855
v 1.21620 1.86201 -0.13855
v 1.21620 1.86201 -0.13855
v 1.12823 2.23875 -0.13483
v 1.12823 2.23875 -0.13483
v 1.12823 2.23875 -0.13483
v 1.22188 2.01018 -0.13240
v 1.22188 2.01018 -0.13240
v 1.22188 2.01018 -0.13240
v 1.22188 2.01018 -0.13240
v 1.13763 1.83682 -0.29626
v 1.13763 1.83682 -0.29626
v 1.13763 1.83682 -0.29626
v 1.13763 1.83682 -0.29626
v 1.13763 1.83682 -0.29626
v 1.18137 1.83935 -0.33302
v 1.18137 1.83935 -0.33302
v 1.18137 1.83935 -0.33302
v 1.18137 1.83935 -0.33302
v 1.19401 2.19634 0.02434
v 1.19401 2.19634 0.02434
v 1.19401 2.19634 0.02434
v 1.19401 2.19634 0.02434
v 1.14385 2.12102 -0.19606
v 1.19612 1.81932 -0.14059
v 1.19612 1.81932 -0.14059
v 1.19612 1.81932 -0.14059
v 1.19612 1.81932 -0.14059
v 1.19612 1.81932 -0.14059
v 1.19612 1.81932 -0.14059
v 1.19612 1.81932 -0.14059
v 1.13481 2.40945 0.08837
v 1.18197 2.22240 0.08580
v 1.18197 2.22240 0.08580
v 1.17268 2.20123 -0.08480
v 1.17268 2.20123 -0.08480
v 1.17268 2.20123 -0.08480
v 1.17268 2.20123 -0.08480
v 1.17268 2.20123 -0.08480
v 1.17268 2.20123 -0.08480
v 1.19056 2.13945 -0.08714
v 1.19056 2.13945 -0.08714
v 1.19056 2.13945 -0.08714
v 1.19056 2.13945 -0.08714
v 1.17123 2.11635 -0.01955
v 1.17123 2.11635 -0.01955
v 1.17123 2.11635 -0.01955
v 1.14676 2.23681 -0.09268
v 1.14676 2.23681 -0.09268
v 1.14676 2.23681 -0.09268
v 1.14676 2.23681 -0.09268
v 1.13892 2.19775 0.07419
v 1.13892 2.19775 0.07419
v 1.13892 2.19775 0.07419
v 1.13892 2.19775 0.07419
v 1.15093 2.19371 0.12100
v 1.15093 2.19371 0.12100
v 1.15093 2.19371 0.12100
v 1.15093 2.19371 0.12100
v 1.15093 2.19371 0.12100
v 1.15093 2.19371 0.12100
v 1.05659 2.52244 0.18676
v 1.11646 1.91485 -0.02287
v 1.11646 1.91485 -0.02287
v 1.11646 1.91485 -0.02287
v 1.11646 1.91485 -0.02287
v 1.13172 2.01823 -0.23888
v 1.13172 2.01823 -0.23888
v 1.13172 2.01823 -0.23888
v 1.13172 2.01823 -0.23888
v 1.13769 1.91380 -0.06241
v 1.13769 1.91380 -0.06241
v 1.13769 1.91380 -0.06241
v 1.13769 1.91380 -0.06241
v 1.18696 1.93876 -0.01538
v 1.18696 1.93876 -0.01538
v 1.18696 1.93876 -0.01538
v 1.18696 1.93876 -0.01538
v 1.18696 1.93876 -0.01538
v 1.18696 1.93876 -0.01538
v 1.18696 1.93876 -0.01538
v 1.16155 1.95417 -0.07216
v 1.16155 1.95417 -0.07216
v 1.16155 1.95417 -0.07216
v 1.18970 2.26484 -0.08090
v 1.18970 2.26484 -0.08090
v 1.18970 2.26484 -0.08090
v 1.18970 2.26484 -0.08090
v 1.16140 2.25321 -0.13148
v 1.16140 2.25321 -0.13148
v 1.16140 2.25321 -0.13148
v 1.16140 2.25321 -0.13148
v 1.17367 2.09324 0.03906
v 1.17367 2.09324 0.03906
v 1.17367 2.09324 0.03906
v 1.17367 2.09324 0.03906
v 1.11936 2.26983 0.06826
v 1.15420 2.20808 0.04858
v 1.15420 2.20808 0.04858
v 1.15420 2.20808 0.04858
v 1.15420 2.20808 0.04858
v 1.14498 1.85335 -0.36338
v 1.14498 1.85335 -0.36338
v 1.14498 1.85335 -0.36338
v 1.14498 1.85335 -0.36338
v 1.14498 1.85335 -0.36338
v 1.12692 2.27612 -0.07384
v 1.12692 2.27612 -0.07384
v 1.12692 2.27612 -0.07384
v 1.12692 2.27612 -0.07384
v 1.12692 2.27612 -0.07384
v 1.07936 1.85086 -0.29946
v 1.07936 1.85086 -0.29946
v 1.07936 1.85086 -0.29946
v 1.07936 1.85086 -0.29946
v 1.07936 1.85086 -0.29946
v 1.07936 1.85086 -0.29946
v 1.07936 1.85086 -0.29946
v 1.16848 1.99869 -0.24308
v 1.16848 1.99869 -0.24308
v 1.16848 1.99869 -0.24308
v 1.16848 1.99869 -0.24308
v 1.13049 1.99056 -0.22964
v 1.08775 2.27718 -0.18180
v 1.08775 2.27718 -0.18180
v 1.08775 2.27718 -0.18180
v 1.10290 2.30368 -0.18534
v 1.10290 2.30368 -0.18534
v 1.10290 2.30368 -0.18534
v 1.10298 2.02741 -0.30068
v 1.10298 2.02741 -0.30068
v 1.10298 2.02741 -0.30068
v 1.10298 2.02741 -0.30068
v 1.08339 1.86349 -0.34167
v 1.08339 1.86349 -0.34167
v 1.08339 1.86349 -0.34167
v 1.08339 1.86349 -0.34167
v 1.08339 1.86349 -0.34167
v 1.08339 1.86349 -0.34167
v 1.08339 1.86349 -0.34167
v 1.08339 1.86349 -0.34167
v 1.09527 1.77907 -0.41499
v 1.09527 1.77907 -0.41499
v 1.09527 1.77907 -0.41499
v 1.09527 1.77907 -0.41499
v 1.09527 1.77907 -0.41499
v 1.09527 1.77907 -0.41499
v 1.09527 1.77907 -0.41499
v 1.10343 1.87215 -0.37175
v 1.10343 1.87215 -0.37175
v 1.10343 1.87215 -0.37175
v 1.12176 1.91111 -0.37170
v 1.12176 1.91111 -0.37170
v 1.12176 1.91111 -0.37170
v 1.11882 2.40814 -0.00519
v 1.11931 2.06556 0.02906
v 1.11931 2.06556 0.02906
v 1.11931 2.06556 0.02906
v 1.06847 2.27540 -0.14755
v 1.06847 2.27540 -0.14755
v 1.07607 1.90951 -0.06885
v 1.07607 1.90951 -0.06885
v 1.07607 1.90951 -0.06885
v 1.07607 1.90951 -0.06885
v 1.07607 1.90951 -0.06885
v 1.06793 1.93666 -0.30886
v 1.06793 1.93666 -0.30886
v 1.06793 1.93666 -0.30886
v 1.06793 1.93666 -0.30886
v 1.06793 1.93666 -0.30886
v 1.06793 1.93666 -0.30886
v 1.19234 1.78903 -0.09608
v 1.19234 1.78903 -0.09608
v 1.19234 1.78903 -0.09608
v 1.19234 1.78903 -0.09608
v 1.19234 1.78903 -0.09608
v 1.19234 1.78903 -0.09608
v 1.19234 1.78903 -0.09608
v 1.04127 2.19466 -0.24117
v 1.04127 2.19466 -0.24117
v 1.10472 2.18261 0.08506
v 1.10472 2.18261 0.08506
v 1.10472 2.18261 0.08506
v 1.10472 2.18261 0.08506
v 1.08093 1.88346 -0.35157
v 1.08093 1.88346 -0.35157
v 1.08093 1.88346 -0.35157
v 1.08093 1.88346 -0.35157
v 1.08093 1.88346 -0.35157
v 1.08093 1.88346 -0.35157
v 1.08093 1.88346 -0.35157
v 1.08093 1.88346 -0.35157
v 1.04118 2.27424 -0.15284
v 1.04118 2.27424 -0.15284
v 1.04118 2.27424 -0.15284
v 1.02508 1.87950 -0.27115
v 1.02508 1.87950 -0.27115
v 1.02508 1.87950 -0.27115
v 1.02508 1.87950 -0.27115
v 1.02508 1.87950 -0.27115
v 1.09672 2.13134 -0.19863
v 1.09672 2.13134 -0.19863
v 1.09672 2.13134 -0.19863
v 1.09672 2.13134 -0.19863
v 1.03723 2.22553 -0.20812
v 1.03723 2.22553 -0.20812
v 1.03723 2.22553 -0.20812
v 1.03723 2.22553 -0.20812
v 1.03723 2.22553 -0.20812
v 1.06931 2.28722 -0.22629
v 1.06931 2.28722 -0.22629
v 1.06931 2.28722 -0.22629
v 1.07056 1.90237 -0.02655
v 1.07056 1.90237 -0.02655
v 1.07056 1.90237 -0.02655
v 1.06904 2.20219 -0.22981
v 1.06904 2.20219 -0.22981
v 1.06904 2.20219 -0.22981
v 1.06904 2.20219 -0.22981
v 1.06904 2.20219 -0.22981
v 1.06191 2.02565 -0.28420
v 1.06191 2.02565 -0.28420
v 1.06191 2.02565 -0.28420
v 1.06191 2.02565 -0.28420
v 1.02998 1.98869 -0.03509
v 1.02998 1.98869 -0.03509
v 1.03512 1.89525 -0.10810
v 1.06785 2.01655 -0.25958
v 1.06785 2.01655 -0.25958
v 1.06785 2.01655 -0.25958
v 1.06785 2.01655 -0.25958
v 1.00549 1.96162 -0.24163
v 1.00549 1.96162 -0.24163
v 1.00549 1.96162 -0.24163
v 1.00549 1.96162 -0.24163
v 1.00549 1.96162 -0.24163
v 1.00549 1.96162 -0.24163
v 1.00549 1.96162 -0.24163
v 1.00549 1.96162 -0.24163
v 1.08239 2.22847 0.10251
v 1.08239 2.22847 0.10251
v 1.08239 2.22847 0.10251
v 1.03592 2.19805 0.10040
v 1.03592 2.19805 0.10040
v 1.03592 2.19805 0.10040
v 1.02895 1.90071 -0.34306
v 1.02895 1.90071 -0.34306
v 1.02895 1.90071 -0.34306
v 1.02034 2.18463 -0.20247
v 1.02034 2.18463 -0.20247
v 1.02034 2.18463 -0.20247
v 1.02034 2.18463 -0.20247
v 1.02034 2.18463 -0.20247
v 1.01544 1.81200 -0.14134
v 1.01544 1.81200 -0.14134
v 1.01544 1.81200 -0.14134
v 1.01455 2.18256 0.12820
v 1.01455 2.18256 0.12820
v 1.01455 2.18256 0.12820
v 1.01455 2.18256 0.12820
v 1.01455 2.18256 0.12820
v 1.09240 2.05958 -0.27630
v 1.09240 2.05958 -0.27630
v 1.09240 2.05958 -0.27630
v 1.09240 2.05958 -0.27630
v 1.09240 2.05958 -0.27630
v 1.09240 2.05958 -0.27630
v 1.01063 2.28939 -0.23709
v 1.01063 2.28939 -0.23709
v 1.01063 2.28939 -0.23709
v 1.01063 2.28939 -0.23709
v 1.00796 2.00045 -0.18493
v 1.00796 2.00045 -0.18493
v 1.00796 2.00045 -0.18493
v 1.00796 2.00045 -0.18493
v 1.00796 2.00045 -0.18493
v 1.00796 2.00045 -0.18493
v 1.00796 2.00045 -0.18493
v 1.02104 2.29953 -0.26039
v 1.02104 2.29953 -0.26039
v 1.02104 2.29953 -0.26039
v 1.02614 2.18978 0.18481
v 1.02614 2.18978 0.18481
v 1.02614 2.18978 0.18481
v 1.05031 2.21879 0.14028
v 1.05031 2.21879 0.14028
v 1.05031 2.21879 0.14028
v 1.05031 2.21879 0.14028
v 1.05031 2.21879 0.14028
v 1.01966 2.27568 0.16601
v 1.01966 2.27568 0.16601
v 1.02371 1.91578 -0.30267
v 1.02371 1.91578 -0.30267
v 1.02371 1.91578 -0.30267
v 1.02371 1.91578 -0.30267
v 0.97720 1.94524 -0.19062
v 0.97720 1.94524 -0.19062
v 0.97720 1.94524 -0.19062
v 0.97720 1.94524 -0.19062
v 0.97720 1.94524 -0.19062
v 0.97720 1.94524 -0.19062
v 1.00284 2.13285 0.09185
v 1.00284 2.13285 0.09185
v 1.00284 2.13285 0.09185
v 1.00284 2.13285 0.09185
v 1.00284 2.13285 0.09185
v 0.99214 2.01425 -0.22112
v 0.99214 2.01425 -0.22112
v 0.99214 2.01425 -0.22112
v 0.99214 2.01425 -0.22112
v 0.95793 1.95003 -0.26083
v 0.95793 1.95003 -0.26083
v 0.95793 1.95003 -0.26083
v 0.98062 1.91871 -0.12716
v 0.98062 1.91871 -0.12716
v 0.95372 2.29422 -0.23601
v 0.95372 2.29422 -0.23601
v 1.03004 2.23291 -0.26876
v 1.03004 2.23291 -0.26876
v 1.03004 2.23291 -0.26876
v 1.00843 2.21547 -0.20599
v 1.00843 2.21547 -0.20599
v 1.00843 2.21547 -0.20599
v 1.00843 2.21547 -0.20599
v 0.97062 2.40991 -0.20505
v 1.05178 2.05828 -0.30378
v 1.05178 2.05828 -0.30378
v 1.05178 2.05828 -0.30378
v 0.99700 2.02356 -0.26070
v 0.99700 2.02356 -0.26070
v 0.99700 2.02356 -0.26070
v 0.99700 2.02356 -0.26070
v 0.99946 2.18135 -0.27875
v 0.99946 2.18135 -0.27875
v 0.99946 2.18135 -0.27875
v 1.00585 2.42177 -0.17857
v 0.90584 2.21158 0.22025
v 1.01909 1.95474 -0.18999
v 1.01909 1.95474 -0.18999
v 1.01909 1.95474 -0.18999
v 0.94893 2.31561 -0.17491
v 0.94893 2.31561 -0.17491
v 0.94893 2.31561 -0.17491
v 1.00998 2.12713 0.13423
v 1.00998 2.12713 0.13423
v 1.00998 2.12713 0.13423
v 1.00998 2.12713 0.13423
v 0.99612 2.21775 -0.28378
v 0.99612 2.21775 -0.28378
v 0.99612 2.21775 -0.28378
v 0.96617 1.90068 -0.28684
v 0.96617 1.90068 -0.28684
v 0.96617 1.90068 -0.28684
v 0.96617 1.90068 -0.28684
v 0.97150 1.87521 -0.23088
v 0.97150 1.87521 -0.23088
v 0.97150 1.87521 -0.23088
v 0.96868 2.05255 -0.03518
v 0.97747 2.19286 -0.17958
v 0.97747 2.19286 -0.17958
v 0.97747 2.19286 -0.17958
v 0.97747 2.19286 -0.17958
v 0.96740 2.10491 0.13403
v 0.96740 2.10491 0.13403
v 0.96740 2.10491 0.13403
v 0.91271 1.86796 -0.32321
v 0.91271 1.86796 -0.32321
v 0.91271 1.86796 -0.32321
v 0.91271 1.86796 -0.32321
v 0.98586 1.87740 -0.37284
v 0.98586 1.87740 -0.37284
v 0.98586 1.87740 -0.37284
v 0.98586 1.87740 -0.37284
v 0.98586 1.87740 -0.37284
v 0.98586 1.87740 -0.37284
v 0.95739 2.14564 -0.16522
v 0.95739 2.14564 -0.16522
v 0.95739 2.14564 -0.16522
v 0.95739 2.14564 -0.16522
v 0.95739 2.14564 -0.16522
v 0.95739 2.14564 -0.16522
v 0.93320 2.14840 0.17273
v 0.93320 2.14840 0.17273
v 0.93320 2.14840 0.17273
v 0.93320 2.14840 0.17273
v 0.93320 2.14840 0.17273
v 0.94152 2.24061 0.16442
v 0.94152 2.24061 0.16442
v 0.91489 2.29275 -0.15179
v 0.91489 2.29275 -0.15179
v 0.96542 2.10833 0.04191
v 0.96542 2.10833 0.04191
v 0.96542 2.10833 0.04191
v 0.96542 2.10833 0.04191
v 0.96542 2.10833 0.04191
v 0.94522 2.14532 -0.22696
v 0.94522 2.14532 -0.22696
v 0.94522 2.14532 -0.22696
v 0.94042 1.86290 -0.31500
v 0.94042 1.86290 -0.31500
v 0.94042 1.86290 -0.31500
v 0.90270 2.09746 -0.10029
v 0.90270 2.09746 -0.10029
v 0.90270 2.09746 -0.10029
v 0.90270 2.09746 -0.10029
v 0.92560 2.36429 0.20205
v 0.92560 2.36429 0.20205
v 0.92560 2.36429 0.20205
v 0.90459 2.10467 -0.16218
v 0.90459 2.10467 -0.16218
v 0.90459 2.10467 -0.16218
v 0.90459 2.10467 -0.16218
v 0.90669 2.09537 -0.01517
v 0.90669 2.09537 -0.01517
v 0.90669 2.09537 -0.01517
v 0.90669 2.09537 -0.01517
v 0.90669 2.09537 -0.01517
v 0.93873 2.18306 -0.24839
v 0.93873 2.18306 -0.24839
v 0.93873 2.18306 -0.24839
v 0.93873 2.18306 -0.24839
v 0.94070 1.79893 -0.24143
v 0.94070 1.79893 -0.24143
v 0.94070 1.79893 -0.24143
v 0.94070 1.79893 -0.24143
v 0.94070 1.79893 -0.24143
v 0.97259 2.10973 0.08204
v 0.97259 2.10973 0.08204
v 0.97259 2.10973 0.08204
v 0.97259 2.10973 0.08204
v 0.97259 2.10973 0.08204
v 0.97259 2.10973 0.08204
v 0.97259 2.10973 0.08204
v 0.81610 2.37053 -0.23832
v 0.96231 1.99302 -0.21341
v 0.96231 1.99302 -0.21341
v 0.96231 1.99302 -0.21341
v 0.96231 1.99302 -0.21341
v 0.89172 2.34261 0.18768
v 0.89172 2.34261 0.18768
v 0.89172 2.34261 0.18768
v 0.90602 2.11623 -0.08522
v 0.90602 2.11623 -0.08522
v 0.90602 2.11623 -0.08522
v 0.92144 2.15501 0.10438
v 0.92144 2.15501 0.10438
v 0.88123 2.13564 0.09718
v 0.91469 2.43403 -0.23200
v 0.87523 2.09404 -0.07693
v 0.87523 2.09404 -0.07693
v 0.87523 2.09404 -0.07693
v 0.92559 2.16101 -0.19979
v 0.92559 2.16101 -0.19979
v 0.92559 2.16101 -0.19979
v 0.78672 2.19491 0.04599
v 0.78672 2.19491 0.04599
v 0.88589 2.08293 -0.00326
v 0.88589 2.08293 -0.00326
v 0.88589 2.08293 -0.00326
v 0.88589 2.08293 -0.00326
v 0.88589 2.08293 -0.00326
v 0.82784 2.13209 0.02957
v 0.82784 2.13209 0.02957
v 0.82784 2.13209 0.02957
v 0.82784 2.13209 0.02957
v 0.87712 2.20133 0.13844
v 0.86207 2.16749 -0.12690
v 0.86207 2.16749 -0.12690
v 0.86207 2.16749 -0.12690
v 0.86207 2.16749 -0.12690
v 0.86207 2.16749 -0.12690
v 0.83136 2.14862 -0.11305
v 0.83136 2.14862 -0.11305
v 0.83136 2.14862 -0.11305
v 1.29077 1.66221 -0.35328
v 1.29077 1.66221 -0.35328
v 1.29077 1.66221 -0.35328
v 1.26411 1.55554 -0.26865
v 1.26411 1.55554 -0.26865
v 1.26411 1.55554 -0.26865
v 1.27709 1.72301 -0.27653
v 1.27709 1.72301 -0.27653
v 1.27709 1.72301 -0.27653
v 1.27709 1.72301 -0.27653
v 1.20621 1.68344 -0.12512
v 1.20621 1.68344 -0.12512
v 1.20621 1.68344 -0.12512
v 1.28052 1.60728 -0.35687
v 1.28052 1.60728 -0.35687
v 1.23573 1.49154 -0.27009
v 1.23573 1.49154 -0.27009
v 1.27610 1.55181 -0.35467
v 1.27610 1.55181 -0.35467
v 1.27610 1.55181 -0.35467
v 1.27610 1.55181 -0.35467
v 1.27610 1.55181 -0.35467
v 1.23937 1.48386 -0.33679
v 1.23937 1.48386 -0.33679
v 1.22985 1.73719 -0.25612
v 1.22985 1.73719 -0.25612
v 1.22985 1.73719 -0.25612
v 1.22985 1.73719 -0.25612
v 1.23895 1.63468 -0.36241
v 1.23895 1.63468 -0.36241
v 1.22106 1.76525 -0.34817
v 1.22106 1.76525 -0.34817
v 1.22106 1.76525 -0.34817
v 1.22106 1.76525 -0.34817
v 1.22106 1.76525 -0.34817
v 1.18690 1.76806 -0.34173
v 1.18690 1.76806 -0.34173
v 1.18690 1.76806 -0.34173
v 1.29438 1.64411 -0.27484
v 1.29438 1.64411 -0.27484
v 1.29438 1.64411 -0.27484
v 1.17197 1.58246 -0.40635
v 1.17197 1.58246 -0.40635
v 1.23219 1.68615 -0.40488
v 1.23219 1.68615 -0.40488
v 1.23219 1.68615 -0.40488
v 1.16452 1.39663 -0.26402
v 1.16452 1.39663 -0.26402
v 1.16452 1.39663 -0.26402
v 1.23950 1.74143 -0.28815
v 1.23950 1.74143 -0.28815
v 1.23950 1.74143 -0.28815
v 1.15858 1.51038 -0.37360
v 1.15858 1.51038 -0.37360
v 1.14581 1.61843 -0.26146
v 1.14581 1.61843 -0.26146
v 1.14581 1.61843 -0.26146
v 1.14581 1.61843 -0.26146
v 1.20870 1.58825 -0.13940
v 1.20870 1.58825 -0.13940
v 1.17350 1.65456 -0.23013
v 1.17350 1.65456 -0.23013
v 1.17350 1.65456 -0.23013
v 1.18937 1.61835 -0.27542
v 1.18937 1.61835 -0.27542
v 1.25862 1.59728 -0.27201
v 1.25862 1.59728 -0.27201
v 1.25862 1.59728 -0.27201
v 1.25862 1.59728 -0.27201
v 1.16188 1.38732 -0.29388
v 1.16188 1.38732 -0.29388
v 1.16188 1.38732 -0.29388
v 1.20124 1.69635 -0.40589
v 1.20124 1.69635 -0.40589
v 1.20124 1.69635 -0.40589
v 1.15145 1.57020 -0.31528
v 1.15712 1.54525 -0.21763
v 1.15712 1.54525 -0.21763
v 1.14784 1.75579 -0.33581
v 1.14784 1.75579 -0.33581
v 1.14784 1.75579 -0.33581
v 1.14784 1.75579 -0.33581
v 1.14784 1.75579 -0.33581
v 1.19622 1.41620 -0.23398
v 1.19622 1.41620 -0.23398
v 1.19622 1.41620 -0.23398
v 1.19622 1.41620 -0.23398
v 1.16836 1.43991 -0.19018
v 1.16836 1.43991 -0.19018
v 1.16836 1.43991 -0.19018
v 1.18195 1.73662 -0.43093
v 1.18195 1.73662 -0.43093
v 1.18195 1.73662 -0.43093
v 1.19179 1.76503 -0.36137
v 1.19179 1.76503 -0.36137
v 1.19179 1.76503 -0.36137
v 1.19179 1.76503 -0.36137
v 1.19179 1.76503 -0.36137
v 1.17010 1.69631 -0.45413
v 1.17010 1.69631 -0.45413
v 1.14831 1.75599 -0.40342
v 1.14831 1.75599 -0.40342
v 1.14831 1.75599 -0.40342
v 1.14831 1.75599 -0.40342
v 1.12847 1.58580 -0.46771
v 1.12847 1.58580 -0.46771
v 1.15117 1.44106 -0.22756
v 1.15117 1.44106 -0.22756
v 1.15117 1.44106 -0.22756
v 1.13005 1.42137 -0.26147
v 1.13005 1.42137 -0.26147
v 1.13005 1.42137 -0.26147
v 1.14897 1.52903 -0.25651
v 1.14897 1.52903 -0.25651
v 1.14180 1.76567 -0.17923
v 1.14180 1.76567 -0.17923
v 1.14180 1.76567 -0.17923
v 1.14180 1.76567 -0.17923
v 1.12997 1.40718 -0.30266
v 1.12997 1.40718 -0.30266
v 1.12997 1.40718 -0.30266
v 1.14367 1.72636 -0.19107
v 1.14367 1.72636 -0.19107
v 1.14367 1.72636 -0.19107
v 1.14367 1.72636 -0.19107
v 1.14367 1.72636 -0.19107
v 1.14367 1.72636 -0.19107
v 1.15689 1.72355 -0.14330
v 1.15689 1.72355 -0.14330
v 1.15689 1.72355 -0.14330
v 1.15689 1.72355 -0.14330
v 1.15689 1.72355 -0.14330
v 1.13671 1.67882 -0.22164
v 1.13671 1.67882 -0.22164
v 1.13671 1.67882 -0.22164
v 1.16643 1.68151 -0.24315
v 1.16643 1.68151 -0.24315
v 1.16643 1.68151 -0.24315
v 1.16643 1.68151 -0.24315
v 1.16643 1.68151 -0.24315
v 1.16643 1.68151 -0.24315
v 1.16643 1.68151 -0.24315
v 1.12009 1.73631 -0.23915
v 1.12009 1.73631 -0.23915
v 1.12009 1.73631 -0.23915
v 1.10692 1.78637 -0.44426
v 1.10692 1.78637 -0.44426
v 1.10692 1.78637 -0.44426
v 1.14590 1.68974 -0.29685
v 1.14590 1.68974 -0.29685
v 1.14590 1.68974 -0.29685
v 1.14590 1.68974 -0.29685
v 1.12333 1.57722 -0.35603
v 1.12333 1.57722 -0.35603
v 1.14582 1.65769 -0.33122
v 1.14582 1.65769 -0.33122
v 1.14582 1.65769 -0.33122
v 1.14582 1.65769 -0.33122
v 1.08640 1.52844 -0.36231
v 1.08640 1.52844 -0.36231
v 1.08631 1.77429 -0.24529
v 1.08631 1.77429 -0.24529
v 1.12744 1.77427 -0.22882
v 1.12744 1.77427 -0.22882
v 1.12744 1.77427 -0.22882
v 1.12744 1.77427 -0.22882
v 1.09749 1.73656 -0.47414
v 1.09749 1.73656 -0.47414
v 1.04300 1.67990 -0.33552
v 1.04300 1.67990 -0.33552
v 1.04300 1.67990 -0.33552
v 1.04300 1.67990 -0.33552
v 1.09350 1.52505 -0.45344
v 1.09350 1.52505 -0.45344
v 1.09350 1.52505 -0.45344
v 1.09350 1.52505 -0.45344
v 1.05226 1.73363 -0.36361
v 1.05226 1.73363 -0.36361
v 1.05226 1.73363 -0.36361
v 1.05226 1.73363 -0.36361
v 1.05226 1.73363 -0.36361
v 1.04633 1.72599 -0.29568
v 1.04633 1.72599 -0.29568
v 1.04633 1.72599 -0.29568
v 1.04633 1.72599 -0.29568
v 1.04633 1.72599 -0.29568
v 1.03998 1.64155 -0.47674
v 1.03998 1.64155 -0.47674
v 1.06178 1.67593 -0.44631
v 1.06178 1.67593 -0.44631
v 1.04766 1.80656 -0.35206
v 1.04766 1.80656 -0.35206
v 1.04766 1.80656 -0.35206
v 1.04766 1.80656 -0.35206
v 1.01898 1.79742 -0.24205
v 1.01898 1.79742 -0.24205
v 1.01898 1.79742 -0.24205
v 1.04175 1.55543 -0.47191
v 1.04175 1.55543 -0.47191
v 1.04175 1.55543 -0.47191
v 1.06305 1.63113 -0.49283
v 1.06305 1.63113 -0.49283
v 1.06305 1.63113 -0.49283
v 1.06305 1.63113 -0.49283
v 1.04528 1.76607 -0.27976
v 1.04528 1.76607 -0.27976
v 1.04528 1.76607 -0.27976
v 1.04528 1.76607 -0.27976
v 1.04528 1.76607 -0.27976
v 1.04528 1.76607 -0.27976
v 1.02881 1.55885 -0.45659
v 1.02881 1.55885 -0.45659
v 1.02881 1.55885 -0.45659
v 1.00478 1.86174 -0.25264
v 1.00478 1.86174 -0.25264
v 1.00478 1.86174 -0.25264
v 1.01387 1.43872 -0.42104
v 1.01387 1.43872 -0.42104
v 1.01387 1.43872 -0.42104
v 1.00515 1.43664 -0.37537
v 1.00515 1.43664 -0.37537
v 1.00515 1.43664 -0.37537
v 1.00515 1.43664 -0.37537
v 0.99108 1.46184 -0.42882
v 0.99108 1.46184 -0.42882
v 0.99108 1.46184 -0.42882
v 0.99108 1.46184 -0.42882
v 0.95615 1.78956 -0.40638
v 0.95615 1.78956 -0.40638
v 0.95615 1.78956 -0.40638
v 0.95615 1.78956 -0.40638
v 0.95615 1.78956 -0.40638
v 1.00935 1.57575 -0.35880
v 1.00935 1.57575 -0.35880
v 1.00935 1.57575 -0.35880
v 0.90656 1.73324 -0.26858
v 0.90656 1.73324 -0.26858
v 0.98687 1.68466 -0.33899
v 0.98687 1.68466 -0.33899
v 1.00127 1.76501 -0.37760
v 1.00127 1.76501 -0.37760
v 1.00127 1.76501 -0.37760
v 0.97766 1.78616 -0.26264
v 0.97766 1.78616 -0.26264
v 0.97766 1.78616 -0.26264
v 0.97766 1.78616 -0.26264
v 0.93457 1.70291 -0.41066
v 0.93457 1.70291 -0.41066
v 1.00619 1.75694 -0.30689
v 1.00619 1.75694 -0.30689
v 1.00619 1.75694 -0.30689
v 1.00619 1.75694 -0.30689
v 1.00619 1.75694 -0.30689
v 0.90474 1.60495 -0.33850
v 0.90474 1.60495 -0.33850
v 0.90474 1.60495 -0.33850
v 0.94800 1.60481 -0.35470
v 0.94800 1.60481 -0.35470
v 0.94800 1.60481 -0.35470
v 0.88420 1.76823 -0.35791
v 0.88420 1.76823 -0.35791
v 0.91710 1.61933 -0.40837
v 0.91710 1.61933 -0.40837
v 0.91710 1.61933 -0.40837
v 0.91710 1.61933 -0.40837
v 1.32351 1.63214 -0.17481
v 1.32351 1.63214 -0.17481
v 1.29479 1.74860 -0.26114
v 1.29479 1.74860 -0.26114
v 1.29479 1.74860 -0.26114
v 1.29479 1.74860 -0.26114
v 1.29479 1.74860 -0.26114
v 1.31536 1.74444 -0.16861
v 1.31536 1.74444 -0.16861
v 1.31536 1.74444 -0.16861
v 1.31536 1.74444 -0.16861
v 1.31536 1.74444 -0.16861
v 1.31536 1.74444 -0.16861
v 1.31536 1.74444 -0.16861
v 1.24480 1.49176 -0.24659
v 1.24480 1.49176 -0.24659
v 1.28950 1.74430 -0.20225
v 1.28950 1.74430 -0.20225
v 1.28950 1.74430 -0.20225
v 1.29244 1.54566 -0.18692
v 1.29244 1.54566 -0.18692
v 1.26394 1.82037 -0.17786
v 1.26394 1.82037 -0.17786
v 1.26394 1.82037 -0.17786
v 1.26394 1.82037 -0.17786
v 1.26394 1.82037 -0.17786
v 1.26195 1.48987 -0.19073
v 1.26195 1.48987 -0.19073
v 1.18054 1.53646 -0.15587
v 1.18054 1.53646 -0.15587
v 0.97573 2.26552 -0.04011
v 1.16140 2.25321 -0.13148
v 1.18970 2.26484 -0.08090
v 1.11882 2.40814 -0.00519
v 1.19401 2.19634 0.02434
v 1.13481 2.40945 0.08837
v 1.18197 2.22240 0.08580
v 1.05659 2.52244 0.18676
v 1.15093 2.19371 0.12100
v 1.01966 2.27568 0.16601
v 1.02614 2.18978 0.18481
v 0.90584 2.21158 0.22025
v 0.93320 2.14840 0.17273
v 0.87712 2.20133 0.13844
v 0.92144 2.15501 0.10438
v 0.88123 2.13564 0.09718
v 0.97259 2.10973 0.08204
v 0.78672 2.19491 0.04599
v 0.82784 2.13209 0.02957
v 0.78279 2.21999 -0.11784
v 0.86207 2.16749 -0.12690
v 0.76948 2.35006 -0.16219
v 0.92559 2.16101 -0.19979
v 0.80919 2.36718 -0.18586
v 0.93873 2.18306 -0.24839
v 0.81610 2.37053 -0.23832
v 0.95372 2.29422 -0.23601
v 0.91469 2.43403 -0.23200
v 1.01063 2.28939 -0.23709
v 0.97062 2.40991 -0.20505
v 1.02104 2.29953 -0.26039
v 1.00585 2.42177 -0.17857
v 1.10290 2.30368 -0.18534
vt 0.87368 0.47041
vt 0.39158 0.17490
vt 0.82728 0.84178
vt 0.26471 0.91727
vt 0.33964 0.04623
vt 0.06548 0.68405
vt 0.06711 0.79518
vt 0.05311 0.68297
vt 0.07879 0.79939
vt 0.26388 0.99936
vt 0.07754 0.80825
vt 0.27281 0.99889
vt 0.51936 0.41356
vt 0.35357 0.02884
vt 0.04106 0.78660
vt 0.01164 0.03151
vt 0.29971 0.16193
vt 0.31763 0.04359
vt 0.51926 0.16796
vt 0.93812 0.15049
vt 0.01531 0.25453
vt 0.73995 0.00104
vt 0.05248 0.68811
vt 0.11742 0.72059
vt 0.26298 0.99426
vt 0.30742 0.16136
vt 0.91005 0.52439
vt 0.00895 0.03638
vt 0.30277 0.16658
vt 0.73986 0.00779
vt 0.11098 0.72261
vt 0.26162 0.05155
vt 0.33683 0.05475
vt 0.06631 0.80412
vt 0.44877 0.97175
vt 0.51223 0.39005
vt 0.01436 0.90194
vt 0.04224 0.95835
vt 0.25816 0.06106
vt 0.01242 0.89953
vt 0.11098 0.73332
vt 0.26102 0.06224
vt 0.30056 0.15756
vt 0.90258 0.52677
vt 0.93369 0.15098
vt 0.27196 0.99604
vt 0.51747 0.41419
vt 0.90189 0.52024
vt 0.61040 0.00369
vt 0.04798 0.96658
vt 0.27549 0.05415
vt 0.27241 0.05073
vt 0.61411 0.00099
vt 0.97105 0.69655
vt 0.31205 0.17283
vt 0.99513 0.68999
vt 0.61410 0.00784
vt 0.73603 0.00501
vt 0.04294 0.96894
vt 0.25701 0.05051
vt 0.31006 0.16628
vt 0.46904 0.97124
vt 0.48560 0.35679
vt 0.52436 0.34954
vt 0.33683 0.04378
vt 0.06566 0.68777
vt 0.11626 0.73373
vt 0.45308 0.98268
vt 0.00946 0.24311
vt 0.36260 0.03178
vt 0.89965 0.00503
vt 0.93977 0.15984
vt 0.01114 0.14762
vt 0.13807 0.04702
vt 0.00638 0.23888
vt 0.36227 0.02656
vt 0.03966 0.77517
vt 0.42190 0.18434
vt 0.97543 0.02702
vt 0.62530 0.31535
vt 0.02184 0.92652
vt 0.50748 0.37070
vt 0.50670 0.06905
vt 0.08247 0.58807
vt 0.05838 0.55554
vt 0.01895 0.47486
vt 0.99941 0.68605
vt 0.00404 0.03859
vt 0.30725 0.16956
vt 0.61185 0.29890
vt 0.96991 0.02985
vt 0.62669 0.30919
vt 0.93223 0.01320
vt 0.99934 0.61381
vt 0.41909 0.17455
vt 0.47021 0.97903
vt 0.49783 0.09157
vt 0.02498 0.93621
vt 0.72678 0.05946
vt 0.11735 0.74654
vt 0.46612 0.98218
vt 0.49627 0.08589
vt 0.72007 0.05857
vt 0.00706 0.54565
vt 0.11065 0.74755
vt 0.92839 0.01180
vt 0.54160 0.00724
vt 0.99527 0.61417
vt 0.02658 0.00168
vt 0.00418 0.69366
vt 0.20867 0.39192
vt 0.48354 0.09646
vt 0.87239 0.00783
vt 0.01696 0.99077
vt 0.41901 0.19358
vt 0.87144 0.00350
vt 0.35513 0.91183
vt 0.63230 0.30647
vt 0.96574 0.02702
vt 0.61822 0.28287
vt 0.19631 0.36720
vt 0.31899 0.00270
vt 0.00509 0.62670
vt 0.15584 0.01654
vt 0.99681 0.88988
vt 0.50862 0.38841
vt 0.94098 0.31771
vt 0.97600 0.01580
vt 0.00539 0.45978
vt 0.26685 0.05582
vt 0.31733 0.00646
vt 0.15348 0.01317
vt 0.00002 0.45588
vt 0.04845 0.95655
vt 0.26925 0.06201
vt 0.00107 0.63224
vt 0.10296 0.73315
vt 0.20315 0.36685
vt 0.02043 0.89973
vt 0.00586 0.45542
vt 0.00677 0.63359
vt 0.15578 0.00944
vt 0.99527 0.60936
vt 0.02328 0.00518
vt 0.61739 0.32087
vt 0.01913 0.93769
vt 0.53899 0.00411
vt 0.91743 0.29189
vt 0.35186 0.03274
vt 0.02868 0.00518
vt 0.71439 0.05957
vt 0.01276 0.54475
vt 0.20773 0.38138
vt 0.48388 0.08589
vt 0.01070 0.69577
vt 0.00401 0.69654
vt 0.41830 0.18686
vt 0.48643 0.09627
vt 0.87077 0.01023
vt 0.01338 0.87072
vt 0.48447 0.07087
vt 0.90601 0.00504
vt 0.00740 0.15276
vt 0.05628 0.05739
vt 0.92414 0.01290
vt 0.47427 0.97260
vt 0.47515 0.35020
vt 0.53879 0.01060
vt 0.91856 0.29828
vt 0.00658 0.18551
vt 0.35487 0.06031
vt 0.98695 0.34777
vt 0.89962 0.01052
vt 0.94211 0.16481
vt 0.03399 0.29110
vt 0.99584 0.97954
vt 0.51148 0.39474
vt 0.90814 0.51211
vt 0.99371 0.89213
vt 0.97871 0.01851
vt 0.99746 0.89247
vt 0.90916 0.29359
vt 0.34912 0.02475
vt 0.99432 0.40938
vt 0.35186 0.02412
vt 0.83831 0.25683
vt 0.99458 0.41218
vt 0.88371 0.13494
vt 0.90285 0.50558
vt 0.94165 0.32396
vt 0.97031 0.01848
vt 0.05048 0.03532
vt 0.25756 0.13231
vt 0.35199 0.06315
vt 0.90367 0.01066
vt 0.94270 0.33985
vt 0.00400 0.82334
vt 0.95989 0.71812
vt 0.99689 0.98345
vt 0.08186 0.81328
vt 0.04588 0.52468
vt 0.55510 0.33662
vt 0.04070 0.03850
vt 0.25692 0.11916
vt 0.02187 0.87486
vt 0.49102 0.06072
vt 0.05011 0.03870
vt 0.90675 0.00922
vt 0.01245 0.87486
vt 0.89338 0.51387
vt 0.89630 0.13493
vt 0.93289 0.16681
vt 0.60905 0.30638
vt 0.10268 0.74691
vt 0.20213 0.38058
vt 0.01353 0.55035
vt 0.47760 0.35464
vt 0.91004 0.29708
vt 0.26226 0.05248
vt 0.27727 0.74368
vt 0.32301 0.00663
vt 0.46545 0.27190
vt 0.96980 0.70678
vt 0.02736 0.25614
vt 0.01303 0.19019
vt 0.89072 0.14056
vt 0.99492 0.34777
vt 0.57861 0.01693
vt 0.01194 0.39877
vt 0.01524 0.46974
vt 0.26474 0.73452
vt 0.39584 0.59953
vt 0.54742 0.14342
vt 0.74612 0.55271
vt 0.96963 0.69126
vt 0.99471 0.68452
vt 0.05555 0.82944
vt 0.07347 0.44116
vt 0.01379 0.99520
vt 0.95589 0.01035
vt 0.20513 0.39223
vt 0.87579 0.00678
vt 0.89702 0.13975
vt 0.93758 0.16813
vt 0.99038 0.35223
vt 0.99111 0.45644
vt 0.00658 0.52175
vt 0.03854 0.28779
vt 0.00532 0.82491
vt 0.99576 0.98517
vt 0.47575 0.35570
vt 0.54738 0.10393
vt 0.90789 0.29846
vt 0.01216 0.18285
vt 0.23823 0.00794
vt 0.57881 0.00954
vt 0.03683 0.29659
vt 0.74803 0.02247
vt 0.50263 0.36964
vt 0.54693 0.11856
vt 0.92954 0.31803
vt 0.51591 0.03484
vt 0.91550 0.00262
vt 0.69554 0.00343
vt 0.51584 0.04507
vt 0.41435 0.84404
vt 0.54304 0.10910
vt 0.83701 0.25193
vt 0.90505 0.29174
vt 0.99882 0.40938
vt 0.19196 0.36762
vt 0.32335 0.00269
vt 0.46413 0.27563
vt 0.69221 0.00585
vt 0.05775 0.83122
vt 0.07347 0.44399
vt 0.92403 0.32315
vt 0.51848 0.04190
vt 0.02706 0.24768
vt 0.99017 0.69990
vt 0.21328 0.05000
vt 0.02041 0.39877
vt 0.28590 0.74600
vt 0.45655 0.27125
vt 0.27538 0.74868
vt 0.98966 0.69749
vt 0.88217 0.13975
vt 0.74011 0.05897
vt 0.02017 0.40123
vt 0.74803 0.01429
vt 0.91552 0.01598
vt 0.98189 0.69716
vt 0.04417 0.26547
vt 0.21907 0.04347
vt 0.79997 0.00976
vt 0.23428 0.01510
vt 0.74786 0.05964
vt 0.95993 0.01318
vt 0.08454 0.42604
vt 0.20492 0.39716
vt 0.88971 0.60107
vt 0.08886 0.42873
vt 0.19991 0.39628
vt 0.00646 0.74955
vt 0.04171 0.29176
vt 0.98606 0.45692
vt 0.91550 0.00670
vt 0.69268 0.00052
vt 0.05761 0.82587
vt 0.07291 0.20223
vt 0.36830 0.07943
vt 0.26735 0.75115
vt 0.39207 0.62076
vt 0.47872 0.83164
vt 0.89313 0.60185
vt 0.36554 0.27806
vt 0.99425 0.41277
vt 0.01364 0.76685
vt 0.09224 0.42780
vt 0.04800 0.27726
vt 0.73547 0.06015
vt 0.05987 0.44117
vt 0.50155 0.07240
vt 0.87994 0.13552
vt 0.93792 0.32315
vt 0.98606 0.08935
vt 0.53908 0.10350
vt 0.66588 0.23604
vt 0.90043 0.29479
vt 0.99588 0.28829
vt 0.88528 0.00808
vt 0.05044 0.26490
vt 0.79997 0.00347
vt 0.49387 0.06241
vt 0.00812 0.00426
vt 0.67413 0.00165
vt 0.98355 0.08935
vt 0.83871 0.24667
vt 0.89958 0.29243
vt 0.09393 0.42274
vt 0.82265 0.74039
vt 0.82267 0.70333
vt 0.02004 0.99992
vt 0.96372 0.01053
vt 0.08886 0.42441
vt 0.36300 0.91742
vt 0.82298 0.70866
vt 0.36924 0.91614
vt 0.81662 0.70866
vt 0.02313 0.25771
vt 0.21328 0.03922
vt 0.23383 0.00794
vt 0.58119 0.01323
vt 0.99521 0.29406
vt 0.07964 0.84210
vt 0.48887 0.84047
vt 0.91637 0.01049
vt 0.94146 0.09287
vt 0.67592 0.00717
vt 0.19474 0.39197
vt 0.36084 0.27477
vt 0.99849 0.41664
vt 0.99915 0.67484
vt 0.83685 0.77396
vt 0.88158 0.00907
vt 0.06807 0.88235
vt 0.69456 0.08788
vt 0.00534 0.00163
vt 0.74325 0.01489
vt 0.91097 0.01441
vt 0.93972 0.09931
vt 0.27729 0.75405
vt 0.48875 0.83417
vt 0.02082 0.47580
vt 0.66899 0.23183
vt 0.41945 0.84166
vt 0.53742 0.10946
vt 0.65991 0.23444
vt 0.91342 0.00448
vt 0.37120 0.08038
vt 0.41315 0.84151
vt 0.98566 0.67224
vt 0.98587 0.10133
vt 0.05146 0.39154
vt 0.06044 0.43672
vt 0.50466 0.06917
vt 0.87796 0.00810
vt 0.04434 0.39154
vt 0.06438 0.88303
vt 0.50116 0.06297
vt 0.05059 0.82762
vt 0.05184 0.37910
vt 0.07286 0.43591
vt 0.85130 0.25163
vt 0.83160 0.73293
vt 0.99842 0.29180
vt 0.91942 0.01297
vt 0.79659 0.00618
vt 0.38219 0.07943
vt 0.07230 0.18837
vt 0.98574 0.68327
vt 0.09308 0.01237
vt 0.00950 0.76986
vt 0.99937 0.41277
vt 0.99950 0.67879
vt 0.02767 0.46979
vt 0.41945 0.83800
vt 0.65993 0.23077
vt 0.00677 0.75725
vt 0.04199 0.29946
vt 0.74266 0.02002
vt 0.93458 0.09978
vt 0.07946 0.83470
vt 0.93417 0.09415
vt 0.21178 0.03770
vt 0.29204 0.75197
vt 0.06931 0.19951
vt 0.27623 0.08669
vt 0.40957 0.83921
vt 0.98142 0.67256
vt 0.39507 0.88594
vt 0.99511 0.67886
vt 0.08976 0.01526
vt 0.98490 0.65706
vt 0.54201 0.10272
vt 0.71694 0.79545
vt 0.73234 0.50024
vt 0.01162 0.75046
vt 0.54840 0.09769
vt 0.99304 0.65706
vt 0.98389 0.46169
vt 0.01450 0.52589
vt 0.31080 0.05539
vt 0.99248 0.24022
vt 0.05739 0.81829
vt 0.06533 0.20232
vt 0.07337 0.89471
vt 0.27371 0.08252
vt 0.69271 0.07456
vt 0.10125 0.42861
vt 0.40124 0.88626
vt 0.83203 0.74058
vt 0.09308 0.02047
vt 0.01501 0.77579
vt 0.37398 0.27452
vt 0.83913 0.76102
vt 0.06799 0.18851
vt 0.98145 0.68364
vt 0.30005 0.74805
vt 0.30005 0.74856
vt 0.30045 0.74970
vt 0.38820 0.84255
vt 0.44229 0.27234
vt 0.04423 0.37905
vt 0.05193 0.82013
vt 0.06762 0.89510
vt 0.01168 0.75732
vt 0.54195 0.10003
vt 0.92990 0.10125
vt 0.98399 0.23746
vt 0.27408 0.07360
vt 0.96959 0.01314
vt 0.05642 0.18130
vt 0.89141 0.62148
vt 0.19653 0.41648
vt 0.38524 0.27842
vt 0.98678 0.24244
vt 0.50479 0.84379
vt 0.68730 0.07744
vt 0.05681 0.17561
vt 0.96179 0.01314
vt 0.29742 0.75666
vt 0.39128 0.83562
vt 0.50879 0.83092
vt 0.05681 0.18909
vt 0.41418 0.83349
vt 0.66101 0.22528
vt 0.86886 0.44958
vt 0.03114 0.47580
vt 0.37960 0.63011
vt 0.53347 0.09728
vt 0.70401 0.79471
vt 0.92668 0.09293
vt 0.21193 0.02799
vt 0.19132 0.39083
vt 0.38496 0.84441
vt 0.39219 0.88977
vt 0.44092 0.27581
vt 0.64919 0.08275
vt 0.99564 0.67409
vt 0.91906 0.69353
vt 0.68152 0.22475
vt 0.49238 0.84408
vt 0.69138 0.08916
vt 0.00315 0.00426
vt 0.67114 0.00562
vt 0.19280 0.41531
vt 0.38458 0.27457
vt 0.83746 0.75055
vt 0.96824 0.01137
vt 0.27629 0.07379
vt 0.39777 0.83399
vt 0.39839 0.89196
vt 0.65158 0.07663
vt 0.65571 0.07684
vt 0.68176 0.23549
vt 0.07352 0.34141
vt 0.23941 0.92520
vt 0.39573 0.83108
vt 0.24961 0.93420
vt 0.40915 0.83335
vt 0.87381 0.44871
vt 0.90006 0.69353
vt 0.98199 0.20603
vt 0.91161 0.68490
vt 0.46770 0.08779
vt 0.07973 0.34438
vt 0.38947 0.83394
vt 0.98200 0.22044
vt 0.47005 0.08058
vt 0.84156 0.84951
vt 0.07366 0.22412
vt 0.98321 0.21296
vt 0.40494 0.89304
vt 0.39923 0.17069
vt 0.24762 0.92557
vt 0.48131 0.09050
vt 0.06586 0.34438
vt 0.07307 0.23912
vt 0.39946 0.17421
vt 0.83446 0.83845
vt 0.07595 0.23706
vt 0.03404 0.73572
vt 0.43484 0.98315
vt 0.90178 0.37476
vt 0.62108 0.96492
vt 0.82164 0.95641
vt 0.89224 0.36140
vt 0.63274 0.24316
vt 0.89219 0.38124
vt 0.95737 0.51245
vt 0.04341 0.72891
vt 0.56600 0.71835
vt 0.64742 0.57937
vt 0.92597 0.55257
vt 0.42860 0.98115
vt 0.90235 0.36822
vt 0.61319 0.96716
vt 0.82236 0.94824
vt 0.42220 0.97989
vt 0.44933 0.96553
vt 0.59745 0.34309
vt 0.83179 0.95727
vt 0.90242 0.36170
vt 0.59584 0.35223
vt 0.83023 0.94811
vt 0.52105 0.15872
vt 0.63001 0.23754
vt 0.96273 0.51566
vt 0.01900 0.26319
vt 0.43237 0.97665
vt 0.43866 0.96592
vt 0.03912 0.86534
vt 0.42322 0.96436
vt 0.44790 0.97665
vt 0.62107 0.24448
vt 0.03460 0.72114
vt 0.13251 0.04067
vt 0.03149 0.77728
vt 0.61880 0.24108
vt 0.33205 0.29149
vt 0.51572 0.14626
vt 0.73292 0.32990
vt 0.18635 0.29525
vt 0.58343 0.34184
vt 0.03901 0.87682
vt 0.43262 0.97094
vt 0.58772 0.32847
vt 0.60100 0.97387
vt 0.82223 0.93433
vt 0.99948 0.51970
vt 0.03100 0.78660
vt 0.62813 0.24101
vt 0.01531 0.26459
vt 0.19560 0.29695
vt 0.58505 0.35110
vt 0.18716 0.31317
vt 0.62645 0.97969
vt 0.95842 0.53216
vt 0.05680 0.16116
vt 0.55785 0.72568
vt 0.65046 0.56851
vt 0.63693 0.57117
vt 0.74750 0.32582
vt 0.09211 0.03387
vt 0.95477 0.52823
vt 0.05819 0.15598
vt 0.05652 0.14766
vt 0.62586 0.96620
vt 0.89219 0.36635
vt 0.94760 0.52369
vt 0.59175 0.36702
vt 0.82580 0.93342
vt 0.99916 0.51604
vt 0.03543 0.87547
vt 0.17291 0.29826
vt 0.58392 0.32808
vt 0.19062 0.30542
vt 0.64253 0.55940
vt 0.74523 0.31299
vt 0.13543 0.03680
vt 0.61567 0.23738
vt 0.01421 0.23630
vt 0.01662 0.15386
vt 0.04498 0.06107
vt 0.55847 0.99485
vt 0.36078 0.28952
vt 0.54037 0.74043
vt 0.73530 0.30049
vt 0.54686 0.74050
vt 0.65037 0.54927
vt 0.56506 0.99600
vt 0.04172 0.53536
vt 0.13807 0.46566
vt 0.59181 0.89918
vt 0.03539 0.86582
vt 0.05043 0.53708
vt 0.14694 0.46542
vt 0.16670 0.30565
vt 0.61756 0.24313
vt 0.13370 0.46920
vt 0.58619 0.89909
vt 0.04583 0.53159
vt 0.61040 0.24329
vt 0.48447 0.05854
vt 0.04470 0.05315
vt 0.12708 0.48145
vt 0.57227 0.89950
vt 0.56204 0.99976
vt 0.64585 0.54759
vt 0.74131 0.30136
vt 0.20935 0.30711
vt 0.60329 0.97829
vt 0.99465 0.52093
vt 0.19708 0.31080
vt 0.61610 0.97796
vt 0.50114 0.06071
vt 0.02692 0.46877
vt 0.04008 0.97712
vt 0.53588 0.14138
vt 0.20977 0.30202
vt 0.58736 0.36597
vt 0.99464 0.51583
vt 0.08908 0.81352
vt 0.29493 0.13013
vt 0.04486 0.97651
vt 0.63581 0.58130
vt 0.09211 0.04407
vt 0.02091 0.06673
vt 0.50670 0.05693
vt 0.04435 0.98231
vt 0.64107 0.58379
vt 0.91962 0.54813
vt 0.09400 0.58433
vt 0.89157 0.36283
vt 0.28889 0.13297
vt 0.01513 0.07006
vt 0.18070 0.31799
vt 0.52982 0.15392
vt 0.74895 0.32912
vt 0.88735 0.36193
vt 0.96318 0.52565
vt 0.08926 0.03608
vt 0.01243 0.06670
vt 0.08690 0.80752
vt 0.04456 0.97014
vt 0.05525 0.21595
vt 0.04209 0.52471
vt 0.55529 0.34013
vt 0.59394 0.88873
vt 0.96681 0.15856
vt 0.15039 0.47775
vt 0.17795 0.31177
vt 0.88392 0.36781
vt 0.13877 0.48741
vt 0.73554 0.46119
vt 0.96766 0.16399
vt 0.97608 0.75289
vt 0.14515 0.47943
vt 0.73535 0.47140
vt 0.13545 0.49380
vt 0.73302 0.45445
vt 0.05133 0.21141
vt 0.76665 0.54629
vt 0.03995 0.97099
vt 0.05060 0.21655
vt 0.53003 0.14322
vt 0.76335 0.55029
vt 0.55061 0.34067
vt 0.58706 0.88913
vt 0.08260 0.82936
vt 0.54773 0.32258
vt 0.72307 0.47033
vt 0.98225 0.74222
vt 0.17561 0.02759
vt 0.07842 0.88061
vt 0.12556 0.48969
vt 0.56390 0.89925
vt 0.08014 0.82261
vt 0.98123 0.15856
vt 0.26640 0.11916
vt 0.88498 0.38219
vt 0.97624 0.73828
vt 0.08903 0.79678
vt 0.29394 0.14683
vt 0.05871 0.20556
vt 0.27298 0.12377
vt 0.89157 0.37759
vt 0.01044 0.24797
vt 0.53534 0.33452
vt 0.00453 0.24725
vt 0.54151 0.33600
vt 0.01278 0.51725
vt 0.00526 0.81725
vt 0.31100 0.04412
vt 0.96168 0.71036
vt 0.00702 0.35636
vt 0.38015 0.62097
vt 0.47406 0.83971
vt 0.52604 0.33081
vt 0.56461 0.89193
vt 0.17402 0.03477
vt 0.01165 0.24467
vt 0.53257 0.33623
vt 0.54205 0.34249
vt 0.57391 0.88986
vt 0.05366 0.20551
vt 0.27128 0.12853
vt 0.37469 0.61741
vt 0.77201 0.54288
vt 0.35266 0.05205
vt 0.95692 0.33935
vt 0.17598 0.03614
vt 0.07011 0.88266
vt 0.52688 0.32854
vt 0.00702 0.34854
vt 0.08279 0.83278
vt 0.47931 0.84282
vt 0.07842 0.89488
vt 0.12412 0.50388
vt 0.31747 0.00886
vt 0.36605 0.12888
vt 0.12883 0.50664
vt 0.31342 0.01250
vt 0.72695 0.44134
vt 0.07453 0.89448
vt 0.31526 0.00563
vt 0.51873 0.31781
vt 0.36391 0.12210
vt 0.73855 0.51314
vt 0.87997 0.42763
vt 0.46219 0.07426
vt 0.99166 0.66598
vt 0.32155 0.05115
vt 0.53364 0.31817
vt 0.72279 0.45722
vt 0.34964 0.12888
vt 0.37152 0.63459
vt 0.70193 0.80371
vt 0.36200 0.62468
vt 0.89179 0.43710
vt 0.45621 0.07770
vt 0.31885 0.04480
vt 0.96519 0.70330
vt 0.37703 0.62558
vt 0.01259 0.35622
vt 0.21714 0.02799
vt 0.07974 0.82603
vt 0.73363 0.52239
vt 0.88123 0.43803
vt 0.44860 0.07426
vt 0.95779 0.34496
vt 0.37108 0.62179
vt 0.89356 0.42773
vt 0.95687 0.70247
vt 0.17790 0.01073
vt 0.35445 0.63576
vt 0.69825 0.82042
vt 0.17275 0.00906
vt 0.35318 0.63050
vt 0.89054 0.44759
vt 0.71280 0.80758
vt 0.72812 0.51233
vt 0.17161 0.01643
vt 0.70546 0.82490
vt 0.72878 0.53114
vt 0.88309 0.44786
vt 0.33300 0.27959
vt 0.55147 0.71259
vt 0.02376 0.80246
vt 0.31645 0.03485
vt 0.32010 0.29039
vt 0.51332 0.15836
vt 0.06047 0.24042
vt 0.02710 0.81273
vt 0.92046 0.56707
vt 0.09035 0.60293
vt 0.07152 0.55554
vt 0.98641 0.99465
vt 0.32016 0.27959
vt 0.56110 0.70410
vt 0.35046 0.28947
vt 0.73292 0.31085
vt 0.02771 0.80794
vt 0.98664 0.99947
vt 0.06534 0.24537
vt 0.34337 0.28154
vt 0.54648 0.72189
vt 0.00431 0.03151
vt 0.31031 0.04330
vt 0.06415 0.55965
vt 0.97709 0.99947
vt 0.07384 0.24046
vt 0.35050 0.28282
vt 0.54411 0.72874
vt 0.55502 0.73205
vt 0.65009 0.56135
vt 0.53899 0.00411
vt 0.53899 0.00411
vt 0.53899 0.00411
vt 0.53899 0.00411
vt 0.53899 0.00411
vt 0.53899 0.00411
vt 0.53899 0.00411
vt 0.53899 0.00411
vt 0.53899 0.00411
vt 0.53899 0.00411
vt 0.53899 0.00411
vt 0.53899 0.00411
vt 0.53899 0.00411
vt 0.53899 0.00411
vt 0.53899 0.00411
vt 0.53899 0.00411
vt 0.53899 0.00411
vt 0.53899 0.00411
vt 0.53899 0.00411
vt 0.53899 0.00411
vt 0.53899 0.00411
vt 0.53899 0.00411
vt 0.53899 0.00411
vt 0.53899 0.00411
vt 0.53899 0.00411
vt 0.53899 0.00411
vt 0.53899 0.00411
vt 0.53899 0.00411
vt 0.53899 0.00411
vt 0.53899 0.00411
vt 0.53899 0.00411
vt 0.53899 0.00411
vt 0.53899 0.00411
vn -0.8322 -0.5223 -0.1862
vn -0.0924 0.0323 -0.9952
vn -0.8304 -0.5525 -0.0720
vn -0.5114 -0.2593 -0.8193
vn -0.3276 0.9152 0.2346
vn 0.8174 -0.1642 0.5521
vn 0.7762 0.4189 -0.4712
vn 0.7163 -0.1836 0.6732
vn 0.7539 0.4426 -0.4855
vn 0.3771 -0.8662 -0.3280
vn 0.7694 0.4263 -0.4757
vn 0.3729 -0.8701 -0.3222
vn -0.7880 0.1433 -0.5987
vn 0.1091 0.9743 0.1969
vn 0.8585 0.3296 -0.3929
vn -0.0526 0.9980 -0.0347
vn 0.8118 -0.4331 0.3918
vn 0.6410 0.6826 -0.3509
vn -0.0910 0.0811 -0.9925
vn 0.2381 -0.6421 -0.7287
vn 0.9576 -0.0035 0.2882
vn 0.4330 -0.8889 -0.1496
vn 0.7435 -0.1791 0.6443
vn 0.8964 0.2594 -0.3594
vn 0.3781 -0.8651 -0.3295
vn 0.8416 -0.4781 0.2511
vn 0.6605 0.7415 -0.1183
vn -0.1036 0.9934 -0.0496
vn 0.8093 -0.5382 0.2352
vn 0.4330 -0.8889 -0.1496
vn 0.9279 0.2754 -0.2513
vn 0.0134 -0.4741 0.8804
vn -0.3276 0.9152 0.2346
vn 0.7917 0.4014 -0.4605
vn 0.9128 0.3722 -0.1683
vn -0.2903 0.2527 -0.9230
vn 0.6521 -0.7447 -0.1417
vn 0.9779 0.1045 0.1809
vn 0.1915 -0.3514 0.9164
vn 0.6521 -0.7447 -0.1417
vn 0.9335 0.2410 0.2656
vn 0.2532 -0.3032 0.9187
vn 0.8746 -0.3702 0.3130
vn 0.6616 0.7181 -0.2161
vn 0.2377 -0.6515 -0.7205
vn 0.3744 -0.8687 -0.3242
vn -0.7407 0.1605 -0.6524
vn 0.6749 0.5981 -0.4323
vn 0.2670 -0.9551 -0.1281
vn 0.9830 0.1043 0.1512
vn -0.2321 -0.4951 0.8373
vn -0.1183 -0.3971 0.9101
vn 0.2670 -0.9551 -0.1281
vn 0.3217 0.0975 0.9418
vn 0.6929 -0.3560 0.6271
vn 0.8178 0.4411 0.3697
vn 0.2670 -0.9551 -0.1281
vn 0.4330 -0.8889 -0.1496
vn 0.9865 0.1041 0.1260
vn -0.0353 -0.5037 0.8632
vn 0.8484 -0.4148 0.3288
vn 0.8378 0.4315 -0.3346
vn 0.4944 0.5819 -0.6457
vn -0.0798 0.4516 -0.8886
vn -0.3276 0.9152 0.2346
vn 0.8434 -0.1577 0.5136
vn 0.9570 0.2805 0.0742
vn 0.9037 0.3679 -0.2189
vn -0.6276 0.2761 -0.7279
vn 0.1091 0.9743 0.1969
vn 0.2425 0.9213 0.3041
vn 0.1053 -0.6944 -0.7118
vn 0.9902 0.0641 0.1243
vn -0.1812 0.1054 -0.9778
vn -0.6276 0.2761 -0.7279
vn 0.1091 0.9743 0.1969
vn 0.8158 0.2441 -0.5243
vn -0.3062 -0.9510 -0.0425
vn 0.8187 -0.4533 0.3525
vn 0.9493 0.3034 0.0820
vn 0.9501 -0.2422 -0.1966
vn 0.0263 0.4164 -0.9088
vn -0.7240 0.2788 0.6309
vn 0.1694 -0.0971 0.9807
vn 0.4378 0.3948 0.8078
vn 0.7707 -0.5554 -0.3124
vn 0.8178 0.4411 0.3697
vn -0.0525 0.9980 -0.0346
vn 0.8244 -0.4519 0.3409
vn 0.9068 0.4081 0.1059
vn 0.8187 -0.4533 0.3525
vn 0.9056 0.1780 0.3850
vn -0.8074 -0.5310 0.2574
vn 0.2732 -0.0142 -0.9619
vn -0.2766 -0.9609 0.0111
vn 0.8150 0.3368 -0.4715
vn 0.9550 0.2719 0.1183
vn 0.9501 -0.2422 -0.1966
vn -0.1477 -0.9222 -0.3574
vn 0.9430 0.1197 0.3105
vn 0.8459 0.3295 -0.4195
vn 0.9646 0.2183 0.1480
vn -0.1477 -0.9222 -0.3574
vn 0.4755 -0.8114 -0.3397
vn 0.8551 0.1278 0.5024
vn -0.8074 -0.5310 0.2574
vn -0.8724 -0.2350 -0.4286
vn 0.2732 -0.0142 -0.9619
vn 0.5669 -0.8135 -0.1299
vn -0.7801 -0.2585 -0.5698
vn 0.3703 -0.1829 0.9107
vn 0.8369 0.0973 0.5386
vn 0.3473 -0.9225 -0.1687
vn -0.1349 -0.8845 0.4466
vn -0.3854 -0.9016 -0.1963
vn 0.3502 -0.9212 -0.1693
vn 0.0647 -0.3986 0.9148
vn 0.7620 0.0904 0.6412
vn 0.8187 -0.4533 0.3525
vn 0.9038 0.1952 0.3807
vn 0.0732 -0.3812 0.9216
vn 0.1450 -0.9893 -0.0126
vn 0.3328 -0.8617 -0.3830
vn 0.8134 -0.3727 0.4467
vn 0.2617 0.2951 0.9189
vn -0.1248 0.2822 -0.9512
vn 0.8455 0.3849 -0.3701
vn 0.4604 0.8839 -0.0828
vn -0.7102 0.5311 0.4622
vn -0.1931 -0.4821 0.8546
vn 0.0629 -0.9962 0.0604
vn 0.8134 -0.3727 0.4467
vn -0.7102 0.5311 0.4622
vn 0.9732 0.1045 0.2047
vn -0.3622 -0.6112 0.7038
vn 0.3328 -0.8617 -0.3830
vn 0.7847 0.0839 0.6142
vn 0.0102 -0.3259 0.9453
vn 0.6521 -0.7447 -0.1417
vn -0.7102 0.5311 0.4622
vn 0.3328 -0.8617 -0.3830
vn 0.8134 -0.3727 0.4467
vn 0.2732 -0.0142 -0.9619
vn 0.5669 -0.8135 -0.1299
vn 0.9157 0.3383 0.2170
vn 0.9501 -0.2422 -0.1966
vn -0.8724 -0.2350 -0.4286
vn -0.3868 -0.9127 0.1314
vn 0.4424 -0.3624 -0.8203
vn 0.5669 -0.8135 -0.1299
vn -0.1477 -0.9222 -0.3574
vn 0.4755 -0.8114 -0.3397
vn 0.2058 -0.4038 0.8914
vn 0.9585 0.1420 0.2474
vn -0.7801 -0.2585 -0.5698
vn -0.7801 -0.2585 -0.5698
vn -0.3548 -0.9252 -0.1346
vn 0.9224 0.1451 0.3580
vn 0.3435 -0.9240 -0.1678
vn 0.3418 0.3711 -0.8634
vn 0.3478 0.3668 -0.8629
vn 0.3540 0.8984 0.2600
vn 0.9902 0.0641 0.1243
vn 0.9995 0.0313 0.0071
vn -0.8074 -0.5310 0.2574
vn 0.7915 0.5285 -0.3069
vn 0.5366 0.7246 -0.4325
vn -0.8724 -0.2350 -0.4286
vn -0.2818 -0.9550 0.0928
vn -0.5219 -0.1613 -0.8376
vn -0.9256 0.3778 0.0246
vn -0.9823 -0.1440 -0.1196
vn 0.2080 0.9315 0.2985
vn -0.0322 -0.7582 -0.6512
vn 0.5879 0.6777 0.4416
vn 0.9693 0.1945 0.1508
vn -0.3016 0.1163 -0.9463
vn 0.6984 0.4476 -0.5585
vn 0.2617 0.2951 0.9189
vn 0.4604 0.8839 -0.0828
vn 0.2617 0.2951 0.9189
vn -0.0809 -0.9937 -0.0782
vn 0.4424 -0.3624 -0.8203
vn 0.7599 -0.4912 -0.4258
vn 0.4424 -0.3624 -0.8203
vn 0.6873 0.5388 -0.4871
vn 0.7599 -0.4912 -0.4258
vn -0.7692 0.2259 -0.5977
vn 0.6923 0.4542 -0.5607
vn 0.8124 0.4976 -0.3039
vn 0.4604 0.8839 -0.0828
vn -0.8328 0.2916 -0.4706
vn -0.9094 0.2713 -0.3151
vn -0.9256 0.3778 0.0246
vn 0.1687 0.9246 0.3414
vn 0.5487 -0.5907 -0.5916
vn 0.6444 -0.2742 -0.7138
vn 0.8234 -0.5454 0.1568
vn 0.9693 0.1945 0.1508
vn -0.5907 -0.2916 -0.7524
vn 0.4631 0.8436 0.2717
vn -0.9028 0.3532 -0.2454
vn -0.8328 0.2916 -0.4706
vn -0.8434 0.2797 -0.4587
vn 0.3418 0.3711 -0.8634
vn 0.3478 0.3668 -0.8629
vn -0.8328 0.2916 -0.4706
vn 0.2466 0.9159 0.3168
vn 0.3418 0.3711 -0.8634
vn 0.6897 0.4797 -0.5425
vn -0.6441 0.3779 -0.6651
vn 0.1384 -0.7410 -0.6571
vn 0.9206 0.3812 0.0843
vn 0.6416 0.0747 0.7634
vn 0.1992 -0.4230 0.8839
vn 0.4755 -0.8114 -0.3397
vn 0.3261 0.4918 -0.8073
vn 0.0464 -0.9986 -0.0257
vn -0.0693 -0.3847 0.9204
vn -0.4357 -0.4664 0.7699
vn 0.1770 -0.9833 -0.0413
vn -0.8815 -0.4330 -0.1881
vn 0.3217 0.0975 0.9418
vn -0.2463 0.2433 -0.9382
vn -0.5219 -0.1613 -0.8376
vn -0.5450 0.4399 -0.7138
vn -0.9823 -0.1440 -0.1196
vn 0.1973 -0.6386 -0.7438
vn 0.9743 0.1189 -0.1911
vn 0.7707 -0.5554 -0.3124
vn -0.2757 -0.4572 0.8456
vn -0.2434 -0.9410 0.2350
vn -0.7762 0.5437 0.3191
vn 0.0343 -0.9967 0.0741
vn 0.3217 0.0975 0.9418
vn 0.8178 0.4411 0.3697
vn -0.3209 0.9444 0.0713
vn 0.4083 0.3714 -0.8339
vn -0.1349 -0.8845 0.4466
vn -0.7433 -0.1108 -0.6597
vn 0.2380 -0.2586 0.9362
vn 0.3532 -0.9200 -0.1700
vn -0.6057 0.4113 -0.6811
vn 0.3039 -0.8118 -0.4987
vn -0.9823 -0.1440 -0.1196
vn 0.1145 0.6950 -0.7098
vn 0.2230 -0.0903 -0.9706
vn 0.4647 0.8078 0.3625
vn 0.6444 -0.2742 -0.7138
vn 0.9693 0.1945 0.1508
vn 0.1629 0.3579 -0.9194
vn 0.8702 0.3371 -0.3592
vn -0.0041 -0.9892 -0.1466
vn -0.5219 -0.1613 -0.8376
vn -0.9717 -0.1746 -0.1590
vn 0.1973 -0.6386 -0.7438
vn 0.3698 0.8678 0.3319
vn 0.3259 0.4333 -0.8402
vn 0.1308 0.3588 -0.9242
vn 0.7758 0.4449 -0.4475
vn 0.9407 0.3253 -0.0959
vn 0.7073 0.4974 0.5023
vn -0.0298 -0.1248 -0.9917
vn -0.5129 0.0938 -0.8533
vn 0.7073 0.4974 0.5023
vn 0.3624 -0.9265 -0.1017
vn 0.8715 0.3738 -0.3173
vn 0.5706 0.5001 -0.6514
vn -0.0883 -0.9746 -0.2060
vn 0.7599 -0.4912 -0.4258
vn 0.0493 -0.4449 0.8942
vn 0.2697 -0.9546 -0.1261
vn -0.8911 -0.4325 -0.1374
vn -0.5129 0.0938 -0.8533
vn -0.2938 0.9518 0.0879
vn 0.2763 0.3385 -0.8995
vn 0.9055 0.3222 -0.2761
vn 0.7073 0.4974 0.5023
vn -0.2463 0.2433 -0.9382
vn -0.5366 0.7411 0.4035
vn -0.7863 0.3580 -0.5036
vn 0.9743 0.1189 -0.1911
vn -0.2566 -0.6038 0.7547
vn -0.8992 -0.4372 -0.0196
vn -0.5410 -0.3350 0.7714
vn -0.5366 0.7411 0.4035
vn -0.7397 0.2624 -0.6196
vn 0.0992 -0.4091 -0.9071
vn 0.9743 0.1189 -0.1911
vn 0.2646 0.3816 -0.8857
vn -0.3091 0.9287 0.2051
vn -0.5366 0.7411 0.4035
vn -0.7595 0.5517 -0.3447
vn -0.7863 0.3580 -0.5036
vn -0.9432 -0.2534 0.2147
vn -0.9717 -0.1746 -0.1590
vn 0.0992 -0.4091 -0.9071
vn -0.7433 -0.1108 -0.6597
vn 0.5246 -0.8179 0.2362
vn 0.1462 -0.2889 0.9461
vn -0.7576 -0.1094 -0.6434
vn 0.6182 -0.7662 0.1755
vn 0.2062 -0.2620 0.9428
vn -0.2779 0.9093 -0.3098
vn 0.3149 0.9056 0.2841
vn 0.1145 0.6950 -0.7098
vn -0.0298 -0.1248 -0.9917
vn -0.5129 0.0938 -0.8533
vn -0.4182 0.9045 0.0831
vn -0.4803 -0.0717 -0.8742
vn -0.8348 -0.3691 -0.4086
vn -0.3896 -0.3494 0.8521
vn -0.1617 -0.9775 0.1358
vn -0.9624 -0.2691 -0.0360
vn -0.7576 -0.1094 -0.6434
vn 0.0058 0.5347 -0.8450
vn 0.9788 -0.1002 -0.1785
vn 0.4603 0.0585 0.8858
vn 0.5995 -0.7997 0.0329
vn -0.7595 0.5517 -0.3447
vn 0.0992 -0.4091 -0.9071
vn 0.4909 0.3771 -0.7854
vn 0.2817 -0.8954 -0.3449
vn -0.7702 0.2043 -0.6042
vn 0.8152 0.3783 -0.4386
vn -0.8712 -0.1665 -0.4618
vn 0.9344 0.3073 -0.1804
vn 0.0124 0.3558 -0.9345
vn 0.2894 -0.9183 -0.2701
vn -0.0096 0.1078 -0.9941
vn -0.2443 -0.9368 -0.2505
vn -0.7595 0.5517 -0.3447
vn -0.9432 -0.2534 0.2147
vn 0.2891 -0.9032 -0.3173
vn 0.4236 -0.7692 -0.4785
vn 0.5419 -0.2182 -0.8117
vn -0.8712 -0.1665 -0.4618
vn 0.5484 0.5111 -0.6619
vn 0.0737 -0.9676 -0.2413
vn 0.5512 -0.8344 -0.0066
vn 0.1576 -0.5075 0.8471
vn 0.8494 0.1732 0.4985
vn -0.1349 -0.8845 0.4466
vn -0.7433 -0.1108 -0.6597
vn 0.6439 -0.7580 0.1045
vn 0.0842 -0.3725 0.9242
vn 0.8090 0.1833 0.5585
vn 0.0384 -0.3751 0.9262
vn 0.8568 0.2134 0.4694
vn -0.2463 0.2433 -0.9382
vn -0.7863 0.3580 -0.5036
vn -0.9717 -0.1746 -0.1590
vn 0.1973 -0.6386 -0.7438
vn -0.0096 0.1078 -0.9941
vn 0.3291 -0.4906 0.8068
vn -0.9453 -0.3175 -0.0746
vn -0.2214 0.9669 0.1268
vn -0.9788 -0.1185 0.1672
vn 0.5419 -0.2182 -0.8117
vn 0.1809 -0.3467 0.9204
vn 0.0582 0.5802 -0.8124
vn 0.9788 -0.1002 -0.1785
vn 0.6357 -0.7436 -0.2075
vn 0.9007 0.4024 0.1635
vn -0.2443 -0.9368 -0.2505
vn -0.9352 -0.3393 -0.1015
vn -0.3608 0.2384 -0.9017
vn 0.4236 -0.7692 -0.4785
vn 0.3100 0.4200 -0.8529
vn -0.2676 0.9488 0.1679
vn -0.9305 -0.2799 0.2364
vn -0.4312 -0.4511 0.7814
vn -0.9448 -0.3173 -0.0819
vn -0.5889 0.1675 -0.7907
vn 0.0353 0.1469 -0.9885
vn 0.4611 -0.8726 -0.1608
vn 0.9315 0.3576 -0.0669
vn 0.0829 0.5479 -0.8324
vn -0.0298 -0.1248 -0.9917
vn -0.8348 -0.3691 -0.4086
vn 0.4480 -0.8893 -0.0922
vn 0.5705 0.1206 0.8124
vn -0.8712 -0.1665 -0.4618
vn -0.5828 -0.0834 -0.8083
vn 0.5112 0.3746 -0.7735
vn 0.2759 -0.8890 -0.3656
vn -0.2443 -0.9368 -0.2505
vn -0.6112 -0.0805 -0.7874
vn -0.9211 -0.3383 -0.1927
vn 0.2863 -0.9003 -0.3280
vn -0.4397 0.8944 0.0820
vn -0.6366 -0.0778 -0.7673
vn 0.5346 0.3930 -0.7482
vn 0.5539 0.5622 -0.6141
vn 0.1471 -0.4345 0.8886
vn -0.0096 0.1078 -0.9941
vn -0.2538 0.9547 0.1555
vn -0.9432 -0.2534 0.2147
vn -0.8348 -0.3691 -0.4086
vn -0.5113 -0.0863 -0.8550
vn 0.5349 0.0561 0.8430
vn 0.2655 -0.5160 0.8144
vn 0.4603 0.0585 0.8858
vn 0.9788 -0.1002 -0.1785
vn 0.5370 -0.8369 -0.1057
vn -0.5889 0.1675 -0.7907
vn 0.4604 -0.8756 -0.1464
vn 0.1070 0.5688 -0.8155
vn -0.5067 0.7959 -0.3315
vn 0.2557 0.9234 0.2862
vn 0.3828 0.4800 -0.7894
vn -0.9589 0.1690 0.2280
vn 0.3704 -0.4219 0.8275
vn -0.9603 0.1958 0.1988
vn 0.4021 -0.2828 0.8708
vn -0.5060 -0.6135 0.6062
vn -0.4837 -0.0723 -0.8722
vn -0.8556 0.2216 -0.4678
vn 0.5535 -0.8237 -0.1230
vn 0.5809 0.1409 0.8017
vn -0.8331 -0.5369 -0.1329
vn 0.4625 -0.8859 -0.0360
vn 0.2655 -0.5160 0.8144
vn -0.5397 0.4534 -0.7093
vn 0.0116 0.8681 0.4963
vn -0.9053 0.1167 0.4084
vn -0.5900 0.4106 -0.6952
vn -0.4183 0.8481 -0.3253
vn 0.0835 0.9492 0.3035
vn -0.5397 0.4534 -0.7093
vn 0.1145 0.6950 -0.7098
vn 0.2230 -0.0903 -0.9706
vn 0.4916 0.1039 -0.8646
vn -0.6088 0.7899 0.0733
vn -0.4848 0.8699 0.0910
vn -0.4793 -0.0625 -0.8754
vn -0.9279 -0.3240 0.1846
vn -0.8544 0.2432 -0.4592
vn -0.2914 0.3082 -0.9056
vn 0.4028 -0.9147 0.0340
vn -0.7371 -0.6645 0.1230
vn 0.1408 -0.5554 0.8196
vn 0.2655 -0.5160 0.8144
vn 0.4603 0.0585 0.8858
vn -0.1798 0.3020 -0.9362
vn 0.9007 0.4024 0.1635
vn -0.5185 -0.0881 -0.8505
vn 0.5465 0.0765 0.8339
vn -0.2169 -0.6084 0.7634
vn -0.8100 -0.4908 0.3209
vn -0.3544 -0.7647 0.5382
vn 0.2203 -0.9754 -0.0052
vn -0.8195 -0.5487 0.1655
vn -0.6621 -0.0750 -0.7456
vn -0.4853 0.8694 0.0932
vn -0.9361 -0.3297 0.1223
vn -0.6444 0.6880 -0.3338
vn 0.0138 0.8711 0.4908
vn -0.8916 0.3583 0.2770
vn -0.6088 0.7899 0.0733
vn -0.8208 0.4390 -0.3655
vn -0.9895 0.1355 0.0498
vn 0.7628 -0.6446 -0.0517
vn -0.7576 -0.1094 -0.6434
vn -0.0195 -0.5309 0.8472
vn 0.0938 0.3008 -0.9491
vn -0.6088 0.7899 0.0733
vn -0.8912 -0.4534 -0.0160
vn -0.3064 0.2936 -0.9055
vn 0.7628 -0.6446 -0.0517
vn -0.9895 0.1355 0.0498
vn -0.2887 -0.7154 0.6362
vn 0.3948 -0.8940 -0.2119
vn -0.9153 -0.3997 -0.0505
vn 0.7628 -0.6446 -0.0517
vn 0.3454 -0.8863 -0.3087
vn 0.0726 0.1007 -0.9923
vn -0.8127 -0.4433 -0.3782
vn -0.5889 0.1675 -0.7907
vn 0.3519 -0.5874 0.7288
vn -0.0564 0.7533 0.6552
vn -0.9000 0.2128 0.3805
vn -0.9017 0.3246 0.2856
vn 0.4021 -0.2828 0.8708
vn 0.0500 -0.4447 0.8943
vn 0.2953 -0.9536 -0.0593
vn -0.7421 -0.6692 -0.0370
vn -0.8432 -0.5224 0.1267
vn 0.0345 -0.4105 0.9112
vn 0.5471 -0.8290 -0.1155
vn -0.4208 -0.6507 0.6321
vn 0.0493 0.0586 -0.9971
vn -0.9267 -0.3693 -0.0692
vn -0.3841 0.2136 -0.8982
vn 0.4236 -0.7692 -0.4785
vn 0.5419 -0.2182 -0.8117
vn 0.0281 -0.4960 0.8679
vn 0.1971 0.3085 -0.9306
vn 0.9007 0.4024 0.1635
vn -0.9895 0.1355 0.0498
vn -0.8302 0.4035 -0.3847
vn 0.5256 -0.8209 -0.2232
vn -0.6742 -0.7371 0.0447
vn 0.0628 -0.4598 0.8858
vn 0.0745 -0.4797 0.8743
vn 0.0277 0.0364 -0.9990
vn -0.9876 -0.0888 0.1295
vn -0.6771 -0.4930 -0.5463
vn 0.5336 -0.8192 -0.2101
vn -0.6658 -0.4458 -0.5983
vn 0.5335 -0.8244 -0.1892
vn -0.8053 -0.4269 -0.4114
vn -0.4208 -0.6507 0.6321
vn 0.6002 0.1898 0.7770
vn -0.4208 -0.6507 0.6321
vn -0.7096 -0.6378 -0.2995
vn -0.9876 -0.0888 0.1295
vn 0.4367 -0.8763 -0.2033
vn 0.6002 0.1898 0.7770
vn -0.7096 -0.6378 -0.2995
vn -0.8362 -0.5440 -0.0688
vn 0.4924 -0.8659 -0.0882
vn 0.6002 0.1898 0.7770
vn -0.7581 -0.6028 0.2488
vn -0.2099 -0.1503 -0.9661
vn -0.6836 -0.4759 -0.5534
vn -0.7096 -0.6378 -0.2995
vn -0.9876 -0.0888 0.1295
vn 0.4924 -0.8659 -0.0882
vn -0.2692 -0.2457 -0.9312
vn -0.8210 -0.5645 -0.0857
vn 0.4924 -0.8659 -0.0882
vn 0.7853 0.5457 -0.2924
vn 0.1264 0.0897 -0.9879
vn 0.9548 -0.1564 0.2527
vn 0.0657 0.0095 0.9978
vn 0.9035 -0.4039 0.1435
vn 0.9815 0.1396 0.1308
vn 0.3676 0.8993 0.2369
vn 0.9532 -0.1302 0.2730
vn 0.2105 -0.1663 0.9634
vn 0.7853 0.5457 -0.2924
vn 0.3573 -0.0841 0.9302
vn -0.8744 -0.3638 0.3209
vn 0.0748 0.4867 0.8704
vn 0.1209 -0.0172 -0.9925
vn 0.9631 -0.1359 0.2325
vn 0.1000 -0.0251 0.9947
vn 0.8527 -0.5088 0.1183
vn 0.1012 -0.0474 -0.9937
vn 0.8373 0.4092 0.3625
vn 0.3408 -0.3278 -0.8811
vn 0.8955 -0.4277 0.1227
vn 0.9774 -0.0081 0.2112
vn 0.2192 -0.4808 -0.8490
vn 0.8513 -0.5140 0.1057
vn -0.0616 -0.0869 -0.9943
vn 0.3698 0.9000 0.2308
vn 0.3410 -0.2751 0.8989
vn 0.9576 -0.0035 0.2882
vn 0.1249 0.0562 -0.9906
vn 0.8932 0.3502 0.2822
vn 0.3131 0.5554 -0.7704
vn 0.9908 0.1351 0.0059
vn 0.1087 0.1225 -0.9865
vn 0.1522 0.9648 0.2144
vn 0.7853 0.5457 -0.2924
vn -0.1812 0.1054 -0.9778
vn 0.7401 0.1378 -0.6582
vn -0.1079 0.9919 -0.0667
vn 0.9447 -0.1477 -0.2927
vn -0.2030 0.1281 -0.9708
vn -0.3537 -0.1226 -0.9273
vn -0.9632 0.1886 -0.1917
vn 0.3087 -0.2885 -0.9064
vn 0.2195 0.5887 -0.7780
vn 0.9804 0.1850 0.0681
vn 0.1752 -0.0878 -0.9806
vn 0.0777 0.0055 0.9970
vn 0.7987 -0.5911 0.1129
vn -0.5543 -0.7832 0.2817
vn 0.8240 0.2581 -0.5044
vn 0.3435 0.9055 0.2492
vn 0.9576 -0.0035 0.2882
vn -0.9855 0.0968 -0.1393
vn 0.2159 -0.5035 -0.8366
vn -0.9995 0.0143 0.0292
vn 0.1167 0.0340 0.9926
vn 0.3536 -0.2902 0.8892
vn 0.2001 0.7586 0.6201
vn 0.3226 -0.2834 0.9031
vn -0.9110 0.1242 0.3932
vn -0.8977 -0.1591 0.4110
vn -0.3531 -0.2785 -0.8932
vn -0.9390 -0.3140 -0.1401
vn 0.1880 -0.1543 0.9700
vn 0.2001 0.7586 0.6201
vn 0.2001 0.7586 0.6201
vn 0.1102 0.0941 0.9894
vn 0.9774 -0.0314 0.2093
vn -0.0367 0.0413 0.9985
vn -0.0009 -0.4055 -0.9141
vn 0.7988 -0.5908 0.1134
vn -0.5619 -0.7743 0.2909
vn 0.2421 0.5812 -0.7769
vn -0.9372 0.1409 -0.3190
vn 0.0313 -0.0040 -0.9995
vn -0.9867 0.0289 -0.1601
vn -0.9031 0.1275 0.4100
vn -0.3123 0.0023 -0.9500
vn -0.1812 0.1054 -0.9778
vn -0.2383 0.9694 -0.0591
vn -0.6276 0.2761 -0.7279
vn 0.9902 0.0641 0.1243
vn 0.9995 0.0313 0.0071
vn -0.4550 -0.8716 0.1823
vn 0.7914 -0.5525 -0.2616
vn 0.3744 -0.6947 0.6142
vn -0.1705 -0.0545 -0.9839
vn 0.3056 -0.5641 0.7671
vn -0.9179 0.0054 0.3968
vn -0.4550 -0.8716 0.1823
vn 0.3229 0.9290 -0.1809
vn 0.9337 -0.3534 0.0586
vn 0.4221 0.3742 -0.8257
vn 0.3415 0.5439 -0.7665
vn 0.1946 0.8982 -0.3943
vn 0.9243 -0.3720 0.0849
vn -0.8984 0.0841 -0.4310
vn -0.1334 0.9849 -0.1104
vn 0.9366 -0.3418 0.0776
vn 0.3759 0.1885 -0.9073
vn 0.3346 0.9130 -0.2336
vn -0.2050 0.9788 0.0015
vn 0.3478 0.3668 -0.8629
vn 0.9995 0.0313 0.0071
vn 0.9128 -0.4073 0.0298
vn 0.2436 -0.1792 -0.9532
vn -0.4550 -0.8716 0.1823
vn -0.9083 0.0120 0.4181
vn -0.2138 0.0283 -0.9765
vn -0.9758 0.1991 -0.0902
vn 0.0972 -0.0241 0.9950
vn -0.5475 -0.7908 0.2735
vn -0.9944 0.0572 -0.0889
vn 0.1586 0.0094 0.9873
vn -0.7240 0.2788 0.6309
vn 0.7707 -0.5554 -0.3124
vn -0.9586 -0.1230 0.2569
vn -0.7762 0.5437 0.3191
vn -0.9729 0.2192 -0.0735
vn 0.0601 -0.4762 -0.8773
vn -0.5535 -0.7841 0.2808
vn -0.4008 0.8382 0.3699
vn -0.6944 -0.3146 0.6472
vn -0.9495 -0.0843 0.3022
vn -0.7372 -0.6017 0.3075
vn -0.9390 -0.3140 -0.1401
vn 0.5336 -0.5113 0.6736
vn -0.7240 0.2788 0.6309
vn -0.9583 -0.1232 0.2579
vn -0.6549 -0.7431 0.1375
vn 0.0748 0.4867 0.8704
vn 0.1694 -0.0971 0.9807
vn -0.1799 -0.9143 -0.3629
vn -0.6944 -0.3146 0.6472
vn 0.5336 -0.5113 0.6736
vn -0.9075 0.1877 0.3757
vn -0.1671 0.0556 -0.9844
vn -0.3406 -0.4800 -0.8084
vn -0.2526 -0.9421 -0.2204
vn 0.4992 -0.3881 0.7747
vn -0.9390 -0.3140 -0.1401
vn 0.5336 -0.5113 0.6736
vn -0.4008 0.8382 0.3699
vn -0.8925 0.0508 0.4481
vn -0.4654 -0.2680 0.8435
vn 0.4621 0.7997 0.3833
vn -0.9010 0.3355 -0.2749
vn 0.4154 0.4088 -0.8126
vn -0.6383 -0.5621 0.5259
vn 0.9074 -0.3084 0.2854
vn -0.9663 0.0763 -0.2459
vn -0.3423 -0.9387 -0.0413
vn 0.9085 -0.4164 0.0363
vn -0.0473 -0.1977 0.9791
vn -0.6383 -0.5621 0.5259
vn 0.0609 0.4542 0.8888
vn 0.9363 -0.3296 0.1211
vn -0.0980 -0.2682 0.9584
vn 0.7667 -0.6366 0.0834
vn -0.0246 -0.1137 0.9932
vn -0.5030 -0.3174 0.8039
vn 0.2251 -0.9722 -0.0639
vn -0.9275 -0.0200 0.3732
vn -0.3659 -0.1778 0.9135
vn -0.7762 0.5437 0.3191
vn -0.0553 -0.9890 0.1370
vn -0.8783 0.3636 -0.3104
vn 0.3715 0.2501 -0.8941
vn -0.5907 -0.2916 -0.7524
vn -0.9199 0.3736 -0.1189
vn -0.0540 -0.2362 0.9702
vn 0.0609 0.4542 0.8888
vn -0.4483 -0.8750 -0.1828
vn -0.0953 -0.2715 -0.9577
vn 0.8051 -0.5907 0.0538
vn 0.1537 -0.3090 -0.9386
vn -0.5907 -0.2916 -0.7524
vn -0.6383 -0.5621 0.5259
vn -0.9352 0.2232 -0.2747
vn -0.3405 -0.9306 -0.1343
vn 0.0609 0.4542 0.8888
vn -0.4008 0.8382 0.3699
vn -0.6944 -0.3146 0.6472
vn -0.5473 -0.3214 0.7728
vn -0.9963 0.0079 -0.0860
vn -0.3233 -0.9358 -0.1404
vn -0.1587 0.7089 -0.6872
vn -0.8796 0.1986 -0.4323
vn -0.1587 0.7089 -0.6872
vn -0.8570 0.4559 -0.2403
vn 0.2230 -0.0903 -0.9706
vn 0.6444 -0.2742 -0.7138
vn 0.4134 0.0950 -0.9056
vn 0.7967 -0.6000 0.0724
vn -0.4557 0.0459 0.8889
vn -0.2282 -0.8712 0.4347
vn -0.9764 -0.2160 -0.0030
vn -0.7366 -0.0529 -0.6742
vn 0.1526 -0.3056 -0.9399
vn -0.4483 -0.8750 -0.1828
vn -0.1587 0.7089 -0.6872
vn -0.5882 -0.0573 -0.8067
vn -0.8671 0.3467 -0.3576
vn 0.2636 -0.1116 -0.9582
vn -0.5489 -0.3350 0.7658
vn -0.9756 0.1650 -0.1450
vn -0.2348 -0.8405 0.4883
vn 0.2781 -0.9550 -0.1033
vn -0.9256 0.3778 0.0246
vn 0.5487 -0.5907 -0.5916
vn -0.4483 -0.8750 -0.1828
vn -0.0740 -0.2745 -0.9587
vn -0.9237 0.1071 -0.3679
vn -0.4557 0.0459 0.8889
vn 0.4140 -0.3410 0.8440
vn -0.9657 -0.2585 -0.0230
vn -0.0181 -0.2816 -0.9594
vn 0.7511 -0.6503 0.1136
vn -0.6752 -0.7197 -0.1617
vn -0.9672 -0.0011 0.2541
vn 0.7466 -0.6578 0.0999
vn -0.6752 -0.7197 -0.1617
vn -0.0270 -0.1174 0.9927
vn 0.0350 -0.2876 -0.9571
vn -0.6752 -0.7197 -0.1617
vn -0.9267 0.2931 -0.2351
vn -0.9672 -0.0011 0.2541
vn -0.5924 0.2941 -0.7500
vn 0.8514 -0.1878 -0.4898
vn -0.4412 -0.8946 -0.0714
vn -0.5397 0.4534 -0.7093
vn 0.5775 0.1133 -0.8085
vn -0.9538 0.2567 -0.1559
vn -0.0235 -0.1573 0.9873
vn -0.9672 -0.0011 0.2541
vn 0.4176 -0.4783 0.7725
vn -0.9490 0.1283 0.2879
vn 0.4096 -0.4326 0.8032
vn 0.8071 -0.0709 -0.5861
vn -0.4412 -0.8946 -0.0714
vn 0.4995 0.1048 -0.8600
vn 0.7000 -0.7024 -0.1289
vn -0.0129 -0.8257 0.5640
vn -0.4557 0.0459 0.8889
vn 0.4021 -0.2828 0.8708
vn 0.4467 -0.2730 0.8520
vn -0.6264 0.1366 -0.7674
vn 0.8108 -0.1387 -0.5686
vn -0.4412 -0.8946 -0.0714
vn 0.5487 -0.5907 -0.5916
vn 0.1905 -0.6952 0.6931
vn 0.8385 -0.0749 -0.5397
vn 0.7435 -0.6669 -0.0500
vn -0.0837 -0.9730 -0.2150
vn 0.3826 -0.3890 0.8380
vn -0.9888 -0.1325 -0.0682
vn -0.0837 -0.9730 -0.2150
vn 0.3296 -0.3341 0.8830
vn 0.7963 -0.2825 -0.5348
vn -0.9684 0.0466 0.2451
vn -0.6033 0.2825 -0.7458
vn -0.0837 -0.9730 -0.2150
vn -0.9686 -0.1458 -0.2013
vn -0.6442 0.1140 -0.7563
vn 0.7861 -0.2304 -0.5735
vn 0.9452 -0.1343 -0.2977
vn 0.3691 -0.1327 0.9199
vn -0.0893 0.9939 0.0645
vn 0.6410 0.6826 -0.3509
vn 0.9683 0.0586 -0.2430
vn -0.1380 0.0698 -0.9880
vn 0.9524 0.2858 0.1065
vn -0.0893 0.9939 0.0645
vn 0.0748 0.4867 0.8704
vn 0.1694 -0.0971 0.9807
vn 0.4378 0.3948 0.8078
vn 0.7189 0.4193 -0.5544
vn 0.9736 0.0824 -0.2127
vn 0.3813 -0.0234 0.9242
vn 0.8368 -0.4613 -0.2950
vn -0.2858 0.0001 -0.9583
vn -0.0893 0.9939 0.0645
vn 0.7189 0.4193 -0.5544
vn 0.9524 0.2858 0.1065
vn 0.8581 -0.2866 -0.4261
vn 0.3235 -0.2755 0.9052
vn -0.0311 0.9991 -0.0284
vn 0.6410 0.6826 -0.3509
vn 0.4378 0.3948 0.8078
vn 0.7189 0.4193 -0.5544
vn 0.9524 0.2858 0.1065
vn 0.8308 -0.4858 -0.2715
vn 0.2722 -0.3521 0.8955
vn 0.2438 -0.3532 0.9032
vn -0.9057 0.2028 0.3723
vn 0.0000 1.0000 0.0000
vn 0.0000 1.0000 0.0000
vn 0.0000 1.0000 0.0000
vn 0.0000 1.0000 0.0000
vn 0.0000 1.0000 0.0000
vn 0.0000 1.0000 0.0000
vn 0.0000 1.0000 0.0000
vn 0.0000 1.0000 0.0000
vn 0.0000 1.0000 0.0000
vn 0.0000 1.0000 0.0000
vn 0.0000 1.0000 0.0000
vn 0.0000 1.0000 0.0000
vn 0.0000 1.0000 0.0000
vn 0.0000 1.0000 0.0000
vn 0.0000 1.0000 0.0000
vn 0.0000 1.0000 0.0000
vn 0.0000 1.0000 0.0000
vn 0.0000 1.0000 0.0000
vn 0.0000 1.0000 0.0000
vn 0.0000 1.0000 0.0000
vn 0.0000 1.0000 0.0000
vn 0.0000 1.0000 0.0000
vn 0.0000 1.0000 0.0000
vn 0.0000 1.0000 0.0000
vn 0.0000 1.0000 0.0000
vn 0.0000 1.0000 0.0000
vn 0.0000 1.0000 0.0000
vn 0.0000 1.0000 0.0000
vn 0.0000 1.0000 0.0000
vn 0.0000 1.0000 0.0000
vn 0.0000 1.0000 0.0000
vn 0.0000 1.0000 0.0000
vn 0.0000 1.0000 0.0000
f 799/799/799 811/811/811 543/543/543
f 798/798/798 802/802/802 810/810/810
f 798/798/798 571/571/571 802/802/802
f 799/799/799 543/543/543 591/591/591
f 798/798/798 812/812/812 571/571/571
f 805/805/805 800/800/800 814/814/814
f 798/798/798 817/817/817 812/812/812
f 542/542/542 533/533/533 567/567/567
f 815/815/815 822/822/822 809/809/809
f 600/600/600 547/547/547 535/535/535
f 554/554/554 547/547/547 600/600/600
f 538/538/538 554/554/554 600/600/600
f 823/823/823 816/816/816 804/804/804
f 600/600/600 535/535/535 540/540/540
f 812/812/812 817/817/817 824/824/824
f 799/799/799 591/591/591 818/818/818
f 663/663/663 545/545/545 806/806/806
f 825/825/825 818/818/818 826/826/826
f 8/8/8 6/6/6 23/23/23
f 583/583/583 539/539/539 566/566/566
f 25/25/25 46/46/46 10/10/10
f 546/546/546 561/561/561 534/534/534
f 67/67/67 41/41/41 31/31/31
f 7/7/7 9/9/9 11/11/11
f 546/546/546 550/550/550 561/561/561
f 820/820/820 801/801/801 18/18/18
f 558/558/558 539/539/539 583/583/583
f 23/23/23 6/6/6 66/66/66
f 549/549/549 553/553/553 537/537/537
f 27/27/27 44/44/44 48/48/48
f 553/553/553 549/549/549 556/556/556
f 561/561/561 565/565/565 534/534/534
f 19/19/19 803/803/803 557/557/557
f 43/43/43 26/26/26 17/17/17
f 67/67/67 31/31/31 24/24/24
f 29/29/29 17/17/17 26/26/26
f 30/30/30 58/58/58 22/22/22
f 32/32/32 42/42/42 39/39/39
f 601/601/601 541/541/541 596/596/596
f 562/562/562 577/577/577 564/564/564
f 584/584/584 21/21/21 560/560/560
f 60/60/60 32/32/32 39/39/39
f 573/573/573 813/813/813 594/594/594
f 566/566/566 570/570/570 583/583/583
f 669/669/669 803/803/803 572/572/572
f 552/552/552 555/555/555 575/575/575
f 536/536/536 588/588/588 548/548/548
f 562/562/562 551/551/551 577/577/577
f 576/576/576 605/605/605 563/563/563
f 824/824/824 617/617/617 812/812/812
f 33/33/33 65/65/65 5/5/5
f 10/10/10 46/46/46 12/12/12
f 557/557/557 803/803/803 669/669/669
f 88/88/88 819/819/819 16/16/16
f 34/34/34 7/7/7 11/11/11
f 552/552/552 575/575/575 578/578/578
f 825/825/825 826/826/826 620/620/620
f 61/61/61 89/89/89 26/26/26
f 139/139/139 37/37/37 40/40/40
f 599/599/599 588/588/588 536/536/536
f 72/72/72 45/45/45 20/20/20
f 59/59/59 38/38/38 50/50/50
f 596/596/596 541/541/541 559/559/559
f 825/825/825 620/620/620 618/618/618
f 549/549/549 580/580/580 556/556/556
f 77/77/77 15/15/15 582/582/582
f 134/134/134 50/50/50 38/38/38
f 26/26/26 89/89/89 29/29/29
f 594/594/594 670/670/670 573/573/573
f 41/41/41 105/105/105 137/137/137
f 555/555/555 586/586/586 575/575/575
f 88/88/88 16/16/16 28/28/28
f 559/559/559 589/589/589 596/596/596
f 578/578/578 575/575/575 607/607/607
f 72/72/72 212/212/212 45/45/45
f 591/591/591 826/826/826 818/818/818
f 77/77/77 582/582/582 569/569/569
f 210/210/210 48/48/48 44/44/44
f 605/605/605 626/626/626 563/563/563
f 84/84/84 664/664/664 807/807/807
f 672/672/672 589/589/589 559/559/559
f 36/36/36 47/47/47 177/177/177
f 13/13/13 47/47/47 36/36/36
f 51/51/51 135/135/135 130/130/130
f 566/566/566 630/630/630 570/570/570
f 592/592/592 544/544/544 593/593/593
f 597/597/597 590/590/590 598/598/598
f 603/603/603 556/556/556 580/580/580
f 555/555/555 602/602/602 652/652/652
f 629/629/629 606/606/606 608/608/608
f 85/85/85 808/808/808 821/821/821
f 49/49/49 53/53/53 57/57/57
f 813/813/813 610/610/610 594/594/594
f 35/35/35 62/62/62 68/68/68
f 619/619/619 641/641/641 813/813/813
f 70/70/70 14/14/14 76/76/76
f 151/151/151 103/103/103 99/99/99
f 81/81/81 98/98/98 146/146/146
f 621/621/621 827/827/827 609/609/609
f 41/41/41 67/67/67 105/105/105
f 64/64/64 36/36/36 82/82/82
f 813/813/813 641/641/641 610/610/610
f 548/548/548 588/588/588 646/646/646
f 102/102/102 158/158/158 154/154/154
f 158/158/158 102/102/102 97/97/97
f 568/568/568 611/611/611 74/74/74
f 78/78/78 157/157/157 95/95/95
f 606/606/606 574/574/574 608/608/608
f 612/612/612 570/570/570 630/630/630
f 236/236/236 87/87/87 56/56/56
f 639/639/639 616/616/616 622/622/622
f 657/657/657 544/544/544 662/662/662
f 89/89/89 61/61/61 55/55/55
f 592/592/592 609/609/609 827/827/827
f 631/631/631 624/624/624 689/689/689
f 628/628/628 689/689/689 624/624/624
f 119/119/119 79/79/79 91/91/91
f 62/62/62 101/101/101 68/68/68
f 629/629/629 608/608/608 683/683/683
f 108/108/108 143/143/143 94/94/94
f 633/633/633 627/627/627 623/623/623
f 67/67/67 100/100/100 105/105/105
f 632/632/632 700/700/700 625/625/625
f 593/593/593 544/544/544 657/657/657
f 595/595/595 658/658/658 673/673/673
f 630/630/630 634/634/634 612/612/612
f 78/78/78 115/115/115 157/157/157
f 592/592/592 593/593/593 609/609/609
f 137/137/137 105/105/105 214/214/214
f 628/628/628 682/682/682 689/689/689
f 216/216/216 104/104/104 152/152/152
f 574/574/574 585/585/585 608/608/608
f 555/555/555 652/652/652 586/586/586
f 69/69/69 75/75/75 613/613/613
f 150/150/150 144/144/144 109/109/109
f 213/213/213 80/80/80 145/145/145
f 631/631/631 689/689/689 637/637/637
f 52/52/52 51/51/51 130/130/130
f 609/609/609 640/640/640 621/621/621
f 80/80/80 90/90/90 92/92/92
f 178/178/178 48/48/48 210/210/210
f 643/643/643 548/548/548 646/646/646
f 585/585/585 642/642/642 645/645/645
f 116/116/116 113/113/113 159/159/159
f 604/604/604 581/581/581 653/653/653
f 118/118/118 92/92/92 120/120/120
f 136/136/136 123/123/123 141/141/141
f 36/36/36 177/177/177 126/126/126
f 106/106/106 93/93/93 165/165/165
f 660/660/660 83/83/83 647/647/647
f 112/112/112 154/154/154 158/158/158
f 585/585/585 651/651/651 642/642/642
f 86/86/86 230/230/230 648/648/648
f 548/548/548 643/643/643 579/579/579
f 645/645/645 608/608/608 585/585/585
f 608/608/608 645/645/645 587/587/587
f 129/129/129 133/133/133 140/140/140
f 164/164/164 615/615/615 636/636/636
f 649/649/649 656/656/656 661/661/661
f 736/736/736 632/632/632 638/638/638
f 36/36/36 126/126/126 82/82/82
f 163/163/163 73/73/73 614/614/614
f 581/581/581 644/644/644 653/653/653
f 116/116/116 242/242/242 113/113/113
f 637/637/637 689/689/689 685/685/685
f 659/659/659 667/667/667 674/674/674
f 587/587/587 683/683/683 608/608/608
f 587/587/587 668/668/668 683/683/683
f 736/736/736 700/700/700 632/632/632
f 128/128/128 180/180/180 191/191/191
f 241/241/241 153/153/153 111/111/111
f 178/178/178 210/210/210 189/189/189
f 110/110/110 155/155/155 156/156/156
f 623/623/623 201/201/201 633/633/633
f 62/62/62 96/96/96 101/101/101
f 162/162/162 208/208/208 71/71/71
f 107/107/107 168/168/168 147/147/147
f 654/654/654 675/675/675 714/714/714
f 52/52/52 130/130/130 219/219/219
f 96/96/96 62/62/62 166/166/166
f 715/715/715 666/666/666 655/655/655
f 161/161/161 635/635/635 206/206/206
f 718/718/718 671/671/671 665/665/665
f 124/124/124 132/132/132 142/142/142
f 212/212/212 72/72/72 174/174/174
f 179/179/179 125/125/125 181/181/181
f 201/201/201 623/623/623 678/678/678
f 649/649/649 695/695/695 656/656/656
f 185/185/185 149/149/149 183/183/183
f 718/718/718 684/684/684 671/671/671
f 148/148/148 169/169/169 182/182/182
f 656/656/656 695/695/695 676/676/676
f 212/212/212 174/174/174 244/244/244
f 677/677/677 696/696/696 693/693/693
f 686/686/686 690/690/690 703/703/703
f 82/82/82 126/126/126 259/259/259
f 122/122/122 272/272/272 221/221/221
f 205/205/205 209/209/209 160/160/160
f 325/325/325 277/277/277 127/127/127
f 190/190/190 325/325/325 127/127/127
f 195/195/195 71/71/71 208/208/208
f 625/625/625 700/700/700 680/680/680
f 221/221/221 131/131/131 122/122/122
f 167/167/167 63/63/63 217/217/217
f 277/277/277 261/261/261 127/127/127
f 203/203/203 192/192/192 207/207/207
f 650/650/650 233/233/233 697/697/697
f 173/173/173 71/71/71 195/195/195
f 287/287/287 211/211/211 243/243/243
f 343/343/343 239/239/239 114/114/114
f 211/211/211 287/287/287 188/188/188
f 685/685/685 707/707/707 637/637/637
f 707/707/707 685/685/685 691/691/691
f 638/638/638 708/708/708 731/731/731
f 360/360/360 153/153/153 241/241/241
f 716/716/716 677/677/677 737/737/737
f 215/215/215 121/121/121 138/138/138
f 324/324/324 188/188/188 287/287/287
f 184/184/184 270/270/270 187/187/187
f 217/217/217 63/63/63 82/82/82
f 169/169/169 218/218/218 182/182/182
f 360/360/360 215/215/215 153/153/153
f 686/686/686 766/766/766 692/692/692
f 312/312/312 231/231/231 220/220/220
f 694/694/694 698/698/698 234/234/234
f 243/243/243 226/226/226 287/287/287
f 235/235/235 54/54/54 223/223/223
f 276/276/276 322/322/322 238/238/238
f 298/298/298 240/240/240 344/344/344
f 699/699/699 735/735/735 722/722/722
f 82/82/82 259/259/259 217/217/217
f 218/218/218 253/253/253 182/182/182
f 681/681/681 710/710/710 687/687/687
f 202/202/202 679/679/679 699/699/699
f 215/215/215 360/360/360 121/121/121
f 699/699/699 722/722/722 202/202/202
f 229/229/229 282/282/282 289/289/289
f 117/117/117 348/348/348 346/346/346
f 638/638/638 731/731/731 736/736/736
f 172/172/172 227/227/227 245/245/245
f 722/722/722 702/702/702 202/202/202
f 249/249/249 197/197/197 724/724/724
f 176/176/176 199/199/199 250/250/250
f 743/743/743 732/732/732 705/705/705
f 251/251/251 217/217/217 259/259/259
f 225/225/225 170/170/170 254/254/254
f 707/707/707 691/691/691 753/753/753
f 262/262/262 278/278/278 265/265/265
f 684/684/684 718/718/718 712/712/712
f 704/704/704 688/688/688 713/713/713
f 701/701/701 709/709/709 200/200/200
f 755/755/755 692/692/692 766/766/766
f 300/300/300 303/303/303 241/241/241
f 268/268/268 394/394/394 186/186/186
f 753/753/753 750/750/750 707/707/707
f 260/260/260 267/267/267 252/252/252
f 741/741/741 171/171/171 194/194/194
f 253/253/253 269/269/269 182/182/182
f 737/737/737 677/677/677 693/693/693
f 204/204/204 711/711/711 193/193/193
f 273/273/273 284/284/284 222/222/222
f 175/175/175 248/248/248 257/257/257
f 271/271/271 121/121/121 360/360/360
f 264/264/264 274/274/274 308/308/308
f 360/360/360 241/241/241 303/303/303
f 738/738/738 193/193/193 711/711/711
f 717/717/717 738/738/738 711/711/711
f 279/279/279 224/224/224 350/350/350
f 694/694/694 234/234/234 740/740/740
f 220/220/220 283/283/283 285/285/285
f 719/719/719 721/721/721 733/733/733
f 722/722/722 720/720/720 702/702/702
f 288/288/288 297/297/297 321/321/321
f 198/198/198 785/785/785 726/726/726
f 196/196/196 742/742/742 782/782/782
f 299/299/299 345/345/345 302/302/302
f 286/286/286 280/280/280 292/292/292
f 246/246/246 431/431/431 306/306/306
f 313/313/313 728/728/728 232/232/232
f 309/309/309 275/275/275 237/237/237
f 248/248/248 305/305/305 257/257/257
f 720/720/720 730/730/730 745/745/745
f 785/785/785 774/774/774 726/726/726
f 273/273/273 488/488/488 284/284/284
f 730/730/730 720/720/720 734/734/734
f 353/353/353 228/228/228 256/256/256
f 729/729/729 314/314/314 748/748/748
f 285/285/285 312/312/312 220/220/220
f 320/320/320 293/293/293 332/332/332
f 302/302/302 345/345/345 319/319/319
f 339/339/339 269/269/269 253/253/253
f 485/485/485 271/271/271 360/360/360
f 720/720/720 765/765/765 702/702/702
f 775/775/775 783/783/783 739/739/739
f 281/281/281 351/351/351 294/294/294
f 263/263/263 307/307/307 379/379/379
f 686/686/686 703/703/703 766/766/766
f 309/309/309 237/237/237 391/391/391
f 728/728/728 739/739/739 232/232/232
f 323/323/323 390/390/390 386/386/386
f 745/745/745 765/765/765 720/720/720
f 247/247/247 723/723/723 432/432/432
f 393/393/393 238/238/238 322/322/322
f 252/252/252 267/267/267 327/327/327
f 322/322/322 385/385/385 393/393/393
f 334/334/334 390/390/390 323/323/323
f 285/285/285 283/283/283 449/449/449
f 338/338/338 394/394/394 268/268/268
f 345/345/345 340/340/340 319/319/319
f 377/377/377 327/327/327 267/267/267
f 749/749/749 744/744/744 706/706/706
f 342/342/342 347/347/347 349/349/349
f 333/333/333 295/295/295 398/398/398
f 758/758/758 765/765/765 745/745/745
f 339/339/339 253/253/253 329/329/329
f 305/305/305 410/410/410 257/257/257
f 488/488/488 453/453/453 284/284/284
f 352/352/352 255/255/255 296/296/296
f 744/744/744 749/749/749 756/756/756
f 330/330/330 396/396/396 354/354/354
f 317/317/317 404/404/404 362/362/362
f 331/331/331 365/365/365 387/387/387
f 258/258/258 369/369/369 290/290/290
f 312/312/312 285/285/285 372/372/372
f 378/378/378 375/375/375 328/328/328
f 407/407/407 376/376/376 266/266/266
f 748/748/748 314/314/314 356/356/356
f 727/727/727 746/746/746 776/776/776
f 725/725/725 773/773/773 433/433/433
f 751/751/751 754/754/754 757/757/757
f 373/373/373 356/356/356 314/314/314
f 311/311/311 399/399/399 380/380/380
f 384/384/384 388/388/388 392/392/392
f 739/739/739 728/728/728 775/775/775
f 258/258/258 411/411/411 369/369/369
f 381/381/381 407/407/407 266/266/266
f 433/433/433 773/773/773 764/764/764
f 397/397/397 291/291/291 370/370/370
f 310/310/310 417/417/417 400/400/400
f 335/335/335 495/495/495 368/368/368
f 752/752/752 767/767/767 759/759/759
f 397/397/397 370/370/370 357/357/357
f 336/336/336 359/359/359 496/496/496
f 363/363/363 405/405/405 490/490/490
f 378/378/378 408/408/408 375/375/375
f 403/403/403 318/318/318 444/444/444
f 783/783/783 768/768/768 770/770/770
f 747/747/747 355/355/355 413/413/413
f 417/417/417 310/310/310 436/436/436
f 319/319/319 340/340/340 440/440/440
f 381/381/381 511/511/511 407/407/407
f 337/337/337 326/326/326 383/383/383
f 358/358/358 412/412/412 414/414/414
f 450/450/450 416/416/416 285/285/285
f 511/511/511 381/381/381 419/419/419
f 747/747/747 413/413/413 778/778/778
f 405/405/405 422/422/422 490/490/490
f 315/315/315 464/464/464 301/301/301
f 316/316/316 361/361/361 445/445/445
f 428/428/428 409/409/409 304/304/304
f 781/781/781 762/762/762 772/772/772
f 373/373/373 493/493/493 356/356/356
f 775/775/775 480/480/480 783/783/783
f 360/360/360 303/303/303 497/497/497
f 479/479/479 374/374/374 406/406/406
f 424/424/424 430/430/430 763/763/763
f 375/375/375 506/506/506 328/328/328
f 285/285/285 416/416/416 372/372/372
f 412/412/412 358/358/358 371/371/371
f 412/412/412 459/459/459 414/414/414
f 309/309/309 391/391/391 455/455/455
f 455/455/455 435/435/435 309/309/309
f 392/392/392 388/388/388 454/454/454
f 402/402/402 443/443/443 423/423/423
f 446/446/446 364/364/364 499/499/499
f 484/484/484 777/777/777 415/415/415
f 417/417/417 447/447/447 400/400/400
f 441/441/441 487/487/487 421/421/421
f 451/451/451 472/472/472 416/416/416
f 366/366/366 437/437/437 456/456/456
f 416/416/416 472/472/472 372/372/372
f 797/797/797 780/780/780 771/771/771
f 780/780/780 761/761/761 784/784/784
f 448/448/448 382/382/382 401/401/401
f 420/420/420 382/382/382 448/448/448
f 780/780/780 784/784/784 771/771/771
f 409/409/409 428/428/428 457/457/457
f 461/461/461 501/501/501 438/438/438
f 501/501/501 418/418/418 438/438/438
f 458/458/458 429/429/429 425/425/425
f 768/768/768 783/783/783 480/480/480
f 366/366/366 456/456/456 389/389/389
f 797/797/797 771/771/771 791/791/791
f 442/442/442 341/341/341 395/395/395
f 466/466/466 316/316/316 445/445/445
f 474/474/474 493/493/493 373/373/373
f 470/470/470 475/475/475 463/463/463
f 407/407/407 511/511/511 476/476/476
f 459/459/459 483/483/483 414/414/414
f 789/789/789 786/786/786 794/794/794
f 473/473/473 452/452/452 486/486/486
f 469/469/469 439/439/439 367/367/367
f 497/497/497 303/303/303 465/465/465
f 474/474/474 468/468/468 493/493/493
f 469/469/469 367/367/367 494/494/494
f 779/779/779 793/793/793 760/760/760
f 503/503/503 487/487/487 441/441/441
f 787/787/787 790/790/790 770/770/770
f 460/460/460 434/434/434 467/467/467
f 477/477/477 492/492/492 375/375/375
f 760/760/760 793/793/793 427/427/427
f 473/473/473 486/486/486 518/518/518
f 511/511/511 419/419/419 502/502/502
f 425/425/425 481/481/481 458/458/458
f 524/524/524 503/503/503 441/441/441
f 445/445/445 498/498/498 466/466/466
f 482/482/482 792/792/792 769/769/769
f 770/770/770 768/768/768 787/787/787
f 462/462/462 471/471/471 500/500/500
f 793/793/793 779/779/779 796/796/796
f 478/478/478 512/512/512 1/1/1
f 491/491/491 513/513/513 515/515/515
f 792/792/792 482/482/482 426/426/426
f 788/788/788 792/792/792 795/795/795
f 504/504/504 505/505/505 489/489/489
f 502/502/502 509/509/509 511/511/511
f 518/518/518 502/502/502 473/473/473
f 788/788/788 769/769/769 792/792/792
f 509/509/509 502/502/502 518/518/518
f 508/508/508 526/526/526 510/510/510
f 517/517/517 528/528/528 507/507/507
f 514/514/514 523/523/523 519/519/519
f 516/516/516 520/520/520 527/527/527
f 4/4/4 510/510/510 526/526/526
f 522/522/522 532/532/532 529/529/529
f 530/530/530 2/2/2 525/525/525
f 521/521/521 3/3/3 531/531/531
f 828/828/828 829/829/829 830/830/830
f 828/828/828 830/830/830 829/829/829
f 828/828/828 830/830/830 831/831/831
f 828/828/828 831/831/831 830/830/830
f 828/828/828 831/831/831 832/832/832
f 828/828/828 832/832/832 831/831/831
f 828/828/828 832/832/832 833/833/833
f 828/828/828 833/833/833 832/832/832
f 828/828/828 833/833/833 834/834/834
f 828/828/828 834/834/834 833/833/833
f 828/828/828 834/834/834 835/835/835
f 828/828/828 835/835/835 834/834/834
f 828/828/828 835/835/835 836/836/836
f 828/828/828 836/836/836 835/835/835
f 828/828/828 836/836/836 837/837/837
f 828/828/828 837/837/837 836/836/836
f 828/828/828 837/837/837 838/838/838
f 828/828/828 838/838/838 837/837/837
f 828/828/828 838/838/838 839/839/839
f 828/828/828 839/839/839 838/838/838
f 828/828/828 839/839/839 840/840/840
f 828/828/828 840/840/840 839/839/839
f 828/828/828 840/840/840 841/841/841
f 828/828/828 841/841/841 840/840/840
f 828/828/828 841/841/841 842/842/842
f 828/828/828 842/842/842 841/841/841
f 828/828/828 842/842/842 843/843/843
f 828/828/828 843/843/843 842/842/842
f 828/828/828 843/843/843 844/844/844
f 828/828/828 844/844/844 843/843/843
f 828/828/828 844/844/844 845/845/845
f 828/828/828 845/845/845 844/844/844
f 828/828/828 845/845/845 846/846/846
f 828/828/828 846/846/846 845/845/845
f 828/828/828 846/846/846 847/847/847
f 828/828/828 847/847/847 846/846/846
f 828/828/828 847/847/847 848/848/848
f 828/828/828 848/848/848 847/847/847
f 828/828/828 848/848/848 849/849/849
f 828/828/828 849/849/849 848/848/848
f 828/828/828 849/849/849 850/850/850
f 828/828/828 850/850/850 849/849/849
f 828/828/828 850/850/850 851/851/851
f 828/828/828 851/851/851 850/850/850
f 828/828/828 851/851/851 852/852/852
f 828/828/828 852/852/852 851/851/851
f 828/828/828 852/852/852 853/853/853
f 828/828/828 853/853/853 852/852/852
f 828/828/828 853/853/853 854/854/854
f 828/828/828 854/854/854 853/853/853
f 828/828/828 854/854/854 855/855/855
f 828/828/828 855/855/855 854/854/854
f 828/828/828 855/855/855 856/856/856
f 828/828/828 856/856/856 855/855/855
f 828/828/828 856/856/856 857/857/857
f 828/828/828 857/857/857 856/856/856
f 828/828/828 857/857/857 858/858/858
f 828/828/828 858/858/858 857/857/857
f 828/828/828 858/858/858 859/859/859
f 828/828/828 859/859/859 858/858/858
f 828/828/828 859/859/859 860/860/860
f 828/828/828 860/860/860 859/859/859
f 828/828/828 860/860/860 829/829/829
f 828/828/828 829/829/829 860/860/860
