o forearm_left
v -0.77155 2.34952 -0.11072
v -0.79301 2.21826 -0.12541
v -0.79799 2.19969 0.04728
v -0.75857 2.33030 0.14611
v -0.83882 2.13005 0.02234
v -0.87237 2.16139 -0.13283
v -0.91281 2.14975 -0.22174
v -0.91281 2.14975 -0.22174
v -0.91281 2.14975 -0.22174
v -0.91281 2.14975 -0.22174
v -0.91281 2.14975 -0.22174
v -0.85797 2.30707 0.22733
v -0.88952 2.20530 0.18145
v -0.88945 2.19859 0.12187
v -0.88945 2.19859 0.12187
v -0.81628 2.36456 -0.18779
v -0.81294 2.35643 0.16565
v -0.82383 2.18653 0.10211
v -0.82383 2.18653 0.10211
v -0.82383 2.18653 0.10211
v -0.91311 2.21226 0.22164
v -0.91311 2.21226 0.22164
v -0.93930 2.18052 -0.25689
v -0.93930 2.18052 -0.25689
v -0.94637 2.12164 -0.13034
v -0.94637 2.12164 -0.13034
v -0.94637 2.12164 -0.13034
v -0.90571 2.10534 -0.08916
v -0.90571 2.10534 -0.08916
v -0.90571 2.10534 -0.08916
v -0.90571 2.10534 -0.08916
v -0.90571 2.10534 -0.08916
v -0.90571 2.10534 -0.08916
v -0.94646 2.14652 0.17456
v -0.94646 2.14652 0.17456
v -0.94646 2.14652 0.17456
v -0.88496 2.13458 0.08985
v -0.88496 2.13458 0.08985
v -0.88496 2.13458 0.08985
v -0.93398 2.15311 0.08988
v -0.93398 2.15311 0.08988
v -0.93398 2.15311 0.08988
v -0.93398 2.15311 0.08988
v -0.93398 2.15311 0.08988
v -0.93253 2.08990 0.03996
v -0.93253 2.08990 0.03996
v -0.93253 2.08990 0.03996
v -0.93253 2.08990 0.03996
v -0.93253 2.08990 0.03996
v -0.93447 2.36881 0.20615
v -0.93447 2.36881 0.20615
v -0.93447 2.36881 0.20615
v -0.93380 2.10365 -0.00636
v -0.93380 2.10365 -0.00636
v -0.93380 2.10365 -0.00636
v -0.93380 2.10365 -0.00636
v -0.93380 2.10365 -0.00636
v -0.95806 2.05246 -0.18012
v -0.95806 2.05246 -0.18012
v -0.95806 2.05246 -0.18012
v -0.95806 2.05246 -0.18012
v -0.98653 2.04782 -0.00992
v -0.98653 2.04782 -0.00992
v -0.98653 2.04782 -0.00992
v -0.98653 2.04782 -0.00992
v -0.94381 2.12809 -0.17739
v -0.94381 2.12809 -0.17739
v -0.94381 2.12809 -0.17739
v -0.94381 2.12809 -0.17739
v -0.94381 2.12809 -0.17739
v -0.94381 2.12809 -0.17739
v -0.94381 2.12809 -0.17739
v -0.94381 2.12809 -0.17739
v -0.98273 2.07483 -0.19267
v -0.98273 2.07483 -0.19267
v -1.01182 2.02191 -0.26230
v -1.01182 2.02191 -0.26230
v -1.01182 2.02191 -0.26230
v -1.01182 2.02191 -0.26230
v -0.99609 2.20910 -0.26833
v -0.98782 2.10723 0.08513
v -0.98782 2.10723 0.08513
v -0.98782 2.10723 0.08513
v -0.98782 2.10723 0.08513
v -0.98782 2.10723 0.08513
v -0.98782 2.10723 0.08513
v -1.00596 1.91796 -0.12619
v -1.00596 1.91796 -0.12619
v -1.00596 1.91796 -0.12619
v -1.00596 1.91796 -0.12619
v -1.00926 2.25849 0.22540
v -1.01574 2.05451 -0.00031
v -1.01574 2.05451 -0.00031
v -1.01574 2.05451 -0.00031
v -0.90043 2.34957 0.21754
v -0.90043 2.34957 0.21754
v -0.90043 2.34957 0.21754
v -0.97049 2.20205 0.11484
v -0.97049 2.20205 0.11484
v -0.97049 2.20205 0.11484
v -0.97049 2.20205 0.11484
v -0.97049 2.20205 0.11484
v -1.01276 2.20077 0.13659
v -1.01276 2.20077 0.13659
v -1.01276 2.20077 0.13659
v -1.01276 2.20077 0.13659
v -0.94978 2.14458 -0.23161
v -0.94978 2.14458 -0.23161
v -0.94978 2.14458 -0.23161
v -1.05364 2.19440 -0.24531
v -1.05364 2.19440 -0.24531
v -1.05364 2.19440 -0.24531
v -1.05364 2.19440 -0.24531
v -1.05364 2.19440 -0.24531
v -1.05107 2.22381 -0.22154
v -1.05107 2.22381 -0.22154
v -1.05107 2.22381 -0.22154
v -1.03945 2.18258 0.11177
v -1.03945 2.18258 0.11177
v -1.03945 2.18258 0.11177
v -1.03945 2.18258 0.11177
v -1.03945 2.18258 0.11177
v -1.03945 2.18258 0.11177
v -1.03945 2.18258 0.11177
v -1.03945 2.18258 0.11177
v -0.97515 2.28506 0.16110
v -0.97515 2.28506 0.16110
v -0.97515 2.28506 0.16110
v -0.97462 2.10565 0.12919
v -0.97462 2.10565 0.12919
v -0.97462 2.10565 0.12919
v -0.97462 2.10565 0.12919
v -1.00589 2.12923 0.09535
v -1.00589 2.12923 0.09535
v -1.00589 2.12923 0.09535
v -1.00589 2.12923 0.09535
v -1.00589 2.12923 0.09535
v -1.00589 2.12923 0.09535
v -1.00589 2.12923 0.09535
v -1.02882 2.01553 -0.22282
v -1.02882 2.01553 -0.22282
v -1.02882 2.01553 -0.22282
v -1.02882 2.01553 -0.22282
v -1.04538 2.19552 -0.27672
v -1.04538 2.19552 -0.27672
v -1.04538 2.19552 -0.27672
v -1.00640 2.18056 -0.28220
v -1.00640 2.18056 -0.28220
v -1.00640 2.18056 -0.28220
v -1.06205 2.06114 -0.30584
v -1.06205 2.06114 -0.30584
v -1.06205 2.06114 -0.30584
v -1.02861 2.12919 0.13222
v -1.02861 2.12919 0.13222
v -1.02861 2.12919 0.13222
v -1.02861 2.12919 0.13222
v -1.03635 2.18953 0.18153
v -1.03635 2.18953 0.18153
v -1.03635 2.18953 0.18153
v -1.03635 2.18953 0.18153
v -1.04538 2.04511 -0.27206
v -1.04538 2.04511 -0.27206
v -1.09782 2.06601 -0.28904
v -1.09782 2.06601 -0.28904
v -1.09782 2.06601 -0.28904
v -1.09782 2.06601 -0.28904
v -1.08422 2.20938 -0.23038
v -1.08422 2.20938 -0.23038
v -1.08422 2.20938 -0.23038
v -1.06080 2.26577 -0.14965
v -1.06080 2.26577 -0.14965
v -1.06080 2.26577 -0.14965
v -1.03190 2.28203 0.17009
v -1.00543 2.14774 0.09067
v -1.00543 2.14774 0.09067
v -1.00543 2.14774 0.09067
v -1.00543 2.14774 0.09067
v -1.11780 2.25720 -0.10447
v -1.12205 2.02165 -0.29957
v -1.12205 2.02165 -0.29957
v -1.12205 2.02165 -0.29957
v -1.12205 2.02165 -0.29957
v -1.12205 2.02165 -0.29957
v -1.12205 2.02165 -0.29957
v -1.12205 2.02165 -0.29957
v -1.12205 2.02165 -0.29957
v -1.09075 2.23464 0.13872
v -1.09075 2.23464 0.13872
v -1.09447 2.24457 0.11462
v -1.18247 2.09298 0.03945
v -1.18247 2.09298 0.03945
v -1.18247 2.09298 0.03945
v -1.18247 2.09298 0.03945
v -1.15198 2.01436 -0.23754
v -1.15198 2.01436 -0.23754
v -1.15198 2.01436 -0.23754
v -1.15198 2.01436 -0.23754
v -1.15198 2.01436 -0.23754
v -1.15198 2.01436 -0.23754
v -1.12422 2.18371 0.08191
v -1.19926 2.02912 -0.23973
v -1.19926 2.02912 -0.23973
v -1.19926 2.02912 -0.23973
v -1.19926 2.02912 -0.23973
v -1.19926 2.02912 -0.23973
v -1.19926 2.02912 -0.23973
v -1.19926 2.02912 -0.23973
v -1.17190 2.14805 -0.15926
v -1.17190 2.14805 -0.15926
v -1.21681 2.05487 -0.04914
v -1.21681 2.05487 -0.04914
v -1.21681 2.05487 -0.04914
v -1.21681 2.05487 -0.04914
v -1.20254 2.14241 -0.08821
v -1.20254 2.14241 -0.08821
v -1.20254 2.14241 -0.08821
v -1.26329 1.97535 -0.07699
v -1.26329 1.97535 -0.07699
v -1.26329 1.97535 -0.07699
v -0.89881 1.76513 -0.35898
v -0.89881 1.76513 -0.35898
v -0.90097 1.62045 -0.38082
v -0.90097 1.62045 -0.38082
v -0.90097 1.62045 -0.38082
v -0.93270 1.61560 -0.40106
v -0.93270 1.61560 -0.40106
v -0.93270 1.61560 -0.40106
v -0.97307 1.78703 -0.40473
v -0.97307 1.78703 -0.40473
v -0.97307 1.78703 -0.40473
v -0.97307 1.78703 -0.40473
v -0.92539 1.86965 -0.32416
v -0.92539 1.86965 -0.32416
v -0.92539 1.86965 -0.32416
v -0.94690 1.70132 -0.41054
v -0.94690 1.70132 -0.41054
v -0.96225 1.60493 -0.35288
v -0.96225 1.60493 -0.35288
v -0.96225 1.60493 -0.35288
v -0.98998 1.78381 -0.27173
v -0.98998 1.78381 -0.27173
v -0.98998 1.78381 -0.27173
v -0.98998 1.78381 -0.27173
v -0.92086 1.73259 -0.27292
v -0.92086 1.73259 -0.27292
v -0.92086 1.73259 -0.27292
v -0.97767 1.78503 -0.23743
v -0.97767 1.78503 -0.23743
v -0.97767 1.78503 -0.23743
v -0.92022 1.60640 -0.33361
v -0.92022 1.60640 -0.33361
v -0.92022 1.60640 -0.33361
v -0.97973 1.68198 -0.33560
v -0.97973 1.68198 -0.33560
v -0.96126 1.83660 -0.27132
v -0.96126 1.83660 -0.27132
v -0.99121 1.94124 -0.19027
v -0.99121 1.94124 -0.19027
v -0.99121 1.94124 -0.19027
v -1.01752 1.85501 -0.24227
v -1.01752 1.85501 -0.24227
v -1.01752 1.85501 -0.24227
v -1.01752 1.85501 -0.24227
v -1.01752 1.85501 -0.24227
v -0.99004 1.89928 -0.26960
v -0.99004 1.89928 -0.26960
v -0.99004 1.89928 -0.26960
v -0.99004 1.89928 -0.26960
v -0.99004 1.89928 -0.26960
v -0.99004 1.89928 -0.26960
v -0.99004 1.89928 -0.26960
v -1.01047 1.74970 -0.30898
v -1.01047 1.74970 -0.30898
v -1.01047 1.74970 -0.30898
v -1.01047 1.74970 -0.30898
v -1.01202 1.76662 -0.38209
v -1.01202 1.76662 -0.38209
v -0.98177 1.87611 -0.22956
v -0.98177 1.87611 -0.22956
v -0.98177 1.87611 -0.22956
v -0.98177 1.87611 -0.22956
v -0.97767 1.99028 -0.21604
v -0.97767 1.99028 -0.21604
v -0.97767 1.99028 -0.21604
v -0.97767 1.99028 -0.21604
v -0.97767 1.99028 -0.21604
v -0.97767 1.99028 -0.21604
v -0.97424 1.95100 -0.25535
v -0.97424 1.95100 -0.25535
v -0.97424 1.95100 -0.25535
v -1.02677 1.81751 -0.37600
v -1.00229 1.87677 -0.37433
v -1.00229 1.87677 -0.37433
v -1.00229 1.87677 -0.37433
v -1.02850 1.95325 -0.18843
v -1.02850 1.95325 -0.18843
v -1.02850 1.95325 -0.18843
v -1.02850 1.95325 -0.18843
v -0.99697 1.45625 -0.37711
v -0.99697 1.45625 -0.37711
v -0.99697 1.45625 -0.37711
v -1.03102 1.57115 -0.45452
v -1.03102 1.57115 -0.45452
v -1.03102 1.57115 -0.45452
v -1.00549 1.46168 -0.43080
v -1.00549 1.46168 -0.43080
v -1.00549 1.46168 -0.43080
v -1.04133 1.74787 -0.33975
v -1.04133 1.74787 -0.33975
v -1.04133 1.74787 -0.33975
v -1.04133 1.74787 -0.33975
v -1.10366 1.52938 -0.36361
v -1.10366 1.52938 -0.36361
v -1.02891 1.44382 -0.42679
v -1.02891 1.44382 -0.42679
v -1.02891 1.44382 -0.42679
v -1.01049 1.77548 -0.24627
v -1.01049 1.77548 -0.24627
v -1.01049 1.77548 -0.24627
v -1.05778 1.89281 -0.34371
v -1.05778 1.89281 -0.34371
v -1.05778 1.89281 -0.34371
v -1.05699 1.68175 -0.33776
v -1.05699 1.68175 -0.33776
v -1.05699 1.68175 -0.33776
v -1.05699 1.68175 -0.33776
v -1.02883 1.89161 -0.27578
v -1.02883 1.89161 -0.27578
v -1.02883 1.89161 -0.27578
v -1.02883 1.89161 -0.27578
v -1.02265 2.00410 -0.18634
v -1.02265 2.00410 -0.18634
v -1.02265 2.00410 -0.18634
v -1.07743 1.91071 -0.06974
v -1.07743 1.91071 -0.06974
v -1.07743 1.91071 -0.06974
v -1.07743 1.91071 -0.06974
v -1.07743 1.91071 -0.06974
v -1.07743 1.91071 -0.06974
v -1.07743 1.91071 -0.06974
v -1.07743 1.91071 -0.06974
v -1.02995 1.98037 -0.28500
v -1.02995 1.98037 -0.28500
v -1.02995 1.98037 -0.28500
v -1.06790 1.81047 -0.34912
v -1.06790 1.81047 -0.34912
v -1.06790 1.81047 -0.34912
v -1.06790 1.81047 -0.34912
v -1.06790 1.81047 -0.34912
v -1.06790 1.81047 -0.34912
v -1.06620 1.76437 -0.28601
v -1.06620 1.76437 -0.28601
v -1.06620 1.76437 -0.28601
v -1.06620 1.76437 -0.28601
v -1.06620 1.76437 -0.28601
v -1.06620 1.76437 -0.28601
v -1.06620 1.76437 -0.28601
v -1.06620 1.76437 -0.28601
v -1.03399 1.81425 -0.13743
v -1.03399 1.81425 -0.13743
v -1.03399 1.81425 -0.13743
v -1.21074 1.78748 -0.09221
v -1.21074 1.78748 -0.09221
v -1.21074 1.78748 -0.09221
v -1.21074 1.78748 -0.09221
v -1.21074 1.78748 -0.09221
v -1.21074 1.78748 -0.09221
v -1.03233 1.81717 -0.21921
v -1.03233 1.81717 -0.21921
v -1.03233 1.81717 -0.21921
v -1.03233 1.81717 -0.21921
v -1.13882 1.58037 -0.35492
v -1.13882 1.58037 -0.35492
v -1.02552 1.57320 -0.35665
v -1.02552 1.57320 -0.35665
v -1.06491 1.67678 -0.46989
v -1.06491 1.67678 -0.46989
v -1.06491 1.67678 -0.46989
v -1.08026 1.91956 -0.10718
v -1.06176 1.78236 -0.26521
v -1.06176 1.78236 -0.26521
v -1.06176 1.78236 -0.26521
v -1.10760 1.73916 -0.26434
v -1.08635 1.90543 -0.02623
v -1.08635 1.90543 -0.02623
v -1.08635 1.90543 -0.02623
v -1.06260 1.71772 -0.29145
v -1.06260 1.71772 -0.29145
v -1.06260 1.71772 -0.29145
v -1.11103 1.74280 -0.47217
v -1.11103 1.74280 -0.47217
v -1.11555 1.78697 -0.40916
v -1.11555 1.78697 -0.40916
v -1.11555 1.78697 -0.40916
v -1.11555 1.78697 -0.40916
v -1.11555 1.78697 -0.40916
v -1.02296 1.96215 -0.23701
v -1.02296 1.96215 -0.23701
v -1.02296 1.96215 -0.23701
v -1.02296 1.96215 -0.23701
v -1.02296 1.96215 -0.23701
v -1.02296 1.96215 -0.23701
v -1.03178 2.03364 0.03293
v -1.03178 2.03364 0.03293
v -1.03178 2.03364 0.03293
v -1.03178 2.03364 0.03293
v -1.08103 1.92754 -0.30809
v -1.08103 1.92754 -0.30809
v -1.08103 1.92754 -0.30809
v -1.09260 1.86238 -0.33526
v -1.09260 1.86238 -0.33526
v -1.09260 1.86238 -0.33526
v -1.09260 1.86238 -0.33526
v -1.09260 1.86238 -0.33526
v -1.09260 1.86238 -0.33526
v -1.09260 1.86238 -0.33526
v -1.14102 1.77751 -0.22882
v -1.14102 1.77751 -0.22882
v -1.14102 1.77751 -0.22882
v -1.08799 1.85301 -0.28312
v -1.08799 1.85301 -0.28312
v -1.08799 1.85301 -0.28312
v -1.08799 1.85301 -0.28312
v -1.08799 1.85301 -0.28312
v -1.08799 1.85301 -0.28312
v -1.08799 1.85301 -0.28312
v -1.02240 1.43863 -0.37542
v -1.02240 1.43863 -0.37542
v -1.02240 1.43863 -0.37542
v -1.09262 1.65838 -0.49091
v -1.09262 1.65838 -0.49091
v -1.09262 1.65838 -0.49091
v -1.09262 1.65838 -0.49091
v -1.09262 1.65838 -0.49091
v -1.13155 1.90969 -0.36842
v -1.13155 1.90969 -0.36842
v -1.13155 1.90969 -0.36842
v -1.10283 1.52361 -0.45041
v -1.10283 1.52361 -0.45041
v -1.07818 1.71477 -0.33962
v -1.07818 1.71477 -0.33962
v -1.07818 1.71477 -0.33962
v -1.07818 1.71477 -0.33962
v -1.07818 1.71477 -0.33962
v -1.07818 1.71477 -0.33962
v -1.07818 1.71477 -0.33962
v -1.07818 1.71477 -0.33962
v -1.11923 1.86853 -0.37049
v -1.11923 1.86853 -0.37049
v -1.11923 1.86853 -0.37049
v -1.09452 1.88289 -0.35362
v -1.09452 1.88289 -0.35362
v -1.09452 1.88289 -0.35362
v -1.15838 1.91997 -0.06177
v -1.15838 1.91997 -0.06177
v -1.15838 1.91997 -0.06177
v -1.15838 1.91997 -0.06177
v -1.18214 1.83511 -0.08954
v -1.18214 1.83511 -0.08954
v -1.18214 1.83511 -0.08954
v -1.14097 1.58841 -0.46799
v -1.14097 1.58841 -0.46799
v -1.14097 1.58841 -0.46799
v -1.16361 1.75937 -0.39912
v -1.16361 1.75937 -0.39912
v -1.16361 1.75937 -0.39912
v -1.16361 1.75937 -0.39912
v -1.16233 1.65731 -0.33346
v -1.16233 1.65731 -0.33346
v -1.16233 1.65731 -0.33346
v -1.16552 1.84919 -0.35884
v -1.16552 1.84919 -0.35884
v -1.16552 1.84919 -0.35884
v -1.13212 1.40622 -0.28287
v -1.13212 1.40622 -0.28287
v -1.13212 1.40622 -0.28287
v -1.15083 1.72171 -0.19080
v -1.15083 1.72171 -0.19080
v -1.15083 1.72171 -0.19080
v -1.15083 1.72171 -0.19080
v -1.13783 1.73734 -0.23703
v -1.13783 1.73734 -0.23703
v -1.13783 1.73734 -0.23703
v -1.11924 1.78926 -0.44221
v -1.11924 1.78926 -0.44221
v -1.11924 1.78926 -0.44221
v -1.16902 1.50556 -0.38216
v -1.16902 1.50556 -0.38216
v -1.16196 1.56706 -0.30691
v -1.16196 1.56706 -0.30691
v -1.24037 1.47669 -0.27557
v -1.24037 1.47669 -0.27557
v -1.18614 1.95406 -0.05918
v -1.18614 1.95406 -0.05918
v -1.18614 1.95406 -0.05918
v -1.16045 1.83899 -0.31843
v -1.16045 1.83899 -0.31843
v -1.16045 1.83899 -0.31843
v -1.16045 1.83899 -0.31843
v -1.16045 1.83899 -0.31843
v -1.16045 1.83899 -0.31843
v -1.16045 1.83899 -0.31843
v -1.18837 1.68280 -0.26014
v -1.18837 1.68280 -0.26014
v -1.18837 1.68280 -0.26014
v -1.18837 1.68280 -0.26014
v -1.18837 1.68280 -0.26014
v -1.18837 1.68280 -0.26014
v -1.18837 1.68280 -0.26014
v -1.15617 1.67940 -0.22007
v -1.15617 1.67940 -0.22007
v -1.15617 1.67940 -0.22007
v -1.20319 1.80507 -0.15280
v -1.20319 1.80507 -0.15280
v -1.20319 1.80507 -0.15280
v -1.20319 1.80507 -0.15280
v -1.20319 1.80507 -0.15280
v -1.20319 1.80507 -0.15280
v -1.20319 1.80507 -0.15280
v -1.15970 1.68962 -0.29448
v -1.15970 1.68962 -0.29448
v -1.15970 1.68962 -0.29448
v -1.15970 1.68962 -0.29448
v -1.15970 1.68962 -0.29448
v -1.15970 1.68962 -0.29448
v -1.16121 1.60843 -0.25640
v -1.16121 1.60843 -0.25640
v -1.18150 1.70047 -0.45349
v -1.18150 1.70047 -0.45349
v -1.18403 1.70377 -0.30148
v -1.18403 1.70377 -0.30148
v -1.18403 1.70377 -0.30148
v -1.18403 1.70377 -0.30148
v -1.18403 1.70377 -0.30148
v -1.19513 1.62847 -0.26747
v -1.19513 1.62847 -0.26747
v -1.19513 1.62847 -0.26747
v -1.24546 1.47336 -0.34957
v -1.24546 1.47336 -0.34957
v -1.12864 1.38780 -0.31998
v -1.12864 1.38780 -0.31998
v -1.12864 1.38780 -0.31998
v -1.13869 1.93106 -0.02955
v -1.13869 1.93106 -0.02955
v -1.13869 1.93106 -0.02955
v -1.13869 1.93106 -0.02955
v -1.13869 1.93106 -0.02955
v -1.13869 1.93106 -0.02955
v -1.13869 1.93106 -0.02955
v -1.16643 1.36028 -0.31270
v -1.16643 1.36028 -0.31270
v -1.16643 1.36028 -0.31270
v -1.16643 1.36028 -0.31270
v -1.21874 1.68220 -0.12930
v -1.21874 1.68220 -0.12930
v -1.21874 1.68220 -0.12930
v -1.20917 1.89937 -0.29031
v -1.20917 1.89937 -0.29031
v -1.20917 1.89937 -0.29031
v -1.16955 2.09532 0.01123
v -1.16955 2.09532 0.01123
v -1.16955 2.09532 0.01123
v -1.16955 2.09532 0.01123
v -1.16955 2.09532 0.01123
v -1.16955 2.09532 0.01123
v -1.19620 1.74244 -0.42485
v -1.19620 1.74244 -0.42485
v -1.19620 1.74244 -0.42485
v -1.17227 1.72817 -0.20924
v -1.17227 1.72817 -0.20924
v -1.17227 1.72817 -0.20924
v -1.17227 1.72817 -0.20924
v -1.17227 1.72817 -0.20924
v -1.19584 1.83969 -0.32939
v -1.19584 1.83969 -0.32939
v -1.19584 1.83969 -0.32939
v -1.16483 1.50351 -0.27406
v -1.16483 1.50351 -0.27406
v -1.21157 1.41522 -0.23927
v -1.21157 1.41522 -0.23927
v -1.21157 1.41522 -0.23927
v -1.19105 1.85224 -0.13697
v -1.19105 1.85224 -0.13697
v -1.19105 1.85224 -0.13697
v -1.18764 1.99461 -0.24165
v -1.18764 1.99461 -0.24165
v -1.18764 1.99461 -0.24165
v -1.18764 1.99461 -0.24165
v -1.16541 1.43883 -0.22983
v -1.16541 1.43883 -0.22983
v -1.16541 1.43883 -0.22983
v -1.23186 1.91585 -0.30603
v -1.23186 1.91585 -0.30603
v -1.23186 1.91585 -0.30603
v -1.18350 1.43813 -0.19054
v -1.18350 1.43813 -0.19054
v -1.18350 1.43813 -0.19054
v -1.22132 1.95278 -0.03034
v -1.22132 1.95278 -0.03034
v -1.22132 1.95278 -0.03034
v -1.22132 1.95278 -0.03034
v -1.22449 1.85137 -0.07812
v -1.22449 1.85137 -0.07812
v -1.22449 1.85137 -0.07812
v -1.27312 1.48524 -0.19189
v -1.27312 1.48524 -0.19189
v -1.21051 1.51926 -0.17832
v -1.21051 1.51926 -0.17832
v -1.19890 1.73513 -0.34164
v -1.19890 1.73513 -0.34164
v -1.19890 1.73513 -0.34164
v -1.19890 1.73513 -0.34164
v -1.19890 1.73513 -0.34164
v -1.19890 1.73513 -0.34164
v -1.19890 1.73513 -0.34164
v -1.19890 1.73513 -0.34164
v -1.24022 1.75984 -0.35330
v -1.24022 1.75984 -0.35330
v -1.24022 1.75984 -0.35330
v -1.24022 1.75984 -0.35330
v -1.24022 1.75984 -0.35330
v -1.24022 1.75984 -0.35330
v -1.21773 1.69631 -0.40510
v -1.21773 1.69631 -0.40510
v -1.21773 1.69631 -0.40510
v -1.21773 1.69631 -0.40510
v -1.20434 1.93738 -0.00812
v -1.20434 1.93738 -0.00812
v -1.20434 1.93738 -0.00812
v -1.20434 1.93738 -0.00812
v -1.20434 1.93738 -0.00812
v -1.20434 1.93738 -0.00812
v -1.20434 1.93738 -0.00812
v -1.20434 1.93738 -0.00812
v -1.21182 1.95895 -0.07697
v -1.21182 1.95895 -0.07697
v -1.21182 1.95895 -0.07697
v -1.21182 1.95895 -0.07697
v -1.24472 1.82059 -0.24827
v -1.24472 1.82059 -0.24827
v -1.24472 1.82059 -0.24827
v -1.24472 1.82059 -0.24827
v -1.24472 1.82059 -0.24827
v -1.24472 1.82059 -0.24827
v -1.24472 1.82059 -0.24827
v -1.17743 1.54295 -0.21651
v -1.17743 1.54295 -0.21651
v -1.18708 1.58742 -0.40771
v -1.18708 1.58742 -0.40771
v -1.18708 1.58742 -0.40771
v -1.18708 1.58742 -0.40771
v -1.24964 1.68549 -0.40018
v -1.24964 1.68549 -0.40018
v -1.24964 1.68549 -0.40018
v -1.25714 1.49359 -0.24621
v -1.25714 1.49359 -0.24621
v -1.27472 1.87766 -0.12434
v -1.27472 1.87766 -0.12434
v -1.27472 1.87766 -0.12434
v -1.22294 1.59073 -0.14376
v -1.22294 1.59073 -0.14376
v -1.30830 1.54808 -0.18779
v -1.30830 1.54808 -0.18779
v -1.28377 1.90764 -0.23088
v -1.28377 1.90764 -0.23088
v -1.28377 1.90764 -0.23088
v -1.25506 1.79870 -0.27801
v -1.25506 1.79870 -0.27801
v -1.25506 1.79870 -0.27801
v -1.25506 1.79870 -0.27801
v -1.25506 1.79870 -0.27801
v -1.21634 1.83100 -0.19317
v -1.21634 1.83100 -0.19317
v -1.21634 1.83100 -0.19317
v -1.26742 1.85224 -0.18502
v -1.26742 1.85224 -0.18502
v -1.26742 1.85224 -0.18502
v -1.26742 1.85224 -0.18502
v -1.26742 1.85224 -0.18502
v -1.26742 1.85224 -0.18502
v -1.28864 1.55383 -0.25856
v -1.28864 1.55383 -0.25856
v -1.21982 1.41152 -0.20706
v -1.21982 1.41152 -0.20706
v -1.21982 1.41152 -0.20706
v -1.25740 2.02529 -0.15849
v -1.25740 2.02529 -0.15849
v -1.25740 2.02529 -0.15849
v -1.22788 1.57979 -0.41049
v -1.22788 1.57979 -0.41049
v -1.22788 1.57979 -0.41049
v -1.22505 1.73031 -0.25999
v -1.22505 1.73031 -0.25999
v -1.22505 1.73031 -0.25999
v -1.22505 1.73031 -0.25999
v -1.22505 1.73031 -0.25999
v -1.24354 1.88182 -0.17392
v -1.24354 1.88182 -0.17392
v -1.24354 1.88182 -0.17392
v -1.24354 1.88182 -0.17392
v -1.24354 1.88182 -0.17392
v -1.24354 1.88182 -0.17392
v -1.24354 1.88182 -0.17392
v -1.23628 2.00783 -0.12765
v -1.23628 2.00783 -0.12765
v -1.23628 2.00783 -0.12765
v -1.23628 2.00783 -0.12765
v -1.33620 1.63143 -0.17548
v -1.33620 1.63143 -0.17548
v -1.23467 1.87086 -0.11947
v -1.23467 1.87086 -0.11947
v -1.23467 1.87086 -0.11947
v -1.23467 1.87086 -0.11947
v -1.23467 1.87086 -0.11947
v -1.23467 1.87086 -0.11947
v -1.29673 1.65120 -0.31304
v -1.29673 1.65120 -0.31304
v -1.29673 1.65120 -0.31304
v -1.27495 1.54450 -0.35354
v -1.27495 1.54450 -0.35354
v -1.27495 1.54450 -0.35354
v -1.27495 1.54450 -0.35354
v -1.27495 1.54450 -0.35354
v -1.25741 1.62314 -0.36074
v -1.25741 1.62314 -0.36074
v -1.25741 1.62314 -0.36074
v -1.28735 1.54448 -0.28833
v -1.28735 1.54448 -0.28833
v -1.28735 1.54448 -0.28833
v -1.26424 1.85276 -0.27601
v -1.26424 1.85276 -0.27601
v -1.26424 1.85276 -0.27601
v -1.33028 1.74096 -0.16718
v -1.33028 1.74096 -0.16718
v -1.33028 1.74096 -0.16718
v -1.33028 1.74096 -0.16718
v -1.17453 1.72498 -0.14500
v -1.17453 1.72498 -0.14500
v -1.17453 1.72498 -0.14500
v -1.17453 1.72498 -0.14500
v -1.17453 1.72498 -0.14500
v -1.17453 1.72498 -0.14500
v -1.29871 1.73217 -0.32621
v -1.29871 1.73217 -0.32621
v -1.29871 1.73217 -0.32621
v -1.29871 1.73217 -0.32621
v -1.28917 1.72215 -0.27754
v -1.28917 1.72215 -0.27754
v -1.28917 1.72215 -0.27754
v -1.28917 1.72215 -0.27754
v -1.28917 1.72215 -0.27754
v -1.28917 1.72215 -0.27754
v -1.30656 1.74641 -0.19395
v -1.30656 1.74641 -0.19395
v -1.30656 1.74641 -0.19395
v -1.30656 1.74641 -0.19395
v -1.31050 1.74960 -0.25745
v -1.31050 1.74960 -0.25745
v -1.31050 1.74960 -0.25745
v -1.31050 1.74960 -0.25745
v -1.29296 1.59972 -0.36144
v -1.29296 1.59972 -0.36144
v -1.29296 1.59972 -0.36144
v -1.29296 1.59972 -0.36144
v -1.26398 1.59686 -0.27084
v -1.26398 1.59686 -0.27084
v -1.26398 1.59686 -0.27084
v -1.30728 1.66430 -0.35501
v -1.30728 1.66430 -0.35501
v -1.31524 1.64175 -0.26957
v -1.31524 1.64175 -0.26957
v -1.06249 1.88443 -0.08964
v -1.06249 1.88443 -0.08964
v -1.06249 1.88443 -0.08964
v -1.06249 1.88443 -0.08964
v -0.96873 2.21531 0.00039
v -0.82383 2.18653 0.10211
v -0.75857 2.33030 0.14611
v -0.88945 2.19859 0.12187
v -0.81294 2.35643 0.16565
v -0.88952 2.20530 0.18145
v -0.85797 2.30707 0.22733
v -0.91311 2.21226 0.22164
v -1.00926 2.25849 0.22540
v -1.03635 2.18953 0.18153
v -1.03190 2.28203 0.17009
v -1.09075 2.23464 0.13872
v -1.09447 2.24457 0.11462
v -1.00543 2.14774 0.09067
v -1.12422 2.18371 0.08191
v -1.18247 2.09298 0.03945
v -1.20254 2.14241 -0.08821
v -1.17190 2.14805 -0.15926
v -1.11780 2.25720 -0.10447
v -1.19926 2.02912 -0.23973
v -1.06080 2.26577 -0.14965
v -1.05107 2.22381 -0.22154
v -0.99609 2.20910 -0.26833
v -0.93930 2.18052 -0.25689
v -0.81628 2.36456 -0.18779
v -0.91281 2.14975 -0.22174
v -0.77155 2.34952 -0.11072
v -0.87237 2.16139 -0.13283
v -0.79301 2.21826 -0.12541
v -0.83882 2.13005 0.02234
v -0.79799 2.19969 0.04728
vt 0.18715 0.51173
vt 0.17167 0.51609
vt 0.17426 0.53967
vt 0.68106 0.79102
vt 0.16276 0.53870
vt 0.15834 0.51706
vt 0.44643 0.17402
vt 0.15094 0.50586
vt 0.32840 0.79513
vt 0.53565 0.23557
vt 0.34932 0.08167
vt 0.48470 0.60868
vt 0.46782 0.60519
vt 0.46229 0.59855
vt 0.67242 0.76695
vt 0.29625 0.79977
vt 0.48774 0.59379
vt 0.56010 0.12391
vt 0.17258 0.54797
vt 0.68177 0.76865
vt 0.14751 0.54829
vt 0.46875 0.61113
vt 0.32779 0.80243
vt 0.52901 0.23247
vt 0.44124 0.18685
vt 0.27915 0.08921
vt 0.33548 0.08167
vt 0.44651 0.19313
vt 0.39118 0.15313
vt 0.28195 0.08149
vt 0.68128 0.99357
vt 0.14777 0.52862
vt 0.72218 0.08463
vt 0.14751 0.53635
vt 0.45627 0.60918
vt 0.97796 0.39080
vt 0.55006 0.11923
vt 0.30908 0.05284
vt 0.16166 0.54983
vt 0.54431 0.12348
vt 0.30219 0.05476
vt 0.29841 0.68989
vt 0.45255 0.60005
vt 0.67068 0.75739
vt 0.30249 0.04377
vt 0.40931 0.15347
vt 0.28759 0.68789
vt 0.15096 0.54647
vt 0.04095 0.52412
vt 0.32642 0.81287
vt 0.76166 0.32815
vt 0.10216 0.65714
vt 0.40294 0.15520
vt 0.67110 0.98732
vt 0.72494 0.30972
vt 0.03503 0.52702
vt 0.31905 0.87881
vt 0.69605 0.98732
vt 0.24289 0.23353
vt 0.29994 0.86277
vt 0.73437 0.07420
vt 0.24334 0.28101
vt 0.27711 0.69279
vt 0.71656 0.30340
vt 0.04095 0.53568
vt 0.53613 0.24351
vt 0.28213 0.09498
vt 0.34164 0.07960
vt 0.46200 0.22938
vt 0.73566 0.08463
vt 0.24225 0.24403
vt 0.87164 0.82079
vt 0.90205 0.61474
vt 0.24701 0.23610
vt 0.90229 0.62398
vt 0.25530 0.22663
vt 0.88614 0.48346
vt 0.89508 0.63428
vt 0.91390 0.19393
vt 0.52037 0.23423
vt 0.09741 0.00748
vt 0.29183 0.69699
vt 0.44274 0.60224
vt 0.49561 0.90041
vt 0.64069 0.38997
vt 0.97750 0.40528
vt 0.71526 0.27950
vt 0.25895 0.29119
vt 0.28732 0.87938
vt 0.88106 0.45831
vt 0.13293 0.54830
vt 0.27760 0.69705
vt 0.59181 0.61014
vt 0.64602 0.37678
vt 0.22796 0.86501
vt 0.32556 0.81836
vt 0.76263 0.33362
vt 0.60160 0.05249
vt 0.35181 0.82046
vt 0.47740 0.84355
vt 0.25348 0.85852
vt 0.35181 0.82046
vt 0.25570 0.86462
vt 0.73492 0.33210
vt 0.93974 0.81203
vt 0.10200 0.63011
vt 0.87525 0.82768
vt 0.89427 0.61507
vt 0.91407 0.17470
vt 0.93606 0.12522
vt 0.72576 0.92596
vt 0.86445 0.83926
vt 0.29784 0.93121
vt 0.45706 0.21019
vt 0.51560 0.24309
vt 0.93112 0.12676
vt 0.46206 0.20885
vt 0.61114 0.05469
vt 0.26126 0.86446
vt 0.35830 0.81312
vt 0.97326 0.18812
vt 0.00606 0.76885
vt 0.58498 0.02976
vt 0.35830 0.81312
vt 0.94213 0.80701
vt 0.34049 0.81410
vt 0.94213 0.82485
vt 0.10339 0.64307
vt 0.14674 0.52720
vt 0.20336 0.01260
vt 0.09377 0.01260
vt 0.98034 0.39967
vt 0.61080 0.04580
vt 0.49413 0.89655
vt 0.20336 0.00554
vt 0.46788 0.83733
vt 0.09377 0.00554
vt 0.01256 0.77491
vt 0.79371 0.36639
vt 0.88098 0.48640
vt 0.99208 0.37608
vt 0.42753 0.12227
vt 0.16422 0.07600
vt 0.13787 0.17948
vt 0.72594 0.93040
vt 0.86798 0.84195
vt 0.13813 0.18522
vt 0.87284 0.83889
vt 0.90260 0.17497
vt 0.11986 0.18522
vt 0.88411 0.47303
vt 0.90261 0.19324
vt 0.13869 0.52703
vt 0.19762 0.00695
vt 0.00694 0.77674
vt 0.58252 0.02220
vt 0.13388 0.53658
vt 0.46750 0.05429
vt 0.98263 0.18612
vt 0.59297 0.02447
vt 0.88320 0.47855
vt 0.90820 0.19343
vt 0.11873 0.17991
vt 0.70679 0.93040
vt 0.87882 0.47179
vt 0.44106 0.12819
vt 0.93489 0.13016
vt 0.29755 0.92614
vt 0.32029 0.77030
vt 0.59027 0.65025
vt 0.92130 0.13263
vt 0.30897 0.77823
vt 0.46035 0.04375
vt 0.36120 0.81976
vt 0.46877 0.83978
vt 0.67761 0.96551
vt 0.96884 0.18237
vt 0.57525 0.33356
vt 0.18613 0.13522
vt 0.54607 0.95670
vt 0.88826 0.76428
vt 0.03720 0.42197
vt 0.69976 0.93088
vt 0.98144 0.54711
vt 0.44403 0.12181
vt 0.16879 0.08865
vt 0.97926 0.19689
vt 0.47152 0.04375
vt 0.97636 0.19900
vt 0.54448 0.16607
vt 0.44270 0.84278
vt 0.69783 0.94876
vt 0.79796 0.39181
vt 0.26981 0.93121
vt 0.03022 0.41872
vt 0.69808 0.92157
vt 0.34740 0.77807
vt 0.18278 0.00668
vt 0.59071 0.61182
vt 0.68201 0.94910
vt 0.59748 0.61151
vt 0.65901 0.10611
vt 0.93661 0.98282
vt 0.56921 0.82441
vt 0.57379 0.37140
vt 0.18275 0.00117
vt 0.84054 0.12719
vt 0.57209 0.35152
vt 0.58894 0.82742
vt 0.12164 0.59604
vt 0.58883 0.80680
vt 0.86176 0.51682
vt 0.02849 0.97884
vt 0.52562 0.16494
vt 0.12331 0.58291
vt 0.59480 0.81860
vt 0.46725 0.09919
vt 0.57718 0.80072
vt 0.85185 0.52084
vt 0.41591 0.82433
vt 0.73381 0.40242
vt 0.43182 0.82095
vt 0.73165 0.41854
vt 0.99642 0.36908
vt 0.47297 0.17045
vt 0.72745 0.41891
vt 0.99220 0.36887
vt 0.04524 0.68926
vt 0.45344 0.17189
vt 0.62281 0.12197
vt 0.72426 0.39947
vt 0.38623 0.05385
vt 0.40331 0.82411
vt 0.73424 0.38982
vt 0.46326 0.17011
vt 0.72581 0.40933
vt 0.47401 0.17676
vt 0.78956 0.86718
vt 0.99180 0.37525
vt 0.79133 0.88931
vt 0.93403 0.21559
vt 0.98293 0.72440
vt 0.99295 0.61705
vt 0.41591 0.81381
vt 0.79794 0.88239
vt 0.93467 0.20605
vt 0.40726 0.80998
vt 0.93803 0.21489
vt 0.02394 0.81085
vt 0.43143 0.81508
vt 0.79470 0.86716
vt 0.99693 0.37494
vt 0.46536 0.17922
vt 0.78878 0.87613
vt 0.40371 0.81613
vt 0.98835 0.15882
vt 0.00700 0.56408
vt 0.82993 0.00296
vt 0.88566 0.46455
vt 0.01969 0.81874
vt 0.98987 0.41715
vt 0.89578 0.45894
vt 0.93784 0.22386
vt 0.98295 0.71530
vt 0.99641 0.41693
vt 0.06057 0.55241
vt 0.38623 0.04388
vt 0.39612 0.81722
vt 0.89561 0.46548
vt 0.99109 0.74830
vt 0.99499 0.15499
vt 0.99696 0.20746
vt 0.04541 0.70142
vt 0.45760 0.18332
vt 0.78730 0.88479
vt 0.04208 0.69377
vt 0.62261 0.11647
vt 0.02394 0.82102
vt 0.99270 0.41324
vt 0.39760 0.81317
vt 0.99499 0.16021
vt 0.99127 0.94692
vt 0.24670 0.22411
vt 0.28979 0.86336
vt 0.83003 0.00930
vt 0.88513 0.47087
vt 0.88605 0.49242
vt 0.01447 0.56295
vt 0.89112 0.46978
vt 0.99210 0.74216
vt 0.62851 0.11699
vt 0.37644 0.05084
vt 0.63383 0.12174
vt 0.72409 0.38845
vt 0.99645 0.94131
vt 0.00661 0.56842
vt 0.83429 0.00296
vt 0.99737 0.38197
vt 0.51878 0.87869
vt 0.65475 0.96697
vt 0.77975 0.00367
vt 0.25790 0.07539
vt 0.10087 0.83665
vt 0.63931 0.97059
vt 0.09647 0.84864
vt 0.65195 0.97236
vt 0.77368 0.00378
vt 0.99411 0.20354
vt 0.04086 0.69974
vt 0.04224 0.43586
vt 0.62259 0.11038
vt 0.52699 0.74761
vt 0.53047 0.88720
vt 0.09318 0.84893
vt 0.51328 0.75220
vt 0.77397 0.00707
vt 0.99014 0.61954
vt 0.11136 0.01894
vt 0.98655 0.72343
vt 0.05071 0.54714
vt 0.37505 0.04370
vt 0.63820 0.11593
vt 0.20220 0.14884
vt 0.54501 0.87668
vt 0.63179 0.95411
vt 0.93175 0.37350
vt 0.05883 0.54831
vt 0.88984 0.78251
vt 0.98691 0.74982
vt 0.37873 0.02771
vt 0.99746 0.94692
vt 0.87857 0.49110
vt 0.99638 0.37636
vt 0.97439 0.01506
vt 0.01093 0.46055
vt 0.22975 0.00348
vt 0.19548 0.11493
vt 0.60965 0.60546
vt 0.60965 0.60546
vt 0.64261 0.35366
vt 0.88622 0.16447
vt 0.89450 0.77375
vt 0.97756 0.55776
vt 0.37176 0.02064
vt 0.04414 0.44325
vt 0.63010 0.11171
vt 0.18131 0.02869
vt 0.02142 0.41763
vt 0.99102 0.96182
vt 0.65118 0.13926
vt 0.99029 0.20921
vt 0.78246 0.88970
vt 0.98450 0.61428
vt 0.04907 0.43609
vt 0.11907 0.01893
vt 0.43342 0.13488
vt 0.93144 0.33383
vt 0.93925 0.33394
vt 0.26992 0.29399
vt 0.82408 0.88134
vt 0.88831 0.44874
vt 0.28313 0.27954
vt 0.45081 0.01260
vt 0.62926 0.61073
vt 0.82083 0.17300
vt 0.83613 0.86476
vt 0.08031 0.64593
vt 0.11083 0.01293
vt 0.82973 0.88848
vt 0.89590 0.45375
vt 0.98766 0.71750
vt 0.53393 0.74787
vt 0.53718 0.88901
vt 0.53229 0.87738
vt 0.64293 0.96030
vt 0.21670 0.14628
vt 0.26219 0.06370
vt 0.62711 0.96807
vt 0.22564 0.00468
vt 0.11702 0.01661
vt 0.83673 0.89014
vt 0.94163 0.33486
vt 0.93477 0.34055
vt 0.48225 0.13547
vt 0.01515 0.45792
vt 0.88394 0.16004
vt 0.43399 0.12968
vt 0.92347 0.11688
vt 0.92896 0.33748
vt 0.88398 0.93082
vt 0.93538 0.35640
vt 0.05006 0.22018
vt 0.17712 0.02082
vt 0.51672 0.06757
vt 0.94208 0.36179
vt 0.02989 0.41487
vt 0.98175 0.56172
vt 0.01213 0.56839
vt 0.98633 0.74087
vt 0.99185 0.38225
vt 0.17009 0.07410
vt 0.37724 0.01886
vt 0.47663 0.15134
vt 0.50925 0.90174
vt 0.64025 0.37627
vt 0.86770 0.16447
vt 0.09311 0.02422
vt 0.17907 0.12620
vt 0.88612 0.77553
vt 0.05084 0.54191
vt 0.63654 0.11098
vt 0.08702 0.01911
vt 0.09956 0.02052
vt 0.18758 0.02673
vt 0.23829 0.23376
vt 0.98606 0.96613
vt 0.83734 0.16860
vt 0.84063 0.88125
vt 0.93980 0.34234
vt 0.05286 0.44552
vt 0.43371 0.14503
vt 0.05664 0.54073
vt 0.08434 0.02438
vt 0.88198 0.78327
vt 0.98202 0.96182
vt 0.65635 0.13188
vt 0.51343 0.74642
vt 0.51789 0.88202
vt 0.77975 0.00711
vt 0.21986 0.14930
vt 0.10065 0.82411
vt 0.88294 0.94059
vt 0.92557 0.35694
vt 0.25790 0.06285
vt 0.18605 0.12057
vt 0.23752 0.22605
vt 0.54607 0.97135
vt 0.09129 0.83670
vt 0.52469 0.75700
vt 0.04373 0.52343
vt 0.36085 0.05681
vt 0.54927 0.87763
vt 0.93581 0.37190
vt 0.43962 0.12948
vt 0.92493 0.11143
vt 0.02109 0.40688
vt 0.65666 0.14851
vt 0.04047 0.21719
vt 0.09955 0.01556
vt 0.18712 0.02179
vt 0.08978 0.01778
vt 0.18089 0.11919
vt 0.23958 0.23098
vt 0.96532 0.01434
vt 0.00565 0.70982
vt 0.18693 0.11804
vt 0.01089 0.68136
vt 0.44478 0.01123
vt 0.62366 0.60676
vt 0.99398 0.13294
vt 0.09171 0.82812
vt 0.53257 0.76040
vt 0.87446 0.94549
vt 0.05028 0.22644
vt 0.14318 0.06331
vt 0.52298 0.06749
vt 0.08664 0.06092
vt 0.54316 0.74714
vt 0.54643 0.88862
vt 0.37003 0.05014
vt 0.03992 0.22289
vt 0.10500 0.01379
vt 0.13940 0.07358
vt 0.21522 0.01707
vt 0.60160 0.51878
vt 0.61638 0.59308
vt 0.08520 0.63201
vt 0.03161 0.11917
vt 0.83194 0.16327
vt 0.96995 0.04953
vt 0.02990 0.11382
vt 0.83750 0.16403
vt 0.93651 0.34370
vt 0.51624 0.06390
vt 0.88420 0.92461
vt 0.94135 0.35815
vt 0.60608 0.58065
vt 0.78541 0.90500
vt 0.85651 0.10578
vt 0.61494 0.57443
vt 0.60922 0.50658
vt 0.72569 0.70963
vt 0.00056 0.08061
vt 0.00119 0.71182
vt 0.01124 0.67648
vt 0.19049 0.07476
vt 0.05859 0.14558
vt 0.10731 0.01785
vt 0.14344 0.07591
vt 0.23013 0.23300
vt 0.07655 0.06849
vt 0.65682 0.06381
vt 0.26439 0.06945
vt 0.00763 0.08869
vt 0.90939 0.11177
vt 0.59557 0.01369
vt 0.95996 0.01382
vt 0.17982 0.73034
vt 0.18955 0.84446
vt 0.00642 0.08309
vt 0.90972 0.11749
vt 0.92994 0.35146
vt 0.45491 0.11285
vt 0.07656 0.63994
vt 0.98744 0.19146
vt 0.45058 0.00554
vt 0.99294 0.58816
vt 0.40439 0.02611
vt 0.96995 0.06126
vt 0.04187 0.51286
vt 0.91424 0.11045
vt 0.87000 0.10816
vt 0.59125 0.48760
vt 0.61735 0.56094
vt 0.95658 0.01755
vt 0.59494 0.49687
vt 0.62089 0.57026
vt 0.54589 0.76122
vt 0.87470 0.93215
vt 0.04441 0.51088
vt 0.87192 0.10557
vt 0.36553 0.04515
vt 0.54941 0.74467
vt 0.61624 0.55907
vt 0.26632 0.07528
vt 0.59757 0.49316
vt 0.96499 0.01735
vt 0.73382 0.70819
vt 0.77615 0.90850
vt 0.21860 0.01392
vt 0.61212 0.59489
vt 0.78757 0.92032
vt 0.96667 0.01850
vt 0.00728 0.08055
vt 0.47608 0.13347
vt 0.53087 0.89793
vt 0.01897 0.46316
vt 0.00764 0.71371
vt 0.93577 0.92524
vt 0.21522 0.00989
vt 0.60781 0.52240
vt 0.73243 0.72400
vt 0.78295 0.92284
vt 0.19061 0.82956
vt 0.21932 0.75476
vt 0.71374 0.15828
vt 0.53413 0.96842
vt 0.67432 0.10361
vt 0.81037 0.10020
vt 0.51448 0.88111
vt 0.54122 0.16334
vt 0.44018 0.15344
vt 0.11052 0.59199
vt 0.79371 0.39194
vt 0.93535 0.94436
vt 0.52644 0.06390
vt 0.55133 0.75898
vt 0.87414 0.92629
vt 0.01221 0.08239
vt 0.02843 0.11862
vt 0.18403 0.83897
vt 0.93754 0.34867
vt 0.59504 0.00592
vt 0.06417 0.09976
vt 0.18745 0.07199
vt 0.65299 0.06532
vt 0.60035 0.50740
vt 0.61805 0.58175
vt 0.15017 0.72329
vt 0.58653 0.71527
vt 0.99796 0.40300
vt 0.44489 0.00554
vt 0.99376 0.13863
vt 0.98833 0.59151
vt 0.02702 0.42197
vt 0.17947 0.00355
vt 0.53589 0.95642
vt 0.66220 0.10361
vt 0.15181 0.72892
vt 0.21705 0.84406
vt 0.99897 0.40877
vt 0.67400 0.10717
vt 0.81159 0.09685
vt 0.93635 0.96779
vt 0.21755 0.83928
vt 0.24788 0.75386
vt 0.99417 0.40863
vt 0.01740 0.82444
vt 0.42304 0.15685
vt 0.12185 0.61022
vt 0.03376 0.96856
vt 0.04663 0.71725
vt 0.62684 0.60162
vt 0.99917 0.13339
vt 0.24115 0.74484
vt 0.58017 0.70554
vt 0.20853 0.83598
vt 0.23839 0.75242
vt 0.05249 0.09891
vt 0.52886 0.07287
vt 0.55240 0.74975
vt 0.61187 0.55511
vt 0.08913 0.06849
vt 0.04185 0.37205
vt 0.65682 0.07639
vt 0.21841 0.01779
vt 0.11750 0.03996
vt 0.98189 0.23648
vt 0.05934 0.27851
vt 0.70190 0.27694
vt 0.04438 0.36716
vt 0.21296 0.01860
vt 0.11388 0.03123
vt 0.21841 0.02632
vt 0.60411 0.55865
vt 0.98086 0.06088
vt 0.00251 0.08660
vt 0.02045 0.82263
vt 0.04376 0.70505
vt 0.62003 0.59319
vt 0.42207 0.15344
vt 0.17952 0.11480
vt 0.92844 0.92763
vt 0.01754 0.67675
vt 0.01239 0.82262
vt 0.05172 0.70633
vt 0.85080 0.51492
vt 0.02849 0.96772
vt 0.19590 0.72613
vt 0.21777 0.23321
vt 0.04683 0.14176
vt 0.45965 0.03798
vt 0.67185 0.06595
vt 0.21333 0.03757
vt 0.47843 0.03649
vt 0.16350 0.73008
vt 0.20560 0.84145
vt 0.05163 0.58050
vt 0.60362 0.57122
vt 0.78453 0.89529
vt 0.98172 0.07343
vt 0.11750 0.03013
vt 0.69246 0.27967
vt 0.97710 0.06133
vt 0.15967 0.71983
vt 0.58653 0.70517
vt 0.99737 0.94923
vt 0.45597 0.10364
vt 0.83971 0.52086
vt 0.20069 0.83170
vt 0.22948 0.75301
vt 0.23362 0.74208
vt 0.57920 0.69758
vt 0.80186 0.09381
vt 0.94639 0.96956
vt 0.97399 0.28947
vt 0.30315 0.03211
vt 0.04631 0.14599
vt 0.06093 0.09047
vt 0.18999 0.06249
vt 0.48186 0.03902
vt 0.37082 0.01171
vt 0.99279 0.19002
vt 0.40767 0.03057
vt 0.46414 0.11038
vt 0.37477 0.00691
vt 0.52011 0.96513
vt 0.66935 0.05808
vt 0.21755 0.03048
vt 0.40410 0.03566
vt 0.16691 0.71725
vt 0.58739 0.69753
vt 0.25044 0.74918
vt 0.58281 0.71544
vt 0.99425 0.40330
vt 0.94747 0.98515
vt 0.97066 0.27419
vt 0.82763 0.13163
vt 0.68048 0.27833
vt 0.97710 0.07338
vt 0.05537 0.58322
vt 0.30960 0.02651
vt 0.26742 0.06350
vt 0.47843 0.04684
vt 0.18558 0.72697
vt 0.58923 0.01163
vt 0.99471 0.95519
vt 0.37082 0.00496
vt 0.45678 0.11012
vt 0.52244 0.96140
vt 0.79674 0.10030
vt 0.96572 0.28953
vt 0.99306 0.18327
vt 0.47100 0.10550
vt 0.57638 0.80969
vt 0.96609 0.27459
vt 0.82417 0.12719
vt 0.22391 0.74034
vt 0.57772 0.68782
vt 0.99282 0.94923
vt 0.05183 0.71750
vt 0.83972 0.51631
vt 0.99938 0.13860
vt 0.98685 0.18256
vt 0.98403 0.58790
vt 0.27825 0.07114
vt 0.60718 0.48496
vt 0.96458 0.65882
vt 0.12059 0.22519
vt 0.67898 0.26935
vt 0.73285 0.69967
vt 0.77322 0.90045
vt 0.06406 0.58050
vt 0.06713 0.26530
vt 0.11248 0.22131
vt 0.68694 0.27354
vt 0.61120 0.49752
vt 0.72550 0.70035
vt 0.34024 0.04343
vt 0.21755 0.04060
vt 0.21857 0.22808
vt 0.52705 0.97250
vt 0.21182 0.74219
vt 0.57769 0.67559
vt 0.60437 0.15712
vt 0.71425 0.17291
vt 0.03186 0.12491
vt 0.18392 0.83181
vt 0.44905 0.12033
vt 0.58680 0.15657
vt 0.72057 0.15650
vt 0.96534 0.05296
vt 0.98575 0.24325
vt 0.06713 0.27882
vt 0.09902 0.22263
vt 0.96024 0.66684
vt 0.30315 0.02279
vt 0.98189 0.24735
vt 0.27485 0.06296
vt 0.96581 0.66759
vt 0.05249 0.08652
vt 0.05423 0.37176
vt 0.46467 0.12295
vt 0.60236 0.15364
vt 0.45260 0.04808
vt 0.65953 0.06595
vt 0.18897 0.71784
vt 0.58800 0.67524
vt 0.60422 0.14680
vt 0.45965 0.04879
vt 0.11409 0.22575
vt 0.73273 0.69315
vt 0.96163 0.65153
vt 0.35045 0.04318
vt 0.60600 0.49335
vt 0.97181 0.65441
vt 0.34189 0.03697
vt 0.10671 0.22564
vt 0.95956 0.65861
vt 0.17708 0.71574
vt 0.58849 0.68731
vt 0.22739 0.00022
vt 0.25061 0.69740
vt 0.26450 0.28484
vt 0.61141 0.60938
vt 0.56010 0.12391
vt 0.56010 0.12391
vt 0.56010 0.12391
vt 0.56010 0.12391
vt 0.56010 0.12391
vt 0.56010 0.12391
vt 0.56010 0.12391
vt 0.56010 0.12391
vt 0.56010 0.12391
vt 0.56010 0.12391
vt 0.56010 0.12391
vt 0.56010 0.12391
vt 0.56010 0.12391
vt 0.56010 0.12391
vt 0.56010 0.12391
vt 0.56010 0.12391
vt 0.56010 0.12391
vt 0.56010 0.12391
vt 0.56010 0.12391
vt 0.56010 0.12391
vt 0.56010 0.12391
vt 0.56010 0.12391
vt 0.56010 0.12391
vt 0.56010 0.12391
vt 0.56010 0.12391
vt 0.56010 0.12391
vt 0.56010 0.12391
vt 0.56010 0.12391
vt 0.56010 0.12391
vt 0.56010 0.12391
vt 0.56010 0.12391
vn 0.8460 -0.5076 -0.1629
vn 0.6799 -0.7030 -0.2089
vn 0.7400 -0.5435 0.3963
vn 0.1776 -0.3461 0.9212
vn 0.6484 -0.7566 0.0845
vn 0.7405 -0.6051 -0.2925
vn -0.0616 -0.9474 -0.3140
vn 0.8135 -0.5124 -0.2751
vn 0.6605 -0.1817 -0.7285
vn -0.3880 -0.7625 -0.5178
vn 0.4764 -0.8742 -0.0939
vn 0.8510 -0.5104 0.1242
vn 0.7757 -0.5696 0.2718
vn 0.7708 -0.6330 0.0723
vn 0.1483 -0.5320 0.8337
vn 0.3604 -0.2084 -0.9092
vn 0.8456 -0.5085 0.1624
vn -0.0604 -0.1614 0.9850
vn 0.7564 -0.5746 0.3125
vn 0.1818 -0.4463 0.8762
vn -0.1726 -0.4227 0.8897
vn 0.6805 -0.5419 0.4932
vn 0.6901 -0.2002 -0.6954
vn -0.3157 -0.8190 -0.4791
vn -0.0616 -0.9474 -0.3140
vn 0.2382 0.9604 0.1447
vn 0.4764 -0.8742 -0.0939
vn -0.0616 -0.9474 -0.3140
vn -0.5878 -0.7798 -0.2154
vn 0.2382 0.9604 0.1447
vn 0.5419 -0.8237 0.1670
vn 0.6517 -0.7264 -0.2183
vn 0.8923 -0.1529 -0.4247
vn -0.2162 -0.5658 0.7957
vn 0.6861 -0.7152 0.1329
vn 0.9073 -0.3110 -0.2829
vn -0.0604 -0.1614 0.9850
vn -0.2289 -0.6066 0.7614
vn 0.4816 -0.7888 0.3820
vn -0.0604 -0.1614 0.9850
vn -0.2289 -0.6066 0.7614
vn 0.4126 -0.5587 0.7194
vn 0.6729 -0.7381 0.0483
vn 0.1105 -0.6419 0.7588
vn -0.2289 -0.6066 0.7614
vn -0.5878 -0.7798 -0.2154
vn 0.2650 -0.7463 0.6106
vn 0.4116 -0.9013 0.1351
vn 0.7166 -0.6630 -0.2165
vn -0.4334 -0.2545 0.8645
vn 0.4036 0.1830 -0.8964
vn 0.9185 -0.3673 -0.1466
vn -0.5878 -0.7798 -0.2154
vn 0.5419 -0.8237 0.1670
vn 0.5848 -0.5879 0.5589
vn 0.7166 -0.6630 -0.2165
vn 0.9416 -0.3363 -0.0152
vn 0.5419 -0.8237 0.1670
vn 0.5447 0.1364 -0.8274
vn 0.9608 -0.2718 -0.0541
vn 0.8923 -0.1529 -0.4247
vn 0.6582 -0.5545 0.5093
vn 0.1059 -0.7113 0.6949
vn 0.5848 -0.5879 0.5589
vn 0.7166 -0.6630 -0.2165
vn -0.3765 -0.7011 -0.6056
vn 0.2382 0.9604 0.1447
vn 0.4764 -0.8742 -0.0939
vn 0.6495 0.4427 -0.6182
vn 0.8923 -0.1529 -0.4247
vn 0.4193 -0.0464 -0.9067
vn 0.3967 0.8895 0.2268
vn 0.8802 -0.4546 -0.1365
vn 0.5930 0.0965 -0.7994
vn 0.7806 -0.6098 0.1373
vn 0.8472 0.1880 -0.4969
vn -0.4368 -0.8460 -0.3058
vn 0.8656 -0.4953 -0.0740
vn 0.3241 0.0721 -0.9433
vn -0.4364 -0.8559 -0.2776
vn -0.7137 -0.6743 0.1895
vn 0.2767 -0.7152 0.6418
vn 0.6464 -0.7622 0.0360
vn -0.1458 -0.5129 0.8460
vn 0.8367 -0.5441 0.0622
vn 0.9073 -0.3110 -0.2829
vn 0.5848 -0.5879 0.5589
vn 0.6576 -0.4504 0.6039
vn 0.9318 -0.3629 0.0013
vn 0.9531 -0.2918 0.0799
vn -0.1572 -0.4185 0.8945
vn 0.0699 -0.7066 0.7042
vn 0.2294 -0.5013 0.8343
vn 0.8620 -0.4961 0.1045
vn -0.3659 0.6425 -0.6733
vn -0.3861 -0.3123 0.8680
vn 0.4036 0.1830 -0.8964
vn -0.0345 0.2740 -0.9611
vn 0.0880 -0.4518 0.8878
vn -0.7356 0.1831 0.6522
vn -0.3369 0.7149 -0.6127
vn 0.0350 -0.4850 0.8738
vn -0.2906 0.8049 -0.5174
vn 0.4036 0.1830 -0.8964
vn 0.7194 -0.1223 -0.6837
vn 0.9185 -0.3673 -0.1466
vn 0.3987 0.8910 0.2173
vn 0.8917 -0.3962 -0.2188
vn 0.5274 -0.1683 -0.8328
vn -0.0686 0.6307 -0.7730
vn -0.8796 0.3937 -0.2671
vn 0.3910 0.9041 0.1725
vn -0.3680 0.1615 -0.9157
vn 0.6495 0.4427 -0.6182
vn -0.4341 -0.8394 -0.3271
vn -0.1710 0.7694 -0.6154
vn 0.6495 0.4427 -0.6182
vn -0.0345 0.2740 -0.9611
vn -0.2326 0.8866 -0.3999
vn 0.0880 -0.4518 0.8878
vn -0.7319 -0.6788 -0.0604
vn -0.7971 -0.3502 -0.4919
vn -0.9825 -0.1759 0.0612
vn 0.0968 -0.4804 0.8717
vn 0.7194 -0.1223 -0.6837
vn -0.1927 -0.4642 0.8645
vn 0.7194 -0.1223 -0.6837
vn 0.9185 -0.3673 -0.1466
vn -0.2394 -0.6427 0.7277
vn -0.3988 -0.8831 -0.2469
vn -0.7137 -0.6743 0.1895
vn 0.9073 -0.3110 -0.2829
vn -0.0345 0.2740 -0.9611
vn -0.2094 -0.4455 0.8704
vn -0.3988 -0.8831 -0.2469
vn -0.4568 0.2288 0.8596
vn -0.7137 -0.6743 0.1895
vn -0.7971 -0.3502 -0.4919
vn 0.1983 -0.9801 0.0094
vn -0.2831 -0.9125 -0.2952
vn 0.9992 -0.0152 -0.0367
vn 0.6215 -0.1573 -0.7675
vn 0.6233 0.2641 -0.7361
vn -0.1141 0.2239 -0.9679
vn -0.8962 0.3840 -0.2221
vn 0.3710 0.9194 0.1303
vn -0.0534 0.2178 -0.9745
vn 0.3979 0.9012 0.1717
vn 0.6172 -0.2339 -0.7513
vn -0.3308 0.2389 -0.9130
vn -0.2667 -0.9151 -0.3026
vn 0.8057 -0.2713 -0.5265
vn -0.2431 -0.6362 0.7322
vn -0.3988 -0.8831 -0.2469
vn -0.7971 -0.3502 -0.4919
vn -0.9825 -0.1759 0.0612
vn -0.1974 -0.5446 0.8152
vn -0.5452 0.1287 0.8284
vn -0.6815 -0.7246 0.1026
vn -0.9825 -0.1759 0.0612
vn -0.2712 -0.8740 -0.4032
vn 0.5901 -0.1236 -0.7978
vn -0.3856 0.2409 -0.8907
vn -0.8102 0.4436 -0.3832
vn -0.2431 -0.9013 -0.3584
vn 0.6215 -0.1573 -0.7675
vn -0.1424 0.7337 -0.6644
vn -0.3680 0.1615 -0.9157
vn -0.9441 0.3263 0.0460
vn -0.1514 0.4277 -0.8911
vn -0.2238 0.8283 -0.5137
vn -0.9441 0.3263 0.0460
vn -0.5452 0.1287 0.8284
vn 0.0880 -0.4518 0.8878
vn -0.6068 0.2090 0.7669
vn -0.1765 -0.3599 0.9162
vn -0.7453 -0.6561 -0.1184
vn -0.3963 0.5612 -0.7266
vn 0.6648 0.3496 -0.6602
vn -0.6919 0.4199 -0.5874
vn 0.2354 0.1889 -0.9534
vn -0.4699 0.8740 -0.1240
vn -0.7958 0.5117 -0.3238
vn 0.3538 0.8904 0.2865
vn 0.6215 -0.1573 -0.7675
vn 0.6233 0.2641 -0.7361
vn -0.7268 -0.6841 -0.0619
vn -0.5452 0.1287 0.8284
vn -0.7428 -0.6524 -0.1502
vn -0.4269 -0.8638 -0.2674
vn -0.3373 0.2388 0.9106
vn -0.1677 -0.3275 0.9298
vn 0.1983 -0.9801 0.0094
vn -0.3680 0.1615 -0.9157
vn -0.4699 0.8740 -0.1240
vn -0.8013 0.4658 -0.3755
vn -0.9441 0.3263 0.0460
vn 0.0708 0.0792 -0.9943
vn 0.1326 0.2839 -0.9496
vn -0.1755 -0.3560 0.9179
vn 0.0971 0.3039 -0.9477
vn 0.6259 0.2413 -0.7416
vn -0.7340 0.4752 -0.4852
vn -0.9092 0.3932 -0.1368
vn -0.4517 0.5689 -0.6873
vn 0.0708 0.0792 -0.9943
vn 0.3334 0.8999 0.2811
vn -0.4471 0.5678 -0.6912
vn -0.9304 0.2556 -0.2627
vn -0.8341 0.2183 0.5066
vn -0.9092 0.3740 -0.1827
vn -0.0904 -0.2818 0.9552
vn -0.9800 0.0067 -0.1989
vn -0.4269 -0.8638 -0.2674
vn -0.8379 0.3305 0.4345
vn -0.9155 0.1142 -0.3857
vn -0.8903 0.2233 -0.3968
vn -0.8412 0.5297 -0.1088
vn -0.1129 -0.3526 0.9289
vn 0.9624 0.0528 0.2666
vn 0.5880 0.2589 -0.7663
vn 0.9480 -0.1167 0.2960
vn 0.5206 0.1199 -0.8453
vn 0.2583 -0.9497 -0.1773
vn -0.8641 -0.1336 -0.4853
vn 0.5849 0.0941 -0.8056
vn 0.1886 -0.9678 -0.1668
vn 0.3505 -0.9108 -0.2182
vn -0.8703 -0.2364 -0.4322
vn -0.4441 0.0601 -0.8940
vn 0.5529 0.3373 -0.7619
vn 0.2007 0.9520 -0.2312
vn 0.7880 0.2406 0.5667
vn 0.5417 0.4055 -0.7363
vn -0.8745 -0.2144 -0.4351
vn 0.6631 0.0997 -0.7419
vn -0.8431 -0.0718 -0.5329
vn -0.4407 -0.3695 0.8181
vn 0.1047 -0.9826 -0.1533
vn -0.2317 -0.6505 0.7233
vn -0.7208 -0.6336 0.2812
vn 0.7724 0.0364 0.6340
vn 0.2637 -0.9593 -0.1014
vn 0.9043 0.0961 0.4160
vn -0.4356 -0.4578 0.7750
vn -0.5762 -0.7829 0.2346
vn 0.7688 0.1855 0.6120
vn -0.7213 -0.6329 0.2814
vn -0.2831 -0.0952 0.9543
vn 0.9300 -0.1554 0.3330
vn -0.3695 -0.4043 0.8367
vn 0.1623 -0.9732 -0.1627
vn -0.8702 -0.1889 -0.4551
vn -0.5099 -0.3692 0.7770
vn 0.7960 0.1531 0.5856
vn 0.9080 0.4156 0.0530
vn 0.3023 0.9297 0.2106
vn -0.1786 -0.4186 -0.8904
vn 0.9496 -0.2800 0.1410
vn -0.2831 -0.0952 0.9543
vn -0.5653 0.6581 0.4974
vn 0.9311 -0.3444 0.1205
vn -0.8339 -0.4530 0.3154
vn 0.7952 0.0399 0.6050
vn -0.5653 0.6581 0.4974
vn -0.2092 0.9721 0.1063
vn 0.2044 0.9412 -0.2690
vn 0.6918 0.2997 0.6570
vn 0.8815 -0.3550 0.3114
vn 0.1077 0.2334 -0.9664
vn 0.9080 0.4156 0.0530
vn -0.1625 -0.9618 0.2201
vn 0.3014 -0.9275 -0.2210
vn -0.8704 -0.2299 -0.4354
vn -0.2201 -0.6371 0.7387
vn 0.3342 -0.9167 -0.2192
vn -0.6576 -0.1012 -0.7466
vn -0.2831 -0.0952 0.9543
vn -0.5653 0.6581 0.4974
vn 0.8985 0.0025 0.4390
vn 0.9080 0.4156 0.0530
vn -0.5279 0.0954 -0.8439
vn 0.7977 0.2045 -0.5673
vn 0.9419 -0.3355 -0.0157
vn -0.1786 -0.4186 -0.8904
vn 0.9701 -0.1859 0.1558
vn -0.4383 -0.8592 -0.2639
vn 0.2945 0.9308 0.2164
vn 0.9014 -0.3775 0.2119
vn -0.1271 0.4250 -0.8962
vn -0.5129 0.0241 -0.8581
vn 0.1928 0.9684 -0.1581
vn -0.4123 0.1954 -0.8898
vn 0.5226 0.4213 -0.7412
vn -0.5279 0.0954 -0.8439
vn 0.3091 0.9286 0.2054
vn -0.1786 -0.4186 -0.8904
vn 1.0000 0.0061 0.0019
vn 0.0630 -0.0915 0.9938
vn 0.9703 0.2203 -0.0997
vn 0.5538 -0.8150 -0.1703
vn 0.5750 0.0658 -0.8155
vn 0.1096 -0.2585 -0.9598
vn 0.9607 0.2689 -0.0687
vn -0.0047 -0.2128 -0.9771
vn 0.9711 0.1974 -0.1341
vn 0.5725 -0.8041 -0.1600
vn -0.1625 -0.9618 0.2201
vn 0.2770 -0.9348 -0.2222
vn -0.8691 -0.4102 -0.2762
vn -0.6488 -0.2402 -0.7220
vn -0.7984 -0.6019 0.0119
vn 0.0131 -0.1575 0.9874
vn 0.0339 -0.2121 -0.9767
vn -0.7414 -0.6704 0.0307
vn 0.5824 -0.7981 -0.1546
vn 0.2637 -0.9593 -0.1014
vn -0.3399 -0.6421 0.6871
vn 0.7833 0.0381 0.6204
vn -0.5241 0.8260 0.2072
vn 0.1992 0.9556 -0.2172
vn -0.4266 0.1456 -0.8926
vn -0.5542 0.8324 0.0019
vn 0.0348 -0.0839 0.9959
vn 0.9550 0.2888 -0.0681
vn 0.8846 0.4394 -0.1561
vn -0.3356 0.9284 0.1594
vn 0.3997 -0.2196 -0.8900
vn -0.0563 0.3705 -0.9271
vn 0.9894 -0.0026 -0.1451
vn -0.5279 0.0954 -0.8439
vn -0.3915 -0.8819 -0.2626
vn 0.9748 -0.1040 -0.1974
vn -0.0706 -0.9291 0.3630
vn -0.4216 -0.8858 -0.1939
vn -0.8824 -0.4684 -0.0441
vn 0.0872 0.9671 -0.2391
vn 0.2322 -0.5345 0.8127
vn 0.2294 -0.5013 0.8343
vn 0.8822 -0.4482 0.1444
vn 0.8896 -0.4381 0.1291
vn 0.3452 0.0750 -0.9355
vn 0.3538 0.8904 0.2865
vn 0.9894 -0.0026 -0.1451
vn -0.9304 -0.3075 -0.1995
vn -0.4964 -0.0745 -0.8649
vn 0.5990 0.4600 -0.6554
vn 0.8018 -0.1437 -0.5801
vn 0.9027 0.4302 -0.0024
vn 0.9413 -0.0683 0.3306
vn -0.1625 -0.9618 0.2201
vn 0.0702 -0.7546 0.6524
vn 0.2637 -0.9593 -0.1014
vn -0.9220 -0.3241 -0.2119
vn -0.3332 -0.6769 0.6564
vn 0.9000 0.2008 -0.3869
vn 0.4927 -0.0632 0.8679
vn 0.6230 -0.6526 0.4313
vn 0.4227 -0.3866 0.8197
vn 0.1415 -0.9894 -0.0325
vn 0.9650 -0.2620 0.0102
vn 0.2848 -0.4578 0.8422
vn -0.8576 0.5126 0.0419
vn 0.0317 -0.0749 0.9967
vn 0.8855 0.1450 0.4414
vn 0.2264 -0.9629 0.1467
vn -0.8678 -0.4377 -0.2353
vn -0.3418 -0.6312 0.6963
vn 0.3150 -0.9215 0.2271
vn 0.9519 -0.3023 0.0503
vn 0.8080 0.0419 0.5876
vn -0.9064 -0.4222 -0.0127
vn 0.0353 -0.1926 0.9806
vn 0.0058 -0.1693 0.9855
vn 0.9603 0.2721 -0.0622
vn -0.5542 0.8324 0.0019
vn 0.5750 0.0658 -0.8155
vn 0.9541 0.2925 -0.0643
vn -0.8824 -0.4684 -0.0441
vn -0.3361 -0.6622 0.6697
vn 0.3391 -0.8853 0.3182
vn 0.5422 -0.5630 0.6237
vn 0.5969 -0.0025 0.8023
vn -0.2199 -0.3300 0.9180
vn -0.4216 -0.8858 -0.1939
vn 0.8896 -0.4381 0.1291
vn 0.9438 0.1091 -0.3119
vn 0.2793 -0.9576 -0.0705
vn 0.5442 0.0196 0.8387
vn -0.4271 0.2661 -0.8641
vn 0.9333 0.2933 -0.2070
vn -0.3928 0.3794 -0.8377
vn 0.6847 0.3930 -0.6137
vn -0.4959 0.8625 0.1012
vn 0.9131 0.4009 -0.0744
vn 0.8018 -0.1437 -0.5801
vn 0.3538 0.8904 0.2865
vn 0.2997 0.9301 0.2125
vn -0.2090 0.4843 -0.8496
vn 0.9891 0.0748 0.1264
vn 0.6233 0.2641 -0.7361
vn 0.9894 -0.0026 -0.1451
vn -0.2199 -0.3300 0.9180
vn 0.0316 -0.5525 0.8329
vn 0.8622 -0.4956 0.1050
vn 0.8896 -0.4381 0.1291
vn 0.9830 -0.1150 -0.1429
vn 0.6477 0.3863 -0.6567
vn 0.3629 -0.0623 -0.9298
vn -0.6190 0.7617 0.1917
vn -0.3170 0.1009 -0.9431
vn 0.9821 -0.1109 -0.1524
vn -0.2682 0.9081 0.3216
vn 0.7071 0.3733 -0.6006
vn -0.0571 -0.6041 -0.7949
vn 0.9027 0.4302 -0.0024
vn 0.9244 0.0899 0.3706
vn 0.1215 -0.9835 0.1338
vn 0.5391 -0.2693 0.7980
vn -0.9621 -0.2319 -0.1435
vn 0.8824 0.2303 -0.4103
vn -0.5771 0.7844 0.2275
vn 0.9855 -0.1290 -0.1103
vn 0.3239 -0.3275 -0.8876
vn 0.9027 0.4302 -0.0024
vn 0.9413 -0.0683 0.3306
vn -0.7430 -0.6688 0.0266
vn 0.0960 -0.0435 0.9944
vn 0.5629 -0.8098 -0.1654
vn -0.5542 0.8324 0.0019
vn 0.0613 -0.2915 -0.9546
vn -0.5157 0.0769 -0.8533
vn 0.9310 0.2600 -0.2562
vn 0.5750 0.0658 -0.8155
vn 0.6335 0.4146 -0.6532
vn -0.1722 -0.5469 -0.8193
vn -0.6662 0.4634 -0.5843
vn 0.0768 -0.2527 -0.9645
vn -0.8126 -0.5820 0.0309
vn -0.1871 -0.6747 -0.7139
vn 0.3462 -0.4169 0.8404
vn 0.0240 0.0716 0.9971
vn 0.8674 0.4858 -0.1077
vn 0.9213 0.1604 -0.3543
vn 0.2788 -0.9598 -0.0314
vn 0.8018 -0.1437 -0.5801
vn 0.9413 -0.0683 0.3306
vn -0.3776 0.3755 -0.8464
vn -0.2789 0.8879 0.3658
vn 0.7865 0.2933 -0.5435
vn 0.9754 -0.0892 -0.2015
vn 0.6006 0.4747 -0.6434
vn -0.1924 -0.6645 -0.7221
vn -0.0706 -0.9291 0.3630
vn -0.6179 -0.5461 0.5656
vn 0.0872 0.9671 -0.2391
vn 0.7144 0.5490 0.4339
vn -0.9203 0.3687 0.1311
vn 0.0876 -0.3395 0.9365
vn -0.4041 -0.8819 -0.2427
vn -0.0422 -0.2846 -0.9577
vn -0.9077 -0.4195 0.0109
vn -0.3867 0.0500 -0.9208
vn -0.3848 0.3774 -0.8423
vn -0.9919 -0.0691 0.1070
vn -0.4928 0.8686 0.0524
vn -0.8482 0.3933 -0.3548
vn -0.9310 -0.3650 -0.0037
vn 0.0817 -0.1797 0.9803
vn 0.3462 -0.4169 0.8404
vn -0.3700 0.3736 -0.8506
vn -0.2627 0.9173 0.2992
vn -0.9919 -0.0691 0.1070
vn 0.5881 -0.7011 0.4032
vn -0.1468 -0.3224 0.9351
vn 0.9434 0.3237 -0.0721
vn -0.8678 -0.4377 -0.2353
vn -0.1563 -0.9747 -0.1600
vn 0.9111 0.1103 0.3970
vn 0.8443 0.3423 0.4123
vn -0.0080 -0.9466 -0.3224
vn 0.9607 0.0196 0.2768
vn 0.6337 0.0602 0.7712
vn -0.4972 0.8600 0.1152
vn -0.4485 0.4151 -0.7915
vn 0.9378 0.3147 -0.1469
vn 0.9816 0.1579 -0.1075
vn -0.2067 -0.4090 -0.8888
vn 0.3230 0.0896 -0.9422
vn 0.9962 0.0305 -0.0815
vn -0.0889 -0.1205 0.9887
vn -0.8277 -0.5552 0.0819
vn -0.2078 -0.9055 -0.3699
vn -0.6179 -0.5461 0.5656
vn 0.7144 0.5490 0.4339
vn -0.1420 0.8471 0.5120
vn -0.4976 0.7721 -0.3952
vn -0.2543 0.9297 0.2666
vn -0.9919 -0.0691 0.1070
vn -0.2901 -0.5115 -0.8089
vn -0.8482 0.3933 -0.3548
vn 0.2962 0.1026 -0.9496
vn -0.1444 -0.1146 0.9829
vn -0.7396 -0.3691 0.5628
vn 0.0684 -0.9879 -0.1390
vn 0.6184 0.4794 -0.6228
vn 0.7725 -0.1783 0.6094
vn 0.1146 -0.1280 -0.9851
vn 0.9418 -0.1740 0.2877
vn -0.7396 -0.3691 0.5628
vn 0.1966 -0.9701 -0.1426
vn 0.6009 0.0208 0.7990
vn -0.5016 -0.0958 0.8598
vn -0.8678 -0.4377 -0.2353
vn -0.8871 -0.4611 0.0196
vn -0.9253 0.3522 0.1406
vn 0.2114 -0.3593 0.9090
vn 0.4057 0.8234 0.3967
vn 0.8443 0.3423 0.4123
vn -0.1871 -0.6747 -0.7139
vn 0.2247 -0.9667 -0.1223
vn 0.3230 0.0896 -0.9422
vn -0.0441 0.4250 0.9041
vn 0.9998 -0.0185 0.0003
vn 0.7725 -0.1783 0.6094
vn -0.1081 0.1228 0.9865
vn 0.9997 -0.0237 0.0046
vn -0.9384 -0.3445 0.0260
vn -0.3588 0.2112 -0.9092
vn -0.1871 -0.6747 -0.7139
vn 0.3230 0.0896 -0.9422
vn 0.3462 -0.4169 0.8404
vn -0.9052 -0.4250 0.0032
vn 0.9455 0.1650 -0.2808
vn -0.3633 -0.1739 0.9153
vn -0.1365 0.3561 0.9244
vn 0.7725 -0.1783 0.6094
vn -0.8545 -0.5190 0.0213
vn -0.2397 -0.3688 -0.8981
vn 0.5881 -0.7011 0.4032
vn 0.9473 0.3163 -0.0505
vn -0.0305 -0.3637 -0.9310
vn -0.0706 -0.9291 0.3630
vn -0.2078 -0.9055 -0.3699
vn -0.2199 -0.3300 0.9180
vn -0.3010 -0.3559 0.8847
vn -0.4216 -0.8858 -0.1939
vn -0.6179 -0.5461 0.5656
vn 0.2897 -0.1790 0.9402
vn 0.5881 -0.7011 0.4032
vn -0.2114 -0.4164 0.8843
vn -0.8293 -0.5528 0.0819
vn 0.0284 -0.2919 -0.9560
vn 0.9237 -0.3435 0.1694
vn -0.3269 -0.0986 0.9399
vn -0.0856 0.4201 0.9035
vn -0.6581 0.5834 -0.4759
vn 0.6555 0.2303 -0.7192
vn -0.3458 -0.8853 -0.3109
vn -0.3892 -0.2902 0.8742
vn -0.4269 -0.8638 -0.2674
vn -0.7607 0.0888 0.6430
vn -0.8368 0.2535 0.4852
vn 0.1983 -0.9801 0.0094
vn 0.2897 -0.1790 0.9402
vn -0.4955 0.8659 0.0678
vn -0.9267 -0.3758 -0.0066
vn -0.4276 0.4026 -0.8094
vn -0.7396 -0.3691 0.5628
vn -0.1000 -0.9696 -0.2235
vn 0.8074 -0.5733 0.1397
vn 0.6018 0.0419 0.7975
vn 0.6184 0.4794 -0.6228
vn -0.6448 0.1847 -0.7417
vn -0.1420 0.8471 0.5120
vn 0.2962 0.1026 -0.9496
vn -0.0262 -0.0905 0.9956
vn 0.9925 0.1190 -0.0287
vn 0.1890 0.0230 -0.9817
vn -0.8072 -0.5174 -0.2840
vn 0.4531 -0.8914 0.0136
vn -0.9566 0.1657 0.2396
vn -0.4373 -0.8605 -0.2612
vn 0.2114 -0.3593 0.9090
vn -0.4699 0.8740 -0.1240
vn 0.0708 0.0792 -0.9943
vn -0.6785 0.4353 -0.5917
vn 0.6093 0.2472 -0.7534
vn 0.2249 0.0865 -0.9705
vn 0.8480 0.1498 0.5084
vn 0.4902 -0.8603 0.1396
vn 0.6610 0.2282 -0.7148
vn -0.3767 -0.8562 -0.3537
vn -0.7439 0.4839 -0.4610
vn 0.8820 0.2318 0.4102
vn -0.1554 -0.2684 0.9507
vn 0.5096 -0.8319 0.2199
vn -0.4898 -0.8457 -0.2117
vn -0.7607 0.0888 0.6430
vn -0.8226 0.1379 0.5516
vn -0.9800 0.0067 -0.1989
vn -0.9657 0.1113 0.2346
vn -0.0305 -0.6266 0.7787
vn -0.4370 -0.8607 -0.2611
vn -0.1364 -0.1847 0.9733
vn -0.8209 -0.4874 -0.2976
vn 0.7973 -0.0420 0.6021
vn -0.1573 -0.2746 0.9486
vn -0.5860 0.1112 -0.8026
vn -0.4971 0.8656 0.0599
vn -0.9023 -0.4288 -0.0455
vn 0.9487 0.0500 -0.3121
vn -0.8482 0.3933 -0.3548
vn 0.2961 0.7651 0.5718
vn 0.2962 0.1026 -0.9496
vn 0.5374 0.6390 -0.5504
vn -0.3031 0.5354 -0.7884
vn -0.3168 0.9148 0.2504
vn -0.4587 0.1057 -0.8823
vn -0.9922 0.1247 0.0016
vn 0.2961 0.7651 0.5718
vn 0.5374 0.6390 -0.5504
vn -0.3031 0.5354 -0.7884
vn 0.5374 0.6390 -0.5504
vn 0.9238 0.2164 -0.3160
vn -0.1465 -0.0175 -0.9891
vn -0.2078 -0.9055 -0.3699
vn -0.4898 -0.8457 -0.2117
vn -0.9831 0.1143 0.1427
vn 0.1862 -0.5869 0.7879
vn -0.7607 0.0888 0.6430
vn 0.0872 0.9671 -0.2391
vn 0.2897 -0.1790 0.9402
vn 0.7144 0.5490 0.4339
vn -0.4898 -0.8457 -0.2117
vn -0.9772 0.1132 0.1797
vn -0.1211 -0.3575 0.9260
vn -0.9800 0.0067 -0.1989
vn -0.0005 0.1287 -0.9917
vn -0.3410 -0.7241 -0.5995
vn -0.4976 0.7721 -0.3952
vn -0.7363 0.6720 0.0794
vn -0.8173 0.3414 -0.4642
vn -0.8418 -0.5388 -0.0325
vn -0.8451 -0.2458 0.4747
vn 0.2724 -0.0247 -0.9619
vn 0.8256 0.0344 0.5632
vn 0.1948 -0.8977 -0.3952
vn 0.9533 0.1853 -0.2383
vn -0.3330 -0.2873 -0.8981
vn 0.0091 0.0824 -0.9966
vn -0.3031 0.5354 -0.7884
vn -0.9925 0.0546 -0.1093
vn -0.1050 0.0094 -0.9944
vn 0.2964 0.0523 -0.9536
vn -0.8110 -0.4935 -0.3144
vn -0.1444 -0.9744 -0.1725
vn -0.8116 0.3290 -0.4828
vn -0.1631 -0.3996 0.9021
vn 0.9188 0.0224 0.3940
vn -0.2896 -0.2780 0.9159
vn -0.2577 -0.2786 0.9252
vn -0.8925 -0.3561 -0.2769
vn -0.2993 -0.9215 -0.2474
vn -0.7379 0.4787 -0.4758
vn -0.8374 -0.1378 0.5289
vn -0.2769 0.1293 0.9521
vn -0.4976 0.7721 -0.3952
vn -0.7380 0.3251 -0.5913
vn -0.1420 0.8471 0.5120
vn -0.8451 -0.2458 0.4747
vn 0.0025 -0.3532 0.9355
vn -0.8836 -0.4681 -0.0128
vn 0.4057 0.8234 0.3967
vn -0.3806 0.0129 0.9246
vn 0.0025 -0.3532 0.9355
vn -0.7734 0.6335 -0.0235
vn -0.8173 0.3414 -0.4642
vn -0.8418 -0.5388 -0.0325
vn 0.4057 0.8234 0.3967
vn 0.3528 -0.0094 -0.9356
vn -0.8853 -0.3754 -0.2743
vn -0.1845 -0.3243 0.9278
vn -0.8062 -0.5280 -0.2670
vn 0.4807 -0.8707 0.1043
vn -0.7281 0.4701 -0.4989
vn -0.8473 -0.1370 0.5131
vn 0.3334 0.8999 0.2811
vn -0.8538 0.0155 -0.5203
vn 0.0477 0.1067 -0.9931
vn 0.1948 -0.8977 -0.3952
vn -0.2769 0.1293 0.9521
vn -0.3094 -0.2582 0.9152
vn -0.8451 -0.2458 0.4747
vn 0.0223 0.0915 -0.9956
vn 0.6184 0.4794 -0.6228
vn -0.1444 -0.9744 -0.1725
vn 0.0025 -0.3532 0.9355
vn -0.8515 0.2798 -0.4435
vn -0.7291 0.6828 -0.0466
vn -0.2818 -0.9330 -0.2239
vn -0.8401 -0.1376 0.5247
vn -0.8882 -0.4584 0.0312
vn -0.9116 0.1870 -0.3662
vn -0.8136 0.5651 -0.1369
vn -0.8516 -0.1367 0.5060
vn 0.3334 0.8999 0.2811
vn -0.3374 -0.1422 0.9306
vn -0.9655 -0.1096 -0.2364
vn -0.1444 -0.9744 -0.1725
vn -0.9521 0.1091 0.2856
vn -0.1762 -0.3904 0.9036
vn -0.4696 -0.8375 -0.2793
vn -0.8899 -0.4531 0.0539
vn 0.2114 -0.3593 0.9090
vn -0.3494 -0.2825 0.8934
vn -0.2644 0.4870 0.8324
vn -0.9586 -0.1650 0.2322
vn 0.0929 -0.1114 -0.9894
vn -0.8015 0.1252 -0.5848
vn -0.9179 -0.3564 -0.1747
vn -0.4286 -0.2265 -0.8746
vn 0.1948 -0.8977 -0.3952
vn -0.4587 0.1057 -0.8823
vn 0.0500 0.0890 -0.9948
vn -0.9141 -0.0078 -0.4054
vn -0.4137 -0.1168 0.9029
vn -0.8972 -0.4326 -0.0882
vn -0.9046 0.3039 0.2990
vn -0.8418 -0.5388 -0.0325
vn -0.3600 -0.6489 -0.6703
vn -0.6831 0.7103 -0.1696
vn -0.3458 -0.0523 0.9369
vn -0.9757 0.0674 -0.2086
vn -0.0113 0.9817 0.1900
vn -0.0856 0.4201 0.9035
vn -0.2433 -0.9683 -0.0566
vn 0.6932 -0.7206 -0.0114
vn -0.3912 0.0038 0.9203
vn 0.0631 0.9655 0.2526
vn -0.0856 0.4201 0.9035
vn 0.8443 0.3423 0.4123
vn -0.3168 0.9148 0.2504
vn -0.4587 0.1057 -0.8823
vn 0.1943 0.3623 -0.9116
vn -0.9773 0.0106 0.2117
vn -0.2769 0.1293 0.9521
vn -0.3168 0.9148 0.2504
vn -0.1886 -0.4233 0.8861
vn -0.9810 0.0076 0.1939
vn -0.6496 0.1911 -0.7359
vn 0.2961 0.7651 0.5718
vn -0.3405 0.0467 0.9391
vn -0.0605 0.9872 0.1475
vn -0.7363 0.6720 0.0794
vn -0.8173 0.3414 -0.4642
vn -0.0027 0.1191 -0.9929
vn -0.9760 0.0663 -0.2076
vn -0.1595 0.9854 0.0594
vn -0.7363 0.6720 0.0794
vn 0.0405 -0.0316 -0.9987
vn -0.9281 -0.3279 -0.1766
vn -0.9291 -0.2871 0.2329
vn -0.9046 0.3039 0.2990
vn -0.2227 0.1676 0.9604
vn -0.9027 -0.3279 0.2784
vn -0.9046 0.3039 0.2990
vn 0.1406 0.3016 -0.9430
vn -0.9718 -0.1018 0.2125
vn 0.1491 -0.0608 -0.9869
vn -0.9673 -0.1123 -0.2272
vn -0.8824 -0.4684 -0.0441
vn 0.1675 -0.4941 0.8531
vn 0.5297 -0.4225 0.7355
vn 0.2039 -0.4773 0.8548
vn 0.0000 1.0000 0.0000
vn 0.0000 1.0000 0.0000
vn 0.0000 1.0000 0.0000
vn 0.0000 1.0000 0.0000
vn 0.0000 1.0000 0.0000
vn 0.0000 1.0000 0.0000
vn 0.0000 1.0000 0.0000
vn 0.0000 1.0000 0.0000
vn 0.0000 1.0000 0.0000
vn 0.0000 1.0000 0.0000
vn 0.0000 1.0000 0.0000
vn 0.0000 1.0000 0.0000
vn 0.0000 1.0000 0.0000
vn 0.0000 1.0000 0.0000
vn 0.0000 1.0000 0.0000
vn 0.0000 1.0000 0.0000
vn 0.0000 1.0000 0.0000
vn 0.0000 1.0000 0.0000
vn 0.0000 1.0000 0.0000
vn 0.0000 1.0000 0.0000
vn 0.0000 1.0000 0.0000
vn 0.0000 1.0000 0.0000
vn 0.0000 1.0000 0.0000
vn 0.0000 1.0000 0.0000
vn 0.0000 1.0000 0.0000
vn 0.0000 1.0000 0.0000
vn 0.0000 1.0000 0.0000
vn 0.0000 1.0000 0.0000
vn 0.0000 1.0000 0.0000
vn 0.0000 1.0000 0.0000
vn 0.0000 1.0000 0.0000
f 20/20/20 4/4/4 15/15/15
f 2/2/2 5/5/5 6/6/6
f 14/14/14 17/17/17 13/13/13
f 3/3/3 19/19/19 5/5/5
f 19/19/19 39/39/39 5/5/5
f 6/6/6 8/8/8 1/1/1
f 32/32/32 6/6/6 5/5/5
f 48/48/48 5/5/5 39/39/39
f 32/32/32 8/8/8 6/6/6
f 48/48/48 32/32/32 5/5/5
f 37/37/37 18/18/18 40/40/40
f 44/44/44 20/20/20 15/15/15
f 220/220/220 244/244/244 222/222/222
f 13/13/13 12/12/12 22/22/22
f 14/14/14 13/13/13 43/43/43
f 23/23/23 16/16/16 9/9/9
f 244/244/244 250/250/250 222/222/222
f 53/53/53 29/29/29 46/46/46
f 28/28/28 25/25/25 7/7/7
f 26/26/26 30/30/30 67/67/67
f 70/70/70 33/33/33 61/61/61
f 221/221/221 223/223/223 226/226/226
f 43/43/43 13/13/13 35/35/35
f 252/252/252 227/227/227 224/224/224
f 221/221/221 231/231/231 234/234/234
f 22/22/22 35/35/35 13/13/13
f 221/221/221 226/226/226 236/236/236
f 233/233/233 255/255/255 247/247/247
f 244/244/244 220/220/220 233/233/233
f 45/45/45 38/38/38 41/41/41
f 227/227/227 252/252/252 239/239/239
f 47/47/47 42/42/42 82/82/82
f 225/225/225 253/253/253 235/235/235
f 96/96/96 50/50/50 126/126/126
f 233/233/233 247/247/247 244/244/244
f 221/221/221 236/236/236 231/231/231
f 54/54/54 58/58/58 31/31/31
f 234/234/234 231/231/231 294/294/294
f 49/49/49 65/65/65 56/56/56
f 233/233/233 268/268/268 255/255/255
f 43/43/43 35/35/35 83/83/83
f 241/241/241 246/246/246 248/248/248
f 115/115/115 80/80/80 10/10/10
f 247/247/247 255/255/255 280/280/280
f 107/107/107 112/112/112 72/72/72
f 238/238/238 251/251/251 245/245/245
f 10/10/10 80/80/80 24/24/24
f 11/11/11 27/27/27 68/68/68
f 47/47/47 82/82/82 63/63/63
f 60/60/60 57/57/57 284/284/284
f 245/245/245 254/254/254 238/238/238
f 107/107/107 148/148/148 112/112/112
f 71/71/71 59/59/59 74/74/74
f 240/240/240 275/275/275 245/245/245
f 36/36/36 132/132/132 86/86/86
f 253/253/253 225/225/225 237/237/237
f 10/10/10 66/66/66 115/115/115
f 96/96/96 126/126/126 102/102/102
f 254/254/254 245/245/245 275/275/275
f 78/78/78 73/73/73 75/75/75
f 108/108/108 73/73/73 78/78/78
f 235/235/235 274/274/274 229/229/229
f 128/128/128 52/52/52 106/106/106
f 131/131/131 137/137/137 81/81/81
f 274/274/274 235/235/235 253/253/253
f 57/57/57 89/89/89 284/284/284
f 76/76/76 74/74/74 283/283/283
f 271/271/271 281/281/281 256/256/256
f 74/74/74 59/59/59 283/283/283
f 249/249/249 278/278/278 260/260/260
f 63/63/63 82/82/82 92/92/92
f 95/95/95 101/101/101 103/103/103
f 259/259/259 262/262/262 289/289/289
f 289/289/289 262/262/262 269/269/269
f 79/79/79 162/162/162 109/109/109
f 34/34/34 153/153/153 129/129/129
f 228/228/228 273/273/273 276/276/276
f 51/51/51 97/97/97 104/104/104
f 261/261/261 279/279/279 265/265/265
f 90/90/90 259/259/259 286/286/286
f 114/114/114 117/117/117 69/69/69
f 100/100/100 175/175/175 136/136/136
f 109/109/109 162/162/162 149/149/149
f 102/102/102 126/126/126 124/124/124
f 119/119/119 103/103/103 101/101/101
f 257/257/257 288/288/288 398/398/398
f 77/77/77 287/287/287 332/332/332
f 230/230/230 277/277/277 291/291/291
f 267/267/267 232/232/232 321/321/321
f 321/321/321 232/232/232 292/292/292
f 55/55/55 64/64/64 87/87/87
f 296/296/296 257/257/257 398/398/398
f 125/125/125 127/127/127 105/105/105
f 270/270/270 329/329/329 290/290/290
f 293/293/293 230/230/230 291/291/291
f 331/331/331 282/282/282 295/295/295
f 91/91/91 34/34/34 21/21/21
f 405/405/405 94/94/94 85/85/85
f 135/135/135 130/130/130 154/154/154
f 429/429/429 307/307/307 301/301/301
f 258/258/258 297/297/297 285/285/285
f 263/263/263 241/241/241 248/248/248
f 264/264/264 319/319/319 242/242/242
f 91/91/91 157/157/157 34/34/34
f 34/34/34 157/157/157 153/153/153
f 259/259/259 370/370/370 262/262/262
f 304/304/304 300/300/300 306/306/306
f 371/371/371 319/319/319 264/264/264
f 63/63/63 92/92/92 773/773/773
f 148/148/148 146/146/146 112/112/112
f 90/90/90 370/370/370 259/259/259
f 305/305/305 314/314/314 303/303/303
f 62/62/62 774/774/774 88/88/88
f 149/149/149 162/162/162 152/152/152
f 399/399/399 290/290/290 329/329/329
f 273/273/273 309/309/309 276/276/276
f 99/99/99 120/120/120 174/174/174
f 299/299/299 313/313/313 428/428/428
f 293/293/293 291/291/291 322/322/322
f 307/307/307 429/429/429 316/316/316
f 317/317/317 353/353/353 243/243/243
f 84/84/84 134/134/134 404/404/404
f 240/240/240 352/352/352 275/275/275
f 266/266/266 320/320/320 327/327/327
f 311/311/311 291/291/291 277/277/277
f 77/77/77 332/332/332 140/140/140
f 98/98/98 133/133/133 118/118/118
f 325/325/325 375/375/375 378/378/378
f 375/375/375 304/304/304 378/378/378
f 138/138/138 155/155/155 122/122/122
f 370/370/370 90/90/90 361/361/361
f 144/144/144 147/147/147 150/150/150
f 173/173/173 188/188/188 158/158/158
f 344/344/344 402/402/402 330/330/330
f 141/141/141 333/333/333 298/298/298
f 318/318/318 368/368/368 380/380/380
f 304/304/304 375/375/375 300/300/300
f 123/123/123 156/156/156 160/160/160
f 141/141/141 298/298/298 400/400/400
f 308/308/308 272/272/272 351/351/351
f 88/88/88 774/774/774 359/359/359
f 775/775/775 93/93/93 339/339/339
f 405/405/405 340/340/340 94/94/94
f 409/409/409 342/342/342 328/328/328
f 346/346/346 291/291/291 311/311/311
f 159/159/159 187/187/187 121/121/121
f 77/77/77 140/140/140 161/161/161
f 354/354/354 345/345/345 310/310/310
f 144/144/144 150/150/150 163/163/163
f 291/291/291 346/346/346 322/322/322
f 318/318/318 380/380/380 355/355/355
f 360/360/360 366/366/366 369/369/369
f 324/324/324 373/373/373 374/374/374
f 177/177/177 121/121/121 189/189/189
f 313/313/313 299/299/299 374/374/374
f 302/302/302 434/434/434 377/377/377
f 772/772/772 336/336/336 379/379/379
f 145/145/145 164/164/164 111/111/111
f 358/358/358 382/382/382 383/383/383
f 165/165/165 161/161/161 140/140/140
f 116/116/116 110/110/110 167/167/167
f 373/373/373 313/313/313 374/374/374
f 341/341/341 406/406/406 386/386/386
f 369/369/369 366/366/366 381/381/381
f 323/323/323 376/376/376 430/430/430
f 161/161/161 165/165/165 151/151/151
f 382/382/382 419/419/419 383/383/383
f 350/350/350 426/426/426 447/447/447
f 314/314/314 438/438/438 303/303/303
f 324/324/324 442/442/442 469/469/469
f 387/387/387 444/444/444 356/356/356
f 444/444/444 421/421/421 356/356/356
f 167/167/167 171/171/171 116/116/116
f 187/187/187 189/189/189 121/121/121
f 320/320/320 422/422/422 327/327/327
f 346/346/346 411/411/411 322/322/322
f 342/342/342 409/409/409 181/181/181
f 354/354/354 420/420/420 345/345/345
f 326/326/326 433/433/433 391/391/391
f 396/396/396 348/348/348 446/446/446
f 320/320/320 410/410/410 422/422/422
f 347/347/347 393/393/393 414/414/414
f 328/328/328 424/424/424 409/409/409
f 143/143/143 401/401/401 186/186/186
f 343/343/343 184/184/184 397/397/397
f 185/185/185 166/166/166 142/142/142
f 175/175/175 191/191/191 136/136/136
f 545/545/545 384/384/384 403/403/403
f 407/407/407 423/423/423 412/412/412
f 391/391/391 443/443/443 326/326/326
f 774/774/774 362/362/362 359/359/359
f 381/381/381 366/366/366 418/418/418
f 451/451/451 407/407/407 412/412/412
f 425/425/425 349/349/349 416/416/416
f 335/335/335 385/385/385 547/547/547
f 315/315/315 427/427/427 312/312/312
f 389/389/389 357/357/357 383/383/383
f 431/431/431 438/438/438 461/461/461
f 404/404/404 134/134/134 546/546/546
f 435/435/435 408/408/408 452/452/452
f 312/312/312 439/439/439 315/315/315
f 521/521/521 445/445/445 388/388/388
f 443/443/443 486/486/486 395/395/395
f 435/435/435 179/179/179 408/408/408
f 443/443/443 391/391/391 486/486/486
f 113/113/113 194/194/194 168/168/168
f 111/111/111 164/164/164 196/196/196
f 172/172/172 169/169/169 197/197/197
f 438/438/438 431/431/431 303/303/303
f 450/450/450 414/414/414 393/393/393
f 196/196/196 164/164/164 183/183/183
f 415/415/415 436/436/436 453/453/453
f 543/543/543 454/454/454 334/334/334
f 419/419/419 483/483/483 383/383/383
f 459/459/459 775/775/775 338/338/338
f 390/390/390 432/432/432 463/463/463
f 392/392/392 464/464/464 448/448/448
f 483/483/483 389/389/389 383/383/383
f 470/470/470 441/441/441 532/532/532
f 560/560/560 546/546/546 134/134/134
f 564/564/564 139/139/139 193/193/193
f 372/372/372 462/462/462 312/312/312
f 192/192/192 176/176/176 200/200/200
f 312/312/312 462/462/462 439/439/439
f 170/170/170 199/199/199 201/201/201
f 472/472/472 413/413/413 449/449/449
f 388/388/388 511/511/511 521/521/521
f 474/474/474 550/550/550 540/540/540
f 479/479/479 482/482/482 417/417/417
f 417/417/417 365/365/365 479/479/479
f 413/413/413 472/472/472 498/498/498
f 459/459/459 364/364/364 775/775/775
f 572/572/572 389/389/389 483/483/483
f 182/182/182 585/585/585 195/195/195
f 389/389/389 572/572/572 512/512/512
f 469/469/469 373/373/373 324/324/324
f 440/440/440 520/520/520 530/530/530
f 481/481/481 478/478/478 570/570/570
f 437/437/437 587/587/587 180/180/180
f 529/529/529 485/485/485 390/390/390
f 541/541/541 578/578/578 476/476/476
f 205/205/205 208/208/208 178/178/178
f 468/468/468 462/462/462 372/372/372
f 487/487/487 578/578/578 541/541/541
f 484/484/484 566/566/566 394/394/394
f 524/524/524 527/527/527 490/490/490
f 463/463/463 529/529/529 390/390/390
f 475/475/475 491/491/491 551/551/551
f 455/455/455 548/548/548 494/494/494
f 613/613/613 501/501/501 467/467/467
f 448/448/448 464/464/464 471/471/471
f 415/415/415 500/500/500 436/436/436
f 490/490/490 578/578/578 487/487/487
f 499/499/499 473/473/473 465/465/465
f 367/367/367 514/514/514 477/477/477
f 569/569/569 504/504/504 510/510/510
f 566/566/566 466/466/466 394/394/394
f 480/480/480 519/519/519 742/742/742
f 490/490/490 527/527/527 578/578/578
f 529/529/529 568/568/568 485/485/485
f 522/522/522 489/489/489 531/531/531
f 521/521/521 511/511/511 505/505/505
f 533/533/533 611/611/611 468/468/468
f 466/466/466 566/566/566 610/610/610
f 211/211/211 216/216/216 209/209/209
f 487/487/487 649/649/649 490/490/490
f 536/536/536 526/526/526 523/523/523
f 478/478/478 737/737/737 570/570/570
f 627/627/627 493/493/493 544/544/544
f 528/528/528 462/462/462 468/468/468
f 490/490/490 649/649/649 534/534/534
f 457/457/457 495/495/495 634/634/634
f 507/507/507 537/537/537 525/525/525
f 539/539/539 488/488/488 542/542/542
f 633/633/633 549/549/549 565/565/565
f 553/553/553 539/539/539 542/542/542
f 509/509/509 571/571/571 554/554/554
f 595/595/595 590/590/590 607/607/607
f 437/437/437 557/557/557 587/587/587
f 631/631/631 562/562/562 599/599/599
f 528/528/528 468/468/468 567/567/567
f 554/554/554 571/571/571 738/738/738
f 534/534/534 649/649/649 625/625/625
f 506/506/506 696/696/696 573/573/573
f 526/526/526 536/536/536 765/765/765
f 575/575/575 670/670/670 496/496/496
f 491/491/491 475/475/475 577/577/577
f 591/591/591 685/685/685 581/581/581
f 215/215/215 210/210/210 563/563/563
f 611/611/611 567/567/567 468/468/468
f 458/458/458 582/582/582 516/516/516
f 534/534/534 625/625/625 612/612/612
f 502/502/502 615/615/615 576/576/576
f 338/338/338 630/630/630 459/459/459
f 586/586/586 206/206/206 198/198/198
f 647/647/647 607/607/607 590/590/590
f 647/647/647 660/660/660 607/607/607
f 202/202/202 588/588/588 558/558/558
f 561/561/561 190/190/190 214/214/214
f 693/693/693 535/535/535 503/503/503
f 337/337/337 456/456/456 632/632/632
f 579/579/579 655/655/655 589/589/589
f 604/604/604 583/583/583 460/460/460
f 616/616/616 624/624/624 622/622/622
f 598/598/598 635/635/635 628/628/628
f 563/563/563 210/210/210 600/600/600
f 592/592/592 202/202/202 558/558/558
f 685/685/685 591/591/591 597/597/597
f 609/609/609 751/751/751 574/574/574
f 458/458/458 516/516/516 363/363/363
f 213/213/213 638/638/638 601/601/601
f 647/647/647 509/509/509 660/660/660
f 630/630/630 603/603/603 459/459/459
f 751/751/751 669/669/669 574/574/574
f 538/538/538 552/552/552 492/492/492
f 605/605/605 596/596/596 608/608/608
f 650/650/650 488/488/488 539/539/539
f 621/621/621 752/752/752 614/614/614
f 652/652/652 617/617/617 623/623/623
f 554/554/554 660/660/660 509/509/509
f 602/602/602 629/629/629 636/636/636
f 209/209/209 204/204/204 211/211/211
f 526/526/526 765/765/765 577/577/577
f 211/211/211 204/204/204 705/705/705
f 584/584/584 715/715/715 517/517/517
f 500/500/500 731/731/731 436/436/436
f 636/636/636 711/711/711 602/602/602
f 637/637/637 212/212/212 219/219/219
f 640/640/640 731/731/731 500/500/500
f 589/589/589 655/655/655 646/646/646
f 651/651/651 690/690/690 654/654/654
f 707/707/707 207/207/207 688/688/688
f 646/646/646 770/770/770 508/508/508
f 583/583/583 604/604/604 713/713/713
f 705/705/705 218/218/218 211/211/211
f 665/665/665 203/203/203 594/594/594
f 596/596/596 605/605/605 683/683/683
f 673/673/673 515/515/515 703/703/703
f 580/580/580 606/606/606 656/656/656
f 637/637/637 659/659/659 712/712/712
f 661/661/661 662/662/662 608/608/608
f 559/559/559 664/664/664 593/593/593
f 641/641/641 497/497/497 668/668/668
f 674/674/674 680/680/680 518/518/518
f 651/651/651 654/654/654 626/626/626
f 577/577/577 765/765/765 491/491/491
f 655/655/655 681/681/681 646/646/646
f 648/648/648 723/723/723 691/691/691
f 714/714/714 703/703/703 515/515/515
f 580/580/580 684/684/684 606/606/606
f 557/557/557 437/437/437 732/732/732
f 665/665/665 686/686/686 203/203/203
f 672/672/672 698/698/698 676/676/676
f 726/726/726 653/653/653 689/689/689
f 557/557/557 732/732/732 700/700/700
f 694/694/694 645/645/645 671/671/671
f 722/722/722 650/650/650 539/539/539
f 538/538/538 492/492/492 728/728/728
f 689/689/689 720/720/720 726/726/726
f 695/695/695 757/757/757 639/639/639
f 667/667/667 747/747/747 692/692/692
f 620/620/620 653/653/653 726/726/726
f 687/687/687 702/702/702 706/706/706
f 661/661/661 708/708/708 662/662/662
f 732/732/732 677/677/677 700/700/700
f 724/724/724 744/744/744 619/619/619
f 710/710/710 657/657/657 697/697/697
f 637/637/637 219/219/219 659/659/659
f 695/695/695 508/508/508 770/770/770
f 717/717/717 765/765/765 536/536/536
f 217/217/217 704/704/704 699/699/699
f 719/719/719 761/761/761 725/725/725
f 728/728/728 721/721/721 538/538/538
f 491/491/491 765/765/765 727/727/727
f 679/679/679 730/730/730 644/644/644
f 739/739/739 513/513/513 675/675/675
f 664/664/664 559/559/559 701/701/701
f 666/666/666 702/702/702 687/687/687
f 693/693/693 716/716/716 535/535/535
f 606/606/606 682/682/682 656/656/656
f 736/736/736 556/556/556 741/741/741
f 748/748/748 618/618/618 743/743/743
f 605/605/605 608/608/608 662/662/662
f 643/643/643 756/756/756 678/678/678
f 217/217/217 699/699/699 658/658/658
f 757/757/757 695/695/695 770/770/770
f 745/745/745 725/725/725 768/768/768
f 663/663/663 682/682/682 606/606/606
f 753/753/753 739/739/739 675/675/675
f 749/749/749 716/716/716 693/693/693
f 754/754/754 735/735/735 740/740/740
f 681/681/681 770/770/770 646/646/646
f 642/642/642 760/760/760 755/755/755
f 725/725/725 761/761/761 768/768/768
f 762/762/762 721/721/721 728/728/728
f 767/767/767 764/764/764 729/729/729
f 766/766/766 718/718/718 763/763/763
f 763/763/763 718/718/718 769/769/769
f 718/718/718 750/750/750 746/746/746
f 769/769/769 718/718/718 746/746/746
f 735/735/735 754/754/754 759/759/759
f 682/682/682 709/709/709 771/771/771
f 555/555/555 708/708/708 661/661/661
f 758/758/758 771/771/771 734/734/734
f 682/682/682 663/663/663 709/709/709
f 708/708/708 555/555/555 733/733/733
f 709/709/709 734/734/734 771/771/771
f 776/776/776 777/777/777 778/778/778
f 776/776/776 778/778/778 777/777/777
f 776/776/776 778/778/778 779/779/779
f 776/776/776 779/779/779 778/778/778
f 776/776/776 779/779/779 780/780/780
f 776/776/776 780/780/780 779/779/779
f 776/776/776 780/780/780 781/781/781
f 776/776/776 781/781/781 780/780/780
f 776/776/776 781/781/781 782/782/782
f 776/776/776 782/782/782 781/781/781
f 776/776/776 782/782/782 783/783/783
f 776/776/776 783/783/783 782/782/782
f 776/776/776 783/783/783 784/784/784
f 776/776/776 784/784/784 783/783/783
f 776/776/776 784/784/784 785/785/785
f 776/776/776 785/785/785 784/784/784
f 776/776/776 785/785/785 786/786/786
f 776/776/776 786/786/786 785/785/785
f 776/776/776 786/786/786 787/787/787
f 776/776/776 787/787/787 786/786/786
f 776/776/776 787/787/787 788/788/788
f 776/776/776 788/788/788 787/787/787
f 776/776/776 788/788/788 789/789/789
f 776/776/776 789/789/789 788/788/788
f 776/776/776 789/789/789 790/790/790
f 776/776/776 790/790/790 789/789/789
f 776/776/776 790/790/790 791/791/791
f 776/776/776 791/791/791 790/790/790
f 776/776/776 791/791/791 792/792/792
f 776/776/776 792/792/792 791/791/791
f 776/776/776 792/792/792 793/793/793
f 776/776/776 793/793/793 792/792/792
f 776/776/776 793/793/793 794/794/794
f 776/776/776 794/794/794 793/793/793
f 776/776/776 794/794/794 795/795/795
f 776/776/776 795/795/795 794/794/794
f 776/776/776 795/795/795 796/796/796
f 776/776/776 796/796/796 795/795/795
f 776/776/776 796/796/796 797/797/797
f 776/776/776 797/797/797 796/796/796
f 776/776/776 797/797/797 798/798/798
f 776/776/776 798/798/798 797/797/797
f 776/776/776 798/798/798 799/799/799
f 776/776/776 799/799/799 798/798/798
f 776/776/776 799/799/799 800/800/800
f 776/776/776 800/800/800 799/799/799
f 776/776/776 800/800/800 801/801/801
f 776/776/776 801/801/801 800/800/800
f 776/776/776 801/801/801 802/802/802
f 776/776/776 802/802/802 801/801/801
f 776/776/776 802/802/802 803/803/803
f 776/776/776 803/803/803 802/802/802
f 776/776/776 803/803/803 804/804/804
f 776/776/776 804/804/804 803/803/803
f 776/776/776 804/804/804 805/805/805
f 776/776/776 805/805/805 804/804/804
f 776/776/776 805/805/805 806/806/806
f 776/776/776 806/806/806 805/805/805
f 776/776/776 806/806/806 777/777/777
f 776/776/776 777/777/777 806/806/806
