o tail_1
v 0.27280 1.73662 0.67280
v 0.27280 1.73662 0.67280
v 0.27280 1.73662 0.67280
v 0.27280 1.73662 0.67280
v 0.07365 1.88411 0.62793
v 0.54181 1.49432 0.66279
v 0.54181 1.49432 0.66279
v 0.54181 1.49432 0.66279
v 0.51191 1.47101 0.58897
v 0.51191 1.47101 0.58897
v 0.51191 1.47101 0.58897
v 0.53576 1.42546 0.56297
v 0.53576 1.42546 0.56297
v 0.53576 1.42546 0.56297
v 0.53576 1.42546 0.56297
v 0.53576 1.42546 0.56297
v 0.53576 1.42546 0.56297
v 0.48456 1.49629 0.57174
v 0.48456 1.49629 0.57174
v 0.48456 1.49629 0.57174
v 0.51589 1.46915 0.63074
v 0.51589 1.46915 0.63074
v 0.51589 1.46915 0.63074
v 0.48318 1.49814 0.62545
v 0.48318 1.49814 0.62545
v 0.48318 1.49814 0.62545
v 0.46225 1.53381 0.59926
v 0.46225 1.53381 0.59926
v 0.46225 1.53381 0.59926
v 0.40410 1.47765 0.61538
v 0.40410 1.47765 0.61538
v 0.40410 1.47765 0.61538
v 0.40410 1.47765 0.61538
v 0.40410 1.47765 0.61538
v 0.40410 1.47765 0.61538
v 0.40410 1.47765 0.61538
v 0.40410 1.47765 0.61538
v 0.40410 1.47765 0.61538
v 0.44320 1.42652 0.64007
v 0.44320 1.42652 0.64007
v 0.46423 1.63681 0.55547
v 0.46423 1.63681 0.55547
v 0.46423 1.63681 0.55547
v 0.43068 1.58008 0.50102
v 0.43068 1.58008 0.50102
v 0.43068 1.58008 0.50102
v 0.42691 1.58919 0.58499
v 0.42691 1.58919 0.58499
v 0.42691 1.58919 0.58499
v 0.42691 1.58919 0.58499
v 0.42691 1.58919 0.58499
v 0.42691 1.58919 0.58499
v 0.43444 1.48469 0.49944
v 0.43444 1.48469 0.49944
v 0.43444 1.48469 0.49944
v 0.43444 1.48469 0.49944
v 0.43444 1.48469 0.49944
v 0.43444 1.48469 0.49944
v 0.40802 1.74868 0.60139
v 0.40802 1.74868 0.60139
v 0.40802 1.74868 0.60139
v 0.40802 1.74868 0.60139
v 0.47008 1.62813 0.62818
v 0.47008 1.62813 0.62818
v 0.47008 1.62813 0.62818
v 0.46393 1.53289 0.50859
v 0.46393 1.53289 0.50859
v 0.46393 1.53289 0.50859
v 0.46393 1.53289 0.50859
v 0.46393 1.53289 0.50859
v 0.40983 1.74469 0.52701
v 0.40983 1.74469 0.52701
v 0.40983 1.74469 0.52701
v 0.43479 1.69132 0.51687
v 0.43479 1.69132 0.51687
v 0.43479 1.69132 0.51687
v 0.40816 1.67374 0.51091
v 0.40816 1.67374 0.51091
v 0.40816 1.67374 0.51091
v 0.40816 1.67374 0.51091
v 0.40816 1.67374 0.51091
v 0.40816 1.67374 0.51091
v 0.44270 1.49515 0.45471
v 0.44270 1.49515 0.45471
v 0.44270 1.49515 0.45471
v 0.40033 1.56705 0.63219
v 0.40033 1.56705 0.63219
v 0.40033 1.56705 0.63219
v 0.40033 1.56705 0.63219
v 0.40033 1.56705 0.63219
v 0.42274 1.51486 0.68111
v 0.42274 1.51486 0.68111
v 0.42274 1.51486 0.68111
v 0.42920 1.51152 0.63281
v 0.42920 1.51152 0.63281
v 0.42920 1.51152 0.63281
v 0.38059 1.55044 0.60181
v 0.38059 1.55044 0.60181
v 0.38059 1.55044 0.60181
v 0.38378 1.58851 0.47526
v 0.38378 1.58851 0.47526
v 0.38378 1.58851 0.47526
v 0.38378 1.58851 0.47526
v 0.41449 1.43455 0.53741
v 0.41449 1.43455 0.53741
v 0.41449 1.43455 0.53741
v 0.42896 1.47777 0.55610
v 0.42896 1.47777 0.55610
v 0.42896 1.47777 0.55610
v 0.42896 1.47777 0.55610
v 0.38978 1.48027 0.55624
v 0.38978 1.48027 0.55624
v 0.38978 1.48027 0.55624
v 0.38368 1.47992 0.49845
v 0.38368 1.47992 0.49845
v 0.38368 1.47992 0.49845
v 0.38368 1.47992 0.49845
v 0.33559 1.64306 0.61291
v 0.33559 1.64306 0.61291
v 0.33559 1.64306 0.61291
v 0.42092 1.44034 0.44482
v 0.42092 1.44034 0.44482
v 0.42092 1.44034 0.44482
v 0.42092 1.44034 0.44482
v 0.33263 1.39060 0.42418
v 0.33263 1.39060 0.42418
v 0.33263 1.39060 0.42418
v 0.33263 1.39060 0.42418
v 0.39506 1.39690 0.74877
v 0.39506 1.39690 0.74877
v 0.39506 1.39690 0.74877
v 0.32828 1.58863 0.38555
v 0.42151 1.42377 0.69020
v 0.42151 1.42377 0.69020
v 0.42151 1.42377 0.69020
v 0.42151 1.42377 0.69020
v 0.42151 1.42377 0.69020
v 0.38056 1.71982 0.52494
v 0.38056 1.71982 0.52494
v 0.38056 1.71982 0.52494
v 0.38998 1.63543 0.46755
v 0.38998 1.63543 0.46755
v 0.30270 1.35987 0.46647
v 0.30270 1.35987 0.46647
v 0.30270 1.35987 0.46647
v 0.30270 1.35987 0.46647
v 0.30270 1.35987 0.46647
v 0.33715 1.58322 0.67479
v 0.34578 1.63265 0.39956
v 0.34578 1.63265 0.39956
v 0.34578 1.63265 0.39956
v 0.34578 1.63265 0.39956
v 0.31377 1.73603 0.49452
v 0.31377 1.73603 0.49452
v 0.31377 1.73603 0.49452
v 0.33966 1.33298 0.70070
v 0.33966 1.33298 0.70070
v 0.33966 1.33298 0.70070
v 0.33966 1.33298 0.70070
v 0.33966 1.33298 0.70070
v 0.33966 1.33298 0.70070
v 0.33966 1.33298 0.70070
v 0.33966 1.33298 0.70070
v 0.34909 1.74688 0.50250
v 0.34909 1.74688 0.50250
v 0.34909 1.74688 0.50250
v 0.38255 1.72117 0.56715
v 0.38255 1.72117 0.56715
v 0.38255 1.72117 0.56715
v 0.32006 1.74041 0.54365
v 0.32006 1.74041 0.54365
v 0.33341 1.63971 0.58103
v 0.33341 1.63971 0.58103
v 0.33341 1.63971 0.58103
v 0.35492 1.75280 0.55827
v 0.35492 1.75280 0.55827
v 0.35492 1.75280 0.55827
v 0.37504 1.47472 0.69502
v 0.37504 1.47472 0.69502
v 0.37504 1.47472 0.69502
v 0.37504 1.47472 0.69502
v 0.37504 1.47472 0.69502
v 0.37504 1.47472 0.69502
v 0.33135 1.62111 0.47958
v 0.33135 1.62111 0.47958
v 0.27440 1.40701 0.73690
v 0.27440 1.40701 0.73690
v 0.27440 1.40701 0.73690
v 0.27440 1.40701 0.73690
v 0.27440 1.40701 0.73690
v 0.35711 1.47176 0.73851
v 0.35711 1.47176 0.73851
v 0.35711 1.47176 0.73851
v 0.31576 1.32423 0.74519
v 0.31576 1.32423 0.74519
v 0.31576 1.32423 0.74519
v 0.31576 1.32423 0.74519
v 0.28936 1.68400 0.51079
v 0.28936 1.68400 0.51079
v 0.29788 1.40915 0.69034
v 0.29788 1.40915 0.69034
v 0.29743 1.41211 0.49856
v 0.29743 1.41211 0.49856
v 0.29743 1.41211 0.49856
v 0.29572 1.57141 0.39134
v 0.31553 1.74965 0.55660
v 0.28079 1.70862 0.55367
v 0.28079 1.70862 0.55367
v 0.28079 1.70862 0.55367
v 0.28624 1.69966 0.62103
v 0.28624 1.69966 0.62103
v 0.28624 1.69966 0.62103
v 0.28624 1.69966 0.62103
v 0.28624 1.69966 0.62103
v 0.28624 1.69966 0.62103
v 0.28624 1.69966 0.62103
v 0.28890 1.79185 0.53694
v 0.31308 1.75171 0.60680
v 0.31308 1.75171 0.60680
v 0.28028 1.33810 0.48292
v 0.28028 1.33810 0.48292
v 0.28028 1.33810 0.48292
v 0.28028 1.33810 0.48292
v 0.28028 1.33810 0.48292
v 0.28028 1.33810 0.48292
v 0.28028 1.33810 0.48292
v 0.28028 1.33810 0.48292
v 0.28028 1.33810 0.48292
v 0.28105 1.36277 0.53347
v 0.28105 1.36277 0.53347
v 0.28105 1.36277 0.53347
v 0.28105 1.36277 0.53347
v 0.28105 1.36277 0.53347
v 0.24648 1.33002 0.61906
v 0.24648 1.33002 0.61906
v 0.29291 1.56971 0.66369
v 0.27624 1.34018 0.42203
v 0.27624 1.34018 0.42203
v 0.27624 1.34018 0.42203
v 0.27624 1.34018 0.42203
v 0.21385 1.34321 0.49059
v 0.21385 1.34321 0.49059
v 0.18630 1.39060 0.41405
v 0.18630 1.39060 0.41405
v 0.18630 1.39060 0.41405
v 0.16966 1.62860 0.67356
v 0.16966 1.62860 0.67356
v 0.16966 1.62860 0.67356
v 0.25195 1.69131 0.67313
v 0.25195 1.69131 0.67313
v 0.25195 1.69131 0.67313
v 0.25195 1.69131 0.67313
v 0.25195 1.69131 0.67313
v 0.25195 1.69131 0.67313
v 0.25195 1.69131 0.67313
v 0.16869 1.93538 0.56701
v 0.16869 1.93538 0.56701
v 0.21947 1.67694 0.39190
v 0.22078 1.38140 0.61662
v 0.22078 1.38140 0.61662
v 0.22078 1.38140 0.61662
v 0.25080 1.52601 0.67065
v 0.25080 1.52601 0.67065
v 0.19735 1.49934 0.48360
v 0.15294 1.56490 0.49919
v 0.26634 1.32745 0.55348
v 0.26634 1.32745 0.55348
v 0.26634 1.32745 0.55348
v 0.26634 1.32745 0.55348
v 0.26634 1.32745 0.55348
v 0.18190 1.46035 0.68599
v 0.18190 1.46035 0.68599
v 0.18190 1.46035 0.68599
v 0.16514 1.49321 0.38894
v 0.16514 1.49321 0.38894
v 0.23788 1.34423 0.69141
v 0.23788 1.34423 0.69141
v 0.23788 1.34423 0.69141
v 0.23788 1.34423 0.69141
v 0.23788 1.34423 0.69141
v 0.21709 1.41231 0.38956
v 0.21709 1.41231 0.38956
v 0.21709 1.41231 0.38956
v 0.21709 1.41231 0.38956
v 0.19804 1.61688 0.61234
v 0.19804 1.61688 0.61234
v 0.19804 1.61688 0.61234
v 0.19804 1.61688 0.61234
v 0.19804 1.61688 0.61234
v 0.21935 1.69543 0.62359
v 0.21935 1.69543 0.62359
v 0.21935 1.69543 0.62359
v 0.21935 1.69543 0.62359
v 0.21935 1.69543 0.62359
v 0.21935 1.69543 0.62359
v 0.21935 1.69543 0.62359
v 0.18550 1.35053 0.57388
v 0.18550 1.35053 0.57388
v 0.18550 1.35053 0.57388
v 0.18550 1.35053 0.57388
v 0.16470 1.60393 0.63479
v 0.16470 1.60393 0.63479
v 0.16470 1.60393 0.63479
v 0.16470 1.60393 0.63479
v 0.16470 1.60393 0.63479
v 0.13028 1.61601 0.58976
v 0.13028 1.61601 0.58976
v 0.13028 1.61601 0.58976
v 0.14875 1.33782 0.63262
v 0.14875 1.33782 0.63262
v 0.14875 1.33782 0.63262
v 0.13075 1.47488 0.42139
v 0.15892 1.41297 0.47494
v 0.15892 1.41297 0.47494
v 0.15250 1.50344 0.55758
v 0.15250 1.50344 0.55758
v 0.15250 1.50344 0.55758
v 0.18070 1.38358 0.47615
v 0.18070 1.38358 0.47615
v 0.18070 1.38358 0.47615
v 0.18070 1.38358 0.47615
v 0.18070 1.38358 0.47615
v 0.18070 1.38358 0.47615
v 0.18070 1.38358 0.47615
v 0.18070 1.38358 0.47615
v 0.17376 1.66847 0.67712
v 0.17376 1.66847 0.67712
v 0.11865 1.38509 0.48110
v 0.11865 1.38509 0.48110
v 0.14369 1.33201 0.51289
v 0.14369 1.33201 0.51289
v 0.14369 1.33201 0.51289
v 0.12079 1.55679 0.56380
v 0.12079 1.55679 0.56380
v 0.12495 1.57054 0.61953
v 0.12495 1.57054 0.61953
v 0.12495 1.57054 0.61953
v 0.09028 1.45259 0.49594
v 0.09028 1.45259 0.49594
v 0.10723 1.48006 0.54962
v 0.08824 1.46749 0.60519
v 0.08824 1.46749 0.60519
v 0.08824 1.46749 0.60519
v 0.38255 1.50346 0.52679
v 0.38255 1.50346 0.52679
v 0.38255 1.50346 0.52679
v 0.38255 1.50346 0.52679
v 0.38255 1.50346 0.52679
v 0.38255 1.50346 0.52679
v 0.35877 1.55538 0.53163
v 0.35877 1.55538 0.53163
v 0.35877 1.55538 0.53163
v 0.62632 1.29018 0.63304
v 0.62632 1.29018 0.63304
v 0.62632 1.29018 0.63304
v 0.62632 1.29018 0.63304
v 0.62477 1.23639 0.68158
v 0.62477 1.23639 0.68158
v 0.62477 1.23639 0.68158
v 0.62477 1.23639 0.68158
v 0.62477 1.23639 0.68158
v 0.62477 1.23639 0.68158
v 0.60902 1.21820 0.54278
v 0.60902 1.21820 0.54278
v 0.60902 1.21820 0.54278
v 0.60902 1.21820 0.54278
v 0.60902 1.21820 0.54278
v 0.60902 1.21820 0.54278
v 0.60902 1.21820 0.54278
v 0.60902 1.21820 0.54278
v 0.57756 1.18456 0.60306
v 0.57756 1.18456 0.60306
v 0.57756 1.18456 0.60306
v 0.58573 1.18557 0.54864
v 0.58573 1.18557 0.54864
v 0.58573 1.18557 0.54864
v 0.58573 1.18557 0.54864
v 0.58573 1.18557 0.54864
v 0.58573 1.18557 0.54864
v 0.58573 1.18557 0.54864
v 0.58573 1.18557 0.54864
v 0.62176 1.26430 0.53333
v 0.62176 1.26430 0.53333
v 0.62176 1.26430 0.53333
v 0.62176 1.26430 0.53333
v 0.52572 1.03564 0.54814
v 0.52572 1.03564 0.54814
v 0.52572 1.03564 0.54814
v 0.52572 1.03564 0.54814
v 0.52572 1.03564 0.54814
v 0.59099 1.39885 0.59946
v 0.59099 1.39885 0.59946
v 0.59099 1.39885 0.59946
v 0.54074 1.49662 0.59267
v 0.54074 1.49662 0.59267
v 0.54074 1.49662 0.59267
v 0.54074 1.49662 0.59267
v 0.60495 1.38850 0.66944
v 0.60495 1.38850 0.66944
v 0.60495 1.38850 0.66944
v 0.60495 1.38850 0.66944
v 0.57055 1.44302 0.57468
v 0.57055 1.44302 0.57468
v 0.57055 1.44302 0.57468
v 0.59114 1.25096 0.63684
v 0.59114 1.25096 0.63684
v 0.59114 1.25096 0.63684
v 0.58708 1.01223 0.57688
v 0.58708 1.01223 0.57688
v 0.58708 1.01223 0.57688
v 0.58708 1.01223 0.57688
v 0.61141 1.33416 0.57855
v 0.61141 1.33416 0.57855
v 0.61141 1.33416 0.57855
v 0.61141 1.33416 0.57855
v 0.54068 1.33153 0.56223
v 0.54068 1.33153 0.56223
v 0.54068 1.33153 0.56223
v 0.54068 1.33153 0.56223
v 0.54068 1.33153 0.56223
v 0.52150 1.30646 0.67594
v 0.52150 1.30646 0.67594
v 0.52150 1.30646 0.67594
v 0.52150 1.30646 0.67594
v 0.52150 1.30646 0.67594
v 0.52150 1.30646 0.67594
v 0.52150 1.30646 0.67594
v 0.56588 1.35406 0.62969
v 0.56588 1.35406 0.62969
v 0.56588 1.35406 0.62969
v 0.56588 1.35406 0.62969
v 0.56588 1.35406 0.62969
v 0.56588 1.35406 0.62969
v 0.56588 1.35406 0.62969
v 0.50677 0.96072 0.54370
v 0.50677 0.96072 0.54370
v 0.55997 1.08390 0.47986
v 0.55997 1.08390 0.47986
v 0.55997 1.08390 0.47986
v 0.55997 1.08390 0.47986
v 0.49056 0.95223 0.59180
v 0.49056 0.95223 0.59180
v 0.49056 0.95223 0.59180
v 0.57858 1.14545 0.48414
v 0.57858 1.14545 0.48414
v 0.57858 1.14545 0.48414
v 0.57858 1.14545 0.48414
v 0.51293 1.18294 0.50443
v 0.51293 1.18294 0.50443
v 0.51293 1.18294 0.50443
v 0.53975 1.05821 0.57615
v 0.53975 1.05821 0.57615
v 0.53975 1.05821 0.57615
v 0.53975 1.05821 0.57615
v 0.48371 1.26927 0.71656
v 0.48371 1.26927 0.71656
v 0.48371 1.26927 0.71656
v 0.48371 1.26927 0.71656
v 0.48371 1.26927 0.71656
v 0.48371 1.26927 0.71656
v 0.57875 1.20501 0.74074
v 0.57875 1.20501 0.74074
v 0.57875 1.20501 0.74074
v 0.57875 1.20501 0.74074
v 0.57875 1.20501 0.74074
v 0.57644 1.00161 0.53938
v 0.57644 1.00161 0.53938
v 0.57644 1.00161 0.53938
v 0.57644 1.00161 0.53938
v 0.57644 1.00161 0.53938
v 0.57644 1.00161 0.53938
v 0.57644 1.00161 0.53938
v 0.47391 1.32384 0.54976
v 0.47391 1.32384 0.54976
v 0.47391 1.32384 0.54976
v 0.47391 1.32384 0.54976
v 0.54478 1.23070 0.58363
v 0.54478 1.23070 0.58363
v 0.54478 1.23070 0.58363
v 0.54478 1.23070 0.58363
v 0.54478 1.23070 0.58363
v 0.54478 1.23070 0.58363
v 0.54478 1.23070 0.58363
v 0.59394 1.23455 0.61270
v 0.59394 1.23455 0.61270
v 0.59394 1.23455 0.61270
v 0.59394 1.23455 0.61270
v 0.59394 1.23455 0.61270
v 0.59394 1.23455 0.61270
v 0.59394 1.23455 0.61270
v 0.59394 1.23455 0.61270
v 0.59394 1.23455 0.61270
v 0.59394 1.23455 0.61270
v 0.59394 1.23455 0.61270
v 0.45739 0.95443 0.52506
v 0.45739 0.95443 0.52506
v 0.45739 0.95443 0.52506
v 0.55146 1.04938 0.60785
v 0.55146 1.04938 0.60785
v 0.55146 1.04938 0.60785
v 0.55146 1.04938 0.60785
v 0.46983 1.13659 0.49763
v 0.46983 1.13659 0.49763
v 0.50977 1.09360 0.54471
v 0.50977 1.09360 0.54471
v 0.50977 1.09360 0.54471
v 0.50977 1.09360 0.54471
v 0.50977 1.09360 0.54471
v 0.50977 1.09360 0.54471
v 0.49619 1.28868 0.59110
v 0.49619 1.28868 0.59110
v 0.49619 1.28868 0.59110
v 0.46369 1.37496 0.64832
v 0.46369 1.37496 0.64832
v 0.46369 1.37496 0.64832
v 0.46369 1.37496 0.64832
v 0.46369 1.37496 0.64832
v 0.46369 1.37496 0.64832
v 0.48818 1.40392 0.48209
v 0.48818 1.40392 0.48209
v 0.48818 1.40392 0.48209
v 0.48818 1.40392 0.48209
v 0.40088 1.27229 0.44415
v 0.53228 0.93716 0.59804
v 0.53228 0.93716 0.59804
v 0.53228 0.93716 0.59804
v 0.46533 0.95004 0.65959
v 0.46533 0.95004 0.65959
v 0.46533 0.95004 0.65959
v 0.50626 1.27977 0.67598
v 0.50626 1.27977 0.67598
v 0.50626 1.27977 0.67598
v 0.50626 1.27977 0.67598
v 0.44911 1.32359 0.67457
v 0.51487 0.92691 0.66861
v 0.51487 0.92691 0.66861
v 0.51487 0.92691 0.66861
v 0.51487 0.92691 0.66861
v 0.47099 1.05510 0.66788
v 0.47099 1.05510 0.66788
v 0.47099 1.05510 0.66788
v 0.47099 1.05510 0.66788
v 0.47099 1.05510 0.66788
v 0.47099 1.05510 0.66788
v 0.47099 1.05510 0.66788
v 0.47099 1.05510 0.66788
v 0.48649 1.09161 0.58957
v 0.48649 1.09161 0.58957
v 0.48649 1.09161 0.58957
v 0.48649 1.09161 0.58957
v 0.48649 1.09161 0.58957
v 0.43271 1.47943 0.55638
v 0.43271 1.47943 0.55638
v 0.43271 1.47943 0.55638
v 0.43271 1.47943 0.55638
v 0.43271 1.47943 0.55638
v 0.43271 1.47943 0.55638
v 0.43271 1.47943 0.55638
v 0.51939 1.07795 0.76505
v 0.51939 1.07795 0.76505
v 0.51939 1.07795 0.76505
v 0.51939 1.07795 0.76505
v 0.51939 1.07795 0.76505
v 0.51939 1.07795 0.76505
v 0.51939 1.07795 0.76505
v 0.51939 1.07795 0.76505
v 0.51939 1.07795 0.76505
v 0.43464 1.19407 0.70831
v 0.43464 1.19407 0.70831
v 0.43464 1.19407 0.70831
v 0.47747 1.13258 0.74498
v 0.47747 1.13258 0.74498
v 0.47747 1.13258 0.74498
v 0.47747 1.13258 0.74498
v 0.47747 1.13258 0.74498
v 0.49859 1.02022 0.59703
v 0.49859 1.02022 0.59703
v 0.49859 1.02022 0.59703
v 0.49859 1.02022 0.59703
v 0.49859 1.02022 0.59703
v 0.42625 1.08267 0.57825
v 0.42625 1.08267 0.57825
v 0.42625 1.08267 0.57825
v 0.39844 0.98092 0.53710
v 0.39844 0.98092 0.53710
v 0.39844 0.98092 0.53710
v 0.39844 0.98092 0.53710
v 0.44262 1.04126 0.58736
v 0.44262 1.04126 0.58736
v 0.44262 1.04126 0.58736
v 0.44262 1.04126 0.58736
v 0.43966 1.15173 0.58093
v 0.43297 1.38350 0.56399
v 0.43297 1.38350 0.56399
v 0.43297 1.38350 0.56399
v 0.43297 1.38350 0.56399
v 0.43297 1.38350 0.56399
v 0.43297 1.38350 0.56399
v 0.43297 1.38350 0.56399
v 0.39308 1.22949 0.49946
v 0.39308 1.22949 0.49946
v 0.39308 1.22949 0.49946
v 0.45754 1.04486 0.67907
v 0.45754 1.04486 0.67907
v 0.45754 1.04486 0.67907
v 0.45754 1.04486 0.67907
v 0.44517 1.05906 0.74063
v 0.44517 1.05906 0.74063
v 0.44517 1.05906 0.74063
v 0.44517 1.05906 0.74063
v 0.44517 1.05906 0.74063
v 0.41355 1.14234 0.57101
v 0.41355 1.14234 0.57101
v 0.46598 1.20883 0.52142
v 0.46598 1.20883 0.52142
v 0.46598 1.20883 0.52142
v 0.38492 1.08487 0.51594
v 0.38492 1.08487 0.51594
v 0.38492 1.08487 0.51594
v 0.44542 1.30794 0.51703
v 0.44542 1.30794 0.51703
v 0.31227 1.31263 0.70526
v 0.31227 1.31263 0.70526
v 0.31227 1.31263 0.70526
v 0.46472 1.09964 0.74742
v 0.46472 1.09964 0.74742
v 0.46472 1.09964 0.74742
v 0.46472 1.09964 0.74742
v 0.38549 1.13738 0.64408
v 0.38549 1.13738 0.64408
v 0.38549 1.13738 0.64408
v 0.36246 1.01386 0.64718
v 0.36246 1.01386 0.64718
v 0.36246 1.01386 0.64718
v 0.41226 1.45944 0.48217
v 0.41226 1.45944 0.48217
v 0.41226 1.45944 0.48217
v 0.41226 1.45944 0.48217
v 0.41226 1.45944 0.48217
v 0.35682 1.02029 0.58749
v 0.35682 1.02029 0.58749
v 0.35682 1.02029 0.58749
v 0.38077 1.38443 0.69903
v 0.38077 1.38443 0.69903
v 0.38077 1.38443 0.69903
v 0.35989 1.27143 0.51360
v 0.35989 1.27143 0.51360
v 0.37695 1.13002 0.47146
v 0.33135 1.26084 0.50107
v 0.33135 1.26084 0.50107
v 0.33135 1.26084 0.50107
v 0.33135 1.26084 0.50107
v 0.33135 1.26084 0.50107
v 0.33135 1.26084 0.50107
v 0.33135 1.26084 0.50107
v 0.40726 1.09067 0.47396
v 0.40726 1.09067 0.47396
v 0.40726 1.09067 0.47396
v 0.34435 1.19429 0.43877
v 0.34435 1.19429 0.43877
v 0.34435 1.19429 0.43877
v 0.34435 1.19429 0.43877
v 0.34435 1.19429 0.43877
v 0.48933 1.33698 0.46978
v 0.48933 1.33698 0.46978
v 0.32487 1.32863 0.46672
v 0.32487 1.32863 0.46672
v 0.32487 1.32863 0.46672
v 0.32487 1.32863 0.46672
v 0.30855 1.22027 0.65508
v 0.30855 1.22027 0.65508
v 0.30855 1.22027 0.65508
v 0.30855 1.22027 0.65508
v 0.30855 1.22027 0.65508
v 0.40323 1.05395 0.54168
v 0.40323 1.05395 0.54168
v 0.40323 1.05395 0.54168
v 0.40323 1.05395 0.54168
v 0.40323 1.05395 0.54168
v 0.40323 1.05395 0.54168
v 0.36910 1.12585 0.54795
v 0.36910 1.12585 0.54795
v 0.36910 1.12585 0.54795
v 0.40651 1.15170 0.67107
v 0.40651 1.15170 0.67107
v 0.40651 1.15170 0.67107
v 0.40651 1.15170 0.67107
v 0.40651 1.15170 0.67107
v 0.40651 1.15170 0.67107
v 0.27886 1.27936 0.69376
v 0.27886 1.27936 0.69376
v 0.27886 1.27936 0.69376
v 0.27886 1.27936 0.69376
v 0.29150 1.08795 0.54376
v 0.29150 1.08795 0.54376
v 0.29150 1.08795 0.54376
v 0.29150 1.08795 0.54376
v 0.29150 1.08795 0.54376
v 0.34567 1.23699 0.56108
v 0.34567 1.23699 0.56108
v 0.34567 1.23699 0.56108
v 0.34567 1.23699 0.56108
v 0.32215 1.35277 0.49860
v 0.32215 1.35277 0.49860
v 0.32215 1.35277 0.49860
v 0.32215 1.35277 0.49860
v 0.32215 1.35277 0.49860
v 0.32215 1.35277 0.49860
v 0.33323 1.32489 0.42906
v 0.33323 1.32489 0.42906
v 0.33323 1.32489 0.42906
v 0.33323 1.32489 0.42906
v 0.30295 1.29137 0.55532
v 0.30295 1.29137 0.55532
v 0.30295 1.29137 0.55532
v 0.30295 1.29137 0.55532
v 0.30295 1.29137 0.55532
v 0.30295 1.29137 0.55532
v 0.30295 1.29137 0.55532
v 0.32351 1.23529 0.56569
v 0.32351 1.23529 0.56569
v 0.32351 1.23529 0.56569
v 0.29852 1.23260 0.49556
v 0.29852 1.23260 0.49556
v 0.29852 1.23260 0.49556
v 0.29852 1.23260 0.49556
v 0.34422 1.21516 0.48391
v 0.34422 1.21516 0.48391
v 0.34422 1.21516 0.48391
v 0.32423 1.23261 0.63599
v 0.32423 1.23261 0.63599
v 0.32423 1.23261 0.63599
v 0.31605 1.08593 0.63657
v 0.31605 1.08593 0.63657
v 0.31605 1.08593 0.63657
v 0.31605 1.08593 0.63657
v 0.25022 1.16779 0.65258
v 0.25022 1.16779 0.65258
v 0.25022 1.16779 0.65258
v 0.27485 1.27253 0.44094
v 0.27485 1.27253 0.44094
v 0.27485 1.27253 0.44094
v 0.28217 1.18331 0.53232
v 0.28217 1.18331 0.53232
v 0.28217 1.18331 0.53232
v 0.28217 1.18331 0.53232
v 0.28217 1.18331 0.53232
v 0.29345 1.08376 0.67104
v 0.29345 1.08376 0.67104
v 0.29345 1.08376 0.67104
v 0.29345 1.08376 0.67104
v 0.25216 1.15328 0.53114
v 0.25216 1.15328 0.53114
v 0.25216 1.15328 0.53114
v 0.24315 1.30497 0.58574
v 0.24315 1.30497 0.58574
v 0.24315 1.30497 0.58574
v 0.24315 1.30497 0.58574
v 0.24315 1.30497 0.58574
v 0.24315 1.30497 0.58574
v 0.27496 1.27787 0.51574
v 0.27496 1.27787 0.51574
v 0.27496 1.27787 0.51574
v 0.27496 1.27787 0.51574
v 0.27496 1.27787 0.51574
v 0.27496 1.27787 0.51574
v 0.27496 1.27787 0.51574
v 0.27496 1.27787 0.51574
v 0.28278 1.27911 0.62181
v 0.28278 1.27911 0.62181
v 0.28278 1.27911 0.62181
v 0.28278 1.27911 0.62181
v 0.28278 1.27911 0.62181
v 0.28278 1.27911 0.62181
v 0.28278 1.27911 0.62181
v 0.26922 1.27980 0.56726
v 0.26922 1.27980 0.56726
v 0.26922 1.27980 0.56726
v 0.26922 1.27980 0.56726
v 0.26922 1.27980 0.56726
v 0.27595 1.19182 0.60623
v 0.27595 1.19182 0.60623
v 0.27595 1.19182 0.60623
v 0.23767 1.24492 0.59749
v 0.23767 1.24492 0.59749
v 0.23767 1.24492 0.59749
v 0.23767 1.24492 0.59749
v 0.22058 1.30037 0.52212
v 0.22058 1.30037 0.52212
v 0.22058 1.30037 0.52212
v 0.22058 1.30037 0.52212
v 0.57668 1.24379 0.49854
v 0.57668 1.24379 0.49854
v 0.57668 1.24379 0.49854
v 0.57668 1.24379 0.49854
v 0.84840 1.07714 0.58942
v 0.87295 1.23580 0.71312
v 0.87295 1.23580 0.71312
v 0.82170 1.12428 0.58791
v 0.82170 1.12428 0.58791
v 0.82170 1.12428 0.58791
v 0.88644 1.23984 0.61755
v 0.88644 1.23984 0.61755
v 0.78274 1.16557 0.69717
v 0.78274 1.16557 0.69717
v 0.78274 1.16557 0.69717
v 0.78274 1.16557 0.69717
v 0.70270 0.98218 0.61055
v 0.75785 1.12182 0.71704
v 0.78154 1.13118 0.55997
v 0.78154 1.13118 0.55997
v 0.78154 1.13118 0.55997
v 0.79356 1.27111 0.62881
v 0.79356 1.27111 0.62881
v 0.79356 1.27111 0.62881
v 0.79207 1.14324 0.66276
v 0.79207 1.14324 0.66276
v 0.79207 1.14324 0.66276
v 0.76222 1.17441 0.71663
v 0.76222 1.17441 0.71663
v 0.76222 1.17441 0.71663
v 0.78541 1.27496 0.69590
v 0.78541 1.27496 0.69590
v 0.78541 1.27496 0.69590
v 0.75628 1.01291 0.58367
v 0.77561 1.09234 0.55798
v 0.77561 1.09234 0.55798
v 0.77561 1.09234 0.55798
v 0.77561 1.09234 0.55798
v 0.77102 1.07579 0.68109
v 0.77102 1.07579 0.68109
v 0.72119 1.11128 0.66809
v 0.72119 1.11128 0.66809
v 0.72119 1.11128 0.66809
v 0.72119 1.11128 0.66809
v 0.74271 1.09875 0.55899
v 0.74271 1.09875 0.55899
v 0.74271 1.09875 0.55899
v 0.74271 1.09875 0.55899
v 0.74271 1.09875 0.55899
v 0.74271 1.09875 0.55899
v 0.74271 1.09875 0.55899
v 0.74271 1.09875 0.55899
v 0.75522 1.14130 0.55172
v 0.75522 1.14130 0.55172
v 0.75522 1.14130 0.55172
v 0.75522 1.14130 0.55172
v 0.75522 1.14130 0.55172
v 0.76396 1.13804 0.62285
v 0.76396 1.13804 0.62285
v 0.76396 1.13804 0.62285
v 0.76396 1.13804 0.62285
v 0.76396 1.13804 0.62285
v 0.76396 1.13804 0.62285
v 0.76396 1.13804 0.62285
v 0.76396 1.13804 0.62285
v 0.76396 1.13804 0.62285
v 0.73305 1.19498 0.68761
v 0.73305 1.19498 0.68761
v 0.73305 1.19498 0.68761
v 0.73305 1.19498 0.68761
v 0.73305 1.19498 0.68761
v 0.73305 1.19498 0.68761
v 0.69874 1.17943 0.58206
v 0.69874 1.17943 0.58206
v 0.69874 1.17943 0.58206
v 0.69874 1.17943 0.58206
v 0.70375 1.07155 0.70780
v 0.70375 1.07155 0.70780
v 0.70375 1.07155 0.70780
v 0.72012 1.12208 0.72206
v 0.72012 1.12208 0.72206
v 0.72012 1.12208 0.72206
v 0.72012 1.12208 0.72206
v 0.72012 1.12208 0.72206
v 0.67680 1.07553 0.69331
v 0.67680 1.07553 0.69331
v 0.67680 1.07553 0.69331
v 0.65227 1.03866 0.58666
v 0.70199 1.27682 0.60707
v 0.70199 1.27682 0.60707
v 0.70199 1.27682 0.60707
v 0.70199 1.27682 0.60707
v 0.69350 1.28505 0.67923
v 0.69350 1.28505 0.67923
v 0.69350 1.28505 0.67923
v 0.66454 0.95271 0.71088
v 0.66454 0.95271 0.71088
v 0.66454 0.95271 0.71088
v 0.67705 1.11674 0.69141
v 0.67705 1.11674 0.69141
v 0.67705 1.11674 0.69141
v 0.66595 0.99675 0.78655
v 0.68565 0.93598 0.54954
v 0.68565 0.93598 0.54954
v 0.68565 0.93598 0.54954
v 0.64916 0.92981 0.77972
v 0.64916 0.92981 0.77972
v 0.66578 1.28996 0.60797
v 0.66578 1.28996 0.60797
v 0.66578 1.28996 0.60797
v 0.66154 1.16688 0.56117
v 0.66154 1.16688 0.56117
v 0.66154 1.16688 0.56117
v 0.66154 1.16688 0.56117
v 0.66154 1.16688 0.56117
v 0.66154 1.16688 0.56117
v 0.66154 1.16688 0.56117
v 0.71908 1.00290 0.49960
v 0.71908 1.00290 0.49960
v 0.71908 1.00290 0.49960
v 0.71908 1.00290 0.49960
v 0.65634 1.29743 0.67933
v 0.65634 1.29743 0.67933
v 0.65634 1.29743 0.67933
v 0.65753 0.94483 0.56948
v 0.65753 0.94483 0.56948
v 0.73769 1.07099 0.50652
v 0.73769 1.07099 0.50652
v 0.73769 1.07099 0.50652
v 0.73769 1.07099 0.50652
v 0.73769 1.07099 0.50652
v 0.65422 0.91136 0.71381
v 0.59010 0.99461 0.70263
v 0.59010 0.99461 0.70263
v 0.69019 1.06847 0.82101
v 0.69019 1.06847 0.82101
v 0.59610 0.83990 0.67796
v 0.62765 0.87443 0.56406
v 0.53653 0.91869 0.54853
v 0.53653 0.91869 0.54853
v 0.53653 0.91869 0.54853
v 0.53653 0.91869 0.54853
v 0.71200 1.11878 0.75290
v 0.71200 1.11878 0.75290
v 0.71200 1.11878 0.75290
v 0.54761 1.15788 0.79418
v 0.54761 1.15788 0.79418
v 0.54761 1.15788 0.79418
v 0.53578 1.00384 0.67495
v 0.53578 1.00384 0.67495
v 0.57652 1.20490 0.67906
v 0.57652 1.20490 0.67906
v 0.57652 1.20490 0.67906
v 0.57652 1.20490 0.67906
v 0.57652 1.20490 0.67906
v 0.57652 1.20490 0.67906
v 0.57652 1.20490 0.67906
v 0.57652 1.20490 0.67906
v 0.60218 1.24841 0.70660
v 0.60218 1.24841 0.70660
v 0.60218 1.24841 0.70660
v 0.60218 1.24841 0.70660
v 0.49730 1.02128 0.68011
v 0.49730 1.02128 0.68011
v 0.49730 1.02128 0.68011
v 0.49730 1.02128 0.68011
v 0.49730 1.02128 0.68011
v 0.49730 1.02128 0.68011
v 0.49730 1.02128 0.68011
v 0.49730 1.02128 0.68011
v 0.49730 1.02128 0.68011
v 0.54692 1.18498 0.74984
v 0.54692 1.18498 0.74984
v 0.54692 1.18498 0.74984
v 0.54692 1.18498 0.74984
v 0.50087 1.29174 0.72752
v 0.50087 1.29174 0.72752
v 0.50087 1.29174 0.72752
v 0.50087 1.29174 0.72752
v 0.53783 1.19403 0.80026
v 0.53783 1.19403 0.80026
v 0.53783 1.19403 0.80026
v 0.53783 1.19403 0.80026
v 0.49969 1.02185 0.75594
v 0.49969 1.02185 0.75594
v 0.49969 1.02185 0.75594
v 0.52057 1.08078 0.79648
v 0.52057 1.08078 0.79648
v 0.52057 1.08078 0.79648
v 0.53979 1.14319 0.73020
v 0.53979 1.14319 0.73020
v 0.53979 1.14319 0.73020
v 0.53979 1.14319 0.73020
v 0.49439 0.88900 0.66083
v 0.49439 0.88900 0.66083
v 0.49439 0.88900 0.66083
v 0.46684 1.10818 0.79009
v 0.46684 1.10818 0.79009
v 0.46684 1.10818 0.79009
v 0.46684 1.10818 0.79009
v 0.69004 1.04174 0.66871
v 0.87295 1.23580 0.71312
v 0.88644 1.23984 0.61755
v 0.82170 1.12428 0.58791
v 0.78154 1.13118 0.55997
v 0.84840 1.07714 0.58942
v 0.77561 1.09234 0.55798
v 0.75628 1.01291 0.58367
v 0.74271 1.09875 0.55899
v 0.68565 0.93598 0.54954
v 0.65753 0.94483 0.56948
v 0.62765 0.87443 0.56406
v 0.53653 0.91869 0.54853
v 0.59610 0.83990 0.67796
v 0.49439 0.88900 0.66083
v 0.66454 0.95271 0.71088
v 0.59010 0.99461 0.70263
v 0.65422 0.91136 0.71381
v 0.49730 1.02128 0.68011
v 0.64916 0.92981 0.77972
v 0.51939 1.07795 0.76505
v 0.66595 0.99675 0.78655
v 0.52057 1.08078 0.79648
v 0.69019 1.06847 0.82101
v 0.71200 1.11878 0.75290
v 0.70375 1.07155 0.70780
v 0.67680 1.07553 0.69331
v 0.77102 1.07579 0.68109
v 0.76222 1.17441 0.71663
v 0.75785 1.12182 0.71704
v 0.78274 1.16557 0.69717
v 0.21279 1.61569 0.52260
v 0.31377 1.73603 0.49452
v 0.34578 1.63265 0.39956
v 0.21947 1.67694 0.39190
v 0.32828 1.58863 0.38555
v 0.29572 1.57141 0.39134
v 0.33263 1.39060 0.42418
v 0.16514 1.49321 0.38894
v 0.18070 1.38358 0.47615
v 0.13075 1.47488 0.42139
v 0.15892 1.41297 0.47494
v 0.09028 1.45259 0.49594
v 0.08824 1.46749 0.60519
v 0.10723 1.48006 0.54962
v 0.15250 1.50344 0.55758
v 0.12079 1.55679 0.56380
v 0.16470 1.60393 0.63479
v 0.13028 1.61601 0.58976
v 0.17376 1.66847 0.67712
v 0.07365 1.88411 0.62793
v 0.27280 1.73662 0.67280
v 0.16869 1.93538 0.56701
v 0.31308 1.75171 0.60680
v 0.31553 1.74965 0.55660
v 0.28079 1.70862 0.55367
v 0.28890 1.79185 0.53694
v 0.32006 1.74041 0.54365
v 0.22442 1.43861 0.51743
v 0.19735 1.49934 0.48360
v 0.28105 1.36277 0.53347
v 0.15294 1.56490 0.49919
v 0.26634 1.32745 0.55348
v 0.25435 1.59705 0.65264
v 0.25080 1.52601 0.67065
v 0.29291 1.56971 0.66369
v 0.21935 1.69543 0.62359
vt 0.20861 0.76119
vt 0.07287 0.56244
vt 0.57859 0.44074
vt 0.14718 0.52152
vt 0.16688 0.76103
vt 0.64706 0.18236
vt 0.82111 0.67026
vt 0.81220 0.50401
vt 0.02899 0.54133
vt 0.83330 0.67663
vt 0.95741 0.24339
vt 0.65667 0.26404
vt 0.51762 0.17809
vt 0.02850 0.55086
vt 0.08593 0.08230
vt 0.94876 0.23936
vt 0.60439 0.07569
vt 0.51081 0.19095
vt 0.07094 0.55101
vt 0.96330 0.23999
vt 0.56436 0.20003
vt 0.82635 0.67632
vt 0.95735 0.25035
vt 0.07249 0.54224
vt 0.56645 0.20702
vt 0.96448 0.24882
vt 0.23894 0.12383
vt 0.97637 0.23651
vt 0.70899 0.23455
vt 0.05888 0.54131
vt 0.55787 0.21762
vt 0.89352 0.63570
vt 0.71946 0.24333
vt 0.85604 0.76927
vt 0.25045 0.11648
vt 0.59536 0.08720
vt 0.87414 0.65118
vt 0.92166 0.09182
vt 0.89177 0.62441
vt 0.87476 0.66258
vt 0.59049 0.20171
vt 0.82101 0.40441
vt 0.86016 0.55644
vt 0.90336 0.27517
vt 0.90527 0.25734
vt 0.96542 0.25172
vt 0.23093 0.11610
vt 0.24830 0.85294
vt 0.58261 0.20960
vt 0.86114 0.56755
vt 0.89571 0.24710
vt 0.96530 0.23772
vt 0.37268 0.11039
vt 0.59389 0.19142
vt 0.48008 0.06678
vt 0.02298 0.76634
vt 0.69964 0.39205
vt 0.89580 0.28919
vt 0.84033 0.31884
vt 0.84033 0.31884
vt 0.80459 0.41919
vt 0.84181 0.75840
vt 0.84626 0.34096
vt 0.81116 0.39726
vt 0.87134 0.56125
vt 0.69721 0.24388
vt 0.90420 0.28478
vt 0.97506 0.25148
vt 0.48410 0.07537
vt 0.85683 0.79151
vt 0.81582 0.42431
vt 0.85408 0.75703
vt 0.86885 0.03436
vt 0.58786 0.18991
vt 0.82188 0.41647
vt 0.87872 0.03521
vt 0.92635 0.55499
vt 0.25830 0.83693
vt 0.44851 0.12087
vt 0.57440 0.63186
vt 0.58255 0.19072
vt 0.87919 0.04057
vt 0.01525 0.76642
vt 0.33122 0.44995
vt 0.69265 0.38875
vt 0.86163 0.34074
vt 0.86163 0.34074
vt 0.12988 0.58776
vt 0.58161 0.08044
vt 0.86628 0.57576
vt 0.12456 0.57653
vt 0.64503 0.80665
vt 0.93105 0.08299
vt 0.13256 0.57774
vt 0.59197 0.08044
vt 0.92308 0.08439
vt 0.23933 0.10999
vt 0.58249 0.08699
vt 0.86003 0.57788
vt 0.24268 0.83423
vt 0.70196 0.37263
vt 0.89629 0.26964
vt 0.90185 0.26565
vt 0.64554 0.23421
vt 0.87033 0.85708
vt 0.70379 0.30858
vt 0.93863 0.40043
vt 0.47264 0.04110
vt 0.43587 0.77498
vt 0.86863 0.84910
vt 0.94165 0.39467
vt 0.47020 0.03507
vt 0.64069 0.24198
vt 0.44148 0.76420
vt 0.44148 0.76420
vt 0.65000 0.24443
vt 0.88037 0.85223
vt 0.86102 0.32390
vt 0.12751 0.60444
vt 0.84250 0.77969
vt 0.88188 0.19335
vt 0.01591 0.77631
vt 0.32065 0.45178
vt 0.33860 0.39273
vt 0.89901 0.19349
vt 0.33882 0.36608
vt 0.34790 0.86587
vt 0.63545 0.89732
vt 0.62664 0.46137
vt 0.65074 0.69360
vt 0.81110 0.54039
vt 0.36300 0.40951
vt 0.63673 0.83178
vt 0.64203 0.69079
vt 0.80164 0.54701
vt 0.88379 0.66337
vt 0.89320 0.67095
vt 0.43995 0.11749
vt 0.85524 0.76330
vt 0.86999 0.04063
vt 0.25003 0.83122
vt 0.56661 0.63456
vt 0.99945 0.32718
vt 0.50060 0.02813
vt 0.17889 0.39851
vt 0.64268 0.89044
vt 0.87855 0.06750
vt 0.63595 0.78991
vt 0.24532 0.81863
vt 0.37509 0.42053
vt 0.55317 0.62767
vt 0.69325 0.35942
vt 0.92642 0.57393
vt 0.03579 0.48665
vt 0.57083 0.60890
vt 0.23572 0.76643
vt 0.63372 0.70990
vt 0.02739 0.17848
vt 0.61644 0.82998
vt 0.80259 0.52671
vt 0.23572 0.76643
vt 0.89341 0.65062
vt 0.70031 0.59649
vt 0.04166 0.48446
vt 0.43287 0.12079
vt 0.92162 0.56990
vt 0.44047 0.11050
vt 0.78131 0.78872
vt 0.84826 0.76381
vt 0.03581 0.47841
vt 0.77471 0.79815
vt 0.13261 0.60596
vt 0.76685 0.78202
vt 0.84783 0.77973
vt 0.04152 0.47512
vt 0.43342 0.11147
vt 0.78087 0.79582
vt 0.47244 0.87355
vt 0.63673 0.84323
vt 0.65194 0.80508
vt 0.88811 0.65276
vt 0.93570 0.09250
vt 0.54711 0.60316
vt 0.41375 0.75836
vt 0.68553 0.41687
vt 0.32636 0.31890
vt 0.55934 0.17550
vt 0.54565 0.60479
vt 0.14455 0.73565
vt 0.45577 0.88674
vt 0.12751 0.73209
vt 0.47232 0.88136
vt 0.55485 0.60422
vt 0.02114 0.18099
vt 0.60657 0.82099
vt 0.64064 0.46330
vt 0.81002 0.52259
vt 0.40166 0.76448
vt 0.69290 0.40549
vt 0.45628 0.87811
vt 0.61996 0.84404
vt 0.49673 0.03756
vt 0.50117 0.04356
vt 0.86931 0.06319
vt 0.36394 0.39943
vt 0.89951 0.05484
vt 0.13232 0.62102
vt 0.76624 0.79707
vt 0.90000 0.04593
vt 0.69541 0.04480
vt 0.13539 0.52235
vt 0.06439 0.56909
vt 0.12229 0.61581
vt 0.61467 0.80394
vt 0.88873 0.04516
vt 0.13650 0.52290
vt 0.77499 0.80817
vt 0.12951 0.51428
vt 0.89118 0.05484
vt 0.74503 0.54410
vt 0.80923 0.18378
vt 0.92579 0.23627
vt 0.64791 0.88781
vt 0.91418 0.23343
vt 0.94086 0.61035
vt 0.51402 0.04314
vt 0.28641 0.11300
vt 0.88216 0.06289
vt 0.03716 0.40856
vt 0.81109 0.17663
vt 0.91735 0.23233
vt 0.14199 0.43938
vt 0.49712 0.85935
vt 0.20448 0.01426
vt 0.39048 0.66735
vt 0.74120 0.50008
vt 0.10132 0.13678
vt 0.34440 0.87791
vt 0.64797 0.89793
vt 0.90412 0.23244
vt 0.91360 0.24453
vt 0.94899 0.61793
vt 0.10132 0.15391
vt 0.89856 0.24865
vt 0.08606 0.77902
vt 0.14432 0.69371
vt 0.87863 0.79920
vt 0.54527 0.56285
vt 0.68498 0.04474
vt 0.12751 0.69033
vt 0.87305 0.78299
vt 0.10083 0.17676
vt 0.60983 0.79680
vt 0.63230 0.77423
vt 0.55485 0.56245
vt 0.14794 0.47961
vt 0.15027 0.48053
vt 0.40097 0.41632
vt 0.11565 0.82717
vt 0.39882 0.66661
vt 0.78345 0.29509
vt 0.74949 0.49427
vt 0.61095 0.90932
vt 0.52449 0.86418
vt 0.12615 0.40259
vt 0.03257 0.41189
vt 0.13820 0.44545
vt 0.35748 0.00479
vt 0.49169 0.86401
vt 0.92003 0.22570
vt 0.57841 0.18003
vt 0.30867 0.31045
vt 0.41038 0.65163
vt 0.31484 0.86523
vt 0.93218 0.88787
vt 0.55934 0.18970
vt 0.14941 0.54671
vt 0.39134 0.65689
vt 0.44226 0.88235
vt 0.60535 0.84297
vt 0.32883 0.87285
vt 0.93764 0.90283
vt 0.09426 0.15154
vt 0.07961 0.78274
vt 0.08655 0.05774
vt 0.57159 0.21117
vt 0.88823 0.79314
vt 0.09989 0.15853
vt 0.62966 0.90251
vt 0.68888 0.05379
vt 0.57939 0.20002
vt 0.09329 0.17043
vt 0.07287 0.57628
vt 0.74900 0.52386
vt 0.57619 0.45437
vt 0.64052 0.91073
vt 0.04446 0.35112
vt 0.95417 0.49101
vt 0.39478 0.67633
vt 0.79206 0.28906
vt 0.08247 0.05206
vt 0.28541 0.32092
vt 0.88626 0.79985
vt 0.96318 0.44442
vt 0.55277 0.56442
vt 0.07472 0.05774
vt 0.57879 0.22057
vt 0.57964 0.47462
vt 0.10153 0.82565
vt 0.78373 0.28089
vt 0.83329 0.29679
vt 0.91187 0.83425
vt 0.18322 0.98195
vt 0.91485 0.82022
vt 0.11661 0.85230
vt 0.23341 0.12019
vt 0.42335 0.67729
vt 0.17730 0.98326
vt 0.80821 0.29471
vt 0.91219 0.81477
vt 0.92266 0.90919
vt 0.09588 0.78242
vt 0.90844 0.25188
vt 0.94864 0.62690
vt 0.94621 0.50616
vt 0.20245 0.74224
vt 0.58803 0.45829
vt 0.18166 0.97392
vt 0.80936 0.30878
vt 0.17063 0.97311
vt 0.80342 0.28354
vt 0.81349 0.29852
vt 0.94809 0.44938
vt 0.43369 0.67177
vt 0.95447 0.44229
vt 0.28541 0.31195
vt 0.43285 0.66169
vt 0.19403 0.97373
vt 0.81320 0.32055
vt 0.23909 0.12656
vt 0.10230 0.84977
vt 0.23339 0.13472
vt 0.83147 0.32086
vt 0.47539 0.03145
vt 0.42836 0.75859
vt 0.68979 0.43911
vt 0.43542 0.76495
vt 0.43542 0.76495
vt 0.64448 0.24704
vt 0.43542 0.76495
vt 0.69225 0.42994
vt 0.42836 0.75859
vt 0.07366 0.54910
vt 0.03759 0.59340
vt 0.39152 0.14499
vt 0.48636 0.04178
vt 0.75325 0.93512
vt 0.80579 0.66121
vt 0.82310 0.15896
vt 0.08581 0.08768
vt 0.79766 0.50586
vt 0.51645 0.19992
vt 0.62415 0.03271
vt 0.02049 0.55286
vt 0.02247 0.60263
vt 0.84161 0.15896
vt 0.98771 0.86134
vt 0.49630 0.19517
vt 0.40283 0.13417
vt 0.44105 0.60237
vt 0.01382 0.54545
vt 0.66944 0.15461
vt 0.00447 0.52659
vt 0.01517 0.55255
vt 0.01724 0.60360
vt 0.15928 0.95702
vt 0.75769 0.29260
vt 0.98239 0.86134
vt 0.44311 0.60745
vt 0.50420 0.87930
vt 0.01170 0.52659
vt 0.19970 0.09972
vt 0.40427 0.14041
vt 0.43805 0.59855
vt 0.49991 0.04184
vt 0.76083 0.74322
vt 0.76130 0.73591
vt 0.01851 0.60192
vt 0.44791 0.19837
vt 0.62393 0.63375
vt 0.09365 0.07698
vt 0.89748 0.68506
vt 0.93035 0.38577
vt 0.03523 0.53983
vt 0.83274 0.67024
vt 0.91168 0.68230
vt 0.80250 0.49760
vt 0.65126 0.19803
vt 0.89665 0.69450
vt 0.92317 0.39196
vt 0.80250 0.52201
vt 0.03523 0.55041
vt 0.08647 0.07698
vt 0.90339 0.68099
vt 0.06973 0.55482
vt 0.39015 0.13819
vt 0.90107 0.23797
vt 0.01041 0.59710
vt 0.07438 0.78229
vt 0.44291 0.20636
vt 0.87424 0.75604
vt 0.90238 0.03480
vt 0.18979 0.10455
vt 0.03502 0.58435
vt 0.49189 0.04939
vt 0.89677 0.02708
vt 0.66902 0.26382
vt 0.19417 0.11303
vt 0.39240 0.79671
vt 0.59218 0.07763
vt 0.07917 0.88089
vt 0.22934 0.02453
vt 0.63507 0.70990
vt 0.66666 0.19771
vt 0.88845 0.23597
vt 0.91278 0.38059
vt 0.99491 0.27362
vt 0.08371 0.55482
vt 0.90666 0.02647
vt 0.04439 0.58405
vt 0.09937 0.08233
vt 0.88989 0.24636
vt 0.92291 0.38335
vt 0.59649 0.08656
vt 0.43886 0.19372
vt 0.88686 0.76014
vt 0.77302 0.73781
vt 0.33163 0.24381
vt 0.62760 0.64504
vt 0.77154 0.83183
vt 0.07508 0.57281
vt 0.08849 0.77702
vt 0.88913 0.75377
vt 0.33163 0.25227
vt 0.50611 0.86946
vt 0.63571 0.64747
vt 0.93579 0.96017
vt 0.44016 0.61991
vt 0.51463 0.87522
vt 0.94607 0.96017
vt 0.01453 0.76222
vt 0.10542 0.04882
vt 0.62853 0.63160
vt 0.93687 0.94278
vt 0.25236 0.75394
vt 0.63209 0.73064
vt 0.25236 0.75394
vt 0.98695 0.26983
vt 0.38630 0.12251
vt 0.96285 0.13473
vt 0.10189 0.48961
vt 0.56661 0.20936
vt 0.63343 0.74598
vt 0.79161 0.81792
vt 0.39960 0.11474
vt 0.08374 0.56089
vt 0.08708 0.16918
vt 0.76047 0.75228
vt 0.76565 0.23405
vt 0.86185 0.69236
vt 0.01041 0.60241
vt 0.07376 0.77702
vt 0.86978 0.29816
vt 0.31371 0.90880
vt 0.69672 0.32359
vt 0.69672 0.32359
vt 0.63418 0.03423
vt 0.87434 0.31351
vt 0.66949 0.16248
vt 0.98340 0.87052
vt 0.66949 0.16248
vt 0.69229 0.33897
vt 0.00647 0.53420
vt 0.63196 0.02704
vt 0.02049 0.54322
vt 0.66335 0.15813
vt 0.86978 0.31949
vt 0.29284 0.90443
vt 0.03956 0.76415
vt 0.27716 0.90929
vt 0.83250 0.16212
vt 0.07472 0.08729
vt 0.66335 0.15813
vt 0.39338 0.13608
vt 0.43959 0.18678
vt 0.60988 0.63130
vt 0.89341 0.76258
vt 0.02780 0.67663
vt 0.01604 0.75788
vt 0.10110 0.04725
vt 0.92953 0.86726
vt 0.44172 0.62676
vt 0.06496 0.31135
vt 0.02122 0.68609
vt 0.11262 0.04730
vt 0.45309 0.20353
vt 0.45143 0.62650
vt 0.94217 0.94789
vt 0.15135 0.20346
vt 0.29160 0.90542
vt 0.66797 0.17235
vt 0.69844 0.33110
vt 0.54630 0.20079
vt 0.63455 0.69759
vt 0.66566 0.18543
vt 0.82249 0.69398
vt 0.87428 0.67186
vt 0.89352 0.61528
vt 0.38511 0.12099
vt 0.17827 0.36984
vt 0.38064 0.80722
vt 0.59173 0.20760
vt 0.41803 0.62588
vt 0.08094 0.57342
vt 0.87230 0.69982
vt 0.88334 0.75272
vt 0.61629 0.61478
vt 0.75318 0.32235
vt 0.89253 0.74489
vt 0.08260 0.88302
vt 0.23318 0.02577
vt 0.96901 0.13366
vt 0.99320 0.26996
vt 0.22907 0.03430
vt 0.75327 0.31420
vt 0.87491 0.70911
vt 0.88542 0.74330
vt 0.26707 0.16447
vt 0.61292 0.04096
vt 0.96936 0.84947
vt 0.58074 0.10358
vt 0.97551 0.82959
vt 0.47142 0.04256
vt 0.14634 0.21958
vt 0.82828 0.11082
vt 0.97907 0.52494
vt 0.06520 0.45310
vt 0.02780 0.68709
vt 0.93973 0.86958
vt 0.06520 0.45310
vt 0.14934 0.20979
vt 0.06159 0.55183
vt 0.64911 0.27735
vt 0.51762 0.19740
vt 0.36834 0.79744
vt 0.60337 0.19157
vt 0.47178 0.07137
vt 0.86063 0.77912
vt 0.54720 0.43267
vt 0.98001 0.84345
vt 0.38861 0.98217
vt 0.56466 0.23035
vt 0.72737 0.93599
vt 0.97091 0.31125
vt 0.01898 0.84313
vt 0.97610 0.81428
vt 0.97907 0.51036
vt 0.64389 0.72956
vt 0.79228 0.12643
vt 0.67842 0.59322
vt 0.26807 0.76345
vt 0.54727 0.42324
vt 0.78693 0.11686
vt 0.02291 0.83334
vt 0.66783 0.59606
vt 0.62335 0.04442
vt 0.00798 0.75788
vt 0.62282 0.62621
vt 0.46044 0.04291
vt 0.93495 0.86130
vt 0.07333 0.45356
vt 0.07333 0.45356
vt 0.94694 0.86579
vt 0.04685 0.03274
vt 0.45923 0.22344
vt 0.13051 0.20353
vt 0.88153 0.84967
vt 0.62335 0.03646
vt 0.07148 0.45924
vt 0.14056 0.20979
vt 0.94291 0.86138
vt 0.07074 0.44468
vt 0.92404 0.39467
vt 0.32236 0.90443
vt 0.86277 0.86365
vt 0.30667 0.90857
vt 0.70334 0.31651
vt 0.64299 0.22453
vt 0.70334 0.31651
vt 0.92455 0.75743
vt 0.12301 0.30186
vt 0.74753 0.52314
vt 0.96671 0.84919
vt 0.33582 0.11132
vt 0.97625 0.82886
vt 0.98172 0.52470
vt 0.72566 0.38066
vt 0.14925 0.59348
vt 0.55672 0.42808
vt 0.34408 0.11315
vt 0.98223 0.82288
vt 0.07450 0.44557
vt 0.90994 0.76107
vt 0.12211 0.31218
vt 0.74208 0.51389
vt 0.74315 0.51374
vt 0.44939 0.64115
vt 0.76477 0.37315
vt 0.05769 0.32247
vt 0.11083 0.30511
vt 0.73389 0.52438
vt 0.02629 0.18287
vt 0.54957 0.39086
vt 0.60109 0.82072
vt 0.27100 0.76706
vt 0.55124 0.42568
vt 0.60200 0.78587
vt 0.26383 0.11042
vt 0.56485 0.10404
vt 0.70264 0.14577
vt 0.82082 0.12486
vt 0.13084 0.21935
vt 0.81279 0.11043
vt 0.89723 0.85166
vt 0.17429 0.38429
vt 0.61820 0.88736
vt 0.37029 0.11617
vt 0.88040 0.18641
vt 0.02190 0.77250
vt 0.74988 0.08323
vt 0.89004 0.85498
vt 0.03874 0.03863
vt 0.62724 0.83161
vt 0.23243 0.75842
vt 0.89238 0.66149
vt 0.92682 0.75052
vt 0.74481 0.52987
vt 0.75968 0.38147
vt 0.79683 0.18354
vt 0.98242 0.91197
vt 0.01303 0.49930
vt 0.12182 0.29284
vt 0.74847 0.53219
vt 0.79683 0.18354
vt 0.55233 0.01485
vt 0.43225 0.63844
vt 0.75986 0.37618
vt 0.05563 0.31652
vt 0.02774 0.79390
vt 0.41318 0.63801
vt 0.75155 0.38654
vt 0.76496 0.39447
vt 0.96779 0.14362
vt 0.87582 0.99740
vt 0.18503 0.36511
vt 0.85479 0.99231
vt 0.99590 0.33075
vt 0.03948 0.98460
vt 0.18360 0.39549
vt 0.72578 0.35071
vt 0.51850 0.02858
vt 0.33794 0.14167
vt 0.94273 0.60927
vt 0.15700 0.56455
vt 0.45437 0.64058
vt 0.76880 0.36485
vt 0.80108 0.54923
vt 0.74690 0.07406
vt 0.03796 0.02902
vt 0.45106 0.21833
vt 0.29212 0.14591
vt 0.76797 0.37739
vt 0.81135 0.55141
vt 0.73120 0.36560
vt 0.97153 0.83435
vt 0.56635 0.10868
vt 0.33582 0.12691
vt 0.32221 0.13974
vt 0.70609 0.14232
vt 0.02727 0.18917
vt 0.15067 0.55672
vt 0.55593 0.39130
vt 0.60297 0.83047
vt 0.73640 0.08526
vt 0.81354 0.54026
vt 0.95139 0.66282
vt 0.88807 0.86847
vt 0.08383 0.81021
vt 0.98197 0.38269
vt 0.91910 0.74873
vt 0.79185 0.17642
vt 0.99068 0.91465
vt 0.03445 0.98305
vt 0.11081 0.28770
vt 0.73984 0.54074
vt 0.99467 0.32563
vt 0.50572 0.03185
vt 0.50944 0.03684
vt 0.85457 0.99740
vt 0.04443 0.98343
vt 0.21602 0.34957
vt 0.40375 0.62906
vt 0.99107 0.38212
vt 0.23027 0.00454
vt 0.03439 0.41840
vt 0.80092 0.17553
vt 0.80092 0.17553
vt 0.01168 0.49041
vt 0.54572 0.02095
vt 0.98338 0.38006
vt 0.99160 0.91182
vt 0.54326 0.01337
vt 0.02788 0.78307
vt 0.06125 0.51516
vt 0.28030 0.13203
vt 0.97275 0.13399
vt 0.02409 0.78848
vt 0.28691 0.13205
vt 0.77198 0.39379
vt 0.51532 0.03032
vt 0.93995 0.60694
vt 0.98193 0.54590
vt 0.70200 0.15715
vt 0.80995 0.12142
vt 0.89935 0.86281
vt 0.08450 0.79761
vt 0.33907 0.15193
vt 0.94124 0.67836
vt 0.95300 0.60827
vt 0.04448 0.99386
vt 0.39857 0.63833
vt 0.98074 0.13898
vt 0.05288 0.51516
vt 0.27945 0.14034
vt 0.82441 0.54681
vt 0.94763 0.59269
vt 0.84579 0.02801
vt 0.32721 0.15634
vt 0.70682 0.15964
vt 0.95385 0.67937
vt 0.08871 0.79420
vt 0.82365 0.54128
vt 0.94124 0.66229
vt 0.95319 0.59220
vt 0.03299 0.34660
vt 0.20961 0.01228
vt 0.38505 0.67358
vt 0.36311 0.00684
vt 0.29504 0.10072
vt 0.92037 0.21814
vt 0.39767 0.08013
vt 0.23027 0.01115
vt 0.07673 0.76244
vt 0.03468 0.99489
vt 0.06353 0.50832
vt 0.12232 0.28488
vt 0.97833 0.12942
vt 0.00658 0.49461
vt 0.41164 0.07996
vt 0.51850 0.03809
vt 0.98266 0.53754
vt 0.06543 0.77065
vt 0.16006 0.55555
vt 0.21030 0.02007
vt 0.38200 0.66835
vt 0.40438 0.08131
vt 0.02950 0.41766
vt 0.22561 0.00618
vt 0.21464 0.01409
vt 0.36311 0.00149
vt 0.85560 0.02801
vt 0.94798 0.60249
vt 0.99111 0.54561
vt 0.99074 0.53694
vt 0.07264 0.77433
vt 0.85568 0.03669
vt 0.05265 0.50200
vt 0.95424 0.61076
vt 0.03299 0.35781
vt 0.94093 0.48992
vt 0.29643 0.10950
vt 0.16976 0.34953
vt 0.20629 0.10417
vt 0.40470 0.80532
vt 0.43565 0.60838
vt 0.06892 0.05866
vt 0.64690 0.16208
vt 0.98332 0.23564
vt 0.06739 0.92641
vt 0.30940 0.24796
vt 0.81332 0.45906
vt 0.80102 0.47478
vt 0.96913 0.23523
vt 0.31569 0.23096
vt 0.65781 0.14909
vt 0.94969 0.09278
vt 0.00869 0.86108
vt 0.09602 0.46106
vt 0.00861 0.85313
vt 0.83229 0.05012
vt 0.05709 0.05244
vt 0.06999 0.91963
vt 0.33116 0.24121
vt 0.81368 0.48184
vt 0.97288 0.22123
vt 0.07771 0.93283
vt 0.31237 0.23618
vt 0.95586 0.09326
vt 0.61838 0.50273
vt 0.94571 0.09454
vt 0.00455 0.85974
vt 0.33178 0.23128
vt 0.64173 0.14873
vt 0.98283 0.22132
vt 0.67211 0.62319
vt 0.05706 0.05823
vt 0.68165 0.61497
vt 0.83807 0.05022
vt 0.28360 0.05003
vt 0.49365 0.18362
vt 0.63211 0.50983
vt 0.00745 0.32898
vt 0.98998 0.51534
vt 0.49525 0.17457
vt 0.58075 0.44142
vt 0.76280 0.11036
vt 0.67824 0.61141
vt 0.08437 0.47686
vt 0.28769 0.05279
vt 0.13288 0.95792
vt 0.73218 0.29944
vt 0.75976 0.75319
vt 0.42799 0.03500
vt 0.75941 0.11603
vt 0.62531 0.09209
vt 0.28416 0.24195
vt 0.65092 0.22076
vt 0.43427 0.03704
vt 0.83105 0.05969
vt 0.27996 0.06124
vt 0.07756 0.92561
vt 0.48529 0.17423
vt 0.57359 0.43450
vt 0.63211 0.49725
vt 0.64565 0.22989
vt 0.95968 0.09938
vt 0.42936 0.04637
vt 0.27745 0.22129
vt 0.58625 0.42991
vt 0.65044 0.24248
vt 0.73927 0.92533
vt 0.50402 0.10340
vt 0.95845 0.56011
vt 0.61544 0.08732
vt 0.90860 0.47800
vt 0.27417 0.23743
vt 0.97488 0.55890
vt 0.01559 0.32606
vt 0.00944 0.30517
vt 0.58531 0.44877
vt 0.40612 0.98927
vt 0.80159 0.52819
vt 0.58902 0.44159
vt 0.73062 0.93365
vt 0.78295 0.84057
vt 0.50441 0.17471
vt 0.01236 0.30169
vt 0.98257 0.50996
vt 0.08437 0.46039
vt 0.61268 0.05669
vt 0.90851 0.46321
vt 0.51783 0.09268
vt 0.97031 0.57296
vt 0.62291 0.05340
vt 0.75355 0.92273
vt 0.51853 0.10340
vt 0.76660 0.29525
vt 0.40243 0.94749
vt 0.49556 0.95021
vt 0.01309 0.33375
vt 0.01752 0.30488
vt 0.98263 0.51602
vt 0.36379 0.98145
vt 0.73690 0.74212
vt 0.75883 0.77100
vt 0.76346 0.25271
vt 0.17247 0.92499
vt 0.70008 0.94588
vt 0.61189 0.05108
vt 0.81321 0.64855
vt 0.90314 0.46140
vt 0.77196 0.12297
vt 0.82691 0.66224
vt 0.90267 0.48076
vt 0.02247 0.61257
vt 0.61097 0.09209
vt 0.14822 0.96062
vt 0.49630 0.20630
vt 0.76950 0.76115
vt 0.77154 0.80542
vt 0.74985 0.73945
vt 0.77205 0.77071
vt 0.62198 0.04772
vt 0.75810 0.92625
vt 0.80299 0.65150
vt 0.08448 0.18417
vt 0.76054 0.24837
vt 0.76130 0.80740
vt 0.30857 0.24916
vt 0.48341 0.86433
vt 0.72907 0.29125
vt 0.75899 0.74447
vt 0.75908 0.78154
vt 0.39953 0.93522
vt 0.75414 0.79626
vt 0.09792 0.46137
vt 0.63308 0.93491
vt 0.36523 0.17000
vt 0.07321 0.18425
vt 0.38212 0.15304
vt 0.07349 0.16918
vt 0.87398 0.69306
vt 0.24911 0.16369
vt 0.10927 0.46741
vt 0.59337 0.44341
vt 0.78765 0.84098
vt 0.09121 0.48551
vt 0.55943 0.21825
vt 0.60805 0.93606
vt 0.40187 0.92646
vt 0.47453 0.95082
vt 0.07917 0.89607
vt 0.43006 0.99705
vt 0.02858 0.76392
vt 0.78290 0.81539
vt 0.40194 0.12251
vt 0.96854 0.12017
vt 0.38446 0.13197
vt 0.90224 0.22962
vt 0.43162 0.98874
vt 0.02858 0.75546
vt 0.08802 0.08291
vt 0.80185 0.50269
vt 0.14478 0.91373
vt 0.39958 0.92064
vt 0.75863 0.81013
vt 0.62682 0.61605
vt 0.76504 0.32216
vt 0.98136 0.82979
vt 0.46962 0.03699
vt 0.95556 0.31125
vt 0.46865 0.94868
vt 0.26676 0.75208
vt 0.27834 0.11605
vt 0.89691 0.12504
vt 0.93686 0.29694
vt 0.93686 0.27953
vt 0.25133 0.75010
vt 0.64243 0.71161
vt 0.98736 0.27380
vt 0.62602 0.49465
vt 0.64930 0.72686
vt 0.89454 0.13231
vt 0.94451 0.29662
vt 0.14644 0.92476
vt 0.72609 0.94473
vt 0.96474 0.30492
vt 0.38821 0.97755
vt 0.56001 0.23026
vt 0.61019 0.92423
vt 0.56900 0.21994
vt 0.64310 0.74515
vt 0.79297 0.11083
vt 0.01337 0.83334
vt 0.36396 0.15325
vt 0.74685 0.31467
vt 0.26638 0.15807
vt 0.60773 0.78587
vt 0.64023 0.49844
vt 0.26283 0.11605
vt 0.87956 0.12553
vt 0.59369 0.14079
vt 0.59369 0.14079
vt 0.59369 0.14079
vt 0.59369 0.14079
vt 0.59369 0.14079
vt 0.59369 0.14079
vt 0.59369 0.14079
vt 0.59369 0.14079
vt 0.59369 0.14079
vt 0.59369 0.14079
vt 0.59369 0.14079
vt 0.59369 0.14079
vt 0.59369 0.14079
vt 0.59369 0.14079
vt 0.59369 0.14079
vt 0.59369 0.14079
vt 0.59369 0.14079
vt 0.59369 0.14079
vt 0.59369 0.14079
vt 0.59369 0.14079
vt 0.59369 0.14079
vt 0.59369 0.14079
vt 0.59369 0.14079
vt 0.59369 0.14079
vt 0.59369 0.14079
vt 0.59369 0.14079
vt 0.59369 0.14079
vt 0.59369 0.14079
vt 0.59369 0.14079
vt 0.59369 0.14079
vt 0.59369 0.14079
vt 0.92642 0.57393
vt 0.92642 0.57393
vt 0.92642 0.57393
vt 0.92642 0.57393
vt 0.92642 0.57393
vt 0.92642 0.57393
vt 0.92642 0.57393
vt 0.92642 0.57393
vt 0.92642 0.57393
vt 0.92642 0.57393
vt 0.92642 0.57393
vt 0.92642 0.57393
vt 0.92642 0.57393
vt 0.92642 0.57393
vt 0.92642 0.57393
vt 0.92642 0.57393
vt 0.92642 0.57393
vt 0.92642 0.57393
vt 0.92642 0.57393
vt 0.92642 0.57393
vt 0.92642 0.57393
vt 0.92642 0.57393
vt 0.92642 0.57393
vt 0.92642 0.57393
vt 0.92642 0.57393
vt 0.92642 0.57393
vt 0.92642 0.57393
vt 0.20742 0.49226
vt 0.20742 0.49226
vt 0.20742 0.49226
vt 0.20742 0.49226
vt 0.20742 0.49226
vt 0.74949 0.49427
vt 0.74949 0.49427
vt 0.74949 0.49427
vt 0.74949 0.49427
vn -0.0841 0.1844 0.9793
vn 0.0735 -0.8025 0.5921
vn 0.5676 -0.8203 0.0703
vn 0.8991 0.4313 -0.0745
vn -0.0841 0.1844 0.9793
vn -0.1401 0.0842 0.9865
vn -0.7650 0.6255 0.1537
vn 0.8586 0.5125 0.0037
vn -0.0597 0.3519 -0.9342
vn -0.6945 0.7174 0.0547
vn 0.7279 0.6594 -0.1880
vn 0.0697 0.0115 -0.9975
vn 0.1959 0.2587 -0.9459
vn 0.0331 0.5085 -0.8604
vn 0.3433 -0.4314 -0.8342
vn 0.7445 0.5793 -0.3318
vn 0.9298 0.0516 -0.3645
vn 0.1959 0.2587 -0.9459
vn -0.2598 0.9633 -0.0676
vn 0.7080 0.6955 -0.1228
vn -0.1216 0.1684 0.9782
vn -0.7920 0.5824 0.1832
vn 0.6740 0.7385 -0.0181
vn -0.2459 0.9685 -0.0396
vn -0.1339 0.0299 0.9905
vn 0.6641 0.7476 -0.0087
vn 0.0170 0.2596 0.9656
vn 0.8418 0.5397 0.0101
vn 0.6974 -0.7164 0.0202
vn -0.2630 0.9620 -0.0739
vn -0.1195 0.1894 0.9746
vn 0.6538 0.1410 -0.7434
vn 0.6974 -0.7164 0.0202
vn 0.8928 -0.1380 0.4288
vn 0.0820 0.2464 0.9657
vn 0.5501 0.0220 -0.8348
vn 0.6986 0.6478 0.3039
vn 0.7072 -0.6823 0.1856
vn 0.6538 0.1410 -0.7434
vn 0.7577 0.5458 0.3578
vn 0.0551 -0.5570 -0.8287
vn 0.8925 0.4505 -0.0215
vn 0.7361 -0.6626 -0.1383
vn 0.4996 0.2176 -0.8385
vn 0.2265 0.9694 -0.0950
vn 0.8191 0.5731 -0.0255
vn 0.0820 0.2463 0.9657
vn 0.9320 -0.1223 -0.3413
vn 0.2068 -0.5539 -0.8065
vn 0.6843 -0.7283 -0.0368
vn 0.2265 0.9694 -0.0950
vn 0.8338 0.5520 -0.0029
vn 0.2701 0.3706 -0.8887
vn 0.8376 0.5410 0.0754
vn 0.8547 -0.5187 -0.0219
vn 0.7558 -0.6546 -0.0137
vn 0.8406 0.4721 0.2655
vn 0.3585 -0.0423 -0.9326
vn -0.0922 0.1702 0.9811
vn -0.0927 0.1702 0.9810
vn 0.8923 0.4513 -0.0072
vn -0.7611 0.6470 0.0464
vn -0.0927 0.1702 0.9810
vn 0.8905 0.4546 -0.0174
vn 0.7075 -0.7029 -0.0734
vn 0.6974 -0.7164 0.0202
vn 0.3898 0.0099 -0.9209
vn 0.8289 0.5593 -0.0106
vn 0.8547 -0.5187 -0.0219
vn 0.8928 -0.1380 0.4288
vn 0.8947 0.4464 -0.0181
vn -0.6711 0.7411 -0.0218
vn -0.0533 0.2222 -0.9736
vn 0.3734 -0.5345 -0.7582
vn 0.8981 0.4337 -0.0727
vn 0.0731 0.2190 -0.9730
vn 0.2045 0.0527 -0.9774
vn 0.9420 -0.0772 -0.3267
vn 0.7432 0.5576 -0.3697
vn 0.4804 0.5476 -0.6851
vn 0.4936 -0.5086 -0.7055
vn 0.0020 0.2212 -0.9752
vn 0.8161 -0.5427 0.1988
vn 0.5008 -0.0272 -0.8651
vn 0.8495 0.4974 0.1758
vn -0.0922 0.1702 0.9811
vn -0.0927 0.1702 0.9810
vn 0.7087 0.6200 0.3367
vn 0.6866 0.3498 -0.6374
vn 0.6490 -0.7607 0.0087
vn 0.8291 0.5311 0.1746
vn 0.1511 0.2769 0.9490
vn 0.6953 -0.6919 0.1944
vn 0.8835 0.4603 0.0863
vn 0.6010 0.1214 -0.7899
vn 0.7575 -0.6364 0.1454
vn 0.1566 0.2297 0.9606
vn 0.6499 0.2362 -0.7224
vn 0.6420 -0.7667 0.0019
vn 0.8857 -0.1869 -0.4250
vn 0.8412 0.5394 -0.0386
vn 0.4281 0.0773 -0.9004
vn 0.2265 0.9694 -0.0950
vn 0.8915 0.4431 0.0940
vn -0.7992 0.0077 0.6010
vn 0.8101 0.4734 0.3460
vn -0.0089 -0.0837 -0.9964
vn -0.0528 -0.7908 -0.6098
vn -0.6368 -0.6053 0.4776
vn -0.7939 0.0028 0.6081
vn -0.0089 -0.0837 -0.9964
vn -0.0528 -0.7908 -0.6098
vn 0.9152 0.3999 -0.0498
vn -0.8516 -0.4194 0.3145
vn -0.6368 -0.6053 0.4776
vn 0.9259 0.3643 -0.0999
vn -0.7865 -0.0038 0.6176
vn -0.0922 0.1702 0.9811
vn 0.7531 0.6503 0.1000
vn -0.8466 0.5309 0.0373
vn 0.3383 -0.8037 0.4895
vn 0.8266 -0.3999 0.3961
vn 0.4933 -0.0392 -0.8690
vn 0.2533 -0.1482 -0.9560
vn 0.3383 -0.8037 0.4895
vn 0.2300 -0.1437 -0.9625
vn 0.2662 -0.1103 -0.9576
vn 0.6730 -0.7373 -0.0592
vn -0.1651 0.1319 0.9774
vn 0.6170 0.5715 0.5410
vn -0.7262 0.6837 -0.0721
vn 0.2047 -0.0504 -0.9775
vn 0.1614 0.0540 0.9854
vn 0.6959 0.5992 0.3957
vn -0.7441 0.6674 -0.0298
vn 0.7475 0.5759 0.3311
vn 0.5683 -0.4313 0.7007
vn 0.7226 0.6536 -0.2252
vn -0.6477 0.7619 0.0063
vn -0.1206 0.2224 -0.9675
vn 0.8909 -0.1593 -0.4254
vn 0.5841 0.5915 -0.5557
vn -0.7668 -0.5415 0.3446
vn -0.8342 -0.3472 0.4284
vn 0.0255 0.0640 -0.9976
vn 0.6694 -0.7400 -0.0656
vn 0.7360 -0.2990 0.6074
vn 0.3581 0.3984 0.8444
vn 0.8258 -0.1961 -0.5288
vn 0.2856 0.1443 -0.9474
vn 0.7267 0.5731 -0.3789
vn 0.8316 0.5466 -0.0987
vn 0.2045 0.0527 -0.9774
vn -0.2832 0.9578 -0.0492
vn 0.9433 0.2248 -0.2442
vn 0.0174 -0.2042 -0.9788
vn -0.1221 -0.0292 0.9921
vn -0.6054 0.7677 -0.2098
vn -0.1242 0.0665 0.9900
vn -0.6837 0.7122 -0.1592
vn 0.0703 -0.0885 -0.9936
vn 0.5683 -0.4313 0.7007
vn 0.8258 0.5636 -0.0194
vn -0.2932 0.9544 -0.0568
vn 0.7370 0.6505 -0.1836
vn 0.2045 0.0527 -0.9774
vn 0.7297 0.6750 -0.1091
vn -0.2880 0.2066 0.9351
vn -0.7540 0.6555 0.0426
vn -0.2992 0.9522 -0.0613
vn -0.0155 0.2499 0.9681
vn 0.7641 0.6422 -0.0615
vn -0.1625 0.3244 0.9319
vn -0.8559 0.5171 0.0044
vn -0.3085 0.9488 -0.0684
vn 0.7650 0.6271 -0.1465
vn -0.3676 -0.0605 0.9280
vn 0.6059 -0.7644 0.2202
vn 0.0149 0.0453 0.9989
vn 0.1372 0.2276 0.9640
vn 0.7212 0.6308 0.2864
vn 0.6647 -0.7151 0.2162
vn 0.7947 0.4881 0.3609
vn -0.8636 -0.4807 -0.1522
vn 0.8582 0.4627 0.2224
vn -0.3576 0.3064 0.8822
vn -0.5701 -0.2381 0.7863
vn -0.8882 -0.3278 0.3220
vn -0.1702 0.2029 0.9643
vn 0.6581 -0.6949 0.2897
vn -0.1769 0.2021 0.9633
vn 0.6022 -0.7741 0.1955
vn 0.7947 0.4881 0.3609
vn -0.6059 0.7766 -0.1728
vn -0.8199 -0.5267 0.2246
vn -0.1761 0.1132 0.9778
vn -0.6555 0.7256 -0.2095
vn -0.8562 -0.4890 -0.1666
vn 0.8704 0.4639 0.1649
vn 0.6475 -0.7030 0.2942
vn -0.0863 0.0527 0.9949
vn -0.8342 -0.3472 0.4284
vn 0.3083 0.1277 -0.9427
vn 0.7360 -0.2990 0.6074
vn 0.1007 -0.1315 -0.9862
vn 0.7595 -0.6474 0.0634
vn 0.7914 0.6111 0.0173
vn 0.0052 0.2948 0.9556
vn 0.8248 -0.5638 -0.0441
vn -0.0581 0.9910 0.1205
vn 0.0423 0.2431 0.9691
vn 0.0735 -0.8025 0.5921
vn 0.7786 0.6269 0.0280
vn 0.6221 0.5357 0.5710
vn 0.8653 -0.4830 -0.1342
vn 0.8991 0.4313 -0.0745
vn 0.3988 0.3519 0.8468
vn 0.0423 0.2431 0.9691
vn 0.8272 -0.5598 -0.0488
vn 0.3617 0.0029 -0.9323
vn -0.9189 -0.3931 0.0340
vn 0.9029 -0.4138 0.1158
vn 0.6682 -0.7407 -0.0696
vn -0.0800 -0.9964 -0.0287
vn -0.1372 -0.6011 -0.7873
vn 0.3083 0.1277 -0.9427
vn 0.4798 -0.8708 -0.1074
vn 0.7360 -0.2990 0.6074
vn -0.3154 -0.3648 -0.8760
vn -0.9580 -0.2518 0.1375
vn 0.9397 -0.3128 0.1384
vn -0.3301 -0.3574 -0.8737
vn 0.1732 0.4298 0.8862
vn -0.7381 -0.5018 0.4510
vn -0.8616 -0.4832 0.1557
vn 0.0994 -0.2492 -0.9634
vn -0.2409 -0.5557 -0.7957
vn 0.2399 -0.2281 -0.9436
vn 0.6671 -0.7418 -0.0685
vn -0.2839 -0.9339 -0.2171
vn -0.4382 -0.8719 -0.2186
vn -0.3087 -0.5948 -0.7423
vn -0.2409 -0.5557 -0.7957
vn -0.5588 -0.7800 -0.2817
vn -0.5521 0.8326 0.0442
vn -0.1511 0.2050 0.9670
vn -0.5556 0.7304 -0.3974
vn -0.8882 -0.3278 0.3220
vn -0.0581 0.9910 0.1205
vn -0.1579 0.2043 0.9661
vn -0.5574 0.7287 -0.3980
vn -0.8212 0.1436 0.5523
vn 0.6654 0.5325 0.5232
vn 0.3476 0.2877 0.8924
vn 0.7947 0.4881 0.3609
vn 0.0423 0.2431 0.9691
vn 0.8991 0.4313 -0.0745
vn 0.1459 -0.0905 -0.9852
vn 0.1445 0.3456 0.9272
vn -0.8610 -0.4677 0.1998
vn 0.5365 -0.8293 0.1563
vn 0.0994 -0.2492 -0.9634
vn 0.6755 -0.0782 -0.7332
vn 0.1732 0.4298 0.8862
vn -0.3301 -0.3574 -0.8737
vn -0.2923 -0.3423 -0.8930
vn -0.3301 -0.3574 -0.8737
vn -0.7034 -0.2364 -0.6703
vn 0.1732 0.4298 0.8862
vn 0.7928 -0.6060 0.0651
vn -0.5701 -0.2381 0.7863
vn -0.2541 0.3999 0.8806
vn -0.8942 -0.4475 0.0081
vn 0.3150 0.1951 -0.9288
vn -0.5398 -0.5696 -0.6198
vn -0.5701 -0.2381 0.7863
vn -0.8439 -0.5347 -0.0441
vn -0.8783 -0.4781 -0.0055
vn 0.6978 -0.6396 0.3225
vn -0.0127 0.0282 0.9995
vn 0.3030 0.1016 -0.9476
vn -0.7409 -0.4794 -0.4705
vn -0.2409 -0.5557 -0.7957
vn -0.5521 0.8326 0.0442
vn -0.1274 0.9293 0.3467
vn -0.3152 -0.0502 0.9477
vn -0.5552 0.7307 -0.3973
vn -0.8212 0.1436 0.5523
vn 0.6755 -0.0782 -0.7332
vn -0.0581 0.9910 0.1205
vn -0.3152 -0.0502 0.9477
vn -0.8212 0.1436 0.5523
vn 0.0735 -0.8025 0.5921
vn 0.0994 -0.2492 -0.9634
vn 0.5912 -0.8003 0.1004
vn 0.6755 -0.0782 -0.7332
vn -0.6303 -0.7256 0.2761
vn -0.8676 -0.4824 -0.1205
vn -0.5047 -0.4463 0.7390
vn 0.4979 -0.8671 0.0164
vn -0.1274 0.9293 0.3467
vn -0.4796 0.1784 0.8592
vn -0.5517 0.7339 -0.3963
vn -0.6021 0.7845 -0.1486
vn -0.8882 -0.3278 0.3220
vn -0.1274 0.9293 0.3467
vn -0.3152 -0.0502 0.9477
vn 0.1557 -0.9397 0.3044
vn 0.0710 0.2380 0.9687
vn 0.4656 -0.8792 0.1011
vn -0.9127 -0.4056 0.0498
vn -0.8334 -0.5260 -0.1697
vn -0.1575 0.0033 -0.9875
vn -0.7906 -0.5647 -0.2369
vn 0.2834 0.5415 0.7915
vn -0.4643 0.8847 0.0414
vn -0.8763 -0.4675 0.1166
vn -0.0831 -0.3413 -0.9363
vn 0.6851 -0.6792 -0.2634
vn -0.7691 -0.5808 -0.2668
vn -0.6302 -0.5362 -0.5616
vn -0.5521 0.8326 0.0442
vn -0.7398 -0.6579 -0.1410
vn -0.4022 -0.5828 -0.7061
vn -0.8676 -0.4824 -0.1205
vn -0.0841 0.1844 0.9793
vn 0.5690 -0.8067 0.1595
vn -0.1520 -0.1802 -0.9718
vn -0.9158 -0.3975 0.0576
vn -0.0800 -0.5397 -0.8381
vn 0.6126 -0.7680 -0.1868
vn -0.9158 -0.3975 0.0579
vn -0.6021 0.7845 -0.1486
vn -0.8340 -0.5179 0.1901
vn -0.6021 0.7845 -0.1486
vn -0.4503 0.2112 0.8675
vn -0.8722 -0.4771 0.1078
vn -0.2373 0.1010 -0.9662
vn -0.9126 -0.4060 0.0494
vn -0.6465 0.7614 -0.0485
vn 0.2199 0.4533 0.8638
vn -0.5955 0.8031 -0.0219
vn -0.9087 -0.4156 0.0397
vn -0.0528 -0.7908 -0.6098
vn -0.9098 -0.4128 -0.0421
vn 0.8867 0.4609 0.0359
vn -0.6368 -0.6053 0.4776
vn -0.8516 -0.4194 0.3145
vn 0.9794 0.1727 -0.1044
vn -0.9022 -0.4265 -0.0634
vn 0.8638 0.4214 -0.2763
vn -0.8516 -0.4194 0.3145
vn 0.0241 0.0751 0.9969
vn 0.6729 0.6547 0.3443
vn 0.7440 -0.6542 0.1358
vn 0.9732 0.2079 -0.0985
vn 0.0038 0.1537 0.9881
vn -0.9097 0.2963 -0.2911
vn 0.2947 0.9426 -0.1570
vn 0.3144 0.9347 -0.1656
vn 0.6810 0.6715 0.2920
vn 0.7185 0.6745 -0.1699
vn -0.0518 -0.9748 0.2169
vn -0.8649 0.4634 -0.1928
vn 0.0993 -0.2441 -0.9647
vn 0.2947 0.9426 -0.1570
vn 0.4968 -0.2032 0.8437
vn 0.7185 0.6745 -0.1699
vn 0.9447 -0.2092 0.2527
vn 0.5903 -0.4324 -0.6816
vn -0.8794 0.4197 -0.2247
vn 0.5091 -0.0009 -0.8607
vn 0.7820 0.6098 0.1287
vn -0.8182 0.5639 -0.1123
vn 0.0993 -0.2441 -0.9647
vn 0.2272 0.3003 -0.9264
vn 0.4547 0.7685 -0.4501
vn 0.4968 -0.2032 0.8437
vn 0.4872 -0.5249 -0.6979
vn 0.3620 0.7730 -0.5210
vn 0.7820 0.6098 0.1287
vn 0.3421 0.5458 -0.7649
vn 0.9093 -0.3507 0.2239
vn 0.6660 -0.3219 -0.6730
vn 0.9732 0.2079 -0.0985
vn -0.2644 -0.1489 -0.9529
vn -0.2821 -0.7110 -0.6441
vn -0.4755 -0.8018 0.3619
vn 0.3959 -0.0458 -0.9172
vn -0.8096 0.5775 -0.1050
vn 0.2627 -0.5459 -0.7956
vn 0.8891 0.4518 -0.0741
vn 0.7681 -0.5932 -0.2410
vn -0.1089 0.2614 -0.9591
vn -0.6662 0.7450 0.0345
vn 0.8898 0.4555 -0.0266
vn 0.8586 0.5125 0.0037
vn 0.0102 0.0688 0.9976
vn 0.8871 0.4482 -0.1107
vn 0.7412 -0.6509 -0.1645
vn 0.8586 0.5125 0.0037
vn -0.0193 0.4222 -0.9063
vn 0.4309 -0.2816 -0.8574
vn 0.8830 0.4602 0.0919
vn 0.0241 0.0751 0.9969
vn 0.9239 -0.3289 0.1956
vn 0.6449 0.3204 0.6939
vn -0.4755 -0.8018 0.3619
vn -0.5355 0.8401 -0.0858
vn 0.4082 -0.0493 -0.9116
vn 0.5310 -0.8469 0.0295
vn 0.0411 0.9430 -0.3303
vn 0.2073 0.6026 -0.7706
vn 0.6729 0.6547 0.3443
vn 0.9732 0.2079 -0.0985
vn 0.0411 0.9430 -0.3303
vn 0.0697 0.0115 -0.9975
vn 0.1543 0.6211 -0.7684
vn 0.8575 0.5031 -0.1075
vn 0.9298 0.0516 -0.3645
vn -0.0262 0.0165 0.9995
vn 0.0164 -0.0108 -0.9998
vn 0.7323 0.5809 0.3554
vn -0.1776 0.0878 0.9802
vn 0.6211 0.2582 0.7399
vn 0.6969 -0.7141 -0.0662
vn 0.8507 -0.4855 0.2017
vn 0.0241 0.0751 0.9969
vn 0.0411 0.9430 -0.3303
vn 0.6729 0.6547 0.3443
vn 0.1999 -0.6226 -0.7566
vn 0.5960 0.2000 0.7777
vn 0.7295 -0.6703 -0.1363
vn 0.9298 0.0516 -0.3645
vn 0.3718 -0.0391 -0.9275
vn 0.3581 -0.9326 -0.0439
vn -0.2821 -0.7110 -0.6441
vn 0.1500 0.0234 -0.9884
vn -0.9211 0.2961 -0.2527
vn 0.1523 0.0587 -0.9866
vn -0.1108 -0.6263 -0.7717
vn -0.5355 0.8401 -0.0858
vn 0.0262 -0.9972 -0.0698
vn 0.1500 0.0234 -0.9884
vn 0.3681 0.7706 -0.5202
vn -0.9221 0.3575 -0.1482
vn -0.3636 -0.4622 -0.8088
vn 0.3627 -0.3393 -0.8679
vn 0.2921 0.7972 -0.5283
vn -0.4543 -0.3527 -0.8181
vn -0.5041 0.7657 0.3996
vn -0.8146 -0.5618 0.1444
vn -0.8268 0.5609 -0.0435
vn -0.0907 -0.7033 -0.7051
vn 0.0703 -0.0885 -0.9936
vn -0.1714 -0.0084 0.9852
vn 0.2491 -0.1139 -0.9617
vn 0.7170 -0.6588 0.2279
vn 0.5638 0.8256 -0.0220
vn 0.6208 0.6031 0.5009
vn 0.3263 0.6065 0.7250
vn -0.8443 0.5355 -0.0198
vn -0.2509 -0.0069 0.9680
vn 0.5068 0.8620 0.0084
vn 0.5638 0.8256 -0.0220
vn -0.1108 -0.6263 -0.7717
vn 0.1836 -0.1155 -0.9762
vn -0.2599 -0.2243 -0.9392
vn -0.4716 -0.8305 -0.2963
vn -0.8872 0.4021 -0.2261
vn -0.4755 -0.8018 0.3619
vn -0.5355 0.8401 -0.0858
vn -0.5037 -0.0702 0.8610
vn -0.6721 -0.5730 0.4690
vn 0.8101 0.4734 0.3460
vn 0.8174 0.5741 0.0477
vn -0.0518 -0.9748 0.2169
vn -0.5037 -0.0702 0.8610
vn 0.5091 -0.0009 -0.8607
vn 0.4968 -0.2032 0.8437
vn 0.4258 0.4574 -0.7807
vn 0.7685 0.6285 0.1203
vn 0.7820 0.6098 0.1287
vn -0.0518 -0.9748 0.2169
vn -0.8969 0.3467 -0.2746
vn 0.5091 -0.0009 -0.8607
vn -0.5037 -0.0702 0.8610
vn -0.6721 -0.5730 0.4690
vn -0.8616 0.5076 0.0007
vn 0.0966 -0.2136 -0.9721
vn 0.2947 0.9426 -0.1570
vn 0.3144 0.9347 -0.1656
vn 0.4258 0.4574 -0.7807
vn 0.9529 -0.1876 0.2383
vn 0.3568 -0.0350 -0.9335
vn -0.8324 0.5509 -0.0593
vn 0.1104 -0.9900 -0.0875
vn -0.4668 -0.8391 -0.2794
vn -0.5041 0.7657 0.3996
vn -0.8146 -0.5618 0.1444
vn 0.2327 -0.0620 -0.9706
vn 0.3919 -0.3350 -0.8569
vn 0.5393 -0.8241 0.1732
vn -0.4668 -0.8391 -0.2794
vn -0.8146 -0.5618 0.1444
vn 0.0051 0.0623 -0.9980
vn 0.3489 -0.5255 -0.7759
vn -0.2046 -0.6165 -0.7603
vn 0.6965 -0.6554 0.2923
vn 0.0966 -0.2136 -0.9721
vn 0.4258 0.4574 -0.7807
vn 0.7810 0.6159 0.1028
vn -0.1139 0.2429 0.9633
vn 0.7618 0.6477 0.0122
vn -0.3287 0.1013 0.9390
vn -0.8208 0.5047 0.2675
vn 0.8357 0.3934 0.3832
vn 0.6538 0.1410 -0.7434
vn 0.2701 0.3706 -0.8887
vn 0.2009 0.1806 -0.9628
vn 0.8286 0.5586 -0.0384
vn 0.8376 0.5410 0.0754
vn 0.2833 -0.0230 -0.9588
vn -0.1108 -0.6263 -0.7717
vn -0.9235 0.3266 -0.2010
vn -0.3430 -0.9219 -0.1803
vn -0.9174 0.3924 0.0669
vn -0.2441 -0.1613 0.9563
vn -0.2807 -0.9459 -0.1626
vn -0.0262 0.0165 0.9995
vn 0.0164 -0.0108 -0.9998
vn 0.6208 0.6031 0.5009
vn 0.8152 -0.5396 0.2105
vn 0.0164 -0.0108 -0.9998
vn -0.2533 -0.1061 0.9616
vn -0.9378 0.2913 -0.1891
vn -0.3785 -0.8982 -0.2238
vn -0.8477 0.4964 -0.1869
vn -0.3800 -0.8799 0.2852
vn -0.4731 -0.2882 -0.8325
vn -0.5946 -0.4196 0.6858
vn -0.7676 -0.4228 0.4817
vn -0.7886 -0.6149 -0.0045
vn 0.3485 -0.9365 0.0382
vn -0.2103 0.0637 0.9756
vn 0.5583 -0.8254 -0.0839
vn -0.1843 -0.0024 0.9829
vn -0.4668 -0.8391 -0.2794
vn 0.2073 -0.0669 -0.9760
vn -0.2021 0.1336 0.9702
vn 0.7026 -0.6268 0.3370
vn -0.2788 0.9544 -0.1064
vn 0.0697 0.0115 -0.9975
vn 0.1959 0.2587 -0.9459
vn 0.8076 0.5897 0.0035
vn 0.8376 0.5410 0.0754
vn 0.8547 -0.5187 -0.0219
vn 0.8928 -0.1380 0.4288
vn -0.2803 0.0716 0.9572
vn -0.7676 -0.4228 0.4817
vn -0.4932 -0.8646 0.0963
vn -0.9451 0.3261 0.0209
vn -0.1997 -0.0782 0.9767
vn -0.9445 0.3273 0.0273
vn 0.1376 0.4329 0.8909
vn 0.1600 -0.9544 0.2522
vn 0.5583 -0.8254 -0.0839
vn -0.1620 -0.0026 0.9868
vn 0.0998 0.5599 0.8225
vn 0.8258 0.5636 -0.0194
vn 0.1609 -0.1651 -0.9731
vn -0.2428 0.1649 0.9560
vn 0.0998 0.5599 0.8225
vn 0.1376 0.4329 0.8909
vn 0.8258 0.5636 -0.0194
vn -0.3800 -0.8799 0.2852
vn -0.5041 0.7657 0.3996
vn -0.7877 0.6072 -0.1041
vn -0.7886 -0.6149 -0.0045
vn 0.2019 -0.0814 -0.9760
vn -0.2322 0.0073 0.9726
vn -0.2021 0.1336 0.9702
vn 0.1620 -0.1074 -0.9809
vn -0.7320 0.0904 -0.6753
vn 0.0051 0.0623 -0.9980
vn 0.6013 -0.7232 0.3396
vn -0.6946 -0.7193 -0.0119
vn -0.3800 -0.8799 0.2852
vn -0.2021 0.1336 0.9702
vn 0.5813 -0.7773 0.2408
vn 0.1035 -0.1746 -0.9792
vn -0.2854 0.0182 0.9582
vn -0.0089 -0.0837 -0.9964
vn -0.6721 -0.5730 0.4690
vn -0.8072 0.0150 0.5901
vn 0.0966 -0.2136 -0.9721
vn 0.8101 0.4734 0.3460
vn 0.8945 0.4130 0.1712
vn 0.8276 0.5606 0.0307
vn -0.7174 -0.4934 -0.4919
vn -0.1857 -0.0394 0.9818
vn 0.3518 0.5370 -0.7667
vn -0.4731 -0.2882 -0.8325
vn -0.8971 -0.4345 -0.0800
vn 0.1600 -0.9544 0.2522
vn 0.5583 -0.8254 -0.0839
vn -0.3457 -0.6514 -0.6754
vn -0.7994 -0.5540 0.2326
vn -0.3006 -0.0157 0.9536
vn -0.8971 -0.4345 -0.0800
vn 0.1600 -0.9544 0.2522
vn -0.3660 0.0350 0.9300
vn -0.6943 -0.5470 -0.4676
vn -0.2932 -0.0185 0.9559
vn 0.0541 -0.0330 -0.9980
vn 0.3800 0.5513 -0.7427
vn 0.1723 -0.5679 -0.8048
vn -0.9021 -0.4234 -0.0839
vn 0.5393 -0.8241 0.1732
vn -0.2252 -0.0674 0.9720
vn 0.0697 -0.0698 -0.9951
vn -0.6012 0.7432 -0.2936
vn -0.3014 -0.0250 0.9532
vn -0.8199 -0.5297 0.2172
vn 0.1734 -0.1394 -0.9749
vn -0.2839 0.0393 0.9580
vn -0.8177 -0.5552 0.1518
vn 0.7149 -0.6916 0.1030
vn -0.5946 -0.4196 0.6858
vn 0.5976 -0.8008 -0.0403
vn -0.1823 0.0586 0.9815
vn 0.4625 -0.8570 0.2273
vn -0.1829 0.0587 0.9814
vn -0.7631 -0.6424 0.0714
vn 0.0541 0.1342 -0.9895
vn 0.6759 -0.7349 -0.0555
vn 0.2701 0.3706 -0.8887
vn 0.3383 -0.8037 0.4895
vn 0.8201 -0.5262 0.2247
vn -0.2167 -0.6688 -0.7112
vn -0.7059 -0.7082 -0.0096
vn -0.7320 0.0904 -0.6753
vn -0.0195 0.0628 0.9978
vn 0.0703 -0.0885 -0.9936
vn 0.5683 -0.4313 0.7007
vn -0.7453 -0.4134 -0.5231
vn 0.2197 0.1443 -0.9648
vn -0.8335 -0.4811 -0.2717
vn -0.7819 -0.6206 -0.0600
vn 0.0052 0.9297 0.3682
vn 0.1611 0.8937 -0.4187
vn 0.1231 0.0390 0.9916
vn 0.3380 0.1817 -0.9234
vn -0.8172 -0.5659 -0.1093
vn 0.8914 0.3740 0.2561
vn 0.3880 -0.1360 -0.9116
vn -0.6966 -0.5646 -0.4428
vn 0.5393 -0.8241 0.1732
vn -0.2330 -0.8829 0.4076
vn 0.1858 -0.1157 -0.9757
vn -0.7069 -0.5709 -0.4175
vn -0.9111 -0.3752 0.1709
vn -0.7405 -0.6535 -0.1568
vn -0.0484 0.9928 -0.1095
vn 0.2900 0.0765 -0.9540
vn -0.0484 0.9928 -0.1095
vn -0.7668 -0.5415 0.3446
vn -0.8083 0.5090 -0.2959
vn 0.0183 0.0048 -0.9998
vn -0.3457 -0.6514 -0.6754
vn -0.4064 -0.5781 -0.7075
vn -0.1103 0.1275 0.9857
vn -0.6480 0.7615 -0.0109
vn -0.8422 -0.5189 0.1462
vn 0.2010 -0.5820 -0.7879
vn -0.8936 -0.4341 0.1141
vn 0.0092 0.0911 -0.9958
vn -0.2167 -0.6688 -0.7112
vn -0.7320 0.0904 -0.6753
vn 0.0051 0.0623 -0.9980
vn -0.2689 -0.6096 -0.7457
vn -0.9381 -0.3407 -0.0627
vn 0.0523 0.0110 -0.9986
vn -0.3457 -0.6514 -0.6754
vn -0.4731 -0.2882 -0.8325
vn -0.5946 -0.4196 0.6858
vn -0.8971 -0.4345 -0.0800
vn -0.0748 0.1240 0.9895
vn 0.5665 -0.8203 0.0784
vn -0.5948 0.7206 -0.3562
vn -0.8605 -0.5092 0.0151
vn -0.3025 -0.0256 0.9528
vn -0.0845 0.0386 0.9957
vn -0.2167 -0.6688 -0.7112
vn 0.0812 -0.0563 -0.9951
vn -0.8563 -0.5164 -0.0039
vn -0.8012 -0.5838 0.1314
vn 0.0448 -0.9984 -0.0336
vn -0.1797 -0.2420 -0.9535
vn -0.7165 -0.4956 -0.4909
vn -0.7819 -0.6206 -0.0600
vn 0.0052 0.9297 0.3682
vn -0.8164 0.4249 -0.3912
vn 0.0389 -0.0117 0.9992
vn 0.2761 -0.0489 -0.9599
vn -0.7668 -0.5415 0.3446
vn -0.8342 -0.3472 0.4284
vn 0.3083 0.1277 -0.9427
vn -0.0484 0.9928 -0.1095
vn -0.7384 0.6600 -0.1384
vn 0.2562 -0.0577 -0.9649
vn 0.0658 -0.0392 -0.9971
vn -0.1797 -0.2420 -0.9535
vn -0.3467 0.9351 -0.0737
vn -0.2595 -0.3101 -0.9146
vn -0.8844 -0.4660 -0.0238
vn -0.7819 -0.6206 -0.0600
vn 0.1611 0.8937 -0.4187
vn 0.8914 0.3740 0.2561
vn -0.1797 -0.2420 -0.9535
vn 0.0052 0.9297 0.3682
vn 0.8914 0.3740 0.2561
vn -0.2330 -0.8829 0.4076
vn -0.8027 -0.1618 -0.5740
vn -0.3818 -0.4678 -0.7971
vn -0.8130 -0.5780 -0.0701
vn -0.2330 -0.8829 0.4076
vn -0.3194 -0.5503 -0.7714
vn -0.9296 -0.3649 0.0519
vn -0.4064 -0.5781 -0.7075
vn -0.6365 0.7709 -0.0240
vn -0.4427 -0.1239 0.8881
vn 0.5091 -0.8264 0.2407
vn -0.1453 0.0519 0.9880
vn -0.8358 -0.5073 0.2100
vn 0.0448 -0.9984 -0.0336
vn -0.1608 0.1322 0.9781
vn -0.8921 -0.4501 0.0396
vn -0.7084 0.7045 -0.0427
vn -0.6726 0.7382 -0.0517
vn -0.1257 -0.0842 -0.9885
vn -0.8136 -0.5773 -0.0694
vn -0.8516 -0.1528 -0.5014
vn -0.3079 -0.5644 -0.7659
vn 0.1225 -0.0836 -0.9889
vn -0.7204 0.6859 -0.1029
vn -0.8112 -0.5848 -0.0010
vn -0.1082 0.1273 0.9860
vn 0.4955 -0.8246 0.2728
vn -0.8799 -0.4746 0.0238
vn 0.0448 -0.9984 -0.0336
vn 0.1184 -0.1006 -0.9879
vn -0.8721 -0.4891 0.0143
vn -0.7021 0.7056 -0.0955
vn -0.6303 -0.7256 0.2761
vn -0.7031 -0.6373 0.3155
vn -0.6699 -0.4382 0.5993
vn -0.7034 -0.2364 -0.6703
vn 0.4798 -0.8708 -0.1074
vn 0.7226 -0.6902 0.0385
vn -0.1382 -0.9902 0.0217
vn -0.3467 0.9351 -0.0737
vn -0.6160 0.7869 0.0362
vn -0.7570 0.6242 -0.1932
vn -0.8500 -0.1532 -0.5040
vn 0.2662 0.0525 0.9625
vn -0.8800 -0.4736 0.0352
vn 0.1611 0.8937 -0.4187
vn -0.1382 -0.9902 0.0217
vn -0.4064 -0.5781 -0.7075
vn -0.4180 -0.1279 0.8994
vn -0.6160 0.7869 0.0362
vn -0.8808 -0.4713 -0.0463
vn -0.6990 -0.6475 0.3036
vn -0.8146 -0.5798 0.0171
vn -0.1382 -0.9902 0.0217
vn -0.2322 -0.2832 -0.9305
vn -0.3467 0.9351 -0.0737
vn -0.6310 -0.7617 0.1470
vn -0.7034 -0.2364 -0.6703
vn -0.8112 -0.5848 -0.0010
vn -0.7450 0.6626 -0.0768
vn -0.4176 -0.1279 0.8996
vn -0.3911 -0.1320 0.9108
vn -0.6160 0.7869 0.0362
vn -0.8112 -0.5848 -0.0010
vn -0.8761 -0.1473 -0.4590
vn -0.2010 -0.6010 -0.7736
vn -0.6303 -0.7256 0.2761
vn -0.8676 -0.4824 -0.1205
vn 0.4798 -0.8708 -0.1074
vn 0.3366 0.0250 -0.9413
vn 0.2501 0.5862 -0.7706
vn 0.8718 0.4664 -0.1499
vn 0.4606 -0.4096 -0.7874
vn 0.4994 0.1532 -0.8527
vn -0.1516 -0.0296 0.9880
vn 0.3599 0.9316 0.0512
vn 0.2607 0.9554 -0.1388
vn -0.9336 -0.0818 -0.3488
vn 0.0689 0.2114 -0.9750
vn 0.0135 0.2413 -0.9704
vn 0.3272 0.9410 0.0859
vn -0.9789 -0.0307 -0.2023
vn -0.1567 -0.0230 0.9874
vn 0.1321 0.9182 -0.3734
vn 0.6756 -0.0505 0.7355
vn 0.0144 0.4003 0.9163
vn 0.6756 -0.0505 0.7355
vn -0.9462 0.1588 -0.2819
vn 0.4625 0.0915 -0.8819
vn 0.1793 0.9748 -0.1328
vn -0.9780 -0.0199 -0.2075
vn -0.0284 0.2632 -0.9643
vn 0.3697 0.9283 0.0406
vn 0.1176 0.9848 -0.1276
vn -0.9526 -0.0677 -0.2966
vn 0.4287 0.8066 -0.4070
vn -0.9914 -0.0442 -0.1229
vn 0.0600 0.9310 -0.3600
vn 0.6756 -0.0505 0.7355
vn -0.9923 0.0228 -0.1219
vn -0.1862 0.0160 0.9824
vn 0.4087 0.9127 -0.0027
vn -0.1483 -0.4674 -0.8715
vn 0.3942 -0.0130 -0.9189
vn -0.0854 -0.2877 -0.9539
vn -0.9462 0.1588 -0.2819
vn 0.1428 0.8210 -0.5527
vn 0.1371 0.7285 0.6712
vn -0.9735 -0.0216 -0.2277
vn -0.4472 -0.5265 -0.7230
vn 0.4705 0.0377 0.8816
vn 0.1995 0.5717 0.7958
vn 0.9049 -0.2140 0.3679
vn -0.1342 -0.1285 -0.9826
vn -0.1399 -0.2939 -0.9455
vn 0.0144 0.4003 0.9163
vn 0.1428 0.8210 -0.5527
vn 0.2272 0.3003 -0.9264
vn 0.4547 0.7685 -0.4501
vn 0.9456 -0.3102 0.0978
vn 0.9451 -0.2999 -0.1299
vn -0.1342 -0.1285 -0.9826
vn 0.1313 0.7289 -0.6719
vn 0.4359 0.8591 -0.2683
vn 0.8363 0.5427 -0.0779
vn 0.9451 -0.2999 -0.1299
vn -0.9462 0.1588 -0.2819
vn 0.1428 0.8210 -0.5527
vn -0.0214 0.9932 -0.1144
vn 0.2996 0.6697 0.6795
vn 0.7728 -0.2459 0.5851
vn -0.9953 -0.0954 0.0186
vn 0.8363 0.5427 -0.0779
vn 0.2980 0.8682 -0.3968
vn 0.9451 -0.2999 -0.1299
vn 0.4359 0.8591 -0.2683
vn 0.9015 -0.2446 0.3570
vn 0.8363 0.5427 -0.0779
vn 0.0703 0.3092 0.9484
vn 0.9118 0.4061 0.0610
vn 0.9477 0.0494 -0.3153
vn 0.1313 0.7289 -0.6719
vn 0.4230 0.2122 -0.8809
vn 0.4359 0.8591 -0.2683
vn 0.9477 0.0494 -0.3153
vn -0.4472 -0.5265 -0.7230
vn 0.4681 -0.0436 -0.8826
vn 0.9587 -0.2647 0.1040
vn -0.4249 -0.2918 0.8569
vn 0.6810 0.6715 0.2920
vn 0.9532 -0.3009 -0.0284
vn 0.1062 0.4094 0.9061
vn 0.5153 0.8398 0.1710
vn 0.0978 0.6362 0.7653
vn 0.4681 -0.0436 -0.8826
vn 0.4705 0.0377 0.8816
vn 0.0144 0.4003 0.9163
vn 0.3390 0.9384 -0.0671
vn 0.1603 0.3295 -0.9305
vn 0.9118 0.4061 0.0610
vn 0.9477 0.0494 -0.3153
vn 0.3225 0.9446 -0.0603
vn 0.0391 0.1096 0.9932
vn 0.9118 0.4061 0.0610
vn -0.2055 -0.2218 0.9532
vn -0.4318 -0.6425 0.6330
vn 0.3958 0.9100 -0.1232
vn -0.4472 -0.5265 -0.7230
vn 0.4681 -0.0436 -0.8826
vn 0.4705 0.0377 0.8816
vn -0.4890 -0.8619 0.1344
vn 0.9372 -0.3343 0.0995
vn -0.2273 -0.5069 -0.8315
vn -0.4302 -0.8761 -0.2176
vn -0.5770 -0.8045 0.1410
vn -0.1831 -0.0632 0.9811
vn 0.3319 0.9411 -0.0642
vn -0.9108 0.2793 -0.3041
vn 0.1040 0.3503 -0.9308
vn -0.1342 -0.1285 -0.9826
vn -0.9088 0.1753 -0.3787
vn 0.3419 0.2522 -0.9053
vn 0.0993 -0.2441 -0.9647
vn 0.1313 0.7289 -0.6719
vn 0.2272 0.3003 -0.9264
vn 0.7185 0.6745 -0.1699
vn -0.2821 -0.7110 -0.6441
vn 0.1523 0.0587 -0.9866
vn 0.9345 -0.3231 0.1496
vn -0.2347 -0.4595 -0.8566
vn 0.3154 0.9472 -0.0573
vn -0.0086 0.0742 0.9972
vn -0.8788 0.4485 -0.1631
vn 0.3109 -0.0589 -0.9486
vn -0.4391 -0.8674 -0.2341
vn 0.1523 0.0587 -0.9866
vn 0.1500 0.0234 -0.9884
vn 0.4221 0.7480 -0.5122
vn 0.4547 0.7685 -0.4501
vn 0.9621 -0.2680 0.0496
vn 0.1113 -0.0476 -0.9926
vn -0.4257 -0.6652 0.6134
vn 0.2276 0.0446 -0.9727
vn 0.3258 0.7076 0.6270
vn -0.1381 0.0663 0.9882
vn -0.5085 -0.8193 -0.2647
vn 0.2102 -0.1040 -0.9721
vn -0.4653 -0.8349 -0.2940
vn 0.0932 -0.1534 -0.9838
vn -0.8974 0.3827 -0.2197
vn -0.8477 0.4964 -0.1869
vn 0.3266 0.6820 0.6544
vn 0.9441 -0.2970 0.1430
vn 0.5150 0.8274 0.2241
vn 0.3269 0.6390 0.6963
vn -0.9077 0.4194 0.0096
vn -0.1372 0.0776 0.9875
vn -0.3509 -0.8432 0.4073
vn 0.3958 0.9100 -0.1232
vn -0.0262 0.0165 0.9995
vn -0.4249 -0.2918 0.8569
vn -0.8616 0.5076 0.0007
vn 0.5040 0.8635 -0.0199
vn 0.5638 0.8256 -0.0220
vn 0.6208 0.6031 0.5009
vn 0.9719 -0.1263 0.1987
vn 0.6641 0.3795 0.6442
vn -0.4249 -0.2918 0.8569
vn -0.8616 0.5076 0.0007
vn 0.3144 0.9347 -0.1656
vn 0.6810 0.6715 0.2920
vn -0.5441 -0.8368 0.0612
vn -0.3394 -0.8610 0.3787
vn 0.2531 0.0653 -0.9652
vn -0.8930 0.4485 0.0364
vn -0.2438 -0.1658 0.9555
vn -0.7676 -0.4228 0.4817
vn -0.7886 -0.6149 -0.0045
vn -0.9445 0.3273 0.0273
vn 0.3958 0.9100 -0.1232
vn 0.2581 -0.1722 -0.9506
vn 0.7149 -0.6916 0.1030
vn 0.7324 -0.6349 0.2459
vn 0.9075 0.4102 0.0899
vn 0.9075 0.4102 0.0899
vn 0.5034 0.0367 -0.8633
vn 0.7374 0.5529 0.3879
vn 0.7663 -0.6035 0.2203
vn -0.1988 0.0743 0.9772
vn 0.6854 0.5663 0.4577
vn 0.7324 -0.6349 0.2459
vn 0.9075 0.4102 0.0899
vn -0.5269 -0.8496 0.0231
vn -0.2075 -0.0853 0.9745
vn -0.9445 0.3273 0.0273
vn -0.4926 -0.8643 0.1016
vn -0.9436 0.3311 0.0057
vn -0.1375 0.0739 0.9877
vn -0.9061 0.4228 0.0136
vn -0.2280 0.0039 0.9737
vn 0.0998 0.5599 0.8225
vn 0.1376 0.4329 0.8909
vn -0.3553 -0.8621 -0.3612
vn -0.2144 -0.1026 0.9713
vn -0.8477 0.4964 -0.1869
vn -0.8182 -0.5525 0.1592
vn -0.2088 0.0569 0.9763
vn 0.7149 -0.6916 0.1030
vn 0.7324 -0.6349 0.2459
vn 0.0000 1.0000 0.0000
vn 0.0000 1.0000 0.0000
vn 0.0000 1.0000 0.0000
vn 0.0000 1.0000 0.0000
vn 0.0000 1.0000 0.0000
vn 0.0000 1.0000 0.0000
vn 0.0000 1.0000 0.0000
vn 0.0000 1.0000 0.0000
vn 0.0000 1.0000 0.0000
vn 0.0000 1.0000 0.0000
vn 0.0000 1.0000 0.0000
vn 0.0000 1.0000 0.0000
vn 0.0000 1.0000 0.0000
vn 0.0000 1.0000 0.0000
vn 0.0000 1.0000 0.0000
vn 0.0000 1.0000 0.0000
vn 0.0000 1.0000 0.0000
vn 0.0000 1.0000 0.0000
vn 0.0000 1.0000 0.0000
vn 0.0000 1.0000 0.0000
vn 0.0000 1.0000 0.0000
vn 0.0000 1.0000 0.0000
vn 0.0000 1.0000 0.0000
vn 0.0000 1.0000 0.0000
vn 0.0000 1.0000 0.0000
vn 0.0000 1.0000 0.0000
vn 0.0000 1.0000 0.0000
vn 0.0000 1.0000 0.0000
vn 0.0000 1.0000 0.0000
vn 0.0000 1.0000 0.0000
vn 0.0000 1.0000 0.0000
vn 0.0000 1.0000 0.0000
vn 0.0000 1.0000 0.0000
vn 0.0000 1.0000 0.0000
vn 0.0000 1.0000 0.0000
vn 0.0000 1.0000 0.0000
vn 0.0000 1.0000 0.0000
vn 0.0000 1.0000 0.0000
vn 0.0000 1.0000 0.0000
vn 0.0000 1.0000 0.0000
vn 0.0000 1.0000 0.0000
vn 0.0000 1.0000 0.0000
vn 0.0000 1.0000 0.0000
vn 0.0000 1.0000 0.0000
vn 0.0000 1.0000 0.0000
vn 0.0000 1.0000 0.0000
vn 0.0000 1.0000 0.0000
vn 0.0000 1.0000 0.0000
vn 0.0000 1.0000 0.0000
vn 0.0000 1.0000 0.0000
vn 0.0000 1.0000 0.0000
vn 0.0000 1.0000 0.0000
vn 0.0000 1.0000 0.0000
vn 0.0000 1.0000 0.0000
vn 0.0000 1.0000 0.0000
vn 0.0000 1.0000 0.0000
vn 0.0000 1.0000 0.0000
vn 0.0000 1.0000 0.0000
vn 0.0000 1.0000 0.0000
vn 0.0000 1.0000 0.0000
vn 0.0000 1.0000 0.0000
vn 0.0000 1.0000 0.0000
vn 0.0000 1.0000 0.0000
vn 0.0000 1.0000 0.0000
vn 0.0000 1.0000 0.0000
vn 0.0000 1.0000 0.0000
vn 0.0000 1.0000 0.0000
f 798/798/798 803/803/803 815/815/815
f 824/824/824 798/798/798 815/815/815
f 814/814/814 802/802/802 801/801/801
f 796/796/796 826/826/826 811/811/811
f 799/799/799 812/812/812 816/816/816
f 813/813/813 800/800/800 817/817/817
f 807/807/807 821/821/821 809/809/809
f 805/805/805 797/797/797 823/823/823
f 804/804/804 813/813/813 817/817/817
f 822/822/822 813/813/813 804/804/804
f 851/851/851 816/816/816 812/812/812
f 806/806/806 818/818/818 856/856/856
f 806/806/806 856/856/856 820/820/820
f 810/810/810 828/828/828 849/849/849
f 854/854/854 831/831/831 819/819/819
f 827/827/827 825/825/825 837/837/837
f 830/830/830 852/852/852 834/834/834
f 850/850/850 829/829/829 839/839/839
f 843/843/843 848/848/848 857/857/857
f 855/855/855 847/847/847 860/860/860
f 858/858/858 846/846/846 866/866/866
f 853/853/853 859/859/859 835/835/835
f 876/876/876 830/830/830 834/834/834
f 922/922/922 842/842/842 911/911/911
f 870/870/870 835/835/835 859/859/859
f 859/859/859 873/873/873 870/870/870
f 845/845/845 906/906/906 864/864/864
f 836/836/836 902/902/902 844/844/844
f 873/873/873 935/935/935 870/870/870
f 842/842/842 894/894/894 911/911/911
f 878/878/878 833/833/833 892/892/892
f 861/861/861 357/357/357 874/874/874
f 867/867/867 883/883/883 863/863/863
f 868/868/868 890/890/890 832/832/832
f 838/838/838 879/879/879 808/808/808
f 886/886/886 862/862/862 882/882/882
f 865/865/865 904/904/904 881/881/881
f 885/885/885 914/914/914 861/861/861
f 899/899/899 884/884/884 880/880/880
f 869/869/869 877/877/877 891/891/891
f 357/357/357 861/861/861 914/914/914
f 881/881/881 904/904/904 901/901/901
f 913/913/913 884/884/884 899/899/899
f 358/358/358 900/900/900 903/903/903
f 910/910/910 440/440/440 918/918/918
f 468/468/468 912/912/912 895/895/895
f 908/908/908 368/368/368 362/362/362
f 893/893/893 978/978/978 561/561/561
f 915/915/915 900/900/900 358/358/358
f 907/907/907 840/840/840 376/376/376
f 377/377/377 841/841/841 921/921/921
f 872/872/872 361/361/361 953/953/953
f 469/469/469 896/896/896 917/917/917
f 936/936/936 875/875/875 464/464/464
f 415/415/415 356/356/356 385/385/385
f 438/438/438 444/444/444 919/919/919
f 494/494/494 369/369/369 383/383/383
f 920/920/920 445/445/445 380/380/380
f 929/929/929 931/931/931 467/467/467
f 406/406/406 383/383/383 355/355/355
f 428/428/428 405/405/405 353/353/353
f 365/365/365 905/905/905 375/375/375
f 956/956/956 925/925/925 923/923/923
f 360/360/360 492/492/492 952/952/952
f 383/383/383 406/406/406 494/494/494
f 430/430/430 354/354/354 414/414/414
f 464/464/464 875/875/875 945/945/945
f 929/929/929 467/467/467 916/916/916
f 926/926/926 934/934/934 937/937/937
f 359/359/359 366/366/366 491/491/491
f 912/912/912 468/468/468 386/386/386
f 924/924/924 940/940/940 888/888/888
f 400/400/400 433/433/433 393/393/393
f 943/943/943 871/871/871 950/950/950
f 927/927/927 939/939/939 980/980/980
f 944/944/944 951/951/951 489/489/489
f 363/363/363 484/484/484 477/477/477
f 364/364/364 371/371/371 485/485/485
f 948/948/948 494/494/494 406/406/406
f 371/371/371 364/364/364 374/374/374
f 378/378/378 367/367/367 480/480/480
f 934/934/934 461/461/461 937/937/937
f 382/382/382 793/793/793 413/413/413
f 898/898/898 563/563/563 976/976/976
f 909/909/909 387/387/387 437/437/437
f 373/373/373 381/381/381 483/483/483
f 370/370/370 795/795/795 384/384/384
f 401/401/401 397/397/397 8/8/8
f 370/370/370 379/379/379 795/795/795
f 392/392/392 396/396/396 399/399/399
f 392/392/392 404/404/404 396/396/396
f 391/391/391 15/15/15 403/403/403
f 449/449/449 380/380/380 445/445/445
f 413/413/413 793/793/793 418/418/418
f 391/391/391 431/431/431 15/15/15
f 946/946/946 459/459/459 465/465/465
f 949/949/949 407/407/407 425/425/425
f 433/433/433 400/400/400 426/426/426
f 471/471/471 408/408/408 388/388/388
f 9/9/9 394/394/394 402/402/402
f 9/9/9 402/402/402 14/14/14
f 412/412/412 416/416/416 429/429/429
f 448/448/448 795/795/795 379/379/379
f 372/372/372 479/479/479 486/486/486
f 389/389/389 410/410/410 435/435/435
f 462/462/462 981/981/981 938/938/938
f 942/942/942 421/421/421 530/530/530
f 398/398/398 6/6/6 424/424/424
f 425/425/425 407/407/407 432/432/432
f 443/443/443 436/436/436 411/411/411
f 511/511/511 493/493/493 481/481/481
f 887/887/887 528/528/528 535/535/535
f 924/924/924 955/955/955 940/940/940
f 446/446/446 439/439/439 390/390/390
f 472/472/472 442/442/442 409/409/409
f 447/447/447 508/508/508 450/450/450
f 966/966/966 967/967/967 974/974/974
f 390/390/390 453/453/453 446/446/446
f 508/508/508 447/447/447 454/454/454
f 456/456/456 982/982/982 463/463/463
f 7/7/7 395/395/395 10/10/10
f 975/975/975 954/954/954 897/897/897
f 17/17/17 434/434/434 420/420/420
f 441/441/441 466/466/466 524/524/524
f 963/963/963 457/457/457 968/968/968
f 562/562/562 938/938/938 981/981/981
f 470/470/470 932/932/932 525/525/525
f 947/947/947 532/532/532 460/460/460
f 938/938/938 562/562/562 979/979/979
f 20/20/20 11/11/11 16/16/16
f 435/435/435 495/495/495 389/389/389
f 487/487/487 473/473/473 478/478/478
f 452/452/452 500/500/500 505/505/505
f 488/488/488 594/594/594 474/474/474
f 932/932/932 536/536/536 525/525/525
f 22/22/22 7/7/7 10/10/10
f 390/390/390 496/496/496 453/453/453
f 941/941/941 962/962/962 889/889/889
f 577/577/577 499/499/499 451/451/451
f 928/928/928 985/985/985 930/930/930
f 528/528/528 887/887/887 958/958/958
f 533/533/533 427/427/427 970/970/970
f 490/490/490 510/510/510 596/596/596
f 502/502/502 448/448/448 507/507/507
f 984/984/984 574/574/574 565/565/565
f 792/792/792 665/665/665 520/520/520
f 498/498/498 548/548/548 504/504/504
f 986/986/986 887/887/887 535/535/535
f 476/476/476 512/512/512 482/482/482
f 933/933/933 987/987/987 538/538/538
f 20/20/20 23/23/23 11/11/11
f 496/496/496 578/578/578 453/453/453
f 6/6/6 515/515/515 424/424/424
f 22/22/22 516/516/516 7/7/7
f 419/419/419 794/794/794 521/521/521
f 423/423/423 134/134/134 969/969/969
f 795/795/795 448/448/448 523/523/523
f 443/443/443 526/526/526 529/529/529
f 572/572/572 626/626/626 559/559/559
f 422/422/422 531/531/531 534/534/534
f 533/533/533 970/970/970 458/458/458
f 965/965/965 973/973/973 991/991/991
f 963/963/963 571/571/571 457/457/457
f 564/564/564 961/961/961 977/977/977
f 436/436/436 443/443/443 497/497/497
f 529/529/529 526/526/526 537/537/537
f 560/560/560 542/542/542 959/959/959
f 20/20/20 26/26/26 23/23/23
f 963/963/963 625/625/625 571/571/571
f 964/964/964 990/990/990 628/628/628
f 578/578/578 496/496/496 957/957/957
f 609/609/609 559/559/559 626/626/626
f 546/546/546 567/567/567 606/606/606
f 573/573/573 983/983/983 569/569/569
f 527/527/527 957/957/957 496/496/496
f 549/549/549 501/501/501 580/580/580
f 12/12/12 417/417/417 553/553/553
f 134/134/134 972/972/972 969/969/969
f 551/551/551 590/590/590 509/509/509
f 419/419/419 521/521/521 555/555/555
f 423/423/423 514/514/514 134/134/134
f 13/13/13 554/554/554 18/18/18
f 529/529/529 497/497/497 443/443/443
f 24/24/24 19/19/19 30/30/30
f 457/457/457 571/571/571 156/156/156
f 448/448/448 502/502/502 523/523/523
f 31/31/31 21/21/21 25/25/25
f 611/611/611 605/605/605 566/566/566
f 568/568/568 982/982/982 456/456/456
f 19/19/19 552/552/552 30/30/30
f 549/549/549 580/580/580 583/583/583
f 52/52/52 28/28/28 68/68/68
f 29/29/29 33/33/33 66/66/66
f 575/575/575 570/570/570 163/163/163
f 656/656/656 523/523/523 502/502/502
f 960/960/960 543/543/543 579/579/579
f 21/21/21 31/31/31 513/513/513
f 130/130/130 972/972/972 134/134/134
f 556/556/556 522/522/522 54/54/54
f 65/65/65 50/50/50 43/43/43
f 40/40/40 136/136/136 517/517/517
f 589/589/589 550/550/550 582/582/582
f 591/591/591 583/583/583 580/580/580
f 603/603/603 685/685/685 540/540/540
f 590/590/590 586/586/586 509/509/509
f 64/64/64 42/42/42 61/61/61
f 46/46/46 52/52/52 68/68/68
f 588/588/588 576/576/576 539/539/539
f 989/989/989 971/971/971 196/196/196
f 49/49/49 74/74/74 41/41/41
f 50/50/50 65/65/65 90/90/90
f 519/519/519 637/637/637 53/53/53
f 34/34/34 558/558/558 70/70/70
f 581/581/581 547/547/547 592/592/592
f 599/599/599 512/512/512 476/476/476
f 102/102/102 44/44/44 67/67/67
f 620/620/620 601/601/601 614/614/614
f 67/67/67 58/58/58 102/102/102
f 675/675/675 502/502/502 507/507/507
f 687/687/687 604/604/604 610/610/610
f 581/581/581 592/592/592 612/612/612
f 27/27/27 47/47/47 35/35/35
f 60/60/60 87/87/87 63/63/63
f 69/69/69 557/557/557 55/55/55
f 157/157/157 568/568/568 456/456/456
f 597/597/597 475/475/475 106/106/106
f 71/71/71 42/42/42 75/75/75
f 74/74/74 49/49/49 81/81/81
f 795/795/795 523/523/523 712/712/712
f 665/665/665 792/792/792 711/711/711
f 56/56/56 639/639/639 83/83/83
f 595/595/595 110/110/110 105/105/105
f 518/518/518 32/32/32 39/39/39
f 658/658/658 503/503/503 619/619/619
f 101/101/101 57/57/57 85/85/85
f 61/61/61 42/42/42 71/71/71
f 647/647/647 616/616/616 602/602/602
f 50/50/50 90/90/90 99/99/99
f 136/136/136 40/40/40 37/37/37
f 88/88/88 91/91/91 94/94/94
f 675/675/675 617/617/617 502/502/502
f 615/615/615 647/647/647 621/621/621
f 544/544/544 632/632/632 590/590/590
f 988/988/988 624/624/624 627/627/627
f 83/83/83 639/639/639 122/122/122
f 593/593/593 111/111/111 107/107/107
f 93/93/93 38/38/38 96/96/96
f 78/78/78 48/48/48 141/141/141
f 89/89/89 95/95/95 98/98/98
f 585/585/585 680/680/680 506/506/506
f 95/95/95 36/36/36 98/98/98
f 51/51/51 45/45/45 103/103/103
f 104/104/104 113/113/113 598/598/598
f 108/108/108 112/112/112 344/344/344
f 105/105/105 110/110/110 117/117/117
f 73/73/73 76/76/76 82/82/82
f 93/93/93 182/182/182 38/38/38
f 988/988/988 195/195/195 624/624/624
f 545/545/545 631/631/631 633/633/633
f 686/686/686 629/629/629 541/541/541
f 72/72/72 169/169/169 62/62/62
f 35/35/35 47/47/47 97/97/97
f 48/48/48 100/100/100 141/141/141
f 116/116/116 113/113/113 104/104/104
f 169/169/169 72/72/72 139/139/139
f 181/181/181 136/136/136 37/37/37
f 109/109/109 347/347/347 115/115/115
f 590/590/590 632/632/632 586/586/586
f 665/665/665 635/635/635 520/520/520
f 700/700/700 600/600/600 613/613/613
f 82/82/82 140/140/140 73/73/73
f 59/59/59 118/118/118 86/86/86
f 121/121/121 638/638/638 125/125/125
f 113/113/113 116/116/116 349/349/349
f 635/635/635 665/665/665 145/145/145
f 348/348/348 352/352/352 114/114/114
f 135/135/135 160/160/160 131/131/131
f 123/123/123 132/132/132 84/84/84
f 584/584/584 642/642/642 679/679/679
f 523/523/523 656/656/656 660/660/660
f 137/137/137 645/645/645 162/162/162
f 455/455/455 161/161/161 644/644/644
f 119/119/119 91/91/91 88/88/88
f 623/623/623 609/609/609 626/626/626
f 587/587/587 634/634/634 641/641/641
f 600/600/600 700/700/700 646/646/646
f 643/643/643 133/133/133 179/179/179
f 167/167/167 138/138/138 165/165/165
f 79/79/79 165/165/165 138/138/138
f 665/665/665 669/669/669 145/145/145
f 80/80/80 142/142/142 155/155/155
f 169/169/169 120/120/120 62/62/62
f 682/682/682 729/729/729 648/648/648
f 84/84/84 132/132/132 150/150/150
f 85/85/85 152/152/152 101/101/101
f 653/653/653 647/647/647 602/602/602
f 167/167/167 165/165/165 176/176/176
f 601/601/601 704/704/704 652/652/652
f 128/128/128 636/636/636 146/146/146
f 704/704/704 601/601/601 620/620/620
f 92/92/92 148/148/148 180/180/180
f 618/618/618 648/648/648 657/657/657
f 657/657/657 648/648/648 661/661/661
f 664/664/664 709/709/709 666/666/666
f 142/142/142 151/151/151 155/155/155
f 682/682/682 618/618/618 676/676/676
f 153/153/153 166/166/166 77/77/77
f 129/129/129 196/196/196 971/971/971
f 705/705/705 621/621/621 647/647/647
f 648/648/648 618/618/618 682/682/682
f 201/201/201 159/159/159 643/643/643
f 670/670/670 684/684/684 607/607/607
f 141/141/141 100/100/100 149/149/149
f 729/729/729 662/662/662 648/648/648
f 678/678/678 640/640/640 694/694/694
f 683/683/683 677/677/677 695/695/695
f 120/120/120 169/169/169 174/174/174
f 630/630/630 689/689/689 733/733/733
f 164/164/164 170/170/170 175/175/175
f 168/168/168 171/171/171 173/173/173
f 184/184/184 345/345/345 350/350/350
f 734/734/734 633/633/633 631/631/631
f 623/623/623 692/692/692 609/609/609
f 171/171/171 168/168/168 177/177/177
f 351/351/351 346/346/346 199/199/199
f 712/712/712 523/523/523 660/660/660
f 164/164/164 154/154/154 170/170/170
f 643/643/643 179/179/179 201/201/201
f 720/720/720 713/713/713 699/699/699
f 652/652/652 704/704/704 766/766/766
f 255/255/255 193/193/193 183/183/183
f 346/346/346 185/185/185 199/199/199
f 647/647/647 653/653/653 220/220/220
f 608/608/608 691/691/691 674/674/674
f 254/254/254 180/180/180 148/148/148
f 705/705/705 647/647/647 220/220/220
f 634/634/634 697/697/697 641/641/641
f 721/721/721 702/702/702 650/650/650
f 701/701/701 717/717/717 649/649/649
f 703/703/703 668/668/668 764/764/764
f 189/189/189 191/191/191 250/250/250
f 192/192/192 190/190/190 178/178/178
f 131/131/131 160/160/160 197/197/197
f 668/668/668 710/710/710 764/764/764
f 198/198/198 184/184/184 350/350/350
f 178/178/178 190/190/190 200/200/200
f 689/689/689 749/749/749 733/733/733
f 119/119/119 213/213/213 91/91/91
f 748/748/748 688/688/688 672/672/672
f 735/735/735 697/697/697 634/634/634
f 719/719/719 722/722/722 655/655/655
f 132/132/132 258/258/258 150/150/150
f 144/144/144 707/707/707 202/202/202
f 727/727/727 723/723/723 659/659/659
f 706/706/706 143/143/143 667/667/667
f 119/119/119 172/172/172 213/213/213
f 124/124/124 205/205/205 132/132/132
f 654/654/654 716/716/716 221/221/221
f 194/194/194 158/158/158 622/622/622
f 171/171/171 208/208/208 173/173/173
f 213/213/213 172/172/172 207/207/207
f 710/710/710 740/740/740 764/764/764
f 214/214/214 148/148/148 92/92/92
f 708/708/708 226/226/226 203/203/203
f 728/728/728 681/681/681 744/744/744
f 673/673/673 731/731/731 782/782/782
f 622/622/622 158/158/158 690/690/690
f 159/159/159 201/201/201 693/693/693
f 671/671/671 770/770/770 730/730/730
f 147/147/147 204/204/204 228/228/228
f 728/728/728 744/744/744 725/725/725
f 128/128/128 146/146/146 239/239/239
f 683/683/683 695/695/695 752/752/752
f 651/651/651 768/768/768 718/718/718
f 732/732/732 771/771/771 783/783/783
f 219/219/219 209/209/209 206/206/206
f 698/698/698 736/736/736 751/751/751
f 205/205/205 124/124/124 126/126/126
f 773/773/773 674/674/674 691/691/691
f 209/209/209 219/219/219 215/215/215
f 239/239/239 146/146/146 223/223/223
f 672/672/672 737/737/737 748/748/748
f 171/171/171 217/217/217 208/208/208
f 660/660/660 741/741/741 712/712/712
f 716/716/716 230/230/230 221/221/221
f 752/752/752 745/745/745 683/683/683
f 714/714/714 762/762/762 778/778/778
f 253/253/253 148/148/148 214/214/214
f 726/726/726 742/742/742 663/663/663
f 765/765/765 724/724/724 743/743/743
f 222/222/222 231/231/231 270/270/270
f 673/673/673 782/782/782 739/739/739
f 767/767/767 742/742/742 726/726/726
f 715/715/715 777/777/777 266/266/266
f 280/280/280 693/693/693 201/201/201
f 691/691/691 277/277/277 773/773/773
f 739/739/739 746/746/746 754/754/754
f 746/746/746 739/739/739 782/782/782
f 750/750/750 738/738/738 753/753/753
f 222/222/222 270/270/270 760/760/760
f 233/233/233 264/264/264 269/269/269
f 756/756/756 779/779/779 774/774/774
f 776/776/776 761/761/761 769/769/769
f 278/278/278 235/235/235 775/775/775
f 753/753/753 696/696/696 750/750/750
f 715/715/715 266/266/266 229/229/229
f 236/236/236 262/262/262 294/294/294
f 210/210/210 290/290/290 249/249/249
f 780/780/780 758/758/758 268/268/268
f 127/127/127 238/238/238 281/281/281
f 218/218/218 256/256/256 211/211/211
f 240/240/240 224/224/224 241/241/241
f 747/747/747 781/781/781 786/786/786
f 772/772/772 763/763/763 785/785/785
f 783/783/783 771/771/771 784/784/784
f 756/756/756 774/774/774 234/234/234
f 788/788/788 242/242/242 225/225/225
f 244/244/244 240/240/240 241/241/241
f 252/252/252 292/292/292 288/288/288
f 247/247/247 251/251/251 287/287/287
f 2/2/2 293/293/293 212/212/212
f 787/787/787 765/765/765 743/743/743
f 759/759/759 791/791/791 227/227/227
f 216/216/216 257/257/257 4/4/4
f 190/190/190 279/279/279 200/200/200
f 260/260/260 757/757/757 235/235/235
f 263/263/263 289/289/289 296/296/296
f 237/237/237 243/243/243 283/283/283
f 189/189/189 250/250/250 246/246/246
f 232/232/232 267/267/267 265/265/265
f 235/235/235 278/278/278 260/260/260
f 789/789/789 755/755/755 297/297/297
f 327/327/327 295/295/295 3/3/3
f 278/278/278 273/273/273 260/260/260
f 260/260/260 299/299/299 757/757/757
f 241/241/241 323/323/323 244/244/244
f 326/326/326 1/1/1 5/5/5
f 276/276/276 187/187/187 271/271/271
f 242/242/242 788/788/788 324/324/324
f 282/282/282 321/321/321 275/275/275
f 284/284/284 245/245/245 322/322/322
f 286/286/286 291/291/291 307/307/307
f 325/325/325 790/790/790 298/298/298
f 127/127/127 281/281/281 274/274/274
f 285/285/285 306/306/306 301/301/301
f 305/305/305 188/188/188 248/248/248
f 247/247/247 287/287/287 303/303/303
f 327/327/327 308/308/308 295/295/295
f 300/300/300 261/261/261 310/310/310
f 336/336/336 186/186/186 302/302/302
f 336/336/336 272/272/272 186/186/186
f 312/312/312 320/320/320 314/314/314
f 260/260/260 273/273/273 337/337/337
f 317/317/317 260/260/260 337/337/337
f 300/300/300 310/310/310 331/331/331
f 319/319/319 300/300/300 331/331/331
f 341/341/341 259/259/259 315/315/315
f 341/341/341 309/309/309 259/259/259
f 330/330/330 328/328/328 318/318/318
f 318/318/318 328/328/328 313/313/313
f 337/337/337 334/334/334 317/317/317
f 332/332/332 311/311/311 339/339/339
f 329/329/329 332/332/332 339/339/339
f 333/333/333 335/335/335 304/304/304
f 313/313/313 328/328/328 338/338/338
f 342/342/342 316/316/316 340/340/340
f 311/311/311 343/343/343 339/339/339
f 992/992/992 993/993/993 994/994/994
f 992/992/992 994/994/994 993/993/993
f 992/992/992 994/994/994 995/995/995
f 992/992/992 995/995/995 994/994/994
f 992/992/992 995/995/995 996/996/996
f 992/992/992 996/996/996 995/995/995
f 992/992/992 996/996/996 997/997/997
f 992/992/992 997/997/997 996/996/996
f 992/992/992 997/997/997 998/998/998
f 992/992/992 998/998/998 997/997/997
f 992/992/992 998/998/998 999/999/999
f 992/992/992 999/999/999 998/998/998
f 992/992/992 999/999/999 1000/1000/1000
f 992/992/992 1000/1000/1000 999/999/999
f 992/992/992 1000/1000/1000 1001/1001/1001
f 992/992/992 1001/1001/1001 1000/1000/1000
f 992/992/992 1001/1001/1001 1002/1002/1002
f 992/992/992 1002/1002/1002 1001/1001/1001
f 992/992/992 1002/1002/1002 1003/1003/1003
f 992/992/992 1003/1003/1003 1002/1002/1002
f 992/992/992 1003/1003/1003 1004/1004/1004
f 992/992/992 1004/1004/1004 1003/1003/1003
f 992/992/992 1004/1004/1004 1005/1005/1005
f 992/992/992 1005/1005/1005 1004/1004/1004
f 992/992/992 1005/1005/1005 1006/1006/1006
f 992/992/992 1006/1006/1006 1005/1005/1005
f 992/992/992 1006/1006/1006 1007/1007/1007
f 992/992/992 1007/1007/1007 1006/1006/1006
f 992/992/992 1007/1007/1007 1008/1008/1008
f 992/992/992 1008/1008/1008 1007/1007/1007
f 992/992/992 1008/1008/1008 1009/1009/1009
f 992/992/992 1009/1009/1009 1008/1008/1008
f 992/992/992 1009/1009/1009 1010/1010/1010
f 992/992/992 1010/1010/1010 1009/1009/1009
f 992/992/992 1010/1010/1010 1011/1011/1011
f 992/992/992 1011/1011/1011 1010/1010/1010
f 992/992/992 1011/1011/1011 1012/1012/1012
f 992/992/992 1012/1012/1012 1011/1011/1011
f 992/992/992 1012/1012/1012 1013/1013/1013
f 992/992/992 1013/1013/1013 1012/1012/1012
f 992/992/992 1013/1013/1013 1014/1014/1014
f 992/992/992 1014/1014/1014 1013/1013/1013
f 992/992/992 1014/1014/1014 1015/1015/1015
f 992/992/992 1015/1015/1015 1014/1014/1014
f 992/992/992 1015/1015/1015 1016/1016/1016
f 992/992/992 1016/1016/1016 1015/1015/1015
f 992/992/992 1016/1016/1016 1017/1017/1017
f 992/992/992 1017/1017/1017 1016/1016/1016
f 992/992/992 1017/1017/1017 1018/1018/1018
f 992/992/992 1018/1018/1018 1017/1017/1017
f 992/992/992 1018/1018/1018 1019/1019/1019
f 992/992/992 1019/1019/1019 1018/1018/1018
f 992/992/992 1019/1019/1019 1020/1020/1020
f 992/992/992 1020/1020/1020 1019/1019/1019
f 992/992/992 1020/1020/1020 1021/1021/1021
f 992/992/992 1021/1021/1021 1020/1020/1020
f 992/992/992 1021/1021/1021 1022/1022/1022
f 992/992/992 1022/1022/1022 1021/1021/1021
f 992/992/992 1022/1022/1022 993/993/993
f 992/992/992 993/993/993 1022/1022/1022
f 1023/1023/1023 1024/1024/1024 1025/1025/1025
f 1023/1023/1023 1025/1025/1025 1024/1024/1024
f 1023/1023/1023 1025/1025/1025 1026/1026/1026
f 1023/1023/1023 1026/1026/1026 1025/1025/1025
f 1023/1023/1023 1026/1026/1026 1027/1027/1027
f 1023/1023/1023 1027/1027/1027 1026/1026/1026
f 1023/1023/1023 1027/1027/1027 1028/1028/1028
f 1023/1023/1023 1028/1028/1028 1027/1027/1027
f 1023/1023/1023 1028/1028/1028 1029/1029/1029
f 1023/1023/1023 1029/1029/1029 1028/1028/1028
f 1023/1023/1023 1029/1029/1029 1030/1030/1030
f 1023/1023/1023 1030/1030/1030 1029/1029/1029
f 1023/1023/1023 1030/1030/1030 1031/1031/1031
f 1023/1023/1023 1031/1031/1031 1030/1030/1030
f 1023/1023/1023 1031/1031/1031 1032/1032/1032
f 1023/1023/1023 1032/1032/1032 1031/1031/1031
f 1023/1023/1023 1032/1032/1032 1033/1033/1033
f 1023/1023/1023 1033/1033/1033 1032/1032/1032
f 1023/1023/1023 1033/1033/1033 1034/1034/1034
f 1023/1023/1023 1034/1034/1034 1033/1033/1033
f 1023/1023/1023 1034/1034/1034 1035/1035/1035
f 1023/1023/1023 1035/1035/1035 1034/1034/1034
f 1023/1023/1023 1035/1035/1035 1036/1036/1036
f 1023/1023/1023 1036/1036/1036 1035/1035/1035
f 1023/1023/1023 1036/1036/1036 1037/1037/1037
f 1023/1023/1023 1037/1037/1037 1036/1036/1036
f 1023/1023/1023 1037/1037/1037 1038/1038/1038
f 1023/1023/1023 1038/1038/1038 1037/1037/1037
f 1023/1023/1023 1038/1038/1038 1039/1039/1039
f 1023/1023/1023 1039/1039/1039 1038/1038/1038
f 1023/1023/1023 1039/1039/1039 1040/1040/1040
f 1023/1023/1023 1040/1040/1040 1039/1039/1039
f 1023/1023/1023 1040/1040/1040 1041/1041/1041
f 1023/1023/1023 1041/1041/1041 1040/1040/1040
f 1023/1023/1023 1041/1041/1041 1042/1042/1042
f 1023/1023/1023 1042/1042/1042 1041/1041/1041
f 1023/1023/1023 1042/1042/1042 1043/1043/1043
f 1023/1023/1023 1043/1043/1043 1042/1042/1042
f 1023/1023/1023 1043/1043/1043 1044/1044/1044
f 1023/1023/1023 1044/1044/1044 1043/1043/1043
f 1023/1023/1023 1044/1044/1044 1045/1045/1045
f 1023/1023/1023 1045/1045/1045 1044/1044/1044
f 1023/1023/1023 1045/1045/1045 1046/1046/1046
f 1023/1023/1023 1046/1046/1046 1045/1045/1045
f 1023/1023/1023 1046/1046/1046 1047/1047/1047
f 1023/1023/1023 1047/1047/1047 1046/1046/1046
f 1023/1023/1023 1047/1047/1047 1048/1048/1048
f 1023/1023/1023 1048/1048/1048 1047/1047/1047
f 1023/1023/1023 1048/1048/1048 1049/1049/1049
f 1023/1023/1023 1049/1049/1049 1048/1048/1048
f 1023/1023/1023 1049/1049/1049 1024/1024/1024
f 1023/1023/1023 1024/1024/1024 1049/1049/1049
f 1050/1050/1050 1051/1051/1051 1052/1052/1052
f 1050/1050/1050 1052/1052/1052 1051/1051/1051
f 1050/1050/1050 1052/1052/1052 1053/1053/1053
f 1050/1050/1050 1053/1053/1053 1052/1052/1052
f 1050/1050/1050 1053/1053/1053 1054/1054/1054
f 1050/1050/1050 1054/1054/1054 1053/1053/1053
f 1050/1050/1050 1054/1054/1054 1051/1051/1051
f 1050/1050/1050 1051/1051/1051 1054/1054/1054
f 1055/1055/1055 1056/1056/1056 1057/1057/1057
f 1055/1055/1055 1057/1057/1057 1056/1056/1056
f 1055/1055/1055 1057/1057/1057 1058/1058/1058
f 1055/1055/1055 1058/1058/1058 1057/1057/1057
f 1055/1055/1055 1058/1058/1058 1056/1056/1056
f 1055/1055/1055 1056/1056/1056 1058/1058/1058
