o forearm_right
v 1.74870 1.91358 -0.26479
v 1.74617 2.03113 -0.21583
v 1.74359 2.02902 -0.11950
v 1.74359 2.02902 -0.11950
v 1.74617 2.03113 -0.21583
v 1.67751 2.25896 -0.00118
v 1.74870 1.91358 -0.26479
v 1.70675 1.96876 -0.29808
v 1.69179 2.08098 -0.25904
v 1.74870 1.91358 -0.26479
v 1.69179 2.08098 -0.25904
v 1.74617 2.03113 -0.21583
v 1.74617 2.03113 -0.21583
v 1.69179 2.08098 -0.25904
v 1.70006 2.28031 -0.09433
v 1.71155 1.74776 -0.28562
v 1.68062 1.77113 -0.33713
v 1.74870 1.91358 -0.26479
v 1.68419 2.04716 -0.06161
v 1.71797 1.94299 -0.04440
v 1.73568 1.81778 -0.11950
v 1.74359 2.02902 -0.11950
v 1.71155 1.74776 -0.28562
v 1.74870 1.91358 -0.26479
v 1.70006 2.28031 -0.09433
v 1.67751 2.25896 -0.00118
v 1.74617 2.03113 -0.21583
v 1.71797 1.94299 -0.04440
v 1.70994 1.82418 -0.06990
v 1.73568 1.81778 -0.11950
v 1.68419 2.04716 -0.06161
v 1.74359 2.02902 -0.11950
v 1.67751 2.25896 -0.00118
v 1.73568 1.81778 -0.11950
v 1.70103 1.83167 -0.18263
v 1.68419 2.04716 -0.06161
v 1.71155 1.74776 -0.28562
v 1.74359 2.02902 -0.11950
v 1.70518 1.76959 -0.20691
v 1.70006 2.28031 -0.09433
v 1.69179 2.08098 -0.25904
v 1.65262 2.31191 -0.12188
v 1.70103 1.83167 -0.18263
v 1.70518 1.76959 -0.20691
v 1.74359 2.02902 -0.11950
v 1.69989 1.75021 -0.03983
v 1.70994 1.82418 -0.06990
v 1.71797 1.94299 -0.04440
v 1.74359 2.02902 -0.11950
v 1.68419 2.04716 -0.06161
v 1.70103 1.83167 -0.18263
v 1.70518 1.76959 -0.20691
v 1.70105 1.70710 -0.17185
v 1.71155 1.74776 -0.28562
v 1.67511 1.63216 -0.07847
v 1.73568 1.81778 -0.11950
v 1.70994 1.82418 -0.06990
v 1.70518 1.76959 -0.20691
v 1.70103 1.83167 -0.18263
v 1.70105 1.70710 -0.17185
v 1.74870 1.91358 -0.26479
v 1.66648 1.93479 -0.27899
v 1.70675 1.96876 -0.29808
v 1.69989 1.75021 -0.03983
v 1.67511 1.63216 -0.07847
v 1.70994 1.82418 -0.06990
v 1.70675 1.96876 -0.29808
v 1.64243 2.05993 -0.23784
v 1.69179 2.08098 -0.25904
v 1.65492 1.71766 -0.15107
v 1.73568 1.81778 -0.11950
v 1.67511 1.63216 -0.07847
v 1.71155 1.74776 -0.28562
v 1.70105 1.70710 -0.17185
v 1.64833 1.54670 -0.20117
v 1.74870 1.91358 -0.26479
v 1.68062 1.77113 -0.33713
v 1.66648 1.93479 -0.27899
v 1.70105 1.70710 -0.17185
v 1.70103 1.83167 -0.18263
v 1.65492 1.71766 -0.15107
v 1.64833 1.54670 -0.20117
v 1.66101 1.54374 -0.29131
v 1.71155 1.74776 -0.28562
v 1.69989 1.75021 -0.03983
v 1.71797 1.94299 -0.04440
v 1.67449 1.88317 0.02846
v 1.73568 1.81778 -0.11950
v 1.65492 1.71766 -0.15107
v 1.70103 1.83167 -0.18263
v 1.67751 2.25896 -0.00118
v 1.63969 2.18656 0.05178
v 1.68419 2.04716 -0.06161
v 1.69989 1.75021 -0.03983
v 1.67449 1.88317 0.02846
v 1.61794 1.71833 0.03630
v 1.71155 1.74776 -0.28562
v 1.66101 1.54374 -0.29131
v 1.60524 1.58668 -0.34418
v 1.61794 1.71833 0.03630
v 1.64040 1.66300 0.00384
v 1.69989 1.75021 -0.03983
v 1.65262 2.31191 -0.12188
v 1.67751 2.25896 -0.00118
v 1.70006 2.28031 -0.09433
v 1.64243 2.05993 -0.23784
v 1.62952 2.12908 -0.24277
v 1.69179 2.08098 -0.25904
v 1.63969 2.18656 0.05178
v 1.71797 1.94299 -0.04440
v 1.68419 2.04716 -0.06161
v 1.64040 1.66300 0.00384
v 1.67511 1.63216 -0.07847
v 1.69989 1.75021 -0.03983
v 1.66648 1.93479 -0.27899
v 1.68062 1.77113 -0.33713
v 1.61795 1.85827 -0.29282
v 1.64243 2.05993 -0.23784
v 1.70675 1.96876 -0.29808
v 1.66648 1.93479 -0.27899
v 1.62952 2.12908 -0.24277
v 1.65262 2.31191 -0.12188
v 1.69179 2.08098 -0.25904
v 1.71155 1.74776 -0.28562
v 1.60524 1.58668 -0.34418
v 1.64868 1.72876 -0.35464
v 1.61795 1.85827 -0.29282
v 1.62017 1.87394 -0.34320
v 1.66648 1.93479 -0.27899
v 1.71155 1.74776 -0.28562
v 1.64868 1.72876 -0.35464
v 1.68062 1.77113 -0.33713
v 1.65492 1.71766 -0.15107
v 1.63349 1.77522 -0.14890
v 1.70105 1.70710 -0.17185
v 1.67751 2.25896 -0.00118
v 1.65262 2.31191 -0.12188
v 1.63091 2.36487 0.11701
v 1.63091 2.36487 0.11701
v 1.65262 2.31191 -0.12188
v 1.66143 2.36207 -0.01580
v 1.66648 1.93479 -0.27899
v 1.62017 1.87394 -0.34320
v 1.64228 1.96617 -0.30438
v 1.64833 1.54670 -0.20117
v 1.70105 1.70710 -0.17185
v 1.63349 1.77522 -0.14890
v 1.64040 1.66300 0.00384
v 1.59576 1.59923 -0.00977
v 1.67511 1.63216 -0.07847
v 1.59361 1.55706 -0.17777
v 1.64833 1.54670 -0.20117
v 1.63349 1.77522 -0.14890
v 1.64243 2.05993 -0.23784
v 1.66648 1.93479 -0.27899
v 1.64228 1.96617 -0.30438
v 1.56075 2.04407 0.08569
v 1.67449 1.88317 0.02846
v 1.71797 1.94299 -0.04440
v 1.71797 1.94299 -0.04440
v 1.63969 2.18656 0.05178
v 1.56075 2.04407 0.08569
v 1.67511 1.63216 -0.07847
v 1.54302 1.49817 -0.02901
v 1.65492 1.71766 -0.15107
v 1.63349 1.77522 -0.14890
v 1.62334 1.65196 -0.19010
v 1.59361 1.55706 -0.17777
v 1.61051 2.59532 0.24400
v 1.63091 2.36487 0.11701
v 1.66143 2.36207 -0.01580
v 1.61795 1.85827 -0.29282
v 1.68062 1.77113 -0.33713
v 1.58086 1.71577 -0.34684
v 1.63091 2.36487 0.11701
v 1.58633 2.37045 0.11380
v 1.67751 2.25896 -0.00118
v 1.65262 2.31191 -0.12188
v 1.61374 2.39896 -0.07607
v 1.66143 2.36207 -0.01580
v 1.64040 1.66300 0.00384
v 1.61794 1.71833 0.03630
v 1.56072 1.59379 0.07574
v 1.62952 2.12908 -0.24277
v 1.61665 2.24883 -0.13229
v 1.65262 2.31191 -0.12188
v 1.64243 2.05993 -0.23784
v 1.64228 1.96617 -0.30438
v 1.51170 2.19861 -0.20340
v 1.67511 1.63216 -0.07847
v 1.54636 1.49681 -0.00148
v 1.54302 1.49817 -0.02901
v 1.58050 1.67282 -0.18859
v 1.62334 1.65196 -0.19010
v 1.63349 1.77522 -0.14890
v 1.64868 1.72876 -0.35464
v 1.59438 1.71093 -0.31115
v 1.58086 1.71577 -0.34684
v 1.62017 1.87394 -0.34320
v 1.59245 1.91846 -0.31784
v 1.64228 1.96617 -0.30438
v 1.67751 2.25896 -0.00118
v 1.50655 2.40367 0.22137
v 1.63969 2.18656 0.05178
v 1.67511 1.63216 -0.07847
v 1.59576 1.59923 -0.00977
v 1.54636 1.49681 -0.00148
v 1.61374 2.39896 -0.07607
v 1.58280 2.74868 0.06076
v 1.66143 2.36207 -0.01580
v 1.55507 1.67690 0.00301
v 1.58073 1.78291 -0.03563
v 1.63349 1.77522 -0.14890
v 1.55507 1.67690 0.00301
v 1.63349 1.77522 -0.14890
v 1.65492 1.71766 -0.15107
v 1.65262 2.31191 -0.12188
v 1.61665 2.24883 -0.13229
v 1.61374 2.39896 -0.07607
v 1.64868 1.72876 -0.35464
v 1.58086 1.71577 -0.34684
v 1.68062 1.77113 -0.33713
v 1.58784 1.76100 0.00677
v 1.61794 1.71833 0.03630
v 1.67449 1.88317 0.02846
v 1.61665 2.24883 -0.13229
v 1.62952 2.12908 -0.24277
v 1.59010 2.24778 -0.16879
v 1.62017 1.87394 -0.34320
v 1.61795 1.85827 -0.29282
v 1.59987 1.75606 -0.39485
v 1.60524 1.58668 -0.34418
v 1.59438 1.71093 -0.31115
v 1.64868 1.72876 -0.35464
v 1.64243 2.05993 -0.23784
v 1.51170 2.19861 -0.20340
v 1.62952 2.12908 -0.24277
v 1.54549 1.90738 0.03126
v 1.67449 1.88317 0.02846
v 1.56075 2.04407 0.08569
v 1.59987 1.75606 -0.39485
v 1.61795 1.85827 -0.29282
v 1.58086 1.71577 -0.34684
v 1.56368 1.87984 0.00521
v 1.58784 1.76100 0.00677
v 1.67449 1.88317 0.02846
v 1.62334 1.65196 -0.19010
v 1.58050 1.67282 -0.18859
v 1.59361 1.55706 -0.17777
v 1.59245 1.91846 -0.31784
v 1.57957 2.00024 -0.35489
v 1.64228 1.96617 -0.30438
v 1.55331 1.82483 -0.42911
v 1.57957 2.00024 -0.35489
v 1.62017 1.87394 -0.34320
v 1.56244 2.40208 -0.04478
v 1.61374 2.39896 -0.07607
v 1.61665 2.24883 -0.13229
v 1.56244 2.40208 -0.04478
v 1.61665 2.24883 -0.13229
v 1.59010 2.24778 -0.16879
v 1.60524 1.58668 -0.34418
v 1.56397 1.58844 -0.31808
v 1.59438 1.71093 -0.31115
v 1.58290 1.87133 -0.10933
v 1.63349 1.77522 -0.14890
v 1.58073 1.78291 -0.03563
v 1.56075 2.04407 0.08569
v 1.63969 2.18656 0.05178
v 1.53581 2.22403 0.10211
v 1.67751 2.25896 -0.00118
v 1.58633 2.37045 0.11380
v 1.50655 2.40367 0.22137
v 1.56072 1.59379 0.07574
v 1.59576 1.59923 -0.00977
v 1.64040 1.66300 0.00384
v 1.58280 2.74868 0.06076
v 1.61374 2.39896 -0.07607
v 1.57631 2.43008 -0.08013
v 1.64228 1.96617 -0.30438
v 1.57957 2.00024 -0.35489
v 1.51170 2.19861 -0.20340
v 1.59245 1.91846 -0.31784
v 1.62017 1.87394 -0.34320
v 1.57957 2.00024 -0.35489
v 1.59784 1.56386 0.05225
v 1.54366 1.57463 -0.02729
v 1.59576 1.59923 -0.00977
v 1.59784 1.56386 0.05225
v 1.59576 1.59923 -0.00977
v 1.56072 1.59379 0.07574
v 1.58290 1.87133 -0.10933
v 1.58073 1.78291 -0.03563
v 1.56371 1.89135 -0.03565
v 1.55331 1.82483 -0.42911
v 1.62017 1.87394 -0.34320
v 1.59987 1.75606 -0.39485
v 1.56381 1.60246 -0.22750
v 1.59438 1.71093 -0.31115
v 1.56397 1.58844 -0.31808
v 1.63091 2.36487 0.11701
v 1.53847 2.58025 0.26171
v 1.58633 2.37045 0.11380
v 1.56368 1.87984 0.00521
v 1.67449 1.88317 0.02846
v 1.54549 1.90738 0.03126
v 1.59010 2.24778 -0.16879
v 1.62952 2.12908 -0.24277
v 1.51170 2.19861 -0.20340
v 1.63349 1.77522 -0.14890
v 1.56379 1.80032 -0.13872
v 1.56911 1.76919 -0.18120
v 1.59784 1.56386 0.05225
v 1.51067 1.53115 0.06336
v 1.54366 1.57463 -0.02729
v 1.56911 1.76919 -0.18120
v 1.58050 1.67282 -0.18859
v 1.63349 1.77522 -0.14890
v 1.60093 1.78375 -0.26240
v 1.56332 1.77322 -0.22763
v 1.52929 1.89619 -0.22144
v 1.59576 1.59923 -0.00977
v 1.54366 1.57463 -0.02729
v 1.54636 1.49681 -0.00148
v 1.58784 1.76100 0.00677
v 1.56368 1.87984 0.00521
v 1.58073 1.78291 -0.03563
v 1.58086 1.71577 -0.34684
v 1.48355 1.55767 -0.38358
v 1.59987 1.75606 -0.39485
v 1.58290 1.87133 -0.10933
v 1.56379 1.80032 -0.13872
v 1.63349 1.77522 -0.14890
v 1.58050 1.67282 -0.18859
v 1.56381 1.60246 -0.22750
v 1.59361 1.55706 -0.17777
v 1.59438 1.71093 -0.31115
v 1.56332 1.77322 -0.22763
v 1.60093 1.78375 -0.26240
v 1.56381 1.60246 -0.22750
v 1.56332 1.77322 -0.22763
v 1.59438 1.71093 -0.31115
v 1.50655 2.40367 0.22137
v 1.53581 2.22403 0.10211
v 1.63969 2.18656 0.05178
v 1.61374 2.39896 -0.07607
v 1.56244 2.40208 -0.04478
v 1.57631 2.43008 -0.08013
v 1.65492 1.71766 -0.15107
v 1.54366 1.57463 -0.02729
v 1.55507 1.67690 0.00301
v 1.56368 1.87984 0.00521
v 1.56371 1.89135 -0.03565
v 1.58073 1.78291 -0.03563
v 1.53847 2.58025 0.26171
v 1.50655 2.40367 0.22137
v 1.58633 2.37045 0.11380
v 1.58073 1.78291 -0.03563
v 1.55507 1.67690 0.00301
v 1.58784 1.76100 0.00677
v 1.56911 1.76919 -0.18120
v 1.56332 1.77322 -0.22763
v 1.58050 1.67282 -0.18859
v 1.61794 1.71833 0.03630
v 1.58784 1.76100 0.00677
v 1.55507 1.67690 0.00301
v 1.51017 1.95783 0.01592
v 1.54549 1.90738 0.03126
v 1.56075 2.04407 0.08569
v 1.53848 1.77993 -0.26373
v 1.59438 1.71093 -0.31115
v 1.60093 1.78375 -0.26240
v 1.56332 1.77322 -0.22763
v 1.56381 1.60246 -0.22750
v 1.58050 1.67282 -0.18859
v 1.48355 1.55767 -0.38358
v 1.53700 1.77817 -0.43667
v 1.59987 1.75606 -0.39485
v 1.57631 2.43008 -0.08013
v 1.56244 2.40208 -0.04478
v 1.50457 2.61383 0.04264
v 1.58290 1.87133 -0.10933
v 1.52370 1.87817 -0.15490
v 1.56379 1.80032 -0.13872
v 1.52929 1.89619 -0.22144
v 1.56332 1.77322 -0.22763
v 1.56911 1.76919 -0.18120
v 1.65492 1.71766 -0.15107
v 1.54302 1.49817 -0.02901
v 1.54366 1.57463 -0.02729
v 1.64833 1.54670 -0.20117
v 1.42969 1.34714 -0.26161
v 1.66101 1.54374 -0.29131
v 1.56381 1.60246 -0.22750
v 1.51815 1.54278 -0.24169
v 1.59361 1.55706 -0.17777
v 1.59438 1.71093 -0.31115
v 1.53848 1.77993 -0.26373
v 1.53090 1.68870 -0.30170
v 1.58290 1.87133 -0.10933
v 1.56371 1.89135 -0.03565
v 1.52370 1.87817 -0.15490
v 1.58086 1.71577 -0.34684
v 1.59438 1.71093 -0.31115
v 1.53090 1.68870 -0.30170
v 1.49364 1.80005 -0.39659
v 1.55331 1.82483 -0.42911
v 1.59987 1.75606 -0.39485
v 1.54636 1.49681 -0.00148
v 1.54366 1.57463 -0.02729
v 1.54302 1.49817 -0.02901
v 1.56381 1.60246 -0.22750
v 1.56397 1.58844 -0.31808
v 1.51815 1.54278 -0.24169
v 1.54366 1.57463 -0.02729
v 1.48620 1.61354 0.00270
v 1.55507 1.67690 0.00301
v 1.60093 1.78375 -0.26240
v 1.54384 1.86879 -0.24977
v 1.53848 1.77993 -0.26373
v 1.52929 1.89619 -0.22144
v 1.54384 1.86879 -0.24977
v 1.60093 1.78375 -0.26240
v 1.52929 1.89619 -0.22144
v 1.50585 1.88460 -0.24211
v 1.54384 1.86879 -0.24977
v 1.51170 2.19861 -0.20340
v 1.56244 2.40208 -0.04478
v 1.59010 2.24778 -0.16879
v 1.56368 1.87984 0.00521
v 1.51017 1.95783 0.01592
v 1.56371 1.89135 -0.03565
v 1.57957 2.00024 -0.35489
v 1.49364 1.80005 -0.39659
v 1.51481 2.09655 -0.28095
v 1.51170 2.19861 -0.20340
v 1.57957 2.00024 -0.35489
v 1.51481 2.09655 -0.28095
v 1.56911 1.76919 -0.18120
v 1.56379 1.80032 -0.13872
v 1.52370 1.87817 -0.15490
v 1.54549 1.90738 0.03126
v 1.51017 1.95783 0.01592
v 1.56368 1.87984 0.00521
v 1.53700 1.77817 -0.43667
v 1.49364 1.80005 -0.39659
v 1.59987 1.75606 -0.39485
v 1.46905 1.56740 -0.31059
v 1.58086 1.71577 -0.34684
v 1.53090 1.68870 -0.30170
v 1.48355 1.55767 -0.38358
v 1.58086 1.71577 -0.34684
v 1.46905 1.56740 -0.31059
v 1.50309 1.64398 0.04000
v 1.56072 1.59379 0.07574
v 1.61794 1.71833 0.03630
v 1.52370 1.87817 -0.15490
v 1.52929 1.89619 -0.22144
v 1.56911 1.76919 -0.18120
v 1.60524 1.58668 -0.34418
v 1.66101 1.54374 -0.29131
v 1.42969 1.34714 -0.26161
v 1.59784 1.56386 0.05225
v 1.56072 1.59379 0.07574
v 1.51067 1.53115 0.06336
v 1.49364 1.80005 -0.39659
v 1.57957 2.00024 -0.35489
v 1.55331 1.82483 -0.42911
v 1.51481 2.09655 -0.28095
v 1.49364 1.80005 -0.39659
v 1.50011 1.87364 -0.31397
v 1.50309 1.64398 0.04000
v 1.61794 1.71833 0.03630
v 1.55507 1.67690 0.00301
v 1.51067 1.53115 0.06336
v 1.56072 1.59379 0.07574
v 1.49824 1.57363 0.10472
v 1.51017 1.95783 0.01592
v 1.47423 1.99656 -0.06973
v 1.56371 1.89135 -0.03565
v 1.42969 1.34714 -0.26161
v 1.64833 1.54670 -0.20117
v 1.59361 1.55706 -0.17777
v 1.48355 1.55767 -0.38358
v 1.45089 1.60902 -0.41158
v 1.53700 1.77817 -0.43667
v 1.55507 1.67690 0.00301
v 1.48620 1.61354 0.00270
v 1.50309 1.64398 0.04000
v 1.50655 2.40367 0.22137
v 1.53847 2.58025 0.26171
v 1.49180 2.51419 0.33000
v 1.52370 1.87817 -0.15490
v 1.56371 1.89135 -0.03565
v 1.47423 1.99656 -0.06973
v 1.49824 1.57363 0.10472
v 1.56072 1.59379 0.07574
v 1.50309 1.64398 0.04000
v 1.53848 1.77993 -0.26373
v 1.54384 1.86879 -0.24977
v 1.47372 1.75210 -0.32386
v 1.53847 2.58025 0.26171
v 1.51537 2.60909 0.33799
v 1.49180 2.51419 0.33000
v 1.51537 2.60909 0.33799
v 1.48919 2.64878 0.41728
v 1.46381 2.62128 0.36120
v 1.56075 2.04407 0.08569
v 1.53581 2.22403 0.10211
v 1.47748 2.07870 0.02088
v 1.50585 1.88460 -0.24211
v 1.50011 1.87364 -0.31397
v 1.54384 1.86879 -0.24977
v 1.56397 1.58844 -0.31808
v 1.60524 1.58668 -0.34418
v 1.42969 1.34714 -0.26161
v 1.41397 2.47568 0.32401
v 1.53581 2.22403 0.10211
v 1.50655 2.40367 0.22137
v 1.54384 1.86879 -0.24977
v 1.50011 1.87364 -0.31397
v 1.47372 1.75210 -0.32386
v 1.51537 2.60909 0.33799
v 1.48247 2.72901 0.45355
v 1.48919 2.64878 0.41728
v 1.56075 2.04407 0.08569
v 1.47748 2.07870 0.02088
v 1.51017 1.95783 0.01592
v 1.53848 1.77993 -0.26373
v 1.47372 1.75210 -0.32386
v 1.53090 1.68870 -0.30170
v 1.47748 2.07870 0.02088
v 1.53581 2.22403 0.10211
v 1.47681 2.24799 0.03150
v 1.53700 1.77817 -0.43667
v 1.45540 1.70785 -0.39953
v 1.49364 1.80005 -0.39659
v 1.46381 2.62128 0.36120
v 1.48215 2.57422 0.44882
v 1.49180 2.51419 0.33000
v 1.51537 2.60909 0.33799
v 1.46381 2.62128 0.36120
v 1.49180 2.51419 0.33000
v 1.39351 2.68932 0.01707
v 1.56244 2.40208 -0.04478
v 1.46406 2.29054 -0.13019
v 1.49942 2.14578 0.00098
v 1.47748 2.07870 0.02088
v 1.47681 2.24799 0.03150
v 1.49364 1.80005 -0.39659
v 1.47372 1.75210 -0.32386
v 1.50011 1.87364 -0.31397
v 1.51481 2.09655 -0.28095
v 1.43608 1.98655 -0.21462
v 1.46333 2.05182 -0.27377
v 1.46381 2.62128 0.36120
v 1.48919 2.64878 0.41728
v 1.48215 2.57422 0.44882
v 1.50011 1.87364 -0.31397
v 1.43608 1.98655 -0.21462
v 1.51481 2.09655 -0.28095
v 1.49180 2.51419 0.33000
v 1.40006 2.44460 0.34913
v 1.41397 2.47568 0.32401
v 1.50011 1.87364 -0.31397
v 1.50585 1.88460 -0.24211
v 1.43608 1.98655 -0.21462
v 1.47681 2.24799 0.03150
v 1.41909 2.15679 -0.01990
v 1.49942 2.14578 0.00098
v 1.49942 2.14578 0.00098
v 1.46746 2.07632 -0.06556
v 1.47748 2.07870 0.02088
v 1.44408 2.12560 -0.23157
v 1.51170 2.19861 -0.20340
v 1.51481 2.09655 -0.28095
v 1.51815 1.54278 -0.24169
v 1.56397 1.58844 -0.31808
v 1.42969 1.34714 -0.26161
v 1.51017 1.95783 0.01592
v 1.47748 2.07870 0.02088
v 1.47423 1.99656 -0.06973
v 1.42361 2.21053 -0.16832
v 1.46406 2.29054 -0.13019
v 1.51170 2.19861 -0.20340
v 1.51170 2.19861 -0.20340
v 1.46406 2.29054 -0.13019
v 1.56244 2.40208 -0.04478
v 1.50309 1.64398 0.04000
v 1.48620 1.61354 0.00270
v 1.49824 1.57363 0.10472
v 1.50585 1.88460 -0.24211
v 1.52929 1.89619 -0.22144
v 1.43608 1.98655 -0.21462
v 1.34708 2.50193 0.45195
v 1.49180 2.51419 0.33000
v 1.48215 2.57422 0.44882
v 1.45540 1.70785 -0.39953
v 1.53700 1.77817 -0.43667
v 1.45089 1.60902 -0.41158
v 1.44170 1.97828 -0.15550
v 1.52370 1.87817 -0.15490
v 1.47423 1.99656 -0.06973
v 1.41397 2.47568 0.32401
v 1.50655 2.40367 0.22137
v 1.49180 2.51419 0.33000
v 1.45540 1.70785 -0.39953
v 1.47372 1.75210 -0.32386
v 1.49364 1.80005 -0.39659
v 1.47423 1.99656 -0.06973
v 1.47748 2.07870 0.02088
v 1.46746 2.07632 -0.06556
v 1.49942 2.14578 0.00098
v 1.41909 2.15679 -0.01990
v 1.46746 2.07632 -0.06556
v 1.53090 1.68870 -0.30170
v 1.44040 1.61396 -0.29007
v 1.46905 1.56740 -0.31059
v 1.40119 2.33337 0.14654
v 1.53581 2.22403 0.10211
v 1.41397 2.47568 0.32401
v 1.45280 2.68106 0.52354
v 1.48215 2.57422 0.44882
v 1.48919 2.64878 0.41728
v 1.51170 2.19861 -0.20340
v 1.44408 2.12560 -0.23157
v 1.45430 2.16478 -0.19252
v 1.47372 1.75210 -0.32386
v 1.44040 1.61396 -0.29007
v 1.53090 1.68870 -0.30170
v 1.51170 2.19861 -0.20340
v 1.45430 2.16478 -0.19252
v 1.42361 2.21053 -0.16832
v 1.42969 1.34714 -0.26161
v 1.59361 1.55706 -0.17777
v 1.51815 1.54278 -0.24169
v 1.49824 1.57363 0.10472
v 1.34098 1.53397 0.03603
v 1.51067 1.53115 0.06336
v 1.45089 1.60902 -0.41158
v 1.48355 1.55767 -0.38358
v 1.41349 1.62497 -0.35254
v 1.47423 1.99656 -0.06973
v 1.37744 2.01591 -0.13667
v 1.44170 1.97828 -0.15550
v 1.52929 1.89619 -0.22144
v 1.52370 1.87817 -0.15490
v 1.43608 1.98655 -0.21462
v 1.46406 2.29054 -0.13019
v 1.42361 2.21053 -0.16832
v 1.43436 2.21752 -0.10934
v 1.53581 2.22403 0.10211
v 1.40119 2.33337 0.14654
v 1.47681 2.24799 0.03150
v 1.51481 2.09655 -0.28095
v 1.46333 2.05182 -0.27377
v 1.44408 2.12560 -0.23157
v 1.45540 1.70785 -0.39953
v 1.40726 1.65164 -0.32089
v 1.47372 1.75210 -0.32386
v 1.44170 1.97828 -0.15550
v 1.43608 1.98655 -0.21462
v 1.52370 1.87817 -0.15490
v 1.46333 2.05182 -0.27377
v 1.43608 1.98655 -0.21462
v 1.44408 2.12560 -0.23157
v 1.41909 2.15679 -0.01990
v 1.42894 2.12536 -0.03416
v 1.46746 2.07632 -0.06556
v 1.46746 2.07632 -0.06556
v 1.37744 2.01591 -0.13667
v 1.47423 1.99656 -0.06973
v 1.48355 1.55767 -0.38358
v 1.42305 1.59301 -0.40821
v 1.41349 1.62497 -0.35254
v 1.41349 1.62497 -0.35254
v 1.45540 1.70785 -0.39953
v 1.45089 1.60902 -0.41158
v 1.54366 1.57463 -0.02729
v 1.34098 1.53397 0.03603
v 1.48620 1.61354 0.00270
v 1.39102 2.28839 0.03852
v 1.47681 2.24799 0.03150
v 1.40119 2.33337 0.14654
v 1.44408 2.12560 -0.23157
v 1.37556 2.07632 -0.24067
v 1.45430 2.16478 -0.19252
v 1.46406 2.29054 -0.13019
v 1.43436 2.21752 -0.10934
v 1.42404 2.23281 -0.08813
v 1.47681 2.24799 0.03150
v 1.42404 2.23281 -0.08813
v 1.41909 2.15679 -0.01990
v 1.47372 1.75210 -0.32386
v 1.40726 1.65164 -0.32089
v 1.44040 1.61396 -0.29007
v 1.45540 1.70785 -0.39953
v 1.41349 1.62497 -0.35254
v 1.40726 1.65164 -0.32089
v 1.48215 2.57422 0.44882
v 1.45280 2.68106 0.52354
v 1.32291 2.59418 0.55884
v 1.44040 1.61396 -0.29007
v 1.40726 1.65164 -0.32089
v 1.41349 1.62497 -0.35254
v 1.45430 2.16478 -0.19252
v 1.34144 2.08282 -0.30744
v 1.42361 2.21053 -0.16832
v 1.45430 2.16478 -0.19252
v 1.37556 2.07632 -0.24067
v 1.34144 2.08282 -0.30744
v 1.39102 2.28839 0.03852
v 1.42404 2.23281 -0.08813
v 1.47681 2.24799 0.03150
v 1.46406 2.29054 -0.13019
v 1.42404 2.23281 -0.08813
v 1.35796 2.36222 -0.04853
v 1.38602 1.99330 -0.19803
v 1.44408 2.12560 -0.23157
v 1.43608 1.98655 -0.21462
v 1.48355 1.55767 -0.38358
v 1.27594 1.44268 -0.33668
v 1.42305 1.59301 -0.40821
v 1.32291 2.59418 0.55884
v 1.34708 2.50193 0.45195
v 1.48215 2.57422 0.44882
v 1.46905 1.56740 -0.31059
v 1.44040 1.61396 -0.29007
v 1.27594 1.44268 -0.33668
v 1.44170 1.97828 -0.15550
v 1.38602 1.99330 -0.19803
v 1.43608 1.98655 -0.21462
v 1.54366 1.57463 -0.02729
v 1.51067 1.53115 0.06336
v 1.34098 1.53397 0.03603
v 1.40006 2.44460 0.34913
v 1.49180 2.51419 0.33000
v 1.34708 2.50193 0.45195
v 1.42404 2.23281 -0.08813
v 1.43436 2.21752 -0.10934
v 1.42361 2.21053 -0.16832
v 1.38602 1.99330 -0.19803
v 1.37556 2.07632 -0.24067
v 1.44408 2.12560 -0.23157
v 1.40119 2.33337 0.14654
v 1.41397 2.47568 0.32401
v 1.25394 2.46545 0.29697
v 1.32225 2.53331 -0.05746
v 1.46406 2.29054 -0.13019
v 1.40030 2.38635 -0.09440
v 1.46746 2.07632 -0.06556
v 1.42894 2.12536 -0.03416
v 1.37744 2.01591 -0.13667
v 1.34098 1.53397 0.03603
v 1.49824 1.57363 0.10472
v 1.48620 1.61354 0.00270
v 1.37744 2.01591 -0.13667
v 1.38602 1.99330 -0.19803
v 1.44170 1.97828 -0.15550
v 1.42894 2.12536 -0.03416
v 1.34064 2.03670 -0.08203
v 1.37744 2.01591 -0.13667
v 1.42305 1.59301 -0.40821
v 1.27594 1.44268 -0.33668
v 1.41349 1.62497 -0.35254
v 1.35796 2.36222 -0.04853
v 1.42404 2.23281 -0.08813
v 1.39102 2.28839 0.03852
v 1.42361 2.21053 -0.16832
v 1.29530 2.11988 -0.16893
v 1.42404 2.23281 -0.08813
v 1.34144 2.08282 -0.30744
v 1.34495 2.15215 -0.23922
v 1.42361 2.21053 -0.16832
v 1.40006 2.44460 0.34913
v 1.27779 2.42615 0.30628
v 1.41397 2.47568 0.32401
v 1.34144 2.08282 -0.30744
v 1.37556 2.07632 -0.24067
v 1.32432 2.07209 -0.27369
v 1.27594 1.44268 -0.33668
v 1.48355 1.55767 -0.38358
v 1.46905 1.56740 -0.31059
v 1.17232 2.60614 0.05031
v 1.46406 2.29054 -0.13019
v 1.35796 2.36222 -0.04853
v 1.44040 1.61396 -0.29007
v 1.41349 1.62497 -0.35254
v 1.27594 1.44268 -0.33668
v 1.30275 2.40131 0.13087
v 1.39102 2.28839 0.03852
v 1.40119 2.33337 0.14654
v 1.40030 2.38635 -0.09440
v 1.46406 2.29054 -0.13019
v 1.17232 2.60614 0.05031
v 1.41909 2.15679 -0.01990
v 1.42404 2.23281 -0.08813
v 1.29530 2.11988 -0.16893
v 1.37556 2.07632 -0.24067
v 1.38602 1.99330 -0.19803
v 1.32777 1.90430 -0.23404
v 1.42894 2.12536 -0.03416
v 1.41909 2.15679 -0.01990
v 1.33572 2.10584 -0.07968
v 1.38602 1.99330 -0.19803
v 1.37744 2.01591 -0.13667
v 1.32777 1.90430 -0.23404
v 1.40006 2.44460 0.34913
v 1.34708 2.50193 0.45195
v 1.27779 2.42615 0.30628
v 1.40119 2.33337 0.14654
v 1.22944 2.40380 0.13173
v 1.30275 2.40131 0.13087
v 1.34064 2.03670 -0.08203
v 1.42894 2.12536 -0.03416
v 1.33572 2.10584 -0.07968
v 1.34144 2.08282 -0.30744
v 1.32432 2.07209 -0.27369
v 1.34495 2.15215 -0.23922
v 1.29530 2.11988 -0.16893
v 1.42361 2.21053 -0.16832
v 1.34495 2.15215 -0.23922
v 1.41397 2.47568 0.32401
v 1.27779 2.42615 0.30628
v 1.25394 2.46545 0.29697
v 1.29530 2.11988 -0.16893
v 1.33572 2.10584 -0.07968
v 1.41909 2.15679 -0.01990
v 1.37744 2.01591 -0.13667
v 1.27951 1.86577 -0.20275
v 1.32777 1.90430 -0.23404
v 1.37744 2.01591 -0.13667
v 1.34064 2.03670 -0.08203
v 1.29937 1.99190 -0.12250
v 1.39102 2.28839 0.03852
v 1.22944 2.40380 0.13173
v 1.35796 2.36222 -0.04853
v 1.37556 2.07632 -0.24067
v 1.32777 1.90430 -0.23404
v 1.27240 1.95311 -0.28710
v 1.37556 2.07632 -0.24067
v 1.26682 2.01136 -0.29776
v 1.32432 2.07209 -0.27369
v 1.32432 2.07209 -0.27369
v 1.29530 2.11988 -0.16893
v 1.34495 2.15215 -0.23922
v 1.39102 2.28839 0.03852
v 1.30275 2.40131 0.13087
v 1.22944 2.40380 0.13173
v 1.27240 1.95311 -0.28710
v 1.32777 1.90430 -0.23404
v 1.25681 1.88676 -0.26948
v 1.33572 2.10584 -0.07968
v 1.29937 1.99190 -0.12250
v 1.34064 2.03670 -0.08203
v 1.29937 1.99190 -0.12250
v 1.27951 1.86577 -0.20275
v 1.37744 2.01591 -0.13667
v 1.33572 2.10584 -0.07968
v 1.29530 2.11988 -0.16893
v 1.26107 2.00414 -0.13331
v 1.26682 2.01136 -0.29776
v 1.37556 2.07632 -0.24067
v 1.27240 1.95311 -0.28710
v 1.25681 1.88676 -0.26948
v 1.32777 1.90430 -0.23404
v 1.27951 1.86577 -0.20275
v 1.22853 1.88922 -0.16920
v 1.27951 1.86577 -0.20275
v 1.29937 1.99190 -0.12250
v 1.23933 2.48490 0.42216
v 1.27779 2.42615 0.30628
v 1.34708 2.50193 0.45195
v 1.29937 1.99190 -0.12250
v 1.33572 2.10584 -0.07968
v 1.26107 2.00414 -0.13331
v 1.32432 2.07209 -0.27369
v 1.24289 2.06572 -0.20744
v 1.29530 2.11988 -0.16893
v 1.27951 1.86577 -0.20275
v 1.27467 1.80263 -0.23743
v 1.25681 1.88676 -0.26948
v 1.32291 2.59418 0.55884
v 1.18677 2.67117 0.59848
v 1.23933 2.48490 0.42216
v 1.29530 2.11988 -0.16893
v 1.24289 2.06572 -0.20744
v 1.26107 2.00414 -0.13331
v 1.34708 2.50193 0.45195
v 1.32291 2.59418 0.55884
v 1.23933 2.48490 0.42216
v 1.35796 2.36222 -0.04853
v 1.16212 2.52851 0.06070
v 1.17232 2.60614 0.05031
v 1.22944 2.40380 0.13173
v 1.40119 2.33337 0.14654
v 1.17163 2.48602 0.25555
v 1.25681 1.88676 -0.26948
v 1.27467 1.80263 -0.23743
v 1.22297 1.79202 -0.27394
v 1.27951 1.86577 -0.20275
v 1.23901 1.79936 -0.19374
v 1.27467 1.80263 -0.23743
v 1.27951 1.86577 -0.20275
v 1.22853 1.88922 -0.16920
v 1.23901 1.79936 -0.19374
v 1.29937 1.99190 -0.12250
v 1.26107 2.00414 -0.13331
v 1.22853 1.88922 -0.16920
v 1.25681 1.88676 -0.26948
v 1.21720 1.90026 -0.29285
v 1.27240 1.95311 -0.28710
v 1.35796 2.36222 -0.04853
v 1.22944 2.40380 0.13173
v 1.16212 2.52851 0.06070
v 1.25394 2.46545 0.29697
v 1.17163 2.48602 0.25555
v 1.40119 2.33337 0.14654
v 1.18074 1.95232 -0.24238
v 1.24289 2.06572 -0.20744
v 1.32432 2.07209 -0.27369
v 1.18074 1.95232 -0.24238
v 1.26107 2.00414 -0.13331
v 1.24289 2.06572 -0.20744
v 1.25394 2.46545 0.29697
v 1.27779 2.42615 0.30628
v 1.23933 2.48490 0.42216
v 1.18074 1.95232 -0.24238
v 1.32432 2.07209 -0.27369
v 1.26682 2.01136 -0.29776
v 1.23901 1.79936 -0.19374
v 1.22297 1.79202 -0.27394
v 1.27467 1.80263 -0.23743
v 1.26682 2.01136 -0.29776
v 1.27240 1.95311 -0.28710
v 1.21720 1.90026 -0.29285
v 1.23901 1.79936 -0.19374
v 1.22853 1.88922 -0.16920
v 1.19991 1.77100 -0.20051
v 1.22632 1.64138 -0.27185
v 1.22297 1.79202 -0.27394
v 1.23901 1.79936 -0.19374
v 1.22297 1.79202 -0.27394
v 1.21720 1.90026 -0.29285
v 1.25681 1.88676 -0.26948
v 1.23901 1.79936 -0.19374
v 1.19991 1.77100 -0.20051
v 1.22632 1.64138 -0.27185
v 1.18074 1.95232 -0.24238
v 1.22853 1.88922 -0.16920
v 1.26107 2.00414 -0.13331
v 1.16212 2.52851 0.06070
v 1.22944 2.40380 0.13173
v 1.18249 2.43049 0.11547
v 1.21720 1.90026 -0.29285
v 1.22297 1.79202 -0.27394
v 1.22632 1.64138 -0.27185
v 1.23933 2.48490 0.42216
v 1.18677 2.67117 0.59848
v 1.20394 2.53432 0.40426
v 1.20394 2.53432 0.40426
v 1.25394 2.46545 0.29697
v 1.23933 2.48490 0.42216
v 1.26682 2.01136 -0.29776
v 1.21720 1.90026 -0.29285
v 1.18074 1.95232 -0.24238
v 1.22632 1.64138 -0.27185
v 1.19991 1.77100 -0.20051
v 1.17392 1.77263 -0.25431
v 1.25394 2.46545 0.29697
v 1.20394 2.53432 0.40426
v 1.13957 2.59414 0.28029
v 1.17392 1.77263 -0.25431
v 1.19991 1.77100 -0.20051
v 1.22853 1.88922 -0.16920
v 1.17392 1.77263 -0.25431
v 1.22853 1.88922 -0.16920
v 1.18074 1.95232 -0.24238
v 1.18074 1.95232 -0.24238
v 1.22632 1.64138 -0.27185
v 1.17392 1.77263 -0.25431
v 1.18074 1.95232 -0.24238
v 1.21720 1.90026 -0.29285
v 1.22632 1.64138 -0.27185
v 1.20394 2.53432 0.40426
v 1.18677 2.67117 0.59848
v 1.17099 2.52589 0.39237
v 1.17232 2.60614 0.05031
v 1.16212 2.52851 0.06070
v 1.10682 2.61950 0.12080
v 1.20394 2.53432 0.40426
v 1.17099 2.52589 0.39237
v 1.13957 2.59414 0.28029
v 1.07850 2.50397 0.15394
v 1.18249 2.43049 0.11547
v 1.22944 2.40380 0.13173
v 1.13957 2.59414 0.28029
v 0.99645 2.65142 0.22628
v 1.25394 2.46545 0.29697
v 0.99645 2.65142 0.22628
v 1.17163 2.48602 0.25555
v 1.25394 2.46545 0.29697
v 1.10682 2.61950 0.12080
v 1.16212 2.52851 0.06070
v 1.18249 2.43049 0.11547
v 1.17163 2.48602 0.25555
v 0.99645 2.65142 0.22628
v 1.22944 2.40380 0.13173
v 1.07850 2.50397 0.15394
v 1.10682 2.61950 0.12080
v 1.18249 2.43049 0.11547
v 1.17099 2.52589 0.39237
v 1.11014 2.67224 0.41911
v 1.13957 2.59414 0.28029
v 1.07850 2.50397 0.15394
v 1.22944 2.40380 0.13173
v 0.99645 2.65142 0.22628
v 1.03844 2.57485 0.11715
v 1.10682 2.61950 0.12080
v 1.07850 2.50397 0.15394
v 1.01145 2.63792 0.12543
v 1.10682 2.61950 0.12080
v 1.03844 2.57485 0.11715
v 1.07850 2.50397 0.15394
v 0.99645 2.65142 0.22628
v 1.03844 2.57485 0.11715
v 1.03596 2.66723 0.22155
v 1.10682 2.61950 0.12080
v 1.01145 2.63792 0.12543
v 0.99645 2.65142 0.22628
v 1.01145 2.63792 0.12543
v 1.03844 2.57485 0.11715
v 1.36311 2.57325 0.19409
v 1.61051 2.59532 0.24400
v 1.63091 2.36487 0.11701
v 1.53847 2.58025 0.26171
v 1.51537 2.60909 0.33799
v 1.48247 2.72901 0.45355
v 1.48919 2.64878 0.41728
v 1.45280 2.68106 0.52354
v 1.32291 2.59418 0.55884
v 1.18677 2.67117 0.59848
v 1.17099 2.52589 0.39237
v 1.11014 2.67224 0.41911
v 1.13957 2.59414 0.28029
v 0.99645 2.65142 0.22628
v 1.01145 2.63792 0.12543
v 1.03596 2.66723 0.22155
v 1.10682 2.61950 0.12080
v 1.17232 2.60614 0.05031
v 1.40030 2.38635 -0.09440
v 1.32225 2.53331 -0.05746
v 1.46406 2.29054 -0.13019
v 1.39351 2.68932 0.01707
v 1.56244 2.40208 -0.04478
v 1.50457 2.61383 0.04264
v 1.57631 2.43008 -0.08013
v 1.58280 2.74868 0.06076
v 1.66143 2.36207 -0.01580
vt 0.56060 0.60317
vt 0.55095 0.60308
vt 0.54836 0.59626
vt 0.54841 0.59623
vt 0.55095 0.60308
vt 0.52830 0.59438
vt 0.04722 0.66344
vt 0.04607 0.66916
vt 0.03791 0.67306
vt 0.04722 0.66344
vt 0.03770 0.67283
vt 0.03805 0.66644
vt 0.88922 0.52592
vt 0.89565 0.52642
vt 0.89619 0.54601
vt 0.96595 0.42064
vt 0.96447 0.42514
vt 0.95339 0.41810
vt 0.10187 0.21417
vt 0.09634 0.20796
vt 0.09590 0.19683
vt 0.54837 0.59625
vt 0.57300 0.59956
vt 0.56060 0.60317
vt 0.52974 0.60148
vt 0.52838 0.59417
vt 0.55095 0.60308
vt 0.05087 0.14779
vt 0.04748 0.13920
vt 0.05088 0.13665
vt 0.90964 0.79500
vt 0.90451 0.79875
vt 0.90652 0.77863
vt 0.09619 0.19673
vt 0.10154 0.19521
vt 0.10248 0.21395
vt 0.57307 0.59931
vt 0.54841 0.59610
vt 0.56927 0.59447
vt 0.89636 0.54604
vt 0.89580 0.52645
vt 0.90115 0.54631
vt 0.13795 0.13522
vt 0.13817 0.13019
vt 0.14120 0.15091
vt 0.40206 0.89185
vt 0.40778 0.88982
vt 0.41672 0.89211
vt 0.14120 0.15091
vt 0.13547 0.15382
vt 0.13795 0.13522
vt 0.44694 0.60496
vt 0.45140 0.60184
vt 0.44915 0.61072
vt 0.41516 0.09817
vt 0.40043 0.09485
vt 0.40220 0.09103
vt 0.44694 0.60496
vt 0.44209 0.60356
vt 0.45140 0.60184
vt 0.01917 0.65188
vt 0.01284 0.65248
vt 0.01425 0.64876
vt 0.40809 0.09175
vt 0.41515 0.09818
vt 0.40220 0.09102
vt 0.81415 0.96662
vt 0.80537 0.97051
vt 0.80519 0.96638
vt 0.17976 0.39993
vt 0.17406 0.40802
vt 0.17451 0.39313
vt 0.44900 0.61069
vt 0.45140 0.60184
vt 0.46433 0.60294
vt 0.14060 0.87369
vt 0.12939 0.86683
vt 0.14256 0.86747
vt 0.03786 0.90282
vt 0.02839 0.90307
vt 0.03710 0.89905
vt 0.46428 0.60285
vt 0.46493 0.60972
vt 0.44909 0.61084
vt 0.81928 0.71030
vt 0.81368 0.72447
vt 0.81054 0.71749
vt 0.17433 0.40821
vt 0.17962 0.39983
vt 0.17969 0.40942
vt 0.55857 0.56069
vt 0.55766 0.56796
vt 0.54366 0.56802
vt 0.81918 0.71005
vt 0.81083 0.71731
vt 0.81302 0.70360
vt 0.79868 0.25990
vt 0.80082 0.27563
vt 0.79426 0.27449
vt 0.81296 0.70354
vt 0.82037 0.70207
vt 0.81958 0.71011
vt 0.03796 0.04553
vt 0.03921 0.03549
vt 0.04164 0.04252
vt 0.97633 0.61675
vt 0.98125 0.61814
vt 0.97612 0.62112
vt 0.63546 0.02192
vt 0.61475 0.02199
vt 0.62204 0.01831
vt 0.41662 0.09117
vt 0.41512 0.09816
vt 0.40801 0.09172
vt 0.98243 0.90050
vt 0.98090 0.91358
vt 0.97784 0.90538
vt 0.80537 0.97051
vt 0.81415 0.96662
vt 0.81551 0.97063
vt 0.10495 0.41841
vt 0.10934 0.40231
vt 0.10901 0.42287
vt 0.79846 0.25982
vt 0.79434 0.27452
vt 0.79224 0.26344
vt 0.00314 0.99836
vt 0.00304 0.99436
vt 0.00999 0.99732
vt 0.79858 0.26005
vt 0.79224 0.26344
vt 0.79375 0.25973
vt 0.04774 0.99005
vt 0.05064 0.99298
vt 0.04387 0.99025
vt 0.84520 0.51627
vt 0.85504 0.51504
vt 0.84181 0.52814
vt 0.84168 0.52805
vt 0.85484 0.51491
vt 0.85031 0.52244
vt 0.66692 0.78295
vt 0.66126 0.77849
vt 0.66860 0.77981
vt 0.81996 0.34367
vt 0.81892 0.35660
vt 0.81208 0.35961
vt 0.41644 0.09134
vt 0.42199 0.09340
vt 0.41519 0.09809
vt 0.81536 0.34299
vt 0.81989 0.34362
vt 0.81207 0.35961
vt 0.67702 0.78204
vt 0.66692 0.78294
vt 0.66860 0.77981
vt 0.70228 0.12145
vt 0.68427 0.13063
vt 0.68065 0.12492
vt 0.68065 0.12492
vt 0.68491 0.11317
vt 0.70024 0.12198
vt 0.17469 0.39291
vt 0.17882 0.37907
vt 0.17980 0.39980
vt 0.87116 0.91999
vt 0.88080 0.91788
vt 0.88809 0.91996
vt 0.84280 0.54808
vt 0.84173 0.52811
vt 0.85031 0.52244
vt 0.39725 0.91690
vt 0.39125 0.91056
vt 0.39781 0.90503
vt 0.81797 0.91363
vt 0.81940 0.91667
vt 0.80554 0.91498
vt 0.01998 0.83924
vt 0.02124 0.84707
vt 0.01487 0.84629
vt 0.81893 0.70191
vt 0.81277 0.70345
vt 0.81479 0.69280
vt 0.30847 0.75254
vt 0.31206 0.76429
vt 0.30949 0.76918
vt 0.08044 0.40595
vt 0.08044 0.39724
vt 0.09108 0.41602
vt 0.17469 0.39291
vt 0.17731 0.37783
vt 0.17890 0.37881
vt 0.72012 0.97570
vt 0.71821 0.97868
vt 0.71232 0.97076
vt 0.99167 0.01316
vt 0.99678 0.01165
vt 0.99682 0.01429
vt 0.57678 0.99666
vt 0.57242 0.99644
vt 0.57126 0.99124
vt 0.55859 0.56075
vt 0.58079 0.56963
vt 0.55766 0.56801
vt 0.41508 0.09806
vt 0.42199 0.09340
vt 0.43024 0.09593
vt 0.09750 0.31177
vt 0.09252 0.28366
vt 0.10390 0.31189
vt 0.30909 0.03545
vt 0.30117 0.02976
vt 0.29701 0.01952
vt 0.30392 0.03503
vt 0.30569 0.02032
vt 0.31263 0.02023
vt 0.30919 0.76899
vt 0.31206 0.76429
vt 0.31200 0.77644
vt 0.00796 0.03349
vt 0.01004 0.02866
vt 0.00971 0.03733
vt 0.89973 0.28141
vt 0.89546 0.28423
vt 0.88962 0.26656
vt 0.02104 0.51784
vt 0.00876 0.51944
vt 0.01891 0.51541
vt 0.69039 0.39471
vt 0.69399 0.39644
vt 0.68526 0.40312
vt 0.17622 0.64186
vt 0.18214 0.64962
vt 0.17789 0.65301
vt 0.46337 0.18953
vt 0.45016 0.19585
vt 0.45825 0.18913
vt 0.97821 0.20790
vt 0.97114 0.21447
vt 0.97112 0.19926
vt 0.68529 0.40315
vt 0.69388 0.39631
vt 0.68854 0.40690
vt 0.89921 0.27099
vt 0.89869 0.27921
vt 0.88958 0.26969
vt 0.00720 0.56996
vt 0.00960 0.57234
vt 0.00128 0.57466
vt 0.50205 0.99455
vt 0.49847 0.98870
vt 0.50494 0.99007
vt 0.32062 0.00767
vt 0.30605 0.00774
vt 0.31400 0.00160
vt 0.31643 0.77757
vt 0.31208 0.77643
vt 0.31206 0.76429
vt 0.05711 0.53736
vt 0.04312 0.53713
vt 0.04238 0.53390
vt 0.17624 0.64184
vt 0.17964 0.64040
vt 0.18210 0.64966
vt 0.29882 0.01786
vt 0.30383 0.02153
vt 0.29858 0.02735
vt 0.70056 0.12137
vt 0.68496 0.11333
vt 0.69720 0.11086
vt 0.55864 0.56061
vt 0.57227 0.56357
vt 0.58079 0.56963
vt 0.84028 0.98376
vt 0.84416 0.98953
vt 0.83960 0.99309
vt 0.30958 0.84897
vt 0.28103 0.84861
vt 0.28338 0.84578
vt 0.08044 0.39724
vt 0.08705 0.39697
vt 0.09069 0.41620
vt 0.98383 0.00068
vt 0.98704 0.00365
vt 0.97710 0.00196
vt 0.12652 0.82093
vt 0.12588 0.81365
vt 0.12947 0.81639
vt 0.44222 0.96449
vt 0.44689 0.96175
vt 0.44395 0.96812
vt 0.29882 0.01786
vt 0.29723 0.02691
vt 0.29258 0.02004
vt 0.32062 0.00767
vt 0.31408 0.00152
vt 0.32391 0.00172
vt 0.74211 0.72807
vt 0.73257 0.73312
vt 0.73911 0.72549
vt 0.10488 0.29729
vt 0.10514 0.27647
vt 0.10534 0.29618
vt 0.97838 0.21117
vt 0.97059 0.21461
vt 0.97821 0.20790
vt 0.44749 0.18890
vt 0.45849 0.18909
vt 0.45015 0.19586
vt 0.01512 0.93758
vt 0.01168 0.94195
vt 0.00990 0.93838
vt 0.12652 0.82093
vt 0.11978 0.81868
vt 0.12597 0.81367
vt 0.00265 0.86164
vt 0.00935 0.85894
vt 0.00470 0.86671
vt 0.30178 0.95981
vt 0.30308 0.96354
vt 0.29416 0.96709
vt 0.79546 0.98168
vt 0.79141 0.97961
vt 0.79250 0.97360
vt 0.89990 0.28133
vt 0.89924 0.27053
vt 0.90251 0.27975
vt 0.68854 0.40690
vt 0.68461 0.42068
vt 0.68536 0.40332
vt 0.01608 0.94603
vt 0.01168 0.94195
vt 0.01497 0.93735
vt 0.16524 0.76969
vt 0.17130 0.76971
vt 0.17227 0.77509
vt 0.93269 0.99851
vt 0.93767 0.99194
vt 0.93873 0.99574
vt 0.74211 0.72807
vt 0.73411 0.73893
vt 0.73257 0.73312
vt 0.81784 0.37946
vt 0.81347 0.36383
vt 0.81881 0.35643
vt 0.00073 0.50411
vt 0.00479 0.50217
vt 0.00409 0.50564
vt 0.07314 0.49177
vt 0.08922 0.49545
vt 0.08347 0.50112
vt 0.29041 0.02161
vt 0.29276 0.01994
vt 0.29721 0.02762
vt 0.59191 0.56126
vt 0.58079 0.56963
vt 0.57227 0.56357
vt 0.90155 0.27984
vt 0.90435 0.28814
vt 0.89932 0.28201
vt 0.24528 0.89787
vt 0.24576 0.89444
vt 0.25240 0.89935
vt 0.90004 0.28749
vt 0.90022 0.28241
vt 0.90250 0.28784
vt 0.70322 0.13377
vt 0.70037 0.13497
vt 0.69991 0.12195
vt 0.03237 0.47842
vt 0.03631 0.47215
vt 0.03709 0.47861
vt 0.24584 0.89439
vt 0.25821 0.89758
vt 0.25244 0.89933
vt 0.28506 0.01670
vt 0.30172 0.01089
vt 0.30251 0.01673
vt 0.66261 0.01056
vt 0.66438 0.01367
vt 0.64747 0.01953
vt 0.48700 0.94448
vt 0.49267 0.94478
vt 0.48871 0.95023
vt 0.29452 0.96745
vt 0.30291 0.96337
vt 0.30489 0.96594
vt 0.12574 0.77901
vt 0.14582 0.77353
vt 0.14233 0.77798
vt 0.46428 0.60283
vt 0.48712 0.60334
vt 0.46502 0.60959
vt 0.17122 0.76959
vt 0.17692 0.76911
vt 0.17234 0.77505
vt 0.03645 0.47212
vt 0.03223 0.47845
vt 0.03144 0.47098
vt 0.33910 0.91497
vt 0.34003 0.90911
vt 0.34404 0.91776
vt 0.68855 0.40691
vt 0.69057 0.40663
vt 0.69222 0.41100
vt 0.01483 0.95792
vt 0.01152 0.95355
vt 0.01697 0.94949
vt 0.04612 0.98216
vt 0.04004 0.98217
vt 0.04523 0.98031
vt 0.74313 0.72719
vt 0.73645 0.72468
vt 0.74278 0.72074
vt 0.24257 0.80642
vt 0.24776 0.80405
vt 0.24935 0.81078
vt 0.63564 0.94447
vt 0.64178 0.94931
vt 0.63496 0.94915
vt 0.29409 0.96708
vt 0.29575 0.96457
vt 0.30173 0.95981
vt 0.67506 0.90228
vt 0.67756 0.90262
vt 0.67594 0.90532
vt 0.45015 0.19592
vt 0.43257 0.18657
vt 0.44752 0.18892
vt 0.84977 0.99179
vt 0.85292 0.98532
vt 0.85239 0.99276
vt 0.15632 0.40524
vt 0.17093 0.39695
vt 0.15561 0.41564
vt 0.45031 0.19587
vt 0.46971 0.19680
vt 0.45952 0.19863
vt 0.49077 0.95356
vt 0.48871 0.95023
vt 0.49250 0.94467
vt 0.70460 0.13885
vt 0.70419 0.13478
vt 0.70624 0.14201
vt 0.99832 0.77309
vt 0.99359 0.77362
vt 0.99944 0.76737
vt 0.69027 0.42113
vt 0.68857 0.40689
vt 0.69224 0.41098
vt 0.68461 0.42068
vt 0.68854 0.40690
vt 0.69027 0.42113
vt 0.81048 0.69150
vt 0.81547 0.69329
vt 0.81022 0.70172
vt 0.49239 0.94467
vt 0.49730 0.94514
vt 0.49096 0.95356
vt 0.79421 0.27451
vt 0.80076 0.27573
vt 0.79412 0.29786
vt 0.01272 0.27269
vt 0.01072 0.27592
vt 0.00562 0.27274
vt 0.17096 0.39701
vt 0.15630 0.40520
vt 0.16614 0.39446
vt 0.15648 0.14738
vt 0.16759 0.12613
vt 0.16751 0.13450
vt 0.90588 0.29213
vt 0.89868 0.28721
vt 0.90395 0.28771
vt 0.00562 0.27274
vt 0.01059 0.27605
vt 0.00551 0.27733
vt 0.70523 0.13411
vt 0.71263 0.13753
vt 0.70417 0.14303
vt 0.81247 0.32193
vt 0.82000 0.34354
vt 0.81554 0.34286
vt 0.28504 0.01670
vt 0.28725 0.01214
vt 0.30166 0.01090
vt 0.62178 0.92251
vt 0.61471 0.92243
vt 0.61717 0.91967
vt 0.85875 0.73049
vt 0.86569 0.74835
vt 0.85491 0.74623
vt 0.71330 0.15145
vt 0.70504 0.14264
vt 0.71141 0.13786
vt 0.53663 0.99255
vt 0.53181 0.99507
vt 0.53040 0.98883
vt 0.63494 0.94903
vt 0.64177 0.94898
vt 0.63192 0.95536
vt 0.86568 0.74838
vt 0.86008 0.75482
vt 0.85494 0.74608
vt 0.00654 0.67106
vt 0.01406 0.67698
vt 0.00704 0.67697
vt 0.70016 0.12106
vt 0.71542 0.10996
vt 0.70949 0.12308
vt 0.96708 0.86113
vt 0.96329 0.86511
vt 0.96482 0.85998
vt 0.17967 0.64036
vt 0.17630 0.64185
vt 0.18164 0.61913
vt 0.81335 0.39048
vt 0.81356 0.36378
vt 0.81784 0.37946
vt 0.64183 0.94906
vt 0.64133 0.95489
vt 0.63191 0.95534
vt 0.87420 0.08450
vt 0.87657 0.10187
vt 0.87239 0.09367
vt 0.70016 0.12139
vt 0.71158 0.12378
vt 0.70270 0.13427
vt 0.16413 0.95946
vt 0.16406 0.96609
vt 0.15803 0.96382
vt 0.70949 0.12308
vt 0.71542 0.10996
vt 0.72284 0.11239
vt 0.69180 0.89210
vt 0.68405 0.88828
vt 0.69154 0.88738
vt 0.25504 0.93866
vt 0.25147 0.92877
vt 0.26493 0.93195
vt 0.86044 0.75463
vt 0.85583 0.75792
vt 0.85509 0.74600
vt 0.40815 0.19456
vt 0.43256 0.18661
vt 0.44072 0.19672
vt 0.94143 0.29928
vt 0.94639 0.30178
vt 0.93354 0.30172
vt 0.89771 0.00508
vt 0.90213 0.01020
vt 0.89290 0.01175
vt 0.14606 0.93907
vt 0.14932 0.92819
vt 0.14931 0.93518
vt 0.02753 0.38439
vt 0.02077 0.38250
vt 0.02371 0.37457
vt 0.16763 0.13465
vt 0.16788 0.14703
vt 0.15648 0.14762
vt 0.85502 0.68923
vt 0.84835 0.67906
vt 0.85251 0.68052
vt 0.96333 0.86514
vt 0.96708 0.86113
vt 0.97570 0.86534
vt 0.01219 0.82933
vt 0.00323 0.82846
vt 0.00663 0.82321
vt 0.71605 0.12505
vt 0.71624 0.13033
vt 0.71155 0.12470
vt 0.45405 0.20267
vt 0.45015 0.19593
vt 0.45949 0.19859
vt 0.74288 0.72081
vt 0.73588 0.72418
vt 0.74473 0.70458
vt 0.70291 0.13436
vt 0.71169 0.12388
vt 0.71357 0.13632
vt 0.44607 0.20197
vt 0.44057 0.19708
vt 0.45012 0.19598
vt 0.45012 0.19596
vt 0.44058 0.19679
vt 0.43251 0.18663
vt 0.61717 0.91967
vt 0.61447 0.92243
vt 0.61218 0.91440
vt 0.67756 0.90262
vt 0.67506 0.90232
vt 0.67846 0.89307
vt 0.06454 0.11126
vt 0.05153 0.09660
vt 0.06501 0.09531
vt 0.68405 0.88828
vt 0.69180 0.89210
vt 0.67730 0.89164
vt 0.85538 0.97647
vt 0.85197 0.98556
vt 0.84869 0.97478
vt 0.81335 0.39048
vt 0.81784 0.37946
vt 0.81968 0.39098
vt 0.90545 0.00446
vt 0.90199 0.01024
vt 0.89794 0.00503
vt 0.71292 0.13680
vt 0.71150 0.12400
vt 0.71624 0.13033
vt 0.09240 0.90703
vt 0.09509 0.90134
vt 0.10007 0.90743
vt 0.69603 0.41257
vt 0.69469 0.42138
vt 0.69027 0.42113
vt 0.64782 0.42354
vt 0.65260 0.44732
vt 0.61954 0.42783
vt 0.96134 0.80767
vt 0.95504 0.79528
vt 0.96348 0.79569
vt 0.99240 0.84620
vt 0.99921 0.84234
vt 0.99738 0.84591
vt 0.35264 0.90296
vt 0.34632 0.91205
vt 0.34596 0.90312
vt 0.45025 0.19609
vt 0.45055 0.20115
vt 0.44607 0.20197
vt 0.19315 0.77131
vt 0.17233 0.77506
vt 0.17698 0.76910
vt 0.02118 0.53065
vt 0.01253 0.52759
vt 0.02149 0.52751
vt 0.03032 0.62263
vt 0.02545 0.62397
vt 0.02930 0.61729
vt 0.60022 0.94537
vt 0.59147 0.94633
vt 0.59444 0.94142
vt 0.03741 0.91327
vt 0.03226 0.91372
vt 0.03751 0.90352
vt 0.00452 0.93110
vt 0.00579 0.93837
vt 0.00160 0.93654
vt 0.95413 0.14701
vt 0.94089 0.14409
vt 0.95246 0.14000
vt 0.09138 0.98419
vt 0.08741 0.98084
vt 0.09309 0.97760
vt 0.90545 0.00446
vt 0.91137 0.01012
vt 0.90237 0.01031
vt 0.03294 0.90374
vt 0.03748 0.90346
vt 0.03188 0.91339
vt 0.21047 0.98747
vt 0.21047 0.98049
vt 0.21691 0.98895
vt 0.09515 0.90125
vt 0.09711 0.90306
vt 0.10007 0.90743
vt 0.10007 0.90743
vt 0.10899 0.90344
vt 0.10473 0.91133
vt 0.99206 0.13570
vt 0.99235 0.13013
vt 0.99725 0.13011
vt 0.67649 0.88632
vt 0.68405 0.88828
vt 0.67728 0.89161
vt 0.24260 0.80640
vt 0.24877 0.79127
vt 0.24779 0.80401
vt 0.65167 0.40739
vt 0.65505 0.40539
vt 0.64609 0.42106
vt 0.49510 0.95485
vt 0.49707 0.94883
vt 0.49695 0.95851
vt 0.00452 0.93111
vt 0.00160 0.93654
vt 0.00000 0.93526
vt 0.81745 0.13848
vt 0.81037 0.12864
vt 0.81789 0.12791
vt 0.35257 0.90293
vt 0.35078 0.91188
vt 0.34632 0.91206
vt 0.90545 0.00446
vt 0.91278 0.00733
vt 0.91137 0.01012
vt 0.09122 0.67903
vt 0.07740 0.68017
vt 0.07809 0.66359
vt 0.02529 0.61427
vt 0.02975 0.61422
vt 0.02948 0.61736
vt 0.67350 0.87302
vt 0.68716 0.87391
vt 0.67193 0.87730
vt 0.93960 0.26737
vt 0.94896 0.26487
vt 0.95322 0.26858
vt 0.92644 0.97330
vt 0.93454 0.98037
vt 0.92460 0.98013
vt 0.58102 0.71544
vt 0.58110 0.72164
vt 0.57004 0.71886
vt 0.53452 0.03890
vt 0.52637 0.04738
vt 0.52944 0.03779
vt 0.08280 0.09026
vt 0.06520 0.08541
vt 0.08201 0.08479
vt 0.07809 0.66359
vt 0.09291 0.66318
vt 0.09124 0.67901
vt 0.69027 0.42113
vt 0.69469 0.42138
vt 0.68823 0.43854
vt 0.64409 0.99215
vt 0.64509 0.99748
vt 0.64142 0.99582
vt 0.12554 0.81353
vt 0.11978 0.81868
vt 0.10958 0.81058
vt 0.05136 0.10860
vt 0.05160 0.09655
vt 0.06451 0.11129
vt 0.79730 0.11301
vt 0.79816 0.11212
vt 0.80256 0.11061
vt 0.53668 0.03786
vt 0.53148 0.04645
vt 0.52511 0.04753
vt 0.64794 0.42353
vt 0.61954 0.42783
vt 0.61474 0.42021
vt 0.55968 0.71027
vt 0.58099 0.71571
vt 0.57206 0.71394
vt 0.10007 0.90743
vt 0.09720 0.90306
vt 0.10916 0.90370
vt 0.86964 0.93451
vt 0.85849 0.94184
vt 0.85690 0.93369
vt 0.64910 0.99472
vt 0.64512 0.99747
vt 0.64409 0.99215
vt 0.37018 0.01935
vt 0.36070 0.02297
vt 0.35823 0.01839
vt 0.07375 0.26184
vt 0.08705 0.27215
vt 0.07090 0.26584
vt 0.18528 0.29244
vt 0.19393 0.28503
vt 0.19364 0.29576
vt 0.80256 0.11061
vt 0.81713 0.11788
vt 0.79736 0.11281
vt 0.68716 0.87391
vt 0.68102 0.87798
vt 0.67193 0.87730
vt 0.84835 0.67906
vt 0.84996 0.66552
vt 0.85251 0.68052
vt 0.00000 0.14075
vt 0.00327 0.13620
vt 0.00289 0.14079
vt 0.68832 0.43855
vt 0.68461 0.42060
vt 0.69027 0.42113
vt 0.54574 0.71704
vt 0.58103 0.71567
vt 0.57004 0.71886
vt 0.08661 0.11414
vt 0.08176 0.11266
vt 0.08592 0.09583
vt 0.64261 0.41414
vt 0.65184 0.40525
vt 0.64530 0.42350
vt 0.43813 0.89267
vt 0.42926 0.89217
vt 0.46441 0.89058
vt 0.81598 0.12897
vt 0.81048 0.12913
vt 0.81013 0.10924
vt 0.53148 0.04645
vt 0.53674 0.03958
vt 0.54625 0.04705
vt 0.90040 0.89452
vt 0.90178 0.89684
vt 0.89352 0.89804
vt 0.53915 0.93091
vt 0.54352 0.92862
vt 0.53883 0.93939
vt 0.94011 0.37564
vt 0.95349 0.37665
vt 0.93991 0.38927
vt 0.08392 0.86424
vt 0.09800 0.86389
vt 0.09288 0.86600
vt 0.89034 0.89412
vt 0.90035 0.89457
vt 0.89328 0.89829
vt 0.00493 0.07723
vt 0.00255 0.07684
vt 0.00321 0.07013
vt 0.81511 0.11626
vt 0.80256 0.11061
vt 0.81065 0.10911
vt 0.85251 0.68052
vt 0.84996 0.66552
vt 0.85439 0.66371
vt 0.81512 0.11156
vt 0.81958 0.11815
vt 0.81161 0.12806
vt 0.54353 0.92858
vt 0.54262 0.94295
vt 0.53883 0.93942
vt 0.35821 0.01839
vt 0.36070 0.02297
vt 0.35526 0.02383
vt 0.25482 0.01458
vt 0.23824 0.01345
vt 0.25319 0.00825
vt 0.53148 0.04645
vt 0.54603 0.04477
vt 0.54477 0.05069
vt 0.57958 0.90801
vt 0.57577 0.91783
vt 0.57629 0.91126
vt 0.73644 0.16422
vt 0.74382 0.16910
vt 0.73705 0.17073
vt 0.25482 0.01458
vt 0.24221 0.01673
vt 0.23824 0.01345
vt 0.54470 0.05054
vt 0.54619 0.04493
vt 0.55052 0.05075
vt 0.08995 0.44578
vt 0.08761 0.45501
vt 0.08646 0.44962
vt 0.09543 0.59583
vt 0.10294 0.60437
vt 0.08976 0.59853
vt 0.08959 0.44579
vt 0.09632 0.44910
vt 0.08994 0.45617
vt 0.57577 0.91783
vt 0.57958 0.90801
vt 0.57919 0.92066
vt 0.00479 0.69670
vt 0.00438 0.70284
vt 0.00013 0.69975
vt 0.10471 0.59970
vt 0.10308 0.60423
vt 0.09542 0.59579
vt 0.95389 0.38837
vt 0.93991 0.38927
vt 0.95347 0.37663
vt 0.08761 0.45501
vt 0.08995 0.44578
vt 0.09023 0.45616
vt 0.73632 0.16437
vt 0.74404 0.16239
vt 0.74412 0.16869
vt 0.99951 0.41009
vt 0.99501 0.41304
vt 0.99552 0.40619
vt 0.41356 0.13697
vt 0.40194 0.12484
vt 0.42921 0.12423
vt 0.09643 0.44922
vt 0.09737 0.45552
vt 0.08997 0.45621
vt 0.42834 0.13594
vt 0.41356 0.13697
vt 0.42919 0.12421
vt 0.57004 0.71886
vt 0.54912 0.72196
vt 0.54572 0.71711
vt 0.11671 0.33374
vt 0.12858 0.34135
vt 0.10618 0.33966
vt 0.94412 0.98006
vt 0.93764 0.97761
vt 0.94023 0.97351
vt 0.00467 0.88482
vt 0.00377 0.87900
vt 0.00782 0.88037
vt 0.00486 0.88478
vt 0.00000 0.88500
vt 0.00377 0.87900
vt 0.02453 0.33194
vt 0.02326 0.33481
vt 0.01470 0.33125
vt 0.02605 0.63676
vt 0.02526 0.63342
vt 0.03086 0.63492
vt 0.18528 0.29244
vt 0.18457 0.30949
vt 0.17256 0.30935
vt 0.85873 0.22873
vt 0.85258 0.23640
vt 0.84589 0.20625
vt 0.74428 0.15224
vt 0.74404 0.16239
vt 0.73630 0.16415
vt 0.09568 0.46551
vt 0.08998 0.45616
vt 0.09737 0.45552
vt 0.43965 0.68276
vt 0.44469 0.67383
vt 0.45865 0.68336
vt 0.74429 0.15225
vt 0.73642 0.16426
vt 0.73723 0.15775
vt 0.00206 0.63198
vt 0.00828 0.63198
vt 0.00475 0.63518
vt 0.03438 0.63206
vt 0.03087 0.63488
vt 0.02526 0.63342
vt 0.72830 0.01299
vt 0.73516 0.01431
vt 0.72584 0.01574
vt 0.34013 0.83838
vt 0.34066 0.82698
vt 0.34688 0.82682
vt 0.94023 0.97351
vt 0.94718 0.97811
vt 0.94413 0.98005
vt 0.72830 0.01299
vt 0.72584 0.01574
vt 0.71498 0.01256
vt 0.87953 0.59482
vt 0.88421 0.58813
vt 0.89011 0.59502
vt 0.23986 0.90545
vt 0.23882 0.92188
vt 0.23624 0.91678
vt 0.33970 0.81870
vt 0.34066 0.82698
vt 0.34015 0.83838
vt 0.57368 0.07415
vt 0.57179 0.10136
vt 0.56768 0.07689
vt 0.45336 0.69365
vt 0.43837 0.68374
vt 0.45821 0.68379
vt 0.73723 0.15775
vt 0.73936 0.14877
vt 0.74433 0.15235
vt 0.87116 0.57180
vt 0.87838 0.58060
vt 0.87413 0.58217
vt 0.42854 0.68836
vt 0.45138 0.69464
vt 0.44124 0.70513
vt 0.87413 0.58217
vt 0.87838 0.58060
vt 0.88418 0.58814
vt 0.87413 0.58217
vt 0.88420 0.58811
vt 0.87944 0.59474
vt 0.74397 0.15235
vt 0.73806 0.12917
vt 0.74298 0.13875
vt 0.74426 0.15225
vt 0.73936 0.14877
vt 0.73821 0.12912
vt 0.24733 0.03657
vt 0.27214 0.03632
vt 0.24612 0.04009
vt 0.24318 0.61137
vt 0.23791 0.60507
vt 0.25064 0.60455
vt 0.97858 0.66050
vt 0.97656 0.66334
vt 0.96277 0.66129
vt 0.71564 0.27952
vt 0.71736 0.26577
vt 0.72121 0.26134
vt 0.87601 0.13061
vt 0.86742 0.14531
vt 0.87642 0.11265
vt 0.86754 0.14532
vt 0.87008 0.12019
vt 0.87630 0.11263
vt 0.25063 0.60444
vt 0.23791 0.60507
vt 0.23165 0.59496
vt 0.72842 0.27503
vt 0.72026 0.29827
vt 0.72148 0.26154
vt 0.92343 0.61676
vt 0.91497 0.62645
vt 0.91573 0.60526
vt 0.61624 0.73287
vt 0.61845 0.74940
vt 0.60438 0.74011
vt 0.71585 0.27966
vt 0.72148 0.26154
vt 0.72026 0.29827
vt 0.01438 0.85909
vt 0.02247 0.85709
vt 0.01621 0.86821
vt 0.23872 0.93274
vt 0.23127 0.92589
vt 0.23978 0.92562
vt 0.71551 0.27927
vt 0.72007 0.29840
vt 0.71031 0.28699
vt 0.07124 0.30666
vt 0.07824 0.31844
vt 0.06829 0.31703
vt 0.71996 0.29856
vt 0.70976 0.29417
vt 0.71031 0.28699
vt 0.84280 0.54808
vt 0.84280 0.54808
vt 0.84280 0.54808
vt 0.84280 0.54808
vt 0.84280 0.54808
vt 0.84280 0.54808
vt 0.84280 0.54808
vt 0.84280 0.54808
vt 0.84280 0.54808
vt 0.84280 0.54808
vt 0.84280 0.54808
vt 0.84280 0.54808
vt 0.84280 0.54808
vt 0.84280 0.54808
vt 0.84280 0.54808
vt 0.84280 0.54808
vt 0.84280 0.54808
vt 0.84280 0.54808
vt 0.84280 0.54808
vt 0.84280 0.54808
vt 0.84280 0.54808
vt 0.84280 0.54808
vt 0.84280 0.54808
vt 0.84280 0.54808
vt 0.84280 0.54808
vt 0.84280 0.54808
vt 0.84280 0.54808
vn 0.8953 -0.0430 -0.4434
vn 0.9344 0.2156 -0.2836
vn 0.9082 -0.0820 0.4105
vn 0.9082 -0.0820 0.4105
vn 0.9344 0.2156 -0.2836
vn 0.9178 0.1722 0.3578
vn 0.8953 -0.0430 -0.4434
vn 0.1926 0.0748 -0.9784
vn 0.2778 0.3376 -0.8994
vn 0.8953 -0.0430 -0.4434
vn 0.2778 0.3376 -0.8994
vn 0.9344 0.2156 -0.2836
vn 0.9344 0.2156 -0.2836
vn 0.2778 0.3376 -0.8994
vn 0.8233 0.5670 -0.0253
vn 0.9350 -0.2137 -0.2829
vn 0.4385 0.0783 -0.8953
vn 0.8953 -0.0430 -0.4434
vn 0.9221 0.0255 0.3860
vn 0.9577 0.1597 0.2396
vn 0.9855 -0.1232 -0.1168
vn 0.9082 -0.0820 0.4105
vn 0.9350 -0.2137 -0.2829
vn 0.8953 -0.0430 -0.4434
vn 0.8233 0.5670 -0.0253
vn 0.9178 0.1722 0.3578
vn 0.9344 0.2156 -0.2836
vn 0.9577 0.1597 0.2396
vn 0.9457 -0.1402 0.2932
vn 0.9855 -0.1232 -0.1168
vn 0.9221 0.0255 0.3860
vn 0.9082 -0.0820 0.4105
vn 0.9178 0.1722 0.3578
vn 0.9855 -0.1232 -0.1168
vn 0.8344 -0.2872 0.4704
vn 0.9221 0.0255 0.3860
vn 0.9350 -0.2137 -0.2829
vn 0.9082 -0.0820 0.4105
vn 0.9858 -0.0766 0.1495
vn 0.8233 0.5670 -0.0253
vn 0.2778 0.3376 -0.8994
vn 0.3414 0.6277 -0.6996
vn 0.8344 -0.2872 0.4704
vn 0.9858 -0.0766 0.1495
vn 0.9082 -0.0820 0.4105
vn 0.9288 -0.1971 0.3138
vn 0.9457 -0.1402 0.2932
vn 0.9577 0.1597 0.2396
vn 0.9082 -0.0820 0.4105
vn 0.9221 0.0255 0.3860
vn 0.8344 -0.2872 0.4704
vn 0.9858 -0.0766 0.1495
vn 0.7484 -0.2105 0.6289
vn 0.9350 -0.2137 -0.2829
vn 0.7821 -0.5955 -0.1837
vn 0.9855 -0.1232 -0.1168
vn 0.9457 -0.1402 0.2932
vn 0.9858 -0.0766 0.1495
vn 0.8344 -0.2872 0.4704
vn 0.7484 -0.2105 0.6289
vn 0.8953 -0.0430 -0.4434
vn 0.3492 0.0825 -0.9334
vn 0.1926 0.0748 -0.9784
vn 0.9288 -0.1971 0.3138
vn 0.7821 -0.5955 -0.1837
vn 0.9457 -0.1402 0.2932
vn 0.1926 0.0748 -0.9784
vn -0.0639 0.2726 -0.9600
vn 0.2778 0.3376 -0.8994
vn -0.0537 -0.4085 -0.9112
vn 0.9855 -0.1232 -0.1168
vn 0.7821 -0.5955 -0.1837
vn 0.9350 -0.2137 -0.2829
vn 0.7484 -0.2105 0.6289
vn 0.6782 -0.4883 0.5492
vn 0.8953 -0.0430 -0.4434
vn 0.4385 0.0783 -0.8953
vn 0.3492 0.0825 -0.9334
vn 0.7484 -0.2105 0.6289
vn 0.8344 -0.2872 0.4704
vn -0.0537 -0.4085 -0.9112
vn 0.6782 -0.4883 0.5492
vn 0.7838 -0.4995 -0.3691
vn 0.9350 -0.2137 -0.2829
vn 0.9288 -0.1971 0.3138
vn 0.9577 0.1597 0.2396
vn 0.5155 -0.0625 0.8546
vn 0.9855 -0.1232 -0.1168
vn -0.0537 -0.4085 -0.9112
vn 0.8344 -0.2872 0.4704
vn 0.9178 0.1722 0.3578
vn 0.7076 -0.0883 0.7011
vn 0.9221 0.0255 0.3860
vn 0.9288 -0.1971 0.3138
vn 0.5155 -0.0625 0.8546
vn 0.1558 0.1154 0.9810
vn 0.9350 -0.2137 -0.2829
vn 0.7838 -0.4995 -0.3691
vn 0.0457 -0.1347 -0.9898
vn 0.1558 0.1154 0.9810
vn 0.7535 -0.3296 0.5688
vn 0.9288 -0.1971 0.3138
vn 0.3414 0.6277 -0.6996
vn 0.9178 0.1722 0.3578
vn 0.8233 0.5670 -0.0253
vn -0.0639 0.2726 -0.9600
vn -0.1214 0.2405 -0.9630
vn 0.2778 0.3376 -0.8994
vn 0.7076 -0.0883 0.7011
vn 0.9577 0.1597 0.2396
vn 0.9221 0.0255 0.3860
vn 0.7535 -0.3296 0.5688
vn 0.7821 -0.5955 -0.1837
vn 0.9288 -0.1971 0.3138
vn 0.3492 0.0825 -0.9334
vn 0.4385 0.0783 -0.8953
vn 0.6251 -0.0383 -0.7796
vn -0.0639 0.2726 -0.9600
vn 0.1926 0.0748 -0.9784
vn 0.3492 0.0825 -0.9334
vn -0.1214 0.2405 -0.9630
vn 0.3414 0.6277 -0.6996
vn 0.2778 0.3376 -0.8994
vn 0.9350 -0.2137 -0.2829
vn 0.0457 -0.1347 -0.9898
vn 0.2057 0.0016 -0.9786
vn 0.6251 -0.0383 -0.7796
vn 0.9002 0.0126 -0.4354
vn 0.3492 0.0825 -0.9334
vn 0.9350 -0.2137 -0.2829
vn 0.2057 0.0016 -0.9786
vn 0.4385 0.0783 -0.8953
vn -0.0537 -0.4085 -0.9112
vn -0.8082 -0.4833 0.3365
vn 0.7484 -0.2105 0.6289
vn 0.9178 0.1722 0.3578
vn 0.3414 0.6277 -0.6996
vn 0.5495 -0.5150 0.6579
vn 0.5495 -0.5150 0.6579
vn 0.3414 0.6277 -0.6996
vn 0.9933 -0.1056 -0.0466
vn 0.3492 0.0825 -0.9334
vn 0.9002 0.0126 -0.4354
vn 0.6831 0.2517 -0.6856
vn 0.6782 -0.4883 0.5492
vn 0.7484 -0.2105 0.6289
vn -0.8082 -0.4833 0.3365
vn 0.7535 -0.3296 0.5688
vn 0.7563 -0.4827 0.4416
vn 0.7821 -0.5955 -0.1837
vn -0.1782 -0.1550 0.9717
vn 0.6782 -0.4883 0.5492
vn -0.8082 -0.4833 0.3365
vn -0.0639 0.2726 -0.9600
vn 0.3492 0.0825 -0.9334
vn 0.6831 0.2517 -0.6856
vn -0.0639 -0.1739 0.9827
vn 0.5155 -0.0625 0.8546
vn 0.9577 0.1597 0.2396
vn 0.9577 0.1597 0.2396
vn 0.7076 -0.0883 0.7011
vn -0.0639 -0.1739 0.9827
vn 0.7821 -0.5955 -0.1837
vn -0.4242 -0.8127 -0.3994
vn -0.0537 -0.4085 -0.9112
vn -0.8082 -0.4833 0.3365
vn -0.7994 0.1317 0.5861
vn -0.1782 -0.1550 0.9717
vn 0.8635 -0.2164 0.4555
vn 0.5495 -0.5150 0.6579
vn 0.9933 -0.1056 -0.0466
vn 0.6251 -0.0383 -0.7796
vn 0.4385 0.0783 -0.8953
vn 0.7163 -0.6646 -0.2128
vn 0.5495 -0.5150 0.6579
vn 0.4623 -0.3674 0.8070
vn 0.9178 0.1722 0.3578
vn 0.3414 0.6277 -0.6996
vn 0.2984 0.3254 -0.8973
vn 0.9933 -0.1056 -0.0466
vn 0.7535 -0.3296 0.5688
vn 0.1558 0.1154 0.9810
vn 0.4135 0.0837 0.9066
vn -0.1214 0.2405 -0.9630
vn 0.0111 0.6289 -0.7774
vn 0.3414 0.6277 -0.6996
vn -0.0639 0.2726 -0.9600
vn 0.6831 0.2517 -0.6856
vn -0.1188 0.5446 -0.8302
vn 0.7821 -0.5955 -0.1837
vn -0.2302 -0.7305 0.6430
vn -0.4242 -0.8127 -0.3994
vn -0.6206 -0.0994 0.7778
vn -0.7994 0.1317 0.5861
vn -0.8082 -0.4833 0.3365
vn 0.2057 0.0016 -0.9786
vn -0.6721 -0.6643 -0.3271
vn 0.7163 -0.6646 -0.2128
vn 0.9002 0.0126 -0.4354
vn 0.7279 0.3771 -0.5726
vn 0.6831 0.2517 -0.6856
vn 0.9178 0.1722 0.3578
vn 0.6241 -0.3609 0.6931
vn 0.7076 -0.0883 0.7011
vn 0.7821 -0.5955 -0.1837
vn 0.7563 -0.4827 0.4416
vn -0.2302 -0.7305 0.6430
vn 0.2984 0.3254 -0.8973
vn 0.5612 0.7049 -0.4338
vn 0.9933 -0.1056 -0.0466
vn -0.8116 0.5301 -0.2455
vn -0.9845 -0.0658 -0.1627
vn -0.8082 -0.4833 0.3365
vn -0.8116 0.5301 -0.2455
vn -0.8082 -0.4833 0.3365
vn -0.0537 -0.4085 -0.9112
vn 0.3414 0.6277 -0.6996
vn 0.0111 0.6289 -0.7774
vn 0.2984 0.3254 -0.8973
vn 0.2057 0.0016 -0.9786
vn 0.7163 -0.6646 -0.2128
vn 0.4385 0.0783 -0.8953
vn -0.7422 0.1642 0.6498
vn 0.1558 0.1154 0.9810
vn 0.5155 -0.0625 0.8546
vn 0.0111 0.6289 -0.7774
vn -0.1214 0.2405 -0.9630
vn 0.3379 0.6100 -0.7167
vn 0.9002 0.0126 -0.4354
vn 0.6251 -0.0383 -0.7796
vn 0.8356 -0.2184 -0.5041
vn 0.0457 -0.1347 -0.9898
vn -0.6721 -0.6643 -0.3271
vn 0.2057 0.0016 -0.9786
vn -0.0639 0.2726 -0.9600
vn -0.1188 0.5446 -0.8302
vn -0.1214 0.2405 -0.9630
vn -0.5444 -0.5758 0.6100
vn 0.5155 -0.0625 0.8546
vn -0.0639 -0.1739 0.9827
vn 0.8356 -0.2184 -0.5041
vn 0.6251 -0.0383 -0.7796
vn 0.7163 -0.6646 -0.2128
vn -0.7365 -0.5148 0.4389
vn -0.7422 0.1642 0.6498
vn 0.5155 -0.0625 0.8546
vn -0.7994 0.1317 0.5861
vn -0.6206 -0.0994 0.7778
vn -0.1782 -0.1550 0.9717
vn 0.7279 0.3771 -0.5726
vn 0.2765 0.4370 -0.8559
vn 0.6831 0.2517 -0.6856
vn 0.0386 0.0519 -0.9979
vn 0.2765 0.4370 -0.8559
vn 0.9002 0.0126 -0.4354
vn -0.2512 0.2215 -0.9423
vn 0.2984 0.3254 -0.8973
vn 0.0111 0.6289 -0.7774
vn -0.2512 0.2215 -0.9423
vn 0.0111 0.6289 -0.7774
vn 0.3379 0.6100 -0.7167
vn 0.0457 -0.1347 -0.9898
vn -0.7724 0.2777 -0.5712
vn -0.6721 -0.6643 -0.3271
vn -0.7370 -0.6149 0.2805
vn -0.8082 -0.4833 0.3365
vn -0.9845 -0.0658 -0.1627
vn -0.0639 -0.1739 0.9827
vn 0.7076 -0.0883 0.7011
vn -0.2011 -0.4796 0.8542
vn 0.9178 0.1722 0.3578
vn 0.4623 -0.3674 0.8070
vn 0.6241 -0.3609 0.6931
vn 0.4135 0.0837 0.9066
vn 0.7563 -0.4827 0.4416
vn 0.7535 -0.3296 0.5688
vn 0.5612 0.7049 -0.4338
vn 0.2984 0.3254 -0.8973
vn -0.3392 -0.0178 -0.9406
vn 0.6831 0.2517 -0.6856
vn 0.2765 0.4370 -0.8559
vn -0.1188 0.5446 -0.8302
vn 0.7279 0.3771 -0.5726
vn 0.9002 0.0126 -0.4354
vn 0.2765 0.4370 -0.8559
vn 0.8674 -0.3767 0.3253
vn -0.7373 -0.2177 -0.6395
vn 0.7563 -0.4827 0.4416
vn 0.8674 -0.3767 0.3253
vn 0.7563 -0.4827 0.4416
vn 0.4135 0.0837 0.9066
vn -0.7370 -0.6149 0.2805
vn -0.9845 -0.0658 -0.1627
vn -0.8813 -0.4725 0.0011
vn 0.0386 0.0519 -0.9979
vn 0.9002 0.0126 -0.4354
vn 0.8356 -0.2184 -0.5041
vn -0.9330 0.2379 0.2701
vn -0.6721 -0.6643 -0.3271
vn -0.7724 0.2777 -0.5712
vn 0.5495 -0.5150 0.6579
vn 0.5073 -0.7632 0.4002
vn 0.4623 -0.3674 0.8070
vn -0.7365 -0.5148 0.4389
vn 0.5155 -0.0625 0.8546
vn -0.5444 -0.5758 0.6100
vn 0.3379 0.6100 -0.7167
vn -0.1214 0.2405 -0.9630
vn -0.1188 0.5446 -0.8302
vn -0.8082 -0.4833 0.3365
vn -0.5248 -0.5190 0.6747
vn -0.8230 -0.3778 0.4243
vn 0.8674 -0.3767 0.3253
vn 0.1904 -0.9449 0.2662
vn -0.7373 -0.2177 -0.6395
vn -0.8230 -0.3778 0.4243
vn -0.6206 -0.0994 0.7778
vn -0.8082 -0.4833 0.3365
vn -0.9615 -0.2103 0.1770
vn -0.9577 -0.0671 -0.2798
vn -0.7319 -0.6556 0.1858
vn 0.7563 -0.4827 0.4416
vn -0.7373 -0.2177 -0.6395
vn -0.2302 -0.7305 0.6430
vn -0.7422 0.1642 0.6498
vn -0.7365 -0.5148 0.4389
vn -0.9845 -0.0658 -0.1627
vn 0.7163 -0.6646 -0.2128
vn 0.5586 -0.6883 -0.4628
vn 0.8356 -0.2184 -0.5041
vn -0.7370 -0.6149 0.2805
vn -0.5248 -0.5190 0.6747
vn -0.8082 -0.4833 0.3365
vn -0.6206 -0.0994 0.7778
vn -0.9330 0.2379 0.2701
vn -0.1782 -0.1550 0.9717
vn -0.6721 -0.6643 -0.3271
vn -0.9577 -0.0671 -0.2798
vn -0.9615 -0.2103 0.1770
vn -0.9330 0.2379 0.2701
vn -0.9577 -0.0671 -0.2798
vn -0.6721 -0.6643 -0.3271
vn 0.6241 -0.3609 0.6931
vn -0.2011 -0.4796 0.8542
vn 0.7076 -0.0883 0.7011
vn 0.2984 0.3254 -0.8973
vn -0.2512 0.2215 -0.9423
vn -0.3392 -0.0178 -0.9406
vn -0.0537 -0.4085 -0.9112
vn -0.7373 -0.2177 -0.6395
vn -0.8116 0.5301 -0.2455
vn -0.7365 -0.5148 0.4389
vn -0.8813 -0.4725 0.0011
vn -0.9845 -0.0658 -0.1627
vn 0.5073 -0.7632 0.4002
vn 0.6241 -0.3609 0.6931
vn 0.4623 -0.3674 0.8070
vn -0.9845 -0.0658 -0.1627
vn -0.8116 0.5301 -0.2455
vn -0.7422 0.1642 0.6498
vn -0.8230 -0.3778 0.4243
vn -0.9577 -0.0671 -0.2798
vn -0.6206 -0.0994 0.7778
vn 0.1558 0.1154 0.9810
vn -0.7422 0.1642 0.6498
vn -0.8116 0.5301 -0.2455
vn -0.8183 -0.4114 0.4014
vn -0.5444 -0.5758 0.6100
vn -0.0639 -0.1739 0.9827
vn -0.3048 -0.2645 0.9150
vn -0.6721 -0.6643 -0.3271
vn -0.9615 -0.2103 0.1770
vn -0.9577 -0.0671 -0.2798
vn -0.9330 0.2379 0.2701
vn -0.6206 -0.0994 0.7778
vn 0.5586 -0.6883 -0.4628
vn 0.1820 0.4920 -0.8514
vn 0.8356 -0.2184 -0.5041
vn -0.3392 -0.0178 -0.9406
vn -0.2512 0.2215 -0.9423
vn -0.2457 0.0596 -0.9675
vn -0.7370 -0.6149 0.2805
vn -0.8098 -0.5608 0.1724
vn -0.5248 -0.5190 0.6747
vn -0.7319 -0.6556 0.1858
vn -0.9577 -0.0671 -0.2798
vn -0.8230 -0.3778 0.4243
vn -0.0537 -0.4085 -0.9112
vn -0.4242 -0.8127 -0.3994
vn -0.7373 -0.2177 -0.6395
vn 0.6782 -0.4883 0.5492
vn -0.6085 -0.7934 -0.0154
vn 0.7838 -0.4995 -0.3691
vn -0.9330 0.2379 0.2701
vn -0.8626 0.4314 0.2642
vn -0.1782 -0.1550 0.9717
vn -0.6721 -0.6643 -0.3271
vn -0.3048 -0.2645 0.9150
vn 0.2731 -0.3453 0.8979
vn -0.7370 -0.6149 0.2805
vn -0.8813 -0.4725 0.0011
vn -0.8098 -0.5608 0.1724
vn 0.7163 -0.6646 -0.2128
vn -0.6721 -0.6643 -0.3271
vn 0.2731 -0.3453 0.8979
vn -0.7571 0.3229 -0.5679
vn 0.0386 0.0519 -0.9979
vn 0.8356 -0.2184 -0.5041
vn -0.2302 -0.7305 0.6430
vn -0.7373 -0.2177 -0.6395
vn -0.4242 -0.8127 -0.3994
vn -0.9330 0.2379 0.2701
vn -0.7724 0.2777 -0.5712
vn -0.8626 0.4314 0.2642
vn -0.7373 -0.2177 -0.6395
vn -0.6208 0.5716 -0.5366
vn -0.8116 0.5301 -0.2455
vn -0.9615 -0.2103 0.1770
vn -0.6749 -0.5667 0.4727
vn -0.3048 -0.2645 0.9150
vn -0.7319 -0.6556 0.1858
vn -0.6749 -0.5667 0.4727
vn -0.9615 -0.2103 0.1770
vn -0.7319 -0.6556 0.1858
vn -0.5178 -0.7325 0.4419
vn -0.6749 -0.5667 0.4727
vn -0.1188 0.5446 -0.8302
vn -0.2512 0.2215 -0.9423
vn 0.3379 0.6100 -0.7167
vn -0.7365 -0.5148 0.4389
vn -0.8183 -0.4114 0.4014
vn -0.8813 -0.4725 0.0011
vn 0.2765 0.4370 -0.8559
vn -0.7571 0.3229 -0.5679
vn -0.2813 0.4444 -0.8505
vn -0.1188 0.5446 -0.8302
vn 0.2765 0.4370 -0.8559
vn -0.2813 0.4444 -0.8505
vn -0.8230 -0.3778 0.4243
vn -0.5248 -0.5190 0.6747
vn -0.8098 -0.5608 0.1724
vn -0.5444 -0.5758 0.6100
vn -0.8183 -0.4114 0.4014
vn -0.7365 -0.5148 0.4389
vn 0.1820 0.4920 -0.8514
vn -0.7571 0.3229 -0.5679
vn 0.8356 -0.2184 -0.5041
vn 0.5042 -0.5780 0.6416
vn 0.7163 -0.6646 -0.2128
vn 0.2731 -0.3453 0.8979
vn 0.5586 -0.6883 -0.4628
vn 0.7163 -0.6646 -0.2128
vn 0.5042 -0.5780 0.6416
vn -0.6607 0.6642 0.3498
vn 0.4135 0.0837 0.9066
vn 0.1558 0.1154 0.9810
vn -0.8098 -0.5608 0.1724
vn -0.7319 -0.6556 0.1858
vn -0.8230 -0.3778 0.4243
vn 0.0457 -0.1347 -0.9898
vn 0.7838 -0.4995 -0.3691
vn -0.6085 -0.7934 -0.0154
vn 0.8674 -0.3767 0.3253
vn 0.4135 0.0837 0.9066
vn 0.1904 -0.9449 0.2662
vn -0.7571 0.3229 -0.5679
vn 0.2765 0.4370 -0.8559
vn 0.0386 0.0519 -0.9979
vn -0.2813 0.4444 -0.8505
vn -0.7571 0.3229 -0.5679
vn -0.9921 -0.0588 0.1112
vn -0.6607 0.6642 0.3498
vn 0.1558 0.1154 0.9810
vn -0.8116 0.5301 -0.2455
vn 0.1904 -0.9449 0.2662
vn 0.4135 0.0837 0.9066
vn -0.0930 0.0545 0.9942
vn -0.8183 -0.4114 0.4014
vn -0.8060 -0.4355 0.4009
vn -0.8813 -0.4725 0.0011
vn -0.6085 -0.7934 -0.0154
vn 0.6782 -0.4883 0.5492
vn -0.1782 -0.1550 0.9717
vn 0.5586 -0.6883 -0.4628
vn -0.4351 -0.3435 -0.8323
vn 0.1820 0.4920 -0.8514
vn -0.8116 0.5301 -0.2455
vn -0.6208 0.5716 -0.5366
vn -0.6607 0.6642 0.3498
vn 0.6241 -0.3609 0.6931
vn 0.5073 -0.7632 0.4002
vn 0.7458 -0.4519 0.4894
vn -0.8098 -0.5608 0.1724
vn -0.8813 -0.4725 0.0011
vn -0.8060 -0.4355 0.4009
vn -0.0930 0.0545 0.9942
vn 0.4135 0.0837 0.9066
vn -0.6607 0.6642 0.3498
vn -0.3048 -0.2645 0.9150
vn -0.6749 -0.5667 0.4727
vn -0.8503 0.2414 0.4677
vn 0.5073 -0.7632 0.4002
vn 0.5883 -0.2924 0.7539
vn 0.7458 -0.4519 0.4894
vn 0.5883 -0.2924 0.7539
vn 0.9494 -0.1552 0.2729
vn 0.7817 -0.4711 0.4087
vn -0.0639 -0.1739 0.9827
vn -0.2011 -0.4796 0.8542
vn -0.9135 -0.0470 0.4041
vn -0.5178 -0.7325 0.4419
vn -0.9921 -0.0588 0.1112
vn -0.6749 -0.5667 0.4727
vn -0.7724 0.2777 -0.5712
vn 0.0457 -0.1347 -0.9898
vn -0.6085 -0.7934 -0.0154
vn 0.3161 -0.9486 -0.0148
vn -0.2011 -0.4796 0.8542
vn 0.6241 -0.3609 0.6931
vn -0.6749 -0.5667 0.4727
vn -0.9921 -0.0588 0.1112
vn -0.8503 0.2414 0.4677
vn 0.5883 -0.2924 0.7539
vn 0.8042 0.3711 0.4643
vn 0.9494 -0.1552 0.2729
vn -0.0639 -0.1739 0.9827
vn -0.9135 -0.0470 0.4041
vn -0.8183 -0.4114 0.4014
vn -0.3048 -0.2645 0.9150
vn -0.8503 0.2414 0.4677
vn 0.2731 -0.3453 0.8979
vn -0.9135 -0.0470 0.4041
vn -0.2011 -0.4796 0.8542
vn -0.6980 -0.5403 0.4700
vn 0.1820 0.4920 -0.8514
vn -0.7819 0.3020 -0.5453
vn -0.7571 0.3229 -0.5679
vn 0.7817 -0.4711 0.4087
vn 0.8265 -0.3953 0.4008
vn 0.7458 -0.4519 0.4894
vn 0.5883 -0.2924 0.7539
vn 0.7817 -0.4711 0.4087
vn 0.7458 -0.4519 0.4894
vn 0.1446 0.3724 -0.9167
vn -0.2512 0.2215 -0.9423
vn -0.3468 0.4020 -0.8474
vn -0.9653 -0.2036 0.1636
vn -0.9135 -0.0470 0.4041
vn -0.6980 -0.5403 0.4700
vn -0.7571 0.3229 -0.5679
vn -0.8503 0.2414 0.4677
vn -0.9921 -0.0588 0.1112
vn -0.2813 0.4444 -0.8505
vn -0.6944 -0.4965 -0.5209
vn -0.2672 -0.3584 -0.8945
vn 0.7817 -0.4711 0.4087
vn 0.9494 -0.1552 0.2729
vn 0.8265 -0.3953 0.4008
vn -0.9921 -0.0588 0.1112
vn -0.6944 -0.4965 -0.5209
vn -0.2813 0.4444 -0.8505
vn 0.7458 -0.4519 0.4894
vn 0.4064 -0.9126 0.0452
vn 0.3161 -0.9486 -0.0148
vn -0.9921 -0.0588 0.1112
vn -0.5178 -0.7325 0.4419
vn -0.6944 -0.4965 -0.5209
vn -0.6980 -0.5403 0.4700
vn -0.6009 -0.0691 0.7964
vn -0.9653 -0.2036 0.1636
vn -0.9653 -0.2036 0.1636
vn -0.6956 -0.3209 0.6428
vn -0.9135 -0.0470 0.4041
vn -0.4276 0.4744 -0.7695
vn -0.1188 0.5446 -0.8302
vn -0.2813 0.4444 -0.8505
vn -0.8626 0.4314 0.2642
vn -0.7724 0.2777 -0.5712
vn -0.6085 -0.7934 -0.0154
vn -0.8183 -0.4114 0.4014
vn -0.9135 -0.0470 0.4041
vn -0.8060 -0.4355 0.4009
vn -0.4071 0.7308 -0.5479
vn -0.3468 0.4020 -0.8474
vn -0.1188 0.5446 -0.8302
vn -0.1188 0.5446 -0.8302
vn -0.3468 0.4020 -0.8474
vn -0.2512 0.2215 -0.9423
vn -0.6607 0.6642 0.3498
vn -0.6208 0.5716 -0.5366
vn -0.0930 0.0545 0.9942
vn -0.5178 -0.7325 0.4419
vn -0.7319 -0.6556 0.1858
vn -0.6944 -0.4965 -0.5209
vn 0.1850 -0.7855 0.5905
vn 0.7458 -0.4519 0.4894
vn 0.8265 -0.3953 0.4008
vn -0.7819 0.3020 -0.5453
vn 0.1820 0.4920 -0.8514
vn -0.4351 -0.3435 -0.8323
vn -0.5788 -0.7912 0.1975
vn -0.8098 -0.5608 0.1724
vn -0.8060 -0.4355 0.4009
vn 0.3161 -0.9486 -0.0148
vn 0.6241 -0.3609 0.6931
vn 0.7458 -0.4519 0.4894
vn -0.7819 0.3020 -0.5453
vn -0.8503 0.2414 0.4677
vn -0.7571 0.3229 -0.5679
vn -0.8060 -0.4355 0.4009
vn -0.9135 -0.0470 0.4041
vn -0.6956 -0.3209 0.6428
vn -0.9653 -0.2036 0.1636
vn -0.6009 -0.0691 0.7964
vn -0.6956 -0.3209 0.6428
vn 0.2731 -0.3453 0.8979
vn -0.2501 0.0046 0.9682
vn 0.5042 -0.5780 0.6416
vn -0.4210 -0.7937 0.4391
vn -0.2011 -0.4796 0.8542
vn 0.3161 -0.9486 -0.0148
vn 0.6383 0.3065 0.7062
vn 0.8265 -0.3953 0.4008
vn 0.9494 -0.1552 0.2729
vn -0.1188 0.5446 -0.8302
vn -0.4276 0.4744 -0.7695
vn -0.1653 0.5640 -0.8090
vn -0.8503 0.2414 0.4677
vn -0.2501 0.0046 0.9682
vn 0.2731 -0.3453 0.8979
vn -0.1188 0.5446 -0.8302
vn -0.1653 0.5640 -0.8090
vn -0.4071 0.7308 -0.5479
vn -0.6085 -0.7934 -0.0154
vn -0.1782 -0.1550 0.9717
vn -0.8626 0.4314 0.2642
vn -0.0930 0.0545 0.9942
vn -0.9717 -0.2351 -0.0231
vn 0.1904 -0.9449 0.2662
vn -0.4351 -0.3435 -0.8323
vn 0.5586 -0.6883 -0.4628
vn -0.9248 0.3041 -0.2285
vn -0.8060 -0.4355 0.4009
vn 0.0832 -0.7909 0.6063
vn -0.5788 -0.7912 0.1975
vn -0.7319 -0.6556 0.1858
vn -0.8098 -0.5608 0.1724
vn -0.6944 -0.4965 -0.5209
vn -0.3468 0.4020 -0.8474
vn -0.4071 0.7308 -0.5479
vn -0.3187 0.8766 -0.3606
vn -0.2011 -0.4796 0.8542
vn -0.4210 -0.7937 0.4391
vn -0.6980 -0.5403 0.4700
vn -0.2813 0.4444 -0.8505
vn -0.2672 -0.3584 -0.8945
vn -0.4276 0.4744 -0.7695
vn -0.7819 0.3020 -0.5453
vn -0.9340 0.1373 0.3298
vn -0.8503 0.2414 0.4677
vn -0.5788 -0.7912 0.1975
vn -0.6944 -0.4965 -0.5209
vn -0.8098 -0.5608 0.1724
vn -0.2672 -0.3584 -0.8945
vn -0.6944 -0.4965 -0.5209
vn -0.4276 0.4744 -0.7695
vn -0.6009 -0.0691 0.7964
vn 0.0456 -0.4315 0.9010
vn -0.6956 -0.3209 0.6428
vn -0.6956 -0.3209 0.6428
vn 0.0832 -0.7909 0.6063
vn -0.8060 -0.4355 0.4009
vn 0.5586 -0.6883 -0.4628
vn -0.0244 0.4140 -0.9099
vn -0.9248 0.3041 -0.2285
vn -0.9248 0.3041 -0.2285
vn -0.7819 0.3020 -0.5453
vn -0.4351 -0.3435 -0.8323
vn -0.7373 -0.2177 -0.6395
vn -0.9717 -0.2351 -0.0231
vn -0.6208 0.5716 -0.5366
vn -0.5931 -0.7869 0.1706
vn -0.6980 -0.5403 0.4700
vn -0.4210 -0.7937 0.4391
vn -0.4276 0.4744 -0.7695
vn 0.5835 -0.3882 -0.7133
vn -0.1653 0.5640 -0.8090
vn -0.3468 0.4020 -0.8474
vn -0.3187 0.8766 -0.3606
vn -0.9564 0.2450 -0.1593
vn -0.6980 -0.5403 0.4700
vn -0.9564 0.2450 -0.1593
vn -0.6009 -0.0691 0.7964
vn -0.8503 0.2414 0.4677
vn -0.9340 0.1373 0.3298
vn -0.2501 0.0046 0.9682
vn -0.7819 0.3020 -0.5453
vn -0.9248 0.3041 -0.2285
vn -0.9340 0.1373 0.3298
vn 0.8265 -0.3953 0.4008
vn 0.6383 0.3065 0.7062
vn 0.1815 -0.5959 0.7823
vn -0.2501 0.0046 0.9682
vn -0.9340 0.1373 0.3298
vn -0.9248 0.3041 -0.2285
vn -0.1653 0.5640 -0.8090
vn -0.1434 -0.2385 -0.9605
vn -0.4071 0.7308 -0.5479
vn -0.1653 0.5640 -0.8090
vn 0.5835 -0.3882 -0.7133
vn -0.1434 -0.2385 -0.9605
vn -0.5931 -0.7869 0.1706
vn -0.9564 0.2450 -0.1593
vn -0.6980 -0.5403 0.4700
vn -0.3468 0.4020 -0.8474
vn -0.9564 0.2450 -0.1593
vn -0.7574 -0.4020 -0.5145
vn 0.4372 -0.7998 -0.4114
vn -0.4276 0.4744 -0.7695
vn -0.6944 -0.4965 -0.5209
vn 0.5586 -0.6883 -0.4628
vn -0.7521 -0.6557 0.0661
vn -0.0244 0.4140 -0.9099
vn 0.1815 -0.5959 0.7823
vn 0.1850 -0.7855 0.5905
vn 0.8265 -0.3953 0.4008
vn 0.5042 -0.5780 0.6416
vn -0.2501 0.0046 0.9682
vn -0.7521 -0.6557 0.0661
vn -0.5788 -0.7912 0.1975
vn 0.4372 -0.7998 -0.4114
vn -0.6944 -0.4965 -0.5209
vn -0.7373 -0.2177 -0.6395
vn 0.1904 -0.9449 0.2662
vn -0.9717 -0.2351 -0.0231
vn 0.4064 -0.9126 0.0452
vn 0.7458 -0.4519 0.4894
vn 0.1850 -0.7855 0.5905
vn -0.9564 0.2450 -0.1593
vn -0.3187 0.8766 -0.3606
vn -0.4071 0.7308 -0.5479
vn 0.4372 -0.7998 -0.4114
vn 0.5835 -0.3882 -0.7133
vn -0.4276 0.4744 -0.7695
vn -0.4210 -0.7937 0.4391
vn 0.3161 -0.9486 -0.0148
vn -0.5880 -0.7927 0.1608
vn -0.2881 0.1752 -0.9414
vn -0.3468 0.4020 -0.8474
vn -0.6345 -0.1388 -0.7604
vn -0.6956 -0.3209 0.6428
vn 0.0456 -0.4315 0.9010
vn 0.0832 -0.7909 0.6063
vn -0.9717 -0.2351 -0.0231
vn -0.0930 0.0545 0.9942
vn -0.6208 0.5716 -0.5366
vn 0.0832 -0.7909 0.6063
vn 0.4372 -0.7998 -0.4114
vn -0.5788 -0.7912 0.1975
vn 0.0456 -0.4315 0.9010
vn -0.1465 -0.5051 0.8506
vn 0.0832 -0.7909 0.6063
vn -0.0244 0.4140 -0.9099
vn -0.7521 -0.6557 0.0661
vn -0.9248 0.3041 -0.2285
vn -0.7574 -0.4020 -0.5145
vn -0.9564 0.2450 -0.1593
vn -0.5931 -0.7869 0.1706
vn -0.4071 0.7308 -0.5479
vn -0.7715 0.6305 0.0858
vn -0.9564 0.2450 -0.1593
vn -0.1434 -0.2385 -0.9605
vn -0.4344 0.7480 -0.5018
vn -0.4071 0.7308 -0.5479
vn 0.4064 -0.9126 0.0452
vn -0.2371 -0.8588 -0.4541
vn 0.3161 -0.9486 -0.0148
vn -0.1434 -0.2385 -0.9605
vn 0.5835 -0.3882 -0.7133
vn -0.3385 0.0380 -0.9402
vn -0.7521 -0.6557 0.0661
vn 0.5586 -0.6883 -0.4628
vn 0.5042 -0.5780 0.6416
vn -0.5776 0.1912 -0.7936
vn -0.3468 0.4020 -0.8474
vn -0.7574 -0.4020 -0.5145
vn -0.2501 0.0046 0.9682
vn -0.9248 0.3041 -0.2285
vn -0.7521 -0.6557 0.0661
vn -0.1897 -0.9606 -0.2032
vn -0.5931 -0.7869 0.1706
vn -0.4210 -0.7937 0.4391
vn -0.6345 -0.1388 -0.7604
vn -0.3468 0.4020 -0.8474
vn -0.5776 0.1912 -0.7936
vn -0.6009 -0.0691 0.7964
vn -0.9564 0.2450 -0.1593
vn -0.7715 0.6305 0.0858
vn 0.5835 -0.3882 -0.7133
vn 0.4372 -0.7998 -0.4114
vn 0.7333 -0.5986 -0.3225
vn 0.0456 -0.4315 0.9010
vn -0.6009 -0.0691 0.7964
vn -0.6672 0.2722 0.6934
vn 0.4372 -0.7998 -0.4114
vn 0.0832 -0.7909 0.6063
vn 0.7333 -0.5986 -0.3225
vn 0.4064 -0.9126 0.0452
vn 0.1850 -0.7855 0.5905
vn -0.2371 -0.8588 -0.4541
vn -0.4210 -0.7937 0.4391
vn -0.5300 -0.8478 0.0205
vn -0.1897 -0.9606 -0.2032
vn -0.1465 -0.5051 0.8506
vn 0.0456 -0.4315 0.9010
vn -0.6672 0.2722 0.6934
vn -0.1434 -0.2385 -0.9605
vn -0.3385 0.0380 -0.9402
vn -0.4344 0.7480 -0.5018
vn -0.7715 0.6305 0.0858
vn -0.4071 0.7308 -0.5479
vn -0.4344 0.7480 -0.5018
vn 0.3161 -0.9486 -0.0148
vn -0.2371 -0.8588 -0.4541
vn -0.5880 -0.7927 0.1608
vn -0.7715 0.6305 0.0858
vn -0.6672 0.2722 0.6934
vn -0.6009 -0.0691 0.7964
vn 0.0832 -0.7909 0.6063
vn 0.7513 -0.5119 0.4165
vn 0.7333 -0.5986 -0.3225
vn 0.0832 -0.7909 0.6063
vn -0.1465 -0.5051 0.8506
vn -0.0419 -0.4474 0.8934
vn -0.5931 -0.7869 0.1706
vn -0.5300 -0.8478 0.0205
vn -0.7574 -0.4020 -0.5145
vn 0.5835 -0.3882 -0.7133
vn 0.7333 -0.5986 -0.3225
vn 0.4242 -0.2050 -0.8821
vn 0.5835 -0.3882 -0.7133
vn -0.1869 0.3961 -0.8990
vn -0.3385 0.0380 -0.9402
vn -0.3385 0.0380 -0.9402
vn -0.7715 0.6305 0.0858
vn -0.4344 0.7480 -0.5018
vn -0.5931 -0.7869 0.1706
vn -0.1897 -0.9606 -0.2032
vn -0.5300 -0.8478 0.0205
vn 0.4242 -0.2050 -0.8821
vn 0.7333 -0.5986 -0.3225
vn 0.5682 -0.3020 -0.7655
vn -0.6672 0.2722 0.6934
vn -0.0419 -0.4474 0.8934
vn -0.1465 -0.5051 0.8506
vn -0.0419 -0.4474 0.8934
vn 0.7513 -0.5119 0.4165
vn 0.0832 -0.7909 0.6063
vn -0.6672 0.2722 0.6934
vn -0.7715 0.6305 0.0858
vn -0.6542 0.0639 0.7536
vn -0.1869 0.3961 -0.8990
vn 0.5835 -0.3882 -0.7133
vn 0.4242 -0.2050 -0.8821
vn 0.5682 -0.3020 -0.7655
vn 0.7333 -0.5986 -0.3225
vn 0.7513 -0.5119 0.4165
vn -0.3752 -0.2223 0.8999
vn 0.7513 -0.5119 0.4165
vn -0.0419 -0.4474 0.8934
vn -0.4888 -0.7843 0.3821
vn -0.2371 -0.8588 -0.4541
vn 0.1850 -0.7855 0.5905
vn -0.0419 -0.4474 0.8934
vn -0.6672 0.2722 0.6934
vn -0.6542 0.0639 0.7536
vn -0.3385 0.0380 -0.9402
vn -0.7941 0.6015 -0.0874
vn -0.7715 0.6305 0.0858
vn 0.7513 -0.5119 0.4165
vn 0.7960 -0.5877 -0.1451
vn 0.5682 -0.3020 -0.7655
vn 0.1815 -0.5959 0.7823
vn -0.5936 -0.4868 0.6408
vn -0.4888 -0.7843 0.3821
vn -0.7715 0.6305 0.0858
vn -0.7941 0.6015 -0.0874
vn -0.6542 0.0639 0.7536
vn 0.1850 -0.7855 0.5905
vn 0.1815 -0.5959 0.7823
vn -0.4888 -0.7843 0.3821
vn -0.7574 -0.4020 -0.5145
vn -0.7399 -0.2619 -0.6196
vn -0.5776 0.1912 -0.7936
vn -0.5300 -0.8478 0.0205
vn -0.4210 -0.7937 0.4391
vn -0.5740 -0.6492 0.4990
vn 0.5682 -0.3020 -0.7655
vn 0.7960 -0.5877 -0.1451
vn 0.9235 -0.1515 -0.3523
vn 0.7513 -0.5119 0.4165
vn 0.4811 -0.4494 0.7527
vn 0.7960 -0.5877 -0.1451
vn 0.7513 -0.5119 0.4165
vn -0.3752 -0.2223 0.8999
vn 0.4811 -0.4494 0.7527
vn -0.0419 -0.4474 0.8934
vn -0.6542 0.0639 0.7536
vn -0.3752 -0.2223 0.8999
vn 0.5682 -0.3020 -0.7655
vn -0.3107 -0.0916 -0.9461
vn 0.4242 -0.2050 -0.8821
vn -0.7574 -0.4020 -0.5145
vn -0.5300 -0.8478 0.0205
vn -0.7399 -0.2619 -0.6196
vn -0.5880 -0.7927 0.1608
vn -0.5740 -0.6492 0.4990
vn -0.4210 -0.7937 0.4391
vn -0.9634 0.2455 -0.1080
vn -0.7941 0.6015 -0.0874
vn -0.3385 0.0380 -0.9402
vn -0.9634 0.2455 -0.1080
vn -0.6542 0.0639 0.7536
vn -0.7941 0.6015 -0.0874
vn -0.5880 -0.7927 0.1608
vn -0.2371 -0.8588 -0.4541
vn -0.4888 -0.7843 0.3821
vn -0.9634 0.2455 -0.1080
vn -0.3385 0.0380 -0.9402
vn -0.1869 0.3961 -0.8990
vn 0.4811 -0.4494 0.7527
vn 0.9235 -0.1515 -0.3523
vn 0.7960 -0.5877 -0.1451
vn -0.1869 0.3961 -0.8990
vn 0.4242 -0.2050 -0.8821
vn -0.3107 -0.0916 -0.9461
vn 0.4811 -0.4494 0.7527
vn -0.3752 -0.2223 0.8999
vn -0.5074 -0.2965 0.8091
vn 0.1225 -0.9591 -0.2551
vn 0.9235 -0.1515 -0.3523
vn 0.4811 -0.4494 0.7527
vn 0.9235 -0.1515 -0.3523
vn -0.3107 -0.0916 -0.9461
vn 0.5682 -0.3020 -0.7655
vn 0.4811 -0.4494 0.7527
vn -0.5074 -0.2965 0.8091
vn 0.1225 -0.9591 -0.2551
vn -0.9634 0.2455 -0.1080
vn -0.3752 -0.2223 0.8999
vn -0.6542 0.0639 0.7536
vn -0.7399 -0.2619 -0.6196
vn -0.5300 -0.8478 0.0205
vn -0.4338 -0.7501 -0.4992
vn -0.3107 -0.0916 -0.9461
vn 0.9235 -0.1515 -0.3523
vn 0.1225 -0.9591 -0.2551
vn -0.4888 -0.7843 0.3821
vn -0.5936 -0.4868 0.6408
vn -0.5331 -0.8219 0.2009
vn -0.5331 -0.8219 0.2009
vn -0.5880 -0.7927 0.1608
vn -0.4888 -0.7843 0.3821
vn -0.1869 0.3961 -0.8990
vn -0.3107 -0.0916 -0.9461
vn -0.9634 0.2455 -0.1080
vn 0.1225 -0.9591 -0.2551
vn -0.5074 -0.2965 0.8091
vn -0.9064 -0.0896 -0.4128
vn -0.5880 -0.7927 0.1608
vn -0.5331 -0.8219 0.2009
vn -0.7272 -0.4041 0.5548
vn -0.9064 -0.0896 -0.4128
vn -0.5074 -0.2965 0.8091
vn -0.3752 -0.2223 0.8999
vn -0.9064 -0.0896 -0.4128
vn -0.3752 -0.2223 0.8999
vn -0.9634 0.2455 -0.1080
vn -0.9634 0.2455 -0.1080
vn 0.1225 -0.9591 -0.2551
vn -0.9064 -0.0896 -0.4128
vn -0.9634 0.2455 -0.1080
vn -0.3107 -0.0916 -0.9461
vn 0.1225 -0.9591 -0.2551
vn -0.5331 -0.8219 0.2009
vn -0.5936 -0.4868 0.6408
vn -0.3144 -0.9486 -0.0349
vn -0.5776 0.1912 -0.7936
vn -0.7399 -0.2619 -0.6196
vn -0.5086 0.2390 -0.8272
vn -0.5331 -0.8219 0.2009
vn -0.3144 -0.9486 -0.0349
vn -0.7272 -0.4041 0.5548
vn -0.6387 -0.7684 -0.0402
vn -0.4338 -0.7501 -0.4992
vn -0.5300 -0.8478 0.0205
vn -0.7272 -0.4041 0.5548
vn -0.8424 0.2979 0.4489
vn -0.5880 -0.7927 0.1608
vn -0.8424 0.2979 0.4489
vn -0.5740 -0.6492 0.4990
vn -0.5880 -0.7927 0.1608
vn -0.5086 0.2390 -0.8272
vn -0.7399 -0.2619 -0.6196
vn -0.4338 -0.7501 -0.4992
vn -0.5740 -0.6492 0.4990
vn -0.8424 0.2979 0.4489
vn -0.5300 -0.8478 0.0205
vn -0.6387 -0.7684 -0.0402
vn -0.5086 0.2390 -0.8272
vn -0.4338 -0.7501 -0.4992
vn -0.3144 -0.9486 -0.0349
vn -0.9552 0.2924 -0.0455
vn -0.7272 -0.4041 0.5548
vn -0.6387 -0.7684 -0.0402
vn -0.5300 -0.8478 0.0205
vn -0.8424 0.2979 0.4489
vn -0.5048 -0.4060 -0.7618
vn -0.5086 0.2390 -0.8272
vn -0.6387 -0.7684 -0.0402
vn -0.6391 0.4278 -0.6392
vn -0.5086 0.2390 -0.8272
vn -0.5048 -0.4060 -0.7618
vn -0.6387 -0.7684 -0.0402
vn -0.8424 0.2979 0.4489
vn -0.5048 -0.4060 -0.7618
vn -0.6953 0.7148 0.0752
vn -0.5086 0.2390 -0.8272
vn -0.6391 0.4278 -0.6392
vn -0.8424 0.2979 0.4489
vn -0.6391 0.4278 -0.6392
vn -0.5048 -0.4060 -0.7618
vn 0.0000 1.0000 0.0000
vn 0.0000 1.0000 0.0000
vn 0.0000 1.0000 0.0000
vn 0.0000 1.0000 0.0000
vn 0.0000 1.0000 0.0000
vn 0.0000 1.0000 0.0000
vn 0.0000 1.0000 0.0000
vn 0.0000 1.0000 0.0000
vn 0.0000 1.0000 0.0000
vn 0.0000 1.0000 0.0000
vn 0.0000 1.0000 0.0000
vn 0.0000 1.0000 0.0000
vn 0.0000 1.0000 0.0000
vn 0.0000 1.0000 0.0000
vn 0.0000 1.0000 0.0000
vn 0.0000 1.0000 0.0000
vn 0.0000 1.0000 0.0000
vn 0.0000 1.0000 0.0000
vn 0.0000 1.0000 0.0000
vn 0.0000 1.0000 0.0000
vn 0.0000 1.0000 0.0000
vn 0.0000 1.0000 0.0000
vn 0.0000 1.0000 0.0000
vn 0.0000 1.0000 0.0000
vn 0.0000 1.0000 0.0000
vn 0.0000 1.0000 0.0000
vn 0.0000 1.0000 0.0000
f 1/1/1 2/2/2 3/3/3
f 4/4/4 5/5/5 6/6/6
f 7/7/7 8/8/8 9/9/9
f 10/10/10 11/11/11 12/12/12
f 13/13/13 14/14/14 15/15/15
f 16/16/16 17/17/17 18/18/18
f 19/19/19 20/20/20 21/21/21
f 22/22/22 23/23/23 24/24/24
f 25/25/25 26/26/26 27/27/27
f 28/28/28 29/29/29 30/30/30
f 31/31/31 32/32/32 33/33/33
f 34/34/34 35/35/35 36/36/36
f 37/37/37 38/38/38 39/39/39
f 40/40/40 41/41/41 42/42/42
f 43/43/43 44/44/44 45/45/45
f 46/46/46 47/47/47 48/48/48
f 49/49/49 50/50/50 51/51/51
f 52/52/52 53/53/53 54/54/54
f 55/55/55 56/56/56 57/57/57
f 58/58/58 59/59/59 60/60/60
f 61/61/61 62/62/62 63/63/63
f 64/64/64 65/65/65 66/66/66
f 67/67/67 68/68/68 69/69/69
f 70/70/70 71/71/71 72/72/72
f 73/73/73 74/74/74 75/75/75
f 76/76/76 77/77/77 78/78/78
f 79/79/79 80/80/80 81/81/81
f 82/82/82 83/83/83 84/84/84
f 85/85/85 86/86/86 87/87/87
f 88/88/88 89/89/89 90/90/90
f 91/91/91 92/92/92 93/93/93
f 94/94/94 95/95/95 96/96/96
f 97/97/97 98/98/98 99/99/99
f 100/100/100 101/101/101 102/102/102
f 103/103/103 104/104/104 105/105/105
f 106/106/106 107/107/107 108/108/108
f 109/109/109 110/110/110 111/111/111
f 112/112/112 113/113/113 114/114/114
f 115/115/115 116/116/116 117/117/117
f 118/118/118 119/119/119 120/120/120
f 121/121/121 122/122/122 123/123/123
f 124/124/124 125/125/125 126/126/126
f 127/127/127 128/128/128 129/129/129
f 130/130/130 131/131/131 132/132/132
f 133/133/133 134/134/134 135/135/135
f 136/136/136 137/137/137 138/138/138
f 139/139/139 140/140/140 141/141/141
f 142/142/142 143/143/143 144/144/144
f 145/145/145 146/146/146 147/147/147
f 148/148/148 149/149/149 150/150/150
f 151/151/151 152/152/152 153/153/153
f 154/154/154 155/155/155 156/156/156
f 157/157/157 158/158/158 159/159/159
f 160/160/160 161/161/161 162/162/162
f 163/163/163 164/164/164 165/165/165
f 166/166/166 167/167/167 168/168/168
f 169/169/169 170/170/170 171/171/171
f 172/172/172 173/173/173 174/174/174
f 175/175/175 176/176/176 177/177/177
f 178/178/178 179/179/179 180/180/180
f 181/181/181 182/182/182 183/183/183
f 184/184/184 185/185/185 186/186/186
f 187/187/187 188/188/188 189/189/189
f 190/190/190 191/191/191 192/192/192
f 193/193/193 194/194/194 195/195/195
f 196/196/196 197/197/197 198/198/198
f 199/199/199 200/200/200 201/201/201
f 202/202/202 203/203/203 204/204/204
f 205/205/205 206/206/206 207/207/207
f 208/208/208 209/209/209 210/210/210
f 211/211/211 212/212/212 213/213/213
f 214/214/214 215/215/215 216/216/216
f 217/217/217 218/218/218 219/219/219
f 220/220/220 221/221/221 222/222/222
f 223/223/223 224/224/224 225/225/225
f 226/226/226 227/227/227 228/228/228
f 229/229/229 230/230/230 231/231/231
f 232/232/232 233/233/233 234/234/234
f 235/235/235 236/236/236 237/237/237
f 238/238/238 239/239/239 240/240/240
f 241/241/241 242/242/242 243/243/243
f 244/244/244 245/245/245 246/246/246
f 247/247/247 248/248/248 249/249/249
f 250/250/250 251/251/251 252/252/252
f 253/253/253 254/254/254 255/255/255
f 256/256/256 257/257/257 258/258/258
f 259/259/259 260/260/260 261/261/261
f 262/262/262 263/263/263 264/264/264
f 265/265/265 266/266/266 267/267/267
f 268/268/268 269/269/269 270/270/270
f 271/271/271 272/272/272 273/273/273
f 274/274/274 275/275/275 276/276/276
f 277/277/277 278/278/278 279/279/279
f 280/280/280 281/281/281 282/282/282
f 283/283/283 284/284/284 285/285/285
f 286/286/286 287/287/287 288/288/288
f 289/289/289 290/290/290 291/291/291
f 292/292/292 293/293/293 294/294/294
f 295/295/295 296/296/296 297/297/297
f 298/298/298 299/299/299 300/300/300
f 301/301/301 302/302/302 303/303/303
f 304/304/304 305/305/305 306/306/306
f 307/307/307 308/308/308 309/309/309
f 310/310/310 311/311/311 312/312/312
f 313/313/313 314/314/314 315/315/315
f 316/316/316 317/317/317 318/318/318
f 319/319/319 320/320/320 321/321/321
f 322/322/322 323/323/323 324/324/324
f 325/325/325 326/326/326 327/327/327
f 328/328/328 329/329/329 330/330/330
f 331/331/331 332/332/332 333/333/333
f 334/334/334 335/335/335 336/336/336
f 337/337/337 338/338/338 339/339/339
f 340/340/340 341/341/341 342/342/342
f 343/343/343 344/344/344 345/345/345
f 346/346/346 347/347/347 348/348/348
f 349/349/349 350/350/350 351/351/351
f 352/352/352 353/353/353 354/354/354
f 355/355/355 356/356/356 357/357/357
f 358/358/358 359/359/359 360/360/360
f 361/361/361 362/362/362 363/363/363
f 364/364/364 365/365/365 366/366/366
f 367/367/367 368/368/368 369/369/369
f 370/370/370 371/371/371 372/372/372
f 373/373/373 374/374/374 375/375/375
f 376/376/376 377/377/377 378/378/378
f 379/379/379 380/380/380 381/381/381
f 382/382/382 383/383/383 384/384/384
f 385/385/385 386/386/386 387/387/387
f 388/388/388 389/389/389 390/390/390
f 391/391/391 392/392/392 393/393/393
f 394/394/394 395/395/395 396/396/396
f 397/397/397 398/398/398 399/399/399
f 400/400/400 401/401/401 402/402/402
f 403/403/403 404/404/404 405/405/405
f 406/406/406 407/407/407 408/408/408
f 409/409/409 410/410/410 411/411/411
f 412/412/412 413/413/413 414/414/414
f 415/415/415 416/416/416 417/417/417
f 418/418/418 419/419/419 420/420/420
f 421/421/421 422/422/422 423/423/423
f 424/424/424 425/425/425 426/426/426
f 427/427/427 428/428/428 429/429/429
f 430/430/430 431/431/431 432/432/432
f 433/433/433 434/434/434 435/435/435
f 436/436/436 437/437/437 438/438/438
f 439/439/439 440/440/440 441/441/441
f 442/442/442 443/443/443 444/444/444
f 445/445/445 446/446/446 447/447/447
f 448/448/448 449/449/449 450/450/450
f 451/451/451 452/452/452 453/453/453
f 454/454/454 455/455/455 456/456/456
f 457/457/457 458/458/458 459/459/459
f 460/460/460 461/461/461 462/462/462
f 463/463/463 464/464/464 465/465/465
f 466/466/466 467/467/467 468/468/468
f 469/469/469 470/470/470 471/471/471
f 472/472/472 473/473/473 474/474/474
f 475/475/475 476/476/476 477/477/477
f 478/478/478 479/479/479 480/480/480
f 481/481/481 482/482/482 483/483/483
f 484/484/484 485/485/485 486/486/486
f 487/487/487 488/488/488 489/489/489
f 490/490/490 491/491/491 492/492/492
f 493/493/493 494/494/494 495/495/495
f 496/496/496 497/497/497 498/498/498
f 499/499/499 500/500/500 501/501/501
f 502/502/502 503/503/503 504/504/504
f 505/505/505 506/506/506 507/507/507
f 508/508/508 509/509/509 510/510/510
f 511/511/511 512/512/512 513/513/513
f 514/514/514 515/515/515 516/516/516
f 517/517/517 518/518/518 519/519/519
f 520/520/520 521/521/521 522/522/522
f 523/523/523 524/524/524 525/525/525
f 526/526/526 527/527/527 528/528/528
f 529/529/529 530/530/530 531/531/531
f 532/532/532 533/533/533 534/534/534
f 535/535/535 536/536/536 537/537/537
f 538/538/538 539/539/539 540/540/540
f 541/541/541 542/542/542 543/543/543
f 544/544/544 545/545/545 546/546/546
f 547/547/547 548/548/548 549/549/549
f 550/550/550 551/551/551 552/552/552
f 553/553/553 554/554/554 555/555/555
f 556/556/556 557/557/557 558/558/558
f 559/559/559 560/560/560 561/561/561
f 562/562/562 563/563/563 564/564/564
f 565/565/565 566/566/566 567/567/567
f 568/568/568 569/569/569 570/570/570
f 571/571/571 572/572/572 573/573/573
f 574/574/574 575/575/575 576/576/576
f 577/577/577 578/578/578 579/579/579
f 580/580/580 581/581/581 582/582/582
f 583/583/583 584/584/584 585/585/585
f 586/586/586 587/587/587 588/588/588
f 589/589/589 590/590/590 591/591/591
f 592/592/592 593/593/593 594/594/594
f 595/595/595 596/596/596 597/597/597
f 598/598/598 599/599/599 600/600/600
f 601/601/601 602/602/602 603/603/603
f 604/604/604 605/605/605 606/606/606
f 607/607/607 608/608/608 609/609/609
f 610/610/610 611/611/611 612/612/612
f 613/613/613 614/614/614 615/615/615
f 616/616/616 617/617/617 618/618/618
f 619/619/619 620/620/620 621/621/621
f 622/622/622 623/623/623 624/624/624
f 625/625/625 626/626/626 627/627/627
f 628/628/628 629/629/629 630/630/630
f 631/631/631 632/632/632 633/633/633
f 634/634/634 635/635/635 636/636/636
f 637/637/637 638/638/638 639/639/639
f 640/640/640 641/641/641 642/642/642
f 643/643/643 644/644/644 645/645/645
f 646/646/646 647/647/647 648/648/648
f 649/649/649 650/650/650 651/651/651
f 652/652/652 653/653/653 654/654/654
f 655/655/655 656/656/656 657/657/657
f 658/658/658 659/659/659 660/660/660
f 661/661/661 662/662/662 663/663/663
f 664/664/664 665/665/665 666/666/666
f 667/667/667 668/668/668 669/669/669
f 670/670/670 671/671/671 672/672/672
f 673/673/673 674/674/674 675/675/675
f 676/676/676 677/677/677 678/678/678
f 679/679/679 680/680/680 681/681/681
f 682/682/682 683/683/683 684/684/684
f 685/685/685 686/686/686 687/687/687
f 688/688/688 689/689/689 690/690/690
f 691/691/691 692/692/692 693/693/693
f 694/694/694 695/695/695 696/696/696
f 697/697/697 698/698/698 699/699/699
f 700/700/700 701/701/701 702/702/702
f 703/703/703 704/704/704 705/705/705
f 706/706/706 707/707/707 708/708/708
f 709/709/709 710/710/710 711/711/711
f 712/712/712 713/713/713 714/714/714
f 715/715/715 716/716/716 717/717/717
f 718/718/718 719/719/719 720/720/720
f 721/721/721 722/722/722 723/723/723
f 724/724/724 725/725/725 726/726/726
f 727/727/727 728/728/728 729/729/729
f 730/730/730 731/731/731 732/732/732
f 733/733/733 734/734/734 735/735/735
f 736/736/736 737/737/737 738/738/738
f 739/739/739 740/740/740 741/741/741
f 742/742/742 743/743/743 744/744/744
f 745/745/745 746/746/746 747/747/747
f 748/748/748 749/749/749 750/750/750
f 751/751/751 752/752/752 753/753/753
f 754/754/754 755/755/755 756/756/756
f 757/757/757 758/758/758 759/759/759
f 760/760/760 761/761/761 762/762/762
f 763/763/763 764/764/764 765/765/765
f 766/766/766 767/767/767 768/768/768
f 769/769/769 770/770/770 771/771/771
f 772/772/772 773/773/773 774/774/774
f 775/775/775 776/776/776 777/777/777
f 778/778/778 779/779/779 780/780/780
f 781/781/781 782/782/782 783/783/783
f 784/784/784 785/785/785 786/786/786
f 787/787/787 788/788/788 789/789/789
f 790/790/790 791/791/791 792/792/792
f 793/793/793 794/794/794 795/795/795
f 796/796/796 797/797/797 798/798/798
f 799/799/799 800/800/800 801/801/801
f 802/802/802 803/803/803 804/804/804
f 805/805/805 806/806/806 807/807/807
f 808/808/808 809/809/809 810/810/810
f 811/811/811 812/812/812 813/813/813
f 814/814/814 815/815/815 816/816/816
f 817/817/817 818/818/818 819/819/819
f 820/820/820 821/821/821 822/822/822
f 823/823/823 824/824/824 825/825/825
f 826/826/826 827/827/827 828/828/828
f 829/829/829 830/830/830 831/831/831
f 832/832/832 833/833/833 834/834/834
f 835/835/835 836/836/836 837/837/837
f 838/838/838 839/839/839 840/840/840
f 841/841/841 842/842/842 843/843/843
f 844/844/844 845/845/845 846/846/846
f 847/847/847 848/848/848 849/849/849
f 850/850/850 851/851/851 852/852/852
f 853/853/853 854/854/854 855/855/855
f 856/856/856 857/857/857 858/858/858
f 859/859/859 860/860/860 861/861/861
f 862/862/862 863/863/863 864/864/864
f 865/865/865 866/866/866 867/867/867
f 868/868/868 869/869/869 870/870/870
f 871/871/871 872/872/872 873/873/873
f 874/874/874 875/875/875 876/876/876
f 877/877/877 878/878/878 879/879/879
f 880/880/880 881/881/881 882/882/882
f 883/883/883 884/884/884 885/885/885
f 886/886/886 887/887/887 888/888/888
f 889/889/889 890/890/890 891/891/891
f 892/892/892 893/893/893 894/894/894
f 895/895/895 896/896/896 897/897/897
f 898/898/898 899/899/899 900/900/900
f 901/901/901 902/902/902 903/903/903
f 904/904/904 905/905/905 906/906/906
f 907/907/907 908/908/908 909/909/909
f 910/910/910 911/911/911 912/912/912
f 913/913/913 914/914/914 915/915/915
f 916/916/916 917/917/917 918/918/918
f 919/919/919 920/920/920 921/921/921
f 922/922/922 923/923/923 924/924/924
f 925/925/925 926/926/926 927/927/927
f 928/928/928 929/929/929 930/930/930
f 931/931/931 932/932/932 933/933/933
f 934/934/934 935/935/935 936/936/936
f 937/937/937 938/938/938 939/939/939
f 940/940/940 941/941/941 942/942/942
f 943/943/943 944/944/944 945/945/945
f 946/946/946 947/947/947 948/948/948
f 949/949/949 950/950/950 951/951/951
f 952/952/952 953/953/953 954/954/954
f 955/955/955 956/956/956 957/957/957
f 958/958/958 959/959/959 960/960/960
f 961/961/961 962/962/962 963/963/963
f 964/964/964 965/965/965 966/966/966
f 967/967/967 968/968/968 969/969/969
f 970/970/970 971/971/971 972/972/972
f 973/973/973 974/974/974 975/975/975
f 976/976/976 977/977/977 978/978/978
f 979/979/979 980/980/980 981/981/981
f 982/982/982 983/983/983 984/984/984
f 985/985/985 986/986/986 987/987/987
f 988/988/988 989/989/989 990/990/990
f 991/991/991 992/992/992 993/993/993
f 994/994/994 995/995/995 996/996/996
f 997/997/997 998/998/998 999/999/999
f 1000/1000/1000 1001/1001/1001 1002/1002/1002
f 1003/1003/1003 1004/1004/1004 1005/1005/1005
f 1006/1006/1006 1007/1007/1007 1008/1008/1008
f 1009/1009/1009 1010/1010/1010 1011/1011/1011
f 1012/1012/1012 1013/1013/1013 1014/1014/1014
f 1015/1015/1015 1016/1016/1016 1017/1017/1017
f 1018/1018/1018 1019/1019/1019 1020/1020/1020
f 1021/1021/1021 1022/1022/1022 1023/1023/1023
f 1024/1024/1024 1025/1025/1025 1026/1026/1026
f 1027/1027/1027 1028/1028/1028 1029/1029/1029
f 1030/1030/1030 1031/1031/1031 1032/1032/1032
f 1033/1033/1033 1034/1034/1034 1035/1035/1035
f 1033/1033/1033 1035/1035/1035 1034/1034/1034
f 1033/1033/1033 1035/1035/1035 1036/1036/1036
f 1033/1033/1033 1036/1036/1036 1035/1035/1035
f 1033/1033/1033 1036/1036/1036 1037/1037/1037
f 1033/1033/1033 1037/1037/1037 1036/1036/1036
f 1033/1033/1033 1037/1037/1037 1038/1038/1038
f 1033/1033/1033 1038/1038/1038 1037/1037/1037
f 1033/1033/1033 1038/1038/1038 1039/1039/1039
f 1033/1033/1033 1039/1039/1039 1038/1038/1038
f 1033/1033/1033 1039/1039/1039 1040/1040/1040
f 1033/1033/1033 1040/1040/1040 1039/1039/1039
f 1033/1033/1033 1040/1040/1040 1041/1041/1041
f 1033/1033/1033 1041/1041/1041 1040/1040/1040
f 1033/1033/1033 1041/1041/1041 1042/1042/1042
f 1033/1033/1033 1042/1042/1042 1041/1041/1041
f 1033/1033/1033 1042/1042/1042 1043/1043/1043
f 1033/1033/1033 1043/1043/1043 1042/1042/1042
f 1033/1033/1033 1043/1043/1043 1044/1044/1044
f 1033/1033/1033 1044/1044/1044 1043/1043/1043
f 1033/1033/1033 1044/1044/1044 1045/1045/1045
f 1033/1033/1033 1045/1045/1045 1044/1044/1044
f 1033/1033/1033 1045/1045/1045 1046/1046/1046
f 1033/1033/1033 1046/1046/1046 1045/1045/1045
f 1033/1033/1033 1046/1046/1046 1047/1047/1047
f 1033/1033/1033 1047/1047/1047 1046/1046/1046
f 1033/1033/1033 1047/1047/1047 1048/1048/1048
f 1033/1033/1033 1048/1048/1048 1047/1047/1047
f 1033/1033/1033 1048/1048/1048 1049/1049/1049
f 1033/1033/1033 1049/1049/1049 1048/1048/1048
f 1033/1033/1033 1049/1049/1049 1050/1050/1050
f 1033/1033/1033 1050/1050/1050 1049/1049/1049
f 1033/1033/1033 1050/1050/1050 1051/1051/1051
f 1033/1033/1033 1051/1051/1051 1050/1050/1050
f 1033/1033/1033 1051/1051/1051 1052/1052/1052
f 1033/1033/1033 1052/1052/1052 1051/1051/1051
f 1033/1033/1033 1052/1052/1052 1053/1053/1053
f 1033/1033/1033 1053/1053/1053 1052/1052/1052
f 1033/1033/1033 1053/1053/1053 1054/1054/1054
f 1033/1033/1033 1054/1054/1054 1053/1053/1053
f 1033/1033/1033 1054/1054/1054 1055/1055/1055
f 1033/1033/1033 1055/1055/1055 1054/1054/1054
f 1033/1033/1033 1055/1055/1055 1056/1056/1056
f 1033/1033/1033 1056/1056/1056 1055/1055/1055
f 1033/1033/1033 1056/1056/1056 1057/1057/1057
f 1033/1033/1033 1057/1057/1057 1056/1056/1056
f 1033/1033/1033 1057/1057/1057 1058/1058/1058
f 1033/1033/1033 1058/1058/1058 1057/1057/1057
f 1033/1033/1033 1058/1058/1058 1059/1059/1059
f 1033/1033/1033 1059/1059/1059 1058/1058/1058
f 1033/1033/1033 1059/1059/1059 1034/1034/1034
f 1033/1033/1033 1034/1034/1034 1059/1059/1059
