o arm_left
v -0.57553 4.75026 -0.96576
v -0.59225 4.81873 -0.78247
v -0.52674 4.73205 -0.65928
v -0.55238 4.72421 -0.66038
v -0.64711 4.54810 -0.96220
v -0.57553 4.75026 -0.96576
v -0.60581 4.46326 -0.91416
v -0.51233 4.47038 -0.58728
v -0.83509 4.42268 -0.57590
v -0.59225 4.81873 -0.78247
v -0.57553 4.75026 -0.96576
v -0.63962 4.80869 -0.90188
v -0.57553 4.75026 -0.96576
v -0.62520 4.76427 -0.96922
v -0.63962 4.80869 -0.90188
v -0.55238 4.72421 -0.66038
v -0.60581 4.46326 -0.91416
v -0.64711 4.54810 -0.96220
v -0.66186 4.45677 -0.91606
v -0.60581 4.46326 -0.91416
v -0.83509 4.42268 -0.57590
v -0.57553 4.75026 -0.96576
v -0.64711 4.54810 -0.96220
v -0.62520 4.76427 -0.96922
v -0.59225 4.81873 -0.78247
v -0.63962 4.80869 -0.90188
v -0.76719 4.86127 -0.79575
v -0.62891 4.84645 -0.90599
v -0.63962 4.80869 -0.90188
v -0.62520 4.76427 -0.96922
v -0.62891 4.84645 -0.90599
v -0.62520 4.76427 -0.96922
v -0.64223 4.85631 -1.42144
v -0.63132 4.92635 -0.76483
v -0.59225 4.81873 -0.78247
v -0.76719 4.86127 -0.79575
v -0.75881 4.84806 -0.90623
v -0.76719 4.86127 -0.79575
v -0.63962 4.80869 -0.90188
v -0.60581 4.46326 -0.91416
v -0.66186 4.45677 -0.91606
v -0.64711 4.54810 -0.96220
v -0.64223 4.85631 -1.42144
v -0.62520 4.76427 -0.96922
v -0.64711 4.54810 -0.96220
v -0.66186 4.45677 -0.91606
v -0.64223 4.85631 -1.42144
v -0.64711 4.54810 -0.96220
v -0.75881 4.84806 -0.90623
v -0.63962 4.80869 -0.90188
v -0.62891 4.84645 -0.90599
v -0.64223 4.85631 -1.42144
v -0.66186 4.45677 -0.91606
v -0.69178 4.44780 -1.41657
v -0.62891 4.84645 -0.90599
v -0.64223 4.85631 -1.42144
v -0.82386 4.97877 -1.28245
v -0.69178 4.44780 -1.41657
v -0.66186 4.45677 -0.91606
v -1.06359 4.45061 -0.89794
v -0.63132 4.92635 -0.76483
v -0.76719 4.86127 -0.79575
v -0.82104 4.92436 -0.78745
v -0.63132 4.92635 -0.76483
v -0.82104 4.92436 -0.78745
v -0.96296 5.02900 -0.68222
v -0.79809 4.93798 -1.44485
v -0.82386 4.97877 -1.28245
v -0.64223 4.85631 -1.42144
v -0.79465 4.58998 -1.43576
v -0.79809 4.93798 -1.44485
v -0.64223 4.85631 -1.42144
v -0.79352 5.08073 -1.75441
v -0.79809 4.93798 -1.44485
v -0.79465 4.58998 -1.43576
v -0.76719 4.86127 -0.79575
v -0.75881 4.84806 -0.90623
v -0.82104 4.92436 -0.78745
v -0.79352 5.08073 -1.75441
v -0.82386 4.97877 -1.28245
v -0.79809 4.93798 -1.44485
v -1.06359 4.45061 -0.89794
v -0.66186 4.45677 -0.91606
v -1.05215 4.42117 -0.88346
v -0.92173 5.01788 -0.91756
v -0.82386 4.97877 -1.28245
v -0.99419 5.04272 -1.26441
v -0.62891 4.84645 -0.90599
v -0.92173 5.01788 -0.91756
v -0.75881 4.84806 -0.90623
v -0.82900 5.20477 -1.35861
v -0.82386 4.97877 -1.28245
v -0.79352 5.08073 -1.75441
v -0.78038 4.85217 -1.74322
v -0.86349 5.01086 -1.79087
v -0.79352 5.08073 -1.75441
v -0.82900 5.20477 -1.35861
v -0.99419 5.04272 -1.26441
v -0.82386 4.97877 -1.28245
v -0.82104 4.92436 -0.78745
v -0.75881 4.84806 -0.90623
v -0.95071 5.02047 -0.88190
v -0.95071 5.02047 -0.88190
v -0.75881 4.84806 -0.90623
v -0.97772 4.99197 -0.90409
v -0.66186 4.45677 -0.91606
v -0.83509 4.42268 -0.57590
v -0.97769 4.40730 -0.59098
v -0.92173 5.01788 -0.91756
v -0.97772 4.99197 -0.90409
v -0.75881 4.84806 -0.90623
v -0.78038 4.85217 -1.74322
v -0.89999 5.04054 -1.90930
v -0.86349 5.01086 -1.79087
v -0.82386 4.97877 -1.28245
v -0.92173 5.01788 -0.91756
v -0.62891 4.84645 -0.90599
v -0.83509 4.42268 -0.57590
v -0.93038 4.21676 -0.56159
v -0.97769 4.40730 -0.59098
v -0.93038 4.21676 -0.56159
v -0.83509 4.42268 -0.57590
v -0.88705 4.20093 -0.21857
v -0.99419 5.04272 -1.26441
v -0.82900 5.20477 -1.35861
v -1.04432 5.24623 -1.34045
v -0.97769 4.40730 -0.59098
v -0.97982 4.41930 -0.79310
v -0.66186 4.45677 -0.91606
v -0.82900 5.20477 -1.35861
v -0.79352 5.08073 -1.75441
v -1.04432 5.24623 -1.34045
v -0.66186 4.45677 -0.91606
v -0.97982 4.41930 -0.79310
v -1.05215 4.42117 -0.88346
v -0.96296 5.02900 -0.68222
v -0.82104 4.92436 -0.78745
v -0.95071 5.02047 -0.88190
v -0.86349 5.01086 -1.79087
v -1.09574 4.97938 -1.85168
v -0.79352 5.08073 -1.75441
v -0.86349 5.01086 -1.79087
v -0.89999 5.04054 -1.90930
v -1.09574 4.97938 -1.85168
v -1.09574 4.97938 -1.85168
v -0.89999 5.04054 -1.90930
v -1.11745 4.98691 -1.87986
v -0.92173 5.01788 -0.91756
v -0.99419 5.04272 -1.26441
v -0.99094 5.00707 -1.19700
v -0.92173 5.01788 -0.91756
v -0.99094 5.00707 -1.19700
v -1.01402 5.00643 -1.05431
v -1.11745 4.98691 -1.87986
v -0.89999 5.04054 -1.90930
v -0.86438 4.90258 -2.12115
v -0.96921 5.08683 -0.54709
v -0.94983 5.09760 -0.50507
v -0.96296 5.02900 -0.68222
v -0.92173 5.01788 -0.91756
v -1.01402 5.00643 -1.05431
v -0.97772 4.99197 -0.90409
v -0.95071 5.02047 -0.88190
v -1.00016 5.01842 -0.85136
v -0.96296 5.02900 -0.68222
v -0.95071 5.02047 -0.88190
v -0.97772 4.99197 -0.90409
v -1.00016 5.01842 -0.85136
v -0.96296 5.02900 -0.68222
v -1.04863 5.26829 -0.64546
v -0.96921 5.08683 -0.54709
v -0.79352 5.08073 -1.75441
v -1.12599 5.13171 -1.74392
v -1.04432 5.24623 -1.34045
v -1.05529 4.40247 -0.84013
v -1.05215 4.42117 -0.88346
v -0.97982 4.41930 -0.79310
v -0.93038 4.21676 -0.56159
v -1.04500 4.29422 -0.57564
v -0.97769 4.40730 -0.59098
v -0.97772 4.99197 -0.90409
v -1.01402 5.00643 -1.05431
v -1.00016 5.01842 -0.85136
v -0.94983 5.09760 -0.50507
v -0.96921 5.08683 -0.54709
v -1.12757 5.02579 -0.50194
v -1.00016 5.01842 -0.85136
v -1.04863 5.26829 -0.64546
v -0.96296 5.02900 -0.68222
v -1.05585 5.10757 -1.06799
v -0.99094 5.00707 -1.19700
v -0.99419 5.04272 -1.26441
v -1.09574 4.97938 -1.85168
v -1.12599 5.13171 -1.74392
v -0.79352 5.08073 -1.75441
v -1.04500 4.29422 -0.57564
v -0.97982 4.41930 -0.79310
v -0.97769 4.40730 -0.59098
v -1.01402 5.00643 -1.05431
v -1.05585 5.10757 -1.06799
v -1.00016 5.01842 -0.85136
v -0.99094 5.00707 -1.19700
v -1.05585 5.10757 -1.06799
v -1.01402 5.00643 -1.05431
v -1.07601 4.28754 -0.78468
v -0.97982 4.41930 -0.79310
v -1.04500 4.29422 -0.57564
v -0.97982 4.41930 -0.79310
v -1.07601 4.28754 -0.78468
v -1.31957 4.40211 -0.74090
v -1.00016 5.01842 -0.85136
v -1.05585 5.10757 -1.06799
v -1.08781 5.18148 -1.07550
v -0.96825 4.94876 0.36379
v -1.04100 4.97844 0.12367
v -1.08099 5.03282 0.28624
v -1.12204 5.34234 0.29519
v -1.16190 5.24292 0.30757
v -1.04143 5.05055 0.35519
v -1.05529 4.40247 -0.84013
v -1.04791 4.29603 -0.87396
v -1.05215 4.42117 -0.88346
v -1.08781 5.18148 -1.07550
v -1.04863 5.26829 -0.64546
v -1.00016 5.01842 -0.85136
v -0.80624 5.58061 0.24197
v -1.38499 5.61976 0.16938
v -1.12204 5.34234 0.29519
v -1.04143 5.05055 0.35519
v -1.16190 5.24292 0.30757
v -1.04100 4.97844 0.12367
v -1.05215 4.42117 -0.88346
v -1.04791 4.29603 -0.87396
v -1.06359 4.45061 -0.89794
v -1.06359 4.45061 -0.89794
v -1.04791 4.29603 -0.87396
v -1.08591 4.34402 -1.06098
v -1.04100 4.97844 0.12367
v -1.25825 5.31915 0.19917
v -1.08099 5.03282 0.28624
v -0.97982 4.41930 -0.79310
v -1.31957 4.40211 -0.74090
v -1.05529 4.40247 -0.84013
v -0.88705 4.20093 -0.21857
v -1.25940 4.20956 -0.19938
v -0.93038 4.21676 -0.56159
v -1.05585 5.10757 -1.06799
v -0.99419 5.04272 -1.26441
v -1.26179 5.09028 -1.05662
v -1.12462 4.97590 -0.43587
v -1.04100 4.97844 0.12367
v -1.11326 5.00770 -0.48575
v -1.11745 4.98691 -1.87986
v -1.09035 4.83308 -1.75934
v -1.09574 4.97938 -1.85168
v -0.93038 4.21676 -0.56159
v -1.25940 4.20956 -0.19938
v -1.28778 4.20964 -0.55159
v -1.11326 5.00770 -0.48575
v -1.04100 4.97844 0.12367
v -1.16190 5.24292 0.30757
v -1.14651 4.48199 0.45296
v -0.83368 4.53664 0.41202
v -1.19051 4.60468 0.45890
v -1.21880 4.26285 0.17094
v -1.26951 4.12932 0.16127
v -0.84632 4.32277 0.11501
v -1.25940 4.20956 -0.19938
v -0.88705 4.20093 -0.21857
v -1.29154 4.10878 -0.16723
v -1.35716 4.39252 -0.82944
v -1.04791 4.29603 -0.87396
v -1.05529 4.40247 -0.84013
v -1.09035 4.83308 -1.75934
v -1.11745 4.98691 -1.87986
v -1.08262 4.75026 -2.01797
v -1.06591 4.49038 0.39556
v -1.14651 4.48199 0.45296
v -1.16098 4.47507 0.38001
v -1.05585 5.10757 -1.06799
v -1.26179 5.09028 -1.05662
v -1.08781 5.18148 -1.07550
v -1.09574 4.97938 -1.85168
v -1.09035 4.83308 -1.75934
v -1.12599 5.13171 -1.74392
v -1.19705 4.97925 -1.78885
v -1.09035 4.83308 -1.75934
v -1.08262 4.75026 -2.01797
v -1.19027 4.27320 0.31541
v -1.21880 4.26285 0.17094
v -0.84632 4.32277 0.11501
v -1.12462 4.97590 -0.43587
v -1.11326 5.00770 -0.48575
v -1.16807 5.01187 -0.48912
v -1.12757 5.02579 -0.50194
v -0.96921 5.08683 -0.54709
v -1.04863 5.26829 -0.64546
v -1.05906 5.04031 0.44381
v -1.08099 5.03282 0.28624
v -1.21880 5.06150 0.25719
v -1.11326 5.00770 -0.48575
v -1.12757 5.02579 -0.50194
v -1.16807 5.01187 -0.48912
v -1.12599 5.13171 -1.74392
v -1.09035 4.83308 -1.75934
v -1.15274 4.93071 -1.72718
v -1.25825 5.31915 0.19917
v -1.21880 5.06150 0.25719
v -1.08099 5.03282 0.28624
v -1.04863 5.26829 -0.64546
v -1.37821 4.99131 -0.49505
v -1.12757 5.02579 -0.50194
v -1.09035 4.83308 -1.75934
v -1.19705 4.97925 -1.78885
v -1.15274 4.93071 -1.72718
v -1.38499 5.61976 0.16938
v -1.16190 5.24292 0.30757
v -1.12204 5.34234 0.29519
v -1.14651 4.48199 0.45296
v -1.18484 4.56659 0.37472
v -1.16098 4.47507 0.38001
v -1.14651 4.48199 0.45296
v -1.19051 4.60468 0.45890
v -1.18484 4.56659 0.37472
v -1.35716 4.39252 -0.82944
v -1.05529 4.40247 -0.84013
v -1.31957 4.40211 -0.74090
v -1.37821 4.99131 -0.49505
v -1.16807 5.01187 -0.48912
v -1.12757 5.02579 -0.50194
v -1.04100 4.97844 0.12367
v -1.12462 4.97590 -0.43587
v -1.25825 5.31915 0.19917
v -1.12757 5.02579 -0.50194
v -1.11326 5.00770 -0.48575
v -1.16190 5.24292 0.30757
v -1.07601 4.28754 -0.78468
v -1.04500 4.29422 -0.57564
v -1.28029 4.29027 -0.75352
v -1.04432 5.24623 -1.34045
v -1.38960 5.03676 -1.23879
v -0.99419 5.04272 -1.26441
v -1.23279 4.58386 0.36052
v -1.18484 4.56659 0.37472
v -1.19051 4.60468 0.45890
v -1.12462 4.97590 -0.43587
v -1.16807 5.01187 -0.48912
v -1.26914 5.21632 -0.46018
v -1.28778 4.20964 -0.55159
v -1.04500 4.29422 -0.57564
v -0.93038 4.21676 -0.56159
v -1.05906 5.04031 0.44381
v -1.22628 4.70658 0.45796
v -1.19051 4.60468 0.45890
v -1.06591 4.49038 0.39556
v -1.16098 4.47507 0.38001
v -1.19027 4.27320 0.31541
v -1.28029 4.29027 -0.75352
v -1.04500 4.29422 -0.57564
v -1.33493 4.28501 -0.54016
v -1.16807 5.01187 -0.48912
v -1.37255 4.98376 -0.42038
v -1.26914 5.21632 -0.46018
v -1.04500 4.29422 -0.57564
v -1.28778 4.20964 -0.55159
v -1.33493 4.28501 -0.54016
v -1.22628 4.70658 0.45796
v -1.23279 4.58386 0.36052
v -1.19051 4.60468 0.45890
v -1.32411 4.46320 0.35546
v -1.16098 4.47507 0.38001
v -1.18484 4.56659 0.37472
v -1.16807 5.01187 -0.48912
v -1.37821 4.99131 -0.49505
v -1.37255 4.98376 -0.42038
v -1.19027 4.27320 0.31541
v -1.16098 4.47507 0.38001
v -1.32411 4.46320 0.35546
v -1.32411 4.46320 0.35546
v -1.18484 4.56659 0.37472
v -1.23279 4.58386 0.36052
v -1.29154 4.10878 -0.16723
v -0.84383 4.20170 0.09778
v -1.26951 4.12932 0.16127
v -1.25825 5.31915 0.19917
v -1.12462 4.97590 -0.43587
v -1.26914 5.21632 -0.46018
v -1.31391 4.22053 -0.87237
v -1.04791 4.29603 -0.87396
v -1.35716 4.39252 -0.82944
v -1.22628 4.70658 0.45796
v -1.28706 4.67487 0.31110
v -1.23279 4.58386 0.36052
v -1.21880 4.26285 0.17094
v -1.34198 4.19237 0.17224
v -1.26951 4.12932 0.16127
v -1.31957 4.40211 -0.74090
v -1.07601 4.28754 -0.78468
v -1.28029 4.29027 -0.75352
v -1.22628 4.70658 0.45796
v -1.05906 5.04031 0.44381
v -1.37821 4.83722 0.45863
v -1.23279 4.58386 0.36052
v -1.28706 4.67487 0.31110
v -1.29331 4.58427 0.30008
v -1.31791 4.29007 -0.18859
v -1.28778 4.20964 -0.55159
v -1.25940 4.20956 -0.19938
v -1.33493 4.28501 -0.54016
v -1.30574 4.29600 -0.68222
v -1.28029 4.29027 -0.75352
v -1.58520 5.06644 -0.35555
v -1.26914 5.21632 -0.46018
v -1.37255 4.98376 -0.42038
v -1.28706 4.67487 0.31110
v -1.22628 4.70658 0.45796
v -1.34181 4.69266 0.32912
v -1.37767 4.16336 -0.16924
v -1.31791 4.29007 -0.18859
v -1.25940 4.20956 -0.19938
v -1.20074 4.36936 -1.49303
v -1.04791 4.29603 -0.87396
v -1.31391 4.22053 -0.87237
v -1.42344 5.48166 -0.62634
v -1.12757 5.02579 -0.50194
v -1.16190 5.24292 0.30757
v -1.34198 4.19237 0.17224
v -1.21880 4.26285 0.17094
v -1.36628 4.46044 0.16544
v -1.37821 4.83722 0.45863
v -1.31300 4.72852 0.45940
v -1.22628 4.70658 0.45796
v -1.32411 4.46320 0.35546
v -1.23279 4.58386 0.36052
v -1.29331 4.58427 0.30008
v -1.18209 5.08551 0.43718
v -1.21880 5.06150 0.25719
v -1.37821 4.83722 0.45863
v -1.29154 4.10878 -0.16723
v -1.37767 4.16336 -0.16924
v -1.25940 4.20956 -0.19938
v -1.15274 4.93071 -1.72718
v -1.36709 4.79961 -1.65165
v -1.12599 5.13171 -1.74392
v -1.26914 5.21632 -0.46018
v -1.58520 5.06644 -0.35555
v -1.25825 5.31915 0.19917
v -1.29331 4.58427 0.30008
v -1.28706 4.67487 0.31110
v -1.34181 4.69266 0.32912
v -1.28029 4.29027 -0.75352
v -1.30574 4.29600 -0.68222
v -1.31957 4.40211 -0.74090
v -1.34181 4.69266 0.32912
v -1.33137 4.61602 0.31923
v -1.29331 4.58427 0.30008
v -1.31791 4.29007 -0.18859
v -1.33493 4.28501 -0.54016
v -1.28778 4.20964 -0.55159
v -1.22628 4.70658 0.45796
v -1.31300 4.72852 0.45940
v -1.34181 4.69266 0.32912
v -1.29154 4.10878 -0.16723
v -1.26951 4.12932 0.16127
v -1.37767 4.16336 -0.16924
v -1.36628 4.46044 0.16544
v -1.32411 4.46320 0.35546
v -1.29331 4.58427 0.30008
v -1.25825 5.31915 0.19917
v -1.58520 5.06644 -0.35555
v -1.53590 5.15619 0.15527
v -1.45708 4.30046 -0.64171
v -1.30574 4.29600 -0.68222
v -1.33493 4.28501 -0.54016
v -1.29331 4.58427 0.30008
v -1.33137 4.61602 0.31923
v -1.35648 4.58181 0.23003
v -1.15274 4.93071 -1.72718
v -1.19705 4.97925 -1.78885
v -1.39628 4.88489 -1.76025
v -1.32411 4.46320 0.35546
v -1.21880 4.26285 0.17094
v -1.19027 4.27320 0.31541
v -1.29331 4.58427 0.30008
v -1.36753 4.55821 0.15940
v -1.36628 4.46044 0.16544
v -1.15274 4.93071 -1.72718
v -1.39628 4.88489 -1.76025
v -1.36709 4.79961 -1.65165
v -1.33137 4.61602 0.31923
v -1.34181 4.69266 0.32912
v -1.35648 4.58181 0.23003
v -1.30574 4.29600 -0.68222
v -1.46469 4.40257 -0.65518
v -1.31957 4.40211 -0.74090
v -1.32411 4.46320 0.35546
v -1.36628 4.46044 0.16544
v -1.21880 4.26285 0.17094
v -1.21880 5.06150 0.25719
v -1.48100 4.82046 0.19182
v -1.36199 4.91206 0.23262
v -1.29331 4.58427 0.30008
v -1.35648 4.58181 0.23003
v -1.36753 4.55821 0.15940
v -1.08781 5.18148 -1.07550
v -1.26179 5.09028 -1.05662
v -1.40332 5.05782 -1.01620
v -1.31791 4.29007 -0.18859
v -1.43207 4.30952 -0.32536
v -1.33493 4.28501 -0.54016
v -1.19705 4.97925 -1.78885
v -1.40400 4.74464 -2.02996
v -1.39628 4.88489 -1.76025
v -1.53590 5.15619 0.15527
v -1.21880 5.06150 0.25719
v -1.25825 5.31915 0.19917
v -1.26179 5.09028 -1.05662
v -1.40719 4.99521 -1.21504
v -1.40332 5.05782 -1.01620
v -1.37096 4.69402 -1.62943
v -1.46505 4.83065 -1.62990
v -1.36709 4.79961 -1.65165
v -1.04432 5.24623 -1.34045
v -1.12599 5.13171 -1.74392
v -1.38960 5.03676 -1.23879
v -1.41976 4.84441 0.26448
v -1.35648 4.58181 0.23003
v -1.34181 4.69266 0.32912
v -1.35648 4.58181 0.23003
v -1.41976 4.84441 0.26448
v -1.36199 4.91206 0.23262
v -1.21880 5.06150 0.25719
v -1.36199 4.91206 0.23262
v -1.37821 4.83722 0.45863
v -1.34198 4.19237 0.17224
v -1.37767 4.16336 -0.16924
v -1.26951 4.12932 0.16127
v -1.31791 4.29007 -0.18859
v -1.37767 4.16336 -0.16924
v -1.38616 4.28985 -0.18293
v -1.38848 4.41427 -0.04469
v -1.34198 4.19237 0.17224
v -1.36628 4.46044 0.16544
v -1.37821 4.83722 0.45863
v -1.34181 4.69266 0.32912
v -1.31300 4.72852 0.45940
v -1.34198 4.19237 0.17224
v -1.38848 4.41427 -0.04469
v -1.38253 4.28634 -0.05366
v -1.38616 4.28985 -0.18293
v -1.43207 4.30952 -0.32536
v -1.31791 4.29007 -0.18859
v -1.26179 5.09028 -1.05662
v -0.99419 5.04272 -1.26441
v -1.40719 4.99521 -1.21504
v -1.37821 4.99131 -0.49505
v -1.04863 5.26829 -0.64546
v -1.56307 5.03271 -0.52271
v -1.34198 4.19237 0.17224
v -1.38253 4.28634 -0.05366
v -1.37767 4.16336 -0.16924
v -1.31391 4.22053 -0.87237
v -1.35716 4.39252 -0.82944
v -1.40192 4.41535 -0.94782
v -1.31391 4.22053 -0.87237
v -1.40192 4.41535 -0.94782
v -1.42416 4.37110 -1.17584
v -1.37821 4.83722 0.45863
v -1.41976 4.84441 0.26448
v -1.34181 4.69266 0.32912
v -1.40332 5.05782 -1.01620
v -1.04863 5.26829 -0.64546
v -1.08781 5.18148 -1.07550
v -1.36628 4.46044 0.16544
v -1.43342 4.43466 0.15250
v -1.38848 4.41427 -0.04469
v -1.36753 4.55821 0.15940
v -1.35648 4.58181 0.23003
v -1.44071 4.57147 0.19714
v -1.37767 4.16336 -0.16924
v -1.38253 4.28634 -0.05366
v -1.38616 4.28985 -0.18293
v -0.99419 5.04272 -1.26441
v -1.38960 5.03676 -1.23879
v -1.40719 4.99521 -1.21504
v -1.37689 4.67343 -1.75932
v -1.36709 4.79961 -1.65165
v -1.39628 4.88489 -1.76025
v -1.39672 4.92170 -1.18020
v -1.38159 4.90544 -1.02834
v -1.40332 5.05782 -1.01620
v -1.38253 4.28634 -0.05366
v -1.38848 4.41427 -0.04469
v -1.43901 4.29851 -0.06622
v -1.44071 4.57147 0.19714
v -1.36628 4.46044 0.16544
v -1.36753 4.55821 0.15940
v -1.36199 4.91206 0.23262
v -1.41976 4.84441 0.26448
v -1.37821 4.83722 0.45863
v -1.16190 5.24292 0.30757
v -1.38499 5.61976 0.16938
v -1.42344 5.48166 -0.62634
v -1.38253 4.28634 -0.05366
v -1.43901 4.29851 -0.06622
v -1.38616 4.28985 -0.18293
v -1.46469 4.40257 -0.65518
v -1.35716 4.39252 -0.82944
v -1.31957 4.40211 -0.74090
v -1.37255 4.98376 -0.42038
v -1.37821 4.99131 -0.49505
v -1.52431 4.82292 -0.50408
v -1.40332 5.05782 -1.01620
v -1.40719 4.99521 -1.21504
v -1.39672 4.92170 -1.18020
v -1.43342 4.43466 0.15250
v -1.36628 4.46044 0.16544
v -1.44071 4.57147 0.19714
v -1.43207 4.30952 -0.32536
v -1.45708 4.30046 -0.64171
v -1.33493 4.28501 -0.54016
v -1.35648 4.58181 0.23003
v -1.36199 4.91206 0.23262
v -1.44071 4.57147 0.19714
v -1.38848 4.41427 -0.04469
v -1.43342 4.43466 0.15250
v -1.44274 4.41669 -0.05504
v -1.38616 4.28985 -0.18293
v -1.43901 4.29851 -0.06622
v -1.43207 4.30952 -0.32536
v -1.37821 4.99131 -0.49505
v -1.56307 5.03271 -0.52271
v -1.52431 4.82292 -0.50408
v -1.46469 4.40257 -0.65518
v -1.30574 4.29600 -0.68222
v -1.45708 4.30046 -0.64171
v -1.48100 4.82046 0.19182
v -1.44071 4.57147 0.19714
v -1.36199 4.91206 0.23262
v -1.31391 4.22053 -0.87237
v -1.42416 4.37110 -1.17584
v -1.43390 4.33252 -1.43570
v -1.46505 4.83065 -1.62990
v -1.12599 5.13171 -1.74392
v -1.36709 4.79961 -1.65165
v -1.41444 4.72191 -1.68467
v -1.48690 4.81686 -1.69419
v -1.46505 4.83065 -1.62990
v -1.50806 4.79374 -0.34422
v -1.58520 5.06644 -0.35555
v -1.37255 4.98376 -0.42038
v -1.38848 4.41427 -0.04469
v -1.44274 4.41669 -0.05504
v -1.43901 4.29851 -0.06622
v -1.52431 4.82292 -0.50408
v -1.50806 4.79374 -0.34422
v -1.37255 4.98376 -0.42038
v -1.43207 4.30952 -0.32536
v -1.43901 4.29851 -0.06622
v -1.44274 4.41669 -0.05504
v -1.44071 4.57147 0.19714
v -1.44274 4.41669 -0.05504
v -1.43342 4.43466 0.15250
v -1.59940 4.36217 -1.18088
v -1.43390 4.33252 -1.43570
v -1.42416 4.37110 -1.17584
v -1.38159 4.90544 -1.02834
v -1.39672 4.92170 -1.18020
v -1.54070 4.72729 -1.09582
v -1.45708 4.30046 -0.64171
v -1.47484 4.60389 -0.31783
v -1.52431 4.82292 -0.50408
v -1.45708 4.30046 -0.64171
v -1.43207 4.30952 -0.32536
v -1.47484 4.60389 -0.31783
v -1.50762 4.90137 -1.63295
v -1.12599 5.13171 -1.74392
v -1.46505 4.83065 -1.62990
v -1.43207 4.30952 -0.32536
v -1.44274 4.41669 -0.05504
v -1.44071 4.57147 0.19714
v -1.12599 5.13171 -1.74392
v -1.50762 4.90137 -1.63295
v -1.38960 5.03676 -1.23879
v -1.50762 4.90137 -1.63295
v -1.46505 4.83065 -1.62990
v -1.53876 4.81548 -1.60740
v -1.40192 4.41535 -0.94782
v -1.49713 4.52986 -1.19616
v -1.42416 4.37110 -1.17584
v -1.04863 5.26829 -0.64546
v -1.58503 4.93550 -0.97152
v -1.56307 5.03271 -0.52271
v -1.43207 4.30952 -0.32536
v -1.44071 4.57147 0.19714
v -1.47484 4.60389 -0.31783
v -1.40332 5.05782 -1.01620
v -1.38159 4.90544 -1.02834
v -1.58503 4.93550 -0.97152
v -1.44071 4.57147 0.19714
v -1.50850 4.60627 -0.29293
v -1.47484 4.60389 -0.31783
v -1.58520 5.06644 -0.35555
v -1.44071 4.57147 0.19714
v -1.48100 4.82046 0.19182
v -1.42416 4.37110 -1.17584
v -1.61984 4.49782 -1.21509
v -1.59940 4.36217 -1.18088
v -1.40192 4.41535 -0.94782
v -1.52978 4.56135 -1.09143
v -1.49713 4.52986 -1.19616
v -1.46469 4.40257 -0.65518
v -1.40192 4.41535 -0.94782
v -1.35716 4.39252 -0.82944
v -1.52682 4.55051 -0.92760
v -1.40192 4.41535 -0.94782
v -1.51310 4.41976 -0.92145
v -1.38960 5.03676 -1.23879
v -1.50762 4.90137 -1.63295
v -1.51934 4.91807 -1.43316
v -1.47484 4.60389 -0.31783
v -1.50806 4.79374 -0.34422
v -1.52431 4.82292 -0.50408
v -1.53138 4.74302 -0.96837
v -1.58503 4.93550 -0.97152
v -1.38159 4.90544 -1.02834
v -1.46469 4.40257 -0.65518
v -1.51310 4.41976 -0.92145
v -1.40192 4.41535 -0.94782
v -1.40332 5.05782 -1.01620
v -1.58503 4.93550 -0.97152
v -1.04863 5.26829 -0.64546
v -1.48100 4.82046 0.19182
v -1.21880 5.06150 0.25719
v -1.53590 5.15619 0.15527
v -1.42416 4.37110 -1.17584
v -1.49713 4.52986 -1.19616
v -1.61984 4.49782 -1.21509
v -1.50806 4.79374 -0.34422
v -1.47484 4.60389 -0.31783
v -1.50850 4.60627 -0.29293
v -1.38159 4.90544 -1.02834
v -1.54070 4.72729 -1.09582
v -1.53138 4.74302 -0.96837
v -1.46505 4.83065 -1.62990
v -1.48690 4.81686 -1.69419
v -1.53876 4.81548 -1.60740
v -1.52682 4.55051 -0.92760
v -1.50182 4.64856 -0.98254
v -1.51917 4.64350 -1.08742
v -1.52431 4.82292 -0.50408
v -1.46469 4.40257 -0.65518
v -1.45708 4.30046 -0.64171
v -1.50182 4.64856 -0.98254
v -1.52682 4.55051 -0.92760
v -1.53138 4.74302 -0.96837
v -1.52682 4.55051 -0.92760
v -1.51310 4.41976 -0.92145
v -1.46469 4.40257 -0.65518
v -1.53138 4.74302 -0.96837
v -1.51917 4.64350 -1.08742
v -1.50182 4.64856 -0.98254
v -1.40192 4.41535 -0.94782
v -1.52682 4.55051 -0.92760
v -1.52978 4.56135 -1.09143
v -1.44071 4.57147 0.19714
v -1.58520 5.06644 -0.35555
v -1.50850 4.60627 -0.29293
v -1.54070 4.72729 -1.09582
v -1.51917 4.64350 -1.08742
v -1.53138 4.74302 -0.96837
v -1.46469 4.40257 -0.65518
v -1.52431 4.82292 -0.50408
v -1.52682 4.55051 -0.92760
v -1.51917 4.64350 -1.08742
v -1.52978 4.56135 -1.09143
v -1.52682 4.55051 -0.92760
v -1.39672 4.92170 -1.18020
v -1.68841 4.86620 -1.14987
v -1.54070 4.72729 -1.09582
v -1.38960 5.03676 -1.23879
v -1.51934 4.91807 -1.43316
v -1.40719 4.99521 -1.21504
v -1.68841 4.86620 -1.14987
v -1.39672 4.92170 -1.18020
v -1.40719 4.99521 -1.21504
v -1.50806 4.79374 -0.34422
v -1.50850 4.60627 -0.29293
v -1.58520 5.06644 -0.35555
v -1.54070 4.72729 -1.09582
v -1.68841 4.86620 -1.14987
v -1.51917 4.64350 -1.08742
v -1.51934 4.91807 -1.43316
v -1.68841 4.86620 -1.14987
v -1.40719 4.99521 -1.21504
v -1.53590 5.15619 0.15527
v -1.58520 5.06644 -0.35555
v -1.48100 4.82046 0.19182
v -1.52682 4.55051 -0.92760
v -1.58503 4.93550 -0.97152
v -1.53138 4.74302 -0.96837
v -1.61984 4.49782 -1.21509
v -1.49713 4.52986 -1.19616
v -1.52978 4.56135 -1.09143
v -1.51917 4.64350 -1.08742
v -1.60282 4.52798 -1.09291
v -1.52978 4.56135 -1.09143
v -1.53876 4.81548 -1.60740
v -1.51934 4.91807 -1.43316
v -1.50762 4.90137 -1.63295
v -1.52431 4.82292 -0.50408
v -1.58503 4.93550 -0.97152
v -1.52682 4.55051 -0.92760
v -1.52431 4.82292 -0.50408
v -1.56307 5.03271 -0.52271
v -1.58503 4.93550 -0.97152
v -1.68287 4.69319 -1.64178
v -1.51934 4.91807 -1.43316
v -1.53876 4.81548 -1.60740
v -1.52978 4.56135 -1.09143
v -1.60282 4.52798 -1.09291
v -1.61984 4.49782 -1.21509
v -1.51917 4.64350 -1.08742
v -1.68841 4.86620 -1.14987
v -1.60282 4.52798 -1.09291
v -1.59940 4.36217 -1.18088
v -1.61984 4.49782 -1.21509
v -1.68287 4.69319 -1.64178
v -1.68841 4.86620 -1.14987
v -1.61984 4.49782 -1.21509
v -1.60282 4.52798 -1.09291
v -1.48690 4.81686 -1.69419
v -1.68287 4.69319 -1.64178
v -1.53876 4.81548 -1.60740
v -1.68841 4.86620 -1.14987
v -1.68287 4.69319 -1.64178
v -1.61984 4.49782 -1.21509
v -1.51934 4.91807 -1.43316
v -1.68287 4.69319 -1.64178
v -1.68841 4.86620 -1.14987
v -0.94548 4.76287 -0.13078
v -0.59225 4.81873 -0.78247
v -0.52674 4.73205 -0.65928
v -0.57553 4.75026 -0.96576
v -0.55238 4.72421 -0.66038
v -0.60581 4.46326 -0.91416
v -0.51233 4.47038 -0.58728
v -0.83509 4.42268 -0.57590
v -0.88705 4.20093 -0.21857
v -1.29154 4.10878 -0.16723
v -0.84383 4.20170 0.09778
v -1.26951 4.12932 0.16127
v -0.84632 4.32277 0.11501
v -1.19027 4.27320 0.31541
v -1.06591 4.49038 0.39556
v -1.14651 4.48199 0.45296
v -0.83368 4.53664 0.41202
v -1.19051 4.60468 0.45890
v -1.05906 5.04031 0.44381
v -1.08099 5.03282 0.28624
v -0.96825 4.94876 0.36379
v -1.04100 4.97844 0.12367
v -1.04143 5.05055 0.35519
v -1.12204 5.34234 0.29519
v -0.80624 5.58061 0.24197
v -1.38499 5.61976 0.16938
v -1.42344 5.48166 -0.62634
v -1.12757 5.02579 -0.50194
v -0.94983 5.09760 -0.50507
v -0.96296 5.02900 -0.68222
v -0.63132 4.92635 -0.76483
v -1.17592 4.68158 -1.56864
v -0.69178 4.44780 -1.41657
v -0.64223 4.85631 -1.42144
v -0.79465 4.58998 -1.43576
v -0.79352 5.08073 -1.75441
v -0.78038 4.85217 -1.74322
v -0.89999 5.04054 -1.90930
v -0.86438 4.90258 -2.12115
v -1.11745 4.98691 -1.87986
v -1.08262 4.75026 -2.01797
v -1.19705 4.97925 -1.78885
v -1.40400 4.74464 -2.02996
v -1.39628 4.88489 -1.76025
v -1.37689 4.67343 -1.75932
v -1.36709 4.79961 -1.65165
v -1.37096 4.69402 -1.62943
v -1.46505 4.83065 -1.62990
v -1.41444 4.72191 -1.68467
v -1.48690 4.81686 -1.69419
v -1.68287 4.69319 -1.64178
v -1.59940 4.36217 -1.18088
v -1.43390 4.33252 -1.43570
v -1.31391 4.22053 -0.87237
v -1.20074 4.36936 -1.49303
v -1.04791 4.29603 -0.87396
v -1.08591 4.34402 -1.06098
v -1.06359 4.45061 -0.89794
v -1.25970 4.99474 0.38433
v -1.21880 5.06150 0.25719
v -1.18209 5.08551 0.43718
v -1.37821 4.83722 0.45863
vt 0.29068 0.30063
vt 0.28823 0.29236
vt 0.29151 0.28820
vt 0.19845 0.06977
vt 0.20995 0.06106
vt 0.21069 0.06957
vt 0.58790 0.92695
vt 0.59117 0.94010
vt 0.57816 0.94010
vt 0.00779 0.09797
vt 0.01558 0.09721
vt 0.01245 0.10014
vt 0.01558 0.09721
vt 0.01559 0.09927
vt 0.01245 0.10014
vt 0.29139 0.28354
vt 0.30746 0.27618
vt 0.30774 0.27889
vt 0.58565 0.92680
vt 0.58790 0.92695
vt 0.57816 0.94010
vt 0.98399 0.62819
vt 0.97544 0.62819
vt 0.98385 0.62614
vt 0.00779 0.09797
vt 0.01245 0.10014
vt 0.00766 0.10517
vt 0.47132 0.93237
vt 0.47152 0.93393
vt 0.46869 0.93557
vt 0.47132 0.93237
vt 0.46869 0.93557
vt 0.45079 0.93127
vt 0.98358 0.74792
vt 0.98127 0.74392
vt 0.98846 0.74421
vt 0.01211 0.10514
vt 0.00766 0.10517
vt 0.01245 0.10014
vt 0.39596 0.99527
vt 0.39821 0.99527
vt 0.39726 0.99928
vt 0.45079 0.93127
vt 0.46869 0.93557
vt 0.46862 0.94423
vt 0.47028 0.94800
vt 0.45079 0.93127
vt 0.46862 0.94423
vt 0.31192 0.10237
vt 0.31299 0.09749
vt 0.31451 0.09789
vt 0.45079 0.93127
vt 0.47028 0.94800
vt 0.45030 0.94766
vt 0.79726 0.94671
vt 0.81679 0.94029
vt 0.81458 0.95039
vt 0.86122 0.75057
vt 0.88120 0.75027
vt 0.88120 0.76630
vt 0.98358 0.74792
vt 0.98846 0.74421
vt 0.99102 0.74632
vt 0.93527 0.48748
vt 0.94265 0.48934
vt 0.94600 0.49681
vt 0.69088 0.98893
vt 0.68729 0.98188
vt 0.69866 0.98606
vt 0.67753 0.16090
vt 0.66156 0.16390
vt 0.66405 0.15599
vt 0.21257 0.84880
vt 0.19843 0.84148
vt 0.19875 0.82523
vt 0.97136 0.83116
vt 0.96692 0.83093
vt 0.97231 0.82798
vt 0.21257 0.84880
vt 0.19070 0.84314
vt 0.19843 0.84148
vt 0.18095 0.98903
vt 0.16492 0.98903
vt 0.18054 0.98771
vt 0.80231 0.95926
vt 0.81458 0.95039
vt 0.81635 0.95746
vt 0.31451 0.09789
vt 0.31442 0.11142
vt 0.31192 0.10237
vt 0.19380 0.85383
vt 0.19070 0.84314
vt 0.21257 0.84880
vt 0.34713 0.08977
vt 0.33871 0.09170
vt 0.33674 0.08722
vt 0.08417 0.86571
vt 0.09466 0.86062
vt 0.09476 0.86915
vt 0.97231 0.82798
vt 0.96692 0.83093
vt 0.96972 0.82099
vt 0.99100 0.19202
vt 0.99100 0.20234
vt 0.98921 0.19206
vt 0.58565 0.92680
vt 0.57816 0.94010
vt 0.57247 0.93929
vt 0.31442 0.11142
vt 0.31232 0.11281
vt 0.31192 0.10237
vt 0.89931 0.90239
vt 0.90480 0.91415
vt 0.89974 0.91103
vt 0.81458 0.95039
vt 0.80231 0.95926
vt 0.79726 0.94671
vt 0.92122 0.43678
vt 0.91342 0.44021
vt 0.91685 0.43361
vt 0.94530 0.74946
vt 0.93678 0.74954
vt 0.94584 0.73651
vt 0.09466 0.86062
vt 0.08417 0.86571
vt 0.08558 0.85553
vt 0.57247 0.93929
vt 0.57273 0.93123
vt 0.58565 0.92680
vt 0.59343 0.95845
vt 0.61257 0.95508
vt 0.59297 0.96871
vt 0.58565 0.92680
vt 0.57273 0.93123
vt 0.57000 0.92751
vt 0.97766 0.82179
vt 0.97231 0.82798
vt 0.96972 0.82099
vt 0.33877 0.09168
vt 0.33669 0.10278
vt 0.33674 0.08722
vt 0.64913 0.03493
vt 0.65449 0.03740
vt 0.64982 0.04618
vt 0.64982 0.04618
vt 0.65449 0.03740
vt 0.65103 0.04737
vt 0.80415 0.05947
vt 0.81831 0.05947
vt 0.81556 0.06077
vt 0.98442 0.87798
vt 0.98445 0.88946
vt 0.98216 0.88417
vt 0.96650 0.20248
vt 0.97704 0.20277
vt 0.97808 0.21464
vt 0.94404 0.50234
vt 0.94265 0.50362
vt 0.94600 0.49681
vt 0.98442 0.87798
vt 0.98216 0.88417
vt 0.98190 0.87799
vt 0.95877 0.00841
vt 0.95809 0.01063
vt 0.95118 0.01089
vt 0.48978 0.99771
vt 0.48832 0.99877
vt 0.48796 0.99628
vt 0.56121 0.26686
vt 0.56399 0.25701
vt 0.56687 0.26534
vt 0.61257 0.95508
vt 0.61280 0.97078
vt 0.59297 0.96871
vt 0.56964 0.92936
vt 0.57000 0.92751
vt 0.57273 0.93123
vt 0.91342 0.44021
vt 0.91213 0.43516
vt 0.91685 0.43361
vt 0.55215 0.26699
vt 0.54629 0.26499
vt 0.55437 0.26582
vt 0.35092 0.00384
vt 0.35115 0.00196
vt 0.35811 0.00127
vt 0.55437 0.26582
vt 0.56399 0.25701
vt 0.56121 0.26686
vt 0.54633 0.26059
vt 0.54055 0.26457
vt 0.53803 0.26286
vt 0.42317 0.07486
vt 0.43158 0.07754
vt 0.42257 0.09040
vt 0.00819 0.78010
vt 0.01370 0.77210
vt 0.01314 0.77967
vt 0.54629 0.26499
vt 0.54633 0.26059
vt 0.55437 0.26582
vt 0.54055 0.26457
vt 0.54633 0.26059
vt 0.54629 0.26499
vt 0.00758 0.77220
vt 0.01370 0.77210
vt 0.00819 0.78010
vt 0.09362 0.99580
vt 0.09690 0.99133
vt 0.10529 0.99524
vt 0.55437 0.26582
vt 0.54633 0.26059
vt 0.54644 0.25737
vt 0.76376 0.74544
vt 0.76090 0.75388
vt 0.75880 0.74836
vt 0.67202 0.51537
vt 0.67270 0.51949
vt 0.66629 0.52876
vt 0.00301 0.46674
vt 0.00720 0.46826
vt 0.00220 0.46844
vt 0.54644 0.25737
vt 0.56399 0.25701
vt 0.55437 0.26582
vt 0.67364 0.49281
vt 0.69688 0.51202
vt 0.67202 0.51537
vt 0.29990 0.85386
vt 0.30365 0.84541
vt 0.30852 0.85823
vt 0.39597 0.00274
vt 0.39098 0.00230
vt 0.39724 0.00221
vt 0.85390 0.75033
vt 0.85995 0.74871
vt 0.85875 0.75646
vt 0.76090 0.75388
vt 0.74331 0.75417
vt 0.75880 0.74836
vt 0.54534 0.05300
vt 0.55906 0.05300
vt 0.54806 0.05537
vt 0.95470 0.60156
vt 0.95433 0.61551
vt 0.94177 0.60215
vt 0.89208 0.10602
vt 0.89502 0.11410
vt 0.88383 0.10630
vt 0.26676 0.18209
vt 0.28931 0.18209
vt 0.26487 0.18357
vt 0.99342 0.06690
vt 0.99342 0.07610
vt 0.99223 0.06811
vt 0.49501 0.09815
vt 0.50845 0.10791
vt 0.49667 0.11017
vt 0.33287 0.86081
vt 0.30852 0.85823
vt 0.30365 0.84541
vt 0.78096 0.73118
vt 0.76996 0.73596
vt 0.77983 0.72643
vt 0.06729 0.20285
vt 0.06244 0.20514
vt 0.06819 0.18859
vt 0.03827 0.40512
vt 0.04125 0.39147
vt 0.04189 0.40712
vt 0.98231 0.43260
vt 0.98786 0.44222
vt 0.98409 0.44271
vt 0.89904 0.53390
vt 0.90779 0.53678
vt 0.89941 0.54658
vt 0.66842 0.12640
vt 0.66684 0.12303
vt 0.66964 0.12296
vt 0.99596 0.65541
vt 0.98771 0.65541
vt 0.99496 0.65235
vt 0.94298 0.20125
vt 0.93636 0.19662
vt 0.95042 0.19651
vt 0.04459 0.44080
vt 0.05288 0.44293
vt 0.05105 0.45548
vt 0.37326 0.07055
vt 0.37312 0.06502
vt 0.38740 0.06545
vt 0.25541 0.92703
vt 0.25402 0.92508
vt 0.25592 0.92399
vt 0.25414 0.92396
vt 0.24714 0.92392
vt 0.24653 0.91512
vt 0.76031 0.74170
vt 0.75880 0.74836
vt 0.75577 0.74220
vt 0.25402 0.92508
vt 0.25414 0.92397
vt 0.25592 0.92399
vt 0.78175 0.71720
vt 0.79580 0.71757
vt 0.79080 0.72010
vt 0.89642 0.78247
vt 0.90655 0.77922
vt 0.91024 0.78361
vt 0.24653 0.91512
vt 0.26375 0.92091
vt 0.25414 0.92396
vt 0.05288 0.44293
vt 0.04459 0.44080
vt 0.04855 0.43936
vt 0.69688 0.51202
vt 0.67270 0.51949
vt 0.67202 0.51537
vt 0.99410 0.24245
vt 0.99765 0.24529
vt 0.99410 0.24524
vt 0.99410 0.24245
vt 0.99897 0.24209
vt 0.99765 0.24529
vt 0.40008 0.08583
vt 0.40965 0.08951
vt 0.40008 0.08911
vt 0.26375 0.92091
vt 0.25592 0.92399
vt 0.25414 0.92395
vt 0.76090 0.75388
vt 0.76079 0.77632
vt 0.74336 0.75419
vt 0.33370 0.86005
vt 0.33287 0.86081
vt 0.30365 0.84541
vt 0.33425 0.02091
vt 0.33425 0.02808
vt 0.32724 0.02094
vt 0.08558 0.85553
vt 0.10049 0.84306
vt 0.09466 0.86062
vt 0.34204 0.99474
vt 0.34376 0.99573
vt 0.34219 0.99883
vt 0.76079 0.77632
vt 0.75932 0.77927
vt 0.74769 0.78105
vt 0.90312 0.43164
vt 0.91213 0.43516
vt 0.91342 0.44021
vt 0.76673 0.71551
vt 0.77885 0.72250
vt 0.77983 0.72643
vt 0.80495 0.93370
vt 0.80860 0.93345
vt 0.81175 0.94082
vt 0.32724 0.02094
vt 0.33425 0.02808
vt 0.32434 0.02783
vt 0.30095 0.90685
vt 0.30928 0.90450
vt 0.30628 0.91431
vt 0.41465 0.03557
vt 0.41511 0.02682
vt 0.41810 0.02628
vt 0.00903 0.20025
vt 0.01326 0.19617
vt 0.01308 0.20025
vt 0.81472 0.93250
vt 0.80860 0.93345
vt 0.80872 0.92990
vt 0.09607 0.02118
vt 0.10427 0.01930
vt 0.10465 0.02222
vt 0.81175 0.94082
vt 0.80860 0.93345
vt 0.81472 0.93250
vt 0.81472 0.93250
vt 0.80872 0.92990
vt 0.81039 0.92883
vt 0.33868 0.09272
vt 0.35404 0.10521
vt 0.33769 0.10504
vt 0.74331 0.75425
vt 0.76079 0.77632
vt 0.74769 0.78105
vt 0.98850 0.43285
vt 0.98786 0.44222
vt 0.98231 0.43260
vt 0.00903 0.20025
vt 0.00935 0.19419
vt 0.01326 0.19617
vt 0.06729 0.20285
vt 0.06503 0.20766
vt 0.06244 0.20514
vt 0.10529 0.99524
vt 0.09690 0.99133
vt 0.10391 0.99144
vt 0.77885 0.72250
vt 0.76673 0.71551
vt 0.78091 0.71528
vt 0.01326 0.19617
vt 0.00935 0.19419
vt 0.01258 0.19304
vt 0.97274 0.07962
vt 0.96046 0.07656
vt 0.97245 0.07624
vt 0.99653 0.68299
vt 0.99160 0.68271
vt 0.98912 0.68204
vt 0.31855 0.90648
vt 0.30628 0.91431
vt 0.30931 0.90450
vt 0.00772 0.99838
vt 0.00165 0.99838
vt 0.00775 0.99612
vt 0.99440 0.46026
vt 0.99658 0.46453
vt 0.99318 0.46451
vt 0.77037 0.65801
vt 0.76942 0.63244
vt 0.78031 0.63416
vt 0.34307 0.83990
vt 0.33370 0.86005
vt 0.30365 0.84541
vt 0.06503 0.20766
vt 0.06729 0.20285
vt 0.07512 0.20775
vt 0.78091 0.71528
vt 0.78111 0.72003
vt 0.77885 0.72250
vt 0.01768 0.19262
vt 0.01326 0.19617
vt 0.01258 0.19304
vt 0.96457 0.18955
vt 0.97141 0.19076
vt 0.96438 0.20143
vt 0.99113 0.46137
vt 0.99440 0.46026
vt 0.99318 0.46451
vt 0.79080 0.72009
vt 0.79519 0.73151
vt 0.78175 0.71720
vt 0.08138 0.21423
vt 0.07283 0.20246
vt 0.09922 0.19450
vt 0.51272 0.99511
vt 0.51597 0.99620
vt 0.51586 0.99845
vt 0.98912 0.68204
vt 0.99160 0.68271
vt 0.98921 0.68609
vt 0.51586 0.99845
vt 0.51332 0.99701
vt 0.51272 0.99511
vt 0.97274 0.07962
vt 0.96080 0.07959
vt 0.96046 0.07656
vt 0.00165 0.99838
vt 0.00266 0.99519
vt 0.00775 0.99612
vt 0.16404 0.99604
vt 0.15284 0.99604
vt 0.16418 0.99258
vt 0.11024 0.01080
vt 0.10297 0.01138
vt 0.10429 0.00643
vt 0.58909 0.90986
vt 0.61152 0.89384
vt 0.60181 0.91220
vt 0.61522 0.93897
vt 0.61373 0.93387
vt 0.61859 0.93472
vt 0.99774 0.21293
vt 0.99791 0.21491
vt 0.99435 0.21392
vt 0.59580 0.03773
vt 0.60000 0.03761
vt 0.60159 0.04787
vt 0.78986 0.99067
vt 0.78091 0.99696
vt 0.78105 0.99143
vt 0.10429 0.00643
vt 0.11029 0.00713
vt 0.11024 0.01080
vt 0.59580 0.03773
vt 0.60159 0.04787
vt 0.59535 0.04997
vt 0.37787 0.02760
vt 0.38078 0.02734
vt 0.37661 0.03108
vt 0.33235 0.00245
vt 0.32855 0.00780
vt 0.32822 0.00209
vt 0.78986 0.99067
vt 0.79010 0.99796
vt 0.78091 0.99696
vt 0.87100 0.42850
vt 0.88236 0.42108
vt 0.87789 0.42482
vt 0.99774 0.21293
vt 0.99435 0.21392
vt 0.99170 0.21294
vt 0.95618 0.40483
vt 0.95687 0.41266
vt 0.95555 0.41852
vt 0.63051 0.93393
vt 0.62595 0.93796
vt 0.61859 0.93472
vt 0.03659 0.59733
vt 0.02537 0.61197
vt 0.02622 0.59780
vt 0.89674 0.76952
vt 0.90655 0.77922
vt 0.89642 0.78247
vt 0.88383 0.10630
vt 0.87833 0.11389
vt 0.87787 0.10559
vt 0.80005 0.73278
vt 0.79297 0.73591
vt 0.79517 0.73153
vt 0.15783 0.18613
vt 0.15716 0.20607
vt 0.13840 0.18670
vt 0.38680 0.03058
vt 0.37661 0.03108
vt 0.38078 0.02734
vt 0.92772 0.05678
vt 0.91753 0.05669
vt 0.91578 0.05363
vt 0.97141 0.19076
vt 0.97281 0.19844
vt 0.96438 0.20143
vt 0.15249 0.99278
vt 0.16418 0.99258
vt 0.15284 0.99604
vt 0.99658 0.46453
vt 0.99440 0.46026
vt 0.99799 0.46268
vt 0.96220 0.17312
vt 0.97066 0.17959
vt 0.96156 0.18043
vt 0.38687 0.02314
vt 0.38078 0.02734
vt 0.38218 0.02236
vt 0.97066 0.17959
vt 0.96220 0.17312
vt 0.96647 0.17229
vt 0.63077 0.93624
vt 0.62595 0.93796
vt 0.63051 0.93393
vt 0.88383 0.10630
vt 0.89502 0.11410
vt 0.87833 0.11389
vt 0.26375 0.92091
vt 0.24653 0.91512
vt 0.26958 0.91598
vt 0.97066 0.17959
vt 0.96647 0.17229
vt 0.97017 0.16791
vt 0.01473 0.28076
vt 0.00966 0.28431
vt 0.00704 0.28082
vt 0.28802 0.17547
vt 0.29205 0.16738
vt 0.30103 0.16979
vt 0.38687 0.02314
vt 0.38680 0.03058
vt 0.38078 0.02734
vt 0.82886 0.85816
vt 0.81543 0.87571
vt 0.81515 0.85816
vt 0.04392 0.01870
vt 0.04118 0.01860
vt 0.04142 0.01099
vt 0.99170 0.21294
vt 0.99435 0.21392
vt 0.99170 0.21607
vt 0.97017 0.16791
vt 0.96647 0.17229
vt 0.96584 0.16794
vt 0.09466 0.86062
vt 0.10049 0.84306
vt 0.10286 0.84288
vt 0.55459 0.13267
vt 0.54744 0.12968
vt 0.55029 0.12374
vt 0.00860 0.38820
vt 0.00648 0.38247
vt 0.01233 0.38056
vt 0.91126 0.00475
vt 0.91115 0.00039
vt 0.91320 0.00423
vt 0.99322 0.46525
vt 0.99837 0.46525
vt 0.99543 0.46746
vt 0.97281 0.19844
vt 0.97182 0.20184
vt 0.96438 0.20143
vt 0.30365 0.84541
vt 0.31259 0.82945
vt 0.34307 0.83990
vt 0.63516 0.93605
vt 0.63476 0.93801
vt 0.63077 0.93624
vt 0.39441 0.08986
vt 0.40008 0.08583
vt 0.40008 0.08911
vt 0.53142 0.01605
vt 0.53229 0.01891
vt 0.52382 0.02162
vt 0.01233 0.38056
vt 0.01180 0.38886
vt 0.00860 0.38820
vt 0.00625 0.45682
vt 0.00625 0.45956
vt 0.00118 0.45867
vt 0.62595 0.93796
vt 0.61522 0.93897
vt 0.61859 0.93472
vt 0.88976 0.42809
vt 0.87784 0.42476
vt 0.89100 0.42491
vt 0.67935 0.00341
vt 0.67245 0.00341
vt 0.67928 0.00154
vt 0.63077 0.93624
vt 0.63476 0.93801
vt 0.62595 0.93796
vt 0.26375 0.92091
vt 0.26958 0.91598
vt 0.27203 0.92416
vt 0.32855 0.00780
vt 0.33235 0.00245
vt 0.33206 0.00776
vt 0.88236 0.42108
vt 0.89100 0.42491
vt 0.87784 0.42476
vt 0.28802 0.17547
vt 0.30103 0.16979
vt 0.31119 0.17234
vt 0.79297 0.73591
vt 0.78176 0.71719
vt 0.79517 0.73153
vt 0.39248 0.26644
vt 0.39570 0.26187
vt 0.39813 0.26400
vt 0.31430 0.89601
vt 0.31855 0.90648
vt 0.30933 0.90443
vt 0.91115 0.00039
vt 0.91302 0.00020
vt 0.91320 0.00423
vt 0.52382 0.02162
vt 0.52164 0.01549
vt 0.53141 0.01603
vt 0.29107 0.20105
vt 0.29944 0.20377
vt 0.29840 0.20766
vt 0.30454 0.21561
vt 0.29840 0.20766
vt 0.30477 0.21073
vt 0.04439 0.64037
vt 0.04170 0.65223
vt 0.03774 0.64253
vt 0.98506 0.04829
vt 0.97931 0.05038
vt 0.97941 0.04017
vt 0.28106 0.19706
vt 0.28772 0.21058
vt 0.27909 0.21543
vt 0.28106 0.19706
vt 0.29107 0.20105
vt 0.28772 0.21058
vt 0.78935 0.73725
vt 0.78175 0.71719
vt 0.79297 0.73591
vt 0.29107 0.20105
vt 0.29840 0.20766
vt 0.30454 0.21561
vt 0.15716 0.20607
vt 0.13573 0.20674
vt 0.13840 0.18670
vt 0.78935 0.73725
vt 0.79297 0.73591
vt 0.79312 0.73958
vt 0.29205 0.16738
vt 0.30272 0.16298
vt 0.30103 0.16979
vt 0.81543 0.87571
vt 0.83777 0.85832
vt 0.83849 0.87662
vt 0.29107 0.20105
vt 0.30454 0.21561
vt 0.28772 0.21058
vt 0.56248 0.96840
vt 0.55633 0.96863
vt 0.55853 0.96042
vt 0.72919 0.11023
vt 0.71236 0.11023
vt 0.71168 0.10897
vt 0.73596 0.25389
vt 0.76428 0.25389
vt 0.75774 0.26071
vt 0.00888 0.74813
vt 0.00204 0.74164
vt 0.00766 0.74124
vt 0.29205 0.16738
vt 0.29886 0.16058
vt 0.30272 0.16298
vt 0.39441 0.08986
vt 0.40014 0.08146
vt 0.40008 0.08583
vt 0.27946 0.00617
vt 0.28379 0.01214
vt 0.27929 0.01141
vt 0.13840 0.18670
vt 0.13573 0.20674
vt 0.13312 0.19774
vt 0.04787 0.99307
vt 0.04115 0.99694
vt 0.03625 0.99267
vt 0.55064 0.96150
vt 0.55853 0.96042
vt 0.55633 0.96863
vt 0.39441 0.08986
vt 0.39631 0.08085
vt 0.40014 0.08146
vt 0.82886 0.85816
vt 0.83777 0.85832
vt 0.81543 0.87571
vt 0.90964 0.76513
vt 0.90655 0.77922
vt 0.89674 0.76952
vt 0.00888 0.74813
vt 0.00201 0.74675
vt 0.00204 0.74164
vt 0.55352 0.00392
vt 0.54692 0.00392
vt 0.54708 0.00251
vt 0.98506 0.04829
vt 0.97941 0.04017
vt 0.98444 0.03918
vt 0.52116 0.92109
vt 0.52429 0.92193
vt 0.52046 0.92469
vt 0.99129 0.44265
vt 0.99346 0.43860
vt 0.99769 0.43897
vt 0.27909 0.21543
vt 0.27939 0.20014
vt 0.28106 0.19706
vt 0.54680 0.96256
vt 0.54292 0.96012
vt 0.55064 0.96150
vt 0.78522 0.61194
vt 0.78497 0.60670
vt 0.79561 0.60482
vt 0.99507 0.50652
vt 0.99883 0.50159
vt 0.99899 0.50583
vt 0.29205 0.16738
vt 0.29234 0.16001
vt 0.29886 0.16058
vt 0.69912 0.20625
vt 0.67347 0.20625
vt 0.68575 0.19603
vt 0.99537 0.50140
vt 0.99883 0.50159
vt 0.99507 0.50652
vt 0.79561 0.60482
vt 0.80303 0.62118
vt 0.78522 0.61194
vt 0.99769 0.43897
vt 0.99782 0.44227
vt 0.99129 0.44265
vt 0.36091 0.04273
vt 0.37081 0.03615
vt 0.37096 0.04451
vt 0.18450 0.04001
vt 0.17226 0.04001
vt 0.18403 0.03768
vt 0.37081 0.03615
vt 0.36091 0.04273
vt 0.35887 0.04018
vt 0.31430 0.89601
vt 0.31407 0.88827
vt 0.31855 0.90648
vt 0.95191 0.97827
vt 0.94773 0.98551
vt 0.95173 0.97481
vt 0.51116 0.92284
vt 0.49946 0.93316
vt 0.50001 0.91840
vt 0.86603 0.40128
vt 0.86603 0.38051
vt 0.87964 0.40061
vt 0.54292 0.96012
vt 0.55853 0.96042
vt 0.55064 0.96150
vt 0.99373 0.64677
vt 0.99884 0.64686
vt 0.99845 0.65139
vt 0.95173 0.97481
vt 0.94715 0.97144
vt 0.95032 0.97182
vt 0.02354 0.72826
vt 0.01406 0.72826
vt 0.02240 0.72399
vt 0.80303 0.62118
vt 0.78480 0.62755
vt 0.78522 0.61194
vt 0.80303 0.62118
vt 0.80299 0.62971
vt 0.78480 0.62755
vt 0.52381 0.93300
vt 0.51116 0.92284
vt 0.52046 0.92469
vt 0.99845 0.65139
vt 0.99525 0.65160
vt 0.99373 0.64677
vt 0.95173 0.97481
vt 0.94773 0.98551
vt 0.94715 0.97144
vt 0.72370 0.15059
vt 0.71938 0.15421
vt 0.70084 0.15070
vt 0.42270 0.09247
vt 0.43161 0.08021
vt 0.43431 0.08449
vt 0.52429 0.92193
vt 0.52381 0.93300
vt 0.52046 0.92469
vt 0.80623 0.78372
vt 0.79192 0.76403
vt 0.81372 0.76763
vt 0.51116 0.92284
vt 0.52381 0.93300
vt 0.49946 0.93316
vt 0.28823 0.29236
vt 0.28823 0.29236
vt 0.28823 0.29236
vt 0.28823 0.29236
vt 0.28823 0.29236
vt 0.28823 0.29236
vt 0.28823 0.29236
vt 0.28823 0.29236
vt 0.28823 0.29236
vt 0.28823 0.29236
vt 0.28823 0.29236
vt 0.28823 0.29236
vt 0.28823 0.29236
vt 0.28823 0.29236
vt 0.28823 0.29236
vt 0.28823 0.29236
vt 0.28823 0.29236
vt 0.28823 0.29236
vt 0.28823 0.29236
vt 0.28823 0.29236
vt 0.28823 0.29236
vt 0.28823 0.29236
vt 0.28823 0.29236
vt 0.28823 0.29236
vt 0.28823 0.29236
vt 0.28823 0.29236
vt 0.28823 0.29236
vt 0.28823 0.29236
vt 0.28823 0.29236
vt 0.28823 0.29236
vt 0.28823 0.29236
vt 0.45030 0.94766
vt 0.45030 0.94766
vt 0.45030 0.94766
vt 0.45030 0.94766
vt 0.45030 0.94766
vt 0.45030 0.94766
vt 0.45030 0.94766
vt 0.45030 0.94766
vt 0.45030 0.94766
vt 0.45030 0.94766
vt 0.45030 0.94766
vt 0.45030 0.94766
vt 0.45030 0.94766
vt 0.45030 0.94766
vt 0.45030 0.94766
vt 0.45030 0.94766
vt 0.45030 0.94766
vt 0.45030 0.94766
vt 0.45030 0.94766
vt 0.45030 0.94766
vt 0.45030 0.94766
vt 0.45030 0.94766
vt 0.45030 0.94766
vt 0.45030 0.94766
vt 0.45030 0.94766
vt 0.45030 0.94766
vt 0.45030 0.94766
vt 0.75577 0.74220
vt 0.75577 0.74220
vt 0.75577 0.74220
vt 0.75577 0.74220
vn 0.7131 0.2381 -0.6594
vn 0.7450 0.6152 -0.2579
vn 0.6779 -0.0980 0.7286
vn 0.9868 0.1321 0.0937
vn 0.9406 -0.1597 -0.2995
vn 0.7131 0.2381 -0.6594
vn 0.6290 -0.5731 -0.5253
vn 0.7972 -0.5996 -0.0696
vn 0.3782 -0.8970 -0.2289
vn 0.7450 0.6152 -0.2579
vn 0.7131 0.2381 -0.6594
vn 0.6704 0.7065 0.2266
vn 0.7131 0.2381 -0.6594
vn 0.8691 0.2464 -0.4289
vn 0.6704 0.7065 0.2266
vn 0.9868 0.1321 0.0937
vn 0.6290 -0.5731 -0.5253
vn 0.9406 -0.1597 -0.2995
vn 0.2718 -0.9281 -0.2546
vn 0.6290 -0.5731 -0.5253
vn 0.3782 -0.8970 -0.2289
vn 0.7131 0.2381 -0.6594
vn 0.9406 -0.1597 -0.2995
vn 0.8691 0.2464 -0.4289
vn 0.7450 0.6152 -0.2579
vn 0.6704 0.7065 0.2266
vn 0.4512 0.6857 -0.5712
vn 0.7019 0.3802 0.6023
vn 0.6704 0.7065 0.2266
vn 0.8691 0.2464 -0.4289
vn 0.7019 0.3802 0.6023
vn 0.8691 0.2464 -0.4289
vn 0.7419 0.3465 -0.5740
vn 0.5790 0.5810 -0.5721
vn 0.7450 0.6152 -0.2579
vn 0.4512 0.6857 -0.5712
vn 0.3799 0.6968 0.6085
vn 0.4512 0.6857 -0.5712
vn 0.6704 0.7065 0.2266
vn 0.6290 -0.5731 -0.5253
vn 0.2718 -0.9281 -0.2546
vn 0.9406 -0.1597 -0.2995
vn 0.7419 0.3465 -0.5740
vn 0.8691 0.2464 -0.4289
vn 0.9406 -0.1597 -0.2995
vn 0.2718 -0.9281 -0.2546
vn 0.7419 0.3465 -0.5740
vn 0.9406 -0.1597 -0.2995
vn 0.3799 0.6968 0.6085
vn 0.6704 0.7065 0.2266
vn 0.7019 0.3802 0.6023
vn 0.7419 0.3465 -0.5740
vn 0.2718 -0.9281 -0.2546
vn 0.5231 -0.6413 -0.5613
vn 0.7019 0.3802 0.6023
vn 0.7419 0.3465 -0.5740
vn 0.6492 0.7330 0.2033
vn 0.5231 -0.6413 -0.5613
vn 0.2718 -0.9281 -0.2546
vn 0.6365 -0.6728 -0.3772
vn 0.5790 0.5810 -0.5721
vn 0.4512 0.6857 -0.5712
vn 0.4466 0.7772 -0.4432
vn 0.5790 0.5810 -0.5721
vn 0.4466 0.7772 -0.4432
vn 0.6152 0.7389 -0.2750
vn 0.9259 0.3351 -0.1744
vn 0.6492 0.7330 0.2033
vn 0.7419 0.3465 -0.5740
vn 0.7144 -0.1474 -0.6840
vn 0.9259 0.3351 -0.1744
vn 0.7419 0.3465 -0.5740
vn 0.6878 0.5021 -0.5242
vn 0.9259 0.3351 -0.1744
vn 0.7144 -0.1474 -0.6840
vn 0.4512 0.6857 -0.5712
vn 0.3799 0.6968 0.6085
vn 0.4466 0.7772 -0.4432
vn 0.6878 0.5021 -0.5242
vn 0.6492 0.7330 0.2033
vn 0.9259 0.3351 -0.1744
vn 0.6365 -0.6728 -0.3772
vn 0.2718 -0.9281 -0.2546
vn 0.6208 -0.4485 -0.6430
vn 0.1188 0.8196 0.5605
vn 0.6492 0.7330 0.2033
vn 0.2249 0.7868 0.5748
vn 0.7019 0.3802 0.6023
vn 0.1188 0.8196 0.5605
vn 0.3799 0.6968 0.6085
vn 0.6317 0.6905 0.3525
vn 0.6492 0.7330 0.2033
vn 0.6878 0.5021 -0.5242
vn 0.9628 0.2631 -0.0614
vn 0.5455 0.4588 -0.7013
vn 0.6878 0.5021 -0.5242
vn 0.6317 0.6905 0.3525
vn 0.2249 0.7868 0.5748
vn 0.6492 0.7330 0.2033
vn 0.4466 0.7772 -0.4432
vn 0.3799 0.6968 0.6085
vn 0.2063 0.8585 -0.4695
vn 0.2063 0.8585 -0.4695
vn 0.3799 0.6968 0.6085
vn 0.2225 0.9629 -0.1528
vn 0.2718 -0.9281 -0.2546
vn 0.3782 -0.8970 -0.2289
vn 0.4480 -0.6933 -0.5645
vn 0.1188 0.8196 0.5605
vn 0.2225 0.9629 -0.1528
vn 0.3799 0.6968 0.6085
vn 0.9628 0.2631 -0.0614
vn 0.2963 0.9363 -0.1885
vn 0.5455 0.4588 -0.7013
vn 0.6492 0.7330 0.2033
vn 0.1188 0.8196 0.5605
vn 0.7019 0.3802 0.6023
vn 0.3782 -0.8970 -0.2289
vn 0.4001 -0.7010 -0.5903
vn 0.4480 -0.6933 -0.5645
vn 0.4001 -0.7010 -0.5903
vn 0.3782 -0.8970 -0.2289
vn 0.6085 -0.7868 -0.1035
vn 0.2249 0.7868 0.5748
vn 0.6317 0.6905 0.3525
vn -0.0819 0.9179 0.3882
vn 0.4480 -0.6933 -0.5645
vn 0.2733 -0.9388 -0.2097
vn 0.2718 -0.9281 -0.2546
vn 0.6317 0.6905 0.3525
vn 0.6878 0.5021 -0.5242
vn -0.0819 0.9179 0.3882
vn 0.2718 -0.9281 -0.2546
vn 0.2733 -0.9388 -0.2097
vn 0.6208 -0.4485 -0.6430
vn 0.6152 0.7389 -0.2750
vn 0.4466 0.7772 -0.4432
vn 0.2063 0.8585 -0.4695
vn 0.5455 0.4588 -0.7013
vn -0.7132 0.6846 0.1503
vn 0.6878 0.5021 -0.5242
vn 0.5455 0.4588 -0.7013
vn 0.2963 0.9363 -0.1885
vn -0.7132 0.6846 0.1503
vn -0.7132 0.6846 0.1503
vn 0.2963 0.9363 -0.1885
vn -0.7720 0.6352 0.0227
vn 0.1188 0.8196 0.5605
vn 0.2249 0.7868 0.5748
vn -0.0172 0.9196 0.3926
vn 0.1188 0.8196 0.5605
vn -0.0172 0.9196 0.3926
vn 0.5432 0.8394 0.0207
vn -0.7720 0.6352 0.0227
vn 0.2963 0.9363 -0.1885
vn 0.3872 0.4646 -0.7964
vn 0.2887 0.9568 0.0335
vn 0.0418 0.5136 -0.8570
vn 0.6152 0.7389 -0.2750
vn 0.1188 0.8196 0.5605
vn 0.5432 0.8394 0.0207
vn 0.2225 0.9629 -0.1528
vn 0.2063 0.8585 -0.4695
vn 0.5813 0.7874 -0.2052
vn 0.6152 0.7389 -0.2750
vn 0.2063 0.8585 -0.4695
vn 0.2225 0.9629 -0.1528
vn 0.5813 0.7874 -0.2052
vn 0.6152 0.7389 -0.2750
vn 0.3373 0.9084 0.2470
vn 0.2887 0.9568 0.0335
vn 0.6878 0.5021 -0.5242
vn -0.3304 0.7196 -0.6107
vn -0.0819 0.9179 0.3882
vn 0.4903 -0.8249 0.2814
vn 0.6208 -0.4485 -0.6430
vn 0.2733 -0.9388 -0.2097
vn 0.4001 -0.7010 -0.5903
vn 0.2371 -0.5789 -0.7801
vn 0.4480 -0.6933 -0.5645
vn 0.2225 0.9629 -0.1528
vn 0.5432 0.8394 0.0207
vn 0.5813 0.7874 -0.2052
vn 0.0418 0.5136 -0.8570
vn 0.2887 0.9568 0.0335
vn -0.6358 0.3823 0.6705
vn 0.5813 0.7874 -0.2052
vn 0.3373 0.9084 0.2470
vn 0.6152 0.7389 -0.2750
vn 0.7037 0.6137 -0.3579
vn -0.0172 0.9196 0.3926
vn 0.2249 0.7868 0.5748
vn -0.7132 0.6846 0.1503
vn -0.3304 0.7196 -0.6107
vn 0.6878 0.5021 -0.5242
vn 0.2371 -0.5789 -0.7801
vn 0.2733 -0.9388 -0.2097
vn 0.4480 -0.6933 -0.5645
vn 0.5432 0.8394 0.0207
vn 0.7037 0.6137 -0.3579
vn 0.5813 0.7874 -0.2052
vn -0.0172 0.9196 0.3926
vn 0.7037 0.6137 -0.3579
vn 0.5432 0.8394 0.0207
vn 0.2555 -0.6964 -0.6706
vn 0.2733 -0.9388 -0.2097
vn 0.2371 -0.5789 -0.7801
vn 0.2733 -0.9388 -0.2097
vn 0.2555 -0.6964 -0.6706
vn -0.2521 -0.8628 -0.4383
vn 0.5813 0.7874 -0.2052
vn 0.7037 0.6137 -0.3579
vn 0.2823 0.6546 -0.7013
vn 0.7328 0.5517 0.3983
vn -0.4847 0.8341 0.2632
vn 0.5710 0.8185 0.0626
vn -0.2626 0.2370 0.9353
vn -0.6629 -0.1954 0.7228
vn -0.6576 -0.2875 0.6963
vn 0.4903 -0.8249 0.2814
vn 0.7211 -0.5734 0.3890
vn 0.6208 -0.4485 -0.6430
vn 0.2823 0.6546 -0.7013
vn 0.3373 0.9084 0.2470
vn 0.5813 0.7874 -0.2052
vn -0.0011 0.5475 0.8368
vn -0.8121 0.2394 0.5322
vn -0.2626 0.2370 0.9353
vn -0.6576 -0.2875 0.6963
vn -0.6629 -0.1954 0.7228
vn -0.4847 0.8341 0.2632
vn 0.6208 -0.4485 -0.6430
vn 0.7211 -0.5734 0.3890
vn 0.6365 -0.6728 -0.3772
vn 0.6365 -0.6728 -0.3772
vn 0.7211 -0.5734 0.3890
vn 0.7811 -0.6240 -0.0223
vn -0.4847 0.8341 0.2632
vn 0.1490 0.8725 0.4654
vn 0.5710 0.8185 0.0626
vn 0.2733 -0.9388 -0.2097
vn -0.2521 -0.8628 -0.4383
vn 0.4903 -0.8249 0.2814
vn 0.6085 -0.7868 -0.1035
vn -0.3412 -0.6251 -0.7020
vn 0.4001 -0.7010 -0.5903
vn 0.7037 0.6137 -0.3579
vn 0.2249 0.7868 0.5748
vn -0.2660 0.7216 -0.6392
vn -0.0110 0.9956 0.0930
vn -0.4847 0.8341 0.2632
vn -0.7582 0.2983 0.5798
vn -0.7720 0.6352 0.0227
vn -0.3382 0.7597 -0.5554
vn -0.7132 0.6846 0.1503
vn 0.4001 -0.7010 -0.5903
vn -0.3412 -0.6251 -0.7020
vn -0.4289 -0.6734 -0.6021
vn -0.7582 0.2983 0.5798
vn -0.4847 0.8341 0.2632
vn -0.6629 -0.1954 0.7228
vn -0.3351 -0.6617 0.6707
vn 0.2732 -0.6861 0.6743
vn -0.4690 -0.2629 0.8431
vn -0.1231 -0.5181 0.8464
vn -0.1311 -0.7624 0.6336
vn 0.7017 -0.4064 0.5852
vn -0.3412 -0.6251 -0.7020
vn 0.6085 -0.7868 -0.1035
vn -0.1893 -0.8500 -0.4916
vn -0.3205 -0.8953 0.3093
vn 0.7211 -0.5734 0.3890
vn 0.4903 -0.8249 0.2814
vn -0.3382 0.7597 -0.5554
vn -0.7720 0.6352 0.0227
vn -0.4765 -0.2318 -0.8481
vn 0.1760 -0.8171 0.5489
vn -0.3351 -0.6617 0.6707
vn -0.3303 -0.4278 0.8414
vn 0.7037 0.6137 -0.3579
vn -0.2660 0.7216 -0.6392
vn 0.2823 0.6546 -0.7013
vn -0.7132 0.6846 0.1503
vn -0.3382 0.7597 -0.5554
vn -0.3304 0.7196 -0.6107
vn 0.1379 0.9889 0.0556
vn -0.3382 0.7597 -0.5554
vn -0.4765 -0.2318 -0.8481
vn -0.2348 -0.7996 0.5527
vn -0.1231 -0.5181 0.8464
vn 0.7017 -0.4064 0.5852
vn -0.0110 0.9956 0.0930
vn -0.7582 0.2983 0.5798
vn 0.2337 0.9654 0.1158
vn -0.6358 0.3823 0.6705
vn 0.2887 0.9568 0.0335
vn 0.3373 0.9084 0.2470
vn 0.4057 0.6754 0.6158
vn 0.5710 0.8185 0.0626
vn -0.3793 0.5586 0.7376
vn -0.7582 0.2983 0.5798
vn -0.6358 0.3823 0.6705
vn 0.2337 0.9654 0.1158
vn -0.3304 0.7196 -0.6107
vn -0.3382 0.7597 -0.5554
vn -0.1142 0.5441 -0.8312
vn 0.1490 0.8725 0.4654
vn -0.3793 0.5586 0.7376
vn 0.5710 0.8185 0.0626
vn 0.3373 0.9084 0.2470
vn -0.2719 0.6935 0.6672
vn -0.6358 0.3823 0.6705
vn -0.3382 0.7597 -0.5554
vn 0.1379 0.9889 0.0556
vn -0.1142 0.5441 -0.8312
vn -0.8121 0.2394 0.5322
vn -0.6629 -0.1954 0.7228
vn -0.2626 0.2370 0.9353
vn -0.3351 -0.6617 0.6707
vn -0.6429 -0.3995 0.6536
vn -0.3303 -0.4278 0.8414
vn -0.3351 -0.6617 0.6707
vn -0.4690 -0.2629 0.8431
vn -0.6429 -0.3995 0.6536
vn -0.3205 -0.8953 0.3093
vn 0.4903 -0.8249 0.2814
vn -0.2521 -0.8628 -0.4383
vn -0.2719 0.6935 0.6672
vn 0.2337 0.9654 0.1158
vn -0.6358 0.3823 0.6705
vn -0.4847 0.8341 0.2632
vn -0.0110 0.9956 0.0930
vn 0.1490 0.8725 0.4654
vn -0.6358 0.3823 0.6705
vn -0.7582 0.2983 0.5798
vn -0.6629 -0.1954 0.7228
vn 0.2555 -0.6964 -0.6706
vn 0.2371 -0.5789 -0.7801
vn -0.4224 -0.6412 -0.6406
vn -0.0819 0.9179 0.3882
vn -0.4508 0.7437 0.4936
vn 0.2249 0.7868 0.5748
vn -0.6635 -0.1206 0.7384
vn -0.6429 -0.3995 0.6536
vn -0.4690 -0.2629 0.8431
vn -0.0110 0.9956 0.0930
vn 0.2337 0.9654 0.1158
vn 0.1514 0.7203 -0.6769
vn -0.4289 -0.6734 -0.6021
vn 0.2371 -0.5789 -0.7801
vn 0.4001 -0.7010 -0.5903
vn 0.4057 0.6754 0.6158
vn -0.2601 -0.2727 0.9263
vn -0.4690 -0.2629 0.8431
vn 0.1760 -0.8171 0.5489
vn -0.3303 -0.4278 0.8414
vn -0.2348 -0.7996 0.5527
vn -0.4224 -0.6412 -0.6406
vn 0.2371 -0.5789 -0.7801
vn -0.3421 -0.9245 -0.1682
vn 0.2337 0.9654 0.1158
vn -0.5774 0.4674 -0.6694
vn 0.1514 0.7203 -0.6769
vn 0.2371 -0.5789 -0.7801
vn -0.4289 -0.6734 -0.6021
vn -0.3421 -0.9245 -0.1682
vn -0.2601 -0.2727 0.9263
vn -0.6635 -0.1206 0.7384
vn -0.4690 -0.2629 0.8431
vn -0.7287 -0.1166 0.6748
vn -0.3303 -0.4278 0.8414
vn -0.6429 -0.3995 0.6536
vn 0.2337 0.9654 0.1158
vn -0.2719 0.6935 0.6672
vn -0.5774 0.4674 -0.6694
vn -0.2348 -0.7996 0.5527
vn -0.3303 -0.4278 0.8414
vn -0.7287 -0.1166 0.6748
vn -0.7287 -0.1166 0.6748
vn -0.6429 -0.3995 0.6536
vn -0.6635 -0.1206 0.7384
vn -0.1893 -0.8500 -0.4916
vn 0.6412 -0.6023 0.4755
vn -0.1311 -0.7624 0.6336
vn 0.1490 0.8725 0.4654
vn -0.0110 0.9956 0.0930
vn 0.1514 0.7203 -0.6769
vn -0.3010 -0.8192 0.4882
vn 0.7211 -0.5734 0.3890
vn -0.3205 -0.8953 0.3093
vn -0.2601 -0.2727 0.9263
vn -0.3399 -0.5064 0.7925
vn -0.6635 -0.1206 0.7384
vn -0.1231 -0.5181 0.8464
vn -0.6239 -0.3464 0.7005
vn -0.1311 -0.7624 0.6336
vn -0.2521 -0.8628 -0.4383
vn 0.2555 -0.6964 -0.6706
vn -0.4224 -0.6412 -0.6406
vn -0.2601 -0.2727 0.9263
vn 0.4057 0.6754 0.6158
vn -0.7138 0.1041 0.6926
vn -0.6635 -0.1206 0.7384
vn -0.3399 -0.5064 0.7925
vn -0.6959 -0.0770 0.7140
vn -0.4405 -0.6893 -0.5752
vn -0.4289 -0.6734 -0.6021
vn -0.3412 -0.6251 -0.7020
vn -0.3421 -0.9245 -0.1682
vn -0.6363 -0.6648 -0.3914
vn -0.4224 -0.6412 -0.6406
vn -0.8244 0.2928 -0.4843
vn 0.1514 0.7203 -0.6769
vn -0.5774 0.4674 -0.6694
vn -0.3399 -0.5064 0.7925
vn -0.2601 -0.2727 0.9263
vn -0.6647 -0.5399 0.5165
vn -0.7333 -0.4610 -0.4998
vn -0.4405 -0.6893 -0.5752
vn -0.3412 -0.6251 -0.7020
vn 0.3930 -0.5756 -0.7172
vn 0.7211 -0.5734 0.3890
vn -0.3010 -0.8192 0.4882
vn -0.7483 -0.0095 -0.6633
vn -0.6358 0.3823 0.6705
vn -0.6629 -0.1954 0.7228
vn -0.6239 -0.3464 0.7005
vn -0.1231 -0.5181 0.8464
vn -0.6205 -0.4070 0.6703
vn -0.7138 0.1041 0.6926
vn -0.3819 -0.5232 0.7618
vn -0.2601 -0.2727 0.9263
vn -0.7287 -0.1166 0.6748
vn -0.6635 -0.1206 0.7384
vn -0.6959 -0.0770 0.7140
vn -0.1632 0.8418 0.5145
vn -0.3793 0.5586 0.7376
vn -0.7138 0.1041 0.6926
vn -0.1893 -0.8500 -0.4916
vn -0.7333 -0.4610 -0.4998
vn -0.3412 -0.6251 -0.7020
vn -0.1142 0.5441 -0.8312
vn -0.7978 0.0571 -0.6002
vn -0.3304 0.7196 -0.6107
vn 0.1514 0.7203 -0.6769
vn -0.8244 0.2928 -0.4843
vn 0.1490 0.8725 0.4654
vn -0.6959 -0.0770 0.7140
vn -0.3399 -0.5064 0.7925
vn -0.6647 -0.5399 0.5165
vn -0.4224 -0.6412 -0.6406
vn -0.6363 -0.6648 -0.3914
vn -0.2521 -0.8628 -0.4383
vn -0.6647 -0.5399 0.5165
vn -0.3649 -0.3684 0.8551
vn -0.6959 -0.0770 0.7140
vn -0.4405 -0.6893 -0.5752
vn -0.3421 -0.9245 -0.1682
vn -0.4289 -0.6734 -0.6021
vn -0.2601 -0.2727 0.9263
vn -0.3819 -0.5232 0.7618
vn -0.6647 -0.5399 0.5165
vn -0.1893 -0.8500 -0.4916
vn -0.1311 -0.7624 0.6336
vn -0.7333 -0.4610 -0.4998
vn -0.6205 -0.4070 0.6703
vn -0.7287 -0.1166 0.6748
vn -0.6959 -0.0770 0.7140
vn 0.1490 0.8725 0.4654
vn -0.8244 0.2928 -0.4843
vn -0.7715 0.4203 0.4777
vn -0.6425 -0.6264 -0.4413
vn -0.6363 -0.6648 -0.3914
vn -0.3421 -0.9245 -0.1682
vn -0.6959 -0.0770 0.7140
vn -0.3649 -0.3684 0.8551
vn -0.4987 -0.6672 0.5532
vn -0.1142 0.5441 -0.8312
vn 0.1379 0.9889 0.0556
vn -0.7742 0.6073 0.1782
vn -0.7287 -0.1166 0.6748
vn -0.1231 -0.5181 0.8464
vn -0.2348 -0.7996 0.5527
vn -0.6959 -0.0770 0.7140
vn -0.2548 -0.4157 0.8731
vn -0.6205 -0.4070 0.6703
vn -0.1142 0.5441 -0.8312
vn -0.7742 0.6073 0.1782
vn -0.7978 0.0571 -0.6002
vn -0.3649 -0.3684 0.8551
vn -0.6647 -0.5399 0.5165
vn -0.4987 -0.6672 0.5532
vn -0.6363 -0.6648 -0.3914
vn -0.8818 -0.3872 -0.2692
vn -0.2521 -0.8628 -0.4383
vn -0.7287 -0.1166 0.6748
vn -0.6205 -0.4070 0.6703
vn -0.1231 -0.5181 0.8464
vn -0.3793 0.5586 0.7376
vn -0.7614 -0.0797 0.6434
vn -0.7244 0.5157 0.4575
vn -0.6959 -0.0770 0.7140
vn -0.4987 -0.6672 0.5532
vn -0.2548 -0.4157 0.8731
vn 0.2823 0.6546 -0.7013
vn -0.2660 0.7216 -0.6392
vn -0.6390 0.7136 -0.2870
vn -0.4405 -0.6893 -0.5752
vn -0.7230 -0.6900 0.0331
vn -0.3421 -0.9245 -0.1682
vn 0.1379 0.9889 0.0556
vn -0.7395 0.1814 -0.6483
vn -0.7742 0.6073 0.1782
vn -0.7715 0.4203 0.4777
vn -0.3793 0.5586 0.7376
vn 0.1490 0.8725 0.4654
vn -0.2660 0.7216 -0.6392
vn -0.6083 0.7296 0.3127
vn -0.6390 0.7136 -0.2870
vn -0.3192 0.6764 -0.6637
vn -0.0294 0.3129 -0.9493
vn -0.7978 0.0571 -0.6002
vn -0.0819 0.9179 0.3882
vn -0.3304 0.7196 -0.6107
vn -0.4508 0.7437 0.4936
vn -0.9455 0.1690 -0.2782
vn -0.4987 -0.6672 0.5532
vn -0.6647 -0.5399 0.5165
vn -0.4987 -0.6672 0.5532
vn -0.9455 0.1690 -0.2782
vn -0.7244 0.5157 0.4575
vn -0.3793 0.5586 0.7376
vn -0.7244 0.5157 0.4575
vn -0.7138 0.1041 0.6926
vn -0.6239 -0.3464 0.7005
vn -0.7333 -0.4610 -0.4998
vn -0.1311 -0.7624 0.6336
vn -0.4405 -0.6893 -0.5752
vn -0.7333 -0.4610 -0.4998
vn -0.4082 -0.8528 -0.3257
vn -0.5865 -0.5831 0.5621
vn -0.6239 -0.3464 0.7005
vn -0.6205 -0.4070 0.6703
vn -0.7138 0.1041 0.6926
vn -0.6647 -0.5399 0.5165
vn -0.3819 -0.5232 0.7618
vn -0.6239 -0.3464 0.7005
vn -0.5865 -0.5831 0.5621
vn -0.8955 -0.3184 0.3109
vn -0.4082 -0.8528 -0.3257
vn -0.7230 -0.6900 0.0331
vn -0.4405 -0.6893 -0.5752
vn -0.2660 0.7216 -0.6392
vn 0.2249 0.7868 0.5748
vn -0.6083 0.7296 0.3127
vn -0.2719 0.6935 0.6672
vn 0.3373 0.9084 0.2470
vn -0.7106 0.4713 0.5224
vn -0.6239 -0.3464 0.7005
vn -0.8955 -0.3184 0.3109
vn -0.7333 -0.4610 -0.4998
vn -0.3010 -0.8192 0.4882
vn -0.3205 -0.8953 0.3093
vn -0.7586 -0.6500 -0.0449
vn -0.3010 -0.8192 0.4882
vn -0.7586 -0.6500 -0.0449
vn -0.7451 -0.5688 0.3482
vn -0.7138 0.1041 0.6926
vn -0.9455 0.1690 -0.2782
vn -0.6647 -0.5399 0.5165
vn -0.6390 0.7136 -0.2870
vn 0.3373 0.9084 0.2470
vn 0.2823 0.6546 -0.7013
vn -0.6205 -0.4070 0.6703
vn -0.4920 -0.7172 0.4935
vn -0.5865 -0.5831 0.5621
vn -0.2548 -0.4157 0.8731
vn -0.4987 -0.6672 0.5532
vn -0.6501 -0.3013 0.6975
vn -0.7333 -0.4610 -0.4998
vn -0.8955 -0.3184 0.3109
vn -0.4082 -0.8528 -0.3257
vn 0.2249 0.7868 0.5748
vn -0.4508 0.7437 0.4936
vn -0.6083 0.7296 0.3127
vn -0.4773 0.8487 -0.2277
vn -0.7978 0.0571 -0.6002
vn -0.7742 0.6073 0.1782
vn -0.7156 0.3572 0.6003
vn -0.8643 0.2278 -0.4485
vn -0.6390 0.7136 -0.2870
vn -0.8955 -0.3184 0.3109
vn -0.5865 -0.5831 0.5621
vn -0.6898 -0.5501 0.4706
vn -0.6501 -0.3013 0.6975
vn -0.6205 -0.4070 0.6703
vn -0.2548 -0.4157 0.8731
vn -0.7244 0.5157 0.4575
vn -0.9455 0.1690 -0.2782
vn -0.7138 0.1041 0.6926
vn -0.6629 -0.1954 0.7228
vn -0.8121 0.2394 0.5322
vn -0.7483 -0.0095 -0.6633
vn -0.8955 -0.3184 0.3109
vn -0.6898 -0.5501 0.4706
vn -0.4082 -0.8528 -0.3257
vn -0.8818 -0.3872 -0.2692
vn -0.3205 -0.8953 0.3093
vn -0.2521 -0.8628 -0.4383
vn -0.5774 0.4674 -0.6694
vn -0.2719 0.6935 0.6672
vn -0.9627 0.0590 0.2640
vn -0.6390 0.7136 -0.2870
vn -0.6083 0.7296 0.3127
vn -0.7156 0.3572 0.6003
vn -0.4920 -0.7172 0.4935
vn -0.6205 -0.4070 0.6703
vn -0.6501 -0.3013 0.6975
vn -0.7230 -0.6900 0.0331
vn -0.6425 -0.6264 -0.4413
vn -0.3421 -0.9245 -0.1682
vn -0.4987 -0.6672 0.5532
vn -0.7244 0.5157 0.4575
vn -0.6501 -0.3013 0.6975
vn -0.5865 -0.5831 0.5621
vn -0.4920 -0.7172 0.4935
vn -0.9525 -0.1825 0.2437
vn -0.4082 -0.8528 -0.3257
vn -0.6898 -0.5501 0.4706
vn -0.7230 -0.6900 0.0331
vn -0.2719 0.6935 0.6672
vn -0.7106 0.4713 0.5224
vn -0.9627 0.0590 0.2640
vn -0.8818 -0.3872 -0.2692
vn -0.6363 -0.6648 -0.3914
vn -0.6425 -0.6264 -0.4413
vn -0.7614 -0.0797 0.6434
vn -0.6501 -0.3013 0.6975
vn -0.7244 0.5157 0.4575
vn -0.3010 -0.8192 0.4882
vn -0.7451 -0.5688 0.3482
vn -0.0955 -0.9495 -0.2990
vn -0.0294 0.3129 -0.9493
vn -0.3304 0.7196 -0.6107
vn -0.7978 0.0571 -0.6002
vn 0.5252 0.7707 -0.3608
vn 0.0513 0.6175 -0.7849
vn -0.0294 0.3129 -0.9493
vn -0.8691 -0.0574 -0.4914
vn -0.8244 0.2928 -0.4843
vn -0.5774 0.4674 -0.6694
vn -0.5865 -0.5831 0.5621
vn -0.9525 -0.1825 0.2437
vn -0.6898 -0.5501 0.4706
vn -0.9627 0.0590 0.2640
vn -0.8691 -0.0574 -0.4914
vn -0.5774 0.4674 -0.6694
vn -0.7230 -0.6900 0.0331
vn -0.6898 -0.5501 0.4706
vn -0.9525 -0.1825 0.2437
vn -0.6501 -0.3013 0.6975
vn -0.9525 -0.1825 0.2437
vn -0.4920 -0.7172 0.4935
vn -0.5097 -0.5160 0.6884
vn -0.0955 -0.9495 -0.2990
vn -0.7451 -0.5688 0.3482
vn -0.8643 0.2278 -0.4485
vn -0.7156 0.3572 0.6003
vn -0.6662 0.2421 0.7054
vn -0.6425 -0.6264 -0.4413
vn -0.9290 -0.3393 -0.1477
vn -0.9627 0.0590 0.2640
vn -0.6425 -0.6264 -0.4413
vn -0.7230 -0.6900 0.0331
vn -0.9290 -0.3393 -0.1477
vn -0.6692 0.3619 -0.6490
vn -0.3304 0.7196 -0.6107
vn -0.0294 0.3129 -0.9493
vn -0.7230 -0.6900 0.0331
vn -0.9525 -0.1825 0.2437
vn -0.6501 -0.3013 0.6975
vn -0.3304 0.7196 -0.6107
vn -0.6692 0.3619 -0.6490
vn -0.4508 0.7437 0.4936
vn -0.6692 0.3619 -0.6490
vn -0.0294 0.3129 -0.9493
vn -0.6356 0.6490 -0.4181
vn -0.7586 -0.6500 -0.0449
vn -0.4255 -0.6313 0.6484
vn -0.7451 -0.5688 0.3482
vn 0.3373 0.9084 0.2470
vn -0.8133 0.2796 -0.5102
vn -0.7106 0.4713 0.5224
vn -0.7230 -0.6900 0.0331
vn -0.6501 -0.3013 0.6975
vn -0.9290 -0.3393 -0.1477
vn -0.6390 0.7136 -0.2870
vn -0.8643 0.2278 -0.4485
vn -0.8133 0.2796 -0.5102
vn -0.6501 -0.3013 0.6975
vn -0.7153 -0.6379 -0.2852
vn -0.9290 -0.3393 -0.1477
vn -0.8244 0.2928 -0.4843
vn -0.6501 -0.3013 0.6975
vn -0.7614 -0.0797 0.6434
vn -0.7451 -0.5688 0.3482
vn -0.8330 -0.3146 0.4551
vn -0.5097 -0.5160 0.6884
vn -0.7586 -0.6500 -0.0449
vn -0.5911 -0.6387 0.4926
vn -0.4255 -0.6313 0.6484
vn -0.8818 -0.3872 -0.2692
vn -0.7586 -0.6500 -0.0449
vn -0.3205 -0.8953 0.3093
vn -0.9691 -0.2294 -0.0908
vn -0.7586 -0.6500 -0.0449
vn -0.6690 -0.5912 -0.4505
vn -0.4508 0.7437 0.4936
vn -0.6692 0.3619 -0.6490
vn -0.6239 0.7659 -0.1556
vn -0.9290 -0.3393 -0.1477
vn -0.8691 -0.0574 -0.4914
vn -0.9627 0.0590 0.2640
vn -0.8139 -0.0136 -0.5809
vn -0.8133 0.2796 -0.5102
vn -0.8643 0.2278 -0.4485
vn -0.8818 -0.3872 -0.2692
vn -0.6690 -0.5912 -0.4505
vn -0.7586 -0.6500 -0.0449
vn -0.6390 0.7136 -0.2870
vn -0.8133 0.2796 -0.5102
vn 0.3373 0.9084 0.2470
vn -0.7614 -0.0797 0.6434
vn -0.3793 0.5586 0.7376
vn -0.7715 0.4203 0.4777
vn -0.7451 -0.5688 0.3482
vn -0.4255 -0.6313 0.6484
vn -0.8330 -0.3146 0.4551
vn -0.8691 -0.0574 -0.4914
vn -0.9290 -0.3393 -0.1477
vn -0.7153 -0.6379 -0.2852
vn -0.8643 0.2278 -0.4485
vn -0.6662 0.2421 0.7054
vn -0.8139 -0.0136 -0.5809
vn -0.0294 0.3129 -0.9493
vn 0.0513 0.6175 -0.7849
vn -0.6356 0.6490 -0.4181
vn -0.9691 -0.2294 -0.0908
vn -0.9856 -0.0488 -0.1621
vn -0.7818 0.0127 0.6234
vn -0.9627 0.0590 0.2640
vn -0.8818 -0.3872 -0.2692
vn -0.6425 -0.6264 -0.4413
vn -0.9856 -0.0488 -0.1621
vn -0.9691 -0.2294 -0.0908
vn -0.8139 -0.0136 -0.5809
vn -0.9691 -0.2294 -0.0908
vn -0.6690 -0.5912 -0.4505
vn -0.8818 -0.3872 -0.2692
vn -0.8139 -0.0136 -0.5809
vn -0.7818 0.0127 0.6234
vn -0.9856 -0.0488 -0.1621
vn -0.7586 -0.6500 -0.0449
vn -0.9691 -0.2294 -0.0908
vn -0.5911 -0.6387 0.4926
vn -0.6501 -0.3013 0.6975
vn -0.8244 0.2928 -0.4843
vn -0.7153 -0.6379 -0.2852
vn -0.6662 0.2421 0.7054
vn -0.7818 0.0127 0.6234
vn -0.8139 -0.0136 -0.5809
vn -0.8818 -0.3872 -0.2692
vn -0.9627 0.0590 0.2640
vn -0.9691 -0.2294 -0.0908
vn -0.7818 0.0127 0.6234
vn -0.5911 -0.6387 0.4926
vn -0.9691 -0.2294 -0.0908
vn -0.7156 0.3572 0.6003
vn -0.7276 0.4750 0.4950
vn -0.6662 0.2421 0.7054
vn -0.4508 0.7437 0.4936
vn -0.6239 0.7659 -0.1556
vn -0.6083 0.7296 0.3127
vn -0.7276 0.4750 0.4950
vn -0.7156 0.3572 0.6003
vn -0.6083 0.7296 0.3127
vn -0.8691 -0.0574 -0.4914
vn -0.7153 -0.6379 -0.2852
vn -0.8244 0.2928 -0.4843
vn -0.6662 0.2421 0.7054
vn -0.7276 0.4750 0.4950
vn -0.7818 0.0127 0.6234
vn -0.6239 0.7659 -0.1556
vn -0.7276 0.4750 0.4950
vn -0.6083 0.7296 0.3127
vn -0.7715 0.4203 0.4777
vn -0.8244 0.2928 -0.4843
vn -0.7614 -0.0797 0.6434
vn -0.9691 -0.2294 -0.0908
vn -0.8133 0.2796 -0.5102
vn -0.8139 -0.0136 -0.5809
vn -0.8330 -0.3146 0.4551
vn -0.4255 -0.6313 0.6484
vn -0.5911 -0.6387 0.4926
vn -0.7818 0.0127 0.6234
vn -0.3422 -0.6496 0.6789
vn -0.5911 -0.6387 0.4926
vn -0.6356 0.6490 -0.4181
vn -0.6239 0.7659 -0.1556
vn -0.6692 0.3619 -0.6490
vn -0.9627 0.0590 0.2640
vn -0.8133 0.2796 -0.5102
vn -0.9691 -0.2294 -0.0908
vn -0.9627 0.0590 0.2640
vn -0.7106 0.4713 0.5224
vn -0.8133 0.2796 -0.5102
vn -0.7855 0.1380 -0.6032
vn -0.6239 0.7659 -0.1556
vn -0.6356 0.6490 -0.4181
vn -0.5911 -0.6387 0.4926
vn -0.3422 -0.6496 0.6789
vn -0.8330 -0.3146 0.4551
vn -0.7818 0.0127 0.6234
vn -0.7276 0.4750 0.4950
vn -0.3422 -0.6496 0.6789
vn -0.5097 -0.5160 0.6884
vn -0.8330 -0.3146 0.4551
vn -0.7855 0.1380 -0.6032
vn -0.7276 0.4750 0.4950
vn -0.8330 -0.3146 0.4551
vn -0.3422 -0.6496 0.6789
vn 0.0513 0.6175 -0.7849
vn -0.7855 0.1380 -0.6032
vn -0.6356 0.6490 -0.4181
vn -0.7276 0.4750 0.4950
vn -0.7855 0.1380 -0.6032
vn -0.8330 -0.3146 0.4551
vn -0.6239 0.7659 -0.1556
vn -0.7855 0.1380 -0.6032
vn -0.7276 0.4750 0.4950
vn 0.0000 1.0000 0.0000
vn 0.0000 1.0000 0.0000
vn 0.0000 1.0000 0.0000
vn 0.0000 1.0000 0.0000
vn 0.0000 1.0000 0.0000
vn 0.0000 1.0000 0.0000
vn 0.0000 1.0000 0.0000
vn 0.0000 1.0000 0.0000
vn 0.0000 1.0000 0.0000
vn 0.0000 1.0000 0.0000
vn 0.0000 1.0000 0.0000
vn 0.0000 1.0000 0.0000
vn 0.0000 1.0000 0.0000
vn 0.0000 1.0000 0.0000
vn 0.0000 1.0000 0.0000
vn 0.0000 1.0000 0.0000
vn 0.0000 1.0000 0.0000
vn 0.0000 1.0000 0.0000
vn 0.0000 1.0000 0.0000
vn 0.0000 1.0000 0.0000
vn 0.0000 1.0000 0.0000
vn 0.0000 1.0000 0.0000
vn 0.0000 1.0000 0.0000
vn 0.0000 1.0000 0.0000
vn 0.0000 1.0000 0.0000
vn 0.0000 1.0000 0.0000
vn 0.0000 1.0000 0.0000
vn 0.0000 1.0000 0.0000
vn 0.0000 1.0000 0.0000
vn 0.0000 1.0000 0.0000
vn 0.0000 1.0000 0.0000
vn 0.0000 1.0000 0.0000
vn 0.0000 1.0000 0.0000
vn 0.0000 1.0000 0.0000
vn 0.0000 1.0000 0.0000
vn 0.0000 1.0000 0.0000
vn 0.0000 1.0000 0.0000
vn 0.0000 1.0000 0.0000
vn 0.0000 1.0000 0.0000
vn 0.0000 1.0000 0.0000
vn 0.0000 1.0000 0.0000
vn 0.0000 1.0000 0.0000
vn 0.0000 1.0000 0.0000
vn 0.0000 1.0000 0.0000
vn 0.0000 1.0000 0.0000
vn 0.0000 1.0000 0.0000
vn 0.0000 1.0000 0.0000
vn 0.0000 1.0000 0.0000
vn 0.0000 1.0000 0.0000
vn 0.0000 1.0000 0.0000
vn 0.0000 1.0000 0.0000
vn 0.0000 1.0000 0.0000
vn 0.0000 1.0000 0.0000
vn 0.0000 1.0000 0.0000
vn 0.0000 1.0000 0.0000
vn 0.0000 1.0000 0.0000
vn 0.0000 1.0000 0.0000
vn 0.0000 1.0000 0.0000
vn 0.0000 1.0000 0.0000
vn 0.0000 1.0000 0.0000
vn 0.0000 1.0000 0.0000
vn 0.0000 1.0000 0.0000
f 1/1/1 2/2/2 3/3/3
f 4/4/4 5/5/5 6/6/6
f 7/7/7 8/8/8 9/9/9
f 10/10/10 11/11/11 12/12/12
f 13/13/13 14/14/14 15/15/15
f 16/16/16 17/17/17 18/18/18
f 19/19/19 20/20/20 21/21/21
f 22/22/22 23/23/23 24/24/24
f 25/25/25 26/26/26 27/27/27
f 28/28/28 29/29/29 30/30/30
f 31/31/31 32/32/32 33/33/33
f 34/34/34 35/35/35 36/36/36
f 37/37/37 38/38/38 39/39/39
f 40/40/40 41/41/41 42/42/42
f 43/43/43 44/44/44 45/45/45
f 46/46/46 47/47/47 48/48/48
f 49/49/49 50/50/50 51/51/51
f 52/52/52 53/53/53 54/54/54
f 55/55/55 56/56/56 57/57/57
f 58/58/58 59/59/59 60/60/60
f 61/61/61 62/62/62 63/63/63
f 64/64/64 65/65/65 66/66/66
f 67/67/67 68/68/68 69/69/69
f 70/70/70 71/71/71 72/72/72
f 73/73/73 74/74/74 75/75/75
f 76/76/76 77/77/77 78/78/78
f 79/79/79 80/80/80 81/81/81
f 82/82/82 83/83/83 84/84/84
f 85/85/85 86/86/86 87/87/87
f 88/88/88 89/89/89 90/90/90
f 91/91/91 92/92/92 93/93/93
f 94/94/94 95/95/95 96/96/96
f 97/97/97 98/98/98 99/99/99
f 100/100/100 101/101/101 102/102/102
f 103/103/103 104/104/104 105/105/105
f 106/106/106 107/107/107 108/108/108
f 109/109/109 110/110/110 111/111/111
f 112/112/112 113/113/113 114/114/114
f 115/115/115 116/116/116 117/117/117
f 118/118/118 119/119/119 120/120/120
f 121/121/121 122/122/122 123/123/123
f 124/124/124 125/125/125 126/126/126
f 127/127/127 128/128/128 129/129/129
f 130/130/130 131/131/131 132/132/132
f 133/133/133 134/134/134 135/135/135
f 136/136/136 137/137/137 138/138/138
f 139/139/139 140/140/140 141/141/141
f 142/142/142 143/143/143 144/144/144
f 145/145/145 146/146/146 147/147/147
f 148/148/148 149/149/149 150/150/150
f 151/151/151 152/152/152 153/153/153
f 154/154/154 155/155/155 156/156/156
f 157/157/157 158/158/158 159/159/159
f 160/160/160 161/161/161 162/162/162
f 163/163/163 164/164/164 165/165/165
f 166/166/166 167/167/167 168/168/168
f 169/169/169 170/170/170 171/171/171
f 172/172/172 173/173/173 174/174/174
f 175/175/175 176/176/176 177/177/177
f 178/178/178 179/179/179 180/180/180
f 181/181/181 182/182/182 183/183/183
f 184/184/184 185/185/185 186/186/186
f 187/187/187 188/188/188 189/189/189
f 190/190/190 191/191/191 192/192/192
f 193/193/193 194/194/194 195/195/195
f 196/196/196 197/197/197 198/198/198
f 199/199/199 200/200/200 201/201/201
f 202/202/202 203/203/203 204/204/204
f 205/205/205 206/206/206 207/207/207
f 208/208/208 209/209/209 210/210/210
f 211/211/211 212/212/212 213/213/213
f 214/214/214 215/215/215 216/216/216
f 217/217/217 218/218/218 219/219/219
f 220/220/220 221/221/221 222/222/222
f 223/223/223 224/224/224 225/225/225
f 226/226/226 227/227/227 228/228/228
f 229/229/229 230/230/230 231/231/231
f 232/232/232 233/233/233 234/234/234
f 235/235/235 236/236/236 237/237/237
f 238/238/238 239/239/239 240/240/240
f 241/241/241 242/242/242 243/243/243
f 244/244/244 245/245/245 246/246/246
f 247/247/247 248/248/248 249/249/249
f 250/250/250 251/251/251 252/252/252
f 253/253/253 254/254/254 255/255/255
f 256/256/256 257/257/257 258/258/258
f 259/259/259 260/260/260 261/261/261
f 262/262/262 263/263/263 264/264/264
f 265/265/265 266/266/266 267/267/267
f 268/268/268 269/269/269 270/270/270
f 271/271/271 272/272/272 273/273/273
f 274/274/274 275/275/275 276/276/276
f 277/277/277 278/278/278 279/279/279
f 280/280/280 281/281/281 282/282/282
f 283/283/283 284/284/284 285/285/285
f 286/286/286 287/287/287 288/288/288
f 289/289/289 290/290/290 291/291/291
f 292/292/292 293/293/293 294/294/294
f 295/295/295 296/296/296 297/297/297
f 298/298/298 299/299/299 300/300/300
f 301/301/301 302/302/302 303/303/303
f 304/304/304 305/305/305 306/306/306
f 307/307/307 308/308/308 309/309/309
f 310/310/310 311/311/311 312/312/312
f 313/313/313 314/314/314 315/315/315
f 316/316/316 317/317/317 318/318/318
f 319/319/319 320/320/320 321/321/321
f 322/322/322 323/323/323 324/324/324
f 325/325/325 326/326/326 327/327/327
f 328/328/328 329/329/329 330/330/330
f 331/331/331 332/332/332 333/333/333
f 334/334/334 335/335/335 336/336/336
f 337/337/337 338/338/338 339/339/339
f 340/340/340 341/341/341 342/342/342
f 343/343/343 344/344/344 345/345/345
f 346/346/346 347/347/347 348/348/348
f 349/349/349 350/350/350 351/351/351
f 352/352/352 353/353/353 354/354/354
f 355/355/355 356/356/356 357/357/357
f 358/358/358 359/359/359 360/360/360
f 361/361/361 362/362/362 363/363/363
f 364/364/364 365/365/365 366/366/366
f 367/367/367 368/368/368 369/369/369
f 370/370/370 371/371/371 372/372/372
f 373/373/373 374/374/374 375/375/375
f 376/376/376 377/377/377 378/378/378
f 379/379/379 380/380/380 381/381/381
f 382/382/382 383/383/383 384/384/384
f 385/385/385 386/386/386 387/387/387
f 388/388/388 389/389/389 390/390/390
f 391/391/391 392/392/392 393/393/393
f 394/394/394 395/395/395 396/396/396
f 397/397/397 398/398/398 399/399/399
f 400/400/400 401/401/401 402/402/402
f 403/403/403 404/404/404 405/405/405
f 406/406/406 407/407/407 408/408/408
f 409/409/409 410/410/410 411/411/411
f 412/412/412 413/413/413 414/414/414
f 415/415/415 416/416/416 417/417/417
f 418/418/418 419/419/419 420/420/420
f 421/421/421 422/422/422 423/423/423
f 424/424/424 425/425/425 426/426/426
f 427/427/427 428/428/428 429/429/429
f 430/430/430 431/431/431 432/432/432
f 433/433/433 434/434/434 435/435/435
f 436/436/436 437/437/437 438/438/438
f 439/439/439 440/440/440 441/441/441
f 442/442/442 443/443/443 444/444/444
f 445/445/445 446/446/446 447/447/447
f 448/448/448 449/449/449 450/450/450
f 451/451/451 452/452/452 453/453/453
f 454/454/454 455/455/455 456/456/456
f 457/457/457 458/458/458 459/459/459
f 460/460/460 461/461/461 462/462/462
f 463/463/463 464/464/464 465/465/465
f 466/466/466 467/467/467 468/468/468
f 469/469/469 470/470/470 471/471/471
f 472/472/472 473/473/473 474/474/474
f 475/475/475 476/476/476 477/477/477
f 478/478/478 479/479/479 480/480/480
f 481/481/481 482/482/482 483/483/483
f 484/484/484 485/485/485 486/486/486
f 487/487/487 488/488/488 489/489/489
f 490/490/490 491/491/491 492/492/492
f 493/493/493 494/494/494 495/495/495
f 496/496/496 497/497/497 498/498/498
f 499/499/499 500/500/500 501/501/501
f 502/502/502 503/503/503 504/504/504
f 505/505/505 506/506/506 507/507/507
f 508/508/508 509/509/509 510/510/510
f 511/511/511 512/512/512 513/513/513
f 514/514/514 515/515/515 516/516/516
f 517/517/517 518/518/518 519/519/519
f 520/520/520 521/521/521 522/522/522
f 523/523/523 524/524/524 525/525/525
f 526/526/526 527/527/527 528/528/528
f 529/529/529 530/530/530 531/531/531
f 532/532/532 533/533/533 534/534/534
f 535/535/535 536/536/536 537/537/537
f 538/538/538 539/539/539 540/540/540
f 541/541/541 542/542/542 543/543/543
f 544/544/544 545/545/545 546/546/546
f 547/547/547 548/548/548 549/549/549
f 550/550/550 551/551/551 552/552/552
f 553/553/553 554/554/554 555/555/555
f 556/556/556 557/557/557 558/558/558
f 559/559/559 560/560/560 561/561/561
f 562/562/562 563/563/563 564/564/564
f 565/565/565 566/566/566 567/567/567
f 568/568/568 569/569/569 570/570/570
f 571/571/571 572/572/572 573/573/573
f 574/574/574 575/575/575 576/576/576
f 577/577/577 578/578/578 579/579/579
f 580/580/580 581/581/581 582/582/582
f 583/583/583 584/584/584 585/585/585
f 586/586/586 587/587/587 588/588/588
f 589/589/589 590/590/590 591/591/591
f 592/592/592 593/593/593 594/594/594
f 595/595/595 596/596/596 597/597/597
f 598/598/598 599/599/599 600/600/600
f 601/601/601 602/602/602 603/603/603
f 604/604/604 605/605/605 606/606/606
f 607/607/607 608/608/608 609/609/609
f 610/610/610 611/611/611 612/612/612
f 613/613/613 614/614/614 615/615/615
f 616/616/616 617/617/617 618/618/618
f 619/619/619 620/620/620 621/621/621
f 622/622/622 623/623/623 624/624/624
f 625/625/625 626/626/626 627/627/627
f 628/628/628 629/629/629 630/630/630
f 631/631/631 632/632/632 633/633/633
f 634/634/634 635/635/635 636/636/636
f 637/637/637 638/638/638 639/639/639
f 640/640/640 641/641/641 642/642/642
f 643/643/643 644/644/644 645/645/645
f 646/646/646 647/647/647 648/648/648
f 649/649/649 650/650/650 651/651/651
f 652/652/652 653/653/653 654/654/654
f 655/655/655 656/656/656 657/657/657
f 658/658/658 659/659/659 660/660/660
f 661/661/661 662/662/662 663/663/663
f 664/664/664 665/665/665 666/666/666
f 667/667/667 668/668/668 669/669/669
f 670/670/670 671/671/671 672/672/672
f 673/673/673 674/674/674 675/675/675
f 676/676/676 677/677/677 678/678/678
f 679/679/679 680/680/680 681/681/681
f 682/682/682 683/683/683 684/684/684
f 685/685/685 686/686/686 687/687/687
f 688/688/688 689/689/689 690/690/690
f 691/691/691 692/692/692 693/693/693
f 694/694/694 695/695/695 696/696/696
f 697/697/697 698/698/698 699/699/699
f 700/700/700 701/701/701 702/702/702
f 703/703/703 704/704/704 705/705/705
f 706/706/706 707/707/707 708/708/708
f 709/709/709 710/710/710 711/711/711
f 712/712/712 713/713/713 714/714/714
f 715/715/715 716/716/716 717/717/717
f 718/718/718 719/719/719 720/720/720
f 721/721/721 722/722/722 723/723/723
f 724/724/724 725/725/725 726/726/726
f 727/727/727 728/728/728 729/729/729
f 730/730/730 731/731/731 732/732/732
f 733/733/733 734/734/734 735/735/735
f 736/736/736 737/737/737 738/738/738
f 739/739/739 740/740/740 741/741/741
f 742/742/742 743/743/743 744/744/744
f 745/745/745 746/746/746 747/747/747
f 748/748/748 749/749/749 750/750/750
f 751/751/751 752/752/752 753/753/753
f 754/754/754 755/755/755 756/756/756
f 757/757/757 758/758/758 759/759/759
f 760/760/760 761/761/761 762/762/762
f 763/763/763 764/764/764 765/765/765
f 766/766/766 767/767/767 768/768/768
f 769/769/769 770/770/770 771/771/771
f 772/772/772 773/773/773 774/774/774
f 775/775/775 776/776/776 777/777/777
f 778/778/778 779/779/779 780/780/780
f 781/781/781 782/782/782 783/783/783
f 784/784/784 785/785/785 786/786/786
f 787/787/787 788/788/788 789/789/789
f 790/790/790 791/791/791 792/792/792
f 793/793/793 794/794/794 795/795/795
f 796/796/796 797/797/797 798/798/798
f 799/799/799 800/800/800 801/801/801
f 802/802/802 803/803/803 804/804/804
f 805/805/805 806/806/806 807/807/807
f 808/808/808 809/809/809 810/810/810
f 811/811/811 812/812/812 813/813/813
f 814/814/814 815/815/815 816/816/816
f 817/817/817 818/818/818 819/819/819
f 820/820/820 821/821/821 822/822/822
f 823/823/823 824/824/824 825/825/825
f 826/826/826 827/827/827 828/828/828
f 829/829/829 830/830/830 831/831/831
f 832/832/832 833/833/833 834/834/834
f 835/835/835 836/836/836 837/837/837
f 838/838/838 839/839/839 840/840/840
f 841/841/841 842/842/842 843/843/843
f 841/841/841 843/843/843 842/842/842
f 841/841/841 843/843/843 844/844/844
f 841/841/841 844/844/844 843/843/843
f 841/841/841 844/844/844 845/845/845
f 841/841/841 845/845/845 844/844/844
f 841/841/841 845/845/845 846/846/846
f 841/841/841 846/846/846 845/845/845
f 841/841/841 846/846/846 847/847/847
f 841/841/841 847/847/847 846/846/846
f 841/841/841 847/847/847 848/848/848
f 841/841/841 848/848/848 847/847/847
f 841/841/841 848/848/848 849/849/849
f 841/841/841 849/849/849 848/848/848
f 841/841/841 849/849/849 850/850/850
f 841/841/841 850/850/850 849/849/849
f 841/841/841 850/850/850 851/851/851
f 841/841/841 851/851/851 850/850/850
f 841/841/841 851/851/851 852/852/852
f 841/841/841 852/852/852 851/851/851
f 841/841/841 852/852/852 853/853/853
f 841/841/841 853/853/853 852/852/852
f 841/841/841 853/853/853 854/854/854
f 841/841/841 854/854/854 853/853/853
f 841/841/841 854/854/854 855/855/855
f 841/841/841 855/855/855 854/854/854
f 841/841/841 855/855/855 856/856/856
f 841/841/841 856/856/856 855/855/855
f 841/841/841 856/856/856 857/857/857
f 841/841/841 857/857/857 856/856/856
f 841/841/841 857/857/857 858/858/858
f 841/841/841 858/858/858 857/857/857
f 841/841/841 858/858/858 859/859/859
f 841/841/841 859/859/859 858/858/858
f 841/841/841 859/859/859 860/860/860
f 841/841/841 860/860/860 859/859/859
f 841/841/841 860/860/860 861/861/861
f 841/841/841 861/861/861 860/860/860
f 841/841/841 861/861/861 862/862/862
f 841/841/841 862/862/862 861/861/861
f 841/841/841 862/862/862 863/863/863
f 841/841/841 863/863/863 862/862/862
f 841/841/841 863/863/863 864/864/864
f 841/841/841 864/864/864 863/863/863
f 841/841/841 864/864/864 865/865/865
f 841/841/841 865/865/865 864/864/864
f 841/841/841 865/865/865 866/866/866
f 841/841/841 866/866/866 865/865/865
f 841/841/841 866/866/866 867/867/867
f 841/841/841 867/867/867 866/866/866
f 841/841/841 867/867/867 868/868/868
f 841/841/841 868/868/868 867/867/867
f 841/841/841 868/868/868 869/869/869
f 841/841/841 869/869/869 868/868/868
f 841/841/841 869/869/869 870/870/870
f 841/841/841 870/870/870 869/869/869
f 841/841/841 870/870/870 871/871/871
f 841/841/841 871/871/871 870/870/870
f 841/841/841 871/871/871 842/842/842
f 841/841/841 842/842/842 871/871/871
f 872/872/872 873/873/873 874/874/874
f 872/872/872 874/874/874 873/873/873
f 872/872/872 874/874/874 875/875/875
f 872/872/872 875/875/875 874/874/874
f 872/872/872 875/875/875 876/876/876
f 872/872/872 876/876/876 875/875/875
f 872/872/872 876/876/876 877/877/877
f 872/872/872 877/877/877 876/876/876
f 872/872/872 877/877/877 878/878/878
f 872/872/872 878/878/878 877/877/877
f 872/872/872 878/878/878 879/879/879
f 872/872/872 879/879/879 878/878/878
f 872/872/872 879/879/879 880/880/880
f 872/872/872 880/880/880 879/879/879
f 872/872/872 880/880/880 881/881/881
f 872/872/872 881/881/881 880/880/880
f 872/872/872 881/881/881 882/882/882
f 872/872/872 882/882/882 881/881/881
f 872/872/872 882/882/882 883/883/883
f 872/872/872 883/883/883 882/882/882
f 872/872/872 883/883/883 884/884/884
f 872/872/872 884/884/884 883/883/883
f 872/872/872 884/884/884 885/885/885
f 872/872/872 885/885/885 884/884/884
f 872/872/872 885/885/885 886/886/886
f 872/872/872 886/886/886 885/885/885
f 872/872/872 886/886/886 887/887/887
f 872/872/872 887/887/887 886/886/886
f 872/872/872 887/887/887 888/888/888
f 872/872/872 888/888/888 887/887/887
f 872/872/872 888/888/888 889/889/889
f 872/872/872 889/889/889 888/888/888
f 872/872/872 889/889/889 890/890/890
f 872/872/872 890/890/890 889/889/889
f 872/872/872 890/890/890 891/891/891
f 872/872/872 891/891/891 890/890/890
f 872/872/872 891/891/891 892/892/892
f 872/872/872 892/892/892 891/891/891
f 872/872/872 892/892/892 893/893/893
f 872/872/872 893/893/893 892/892/892
f 872/872/872 893/893/893 894/894/894
f 872/872/872 894/894/894 893/893/893
f 872/872/872 894/894/894 895/895/895
f 872/872/872 895/895/895 894/894/894
f 872/872/872 895/895/895 896/896/896
f 872/872/872 896/896/896 895/895/895
f 872/872/872 896/896/896 897/897/897
f 872/872/872 897/897/897 896/896/896
f 872/872/872 897/897/897 898/898/898
f 872/872/872 898/898/898 897/897/897
f 872/872/872 898/898/898 873/873/873
f 872/872/872 873/873/873 898/898/898
f 899/899/899 900/900/900 901/901/901
f 899/899/899 901/901/901 900/900/900
f 899/899/899 901/901/901 902/902/902
f 899/899/899 902/902/902 901/901/901
f 899/899/899 902/902/902 900/900/900
f 899/899/899 900/900/900 902/902/902
