o forearm_left
v -0.67356 4.36413 -2.15565
v -0.71527 4.44239 -2.31865
v -0.73763 4.63683 -2.02095
v -0.82959 4.82647 -2.10365
v -0.71779 4.68189 -1.82421
v -0.70117 4.56568 -1.97070
v -0.73763 4.63683 -2.02095
v -0.82959 4.82647 -2.10365
v -0.70117 4.56568 -1.97070
v -0.71779 4.68189 -1.82421
v -0.71874 4.72125 -1.69902
v -0.79365 4.67084 -1.72750
v -0.79131 4.63433 -2.35192
v -0.73763 4.63683 -2.02095
v -0.71527 4.44239 -2.31865
v -0.64223 4.85631 -1.42144
v -0.69178 4.44780 -1.41657
v -0.79465 4.58998 -1.43576
v -0.71874 4.72125 -1.69902
v -0.71779 4.68189 -1.82421
v -0.78038 4.85217 -1.74322
v -0.79131 4.63433 -2.35192
v -0.82959 4.82647 -2.10365
v -0.73763 4.63683 -2.02095
v -0.71874 4.72125 -1.69902
v -0.78038 4.85217 -1.74322
v -0.77605 4.70680 -1.67795
v -0.71527 4.44239 -2.31865
v -0.67356 4.36413 -2.15565
v -0.90041 4.36562 -2.30624
v -0.71874 4.72125 -1.69902
v -0.77605 4.70680 -1.67795
v -0.79365 4.67084 -1.72750
v -0.78038 4.85217 -1.74322
v -0.79352 5.08073 -1.75441
v -0.77605 4.70680 -1.67795
v -0.77605 4.70680 -1.67795
v -0.81797 4.50667 -1.69524
v -0.79365 4.67084 -1.72750
v -0.77605 4.70680 -1.67795
v -0.79352 5.08073 -1.75441
v -0.79465 4.58998 -1.43576
v -0.77605 4.70680 -1.67795
v -0.79465 4.58998 -1.43576
v -0.81797 4.50667 -1.69524
v -0.69178 4.44780 -1.41657
v -0.82714 4.49617 -1.42668
v -0.79465 4.58998 -1.43576
v -0.95071 4.47399 -1.94551
v -0.73763 4.63683 -2.02095
v -0.70117 4.56568 -1.97070
v -0.67356 4.36413 -2.15565
v -0.87826 4.29521 -2.16289
v -0.90041 4.36562 -2.30624
v -0.82959 4.82647 -2.10365
v -0.89999 5.04054 -1.90930
v -0.71779 4.68189 -1.82421
v -0.81797 4.50667 -1.69524
v -0.79465 4.58998 -1.43576
v -0.82714 4.49617 -1.42668
v -0.78038 4.85217 -1.74322
v -0.71779 4.68189 -1.82421
v -0.89999 5.04054 -1.90930
v -0.82714 4.49617 -1.42668
v -0.92186 4.46642 -1.42366
v -1.08113 4.45420 -1.64806
v -0.82714 4.49617 -1.42668
v -1.08113 4.45420 -1.64806
v -0.81797 4.50667 -1.69524
v -0.89999 5.04054 -1.90930
v -0.82959 4.82647 -2.10365
v -0.86438 4.90258 -2.12115
v -0.82959 4.82647 -2.10365
v -1.02642 4.75260 -2.08598
v -0.86438 4.90258 -2.12115
v -0.79365 4.67084 -1.72750
v -1.01660 4.54980 -1.73166
v -0.71779 4.68189 -1.82421
v -0.69178 4.44780 -1.41657
v -1.06359 4.45061 -0.89794
v -0.92186 4.46642 -1.42366
v -0.69178 4.44780 -1.41657
v -0.92186 4.46642 -1.42366
v -0.82714 4.49617 -1.42668
v -0.73763 4.63683 -2.02095
v -0.95071 4.47399 -1.94551
v -0.94346 4.53335 -2.01072
v -0.71527 4.44239 -2.31865
v -0.90041 4.36562 -2.30624
v -0.79131 4.63433 -2.35192
v -0.67356 4.36413 -2.15565
v -0.73763 4.63683 -2.02095
v -0.87826 4.29521 -2.16289
v -1.01660 4.54980 -1.73166
v -0.79365 4.67084 -1.72750
v -0.81797 4.50667 -1.69524
v -0.70117 4.56568 -1.97070
v -0.71779 4.68189 -1.82421
v -0.94995 4.52157 -1.86526
v -0.90041 4.36562 -2.30624
v -0.87826 4.29521 -2.16289
v -0.94346 4.53335 -2.01072
v -0.87826 4.29521 -2.16289
v -0.73763 4.63683 -2.02095
v -0.94346 4.53335 -2.01072
v -0.82959 4.82647 -2.10365
v -0.99419 4.58361 -2.32231
v -1.02642 4.75260 -2.08598
v -0.95071 4.47399 -1.94551
v -0.70117 4.56568 -1.97070
v -0.94995 4.52157 -1.86526
v -0.92186 4.46642 -1.42366
v -0.95475 4.35636 -1.06611
v -0.95095 4.36891 -1.43063
v -1.01660 4.54980 -1.73166
v -0.94995 4.52157 -1.86526
v -0.71779 4.68189 -1.82421
v -1.02642 4.75260 -2.08598
v -1.10024 4.83670 -2.08833
v -0.86438 4.90258 -2.12115
v -0.92186 4.46642 -1.42366
v -1.06359 4.45061 -0.89794
v -0.95475 4.35636 -1.06611
v -1.01660 4.54980 -1.73166
v -0.81797 4.50667 -1.69524
v -1.14373 4.51527 -1.70297
v -0.81797 4.50667 -1.69524
v -1.08113 4.45420 -1.64806
v -1.27277 4.49800 -1.63225
v -0.95071 4.47399 -1.94551
v -1.00812 4.60689 -2.02531
v -0.94346 4.53335 -2.01072
v -0.95071 4.47399 -1.94551
v -0.94995 4.52157 -1.86526
v -0.98713 4.52455 -1.91334
v -0.94346 4.53335 -2.01072
v -0.99419 4.58361 -2.32231
v -0.90041 4.36562 -2.30624
v -0.94995 4.52157 -1.86526
v -1.01660 4.54980 -1.73166
v -0.99038 4.48764 -1.83829
v -0.98713 4.52455 -1.91334
v -0.94995 4.52157 -1.86526
v -0.99038 4.48764 -1.83829
v -1.16305 4.37047 -1.41228
v -0.92186 4.46642 -1.42366
v -0.95095 4.36891 -1.43063
v -0.79131 4.63433 -2.35192
v -0.90041 4.36562 -2.30624
v -0.99419 4.58361 -2.32231
v -1.00812 4.60689 -2.02531
v -0.95071 4.47399 -1.94551
v -0.98713 4.52455 -1.91334
v -1.08113 4.45420 -1.64806
v -0.92186 4.46642 -1.42366
v -1.19162 4.44054 -1.50885
v -1.16305 4.37047 -1.41228
v -1.16084 4.44580 -1.43832
v -0.92186 4.46642 -1.42366
v -0.99419 4.58361 -2.32231
v -0.82959 4.82647 -2.10365
v -0.79131 4.63433 -2.35192
v -0.99038 4.48764 -1.83829
v -0.99211 4.42548 -1.89471
v -0.98713 4.52455 -1.91334
v -1.02250 4.26484 -2.24456
v -1.00496 4.33764 -2.05115
v -0.97969 4.11921 -2.10492
v -0.98713 4.52455 -1.91334
v -0.99211 4.42548 -1.89471
v -1.07830 4.59370 -1.98477
v -1.00496 4.33764 -2.05115
v -1.14402 4.07907 -2.05633
v -0.97969 4.11921 -2.10492
v -0.81797 4.50667 -1.69524
v -1.27277 4.49800 -1.63225
v -1.14373 4.51527 -1.70297
v -0.94346 4.53335 -2.01072
v -1.02642 4.75260 -2.08598
v -0.99419 4.58361 -2.32231
v -1.02984 4.46044 -1.97450
v -1.07830 4.59370 -1.98477
v -0.99211 4.42548 -1.89471
v -0.94346 4.53335 -2.01072
v -1.00812 4.60689 -2.02531
v -1.02642 4.75260 -2.08598
v -0.95475 4.35636 -1.06611
v -1.06359 4.45061 -0.89794
v -1.08591 4.34402 -1.06098
v -1.00496 4.33764 -2.05115
v -1.10217 4.52624 -2.28348
v -1.07830 4.59370 -1.98477
v -0.95095 4.36891 -1.43063
v -0.95475 4.35636 -1.06611
v -1.08591 4.34402 -1.06098
v -1.02984 4.46044 -1.97450
v -0.99211 4.42548 -1.89471
v -1.24779 4.32892 -1.85133
v -1.08262 4.75026 -2.01797
v -1.00812 4.60689 -2.02531
v -0.98713 4.52455 -1.91334
v -1.20171 4.26062 -2.02133
v -1.00496 4.33764 -2.05115
v -1.02984 4.46044 -1.97450
v -1.10024 4.83670 -2.08833
v -1.11745 4.98691 -1.87986
v -0.86438 4.90258 -2.12115
v -1.02250 4.26484 -2.24456
v -1.10217 4.52624 -2.28348
v -1.00496 4.33764 -2.05115
v -1.02642 4.75260 -2.08598
v -1.00812 4.60689 -2.02531
v -1.10024 4.83670 -2.08833
v -1.00812 4.60689 -2.02531
v -1.08262 4.75026 -2.01797
v -1.10024 4.83670 -2.08833
v -1.07830 4.59370 -1.98477
v -1.02984 4.46044 -1.97450
v -1.00496 4.33764 -2.05115
v -0.95095 4.36891 -1.43063
v -1.08591 4.34402 -1.06098
v -1.16305 4.37047 -1.41228
v -1.16084 4.44580 -1.43832
v -1.19162 4.44054 -1.50885
v -0.92186 4.46642 -1.42366
v -1.08262 4.75026 -2.01797
v -0.98713 4.52455 -1.91334
v -1.07830 4.59370 -1.98477
v -0.97969 4.11921 -2.10492
v -1.14402 4.07907 -2.05633
v -1.02250 4.26484 -2.24456
v -1.07830 4.59370 -1.98477
v -1.10217 4.52624 -2.28348
v -1.16976 4.72829 -2.10067
v -1.08262 4.75026 -2.01797
v -1.07830 4.59370 -1.98477
v -1.17688 4.83802 -2.06816
v -1.07830 4.59370 -1.98477
v -1.14688 4.73522 -2.04943
v -1.17688 4.83802 -2.06816
v -1.20171 4.26062 -2.02133
v -1.02984 4.46044 -1.97450
v -1.23867 4.38397 -1.93102
v -1.14688 4.73522 -2.04943
v -1.07830 4.59370 -1.98477
v -1.16976 4.72829 -2.10067
v -1.08591 4.34402 -1.06098
v -1.04791 4.29603 -0.87396
v -1.16305 4.37047 -1.41228
v -1.19705 4.97925 -1.78885
v -1.08262 4.75026 -2.01797
v -1.17688 4.83802 -2.06816
v -1.10024 4.83670 -2.08833
v -1.08262 4.75026 -2.01797
v -1.11745 4.98691 -1.87986
v -1.10217 4.52624 -2.28348
v -1.02250 4.26484 -2.24456
v -1.32479 4.48217 -2.24078
v -0.99038 4.48764 -1.83829
v -1.25521 4.39507 -1.78588
v -0.99211 4.42548 -1.89471
v -1.14402 4.07907 -2.05633
v -1.22403 4.22137 -2.21380
v -1.02250 4.26484 -2.24456
v -1.16305 4.37047 -1.41228
v -1.04791 4.29603 -0.87396
v -1.20074 4.36936 -1.49303
v -1.00496 4.33764 -2.05115
v -1.20171 4.26062 -2.02133
v -1.14402 4.07907 -2.05633
v -1.24779 4.32892 -1.85133
v -1.23867 4.38397 -1.93102
v -1.02984 4.46044 -1.97450
v -0.99038 4.48764 -1.83829
v -1.01660 4.54980 -1.73166
v -1.25521 4.39507 -1.78588
v -1.35648 4.66188 -2.07428
v -1.16976 4.72829 -2.10067
v -1.32479 4.48217 -2.24078
v -1.22403 4.22137 -2.21380
v -1.32479 4.48217 -2.24078
v -1.02250 4.26484 -2.24456
v -1.22403 4.22137 -2.21380
v -1.14402 4.07907 -2.05633
v -1.20171 4.26062 -2.02133
v -1.16305 4.37047 -1.41228
v -1.19162 4.44054 -1.50885
v -1.16084 4.44580 -1.43832
v -1.25521 4.39507 -1.78588
v -1.24779 4.32892 -1.85133
v -0.99211 4.42548 -1.89471
v -1.16305 4.37047 -1.41228
v -1.20074 4.36936 -1.49303
v -1.19162 4.44054 -1.50885
v -1.25521 4.39507 -1.78588
v -1.01660 4.54980 -1.73166
v -1.23742 4.44374 -1.71617
v -1.20171 4.26062 -2.02133
v -1.23867 4.38397 -1.93102
v -1.22403 4.22137 -2.21380
v -1.20074 4.36936 -1.49303
v -1.37096 4.41958 -1.47203
v -1.19162 4.44054 -1.50885
v -1.01660 4.54980 -1.73166
v -1.14373 4.51527 -1.70297
v -1.23742 4.44374 -1.71617
v -1.17688 4.83802 -2.06816
v -1.14688 4.73522 -2.04943
v -1.33987 4.64005 -2.01788
v -1.35648 4.66188 -2.07428
v -1.14688 4.73522 -2.04943
v -1.16976 4.72829 -2.10067
v -1.19705 4.97925 -1.78885
v -1.17688 4.83802 -2.06816
v -1.40400 4.74464 -2.02996
v -1.08113 4.45420 -1.64806
v -1.19162 4.44054 -1.50885
v -1.28277 4.44602 -1.60475
v -1.23867 4.38397 -1.93102
v -1.32479 4.48217 -2.24078
v -1.22403 4.22137 -2.21380
v -1.27277 4.49800 -1.63225
v -1.23742 4.44374 -1.71617
v -1.14373 4.51527 -1.70297
v -1.23867 4.38397 -1.93102
v -1.24779 4.32892 -1.85133
v -1.30593 4.43905 -1.89241
v -1.08113 4.45420 -1.64806
v -1.28277 4.44602 -1.60475
v -1.27277 4.49800 -1.63225
v -1.23867 4.38397 -1.93102
v -1.33987 4.64005 -2.01788
v -1.32479 4.48217 -2.24078
v -1.32479 4.48217 -2.24078
v -1.16976 4.72829 -2.10067
v -1.10217 4.52624 -2.28348
v -1.25521 4.39507 -1.78588
v -1.23742 4.44374 -1.71617
v -1.52065 4.29819 -1.67552
v -1.24779 4.32892 -1.85133
v -1.25521 4.39507 -1.78588
v -1.30593 4.43905 -1.89241
v -1.37096 4.41958 -1.47203
v -1.28277 4.44602 -1.60475
v -1.19162 4.44054 -1.50885
v -1.30593 4.43905 -1.89241
v -1.25521 4.39507 -1.78588
v -1.28609 4.26031 -1.87085
v -1.23867 4.38397 -1.93102
v -1.30593 4.43905 -1.89241
v -1.33987 4.64005 -2.01788
v -1.30593 4.43905 -1.89241
v -1.28609 4.26031 -1.87085
v -1.44355 4.53274 -2.07871
v -1.14688 4.73522 -2.04943
v -1.35648 4.66188 -2.07428
v -1.33987 4.64005 -2.01788
v -1.17688 4.83802 -2.06816
v -1.33987 4.64005 -2.01788
v -1.40400 4.74464 -2.02996
v -1.28277 4.44602 -1.60475
v -1.32008 4.50341 -1.58995
v -1.27277 4.49800 -1.63225
v -1.32283 4.09885 -2.19116
v -1.32398 4.22452 -2.02266
v -1.30268 4.05154 -2.05847
v -1.27277 4.49800 -1.63225
v -1.32008 4.50341 -1.58995
v -1.31744 4.53562 -1.61618
v -1.27277 4.49800 -1.63225
v -1.38980 4.42180 -1.60147
v -1.23742 4.44374 -1.71617
v -1.28609 4.26031 -1.87085
v -1.25521 4.39507 -1.78588
v -1.51090 4.19462 -1.81508
v -1.27277 4.49800 -1.63225
v -1.31744 4.53562 -1.61618
v -1.35689 4.47676 -1.59957
v -1.32479 4.48217 -2.24078
v -1.33987 4.64005 -2.01788
v -1.35648 4.66188 -2.07428
v -1.32008 4.50341 -1.58995
v -1.38980 4.42180 -1.60147
v -1.35689 4.47676 -1.59957
v -1.30268 4.05154 -2.05847
v -1.54341 4.26480 -1.90956
v -1.49038 4.00771 -2.01480
v -1.38370 4.54740 -1.95456
v -1.33987 4.64005 -2.01788
v -1.30593 4.43905 -1.89241
v -1.44355 4.53274 -2.07871
v -1.28609 4.26031 -1.87085
v -1.36346 4.34492 -1.95951
v -1.32008 4.50341 -1.58995
v -1.28277 4.44602 -1.60475
v -1.38980 4.42180 -1.60147
v -1.35689 4.47676 -1.59957
v -1.38980 4.42180 -1.60147
v -1.27277 4.49800 -1.63225
v -1.31391 4.22053 -0.87237
v -1.41543 4.29585 -1.41338
v -1.20074 4.36936 -1.49303
v -1.33987 4.64005 -2.01788
v -1.38370 4.54740 -1.95456
v -1.40400 4.74464 -2.02996
v -1.54341 4.26480 -1.90956
v -1.30268 4.05154 -2.05847
v -1.32398 4.22452 -2.02266
v -1.31744 4.53562 -1.61618
v -1.32008 4.50341 -1.58995
v -1.35689 4.47676 -1.59957
v -1.32283 4.09885 -2.19116
v -1.41444 4.33001 -2.23839
v -1.32398 4.22452 -2.02266
v -1.28277 4.44602 -1.60475
v -1.37096 4.41958 -1.47203
v -1.38980 4.42180 -1.60147
v -1.36709 4.79961 -1.65165
v -1.37689 4.67343 -1.75932
v -1.37096 4.69402 -1.62943
v -1.53360 4.05882 -2.15865
v -1.32283 4.09885 -2.19116
v -1.30268 4.05154 -2.05847
v -1.36346 4.34492 -1.95951
v -1.28609 4.26031 -1.87085
v -1.51090 4.19462 -1.81508
v -1.37096 4.41958 -1.47203
v -1.20074 4.36936 -1.49303
v -1.43390 4.33252 -1.43570
v -1.41444 4.33001 -2.23839
v -1.36346 4.34492 -1.95951
v -1.32398 4.22452 -2.02266
v -1.60698 4.25192 -2.18880
v -1.41444 4.33001 -2.23839
v -1.32283 4.09885 -2.19116
v -1.30593 4.43905 -1.89241
v -1.44355 4.53274 -2.07871
v -1.38370 4.54740 -1.95456
v -1.37096 4.69402 -1.62943
v -1.37689 4.67343 -1.75932
v -1.41444 4.72191 -1.68467
v -1.36346 4.34492 -1.95951
v -1.41444 4.33001 -2.23839
v -1.41718 4.46588 -2.07594
v -1.37689 4.67343 -1.75932
v -1.40400 4.74464 -2.02996
v -1.38370 4.54740 -1.95456
v -1.39628 4.88489 -1.76025
v -1.40400 4.74464 -2.02996
v -1.37689 4.67343 -1.75932
v -1.37096 4.41958 -1.47203
v -1.43390 4.33252 -1.43570
v -1.38980 4.42180 -1.60147
v -1.44355 4.53274 -2.07871
v -1.36346 4.34492 -1.95951
v -1.41718 4.46588 -2.07594
v -1.41543 4.29585 -1.41338
v -1.43390 4.33252 -1.43570
v -1.20074 4.36936 -1.49303
v -1.23742 4.44374 -1.71617
v -1.52334 4.34215 -1.65299
v -1.52065 4.29819 -1.67552
v -1.37689 4.67343 -1.75932
v -1.38370 4.54740 -1.95456
v -1.46515 4.75087 -1.80061
v -1.23742 4.44374 -1.71617
v -1.38980 4.42180 -1.60147
v -1.52334 4.34215 -1.65299
v -1.37689 4.67343 -1.75932
v -1.46515 4.75087 -1.80061
v -1.41444 4.72191 -1.68467
v -1.38980 4.42180 -1.60147
v -1.43390 4.33252 -1.43570
v -1.44507 4.32729 -1.56766
v -1.30268 4.05154 -2.05847
v -1.49038 4.00771 -2.01480
v -1.53360 4.05882 -2.15865
v -1.31391 4.22053 -0.87237
v -1.43390 4.33252 -1.43570
v -1.41543 4.29585 -1.41338
v -1.46515 4.75087 -1.80061
v -1.38370 4.54740 -1.95456
v -1.46105 4.66010 -2.00001
v -1.38370 4.54740 -1.95456
v -1.44355 4.53274 -2.07871
v -1.46105 4.66010 -2.00001
v -1.53360 4.05882 -2.15865
v -1.60698 4.25192 -2.18880
v -1.32283 4.09885 -2.19116
v -1.44507 4.32729 -1.56766
v -1.53045 4.37094 -1.57898
v -1.38980 4.42180 -1.60147
v -1.37096 4.69402 -1.62943
v -1.41444 4.72191 -1.68467
v -1.46505 4.83065 -1.62990
v -1.54341 4.26480 -1.90956
v -1.32398 4.22452 -2.02266
v -1.36346 4.34492 -1.95951
v -1.60811 4.61963 -1.64793
v -1.41444 4.72191 -1.68467
v -1.46515 4.75087 -1.80061
v -1.62118 4.33334 -1.54362
v -1.53045 4.37094 -1.57898
v -1.44507 4.32729 -1.56766
v -1.41444 4.72191 -1.68467
v -1.68287 4.69319 -1.64178
v -1.48690 4.81686 -1.69419
v -1.25521 4.39507 -1.78588
v -1.52065 4.29819 -1.67552
v -1.51090 4.19462 -1.81508
v -1.38980 4.42180 -1.60147
v -1.53045 4.37094 -1.57898
v -1.52334 4.34215 -1.65299
v -1.67837 4.56496 -1.95571
v -1.46515 4.75087 -1.80061
v -1.46105 4.66010 -2.00001
v -1.44355 4.53274 -2.07871
v -1.67837 4.56496 -1.95571
v -1.46105 4.66010 -2.00001
v -1.51090 4.19462 -1.81508
v -1.54341 4.26480 -1.90956
v -1.36346 4.34492 -1.95951
v -1.49038 4.00771 -2.01480
v -1.54341 4.26480 -1.90956
v -1.61536 4.38818 -2.01117
v -1.53360 4.05882 -2.15865
v -1.49038 4.00771 -2.01480
v -1.61536 4.38818 -2.01117
v -1.52334 4.34215 -1.65299
v -1.53045 4.37094 -1.57898
v -1.52065 4.29819 -1.67552
v -1.67229 4.63242 -1.74521
v -1.60811 4.61963 -1.64793
v -1.46515 4.75087 -1.80061
v -1.41444 4.33001 -2.23839
v -1.60698 4.25192 -2.18880
v -1.41718 4.46588 -2.07594
v -1.61536 4.38818 -2.01117
v -1.60698 4.25192 -2.18880
v -1.53360 4.05882 -2.15865
v -1.59940 4.36217 -1.18088
v -1.44507 4.32729 -1.56766
v -1.43390 4.33252 -1.43570
v -1.60811 4.61963 -1.64793
v -1.68287 4.69319 -1.64178
v -1.41444 4.72191 -1.68467
v -1.59940 4.36217 -1.18088
v -1.62118 4.33334 -1.54362
v -1.44507 4.32729 -1.56766
v -1.44355 4.53274 -2.07871
v -1.41718 4.46588 -2.07594
v -1.61536 4.38818 -2.01117
v -1.51090 4.19462 -1.81508
v -1.66729 4.44478 -2.00892
v -1.54341 4.26480 -1.90956
v -1.54341 4.26480 -1.90956
v -1.66729 4.44478 -2.00892
v -1.61536 4.38818 -2.01117
v -1.41718 4.46588 -2.07594
v -1.60698 4.25192 -2.18880
v -1.61536 4.38818 -2.01117
v -1.60811 4.61963 -1.64793
v -1.53045 4.37094 -1.57898
v -1.68287 4.69319 -1.64178
v -1.67837 4.56496 -1.95571
v -1.44355 4.53274 -2.07871
v -1.66729 4.44478 -2.00892
v -1.52065 4.29819 -1.67552
v -1.66729 4.44478 -2.00892
v -1.51090 4.19462 -1.81508
v -1.53045 4.37094 -1.57898
v -1.60811 4.61963 -1.64793
v -1.67229 4.63242 -1.74521
v -1.53045 4.37094 -1.57898
v -1.62118 4.33334 -1.54362
v -1.68287 4.69319 -1.64178
v -1.67229 4.63242 -1.74521
v -1.52065 4.29819 -1.67552
v -1.53045 4.37094 -1.57898
v -1.59940 4.36217 -1.18088
v -1.68287 4.69319 -1.64178
v -1.62118 4.33334 -1.54362
v -1.44355 4.53274 -2.07871
v -1.61536 4.38818 -2.01117
v -1.66729 4.44478 -2.00892
v -1.66729 4.44478 -2.00892
v -1.52065 4.29819 -1.67552
v -1.67229 4.63242 -1.74521
v -1.67837 4.56496 -1.95571
v -1.67229 4.63242 -1.74521
v -1.46515 4.75087 -1.80061
v -1.67229 4.63242 -1.74521
v -1.67837 4.56496 -1.95571
v -1.66729 4.44478 -2.00892
v -1.17592 4.68158 -1.56864
v -0.69178 4.44780 -1.41657
v -0.64223 4.85631 -1.42144
v -0.79465 4.58998 -1.43576
v -0.79352 5.08073 -1.75441
v -0.78038 4.85217 -1.74322
v -0.89999 5.04054 -1.90930
v -0.86438 4.90258 -2.12115
v -1.11745 4.98691 -1.87986
v -1.08262 4.75026 -2.01797
v -1.19705 4.97925 -1.78885
v -1.40400 4.74464 -2.02996
v -1.39628 4.88489 -1.76025
v -1.37689 4.67343 -1.75932
v -1.36709 4.79961 -1.65165
v -1.37096 4.69402 -1.62943
v -1.46505 4.83065 -1.62990
v -1.41444 4.72191 -1.68467
v -1.48690 4.81686 -1.69419
v -1.68287 4.69319 -1.64178
v -1.59940 4.36217 -1.18088
v -1.43390 4.33252 -1.43570
v -1.31391 4.22053 -0.87237
v -1.20074 4.36936 -1.49303
v -1.04791 4.29603 -0.87396
v -1.08591 4.34402 -1.06098
v -1.06359 4.45061 -0.89794
vt 0.21147 0.76158
vt 0.20281 0.76189
vt 0.21045 0.74711
vt 0.20207 0.74067
vt 0.21764 0.74099
vt 0.21438 0.74910
vt 0.21045 0.74711
vt 0.20207 0.74067
vt 0.21438 0.74910
vt 0.29425 0.03990
vt 0.30032 0.04066
vt 0.29788 0.04435
vt 0.19658 0.75437
vt 0.21045 0.74711
vt 0.20281 0.76189
vt 0.66405 0.15599
vt 0.68324 0.15495
vt 0.67753 0.16090
vt 0.89876 0.89535
vt 0.90486 0.89497
vt 0.89931 0.90239
vt 0.19658 0.75437
vt 0.20207 0.74067
vt 0.21045 0.74711
vt 0.00466 0.46023
vt 0.01137 0.46241
vt 0.00396 0.46308
vt 0.99190 0.34995
vt 0.99190 0.35861
vt 0.98253 0.35003
vt 0.30032 0.04066
vt 0.30075 0.04356
vt 0.29788 0.04435
vt 0.21257 0.83810
vt 0.21257 0.84880
vt 0.20985 0.83117
vt 0.20985 0.83117
vt 0.21101 0.82166
vt 0.21227 0.82945
vt 0.20985 0.83117
vt 0.21257 0.84880
vt 0.19875 0.82523
vt 0.20985 0.83117
vt 0.19875 0.82523
vt 0.21101 0.82166
vt 0.68324 0.15495
vt 0.68213 0.16159
vt 0.67753 0.16090
vt 0.68577 0.98792
vt 0.68137 0.97569
vt 0.68577 0.97546
vt 0.99190 0.35861
vt 0.98187 0.35752
vt 0.98253 0.35003
vt 0.20207 0.74067
vt 0.20445 0.72698
vt 0.21765 0.74091
vt 0.21101 0.82166
vt 0.19875 0.82523
vt 0.19851 0.82058
vt 0.89931 0.90239
vt 0.90485 0.89496
vt 0.90480 0.91415
vt 0.62984 0.22284
vt 0.63418 0.22448
vt 0.63685 0.23705
vt 0.62984 0.22284
vt 0.63685 0.23705
vt 0.62446 0.23418
vt 0.20445 0.72698
vt 0.20207 0.74067
vt 0.19934 0.73775
vt 0.89049 0.61514
vt 0.88071 0.61628
vt 0.88984 0.61122
vt 0.29788 0.04435
vt 0.29461 0.05572
vt 0.29428 0.03988
vt 0.86122 0.75057
vt 0.88120 0.76630
vt 0.86051 0.75975
vt 0.68324 0.15495
vt 0.68431 0.16568
vt 0.68213 0.16159
vt 0.68137 0.97569
vt 0.68577 0.98792
vt 0.68192 0.98644
vt 0.84251 0.03050
vt 0.84251 0.03987
vt 0.83276 0.03025
vt 0.56885 0.09287
vt 0.55434 0.09287
vt 0.56985 0.08283
vt 0.90885 0.93920
vt 0.90809 0.92739
vt 0.91477 0.93160
vt 0.75098 0.38715
vt 0.75745 0.38992
vt 0.74872 0.40161
vt 0.56398 0.92899
vt 0.56340 0.93650
vt 0.54986 0.93650
vt 0.56985 0.08283
vt 0.55434 0.09287
vt 0.55632 0.08229
vt 0.17904 0.06570
vt 0.19291 0.07567
vt 0.17926 0.07554
vt 0.74681 0.39827
vt 0.75098 0.38715
vt 0.74872 0.40161
vt 0.03265 0.50637
vt 0.03265 0.52134
vt 0.02871 0.50735
vt 0.75309 0.40770
vt 0.74872 0.40161
vt 0.75754 0.38988
vt 0.88071 0.61628
vt 0.87831 0.61164
vt 0.88984 0.61122
vt 0.29080 0.13660
vt 0.29080 0.15830
vt 0.28614 0.15082
vt 0.90884 0.93919
vt 0.91477 0.93160
vt 0.90846 0.94545
vt 0.84077 0.93268
vt 0.83894 0.92010
vt 0.84150 0.91126
vt 0.87877 0.63124
vt 0.87916 0.62353
vt 0.88101 0.62777
vt 0.75950 0.00054
vt 0.75950 0.00490
vt 0.75740 0.00303
vt 0.54986 0.93650
vt 0.55499 0.92248
vt 0.56398 0.92899
vt 0.74872 0.40161
vt 0.75370 0.40802
vt 0.74753 0.40437
vt 0.99567 0.42270
vt 0.99693 0.42015
vt 0.99938 0.42145
vt 0.98299 0.07563
vt 0.97841 0.06440
vt 0.98299 0.06569
vt 0.83276 0.03025
vt 0.84251 0.03987
vt 0.83141 0.04001
vt 0.89254 0.54972
vt 0.88488 0.54880
vt 0.88696 0.54627
vt 0.63685 0.23705
vt 0.63418 0.22448
vt 0.64420 0.23316
vt 0.98299 0.07563
vt 0.97927 0.07559
vt 0.97841 0.06440
vt 0.19291 0.07567
vt 0.17906 0.06567
vt 0.19382 0.06585
vt 0.95004 0.99565
vt 0.95396 0.99565
vt 0.95112 0.99941
vt 0.52155 0.26785
vt 0.52172 0.27753
vt 0.51280 0.27187
vt 0.77359 0.02561
vt 0.77115 0.02963
vt 0.77108 0.01985
vt 0.63358 0.10927
vt 0.62419 0.11926
vt 0.62317 0.11111
vt 0.21326 0.13565
vt 0.19297 0.14248
vt 0.19825 0.13814
vt 0.54986 0.93650
vt 0.54240 0.92776
vt 0.55499 0.92248
vt 0.52621 0.28271
vt 0.53269 0.28416
vt 0.52306 0.28583
vt 0.88101 0.62777
vt 0.87916 0.62353
vt 0.88071 0.61628
vt 0.94234 0.01199
vt 0.94948 0.01718
vt 0.94166 0.01720
vt 0.52172 0.27753
vt 0.53427 0.26991
vt 0.53269 0.28416
vt 0.08032 0.06602
vt 0.09484 0.06679
vt 0.09484 0.07204
vt 0.96930 0.50351
vt 0.96489 0.50398
vt 0.96489 0.49107
vt 0.89941 0.54658
vt 0.89254 0.54972
vt 0.88698 0.54625
vt 0.63323 0.11923
vt 0.63358 0.10927
vt 0.64043 0.10901
vt 0.96655 0.21450
vt 0.96650 0.20248
vt 0.97808 0.21464
vt 0.52155 0.26785
vt 0.53427 0.26991
vt 0.52172 0.27753
vt 0.88071 0.61628
vt 0.87916 0.62353
vt 0.87831 0.61164
vt 0.89254 0.54972
vt 0.89941 0.54658
vt 0.90439 0.54831
vt 0.53269 0.28416
vt 0.52621 0.28271
vt 0.52172 0.27753
vt 0.08032 0.06602
vt 0.09484 0.07204
vt 0.08068 0.07450
vt 0.64418 0.22955
vt 0.64420 0.23316
vt 0.63418 0.22448
vt 0.11056 0.98348
vt 0.12296 0.98355
vt 0.11744 0.98641
vt 0.90857 0.02547
vt 0.90928 0.03366
vt 0.89896 0.02482
vt 0.53269 0.28416
vt 0.53427 0.26991
vt 0.54142 0.28089
vt 0.11056 0.98348
vt 0.11744 0.98641
vt 0.10455 0.98582
vt 0.53269 0.28416
vt 0.54059 0.28339
vt 0.54559 0.28427
vt 0.63323 0.11923
vt 0.64043 0.10901
vt 0.64056 0.11959
vt 0.54059 0.28339
vt 0.53269 0.28416
vt 0.54142 0.28089
vt 0.85875 0.75646
vt 0.85995 0.74871
vt 0.85903 0.77083
vt 0.04459 0.44080
vt 0.05105 0.45548
vt 0.04459 0.45544
vt 0.90439 0.54831
vt 0.89941 0.54658
vt 0.90779 0.53678
vt 0.91353 0.06376
vt 0.90064 0.06376
vt 0.91430 0.05301
vt 0.74753 0.40437
vt 0.74354 0.41894
vt 0.74255 0.40487
vt 0.90928 0.03366
vt 0.89873 0.03455
vt 0.89896 0.02482
vt 0.76942 0.65458
vt 0.76942 0.63244
vt 0.77037 0.65801
vt 0.63358 0.10927
vt 0.63323 0.11923
vt 0.62419 0.11926
vt 0.96489 0.49107
vt 0.96903 0.49294
vt 0.96930 0.50351
vt 0.74753 0.40437
vt 0.75337 0.40788
vt 0.74354 0.41894
vt 0.95462 0.30530
vt 0.95462 0.29597
vt 0.96615 0.30568
vt 0.90123 0.05405
vt 0.91430 0.05301
vt 0.90064 0.06376
vt 0.76790 0.42619
vt 0.76164 0.43472
vt 0.75867 0.42619
vt 0.99610 0.32548
vt 0.99994 0.32123
vt 0.99976 0.32483
vt 0.74354 0.41894
vt 0.73880 0.41873
vt 0.74255 0.40487
vt 0.99610 0.32548
vt 0.99652 0.32134
vt 0.99994 0.32123
vt 0.74354 0.41894
vt 0.75287 0.40837
vt 0.74669 0.42089
vt 0.75867 0.42619
vt 0.75362 0.42086
vt 0.76790 0.42619
vt 0.95609 0.08217
vt 0.96293 0.08695
vt 0.95451 0.08521
vt 0.75437 0.40707
vt 0.75249 0.41466
vt 0.74669 0.42089
vt 0.77547 0.14966
vt 0.77637 0.14467
vt 0.78652 0.14449
vt 0.03528 0.02670
vt 0.04540 0.02418
vt 0.04461 0.02670
vt 0.03659 0.59733
vt 0.03697 0.61197
vt 0.02537 0.61197
vt 0.63685 0.23705
vt 0.64420 0.23316
vt 0.64629 0.23897
vt 0.75362 0.42086
vt 0.76726 0.41309
vt 0.76790 0.42619
vt 0.75295 0.42315
vt 0.74669 0.42089
vt 0.75249 0.41466
vt 0.15815 0.10198
vt 0.15494 0.09877
vt 0.16106 0.09863
vt 0.83894 0.92010
vt 0.83884 0.91046
vt 0.84151 0.91126
vt 0.75362 0.42086
vt 0.75575 0.40755
vt 0.76726 0.41309
vt 0.96615 0.30568
vt 0.95462 0.29597
vt 0.96769 0.29501
vt 0.74354 0.41894
vt 0.74669 0.42089
vt 0.73163 0.42710
vt 0.90317 0.00336
vt 0.90732 0.00201
vt 0.90729 0.00789
vt 0.65263 0.23489
vt 0.64629 0.23897
vt 0.64420 0.23316
vt 0.37554 0.27022
vt 0.37689 0.27594
vt 0.36931 0.27594
vt 0.15815 0.10198
vt 0.16106 0.09863
vt 0.17163 0.10226
vt 0.37554 0.27022
vt 0.36931 0.27594
vt 0.37325 0.25878
vt 0.04540 0.02418
vt 0.03528 0.02670
vt 0.03525 0.02377
vt 0.77547 0.14966
vt 0.78652 0.14449
vt 0.78706 0.15022
vt 0.03443 0.01946
vt 0.03186 0.02148
vt 0.03182 0.01852
vt 0.23825 0.93645
vt 0.23211 0.92880
vt 0.24031 0.93013
vt 0.03184 0.01852
vt 0.03186 0.02148
vt 0.03008 0.02070
vt 0.75237 0.42334
vt 0.75459 0.42941
vt 0.74669 0.42089
vt 0.94057 0.40829
vt 0.94788 0.40633
vt 0.94029 0.41953
vt 0.75237 0.42324
vt 0.75502 0.42441
vt 0.75566 0.42775
vt 0.76726 0.41309
vt 0.75575 0.40755
vt 0.75820 0.40595
vt 0.75141 0.00049
vt 0.74637 0.00049
vt 0.74931 0.00000
vt 0.83272 0.07964
vt 0.81872 0.07083
vt 0.83192 0.07045
vt 0.79105 0.14116
vt 0.78652 0.14449
vt 0.79108 0.13429
vt 0.37325 0.25878
vt 0.36931 0.27594
vt 0.36955 0.26918
vt 0.99515 0.71407
vt 0.99842 0.71407
vt 0.99665 0.71888
vt 0.75554 0.42769
vt 0.75459 0.42941
vt 0.75247 0.42337
vt 0.78031 0.63416
vt 0.77980 0.65630
vt 0.77037 0.65801
vt 0.78652 0.14449
vt 0.79105 0.14116
vt 0.78706 0.15022
vt 0.81872 0.07083
vt 0.83272 0.07964
vt 0.82452 0.08096
vt 0.66324 0.99526
vt 0.66265 0.99694
vt 0.66051 0.99720
vt 0.23825 0.93645
vt 0.22686 0.93957
vt 0.23211 0.92880
vt 0.64629 0.23897
vt 0.65263 0.23489
vt 0.65108 0.24079
vt 0.54744 0.12968
vt 0.55459 0.13267
vt 0.54874 0.13455
vt 0.98319 0.67231
vt 0.98343 0.66218
vt 0.99005 0.66276
vt 0.98451 0.15347
vt 0.97788 0.15480
vt 0.97788 0.14356
vt 0.96293 0.08695
vt 0.95609 0.08217
vt 0.96729 0.08396
vt 0.22686 0.93957
vt 0.22597 0.92634
vt 0.23211 0.92880
vt 0.98145 0.36908
vt 0.97149 0.36959
vt 0.97149 0.35777
vt 0.37554 0.27022
vt 0.37325 0.25878
vt 0.37752 0.26364
vt 0.39313 0.26991
vt 0.38797 0.26656
vt 0.39248 0.26644
vt 0.22597 0.92634
vt 0.22686 0.93957
vt 0.22023 0.93223
vt 0.55459 0.13267
vt 0.56449 0.12404
vt 0.56538 0.13390
vt 0.55029 0.12374
vt 0.56449 0.12404
vt 0.55459 0.13267
vt 0.29084 0.00653
vt 0.29221 0.01164
vt 0.28473 0.00659
vt 0.21689 0.93261
vt 0.22597 0.92634
vt 0.22023 0.93223
vt 0.96732 0.08178
vt 0.96729 0.08396
vt 0.95609 0.08217
vt 0.02724 0.31963
vt 0.02744 0.30516
vt 0.02972 0.30485
vt 0.38797 0.26656
vt 0.37752 0.26364
vt 0.38975 0.26103
vt 0.74669 0.42089
vt 0.75459 0.42941
vt 0.75545 0.43570
vt 0.38797 0.26656
vt 0.38975 0.26103
vt 0.39248 0.26644
vt 0.28473 0.00659
vt 0.29221 0.01164
vt 0.28602 0.01178
vt 0.99005 0.66276
vt 0.99059 0.67197
vt 0.98319 0.67231
vt 0.28802 0.17547
vt 0.31119 0.17234
vt 0.31010 0.17385
vt 0.38975 0.26103
vt 0.37752 0.26364
vt 0.38016 0.25746
vt 0.37752 0.26364
vt 0.37325 0.25878
vt 0.38016 0.25746
vt 0.98150 0.35934
vt 0.98145 0.36908
vt 0.97149 0.35777
vt 0.35340 0.17432
vt 0.35487 0.17858
vt 0.34831 0.17597
vt 0.39313 0.26991
vt 0.39248 0.26644
vt 0.39813 0.26400
vt 0.81872 0.07083
vt 0.82452 0.08096
vt 0.81795 0.08028
vt 0.90088 0.03602
vt 0.91121 0.03508
vt 0.91121 0.04114
vt 0.35956 0.17988
vt 0.35487 0.17858
vt 0.35340 0.17432
vt 0.33926 0.18814
vt 0.35014 0.19480
vt 0.33910 0.19373
vt 0.94788 0.40633
vt 0.94835 0.42048
vt 0.94029 0.41953
vt 0.75459 0.42941
vt 0.75935 0.43559
vt 0.75545 0.43570
vt 0.98264 0.54428
vt 0.97242 0.53323
vt 0.98264 0.53302
vt 0.87854 0.98437
vt 0.88918 0.99087
vt 0.87793 0.99138
vt 0.97788 0.14356
vt 0.98356 0.14403
vt 0.98451 0.15347
vt 0.93005 0.44633
vt 0.93003 0.45953
vt 0.92295 0.46362
vt 0.92264 0.44635
vt 0.93005 0.44633
vt 0.92295 0.46362
vt 0.00249 0.03442
vt 0.00345 0.03083
vt 0.00351 0.03649
vt 0.89978 0.04138
vt 0.90088 0.03602
vt 0.91121 0.04114
vt 0.99088 0.17040
vt 0.99088 0.18037
vt 0.98100 0.16995
vt 0.92295 0.46362
vt 0.91755 0.45466
vt 0.92264 0.44635
vt 0.04439 0.64037
vt 0.04394 0.65701
vt 0.04170 0.65223
vt 0.34947 0.18995
vt 0.35014 0.19480
vt 0.33926 0.18814
vt 0.88039 0.94571
vt 0.88758 0.96114
vt 0.88036 0.96522
vt 0.97037 0.05166
vt 0.97373 0.05169
vt 0.97373 0.06208
vt 0.88367 0.25194
vt 0.88277 0.23549
vt 0.88515 0.24644
vt 0.88515 0.24644
vt 0.88276 0.23549
vt 0.88504 0.23826
vt 0.98100 0.16995
vt 0.99088 0.18037
vt 0.98042 0.18032
vt 0.34947 0.18995
vt 0.35487 0.17858
vt 0.35014 0.19480
vt 0.88918 0.99087
vt 0.87854 0.98437
vt 0.89022 0.98480
vt 0.87556 0.25231
vt 0.88282 0.23549
vt 0.88367 0.25194
vt 0.86979 0.25221
vt 0.86448 0.24080
vt 0.86777 0.23643
vt 0.35487 0.17858
vt 0.35956 0.17988
vt 0.35014 0.19480
vt 0.86777 0.23643
vt 0.87556 0.25231
vt 0.86979 0.25221
vt 0.32243 0.21398
vt 0.32243 0.24075
vt 0.31142 0.22695
vt 0.97037 0.05166
vt 0.97373 0.06208
vt 0.97037 0.06335
vt 0.88277 0.23563
vt 0.87556 0.25231
vt 0.86777 0.23643
vt 0.98264 0.54428
vt 0.97233 0.54466
vt 0.97242 0.53323
vt 0.86777 0.23643
vt 0.87739 0.23270
vt 0.88285 0.23554
vt 0.45030 0.94766
vt 0.45030 0.94766
vt 0.45030 0.94766
vt 0.45030 0.94766
vt 0.45030 0.94766
vt 0.45030 0.94766
vt 0.45030 0.94766
vt 0.45030 0.94766
vt 0.45030 0.94766
vt 0.45030 0.94766
vt 0.45030 0.94766
vt 0.45030 0.94766
vt 0.45030 0.94766
vt 0.45030 0.94766
vt 0.45030 0.94766
vt 0.45030 0.94766
vt 0.45030 0.94766
vt 0.45030 0.94766
vt 0.45030 0.94766
vt 0.45030 0.94766
vt 0.45030 0.94766
vt 0.45030 0.94766
vt 0.45030 0.94766
vt 0.45030 0.94766
vt 0.45030 0.94766
vt 0.45030 0.94766
vt 0.45030 0.94766
vn 0.7902 -0.5612 0.2461
vn 0.6850 -0.2288 -0.6917
vn 0.9890 0.0860 -0.1205
vn 0.6583 0.4804 -0.5795
vn 0.9636 -0.2180 0.1549
vn 0.8055 -0.5491 -0.2230
vn 0.9890 0.0860 -0.1205
vn 0.6583 0.4804 -0.5795
vn 0.8055 -0.5491 -0.2230
vn 0.9636 -0.2180 0.1549
vn 0.8154 -0.1020 0.5699
vn 0.6937 -0.7200 -0.0178
vn 0.3899 0.4445 -0.8065
vn 0.9890 0.0860 -0.1205
vn 0.6850 -0.2288 -0.6917
vn 0.7419 0.3465 -0.5740
vn 0.5231 -0.6413 -0.5613
vn 0.7144 -0.1474 -0.6840
vn 0.8154 -0.1020 0.5699
vn 0.9636 -0.2180 0.1549
vn 0.9628 0.2631 -0.0614
vn 0.3899 0.4445 -0.8065
vn 0.6583 0.4804 -0.5795
vn 0.9890 0.0860 -0.1205
vn 0.8154 -0.1020 0.5699
vn 0.9628 0.2631 -0.0614
vn 0.9224 -0.1911 0.3356
vn 0.6850 -0.2288 -0.6917
vn 0.7902 -0.5612 0.2461
vn -0.4388 -0.6489 -0.6216
vn 0.8154 -0.1020 0.5699
vn 0.9224 -0.1911 0.3356
vn 0.6937 -0.7200 -0.0178
vn 0.9628 0.2631 -0.0614
vn 0.6878 0.5021 -0.5242
vn 0.9224 -0.1911 0.3356
vn 0.9224 -0.1911 0.3356
vn 0.5770 -0.6341 -0.5148
vn 0.6937 -0.7200 -0.0178
vn 0.9224 -0.1911 0.3356
vn 0.6878 0.5021 -0.5242
vn 0.7144 -0.1474 -0.6840
vn 0.9224 -0.1911 0.3356
vn 0.7144 -0.1474 -0.6840
vn 0.5770 -0.6341 -0.5148
vn 0.5231 -0.6413 -0.5613
vn 0.3516 -0.5000 -0.7914
vn 0.7144 -0.1474 -0.6840
vn -0.2155 -0.9715 -0.0991
vn 0.9890 0.0860 -0.1205
vn 0.8055 -0.5491 -0.2230
vn 0.7902 -0.5612 0.2461
vn -0.3173 -0.9190 0.2340
vn -0.4388 -0.6489 -0.6216
vn 0.6583 0.4804 -0.5795
vn 0.2963 0.9363 -0.1885
vn 0.9636 -0.2180 0.1549
vn 0.5770 -0.6341 -0.5148
vn 0.7144 -0.1474 -0.6840
vn 0.3516 -0.5000 -0.7914
vn 0.9628 0.2631 -0.0614
vn 0.9636 -0.2180 0.1549
vn 0.2963 0.9363 -0.1885
vn 0.3516 -0.5000 -0.7914
vn 0.3588 -0.8705 -0.3368
vn -0.0032 -0.7817 -0.6236
vn 0.3516 -0.5000 -0.7914
vn -0.0032 -0.7817 -0.6236
vn 0.5770 -0.6341 -0.5148
vn 0.2963 0.9363 -0.1885
vn 0.6583 0.4804 -0.5795
vn 0.3872 0.4646 -0.7964
vn 0.6583 0.4804 -0.5795
vn -0.5156 -0.0938 -0.8517
vn 0.3872 0.4646 -0.7964
vn 0.6937 -0.7200 -0.0178
vn 0.3499 -0.9142 -0.2044
vn 0.9636 -0.2180 0.1549
vn 0.5231 -0.6413 -0.5613
vn 0.6365 -0.6728 -0.3772
vn 0.3588 -0.8705 -0.3368
vn 0.5231 -0.6413 -0.5613
vn 0.3588 -0.8705 -0.3368
vn 0.3516 -0.5000 -0.7914
vn 0.9890 0.0860 -0.1205
vn -0.2155 -0.9715 -0.0991
vn -0.4443 -0.8628 -0.2413
vn 0.6850 -0.2288 -0.6917
vn -0.4388 -0.6489 -0.6216
vn 0.3899 0.4445 -0.8065
vn 0.7902 -0.5612 0.2461
vn 0.9890 0.0860 -0.1205
vn -0.3173 -0.9190 0.2340
vn 0.3499 -0.9142 -0.2044
vn 0.6937 -0.7200 -0.0178
vn 0.5770 -0.6341 -0.5148
vn 0.8055 -0.5491 -0.2230
vn 0.9636 -0.2180 0.1549
vn 0.3917 -0.8628 0.3195
vn -0.4388 -0.6489 -0.6216
vn -0.3173 -0.9190 0.2340
vn -0.4443 -0.8628 -0.2413
vn -0.3173 -0.9190 0.2340
vn 0.9890 0.0860 -0.1205
vn -0.4443 -0.8628 -0.2413
vn 0.6583 0.4804 -0.5795
vn -0.7626 0.0833 -0.6415
vn -0.5156 -0.0938 -0.8517
vn -0.2155 -0.9715 -0.0991
vn 0.8055 -0.5491 -0.2230
vn 0.3917 -0.8628 0.3195
vn 0.3588 -0.8705 -0.3368
vn 0.8039 -0.4758 0.3569
vn 0.4577 -0.5953 -0.6604
vn 0.3499 -0.9142 -0.2044
vn 0.3917 -0.8628 0.3195
vn 0.9636 -0.2180 0.1549
vn -0.5156 -0.0938 -0.8517
vn -0.7283 0.1294 -0.6729
vn 0.3872 0.4646 -0.7964
vn 0.3588 -0.8705 -0.3368
vn 0.6365 -0.6728 -0.3772
vn 0.8039 -0.4758 0.3569
vn 0.3499 -0.9142 -0.2044
vn 0.5770 -0.6341 -0.5148
vn 0.2231 -0.9301 0.2918
vn 0.5770 -0.6341 -0.5148
vn -0.0032 -0.7817 -0.6236
vn 0.0760 -0.9941 -0.0768
vn -0.2155 -0.9715 -0.0991
vn -0.6410 -0.4891 -0.5916
vn -0.4443 -0.8628 -0.2413
vn -0.2155 -0.9715 -0.0991
vn 0.3917 -0.8628 0.3195
vn -0.0520 -0.8240 -0.5643
vn -0.4443 -0.8628 -0.2413
vn -0.7626 0.0833 -0.6415
vn -0.4388 -0.6489 -0.6216
vn 0.3917 -0.8628 0.3195
vn 0.3499 -0.9142 -0.2044
vn 0.6843 -0.6145 0.3926
vn -0.0520 -0.8240 -0.5643
vn 0.3917 -0.8628 0.3195
vn 0.6843 -0.6145 0.3926
vn 0.4618 -0.7526 -0.4694
vn 0.3588 -0.8705 -0.3368
vn 0.4577 -0.5953 -0.6604
vn 0.3899 0.4445 -0.8065
vn -0.4388 -0.6489 -0.6216
vn -0.7626 0.0833 -0.6415
vn -0.6410 -0.4891 -0.5916
vn -0.2155 -0.9715 -0.0991
vn -0.0520 -0.8240 -0.5643
vn -0.0032 -0.7817 -0.6236
vn 0.3588 -0.8705 -0.3368
vn 0.2544 -0.8924 -0.3728
vn 0.4618 -0.7526 -0.4694
vn 0.4756 -0.7010 -0.5314
vn 0.3588 -0.8705 -0.3368
vn -0.7626 0.0833 -0.6415
vn 0.6583 0.4804 -0.5795
vn 0.3899 0.4445 -0.8065
vn 0.6843 -0.6145 0.3926
vn 0.7643 -0.6437 -0.0381
vn -0.0520 -0.8240 -0.5643
vn 0.5950 -0.2109 -0.7756
vn 0.8899 -0.0244 0.4555
vn 0.7202 -0.6909 0.0634
vn -0.0520 -0.8240 -0.5643
vn 0.7643 -0.6437 -0.0381
vn 0.8064 0.1132 -0.5805
vn 0.8899 -0.0244 0.4555
vn -0.2363 -0.9030 0.3588
vn 0.7202 -0.6909 0.0634
vn 0.5770 -0.6341 -0.5148
vn 0.0760 -0.9941 -0.0768
vn 0.2231 -0.9301 0.2918
vn -0.4443 -0.8628 -0.2413
vn -0.5156 -0.0938 -0.8517
vn -0.7626 0.0833 -0.6415
vn 0.9828 -0.1255 -0.1353
vn 0.8064 0.1132 -0.5805
vn 0.7643 -0.6437 -0.0381
vn -0.4443 -0.8628 -0.2413
vn -0.6410 -0.4891 -0.5916
vn -0.5156 -0.0938 -0.8517
vn 0.8039 -0.4758 0.3569
vn 0.6365 -0.6728 -0.3772
vn 0.7811 -0.6240 -0.0223
vn 0.8899 -0.0244 0.4555
vn 0.4254 0.3530 -0.8333
vn 0.8064 0.1132 -0.5805
vn 0.4577 -0.5953 -0.6604
vn 0.8039 -0.4758 0.3569
vn 0.7811 -0.6240 -0.0223
vn 0.9828 -0.1255 -0.1353
vn 0.7643 -0.6437 -0.0381
vn -0.2828 -0.9507 0.1275
vn -0.4765 -0.2318 -0.8481
vn -0.6410 -0.4891 -0.5916
vn -0.0520 -0.8240 -0.5643
vn -0.4954 -0.4770 0.7260
vn 0.8899 -0.0244 0.4555
vn 0.9828 -0.1255 -0.1353
vn -0.7283 0.1294 -0.6729
vn -0.7720 0.6352 0.0227
vn 0.3872 0.4646 -0.7964
vn 0.5950 -0.2109 -0.7756
vn 0.4254 0.3530 -0.8333
vn 0.8899 -0.0244 0.4555
vn -0.5156 -0.0938 -0.8517
vn -0.6410 -0.4891 -0.5916
vn -0.7283 0.1294 -0.6729
vn -0.6410 -0.4891 -0.5916
vn -0.4765 -0.2318 -0.8481
vn -0.7283 0.1294 -0.6729
vn 0.8064 0.1132 -0.5805
vn 0.9828 -0.1255 -0.1353
vn 0.8899 -0.0244 0.4555
vn 0.4577 -0.5953 -0.6604
vn 0.7811 -0.6240 -0.0223
vn 0.4618 -0.7526 -0.4694
vn 0.4756 -0.7010 -0.5314
vn 0.2544 -0.8924 -0.3728
vn 0.3588 -0.8705 -0.3368
vn -0.4765 -0.2318 -0.8481
vn -0.0520 -0.8240 -0.5643
vn 0.8064 0.1132 -0.5805
vn 0.7202 -0.6909 0.0634
vn -0.2363 -0.9030 0.3588
vn 0.5950 -0.2109 -0.7756
vn 0.8064 0.1132 -0.5805
vn 0.4254 0.3530 -0.8333
vn 0.2107 0.8747 -0.4365
vn -0.4765 -0.2318 -0.8481
vn 0.8064 0.1132 -0.5805
vn 0.1902 0.5289 -0.8271
vn 0.8064 0.1132 -0.5805
vn 0.6248 0.3011 -0.7204
vn 0.1902 0.5289 -0.8271
vn -0.4954 -0.4770 0.7260
vn 0.9828 -0.1255 -0.1353
vn -0.5384 -0.8323 -0.1323
vn 0.6248 0.3011 -0.7204
vn 0.8064 0.1132 -0.5805
vn 0.2107 0.8747 -0.4365
vn 0.7811 -0.6240 -0.0223
vn 0.7211 -0.5734 0.3890
vn 0.4618 -0.7526 -0.4694
vn 0.1379 0.9889 0.0556
vn -0.4765 -0.2318 -0.8481
vn 0.1902 0.5289 -0.8271
vn -0.7283 0.1294 -0.6729
vn -0.4765 -0.2318 -0.8481
vn -0.7720 0.6352 0.0227
vn 0.4254 0.3530 -0.8333
vn 0.5950 -0.2109 -0.7756
vn -0.7758 0.0054 -0.6310
vn 0.6843 -0.6145 0.3926
vn 0.4136 -0.7515 0.5140
vn 0.7643 -0.6437 -0.0381
vn -0.2363 -0.9030 0.3588
vn -0.6062 -0.5486 -0.5759
vn 0.5950 -0.2109 -0.7756
vn 0.4618 -0.7526 -0.4694
vn 0.7211 -0.5734 0.3890
vn 0.3930 -0.5756 -0.7172
vn 0.8899 -0.0244 0.4555
vn -0.4954 -0.4770 0.7260
vn -0.2363 -0.9030 0.3588
vn -0.2828 -0.9507 0.1275
vn -0.5384 -0.8323 -0.1323
vn 0.9828 -0.1255 -0.1353
vn 0.6843 -0.6145 0.3926
vn 0.3499 -0.9142 -0.2044
vn 0.4136 -0.7515 0.5140
vn -0.8483 0.5223 -0.0870
vn 0.2107 0.8747 -0.4365
vn -0.7758 0.0054 -0.6310
vn -0.6062 -0.5486 -0.5759
vn -0.7758 0.0054 -0.6310
vn 0.5950 -0.2109 -0.7756
vn -0.6062 -0.5486 -0.5759
vn -0.2363 -0.9030 0.3588
vn -0.4954 -0.4770 0.7260
vn 0.4618 -0.7526 -0.4694
vn 0.2544 -0.8924 -0.3728
vn 0.4756 -0.7010 -0.5314
vn 0.4136 -0.7515 0.5140
vn -0.2828 -0.9507 0.1275
vn 0.7643 -0.6437 -0.0381
vn 0.4618 -0.7526 -0.4694
vn 0.3930 -0.5756 -0.7172
vn 0.2544 -0.8924 -0.3728
vn 0.4136 -0.7515 0.5140
vn 0.3499 -0.9142 -0.2044
vn 0.4390 -0.7307 0.5229
vn -0.4954 -0.4770 0.7260
vn -0.5384 -0.8323 -0.1323
vn -0.6062 -0.5486 -0.5759
vn 0.3930 -0.5756 -0.7172
vn 0.2824 -0.7440 -0.6056
vn 0.2544 -0.8924 -0.3728
vn 0.3499 -0.9142 -0.2044
vn 0.2231 -0.9301 0.2918
vn 0.4390 -0.7307 0.5229
vn 0.1902 0.5289 -0.8271
vn 0.6248 0.3011 -0.7204
vn -0.7908 -0.1825 -0.5843
vn -0.8483 0.5223 -0.0870
vn 0.6248 0.3011 -0.7204
vn 0.2107 0.8747 -0.4365
vn 0.1379 0.9889 0.0556
vn 0.1902 0.5289 -0.8271
vn -0.7395 0.1814 -0.6483
vn -0.0032 -0.7817 -0.6236
vn 0.2544 -0.8924 -0.3728
vn -0.1246 -0.7459 -0.6543
vn -0.5384 -0.8323 -0.1323
vn -0.7758 0.0054 -0.6310
vn -0.6062 -0.5486 -0.5759
vn 0.0760 -0.9941 -0.0768
vn 0.4390 -0.7307 0.5229
vn 0.2231 -0.9301 0.2918
vn -0.5384 -0.8323 -0.1323
vn -0.2828 -0.9507 0.1275
vn 0.1149 -0.4104 -0.9047
vn -0.0032 -0.7817 -0.6236
vn -0.1246 -0.7459 -0.6543
vn 0.0760 -0.9941 -0.0768
vn -0.5384 -0.8323 -0.1323
vn -0.7908 -0.1825 -0.5843
vn -0.7758 0.0054 -0.6310
vn -0.7758 0.0054 -0.6310
vn 0.2107 0.8747 -0.4365
vn 0.4254 0.3530 -0.8333
vn 0.4136 -0.7515 0.5140
vn 0.4390 -0.7307 0.5229
vn -0.2787 -0.7030 0.6543
vn -0.2828 -0.9507 0.1275
vn 0.4136 -0.7515 0.5140
vn 0.1149 -0.4104 -0.9047
vn 0.2824 -0.7440 -0.6056
vn -0.1246 -0.7459 -0.6543
vn 0.2544 -0.8924 -0.3728
vn 0.1149 -0.4104 -0.9047
vn 0.4136 -0.7515 0.5140
vn 0.6981 -0.7041 -0.1300
vn -0.5384 -0.8323 -0.1323
vn 0.1149 -0.4104 -0.9047
vn -0.7908 -0.1825 -0.5843
vn 0.1149 -0.4104 -0.9047
vn 0.6981 -0.7041 -0.1300
vn 0.2729 0.2814 -0.9199
vn 0.6248 0.3011 -0.7204
vn -0.8483 0.5223 -0.0870
vn -0.7908 -0.1825 -0.5843
vn 0.1902 0.5289 -0.8271
vn -0.7908 -0.1825 -0.5843
vn -0.7395 0.1814 -0.6483
vn -0.1246 -0.7459 -0.6543
vn -0.0541 -0.3719 -0.9267
vn 0.0760 -0.9941 -0.0768
vn 0.6239 -0.3686 -0.6891
vn 0.9083 0.1028 0.4056
vn 0.7526 -0.6093 0.2498
vn 0.0760 -0.9941 -0.0768
vn -0.0541 -0.3719 -0.9267
vn 0.1020 -0.9696 0.2222
vn 0.0760 -0.9941 -0.0768
vn 0.5026 -0.8645 0.0098
vn 0.4390 -0.7307 0.5229
vn 0.6981 -0.7041 -0.1300
vn 0.4136 -0.7515 0.5140
vn -0.2381 -0.9658 0.1024
vn 0.0760 -0.9941 -0.0768
vn 0.1020 -0.9696 0.2222
vn 0.8665 -0.4968 -0.0489
vn -0.7758 0.0054 -0.6310
vn -0.7908 -0.1825 -0.5843
vn -0.8483 0.5223 -0.0870
vn -0.0541 -0.3719 -0.9267
vn 0.5026 -0.8645 0.0098
vn 0.8665 -0.4968 -0.0489
vn 0.7526 -0.6093 0.2498
vn -0.5950 -0.8008 0.0682
vn -0.2799 -0.8582 0.4304
vn 0.4578 0.0980 -0.8836
vn -0.7908 -0.1825 -0.5843
vn 0.1149 -0.4104 -0.9047
vn 0.2729 0.2814 -0.9199
vn 0.6981 -0.7041 -0.1300
vn 0.8532 -0.3010 -0.4259
vn -0.0541 -0.3719 -0.9267
vn -0.1246 -0.7459 -0.6543
vn 0.5026 -0.8645 0.0098
vn 0.8665 -0.4968 -0.0489
vn 0.5026 -0.8645 0.0098
vn 0.0760 -0.9941 -0.0768
vn -0.3010 -0.8192 0.4882
vn -0.4398 -0.8387 -0.3211
vn 0.3930 -0.5756 -0.7172
vn -0.7908 -0.1825 -0.5843
vn 0.4578 0.0980 -0.8836
vn -0.7395 0.1814 -0.6483
vn -0.5950 -0.8008 0.0682
vn 0.7526 -0.6093 0.2498
vn 0.9083 0.1028 0.4056
vn 0.1020 -0.9696 0.2222
vn -0.0541 -0.3719 -0.9267
vn 0.8665 -0.4968 -0.0489
vn 0.6239 -0.3686 -0.6891
vn 0.2973 0.4169 -0.8590
vn 0.9083 0.1028 0.4056
vn -0.1246 -0.7459 -0.6543
vn 0.2824 -0.7440 -0.6056
vn 0.5026 -0.8645 0.0098
vn -0.7978 0.0571 -0.6002
vn -0.4773 0.8487 -0.2277
vn -0.3192 0.6764 -0.6637
vn -0.5505 -0.6617 -0.5090
vn 0.6239 -0.3686 -0.6891
vn 0.7526 -0.6093 0.2498
vn 0.8532 -0.3010 -0.4259
vn 0.6981 -0.7041 -0.1300
vn -0.2381 -0.9658 0.1024
vn 0.2824 -0.7440 -0.6056
vn 0.3930 -0.5756 -0.7172
vn -0.0955 -0.9495 -0.2990
vn 0.2973 0.4169 -0.8590
vn 0.8532 -0.3010 -0.4259
vn 0.9083 0.1028 0.4056
vn -0.8074 0.0172 -0.5897
vn 0.2973 0.4169 -0.8590
vn 0.6239 -0.3686 -0.6891
vn 0.1149 -0.4104 -0.9047
vn 0.2729 0.2814 -0.9199
vn 0.4578 0.0980 -0.8836
vn -0.3192 0.6764 -0.6637
vn -0.4773 0.8487 -0.2277
vn 0.5252 0.7707 -0.3608
vn 0.8532 -0.3010 -0.4259
vn 0.2973 0.4169 -0.8590
vn 0.6078 0.4817 -0.6313
vn -0.4773 0.8487 -0.2277
vn -0.7395 0.1814 -0.6483
vn 0.4578 0.0980 -0.8836
vn -0.7742 0.6073 0.1782
vn -0.7395 0.1814 -0.6483
vn -0.4773 0.8487 -0.2277
vn 0.2824 -0.7440 -0.6056
vn -0.0955 -0.9495 -0.2990
vn 0.5026 -0.8645 0.0098
vn 0.2729 0.2814 -0.9199
vn 0.8532 -0.3010 -0.4259
vn 0.6078 0.4817 -0.6313
vn -0.4398 -0.8387 -0.3211
vn -0.0955 -0.9495 -0.2990
vn 0.3930 -0.5756 -0.7172
vn 0.4390 -0.7307 0.5229
vn 0.7551 -0.4486 0.4781
vn -0.2787 -0.7030 0.6543
vn -0.4773 0.8487 -0.2277
vn 0.4578 0.0980 -0.8836
vn 0.0914 0.9871 -0.1317
vn 0.4390 -0.7307 0.5229
vn 0.5026 -0.8645 0.0098
vn 0.7551 -0.4486 0.4781
vn -0.4773 0.8487 -0.2277
vn 0.0914 0.9871 -0.1317
vn 0.5252 0.7707 -0.3608
vn 0.5026 -0.8645 0.0098
vn -0.0955 -0.9495 -0.2990
vn 0.3365 -0.8061 -0.4868
vn 0.7526 -0.6093 0.2498
vn -0.2799 -0.8582 0.4304
vn -0.5505 -0.6617 -0.5090
vn -0.3010 -0.8192 0.4882
vn -0.0955 -0.9495 -0.2990
vn -0.4398 -0.8387 -0.3211
vn 0.0914 0.9871 -0.1317
vn 0.4578 0.0980 -0.8836
vn 0.2346 0.7529 -0.6149
vn 0.4578 0.0980 -0.8836
vn 0.2729 0.2814 -0.9199
vn 0.2346 0.7529 -0.6149
vn -0.5505 -0.6617 -0.5090
vn -0.8074 0.0172 -0.5897
vn 0.6239 -0.3686 -0.6891
vn 0.3365 -0.8061 -0.4868
vn -0.3302 -0.7155 -0.6157
vn 0.5026 -0.8645 0.0098
vn -0.3192 0.6764 -0.6637
vn 0.5252 0.7707 -0.3608
vn -0.0294 0.3129 -0.9493
vn -0.5950 -0.8008 0.0682
vn 0.9083 0.1028 0.4056
vn 0.8532 -0.3010 -0.4259
vn -0.8654 0.0652 -0.4968
vn 0.5252 0.7707 -0.3608
vn 0.0914 0.9871 -0.1317
vn -0.6035 -0.7051 -0.3724
vn -0.3302 -0.7155 -0.6157
vn 0.3365 -0.8061 -0.4868
vn 0.5252 0.7707 -0.3608
vn -0.7855 0.1380 -0.6032
vn 0.0513 0.6175 -0.7849
vn 0.4136 -0.7515 0.5140
vn -0.2787 -0.7030 0.6543
vn -0.2381 -0.9658 0.1024
vn 0.5026 -0.8645 0.0098
vn -0.3302 -0.7155 -0.6157
vn 0.7551 -0.4486 0.4781
vn -0.8308 0.3785 -0.4081
vn 0.0914 0.9871 -0.1317
vn 0.2346 0.7529 -0.6149
vn 0.2729 0.2814 -0.9199
vn -0.8308 0.3785 -0.4081
vn 0.2346 0.7529 -0.6149
vn -0.2381 -0.9658 0.1024
vn -0.5950 -0.8008 0.0682
vn 0.8532 -0.3010 -0.4259
vn -0.2799 -0.8582 0.4304
vn -0.5950 -0.8008 0.0682
vn -0.7977 -0.2458 -0.5508
vn -0.5505 -0.6617 -0.5090
vn -0.2799 -0.8582 0.4304
vn -0.7977 -0.2458 -0.5508
vn 0.7551 -0.4486 0.4781
vn -0.3302 -0.7155 -0.6157
vn -0.2787 -0.7030 0.6543
vn -0.8844 0.4127 0.2180
vn -0.8654 0.0652 -0.4968
vn 0.0914 0.9871 -0.1317
vn 0.2973 0.4169 -0.8590
vn -0.8074 0.0172 -0.5897
vn 0.6078 0.4817 -0.6313
vn -0.7977 -0.2458 -0.5508
vn -0.8074 0.0172 -0.5897
vn -0.5505 -0.6617 -0.5090
vn -0.5097 -0.5160 0.6884
vn 0.3365 -0.8061 -0.4868
vn -0.0955 -0.9495 -0.2990
vn -0.8654 0.0652 -0.4968
vn -0.7855 0.1380 -0.6032
vn 0.5252 0.7707 -0.3608
vn -0.5097 -0.5160 0.6884
vn -0.6035 -0.7051 -0.3724
vn 0.3365 -0.8061 -0.4868
vn 0.2729 0.2814 -0.9199
vn 0.6078 0.4817 -0.6313
vn -0.7977 -0.2458 -0.5508
vn -0.2381 -0.9658 0.1024
vn -0.8171 -0.1919 -0.5436
vn -0.5950 -0.8008 0.0682
vn -0.5950 -0.8008 0.0682
vn -0.8171 -0.1919 -0.5436
vn -0.7977 -0.2458 -0.5508
vn 0.6078 0.4817 -0.6313
vn -0.8074 0.0172 -0.5897
vn -0.7977 -0.2458 -0.5508
vn -0.8654 0.0652 -0.4968
vn -0.3302 -0.7155 -0.6157
vn -0.7855 0.1380 -0.6032
vn -0.8308 0.3785 -0.4081
vn 0.2729 0.2814 -0.9199
vn -0.8171 -0.1919 -0.5436
vn -0.2787 -0.7030 0.6543
vn -0.8171 -0.1919 -0.5436
vn -0.2381 -0.9658 0.1024
vn -0.3302 -0.7155 -0.6157
vn -0.8654 0.0652 -0.4968
vn -0.8844 0.4127 0.2180
vn -0.3302 -0.7155 -0.6157
vn -0.6035 -0.7051 -0.3724
vn -0.7855 0.1380 -0.6032
vn -0.8844 0.4127 0.2180
vn -0.2787 -0.7030 0.6543
vn -0.3302 -0.7155 -0.6157
vn -0.5097 -0.5160 0.6884
vn -0.7855 0.1380 -0.6032
vn -0.6035 -0.7051 -0.3724
vn 0.2729 0.2814 -0.9199
vn -0.7977 -0.2458 -0.5508
vn -0.8171 -0.1919 -0.5436
vn -0.8171 -0.1919 -0.5436
vn -0.2787 -0.7030 0.6543
vn -0.8844 0.4127 0.2180
vn -0.8308 0.3785 -0.4081
vn -0.8844 0.4127 0.2180
vn 0.0914 0.9871 -0.1317
vn -0.8844 0.4127 0.2180
vn -0.8308 0.3785 -0.4081
vn -0.8171 -0.1919 -0.5436
vn 0.0000 1.0000 0.0000
vn 0.0000 1.0000 0.0000
vn 0.0000 1.0000 0.0000
vn 0.0000 1.0000 0.0000
vn 0.0000 1.0000 0.0000
vn 0.0000 1.0000 0.0000
vn 0.0000 1.0000 0.0000
vn 0.0000 1.0000 0.0000
vn 0.0000 1.0000 0.0000
vn 0.0000 1.0000 0.0000
vn 0.0000 1.0000 0.0000
vn 0.0000 1.0000 0.0000
vn 0.0000 1.0000 0.0000
vn 0.0000 1.0000 0.0000
vn 0.0000 1.0000 0.0000
vn 0.0000 1.0000 0.0000
vn 0.0000 1.0000 0.0000
vn 0.0000 1.0000 0.0000
vn 0.0000 1.0000 0.0000
vn 0.0000 1.0000 0.0000
vn 0.0000 1.0000 0.0000
vn 0.0000 1.0000 0.0000
vn 0.0000 1.0000 0.0000
vn 0.0000 1.0000 0.0000
vn 0.0000 1.0000 0.0000
vn 0.0000 1.0000 0.0000
vn 0.0000 1.0000 0.0000
f 1/1/1 2/2/2 3/3/3
f 4/4/4 5/5/5 6/6/6
f 7/7/7 8/8/8 9/9/9
f 10/10/10 11/11/11 12/12/12
f 13/13/13 14/14/14 15/15/15
f 16/16/16 17/17/17 18/18/18
f 19/19/19 20/20/20 21/21/21
f 22/22/22 23/23/23 24/24/24
f 25/25/25 26/26/26 27/27/27
f 28/28/28 29/29/29 30/30/30
f 31/31/31 32/32/32 33/33/33
f 34/34/34 35/35/35 36/36/36
f 37/37/37 38/38/38 39/39/39
f 40/40/40 41/41/41 42/42/42
f 43/43/43 44/44/44 45/45/45
f 46/46/46 47/47/47 48/48/48
f 49/49/49 50/50/50 51/51/51
f 52/52/52 53/53/53 54/54/54
f 55/55/55 56/56/56 57/57/57
f 58/58/58 59/59/59 60/60/60
f 61/61/61 62/62/62 63/63/63
f 64/64/64 65/65/65 66/66/66
f 67/67/67 68/68/68 69/69/69
f 70/70/70 71/71/71 72/72/72
f 73/73/73 74/74/74 75/75/75
f 76/76/76 77/77/77 78/78/78
f 79/79/79 80/80/80 81/81/81
f 82/82/82 83/83/83 84/84/84
f 85/85/85 86/86/86 87/87/87
f 88/88/88 89/89/89 90/90/90
f 91/91/91 92/92/92 93/93/93
f 94/94/94 95/95/95 96/96/96
f 97/97/97 98/98/98 99/99/99
f 100/100/100 101/101/101 102/102/102
f 103/103/103 104/104/104 105/105/105
f 106/106/106 107/107/107 108/108/108
f 109/109/109 110/110/110 111/111/111
f 112/112/112 113/113/113 114/114/114
f 115/115/115 116/116/116 117/117/117
f 118/118/118 119/119/119 120/120/120
f 121/121/121 122/122/122 123/123/123
f 124/124/124 125/125/125 126/126/126
f 127/127/127 128/128/128 129/129/129
f 130/130/130 131/131/131 132/132/132
f 133/133/133 134/134/134 135/135/135
f 136/136/136 137/137/137 138/138/138
f 139/139/139 140/140/140 141/141/141
f 142/142/142 143/143/143 144/144/144
f 145/145/145 146/146/146 147/147/147
f 148/148/148 149/149/149 150/150/150
f 151/151/151 152/152/152 153/153/153
f 154/154/154 155/155/155 156/156/156
f 157/157/157 158/158/158 159/159/159
f 160/160/160 161/161/161 162/162/162
f 163/163/163 164/164/164 165/165/165
f 166/166/166 167/167/167 168/168/168
f 169/169/169 170/170/170 171/171/171
f 172/172/172 173/173/173 174/174/174
f 175/175/175 176/176/176 177/177/177
f 178/178/178 179/179/179 180/180/180
f 181/181/181 182/182/182 183/183/183
f 184/184/184 185/185/185 186/186/186
f 187/187/187 188/188/188 189/189/189
f 190/190/190 191/191/191 192/192/192
f 193/193/193 194/194/194 195/195/195
f 196/196/196 197/197/197 198/198/198
f 199/199/199 200/200/200 201/201/201
f 202/202/202 203/203/203 204/204/204
f 205/205/205 206/206/206 207/207/207
f 208/208/208 209/209/209 210/210/210
f 211/211/211 212/212/212 213/213/213
f 214/214/214 215/215/215 216/216/216
f 217/217/217 218/218/218 219/219/219
f 220/220/220 221/221/221 222/222/222
f 223/223/223 224/224/224 225/225/225
f 226/226/226 227/227/227 228/228/228
f 229/229/229 230/230/230 231/231/231
f 232/232/232 233/233/233 234/234/234
f 235/235/235 236/236/236 237/237/237
f 238/238/238 239/239/239 240/240/240
f 241/241/241 242/242/242 243/243/243
f 244/244/244 245/245/245 246/246/246
f 247/247/247 248/248/248 249/249/249
f 250/250/250 251/251/251 252/252/252
f 253/253/253 254/254/254 255/255/255
f 256/256/256 257/257/257 258/258/258
f 259/259/259 260/260/260 261/261/261
f 262/262/262 263/263/263 264/264/264
f 265/265/265 266/266/266 267/267/267
f 268/268/268 269/269/269 270/270/270
f 271/271/271 272/272/272 273/273/273
f 274/274/274 275/275/275 276/276/276
f 277/277/277 278/278/278 279/279/279
f 280/280/280 281/281/281 282/282/282
f 283/283/283 284/284/284 285/285/285
f 286/286/286 287/287/287 288/288/288
f 289/289/289 290/290/290 291/291/291
f 292/292/292 293/293/293 294/294/294
f 295/295/295 296/296/296 297/297/297
f 298/298/298 299/299/299 300/300/300
f 301/301/301 302/302/302 303/303/303
f 304/304/304 305/305/305 306/306/306
f 307/307/307 308/308/308 309/309/309
f 310/310/310 311/311/311 312/312/312
f 313/313/313 314/314/314 315/315/315
f 316/316/316 317/317/317 318/318/318
f 319/319/319 320/320/320 321/321/321
f 322/322/322 323/323/323 324/324/324
f 325/325/325 326/326/326 327/327/327
f 328/328/328 329/329/329 330/330/330
f 331/331/331 332/332/332 333/333/333
f 334/334/334 335/335/335 336/336/336
f 337/337/337 338/338/338 339/339/339
f 340/340/340 341/341/341 342/342/342
f 343/343/343 344/344/344 345/345/345
f 346/346/346 347/347/347 348/348/348
f 349/349/349 350/350/350 351/351/351
f 352/352/352 353/353/353 354/354/354
f 355/355/355 356/356/356 357/357/357
f 358/358/358 359/359/359 360/360/360
f 361/361/361 362/362/362 363/363/363
f 364/364/364 365/365/365 366/366/366
f 367/367/367 368/368/368 369/369/369
f 370/370/370 371/371/371 372/372/372
f 373/373/373 374/374/374 375/375/375
f 376/376/376 377/377/377 378/378/378
f 379/379/379 380/380/380 381/381/381
f 382/382/382 383/383/383 384/384/384
f 385/385/385 386/386/386 387/387/387
f 388/388/388 389/389/389 390/390/390
f 391/391/391 392/392/392 393/393/393
f 394/394/394 395/395/395 396/396/396
f 397/397/397 398/398/398 399/399/399
f 400/400/400 401/401/401 402/402/402
f 403/403/403 404/404/404 405/405/405
f 406/406/406 407/407/407 408/408/408
f 409/409/409 410/410/410 411/411/411
f 412/412/412 413/413/413 414/414/414
f 415/415/415 416/416/416 417/417/417
f 418/418/418 419/419/419 420/420/420
f 421/421/421 422/422/422 423/423/423
f 424/424/424 425/425/425 426/426/426
f 427/427/427 428/428/428 429/429/429
f 430/430/430 431/431/431 432/432/432
f 433/433/433 434/434/434 435/435/435
f 436/436/436 437/437/437 438/438/438
f 439/439/439 440/440/440 441/441/441
f 442/442/442 443/443/443 444/444/444
f 445/445/445 446/446/446 447/447/447
f 448/448/448 449/449/449 450/450/450
f 451/451/451 452/452/452 453/453/453
f 454/454/454 455/455/455 456/456/456
f 457/457/457 458/458/458 459/459/459
f 460/460/460 461/461/461 462/462/462
f 463/463/463 464/464/464 465/465/465
f 466/466/466 467/467/467 468/468/468
f 469/469/469 470/470/470 471/471/471
f 472/472/472 473/473/473 474/474/474
f 475/475/475 476/476/476 477/477/477
f 478/478/478 479/479/479 480/480/480
f 481/481/481 482/482/482 483/483/483
f 484/484/484 485/485/485 486/486/486
f 487/487/487 488/488/488 489/489/489
f 490/490/490 491/491/491 492/492/492
f 493/493/493 494/494/494 495/495/495
f 496/496/496 497/497/497 498/498/498
f 499/499/499 500/500/500 501/501/501
f 502/502/502 503/503/503 504/504/504
f 505/505/505 506/506/506 507/507/507
f 508/508/508 509/509/509 510/510/510
f 511/511/511 512/512/512 513/513/513
f 514/514/514 515/515/515 516/516/516
f 517/517/517 518/518/518 519/519/519
f 520/520/520 521/521/521 522/522/522
f 523/523/523 524/524/524 525/525/525
f 526/526/526 527/527/527 528/528/528
f 529/529/529 530/530/530 531/531/531
f 532/532/532 533/533/533 534/534/534
f 535/535/535 536/536/536 537/537/537
f 538/538/538 539/539/539 540/540/540
f 541/541/541 542/542/542 543/543/543
f 544/544/544 545/545/545 546/546/546
f 547/547/547 548/548/548 549/549/549
f 550/550/550 551/551/551 552/552/552
f 553/553/553 554/554/554 555/555/555
f 556/556/556 557/557/557 558/558/558
f 559/559/559 560/560/560 561/561/561
f 562/562/562 563/563/563 564/564/564
f 565/565/565 566/566/566 567/567/567
f 568/568/568 569/569/569 570/570/570
f 571/571/571 572/572/572 573/573/573
f 574/574/574 575/575/575 576/576/576
f 577/577/577 578/578/578 579/579/579
f 580/580/580 581/581/581 582/582/582
f 583/583/583 584/584/584 585/585/585
f 586/586/586 587/587/587 588/588/588
f 589/589/589 590/590/590 591/591/591
f 592/592/592 593/593/593 594/594/594
f 595/595/595 596/596/596 597/597/597
f 595/595/595 597/597/597 596/596/596
f 595/595/595 597/597/597 598/598/598
f 595/595/595 598/598/598 597/597/597
f 595/595/595 598/598/598 599/599/599
f 595/595/595 599/599/599 598/598/598
f 595/595/595 599/599/599 600/600/600
f 595/595/595 600/600/600 599/599/599
f 595/595/595 600/600/600 601/601/601
f 595/595/595 601/601/601 600/600/600
f 595/595/595 601/601/601 602/602/602
f 595/595/595 602/602/602 601/601/601
f 595/595/595 602/602/602 603/603/603
f 595/595/595 603/603/603 602/602/602
f 595/595/595 603/603/603 604/604/604
f 595/595/595 604/604/604 603/603/603
f 595/595/595 604/604/604 605/605/605
f 595/595/595 605/605/605 604/604/604
f 595/595/595 605/605/605 606/606/606
f 595/595/595 606/606/606 605/605/605
f 595/595/595 606/606/606 607/607/607
f 595/595/595 607/607/607 606/606/606
f 595/595/595 607/607/607 608/608/608
f 595/595/595 608/608/608 607/607/607
f 595/595/595 608/608/608 609/609/609
f 595/595/595 609/609/609 608/608/608
f 595/595/595 609/609/609 610/610/610
f 595/595/595 610/610/610 609/609/609
f 595/595/595 610/610/610 611/611/611
f 595/595/595 611/611/611 610/610/610
f 595/595/595 611/611/611 612/612/612
f 595/595/595 612/612/612 611/611/611
f 595/595/595 612/612/612 613/613/613
f 595/595/595 613/613/613 612/612/612
f 595/595/595 613/613/613 614/614/614
f 595/595/595 614/614/614 613/613/613
f 595/595/595 614/614/614 615/615/615
f 595/595/595 615/615/615 614/614/614
f 595/595/595 615/615/615 616/616/616
f 595/595/595 616/616/616 615/615/615
f 595/595/595 616/616/616 617/617/617
f 595/595/595 617/617/617 616/616/616
f 595/595/595 617/617/617 618/618/618
f 595/595/595 618/618/618 617/617/617
f 595/595/595 618/618/618 619/619/619
f 595/595/595 619/619/619 618/618/618
f 595/595/595 619/619/619 620/620/620
f 595/595/595 620/620/620 619/619/619
f 595/595/595 620/620/620 621/621/621
f 595/595/595 621/621/621 620/620/620
f 595/595/595 621/621/621 596/596/596
f 595/595/595 596/596/596 621/621/621
