o forearm_right
v 3.06755 4.51430 -1.15321
v 2.94227 4.54068 -1.32212
v 2.87474 4.94315 -1.60223
v 3.16237 5.06908 -1.01236
v 2.87474 4.94315 -1.60223
v 2.90402 5.17469 -1.57295
v 2.87474 4.94315 -1.60223
v 2.94227 4.54068 -1.32212
v 2.80237 4.45903 -1.63987
v 2.90921 4.40820 -1.34349
v 2.80237 4.45903 -1.63987
v 2.94227 4.54068 -1.32212
v 2.90780 4.29711 -1.15193
v 2.90921 4.40820 -1.34349
v 2.94227 4.54068 -1.32212
v 2.82184 4.25784 -1.48384
v 2.90921 4.40820 -1.34349
v 2.90780 4.29711 -1.15193
v 2.80237 4.45903 -1.63987
v 2.90921 4.40820 -1.34349
v 2.82184 4.25784 -1.48384
v 2.77156 5.03825 -2.03719
v 2.83157 5.12504 -1.69383
v 2.83164 4.95315 -1.69192
v 2.87474 4.94315 -1.60223
v 2.80237 4.45903 -1.63987
v 2.83164 4.95315 -1.69192
v 2.66632 5.10330 -1.51635
v 2.72858 5.25022 -1.49628
v 2.90402 5.17469 -1.57295
v 2.82184 4.25784 -1.48384
v 2.90780 4.29711 -1.15193
v 2.73057 4.19140 -1.47849
v 2.80237 4.45903 -1.63987
v 2.82184 4.25784 -1.48384
v 2.74728 4.26243 -1.64074
v 2.90402 5.17469 -1.57295
v 2.87474 4.94315 -1.60223
v 2.66632 5.10330 -1.51635
v 2.66632 5.10330 -1.51635
v 2.87474 4.94315 -1.60223
v 2.66491 5.09353 -1.65339
v 2.77156 5.03825 -2.03719
v 2.63622 5.12718 -1.78308
v 2.83157 5.12504 -1.69383
v 2.72827 4.59684 -2.03552
v 2.83164 4.95315 -1.69192
v 2.80237 4.45903 -1.63987
v 2.77156 5.03825 -2.03719
v 2.83164 4.95315 -1.69192
v 2.72827 4.59684 -2.03552
v 2.79190 4.47821 -2.36921
v 2.56346 4.44586 -2.82993
v 2.77473 4.64782 -2.33798
v 2.87474 4.94315 -1.60223
v 2.83164 4.95315 -1.69192
v 2.66491 5.09353 -1.65339
v 2.77473 4.64782 -2.33798
v 2.56346 4.44586 -2.82993
v 2.75446 4.90508 -2.28607
v 2.77473 4.64782 -2.33798
v 2.75446 4.90508 -2.28607
v 2.63180 4.67056 -2.19769
v 2.67492 5.25078 -1.18241
v 2.90402 5.17469 -1.57295
v 2.72858 5.25022 -1.49628
v 2.66491 5.09353 -1.65339
v 2.83164 4.95315 -1.69192
v 2.83157 5.12504 -1.69383
v 2.80237 4.45903 -1.63987
v 2.71542 4.40124 -1.64855
v 2.68583 4.39938 -2.02797
v 2.77156 5.03825 -2.03719
v 2.57012 5.04673 -2.03919
v 2.63622 5.12718 -1.78308
v 2.72827 4.59684 -2.03552
v 2.80237 4.45903 -1.63987
v 2.68583 4.39938 -2.02797
v 2.77473 4.64782 -2.33798
v 2.65749 4.64340 -2.30051
v 2.79190 4.47821 -2.36921
v 2.72858 5.25022 -1.49628
v 2.66632 5.10330 -1.51635
v 2.67532 5.14772 -1.62256
v 2.71542 4.40124 -1.64855
v 2.80237 4.45903 -1.63987
v 2.74728 4.26243 -1.64074
v 2.71542 4.40124 -1.64855
v 2.74728 4.26243 -1.64074
v 2.67650 4.26118 -1.78337
v 2.82184 4.25784 -1.48384
v 2.73057 4.19140 -1.47849
v 2.44705 4.23019 -1.46030
v 2.68583 4.39938 -2.02797
v 2.71542 4.40124 -1.64855
v 2.67929 4.40167 -1.78583
v 2.68583 4.39938 -2.02797
v 2.67521 4.49534 -2.02827
v 2.72827 4.59684 -2.03552
v 2.62828 4.93907 -2.20137
v 2.63180 4.67056 -2.19769
v 2.75446 4.90508 -2.28607
v 2.72827 4.59684 -2.03552
v 2.57012 5.04673 -2.03919
v 2.77156 5.03825 -2.03719
v 2.67929 4.40167 -1.78583
v 2.71542 4.40124 -1.64855
v 2.67650 4.26118 -1.78337
v 2.77473 4.64782 -2.33798
v 2.63180 4.67056 -2.19769
v 2.65749 4.64340 -2.30051
v 2.44705 4.23019 -1.46030
v 2.67650 4.26118 -1.78337
v 2.74728 4.26243 -1.64074
v 2.65749 4.64340 -2.30051
v 2.72827 4.59684 -2.03552
v 2.67521 4.49534 -2.02827
v 2.79190 4.47821 -2.36921
v 2.65749 4.64340 -2.30051
v 2.61972 4.44748 -2.22086
v 2.74728 4.26243 -1.64074
v 2.82184 4.25784 -1.48384
v 2.44705 4.23019 -1.46030
v 2.56346 4.44586 -2.82993
v 2.79190 4.47821 -2.36921
v 2.48984 4.40296 -2.58709
v 2.60755 4.73225 -2.09389
v 2.72827 4.59684 -2.03552
v 2.63180 4.67056 -2.19769
v 2.44705 4.23019 -1.46030
v 2.37589 4.22408 -1.73609
v 2.67650 4.26118 -1.78337
v 2.48984 4.40296 -2.58709
v 2.79190 4.47821 -2.36921
v 2.61972 4.44748 -2.22086
v 2.68025 4.39144 -1.93804
v 2.52428 4.30406 -2.45071
v 2.68583 4.39938 -2.02797
v 2.65749 4.64340 -2.30051
v 2.63180 4.67056 -2.19769
v 2.72827 4.59684 -2.03552
v 2.72827 4.59684 -2.03552
v 2.60755 4.73225 -2.09389
v 2.60954 4.78007 -2.16749
v 2.52428 4.30406 -2.45071
v 2.67521 4.49534 -2.02827
v 2.68583 4.39938 -2.02797
v 2.68583 4.39938 -2.02797
v 2.67929 4.40167 -1.78583
v 2.68025 4.39144 -1.93804
v 2.78392 4.19567 -1.13777
v 2.34185 4.15188 -1.42141
v 2.73057 4.19140 -1.47849
v 2.68025 4.39144 -1.93804
v 2.67929 4.40167 -1.78583
v 2.61409 4.41056 -1.87355
v 2.67929 4.40167 -1.78583
v 2.63016 4.49931 -1.81264
v 2.61409 4.41056 -1.87355
v 2.62828 4.93907 -2.20137
v 2.60954 4.78007 -2.16749
v 2.63180 4.67056 -2.19769
v 2.63413 4.23758 -1.98175
v 2.52428 4.30406 -2.45071
v 2.68025 4.39144 -1.93804
v 2.61972 4.44748 -2.22086
v 2.65749 4.64340 -2.30051
v 2.67521 4.49534 -2.02827
v 2.62828 4.93907 -2.20137
v 2.75446 4.90508 -2.28607
v 2.49848 4.96241 -2.34383
v 2.63180 4.67056 -2.19769
v 2.60954 4.78007 -2.16749
v 2.60755 4.73225 -2.09389
v 2.31396 5.13018 -1.63657
v 2.66491 5.09353 -1.65339
v 2.83157 5.12504 -1.69383
v 2.67521 4.49534 -2.02827
v 2.52428 4.30406 -2.45071
v 2.61972 4.44748 -2.22086
v 2.48975 4.37872 -1.77180
v 2.47731 4.47882 -1.82280
v 2.63016 4.49931 -1.81264
v 2.62828 4.93907 -2.20137
v 2.54221 4.90453 -2.21068
v 2.60954 4.78007 -2.16749
v 2.63413 4.23758 -1.98175
v 2.68025 4.39144 -1.93804
v 2.38957 4.23459 -1.90205
v 2.48975 4.37872 -1.77180
v 2.63016 4.49931 -1.81264
v 2.67929 4.40167 -1.78583
v 2.66491 5.09353 -1.65339
v 2.38183 5.08384 -1.60288
v 2.66632 5.10330 -1.51635
v 2.62828 4.93907 -2.20137
v 2.49848 4.96241 -2.34383
v 2.54221 4.90453 -2.21068
v 2.72827 4.59684 -2.03552
v 2.60954 4.78007 -2.16749
v 2.54221 4.90453 -2.21068
v 2.72827 4.59684 -2.03552
v 2.54221 4.90453 -2.21068
v 2.57012 5.04673 -2.03919
v 2.67650 4.26118 -1.78337
v 2.48975 4.37872 -1.77180
v 2.67929 4.40167 -1.78583
v 2.75446 4.90508 -2.28607
v 2.56346 4.44586 -2.82993
v 2.50753 4.82498 -2.81006
v 2.63016 4.49931 -1.81264
v 2.47731 4.47882 -1.82280
v 2.61409 4.41056 -1.87355
v 2.52428 4.30406 -2.45071
v 2.48984 4.40296 -2.58709
v 2.61972 4.44748 -2.22086
v 2.73057 4.19140 -1.47849
v 2.34185 4.15188 -1.42141
v 2.44705 4.23019 -1.46030
v 2.49064 4.32616 -2.58129
v 2.48984 4.40296 -2.58709
v 2.52428 4.30406 -2.45071
v 2.56346 4.44586 -2.82993
v 2.43945 4.41043 -2.79228
v 2.46868 4.63579 -2.79971
v 2.68025 4.39144 -1.93804
v 2.61409 4.41056 -1.87355
v 2.41573 4.37472 -1.86836
v 2.56346 4.44586 -2.82993
v 2.46868 4.63579 -2.79971
v 2.50753 4.82498 -2.81006
v 2.41573 4.37472 -1.86836
v 2.61409 4.41056 -1.87355
v 2.47731 4.47882 -1.82280
v 2.63622 5.12718 -1.78308
v 2.57012 5.04673 -2.03919
v 2.45193 5.11737 -2.22539
v 2.45193 5.11737 -2.22539
v 2.57012 5.04673 -2.03919
v 2.54221 4.90453 -2.21068
v 2.54221 4.90453 -2.21068
v 2.49848 4.96241 -2.34383
v 2.45880 4.89131 -2.28371
v 2.38957 4.23459 -1.90205
v 2.25038 4.33089 -2.47547
v 2.52428 4.30406 -2.45071
v 2.56346 4.44586 -2.82993
v 2.48984 4.40296 -2.58709
v 2.43945 4.41043 -2.79228
v 2.67650 4.26118 -1.78337
v 2.37589 4.22408 -1.73609
v 2.48975 4.37872 -1.77180
v 2.25038 4.33089 -2.47547
v 2.49064 4.32616 -2.58129
v 2.52428 4.30406 -2.45071
v 2.45739 4.39359 -2.64835
v 2.43945 4.41043 -2.79228
v 2.48984 4.40296 -2.58709
v 2.54221 4.90453 -2.21068
v 2.45880 4.89131 -2.28371
v 2.42082 5.10883 -2.24418
v 2.41573 4.37472 -1.86836
v 2.47731 4.47882 -1.82280
v 2.48975 4.37872 -1.77180
v 2.38957 4.23459 -1.90205
v 2.52428 4.30406 -2.45071
v 2.63413 4.23758 -1.98175
v 2.42082 5.10883 -2.24418
v 2.45193 5.11737 -2.22539
v 2.54221 4.90453 -2.21068
v 2.43945 4.41043 -2.79228
v 2.45739 4.39359 -2.64835
v 2.44426 4.31133 -2.64419
v 2.68025 4.39144 -1.93804
v 2.41573 4.37472 -1.86836
v 2.38957 4.23459 -1.90205
v 2.43945 4.41043 -2.79228
v 2.45819 4.68804 -2.89708
v 2.46868 4.63579 -2.79971
v 2.37889 4.47452 -3.00157
v 2.43945 4.41043 -2.79228
v 2.44426 4.31133 -2.64419
v 2.24338 4.35931 -2.53301
v 2.48984 4.40296 -2.58709
v 2.49064 4.32616 -2.58129
v 2.37889 4.47452 -3.00157
v 2.45819 4.68804 -2.89708
v 2.43945 4.41043 -2.79228
v 2.45739 4.39359 -2.64835
v 2.21727 4.36999 -2.58515
v 2.44426 4.31133 -2.64419
v 2.37889 4.47452 -3.00157
v 2.44426 4.31133 -2.64419
v 2.37909 4.18855 -2.72478
v 2.19747 4.71038 -2.70935
v 2.46868 4.63579 -2.79971
v 2.45819 4.68804 -2.89708
v 2.37909 4.18855 -2.72478
v 2.44426 4.31133 -2.64419
v 2.05969 4.37853 -2.62953
v 2.19569 4.76860 -2.86107
v 2.19747 4.71038 -2.70935
v 2.45819 4.68804 -2.89708
v 2.49848 4.96241 -2.34383
v 2.75446 4.90508 -2.28607
v 2.31257 4.89215 -2.74676
v 2.31257 4.89215 -2.74676
v 2.75446 4.90508 -2.28607
v 2.50753 4.82498 -2.81006
v 2.45880 4.89131 -2.28371
v 2.28651 4.99670 -2.66322
v 2.42082 5.10883 -2.24418
v 2.45880 4.89131 -2.28371
v 2.49848 4.96241 -2.34383
v 2.32468 4.89021 -2.62655
v 2.37889 4.47452 -3.00157
v 2.15090 4.56887 -3.00540
v 2.45819 4.68804 -2.89708
v 2.37909 4.18855 -2.72478
v 2.33395 4.23366 -2.78015
v 2.37889 4.47452 -3.00157
v 2.41573 4.37472 -1.86836
v 2.36639 4.33038 -1.94593
v 2.38957 4.23459 -1.90205
v 2.49848 4.96241 -2.34383
v 2.31257 4.89215 -2.74676
v 2.32468 4.89021 -2.62655
v 2.37589 4.22408 -1.73609
v 2.28050 4.35127 -1.72797
v 2.48975 4.37872 -1.77180
v 2.46868 4.63579 -2.79971
v 2.31257 4.89215 -2.74676
v 2.50753 4.82498 -2.81006
v 2.28050 4.35127 -1.72797
v 2.37589 4.22408 -1.73609
v 2.44705 4.23019 -1.46030
v 2.15090 4.56887 -3.00540
v 2.19569 4.76860 -2.86107
v 2.45819 4.68804 -2.89708
v 2.28050 4.35127 -1.72797
v 2.44705 4.23019 -1.46030
v 2.26572 4.34033 -1.41913
v 2.36639 4.33038 -1.94593
v 2.33165 4.32049 -2.12721
v 2.38957 4.23459 -1.90205
v 2.31558 4.35182 -3.15587
v 2.37889 4.47452 -3.00157
v 2.33395 4.23366 -2.78015
v 2.25038 4.33089 -2.47547
v 2.24338 4.35931 -2.53301
v 2.49064 4.32616 -2.58129
v 2.37889 4.47452 -3.00157
v 2.13075 4.55713 -2.97068
v 2.15090 4.56887 -3.00540
v 2.31558 4.35182 -3.15587
v 2.33395 4.23366 -2.78015
v 2.20843 3.92425 -3.05432
v 2.26572 4.34033 -1.41913
v 2.34185 4.15188 -1.42141
v 2.38957 4.18035 -1.07886
v 2.44426 4.31133 -2.64419
v 2.21727 4.36999 -2.58515
v 2.05969 4.37853 -2.62953
v 2.32468 4.89021 -2.62655
v 2.28651 4.99670 -2.66322
v 2.45880 4.89131 -2.28371
v 2.32468 4.89021 -2.62655
v 2.31257 4.89215 -2.74676
v 2.24033 4.73459 -2.67570
v 2.20871 4.50869 -2.61993
v 2.45739 4.39359 -2.64835
v 2.48984 4.40296 -2.58709
v 2.34185 4.15188 -1.42141
v 2.26572 4.34033 -1.41913
v 2.44705 4.23019 -1.46030
v 2.33165 4.32049 -2.12721
v 2.36639 4.33038 -1.94593
v 2.03270 4.32414 -2.06694
v 2.24338 4.35931 -2.53301
v 2.24467 4.61662 -2.57189
v 2.48984 4.40296 -2.58709
v 2.45193 5.11737 -2.22539
v 2.42082 5.10883 -2.24418
v 2.07344 5.11488 -2.15304
v 2.41573 4.37472 -1.86836
v 2.48975 4.37872 -1.77180
v 2.28050 4.35127 -1.72797
v 2.31558 4.35182 -3.15587
v 2.20843 3.92425 -3.05432
v 2.00920 3.97925 -3.03449
v 2.31257 4.89215 -2.74676
v 2.46868 4.63579 -2.79971
v 2.24033 4.73459 -2.67570
v 2.07344 5.11488 -2.15304
v 2.42082 5.10883 -2.24418
v 2.03453 5.16545 -2.16116
v 2.20843 3.92425 -3.05432
v 2.33395 4.23366 -2.78015
v 2.19513 3.80968 -2.89184
v 2.32468 4.89021 -2.62655
v 2.25502 4.78213 -2.61083
v 2.28651 4.99670 -2.66322
v 2.24467 4.61662 -2.57189
v 2.20871 4.50869 -2.61993
v 2.48984 4.40296 -2.58709
v 2.04171 4.07302 -2.87857
v 2.19513 3.80968 -2.89184
v 2.33395 4.23366 -2.78015
v 2.03453 5.16545 -2.16116
v 2.42082 5.10883 -2.24418
v 2.28651 4.99670 -2.66322
v 2.32468 4.89021 -2.62655
v 2.24033 4.73459 -2.67570
v 2.25502 4.78213 -2.61083
v 2.25038 4.33089 -2.47547
v 2.38957 4.23459 -1.90205
v 2.33165 4.32049 -2.12721
v 2.24033 4.73459 -2.67570
v 2.46868 4.63579 -2.79971
v 2.19747 4.71038 -2.70935
v 1.81139 4.35625 -1.84922
v 2.03270 4.32414 -2.06694
v 2.36639 4.33038 -1.94593
v 2.36639 4.33038 -1.94593
v 2.41573 4.37472 -1.86836
v 1.81139 4.35625 -1.84922
v 1.81139 4.35625 -1.84922
v 2.41573 4.37472 -1.86836
v 2.28050 4.35127 -1.72797
v 2.45739 4.39359 -2.64835
v 2.20871 4.50869 -2.61993
v 2.21727 4.36999 -2.58515
v 2.28651 4.99670 -2.66322
v 2.25502 4.78213 -2.61083
v 2.12411 4.90703 -2.65433
v 2.24338 4.35931 -2.53301
v 2.20871 4.50869 -2.61993
v 2.24467 4.61662 -2.57189
v 2.25502 4.78213 -2.61083
v 2.24033 4.73459 -2.67570
v 2.17221 4.78663 -2.71528
v 2.31558 4.35182 -3.15587
v 2.10630 4.39588 -3.14732
v 2.37889 4.47452 -3.00157
v 2.25038 4.33089 -2.47547
v 2.33165 4.32049 -2.12721
v 1.96500 4.30731 -2.39987
v 2.24338 4.35931 -2.53301
v 2.21727 4.36999 -2.58515
v 2.20871 4.50869 -2.61993
v 2.37889 4.47452 -3.00157
v 2.10630 4.39588 -3.14732
v 2.13075 4.55713 -2.97068
v 2.17221 4.78663 -2.71528
v 2.12411 4.90703 -2.65433
v 2.25502 4.78213 -2.61083
v 2.24033 4.73459 -2.67570
v 2.19747 4.71038 -2.70935
v 2.17221 4.78663 -2.71528
v 2.19569 4.76860 -2.86107
v 2.17221 4.78663 -2.71528
v 2.19747 4.71038 -2.70935
v 2.45193 5.11737 -2.22539
v 2.07344 5.11488 -2.15304
v 2.24031 5.14154 -1.78133
v 2.17221 4.78663 -2.71528
v 2.19569 4.76860 -2.86107
v 2.18384 4.81987 -2.86341
v 2.37909 4.18855 -2.72478
v 2.09588 4.23927 -2.69605
v 2.33395 4.23366 -2.78015
v 2.37909 4.18855 -2.72478
v 2.05969 4.37853 -2.62953
v 2.09588 4.23927 -2.69605
v 2.08918 4.39059 -2.53980
v 2.21727 4.36999 -2.58515
v 2.24338 4.35931 -2.53301
v 2.15090 4.56887 -3.00540
v 2.13075 4.55713 -2.97068
v 2.19569 4.76860 -2.86107
v 2.08918 4.39059 -2.53980
v 2.05969 4.37853 -2.62953
v 2.21727 4.36999 -2.58515
v 2.04171 4.07302 -2.87857
v 2.02825 3.84089 -2.87151
v 2.19513 3.80968 -2.89184
v 2.19513 3.80968 -2.89184
v 2.02825 3.84089 -2.87151
v 2.20843 3.92425 -3.05432
v 2.09537 4.27865 -2.78116
v 2.04171 4.07302 -2.87857
v 2.33395 4.23366 -2.78015
v 2.18384 4.81987 -2.86341
v 2.19569 4.76860 -2.86107
v 2.13075 4.55713 -2.97068
v 2.33395 4.23366 -2.78015
v 2.09588 4.23927 -2.69605
v 2.09537 4.27865 -2.78116
v 1.96500 4.30731 -2.39987
v 2.33165 4.32049 -2.12721
v 2.03270 4.32414 -2.06694
v 2.01485 4.41636 -2.43954
v 2.24338 4.35931 -2.53301
v 2.25038 4.33089 -2.47547
v 2.13075 4.55713 -2.97068
v 2.09537 4.27865 -2.78116
v 2.08558 4.61811 -3.00127
v 2.13075 4.55713 -2.97068
v 2.10630 4.39588 -3.14732
v 2.09537 4.27865 -2.78116
v 2.18384 4.81987 -2.86341
v 2.13075 4.55713 -2.97068
v 2.08558 4.61811 -3.00127
v 2.24031 5.14154 -1.78133
v 2.07344 5.11488 -2.15304
v 2.08526 5.00143 -2.13687
v 2.17221 4.78663 -2.71528
v 2.18384 4.81987 -2.86341
v 2.07062 4.85516 -2.82193
v 2.18384 4.81987 -2.86341
v 2.08558 4.61811 -3.00127
v 2.07062 4.85516 -2.82193
v 2.31558 4.35182 -3.15587
v 2.00920 3.97925 -3.03449
v 2.10630 4.39588 -3.14732
v 2.01485 4.41636 -2.43954
v 2.25038 4.33089 -2.47547
v 1.96500 4.30731 -2.39987
v 2.09537 4.27865 -2.78116
v 2.03432 4.49989 -2.93579
v 2.08558 4.61811 -3.00127
v 2.04171 4.07302 -2.87857
v 2.09537 4.27865 -2.78116
v 2.10630 4.39588 -3.14732
v 2.08558 4.61811 -3.00127
v 2.03432 4.49989 -2.93579
v 1.83401 4.61945 -2.92871
v 2.09537 4.27865 -2.78116
v 1.99500 4.26981 -2.88985
v 2.03432 4.49989 -2.93579
v 2.09537 4.27865 -2.78116
v 2.09588 4.23927 -2.69605
v 1.62474 4.43375 -2.54547
v 2.04171 4.07302 -2.87857
v 2.10630 4.39588 -3.14732
v 2.00920 3.97925 -3.03449
v 2.09537 4.27865 -2.78116
v 2.04467 4.23075 -2.77072
v 1.99500 4.26981 -2.88985
v 2.17221 4.78663 -2.71528
v 2.07062 4.85516 -2.82193
v 2.12411 4.90703 -2.65433
v 2.12411 4.90703 -2.65433
v 1.82702 4.93619 -2.61212
v 2.28651 4.99670 -2.66322
v 2.24338 4.35931 -2.53301
v 2.01485 4.41636 -2.43954
v 2.08918 4.39059 -2.53980
v 2.20843 3.92425 -3.05432
v 2.02825 3.84089 -2.87151
v 2.00920 3.97925 -3.03449
v 1.95101 4.93455 -1.84720
v 2.12847 4.99085 -1.86465
v 2.08526 5.00143 -2.13687
v 2.07344 5.11488 -2.15304
v 2.03453 5.16545 -2.16116
v 2.08526 5.00143 -2.13687
v 1.96500 4.30731 -2.39987
v 2.03270 4.32414 -2.06694
v 1.68026 4.34379 -2.37374
v 2.12411 4.90703 -2.65433
v 1.74711 4.87132 -2.78446
v 1.82702 4.93619 -2.61212
v 2.04171 4.07302 -2.87857
v 2.00920 3.97925 -3.03449
v 2.02825 3.84089 -2.87151
v 1.94690 4.50439 -1.25120
v 1.88562 4.34149 -1.31577
v 2.26572 4.34033 -1.41913
v 1.88562 4.34149 -1.31577
v 1.81139 4.35625 -1.84922
v 2.28050 4.35127 -1.72797
v 1.91776 4.29379 -3.16868
v 2.03432 4.49989 -2.93579
v 1.99500 4.26981 -2.88985
v 1.99500 4.26981 -2.88985
v 2.04467 4.23075 -2.77072
v 1.77273 4.35175 -2.80776
v 2.07062 4.85516 -2.82193
v 1.86176 4.81921 -2.85380
v 2.12411 4.90703 -2.65433
v 1.93810 5.02060 -2.65850
v 2.03453 5.16545 -2.16116
v 2.28651 4.99670 -2.66322
v 2.03432 4.49989 -2.93579
v 2.01525 4.55672 -3.02513
v 1.83401 4.61945 -2.92871
v 1.80602 4.46960 -2.42589
v 2.05969 4.37853 -2.62953
v 2.08918 4.39059 -2.53980
v 2.04467 4.23075 -2.77072
v 2.09537 4.27865 -2.78116
v 1.78419 4.27539 -2.71732
v 2.08918 4.39059 -2.53980
v 2.01485 4.41636 -2.43954
v 1.80602 4.46960 -2.42589
v 1.91776 4.29379 -3.16868
v 2.01525 4.55672 -3.02513
v 2.03432 4.49989 -2.93579
v 2.28651 4.99670 -2.66322
v 1.82702 4.93619 -2.61212
v 1.93810 5.02060 -2.65850
v 2.03453 5.16545 -2.16116
v 1.89223 5.12440 -2.12892
v 2.08526 5.00143 -2.13687
v 2.26572 4.34033 -1.41913
v 1.88562 4.34149 -1.31577
v 2.28050 4.35127 -1.72797
v 1.92453 4.83642 -1.77309
v 2.12847 4.99085 -1.86465
v 1.95101 4.93455 -1.84720
v 1.89223 5.12440 -2.12892
v 1.92719 4.95201 -2.10839
v 2.08526 5.00143 -2.13687
v 1.95101 4.93455 -1.84720
v 2.08526 5.00143 -2.13687
v 1.92719 4.95201 -2.10839
v 1.78419 4.27539 -2.71732
v 1.77273 4.35175 -2.80776
v 2.04467 4.23075 -2.77072
v 1.88231 4.09116 -3.09551
v 1.91776 4.29379 -3.16868
v 1.99500 4.26981 -2.88985
v 1.78419 4.27539 -2.71732
v 2.09537 4.27865 -2.78116
v 1.62474 4.43375 -2.54547
v 2.12411 4.90703 -2.65433
v 1.86176 4.81921 -2.85380
v 1.74711 4.87132 -2.78446
v 1.96500 4.30731 -2.39987
v 1.68026 4.34379 -2.37374
v 2.01485 4.41636 -2.43954
v 1.92453 4.83642 -1.77309
v 1.84593 4.80087 -1.70634
v 1.89753 4.92219 -1.70594
v 1.77273 4.35175 -2.80776
v 1.74479 4.23245 -2.85743
v 1.99500 4.26981 -2.88985
v 1.92719 4.95201 -2.10839
v 1.92453 4.83642 -1.77309
v 1.95101 4.93455 -1.84720
v 2.05969 4.37853 -2.62953
v 1.62474 4.43375 -2.54547
v 2.09588 4.23927 -2.69605
v 1.68026 4.34379 -2.37374
v 2.03270 4.32414 -2.06694
v 1.81139 4.35625 -1.84922
v 2.01525 4.55672 -3.02513
v 1.91776 4.29379 -3.16868
v 1.70396 4.33215 -3.11682
v 1.80390 4.69954 -2.93689
v 1.86176 4.81921 -2.85380
v 2.07062 4.85516 -2.82193
v 1.92719 4.95201 -2.10839
v 1.77374 4.88187 -2.43370
v 1.92453 4.83642 -1.77309
v 1.99500 4.26981 -2.88985
v 1.85705 3.97044 -2.92770
v 1.88231 4.09116 -3.09551
v 1.70396 4.33215 -3.11682
v 1.83401 4.61945 -2.92871
v 2.01525 4.55672 -3.02513
v 1.88562 4.34149 -1.31577
v 1.94690 4.50439 -1.25120
v 1.84140 4.73090 -1.60869
v 1.89223 5.12440 -2.12892
v 1.77374 4.88187 -2.43370
v 1.92719 4.95201 -2.10839
v 1.83401 4.61945 -2.92871
v 1.80390 4.69954 -2.93689
v 2.08558 4.61811 -3.00127
v 1.80390 4.69954 -2.93689
v 2.07062 4.85516 -2.82193
v 2.08558 4.61811 -3.00127
v 1.84140 4.73090 -1.60869
v 1.84593 4.80087 -1.70634
v 1.81729 4.73526 -1.60027
v 1.77374 4.88187 -2.43370
v 1.75967 4.77489 -1.90719
v 1.92453 4.83642 -1.77309
v 1.84140 4.73090 -1.60869
v 1.89753 4.92219 -1.70594
v 1.84593 4.80087 -1.70634
v 1.77563 4.69955 -2.75090
v 1.74711 4.87132 -2.78446
v 1.86176 4.81921 -2.85380
v 1.88562 4.34149 -1.31577
v 1.84140 4.73090 -1.60869
v 1.81139 4.35625 -1.84922
v 1.99500 4.26981 -2.88985
v 1.71818 3.99018 -2.87606
v 1.85705 3.97044 -2.92770
v 1.77563 4.69955 -2.75090
v 1.86176 4.81921 -2.85380
v 1.80390 4.69954 -2.93689
v 1.79629 4.60425 -1.90827
v 1.81139 4.35625 -1.84922
v 1.84140 4.73090 -1.60869
v 1.93810 5.02060 -2.65850
v 1.89223 5.12440 -2.12892
v 2.03453 5.16545 -2.16116
v 1.68389 4.09555 -3.04212
v 1.85705 3.97044 -2.92770
v 1.71818 3.99018 -2.87606
v 1.84140 4.73090 -1.60869
v 1.81729 4.73526 -1.60027
v 1.79629 4.60425 -1.90827
v 1.78807 4.50892 -2.80722
v 1.80390 4.69954 -2.93689
v 1.83401 4.61945 -2.92871
v 2.05969 4.37853 -2.62953
v 1.80602 4.46960 -2.42589
v 1.62474 4.43375 -2.54547
v 1.92453 4.83642 -1.77309
v 1.75967 4.77489 -1.90719
v 1.84593 4.80087 -1.70634
v 1.81729 4.73526 -1.60027
v 1.84593 4.80087 -1.70634
v 1.75967 4.77489 -1.90719
v 1.77563 4.69955 -2.75090
v 1.80390 4.69954 -2.93689
v 1.78807 4.50892 -2.80722
v 1.68389 4.09555 -3.04212
v 1.88231 4.09116 -3.09551
v 1.85705 3.97044 -2.92770
v 1.80602 4.46960 -2.42589
v 2.01485 4.41636 -2.43954
v 1.68026 4.34379 -2.37374
v 1.99500 4.26981 -2.88985
v 1.74479 4.23245 -2.85743
v 1.71818 3.99018 -2.87606
v 1.79629 4.60425 -1.90827
v 1.81729 4.73526 -1.60027
v 1.75967 4.77489 -1.90719
v 1.78807 4.50892 -2.80722
v 1.83401 4.61945 -2.92871
v 1.77273 4.35175 -2.80776
v 1.77374 4.88187 -2.43370
v 1.71925 4.96425 -2.53623
v 1.80602 4.46960 -2.42589
v 1.82702 4.93619 -2.61212
v 1.81139 4.81031 -2.62767
v 1.77482 4.56943 -2.51791
v 1.78807 4.50892 -2.80722
v 1.77273 4.35175 -2.80776
v 1.78419 4.27539 -2.71732
v 1.93810 5.02060 -2.65850
v 1.71925 4.96425 -2.53623
v 1.89223 5.12440 -2.12892
v 1.77563 4.69955 -2.75090
v 1.81139 4.81031 -2.62767
v 1.82702 4.93619 -2.61212
v 1.78807 4.50892 -2.80722
v 1.74484 4.76985 -2.86433
v 1.77563 4.69955 -2.75090
v 1.71925 4.96425 -2.53623
v 1.77482 4.56943 -2.51791
v 1.80602 4.46960 -2.42589
v 1.82702 4.93619 -2.61212
v 1.77482 4.56943 -2.51791
v 1.71925 4.96425 -2.53623
v 1.74479 4.23245 -2.85743
v 1.77273 4.35175 -2.80776
v 1.83401 4.61945 -2.92871
v 1.68389 4.09555 -3.04212
v 1.70396 4.33215 -3.11682
v 1.88231 4.09116 -3.09551
v 1.78419 4.27539 -2.71732
v 1.62474 4.43375 -2.54547
v 1.49591 4.32078 -2.59476
v 1.68026 4.34379 -2.37374
v 1.63891 4.80403 -2.39908
v 1.80602 4.46960 -2.42589
v 1.82702 4.93619 -2.61212
v 1.74711 4.87132 -2.78446
v 1.77563 4.69955 -2.75090
v 1.82702 4.93619 -2.61212
v 1.71925 4.96425 -2.53623
v 1.93810 5.02060 -2.65850
v 1.58905 4.76054 -2.71219
v 1.77563 4.69955 -2.75090
v 1.74484 4.76985 -2.86433
v 1.91776 4.29379 -3.16868
v 1.88231 4.09116 -3.09551
v 1.70396 4.33215 -3.11682
v 1.77374 4.88187 -2.43370
v 1.89223 5.12440 -2.12892
v 1.71925 4.96425 -2.53623
v 1.78807 4.50892 -2.80722
v 1.65697 4.53403 -2.95768
v 1.74484 4.76985 -2.86433
v 1.78807 4.50892 -2.80722
v 1.78419 4.27539 -2.71732
v 1.67382 4.38368 -2.78799
v 1.81139 4.35625 -1.84922
v 1.79629 4.60425 -1.90827
v 1.68026 4.34379 -2.37374
v 1.68026 4.34379 -2.37374
v 1.79629 4.60425 -1.90827
v 1.63891 4.80403 -2.39908
v 1.74479 4.23245 -2.85743
v 1.83401 4.61945 -2.92871
v 1.70396 4.33215 -3.11682
v 1.58905 4.76054 -2.71219
v 1.81139 4.81031 -2.62767
v 1.77563 4.69955 -2.75090
v 1.75967 4.77489 -1.90719
v 1.77374 4.88187 -2.43370
v 1.63891 4.80403 -2.39908
v 1.77374 4.88187 -2.43370
v 1.80602 4.46960 -2.42589
v 1.63891 4.80403 -2.39908
v 1.78807 4.50892 -2.80722
v 1.67382 4.38368 -2.78799
v 1.65697 4.53403 -2.95768
v 1.75967 4.77489 -1.90719
v 1.63891 4.80403 -2.39908
v 1.79629 4.60425 -1.90827
v 1.81139 4.81031 -2.62767
v 1.60878 4.82707 -2.63241
v 1.77482 4.56943 -2.51791
v 1.65697 4.53403 -2.95768
v 1.54621 4.81162 -2.77675
v 1.74484 4.76985 -2.86433
v 1.70396 4.33215 -3.11682
v 1.68389 4.09555 -3.04212
v 1.74479 4.23245 -2.85743
v 1.61176 4.49910 -2.44581
v 1.80602 4.46960 -2.42589
v 1.77482 4.56943 -2.51791
v 1.81139 4.81031 -2.62767
v 1.58905 4.76054 -2.71219
v 1.60878 4.82707 -2.63241
v 1.71818 3.99018 -2.87606
v 1.74479 4.23245 -2.85743
v 1.68389 4.09555 -3.04212
v 1.55456 4.32277 -3.06661
v 1.63674 4.48145 -2.92957
v 1.67382 4.38368 -2.78799
v 1.61176 4.49910 -2.44581
v 1.62474 4.43375 -2.54547
v 1.80602 4.46960 -2.42589
v 1.65697 4.53403 -2.95768
v 1.67382 4.38368 -2.78799
v 1.63674 4.48145 -2.92957
v 1.64003 4.24513 -2.86550
v 1.55456 4.32277 -3.06661
v 1.67382 4.38368 -2.78799
v 1.60878 4.82707 -2.63241
v 1.61176 4.49910 -2.44581
v 1.77482 4.56943 -2.51791
v 1.78419 4.27539 -2.71732
v 1.48172 4.38125 -2.71120
v 1.67382 4.38368 -2.78799
v 1.67382 4.38368 -2.78799
v 1.48172 4.38125 -2.71120
v 1.64003 4.24513 -2.86550
v 1.58905 4.76054 -2.71219
v 1.74484 4.76985 -2.86433
v 1.54621 4.81162 -2.77675
v 1.49591 4.32078 -2.59476
v 1.62474 4.43375 -2.54547
v 1.57820 4.45906 -2.52714
v 1.54049 4.09978 -2.98890
v 1.64003 4.24513 -2.86550
v 1.53208 4.04283 -2.82447
v 1.54049 4.09978 -2.98890
v 1.55456 4.32277 -3.06661
v 1.64003 4.24513 -2.86550
v 1.58905 4.76054 -2.71219
v 1.57820 4.45906 -2.52714
v 1.60878 4.82707 -2.63241
v 1.57820 4.45906 -2.52714
v 1.61176 4.49910 -2.44581
v 1.60878 4.82707 -2.63241
v 1.62474 4.43375 -2.54547
v 1.61176 4.49910 -2.44581
v 1.57820 4.45906 -2.52714
v 1.49591 4.32078 -2.59476
v 1.48172 4.38125 -2.71120
v 1.78419 4.27539 -2.71732
v 1.57820 4.45906 -2.52714
v 1.58905 4.76054 -2.71219
v 1.54621 4.81162 -2.77675
v 1.64003 4.24513 -2.86550
v 1.48172 4.38125 -2.71120
v 1.42046 4.04878 -2.74463
v 1.63674 4.48145 -2.92957
v 1.44927 4.53799 -2.86321
v 1.65697 4.53403 -2.95768
v 1.35730 4.35406 -2.99219
v 1.63674 4.48145 -2.92957
v 1.55456 4.32277 -3.06661
v 1.54621 4.81162 -2.77675
v 1.65697 4.53403 -2.95768
v 1.44927 4.53799 -2.86321
v 1.64003 4.24513 -2.86550
v 1.42046 4.04878 -2.74463
v 1.53208 4.04283 -2.82447
v 1.54049 4.09978 -2.98890
v 1.53208 4.04283 -2.82447
v 1.34535 4.12047 -2.88802
v 1.53208 4.04283 -2.82447
v 1.42046 4.04878 -2.74463
v 1.34535 4.12047 -2.88802
v 1.57820 4.45906 -2.52714
v 1.54621 4.81162 -2.77675
v 1.49591 4.32078 -2.59476
v 1.48172 4.38125 -2.71120
v 1.49591 4.32078 -2.59476
v 1.44927 4.53799 -2.86321
v 1.54621 4.81162 -2.77675
v 1.44927 4.53799 -2.86321
v 1.49591 4.32078 -2.59476
v 1.35730 4.35406 -2.99219
v 1.54049 4.09978 -2.98890
v 1.34535 4.12047 -2.88802
v 1.48172 4.38125 -2.71120
v 1.44927 4.53799 -2.86321
v 1.35730 4.35406 -2.99219
v 1.35730 4.35406 -2.99219
v 1.44927 4.53799 -2.86321
v 1.63674 4.48145 -2.92957
v 1.54049 4.09978 -2.98890
v 1.35730 4.35406 -2.99219
v 1.55456 4.32277 -3.06661
v 1.42046 4.04878 -2.74463
v 1.48172 4.38125 -2.71120
v 1.34535 4.12047 -2.88802
v 1.35730 4.35406 -2.99219
v 1.34535 4.12047 -2.88802
v 1.48172 4.38125 -2.71120
v 2.51644 4.82698 -1.53161
v 2.94227 4.54068 -1.32212
v 3.06755 4.51430 -1.15321
v 2.87474 4.94315 -1.60223
v 3.16237 5.06908 -1.01236
v 2.90402 5.17469 -1.57295
v 2.67492 5.25078 -1.18241
v 2.72858 5.25022 -1.49628
v 2.67532 5.14772 -1.62256
v 2.66632 5.10330 -1.51635
v 2.38183 5.08384 -1.60288
v 2.66491 5.09353 -1.65339
v 2.31396 5.13018 -1.63657
v 2.83157 5.12504 -1.69383
v 2.63622 5.12718 -1.78308
v 2.45193 5.11737 -2.22539
v 2.24031 5.14154 -1.78133
v 2.08526 5.00143 -2.13687
v 2.12847 4.99085 -1.86465
v 1.92453 4.83642 -1.77309
v 1.89753 4.92219 -1.70594
v 1.84140 4.73090 -1.60869
v 1.94690 4.50439 -1.25120
v 2.26572 4.34033 -1.41913
v 2.38957 4.18035 -1.07886
v 2.34185 4.15188 -1.42141
v 2.78392 4.19567 -1.13777
v 2.73057 4.19140 -1.47849
v 2.90780 4.29711 -1.15193
vt 0.29379 0.45230
vt 0.28223 0.45335
vt 0.26310 0.43405
vt 0.29726 0.42062
vt 0.26310 0.43405
vt 0.26286 0.42114
vt 0.26310 0.43405
vt 0.28237 0.45320
vt 0.26439 0.46097
vt 0.28182 0.46065
vt 0.26437 0.46097
vt 0.28232 0.45315
vt 0.75896 0.22786
vt 0.74956 0.22020
vt 0.75203 0.21306
vt 0.74001 0.22765
vt 0.74963 0.22010
vt 0.75896 0.22786
vt 0.73282 0.21559
vt 0.74969 0.22018
vt 0.74000 0.22764
vt 0.72826 0.81039
vt 0.72205 0.79167
vt 0.73146 0.79084
vt 0.73141 0.78535
vt 0.75835 0.78600
vt 0.73146 0.79084
vt 0.00983 0.46357
vt 0.01680 0.46338
vt 0.01658 0.47230
vt 0.86662 0.57159
vt 0.87131 0.55323
vt 0.87214 0.57443
vt 0.73285 0.21557
vt 0.74001 0.22763
vt 0.73077 0.22645
vt 0.96366 0.13847
vt 0.95074 0.13847
vt 0.95856 0.12545
vt 0.53263 0.30489
vt 0.54756 0.30772
vt 0.53386 0.31234
vt 0.16586 0.77231
vt 0.17956 0.76303
vt 0.18557 0.77318
vt 0.75259 0.80887
vt 0.73146 0.79084
vt 0.75839 0.78627
vt 0.72826 0.81039
vt 0.73146 0.79084
vt 0.75258 0.80888
vt 0.18288 0.35291
vt 0.21118 0.35291
vt 0.18118 0.36228
vt 0.54756 0.30772
vt 0.54600 0.31299
vt 0.53386 0.31234
vt 0.18118 0.36228
vt 0.21118 0.35291
vt 0.17823 0.37643
vt 0.02251 0.83157
vt 0.03579 0.83689
vt 0.02148 0.84239
vt 0.13869 0.40034
vt 0.15562 0.41080
vt 0.14673 0.41156
vt 0.21162 0.18319
vt 0.21820 0.19341
vt 0.20882 0.19235
vt 0.46126 0.13902
vt 0.46288 0.13351
vt 0.48359 0.13632
vt 0.16586 0.77231
vt 0.16449 0.76132
vt 0.17957 0.76305
vt 0.75261 0.80888
vt 0.75834 0.78625
vt 0.76366 0.80804
vt 0.96034 0.57009
vt 0.95963 0.56369
vt 0.96960 0.57086
vt 0.05520 0.71341
vt 0.06045 0.70882
vt 0.06262 0.71333
vt 0.48770 0.83914
vt 0.48386 0.83485
vt 0.49498 0.83626
vt 0.00446 0.35982
vt 0.01188 0.35890
vt 0.01236 0.36731
vt 0.17245 0.45142
vt 0.17562 0.45669
vt 0.17232 0.47209
vt 0.48360 0.13630
vt 0.46288 0.13351
vt 0.47067 0.13315
vt 0.51073 0.03316
vt 0.51585 0.03178
vt 0.52174 0.03363
vt 0.03591 0.84544
vt 0.02148 0.84239
vt 0.03579 0.83689
vt 0.29782 0.91895
vt 0.27264 0.92609
vt 0.27379 0.91508
vt 0.00465 0.36761
vt 0.00446 0.35982
vt 0.01236 0.36731
vt 0.97452 0.32428
vt 0.96363 0.32627
vt 0.96807 0.32223
vt 0.45199 0.16215
vt 0.46724 0.14652
vt 0.46989 0.15485
vt 0.27640 0.70892
vt 0.27596 0.72419
vt 0.26968 0.72459
vt 0.96960 0.57086
vt 0.95963 0.56369
vt 0.97011 0.55828
vt 0.46989 0.15487
vt 0.47259 0.16400
vt 0.45199 0.16215
vt 0.65338 0.88382
vt 0.68167 0.88286
vt 0.66370 0.89348
vt 0.65110 0.10201
vt 0.65678 0.11078
vt 0.64640 0.10687
vt 0.45199 0.16215
vt 0.45040 0.14658
vt 0.46724 0.14652
vt 0.66369 0.89346
vt 0.68167 0.88286
vt 0.68512 0.89497
vt 0.26446 0.73014
vt 0.25603 0.70153
vt 0.26497 0.72529
vt 0.64148 0.11032
vt 0.64640 0.10687
vt 0.65672 0.11093
vt 0.65689 0.11069
vt 0.65109 0.10202
vt 0.64723 0.10066
vt 0.25603 0.70153
vt 0.26968 0.72459
vt 0.26458 0.72542
vt 0.95816 0.56111
vt 0.95889 0.57439
vt 0.95798 0.56606
vt 0.11244 0.66707
vt 0.14139 0.66707
vt 0.12499 0.68127
vt 0.85792 0.01864
vt 0.85114 0.01372
vt 0.85716 0.01352
vt 0.99798 0.76139
vt 0.99196 0.76002
vt 0.99607 0.75568
vt 0.03591 0.84544
vt 0.02693 0.84567
vt 0.02148 0.84239
vt 0.25552 0.72824
vt 0.25603 0.70153
vt 0.26446 0.73014
vt 0.26574 0.71398
vt 0.27640 0.70892
vt 0.26968 0.72459
vt 0.55545 0.85778
vt 0.55397 0.86620
vt 0.54541 0.85418
vt 0.02148 0.84239
vt 0.02693 0.84567
vt 0.02349 0.84864
vt 0.21084 0.16384
vt 0.21162 0.18319
vt 0.20882 0.19235
vt 0.26968 0.72459
vt 0.25603 0.70153
vt 0.26574 0.71398
vt 0.83924 0.76529
vt 0.83326 0.76517
vt 0.83351 0.75669
vt 0.01060 0.16568
vt 0.01267 0.16157
vt 0.01958 0.16521
vt 0.15405 0.09764
vt 0.15246 0.08863
vt 0.16817 0.09791
vt 0.83924 0.76529
vt 0.83370 0.75658
vt 0.83947 0.75478
vt 0.53386 0.31234
vt 0.51805 0.31250
vt 0.53256 0.30493
vt 0.37291 0.32934
vt 0.36227 0.32857
vt 0.36989 0.32521
vt 0.60338 0.89954
vt 0.59047 0.90495
vt 0.58242 0.90607
vt 0.60340 0.89962
vt 0.58241 0.90602
vt 0.57769 0.89464
vt 0.84708 0.75603
vt 0.83924 0.76529
vt 0.83947 0.75478
vt 0.17823 0.37643
vt 0.21118 0.35291
vt 0.21026 0.37397
vt 0.66551 0.99680
vt 0.66534 0.98850
vt 0.67069 0.99549
vt 0.25603 0.70153
vt 0.26036 0.69320
vt 0.26574 0.71398
vt 0.17562 0.45669
vt 0.17646 0.47836
vt 0.17232 0.47209
vt 0.25630 0.69403
vt 0.26035 0.69318
vt 0.25603 0.70153
vt 0.40648 0.26482
vt 0.40036 0.26895
vt 0.39796 0.25669
vt 0.41661 0.06208
vt 0.41212 0.06467
vt 0.40158 0.06129
vt 0.40648 0.26482
vt 0.39796 0.25669
vt 0.39672 0.24614
vt 0.67085 0.98444
vt 0.67069 0.99549
vt 0.66529 0.98854
vt 0.57760 0.87946
vt 0.57769 0.89464
vt 0.56976 0.90459
vt 0.56976 0.90459
vt 0.57769 0.89464
vt 0.58239 0.90602
vt 0.36990 0.32523
vt 0.36227 0.32857
vt 0.36407 0.32331
vt 0.23335 0.40369
vt 0.23207 0.37088
vt 0.24656 0.37536
vt 0.65338 0.88382
vt 0.66371 0.89348
vt 0.65233 0.89112
vt 0.84708 0.75603
vt 0.84684 0.77287
vt 0.83924 0.76529
vt 0.23207 0.37087
vt 0.24616 0.36786
vt 0.24656 0.37536
vt 0.65987 0.89387
vt 0.65233 0.89112
vt 0.66369 0.89353
vt 0.89631 0.45953
vt 0.89071 0.46043
vt 0.89009 0.44812
vt 0.01465 0.00102
vt 0.02132 0.00330
vt 0.01666 0.00738
vt 0.23335 0.40369
vt 0.24656 0.37536
vt 0.24738 0.40205
vt 0.56932 0.90623
vt 0.56976 0.90459
vt 0.58239 0.90602
vt 0.55668 0.02095
vt 0.56455 0.02248
vt 0.56433 0.02705
vt 0.15246 0.08863
vt 0.16743 0.08994
vt 0.16817 0.09791
vt 0.19354 0.24233
vt 0.17783 0.23785
vt 0.18331 0.23516
vt 0.18395 0.25028
vt 0.19356 0.24239
vt 0.20283 0.23925
vt 0.03788 0.18243
vt 0.04843 0.19172
vt 0.04516 0.19434
vt 0.18389 0.25017
vt 0.17783 0.23785
vt 0.19354 0.24233
vt 0.03719 0.96288
vt 0.05088 0.96333
vt 0.03822 0.96734
vt 0.18395 0.25028
vt 0.20283 0.23925
vt 0.20564 0.24761
vt 0.93532 0.44377
vt 0.93634 0.42758
vt 0.94243 0.42758
vt 0.42024 0.34384
vt 0.41861 0.33516
vt 0.44002 0.33659
vt 0.94416 0.44268
vt 0.93532 0.44377
vt 0.94243 0.42758
vt 0.54541 0.85418
vt 0.55397 0.86620
vt 0.52075 0.85496
vt 0.52075 0.85496
vt 0.55397 0.86620
vt 0.52185 0.86675
vt 0.81542 0.36094
vt 0.80372 0.38145
vt 0.80394 0.35652
vt 0.36407 0.32331
vt 0.36227 0.32857
vt 0.34394 0.32513
vt 0.93877 0.82635
vt 0.95221 0.82601
vt 0.93927 0.84000
vt 0.06656 0.46643
vt 0.06357 0.46288
vt 0.06382 0.44476
vt 0.78716 0.01602
vt 0.79141 0.01270
vt 0.79514 0.01708
vt 0.36227 0.32857
vt 0.33763 0.32721
vt 0.34394 0.32513
vt 0.84684 0.77287
vt 0.83921 0.77713
vt 0.83924 0.76529
vt 0.39796 0.25669
vt 0.38487 0.24626
vt 0.39672 0.24614
vt 0.27682 0.10332
vt 0.27755 0.09460
vt 0.29320 0.09460
vt 0.95221 0.82601
vt 0.95442 0.83953
vt 0.93927 0.84000
vt 0.27682 0.10332
vt 0.29320 0.09460
vt 0.29334 0.10613
vt 0.57720 0.31042
vt 0.56706 0.31008
vt 0.57971 0.30505
vt 0.49420 0.78571
vt 0.49221 0.79689
vt 0.47428 0.79421
vt 0.23202 0.37067
vt 0.23223 0.36715
vt 0.24616 0.36786
vt 0.95191 0.95727
vt 0.95093 0.97161
vt 0.94988 0.97067
vt 0.49420 0.78571
vt 0.47428 0.79421
vt 0.47457 0.77048
vt 0.35217 0.98301
vt 0.35244 0.97187
vt 0.37146 0.97301
vt 0.73326 0.55481
vt 0.73508 0.56797
vt 0.73142 0.57619
vt 0.81018 0.38047
vt 0.80372 0.38145
vt 0.81542 0.36094
vt 0.94524 0.85827
vt 0.95185 0.85769
vt 0.94907 0.86759
vt 0.13014 0.04057
vt 0.14526 0.04114
vt 0.14617 0.04481
vt 0.17646 0.47836
vt 0.16595 0.48208
vt 0.17232 0.47209
vt 0.61998 0.70633
vt 0.61286 0.71139
vt 0.60957 0.70250
vt 0.03788 0.18243
vt 0.04927 0.17379
vt 0.04849 0.19165
vt 0.89206 0.44768
vt 0.89042 0.44795
vt 0.87126 0.44394
vt 0.55823 0.70721
vt 0.55242 0.70620
vt 0.56620 0.69663
vt 0.78881 0.57378
vt 0.78876 0.54893
vt 0.80017 0.54893
vt 0.38487 0.24626
vt 0.39796 0.25669
vt 0.38270 0.25631
vt 0.34552 0.16758
vt 0.34350 0.18719
vt 0.34284 0.16528
vt 0.47457 0.77048
vt 0.47428 0.79421
vt 0.46366 0.77129
vt 0.68967 0.24594
vt 0.68406 0.25030
vt 0.68966 0.23941
vt 0.02296 0.01207
vt 0.02671 0.00652
vt 0.04035 0.01516
vt 0.76035 0.26690
vt 0.77317 0.25635
vt 0.77266 0.28150
vt 0.69564 0.88065
vt 0.71745 0.87954
vt 0.71740 0.90440
vt 0.94524 0.85827
vt 0.94894 0.86765
vt 0.94562 0.86523
vt 0.54743 0.31109
vt 0.57971 0.30505
vt 0.56705 0.31006
vt 0.89622 0.09421
vt 0.88130 0.09117
vt 0.89752 0.09139
vt 0.58963 0.70034
vt 0.60953 0.70241
vt 0.61286 0.71139
vt 0.79638 0.33452
vt 0.80121 0.33267
vt 0.79705 0.36546
vt 0.60019 0.70281
vt 0.55832 0.70815
vt 0.56620 0.69663
vt 0.03719 0.96288
vt 0.05039 0.95548
vt 0.05088 0.96333
vt 0.68966 0.23941
vt 0.68407 0.25031
vt 0.67961 0.24112
vt 0.02474 0.06763
vt 0.02853 0.07654
vt 0.02441 0.08192
vt 0.99869 0.60404
vt 0.99726 0.60828
vt 0.99218 0.60740
vt 0.54582 0.04172
vt 0.55757 0.04172
vt 0.54414 0.05292
vt 0.90502 0.12506
vt 0.90483 0.14471
vt 0.88876 0.12542
vt 0.02474 0.06763
vt 0.02782 0.06869
vt 0.02856 0.07652
vt 0.54425 0.05306
vt 0.55757 0.04172
vt 0.55856 0.05489
vt 0.99218 0.60740
vt 0.98950 0.60043
vt 0.99866 0.60401
vt 0.99912 0.74433
vt 0.99949 0.74758
vt 0.99507 0.74756
vt 0.42013 0.01723
vt 0.42296 0.02489
vt 0.41868 0.02603
vt 0.18953 0.25692
vt 0.20880 0.26568
vt 0.19506 0.28340
vt 0.42296 0.02489
vt 0.42018 0.01720
vt 0.42298 0.01652
vt 0.69056 0.77075
vt 0.67471 0.76978
vt 0.68824 0.76673
vt 0.42024 0.34384
vt 0.44003 0.33660
vt 0.43611 0.34437
vt 0.73651 0.57538
vt 0.73508 0.56797
vt 0.73810 0.56690
vt 0.75519 0.20213
vt 0.75438 0.19998
vt 0.76706 0.19518
vt 0.73651 0.57538
vt 0.73141 0.57614
vt 0.73508 0.56797
vt 0.76035 0.26690
vt 0.76401 0.25473
vt 0.77324 0.25621
vt 0.97900 0.84355
vt 0.96962 0.84409
vt 0.97898 0.83260
vt 0.75945 0.27971
vt 0.76035 0.26690
vt 0.77266 0.28150
vt 0.02862 0.37134
vt 0.03065 0.37331
vt 0.03206 0.38680
vt 0.68824 0.76673
vt 0.67471 0.76978
vt 0.67507 0.76466
vt 0.88870 0.12547
vt 0.90479 0.14474
vt 0.88808 0.14413
vt 0.94687 0.98864
vt 0.96016 0.98456
vt 0.96028 0.98696
vt 0.83797 0.63427
vt 0.81947 0.63499
vt 0.84143 0.63161
vt 0.26338 0.70038
vt 0.26610 0.68758
vt 0.28171 0.70177
vt 0.02862 0.37134
vt 0.03218 0.38676
vt 0.02790 0.38579
vt 0.74409 0.14989
vt 0.72166 0.14943
vt 0.72246 0.14315
vt 0.67963 0.99542
vt 0.67168 0.99801
vt 0.67182 0.99111
vt 0.29442 0.11469
vt 0.29442 0.10022
vt 0.30132 0.11505
vt 0.78881 0.57378
vt 0.80017 0.54893
vt 0.80055 0.57323
vt 0.35063 0.79106
vt 0.33868 0.79815
vt 0.34784 0.78472
vt 0.81943 0.63471
vt 0.83373 0.62969
vt 0.84143 0.63161
vt 0.28919 0.69101
vt 0.28191 0.70159
vt 0.26610 0.68758
vt 0.84143 0.63161
vt 0.83372 0.62971
vt 0.83801 0.61766
vt 0.07912 0.76042
vt 0.08463 0.75445
vt 0.09398 0.76358
vt 0.67519 0.76467
vt 0.67471 0.76978
vt 0.64553 0.77000
vt 0.28919 0.69101
vt 0.26610 0.68758
vt 0.28945 0.68086
vt 0.07916 0.76047
vt 0.07780 0.75684
vt 0.08485 0.75467
vt 0.01822 0.11413
vt 0.01546 0.12261
vt 0.01037 0.11393
vt 0.67961 0.24112
vt 0.66461 0.23410
vt 0.68966 0.23941
vt 0.96015 0.98452
vt 0.94677 0.98831
vt 0.95159 0.98328
vt 0.97898 0.83260
vt 0.96959 0.84406
vt 0.96758 0.83246
vt 0.04801 0.89185
vt 0.05803 0.89285
vt 0.05626 0.90776
vt 0.25107 0.03174
vt 0.24991 0.03505
vt 0.24987 0.02553
vt 0.62717 0.70902
vt 0.60950 0.70212
vt 0.63066 0.69923
vt 0.15088 0.12438
vt 0.16811 0.11071
vt 0.16722 0.12170
vt 0.28919 0.69101
vt 0.28945 0.68086
vt 0.30048 0.68503
vt 0.80625 0.23068
vt 0.80183 0.22150
vt 0.82294 0.21675
vt 0.57492 0.65663
vt 0.59951 0.70249
vt 0.56620 0.69663
vt 0.09837 0.74604
vt 0.09394 0.76373
vt 0.08483 0.75440
vt 0.03566 0.09643
vt 0.04280 0.09474
vt 0.03685 0.11011
vt 0.15057 0.11433
vt 0.16063 0.10838
vt 0.15087 0.12436
vt 0.69888 0.90941
vt 0.69564 0.88065
vt 0.71740 0.90440
vt 0.97332 0.97707
vt 0.97897 0.97837
vt 0.97551 0.98964
vt 0.74078 0.59216
vt 0.73134 0.57619
vt 0.73651 0.57538
vt 0.33243 0.86250
vt 0.33430 0.86584
vt 0.31779 0.86023
vt 0.73651 0.57538
vt 0.74139 0.58034
vt 0.74079 0.59216
vt 0.09837 0.74604
vt 0.09983 0.76328
vt 0.09394 0.76373
vt 0.06346 0.51701
vt 0.06346 0.49140
vt 0.06767 0.49829
vt 0.24991 0.03505
vt 0.24158 0.03499
vt 0.24987 0.02553
vt 0.55603 0.67381
vt 0.57530 0.65976
vt 0.56620 0.69663
vt 0.13479 0.93266
vt 0.13126 0.94707
vt 0.12964 0.93693
vt 0.24158 0.03499
vt 0.24064 0.02531
vt 0.24987 0.02553
vt 0.04801 0.89185
vt 0.05626 0.90776
vt 0.04715 0.90626
vt 0.04336 0.10954
vt 0.03685 0.11011
vt 0.04280 0.09474
vt 0.08890 0.73869
vt 0.09837 0.74604
vt 0.08476 0.75434
vt 0.31779 0.86023
vt 0.33438 0.86562
vt 0.30437 0.86799
vt 0.15087 0.12436
vt 0.16063 0.10838
vt 0.16811 0.11071
vt 0.34807 0.78467
vt 0.36017 0.77448
vt 0.35059 0.79106
vt 0.82526 0.54793
vt 0.81958 0.54758
vt 0.82434 0.54213
vt 0.89893 0.05500
vt 0.89893 0.06226
vt 0.88557 0.05818
vt 0.59391 0.33820
vt 0.57766 0.34901
vt 0.58145 0.34354
vt 0.44003 0.33660
vt 0.46448 0.33765
vt 0.43611 0.34437
vt 0.63066 0.69923
vt 0.60940 0.70216
vt 0.59539 0.69095
vt 0.90974 0.27739
vt 0.91044 0.29468
vt 0.89822 0.29575
vt 0.31090 0.09970
vt 0.31095 0.10829
vt 0.30132 0.11505
vt 0.59391 0.33820
vt 0.61115 0.34744
vt 0.57756 0.34852
vt 0.08468 0.75431
vt 0.07751 0.73756
vt 0.08890 0.73869
vt 0.89822 0.29575
vt 0.89820 0.27565
vt 0.90974 0.27739
vt 0.57787 0.85027
vt 0.57404 0.84082
vt 0.59532 0.82982
vt 0.18597 0.68586
vt 0.19652 0.70557
vt 0.18025 0.69373
vt 0.83802 0.61766
vt 0.84196 0.61513
vt 0.84143 0.63161
vt 0.31090 0.09970
vt 0.30132 0.11505
vt 0.29442 0.10022
vt 0.67439 0.13733
vt 0.67066 0.13200
vt 0.67521 0.13736
vt 0.61115 0.34744
vt 0.58616 0.36002
vt 0.57757 0.34826
vt 0.74320 0.19593
vt 0.73362 0.19671
vt 0.73848 0.19372
vt 0.01397 0.49934
vt 0.01368 0.48960
vt 0.02104 0.49245
vt 0.57788 0.85025
vt 0.59527 0.82978
vt 0.60746 0.85103
vt 0.04652 0.16144
vt 0.03361 0.14423
vt 0.04182 0.14401
vt 0.98771 0.26102
vt 0.97868 0.26468
vt 0.97875 0.25607
vt 0.61151 0.83762
vt 0.60746 0.85103
vt 0.59527 0.82978
vt 0.69888 0.90941
vt 0.68742 0.88196
vt 0.69564 0.88065
vt 0.37363 0.03245
vt 0.38197 0.04283
vt 0.37380 0.04339
vt 0.60451 0.10557
vt 0.60457 0.10647
vt 0.58790 0.09863
vt 0.82927 0.61491
vt 0.84196 0.61513
vt 0.83815 0.61784
vt 0.73130 0.57621
vt 0.74074 0.59219
vt 0.73220 0.60070
vt 0.57819 0.34813
vt 0.58662 0.35992
vt 0.57804 0.35551
vt 0.67521 0.13736
vt 0.67066 0.13200
vt 0.67321 0.12019
vt 0.98758 0.26129
vt 0.97875 0.25607
vt 0.99031 0.25107
vt 0.37363 0.03245
vt 0.38490 0.03176
vt 0.38198 0.04282
vt 0.36057 0.78465
vt 0.35061 0.79107
vt 0.36017 0.77448
vt 0.04663 0.16131
vt 0.03319 0.15769
vt 0.03354 0.14432
vt 0.58790 0.09863
vt 0.60457 0.10647
vt 0.58741 0.10811
vt 0.10851 0.83351
vt 0.11752 0.83130
vt 0.10426 0.84105
vt 0.19652 0.70557
vt 0.20422 0.70417
vt 0.18587 0.72563
vt 0.23069 0.24239
vt 0.22449 0.24487
vt 0.21002 0.24605
vt 0.10855 0.83351
vt 0.10426 0.84105
vt 0.09781 0.84209
vt 0.69888 0.90941
vt 0.68487 0.90768
vt 0.68742 0.88196
vt 0.43830 0.94054
vt 0.44273 0.93241
vt 0.44926 0.92997
vt 0.46674 0.90065
vt 0.45336 0.89421
vt 0.46039 0.89176
vt 0.20422 0.70417
vt 0.19300 0.72300
vt 0.18583 0.72559
vt 0.23069 0.24239
vt 0.21002 0.24605
vt 0.22906 0.23518
vt 0.10329 0.84825
vt 0.10426 0.84105
vt 0.11748 0.83123
vt 0.09343 0.06526
vt 0.07975 0.06526
vt 0.09190 0.05408
vt 0.31778 0.86024
vt 0.30433 0.86798
vt 0.30045 0.85900
vt 0.36017 0.77448
vt 0.38041 0.78986
vt 0.36050 0.78465
vt 0.44926 0.92997
vt 0.44766 0.94088
vt 0.43807 0.94033
vt 0.23069 0.24239
vt 0.22906 0.23518
vt 0.23778 0.24627
vt 0.94877 0.13334
vt 0.95063 0.14417
vt 0.94313 0.14390
vt 0.07995 0.05300
vt 0.09190 0.05408
vt 0.07975 0.06526
vt 0.19652 0.70557
vt 0.18597 0.68586
vt 0.20422 0.70417
vt 0.46664 0.90083
vt 0.45828 0.90803
vt 0.45336 0.89421
vt 0.46678 0.90085
vt 0.47935 0.90634
vt 0.47053 0.90940
vt 0.13672 0.42187
vt 0.12315 0.41870
vt 0.13721 0.39222
vt 0.13721 0.39222
vt 0.12315 0.41870
vt 0.11185 0.39053
vt 0.10329 0.84825
vt 0.11743 0.83118
vt 0.11841 0.85132
vt 0.99121 0.78774
vt 0.98316 0.77710
vt 0.99246 0.77683
vt 0.58618 0.35976
vt 0.61115 0.34744
vt 0.61150 0.35755
vt 0.37856 0.79842
vt 0.36051 0.78464
vt 0.38041 0.78986
vt 0.46668 0.90086
vt 0.47053 0.90940
vt 0.45836 0.90771
vt 0.11362 0.41832
vt 0.11185 0.39053
vt 0.12315 0.41870
vt 0.84767 0.46681
vt 0.85868 0.46576
vt 0.84960 0.48127
vt 0.20130 0.09924
vt 0.21531 0.08613
vt 0.21601 0.09825
vt 0.11841 0.85132
vt 0.10816 0.86037
vt 0.10329 0.84825
vt 0.85875 0.48649
vt 0.84837 0.48835
vt 0.84960 0.48127
vt 0.98314 0.77711
vt 0.99121 0.78774
vt 0.98541 0.78804
vt 0.09720 0.86021
vt 0.10329 0.84825
vt 0.10816 0.86037
vt 0.81692 0.42175
vt 0.81072 0.43246
vt 0.80164 0.42915
vt 0.73853 0.60270
vt 0.73225 0.60074
vt 0.74061 0.59210
vt 0.97522 0.27287
vt 0.97591 0.26042
vt 0.97709 0.27001
vt 0.80423 0.42062
vt 0.81692 0.42175
vt 0.80164 0.42915
vt 0.85868 0.46576
vt 0.85874 0.48649
vt 0.84960 0.48127
vt 0.79593 0.11958
vt 0.77992 0.11225
vt 0.79126 0.11149
vt 0.76702 0.95243
vt 0.76900 0.94124
vt 0.77584 0.95375
vt 0.94877 0.13334
vt 0.94313 0.14390
vt 0.94391 0.13179
vt 0.30045 0.85900
vt 0.30433 0.86798
vt 0.30135 0.86854
vt 0.81038 0.41053
vt 0.80423 0.42062
vt 0.80109 0.40822
vt 0.81038 0.41053
vt 0.81692 0.42175
vt 0.80423 0.42062
vt 0.47429 0.95741
vt 0.45486 0.95694
vt 0.47528 0.95169
vt 0.45486 0.95696
vt 0.45456 0.95169
vt 0.47528 0.95169
vt 0.01559 0.00594
vt 0.00901 0.00616
vt 0.01369 0.00394
vt 0.77854 0.11937
vt 0.77992 0.11225
vt 0.79593 0.11958
vt 0.18204 0.19011
vt 0.16261 0.19044
vt 0.15838 0.18759
vt 0.77584 0.95375
vt 0.76900 0.94124
vt 0.78765 0.94086
vt 0.56858 0.06001
vt 0.57044 0.04881
vt 0.57169 0.06125
vt 0.88636 0.04225
vt 0.89873 0.05423
vt 0.88636 0.05396
vt 0.21531 0.08613
vt 0.20128 0.09923
vt 0.19883 0.08716
vt 0.77584 0.95375
vt 0.78765 0.94086
vt 0.78746 0.94840
vt 0.87060 0.04221
vt 0.87758 0.03567
vt 0.88195 0.04647
vt 0.87758 0.03567
vt 0.88497 0.03723
vt 0.88195 0.04647
vt 0.53990 0.25110
vt 0.51619 0.24983
vt 0.54418 0.24266
vt 0.53794 0.23896
vt 0.54418 0.24266
vt 0.52610 0.23638
vt 0.51619 0.24983
vt 0.52607 0.23645
vt 0.54418 0.24266
vt 0.03742 0.68558
vt 0.02542 0.67324
vt 0.03742 0.67152
vt 0.86146 0.19550
vt 0.85148 0.20239
vt 0.84524 0.19061
vt 0.88636 0.04225
vt 0.89954 0.04306
vt 0.89873 0.05423
vt 0.02542 0.67324
vt 0.03742 0.68558
vt 0.02573 0.68623
vt 0.86234 0.17686
vt 0.86146 0.19550
vt 0.85280 0.17875
vt 0.84524 0.19061
vt 0.85280 0.17875
vt 0.86146 0.19550
vt 0.28223 0.45335
vt 0.28223 0.45335
vt 0.28223 0.45335
vt 0.28223 0.45335
vt 0.28223 0.45335
vt 0.28223 0.45335
vt 0.28223 0.45335
vt 0.28223 0.45335
vt 0.28223 0.45335
vt 0.28223 0.45335
vt 0.28223 0.45335
vt 0.28223 0.45335
vt 0.28223 0.45335
vt 0.28223 0.45335
vt 0.28223 0.45335
vt 0.28223 0.45335
vt 0.28223 0.45335
vt 0.28223 0.45335
vt 0.28223 0.45335
vt 0.28223 0.45335
vt 0.28223 0.45335
vt 0.28223 0.45335
vt 0.28223 0.45335
vt 0.28223 0.45335
vt 0.28223 0.45335
vt 0.28223 0.45335
vt 0.28223 0.45335
vt 0.28223 0.45335
vt 0.28223 0.45335
vn 0.7551 -0.6557 0.0033
vn 0.8626 -0.3017 -0.4061
vn 0.8182 0.1529 -0.5542
vn 0.9132 0.3465 0.2147
vn 0.8182 0.1529 -0.5542
vn 0.4508 0.5364 -0.7134
vn 0.8182 0.1529 -0.5542
vn 0.8626 -0.3017 -0.4061
vn 0.8740 -0.2842 -0.3941
vn 0.9394 -0.2424 -0.2423
vn 0.8740 -0.2842 -0.3941
vn 0.8626 -0.3017 -0.4061
vn 0.7524 -0.5021 0.4264
vn 0.9394 -0.2424 -0.2423
vn 0.8626 -0.3017 -0.4061
vn 0.7104 -0.6229 -0.3276
vn 0.9394 -0.2424 -0.2423
vn 0.7524 -0.5021 0.4264
vn 0.8740 -0.2842 -0.3941
vn 0.9394 -0.2424 -0.2423
vn 0.7104 -0.6229 -0.3276
vn 0.5668 0.4447 -0.6935
vn 0.6812 0.6154 0.3965
vn 0.9744 0.1866 -0.1252
vn 0.8182 0.1529 -0.5542
vn 0.8740 -0.2842 -0.3941
vn 0.9744 0.1866 -0.1252
vn 0.5110 0.2718 -0.8155
vn 0.9516 0.1250 -0.2808
vn 0.4508 0.5364 -0.7134
vn 0.7104 -0.6229 -0.3276
vn 0.7524 -0.5021 0.4264
vn 0.2168 -0.7048 -0.6754
vn 0.8740 -0.2842 -0.3941
vn 0.7104 -0.6229 -0.3276
vn 0.6062 -0.6857 -0.4030
vn 0.4508 0.5364 -0.7134
vn 0.8182 0.1529 -0.5542
vn 0.5110 0.2718 -0.8155
vn 0.5110 0.2718 -0.8155
vn 0.8182 0.1529 -0.5542
vn 0.2647 0.7996 0.5390
vn 0.5668 0.4447 -0.6935
vn 0.0907 0.9887 -0.1194
vn 0.6812 0.6154 0.3965
vn 0.9125 -0.0936 -0.3982
vn 0.9744 0.1866 -0.1252
vn 0.8740 -0.2842 -0.3941
vn 0.5668 0.4447 -0.6935
vn 0.9744 0.1866 -0.1252
vn 0.9125 -0.0936 -0.3982
vn 0.8840 -0.4354 0.1702
vn 0.4249 -0.4563 -0.7818
vn 0.9586 -0.0684 0.2764
vn 0.8182 0.1529 -0.5542
vn 0.9744 0.1866 -0.1252
vn 0.2647 0.7996 0.5390
vn 0.9586 -0.0684 0.2764
vn 0.4249 -0.4563 -0.7818
vn 0.8191 0.5378 0.1999
vn 0.9586 -0.0684 0.2764
vn 0.8191 0.5378 0.1999
vn 0.8860 0.3677 0.2823
vn 0.8247 0.0557 -0.5628
vn 0.4508 0.5364 -0.7134
vn 0.9516 0.1250 -0.2808
vn 0.2647 0.7996 0.5390
vn 0.9744 0.1866 -0.1252
vn 0.6812 0.6154 0.3965
vn 0.8740 -0.2842 -0.3941
vn 0.6761 -0.3739 -0.6350
vn 0.8408 -0.4755 -0.2585
vn 0.5668 0.4447 -0.6935
vn 0.6535 0.5104 -0.5590
vn 0.0907 0.9887 -0.1194
vn 0.9125 -0.0936 -0.3982
vn 0.8740 -0.2842 -0.3941
vn 0.8408 -0.4755 -0.2585
vn 0.9586 -0.0684 0.2764
vn 0.7052 -0.4752 0.5262
vn 0.8840 -0.4354 0.1702
vn 0.9516 0.1250 -0.2808
vn 0.5110 0.2718 -0.8155
vn 0.5293 -0.2729 -0.8033
vn 0.6761 -0.3739 -0.6350
vn 0.8740 -0.2842 -0.3941
vn 0.6062 -0.6857 -0.4030
vn 0.6761 -0.3739 -0.6350
vn 0.6062 -0.6857 -0.4030
vn 0.4510 -0.5585 -0.6962
vn 0.7104 -0.6229 -0.3276
vn 0.2168 -0.7048 -0.6754
vn -0.2533 -0.7149 -0.6518
vn 0.8408 -0.4755 -0.2585
vn 0.6761 -0.3739 -0.6350
vn 0.0696 -0.8668 -0.4937
vn 0.8408 -0.4755 -0.2585
vn 0.5948 -0.1528 -0.7892
vn 0.9125 -0.0936 -0.3982
vn 0.2118 0.6965 0.6856
vn 0.8860 0.3677 0.2823
vn 0.8191 0.5378 0.1999
vn 0.9125 -0.0936 -0.3982
vn 0.6535 0.5104 -0.5590
vn 0.5668 0.4447 -0.6935
vn 0.0696 -0.8668 -0.4937
vn 0.6761 -0.3739 -0.6350
vn 0.4510 -0.5585 -0.6962
vn 0.9586 -0.0684 0.2764
vn 0.8860 0.3677 0.2823
vn 0.7052 -0.4752 0.5262
vn -0.2533 -0.7149 -0.6518
vn 0.4510 -0.5585 -0.6962
vn 0.6062 -0.6857 -0.4030
vn 0.7052 -0.4752 0.5262
vn 0.9125 -0.0936 -0.3982
vn 0.5948 -0.1528 -0.7892
vn 0.8840 -0.4354 0.1702
vn 0.7052 -0.4752 0.5262
vn 0.9178 -0.3961 -0.0259
vn 0.6062 -0.6857 -0.4030
vn 0.7104 -0.6229 -0.3276
vn -0.2533 -0.7149 -0.6518
vn 0.4249 -0.4563 -0.7818
vn 0.8840 -0.4354 0.1702
vn 0.3007 -0.8571 -0.4183
vn 0.5726 -0.3589 -0.7372
vn 0.9125 -0.0936 -0.3982
vn 0.8860 0.3677 0.2823
vn -0.2533 -0.7149 -0.6518
vn -0.4211 -0.7620 -0.4920
vn 0.4510 -0.5585 -0.6962
vn 0.3007 -0.8571 -0.4183
vn 0.8840 -0.4354 0.1702
vn 0.9178 -0.3961 -0.0259
vn 0.7770 -0.5862 0.2295
vn 0.5891 -0.7508 -0.2988
vn 0.8408 -0.4755 -0.2585
vn 0.7052 -0.4752 0.5262
vn 0.8860 0.3677 0.2823
vn 0.9125 -0.0936 -0.3982
vn 0.9125 -0.0936 -0.3982
vn 0.5726 -0.3589 -0.7372
vn 0.9614 0.1905 0.1986
vn 0.5891 -0.7508 -0.2988
vn 0.5948 -0.1528 -0.7892
vn 0.8408 -0.4755 -0.2585
vn 0.8408 -0.4755 -0.2585
vn 0.0696 -0.8668 -0.4937
vn 0.7770 -0.5862 0.2295
vn 0.3626 -0.7410 0.5652
vn -0.5150 -0.7341 -0.4426
vn 0.2168 -0.7048 -0.6754
vn 0.7770 -0.5862 0.2295
vn 0.0696 -0.8668 -0.4937
vn -0.1227 -0.8240 0.5531
vn 0.0696 -0.8668 -0.4937
vn -0.4243 -0.9005 -0.0950
vn -0.1227 -0.8240 0.5531
vn 0.2118 0.6965 0.6856
vn 0.9614 0.1905 0.1986
vn 0.8860 0.3677 0.2823
vn 0.6098 -0.7484 0.2607
vn 0.5891 -0.7508 -0.2988
vn 0.7770 -0.5862 0.2295
vn 0.9178 -0.3961 -0.0259
vn 0.7052 -0.4752 0.5262
vn 0.5948 -0.1528 -0.7892
vn 0.2118 0.6965 0.6856
vn 0.8191 0.5378 0.1999
vn -0.2420 0.9656 0.0949
vn 0.8860 0.3677 0.2823
vn 0.9614 0.1905 0.1986
vn 0.5726 -0.3589 -0.7372
vn -0.6108 0.7801 0.1356
vn 0.2647 0.7996 0.5390
vn 0.6812 0.6154 0.3965
vn 0.5948 -0.1528 -0.7892
vn 0.5891 -0.7508 -0.2988
vn 0.9178 -0.3961 -0.0259
vn 0.1223 -0.3870 -0.9139
vn 0.5100 -0.8597 -0.0297
vn -0.4243 -0.9005 -0.0950
vn 0.2118 0.6965 0.6856
vn 0.4896 0.8664 0.0980
vn 0.9614 0.1905 0.1986
vn 0.6098 -0.7484 0.2607
vn 0.7770 -0.5862 0.2295
vn -0.4268 -0.6859 0.5894
vn 0.1223 -0.3870 -0.9139
vn -0.4243 -0.9005 -0.0950
vn 0.0696 -0.8668 -0.4937
vn 0.2647 0.7996 0.5390
vn 0.5477 0.6608 -0.5131
vn 0.5110 0.2718 -0.8155
vn 0.2118 0.6965 0.6856
vn -0.2420 0.9656 0.0949
vn 0.4896 0.8664 0.0980
vn 0.9125 -0.0936 -0.3982
vn 0.9614 0.1905 0.1986
vn 0.4896 0.8664 0.0980
vn 0.9125 -0.0936 -0.3982
vn 0.4896 0.8664 0.0980
vn 0.6535 0.5104 -0.5590
vn 0.4510 -0.5585 -0.6962
vn 0.1223 -0.3870 -0.9139
vn 0.0696 -0.8668 -0.4937
vn 0.8191 0.5378 0.1999
vn 0.4249 -0.4563 -0.7818
vn 0.3325 0.4765 -0.8139
vn -0.4243 -0.9005 -0.0950
vn 0.5100 -0.8597 -0.0297
vn -0.1227 -0.8240 0.5531
vn 0.5891 -0.7508 -0.2988
vn 0.3007 -0.8571 -0.4183
vn 0.9178 -0.3961 -0.0259
vn 0.2168 -0.7048 -0.6754
vn -0.5150 -0.7341 -0.4426
vn -0.2533 -0.7149 -0.6518
vn 0.4214 -0.5667 -0.7080
vn 0.3007 -0.8571 -0.4183
vn 0.5891 -0.7508 -0.2988
vn 0.4249 -0.4563 -0.7818
vn 0.6604 -0.5842 -0.4718
vn 0.2656 0.2720 -0.9249
vn 0.7770 -0.5862 0.2295
vn -0.1227 -0.8240 0.5531
vn 0.1622 -0.8362 0.5239
vn 0.4249 -0.4563 -0.7818
vn 0.2656 0.2720 -0.9249
vn 0.3325 0.4765 -0.8139
vn 0.1622 -0.8362 0.5239
vn -0.1227 -0.8240 0.5531
vn 0.5100 -0.8597 -0.0297
vn 0.0907 0.9887 -0.1194
vn 0.6535 0.5104 -0.5590
vn 0.4377 0.7264 -0.5298
vn 0.4377 0.7264 -0.5298
vn 0.6535 0.5104 -0.5590
vn 0.4896 0.8664 0.0980
vn 0.4896 0.8664 0.0980
vn -0.2420 0.9656 0.0949
vn 0.2783 0.9345 -0.2219
vn -0.4268 -0.6859 0.5894
vn -0.1730 -0.9403 -0.2930
vn 0.5891 -0.7508 -0.2988
vn 0.4249 -0.4563 -0.7818
vn 0.3007 -0.8571 -0.4183
vn 0.6604 -0.5842 -0.4718
vn 0.4510 -0.5585 -0.6962
vn -0.4211 -0.7620 -0.4920
vn 0.1223 -0.3870 -0.9139
vn -0.1730 -0.9403 -0.2930
vn 0.4214 -0.5667 -0.7080
vn 0.5891 -0.7508 -0.2988
vn 0.5627 -0.7596 0.3261
vn 0.6604 -0.5842 -0.4718
vn 0.3007 -0.8571 -0.4183
vn 0.4896 0.8664 0.0980
vn 0.2783 0.9345 -0.2219
vn 0.3631 0.7675 -0.5283
vn 0.1622 -0.8362 0.5239
vn 0.5100 -0.8597 -0.0297
vn 0.1223 -0.3870 -0.9139
vn -0.4268 -0.6859 0.5894
vn 0.5891 -0.7508 -0.2988
vn 0.6098 -0.7484 0.2607
vn 0.3631 0.7675 -0.5283
vn 0.4377 0.7264 -0.5298
vn 0.4896 0.8664 0.0980
vn 0.6604 -0.5842 -0.4718
vn 0.5627 -0.7596 0.3261
vn 0.7138 -0.4259 0.5560
vn 0.7770 -0.5862 0.2295
vn 0.1622 -0.8362 0.5239
vn -0.4268 -0.6859 0.5894
vn 0.6604 -0.5842 -0.4718
vn 0.7120 0.6084 -0.3505
vn 0.2656 0.2720 -0.9249
vn 0.7271 0.1111 -0.6774
vn 0.6604 -0.5842 -0.4718
vn 0.7138 -0.4259 0.5560
vn -0.0600 -0.7813 -0.6213
vn 0.3007 -0.8571 -0.4183
vn 0.4214 -0.5667 -0.7080
vn 0.7271 0.1111 -0.6774
vn 0.7120 0.6084 -0.3505
vn 0.6604 -0.5842 -0.4718
vn 0.5627 -0.7596 0.3261
vn 0.2867 -0.8988 0.3317
vn 0.7138 -0.4259 0.5560
vn 0.7271 0.1111 -0.6774
vn 0.7138 -0.4259 0.5560
vn 0.3924 -0.9163 0.0798
vn 0.6246 0.7069 -0.3319
vn 0.2656 0.2720 -0.9249
vn 0.7120 0.6084 -0.3505
vn 0.3924 -0.9163 0.0798
vn 0.7138 -0.4259 0.5560
vn -0.0302 -0.7679 0.6399
vn 0.7355 0.5612 -0.3797
vn 0.6246 0.7069 -0.3319
vn 0.7120 0.6084 -0.3505
vn -0.2420 0.9656 0.0949
vn 0.8191 0.5378 0.1999
vn -0.5079 0.6516 -0.5634
vn -0.5079 0.6516 -0.5634
vn 0.8191 0.5378 0.1999
vn 0.3325 0.4765 -0.8139
vn 0.2783 0.9345 -0.2219
vn 0.4110 0.4464 -0.7949
vn 0.3631 0.7675 -0.5283
vn 0.2783 0.9345 -0.2219
vn -0.2420 0.9656 0.0949
vn -0.1626 0.7645 -0.6237
vn 0.7271 0.1111 -0.6774
vn -0.4907 -0.0368 -0.8706
vn 0.7120 0.6084 -0.3505
vn 0.3924 -0.9163 0.0798
vn 0.3485 -0.8756 -0.3346
vn 0.7271 0.1111 -0.6774
vn 0.1622 -0.8362 0.5239
vn -0.6102 -0.6674 0.4269
vn -0.4268 -0.6859 0.5894
vn -0.2420 0.9656 0.0949
vn -0.5079 0.6516 -0.5634
vn -0.1626 0.7645 -0.6237
vn -0.4211 -0.7620 -0.4920
vn -0.2062 -0.9561 -0.2081
vn 0.1223 -0.3870 -0.9139
vn 0.2656 0.2720 -0.9249
vn -0.5079 0.6516 -0.5634
vn 0.3325 0.4765 -0.8139
vn -0.2062 -0.9561 -0.2081
vn -0.4211 -0.7620 -0.4920
vn -0.2533 -0.7149 -0.6518
vn -0.4907 -0.0368 -0.8706
vn 0.7355 0.5612 -0.3797
vn 0.7120 0.6084 -0.3505
vn -0.2062 -0.9561 -0.2081
vn -0.2533 -0.7149 -0.6518
vn -0.5515 -0.8257 0.1187
vn -0.6102 -0.6674 0.4269
vn -0.6683 -0.7230 0.1748
vn -0.4268 -0.6859 0.5894
vn 0.5704 0.0991 -0.8154
vn 0.7271 0.1111 -0.6774
vn 0.3485 -0.8756 -0.3346
vn -0.1730 -0.9403 -0.2930
vn -0.0600 -0.7813 -0.6213
vn 0.4214 -0.5667 -0.7080
vn 0.7271 0.1111 -0.6774
vn -0.4485 -0.0310 -0.8932
vn -0.4907 -0.0368 -0.8706
vn 0.5704 0.0991 -0.8154
vn 0.3485 -0.8756 -0.3346
vn 0.4291 -0.5604 -0.7084
vn -0.5515 -0.8257 0.1187
vn -0.5150 -0.7341 -0.4426
vn -0.3460 -0.6647 0.6622
vn 0.7138 -0.4259 0.5560
vn 0.2867 -0.8988 0.3317
vn -0.0302 -0.7679 0.6399
vn -0.1626 0.7645 -0.6237
vn 0.4110 0.4464 -0.7949
vn 0.2783 0.9345 -0.2219
vn -0.1626 0.7645 -0.6237
vn -0.5079 0.6516 -0.5634
vn -0.0153 0.5786 -0.8155
vn 0.7768 -0.2491 0.5783
vn 0.5627 -0.7596 0.3261
vn 0.3007 -0.8571 -0.4183
vn -0.5150 -0.7341 -0.4426
vn -0.5515 -0.8257 0.1187
vn -0.2533 -0.7149 -0.6518
vn -0.6683 -0.7230 0.1748
vn -0.6102 -0.6674 0.4269
vn -0.0444 -0.9962 0.0755
vn -0.0600 -0.7813 -0.6213
vn 0.1911 -0.9745 -0.1174
vn 0.3007 -0.8571 -0.4183
vn 0.4377 0.7264 -0.5298
vn 0.3631 0.7675 -0.5283
vn -0.1593 0.4293 0.8890
vn 0.1622 -0.8362 0.5239
vn 0.1223 -0.3870 -0.9139
vn -0.2062 -0.9561 -0.2081
vn 0.5704 0.0991 -0.8154
vn 0.4291 -0.5604 -0.7084
vn -0.7937 -0.2586 -0.5506
vn -0.5079 0.6516 -0.5634
vn 0.2656 0.2720 -0.9249
vn -0.0153 0.5786 -0.8155
vn -0.1593 0.4293 0.8890
vn 0.3631 0.7675 -0.5283
vn 0.0200 0.8813 0.4721
vn 0.4291 -0.5604 -0.7084
vn 0.3485 -0.8756 -0.3346
vn 0.3593 -0.8843 0.2982
vn -0.1626 0.7645 -0.6237
vn -0.1509 0.5201 -0.8407
vn 0.4110 0.4464 -0.7949
vn 0.1911 -0.9745 -0.1174
vn 0.7768 -0.2491 0.5783
vn 0.3007 -0.8571 -0.4183
vn -0.7811 0.0188 0.6242
vn 0.3593 -0.8843 0.2982
vn 0.3485 -0.8756 -0.3346
vn 0.0200 0.8813 0.4721
vn 0.3631 0.7675 -0.5283
vn 0.4110 0.4464 -0.7949
vn -0.1626 0.7645 -0.6237
vn -0.0153 0.5786 -0.8155
vn -0.1509 0.5201 -0.8407
vn -0.1730 -0.9403 -0.2930
vn -0.4268 -0.6859 0.5894
vn -0.6683 -0.7230 0.1748
vn -0.0153 0.5786 -0.8155
vn 0.2656 0.2720 -0.9249
vn 0.6246 0.7069 -0.3319
vn -0.6951 -0.7018 0.1556
vn -0.0444 -0.9962 0.0755
vn -0.6102 -0.6674 0.4269
vn -0.6102 -0.6674 0.4269
vn 0.1622 -0.8362 0.5239
vn -0.6951 -0.7018 0.1556
vn -0.6951 -0.7018 0.1556
vn 0.1622 -0.8362 0.5239
vn -0.2062 -0.9561 -0.2081
vn 0.5627 -0.7596 0.3261
vn 0.7768 -0.2491 0.5783
vn 0.2867 -0.8988 0.3317
vn 0.4110 0.4464 -0.7949
vn -0.1509 0.5201 -0.8407
vn 0.1899 0.4051 -0.8943
vn -0.0600 -0.7813 -0.6213
vn 0.7768 -0.2491 0.5783
vn 0.1911 -0.9745 -0.1174
vn -0.1509 0.5201 -0.8407
vn -0.0153 0.5786 -0.8155
vn 0.8024 0.5202 -0.2925
vn 0.5704 0.0991 -0.8154
vn -0.5622 0.3480 -0.7503
vn 0.7271 0.1111 -0.6774
vn -0.1730 -0.9403 -0.2930
vn -0.6683 -0.7230 0.1748
vn -0.1243 -0.8335 -0.5383
vn -0.0600 -0.7813 -0.6213
vn 0.2867 -0.8988 0.3317
vn 0.7768 -0.2491 0.5783
vn 0.7271 0.1111 -0.6774
vn -0.5622 0.3480 -0.7503
vn -0.4485 -0.0310 -0.8932
vn 0.8024 0.5202 -0.2925
vn 0.1899 0.4051 -0.8943
vn -0.1509 0.5201 -0.8407
vn -0.0153 0.5786 -0.8155
vn 0.6246 0.7069 -0.3319
vn 0.8024 0.5202 -0.2925
vn 0.7355 0.5612 -0.3797
vn 0.8024 0.5202 -0.2925
vn 0.6246 0.7069 -0.3319
vn 0.4377 0.7264 -0.5298
vn -0.1593 0.4293 0.8890
vn -0.6962 0.6250 0.3532
vn 0.8024 0.5202 -0.2925
vn 0.7355 0.5612 -0.3797
vn 0.6023 0.6915 -0.3987
vn 0.3924 -0.9163 0.0798
vn -0.2094 -0.9281 0.3079
vn 0.3485 -0.8756 -0.3346
vn 0.3924 -0.9163 0.0798
vn -0.0302 -0.7679 0.6399
vn -0.2094 -0.9281 0.3079
vn -0.1778 -0.9760 0.1259
vn 0.2867 -0.8988 0.3317
vn -0.0600 -0.7813 -0.6213
vn -0.4907 -0.0368 -0.8706
vn -0.4485 -0.0310 -0.8932
vn 0.7355 0.5612 -0.3797
vn -0.1778 -0.9760 0.1259
vn -0.0302 -0.7679 0.6399
vn 0.2867 -0.8988 0.3317
vn -0.7811 0.0188 0.6242
vn -0.5769 -0.6737 0.4619
vn 0.3593 -0.8843 0.2982
vn 0.3593 -0.8843 0.2982
vn -0.5769 -0.6737 0.4619
vn 0.4291 -0.5604 -0.7084
vn -0.3297 -0.9441 0.0029
vn -0.7811 0.0188 0.6242
vn 0.3485 -0.8756 -0.3346
vn 0.6023 0.6915 -0.3987
vn 0.7355 0.5612 -0.3797
vn -0.4485 -0.0310 -0.8932
vn 0.3485 -0.8756 -0.3346
vn -0.2094 -0.9281 0.3079
vn -0.3297 -0.9441 0.0029
vn -0.1243 -0.8335 -0.5383
vn -0.6683 -0.7230 0.1748
vn -0.0444 -0.9962 0.0755
vn -0.2719 -0.7716 -0.5750
vn -0.0600 -0.7813 -0.6213
vn -0.1730 -0.9403 -0.2930
vn -0.4485 -0.0310 -0.8932
vn -0.3297 -0.9441 0.0029
vn 0.1632 0.0524 -0.9852
vn -0.4485 -0.0310 -0.8932
vn -0.5622 0.3480 -0.7503
vn -0.3297 -0.9441 0.0029
vn 0.6023 0.6915 -0.3987
vn -0.4485 -0.0310 -0.8932
vn 0.1632 0.0524 -0.9852
vn -0.6962 0.6250 0.3532
vn -0.1593 0.4293 0.8890
vn -0.4795 0.5213 0.7060
vn 0.8024 0.5202 -0.2925
vn 0.6023 0.6915 -0.3987
vn 0.1213 0.8746 -0.4695
vn 0.6023 0.6915 -0.3987
vn 0.1632 0.0524 -0.9852
vn 0.1213 0.8746 -0.4695
vn 0.5704 0.0991 -0.8154
vn -0.7937 -0.2586 -0.5506
vn -0.5622 0.3480 -0.7503
vn -0.2719 -0.7716 -0.5750
vn -0.1730 -0.9403 -0.2930
vn -0.1243 -0.8335 -0.5383
vn -0.3297 -0.9441 0.0029
vn 0.5898 -0.2984 -0.7504
vn 0.1632 0.0524 -0.9852
vn -0.7811 0.0188 0.6242
vn -0.3297 -0.9441 0.0029
vn -0.5622 0.3480 -0.7503
vn 0.1632 0.0524 -0.9852
vn 0.5898 -0.2984 -0.7504
vn -0.6369 0.0299 -0.7704
vn -0.3297 -0.9441 0.0029
vn 0.7189 -0.6814 -0.1373
vn 0.5898 -0.2984 -0.7504
vn -0.3297 -0.9441 0.0029
vn -0.2094 -0.9281 0.3079
vn 0.0018 -0.7351 0.6779
vn -0.7811 0.0188 0.6242
vn -0.5622 0.3480 -0.7503
vn -0.7937 -0.2586 -0.5506
vn -0.3297 -0.9441 0.0029
vn 0.3080 -0.8523 0.4227
vn 0.7189 -0.6814 -0.1373
vn 0.8024 0.5202 -0.2925
vn 0.1213 0.8746 -0.4695
vn 0.1899 0.4051 -0.8943
vn 0.1899 0.4051 -0.8943
vn -0.6068 0.3280 -0.7240
vn 0.4110 0.4464 -0.7949
vn -0.0600 -0.7813 -0.6213
vn -0.2719 -0.7716 -0.5750
vn -0.1778 -0.9760 0.1259
vn 0.4291 -0.5604 -0.7084
vn -0.5769 -0.6737 0.4619
vn -0.7937 -0.2586 -0.5506
vn -0.5692 0.7151 0.4057
vn -0.2353 0.9605 0.1487
vn -0.4795 0.5213 0.7060
vn -0.1593 0.4293 0.8890
vn 0.0200 0.8813 0.4721
vn -0.4795 0.5213 0.7060
vn -0.1243 -0.8335 -0.5383
vn -0.0444 -0.9962 0.0755
vn -0.6976 -0.5992 -0.3928
vn 0.1899 0.4051 -0.8943
vn -0.7979 0.4703 -0.3771
vn -0.6068 0.3280 -0.7240
vn -0.7811 0.0188 0.6242
vn -0.7937 -0.2586 -0.5506
vn -0.5769 -0.6737 0.4619
vn -0.4213 -0.0580 0.9051
vn -0.5344 -0.6243 0.5697
vn -0.5515 -0.8257 0.1187
vn -0.5344 -0.6243 0.5697
vn -0.6951 -0.7018 0.1556
vn -0.2062 -0.9561 -0.2081
vn 0.4137 -0.0383 -0.9096
vn 0.5898 -0.2984 -0.7504
vn 0.7189 -0.6814 -0.1373
vn 0.7189 -0.6814 -0.1373
vn 0.3080 -0.8523 0.4227
vn -0.9686 -0.1958 0.1530
vn 0.1213 0.8746 -0.4695
vn -0.2751 0.6517 -0.7068
vn 0.1899 0.4051 -0.8943
vn -0.1885 0.4515 -0.8722
vn 0.0200 0.8813 0.4721
vn 0.4110 0.4464 -0.7949
vn 0.5898 -0.2984 -0.7504
vn 0.6304 0.6399 -0.4395
vn -0.6369 0.0299 -0.7704
vn -0.4887 -0.6956 -0.5266
vn -0.0302 -0.7679 0.6399
vn -0.1778 -0.9760 0.1259
vn 0.3080 -0.8523 0.4227
vn -0.3297 -0.9441 0.0029
vn -0.1178 -0.9917 0.0507
vn -0.1778 -0.9760 0.1259
vn -0.2719 -0.7716 -0.5750
vn -0.4887 -0.6956 -0.5266
vn 0.4137 -0.0383 -0.9096
vn 0.6304 0.6399 -0.4395
vn 0.5898 -0.2984 -0.7504
vn 0.4110 0.4464 -0.7949
vn -0.6068 0.3280 -0.7240
vn -0.1885 0.4515 -0.8722
vn 0.0200 0.8813 0.4721
vn -0.5250 0.5908 0.6127
vn -0.4795 0.5213 0.7060
vn -0.5515 -0.8257 0.1187
vn -0.5344 -0.6243 0.5697
vn -0.2062 -0.9561 -0.2081
vn -0.5918 0.7859 -0.1790
vn -0.2353 0.9605 0.1487
vn -0.5692 0.7151 0.4057
vn -0.5250 0.5908 0.6127
vn -0.6570 0.5698 0.4937
vn -0.4795 0.5213 0.7060
vn -0.5692 0.7151 0.4057
vn -0.4795 0.5213 0.7060
vn -0.6570 0.5698 0.4937
vn -0.1178 -0.9917 0.0507
vn -0.9686 -0.1958 0.1530
vn 0.3080 -0.8523 0.4227
vn 0.4032 -0.5714 -0.7148
vn 0.4137 -0.0383 -0.9096
vn 0.7189 -0.6814 -0.1373
vn -0.1178 -0.9917 0.0507
vn -0.3297 -0.9441 0.0029
vn 0.0018 -0.7351 0.6779
vn 0.1899 0.4051 -0.8943
vn -0.2751 0.6517 -0.7068
vn -0.7979 0.4703 -0.3771
vn -0.1243 -0.8335 -0.5383
vn -0.6976 -0.5992 -0.3928
vn -0.2719 -0.7716 -0.5750
vn -0.5918 0.7859 -0.1790
vn -0.7554 0.6495 0.0868
vn -0.6972 0.6437 -0.3155
vn -0.9686 -0.1958 0.1530
vn -0.6184 -0.0140 0.7857
vn 0.7189 -0.6814 -0.1373
vn -0.6570 0.5698 0.4937
vn -0.5918 0.7859 -0.1790
vn -0.5692 0.7151 0.4057
vn -0.0302 -0.7679 0.6399
vn 0.0018 -0.7351 0.6779
vn -0.2094 -0.9281 0.3079
vn -0.6976 -0.5992 -0.3928
vn -0.0444 -0.9962 0.0755
vn -0.6951 -0.7018 0.1556
vn 0.6304 0.6399 -0.4395
vn 0.4137 -0.0383 -0.9096
vn -0.7673 0.2386 -0.5953
vn -0.6560 0.2561 -0.7100
vn -0.2751 0.6517 -0.7068
vn 0.1213 0.8746 -0.4695
vn -0.6570 0.5698 0.4937
vn -0.9561 0.2055 0.2089
vn -0.5918 0.7859 -0.1790
vn 0.7189 -0.6814 -0.1373
vn 0.3960 -0.9005 0.1797
vn 0.4032 -0.5714 -0.7148
vn -0.7673 0.2386 -0.5953
vn -0.6369 0.0299 -0.7704
vn 0.6304 0.6399 -0.4395
vn -0.5344 -0.6243 0.5697
vn -0.4213 -0.0580 0.9051
vn -0.7729 0.1591 0.6143
vn -0.5250 0.5908 0.6127
vn -0.9561 0.2055 0.2089
vn -0.6570 0.5698 0.4937
vn -0.6369 0.0299 -0.7704
vn -0.6560 0.2561 -0.7100
vn 0.1632 0.0524 -0.9852
vn -0.6560 0.2561 -0.7100
vn 0.1213 0.8746 -0.4695
vn 0.1632 0.0524 -0.9852
vn -0.7729 0.1591 0.6143
vn -0.7554 0.6495 0.0868
vn -0.3966 0.0061 0.9180
vn -0.9561 0.2055 0.2089
vn -0.8815 0.4217 0.2122
vn -0.5918 0.7859 -0.1790
vn -0.7729 0.1591 0.6143
vn -0.6972 0.6437 -0.3155
vn -0.7554 0.6495 0.0868
vn -0.3507 0.8381 -0.4179
vn -0.7979 0.4703 -0.3771
vn -0.2751 0.6517 -0.7068
vn -0.5344 -0.6243 0.5697
vn -0.7729 0.1591 0.6143
vn -0.6951 -0.7018 0.1556
vn 0.7189 -0.6814 -0.1373
vn -0.5191 -0.6790 0.5191
vn 0.3960 -0.9005 0.1797
vn -0.3507 0.8381 -0.4179
vn -0.2751 0.6517 -0.7068
vn -0.6560 0.2561 -0.7100
vn -0.9722 -0.1052 0.2090
vn -0.6951 -0.7018 0.1556
vn -0.7729 0.1591 0.6143
vn -0.1885 0.4515 -0.8722
vn -0.5250 0.5908 0.6127
vn 0.0200 0.8813 0.4721
vn -0.8145 -0.3764 -0.4414
vn 0.3960 -0.9005 0.1797
vn -0.5191 -0.6790 0.5191
vn -0.7729 0.1591 0.6143
vn -0.3966 0.0061 0.9180
vn -0.9722 -0.1052 0.2090
vn -0.3915 -0.2430 -0.8875
vn -0.6560 0.2561 -0.7100
vn -0.6369 0.0299 -0.7704
vn -0.0302 -0.7679 0.6399
vn -0.4887 -0.6956 -0.5266
vn 0.0018 -0.7351 0.6779
vn -0.5918 0.7859 -0.1790
vn -0.8815 0.4217 0.2122
vn -0.7554 0.6495 0.0868
vn -0.3966 0.0061 0.9180
vn -0.7554 0.6495 0.0868
vn -0.8815 0.4217 0.2122
vn -0.3507 0.8381 -0.4179
vn -0.6560 0.2561 -0.7100
vn -0.3915 -0.2430 -0.8875
vn -0.8145 -0.3764 -0.4414
vn 0.4032 -0.5714 -0.7148
vn 0.3960 -0.9005 0.1797
vn -0.4887 -0.6956 -0.5266
vn -0.2719 -0.7716 -0.5750
vn -0.6976 -0.5992 -0.3928
vn 0.7189 -0.6814 -0.1373
vn -0.6184 -0.0140 0.7857
vn -0.5191 -0.6790 0.5191
vn -0.9722 -0.1052 0.2090
vn -0.3966 0.0061 0.9180
vn -0.8815 0.4217 0.2122
vn -0.3915 -0.2430 -0.8875
vn -0.6369 0.0299 -0.7704
vn -0.9686 -0.1958 0.1530
vn -0.9561 0.2055 0.2089
vn -0.8948 0.3518 -0.2749
vn -0.4887 -0.6956 -0.5266
vn -0.6068 0.3280 -0.7240
vn -0.8970 0.4160 0.1495
vn -0.5838 0.3697 0.7228
vn -0.3915 -0.2430 -0.8875
vn -0.9686 -0.1958 0.1530
vn -0.1178 -0.9917 0.0507
vn -0.1885 0.4515 -0.8722
vn -0.8948 0.3518 -0.2749
vn -0.5250 0.5908 0.6127
vn -0.3507 0.8381 -0.4179
vn -0.8970 0.4160 0.1495
vn -0.6068 0.3280 -0.7240
vn -0.3915 -0.2430 -0.8875
vn 0.5069 0.7209 -0.4726
vn -0.3507 0.8381 -0.4179
vn -0.8948 0.3518 -0.2749
vn -0.5838 0.3697 0.7228
vn -0.4887 -0.6956 -0.5266
vn -0.6068 0.3280 -0.7240
vn -0.5838 0.3697 0.7228
vn -0.8948 0.3518 -0.2749
vn -0.6184 -0.0140 0.7857
vn -0.9686 -0.1958 0.1530
vn -0.6369 0.0299 -0.7704
vn -0.8145 -0.3764 -0.4414
vn -0.7673 0.2386 -0.5953
vn 0.4032 -0.5714 -0.7148
vn -0.1178 -0.9917 0.0507
vn 0.0018 -0.7351 0.6779
vn -0.6169 -0.6476 0.4473
vn -0.6976 -0.5992 -0.3928
vn -0.8320 0.3714 -0.4122
vn -0.4887 -0.6956 -0.5266
vn -0.6068 0.3280 -0.7240
vn -0.7979 0.4703 -0.3771
vn -0.3507 0.8381 -0.4179
vn -0.6068 0.3280 -0.7240
vn -0.8948 0.3518 -0.2749
vn -0.1885 0.4515 -0.8722
vn -0.4141 0.8444 0.3400
vn -0.3507 0.8381 -0.4179
vn 0.5069 0.7209 -0.4726
vn 0.4137 -0.0383 -0.9096
vn 0.4032 -0.5714 -0.7148
vn -0.7673 0.2386 -0.5953
vn -0.9561 0.2055 0.2089
vn -0.5250 0.5908 0.6127
vn -0.8948 0.3518 -0.2749
vn -0.3915 -0.2430 -0.8875
vn 0.1700 -0.1038 -0.9800
vn 0.5069 0.7209 -0.4726
vn -0.3915 -0.2430 -0.8875
vn -0.1178 -0.9917 0.0507
vn 0.4771 -0.6851 -0.5505
vn -0.6951 -0.7018 0.1556
vn -0.9722 -0.1052 0.2090
vn -0.6976 -0.5992 -0.3928
vn -0.6976 -0.5992 -0.3928
vn -0.9722 -0.1052 0.2090
vn -0.8320 0.3714 -0.4122
vn -0.6184 -0.0140 0.7857
vn -0.6369 0.0299 -0.7704
vn -0.7673 0.2386 -0.5953
vn -0.4141 0.8444 0.3400
vn -0.8970 0.4160 0.1495
vn -0.3507 0.8381 -0.4179
vn -0.8815 0.4217 0.2122
vn -0.9561 0.2055 0.2089
vn -0.8320 0.3714 -0.4122
vn -0.9561 0.2055 0.2089
vn -0.4887 -0.6956 -0.5266
vn -0.8320 0.3714 -0.4122
vn -0.3915 -0.2430 -0.8875
vn 0.4771 -0.6851 -0.5505
vn 0.1700 -0.1038 -0.9800
vn -0.8815 0.4217 0.2122
vn -0.8320 0.3714 -0.4122
vn -0.9722 -0.1052 0.2090
vn -0.8970 0.4160 0.1495
vn -0.4593 0.8697 0.1808
vn -0.5838 0.3697 0.7228
vn 0.1700 -0.1038 -0.9800
vn -0.4680 0.8835 -0.0195
vn 0.5069 0.7209 -0.4726
vn -0.7673 0.2386 -0.5953
vn -0.8145 -0.3764 -0.4414
vn -0.6184 -0.0140 0.7857
vn -0.4806 -0.1063 0.8705
vn -0.4887 -0.6956 -0.5266
vn -0.5838 0.3697 0.7228
vn -0.8970 0.4160 0.1495
vn -0.4141 0.8444 0.3400
vn -0.4593 0.8697 0.1808
vn -0.5191 -0.6790 0.5191
vn -0.6184 -0.0140 0.7857
vn -0.8145 -0.3764 -0.4414
vn 0.2961 0.1024 -0.9497
vn 0.4244 -0.2058 -0.8818
vn 0.4771 -0.6851 -0.5505
vn -0.4806 -0.1063 0.8705
vn 0.0018 -0.7351 0.6779
vn -0.4887 -0.6956 -0.5266
vn 0.1700 -0.1038 -0.9800
vn 0.4771 -0.6851 -0.5505
vn 0.4244 -0.2058 -0.8818
vn 0.9451 -0.2907 0.1495
vn 0.2961 0.1024 -0.9497
vn 0.4771 -0.6851 -0.5505
vn -0.4593 0.8697 0.1808
vn -0.4806 -0.1063 0.8705
vn -0.5838 0.3697 0.7228
vn -0.1178 -0.9917 0.0507
vn -0.8604 -0.4183 0.2911
vn 0.4771 -0.6851 -0.5505
vn 0.4771 -0.6851 -0.5505
vn -0.8604 -0.4183 0.2911
vn 0.9451 -0.2907 0.1495
vn -0.4141 0.8444 0.3400
vn 0.5069 0.7209 -0.4726
vn -0.4680 0.8835 -0.0195
vn -0.6169 -0.6476 0.4473
vn 0.0018 -0.7351 0.6779
vn -0.6767 -0.2473 0.6934
vn 0.2861 -0.6704 -0.6846
vn 0.9451 -0.2907 0.1495
vn 0.4599 -0.8531 0.2463
vn 0.2861 -0.6704 -0.6846
vn 0.2961 0.1024 -0.9497
vn 0.9451 -0.2907 0.1495
vn -0.4141 0.8444 0.3400
vn -0.6767 -0.2473 0.6934
vn -0.4593 0.8697 0.1808
vn -0.6767 -0.2473 0.6934
vn -0.4806 -0.1063 0.8705
vn -0.4593 0.8697 0.1808
vn 0.0018 -0.7351 0.6779
vn -0.4806 -0.1063 0.8705
vn -0.6767 -0.2473 0.6934
vn -0.6169 -0.6476 0.4473
vn -0.8604 -0.4183 0.2911
vn -0.1178 -0.9917 0.0507
vn -0.6767 -0.2473 0.6934
vn -0.4141 0.8444 0.3400
vn -0.4680 0.8835 -0.0195
vn 0.9451 -0.2907 0.1495
vn -0.8604 -0.4183 0.2911
vn -0.3036 -0.6786 0.6688
vn 0.4244 -0.2058 -0.8818
vn -0.8427 0.4407 -0.3092
vn 0.1700 -0.1038 -0.9800
vn -0.8162 0.2683 -0.5117
vn 0.4244 -0.2058 -0.8818
vn 0.2961 0.1024 -0.9497
vn -0.4680 0.8835 -0.0195
vn 0.1700 -0.1038 -0.9800
vn -0.8427 0.4407 -0.3092
vn 0.9451 -0.2907 0.1495
vn -0.3036 -0.6786 0.6688
vn 0.4599 -0.8531 0.2463
vn 0.2861 -0.6704 -0.6846
vn 0.4599 -0.8531 0.2463
vn -0.8854 -0.4304 -0.1756
vn 0.4599 -0.8531 0.2463
vn -0.3036 -0.6786 0.6688
vn -0.8854 -0.4304 -0.1756
vn -0.6767 -0.2473 0.6934
vn -0.4680 0.8835 -0.0195
vn -0.6169 -0.6476 0.4473
vn -0.8604 -0.4183 0.2911
vn -0.6169 -0.6476 0.4473
vn -0.8427 0.4407 -0.3092
vn -0.4680 0.8835 -0.0195
vn -0.8427 0.4407 -0.3092
vn -0.6169 -0.6476 0.4473
vn -0.8162 0.2683 -0.5117
vn 0.2861 -0.6704 -0.6846
vn -0.8854 -0.4304 -0.1756
vn -0.8604 -0.4183 0.2911
vn -0.8427 0.4407 -0.3092
vn -0.8162 0.2683 -0.5117
vn -0.8162 0.2683 -0.5117
vn -0.8427 0.4407 -0.3092
vn 0.4244 -0.2058 -0.8818
vn 0.2861 -0.6704 -0.6846
vn -0.8162 0.2683 -0.5117
vn 0.2961 0.1024 -0.9497
vn -0.3036 -0.6786 0.6688
vn -0.8604 -0.4183 0.2911
vn -0.8854 -0.4304 -0.1756
vn -0.8162 0.2683 -0.5117
vn -0.8854 -0.4304 -0.1756
vn -0.8604 -0.4183 0.2911
vn 0.0000 1.0000 0.0000
vn 0.0000 1.0000 0.0000
vn 0.0000 1.0000 0.0000
vn 0.0000 1.0000 0.0000
vn 0.0000 1.0000 0.0000
vn 0.0000 1.0000 0.0000
vn 0.0000 1.0000 0.0000
vn 0.0000 1.0000 0.0000
vn 0.0000 1.0000 0.0000
vn 0.0000 1.0000 0.0000
vn 0.0000 1.0000 0.0000
vn 0.0000 1.0000 0.0000
vn 0.0000 1.0000 0.0000
vn 0.0000 1.0000 0.0000
vn 0.0000 1.0000 0.0000
vn 0.0000 1.0000 0.0000
vn 0.0000 1.0000 0.0000
vn 0.0000 1.0000 0.0000
vn 0.0000 1.0000 0.0000
vn 0.0000 1.0000 0.0000
vn 0.0000 1.0000 0.0000
vn 0.0000 1.0000 0.0000
vn 0.0000 1.0000 0.0000
vn 0.0000 1.0000 0.0000
vn 0.0000 1.0000 0.0000
vn 0.0000 1.0000 0.0000
vn 0.0000 1.0000 0.0000
vn 0.0000 1.0000 0.0000
vn 0.0000 1.0000 0.0000
f 1/1/1 2/2/2 3/3/3
f 4/4/4 5/5/5 6/6/6
f 7/7/7 8/8/8 9/9/9
f 10/10/10 11/11/11 12/12/12
f 13/13/13 14/14/14 15/15/15
f 16/16/16 17/17/17 18/18/18
f 19/19/19 20/20/20 21/21/21
f 22/22/22 23/23/23 24/24/24
f 25/25/25 26/26/26 27/27/27
f 28/28/28 29/29/29 30/30/30
f 31/31/31 32/32/32 33/33/33
f 34/34/34 35/35/35 36/36/36
f 37/37/37 38/38/38 39/39/39
f 40/40/40 41/41/41 42/42/42
f 43/43/43 44/44/44 45/45/45
f 46/46/46 47/47/47 48/48/48
f 49/49/49 50/50/50 51/51/51
f 52/52/52 53/53/53 54/54/54
f 55/55/55 56/56/56 57/57/57
f 58/58/58 59/59/59 60/60/60
f 61/61/61 62/62/62 63/63/63
f 64/64/64 65/65/65 66/66/66
f 67/67/67 68/68/68 69/69/69
f 70/70/70 71/71/71 72/72/72
f 73/73/73 74/74/74 75/75/75
f 76/76/76 77/77/77 78/78/78
f 79/79/79 80/80/80 81/81/81
f 82/82/82 83/83/83 84/84/84
f 85/85/85 86/86/86 87/87/87
f 88/88/88 89/89/89 90/90/90
f 91/91/91 92/92/92 93/93/93
f 94/94/94 95/95/95 96/96/96
f 97/97/97 98/98/98 99/99/99
f 100/100/100 101/101/101 102/102/102
f 103/103/103 104/104/104 105/105/105
f 106/106/106 107/107/107 108/108/108
f 109/109/109 110/110/110 111/111/111
f 112/112/112 113/113/113 114/114/114
f 115/115/115 116/116/116 117/117/117
f 118/118/118 119/119/119 120/120/120
f 121/121/121 122/122/122 123/123/123
f 124/124/124 125/125/125 126/126/126
f 127/127/127 128/128/128 129/129/129
f 130/130/130 131/131/131 132/132/132
f 133/133/133 134/134/134 135/135/135
f 136/136/136 137/137/137 138/138/138
f 139/139/139 140/140/140 141/141/141
f 142/142/142 143/143/143 144/144/144
f 145/145/145 146/146/146 147/147/147
f 148/148/148 149/149/149 150/150/150
f 151/151/151 152/152/152 153/153/153
f 154/154/154 155/155/155 156/156/156
f 157/157/157 158/158/158 159/159/159
f 160/160/160 161/161/161 162/162/162
f 163/163/163 164/164/164 165/165/165
f 166/166/166 167/167/167 168/168/168
f 169/169/169 170/170/170 171/171/171
f 172/172/172 173/173/173 174/174/174
f 175/175/175 176/176/176 177/177/177
f 178/178/178 179/179/179 180/180/180
f 181/181/181 182/182/182 183/183/183
f 184/184/184 185/185/185 186/186/186
f 187/187/187 188/188/188 189/189/189
f 190/190/190 191/191/191 192/192/192
f 193/193/193 194/194/194 195/195/195
f 196/196/196 197/197/197 198/198/198
f 199/199/199 200/200/200 201/201/201
f 202/202/202 203/203/203 204/204/204
f 205/205/205 206/206/206 207/207/207
f 208/208/208 209/209/209 210/210/210
f 211/211/211 212/212/212 213/213/213
f 214/214/214 215/215/215 216/216/216
f 217/217/217 218/218/218 219/219/219
f 220/220/220 221/221/221 222/222/222
f 223/223/223 224/224/224 225/225/225
f 226/226/226 227/227/227 228/228/228
f 229/229/229 230/230/230 231/231/231
f 232/232/232 233/233/233 234/234/234
f 235/235/235 236/236/236 237/237/237
f 238/238/238 239/239/239 240/240/240
f 241/241/241 242/242/242 243/243/243
f 244/244/244 245/245/245 246/246/246
f 247/247/247 248/248/248 249/249/249
f 250/250/250 251/251/251 252/252/252
f 253/253/253 254/254/254 255/255/255
f 256/256/256 257/257/257 258/258/258
f 259/259/259 260/260/260 261/261/261
f 262/262/262 263/263/263 264/264/264
f 265/265/265 266/266/266 267/267/267
f 268/268/268 269/269/269 270/270/270
f 271/271/271 272/272/272 273/273/273
f 274/274/274 275/275/275 276/276/276
f 277/277/277 278/278/278 279/279/279
f 280/280/280 281/281/281 282/282/282
f 283/283/283 284/284/284 285/285/285
f 286/286/286 287/287/287 288/288/288
f 289/289/289 290/290/290 291/291/291
f 292/292/292 293/293/293 294/294/294
f 295/295/295 296/296/296 297/297/297
f 298/298/298 299/299/299 300/300/300
f 301/301/301 302/302/302 303/303/303
f 304/304/304 305/305/305 306/306/306
f 307/307/307 308/308/308 309/309/309
f 310/310/310 311/311/311 312/312/312
f 313/313/313 314/314/314 315/315/315
f 316/316/316 317/317/317 318/318/318
f 319/319/319 320/320/320 321/321/321
f 322/322/322 323/323/323 324/324/324
f 325/325/325 326/326/326 327/327/327
f 328/328/328 329/329/329 330/330/330
f 331/331/331 332/332/332 333/333/333
f 334/334/334 335/335/335 336/336/336
f 337/337/337 338/338/338 339/339/339
f 340/340/340 341/341/341 342/342/342
f 343/343/343 344/344/344 345/345/345
f 346/346/346 347/347/347 348/348/348
f 349/349/349 350/350/350 351/351/351
f 352/352/352 353/353/353 354/354/354
f 355/355/355 356/356/356 357/357/357
f 358/358/358 359/359/359 360/360/360
f 361/361/361 362/362/362 363/363/363
f 364/364/364 365/365/365 366/366/366
f 367/367/367 368/368/368 369/369/369
f 370/370/370 371/371/371 372/372/372
f 373/373/373 374/374/374 375/375/375
f 376/376/376 377/377/377 378/378/378
f 379/379/379 380/380/380 381/381/381
f 382/382/382 383/383/383 384/384/384
f 385/385/385 386/386/386 387/387/387
f 388/388/388 389/389/389 390/390/390
f 391/391/391 392/392/392 393/393/393
f 394/394/394 395/395/395 396/396/396
f 397/397/397 398/398/398 399/399/399
f 400/400/400 401/401/401 402/402/402
f 403/403/403 404/404/404 405/405/405
f 406/406/406 407/407/407 408/408/408
f 409/409/409 410/410/410 411/411/411
f 412/412/412 413/413/413 414/414/414
f 415/415/415 416/416/416 417/417/417
f 418/418/418 419/419/419 420/420/420
f 421/421/421 422/422/422 423/423/423
f 424/424/424 425/425/425 426/426/426
f 427/427/427 428/428/428 429/429/429
f 430/430/430 431/431/431 432/432/432
f 433/433/433 434/434/434 435/435/435
f 436/436/436 437/437/437 438/438/438
f 439/439/439 440/440/440 441/441/441
f 442/442/442 443/443/443 444/444/444
f 445/445/445 446/446/446 447/447/447
f 448/448/448 449/449/449 450/450/450
f 451/451/451 452/452/452 453/453/453
f 454/454/454 455/455/455 456/456/456
f 457/457/457 458/458/458 459/459/459
f 460/460/460 461/461/461 462/462/462
f 463/463/463 464/464/464 465/465/465
f 466/466/466 467/467/467 468/468/468
f 469/469/469 470/470/470 471/471/471
f 472/472/472 473/473/473 474/474/474
f 475/475/475 476/476/476 477/477/477
f 478/478/478 479/479/479 480/480/480
f 481/481/481 482/482/482 483/483/483
f 484/484/484 485/485/485 486/486/486
f 487/487/487 488/488/488 489/489/489
f 490/490/490 491/491/491 492/492/492
f 493/493/493 494/494/494 495/495/495
f 496/496/496 497/497/497 498/498/498
f 499/499/499 500/500/500 501/501/501
f 502/502/502 503/503/503 504/504/504
f 505/505/505 506/506/506 507/507/507
f 508/508/508 509/509/509 510/510/510
f 511/511/511 512/512/512 513/513/513
f 514/514/514 515/515/515 516/516/516
f 517/517/517 518/518/518 519/519/519
f 520/520/520 521/521/521 522/522/522
f 523/523/523 524/524/524 525/525/525
f 526/526/526 527/527/527 528/528/528
f 529/529/529 530/530/530 531/531/531
f 532/532/532 533/533/533 534/534/534
f 535/535/535 536/536/536 537/537/537
f 538/538/538 539/539/539 540/540/540
f 541/541/541 542/542/542 543/543/543
f 544/544/544 545/545/545 546/546/546
f 547/547/547 548/548/548 549/549/549
f 550/550/550 551/551/551 552/552/552
f 553/553/553 554/554/554 555/555/555
f 556/556/556 557/557/557 558/558/558
f 559/559/559 560/560/560 561/561/561
f 562/562/562 563/563/563 564/564/564
f 565/565/565 566/566/566 567/567/567
f 568/568/568 569/569/569 570/570/570
f 571/571/571 572/572/572 573/573/573
f 574/574/574 575/575/575 576/576/576
f 577/577/577 578/578/578 579/579/579
f 580/580/580 581/581/581 582/582/582
f 583/583/583 584/584/584 585/585/585
f 586/586/586 587/587/587 588/588/588
f 589/589/589 590/590/590 591/591/591
f 592/592/592 593/593/593 594/594/594
f 595/595/595 596/596/596 597/597/597
f 598/598/598 599/599/599 600/600/600
f 601/601/601 602/602/602 603/603/603
f 604/604/604 605/605/605 606/606/606
f 607/607/607 608/608/608 609/609/609
f 610/610/610 611/611/611 612/612/612
f 613/613/613 614/614/614 615/615/615
f 616/616/616 617/617/617 618/618/618
f 619/619/619 620/620/620 621/621/621
f 622/622/622 623/623/623 624/624/624
f 625/625/625 626/626/626 627/627/627
f 628/628/628 629/629/629 630/630/630
f 631/631/631 632/632/632 633/633/633
f 634/634/634 635/635/635 636/636/636
f 637/637/637 638/638/638 639/639/639
f 640/640/640 641/641/641 642/642/642
f 643/643/643 644/644/644 645/645/645
f 646/646/646 647/647/647 648/648/648
f 649/649/649 650/650/650 651/651/651
f 652/652/652 653/653/653 654/654/654
f 655/655/655 656/656/656 657/657/657
f 658/658/658 659/659/659 660/660/660
f 661/661/661 662/662/662 663/663/663
f 664/664/664 665/665/665 666/666/666
f 667/667/667 668/668/668 669/669/669
f 670/670/670 671/671/671 672/672/672
f 673/673/673 674/674/674 675/675/675
f 676/676/676 677/677/677 678/678/678
f 679/679/679 680/680/680 681/681/681
f 682/682/682 683/683/683 684/684/684
f 685/685/685 686/686/686 687/687/687
f 688/688/688 689/689/689 690/690/690
f 691/691/691 692/692/692 693/693/693
f 694/694/694 695/695/695 696/696/696
f 697/697/697 698/698/698 699/699/699
f 700/700/700 701/701/701 702/702/702
f 703/703/703 704/704/704 705/705/705
f 706/706/706 707/707/707 708/708/708
f 709/709/709 710/710/710 711/711/711
f 712/712/712 713/713/713 714/714/714
f 715/715/715 716/716/716 717/717/717
f 718/718/718 719/719/719 720/720/720
f 721/721/721 722/722/722 723/723/723
f 724/724/724 725/725/725 726/726/726
f 727/727/727 728/728/728 729/729/729
f 730/730/730 731/731/731 732/732/732
f 733/733/733 734/734/734 735/735/735
f 736/736/736 737/737/737 738/738/738
f 739/739/739 740/740/740 741/741/741
f 742/742/742 743/743/743 744/744/744
f 745/745/745 746/746/746 747/747/747
f 748/748/748 749/749/749 750/750/750
f 751/751/751 752/752/752 753/753/753
f 754/754/754 755/755/755 756/756/756
f 757/757/757 758/758/758 759/759/759
f 760/760/760 761/761/761 762/762/762
f 763/763/763 764/764/764 765/765/765
f 766/766/766 767/767/767 768/768/768
f 769/769/769 770/770/770 771/771/771
f 772/772/772 773/773/773 774/774/774
f 775/775/775 776/776/776 777/777/777
f 778/778/778 779/779/779 780/780/780
f 781/781/781 782/782/782 783/783/783
f 784/784/784 785/785/785 786/786/786
f 787/787/787 788/788/788 789/789/789
f 790/790/790 791/791/791 792/792/792
f 793/793/793 794/794/794 795/795/795
f 796/796/796 797/797/797 798/798/798
f 799/799/799 800/800/800 801/801/801
f 802/802/802 803/803/803 804/804/804
f 805/805/805 806/806/806 807/807/807
f 808/808/808 809/809/809 810/810/810
f 811/811/811 812/812/812 813/813/813
f 814/814/814 815/815/815 816/816/816
f 817/817/817 818/818/818 819/819/819
f 820/820/820 821/821/821 822/822/822
f 823/823/823 824/824/824 825/825/825
f 826/826/826 827/827/827 828/828/828
f 829/829/829 830/830/830 831/831/831
f 832/832/832 833/833/833 834/834/834
f 835/835/835 836/836/836 837/837/837
f 838/838/838 839/839/839 840/840/840
f 841/841/841 842/842/842 843/843/843
f 844/844/844 845/845/845 846/846/846
f 847/847/847 848/848/848 849/849/849
f 850/850/850 851/851/851 852/852/852
f 853/853/853 854/854/854 855/855/855
f 856/856/856 857/857/857 858/858/858
f 859/859/859 860/860/860 861/861/861
f 862/862/862 863/863/863 864/864/864
f 865/865/865 866/866/866 867/867/867
f 868/868/868 869/869/869 870/870/870
f 871/871/871 872/872/872 873/873/873
f 874/874/874 875/875/875 876/876/876
f 877/877/877 878/878/878 879/879/879
f 880/880/880 881/881/881 882/882/882
f 883/883/883 884/884/884 885/885/885
f 886/886/886 887/887/887 888/888/888
f 889/889/889 890/890/890 891/891/891
f 892/892/892 893/893/893 894/894/894
f 895/895/895 896/896/896 897/897/897
f 898/898/898 899/899/899 900/900/900
f 901/901/901 902/902/902 903/903/903
f 904/904/904 905/905/905 906/906/906
f 907/907/907 908/908/908 909/909/909
f 910/910/910 911/911/911 912/912/912
f 913/913/913 914/914/914 915/915/915
f 916/916/916 917/917/917 918/918/918
f 919/919/919 920/920/920 921/921/921
f 922/922/922 923/923/923 924/924/924
f 925/925/925 926/926/926 927/927/927
f 928/928/928 929/929/929 930/930/930
f 931/931/931 932/932/932 933/933/933
f 934/934/934 935/935/935 936/936/936
f 937/937/937 938/938/938 939/939/939
f 940/940/940 941/941/941 942/942/942
f 943/943/943 944/944/944 945/945/945
f 943/943/943 945/945/945 944/944/944
f 943/943/943 945/945/945 946/946/946
f 943/943/943 946/946/946 945/945/945
f 943/943/943 946/946/946 947/947/947
f 943/943/943 947/947/947 946/946/946
f 943/943/943 947/947/947 948/948/948
f 943/943/943 948/948/948 947/947/947
f 943/943/943 948/948/948 949/949/949
f 943/943/943 949/949/949 948/948/948
f 943/943/943 949/949/949 950/950/950
f 943/943/943 950/950/950 949/949/949
f 943/943/943 950/950/950 951/951/951
f 943/943/943 951/951/951 950/950/950
f 943/943/943 951/951/951 952/952/952
f 943/943/943 952/952/952 951/951/951
f 943/943/943 952/952/952 953/953/953
f 943/943/943 953/953/953 952/952/952
f 943/943/943 953/953/953 954/954/954
f 943/943/943 954/954/954 953/953/953
f 943/943/943 954/954/954 955/955/955
f 943/943/943 955/955/955 954/954/954
f 943/943/943 955/955/955 956/956/956
f 943/943/943 956/956/956 955/955/955
f 943/943/943 956/956/956 957/957/957
f 943/943/943 957/957/957 956/956/956
f 943/943/943 957/957/957 958/958/958
f 943/943/943 958/958/958 957/957/957
f 943/943/943 958/958/958 959/959/959
f 943/943/943 959/959/959 958/958/958
f 943/943/943 959/959/959 960/960/960
f 943/943/943 960/960/960 959/959/959
f 943/943/943 960/960/960 961/961/961
f 943/943/943 961/961/961 960/960/960
f 943/943/943 961/961/961 962/962/962
f 943/943/943 962/962/962 961/961/961
f 943/943/943 962/962/962 963/963/963
f 943/943/943 963/963/963 962/962/962
f 943/943/943 963/963/963 964/964/964
f 943/943/943 964/964/964 963/963/963
f 943/943/943 964/964/964 965/965/965
f 943/943/943 965/965/965 964/964/964
f 943/943/943 965/965/965 966/966/966
f 943/943/943 966/966/966 965/965/965
f 943/943/943 966/966/966 967/967/967
f 943/943/943 967/967/967 966/966/966
f 943/943/943 967/967/967 968/968/968
f 943/943/943 968/968/968 967/967/967
f 943/943/943 968/968/968 969/969/969
f 943/943/943 969/969/969 968/968/968
f 943/943/943 969/969/969 970/970/970
f 943/943/943 970/970/970 969/969/969
f 943/943/943 970/970/970 971/971/971
f 943/943/943 971/971/971 970/970/970
f 943/943/943 971/971/971 944/944/944
f 943/943/943 944/944/944 971/971/971
