o jaw
v 1.60522 6.88785 -2.83756
v 1.59240 6.43121 -2.56856
v 1.59757 6.49146 -2.88477
v 1.60522 6.88785 -2.83756
v 1.61054 6.86217 -2.66681
v 1.59240 6.43121 -2.56856
v 1.59757 6.49146 -2.88477
v 1.59232 6.85805 -2.92333
v 1.60522 6.88785 -2.83756
v 1.39898 6.43327 -2.53242
v 1.59757 6.49146 -2.88477
v 1.59240 6.43121 -2.56856
v 1.42895 6.80544 -2.94851
v 1.59232 6.85805 -2.92333
v 1.59757 6.49146 -2.88477
v 1.61054 6.86217 -2.66681
v 1.42382 6.59313 -2.55418
v 1.59240 6.43121 -2.56856
v 1.59129 6.59793 -2.54603
v 1.42382 6.59313 -2.55418
v 1.58770 6.99224 -2.55931
v 1.48104 6.60040 -3.19945
v 1.46401 6.58791 -3.31405
v 1.45907 6.90629 -3.26713
v 1.45907 6.90629 -3.26713
v 1.42883 6.61094 -3.15734
v 1.48104 6.60040 -3.19945
v 1.42910 6.69406 -3.17448
v 1.52543 6.81000 -2.98166
v 1.43684 6.76302 -3.05234
v 1.39898 6.43327 -2.53242
v 1.59240 6.43121 -2.56856
v 1.42382 6.59313 -2.55418
v 1.45907 6.90629 -3.26713
v 1.42910 6.69406 -3.17448
v 1.42883 6.61094 -3.15734
v 1.46401 6.58791 -3.31405
v 1.48104 6.60040 -3.19945
v 1.32700 6.59711 -3.16470
v 1.45751 6.47712 -2.94964
v 1.42895 6.80544 -2.94851
v 1.59757 6.49146 -2.88477
v 1.42382 6.59313 -2.55418
v 1.61054 6.86217 -2.66681
v 1.43565 6.88822 -2.61140
v 1.43684 6.76302 -3.05234
v 1.52543 6.81000 -2.98166
v 1.42895 6.80544 -2.94851
v 1.43684 6.76302 -3.05234
v 1.42895 6.80544 -2.94851
v 1.45751 6.47712 -2.94964
v 1.42883 6.61094 -3.15734
v 1.32700 6.59711 -3.16470
v 1.48104 6.60040 -3.19945
v 1.45751 6.47712 -2.94964
v 1.43249 6.44756 -2.98924
v 1.43684 6.76302 -3.05234
v 1.42883 6.61094 -3.15734
v 1.42910 6.69406 -3.17448
v 1.43684 6.76302 -3.05234
v 1.43249 6.44756 -2.98924
v 1.41504 6.39865 -3.10849
v 1.42883 6.61094 -3.15734
v 1.42883 6.61094 -3.15734
v 1.43684 6.76302 -3.05234
v 1.43249 6.44756 -2.98924
v 1.43249 6.44756 -2.98924
v 1.45751 6.47712 -2.94964
v 1.32854 6.41293 -3.00694
v 1.59757 6.49146 -2.88477
v 1.35576 6.49055 -2.81760
v 1.45751 6.47712 -2.94964
v 1.41504 6.39865 -3.10849
v 1.29889 6.40563 -3.10173
v 1.42883 6.61094 -3.15734
v 1.37577 6.69069 -2.61266
v 1.39898 6.43327 -2.53242
v 1.42382 6.59313 -2.55418
v 1.59757 6.49146 -2.88477
v 1.39898 6.43327 -2.53242
v 1.35576 6.49055 -2.81760
v 1.46401 6.58791 -3.31405
v 1.34298 6.59392 -3.40464
v 1.36038 6.90906 -3.41575
v 1.41504 6.39865 -3.10849
v 1.43249 6.44756 -2.98924
v 1.32854 6.41293 -3.00694
v 1.45751 6.47712 -2.94964
v 1.35576 6.49055 -2.81760
v 1.32854 6.41293 -3.00694
v 1.35576 6.49055 -2.81760
v 1.28695 6.48015 -2.95756
v 1.32854 6.41293 -3.00694
v 1.39898 6.43327 -2.53242
v 1.37577 6.69069 -2.61266
v 1.35576 6.49055 -2.81760
v 1.29889 6.40563 -3.10173
v 1.41504 6.39865 -3.10849
v 1.32854 6.41293 -3.00694
v 1.32700 6.59711 -3.16470
v 1.42883 6.61094 -3.15734
v 1.29889 6.40563 -3.10173
v 1.36038 6.90906 -3.41575
v 1.34298 6.59392 -3.40464
v 1.34356 6.66584 -3.55047
v 1.28695 6.48015 -2.95756
v 1.35576 6.49055 -2.81760
v 1.37577 6.69069 -2.61266
v 1.32700 6.59711 -3.16470
v 1.23774 6.63087 -3.27975
v 1.46401 6.58791 -3.31405
v 1.33530 6.35521 -3.49240
v 1.34298 6.59392 -3.40464
v 1.33613 6.36939 -3.36139
v 1.33530 6.35521 -3.49240
v 1.34356 6.66584 -3.55047
v 1.34298 6.59392 -3.40464
v 1.37577 6.69069 -2.61266
v 1.27313 6.67880 -2.61830
v 1.28695 6.48015 -2.95756
v 1.33613 6.36939 -3.36139
v 1.34298 6.59392 -3.40464
v 1.22300 6.56894 -3.39429
v 1.33530 6.35521 -3.49240
v 1.27648 6.57289 -3.55743
v 1.34356 6.66584 -3.55047
v 1.26694 6.83727 -3.61451
v 1.34356 6.66584 -3.55047
v 1.27648 6.57289 -3.55743
v 1.21215 6.35521 -3.49243
v 1.33530 6.35521 -3.49240
v 1.33613 6.36939 -3.36139
v 1.34298 6.59392 -3.40464
v 1.46401 6.58791 -3.31405
v 1.23774 6.63087 -3.27975
v 1.32881 6.87866 -3.55239
v 1.34356 6.66584 -3.55047
v 1.26694 6.83727 -3.61451
v 1.29889 6.40563 -3.10173
v 1.30350 6.71511 -3.14109
v 1.32700 6.59711 -3.16470
v 1.32854 6.41293 -3.00694
v 1.28695 6.48015 -2.95756
v 1.30350 6.71511 -3.14109
v 1.29889 6.40563 -3.10173
v 1.32854 6.41293 -3.00694
v 1.30350 6.71511 -3.14109
v 1.32700 6.59711 -3.16470
v 1.30350 6.71511 -3.14109
v 1.23774 6.63087 -3.27975
v 1.37577 6.69069 -2.61266
v 1.28282 6.53191 -2.46254
v 1.27313 6.67880 -2.61830
v 1.30158 6.55603 -3.67000
v 1.27333 6.81513 -3.73311
v 1.26694 6.83727 -3.61451
v 1.26694 6.83727 -3.61451
v 1.27648 6.57289 -3.55743
v 1.30158 6.55603 -3.67000
v 1.33530 6.35521 -3.49240
v 1.20032 6.56493 -3.55451
v 1.27648 6.57289 -3.55743
v 1.27333 6.81513 -3.73311
v 1.30158 6.55603 -3.67000
v 1.17905 6.79329 -3.76554
v 1.25796 6.47735 -2.95013
v 1.28695 6.48015 -2.95756
v 1.27313 6.67880 -2.61830
v 1.30350 6.71511 -3.14109
v 1.28695 6.48015 -2.95756
v 1.25796 6.47735 -2.95013
v 1.30350 6.71511 -3.14109
v 1.25796 6.47735 -2.95013
v 1.24833 6.66733 -3.09493
v 1.23774 6.63087 -3.27975
v 1.30350 6.71511 -3.14109
v 1.24833 6.66733 -3.09493
v 1.25673 6.39103 -2.68467
v 1.25796 6.47735 -2.95013
v 1.27313 6.67880 -2.61830
v 1.33613 6.36939 -3.36139
v 1.22293 6.36569 -3.35825
v 1.21215 6.35521 -3.49243
v 1.22300 6.56894 -3.39429
v 1.22293 6.36569 -3.35825
v 1.33613 6.36939 -3.36139
v 1.24130 6.31157 -2.85435
v 1.23778 6.40938 -2.99655
v 1.25796 6.47735 -2.95013
v 1.30158 6.55603 -3.67000
v 1.27648 6.57289 -3.55743
v 1.20032 6.56493 -3.55451
v 1.23778 6.40938 -2.99655
v 1.23432 6.41214 -3.10129
v 1.25796 6.47735 -2.95013
v 1.25796 6.47735 -2.95013
v 1.23432 6.41214 -3.10129
v 1.24833 6.66733 -3.09493
v 1.20032 6.56493 -3.55451
v 1.33530 6.35521 -3.49240
v 1.21215 6.35521 -3.49243
v 1.34298 6.59392 -3.40464
v 1.23774 6.63087 -3.27975
v 1.22300 6.56894 -3.39429
v 1.23432 6.41214 -3.10129
v 1.23774 6.63087 -3.27975
v 1.24833 6.66733 -3.09493
v 1.17905 6.79329 -3.76554
v 1.30158 6.55603 -3.67000
v 1.15783 6.54009 -3.72403
v 1.23432 6.41214 -3.10129
v 1.23778 6.40938 -2.99655
v 1.09146 6.40626 -3.03686
v 1.22300 6.56894 -3.39429
v 1.20032 6.56493 -3.55451
v 1.22293 6.36569 -3.35825
v 1.21215 6.35521 -3.49243
v 1.22293 6.36569 -3.35825
v 1.20032 6.56493 -3.55451
v 1.23778 6.40938 -2.99655
v 1.10686 6.31141 -2.87219
v 1.09146 6.40626 -3.03686
v 1.22300 6.56894 -3.39429
v 1.23774 6.63087 -3.27975
v 1.15874 6.62414 -3.28723
v 1.23774 6.63087 -3.27975
v 1.23432 6.41214 -3.10129
v 1.08367 6.56112 -3.19060
v 1.30158 6.55603 -3.67000
v 1.20032 6.56493 -3.55451
v 1.15783 6.54009 -3.72403
v 1.15874 6.62414 -3.28723
v 1.20032 6.56493 -3.55451
v 1.22300 6.56894 -3.39429
v 1.08367 6.56112 -3.19060
v 1.23432 6.41214 -3.10129
v 1.09146 6.40626 -3.03686
v 1.20032 6.56493 -3.55451
v 1.15874 6.62414 -3.28723
v 1.13321 6.57192 -3.39002
v 1.17007 6.77804 -3.83556
v 1.15783 6.54009 -3.72403
v 1.16267 6.52787 -3.79800
v 1.17007 6.77804 -3.83556
v 1.17905 6.79329 -3.76554
v 1.15783 6.54009 -3.72403
v 1.20032 6.56493 -3.55451
v 1.13321 6.57192 -3.39002
v 1.15783 6.54009 -3.72403
v 1.15783 6.54009 -3.72403
v 1.13321 6.57192 -3.39002
v 1.13955 6.47805 -3.60077
v 1.23774 6.63087 -3.27975
v 1.08367 6.56112 -3.19060
v 1.15874 6.62414 -3.28723
v 1.07523 6.79133 -3.84271
v 1.17007 6.77804 -3.83556
v 1.16267 6.52787 -3.79800
v 1.02737 6.47290 -3.59030
v 1.13955 6.47805 -3.60077
v 1.13321 6.57192 -3.39002
v 1.15783 6.54009 -3.72403
v 1.01069 6.52905 -3.71803
v 1.16267 6.52787 -3.79800
v 1.06997 6.53626 -3.80765
v 1.07523 6.79133 -3.84271
v 1.16267 6.52787 -3.79800
v 1.02210 6.54953 -3.32691
v 1.13321 6.57192 -3.39002
v 1.15874 6.62414 -3.28723
v 1.06977 6.53444 -3.90612
v 1.07523 6.79133 -3.84271
v 1.06997 6.53626 -3.80765
v 1.06923 6.76097 -3.91610
v 1.07523 6.79133 -3.84271
v 1.06977 6.53444 -3.90612
v 1.06923 6.76097 -3.91610
v 1.06977 6.53444 -3.90612
v 0.89336 6.75448 -3.94865
v 1.15874 6.62414 -3.28723
v 1.08367 6.56112 -3.19060
v 1.02210 6.54953 -3.32691
v 0.99419 6.65173 -3.23060
v 1.02210 6.54953 -3.32691
v 1.08367 6.56112 -3.19060
v 1.16267 6.52787 -3.79800
v 0.92593 6.53317 -3.72072
v 1.06997 6.53626 -3.80765
v 1.06997 6.53626 -3.80765
v 0.92593 6.53317 -3.72072
v 1.06977 6.53444 -3.90612
v 1.02737 6.47290 -3.59030
v 1.15783 6.54009 -3.72403
v 1.13955 6.47805 -3.60077
v 1.15783 6.54009 -3.72403
v 1.02737 6.47290 -3.59030
v 1.01069 6.52905 -3.71803
v 1.01069 6.52905 -3.71803
v 0.92593 6.53317 -3.72072
v 1.16267 6.52787 -3.79800
v 1.02034 6.56650 -3.40240
v 1.02737 6.47290 -3.59030
v 1.13321 6.57192 -3.39002
v 1.13321 6.57192 -3.39002
v 1.02210 6.54953 -3.32691
v 1.02034 6.56650 -3.40240
v 1.08930 6.76805 -3.75216
v 1.07523 6.79133 -3.84271
v 0.94588 6.77499 -3.79964
v 0.89336 6.75448 -3.94865
v 0.96174 6.78095 -3.89506
v 1.06923 6.76097 -3.91610
v 1.02034 6.56650 -3.40240
v 0.99419 6.65173 -3.23060
v 1.02737 6.47290 -3.59030
v 0.96969 6.43497 -2.99667
v 1.08367 6.56112 -3.19060
v 1.09146 6.40626 -3.03686
v 1.02034 6.56650 -3.40240
v 1.02210 6.54953 -3.32691
v 0.99419 6.65173 -3.23060
v 0.99419 6.65173 -3.23060
v 1.01069 6.52905 -3.71803
v 1.02737 6.47290 -3.59030
v 1.09146 6.40626 -3.03686
v 1.07102 6.43012 -2.86543
v 0.96969 6.43497 -2.99667
v 1.06977 6.53444 -3.90612
v 0.92593 6.53317 -3.72072
v 0.88900 6.53622 -3.85079
v 0.99419 6.65173 -3.23060
v 1.08367 6.56112 -3.19060
v 0.96969 6.43497 -2.99667
v 0.99419 6.65173 -3.23060
v 0.92790 6.63653 -3.32505
v 1.01069 6.52905 -3.71803
v 0.96669 6.44066 -2.86573
v 0.94404 6.30448 -2.87655
v 0.96969 6.43497 -2.99667
v 0.96969 6.43497 -2.99667
v 0.92571 6.41265 -3.08048
v 0.99419 6.65173 -3.23060
v 0.91849 6.82940 -3.86576
v 0.96174 6.78095 -3.89506
v 0.94588 6.77499 -3.79964
v 1.01069 6.52905 -3.71803
v 0.92790 6.63653 -3.32505
v 0.92593 6.53317 -3.72072
v 0.92790 6.63653 -3.32505
v 0.99419 6.65173 -3.23060
v 0.91849 6.57770 -3.28065
v 0.96969 6.43497 -2.99667
v 0.94404 6.30448 -2.87655
v 0.92571 6.41265 -3.08048
v 0.92571 6.41265 -3.08048
v 0.91849 6.57770 -3.28065
v 0.99419 6.65173 -3.23060
v 0.94588 6.77499 -3.79964
v 0.96174 6.78095 -3.89506
v 0.89646 6.79576 -3.85482
v 0.96174 6.78095 -3.89506
v 0.89336 6.75448 -3.94865
v 0.89646 6.79576 -3.85482
v 0.92593 6.53317 -3.72072
v 0.79542 6.52716 -3.74616
v 0.88900 6.53622 -3.85079
v 1.06977 6.53444 -3.90612
v 0.88900 6.53622 -3.85079
v 0.89336 6.75448 -3.94865
v 0.91144 6.57733 -3.42366
v 0.92790 6.63653 -3.32505
v 0.91849 6.57770 -3.28065
v 0.91102 6.47733 -3.59030
v 0.92790 6.63653 -3.32505
v 0.91144 6.57733 -3.42366
v 0.92593 6.53317 -3.72072
v 0.92790 6.63653 -3.32505
v 0.91102 6.47733 -3.59030
v 0.92571 6.41265 -3.08048
v 0.94404 6.30448 -2.87655
v 0.78541 6.41424 -3.03580
v 0.94588 6.77499 -3.79964
v 0.84987 6.81893 -3.65912
v 1.08930 6.76805 -3.75216
v 0.91102 6.47733 -3.59030
v 0.91144 6.57733 -3.42366
v 0.79101 6.48462 -3.57869
v 0.91102 6.47733 -3.59030
v 0.79101 6.48462 -3.57869
v 0.92593 6.53317 -3.72072
v 0.94588 6.77499 -3.79964
v 0.87884 6.78245 -3.75377
v 0.84987 6.81893 -3.65912
v 0.94588 6.77499 -3.79964
v 0.89646 6.79576 -3.85482
v 0.87884 6.78245 -3.75377
v 0.78541 6.41424 -3.03580
v 0.91849 6.57770 -3.28065
v 0.92571 6.41265 -3.08048
v 0.89336 6.75448 -3.94865
v 0.88900 6.53622 -3.85079
v 0.89646 6.79576 -3.85482
v 0.88900 6.53622 -3.85079
v 0.81221 6.78380 -3.85614
v 0.89646 6.79576 -3.85482
v 0.91849 6.57770 -3.28065
v 0.78541 6.41424 -3.03580
v 0.80201 6.59932 -3.24994
v 0.89646 6.79576 -3.85482
v 0.79583 6.80951 -3.77544
v 0.87884 6.78245 -3.75377
v 0.81221 6.78380 -3.85614
v 0.79583 6.80951 -3.77544
v 0.89646 6.79576 -3.85482
v 0.79542 6.52716 -3.74616
v 0.92593 6.53317 -3.72072
v 0.79101 6.48462 -3.57869
v 0.91849 6.57770 -3.28065
v 0.80201 6.59932 -3.24994
v 0.79690 6.56309 -3.37740
v 0.79690 6.56309 -3.37740
v 0.91144 6.57733 -3.42366
v 0.91849 6.57770 -3.28065
v 0.91144 6.57733 -3.42366
v 0.79690 6.56309 -3.37740
v 0.79101 6.48462 -3.57869
v 0.78541 6.41424 -3.03580
v 0.94404 6.30448 -2.87655
v 0.79551 6.31422 -2.85123
v 0.81221 6.78380 -3.85614
v 0.88900 6.53622 -3.85079
v 0.79542 6.52716 -3.74616
v 0.79542 6.52716 -3.74616
v 0.79583 6.80951 -3.77544
v 0.81221 6.78380 -3.85614
v 0.79542 6.52716 -3.74616
v 0.79101 6.48462 -3.57869
v 0.77391 6.56040 -3.62965
v 0.76359 6.64837 -3.35717
v 0.79690 6.56309 -3.37740
v 0.80201 6.59932 -3.24994
v 0.80201 6.59932 -3.24994
v 0.78541 6.41424 -3.03580
v 0.74912 6.65983 -3.23234
v 0.77391 6.56040 -3.62965
v 0.79690 6.56309 -3.37740
v 0.76359 6.64837 -3.35717
v 0.79101 6.48462 -3.57869
v 0.79690 6.56309 -3.37740
v 0.77391 6.56040 -3.62965
v 0.79542 6.52716 -3.74616
v 0.67854 6.56170 -3.67000
v 0.79583 6.80951 -3.77544
v 0.76790 6.68578 -2.61801
v 0.78541 6.41424 -3.03580
v 0.79551 6.31422 -2.85123
v 0.73767 6.50060 -2.97441
v 0.78541 6.41424 -3.03580
v 0.76790 6.68578 -2.61801
v 0.80201 6.59932 -3.24994
v 0.74912 6.65983 -3.23234
v 0.76359 6.64837 -3.35717
v 0.78541 6.41424 -3.03580
v 0.73767 6.50060 -2.97441
v 0.74927 6.68916 -3.10452
v 0.74912 6.65983 -3.23234
v 0.78541 6.41424 -3.03580
v 0.74927 6.68916 -3.10452
v 0.79542 6.52716 -3.74616
v 0.77391 6.56040 -3.62965
v 0.67854 6.56170 -3.67000
v 0.77391 6.56040 -3.62965
v 0.76359 6.64837 -3.35717
v 0.63731 6.62073 -3.46713
v 0.73767 6.50060 -2.97441
v 0.76790 6.68578 -2.61801
v 0.68411 6.50374 -2.88495
v 0.74912 6.65983 -3.23234
v 0.67188 6.59401 -3.32928
v 0.76359 6.64837 -3.35717
v 0.74927 6.68916 -3.10452
v 0.66849 6.71806 -3.10147
v 0.74912 6.65983 -3.23234
v 0.67854 6.56170 -3.67000
v 0.70669 6.83256 -3.73808
v 0.79583 6.80951 -3.77544
v 0.73767 6.50060 -2.97441
v 0.66454 6.45064 -2.98194
v 0.74927 6.68916 -3.10452
v 0.74912 6.65983 -3.23234
v 0.68012 6.62691 -3.19903
v 0.67188 6.59401 -3.32928
v 0.77391 6.56040 -3.62965
v 0.69913 6.61240 -3.54702
v 0.67854 6.56170 -3.67000
v 0.74912 6.65983 -3.23234
v 0.66849 6.71806 -3.10147
v 0.68012 6.62691 -3.19903
v 0.68411 6.50374 -2.88495
v 0.66454 6.45064 -2.98194
v 0.73767 6.50060 -2.97441
v 0.69913 6.61240 -3.54702
v 0.77391 6.56040 -3.62965
v 0.63731 6.62073 -3.46713
v 0.69913 6.61240 -3.54702
v 0.71538 6.86225 -3.63000
v 0.67854 6.56170 -3.67000
v 0.71538 6.86225 -3.63000
v 0.70669 6.83256 -3.73808
v 0.67854 6.56170 -3.67000
v 0.66454 6.45064 -2.98194
v 0.66849 6.71806 -3.10147
v 0.74927 6.68916 -3.10452
v 0.68012 6.62691 -3.19903
v 0.66454 6.45064 -2.98194
v 0.67650 6.39843 -3.13058
v 0.76790 6.68578 -2.61801
v 0.66188 6.63742 -2.55103
v 0.68411 6.50374 -2.88495
v 0.66849 6.71806 -3.10147
v 0.66454 6.45064 -2.98194
v 0.68012 6.62691 -3.19903
v 0.76790 6.68578 -2.61801
v 0.66188 6.62693 -2.51560
v 0.66188 6.63742 -2.55103
v 0.69913 6.61240 -3.54702
v 0.63731 6.62073 -3.46713
v 0.63200 6.60899 -3.52090
v 0.65473 6.42775 -2.52121
v 0.68411 6.50374 -2.88495
v 0.66188 6.63742 -2.55103
v 0.68012 6.62691 -3.19903
v 0.67650 6.39843 -3.13058
v 0.58058 6.39822 -3.14528
v 0.63731 6.62073 -3.46713
v 0.76359 6.64837 -3.35717
v 0.60945 6.63132 -3.36886
v 0.64464 6.86602 -3.59694
v 0.71538 6.86225 -3.63000
v 0.69913 6.61240 -3.54702
v 0.66454 6.45064 -2.98194
v 0.56068 6.49356 -2.90196
v 0.55805 6.46232 -2.99390
v 0.67188 6.59401 -3.32928
v 0.68012 6.62691 -3.19903
v 0.57564 6.61685 -3.20118
v 0.61436 6.88722 -2.62662
v 0.66188 6.63742 -2.55103
v 0.66188 6.62693 -2.51560
v 0.56068 6.49356 -2.90196
v 0.66454 6.45064 -2.98194
v 0.68411 6.50374 -2.88495
v 0.76359 6.64837 -3.35717
v 0.67188 6.59401 -3.32928
v 0.60945 6.63132 -3.36886
v 0.63200 6.60899 -3.52090
v 0.64464 6.86602 -3.59694
v 0.69913 6.61240 -3.54702
v 0.64464 6.86602 -3.59694
v 0.63731 6.62073 -3.46713
v 0.67166 6.89551 -3.52855
v 0.63731 6.62073 -3.46713
v 0.64464 6.86602 -3.59694
v 0.63200 6.60899 -3.52090
v 0.58136 6.43954 -3.01009
v 0.67650 6.39843 -3.13058
v 0.66454 6.45064 -2.98194
v 0.67188 6.59401 -3.32928
v 0.52397 6.60185 -3.34021
v 0.60945 6.63132 -3.36886
v 0.67188 6.59401 -3.32928
v 0.57564 6.61685 -3.20118
v 0.52397 6.60185 -3.34021
v 0.63731 6.62073 -3.46713
v 0.60945 6.63132 -3.36886
v 0.64350 6.92428 -3.44548
v 0.58136 6.43954 -3.01009
v 0.66454 6.45064 -2.98194
v 0.55805 6.46232 -2.99390
v 0.58058 6.39822 -3.14528
v 0.67650 6.39843 -3.13058
v 0.58136 6.43954 -3.01009
v 0.68012 6.62691 -3.19903
v 0.58058 6.39822 -3.14528
v 0.57564 6.61685 -3.20118
v 0.61436 6.88722 -2.62662
v 0.45084 6.86304 -2.65863
v 0.66188 6.63742 -2.55103
v 0.56093 6.63940 -3.17387
v 0.59862 6.75265 -3.09363
v 0.56279 6.73120 -3.20216
v 0.59862 6.75265 -3.09363
v 0.56093 6.63940 -3.17387
v 0.56738 6.68122 -3.08683
v 0.58136 6.43954 -3.01009
v 0.57564 6.61685 -3.20118
v 0.58058 6.39822 -3.14528
v 0.56527 6.81530 -2.92929
v 0.56054 6.77613 -3.04519
v 0.55805 6.46232 -2.99390
v 0.56068 6.49356 -2.90196
v 0.56527 6.81530 -2.92929
v 0.55805 6.46232 -2.99390
v 0.56738 6.68122 -3.08683
v 0.58136 6.43954 -3.01009
v 0.59862 6.75265 -3.09363
v 0.57564 6.61685 -3.20118
v 0.56093 6.63940 -3.17387
v 0.52397 6.60185 -3.34021
v 0.60945 6.63132 -3.36886
v 0.52397 6.60185 -3.34021
v 0.55857 6.99605 -3.42155
v 0.56738 6.68122 -3.08683
v 0.56093 6.63940 -3.17387
v 0.57564 6.61685 -3.20118
v 0.56738 6.68122 -3.08683
v 0.57564 6.61685 -3.20118
v 0.58136 6.43954 -3.01009
v 0.59862 6.75265 -3.09363
v 0.55805 6.46232 -2.99390
v 0.56054 6.77613 -3.04519
v 0.59862 6.75265 -3.09363
v 0.58136 6.43954 -3.01009
v 0.55805 6.46232 -2.99390
v 0.56093 6.63940 -3.17387
v 0.50219 6.62319 -3.20974
v 0.52397 6.60185 -3.34021
v 0.50219 6.62319 -3.20974
v 0.56093 6.63940 -3.17387
v 0.56279 6.73120 -3.20216
v 0.56068 6.49356 -2.90196
v 0.41391 6.79626 -2.89994
v 0.56527 6.81530 -2.92929
v 0.59862 6.75265 -3.09363
v 0.56054 6.77613 -3.04519
v 0.56279 6.73120 -3.20216
v 0.56054 6.77613 -3.04519
v 0.45535 6.82255 -2.98166
v 0.56279 6.73120 -3.20216
v 0.44776 6.43370 -2.59084
v 0.68411 6.50374 -2.88495
v 0.65473 6.42775 -2.52121
v 0.56068 6.49356 -2.90196
v 0.68411 6.50374 -2.88495
v 0.44411 6.49260 -2.87629
v 0.65473 6.42775 -2.52121
v 0.66188 6.63742 -2.55103
v 0.45084 6.86304 -2.65863
v 0.56279 6.73120 -3.20216
v 0.52675 6.87387 -3.25802
v 0.50219 6.62319 -3.20974
v 0.55857 6.99605 -3.42155
v 0.52397 6.60185 -3.34021
v 0.50219 6.62319 -3.20974
v 0.44411 6.49260 -2.87629
v 0.68411 6.50374 -2.88495
v 0.44776 6.43370 -2.59084
v 0.44411 6.49260 -2.87629
v 0.41391 6.79626 -2.89994
v 0.56068 6.49356 -2.90196
v 0.65473 6.42775 -2.52121
v 0.45084 6.86304 -2.65863
v 0.44776 6.43370 -2.59084
v 0.45084 6.86304 -2.65863
v 0.44357 6.85506 -2.81168
v 0.44411 6.49260 -2.87629
v 0.45084 6.86304 -2.65863
v 0.44411 6.49260 -2.87629
v 0.44776 6.43370 -2.59084
v 0.44357 6.85506 -2.81168
v 0.41391 6.79626 -2.89994
v 0.44411 6.49260 -2.87629
v 1.54237 6.80359 -2.62922
v 1.60522 6.88785 -2.83756
v 1.61054 6.86217 -2.66681
v 1.43565 6.88822 -2.61140
v 1.42382 6.59313 -2.55418
v 1.59129 6.59793 -2.54603
v 1.58770 6.99224 -2.55931
v 1.26620 6.79315 -3.52199
v 1.59232 6.85805 -2.92333
v 1.42895 6.80544 -2.94851
v 1.52543 6.81000 -2.98166
v 1.42910 6.69406 -3.17448
v 1.45907 6.90629 -3.26713
v 1.46401 6.58791 -3.31405
v 1.36038 6.90906 -3.41575
v 1.34356 6.66584 -3.55047
v 1.32881 6.87866 -3.55239
v 1.26694 6.83727 -3.61451
v 1.27333 6.81513 -3.73311
v 1.17905 6.79329 -3.76554
v 1.17007 6.77804 -3.83556
v 1.07523 6.79133 -3.84271
v 1.06923 6.76097 -3.91610
v 0.96174 6.78095 -3.89506
v 0.91849 6.82940 -3.86576
v 0.94588 6.77499 -3.79964
v 0.82098 6.66571 -3.09046
v 1.37577 6.69069 -2.61266
v 1.28282 6.53191 -2.46254
v 1.27313 6.67880 -2.61830
v 1.25673 6.39103 -2.68467
v 1.25796 6.47735 -2.95013
v 1.24130 6.31157 -2.85435
v 1.23778 6.40938 -2.99655
v 1.10686 6.31141 -2.87219
v 1.09146 6.40626 -3.03686
v 1.07102 6.43012 -2.86543
v 0.96969 6.43497 -2.99667
v 0.96669 6.44066 -2.86573
v 0.94404 6.30448 -2.87655
v 0.79551 6.31422 -2.85123
v 0.76790 6.68578 -2.61801
v 0.66188 6.62693 -2.51560
v 0.61436 6.88722 -2.62662
v 0.45084 6.86304 -2.65863
v 0.44357 6.85506 -2.81168
v 0.41391 6.79626 -2.89994
v 0.56527 6.81530 -2.92929
v 0.56054 6.77613 -3.04519
v 0.45535 6.82255 -2.98166
v 0.56279 6.73120 -3.20216
v 0.52675 6.87387 -3.25802
v 0.50219 6.62319 -3.20974
v 0.55857 6.99605 -3.42155
v 0.60945 6.63132 -3.36886
v 0.64350 6.92428 -3.44548
v 0.63731 6.62073 -3.46713
v 0.67166 6.89551 -3.52855
v 0.64464 6.86602 -3.59694
v 0.71538 6.86225 -3.63000
v 0.70669 6.83256 -3.73808
v 0.79583 6.80951 -3.77544
v 0.87884 6.78245 -3.75377
v 0.84987 6.81893 -3.65912
v 1.08930 6.76805 -3.75216
vt 0.34454 0.52817
vt 0.33507 0.49999
vt 0.35172 0.50696
vt 0.34454 0.52817
vt 0.33547 0.52480
vt 0.33507 0.49999
vt 0.35172 0.50696
vt 0.34971 0.52754
vt 0.34462 0.52819
vt 0.90604 0.11148
vt 0.92375 0.12602
vt 0.90604 0.12252
vt 0.19637 0.84005
vt 0.18166 0.84399
vt 0.18214 0.81163
vt 0.47695 0.19508
vt 0.45999 0.20455
vt 0.45217 0.19401
vt 0.59687 0.80778
vt 0.59777 0.79842
vt 0.61885 0.81029
vt 0.64138 0.83122
vt 0.64227 0.82103
vt 0.66894 0.83037
vt 0.37941 0.22345
vt 0.35191 0.22713
vt 0.35191 0.22140
vt 0.13229 0.73815
vt 0.15061 0.72692
vt 0.14436 0.73569
vt 0.45081 0.20496
vt 0.45217 0.19401
vt 0.45995 0.20458
vt 0.25422 0.92702
vt 0.23372 0.92702
vt 0.22649 0.92643
vt 0.15331 0.30099
vt 0.16421 0.29892
vt 0.16484 0.31336
vt 0.19536 0.81131
vt 0.19637 0.84005
vt 0.18214 0.81163
vt 0.45999 0.20455
vt 0.47695 0.19508
vt 0.47684 0.20547
vt 0.14435 0.73568
vt 0.15061 0.72692
vt 0.15420 0.73514
vt 0.14070 0.79920
vt 0.13132 0.80139
vt 0.13640 0.77291
vt 0.16916 0.30366
vt 0.16484 0.31336
vt 0.16421 0.29892
vt 0.11192 0.82678
vt 0.10918 0.82862
vt 0.11010 0.80039
vt 0.57356 0.04172
vt 0.57879 0.04685
vt 0.57310 0.05762
vt 0.14211 0.69607
vt 0.13077 0.69745
vt 0.13171 0.67833
vt 0.13161 0.67840
vt 0.14402 0.66796
vt 0.14211 0.69607
vt 0.07849 0.89854
vt 0.07998 0.90316
vt 0.06980 0.89413
vt 0.09043 0.91222
vt 0.06840 0.91219
vt 0.08012 0.90339
vt 0.13627 0.20748
vt 0.14650 0.20748
vt 0.13593 0.22662
vt 0.05146 0.35013
vt 0.06630 0.34694
vt 0.05820 0.35099
vt 0.92375 0.12602
vt 0.90604 0.11148
vt 0.92252 0.11200
vt 0.26690 0.56664
vt 0.27985 0.56908
vt 0.27540 0.59639
vt 0.07929 0.88715
vt 0.07849 0.89854
vt 0.06980 0.89413
vt 0.07997 0.90316
vt 0.06840 0.91219
vt 0.06980 0.89413
vt 0.79703 0.12089
vt 0.78444 0.12615
vt 0.77892 0.12027
vt 0.06630 0.34694
vt 0.05146 0.35013
vt 0.05545 0.33452
vt 0.06921 0.88540
vt 0.07929 0.88715
vt 0.06980 0.89413
vt 0.14476 0.22526
vt 0.13585 0.22657
vt 0.14650 0.20748
vt 0.19592 0.86543
vt 0.18839 0.89208
vt 0.17815 0.88222
vt 0.05107 0.32693
vt 0.05545 0.33452
vt 0.05146 0.35013
vt 0.16484 0.31336
vt 0.15296 0.32061
vt 0.15331 0.30099
vt 0.70781 0.25253
vt 0.72688 0.26415
vt 0.70680 0.26405
vt 0.70781 0.25253
vt 0.73556 0.25281
vt 0.72688 0.26414
vt 0.13049 0.12342
vt 0.12910 0.12903
vt 0.10738 0.12539
vt 0.88932 0.70228
vt 0.89070 0.72228
vt 0.88012 0.72042
vt 0.64873 0.33401
vt 0.62926 0.34073
vt 0.62100 0.33494
vt 0.60562 0.34311
vt 0.62100 0.33494
vt 0.62926 0.34073
vt 0.98067 0.50418
vt 0.96985 0.50411
vt 0.96985 0.49254
vt 0.14336 0.30831
vt 0.15331 0.30099
vt 0.15306 0.32157
vt 0.60249 0.33570
vt 0.62100 0.33494
vt 0.60562 0.34311
vt 0.57465 0.26071
vt 0.60189 0.26347
vt 0.59161 0.26574
vt 0.09704 0.86164
vt 0.10421 0.86558
vt 0.09694 0.89073
vt 0.57465 0.26071
vt 0.57510 0.25198
vt 0.60190 0.26331
vt 0.95409 0.08622
vt 0.96484 0.08570
vt 0.95697 0.09849
vt 0.81854 0.03927
vt 0.83064 0.04482
vt 0.81863 0.04507
vt 0.81559 0.90031
vt 0.81445 0.87680
vt 0.82506 0.87680
vt 0.82506 0.87680
vt 0.82582 0.90054
vt 0.81559 0.90031
vt 0.64873 0.33401
vt 0.63052 0.34733
vt 0.62926 0.34073
vt 0.59366 0.17956
vt 0.57012 0.17956
vt 0.59335 0.17061
vt 0.10742 0.12700
vt 0.10737 0.12535
vt 0.12910 0.12904
vt 0.79759 0.28206
vt 0.79875 0.30814
vt 0.79634 0.30904
vt 0.80140 0.27709
vt 0.80191 0.30410
vt 0.79780 0.28352
vt 0.83036 0.11996
vt 0.82588 0.10541
vt 0.83320 0.10368
vt 0.81776 0.48469
vt 0.80718 0.49622
vt 0.80460 0.47460
vt 0.96985 0.49254
vt 0.97980 0.49236
vt 0.98067 0.50418
vt 0.88012 0.72042
vt 0.87937 0.70232
vt 0.88932 0.70228
vt 0.38981 0.37465
vt 0.40312 0.38188
vt 0.39955 0.38842
vt 0.78935 0.05840
vt 0.79013 0.06861
vt 0.78373 0.07068
vt 0.40312 0.38188
vt 0.41230 0.38130
vt 0.39955 0.38842
vt 0.39955 0.38842
vt 0.41230 0.38130
vt 0.41396 0.40368
vt 0.63052 0.34733
vt 0.64873 0.33401
vt 0.64958 0.34479
vt 0.14326 0.30818
vt 0.15329 0.32159
vt 0.14227 0.32012
vt 0.41230 0.38130
vt 0.42957 0.39887
vt 0.41396 0.40368
vt 0.59335 0.17061
vt 0.57012 0.17956
vt 0.57122 0.16607
vt 0.96922 0.07440
vt 0.96002 0.07465
vt 0.96362 0.06182
vt 0.27817 0.95677
vt 0.27571 0.94278
vt 0.29629 0.95631
vt 0.29485 0.94454
vt 0.29629 0.95631
vt 0.27571 0.94278
vt 0.43381 0.13148
vt 0.41577 0.13148
vt 0.42763 0.11986
vt 0.14227 0.32012
vt 0.15122 0.32033
vt 0.14722 0.32620
vt 0.53374 0.81145
vt 0.55916 0.81621
vt 0.54525 0.82997
vt 0.78935 0.05840
vt 0.78373 0.07068
vt 0.77590 0.05738
vt 0.84467 0.54435
vt 0.84365 0.52007
vt 0.84907 0.53321
vt 0.54519 0.82978
vt 0.55916 0.81621
vt 0.56359 0.82807
vt 0.34961 0.85514
vt 0.37359 0.85901
vt 0.36364 0.86190
vt 0.57100 0.15923
vt 0.59313 0.15274
vt 0.59322 0.15923
vt 0.57100 0.15923
vt 0.57056 0.15291
vt 0.59314 0.15275
vt 0.34961 0.85514
vt 0.36382 0.86151
vt 0.33449 0.85847
vt 0.20804 0.22024
vt 0.20617 0.24965
vt 0.20095 0.23008
vt 0.53381 0.81098
vt 0.54562 0.82941
vt 0.53393 0.82197
vt 0.78971 0.68482
vt 0.78154 0.68339
vt 0.78268 0.66121
vt 0.89197 0.32286
vt 0.90186 0.32225
vt 0.90121 0.34243
vt 0.51624 0.43616
vt 0.51601 0.42322
vt 0.52278 0.43669
vt 0.79083 0.66221
vt 0.78994 0.68475
vt 0.78268 0.66121
vt 0.32122 0.08737
vt 0.32230 0.07663
vt 0.33226 0.07875
vt 0.76379 0.94032
vt 0.75375 0.96122
vt 0.75532 0.93878
vt 0.76109 0.96007
vt 0.75426 0.96145
vt 0.76395 0.94039
vt 0.87135 0.57420
vt 0.87138 0.59389
vt 0.85565 0.57456
vt 0.52091 0.99480
vt 0.51165 0.98704
vt 0.52328 0.98091
vt 0.96568 0.15974
vt 0.96354 0.17205
vt 0.95441 0.16255
vt 0.52278 0.43669
vt 0.51640 0.41578
vt 0.52383 0.42855
vt 0.52383 0.42855
vt 0.51640 0.41578
vt 0.53247 0.42866
vt 0.50373 0.42436
vt 0.51654 0.43616
vt 0.50449 0.43423
vt 0.51654 0.43616
vt 0.50373 0.42436
vt 0.51601 0.42322
vt 0.51601 0.42322
vt 0.51640 0.41578
vt 0.52278 0.43669
vt 0.89132 0.34128
vt 0.89197 0.32286
vt 0.90110 0.34249
vt 0.97421 0.64826
vt 0.98464 0.64382
vt 0.98385 0.65057
vt 0.05736 0.37397
vt 0.04916 0.37378
vt 0.05162 0.36201
vt 0.10967 0.08431
vt 0.10354 0.08986
vt 0.09362 0.08754
vt 0.60056 0.75163
vt 0.58417 0.74743
vt 0.61860 0.75545
vt 0.08940 0.79339
vt 0.08024 0.81394
vt 0.07822 0.79488
vt 0.60056 0.75163
vt 0.59447 0.75464
vt 0.58405 0.74762
vt 0.58408 0.74769
vt 0.62822 0.74774
vt 0.61860 0.75545
vt 0.97812 0.58315
vt 0.98108 0.59814
vt 0.96894 0.59011
vt 0.53248 0.42866
vt 0.51640 0.41578
vt 0.52787 0.41271
vt 0.08907 0.82146
vt 0.08030 0.81396
vt 0.08940 0.79339
vt 0.47198 0.42032
vt 0.48048 0.41490
vt 0.51601 0.42322
vt 0.61429 0.65599
vt 0.61640 0.66796
vt 0.60326 0.65930
vt 0.60326 0.65930
vt 0.59639 0.66436
vt 0.57836 0.64632
vt 0.77494 0.01869
vt 0.77695 0.01248
vt 0.78280 0.01870
vt 0.51601 0.42322
vt 0.48055 0.41474
vt 0.51640 0.41578
vt 0.56997 0.65213
vt 0.57837 0.64631
vt 0.57516 0.65607
vt 0.60326 0.65930
vt 0.61640 0.66796
vt 0.59639 0.66436
vt 0.59639 0.66436
vt 0.57517 0.65608
vt 0.57837 0.64632
vt 0.10474 0.09861
vt 0.10354 0.08986
vt 0.10957 0.09349
vt 0.10354 0.08986
vt 0.10993 0.08466
vt 0.10943 0.09389
vt 0.84512 0.42371
vt 0.83358 0.42188
vt 0.84146 0.41246
vt 0.87085 0.59395
vt 0.85432 0.59521
vt 0.85556 0.57457
vt 0.56295 0.65940
vt 0.57002 0.65207
vt 0.57509 0.65616
vt 0.55023 0.67077
vt 0.57014 0.65229
vt 0.56295 0.65940
vt 0.53799 0.66813
vt 0.57022 0.65234
vt 0.55023 0.67077
vt 0.86609 0.82384
vt 0.86633 0.80351
vt 0.87877 0.82157
vt 0.38931 0.59247
vt 0.38382 0.57809
vt 0.40251 0.59147
vt 0.91309 0.50462
vt 0.91309 0.48756
vt 0.92363 0.50344
vt 0.84422 0.43620
vt 0.83366 0.43723
vt 0.84512 0.42371
vt 0.38931 0.59247
vt 0.38446 0.58733
vt 0.38382 0.57809
vt 0.40424 0.01447
vt 0.40831 0.01105
vt 0.40821 0.02028
vt 0.76323 0.71275
vt 0.77489 0.68700
vt 0.77577 0.70972
vt 0.72259 0.13384
vt 0.74319 0.13782
vt 0.72097 0.14267
vt 0.59296 0.15992
vt 0.57130 0.16641
vt 0.57055 0.15913
vt 0.77491 0.68702
vt 0.76321 0.71274
vt 0.76431 0.68789
vt 0.98809 0.26724
vt 0.97811 0.27305
vt 0.97906 0.26491
vt 0.98656 0.09776
vt 0.98038 0.10263
vt 0.98264 0.09105
vt 0.83360 0.42210
vt 0.84512 0.42371
vt 0.83366 0.43723
vt 0.70895 0.03915
vt 0.69830 0.04053
vt 0.69974 0.02938
vt 0.44778 0.02785
vt 0.45769 0.02328
vt 0.45875 0.03518
vt 0.91309 0.48756
vt 0.92321 0.48469
vt 0.92363 0.50344
vt 0.87889 0.82147
vt 0.86633 0.80351
vt 0.87958 0.80308
vt 0.57130 0.16641
vt 0.59287 0.15964
vt 0.59530 0.17001
vt 0.80120 0.44584
vt 0.77655 0.44936
vt 0.77697 0.44190
vt 0.29845 0.80760
vt 0.31156 0.79996
vt 0.30925 0.80778
vt 0.33427 0.80855
vt 0.33079 0.80140
vt 0.34240 0.80142
vt 0.55125 0.21535
vt 0.57507 0.22256
vt 0.54730 0.22140
vt 0.30925 0.80778
vt 0.33052 0.80137
vt 0.33438 0.80864
vt 0.31156 0.79996
vt 0.33049 0.80120
vt 0.30925 0.80778
vt 0.13808 0.90364
vt 0.13803 0.91589
vt 0.11366 0.90746
vt 0.10872 0.23681
vt 0.09638 0.27877
vt 0.08329 0.26582
vt 0.82229 0.20596
vt 0.81859 0.21543
vt 0.81157 0.17241
vt 0.03692 0.78436
vt 0.03692 0.79159
vt 0.02655 0.78769
vt 0.09008 0.51522
vt 0.08171 0.50938
vt 0.08794 0.49023
vt 0.09939 0.48903
vt 0.09007 0.51522
vt 0.08794 0.49023
vt 0.03030 0.65011
vt 0.03028 0.66085
vt 0.02139 0.65896
vt 0.52819 0.31893
vt 0.55331 0.31771
vt 0.54435 0.32961
vt 0.03794 0.77435
vt 0.02087 0.74342
vt 0.03984 0.76554
vt 0.78112 0.25289
vt 0.77451 0.24249
vt 0.78396 0.24239
vt 0.78143 0.07529
vt 0.78760 0.07097
vt 0.78696 0.08539
vt 0.13803 0.91589
vt 0.11339 0.91619
vt 0.11366 0.90747
vt 0.18864 0.19225
vt 0.18362 0.18627
vt 0.20826 0.18776
vt 0.78112 0.25289
vt 0.77394 0.25429
vt 0.77451 0.24249
vt 0.03028 0.66085
vt 0.02493 0.67023
vt 0.02139 0.65896
vt 0.78112 0.25289
vt 0.77509 0.26600
vt 0.77394 0.25429
vt 0.95615 0.61731
vt 0.96299 0.61029
vt 0.96524 0.61776
vt 0.05300 0.45122
vt 0.05487 0.44059
vt 0.05465 0.45996
vt 0.77673 0.48221
vt 0.77443 0.50524
vt 0.76510 0.48011
vt 0.77442 0.50524
vt 0.76459 0.50475
vt 0.76510 0.48011
vt 0.09398 0.19420
vt 0.06953 0.20214
vt 0.06930 0.19461
vt 0.76852 0.66286
vt 0.78056 0.68430
vt 0.76670 0.68372
vt 0.93963 0.36469
vt 0.94318 0.37110
vt 0.92346 0.37355
vt 0.77949 0.65860
vt 0.78056 0.68430
vt 0.76852 0.66286
vt 0.00985 0.83816
vt 0.01022 0.84692
vt 0.00879 0.84549
vt 0.15388 0.01627
vt 0.14498 0.01627
vt 0.14850 0.01293
vt 0.86061 0.11515
vt 0.84172 0.10696
vt 0.86131 0.10347
vt 0.63600 0.93979
vt 0.65693 0.93924
vt 0.65693 0.94776
vt 0.54435 0.32961
vt 0.55329 0.31769
vt 0.55320 0.33134
vt 0.79477 0.23174
vt 0.80141 0.23083
vt 0.80147 0.25394
vt 0.47373 0.82612
vt 0.47594 0.81421
vt 0.48148 0.82069
vt 0.77451 0.24249
vt 0.77394 0.25429
vt 0.76483 0.25289
vt 0.24815 0.08739
vt 0.23357 0.08848
vt 0.23230 0.08721
vt 0.47594 0.81421
vt 0.47373 0.82612
vt 0.46657 0.81961
vt 0.33473 0.13346
vt 0.33215 0.12414
vt 0.33831 0.12029
vt 0.79529 0.25529
vt 0.79477 0.23174
vt 0.80147 0.25394
vt 0.79471 0.22806
vt 0.80102 0.20452
vt 0.80153 0.22942
vt 0.80102 0.20452
vt 0.79471 0.22806
vt 0.79616 0.20455
vt 0.76585 0.06355
vt 0.77791 0.07054
vt 0.76405 0.07108
vt 0.33215 0.12414
vt 0.33705 0.11206
vt 0.33831 0.12029
vt 0.77451 0.24249
vt 0.76483 0.25289
vt 0.76168 0.24018
vt 0.09597 0.59252
vt 0.09724 0.60144
vt 0.07050 0.60060
vt 0.48104 0.82368
vt 0.47373 0.82612
vt 0.48148 0.82069
vt 0.77825 0.06202
vt 0.77791 0.07054
vt 0.76597 0.06341
vt 0.63600 0.93979
vt 0.65693 0.94776
vt 0.63715 0.94893
vt 0.03711 0.80327
vt 0.04423 0.79729
vt 0.04544 0.81531
vt 0.01260 0.20108
vt 0.02258 0.20881
vt 0.01239 0.20951
vt 0.02262 0.20876
vt 0.01260 0.20108
vt 0.02103 0.20208
vt 0.14447 0.54514
vt 0.13114 0.56373
vt 0.13214 0.54394
vt 0.14187 0.88618
vt 0.13126 0.88443
vt 0.13126 0.85652
vt 0.13968 0.85792
vt 0.14187 0.88618
vt 0.13126 0.85652
vt 0.14211 0.56729
vt 0.14450 0.54513
vt 0.14457 0.57359
vt 0.82943 0.80218
vt 0.83159 0.79960
vt 0.83255 0.81489
vt 0.37618 0.32900
vt 0.37219 0.32169
vt 0.40762 0.32019
vt 0.83311 0.79125
vt 0.83159 0.79960
vt 0.82943 0.80218
vt 0.14211 0.56729
vt 0.13114 0.56373
vt 0.14447 0.54513
vt 0.10276 0.59057
vt 0.10008 0.61761
vt 0.09706 0.58986
vt 0.10260 0.59054
vt 0.10277 0.61901
vt 0.10008 0.61761
vt 0.67916 0.09436
vt 0.67363 0.09154
vt 0.67439 0.07981
vt 0.12551 0.82580
vt 0.11946 0.82441
vt 0.12064 0.81606
vt 0.36295 0.56503
vt 0.35142 0.53785
vt 0.36500 0.53676
vt 0.10474 0.28657
vt 0.10516 0.28080
vt 0.11261 0.29304
vt 0.10516 0.28080
vt 0.10976 0.27023
vt 0.11264 0.29302
vt 0.06776 0.23238
vt 0.04725 0.22706
vt 0.06672 0.22036
vt 0.47594 0.81421
vt 0.46668 0.82006
vt 0.48230 0.80589
vt 0.81273 0.63302
vt 0.81265 0.64471
vt 0.79984 0.65743
vt 0.12066 0.81605
vt 0.12596 0.80329
vt 0.12551 0.82580
vt 0.53796 0.84370
vt 0.57342 0.84281
vt 0.57436 0.85453
vt 0.48230 0.80589
vt 0.46672 0.82012
vt 0.46567 0.78645
vt 0.35247 0.56469
vt 0.35142 0.53785
vt 0.36295 0.56503
vt 0.81273 0.63302
vt 0.79984 0.65743
vt 0.80067 0.63344
vt 0.51364 0.15830
vt 0.51556 0.15004
vt 0.53589 0.15004
vt 0.51364 0.15830
vt 0.53589 0.15004
vt 0.53633 0.16614
vt 0.62065 0.90927
vt 0.62713 0.90214
vt 0.65297 0.90944
vt 0.34454 0.52817
vt 0.34454 0.52817
vt 0.34454 0.52817
vt 0.34454 0.52817
vt 0.34454 0.52817
vt 0.34454 0.52817
vt 0.34454 0.52817
vt 0.34971 0.52754
vt 0.34971 0.52754
vt 0.34971 0.52754
vt 0.34971 0.52754
vt 0.34971 0.52754
vt 0.34971 0.52754
vt 0.34971 0.52754
vt 0.34971 0.52754
vt 0.34971 0.52754
vt 0.34971 0.52754
vt 0.34971 0.52754
vt 0.34971 0.52754
vt 0.34971 0.52754
vt 0.34971 0.52754
vt 0.34971 0.52754
vt 0.34971 0.52754
vt 0.34971 0.52754
vt 0.34971 0.52754
vt 0.34971 0.52754
vt 0.05146 0.35013
vt 0.05146 0.35013
vt 0.05146 0.35013
vt 0.05146 0.35013
vt 0.05146 0.35013
vt 0.05146 0.35013
vt 0.05146 0.35013
vt 0.05146 0.35013
vt 0.05146 0.35013
vt 0.05146 0.35013
vt 0.05146 0.35013
vt 0.05146 0.35013
vt 0.05146 0.35013
vt 0.05146 0.35013
vt 0.05146 0.35013
vt 0.05146 0.35013
vt 0.05146 0.35013
vt 0.05146 0.35013
vt 0.05146 0.35013
vt 0.05146 0.35013
vt 0.05146 0.35013
vt 0.05146 0.35013
vt 0.05146 0.35013
vt 0.05146 0.35013
vt 0.05146 0.35013
vt 0.05146 0.35013
vt 0.05146 0.35013
vt 0.05146 0.35013
vt 0.05146 0.35013
vt 0.05146 0.35013
vt 0.05146 0.35013
vt 0.05146 0.35013
vt 0.05146 0.35013
vt 0.05146 0.35013
vt 0.05146 0.35013
vt 0.05146 0.35013
vt 0.05146 0.35013
vt 0.05146 0.35013
vt 0.05146 0.35013
vn 0.9994 -0.0330 -0.0140
vn 0.5988 -0.6177 0.5097
vn 0.6764 -0.5657 -0.4716
vn 0.9994 -0.0330 -0.0140
vn 0.7306 0.5202 0.4422
vn 0.5988 -0.6177 0.5097
vn 0.6764 -0.5657 -0.4716
vn 0.8211 -0.0987 -0.5622
vn 0.9994 -0.0330 -0.0140
vn -0.4594 -0.6026 0.6526
vn 0.6764 -0.5657 -0.4716
vn 0.5988 -0.6177 0.5097
vn 0.7200 -0.5919 -0.3623
vn 0.8211 -0.0987 -0.5622
vn 0.6764 -0.5657 -0.4716
vn 0.7306 0.5202 0.4422
vn -0.1773 -0.8156 0.5507
vn 0.5988 -0.6177 0.5097
vn 0.6278 -0.5454 -0.5554
vn -0.1773 -0.8156 0.5507
vn 0.2175 -0.9754 -0.0359
vn 0.7657 -0.5227 0.3749
vn 0.6336 -0.6833 -0.3628
vn 0.8991 0.2457 0.3623
vn 0.8991 0.2457 0.3623
vn 0.8809 -0.4643 0.0916
vn 0.7657 -0.5227 0.3749
vn 0.9800 -0.0160 0.1983
vn 0.7344 -0.6787 -0.0006
vn 0.7290 -0.6091 0.3123
vn -0.4594 -0.6026 0.6526
vn 0.5988 -0.6177 0.5097
vn -0.1773 -0.8156 0.5507
vn 0.8991 0.2457 0.3623
vn 0.9800 -0.0160 0.1983
vn 0.8809 -0.4643 0.0916
vn 0.6336 -0.6833 -0.3628
vn 0.7657 -0.5227 0.3749
vn -0.6198 -0.6448 -0.4473
vn 0.6409 -0.7213 -0.2626
vn 0.7200 -0.5919 -0.3623
vn 0.6764 -0.5657 -0.4716
vn -0.1773 -0.8156 0.5507
vn 0.7306 0.5202 0.4422
vn 0.8787 0.2921 0.3775
vn 0.7290 -0.6091 0.3123
vn 0.7344 -0.6787 -0.0006
vn 0.7200 -0.5919 -0.3623
vn 0.7290 -0.6091 0.3123
vn 0.7200 -0.5919 -0.3623
vn 0.6409 -0.7213 -0.2626
vn 0.8809 -0.4643 0.0916
vn -0.6198 -0.6448 -0.4473
vn 0.7657 -0.5227 0.3749
vn 0.6409 -0.7213 -0.2626
vn 0.7195 -0.6711 0.1789
vn 0.7290 -0.6091 0.3123
vn 0.8809 -0.4643 0.0916
vn 0.9800 -0.0160 0.1983
vn 0.7290 -0.6091 0.3123
vn 0.7195 -0.6711 0.1789
vn 0.5075 -0.7240 -0.4671
vn 0.8809 -0.4643 0.0916
vn 0.8809 -0.4643 0.0916
vn 0.7290 -0.6091 0.3123
vn 0.7195 -0.6711 0.1789
vn 0.7195 -0.6711 0.1789
vn 0.6409 -0.7213 -0.2626
vn -0.4670 -0.8481 0.2503
vn 0.6764 -0.5657 -0.4716
vn -0.5596 -0.7892 0.2530
vn 0.6409 -0.7213 -0.2626
vn 0.5075 -0.7240 -0.4671
vn -0.6977 -0.6181 -0.3621
vn 0.8809 -0.4643 0.0916
vn -0.5278 -0.8466 -0.0687
vn -0.4594 -0.6026 0.6526
vn -0.1773 -0.8156 0.5507
vn 0.6764 -0.5657 -0.4716
vn -0.4594 -0.6026 0.6526
vn -0.5596 -0.7892 0.2530
vn 0.6336 -0.6833 -0.3628
vn 0.8678 -0.4802 0.1283
vn 0.6853 0.2815 -0.6717
vn 0.5075 -0.7240 -0.4671
vn 0.7195 -0.6711 0.1789
vn -0.4670 -0.8481 0.2503
vn 0.6409 -0.7213 -0.2626
vn -0.5596 -0.7892 0.2530
vn -0.4670 -0.8481 0.2503
vn -0.5596 -0.7892 0.2530
vn -0.5853 -0.8068 -0.0811
vn -0.4670 -0.8481 0.2503
vn -0.4594 -0.6026 0.6526
vn -0.5278 -0.8466 -0.0687
vn -0.5596 -0.7892 0.2530
vn -0.6977 -0.6181 -0.3621
vn 0.5075 -0.7240 -0.4671
vn -0.4670 -0.8481 0.2503
vn -0.6198 -0.6448 -0.4473
vn 0.8809 -0.4643 0.0916
vn -0.6977 -0.6181 -0.3621
vn 0.6853 0.2815 -0.6717
vn 0.8678 -0.4802 0.1283
vn 0.8132 -0.1063 -0.5721
vn -0.5853 -0.8068 -0.0811
vn -0.5596 -0.7892 0.2530
vn -0.5278 -0.8466 -0.0687
vn -0.6198 -0.6448 -0.4473
vn 0.1161 -0.9913 0.0621
vn 0.6336 -0.6833 -0.3628
vn 0.5783 -0.6770 -0.4552
vn 0.8678 -0.4802 0.1283
vn 0.5795 -0.4943 0.6479
vn 0.5783 -0.6770 -0.4552
vn 0.8132 -0.1063 -0.5721
vn 0.8678 -0.4802 0.1283
vn -0.5278 -0.8466 -0.0687
vn 0.6252 -0.7752 -0.0906
vn -0.5853 -0.8068 -0.0811
vn 0.5795 -0.4943 0.6479
vn 0.8678 -0.4802 0.1283
vn -0.4907 -0.6375 0.5939
vn 0.5783 -0.6770 -0.4552
vn 0.5061 -0.5056 -0.6988
vn 0.8132 -0.1063 -0.5721
vn 0.6686 0.4927 -0.5570
vn 0.8132 -0.1063 -0.5721
vn 0.5061 -0.5056 -0.6988
vn -0.5944 -0.6787 -0.4314
vn 0.5783 -0.6770 -0.4552
vn 0.5795 -0.4943 0.6479
vn 0.8678 -0.4802 0.1283
vn 0.6336 -0.6833 -0.3628
vn 0.1161 -0.9913 0.0621
vn 0.7197 0.2337 -0.6538
vn 0.8132 -0.1063 -0.5721
vn 0.6686 0.4927 -0.5570
vn -0.6977 -0.6181 -0.3621
vn -0.3641 -0.9310 -0.0260
vn -0.6198 -0.6448 -0.4473
vn -0.4670 -0.8481 0.2503
vn -0.5853 -0.8068 -0.0811
vn -0.3641 -0.9310 -0.0260
vn -0.6977 -0.6181 -0.3621
vn -0.4670 -0.8481 0.2503
vn -0.3641 -0.9310 -0.0260
vn -0.6198 -0.6448 -0.4473
vn -0.3641 -0.9310 -0.0260
vn 0.1161 -0.9913 0.0621
vn -0.5278 -0.8466 -0.0687
vn 0.7263 -0.4938 -0.4782
vn 0.6252 -0.7752 -0.0906
vn 0.7489 -0.6001 -0.2811
vn 0.7014 0.4626 -0.5422
vn 0.6686 0.4927 -0.5570
vn 0.6686 0.4927 -0.5570
vn 0.5061 -0.5056 -0.6988
vn 0.7489 -0.6001 -0.2811
vn 0.5783 -0.6770 -0.4552
vn -0.1492 -0.9783 -0.1439
vn 0.5061 -0.5056 -0.6988
vn 0.7014 0.4626 -0.5422
vn 0.7489 -0.6001 -0.2811
vn 0.6834 0.2418 -0.6888
vn 0.8514 -0.5115 -0.1164
vn -0.5853 -0.8068 -0.0811
vn 0.6252 -0.7752 -0.0906
vn -0.3641 -0.9310 -0.0260
vn -0.5853 -0.8068 -0.0811
vn 0.8514 -0.5115 -0.1164
vn -0.3641 -0.9310 -0.0260
vn 0.8514 -0.5115 -0.1164
vn 0.6353 -0.6027 -0.4829
vn 0.1161 -0.9913 0.0621
vn -0.3641 -0.9310 -0.0260
vn 0.6353 -0.6027 -0.4829
vn 0.8407 -0.5330 -0.0953
vn 0.8514 -0.5115 -0.1164
vn 0.6252 -0.7752 -0.0906
vn 0.5795 -0.4943 0.6479
vn -0.5218 -0.5176 0.6781
vn -0.5944 -0.6787 -0.4314
vn -0.4907 -0.6375 0.5939
vn -0.5218 -0.5176 0.6781
vn 0.5795 -0.4943 0.6479
vn 0.5734 -0.8166 -0.0661
vn 0.7063 -0.6659 -0.2403
vn 0.8514 -0.5115 -0.1164
vn 0.7489 -0.6001 -0.2811
vn 0.5061 -0.5056 -0.6988
vn -0.1492 -0.9783 -0.1439
vn 0.7063 -0.6659 -0.2403
vn 0.5187 -0.7341 -0.4382
vn 0.8514 -0.5115 -0.1164
vn 0.8514 -0.5115 -0.1164
vn 0.5187 -0.7341 -0.4382
vn 0.6353 -0.6027 -0.4829
vn -0.1492 -0.9783 -0.1439
vn 0.5783 -0.6770 -0.4552
vn -0.5944 -0.6787 -0.4314
vn 0.8678 -0.4802 0.1283
vn 0.1161 -0.9913 0.0621
vn -0.4907 -0.6375 0.5939
vn 0.5187 -0.7341 -0.4382
vn 0.1161 -0.9913 0.0621
vn 0.6353 -0.6027 -0.4829
vn 0.6834 0.2418 -0.6888
vn 0.7489 -0.6001 -0.2811
vn 0.5273 -0.8135 -0.2455
vn 0.5187 -0.7341 -0.4382
vn 0.7063 -0.6659 -0.2403
vn -0.2760 -0.8602 -0.4289
vn -0.4907 -0.6375 0.5939
vn -0.1492 -0.9783 -0.1439
vn -0.5218 -0.5176 0.6781
vn -0.5944 -0.6787 -0.4314
vn -0.5218 -0.5176 0.6781
vn -0.1492 -0.9783 -0.1439
vn 0.7063 -0.6659 -0.2403
vn -0.4940 -0.8616 -0.1167
vn -0.2760 -0.8602 -0.4289
vn -0.4907 -0.6375 0.5939
vn 0.1161 -0.9913 0.0621
vn 0.2182 -0.9756 -0.0228
vn 0.1161 -0.9913 0.0621
vn 0.5187 -0.7341 -0.4382
vn -0.2442 -0.8180 -0.5208
vn 0.7489 -0.6001 -0.2811
vn -0.1492 -0.9783 -0.1439
vn 0.5273 -0.8135 -0.2455
vn 0.2182 -0.9756 -0.0228
vn -0.1492 -0.9783 -0.1439
vn -0.4907 -0.6375 0.5939
vn -0.2442 -0.8180 -0.5208
vn 0.5187 -0.7341 -0.4382
vn -0.2760 -0.8602 -0.4289
vn -0.1492 -0.9783 -0.1439
vn 0.2182 -0.9756 -0.0228
vn 0.3781 -0.8841 0.2744
vn 0.6488 0.2654 -0.7132
vn 0.5273 -0.8135 -0.2455
vn 0.6098 -0.6509 -0.4522
vn 0.6488 0.2654 -0.7132
vn 0.6834 0.2418 -0.6888
vn 0.5273 -0.8135 -0.2455
vn -0.1492 -0.9783 -0.1439
vn 0.3781 -0.8841 0.2744
vn 0.5273 -0.8135 -0.2455
vn 0.5273 -0.8135 -0.2455
vn 0.3781 -0.8841 0.2744
vn 0.5868 -0.8097 -0.0049
vn 0.1161 -0.9913 0.0621
vn -0.2442 -0.8180 -0.5208
vn 0.2182 -0.9756 -0.0228
vn 0.7462 0.6381 -0.1900
vn 0.6488 0.2654 -0.7132
vn 0.6098 -0.6509 -0.4522
vn -0.5039 -0.8634 0.0243
vn 0.5868 -0.8097 -0.0049
vn 0.3781 -0.8841 0.2744
vn 0.5273 -0.8135 -0.2455
vn -0.1235 -0.9909 -0.0531
vn 0.6098 -0.6509 -0.4522
vn 0.2748 -0.8891 -0.3659
vn 0.7462 0.6381 -0.1900
vn 0.6098 -0.6509 -0.4522
vn -0.4708 -0.8808 0.0499
vn 0.3781 -0.8841 0.2744
vn 0.2182 -0.9756 -0.0228
vn 0.5345 -0.6260 -0.5678
vn 0.7462 0.6381 -0.1900
vn 0.2748 -0.8891 -0.3659
vn 0.6814 0.1386 -0.7186
vn 0.7462 0.6381 -0.1900
vn 0.5345 -0.6260 -0.5678
vn 0.6814 0.1386 -0.7186
vn 0.5345 -0.6260 -0.5678
vn -0.5676 0.3374 -0.7510
vn 0.2182 -0.9756 -0.0228
vn -0.2442 -0.8180 -0.5208
vn -0.4708 -0.8808 0.0499
vn -0.0732 -0.9605 -0.2685
vn -0.4708 -0.8808 0.0499
vn -0.2442 -0.8180 -0.5208
vn 0.6098 -0.6509 -0.4522
vn 0.1019 -0.9943 -0.0317
vn 0.2748 -0.8891 -0.3659
vn 0.2748 -0.8891 -0.3659
vn 0.1019 -0.9943 -0.0317
vn 0.5345 -0.6260 -0.5678
vn -0.5039 -0.8634 0.0243
vn 0.5273 -0.8135 -0.2455
vn 0.5868 -0.8097 -0.0049
vn 0.5273 -0.8135 -0.2455
vn -0.5039 -0.8634 0.0243
vn -0.1235 -0.9909 -0.0531
vn -0.1235 -0.9909 -0.0531
vn 0.1019 -0.9943 -0.0317
vn 0.6098 -0.6509 -0.4522
vn -0.0884 -0.9532 0.2892
vn -0.5039 -0.8634 0.0243
vn 0.3781 -0.8841 0.2744
vn 0.3781 -0.8841 0.2744
vn -0.4708 -0.8808 0.0499
vn -0.0884 -0.9532 0.2892
vn -0.5711 0.8204 0.0288
vn 0.7462 0.6381 -0.1900
vn -0.0715 0.9489 0.3075
vn -0.5676 0.3374 -0.7510
vn -0.2235 0.6221 -0.7503
vn 0.6814 0.1386 -0.7186
vn -0.0884 -0.9532 0.2892
vn -0.0732 -0.9605 -0.2685
vn -0.5039 -0.8634 0.0243
vn 0.4817 -0.8160 -0.3195
vn -0.2442 -0.8180 -0.5208
vn -0.2760 -0.8602 -0.4289
vn -0.0884 -0.9532 0.2892
vn -0.4708 -0.8808 0.0499
vn -0.0732 -0.9605 -0.2685
vn -0.0732 -0.9605 -0.2685
vn -0.1235 -0.9909 -0.0531
vn -0.5039 -0.8634 0.0243
vn -0.2760 -0.8602 -0.4289
vn -0.5417 -0.8045 -0.2435
vn 0.4817 -0.8160 -0.3195
vn 0.5345 -0.6260 -0.5678
vn 0.1019 -0.9943 -0.0317
vn -0.3816 -0.7398 -0.5541
vn -0.0732 -0.9605 -0.2685
vn -0.2442 -0.8180 -0.5208
vn 0.4817 -0.8160 -0.3195
vn -0.0732 -0.9605 -0.2685
vn 0.5952 -0.8035 0.0025
vn -0.1235 -0.9909 -0.0531
vn 0.5193 -0.8294 -0.2058
vn 0.5356 -0.8441 -0.0241
vn 0.4817 -0.8160 -0.3195
vn 0.4817 -0.8160 -0.3195
vn 0.3645 -0.7642 -0.5321
vn -0.0732 -0.9605 -0.2685
vn -0.9473 -0.0490 -0.3164
vn -0.2235 0.6221 -0.7503
vn -0.0715 0.9489 0.3075
vn -0.1235 -0.9909 -0.0531
vn 0.5952 -0.8035 0.0025
vn 0.1019 -0.9943 -0.0317
vn 0.5952 -0.8035 0.0025
vn -0.0732 -0.9605 -0.2685
vn 0.4845 -0.7967 -0.3611
vn 0.4817 -0.8160 -0.3195
vn 0.5356 -0.8441 -0.0241
vn 0.3645 -0.7642 -0.5321
vn 0.3645 -0.7642 -0.5321
vn 0.4845 -0.7967 -0.3611
vn -0.0732 -0.9605 -0.2685
vn -0.0715 0.9489 0.3075
vn -0.2235 0.6221 -0.7503
vn -0.1039 0.9371 -0.3332
vn -0.2235 0.6221 -0.7503
vn -0.5676 0.3374 -0.7510
vn -0.1039 0.9371 -0.3332
vn 0.1019 -0.9943 -0.0317
vn -0.4770 -0.7547 -0.4504
vn -0.3816 -0.7398 -0.5541
vn 0.5345 -0.6260 -0.5678
vn -0.3816 -0.7398 -0.5541
vn -0.5676 0.3374 -0.7510
vn 0.1657 -0.9139 0.3706
vn 0.5952 -0.8035 0.0025
vn 0.4845 -0.7967 -0.3611
vn 0.5201 -0.8530 0.0437
vn 0.5952 -0.8035 0.0025
vn 0.1657 -0.9139 0.3706
vn 0.1019 -0.9943 -0.0317
vn 0.5952 -0.8035 0.0025
vn 0.5201 -0.8530 0.0437
vn 0.3645 -0.7642 -0.5321
vn 0.5356 -0.8441 -0.0241
vn -0.6639 -0.6529 -0.3648
vn -0.0715 0.9489 0.3075
vn 0.5108 0.8134 0.2784
vn -0.5711 0.8204 0.0288
vn 0.5201 -0.8530 0.0437
vn 0.1657 -0.9139 0.3706
vn -0.5709 -0.8160 0.0910
vn 0.5201 -0.8530 0.0437
vn -0.5709 -0.8160 0.0910
vn 0.1019 -0.9943 -0.0317
vn -0.0715 0.9489 0.3075
vn 0.2993 0.9079 -0.2936
vn 0.5108 0.8134 0.2784
vn -0.0715 0.9489 0.3075
vn -0.1039 0.9371 -0.3332
vn 0.2993 0.9079 -0.2936
vn -0.6639 -0.6529 -0.3648
vn 0.4845 -0.7967 -0.3611
vn 0.3645 -0.7642 -0.5321
vn -0.5676 0.3374 -0.7510
vn -0.3816 -0.7398 -0.5541
vn -0.1039 0.9371 -0.3332
vn -0.3816 -0.7398 -0.5541
vn -0.5610 0.3985 -0.7256
vn -0.1039 0.9371 -0.3332
vn 0.4845 -0.7967 -0.3611
vn -0.6639 -0.6529 -0.3648
vn -0.6064 -0.7522 -0.2579
vn -0.1039 0.9371 -0.3332
vn -0.4743 0.5346 -0.6995
vn 0.2993 0.9079 -0.2936
vn -0.5610 0.3985 -0.7256
vn -0.4743 0.5346 -0.6995
vn -0.1039 0.9371 -0.3332
vn -0.4770 -0.7547 -0.4504
vn 0.1019 -0.9943 -0.0317
vn -0.5709 -0.8160 0.0910
vn 0.4845 -0.7967 -0.3611
vn -0.6064 -0.7522 -0.2579
vn -0.5207 -0.8290 0.2038
vn -0.5207 -0.8290 0.2038
vn 0.1657 -0.9139 0.3706
vn 0.4845 -0.7967 -0.3611
vn 0.1657 -0.9139 0.3706
vn -0.5207 -0.8290 0.2038
vn -0.5709 -0.8160 0.0910
vn -0.6639 -0.6529 -0.3648
vn 0.5356 -0.8441 -0.0241
vn -0.6094 -0.7926 0.0192
vn -0.5610 0.3985 -0.7256
vn -0.3816 -0.7398 -0.5541
vn -0.4770 -0.7547 -0.4504
vn -0.4770 -0.7547 -0.4504
vn -0.4743 0.5346 -0.6995
vn -0.5610 0.3985 -0.7256
vn -0.4770 -0.7547 -0.4504
vn -0.5709 -0.8160 0.0910
vn -0.6694 -0.7242 0.1658
vn -0.4090 -0.9089 0.0812
vn -0.5207 -0.8290 0.2038
vn -0.6064 -0.7522 -0.2579
vn -0.6064 -0.7522 -0.2579
vn -0.6639 -0.6529 -0.3648
vn -0.3095 -0.9437 0.1170
vn -0.6694 -0.7242 0.1658
vn -0.5207 -0.8290 0.2038
vn -0.4090 -0.9089 0.0812
vn -0.5709 -0.8160 0.0910
vn -0.5207 -0.8290 0.2038
vn -0.6694 -0.7242 0.1658
vn -0.4770 -0.7547 -0.4504
vn -0.7894 -0.5925 -0.1606
vn -0.4743 0.5346 -0.6995
vn -0.3981 -0.9172 0.0140
vn -0.6639 -0.6529 -0.3648
vn -0.6094 -0.7926 0.0192
vn -0.2831 -0.9514 -0.1214
vn -0.6639 -0.6529 -0.3648
vn -0.3981 -0.9172 0.0140
vn -0.6064 -0.7522 -0.2579
vn -0.3095 -0.9437 0.1170
vn -0.4090 -0.9089 0.0812
vn -0.6639 -0.6529 -0.3648
vn -0.2831 -0.9514 -0.1214
vn -0.6664 -0.6607 -0.3456
vn -0.3095 -0.9437 0.1170
vn -0.6639 -0.6529 -0.3648
vn -0.6664 -0.6607 -0.3456
vn -0.4770 -0.7547 -0.4504
vn -0.6694 -0.7242 0.1658
vn -0.7894 -0.5925 -0.1606
vn -0.6694 -0.7242 0.1658
vn -0.4090 -0.9089 0.0812
vn -0.7071 -0.7022 0.0832
vn -0.2831 -0.9514 -0.1214
vn -0.3981 -0.9172 0.0140
vn 0.4089 -0.8758 0.2565
vn -0.3095 -0.9437 0.1170
vn 0.2223 -0.9371 -0.2693
vn -0.4090 -0.9089 0.0812
vn -0.6664 -0.6607 -0.3456
vn 0.5086 -0.8187 -0.2666
vn -0.3095 -0.9437 0.1170
vn -0.7894 -0.5925 -0.1606
vn -0.5869 0.5911 -0.5533
vn -0.4743 0.5346 -0.6995
vn -0.2831 -0.9514 -0.1214
vn 0.4336 -0.8781 0.2020
vn -0.6664 -0.6607 -0.3456
vn -0.3095 -0.9437 0.1170
vn 0.7067 -0.7045 0.0654
vn 0.2223 -0.9371 -0.2693
vn -0.6694 -0.7242 0.1658
vn -0.8039 -0.3742 -0.4624
vn -0.7894 -0.5925 -0.1606
vn -0.3095 -0.9437 0.1170
vn 0.5086 -0.8187 -0.2666
vn 0.7067 -0.7045 0.0654
vn 0.4089 -0.8758 0.2565
vn 0.4336 -0.8781 0.2020
vn -0.2831 -0.9514 -0.1214
vn -0.8039 -0.3742 -0.4624
vn -0.6694 -0.7242 0.1658
vn -0.7071 -0.7022 0.0832
vn -0.8039 -0.3742 -0.4624
vn -0.5881 0.5607 -0.5829
vn -0.7894 -0.5925 -0.1606
vn -0.5881 0.5607 -0.5829
vn -0.5869 0.5911 -0.5533
vn -0.7894 -0.5925 -0.1606
vn 0.4336 -0.8781 0.2020
vn 0.5086 -0.8187 -0.2666
vn -0.6664 -0.6607 -0.3456
vn 0.7067 -0.7045 0.0654
vn 0.4336 -0.8781 0.2020
vn 0.6199 -0.7227 -0.3057
vn -0.3981 -0.9172 0.0140
vn -0.1121 -0.7576 0.6431
vn 0.4089 -0.8758 0.2565
vn 0.5086 -0.8187 -0.2666
vn 0.4336 -0.8781 0.2020
vn 0.7067 -0.7045 0.0654
vn -0.3981 -0.9172 0.0140
vn -0.1029 -0.6706 -0.7346
vn -0.1121 -0.7576 0.6431
vn -0.8039 -0.3742 -0.4624
vn -0.7071 -0.7022 0.0832
vn -0.6576 -0.7055 -0.2643
vn 0.4264 -0.5945 0.6817
vn 0.4089 -0.8758 0.2565
vn -0.1121 -0.7576 0.6431
vn 0.7067 -0.7045 0.0654
vn 0.6199 -0.7227 -0.3057
vn -0.5430 -0.7168 -0.4375
vn -0.7071 -0.7022 0.0832
vn -0.4090 -0.9089 0.0812
vn -0.2925 -0.6246 -0.7241
vn -0.7623 0.4217 -0.4910
vn -0.5881 0.5607 -0.5829
vn -0.8039 -0.3742 -0.4624
vn 0.4336 -0.8781 0.2020
vn -0.4289 -0.9019 -0.0520
vn -0.8116 -0.5750 -0.1031
vn 0.2223 -0.9371 -0.2693
vn 0.7067 -0.7045 0.0654
vn -0.5891 -0.8039 -0.0815
vn -0.9013 0.2822 0.3287
vn -0.1121 -0.7576 0.6431
vn -0.1029 -0.6706 -0.7346
vn -0.4289 -0.9019 -0.0520
vn 0.4336 -0.8781 0.2020
vn 0.4089 -0.8758 0.2565
vn -0.4090 -0.9089 0.0812
vn 0.2223 -0.9371 -0.2693
vn -0.2925 -0.6246 -0.7241
vn -0.6576 -0.7055 -0.2643
vn -0.7623 0.4217 -0.4910
vn -0.8039 -0.3742 -0.4624
vn -0.7623 0.4217 -0.4910
vn -0.7071 -0.7022 0.0832
vn -0.8259 0.2966 -0.4796
vn -0.7071 -0.7022 0.0832
vn -0.7623 0.4217 -0.4910
vn -0.6576 -0.7055 -0.2643
vn -0.5927 -0.7485 0.2976
vn 0.6199 -0.7227 -0.3057
vn 0.4336 -0.8781 0.2020
vn 0.2223 -0.9371 -0.2693
vn -0.6125 -0.6556 -0.4417
vn -0.2925 -0.6246 -0.7241
vn 0.2223 -0.9371 -0.2693
vn -0.5891 -0.8039 -0.0815
vn -0.6125 -0.6556 -0.4417
vn -0.7071 -0.7022 0.0832
vn -0.2925 -0.6246 -0.7241
vn -0.6144 0.6129 -0.4969
vn -0.5927 -0.7485 0.2976
vn 0.4336 -0.8781 0.2020
vn -0.8116 -0.5750 -0.1031
vn -0.5430 -0.7168 -0.4375
vn 0.6199 -0.7227 -0.3057
vn -0.5927 -0.7485 0.2976
vn 0.7067 -0.7045 0.0654
vn -0.5430 -0.7168 -0.4375
vn -0.5891 -0.8039 -0.0815
vn -0.9013 0.2822 0.3287
vn -0.6675 0.5985 0.4431
vn -0.1121 -0.7576 0.6431
vn -0.6879 -0.4849 0.5401
vn -0.8859 -0.4638 0.0104
vn -0.8562 0.0058 0.5166
vn -0.8859 -0.4638 0.0104
vn -0.6879 -0.4849 0.5401
vn -0.8666 0.2492 0.4324
vn -0.5927 -0.7485 0.2976
vn -0.5891 -0.8039 -0.0815
vn -0.5430 -0.7168 -0.4375
vn -0.6746 -0.6157 -0.4072
vn -0.7144 -0.6968 0.0639
vn -0.8116 -0.5750 -0.1031
vn -0.4289 -0.9019 -0.0520
vn -0.6746 -0.6157 -0.4072
vn -0.8116 -0.5750 -0.1031
vn -0.8666 0.2492 0.4324
vn -0.5927 -0.7485 0.2976
vn -0.8859 -0.4638 0.0104
vn -0.5891 -0.8039 -0.0815
vn -0.6879 -0.4849 0.5401
vn -0.6125 -0.6556 -0.4417
vn -0.2925 -0.6246 -0.7241
vn -0.6125 -0.6556 -0.4417
vn -0.5111 0.4748 -0.7165
vn -0.8666 0.2492 0.4324
vn -0.6879 -0.4849 0.5401
vn -0.5891 -0.8039 -0.0815
vn -0.8666 0.2492 0.4324
vn -0.5891 -0.8039 -0.0815
vn -0.5927 -0.7485 0.2976
vn -0.8859 -0.4638 0.0104
vn -0.8116 -0.5750 -0.1031
vn -0.7144 -0.6968 0.0639
vn -0.8859 -0.4638 0.0104
vn -0.5927 -0.7485 0.2976
vn -0.8116 -0.5750 -0.1031
vn -0.6879 -0.4849 0.5401
vn -0.7031 -0.5529 0.4471
vn -0.6125 -0.6556 -0.4417
vn -0.7031 -0.5529 0.4471
vn -0.6879 -0.4849 0.5401
vn -0.8562 0.0058 0.5166
vn -0.4289 -0.9019 -0.0520
vn -0.8717 -0.1710 -0.4592
vn -0.6746 -0.6157 -0.4072
vn -0.8859 -0.4638 0.0104
vn -0.7144 -0.6968 0.0639
vn -0.8562 0.0058 0.5166
vn -0.7144 -0.6968 0.0639
vn -0.8396 -0.5398 0.0603
vn -0.8562 0.0058 0.5166
vn -0.6376 -0.6224 0.4541
vn 0.4089 -0.8758 0.2565
vn 0.4264 -0.5945 0.6817
vn -0.4289 -0.9019 -0.0520
vn 0.4089 -0.8758 0.2565
vn -0.6342 -0.5709 -0.5214
vn 0.4264 -0.5945 0.6817
vn -0.1121 -0.7576 0.6431
vn -0.6675 0.5985 0.4431
vn -0.8562 0.0058 0.5166
vn -0.8441 0.2312 0.4838
vn -0.7031 -0.5529 0.4471
vn -0.5111 0.4748 -0.7165
vn -0.6125 -0.6556 -0.4417
vn -0.7031 -0.5529 0.4471
vn -0.6342 -0.5709 -0.5214
vn 0.4089 -0.8758 0.2565
vn -0.6376 -0.6224 0.4541
vn -0.6342 -0.5709 -0.5214
vn -0.8717 -0.1710 -0.4592
vn -0.4289 -0.9019 -0.0520
vn 0.4264 -0.5945 0.6817
vn -0.6675 0.5985 0.4431
vn -0.6376 -0.6224 0.4541
vn -0.6675 0.5985 0.4431
vn -0.8500 0.1946 0.4896
vn -0.6342 -0.5709 -0.5214
vn -0.6675 0.5985 0.4431
vn -0.6342 -0.5709 -0.5214
vn -0.6376 -0.6224 0.4541
vn -0.8500 0.1946 0.4896
vn -0.8717 -0.1710 -0.4592
vn -0.6342 -0.5709 -0.5214
vn 0.0000 1.0000 0.0000
vn 0.0000 1.0000 0.0000
vn 0.0000 1.0000 0.0000
vn 0.0000 1.0000 0.0000
vn 0.0000 1.0000 0.0000
vn 0.0000 1.0000 0.0000
vn 0.0000 1.0000 0.0000
vn 0.0000 1.0000 0.0000
vn 0.0000 1.0000 0.0000
vn 0.0000 1.0000 0.0000
vn 0.0000 1.0000 0.0000
vn 0.0000 1.0000 0.0000
vn 0.0000 1.0000 0.0000
vn 0.0000 1.0000 0.0000
vn 0.0000 1.0000 0.0000
vn 0.0000 1.0000 0.0000
vn 0.0000 1.0000 0.0000
vn 0.0000 1.0000 0.0000
vn 0.0000 1.0000 0.0000
vn 0.0000 1.0000 0.0000
vn 0.0000 1.0000 0.0000
vn 0.0000 1.0000 0.0000
vn 0.0000 1.0000 0.0000
vn 0.0000 1.0000 0.0000
vn 0.0000 1.0000 0.0000
vn 0.0000 1.0000 0.0000
vn 0.0000 1.0000 0.0000
vn 0.0000 1.0000 0.0000
vn 0.0000 1.0000 0.0000
vn 0.0000 1.0000 0.0000
vn 0.0000 1.0000 0.0000
vn 0.0000 1.0000 0.0000
vn 0.0000 1.0000 0.0000
vn 0.0000 1.0000 0.0000
vn 0.0000 1.0000 0.0000
vn 0.0000 1.0000 0.0000
vn 0.0000 1.0000 0.0000
vn 0.0000 1.0000 0.0000
vn 0.0000 1.0000 0.0000
vn 0.0000 1.0000 0.0000
vn 0.0000 1.0000 0.0000
vn 0.0000 1.0000 0.0000
vn 0.0000 1.0000 0.0000
vn 0.0000 1.0000 0.0000
vn 0.0000 1.0000 0.0000
vn 0.0000 1.0000 0.0000
vn 0.0000 1.0000 0.0000
vn 0.0000 1.0000 0.0000
vn 0.0000 1.0000 0.0000
vn 0.0000 1.0000 0.0000
vn 0.0000 1.0000 0.0000
vn 0.0000 1.0000 0.0000
vn 0.0000 1.0000 0.0000
vn 0.0000 1.0000 0.0000
vn 0.0000 1.0000 0.0000
vn 0.0000 1.0000 0.0000
vn 0.0000 1.0000 0.0000
vn 0.0000 1.0000 0.0000
vn 0.0000 1.0000 0.0000
vn 0.0000 1.0000 0.0000
vn 0.0000 1.0000 0.0000
vn 0.0000 1.0000 0.0000
vn 0.0000 1.0000 0.0000
vn 0.0000 1.0000 0.0000
vn 0.0000 1.0000 0.0000
f 1/1/1 2/2/2 3/3/3
f 4/4/4 5/5/5 6/6/6
f 7/7/7 8/8/8 9/9/9
f 10/10/10 11/11/11 12/12/12
f 13/13/13 14/14/14 15/15/15
f 16/16/16 17/17/17 18/18/18
f 19/19/19 20/20/20 21/21/21
f 22/22/22 23/23/23 24/24/24
f 25/25/25 26/26/26 27/27/27
f 28/28/28 29/29/29 30/30/30
f 31/31/31 32/32/32 33/33/33
f 34/34/34 35/35/35 36/36/36
f 37/37/37 38/38/38 39/39/39
f 40/40/40 41/41/41 42/42/42
f 43/43/43 44/44/44 45/45/45
f 46/46/46 47/47/47 48/48/48
f 49/49/49 50/50/50 51/51/51
f 52/52/52 53/53/53 54/54/54
f 55/55/55 56/56/56 57/57/57
f 58/58/58 59/59/59 60/60/60
f 61/61/61 62/62/62 63/63/63
f 64/64/64 65/65/65 66/66/66
f 67/67/67 68/68/68 69/69/69
f 70/70/70 71/71/71 72/72/72
f 73/73/73 74/74/74 75/75/75
f 76/76/76 77/77/77 78/78/78
f 79/79/79 80/80/80 81/81/81
f 82/82/82 83/83/83 84/84/84
f 85/85/85 86/86/86 87/87/87
f 88/88/88 89/89/89 90/90/90
f 91/91/91 92/92/92 93/93/93
f 94/94/94 95/95/95 96/96/96
f 97/97/97 98/98/98 99/99/99
f 100/100/100 101/101/101 102/102/102
f 103/103/103 104/104/104 105/105/105
f 106/106/106 107/107/107 108/108/108
f 109/109/109 110/110/110 111/111/111
f 112/112/112 113/113/113 114/114/114
f 115/115/115 116/116/116 117/117/117
f 118/118/118 119/119/119 120/120/120
f 121/121/121 122/122/122 123/123/123
f 124/124/124 125/125/125 126/126/126
f 127/127/127 128/128/128 129/129/129
f 130/130/130 131/131/131 132/132/132
f 133/133/133 134/134/134 135/135/135
f 136/136/136 137/137/137 138/138/138
f 139/139/139 140/140/140 141/141/141
f 142/142/142 143/143/143 144/144/144
f 145/145/145 146/146/146 147/147/147
f 148/148/148 149/149/149 150/150/150
f 151/151/151 152/152/152 153/153/153
f 154/154/154 155/155/155 156/156/156
f 157/157/157 158/158/158 159/159/159
f 160/160/160 161/161/161 162/162/162
f 163/163/163 164/164/164 165/165/165
f 166/166/166 167/167/167 168/168/168
f 169/169/169 170/170/170 171/171/171
f 172/172/172 173/173/173 174/174/174
f 175/175/175 176/176/176 177/177/177
f 178/178/178 179/179/179 180/180/180
f 181/181/181 182/182/182 183/183/183
f 184/184/184 185/185/185 186/186/186
f 187/187/187 188/188/188 189/189/189
f 190/190/190 191/191/191 192/192/192
f 193/193/193 194/194/194 195/195/195
f 196/196/196 197/197/197 198/198/198
f 199/199/199 200/200/200 201/201/201
f 202/202/202 203/203/203 204/204/204
f 205/205/205 206/206/206 207/207/207
f 208/208/208 209/209/209 210/210/210
f 211/211/211 212/212/212 213/213/213
f 214/214/214 215/215/215 216/216/216
f 217/217/217 218/218/218 219/219/219
f 220/220/220 221/221/221 222/222/222
f 223/223/223 224/224/224 225/225/225
f 226/226/226 227/227/227 228/228/228
f 229/229/229 230/230/230 231/231/231
f 232/232/232 233/233/233 234/234/234
f 235/235/235 236/236/236 237/237/237
f 238/238/238 239/239/239 240/240/240
f 241/241/241 242/242/242 243/243/243
f 244/244/244 245/245/245 246/246/246
f 247/247/247 248/248/248 249/249/249
f 250/250/250 251/251/251 252/252/252
f 253/253/253 254/254/254 255/255/255
f 256/256/256 257/257/257 258/258/258
f 259/259/259 260/260/260 261/261/261
f 262/262/262 263/263/263 264/264/264
f 265/265/265 266/266/266 267/267/267
f 268/268/268 269/269/269 270/270/270
f 271/271/271 272/272/272 273/273/273
f 274/274/274 275/275/275 276/276/276
f 277/277/277 278/278/278 279/279/279
f 280/280/280 281/281/281 282/282/282
f 283/283/283 284/284/284 285/285/285
f 286/286/286 287/287/287 288/288/288
f 289/289/289 290/290/290 291/291/291
f 292/292/292 293/293/293 294/294/294
f 295/295/295 296/296/296 297/297/297
f 298/298/298 299/299/299 300/300/300
f 301/301/301 302/302/302 303/303/303
f 304/304/304 305/305/305 306/306/306
f 307/307/307 308/308/308 309/309/309
f 310/310/310 311/311/311 312/312/312
f 313/313/313 314/314/314 315/315/315
f 316/316/316 317/317/317 318/318/318
f 319/319/319 320/320/320 321/321/321
f 322/322/322 323/323/323 324/324/324
f 325/325/325 326/326/326 327/327/327
f 328/328/328 329/329/329 330/330/330
f 331/331/331 332/332/332 333/333/333
f 334/334/334 335/335/335 336/336/336
f 337/337/337 338/338/338 339/339/339
f 340/340/340 341/341/341 342/342/342
f 343/343/343 344/344/344 345/345/345
f 346/346/346 347/347/347 348/348/348
f 349/349/349 350/350/350 351/351/351
f 352/352/352 353/353/353 354/354/354
f 355/355/355 356/356/356 357/357/357
f 358/358/358 359/359/359 360/360/360
f 361/361/361 362/362/362 363/363/363
f 364/364/364 365/365/365 366/366/366
f 367/367/367 368/368/368 369/369/369
f 370/370/370 371/371/371 372/372/372
f 373/373/373 374/374/374 375/375/375
f 376/376/376 377/377/377 378/378/378
f 379/379/379 380/380/380 381/381/381
f 382/382/382 383/383/383 384/384/384
f 385/385/385 386/386/386 387/387/387
f 388/388/388 389/389/389 390/390/390
f 391/391/391 392/392/392 393/393/393
f 394/394/394 395/395/395 396/396/396
f 397/397/397 398/398/398 399/399/399
f 400/400/400 401/401/401 402/402/402
f 403/403/403 404/404/404 405/405/405
f 406/406/406 407/407/407 408/408/408
f 409/409/409 410/410/410 411/411/411
f 412/412/412 413/413/413 414/414/414
f 415/415/415 416/416/416 417/417/417
f 418/418/418 419/419/419 420/420/420
f 421/421/421 422/422/422 423/423/423
f 424/424/424 425/425/425 426/426/426
f 427/427/427 428/428/428 429/429/429
f 430/430/430 431/431/431 432/432/432
f 433/433/433 434/434/434 435/435/435
f 436/436/436 437/437/437 438/438/438
f 439/439/439 440/440/440 441/441/441
f 442/442/442 443/443/443 444/444/444
f 445/445/445 446/446/446 447/447/447
f 448/448/448 449/449/449 450/450/450
f 451/451/451 452/452/452 453/453/453
f 454/454/454 455/455/455 456/456/456
f 457/457/457 458/458/458 459/459/459
f 460/460/460 461/461/461 462/462/462
f 463/463/463 464/464/464 465/465/465
f 466/466/466 467/467/467 468/468/468
f 469/469/469 470/470/470 471/471/471
f 472/472/472 473/473/473 474/474/474
f 475/475/475 476/476/476 477/477/477
f 478/478/478 479/479/479 480/480/480
f 481/481/481 482/482/482 483/483/483
f 484/484/484 485/485/485 486/486/486
f 487/487/487 488/488/488 489/489/489
f 490/490/490 491/491/491 492/492/492
f 493/493/493 494/494/494 495/495/495
f 496/496/496 497/497/497 498/498/498
f 499/499/499 500/500/500 501/501/501
f 502/502/502 503/503/503 504/504/504
f 505/505/505 506/506/506 507/507/507
f 508/508/508 509/509/509 510/510/510
f 511/511/511 512/512/512 513/513/513
f 514/514/514 515/515/515 516/516/516
f 517/517/517 518/518/518 519/519/519
f 520/520/520 521/521/521 522/522/522
f 523/523/523 524/524/524 525/525/525
f 526/526/526 527/527/527 528/528/528
f 529/529/529 530/530/530 531/531/531
f 532/532/532 533/533/533 534/534/534
f 535/535/535 536/536/536 537/537/537
f 538/538/538 539/539/539 540/540/540
f 541/541/541 542/542/542 543/543/543
f 544/544/544 545/545/545 546/546/546
f 547/547/547 548/548/548 549/549/549
f 550/550/550 551/551/551 552/552/552
f 553/553/553 554/554/554 555/555/555
f 556/556/556 557/557/557 558/558/558
f 559/559/559 560/560/560 561/561/561
f 562/562/562 563/563/563 564/564/564
f 565/565/565 566/566/566 567/567/567
f 568/568/568 569/569/569 570/570/570
f 571/571/571 572/572/572 573/573/573
f 574/574/574 575/575/575 576/576/576
f 577/577/577 578/578/578 579/579/579
f 580/580/580 581/581/581 582/582/582
f 583/583/583 584/584/584 585/585/585
f 586/586/586 587/587/587 588/588/588
f 589/589/589 590/590/590 591/591/591
f 592/592/592 593/593/593 594/594/594
f 595/595/595 596/596/596 597/597/597
f 598/598/598 599/599/599 600/600/600
f 601/601/601 602/602/602 603/603/603
f 604/604/604 605/605/605 606/606/606
f 607/607/607 608/608/608 609/609/609
f 610/610/610 611/611/611 612/612/612
f 613/613/613 614/614/614 615/615/615
f 616/616/616 617/617/617 618/618/618
f 619/619/619 620/620/620 621/621/621
f 622/622/622 623/623/623 624/624/624
f 625/625/625 626/626/626 627/627/627
f 628/628/628 629/629/629 630/630/630
f 631/631/631 632/632/632 633/633/633
f 634/634/634 635/635/635 636/636/636
f 637/637/637 638/638/638 639/639/639
f 640/640/640 641/641/641 642/642/642
f 643/643/643 644/644/644 645/645/645
f 646/646/646 647/647/647 648/648/648
f 649/649/649 650/650/650 651/651/651
f 652/652/652 653/653/653 654/654/654
f 655/655/655 656/656/656 657/657/657
f 658/658/658 659/659/659 660/660/660
f 661/661/661 662/662/662 663/663/663
f 664/664/664 665/665/665 666/666/666
f 667/667/667 668/668/668 669/669/669
f 670/670/670 671/671/671 672/672/672
f 673/673/673 674/674/674 675/675/675
f 673/673/673 675/675/675 674/674/674
f 673/673/673 675/675/675 676/676/676
f 673/673/673 676/676/676 675/675/675
f 673/673/673 676/676/676 677/677/677
f 673/673/673 677/677/677 676/676/676
f 673/673/673 677/677/677 678/678/678
f 673/673/673 678/678/678 677/677/677
f 673/673/673 678/678/678 679/679/679
f 673/673/673 679/679/679 678/678/678
f 673/673/673 679/679/679 674/674/674
f 673/673/673 674/674/674 679/679/679
f 680/680/680 681/681/681 682/682/682
f 680/680/680 682/682/682 681/681/681
f 680/680/680 682/682/682 683/683/683
f 680/680/680 683/683/683 682/682/682
f 680/680/680 683/683/683 684/684/684
f 680/680/680 684/684/684 683/683/683
f 680/680/680 684/684/684 685/685/685
f 680/680/680 685/685/685 684/684/684
f 680/680/680 685/685/685 686/686/686
f 680/680/680 686/686/686 685/685/685
f 680/680/680 686/686/686 687/687/687
f 680/680/680 687/687/687 686/686/686
f 680/680/680 687/687/687 688/688/688
f 680/680/680 688/688/688 687/687/687
f 680/680/680 688/688/688 689/689/689
f 680/680/680 689/689/689 688/688/688
f 680/680/680 689/689/689 690/690/690
f 680/680/680 690/690/690 689/689/689
f 680/680/680 690/690/690 691/691/691
f 680/680/680 691/691/691 690/690/690
f 680/680/680 691/691/691 692/692/692
f 680/680/680 692/692/692 691/691/691
f 680/680/680 692/692/692 693/693/693
f 680/680/680 693/693/693 692/692/692
f 680/680/680 693/693/693 694/694/694
f 680/680/680 694/694/694 693/693/693
f 680/680/680 694/694/694 695/695/695
f 680/680/680 695/695/695 694/694/694
f 680/680/680 695/695/695 696/696/696
f 680/680/680 696/696/696 695/695/695
f 680/680/680 696/696/696 697/697/697
f 680/680/680 697/697/697 696/696/696
f 680/680/680 697/697/697 698/698/698
f 680/680/680 698/698/698 697/697/697
f 680/680/680 698/698/698 681/681/681
f 680/680/680 681/681/681 698/698/698
f 699/699/699 700/700/700 701/701/701
f 699/699/699 701/701/701 700/700/700
f 699/699/699 701/701/701 702/702/702
f 699/699/699 702/702/702 701/701/701
f 699/699/699 702/702/702 703/703/703
f 699/699/699 703/703/703 702/702/702
f 699/699/699 703/703/703 704/704/704
f 699/699/699 704/704/704 703/703/703
f 699/699/699 704/704/704 705/705/705
f 699/699/699 705/705/705 704/704/704
f 699/699/699 705/705/705 706/706/706
f 699/699/699 706/706/706 705/705/705
f 699/699/699 706/706/706 707/707/707
f 699/699/699 707/707/707 706/706/706
f 699/699/699 707/707/707 708/708/708
f 699/699/699 708/708/708 707/707/707
f 699/699/699 708/708/708 709/709/709
f 699/699/699 709/709/709 708/708/708
f 699/699/699 709/709/709 710/710/710
f 699/699/699 710/710/710 709/709/709
f 699/699/699 710/710/710 711/711/711
f 699/699/699 711/711/711 710/710/710
f 699/699/699 711/711/711 712/712/712
f 699/699/699 712/712/712 711/711/711
f 699/699/699 712/712/712 713/713/713
f 699/699/699 713/713/713 712/712/712
f 699/699/699 713/713/713 714/714/714
f 699/699/699 714/714/714 713/713/713
f 699/699/699 714/714/714 715/715/715
f 699/699/699 715/715/715 714/714/714
f 699/699/699 715/715/715 716/716/716
f 699/699/699 716/716/716 715/715/715
f 699/699/699 716/716/716 717/717/717
f 699/699/699 717/717/717 716/716/716
f 699/699/699 717/717/717 718/718/718
f 699/699/699 718/718/718 717/717/717
f 699/699/699 718/718/718 719/719/719
f 699/699/699 719/719/719 718/718/718
f 699/699/699 719/719/719 720/720/720
f 699/699/699 720/720/720 719/719/719
f 699/699/699 720/720/720 721/721/721
f 699/699/699 721/721/721 720/720/720
f 699/699/699 721/721/721 722/722/722
f 699/699/699 722/722/722 721/721/721
f 699/699/699 722/722/722 723/723/723
f 699/699/699 723/723/723 722/722/722
f 699/699/699 723/723/723 724/724/724
f 699/699/699 724/724/724 723/723/723
f 699/699/699 724/724/724 725/725/725
f 699/699/699 725/725/725 724/724/724
f 699/699/699 725/725/725 726/726/726
f 699/699/699 726/726/726 725/725/725
f 699/699/699 726/726/726 727/727/727
f 699/699/699 727/727/727 726/726/726
f 699/699/699 727/727/727 728/728/728
f 699/699/699 728/728/728 727/727/727
f 699/699/699 728/728/728 729/729/729
f 699/699/699 729/729/729 728/728/728
f 699/699/699 729/729/729 730/730/730
f 699/699/699 730/730/730 729/729/729
f 699/699/699 730/730/730 731/731/731
f 699/699/699 731/731/731 730/730/730
f 699/699/699 731/731/731 732/732/732
f 699/699/699 732/732/732 731/731/731
f 699/699/699 732/732/732 733/733/733
f 699/699/699 733/733/733 732/732/732
f 699/699/699 733/733/733 734/734/734
f 699/699/699 734/734/734 733/733/733
f 699/699/699 734/734/734 735/735/735
f 699/699/699 735/735/735 734/734/734
f 699/699/699 735/735/735 736/736/736
f 699/699/699 736/736/736 735/735/735
f 699/699/699 736/736/736 737/737/737
f 699/699/699 737/737/737 736/736/736
f 699/699/699 737/737/737 700/700/700
f 699/699/699 700/700/700 737/737/737
