o wing_right_tip
v 2.55586 3.25341 -0.30895
v 2.61409 3.27326 -0.30154
v 2.62882 3.24564 -0.37321
v 2.37375 3.49256 -0.39920
v 2.61409 3.27326 -0.30154
v 2.55586 3.25341 -0.30895
v 2.54926 3.24341 -0.33711
v 2.54926 3.24341 -0.33711
v 2.54793 3.25831 -0.37686
v 2.55586 3.25341 -0.30895
v 2.53909 3.24167 -0.38564
v 2.47067 3.18387 -0.37805
v 2.56268 3.05632 -0.31590
v 2.46483 3.17948 -0.30403
v 2.62882 3.24564 -0.37321
v 2.56268 3.05632 -0.31590
v 2.47067 3.18387 -0.37805
v 2.54926 3.24341 -0.33711
v 2.44617 3.22031 -0.32182
v 2.53909 3.24167 -0.38564
v 2.46647 3.18788 -0.35383
v 2.44617 3.22031 -0.32182
v 2.46647 3.18788 -0.35383
v 2.47067 3.18387 -0.37805
v 2.37375 3.49256 -0.39920
v 2.55586 3.25341 -0.30895
v 2.54793 3.25831 -0.37686
v 2.53909 3.24167 -0.38564
v 2.38657 3.18586 -0.40726
v 2.54793 3.25831 -0.37686
v 4.17245 3.63240 -0.34076
v 4.15932 3.60912 -0.31399
v 4.18545 3.56473 -0.30480
v 4.17245 3.59383 -0.25812
v 4.18545 3.56473 -0.30480
v 4.16991 3.65244 -0.28264
v 4.18545 3.56473 -0.30480
v 4.15932 3.60912 -0.31399
v 4.16991 3.65244 -0.28264
v 4.17245 3.63240 -0.34076
v 4.16991 3.65244 -0.28264
v 4.15932 3.60912 -0.31399
v 4.17245 3.63240 -0.34076
v 4.18545 3.56473 -0.30480
v 4.16004 3.53264 -0.46014
v 4.15645 3.57935 -0.50141
v 4.17245 3.59383 -0.25812
v 4.13652 3.52798 -0.27166
v 4.18545 3.56473 -0.30480
v 4.15197 3.51639 -0.50571
v 4.17245 3.63240 -0.34076
v 4.01198 3.84633 -0.30411
v 4.16991 3.65244 -0.28264
v 4.16991 3.65244 -0.28264
v 4.08410 3.61448 -0.22253
v 4.17245 3.59383 -0.25812
v 4.15645 3.57935 -0.50141
v 4.15197 3.51639 -0.50571
v 4.13147 3.58348 -0.50687
v 4.08761 3.69250 -0.50517
v 4.16004 3.53264 -0.46014
v 4.11920 3.47318 -0.42200
v 4.15197 3.51639 -0.50571
v 4.10438 3.53480 -0.21580
v 4.13444 4.72629 -0.38994
v 4.13234 4.64507 -0.52010
v 4.04742 4.78816 -0.56484
v 4.15197 3.51639 -0.50571
v 4.11734 3.58133 -0.52179
v 4.13147 3.58348 -0.50687
v 4.15645 3.57935 -0.50141
v 4.07594 3.43641 -0.46347
v 4.11734 3.58133 -0.52179
v 4.15197 3.51639 -0.50571
v 4.07594 3.43641 -0.46347
v 4.02752 3.80229 -0.37776
v 4.13234 4.64507 -0.52010
v 4.13444 4.72629 -0.38994
v 4.00894 4.69594 -0.53667
v 4.04742 4.78816 -0.56484
v 4.13234 4.64507 -0.52010
v 4.03415 4.75730 -0.57980
v 3.80847 3.89268 -0.48613
v 4.04986 3.51134 -0.45585
v 4.13147 3.58348 -0.50687
v 4.11734 3.58133 -0.52179
v 4.08761 3.69250 -0.50517
v 4.11734 3.58133 -0.52179
v 4.04904 3.48368 -0.47089
v 4.04986 3.51134 -0.45585
v 4.08410 3.61448 -0.22253
v 4.07965 3.52254 -0.35962
v 4.10438 3.53480 -0.21580
v 3.99020 3.85063 -0.50988
v 4.04904 3.48368 -0.47089
v 4.03415 4.75730 -0.57980
v 4.13234 4.64507 -0.52010
v 4.00894 4.69594 -0.53667
v 3.80679 3.92379 -0.27077
v 4.04904 3.48368 -0.47089
v 4.09119 3.48144 -0.34529
v 4.04986 3.51134 -0.45585
v 3.92037 3.67332 -0.45979
v 4.01198 3.84633 -0.30411
v 3.99020 3.85063 -0.50988
v 4.04742 4.78816 -0.56484
v 3.90052 4.94352 -0.40893
v 3.98308 3.63245 -0.33642
v 4.08410 3.61448 -0.22253
v 3.99163 3.66082 -0.29082
v 4.00894 4.69594 -0.53667
v 4.02987 4.76463 -0.39778
v 3.98629 4.66931 -0.57352
v 3.92037 3.67332 -0.45979
v 4.04986 3.51134 -0.45585
v 3.94485 4.78282 -0.59594
v 3.92038 3.77313 -0.24890
v 3.94485 4.78282 -0.59594
v 3.98629 4.66931 -0.57352
v 3.92593 4.78062 -0.61977
v 4.00894 4.69594 -0.53667
v 3.94485 4.78282 -0.59594
v 3.96532 3.62938 -0.34512
v 4.02987 4.76463 -0.39778
v 3.88934 4.70923 -0.56659
v 3.98629 4.66931 -0.57352
v 3.98308 3.63245 -0.33642
v 3.96532 3.62938 -0.34512
v 3.94899 3.66853 -0.36657
v 3.89210 4.83125 -0.60723
v 3.86642 3.80000 -0.30531
v 3.89210 4.83125 -0.60723
v 3.94899 3.66853 -0.36657
v 3.87880 4.06178 -0.39029
v 3.89210 4.83125 -0.60723
v 3.98629 4.66931 -0.57352
v 3.88934 4.70923 -0.56659
v 3.92593 4.78062 -0.61977
v 3.99163 3.66082 -0.29082
v 3.85078 3.30855 -0.19520
v 3.96532 3.62938 -0.34512
v 3.86587 4.01045 -0.38224
v 3.86587 4.01045 -0.38224
v 4.02752 3.80229 -0.37776
v 3.87880 4.06178 -0.39029
v 3.90161 4.01752 -0.52853
v 3.64933 4.01110 -0.44524
v 3.64933 4.01110 -0.44524
v 3.87880 4.06178 -0.39029
v 3.90161 4.01752 -0.52853
v 3.89614 4.07888 -0.41136
v 4.08410 3.61448 -0.22253
v 3.80679 3.92379 -0.27077
v 3.92038 3.77313 -0.24890
v 3.87112 4.01745 -0.31982
v 3.90161 4.01752 -0.52853
v 3.69824 4.91907 -0.60248
v 3.87880 4.06178 -0.39029
v 3.87112 4.01745 -0.31982
v 3.86587 4.01045 -0.38224
v 3.86686 4.06218 -0.26242
v 3.78965 3.91221 -0.27934
v 3.70223 4.86735 -0.40465
v 3.81097 3.93437 -0.24123
v 3.85841 3.33024 -0.11350
v 3.99163 3.66082 -0.29082
v 3.86642 3.80000 -0.30531
v 3.87112 4.01745 -0.31982
v 3.80679 3.92379 -0.27077
v 3.78965 3.91221 -0.27934
v 3.64933 4.01110 -0.44524
v 3.94899 3.66853 -0.36657
v 3.96532 3.62938 -0.34512
v 3.77896 3.89000 -0.32026
v 3.89210 4.83125 -0.60723
v 3.92593 4.78062 -0.61977
v 3.69824 4.91907 -0.60248
v 3.85078 3.30855 -0.19520
v 3.67466 4.02785 -0.27093
v 3.81097 3.93437 -0.24123
v 3.86686 4.06218 -0.26242
v 3.87880 4.06178 -0.39029
v 3.89614 4.07888 -0.41136
v 3.66396 4.20033 -0.42616
v 3.64933 4.01110 -0.44524
v 3.80301 3.90990 -0.42372
v 3.80847 3.89268 -0.48613
v 3.77896 3.89000 -0.32026
v 3.87880 4.06178 -0.39029
v 3.78501 4.12376 -0.28268
v 3.86686 4.06218 -0.26242
v 3.89614 4.07888 -0.41136
v 3.90161 4.01752 -0.52853
v 3.56392 4.28114 -0.46912
v 3.69071 4.76331 -0.56267
v 3.70345 4.85362 -0.61154
v 3.77896 3.89000 -0.32026
v 3.80679 3.92379 -0.27077
v 3.78516 3.93382 -0.33890
v 3.78965 3.91221 -0.27934
v 3.80679 3.92379 -0.27077
v 3.77896 3.89000 -0.32026
v 3.66396 4.20033 -0.42616
v 3.78516 3.93382 -0.33890
v 3.80679 3.92379 -0.27077
v 3.68837 4.00325 -0.34369
v 3.72605 3.94647 -0.50148
v 3.80847 3.89268 -0.48613
v 3.80301 3.90990 -0.42372
v 3.81097 3.93437 -0.24123
v 3.78516 3.93382 -0.33890
v 3.68837 4.00325 -0.34369
v 3.72605 3.94647 -0.50148
v 3.69071 4.76331 -0.56267
v 3.57466 4.22148 -0.57084
v 3.78501 4.12376 -0.28268
v 3.82131 3.33251 -0.11093
v 3.57466 4.22148 -0.57084
v 3.67466 4.02785 -0.27093
v 3.70107 5.00000 -0.45612
v 3.69824 4.91907 -0.60248
v 3.69378 4.93779 -0.58977
v 3.70345 4.85362 -0.61154
v 3.70223 4.86735 -0.40465
v 3.67694 4.79281 -0.56984
v 3.69071 4.76331 -0.56267
v 3.67694 4.79281 -0.56984
v 3.64933 4.01110 -0.44524
v 3.56392 4.28114 -0.46912
v 3.69378 4.93779 -0.58977
v 3.36186 4.91804 -0.48840
v 3.70345 4.85362 -0.61154
v 3.60006 4.77431 -0.56659
v 3.53943 4.86382 -0.61383
v 3.67694 4.79281 -0.56984
v 3.53943 4.86382 -0.61383
v 3.54337 4.28527 -0.33021
v 3.69378 4.93779 -0.58977
v 3.54337 4.28527 -0.33021
v 3.57510 4.82917 -0.40171
v 3.67694 4.79281 -0.56984
v 3.60006 4.77431 -0.56659
v 3.48983 4.22148 -0.31918
v 3.59477 4.27174 -0.59505
v 3.58601 4.34765 -0.45287
v 3.57466 4.22148 -0.57084
v 3.60006 4.77431 -0.56659
v 3.57510 4.82917 -0.40171
v 3.59629 4.74972 -0.58355
v 3.53943 4.86382 -0.61383
v 3.60006 4.77431 -0.56659
v 3.59629 4.74972 -0.58355
v 3.42499 4.19172 -0.32845
v 3.43424 4.17006 -0.38711
v 3.56096 4.32800 -0.42622
v 3.56392 4.28114 -0.46912
v 3.57466 4.22148 -0.57084
v 3.53047 4.15020 -0.56068
v 3.59477 4.27174 -0.59505
v 3.53047 4.15020 -0.56068
v 3.56392 4.28114 -0.46912
v 3.51177 2.72467 0.00119
v 2.95574 3.42545 -0.28112
v 3.55579 4.33853 -0.31778
v 3.54337 4.28527 -0.33021
v 3.46715 4.11326 -0.53125
v 3.54337 4.28527 -0.33021
v 3.55579 4.33853 -0.31778
v 3.48558 4.23328 -0.30132
v 3.42499 4.19172 -0.32845
v 3.47414 4.16400 -0.53674
v 3.57510 4.82917 -0.40171
v 3.49497 4.72720 -0.57522
v 3.59629 4.74972 -0.58355
v 3.53943 4.86382 -0.61383
v 3.59629 4.74972 -0.58355
v 3.43436 4.83425 -0.61436
v 3.48983 4.22148 -0.31918
v 3.39588 4.89250 -0.58805
v 3.43436 4.83425 -0.61436
v 3.59477 4.27174 -0.59505
v 3.43713 4.33197 -0.60994
v 3.58601 4.34765 -0.45287
v 3.56096 4.32800 -0.42622
v 3.58601 4.34765 -0.45287
v 3.47016 4.37495 -0.44565
v 3.46715 4.11326 -0.53125
v 3.56096 4.32800 -0.42622
v 3.47016 4.37495 -0.44565
v 3.55579 4.33853 -0.31778
v 3.59477 4.27174 -0.59505
v 3.53047 4.15020 -0.56068
v 3.37776 4.20609 -0.57338
v 3.46882 4.75730 -0.39224
v 3.50068 4.68689 -0.59894
v 3.49497 4.72720 -0.57522
v 3.37776 4.20609 -0.57338
v 3.53047 4.15020 -0.56068
v 3.47414 4.16400 -0.53674
v 3.39588 4.89250 -0.58805
v 3.44012 4.23453 -0.33282
v 3.48983 4.22148 -0.31918
v 3.48558 4.23328 -0.30132
v 3.44012 4.23453 -0.33282
v 3.50068 4.68689 -0.59894
v 3.42430 4.82317 -0.63691
v 3.49497 4.72720 -0.57522
v 3.49497 4.72720 -0.57522
v 3.39820 4.67292 -0.48969
v 3.50068 4.68689 -0.59894
v 3.48558 4.23328 -0.30132
v 3.55579 4.33853 -0.31778
v 3.33161 4.28723 -0.32885
v 3.50068 4.68689 -0.59894
v 3.39367 4.64000 -0.59945
v 3.42430 4.82317 -0.63691
v 3.64933 4.01110 -0.44524
v 3.47104 4.17825 -0.48657
v 3.43436 4.83425 -0.61436
v 3.47414 4.16400 -0.53674
v 3.46715 4.11326 -0.53125
v 3.64933 4.01110 -0.44524
v 3.33161 4.28723 -0.32885
v 3.44012 4.23453 -0.33282
v 3.44098 4.22343 -0.40292
v 3.43424 4.17006 -0.38711
v 3.26031 4.48087 -0.48102
v 3.39588 4.89250 -0.58805
v 2.90095 3.46896 -0.20576
v 3.44098 4.22343 -0.40292
v 3.42499 4.19172 -0.32845
v 3.29748 4.25825 -0.50416
v 3.39367 4.64000 -0.59945
v 3.29748 4.25825 -0.50416
v 3.47104 4.17825 -0.48657
v 3.26031 4.48087 -0.48102
v 3.43713 4.33197 -0.60994
v 3.39367 4.64000 -0.59945
v 3.37687 4.62755 -0.47540
v 3.37006 4.61018 -0.56974
v 3.30842 4.76663 -0.64156
v 3.34134 4.62513 -0.46970
v 3.37006 4.61018 -0.56974
v 3.34134 4.62513 -0.46970
v 3.37006 4.61018 -0.56974
v 3.35610 4.63156 -0.59889
v 3.39367 4.64000 -0.59945
v 3.43424 4.17006 -0.38711
v 3.44098 4.22343 -0.40292
v 2.87450 4.41970 -0.46269
v 3.33896 4.61448 -0.57732
v 3.42430 4.82317 -0.63691
v 3.32905 4.89546 -0.57062
v 3.39588 4.89250 -0.58805
v 3.33896 4.61448 -0.57732
v 3.39367 4.64000 -0.59945
v 3.35610 4.63156 -0.59889
v 3.31956 4.72836 -0.61720
v 3.11089 4.32354 -0.59677
v 3.30842 4.76663 -0.64156
v 3.39367 4.64000 -0.59945
v 3.31956 4.72836 -0.61720
v 3.30842 4.76663 -0.64156
v 3.13687 4.51982 -0.37523
v 3.34134 4.62513 -0.46970
v 3.31412 4.55497 -0.46193
v 3.33896 4.61448 -0.57732
v 3.35610 4.63156 -0.59889
v 3.33896 4.61448 -0.57732
v 3.33439 4.61104 -0.64030
v 3.31383 4.54181 -0.56116
v 3.31383 4.54181 -0.56116
v 3.31412 4.55497 -0.46193
v 3.27074 4.53861 -0.56518
v 3.31956 4.72836 -0.61720
v 3.32251 4.88103 -0.55823
v 3.30842 4.76663 -0.64156
v 3.27074 4.53861 -0.56518
v 3.33896 4.61448 -0.57732
v 3.31383 4.54181 -0.56116
v 3.31956 4.72836 -0.61720
v 3.26443 4.84963 -0.58325
v 3.32251 4.88103 -0.55823
v 3.33439 4.61104 -0.64030
v 3.24612 4.71115 -0.66301
v 3.35610 4.63156 -0.59889
v 3.35610 4.63156 -0.59889
v 3.26443 4.84963 -0.58325
v 3.31956 4.72836 -0.61720
v 3.28434 4.54921 -0.45631
v 3.31412 4.55497 -0.46193
v 3.28434 4.54921 -0.45631
v 3.20561 4.57278 -0.63290
v 3.33439 4.61104 -0.64030
v 3.20636 4.52532 -0.62842
v 3.26443 4.84963 -0.58325
v 3.29068 4.87501 -0.47167
v 3.26443 4.84963 -0.58325
v 3.20916 4.58720 -0.45238
v 3.23432 4.45964 -0.54853
v 3.24612 4.71115 -0.66301
v 2.93009 4.42126 -0.54651
v 3.24065 4.47448 -0.46778
v 3.25077 4.47691 -0.43868
v 3.26031 4.48087 -0.48102
v 3.28434 4.54921 -0.45631
v 3.24065 4.47448 -0.46778
v 3.25077 4.47691 -0.43868
v 3.27074 4.53861 -0.56518
v 3.23432 4.45964 -0.54853
v 3.11089 4.32354 -0.59677
v 3.21868 4.82432 -0.57091
v 3.23432 4.45964 -0.54853
v 3.20925 4.53749 -0.56224
v 3.25077 4.47691 -0.43868
v 3.25077 4.47691 -0.43868
v 3.24065 4.47448 -0.46778
v 3.26031 4.48087 -0.48102
v 3.20636 4.52532 -0.62842
v 3.19613 4.47203 -0.55502
v 3.20925 4.53749 -0.56224
v 3.16439 4.43534 -0.62832
v 2.93009 4.42126 -0.54651
v 3.16560 4.67650 -0.65288
v 3.20636 4.52532 -0.62842
v 3.20925 4.53749 -0.56224
v 3.19201 4.58400 -0.57097
v 3.19606 4.57478 -0.60453
v 3.20561 4.57278 -0.63290
v 3.26443 4.84963 -0.58325
v 3.24612 4.71115 -0.66301
v 3.16560 4.67650 -0.65288
v 3.16439 4.43534 -0.62832
v 3.08605 4.53174 -0.55066
v 3.21868 4.82432 -0.57091
v 3.19613 4.47203 -0.55502
v 3.16074 4.65949 -0.63997
v 3.18729 4.77819 -0.57897
v 3.19201 4.58400 -0.57097
v 3.20561 4.57278 -0.63290
v 3.16074 4.65949 -0.63997
v 3.16560 4.67650 -0.65288
v 3.16560 4.67650 -0.65288
v 3.16074 4.65949 -0.63997
v 3.18729 4.77819 -0.57897
v 3.15833 4.45905 -0.57957
v 3.21868 4.82432 -0.57091
v 3.18729 4.77819 -0.57897
v 3.08736 4.73334 -0.56905
v 3.11813 4.37448 -0.56452
v 3.08584 4.48939 -0.58030
v 3.15833 4.45905 -0.57957
v 3.08584 4.48939 -0.58030
v 3.08605 4.53174 -0.55066
v 3.08428 4.52084 -0.59885
v 3.16074 4.65949 -0.63997
v 3.19606 4.57478 -0.60453
v 3.16439 4.43534 -0.62832
v 3.11813 4.37448 -0.56452
v 3.15833 4.45905 -0.57957
v 3.16074 4.65949 -0.63997
v 3.11089 4.32354 -0.59677
v 3.19201 4.58400 -0.57097
v 3.08605 4.53174 -0.55066
v 3.19606 4.57478 -0.60453
v 3.08736 4.73334 -0.56905
v 3.08428 4.52084 -0.59885
v 3.11346 4.38069 -0.53853
v 3.11346 4.38069 -0.53853
v 3.11089 4.32354 -0.59677
v 2.93009 4.42126 -0.54651
v 3.07116 4.44308 -0.56004
v 3.06872 4.51077 -0.56113
v 3.06872 4.51077 -0.56113
v 3.11813 4.37448 -0.56452
v 3.11346 4.38069 -0.53853
v 3.07116 4.44308 -0.56004
v 2.93009 4.42126 -0.54651
v 2.92612 4.44142 -0.54726
v 3.11346 4.38069 -0.53853
v 2.98244 4.47448 -0.55179
v 3.07116 4.44308 -0.56004
v 3.06872 4.51077 -0.56113
v 3.06872 4.51077 -0.56113
v 2.89691 4.49823 -0.63539
v 2.98244 4.47448 -0.55179
v 2.92458 4.43848 -0.60047
v 2.89691 4.49823 -0.63539
v 2.92458 4.43848 -0.60047
v 2.92612 4.44142 -0.54726
v 2.93009 4.42126 -0.54651
v 2.93150 4.39954 -0.62159
v 2.92458 4.43848 -0.60047
v 2.81940 4.23943 -0.52413
v 2.92612 4.44142 -0.54726
v 2.88422 4.53831 -0.60275
v 2.89022 4.49789 -0.66088
v 2.89691 4.49823 -0.63539
v 2.80711 4.55124 -0.56185
v 2.88422 4.53831 -0.60275
v 2.80999 3.29292 -0.27188
v 2.89022 4.49789 -0.66088
v 2.93150 4.39954 -0.62159
v 2.76389 4.40405 -0.65146
v 2.89022 4.49789 -0.66088
v 2.93009 4.42126 -0.54651
v 2.78473 4.32354 -0.54200
v 2.93150 4.39954 -0.62159
v 2.78473 4.32354 -0.54200
v 2.78257 4.30653 -0.60805
v 2.78257 4.30653 -0.60805
v 2.78473 4.32354 -0.54200
v 2.81940 4.23943 -0.52413
v 2.78257 4.30653 -0.60805
v 2.75660 4.32108 -0.69701
v 2.80757 4.21035 -0.68385
v 2.37375 3.49256 -0.39920
v 2.80757 4.21035 -0.68385
v 2.81940 4.23943 -0.52413
v 2.64786 4.15829 -0.52839
v 2.69633 3.17240 -0.25374
v 2.78571 3.05355 -0.19845
v 2.61409 3.27326 -0.30154
v 2.69633 3.17240 -0.25374
v 2.78571 3.05355 -0.19845
v 2.62882 3.24564 -0.37321
v 2.61409 3.27326 -0.30154
v 4.07965 3.52254 -0.35962
v 4.08761 3.69250 -0.50517
v 3.80847 3.89268 -0.48613
v 4.07965 3.52254 -0.35962
v 3.98308 3.63245 -0.33642
v 3.64933 4.01110 -0.44524
v 4.23788 3.37098 -0.26574
v 4.21701 3.30599 -0.37948
v 4.22362 3.31636 -0.38982
v 4.18545 3.56473 -0.30480
v 4.23788 3.37098 -0.26574
v 4.22362 3.31636 -0.38982
v 4.18545 3.56473 -0.30480
v 4.16426 3.43477 -0.25063
v 4.23788 3.37098 -0.26574
v 4.22362 3.31636 -0.38982
v 4.21701 3.30599 -0.37948
v 4.17206 3.33224 -0.37928
v 4.21701 3.30599 -0.37948
v 4.23788 3.37098 -0.26574
v 4.17206 3.33224 -0.37928
v 4.16004 3.53264 -0.46014
v 4.11920 3.47318 -0.42200
v 4.16004 3.53264 -0.46014
v 4.16426 3.43477 -0.25063
v 4.13652 3.52798 -0.27166
v 4.17206 3.33224 -0.37928
v 4.16426 3.43477 -0.25063
v 4.13652 3.52798 -0.27166
v 4.11920 3.47318 -0.42200
v 4.12781 3.49020 -0.32859
v 4.13652 3.52798 -0.27166
v 4.17245 3.59383 -0.25812
v 4.10438 3.53480 -0.21580
v 4.12781 3.49020 -0.32859
v 4.11920 3.47318 -0.42200
v 4.12781 3.49020 -0.32859
v 4.07594 3.43641 -0.46347
v 4.10438 3.53480 -0.21580
v 4.09119 3.48144 -0.34529
v 4.12781 3.49020 -0.32859
v 4.07594 3.43641 -0.46347
v 4.07965 3.52254 -0.35962
v 4.09119 3.48144 -0.34529
v 4.10438 3.53480 -0.21580
v 4.07594 3.43641 -0.46347
v 4.04904 3.48368 -0.47089
v 3.85078 3.30855 -0.19520
v 3.99163 3.66082 -0.29082
v 3.85841 3.33024 -0.11350
v 3.84205 3.02288 -0.06892
v 3.85078 3.30855 -0.19520
v 3.85356 3.29625 -0.10062
v 3.84587 2.45841 0.20031
v 3.82131 3.33251 -0.11093
v 3.77766 2.52627 0.22376
v 3.84587 2.45841 0.20031
v 3.77766 2.52627 0.22376
v 3.84972 2.47171 0.21393
v 3.84587 2.45841 0.20031
v 3.85078 3.30855 -0.19520
v 3.85841 3.33024 -0.11350
v 3.82131 3.33251 -0.11093
v 3.85356 3.29625 -0.10062
v 3.85078 3.30855 -0.19520
v 3.82131 3.33251 -0.11093
v 3.85356 3.29625 -0.10062
v 3.84205 3.02288 -0.06892
v 3.79240 3.11333 -0.12785
v 3.85078 3.30855 -0.19520
v 3.84587 2.45841 0.20031
v 3.69603 2.47564 0.16703
v 3.84587 2.45841 0.20031
v 3.84972 2.47171 0.21393
v 3.77766 2.52627 0.22376
v 3.67924 2.51845 0.18470
v 3.65147 2.54488 0.16046
v 3.77766 2.52627 0.22376
v 3.82131 3.33251 -0.11093
v 3.64933 4.01110 -0.44524
v 3.51177 2.72467 0.00119
v 3.67924 2.51845 0.18470
v 3.63486 2.57097 0.07930
v 3.69603 2.47564 0.16703
v 3.68334 1.86345 0.42552
v 3.69617 1.66348 0.53710
v 3.65329 1.77435 0.29448
v 3.66662 1.64176 0.40094
v 3.63259 1.67848 0.53671
v 3.69617 1.66348 0.53710
v 3.68334 1.86345 0.42552
v 3.69603 2.47564 0.16703
v 3.67924 2.51845 0.18470
v 3.65147 2.54488 0.16046
v 3.66662 1.64176 0.40094
v 3.69617 1.66348 0.53710
v 3.58596 1.65542 0.41149
v 3.63120 1.86984 0.45042
v 3.58735 1.84403 0.46308
v 3.68334 1.86345 0.42552
v 3.63486 2.57097 0.07930
v 3.63259 1.67848 0.53671
v 3.66662 1.64176 0.40094
v 3.58596 1.65542 0.41149
v 3.59174 1.77265 0.30264
v 3.65329 1.77435 0.29448
v 3.62441 1.87825 0.31043
v 3.62423 1.93753 0.36456
v 3.65147 2.54488 0.16046
v 3.63715 2.36998 0.21855
v 3.63252 2.22037 0.17107
v 3.61116 1.96993 0.39686
v 3.63486 2.57097 0.07930
v 3.62359 2.11421 0.31152
v 3.62423 1.93753 0.36456
v 3.62441 1.87825 0.31043
v 3.58735 1.84403 0.46308
v 3.63120 1.86984 0.45042
v 3.62789 1.90626 0.52422
v 3.58735 1.84403 0.46308
v 3.61116 1.96993 0.39686
v 3.63120 1.86984 0.45042
v 3.68334 1.86345 0.42552
v 3.58205 1.88870 0.53711
v 3.60313 1.86451 0.27270
v 3.58113 1.99509 0.35394
v 3.58113 1.99509 0.35394
v 3.62359 2.11421 0.31152
v 3.49392 2.16306 0.28871
v 3.63120 1.86984 0.45042
v 3.62789 1.90626 0.52422
v 3.62423 1.93753 0.36456
v 3.56156 2.05695 0.42795
v 3.56439 1.80399 0.40069
v 3.63259 1.67848 0.53671
v 3.58735 1.84403 0.46308
v 3.62441 1.87825 0.31043
v 3.44892 2.16751 0.18465
v 3.63252 2.22037 0.17107
v 3.60313 1.86451 0.27270
v 2.90095 3.46896 -0.20576
v 3.53768 1.76384 0.34735
v 3.58596 1.65542 0.41149
v 3.58205 1.88870 0.53711
v 3.62789 1.90626 0.52422
v 3.56156 2.05695 0.42795
v 3.53768 1.76384 0.34735
v 3.52810 2.04419 0.43681
v 3.56156 2.05695 0.42795
v 3.58113 1.99509 0.35394
v 3.56440 2.08487 0.42672
v 3.56439 1.80399 0.40069
v 3.56156 2.05695 0.42795
v 3.56440 2.08487 0.42672
v 3.52810 2.04419 0.43681
v 3.60313 1.86451 0.27270
v 3.59174 1.77265 0.30264
v 3.62441 1.87825 0.31043
v 3.49392 2.16306 0.28871
v 3.56440 2.08487 0.42672
v 3.58113 1.99509 0.35394
v 3.58205 1.88870 0.53711
v 3.54040 1.84797 0.41635
v 3.51975 1.82837 0.35209
v 3.59174 1.77265 0.30264
v 3.53768 1.76384 0.34735
v 3.56821 1.75312 0.26111
v 3.59174 1.77265 0.30264
v 3.56821 1.75312 0.26111
v 3.62441 1.87825 0.31043
v 3.51846 1.93822 0.19463
v 3.52057 1.73920 0.28391
v 3.63715 2.36998 0.21855
v 3.41008 2.28001 0.24327
v 3.56821 1.75312 0.26111
v 3.52057 1.73920 0.28391
v 3.47269 1.92405 0.21143
v 3.62441 1.87825 0.31043
v 3.51846 1.93822 0.19463
v 3.51438 1.93962 0.15393
v 3.62441 1.87825 0.31043
v 3.51438 1.93962 0.15393
v 3.45733 2.09097 0.10834
v 3.44892 2.16751 0.18465
v 3.52810 2.04419 0.43681
v 3.48349 1.99084 0.37513
v 3.52057 1.73920 0.28391
v 3.54040 1.84797 0.41635
v 3.50443 1.84189 0.41410
v 3.51975 1.82837 0.35209
v 3.43304 2.29354 0.32498
v 3.47102 1.95741 0.28649
v 3.49676 1.82558 0.35465
v 3.48349 1.99084 0.37513
v 3.50443 1.84189 0.41410
v 3.54040 1.84797 0.41635
v 3.51846 1.93822 0.19463
v 3.44731 2.02293 0.47258
v 3.49676 1.82558 0.35465
v 3.47102 1.95741 0.28649
v 3.51975 1.82837 0.35209
v 3.46857 1.90243 0.31639
v 3.51846 1.93822 0.19463
v 3.47269 1.92405 0.21143
v 3.51438 1.93962 0.15393
v 3.49676 1.82558 0.35465
v 3.50443 1.84189 0.41410
v 3.46857 1.90243 0.31639
v 3.39620 2.26971 0.14531
v 3.47269 1.92405 0.21143
v 3.44731 2.02293 0.47258
v 3.48349 1.99084 0.37513
v 3.52810 2.04419 0.43681
v 3.46302 1.92938 0.38321
v 3.46302 1.92938 0.38321
v 3.43838 1.97575 0.37468
v 3.41004 1.89681 0.19187
v 3.43838 1.97575 0.37468
v 3.41008 2.28001 0.24327
v 3.44731 2.02293 0.47258
v 3.56440 2.08487 0.42672
v 3.43304 2.29354 0.32498
v 3.40478 1.91729 0.37243
v 3.47102 1.95741 0.28649
v 3.41610 1.94046 0.28641
v 3.46857 1.90243 0.31639
v 3.46302 1.92938 0.38321
v 3.40478 1.91729 0.37243
v 3.38933 1.89277 0.30622
v 3.29853 2.39751 0.08860
v 3.40326 2.20579 0.06436
v 3.41610 1.94046 0.28641
v 3.38933 1.89277 0.30622
v 3.35800 2.17464 0.08735
v 3.40326 2.20579 0.06436
v 3.45733 2.09097 0.10834
v 3.44731 2.02293 0.47258
v 3.38598 2.05842 0.33704
v 3.43838 1.97575 0.37468
v 3.39937 2.27627 0.27099
v 3.43304 2.29354 0.32498
v 3.41008 2.28001 0.24327
v 3.41008 2.28001 0.24327
v 3.40321 2.30642 0.30798
v 3.39937 2.27627 0.27099
v 3.51438 1.93962 0.15393
v 3.41004 1.89681 0.19187
v 3.32142 2.23421 0.35870
v 3.39620 2.26971 0.14531
v 3.31308 2.13987 0.10287
v 3.38598 2.05842 0.33704
v 3.34523 2.05276 0.32143
v 3.36953 2.29174 0.33787
v 3.35102 2.24406 0.24746
v 3.35102 2.24406 0.24746
v 3.33319 2.03569 0.25063
v 3.33003 2.05814 0.14347
v 3.38933 1.89277 0.30622
v 3.40478 1.91729 0.37243
v 3.34523 2.05276 0.32143
v 3.41610 1.94046 0.28641
v 3.33530 2.09785 0.22671
v 3.41004 1.89681 0.19187
v 3.33530 2.09785 0.22671
v 3.32142 2.23421 0.35870
v 3.40326 2.20579 0.06436
v 3.35800 2.17464 0.08735
v 3.26444 2.12040 0.07129
v 3.35800 2.17464 0.08735
v 3.29822 2.16316 0.18709
v 3.36028 2.21233 0.17975
v 3.32142 2.23421 0.35870
v 3.30505 2.19885 0.27295
v 3.29853 2.39751 0.08860
v 3.33319 2.03569 0.25063
v 3.27501 2.46713 0.16298
v 3.29822 2.16316 0.18709
v 3.33003 2.05814 0.14347
v 3.34523 2.05276 0.32143
v 3.38598 2.05842 0.33704
v 3.28571 2.05364 0.31225
v 3.31308 2.13987 0.10287
v 3.36028 2.21233 0.17975
v 3.29822 2.16316 0.18709
v 3.26012 2.17294 0.18166
v 3.33319 2.03569 0.25063
v 3.27540 2.02508 0.25259
v 3.27501 2.46713 0.16298
v 3.40321 2.30642 0.30798
v 3.41008 2.28001 0.24327
v 3.30505 2.19885 0.27295
v 3.25983 2.21058 0.26304
v 3.27540 2.02508 0.25259
v 3.23449 2.12750 0.20293
v 3.38598 2.05842 0.33704
v 3.30505 2.19885 0.27295
v 3.25113 2.16292 0.27071
v 3.31308 2.13987 0.10287
v 2.95574 3.42545 -0.28112
v 3.26255 2.25482 0.36246
v 3.35800 2.17464 0.08735
v 3.36028 2.21233 0.17975
v 3.26012 2.17294 0.18166
v 3.23046 2.49864 0.04591
v 3.26444 2.12040 0.07129
v 3.23046 2.49864 0.04591
v 3.14120 2.63110 -0.00850
v 2.80999 3.29292 -0.27188
v 3.28571 2.05364 0.31225
v 3.35102 2.24406 0.24746
v 3.25983 2.21058 0.26304
v 3.26255 2.25482 0.36246
v 3.36953 2.29174 0.33787
v 3.17403 2.36709 0.30518
v 3.40321 2.30642 0.30798
v 3.28571 2.05364 0.31225
v 3.25113 2.16292 0.27071
v 3.27540 2.02508 0.25259
v 3.25421 2.41737 -0.02894
v 3.19895 2.59098 0.18849
v 3.23449 2.12750 0.20293
v 3.40326 2.20579 0.06436
v 3.26444 2.12040 0.07129
v 3.25421 2.41737 -0.02894
v 3.25113 2.16292 0.27071
v 3.15388 2.14746 0.25256
v 3.23449 2.12750 0.20293
v 3.11358 2.70121 0.06489
v 3.08491 2.22478 0.13283
v 3.14120 2.63110 -0.00850
v 3.17403 2.36709 0.30518
v 3.25983 2.21058 0.26304
v 3.26255 2.25482 0.36246
v 3.15388 2.14746 0.25256
v 3.26444 2.12040 0.07129
v 3.26012 2.17294 0.18166
v 3.12018 2.36020 0.08441
v 3.12836 2.11278 0.18610
v 3.10952 2.40831 0.16661
v 3.12836 2.11278 0.18610
v 3.11358 2.70121 0.06489
v 3.10952 2.40831 0.16661
v 3.12018 2.36020 0.08441
v 2.96796 2.65230 0.15557
v 3.19895 2.59098 0.18849
v 3.07340 2.51188 0.23348
v 2.99701 2.79697 -0.18595
v 3.07840 2.39811 -0.02524
v 2.98803 2.84792 -0.09823
v 3.07340 2.51188 0.23348
v 3.12836 2.11278 0.18610
v 3.15388 2.14746 0.25256
v 3.09199 2.23741 0.17557
v 3.07840 2.39811 -0.02524
v 3.00706 2.50546 -0.06279
v 3.08491 2.22478 0.13283
v 3.08485 2.25711 0.17904
v 2.99701 2.79697 -0.18595
v 3.09199 2.23741 0.17557
v 3.08485 2.25711 0.17904
v 2.91380 2.20374 0.14567
v 3.03902 2.47811 0.03189
v 3.00706 2.50546 -0.06279
v 2.98803 2.84792 -0.09823
v 3.03902 2.47811 0.03189
v 3.08491 2.22478 0.13283
v 3.09199 2.23741 0.17557
v 2.91380 2.20374 0.14567
v 2.95199 2.83729 -0.10054
v 2.98803 2.84792 -0.09823
v 2.99701 2.79697 -0.18595
v 2.90975 2.69751 0.04321
v 2.95188 2.82027 -0.13509
v 2.89728 2.67979 -0.12671
v 2.84963 2.75216 -0.14278
v 2.84963 2.75216 -0.14278
v 2.89666 2.69277 -0.07108
v 2.95188 2.82027 -0.13509
v 2.87747 2.78838 -0.14691
v 2.94361 2.82381 -0.16069
v 2.89728 2.67979 -0.12671
v 2.95188 2.82027 -0.13509
v 2.84963 2.75216 -0.14278
v 2.87747 2.78838 -0.14691
v 2.95188 2.82027 -0.13509
v 2.94361 2.82381 -0.16069
v 2.83347 2.97975 -0.23343
v 2.78111 2.76513 -0.17324
v 2.95199 2.83729 -0.10054
v 2.95199 2.83729 -0.10054
v 2.78571 3.05355 -0.19845
v 2.78571 3.05355 -0.19845
v 2.85167 2.77247 -0.10796
v 2.87747 2.78838 -0.14691
v 2.85856 2.79488 -0.11741
v 2.78111 2.76513 -0.17324
v 2.84963 2.75216 -0.14278
v 2.87747 2.78838 -0.14691
v 2.84963 2.75216 -0.14278
v 2.85856 2.79488 -0.11741
v 2.85167 2.77247 -0.10796
v 2.89666 2.69277 -0.07108
v 2.77466 2.77386 -0.12189
v 2.60530 2.36931 -0.01196
v 2.78111 2.76513 -0.17324
v 2.83347 2.97975 -0.23343
v 2.94361 2.82381 -0.16069
v 2.85167 2.77247 -0.10796
v 2.85856 2.79488 -0.11741
v 2.84963 2.75216 -0.14278
v 2.85856 2.79488 -0.11741
v 2.77466 2.77386 -0.12189
v 2.77466 2.77386 -0.12189
v 2.68470 2.89304 -0.17301
v 2.78111 2.76513 -0.17324
v 2.62882 3.24564 -0.37321
v 2.62882 3.24564 -0.37321
v 2.68470 2.89304 -0.17301
v 2.60377 2.99924 -0.21977
v 2.60377 2.99924 -0.21977
v 2.56268 3.05632 -0.31590
v 2.56268 3.05632 -0.31590
v 2.46483 3.17948 -0.30403
v 4.09119 3.48144 -0.34529
v 3.19414 4.00255 -0.35747
v 4.04742 4.78816 -0.56484
v 4.13444 4.72629 -0.38994
v 4.00894 4.69594 -0.53667
v 4.02987 4.76463 -0.39778
v 3.88934 4.70923 -0.56659
v 3.70223 4.86735 -0.40465
v 3.67694 4.79281 -0.56984
v 3.57510 4.82917 -0.40171
v 3.49497 4.72720 -0.57522
v 3.46882 4.75730 -0.39224
v 3.50068 4.68689 -0.59894
v 3.39820 4.67292 -0.48969
v 3.39367 4.64000 -0.59945
v 3.37687 4.62755 -0.47540
v 3.37006 4.61018 -0.56974
v 3.34134 4.62513 -0.46970
v 3.28434 4.54921 -0.45631
v 3.20916 4.58720 -0.45238
v 3.25077 4.47691 -0.43868
v 3.13687 4.51982 -0.37523
v 3.55579 4.33853 -0.31778
v 3.33161 4.28723 -0.32885
v 3.44098 4.22343 -0.40292
v 2.87450 4.41970 -0.46269
v 3.43424 4.17006 -0.38711
v 2.90095 3.46896 -0.20576
v 3.63715 2.36998 0.21855
v 3.11358 2.70121 0.06489
v 3.19895 2.59098 0.18849
v 2.96796 2.65230 0.15557
v 3.40321 2.30642 0.30798
v 3.07340 2.51188 0.23348
v 3.10952 2.40831 0.16661
v 2.90975 2.69751 0.04321
v 3.08485 2.25711 0.17904
v 2.91380 2.20374 0.14567
v 3.08491 2.22478 0.13283
v 3.03902 2.47811 0.03189
v 2.77466 2.77386 -0.12189
v 2.60530 2.36931 -0.01196
v 2.60377 2.99924 -0.21977
v 2.46483 3.17948 -0.30403
v 2.46647 3.18788 -0.35383
v 2.44617 3.22031 -0.32182
v 2.53909 3.24167 -0.38564
v 2.38657 3.18586 -0.40726
v 2.54793 3.25831 -0.37686
v 2.37375 3.49256 -0.39920
v 2.81940 4.23943 -0.52413
v 2.64786 4.15829 -0.52839
v 2.80757 4.21035 -0.68385
v 2.75660 4.32108 -0.69701
v 2.78257 4.30653 -0.60805
v 2.76389 4.40405 -0.65146
v 2.89022 4.49789 -0.66088
v 2.80711 4.55124 -0.56185
v 3.08736 4.73334 -0.56905
v 3.29068 4.87501 -0.47167
v 3.26443 4.84963 -0.58325
v 3.32251 4.88103 -0.55823
v 3.30842 4.76663 -0.64156
v 3.32905 4.89546 -0.57062
v 3.39588 4.89250 -0.58805
v 3.36186 4.91804 -0.48840
v 3.69378 4.93779 -0.58977
v 3.70107 5.00000 -0.45612
v 3.69824 4.91907 -0.60248
v 3.90052 4.94352 -0.40893
vt 0.89647 0.97172
vt 0.89244 0.97190
vt 0.89244 0.96682
vt 0.03818 0.00617
vt 0.03818 0.02826
vt 0.03467 0.02627
vt 0.89723 0.96988
vt 0.00857 0.37342
vt 0.01108 0.37459
vt 0.00666 0.37397
vt 0.01180 0.37344
vt 0.97153 0.81922
vt 0.96281 0.81252
vt 0.97286 0.81457
vt 0.95732 0.76946
vt 0.94935 0.75849
vt 0.96034 0.75884
vt 0.97474 0.20880
vt 0.97570 0.20193
vt 0.97795 0.20904
vt 0.90361 0.96833
vt 0.90396 0.97156
vt 0.97233 0.81781
vt 0.90349 0.96672
vt 0.67860 0.26810
vt 0.67954 0.24772
vt 0.68353 0.24972
vt 0.30061 0.00403
vt 0.31122 0.00495
vt 0.29956 0.00487
vt 0.16133 0.99319
vt 0.16263 0.99504
vt 0.16122 0.99783
vt 0.67510 0.00310
vt 0.67271 0.00548
vt 0.67289 0.00001
vt 0.99921 0.94211
vt 0.99765 0.93941
vt 0.99936 0.93663
vt 0.58733 0.99884
vt 0.58733 0.99517
vt 0.58931 0.99775
vt 0.96351 0.58183
vt 0.96231 0.57735
vt 0.97190 0.57776
vt 0.97363 0.58106
vt 0.76481 0.00162
vt 0.76113 0.00430
vt 0.76176 0.00019
vt 0.97481 0.57747
vt 0.03206 0.55306
vt 0.02947 0.56897
vt 0.02851 0.55401
vt 0.01589 0.16764
vt 0.02243 0.16642
vt 0.01833 0.17055
vt 0.08059 0.09260
vt 0.08282 0.09313
vt 0.07990 0.09361
vt 0.07512 0.08690
vt 0.00410 0.59901
vt 0.00368 0.59416
vt 0.00703 0.59908
vt 0.02426 0.17099
vt 0.67730 0.98039
vt 0.66830 0.97868
vt 0.67232 0.96921
vt 0.79374 0.99276
vt 0.79374 0.99726
vt 0.79259 0.99679
vt 0.04207 0.55141
vt 0.00971 0.90791
vt 0.01574 0.91544
vt 0.01129 0.91479
vt 0.00730 0.59203
vt 0.03402 0.56645
vt 0.01021 0.59021
vt 0.01101 0.58108
vt 0.01824 0.59024
vt 0.15384 0.88359
vt 0.15726 0.87388
vt 0.15603 0.88340
vt 0.05882 0.08777
vt 0.07220 0.99836
vt 0.06502 0.99836
vt 0.06529 0.99715
vt 0.04195 0.55932
vt 0.45297 0.99683
vt 0.44523 0.99683
vt 0.44615 0.99519
vt 0.98608 0.49657
vt 0.99546 0.49962
vt 0.98690 0.50143
vt 0.04175 0.57041
vt 0.01297 0.90822
vt 0.53268 0.95065
vt 0.52309 0.95093
vt 0.52997 0.94678
vt 0.02276 0.14145
vt 0.08696 0.49642
vt 0.08143 0.49090
vt 0.08817 0.49524
vt 0.09637 0.48716
vt 0.01569 0.15265
vt 0.23853 0.61896
vt 0.83946 0.70501
vt 0.85211 0.69555
vt 0.08907 0.48278
vt 0.49210 0.70097
vt 0.50101 0.70203
vt 0.97663 0.35075
vt 0.97745 0.34145
vt 0.97746 0.35366
vt 0.06845 0.09860
vt 0.07832 0.09873
vt 0.15754 0.88882
vt 0.50506 0.69495
vt 0.53729 0.94743
vt 0.97777 0.03716
vt 0.97777 0.02911
vt 0.98081 0.03720
vt 0.97937 0.02999
vt 0.50168 0.70750
vt 0.40210 0.85431
vt 0.40436 0.86764
vt 0.39832 0.86593
vt 0.55892 0.99353
vt 0.55984 0.99429
vt 0.55896 0.99699
vt 0.83851 0.69511
vt 0.50950 0.69409
vt 0.15681 0.89308
vt 0.09240 0.48247
vt 0.03397 0.58432
vt 0.97917 0.02567
vt 0.89017 0.10727
vt 0.88391 0.10684
vt 0.88491 0.10118
vt 0.82745 0.28189
vt 0.82745 0.25853
vt 0.83124 0.28043
vt 0.03386 0.58218
vt 0.85502 0.90676
vt 0.87070 0.90813
vt 0.85285 0.90911
vt 0.04235 0.58173
vt 0.11617 0.47464
vt 0.04842 0.09079
vt 0.94022 0.98871
vt 0.94900 0.98871
vt 0.94126 0.99033
vt 0.80452 0.42077
vt 0.80626 0.44568
vt 0.80452 0.43447
vt 0.03009 0.58222
vt 0.22767 0.61632
vt 0.84131 0.68271
vt 0.98675 0.48519
vt 0.98440 0.48959
vt 0.98363 0.48591
vt 0.98730 0.49284
vt 0.51390 0.68668
vt 0.42104 0.86223
vt 0.97925 0.49535
vt 0.35330 0.29329
vt 0.37594 0.28605
vt 0.38358 0.29425
vt 0.01566 0.13939
vt 0.97827 0.49373
vt 0.80496 0.44600
vt 0.56852 0.63472
vt 0.59363 0.62333
vt 0.59647 0.62333
vt 0.51538 0.68884
vt 0.02190 0.07393
vt 0.01906 0.07631
vt 0.02556 0.06175
vt 0.61462 0.63615
vt 0.72755 0.23562
vt 0.72719 0.22560
vt 0.73548 0.22707
vt 0.83109 0.32994
vt 0.82918 0.33010
vt 0.83086 0.31452
vt 0.49556 0.96786
vt 0.49270 0.95718
vt 0.49632 0.95579
vt 0.38864 0.29985
vt 0.81925 0.18599
vt 0.81181 0.19155
vt 0.81161 0.18532
vt 0.37318 0.79830
vt 0.37181 0.79052
vt 0.39665 0.79758
vt 0.87162 0.10695
vt 0.87092 0.10081
vt 0.99727 0.29484
vt 0.99352 0.29362
vt 0.99750 0.29198
vt 0.79273 0.99917
vt 0.79389 0.99984
vt 0.78994 0.99977
vt 0.81885 0.20140
vt 0.74316 0.69306
vt 0.74689 0.69091
vt 0.74425 0.70010
vt 0.35132 0.80405
vt 0.35726 0.80418
vt 0.35693 0.80805
vt 0.74878 0.69075
vt 0.39149 0.29962
vt 0.39516 0.30572
vt 0.22456 0.62742
vt 0.41576 0.87224
vt 0.39496 0.79072
vt 0.73599 0.23328
vt 0.35325 0.29552
vt 0.20639 0.62459
vt 0.74885 0.70078
vt 0.94486 0.98669
vt 0.95484 0.98669
vt 0.95364 0.98736
vt 0.02169 0.06257
vt 0.78948 0.94769
vt 0.79137 0.95845
vt 0.78946 0.95900
vt 0.87031 0.10545
vt 0.34587 0.80822
vt 0.82909 0.30662
vt 0.80786 0.23267
vt 0.82736 0.23977
vt 0.98908 0.16326
vt 0.99495 0.16903
vt 0.98918 0.17307
vt 0.99359 0.16450
vt 0.02100 0.05278
vt 0.81174 0.20914
vt 0.02685 0.06128
vt 0.73639 0.25086
vt 0.98356 0.68895
vt 0.98898 0.67832
vt 0.98426 0.67849
vt 0.73140 0.25140
vt 0.92516 0.08674
vt 0.92266 0.07743
vt 0.92860 0.08589
vt 0.41967 0.97279
vt 0.43011 0.97370
vt 0.41819 0.97382
vt 0.65076 0.00458
vt 0.65198 0.01151
vt 0.65041 0.01239
vt 0.74871 0.71893
vt 0.74497 0.71842
vt 0.92461 0.07588
vt 0.92662 0.07910
vt 0.00605 0.75498
vt 0.00692 0.75001
vt 0.00664 0.75847
vt 0.20847 0.63073
vt 0.82013 0.20939
vt 0.48977 0.27906
vt 0.43722 0.29324
vt 0.92564 0.06945
vt 0.92863 0.07096
vt 0.20867 0.63517
vt 0.99107 0.12092
vt 0.99397 0.12259
vt 0.98636 0.12243
vt 0.72782 0.25378
vt 0.20630 0.63358
vt 0.97092 0.10891
vt 0.97330 0.12163
vt 0.96724 0.12025
vt 0.32528 0.98407
vt 0.33310 0.98407
vt 0.32408 0.99048
vt 0.98606 0.12116
vt 0.82583 0.23348
vt 0.01856 0.04674
vt 0.24360 0.00552
vt 0.25372 0.00552
vt 0.24496 0.01507
vt 0.85694 0.46616
vt 0.85927 0.46531
vt 0.85790 0.47230
vt 0.33285 0.80467
vt 0.57402 0.74627
vt 0.58021 0.74572
vt 0.57393 0.75278
vt 0.11261 0.72997
vt 0.11167 0.73838
vt 0.10193 0.73838
vt 0.90524 0.40732
vt 0.91712 0.41302
vt 0.91440 0.41373
vt 0.61723 0.11434
vt 0.60749 0.11436
vt 0.61080 0.11262
vt 0.02203 0.04395
vt 0.73047 0.25444
vt 0.74822 0.17315
vt 0.74696 0.17282
vt 0.74871 0.17002
vt 0.70661 0.95414
vt 0.71610 0.95274
vt 0.70876 0.95595
vt 0.33179 0.99015
vt 0.22000 0.95281
vt 0.21312 0.94704
vt 0.74053 0.59848
vt 0.73303 0.59980
vt 0.74102 0.58861
vt 0.12498 0.98592
vt 0.12559 0.97897
vt 0.13458 0.98584
vt 0.59632 0.10902
vt 0.61111 0.10951
vt 0.71630 0.95434
vt 0.86680 0.93846
vt 0.86834 0.93579
vt 0.88170 0.93764
vt 0.74733 0.16294
vt 0.00064 0.88436
vt 0.00484 0.88380
vt 0.00484 0.88715
vt 0.26603 0.01543
vt 0.72054 0.95571
vt 0.35982 0.35097
vt 0.75294 0.16968
vt 0.00107 0.88705
vt 0.62257 0.10973
vt 0.21326 0.95401
vt 0.40688 0.24181
vt 0.41632 0.23398
vt 0.85962 0.48639
vt 0.10250 0.72981
vt 0.60650 0.99744
vt 0.60959 0.99059
vt 0.60916 0.99631
vt 0.13500 0.97815
vt 0.53717 0.87803
vt 0.99106 0.93339
vt 0.99699 0.93545
vt 0.00442 0.36883
vt 0.00301 0.37067
vt 0.00154 0.36891
vt 0.40465 0.32141
vt 0.40799 0.32118
vt 0.41847 0.35559
vt 0.00495 0.37069
vt 0.03426 0.99188
vt 0.03936 0.98551
vt 0.03910 0.98963
vt 0.99054 0.93525
vt 0.00421 0.69005
vt 0.00449 0.68777
vt 0.01076 0.68769
vt 0.63469 0.11453
vt 0.03050 0.98516
vt 0.21256 0.00364
vt 0.20570 0.00485
vt 0.20311 0.00382
vt 0.60139 0.75204
vt 0.99732 0.30887
vt 0.99281 0.30887
vt 0.99734 0.30241
vt 0.98988 0.54114
vt 0.98830 0.54225
vt 0.98840 0.53847
vt 0.99268 0.30289
vt 0.00272 0.79920
vt 0.00324 0.79325
vt 0.00526 0.79970
vt 0.99312 0.96097
vt 0.99312 0.95120
vt 0.99541 0.95938
vt 0.13966 0.92791
vt 0.14467 0.92436
vt 0.14222 0.92836
vt 0.48132 0.97416
vt 0.48479 0.98159
vt 0.48128 0.98393
vt 0.94869 0.22939
vt 0.94898 0.23747
vt 0.94565 0.22914
vt 0.48169 0.94685
vt 0.49585 0.94685
vt 0.48778 0.94836
vt 0.00508 0.79312
vt 0.53265 0.87783
vt 0.53159 0.87934
vt 0.81406 0.98863
vt 0.81363 0.98061
vt 0.81683 0.98927
vt 0.08614 0.29755
vt 0.07947 0.29538
vt 0.94074 0.24242
vt 0.53185 0.88437
vt 0.26738 0.01114
vt 0.80642 0.98426
vt 0.38955 0.25571
vt 0.85846 0.48728
vt 0.00160 0.15113
vt 0.00251 0.14869
vt 0.00647 0.15098
vt 0.59520 0.74580
vt 0.59455 0.74753
vt 0.00689 0.14441
vt 0.00160 0.14428
vt 0.08449 0.73730
vt 0.08537 0.30067
vt 0.13645 0.93211
vt 0.13606 0.92717
vt 0.52672 0.87948
vt 0.00482 0.14370
vt 0.00297 0.14367
vt 0.00267 0.14223
vt 0.97918 0.53809
vt 0.13439 0.93081
vt 0.97925 0.54211
vt 0.27117 0.00586
vt 0.64669 0.11057
vt 0.80736 0.98945
vt 0.76121 0.98428
vt 0.76523 0.98421
vt 0.76523 0.98721
vt 0.76315 0.98699
vt 0.76137 0.98712
vt 0.96714 0.60140
vt 0.97674 0.60101
vt 0.97896 0.60578
vt 0.08505 0.72968
vt 0.12878 0.92586
vt 0.96849 0.60431
vt 0.26980 0.01092
vt 0.76258 0.99284
vt 0.97135 0.60608
vt 0.13574 0.92418
vt 0.91804 0.00246
vt 0.91221 0.00297
vt 0.91131 0.00203
vt 0.08360 0.00315
vt 0.08415 0.00433
vt 0.07603 0.00403
vt 0.27187 0.00904
vt 0.29304 0.26030
vt 0.29165 0.25723
vt 0.29279 0.25077
vt 0.00066 0.42599
vt 0.00611 0.42130
vt 0.00632 0.42599
vt 0.27652 0.00967
vt 0.27707 0.01271
vt 0.89924 0.79249
vt 0.89143 0.79835
vt 0.89182 0.79249
vt 0.99380 0.21006
vt 0.99411 0.20412
vt 0.99690 0.20905
vt 0.28539 0.25207
vt 0.99063 0.20311
vt 0.91243 0.87860
vt 0.91119 0.87155
vt 0.91452 0.87855
vt 0.08521 0.31021
vt 0.91411 0.87114
vt 0.99550 0.20329
vt 0.14318 0.95684
vt 0.13876 0.95890
vt 0.13937 0.94629
vt 0.00298 0.42159
vt 0.91189 0.86996
vt 0.27785 0.01115
vt 0.99203 0.25125
vt 0.99258 0.24973
vt 0.99700 0.25127
vt 0.99121 0.03610
vt 0.99243 0.03593
vt 0.98818 0.04691
vt 0.99424 0.03939
vt 0.99230 0.04469
vt 0.00633 0.41932
vt 0.99635 0.04460
vt 0.28589 0.23361
vt 0.91157 0.86435
vt 0.90997 0.79246
vt 0.90983 0.79691
vt 0.91466 0.86042
vt 0.91148 0.86044
vt 0.01488 0.08645
vt 0.01443 0.09109
vt 0.01270 0.08905
vt 0.39096 0.26885
vt 0.01373 0.08604
vt 0.28901 0.23426
vt 0.00764 0.09111
vt 0.00829 0.08968
vt 0.29298 0.23081
vt 0.00657 0.08700
vt 0.43519 0.29953
vt 0.28494 0.23305
vt 0.97323 0.48371
vt 0.97923 0.47550
vt 0.97991 0.48489
vt 0.06315 0.97487
vt 0.05269 0.97487
vt 0.06261 0.97024
vt 0.38674 0.26497
vt 0.97318 0.47319
vt 0.05212 0.97084
vt 0.99057 0.93670
vt 0.99608 0.93622
vt 0.99103 0.94075
vt 0.98912 0.94602
vt 0.99644 0.94593
vt 0.40600 0.32018
vt 0.98390 0.53733
vt 0.97418 0.53724
vt 0.97615 0.52608
vt 0.43282 0.30954
vt 0.43875 0.31318
vt 0.42700 0.30990
vt 0.90690 0.65961
vt 0.89789 0.65669
vt 0.91598 0.65766
vt 0.91477 0.66217
vt 0.08376 0.49013
vt 0.24879 0.62098
vt 0.23009 0.62609
vt 0.49383 0.71003
vt 0.50099 0.70646
vt 0.42703 0.23122
vt 0.51317 0.99722
vt 0.52054 0.99657
vt 0.52077 0.99744
vt 0.96702 0.15250
vt 0.96596 0.16386
vt 0.95839 0.16452
vt 0.97010 0.22223
vt 0.97729 0.21887
vt 0.98150 0.22240
vt 0.60949 0.95540
vt 0.60888 0.95475
vt 0.61093 0.95269
vt 0.99340 0.41556
vt 0.98625 0.41748
vt 0.99233 0.41286
vt 0.95813 0.15135
vt 0.61964 0.95214
vt 0.62266 0.95554
vt 0.98315 0.41294
vt 0.97174 0.21872
vt 0.29947 0.98363
vt 0.30864 0.98404
vt 0.31081 0.98915
vt 0.30222 0.99191
vt 0.30699 0.98956
vt 0.00445 0.89114
vt 0.00051 0.88955
vt 0.00577 0.88777
vt 0.00598 0.89466
vt 0.00889 0.04371
vt 0.00708 0.04871
vt 0.00734 0.04011
vt 0.69250 0.04542
vt 0.69268 0.05327
vt 0.69071 0.05208
vt 0.69302 0.06037
vt 0.78816 0.98610
vt 0.79068 0.98610
vt 0.79045 0.99394
vt 0.53121 0.99121
vt 0.52817 0.99158
vt 0.85691 0.19255
vt 0.85691 0.17072
vt 0.86165 0.19242
vt 0.21143 0.39475
vt 0.21075 0.37734
vt 0.21540 0.37991
vt 0.21391 0.42955
vt 0.21441 0.32554
vt 0.21402 0.37429
vt 0.20924 0.37706
vt 0.99859 0.05612
vt 0.99947 0.06112
vt 0.99853 0.06164
vt 0.00880 0.51051
vt 0.00430 0.51197
vt 0.00367 0.50999
vt 0.21246 0.32750
vt 0.98919 0.00014
vt 0.99435 0.00014
vt 0.99377 0.00285
vt 0.60928 0.46902
vt 0.60268 0.46841
vt 0.59467 0.45951
vt 0.63928 0.48682
vt 0.99484 0.09763
vt 0.98663 0.10022
vt 0.98604 0.09932
vt 0.98909 0.09526
vt 0.99500 0.09489
vt 0.44758 0.34222
vt 0.43987 0.34414
vt 0.44010 0.29539
vt 0.55348 0.44685
vt 0.61365 0.49383
vt 0.44579 0.34401
vt 0.62562 0.49290
vt 0.63360 0.49330
vt 0.70518 0.16413
vt 0.70423 0.15045
vt 0.71642 0.16082
vt 0.71404 0.15044
vt 0.96979 0.75346
vt 0.96627 0.75440
vt 0.96625 0.74161
vt 0.99676 0.65185
vt 0.99553 0.65431
vt 0.99301 0.65453
vt 0.01278 0.83177
vt 0.01278 0.83964
vt 0.00818 0.83152
vt 0.99775 0.90002
vt 0.99875 0.89727
vt 0.99870 0.90312
vt 0.98877 0.65218
vt 0.00919 0.83901
vt 0.93439 0.20099
vt 0.93375 0.19643
vt 0.94259 0.19519
vt 0.94358 0.19851
vt 0.71468 0.16753
vt 0.71124 0.17080
vt 0.46077 0.08033
vt 0.45046 0.08052
vt 0.44329 0.07549
vt 0.71021 0.17195
vt 0.46349 0.07632
vt 0.43528 0.08120
vt 0.42499 0.08104
vt 0.42274 0.07717
vt 0.97187 0.74325
vt 0.01428 0.79900
vt 0.01881 0.79979
vt 0.01387 0.80189
vt 0.84837 0.99779
vt 0.85420 0.99507
vt 0.85572 0.99794
vt 0.01865 0.80262
vt 0.71790 0.16690
vt 0.71152 0.17371
vt 0.45009 0.37488
vt 0.44803 0.36773
vt 0.45539 0.36505
vt 0.70456 0.17591
vt 0.70276 0.17990
vt 0.44750 0.37800
vt 0.70921 0.17914
vt 0.05034 0.53085
vt 0.06834 0.53171
vt 0.05343 0.53374
vt 0.65959 0.51528
vt 0.63948 0.51428
vt 0.64235 0.50399
vt 0.94799 0.19462
vt 0.49184 0.28866
vt 0.05204 0.52703
vt 0.06404 0.52602
vt 0.97510 0.46548
vt 0.97534 0.46266
vt 0.98598 0.46266
vt 0.93999 0.19223
vt 0.98582 0.46471
vt 0.43479 0.00180
vt 0.42938 0.00085
vt 0.43589 0.00069
vt 0.00963 0.80280
vt 0.17558 0.98466
vt 0.17422 0.98544
vt 0.17545 0.98261
vt 0.99644 0.34879
vt 0.99106 0.34813
vt 0.99697 0.34631
vt 0.88910 0.16141
vt 0.88119 0.16699
vt 0.87793 0.16135
vt 0.04424 0.54258
vt 0.04520 0.53320
vt 0.04635 0.52829
vt 0.99560 0.57484
vt 0.99581 0.57090
vt 0.99844 0.57531
vt 0.72376 0.96757
vt 0.72401 0.96471
vt 0.72860 0.97142
vt 0.73532 0.96490
vt 0.99941 0.57242
vt 0.44794 0.35253
vt 0.46038 0.35827
vt 0.37485 0.97281
vt 0.37432 0.96981
vt 0.38571 0.96982
vt 0.27659 0.00440
vt 0.28593 0.00358
vt 0.28778 0.00490
vt 0.32125 0.30700
vt 0.32811 0.31586
vt 0.32649 0.32509
vt 0.32079 0.32713
vt 0.04010 0.55030
vt 0.03845 0.54300
vt 0.05024 0.52266
vt 0.00122 0.85028
vt 0.00181 0.84833
vt 0.00512 0.84987
vt 0.89603 0.16594
vt 0.03911 0.51827
vt 0.00527 0.84858
vt 0.93363 0.25396
vt 0.94198 0.25163
vt 0.94250 0.25359
vt 0.38616 0.97261
vt 0.17449 0.97763
vt 0.47427 0.42349
vt 0.48098 0.41843
vt 0.47504 0.42454
vt 0.47781 0.41990
vt 0.00909 0.52779
vt 0.00630 0.52829
vt 0.00926 0.52552
vt 0.77767 0.00097
vt 0.77828 0.00438
vt 0.77264 0.00073
vt 0.63275 0.51354
vt 0.04009 0.51107
vt 0.36406 0.99252
vt 0.36055 0.99746
vt 0.35899 0.99252
vt 0.77262 0.00476
vt 0.93631 0.25150
vt 0.93335 0.25133
vt 0.00271 0.52659
vt 0.36299 0.99850
vt 0.89752 0.16138
vt 0.06094 0.93404
vt 0.06140 0.92624
vt 0.07628 0.92624
vt 0.93549 0.24823
vt 0.00611 0.53287
vt 0.47883 0.41605
vt 0.81179 0.00424
vt 0.81147 0.00022
vt 0.81483 0.00051
vt 0.47559 0.41600
vt 0.62324 0.51403
vt 0.32594 0.33257
vt 0.00294 0.53241
vt 0.81628 0.00427
vt 0.20159 0.90957
vt 0.20073 0.90637
vt 0.20823 0.90643
vt 0.94491 0.08728
vt 0.93906 0.08107
vt 0.94491 0.08120
vt 0.00818 0.91896
vt 0.00472 0.91770
vt 0.00951 0.91795
vt 0.99471 0.91193
vt 0.99082 0.91144
vt 0.99343 0.91086
vt 0.21758 0.90700
vt 0.21793 0.91363
vt 0.07605 0.93353
vt 0.32033 0.33389
vt 0.20251 0.91273
vt 0.92758 0.25034
vt 0.92676 0.24803
vt 0.98966 0.90907
vt 0.99534 0.90793
vt 0.01027 0.92176
vt 0.48184 0.40938
vt 0.20753 0.91399
vt 0.01821 0.53707
vt 0.01419 0.53741
vt 0.01419 0.52868
vt 0.93771 0.57740
vt 0.93771 0.56699
vt 0.94353 0.57762
vt 0.48522 0.40783
vt 0.00470 0.92500
vt 0.01135 0.26731
vt 0.00931 0.26469
vt 0.00861 0.25864
vt 0.14500 0.99407
vt 0.14017 0.99844
vt 0.13943 0.99407
vt 0.92984 0.08612
vt 0.92934 0.08088
vt 0.32021 0.34341
vt 0.01824 0.52796
vt 0.46842 0.34727
vt 0.93849 0.56232
vt 0.94286 0.56724
vt 0.95734 0.99623
vt 0.95514 0.99731
vt 0.95989 0.99404
vt 0.14499 0.99736
vt 0.49209 0.40591
vt 0.48807 0.40404
vt 0.48766 0.40187
vt 0.96080 0.99848
vt 0.96303 0.99607
vt 0.14552 0.60516
vt 0.14160 0.59169
vt 0.14552 0.59153
vt 0.00992 0.92561
vt 0.99526 0.90244
vt 0.47987 0.40676
vt 0.48451 0.40186
vt 0.66492 0.32295
vt 0.66788 0.33221
vt 0.66439 0.33314
vt 0.94343 0.56210
vt 0.56147 0.49773
vt 0.98919 0.90262
vt 0.00198 0.84645
vt 0.00167 0.84089
vt 0.00765 0.84141
vt 0.61604 0.51401
vt 0.00781 0.84823
vt 0.32000 0.35061
vt 0.60663 0.51400
vt 0.56314 0.50860
vt 0.66105 0.32722
vt 0.67174 0.33242
vt 0.66670 0.33460
vt 0.35453 0.11477
vt 0.35341 0.10840
vt 0.36311 0.11517
vt 0.35379 0.10579
vt 0.00066 0.66324
vt 0.00746 0.66324
vt 0.00053 0.66697
vt 0.32570 0.34791
vt 0.14147 0.61233
vt 0.00724 0.66760
vt 0.14989 0.53986
vt 0.15726 0.53451
vt 0.15945 0.55186
vt 0.11675 0.98607
vt 0.11668 0.99166
vt 0.11279 0.98792
vt 0.47806 0.33353
vt 0.48660 0.39137
vt 0.31964 0.36001
vt 0.49112 0.10772
vt 0.49708 0.09941
vt 0.49929 0.10507
vt 0.66016 0.33679
vt 0.14929 0.39240
vt 0.15610 0.39293
vt 0.15486 0.40700
vt 0.11292 0.99397
vt 0.66948 0.34920
vt 0.48148 0.39662
vt 0.14543 0.62194
vt 0.48301 0.10421
vt 0.49467 0.38960
vt 0.38444 0.11550
vt 0.37442 0.10652
vt 0.48105 0.11110
vt 0.17595 0.57328
vt 0.14993 0.41180
vt 0.59100 0.51431
vt 0.37373 0.11525
vt 0.01411 0.66773
vt 0.01488 0.67208
vt 0.00753 0.67082
vt 0.16917 0.54983
vt 0.17375 0.55575
vt 0.00681 0.66841
vt 0.00658 0.67153
vt 0.32473 0.37493
vt 0.66142 0.34389
vt 0.66207 0.34488
vt 0.65366 0.35059
vt 0.49912 0.38236
vt 0.15017 0.41929
vt 0.31909 0.37564
vt 0.15454 0.41550
vt 0.34582 0.98111
vt 0.34668 0.98347
vt 0.33643 0.98331
vt 0.86111 0.98541
vt 0.86320 0.98518
vt 0.86320 0.99086
vt 0.67469 0.36931
vt 0.86093 0.98756
vt 0.18083 0.56548
vt 0.85437 0.98957
vt 0.18394 0.56929
vt 0.15354 0.43095
vt 0.32132 0.95724
vt 0.32122 0.96180
vt 0.31990 0.95775
vt 0.15038 0.43132
vt 0.25744 0.98709
vt 0.25744 0.99395
vt 0.25653 0.99156
vt 0.39203 0.67159
vt 0.39112 0.67281
vt 0.37973 0.67281
vt 0.32013 0.96741
vt 0.39200 0.66945
vt 0.59035 0.51631
vt 0.57421 0.51722
vt 0.37583 0.66925
vt 0.15321 0.43644
vt 0.72921 0.00529
vt 0.72941 0.00332
vt 0.73487 0.00448
vt 0.15098 0.43620
vt 0.00427 0.90765
vt 0.00172 0.90765
vt 0.00377 0.90573
vt 0.51073 0.36490
vt 0.50746 0.36932
vt 0.50912 0.36084
vt 0.48395 0.36240
vt 0.02392 0.42231
vt 0.01476 0.43120
vt 0.01459 0.41981
vt 0.76504 0.99610
vt 0.76639 0.99569
vt 0.76540 0.99832
vt 0.51211 0.36463
vt 0.73396 0.00169
vt 0.35689 0.70715
vt 0.36570 0.70715
vt 0.35725 0.71006
vt 0.01581 0.45145
vt 0.35947 0.67357
vt 0.51341 0.35315
vt 0.37359 0.70721
vt 0.51724 0.34624
vt 0.02483 0.44410
vt 0.37903 0.71101
vt 0.38712 0.70754
vt 0.53121 0.99831
vt 0.67232 0.96921
vt 0.67232 0.96921
vt 0.67232 0.96921
vt 0.67232 0.96921
vt 0.67232 0.96921
vt 0.67232 0.96921
vt 0.67232 0.96921
vt 0.67232 0.96921
vt 0.67232 0.96921
vt 0.67232 0.96921
vt 0.67232 0.96921
vt 0.67232 0.96921
vt 0.67232 0.96921
vt 0.67232 0.96921
vt 0.67232 0.96921
vt 0.67232 0.96921
vt 0.67232 0.96921
vt 0.67232 0.96921
vt 0.67232 0.96921
vt 0.67232 0.96921
vt 0.67232 0.96921
vt 0.67232 0.96921
vt 0.67232 0.96921
vt 0.67232 0.96921
vt 0.67232 0.96921
vt 0.67232 0.96921
vt 0.67232 0.96921
vt 0.67232 0.96921
vt 0.67232 0.96921
vt 0.67232 0.96921
vt 0.67232 0.96921
vt 0.67232 0.96921
vt 0.67232 0.96921
vt 0.67232 0.96921
vt 0.67232 0.96921
vt 0.67232 0.96921
vt 0.67232 0.96921
vt 0.67232 0.96921
vt 0.67232 0.96921
vt 0.67232 0.96921
vt 0.67232 0.96921
vt 0.67232 0.96921
vt 0.67232 0.96921
vt 0.67232 0.96921
vt 0.67232 0.96921
vt 0.67232 0.96921
vt 0.67232 0.96921
vt 0.67232 0.96921
vt 0.67232 0.96921
vt 0.67232 0.96921
vt 0.67232 0.96921
vt 0.67232 0.96921
vt 0.67232 0.96921
vt 0.67232 0.96921
vt 0.67232 0.96921
vt 0.67232 0.96921
vt 0.67232 0.96921
vt 0.67232 0.96921
vt 0.67232 0.96921
vt 0.67232 0.96921
vt 0.67232 0.96921
vt 0.67232 0.96921
vt 0.67232 0.96921
vt 0.67232 0.96921
vt 0.67232 0.96921
vt 0.67232 0.96921
vt 0.67232 0.96921
vt 0.67232 0.96921
vt 0.67232 0.96921
vn -0.2034 0.9174 -0.3420
vn -0.2516 0.8846 -0.3927
vn -0.2664 0.8576 -0.4400
vn 0.1945 -0.2132 -0.9574
vn 0.1945 -0.2132 -0.9574
vn 0.1945 -0.2132 -0.9574
vn -0.2593 0.7938 -0.5501
vn 0.9494 -0.2822 -0.1375
vn 0.9136 -0.3697 -0.1691
vn 0.9559 -0.2631 -0.1306
vn 0.9048 -0.3878 -0.1756
vn -0.8101 -0.5781 -0.0982
vn -0.7838 -0.6132 -0.0982
vn -0.8345 -0.5416 -0.1014
vn 0.1599 -0.3368 -0.9279
vn 0.1599 -0.3368 -0.9279
vn 0.1599 -0.3368 -0.9279
vn 0.2171 -0.9761 -0.0105
vn 0.2668 -0.9506 0.1587
vn 0.2576 -0.9648 0.0522
vn -0.3149 0.7796 -0.5414
vn -0.2471 0.5980 -0.7625
vn -0.9097 -0.4034 -0.0980
vn -0.3499 0.9125 -0.2119
vn 0.8048 0.5935 -0.0074
vn 0.8038 0.5928 -0.0511
vn 0.8037 0.5933 -0.0450
vn -0.0554 0.4888 -0.8706
vn -0.0554 0.4888 -0.8706
vn -0.0554 0.4888 -0.8706
vn 0.5587 0.4703 0.6831
vn 0.5587 0.4703 0.6831
vn 0.5587 0.4703 0.6831
vn 0.9732 0.1234 0.1941
vn 0.9732 0.1234 0.1941
vn 0.9732 0.1234 0.1941
vn 0.7136 0.2878 -0.6387
vn 0.7136 0.2878 -0.6387
vn 0.7136 0.2878 -0.6387
vn 0.9267 -0.3409 0.1580
vn 0.9267 -0.3409 0.1580
vn 0.9267 -0.3409 0.1580
vn 0.9842 0.0712 -0.1618
vn 0.9794 0.0928 -0.1794
vn 0.9915 -0.0117 -0.1297
vn 0.9924 -0.0294 -0.1197
vn 0.7104 -0.4912 0.5041
vn 0.7104 -0.4912 0.5041
vn 0.7104 -0.4912 0.5041
vn 0.9864 -0.0596 -0.1534
vn 0.7570 0.6086 -0.2379
vn 0.7772 0.5981 -0.1955
vn 0.7727 0.6098 -0.1765
vn 0.3800 0.4029 0.8326
vn 0.3913 0.3520 0.8503
vn 0.4159 0.2980 0.8592
vn 0.2243 0.0704 -0.9720
vn 0.2215 0.0508 -0.9738
vn 0.0457 -0.0271 -0.9986
vn -0.0609 -0.0089 -0.9981
vn 0.8370 -0.5452 0.0463
vn 0.7365 -0.6739 -0.0595
vn 0.7869 -0.6170 -0.0104
vn 0.4033 0.1784 0.8975
vn 0.8521 0.4517 -0.2642
vn 0.8616 0.4242 -0.2786
vn 0.8501 0.4572 -0.2612
vn 0.6966 0.2009 -0.6888
vn 0.6966 0.2009 -0.6888
vn 0.6966 0.2009 -0.6888
vn 0.7955 0.5765 -0.1866
vn -0.2323 -0.3053 -0.9235
vn -0.2016 -0.3156 -0.9272
vn -0.1758 -0.3239 -0.9296
vn 0.6960 -0.7118 -0.0949
vn 0.8279 0.5472 -0.1231
vn -0.3874 -0.7793 0.4926
vn -0.3594 -0.8040 0.4737
vn -0.3670 -0.7975 0.4788
vn 0.4330 0.2068 -0.8774
vn 0.6104 0.1173 -0.7833
vn 0.4463 0.2277 -0.8654
vn -0.4285 -0.3137 -0.8474
vn -0.4892 0.7997 0.3481
vn -0.4892 0.7997 0.3481
vn -0.4892 0.7997 0.3481
vn 0.8533 0.5194 -0.0451
vn -0.8075 0.3001 -0.5078
vn -0.8075 0.3001 -0.5078
vn -0.8075 0.3001 -0.5078
vn -0.9562 -0.2279 0.1838
vn -0.9562 -0.2279 0.1838
vn -0.9562 -0.2279 0.1838
vn 0.8648 0.4997 -0.0485
vn -0.2637 -0.2944 -0.9186
vn -0.0519 -0.5599 -0.8269
vn -0.1109 -0.5406 -0.8339
vn -0.0776 -0.5518 -0.8304
vn 0.2779 0.3247 0.9041
vn -0.9401 -0.1442 0.3090
vn -0.9375 -0.1545 0.3119
vn -0.8834 -0.3478 0.3140
vn -0.7561 -0.6212 0.2062
vn 0.2671 0.3157 0.9105
vn -0.1614 -0.1462 -0.9760
vn 0.3750 0.8089 -0.4527
vn 0.3615 0.8112 -0.4596
vn -0.7421 -0.6505 0.1617
vn -0.6436 -0.6170 0.4529
vn -0.6210 -0.6243 0.4740
vn 0.4127 -0.8397 0.3531
vn 0.4127 -0.8397 0.3531
vn 0.4127 -0.8397 0.3531
vn -0.3299 -0.2776 -0.9023
vn -0.3203 -0.2781 -0.9056
vn 0.2824 0.1189 -0.9519
vn -0.6973 -0.5898 0.4074
vn -0.0147 -0.5709 -0.8209
vn 0.7790 0.1719 -0.6030
vn 0.6983 0.4082 -0.5879
vn 0.7779 0.1683 -0.6055
vn 0.7404 0.2751 -0.6133
vn -0.1207 -0.8326 0.5406
vn -0.2364 -0.8476 0.4750
vn -0.2675 -0.8179 0.5094
vn -0.2958 -0.8070 0.5111
vn 0.4610 -0.2706 -0.8451
vn 0.4610 -0.2706 -0.8451
vn 0.4610 -0.2706 -0.8451
vn 0.3535 0.8075 -0.4722
vn -0.7037 -0.5810 0.4090
vn 0.2849 0.0878 -0.9545
vn -0.7823 -0.5865 0.2101
vn 0.8774 0.4789 -0.0283
vn 0.6262 0.5543 -0.5483
vn -0.2604 -0.4875 -0.8334
vn -0.2071 -0.5140 -0.8324
vn -0.2034 -0.5012 -0.8411
vn 0.8914 -0.4093 -0.1949
vn 0.8914 -0.4093 -0.1949
vn 0.8914 -0.4093 -0.1949
vn 0.7725 0.6177 -0.1471
vn 0.1295 0.1218 0.9841
vn 0.1295 0.1218 0.9841
vn 0.1295 0.1218 0.9841
vn 0.8835 0.4685 -0.0042
vn -0.7597 -0.6183 0.2015
vn -0.4595 -0.3333 -0.8233
vn 0.8272 -0.4810 0.2905
vn 0.8272 -0.4810 0.2905
vn 0.8272 -0.4810 0.2905
vn -0.0753 0.0874 0.9933
vn -0.3519 -0.1308 0.9269
vn -0.0863 0.0791 0.9931
vn 0.7711 0.6224 -0.1347
vn -0.0931 -0.2466 -0.9646
vn 0.3478 0.8134 -0.4663
vn 0.9866 -0.1630 0.0050
vn 0.9683 -0.1995 0.1505
vn 0.9663 -0.2518 -0.0531
vn 0.9431 -0.2246 0.2451
vn -0.6780 -0.5710 0.4629
vn -0.2394 -0.8184 0.5224
vn 0.8629 -0.4826 0.1502
vn 0.1422 0.3490 0.9263
vn 0.2942 0.3570 0.8866
vn 0.2400 0.3635 0.9002
vn 0.2624 0.3002 0.9171
vn 0.8396 -0.5381 0.0738
vn -0.3647 -0.1414 0.9203
vn -0.1863 -0.3906 -0.9015
vn -0.4703 -0.5667 -0.6765
vn -0.2088 -0.4061 -0.8896
vn -0.6669 -0.5680 0.4824
vn 0.1185 0.3127 -0.9424
vn 0.0818 0.2549 -0.9635
vn -0.0408 0.3171 -0.9475
vn -0.1583 -0.3711 -0.9150
vn -0.0763 0.1902 0.9788
vn -0.0783 0.1963 0.9774
vn -0.0796 0.2037 0.9758
vn 0.2782 0.6210 0.7328
vn 0.2840 0.6308 0.7221
vn 0.3473 0.7349 0.5825
vn 0.5585 0.8109 -0.1748
vn 0.5585 0.8109 -0.1748
vn 0.5585 0.8109 -0.1748
vn 0.2205 0.3638 0.9050
vn 0.5655 0.8245 0.0180
vn 0.5616 0.8274 0.0050
vn 0.5920 0.8042 0.0528
vn 0.5288 0.7618 -0.3742
vn 0.5278 0.7611 -0.3771
vn 0.5245 0.7589 -0.3859
vn -0.2379 -0.4512 -0.8601
vn -0.2132 -0.4416 -0.8715
vn -0.9064 0.2672 0.3271
vn -0.9064 0.2672 0.3271
vn -0.9064 0.2672 0.3271
vn -0.3939 0.8471 -0.3568
vn -0.3939 0.8471 -0.3568
vn -0.3939 0.8471 -0.3568
vn 0.5706 0.8212 0.0001
vn -0.5837 -0.8092 0.0661
vn -0.6436 -0.7194 0.2611
vn -0.5808 -0.7977 0.1619
vn -0.5566 -0.8120 0.1755
vn -0.5608 -0.8094 0.1742
vn -0.5599 -0.8103 0.1730
vn -0.6384 -0.7159 0.2827
vn 0.2111 0.3571 0.9099
vn 0.0345 0.3053 0.9516
vn -0.0348 -0.2861 -0.9576
vn -0.2096 -0.8096 0.5483
vn 0.5233 0.7580 -0.3893
vn -0.0736 0.2042 0.9762
vn 0.0308 0.3331 0.9424
vn 0.0479 -0.2194 -0.9745
vn -0.5740 -0.8024 0.1632
vn 0.9051 0.3644 -0.2190
vn 0.9051 0.3644 -0.2190
vn 0.9051 0.3644 -0.2190
vn 0.0144 0.1383 -0.9903
vn -0.8918 -0.3453 0.2923
vn -0.8918 -0.3453 0.2923
vn -0.8918 -0.3453 0.2923
vn -0.4053 -0.3903 -0.8267
vn -0.5496 -0.8144 0.1861
vn 0.3500 0.7392 0.5754
vn -0.1721 0.9059 -0.3869
vn -0.1126 0.9458 -0.3047
vn 0.0326 -0.5246 -0.8507
vn 0.0164 -0.5091 -0.8606
vn -0.0173 -0.4758 -0.8794
vn 0.1093 -0.5942 -0.7969
vn -0.1435 0.5508 -0.8222
vn 0.5873 0.8090 0.0220
vn -0.1195 0.5168 -0.8477
vn -0.0482 0.2007 0.9785
vn 0.2646 -0.8969 0.3543
vn 0.2505 -0.9037 0.3472
vn 0.2336 -0.9114 0.3387
vn -0.1299 0.1434 0.9811
vn 0.9388 -0.2766 0.2055
vn 0.8517 -0.3606 0.3803
vn 0.9274 -0.2965 0.2279
vn 0.9201 -0.3080 0.2418
vn 0.9201 -0.3080 0.2418
vn 0.9201 -0.3080 0.2418
vn 0.7990 0.2534 -0.5454
vn 0.7990 0.2534 -0.5454
vn 0.7990 0.2534 -0.5454
vn -0.5624 -0.8022 0.2004
vn -0.5613 -0.8012 0.2073
vn 0.9392 -0.2173 0.2657
vn 0.9011 -0.3091 0.3042
vn 0.7202 -0.5130 -0.4669
vn 0.7202 -0.5130 -0.4669
vn 0.7202 -0.5130 -0.4669
vn -0.0974 -0.2683 -0.9584
vn 0.6095 0.7900 0.0667
vn 0.0583 -0.3329 -0.9412
vn 0.1009 -0.2832 -0.9537
vn 0.9678 -0.2419 0.0696
vn 0.9755 -0.2009 0.0893
vn -0.2765 -0.2625 -0.9245
vn 0.6442 -0.3336 0.6883
vn 0.6347 -0.3129 0.7066
vn 0.6956 -0.4724 0.5414
vn -0.1950 0.1215 0.9732
vn -0.3998 -0.0441 -0.9156
vn 0.2608 -0.8801 0.3968
vn 0.2452 -0.8810 0.4045
vn 0.2298 -0.8817 0.4120
vn 0.0680 -0.2241 -0.9722
vn 0.0306 -0.2900 -0.9565
vn 0.0387 -0.2760 -0.9604
vn 0.7038 -0.5042 0.5004
vn -0.1033 0.9545 -0.2799
vn -0.0700 0.3932 -0.9168
vn 0.3581 0.8326 -0.4225
vn 0.3662 0.8194 -0.4410
vn 0.3653 0.8263 -0.4288
vn 0.2051 0.6856 0.6985
vn 0.2037 0.6778 0.7065
vn 0.1987 0.6450 0.7379
vn -0.5470 -0.8152 0.1904
vn 0.4690 0.8809 -0.0632
vn 0.4180 0.9082 -0.0195
vn 0.4315 0.9015 -0.0323
vn -0.0150 -0.2682 -0.9632
vn -0.0164 -0.2640 -0.9644
vn -0.0236 -0.2669 -0.9634
vn 0.9658 0.1968 0.1688
vn 0.9894 0.0631 0.1310
vn 0.9889 0.0728 0.1293
vn -0.4208 -0.8942 0.1527
vn -0.3192 -0.9219 -0.2197
vn -0.4766 -0.8790 0.0135
vn -0.0625 0.3762 -0.9244
vn -0.2177 0.1750 0.9602
vn -0.3415 -0.8196 0.4600
vn -0.3484 -0.8108 0.4703
vn -0.3933 -0.8447 0.3629
vn 0.8408 0.3580 -0.4062
vn 0.7441 0.4182 -0.5209
vn 0.8393 0.3511 -0.4151
vn -0.0008 -0.3438 -0.9391
vn 0.4391 -0.8315 0.3402
vn 0.4318 -0.8520 0.2961
vn -0.0976 0.2170 0.9713
vn -0.0815 0.1783 0.9806
vn -0.0658 0.0726 0.9952
vn 0.0990 -0.2152 -0.9715
vn 0.1193 -0.2180 -0.9686
vn 0.1275 -0.2191 -0.9673
vn -0.6946 -0.7022 0.1565
vn -0.5713 -0.8004 0.1813
vn 0.6921 0.4762 -0.5425
vn -0.3528 0.1487 0.9238
vn -0.3528 0.1487 0.9238
vn -0.3528 0.1487 0.9238
vn -0.4072 -0.8902 0.2041
vn -0.9643 0.2163 -0.1525
vn -0.9927 0.1162 -0.0306
vn -0.9763 0.1843 -0.1132
vn 0.3863 0.8216 -0.4192
vn 0.5585 0.6185 -0.5528
vn -0.0953 0.2736 0.9571
vn -0.4175 -0.8954 0.1549
vn -0.9195 0.2988 -0.2553
vn -0.4142 -0.8893 0.1936
vn 0.3876 -0.8872 0.2501
vn 0.0223 -0.2017 -0.9792
vn -0.0240 -0.2641 -0.9642
vn 0.2327 0.6899 0.6855
vn -0.0225 -0.2681 -0.9631
vn 0.8495 -0.5239 0.0625
vn 0.8910 -0.4477 0.0757
vn 0.8066 -0.5889 0.0501
vn 0.1468 -0.2217 -0.9640
vn 0.1750 0.0880 0.9806
vn -0.1132 -0.9869 0.1150
vn 0.0416 -0.9863 0.1593
vn 0.0975 -0.7797 -0.6185
vn 0.1104 -0.7755 -0.6216
vn 0.1607 -0.7577 -0.6326
vn -0.0085 0.2636 0.9646
vn -0.0034 0.2824 0.9593
vn -0.0369 0.2466 0.9684
vn 0.0364 -0.7975 -0.6023
vn -0.2052 0.5008 -0.8409
vn -0.2038 0.5022 -0.8404
vn -0.1960 0.5099 -0.8376
vn -0.1604 -0.9819 0.1007
vn 0.0250 -0.1767 -0.9839
vn 0.0250 -0.1767 -0.9839
vn 0.0250 -0.1767 -0.9839
vn -0.4158 -0.8838 0.2146
vn -0.2088 0.4972 -0.8421
vn -0.5149 -0.5619 -0.6474
vn -0.5149 -0.5619 -0.6474
vn -0.5149 -0.5619 -0.6474
vn 0.3679 0.9298 0.0131
vn 0.9327 -0.3602 0.0150
vn 0.9387 -0.3438 0.0248
vn 0.9414 -0.3360 0.0293
vn 0.6982 -0.7158 -0.0115
vn 0.6062 -0.7951 0.0200
vn 0.5943 -0.8042 0.0009
vn 0.9470 -0.3186 0.0395
vn 0.0614 -0.9895 0.1310
vn 0.1706 -0.9818 0.0839
vn 0.0903 -0.9888 0.1188
vn -0.9527 -0.0933 0.2892
vn -0.9527 -0.0933 0.2892
vn -0.9527 -0.0933 0.2892
vn -0.0161 -0.1617 -0.9867
vn 0.0429 -0.1953 -0.9798
vn 0.1083 -0.2513 -0.9618
vn 0.2050 0.3492 -0.9143
vn 0.2050 0.3492 -0.9143
vn 0.2050 0.3492 -0.9143
vn 0.6716 0.4606 -0.5803
vn 0.6459 0.3432 -0.6820
vn 0.6614 0.4059 -0.6307
vn -0.9152 -0.3739 -0.1505
vn -0.9152 -0.3739 -0.1505
vn -0.9152 -0.3739 -0.1505
vn 0.2021 -0.9769 0.0699
vn 0.1781 0.0398 0.9832
vn 0.1299 0.1175 0.9845
vn -0.0199 -0.1490 -0.9886
vn 0.0001 -0.1901 -0.9818
vn -0.0292 -0.0943 -0.9951
vn -0.4781 0.8741 -0.0863
vn -0.5029 0.8600 -0.0866
vn 0.6389 0.3188 -0.7001
vn 0.0218 0.1603 0.9868
vn 0.3583 0.7973 -0.4857
vn -0.0128 -0.2091 -0.9778
vn 0.0723 -0.2357 -0.9691
vn 0.2344 0.6923 0.6825
vn 0.9091 -0.3808 0.1692
vn 0.9266 -0.3754 -0.0203
vn 0.9437 -0.3307 -0.0032
vn 0.4060 0.8882 -0.2154
vn 0.4145 0.9100 0.0009
vn 0.9143 -0.3779 -0.1459
vn 0.8739 -0.4445 -0.1966
vn -0.0323 -0.2594 -0.9652
vn -0.5475 0.8362 -0.0299
vn 0.0505 -0.1575 -0.9862
vn -0.0487 -0.1558 -0.9866
vn 0.1151 0.1651 0.9795
vn 0.2950 -0.9552 -0.0229
vn 0.2950 -0.9552 -0.0229
vn 0.2950 -0.9552 -0.0229
vn 0.5283 -0.8431 0.1004
vn 0.0328 -0.1161 -0.9927
vn 0.5173 -0.8454 0.1329
vn 0.2430 0.8228 -0.5138
vn -0.4167 -0.8827 0.2173
vn -0.0361 -0.2024 -0.9786
vn -0.9764 -0.1960 -0.0910
vn -0.9388 -0.3290 0.1016
vn -0.9610 -0.2738 0.0397
vn -0.9550 -0.2339 -0.1823
vn -0.9227 -0.2503 -0.2931
vn -0.4328 0.5380 -0.7234
vn -0.3182 0.5045 -0.8027
vn -0.4039 0.5240 -0.7499
vn -0.0324 -0.2571 -0.9658
vn -0.0859 -0.1443 -0.9858
vn -0.5144 0.5497 -0.6582
vn 0.2667 0.7577 -0.5956
vn -0.8504 -0.4608 -0.2538
vn -0.6451 0.5345 -0.5460
vn -0.0816 -0.2129 -0.9737
vn -0.5991 -0.3681 -0.7110
vn -0.5991 -0.3681 -0.7110
vn -0.5991 -0.3681 -0.7110
vn -0.9693 0.2412 -0.0474
vn -0.9693 0.2412 -0.0474
vn -0.9693 0.2412 -0.0474
vn 0.1319 0.7779 -0.6144
vn -0.2348 0.3201 -0.9178
vn -0.2552 0.3710 -0.8929
vn -0.3065 0.4772 -0.8236
vn -0.1888 -0.1854 -0.9644
vn -0.5426 -0.1143 -0.8322
vn -0.0531 -0.1504 -0.9872
vn 0.1656 0.5742 -0.8018
vn 0.1036 0.5699 -0.8152
vn 0.1876 -0.3730 -0.9087
vn 0.1571 -0.3619 -0.9189
vn 0.1173 -0.3413 -0.9326
vn -0.8843 0.3582 -0.2995
vn -0.9091 0.3116 -0.2765
vn -0.8835 0.3685 -0.2890
vn -0.3054 0.4841 -0.8200
vn -0.8965 0.3209 -0.3055
vn 0.4674 -0.8365 0.2861
vn 0.5665 -0.8056 0.1738
vn 0.4597 -0.8490 0.2605
vn -0.5478 0.8337 -0.0691
vn 0.4912 -0.8648 0.1042
vn -0.9306 0.2809 -0.2346
vn 0.1844 0.6974 -0.6925
vn 0.1844 0.6974 -0.6925
vn 0.1844 0.6974 -0.6925
vn -0.5062 -0.2059 -0.8375
vn 0.5410 -0.8410 -0.0012
vn -0.1961 0.5629 -0.8030
vn -0.8254 -0.5643 -0.0137
vn -0.8254 -0.5643 -0.0137
vn -0.8254 -0.5643 -0.0137
vn 0.0368 -0.0301 -0.9989
vn 0.0211 -0.0782 -0.9967
vn -0.1181 -0.2918 -0.9491
vn -0.0497 -0.1456 -0.9881
vn -0.1998 -0.3215 -0.9256
vn -0.7659 -0.0380 -0.6418
vn -0.0994 -0.0196 -0.9949
vn -0.3493 0.5056 -0.7889
vn 0.4602 -0.8845 0.0760
vn 0.2282 -0.4023 -0.8866
vn 0.2338 -0.4076 -0.8827
vn 0.4867 -0.8711 0.0657
vn 0.5079 -0.8608 0.0329
vn 0.9805 0.1928 -0.0388
vn 0.9582 0.2479 -0.1430
vn 0.9593 0.2453 -0.1400
vn 0.1712 -0.2332 -0.9572
vn 0.9807 0.1917 -0.0391
vn -0.2961 0.6183 -0.7280
vn 0.9042 0.3533 -0.2399
vn 0.8959 0.3740 -0.2399
vn -0.3700 0.6093 -0.7013
vn 0.8575 0.4597 -0.2310
vn 0.1689 -0.2714 -0.9475
vn -0.3259 0.6525 -0.6841
vn 0.1567 -0.3334 -0.9297
vn 0.1836 -0.3500 -0.9186
vn 0.1589 -0.3080 -0.9380
vn 0.5465 -0.8017 0.2422
vn 0.5360 -0.8185 0.2069
vn 0.5433 -0.8071 0.2312
vn 0.0858 -0.1730 -0.9812
vn 0.1904 -0.3686 -0.9099
vn 0.5322 -0.8239 0.1948
vn 0.9265 0.3560 -0.1220
vn 0.9228 0.3560 -0.1473
vn 0.9376 0.2782 -0.2087
vn 0.9135 0.3658 -0.1781
vn 0.9057 0.4003 -0.1399
vn 0.1607 -0.2524 -0.9542
vn 0.4220 -0.8967 0.1333
vn 0.4211 -0.8973 0.1322
vn 0.4224 -0.8965 0.1338
vn 0.1732 -0.3043 -0.9367
vn 0.1738 -0.3049 -0.9364
vn 0.1700 -0.2594 -0.9507
vn 0.8147 0.5691 -0.1115
vn 0.8194 0.5607 -0.1193
vn 0.7957 0.6002 -0.0817
vn 0.7895 0.6094 -0.0726
vn -0.8765 -0.3840 0.2903
vn -0.1572 -0.1260 -0.9795
vn -0.0947 -0.2455 -0.9648
vn -0.6283 -0.6282 0.4588
vn -0.3587 -0.7610 0.5406
vn 0.0130 -0.2812 -0.9596
vn 0.8817 -0.4608 0.1015
vn 0.8817 -0.4608 0.1015
vn 0.8817 -0.4608 0.1015
vn 0.9552 0.2160 -0.2023
vn 0.9544 0.2169 -0.2051
vn 0.9549 0.2164 -0.2033
vn 0.3891 0.2997 0.8711
vn 0.4144 0.2918 0.8620
vn 0.4257 0.2881 0.8577
vn -0.3127 -0.4733 -0.8235
vn -0.3272 -0.5544 -0.7652
vn -0.3001 -0.3996 -0.8662
vn -0.4334 -0.7460 0.5057
vn -0.4821 -0.7051 0.5200
vn -0.4538 -0.7294 0.5119
vn 0.9556 0.2156 -0.2009
vn -0.2861 -0.3718 -0.8831
vn -0.2850 -0.3711 -0.8838
vn -0.4942 -0.6942 0.5233
vn 0.3648 0.3069 0.8790
vn -0.9359 -0.3003 0.1842
vn -0.9570 -0.2525 0.1432
vn -0.9216 -0.3017 0.2443
vn -0.9402 -0.3092 0.1430
vn -0.8899 -0.3450 0.2983
vn 0.6248 -0.6461 0.4384
vn 0.7260 -0.4943 0.4781
vn 0.6759 -0.5764 0.4593
vn 0.5459 -0.7342 0.4037
vn 0.5928 -0.8002 0.0911
vn 0.5928 -0.8002 0.0911
vn 0.5928 -0.8002 0.0911
vn 0.0496 -0.9252 0.3762
vn 0.0600 -0.9322 0.3570
vn 0.0540 -0.9282 0.3681
vn 0.0648 -0.9352 0.3480
vn -0.9613 -0.2062 0.1829
vn -0.9613 -0.2062 0.1829
vn -0.9613 -0.2062 0.1829
vn -0.8529 -0.4417 0.2784
vn -0.8529 -0.4417 0.2784
vn 0.9295 -0.3686 0.0111
vn 0.9295 -0.3686 0.0111
vn 0.9295 -0.3686 0.0111
vn 0.9906 -0.0561 -0.1245
vn 0.9983 -0.0461 -0.0353
vn 0.9978 -0.0474 -0.0465
vn 0.9893 -0.0572 -0.1339
vn 0.1370 0.3357 0.9320
vn 0.5578 0.2923 0.7768
vn 0.5430 0.2952 0.7861
vn 0.3672 0.6114 -0.7010
vn 0.3672 0.6114 -0.7010
vn 0.3672 0.6114 -0.7010
vn -0.0412 -0.9647 0.2600
vn -0.0412 -0.9647 0.2600
vn -0.0412 -0.9647 0.2600
vn 0.0782 0.3364 0.9385
vn 0.7362 0.6735 0.0660
vn 0.7362 0.6735 0.0660
vn 0.7362 0.6735 0.0660
vn 0.2845 -0.4088 -0.8671
vn 0.1721 -0.3715 -0.9124
vn 0.0486 -0.3371 -0.9402
vn 0.2234 -0.4883 -0.8436
vn -0.2830 -0.4853 0.8273
vn -0.2343 -0.6615 0.7124
vn -0.2471 -0.6018 0.7594
vn -0.2708 -0.4911 0.8279
vn -0.2954 -0.4612 0.8367
vn -0.1888 0.3496 0.9177
vn -0.3707 0.3755 0.8494
vn -0.0788 0.3399 0.9372
vn 0.0213 -0.3298 -0.9438
vn 0.1157 -0.3240 -0.9390
vn -0.3662 0.3901 0.8448
vn 0.2412 -0.3574 -0.9023
vn 0.0957 -0.6401 -0.7623
vn 0.9399 0.1830 -0.2884
vn 0.9788 -0.0542 -0.1977
vn 0.9374 0.1211 -0.3265
vn 0.9773 -0.0638 -0.2019
vn 0.1430 0.4808 0.8651
vn 0.1101 0.4897 0.8649
vn 0.2153 0.4590 0.8619
vn -0.8347 -0.5200 0.1813
vn -0.7903 -0.4715 0.3913
vn -0.8416 -0.5339 0.0814
vn -0.1405 -0.9725 0.1856
vn -0.1931 -0.9537 0.2306
vn -0.1636 -0.9649 0.2054
vn 0.3951 -0.2359 0.8878
vn 0.3951 -0.2359 0.8878
vn 0.3951 -0.2359 0.8878
vn -0.8408 -0.5413 -0.0020
vn -0.2234 -0.9404 0.2563
vn -0.1771 -0.6538 -0.7356
vn -0.2631 -0.6495 -0.7134
vn -0.2051 -0.5269 -0.8248
vn -0.1006 -0.4960 -0.8625
vn 0.8343 0.3180 -0.4504
vn 0.8390 0.4742 -0.2670
vn 0.9814 -0.0632 -0.1814
vn 0.9963 -0.0526 0.0685
vn 0.9991 -0.0353 0.0233
vn 0.8647 0.4904 -0.1090
vn 0.9735 -0.0640 -0.2197
vn 0.9970 0.0161 0.0756
vn 0.9995 -0.0089 0.0298
vn 0.9997 -0.0155 0.0202
vn 0.2453 0.4491 0.8591
vn 0.5481 -0.7400 0.3898
vn 0.4706 -0.7551 0.4564
vn 0.2370 -0.8346 0.4973
vn 0.4235 0.4919 0.7607
vn 0.4235 0.4919 0.7607
vn 0.4235 0.4919 0.7607
vn 0.3942 -0.7741 0.4953
vn 0.7796 0.3010 -0.5492
vn 0.8015 0.5479 -0.2395
vn 0.0996 0.3021 0.9481
vn -0.0158 0.3387 0.9407
vn -0.0372 0.3399 0.9397
vn 0.9838 0.1745 -0.0420
vn 0.9576 0.2874 0.0179
vn 0.1470 0.2849 0.9472
vn 0.8635 0.5034 -0.0317
vn -0.8518 -0.2482 0.4612
vn -0.9116 -0.1069 0.3970
vn -0.9183 -0.0783 0.3882
vn 0.0404 -0.3778 -0.9250
vn 0.0346 -0.3597 -0.9324
vn 0.0680 -0.3496 -0.9344
vn -0.1176 -0.2945 -0.9484
vn -0.1035 0.3146 0.9436
vn -0.8786 -0.2024 0.4325
vn -0.9094 -0.1846 0.3726
vn 0.0247 0.5462 0.8373
vn 0.0263 0.5464 0.8371
vn 0.0160 0.5456 0.8379
vn -0.4526 -0.5947 -0.6644
vn 0.0139 0.5454 0.8380
vn 0.9445 -0.0820 0.3182
vn 0.9445 -0.0820 0.3182
vn 0.9445 -0.0820 0.3182
vn 0.0746 -0.8515 0.5191
vn 0.2498 0.0171 0.9682
vn 0.3216 -0.0527 0.9454
vn 0.4090 -0.1416 0.9015
vn -0.8802 0.2422 0.4081
vn -0.8802 0.2422 0.4081
vn -0.8802 0.2422 0.4081
vn 0.8686 0.4434 -0.2212
vn 0.8899 0.3929 -0.2318
vn 0.8957 0.3685 -0.2486
vn -0.8635 -0.2201 0.4538
vn -0.7920 -0.4475 0.4153
vn -0.8731 -0.2959 0.3874
vn 0.3419 -0.9101 0.2342
vn 0.3607 -0.9013 0.2398
vn 0.3600 -0.9017 0.2396
vn 0.8883 -0.2462 -0.3876
vn 0.8075 -0.1365 -0.5738
vn 0.7607 -0.0882 -0.6431
vn 0.7229 -0.0531 -0.6889
vn 0.3780 -0.8928 0.2449
vn -0.0502 0.3410 0.9387
vn -0.0400 0.3560 0.9336
vn -0.2805 -0.4091 -0.8683
vn -0.2919 -0.4137 -0.8623
vn -0.2250 -0.3858 -0.8947
vn -0.5101 -0.8599 0.0215
vn -0.5101 -0.8599 0.0215
vn -0.5101 -0.8599 0.0215
vn 0.8617 0.2669 -0.4315
vn 0.8358 0.1565 -0.5262
vn 0.8854 0.3439 -0.3128
vn 0.8923 0.3705 -0.2577
vn -0.8341 0.0641 0.5479
vn -0.8674 -0.0521 0.4950
vn -0.9362 -0.2401 0.2566
vn 0.1466 -0.9583 0.2451
vn 0.1460 -0.9585 0.2450
vn 0.1447 -0.9587 0.2448
vn 0.8420 0.4677 -0.2691
vn -0.9660 -0.2209 0.1343
vn 0.1439 -0.9589 0.2446
vn -0.1235 0.1805 0.9758
vn -0.1261 0.2345 0.9639
vn -0.1006 0.2386 0.9659
vn -0.2125 -0.3804 -0.9001
vn 0.4361 -0.1701 0.8837
vn -0.0468 -0.4659 -0.8836
vn 0.0993 -0.4778 -0.8728
vn -0.0421 -0.4653 -0.8841
vn -0.0026 -0.4742 -0.8804
vn 0.2750 -0.9595 -0.0606
vn 0.3245 -0.9277 0.1846
vn 0.3266 -0.9450 -0.0192
vn -0.9484 -0.2524 0.1918
vn -0.9364 -0.3191 0.1460
vn -0.9282 -0.3513 0.1231
vn 0.0212 -0.3810 -0.9243
vn -0.9721 -0.2216 0.0769
vn 0.3649 -0.8356 0.4107
vn 0.3338 -0.8515 0.4044
vn 0.3996 -0.8163 0.4172
vn -0.9119 -0.4013 0.0861
vn -0.2063 0.1616 0.9651
vn -0.2353 0.1472 0.9607
vn 0.3141 -0.9102 0.2700
vn 0.2879 -0.8727 0.3943
vn 0.8256 0.4714 -0.3101
vn 0.0648 0.4805 0.8746
vn 0.0875 0.4806 0.8726
vn 0.0340 0.4800 0.8766
vn -0.2929 0.1316 0.9471
vn 0.2666 -0.8805 0.3920
vn 0.0704 -0.4214 -0.9042
vn 0.0942 -0.9305 0.3540
vn 0.1200 -0.9172 0.3799
vn 0.0952 -0.9300 0.3550
vn 0.0824 -0.4213 -0.9032
vn 0.0311 -0.3730 -0.9273
vn 0.8749 0.4132 -0.2525
vn 0.2711 -0.8804 0.3891
vn 0.0721 -0.9407 0.3315
vn -0.1149 -0.3679 -0.9227
vn -0.1647 -0.4194 -0.8927
vn -0.1489 -0.3829 -0.9117
vn -0.8728 -0.3908 0.2925
vn -0.8765 -0.3761 0.3004
vn -0.8633 -0.4193 0.2808
vn -0.5109 0.8585 0.0439
vn -0.4887 0.8723 -0.0178
vn -0.4103 0.9112 -0.0357
vn 0.8554 -0.4414 0.2709
vn 0.6920 -0.5931 0.4115
vn 0.6814 -0.6452 0.3455
vn -0.1908 -0.3484 -0.9177
vn -0.1784 -0.3519 -0.9189
vn 0.0104 0.4792 0.8776
vn 0.8532 0.4429 -0.2755
vn -0.0999 -0.3966 -0.9126
vn -0.3733 0.1785 0.9104
vn -0.3736 0.1785 0.9103
vn 0.4520 -0.8023 0.3898
vn 0.3783 -0.8485 0.3700
vn -0.6020 0.7958 -0.0652
vn 0.0066 -0.3604 -0.9328
vn -0.1431 -0.4093 -0.9011
vn -0.9148 -0.2798 0.2913
vn -0.9068 -0.2799 0.3152
vn -0.9273 -0.2793 0.2491
vn -0.8984 -0.3739 0.2302
vn -0.8994 -0.3737 0.2268
vn -0.8982 -0.3735 0.2317
vn 0.0552 -0.4073 -0.9116
vn -0.5845 0.8070 -0.0841
vn 0.5142 -0.8470 -0.1351
vn 0.5142 -0.8470 -0.1351
vn 0.5142 -0.8470 -0.1351
vn -0.6324 0.7156 -0.2967
vn -0.6265 0.7226 -0.2923
vn -0.6158 0.7347 -0.2845
vn -0.8786 -0.3612 0.3123
vn -0.8772 -0.3612 0.3163
vn 0.8456 0.4890 -0.2142
vn -0.9334 -0.2788 0.2261
vn -0.0463 0.3602 0.9317
vn -0.9462 -0.3166 0.0674
vn -0.9251 -0.3456 0.1576
vn -0.0551 -0.8690 0.4917
vn -0.0977 -0.8263 0.5546
vn -0.0823 -0.8902 0.4481
vn -0.6467 0.6982 -0.3072
vn 0.0761 -0.2405 -0.9677
vn 0.0307 -0.3908 -0.9200
vn 0.0841 -0.4286 -0.8996
vn 0.1834 -0.9623 0.2008
vn 0.0704 -0.9482 0.3098
vn 0.8323 0.5386 -0.1314
vn 0.8301 0.5414 -0.1339
vn 0.8298 0.5419 -0.1330
vn -0.7319 0.6677 -0.1356
vn 0.3766 -0.8496 0.3693
vn 0.0703 -0.3853 -0.9201
vn 0.1082 -0.4350 -0.8939
vn -0.2392 0.2812 0.9294
vn -0.1375 0.3832 0.9134
vn -0.2120 0.2293 0.9500
vn -0.9630 -0.2498 -0.1009
vn 0.1685 -0.2619 -0.9503
vn 0.3777 -0.8497 0.3678
vn 0.3794 -0.8443 0.3785
vn 0.3491 -0.8707 0.3465
vn 0.3785 -0.8451 0.3776
vn 0.0457 -0.3541 -0.9341
vn 0.4053 -0.8192 0.4058
vn 0.8460 0.4752 -0.2416
vn 0.0532 -0.3464 -0.9366
vn 0.1587 -0.2768 -0.9477
vn -0.2431 0.2765 0.9298
vn -0.0488 0.5277 0.8480
vn -0.1841 0.2686 0.9455
vn 0.0371 0.4772 0.8780
vn 0.1557 0.7044 0.6926
vn 0.1131 0.5204 0.8464
vn 0.1471 0.6541 0.7419
vn -0.9448 -0.2004 0.2592
vn -0.9287 -0.2042 0.3095
vn -0.9365 -0.2025 0.2862
vn 0.8425 0.4767 -0.2508
vn 0.8355 0.5399 -0.1027
vn -0.9200 -0.2058 0.3334
vn 0.1450 -0.3119 -0.9390
vn 0.1052 -0.3241 -0.9402
vn 0.1173 -0.3139 -0.9422
vn 0.0574 -0.8905 0.4513
vn 0.0548 -0.8924 0.4479
vn 0.0558 -0.8917 0.4491
vn -0.0794 0.3166 0.9452
vn 0.1586 -0.3567 -0.9206
vn 0.8458 0.4753 -0.2422
vn -0.8298 -0.5031 0.2416
vn -0.8211 -0.5159 0.2442
vn -0.8183 -0.5165 0.2522
vn -0.3140 0.2330 0.9204
vn -0.8355 -0.5134 0.1959
vn -0.8324 -0.5123 0.2112
vn -0.8432 -0.5155 0.1524
vn 0.0532 -0.8935 0.4458
vn -0.3827 0.1583 0.9102
vn 0.1945 -0.3588 -0.9129
vn 0.8253 0.5607 -0.0672
vn -0.8404 -0.4785 0.2545
vn 0.1025 -0.3584 -0.9279
vn 0.0054 0.4517 0.8921
vn -0.0408 0.3701 0.9281
vn -0.8399 -0.4691 0.2730
vn -0.0946 -0.3616 -0.9275
vn -0.8462 -0.5128 0.1451
vn 0.0993 -0.3276 -0.9396
vn 0.1718 0.5678 0.8051
vn -0.8873 -0.2250 0.4027
vn -0.8715 -0.2283 0.4340
vn -0.9051 -0.3123 0.2884
vn -0.1082 -0.3904 -0.9143
vn -0.1025 -0.3901 -0.9150
vn -0.9391 -0.2547 0.2306
vn -0.8859 -0.3700 0.2799
vn 0.8395 0.4984 -0.2162
vn -0.1221 -0.2146 0.9690
vn -0.3750 0.0704 0.9244
vn -0.2358 0.1559 0.9592
vn 0.1663 -0.3339 -0.9278
vn -0.8526 -0.5034 0.1402
vn 0.8374 0.5055 -0.2079
vn -0.8463 -0.5148 0.1369
vn 0.1373 -0.9540 0.2664
vn 0.1371 -0.9559 0.2596
vn 0.1389 -0.9412 0.3079
vn -0.1689 0.8540 -0.4922
vn -0.2137 0.8351 -0.5069
vn -0.2909 0.7554 -0.5871
vn -0.2993 0.1932 0.9344
vn -0.1934 0.8157 -0.5452
vn -0.1206 -0.3642 -0.9235
vn -0.3889 0.6569 -0.6460
vn -0.1747 -0.3217 -0.9306
vn -0.8704 -0.4806 0.1067
vn 0.4148 -0.8735 -0.2547
vn 0.3399 -0.8163 -0.4670
vn 0.4034 -0.8670 -0.2926
vn -0.8670 -0.4808 0.1307
vn 0.2805 -0.3188 -0.9054
vn 0.2805 -0.3188 -0.9054
vn 0.2805 -0.3188 -0.9054
vn 0.8437 0.4865 -0.2270
vn 0.8419 0.5002 -0.2026
vn 0.8150 0.5679 -0.1150
vn 0.3290 -0.8058 -0.4925
vn 0.8402 0.4972 -0.2164
vn 0.1513 -0.3088 -0.9390
vn 0.1562 -0.3043 -0.9397
vn 0.8126 0.5739 -0.1015
vn -0.8510 -0.4673 0.2399
vn 0.1452 -0.9426 0.3008
vn 0.1685 -0.9476 0.2713
vn 0.2083 -0.9532 0.2191
vn -0.8219 -0.4697 0.3222
vn -0.6925 0.4699 -0.5474
vn -0.6925 0.4699 -0.5474
vn -0.6925 0.4699 -0.5474
vn 0.1582 -0.3771 -0.9125
vn 0.1619 -0.3375 -0.9273
vn 0.1472 -0.3266 -0.9336
vn 0.2369 -0.2850 -0.9288
vn 0.1902 -0.3135 -0.9303
vn 0.2128 -0.3116 -0.9261
vn 0.1829 -0.3066 -0.9341
vn -0.9621 0.2565 -0.0930
vn -0.9621 0.2565 -0.0930
vn -0.9621 0.2565 -0.0930
vn 0.1538 -0.4238 -0.8926
vn 0.2290 -0.9545 0.1910
vn -0.7985 -0.6019 0.0019
vn -0.7985 -0.6019 0.0135
vn -0.7981 -0.6025 0.0004
vn 0.1807 -0.3285 -0.9271
vn 0.8132 0.5734 -0.0997
vn 0.1342 -0.3098 -0.9413
vn -0.7932 -0.6086 -0.0205
vn 0.1575 -0.3090 -0.9379
vn 0.1581 -0.3363 -0.9284
vn -0.7864 -0.6169 -0.0301
vn -0.7841 -0.6198 -0.0328
vn -0.8529 -0.4417 0.2784
vn 0.0000 1.0000 0.0000
vn 0.0000 1.0000 0.0000
vn 0.0000 1.0000 0.0000
vn 0.0000 1.0000 0.0000
vn 0.0000 1.0000 0.0000
vn 0.0000 1.0000 0.0000
vn 0.0000 1.0000 0.0000
vn 0.0000 1.0000 0.0000
vn 0.0000 1.0000 0.0000
vn 0.0000 1.0000 0.0000
vn 0.0000 1.0000 0.0000
vn 0.0000 1.0000 0.0000
vn 0.0000 1.0000 0.0000
vn 0.0000 1.0000 0.0000
vn 0.0000 1.0000 0.0000
vn 0.0000 1.0000 0.0000
vn 0.0000 1.0000 0.0000
vn 0.0000 1.0000 0.0000
vn 0.0000 1.0000 0.0000
vn 0.0000 1.0000 0.0000
vn 0.0000 1.0000 0.0000
vn 0.0000 1.0000 0.0000
vn 0.0000 1.0000 0.0000
vn 0.0000 1.0000 0.0000
vn 0.0000 1.0000 0.0000
vn 0.0000 1.0000 0.0000
vn 0.0000 1.0000 0.0000
vn 0.0000 1.0000 0.0000
vn 0.0000 1.0000 0.0000
vn 0.0000 1.0000 0.0000
vn 0.0000 1.0000 0.0000
vn 0.0000 1.0000 0.0000
vn 0.0000 1.0000 0.0000
vn 0.0000 1.0000 0.0000
vn 0.0000 1.0000 0.0000
vn 0.0000 1.0000 0.0000
vn 0.0000 1.0000 0.0000
vn 0.0000 1.0000 0.0000
vn 0.0000 1.0000 0.0000
vn 0.0000 1.0000 0.0000
vn 0.0000 1.0000 0.0000
vn 0.0000 1.0000 0.0000
vn 0.0000 1.0000 0.0000
vn 0.0000 1.0000 0.0000
vn 0.0000 1.0000 0.0000
vn 0.0000 1.0000 0.0000
vn 0.0000 1.0000 0.0000
vn 0.0000 1.0000 0.0000
vn 0.0000 1.0000 0.0000
vn 0.0000 1.0000 0.0000
vn 0.0000 1.0000 0.0000
vn 0.0000 1.0000 0.0000
vn 0.0000 1.0000 0.0000
vn 0.0000 1.0000 0.0000
vn 0.0000 1.0000 0.0000
vn 0.0000 1.0000 0.0000
vn 0.0000 1.0000 0.0000
vn 0.0000 1.0000 0.0000
vn 0.0000 1.0000 0.0000
vn 0.0000 1.0000 0.0000
vn 0.0000 1.0000 0.0000
vn 0.0000 1.0000 0.0000
vn 0.0000 1.0000 0.0000
vn 0.0000 1.0000 0.0000
vn 0.0000 1.0000 0.0000
vn 0.0000 1.0000 0.0000
vn 0.0000 1.0000 0.0000
vn 0.0000 1.0000 0.0000
vn 0.0000 1.0000 0.0000
f 534/534/534 535/535/535 536/536/536
f 537/537/537 538/538/538 539/539/539
f 540/540/540 541/541/541 542/542/542
f 543/543/543 544/544/544 545/545/545
f 546/546/546 547/547/547 548/548/548
f 537/537/537 539/539/539 549/549/549
f 31/31/31 32/32/32 33/33/33
f 543/543/543 545/545/545 550/550/550
f 551/551/551 543/543/543 550/550/550
f 34/34/34 35/35/35 36/36/36
f 37/37/37 38/38/38 39/39/39
f 40/40/40 41/41/41 42/42/42
f 552/552/552 548/548/548 547/547/547
f 43/43/43 44/44/44 45/45/45
f 46/46/46 43/43/43 45/45/45
f 540/540/540 553/553/553 541/541/541
f 47/47/47 48/48/48 49/49/49
f 554/554/554 555/555/555 556/556/556
f 45/45/45 50/50/50 46/46/46
f 51/51/51 52/52/52 53/53/53
f 54/54/54 55/55/55 56/56/56
f 557/557/557 554/554/554 558/558/558
f 57/57/57 58/58/58 59/59/59
f 57/57/57 59/59/59 60/60/60
f 554/554/554 556/556/556 558/558/558
f 61/61/61 62/62/62 63/63/63
f 559/559/559 560/560/560 561/561/561
f 56/56/56 55/55/55 64/64/64
f 65/65/65 66/66/66 67/67/67
f 562/562/562 559/559/559 561/561/561
f 68/68/68 69/69/69 70/70/70
f 51/51/51 71/71/71 52/52/52
f 72/72/72 73/73/73 74/74/74
f 62/62/62 75/75/75 63/63/63
f 563/563/563 564/564/564 565/565/565
f 76/76/76 52/52/52 71/71/71
f 566/566/566 567/567/567 568/568/568
f 77/77/77 78/78/78 79/79/79
f 567/567/567 569/569/569 568/568/568
f 80/80/80 81/81/81 82/82/82
f 59/59/59 83/83/83 60/60/60
f 570/570/570 571/571/571 572/572/572
f 84/84/84 85/85/85 86/86/86
f 76/76/76 71/71/71 87/87/87
f 88/88/88 89/89/89 90/90/90
f 91/91/91 92/92/92 93/93/93
f 87/87/87 94/94/94 76/76/76
f 73/73/73 72/72/72 95/95/95
f 96/96/96 97/97/97 98/98/98
f 54/54/54 99/99/99 55/55/55
f 573/573/573 951/951/951 574/574/574
f 100/100/100 101/101/101 528/528/528
f 528/528/528 102/102/102 100/100/100
f 103/103/103 102/102/102 528/528/528
f 54/54/54 104/104/104 99/99/99
f 105/105/105 529/529/529 530/530/530
f 528/528/528 108/108/108 103/103/103
f 109/109/109 110/110/110 531/531/531
f 111/111/111 112/112/112 113/113/113
f 114/114/114 59/59/59 115/115/115
f 82/82/82 116/116/116 80/80/80
f 109/109/109 117/117/117 110/110/110
f 531/531/531 110/110/110 532/532/532
f 96/96/96 98/98/98 118/118/118
f 119/119/119 120/120/120 121/121/121
f 121/121/121 120/120/120 122/122/122
f 532/532/532 110/110/110 123/123/123
f 124/124/124 125/125/125 126/126/126
f 127/127/127 128/128/128 129/129/129
f 130/130/130 107/107/107 106/106/106
f 110/110/110 117/117/117 131/131/131
f 80/80/80 116/116/116 132/132/132
f 108/108/108 133/133/133 103/103/103
f 59/59/59 114/114/114 83/83/83
f 76/76/76 94/94/94 134/134/134
f 122/122/122 120/120/120 135/135/135
f 136/136/136 137/137/137 138/138/138
f 139/139/139 140/140/140 141/141/141
f 52/52/52 76/76/76 142/142/142
f 143/143/143 144/144/144 145/145/145
f 575/575/575 576/576/576 577/577/577
f 134/134/134 94/94/94 146/146/146
f 133/133/133 147/147/147 103/103/103
f 83/83/83 114/114/114 148/148/148
f 149/149/149 150/150/150 151/151/151
f 152/152/152 153/153/153 154/154/154
f 52/52/52 142/142/142 155/155/155
f 530/530/530 156/156/156 105/105/105
f 158/158/158 159/159/159 160/160/160
f 158/158/158 161/161/161 159/159/159
f 117/117/117 162/162/162 131/131/131
f 161/161/161 164/164/164 159/159/159
f 165/165/165 166/166/166 167/167/167
f 168/168/168 99/99/99 104/104/104
f 157/157/157 107/107/107 130/130/130
f 578/578/578 579/579/579 580/580/580
f 581/581/581 578/578/578 580/580/580
f 164/164/164 169/169/169 159/159/159
f 582/582/582 583/583/583 584/584/584
f 154/154/154 153/153/153 170/170/170
f 585/585/585 586/586/586 587/587/587
f 171/171/171 172/172/172 173/173/173
f 588/588/588 589/589/589 590/590/590
f 584/584/584 591/591/591 582/582/582
f 592/592/592 593/593/593 594/594/594
f 595/595/595 596/596/596 597/597/597
f 174/174/174 131/131/131 162/162/162
f 175/175/175 176/176/176 177/177/177
f 173/173/173 178/178/178 171/171/171
f 179/179/179 180/180/180 181/181/181
f 182/182/182 183/183/183 184/184/184
f 185/185/185 186/186/186 187/187/187
f 188/188/188 165/165/165 167/167/167
f 189/189/189 190/190/190 191/191/191
f 595/595/595 598/598/598 596/596/596
f 192/192/192 193/193/193 194/194/194
f 138/138/138 195/195/195 196/196/196
f 197/197/197 198/198/198 199/199/199
f 200/200/200 201/201/201 202/202/202
f 189/189/189 203/203/203 190/190/190
f 204/204/204 205/205/205 206/206/206
f 207/207/207 208/208/208 209/209/209
f 205/205/205 210/210/210 206/206/206
f 211/211/211 212/212/212 188/188/188
f 599/599/599 600/600/600 601/601/601
f 156/156/156 530/530/530 213/213/213
f 163/163/163 214/214/214 125/125/125
f 194/194/194 193/193/193 215/215/215
f 179/179/179 181/181/181 216/216/216
f 599/599/599 601/601/601 602/602/602
f 217/217/217 165/165/165 212/212/212
f 165/165/165 188/188/188 212/212/212
f 138/138/138 137/137/137 195/195/195
f 603/603/603 599/599/599 602/602/602
f 604/604/604 605/605/605 606/606/606
f 607/607/607 597/597/597 608/608/608
f 213/213/213 218/218/218 156/156/156
f 206/206/206 210/210/210 219/219/219
f 220/220/220 221/221/221 222/222/222
f 177/177/177 176/176/176 223/223/223
f 224/224/224 225/225/225 226/226/226
f 604/604/604 609/609/609 605/605/605
f 610/610/610 598/598/598 611/611/611
f 610/610/610 596/596/596 598/598/598
f 195/195/195 227/227/227 196/196/196
f 228/228/228 207/207/207 209/209/209
f 183/183/183 229/229/229 184/184/184
f 232/232/232 233/233/233 234/234/234
f 232/232/232 235/235/235 233/233/233
f 223/223/223 236/236/236 177/177/177
f 612/612/612 613/613/613 614/614/614
f 190/190/190 203/203/203 237/237/237
f 596/596/596 608/608/608 597/597/597
f 613/613/613 615/615/615 614/614/614
f 616/616/616 617/617/617 618/618/618
f 619/619/619 620/620/620 621/621/621
f 622/622/622 623/623/623 624/624/624
f 625/625/625 626/626/626 627/627/627
f 628/628/628 619/619/619 621/621/621
f 629/629/629 624/624/624 623/623/623
f 630/630/630 631/631/631 632/632/632
f 633/633/633 630/630/630 632/632/632
f 238/238/238 177/177/177 236/236/236
f 612/612/612 614/614/614 634/634/634
f 612/612/612 634/634/634 635/635/635
f 636/636/636 637/637/637 638/638/638
f 179/179/179 216/216/216 239/239/239
f 639/639/639 612/612/612 635/635/635
f 636/636/636 638/638/638 640/640/640
f 641/641/641 638/638/638 637/637/637
f 642/642/642 638/638/638 641/641/641
f 642/642/642 643/643/643 638/638/638
f 616/616/616 618/618/618 644/644/644
f 645/645/645 646/646/646 647/647/647
f 648/648/648 649/649/649 650/650/650
f 646/646/646 651/651/651 647/647/647
f 608/608/608 596/596/596 610/610/610
f 634/634/634 614/614/614 652/652/652
f 639/639/639 635/635/635 653/653/653
f 654/654/654 655/655/655 656/656/656
f 241/241/241 240/240/240 242/242/242
f 657/657/657 639/639/639 658/658/658
f 179/179/179 239/239/239 243/243/243
f 659/659/659 655/655/655 654/654/654
f 658/658/658 639/639/639 660/660/660
f 661/661/661 662/662/662 663/663/663
f 244/244/244 245/245/245 246/246/246
f 247/247/247 248/248/248 249/249/249
f 664/664/664 665/665/665 666/666/666
f 632/632/632 667/667/667 633/633/633
f 250/250/250 251/251/251 252/252/252
f 668/668/668 604/604/604 606/606/606
f 206/206/206 253/253/253 254/254/254
f 661/661/661 669/669/669 662/662/662
f 670/670/670 662/662/662 669/669/669
f 639/639/639 653/653/653 660/660/660
f 671/671/671 672/672/672 673/673/673
f 206/206/206 219/219/219 253/253/253
f 245/245/245 255/255/255 256/256/256
f 632/632/632 631/631/631 674/674/674
f 245/245/245 256/256/256 246/246/246
f 257/257/257 258/258/258 259/259/259
f 218/218/218 213/213/213 260/260/260
f 673/673/673 675/675/675 671/671/671
f 676/676/676 677/677/677 678/678/678
f 647/647/647 651/651/651 679/679/679
f 203/203/203 261/261/261 237/237/237
f 680/680/680 681/681/681 682/682/682
f 262/262/262 263/263/263 533/533/533
f 683/683/683 684/684/684 685/685/685
f 255/255/255 264/264/264 265/265/265
f 255/255/255 265/265/265 256/256/256
f 686/686/686 687/687/687 688/688/688
f 689/689/689 690/690/690 661/661/661
f 690/690/690 691/691/691 661/661/661
f 692/692/692 693/693/693 694/694/694
f 695/695/695 696/696/696 697/697/697
f 213/213/213 266/266/266 260/260/260
f 691/691/691 669/669/669 661/661/661
f 696/696/696 698/698/698 697/697/697
f 694/694/694 693/693/693 699/699/699
f 700/700/700 701/701/701 655/655/655
f 267/267/267 268/268/268 269/269/269
f 243/243/243 270/270/270 179/179/179
f 702/702/702 703/703/703 704/704/704
f 266/266/266 271/271/271 260/260/260
f 705/705/705 706/706/706 707/707/707
f 272/272/272 273/273/273 274/274/274
f 275/275/275 276/276/276 277/277/277
f 708/708/708 709/709/709 710/710/710
f 710/710/710 711/711/711 708/708/708
f 689/689/689 712/712/712 713/713/713
f 267/267/267 269/269/269 278/278/278
f 691/691/691 714/714/714 669/669/669
f 690/690/690 689/689/689 713/713/713
f 715/715/715 716/716/716 717/717/717
f 230/230/230 279/279/279 231/231/231
f 718/718/718 687/687/687 686/686/686
f 719/719/719 714/714/714 691/691/691
f 717/717/717 716/716/716 720/720/720
f 721/721/721 722/722/722 723/723/723
f 238/238/238 236/236/236 280/280/280
f 668/668/668 700/700/700 604/604/604
f 281/281/281 282/282/282 283/283/283
f 702/702/702 704/704/704 724/724/724
f 682/682/682 681/681/681 725/725/725
f 284/284/284 285/285/285 286/286/286
f 207/207/207 228/228/228 287/287/287
f 288/288/288 289/289/289 290/290/290
f 726/726/726 727/727/727 728/728/728
f 291/291/291 292/292/292 293/293/293
f 294/294/294 295/295/295 296/296/296
f 297/297/297 298/298/298 299/299/299
f 727/727/727 726/726/726 729/729/729
f 238/238/238 280/280/280 300/300/300
f 730/730/730 731/731/731 732/732/732
f 656/656/656 655/655/655 701/701/701
f 733/733/733 734/734/734 735/735/735
f 665/665/665 736/736/736 666/666/666
f 243/243/243 301/301/301 270/270/270
f 302/302/302 303/303/303 304/304/304
f 305/305/305 306/306/306 307/307/307
f 719/719/719 737/737/737 714/714/714
f 738/738/738 739/739/739 740/740/740
f 741/741/741 735/735/735 734/734/734
f 308/308/308 277/277/277 276/276/276
f 722/722/722 721/721/721 742/742/742
f 721/721/721 743/743/743 742/742/742
f 311/311/311 312/312/312 313/313/313
f 314/314/314 315/315/315 316/316/316
f 317/317/317 318/318/318 299/299/299
f 307/307/307 306/306/306 319/319/319
f 320/320/320 321/321/321 322/322/322
f 744/744/744 732/732/732 731/731/731
f 739/739/739 738/738/738 745/745/745
f 666/666/666 608/608/608 610/610/610
f 303/303/303 323/323/323 304/304/304
f 718/718/718 686/686/686 746/746/746
f 747/747/747 748/748/748 749/749/749
f 742/742/742 743/743/743 750/750/750
f 751/751/751 744/744/744 731/731/731
f 324/324/324 325/325/325 326/326/326
f 729/729/729 752/752/752 727/727/727
f 297/297/297 299/299/299 318/318/318
f 753/753/753 754/754/754 755/755/755
f 729/729/729 756/756/756 752/752/752
f 736/736/736 757/757/757 666/666/666
f 282/282/282 327/327/327 283/283/283
f 319/319/319 306/306/306 328/328/328
f 217/217/217 212/212/212 329/329/329
f 330/330/330 304/304/304 323/323/323
f 324/324/324 326/326/326 331/331/331
f 297/297/297 318/318/318 332/332/332
f 711/711/711 710/710/710 758/758/758
f 751/751/751 759/759/759 744/744/744
f 309/309/309 333/333/333 310/310/310
f 533/533/533 334/334/334 335/335/335
f 760/760/760 753/753/753 755/755/755
f 761/761/761 762/762/762 763/763/763
f 285/285/285 336/336/336 286/286/286
f 764/764/764 765/765/765 766/766/766
f 767/767/767 768/768/768 769/769/769
f 770/770/770 771/771/771 772/772/772
f 763/763/763 773/773/773 774/774/774
f 775/775/775 747/747/747 749/749/749
f 291/291/291 293/293/293 337/337/337
f 776/776/776 711/711/711 758/758/758
f 761/761/761 763/763/763 777/777/777
f 778/778/778 750/750/750 743/743/743
f 779/779/779 750/750/750 778/778/778
f 771/771/771 780/780/780 772/772/772
f 339/339/339 340/340/340 338/338/338
f 781/781/781 772/772/772 780/780/780
f 767/767/767 782/782/782 768/768/768
f 316/316/316 315/315/315 341/341/341
f 752/752/752 756/756/756 783/783/783
f 784/784/784 777/777/777 763/763/763
f 785/785/785 786/786/786 787/787/787
f 788/788/788 789/789/789 790/790/790
f 345/345/345 346/346/346 347/347/347
f 752/752/752 783/783/783 791/791/791
f 348/348/348 349/349/349 350/350/350
f 792/792/792 768/768/768 782/782/782
f 774/774/774 784/784/784 763/763/763
f 346/346/346 345/345/345 351/351/351
f 352/352/352 353/353/353 354/354/354
f 793/793/793 794/794/794 795/795/795
f 796/796/796 797/797/797 798/798/798
f 343/343/343 344/344/344 355/355/355
f 799/799/799 800/800/800 765/765/765
f 801/801/801 776/776/776 758/758/758
f 799/799/799 765/765/765 764/764/764
f 785/785/785 787/787/787 802/802/802
f 356/356/356 357/357/357 358/358/358
f 700/700/700 803/803/803 701/701/701
f 297/297/297 332/332/332 359/359/359
f 352/352/352 360/360/360 353/353/353
f 804/804/804 790/790/790 789/789/789
f 361/361/361 362/362/362 363/363/363
f 805/805/805 790/790/790 804/804/804
f 806/806/806 807/807/807 808/808/808
f 796/796/796 809/809/809 797/797/797
f 290/290/290 289/289/289 364/364/364
f 365/365/365 366/366/366 367/367/367
f 810/810/810 811/811/811 812/812/812
f 368/368/368 369/369/369 370/370/370
f 813/813/813 806/806/806 814/814/814
f 815/815/815 816/816/816 817/817/817
f 366/366/366 371/371/371 367/367/367
f 782/782/782 818/818/818 792/792/792
f 372/372/372 373/373/373 374/374/374
f 375/375/375 376/376/376 377/377/377
f 781/781/781 780/780/780 819/819/819
f 791/791/791 783/783/783 820/820/820
f 378/378/378 379/379/379 380/380/380
f 381/381/381 382/382/382 383/383/383
f 806/806/806 808/808/808 814/814/814
f 820/820/820 821/821/821 791/791/791
f 822/822/822 823/823/823 824/824/824
f 384/384/384 385/385/385 386/386/386
f 805/805/805 804/804/804 825/825/825
f 387/387/387 388/388/388 389/389/389
f 826/826/826 608/608/608 666/666/666
f 780/780/780 827/827/827 819/819/819
f 811/811/811 791/791/791 812/812/812
f 374/374/374 373/373/373 390/390/390
f 391/391/391 342/342/342 392/392/392
f 393/393/393 394/394/394 395/395/395
f 828/828/828 829/829/829 830/830/830
f 385/385/385 398/398/398 386/386/386
f 666/666/666 757/757/757 831/831/831
f 828/828/828 830/830/830 832/832/832
f 833/833/833 801/801/801 758/758/758
f 834/834/834 835/835/835 666/666/666
f 822/822/822 824/824/824 836/836/836
f 400/400/400 327/327/327 282/282/282
f 393/393/393 401/401/401 394/394/394
f 837/837/837 838/838/838 823/823/823
f 402/402/402 334/334/334 533/533/533
f 286/286/286 336/336/336 403/403/403
f 404/404/404 405/405/405 406/406/406
f 407/407/407 408/408/408 289/289/289
f 405/405/405 409/409/409 406/406/406
f 405/405/405 410/410/410 409/409/409
f 839/839/839 840/840/840 841/841/841
f 842/842/842 841/841/841 840/840/840
f 293/293/293 411/411/411 337/337/337
f 824/824/824 823/823/823 838/838/838
f 396/396/396 412/412/412 397/397/397
f 821/821/821 812/812/812 791/791/791
f 843/843/843 844/844/844 845/845/845
f 364/364/364 289/289/289 408/408/408
f 413/413/413 414/414/414 378/378/378
f 399/399/399 415/415/415 392/392/392
f 416/416/416 417/417/417 418/418/418
f 833/833/833 758/758/758 846/846/846
f 370/370/370 369/369/369 419/419/419
f 666/666/666 831/831/831 834/834/834
f 413/413/413 420/420/420 414/414/414
f 378/378/378 414/414/414 379/379/379
f 816/816/816 815/815/815 847/847/847
f 844/844/844 848/848/848 845/845/845
f 533/533/533 263/263/263 402/402/402
f 849/849/849 850/850/850 851/851/851
f 369/369/369 421/421/421 419/419/419
f 852/852/852 853/853/853 854/854/854
f 700/700/700 855/855/855 803/803/803
f 821/821/821 856/856/856 812/812/812
f 833/833/833 846/846/846 857/857/857
f 422/422/422 400/400/400 282/282/282
f 332/332/332 423/423/423 359/359/359
f 858/858/858 859/859/859 860/860/860
f 401/401/401 393/393/393 424/424/424
f 425/425/425 426/426/426 427/427/427
f 428/428/428 429/429/429 425/425/425
f 824/824/824 838/838/838 861/861/861
f 427/427/427 428/428/428 425/425/425
f 430/430/430 431/431/431 432/432/432
f 433/433/433 337/337/337 411/411/411
f 862/862/862 863/863/863 864/864/864
f 434/434/434 414/414/414 420/420/420
f 432/432/432 435/435/435 430/430/430
f 422/422/422 436/436/436 400/400/400
f 429/429/429 428/428/428 437/437/437
f 435/435/435 432/432/432 438/438/438
f 414/414/414 434/434/434 439/439/439
f 440/440/440 441/441/441 442/442/442
f 443/443/443 444/444/444 445/445/445
f 436/436/436 422/422/422 446/446/446
f 853/853/853 865/865/865 854/854/854
f 866/866/866 861/861/861 838/838/838
f 856/856/856 821/821/821 867/867/867
f 212/212/212 348/348/348 329/329/329
f 447/447/447 448/448/448 449/449/449
f 868/868/868 847/847/847 815/815/815
f 869/869/869 859/859/859 858/858/858
f 450/450/450 451/451/451 452/452/452
f 453/453/453 454/454/454 436/436/436
f 455/455/455 456/456/456 457/457/457
f 458/458/458 459/459/459 460/460/460
f 856/856/856 870/870/870 812/812/812
f 461/461/461 449/449/449 448/448/448
f 871/871/871 842/842/842 872/872/872
f 436/436/436 446/446/446 453/453/453
f 869/869/869 858/858/858 873/873/873
f 851/851/851 850/850/850 874/874/874
f 462/462/462 459/459/459 458/458/458
f 463/463/463 464/464/464 465/465/465
f 466/466/466 397/397/397 412/412/412
f 875/875/875 862/862/862 864/864/864
f 465/465/465 464/464/464 467/467/467
f 834/834/834 876/876/876 835/835/835
f 877/877/877 841/841/841 842/842/842
f 826/826/826 666/666/666 835/835/835
f 459/459/459 462/462/462 468/468/468
f 878/878/878 879/879/879 880/880/880
f 469/469/469 470/470/470 471/471/471
f 874/874/874 881/881/881 882/882/882
f 878/878/878 880/880/880 883/883/883
f 850/850/850 881/881/881 874/874/874
f 451/451/451 450/450/450 472/472/472
f 464/464/464 473/473/473 467/467/467
f 879/879/879 884/884/884 880/880/880
f 453/453/453 474/474/474 454/454/454
f 475/475/475 476/476/476 477/477/477
f 846/846/846 885/885/885 857/857/857
f 478/478/478 479/479/479 480/480/480
f 480/480/480 481/481/481 482/482/482
f 451/451/451 472/472/472 483/483/483
f 484/484/484 482/482/482 481/481/481
f 886/886/886 887/887/887 888/888/888
f 889/889/889 870/870/870 856/856/856
f 890/890/890 875/875/875 864/864/864
f 461/461/461 485/485/485 449/449/449
f 885/885/885 891/891/891 857/857/857
f 473/473/473 486/486/486 467/467/467
f 479/479/479 481/481/481 480/480/480
f 890/890/890 864/864/864 892/892/892
f 456/456/456 455/455/455 487/487/487
f 487/487/487 488/488/488 456/456/456
f 893/893/893 894/894/894 895/895/895
f 467/467/467 486/486/486 489/489/489
f 866/866/866 887/887/887 861/861/861
f 896/896/896 897/897/897 898/898/898
f 899/899/899 887/887/887 866/866/866
f 896/896/896 898/898/898 900/900/900
f 901/901/901 874/874/874 882/882/882
f 489/489/489 486/486/486 490/490/490
f 898/898/898 902/902/902 900/900/900
f 903/903/903 874/874/874 901/901/901
f 892/892/892 904/904/904 890/890/890
f 905/905/905 906/906/906 907/907/907
f 890/890/890 904/904/904 908/908/908
f 491/491/491 492/492/492 493/493/493
f 909/909/909 910/910/910 911/911/911
f 494/494/494 402/402/402 263/263/263
f 491/491/491 493/493/493 495/495/495
f 912/912/912 913/913/913 914/914/914
f 496/496/496 449/449/449 485/485/485
f 907/907/907 906/906/906 915/915/915
f 916/916/916 912/912/912 914/914/914
f 917/917/917 918/918/918 876/876/876
f 493/493/493 492/492/492 497/497/497
f 497/497/497 498/498/498 493/493/493
f 449/449/449 496/496/496 499/499/499
f 498/498/498 497/497/497 500/500/500
f 916/916/916 914/914/914 919/919/919
f 263/263/263 501/501/501 494/494/494
f 835/835/835 876/876/876 918/918/918
f 904/904/904 920/920/920 908/908/908
f 921/921/921 922/922/922 923/923/923
f 920/920/920 924/924/924 908/908/908
f 925/925/925 926/926/926 927/927/927
f 496/496/496 502/502/502 499/499/499
f 928/928/928 929/929/929 930/930/930
f 503/503/503 504/504/504 505/505/505
f 932/932/932 933/933/933 934/934/934
f 506/506/506 507/507/507 508/508/508
f 935/935/935 936/936/936 937/937/937
f 494/494/494 509/509/509 402/402/402
f 503/503/503 510/510/510 504/504/504
f 508/508/508 507/507/507 511/511/511
f 889/889/889 930/930/930 929/929/929
f 928/928/928 930/930/930 938/938/938
f 922/922/922 939/939/939 923/923/923
f 512/512/512 513/513/513 514/514/514
f 513/513/513 515/515/515 514/514/514
f 515/515/515 513/513/513 516/516/516
f 501/501/501 517/517/517 494/494/494
f 518/518/518 519/519/519 520/520/520
f 521/521/521 501/501/501 522/522/522
f 940/940/940 941/941/941 942/942/942
f 932/932/932 943/943/943 933/933/933
f 501/501/501 521/521/521 523/523/523
f 919/919/919 914/914/914 944/944/944
f 524/524/524 525/525/525 526/526/526
f 501/501/501 523/523/523 517/517/517
f 930/930/930 931/931/931 945/945/945
f 524/524/524 526/526/526 527/527/527
f 941/941/941 946/946/946 942/942/942
f 931/931/931 947/947/947 945/945/945
f 932/932/932 948/948/948 943/943/943
f 1/1/1 2/2/2 3/3/3
f 942/942/942 946/946/946 949/949/949
f 4/4/4 5/5/5 6/6/6
f 1/1/1 3/3/3 7/7/7
f 8/8/8 9/9/9 10/10/10
f 9/9/9 8/8/8 11/11/11
f 949/949/949 946/946/946 950/950/950
f 12/12/12 13/13/13 14/14/14
f 15/15/15 16/16/16 17/17/17
f 18/18/18 19/19/19 20/20/20
f 3/3/3 21/21/21 7/7/7
f 7/7/7 21/21/21 22/22/22
f 14/14/14 23/23/23 12/12/12
f 21/21/21 3/3/3 24/24/24
f 25/25/25 26/26/26 27/27/27
f 28/28/28 29/29/29 30/30/30
f 952/952/952 953/953/953 954/954/954
f 952/952/952 954/954/954 953/953/953
f 952/952/952 954/954/954 955/955/955
f 952/952/952 955/955/955 954/954/954
f 952/952/952 955/955/955 956/956/956
f 952/952/952 956/956/956 955/955/955
f 952/952/952 956/956/956 957/957/957
f 952/952/952 957/957/957 956/956/956
f 952/952/952 957/957/957 958/958/958
f 952/952/952 958/958/958 957/957/957
f 952/952/952 958/958/958 959/959/959
f 952/952/952 959/959/959 958/958/958
f 952/952/952 959/959/959 960/960/960
f 952/952/952 960/960/960 959/959/959
f 952/952/952 960/960/960 961/961/961
f 952/952/952 961/961/961 960/960/960
f 952/952/952 961/961/961 962/962/962
f 952/952/952 962/962/962 961/961/961
f 952/952/952 962/962/962 963/963/963
f 952/952/952 963/963/963 962/962/962
f 952/952/952 963/963/963 964/964/964
f 952/952/952 964/964/964 963/963/963
f 952/952/952 964/964/964 965/965/965
f 952/952/952 965/965/965 964/964/964
f 952/952/952 965/965/965 966/966/966
f 952/952/952 966/966/966 965/965/965
f 952/952/952 966/966/966 967/967/967
f 952/952/952 967/967/967 966/966/966
f 952/952/952 967/967/967 968/968/968
f 952/952/952 968/968/968 967/967/967
f 952/952/952 968/968/968 969/969/969
f 952/952/952 969/969/969 968/968/968
f 952/952/952 969/969/969 970/970/970
f 952/952/952 970/970/970 969/969/969
f 952/952/952 970/970/970 971/971/971
f 952/952/952 971/971/971 970/970/970
f 952/952/952 971/971/971 972/972/972
f 952/952/952 972/972/972 971/971/971
f 952/952/952 972/972/972 973/973/973
f 952/952/952 973/973/973 972/972/972
f 952/952/952 973/973/973 974/974/974
f 952/952/952 974/974/974 973/973/973
f 952/952/952 974/974/974 975/975/975
f 952/952/952 975/975/975 974/974/974
f 952/952/952 975/975/975 976/976/976
f 952/952/952 976/976/976 975/975/975
f 952/952/952 976/976/976 977/977/977
f 952/952/952 977/977/977 976/976/976
f 952/952/952 977/977/977 978/978/978
f 952/952/952 978/978/978 977/977/977
f 952/952/952 978/978/978 979/979/979
f 952/952/952 979/979/979 978/978/978
f 952/952/952 979/979/979 980/980/980
f 952/952/952 980/980/980 979/979/979
f 952/952/952 980/980/980 981/981/981
f 952/952/952 981/981/981 980/980/980
f 952/952/952 981/981/981 982/982/982
f 952/952/952 982/982/982 981/981/981
f 952/952/952 982/982/982 983/983/983
f 952/952/952 983/983/983 982/982/982
f 952/952/952 983/983/983 984/984/984
f 952/952/952 984/984/984 983/983/983
f 952/952/952 984/984/984 985/985/985
f 952/952/952 985/985/985 984/984/984
f 952/952/952 985/985/985 986/986/986
f 952/952/952 986/986/986 985/985/985
f 952/952/952 986/986/986 987/987/987
f 952/952/952 987/987/987 986/986/986
f 952/952/952 987/987/987 988/988/988
f 952/952/952 988/988/988 987/987/987
f 952/952/952 988/988/988 989/989/989
f 952/952/952 989/989/989 988/988/988
f 952/952/952 989/989/989 990/990/990
f 952/952/952 990/990/990 989/989/989
f 952/952/952 990/990/990 991/991/991
f 952/952/952 991/991/991 990/990/990
f 952/952/952 991/991/991 992/992/992
f 952/952/952 992/992/992 991/991/991
f 952/952/952 992/992/992 993/993/993
f 952/952/952 993/993/993 992/992/992
f 952/952/952 993/993/993 994/994/994
f 952/952/952 994/994/994 993/993/993
f 952/952/952 994/994/994 995/995/995
f 952/952/952 995/995/995 994/994/994
f 952/952/952 995/995/995 996/996/996
f 952/952/952 996/996/996 995/995/995
f 952/952/952 996/996/996 997/997/997
f 952/952/952 997/997/997 996/996/996
f 952/952/952 997/997/997 998/998/998
f 952/952/952 998/998/998 997/997/997
f 952/952/952 998/998/998 999/999/999
f 952/952/952 999/999/999 998/998/998
f 952/952/952 999/999/999 1000/1000/1000
f 952/952/952 1000/1000/1000 999/999/999
f 952/952/952 1000/1000/1000 1001/1001/1001
f 952/952/952 1001/1001/1001 1000/1000/1000
f 952/952/952 1001/1001/1001 1002/1002/1002
f 952/952/952 1002/1002/1002 1001/1001/1001
f 952/952/952 1002/1002/1002 1003/1003/1003
f 952/952/952 1003/1003/1003 1002/1002/1002
f 952/952/952 1003/1003/1003 1004/1004/1004
f 952/952/952 1004/1004/1004 1003/1003/1003
f 952/952/952 1004/1004/1004 1005/1005/1005
f 952/952/952 1005/1005/1005 1004/1004/1004
f 952/952/952 1005/1005/1005 1006/1006/1006
f 952/952/952 1006/1006/1006 1005/1005/1005
f 952/952/952 1006/1006/1006 1007/1007/1007
f 952/952/952 1007/1007/1007 1006/1006/1006
f 952/952/952 1007/1007/1007 1008/1008/1008
f 952/952/952 1008/1008/1008 1007/1007/1007
f 952/952/952 1008/1008/1008 1009/1009/1009
f 952/952/952 1009/1009/1009 1008/1008/1008
f 952/952/952 1009/1009/1009 1010/1010/1010
f 952/952/952 1010/1010/1010 1009/1009/1009
f 952/952/952 1010/1010/1010 1011/1011/1011
f 952/952/952 1011/1011/1011 1010/1010/1010
f 952/952/952 1011/1011/1011 1012/1012/1012
f 952/952/952 1012/1012/1012 1011/1011/1011
f 952/952/952 1012/1012/1012 1013/1013/1013
f 952/952/952 1013/1013/1013 1012/1012/1012
f 952/952/952 1013/1013/1013 1014/1014/1014
f 952/952/952 1014/1014/1014 1013/1013/1013
f 952/952/952 1014/1014/1014 1015/1015/1015
f 952/952/952 1015/1015/1015 1014/1014/1014
f 952/952/952 1015/1015/1015 1016/1016/1016
f 952/952/952 1016/1016/1016 1015/1015/1015
f 952/952/952 1016/1016/1016 1017/1017/1017
f 952/952/952 1017/1017/1017 1016/1016/1016
f 952/952/952 1017/1017/1017 1018/1018/1018
f 952/952/952 1018/1018/1018 1017/1017/1017
f 952/952/952 1018/1018/1018 1019/1019/1019
f 952/952/952 1019/1019/1019 1018/1018/1018
f 952/952/952 1019/1019/1019 1020/1020/1020
f 952/952/952 1020/1020/1020 1019/1019/1019
f 952/952/952 1020/1020/1020 953/953/953
f 952/952/952 953/953/953 1020/1020/1020
