o leg_right
v 0.05893 0.15245 -0.04394
v 0.05837 0.15189 -0.05114
v 0.05724 0.16525 -0.05278
v 0.05724 0.16525 -0.05278
v 0.05743 0.16737 -0.04491
v 0.05893 0.15245 -0.04394
v 0.05893 0.15245 -0.04394
v 0.05743 0.16737 -0.04491
v 0.05640 0.15875 -0.04343
v 0.05837 0.15189 -0.05114
v 0.05125 0.15133 -0.05140
v 0.05724 0.16525 -0.05278
v 0.04973 0.16453 -0.05293
v 0.05724 0.16525 -0.05278
v 0.05125 0.15133 -0.05140
v 0.05724 0.16525 -0.05278
v 0.05579 0.16798 -0.04444
v 0.05743 0.16737 -0.04491
v 0.05640 0.15875 -0.04343
v 0.05743 0.16737 -0.04491
v 0.05579 0.16798 -0.04444
v 0.05634 0.15999 -0.03860
v 0.05640 0.15875 -0.04343
v 0.05579 0.16798 -0.04444
v 0.05634 0.15999 -0.03860
v 0.05579 0.16798 -0.04444
v 0.05505 0.17383 -0.04259
v 0.05139 0.15154 -0.04362
v 0.05837 0.15189 -0.05114
v 0.05893 0.15245 -0.04394
v 0.05724 0.16525 -0.05278
v 0.05016 0.16533 -0.05219
v 0.05521 0.17315 -0.04915
v 0.05579 0.16798 -0.04444
v 0.05724 0.16525 -0.05278
v 0.05521 0.17315 -0.04915
v 0.05505 0.17383 -0.04259
v 0.05579 0.16798 -0.04444
v 0.05521 0.17315 -0.04915
v 0.05505 0.17383 -0.04259
v 0.05081 0.16462 -0.03628
v 0.05634 0.15999 -0.03860
v 0.05893 0.15245 -0.04394
v 0.05640 0.15875 -0.04343
v 0.05122 0.15819 -0.04406
v 0.05893 0.15245 -0.04394
v 0.05122 0.15819 -0.04406
v 0.05139 0.15154 -0.04362
v 0.05634 0.15999 -0.03860
v 0.05122 0.15819 -0.04406
v 0.05640 0.15875 -0.04343
v 0.05505 0.17383 -0.04259
v 0.05521 0.17315 -0.04915
v 0.05291 0.17431 -0.04306
v 0.04030 0.15979 -0.03955
v 0.05634 0.15999 -0.03860
v 0.05081 0.16462 -0.03628
v 0.04837 0.17230 -0.04837
v 0.05521 0.17315 -0.04915
v 0.05016 0.16533 -0.05219
v 0.05291 0.17431 -0.04306
v 0.05521 0.17315 -0.04915
v 0.04837 0.17230 -0.04837
v 0.05291 0.17431 -0.04306
v 0.04813 0.17875 -0.03501
v 0.05505 0.17383 -0.04259
v 0.05139 0.15154 -0.04362
v 0.05125 0.15133 -0.05140
v 0.05837 0.15189 -0.05114
v 0.04030 0.15979 -0.03955
v 0.05122 0.15819 -0.04406
v 0.05634 0.15999 -0.03860
v 0.05505 0.17383 -0.04259
v 0.04877 0.16902 -0.03201
v 0.05081 0.16462 -0.03628
v 0.05724 0.16525 -0.05278
v 0.04973 0.16453 -0.05293
v 0.05016 0.16533 -0.05219
v 0.05125 0.15133 -0.05140
v 0.05139 0.15154 -0.04362
v 0.05122 0.15819 -0.04406
v 0.05125 0.15133 -0.05140
v 0.05122 0.15819 -0.04406
v 0.04985 0.15859 -0.04626
v 0.05125 0.15133 -0.05140
v 0.04985 0.15859 -0.04626
v 0.04973 0.16453 -0.05293
v 0.04813 0.17875 -0.03501
v 0.04877 0.16902 -0.03201
v 0.05505 0.17383 -0.04259
v 0.05016 0.16533 -0.05219
v 0.04973 0.16453 -0.05293
v 0.04837 0.17230 -0.04837
v 0.04837 0.17230 -0.04837
v 0.04973 0.16453 -0.05293
v 0.04985 0.15859 -0.04626
v 0.05291 0.17431 -0.04306
v 0.03721 0.17732 -0.03675
v 0.04813 0.17875 -0.03501
v 0.04813 0.17875 -0.03501
v 0.04815 0.16919 -0.02927
v 0.04877 0.16902 -0.03201
v 0.03771 0.17318 -0.04355
v 0.04182 0.17151 -0.04889
v 0.03577 0.17110 -0.05058
v 0.04815 0.16919 -0.02927
v 0.04541 0.18587 -0.02892
v 0.04540 0.18748 -0.02461
v 0.04815 0.16919 -0.02927
v 0.04813 0.17875 -0.03501
v 0.04541 0.18587 -0.02892
v 0.04815 0.16919 -0.02927
v 0.04540 0.18748 -0.02461
v 0.04533 0.18400 -0.01777
v 0.03895 0.16803 -0.03067
v 0.03989 0.16795 -0.03298
v 0.04815 0.16919 -0.02927
v 0.04324 0.16596 -0.04805
v 0.04837 0.17230 -0.04837
v 0.04985 0.15859 -0.04626
v 0.04384 0.18952 -0.01875
v 0.04533 0.18400 -0.01777
v 0.04540 0.18748 -0.02461
v 0.04540 0.18748 -0.02461
v 0.04449 0.19508 -0.02181
v 0.04384 0.18952 -0.01875
v 0.04985 0.15859 -0.04626
v 0.05122 0.15819 -0.04406
v 0.04393 0.15765 -0.04725
v 0.04533 0.18400 -0.01777
v 0.04384 0.18952 -0.01875
v 0.04258 0.18849 -0.01784
v 0.03989 0.16795 -0.03298
v 0.04877 0.16902 -0.03201
v 0.04815 0.16919 -0.02927
v 0.04324 0.16596 -0.04805
v 0.04985 0.15859 -0.04626
v 0.04393 0.15765 -0.04725
v 0.04030 0.15979 -0.03955
v 0.04393 0.15765 -0.04725
v 0.05122 0.15819 -0.04406
v 0.03771 0.17318 -0.04355
v 0.05291 0.17431 -0.04306
v 0.04837 0.17230 -0.04837
v 0.04837 0.17230 -0.04837
v 0.04324 0.16596 -0.04805
v 0.04182 0.17151 -0.04889
v 0.03989 0.16795 -0.03298
v 0.04030 0.15979 -0.03955
v 0.05081 0.16462 -0.03628
v 0.04093 0.18672 -0.02873
v 0.04540 0.18748 -0.02461
v 0.04541 0.18587 -0.02892
v 0.04469 0.15209 -0.04756
v 0.04324 0.16596 -0.04805
v 0.04393 0.15765 -0.04725
v 0.04353 0.15161 -0.05512
v 0.04295 0.16430 -0.05577
v 0.04469 0.15209 -0.04756
v 0.04295 0.16430 -0.05577
v 0.04324 0.16596 -0.04805
v 0.04469 0.15209 -0.04756
v 0.04030 0.15979 -0.03955
v 0.03679 0.15905 -0.04225
v 0.04393 0.15765 -0.04725
v 0.03721 0.17732 -0.03675
v 0.05291 0.17431 -0.04306
v 0.03771 0.17318 -0.04355
v 0.04384 0.18952 -0.01875
v 0.04449 0.19508 -0.02181
v 0.04258 0.18849 -0.01784
v 0.04324 0.16596 -0.04805
v 0.04295 0.16430 -0.05577
v 0.04217 0.16707 -0.05299
v 0.03672 0.15129 -0.05513
v 0.04353 0.15161 -0.05512
v 0.04469 0.15209 -0.04756
v 0.04353 0.15161 -0.05512
v 0.03672 0.15129 -0.05513
v 0.04295 0.16430 -0.05577
v 0.04813 0.17875 -0.03501
v 0.04093 0.18672 -0.02873
v 0.04541 0.18587 -0.02892
v 0.04324 0.16596 -0.04805
v 0.04217 0.16707 -0.05299
v 0.04182 0.17151 -0.04889
v 0.03771 0.17318 -0.04355
v 0.04837 0.17230 -0.04837
v 0.04182 0.17151 -0.04889
v 0.04258 0.18849 -0.01784
v 0.04449 0.19508 -0.02181
v 0.03001 0.19664 0.00250
v 0.04168 0.18478 -0.01586
v 0.04122 0.18418 -0.01613
v 0.04258 0.18849 -0.01784
v 0.03989 0.16795 -0.03298
v 0.05081 0.16462 -0.03628
v 0.04877 0.16902 -0.03201
v 0.03672 0.15129 -0.05513
v 0.04469 0.15209 -0.04756
v 0.03758 0.15126 -0.04700
v 0.04533 0.18400 -0.01777
v 0.04258 0.18849 -0.01784
v 0.04122 0.18418 -0.01613
v 0.04093 0.18672 -0.02873
v 0.03634 0.19485 -0.02669
v 0.04540 0.18748 -0.02461
v 0.04168 0.18478 -0.01586
v 0.04258 0.18849 -0.01784
v 0.03001 0.19664 0.00250
v 0.03001 0.19664 0.00250
v 0.04449 0.19508 -0.02181
v 0.03682 0.20296 -0.00963
v 0.03771 0.17318 -0.04355
v 0.04030 0.15979 -0.03955
v 0.03989 0.16795 -0.03298
v 0.04533 0.18400 -0.01777
v 0.03520 0.18123 -0.02080
v 0.04815 0.16919 -0.02927
v 0.03721 0.17732 -0.03675
v 0.03572 0.18413 -0.03000
v 0.04813 0.17875 -0.03501
v 0.04393 0.15765 -0.04725
v 0.03679 0.15905 -0.04225
v 0.03723 0.15859 -0.04695
v 0.03572 0.18413 -0.03000
v 0.04093 0.18672 -0.02873
v 0.04813 0.17875 -0.03501
v 0.04533 0.18400 -0.01777
v 0.04122 0.18418 -0.01613
v 0.03559 0.18424 -0.01823
v 0.03565 0.16499 -0.05433
v 0.04217 0.16707 -0.05299
v 0.04295 0.16430 -0.05577
v 0.04217 0.16707 -0.05299
v 0.03577 0.17110 -0.05058
v 0.04182 0.17151 -0.04889
v 0.04093 0.18672 -0.02873
v 0.03572 0.18413 -0.03000
v 0.03464 0.19238 -0.02582
v 0.04393 0.15765 -0.04725
v 0.03723 0.15859 -0.04695
v 0.03758 0.15126 -0.04700
v 0.04815 0.16919 -0.02927
v 0.03520 0.18123 -0.02080
v 0.03895 0.16803 -0.03067
v 0.03634 0.19485 -0.02669
v 0.04449 0.19508 -0.02181
v 0.04540 0.18748 -0.02461
v 0.03679 0.15905 -0.04225
v 0.04030 0.15979 -0.03955
v 0.03771 0.17318 -0.04355
v 0.03771 0.17318 -0.04355
v 0.03989 0.16795 -0.03298
v 0.03622 0.17581 -0.03721
v 0.03600 0.16421 -0.05572
v 0.03565 0.16499 -0.05433
v 0.04295 0.16430 -0.05577
v 0.03520 0.18123 -0.02080
v 0.04533 0.18400 -0.01777
v 0.03559 0.18424 -0.01823
v 0.04469 0.15209 -0.04756
v 0.04393 0.15765 -0.04725
v 0.03758 0.15126 -0.04700
v 0.03895 0.16803 -0.03067
v 0.03698 0.17606 -0.03293
v 0.03989 0.16795 -0.03298
v 0.03698 0.17606 -0.03293
v 0.03622 0.17581 -0.03721
v 0.03989 0.16795 -0.03298
v 0.03679 0.15905 -0.04225
v 0.03771 0.17318 -0.04355
v 0.03516 0.17206 -0.04540
v 0.03771 0.17318 -0.04355
v 0.03577 0.17110 -0.05058
v 0.03516 0.17206 -0.04540
v 0.03771 0.17318 -0.04355
v 0.03622 0.17581 -0.03721
v 0.03721 0.17732 -0.03675
v 0.03672 0.15129 -0.05513
v 0.03600 0.16421 -0.05572
v 0.04295 0.16430 -0.05577
v 0.03464 0.19238 -0.02582
v 0.03634 0.19485 -0.02669
v 0.04093 0.18672 -0.02873
v 0.03723 0.15859 -0.04695
v 0.03609 0.16077 -0.04772
v 0.03758 0.15126 -0.04700
v 0.03698 0.17606 -0.03293
v 0.03572 0.18413 -0.03000
v 0.03721 0.17732 -0.03675
v 0.03622 0.17581 -0.03721
v 0.03698 0.17606 -0.03293
v 0.03721 0.17732 -0.03675
v 0.04168 0.18478 -0.01586
v 0.03559 0.18424 -0.01823
v 0.04122 0.18418 -0.01613
v 0.03516 0.17206 -0.04540
v 0.03723 0.15859 -0.04695
v 0.03679 0.15905 -0.04225
v 0.03577 0.17110 -0.05058
v 0.04217 0.16707 -0.05299
v 0.03565 0.16499 -0.05433
v 0.03723 0.15859 -0.04695
v 0.03577 0.17110 -0.05058
v 0.03609 0.16077 -0.04772
v 0.03723 0.15859 -0.04695
v 0.03516 0.17206 -0.04540
v 0.03577 0.17110 -0.05058
v 0.03600 0.16421 -0.05572
v 0.03758 0.15126 -0.04700
v 0.03565 0.16499 -0.05433
v 0.03600 0.16421 -0.05572
v 0.03672 0.15129 -0.05513
v 0.03758 0.15126 -0.04700
v 0.03520 0.18123 -0.02080
v 0.03698 0.17606 -0.03293
v 0.03895 0.16803 -0.03067
v 0.03565 0.16499 -0.05433
v 0.03758 0.15126 -0.04700
v 0.03609 0.16077 -0.04772
v 0.03520 0.18123 -0.02080
v 0.03572 0.18413 -0.03000
v 0.03698 0.17606 -0.03293
v 0.03609 0.16077 -0.04772
v 0.03577 0.17110 -0.05058
v 0.03565 0.16499 -0.05433
v 0.03572 0.18413 -0.03000
v 0.03520 0.18123 -0.02080
v 0.03381 0.18396 -0.02216
v 0.03520 0.18123 -0.02080
v 0.03559 0.18424 -0.01823
v 0.03381 0.18396 -0.02216
v 0.03682 0.20296 -0.00963
v 0.03634 0.19485 -0.02669
v 0.03214 0.19845 -0.02213
v 0.03381 0.18396 -0.02216
v 0.03464 0.19238 -0.02582
v 0.03572 0.18413 -0.03000
v 0.03234 0.20816 -0.00257
v 0.03001 0.19664 0.00250
v 0.03682 0.20296 -0.00963
v 0.03464 0.19238 -0.02582
v 0.03214 0.19845 -0.02213
v 0.03634 0.19485 -0.02669
v 0.04168 0.18478 -0.01586
v 0.03182 0.18460 -0.02183
v 0.03559 0.18424 -0.01823
v 0.03381 0.18396 -0.02216
v 0.03182 0.18460 -0.02183
v 0.03464 0.19238 -0.02582
v 0.03682 0.20296 -0.00963
v 0.04449 0.19508 -0.02181
v 0.03634 0.19485 -0.02669
v 0.03182 0.18460 -0.02183
v 0.03381 0.18396 -0.02216
v 0.03559 0.18424 -0.01823
v 0.03682 0.20296 -0.00963
v 0.03214 0.19845 -0.02213
v 0.02589 0.20495 -0.01383
v 0.03464 0.19238 -0.02582
v 0.03182 0.18460 -0.02183
v 0.03214 0.19845 -0.02213
v 0.02890 0.21187 0.00329
v 0.03234 0.20816 -0.00257
v 0.02366 0.21125 -0.00371
v 0.03234 0.20816 -0.00257
v 0.03682 0.20296 -0.00963
v 0.02366 0.21125 -0.00371
v 0.03182 0.18460 -0.02183
v 0.02589 0.20495 -0.01383
v 0.03214 0.19845 -0.02213
v 0.02366 0.21125 -0.00371
v 0.03682 0.20296 -0.00963
v 0.02098 0.20931 -0.00800
v 0.02890 0.21187 0.00329
v 0.03001 0.19664 0.00250
v 0.03234 0.20816 -0.00257
v 0.02098 0.20931 -0.00800
v 0.03682 0.20296 -0.00963
v 0.02589 0.20495 -0.01383
v 0.02890 0.19622 0.00231
v 0.03001 0.19664 0.00250
v 0.02500 0.20276 0.00992
v 0.02890 0.19622 0.00231
v 0.02643 0.19558 -0.00072
v 0.03001 0.19664 0.00250
v 0.03001 0.19664 0.00250
v 0.02643 0.19558 -0.00072
v 0.04168 0.18478 -0.01586
v 0.02643 0.19558 -0.00072
v 0.02226 0.19539 -0.00292
v 0.04168 0.18478 -0.01586
v 0.03001 0.19664 0.00250
v 0.02890 0.21187 0.00329
v 0.02500 0.20276 0.00992
v 0.02890 0.21187 0.00329
v 0.02331 0.20263 0.01071
v 0.02500 0.20276 0.00992
v 0.02331 0.20263 0.01071
v 0.02890 0.19622 0.00231
v 0.02500 0.20276 0.00992
v 0.02643 0.19558 -0.00072
v 0.02890 0.19622 0.00231
v 0.02226 0.19539 -0.00292
v 0.02331 0.20263 0.01071
v 0.02890 0.21187 0.00329
v 0.02434 0.21339 0.00420
v 0.01887 0.20184 0.01023
v 0.02890 0.19622 0.00231
v 0.02331 0.20263 0.01071
v 0.02226 0.19539 -0.00292
v 0.02890 0.19622 0.00231
v 0.01578 0.19383 0.00685
v 0.02890 0.21187 0.00329
v 0.02366 0.21125 -0.00371
v 0.02434 0.21339 0.00420
v 0.02427 0.22100 -0.00314
v 0.02439 0.22145 0.01656
v 0.02434 0.21339 0.00420
v 0.03182 0.18460 -0.02183
v 0.02098 0.20931 -0.00800
v 0.02589 0.20495 -0.01383
v 0.01887 0.20184 0.01023
v 0.01934 0.19499 0.00970
v 0.02890 0.19622 0.00231
v 0.02226 0.19539 -0.00292
v 0.03182 0.18460 -0.02183
v 0.04168 0.18478 -0.01586
v 0.02890 0.19622 0.00231
v 0.01934 0.19499 0.00970
v 0.01578 0.19383 0.00685
v 0.02226 0.19539 -0.00292
v 0.01682 0.19787 -0.00290
v 0.03182 0.18460 -0.02183
v 0.02427 0.22100 -0.00314
v 0.02434 0.21339 0.00420
v 0.02366 0.21125 -0.00371
v 0.02434 0.21339 0.00420
v 0.02439 0.22145 0.01656
v 0.02305 0.20263 0.01438
v 0.02439 0.22145 0.01656
v 0.02427 0.22100 -0.00314
v 0.01840 0.22209 -0.00227
v 0.02434 0.21339 0.00420
v 0.02305 0.20263 0.01438
v 0.02331 0.20263 0.01071
v 0.01645 0.20210 -0.00395
v 0.03182 0.18460 -0.02183
v 0.01682 0.19787 -0.00290
v 0.02331 0.20263 0.01071
v 0.02305 0.20263 0.01438
v 0.01887 0.20184 0.01023
v 0.02366 0.21125 -0.00371
v 0.02098 0.20931 -0.00800
v 0.01856 0.21144 -0.00459
v 0.02439 0.22145 0.01656
v 0.01840 0.22209 -0.00227
v 0.01983 0.22192 0.01148
v 0.02427 0.22100 -0.00314
v 0.02366 0.21125 -0.00371
v 0.01856 0.21144 -0.00459
v 0.02439 0.22145 0.01656
v 0.01261 0.20910 0.01697
v 0.02305 0.20263 0.01438
v 0.01645 0.20210 -0.00395
v 0.02098 0.20931 -0.00800
v 0.03182 0.18460 -0.02183
v 0.02439 0.22145 0.01656
v 0.01983 0.22192 0.01148
v 0.01519 0.22158 0.01332
v 0.02427 0.22100 -0.00314
v 0.01856 0.21144 -0.00459
v 0.01380 0.22692 -0.00254
v 0.02427 0.22100 -0.00314
v 0.01380 0.22692 -0.00254
v 0.01840 0.22209 -0.00227
v 0.02098 0.20931 -0.00800
v 0.01645 0.20210 -0.00395
v 0.01856 0.21144 -0.00459
v 0.01983 0.22192 0.01148
v 0.01840 0.22209 -0.00227
v 0.01919 0.23237 0.00783
v 0.01856 0.21144 -0.00459
v 0.01645 0.20210 -0.00395
v 0.01469 0.20262 -0.00407
v 0.01519 0.22158 0.01332
v 0.01965 0.23251 0.01253
v 0.00648 0.23256 0.01696
v 0.01840 0.22209 -0.00227
v 0.01380 0.22692 -0.00254
v 0.01779 0.23219 -0.00156
v 0.01934 0.19499 0.00970
v 0.01351 0.19957 0.00637
v 0.01578 0.19383 0.00685
v 0.01887 0.20184 0.01023
v 0.01351 0.19957 0.00637
v 0.01934 0.19499 0.00970
v 0.02305 0.20263 0.01438
v 0.01290 0.20223 0.01531
v 0.01887 0.20184 0.01023
v 0.01519 0.22158 0.01332
v 0.01130 0.22090 0.01875
v 0.02439 0.22145 0.01656
v 0.01682 0.19787 -0.00290
v 0.01469 0.20262 -0.00407
v 0.01645 0.20210 -0.00395
v 0.01595 0.20386 -0.02263
v 0.01496 0.22813 -0.01850
v 0.01380 0.22692 -0.00254
v 0.01361 0.19628 0.00099
v 0.02226 0.19539 -0.00292
v 0.01578 0.19383 0.00685
v 0.02226 0.19539 -0.00292
v 0.01361 0.19628 0.00099
v 0.01682 0.19787 -0.00290
v 0.02305 0.20263 0.01438
v 0.01261 0.20910 0.01697
v 0.01290 0.20223 0.01531
v 0.01856 0.21144 -0.00459
v 0.01469 0.20262 -0.00407
v 0.01380 0.22692 -0.00254
v 0.01682 0.19787 -0.00290
v 0.00894 0.19957 -0.00284
v 0.01469 0.20262 -0.00407
v 0.01595 0.20386 -0.02263
v 0.01469 0.20262 -0.00407
v 0.00898 0.20190 -0.00328
v 0.01380 0.22692 -0.00254
v 0.01496 0.22813 -0.01850
v 0.01486 0.22839 -0.01592
v 0.01595 0.20386 -0.02263
v 0.01380 0.22692 -0.00254
v 0.01469 0.20262 -0.00407
v 0.01887 0.20184 0.01023
v 0.01290 0.20223 0.01531
v 0.01361 0.20127 0.00741
v 0.01578 0.19383 0.00685
v 0.01351 0.19957 0.00637
v 0.01361 0.19628 0.00099
v 0.01887 0.20184 0.01023
v 0.01361 0.20127 0.00741
v 0.01351 0.19957 0.00637
v 0.02439 0.22145 0.01656
v 0.01130 0.22090 0.01875
v 0.01223 0.21897 0.01817
v 0.01364 0.19508 0.02224
v 0.01368 0.17901 0.01982
v 0.01521 0.19356 0.00746
v 0.01682 0.19787 -0.00290
v 0.01361 0.19628 0.00099
v 0.01320 0.19886 0.00018
v 0.01320 0.19886 0.00018
v 0.01361 0.19628 0.00099
v 0.01351 0.19957 0.00637
v 0.01488 0.17813 0.00621
v 0.01164 0.19399 0.00668
v 0.01521 0.19356 0.00746
v 0.02439 0.22145 0.01656
v 0.01223 0.21897 0.01817
v 0.01261 0.20910 0.01697
v 0.01361 0.20127 0.00741
v 0.01290 0.20223 0.01531
v 0.01304 0.19906 0.01487
v 0.01356 0.19338 -0.01917
v 0.01240 0.17257 -0.00265
v 0.01338 0.18524 -0.02060
v 0.01304 0.19906 0.01487
v 0.01351 0.19957 0.00637
v 0.01361 0.20127 0.00741
v 0.01301 0.19386 -0.01410
v 0.01240 0.17257 -0.00265
v 0.01356 0.19338 -0.01917
v 0.00996 0.20295 -0.01953
v 0.01595 0.20386 -0.02263
v 0.00898 0.20190 -0.00328
v 0.01380 0.22692 -0.00254
v 0.01486 0.22839 -0.01592
v 0.00805 0.22743 -0.00208
v 0.01261 0.20910 0.01697
v 0.01121 0.20307 0.03243
v 0.01290 0.20223 0.01531
v 0.01983 0.22192 0.01148
v 0.01965 0.23251 0.01253
v 0.01519 0.22158 0.01332
v 0.01223 0.21897 0.01817
v 0.01209 0.22190 0.02038
v 0.01261 0.20910 0.01697
v 0.01261 0.20910 0.01697
v 0.01209 0.22190 0.02038
v 0.01121 0.20307 0.03243
v 0.01301 0.19386 -0.01410
v 0.01356 0.19338 -0.01917
v 0.01041 0.19399 -0.01822
v 0.01209 0.22190 0.02038
v 0.01223 0.21897 0.01817
v 0.01130 0.22090 0.01875
v 0.00999 0.22186 0.03610
v 0.01121 0.20307 0.03243
v 0.01209 0.22190 0.02038
v 0.01351 0.19957 0.00637
v 0.00777 0.19894 0.01531
v 0.01320 0.19886 0.00018
v 0.01240 0.17257 -0.00265
v 0.01301 0.19386 -0.01410
v 0.01164 0.19399 0.00668
v 0.00839 0.19477 0.00984
v 0.01364 0.19508 0.02224
v 0.01521 0.19356 0.00746
v 0.01304 0.19906 0.01487
v 0.01290 0.20223 0.01531
v 0.00777 0.19894 0.01531
v 0.00839 0.19477 0.00984
v 0.01521 0.19356 0.00746
v 0.01164 0.19399 0.00668
v 0.00764 0.19536 0.01871
v 0.01364 0.19508 0.02224
v 0.00839 0.19477 0.00984
v 0.01469 0.20262 -0.00407
v 0.00894 0.19957 -0.00284
v 0.00898 0.20190 -0.00328
v 0.01290 0.20223 0.01531
v 0.01121 0.20307 0.03243
v 0.00807 0.20249 0.01637
v 0.00936 0.19417 0.00012
v 0.01301 0.19386 -0.01410
v 0.01025 0.19415 -0.01200
v 0.01209 0.22190 0.02038
v 0.01130 0.22090 0.01875
v 0.00677 0.22123 0.01881
v 0.01041 0.19399 -0.01822
v 0.01025 0.19415 -0.01200
v 0.01301 0.19386 -0.01410
v 0.01301 0.19386 -0.01410
v 0.00936 0.19417 0.00012
v 0.01164 0.19399 0.00668
v 0.00894 0.19957 -0.00284
v 0.01682 0.19787 -0.00290
v 0.01320 0.19886 0.00018
v 0.01519 0.22158 0.01332
v 0.00885 0.22367 0.01559
v 0.01130 0.22090 0.01875
v 0.01496 0.22813 -0.01850
v 0.00919 0.22852 -0.01523
v 0.01486 0.22839 -0.01592
v 0.00936 0.19417 0.00012
v 0.00839 0.19477 0.00984
v 0.01164 0.19399 0.00668
v 0.01130 0.22090 0.01875
v 0.00885 0.22367 0.01559
v 0.00938 0.22316 0.01766
v 0.00777 0.19894 0.01531
v 0.00894 0.19957 -0.00284
v 0.01320 0.19886 0.00018
v 0.00777 0.19894 0.01531
v 0.01351 0.19957 0.00637
v 0.01304 0.19906 0.01487
v 0.00885 0.22367 0.01559
v 0.01519 0.22158 0.01332
v 0.00648 0.23256 0.01696
v 0.01041 0.19399 -0.01822
v 0.00996 0.20295 -0.01953
v 0.00898 0.20190 -0.00328
v 0.01130 0.22090 0.01875
v 0.00938 0.22316 0.01766
v 0.00677 0.22123 0.01881
v 0.00936 0.19417 0.00012
v 0.01025 0.19415 -0.01200
v 0.00894 0.19957 -0.00284
v 0.01041 0.19399 -0.01822
v 0.00894 0.19957 -0.00284
v 0.01025 0.19415 -0.01200
v 0.00807 0.20249 0.01637
v 0.01121 0.20307 0.03243
v 0.00703 0.20223 0.01995
v 0.01041 0.19399 -0.01822
v 0.00898 0.20190 -0.00328
v 0.00894 0.19957 -0.00284
v 0.00839 0.19477 0.00984
v 0.00894 0.19957 -0.00284
v 0.00777 0.19894 0.01531
v 0.00777 0.19894 0.01531
v 0.01290 0.20223 0.01531
v 0.00807 0.20249 0.01637
v 0.00677 0.22123 0.01881
v 0.00938 0.22316 0.01766
v 0.00688 0.22375 0.01608
v 0.00938 0.22316 0.01766
v 0.00885 0.22367 0.01559
v 0.00688 0.22375 0.01608
v 0.00839 0.19477 0.00984
v 0.00936 0.19417 0.00012
v 0.00894 0.19957 -0.00284
v 0.00777 0.19894 0.01531
v 0.00764 0.19536 0.01871
v 0.00839 0.19477 0.00984
v 0.00777 0.19894 0.01531
v 0.00703 0.20223 0.01995
v 0.00764 0.19536 0.01871
v 0.00648 0.23256 0.01696
v 0.00688 0.22375 0.01608
v 0.00885 0.22367 0.01559
v 0.00703 0.20223 0.01995
v 0.00777 0.19894 0.01531
v 0.00807 0.20249 0.01637
v 0.01209 0.22190 0.02038
v 0.00526 0.22217 0.02704
v 0.00999 0.22186 0.03610
v 0.00825 0.23192 0.03881
v 0.00408 0.23034 0.02814
v 0.00996 0.23171 0.02437
v 0.00648 0.23256 0.01696
v 0.00677 0.22123 0.01881
v 0.00688 0.22375 0.01608
v 0.01209 0.22190 0.02038
v 0.00677 0.22123 0.01881
v 0.00526 0.22217 0.02704
v 0.01338 0.18524 -0.02060
v -0.02277 0.17255 -0.02307
v 0.01356 0.19338 -0.01917
v 0.00996 0.20295 -0.01953
v -0.02188 0.20238 -0.02413
v 0.01595 0.20386 -0.02263
v 0.00546 0.23158 0.02400
v 0.00677 0.22123 0.01881
v 0.00648 0.23256 0.01696
v 0.00546 0.23158 0.02400
v 0.00408 0.23034 0.02814
v 0.00677 0.22123 0.01881
v 0.00677 0.22123 0.01881
v 0.00408 0.23034 0.02814
v 0.00526 0.22217 0.02704
v -0.03007 0.20157 0.02835
v 0.01121 0.20307 0.03243
v 0.00999 0.22186 0.03610
v 0.00999 0.22186 0.03610
v 0.00526 0.22217 0.02704
v -0.03198 0.22029 0.03179
v 0.01338 0.18524 -0.02060
v 0.01267 0.17260 -0.02145
v -0.02277 0.17255 -0.02307
v -0.02188 0.20238 -0.02413
v 0.01496 0.22813 -0.01850
v 0.01595 0.20386 -0.02263
v 0.01364 0.19508 0.02224
v -0.02756 0.17924 0.01774
v 0.01368 0.17901 0.01982
v 0.00526 0.22217 0.02704
v 0.00408 0.23034 0.02814
v -0.01578 0.22169 0.02672
v 0.00825 0.23192 0.03881
v -0.01656 0.23050 0.03672
v 0.00408 0.23034 0.02814
v 0.01121 0.20307 0.03243
v -0.01086 0.20190 0.02002
v 0.00703 0.20223 0.01995
v 0.01364 0.19508 0.02224
v 0.00764 0.19536 0.01871
v -0.02835 0.19494 0.01994
v 0.00703 0.20223 0.01995
v -0.01086 0.20190 0.02002
v 0.00764 0.19536 0.01871
v -0.01918 0.19439 -0.01928
v 0.01041 0.19399 -0.01822
v 0.01356 0.19338 -0.01917
v -0.01408 0.20185 -0.02030
v 0.00996 0.20295 -0.01953
v 0.01041 0.19399 -0.01822
v 0.00947 0.22975 0.01986
v 0.01840 0.22209 -0.00227
v 0.01919 0.23237 0.00783
v 0.01983 0.22192 0.01148
v 0.01965 0.23251 0.01253
v 0.00648 0.23256 0.01696
v 0.00546 0.23158 0.02400
v 0.00408 0.23034 0.02814
v 0.00996 0.23171 0.02437
v 0.00825 0.23192 0.03881
v -0.01656 0.23050 0.03672
v 0.00539 0.19717 -0.01111
v 0.01368 0.17901 0.01982
v 0.01521 0.19356 0.00746
v 0.01488 0.17813 0.00621
v 0.01164 0.19399 0.00668
v 0.01240 0.17257 -0.00265
v 0.01338 0.18524 -0.02060
v 0.01267 0.17260 -0.02145
v -0.02277 0.17255 -0.02307
v 0.01356 0.19338 -0.01917
v -0.01918 0.19439 -0.01928
v 0.01041 0.19399 -0.01822
v -0.01408 0.20185 -0.02030
v 0.00996 0.20295 -0.01953
v -0.02188 0.20238 -0.02413
v 0.01496 0.22813 -0.01850
v 0.00919 0.22852 -0.01523
v 0.01486 0.22839 -0.01592
v 0.00805 0.22743 -0.00208
v -0.00919 0.19588 0.02278
v -0.03007 0.20157 0.02835
v 0.01121 0.20307 0.03243
v -0.01086 0.20190 0.02002
v 0.00764 0.19536 0.01871
v -0.02835 0.19494 0.01994
v 0.01364 0.19508 0.02224
v -0.02756 0.17924 0.01774
v -0.00813 0.22150 0.03041
v 0.00999 0.22186 0.03610
v -0.03198 0.22029 0.03179
v 0.00526 0.22217 0.02704
v -0.01578 0.22169 0.02672
vt 0.00193 0.17774
vt 0.01350 0.17833
vt 0.01350 0.19992
vt 0.01350 0.19992
vt 0.00059 0.20172
vt 0.00193 0.17774
vt 0.00418 0.65119
vt 0.00503 0.62719
vt 0.00790 0.64097
vt 0.94580 0.73833
vt 0.95722 0.73833
vt 0.94602 0.75991
vt 0.95808 0.75968
vt 0.94602 0.75991
vt 0.95722 0.73833
vt 0.98289 0.78843
vt 0.98289 0.77422
vt 0.98540 0.77564
vt 0.00790 0.64097
vt 0.00503 0.62719
vt 0.00771 0.62611
vt 0.00901 0.09258
vt 0.00106 0.09301
vt 0.00235 0.07820
vt 0.00901 0.09258
vt 0.00235 0.07820
vt 0.00711 0.06955
vt 0.46323 0.99540
vt 0.47486 0.98383
vt 0.47537 0.99540
vt 0.42585 0.99307
vt 0.42985 0.99414
vt 0.42592 0.99826
vt 0.81785 0.00731
vt 0.81866 0.00220
vt 0.82181 0.00633
vt 0.82036 0.00987
vt 0.81785 0.00731
vt 0.82181 0.00633
vt 0.63134 0.02144
vt 0.64412 0.00725
vt 0.65351 0.01490
vt 0.97997 0.25680
vt 0.98588 0.24766
vt 0.99386 0.25026
vt 0.97997 0.25680
vt 0.99386 0.25026
vt 0.99149 0.26064
vt 0.84230 0.89962
vt 0.83323 0.89132
vt 0.84161 0.89168
vt 0.56193 0.00202
vt 0.56311 0.00567
vt 0.56077 0.00262
vt 0.60594 0.92690
vt 0.63161 0.92615
vt 0.62335 0.93502
vt 0.42990 0.99888
vt 0.42592 0.99826
vt 0.42985 0.99414
vt 0.56077 0.00262
vt 0.56311 0.00567
vt 0.55918 0.00653
vt 0.15379 0.52710
vt 0.16079 0.54209
vt 0.15021 0.52730
vt 0.46323 0.99540
vt 0.46348 0.98295
vt 0.47486 0.98383
vt 0.81665 0.90071
vt 0.83323 0.89132
vt 0.84230 0.89962
vt 0.28492 0.76894
vt 0.29679 0.78640
vt 0.28658 0.78795
vt 0.42585 0.99307
vt 0.43021 0.99357
vt 0.42985 0.99414
vt 0.79448 0.98694
vt 0.78264 0.99079
vt 0.77975 0.98053
vt 0.04225 0.98319
vt 0.02619 0.98319
vt 0.02832 0.97957
vt 0.33544 0.88935
vt 0.32501 0.89927
vt 0.31407 0.89010
vt 0.30295 0.77131
vt 0.29679 0.78640
vt 0.28492 0.76894
vt 0.42985 0.99414
vt 0.43021 0.99357
vt 0.43019 0.99886
vt 0.30271 0.89921
vt 0.31407 0.89010
vt 0.32501 0.89927
vt 0.15379 0.52710
vt 0.17839 0.53931
vt 0.16079 0.54209
vt 0.30295 0.77131
vt 0.30049 0.78896
vt 0.29679 0.78640
vt 0.17817 0.52656
vt 0.17189 0.51741
vt 0.18165 0.51496
vt 0.30049 0.78896
vt 0.31832 0.76867
vt 0.32525 0.77118
vt 0.30049 0.78896
vt 0.30295 0.77131
vt 0.31832 0.76867
vt 0.30049 0.78896
vt 0.32525 0.77118
vt 0.33008 0.78243
vt 0.97707 0.06108
vt 0.98095 0.06195
vt 0.97717 0.07607
vt 0.94614 0.52875
vt 0.93690 0.53798
vt 0.93676 0.51569
vt 0.45149 0.00243
vt 0.45533 0.00021
vt 0.45478 0.00605
vt 0.45478 0.00605
vt 0.44855 0.00633
vt 0.45149 0.00243
vt 0.99078 0.01824
vt 0.98808 0.02146
vt 0.98883 0.00874
vt 0.00427 0.45858
vt 0.00852 0.45984
vt 0.00757 0.46089
vt 0.98095 0.06195
vt 0.98166 0.07631
vt 0.97717 0.07607
vt 0.94614 0.52875
vt 0.93676 0.51569
vt 0.94646 0.51536
vt 0.81665 0.90071
vt 0.82110 0.88741
vt 0.83323 0.89132
vt 0.17817 0.52656
vt 0.15379 0.52710
vt 0.16134 0.51827
vt 0.93690 0.53798
vt 0.94614 0.52875
vt 0.94749 0.53791
vt 0.60643 0.94365
vt 0.60594 0.92690
vt 0.62335 0.93502
vt 0.17149 0.55885
vt 0.16357 0.56459
vt 0.16439 0.55727
vt 0.13991 0.88160
vt 0.11761 0.88180
vt 0.13096 0.88082
vt 0.14020 0.89384
vt 0.11988 0.89422
vt 0.13991 0.88160
vt 0.11988 0.89422
vt 0.11761 0.88180
vt 0.13991 0.88160
vt 0.81665 0.90071
vt 0.81060 0.89685
vt 0.82110 0.88741
vt 0.17839 0.53931
vt 0.15379 0.52710
vt 0.17817 0.52656
vt 0.00852 0.45984
vt 0.01334 0.45904
vt 0.00757 0.46089
vt 0.11761 0.88180
vt 0.11988 0.89422
vt 0.11531 0.88974
vt 0.99389 0.07698
vt 0.98302 0.07624
vt 0.98195 0.06403
vt 0.19599 0.96451
vt 0.19599 0.95361
vt 0.21631 0.96454
vt 0.16079 0.54209
vt 0.17149 0.55885
vt 0.16439 0.55727
vt 0.11761 0.88180
vt 0.11531 0.88974
vt 0.10842 0.88295
vt 0.17817 0.52656
vt 0.16134 0.51827
vt 0.17189 0.51741
vt 0.02979 0.85787
vt 0.02375 0.85840
vt 0.03307 0.83883
vt 0.99904 0.08763
vt 0.99995 0.08672
vt 0.99989 0.09446
vt 0.60643 0.94365
vt 0.62335 0.93502
vt 0.62075 0.94501
vt 0.99389 0.07698
vt 0.98195 0.06403
vt 0.99342 0.06393
vt 0.63525 0.99404
vt 0.64205 0.98909
vt 0.64175 0.99682
vt 0.50825 0.96051
vt 0.50061 0.97374
vt 0.50031 0.95479
vt 0.03308 0.85778
vt 0.02979 0.85787
vt 0.03307 0.83883
vt 0.03307 0.83883
vt 0.02375 0.85840
vt 0.02372 0.84585
vt 0.02285 0.22428
vt 0.00014 0.22475
vt 0.00930 0.21072
vt 0.03544 0.02187
vt 0.05263 0.02491
vt 0.03713 0.05213
vt 0.17839 0.53931
vt 0.18008 0.55473
vt 0.16079 0.54209
vt 0.82110 0.88741
vt 0.81060 0.89685
vt 0.81044 0.88927
vt 0.18008 0.55473
vt 0.17149 0.55885
vt 0.16079 0.54209
vt 0.36285 0.00152
vt 0.35644 0.00451
vt 0.34727 0.00166
vt 0.34371 0.99634
vt 0.34200 0.98952
vt 0.34602 0.98917
vt 0.34200 0.98952
vt 0.33654 0.99538
vt 0.33591 0.98906
vt 0.17149 0.55885
vt 0.18008 0.55473
vt 0.18094 0.56959
vt 0.92287 0.98508
vt 0.93350 0.98307
vt 0.93350 0.99479
vt 0.03713 0.05213
vt 0.05263 0.02491
vt 0.05212 0.05192
vt 0.54471 0.00740
vt 0.54471 0.00014
vt 0.55091 0.00078
vt 0.00234 0.48593
vt 0.00122 0.47884
vt 0.02394 0.47884
vt 0.02285 0.22428
vt 0.00930 0.21072
vt 0.02452 0.21318
vt 0.71712 0.98575
vt 0.71475 0.98685
vt 0.71468 0.97490
vt 0.05263 0.02491
vt 0.03544 0.02187
vt 0.05073 0.01883
vt 0.92206 0.99402
vt 0.92287 0.98508
vt 0.93350 0.99479
vt 0.05211 0.49977
vt 0.04090 0.50762
vt 0.04943 0.49683
vt 0.02241 0.20655
vt 0.02452 0.21318
vt 0.00930 0.21072
vt 0.00234 0.48593
vt 0.02394 0.47884
vt 0.02382 0.48418
vt 0.17817 0.52656
vt 0.18165 0.51496
vt 0.18246 0.52339
vt 0.99343 0.15936
vt 0.99148 0.14831
vt 0.99392 0.14662
vt 0.19599 0.95361
vt 0.21670 0.95343
vt 0.21631 0.96454
vt 0.97803 0.09346
vt 0.98272 0.09175
vt 0.98252 0.10704
vt 0.98302 0.44118
vt 0.98477 0.43744
vt 0.98410 0.45285
vt 0.04090 0.50762
vt 0.03607 0.52063
vt 0.03495 0.50516
vt 0.00115 0.99241
vt 0.00115 0.98545
vt 0.00389 0.99126
vt 0.99452 0.34671
vt 0.99452 0.33623
vt 0.99542 0.34580
vt 0.93455 0.73775
vt 0.95513 0.73023
vt 0.95609 0.73775
vt 0.33654 0.99538
vt 0.34200 0.98952
vt 0.34371 0.99634
vt 0.96120 0.29450
vt 0.96120 0.31546
vt 0.95978 0.29837
vt 0.95513 0.73023
vt 0.93455 0.73775
vt 0.93419 0.72929
vt 0.73691 0.89915
vt 0.71485 0.88722
vt 0.73802 0.89678
vt 0.73691 0.89915
vt 0.71623 0.90021
vt 0.71485 0.88722
vt 0.05026 0.52672
vt 0.04090 0.50762
vt 0.05211 0.49977
vt 0.73802 0.89678
vt 0.71485 0.88722
vt 0.73027 0.88691
vt 0.05026 0.52672
vt 0.03607 0.52063
vt 0.04090 0.50762
vt 0.73027 0.88691
vt 0.74716 0.88987
vt 0.73802 0.89678
vt 0.03607 0.52063
vt 0.05026 0.52672
vt 0.04558 0.52934
vt 0.47349 0.00632
vt 0.46712 0.00632
vt 0.47180 0.00123
vt 0.72437 0.93714
vt 0.71202 0.92965
vt 0.71745 0.92889
vt 0.98482 0.66662
vt 0.97291 0.67528
vt 0.97352 0.66041
vt 0.02329 0.83833
vt 0.03307 0.83883
vt 0.02372 0.84585
vt 0.53060 0.83992
vt 0.52187 0.83607
vt 0.53094 0.83598
vt 0.39799 0.97832
vt 0.37957 0.97832
vt 0.38769 0.97638
vt 0.10091 0.00007
vt 0.10091 0.00345
vt 0.08631 0.00195
vt 0.72437 0.93714
vt 0.71183 0.93691
vt 0.71202 0.92965
vt 0.36926 0.98985
vt 0.36602 0.98886
vt 0.36651 0.98197
vt 0.72437 0.93714
vt 0.71745 0.92889
vt 0.72680 0.92839
vt 0.53060 0.83992
vt 0.53015 0.85154
vt 0.52187 0.83607
vt 0.73782 0.93758
vt 0.73190 0.93727
vt 0.73565 0.93124
vt 0.73190 0.93727
vt 0.72437 0.93714
vt 0.73565 0.93124
vt 0.53015 0.85154
vt 0.50636 0.83551
vt 0.52187 0.83607
vt 0.73565 0.93124
vt 0.72437 0.93714
vt 0.73348 0.92771
vt 0.02329 0.83241
vt 0.03307 0.83883
vt 0.02329 0.83833
vt 0.73348 0.92771
vt 0.72437 0.93714
vt 0.72680 0.92839
vt 0.02746 0.99248
vt 0.02735 0.99157
vt 0.03564 0.99152
vt 0.99976 0.18662
vt 0.99923 0.18960
vt 0.99929 0.18584
vt 0.11079 0.07398
vt 0.11679 0.07751
vt 0.08512 0.08773
vt 0.11679 0.07751
vt 0.11835 0.08334
vt 0.08512 0.08773
vt 0.03307 0.83883
vt 0.02329 0.83241
vt 0.03223 0.83058
vt 0.98343 0.81565
vt 0.99275 0.81195
vt 0.99224 0.81329
vt 0.03660 0.99257
vt 0.02746 0.99248
vt 0.03564 0.99152
vt 0.11679 0.07751
vt 0.11790 0.07056
vt 0.11835 0.08334
vt 0.99275 0.81195
vt 0.98343 0.81565
vt 0.98309 0.81193
vt 0.03757 0.99590
vt 0.02746 0.99248
vt 0.03660 0.99257
vt 0.11835 0.08334
vt 0.11790 0.07056
vt 0.13430 0.08092
vt 0.73782 0.93758
vt 0.73565 0.93124
vt 0.74061 0.93510
vt 0.97187 0.58976
vt 0.96995 0.57481
vt 0.97707 0.58357
vt 0.53015 0.85154
vt 0.49525 0.83556
vt 0.50636 0.83551
vt 0.27015 0.00319
vt 0.27015 0.01190
vt 0.25477 0.01191
vt 0.45357 0.83657
vt 0.49157 0.83657
vt 0.49020 0.85493
vt 0.11790 0.07056
vt 0.13430 0.07341
vt 0.13430 0.08092
vt 0.35787 0.88010
vt 0.35301 0.87430
vt 0.38781 0.87688
vt 0.97187 0.58976
vt 0.97707 0.58357
vt 0.97935 0.58942
vt 0.97707 0.58357
vt 0.96995 0.57481
vt 0.98447 0.57493
vt 0.96231 0.25161
vt 0.96278 0.23654
vt 0.96732 0.23734
vt 0.97707 0.58357
vt 0.98447 0.57493
vt 0.98476 0.57773
vt 0.49322 0.84733
vt 0.53015 0.85154
vt 0.49527 0.85247
vt 0.30178 0.00650
vt 0.29963 0.00831
vt 0.29965 0.00377
vt 0.73565 0.93124
vt 0.73348 0.92771
vt 0.73707 0.92754
vt 0.96231 0.25161
vt 0.96732 0.23734
vt 0.96593 0.24783
vt 0.96404 0.69791
vt 0.96377 0.70539
vt 0.95981 0.70539
vt 0.01137 0.50885
vt 0.00184 0.49993
vt 0.00970 0.49443
vt 0.49322 0.84733
vt 0.49525 0.83556
vt 0.53015 0.85154
vt 0.96231 0.25161
vt 0.96593 0.24783
vt 0.96943 0.24937
vt 0.96404 0.69791
vt 0.95981 0.70539
vt 0.95594 0.69352
vt 0.02146 0.46076
vt 0.01225 0.46076
vt 0.01712 0.45922
vt 0.62757 0.98910
vt 0.62757 0.99631
vt 0.62406 0.98987
vt 0.99374 0.63246
vt 0.99370 0.64303
vt 0.98577 0.63537
vt 0.95521 0.69006
vt 0.96631 0.69499
vt 0.96521 0.69706
vt 0.00160 0.16991
vt 0.00998 0.16651
vt 0.00998 0.17714
vt 0.08427 0.37485
vt 0.07877 0.37097
vt 0.08177 0.36493
vt 0.73868 0.99663
vt 0.73216 0.98867
vt 0.73971 0.99076
vt 0.72998 0.99724
vt 0.73216 0.98867
vt 0.73868 0.99663
vt 0.17929 0.99134
vt 0.17168 0.98089
vt 0.18111 0.98404
vt 0.96943 0.24937
vt 0.97226 0.25364
vt 0.96231 0.25161
vt 0.97181 0.69560
vt 0.96521 0.69706
vt 0.96631 0.69499
vt 0.90908 0.88139
vt 0.92132 0.90300
vt 0.90807 0.91227
vt 0.13124 0.08797
vt 0.11835 0.08334
vt 0.13430 0.08092
vt 0.11835 0.08334
vt 0.13124 0.08797
vt 0.12511 0.08795
vt 0.00970 0.49443
vt 0.00184 0.49993
vt 0.00190 0.49452
vt 0.95981 0.70539
vt 0.95681 0.71212
vt 0.95594 0.69352
vt 0.97181 0.69560
vt 0.96786 0.70501
vt 0.96521 0.69706
vt 0.12375 0.13888
vt 0.10015 0.13803
vt 0.09888 0.13079
vt 0.90807 0.91227
vt 0.92132 0.90300
vt 0.91948 0.90485
vt 0.91945 0.25481
vt 0.89664 0.28621
vt 0.89585 0.25538
vt 0.18111 0.98404
vt 0.17168 0.98089
vt 0.18078 0.97645
vt 0.59429 0.99154
vt 0.59429 0.99938
vt 0.58705 0.99600
vt 0.72998 0.99724
vt 0.72984 0.98965
vt 0.73216 0.98867
vt 0.01137 0.50885
vt 0.00121 0.50910
vt 0.00189 0.50754
vt 0.89640 0.94112
vt 0.91693 0.94257
vt 0.89979 0.95973
vt 0.83080 0.00109
vt 0.83287 0.00746
vt 0.82943 0.00708
vt 0.58638 0.99940
vt 0.58705 0.99600
vt 0.59429 0.99938
vt 0.00455 0.91816
vt 0.00784 0.93840
vt 0.00323 0.93773
vt 0.01137 0.50885
vt 0.00189 0.50754
vt 0.00184 0.49993
vt 0.11464 0.99241
vt 0.12465 0.99094
vt 0.12419 0.99497
vt 0.05995 0.37765
vt 0.05088 0.41007
vt 0.05054 0.38223
vt 0.12419 0.99497
vt 0.11339 0.99459
vt 0.11464 0.99241
vt 0.06423 0.38252
vt 0.05088 0.41007
vt 0.05995 0.37765
vt 0.11951 0.13137
vt 0.12375 0.13888
vt 0.09888 0.13079
vt 0.67753 0.84110
vt 0.67753 0.82749
vt 0.68330 0.84196
vt 0.01099 0.33773
vt 0.01099 0.35880
vt 0.00210 0.33889
vt 0.00185 0.16610
vt 0.00998 0.16651
vt 0.00160 0.16991
vt 0.98325 0.68771
vt 0.98378 0.69047
vt 0.97824 0.68198
vt 0.97824 0.68198
vt 0.98378 0.69047
vt 0.96689 0.68775
vt 0.58523 0.62646
vt 0.59172 0.62656
vt 0.58996 0.63042
vt 0.99992 0.21148
vt 0.99992 0.21429
vt 0.99907 0.21282
vt 0.97569 0.69950
vt 0.96689 0.68775
vt 0.98378 0.69047
vt 0.66516 0.94497
vt 0.65348 0.93823
vt 0.67301 0.94401
vt 0.05088 0.41007
vt 0.06423 0.38252
vt 0.07981 0.40380
vt 0.55438 0.62828
vt 0.53964 0.61971
vt 0.55855 0.62000
vt 0.59253 0.00601
vt 0.59288 0.00197
vt 0.59922 0.00638
vt 0.55438 0.62828
vt 0.55855 0.62000
vt 0.55892 0.62465
vt 0.54310 0.62783
vt 0.53964 0.61971
vt 0.55438 0.62828
vt 0.96521 0.69706
vt 0.96786 0.70501
vt 0.96492 0.70440
vt 0.31362 0.66954
vt 0.31482 0.64777
vt 0.31968 0.66792
vt 0.56677 0.62863
vt 0.58523 0.62646
vt 0.58213 0.62958
vt 0.60102 0.88825
vt 0.60168 0.88681
vt 0.60514 0.88711
vt 0.58996 0.63042
vt 0.58213 0.62958
vt 0.58523 0.62646
vt 0.58523 0.62646
vt 0.56677 0.62863
vt 0.55892 0.62465
vt 0.67653 0.93835
vt 0.67716 0.94854
vt 0.67301 0.94401
vt 0.16702 0.99051
vt 0.16702 0.99590
vt 0.16363 0.99437
vt 0.67762 0.82488
vt 0.68317 0.82860
vt 0.67753 0.82749
vt 0.56677 0.62863
vt 0.55438 0.62828
vt 0.55892 0.62465
vt 0.99907 0.19411
vt 0.99907 0.19039
vt 0.99992 0.19184
vt 0.65348 0.93823
vt 0.67653 0.93835
vt 0.67301 0.94401
vt 0.65348 0.93823
vt 0.66516 0.94497
vt 0.65436 0.94487
vt 0.00318 0.17506
vt 0.00160 0.16991
vt 0.00998 0.17714
vt 0.32208 0.66529
vt 0.33349 0.66393
vt 0.33169 0.68450
vt 0.64297 0.00222
vt 0.64347 0.00458
vt 0.64087 0.00499
vt 0.32177 0.68856
vt 0.32206 0.67317
vt 0.32873 0.68500
vt 0.32208 0.66529
vt 0.32873 0.68500
vt 0.32206 0.67317
vt 0.31968 0.66792
vt 0.31482 0.64777
vt 0.32085 0.66334
vt 0.32208 0.66529
vt 0.33169 0.68450
vt 0.32873 0.68500
vt 0.32230 0.70093
vt 0.32873 0.68500
vt 0.32745 0.70801
vt 0.59922 0.00638
vt 0.59288 0.00197
vt 0.59915 0.00167
vt 0.64087 0.00499
vt 0.64347 0.00458
vt 0.64302 0.00684
vt 0.82018 0.99474
vt 0.81849 0.99474
vt 0.81848 0.99318
vt 0.32230 0.70093
vt 0.32177 0.68856
vt 0.32873 0.68500
vt 0.32745 0.70801
vt 0.32283 0.71222
vt 0.32230 0.70093
vt 0.32745 0.70801
vt 0.33152 0.71403
vt 0.32283 0.71222
vt 0.00998 0.17714
vt 0.00322 0.17662
vt 0.00318 0.17506
vt 0.33152 0.71403
vt 0.32745 0.70801
vt 0.33198 0.70932
vt 0.60102 0.88825
vt 0.60611 0.89348
vt 0.60230 0.90031
vt 0.22537 0.89408
vt 0.22421 0.88531
vt 0.22941 0.88372
vt 0.20779 0.00058
vt 0.19931 0.00285
vt 0.20101 0.00058
vt 0.60102 0.88825
vt 0.60514 0.88711
vt 0.60611 0.89348
vt 0.83738 0.35922
vt 0.85401 0.40491
vt 0.82692 0.35906
vt 0.11951 0.13137
vt 0.12426 0.09091
vt 0.12375 0.13888
vt 0.20762 0.00607
vt 0.19931 0.00285
vt 0.20779 0.00058
vt 0.20762 0.00607
vt 0.20703 0.00948
vt 0.19931 0.00285
vt 0.19931 0.00285
vt 0.20703 0.00948
vt 0.20067 0.00915
vt 0.28325 0.67066
vt 0.23069 0.67111
vt 0.23069 0.64682
vt 0.60230 0.90031
vt 0.60611 0.89348
vt 0.63451 0.89795
vt 0.83738 0.35922
vt 0.85342 0.35999
vt 0.85401 0.40491
vt 0.91934 0.35712
vt 0.88388 0.32835
vt 0.90754 0.32079
vt 0.13490 0.67383
vt 0.15546 0.62154
vt 0.15548 0.67383
vt 0.97543 0.83096
vt 0.98179 0.83096
vt 0.97732 0.84694
vt 0.22537 0.89408
vt 0.20732 0.88794
vt 0.22421 0.88531
vt 0.31482 0.64777
vt 0.34347 0.66222
vt 0.32085 0.66334
vt 0.53964 0.61971
vt 0.54310 0.62783
vt 0.53561 0.67282
vt 0.88515 0.81649
vt 0.88515 0.83913
vt 0.87630 0.81586
vt 0.58774 0.66784
vt 0.58996 0.63042
vt 0.59172 0.62656
vt 0.72714 0.84031
vt 0.75762 0.84001
vt 0.75784 0.85149
vt 0.96732 0.23734
vt 0.96732 0.23734
vt 0.96732 0.23734
vt 0.96732 0.23734
vt 0.96732 0.23734
vt 0.96732 0.23734
vt 0.96732 0.23734
vt 0.96732 0.23734
vt 0.96732 0.23734
vt 0.96732 0.23734
vt 0.96732 0.23734
vt 0.91693 0.94257
vt 0.91693 0.94257
vt 0.91693 0.94257
vt 0.91693 0.94257
vt 0.91693 0.94257
vt 0.91693 0.94257
vt 0.91693 0.94257
vt 0.91693 0.94257
vt 0.91693 0.94257
vt 0.91693 0.94257
vt 0.91693 0.94257
vt 0.91693 0.94257
vt 0.91693 0.94257
vt 0.91693 0.94257
vt 0.91693 0.94257
vt 0.91693 0.94257
vt 0.91693 0.94257
vt 0.91693 0.94257
vt 0.91693 0.94257
vt 0.28325 0.67066
vt 0.28325 0.67066
vt 0.28325 0.67066
vt 0.28325 0.67066
vt 0.28325 0.67066
vt 0.28325 0.67066
vt 0.28325 0.67066
vt 0.28325 0.67066
vt 0.97569 0.69950
vt 0.97569 0.69950
vt 0.97569 0.69950
vt 0.97569 0.69950
vt 0.97569 0.69950
vn 0.6641 -0.4895 0.5651
vn 0.6154 -0.5803 -0.5335
vn 0.6319 0.2394 -0.7371
vn 0.6319 0.2394 -0.7371
vn 0.7117 0.5984 0.3681
vn 0.6641 -0.4895 0.5651
vn 0.6641 -0.4895 0.5651
vn 0.7117 0.5984 0.3681
vn 0.4570 -0.2671 0.8484
vn 0.6154 -0.5803 -0.5335
vn -0.5135 -0.6741 -0.5309
vn 0.6319 0.2394 -0.7371
vn -0.5962 0.1557 -0.7876
vn 0.6319 0.2394 -0.7371
vn -0.5135 -0.6741 -0.5309
vn 0.6319 0.2394 -0.7371
vn 0.9359 0.2983 0.1872
vn 0.7117 0.5984 0.3681
vn 0.4570 -0.2671 0.8484
vn 0.7117 0.5984 0.3681
vn 0.9359 0.2983 0.1872
vn 0.6584 -0.4599 0.5958
vn 0.4570 -0.2671 0.8484
vn 0.9359 0.2983 0.1872
vn 0.6584 -0.4599 0.5958
vn 0.9359 0.2983 0.1872
vn 0.7946 0.5868 0.1559
vn -0.5233 -0.5842 0.6204
vn 0.6154 -0.5803 -0.5335
vn 0.6641 -0.4895 0.5651
vn 0.6319 0.2394 -0.7371
vn 0.1076 0.5616 -0.8204
vn 0.5033 0.7112 -0.4908
vn 0.9359 0.2983 0.1872
vn 0.6319 0.2394 -0.7371
vn 0.5033 0.7112 -0.4908
vn 0.7946 0.5868 0.1559
vn 0.9359 0.2983 0.1872
vn 0.5033 0.7112 -0.4908
vn 0.7946 0.5868 0.1559
vn 0.3835 -0.3051 0.8717
vn 0.6584 -0.4599 0.5958
vn 0.6641 -0.4895 0.5651
vn 0.4570 -0.2671 0.8484
vn -0.2963 -0.7970 0.5263
vn 0.6641 -0.4895 0.5651
vn -0.2963 -0.7970 0.5263
vn -0.5233 -0.5842 0.6204
vn 0.6584 -0.4599 0.5958
vn -0.2963 -0.7970 0.5263
vn 0.4570 -0.2671 0.8484
vn 0.7946 0.5868 0.1559
vn 0.5033 0.7112 -0.4908
vn 0.1005 0.9483 -0.3010
vn -0.3697 -0.6733 0.6402
vn 0.6584 -0.4599 0.5958
vn 0.3835 -0.3051 0.8717
vn -0.1866 0.6604 -0.7274
vn 0.5033 0.7112 -0.4908
vn 0.1076 0.5616 -0.8204
vn 0.1005 0.9483 -0.3010
vn 0.5033 0.7112 -0.4908
vn -0.1866 0.6604 -0.7274
vn 0.1005 0.9483 -0.3010
vn 0.6628 0.7274 -0.1778
vn 0.7946 0.5868 0.1559
vn -0.5233 -0.5842 0.6204
vn -0.5135 -0.6741 -0.5309
vn 0.6154 -0.5803 -0.5335
vn -0.3697 -0.6733 0.6402
vn -0.2963 -0.7970 0.5263
vn 0.6584 -0.4599 0.5958
vn 0.7946 0.5868 0.1559
vn 0.7077 -0.4406 0.5523
vn 0.3835 -0.3051 0.8717
vn 0.6319 0.2394 -0.7371
vn -0.5962 0.1557 -0.7876
vn 0.1076 0.5616 -0.8204
vn -0.5135 -0.6741 -0.5309
vn -0.5233 -0.5842 0.6204
vn -0.2963 -0.7970 0.5263
vn -0.5135 -0.6741 -0.5309
vn -0.2963 -0.7970 0.5263
vn -0.6390 -0.6887 -0.3427
vn -0.5135 -0.6741 -0.5309
vn -0.6390 -0.6887 -0.3427
vn -0.5962 0.1557 -0.7876
vn 0.6628 0.7274 -0.1778
vn 0.7077 -0.4406 0.5523
vn 0.7946 0.5868 0.1559
vn 0.1076 0.5616 -0.8204
vn -0.5962 0.1557 -0.7876
vn -0.1866 0.6604 -0.7274
vn -0.1866 0.6604 -0.7274
vn -0.5962 0.1557 -0.7876
vn -0.6390 -0.6887 -0.3427
vn 0.1005 0.9483 -0.3010
vn -0.5752 0.7007 -0.4221
vn 0.6628 0.7274 -0.1778
vn 0.6628 0.7274 -0.1778
vn 0.6282 -0.6100 0.4831
vn 0.7077 -0.4406 0.5523
vn -0.6545 0.7525 -0.0735
vn 0.1906 0.7307 -0.6556
vn -0.6166 0.6112 -0.4962
vn 0.6282 -0.6100 0.4831
vn 0.6305 0.6592 -0.4098
vn 0.8958 0.3815 -0.2280
vn 0.6282 -0.6100 0.4831
vn 0.6628 0.7274 -0.1778
vn 0.6305 0.6592 -0.4098
vn 0.6282 -0.6100 0.4831
vn 0.8958 0.3815 -0.2280
vn 0.6773 -0.1814 0.7130
vn -0.5531 -0.8012 0.2282
vn -0.6225 -0.7503 0.2228
vn 0.6282 -0.6100 0.4831
vn 0.6895 0.0345 -0.7235
vn -0.1866 0.6604 -0.7274
vn -0.6390 -0.6887 -0.3427
vn 0.6734 0.3283 0.6624
vn 0.6773 -0.1814 0.7130
vn 0.8958 0.3815 -0.2280
vn 0.8958 0.3815 -0.2280
vn 0.8268 0.5287 -0.1919
vn 0.6734 0.3283 0.6624
vn -0.6390 -0.6887 -0.3427
vn -0.2963 -0.7970 0.5263
vn 0.6917 -0.5947 0.4096
vn 0.6773 -0.1814 0.7130
vn 0.6734 0.3283 0.6624
vn 0.6719 0.1727 0.7202
vn -0.6225 -0.7503 0.2228
vn 0.7077 -0.4406 0.5523
vn 0.6282 -0.6100 0.4831
vn 0.6895 0.0345 -0.7235
vn -0.6390 -0.6887 -0.3427
vn 0.6917 -0.5947 0.4096
vn -0.3697 -0.6733 0.6402
vn 0.6917 -0.5947 0.4096
vn -0.2963 -0.7970 0.5263
vn -0.6545 0.7525 -0.0735
vn 0.1005 0.9483 -0.3010
vn -0.1866 0.6604 -0.7274
vn -0.1866 0.6604 -0.7274
vn 0.6895 0.0345 -0.7235
vn 0.1906 0.7307 -0.6556
vn -0.6225 -0.7503 0.2228
vn -0.3697 -0.6733 0.6402
vn 0.3835 -0.3051 0.8717
vn 0.1358 0.5959 -0.7915
vn 0.8958 0.3815 -0.2280
vn 0.6305 0.6592 -0.4098
vn 0.6885 -0.5207 0.5048
vn 0.6895 0.0345 -0.7235
vn 0.6917 -0.5947 0.4096
vn 0.5554 -0.5930 -0.5830
vn 0.5817 0.3450 -0.7366
vn 0.6885 -0.5207 0.5048
vn 0.5817 0.3450 -0.7366
vn 0.6895 0.0345 -0.7235
vn 0.6885 -0.5207 0.5048
vn -0.3697 -0.6733 0.6402
vn -0.6951 -0.5763 0.4298
vn 0.6917 -0.5947 0.4096
vn -0.5752 0.7007 -0.4221
vn 0.1005 0.9483 -0.3010
vn -0.6545 0.7525 -0.0735
vn 0.6734 0.3283 0.6624
vn 0.8268 0.5287 -0.1919
vn 0.6719 0.1727 0.7202
vn 0.6895 0.0345 -0.7235
vn 0.5817 0.3450 -0.7366
vn 0.5724 0.5994 -0.5595
vn -0.5759 -0.6234 -0.5289
vn 0.5554 -0.5930 -0.5830
vn 0.6885 -0.5207 0.5048
vn 0.5554 -0.5930 -0.5830
vn -0.5759 -0.6234 -0.5289
vn 0.5817 0.3450 -0.7366
vn 0.6628 0.7274 -0.1778
vn 0.1358 0.5959 -0.7915
vn 0.6305 0.6592 -0.4098
vn 0.6895 0.0345 -0.7235
vn 0.5724 0.5994 -0.5595
vn 0.1906 0.7307 -0.6556
vn -0.6545 0.7525 -0.0735
vn -0.1866 0.6604 -0.7274
vn 0.1906 0.7307 -0.6556
vn 0.6719 0.1727 0.7202
vn 0.8268 0.5287 -0.1919
vn 0.5719 -0.5212 0.6334
vn 0.7088 -0.6067 0.3599
vn 0.0548 -0.6844 0.7271
vn 0.6719 0.1727 0.7202
vn -0.6225 -0.7503 0.2228
vn 0.3835 -0.3051 0.8717
vn 0.7077 -0.4406 0.5523
vn -0.5759 -0.6234 -0.5289
vn 0.6885 -0.5207 0.5048
vn -0.4665 -0.6442 0.6061
vn 0.6773 -0.1814 0.7130
vn 0.6719 0.1727 0.7202
vn 0.0548 -0.6844 0.7271
vn 0.1358 0.5959 -0.7915
vn -0.0864 0.5045 -0.8591
vn 0.8958 0.3815 -0.2280
vn 0.7088 -0.6067 0.3599
vn 0.6719 0.1727 0.7202
vn 0.5719 -0.5212 0.6334
vn 0.5719 -0.5212 0.6334
vn 0.8268 0.5287 -0.1919
vn 0.7909 0.6087 0.0626
vn -0.6545 0.7525 -0.0735
vn -0.3697 -0.6733 0.6402
vn -0.6225 -0.7503 0.2228
vn 0.6773 -0.1814 0.7130
vn -0.6586 -0.5656 0.4963
vn 0.6282 -0.6100 0.4831
vn -0.5752 0.7007 -0.4221
vn -0.7216 0.2736 -0.6359
vn 0.6628 0.7274 -0.1778
vn 0.6917 -0.5947 0.4096
vn -0.6951 -0.5763 0.4298
vn -0.6356 -0.3528 0.6867
vn -0.7216 0.2736 -0.6359
vn 0.1358 0.5959 -0.7915
vn 0.6628 0.7274 -0.1778
vn 0.6773 -0.1814 0.7130
vn 0.0548 -0.6844 0.7271
vn -0.4909 0.1782 0.8528
vn -0.8094 0.3544 -0.4683
vn 0.5724 0.5994 -0.5595
vn 0.5817 0.3450 -0.7366
vn 0.5724 0.5994 -0.5595
vn -0.6166 0.6112 -0.4962
vn 0.1906 0.7307 -0.6556
vn 0.1358 0.5959 -0.7915
vn -0.7216 0.2736 -0.6359
vn -0.6681 0.0690 -0.7409
vn 0.6917 -0.5947 0.4096
vn -0.6356 -0.3528 0.6867
vn -0.4665 -0.6442 0.6061
vn 0.6282 -0.6100 0.4831
vn -0.6586 -0.5656 0.4963
vn -0.5531 -0.8012 0.2282
vn -0.0864 0.5045 -0.8591
vn 0.8268 0.5287 -0.1919
vn 0.8958 0.3815 -0.2280
vn -0.6951 -0.5763 0.4298
vn -0.3697 -0.6733 0.6402
vn -0.6545 0.7525 -0.0735
vn -0.6545 0.7525 -0.0735
vn -0.6225 -0.7503 0.2228
vn -0.9833 0.1486 -0.1051
vn -0.5918 0.3324 -0.7344
vn -0.8094 0.3544 -0.4683
vn 0.5817 0.3450 -0.7366
vn -0.6586 -0.5656 0.4963
vn 0.6773 -0.1814 0.7130
vn -0.4909 0.1782 0.8528
vn 0.6885 -0.5207 0.5048
vn 0.6917 -0.5947 0.4096
vn -0.4665 -0.6442 0.6061
vn -0.5531 -0.8012 0.2282
vn -0.9843 -0.1766 -0.0088
vn -0.6225 -0.7503 0.2228
vn -0.9843 -0.1766 -0.0088
vn -0.9833 0.1486 -0.1051
vn -0.6225 -0.7503 0.2228
vn -0.6951 -0.5763 0.4298
vn -0.6545 0.7525 -0.0735
vn -0.8376 0.5111 0.1928
vn -0.6545 0.7525 -0.0735
vn -0.6166 0.6112 -0.4962
vn -0.8376 0.5111 0.1928
vn -0.6545 0.7525 -0.0735
vn -0.9833 0.1486 -0.1051
vn -0.5752 0.7007 -0.4221
vn -0.5759 -0.6234 -0.5289
vn -0.5918 0.3324 -0.7344
vn 0.5817 0.3450 -0.7366
vn -0.6681 0.0690 -0.7409
vn -0.0864 0.5045 -0.8591
vn 0.1358 0.5959 -0.7915
vn -0.6356 -0.3528 0.6867
vn -0.7770 0.0715 0.6254
vn -0.4665 -0.6442 0.6061
vn -0.9843 -0.1766 -0.0088
vn -0.7216 0.2736 -0.6359
vn -0.5752 0.7007 -0.4221
vn -0.9833 0.1486 -0.1051
vn -0.9843 -0.1766 -0.0088
vn -0.5752 0.7007 -0.4221
vn 0.7088 -0.6067 0.3599
vn -0.4909 0.1782 0.8528
vn 0.0548 -0.6844 0.7271
vn -0.8376 0.5111 0.1928
vn -0.6356 -0.3528 0.6867
vn -0.6951 -0.5763 0.4298
vn -0.6166 0.6112 -0.4962
vn 0.5724 0.5994 -0.5595
vn -0.8094 0.3544 -0.4683
vn -0.6356 -0.3528 0.6867
vn -0.6166 0.6112 -0.4962
vn -0.7770 0.0715 0.6254
vn -0.6356 -0.3528 0.6867
vn -0.8376 0.5111 0.1928
vn -0.6166 0.6112 -0.4962
vn -0.5918 0.3324 -0.7344
vn -0.4665 -0.6442 0.6061
vn -0.8094 0.3544 -0.4683
vn -0.5918 0.3324 -0.7344
vn -0.5759 -0.6234 -0.5289
vn -0.4665 -0.6442 0.6061
vn -0.6586 -0.5656 0.4963
vn -0.9843 -0.1766 -0.0088
vn -0.5531 -0.8012 0.2282
vn -0.8094 0.3544 -0.4683
vn -0.4665 -0.6442 0.6061
vn -0.7770 0.0715 0.6254
vn -0.6586 -0.5656 0.4963
vn -0.7216 0.2736 -0.6359
vn -0.9843 -0.1766 -0.0088
vn -0.7770 0.0715 0.6254
vn -0.6166 0.6112 -0.4962
vn -0.8094 0.3544 -0.4683
vn -0.7216 0.2736 -0.6359
vn -0.6586 -0.5656 0.4963
vn -0.7724 -0.6015 -0.2041
vn -0.6586 -0.5656 0.4963
vn -0.4909 0.1782 0.8528
vn -0.7724 -0.6015 -0.2041
vn 0.7909 0.6087 0.0626
vn -0.0864 0.5045 -0.8591
vn -0.3522 0.6005 -0.7179
vn -0.7724 -0.6015 -0.2041
vn -0.6681 0.0690 -0.7409
vn -0.7216 0.2736 -0.6359
vn 0.7981 0.5985 0.0698
vn 0.5719 -0.5212 0.6334
vn 0.7909 0.6087 0.0626
vn -0.6681 0.0690 -0.7409
vn -0.3522 0.6005 -0.7179
vn -0.0864 0.5045 -0.8591
vn 0.7088 -0.6067 0.3599
vn -0.6181 -0.6956 -0.3662
vn -0.4909 0.1782 0.8528
vn -0.7724 -0.6015 -0.2041
vn -0.6181 -0.6956 -0.3662
vn -0.6681 0.0690 -0.7409
vn 0.7909 0.6087 0.0626
vn 0.8268 0.5287 -0.1919
vn -0.0864 0.5045 -0.8591
vn -0.6181 -0.6956 -0.3662
vn -0.7724 -0.6015 -0.2041
vn -0.4909 0.1782 0.8528
vn 0.7909 0.6087 0.0626
vn -0.3522 0.6005 -0.7179
vn -0.2959 0.6241 -0.7232
vn -0.6681 0.0690 -0.7409
vn -0.6181 -0.6956 -0.3662
vn -0.3522 0.6005 -0.7179
vn 0.6516 0.6870 0.3216
vn 0.7981 0.5985 0.0698
vn 0.4576 0.6462 -0.6108
vn 0.7981 0.5985 0.0698
vn 0.7909 0.6087 0.0626
vn 0.4576 0.6462 -0.6108
vn -0.6181 -0.6956 -0.3662
vn -0.2959 0.6241 -0.7232
vn -0.3522 0.6005 -0.7179
vn 0.4576 0.6462 -0.6108
vn 0.7909 0.6087 0.0626
vn -0.3365 0.5986 -0.7270
vn 0.6516 0.6870 0.3216
vn 0.5719 -0.5212 0.6334
vn 0.7981 0.5985 0.0698
vn -0.3365 0.5986 -0.7270
vn 0.7909 0.6087 0.0626
vn -0.2959 0.6241 -0.7232
vn 0.3023 -0.9123 0.2762
vn 0.5719 -0.5212 0.6334
vn 0.5568 -0.0701 0.8277
vn 0.3023 -0.9123 0.2762
vn -0.1344 -0.9190 0.3706
vn 0.5719 -0.5212 0.6334
vn 0.5719 -0.5212 0.6334
vn -0.1344 -0.9190 0.3706
vn 0.7088 -0.6067 0.3599
vn -0.1344 -0.9190 0.3706
vn -0.2088 -0.9688 0.1334
vn 0.7088 -0.6067 0.3599
vn 0.5719 -0.5212 0.6334
vn 0.6516 0.6870 0.3216
vn 0.5568 -0.0701 0.8277
vn 0.6516 0.6870 0.3216
vn 0.6069 -0.5754 0.5482
vn 0.5568 -0.0701 0.8277
vn 0.6069 -0.5754 0.5482
vn 0.3023 -0.9123 0.2762
vn 0.5568 -0.0701 0.8277
vn -0.1344 -0.9190 0.3706
vn 0.3023 -0.9123 0.2762
vn -0.2088 -0.9688 0.1334
vn 0.6069 -0.5754 0.5482
vn 0.6516 0.6870 0.3216
vn 0.9353 0.3214 0.1482
vn 0.0313 -0.8251 0.5641
vn 0.3023 -0.9123 0.2762
vn 0.6069 -0.5754 0.5482
vn -0.2088 -0.9688 0.1334
vn 0.3023 -0.9123 0.2762
vn -0.4731 -0.8090 0.3489
vn 0.6516 0.6870 0.3216
vn 0.4576 0.6462 -0.6108
vn 0.9353 0.3214 0.1482
vn 0.6494 0.5209 -0.5541
vn 0.6264 0.5294 0.5721
vn 0.9353 0.3214 0.1482
vn -0.6181 -0.6956 -0.3662
vn -0.3365 0.5986 -0.7270
vn -0.2959 0.6241 -0.7232
vn 0.0313 -0.8251 0.5641
vn 0.0925 -0.5677 0.8180
vn 0.3023 -0.9123 0.2762
vn -0.2088 -0.9688 0.1334
vn -0.6181 -0.6956 -0.3662
vn 0.7088 -0.6067 0.3599
vn 0.3023 -0.9123 0.2762
vn 0.0925 -0.5677 0.8180
vn -0.4731 -0.8090 0.3489
vn -0.2088 -0.9688 0.1334
vn -0.5263 -0.6218 -0.5801
vn -0.6181 -0.6956 -0.3662
vn 0.6494 0.5209 -0.5541
vn 0.9353 0.3214 0.1482
vn 0.4576 0.6462 -0.6108
vn 0.9353 0.3214 0.1482
vn 0.6264 0.5294 0.5721
vn 0.6007 -0.5989 0.5296
vn 0.6264 0.5294 0.5721
vn 0.6494 0.5209 -0.5541
vn 0.6532 0.6391 0.4060
vn 0.9353 0.3214 0.1482
vn 0.6007 -0.5989 0.5296
vn 0.6069 -0.5754 0.5482
vn -0.3992 -0.1099 -0.9102
vn -0.6181 -0.6956 -0.3662
vn -0.5263 -0.6218 -0.5801
vn 0.6069 -0.5754 0.5482
vn 0.6007 -0.5989 0.5296
vn 0.0313 -0.8251 0.5641
vn 0.4576 0.6462 -0.6108
vn -0.3365 0.5986 -0.7270
vn -0.2070 0.2410 -0.9482
vn 0.6264 0.5294 0.5721
vn 0.6532 0.6391 0.4060
vn 0.4704 0.8319 0.2944
vn 0.6494 0.5209 -0.5541
vn 0.4576 0.6462 -0.6108
vn -0.2070 0.2410 -0.9482
vn 0.6264 0.5294 0.5721
vn 0.7371 -0.0848 0.6704
vn 0.6007 -0.5989 0.5296
vn -0.3992 -0.1099 -0.9102
vn -0.3365 0.5986 -0.7270
vn -0.6181 -0.6956 -0.3662
vn 0.6264 0.5294 0.5721
vn 0.4704 0.8319 0.2944
vn 0.2625 0.6569 0.7068
vn 0.6494 0.5209 -0.5541
vn -0.2070 0.2410 -0.9482
vn 0.3859 0.4485 -0.8061
vn 0.6494 0.5209 -0.5541
vn 0.3859 0.4485 -0.8061
vn 0.6532 0.6391 0.4060
vn -0.3365 0.5986 -0.7270
vn -0.3992 -0.1099 -0.9102
vn -0.2070 0.2410 -0.9482
vn 0.4704 0.8319 0.2944
vn 0.6532 0.6391 0.4060
vn 0.7298 -0.6809 -0.0619
vn -0.2070 0.2410 -0.9482
vn -0.3992 -0.1099 -0.9102
vn 0.2949 -0.4608 -0.8371
vn 0.2625 0.6569 0.7068
vn 0.4207 -0.8575 0.2961
vn 0.6351 -0.5753 0.5154
vn 0.6532 0.6391 0.4060
vn 0.3859 0.4485 -0.8061
vn 0.3664 -0.0849 -0.9266
vn 0.0925 -0.5677 0.8180
vn -0.1963 -0.8349 0.5143
vn -0.4731 -0.8090 0.3489
vn 0.0313 -0.8251 0.5641
vn -0.1963 -0.8349 0.5143
vn 0.0925 -0.5677 0.8180
vn 0.6007 -0.5989 0.5296
vn 0.5156 -0.5698 0.6399
vn 0.0313 -0.8251 0.5641
vn 0.2625 0.6569 0.7068
vn 0.4479 0.8936 0.0281
vn 0.6264 0.5294 0.5721
vn -0.5263 -0.6218 -0.5801
vn 0.2949 -0.4608 -0.8371
vn -0.3992 -0.1099 -0.9102
vn 0.6357 -0.4649 -0.6162
vn 0.6110 0.5966 -0.5204
vn 0.3859 0.4485 -0.8061
vn -0.7523 -0.5959 -0.2812
vn -0.2088 -0.9688 0.1334
vn -0.4731 -0.8090 0.3489
vn -0.2088 -0.9688 0.1334
vn -0.7523 -0.5959 -0.2812
vn -0.5263 -0.6218 -0.5801
vn 0.6007 -0.5989 0.5296
vn 0.7371 -0.0848 0.6704
vn 0.5156 -0.5698 0.6399
vn -0.2070 0.2410 -0.9482
vn 0.2949 -0.4608 -0.8371
vn 0.3859 0.4485 -0.8061
vn -0.5263 -0.6218 -0.5801
vn 0.8821 -0.3661 -0.2966
vn 0.2949 -0.4608 -0.8371
vn 0.6357 -0.4649 -0.6162
vn 0.2949 -0.4608 -0.8371
vn 0.6132 -0.5626 -0.5545
vn 0.3859 0.4485 -0.8061
vn 0.6110 0.5966 -0.5204
vn 0.7588 0.6506 0.0322
vn 0.6357 -0.4649 -0.6162
vn 0.3859 0.4485 -0.8061
vn 0.2949 -0.4608 -0.8371
vn 0.0313 -0.8251 0.5641
vn 0.5156 -0.5698 0.6399
vn 0.4707 -0.6792 0.5632
vn -0.4731 -0.8090 0.3489
vn -0.1963 -0.8349 0.5143
vn -0.7523 -0.5959 -0.2812
vn 0.0313 -0.8251 0.5641
vn 0.4707 -0.6792 0.5632
vn -0.1963 -0.8349 0.5143
vn 0.6264 0.5294 0.5721
vn 0.4479 0.8936 0.0281
vn 0.7403 -0.0481 0.6706
vn 0.5343 0.5411 0.6494
vn 0.5535 -0.5787 0.5989
vn 0.7072 0.5219 -0.4770
vn -0.5263 -0.6218 -0.5801
vn -0.7523 -0.5959 -0.2812
vn -0.5159 -0.8439 -0.1475
vn -0.5159 -0.8439 -0.1475
vn -0.7523 -0.5959 -0.2812
vn -0.1963 -0.8349 0.5143
vn 0.6247 -0.5888 -0.5130
vn 0.4600 0.8382 -0.2930
vn 0.7072 0.5219 -0.4770
vn 0.6264 0.5294 0.5721
vn 0.7403 -0.0481 0.6706
vn 0.7371 -0.0848 0.6704
vn 0.4707 -0.6792 0.5632
vn 0.5156 -0.5698 0.6399
vn 0.5947 -0.6206 0.5111
vn 0.6583 0.5405 -0.5239
vn 0.7428 -0.6688 0.0323
vn 0.7176 0.0683 -0.6931
vn 0.5947 -0.6206 0.5111
vn -0.1963 -0.8349 0.5143
vn 0.4707 -0.6792 0.5632
vn 0.7223 0.6903 0.0412
vn 0.7428 -0.6688 0.0323
vn 0.6583 0.5405 -0.5239
vn 0.3237 -0.8658 -0.3816
vn 0.6357 -0.4649 -0.6162
vn 0.6132 -0.5626 -0.5545
vn 0.3859 0.4485 -0.8061
vn 0.7588 0.6506 0.0322
vn 0.5669 0.6247 -0.5370
vn 0.7371 -0.0848 0.6704
vn 0.5546 -0.5930 0.5838
vn 0.5156 -0.5698 0.6399
vn 0.4704 0.8319 0.2944
vn 0.4207 -0.8575 0.2961
vn 0.2625 0.6569 0.7068
vn 0.7403 -0.0481 0.6706
vn 0.6618 0.7255 -0.1888
vn 0.7371 -0.0848 0.6704
vn 0.7371 -0.0848 0.6704
vn 0.6618 0.7255 -0.1888
vn 0.5546 -0.5930 0.5838
vn 0.7223 0.6903 0.0412
vn 0.6583 0.5405 -0.5239
vn 0.3800 0.7716 -0.5102
vn 0.6618 0.7255 -0.1888
vn 0.7403 -0.0481 0.6706
vn 0.4479 0.8936 0.0281
vn 0.4747 0.5301 0.7026
vn 0.5546 -0.5930 0.5838
vn 0.6618 0.7255 -0.1888
vn -0.1963 -0.8349 0.5143
vn 0.8798 -0.3126 0.3580
vn -0.5159 -0.8439 -0.1475
vn 0.7428 -0.6688 0.0323
vn 0.7223 0.6903 0.0412
vn 0.4600 0.8382 -0.2930
vn 0.7352 0.6779 -0.0005
vn 0.5343 0.5411 0.6494
vn 0.7072 0.5219 -0.4770
vn 0.5947 -0.6206 0.5111
vn 0.5156 -0.5698 0.6399
vn 0.8798 -0.3126 0.3580
vn 0.7352 0.6779 -0.0005
vn 0.7072 0.5219 -0.4770
vn 0.4600 0.8382 -0.2930
vn 0.3779 0.8604 0.3418
vn 0.5343 0.5411 0.6494
vn 0.7352 0.6779 -0.0005
vn 0.2949 -0.4608 -0.8371
vn 0.8821 -0.3661 -0.2966
vn 0.6132 -0.5626 -0.5545
vn 0.5156 -0.5698 0.6399
vn 0.5546 -0.5930 0.5838
vn 0.5030 -0.7066 0.4976
vn 0.6886 0.7235 0.0492
vn 0.7223 0.6903 0.0412
vn 0.6732 0.7393 0.0167
vn 0.6618 0.7255 -0.1888
vn 0.4479 0.8936 0.0281
vn 0.5364 0.7751 0.3339
vn 0.3800 0.7716 -0.5102
vn 0.6732 0.7393 0.0167
vn 0.7223 0.6903 0.0412
vn 0.7223 0.6903 0.0412
vn 0.6886 0.7235 0.0492
vn 0.4600 0.8382 -0.2930
vn 0.8821 -0.3661 -0.2966
vn -0.5263 -0.6218 -0.5801
vn -0.5159 -0.8439 -0.1475
vn 0.2625 0.6569 0.7068
vn 0.3883 0.4965 0.7764
vn 0.4479 0.8936 0.0281
vn 0.6110 0.5966 -0.5204
vn 0.2548 0.9227 -0.2894
vn 0.7588 0.6506 0.0322
vn 0.6886 0.7235 0.0492
vn 0.7352 0.6779 -0.0005
vn 0.4600 0.8382 -0.2930
vn 0.4479 0.8936 0.0281
vn 0.3883 0.4965 0.7764
vn 0.3432 0.8092 0.4770
vn 0.8798 -0.3126 0.3580
vn 0.8821 -0.3661 -0.2966
vn -0.5159 -0.8439 -0.1475
vn 0.8798 -0.3126 0.3580
vn -0.1963 -0.8349 0.5143
vn 0.5947 -0.6206 0.5111
vn 0.3883 0.4965 0.7764
vn 0.2625 0.6569 0.7068
vn 0.6351 -0.5753 0.5154
vn 0.3800 0.7716 -0.5102
vn 0.3237 -0.8658 -0.3816
vn 0.6132 -0.5626 -0.5545
vn 0.4479 0.8936 0.0281
vn 0.3432 0.8092 0.4770
vn 0.5364 0.7751 0.3339
vn 0.6886 0.7235 0.0492
vn 0.6732 0.7393 0.0167
vn 0.8821 -0.3661 -0.2966
vn 0.3800 0.7716 -0.5102
vn 0.8821 -0.3661 -0.2966
vn 0.6732 0.7393 0.0167
vn 0.5030 -0.7066 0.4976
vn 0.5546 -0.5930 0.5838
vn 0.3686 -0.8566 0.3611
vn 0.3800 0.7716 -0.5102
vn 0.6132 -0.5626 -0.5545
vn 0.8821 -0.3661 -0.2966
vn 0.7352 0.6779 -0.0005
vn 0.8821 -0.3661 -0.2966
vn 0.8798 -0.3126 0.3580
vn 0.8798 -0.3126 0.3580
vn 0.5156 -0.5698 0.6399
vn 0.5030 -0.7066 0.4976
vn 0.5364 0.7751 0.3339
vn 0.3432 0.8092 0.4770
vn 0.6239 0.3834 0.6809
vn 0.3432 0.8092 0.4770
vn 0.3883 0.4965 0.7764
vn 0.6239 0.3834 0.6809
vn 0.7352 0.6779 -0.0005
vn 0.6886 0.7235 0.0492
vn 0.8821 -0.3661 -0.2966
vn 0.8798 -0.3126 0.3580
vn 0.3779 0.8604 0.3418
vn 0.7352 0.6779 -0.0005
vn 0.8798 -0.3126 0.3580
vn 0.3686 -0.8566 0.3611
vn 0.3779 0.8604 0.3418
vn 0.6351 -0.5753 0.5154
vn 0.6239 0.3834 0.6809
vn 0.3883 0.4965 0.7764
vn 0.3686 -0.8566 0.3611
vn 0.8798 -0.3126 0.3580
vn 0.5030 -0.7066 0.4976
vn 0.6618 0.7255 -0.1888
vn 0.3325 0.8761 0.3493
vn 0.4747 0.5301 0.7026
vn 0.5621 -0.5342 0.6313
vn 0.3973 -0.8208 0.4105
vn 0.6769 -0.4979 -0.5422
vn 0.6351 -0.5753 0.5154
vn 0.5364 0.7751 0.3339
vn 0.6239 0.3834 0.6809
vn 0.6618 0.7255 -0.1888
vn 0.5364 0.7751 0.3339
vn 0.3325 0.8761 0.3493
vn 0.7176 0.0683 -0.6931
vn -0.5474 -0.5461 -0.6341
vn 0.6583 0.5405 -0.5239
vn 0.3237 -0.8658 -0.3816
vn -0.5116 -0.4709 -0.7187
vn 0.6357 -0.4649 -0.6162
vn 0.9151 -0.3496 -0.2007
vn 0.5364 0.7751 0.3339
vn 0.6351 -0.5753 0.5154
vn 0.9151 -0.3496 -0.2007
vn 0.3973 -0.8208 0.4105
vn 0.5364 0.7751 0.3339
vn 0.5364 0.7751 0.3339
vn 0.3973 -0.8208 0.4105
vn 0.3325 0.8761 0.3493
vn -0.5998 -0.6524 0.4633
vn 0.5546 -0.5930 0.5838
vn 0.4747 0.5301 0.7026
vn 0.4747 0.5301 0.7026
vn 0.3325 0.8761 0.3493
vn -0.6658 0.4581 0.5890
vn 0.7176 0.0683 -0.6931
vn 0.5775 -0.5573 -0.5966
vn -0.5474 -0.5461 -0.6341
vn -0.5116 -0.4709 -0.7187
vn 0.6110 0.5966 -0.5204
vn 0.6357 -0.4649 -0.6162
vn 0.5343 0.5411 0.6494
vn -0.6361 -0.5635 0.5271
vn 0.5535 -0.5787 0.5989
vn 0.3325 0.8761 0.3493
vn 0.3973 -0.8208 0.4105
vn -0.0415 0.6060 0.7944
vn 0.5621 -0.5342 0.6313
vn -0.0432 -0.7317 0.6803
vn 0.3973 -0.8208 0.4105
vn 0.5546 -0.5930 0.5838
vn -0.0168 -0.7976 0.6030
vn 0.3686 -0.8566 0.3611
vn 0.5343 0.5411 0.6494
vn 0.3779 0.8604 0.3418
vn -0.6374 0.5106 0.5771
vn 0.3686 -0.8566 0.3611
vn -0.0168 -0.7976 0.6030
vn 0.3779 0.8604 0.3418
vn -0.4071 0.7774 -0.4795
vn 0.3800 0.7716 -0.5102
vn 0.6583 0.5405 -0.5239
vn 0.0402 -0.6809 -0.7313
vn 0.3237 -0.8658 -0.3816
vn 0.3800 0.7716 -0.5102
vn 0.0000 1.0000 0.0000
vn 0.0000 1.0000 0.0000
vn 0.0000 1.0000 0.0000
vn 0.0000 1.0000 0.0000
vn 0.0000 1.0000 0.0000
vn 0.0000 1.0000 0.0000
vn 0.0000 1.0000 0.0000
vn 0.0000 1.0000 0.0000
vn 0.0000 1.0000 0.0000
vn 0.0000 1.0000 0.0000
vn 0.0000 1.0000 0.0000
vn 0.0000 1.0000 0.0000
vn 0.0000 1.0000 0.0000
vn 0.0000 1.0000 0.0000
vn 0.0000 1.0000 0.0000
vn 0.0000 1.0000 0.0000
vn 0.0000 1.0000 0.0000
vn 0.0000 1.0000 0.0000
vn 0.0000 1.0000 0.0000
vn 0.0000 1.0000 0.0000
vn 0.0000 1.0000 0.0000
vn 0.0000 1.0000 0.0000
vn 0.0000 1.0000 0.0000
vn 0.0000 1.0000 0.0000
vn 0.0000 1.0000 0.0000
vn 0.0000 1.0000 0.0000
vn 0.0000 1.0000 0.0000
vn 0.0000 1.0000 0.0000
vn 0.0000 1.0000 0.0000
vn 0.0000 1.0000 0.0000
vn 0.0000 1.0000 0.0000
vn 0.0000 1.0000 0.0000
vn 0.0000 1.0000 0.0000
vn 0.0000 1.0000 0.0000
vn 0.0000 1.0000 0.0000
vn 0.0000 1.0000 0.0000
vn 0.0000 1.0000 0.0000
vn 0.0000 1.0000 0.0000
vn 0.0000 1.0000 0.0000
vn 0.0000 1.0000 0.0000
vn 0.0000 1.0000 0.0000
vn 0.0000 1.0000 0.0000
vn 0.0000 1.0000 0.0000
f 1/1/1 2/2/2 3/3/3
f 4/4/4 5/5/5 6/6/6
f 7/7/7 8/8/8 9/9/9
f 10/10/10 11/11/11 12/12/12
f 13/13/13 14/14/14 15/15/15
f 16/16/16 17/17/17 18/18/18
f 19/19/19 20/20/20 21/21/21
f 22/22/22 23/23/23 24/24/24
f 25/25/25 26/26/26 27/27/27
f 28/28/28 29/29/29 30/30/30
f 31/31/31 32/32/32 33/33/33
f 34/34/34 35/35/35 36/36/36
f 37/37/37 38/38/38 39/39/39
f 40/40/40 41/41/41 42/42/42
f 43/43/43 44/44/44 45/45/45
f 46/46/46 47/47/47 48/48/48
f 49/49/49 50/50/50 51/51/51
f 52/52/52 53/53/53 54/54/54
f 55/55/55 56/56/56 57/57/57
f 58/58/58 59/59/59 60/60/60
f 61/61/61 62/62/62 63/63/63
f 64/64/64 65/65/65 66/66/66
f 67/67/67 68/68/68 69/69/69
f 70/70/70 71/71/71 72/72/72
f 73/73/73 74/74/74 75/75/75
f 76/76/76 77/77/77 78/78/78
f 79/79/79 80/80/80 81/81/81
f 82/82/82 83/83/83 84/84/84
f 85/85/85 86/86/86 87/87/87
f 88/88/88 89/89/89 90/90/90
f 91/91/91 92/92/92 93/93/93
f 94/94/94 95/95/95 96/96/96
f 97/97/97 98/98/98 99/99/99
f 100/100/100 101/101/101 102/102/102
f 103/103/103 104/104/104 105/105/105
f 106/106/106 107/107/107 108/108/108
f 109/109/109 110/110/110 111/111/111
f 112/112/112 113/113/113 114/114/114
f 115/115/115 116/116/116 117/117/117
f 118/118/118 119/119/119 120/120/120
f 121/121/121 122/122/122 123/123/123
f 124/124/124 125/125/125 126/126/126
f 127/127/127 128/128/128 129/129/129
f 130/130/130 131/131/131 132/132/132
f 133/133/133 134/134/134 135/135/135
f 136/136/136 137/137/137 138/138/138
f 139/139/139 140/140/140 141/141/141
f 142/142/142 143/143/143 144/144/144
f 145/145/145 146/146/146 147/147/147
f 148/148/148 149/149/149 150/150/150
f 151/151/151 152/152/152 153/153/153
f 154/154/154 155/155/155 156/156/156
f 157/157/157 158/158/158 159/159/159
f 160/160/160 161/161/161 162/162/162
f 163/163/163 164/164/164 165/165/165
f 166/166/166 167/167/167 168/168/168
f 169/169/169 170/170/170 171/171/171
f 172/172/172 173/173/173 174/174/174
f 175/175/175 176/176/176 177/177/177
f 178/178/178 179/179/179 180/180/180
f 181/181/181 182/182/182 183/183/183
f 184/184/184 185/185/185 186/186/186
f 187/187/187 188/188/188 189/189/189
f 190/190/190 191/191/191 192/192/192
f 193/193/193 194/194/194 195/195/195
f 196/196/196 197/197/197 198/198/198
f 199/199/199 200/200/200 201/201/201
f 202/202/202 203/203/203 204/204/204
f 205/205/205 206/206/206 207/207/207
f 208/208/208 209/209/209 210/210/210
f 211/211/211 212/212/212 213/213/213
f 214/214/214 215/215/215 216/216/216
f 217/217/217 218/218/218 219/219/219
f 220/220/220 221/221/221 222/222/222
f 223/223/223 224/224/224 225/225/225
f 226/226/226 227/227/227 228/228/228
f 229/229/229 230/230/230 231/231/231
f 232/232/232 233/233/233 234/234/234
f 235/235/235 236/236/236 237/237/237
f 238/238/238 239/239/239 240/240/240
f 241/241/241 242/242/242 243/243/243
f 244/244/244 245/245/245 246/246/246
f 247/247/247 248/248/248 249/249/249
f 250/250/250 251/251/251 252/252/252
f 253/253/253 254/254/254 255/255/255
f 256/256/256 257/257/257 258/258/258
f 259/259/259 260/260/260 261/261/261
f 262/262/262 263/263/263 264/264/264
f 265/265/265 266/266/266 267/267/267
f 268/268/268 269/269/269 270/270/270
f 271/271/271 272/272/272 273/273/273
f 274/274/274 275/275/275 276/276/276
f 277/277/277 278/278/278 279/279/279
f 280/280/280 281/281/281 282/282/282
f 283/283/283 284/284/284 285/285/285
f 286/286/286 287/287/287 288/288/288
f 289/289/289 290/290/290 291/291/291
f 292/292/292 293/293/293 294/294/294
f 295/295/295 296/296/296 297/297/297
f 298/298/298 299/299/299 300/300/300
f 301/301/301 302/302/302 303/303/303
f 304/304/304 305/305/305 306/306/306
f 307/307/307 308/308/308 309/309/309
f 310/310/310 311/311/311 312/312/312
f 313/313/313 314/314/314 315/315/315
f 316/316/316 317/317/317 318/318/318
f 319/319/319 320/320/320 321/321/321
f 322/322/322 323/323/323 324/324/324
f 325/325/325 326/326/326 327/327/327
f 328/328/328 329/329/329 330/330/330
f 331/331/331 332/332/332 333/333/333
f 334/334/334 335/335/335 336/336/336
f 337/337/337 338/338/338 339/339/339
f 340/340/340 341/341/341 342/342/342
f 343/343/343 344/344/344 345/345/345
f 346/346/346 347/347/347 348/348/348
f 349/349/349 350/350/350 351/351/351
f 352/352/352 353/353/353 354/354/354
f 355/355/355 356/356/356 357/357/357
f 358/358/358 359/359/359 360/360/360
f 361/361/361 362/362/362 363/363/363
f 364/364/364 365/365/365 366/366/366
f 367/367/367 368/368/368 369/369/369
f 370/370/370 371/371/371 372/372/372
f 373/373/373 374/374/374 375/375/375
f 376/376/376 377/377/377 378/378/378
f 379/379/379 380/380/380 381/381/381
f 382/382/382 383/383/383 384/384/384
f 385/385/385 386/386/386 387/387/387
f 388/388/388 389/389/389 390/390/390
f 391/391/391 392/392/392 393/393/393
f 394/394/394 395/395/395 396/396/396
f 397/397/397 398/398/398 399/399/399
f 400/400/400 401/401/401 402/402/402
f 403/403/403 404/404/404 405/405/405
f 406/406/406 407/407/407 408/408/408
f 409/409/409 410/410/410 411/411/411
f 412/412/412 413/413/413 414/414/414
f 415/415/415 416/416/416 417/417/417
f 418/418/418 419/419/419 420/420/420
f 421/421/421 422/422/422 423/423/423
f 424/424/424 425/425/425 426/426/426
f 427/427/427 428/428/428 429/429/429
f 430/430/430 431/431/431 432/432/432
f 433/433/433 434/434/434 435/435/435
f 436/436/436 437/437/437 438/438/438
f 439/439/439 440/440/440 441/441/441
f 442/442/442 443/443/443 444/444/444
f 445/445/445 446/446/446 447/447/447
f 448/448/448 449/449/449 450/450/450
f 451/451/451 452/452/452 453/453/453
f 454/454/454 455/455/455 456/456/456
f 457/457/457 458/458/458 459/459/459
f 460/460/460 461/461/461 462/462/462
f 463/463/463 464/464/464 465/465/465
f 466/466/466 467/467/467 468/468/468
f 469/469/469 470/470/470 471/471/471
f 472/472/472 473/473/473 474/474/474
f 475/475/475 476/476/476 477/477/477
f 478/478/478 479/479/479 480/480/480
f 481/481/481 482/482/482 483/483/483
f 484/484/484 485/485/485 486/486/486
f 487/487/487 488/488/488 489/489/489
f 490/490/490 491/491/491 492/492/492
f 493/493/493 494/494/494 495/495/495
f 496/496/496 497/497/497 498/498/498
f 499/499/499 500/500/500 501/501/501
f 502/502/502 503/503/503 504/504/504
f 505/505/505 506/506/506 507/507/507
f 508/508/508 509/509/509 510/510/510
f 511/511/511 512/512/512 513/513/513
f 514/514/514 515/515/515 516/516/516
f 517/517/517 518/518/518 519/519/519
f 520/520/520 521/521/521 522/522/522
f 523/523/523 524/524/524 525/525/525
f 526/526/526 527/527/527 528/528/528
f 529/529/529 530/530/530 531/531/531
f 532/532/532 533/533/533 534/534/534
f 535/535/535 536/536/536 537/537/537
f 538/538/538 539/539/539 540/540/540
f 541/541/541 542/542/542 543/543/543
f 544/544/544 545/545/545 546/546/546
f 547/547/547 548/548/548 549/549/549
f 550/550/550 551/551/551 552/552/552
f 553/553/553 554/554/554 555/555/555
f 556/556/556 557/557/557 558/558/558
f 559/559/559 560/560/560 561/561/561
f 562/562/562 563/563/563 564/564/564
f 565/565/565 566/566/566 567/567/567
f 568/568/568 569/569/569 570/570/570
f 571/571/571 572/572/572 573/573/573
f 574/574/574 575/575/575 576/576/576
f 577/577/577 578/578/578 579/579/579
f 580/580/580 581/581/581 582/582/582
f 583/583/583 584/584/584 585/585/585
f 586/586/586 587/587/587 588/588/588
f 589/589/589 590/590/590 591/591/591
f 592/592/592 593/593/593 594/594/594
f 595/595/595 596/596/596 597/597/597
f 598/598/598 599/599/599 600/600/600
f 601/601/601 602/602/602 603/603/603
f 604/604/604 605/605/605 606/606/606
f 607/607/607 608/608/608 609/609/609
f 610/610/610 611/611/611 612/612/612
f 613/613/613 614/614/614 615/615/615
f 616/616/616 617/617/617 618/618/618
f 619/619/619 620/620/620 621/621/621
f 622/622/622 623/623/623 624/624/624
f 625/625/625 626/626/626 627/627/627
f 628/628/628 629/629/629 630/630/630
f 631/631/631 632/632/632 633/633/633
f 634/634/634 635/635/635 636/636/636
f 637/637/637 638/638/638 639/639/639
f 640/640/640 641/641/641 642/642/642
f 643/643/643 644/644/644 645/645/645
f 646/646/646 647/647/647 648/648/648
f 649/649/649 650/650/650 651/651/651
f 652/652/652 653/653/653 654/654/654
f 655/655/655 656/656/656 657/657/657
f 658/658/658 659/659/659 660/660/660
f 661/661/661 662/662/662 663/663/663
f 664/664/664 665/665/665 666/666/666
f 667/667/667 668/668/668 669/669/669
f 670/670/670 671/671/671 672/672/672
f 673/673/673 674/674/674 675/675/675
f 676/676/676 677/677/677 678/678/678
f 679/679/679 680/680/680 681/681/681
f 682/682/682 683/683/683 684/684/684
f 685/685/685 686/686/686 687/687/687
f 688/688/688 689/689/689 690/690/690
f 691/691/691 692/692/692 693/693/693
f 694/694/694 695/695/695 696/696/696
f 697/697/697 698/698/698 699/699/699
f 700/700/700 701/701/701 702/702/702
f 703/703/703 704/704/704 705/705/705
f 706/706/706 707/707/707 708/708/708
f 709/709/709 710/710/710 711/711/711
f 712/712/712 713/713/713 714/714/714
f 715/715/715 716/716/716 717/717/717
f 718/718/718 719/719/719 720/720/720
f 721/721/721 722/722/722 723/723/723
f 724/724/724 725/725/725 726/726/726
f 727/727/727 728/728/728 729/729/729
f 730/730/730 731/731/731 732/732/732
f 733/733/733 734/734/734 735/735/735
f 736/736/736 737/737/737 738/738/738
f 739/739/739 740/740/740 741/741/741
f 742/742/742 743/743/743 744/744/744
f 745/745/745 746/746/746 747/747/747
f 748/748/748 749/749/749 750/750/750
f 751/751/751 752/752/752 753/753/753
f 754/754/754 755/755/755 756/756/756
f 757/757/757 758/758/758 759/759/759
f 760/760/760 761/761/761 762/762/762
f 763/763/763 764/764/764 765/765/765
f 766/766/766 767/767/767 768/768/768
f 769/769/769 770/770/770 771/771/771
f 769/769/769 771/771/771 770/770/770
f 769/769/769 771/771/771 772/772/772
f 769/769/769 772/772/772 771/771/771
f 769/769/769 772/772/772 773/773/773
f 769/769/769 773/773/773 772/772/772
f 769/769/769 773/773/773 774/774/774
f 769/769/769 774/774/774 773/773/773
f 769/769/769 774/774/774 775/775/775
f 769/769/769 775/775/775 774/774/774
f 769/769/769 775/775/775 776/776/776
f 769/769/769 776/776/776 775/775/775
f 769/769/769 776/776/776 777/777/777
f 769/769/769 777/777/777 776/776/776
f 769/769/769 777/777/777 778/778/778
f 769/769/769 778/778/778 777/777/777
f 769/769/769 778/778/778 779/779/779
f 769/769/769 779/779/779 778/778/778
f 769/769/769 779/779/779 770/770/770
f 769/769/769 770/770/770 779/779/779
f 780/780/780 781/781/781 782/782/782
f 780/780/780 782/782/782 781/781/781
f 780/780/780 782/782/782 783/783/783
f 780/780/780 783/783/783 782/782/782
f 780/780/780 783/783/783 784/784/784
f 780/780/780 784/784/784 783/783/783
f 780/780/780 784/784/784 785/785/785
f 780/780/780 785/785/785 784/784/784
f 780/780/780 785/785/785 786/786/786
f 780/780/780 786/786/786 785/785/785
f 780/780/780 786/786/786 787/787/787
f 780/780/780 787/787/787 786/786/786
f 780/780/780 787/787/787 788/788/788
f 780/780/780 788/788/788 787/787/787
f 780/780/780 788/788/788 789/789/789
f 780/780/780 789/789/789 788/788/788
f 780/780/780 789/789/789 790/790/790
f 780/780/780 790/790/790 789/789/789
f 780/780/780 790/790/790 791/791/791
f 780/780/780 791/791/791 790/790/790
f 780/780/780 791/791/791 792/792/792
f 780/780/780 792/792/792 791/791/791
f 780/780/780 792/792/792 793/793/793
f 780/780/780 793/793/793 792/792/792
f 780/780/780 793/793/793 794/794/794
f 780/780/780 794/794/794 793/793/793
f 780/780/780 794/794/794 795/795/795
f 780/780/780 795/795/795 794/794/794
f 780/780/780 795/795/795 796/796/796
f 780/780/780 796/796/796 795/795/795
f 780/780/780 796/796/796 797/797/797
f 780/780/780 797/797/797 796/796/796
f 780/780/780 797/797/797 798/798/798
f 780/780/780 798/798/798 797/797/797
f 780/780/780 798/798/798 781/781/781
f 780/780/780 781/781/781 798/798/798
f 799/799/799 800/800/800 801/801/801
f 799/799/799 801/801/801 800/800/800
f 799/799/799 801/801/801 802/802/802
f 799/799/799 802/802/802 801/801/801
f 799/799/799 802/802/802 803/803/803
f 799/799/799 803/803/803 802/802/802
f 799/799/799 803/803/803 804/804/804
f 799/799/799 804/804/804 803/803/803
f 799/799/799 804/804/804 805/805/805
f 799/799/799 805/805/805 804/804/804
f 799/799/799 805/805/805 806/806/806
f 799/799/799 806/806/806 805/805/805
f 799/799/799 806/806/806 800/800/800
f 799/799/799 800/800/800 806/806/806
f 807/807/807 808/808/808 809/809/809
f 807/807/807 809/809/809 808/808/808
f 807/807/807 809/809/809 810/810/810
f 807/807/807 810/810/810 809/809/809
f 807/807/807 810/810/810 811/811/811
f 807/807/807 811/811/811 810/810/810
f 807/807/807 811/811/811 808/808/808
f 807/807/807 808/808/808 811/811/811
