o leg_left
v 0.00919 0.22852 -0.01523
v -0.00116 0.22807 -0.01413
v 0.00825 0.23580 -0.01488
v -0.00116 0.22807 -0.01413
v -0.00918 0.23489 -0.01222
v 0.00825 0.23580 -0.01488
v 0.01496 0.22813 -0.01850
v -0.02380 0.22697 -0.02003
v 0.00919 0.22852 -0.01523
v -0.02380 0.22697 -0.02003
v -0.00116 0.22807 -0.01413
v 0.00919 0.22852 -0.01523
v 0.01267 0.17260 -0.02145
v -0.00970 0.17260 -0.01904
v -0.02277 0.17255 -0.02307
v 0.00996 0.20295 -0.01953
v -0.01408 0.20185 -0.02030
v -0.02188 0.20238 -0.02413
v 0.01121 0.20307 0.03243
v -0.03007 0.20157 0.02835
v -0.01086 0.20190 0.02002
v 0.01356 0.19338 -0.01917
v -0.02277 0.17255 -0.02307
v -0.02214 0.19351 -0.02217
v -0.02380 0.22697 -0.02003
v 0.01496 0.22813 -0.01850
v -0.02188 0.20238 -0.02413
v -0.03198 0.22029 0.03179
v 0.00526 0.22217 0.02704
v -0.01578 0.22169 0.02672
v -0.00116 0.22807 -0.01413
v -0.01609 0.22735 -0.01180
v -0.00918 0.23489 -0.01222
v -0.00918 0.23489 -0.01222
v -0.02310 0.23468 -0.01952
v 0.01428 0.23669 -0.01876
v -0.01408 0.20185 -0.02030
v 0.01041 0.19399 -0.01822
v -0.01918 0.19439 -0.01928
v -0.00116 0.22807 -0.01413
v -0.02380 0.22697 -0.02003
v -0.01609 0.22735 -0.01180
v -0.01086 0.20190 0.02002
v -0.01084 0.19527 0.01808
v 0.00764 0.19536 0.01871
v 0.01364 0.19508 0.02224
v -0.02835 0.19494 0.01994
v -0.02756 0.17924 0.01774
v -0.01084 0.19527 0.01808
v -0.02835 0.19494 0.01994
v 0.00764 0.19536 0.01871
v 0.01356 0.19338 -0.01917
v -0.02214 0.19351 -0.02217
v -0.01918 0.19439 -0.01928
v -0.01609 0.22735 -0.01180
v -0.01657 0.23414 -0.01075
v -0.00918 0.23489 -0.01222
v -0.01086 0.20190 0.02002
v -0.02174 0.19536 0.01685
v -0.01084 0.19527 0.01808
v -0.01086 0.20190 0.02002
v -0.03007 0.20157 0.02835
v -0.02250 0.20110 0.01840
v -0.01918 0.19439 -0.01928
v -0.01947 0.20108 -0.01981
v -0.01408 0.20185 -0.02030
v -0.03198 0.22029 0.03179
v -0.03007 0.20157 0.02835
v 0.00999 0.22186 0.03610
v -0.00007 0.26011 0.03413
v -0.02825 0.25893 0.03359
v -0.02880 0.25357 0.03326
v 0.00408 0.23034 0.02814
v -0.02795 0.22127 0.02622
v -0.01578 0.22169 0.02672
v -0.02250 0.20110 0.01840
v -0.02174 0.19536 0.01685
v -0.01086 0.20190 0.02002
v -0.01656 0.23050 0.03672
v -0.00380 0.23686 0.03882
v -0.02409 0.23562 0.03684
v -0.01947 0.20108 -0.01981
v -0.02188 0.20238 -0.02413
v -0.01408 0.20185 -0.02030
v -0.01609 0.22735 -0.01180
v -0.01841 0.23422 -0.00392
v -0.01657 0.23414 -0.01075
v -0.01948 0.17235 -0.01920
v -0.00970 0.17260 -0.01904
v -0.01947 0.16551 -0.01938
v 0.00408 0.23034 0.02814
v -0.02843 0.22936 0.02701
v -0.02795 0.22127 0.02622
v -0.01841 0.23422 -0.00392
v -0.01609 0.22735 -0.01180
v -0.01806 0.22677 -0.00386
v -0.02835 0.19494 0.01994
v -0.01084 0.19527 0.01808
v -0.02174 0.19536 0.01685
v -0.02310 0.23468 -0.01952
v -0.01657 0.23414 -0.01075
v -0.01841 0.23422 -0.00392
v -0.02310 0.23468 -0.01952
v -0.00918 0.23489 -0.01222
v -0.01657 0.23414 -0.01075
v -0.02414 0.24994 0.03827
v -0.00335 0.25059 0.03916
v -0.03418 0.25276 0.03584
v -0.01609 0.22735 -0.01180
v -0.02556 0.22596 -0.00495
v -0.01806 0.22677 -0.00386
v -0.01841 0.23422 -0.00392
v -0.01806 0.22677 -0.00386
v -0.02567 0.23104 -0.00412
v -0.02440 0.23408 -0.00417
v -0.02310 0.23468 -0.01952
v -0.01841 0.23422 -0.00392
v -0.01947 0.20108 -0.01981
v -0.01918 0.19439 -0.01928
v -0.02056 0.19445 0.00130
v -0.01947 0.20108 -0.01981
v -0.02056 0.19445 0.00130
v -0.02031 0.19954 -0.00137
v -0.02277 0.17255 -0.02307
v -0.01948 0.17235 -0.01920
v -0.02506 0.17248 0.01163
v -0.02380 0.22697 -0.02003
v -0.02556 0.22596 -0.00495
v -0.01609 0.22735 -0.01180
v -0.02056 0.19445 0.00130
v -0.02058 0.19699 -0.00047
v -0.02031 0.19954 -0.00137
v -0.02031 0.19954 -0.00137
v -0.02364 0.19970 -0.00581
v -0.01947 0.20108 -0.01981
v -0.01947 0.20108 -0.01981
v -0.02364 0.19970 -0.00581
v -0.02188 0.20238 -0.02413
v -0.02069 0.19873 0.00363
v -0.02117 0.19476 0.00905
v -0.02177 0.19952 0.01275
v -0.02056 0.19445 0.00130
v -0.02095 0.19417 0.00335
v -0.02058 0.19699 -0.00047
v -0.02117 0.19476 0.00905
v -0.02069 0.19873 0.00363
v -0.02095 0.19417 0.00335
v -0.01918 0.19439 -0.01928
v -0.02214 0.19351 -0.02217
v -0.02307 0.19368 -0.00629
v -0.02095 0.19417 0.00335
v -0.02069 0.19873 0.00363
v -0.02329 0.19451 0.00630
v -0.02117 0.19476 0.00905
v -0.02174 0.19536 0.01685
v -0.02177 0.19952 0.01275
v -0.01841 0.23422 -0.00392
v -0.02567 0.23104 -0.00412
v -0.02440 0.23408 -0.00417
v -0.02031 0.19954 -0.00137
v -0.02058 0.19699 -0.00047
v -0.02457 0.19878 -0.00734
v -0.02058 0.19699 -0.00047
v -0.02320 0.19427 -0.00045
v -0.02457 0.19878 -0.00734
v -0.02056 0.19445 0.00130
v -0.01918 0.19439 -0.01928
v -0.02320 0.19427 -0.00045
v -0.02031 0.19954 -0.00137
v -0.02457 0.19878 -0.00734
v -0.02364 0.19970 -0.00581
v -0.01948 0.17235 -0.01920
v -0.02277 0.17255 -0.02307
v -0.00970 0.17260 -0.01904
v -0.02095 0.19417 0.00335
v -0.02329 0.19451 0.00630
v -0.02117 0.19476 0.00905
v -0.02177 0.19952 0.01275
v -0.02470 0.19965 0.00850
v -0.02069 0.19873 0.00363
v -0.02250 0.20110 0.01840
v -0.02177 0.19952 0.01275
v -0.02174 0.19536 0.01685
v -0.02058 0.19699 -0.00047
v -0.02095 0.19417 0.00335
v -0.02320 0.19427 -0.00045
v -0.02320 0.19427 -0.00045
v -0.01918 0.19439 -0.01928
v -0.02307 0.19368 -0.00629
v -0.02720 0.19493 0.00920
v -0.02117 0.19476 0.00905
v -0.02329 0.19451 0.00630
v -0.01656 0.23050 0.03672
v -0.02409 0.23562 0.03684
v -0.03260 0.22989 0.03427
v -0.02320 0.19427 -0.00045
v -0.02095 0.19417 0.00335
v -0.02056 0.19445 0.00130
v -0.02177 0.19952 0.01275
v -0.02250 0.20110 0.01840
v -0.02320 0.20210 0.01356
v -0.02395 0.19903 0.01111
v -0.02470 0.19965 0.00850
v -0.02177 0.19952 0.01275
v -0.02177 0.19952 0.01275
v -0.02320 0.20210 0.01356
v -0.02355 0.20317 0.01284
v -0.02329 0.19451 0.00630
v -0.02069 0.19873 0.00363
v -0.02470 0.19965 0.00850
v -0.02117 0.19476 0.00905
v -0.02720 0.19493 0.00920
v -0.02174 0.19536 0.01685
v -0.03260 0.22989 0.03427
v 0.00408 0.23034 0.02814
v -0.01656 0.23050 0.03672
v -0.02380 0.22697 -0.02003
v -0.02188 0.20238 -0.02413
v -0.02364 0.19970 -0.00581
v -0.02393 0.19111 0.00315
v -0.02307 0.19368 -0.00629
v -0.02214 0.19351 -0.02217
v -0.02214 0.19351 -0.02217
v -0.02277 0.17255 -0.02307
v -0.02393 0.19111 0.00315
v -0.03198 0.22029 0.03179
v -0.01578 0.22169 0.02672
v -0.02795 0.22127 0.02622
v -0.02307 0.19368 -0.00629
v -0.02393 0.19111 0.00315
v -0.02320 0.19427 -0.00045
v -0.02414 0.24994 0.03827
v -0.02409 0.23562 0.03684
v -0.00380 0.23686 0.03882
v -0.02355 0.20317 0.01284
v -0.02320 0.20210 0.01356
v -0.02483 0.20447 0.01379
v -0.02277 0.17255 -0.02307
v -0.02454 0.17759 0.00287
v -0.02393 0.19111 0.00315
v -0.02756 0.17924 0.01774
v -0.02519 0.17813 0.01146
v -0.01472 0.17822 0.01615
v -0.02457 0.19878 -0.00734
v -0.02320 0.19427 -0.00045
v -0.03365 0.19418 -0.00566
v -0.02664 0.19053 0.00359
v -0.02393 0.19111 0.00315
v -0.02612 0.17780 0.00311
v -0.02506 0.17248 0.01163
v -0.02454 0.17759 0.00287
v -0.02277 0.17255 -0.02307
v -0.02364 0.19970 -0.00581
v -0.02454 0.20940 -0.00474
v -0.02380 0.22697 -0.02003
v -0.02484 0.20734 -0.00112
v -0.02454 0.20940 -0.00474
v -0.02364 0.19970 -0.00581
v -0.02355 0.20317 0.01284
v -0.02514 0.20507 0.00952
v -0.02177 0.19952 0.01275
v -0.01806 0.22677 -0.00386
v -0.02556 0.22596 -0.00495
v -0.02567 0.23104 -0.00412
v -0.02310 0.23468 -0.01952
v -0.02440 0.23408 -0.00417
v -0.02349 0.25847 -0.01798
v -0.02364 0.19970 -0.00581
v -0.02457 0.19878 -0.00734
v -0.02987 0.20922 -0.01010
v -0.02395 0.19903 0.01111
v -0.02177 0.19952 0.01275
v -0.02514 0.20507 0.00952
v -0.02484 0.20734 -0.00112
v -0.02577 0.20960 0.00164
v -0.02454 0.20940 -0.00474
v -0.02440 0.23408 -0.00417
v -0.02538 0.24325 -0.00464
v -0.02349 0.25847 -0.01798
v -0.02470 0.19965 0.00850
v -0.02720 0.19493 0.00920
v -0.02329 0.19451 0.00630
v -0.02320 0.19427 -0.00045
v -0.02393 0.19111 0.00315
v -0.02664 0.19053 0.00359
v -0.02454 0.17759 0.00287
v -0.02506 0.17248 0.01163
v -0.02519 0.17813 0.01146
v -0.02355 0.20317 0.01284
v -0.02483 0.20447 0.01379
v -0.02514 0.20507 0.00952
v -0.02470 0.19965 0.00850
v -0.02840 0.19738 0.01050
v -0.02720 0.19493 0.00920
v -0.02395 0.19903 0.01111
v -0.02514 0.20507 0.00952
v -0.02470 0.19965 0.00850
v -0.02538 0.24325 -0.00464
v -0.02505 0.25842 -0.00595
v -0.02349 0.25847 -0.01798
v -0.02380 0.22697 -0.02003
v -0.02454 0.20940 -0.00474
v -0.02556 0.22596 -0.00495
v -0.02835 0.19494 0.01994
v -0.02174 0.19536 0.01685
v -0.02720 0.19493 0.00920
v -0.03007 0.20157 0.02835
v -0.02857 0.20156 0.01361
v -0.02320 0.20210 0.01356
v -0.03007 0.20157 0.02835
v -0.02320 0.20210 0.01356
v -0.02250 0.20110 0.01840
v -0.02320 0.20210 0.01356
v -0.02857 0.20156 0.01361
v -0.02483 0.20447 0.01379
v -0.02454 0.17759 0.00287
v -0.02612 0.17780 0.00311
v -0.02393 0.19111 0.00315
v -0.02454 0.17759 0.00287
v -0.02519 0.17813 0.01146
v -0.02756 0.17924 0.01774
v -0.03365 0.19418 -0.00566
v -0.02320 0.19427 -0.00045
v -0.02664 0.19053 0.00359
v -0.02364 0.19970 -0.00581
v -0.02987 0.20922 -0.01010
v -0.03060 0.20861 -0.00385
v -0.02470 0.19965 0.00850
v -0.02514 0.20507 0.00952
v -0.02840 0.19738 0.01050
v -0.02608 0.21024 0.00775
v -0.02514 0.20507 0.00952
v -0.02483 0.20447 0.01379
v -0.02440 0.23408 -0.00417
v -0.02567 0.23104 -0.00412
v -0.02538 0.24325 -0.00464
v -0.02577 0.20960 0.00164
v -0.03060 0.20861 -0.00385
v -0.02454 0.20940 -0.00474
v -0.02409 0.23562 0.03684
v -0.02414 0.24994 0.03827
v -0.03418 0.25276 0.03584
v -0.02612 0.17780 0.00311
v -0.02454 0.17759 0.00287
v -0.02756 0.17924 0.01774
v -0.02364 0.19970 -0.00581
v -0.03060 0.20861 -0.00385
v -0.02484 0.20734 -0.00112
v -0.02984 0.24283 -0.00520
v -0.02505 0.25842 -0.00595
v -0.02538 0.24325 -0.00464
v -0.02608 0.21024 0.00775
v -0.02483 0.20447 0.01379
v -0.02724 0.21126 0.01500
v -0.02577 0.20960 0.00164
v -0.02484 0.20734 -0.00112
v -0.03060 0.20861 -0.00385
v -0.03232 0.22903 -0.00553
v -0.02760 0.23156 0.00300
v -0.02567 0.23104 -0.00412
v -0.02454 0.20940 -0.00474
v -0.02918 0.20894 -0.00489
v -0.02556 0.22596 -0.00495
v -0.02567 0.23104 -0.00412
v -0.02556 0.22596 -0.00495
v -0.03232 0.22903 -0.00553
v -0.02483 0.20447 0.01379
v -0.03086 0.22019 0.01777
v -0.02724 0.21126 0.01500
v -0.02835 0.19494 0.01994
v -0.02720 0.19493 0.00920
v -0.02664 0.19053 0.00359
v -0.02538 0.24325 -0.00464
v -0.02567 0.23104 -0.00412
v -0.02760 0.23156 0.00300
v -0.02514 0.20507 0.00952
v -0.02608 0.21024 0.00775
v -0.03150 0.20993 0.00643
v -0.02730 0.21993 0.01715
v -0.02763 0.23234 0.01327
v -0.02703 0.22025 0.01512
v -0.02826 0.22929 0.02170
v -0.02763 0.23234 0.01327
v -0.02730 0.21993 0.01715
v -0.02664 0.19053 0.00359
v -0.02756 0.17924 0.01774
v -0.02835 0.19494 0.01994
v -0.02703 0.22025 0.01512
v -0.02724 0.21126 0.01500
v -0.02730 0.21993 0.01715
v -0.02756 0.17924 0.01774
v -0.02664 0.19053 0.00359
v -0.02612 0.17780 0.00311
v -0.03260 0.22989 0.03427
v -0.02843 0.22936 0.02701
v 0.00408 0.23034 0.02814
v -0.02785 0.26609 0.01466
v -0.02850 0.25220 0.01620
v -0.02795 0.25330 0.02255
v -0.02788 0.26703 0.01287
v -0.02855 0.26771 0.02288
v -0.02780 0.27917 0.01347
v -0.02795 0.22127 0.02622
v -0.02826 0.22929 0.02170
v -0.02730 0.21993 0.01715
v -0.02785 0.26609 0.01466
v -0.02855 0.26771 0.02288
v -0.02788 0.26703 0.01287
v -0.03418 0.25276 0.03584
v -0.03260 0.22989 0.03427
v -0.02409 0.23562 0.03684
v -0.02826 0.22929 0.02170
v -0.02875 0.23900 0.02155
v -0.02763 0.23234 0.01327
v -0.02987 0.20922 -0.01010
v -0.02457 0.19878 -0.00734
v -0.03223 0.19350 -0.01078
v -0.02795 0.25330 0.02255
v -0.02823 0.25930 0.02331
v -0.02785 0.26609 0.01466
v -0.02795 0.25330 0.02255
v -0.02850 0.25220 0.01620
v -0.02914 0.25255 0.02199
v -0.02483 0.20447 0.01379
v -0.02857 0.20156 0.01361
v -0.03086 0.22019 0.01777
v -0.03150 0.20993 0.00643
v -0.02608 0.21024 0.00775
v -0.02724 0.21126 0.01500
v -0.02730 0.21993 0.01715
v -0.03086 0.22019 0.01777
v -0.02795 0.22127 0.02622
v -0.02785 0.26609 0.01466
v -0.02823 0.25930 0.02331
v -0.02855 0.26771 0.02288
v -0.02826 0.22929 0.02170
v -0.02795 0.22127 0.02622
v -0.02843 0.22936 0.02701
v -0.03086 0.22019 0.01777
v -0.02730 0.21993 0.01715
v -0.02724 0.21126 0.01500
v -0.02875 0.23900 0.02155
v -0.02822 0.24599 0.01417
v -0.02763 0.23234 0.01327
v -0.03291 0.21075 0.01305
v -0.02763 0.23234 0.01327
v -0.03625 0.22954 0.01253
v -0.02454 0.20940 -0.00474
v -0.03060 0.20861 -0.00385
v -0.02918 0.20894 -0.00489
v -0.02556 0.22596 -0.00495
v -0.02918 0.20894 -0.00489
v -0.03232 0.22903 -0.00553
v -0.02850 0.25220 0.01620
v -0.02785 0.26609 0.01466
v -0.03661 0.26443 0.01302
v -0.02880 0.25357 0.03326
v -0.02823 0.25930 0.02331
v -0.02795 0.25330 0.02255
v -0.02875 0.23900 0.02155
v -0.02852 0.24699 0.01624
v -0.02822 0.24599 0.01417
v -0.02538 0.24325 -0.00464
v -0.03122 0.24514 0.01279
v -0.02984 0.24283 -0.00520
v -0.02826 0.22929 0.02170
v -0.03174 0.22947 0.02147
v -0.02875 0.23900 0.02155
v -0.02763 0.23234 0.01327
v -0.02822 0.24599 0.01417
v -0.02972 0.23168 0.01222
v -0.03157 0.26556 0.01099
v -0.02785 0.26609 0.01466
v -0.02788 0.26703 0.01287
v -0.02825 0.25893 0.03359
v -0.02823 0.25930 0.02331
v -0.02880 0.25357 0.03326
v -0.02914 0.25255 0.02199
v -0.02850 0.25220 0.01620
v -0.02852 0.24699 0.01624
v -0.02914 0.25255 0.02199
v -0.02852 0.24699 0.01624
v -0.02875 0.23900 0.02155
v -0.03597 0.19989 0.00550
v -0.02664 0.19053 0.00359
v -0.02720 0.19493 0.00920
v -0.02720 0.19493 0.00920
v -0.02840 0.19738 0.01050
v -0.03597 0.19989 0.00550
v -0.02703 0.22025 0.01512
v -0.03291 0.21075 0.01305
v -0.02724 0.21126 0.01500
v -0.02855 0.26771 0.02288
v -0.03363 0.28130 0.02199
v -0.02818 0.28179 0.02211
v -0.03122 0.24514 0.01279
v -0.02538 0.24325 -0.00464
v -0.02760 0.23156 0.00300
v -0.03122 0.24514 0.01279
v -0.02760 0.23156 0.00300
v -0.02972 0.23168 0.01222
v -0.02822 0.24599 0.01417
v -0.03122 0.24514 0.01279
v -0.02972 0.23168 0.01222
v -0.02514 0.20507 0.00952
v -0.03150 0.20993 0.00643
v -0.02840 0.19738 0.01050
v -0.02822 0.24599 0.01417
v -0.02852 0.24699 0.01624
v -0.03122 0.24514 0.01279
v -0.00911 0.25427 0.03826
v -0.02880 0.25357 0.03326
v -0.03418 0.25276 0.03584
v -0.02825 0.25893 0.03359
v -0.01339 0.26045 0.04102
v -0.03451 0.25964 0.03771
v -0.03363 0.28130 0.02199
v -0.02855 0.26771 0.02288
v -0.03274 0.25891 0.02319
v -0.03327 0.25254 0.02240
v -0.02795 0.25330 0.02255
v -0.02914 0.25255 0.02199
v -0.03327 0.25254 0.02240
v -0.02880 0.25357 0.03326
v -0.02795 0.25330 0.02255
v -0.03007 0.20157 0.02835
v -0.03086 0.22019 0.01777
v -0.02857 0.20156 0.01361
v -0.03174 0.22947 0.02147
v -0.02826 0.22929 0.02170
v -0.02843 0.22936 0.02701
v -0.02703 0.22025 0.01512
v -0.02763 0.23234 0.01327
v -0.03291 0.21075 0.01305
v -0.03122 0.24514 0.01279
v -0.02852 0.24699 0.01624
v -0.03479 0.24590 0.01488
v -0.03198 0.22029 0.03179
v -0.02795 0.22127 0.02622
v -0.03086 0.22019 0.01777
v -0.03174 0.22947 0.02147
v -0.02843 0.22936 0.02701
v -0.03260 0.22989 0.03427
v -0.02984 0.24283 -0.00520
v -0.03183 0.26212 -0.00648
v -0.02505 0.25842 -0.00595
v -0.03327 0.25254 0.02240
v -0.02914 0.25255 0.02199
v -0.02875 0.23900 0.02155
v -0.02457 0.19878 -0.00734
v -0.03365 0.19418 -0.00566
v -0.03223 0.19350 -0.01078
v -0.02760 0.23156 0.00300
v -0.03232 0.22903 -0.00553
v -0.03625 0.22954 0.01253
v -0.02724 0.21126 0.01500
v -0.03291 0.21075 0.01305
v -0.03150 0.20993 0.00643
v -0.02972 0.23168 0.01222
v -0.02760 0.23156 0.00300
v -0.03625 0.22954 0.01253
v -0.03060 0.20861 -0.00385
v -0.03179 0.21044 0.00362
v -0.02918 0.20894 -0.00489
v -0.03086 0.22019 0.01777
v -0.03007 0.20157 0.02835
v -0.03198 0.22029 0.03179
v -0.03060 0.20861 -0.00385
v -0.02987 0.20922 -0.01010
v -0.03778 0.21198 0.00235
v -0.03327 0.25254 0.02240
v -0.02875 0.23900 0.02155
v -0.03174 0.22947 0.02147
v -0.03274 0.25891 0.02319
v -0.02823 0.25930 0.02331
v -0.03451 0.25964 0.03771
v -0.03157 0.26556 0.01099
v -0.03661 0.26443 0.01302
v -0.02785 0.26609 0.01466
v -0.03778 0.21198 0.00235
v -0.02987 0.20922 -0.01010
v -0.04906 0.19833 -0.01854
v -0.02664 0.19053 0.00359
v -0.03768 0.19517 0.00047
v -0.03365 0.19418 -0.00566
v -0.03122 0.24514 0.01279
v -0.03479 0.24590 0.01488
v -0.02984 0.24283 -0.00520
v -0.02880 0.25357 0.03326
v -0.03327 0.25254 0.02240
v -0.03418 0.25276 0.03584
v -0.02855 0.26771 0.02288
v -0.02823 0.25930 0.02331
v -0.03274 0.25891 0.02319
v -0.02918 0.20894 -0.00489
v -0.03179 0.21044 0.00362
v -0.03625 0.22954 0.01253
v -0.03150 0.20993 0.00643
v -0.03291 0.21075 0.01305
v -0.03179 0.21044 0.00362
v -0.03479 0.24590 0.01488
v -0.02852 0.24699 0.01624
v -0.02850 0.25220 0.01620
v -0.03260 0.22989 0.03427
v -0.03327 0.25254 0.02240
v -0.03174 0.22947 0.02147
v -0.03532 0.26334 0.00567
v -0.03661 0.26443 0.01302
v -0.03157 0.26556 0.01099
v -0.03183 0.26212 -0.00648
v -0.02984 0.24283 -0.00520
v -0.03532 0.26334 0.00567
v -0.02987 0.20922 -0.01010
v -0.03223 0.19350 -0.01078
v -0.04906 0.19833 -0.01854
v -0.03625 0.22954 0.01253
v -0.03232 0.22903 -0.00553
v -0.02918 0.20894 -0.00489
v -0.02823 0.25930 0.02331
v -0.02825 0.25893 0.03359
v -0.03451 0.25964 0.03771
v -0.03532 0.26334 0.00567
v -0.02984 0.24283 -0.00520
v -0.03479 0.24590 0.01488
v -0.03363 0.28130 0.02199
v -0.03540 0.28181 0.03717
v -0.02818 0.28179 0.02211
v -0.03625 0.22954 0.01253
v -0.02763 0.23234 0.01327
v -0.02972 0.23168 0.01222
v -0.03150 0.20993 0.00643
v -0.03179 0.21044 0.00362
v -0.03778 0.21198 0.00235
v -0.03260 0.22989 0.03427
v -0.03418 0.25276 0.03584
v -0.03327 0.25254 0.02240
v -0.03540 0.28181 0.03717
v -0.03274 0.25891 0.02319
v -0.03451 0.25964 0.03771
v -0.03150 0.20993 0.00643
v -0.03778 0.21198 0.00235
v -0.02840 0.19738 0.01050
v -0.03540 0.28181 0.03717
v -0.03363 0.28130 0.02199
v -0.03274 0.25891 0.02319
v -0.03451 0.25964 0.03771
v -0.02126 0.27268 0.03857
v -0.03540 0.28181 0.03717
v -0.02840 0.19738 0.01050
v -0.03778 0.21198 0.00235
v -0.03597 0.19989 0.00550
v -0.03060 0.20861 -0.00385
v -0.03778 0.21198 0.00235
v -0.03179 0.21044 0.00362
v -0.03625 0.22954 0.01253
v -0.03179 0.21044 0.00362
v -0.03291 0.21075 0.01305
v -0.03597 0.19989 0.00550
v -0.03768 0.19517 0.00047
v -0.02664 0.19053 0.00359
v -0.03479 0.24590 0.01488
v -0.03661 0.26443 0.01302
v -0.03532 0.26334 0.00567
v -0.03661 0.26443 0.01302
v -0.03479 0.24590 0.01488
v -0.02850 0.25220 0.01620
v -0.05677 0.18599 -0.00408
v -0.03223 0.19350 -0.01078
v -0.03365 0.19418 -0.00566
v -0.05677 0.18599 -0.00408
v -0.03365 0.19418 -0.00566
v -0.03768 0.19517 0.00047
v -0.03597 0.19989 0.00550
v -0.03778 0.21198 0.00235
v -0.05677 0.18599 -0.00408
v -0.03768 0.19517 0.00047
v -0.03597 0.19989 0.00550
v -0.05677 0.18599 -0.00408
v -0.04906 0.19833 -0.01854
v -0.05234 0.20342 -0.00424
v -0.03778 0.21198 0.00235
v -0.04898 0.18342 -0.01836
v -0.03223 0.19350 -0.01078
v -0.05677 0.18599 -0.00408
v -0.06451 0.18011 -0.01017
v -0.04898 0.18342 -0.01836
v -0.05677 0.18599 -0.00408
v -0.05677 0.18599 -0.00408
v -0.05234 0.20342 -0.00424
v -0.06808 0.19364 -0.01153
v -0.05677 0.18599 -0.00408
v -0.03778 0.21198 0.00235
v -0.05234 0.20342 -0.00424
v -0.04906 0.19833 -0.01854
v -0.03223 0.19350 -0.01078
v -0.04898 0.18342 -0.01836
v -0.06117 0.19123 -0.02363
v -0.04898 0.18342 -0.01836
v -0.05469 0.18024 -0.02094
v -0.06117 0.19123 -0.02363
v -0.04906 0.19833 -0.01854
v -0.04898 0.18342 -0.01836
v -0.04898 0.18342 -0.01836
v -0.05862 0.17912 -0.01797
v -0.05469 0.18024 -0.02094
v -0.06117 0.19123 -0.02363
v -0.06808 0.19364 -0.01153
v -0.04906 0.19833 -0.01854
v -0.05862 0.17912 -0.01797
v -0.04898 0.18342 -0.01836
v -0.06451 0.18011 -0.01017
v -0.04906 0.19833 -0.01854
v -0.06808 0.19364 -0.01153
v -0.05234 0.20342 -0.00424
v -0.05677 0.18599 -0.00408
v -0.06244 0.18244 -0.00703
v -0.06451 0.18011 -0.01017
v -0.05469 0.18024 -0.02094
v -0.05862 0.17912 -0.01797
v -0.06117 0.19123 -0.02363
v -0.06117 0.19123 -0.02363
v -0.05862 0.17912 -0.01797
v -0.06417 0.18599 -0.02204
v -0.06441 0.17341 -0.02132
v -0.06417 0.18599 -0.02204
v -0.05862 0.17912 -0.01797
v -0.07773 0.16739 -0.01661
v -0.06441 0.17341 -0.02132
v -0.05862 0.17912 -0.01797
v -0.06808 0.19364 -0.01153
v -0.06244 0.18244 -0.00703
v -0.05677 0.18599 -0.00408
v -0.06742 0.17873 -0.00950
v -0.05862 0.17912 -0.01797
v -0.06451 0.18011 -0.01017
v -0.06451 0.18011 -0.01017
v -0.06244 0.18244 -0.00703
v -0.06808 0.19364 -0.01153
v -0.06117 0.19123 -0.02363
v -0.06417 0.18599 -0.02204
v -0.07007 0.18502 -0.01771
v -0.05862 0.17912 -0.01797
v -0.06742 0.17873 -0.00950
v -0.07773 0.16739 -0.01661
v -0.06451 0.18011 -0.01017
v -0.06808 0.19364 -0.01153
v -0.06806 0.18756 -0.01193
v -0.06742 0.17873 -0.00950
v -0.06451 0.18011 -0.01017
v -0.06806 0.18756 -0.01193
v -0.07007 0.18502 -0.01771
v -0.06808 0.19364 -0.01153
v -0.06117 0.19123 -0.02363
v -0.06808 0.19364 -0.01153
v -0.07007 0.18502 -0.01771
v -0.06806 0.18756 -0.01193
v -0.07572 0.16241 -0.02861
v -0.06441 0.17341 -0.02132
v -0.07773 0.16739 -0.01661
v -0.06417 0.18599 -0.02204
v -0.06441 0.17341 -0.02132
v -0.07728 0.17382 -0.03047
v -0.06806 0.18756 -0.01193
v -0.07007 0.18502 -0.01771
v -0.07721 0.18036 -0.01779
v -0.07007 0.18502 -0.01771
v -0.06417 0.18599 -0.02204
v -0.07721 0.18036 -0.01779
v -0.07721 0.18036 -0.01779
v -0.06417 0.18599 -0.02204
v -0.07728 0.17382 -0.03047
v -0.07572 0.16241 -0.02861
v -0.07728 0.17382 -0.03047
v -0.06441 0.17341 -0.02132
v -0.06742 0.17873 -0.00950
v -0.06806 0.18756 -0.01193
v -0.07721 0.18036 -0.01779
v -0.07531 0.15203 -0.03397
v -0.07695 0.16720 -0.03798
v -0.07773 0.15383 -0.02448
v -0.07728 0.17382 -0.03047
v -0.07572 0.16241 -0.02861
v -0.07775 0.16850 -0.03046
v -0.08188 0.17088 -0.01976
v -0.07773 0.16739 -0.01661
v -0.06742 0.17873 -0.00950
v -0.07728 0.17382 -0.03047
v -0.07775 0.16850 -0.03046
v -0.08027 0.17031 -0.03162
v -0.07721 0.18036 -0.01779
v -0.08188 0.17088 -0.01976
v -0.06742 0.17873 -0.00950
v -0.07775 0.16850 -0.03046
v -0.07572 0.16241 -0.02861
v -0.07876 0.16157 -0.02542
v -0.07880 0.16798 -0.03284
v -0.07773 0.15383 -0.02448
v -0.07695 0.16720 -0.03798
v -0.07773 0.15383 -0.02448
v -0.08264 0.16163 -0.02104
v -0.08574 0.15374 -0.01595
v -0.07695 0.16720 -0.03798
v -0.08118 0.16882 -0.03386
v -0.07880 0.16798 -0.03284
v -0.07880 0.16798 -0.03284
v -0.07876 0.16157 -0.02542
v -0.07773 0.15383 -0.02448
v -0.07775 0.16850 -0.03046
v -0.07876 0.16157 -0.02542
v -0.07880 0.16798 -0.03284
v -0.07775 0.16850 -0.03046
v -0.07880 0.16798 -0.03284
v -0.08027 0.17031 -0.03162
v -0.08264 0.16163 -0.02104
v -0.07773 0.15383 -0.02448
v -0.07876 0.16157 -0.02542
v -0.07773 0.16739 -0.01661
v -0.07876 0.16157 -0.02542
v -0.07572 0.16241 -0.02861
v -0.07880 0.16798 -0.03284
v -0.08118 0.16882 -0.03386
v -0.08027 0.17031 -0.03162
v -0.07773 0.15383 -0.02448
v -0.08989 0.15069 -0.02430
v -0.07531 0.15203 -0.03397
v -0.07531 0.15203 -0.03397
v -0.08295 0.14900 -0.03954
v -0.07695 0.16720 -0.03798
v -0.08118 0.16882 -0.03386
v -0.07695 0.16720 -0.03798
v -0.08448 0.16500 -0.04168
v -0.07876 0.16157 -0.02542
v -0.07773 0.16739 -0.01661
v -0.08264 0.16163 -0.02104
v -0.07773 0.16739 -0.01661
v -0.08188 0.17088 -0.01976
v -0.08436 0.16497 -0.02124
v -0.08989 0.15069 -0.02430
v -0.08295 0.14900 -0.03954
v -0.07531 0.15203 -0.03397
v -0.07773 0.16739 -0.01661
v -0.08436 0.16497 -0.02124
v -0.08264 0.16163 -0.02104
v -0.08574 0.15374 -0.01595
v -0.08989 0.15069 -0.02430
v -0.07773 0.15383 -0.02448
v -0.08333 0.14470 -0.03955
v -0.08521 0.15960 -0.04333
v -0.08295 0.14900 -0.03954
v -0.08521 0.15960 -0.04333
v -0.07695 0.16720 -0.03798
v -0.08295 0.14900 -0.03954
v -0.07695 0.16720 -0.03798
v -0.08521 0.15960 -0.04333
v -0.08448 0.16500 -0.04168
v -0.07721 0.18036 -0.01779
v -0.07728 0.17382 -0.03047
v -0.08027 0.17031 -0.03162
v -0.08527 0.15132 -0.03695
v -0.08333 0.14470 -0.03955
v -0.08295 0.14900 -0.03954
v -0.08989 0.15069 -0.02430
v -0.08527 0.15132 -0.03695
v -0.08295 0.14900 -0.03954
v -0.07721 0.18036 -0.01779
v -0.08027 0.17031 -0.03162
v -0.08735 0.17127 -0.02384
v -0.08264 0.16163 -0.02104
v -0.08939 0.16735 -0.01905
v -0.08574 0.15374 -0.01595
v -0.08735 0.17127 -0.02384
v -0.08027 0.17031 -0.03162
v -0.08824 0.16504 -0.03741
v -0.08527 0.15132 -0.03695
v -0.08989 0.15069 -0.02430
v -0.08689 0.15638 -0.03464
v -0.08521 0.15960 -0.04333
v -0.09009 0.16046 -0.03801
v -0.08448 0.16500 -0.04168
v -0.08939 0.16735 -0.01905
v -0.08436 0.16497 -0.02124
v -0.08188 0.17088 -0.01976
v -0.08333 0.14470 -0.03955
v -0.08527 0.15132 -0.03695
v -0.08851 0.14500 -0.03376
v -0.08521 0.15960 -0.04333
v -0.08333 0.14470 -0.03955
v -0.08859 0.15883 -0.04680
v -0.08118 0.16882 -0.03386
v -0.08824 0.16504 -0.03741
v -0.08027 0.17031 -0.03162
v -0.08527 0.15132 -0.03695
v -0.08689 0.15638 -0.03464
v -0.08851 0.14500 -0.03376
v -0.08264 0.16163 -0.02104
v -0.08436 0.16497 -0.02124
v -0.08939 0.16735 -0.01905
v -0.08188 0.17088 -0.01976
v -0.07721 0.18036 -0.01779
v -0.08735 0.17127 -0.02384
v -0.08851 0.14500 -0.03376
v -0.08944 0.14457 -0.04520
v -0.08333 0.14470 -0.03955
v -0.08689 0.15638 -0.03464
v -0.08989 0.15069 -0.02430
v -0.08988 0.15507 -0.02797
v -0.08448 0.16500 -0.04168
v -0.09009 0.16046 -0.03801
v -0.08824 0.16504 -0.03741
v -0.09305 0.15157 -0.02118
v -0.08989 0.15069 -0.02430
v -0.08574 0.15374 -0.01595
v -0.08824 0.16504 -0.03741
v -0.08118 0.16882 -0.03386
v -0.08448 0.16500 -0.04168
v -0.08735 0.17127 -0.02384
v -0.08939 0.16735 -0.01905
v -0.08188 0.17088 -0.01976
v -0.08944 0.14457 -0.04520
v -0.08859 0.15883 -0.04680
v -0.08333 0.14470 -0.03955
v -0.09305 0.15157 -0.02118
v -0.08574 0.15374 -0.01595
v -0.08939 0.16735 -0.01905
v -0.08988 0.15507 -0.02797
v -0.08824 0.16504 -0.03741
v -0.08689 0.15638 -0.03464
v -0.08521 0.15960 -0.04333
v -0.08859 0.15883 -0.04680
v -0.09414 0.15949 -0.04109
v -0.08824 0.16504 -0.03741
v -0.09009 0.16046 -0.03801
v -0.08689 0.15638 -0.03464
v -0.08735 0.17127 -0.02384
v -0.09744 0.16627 -0.02537
v -0.08939 0.16735 -0.01905
v -0.08989 0.15069 -0.02430
v -0.09076 0.15245 -0.02520
v -0.08988 0.15507 -0.02797
v -0.09414 0.15949 -0.04109
v -0.08851 0.14500 -0.03376
v -0.08689 0.15638 -0.03464
v -0.09076 0.15245 -0.02520
v -0.09066 0.14442 -0.02631
v -0.08988 0.15507 -0.02797
v -0.09500 0.16104 -0.02209
v -0.09305 0.15157 -0.02118
v -0.08939 0.16735 -0.01905
v -0.08851 0.14500 -0.03376
v -0.09421 0.14515 -0.04028
v -0.08944 0.14457 -0.04520
v -0.08521 0.15960 -0.04333
v -0.09414 0.15949 -0.04109
v -0.09009 0.16046 -0.03801
v -0.08824 0.16504 -0.03741
v -0.08988 0.15507 -0.02797
v -0.09286 0.16475 -0.03133
v -0.08989 0.15069 -0.02430
v -0.09305 0.15157 -0.02118
v -0.09076 0.15245 -0.02520
v -0.09066 0.14442 -0.02631
v -0.09590 0.14472 -0.03038
v -0.08988 0.15507 -0.02797
v -0.08944 0.14457 -0.04520
v -0.09414 0.15949 -0.04109
v -0.08859 0.15883 -0.04680
v -0.09066 0.14442 -0.02631
v -0.09076 0.15245 -0.02520
v -0.09485 0.14483 -0.01965
v -0.09590 0.14472 -0.03038
v -0.09576 0.15900 -0.03262
v -0.08988 0.15507 -0.02797
v -0.09009 0.16046 -0.03801
v -0.09414 0.15949 -0.04109
v -0.08689 0.15638 -0.03464
v -0.09286 0.16475 -0.03133
v -0.08988 0.15507 -0.02797
v -0.09576 0.15900 -0.03262
v -0.09485 0.14483 -0.01965
v -0.09076 0.15245 -0.02520
v -0.09305 0.15157 -0.02118
v -0.09414 0.15949 -0.04109
v -0.08944 0.14457 -0.04520
v -0.09421 0.14515 -0.04028
v -0.08824 0.16504 -0.03741
v -0.09744 0.16627 -0.02537
v -0.08735 0.17127 -0.02384
v -0.09485 0.14483 -0.01965
v -0.09305 0.15157 -0.02118
v -0.09500 0.16104 -0.02209
v -0.09414 0.15949 -0.04109
v -0.09421 0.14515 -0.04028
v -0.08851 0.14500 -0.03376
v -0.08939 0.16735 -0.01905
v -0.09744 0.16627 -0.02537
v -0.09500 0.16104 -0.02209
v -0.09286 0.16475 -0.03133
v -0.09744 0.16627 -0.02537
v -0.08824 0.16504 -0.03741
v -0.09066 0.14442 -0.02631
v -0.09485 0.14483 -0.01965
v -0.10023 0.14468 -0.02474
v -0.09576 0.15900 -0.03262
v -0.09744 0.16627 -0.02537
v -0.09286 0.16475 -0.03133
v -0.09500 0.16104 -0.02209
v -0.09744 0.16627 -0.02537
v -0.10037 0.15992 -0.02735
v -0.09576 0.15900 -0.03262
v -0.10037 0.15992 -0.02735
v -0.09744 0.16627 -0.02537
v -0.09576 0.15900 -0.03262
v -0.09590 0.14472 -0.03038
v -0.10037 0.15992 -0.02735
v -0.10023 0.14468 -0.02474
v -0.09590 0.14472 -0.03038
v -0.09066 0.14442 -0.02631
v -0.09590 0.14472 -0.03038
v -0.10023 0.14468 -0.02474
v -0.10037 0.15992 -0.02735
v -0.10037 0.15992 -0.02735
v -0.09485 0.14483 -0.01965
v -0.09500 0.16104 -0.02209
v -0.10037 0.15992 -0.02735
v -0.10023 0.14468 -0.02474
v -0.09485 0.14483 -0.01965
v -0.01363 0.22565 0.01049
v 0.00825 0.23580 -0.01488
v 0.00919 0.22852 -0.01523
v 0.01496 0.22813 -0.01850
v -0.02188 0.20238 -0.02413
v 0.00996 0.20295 -0.01953
v -0.01408 0.20185 -0.02030
v 0.01041 0.19399 -0.01822
v -0.01918 0.19439 -0.01928
v 0.01356 0.19338 -0.01917
v -0.02277 0.17255 -0.02307
v 0.01267 0.17260 -0.02145
v -0.00970 0.17260 -0.01904
v -0.01947 0.16551 -0.01938
v -0.01948 0.17235 -0.01920
v -0.02506 0.17248 0.01163
v -0.02519 0.17813 0.01146
v -0.01472 0.17822 0.01615
v -0.02756 0.17924 0.01774
v 0.01364 0.19508 0.02224
v -0.02835 0.19494 0.01994
v 0.00764 0.19536 0.01871
v -0.01086 0.20190 0.02002
v 0.01121 0.20307 0.03243
v -0.03007 0.20157 0.02835
v 0.00999 0.22186 0.03610
v -0.03198 0.22029 0.03179
v 0.00526 0.22217 0.02704
v -0.01578 0.22169 0.02672
v 0.00408 0.23034 0.02814
v -0.01656 0.23050 0.03672
v -0.00380 0.23686 0.03882
v -0.02414 0.24994 0.03827
v -0.00335 0.25059 0.03916
v -0.03418 0.25276 0.03584
v -0.00911 0.25427 0.03826
v -0.02880 0.25357 0.03326
v -0.00007 0.26011 0.03413
v -0.02825 0.25893 0.03359
v -0.01339 0.26045 0.04102
v -0.03451 0.25964 0.03771
v -0.02126 0.27268 0.03857
v -0.03540 0.28181 0.03717
v -0.02818 0.28179 0.02211
v -0.02855 0.26771 0.02288
v -0.02780 0.27917 0.01347
v -0.02788 0.26703 0.01287
v -0.03157 0.26556 0.01099
v -0.03532 0.26334 0.00567
v -0.03183 0.26212 -0.00648
v -0.02505 0.25842 -0.00595
v -0.02349 0.25847 -0.01798
v -0.02310 0.23468 -0.01952
v 0.01428 0.23669 -0.01876
v -0.00918 0.23489 -0.01222
vt 0.01513 0.86522
vt 0.02564 0.86522
vt 0.01581 0.87260
vt 0.02564 0.86522
vt 0.03360 0.87250
vt 0.01581 0.87260
vt 0.67762 0.82488
vt 0.71673 0.82603
vt 0.68317 0.82860
vt 0.71673 0.82603
vt 0.69352 0.83043
vt 0.68317 0.82860
vt 0.25137 0.53768
vt 0.25985 0.56487
vt 0.25804 0.58210
vt 0.11951 0.13137
vt 0.11958 0.10088
vt 0.12426 0.09091
vt 0.31482 0.64777
vt 0.36731 0.65057
vt 0.34347 0.66222
vt 0.82692 0.35906
vt 0.85401 0.40491
vt 0.82743 0.40441
vt 0.89563 0.36567
vt 0.88388 0.32835
vt 0.91934 0.35712
vt 0.79490 0.20976
vt 0.79468 0.16216
vt 0.79865 0.18851
vt 0.02564 0.86522
vt 0.04090 0.86519
vt 0.03360 0.87250
vt 0.84765 0.83119
vt 0.83346 0.82415
vt 0.87121 0.82402
vt 0.72714 0.84031
vt 0.75784 0.85149
vt 0.72040 0.84965
vt 0.69352 0.83043
vt 0.71673 0.82603
vt 0.70840 0.83378
vt 0.88515 0.83913
vt 0.87641 0.83928
vt 0.87630 0.81586
vt 0.13490 0.67383
vt 0.13538 0.62058
vt 0.15546 0.62154
vt 0.54084 0.65114
vt 0.53561 0.67282
vt 0.54310 0.62783
vt 0.59172 0.62656
vt 0.59121 0.67192
vt 0.58774 0.66784
vt 0.04090 0.86519
vt 0.04123 0.87213
vt 0.03360 0.87250
vt 0.88515 0.83913
vt 0.87633 0.85317
vt 0.87641 0.83928
vt 0.34347 0.66222
vt 0.36731 0.65057
vt 0.35832 0.66362
vt 0.72040 0.84965
vt 0.72027 0.84114
vt 0.72714 0.84031
vt 0.28416 0.64645
vt 0.28325 0.67066
vt 0.23069 0.64682
vt 0.99179 0.03680
vt 0.99234 0.04932
vt 0.98999 0.04977
vt 0.89481 0.67991
vt 0.90379 0.63866
vt 0.90421 0.65409
vt 0.88388 0.85400
vt 0.87633 0.85317
vt 0.88515 0.83913
vt 0.56098 0.94696
vt 0.55094 0.94241
vt 0.56656 0.94278
vt 0.11859 0.09404
vt 0.12426 0.09091
vt 0.11958 0.10088
vt 0.81717 0.99875
vt 0.80947 0.99118
vt 0.81657 0.99183
vt 0.20260 0.84586
vt 0.21498 0.84564
vt 0.20254 0.85453
vt 0.89481 0.67991
vt 0.89348 0.63873
vt 0.90379 0.63866
vt 0.80947 0.99118
vt 0.81717 0.99875
vt 0.80890 0.99869
vt 0.53561 0.67282
vt 0.54084 0.65114
vt 0.54061 0.66503
vt 0.83346 0.82415
vt 0.84020 0.83288
vt 0.83847 0.83979
vt 0.83346 0.82415
vt 0.84765 0.83119
vt 0.84020 0.83288
vt 0.59766 0.95512
vt 0.59777 0.96437
vt 0.59595 0.95068
vt 0.96780 0.63738
vt 0.97986 0.64614
vt 0.97030 0.64747
vt 0.55007 0.91992
vt 0.54065 0.91910
vt 0.54731 0.91026
vt 0.83241 0.83965
vt 0.83346 0.82415
vt 0.83847 0.83979
vt 0.37411 0.92901
vt 0.36963 0.92178
vt 0.39076 0.90642
vt 0.37411 0.92901
vt 0.39076 0.90642
vt 0.39182 0.91363
vt 0.25804 0.58210
vt 0.26205 0.57706
vt 0.30172 0.57654
vt 0.71673 0.82603
vt 0.71754 0.84136
vt 0.70840 0.83378
vt 0.03627 0.13269
vt 0.03959 0.13253
vt 0.04243 0.13438
vt 0.09517 0.09277
vt 0.10082 0.08859
vt 0.11859 0.09404
vt 0.11859 0.09404
vt 0.10082 0.08859
vt 0.12426 0.09091
vt 0.95935 0.89241
vt 0.96460 0.89913
vt 0.95873 0.90406
vt 0.40756 0.98913
vt 0.40623 0.99144
vt 0.40633 0.98541
vt 0.96460 0.89913
vt 0.95935 0.89241
vt 0.96512 0.89188
vt 0.58774 0.66784
vt 0.59121 0.67192
vt 0.57107 0.67205
vt 0.71247 0.97838
vt 0.71049 0.98382
vt 0.70782 0.97722
vt 0.96460 0.89913
vt 0.96419 0.90904
vt 0.95873 0.90406
vt 0.81793 0.01759
vt 0.81793 0.00959
vt 0.82022 0.01199
vt 0.04243 0.13438
vt 0.03959 0.13253
vt 0.05137 0.13167
vt 0.03959 0.13253
vt 0.04079 0.12742
vt 0.05137 0.13167
vt 0.56162 0.66813
vt 0.58774 0.66784
vt 0.56365 0.67159
vt 0.04243 0.13438
vt 0.05137 0.13167
vt 0.05058 0.13326
vt 0.26205 0.57706
vt 0.25804 0.58210
vt 0.25985 0.56487
vt 0.55774 0.66634
vt 0.55361 0.66878
vt 0.55051 0.66564
vt 0.17791 0.99225
vt 0.17156 0.99066
vt 0.17136 0.98259
vt 0.95695 0.91134
vt 0.95873 0.90406
vt 0.96419 0.90904
vt 0.03959 0.13253
vt 0.03526 0.12986
vt 0.04079 0.12742
vt 0.56365 0.67159
vt 0.58774 0.66784
vt 0.57107 0.67205
vt 0.54928 0.67319
vt 0.55051 0.66564
vt 0.55361 0.66878
vt 0.01994 0.28197
vt 0.01383 0.29176
vt 0.00069 0.28918
vt 0.56365 0.67159
vt 0.55898 0.66851
vt 0.56162 0.66813
vt 0.95873 0.90406
vt 0.95695 0.91134
vt 0.95506 0.90530
vt 0.65431 0.98419
vt 0.65551 0.98088
vt 0.65571 0.98742
vt 0.95873 0.90406
vt 0.95506 0.90530
vt 0.95360 0.90444
vt 0.70782 0.97722
vt 0.71049 0.98382
vt 0.70257 0.98228
vt 0.55051 0.66564
vt 0.54928 0.67319
vt 0.54061 0.66503
vt 0.19585 0.88319
vt 0.22421 0.88531
vt 0.20732 0.88794
vt 0.07032 0.67086
vt 0.05241 0.69697
vt 0.03335 0.68313
vt 0.13929 0.80347
vt 0.12734 0.80687
vt 0.10719 0.80687
vt 0.10719 0.80687
vt 0.10581 0.78032
vt 0.13929 0.80347
vt 0.79490 0.20976
vt 0.79865 0.18851
vt 0.80129 0.20372
vt 0.12734 0.80687
vt 0.13929 0.80347
vt 0.13473 0.80757
vt 0.97937 0.97109
vt 0.98575 0.97086
vt 0.98549 0.97993
vt 0.95360 0.90444
vt 0.95506 0.90530
vt 0.95145 0.90592
vt 0.10581 0.78032
vt 0.13880 0.78633
vt 0.13929 0.80347
vt 0.42644 0.68112
vt 0.42417 0.68944
vt 0.41041 0.68478
vt 0.05137 0.13167
vt 0.04079 0.12742
vt 0.05145 0.11679
vt 0.95533 0.80825
vt 0.95471 0.80474
vt 0.97147 0.80806
vt 0.14985 0.77975
vt 0.13880 0.78633
vt 0.10581 0.78032
vt 0.03335 0.68313
vt 0.04092 0.67328
vt 0.07032 0.67086
vt 0.03579 0.67194
vt 0.04092 0.67328
vt 0.03335 0.68313
vt 0.95360 0.90444
vt 0.95033 0.90034
vt 0.95873 0.90406
vt 0.54065 0.91910
vt 0.54084 0.90945
vt 0.54731 0.91026
vt 0.07861 0.90279
vt 0.07861 0.88281
vt 0.10949 0.90197
vt 0.05058 0.13326
vt 0.05137 0.13167
vt 0.06388 0.14239
vt 0.99637 0.45841
vt 0.99600 0.46191
vt 0.98853 0.45656
vt 0.03579 0.67194
vt 0.03525 0.66730
vt 0.04092 0.67328
vt 0.07861 0.88281
vt 0.09054 0.88367
vt 0.10949 0.90197
vt 0.70257 0.98228
vt 0.70188 0.97549
vt 0.70782 0.97722
vt 0.04079 0.12742
vt 0.03722 0.12249
vt 0.03724 0.11876
vt 0.13880 0.78633
vt 0.14985 0.77975
vt 0.14972 0.78690
vt 0.95360 0.90444
vt 0.95145 0.90592
vt 0.95033 0.90034
vt 0.70257 0.98228
vt 0.69870 0.97762
vt 0.70188 0.97549
vt 0.31753 0.98712
vt 0.31504 0.99477
vt 0.31408 0.98783
vt 0.09054 0.88367
vt 0.11012 0.88627
vt 0.10949 0.90197
vt 0.07032 0.67086
vt 0.04092 0.67328
vt 0.05567 0.65834
vt 0.53561 0.67282
vt 0.54061 0.66503
vt 0.54928 0.67319
vt 0.36731 0.65057
vt 0.36653 0.66932
vt 0.35972 0.66979
vt 0.36731 0.65057
vt 0.35972 0.66979
vt 0.35832 0.66362
vt 0.00524 0.83806
vt 0.01187 0.83968
vt 0.00619 0.84160
vt 0.97181 0.80604
vt 0.97147 0.80806
vt 0.95471 0.80474
vt 0.42455 0.70036
vt 0.42417 0.68944
vt 0.42644 0.68112
vt 0.05145 0.11679
vt 0.04079 0.12742
vt 0.03724 0.11876
vt 0.95449 0.51832
vt 0.94079 0.51130
vt 0.94679 0.50600
vt 0.70257 0.98228
vt 0.69894 0.98827
vt 0.69870 0.97762
vt 0.94691 0.02841
vt 0.95343 0.02579
vt 0.95755 0.02937
vt 0.98178 0.23101
vt 0.97997 0.23488
vt 0.98098 0.21907
vt 0.84287 0.00685
vt 0.83353 0.00659
vt 0.83803 0.00019
vt 0.98575 0.97086
vt 0.97937 0.97109
vt 0.97804 0.96653
vt 0.42653 0.69982
vt 0.42455 0.70036
vt 0.42644 0.68112
vt 0.00453 0.34745
vt 0.01006 0.36088
vt 0.00215 0.35865
vt 0.78912 0.31899
vt 0.76526 0.31254
vt 0.78812 0.31528
vt 0.94691 0.02841
vt 0.95755 0.02937
vt 0.95166 0.03649
vt 0.00101 0.36317
vt 0.00215 0.35865
vt 0.01006 0.36088
vt 0.87233 0.93913
vt 0.88240 0.94695
vt 0.87312 0.94807
vt 0.51988 0.90808
vt 0.52004 0.90219
vt 0.54084 0.90945
vt 0.54731 0.91026
vt 0.54084 0.90945
vt 0.54579 0.90142
vt 0.95755 0.02937
vt 0.94481 0.04719
vt 0.95166 0.03649
vt 0.93988 0.07598
vt 0.93611 0.06282
vt 0.93950 0.05443
vt 0.02170 0.95087
vt 0.02134 0.93540
vt 0.03070 0.93540
vt 0.13072 0.53668
vt 0.13668 0.54039
vt 0.13415 0.54700
vt 0.17787 0.75639
vt 0.17852 0.77284
vt 0.17554 0.75763
vt 0.18732 0.76564
vt 0.17852 0.77284
vt 0.17787 0.75639
vt 0.93950 0.05443
vt 0.95820 0.06772
vt 0.93988 0.07598
vt 0.17554 0.75763
vt 0.17168 0.74691
vt 0.17787 0.75639
vt 0.95820 0.06772
vt 0.93950 0.05443
vt 0.95481 0.04934
vt 0.81187 0.43897
vt 0.82027 0.44546
vt 0.81311 0.48604
vt 0.57294 0.99834
vt 0.57309 0.99213
vt 0.57595 0.99238
vt 0.57517 0.70696
vt 0.57447 0.69374
vt 0.59094 0.70426
vt 0.18928 0.75414
vt 0.18732 0.76564
vt 0.17787 0.75639
vt 0.99247 0.09090
vt 0.99342 0.08005
vt 0.99394 0.09307
vt 0.97804 0.96653
vt 0.98824 0.96687
vt 0.98575 0.97086
vt 0.18732 0.76564
vt 0.19129 0.77730
vt 0.17852 0.77284
vt 0.91869 0.17266
vt 0.91937 0.18787
vt 0.90686 0.18896
vt 0.57595 0.99238
vt 0.57652 0.99501
vt 0.57294 0.99834
vt 0.99978 0.20793
vt 0.99978 0.21080
vt 0.99921 0.20827
vt 0.00619 0.84160
vt 0.01187 0.83968
vt 0.00682 0.86350
vt 0.98951 0.98954
vt 0.99659 0.98954
vt 0.99741 0.99888
vt 0.81277 0.20179
vt 0.81238 0.20635
vt 0.80129 0.20372
vt 0.98233 0.34214
vt 0.96784 0.34214
vt 0.97511 0.33376
vt 0.18732 0.76564
vt 0.18928 0.75414
vt 0.19369 0.76346
vt 0.36663 0.97896
vt 0.37117 0.97952
vt 0.37113 0.99084
vt 0.19129 0.77730
vt 0.18540 0.78875
vt 0.17852 0.77284
vt 0.21677 0.92827
vt 0.24339 0.91915
vt 0.24086 0.93038
vt 0.83803 0.00019
vt 0.83353 0.00659
vt 0.83382 0.00433
vt 0.54084 0.90945
vt 0.52004 0.90219
vt 0.54579 0.90142
vt 0.84574 0.96682
vt 0.86387 0.96682
vt 0.86145 0.97832
vt 0.58071 0.99209
vt 0.57652 0.99501
vt 0.57595 0.99238
vt 0.19129 0.77730
vt 0.18832 0.78908
vt 0.18540 0.78875
vt 0.84720 0.94658
vt 0.82442 0.93918
vt 0.84795 0.94078
vt 0.02266 0.68555
vt 0.02702 0.68631
vt 0.02179 0.69783
vt 0.51669 0.92203
vt 0.51669 0.93937
vt 0.51372 0.92123
vt 0.31577 0.92190
vt 0.31987 0.92733
vt 0.31724 0.92739
vt 0.58106 0.99447
vt 0.57652 0.99501
vt 0.58071 0.99209
vt 0.67809 0.99117
vt 0.67976 0.99316
vt 0.67807 0.99474
vt 0.78914 0.99644
vt 0.78818 0.99038
vt 0.79511 0.98796
vt 0.75600 0.01021
vt 0.77029 0.00119
vt 0.76958 0.01021
vt 0.76958 0.01021
vt 0.76748 0.01341
vt 0.75600 0.01021
vt 0.22789 0.91914
vt 0.21677 0.92827
vt 0.21660 0.92066
vt 0.92873 0.50463
vt 0.93589 0.52238
vt 0.92873 0.52321
vt 0.04509 0.95162
vt 0.02170 0.95087
vt 0.03070 0.93540
vt 0.04509 0.95162
vt 0.03070 0.93540
vt 0.04266 0.93464
vt 0.51669 0.93937
vt 0.51250 0.93834
vt 0.51372 0.92123
vt 0.13072 0.53668
vt 0.13415 0.54700
vt 0.12008 0.53715
vt 0.46774 0.92588
vt 0.46553 0.92781
vt 0.46626 0.92183
vt 0.29246 0.96509
vt 0.28351 0.96632
vt 0.28125 0.96489
vt 0.03434 0.97290
vt 0.04119 0.97574
vt 0.03171 0.97496
vt 0.93589 0.52238
vt 0.92873 0.50463
vt 0.93395 0.49290
vt 0.99942 0.22150
vt 0.99942 0.22389
vt 0.99907 0.22332
vt 0.28091 0.97087
vt 0.28351 0.96632
vt 0.28329 0.97109
vt 0.02116 0.42694
vt 0.03829 0.40589
vt 0.03963 0.43019
vt 0.82779 0.44224
vt 0.82691 0.44658
vt 0.82027 0.44546
vt 0.22789 0.91914
vt 0.24339 0.91915
vt 0.21677 0.92827
vt 0.46626 0.92183
vt 0.46553 0.92781
vt 0.46102 0.92091
vt 0.79490 0.20976
vt 0.80129 0.20372
vt 0.81238 0.20635
vt 0.82779 0.44224
vt 0.82027 0.44546
vt 0.81187 0.43897
vt 0.78912 0.31899
vt 0.76071 0.32004
vt 0.76526 0.31254
vt 0.99989 0.01852
vt 0.99810 0.01804
vt 0.99949 0.01218
vt 0.91534 0.12045
vt 0.90410 0.12710
vt 0.90278 0.12045
vt 0.88240 0.94695
vt 0.87233 0.93913
vt 0.89566 0.93713
vt 0.99741 0.99888
vt 0.98982 0.99817
vt 0.98951 0.98954
vt 0.89433 0.94573
vt 0.88240 0.94695
vt 0.89566 0.93713
vt 0.99164 0.01795
vt 0.99250 0.00814
vt 0.99326 0.01954
vt 0.03829 0.40589
vt 0.02116 0.42694
vt 0.02076 0.40272
vt 0.94679 0.50600
vt 0.94079 0.51130
vt 0.94673 0.49325
vt 0.02543 0.71556
vt 0.02179 0.69783
vt 0.02702 0.68631
vt 0.03193 0.96846
vt 0.03393 0.96834
vt 0.03171 0.97496
vt 0.31577 0.92190
vt 0.31924 0.91559
vt 0.31987 0.92733
vt 0.91753 0.87069
vt 0.93652 0.86979
vt 0.93652 0.89971
vt 0.96528 0.15179
vt 0.97450 0.13911
vt 0.97986 0.14680
vt 0.46626 0.92183
vt 0.46102 0.92091
vt 0.48261 0.90561
vt 0.28351 0.96632
vt 0.28091 0.97087
vt 0.28125 0.96489
vt 0.44895 0.99017
vt 0.44941 0.99389
vt 0.44742 0.99423
vt 0.16782 0.94707
vt 0.16914 0.93572
vt 0.19277 0.92208
vt 0.52434 0.99310
vt 0.53294 0.99386
vt 0.52091 0.99431
vt 0.90933 0.99740
vt 0.90648 0.99333
vt 0.90930 0.99052
vt 0.27362 0.89711
vt 0.24123 0.89711
vt 0.26659 0.88246
vt 0.30946 0.91559
vt 0.31924 0.91559
vt 0.31577 0.92190
vt 0.94511 0.76466
vt 0.92001 0.76686
vt 0.94467 0.74821
vt 0.91869 0.17266
vt 0.90686 0.18896
vt 0.88877 0.17281
vt 0.19277 0.92208
vt 0.19353 0.94547
vt 0.16782 0.94707
vt 0.03393 0.96834
vt 0.03434 0.97290
vt 0.03171 0.97496
vt 0.94467 0.74821
vt 0.92001 0.76686
vt 0.92053 0.73977
vt 0.53529 0.65318
vt 0.53465 0.67331
vt 0.52814 0.65230
vt 0.89566 0.93713
vt 0.89535 0.94863
vt 0.89433 0.94573
vt 0.95604 0.49642
vt 0.95294 0.49831
vt 0.94673 0.49325
vt 0.56871 0.00628
vt 0.57842 0.00312
vt 0.57976 0.00896
vt 0.59546 0.99240
vt 0.59546 0.98042
vt 0.60082 0.98412
vt 0.13415 0.54700
vt 0.13431 0.55683
vt 0.12008 0.53715
vt 0.36092 0.92477
vt 0.36092 0.90462
vt 0.39046 0.90507
vt 0.95784 0.79750
vt 0.96359 0.79155
vt 0.96792 0.79768
vt 0.12008 0.53715
vt 0.13431 0.55683
vt 0.12033 0.54906
vt 0.94679 0.50600
vt 0.94673 0.49325
vt 0.95294 0.49831
vt 0.19277 0.92208
vt 0.16914 0.93572
vt 0.16864 0.92369
vt 0.75600 0.01021
vt 0.75462 0.00131
vt 0.77029 0.00119
vt 0.92053 0.73977
vt 0.94474 0.73843
vt 0.94467 0.74821
vt 0.16224 0.99489
vt 0.15967 0.98699
vt 0.16343 0.98833
vt 0.87631 0.14112
vt 0.90278 0.12045
vt 0.90410 0.12710
vt 0.87631 0.14112
vt 0.90410 0.12710
vt 0.90334 0.13644
vt 0.12033 0.54906
vt 0.13431 0.55683
vt 0.09583 0.57253
vt 0.90334 0.13644
vt 0.91021 0.14226
vt 0.87631 0.14112
vt 0.93652 0.89971
vt 0.91782 0.89364
vt 0.91753 0.87069
vt 0.45779 0.36172
vt 0.49603 0.37414
vt 0.44835 0.39187
vt 0.42934 0.38081
vt 0.45779 0.36172
vt 0.44835 0.39187
vt 0.87003 0.52280
vt 0.84361 0.54497
vt 0.84486 0.50679
vt 0.09583 0.57253
vt 0.13431 0.55683
vt 0.11858 0.57354
vt 0.88877 0.17281
vt 0.90686 0.18896
vt 0.88033 0.18970
vt 0.94210 0.39958
vt 0.92644 0.37453
vt 0.93992 0.37468
vt 0.94210 0.39958
vt 0.91346 0.40001
vt 0.92644 0.37453
vt 0.45779 0.36172
vt 0.43764 0.36390
vt 0.44497 0.35757
vt 0.63014 0.64007
vt 0.63014 0.66719
vt 0.60151 0.63939
vt 0.43764 0.36390
vt 0.45779 0.36172
vt 0.42934 0.38081
vt 0.60151 0.63939
vt 0.63014 0.66719
vt 0.59195 0.66760
vt 0.44835 0.39187
vt 0.43523 0.38691
vt 0.42934 0.38081
vt 0.77204 0.94289
vt 0.76904 0.93368
vt 0.79513 0.93330
vt 0.21865 0.06644
vt 0.24235 0.07735
vt 0.22371 0.07729
vt 0.24101 0.09416
vt 0.22371 0.07729
vt 0.24235 0.07735
vt 0.39468 0.36702
vt 0.42233 0.35686
vt 0.43764 0.36390
vt 0.84486 0.50679
vt 0.87032 0.50878
vt 0.87003 0.52280
vt 0.42323 0.38237
vt 0.43764 0.36390
vt 0.42934 0.38081
vt 0.87104 0.50033
vt 0.87032 0.50878
vt 0.84486 0.50679
vt 0.95276 0.66006
vt 0.94770 0.64921
vt 0.95366 0.63637
vt 0.43764 0.36390
vt 0.42323 0.38237
vt 0.39468 0.36702
vt 0.87104 0.50033
vt 0.84486 0.50679
vt 0.85485 0.50074
vt 0.96368 0.20675
vt 0.95738 0.20653
vt 0.95730 0.19033
vt 0.64761 0.65610
vt 0.63014 0.66719
vt 0.63014 0.64007
vt 0.52010 0.96029
vt 0.54080 0.96029
vt 0.52984 0.96674
vt 0.39253 0.34190
vt 0.42233 0.35686
vt 0.39468 0.36702
vt 0.22371 0.07729
vt 0.24101 0.09416
vt 0.21895 0.11491
vt 0.25361 0.30967
vt 0.26209 0.31914
vt 0.25650 0.33450
vt 0.26209 0.31914
vt 0.27466 0.31262
vt 0.25650 0.33450
vt 0.25650 0.33450
vt 0.27466 0.31262
vt 0.27882 0.35031
vt 0.23758 0.12732
vt 0.21895 0.11491
vt 0.24101 0.09416
vt 0.73686 0.63468
vt 0.72942 0.61872
vt 0.75436 0.61710
vt 0.04510 0.25604
vt 0.04510 0.28631
vt 0.02601 0.25521
vt 0.21895 0.11491
vt 0.23758 0.12732
vt 0.22562 0.12269
vt 0.77300 0.62590
vt 0.76916 0.63730
vt 0.73686 0.63468
vt 0.21895 0.11491
vt 0.22562 0.12269
vt 0.21941 0.12403
vt 0.75436 0.61710
vt 0.77300 0.62590
vt 0.73686 0.63468
vt 0.96422 0.20838
vt 0.97063 0.21948
vt 0.96395 0.22493
vt 0.03453 0.28564
vt 0.02601 0.25521
vt 0.04510 0.28631
vt 0.92719 0.23628
vt 0.93781 0.25188
vt 0.91967 0.25743
vt 0.74652 0.99229
vt 0.74652 0.98053
vt 0.75122 0.98281
vt 0.03453 0.28564
vt 0.02385 0.27015
vt 0.02601 0.25521
vt 0.96590 0.41272
vt 0.97018 0.39673
vt 0.97013 0.41555
vt 0.28649 0.99884
vt 0.28607 0.99378
vt 0.29168 0.99517
vt 0.93781 0.25188
vt 0.92719 0.23628
vt 0.94144 0.24127
vt 0.39468 0.36702
vt 0.38675 0.34830
vt 0.39253 0.34190
vt 0.28607 0.99378
vt 0.28977 0.99008
vt 0.29168 0.99517
vt 0.88880 0.59967
vt 0.87089 0.58354
vt 0.90421 0.58838
vt 0.90819 0.00715
vt 0.90985 0.02613
vt 0.87793 0.00764
vt 0.28170 0.36390
vt 0.29329 0.36196
vt 0.29193 0.37854
vt 0.38675 0.34830
vt 0.39468 0.36702
vt 0.38067 0.35772
vt 0.76916 0.63730
vt 0.77300 0.62590
vt 0.78429 0.63153
vt 0.87089 0.58354
vt 0.90009 0.56978
vt 0.90421 0.58838
vt 0.76916 0.63730
vt 0.78429 0.63153
vt 0.78593 0.63857
vt 0.86645 0.60183
vt 0.87089 0.58354
vt 0.88880 0.59967
vt 0.91774 0.02862
vt 0.88805 0.02923
vt 0.90985 0.02613
vt 0.88805 0.02923
vt 0.87793 0.00764
vt 0.90985 0.02613
vt 0.87793 0.00764
vt 0.88805 0.02923
vt 0.87832 0.02427
vt 0.25650 0.33450
vt 0.27882 0.35031
vt 0.27860 0.35944
vt 0.70969 0.95000
vt 0.70267 0.96229
vt 0.70274 0.95401
vt 0.19724 0.81293
vt 0.19191 0.78762
vt 0.19591 0.78067
vt 0.25650 0.33450
vt 0.27860 0.35944
vt 0.25865 0.36300
vt 0.93781 0.25188
vt 0.94545 0.26750
vt 0.91967 0.25743
vt 0.25865 0.36300
vt 0.27860 0.35944
vt 0.28123 0.38069
vt 0.19191 0.78762
vt 0.19724 0.81293
vt 0.18308 0.79434
vt 0.63016 0.97658
vt 0.64412 0.97658
vt 0.63278 0.98718
vt 0.13585 0.97993
vt 0.13585 0.99138
vt 0.12333 0.98985
vt 0.70267 0.96229
vt 0.70969 0.95000
vt 0.71756 0.96270
vt 0.88805 0.02923
vt 0.91774 0.02862
vt 0.88725 0.03860
vt 0.28170 0.36390
vt 0.28123 0.38069
vt 0.27860 0.35944
vt 0.70969 0.95000
vt 0.71570 0.94068
vt 0.71756 0.96270
vt 0.93781 0.25188
vt 0.94361 0.25620
vt 0.94545 0.26750
vt 0.77300 0.62590
vt 0.75436 0.61710
vt 0.78294 0.61734
vt 0.96347 0.11418
vt 0.97865 0.09823
vt 0.97837 0.11418
vt 0.18308 0.79434
vt 0.19724 0.81293
vt 0.18750 0.80788
vt 0.63278 0.98718
vt 0.64412 0.97658
vt 0.64363 0.98612
vt 0.86228 0.58459
vt 0.87089 0.58354
vt 0.86645 0.60183
vt 0.28123 0.38069
vt 0.28170 0.36390
vt 0.29193 0.37854
vt 0.23836 0.88286
vt 0.24364 0.89419
vt 0.22801 0.89091
vt 0.91425 0.04419
vt 0.88725 0.03860
vt 0.91774 0.02862
vt 0.31738 0.26418
vt 0.32691 0.27715
vt 0.29606 0.27450
vt 0.18750 0.80788
vt 0.16548 0.79309
vt 0.18308 0.79434
vt 0.28988 0.00209
vt 0.29025 0.01148
vt 0.27492 0.01148
vt 0.90543 0.44390
vt 0.90861 0.45290
vt 0.89953 0.46052
vt 0.23836 0.88286
vt 0.26016 0.88336
vt 0.24364 0.89419
vt 0.19724 0.81293
vt 0.19310 0.81289
vt 0.18750 0.80788
vt 0.91829 0.45511
vt 0.90014 0.48261
vt 0.89953 0.46052
vt 0.86490 0.94301
vt 0.85030 0.93770
vt 0.87100 0.93863
vt 0.29690 0.25565
vt 0.31738 0.26418
vt 0.29606 0.27450
vt 0.96347 0.11418
vt 0.96546 0.09769
vt 0.97865 0.09823
vt 0.28988 0.00209
vt 0.27492 0.01148
vt 0.27593 0.00160
vt 0.16548 0.79309
vt 0.18750 0.80788
vt 0.16705 0.80767
vt 0.19724 0.81293
vt 0.19584 0.82149
vt 0.19310 0.81289
vt 0.72073 0.83932
vt 0.72184 0.82663
vt 0.74145 0.83945
vt 0.92012 0.16110
vt 0.93544 0.18807
vt 0.92012 0.18867
vt 0.85030 0.93770
vt 0.86490 0.94301
vt 0.84767 0.95259
vt 0.72184 0.82663
vt 0.74953 0.82537
vt 0.74145 0.83945
vt 0.90861 0.45290
vt 0.91829 0.45511
vt 0.89953 0.46052
vt 0.76040 0.83174
vt 0.74145 0.83945
vt 0.74953 0.82537
vt 0.84767 0.95259
vt 0.86490 0.94301
vt 0.86133 0.95130
vt 0.93544 0.18807
vt 0.92012 0.16110
vt 0.93331 0.16061
vt 0.28123 0.38069
vt 0.25225 0.38384
vt 0.25865 0.36300
vt 0.03027 0.46489
vt 0.02672 0.45164
vt 0.03065 0.43345
vt 0.91829 0.45511
vt 0.91675 0.48262
vt 0.90014 0.48261
vt 0.29606 0.27450
vt 0.28052 0.26739
vt 0.29690 0.25565
vt 0.16705 0.80767
vt 0.16512 0.82224
vt 0.16548 0.79309
vt 0.27154 0.96785
vt 0.28171 0.97904
vt 0.26954 0.98635
vt 0.17961 0.80854
vt 0.16512 0.82224
vt 0.16705 0.80767
vt 0.29690 0.25565
vt 0.28052 0.26739
vt 0.28154 0.25219
vt 0.17961 0.80854
vt 0.17906 0.82207
vt 0.16512 0.82224
vt 0.76042 0.89694
vt 0.76042 0.92466
vt 0.74688 0.89685
vt 0.26954 0.98635
vt 0.26132 0.97547
vt 0.27154 0.96785
vt 0.76042 0.92466
vt 0.74691 0.92650
vt 0.74688 0.89685
vt 0.28154 0.25219
vt 0.28636 0.21912
vt 0.29690 0.25565
vt 0.28154 0.25219
vt 0.27249 0.21807
vt 0.28636 0.21912
vt 0.86519 0.82812
vt 0.86519 0.82812
vt 0.86519 0.82812
vt 0.86519 0.82812
vt 0.86519 0.82812
vt 0.86519 0.82812
vt 0.86519 0.82812
vt 0.86519 0.82812
vt 0.86519 0.82812
vt 0.86519 0.82812
vt 0.86519 0.82812
vt 0.86519 0.82812
vt 0.86519 0.82812
vt 0.86519 0.82812
vt 0.86519 0.82812
vt 0.86519 0.82812
vt 0.86519 0.82812
vt 0.86519 0.82812
vt 0.86519 0.82812
vt 0.86519 0.82812
vt 0.86519 0.82812
vt 0.86519 0.82812
vt 0.86519 0.82812
vt 0.86519 0.82812
vt 0.86519 0.82812
vt 0.86519 0.82812
vt 0.86519 0.82812
vt 0.86519 0.82812
vt 0.86519 0.82812
vt 0.86519 0.82812
vt 0.86519 0.82812
vt 0.86519 0.82812
vt 0.86519 0.82812
vt 0.86519 0.82812
vt 0.86519 0.82812
vt 0.86519 0.82812
vt 0.86519 0.82812
vt 0.86519 0.82812
vt 0.86519 0.82812
vt 0.86519 0.82812
vt 0.86519 0.82812
vt 0.86519 0.82812
vt 0.86519 0.82812
vt 0.86519 0.82812
vt 0.86519 0.82812
vt 0.86519 0.82812
vt 0.86519 0.82812
vt 0.86519 0.82812
vt 0.86519 0.82812
vt 0.86519 0.82812
vt 0.86519 0.82812
vt 0.86519 0.82812
vt 0.86519 0.82812
vt 0.86519 0.82812
vt 0.86519 0.82812
vn 0.2548 0.9227 -0.2894
vn -0.1284 0.7323 -0.6688
vn 0.3268 -0.8657 -0.3791
vn -0.1284 0.7323 -0.6688
vn -0.0764 -0.6493 -0.7567
vn 0.3268 -0.8657 -0.3791
vn 0.6110 0.5966 -0.5204
vn -0.5781 0.5965 -0.5567
vn 0.2548 0.9227 -0.2894
vn -0.5781 0.5965 -0.5567
vn -0.1284 0.7323 -0.6688
vn 0.2548 0.9227 -0.2894
vn 0.5775 -0.5573 -0.5966
vn 0.0298 -0.7156 -0.6979
vn -0.5474 -0.5461 -0.6341
vn 0.3237 -0.8658 -0.3816
vn 0.0402 -0.6809 -0.7313
vn -0.5116 -0.4709 -0.7187
vn 0.5546 -0.5930 0.5838
vn -0.5998 -0.6524 0.4633
vn -0.0168 -0.7976 0.6030
vn 0.6583 0.5405 -0.5239
vn -0.5474 -0.5461 -0.6341
vn -0.5516 0.5378 -0.6376
vn -0.5781 0.5965 -0.5567
vn 0.6110 0.5966 -0.5204
vn -0.5116 -0.4709 -0.7187
vn -0.6658 0.4581 0.5890
vn 0.3325 0.8761 0.3493
vn -0.0415 0.6060 0.7944
vn -0.1284 0.7323 -0.6688
vn -0.3953 0.8481 -0.3529
vn -0.0764 -0.6493 -0.7567
vn -0.0764 -0.6493 -0.7567
vn -0.5256 -0.5561 -0.6438
vn 0.1846 -0.5512 -0.8137
vn 0.0402 -0.6809 -0.7313
vn 0.3800 0.7716 -0.5102
vn -0.4071 0.7774 -0.4795
vn -0.1284 0.7323 -0.6688
vn -0.5781 0.5965 -0.5567
vn -0.3953 0.8481 -0.3529
vn -0.0168 -0.7976 0.6030
vn -0.0613 0.5692 0.8199
vn 0.3779 0.8604 0.3418
vn 0.5343 0.5411 0.6494
vn -0.6374 0.5106 0.5771
vn -0.6361 -0.5635 0.5271
vn -0.0613 0.5692 0.8199
vn -0.6374 0.5106 0.5771
vn 0.3779 0.8604 0.3418
vn 0.6583 0.5405 -0.5239
vn -0.5516 0.5378 -0.6376
vn -0.4071 0.7774 -0.4795
vn -0.3953 0.8481 -0.3529
vn -0.4009 -0.8028 -0.4414
vn -0.0764 -0.6493 -0.7567
vn -0.0168 -0.7976 0.6030
vn -0.4483 0.8243 0.3458
vn -0.0613 0.5692 0.8199
vn -0.0168 -0.7976 0.6030
vn -0.5998 -0.6524 0.4633
vn -0.3830 -0.8984 0.2148
vn -0.4071 0.7774 -0.4795
vn -0.3302 -0.8004 -0.5003
vn 0.0402 -0.6809 -0.7313
vn -0.6658 0.4581 0.5890
vn -0.5998 -0.6524 0.4633
vn 0.4747 0.5301 0.7026
vn 0.3025 -0.8622 0.4063
vn -0.3413 -0.8555 0.3893
vn -0.4011 0.8614 0.3116
vn 0.3973 -0.8208 0.4105
vn -0.4768 0.8190 0.3191
vn -0.0415 0.6060 0.7944
vn -0.3830 -0.8984 0.2148
vn -0.4483 0.8243 0.3458
vn -0.0168 -0.7976 0.6030
vn -0.0432 -0.7317 0.6803
vn -0.0464 -0.1079 0.9931
vn -0.1583 -0.1401 0.9774
vn -0.3302 -0.8004 -0.5003
vn -0.5116 -0.4709 -0.7187
vn 0.0402 -0.6809 -0.7313
vn -0.3953 0.8481 -0.3529
vn -0.4673 -0.5993 -0.6500
vn -0.4009 -0.8028 -0.4414
vn -0.3113 -0.8806 -0.3574
vn 0.0298 -0.7156 -0.6979
vn -0.3101 0.8446 -0.4365
vn 0.3973 -0.8208 0.4105
vn -0.3006 -0.8994 0.3174
vn -0.4768 0.8190 0.3191
vn -0.4673 -0.5993 -0.6500
vn -0.3953 0.8481 -0.3529
vn -0.5161 0.5660 -0.6429
vn -0.6374 0.5106 0.5771
vn -0.0613 0.5692 0.8199
vn -0.4483 0.8243 0.3458
vn -0.5256 -0.5561 -0.6438
vn -0.4009 -0.8028 -0.4414
vn -0.4673 -0.5993 -0.6500
vn -0.5256 -0.5561 -0.6438
vn -0.0764 -0.6493 -0.7567
vn -0.4009 -0.8028 -0.4414
vn -0.1306 0.2061 0.9698
vn 0.1904 0.2394 0.9521
vn -0.6902 0.5155 0.5078
vn -0.3953 0.8481 -0.3529
vn -0.2472 0.3562 -0.9011
vn -0.5161 0.5660 -0.6429
vn -0.4673 -0.5993 -0.6500
vn -0.5161 0.5660 -0.6429
vn -0.2692 0.3320 -0.9040
vn -0.2206 -0.3330 -0.9168
vn -0.5256 -0.5561 -0.6438
vn -0.4673 -0.5993 -0.6500
vn -0.3302 -0.8004 -0.5003
vn -0.4071 0.7774 -0.4795
vn -0.8006 0.5937 -0.0810
vn -0.3302 -0.8004 -0.5003
vn -0.8006 0.5937 -0.0810
vn -0.2953 -0.6517 -0.6986
vn -0.5474 -0.5461 -0.6341
vn -0.3113 -0.8806 -0.3574
vn -0.7558 -0.2989 0.5825
vn -0.5781 0.5965 -0.5567
vn -0.2472 0.3562 -0.9011
vn -0.3953 0.8481 -0.3529
vn -0.8006 0.5937 -0.0810
vn 0.7979 -0.4068 -0.4448
vn -0.2953 -0.6517 -0.6986
vn -0.2953 -0.6517 -0.6986
vn 0.5083 -0.2778 -0.8151
vn -0.3302 -0.8004 -0.5003
vn -0.3302 -0.8004 -0.5003
vn 0.5083 -0.2778 -0.8151
vn -0.5116 -0.4709 -0.7187
vn -0.3576 -0.5087 0.7832
vn -0.7084 0.6941 -0.1277
vn -0.9339 -0.3461 0.0891
vn -0.8006 0.5937 -0.0810
vn -0.3397 0.8011 0.4927
vn 0.7979 -0.4068 -0.4448
vn -0.7084 0.6941 -0.1277
vn -0.3576 -0.5087 0.7832
vn -0.3397 0.8011 0.4927
vn -0.4071 0.7774 -0.4795
vn -0.5516 0.5378 -0.6376
vn -0.8309 0.5501 -0.0840
vn -0.3397 0.8011 0.4927
vn -0.3576 -0.5087 0.7832
vn 0.5454 0.7176 0.4332
vn -0.7084 0.6941 -0.1277
vn -0.4483 0.8243 0.3458
vn -0.9339 -0.3461 0.0891
vn -0.4673 -0.5993 -0.6500
vn -0.2692 0.3320 -0.9040
vn -0.2206 -0.3330 -0.9168
vn -0.2953 -0.6517 -0.6986
vn 0.7979 -0.4068 -0.4448
vn 0.6491 -0.2836 -0.7059
vn 0.7979 -0.4068 -0.4448
vn -0.0961 -0.2638 -0.9598
vn 0.6491 -0.2836 -0.7059
vn -0.8006 0.5937 -0.0810
vn -0.4071 0.7774 -0.4795
vn -0.0961 -0.2638 -0.9598
vn -0.2953 -0.6517 -0.6986
vn 0.6491 -0.2836 -0.7059
vn 0.5083 -0.2778 -0.8151
vn -0.3113 -0.8806 -0.3574
vn -0.5474 -0.5461 -0.6341
vn 0.0298 -0.7156 -0.6979
vn -0.3397 0.8011 0.4927
vn 0.5454 0.7176 0.4332
vn -0.7084 0.6941 -0.1277
vn -0.9339 -0.3461 0.0891
vn 0.1847 -0.5909 0.7853
vn -0.3576 -0.5087 0.7832
vn -0.3830 -0.8984 0.2148
vn -0.9339 -0.3461 0.0891
vn -0.4483 0.8243 0.3458
vn 0.7979 -0.4068 -0.4448
vn -0.3397 0.8011 0.4927
vn -0.0961 -0.2638 -0.9598
vn -0.0961 -0.2638 -0.9598
vn -0.4071 0.7774 -0.4795
vn -0.8309 0.5501 -0.0840
vn -0.6992 0.0626 0.7122
vn -0.7084 0.6941 -0.1277
vn 0.5454 0.7176 0.4332
vn -0.0432 -0.7317 0.6803
vn -0.1583 -0.1401 0.9774
vn -0.6228 -0.6148 0.4839
vn -0.0961 -0.2638 -0.9598
vn -0.3397 0.8011 0.4927
vn -0.8006 0.5937 -0.0810
vn -0.9339 -0.3461 0.0891
vn -0.3830 -0.8984 0.2148
vn -0.6964 -0.6430 -0.3187
vn -0.4275 -0.8353 0.3457
vn 0.1847 -0.5909 0.7853
vn -0.9339 -0.3461 0.0891
vn -0.9339 -0.3461 0.0891
vn -0.6964 -0.6430 -0.3187
vn -0.8429 -0.5301 -0.0920
vn 0.5454 0.7176 0.4332
vn -0.3576 -0.5087 0.7832
vn 0.1847 -0.5909 0.7853
vn -0.7084 0.6941 -0.1277
vn -0.6992 0.0626 0.7122
vn -0.4483 0.8243 0.3458
vn -0.6228 -0.6148 0.4839
vn 0.3973 -0.8208 0.4105
vn -0.0432 -0.7317 0.6803
vn -0.5781 0.5965 -0.5567
vn -0.5116 -0.4709 -0.7187
vn 0.5083 -0.2778 -0.8151
vn -0.6166 -0.3351 -0.7124
vn -0.8309 0.5501 -0.0840
vn -0.5516 0.5378 -0.6376
vn -0.5516 0.5378 -0.6376
vn -0.5474 -0.5461 -0.6341
vn -0.6166 -0.3351 -0.7124
vn -0.6658 0.4581 0.5890
vn -0.0415 0.6060 0.7944
vn -0.4768 0.8190 0.3191
vn -0.8309 0.5501 -0.0840
vn -0.6166 -0.3351 -0.7124
vn -0.0961 -0.2638 -0.9598
vn -0.1306 0.2061 0.9698
vn -0.1583 -0.1401 0.9774
vn -0.0464 -0.1079 0.9931
vn -0.8429 -0.5301 -0.0920
vn -0.6964 -0.6430 -0.3187
vn -0.6329 -0.2040 -0.7468
vn -0.5474 -0.5461 -0.6341
vn -0.9274 -0.2202 -0.3023
vn -0.6166 -0.3351 -0.7124
vn -0.6361 -0.5635 0.5271
vn -0.5519 -0.7761 0.3051
vn -0.0410 -0.9180 0.3944
vn 0.6491 -0.2836 -0.7059
vn -0.0961 -0.2638 -0.9598
vn 0.2396 -0.9701 0.0377
vn -0.6391 -0.6171 -0.4590
vn -0.6166 -0.3351 -0.7124
vn -0.6093 -0.5777 -0.5432
vn -0.7558 -0.2989 0.5825
vn -0.9274 -0.2202 -0.3023
vn -0.5474 -0.5461 -0.6341
vn 0.5083 -0.2778 -0.8151
vn -0.8393 -0.3464 -0.4191
vn -0.5781 0.5965 -0.5567
vn -0.5659 0.4397 -0.6974
vn -0.8393 -0.3464 -0.4191
vn 0.5083 -0.2778 -0.8151
vn -0.8429 -0.5301 -0.0920
vn -0.7449 -0.0664 0.6638
vn -0.9339 -0.3461 0.0891
vn -0.5161 0.5660 -0.6429
vn -0.2472 0.3562 -0.9011
vn -0.2692 0.3320 -0.9040
vn -0.5256 -0.5561 -0.6438
vn -0.2206 -0.3330 -0.9168
vn -0.5432 0.5725 -0.6141
vn 0.5083 -0.2778 -0.8151
vn 0.6491 -0.2836 -0.7059
vn 0.4440 0.7087 -0.5482
vn -0.4275 -0.8353 0.3457
vn -0.9339 -0.3461 0.0891
vn -0.7449 -0.0664 0.6638
vn -0.5659 0.4397 -0.6974
vn -0.0955 -0.2997 -0.9493
vn -0.8393 -0.3464 -0.4191
vn -0.2206 -0.3330 -0.9168
vn -0.7803 -0.3390 -0.5255
vn -0.5432 0.5725 -0.6141
vn 0.1847 -0.5909 0.7853
vn -0.6992 0.0626 0.7122
vn 0.5454 0.7176 0.4332
vn -0.0961 -0.2638 -0.9598
vn -0.6166 -0.3351 -0.7124
vn -0.6391 -0.6171 -0.4590
vn -0.9274 -0.2202 -0.3023
vn -0.7558 -0.2989 0.5825
vn -0.5519 -0.7761 0.3051
vn -0.8429 -0.5301 -0.0920
vn -0.6329 -0.2040 -0.7468
vn -0.7449 -0.0664 0.6638
vn 0.1847 -0.5909 0.7853
vn -0.1303 -0.2564 0.9578
vn -0.6992 0.0626 0.7122
vn -0.4275 -0.8353 0.3457
vn -0.7449 -0.0664 0.6638
vn 0.1847 -0.5909 0.7853
vn -0.7803 -0.3390 -0.5255
vn -0.2697 0.3081 -0.9123
vn -0.5432 0.5725 -0.6141
vn -0.5781 0.5965 -0.5567
vn -0.8393 -0.3464 -0.4191
vn -0.2472 0.3562 -0.9011
vn -0.6374 0.5106 0.5771
vn -0.4483 0.8243 0.3458
vn -0.6992 0.0626 0.7122
vn -0.5998 -0.6524 0.4633
vn -0.4902 -0.5893 -0.6423
vn -0.6964 -0.6430 -0.3187
vn -0.5998 -0.6524 0.4633
vn -0.6964 -0.6430 -0.3187
vn -0.3830 -0.8984 0.2148
vn -0.6964 -0.6430 -0.3187
vn -0.4902 -0.5893 -0.6423
vn -0.6329 -0.2040 -0.7468
vn -0.9274 -0.2202 -0.3023
vn -0.6093 -0.5777 -0.5432
vn -0.6166 -0.3351 -0.7124
vn -0.9274 -0.2202 -0.3023
vn -0.5519 -0.7761 0.3051
vn -0.6361 -0.5635 0.5271
vn 0.2396 -0.9701 0.0377
vn -0.0961 -0.2638 -0.9598
vn -0.6391 -0.6171 -0.4590
vn 0.5083 -0.2778 -0.8151
vn 0.4440 0.7087 -0.5482
vn 0.4373 0.8742 -0.2109
vn 0.1847 -0.5909 0.7853
vn -0.7449 -0.0664 0.6638
vn -0.1303 -0.2564 0.9578
vn -0.5957 -0.5221 0.6104
vn -0.7449 -0.0664 0.6638
vn -0.6329 -0.2040 -0.7468
vn -0.2206 -0.3330 -0.9168
vn -0.2692 0.3320 -0.9040
vn -0.7803 -0.3390 -0.5255
vn -0.0955 -0.2997 -0.9493
vn 0.4373 0.8742 -0.2109
vn -0.8393 -0.3464 -0.4191
vn -0.1583 -0.1401 0.9774
vn -0.1306 0.2061 0.9698
vn -0.6902 0.5155 0.5078
vn -0.6093 -0.5777 -0.5432
vn -0.9274 -0.2202 -0.3023
vn -0.6361 -0.5635 0.5271
vn 0.5083 -0.2778 -0.8151
vn 0.4373 0.8742 -0.2109
vn -0.5659 0.4397 -0.6974
vn -0.4014 -0.6956 -0.5958
vn -0.2697 0.3081 -0.9123
vn -0.7803 -0.3390 -0.5255
vn -0.5957 -0.5221 0.6104
vn -0.6329 -0.2040 -0.7468
vn -0.8835 -0.4663 0.0441
vn -0.0955 -0.2997 -0.9493
vn -0.5659 0.4397 -0.6974
vn 0.4373 0.8742 -0.2109
vn -0.5753 0.4231 -0.7000
vn -0.7924 0.5626 -0.2357
vn -0.2692 0.3320 -0.9040
vn -0.8393 -0.3464 -0.4191
vn -0.3721 -0.5672 -0.7348
vn -0.2472 0.3562 -0.9011
vn -0.2692 0.3320 -0.9040
vn -0.2472 0.3562 -0.9011
vn -0.5753 0.4231 -0.7000
vn -0.6329 -0.2040 -0.7468
vn -0.6295 0.5899 -0.5056
vn -0.8835 -0.4663 0.0441
vn -0.6374 0.5106 0.5771
vn -0.6992 0.0626 0.7122
vn -0.6391 -0.6171 -0.4590
vn -0.7803 -0.3390 -0.5255
vn -0.2692 0.3320 -0.9040
vn -0.7924 0.5626 -0.2357
vn -0.7449 -0.0664 0.6638
vn -0.5957 -0.5221 0.6104
vn -0.6285 -0.3970 0.6688
vn -0.8504 0.2944 -0.4360
vn -0.8351 0.0222 0.5496
vn -0.9021 0.0324 0.4303
vn -0.8739 -0.3536 -0.3337
vn -0.8351 0.0222 0.5496
vn -0.8504 0.2944 -0.4360
vn -0.6391 -0.6171 -0.4590
vn -0.6361 -0.5635 0.5271
vn -0.6374 0.5106 0.5771
vn -0.9021 0.0324 0.4303
vn -0.8835 -0.4663 0.0441
vn -0.8504 0.2944 -0.4360
vn -0.6361 -0.5635 0.5271
vn -0.6391 -0.6171 -0.4590
vn -0.6093 -0.5777 -0.5432
vn -0.6228 -0.6148 0.4839
vn -0.3006 -0.8994 0.3174
vn 0.3973 -0.8208 0.4105
vn -0.9342 0.2063 0.2911
vn -0.7994 0.0967 0.5930
vn -0.8198 0.5581 -0.1286
vn -0.8245 0.2991 0.4804
vn -0.6618 -0.0485 -0.7481
vn -0.8743 -0.0312 0.4843
vn -0.4768 0.8190 0.3191
vn -0.8739 -0.3536 -0.3337
vn -0.8504 0.2944 -0.4360
vn -0.9342 0.2063 0.2911
vn -0.6618 -0.0485 -0.7481
vn -0.8245 0.2991 0.4804
vn -0.6902 0.5155 0.5078
vn -0.6228 -0.6148 0.4839
vn -0.1583 -0.1401 0.9774
vn -0.8739 -0.3536 -0.3337
vn -0.6985 -0.0070 -0.7155
vn -0.8351 0.0222 0.5496
vn 0.4440 0.7087 -0.5482
vn 0.6491 -0.2836 -0.7059
vn 0.5950 -0.6560 -0.4644
vn -0.8198 0.5581 -0.1286
vn -0.8685 -0.3420 -0.3589
vn -0.9342 0.2063 0.2911
vn -0.8198 0.5581 -0.1286
vn -0.7994 0.0967 0.5930
vn -0.4833 0.5788 -0.6569
vn -0.6329 -0.2040 -0.7468
vn -0.4902 -0.5893 -0.6423
vn -0.6295 0.5899 -0.5056
vn -0.6285 -0.3970 0.6688
vn -0.5957 -0.5221 0.6104
vn -0.8835 -0.4663 0.0441
vn -0.8504 0.2944 -0.4360
vn -0.6295 0.5899 -0.5056
vn -0.4768 0.8190 0.3191
vn -0.9342 0.2063 0.2911
vn -0.8685 -0.3420 -0.3589
vn -0.6618 -0.0485 -0.7481
vn -0.8739 -0.3536 -0.3337
vn -0.4768 0.8190 0.3191
vn -0.3006 -0.8994 0.3174
vn -0.6295 0.5899 -0.5056
vn -0.8504 0.2944 -0.4360
vn -0.8835 -0.4663 0.0441
vn -0.6985 -0.0070 -0.7155
vn -0.6853 -0.5285 0.5009
vn -0.8351 0.0222 0.5496
vn -0.6257 -0.6078 0.4890
vn -0.8351 0.0222 0.5496
vn -0.7712 0.4260 0.4730
vn -0.8393 -0.3464 -0.4191
vn 0.4373 0.8742 -0.2109
vn -0.3721 -0.5672 -0.7348
vn -0.2472 0.3562 -0.9011
vn -0.3721 -0.5672 -0.7348
vn -0.5753 0.4231 -0.7000
vn -0.7994 0.0967 0.5930
vn -0.9342 0.2063 0.2911
vn -0.7581 0.5179 0.3963
vn -0.4011 0.8614 0.3116
vn -0.8685 -0.3420 -0.3589
vn -0.8198 0.5581 -0.1286
vn -0.6985 -0.0070 -0.7155
vn -0.8874 -0.2737 0.3710
vn -0.6853 -0.5285 0.5009
vn -0.7803 -0.3390 -0.5255
vn -0.3960 -0.8099 0.4327
vn -0.4014 -0.6956 -0.5958
vn -0.8739 -0.3536 -0.3337
vn -0.5350 -0.5817 -0.6127
vn -0.6985 -0.0070 -0.7155
vn -0.8351 0.0222 0.5496
vn -0.6853 -0.5285 0.5009
vn -0.6618 0.7353 0.1459
vn -0.6182 0.7790 0.1047
vn -0.9342 0.2063 0.2911
vn -0.8245 0.2991 0.4804
vn -0.3413 -0.8555 0.3893
vn -0.8685 -0.3420 -0.3589
vn -0.4011 0.8614 0.3116
vn -0.4833 0.5788 -0.6569
vn -0.7994 0.0967 0.5930
vn -0.8874 -0.2737 0.3710
vn -0.4833 0.5788 -0.6569
vn -0.8874 -0.2737 0.3710
vn -0.6985 -0.0070 -0.7155
vn -0.4842 -0.1915 0.8538
vn -0.6391 -0.6171 -0.4590
vn -0.6992 0.0626 0.7122
vn -0.6992 0.0626 0.7122
vn -0.1303 -0.2564 0.9578
vn -0.4842 -0.1915 0.8538
vn -0.9021 0.0324 0.4303
vn -0.6257 -0.6078 0.4890
vn -0.8835 -0.4663 0.0441
vn -0.6618 -0.0485 -0.7481
vn -0.5668 0.5144 -0.6435
vn -0.8864 0.3043 -0.3489
vn -0.3960 -0.8099 0.4327
vn -0.7803 -0.3390 -0.5255
vn -0.7924 0.5626 -0.2357
vn -0.3960 -0.8099 0.4327
vn -0.7924 0.5626 -0.2357
vn -0.6618 0.7353 0.1459
vn -0.6853 -0.5285 0.5009
vn -0.3960 -0.8099 0.4327
vn -0.6618 0.7353 0.1459
vn -0.7449 -0.0664 0.6638
vn -0.6285 -0.3970 0.6688
vn -0.1303 -0.2564 0.9578
vn -0.6853 -0.5285 0.5009
vn -0.8874 -0.2737 0.3710
vn -0.3960 -0.8099 0.4327
vn -0.0936 0.7122 0.6957
vn -0.4011 0.8614 0.3116
vn -0.6902 0.5155 0.5078
vn -0.3413 -0.8555 0.3893
vn -0.0650 -0.6429 0.7632
vn -0.6447 -0.5558 0.5248
vn -0.5668 0.5144 -0.6435
vn -0.6618 -0.0485 -0.7481
vn -0.4933 -0.6486 -0.5796
vn -0.6364 0.5227 -0.5673
vn -0.8198 0.5581 -0.1286
vn -0.4833 0.5788 -0.6569
vn -0.6364 0.5227 -0.5673
vn -0.4011 0.8614 0.3116
vn -0.8198 0.5581 -0.1286
vn -0.5998 -0.6524 0.4633
vn -0.6295 0.5899 -0.5056
vn -0.4902 -0.5893 -0.6423
vn -0.5350 -0.5817 -0.6127
vn -0.8739 -0.3536 -0.3337
vn -0.3006 -0.8994 0.3174
vn -0.9021 0.0324 0.4303
vn -0.8351 0.0222 0.5496
vn -0.6257 -0.6078 0.4890
vn -0.3960 -0.8099 0.4327
vn -0.8874 -0.2737 0.3710
vn -0.6629 -0.5426 0.5159
vn -0.6658 0.4581 0.5890
vn -0.4768 0.8190 0.3191
vn -0.6295 0.5899 -0.5056
vn -0.5350 -0.5817 -0.6127
vn -0.3006 -0.8994 0.3174
vn -0.6228 -0.6148 0.4839
vn -0.4014 -0.6956 -0.5958
vn -0.5513 0.3982 -0.7331
vn -0.2697 0.3081 -0.9123
vn -0.6364 0.5227 -0.5673
vn -0.4833 0.5788 -0.6569
vn -0.6985 -0.0070 -0.7155
vn 0.6491 -0.2836 -0.7059
vn 0.2396 -0.9701 0.0377
vn 0.5950 -0.6560 -0.4644
vn -0.7924 0.5626 -0.2357
vn -0.5753 0.4231 -0.7000
vn -0.7712 0.4260 0.4730
vn -0.8835 -0.4663 0.0441
vn -0.6257 -0.6078 0.4890
vn -0.6285 -0.3970 0.6688
vn -0.6618 0.7353 0.1459
vn -0.7924 0.5626 -0.2357
vn -0.7712 0.4260 0.4730
vn 0.4373 0.8742 -0.2109
vn -0.6588 0.7244 -0.2030
vn -0.3721 -0.5672 -0.7348
vn -0.6295 0.5899 -0.5056
vn -0.5998 -0.6524 0.4633
vn -0.6658 0.4581 0.5890
vn 0.4373 0.8742 -0.2109
vn 0.4440 0.7087 -0.5482
vn -0.3285 0.8703 0.3670
vn -0.6364 0.5227 -0.5673
vn -0.6985 -0.0070 -0.7155
vn -0.5350 -0.5817 -0.6127
vn -0.4933 -0.6486 -0.5796
vn -0.8685 -0.3420 -0.3589
vn -0.6447 -0.5558 0.5248
vn -0.6182 0.7790 0.1047
vn -0.7581 0.5179 0.3963
vn -0.9342 0.2063 0.2911
vn -0.3285 0.8703 0.3670
vn 0.4440 0.7087 -0.5482
vn 0.0424 0.5471 -0.8360
vn -0.6391 -0.6171 -0.4590
vn 0.0018 -0.8717 0.4900
vn 0.2396 -0.9701 0.0377
vn -0.3960 -0.8099 0.4327
vn -0.6629 -0.5426 0.5159
vn -0.4014 -0.6956 -0.5958
vn -0.4011 0.8614 0.3116
vn -0.6364 0.5227 -0.5673
vn -0.6902 0.5155 0.5078
vn -0.6618 -0.0485 -0.7481
vn -0.8685 -0.3420 -0.3589
vn -0.4933 -0.6486 -0.5796
vn -0.3721 -0.5672 -0.7348
vn -0.6588 0.7244 -0.2030
vn -0.7712 0.4260 0.4730
vn -0.6285 -0.3970 0.6688
vn -0.6257 -0.6078 0.4890
vn -0.6588 0.7244 -0.2030
vn -0.6629 -0.5426 0.5159
vn -0.8874 -0.2737 0.3710
vn -0.7994 0.0967 0.5930
vn -0.6228 -0.6148 0.4839
vn -0.6364 0.5227 -0.5673
vn -0.5350 -0.5817 -0.6127
vn -0.8245 0.5072 -0.2509
vn -0.7581 0.5179 0.3963
vn -0.6182 0.7790 0.1047
vn -0.5513 0.3982 -0.7331
vn -0.4014 -0.6956 -0.5958
vn -0.8245 0.5072 -0.2509
vn 0.4440 0.7087 -0.5482
vn 0.5950 -0.6560 -0.4644
vn 0.0424 0.5471 -0.8360
vn -0.7712 0.4260 0.4730
vn -0.5753 0.4231 -0.7000
vn -0.3721 -0.5672 -0.7348
vn -0.8685 -0.3420 -0.3589
vn -0.3413 -0.8555 0.3893
vn -0.6447 -0.5558 0.5248
vn -0.8245 0.5072 -0.2509
vn -0.4014 -0.6956 -0.5958
vn -0.6629 -0.5426 0.5159
vn -0.5668 0.5144 -0.6435
vn -0.6654 0.5592 0.4945
vn -0.8864 0.3043 -0.3489
vn -0.7712 0.4260 0.4730
vn -0.8351 0.0222 0.5496
vn -0.6618 0.7353 0.1459
vn -0.6285 -0.3970 0.6688
vn -0.6588 0.7244 -0.2030
vn -0.3285 0.8703 0.3670
vn -0.6228 -0.6148 0.4839
vn -0.6902 0.5155 0.5078
vn -0.6364 0.5227 -0.5673
vn -0.6654 0.5592 0.4945
vn -0.4933 -0.6486 -0.5796
vn -0.6447 -0.5558 0.5248
vn -0.6285 -0.3970 0.6688
vn -0.3285 0.8703 0.3670
vn -0.1303 -0.2564 0.9578
vn -0.6654 0.5592 0.4945
vn -0.5668 0.5144 -0.6435
vn -0.4933 -0.6486 -0.5796
vn -0.6447 -0.5558 0.5248
vn -0.2204 0.0435 0.9744
vn -0.6654 0.5592 0.4945
vn -0.1303 -0.2564 0.9578
vn -0.3285 0.8703 0.3670
vn -0.4842 -0.1915 0.8538
vn 0.4373 0.8742 -0.2109
vn -0.3285 0.8703 0.3670
vn -0.6588 0.7244 -0.2030
vn -0.7712 0.4260 0.4730
vn -0.6588 0.7244 -0.2030
vn -0.6257 -0.6078 0.4890
vn -0.4842 -0.1915 0.8538
vn 0.0018 -0.8717 0.4900
vn -0.6391 -0.6171 -0.4590
vn -0.6629 -0.5426 0.5159
vn -0.7581 0.5179 0.3963
vn -0.8245 0.5072 -0.2509
vn -0.7581 0.5179 0.3963
vn -0.6629 -0.5426 0.5159
vn -0.7994 0.0967 0.5930
vn -0.0955 -0.5133 0.8528
vn 0.5950 -0.6560 -0.4644
vn 0.2396 -0.9701 0.0377
vn -0.0955 -0.5133 0.8528
vn 0.2396 -0.9701 0.0377
vn 0.0018 -0.8717 0.4900
vn -0.4842 -0.1915 0.8538
vn -0.3285 0.8703 0.3670
vn -0.0955 -0.5133 0.8528
vn 0.0018 -0.8717 0.4900
vn -0.4842 -0.1915 0.8538
vn -0.0955 -0.5133 0.8528
vn 0.0424 0.5471 -0.8360
vn -0.5948 0.7213 0.3549
vn -0.3285 0.8703 0.3670
vn 0.5999 -0.6690 -0.4388
vn 0.5950 -0.6560 -0.4644
vn -0.0955 -0.5133 0.8528
vn 0.1555 -0.5867 0.7947
vn 0.5999 -0.6690 -0.4388
vn -0.0955 -0.5133 0.8528
vn -0.0955 -0.5133 0.8528
vn -0.5948 0.7213 0.3549
vn -0.8075 0.5402 0.2368
vn -0.0955 -0.5133 0.8528
vn -0.3285 0.8703 0.3670
vn -0.5948 0.7213 0.3549
vn 0.0424 0.5471 -0.8360
vn 0.5950 -0.6560 -0.4644
vn 0.5999 -0.6690 -0.4388
vn -0.2130 0.3483 -0.9129
vn 0.5999 -0.6690 -0.4388
vn 0.2461 -0.7263 -0.6418
vn -0.2130 0.3483 -0.9129
vn 0.0424 0.5471 -0.8360
vn 0.5999 -0.6690 -0.4388
vn 0.5999 -0.6690 -0.4388
vn 0.4377 -0.8782 -0.1929
vn 0.2461 -0.7263 -0.6418
vn -0.2130 0.3483 -0.9129
vn -0.8075 0.5402 0.2368
vn 0.0424 0.5471 -0.8360
vn 0.4377 -0.8782 -0.1929
vn 0.5999 -0.6690 -0.4388
vn 0.1555 -0.5867 0.7947
vn 0.0424 0.5471 -0.8360
vn -0.8075 0.5402 0.2368
vn -0.5948 0.7213 0.3549
vn -0.0955 -0.5133 0.8528
vn -0.2750 -0.5356 0.7984
vn 0.1555 -0.5867 0.7947
vn 0.2461 -0.7263 -0.6418
vn 0.4377 -0.8782 -0.1929
vn -0.2130 0.3483 -0.9129
vn -0.2130 0.3483 -0.9129
vn 0.4377 -0.8782 -0.1929
vn -0.1067 0.0515 -0.9930
vn 0.7596 -0.5890 -0.2757
vn -0.1067 0.0515 -0.9930
vn 0.4377 -0.8782 -0.1929
vn -0.0614 -0.5124 0.8565
vn 0.7596 -0.5890 -0.2757
vn 0.4377 -0.8782 -0.1929
vn -0.8075 0.5402 0.2368
vn -0.2750 -0.5356 0.7984
vn -0.0955 -0.5133 0.8528
vn -0.0073 -0.2928 0.9561
vn 0.4377 -0.8782 -0.1929
vn 0.1555 -0.5867 0.7947
vn 0.1555 -0.5867 0.7947
vn -0.2750 -0.5356 0.7984
vn -0.8075 0.5402 0.2368
vn -0.2130 0.3483 -0.9129
vn -0.1067 0.0515 -0.9930
vn -0.6323 0.6778 -0.3753
vn 0.4377 -0.8782 -0.1929
vn -0.0073 -0.2928 0.9561
vn -0.0614 -0.5124 0.8565
vn 0.1555 -0.5867 0.7947
vn -0.8075 0.5402 0.2368
vn -0.7283 0.1009 0.6777
vn -0.0073 -0.2928 0.9561
vn 0.1555 -0.5867 0.7947
vn -0.7283 0.1009 0.6777
vn -0.6323 0.6778 -0.3753
vn -0.8075 0.5402 0.2368
vn -0.2130 0.3483 -0.9129
vn -0.8075 0.5402 0.2368
vn -0.6323 0.6778 -0.3753
vn -0.7283 0.1009 0.6777
vn 0.2590 -0.7882 -0.5583
vn 0.7596 -0.5890 -0.2757
vn -0.0614 -0.5124 0.8565
vn -0.1067 0.0515 -0.9930
vn 0.7596 -0.5890 -0.2757
vn -0.0545 0.4825 -0.8742
vn -0.7283 0.1009 0.6777
vn -0.6323 0.6778 -0.3753
vn -0.7382 0.6292 0.2432
vn -0.6323 0.6778 -0.3753
vn -0.1067 0.0515 -0.9930
vn -0.7382 0.6292 0.2432
vn -0.7382 0.6292 0.2432
vn -0.1067 0.0515 -0.9930
vn -0.0545 0.4825 -0.8742
vn 0.2590 -0.7882 -0.5583
vn -0.0545 0.4825 -0.8742
vn 0.7596 -0.5890 -0.2757
vn -0.0073 -0.2928 0.9561
vn -0.7283 0.1009 0.6777
vn -0.7382 0.6292 0.2432
vn 0.8465 -0.5149 -0.1352
vn 0.7072 0.5651 -0.4249
vn 0.7750 -0.4357 0.4577
vn -0.0545 0.4825 -0.8742
vn 0.2590 -0.7882 -0.5583
vn 0.6593 -0.0686 -0.7488
vn -0.5039 0.1395 0.8524
vn -0.0614 -0.5124 0.8565
vn -0.0073 -0.2928 0.9561
vn -0.0545 0.4825 -0.8742
vn 0.6593 -0.0686 -0.7488
vn 0.0190 0.7362 -0.6765
vn -0.7382 0.6292 0.2432
vn -0.5039 0.1395 0.8524
vn -0.0073 -0.2928 0.9561
vn 0.6593 -0.0686 -0.7488
vn 0.2590 -0.7882 -0.5583
vn 0.8762 -0.3495 0.3319
vn 0.8320 0.5327 -0.1551
vn 0.7750 -0.4357 0.4577
vn 0.7072 0.5651 -0.4249
vn 0.7750 -0.4357 0.4577
vn 0.4934 -0.0703 0.8670
vn 0.1546 -0.3965 0.9049
vn 0.7072 0.5651 -0.4249
vn 0.0191 0.9046 -0.4259
vn 0.8320 0.5327 -0.1551
vn 0.8320 0.5327 -0.1551
vn 0.8762 -0.3495 0.3319
vn 0.7750 -0.4357 0.4577
vn 0.6593 -0.0686 -0.7488
vn 0.8762 -0.3495 0.3319
vn 0.8320 0.5327 -0.1551
vn 0.6593 -0.0686 -0.7488
vn 0.8320 0.5327 -0.1551
vn 0.0190 0.7362 -0.6765
vn 0.4934 -0.0703 0.8670
vn 0.7750 -0.4357 0.4577
vn 0.8762 -0.3495 0.3319
vn -0.0614 -0.5124 0.8565
vn 0.8762 -0.3495 0.3319
vn 0.2590 -0.7882 -0.5583
vn 0.8320 0.5327 -0.1551
vn 0.0191 0.9046 -0.4259
vn 0.0190 0.7362 -0.6765
vn 0.7750 -0.4357 0.4577
vn -0.2945 -0.9493 -0.1096
vn 0.8465 -0.5149 -0.1352
vn 0.8465 -0.5149 -0.1352
vn 0.8685 -0.4101 -0.2785
vn 0.7072 0.5651 -0.4249
vn 0.0191 0.9046 -0.4259
vn 0.7072 0.5651 -0.4249
vn -0.1803 0.5863 -0.7897
vn 0.8762 -0.3495 0.3319
vn -0.0614 -0.5124 0.8565
vn 0.4934 -0.0703 0.8670
vn -0.0614 -0.5124 0.8565
vn -0.5039 0.1395 0.8524
vn 0.0629 -0.0045 0.9980
vn -0.2945 -0.9493 -0.1096
vn 0.8685 -0.4101 -0.2785
vn 0.8465 -0.5149 -0.1352
vn -0.0614 -0.5124 0.8565
vn 0.0629 -0.0045 0.9980
vn 0.4934 -0.0703 0.8670
vn 0.1546 -0.3965 0.9049
vn -0.2945 -0.9493 -0.1096
vn 0.7750 -0.4357 0.4577
vn 0.7812 -0.6242 -0.0085
vn 0.3391 0.3433 -0.8759
vn 0.8685 -0.4101 -0.2785
vn 0.3391 0.3433 -0.8759
vn 0.7072 0.5651 -0.4249
vn 0.8685 -0.4101 -0.2785
vn 0.7072 0.5651 -0.4249
vn 0.3391 0.3433 -0.8759
vn -0.1803 0.5863 -0.7897
vn -0.7382 0.6292 0.2432
vn -0.0545 0.4825 -0.8742
vn 0.0190 0.7362 -0.6765
vn -0.1785 -0.7527 0.6337
vn 0.7812 -0.6242 -0.0085
vn 0.8685 -0.4101 -0.2785
vn -0.2945 -0.9493 -0.1096
vn -0.1785 -0.7527 0.6337
vn 0.8685 -0.4101 -0.2785
vn -0.7382 0.6292 0.2432
vn 0.0190 0.7362 -0.6765
vn -0.4755 0.8781 0.0534
vn 0.4934 -0.0703 0.8670
vn -0.2543 0.4144 0.8739
vn 0.1546 -0.3965 0.9049
vn -0.4755 0.8781 0.0534
vn 0.0190 0.7362 -0.6765
vn -0.7099 0.5433 -0.4482
vn -0.1785 -0.7527 0.6337
vn -0.2945 -0.9493 -0.1096
vn -0.9712 -0.1054 0.2137
vn 0.3391 0.3433 -0.8759
vn -0.7505 0.5452 0.3735
vn -0.1803 0.5863 -0.7897
vn -0.2543 0.4144 0.8739
vn 0.0629 -0.0045 0.9980
vn -0.5039 0.1395 0.8524
vn 0.7812 -0.6242 -0.0085
vn -0.1785 -0.7527 0.6337
vn -0.0366 -0.5419 0.8397
vn 0.3391 0.3433 -0.8759
vn 0.7812 -0.6242 -0.0085
vn 0.0052 0.4596 -0.8881
vn 0.0191 0.9046 -0.4259
vn -0.7099 0.5433 -0.4482
vn 0.0190 0.7362 -0.6765
vn -0.1785 -0.7527 0.6337
vn -0.9712 -0.1054 0.2137
vn -0.0366 -0.5419 0.8397
vn 0.4934 -0.0703 0.8670
vn 0.0629 -0.0045 0.9980
vn -0.2543 0.4144 0.8739
vn -0.5039 0.1395 0.8524
vn -0.7382 0.6292 0.2432
vn -0.4755 0.8781 0.0534
vn -0.0366 -0.5419 0.8397
vn -0.0552 -0.6400 -0.7664
vn 0.7812 -0.6242 -0.0085
vn -0.9712 -0.1054 0.2137
vn -0.2945 -0.9493 -0.1096
vn -0.1918 -0.4166 -0.8886
vn -0.1803 0.5863 -0.7897
vn -0.7505 0.5452 0.3735
vn -0.7099 0.5433 -0.4482
vn 0.2608 -0.2737 0.9258
vn -0.2945 -0.9493 -0.1096
vn 0.1546 -0.3965 0.9049
vn -0.7099 0.5433 -0.4482
vn 0.0191 0.9046 -0.4259
vn -0.1803 0.5863 -0.7897
vn -0.4755 0.8781 0.0534
vn -0.2543 0.4144 0.8739
vn -0.5039 0.1395 0.8524
vn -0.0552 -0.6400 -0.7664
vn 0.0052 0.4596 -0.8881
vn 0.7812 -0.6242 -0.0085
vn 0.2608 -0.2737 0.9258
vn 0.1546 -0.3965 0.9049
vn -0.2543 0.4144 0.8739
vn -0.1918 -0.4166 -0.8886
vn -0.7099 0.5433 -0.4482
vn -0.9712 -0.1054 0.2137
vn 0.3391 0.3433 -0.8759
vn 0.0052 0.4596 -0.8881
vn -0.8281 0.5599 -0.0271
vn -0.7099 0.5433 -0.4482
vn -0.7505 0.5452 0.3735
vn -0.9712 -0.1054 0.2137
vn -0.4755 0.8781 0.0534
vn -0.7841 0.6090 0.1192
vn -0.2543 0.4144 0.8739
vn -0.2945 -0.9493 -0.1096
vn 0.5110 -0.7996 -0.3153
vn -0.1918 -0.4166 -0.8886
vn -0.8281 0.5599 -0.0271
vn -0.0366 -0.5419 0.8397
vn -0.9712 -0.1054 0.2137
vn 0.5110 -0.7996 -0.3153
vn 0.7514 -0.6516 -0.1040
vn -0.1918 -0.4166 -0.8886
vn -0.5906 0.0869 0.8022
vn 0.2608 -0.2737 0.9258
vn -0.2543 0.4144 0.8739
vn -0.0366 -0.5419 0.8397
vn -0.8375 -0.5464 0.0086
vn -0.0552 -0.6400 -0.7664
vn 0.3391 0.3433 -0.8759
vn -0.8281 0.5599 -0.0271
vn -0.7505 0.5452 0.3735
vn -0.7099 0.5433 -0.4482
vn -0.1918 -0.4166 -0.8886
vn -0.6719 -0.0217 -0.7403
vn -0.2945 -0.9493 -0.1096
vn 0.2608 -0.2737 0.9258
vn 0.5110 -0.7996 -0.3153
vn 0.7514 -0.6516 -0.1040
vn -0.1210 -0.6280 -0.7687
vn -0.1918 -0.4166 -0.8886
vn -0.0552 -0.6400 -0.7664
vn -0.8281 0.5599 -0.0271
vn 0.0052 0.4596 -0.8881
vn 0.7514 -0.6516 -0.1040
vn 0.5110 -0.7996 -0.3153
vn 0.0545 -0.5267 0.8483
vn -0.1210 -0.6280 -0.7687
vn -0.1788 0.0728 -0.9812
vn -0.1918 -0.4166 -0.8886
vn -0.7505 0.5452 0.3735
vn -0.8281 0.5599 -0.0271
vn -0.9712 -0.1054 0.2137
vn -0.6719 -0.0217 -0.7403
vn -0.1918 -0.4166 -0.8886
vn -0.1788 0.0728 -0.9812
vn 0.0545 -0.5267 0.8483
vn 0.5110 -0.7996 -0.3153
vn 0.2608 -0.2737 0.9258
vn -0.8281 0.5599 -0.0271
vn -0.0552 -0.6400 -0.7664
vn -0.8375 -0.5464 0.0086
vn -0.7099 0.5433 -0.4482
vn -0.7841 0.6090 0.1192
vn -0.4755 0.8781 0.0534
vn 0.0545 -0.5267 0.8483
vn 0.2608 -0.2737 0.9258
vn -0.5906 0.0869 0.8022
vn -0.8281 0.5599 -0.0271
vn -0.8375 -0.5464 0.0086
vn -0.0366 -0.5419 0.8397
vn -0.2543 0.4144 0.8739
vn -0.7841 0.6090 0.1192
vn -0.5906 0.0869 0.8022
vn -0.6719 -0.0217 -0.7403
vn -0.7841 0.6090 0.1192
vn -0.7099 0.5433 -0.4482
vn 0.7514 -0.6516 -0.1040
vn 0.0545 -0.5267 0.8483
vn -0.8105 -0.5723 0.1246
vn -0.1788 0.0728 -0.9812
vn -0.7841 0.6090 0.1192
vn -0.6719 -0.0217 -0.7403
vn -0.5906 0.0869 0.8022
vn -0.7841 0.6090 0.1192
vn -0.9741 0.2184 -0.0579
vn -0.1788 0.0728 -0.9812
vn -0.9741 0.2184 -0.0579
vn -0.7841 0.6090 0.1192
vn -0.1788 0.0728 -0.9812
vn -0.1210 -0.6280 -0.7687
vn -0.9741 0.2184 -0.0579
vn -0.8105 -0.5723 0.1246
vn -0.1210 -0.6280 -0.7687
vn 0.7514 -0.6516 -0.1040
vn -0.1210 -0.6280 -0.7687
vn -0.8105 -0.5723 0.1246
vn -0.9741 0.2184 -0.0579
vn -0.9741 0.2184 -0.0579
vn 0.0545 -0.5267 0.8483
vn -0.5906 0.0869 0.8022
vn -0.9741 0.2184 -0.0579
vn -0.8105 -0.5723 0.1246
vn 0.0545 -0.5267 0.8483
vn 0.0000 1.0000 0.0000
vn 0.0000 1.0000 0.0000
vn 0.0000 1.0000 0.0000
vn 0.0000 1.0000 0.0000
vn 0.0000 1.0000 0.0000
vn 0.0000 1.0000 0.0000
vn 0.0000 1.0000 0.0000
vn 0.0000 1.0000 0.0000
vn 0.0000 1.0000 0.0000
vn 0.0000 1.0000 0.0000
vn 0.0000 1.0000 0.0000
vn 0.0000 1.0000 0.0000
vn 0.0000 1.0000 0.0000
vn 0.0000 1.0000 0.0000
vn 0.0000 1.0000 0.0000
vn 0.0000 1.0000 0.0000
vn 0.0000 1.0000 0.0000
vn 0.0000 1.0000 0.0000
vn 0.0000 1.0000 0.0000
vn 0.0000 1.0000 0.0000
vn 0.0000 1.0000 0.0000
vn 0.0000 1.0000 0.0000
vn 0.0000 1.0000 0.0000
vn 0.0000 1.0000 0.0000
vn 0.0000 1.0000 0.0000
vn 0.0000 1.0000 0.0000
vn 0.0000 1.0000 0.0000
vn 0.0000 1.0000 0.0000
vn 0.0000 1.0000 0.0000
vn 0.0000 1.0000 0.0000
vn 0.0000 1.0000 0.0000
vn 0.0000 1.0000 0.0000
vn 0.0000 1.0000 0.0000
vn 0.0000 1.0000 0.0000
vn 0.0000 1.0000 0.0000
vn 0.0000 1.0000 0.0000
vn 0.0000 1.0000 0.0000
vn 0.0000 1.0000 0.0000
vn 0.0000 1.0000 0.0000
vn 0.0000 1.0000 0.0000
vn 0.0000 1.0000 0.0000
vn 0.0000 1.0000 0.0000
vn 0.0000 1.0000 0.0000
vn 0.0000 1.0000 0.0000
vn 0.0000 1.0000 0.0000
vn 0.0000 1.0000 0.0000
vn 0.0000 1.0000 0.0000
vn 0.0000 1.0000 0.0000
vn 0.0000 1.0000 0.0000
vn 0.0000 1.0000 0.0000
vn 0.0000 1.0000 0.0000
vn 0.0000 1.0000 0.0000
vn 0.0000 1.0000 0.0000
vn 0.0000 1.0000 0.0000
vn 0.0000 1.0000 0.0000
f 1/1/1 2/2/2 3/3/3
f 4/4/4 5/5/5 6/6/6
f 7/7/7 8/8/8 9/9/9
f 10/10/10 11/11/11 12/12/12
f 13/13/13 14/14/14 15/15/15
f 16/16/16 17/17/17 18/18/18
f 19/19/19 20/20/20 21/21/21
f 22/22/22 23/23/23 24/24/24
f 25/25/25 26/26/26 27/27/27
f 28/28/28 29/29/29 30/30/30
f 31/31/31 32/32/32 33/33/33
f 34/34/34 35/35/35 36/36/36
f 37/37/37 38/38/38 39/39/39
f 40/40/40 41/41/41 42/42/42
f 43/43/43 44/44/44 45/45/45
f 46/46/46 47/47/47 48/48/48
f 49/49/49 50/50/50 51/51/51
f 52/52/52 53/53/53 54/54/54
f 55/55/55 56/56/56 57/57/57
f 58/58/58 59/59/59 60/60/60
f 61/61/61 62/62/62 63/63/63
f 64/64/64 65/65/65 66/66/66
f 67/67/67 68/68/68 69/69/69
f 70/70/70 71/71/71 72/72/72
f 73/73/73 74/74/74 75/75/75
f 76/76/76 77/77/77 78/78/78
f 79/79/79 80/80/80 81/81/81
f 82/82/82 83/83/83 84/84/84
f 85/85/85 86/86/86 87/87/87
f 88/88/88 89/89/89 90/90/90
f 91/91/91 92/92/92 93/93/93
f 94/94/94 95/95/95 96/96/96
f 97/97/97 98/98/98 99/99/99
f 100/100/100 101/101/101 102/102/102
f 103/103/103 104/104/104 105/105/105
f 106/106/106 107/107/107 108/108/108
f 109/109/109 110/110/110 111/111/111
f 112/112/112 113/113/113 114/114/114
f 115/115/115 116/116/116 117/117/117
f 118/118/118 119/119/119 120/120/120
f 121/121/121 122/122/122 123/123/123
f 124/124/124 125/125/125 126/126/126
f 127/127/127 128/128/128 129/129/129
f 130/130/130 131/131/131 132/132/132
f 133/133/133 134/134/134 135/135/135
f 136/136/136 137/137/137 138/138/138
f 139/139/139 140/140/140 141/141/141
f 142/142/142 143/143/143 144/144/144
f 145/145/145 146/146/146 147/147/147
f 148/148/148 149/149/149 150/150/150
f 151/151/151 152/152/152 153/153/153
f 154/154/154 155/155/155 156/156/156
f 157/157/157 158/158/158 159/159/159
f 160/160/160 161/161/161 162/162/162
f 163/163/163 164/164/164 165/165/165
f 166/166/166 167/167/167 168/168/168
f 169/169/169 170/170/170 171/171/171
f 172/172/172 173/173/173 174/174/174
f 175/175/175 176/176/176 177/177/177
f 178/178/178 179/179/179 180/180/180
f 181/181/181 182/182/182 183/183/183
f 184/184/184 185/185/185 186/186/186
f 187/187/187 188/188/188 189/189/189
f 190/190/190 191/191/191 192/192/192
f 193/193/193 194/194/194 195/195/195
f 196/196/196 197/197/197 198/198/198
f 199/199/199 200/200/200 201/201/201
f 202/202/202 203/203/203 204/204/204
f 205/205/205 206/206/206 207/207/207
f 208/208/208 209/209/209 210/210/210
f 211/211/211 212/212/212 213/213/213
f 214/214/214 215/215/215 216/216/216
f 217/217/217 218/218/218 219/219/219
f 220/220/220 221/221/221 222/222/222
f 223/223/223 224/224/224 225/225/225
f 226/226/226 227/227/227 228/228/228
f 229/229/229 230/230/230 231/231/231
f 232/232/232 233/233/233 234/234/234
f 235/235/235 236/236/236 237/237/237
f 238/238/238 239/239/239 240/240/240
f 241/241/241 242/242/242 243/243/243
f 244/244/244 245/245/245 246/246/246
f 247/247/247 248/248/248 249/249/249
f 250/250/250 251/251/251 252/252/252
f 253/253/253 254/254/254 255/255/255
f 256/256/256 257/257/257 258/258/258
f 259/259/259 260/260/260 261/261/261
f 262/262/262 263/263/263 264/264/264
f 265/265/265 266/266/266 267/267/267
f 268/268/268 269/269/269 270/270/270
f 271/271/271 272/272/272 273/273/273
f 274/274/274 275/275/275 276/276/276
f 277/277/277 278/278/278 279/279/279
f 280/280/280 281/281/281 282/282/282
f 283/283/283 284/284/284 285/285/285
f 286/286/286 287/287/287 288/288/288
f 289/289/289 290/290/290 291/291/291
f 292/292/292 293/293/293 294/294/294
f 295/295/295 296/296/296 297/297/297
f 298/298/298 299/299/299 300/300/300
f 301/301/301 302/302/302 303/303/303
f 304/304/304 305/305/305 306/306/306
f 307/307/307 308/308/308 309/309/309
f 310/310/310 311/311/311 312/312/312
f 313/313/313 314/314/314 315/315/315
f 316/316/316 317/317/317 318/318/318
f 319/319/319 320/320/320 321/321/321
f 322/322/322 323/323/323 324/324/324
f 325/325/325 326/326/326 327/327/327
f 328/328/328 329/329/329 330/330/330
f 331/331/331 332/332/332 333/333/333
f 334/334/334 335/335/335 336/336/336
f 337/337/337 338/338/338 339/339/339
f 340/340/340 341/341/341 342/342/342
f 343/343/343 344/344/344 345/345/345
f 346/346/346 347/347/347 348/348/348
f 349/349/349 350/350/350 351/351/351
f 352/352/352 353/353/353 354/354/354
f 355/355/355 356/356/356 357/357/357
f 358/358/358 359/359/359 360/360/360
f 361/361/361 362/362/362 363/363/363
f 364/364/364 365/365/365 366/366/366
f 367/367/367 368/368/368 369/369/369
f 370/370/370 371/371/371 372/372/372
f 373/373/373 374/374/374 375/375/375
f 376/376/376 377/377/377 378/378/378
f 379/379/379 380/380/380 381/381/381
f 382/382/382 383/383/383 384/384/384
f 385/385/385 386/386/386 387/387/387
f 388/388/388 389/389/389 390/390/390
f 391/391/391 392/392/392 393/393/393
f 394/394/394 395/395/395 396/396/396
f 397/397/397 398/398/398 399/399/399
f 400/400/400 401/401/401 402/402/402
f 403/403/403 404/404/404 405/405/405
f 406/406/406 407/407/407 408/408/408
f 409/409/409 410/410/410 411/411/411
f 412/412/412 413/413/413 414/414/414
f 415/415/415 416/416/416 417/417/417
f 418/418/418 419/419/419 420/420/420
f 421/421/421 422/422/422 423/423/423
f 424/424/424 425/425/425 426/426/426
f 427/427/427 428/428/428 429/429/429
f 430/430/430 431/431/431 432/432/432
f 433/433/433 434/434/434 435/435/435
f 436/436/436 437/437/437 438/438/438
f 439/439/439 440/440/440 441/441/441
f 442/442/442 443/443/443 444/444/444
f 445/445/445 446/446/446 447/447/447
f 448/448/448 449/449/449 450/450/450
f 451/451/451 452/452/452 453/453/453
f 454/454/454 455/455/455 456/456/456
f 457/457/457 458/458/458 459/459/459
f 460/460/460 461/461/461 462/462/462
f 463/463/463 464/464/464 465/465/465
f 466/466/466 467/467/467 468/468/468
f 469/469/469 470/470/470 471/471/471
f 472/472/472 473/473/473 474/474/474
f 475/475/475 476/476/476 477/477/477
f 478/478/478 479/479/479 480/480/480
f 481/481/481 482/482/482 483/483/483
f 484/484/484 485/485/485 486/486/486
f 487/487/487 488/488/488 489/489/489
f 490/490/490 491/491/491 492/492/492
f 493/493/493 494/494/494 495/495/495
f 496/496/496 497/497/497 498/498/498
f 499/499/499 500/500/500 501/501/501
f 502/502/502 503/503/503 504/504/504
f 505/505/505 506/506/506 507/507/507
f 508/508/508 509/509/509 510/510/510
f 511/511/511 512/512/512 513/513/513
f 514/514/514 515/515/515 516/516/516
f 517/517/517 518/518/518 519/519/519
f 520/520/520 521/521/521 522/522/522
f 523/523/523 524/524/524 525/525/525
f 526/526/526 527/527/527 528/528/528
f 529/529/529 530/530/530 531/531/531
f 532/532/532 533/533/533 534/534/534
f 535/535/535 536/536/536 537/537/537
f 538/538/538 539/539/539 540/540/540
f 541/541/541 542/542/542 543/543/543
f 544/544/544 545/545/545 546/546/546
f 547/547/547 548/548/548 549/549/549
f 550/550/550 551/551/551 552/552/552
f 553/553/553 554/554/554 555/555/555
f 556/556/556 557/557/557 558/558/558
f 559/559/559 560/560/560 561/561/561
f 562/562/562 563/563/563 564/564/564
f 565/565/565 566/566/566 567/567/567
f 568/568/568 569/569/569 570/570/570
f 571/571/571 572/572/572 573/573/573
f 574/574/574 575/575/575 576/576/576
f 577/577/577 578/578/578 579/579/579
f 580/580/580 581/581/581 582/582/582
f 583/583/583 584/584/584 585/585/585
f 586/586/586 587/587/587 588/588/588
f 589/589/589 590/590/590 591/591/591
f 592/592/592 593/593/593 594/594/594
f 595/595/595 596/596/596 597/597/597
f 598/598/598 599/599/599 600/600/600
f 601/601/601 602/602/602 603/603/603
f 604/604/604 605/605/605 606/606/606
f 607/607/607 608/608/608 609/609/609
f 610/610/610 611/611/611 612/612/612
f 613/613/613 614/614/614 615/615/615
f 616/616/616 617/617/617 618/618/618
f 619/619/619 620/620/620 621/621/621
f 622/622/622 623/623/623 624/624/624
f 625/625/625 626/626/626 627/627/627
f 628/628/628 629/629/629 630/630/630
f 631/631/631 632/632/632 633/633/633
f 634/634/634 635/635/635 636/636/636
f 637/637/637 638/638/638 639/639/639
f 640/640/640 641/641/641 642/642/642
f 643/643/643 644/644/644 645/645/645
f 646/646/646 647/647/647 648/648/648
f 649/649/649 650/650/650 651/651/651
f 652/652/652 653/653/653 654/654/654
f 655/655/655 656/656/656 657/657/657
f 658/658/658 659/659/659 660/660/660
f 661/661/661 662/662/662 663/663/663
f 664/664/664 665/665/665 666/666/666
f 667/667/667 668/668/668 669/669/669
f 670/670/670 671/671/671 672/672/672
f 673/673/673 674/674/674 675/675/675
f 676/676/676 677/677/677 678/678/678
f 679/679/679 680/680/680 681/681/681
f 682/682/682 683/683/683 684/684/684
f 685/685/685 686/686/686 687/687/687
f 688/688/688 689/689/689 690/690/690
f 691/691/691 692/692/692 693/693/693
f 694/694/694 695/695/695 696/696/696
f 697/697/697 698/698/698 699/699/699
f 700/700/700 701/701/701 702/702/702
f 703/703/703 704/704/704 705/705/705
f 706/706/706 707/707/707 708/708/708
f 709/709/709 710/710/710 711/711/711
f 712/712/712 713/713/713 714/714/714
f 715/715/715 716/716/716 717/717/717
f 718/718/718 719/719/719 720/720/720
f 721/721/721 722/722/722 723/723/723
f 724/724/724 725/725/725 726/726/726
f 727/727/727 728/728/728 729/729/729
f 730/730/730 731/731/731 732/732/732
f 733/733/733 734/734/734 735/735/735
f 736/736/736 737/737/737 738/738/738
f 739/739/739 740/740/740 741/741/741
f 742/742/742 743/743/743 744/744/744
f 745/745/745 746/746/746 747/747/747
f 748/748/748 749/749/749 750/750/750
f 751/751/751 752/752/752 753/753/753
f 754/754/754 755/755/755 756/756/756
f 757/757/757 758/758/758 759/759/759
f 760/760/760 761/761/761 762/762/762
f 763/763/763 764/764/764 765/765/765
f 766/766/766 767/767/767 768/768/768
f 769/769/769 770/770/770 771/771/771
f 772/772/772 773/773/773 774/774/774
f 775/775/775 776/776/776 777/777/777
f 778/778/778 779/779/779 780/780/780
f 781/781/781 782/782/782 783/783/783
f 784/784/784 785/785/785 786/786/786
f 787/787/787 788/788/788 789/789/789
f 790/790/790 791/791/791 792/792/792
f 793/793/793 794/794/794 795/795/795
f 796/796/796 797/797/797 798/798/798
f 799/799/799 800/800/800 801/801/801
f 802/802/802 803/803/803 804/804/804
f 805/805/805 806/806/806 807/807/807
f 808/808/808 809/809/809 810/810/810
f 811/811/811 812/812/812 813/813/813
f 814/814/814 815/815/815 816/816/816
f 817/817/817 818/818/818 819/819/819
f 820/820/820 821/821/821 822/822/822
f 823/823/823 824/824/824 825/825/825
f 826/826/826 827/827/827 828/828/828
f 829/829/829 830/830/830 831/831/831
f 832/832/832 833/833/833 834/834/834
f 835/835/835 836/836/836 837/837/837
f 838/838/838 839/839/839 840/840/840
f 841/841/841 842/842/842 843/843/843
f 844/844/844 845/845/845 846/846/846
f 847/847/847 848/848/848 849/849/849
f 850/850/850 851/851/851 852/852/852
f 853/853/853 854/854/854 855/855/855
f 856/856/856 857/857/857 858/858/858
f 859/859/859 860/860/860 861/861/861
f 862/862/862 863/863/863 864/864/864
f 865/865/865 866/866/866 867/867/867
f 868/868/868 869/869/869 870/870/870
f 871/871/871 872/872/872 873/873/873
f 874/874/874 875/875/875 876/876/876
f 877/877/877 878/878/878 879/879/879
f 880/880/880 881/881/881 882/882/882
f 883/883/883 884/884/884 885/885/885
f 886/886/886 887/887/887 888/888/888
f 889/889/889 890/890/890 891/891/891
f 892/892/892 893/893/893 894/894/894
f 895/895/895 896/896/896 897/897/897
f 898/898/898 899/899/899 900/900/900
f 901/901/901 902/902/902 903/903/903
f 904/904/904 905/905/905 906/906/906
f 907/907/907 908/908/908 909/909/909
f 910/910/910 911/911/911 912/912/912
f 913/913/913 914/914/914 915/915/915
f 916/916/916 917/917/917 918/918/918
f 919/919/919 920/920/920 921/921/921
f 922/922/922 923/923/923 924/924/924
f 925/925/925 926/926/926 927/927/927
f 928/928/928 929/929/929 930/930/930
f 931/931/931 932/932/932 933/933/933
f 934/934/934 935/935/935 936/936/936
f 937/937/937 938/938/938 939/939/939
f 940/940/940 941/941/941 942/942/942
f 943/943/943 944/944/944 945/945/945
f 946/946/946 947/947/947 948/948/948
f 949/949/949 950/950/950 951/951/951
f 952/952/952 953/953/953 954/954/954
f 955/955/955 956/956/956 957/957/957
f 958/958/958 959/959/959 960/960/960
f 961/961/961 962/962/962 963/963/963
f 964/964/964 965/965/965 966/966/966
f 967/967/967 968/968/968 969/969/969
f 970/970/970 971/971/971 972/972/972
f 973/973/973 974/974/974 975/975/975
f 976/976/976 977/977/977 978/978/978
f 979/979/979 980/980/980 981/981/981
f 982/982/982 983/983/983 984/984/984
f 985/985/985 986/986/986 987/987/987
f 988/988/988 989/989/989 990/990/990
f 991/991/991 992/992/992 993/993/993
f 994/994/994 995/995/995 996/996/996
f 997/997/997 998/998/998 999/999/999
f 1000/1000/1000 1001/1001/1001 1002/1002/1002
f 1003/1003/1003 1004/1004/1004 1005/1005/1005
f 1006/1006/1006 1007/1007/1007 1008/1008/1008
f 1009/1009/1009 1010/1010/1010 1011/1011/1011
f 1012/1012/1012 1013/1013/1013 1014/1014/1014
f 1015/1015/1015 1016/1016/1016 1017/1017/1017
f 1018/1018/1018 1019/1019/1019 1020/1020/1020
f 1021/1021/1021 1022/1022/1022 1023/1023/1023
f 1024/1024/1024 1025/1025/1025 1026/1026/1026
f 1027/1027/1027 1028/1028/1028 1029/1029/1029
f 1027/1027/1027 1029/1029/1029 1028/1028/1028
f 1027/1027/1027 1029/1029/1029 1030/1030/1030
f 1027/1027/1027 1030/1030/1030 1029/1029/1029
f 1027/1027/1027 1030/1030/1030 1031/1031/1031
f 1027/1027/1027 1031/1031/1031 1030/1030/1030
f 1027/1027/1027 1031/1031/1031 1032/1032/1032
f 1027/1027/1027 1032/1032/1032 1031/1031/1031
f 1027/1027/1027 1032/1032/1032 1033/1033/1033
f 1027/1027/1027 1033/1033/1033 1032/1032/1032
f 1027/1027/1027 1033/1033/1033 1034/1034/1034
f 1027/1027/1027 1034/1034/1034 1033/1033/1033
f 1027/1027/1027 1034/1034/1034 1035/1035/1035
f 1027/1027/1027 1035/1035/1035 1034/1034/1034
f 1027/1027/1027 1035/1035/1035 1036/1036/1036
f 1027/1027/1027 1036/1036/1036 1035/1035/1035
f 1027/1027/1027 1036/1036/1036 1037/1037/1037
f 1027/1027/1027 1037/1037/1037 1036/1036/1036
f 1027/1027/1027 1037/1037/1037 1038/1038/1038
f 1027/1027/1027 1038/1038/1038 1037/1037/1037
f 1027/1027/1027 1038/1038/1038 1039/1039/1039
f 1027/1027/1027 1039/1039/1039 1038/1038/1038
f 1027/1027/1027 1039/1039/1039 1040/1040/1040
f 1027/1027/1027 1040/1040/1040 1039/1039/1039
f 1027/1027/1027 1040/1040/1040 1041/1041/1041
f 1027/1027/1027 1041/1041/1041 1040/1040/1040
f 1027/1027/1027 1041/1041/1041 1042/1042/1042
f 1027/1027/1027 1042/1042/1042 1041/1041/1041
f 1027/1027/1027 1042/1042/1042 1043/1043/1043
f 1027/1027/1027 1043/1043/1043 1042/1042/1042
f 1027/1027/1027 1043/1043/1043 1044/1044/1044
f 1027/1027/1027 1044/1044/1044 1043/1043/1043
f 1027/1027/1027 1044/1044/1044 1045/1045/1045
f 1027/1027/1027 1045/1045/1045 1044/1044/1044
f 1027/1027/1027 1045/1045/1045 1046/1046/1046
f 1027/1027/1027 1046/1046/1046 1045/1045/1045
f 1027/1027/1027 1046/1046/1046 1047/1047/1047
f 1027/1027/1027 1047/1047/1047 1046/1046/1046
f 1027/1027/1027 1047/1047/1047 1048/1048/1048
f 1027/1027/1027 1048/1048/1048 1047/1047/1047
f 1027/1027/1027 1048/1048/1048 1049/1049/1049
f 1027/1027/1027 1049/1049/1049 1048/1048/1048
f 1027/1027/1027 1049/1049/1049 1050/1050/1050
f 1027/1027/1027 1050/1050/1050 1049/1049/1049
f 1027/1027/1027 1050/1050/1050 1051/1051/1051
f 1027/1027/1027 1051/1051/1051 1050/1050/1050
f 1027/1027/1027 1051/1051/1051 1052/1052/1052
f 1027/1027/1027 1052/1052/1052 1051/1051/1051
f 1027/1027/1027 1052/1052/1052 1053/1053/1053
f 1027/1027/1027 1053/1053/1053 1052/1052/1052
f 1027/1027/1027 1053/1053/1053 1054/1054/1054
f 1027/1027/1027 1054/1054/1054 1053/1053/1053
f 1027/1027/1027 1054/1054/1054 1055/1055/1055
f 1027/1027/1027 1055/1055/1055 1054/1054/1054
f 1027/1027/1027 1055/1055/1055 1056/1056/1056
f 1027/1027/1027 1056/1056/1056 1055/1055/1055
f 1027/1027/1027 1056/1056/1056 1057/1057/1057
f 1027/1027/1027 1057/1057/1057 1056/1056/1056
f 1027/1027/1027 1057/1057/1057 1058/1058/1058
f 1027/1027/1027 1058/1058/1058 1057/1057/1057
f 1027/1027/1027 1058/1058/1058 1059/1059/1059
f 1027/1027/1027 1059/1059/1059 1058/1058/1058
f 1027/1027/1027 1059/1059/1059 1060/1060/1060
f 1027/1027/1027 1060/1060/1060 1059/1059/1059
f 1027/1027/1027 1060/1060/1060 1061/1061/1061
f 1027/1027/1027 1061/1061/1061 1060/1060/1060
f 1027/1027/1027 1061/1061/1061 1062/1062/1062
f 1027/1027/1027 1062/1062/1062 1061/1061/1061
f 1027/1027/1027 1062/1062/1062 1063/1063/1063
f 1027/1027/1027 1063/1063/1063 1062/1062/1062
f 1027/1027/1027 1063/1063/1063 1064/1064/1064
f 1027/1027/1027 1064/1064/1064 1063/1063/1063
f 1027/1027/1027 1064/1064/1064 1065/1065/1065
f 1027/1027/1027 1065/1065/1065 1064/1064/1064
f 1027/1027/1027 1065/1065/1065 1066/1066/1066
f 1027/1027/1027 1066/1066/1066 1065/1065/1065
f 1027/1027/1027 1066/1066/1066 1067/1067/1067
f 1027/1027/1027 1067/1067/1067 1066/1066/1066
f 1027/1027/1027 1067/1067/1067 1068/1068/1068
f 1027/1027/1027 1068/1068/1068 1067/1067/1067
f 1027/1027/1027 1068/1068/1068 1069/1069/1069
f 1027/1027/1027 1069/1069/1069 1068/1068/1068
f 1027/1027/1027 1069/1069/1069 1070/1070/1070
f 1027/1027/1027 1070/1070/1070 1069/1069/1069
f 1027/1027/1027 1070/1070/1070 1071/1071/1071
f 1027/1027/1027 1071/1071/1071 1070/1070/1070
f 1027/1027/1027 1071/1071/1071 1072/1072/1072
f 1027/1027/1027 1072/1072/1072 1071/1071/1071
f 1027/1027/1027 1072/1072/1072 1073/1073/1073
f 1027/1027/1027 1073/1073/1073 1072/1072/1072
f 1027/1027/1027 1073/1073/1073 1074/1074/1074
f 1027/1027/1027 1074/1074/1074 1073/1073/1073
f 1027/1027/1027 1074/1074/1074 1075/1075/1075
f 1027/1027/1027 1075/1075/1075 1074/1074/1074
f 1027/1027/1027 1075/1075/1075 1076/1076/1076
f 1027/1027/1027 1076/1076/1076 1075/1075/1075
f 1027/1027/1027 1076/1076/1076 1077/1077/1077
f 1027/1027/1027 1077/1077/1077 1076/1076/1076
f 1027/1027/1027 1077/1077/1077 1078/1078/1078
f 1027/1027/1027 1078/1078/1078 1077/1077/1077
f 1027/1027/1027 1078/1078/1078 1079/1079/1079
f 1027/1027/1027 1079/1079/1079 1078/1078/1078
f 1027/1027/1027 1079/1079/1079 1080/1080/1080
f 1027/1027/1027 1080/1080/1080 1079/1079/1079
f 1027/1027/1027 1080/1080/1080 1081/1081/1081
f 1027/1027/1027 1081/1081/1081 1080/1080/1080
f 1027/1027/1027 1081/1081/1081 1028/1028/1028
f 1027/1027/1027 1028/1028/1028 1081/1081/1081
