o tail_3
v -0.01998 0.00463 0.16643
v -0.01989 0.02041 0.16555
v -0.02251 0.01831 0.16564
v -0.02056 0.01053 0.17417
v -0.02175 0.01876 0.18097
v -0.02319 0.00971 0.17370
v -0.02056 0.01053 0.17417
v -0.02174 0.01844 0.17044
v -0.02175 0.01876 0.18097
v -0.01998 0.00463 0.16643
v -0.02251 0.01831 0.16564
v -0.02287 0.00757 0.16668
v -0.02175 0.01876 0.18097
v -0.02174 0.01844 0.17044
v -0.02177 0.02256 0.17350
v -0.02288 0.03163 0.18232
v -0.02175 0.01876 0.18097
v -0.02177 0.02256 0.17350
v -0.02288 0.03163 0.18232
v -0.02210 0.02604 0.18579
v -0.02175 0.01876 0.18097
v -0.02174 0.01844 0.17044
v -0.02056 0.01053 0.17417
v -0.02319 0.00971 0.17370
v -0.03128 0.00500 0.16552
v -0.01998 0.00463 0.16643
v -0.02287 0.00757 0.16668
v -0.03643 0.02513 0.18451
v -0.02175 0.01876 0.18097
v -0.02210 0.02604 0.18579
v -0.02272 0.03914 0.19605
v -0.02331 0.04196 0.19047
v -0.02271 0.05047 0.20130
v -0.02319 0.00971 0.17370
v -0.02287 0.00757 0.16668
v -0.02251 0.01831 0.16564
v -0.02338 0.05980 0.20009
v -0.02379 0.05810 0.20484
v -0.02271 0.05047 0.20130
v -0.02319 0.00971 0.17370
v -0.02251 0.01831 0.16564
v -0.02174 0.01844 0.17044
v -0.02269 0.02771 0.19023
v -0.02341 0.03184 0.18582
v -0.02331 0.04196 0.19047
v -0.02272 0.03914 0.19605
v -0.02269 0.02771 0.19023
v -0.02331 0.04196 0.19047
v -0.02338 0.05980 0.20009
v -0.02271 0.05047 0.20130
v -0.02331 0.04196 0.19047
v -0.02379 0.05810 0.20484
v -0.02338 0.05980 0.20009
v -0.02443 0.05881 0.20298
v -0.02379 0.05810 0.20484
v -0.02387 0.07138 0.20295
v -0.02366 0.06010 0.24663
v -0.02352 0.07290 0.24642
v -0.02366 0.06010 0.24663
v -0.02387 0.07138 0.20295
v -0.02341 0.03184 0.18582
v -0.02269 0.02771 0.19023
v -0.02594 0.02859 0.18696
v -0.03402 0.02637 0.18501
v -0.02210 0.02604 0.18579
v -0.02657 0.02729 0.18564
v -0.02341 0.03184 0.18582
v -0.03429 0.03042 0.18325
v -0.02331 0.04196 0.19047
v -0.03402 0.02637 0.18501
v -0.03643 0.02513 0.18451
v -0.02210 0.02604 0.18579
v -0.02210 0.02604 0.18579
v -0.02288 0.03163 0.18232
v -0.02625 0.03036 0.18360
v -0.02366 0.06010 0.24663
v -0.02556 0.06712 0.24718
v -0.02442 0.05996 0.24738
v -0.02366 0.06010 0.24663
v -0.02352 0.07290 0.24642
v -0.02556 0.06712 0.24718
v -0.02443 0.05881 0.20298
v -0.02387 0.07138 0.20295
v -0.02379 0.05810 0.20484
v -0.02425 0.05516 0.26508
v -0.02483 0.05699 0.24717
v -0.02442 0.05996 0.24738
v -0.02425 0.05516 0.26508
v -0.02442 0.05996 0.24738
v -0.02454 0.06847 0.26295
v -0.02379 0.05810 0.20484
v -0.03726 0.04461 0.19805
v -0.02271 0.05047 0.20130
v -0.02352 0.07290 0.24642
v -0.02387 0.07138 0.20295
v -0.03823 0.07155 0.20304
v -0.02657 0.02729 0.18564
v -0.02210 0.02604 0.18579
v -0.02625 0.03036 0.18360
v -0.02489 0.06991 0.24888
v -0.02454 0.06847 0.26295
v -0.02442 0.05996 0.24738
v -0.02489 0.06991 0.24888
v -0.02442 0.05996 0.24738
v -0.02556 0.06712 0.24718
v -0.03101 0.02067 0.16431
v -0.02251 0.01831 0.16564
v -0.01989 0.02041 0.16555
v -0.02269 0.02771 0.19023
v -0.03658 0.02745 0.18987
v -0.02594 0.02859 0.18696
v -0.03726 0.04461 0.19805
v -0.02272 0.03914 0.19605
v -0.02271 0.05047 0.20130
v -0.02331 0.04196 0.19047
v -0.03753 0.05951 0.19972
v -0.02338 0.05980 0.20009
v -0.02338 0.05980 0.20009
v -0.03709 0.05982 0.20091
v -0.02443 0.05881 0.20298
v -0.02425 0.05516 0.26508
v -0.02454 0.06847 0.26295
v -0.03150 0.05470 0.26494
v -0.02338 0.05980 0.20009
v -0.03753 0.05951 0.19972
v -0.03709 0.05982 0.20091
v -0.03317 0.01828 0.16419
v -0.02251 0.01831 0.16564
v -0.03101 0.02067 0.16431
v -0.03729 0.05663 0.24718
v -0.02483 0.05699 0.24717
v -0.02425 0.05516 0.26508
v -0.02594 0.02859 0.18696
v -0.02657 0.02729 0.18564
v -0.02341 0.03184 0.18582
v -0.02288 0.03163 0.18232
v -0.03694 0.03116 0.18156
v -0.02625 0.03036 0.18360
v -0.02454 0.06847 0.26295
v -0.03753 0.05580 0.26448
v -0.03150 0.05470 0.26494
v -0.02454 0.06847 0.26295
v -0.02489 0.06991 0.24888
v -0.03755 0.06819 0.26275
v -0.02625 0.03036 0.18360
v -0.02341 0.03184 0.18582
v -0.02657 0.02729 0.18564
v -0.03689 0.04315 0.19080
v -0.02331 0.04196 0.19047
v -0.03429 0.03042 0.18325
v -0.02489 0.06991 0.24888
v -0.02556 0.06712 0.24718
v -0.03149 0.06956 0.24712
v -0.02366 0.06010 0.24663
v -0.02442 0.05996 0.24738
v -0.02864 0.06012 0.24720
v -0.02387 0.07138 0.20295
v -0.02443 0.05881 0.20298
v -0.03823 0.07155 0.20304
v -0.03354 0.01884 0.16980
v -0.02177 0.02256 0.17350
v -0.02174 0.01844 0.17044
v -0.02319 0.00971 0.17370
v -0.02175 0.01876 0.18097
v -0.03643 0.02513 0.18451
v -0.02657 0.02729 0.18564
v -0.02594 0.02859 0.18696
v -0.03402 0.02637 0.18501
v -0.03729 0.05663 0.24718
v -0.02442 0.05996 0.24738
v -0.02483 0.05699 0.24717
v -0.03736 0.05990 0.24725
v -0.02379 0.05810 0.20484
v -0.02366 0.06010 0.24663
v -0.02341 0.03184 0.18582
v -0.02625 0.03036 0.18360
v -0.03429 0.03042 0.18325
v -0.03253 0.00684 0.16520
v -0.02287 0.00757 0.16668
v -0.02319 0.00971 0.17370
v -0.03729 0.05663 0.24718
v -0.02864 0.06012 0.24720
v -0.02442 0.05996 0.24738
v -0.03150 0.05470 0.26494
v -0.03168 0.05427 0.26200
v -0.02425 0.05516 0.26508
v -0.02269 0.02771 0.19023
v -0.02272 0.03914 0.19605
v -0.03726 0.04461 0.19805
v -0.03729 0.05663 0.24718
v -0.02425 0.05516 0.26508
v -0.03168 0.05427 0.26200
v -0.02936 0.03262 0.27000
v -0.02897 0.03145 0.26063
v -0.02882 0.05246 0.26045
v -0.02936 0.03262 0.27000
v -0.02882 0.05246 0.26045
v -0.02918 0.05268 0.26940
v -0.02177 0.02256 0.17350
v -0.03637 0.02104 0.17195
v -0.02288 0.03163 0.18232
v -0.02352 0.07290 0.24642
v -0.03149 0.06956 0.24712
v -0.02556 0.06712 0.24718
v -0.03128 0.00500 0.16552
v -0.02287 0.00757 0.16668
v -0.03253 0.00684 0.16520
v -0.03306 0.00940 0.17307
v -0.03253 0.00684 0.16520
v -0.02319 0.00971 0.17370
v -0.02319 0.00971 0.17370
v -0.03572 0.00924 0.17395
v -0.03306 0.00940 0.17307
v -0.02936 0.03262 0.27000
v -0.03909 0.03143 0.25766
v -0.02897 0.03145 0.26063
v -0.02918 0.05268 0.26940
v -0.02882 0.05246 0.26045
v -0.03150 0.05470 0.26494
v -0.03736 0.05990 0.24725
v -0.03796 0.05807 0.20450
v -0.02379 0.05810 0.20484
v -0.03128 0.00500 0.16552
v -0.03726 0.00507 0.16385
v -0.01998 0.00463 0.16643
v -0.03354 0.01884 0.16980
v -0.03637 0.02104 0.17195
v -0.02177 0.02256 0.17350
v -0.02174 0.01844 0.17044
v -0.03317 0.01828 0.16419
v -0.03354 0.01884 0.16980
v -0.02594 0.02859 0.18696
v -0.03658 0.02745 0.18987
v -0.03488 0.02813 0.18817
v -0.02936 0.03262 0.27000
v -0.04155 0.03232 0.26972
v -0.03909 0.03143 0.25766
v -0.03780 0.07335 0.24624
v -0.03149 0.06956 0.24712
v -0.02352 0.07290 0.24642
v -0.02882 0.05246 0.26045
v -0.03168 0.05427 0.26200
v -0.03150 0.05470 0.26494
v -0.03755 0.06819 0.26275
v -0.02489 0.06991 0.24888
v -0.03733 0.06995 0.24897
v -0.03149 0.06956 0.24712
v -0.03733 0.06995 0.24897
v -0.02489 0.06991 0.24888
v -0.02594 0.02859 0.18696
v -0.03488 0.02813 0.18817
v -0.03402 0.02637 0.18501
v -0.02352 0.07290 0.24642
v -0.03821 0.07231 0.22486
v -0.03780 0.07335 0.24624
v -0.02882 0.05246 0.26045
v -0.03640 0.05383 0.26249
v -0.03168 0.05427 0.26200
v -0.02882 0.05246 0.26045
v -0.02897 0.03145 0.26063
v -0.03940 0.05243 0.25762
v -0.02454 0.06847 0.26295
v -0.03755 0.06819 0.26275
v -0.03753 0.05580 0.26448
v -0.02251 0.01831 0.16564
v -0.03317 0.01828 0.16419
v -0.02174 0.01844 0.17044
v -0.02918 0.05268 0.26940
v -0.03569 0.05358 0.26658
v -0.04151 0.05300 0.26905
v -0.02918 0.05268 0.26940
v -0.03150 0.05470 0.26494
v -0.03569 0.05358 0.26658
v -0.03306 0.00940 0.17307
v -0.03317 0.01828 0.16419
v -0.03253 0.00684 0.16520
v -0.03317 0.01828 0.16419
v -0.03306 0.00940 0.17307
v -0.03354 0.01884 0.16980
v -0.02625 0.03036 0.18360
v -0.03694 0.03116 0.18156
v -0.03429 0.03042 0.18325
v -0.03253 0.00684 0.16520
v -0.03317 0.01828 0.16419
v -0.03694 0.02070 0.16291
v -0.02882 0.05246 0.26045
v -0.03940 0.05243 0.25762
v -0.03640 0.05383 0.26249
v -0.03306 0.00940 0.17307
v -0.03643 0.01743 0.17000
v -0.03354 0.01884 0.16980
v -0.03729 0.05663 0.24718
v -0.03168 0.05427 0.26200
v -0.03640 0.05383 0.26249
v -0.03149 0.06956 0.24712
v -0.03314 0.06456 0.24738
v -0.03733 0.06995 0.24897
v -0.03821 0.07231 0.22486
v -0.02352 0.07290 0.24642
v -0.03823 0.07155 0.20304
v -0.03306 0.00940 0.17307
v -0.03572 0.00924 0.17395
v -0.03643 0.01743 0.17000
v -0.02366 0.06010 0.24663
v -0.02864 0.06012 0.24720
v -0.03736 0.05990 0.24725
v -0.03657 0.03147 0.18559
v -0.03689 0.04315 0.19080
v -0.03429 0.03042 0.18325
v -0.03429 0.03042 0.18325
v -0.03402 0.02637 0.18501
v -0.03488 0.02813 0.18817
v -0.03694 0.02070 0.16291
v -0.03317 0.01828 0.16419
v -0.03101 0.02067 0.16431
v -0.03729 0.05663 0.24718
v -0.03736 0.05990 0.24725
v -0.02864 0.06012 0.24720
v -0.03402 0.02637 0.18501
v -0.03429 0.03042 0.18325
v -0.03643 0.02513 0.18451
v -0.02269 0.02771 0.19023
v -0.03726 0.04461 0.19805
v -0.03658 0.02745 0.18987
v -0.03694 0.02070 0.16291
v -0.03726 0.00507 0.16385
v -0.03253 0.00684 0.16520
v -0.03572 0.00924 0.17395
v -0.02319 0.00971 0.17370
v -0.03643 0.02513 0.18451
v -0.02936 0.03262 0.27000
v -0.02918 0.05268 0.26940
v -0.04155 0.03232 0.26972
v -0.03569 0.05358 0.26658
v -0.03150 0.05470 0.26494
v -0.03753 0.05580 0.26448
v -0.03736 0.05990 0.24725
v -0.03733 0.06995 0.24897
v -0.03314 0.06456 0.24738
v -0.03429 0.03042 0.18325
v -0.03488 0.02813 0.18817
v -0.03658 0.02745 0.18987
v -0.03128 0.00500 0.16552
v -0.03253 0.00684 0.16520
v -0.03726 0.00507 0.16385
v -0.03354 0.01884 0.16980
v -0.03643 0.01743 0.17000
v -0.03637 0.02104 0.17195
v -0.03760 0.05840 0.20328
v -0.02443 0.05881 0.20298
v -0.03709 0.05982 0.20091
v -0.02288 0.03163 0.18232
v -0.03637 0.02104 0.17195
v -0.03694 0.03116 0.18156
v -0.03909 0.03143 0.25766
v -0.03940 0.05243 0.25762
v -0.02897 0.03145 0.26063
v -0.03429 0.03042 0.18325
v -0.03658 0.02745 0.18987
v -0.03657 0.03147 0.18559
v -0.03429 0.03042 0.18325
v -0.03694 0.03116 0.18156
v -0.03643 0.02513 0.18451
v -0.02331 0.04196 0.19047
v -0.03689 0.04315 0.19080
v -0.03753 0.05951 0.19972
v -0.02379 0.05810 0.20484
v -0.03796 0.05807 0.20450
v -0.03726 0.04461 0.19805
v -0.03643 0.02513 0.18451
v -0.03643 0.01743 0.17000
v -0.03572 0.00924 0.17395
v -0.03753 0.05580 0.26448
v -0.03640 0.05383 0.26249
v -0.03569 0.05358 0.26658
v -0.03643 0.01743 0.17000
v -0.03643 0.02513 0.18451
v -0.03637 0.02104 0.17195
v -0.03780 0.07335 0.24624
v -0.03314 0.06456 0.24738
v -0.03149 0.06956 0.24712
v -0.03726 0.04461 0.19805
v -0.03657 0.03147 0.18559
v -0.03658 0.02745 0.18987
v -0.03726 0.04461 0.19805
v -0.03689 0.04315 0.19080
v -0.03657 0.03147 0.18559
v -0.03640 0.05383 0.26249
v -0.03753 0.05580 0.26448
v -0.03729 0.05663 0.24718
v -0.03736 0.05990 0.24725
v -0.03314 0.06456 0.24738
v -0.03780 0.07335 0.24624
v -0.03760 0.05840 0.20328
v -0.03796 0.05807 0.20450
v -0.03823 0.07155 0.20304
v -0.03640 0.05383 0.26249
v -0.03940 0.05243 0.25762
v -0.03569 0.05358 0.26658
v -0.03637 0.02104 0.17195
v -0.03643 0.02513 0.18451
v -0.03694 0.03116 0.18156
v -0.03753 0.05951 0.19972
v -0.03689 0.04315 0.19080
v -0.03726 0.04461 0.19805
v -0.03709 0.05982 0.20091
v -0.03753 0.05951 0.19972
v -0.03760 0.05840 0.20328
v -0.03760 0.05840 0.20328
v -0.03823 0.07155 0.20304
v -0.02443 0.05881 0.20298
v -0.03753 0.05951 0.19972
v -0.03796 0.05807 0.20450
v -0.03760 0.05840 0.20328
v -0.03753 0.05951 0.19972
v -0.03726 0.04461 0.19805
v -0.03796 0.05807 0.20450
v -0.03755 0.06819 0.26275
v -0.03729 0.05663 0.24718
v -0.03753 0.05580 0.26448
v -0.03736 0.05990 0.24725
v -0.03729 0.05663 0.24718
v -0.03755 0.06819 0.26275
v -0.03736 0.05990 0.24725
v -0.03755 0.06819 0.26275
v -0.03733 0.06995 0.24897
v -0.03796 0.05807 0.20450
v -0.03736 0.05990 0.24725
v -0.03834 0.06091 0.24638
v -0.03823 0.07155 0.20304
v -0.03796 0.05807 0.20450
v -0.03834 0.06091 0.24638
v -0.03780 0.07335 0.24624
v -0.03821 0.07231 0.22486
v -0.03834 0.06091 0.24638
v -0.03834 0.06091 0.24638
v -0.03736 0.05990 0.24725
v -0.03780 0.07335 0.24624
v -0.03823 0.07155 0.20304
v -0.03834 0.06091 0.24638
v -0.03821 0.07231 0.22486
v -0.03940 0.05243 0.25762
v -0.04151 0.05300 0.26905
v -0.03569 0.05358 0.26658
v -0.03940 0.05243 0.25762
v -0.03909 0.03143 0.25766
v -0.04151 0.05300 0.26905
v -0.04151 0.05300 0.26905
v -0.03909 0.03143 0.25766
v -0.04155 0.03232 0.26972
v -0.04155 0.03232 0.26972
v -0.02918 0.05268 0.26940
v -0.04151 0.05300 0.26905
v -0.02902 0.01430 0.16461
v -0.01998 0.00463 0.16643
v -0.01989 0.02041 0.16555
v -0.03101 0.02067 0.16431
v -0.03694 0.02070 0.16291
v -0.03726 0.00507 0.16385
vt 0.68069 0.74036
vt 0.69369 0.73645
vt 0.69407 0.74191
vt 0.94225 0.24154
vt 0.94318 0.23093
vt 0.94488 0.24240
vt 0.94016 0.34987
vt 0.94880 0.35121
vt 0.94327 0.36006
vt 0.68069 0.74036
vt 0.69407 0.74191
vt 0.68317 0.74414
vt 0.94327 0.36006
vt 0.94880 0.35121
vt 0.95050 0.35599
vt 0.95315 0.36830
vt 0.94327 0.36006
vt 0.95050 0.35599
vt 0.95315 0.36830
vt 0.94659 0.36805
vt 0.94327 0.36006
vt 0.98605 0.85823
vt 0.99479 0.85869
vt 0.99482 0.86145
vt 0.67410 0.74539
vt 0.68069 0.74036
vt 0.68317 0.74414
vt 0.95760 0.22347
vt 0.94318 0.23093
vt 0.94337 0.22228
vt 0.49447 0.89196
vt 0.49447 0.89818
vt 0.48210 0.89238
vt 0.35189 0.99526
vt 0.35047 0.98813
vt 0.36116 0.98813
vt 0.47440 0.89766
vt 0.47371 0.89269
vt 0.48210 0.89238
vt 0.35189 0.99526
vt 0.36116 0.98813
vt 0.36094 0.99295
vt 0.50717 0.89198
vt 0.50549 0.89777
vt 0.49447 0.89818
vt 0.49447 0.89196
vt 0.50717 0.89198
vt 0.49447 0.89818
vt 0.47440 0.89766
vt 0.48210 0.89238
vt 0.49447 0.89818
vt 0.22266 0.00555
vt 0.22288 0.01056
vt 0.22195 0.00750
vt 0.71804 0.81159
vt 0.71920 0.82482
vt 0.67660 0.81132
vt 0.67612 0.82399
vt 0.67660 0.81132
vt 0.71920 0.82482
vt 0.97844 0.99210
vt 0.98331 0.99564
vt 0.97871 0.99633
vt 0.95520 0.22216
vt 0.94337 0.22228
vt 0.94782 0.22111
vt 0.05150 0.46247
vt 0.04957 0.45149
vt 0.06252 0.46298
vt 0.95520 0.22216
vt 0.95760 0.22347
vt 0.94337 0.22228
vt 0.97388 0.93528
vt 0.98032 0.93652
vt 0.97834 0.93975
vt 0.97681 0.25719
vt 0.98275 0.26131
vt 0.97631 0.25813
vt 0.97681 0.25719
vt 0.98886 0.26115
vt 0.98275 0.26131
vt 0.71996 0.81238
vt 0.71920 0.82482
vt 0.71804 0.81159
vt 0.01949 0.97776
vt 0.00165 0.97729
vt 0.00165 0.97431
vt 0.01949 0.97776
vt 0.00165 0.97431
vt 0.01640 0.96477
vt 0.77645 0.86853
vt 0.76204 0.88248
vt 0.76808 0.86780
vt 0.88617 0.03180
vt 0.88611 0.07489
vt 0.87188 0.07489
vt 0.97467 0.93981
vt 0.97388 0.93528
vt 0.97834 0.93975
vt 0.00240 0.96436
vt 0.01640 0.96477
vt 0.00165 0.97431
vt 0.99649 0.70756
vt 0.99649 0.69758
vt 0.99798 0.70460
vt 0.70281 0.74068
vt 0.69407 0.74191
vt 0.69369 0.73645
vt 0.64485 0.97650
vt 0.65862 0.97651
vt 0.64814 0.97979
vt 0.76204 0.88248
vt 0.75572 0.86831
vt 0.76808 0.86780
vt 0.06252 0.46298
vt 0.08280 0.44981
vt 0.08258 0.46384
vt 0.22288 0.01056
vt 0.20933 0.00931
vt 0.22195 0.00750
vt 0.54251 0.97808
vt 0.55586 0.97808
vt 0.54224 0.98527
vt 0.98877 0.29847
vt 0.98877 0.31250
vt 0.98757 0.31203
vt 0.70504 0.74202
vt 0.69407 0.74191
vt 0.70281 0.74068
vt 0.24380 0.97824
vt 0.24415 0.96589
vt 0.26199 0.96589
vt 0.16551 0.99005
vt 0.16413 0.99142
vt 0.16449 0.98593
vt 0.98032 0.93652
vt 0.97974 0.95047
vt 0.97834 0.93975
vt 0.55586 0.97808
vt 0.54352 0.99122
vt 0.54224 0.98527
vt 0.37687 0.01499
vt 0.36286 0.01499
vt 0.37640 0.00212
vt 0.33499 0.99401
vt 0.33252 0.99696
vt 0.33234 0.99147
vt 0.06433 0.44960
vt 0.06252 0.46298
vt 0.04957 0.45149
vt 0.19588 0.99207
vt 0.19919 0.99207
vt 0.19838 0.99837
vt 0.88393 0.39675
vt 0.88315 0.39748
vt 0.87898 0.39711
vt 0.62738 0.97581
vt 0.62630 0.98822
vt 0.61318 0.97504
vt 0.34749 0.96073
vt 0.33578 0.96581
vt 0.33577 0.96073
vt 0.94488 0.24240
vt 0.94318 0.23093
vt 0.95760 0.22347
vt 0.99543 0.87309
vt 0.99380 0.87415
vt 0.99466 0.86567
vt 0.95585 0.97093
vt 0.95879 0.98377
vt 0.95585 0.98329
vt 0.87035 0.39678
vt 0.88556 0.35535
vt 0.88393 0.39675
vt 0.08132 0.99199
vt 0.07798 0.99392
vt 0.07017 0.99233
vt 0.98808 0.79799
vt 0.97845 0.79680
vt 0.97845 0.78952
vt 0.95585 0.97093
vt 0.95907 0.97960
vt 0.95879 0.98377
vt 0.26181 0.97309
vt 0.25888 0.97328
vt 0.26199 0.96589
vt 0.74303 0.86881
vt 0.75572 0.86831
vt 0.76204 0.88248
vt 0.24380 0.97824
vt 0.26199 0.96589
vt 0.25888 0.97328
vt 0.22311 0.96263
vt 0.22203 0.95333
vt 0.24285 0.95333
vt 0.22311 0.96263
vt 0.24285 0.95333
vt 0.24299 0.96219
vt 0.33578 0.96581
vt 0.35025 0.96380
vt 0.33675 0.97836
vt 0.98886 0.26115
vt 0.98325 0.26764
vt 0.98275 0.26131
vt 0.67410 0.74539
vt 0.68317 0.74414
vt 0.67347 0.74668
vt 0.98825 0.78978
vt 0.98808 0.79799
vt 0.97845 0.78952
vt 0.97845 0.78952
vt 0.99085 0.78882
vt 0.98825 0.78978
vt 0.98626 0.68927
vt 0.98990 0.67409
vt 0.99383 0.68377
vt 0.00840 0.20945
vt 0.00348 0.21682
vt 0.00333 0.21119
vt 0.87035 0.39678
vt 0.87156 0.35441
vt 0.88556 0.35535
vt 0.11365 0.95551
vt 0.11288 0.96161
vt 0.11288 0.94430
vt 0.34749 0.96073
vt 0.35025 0.96380
vt 0.33578 0.96581
vt 0.90466 0.99529
vt 0.89906 0.98366
vt 0.90466 0.98357
vt 0.64814 0.97979
vt 0.65862 0.97651
vt 0.65697 0.97835
vt 0.98626 0.68927
vt 0.97899 0.67962
vt 0.98990 0.67409
vt 0.98502 0.27477
vt 0.98325 0.26764
vt 0.98886 0.26115
vt 0.00348 0.21682
vt 0.00166 0.21362
vt 0.00333 0.21119
vt 0.37640 0.00212
vt 0.36286 0.01499
vt 0.36265 0.00266
vt 0.36092 0.00850
vt 0.36265 0.00266
vt 0.36286 0.01499
vt 0.99380 0.87415
vt 0.99098 0.86566
vt 0.99466 0.86567
vt 0.88617 0.03180
vt 0.87176 0.05326
vt 0.87203 0.03206
vt 0.30049 0.04572
vt 0.30049 0.03782
vt 0.30193 0.04232
vt 0.28146 0.95331
vt 0.30227 0.95331
vt 0.28154 0.96416
vt 0.55586 0.97808
vt 0.55590 0.99096
vt 0.54352 0.99122
vt 0.89995 0.99427
vt 0.89906 0.98366
vt 0.90466 0.99529
vt 0.73617 0.94933
vt 0.73532 0.95577
vt 0.72946 0.95996
vt 0.73617 0.94933
vt 0.73808 0.95356
vt 0.73532 0.95577
vt 0.99433 0.76105
vt 0.98554 0.76987
vt 0.98652 0.75851
vt 0.98554 0.76987
vt 0.99433 0.76105
vt 0.99111 0.77043
vt 0.97834 0.93975
vt 0.97974 0.95047
vt 0.97811 0.94772
vt 0.71687 0.74493
vt 0.70504 0.74202
vt 0.70781 0.73675
vt 0.98199 0.83009
vt 0.99284 0.83009
vt 0.98872 0.83422
vt 0.99560 0.31901
vt 0.99808 0.32782
vt 0.99508 0.32891
vt 0.24380 0.97824
vt 0.25888 0.97328
vt 0.25924 0.97799
vt 0.98888 0.99575
vt 0.98385 0.99440
vt 0.98892 0.98966
vt 0.87176 0.05326
vt 0.88617 0.03180
vt 0.87188 0.07489
vt 0.99560 0.31901
vt 0.99837 0.31880
vt 0.99808 0.32782
vt 0.88393 0.39675
vt 0.87898 0.39711
vt 0.87035 0.39678
vt 0.24912 0.98636
vt 0.23665 0.98416
vt 0.25153 0.98395
vt 0.89967 0.00209
vt 0.89967 0.00647
vt 0.89601 0.00607
vt 0.70781 0.73675
vt 0.70504 0.74202
vt 0.70281 0.74068
vt 0.95585 0.97093
vt 0.95910 0.97096
vt 0.95907 0.97960
vt 0.27117 0.99343
vt 0.27117 0.99781
vt 0.26855 0.99264
vt 0.74303 0.86881
vt 0.76204 0.88248
vt 0.74320 0.88258
vt 0.70781 0.73675
vt 0.72160 0.74299
vt 0.71687 0.74493
vt 0.95730 0.24238
vt 0.94488 0.24240
vt 0.95760 0.22347
vt 0.95877 0.97012
vt 0.93889 0.97012
vt 0.95917 0.95805
vt 0.73532 0.95577
vt 0.73808 0.95356
vt 0.73789 0.95732
vt 0.97887 0.99064
vt 0.98892 0.98966
vt 0.98385 0.99440
vt 0.65649 0.98374
vt 0.65697 0.97835
vt 0.65862 0.97651
vt 0.71700 0.74720
vt 0.71687 0.74493
vt 0.72160 0.74299
vt 0.34749 0.96073
vt 0.35052 0.95974
vt 0.35025 0.96380
vt 0.20893 0.00655
vt 0.22195 0.00750
vt 0.20933 0.00931
vt 0.33675 0.97836
vt 0.35025 0.96380
vt 0.35069 0.97762
vt 0.30234 0.96375
vt 0.28154 0.96416
vt 0.30227 0.95331
vt 0.27097 0.01189
vt 0.27330 0.00472
vt 0.27407 0.01049
vt 0.27117 0.99781
vt 0.26834 0.99931
vt 0.26855 0.99264
vt 0.06252 0.46298
vt 0.06433 0.44960
vt 0.08280 0.44981
vt 0.77645 0.86853
vt 0.77685 0.88256
vt 0.76204 0.88248
vt 0.64609 0.94111
vt 0.65368 0.95551
vt 0.64586 0.96003
vt 0.45851 0.96548
vt 0.46023 0.96793
vt 0.45611 0.96808
vt 0.65368 0.95551
vt 0.64609 0.94111
vt 0.65409 0.95147
vt 0.98502 0.27477
vt 0.97803 0.26774
vt 0.98325 0.26764
vt 0.04615 0.43055
vt 0.04143 0.41324
vt 0.04706 0.41173
vt 0.04615 0.43055
vt 0.04051 0.42587
vt 0.04143 0.41324
vt 0.46023 0.96793
vt 0.45851 0.96548
vt 0.47563 0.96672
vt 0.97239 0.27039
vt 0.97803 0.26774
vt 0.98502 0.27477
vt 0.84264 0.80127
vt 0.84389 0.80094
vt 0.84277 0.81432
vt 0.87931 0.99661
vt 0.88505 0.99762
vt 0.87539 0.99786
vt 0.65409 0.95147
vt 0.64609 0.94111
vt 0.65188 0.93781
vt 0.04063 0.44434
vt 0.04051 0.42587
vt 0.04615 0.43055
vt 0.99908 0.19592
vt 0.99991 0.19493
vt 0.99977 0.19862
vt 0.61325 0.98808
vt 0.61318 0.97504
vt 0.62630 0.98822
vt 0.99937 0.16461
vt 0.99937 0.16957
vt 0.99912 0.16829
vt 0.04063 0.44434
vt 0.04615 0.43055
vt 0.04548 0.44534
vt 0.46167 0.95351
vt 0.47563 0.96672
vt 0.45851 0.96548
vt 0.47594 0.96349
vt 0.47563 0.96672
vt 0.46167 0.95351
vt 0.47594 0.96349
vt 0.46167 0.95351
vt 0.47543 0.95341
vt 0.50962 0.00851
vt 0.46723 0.00851
vt 0.46806 0.00709
vt 0.84277 0.81432
vt 0.84389 0.80094
vt 0.88543 0.80273
vt 0.88560 0.81507
vt 0.86440 0.81454
vt 0.88543 0.80273
vt 0.57961 0.99006
vt 0.58066 0.99132
vt 0.56730 0.99085
vt 0.84277 0.81432
vt 0.88543 0.80273
vt 0.86440 0.81454
vt 0.73785 0.96914
vt 0.72946 0.95996
vt 0.73532 0.95577
vt 0.95703 0.77977
vt 0.95703 0.80058
vt 0.94552 0.77919
vt 0.94552 0.77919
vt 0.95703 0.80058
vt 0.94484 0.79968
vt 0.95917 0.95805
vt 0.93889 0.97012
vt 0.93867 0.95791
vt 0.82286 0.95152
vt 0.82286 0.95152
vt 0.82286 0.95152
vt 0.82286 0.95152
vt 0.82286 0.95152
vt 0.82286 0.95152
vn 0.5193 -0.5590 0.6464
vn 0.5176 0.6009 0.6091
vn 0.2396 0.4212 0.8747
vn 0.7233 -0.6901 -0.0263
vn 0.6824 -0.3926 0.6166
vn 0.4169 -0.8353 0.3585
vn 0.7233 -0.6901 -0.0263
vn 0.8320 0.4004 -0.3841
vn 0.6824 -0.3926 0.6166
vn 0.5193 -0.5590 0.6464
vn 0.2396 0.4212 0.8747
vn 0.2891 -0.3171 0.9033
vn 0.6824 -0.3926 0.6166
vn 0.8320 0.4004 -0.3841
vn 0.7055 0.4892 -0.5128
vn 0.5343 0.8432 0.0591
vn 0.6824 -0.3926 0.6166
vn 0.7055 0.4892 -0.5128
vn 0.5343 0.8432 0.0591
vn 0.6401 -0.0161 0.7682
vn 0.6824 -0.3926 0.6166
vn 0.8320 0.4004 -0.3841
vn 0.7233 -0.6901 -0.0263
vn 0.4169 -0.8353 0.3585
vn -0.1543 -0.6403 0.7525
vn 0.5193 -0.5590 0.6464
vn 0.2891 -0.3171 0.9033
vn -0.6667 -0.1770 0.7241
vn 0.6824 -0.3926 0.6166
vn 0.6401 -0.0161 0.7682
vn 0.7210 -0.3053 0.6221
vn 0.6831 0.3452 -0.6436
vn 0.7380 -0.2651 0.6206
vn 0.4169 -0.8353 0.3585
vn 0.2891 -0.3171 0.9033
vn 0.2396 0.4212 0.8747
vn 0.5867 0.7609 -0.2770
vn 0.8640 -0.3899 0.3184
vn 0.7380 -0.2651 0.6206
vn 0.4169 -0.8353 0.3585
vn 0.2396 0.4212 0.8747
vn 0.8320 0.4004 -0.3841
vn 0.6414 -0.7330 0.2267
vn 0.7382 0.0427 -0.6733
vn 0.6831 0.3452 -0.6436
vn 0.7210 -0.3053 0.6221
vn 0.6414 -0.7330 0.2267
vn 0.6831 0.3452 -0.6436
vn 0.5867 0.7609 -0.2770
vn 0.7380 -0.2651 0.6206
vn 0.6831 0.3452 -0.6436
vn 0.8640 -0.3899 0.3184
vn 0.5867 0.7609 -0.2770
vn 0.4216 0.8911 -0.1680
vn 0.8640 -0.3899 0.3184
vn 0.5786 0.5614 -0.5916
vn 0.7326 -0.5868 0.3448
vn 0.6028 0.6028 0.5228
vn 0.7326 -0.5868 0.3448
vn 0.5786 0.5614 -0.5916
vn 0.7382 0.0427 -0.6733
vn 0.6414 -0.7330 0.2267
vn 0.4394 -0.8959 -0.0665
vn -0.3778 -0.2935 0.8781
vn 0.6401 -0.0161 0.7682
vn 0.2120 -0.2906 0.9331
vn 0.7382 0.0427 -0.6733
vn -0.5836 0.8115 0.0303
vn 0.6831 0.3452 -0.6436
vn -0.3778 -0.2935 0.8781
vn -0.6667 -0.1770 0.7241
vn 0.6401 -0.0161 0.7682
vn 0.6401 -0.0161 0.7682
vn 0.5343 0.8432 0.0591
vn 0.2737 0.9366 0.2187
vn 0.7326 -0.5868 0.3448
vn 0.8698 0.3147 0.3801
vn 0.8753 -0.4351 -0.2110
vn 0.7326 -0.5868 0.3448
vn 0.6028 0.6028 0.5228
vn 0.8698 0.3147 0.3801
vn 0.4216 0.8911 -0.1680
vn 0.5786 0.5614 -0.5916
vn 0.8640 -0.3899 0.3184
vn 0.5984 -0.5270 0.6035
vn 0.5319 -0.5493 -0.6445
vn 0.8753 -0.4351 -0.2110
vn 0.5984 -0.5270 0.6035
vn 0.8753 -0.4351 -0.2110
vn 0.5764 0.5973 0.5576
vn 0.8640 -0.3899 0.3184
vn -0.7303 -0.3158 0.6057
vn 0.7380 -0.2651 0.6206
vn 0.6028 0.6028 0.5228
vn 0.5786 0.5614 -0.5916
vn -0.5828 0.5615 -0.5875
vn 0.2120 -0.2906 0.9331
vn 0.6401 -0.0161 0.7682
vn 0.2737 0.9366 0.2187
vn 0.6236 0.7100 -0.3273
vn 0.5764 0.5973 0.5576
vn 0.8753 -0.4351 -0.2110
vn 0.6236 0.7100 -0.3273
vn 0.8753 -0.4351 -0.2110
vn 0.8698 0.3147 0.3801
vn -0.0966 0.7353 0.6709
vn 0.2396 0.4212 0.8747
vn 0.5176 0.6009 0.6091
vn 0.6414 -0.7330 0.2267
vn -0.5881 -0.7684 0.2525
vn 0.4394 -0.8959 -0.0665
vn -0.7303 -0.3158 0.6057
vn 0.7210 -0.3053 0.6221
vn 0.7380 -0.2651 0.6206
vn 0.6831 0.3452 -0.6436
vn -0.6239 0.6295 -0.4631
vn 0.5867 0.7609 -0.2770
vn 0.5867 0.7609 -0.2770
vn -0.3696 0.9167 0.1517
vn 0.4216 0.8911 -0.1680
vn 0.5984 -0.5270 0.6035
vn 0.5764 0.5973 0.5576
vn 0.2818 0.5199 0.8064
vn 0.5867 0.7609 -0.2770
vn -0.6239 0.6295 -0.4631
vn -0.3696 0.9167 0.1517
vn -0.4860 0.3424 0.8041
vn 0.2396 0.4212 0.8747
vn -0.0966 0.7353 0.6709
vn -0.5641 -0.5425 -0.6225
vn 0.5319 -0.5493 -0.6445
vn 0.5984 -0.5270 0.6035
vn 0.4394 -0.8959 -0.0665
vn 0.2120 -0.2906 0.9331
vn 0.7382 0.0427 -0.6733
vn 0.5343 0.8432 0.0591
vn -0.6549 0.7557 0.0052
vn 0.2737 0.9366 0.2187
vn 0.5764 0.5973 0.5576
vn -0.8005 -0.0786 0.5942
vn 0.2818 0.5199 0.8064
vn 0.5764 0.5973 0.5576
vn 0.6236 0.7100 -0.3273
vn -0.6050 0.5703 0.5557
vn 0.2737 0.9366 0.2187
vn 0.7382 0.0427 -0.6733
vn 0.2120 -0.2906 0.9331
vn -0.6880 0.3374 -0.6426
vn 0.6831 0.3452 -0.6436
vn -0.5836 0.8115 0.0303
vn 0.6236 0.7100 -0.3273
vn 0.8698 0.3147 0.3801
vn -0.0991 0.8127 0.5742
vn 0.7326 -0.5868 0.3448
vn 0.8753 -0.4351 -0.2110
vn 0.0441 -0.8216 -0.5683
vn 0.5786 0.5614 -0.5916
vn 0.4216 0.8911 -0.1680
vn -0.5828 0.5615 -0.5875
vn -0.3520 0.5782 -0.7361
vn 0.7055 0.4892 -0.5128
vn 0.8320 0.4004 -0.3841
vn 0.4169 -0.8353 0.3585
vn 0.6824 -0.3926 0.6166
vn -0.6667 -0.1770 0.7241
vn 0.2120 -0.2906 0.9331
vn 0.4394 -0.8959 -0.0665
vn -0.3778 -0.2935 0.8781
vn -0.5641 -0.5425 -0.6225
vn 0.8753 -0.4351 -0.2110
vn 0.5319 -0.5493 -0.6445
vn -0.8960 -0.4157 -0.1561
vn 0.8640 -0.3899 0.3184
vn 0.7326 -0.5868 0.3448
vn 0.7382 0.0427 -0.6733
vn 0.2737 0.9366 0.2187
vn -0.5836 0.8115 0.0303
vn -0.4412 -0.2332 0.8666
vn 0.2891 -0.3171 0.9033
vn 0.4169 -0.8353 0.3585
vn -0.5641 -0.5425 -0.6225
vn 0.0441 -0.8216 -0.5683
vn 0.8753 -0.4351 -0.2110
vn 0.2818 0.5199 0.8064
vn 0.3484 -0.4345 -0.8306
vn 0.5984 -0.5270 0.6035
vn 0.6414 -0.7330 0.2267
vn 0.7210 -0.3053 0.6221
vn -0.7303 -0.3158 0.6057
vn -0.5641 -0.5425 -0.6225
vn 0.5984 -0.5270 0.6035
vn 0.3484 -0.4345 -0.8306
vn 0.5611 -0.5338 0.6326
vn 0.6401 -0.6351 -0.4324
vn 0.7109 0.4333 -0.5540
vn 0.5611 -0.5338 0.6326
vn 0.7109 0.4333 -0.5540
vn 0.5955 0.4798 0.6443
vn 0.7055 0.4892 -0.5128
vn -0.6918 0.4688 -0.5492
vn 0.5343 0.8432 0.0591
vn 0.6028 0.6028 0.5228
vn -0.0991 0.8127 0.5742
vn 0.8698 0.3147 0.3801
vn -0.1543 -0.6403 0.7525
vn 0.2891 -0.3171 0.9033
vn -0.4412 -0.2332 0.8666
vn -0.3191 -0.9191 -0.2311
vn -0.4412 -0.2332 0.8666
vn 0.4169 -0.8353 0.3585
vn 0.4169 -0.8353 0.3585
vn -0.5785 -0.8149 0.0354
vn -0.3191 -0.9191 -0.2311
vn 0.5611 -0.5338 0.6326
vn -0.4171 -0.6055 -0.6778
vn 0.6401 -0.6351 -0.4324
vn 0.5955 0.4798 0.6443
vn 0.7109 0.4333 -0.5540
vn 0.2818 0.5199 0.8064
vn -0.8960 -0.4157 -0.1561
vn -0.8712 -0.4441 0.2092
vn 0.8640 -0.3899 0.3184
vn -0.1543 -0.6403 0.7525
vn -0.6870 -0.5203 0.5073
vn 0.5193 -0.5590 0.6464
vn -0.3520 0.5782 -0.7361
vn -0.6918 0.4688 -0.5492
vn 0.7055 0.4892 -0.5128
vn 0.8320 0.4004 -0.3841
vn -0.4860 0.3424 0.8041
vn -0.3520 0.5782 -0.7361
vn 0.4394 -0.8959 -0.0665
vn -0.5881 -0.7684 0.2525
vn -0.1567 -0.9540 -0.2555
vn 0.5611 -0.5338 0.6326
vn -0.6415 -0.5461 0.5387
vn -0.4171 -0.6055 -0.6778
vn -0.5655 0.6391 0.5213
vn -0.0991 0.8127 0.5742
vn 0.6028 0.6028 0.5228
vn 0.7109 0.4333 -0.5540
vn 0.3484 -0.4345 -0.8306
vn 0.2818 0.5199 0.8064
vn -0.6050 0.5703 0.5557
vn 0.6236 0.7100 -0.3273
vn -0.6287 0.6562 -0.4174
vn -0.0991 0.8127 0.5742
vn -0.6287 0.6562 -0.4174
vn 0.6236 0.7100 -0.3273
vn 0.4394 -0.8959 -0.0665
vn -0.1567 -0.9540 -0.2555
vn -0.3778 -0.2935 0.8781
vn 0.6028 0.6028 0.5228
vn -0.6995 0.7142 -0.0241
vn -0.5655 0.6391 0.5213
vn 0.7109 0.4333 -0.5540
vn -0.9651 0.2073 -0.1599
vn 0.3484 -0.4345 -0.8306
vn 0.7109 0.4333 -0.5540
vn 0.6401 -0.6351 -0.4324
vn -0.4628 0.5059 -0.7279
vn 0.5764 0.5973 0.5576
vn -0.6050 0.5703 0.5557
vn -0.8005 -0.0786 0.5942
vn 0.2396 0.4212 0.8747
vn -0.4860 0.3424 0.8041
vn 0.8320 0.4004 -0.3841
vn 0.5955 0.4798 0.6443
vn -0.1506 0.9202 0.3613
vn -0.6558 0.5616 0.5045
vn 0.5955 0.4798 0.6443
vn 0.2818 0.5199 0.8064
vn -0.1506 0.9202 0.3613
vn -0.3191 -0.9191 -0.2311
vn -0.4860 0.3424 0.8041
vn -0.4412 -0.2332 0.8666
vn -0.4860 0.3424 0.8041
vn -0.3191 -0.9191 -0.2311
vn -0.3520 0.5782 -0.7361
vn 0.2737 0.9366 0.2187
vn -0.6549 0.7557 0.0052
vn -0.5836 0.8115 0.0303
vn -0.4412 -0.2332 0.8666
vn -0.4860 0.3424 0.8041
vn -0.6513 0.6118 0.4488
vn 0.7109 0.4333 -0.5540
vn -0.4628 0.5059 -0.7279
vn -0.9651 0.2073 -0.1599
vn -0.3191 -0.9191 -0.2311
vn -0.6622 -0.0570 -0.7472
vn -0.3520 0.5782 -0.7361
vn -0.5641 -0.5425 -0.6225
vn 0.3484 -0.4345 -0.8306
vn -0.9651 0.2073 -0.1599
vn -0.0991 0.8127 0.5742
vn -0.8432 0.5366 0.0338
vn -0.6287 0.6562 -0.4174
vn -0.6995 0.7142 -0.0241
vn 0.6028 0.6028 0.5228
vn -0.5828 0.5615 -0.5875
vn -0.3191 -0.9191 -0.2311
vn -0.5785 -0.8149 0.0354
vn -0.6622 -0.0570 -0.7472
vn 0.7326 -0.5868 0.3448
vn 0.0441 -0.8216 -0.5683
vn -0.8960 -0.4157 -0.1561
vn -0.8718 -0.0583 -0.4864
vn -0.6880 0.3374 -0.6426
vn -0.5836 0.8115 0.0303
vn -0.5836 0.8115 0.0303
vn -0.3778 -0.2935 0.8781
vn -0.1567 -0.9540 -0.2555
vn -0.6513 0.6118 0.4488
vn -0.4860 0.3424 0.8041
vn -0.0966 0.7353 0.6709
vn -0.5641 -0.5425 -0.6225
vn -0.8960 -0.4157 -0.1561
vn 0.0441 -0.8216 -0.5683
vn -0.3778 -0.2935 0.8781
vn -0.5836 0.8115 0.0303
vn -0.6667 -0.1770 0.7241
vn 0.6414 -0.7330 0.2267
vn -0.7303 -0.3158 0.6057
vn -0.5881 -0.7684 0.2525
vn -0.6513 0.6118 0.4488
vn -0.6870 -0.5203 0.5073
vn -0.4412 -0.2332 0.8666
vn -0.5785 -0.8149 0.0354
vn 0.4169 -0.8353 0.3585
vn -0.6667 -0.1770 0.7241
vn 0.5611 -0.5338 0.6326
vn 0.5955 0.4798 0.6443
vn -0.6415 -0.5461 0.5387
vn -0.1506 0.9202 0.3613
vn 0.2818 0.5199 0.8064
vn -0.8005 -0.0786 0.5942
vn -0.8960 -0.4157 -0.1561
vn -0.6287 0.6562 -0.4174
vn -0.8432 0.5366 0.0338
vn -0.5836 0.8115 0.0303
vn -0.1567 -0.9540 -0.2555
vn -0.5881 -0.7684 0.2525
vn -0.1543 -0.6403 0.7525
vn -0.4412 -0.2332 0.8666
vn -0.6870 -0.5203 0.5073
vn -0.3520 0.5782 -0.7361
vn -0.6622 -0.0570 -0.7472
vn -0.6918 0.4688 -0.5492
vn -0.3638 0.9233 -0.1231
vn 0.4216 0.8911 -0.1680
vn -0.3696 0.9167 0.1517
vn 0.5343 0.8432 0.0591
vn -0.6918 0.4688 -0.5492
vn -0.6549 0.7557 0.0052
vn -0.4171 -0.6055 -0.6778
vn -0.4628 0.5059 -0.7279
vn 0.6401 -0.6351 -0.4324
vn -0.5836 0.8115 0.0303
vn -0.5881 -0.7684 0.2525
vn -0.8718 -0.0583 -0.4864
vn -0.5836 0.8115 0.0303
vn -0.6549 0.7557 0.0052
vn -0.6667 -0.1770 0.7241
vn 0.6831 0.3452 -0.6436
vn -0.6880 0.3374 -0.6426
vn -0.6239 0.6295 -0.4631
vn 0.8640 -0.3899 0.3184
vn -0.8712 -0.4441 0.2092
vn -0.7303 -0.3158 0.6057
vn -0.6667 -0.1770 0.7241
vn -0.6622 -0.0570 -0.7472
vn -0.5785 -0.8149 0.0354
vn -0.8005 -0.0786 0.5942
vn -0.9651 0.2073 -0.1599
vn -0.1506 0.9202 0.3613
vn -0.6622 -0.0570 -0.7472
vn -0.6667 -0.1770 0.7241
vn -0.6918 0.4688 -0.5492
vn -0.5655 0.6391 0.5213
vn -0.8432 0.5366 0.0338
vn -0.0991 0.8127 0.5742
vn -0.7303 -0.3158 0.6057
vn -0.8718 -0.0583 -0.4864
vn -0.5881 -0.7684 0.2525
vn -0.7303 -0.3158 0.6057
vn -0.6880 0.3374 -0.6426
vn -0.8718 -0.0583 -0.4864
vn -0.9651 0.2073 -0.1599
vn -0.8005 -0.0786 0.5942
vn -0.5641 -0.5425 -0.6225
vn -0.8960 -0.4157 -0.1561
vn -0.8432 0.5366 0.0338
vn -0.5655 0.6391 0.5213
vn -0.3638 0.9233 -0.1231
vn -0.8712 -0.4441 0.2092
vn -0.5828 0.5615 -0.5875
vn -0.9651 0.2073 -0.1599
vn -0.4628 0.5059 -0.7279
vn -0.1506 0.9202 0.3613
vn -0.6918 0.4688 -0.5492
vn -0.6667 -0.1770 0.7241
vn -0.6549 0.7557 0.0052
vn -0.6239 0.6295 -0.4631
vn -0.6880 0.3374 -0.6426
vn -0.7303 -0.3158 0.6057
vn -0.3696 0.9167 0.1517
vn -0.6239 0.6295 -0.4631
vn -0.3638 0.9233 -0.1231
vn -0.3638 0.9233 -0.1231
vn -0.5828 0.5615 -0.5875
vn 0.4216 0.8911 -0.1680
vn -0.6239 0.6295 -0.4631
vn -0.8712 -0.4441 0.2092
vn -0.3638 0.9233 -0.1231
vn -0.6239 0.6295 -0.4631
vn -0.7303 -0.3158 0.6057
vn -0.8712 -0.4441 0.2092
vn -0.6050 0.5703 0.5557
vn -0.5641 -0.5425 -0.6225
vn -0.8005 -0.0786 0.5942
vn -0.8960 -0.4157 -0.1561
vn -0.5641 -0.5425 -0.6225
vn -0.6050 0.5703 0.5557
vn -0.8960 -0.4157 -0.1561
vn -0.6050 0.5703 0.5557
vn -0.6287 0.6562 -0.4174
vn -0.8712 -0.4441 0.2092
vn -0.8960 -0.4157 -0.1561
vn -0.9004 -0.2524 0.3544
vn -0.5828 0.5615 -0.5875
vn -0.8712 -0.4441 0.2092
vn -0.9004 -0.2524 0.3544
vn -0.5655 0.6391 0.5213
vn -0.6995 0.7142 -0.0241
vn -0.9004 -0.2524 0.3544
vn -0.9004 -0.2524 0.3544
vn -0.8960 -0.4157 -0.1561
vn -0.5655 0.6391 0.5213
vn -0.5828 0.5615 -0.5875
vn -0.9004 -0.2524 0.3544
vn -0.6995 0.7142 -0.0241
vn -0.4628 0.5059 -0.7279
vn -0.6558 0.5616 0.5045
vn -0.1506 0.9202 0.3613
vn -0.4628 0.5059 -0.7279
vn -0.4171 -0.6055 -0.6778
vn -0.6558 0.5616 0.5045
vn -0.6558 0.5616 0.5045
vn -0.4171 -0.6055 -0.6778
vn -0.6415 -0.5461 0.5387
vn -0.6415 -0.5461 0.5387
vn 0.5955 0.4798 0.6443
vn -0.6558 0.5616 0.5045
vn 0.0000 1.0000 0.0000
vn 0.0000 1.0000 0.0000
vn 0.0000 1.0000 0.0000
vn 0.0000 1.0000 0.0000
vn 0.0000 1.0000 0.0000
vn 0.0000 1.0000 0.0000
f 1/1/1 2/2/2 3/3/3
f 4/4/4 5/5/5 6/6/6
f 7/7/7 8/8/8 9/9/9
f 10/10/10 11/11/11 12/12/12
f 13/13/13 14/14/14 15/15/15
f 16/16/16 17/17/17 18/18/18
f 19/19/19 20/20/20 21/21/21
f 22/22/22 23/23/23 24/24/24
f 25/25/25 26/26/26 27/27/27
f 28/28/28 29/29/29 30/30/30
f 31/31/31 32/32/32 33/33/33
f 34/34/34 35/35/35 36/36/36
f 37/37/37 38/38/38 39/39/39
f 40/40/40 41/41/41 42/42/42
f 43/43/43 44/44/44 45/45/45
f 46/46/46 47/47/47 48/48/48
f 49/49/49 50/50/50 51/51/51
f 52/52/52 53/53/53 54/54/54
f 55/55/55 56/56/56 57/57/57
f 58/58/58 59/59/59 60/60/60
f 61/61/61 62/62/62 63/63/63
f 64/64/64 65/65/65 66/66/66
f 67/67/67 68/68/68 69/69/69
f 70/70/70 71/71/71 72/72/72
f 73/73/73 74/74/74 75/75/75
f 76/76/76 77/77/77 78/78/78
f 79/79/79 80/80/80 81/81/81
f 82/82/82 83/83/83 84/84/84
f 85/85/85 86/86/86 87/87/87
f 88/88/88 89/89/89 90/90/90
f 91/91/91 92/92/92 93/93/93
f 94/94/94 95/95/95 96/96/96
f 97/97/97 98/98/98 99/99/99
f 100/100/100 101/101/101 102/102/102
f 103/103/103 104/104/104 105/105/105
f 106/106/106 107/107/107 108/108/108
f 109/109/109 110/110/110 111/111/111
f 112/112/112 113/113/113 114/114/114
f 115/115/115 116/116/116 117/117/117
f 118/118/118 119/119/119 120/120/120
f 121/121/121 122/122/122 123/123/123
f 124/124/124 125/125/125 126/126/126
f 127/127/127 128/128/128 129/129/129
f 130/130/130 131/131/131 132/132/132
f 133/133/133 134/134/134 135/135/135
f 136/136/136 137/137/137 138/138/138
f 139/139/139 140/140/140 141/141/141
f 142/142/142 143/143/143 144/144/144
f 145/145/145 146/146/146 147/147/147
f 148/148/148 149/149/149 150/150/150
f 151/151/151 152/152/152 153/153/153
f 154/154/154 155/155/155 156/156/156
f 157/157/157 158/158/158 159/159/159
f 160/160/160 161/161/161 162/162/162
f 163/163/163 164/164/164 165/165/165
f 166/166/166 167/167/167 168/168/168
f 169/169/169 170/170/170 171/171/171
f 172/172/172 173/173/173 174/174/174
f 175/175/175 176/176/176 177/177/177
f 178/178/178 179/179/179 180/180/180
f 181/181/181 182/182/182 183/183/183
f 184/184/184 185/185/185 186/186/186
f 187/187/187 188/188/188 189/189/189
f 190/190/190 191/191/191 192/192/192
f 193/193/193 194/194/194 195/195/195
f 196/196/196 197/197/197 198/198/198
f 199/199/199 200/200/200 201/201/201
f 202/202/202 203/203/203 204/204/204
f 205/205/205 206/206/206 207/207/207
f 208/208/208 209/209/209 210/210/210
f 211/211/211 212/212/212 213/213/213
f 214/214/214 215/215/215 216/216/216
f 217/217/217 218/218/218 219/219/219
f 220/220/220 221/221/221 222/222/222
f 223/223/223 224/224/224 225/225/225
f 226/226/226 227/227/227 228/228/228
f 229/229/229 230/230/230 231/231/231
f 232/232/232 233/233/233 234/234/234
f 235/235/235 236/236/236 237/237/237
f 238/238/238 239/239/239 240/240/240
f 241/241/241 242/242/242 243/243/243
f 244/244/244 245/245/245 246/246/246
f 247/247/247 248/248/248 249/249/249
f 250/250/250 251/251/251 252/252/252
f 253/253/253 254/254/254 255/255/255
f 256/256/256 257/257/257 258/258/258
f 259/259/259 260/260/260 261/261/261
f 262/262/262 263/263/263 264/264/264
f 265/265/265 266/266/266 267/267/267
f 268/268/268 269/269/269 270/270/270
f 271/271/271 272/272/272 273/273/273
f 274/274/274 275/275/275 276/276/276
f 277/277/277 278/278/278 279/279/279
f 280/280/280 281/281/281 282/282/282
f 283/283/283 284/284/284 285/285/285
f 286/286/286 287/287/287 288/288/288
f 289/289/289 290/290/290 291/291/291
f 292/292/292 293/293/293 294/294/294
f 295/295/295 296/296/296 297/297/297
f 298/298/298 299/299/299 300/300/300
f 301/301/301 302/302/302 303/303/303
f 304/304/304 305/305/305 306/306/306
f 307/307/307 308/308/308 309/309/309
f 310/310/310 311/311/311 312/312/312
f 313/313/313 314/314/314 315/315/315
f 316/316/316 317/317/317 318/318/318
f 319/319/319 320/320/320 321/321/321
f 322/322/322 323/323/323 324/324/324
f 325/325/325 326/326/326 327/327/327
f 328/328/328 329/329/329 330/330/330
f 331/331/331 332/332/332 333/333/333
f 334/334/334 335/335/335 336/336/336
f 337/337/337 338/338/338 339/339/339
f 340/340/340 341/341/341 342/342/342
f 343/343/343 344/344/344 345/345/345
f 346/346/346 347/347/347 348/348/348
f 349/349/349 350/350/350 351/351/351
f 352/352/352 353/353/353 354/354/354
f 355/355/355 356/356/356 357/357/357
f 358/358/358 359/359/359 360/360/360
f 361/361/361 362/362/362 363/363/363
f 364/364/364 365/365/365 366/366/366
f 367/367/367 368/368/368 369/369/369
f 370/370/370 371/371/371 372/372/372
f 373/373/373 374/374/374 375/375/375
f 376/376/376 377/377/377 378/378/378
f 379/379/379 380/380/380 381/381/381
f 382/382/382 383/383/383 384/384/384
f 385/385/385 386/386/386 387/387/387
f 388/388/388 389/389/389 390/390/390
f 391/391/391 392/392/392 393/393/393
f 394/394/394 395/395/395 396/396/396
f 397/397/397 398/398/398 399/399/399
f 400/400/400 401/401/401 402/402/402
f 403/403/403 404/404/404 405/405/405
f 406/406/406 407/407/407 408/408/408
f 409/409/409 410/410/410 411/411/411
f 412/412/412 413/413/413 414/414/414
f 415/415/415 416/416/416 417/417/417
f 418/418/418 419/419/419 420/420/420
f 421/421/421 422/422/422 423/423/423
f 424/424/424 425/425/425 426/426/426
f 427/427/427 428/428/428 429/429/429
f 430/430/430 431/431/431 432/432/432
f 433/433/433 434/434/434 435/435/435
f 436/436/436 437/437/437 438/438/438
f 439/439/439 440/440/440 441/441/441
f 442/442/442 443/443/443 444/444/444
f 445/445/445 446/446/446 447/447/447
f 448/448/448 449/449/449 450/450/450
f 451/451/451 452/452/452 453/453/453
f 454/454/454 455/455/455 456/456/456
f 454/454/454 456/456/456 455/455/455
f 454/454/454 456/456/456 457/457/457
f 454/454/454 457/457/457 456/456/456
f 454/454/454 457/457/457 458/458/458
f 454/454/454 458/458/458 457/457/457
f 454/454/454 458/458/458 459/459/459
f 454/454/454 459/459/459 458/458/458
f 454/454/454 459/459/459 455/455/455
f 454/454/454 455/455/455 459/459/459
