o wing_right
v 0.16153 0.40741 0.01333
v 0.14928 0.39382 0.01722
v 0.15404 0.40346 0.01192
v 0.14928 0.39382 0.01722
v 0.14641 0.39941 0.01091
v 0.15404 0.40346 0.01192
v 0.16233 0.40817 0.03319
v 0.14320 0.39172 0.01563
v 0.14928 0.39382 0.01722
v 0.16915 0.43690 -0.01035
v 0.15095 0.43035 -0.01436
v 0.14197 0.42648 -0.01742
v 0.16800 0.40891 0.01192
v 0.15404 0.40346 0.01192
v 0.13829 0.39473 0.00792
v 0.15404 0.40346 0.01192
v 0.14641 0.39941 0.01091
v 0.13829 0.39473 0.00792
v 0.16915 0.43690 -0.01035
v 0.13829 0.39473 0.00792
v 0.15095 0.43035 -0.01436
v 0.14641 0.39941 0.01091
v 0.14928 0.39382 0.01722
v 0.14320 0.39172 0.01563
v 0.14641 0.39941 0.01091
v 0.14320 0.39172 0.01563
v 0.13704 0.39469 0.00947
v 0.14197 0.42648 -0.01742
v 0.15095 0.43035 -0.01436
v 0.13520 0.42346 -0.01765
v 0.13520 0.42346 -0.01765
v 0.15095 0.43035 -0.01436
v 0.13829 0.39473 0.00792
v 0.14641 0.39941 0.01091
v 0.13704 0.39469 0.00947
v 0.13829 0.39473 0.00792
v 0.14330 0.44287 -0.02862
v 0.14197 0.42648 -0.01742
v 0.12843 0.43652 -0.03131
v 0.13442 0.39846 0.02502
v 0.14320 0.39172 0.01563
v 0.16233 0.40817 0.03319
v 0.13691 0.27058 0.11008
v 0.13876 0.26534 0.11808
v 0.13751 0.25597 0.11210
v 0.13751 0.25597 0.11210
v 0.13876 0.26534 0.11808
v 0.13619 0.25350 0.11204
v 0.13815 0.26320 0.12301
v 0.13619 0.25350 0.11204
v 0.13876 0.26534 0.11808
v 0.13619 0.25350 0.11204
v 0.13815 0.26320 0.12301
v 0.13536 0.24963 0.11406
v 0.13751 0.25597 0.11210
v 0.13619 0.25350 0.11204
v 0.13624 0.24595 0.10761
v 0.13624 0.24595 0.10761
v 0.13539 0.23633 0.10140
v 0.13751 0.25597 0.11210
v 0.13536 0.24963 0.11406
v 0.13815 0.26320 0.12301
v 0.12328 0.25293 0.11628
v 0.13876 0.26534 0.11808
v 0.13691 0.27058 0.11008
v 0.13472 0.27426 0.10529
v 0.13539 0.23633 0.10140
v 0.13624 0.24595 0.10761
v 0.13394 0.24117 0.10557
v 0.13624 0.24595 0.10761
v 0.13619 0.25350 0.11204
v 0.13394 0.24117 0.10557
v 0.13691 0.27058 0.11008
v 0.13106 0.25578 0.10009
v 0.13472 0.27426 0.10529
v 0.13619 0.25350 0.11204
v 0.13536 0.24963 0.11406
v 0.13182 0.23590 0.10436
v 0.13182 0.23590 0.10436
v 0.13539 0.23633 0.10140
v 0.13394 0.24117 0.10557
v 0.13619 0.25350 0.11204
v 0.13182 0.23590 0.10436
v 0.13394 0.24117 0.10557
v 0.12812 0.24546 0.09141
v 0.13751 0.25597 0.11210
v 0.13539 0.23633 0.10140
v 0.12812 0.24546 0.09141
v 0.13539 0.23633 0.10140
v 0.13077 0.24158 0.09586
v 0.13704 0.39469 0.00947
v 0.14320 0.39172 0.01563
v 0.12674 0.38983 0.00743
v 0.13704 0.39469 0.00947
v 0.12674 0.38983 0.00743
v 0.13829 0.39473 0.00792
v 0.13829 0.39473 0.00792
v 0.12411 0.41845 -0.01983
v 0.13520 0.42346 -0.01765
v 0.13751 0.25597 0.11210
v 0.12812 0.24546 0.09141
v 0.13691 0.27058 0.11008
v 0.13442 0.39846 0.02502
v 0.14952 0.42284 0.01578
v 0.12227 0.39430 0.02121
v 0.11916 0.24019 0.10693
v 0.13182 0.23590 0.10436
v 0.13536 0.24963 0.11406
v 0.12227 0.39430 0.02121
v 0.14320 0.39172 0.01563
v 0.13442 0.39846 0.02502
v 0.13106 0.25578 0.10009
v 0.13221 0.26274 0.10007
v 0.13472 0.27426 0.10529
v 0.13691 0.27058 0.11008
v 0.12812 0.24546 0.09141
v 0.13106 0.25578 0.10009
v 0.12646 0.26611 0.12483
v 0.13815 0.26320 0.12301
v 0.13876 0.26534 0.11808
v 0.13876 0.26534 0.11808
v 0.13472 0.27426 0.10529
v 0.11242 0.28154 0.10883
v 0.13536 0.24963 0.11406
v 0.12328 0.25293 0.11628
v 0.11916 0.24019 0.10693
v 0.13221 0.26274 0.10007
v 0.12780 0.27975 0.09994
v 0.13472 0.27426 0.10529
v 0.12227 0.39430 0.02121
v 0.11876 0.38333 0.00827
v 0.14320 0.39172 0.01563
v 0.13106 0.25578 0.10009
v 0.12812 0.24546 0.09141
v 0.13221 0.26274 0.10007
v 0.12603 0.43300 -0.00522
v 0.13493 0.45036 -0.01307
v 0.11216 0.43987 -0.01828
v 0.14197 0.42648 -0.01742
v 0.12411 0.41845 -0.01983
v 0.12441 0.41858 -0.02072
v 0.12843 0.43652 -0.03131
v 0.14197 0.42648 -0.01742
v 0.11991 0.43292 -0.03266
v 0.11838 0.43487 -0.02988
v 0.12843 0.43652 -0.03131
v 0.11991 0.43292 -0.03266
v 0.13182 0.23590 0.10436
v 0.11916 0.24019 0.10693
v 0.13077 0.24158 0.09586
v 0.13520 0.42346 -0.01765
v 0.12411 0.41845 -0.01983
v 0.14197 0.42648 -0.01742
v 0.13815 0.26320 0.12301
v 0.12646 0.26611 0.12483
v 0.12328 0.25293 0.11628
v 0.11838 0.43487 -0.02988
v 0.13493 0.45036 -0.01307
v 0.12843 0.43652 -0.03131
v 0.13182 0.23590 0.10436
v 0.13077 0.24158 0.09586
v 0.13539 0.23633 0.10140
v 0.13493 0.45036 -0.01307
v 0.11838 0.43487 -0.02988
v 0.11216 0.43987 -0.01828
v 0.12203 0.24969 0.08851
v 0.13221 0.26274 0.10007
v 0.12812 0.24546 0.09141
v 0.11916 0.24019 0.10693
v 0.12812 0.24546 0.09141
v 0.13077 0.24158 0.09586
v 0.12428 0.28382 0.09592
v 0.12780 0.27975 0.09994
v 0.12090 0.26196 0.08447
v 0.11242 0.28154 0.10883
v 0.12646 0.26611 0.12483
v 0.13876 0.26534 0.11808
v 0.12203 0.24969 0.08851
v 0.12780 0.27975 0.09994
v 0.13221 0.26274 0.10007
v 0.12674 0.38983 0.00743
v 0.11626 0.38521 0.00527
v 0.13829 0.39473 0.00792
v 0.12441 0.41858 -0.02072
v 0.12411 0.41845 -0.01983
v 0.12337 0.42007 -0.01995
v 0.11951 0.38654 0.00479
v 0.13829 0.39473 0.00792
v 0.11626 0.38521 0.00527
v 0.12328 0.25293 0.11628
v 0.12646 0.26611 0.12483
v 0.10573 0.25426 0.09290
v 0.11626 0.38521 0.00527
v 0.12674 0.38983 0.00743
v 0.14320 0.39172 0.01563
v 0.12441 0.41858 -0.02072
v 0.11991 0.43292 -0.03266
v 0.14197 0.42648 -0.01742
v 0.12780 0.27975 0.09994
v 0.11242 0.28154 0.10883
v 0.13472 0.27426 0.10529
v 0.12203 0.24969 0.08851
v 0.12031 0.25165 0.08682
v 0.12780 0.27975 0.09994
v 0.12441 0.41858 -0.02072
v 0.12029 0.42932 -0.02796
v 0.11991 0.43292 -0.03266
v 0.11916 0.24019 0.10693
v 0.12203 0.24969 0.08851
v 0.12812 0.24546 0.09141
v 0.12428 0.28382 0.09592
v 0.12090 0.26196 0.08447
v 0.11638 0.29172 0.09145
v 0.12029 0.42932 -0.02796
v 0.12441 0.41858 -0.02072
v 0.12337 0.42007 -0.01995
v 0.11090 0.40195 0.00897
v 0.14952 0.42284 0.01578
v 0.12603 0.43300 -0.00522
v 0.14320 0.39172 0.01563
v 0.11876 0.38333 0.00827
v 0.11626 0.38521 0.00527
v 0.10573 0.25426 0.09290
v 0.12646 0.26611 0.12483
v 0.11242 0.28154 0.10883
v 0.11784 0.25316 0.08132
v 0.12780 0.27975 0.09994
v 0.12031 0.25165 0.08682
v 0.12090 0.26196 0.08447
v 0.12780 0.27975 0.09994
v 0.11784 0.25316 0.08132
v 0.11991 0.43292 -0.03266
v 0.12029 0.42932 -0.02796
v 0.11949 0.42974 -0.02803
v 0.11934 0.24684 0.08201
v 0.11784 0.25316 0.08132
v 0.12031 0.25165 0.08682
v 0.12029 0.42932 -0.02796
v 0.12337 0.42007 -0.01995
v 0.11949 0.42974 -0.02803
v 0.12780 0.27975 0.09994
v 0.10159 0.29603 0.09719
v 0.11242 0.28154 0.10883
v 0.11949 0.42974 -0.02803
v 0.11838 0.43487 -0.02988
v 0.11991 0.43292 -0.03266
v 0.12090 0.26196 0.08447
v 0.11784 0.25316 0.08132
v 0.11352 0.25113 0.07862
v 0.11916 0.24019 0.10693
v 0.12328 0.25293 0.11628
v 0.10573 0.25426 0.09290
v 0.11619 0.42776 -0.00782
v 0.12603 0.43300 -0.00522
v 0.11216 0.43987 -0.01828
v 0.11934 0.24684 0.08201
v 0.11352 0.25113 0.07862
v 0.11784 0.25316 0.08132
v 0.12411 0.41845 -0.01983
v 0.10978 0.41326 -0.02213
v 0.12337 0.42007 -0.01995
v 0.11934 0.24684 0.08201
v 0.12031 0.25165 0.08682
v 0.10329 0.24928 0.08946
v 0.12780 0.27975 0.09994
v 0.12428 0.28382 0.09592
v 0.10159 0.29603 0.09719
v 0.11876 0.38333 0.00827
v 0.12227 0.39430 0.02121
v 0.10994 0.38944 0.01675
v 0.11951 0.38654 0.00479
v 0.12411 0.41845 -0.01983
v 0.13829 0.39473 0.00792
v 0.11607 0.29304 0.08866
v 0.11638 0.29172 0.09145
v 0.11315 0.27843 0.08502
v 0.11838 0.43487 -0.02988
v 0.11949 0.42974 -0.02803
v 0.11658 0.43297 -0.02243
v 0.11638 0.29172 0.09145
v 0.12090 0.26196 0.08447
v 0.11352 0.25113 0.07862
v 0.11876 0.38333 0.00827
v 0.11025 0.38057 0.00595
v 0.11626 0.38521 0.00527
v 0.12411 0.41845 -0.01983
v 0.11951 0.38654 0.00479
v 0.09463 0.40563 -0.02609
v 0.11638 0.29172 0.09145
v 0.10159 0.29603 0.09719
v 0.12428 0.28382 0.09592
v 0.11216 0.43987 -0.01828
v 0.11658 0.43297 -0.02243
v 0.11351 0.43511 -0.01749
v 0.11597 0.42683 -0.00982
v 0.11619 0.42776 -0.00782
v 0.11351 0.43511 -0.01749
v 0.11216 0.43987 -0.01828
v 0.11838 0.43487 -0.02988
v 0.11658 0.43297 -0.02243
v 0.14952 0.42284 0.01578
v 0.11090 0.40195 0.00897
v 0.12227 0.39430 0.02121
v 0.12203 0.24969 0.08851
v 0.11916 0.24019 0.10693
v 0.10573 0.25426 0.09290
v 0.11951 0.38654 0.00479
v 0.11626 0.38521 0.00527
v 0.10947 0.38215 0.00380
v 0.10329 0.24928 0.08946
v 0.12031 0.25165 0.08682
v 0.10573 0.25426 0.09290
v 0.11351 0.43511 -0.01749
v 0.11619 0.42776 -0.00782
v 0.11216 0.43987 -0.01828
v 0.10573 0.25426 0.09290
v 0.12031 0.25165 0.08682
v 0.12203 0.24969 0.08851
v 0.11352 0.25113 0.07862
v 0.11315 0.27843 0.08502
v 0.11638 0.29172 0.09145
v 0.10159 0.29603 0.09719
v 0.11638 0.29172 0.09145
v 0.11607 0.29304 0.08866
v 0.11619 0.42776 -0.00782
v 0.11090 0.40195 0.00897
v 0.12603 0.43300 -0.00522
v 0.11949 0.42974 -0.02803
v 0.11351 0.43511 -0.01749
v 0.11658 0.43297 -0.02243
v 0.11934 0.24684 0.08201
v 0.10329 0.24928 0.08946
v 0.11352 0.25113 0.07862
v 0.11315 0.27843 0.08502
v 0.11352 0.25113 0.07862
v 0.11104 0.25392 0.07615
v 0.11607 0.29304 0.08866
v 0.11315 0.27843 0.08502
v 0.10870 0.25811 0.07197
v 0.11626 0.38521 0.00527
v 0.11025 0.38057 0.00595
v 0.10947 0.38215 0.00380
v 0.11315 0.27843 0.08502
v 0.11104 0.25392 0.07615
v 0.10870 0.25811 0.07197
v 0.10994 0.38944 0.01675
v 0.12227 0.39430 0.02121
v 0.11090 0.40195 0.00897
v 0.11090 0.40195 0.00897
v 0.11619 0.42776 -0.00782
v 0.09333 0.41432 -0.01213
v 0.11025 0.38057 0.00595
v 0.11876 0.38333 0.00827
v 0.10994 0.38944 0.01675
v 0.11025 0.38057 0.00595
v 0.10402 0.37840 0.00412
v 0.10947 0.38215 0.00380
v 0.11597 0.42683 -0.00982
v 0.10149 0.41848 -0.01230
v 0.11619 0.42776 -0.00782
v 0.09139 0.41621 -0.03335
v 0.11949 0.42974 -0.02803
v 0.12337 0.42007 -0.01995
v 0.10329 0.24928 0.08946
v 0.10870 0.25811 0.07197
v 0.11104 0.25392 0.07615
v 0.08759 0.42158 -0.02306
v 0.11597 0.42683 -0.00982
v 0.11351 0.43511 -0.01749
v 0.10978 0.41326 -0.02213
v 0.12411 0.41845 -0.01983
v 0.09463 0.40563 -0.02609
v 0.10149 0.41848 -0.01230
v 0.11597 0.42683 -0.00982
v 0.08759 0.42158 -0.02306
v 0.10870 0.25811 0.07197
v 0.09834 0.31487 0.07046
v 0.11607 0.29304 0.08866
v 0.10149 0.41848 -0.01230
v 0.09333 0.41432 -0.01213
v 0.11619 0.42776 -0.00782
v 0.09139 0.41621 -0.03335
v 0.12337 0.42007 -0.01995
v 0.10978 0.41326 -0.02213
v 0.10100 0.38600 0.01372
v 0.10402 0.37840 0.00412
v 0.11025 0.38057 0.00595
v 0.10100 0.38600 0.01372
v 0.11025 0.38057 0.00595
v 0.10994 0.38944 0.01675
v 0.10159 0.29603 0.09719
v 0.11607 0.29304 0.08866
v 0.08408 0.31843 0.07866
v 0.10402 0.37840 0.00412
v 0.09463 0.40563 -0.02609
v 0.11951 0.38654 0.00479
v 0.10573 0.25426 0.09290
v 0.11242 0.28154 0.10883
v 0.10159 0.29603 0.09719
v 0.10947 0.38215 0.00380
v 0.10402 0.37840 0.00412
v 0.11951 0.38654 0.00479
v 0.09834 0.31487 0.07046
v 0.08408 0.31843 0.07866
v 0.11607 0.29304 0.08866
v 0.11090 0.40195 0.00897
v 0.09333 0.41432 -0.01213
v 0.10994 0.38944 0.01675
v 0.11352 0.25113 0.07862
v 0.10329 0.24928 0.08946
v 0.11104 0.25392 0.07615
v 0.10329 0.24928 0.08946
v 0.09842 0.26839 0.06074
v 0.10870 0.25811 0.07197
v 0.11949 0.42974 -0.02803
v 0.09139 0.41621 -0.03335
v 0.08759 0.42158 -0.02306
v 0.10573 0.25426 0.09290
v 0.09128 0.26286 0.07588
v 0.10329 0.24928 0.08946
v 0.09463 0.40563 -0.02609
v 0.09496 0.40675 -0.02550
v 0.10978 0.41326 -0.02213
v 0.11949 0.42974 -0.02803
v 0.08759 0.42158 -0.02306
v 0.11351 0.43511 -0.01749
v 0.10573 0.25426 0.09290
v 0.10159 0.29603 0.09719
v 0.08408 0.31843 0.07866
v 0.09128 0.26286 0.07588
v 0.10573 0.25426 0.09290
v 0.08408 0.31843 0.07866
v 0.09465 0.29300 0.06076
v 0.10870 0.25811 0.07197
v 0.09842 0.26839 0.06074
v 0.09816 0.30555 0.06430
v 0.10002 0.31683 0.06824
v 0.09465 0.29300 0.06076
v 0.08997 0.38484 0.00841
v 0.08899 0.38131 0.01021
v 0.10100 0.38600 0.01372
v 0.09465 0.29300 0.06076
v 0.09834 0.31487 0.07046
v 0.10870 0.25811 0.07197
v 0.10002 0.31683 0.06824
v 0.09729 0.31577 0.07110
v 0.09834 0.31487 0.07046
v 0.10002 0.31683 0.06824
v 0.09834 0.31487 0.07046
v 0.09465 0.29300 0.06076
v 0.10329 0.24928 0.08946
v 0.09128 0.26286 0.07588
v 0.09842 0.26839 0.06074
v 0.09465 0.29300 0.06076
v 0.09547 0.29384 0.05999
v 0.09816 0.30555 0.06430
v 0.10002 0.31683 0.06824
v 0.08513 0.30972 0.04844
v 0.08982 0.32855 0.05436
v 0.09077 0.27666 0.05246
v 0.09465 0.29300 0.06076
v 0.09842 0.26839 0.06074
v 0.09128 0.26286 0.07588
v 0.09077 0.27666 0.05246
v 0.09842 0.26839 0.06074
v 0.10402 0.37840 0.00412
v 0.08899 0.38131 0.01021
v 0.08249 0.36893 -0.00164
v 0.08190 0.28446 0.04598
v 0.09816 0.30555 0.06430
v 0.09547 0.29384 0.05999
v 0.09547 0.29384 0.05999
v 0.09465 0.29300 0.06076
v 0.09348 0.28665 0.05648
v 0.08190 0.28446 0.04598
v 0.10002 0.31683 0.06824
v 0.09816 0.30555 0.06430
v 0.09547 0.29384 0.05999
v 0.09348 0.28665 0.05648
v 0.08190 0.28446 0.04598
v 0.10402 0.37840 0.00412
v 0.10100 0.38600 0.01372
v 0.08899 0.38131 0.01021
v 0.09465 0.29300 0.06076
v 0.09077 0.27666 0.05246
v 0.09348 0.28665 0.05648
v 0.09139 0.41621 -0.03335
v 0.10978 0.41326 -0.02213
v 0.09496 0.40675 -0.02550
v 0.10149 0.41848 -0.01230
v 0.08947 0.41168 -0.01498
v 0.09333 0.41432 -0.01213
v 0.09496 0.40675 -0.02550
v 0.09463 0.40563 -0.02609
v 0.09139 0.41621 -0.03335
v 0.10402 0.37840 0.00412
v 0.08249 0.39169 -0.02321
v 0.09463 0.40563 -0.02609
v 0.08759 0.42158 -0.02306
v 0.08947 0.41168 -0.01498
v 0.10149 0.41848 -0.01230
v 0.09128 0.26286 0.07588
v 0.08408 0.31843 0.07866
v 0.07981 0.27539 0.06369
v 0.09463 0.40563 -0.02609
v 0.07978 0.41010 -0.03574
v 0.09139 0.41621 -0.03335
v 0.08997 0.38484 0.00841
v 0.10100 0.38600 0.01372
v 0.10994 0.38944 0.01675
v 0.09077 0.27666 0.05246
v 0.08190 0.28446 0.04598
v 0.09348 0.28665 0.05648
v 0.09333 0.41432 -0.01213
v 0.08997 0.38484 0.00841
v 0.10994 0.38944 0.01675
v 0.08249 0.39169 -0.02321
v 0.10402 0.37840 0.00412
v 0.08249 0.36893 -0.00164
v 0.08759 0.42158 -0.02306
v 0.09139 0.41621 -0.03335
v 0.08640 0.42057 -0.02383
v 0.10002 0.31683 0.06824
v 0.08408 0.31843 0.07866
v 0.09729 0.31577 0.07110
v 0.08947 0.41168 -0.01498
v 0.07335 0.40665 -0.01923
v 0.09333 0.41432 -0.01213
v 0.09077 0.27666 0.05246
v 0.09128 0.26286 0.07588
v 0.07981 0.27539 0.06369
v 0.08408 0.31843 0.07866
v 0.09834 0.31487 0.07046
v 0.09729 0.31577 0.07110
v 0.09139 0.41621 -0.03335
v 0.07978 0.41010 -0.03574
v 0.08640 0.42057 -0.02383
v 0.08759 0.42158 -0.02306
v 0.08640 0.42057 -0.02383
v 0.08947 0.41168 -0.01498
v 0.08190 0.28446 0.04598
v 0.08513 0.30972 0.04844
v 0.10002 0.31683 0.06824
v 0.08947 0.41168 -0.01498
v 0.08640 0.42057 -0.02383
v 0.07503 0.41462 -0.02663
v 0.08876 0.32896 0.05352
v 0.08982 0.32855 0.05436
v 0.08513 0.30972 0.04844
v 0.08997 0.38484 0.00841
v 0.09333 0.41432 -0.01213
v 0.07335 0.40665 -0.01923
v 0.07503 0.41462 -0.02663
v 0.08640 0.42057 -0.02383
v 0.07978 0.41010 -0.03574
v 0.08982 0.32855 0.05436
v 0.08876 0.32896 0.05352
v 0.07710 0.32651 0.06962
v 0.08201 0.31402 0.04596
v 0.08202 0.32347 0.04431
v 0.08876 0.32896 0.05352
v 0.10002 0.31683 0.06824
v 0.08982 0.32855 0.05436
v 0.07710 0.32651 0.06962
v 0.08513 0.30972 0.04844
v 0.08190 0.28446 0.04598
v 0.07806 0.28995 0.04040
v 0.08513 0.30972 0.04844
v 0.08201 0.31402 0.04596
v 0.08876 0.32896 0.05352
v 0.08876 0.32896 0.05352
v 0.08083 0.33566 0.04103
v 0.08202 0.33534 0.04486
v 0.08202 0.32347 0.04431
v 0.08201 0.31402 0.04596
v 0.07651 0.31838 0.03641
v 0.07601 0.27967 0.05999
v 0.08190 0.28446 0.04598
v 0.09077 0.27666 0.05246
v 0.07710 0.32651 0.06962
v 0.08408 0.31843 0.07866
v 0.10002 0.31683 0.06824
v 0.08947 0.41168 -0.01498
v 0.07442 0.40611 -0.02064
v 0.07335 0.40665 -0.01923
v 0.08947 0.41168 -0.01498
v 0.07503 0.41462 -0.02663
v 0.07442 0.40611 -0.02064
v 0.08083 0.33566 0.04103
v 0.08202 0.32347 0.04431
v 0.07544 0.31942 0.03657
v 0.08083 0.33566 0.04103
v 0.08876 0.32896 0.05352
v 0.08202 0.32347 0.04431
v 0.09463 0.40563 -0.02609
v 0.08249 0.39169 -0.02321
v 0.07978 0.41010 -0.03574
v 0.08899 0.38131 0.01021
v 0.07288 0.37456 0.00654
v 0.08249 0.36893 -0.00164
v 0.08513 0.30972 0.04844
v 0.07651 0.31838 0.03641
v 0.08201 0.31402 0.04596
v 0.08408 0.31843 0.07866
v 0.07601 0.27967 0.05999
v 0.07981 0.27539 0.06369
v 0.07241 0.31067 0.05935
v 0.07601 0.27967 0.05999
v 0.08408 0.31843 0.07866
v 0.07544 0.31942 0.03657
v 0.08202 0.32347 0.04431
v 0.07651 0.31838 0.03641
v 0.08202 0.33534 0.04486
v 0.08083 0.33566 0.04103
v 0.06526 0.34130 0.04920
v 0.07601 0.27967 0.05999
v 0.07806 0.28995 0.04040
v 0.08190 0.28446 0.04598
v 0.08997 0.38484 0.00841
v 0.07288 0.37456 0.00654
v 0.08899 0.38131 0.01021
v 0.07978 0.41010 -0.03574
v 0.08249 0.39169 -0.02321
v 0.07244 0.40548 -0.03755
v 0.07981 0.27539 0.06369
v 0.07601 0.27967 0.05999
v 0.09077 0.27666 0.05246
v 0.07710 0.32651 0.06962
v 0.08876 0.32896 0.05352
v 0.07334 0.33203 0.06467
v 0.08876 0.32896 0.05352
v 0.08202 0.33534 0.04486
v 0.07334 0.33203 0.06467
v 0.07288 0.37456 0.00654
v 0.07063 0.36376 -0.00502
v 0.08249 0.36893 -0.00164
v 0.06522 0.34133 0.04768
v 0.06526 0.34130 0.04920
v 0.08083 0.33566 0.04103
v 0.08249 0.39169 -0.02321
v 0.08249 0.36893 -0.00164
v 0.07063 0.36376 -0.00502
v 0.07531 0.34020 0.03306
v 0.08083 0.33566 0.04103
v 0.07544 0.31942 0.03657
v 0.07019 0.29506 0.03010
v 0.07651 0.31838 0.03641
v 0.08513 0.30972 0.04844
v 0.06522 0.34133 0.04768
v 0.08083 0.33566 0.04103
v 0.07531 0.34020 0.03306
v 0.07241 0.31067 0.05935
v 0.06814 0.29083 0.04851
v 0.07601 0.27967 0.05999
v 0.07241 0.31067 0.05935
v 0.08408 0.31843 0.07866
v 0.07710 0.32651 0.06962
v 0.07601 0.27967 0.05999
v 0.07083 0.29391 0.03859
v 0.07806 0.28995 0.04040
v 0.07200 0.40044 -0.01487
v 0.08997 0.38484 0.00841
v 0.07335 0.40665 -0.01923
v 0.06522 0.34133 0.04768
v 0.07531 0.34020 0.03306
v 0.06180 0.34419 0.03867
v 0.07083 0.29391 0.03859
v 0.07358 0.29270 0.03536
v 0.07806 0.28995 0.04040
v 0.07651 0.31838 0.03641
v 0.07035 0.32312 0.02881
v 0.07544 0.31942 0.03657
v 0.07978 0.41010 -0.03574
v 0.07244 0.40548 -0.03755
v 0.07503 0.41462 -0.02663
v 0.07334 0.33203 0.06467
v 0.06716 0.31429 0.05444
v 0.07710 0.32651 0.06962
v 0.07019 0.29506 0.03010
v 0.08513 0.30972 0.04844
v 0.07806 0.28995 0.04040
v 0.07442 0.40611 -0.02064
v 0.07267 0.39906 -0.01676
v 0.07335 0.40665 -0.01923
v 0.07358 0.29270 0.03536
v 0.07019 0.29506 0.03010
v 0.07806 0.28995 0.04040
v 0.07489 0.33660 0.03226
v 0.07531 0.34020 0.03306
v 0.07544 0.31942 0.03657
v 0.07241 0.31067 0.05935
v 0.07710 0.32651 0.06962
v 0.06716 0.31429 0.05444
v 0.07267 0.39906 -0.01676
v 0.07200 0.40044 -0.01487
v 0.07335 0.40665 -0.01923
v 0.06814 0.29083 0.04851
v 0.07083 0.29391 0.03859
v 0.07601 0.27967 0.05999
v 0.06526 0.34130 0.04920
v 0.07334 0.33203 0.06467
v 0.08202 0.33534 0.04486
v 0.05409 0.39617 -0.04065
v 0.07503 0.41462 -0.02663
v 0.07244 0.40548 -0.03755
v 0.07531 0.34020 0.03306
v 0.07489 0.33660 0.03226
v 0.07035 0.32312 0.02881
v 0.07531 0.34020 0.03306
v 0.07035 0.32312 0.02881
v 0.06455 0.32691 0.02130
v 0.07035 0.32312 0.02881
v 0.07489 0.33660 0.03226
v 0.07544 0.31942 0.03657
v 0.07531 0.34020 0.03306
v 0.06455 0.32691 0.02130
v 0.06795 0.34243 0.02359
v 0.07241 0.31067 0.05935
v 0.06716 0.31429 0.05444
v 0.06768 0.31482 0.05197
v 0.06320 0.29694 0.04151
v 0.06814 0.29083 0.04851
v 0.07241 0.31067 0.05935
v 0.07035 0.32312 0.02881
v 0.07651 0.31838 0.03641
v 0.07019 0.29506 0.03010
v 0.04755 0.38860 -0.01979
v 0.07288 0.37456 0.00654
v 0.08997 0.38484 0.00841
v 0.07200 0.40044 -0.01487
v 0.04755 0.38860 -0.01979
v 0.08997 0.38484 0.00841
v 0.07019 0.29506 0.03010
v 0.07358 0.29270 0.03536
v 0.06752 0.29644 0.02716
v 0.06768 0.31482 0.05197
v 0.06320 0.29694 0.04151
v 0.07241 0.31067 0.05935
v 0.07531 0.34020 0.03306
v 0.06795 0.34243 0.02359
v 0.06180 0.34419 0.03867
v 0.05652 0.40434 -0.02911
v 0.07267 0.39906 -0.01676
v 0.07442 0.40611 -0.02064
v 0.06320 0.29694 0.04151
v 0.06768 0.31482 0.05197
v 0.05868 0.31039 0.03670
v 0.06228 0.31737 0.05198
v 0.06716 0.31429 0.05444
v 0.07334 0.33203 0.06467
v 0.06631 0.34261 0.01951
v 0.06795 0.34243 0.02359
v 0.06455 0.32691 0.02130
v 0.07442 0.40611 -0.02064
v 0.07503 0.41462 -0.02663
v 0.05652 0.40434 -0.02911
v 0.07200 0.40044 -0.01487
v 0.07267 0.39906 -0.01676
v 0.06524 0.39548 -0.01799
v 0.06526 0.34130 0.04920
v 0.06449 0.34055 0.04971
v 0.07334 0.33203 0.06467
v 0.06455 0.32691 0.02130
v 0.05949 0.32387 0.01619
v 0.06631 0.34261 0.01951
v 0.06716 0.31429 0.05444
v 0.06228 0.31737 0.05198
v 0.06768 0.31482 0.05197
v 0.06228 0.31737 0.05198
v 0.07334 0.33203 0.06467
v 0.06202 0.31802 0.05068
v 0.06768 0.31482 0.05197
v 0.06228 0.31737 0.05198
v 0.06520 0.31727 0.04825
v 0.08249 0.39169 -0.02321
v 0.04768 0.37683 -0.03223
v 0.06454 0.38845 -0.03048
v 0.06752 0.29644 0.02716
v 0.07035 0.32312 0.02881
v 0.07019 0.29506 0.03010
v 0.07083 0.29391 0.03859
v 0.06752 0.29644 0.02716
v 0.07358 0.29270 0.03536
v 0.06631 0.34261 0.01951
v 0.05029 0.34793 0.01976
v 0.06795 0.34243 0.02359
v 0.06320 0.29694 0.04151
v 0.07083 0.29391 0.03859
v 0.06814 0.29083 0.04851
v 0.07035 0.32312 0.02881
v 0.06215 0.29980 0.01995
v 0.05601 0.30306 0.01376
v 0.05652 0.40434 -0.02911
v 0.07503 0.41462 -0.02663
v 0.05409 0.39617 -0.04065
v 0.05868 0.31039 0.03670
v 0.06768 0.31482 0.05197
v 0.06520 0.31727 0.04825
v 0.06631 0.34261 0.01951
v 0.05734 0.33034 0.01464
v 0.06056 0.34521 0.01284
v 0.06228 0.31737 0.05198
v 0.06202 0.31802 0.05068
v 0.06520 0.31727 0.04825
v 0.06202 0.31802 0.05068
v 0.07334 0.33203 0.06467
v 0.06449 0.34055 0.04971
v 0.06752 0.29644 0.02716
v 0.06215 0.29980 0.01995
v 0.07035 0.32312 0.02881
v 0.06526 0.34130 0.04920
v 0.06522 0.34133 0.04768
v 0.06449 0.34055 0.04971
v 0.06795 0.34243 0.02359
v 0.05029 0.34793 0.01976
v 0.05632 0.34652 0.03040
v 0.05949 0.32387 0.01619
v 0.05734 0.33034 0.01464
v 0.06631 0.34261 0.01951
v 0.06320 0.29694 0.04151
v 0.05868 0.31039 0.03670
v 0.05743 0.30328 0.03349
v 0.05601 0.30306 0.01376
v 0.06455 0.32691 0.02130
v 0.07035 0.32312 0.02881
v 0.05868 0.31039 0.03670
v 0.06520 0.31727 0.04825
v 0.06111 0.32267 0.04119
v 0.06180 0.34419 0.03867
v 0.06048 0.34428 0.04047
v 0.06522 0.34133 0.04768
v 0.06215 0.29980 0.01995
v 0.06752 0.29644 0.02716
v 0.07083 0.29391 0.03859
v 0.06056 0.34521 0.01284
v 0.05029 0.34793 0.01976
v 0.06631 0.34261 0.01951
v 0.06449 0.34055 0.04971
v 0.06522 0.34133 0.04768
v 0.05918 0.32310 0.04271
v 0.08249 0.39169 -0.02321
v 0.05409 0.39617 -0.04065
v 0.07244 0.40548 -0.03755
v 0.06048 0.34428 0.04047
v 0.05918 0.32310 0.04271
v 0.06522 0.34133 0.04768
v 0.07083 0.29391 0.03859
v 0.05125 0.30861 0.02611
v 0.06215 0.29980 0.01995
v 0.07083 0.29391 0.03859
v 0.06320 0.29694 0.04151
v 0.05743 0.30328 0.03349
v 0.04445 0.38677 -0.02062
v 0.04920 0.36352 0.00068
v 0.07288 0.37456 0.00654
v 0.06449 0.34055 0.04971
v 0.05821 0.32281 0.04396
v 0.06202 0.31802 0.05068
v 0.05918 0.32310 0.04271
v 0.05821 0.32281 0.04396
v 0.06449 0.34055 0.04971
v 0.08249 0.39169 -0.02321
v 0.07063 0.36376 -0.00502
v 0.05201 0.35528 -0.01058
v 0.05821 0.32281 0.04396
v 0.06111 0.32267 0.04119
v 0.06520 0.31727 0.04825
v 0.06454 0.38845 -0.03048
v 0.05409 0.39617 -0.04065
v 0.08249 0.39169 -0.02321
v 0.06520 0.31727 0.04825
v 0.06202 0.31802 0.05068
v 0.05821 0.32281 0.04396
v 0.05868 0.31039 0.03670
v 0.06111 0.32267 0.04119
v 0.05703 0.32648 0.03474
v 0.06180 0.34419 0.03867
v 0.06795 0.34243 0.02359
v 0.05632 0.34652 0.03040
v 0.05821 0.32281 0.04396
v 0.05918 0.32310 0.04271
v 0.06111 0.32267 0.04119
v 0.05734 0.33034 0.01464
v 0.05589 0.33051 0.01291
v 0.06056 0.34521 0.01284
v 0.05918 0.32310 0.04271
v 0.05703 0.32648 0.03474
v 0.06111 0.32267 0.04119
v 0.05949 0.32387 0.01619
v 0.05589 0.33051 0.01291
v 0.05734 0.33034 0.01464
v 0.05703 0.32648 0.03474
v 0.05918 0.32310 0.04271
v 0.05515 0.32718 0.03688
v 0.06180 0.34419 0.03867
v 0.05515 0.32718 0.03688
v 0.06048 0.34428 0.04047
v 0.06180 0.34419 0.03867
v 0.05607 0.32805 0.03595
v 0.05515 0.32718 0.03688
v 0.05607 0.32805 0.03595
v 0.06180 0.34419 0.03867
v 0.05632 0.34652 0.03040
v 0.06454 0.38845 -0.03048
v 0.04635 0.38118 -0.03505
v 0.05409 0.39617 -0.04065
v 0.06215 0.29980 0.01995
v 0.05125 0.30861 0.02611
v 0.05601 0.30306 0.01376
v 0.04271 0.33542 -0.00132
v 0.06056 0.34521 0.01284
v 0.05589 0.33051 0.01291
v 0.05868 0.31039 0.03670
v 0.05125 0.30861 0.02611
v 0.05743 0.30328 0.03349
v 0.05703 0.32648 0.03474
v 0.05515 0.32718 0.03688
v 0.05607 0.32805 0.03595
v 0.05515 0.32718 0.03688
v 0.05918 0.32310 0.04271
v 0.06048 0.34428 0.04047
v 0.05601 0.30306 0.01376
v 0.04104 0.31342 0.00191
v 0.05949 0.32387 0.01619
v 0.05601 0.30306 0.01376
v 0.05949 0.32387 0.01619
v 0.06455 0.32691 0.02130
v 0.04447 0.35133 0.01213
v 0.05029 0.34793 0.01976
v 0.06056 0.34521 0.01284
v 0.07083 0.29391 0.03859
v 0.05743 0.30328 0.03349
v 0.05125 0.30861 0.02611
v 0.05703 0.32648 0.03474
v 0.05607 0.32805 0.03595
v 0.05122 0.32998 0.02785
v 0.05607 0.32805 0.03595
v 0.05632 0.34652 0.03040
v 0.05122 0.32998 0.02785
v 0.05201 0.35528 -0.01058
v 0.07063 0.36376 -0.00502
v 0.04920 0.36352 0.00068
v 0.05632 0.34652 0.03040
v 0.05029 0.34793 0.01976
v 0.05122 0.32998 0.02785
v 0.04920 0.36352 0.00068
v 0.07063 0.36376 -0.00502
v 0.07288 0.37456 0.00654
v 0.05703 0.32648 0.03474
v 0.05122 0.32998 0.02785
v 0.04885 0.32990 0.02301
v 0.04104 0.31342 0.00191
v 0.05589 0.33051 0.01291
v 0.05949 0.32387 0.01619
v 0.05125 0.30861 0.02611
v 0.05703 0.32648 0.03474
v 0.04885 0.32990 0.02301
v 0.05125 0.30861 0.02611
v 0.05868 0.31039 0.03670
v 0.05703 0.32648 0.03474
v 0.05125 0.30861 0.02611
v 0.04104 0.31342 0.00191
v 0.05601 0.30306 0.01376
v 0.04447 0.35133 0.01213
v 0.04907 0.34452 0.01791
v 0.05029 0.34793 0.01976
v 0.04725 0.35101 -0.00275
v 0.06056 0.34521 0.01284
v 0.04271 0.33542 -0.00132
v 0.05589 0.33051 0.01291
v 0.05118 0.32854 0.00865
v 0.04271 0.33542 -0.00132
v 0.05125 0.30861 0.02611
v 0.04885 0.32990 0.02301
v 0.04484 0.33144 0.01769
v 0.04907 0.34452 0.01791
v 0.04484 0.33144 0.01769
v 0.05029 0.34793 0.01976
v 0.04885 0.32990 0.02301
v 0.05122 0.32998 0.02785
v 0.04484 0.33144 0.01769
v 0.04484 0.33144 0.01769
v 0.05122 0.32998 0.02785
v 0.05029 0.34793 0.01976
v 0.05589 0.33051 0.01291
v 0.04104 0.31342 0.00191
v 0.05118 0.32854 0.00865
v 0.04725 0.35101 -0.00275
v 0.04447 0.35133 0.01213
v 0.06056 0.34521 0.01284
v 0.04271 0.33542 -0.00132
v 0.05118 0.32854 0.00865
v 0.04137 0.33033 -0.00072
v 0.05118 0.32854 0.00865
v 0.04584 0.32867 0.00384
v 0.04137 0.33033 -0.00072
v 0.04447 0.35133 0.01213
v 0.04484 0.33144 0.01769
v 0.04907 0.34452 0.01791
v 0.04593 0.34623 -0.00627
v 0.04271 0.33542 -0.00132
v 0.04358 0.32970 -0.00293
v 0.04584 0.32867 0.00384
v 0.05118 0.32854 0.00865
v 0.04104 0.31342 0.00191
v 0.04256 0.35257 0.00125
v 0.04725 0.35101 -0.00275
v 0.04271 0.33542 -0.00132
v 0.05125 0.30861 0.02611
v 0.04484 0.33144 0.01769
v 0.03907 0.33082 0.01253
v 0.04593 0.34623 -0.00627
v 0.04080 0.34850 0.00161
v 0.04271 0.33542 -0.00132
v 0.04593 0.34623 -0.00627
v 0.04358 0.32970 -0.00293
v 0.03884 0.33040 -0.00793
v 0.04584 0.32867 0.00384
v 0.03580 0.33092 0.00711
v 0.04137 0.33033 -0.00072
v 0.04725 0.35101 -0.00275
v 0.04256 0.35257 0.00125
v 0.04447 0.35133 0.01213
v 0.04358 0.32970 -0.00293
v 0.04271 0.33542 -0.00132
v 0.04137 0.33033 -0.00072
v 0.03796 0.35379 0.00557
v 0.04484 0.33144 0.01769
v 0.04447 0.35133 0.01213
v 0.04256 0.35257 0.00125
v 0.04271 0.33542 -0.00132
v 0.04080 0.34850 0.00161
v 0.03455 0.32118 0.00530
v 0.04584 0.32867 0.00384
v 0.04104 0.31342 0.00191
v 0.03704 0.35164 0.00529
v 0.04256 0.35257 0.00125
v 0.04080 0.34850 0.00161
v 0.05125 0.30861 0.02611
v 0.03907 0.33082 0.01253
v 0.03580 0.33092 0.00711
v 0.04584 0.32867 0.00384
v 0.03455 0.32118 0.00530
v 0.03580 0.33092 0.00711
v 0.04080 0.34850 0.00161
v 0.04593 0.34623 -0.00627
v 0.03704 0.35164 0.00529
v 0.04447 0.35133 0.01213
v 0.04256 0.35257 0.00125
v 0.03796 0.35379 0.00557
v 0.04137 0.33033 -0.00072
v 0.03884 0.33040 -0.00793
v 0.04358 0.32970 -0.00293
v 0.03907 0.33082 0.01253
v 0.04484 0.33144 0.01769
v 0.03397 0.33220 0.00744
v 0.04104 0.31342 0.00191
v 0.05125 0.30861 0.02611
v 0.03455 0.32118 0.00530
v 0.03704 0.35164 0.00529
v 0.03796 0.35379 0.00557
v 0.04256 0.35257 0.00125
v 0.03228 0.34744 -0.01828
v 0.03704 0.35164 0.00529
v 0.04593 0.34623 -0.00627
v 0.04484 0.33144 0.01769
v 0.03796 0.35379 0.00557
v 0.03397 0.33220 0.00744
v 0.03796 0.35379 0.00557
v 0.03704 0.35164 0.00529
v 0.03536 0.35141 0.00515
v 0.03796 0.35379 0.00557
v 0.03536 0.35141 0.00515
v 0.03397 0.33220 0.00744
v 0.05125 0.30861 0.02611
v 0.03580 0.33092 0.00711
v 0.03455 0.32118 0.00530
v 0.02380 0.35101 -0.01136
v 0.03536 0.35141 0.00515
v 0.03704 0.35164 0.00529
v 0.14723 0.41885 0.00217
v 0.14928 0.39382 0.01722
v 0.16153 0.40741 0.01333
v 0.15404 0.40346 0.01192
v 0.16800 0.40891 0.01192
v 0.13829 0.39473 0.00792
v 0.16915 0.43690 -0.01035
v 0.14197 0.42648 -0.01742
v 0.14330 0.44287 -0.02862
v 0.12843 0.43652 -0.03131
v 0.13493 0.45036 -0.01307
v 0.12603 0.43300 -0.00522
v 0.14952 0.42284 0.01578
v 0.13442 0.39846 0.02502
v 0.16233 0.40817 0.03319
v 0.05912 0.38588 -0.02029
v 0.04755 0.38860 -0.01979
v 0.07288 0.37456 0.00654
v 0.04445 0.38677 -0.02062
v 0.04920 0.36352 0.00068
v 0.05201 0.35528 -0.01058
v 0.08249 0.39169 -0.02321
v 0.04768 0.37683 -0.03223
v 0.06454 0.38845 -0.03048
v 0.04635 0.38118 -0.03505
v 0.05409 0.39617 -0.04065
v 0.05652 0.40434 -0.02911
v 0.07267 0.39906 -0.01676
v 0.06524 0.39548 -0.01799
v 0.07200 0.40044 -0.01487
v 0.03635 0.34024 -0.00070
v 0.03884 0.33040 -0.00793
v 0.04593 0.34623 -0.00627
v 0.03228 0.34744 -0.01828
v 0.03704 0.35164 0.00529
v 0.02380 0.35101 -0.01136
v 0.03536 0.35141 0.00515
v 0.03397 0.33220 0.00744
v 0.03907 0.33082 0.01253
v 0.03580 0.33092 0.00711
v 0.04137 0.33033 -0.00072
vt 0.38822 0.07665
vt 0.39908 0.06929
vt 0.39422 0.07615
vt 0.39908 0.06929
vt 0.40027 0.07542
vt 0.39422 0.07615
vt 0.75932 0.20219
vt 0.74912 0.22118
vt 0.74909 0.21653
vt 0.96217 0.74492
vt 0.96217 0.75877
vt 0.96134 0.76590
vt 0.39428 0.58669
vt 0.38401 0.58886
vt 0.37109 0.58823
vt 0.38401 0.58886
vt 0.37792 0.58920
vt 0.37109 0.58823
vt 0.57886 0.36599
vt 0.54974 0.39160
vt 0.56504 0.36495
vt 0.40027 0.07542
vt 0.39908 0.06929
vt 0.40371 0.06965
vt 0.40027 0.07542
vt 0.40371 0.06965
vt 0.40767 0.07475
vt 0.96034 0.28004
vt 0.96097 0.27288
vt 0.96131 0.28515
vt 0.55278 0.36475
vt 0.56504 0.36495
vt 0.54974 0.39160
vt 0.37792 0.58920
vt 0.37050 0.58949
vt 0.37109 0.58823
vt 0.56204 0.35092
vt 0.55793 0.36424
vt 0.55055 0.35083
vt 0.75898 0.22368
vt 0.74912 0.22118
vt 0.75932 0.20219
vt 0.96229 0.30896
vt 0.96187 0.30465
vt 0.96682 0.30422
vt 0.49428 0.99287
vt 0.48933 0.99244
vt 0.49534 0.99222
vt 0.26664 0.98635
vt 0.26043 0.98423
vt 0.26643 0.98396
vt 0.26043 0.98423
vt 0.26664 0.98635
vt 0.25933 0.98588
vt 0.49428 0.99287
vt 0.49534 0.99222
vt 0.49919 0.99277
vt 0.99802 0.69662
vt 0.99846 0.69154
vt 0.99835 0.70152
vt 0.98172 0.88836
vt 0.98172 0.89569
vt 0.97613 0.88920
vt 0.30675 0.83911
vt 0.30493 0.83518
vt 0.30419 0.83242
vt 0.00124 0.39670
vt 0.00890 0.40099
vt 0.00459 0.40042
vt 0.49919 0.99277
vt 0.49534 0.99222
vt 0.50161 0.99203
vt 0.05580 0.00293
vt 0.04744 0.00293
vt 0.05565 0.00008
vt 0.26043 0.98423
vt 0.25933 0.98588
vt 0.25173 0.98518
vt 0.00016 0.40009
vt 0.00124 0.39670
vt 0.00459 0.40042
vt 0.68360 0.99819
vt 0.69235 0.99819
vt 0.68984 0.99879
vt 0.27859 0.95410
vt 0.26733 0.96958
vt 0.26696 0.95241
vt 0.96608 0.22546
vt 0.97517 0.21803
vt 0.97013 0.22262
vt 0.40767 0.07475
vt 0.40371 0.06965
vt 0.41577 0.07439
vt 0.37050 0.58949
vt 0.36239 0.58957
vt 0.37109 0.58823
vt 0.54974 0.39160
vt 0.54411 0.36476
vt 0.55278 0.36475
vt 0.96682 0.30422
vt 0.97673 0.30927
vt 0.96229 0.30896
vt 0.55738 0.20278
vt 0.56083 0.17678
vt 0.56357 0.21458
vt 0.97551 0.88197
vt 0.98143 0.88073
vt 0.98172 0.88836
vt 0.75873 0.23307
vt 0.74912 0.22118
vt 0.75898 0.22368
vt 0.04744 0.00293
vt 0.05002 0.00114
vt 0.05565 0.00008
vt 0.21346 0.98414
vt 0.22791 0.98414
vt 0.22180 0.98465
vt 0.31282 0.83767
vt 0.30843 0.84083
vt 0.30675 0.83911
vt 0.30675 0.83911
vt 0.30419 0.83242
vt 0.31254 0.82599
vt 0.98172 0.88836
vt 0.97613 0.88920
vt 0.97551 0.88197
vt 0.78615 0.97488
vt 0.77981 0.97943
vt 0.78043 0.97488
vt 0.75873 0.23307
vt 0.74877 0.24001
vt 0.74912 0.22118
vt 0.04744 0.00293
vt 0.04134 0.00243
vt 0.05002 0.00114
vt 0.58128 0.19421
vt 0.58941 0.18015
vt 0.59158 0.20136
vt 0.96034 0.28004
vt 0.96165 0.29380
vt 0.96099 0.29372
vt 0.55055 0.35083
vt 0.55793 0.36424
vt 0.54400 0.35085
vt 0.71012 0.12770
vt 0.71242 0.13516
vt 0.70861 0.12871
vt 0.97770 0.22053
vt 0.97931 0.23083
vt 0.97013 0.22262
vt 0.96131 0.28515
vt 0.96165 0.29380
vt 0.96034 0.28004
vt 0.98172 0.89569
vt 0.97634 0.89632
vt 0.97613 0.88920
vt 0.71012 0.12770
vt 0.72191 0.13455
vt 0.71242 0.13516
vt 0.97770 0.22053
vt 0.97013 0.22262
vt 0.97517 0.21803
vt 0.72191 0.13455
vt 0.71012 0.12770
vt 0.71335 0.12185
vt 0.79430 0.97863
vt 0.78615 0.97488
vt 0.79493 0.97515
vt 0.97931 0.23083
vt 0.96608 0.22546
vt 0.97013 0.22262
vt 0.96380 0.65386
vt 0.96083 0.65412
vt 0.96083 0.64320
vt 0.31254 0.82599
vt 0.31282 0.83767
vt 0.30675 0.83911
vt 0.79430 0.97863
vt 0.77981 0.97943
vt 0.78615 0.97488
vt 0.36239 0.58957
vt 0.35422 0.58961
vt 0.37109 0.58823
vt 0.98705 0.31356
vt 0.98757 0.31315
vt 0.98829 0.31417
vt 0.35657 0.58881
vt 0.37109 0.58823
vt 0.35422 0.58961
vt 0.91300 0.54583
vt 0.90591 0.54521
vt 0.92056 0.53526
vt 0.42394 0.07423
vt 0.41577 0.07439
vt 0.40371 0.06965
vt 0.54423 0.36430
vt 0.54400 0.35085
vt 0.55793 0.36424
vt 0.30483 0.82788
vt 0.31254 0.82599
vt 0.30419 0.83242
vt 0.79430 0.97863
vt 0.79397 0.97997
vt 0.77981 0.97943
vt 0.98705 0.31356
vt 0.98821 0.32302
vt 0.98707 0.32702
vt 0.97931 0.23083
vt 0.96331 0.23089
vt 0.96608 0.22546
vt 0.96380 0.65386
vt 0.96083 0.64320
vt 0.96914 0.65412
vt 0.98821 0.32302
vt 0.98705 0.31356
vt 0.98829 0.31417
vt 0.57402 0.21888
vt 0.56083 0.17678
vt 0.58128 0.19421
vt 0.40371 0.06965
vt 0.42244 0.07159
vt 0.42394 0.07423
vt 0.92056 0.53526
vt 0.90591 0.54521
vt 0.90631 0.53354
vt 0.79454 0.98267
vt 0.77981 0.97943
vt 0.79397 0.97997
vt 0.79018 0.98284
vt 0.77981 0.97943
vt 0.79454 0.98267
vt 0.99388 0.10678
vt 0.99305 0.11085
vt 0.99253 0.11049
vt 0.86762 0.00643
vt 0.86263 0.00643
vt 0.86462 0.00212
vt 0.99305 0.11085
vt 0.99339 0.11969
vt 0.99253 0.11049
vt 0.30483 0.82788
vt 0.31247 0.81643
vt 0.31254 0.82599
vt 0.93309 0.96684
vt 0.93244 0.96299
vt 0.93502 0.96340
vt 0.97649 0.62747
vt 0.98326 0.62419
vt 0.98727 0.62542
vt 0.92026 0.54590
vt 0.91300 0.54583
vt 0.92056 0.53526
vt 0.58539 0.20858
vt 0.58128 0.19421
vt 0.59158 0.20136
vt 0.98530 0.61963
vt 0.98727 0.62542
vt 0.98326 0.62419
vt 0.99661 0.61940
vt 0.99661 0.60859
vt 0.99786 0.61928
vt 0.98267 0.61032
vt 0.98104 0.61532
vt 0.96902 0.60964
vt 0.30483 0.82788
vt 0.30474 0.82490
vt 0.31247 0.81643
vt 0.74877 0.24001
vt 0.75873 0.23307
vt 0.75793 0.24284
vt 0.53522 0.39177
vt 0.54411 0.36476
vt 0.54974 0.39160
vt 0.97073 0.65367
vt 0.96940 0.65406
vt 0.96769 0.64757
vt 0.93244 0.96299
vt 0.93309 0.96684
vt 0.92813 0.96647
vt 0.96914 0.65412
vt 0.96083 0.64320
vt 0.96135 0.63684
vt 0.42244 0.07159
vt 0.42889 0.07223
vt 0.42394 0.07423
vt 0.54411 0.36476
vt 0.53522 0.39177
vt 0.52116 0.36431
vt 0.30593 0.81968
vt 0.31247 0.81643
vt 0.30474 0.82490
vt 0.92257 0.96321
vt 0.92813 0.96647
vt 0.92379 0.96651
vt 0.92208 0.97443
vt 0.92054 0.97460
vt 0.92379 0.96651
vt 0.92257 0.96321
vt 0.93244 0.96299
vt 0.92813 0.96647
vt 0.56083 0.17678
vt 0.57402 0.21888
vt 0.56357 0.21458
vt 0.77999 0.00664
vt 0.77170 0.01086
vt 0.77496 0.00072
vt 0.35657 0.58881
vt 0.35422 0.58961
vt 0.34890 0.58958
vt 0.87613 0.01117
vt 0.87374 0.01852
vt 0.87324 0.01142
vt 0.92379 0.96651
vt 0.92054 0.97460
vt 0.92257 0.96321
vt 0.77496 0.00072
vt 0.78038 0.00532
vt 0.77999 0.00664
vt 0.96135 0.63684
vt 0.96769 0.64757
vt 0.96914 0.65412
vt 0.31247 0.81643
vt 0.30593 0.81968
vt 0.30518 0.81852
vt 0.58539 0.20858
vt 0.57402 0.21888
vt 0.58128 0.19421
vt 0.80121 0.48615
vt 0.81207 0.48183
vt 0.80723 0.48436
vt 0.98443 0.78754
vt 0.98691 0.77411
vt 0.99006 0.78515
vt 0.96769 0.64757
vt 0.96135 0.63684
vt 0.96334 0.63679
vt 0.97073 0.65367
vt 0.96769 0.64757
vt 0.96616 0.63677
vt 0.42394 0.07423
vt 0.42889 0.07223
vt 0.42926 0.07415
vt 0.96769 0.64757
vt 0.96334 0.63679
vt 0.96616 0.63677
vt 0.56941 0.22769
vt 0.56357 0.21458
vt 0.57402 0.21888
vt 0.57402 0.21888
vt 0.58539 0.20858
vt 0.59439 0.23457
vt 0.74883 0.24649
vt 0.74877 0.24001
vt 0.75793 0.24284
vt 0.42889 0.07223
vt 0.43367 0.07269
vt 0.42926 0.07415
vt 0.95672 0.11293
vt 0.95672 0.10109
vt 0.95813 0.11360
vt 0.94576 0.69360
vt 0.94658 0.71576
vt 0.93737 0.71657
vt 0.95476 0.68070
vt 0.96167 0.67489
vt 0.96124 0.67768
vt 0.45609 0.72781
vt 0.47604 0.71794
vt 0.47688 0.72599
vt 0.88656 0.95969
vt 0.87579 0.95875
vt 0.89875 0.95904
vt 0.46420 0.71828
vt 0.47604 0.71794
vt 0.45609 0.72781
vt 0.45485 0.91999
vt 0.45485 0.94564
vt 0.44500 0.93447
vt 0.95672 0.10109
vt 0.95783 0.09476
vt 0.95813 0.11360
vt 0.94576 0.69360
vt 0.93737 0.71657
vt 0.93667 0.70583
vt 0.75748 0.24987
vt 0.74875 0.25129
vt 0.74883 0.24649
vt 0.75748 0.24987
vt 0.74883 0.24649
vt 0.75793 0.24284
vt 0.31247 0.81643
vt 0.30518 0.81852
vt 0.31253 0.80135
vt 0.52307 0.39351
vt 0.52116 0.36431
vt 0.53522 0.39177
vt 0.92056 0.53526
vt 0.90631 0.53354
vt 0.90556 0.52401
vt 0.51011 0.99205
vt 0.51469 0.99286
vt 0.50242 0.99252
vt 0.78776 0.93813
vt 0.79405 0.94562
vt 0.76962 0.94516
vt 0.57402 0.21888
vt 0.59439 0.23457
vt 0.56941 0.22769
vt 0.99006 0.78515
vt 0.98691 0.77411
vt 0.99342 0.78454
vt 0.95476 0.68070
vt 0.96142 0.66673
vt 0.96167 0.67489
vt 0.80121 0.48615
vt 0.79886 0.46383
vt 0.80804 0.46399
vt 0.92056 0.53526
vt 0.92363 0.52508
vt 0.92346 0.53514
vt 0.89875 0.95904
vt 0.89815 0.95972
vt 0.88656 0.95969
vt 0.80121 0.48615
vt 0.80804 0.46399
vt 0.81207 0.48183
vt 0.92056 0.53526
vt 0.90556 0.52401
vt 0.90461 0.50895
vt 0.92363 0.52508
vt 0.92056 0.53526
vt 0.90461 0.50895
vt 0.93567 0.68547
vt 0.95311 0.68547
vt 0.94599 0.68946
vt 0.00954 0.74461
vt 0.00954 0.75164
vt 0.00858 0.73682
vt 0.57864 0.24861
vt 0.57634 0.25040
vt 0.57148 0.23757
vt 0.51968 0.89331
vt 0.53186 0.90034
vt 0.49834 0.90136
vt 0.31356 0.58904
vt 0.31259 0.59122
vt 0.31216 0.59044
vt 0.28750 0.98630
vt 0.28833 0.98451
vt 0.30234 0.98585
vt 0.95476 0.68070
vt 0.95463 0.67064
vt 0.96142 0.66673
vt 0.00858 0.73682
vt 0.00930 0.73720
vt 0.00954 0.74461
vt 0.50636 0.52179
vt 0.49208 0.52003
vt 0.49981 0.50915
vt 0.98330 0.42039
vt 0.97242 0.42058
vt 0.98430 0.41233
vt 0.95463 0.67064
vt 0.96123 0.66052
vt 0.96142 0.66673
vt 0.74875 0.25129
vt 0.75713 0.25923
vt 0.74798 0.26824
vt 0.49729 0.54293
vt 0.50688 0.53151
vt 0.50731 0.54077
vt 0.00930 0.73720
vt 0.00858 0.73682
vt 0.00946 0.73241
vt 0.49729 0.54293
vt 0.50636 0.52179
vt 0.50688 0.53151
vt 0.50731 0.54077
vt 0.50762 0.54569
vt 0.49729 0.54293
vt 0.74875 0.25129
vt 0.75748 0.24987
vt 0.75713 0.25923
vt 0.00858 0.73682
vt 0.00926 0.72597
vt 0.00946 0.73241
vt 0.94576 0.69360
vt 0.93667 0.70583
vt 0.93681 0.69423
vt 0.95672 0.10109
vt 0.95632 0.09123
vt 0.95783 0.09476
vt 0.74086 0.99806
vt 0.74117 0.99892
vt 0.73190 0.99855
vt 0.52307 0.39351
vt 0.50987 0.37098
vt 0.52116 0.36431
vt 0.45609 0.72781
vt 0.45436 0.71893
vt 0.46420 0.71828
vt 0.92363 0.52508
vt 0.90461 0.50895
vt 0.92377 0.51578
vt 0.52116 0.36431
vt 0.51196 0.35539
vt 0.52131 0.35503
vt 0.57864 0.24861
vt 0.57148 0.23757
vt 0.56941 0.22769
vt 0.50597 0.54943
vt 0.49729 0.54293
vt 0.50762 0.54569
vt 0.59439 0.23457
vt 0.57864 0.24861
vt 0.56941 0.22769
vt 0.50987 0.37098
vt 0.52307 0.39351
vt 0.50612 0.39264
vt 0.80804 0.46399
vt 0.79886 0.46383
vt 0.80775 0.46295
vt 0.31356 0.58904
vt 0.31350 0.60015
vt 0.31259 0.59122
vt 0.41141 0.00226
vt 0.39924 0.00119
vt 0.41505 0.00105
vt 0.96123 0.66052
vt 0.95463 0.67064
vt 0.95428 0.66135
vt 0.31303 0.60018
vt 0.31216 0.59044
vt 0.31259 0.59122
vt 0.79886 0.46383
vt 0.79949 0.45584
vt 0.80775 0.46295
vt 0.45609 0.72781
vt 0.45488 0.72797
vt 0.45436 0.71893
vt 0.49729 0.54293
vt 0.49208 0.52003
vt 0.50636 0.52179
vt 0.45436 0.71893
vt 0.45488 0.72797
vt 0.44571 0.72887
vt 0.49933 0.50861
vt 0.49981 0.50915
vt 0.49208 0.52003
vt 0.57864 0.24861
vt 0.59439 0.23457
vt 0.60368 0.25575
vt 0.80762 0.45490
vt 0.80775 0.46295
vt 0.79949 0.45584
vt 0.32560 0.59021
vt 0.32638 0.59050
vt 0.32157 0.60110
vt 0.49262 0.51496
vt 0.49599 0.50818
vt 0.49933 0.50861
vt 0.31356 0.58904
vt 0.32560 0.59021
vt 0.32157 0.60110
vt 0.49208 0.52003
vt 0.49729 0.54293
vt 0.49101 0.53650
vt 0.49208 0.52003
vt 0.49262 0.51496
vt 0.49933 0.50861
vt 0.74188 0.99800
vt 0.75132 0.99800
vt 0.74920 0.99898
vt 0.49599 0.50818
vt 0.49262 0.51496
vt 0.49235 0.50776
vt 0.11487 0.21056
vt 0.11959 0.21852
vt 0.11188 0.21988
vt 0.32157 0.60110
vt 0.31350 0.60015
vt 0.31356 0.58904
vt 0.41141 0.00226
vt 0.39948 0.00247
vt 0.39924 0.00119
vt 0.45436 0.71893
vt 0.44571 0.72887
vt 0.44286 0.72214
vt 0.50255 0.50083
vt 0.49599 0.50818
vt 0.49895 0.50011
vt 0.50255 0.50083
vt 0.49933 0.50861
vt 0.49599 0.50818
vt 0.52116 0.36431
vt 0.50987 0.37098
vt 0.51196 0.35539
vt 0.75713 0.25923
vt 0.75701 0.27174
vt 0.74798 0.26824
vt 0.99834 0.70664
vt 0.99834 0.71661
vt 0.99713 0.70983
vt 0.42406 0.62061
vt 0.42529 0.59520
vt 0.42919 0.59451
vt 0.41499 0.61013
vt 0.42529 0.59520
vt 0.42406 0.62061
vt 0.99993 0.14353
vt 0.99993 0.14988
vt 0.99906 0.14361
vt 0.33371 0.59131
vt 0.33592 0.59057
vt 0.33784 0.60112
vt 0.11487 0.21056
vt 0.12463 0.21900
vt 0.11959 0.21852
vt 0.57864 0.24861
vt 0.58385 0.26648
vt 0.57634 0.25040
vt 0.51196 0.35539
vt 0.50987 0.37098
vt 0.50577 0.35590
vt 0.11092 0.21078
vt 0.11487 0.21056
vt 0.11188 0.21988
vt 0.32157 0.60110
vt 0.32638 0.59050
vt 0.32637 0.60170
vt 0.32638 0.59050
vt 0.33371 0.59131
vt 0.32637 0.60170
vt 0.18073 0.97114
vt 0.19000 0.97167
vt 0.18522 0.97780
vt 0.33856 0.60062
vt 0.33784 0.60112
vt 0.33592 0.59057
vt 0.50987 0.37098
vt 0.50612 0.39264
vt 0.49676 0.39204
vt 0.50619 0.49308
vt 0.50255 0.50083
vt 0.49895 0.50011
vt 0.47997 0.53583
vt 0.47479 0.52081
vt 0.49208 0.52003
vt 0.33856 0.60062
vt 0.33592 0.59057
vt 0.34213 0.59091
vt 0.41499 0.61013
vt 0.41505 0.59676
vt 0.42529 0.59520
vt 0.41499 0.61013
vt 0.42406 0.62061
vt 0.41597 0.62138
vt 0.11487 0.21056
vt 0.12888 0.21654
vt 0.12463 0.21900
vt 0.60217 0.25976
vt 0.57864 0.24861
vt 0.60368 0.25575
vt 0.33856 0.60062
vt 0.34213 0.59091
vt 0.34429 0.59945
vt 0.12888 0.21654
vt 0.12887 0.21910
vt 0.12463 0.21900
vt 0.99984 0.15059
vt 0.99984 0.15691
vt 0.99916 0.15114
vt 0.79949 0.45584
vt 0.79840 0.45058
vt 0.80762 0.45490
vt 0.41125 0.62240
vt 0.41031 0.61000
vt 0.41597 0.62138
vt 0.47997 0.53583
vt 0.49208 0.52003
vt 0.49101 0.53650
vt 0.99967 0.00567
vt 0.99984 0.01144
vt 0.99842 0.00601
vt 0.12887 0.21910
vt 0.13270 0.21976
vt 0.12463 0.21900
vt 0.50625 0.49134
vt 0.50619 0.49308
vt 0.49895 0.50011
vt 0.41499 0.61013
vt 0.41597 0.62138
vt 0.41031 0.61000
vt 0.99984 0.01144
vt 0.99814 0.01141
vt 0.99842 0.00601
vt 0.12518 0.21152
vt 0.12888 0.21654
vt 0.11487 0.21056
vt 0.33784 0.60112
vt 0.32637 0.60170
vt 0.33371 0.59131
vt 0.80076 0.43886
vt 0.80762 0.45490
vt 0.79840 0.45058
vt 0.99805 0.60465
vt 0.99843 0.60677
vt 0.99818 0.61528
vt 0.45619 0.52122
vt 0.46201 0.52645
vt 0.45543 0.52908
vt 0.50170 0.49208
vt 0.50625 0.49134
vt 0.49895 0.50011
vt 0.45619 0.52122
vt 0.45543 0.52908
vt 0.44965 0.52297
vt 0.67307 0.97342
vt 0.67765 0.97245
vt 0.67870 0.97351
vt 0.40896 0.59734
vt 0.41505 0.59676
vt 0.41499 0.61013
vt 0.46201 0.52645
vt 0.47479 0.52081
vt 0.47997 0.53583
vt 0.60926 0.28626
vt 0.58385 0.26648
vt 0.57864 0.24861
vt 0.60217 0.25976
vt 0.60926 0.28626
vt 0.57864 0.24861
vt 0.13270 0.21976
vt 0.12887 0.21910
vt 0.13514 0.21983
vt 0.40937 0.60965
vt 0.40896 0.59734
vt 0.41499 0.61013
vt 0.34213 0.59091
vt 0.34921 0.59131
vt 0.34429 0.59945
vt 0.43077 0.72907
vt 0.43967 0.71733
vt 0.44286 0.72214
vt 0.40896 0.59734
vt 0.40937 0.60965
vt 0.40176 0.60224
vt 0.40668 0.61026
vt 0.41031 0.61000
vt 0.41125 0.62240
vt 0.44733 0.52334
vt 0.44965 0.52297
vt 0.45543 0.52908
vt 0.44286 0.72214
vt 0.44571 0.72887
vt 0.43077 0.72907
vt 0.73212 0.97298
vt 0.73193 0.97468
vt 0.72609 0.97468
vt 0.99529 0.40609
vt 0.99464 0.40586
vt 0.99498 0.39461
vt 0.45543 0.52908
vt 0.45313 0.53230
vt 0.44733 0.52334
vt 0.67765 0.97245
vt 0.68092 0.97084
vt 0.67870 0.97351
vt 0.98936 0.86532
vt 0.99379 0.87751
vt 0.98850 0.86536
vt 0.67870 0.97351
vt 0.68092 0.97084
vt 0.68167 0.97349
vt 0.83049 0.69350
vt 0.86433 0.69656
vt 0.84660 0.69936
vt 0.47695 0.53714
vt 0.46201 0.52645
vt 0.47997 0.53583
vt 0.12888 0.21654
vt 0.13514 0.21983
vt 0.12887 0.21910
vt 0.35169 0.59067
vt 0.35732 0.59870
vt 0.34921 0.59131
vt 0.13128 0.21208
vt 0.12888 0.21654
vt 0.12518 0.21152
vt 0.46201 0.52645
vt 0.46982 0.53981
vt 0.46198 0.54208
vt 0.81124 0.44216
vt 0.80762 0.45490
vt 0.80076 0.43886
vt 0.40176 0.60224
vt 0.40937 0.60965
vt 0.40641 0.60958
vt 0.44733 0.52334
vt 0.44773 0.53091
vt 0.44153 0.52593
vt 0.68092 0.97084
vt 0.68173 0.97112
vt 0.68167 0.97349
vt 0.98850 0.86536
vt 0.99379 0.87751
vt 0.98255 0.87712
vt 0.47695 0.53714
vt 0.46982 0.53981
vt 0.46201 0.52645
vt 0.99530 0.43122
vt 0.99447 0.43092
vt 0.99578 0.43073
vt 0.34921 0.59131
vt 0.35732 0.59870
vt 0.35021 0.59943
vt 0.45313 0.53230
vt 0.44773 0.53091
vt 0.44733 0.52334
vt 0.40896 0.59734
vt 0.40176 0.60224
vt 0.40215 0.59767
vt 0.46198 0.54208
vt 0.45543 0.52908
vt 0.46201 0.52645
vt 0.40176 0.60224
vt 0.40641 0.60958
vt 0.40073 0.60990
vt 0.34429 0.59945
vt 0.34386 0.60068
vt 0.33856 0.60062
vt 0.14067 0.22045
vt 0.13514 0.21983
vt 0.12888 0.21654
vt 0.35698 0.59134
vt 0.35732 0.59870
vt 0.35169 0.59067
vt 0.99578 0.43073
vt 0.99447 0.43092
vt 0.99504 0.41941
vt 0.50987 0.37098
vt 0.49120 0.35658
vt 0.50577 0.35590
vt 0.18775 0.98655
vt 0.19926 0.99117
vt 0.18775 0.99185
vt 0.12888 0.21654
vt 0.14445 0.21302
vt 0.14067 0.22045
vt 0.12888 0.21654
vt 0.13128 0.21208
vt 0.13807 0.21272
vt 0.92690 0.79888
vt 0.94329 0.82140
vt 0.92409 0.83473
vt 0.98255 0.87712
vt 0.98324 0.86571
vt 0.98850 0.86536
vt 0.99504 0.41941
vt 0.99597 0.41930
vt 0.99578 0.43073
vt 0.83049 0.69350
vt 0.84776 0.66788
vt 0.86619 0.66969
vt 0.68700 0.97134
vt 0.68735 0.97365
vt 0.68167 0.97349
vt 0.49678 0.36672
vt 0.49120 0.35658
vt 0.50987 0.37098
vt 0.68167 0.97349
vt 0.68173 0.97112
vt 0.68700 0.97134
vt 0.40176 0.60224
vt 0.40073 0.60990
vt 0.39579 0.60958
vt 0.34429 0.59945
vt 0.34921 0.59131
vt 0.35021 0.59943
vt 0.68700 0.97134
vt 0.68738 0.97220
vt 0.68735 0.97365
vt 0.44773 0.53091
vt 0.44603 0.53178
vt 0.44153 0.52593
vt 0.68738 0.97220
vt 0.69230 0.97380
vt 0.68735 0.97365
vt 0.45313 0.53230
vt 0.44603 0.53178
vt 0.44773 0.53091
vt 0.69230 0.97380
vt 0.68738 0.97220
vt 0.69213 0.97210
vt 0.02611 0.99127
vt 0.01550 0.99024
vt 0.02611 0.98997
vt 0.02611 0.99127
vt 0.01603 0.99097
vt 0.01550 0.99024
vt 0.98685 0.01371
vt 0.97693 0.01551
vt 0.97641 0.00961
vt 0.84671 0.69997
vt 0.86422 0.70124
vt 0.85365 0.71259
vt 0.14067 0.22045
vt 0.14445 0.21302
vt 0.14607 0.22074
vt 0.43398 0.53474
vt 0.44153 0.52593
vt 0.44603 0.53178
vt 0.40176 0.60224
vt 0.39575 0.59761
vt 0.40215 0.59767
vt 0.01516 0.99191
vt 0.01550 0.99024
vt 0.01603 0.99097
vt 0.19837 0.98650
vt 0.19926 0.99117
vt 0.18775 0.98655
vt 0.46198 0.54208
vt 0.44566 0.54575
vt 0.45313 0.53230
vt 0.46198 0.54208
vt 0.45313 0.53230
vt 0.45543 0.52908
vt 0.36322 0.59917
vt 0.35732 0.59870
vt 0.35698 0.59134
vt 0.12888 0.21654
vt 0.13807 0.21272
vt 0.14445 0.21302
vt 0.99257 0.18456
vt 0.99384 0.18443
vt 0.99384 0.19003
vt 0.98685 0.01371
vt 0.97641 0.00961
vt 0.98647 0.00812
vt 0.97009 0.15701
vt 0.95920 0.17199
vt 0.95845 0.15264
vt 0.97641 0.00961
vt 0.97651 0.00246
vt 0.98647 0.00812
vt 0.19018 0.95879
vt 0.19000 0.97167
vt 0.18073 0.97114
vt 0.99257 0.18456
vt 0.99384 0.19003
vt 0.99314 0.19309
vt 0.44566 0.54575
vt 0.44603 0.53178
vt 0.45313 0.53230
vt 0.39575 0.59761
vt 0.39579 0.60958
vt 0.38760 0.60719
vt 0.39575 0.59761
vt 0.40176 0.60224
vt 0.39579 0.60958
vt 0.14445 0.21302
vt 0.15856 0.21885
vt 0.14607 0.22074
vt 0.37582 0.61500
vt 0.38151 0.61368
vt 0.38165 0.61605
vt 0.42444 0.52951
vt 0.44153 0.52593
vt 0.43398 0.53474
vt 0.44603 0.53178
vt 0.44344 0.53478
vt 0.43398 0.53474
vt 0.39575 0.59761
vt 0.38760 0.60719
vt 0.38380 0.60603
vt 0.97860 0.00135
vt 0.98659 0.00110
vt 0.97651 0.00246
vt 0.99314 0.19309
vt 0.99384 0.19003
vt 0.99347 0.19705
vt 0.98659 0.00110
vt 0.98647 0.00812
vt 0.97651 0.00246
vt 0.44603 0.53178
vt 0.44566 0.54575
vt 0.44344 0.53478
vt 0.36928 0.59278
vt 0.36322 0.59917
vt 0.35698 0.59134
vt 0.43398 0.53474
vt 0.44344 0.53478
vt 0.43577 0.53953
vt 0.44344 0.53478
vt 0.43998 0.53788
vt 0.43577 0.53953
vt 0.37582 0.61500
vt 0.38380 0.60603
vt 0.38151 0.61368
vt 0.53385 0.00734
vt 0.54071 0.00532
vt 0.54374 0.00706
vt 0.43998 0.53788
vt 0.44344 0.53478
vt 0.44566 0.54575
vt 0.98919 0.77115
vt 0.99289 0.77106
vt 0.99289 0.78053
vt 0.39575 0.59761
vt 0.38380 0.60603
vt 0.38010 0.60344
vt 0.53385 0.00734
vt 0.53372 0.00172
vt 0.54071 0.00532
vt 0.99847 0.23109
vt 0.99847 0.24098
vt 0.99449 0.24040
vt 0.48617 0.00003
vt 0.48321 0.00555
vt 0.48233 0.00003
vt 0.36928 0.59278
vt 0.36909 0.59647
vt 0.36322 0.59917
vt 0.54374 0.00706
vt 0.54071 0.00532
vt 0.54379 0.00521
vt 0.37046 0.61354
vt 0.38380 0.60603
vt 0.37582 0.61500
vt 0.98919 0.77115
vt 0.99289 0.78053
vt 0.98894 0.77372
vt 0.99472 0.79637
vt 0.98913 0.79078
vt 0.99846 0.79142
vt 0.98551 0.77275
vt 0.98919 0.77115
vt 0.98894 0.77372
vt 0.39575 0.59761
vt 0.38010 0.60344
vt 0.37692 0.60160
vt 0.98913 0.79078
vt 0.99472 0.79637
vt 0.98896 0.79704
vt 0.71558 0.99801
vt 0.72117 0.99850
vt 0.71215 0.99897
vt 0.36322 0.59917
vt 0.36909 0.59647
vt 0.36869 0.60018
vt 0.31299 0.98889
vt 0.30897 0.98702
vt 0.31299 0.98704
vt 0.38010 0.60344
vt 0.38380 0.60603
vt 0.37608 0.60203
vt 0.15856 0.21885
vt 0.14445 0.21302
vt 0.16135 0.21332
vt 0.98551 0.77275
vt 0.98547 0.77138
vt 0.98919 0.77115
vt 0.15701 0.95787
vt 0.16484 0.97771
vt 0.15210 0.97300
vt 0.38380 0.60603
vt 0.37046 0.61354
vt 0.37608 0.60203
vt 0.99927 0.22947
vt 0.99911 0.22811
vt 0.99989 0.22750
vt 0.37046 0.61354
vt 0.37000 0.61152
vt 0.37608 0.60203
vt 0.39575 0.59761
vt 0.37692 0.60160
vt 0.37868 0.59607
vt 0.16698 0.95924
vt 0.16603 0.97682
vt 0.16484 0.97771
vt 0.39908 0.06929
vt 0.39908 0.06929
vt 0.39908 0.06929
vt 0.39908 0.06929
vt 0.39908 0.06929
vt 0.39908 0.06929
vt 0.39908 0.06929
vt 0.39908 0.06929
vt 0.39908 0.06929
vt 0.39908 0.06929
vt 0.39908 0.06929
vt 0.39908 0.06929
vt 0.39908 0.06929
vt 0.39908 0.06929
vt 0.39908 0.06929
vt 0.60926 0.28626
vt 0.60926 0.28626
vt 0.60926 0.28626
vt 0.60926 0.28626
vt 0.60926 0.28626
vt 0.60926 0.28626
vt 0.60926 0.28626
vt 0.60926 0.28626
vt 0.60926 0.28626
vt 0.60926 0.28626
vt 0.60926 0.28626
vt 0.60926 0.28626
vt 0.60926 0.28626
vt 0.60926 0.28626
vt 0.60926 0.28626
vt 0.99449 0.24040
vt 0.99449 0.24040
vt 0.99449 0.24040
vt 0.99449 0.24040
vt 0.99449 0.24040
vt 0.99449 0.24040
vt 0.99449 0.24040
vt 0.99449 0.24040
vt 0.99449 0.24040
vt 0.99449 0.24040
vt 0.99449 0.24040
vn 0.4649 -0.8791 -0.1052
vn 0.3472 -0.9355 -0.0662
vn 0.4689 -0.8772 -0.1037
vn 0.3472 -0.9355 -0.0662
vn 0.4752 -0.8280 -0.2977
vn 0.4689 -0.8772 -0.1037
vn 0.1864 0.0056 0.9825
vn 0.3319 -0.9425 -0.0405
vn 0.3472 -0.9355 -0.0662
vn 0.4318 -0.5724 -0.6971
vn 0.3722 -0.9163 -0.1480
vn 0.4306 -0.7898 -0.4368
vn 0.4361 -0.8933 -0.1084
vn 0.4689 -0.8772 -0.1037
vn 0.4493 -0.8598 -0.2427
vn 0.4689 -0.8772 -0.1037
vn 0.4752 -0.8280 -0.2977
vn 0.4493 -0.8598 -0.2427
vn 0.4318 -0.5724 -0.6971
vn 0.4493 -0.8598 -0.2427
vn 0.3722 -0.9163 -0.1480
vn 0.4752 -0.8280 -0.2977
vn 0.3472 -0.9355 -0.0662
vn 0.3319 -0.9425 -0.0405
vn 0.4752 -0.8280 -0.2977
vn 0.3319 -0.9425 -0.0405
vn 0.4582 -0.8535 -0.2483
vn 0.4306 -0.7898 -0.4368
vn 0.3722 -0.9163 -0.1480
vn 0.4420 -0.8193 -0.3653
vn 0.4420 -0.8193 -0.3653
vn 0.3722 -0.9163 -0.1480
vn 0.4493 -0.8598 -0.2427
vn 0.4752 -0.8280 -0.2977
vn 0.4582 -0.8535 -0.2483
vn 0.4493 -0.8598 -0.2427
vn 0.1495 0.1966 -0.9690
vn 0.4306 -0.7898 -0.4368
vn 0.0983 0.1833 -0.9781
vn -0.2346 -0.1691 0.9573
vn 0.3319 -0.9425 -0.0405
vn 0.1864 0.0056 0.9825
vn 0.8674 0.4973 0.0140
vn 0.8803 0.4189 0.2228
vn 0.9737 -0.2170 0.0691
vn 0.9737 -0.2170 0.0691
vn 0.8803 0.4189 0.2228
vn 0.8799 -0.3268 0.3449
vn 0.6522 0.0912 0.7525
vn 0.8799 -0.3268 0.3449
vn 0.8803 0.4189 0.2228
vn 0.8799 -0.3268 0.3449
vn 0.6522 0.0912 0.7525
vn 0.6522 -0.5310 0.5410
vn 0.9737 -0.2170 0.0691
vn 0.8799 -0.3268 0.3449
vn 0.7092 -0.3985 0.5815
vn 0.7092 -0.3985 0.5815
vn 0.6471 -0.7273 -0.2289
vn 0.9737 -0.2170 0.0691
vn 0.6522 -0.5310 0.5410
vn 0.6522 0.0912 0.7525
vn -0.4381 -0.4254 0.7919
vn 0.8803 0.4189 0.2228
vn 0.8674 0.4973 0.0140
vn 0.8029 0.5806 -0.1349
vn 0.6471 -0.7273 -0.2289
vn 0.7092 -0.3985 0.5815
vn 0.5844 -0.4669 0.6638
vn 0.7092 -0.3985 0.5815
vn 0.8799 -0.3268 0.3449
vn 0.5844 -0.4669 0.6638
vn 0.8674 0.4973 0.0140
vn 0.3734 0.5190 -0.7689
vn 0.8029 0.5806 -0.1349
vn 0.8799 -0.3268 0.3449
vn 0.6522 -0.5310 0.5410
vn 0.0761 -0.9621 0.2619
vn 0.0761 -0.9621 0.2619
vn 0.6471 -0.7273 -0.2289
vn 0.5844 -0.4669 0.6638
vn 0.8799 -0.3268 0.3449
vn 0.0761 -0.9621 0.2619
vn 0.5844 -0.4669 0.6638
vn 0.3562 -0.4279 -0.8307
vn 0.9737 -0.2170 0.0691
vn 0.6471 -0.7273 -0.2289
vn 0.3562 -0.4279 -0.8307
vn 0.6471 -0.7273 -0.2289
vn -0.3032 -0.7997 -0.5181
vn 0.4582 -0.8535 -0.2483
vn 0.3319 -0.9425 -0.0405
vn 0.4380 -0.8389 -0.3232
vn 0.4582 -0.8535 -0.2483
vn 0.4380 -0.8389 -0.3232
vn 0.4493 -0.8598 -0.2427
vn 0.4493 -0.8598 -0.2427
vn 0.1385 -0.6548 -0.7430
vn 0.4420 -0.8193 -0.3653
vn 0.9737 -0.2170 0.0691
vn 0.3562 -0.4279 -0.8307
vn 0.8674 0.4973 0.0140
vn -0.2346 -0.1691 0.9573
vn -0.4109 0.5344 0.7386
vn -0.2538 -0.1623 0.9535
vn -0.5368 -0.7796 0.3227
vn 0.0761 -0.9621 0.2619
vn 0.6522 -0.5310 0.5410
vn -0.2538 -0.1623 0.9535
vn 0.3319 -0.9425 -0.0405
vn -0.2346 -0.1691 0.9573
vn 0.3734 0.5190 -0.7689
vn 0.8841 0.0062 -0.4673
vn 0.8029 0.5806 -0.1349
vn 0.8674 0.4973 0.0140
vn 0.3562 -0.4279 -0.8307
vn 0.3734 0.5190 -0.7689
vn -0.1853 0.2110 0.9598
vn 0.6522 0.0912 0.7525
vn 0.8803 0.4189 0.2228
vn 0.8803 0.4189 0.2228
vn 0.8029 0.5806 -0.1349
vn -0.3395 0.4672 0.8164
vn 0.6522 -0.5310 0.5410
vn -0.4381 -0.4254 0.7919
vn -0.5368 -0.7796 0.3227
vn 0.8841 0.0062 -0.4673
vn 0.7613 0.6408 -0.0988
vn 0.8029 0.5806 -0.1349
vn -0.2538 -0.1623 0.9535
vn 0.3336 -0.9412 -0.0528
vn 0.3319 -0.9425 -0.0405
vn 0.3734 0.5190 -0.7689
vn 0.3562 -0.4279 -0.8307
vn 0.8841 0.0062 -0.4673
vn -0.4317 0.5347 0.7264
vn -0.4863 0.8360 0.2541
vn -0.8743 0.4852 -0.0105
vn 0.4306 -0.7898 -0.4368
vn 0.1385 -0.6548 -0.7430
vn -0.1460 -0.8702 -0.4706
vn 0.0983 0.1833 -0.9781
vn 0.4306 -0.7898 -0.4368
vn -0.3838 -0.0845 -0.9195
vn -0.7370 0.3469 -0.5801
vn 0.0983 0.1833 -0.9781
vn -0.3838 -0.0845 -0.9195
vn 0.0761 -0.9621 0.2619
vn -0.5368 -0.7796 0.3227
vn -0.3032 -0.7997 -0.5181
vn 0.4420 -0.8193 -0.3653
vn 0.1385 -0.6548 -0.7430
vn 0.4306 -0.7898 -0.4368
vn 0.6522 0.0912 0.7525
vn -0.1853 0.2110 0.9598
vn -0.4381 -0.4254 0.7919
vn -0.7370 0.3469 -0.5801
vn -0.4863 0.8360 0.2541
vn 0.0983 0.1833 -0.9781
vn 0.0761 -0.9621 0.2619
vn -0.3032 -0.7997 -0.5181
vn 0.6471 -0.7273 -0.2289
vn -0.4863 0.8360 0.2541
vn -0.7370 0.3469 -0.5801
vn -0.8743 0.4852 -0.0105
vn 0.1777 -0.4806 -0.8587
vn 0.8841 0.0062 -0.4673
vn 0.3562 -0.4279 -0.8307
vn -0.5368 -0.7796 0.3227
vn 0.3562 -0.4279 -0.8307
vn -0.3032 -0.7997 -0.5181
vn 0.7641 0.6212 -0.1741
vn 0.7613 0.6408 -0.0988
vn 0.8002 -0.0061 -0.5997
vn -0.3395 0.4672 0.8164
vn -0.1853 0.2110 0.9598
vn 0.8803 0.4189 0.2228
vn 0.1777 -0.4806 -0.8587
vn 0.7613 0.6408 -0.0988
vn 0.8841 0.0062 -0.4673
vn 0.4380 -0.8389 -0.3232
vn 0.4359 -0.8379 -0.3285
vn 0.4493 -0.8598 -0.2427
vn -0.1460 -0.8702 -0.4706
vn 0.1385 -0.6548 -0.7430
vn -0.3171 -0.4801 -0.8179
vn 0.4223 -0.8383 -0.3448
vn 0.4493 -0.8598 -0.2427
vn 0.4359 -0.8379 -0.3285
vn -0.4381 -0.4254 0.7919
vn -0.1853 0.2110 0.9598
vn -0.6649 -0.4427 0.6015
vn 0.4359 -0.8379 -0.3285
vn 0.4380 -0.8389 -0.3232
vn 0.3319 -0.9425 -0.0405
vn -0.1460 -0.8702 -0.4706
vn -0.3838 -0.0845 -0.9195
vn 0.4306 -0.7898 -0.4368
vn 0.7613 0.6408 -0.0988
vn -0.3395 0.4672 0.8164
vn 0.8029 0.5806 -0.1349
vn 0.1777 -0.4806 -0.8587
vn 0.7411 -0.5174 -0.4279
vn 0.7613 0.6408 -0.0988
vn -0.1460 -0.8702 -0.4706
vn -0.5551 -0.6518 -0.5168
vn -0.3838 -0.0845 -0.9195
vn -0.5368 -0.7796 0.3227
vn 0.1777 -0.4806 -0.8587
vn 0.3562 -0.4279 -0.8307
vn 0.7641 0.6212 -0.1741
vn 0.8002 -0.0061 -0.5997
vn 0.7707 0.6267 0.1156
vn -0.5551 -0.6518 -0.5168
vn -0.1460 -0.8702 -0.4706
vn -0.3171 -0.4801 -0.8179
vn -0.4683 0.5145 0.7184
vn -0.4109 0.5344 0.7386
vn -0.4317 0.5347 0.7264
vn 0.3319 -0.9425 -0.0405
vn 0.3336 -0.9412 -0.0528
vn 0.4359 -0.8379 -0.3285
vn -0.6649 -0.4427 0.6015
vn -0.1853 0.2110 0.9598
vn -0.3395 0.4672 0.8164
vn 0.7042 0.0776 -0.7057
vn 0.7613 0.6408 -0.0988
vn 0.7411 -0.5174 -0.4279
vn 0.8002 -0.0061 -0.5997
vn 0.7613 0.6408 -0.0988
vn 0.7042 0.0776 -0.7057
vn -0.3838 -0.0845 -0.9195
vn -0.5551 -0.6518 -0.5168
vn -0.4688 -0.4026 -0.7862
vn 0.5899 -0.7587 -0.2764
vn 0.7042 0.0776 -0.7057
vn 0.7411 -0.5174 -0.4279
vn -0.5551 -0.6518 -0.5168
vn -0.3171 -0.4801 -0.8179
vn -0.4688 -0.4026 -0.7862
vn 0.7613 0.6408 -0.0988
vn -0.2820 0.4775 0.8322
vn -0.3395 0.4672 0.8164
vn -0.4688 -0.4026 -0.7862
vn -0.7370 0.3469 -0.5801
vn -0.3838 -0.0845 -0.9195
vn 0.8002 -0.0061 -0.5997
vn 0.7042 0.0776 -0.7057
vn 0.1247 -0.4899 -0.8628
vn -0.5368 -0.7796 0.3227
vn -0.4381 -0.4254 0.7919
vn -0.6649 -0.4427 0.6015
vn -0.6553 0.5397 0.5285
vn -0.4317 0.5347 0.7264
vn -0.8743 0.4852 -0.0105
vn 0.5899 -0.7587 -0.2764
vn 0.1247 -0.4899 -0.8628
vn 0.7042 0.0776 -0.7057
vn 0.1385 -0.6548 -0.7430
vn 0.1912 0.0358 -0.9809
vn -0.3171 -0.4801 -0.8179
vn 0.5899 -0.7587 -0.2764
vn 0.7411 -0.5174 -0.4279
vn -0.4857 -0.7870 0.3805
vn 0.7613 0.6408 -0.0988
vn 0.7641 0.6212 -0.1741
vn -0.2820 0.4775 0.8322
vn 0.3336 -0.9412 -0.0528
vn -0.2538 -0.1623 0.9535
vn -0.2634 -0.1844 0.9469
vn 0.4223 -0.8383 -0.3448
vn 0.1385 -0.6548 -0.7430
vn 0.4493 -0.8598 -0.2427
vn 0.8915 0.4482 -0.0658
vn 0.7707 0.6267 0.1156
vn 0.9119 -0.0025 -0.4104
vn -0.7370 0.3469 -0.5801
vn -0.4688 -0.4026 -0.7862
vn -0.8590 0.0459 -0.5099
vn 0.7707 0.6267 0.1156
vn 0.8002 -0.0061 -0.5997
vn 0.1247 -0.4899 -0.8628
vn 0.3336 -0.9412 -0.0528
vn 0.3300 -0.9440 -0.0007
vn 0.4359 -0.8379 -0.3285
vn 0.1385 -0.6548 -0.7430
vn 0.4223 -0.8383 -0.3448
vn 0.4978 -0.3563 -0.7907
vn 0.7707 0.6267 0.1156
vn -0.2820 0.4775 0.8322
vn 0.7641 0.6212 -0.1741
vn -0.8743 0.4852 -0.0105
vn -0.8590 0.0459 -0.5099
vn -0.9835 0.1643 -0.0760
vn -0.8113 0.5511 0.1950
vn -0.6553 0.5397 0.5285
vn -0.9835 0.1643 -0.0760
vn -0.8743 0.4852 -0.0105
vn -0.7370 0.3469 -0.5801
vn -0.8590 0.0459 -0.5099
vn -0.4109 0.5344 0.7386
vn -0.4683 0.5145 0.7184
vn -0.2538 -0.1623 0.9535
vn 0.1777 -0.4806 -0.8587
vn -0.5368 -0.7796 0.3227
vn -0.6649 -0.4427 0.6015
vn 0.4223 -0.8383 -0.3448
vn 0.4359 -0.8379 -0.3285
vn 0.4388 -0.5754 0.6902
vn -0.4857 -0.7870 0.3805
vn 0.7411 -0.5174 -0.4279
vn -0.6649 -0.4427 0.6015
vn -0.9835 0.1643 -0.0760
vn -0.6553 0.5397 0.5285
vn -0.8743 0.4852 -0.0105
vn -0.6649 -0.4427 0.6015
vn 0.7411 -0.5174 -0.4279
vn 0.1777 -0.4806 -0.8587
vn 0.1247 -0.4899 -0.8628
vn 0.9119 -0.0025 -0.4104
vn 0.7707 0.6267 0.1156
vn -0.2820 0.4775 0.8322
vn 0.7707 0.6267 0.1156
vn 0.8915 0.4482 -0.0658
vn -0.6553 0.5397 0.5285
vn -0.4683 0.5145 0.7184
vn -0.4317 0.5347 0.7264
vn -0.4688 -0.4026 -0.7862
vn -0.9835 0.1643 -0.0760
vn -0.8590 0.0459 -0.5099
vn 0.5899 -0.7587 -0.2764
vn -0.4857 -0.7870 0.3805
vn 0.1247 -0.4899 -0.8628
vn 0.9119 -0.0025 -0.4104
vn 0.1247 -0.4899 -0.8628
vn 0.2857 -0.5154 -0.8080
vn 0.8915 0.4482 -0.0658
vn 0.9119 -0.0025 -0.4104
vn 0.4468 -0.5010 -0.7412
vn 0.4359 -0.8379 -0.3285
vn 0.3300 -0.9440 -0.0007
vn 0.4388 -0.5754 0.6902
vn 0.9119 -0.0025 -0.4104
vn 0.2857 -0.5154 -0.8080
vn 0.4468 -0.5010 -0.7412
vn -0.2634 -0.1844 0.9469
vn -0.2538 -0.1623 0.9535
vn -0.4683 0.5145 0.7184
vn -0.4683 0.5145 0.7184
vn -0.6553 0.5397 0.5285
vn -0.5076 0.8104 0.2926
vn 0.3300 -0.9440 -0.0007
vn 0.3336 -0.9412 -0.0528
vn -0.2634 -0.1844 0.9469
vn 0.3300 -0.9440 -0.0007
vn 0.3542 -0.9351 -0.0136
vn 0.4388 -0.5754 0.6902
vn -0.8113 0.5511 0.1950
vn -0.5201 0.8205 0.2372
vn -0.6553 0.5397 0.5285
vn 0.0783 0.2565 -0.9634
vn -0.4688 -0.4026 -0.7862
vn -0.3171 -0.4801 -0.8179
vn -0.4857 -0.7870 0.3805
vn 0.4468 -0.5010 -0.7412
vn 0.2857 -0.5154 -0.8080
vn -0.5812 0.8011 0.1429
vn -0.8113 0.5511 0.1950
vn -0.9835 0.1643 -0.0760
vn 0.1912 0.0358 -0.9809
vn 0.1385 -0.6548 -0.7430
vn 0.4978 -0.3563 -0.7907
vn -0.5201 0.8205 0.2372
vn -0.8113 0.5511 0.1950
vn -0.5812 0.8011 0.1429
vn 0.4468 -0.5010 -0.7412
vn 0.8618 0.2518 0.4403
vn 0.8915 0.4482 -0.0658
vn -0.5201 0.8205 0.2372
vn -0.5076 0.8104 0.2926
vn -0.6553 0.5397 0.5285
vn 0.0783 0.2565 -0.9634
vn -0.3171 -0.4801 -0.8179
vn 0.1912 0.0358 -0.9809
vn -0.2212 -0.2291 0.9479
vn 0.3542 -0.9351 -0.0136
vn 0.3300 -0.9440 -0.0007
vn -0.2212 -0.2291 0.9479
vn 0.3300 -0.9440 -0.0007
vn -0.2634 -0.1844 0.9469
vn -0.2820 0.4775 0.8322
vn 0.8915 0.4482 -0.0658
vn -0.3039 0.5149 0.8016
vn 0.3542 -0.9351 -0.0136
vn 0.4978 -0.3563 -0.7907
vn 0.4223 -0.8383 -0.3448
vn -0.6649 -0.4427 0.6015
vn -0.3395 0.4672 0.8164
vn -0.2820 0.4775 0.8322
vn 0.4388 -0.5754 0.6902
vn 0.3542 -0.9351 -0.0136
vn 0.4223 -0.8383 -0.3448
vn 0.8618 0.2518 0.4403
vn -0.3039 0.5149 0.8016
vn 0.8915 0.4482 -0.0658
vn -0.4683 0.5145 0.7184
vn -0.5076 0.8104 0.2926
vn -0.2634 -0.1844 0.9469
vn 0.1247 -0.4899 -0.8628
vn -0.4857 -0.7870 0.3805
vn 0.2857 -0.5154 -0.8080
vn -0.4857 -0.7870 0.3805
vn 0.3141 -0.5125 -0.7992
vn 0.4468 -0.5010 -0.7412
vn -0.4688 -0.4026 -0.7862
vn 0.0783 0.2565 -0.9634
vn -0.5812 0.8011 0.1429
vn -0.6649 -0.4427 0.6015
vn -0.7771 -0.6230 0.0892
vn -0.4857 -0.7870 0.3805
vn 0.4978 -0.3563 -0.7907
vn 0.4884 0.0385 -0.8717
vn 0.1912 0.0358 -0.9809
vn -0.4688 -0.4026 -0.7862
vn -0.5812 0.8011 0.1429
vn -0.9835 0.1643 -0.0760
vn -0.6649 -0.4427 0.6015
vn -0.2820 0.4775 0.8322
vn -0.3039 0.5149 0.8016
vn -0.7771 -0.6230 0.0892
vn -0.6649 -0.4427 0.6015
vn -0.3039 0.5149 0.8016
vn 0.9807 -0.1590 -0.1141
vn 0.4468 -0.5010 -0.7412
vn 0.3141 -0.5125 -0.7992
vn 0.9818 -0.1841 0.0470
vn 0.9346 0.3268 0.1403
vn 0.9807 -0.1590 -0.1141
vn -0.4200 0.5319 0.7353
vn -0.1811 -0.1525 0.9716
vn -0.2212 -0.2291 0.9479
vn 0.9807 -0.1590 -0.1141
vn 0.8618 0.2518 0.4403
vn 0.4468 -0.5010 -0.7412
vn 0.9346 0.3268 0.1403
vn 0.5400 0.2573 0.8014
vn 0.8618 0.2518 0.4403
vn 0.9346 0.3268 0.1403
vn 0.8618 0.2518 0.4403
vn 0.9807 -0.1590 -0.1141
vn -0.4857 -0.7870 0.3805
vn -0.7771 -0.6230 0.0892
vn 0.3141 -0.5125 -0.7992
vn 0.9807 -0.1590 -0.1141
vn 0.9701 -0.1723 -0.1707
vn 0.9818 -0.1841 0.0470
vn 0.9346 0.3268 0.1403
vn 0.7905 0.0081 -0.6124
vn 0.6958 0.6738 -0.2486
vn 0.2858 -0.4929 -0.8218
vn 0.9807 -0.1590 -0.1141
vn 0.3141 -0.5125 -0.7992
vn -0.7771 -0.6230 0.0892
vn 0.2858 -0.4929 -0.8218
vn 0.3141 -0.5125 -0.7992
vn 0.3542 -0.9351 -0.0136
vn -0.1811 -0.1525 0.9716
vn 0.4004 -0.9161 0.0183
vn 0.1814 -0.5694 -0.8018
vn 0.9818 -0.1841 0.0470
vn 0.9701 -0.1723 -0.1707
vn 0.9701 -0.1723 -0.1707
vn 0.9807 -0.1590 -0.1141
vn 0.9489 -0.1139 -0.2942
vn 0.1814 -0.5694 -0.8018
vn 0.9346 0.3268 0.1403
vn 0.9818 -0.1841 0.0470
vn 0.9701 -0.1723 -0.1707
vn 0.9489 -0.1139 -0.2942
vn 0.1814 -0.5694 -0.8018
vn 0.3542 -0.9351 -0.0136
vn -0.2212 -0.2291 0.9479
vn -0.1811 -0.1525 0.9716
vn 0.9807 -0.1590 -0.1141
vn 0.2858 -0.4929 -0.8218
vn 0.9489 -0.1139 -0.2942
vn 0.0783 0.2565 -0.9634
vn 0.1912 0.0358 -0.9809
vn 0.4884 0.0385 -0.8717
vn -0.5201 0.8205 0.2372
vn -0.3990 0.9146 0.0655
vn -0.5076 0.8104 0.2926
vn 0.4884 0.0385 -0.8717
vn 0.4978 -0.3563 -0.7907
vn 0.0783 0.2565 -0.9634
vn 0.3542 -0.9351 -0.0136
vn 0.4399 -0.5494 -0.7104
vn 0.4978 -0.3563 -0.7907
vn -0.5812 0.8011 0.1429
vn -0.3990 0.9146 0.0655
vn -0.5201 0.8205 0.2372
vn -0.7771 -0.6230 0.0892
vn -0.3039 0.5149 0.8016
vn -0.7784 -0.6220 0.0845
vn 0.4978 -0.3563 -0.7907
vn 0.0654 0.2493 -0.9662
vn 0.0783 0.2565 -0.9634
vn -0.4200 0.5319 0.7353
vn -0.2212 -0.2291 0.9479
vn -0.2634 -0.1844 0.9469
vn 0.2858 -0.4929 -0.8218
vn 0.1814 -0.5694 -0.8018
vn 0.9489 -0.1139 -0.2942
vn -0.5076 0.8104 0.2926
vn -0.4200 0.5319 0.7353
vn -0.2634 -0.1844 0.9469
vn 0.4399 -0.5494 -0.7104
vn 0.3542 -0.9351 -0.0136
vn 0.4004 -0.9161 0.0183
vn -0.5812 0.8011 0.1429
vn 0.0783 0.2565 -0.9634
vn -0.5668 0.8228 0.0426
vn 0.9346 0.3268 0.1403
vn -0.3039 0.5149 0.8016
vn 0.5400 0.2573 0.8014
vn -0.3990 0.9146 0.0655
vn -0.7781 0.6182 -0.1110
vn -0.5076 0.8104 0.2926
vn 0.2858 -0.4929 -0.8218
vn -0.7771 -0.6230 0.0892
vn -0.7784 -0.6220 0.0845
vn -0.3039 0.5149 0.8016
vn 0.8618 0.2518 0.4403
vn 0.5400 0.2573 0.8014
vn 0.0783 0.2565 -0.9634
vn 0.0654 0.2493 -0.9662
vn -0.5668 0.8228 0.0426
vn -0.5812 0.8011 0.1429
vn -0.5668 0.8228 0.0426
vn -0.3990 0.9146 0.0655
vn 0.1814 -0.5694 -0.8018
vn 0.7905 0.0081 -0.6124
vn 0.9346 0.3268 0.1403
vn -0.3990 0.9146 0.0655
vn -0.5668 0.8228 0.0426
vn -0.4863 0.8686 0.0951
vn 0.7248 0.6442 -0.2441
vn 0.6958 0.6738 -0.2486
vn 0.7905 0.0081 -0.6124
vn -0.4200 0.5319 0.7353
vn -0.5076 0.8104 0.2926
vn -0.7781 0.6182 -0.1110
vn -0.4863 0.8686 0.0951
vn -0.5668 0.8228 0.0426
vn 0.0654 0.2493 -0.9662
vn 0.6958 0.6738 -0.2486
vn 0.7248 0.6442 -0.2441
vn -0.3280 0.5302 0.7818
vn 0.8366 0.1914 -0.5132
vn 0.8161 -0.0742 -0.5731
vn 0.7248 0.6442 -0.2441
vn 0.9346 0.3268 0.1403
vn 0.6958 0.6738 -0.2486
vn -0.3280 0.5302 0.7818
vn 0.7905 0.0081 -0.6124
vn 0.1814 -0.5694 -0.8018
vn 0.3403 -0.5976 -0.7260
vn 0.7905 0.0081 -0.6124
vn 0.8366 0.1914 -0.5132
vn 0.7248 0.6442 -0.2441
vn 0.7248 0.6442 -0.2441
vn 0.7877 0.5073 -0.3496
vn 0.5849 0.8109 0.0186
vn 0.8161 -0.0742 -0.5731
vn 0.8366 0.1914 -0.5132
vn 0.7664 0.2336 -0.5984
vn -0.8055 -0.5841 0.1004
vn 0.1814 -0.5694 -0.8018
vn 0.2858 -0.4929 -0.8218
vn -0.3280 0.5302 0.7818
vn -0.3039 0.5149 0.8016
vn 0.9346 0.3268 0.1403
vn -0.3990 0.9146 0.0655
vn -0.6209 0.7147 0.3220
vn -0.7781 0.6182 -0.1110
vn -0.3990 0.9146 0.0655
vn -0.4863 0.8686 0.0951
vn -0.6209 0.7147 0.3220
vn 0.7877 0.5073 -0.3496
vn 0.8161 -0.0742 -0.5731
vn 0.7642 0.4078 -0.4997
vn 0.7877 0.5073 -0.3496
vn 0.7248 0.6442 -0.2441
vn 0.8161 -0.0742 -0.5731
vn 0.4978 -0.3563 -0.7907
vn 0.4399 -0.5494 -0.7104
vn 0.0654 0.2493 -0.9662
vn -0.1811 -0.1525 0.9716
vn -0.1941 -0.1134 0.9744
vn 0.4004 -0.9161 0.0183
vn 0.7905 0.0081 -0.6124
vn 0.7664 0.2336 -0.5984
vn 0.8366 0.1914 -0.5132
vn -0.3039 0.5149 0.8016
vn -0.8055 -0.5841 0.1004
vn -0.7784 -0.6220 0.0845
vn -0.8251 -0.1502 0.5447
vn -0.8055 -0.5841 0.1004
vn -0.3039 0.5149 0.8016
vn 0.7642 0.4078 -0.4997
vn 0.8161 -0.0742 -0.5731
vn 0.7664 0.2336 -0.5984
vn 0.5849 0.8109 0.0186
vn 0.7877 0.5073 -0.3496
vn -0.1711 0.9556 0.2400
vn -0.8055 -0.5841 0.1004
vn 0.3403 -0.5976 -0.7260
vn 0.1814 -0.5694 -0.8018
vn -0.4200 0.5319 0.7353
vn -0.1941 -0.1134 0.9744
vn -0.1811 -0.1525 0.9716
vn 0.0654 0.2493 -0.9662
vn 0.4399 -0.5494 -0.7104
vn 0.0979 0.1854 -0.9778
vn -0.7784 -0.6220 0.0845
vn -0.8055 -0.5841 0.1004
vn 0.2858 -0.4929 -0.8218
vn -0.3280 0.5302 0.7818
vn 0.7248 0.6442 -0.2441
vn -0.2651 0.6240 0.7350
vn 0.7248 0.6442 -0.2441
vn 0.5849 0.8109 0.0186
vn -0.2651 0.6240 0.7350
vn -0.1941 -0.1134 0.9744
vn 0.4190 -0.9079 0.0066
vn 0.4004 -0.9161 0.0183
vn -0.3094 0.9294 0.2010
vn -0.1711 0.9556 0.2400
vn 0.7877 0.5073 -0.3496
vn 0.4399 -0.5494 -0.7104
vn 0.4004 -0.9161 0.0183
vn 0.4190 -0.9079 0.0066
vn 0.7429 0.5972 -0.3022
vn 0.7877 0.5073 -0.3496
vn 0.7642 0.4078 -0.4997
vn 0.4500 -0.6107 -0.6515
vn 0.7664 0.2336 -0.5984
vn 0.7905 0.0081 -0.6124
vn -0.3094 0.9294 0.2010
vn 0.7877 0.5073 -0.3496
vn 0.7429 0.5972 -0.3022
vn -0.8251 -0.1502 0.5447
vn -0.8435 -0.5303 0.0849
vn -0.8055 -0.5841 0.1004
vn -0.8251 -0.1502 0.5447
vn -0.3039 0.5149 0.8016
vn -0.3280 0.5302 0.7818
vn -0.8055 -0.5841 0.1004
vn -0.4740 -0.8497 -0.2311
vn 0.3403 -0.5976 -0.7260
vn -0.6804 0.6651 0.3079
vn -0.4200 0.5319 0.7353
vn -0.7781 0.6182 -0.1110
vn -0.3094 0.9294 0.2010
vn 0.7429 0.5972 -0.3022
vn -0.1804 0.9792 0.0925
vn -0.4740 -0.8497 -0.2311
vn -0.4134 -0.9024 -0.1217
vn 0.3403 -0.5976 -0.7260
vn 0.7664 0.2336 -0.5984
vn 0.7788 -0.0543 -0.6250
vn 0.7642 0.4078 -0.4997
vn 0.0654 0.2493 -0.9662
vn 0.0979 0.1854 -0.9778
vn -0.4863 0.8686 0.0951
vn -0.2651 0.6240 0.7350
vn -0.6504 -0.7192 0.2445
vn -0.3280 0.5302 0.7818
vn 0.4500 -0.6107 -0.6515
vn 0.7905 0.0081 -0.6124
vn 0.3403 -0.5976 -0.7260
vn -0.6209 0.7147 0.3220
vn -0.7582 0.6518 -0.0133
vn -0.7781 0.6182 -0.1110
vn -0.4134 -0.9024 -0.1217
vn 0.4500 -0.6107 -0.6515
vn 0.3403 -0.5976 -0.7260
vn 0.6512 0.0745 -0.7553
vn 0.7429 0.5972 -0.3022
vn 0.7642 0.4078 -0.4997
vn -0.8251 -0.1502 0.5447
vn -0.3280 0.5302 0.7818
vn -0.6504 -0.7192 0.2445
vn -0.7582 0.6518 -0.0133
vn -0.6804 0.6651 0.3079
vn -0.7781 0.6182 -0.1110
vn -0.8435 -0.5303 0.0849
vn -0.4740 -0.8497 -0.2311
vn -0.8055 -0.5841 0.1004
vn -0.1711 0.9556 0.2400
vn -0.2651 0.6240 0.7350
vn 0.5849 0.8109 0.0186
vn 0.0364 0.2248 -0.9737
vn -0.4863 0.8686 0.0951
vn 0.0979 0.1854 -0.9778
vn 0.7429 0.5972 -0.3022
vn 0.6512 0.0745 -0.7553
vn 0.7788 -0.0543 -0.6250
vn 0.7429 0.5972 -0.3022
vn 0.7788 -0.0543 -0.6250
vn 0.7677 -0.0992 -0.6331
vn 0.7788 -0.0543 -0.6250
vn 0.6512 0.0745 -0.7553
vn 0.7642 0.4078 -0.4997
vn 0.7429 0.5972 -0.3022
vn 0.7677 -0.0992 -0.6331
vn 0.7321 0.5958 -0.3302
vn -0.8251 -0.1502 0.5447
vn -0.6504 -0.7192 0.2445
vn -0.7901 -0.5933 0.1539
vn -0.8165 -0.5662 0.1130
vn -0.8435 -0.5303 0.0849
vn -0.8251 -0.1502 0.5447
vn 0.7788 -0.0543 -0.6250
vn 0.7664 0.2336 -0.5984
vn 0.4500 -0.6107 -0.6515
vn -0.4784 0.8607 0.1744
vn -0.1941 -0.1134 0.9744
vn -0.4200 0.5319 0.7353
vn -0.6804 0.6651 0.3079
vn -0.4784 0.8607 0.1744
vn -0.4200 0.5319 0.7353
vn 0.4500 -0.6107 -0.6515
vn -0.4134 -0.9024 -0.1217
vn 0.2277 -0.7770 -0.5868
vn -0.7901 -0.5933 0.1539
vn -0.8165 -0.5662 0.1130
vn -0.8251 -0.1502 0.5447
vn 0.7429 0.5972 -0.3022
vn 0.7321 0.5958 -0.3302
vn -0.1804 0.9792 0.0925
vn -0.4933 0.8519 0.1758
vn -0.7582 0.6518 -0.0133
vn -0.6209 0.7147 0.3220
vn -0.8165 -0.5662 0.1130
vn -0.7901 -0.5933 0.1539
vn -0.8358 -0.0626 0.5454
vn -0.8657 -0.4358 0.2463
vn -0.6504 -0.7192 0.2445
vn -0.2651 0.6240 0.7350
vn 0.7747 0.4567 -0.4374
vn 0.7321 0.5958 -0.3302
vn 0.7677 -0.0992 -0.6331
vn -0.6209 0.7147 0.3220
vn -0.4863 0.8686 0.0951
vn -0.4933 0.8519 0.1758
vn -0.6804 0.6651 0.3079
vn -0.7582 0.6518 -0.0133
vn -0.4366 0.8988 0.0399
vn -0.1711 0.9556 0.2400
vn -0.7811 0.5289 0.3318
vn -0.2651 0.6240 0.7350
vn 0.7677 -0.0992 -0.6331
vn 0.6699 -0.0458 -0.7411
vn 0.7747 0.4567 -0.4374
vn -0.6504 -0.7192 0.2445
vn -0.8657 -0.4358 0.2463
vn -0.7901 -0.5933 0.1539
vn -0.8657 -0.4358 0.2463
vn -0.2651 0.6240 0.7350
vn -0.8812 -0.4670 0.0734
vn -0.7901 -0.5933 0.1539
vn -0.8657 -0.4358 0.2463
vn -0.8173 -0.5631 0.1223
vn 0.4399 -0.5494 -0.7104
vn 0.2579 -0.6498 -0.7150
vn 0.4018 -0.4734 -0.7838
vn 0.2277 -0.7770 -0.5868
vn 0.7788 -0.0543 -0.6250
vn 0.4500 -0.6107 -0.6515
vn -0.4740 -0.8497 -0.2311
vn 0.2277 -0.7770 -0.5868
vn -0.4134 -0.9024 -0.1217
vn 0.7747 0.4567 -0.4374
vn -0.3998 0.8000 0.4474
vn 0.7321 0.5958 -0.3302
vn -0.8165 -0.5662 0.1130
vn -0.4740 -0.8497 -0.2311
vn -0.8435 -0.5303 0.0849
vn 0.7788 -0.0543 -0.6250
vn 0.1813 -0.7866 -0.5903
vn 0.0856 -0.7920 -0.6045
vn -0.4933 0.8519 0.1758
vn -0.4863 0.8686 0.0951
vn 0.0364 0.2248 -0.9737
vn -0.8358 -0.0626 0.5454
vn -0.7901 -0.5933 0.1539
vn -0.8173 -0.5631 0.1223
vn 0.7747 0.4567 -0.4374
vn 0.6814 -0.0599 -0.7294
vn 0.7411 0.5153 -0.4304
vn -0.8657 -0.4358 0.2463
vn -0.8812 -0.4670 0.0734
vn -0.8173 -0.5631 0.1223
vn -0.8812 -0.4670 0.0734
vn -0.2651 0.6240 0.7350
vn -0.7811 0.5289 0.3318
vn 0.2277 -0.7770 -0.5868
vn 0.1813 -0.7866 -0.5903
vn 0.7788 -0.0543 -0.6250
vn -0.1711 0.9556 0.2400
vn -0.3094 0.9294 0.2010
vn -0.7811 0.5289 0.3318
vn 0.7321 0.5958 -0.3302
vn -0.3998 0.8000 0.4474
vn -0.3710 0.8411 0.3937
vn 0.6699 -0.0458 -0.7411
vn 0.6814 -0.0599 -0.7294
vn 0.7747 0.4567 -0.4374
vn -0.8165 -0.5662 0.1130
vn -0.8358 -0.0626 0.5454
vn -0.7976 -0.5625 0.2177
vn 0.0856 -0.7920 -0.6045
vn 0.7677 -0.0992 -0.6331
vn 0.7788 -0.0543 -0.6250
vn -0.8358 -0.0626 0.5454
vn -0.8173 -0.5631 0.1223
vn -0.8199 -0.5635 0.1017
vn -0.1804 0.9792 0.0925
vn -0.5881 0.7991 0.1247
vn -0.3094 0.9294 0.2010
vn 0.1813 -0.7866 -0.5903
vn 0.2277 -0.7770 -0.5868
vn -0.4740 -0.8497 -0.2311
vn 0.7411 0.5153 -0.4304
vn -0.3998 0.8000 0.4474
vn 0.7747 0.4567 -0.4374
vn -0.7811 0.5289 0.3318
vn -0.3094 0.9294 0.2010
vn -0.8610 -0.3710 -0.3480
vn 0.4399 -0.5494 -0.7104
vn 0.0364 0.2248 -0.9737
vn 0.0979 0.1854 -0.9778
vn -0.5881 0.7991 0.1247
vn -0.8610 -0.3710 -0.3480
vn -0.3094 0.9294 0.2010
vn -0.4740 -0.8497 -0.2311
vn -0.8038 -0.4529 0.3857
vn 0.1813 -0.7866 -0.5903
vn -0.4740 -0.8497 -0.2311
vn -0.8165 -0.5662 0.1130
vn -0.7976 -0.5625 0.2177
vn -0.7240 0.6844 0.0865
vn -0.2054 -0.2154 0.9547
vn -0.1941 -0.1134 0.9744
vn -0.7811 0.5289 0.3318
vn -0.9604 -0.2235 -0.1662
vn -0.8812 -0.4670 0.0734
vn -0.8610 -0.3710 -0.3480
vn -0.9604 -0.2235 -0.1662
vn -0.7811 0.5289 0.3318
vn 0.4399 -0.5494 -0.7104
vn 0.4190 -0.9079 0.0066
vn -0.1825 -0.9701 -0.1597
vn -0.9604 -0.2235 -0.1662
vn -0.8199 -0.5635 0.1017
vn -0.8173 -0.5631 0.1223
vn 0.4018 -0.4734 -0.7838
vn 0.0364 0.2248 -0.9737
vn 0.4399 -0.5494 -0.7104
vn -0.8173 -0.5631 0.1223
vn -0.8812 -0.4670 0.0734
vn -0.9604 -0.2235 -0.1662
vn -0.8358 -0.0626 0.5454
vn -0.8199 -0.5635 0.1017
vn -0.8737 -0.4116 0.2591
vn -0.1804 0.9792 0.0925
vn 0.7321 0.5958 -0.3302
vn -0.3710 0.8411 0.3937
vn -0.9604 -0.2235 -0.1662
vn -0.8610 -0.3710 -0.3480
vn -0.8199 -0.5635 0.1017
vn 0.6814 -0.0599 -0.7294
vn 0.7005 -0.1292 -0.7019
vn 0.7411 0.5153 -0.4304
vn -0.8610 -0.3710 -0.3480
vn -0.8737 -0.4116 0.2591
vn -0.8199 -0.5635 0.1017
vn 0.6699 -0.0458 -0.7411
vn 0.7005 -0.1292 -0.7019
vn 0.6814 -0.0599 -0.7294
vn -0.8737 -0.4116 0.2591
vn -0.8610 -0.3710 -0.3480
vn -0.9768 -0.2022 -0.0701
vn -0.1804 0.9792 0.0925
vn -0.9768 -0.2022 -0.0701
vn -0.5881 0.7991 0.1247
vn -0.1804 0.9792 0.0925
vn -0.9864 0.0479 -0.1570
vn -0.9768 -0.2022 -0.0701
vn -0.9864 0.0479 -0.1570
vn -0.1804 0.9792 0.0925
vn -0.3710 0.8411 0.3937
vn 0.4018 -0.4734 -0.7838
vn 0.3131 -0.4377 -0.8428
vn 0.0364 0.2248 -0.9737
vn 0.1813 -0.7866 -0.5903
vn -0.8038 -0.4529 0.3857
vn 0.0856 -0.7920 -0.6045
vn 0.9799 -0.1600 -0.1189
vn 0.7411 0.5153 -0.4304
vn 0.7005 -0.1292 -0.7019
vn -0.8358 -0.0626 0.5454
vn -0.8038 -0.4529 0.3857
vn -0.7976 -0.5625 0.2177
vn -0.8737 -0.4116 0.2591
vn -0.9768 -0.2022 -0.0701
vn -0.9864 0.0479 -0.1570
vn -0.9768 -0.2022 -0.0701
vn -0.8610 -0.3710 -0.3480
vn -0.5881 0.7991 0.1247
vn 0.0856 -0.7920 -0.6045
vn -0.2672 -0.5723 -0.7753
vn 0.6699 -0.0458 -0.7411
vn 0.0856 -0.7920 -0.6045
vn 0.6699 -0.0458 -0.7411
vn 0.7677 -0.0992 -0.6331
vn -0.2177 0.8059 0.5506
vn -0.3998 0.8000 0.4474
vn 0.7411 0.5153 -0.4304
vn -0.4740 -0.8497 -0.2311
vn -0.7976 -0.5625 0.2177
vn -0.8038 -0.4529 0.3857
vn -0.8737 -0.4116 0.2591
vn -0.9864 0.0479 -0.1570
vn -0.8541 -0.1788 0.4885
vn -0.9864 0.0479 -0.1570
vn -0.3710 0.8411 0.3937
vn -0.8541 -0.1788 0.4885
vn -0.1825 -0.9701 -0.1597
vn 0.4190 -0.9079 0.0066
vn -0.2054 -0.2154 0.9547
vn -0.3710 0.8411 0.3937
vn -0.3998 0.8000 0.4474
vn -0.8541 -0.1788 0.4885
vn -0.2054 -0.2154 0.9547
vn 0.4190 -0.9079 0.0066
vn -0.1941 -0.1134 0.9744
vn -0.8737 -0.4116 0.2591
vn -0.8541 -0.1788 0.4885
vn -0.8028 -0.3220 0.5019
vn -0.2672 -0.5723 -0.7753
vn 0.7005 -0.1292 -0.7019
vn 0.6699 -0.0458 -0.7411
vn -0.8038 -0.4529 0.3857
vn -0.8737 -0.4116 0.2591
vn -0.8028 -0.3220 0.5019
vn -0.8038 -0.4529 0.3857
vn -0.8358 -0.0626 0.5454
vn -0.8737 -0.4116 0.2591
vn -0.8038 -0.4529 0.3857
vn -0.2672 -0.5723 -0.7753
vn 0.0856 -0.7920 -0.6045
vn -0.2177 0.8059 0.5506
vn -0.8722 0.2054 0.4439
vn -0.3998 0.8000 0.4474
vn 0.2293 0.5230 -0.8209
vn 0.7411 0.5153 -0.4304
vn 0.9799 -0.1600 -0.1189
vn 0.7005 -0.1292 -0.7019
vn 0.6888 -0.1571 -0.7077
vn 0.9799 -0.1600 -0.1189
vn -0.8038 -0.4529 0.3857
vn -0.8028 -0.3220 0.5019
vn -0.7370 0.1202 0.6652
vn -0.8722 0.2054 0.4439
vn -0.7370 0.1202 0.6652
vn -0.3998 0.8000 0.4474
vn -0.8028 -0.3220 0.5019
vn -0.8541 -0.1788 0.4885
vn -0.7370 0.1202 0.6652
vn -0.7370 0.1202 0.6652
vn -0.8541 -0.1788 0.4885
vn -0.3998 0.8000 0.4474
vn 0.7005 -0.1292 -0.7019
vn -0.2672 -0.5723 -0.7753
vn 0.6888 -0.1571 -0.7077
vn 0.2293 0.5230 -0.8209
vn -0.2177 0.8059 0.5506
vn 0.7411 0.5153 -0.4304
vn 0.9799 -0.1600 -0.1189
vn 0.6888 -0.1571 -0.7077
vn 0.1645 -0.9855 -0.0425
vn 0.6888 -0.1571 -0.7077
vn 0.4172 -0.2879 -0.8620
vn 0.1645 -0.9855 -0.0425
vn -0.2177 0.8059 0.5506
vn -0.7370 0.1202 0.6652
vn -0.8722 0.2054 0.4439
vn 0.9047 0.3714 -0.2088
vn 0.9799 -0.1600 -0.1189
vn 0.6811 -0.7291 0.0677
vn 0.4172 -0.2879 -0.8620
vn 0.6888 -0.1571 -0.7077
vn -0.2672 -0.5723 -0.7753
vn -0.1905 0.8158 -0.5461
vn 0.2293 0.5230 -0.8209
vn 0.9799 -0.1600 -0.1189
vn -0.8038 -0.4529 0.3857
vn -0.7370 0.1202 0.6652
vn -0.7553 0.0090 0.6553
vn 0.9047 0.3714 -0.2088
vn 0.3693 0.7105 -0.5990
vn 0.9799 -0.1600 -0.1189
vn 0.9047 0.3714 -0.2088
vn 0.6811 -0.7291 0.0677
vn 0.2662 -0.8437 -0.4662
vn 0.4172 -0.2879 -0.8620
vn -0.7238 -0.6888 -0.0407
vn 0.1645 -0.9855 -0.0425
vn 0.2293 0.5230 -0.8209
vn -0.1905 0.8158 -0.5461
vn -0.2177 0.8059 0.5506
vn 0.6811 -0.7291 0.0677
vn 0.9799 -0.1600 -0.1189
vn 0.1645 -0.9855 -0.0425
vn -0.5506 0.8332 0.0508
vn -0.7370 0.1202 0.6652
vn -0.2177 0.8059 0.5506
vn -0.1905 0.8158 -0.5461
vn 0.9799 -0.1600 -0.1189
vn 0.3693 0.7105 -0.5990
vn -0.9468 -0.1049 -0.3043
vn 0.4172 -0.2879 -0.8620
vn -0.2672 -0.5723 -0.7753
vn -0.1195 0.6200 -0.7754
vn -0.1905 0.8158 -0.5461
vn 0.3693 0.7105 -0.5990
vn -0.8038 -0.4529 0.3857
vn -0.7553 0.0090 0.6553
vn -0.7238 -0.6888 -0.0407
vn 0.4172 -0.2879 -0.8620
vn -0.9468 -0.1049 -0.3043
vn -0.7238 -0.6888 -0.0407
vn 0.3693 0.7105 -0.5990
vn 0.9047 0.3714 -0.2088
vn -0.1195 0.6200 -0.7754
vn -0.2177 0.8059 0.5506
vn -0.1905 0.8158 -0.5461
vn -0.5506 0.8332 0.0508
vn 0.1645 -0.9855 -0.0425
vn 0.2662 -0.8437 -0.4662
vn 0.6811 -0.7291 0.0677
vn -0.7553 0.0090 0.6553
vn -0.7370 0.1202 0.6652
vn -0.7738 -0.4426 0.4531
vn -0.2672 -0.5723 -0.7753
vn -0.8038 -0.4529 0.3857
vn -0.9468 -0.1049 -0.3043
vn -0.1195 0.6200 -0.7754
vn -0.5506 0.8332 0.0508
vn -0.1905 0.8158 -0.5461
vn 0.1433 0.4173 -0.8974
vn -0.1195 0.6200 -0.7754
vn 0.9047 0.3714 -0.2088
vn -0.7370 0.1202 0.6652
vn -0.5506 0.8332 0.0508
vn -0.7738 -0.4426 0.4531
vn -0.5506 0.8332 0.0508
vn -0.1195 0.6200 -0.7754
vn -0.4875 0.6278 0.6068
vn -0.5506 0.8332 0.0508
vn -0.4875 0.6278 0.6068
vn -0.7738 -0.4426 0.4531
vn -0.8038 -0.4529 0.3857
vn -0.7238 -0.6888 -0.0407
vn -0.9468 -0.1049 -0.3043
vn -0.6985 0.6871 -0.1997
vn -0.4875 0.6278 0.6068
vn -0.1195 0.6200 -0.7754
vn 0.0000 1.0000 0.0000
vn 0.0000 1.0000 0.0000
vn 0.0000 1.0000 0.0000
vn 0.0000 1.0000 0.0000
vn 0.0000 1.0000 0.0000
vn 0.0000 1.0000 0.0000
vn 0.0000 1.0000 0.0000
vn 0.0000 1.0000 0.0000
vn 0.0000 1.0000 0.0000
vn 0.0000 1.0000 0.0000
vn 0.0000 1.0000 0.0000
vn 0.0000 1.0000 0.0000
vn 0.0000 1.0000 0.0000
vn 0.0000 1.0000 0.0000
vn 0.0000 1.0000 0.0000
vn 0.0000 1.0000 0.0000
vn 0.0000 1.0000 0.0000
vn 0.0000 1.0000 0.0000
vn 0.0000 1.0000 0.0000
vn 0.0000 1.0000 0.0000
vn 0.0000 1.0000 0.0000
vn 0.0000 1.0000 0.0000
vn 0.0000 1.0000 0.0000
vn 0.0000 1.0000 0.0000
vn 0.0000 1.0000 0.0000
vn 0.0000 1.0000 0.0000
vn 0.0000 1.0000 0.0000
vn 0.0000 1.0000 0.0000
vn 0.0000 1.0000 0.0000
vn 0.0000 1.0000 0.0000
vn 0.0000 1.0000 0.0000
vn 0.0000 1.0000 0.0000
vn 0.0000 1.0000 0.0000
vn 0.0000 1.0000 0.0000
vn 0.0000 1.0000 0.0000
vn 0.0000 1.0000 0.0000
vn 0.0000 1.0000 0.0000
vn 0.0000 1.0000 0.0000
vn 0.0000 1.0000 0.0000
vn 0.0000 1.0000 0.0000
vn 0.0000 1.0000 0.0000
f 1/1/1 2/2/2 3/3/3
f 4/4/4 5/5/5 6/6/6
f 7/7/7 8/8/8 9/9/9
f 10/10/10 11/11/11 12/12/12
f 13/13/13 14/14/14 15/15/15
f 16/16/16 17/17/17 18/18/18
f 19/19/19 20/20/20 21/21/21
f 22/22/22 23/23/23 24/24/24
f 25/25/25 26/26/26 27/27/27
f 28/28/28 29/29/29 30/30/30
f 31/31/31 32/32/32 33/33/33
f 34/34/34 35/35/35 36/36/36
f 37/37/37 38/38/38 39/39/39
f 40/40/40 41/41/41 42/42/42
f 43/43/43 44/44/44 45/45/45
f 46/46/46 47/47/47 48/48/48
f 49/49/49 50/50/50 51/51/51
f 52/52/52 53/53/53 54/54/54
f 55/55/55 56/56/56 57/57/57
f 58/58/58 59/59/59 60/60/60
f 61/61/61 62/62/62 63/63/63
f 64/64/64 65/65/65 66/66/66
f 67/67/67 68/68/68 69/69/69
f 70/70/70 71/71/71 72/72/72
f 73/73/73 74/74/74 75/75/75
f 76/76/76 77/77/77 78/78/78
f 79/79/79 80/80/80 81/81/81
f 82/82/82 83/83/83 84/84/84
f 85/85/85 86/86/86 87/87/87
f 88/88/88 89/89/89 90/90/90
f 91/91/91 92/92/92 93/93/93
f 94/94/94 95/95/95 96/96/96
f 97/97/97 98/98/98 99/99/99
f 100/100/100 101/101/101 102/102/102
f 103/103/103 104/104/104 105/105/105
f 106/106/106 107/107/107 108/108/108
f 109/109/109 110/110/110 111/111/111
f 112/112/112 113/113/113 114/114/114
f 115/115/115 116/116/116 117/117/117
f 118/118/118 119/119/119 120/120/120
f 121/121/121 122/122/122 123/123/123
f 124/124/124 125/125/125 126/126/126
f 127/127/127 128/128/128 129/129/129
f 130/130/130 131/131/131 132/132/132
f 133/133/133 134/134/134 135/135/135
f 136/136/136 137/137/137 138/138/138
f 139/139/139 140/140/140 141/141/141
f 142/142/142 143/143/143 144/144/144
f 145/145/145 146/146/146 147/147/147
f 148/148/148 149/149/149 150/150/150
f 151/151/151 152/152/152 153/153/153
f 154/154/154 155/155/155 156/156/156
f 157/157/157 158/158/158 159/159/159
f 160/160/160 161/161/161 162/162/162
f 163/163/163 164/164/164 165/165/165
f 166/166/166 167/167/167 168/168/168
f 169/169/169 170/170/170 171/171/171
f 172/172/172 173/173/173 174/174/174
f 175/175/175 176/176/176 177/177/177
f 178/178/178 179/179/179 180/180/180
f 181/181/181 182/182/182 183/183/183
f 184/184/184 185/185/185 186/186/186
f 187/187/187 188/188/188 189/189/189
f 190/190/190 191/191/191 192/192/192
f 193/193/193 194/194/194 195/195/195
f 196/196/196 197/197/197 198/198/198
f 199/199/199 200/200/200 201/201/201
f 202/202/202 203/203/203 204/204/204
f 205/205/205 206/206/206 207/207/207
f 208/208/208 209/209/209 210/210/210
f 211/211/211 212/212/212 213/213/213
f 214/214/214 215/215/215 216/216/216
f 217/217/217 218/218/218 219/219/219
f 220/220/220 221/221/221 222/222/222
f 223/223/223 224/224/224 225/225/225
f 226/226/226 227/227/227 228/228/228
f 229/229/229 230/230/230 231/231/231
f 232/232/232 233/233/233 234/234/234
f 235/235/235 236/236/236 237/237/237
f 238/238/238 239/239/239 240/240/240
f 241/241/241 242/242/242 243/243/243
f 244/244/244 245/245/245 246/246/246
f 247/247/247 248/248/248 249/249/249
f 250/250/250 251/251/251 252/252/252
f 253/253/253 254/254/254 255/255/255
f 256/256/256 257/257/257 258/258/258
f 259/259/259 260/260/260 261/261/261
f 262/262/262 263/263/263 264/264/264
f 265/265/265 266/266/266 267/267/267
f 268/268/268 269/269/269 270/270/270
f 271/271/271 272/272/272 273/273/273
f 274/274/274 275/275/275 276/276/276
f 277/277/277 278/278/278 279/279/279
f 280/280/280 281/281/281 282/282/282
f 283/283/283 284/284/284 285/285/285
f 286/286/286 287/287/287 288/288/288
f 289/289/289 290/290/290 291/291/291
f 292/292/292 293/293/293 294/294/294
f 295/295/295 296/296/296 297/297/297
f 298/298/298 299/299/299 300/300/300
f 301/301/301 302/302/302 303/303/303
f 304/304/304 305/305/305 306/306/306
f 307/307/307 308/308/308 309/309/309
f 310/310/310 311/311/311 312/312/312
f 313/313/313 314/314/314 315/315/315
f 316/316/316 317/317/317 318/318/318
f 319/319/319 320/320/320 321/321/321
f 322/322/322 323/323/323 324/324/324
f 325/325/325 326/326/326 327/327/327
f 328/328/328 329/329/329 330/330/330
f 331/331/331 332/332/332 333/333/333
f 334/334/334 335/335/335 336/336/336
f 337/337/337 338/338/338 339/339/339
f 340/340/340 341/341/341 342/342/342
f 343/343/343 344/344/344 345/345/345
f 346/346/346 347/347/347 348/348/348
f 349/349/349 350/350/350 351/351/351
f 352/352/352 353/353/353 354/354/354
f 355/355/355 356/356/356 357/357/357
f 358/358/358 359/359/359 360/360/360
f 361/361/361 362/362/362 363/363/363
f 364/364/364 365/365/365 366/366/366
f 367/367/367 368/368/368 369/369/369
f 370/370/370 371/371/371 372/372/372
f 373/373/373 374/374/374 375/375/375
f 376/376/376 377/377/377 378/378/378
f 379/379/379 380/380/380 381/381/381
f 382/382/382 383/383/383 384/384/384
f 385/385/385 386/386/386 387/387/387
f 388/388/388 389/389/389 390/390/390
f 391/391/391 392/392/392 393/393/393
f 394/394/394 395/395/395 396/396/396
f 397/397/397 398/398/398 399/399/399
f 400/400/400 401/401/401 402/402/402
f 403/403/403 404/404/404 405/405/405
f 406/406/406 407/407/407 408/408/408
f 409/409/409 410/410/410 411/411/411
f 412/412/412 413/413/413 414/414/414
f 415/415/415 416/416/416 417/417/417
f 418/418/418 419/419/419 420/420/420
f 421/421/421 422/422/422 423/423/423
f 424/424/424 425/425/425 426/426/426
f 427/427/427 428/428/428 429/429/429
f 430/430/430 431/431/431 432/432/432
f 433/433/433 434/434/434 435/435/435
f 436/436/436 437/437/437 438/438/438
f 439/439/439 440/440/440 441/441/441
f 442/442/442 443/443/443 444/444/444
f 445/445/445 446/446/446 447/447/447
f 448/448/448 449/449/449 450/450/450
f 451/451/451 452/452/452 453/453/453
f 454/454/454 455/455/455 456/456/456
f 457/457/457 458/458/458 459/459/459
f 460/460/460 461/461/461 462/462/462
f 463/463/463 464/464/464 465/465/465
f 466/466/466 467/467/467 468/468/468
f 469/469/469 470/470/470 471/471/471
f 472/472/472 473/473/473 474/474/474
f 475/475/475 476/476/476 477/477/477
f 478/478/478 479/479/479 480/480/480
f 481/481/481 482/482/482 483/483/483
f 484/484/484 485/485/485 486/486/486
f 487/487/487 488/488/488 489/489/489
f 490/490/490 491/491/491 492/492/492
f 493/493/493 494/494/494 495/495/495
f 496/496/496 497/497/497 498/498/498
f 499/499/499 500/500/500 501/501/501
f 502/502/502 503/503/503 504/504/504
f 505/505/505 506/506/506 507/507/507
f 508/508/508 509/509/509 510/510/510
f 511/511/511 512/512/512 513/513/513
f 514/514/514 515/515/515 516/516/516
f 517/517/517 518/518/518 519/519/519
f 520/520/520 521/521/521 522/522/522
f 523/523/523 524/524/524 525/525/525
f 526/526/526 527/527/527 528/528/528
f 529/529/529 530/530/530 531/531/531
f 532/532/532 533/533/533 534/534/534
f 535/535/535 536/536/536 537/537/537
f 538/538/538 539/539/539 540/540/540
f 541/541/541 542/542/542 543/543/543
f 544/544/544 545/545/545 546/546/546
f 547/547/547 548/548/548 549/549/549
f 550/550/550 551/551/551 552/552/552
f 553/553/553 554/554/554 555/555/555
f 556/556/556 557/557/557 558/558/558
f 559/559/559 560/560/560 561/561/561
f 562/562/562 563/563/563 564/564/564
f 565/565/565 566/566/566 567/567/567
f 568/568/568 569/569/569 570/570/570
f 571/571/571 572/572/572 573/573/573
f 574/574/574 575/575/575 576/576/576
f 577/577/577 578/578/578 579/579/579
f 580/580/580 581/581/581 582/582/582
f 583/583/583 584/584/584 585/585/585
f 586/586/586 587/587/587 588/588/588
f 589/589/589 590/590/590 591/591/591
f 592/592/592 593/593/593 594/594/594
f 595/595/595 596/596/596 597/597/597
f 598/598/598 599/599/599 600/600/600
f 601/601/601 602/602/602 603/603/603
f 604/604/604 605/605/605 606/606/606
f 607/607/607 608/608/608 609/609/609
f 610/610/610 611/611/611 612/612/612
f 613/613/613 614/614/614 615/615/615
f 616/616/616 617/617/617 618/618/618
f 619/619/619 620/620/620 621/621/621
f 622/622/622 623/623/623 624/624/624
f 625/625/625 626/626/626 627/627/627
f 628/628/628 629/629/629 630/630/630
f 631/631/631 632/632/632 633/633/633
f 634/634/634 635/635/635 636/636/636
f 637/637/637 638/638/638 639/639/639
f 640/640/640 641/641/641 642/642/642
f 643/643/643 644/644/644 645/645/645
f 646/646/646 647/647/647 648/648/648
f 649/649/649 650/650/650 651/651/651
f 652/652/652 653/653/653 654/654/654
f 655/655/655 656/656/656 657/657/657
f 658/658/658 659/659/659 660/660/660
f 661/661/661 662/662/662 663/663/663
f 664/664/664 665/665/665 666/666/666
f 667/667/667 668/668/668 669/669/669
f 670/670/670 671/671/671 672/672/672
f 673/673/673 674/674/674 675/675/675
f 676/676/676 677/677/677 678/678/678
f 679/679/679 680/680/680 681/681/681
f 682/682/682 683/683/683 684/684/684
f 685/685/685 686/686/686 687/687/687
f 688/688/688 689/689/689 690/690/690
f 691/691/691 692/692/692 693/693/693
f 694/694/694 695/695/695 696/696/696
f 697/697/697 698/698/698 699/699/699
f 700/700/700 701/701/701 702/702/702
f 703/703/703 704/704/704 705/705/705
f 706/706/706 707/707/707 708/708/708
f 709/709/709 710/710/710 711/711/711
f 712/712/712 713/713/713 714/714/714
f 715/715/715 716/716/716 717/717/717
f 718/718/718 719/719/719 720/720/720
f 721/721/721 722/722/722 723/723/723
f 724/724/724 725/725/725 726/726/726
f 727/727/727 728/728/728 729/729/729
f 730/730/730 731/731/731 732/732/732
f 733/733/733 734/734/734 735/735/735
f 736/736/736 737/737/737 738/738/738
f 739/739/739 740/740/740 741/741/741
f 742/742/742 743/743/743 744/744/744
f 745/745/745 746/746/746 747/747/747
f 748/748/748 749/749/749 750/750/750
f 751/751/751 752/752/752 753/753/753
f 754/754/754 755/755/755 756/756/756
f 757/757/757 758/758/758 759/759/759
f 760/760/760 761/761/761 762/762/762
f 763/763/763 764/764/764 765/765/765
f 766/766/766 767/767/767 768/768/768
f 769/769/769 770/770/770 771/771/771
f 772/772/772 773/773/773 774/774/774
f 775/775/775 776/776/776 777/777/777
f 778/778/778 779/779/779 780/780/780
f 781/781/781 782/782/782 783/783/783
f 784/784/784 785/785/785 786/786/786
f 787/787/787 788/788/788 789/789/789
f 790/790/790 791/791/791 792/792/792
f 793/793/793 794/794/794 795/795/795
f 796/796/796 797/797/797 798/798/798
f 799/799/799 800/800/800 801/801/801
f 802/802/802 803/803/803 804/804/804
f 805/805/805 806/806/806 807/807/807
f 808/808/808 809/809/809 810/810/810
f 811/811/811 812/812/812 813/813/813
f 814/814/814 815/815/815 816/816/816
f 817/817/817 818/818/818 819/819/819
f 820/820/820 821/821/821 822/822/822
f 823/823/823 824/824/824 825/825/825
f 826/826/826 827/827/827 828/828/828
f 829/829/829 830/830/830 831/831/831
f 832/832/832 833/833/833 834/834/834
f 835/835/835 836/836/836 837/837/837
f 838/838/838 839/839/839 840/840/840
f 841/841/841 842/842/842 843/843/843
f 844/844/844 845/845/845 846/846/846
f 847/847/847 848/848/848 849/849/849
f 850/850/850 851/851/851 852/852/852
f 853/853/853 854/854/854 855/855/855
f 856/856/856 857/857/857 858/858/858
f 859/859/859 860/860/860 861/861/861
f 862/862/862 863/863/863 864/864/864
f 865/865/865 866/866/866 867/867/867
f 868/868/868 869/869/869 870/870/870
f 871/871/871 872/872/872 873/873/873
f 874/874/874 875/875/875 876/876/876
f 877/877/877 878/878/878 879/879/879
f 880/880/880 881/881/881 882/882/882
f 883/883/883 884/884/884 885/885/885
f 886/886/886 887/887/887 888/888/888
f 889/889/889 890/890/890 891/891/891
f 892/892/892 893/893/893 894/894/894
f 895/895/895 896/896/896 897/897/897
f 898/898/898 899/899/899 900/900/900
f 901/901/901 902/902/902 903/903/903
f 904/904/904 905/905/905 906/906/906
f 907/907/907 908/908/908 909/909/909
f 910/910/910 911/911/911 912/912/912
f 913/913/913 914/914/914 915/915/915
f 916/916/916 917/917/917 918/918/918
f 919/919/919 920/920/920 921/921/921
f 922/922/922 923/923/923 924/924/924
f 925/925/925 926/926/926 927/927/927
f 928/928/928 929/929/929 930/930/930
f 931/931/931 932/932/932 933/933/933
f 934/934/934 935/935/935 936/936/936
f 937/937/937 938/938/938 939/939/939
f 940/940/940 941/941/941 942/942/942
f 943/943/943 944/944/944 945/945/945
f 946/946/946 947/947/947 948/948/948
f 949/949/949 950/950/950 951/951/951
f 952/952/952 953/953/953 954/954/954
f 955/955/955 956/956/956 957/957/957
f 958/958/958 959/959/959 960/960/960
f 961/961/961 962/962/962 963/963/963
f 964/964/964 965/965/965 966/966/966
f 967/967/967 968/968/968 969/969/969
f 970/970/970 971/971/971 972/972/972
f 973/973/973 974/974/974 975/975/975
f 976/976/976 977/977/977 978/978/978
f 979/979/979 980/980/980 981/981/981
f 982/982/982 983/983/983 984/984/984
f 985/985/985 986/986/986 987/987/987
f 988/988/988 989/989/989 990/990/990
f 991/991/991 992/992/992 993/993/993
f 994/994/994 995/995/995 996/996/996
f 997/997/997 998/998/998 999/999/999
f 1000/1000/1000 1001/1001/1001 1002/1002/1002
f 1003/1003/1003 1004/1004/1004 1005/1005/1005
f 1006/1006/1006 1007/1007/1007 1008/1008/1008
f 1009/1009/1009 1010/1010/1010 1011/1011/1011
f 1012/1012/1012 1013/1013/1013 1014/1014/1014
f 1015/1015/1015 1016/1016/1016 1017/1017/1017
f 1018/1018/1018 1019/1019/1019 1020/1020/1020
f 1021/1021/1021 1022/1022/1022 1023/1023/1023
f 1024/1024/1024 1025/1025/1025 1026/1026/1026
f 1027/1027/1027 1028/1028/1028 1029/1029/1029
f 1030/1030/1030 1031/1031/1031 1032/1032/1032
f 1033/1033/1033 1034/1034/1034 1035/1035/1035
f 1036/1036/1036 1037/1037/1037 1038/1038/1038
f 1039/1039/1039 1040/1040/1040 1041/1041/1041
f 1042/1042/1042 1043/1043/1043 1044/1044/1044
f 1045/1045/1045 1046/1046/1046 1047/1047/1047
f 1048/1048/1048 1049/1049/1049 1050/1050/1050
f 1051/1051/1051 1052/1052/1052 1053/1053/1053
f 1054/1054/1054 1055/1055/1055 1056/1056/1056
f 1057/1057/1057 1058/1058/1058 1059/1059/1059
f 1060/1060/1060 1061/1061/1061 1062/1062/1062
f 1063/1063/1063 1064/1064/1064 1065/1065/1065
f 1066/1066/1066 1067/1067/1067 1068/1068/1068
f 1069/1069/1069 1070/1070/1070 1071/1071/1071
f 1072/1072/1072 1073/1073/1073 1074/1074/1074
f 1075/1075/1075 1076/1076/1076 1077/1077/1077
f 1078/1078/1078 1079/1079/1079 1080/1080/1080
f 1081/1081/1081 1082/1082/1082 1083/1083/1083
f 1081/1081/1081 1083/1083/1083 1082/1082/1082
f 1081/1081/1081 1083/1083/1083 1084/1084/1084
f 1081/1081/1081 1084/1084/1084 1083/1083/1083
f 1081/1081/1081 1084/1084/1084 1085/1085/1085
f 1081/1081/1081 1085/1085/1085 1084/1084/1084
f 1081/1081/1081 1085/1085/1085 1086/1086/1086
f 1081/1081/1081 1086/1086/1086 1085/1085/1085
f 1081/1081/1081 1086/1086/1086 1087/1087/1087
f 1081/1081/1081 1087/1087/1087 1086/1086/1086
f 1081/1081/1081 1087/1087/1087 1088/1088/1088
f 1081/1081/1081 1088/1088/1088 1087/1087/1087
f 1081/1081/1081 1088/1088/1088 1089/1089/1089
f 1081/1081/1081 1089/1089/1089 1088/1088/1088
f 1081/1081/1081 1089/1089/1089 1090/1090/1090
f 1081/1081/1081 1090/1090/1090 1089/1089/1089
f 1081/1081/1081 1090/1090/1090 1091/1091/1091
f 1081/1081/1081 1091/1091/1091 1090/1090/1090
f 1081/1081/1081 1091/1091/1091 1092/1092/1092
f 1081/1081/1081 1092/1092/1092 1091/1091/1091
f 1081/1081/1081 1092/1092/1092 1093/1093/1093
f 1081/1081/1081 1093/1093/1093 1092/1092/1092
f 1081/1081/1081 1093/1093/1093 1094/1094/1094
f 1081/1081/1081 1094/1094/1094 1093/1093/1093
f 1081/1081/1081 1094/1094/1094 1095/1095/1095
f 1081/1081/1081 1095/1095/1095 1094/1094/1094
f 1081/1081/1081 1095/1095/1095 1082/1082/1082
f 1081/1081/1081 1082/1082/1082 1095/1095/1095
f 1096/1096/1096 1097/1097/1097 1098/1098/1098
f 1096/1096/1096 1098/1098/1098 1097/1097/1097
f 1096/1096/1096 1098/1098/1098 1099/1099/1099
f 1096/1096/1096 1099/1099/1099 1098/1098/1098
f 1096/1096/1096 1099/1099/1099 1100/1100/1100
f 1096/1096/1096 1100/1100/1100 1099/1099/1099
f 1096/1096/1096 1100/1100/1100 1101/1101/1101
f 1096/1096/1096 1101/1101/1101 1100/1100/1100
f 1096/1096/1096 1101/1101/1101 1102/1102/1102
f 1096/1096/1096 1102/1102/1102 1101/1101/1101
f 1096/1096/1096 1102/1102/1102 1103/1103/1103
f 1096/1096/1096 1103/1103/1103 1102/1102/1102
f 1096/1096/1096 1103/1103/1103 1104/1104/1104
f 1096/1096/1096 1104/1104/1104 1103/1103/1103
f 1096/1096/1096 1104/1104/1104 1105/1105/1105
f 1096/1096/1096 1105/1105/1105 1104/1104/1104
f 1096/1096/1096 1105/1105/1105 1106/1106/1106
f 1096/1096/1096 1106/1106/1106 1105/1105/1105
f 1096/1096/1096 1106/1106/1106 1107/1107/1107
f 1096/1096/1096 1107/1107/1107 1106/1106/1106
f 1096/1096/1096 1107/1107/1107 1108/1108/1108
f 1096/1096/1096 1108/1108/1108 1107/1107/1107
f 1096/1096/1096 1108/1108/1108 1109/1109/1109
f 1096/1096/1096 1109/1109/1109 1108/1108/1108
f 1096/1096/1096 1109/1109/1109 1110/1110/1110
f 1096/1096/1096 1110/1110/1110 1109/1109/1109
f 1096/1096/1096 1110/1110/1110 1097/1097/1097
f 1096/1096/1096 1097/1097/1097 1110/1110/1110
f 1111/1111/1111 1112/1112/1112 1113/1113/1113
f 1111/1111/1111 1113/1113/1113 1112/1112/1112
f 1111/1111/1111 1113/1113/1113 1114/1114/1114
f 1111/1111/1111 1114/1114/1114 1113/1113/1113
f 1111/1111/1111 1114/1114/1114 1115/1115/1115
f 1111/1111/1111 1115/1115/1115 1114/1114/1114
f 1111/1111/1111 1115/1115/1115 1116/1116/1116
f 1111/1111/1111 1116/1116/1116 1115/1115/1115
f 1111/1111/1111 1116/1116/1116 1117/1117/1117
f 1111/1111/1111 1117/1117/1117 1116/1116/1116
f 1111/1111/1111 1117/1117/1117 1118/1118/1118
f 1111/1111/1111 1118/1118/1118 1117/1117/1117
f 1111/1111/1111 1118/1118/1118 1119/1119/1119
f 1111/1111/1111 1119/1119/1119 1118/1118/1118
f 1111/1111/1111 1119/1119/1119 1120/1120/1120
f 1111/1111/1111 1120/1120/1120 1119/1119/1119
f 1111/1111/1111 1120/1120/1120 1121/1121/1121
f 1111/1111/1111 1121/1121/1121 1120/1120/1120
f 1111/1111/1111 1121/1121/1121 1112/1112/1112
f 1111/1111/1111 1112/1112/1112 1121/1121/1121
