o wing_left_tip
v -0.08042 0.40067 0.06174
v -0.12457 0.43190 0.09413
v -0.09472 0.40881 0.07392
v -0.08924 0.39368 0.05104
v -0.10608 0.40273 0.06825
v -0.09665 0.39910 0.05792
v -0.08042 0.40067 0.06174
v -0.09472 0.40881 0.07392
v -0.10608 0.40273 0.06825
v -0.08924 0.39368 0.05104
v -0.09665 0.39910 0.05792
v -0.09496 0.39736 0.05539
v -0.12457 0.43190 0.09413
v -0.07542 0.42794 0.02875
v -0.13094 0.43713 0.09739
v -0.07542 0.42794 0.02875
v -0.10464 0.44880 0.05033
v -0.13094 0.43713 0.09739
v -0.09665 0.39910 0.05792
v -0.11527 0.41208 0.07134
v -0.09496 0.39736 0.05539
v -0.10703 0.46336 0.04487
v -0.10464 0.44880 0.05033
v -0.10044 0.45975 0.03965
v -0.09665 0.39910 0.05792
v -0.10608 0.40273 0.06825
v -0.11527 0.41208 0.07134
v -0.09472 0.40881 0.07392
v -0.12457 0.43190 0.09413
v -0.10849 0.41741 0.08570
v -0.10608 0.40273 0.06825
v -0.09472 0.40881 0.07392
v -0.10849 0.41741 0.08570
v -0.12670 0.42268 0.09545
v -0.10608 0.40273 0.06825
v -0.10849 0.41741 0.08570
v -0.10849 0.41741 0.08570
v -0.12457 0.43190 0.09413
v -0.12333 0.42573 0.09798
v -0.09496 0.39736 0.05539
v -0.11527 0.41208 0.07134
v -0.12367 0.41634 0.07579
v -0.10464 0.44880 0.05033
v -0.10703 0.46336 0.04487
v -0.13989 0.46775 0.08296
v -0.12333 0.42573 0.09798
v -0.12670 0.42268 0.09545
v -0.10849 0.41741 0.08570
v -0.11527 0.41208 0.07134
v -0.10608 0.40273 0.06825
v -0.13308 0.41834 0.09100
v -0.11527 0.41208 0.07134
v -0.12249 0.41701 0.07663
v -0.12367 0.41634 0.07579
v -0.12017 0.45347 0.03419
v -0.12352 0.45532 0.03700
v -0.10703 0.46336 0.04487
v -0.10703 0.46336 0.04487
v -0.12039 0.47089 0.05555
v -0.13989 0.46775 0.08296
v -0.11527 0.41208 0.07134
v -0.13308 0.41834 0.09100
v -0.12249 0.41701 0.07663
v -0.13989 0.46775 0.08296
v -0.13094 0.43713 0.09739
v -0.10464 0.44880 0.05033
v -0.15111 0.44013 0.08907
v -0.09570 0.42560 0.02885
v -0.09496 0.39736 0.05539
v -0.12950 0.45933 0.04203
v -0.10703 0.46336 0.04487
v -0.12352 0.45532 0.03700
v -0.12039 0.47089 0.05555
v -0.10703 0.46336 0.04487
v -0.12950 0.45933 0.04203
v -0.09570 0.42560 0.02885
v -0.15111 0.44013 0.08907
v -0.13767 0.46379 0.04842
v -0.12333 0.42573 0.09798
v -0.12732 0.43035 0.09258
v -0.12670 0.42268 0.09545
v -0.12950 0.45933 0.04203
v -0.09570 0.42560 0.02885
v -0.13767 0.46379 0.04842
v -0.09570 0.42560 0.02885
v -0.12950 0.45933 0.04203
v -0.12352 0.45532 0.03700
v -0.12333 0.42573 0.09798
v -0.12457 0.43190 0.09413
v -0.12732 0.43035 0.09258
v -0.13308 0.41834 0.09100
v -0.10608 0.40273 0.06825
v -0.12670 0.42268 0.09545
v -0.12794 0.47525 0.06150
v -0.12039 0.47089 0.05555
v -0.13767 0.46379 0.04842
v -0.12249 0.41701 0.07663
v -0.13308 0.41834 0.09100
v -0.13445 0.42491 0.08651
v -0.12039 0.47089 0.05555
v -0.12794 0.47525 0.06150
v -0.13989 0.46775 0.08296
v -0.12732 0.43035 0.09258
v -0.13308 0.41834 0.09100
v -0.12670 0.42268 0.09545
v -0.12367 0.41634 0.07579
v -0.15111 0.44013 0.08907
v -0.09496 0.39736 0.05539
v -0.13434 0.47886 0.06677
v -0.12794 0.47525 0.06150
v -0.13767 0.46379 0.04842
v -0.12249 0.41701 0.07663
v -0.13445 0.42491 0.08651
v -0.12367 0.41634 0.07579
v -0.12981 0.43470 0.09867
v -0.12457 0.43190 0.09413
v -0.13094 0.43713 0.09739
v -0.12794 0.47525 0.06150
v -0.13434 0.47886 0.06677
v -0.13989 0.46775 0.08296
v -0.12981 0.43470 0.09867
v -0.12732 0.43035 0.09258
v -0.12457 0.43190 0.09413
v -0.12732 0.43035 0.09258
v -0.12981 0.43470 0.09867
v -0.13445 0.42491 0.08651
v -0.15111 0.44013 0.08907
v -0.12367 0.41634 0.07579
v -0.13705 0.42434 0.08540
v -0.13094 0.43713 0.09739
v -0.13718 0.43004 0.09300
v -0.12981 0.43470 0.09867
v -0.12367 0.41634 0.07579
v -0.13445 0.42491 0.08651
v -0.13705 0.42434 0.08540
v -0.12732 0.43035 0.09258
v -0.13445 0.42491 0.08651
v -0.13308 0.41834 0.09100
v -0.12950 0.45933 0.04203
v -0.13767 0.46379 0.04842
v -0.12039 0.47089 0.05555
v -0.13718 0.43004 0.09300
v -0.13094 0.43713 0.09739
v -0.13580 0.43329 0.09372
v -0.12981 0.43470 0.09867
v -0.13705 0.42434 0.08540
v -0.13445 0.42491 0.08651
v -0.12981 0.43470 0.09867
v -0.13718 0.43004 0.09300
v -0.13705 0.42434 0.08540
v -0.13597 0.43991 0.10164
v -0.13094 0.43713 0.09739
v -0.13989 0.46775 0.08296
v -0.13434 0.47886 0.06677
v -0.13689 0.48022 0.06892
v -0.13989 0.46775 0.08296
v -0.13689 0.48022 0.06892
v -0.13434 0.47886 0.06677
v -0.15278 0.47335 0.06136
v -0.13718 0.43004 0.09300
v -0.13580 0.43329 0.09372
v -0.14222 0.42870 0.08875
v -0.13689 0.48022 0.06892
v -0.13806 0.47982 0.06940
v -0.13989 0.46775 0.08296
v -0.13597 0.43991 0.10164
v -0.13989 0.46775 0.08296
v -0.13863 0.44761 0.09809
v -0.13705 0.42434 0.08540
v -0.14222 0.42870 0.08875
v -0.15111 0.44013 0.08907
v -0.13806 0.47982 0.06940
v -0.13689 0.48022 0.06892
v -0.13950 0.47974 0.06854
v -0.13705 0.42434 0.08540
v -0.13718 0.43004 0.09300
v -0.14130 0.42687 0.08933
v -0.13718 0.43004 0.09300
v -0.14222 0.42870 0.08875
v -0.14130 0.42687 0.08933
v -0.14521 0.48398 0.07478
v -0.13989 0.46775 0.08296
v -0.13806 0.47982 0.06940
v -0.13767 0.46379 0.04842
v -0.14863 0.47041 0.05760
v -0.13434 0.47886 0.06677
v -0.15278 0.47335 0.06136
v -0.13950 0.47974 0.06854
v -0.13689 0.48022 0.06892
v -0.13597 0.43991 0.10164
v -0.13863 0.44761 0.09809
v -0.14372 0.44531 0.09557
v -0.13094 0.43713 0.09739
v -0.13597 0.43991 0.10164
v -0.14368 0.43498 0.09661
v -0.14429 0.45408 0.09965
v -0.14336 0.45069 0.10215
v -0.13863 0.44761 0.09809
v -0.13863 0.44761 0.09809
v -0.13989 0.46775 0.08296
v -0.14429 0.45408 0.09965
v -0.13705 0.42434 0.08540
v -0.14130 0.42687 0.08933
v -0.14222 0.42870 0.08875
v -0.13094 0.43713 0.09739
v -0.14368 0.43498 0.09661
v -0.13580 0.43329 0.09372
v -0.14372 0.44531 0.09557
v -0.14368 0.43498 0.09661
v -0.13597 0.43991 0.10164
v -0.14368 0.43498 0.09661
v -0.14222 0.42870 0.08875
v -0.13580 0.43329 0.09372
v -0.13434 0.47886 0.06677
v -0.14863 0.47041 0.05760
v -0.15278 0.47335 0.06136
v -0.14372 0.44531 0.09557
v -0.14860 0.43230 0.09326
v -0.14368 0.43498 0.09661
v -0.14372 0.44531 0.09557
v -0.13863 0.44761 0.09809
v -0.14336 0.45069 0.10215
v -0.13806 0.47982 0.06940
v -0.13950 0.47974 0.06854
v -0.14521 0.48398 0.07478
v -0.14429 0.45408 0.09965
v -0.13989 0.46775 0.08296
v -0.14814 0.45734 0.10298
v -0.14368 0.43498 0.09661
v -0.14860 0.43230 0.09326
v -0.14222 0.42870 0.08875
v -0.13989 0.46775 0.08296
v -0.14521 0.48398 0.07478
v -0.15115 0.48756 0.07971
v -0.14863 0.47041 0.05760
v -0.13767 0.46379 0.04842
v -0.15111 0.44013 0.08907
v -0.15111 0.44013 0.08907
v -0.14222 0.42870 0.08875
v -0.14860 0.43230 0.09326
v -0.15137 0.44022 0.09052
v -0.14860 0.43230 0.09326
v -0.14372 0.44531 0.09557
v -0.14336 0.45069 0.10215
v -0.14429 0.45408 0.09965
v -0.15264 0.44975 0.09501
v -0.15115 0.48756 0.07971
v -0.14521 0.48398 0.07478
v -0.13950 0.47974 0.06854
v -0.15111 0.44013 0.08907
v -0.15791 0.44667 0.09175
v -0.16074 0.47794 0.06755
v -0.15264 0.44975 0.09501
v -0.14429 0.45408 0.09965
v -0.14814 0.45734 0.10298
v -0.14863 0.47041 0.05760
v -0.15111 0.44013 0.08907
v -0.15278 0.47335 0.06136
v -0.14860 0.43230 0.09326
v -0.15137 0.44022 0.09052
v -0.15111 0.44013 0.08907
v -0.14336 0.45069 0.10215
v -0.15137 0.44022 0.09052
v -0.14372 0.44531 0.09557
v -0.15137 0.44022 0.09052
v -0.15770 0.44391 0.09466
v -0.15111 0.44013 0.08907
v -0.15264 0.44975 0.09501
v -0.15908 0.46302 0.11157
v -0.16740 0.45932 0.10744
v -0.15137 0.44022 0.09052
v -0.14336 0.45069 0.10215
v -0.15770 0.44391 0.09466
v -0.14336 0.45069 0.10215
v -0.15264 0.44975 0.09501
v -0.15791 0.44667 0.09175
v -0.15278 0.47335 0.06136
v -0.15111 0.44013 0.08907
v -0.16074 0.47794 0.06755
v -0.14336 0.45069 0.10215
v -0.15791 0.44667 0.09175
v -0.15770 0.44391 0.09466
v -0.13989 0.46775 0.08296
v -0.15908 0.46302 0.11157
v -0.14814 0.45734 0.10298
v -0.15115 0.48756 0.07971
v -0.16802 0.49752 0.09327
v -0.13989 0.46775 0.08296
v -0.15908 0.46302 0.11157
v -0.15264 0.44975 0.09501
v -0.14814 0.45734 0.10298
v -0.15111 0.44013 0.08907
v -0.15770 0.44391 0.09466
v -0.15791 0.44667 0.09175
v -0.16074 0.47794 0.06755
v -0.13950 0.47974 0.06854
v -0.15278 0.47335 0.06136
v -0.16074 0.47794 0.06755
v -0.15115 0.48756 0.07971
v -0.13950 0.47974 0.06854
v -0.17403 0.45609 0.10390
v -0.15791 0.44667 0.09175
v -0.15264 0.44975 0.09501
v -0.13989 0.46775 0.08296
v -0.16802 0.49752 0.09327
v -0.15908 0.46302 0.11157
v -0.15115 0.48756 0.07971
v -0.16074 0.47794 0.06755
v -0.16635 0.48077 0.07183
v -0.15264 0.44975 0.09501
v -0.16740 0.45932 0.10744
v -0.17403 0.45609 0.10390
v -0.17081 0.48399 0.07601
v -0.15115 0.48756 0.07971
v -0.16635 0.48077 0.07183
v -0.15908 0.46302 0.11157
v -0.17761 0.47011 0.09758
v -0.16740 0.45932 0.10744
v -0.15791 0.44667 0.09175
v -0.17403 0.45609 0.10390
v -0.16074 0.47794 0.06755
v -0.17403 0.45609 0.10390
v -0.16635 0.48077 0.07183
v -0.16074 0.47794 0.06755
v -0.15115 0.48756 0.07971
v -0.17081 0.48399 0.07601
v -0.16802 0.49752 0.09327
v -0.17761 0.47011 0.09758
v -0.17403 0.45609 0.10390
v -0.16740 0.45932 0.10744
v -0.15908 0.46302 0.11157
v -0.18079 0.48305 0.09216
v -0.17761 0.47011 0.09758
v -0.17403 0.45609 0.10390
v -0.17761 0.47011 0.09758
v -0.16635 0.48077 0.07183
v -0.16802 0.49752 0.09327
v -0.17081 0.48399 0.07601
v -0.17603 0.48760 0.08103
v -0.16635 0.48077 0.07183
v -0.17761 0.47011 0.09758
v -0.18079 0.48305 0.09216
v -0.17081 0.48399 0.07601
v -0.16635 0.48077 0.07183
v -0.18079 0.48305 0.09216
v -0.17690 0.49455 0.09051
v -0.16802 0.49752 0.09327
v -0.17603 0.48760 0.08103
v -0.17690 0.49455 0.09051
v -0.17603 0.48760 0.08103
v -0.18270 0.49249 0.08780
v -0.16802 0.49752 0.09327
v -0.17690 0.49455 0.09051
v -0.18288 0.49137 0.08834
v -0.17690 0.49455 0.09051
v -0.18270 0.49249 0.08780
v -0.18288 0.49137 0.08834
v -0.15908 0.46302 0.11157
v -0.16802 0.49752 0.09327
v -0.18288 0.49137 0.08834
v -0.15908 0.46302 0.11157
v -0.18288 0.49137 0.08834
v -0.18079 0.48305 0.09216
v -0.17081 0.48399 0.07601
v -0.18079 0.48305 0.09216
v -0.18288 0.49137 0.08834
v -0.18288 0.49137 0.08834
v -0.17603 0.48760 0.08103
v -0.17081 0.48399 0.07601
v -0.18288 0.49137 0.08834
v -0.18270 0.49249 0.08780
v -0.17603 0.48760 0.08103
v -0.10185 0.43005 0.04952
v -0.12457 0.43190 0.09413
v -0.08042 0.40067 0.06174
v -0.10608 0.40273 0.06825
v -0.08924 0.39368 0.05104
v -0.09496 0.39736 0.05539
v -0.09570 0.42560 0.02885
v -0.12352 0.45532 0.03700
v -0.12017 0.45347 0.03419
v -0.10703 0.46336 0.04487
v -0.10044 0.45975 0.03965
v -0.10464 0.44880 0.05033
v -0.07542 0.42794 0.02875
vt 0.73627 0.57606
vt 0.65880 0.57915
vt 0.71119 0.57386
vt 0.73493 0.49893
vt 0.74576 0.47733
vt 0.74120 0.49029
vt 0.74490 0.18031
vt 0.74528 0.19750
vt 0.73362 0.19956
vt 0.02308 0.55941
vt 0.02221 0.54981
vt 0.02308 0.55263
vt 0.59256 0.22551
vt 0.61185 0.12900
vt 0.60334 0.22889
vt 0.61185 0.12900
vt 0.63970 0.17118
vt 0.60334 0.22889
vt 0.02221 0.54981
vt 0.02255 0.52765
vt 0.02308 0.55263
vt 0.66327 0.17131
vt 0.63970 0.17118
vt 0.66145 0.16102
vt 0.74120 0.49029
vt 0.74576 0.47733
vt 0.75413 0.46823
vt 0.71119 0.57386
vt 0.65880 0.57915
vt 0.68656 0.57240
vt 0.13417 0.36341
vt 0.11700 0.36570
vt 0.11700 0.34103
vt 0.12418 0.31581
vt 0.13417 0.36341
vt 0.11700 0.34103
vt 0.68656 0.57240
vt 0.65880 0.57915
vt 0.66083 0.57032
vt 0.65072 0.56018
vt 0.61415 0.56065
vt 0.60153 0.55842
vt 0.63970 0.17118
vt 0.66327 0.17131
vt 0.64637 0.24237
vt 0.11782 0.31522
vt 0.12418 0.31581
vt 0.11700 0.34103
vt 0.10076 0.15098
vt 0.08574 0.14398
vt 0.13320 0.14254
vt 0.61415 0.56065
vt 0.60159 0.56038
vt 0.60153 0.55842
vt 0.44702 0.11317
vt 0.44533 0.11875
vt 0.42364 0.10722
vt 0.66327 0.17131
vt 0.66877 0.19532
vt 0.64637 0.24237
vt 0.10076 0.15098
vt 0.13320 0.14254
vt 0.11329 0.15194
vt 0.64637 0.24237
vt 0.60334 0.22889
vt 0.63970 0.17118
vt 0.42777 0.20771
vt 0.46376 0.30341
vt 0.41608 0.30321
vt 0.44177 0.12896
vt 0.42364 0.10722
vt 0.44533 0.11875
vt 0.41719 0.12928
vt 0.42364 0.10722
vt 0.44177 0.12896
vt 0.46376 0.30341
vt 0.42777 0.20771
vt 0.48280 0.23206
vt 0.43717 0.97662
vt 0.44141 0.96753
vt 0.44351 0.97741
vt 0.48394 0.24591
vt 0.46376 0.30341
vt 0.48280 0.23206
vt 0.46376 0.30341
vt 0.48394 0.24591
vt 0.48442 0.25671
vt 0.43717 0.97662
vt 0.43708 0.96755
vt 0.44141 0.96753
vt 0.13514 0.31594
vt 0.13417 0.36341
vt 0.12418 0.31581
vt 0.41353 0.14175
vt 0.41719 0.12928
vt 0.43803 0.14234
vt 0.11329 0.15194
vt 0.13320 0.14254
vt 0.13470 0.15237
vt 0.66877 0.19532
vt 0.66919 0.20761
vt 0.64637 0.24237
vt 0.44141 0.96753
vt 0.45447 0.97761
vt 0.44351 0.97741
vt 0.41679 0.25400
vt 0.42777 0.20771
vt 0.41608 0.30321
vt 0.41032 0.15239
vt 0.41353 0.14175
vt 0.43803 0.14234
vt 0.60159 0.56038
vt 0.58018 0.56058
vt 0.60153 0.55842
vt 0.60158 0.23045
vt 0.59256 0.22551
vt 0.60334 0.22889
vt 0.66919 0.20761
vt 0.66879 0.21897
vt 0.64637 0.24237
vt 0.57022 0.57797
vt 0.57900 0.57385
vt 0.57942 0.57816
vt 0.57900 0.57385
vt 0.57022 0.57797
vt 0.58018 0.56058
vt 0.42777 0.20771
vt 0.41679 0.25400
vt 0.41627 0.23147
vt 0.91954 0.72037
vt 0.93201 0.72335
vt 0.91922 0.72401
vt 0.60153 0.55842
vt 0.58018 0.56058
vt 0.57903 0.55722
vt 0.44141 0.96753
vt 0.45472 0.96767
vt 0.45447 0.97761
vt 0.44177 0.12896
vt 0.43803 0.14234
vt 0.41719 0.12928
vt 0.93201 0.72335
vt 0.91954 0.72037
vt 0.92839 0.72078
vt 0.57022 0.57797
vt 0.57903 0.55722
vt 0.58018 0.56058
vt 0.57022 0.57797
vt 0.57048 0.56517
vt 0.57903 0.55722
vt 0.60773 0.24016
vt 0.60334 0.22889
vt 0.64637 0.24237
vt 0.66879 0.21897
vt 0.66965 0.22315
vt 0.64637 0.24237
vt 0.40903 0.15664
vt 0.41032 0.15239
vt 0.42928 0.16804
vt 0.93201 0.72335
vt 0.92839 0.72078
vt 0.93986 0.72075
vt 0.95006 0.59622
vt 0.94871 0.59531
vt 0.94871 0.57288
vt 0.60773 0.24016
vt 0.64637 0.24237
vt 0.61815 0.24281
vt 0.41627 0.23147
vt 0.41750 0.22228
vt 0.42777 0.20771
vt 0.94871 0.59531
vt 0.95006 0.59622
vt 0.94677 0.59603
vt 0.57903 0.55722
vt 0.57048 0.56517
vt 0.57127 0.55738
vt 0.93201 0.72335
vt 0.93986 0.72075
vt 0.93984 0.72336
vt 0.66677 0.25401
vt 0.64637 0.24237
vt 0.66747 0.24361
vt 0.43803 0.14234
vt 0.43209 0.16078
vt 0.41032 0.15239
vt 0.42928 0.16804
vt 0.41119 0.15913
vt 0.40903 0.15664
vt 0.26458 0.95344
vt 0.26458 0.96438
vt 0.25707 0.96504
vt 0.57474 0.96562
vt 0.57441 0.95684
vt 0.58720 0.95572
vt 0.62652 0.25197
vt 0.62050 0.25341
vt 0.61815 0.24281
vt 0.61815 0.24281
vt 0.64637 0.24237
vt 0.62652 0.25197
vt 0.41627 0.23147
vt 0.41535 0.22376
vt 0.41750 0.22228
vt 0.57474 0.96562
vt 0.58720 0.95572
vt 0.58360 0.96561
vt 0.25707 0.96504
vt 0.25174 0.95344
vt 0.26458 0.95344
vt 0.58720 0.95572
vt 0.59507 0.96544
vt 0.58360 0.96561
vt 0.41032 0.15239
vt 0.43209 0.16078
vt 0.42928 0.16804
vt 0.25707 0.96504
vt 0.24373 0.95398
vt 0.25174 0.95344
vt 0.17629 0.95593
vt 0.16878 0.95647
vt 0.16952 0.94795
vt 0.40947 0.15798
vt 0.41119 0.15913
vt 0.40630 0.16970
vt 0.62652 0.25197
vt 0.64637 0.24237
vt 0.62946 0.25725
vt 0.58720 0.95572
vt 0.59519 0.95486
vt 0.59507 0.96544
vt 0.64637 0.24237
vt 0.66677 0.25401
vt 0.66746 0.26111
vt 0.48134 0.21274
vt 0.48280 0.23206
vt 0.42777 0.20771
vt 0.42777 0.20771
vt 0.41750 0.22228
vt 0.41714 0.21170
vt 0.24418 0.96483
vt 0.24373 0.95398
vt 0.25707 0.96504
vt 0.35719 0.95662
vt 0.35192 0.95608
vt 0.35192 0.94317
vt 0.40313 0.17968
vt 0.40630 0.16970
vt 0.41119 0.15913
vt 0.42777 0.20771
vt 0.43157 0.19626
vt 0.48009 0.19137
vt 0.51115 0.91294
vt 0.51281 0.92575
vt 0.50541 0.92639
vt 0.48134 0.21274
vt 0.42777 0.20771
vt 0.48096 0.20497
vt 0.41714 0.21170
vt 0.42658 0.20634
vt 0.42777 0.20771
vt 0.16952 0.94795
vt 0.18914 0.95702
vt 0.17629 0.95593
vt 0.99457 0.41720
vt 0.99548 0.40689
vt 0.99586 0.41848
vt 0.51115 0.91294
vt 0.48695 0.92553
vt 0.48466 0.91344
vt 0.18914 0.95702
vt 0.16952 0.94795
vt 0.19106 0.94685
vt 0.35719 0.95662
vt 0.35192 0.94317
vt 0.35208 0.93467
vt 0.48096 0.20497
vt 0.42777 0.20771
vt 0.48009 0.19137
vt 0.35719 0.95662
vt 0.35208 0.93467
vt 0.35700 0.93505
vt 0.64637 0.24237
vt 0.63143 0.27313
vt 0.62946 0.25725
vt 0.66746 0.26111
vt 0.66782 0.28670
vt 0.64637 0.24237
vt 0.48695 0.92553
vt 0.51115 0.91294
vt 0.50541 0.92639
vt 0.42777 0.20771
vt 0.42663 0.19617
vt 0.43157 0.19626
vt 0.42551 0.18113
vt 0.41119 0.15913
vt 0.42928 0.16804
vt 0.42551 0.18113
vt 0.40313 0.17968
vt 0.41119 0.15913
vt 0.48316 0.90350
vt 0.51054 0.90446
vt 0.51115 0.91294
vt 0.64637 0.24237
vt 0.66782 0.28670
vt 0.63143 0.27313
vt 0.40313 0.17968
vt 0.42551 0.18113
vt 0.42320 0.19019
vt 0.51115 0.91294
vt 0.48466 0.91344
vt 0.48316 0.90350
vt 0.42004 0.19809
vt 0.40313 0.17968
vt 0.42320 0.19019
vt 0.09028 0.42084
vt 0.11314 0.40162
vt 0.10258 0.42084
vt 0.43157 0.19626
vt 0.43025 0.16889
vt 0.48009 0.19137
vt 0.43025 0.16889
vt 0.47918 0.18206
vt 0.48009 0.19137
vt 0.40313 0.17968
vt 0.42004 0.19809
vt 0.39461 0.20771
vt 0.11314 0.40162
vt 0.11264 0.42103
vt 0.10258 0.42084
vt 0.09028 0.42084
vt 0.11325 0.38392
vt 0.11314 0.40162
vt 0.43025 0.16889
vt 0.44829 0.16172
vt 0.47918 0.18206
vt 0.39461 0.20771
vt 0.42004 0.19809
vt 0.41635 0.20733
vt 0.47918 0.18206
vt 0.44829 0.16172
vt 0.46463 0.15491
vt 0.47872 0.17357
vt 0.47918 0.18206
vt 0.46463 0.15491
vt 0.40409 0.21508
vt 0.39461 0.20771
vt 0.41635 0.20733
vt 0.40409 0.21508
vt 0.41635 0.20733
vt 0.41115 0.21941
vt 0.96152 0.25695
vt 0.96047 0.24499
vt 0.96111 0.23626
vt 0.01344 0.42983
vt 0.00528 0.43127
vt 0.00468 0.42984
vt 0.09028 0.42084
vt 0.09286 0.37162
vt 0.11355 0.37237
vt 0.09028 0.42084
vt 0.11355 0.37237
vt 0.11325 0.38392
vt 0.47872 0.17357
vt 0.46463 0.15491
vt 0.47540 0.15073
vt 0.47540 0.15073
vt 0.47792 0.16366
vt 0.47872 0.17357
vt 0.47540 0.15073
vt 0.47694 0.15054
vt 0.47792 0.16366
vt 0.36738 0.20821
vt 0.36738 0.20821
vt 0.36738 0.20821
vt 0.36738 0.20821
vt 0.36738 0.20821
vt 0.36738 0.20821
vt 0.36738 0.20821
vt 0.36738 0.20821
vt 0.36738 0.20821
vt 0.36738 0.20821
vt 0.36738 0.20821
vt 0.36738 0.20821
vt 0.36738 0.20821
vn 0.5654 -0.1729 0.8065
vn 0.4615 0.3337 0.8220
vn 0.5520 -0.2159 0.8054
vn -0.6480 -0.5807 -0.4928
vn -0.4215 -0.8974 0.1304
vn -0.6787 -0.7206 -0.1418
vn 0.5654 -0.1729 0.8065
vn 0.5520 -0.2159 0.8054
vn -0.4215 -0.8974 0.1304
vn -0.6480 -0.5807 -0.4928
vn -0.6787 -0.7206 -0.1418
vn -0.5552 -0.8311 -0.0316
vn 0.4615 0.3337 0.8220
vn 0.7462 0.3573 0.5618
vn 0.4319 0.2144 0.8761
vn 0.7462 0.3573 0.5618
vn 0.7156 0.4022 0.5711
vn 0.4319 0.2144 0.8761
vn -0.6787 -0.7206 -0.1418
vn -0.4954 -0.8602 0.1206
vn -0.5552 -0.8311 -0.0316
vn 0.4942 0.8691 -0.0205
vn 0.7156 0.4022 0.5711
vn 0.4807 0.8767 0.0176
vn -0.6787 -0.7206 -0.1418
vn -0.4215 -0.8974 0.1304
vn -0.4954 -0.8602 0.1206
vn 0.5520 -0.2159 0.8054
vn 0.4615 0.3337 0.8220
vn 0.5992 -0.1496 0.7865
vn -0.4215 -0.8974 0.1304
vn 0.5520 -0.2159 0.8054
vn 0.5992 -0.1496 0.7865
vn -0.3376 -0.3620 0.8689
vn -0.4215 -0.8974 0.1304
vn 0.5992 -0.1496 0.7865
vn 0.5992 -0.1496 0.7865
vn 0.4615 0.3337 0.8220
vn 0.0919 0.0374 0.9951
vn -0.5552 -0.8311 -0.0316
vn -0.4954 -0.8602 0.1206
vn -0.4822 -0.8708 0.0957
vn 0.7156 0.4022 0.5711
vn 0.4942 0.8691 -0.0205
vn 0.7023 0.4642 0.5397
vn 0.0919 0.0374 0.9951
vn -0.3376 -0.3620 0.8689
vn 0.5992 -0.1496 0.7865
vn -0.4954 -0.8602 0.1206
vn -0.4215 -0.8974 0.1304
vn -0.7308 -0.5504 0.4038
vn -0.4954 -0.8602 0.1206
vn -0.4817 -0.8679 0.1210
vn -0.4822 -0.8708 0.0957
vn -0.5575 0.1887 -0.8084
vn -0.5937 0.1407 -0.7923
vn 0.4942 0.8691 -0.0205
vn 0.4942 0.8691 -0.0205
vn 0.4598 0.8863 -0.0556
vn 0.7023 0.4642 0.5397
vn -0.4954 -0.8602 0.1206
vn -0.7308 -0.5504 0.4038
vn -0.4817 -0.8679 0.1210
vn 0.7023 0.4642 0.5397
vn 0.4319 0.2144 0.8761
vn 0.7156 0.4022 0.5711
vn -0.7421 -0.5344 -0.4046
vn -0.7028 -0.5138 -0.4921
vn -0.5552 -0.8311 -0.0316
vn -0.5234 0.2139 -0.8248
vn 0.4942 0.8691 -0.0205
vn -0.5937 0.1407 -0.7923
vn 0.4598 0.8863 -0.0556
vn 0.4942 0.8691 -0.0205
vn -0.5234 0.2139 -0.8248
vn -0.7028 -0.5138 -0.4921
vn -0.7421 -0.5344 -0.4046
vn -0.5452 0.1990 -0.8143
vn 0.0919 0.0374 0.9951
vn -0.3586 -0.3681 0.8579
vn -0.3376 -0.3620 0.8689
vn -0.5234 0.2139 -0.8248
vn -0.7028 -0.5138 -0.4921
vn -0.5452 0.1990 -0.8143
vn -0.7028 -0.5138 -0.4921
vn -0.5234 0.2139 -0.8248
vn -0.5937 0.1407 -0.7923
vn 0.0919 0.0374 0.9951
vn 0.4615 0.3337 0.8220
vn -0.3586 -0.3681 0.8579
vn -0.7308 -0.5504 0.4038
vn -0.4215 -0.8974 0.1304
vn -0.3376 -0.3620 0.8689
vn 0.4535 0.8891 -0.0616
vn 0.4598 0.8863 -0.0556
vn -0.5452 0.1990 -0.8143
vn -0.4817 -0.8679 0.1210
vn -0.7308 -0.5504 0.4038
vn -0.4488 -0.6940 0.5630
vn 0.4598 0.8863 -0.0556
vn 0.4535 0.8891 -0.0616
vn 0.7023 0.4642 0.5397
vn -0.3586 -0.3681 0.8579
vn -0.7308 -0.5504 0.4038
vn -0.3376 -0.3620 0.8689
vn -0.4822 -0.8708 0.0957
vn -0.7421 -0.5344 -0.4046
vn -0.5552 -0.8311 -0.0316
vn 0.4577 0.8877 -0.0496
vn 0.4535 0.8891 -0.0616
vn -0.5452 0.1990 -0.8143
vn -0.4817 -0.8679 0.1210
vn -0.4488 -0.6940 0.5630
vn -0.4822 -0.8708 0.0957
vn 0.1674 -0.0134 0.9858
vn 0.4615 0.3337 0.8220
vn 0.4319 0.2144 0.8761
vn 0.4535 0.8891 -0.0616
vn 0.4577 0.8877 -0.0496
vn 0.7023 0.4642 0.5397
vn 0.1674 -0.0134 0.9858
vn -0.3586 -0.3681 0.8579
vn 0.4615 0.3337 0.8220
vn -0.3586 -0.3681 0.8579
vn 0.1674 -0.0134 0.9858
vn -0.4488 -0.6940 0.5630
vn -0.7421 -0.5344 -0.4046
vn -0.4822 -0.8708 0.0957
vn -0.5000 -0.8655 0.0304
vn 0.4319 0.2144 0.8761
vn -0.3766 -0.4194 0.8260
vn 0.1674 -0.0134 0.9858
vn -0.4822 -0.8708 0.0957
vn -0.4488 -0.6940 0.5630
vn -0.5000 -0.8655 0.0304
vn -0.3586 -0.3681 0.8579
vn -0.4488 -0.6940 0.5630
vn -0.7308 -0.5504 0.4038
vn -0.5234 0.2139 -0.8248
vn -0.5452 0.1990 -0.8143
vn 0.4598 0.8863 -0.0556
vn -0.3766 -0.4194 0.8260
vn 0.4319 0.2144 0.8761
vn -0.3550 -0.3856 0.8516
vn 0.1674 -0.0134 0.9858
vn -0.5000 -0.8655 0.0304
vn -0.4488 -0.6940 0.5630
vn 0.1674 -0.0134 0.9858
vn -0.3766 -0.4194 0.8260
vn -0.5000 -0.8655 0.0304
vn 0.1763 -0.0555 0.9828
vn 0.4319 0.2144 0.8761
vn 0.7023 0.4642 0.5397
vn 0.4577 0.8877 -0.0496
vn 0.2753 0.9520 0.1338
vn 0.7023 0.4642 0.5397
vn 0.2753 0.9520 0.1338
vn 0.4577 0.8877 -0.0496
vn -0.5350 0.2372 -0.8109
vn -0.3766 -0.4194 0.8260
vn -0.3550 -0.3856 0.8516
vn -0.7412 -0.6673 0.0732
vn 0.2753 0.9520 0.1338
vn 0.1275 0.9177 0.3764
vn 0.7023 0.4642 0.5397
vn 0.1763 -0.0555 0.9828
vn 0.7023 0.4642 0.5397
vn 0.3780 0.2581 0.8891
vn -0.5000 -0.8655 0.0304
vn -0.7412 -0.6673 0.0732
vn -0.7421 -0.5344 -0.4046
vn 0.1275 0.9177 0.3764
vn 0.2753 0.9520 0.1338
vn 0.0056 0.8592 -0.5116
vn -0.5000 -0.8655 0.0304
vn -0.3766 -0.4194 0.8260
vn -0.6415 -0.6827 0.3499
vn -0.3766 -0.4194 0.8260
vn -0.7412 -0.6673 0.0732
vn -0.6415 -0.6827 0.3499
vn 0.5246 0.8509 0.0280
vn 0.7023 0.4642 0.5397
vn 0.1275 0.9177 0.3764
vn -0.5452 0.1990 -0.8143
vn -0.5593 0.2085 -0.8023
vn 0.4577 0.8877 -0.0496
vn -0.5350 0.2372 -0.8109
vn 0.0056 0.8592 -0.5116
vn 0.2753 0.9520 0.1338
vn 0.1763 -0.0555 0.9828
vn 0.3780 0.2581 0.8891
vn -0.2724 -0.4178 0.8667
vn 0.4319 0.2144 0.8761
vn 0.1763 -0.0555 0.9828
vn -0.3111 -0.4185 0.8533
vn 0.4205 0.2810 0.8627
vn 0.1587 0.0558 0.9857
vn 0.3780 0.2581 0.8891
vn 0.3780 0.2581 0.8891
vn 0.7023 0.4642 0.5397
vn 0.4205 0.2810 0.8627
vn -0.5000 -0.8655 0.0304
vn -0.6415 -0.6827 0.3499
vn -0.7412 -0.6673 0.0732
vn 0.4319 0.2144 0.8761
vn -0.3111 -0.4185 0.8533
vn -0.3550 -0.3856 0.8516
vn -0.2724 -0.4178 0.8667
vn -0.3111 -0.4185 0.8533
vn 0.1763 -0.0555 0.9828
vn -0.3111 -0.4185 0.8533
vn -0.7412 -0.6673 0.0732
vn -0.3550 -0.3856 0.8516
vn 0.4577 0.8877 -0.0496
vn -0.5593 0.2085 -0.8023
vn -0.5350 0.2372 -0.8109
vn -0.2724 -0.4178 0.8667
vn -0.7104 -0.6131 0.3456
vn -0.3111 -0.4185 0.8533
vn -0.2724 -0.4178 0.8667
vn 0.3780 0.2581 0.8891
vn 0.1587 0.0558 0.9857
vn 0.1275 0.9177 0.3764
vn 0.0056 0.8592 -0.5116
vn 0.5246 0.8509 0.0280
vn 0.4205 0.2810 0.8627
vn 0.7023 0.4642 0.5397
vn 0.5558 -0.1586 0.8160
vn -0.3111 -0.4185 0.8533
vn -0.7104 -0.6131 0.3456
vn -0.7412 -0.6673 0.0732
vn 0.7023 0.4642 0.5397
vn 0.5246 0.8509 0.0280
vn 0.4666 0.8825 -0.0598
vn -0.5593 0.2085 -0.8023
vn -0.5452 0.1990 -0.8143
vn -0.7421 -0.5344 -0.4046
vn -0.7421 -0.5344 -0.4046
vn -0.7412 -0.6673 0.0732
vn -0.7104 -0.6131 0.3456
vn -0.6580 -0.6568 0.3684
vn -0.7104 -0.6131 0.3456
vn -0.2724 -0.4178 0.8667
vn 0.1587 0.0558 0.9857
vn 0.4205 0.2810 0.8627
vn -0.3451 -0.3217 0.8817
vn 0.4666 0.8825 -0.0598
vn 0.5246 0.8509 0.0280
vn 0.0056 0.8592 -0.5116
vn -0.7421 -0.5344 -0.4046
vn -0.8148 -0.5717 -0.0960
vn -0.5182 0.2296 -0.8239
vn -0.3451 -0.3217 0.8817
vn 0.4205 0.2810 0.8627
vn 0.5558 -0.1586 0.8160
vn -0.5593 0.2085 -0.8023
vn -0.7421 -0.5344 -0.4046
vn -0.5350 0.2372 -0.8109
vn -0.7104 -0.6131 0.3456
vn -0.6580 -0.6568 0.3684
vn -0.7421 -0.5344 -0.4046
vn 0.1587 0.0558 0.9857
vn -0.6580 -0.6568 0.3684
vn -0.2724 -0.4178 0.8667
vn -0.6580 -0.6568 0.3684
vn -0.8036 -0.3688 0.4672
vn -0.7421 -0.5344 -0.4046
vn -0.3451 -0.3217 0.8817
vn 0.1726 -0.0348 0.9844
vn -0.3079 -0.3200 0.8960
vn -0.6580 -0.6568 0.3684
vn 0.1587 0.0558 0.9857
vn -0.8036 -0.3688 0.4672
vn 0.1587 0.0558 0.9857
vn -0.3451 -0.3217 0.8817
vn -0.8148 -0.5717 -0.0960
vn -0.5350 0.2372 -0.8109
vn -0.7421 -0.5344 -0.4046
vn -0.5182 0.2296 -0.8239
vn 0.1587 0.0558 0.9857
vn -0.8148 -0.5717 -0.0960
vn -0.8036 -0.3688 0.4672
vn 0.7023 0.4642 0.5397
vn 0.1726 -0.0348 0.9844
vn 0.5558 -0.1586 0.8160
vn 0.4666 0.8825 -0.0598
vn 0.0490 0.9437 0.3272
vn 0.7023 0.4642 0.5397
vn 0.1726 -0.0348 0.9844
vn -0.3451 -0.3217 0.8817
vn 0.5558 -0.1586 0.8160
vn -0.7421 -0.5344 -0.4046
vn -0.8036 -0.3688 0.4672
vn -0.8148 -0.5717 -0.0960
vn -0.5182 0.2296 -0.8239
vn 0.0056 0.8592 -0.5116
vn -0.5350 0.2372 -0.8109
vn -0.5182 0.2296 -0.8239
vn 0.4666 0.8825 -0.0598
vn 0.0056 0.8592 -0.5116
vn -0.7387 -0.5448 0.3970
vn -0.8148 -0.5717 -0.0960
vn -0.3451 -0.3217 0.8817
vn 0.7023 0.4642 0.5397
vn 0.0490 0.9437 0.3272
vn 0.1726 -0.0348 0.9844
vn 0.4666 0.8825 -0.0598
vn -0.5182 0.2296 -0.8239
vn -0.5439 0.2064 -0.8133
vn -0.3451 -0.3217 0.8817
vn -0.3079 -0.3200 0.8960
vn -0.7387 -0.5448 0.3970
vn -0.5578 0.2649 -0.7866
vn 0.4666 0.8825 -0.0598
vn -0.5439 0.2064 -0.8133
vn 0.1726 -0.0348 0.9844
vn -0.9626 -0.1481 0.2267
vn -0.3079 -0.3200 0.8960
vn -0.8148 -0.5717 -0.0960
vn -0.7387 -0.5448 0.3970
vn -0.5182 0.2296 -0.8239
vn -0.7387 -0.5448 0.3970
vn -0.5439 0.2064 -0.8133
vn -0.5182 0.2296 -0.8239
vn 0.4666 0.8825 -0.0598
vn -0.5578 0.2649 -0.7866
vn 0.0490 0.9437 0.3272
vn -0.9626 -0.1481 0.2267
vn -0.7387 -0.5448 0.3970
vn -0.3079 -0.3200 0.8960
vn 0.1726 -0.0348 0.9844
vn -0.9602 -0.1188 0.2528
vn -0.9626 -0.1481 0.2267
vn -0.7387 -0.5448 0.3970
vn -0.9626 -0.1481 0.2267
vn -0.5439 0.2064 -0.8133
vn 0.0490 0.9437 0.3272
vn -0.5578 0.2649 -0.7866
vn -0.5599 0.2852 -0.7779
vn -0.5439 0.2064 -0.8133
vn -0.9626 -0.1481 0.2267
vn -0.9602 -0.1188 0.2528
vn -0.5578 0.2649 -0.7866
vn -0.5439 0.2064 -0.8133
vn -0.9602 -0.1188 0.2528
vn -0.3872 0.7730 0.5025
vn 0.0490 0.9437 0.3272
vn -0.5599 0.2852 -0.7779
vn -0.3872 0.7730 0.5025
vn -0.5599 0.2852 -0.7779
vn -0.7694 0.6165 -0.1671
vn 0.0490 0.9437 0.3272
vn -0.3872 0.7730 0.5025
vn -0.9821 0.0387 0.1846
vn -0.3872 0.7730 0.5025
vn -0.7694 0.6165 -0.1671
vn -0.9821 0.0387 0.1846
vn 0.1726 -0.0348 0.9844
vn 0.0490 0.9437 0.3272
vn -0.9821 0.0387 0.1846
vn 0.1726 -0.0348 0.9844
vn -0.9821 0.0387 0.1846
vn -0.9602 -0.1188 0.2528
vn -0.5578 0.2649 -0.7866
vn -0.9602 -0.1188 0.2528
vn -0.9821 0.0387 0.1846
vn -0.9821 0.0387 0.1846
vn -0.5599 0.2852 -0.7779
vn -0.5578 0.2649 -0.7866
vn -0.9821 0.0387 0.1846
vn -0.7694 0.6165 -0.1671
vn -0.5599 0.2852 -0.7779
vn 0.0000 1.0000 0.0000
vn 0.0000 1.0000 0.0000
vn 0.0000 1.0000 0.0000
vn 0.0000 1.0000 0.0000
vn 0.0000 1.0000 0.0000
vn 0.0000 1.0000 0.0000
vn 0.0000 1.0000 0.0000
vn 0.0000 1.0000 0.0000
vn 0.0000 1.0000 0.0000
vn 0.0000 1.0000 0.0000
vn 0.0000 1.0000 0.0000
vn 0.0000 1.0000 0.0000
vn 0.0000 1.0000 0.0000
f 1/1/1 2/2/2 3/3/3
f 4/4/4 5/5/5 6/6/6
f 7/7/7 8/8/8 9/9/9
f 10/10/10 11/11/11 12/12/12
f 13/13/13 14/14/14 15/15/15
f 16/16/16 17/17/17 18/18/18
f 19/19/19 20/20/20 21/21/21
f 22/22/22 23/23/23 24/24/24
f 25/25/25 26/26/26 27/27/27
f 28/28/28 29/29/29 30/30/30
f 31/31/31 32/32/32 33/33/33
f 34/34/34 35/35/35 36/36/36
f 37/37/37 38/38/38 39/39/39
f 40/40/40 41/41/41 42/42/42
f 43/43/43 44/44/44 45/45/45
f 46/46/46 47/47/47 48/48/48
f 49/49/49 50/50/50 51/51/51
f 52/52/52 53/53/53 54/54/54
f 55/55/55 56/56/56 57/57/57
f 58/58/58 59/59/59 60/60/60
f 61/61/61 62/62/62 63/63/63
f 64/64/64 65/65/65 66/66/66
f 67/67/67 68/68/68 69/69/69
f 70/70/70 71/71/71 72/72/72
f 73/73/73 74/74/74 75/75/75
f 76/76/76 77/77/77 78/78/78
f 79/79/79 80/80/80 81/81/81
f 82/82/82 83/83/83 84/84/84
f 85/85/85 86/86/86 87/87/87
f 88/88/88 89/89/89 90/90/90
f 91/91/91 92/92/92 93/93/93
f 94/94/94 95/95/95 96/96/96
f 97/97/97 98/98/98 99/99/99
f 100/100/100 101/101/101 102/102/102
f 103/103/103 104/104/104 105/105/105
f 106/106/106 107/107/107 108/108/108
f 109/109/109 110/110/110 111/111/111
f 112/112/112 113/113/113 114/114/114
f 115/115/115 116/116/116 117/117/117
f 118/118/118 119/119/119 120/120/120
f 121/121/121 122/122/122 123/123/123
f 124/124/124 125/125/125 126/126/126
f 127/127/127 128/128/128 129/129/129
f 130/130/130 131/131/131 132/132/132
f 133/133/133 134/134/134 135/135/135
f 136/136/136 137/137/137 138/138/138
f 139/139/139 140/140/140 141/141/141
f 142/142/142 143/143/143 144/144/144
f 145/145/145 146/146/146 147/147/147
f 148/148/148 149/149/149 150/150/150
f 151/151/151 152/152/152 153/153/153
f 154/154/154 155/155/155 156/156/156
f 157/157/157 158/158/158 159/159/159
f 160/160/160 161/161/161 162/162/162
f 163/163/163 164/164/164 165/165/165
f 166/166/166 167/167/167 168/168/168
f 169/169/169 170/170/170 171/171/171
f 172/172/172 173/173/173 174/174/174
f 175/175/175 176/176/176 177/177/177
f 178/178/178 179/179/179 180/180/180
f 181/181/181 182/182/182 183/183/183
f 184/184/184 185/185/185 186/186/186
f 187/187/187 188/188/188 189/189/189
f 190/190/190 191/191/191 192/192/192
f 193/193/193 194/194/194 195/195/195
f 196/196/196 197/197/197 198/198/198
f 199/199/199 200/200/200 201/201/201
f 202/202/202 203/203/203 204/204/204
f 205/205/205 206/206/206 207/207/207
f 208/208/208 209/209/209 210/210/210
f 211/211/211 212/212/212 213/213/213
f 214/214/214 215/215/215 216/216/216
f 217/217/217 218/218/218 219/219/219
f 220/220/220 221/221/221 222/222/222
f 223/223/223 224/224/224 225/225/225
f 226/226/226 227/227/227 228/228/228
f 229/229/229 230/230/230 231/231/231
f 232/232/232 233/233/233 234/234/234
f 235/235/235 236/236/236 237/237/237
f 238/238/238 239/239/239 240/240/240
f 241/241/241 242/242/242 243/243/243
f 244/244/244 245/245/245 246/246/246
f 247/247/247 248/248/248 249/249/249
f 250/250/250 251/251/251 252/252/252
f 253/253/253 254/254/254 255/255/255
f 256/256/256 257/257/257 258/258/258
f 259/259/259 260/260/260 261/261/261
f 262/262/262 263/263/263 264/264/264
f 265/265/265 266/266/266 267/267/267
f 268/268/268 269/269/269 270/270/270
f 271/271/271 272/272/272 273/273/273
f 274/274/274 275/275/275 276/276/276
f 277/277/277 278/278/278 279/279/279
f 280/280/280 281/281/281 282/282/282
f 283/283/283 284/284/284 285/285/285
f 286/286/286 287/287/287 288/288/288
f 289/289/289 290/290/290 291/291/291
f 292/292/292 293/293/293 294/294/294
f 295/295/295 296/296/296 297/297/297
f 298/298/298 299/299/299 300/300/300
f 301/301/301 302/302/302 303/303/303
f 304/304/304 305/305/305 306/306/306
f 307/307/307 308/308/308 309/309/309
f 310/310/310 311/311/311 312/312/312
f 313/313/313 314/314/314 315/315/315
f 316/316/316 317/317/317 318/318/318
f 319/319/319 320/320/320 321/321/321
f 322/322/322 323/323/323 324/324/324
f 325/325/325 326/326/326 327/327/327
f 328/328/328 329/329/329 330/330/330
f 331/331/331 332/332/332 333/333/333
f 334/334/334 335/335/335 336/336/336
f 337/337/337 338/338/338 339/339/339
f 340/340/340 341/341/341 342/342/342
f 343/343/343 344/344/344 345/345/345
f 346/346/346 347/347/347 348/348/348
f 349/349/349 350/350/350 351/351/351
f 352/352/352 353/353/353 354/354/354
f 355/355/355 356/356/356 357/357/357
f 358/358/358 359/359/359 360/360/360
f 361/361/361 362/362/362 363/363/363
f 364/364/364 365/365/365 366/366/366
f 367/367/367 368/368/368 369/369/369
f 370/370/370 371/371/371 372/372/372
f 373/373/373 374/374/374 375/375/375
f 373/373/373 375/375/375 374/374/374
f 373/373/373 375/375/375 376/376/376
f 373/373/373 376/376/376 375/375/375
f 373/373/373 376/376/376 377/377/377
f 373/373/373 377/377/377 376/376/376
f 373/373/373 377/377/377 378/378/378
f 373/373/373 378/378/378 377/377/377
f 373/373/373 378/378/378 379/379/379
f 373/373/373 379/379/379 378/378/378
f 373/373/373 379/379/379 380/380/380
f 373/373/373 380/380/380 379/379/379
f 373/373/373 380/380/380 381/381/381
f 373/373/373 381/381/381 380/380/380
f 373/373/373 381/381/381 382/382/382
f 373/373/373 382/382/382 381/381/381
f 373/373/373 382/382/382 383/383/383
f 373/373/373 383/383/383 382/382/382
f 373/373/373 383/383/383 384/384/384
f 373/373/373 384/384/384 383/383/383
f 373/373/373 384/384/384 385/385/385
f 373/373/373 385/385/385 384/384/384
f 373/373/373 385/385/385 374/374/374
f 373/373/373 374/374/374 385/385/385
