o leg_left_3
v -2.15944 1.66570 1.66486
v -1.90535 1.93081 1.52182
v -2.00965 1.63237 1.66845
v -1.90535 1.93081 1.52182
v -2.15944 1.66570 1.66486
v -1.96457 2.06059 1.64097
v -2.22917 1.74093 1.70812
v -1.69330 2.05302 1.44580
v -1.87365 1.87553 1.47999
v -1.83324 2.06567 1.60864
v -1.82225 2.11818 1.74499
v -1.59476 2.17628 1.41753
v -1.90535 1.93081 1.52182
v -1.51999 1.83125 1.40985
v -1.89017 1.88340 1.55816
v -1.87365 1.87553 1.47999
v -1.51999 1.83125 1.40985
v -1.90535 1.93081 1.52182
v -1.89017 1.88340 1.55816
v -1.83324 2.06567 1.60864
v -1.96457 2.06059 1.64097
v -1.87365 1.87553 1.47999
v -1.89017 1.88340 1.55816
v -1.90535 1.93081 1.52182
v -2.00965 1.63237 1.66845
v -1.90535 1.93081 1.52182
v -1.51999 1.83125 1.40985
v -1.24249 2.00068 1.88003
v -1.22089 1.87575 1.73371
v -1.22089 1.87575 1.73371
v -1.46332 1.78885 1.54109
v -1.51999 1.83125 1.40985
v -1.61093 1.90357 2.04788
v -1.65972 2.15889 1.73903
v -1.47446 2.06857 1.93590
v -1.87636 1.50218 1.85214
v -1.95460 1.81839 2.21754
v -1.80063 1.61637 2.05576
v -1.84874 1.64636 2.11973
v -1.87636 1.50218 1.85214
v -1.82225 2.11818 1.74499
v -1.65972 2.15889 1.73903
v -1.95408 2.12238 1.83408
v -1.91044 1.58752 1.78005
v -2.10426 1.93165 2.16589
v -1.86540 1.57808 2.03061
v -1.95408 2.12238 1.83408
v -1.86927 1.55855 2.08420
v -1.86540 1.57808 2.03061
v -1.84874 1.64636 2.11973
v -1.83324 2.06567 1.60864
v -1.96457 2.06059 1.64097
v -1.86540 1.57808 2.03061
v -1.86927 1.55855 2.08420
v -1.99088 1.59207 1.99914
v -1.87636 1.50218 1.85214
v -1.91431 1.55827 1.73878
v -1.91044 1.58752 1.78005
v -1.87636 1.50218 1.85214
v -1.99883 1.54423 1.74103
v -1.91431 1.55827 1.73878
v -1.91044 1.58752 1.78005
v -1.97218 1.66109 2.18718
v -1.86540 1.57808 2.03061
v -1.99088 1.59207 1.99914
v -1.99874 1.50449 1.91384
v -1.99874 1.50449 1.91384
v -1.86927 1.55855 2.08420
v -1.91431 1.55827 1.73878
v -1.99883 1.54423 1.74103
v -1.91044 1.58752 1.78005
v -1.95460 1.81839 2.21754
v -2.01741 1.73945 2.19085
v -1.97218 1.66109 2.18718
v -2.04717 1.83302 2.23296
v -2.00965 1.63237 1.66845
v -2.30121 1.81487 1.82343
v -1.95408 2.12238 1.83408
v -1.96457 2.06059 1.64097
v -1.99874 1.50449 1.91384
v -1.91044 1.58752 1.78005
v -1.99883 1.54423 1.74103
v -2.00965 1.63237 1.66845
v -2.11285 1.62072 1.94155
v -1.86927 1.55855 2.08420
v -1.97218 1.66109 2.18718
v -1.99883 1.54423 1.74103
v -1.99088 1.59207 1.99914
v -2.00965 1.63237 1.66845
v -1.99874 1.50449 1.91384
v -2.01741 1.73945 2.19085
v -2.04717 1.83302 2.23296
v -2.05407 1.78090 2.15758
v -1.99088 1.59207 1.99914
v -2.12366 1.70174 1.80948
v -2.00965 1.63237 1.66845
v -2.11285 1.62072 1.94155
v -2.04717 1.83302 2.23296
v -2.05407 1.78090 2.15758
v -2.09387 1.72375 2.26656
v -2.01741 1.73945 2.19085
v -2.12366 1.70174 1.80948
v -2.20472 1.91648 1.86806
v -2.22761 1.92968 2.07269
v -2.15944 1.66570 1.66486
v -2.00965 1.63237 1.66845
v -2.12366 1.70174 1.80948
v -2.11285 1.62072 1.94155
v -2.20239 1.64612 1.77583
v -2.12366 1.70174 1.80948
v -2.10426 1.93165 2.16589
v -2.22761 1.92968 2.07269
v -2.04717 1.83302 2.23296
v -2.22761 1.92968 2.07269
v -2.22761 1.92968 2.07269
v -2.22761 1.92968 2.07269
v -2.24135 1.82246 2.24913
v -2.22917 1.74093 1.70812
v -2.30121 1.81487 1.82343
v -1.96457 2.06059 1.64097
v -2.31782 1.84931 1.98487
v -2.26970 1.89631 2.11397
v -2.22917 1.74093 1.70812
v -2.26970 1.89631 2.11397
v -2.22761 1.92968 2.07269
v -2.30967 1.84859 1.91235
v -2.22253 1.79843 1.94886
v -2.12366 1.70174 1.80948
v -2.20239 1.64612 1.77583
v -2.22253 1.79843 1.94886
v -2.31782 1.84931 1.98487
v -2.40057 1.75389 1.96714
v -2.30967 1.84859 1.91235
v -2.30121 1.81487 1.82343
v -2.31782 1.84931 1.98487
v -1.61093 1.90357 2.04788
v -1.84874 1.64636 2.11973
v -2.05407 1.78090 2.15758
v -2.24135 1.82246 2.24913
v -1.97218 1.66109 2.18718
v -2.01741 1.73945 2.19085
v -2.05741 1.44254 2.27540
v -2.05741 1.44254 2.27540
v -2.22079 1.43030 2.06577
v -1.97218 1.66109 2.18718
v -2.11285 1.62072 1.94155
v -2.01741 1.73945 2.19085
v -2.09405 1.46454 2.33294
v -2.05741 1.44254 2.27540
v -2.01741 1.73945 2.19085
v -2.09387 1.72375 2.26656
v -2.19646 1.59175 2.55051
v -2.24135 1.82246 2.24913
v -2.05407 1.78090 2.15758
v -2.19646 1.59175 2.55051
v -2.29863 1.79351 2.33727
v -2.24779 1.49278 1.93191
v -2.20239 1.64612 1.77583
v -2.18855 1.21989 2.85248
v -2.13393 1.33478 2.55081
v -2.18023 1.58079 2.61973
v -2.09405 1.46454 2.33294
v -2.20846 1.16229 2.78921
v -2.22116 1.31119 2.47440
v -2.13393 1.33478 2.55081
v -2.19646 1.59175 2.55051
v -2.18023 1.58079 2.61973
v -2.09405 1.46454 2.33294
v -2.09405 1.46454 2.33294
v -2.13393 1.33478 2.55081
v -2.31941 1.33000 2.39241
v -2.22079 1.43030 2.06577
v -2.05741 1.44254 2.27540
v -2.09405 1.46454 2.33294
v -2.13393 1.33478 2.55081
v -2.22116 1.31119 2.47440
v -2.31941 1.33000 2.39241
v -2.31122 1.12159 2.67001
v -2.27423 1.45719 2.13153
v -2.26970 1.89631 2.11397
v -2.41775 1.64307 2.05343
v -2.24779 1.49278 1.93191
v -2.22079 1.43030 2.06577
v -2.42152 1.60409 2.59285
v -2.18023 1.58079 2.61973
v -2.19646 1.59175 2.55051
v -2.27423 1.45719 2.13153
v -2.26970 1.89631 2.11397
v -2.36513 1.77651 2.10319
v -2.29863 1.79351 2.33727
v -2.20239 1.64612 1.77583
v -2.42152 1.60409 2.59285
v -2.40057 1.75389 1.96714
v -2.43865 1.16218 2.69878
v -2.31941 1.33000 2.39241
v -2.22116 1.31119 2.47440
v -2.29863 1.79351 2.33727
v -2.36513 1.77651 2.10319
v -2.40577 1.80389 2.17675
v -2.40057 1.75389 1.96714
v -2.31782 1.84931 1.98487
v -2.27423 1.45719 2.13153
v -2.47423 1.69665 2.21791
v -2.31941 1.33000 2.39241
v -2.43865 1.16218 2.69878
v -2.39286 1.27375 2.51520
v -2.31941 1.33000 2.39241
v -2.29863 1.79351 2.33727
v -2.40245 1.65757 2.35833
v -2.47866 1.56923 2.49736
v -2.42152 1.60409 2.59285
v -2.41775 1.64307 2.05343
v -2.40245 1.65757 2.35833
v -2.29863 1.79351 2.33727
v -2.47423 1.69665 2.21791
v -2.40577 1.80389 2.17675
v -2.36513 1.77651 2.10319
v -2.47423 1.69665 2.21791
v -2.40577 1.80389 2.17675
v -2.47866 1.56923 2.49736
v -2.41775 1.64307 2.05343
v -2.39286 1.27375 2.51520
v -2.55404 1.41265 2.62974
v -2.18855 1.21989 2.85248
v -2.20846 1.16229 2.78921
v -2.13393 1.33478 2.55081
v -2.18023 1.58079 2.61973
v -2.27167 1.17661 3.00134
v -2.25879 1.08618 2.88517
v -2.27167 1.17661 3.00134
v -2.32767 1.34981 3.01804
v -2.35989 1.21134 3.03411
v -2.25879 1.08618 2.88517
v -2.27167 1.17661 3.00134
v -2.43865 1.16218 2.69878
v -2.22116 1.31119 2.47440
v -2.31122 1.12159 2.67001
v -2.18023 1.58079 2.61973
v -2.39942 1.47719 2.84555
v -2.32767 1.34981 3.01804
v -2.31122 1.12159 2.67001
v -2.20846 1.16229 2.78921
v -2.43865 1.16218 2.69878
v -2.25879 1.08618 2.88517
v -2.43865 1.16218 2.69878
v -2.20846 1.16229 2.78921
v -2.36877 1.25916 3.08711
v -2.45901 1.27201 3.06826
v -2.36877 1.25916 3.08711
v -2.32767 1.34981 3.01804
v -2.36877 1.25916 3.08711
v -2.48785 1.38813 2.88943
v -2.42152 1.60409 2.59285
v -2.45901 1.27201 3.06826
v -2.39286 1.27375 2.51520
v -2.43865 1.16218 2.69878
v -2.42903 1.20500 2.59832
v -2.60007 0.86984 3.35301
v -2.35989 1.21134 3.03411
v -2.45901 1.27201 3.06826
v -2.56632 1.51006 2.81326
v -2.39286 1.27375 2.51520
v -2.42903 1.20500 2.59832
v -2.62641 1.33760 2.69731
v -2.47866 1.56923 2.49736
v -2.49184 1.61515 2.56728
v -2.42152 1.60409 2.59285
v -2.54043 1.28111 2.69024
v -2.42903 1.20500 2.59832
v -2.43865 1.16218 2.69878
v -2.49184 1.61515 2.56728
v -2.61845 0.99144 3.36257
v -2.47423 1.69665 2.21791
v -2.55404 1.41265 2.62974
v -2.47866 1.56923 2.49736
v -2.77798 0.77005 3.13877
v -2.60886 1.42706 2.87298
v -2.78730 0.42541 3.62700
v -2.25879 1.08618 2.88517
v -2.43865 1.16218 2.69878
v -2.77798 0.77005 3.13877
v -2.54043 1.28111 2.69024
v -2.78730 0.42541 3.62700
v -2.49184 1.61515 2.56728
v -2.47866 1.56923 2.49736
v -2.55404 1.41265 2.62974
v -2.55404 1.41265 2.62974
v -2.56632 1.51006 2.81326
v -2.62641 1.33760 2.69731
v -2.62641 1.33760 2.69731
v -2.74602 1.19410 3.02352
v -2.61845 0.99144 3.36257
v -2.64650 1.38063 2.82084
v -2.48785 1.38813 2.88943
v -2.60886 1.42706 2.87298
v -2.64650 1.38063 2.82084
v -2.64650 1.38063 2.82084
v -2.65805 0.83361 3.49073
v -2.60886 1.42706 2.87298
v -2.64650 1.38063 2.82084
v -2.91136 0.48391 3.89879
v -2.54043 1.28111 2.69024
v -2.74602 1.19410 3.02352
v -2.64650 1.38063 2.82084
v -2.61845 0.99144 3.36257
v -2.91136 0.48391 3.89879
v -2.65805 0.83361 3.49073
v -2.89472 0.55767 3.84629
v -2.77694 0.15507 3.54877
v -2.78578 0.18580 3.41186
v -2.78506 0.25199 3.50783
v -2.79370 0.02112 3.39103
v -2.77798 0.77005 3.13877
v -2.93518 0.88273 3.37668
v -2.79797 0.02079 3.49024
v -2.93518 0.88273 3.37668
v -2.98908 0.12667 3.46740
v -2.78578 0.18580 3.41186
v -2.79370 0.02112 3.39103
v -2.79286 0.33405 3.64159
v -2.81055 0.23081 3.75347
v -2.79850 0.21212 3.62559
v -3.00186 0.28640 3.58959
v -2.78506 0.25199 3.50783
v -2.79850 0.21212 3.62559
v -2.81055 0.23081 3.75347
v -2.96620 0.21630 3.78421
v -2.79797 0.02079 3.49024
v -2.93789 0.02159 3.42443
v -2.79370 0.02112 3.39103
v -2.79286 0.33405 3.64159
v -2.77694 0.15507 3.54877
v -2.92215 0.04146 3.55221
v -2.79797 0.02079 3.49024
v -2.92205 0.24962 3.86597
v -2.94514 0.29057 3.92919
v -2.94514 0.29057 3.92919
v -2.92205 0.24962 3.86597
v -2.81055 0.23081 3.75347
v -2.93789 0.02159 3.42443
v -2.92215 0.04146 3.55221
v -2.77694 0.15507 3.54877
v -2.93450 0.11968 3.55062
v -2.79850 0.21212 3.62559
v -3.05362 0.20686 3.69518
v -2.77694 0.15507 3.54877
v -3.02019 0.74870 3.52911
v -2.78730 0.42541 3.62700
v -2.79286 0.33405 3.64159
v -2.98840 0.41829 3.54218
v -2.92215 0.04146 3.55221
v -2.98840 0.41829 3.54218
v -2.89472 0.55767 3.84629
v -3.18060 0.50282 3.82081
v -2.91136 0.48391 3.89879
v -2.93789 0.02159 3.42443
v -2.92215 0.04146 3.55221
v -2.93450 0.11968 3.55062
v -2.94763 0.20779 3.93283
v -2.92013 0.18348 3.88241
v -2.92205 0.24962 3.86597
v -2.93450 0.11968 3.55062
v -2.98908 0.12667 3.46740
v -2.93789 0.02159 3.42443
v -3.05362 0.20686 3.69518
v -2.94763 0.20779 3.93283
v -3.02590 0.17632 3.76685
v -2.92013 0.18348 3.88241
v -3.05362 0.20686 3.69518
v -3.06349 0.13886 3.67368
v -2.77694 0.15507 3.54877
v -2.77694 0.15507 3.54877
v -3.06349 0.13886 3.67368
v -2.93450 0.11968 3.55062
v -2.94514 0.29057 3.92919
v -2.92205 0.24962 3.86597
v -2.92013 0.18348 3.88241
v -2.96620 0.21630 3.78421
v -2.94763 0.20779 3.93283
v -2.95474 0.03295 3.92559
v -3.02590 0.17632 3.76685
v -2.92013 0.18348 3.88241
v -3.02590 0.17632 3.76685
v -2.96620 0.21630 3.78421
v -2.93450 0.11968 3.55062
v -3.00417 0.02585 3.50615
v -2.98908 0.12667 3.46740
v -3.02019 0.74870 3.52911
v -3.00186 0.28640 3.58959
v -3.05362 0.20686 3.69518
v -3.03217 0.02129 3.36642
v -3.00186 0.28640 3.58959
v -3.02834 0.19428 3.37086
v -2.98840 0.41829 3.54218
v -3.09548 0.63512 3.67297
v -2.95474 0.03295 3.92559
v -2.94763 0.20779 3.93283
v -3.10454 0.02156 3.99026
v -3.02645 0.02387 3.76797
v -2.93450 0.11968 3.55062
v -3.09830 0.03003 3.54368
v -3.00417 0.02585 3.50615
v -2.94514 0.29057 3.92919
v -2.91136 0.48391 3.89879
v -3.09557 0.32584 3.90481
v -3.00417 0.02585 3.50615
v -3.09830 0.03003 3.54368
v -3.14907 0.01815 3.40630
v -3.10670 0.07908 3.59285
v -3.02834 0.19428 3.37086
v -3.08377 0.23767 3.57426
v -3.00186 0.28640 3.58959
v -2.94514 0.29057 3.92919
v -3.10708 0.21098 4.00000
v -3.03217 0.02129 3.36642
v -3.02590 0.17632 3.76685
v -3.02645 0.02387 3.76797
v -3.22122 0.20417 3.82145
v -3.09548 0.63512 3.67297
v -3.06349 0.13886 3.67368
v -3.11077 0.18594 3.59688
v -2.93450 0.11968 3.55062
v -3.00186 0.28640 3.58959
v -3.22250 0.28585 3.84823
v -2.98840 0.41829 3.54218
v -3.02834 0.19428 3.37086
v -3.14907 0.01815 3.40630
v -3.14779 0.18584 3.43644
v -3.18060 0.50282 3.82081
v -3.03217 0.02129 3.36642
v -3.11077 0.18594 3.59688
v -3.06349 0.13886 3.67368
v -3.05362 0.20686 3.69518
v -3.10708 0.21098 4.00000
v -2.94514 0.29057 3.92919
v -3.09557 0.32584 3.90481
v -3.14779 0.18584 3.43644
v -3.05362 0.20686 3.69518
v -3.02590 0.17632 3.76685
v -3.22122 0.20417 3.82145
v -3.10670 0.07908 3.59285
v -2.93450 0.11968 3.55062
v -3.11077 0.18594 3.59688
v -3.05362 0.20686 3.69518
v -3.15097 0.13167 3.62365
v -3.11077 0.18594 3.59688
v -3.10708 0.21098 4.00000
v -3.22122 0.20417 3.82145
v -3.10454 0.02156 3.99026
v -3.11077 0.18594 3.59688
v -3.09830 0.03003 3.54368
v -3.10670 0.07908 3.59285
v -3.17730 0.02472 3.84298
v -2.95474 0.03295 3.92559
v -3.10454 0.02156 3.99026
v -3.08377 0.23767 3.57426
v -3.11077 0.18594 3.59688
v -3.15097 0.13167 3.62365
v -3.09557 0.32584 3.90481
v -3.20540 0.19385 3.90110
v -3.10708 0.21098 4.00000
v -2.91136 0.48391 3.89879
v -3.22250 0.28585 3.84823
v -3.17730 0.02472 3.84298
v -3.10708 0.21098 4.00000
v -3.20540 0.19385 3.90110
v -3.22122 0.20417 3.82145
v -3.11077 0.18594 3.59688
v -3.08377 0.23767 3.57426
v -3.14779 0.18584 3.43644
v -3.09830 0.03003 3.54368
v -3.11077 0.18594 3.59688
v -3.14907 0.01815 3.40630
v -3.17730 0.02472 3.84298
v -3.02645 0.02387 3.76797
v -3.14779 0.18584 3.43644
v -3.22250 0.28585 3.84823
v -3.15097 0.13167 3.62365
v -3.21293 0.11149 3.55557
v -3.19090 0.22795 3.53306
v -3.15097 0.13167 3.62365
v -3.19090 0.22795 3.53306
v -3.08377 0.23767 3.57426
v -3.22250 0.28585 3.84823
v -3.29953 0.46003 3.82095
v -3.19636 0.06625 3.56766
v -3.28730 0.11937 3.68706
v -3.15097 0.13167 3.62365
v -3.05362 0.20686 3.69518
v -3.22122 0.20417 3.82145
v -3.18060 0.50282 3.82081
v -2.98840 0.41829 3.54218
v -3.29953 0.46003 3.82095
v -3.19090 0.22795 3.53306
v -3.21293 0.11149 3.55557
v -3.23198 0.17712 3.55221
v -3.08377 0.23767 3.57426
v -3.25125 0.28098 3.76593
v -3.22250 0.28585 3.84823
v -3.27202 0.22924 3.57878
v -3.19090 0.22795 3.53306
v -3.22122 0.20417 3.82145
v -3.20540 0.19385 3.90110
v -3.22250 0.28585 3.84823
v -3.19636 0.06625 3.56766
v -3.22367 0.02323 3.61550
v -3.24236 0.02801 3.47463
v -3.25125 0.28098 3.76593
v -3.24236 0.02801 3.47463
v -3.23198 0.17712 3.55221
v -3.25977 0.17785 3.48164
v -3.29953 0.46003 3.82095
v -3.19636 0.06625 3.56766
v -3.27202 0.22924 3.57878
v -3.28730 0.11937 3.68706
v -3.22367 0.02323 3.61550
v -3.19636 0.06625 3.56766
v -3.31448 0.05854 3.68199
v -3.25977 0.17785 3.48164
v -3.24236 0.02801 3.47463
v -3.39244 0.01942 3.53733
v -3.28730 0.11937 3.68706
v -3.25125 0.28098 3.76593
v -3.33717 0.16170 3.68756
v -3.33717 0.16170 3.68756
v -3.23198 0.17712 3.55221
v -3.25977 0.17785 3.48164
v -3.33717 0.16170 3.68756
v -3.31448 0.05854 3.68199
v -3.25125 0.28098 3.76593
v -3.27202 0.22924 3.57878
v -3.33717 0.16170 3.68756
v -3.22367 0.02323 3.61550
v -3.39244 0.01942 3.53733
v -3.24236 0.02801 3.47463
v -3.31448 0.05854 3.68199
v -3.38632 0.16132 3.53953
v -3.31448 0.05854 3.68199
v -3.38632 0.16132 3.53953
v -3.31448 0.05854 3.68199
v -3.33717 0.16170 3.68756
v -3.39244 0.01942 3.53733
v -3.38632 0.16132 3.53953
v -2.18855 1.21989 2.85248
v -1.62827 1.92900 1.68690
v -1.61093 1.90357 2.04788
v -1.24249 2.00068 1.88003
v -1.47446 2.06857 1.93590
v -1.65972 2.15889 1.73903
v -1.82225 2.11818 1.74499
v -1.59476 2.17628 1.41753
v -1.83324 2.06567 1.60864
v -1.69330 2.05302 1.44580
v -1.87365 1.87553 1.47999
v -1.51999 1.83125 1.40985
v -1.91044 1.58752 1.78005
v -1.46332 1.78885 1.54109
v -1.87636 1.50218 1.85214
v -1.22089 1.87575 1.73371
vt 0.38119 0.14894
vt 0.41017 0.14894
vt 0.38655 0.15887
vt 0.99750 0.19632
vt 0.99750 0.22530
vt 0.98384 0.19589
vt 0.98938 0.22630
vt 0.70448 0.44956
vt 0.71922 0.43760
vt 0.25363 0.94095
vt 0.24809 0.93435
vt 0.27179 0.93496
vt 0.72221 0.43881
vt 0.26529 0.92981
vt 0.28895 0.92981
vt 0.28630 0.93372
vt 0.74827 0.92166
vt 0.77259 0.92166
vt 0.77167 0.92517
vt 0.72092 0.44679
vt 0.73186 0.43741
vt 0.44472 0.00615
vt 0.44090 0.00337
vt 0.44412 0.00170
vt 0.91987 0.22662
vt 0.90160 0.23593
vt 0.88671 0.21670
vt 0.67466 0.64866
vt 0.54726 0.71839
vt 0.64307 0.71849
vt 0.84240 0.39641
vt 0.83310 0.39423
vt 0.56538 0.69959
vt 0.70724 0.66977
vt 0.68378 0.66239
vt 0.60449 0.68745
vt 0.66592 0.70281
vt 0.59433 0.70338
vt 0.59132 0.69921
vt 0.85072 0.43335
vt 0.62756 0.29882
vt 0.61979 0.30484
vt 0.70373 0.68893
vt 0.84352 0.43133
vt 0.67842 0.70904
vt 0.59473 0.69444
vt 0.63910 0.30523
vt 0.73119 0.00901
vt 0.73195 0.01259
vt 0.72509 0.01018
vt 0.63782 0.28731
vt 0.64338 0.29417
vt 0.34686 0.88084
vt 0.34966 0.87849
vt 0.35084 0.88816
vt 0.02436 0.26947
vt 0.01590 0.26947
vt 0.01744 0.26661
vt 0.03880 0.46628
vt 0.04576 0.47471
vt 0.04027 0.47461
vt 0.84065 0.43130
vt 0.65717 0.70745
vt 0.05965 0.65796
vt 0.05764 0.66605
vt 0.04982 0.66534
vt 0.59980 0.67671
vt 0.65109 0.70252
vt 0.92746 0.00994
vt 0.92978 0.00496
vt 0.93017 0.01173
vt 0.93372 0.96407
vt 0.92834 0.96011
vt 0.92984 0.95450
vt 0.92836 0.96695
vt 0.83067 0.43184
vt 0.95639 0.23730
vt 0.97685 0.25885
vt 0.96540 0.26502
vt 0.04711 0.46343
vt 0.01354 0.21139
vt 0.00806 0.20740
vt 0.01239 0.20147
vt 0.95830 0.08102
vt 0.97591 0.07530
vt 0.97571 0.08670
vt 0.36944 0.12265
vt 0.38525 0.12841
vt 0.36389 0.12747
vt 0.38078 0.12196
vt 0.35323 0.08986
vt 0.34969 0.09571
vt 0.34909 0.08986
vt 0.45127 0.13226
vt 0.46471 0.12285
vt 0.47264 0.13243
vt 0.35334 0.89663
vt 0.66976 0.70907
vt 0.76953 0.98825
vt 0.76953 0.99653
vt 0.76606 0.99050
vt 0.34670 0.90404
vt 0.96459 0.24193
vt 0.33357 0.09154
vt 0.97367 0.79369
vt 0.96384 0.79351
vt 0.97188 0.78403
vt 0.05740 0.45040
vt 0.05024 0.46025
vt 0.04815 0.45406
vt 0.92571 0.04577
vt 0.93468 0.04996
vt 0.91804 0.04937
vt 0.97403 0.23268
vt 0.68674 0.71668
vt 0.44517 0.05284
vt 0.43709 0.04233
vt 0.43483 0.14777
vt 0.43822 0.15709
vt 0.40911 0.15574
vt 0.96481 0.23067
vt 0.97373 0.22835
vt 0.97966 0.78983
vt 0.99202 0.95270
vt 0.99558 0.95022
vt 0.98609 0.77554
vt 0.97942 0.77397
vt 0.15394 0.57100
vt 0.16046 0.57157
vt 0.15143 0.58332
vt 0.98603 0.77087
vt 0.16080 0.59051
vt 0.96154 0.23401
vt 0.98518 0.78159
vt 0.15263 0.59051
vt 0.67085 0.67527
vt 0.65772 0.69851
vt 0.45000 0.03798
vt 0.98233 0.95010
vt 0.33617 0.08004
vt 0.34005 0.08392
vt 0.32122 0.08274
vt 0.98035 0.73195
vt 0.97895 0.71589
vt 0.99543 0.73019
vt 0.99391 0.71294
vt 0.17106 0.61900
vt 0.18374 0.60442
vt 0.18632 0.60791
vt 0.65089 0.23540
vt 0.65637 0.23174
vt 0.67626 0.23000
vt 0.65491 0.22104
vt 0.64855 0.23224
vt 0.17179 0.59307
vt 0.66112 0.21880
vt 0.98370 0.70813
vt 0.99553 0.70153
vt 0.95180 0.58157
vt 0.93835 0.56698
vt 0.94928 0.55566
vt 0.92989 0.55393
vt 0.65361 0.09418
vt 0.67285 0.08547
vt 0.67194 0.09258
vt 0.20840 0.09001
vt 0.21149 0.09310
vt 0.19205 0.09207
vt 0.80770 0.92746
vt 0.82326 0.92745
vt 0.81701 0.94085
vt 0.24817 0.06065
vt 0.23209 0.05940
vt 0.23097 0.05521
vt 0.07479 0.47886
vt 0.07603 0.48592
vt 0.07468 0.49365
vt 0.65549 0.08451
vt 0.24735 0.05533
vt 0.64621 0.21726
vt 0.32870 0.35907
vt 0.34413 0.35680
vt 0.34492 0.36586
vt 0.07478 0.52015
vt 0.07478 0.50538
vt 0.07887 0.50687
vt 0.79922 0.94147
vt 0.18951 0.63863
vt 0.19831 0.63561
vt 0.19883 0.65038
vt 0.34300 0.34330
vt 0.68173 0.21723
vt 0.32669 0.35074
vt 0.19588 0.93656
vt 0.19588 0.91420
vt 0.20323 0.91692
vt 0.07900 0.49065
vt 0.07900 0.50543
vt 0.07515 0.50170
vt 0.19850 0.62699
vt 0.19139 0.63001
vt 0.34035 0.36871
vt 0.32083 0.36680
vt 0.33840 0.38640
vt 0.19135 0.49571
vt 0.19019 0.48245
vt 0.19223 0.47336
vt 0.87606 0.11106
vt 0.86844 0.11819
vt 0.85744 0.11819
vt 0.85540 0.11143
vt 0.20617 0.63083
vt 0.60362 0.12878
vt 0.59353 0.13148
vt 0.60079 0.11935
vt 0.59271 0.11980
vt 0.03309 0.28561
vt 0.04095 0.29294
vt 0.03309 0.29097
vt 0.61397 0.13249
vt 0.04152 0.28193
vt 0.33522 0.39516
vt 0.32076 0.39749
vt 0.34827 0.24115
vt 0.34768 0.24806
vt 0.32374 0.24931
vt 0.86607 0.71276
vt 0.86503 0.66829
vt 0.35813 0.24834
vt 0.36158 0.23719
vt 0.85335 0.67677
vt 0.25983 0.55032
vt 0.24275 0.55315
vt 0.25265 0.54697
vt 0.30527 0.87916
vt 0.27793 0.87916
vt 0.29886 0.87047
vt 0.62997 0.50570
vt 0.62960 0.53216
vt 0.61685 0.51703
vt 0.89532 0.09814
vt 0.88420 0.09172
vt 0.90373 0.09136
vt 0.62271 0.49580
vt 0.62970 0.47566
vt 0.63313 0.49489
vt 0.85295 0.66721
vt 0.61511 0.55966
vt 0.60957 0.55386
vt 0.61177 0.54655
vt 0.26477 0.54751
vt 0.62783 0.54380
vt 0.63577 0.51287
vt 0.26879 0.55367
vt 0.73801 0.05418
vt 0.75536 0.05418
vt 0.74685 0.05579
vt 0.42265 0.56649
vt 0.41927 0.60784
vt 0.41014 0.60499
vt 0.63760 0.52964
vt 0.63050 0.14822
vt 0.63242 0.13944
vt 0.65276 0.13944
vt 0.01723 0.82013
vt 0.02343 0.81762
vt 0.02597 0.82303
vt 0.27505 0.87100
vt 0.26228 0.86920
vt 0.26677 0.86180
vt 0.64079 0.50973
vt 0.41386 0.57070
vt 0.76499 0.85408
vt 0.77735 0.81603
vt 0.77747 0.83328
vt 0.57607 0.47278
vt 0.63994 0.53796
vt 0.43582 0.52472
vt 0.43561 0.61358
vt 0.83556 0.48545
vt 0.84489 0.43256
vt 0.84730 0.48939
vt 0.53386 0.49391
vt 0.98399 0.33163
vt 0.99059 0.33052
vt 0.99059 0.34777
vt 0.64958 0.14873
vt 0.97456 0.35142
vt 0.28144 0.87605
vt 0.99049 0.35759
vt 0.64238 0.57417
vt 0.61332 0.59798
vt 0.06525 0.20672
vt 0.06525 0.22038
vt 0.06091 0.21123
vt 0.98087 0.36167
vt 0.29049 0.87082
vt 0.41860 0.55504
vt 0.97479 0.36017
vt 0.64798 0.55074
vt 0.41813 0.50843
vt 0.65703 0.57845
vt 0.64301 0.60685
vt 0.64253 0.58373
vt 0.66463 0.85558
vt 0.60194 0.85319
vt 0.64882 0.85134
vt 0.60887 0.85540
vt 0.45678 0.51762
vt 0.46076 0.52799
vt 0.45221 0.52459
vt 0.47253 0.52217
vt 0.66352 0.63496
vt 0.64247 0.64692
vt 0.46828 0.51558
vt 0.63829 0.61872
vt 0.94194 0.71568
vt 0.95922 0.71530
vt 0.95583 0.72797
vt 0.44091 0.51945
vt 0.44250 0.50746
vt 0.44952 0.51493
vt 0.94161 0.69977
vt 0.95899 0.70609
vt 0.18863 0.55070
vt 0.17903 0.54710
vt 0.18013 0.53457
vt 0.91610 0.95396
vt 0.92297 0.96405
vt 0.91182 0.96054
vt 0.95795 0.69373
vt 0.07609 0.85452
vt 0.08787 0.84596
vt 0.08750 0.85703
vt 0.17253 0.53632
vt 0.42817 0.49638
vt 0.91062 0.06791
vt 0.90498 0.07053
vt 0.89253 0.06863
vt 0.94448 0.72518
vt 0.21838 0.02433
vt 0.20381 0.02433
vt 0.21534 0.01887
vt 0.44850 0.90998
vt 0.42832 0.90457
vt 0.45337 0.90396
vt 0.64211 0.66429
vt 0.57372 0.06889
vt 0.57308 0.07618
vt 0.55651 0.06784
vt 0.92716 0.95465
vt 0.53084 0.47694
vt 0.61057 0.66004
vt 0.63141 0.66849
vt 0.60828 0.66772
vt 0.64396 0.96508
vt 0.63881 0.95617
vt 0.64385 0.95245
vt 0.24870 0.99516
vt 0.24966 0.99999
vt 0.24428 0.99999
vt 0.28791 0.98506
vt 0.28791 0.97718
vt 0.29775 0.97714
vt 0.18879 0.52981
vt 0.07486 0.39174
vt 0.07486 0.37704
vt 0.07880 0.38878
vt 0.94421 0.91791
vt 0.94421 0.91223
vt 0.96889 0.91359
vt 0.91867 0.91217
vt 0.94339 0.91217
vt 0.93026 0.91748
vt 0.24224 0.99412
vt 0.01664 0.64164
vt 0.01664 0.64702
vt 0.00889 0.64253
vt 0.08876 0.47897
vt 0.07498 0.47777
vt 0.08675 0.46441
vt 0.70258 0.07373
vt 0.70277 0.08612
vt 0.69880 0.08184
vt 0.19533 0.89351
vt 0.19400 0.88372
vt 0.20127 0.88834
vt 0.64000 0.63797
vt 0.55588 0.07894
vt 0.69940 0.09171
vt 0.20255 0.87639
vt 0.20293 0.90417
vt 0.21101 0.88713
vt 0.66284 0.68037
vt 0.64027 0.65527
vt 0.17857 0.21186
vt 0.17857 0.19803
vt 0.19143 0.21303
vt 0.07471 0.46408
vt 0.08768 0.66065
vt 0.07426 0.65453
vt 0.08202 0.65256
vt 0.97159 0.03449
vt 0.98428 0.04371
vt 0.96515 0.04504
vt 0.34740 0.01835
vt 0.34717 0.01034
vt 0.35877 0.01034
vt 0.07334 0.65997
vt 0.92279 0.75576
vt 0.92371 0.77273
vt 0.91612 0.77340
vt 0.17841 0.19149
vt 0.19223 0.19807
vt 0.35852 0.02010
vt 0.09434 0.21816
vt 0.09434 0.20612
vt 0.11037 0.22027
vt 0.64114 0.67991
vt 0.33470 0.93830
vt 0.33470 0.94633
vt 0.32067 0.94020
vt 0.73706 0.21366
vt 0.71031 0.21600
vt 0.73968 0.20286
vt 0.88125 0.94159
vt 0.89470 0.95214
vt 0.88125 0.95237
vt 0.64085 0.69696
vt 0.89489 0.94238
vt 0.22254 0.99032
vt 0.23058 0.99032
vt 0.22974 0.99594
vt 0.46617 0.04100
vt 0.45086 0.04100
vt 0.45894 0.03166
vt 0.93121 0.76250
vt 0.09727 0.18504
vt 0.09929 0.17883
vt 0.11382 0.18592
vt 0.08769 0.74863
vt 0.07333 0.74863
vt 0.08619 0.74032
vt 0.04405 0.75506
vt 0.04405 0.76630
vt 0.03941 0.76292
vt 0.83336 0.06074
vt 0.81662 0.06074
vt 0.83234 0.04579
vt 0.05499 0.65233
vt 0.05499 0.63928
vt 0.05743 0.64424
vt 0.05962 0.13216
vt 0.07252 0.14577
vt 0.05962 0.14513
vt 0.02949 0.81500
vt 0.02992 0.81992
vt 0.02958 0.82565
vt 0.97485 0.51665
vt 0.97050 0.52949
vt 0.96375 0.52069
vt 0.97931 0.49800
vt 0.97872 0.52739
vt 0.10764 0.20584
vt 0.80734 0.04569
vt 0.79662 0.04856
vt 0.79060 0.04620
vt 0.05472 0.35503
vt 0.05966 0.35503
vt 0.05803 0.36760
vt 0.80924 0.03452
vt 0.79639 0.03678
vt 0.81137 0.02311
vt 0.81937 0.04631
vt 0.07293 0.13209
vt 0.79793 0.02387
vt 0.63320 0.69263
vt 0.15680 0.60746
vt 0.16183 0.60111
vt 0.16244 0.61167
vt 0.64978 0.97437
vt 0.63888 0.97437
vt 0.64292 0.96623
vt 0.92975 0.79653
vt 0.64015 0.68444
vt 0.15729 0.60014
vt 0.26256 0.07668
vt 0.26014 0.08834
vt 0.24928 0.09125
vt 0.24912 0.07468
vt 0.59582 0.21088
vt 0.58869 0.23749
vt 0.58828 0.20434
vt 0.65252 0.04600
vt 0.65285 0.03648
vt 0.65521 0.04134
vt 0.22091 0.23203
vt 0.24058 0.22665
vt 0.24546 0.23153
vt 0.22741 0.21863
vt 0.22145 0.22295
vt 0.15464 0.46817
vt 0.15905 0.47290
vt 0.15059 0.47362
vt 0.03839 0.03549
vt 0.04262 0.03194
vt 0.04255 0.04317
vt 0.14679 0.46787
vt 0.15481 0.59207
vt 0.16822 0.59802
vt 0.16801 0.59293
vt 0.70656 0.20128
vt 0.26782 0.08810
vt 0.65974 0.04462
vt 0.15283 0.45470
vt 0.74957 0.96250
vt 0.74535 0.95895
vt 0.75834 0.95934
vt 0.65005 0.96397
vt 0.64919 0.95208
vt 0.66205 0.95208
vt 0.72708 0.09241
vt 0.74156 0.09242
vt 0.72926 0.09709
vt 0.66805 0.03690
vt 0.05226 0.68400
vt 0.05710 0.68048
vt 0.05354 0.69753
vt 0.26760 0.07511
vt 0.10147 0.13553
vt 0.08900 0.14460
vt 0.08851 0.13326
vt 0.06955 0.89519
vt 0.05960 0.88439
vt 0.07246 0.88434
vt 0.72186 0.09321
vt 0.66109 0.96325
vt 0.06058 0.89769
vt 0.06311 0.68977
vt 0.05684 0.01969
vt 0.06519 0.01969
vt 0.05454 0.03284
vt 0.06573 0.03200
vt 0.87312 0.67958
vt 0.56538 0.69959
vt 0.56538 0.69959
vt 0.56538 0.69959
vt 0.56538 0.69959
vt 0.56538 0.69959
vt 0.56538 0.69959
vt 0.56538 0.69959
vt 0.56538 0.69959
vt 0.56538 0.69959
vt 0.56538 0.69959
vt 0.56538 0.69959
vt 0.56538 0.69959
vt 0.56538 0.69959
vt 0.56538 0.69959
vt 0.56538 0.69959
vn -0.0717 -0.4196 -0.9049
vn -0.0717 -0.4196 -0.9049
vn -0.0717 -0.4196 -0.9049
vn -0.6850 0.2978 -0.6648
vn -0.4836 0.1869 -0.8551
vn -0.6402 0.2724 -0.7183
vn -0.4041 0.1447 -0.9032
vn -0.5199 0.2498 -0.8169
vn -0.4787 0.3297 -0.8137
vn -0.5642 0.7875 -0.2482
vn -0.5678 0.7825 -0.2556
vn -0.5527 0.8024 -0.2253
vn -0.4529 0.5092 -0.7318
vn -0.1089 -0.9911 0.0767
vn -0.1089 -0.9911 0.0767
vn -0.1089 -0.9911 0.0767
vn 0.3623 0.6374 0.6801
vn 0.3623 0.6374 0.6801
vn 0.3623 0.6374 0.6801
vn -0.4045 0.6381 -0.6552
vn -0.2120 0.6066 -0.7662
vn -0.9024 -0.4040 -0.1500
vn -0.9024 -0.4040 -0.1500
vn -0.9024 -0.4040 -0.1500
vn -0.3392 -0.3167 -0.8858
vn -0.3392 -0.3167 -0.8858
vn -0.3392 -0.3167 -0.8858
vn 0.3027 0.4391 0.8459
vn 0.5136 -0.5810 0.6314
vn 0.4595 -0.8681 0.1879
vn -0.0074 -0.8266 -0.5627
vn 0.1463 -0.9172 -0.3705
vn 0.5647 -0.3763 0.7345
vn -0.0914 0.8413 0.5328
vn 0.1460 0.6236 0.7680
vn 0.3712 -0.8773 0.3043
vn 0.3322 0.2851 0.8991
vn 0.4746 -0.7151 0.5132
vn 0.4732 -0.5740 0.6683
vn -0.0994 -0.6624 -0.7425
vn -0.2075 0.9308 -0.3009
vn -0.2445 0.9682 -0.0533
vn -0.0438 0.8860 0.4616
vn -0.0967 -0.6646 -0.7409
vn -0.0405 0.8026 0.5951
vn 0.3097 -0.8614 0.4025
vn -0.1838 0.9308 -0.3159
vn 0.9747 -0.2234 -0.0110
vn 0.9747 -0.2234 -0.0110
vn 0.9747 -0.2234 -0.0110
vn -0.1216 0.9295 -0.3482
vn -0.1438 0.9360 -0.3214
vn -0.0186 -0.9390 -0.3434
vn -0.0280 -0.9430 -0.3316
vn -0.1081 -0.9641 -0.2425
vn 0.9553 0.1914 -0.2251
vn 0.9553 0.1914 -0.2251
vn 0.9553 0.1914 -0.2251
vn -0.0528 -0.9518 -0.3021
vn 0.0051 -0.9334 -0.3589
vn 0.1319 -0.8702 -0.4747
vn 0.1295 -0.8854 -0.4463
vn 0.4364 -0.2711 0.8579
vn -0.2507 -0.6638 0.7046
vn -0.2507 -0.6638 0.7046
vn -0.2507 -0.6638 0.7046
vn 0.1726 -0.9102 0.3765
vn 0.3953 -0.4224 0.8157
vn -0.1501 0.8132 -0.5623
vn -0.1501 0.8132 -0.5623
vn -0.1501 0.8132 -0.5623
vn -0.0053 -0.3166 0.9485
vn -0.1102 -0.2386 0.9648
vn -0.2049 -0.1634 0.9651
vn 0.0923 -0.3841 0.9187
vn 0.1163 -0.8815 -0.4577
vn -0.6217 0.7269 -0.2918
vn -0.6442 0.7422 -0.1848
vn -0.6462 0.7364 -0.2005
vn -0.1303 -0.9663 -0.2221
vn 0.5420 -0.4936 -0.6802
vn 0.5420 -0.4936 -0.6802
vn 0.5420 -0.4936 -0.6802
vn -0.4321 -0.8170 0.3817
vn -0.4321 -0.8170 0.3817
vn -0.4321 -0.8170 0.3817
vn -0.9974 -0.0584 0.0415
vn -0.9994 0.0208 0.0269
vn -0.9954 -0.0841 0.0463
vn -0.9972 0.0727 0.0172
vn -0.8229 -0.4293 0.3722
vn -0.7444 -0.5154 0.4245
vn -0.7621 -0.4978 0.4140
vn -0.5773 -0.8138 -0.0664
vn -0.5773 -0.8138 -0.0664
vn -0.5773 -0.8138 -0.0664
vn 0.0409 -0.8573 -0.5131
vn 0.2235 0.6333 0.7410
vn 0.3730 0.7587 0.5341
vn 0.3730 0.7587 0.5341
vn 0.3730 0.7587 0.5341
vn 0.0484 -0.8496 -0.5252
vn -0.6253 0.7516 -0.2100
vn -0.6979 -0.5576 0.4495
vn -0.3977 -0.8623 0.3133
vn -0.2147 -0.9339 0.2859
vn -0.4634 -0.8454 0.2656
vn 0.6359 -0.6335 -0.4407
vn 0.6359 -0.6335 -0.4407
vn 0.6359 -0.6335 -0.4407
vn -0.5940 0.1880 0.7822
vn -0.5940 0.1880 0.7822
vn -0.5940 0.1880 0.7822
vn -0.6279 0.7735 -0.0865
vn -0.2952 0.8799 0.3722
vn 0.4122 0.7640 0.4964
vn 0.4122 0.7640 0.4964
vn -0.6437 0.3951 -0.6554
vn -0.6437 0.3951 -0.6554
vn -0.6437 0.3951 -0.6554
vn -0.5945 0.7990 -0.0901
vn -0.6437 0.7643 -0.0383
vn -0.5487 -0.7888 0.2770
vn -0.1806 0.8467 0.5005
vn -0.1806 0.8467 0.5005
vn -0.5076 -0.8558 0.0999
vn -0.5334 -0.8368 0.1236
vn -0.2259 0.7180 -0.6584
vn -0.2339 0.7161 -0.6576
vn -0.2292 0.6235 -0.7475
vn -0.4839 -0.8739 -0.0457
vn -0.2231 0.5660 -0.7937
vn -0.5865 0.7899 -0.1789
vn -0.4249 -0.8591 0.2854
vn -0.1769 0.3260 -0.9287
vn 0.3792 0.2308 0.8961
vn 0.4375 -0.2997 0.8478
vn 0.4122 0.7640 0.4964
vn -0.1806 0.8467 0.5005
vn 0.4139 0.1973 0.8887
vn 0.4139 0.1973 0.8887
vn 0.4139 0.1973 0.8887
vn 0.7036 -0.4843 -0.5200
vn 0.6937 -0.5871 -0.4173
vn 0.7187 -0.5511 -0.4240
vn 0.6757 -0.6293 -0.3838
vn 0.8877 -0.0096 0.4603
vn 0.8777 0.0029 0.4791
vn 0.8491 0.0357 0.5270
vn 0.3212 0.8091 0.4922
vn 0.3794 0.7721 0.5098
vn 0.2617 0.7636 0.5903
vn 0.3295 0.8110 0.4835
vn 0.4244 0.7289 0.5372
vn 0.8989 -0.0245 0.4375
vn 0.3476 0.7717 0.5325
vn 0.6365 -0.6388 -0.4322
vn 0.6341 -0.6357 -0.4401
vn 0.9678 0.1203 0.2210
vn 0.9658 0.1170 0.2313
vn 0.9656 0.1166 0.2325
vn 0.9633 0.1131 0.2436
vn 0.6300 -0.6919 -0.3527
vn 0.5776 -0.7287 -0.3680
vn 0.5357 -0.7548 -0.3786
vn 0.7240 0.6871 -0.0610
vn 0.7240 0.6871 -0.0610
vn 0.7240 0.6871 -0.0610
vn 0.3994 -0.8356 -0.3771
vn 0.3806 -0.8235 -0.4208
vn 0.3975 -0.8345 -0.3816
vn -0.2094 -0.9524 0.2214
vn -0.2173 -0.9499 0.2248
vn -0.2151 -0.9506 0.2238
vn 0.6469 0.0681 -0.7596
vn 0.6469 0.0681 -0.7596
vn 0.6469 0.0681 -0.7596
vn 0.6614 -0.6674 -0.3423
vn -0.2078 -0.9529 0.2207
vn 0.2218 0.8745 0.4313
vn -0.7695 -0.5745 -0.2790
vn -0.7506 -0.5318 -0.3922
vn -0.7430 -0.6364 -0.2072
vn 0.0800 0.9873 0.1375
vn 0.0800 0.9873 0.1375
vn 0.0800 0.9873 0.1375
vn 0.4144 -0.8443 -0.3399
vn -0.7764 0.6162 0.1322
vn -0.8274 0.5417 0.1485
vn -0.7775 0.6034 0.1771
vn -0.7364 -0.3562 -0.5752
vn 0.1611 0.7543 0.6365
vn -0.7423 -0.3362 -0.5796
vn 0.1786 -0.8906 -0.4183
vn 0.1786 -0.8906 -0.4183
vn 0.1786 -0.8906 -0.4183
vn 0.3327 0.9290 -0.1620
vn 0.3327 0.9290 -0.1620
vn 0.3327 0.9290 -0.1620
vn -0.8699 0.4736 0.1379
vn -0.7589 0.6495 0.0465
vn -0.7680 -0.4947 -0.4068
vn -0.7505 -0.5799 -0.3169
vn -0.7256 -0.4845 -0.4887
vn -0.3295 -0.7681 -0.5490
vn -0.3295 -0.7681 -0.5490
vn -0.3295 -0.7681 -0.5490
vn -0.7603 0.6475 0.0522
vn -0.7976 0.6006 -0.0556
vn -0.7273 0.6745 0.1271
vn -0.7053 0.6881 0.1709
vn -0.9351 0.2963 0.1943
vn -0.4540 0.7710 0.4467
vn -0.6513 0.5843 0.4841
vn -0.5849 0.6599 0.4715
vn -0.6496 0.5959 0.4721
vn -0.7872 0.3956 -0.4732
vn -0.7867 0.4036 -0.4672
vn -0.7864 0.2934 -0.5436
vn -0.2938 0.8715 0.3927
vn -0.7804 0.4640 -0.4191
vn -0.7242 -0.3506 -0.5938
vn -0.7019 -0.4792 -0.5270
vn 0.9065 -0.3892 0.1638
vn 0.9149 -0.3969 0.0733
vn 0.9330 -0.3583 0.0325
vn 0.8290 0.2732 0.4880
vn 0.8045 0.2402 0.5432
vn 0.8741 -0.3876 0.2927
vn 0.8556 -0.3582 0.3737
vn 0.8208 0.2143 0.5295
vn -0.0987 -0.7544 0.6489
vn -0.0861 -0.7907 0.6061
vn -0.0800 -0.7841 0.6154
vn -0.3515 -0.5861 -0.7300
vn -0.3515 -0.5861 -0.7300
vn -0.3515 -0.5861 -0.7300
vn 0.0756 0.8764 0.4755
vn 0.0112 0.7955 0.6058
vn 0.1664 0.8250 0.5400
vn -0.1768 -0.8748 0.4511
vn -0.1768 -0.8748 0.4511
vn -0.1768 -0.8748 0.4511
vn 0.2180 -0.8098 -0.5447
vn 0.2209 -0.8098 -0.5435
vn 0.2113 -0.8167 -0.5370
vn 0.7304 0.1724 0.6609
vn -0.2480 0.7571 0.6044
vn -0.0732 0.6253 0.7770
vn -0.2389 0.7290 0.6415
vn -0.1888 -0.7446 0.6403
vn -0.2110 0.6672 0.7143
vn 0.0321 0.9054 0.4234
vn -0.2368 -0.7407 0.6287
vn 0.7481 -0.6332 -0.1982
vn 0.7481 -0.6332 -0.1982
vn 0.7481 -0.6332 -0.1982
vn 0.8240 0.0746 0.5616
vn 0.7076 0.1609 0.6881
vn 0.5466 0.3477 0.7618
vn 0.0166 0.7637 0.6454
vn -0.6337 -0.3493 -0.6902
vn -0.6227 -0.4480 -0.6415
vn -0.6360 -0.2021 -0.7448
vn 0.3046 0.8214 -0.4821
vn 0.3046 0.8214 -0.4821
vn 0.3046 0.8214 -0.4821
vn -0.5819 -0.8132 -0.0047
vn -0.6895 -0.6663 -0.2839
vn -0.7040 -0.6265 -0.3344
vn 0.0016 0.9194 0.3933
vn 0.8604 0.0907 0.5014
vn -0.7693 0.5859 0.2549
vn -0.7693 0.5859 0.2549
vn -0.7693 0.5859 0.2549
vn 0.2208 -0.8000 -0.5579
vn -0.0167 0.5326 0.8462
vn 0.8968 -0.0509 0.4395
vn 0.8210 -0.0160 0.5707
vn -0.4645 -0.4523 -0.7613
vn -0.4645 -0.4523 -0.7613
vn -0.4645 -0.4523 -0.7613
vn 0.2482 -0.7936 -0.5555
vn -0.9427 0.2095 -0.2596
vn -0.9332 0.1932 -0.3028
vn -0.9015 0.3454 -0.2609
vn -0.6277 -0.0908 -0.7731
vn -0.8873 0.4222 -0.1856
vn -0.5301 -0.8291 0.1778
vn -0.8125 0.4926 -0.3116
vn -0.2832 0.7748 0.5653
vn -0.2573 0.7833 0.5660
vn -0.2939 -0.5985 0.7452
vn -0.2939 -0.5985 0.7452
vn -0.2939 -0.5985 0.7452
vn -0.8421 0.5117 -0.1705
vn -0.5261 -0.8260 0.2022
vn 0.9171 -0.2301 0.3256
vn -0.8386 0.5275 0.1357
vn -0.2831 0.7709 0.5705
vn 0.8809 -0.0197 0.4730
vn -0.8306 -0.1267 -0.5422
vn -0.8315 -0.1163 -0.5433
vn -0.8217 -0.1568 -0.5478
vn 0.5543 0.4319 0.7115
vn 0.6347 0.3575 0.6851
vn 0.5366 0.4467 0.7159
vn 0.6607 0.3307 0.6739
vn 0.9998 -0.0058 0.0174
vn 0.9979 -0.0026 -0.0650
vn 0.9970 0.0754 -0.0192
vn 0.9943 -0.1049 -0.0166
vn -0.8461 -0.0750 -0.5276
vn -0.8458 -0.0684 -0.5291
vn 0.9842 -0.1723 0.0417
vn -0.2428 0.7882 0.5655
vn -0.3248 0.3953 -0.8592
vn -0.2706 0.4702 -0.8401
vn -0.2733 0.1780 -0.9453
vn 0.9630 0.0476 0.2651
vn 0.9407 0.0622 0.3335
vn 0.9656 -0.0772 0.2483
vn -0.2037 0.7323 -0.6498
vn -0.0757 0.8314 -0.5505
vn 0.0886 -0.9888 0.1197
vn 0.1289 -0.9727 0.1932
vn 0.0936 -0.9809 0.1703
vn -0.0384 -0.9968 0.0695
vn -0.0515 -0.9939 0.0975
vn -0.0041 -1.0000 -0.0035
vn -0.0631 0.8490 -0.5246
vn 0.3483 -0.4199 0.8381
vn 0.3483 -0.4199 0.8381
vn 0.3483 -0.4199 0.8381
vn 0.1478 -0.9412 0.3038
vn 0.7865 -0.0405 0.6162
vn 0.4904 -0.6389 0.5928
vn 0.4904 -0.6389 0.5928
vn 0.4904 -0.6389 0.5928
vn -0.2160 0.2776 -0.9361
vn 0.0069 0.0214 0.9997
vn 0.0069 0.0214 0.9997
vn 0.0069 0.0214 0.9997
vn 0.1846 -0.7635 0.6189
vn 0.1846 -0.7635 0.6189
vn 0.1846 -0.7635 0.6189
vn -0.8445 -0.0949 -0.5270
vn 0.3881 -0.1683 -0.9061
vn 0.3596 -0.2318 -0.9038
vn 0.3245 -0.3039 -0.8958
vn -0.0823 -0.9832 0.1631
vn 0.2614 -0.7909 -0.5533
vn -0.2004 0.7245 0.6594
vn -0.1981 0.3834 0.9021
vn -0.2122 0.4827 0.8497
vn -0.9779 -0.1515 0.1440
vn -0.9779 -0.1515 0.1440
vn -0.9779 -0.1515 0.1440
vn 0.9199 0.0577 0.3880
vn 0.8956 0.1317 0.4250
vn 0.9219 0.0503 0.3841
vn -0.7280 -0.5316 0.4329
vn -0.7280 -0.5316 0.4329
vn -0.7280 -0.5316 0.4329
vn 0.0389 -0.9970 0.0674
vn -0.2639 -0.9172 0.2984
vn -0.2639 -0.9172 0.2984
vn -0.2639 -0.9172 0.2984
vn 0.3929 -0.3287 0.8588
vn 0.3929 -0.3287 0.8588
vn 0.3929 -0.3287 0.8588
vn 0.2084 -0.9093 0.3602
vn 0.2084 -0.9093 0.3602
vn 0.2084 -0.9093 0.3602
vn 0.9366 -0.0128 0.3503
vn 0.8908 -0.0851 -0.4464
vn 0.8908 -0.0851 -0.4464
vn 0.8908 -0.0851 -0.4464
vn 0.9057 -0.0193 -0.4234
vn 0.9078 -0.0136 -0.4192
vn 0.9081 -0.0128 -0.4186
vn 0.5790 -0.6520 -0.4896
vn 0.5781 -0.6477 -0.4962
vn 0.5787 -0.6504 -0.4920
vn 0.7786 -0.3232 -0.5378
vn 0.9044 -0.2642 -0.3351
vn 0.9381 -0.0554 -0.3419
vn -0.2151 0.7967 0.5649
vn 0.3005 -0.3496 -0.8874
vn 0.5778 -0.6460 -0.4988
vn 0.9509 -0.1126 -0.2882
vn 0.9462 0.2409 -0.2160
vn 0.9457 0.1150 -0.3040
vn -0.8405 -0.0952 -0.5334
vn -0.1805 0.8030 0.5680
vn 0.3992 -0.0541 0.9153
vn 0.3909 -0.0091 0.9204
vn 0.3932 -0.0482 0.9182
vn 0.9103 -0.0064 -0.4138
vn 0.2987 -0.6030 0.7397
vn 0.3086 -0.6196 0.7217
vn 0.2813 -0.5735 0.7694
vn -0.1176 0.1742 0.9777
vn -0.1176 0.1742 0.9777
vn -0.1176 0.1742 0.9777
vn 0.0108 -0.9981 0.0614
vn -0.0086 -0.9960 0.0893
vn 0.0181 -0.9985 0.0509
vn 0.3220 -0.6422 0.6956
vn -0.2889 0.9172 -0.2744
vn -0.3985 0.8589 -0.3215
vn -0.4357 0.8368 -0.3316
vn 0.3886 0.0288 0.9210
vn 0.3877 -0.0262 0.9214
vn 0.0356 -0.9990 0.0255
vn -0.2700 -0.0061 -0.9628
vn -0.3511 -0.1032 -0.9306
vn -0.3611 -0.1156 -0.9253
vn -0.8389 -0.0905 -0.5367
vn -0.4020 -0.8699 -0.2857
vn -0.4020 -0.8699 -0.2857
vn -0.4020 -0.8699 -0.2857
vn -0.7515 -0.1539 -0.6415
vn -0.6677 -0.3446 -0.6599
vn -0.7202 -0.2351 -0.6527
vn -0.4219 0.1081 -0.9002
vn -0.3938 0.0858 -0.9152
vn -0.4838 0.1584 -0.8607
vn -0.8316 -0.0791 -0.5497
vn -0.3235 0.0314 -0.9457
vn -0.8606 -0.0358 0.5080
vn -0.8606 -0.0358 0.5080
vn -0.8606 -0.0358 0.5080
vn 0.0243 0.6365 0.7709
vn 0.0243 0.6365 0.7709
vn 0.0243 0.6365 0.7709
vn -0.2083 0.9434 -0.2580
vn -0.2186 -0.9253 -0.3098
vn -0.2186 -0.9253 -0.3098
vn -0.2186 -0.9253 -0.3098
vn 0.2441 -0.0272 0.9694
vn 0.2441 -0.0272 0.9694
vn 0.2441 -0.0272 0.9694
vn 0.7050 -0.6556 -0.2703
vn 0.7050 -0.6556 -0.2703
vn 0.7050 -0.6556 -0.2703
vn -0.8412 -0.0390 0.5392
vn -0.8643 -0.0959 0.4937
vn -0.8644 -0.0959 0.4936
vn -0.9901 -0.0326 -0.1367
vn -0.9901 -0.0326 -0.1367
vn -0.9901 -0.0326 -0.1367
vn 0.0362 -0.9993 0.0021
vn 0.0366 -0.9993 0.0010
vn 0.0549 -0.9973 -0.0485
vn -0.2388 -0.2816 -0.9293
vn -0.2388 -0.2816 -0.9293
vn -0.2388 -0.2816 -0.9293
vn -0.5177 0.5388 0.6646
vn -0.5681 0.4534 0.6869
vn -0.6479 0.5235 0.5534
vn -0.4770 0.5810 0.6594
vn -0.4763 0.4150 0.7752
vn -0.4361 -0.2116 -0.8747
vn 0.3494 -0.9179 -0.1883
vn 0.3494 -0.9179 -0.1883
vn 0.3494 -0.9179 -0.1883
vn -0.8331 0.5188 0.1919
vn -0.8331 0.5188 0.1919
vn -0.8331 0.5188 0.1919
vn -0.9145 -0.1942 0.3548
vn -0.9531 -0.1049 0.2839
vn -0.9506 -0.1120 0.2897
vn -0.8857 -0.1647 0.4340
vn 0.0188 -0.9986 0.0490
vn -0.9739 -0.0329 0.2247
vn -0.1746 0.1566 0.9721
vn 0.7528 -0.1462 -0.6418
vn 0.8348 0.0548 -0.5478
vn 0.7513 -0.2594 -0.6069
vn 0.3402 -0.5657 -0.7512
vn 0.3402 -0.5657 -0.7512
vn 0.3402 -0.5657 -0.7512
vn -0.4258 0.8295 -0.3615
vn -0.0471 0.1342 0.9898
vn 0.8004 0.1371 -0.5836
vn 0.4782 -0.6638 0.5751
vn 0.3130 -0.7957 0.5186
vn 0.3038 -0.8512 0.4279
vn 0.3103 -0.8654 0.3935
vn -0.3009 0.8349 -0.4609
vn -0.3009 0.8349 -0.4609
vn -0.3009 0.8349 -0.4609
vn -0.4182 -0.0042 -0.9083
vn -0.2817 -0.1304 -0.9506
vn -0.4601 -0.0979 -0.8825
vn -0.0185 0.9802 -0.1970
vn 0.0834 0.9852 -0.1498
vn 0.1344 0.9853 -0.1052
vn -0.0490 0.9733 -0.2241
vn -0.0471 0.9926 -0.1116
vn -0.9431 -0.0688 0.3254
vn -0.9799 -0.0760 0.1847
vn -0.9561 -0.1048 0.2736
vn 0.7700 -0.6260 -0.1233
vn 0.7700 -0.6260 -0.1233
vn 0.7700 -0.6260 -0.1233
vn -0.9137 -0.0677 0.4007
vn 0.8735 0.1432 -0.4653
vn 0.9032 0.2440 -0.3532
vn 0.8952 0.1751 -0.4099
vn -0.6434 -0.3879 -0.6600
vn 0.4346 -0.6522 0.6211
vn -0.6839 -0.1627 -0.7112
vn -0.8916 -0.0218 0.4522
vn 0.6382 0.3548 0.6833
vn 0.6382 0.3548 0.6833
vn 0.6382 0.3548 0.6833
vn -0.4008 0.0137 -0.9160
vn -0.3854 -0.0016 -0.9228
vn -0.4015 0.0144 -0.9157
vn -0.1438 -0.1810 0.9729
vn -0.2997 -0.3636 0.8820
vn -0.2311 -0.2833 0.9308
vn -0.7471 -0.2626 -0.6106
vn -0.0881 0.9951 0.0450
vn -0.1012 0.9941 0.0399
vn -0.1058 0.9937 0.0382
vn 0.6629 -0.3514 0.6612
vn -0.7815 0.6182 -0.0842
vn -0.7815 0.6182 -0.0842
vn -0.7815 0.6182 -0.0842
vn -0.0484 -0.9871 0.1528
vn -0.0356 -0.9915 0.1252
vn 0.0408 -0.9984 -0.0392
vn -0.0439 -0.0635 0.9970
vn -0.4192 0.0321 -0.9073
vn -0.1283 -0.9377 0.3228
vn -0.1136 0.9929 0.0352
vn -0.8355 -0.2112 0.5073
vn -0.8986 -0.1016 0.4268
vn -0.9172 -0.0597 0.3939
vn -0.9485 0.0360 0.3148
vn 0.7825 0.3246 0.5313
vn 0.0000 1.0000 0.0000
vn 0.0000 1.0000 0.0000
vn 0.0000 1.0000 0.0000
vn 0.0000 1.0000 0.0000
vn 0.0000 1.0000 0.0000
vn 0.0000 1.0000 0.0000
vn 0.0000 1.0000 0.0000
vn 0.0000 1.0000 0.0000
vn 0.0000 1.0000 0.0000
vn 0.0000 1.0000 0.0000
vn 0.0000 1.0000 0.0000
vn 0.0000 1.0000 0.0000
vn 0.0000 1.0000 0.0000
vn 0.0000 1.0000 0.0000
vn 0.0000 1.0000 0.0000
f 136/136/136 28/28/28 35/35/35
f 136/136/136 35/35/35 37/37/37
f 30/30/30 38/38/38 36/36/36
f 39/39/39 29/29/29 33/33/33
f 39/39/39 38/38/38 29/29/29
f 37/37/37 137/137/137 136/136/136
f 43/43/43 35/35/35 34/34/34
f 10/10/10 11/11/11 12/12/12
f 8/8/8 9/9/9 13/13/13
f 44/44/44 31/31/31 40/40/40
f 45/45/45 37/37/37 35/35/35
f 36/36/36 38/38/38 46/46/46
f 38/38/38 39/39/39 46/46/46
f 14/14/14 15/15/15 16/16/16
f 17/17/17 18/18/18 19/19/19
f 42/42/42 41/41/41 47/47/47
f 20/20/20 8/8/8 13/13/13
f 48/48/48 49/49/49 50/50/50
f 41/41/41 51/51/51 52/52/52
f 21/21/21 20/20/20 13/13/13
f 22/22/22 23/23/23 24/24/24
f 35/35/35 43/43/43 45/45/45
f 53/53/53 54/54/54 55/55/55
f 56/56/56 57/57/57 58/58/58
f 59/59/59 60/60/60 61/61/61
f 137/137/137 37/37/37 63/63/63
f 64/64/64 65/65/65 66/66/66
f 36/36/36 46/46/46 67/67/67
f 137/137/137 63/63/63 68/68/68
f 69/69/69 70/70/70 71/71/71
f 52/52/52 47/47/47 41/41/41
f 72/72/72 73/73/73 74/74/74
f 72/72/72 75/75/75 73/73/73
f 76/76/76 32/32/32 62/62/62
f 25/25/25 26/26/26 27/27/27
f 77/77/77 78/78/78 79/79/79
f 60/60/60 59/59/59 80/80/80
f 81/81/81 82/82/82 83/83/83
f 84/84/84 85/85/85 86/86/86
f 1/1/1 2/2/2 3/3/3
f 87/87/87 88/88/88 89/89/89
f 87/87/87 90/90/90 88/88/88
f 91/91/91 92/92/92 93/93/93
f 4/4/4 5/5/5 6/6/6
f 94/94/94 95/95/95 96/96/96
f 140/140/140 141/141/141 142/142/142
f 55/55/55 54/54/54 97/97/97
f 98/98/98 37/37/37 45/45/45
f 143/143/143 144/144/144 145/145/145
f 145/145/145 144/144/144 146/146/146
f 99/99/99 100/100/100 101/101/101
f 147/147/147 148/148/148 149/149/149
f 97/97/97 102/102/102 55/55/55
f 77/77/77 103/103/103 78/78/78
f 93/93/93 92/92/92 104/104/104
f 150/150/150 151/151/151 152/152/152
f 153/153/153 151/151/151 154/154/154
f 105/105/105 106/106/106 107/107/107
f 147/147/147 155/155/155 148/148/148
f 108/108/108 109/109/109 110/110/110
f 151/151/151 156/156/156 152/152/152
f 111/111/111 112/112/112 113/113/113
f 103/103/103 114/114/114 78/78/78
f 43/43/43 115/115/115 45/45/45
f 144/144/144 157/157/157 146/146/146
f 157/157/157 158/158/158 146/146/146
f 159/159/159 160/160/160 161/161/161
f 161/161/161 160/160/160 162/162/162
f 7/7/7 6/6/6 5/5/5
f 224/224/224 225/225/225 226/226/226
f 163/163/163 164/164/164 165/165/165
f 166/166/166 167/167/167 168/168/168
f 151/151/151 153/153/153 156/156/156
f 169/169/169 170/170/170 171/171/171
f 138/138/138 116/116/116 117/117/117
f 118/118/118 119/119/119 120/120/120
f 172/172/172 173/173/173 174/174/174
f 175/175/175 176/176/176 177/177/177
f 544/544/544 227/227/227 228/228/228
f 178/178/178 164/164/164 163/163/163
f 224/224/224 229/229/229 225/225/225
f 114/114/114 121/121/121 122/122/122
f 105/105/105 107/107/107 123/123/123
f 124/124/124 139/139/139 125/125/125
f 126/126/126 123/123/123 107/107/107
f 179/179/179 172/172/172 174/174/174
f 230/230/230 229/229/229 224/224/224
f 227/227/227 231/231/231 228/228/228
f 126/126/126 107/107/107 127/127/127
f 128/128/128 129/129/129 130/130/130
f 103/103/103 121/121/121 114/114/114
f 127/127/127 131/131/131 126/126/126
f 156/156/156 153/153/153 180/180/180
f 130/130/130 129/129/129 132/132/132
f 181/181/181 182/182/182 183/183/183
f 121/121/121 103/103/103 133/133/133
f 126/126/126 134/134/134 123/123/123
f 184/184/184 185/185/185 186/186/186
f 171/171/171 187/187/187 169/169/169
f 232/232/232 233/233/233 234/234/234
f 135/135/135 130/130/130 132/132/132
f 133/133/133 103/103/103 77/77/77
f 235/235/235 236/236/236 237/237/237
f 238/238/238 239/239/239 240/240/240
f 241/241/241 242/242/242 243/243/243
f 188/188/188 189/189/189 190/190/190
f 244/244/244 245/245/245 246/246/246
f 181/181/181 191/191/191 182/182/182
f 152/152/152 156/156/156 192/192/192
f 181/181/181 193/193/193 191/191/191
f 194/194/194 195/195/195 196/196/196
f 247/247/247 228/228/228 231/231/231
f 197/197/197 198/198/198 199/199/199
f 200/200/200 188/188/188 201/201/201
f 200/200/200 189/189/189 188/188/188
f 202/202/202 203/203/203 183/183/183
f 204/204/204 203/203/203 202/202/202
f 205/205/205 206/206/206 207/207/207
f 248/248/248 249/249/249 250/250/250
f 251/251/251 232/232/232 234/234/234
f 208/208/208 209/209/209 210/210/210
f 210/210/210 211/211/211 208/208/208
f 239/239/239 252/252/252 250/250/250
f 253/253/253 239/239/239 238/238/238
f 251/251/251 254/254/254 232/232/232
f 255/255/255 256/256/256 257/257/257
f 200/200/200 212/212/212 189/189/189
f 213/213/213 214/214/214 215/215/215
f 214/214/214 216/216/216 215/215/215
f 258/258/258 259/259/259 260/260/260
f 250/250/250 252/252/252 248/248/248
f 239/239/239 253/253/253 261/261/261
f 217/217/217 218/218/218 219/219/219
f 215/215/215 220/220/220 213/213/213
f 183/183/183 203/203/203 181/181/181
f 217/217/217 221/221/221 218/218/218
f 262/262/262 263/263/263 264/264/264
f 222/222/222 223/223/223 204/204/204
f 265/265/265 266/266/266 267/267/267
f 268/268/268 269/269/269 270/270/270
f 204/204/204 223/223/223 203/203/203
f 261/261/261 253/253/253 271/271/271
f 258/258/258 260/260/260 272/272/272
f 273/273/273 274/274/274 275/275/275
f 244/244/244 276/276/276 245/245/245
f 252/252/252 239/239/239 277/277/277
f 239/239/239 261/261/261 277/277/277
f 278/278/278 279/279/279 259/259/259
f 280/280/280 281/281/281 282/282/282
f 278/278/278 259/259/259 258/258/258
f 283/283/283 276/276/276 244/244/244
f 284/284/284 285/285/285 286/286/286
f 262/262/262 264/264/264 287/287/287
f 286/286/286 288/288/288 284/284/284
f 269/269/269 268/268/268 289/289/289
f 286/286/286 290/290/290 288/288/288
f 291/291/291 292/292/292 248/248/248
f 293/293/293 294/294/294 295/295/295
f 288/288/288 290/290/290 296/296/296
f 268/268/268 297/297/297 289/289/289
f 272/272/272 298/298/298 258/258/258
f 299/299/299 288/288/288 296/296/296
f 252/252/252 300/300/300 291/291/291
f 258/258/258 301/301/301 278/278/278
f 248/248/248 252/252/252 291/291/291
f 298/298/298 301/301/301 258/258/258
f 302/302/302 303/303/303 304/304/304
f 305/305/305 306/306/306 307/307/307
f 306/306/306 305/305/305 308/308/308
f 309/309/309 310/310/310 311/311/311
f 312/312/312 310/310/310 309/309/309
f 313/313/313 314/314/314 302/302/302
f 312/312/312 309/309/309 315/315/315
f 316/316/316 292/292/292 291/291/291
f 317/317/317 318/318/318 319/319/319
f 320/320/320 321/321/321 322/322/322
f 309/309/309 320/320/320 322/322/322
f 320/320/320 309/309/309 311/311/311
f 314/314/314 303/303/303 302/302/302
f 320/320/320 278/278/278 301/301/301
f 301/301/301 321/321/321 320/320/320
f 318/318/318 323/323/323 324/324/324
f 325/325/325 326/326/326 327/327/327
f 328/328/328 329/329/329 330/330/330
f 331/331/331 324/324/324 323/323/323
f 332/332/332 333/333/333 334/334/334
f 326/326/326 335/335/335 327/327/327
f 336/336/336 321/321/321 301/301/301
f 337/337/337 338/338/338 339/339/339
f 340/340/340 317/317/317 319/319/319
f 341/341/341 342/342/342 343/343/343
f 323/323/323 318/318/318 317/317/317
f 344/344/344 345/345/345 346/346/346
f 347/347/347 314/314/314 313/313/313
f 348/348/348 349/349/349 350/350/350
f 351/351/351 329/329/329 328/328/328
f 352/352/352 276/276/276 283/283/283
f 353/353/353 354/354/354 355/355/355
f 356/356/356 357/357/357 358/358/358
f 359/359/359 360/360/360 361/361/361
f 353/353/353 292/292/292 316/316/316
f 362/362/362 363/363/363 364/364/364
f 365/365/365 325/325/325 327/327/327
f 366/366/366 367/367/367 368/368/368
f 369/369/369 370/370/370 371/371/371
f 372/372/372 373/373/373 374/374/374
f 361/361/361 375/375/375 359/359/359
f 376/376/376 377/377/377 378/378/378
f 379/379/379 380/380/380 381/381/381
f 382/382/382 383/383/383 384/384/384
f 385/385/385 386/386/386 387/387/387
f 353/353/353 316/316/316 388/388/388
f 350/350/350 349/349/349 389/389/389
f 384/384/384 383/383/383 390/390/390
f 391/391/391 387/387/387 386/386/386
f 392/392/392 387/387/387 393/393/393
f 393/393/393 387/387/387 391/391/391
f 313/313/313 394/394/394 347/347/347
f 353/353/353 388/388/388 395/395/395
f 396/396/396 397/397/397 398/398/398
f 381/381/381 380/380/380 399/399/399
f 354/354/354 353/353/353 395/395/395
f 400/400/400 401/401/401 402/402/402
f 403/403/403 404/404/404 405/405/405
f 406/406/406 407/407/407 408/408/408
f 401/401/401 400/400/400 409/409/409
f 410/410/410 411/411/411 412/412/412
f 397/397/397 413/413/413 414/414/414
f 408/408/408 415/415/415 406/406/406
f 416/416/416 417/417/417 418/418/418
f 394/394/394 419/419/419 347/347/347
f 420/420/420 421/421/421 422/422/422
f 423/423/423 424/424/424 425/425/425
f 426/426/426 427/427/427 428/428/428
f 429/429/429 419/419/419 394/394/394
f 426/426/426 430/430/430 427/427/427
f 431/431/431 432/432/432 433/433/433
f 398/398/398 397/397/397 414/414/414
f 434/434/434 435/435/435 436/436/436
f 410/410/410 437/437/437 411/411/411
f 438/438/438 439/439/439 440/440/440
f 441/441/441 442/442/442 443/443/443
f 444/444/444 445/445/445 446/446/446
f 447/447/447 448/448/448 449/449/449
f 450/450/450 451/451/451 452/452/452
f 453/453/453 454/454/454 455/455/455
f 456/456/456 457/457/457 458/458/458
f 459/459/459 460/460/460 461/461/461
f 462/462/462 463/463/463 459/459/459
f 464/464/464 418/418/418 417/417/417
f 465/465/465 466/466/466 467/467/467
f 468/468/468 469/469/469 470/470/470
f 471/471/471 472/472/472 473/473/473
f 448/448/448 474/474/474 449/449/449
f 453/453/453 475/475/475 454/454/454
f 473/473/473 472/472/472 476/476/476
f 354/354/354 477/477/477 355/355/355
f 478/478/478 479/479/479 480/480/480
f 481/481/481 482/482/482 483/483/483
f 411/411/411 484/484/484 412/412/412
f 354/354/354 485/485/485 477/477/477
f 478/478/478 486/486/486 479/479/479
f 487/487/487 488/488/488 489/489/489
f 487/487/487 489/489/489 490/490/490
f 491/491/491 492/492/492 493/493/493
f 494/494/494 495/495/495 496/496/496
f 497/497/497 498/498/498 499/499/499
f 498/498/498 497/497/497 500/500/500
f 459/459/459 463/463/463 460/460/460
f 501/501/501 500/500/500 497/497/497
f 502/502/502 503/503/503 504/504/504
f 505/505/505 506/506/506 507/507/507
f 508/508/508 502/502/502 504/504/504
f 479/479/479 486/486/486 509/509/509
f 510/510/510 479/479/479 511/511/511
f 512/512/512 425/425/425 424/424/424
f 513/513/513 488/488/488 487/487/487
f 509/509/509 511/511/511 479/479/479
f 496/496/496 514/514/514 494/494/494
f 502/502/502 508/508/508 515/515/515
f 516/516/516 517/517/517 518/518/518
f 519/519/519 520/520/520 521/521/521
f 522/522/522 523/523/523 524/524/524
f 525/525/525 514/514/514 496/496/496
f 526/526/526 527/527/527 528/528/528
f 529/529/529 513/513/513 487/487/487
f 530/530/530 531/531/531 532/532/532
f 533/533/533 534/534/534 535/535/535
f 536/536/536 522/522/522 524/524/524
f 521/521/521 537/537/537 519/519/519
f 533/533/533 538/538/538 534/534/534
f 527/527/527 539/539/539 528/528/528
f 540/540/540 541/541/541 542/542/542
f 543/543/543 542/542/542 541/541/541
f 545/545/545 546/546/546 547/547/547
f 545/545/545 547/547/547 546/546/546
f 545/545/545 547/547/547 548/548/548
f 545/545/545 548/548/548 547/547/547
f 545/545/545 548/548/548 549/549/549
f 545/545/545 549/549/549 548/548/548
f 545/545/545 549/549/549 550/550/550
f 545/545/545 550/550/550 549/549/549
f 545/545/545 550/550/550 551/551/551
f 545/545/545 551/551/551 550/550/550
f 545/545/545 551/551/551 552/552/552
f 545/545/545 552/552/552 551/551/551
f 545/545/545 552/552/552 553/553/553
f 545/545/545 553/553/553 552/552/552
f 545/545/545 553/553/553 554/554/554
f 545/545/545 554/554/554 553/553/553
f 545/545/545 554/554/554 555/555/555
f 545/545/545 555/555/555 554/554/554
f 545/545/545 555/555/555 556/556/556
f 545/545/545 556/556/556 555/555/555
f 545/545/545 556/556/556 557/557/557
f 545/545/545 557/557/557 556/556/556
f 545/545/545 557/557/557 558/558/558
f 545/545/545 558/558/558 557/557/557
f 545/545/545 558/558/558 559/559/559
f 545/545/545 559/559/559 558/558/558
f 545/545/545 559/559/559 546/546/546
f 545/545/545 546/546/546 559/559/559
