o leg_right_2
v 1.34849 2.67781 0.04494
v 1.14983 2.58849 0.07622
v 1.22470 2.53078 -0.01110
v 1.30227 2.79801 0.07964
v 0.90527 2.49580 0.00016
v 1.14983 2.58849 0.07622
v 1.30227 2.79801 0.07964
v 0.94234 2.81674 -0.05721
v 0.97354 2.67451 0.02274
v 1.55123 2.69076 -0.16207
v 1.13032 2.46928 -0.28811
v 1.53064 2.63016 -0.22798
v 1.42119 2.57194 -0.44674
v 1.37424 2.52918 -0.32436
v 1.36686 2.49806 -0.39727
v 1.36591 2.38464 -0.48938
v 1.31425 2.43229 -0.33554
v 1.36686 2.49806 -0.39727
v 1.37424 2.52918 -0.32436
v 1.27935 2.48785 -0.34516
v 1.27356 2.38607 -0.40054
v 1.36591 2.38464 -0.48938
v 1.31425 2.43229 -0.33554
v 1.37424 2.52918 -0.32436
v 1.34908 2.74236 -0.43147
v 1.53064 2.63016 -0.22798
v 1.13032 2.46928 -0.28811
v 1.57096 2.62065 -0.03487
v 0.96797 2.37052 -0.14960
v 1.36686 2.49806 -0.39727
v 1.27935 2.48785 -0.34516
v 1.31425 2.43229 -0.33554
v 1.31768 2.30897 -0.54101
v 1.37424 2.52918 -0.32436
v 1.57096 2.62065 -0.03487
v 1.22470 2.53078 -0.01110
v 0.96797 2.37052 -0.14960
v 1.27356 2.38607 -0.40054
v 1.27557 2.33988 -0.40682
v 1.27935 2.48785 -0.34516
v 1.37424 2.52918 -0.32436
v 1.31425 2.43229 -0.33554
v 1.11827 2.43043 -0.33303
v 1.31768 2.30897 -0.54101
v 1.27557 2.33988 -0.40682
v 1.11046 2.33163 -0.38978
v 1.11046 2.33163 -0.38978
v 1.27557 2.33988 -0.40682
v 1.31425 2.43229 -0.33554
v 1.37424 2.52918 -0.32436
v 1.13032 2.46928 -0.28811
v 1.13032 2.46928 -0.28811
v 1.12395 2.43370 -0.21350
v 1.13032 2.46928 -0.28811
v 0.92533 2.37348 -0.24587
v 1.13032 2.46928 -0.28811
v 1.12395 2.43370 -0.21350
v 1.11827 2.43043 -0.33303
v 1.14983 2.58849 0.07622
v 1.09092 2.28165 -0.38561
v 1.10050 2.21854 -0.54588
v 1.11046 2.33163 -0.38978
v 1.11827 2.43043 -0.33303
v 1.12395 2.43370 -0.21350
v 0.92533 2.37348 -0.24587
v 0.92908 2.35673 -0.33782
v 0.98079 2.22241 -0.37183
v 1.09092 2.28165 -0.38561
v 1.11046 2.33163 -0.38978
v 2.86801 2.42844 1.01358
v 2.99758 2.27800 0.97877
v 2.94865 2.54180 0.87371
v 2.99758 2.27800 0.97877
v 2.97192 2.16160 1.01003
v 2.83521 2.18045 0.71495
v 2.82471 2.53118 0.68421
v 2.94865 2.54180 0.87371
v 2.91124 2.40310 0.78135
v 2.94865 2.54180 0.87371
v 2.87426 2.55376 1.01964
v 2.94865 2.54180 0.87371
v 2.86287 2.54626 0.83672
v 2.87426 2.55376 1.01964
v 2.86801 2.42844 1.01358
v 2.94865 2.54180 0.87371
v 2.83521 2.18045 0.71495
v 2.97192 2.16160 1.01003
v 2.81512 2.15644 0.77233
v 2.83355 2.49348 0.60068
v 2.91124 2.40310 0.78135
v 2.83521 2.18045 0.71495
v 2.94865 2.54180 0.87371
v 2.83521 2.18045 0.71495
v 2.91124 2.40310 0.78135
v 2.87787 2.62524 0.83081
v 2.82515 2.67728 0.95421
v 2.86287 2.54626 0.83672
v 2.82471 2.53118 0.68421
v 2.72411 2.60884 1.03803
v 2.91124 2.40310 0.78135
v 2.83355 2.49348 0.60068
v 2.82471 2.53118 0.68421
v 2.82515 2.67728 0.95421
v 2.87787 2.62524 0.83081
v 2.77348 2.67815 0.81617
v 2.82471 2.53118 0.68421
v 2.87787 2.62524 0.83081
v 2.86287 2.54626 0.83672
v 2.82471 2.53118 0.68421
v 2.72411 2.60884 1.03803
v 2.83355 2.49348 0.60068
v 2.83521 2.18045 0.71495
v 2.65409 2.28039 0.74208
v 2.73105 2.68041 0.91071
v 2.72411 2.60884 1.03803
v 2.82515 2.67728 0.95421
v 2.73105 2.68041 0.91071
v 2.77348 2.67815 0.81617
v 2.83355 2.49348 0.60068
v 2.65409 2.28039 0.74208
v 2.60680 2.28237 0.78942
v 2.65847 2.12970 0.79783
v 2.60425 2.69209 0.98087
v 2.61699 2.11541 0.88169
v 2.63572 2.34524 0.68189
v 2.77163 2.40949 0.56321
v 2.83355 2.49348 0.60068
v 2.83521 2.18045 0.71495
v 2.60680 2.28237 0.78942
v 2.65409 2.28039 0.74208
v 2.83355 2.49348 0.60068
v 2.60680 2.28237 0.78942
v 2.63572 2.34524 0.68189
v 2.83521 2.18045 0.71495
v 2.65847 2.12970 0.79783
v 2.60680 2.28237 0.78942
v 2.31273 2.91157 0.29747
v 2.77163 2.40949 0.56321
v 2.56006 2.62524 0.32379
v 2.57215 2.70358 0.36401
v 2.62139 2.26795 0.59009
v 2.60694 2.19120 0.83036
v 2.55294 2.11337 0.88089
v 2.55294 2.11337 0.88089
v 2.47550 2.63249 0.25056
v 2.45430 2.20357 0.76826
v 2.60680 2.28237 0.78942
v 2.60694 2.19120 0.83036
v 2.45430 2.20357 0.76826
v 2.55294 2.11337 0.88089
v 2.28824 2.46319 0.28156
v 2.51351 2.20795 0.66544
v 2.16512 2.93081 0.55721
v 2.63773 2.60901 1.11487
v 2.60425 2.69209 0.98087
v 2.31273 2.91157 0.29747
v 2.45430 2.20357 0.76826
v 2.16512 2.93081 0.55721
v 2.62139 2.26795 0.59009
v 2.43887 2.55597 0.96080
v 2.63773 2.60901 1.11487
v 2.16512 2.93081 0.55721
v 2.51351 2.20795 0.66544
v 2.45430 2.20357 0.76826
v 2.21427 2.37762 0.34375
v 2.35459 2.79779 0.20289
v 2.47550 2.63249 0.25056
v 2.38476 2.24516 0.78785
v 2.45430 2.20357 0.76826
v 2.40447 2.31089 0.89310
v 2.38476 2.24516 0.78785
v 2.31273 2.91157 0.29747
v 2.35459 2.79779 0.20289
v 2.36159 2.86800 0.20384
v 2.08485 2.96887 0.02900
v 2.36159 2.86800 0.20384
v 1.92280 2.54331 0.51208
v 2.22264 2.92942 0.43881
v 2.31273 2.91157 0.29747
v 2.32805 2.96246 0.37231
v 2.31273 2.91157 0.29747
v 2.24397 2.95400 0.27410
v 2.32805 2.96246 0.37231
v 2.32805 2.96246 0.37231
v 2.19707 2.99055 0.47823
v 2.28670 2.97330 0.42778
v 2.28670 2.97330 0.42778
v 2.40447 2.31089 0.89310
v 2.40764 2.40708 0.89914
v 1.92280 2.54331 0.51208
v 2.24397 2.95400 0.27410
v 2.36159 2.86800 0.20384
v 2.22264 2.92942 0.43881
v 2.19707 2.99055 0.47823
v 1.90962 2.86366 -0.19124
v 2.08485 2.96887 0.02900
v 1.85331 2.67939 -0.07215
v 1.90962 2.86366 -0.19124
v 2.06647 3.03528 0.22484
v 2.02024 2.99301 0.24756
v 2.13224 3.00240 0.45313
v 2.02024 2.99301 0.24756
v 2.06647 3.03528 0.22484
v 2.24397 2.95400 0.27410
v 2.13224 3.00240 0.45313
v 2.22264 2.92942 0.43881
v 2.19707 2.99055 0.47823
v 1.87289 2.56475 0.19520
v 2.13224 3.00240 0.45313
v 2.06647 3.03528 0.22484
v 2.08938 3.06336 0.34548
v 2.04592 2.96665 0.54369
v 1.53387 3.00907 0.18975
v 1.91790 2.93788 -0.17035
v 2.22264 2.92942 0.43881
v 2.13224 3.00240 0.45313
v 2.04592 2.96665 0.54369
v 2.16512 2.93081 0.55721
v 2.04592 2.96665 0.54369
v 1.53387 3.00907 0.18975
v 2.06647 3.03528 0.22484
v 2.02125 3.04871 0.29413
v 2.08938 3.06336 0.34548
v 1.62843 2.71333 0.26735
v 1.91790 2.93788 -0.17035
v 2.03779 2.96970 0.03755
v 2.37221 2.43767 0.93754
v 1.62843 2.71333 0.26735
v 2.40764 2.40708 0.89914
v 1.92630 2.55014 0.08868
v 2.13224 3.00240 0.45313
v 2.08938 3.06336 0.34548
v 2.02125 3.04871 0.29413
v 2.02125 3.04871 0.29413
v 2.06647 3.03528 0.22484
v 2.02024 2.99301 0.24756
v 1.91790 2.93788 -0.17035
v 1.96548 3.01362 -0.05282
v 2.03779 2.96970 0.03755
v 2.13224 3.00240 0.45313
v 2.02125 3.04871 0.29413
v 2.04592 2.96665 0.54369
v 1.87289 2.56475 0.19520
v 2.38476 2.24516 0.78785
v 1.78856 2.53556 0.25293
v 2.02024 2.99301 0.24756
v 2.03779 2.96970 0.03755
v 1.96548 3.01362 -0.05282
v 1.92630 2.55014 0.08868
v 1.76495 3.16638 0.23485
v 1.78856 2.53556 0.25293
v 1.90563 2.84334 -0.24405
v 1.92812 2.97625 -0.21146
v 1.90962 2.86366 -0.19124
v 1.91790 2.93788 -0.17035
v 1.96548 3.01362 -0.05282
v 1.79929 3.12286 -0.16625
v 1.79084 3.07645 -0.10873
v 1.79929 3.12286 -0.16625
v 1.96548 3.01362 -0.05282
v 1.84207 3.06120 -0.23389
v 2.02125 3.04871 0.29413
v 1.76495 3.16638 0.23485
v 1.82818 2.98700 -0.20028
v 1.79084 3.07645 -0.10873
v 1.75503 3.09523 0.00640
v 1.82818 2.98700 -0.20028
v 1.91790 2.93788 -0.17035
v 1.92812 2.97625 -0.21146
v 1.90563 2.84334 -0.24405
v 1.83749 2.84441 -0.27183
v 1.92812 2.97625 -0.21146
v 1.82818 2.98700 -0.20028
v 1.83749 2.84441 -0.27183
v 1.90962 2.86366 -0.19124
v 1.78703 2.85985 -0.16928
v 1.90563 2.84334 -0.24405
v 1.96548 3.01362 -0.05282
v 1.82818 2.98700 -0.20028
v 1.84207 3.06120 -0.23389
v 1.79084 3.07645 -0.10873
v 1.74174 3.15454 -0.08280
v 1.78512 2.67712 -0.12698
v 1.83749 2.84441 -0.27183
v 1.78703 2.85985 -0.16928
v 1.82818 2.98700 -0.20028
v 2.43887 2.55597 0.96080
v 1.53387 3.00907 0.18975
v 1.58793 2.95151 0.17671
v 1.77051 2.98310 -0.24792
v 1.76495 3.16638 0.23485
v 1.53387 3.00907 0.18975
v 2.04592 2.96665 0.54369
v 1.78512 2.67712 -0.12698
v 1.78703 2.85985 -0.16928
v 1.90962 2.86366 -0.19124
v 1.84207 3.06120 -0.23389
v 1.77051 2.98310 -0.24792
v 1.79929 3.12286 -0.16625
v 1.76042 2.62358 -0.01521
v 1.76042 2.62358 -0.01521
v 1.75944 2.71431 -0.02536
v 1.78512 2.67712 -0.12698
v 1.85331 2.67939 -0.07215
v 1.62843 2.71333 0.26735
v 2.37221 2.43767 0.93754
v 2.43887 2.55597 0.96080
v 1.78703 2.85985 -0.16928
v 1.75944 2.71431 -0.02536
v 1.85331 2.67939 -0.07215
v 1.76042 2.62358 -0.01521
v 1.78703 2.85985 -0.16928
v 1.78512 2.67712 -0.12698
v 1.75944 2.71431 -0.02536
v 1.58793 2.95151 0.17671
v 1.79929 3.12286 -0.16625
v 1.71883 3.03354 -0.18285
v 1.79084 3.07645 -0.10873
v 1.62843 2.71333 0.26735
v 1.72349 3.01966 -0.13498
v 1.74174 3.15454 -0.08280
v 1.79084 3.07645 -0.10873
v 1.73362 2.64535 0.04430
v 1.72106 2.93920 -0.14597
v 1.78703 2.85985 -0.16928
v 1.75944 2.71431 -0.02536
v 1.75944 2.71431 -0.02536
v 1.76042 2.62358 -0.01521
v 1.73362 2.64535 0.04430
v 1.77051 2.98310 -0.24792
v 1.71883 3.03354 -0.18285
v 1.72349 3.01966 -0.13498
v 1.64481 2.64769 0.16394
v 1.71883 3.03354 -0.18285
v 1.67742 2.68333 0.13002
v 1.67742 2.68333 0.13002
v 1.72524 2.81019 -0.10068
v 1.72106 2.93920 -0.14597
v 1.75944 2.71431 -0.02536
v 1.72524 2.81019 -0.10068
v 1.75944 2.71431 -0.02536
v 1.73362 2.64535 0.04430
v 1.72106 2.93920 -0.14597
v 1.72349 3.01966 -0.13498
v 1.71883 3.03354 -0.18285
v 1.64246 3.24094 0.06664
v 1.74795 2.95638 -0.34932
v 1.62944 2.77509 -0.28017
v 1.63010 2.98178 -0.38625
v 1.64481 2.64769 0.16394
v 1.72524 2.81019 -0.10068
v 1.73362 2.64535 0.04430
v 1.71425 2.64410 -0.05301
v 1.70816 3.02035 -0.19888
v 1.62944 2.77509 -0.28017
v 1.74795 2.95638 -0.34932
v 1.68687 2.96936 -0.16625
v 1.74795 2.95638 -0.34932
v 1.63029 3.00661 -0.21162
v 1.70816 3.02035 -0.19888
v 1.72349 3.01966 -0.13498
v 1.57813 3.04618 -0.04448
v 1.74174 3.15454 -0.08280
v 1.63010 2.98178 -0.38625
v 1.68687 2.96936 -0.16625
v 1.72349 3.01966 -0.13498
v 1.71425 2.64410 -0.05301
v 1.68687 2.96936 -0.16625
v 1.70816 3.02035 -0.19888
v 1.63029 3.00661 -0.21162
v 1.55123 2.69076 -0.16207
v 1.63029 3.00661 -0.21162
v 1.62843 2.71333 0.26735
v 1.61843 2.70343 0.14085
v 1.67742 2.68333 0.13002
v 1.64481 2.64769 0.16394
v 1.62843 2.71333 0.26735
v 1.57096 2.62065 -0.03487
v 1.71425 2.64410 -0.05301
v 1.73362 2.64535 0.04430
v 1.56070 3.09956 -0.23154
v 1.63029 3.00661 -0.21162
v 1.55492 2.76578 -0.17447
v 1.64246 3.24094 0.06664
v 1.55172 3.18697 0.09677
v 1.62843 2.71333 0.26735
v 1.53816 2.84959 0.18553
v 1.61843 2.70343 0.14085
v 1.63029 3.00661 -0.21162
v 1.57813 3.04618 -0.04448
v 1.72349 3.01966 -0.13498
v 1.57813 3.04618 -0.04448
v 1.55492 2.76578 -0.17447
v 1.55123 2.69076 -0.16207
v 1.57096 2.62065 -0.03487
v 1.53816 2.84959 0.18553
v 1.64246 3.24094 0.06664
v 1.55172 3.18697 0.09677
v 1.50277 3.01972 0.02659
v 1.58793 2.95151 0.17671
v 1.53387 3.00907 0.18975
v 1.53816 2.84959 0.18553
v 1.62944 2.77509 -0.28017
v 1.55492 2.76578 -0.17447
v 1.55123 2.69076 -0.16207
v 1.57813 3.04618 -0.04448
v 1.56070 3.09956 -0.23154
v 1.50277 3.01972 0.02659
v 1.54859 2.79131 0.09250
v 1.62944 2.77509 -0.28017
v 1.55123 2.69076 -0.16207
v 1.53064 2.63016 -0.22798
v 1.53387 3.00907 0.18975
v 1.51452 2.95473 0.11744
v 1.53451 2.91591 0.04339
v 1.47204 3.04732 0.10314
v 1.13032 2.46928 -0.28811
v 1.54859 2.79131 0.09250
v 1.33891 2.77346 0.04754
v 1.34849 2.67781 0.04494
v 1.53451 2.91591 0.04339
v 1.47204 3.04732 0.10314
v 1.50277 3.01972 0.02659
v 1.61843 2.70343 0.14085
v 1.47204 3.04732 0.10314
v 1.34908 2.74236 -0.43147
v 1.50277 3.01972 0.02659
v 1.47204 3.04732 0.10314
v 1.46857 2.98123 0.11559
v 1.53451 2.91591 0.04339
v 1.50277 3.01972 0.02659
v 1.44832 3.07162 -0.02431
v 1.47204 3.04732 0.10314
v 1.22470 2.53078 -0.01110
v 1.53064 2.63016 -0.22798
v 1.53451 2.91591 0.04339
v 1.46857 2.98123 0.11559
v 1.33891 2.77346 0.04754
v 1.22470 2.53078 -0.01110
v 1.46857 2.98123 0.11559
v 1.47204 3.04732 0.10314
v 1.31624 2.88167 0.12755
v 1.30227 2.79801 0.07964
v 1.31624 2.88167 0.12755
v 1.21774 2.92383 0.08254
v 1.30318 2.72134 0.11570
v 1.34849 2.67781 0.04494
v 1.33891 2.77346 0.04754
v 1.30227 2.79801 0.07964
v 1.23370 2.97533 -0.00296
v 1.47204 3.04732 0.10314
v 1.21774 2.92383 0.08254
v 1.31624 2.88167 0.12755
v 1.21774 2.92383 0.08254
v 1.30227 2.79801 0.07964
v 1.30318 2.72134 0.11570
v 1.14983 2.58849 0.07622
v 1.34849 2.67781 0.04494
v 0.94234 2.81674 -0.05721
v 1.30227 2.79801 0.07964
v 1.14983 2.58849 0.07622
v 1.30318 2.72134 0.11570
v 2.51351 2.20795 0.66544
v 2.21427 2.37762 0.34375
v 1.92630 2.55014 0.08868
v 1.87289 2.56475 0.19520
v 3.39244 0.37899 1.40144
v 3.29502 0.38203 1.31966
v 3.37985 0.62180 1.39786
v 3.39244 0.37899 1.40144
v 3.37985 0.62180 1.39786
v 3.33846 0.38282 1.47535
v 3.39244 0.37899 1.40144
v 3.33846 0.38282 1.47535
v 3.23378 0.38522 1.42447
v 3.32336 0.62232 1.47297
v 3.29502 0.38203 1.31966
v 3.27050 0.61527 1.32155
v 3.32336 0.62232 1.47297
v 3.37985 0.62180 1.39786
v 3.29543 0.52126 1.50674
v 3.29543 0.52126 1.50674
v 3.33075 0.63885 1.53040
v 3.32228 0.58434 1.56681
v 3.26115 0.48001 1.52312
v 3.19686 0.66307 1.43455
v 3.33075 0.63885 1.53040
v 3.33075 0.63885 1.53040
v 3.24368 0.77473 1.55633
v 3.32228 0.58434 1.56681
v 3.32336 0.62232 1.47297
v 3.27050 0.61527 1.32155
v 3.25441 0.39045 1.53875
v 3.32228 0.58434 1.56681
v 3.22755 0.60118 1.68549
v 3.19690 0.55974 1.63782
v 3.28171 0.92106 1.50516
v 3.11076 0.80452 1.75321
v 3.22755 0.60118 1.68549
v 3.26115 0.48001 1.52312
v 3.29543 0.52126 1.50674
v 3.19501 0.49357 1.63223
v 3.21756 0.47981 1.46599
v 3.29543 0.52126 1.50674
v 3.26115 0.48001 1.52312
v 3.19468 0.39153 1.48833
v 3.25441 0.39045 1.53875
v 3.29543 0.52126 1.50674
v 3.19690 0.55974 1.63782
v 3.19468 0.39153 1.48833
v 3.25441 0.39045 1.53875
v 3.26115 0.48001 1.52312
v 3.19388 0.76710 1.63449
v 3.15959 0.99862 1.53970
v 3.28171 0.92106 1.50516
v 3.16985 0.97053 1.47796
v 3.27050 0.61527 1.32155
v 3.29502 0.38203 1.31966
v 3.21756 0.47981 1.46599
v 3.33075 0.63885 1.53040
v 3.19686 0.66307 1.43455
v 3.13607 0.72753 1.40582
v 3.24368 0.77473 1.55633
v 3.11076 0.80452 1.75321
v 3.28171 0.92106 1.50516
v 3.15959 0.99862 1.53970
v 3.23378 0.38522 1.42447
v 3.19501 0.49357 1.63223
v 3.03000 0.48567 1.50831
v 3.26115 0.48001 1.52312
v 3.19686 0.66307 1.43455
v 3.19468 0.39153 1.48833
v 3.21756 0.47981 1.46599
v 3.18465 0.63566 1.65057
v 3.22755 0.60118 1.68549
v 3.19388 0.76710 1.63449
v 3.19079 0.58491 1.14322
v 3.13931 0.37703 1.24772
v 3.19494 0.36350 1.14906
v 3.21756 0.47981 1.46599
v 3.19690 0.55974 1.63782
v 3.13607 0.72753 1.40582
v 3.01555 0.72359 1.37450
v 3.24368 0.77473 1.55633
v 3.02011 0.90318 1.31755
v 3.07571 0.71186 1.33182
v 3.11076 0.80452 1.75321
v 3.15959 0.99862 1.53970
v 3.10846 0.96689 1.70199
v 3.13109 0.70442 1.61490
v 3.18465 0.63566 1.65057
v 3.03000 0.48567 1.50831
v 3.06278 0.52396 1.43057
v 3.21756 0.47981 1.46599
v 3.13744 0.52317 1.66903
v 3.08607 0.49210 1.27383
v 3.02011 0.90318 1.31755
v 3.28171 0.92106 1.50516
v 3.24368 0.77473 1.55633
v 3.12509 0.62147 1.20809
v 3.19686 0.66307 1.43455
v 3.21756 0.47981 1.46599
v 3.10482 0.59679 1.37760
v 3.07571 0.71186 1.33182
v 3.10482 0.59679 1.37760
v 3.10232 0.72852 1.74716
v 3.13109 0.70442 1.61490
v 3.19388 0.76710 1.63449
v 3.10232 0.72852 1.74716
v 3.13744 0.52317 1.66903
v 3.18465 0.63566 1.65057
v 3.02164 0.55545 1.49851
v 3.03027 0.37902 1.19638
v 3.19494 0.36350 1.14906
v 3.13931 0.37703 1.24772
v 3.07571 0.71186 1.33182
v 3.08983 0.36492 1.08799
v 3.07979 0.58460 1.08942
v 3.19494 0.36350 1.14906
v 3.07537 0.39543 1.30764
v 3.05953 0.94668 1.80090
v 3.08983 0.36492 1.08799
v 3.10482 0.59679 1.37760
v 3.08607 0.49210 1.27383
v 3.12509 0.62147 1.20809
v 3.19079 0.58491 1.14322
v 3.19079 0.58491 1.14322
v 3.05427 0.60144 1.17129
v 3.12509 0.62147 1.20809
v 3.07979 0.58460 1.08942
v 3.06119 0.81884 1.82544
v 3.10482 0.59679 1.37760
v 3.12509 0.62147 1.20809
v 3.07571 0.71186 1.33182
v 3.11076 0.80452 1.75321
v 3.03403 0.69931 1.71065
v 3.10232 0.72852 1.74716
v 3.05749 1.06675 1.64819
v 2.97192 2.16160 1.01003
v 2.85310 1.70635 1.39771
v 3.16985 0.97053 1.47796
v 3.05749 1.06675 1.64819
v 3.06278 0.52396 1.43057
v 3.13744 0.52317 1.66903
v 3.08983 0.36492 1.08799
v 3.03027 0.37902 1.19638
v 3.07979 0.58460 1.08942
v 2.98061 0.67983 1.48696
v 3.07537 0.39543 1.30764
v 3.08607 0.49210 1.27383
v 3.01826 0.40071 1.28222
v 2.98061 0.67983 1.48696
v 3.13109 0.70442 1.61490
v 3.10232 0.72852 1.74716
v 3.06119 0.81884 1.82544
v 2.97773 0.80751 1.62291
v 3.11076 0.80452 1.75321
v 3.02341 0.49051 1.20201
v 3.02626 0.47752 1.42239
v 3.08607 0.49210 1.27383
v 2.99858 0.45668 1.31052
v 3.02341 0.49051 1.20201
v 3.07537 0.39543 1.30764
v 3.03000 0.48567 1.50831
v 3.01555 0.72359 1.37450
v 3.06278 0.52396 1.43057
v 3.03000 0.48567 1.50831
v 3.02164 0.55545 1.49851
v 3.04744 0.45686 1.33112
v 2.97773 0.80751 1.62291
v 3.16985 0.97053 1.47796
v 2.91704 1.52421 1.03346
v 2.97192 2.16160 1.01003
v 3.04744 0.45686 1.33112
v 3.01826 0.40071 1.28222
v 2.97490 0.68270 1.57907
v 3.02341 0.49051 1.20201
v 3.02164 0.55545 1.49851
v 3.10846 0.96689 1.70199
v 3.05749 1.06675 1.64819
v 2.96561 1.02160 1.66155
v 3.02011 0.90318 1.31755
v 3.01826 0.40071 1.28222
v 3.03403 0.69931 1.71065
v 2.97504 0.66795 1.31930
v 3.05427 0.60144 1.17129
v 2.99858 0.45668 1.31052
v 3.02626 0.47752 1.42239
v 2.97323 0.47427 1.40397
v 2.92859 0.92926 1.70196
v 3.05953 0.94668 1.80090
v 3.10846 0.96689 1.70199
v 2.97323 0.47427 1.40397
v 3.02626 0.47752 1.42239
v 3.06278 0.52396 1.43057
v 3.02164 0.55545 1.49851
v 2.95845 0.58256 1.47399
v 3.06278 0.52396 1.43057
v 2.97504 0.66795 1.31930
v 2.93651 0.79349 1.34233
v 3.02011 0.90318 1.31755
v 3.01555 0.72359 1.37450
v 2.92859 0.92926 1.70196
v 3.06119 0.81884 1.82544
v 3.05953 0.94668 1.80090
v 2.97490 0.68270 1.57907
v 3.04744 0.45686 1.33112
v 3.06278 0.52396 1.43057
v 2.95845 0.58256 1.47399
v 2.97323 0.47427 1.40397
v 3.05749 1.06675 1.64819
v 2.95437 0.76708 1.40398
v 2.99858 0.45668 1.31052
v 2.92968 0.82971 1.57661
v 2.95845 0.58256 1.47399
v 2.99858 0.45668 1.31052
v 2.95115 0.50312 1.31354
v 2.97504 0.66795 1.31930
v 2.87854 0.82309 1.71846
v 2.93651 0.79349 1.34233
v 3.01555 0.72359 1.37450
v 2.95437 0.76708 1.40398
v 2.93651 0.79349 1.34233
v 2.93391 0.89527 1.40417
v 3.02011 0.90318 1.31755
v 2.95845 0.58256 1.47399
v 2.98061 0.67983 1.48696
v 2.95278 0.61687 1.59943
v 2.97490 0.68270 1.57907
v 2.97323 0.47427 1.40397
v 2.95115 0.50312 1.31354
v 2.99858 0.45668 1.31052
v 2.97504 0.66795 1.31930
v 2.97234 0.67007 1.21489
v 2.95437 0.76708 1.40398
v 2.85310 1.70635 1.39771
v 2.95845 0.58256 1.47399
v 2.94454 0.60979 1.43924
v 2.97234 0.67007 1.21489
v 2.95189 0.44905 1.22965
v 2.86503 0.67584 1.19147
v 2.85150 0.99330 1.41132
v 2.91704 1.52421 1.03346
v 3.02011 0.90318 1.31755
v 2.95115 0.50312 1.31354
v 2.95189 0.44905 1.22965
v 2.91284 0.59522 1.38170
v 2.75081 2.14686 1.21660
v 2.99758 2.27800 0.97877
v 2.97773 0.80751 1.62291
v 2.87854 0.82309 1.71846
v 2.87966 0.79213 1.65899
v 2.97773 0.80751 1.62291
v 2.87966 0.79213 1.65899
v 2.92968 0.82971 1.57661
v 2.95115 0.50312 1.31354
v 2.89411 0.48586 1.40568
v 2.95189 0.44905 1.22965
v 2.91284 0.59522 1.38170
v 2.95265 0.59311 1.32750
v 2.95115 0.50312 1.31354
v 2.95278 0.61687 1.59943
v 2.97490 0.68270 1.57907
v 2.81608 0.62863 1.56839
v 2.95265 0.59311 1.32750
v 2.91284 0.59522 1.38170
v 2.93391 0.89527 1.40417
v 2.87854 0.82309 1.71846
v 2.95189 0.44905 1.22965
v 2.84146 0.48967 1.38519
v 2.84479 0.45668 1.21280
v 2.97490 0.68270 1.57907
v 2.92968 0.82971 1.57661
v 2.87966 0.79213 1.65899
v 2.81608 0.62863 1.56839
v 2.97490 0.68270 1.57907
v 2.82978 0.60161 1.73684
v 2.95845 0.58256 1.47399
v 2.81590 0.70438 1.42611
v 2.94454 0.60979 1.43924
v 2.93391 0.89527 1.40417
v 2.93651 0.79349 1.34233
v 2.95437 0.76708 1.40398
v 2.82978 0.60161 1.73684
v 2.81512 2.15644 0.77233
v 2.97234 0.67007 1.21489
v 2.86503 0.67584 1.19147
v 2.84626 0.69606 1.30413
v 2.95845 0.58256 1.47399
v 2.79970 0.59260 1.43883
v 2.81590 0.70438 1.42611
v 2.84909 0.80042 1.43376
v 2.95437 0.76708 1.40398
v 2.97234 0.67007 1.21489
v 2.81898 0.72187 1.72856
v 2.75404 0.91534 1.63005
v 2.79970 0.59260 1.43883
v 2.95845 0.58256 1.47399
v 2.95278 0.61687 1.59943
v 2.95437 0.76708 1.40398
v 2.84909 0.80042 1.43376
v 2.93391 0.89527 1.40417
v 2.89411 0.48586 1.40568
v 2.84626 0.69606 1.30413
v 2.89411 0.48586 1.40568
v 2.91284 0.59522 1.38170
v 2.84626 0.60910 1.34644
v 2.85150 0.99330 1.41132
v 2.79177 1.28712 1.24562
v 2.85150 0.99330 1.41132
v 2.91946 0.99569 1.48827
v 2.81590 0.70438 1.42611
v 2.84626 0.60910 1.34644
v 2.96561 1.02160 1.66155
v 2.85310 1.70635 1.39771
v 2.80727 1.26079 1.48854
v 2.84146 0.48967 1.38519
v 2.74263 0.89305 1.51223
v 2.85411 1.31316 1.34526
v 2.84596 1.06895 1.53962
v 2.79814 1.10430 1.55195
v 2.96561 1.02160 1.66155
v 2.81898 0.72187 1.72856
v 2.87966 0.79213 1.65899
v 2.79990 0.72380 1.66051
v 2.87426 2.55376 1.01964
v 2.78581 2.46106 1.10933
v 2.86801 2.42844 1.01358
v 2.84596 1.06895 1.53962
v 2.84479 0.45668 1.21280
v 2.91946 0.99569 1.48827
v 2.85150 0.99330 1.41132
v 2.73847 2.26447 1.18435
v 2.84596 1.06895 1.53962
v 2.80727 1.26079 1.48854
v 2.91946 0.99569 1.48827
v 2.79177 1.28712 1.24562
v 2.84626 0.69606 1.30413
v 2.81590 0.70438 1.42611
v 2.84909 0.80042 1.43376
v 2.86503 0.67584 1.19147
v 2.84626 0.60910 1.34644
v 2.85411 1.31316 1.34526
v 2.81590 0.70438 1.42611
v 2.82545 0.74400 1.54373
v 2.87002 0.72445 1.46368
v 2.83596 0.79219 1.74925
v 2.79990 0.72380 1.66051
v 2.80225 2.57105 1.07837
v 2.82419 0.58267 1.81081
v 2.82978 0.60161 1.73684
v 2.83596 0.79219 1.74925
v 2.84479 0.45668 1.21280
v 2.84146 0.48967 1.38519
v 2.84909 0.80042 1.43376
v 2.81590 0.70438 1.42611
v 2.87002 0.72445 1.46368
v 2.82545 0.74400 1.54373
v 2.83951 0.81275 1.54373
v 2.87002 0.72445 1.46368
v 2.82419 0.58267 1.81081
v 2.76674 0.56372 1.64411
v 2.81608 0.62863 1.56839
v 2.81512 2.15644 0.77233
v 2.61699 2.11541 0.88169
v 2.83596 0.79219 1.74925
v 2.82978 0.60161 1.73684
v 2.81898 0.72187 1.72856
v 2.79814 1.10430 1.55195
v 2.87854 0.82309 1.71846
v 2.75404 0.91534 1.63005
v 2.80884 0.93456 1.73917
v 2.87002 0.72445 1.46368
v 2.72411 2.60884 1.03803
v 2.80225 2.57105 1.07837
v 2.87426 2.55376 1.01964
v 2.79990 0.72380 1.66051
v 2.72884 1.65961 1.05122
v 2.86801 2.42844 1.01358
v 2.78581 2.46106 1.10933
v 2.72796 2.44242 1.09354
v 2.86801 2.42844 1.01358
v 2.72796 2.44242 1.09354
v 2.79814 1.10430 1.55195
v 2.70929 0.47728 1.89962
v 2.82419 0.58267 1.81081
v 2.72652 0.67178 1.85370
v 2.81608 0.62863 1.56839
v 2.82545 0.74400 1.54373
v 2.81590 0.70438 1.42611
v 2.76674 0.56372 1.64411
v 2.74263 0.89305 1.51223
v 2.87002 0.72445 1.46368
v 2.83951 0.81275 1.54373
v 2.67834 1.57622 1.34492
v 2.83596 0.79219 1.74925
v 2.79632 0.45679 1.84622
v 2.79970 0.59260 1.43883
v 2.81608 0.62863 1.56839
v 2.72411 2.60884 1.03803
v 2.72796 2.44242 1.09354
v 2.80225 2.57105 1.07837
v 2.70566 1.55043 1.15473
v 2.72606 0.84217 1.80952
v 2.80884 0.93456 1.73917
v 2.75404 0.91534 1.63005
v 2.83951 0.81275 1.54373
v 2.76674 0.56372 1.64411
v 2.74877 0.74036 1.55889
v 2.87854 0.82309 1.71846
v 2.80884 0.93456 1.73917
v 2.72606 0.84217 1.80952
v 2.75081 2.14686 1.21660
v 2.78581 2.46106 1.10933
v 2.74877 0.74036 1.55889
v 2.76674 0.56372 1.64411
v 2.74763 0.58816 1.60257
v 2.70566 1.55043 1.15473
v 2.75404 0.91534 1.63005
v 2.74877 0.74036 1.55889
v 2.64343 0.79557 1.63146
v 2.83951 0.81275 1.54373
v 2.74263 0.89305 1.51223
v 2.75404 0.91534 1.63005
v 2.79814 1.10430 1.55195
v 2.79632 0.45679 1.84622
v 2.69635 0.44447 1.69344
v 2.76674 0.56372 1.64411
v 2.64383 0.61745 1.67351
v 2.74763 0.58816 1.60257
v 2.74877 0.74036 1.55889
v 2.74763 0.58816 1.60257
v 2.64343 0.79557 1.63146
v 2.67834 1.57622 1.34492
v 2.70566 1.55043 1.15473
v 2.72411 2.60884 1.03803
v 2.73105 2.68041 0.91071
v 2.68674 2.63370 1.11135
v 2.75404 0.91534 1.63005
v 2.66669 2.55570 1.03289
v 2.62740 0.46566 1.73887
v 2.69635 0.44447 1.69344
v 2.79632 0.45679 1.84622
v 2.72652 0.67178 1.85370
v 2.72606 0.84217 1.80952
v 2.64383 0.61745 1.67351
v 2.73847 2.26447 1.18435
v 2.72796 2.44242 1.09354
v 2.68716 2.28431 1.13994
v 2.70929 0.47728 1.89962
v 2.64816 1.55474 1.23326
v 2.69635 0.44447 1.69344
v 2.64383 0.61745 1.67351
v 2.76674 0.56372 1.64411
v 2.56717 2.20477 1.04344
v 2.72411 2.60884 1.03803
v 2.68674 2.63370 1.11135
v 2.63773 2.60901 1.11487
v 2.60425 2.69209 0.98087
v 2.68674 2.63370 1.11135
v 2.73105 2.68041 0.91071
v 2.66669 2.55570 1.03289
v 2.62740 0.46566 1.73887
v 2.72796 2.44242 1.09354
v 2.64605 2.38657 1.12797
v 2.68716 2.28431 1.13994
v 2.70566 1.55043 1.15473
v 2.67834 1.57622 1.34492
v 2.64816 1.55474 1.23326
v 2.64383 0.61745 1.67351
v 2.64343 0.79557 1.63146
v 2.56717 2.20477 1.04344
v 2.68716 2.28431 1.13994
v 2.55252 2.22265 1.08243
v 2.62740 0.46566 1.73887
v 2.70929 0.47728 1.89962
v 2.64343 0.79557 1.63146
v 2.60425 2.69209 0.98087
v 2.63773 2.60901 1.11487
v 2.68674 2.63370 1.11135
v 2.64816 1.55474 1.23326
v 2.55341 2.14405 1.03712
v 2.49469 2.31720 0.91071
v 2.49469 2.31720 0.91071
v 2.56362 2.39009 1.06747
v 2.72796 2.44242 1.09354
v 2.56362 2.39009 1.06747
v 2.68716 2.28431 1.13994
v 2.64605 2.38657 1.12797
v 2.72796 2.44242 1.09354
v 2.56362 2.39009 1.06747
v 2.64605 2.38657 1.12797
v 2.55252 2.22265 1.08243
v 2.55341 2.14405 1.03712
v 2.61699 2.11541 0.88169
v 2.52901 2.53277 0.93726
v 2.55341 2.14405 1.03712
v 2.55294 2.11337 0.88089
v 2.61699 2.11541 0.88169
v 2.47516 2.31317 1.01433
v 2.56717 2.20477 1.04344
v 2.55252 2.22265 1.08243
v 2.47516 2.31317 1.01433
v 2.63773 2.60901 1.11487
v 2.43887 2.55597 0.96080
v 2.52901 2.53277 0.93726
v 2.47516 2.31317 1.01433
v 2.49469 2.31720 0.91071
v 2.66669 2.55570 1.03289
v 2.49469 2.31720 0.91071
v 2.55341 2.14405 1.03712
v 2.45430 2.20357 0.76826
v 2.55294 2.11337 0.88089
v 2.49469 2.31720 0.91071
v 2.40447 2.31089 0.89310
v 2.55341 2.14405 1.03712
v 2.40764 2.40708 0.89914
v 2.40447 2.31089 0.89310
v 2.43887 2.55597 0.96080
v 2.37221 2.43767 0.93754
v 2.40447 2.31089 0.89310
v 2.92859 0.92926 1.70196
v 2.96561 1.02160 1.66155
v 1.26846 2.66769 -0.20659
v 1.62944 2.77509 -0.28017
v 1.63010 2.98178 -0.38625
v 1.63029 3.00661 -0.21162
v 1.56070 3.09956 -0.23154
v 1.50277 3.01972 0.02659
v 1.44832 3.07162 -0.02431
v 1.47204 3.04732 0.10314
v 1.23370 2.97533 -0.00296
v 1.21774 2.92383 0.08254
v 0.94234 2.81674 -0.05721
v 0.97354 2.67451 0.02274
v 1.30227 2.79801 0.07964
v 0.90527 2.49580 0.00016
v 1.14983 2.58849 0.07622
v 0.96797 2.37052 -0.14960
v 1.13032 2.46928 -0.28811
v 0.92533 2.37348 -0.24587
v 1.11827 2.43043 -0.33303
v 0.92908 2.35673 -0.33782
v 1.11046 2.33163 -0.38978
v 1.31768 2.30897 -0.54101
v 1.27356 2.38607 -0.40054
v 1.36591 2.38464 -0.48938
v 1.36686 2.49806 -0.39727
v 1.42119 2.57194 -0.44674
v 1.37424 2.52918 -0.32436
v 1.34908 2.74236 -0.43147
vt 0.18986 0.39130
vt 0.18986 0.41233
vt 0.17882 0.40692
vt 0.83669 0.27838
vt 0.88299 0.29204
vt 0.85697 0.29258
vt 0.93401 0.55114
vt 0.92263 0.51611
vt 0.93844 0.51745
vt 0.89528 0.23012
vt 0.85975 0.22872
vt 0.89101 0.22503
vt 0.97423 0.75649
vt 0.97999 0.74837
vt 0.98132 0.75396
vt 0.98728 0.76268
vt 0.98801 0.75048
vt 0.00661 0.30514
vt 0.00839 0.29967
vt 0.01400 0.30484
vt 0.54548 0.20474
vt 0.55306 0.19943
vt 0.54816 0.21063
vt 0.11846 0.26917
vt 0.13495 0.27452
vt 0.11591 0.28410
vt 0.35343 0.31737
vt 0.39173 0.31871
vt 0.34589 0.33260
vt 0.69870 0.01069
vt 0.70573 0.00840
vt 0.70582 0.01320
vt 0.11507 0.41788
vt 0.87640 0.22104
vt 0.45276 0.30245
vt 0.47800 0.29660
vt 0.50060 0.30483
vt 0.10511 0.42459
vt 0.10521 0.42122
vt 0.44351 0.99737
vt 0.44800 0.99120
vt 0.44782 0.99947
vt 0.53401 0.21009
vt 0.49526 0.26530
vt 0.47918 0.26502
vt 0.47526 0.25356
vt 0.53337 0.20186
vt 0.54536 0.20138
vt 0.85319 0.07401
vt 0.86137 0.07271
vt 0.85096 0.08781
vt 0.53470 0.21441
vt 0.10592 0.30302
vt 0.10571 0.29703
vt 0.12109 0.30336
vt 0.23541 0.98809
vt 0.23288 0.99352
vt 0.23243 0.98488
vt 0.48074 0.28771
vt 0.06728 0.51783
vt 0.07051 0.50579
vt 0.07067 0.51974
vt 0.89022 0.03743
vt 0.89126 0.04602
vt 0.87614 0.04470
vt 0.52008 0.20544
vt 0.36300 0.01095
vt 0.37179 0.01327
vt 0.37402 0.01646
vt 0.15347 0.61759
vt 0.15556 0.63081
vt 0.14046 0.61908
vt 0.27494 0.52312
vt 0.27733 0.53095
vt 0.25581 0.53307
vt 0.08203 0.17206
vt 0.09421 0.16321
vt 0.09389 0.17454
vt 0.26436 0.50718
vt 0.23339 0.38396
vt 0.24310 0.38893
vt 0.23990 0.39426
vt 0.03191 0.55299
vt 0.04025 0.55299
vt 0.03293 0.56385
vt 0.70859 0.18014
vt 0.68747 0.17549
vt 0.70636 0.17642
vt 0.20079 0.71700
vt 0.19063 0.70683
vt 0.20161 0.69489
vt 0.54039 0.88883
vt 0.51312 0.88883
vt 0.52923 0.88682
vt 0.12911 0.05093
vt 0.13851 0.04927
vt 0.12883 0.05628
vt 0.24386 0.40396
vt 0.22398 0.38902
vt 0.57464 0.60486
vt 0.55386 0.60519
vt 0.56238 0.60262
vt 0.79426 0.74896
vt 0.78479 0.74769
vt 0.78870 0.74091
vt 0.77517 0.74037
vt 0.05435 0.65087
vt 0.04972 0.64819
vt 0.05434 0.63877
vt 0.14559 0.05610
vt 0.19813 0.66375
vt 0.20497 0.68480
vt 0.19120 0.68330
vt 0.79546 0.74218
vt 0.73219 0.98503
vt 0.73219 0.97520
vt 0.73860 0.97773
vt 0.57152 0.59235
vt 0.87702 0.94048
vt 0.89768 0.93868
vt 0.90108 0.94154
vt 0.71154 0.16708
vt 0.80412 0.73791
vt 0.70892 0.16137
vt 0.95138 0.25356
vt 0.95652 0.26520
vt 0.95179 0.27084
vt 0.70415 0.05473
vt 0.72148 0.05473
vt 0.71778 0.05720
vt 0.92798 0.86821
vt 0.95132 0.86227
vt 0.94526 0.86821
vt 0.29903 0.15199
vt 0.30932 0.14342
vt 0.31635 0.15151
vt 0.77828 0.69344
vt 0.54756 0.61125
vt 0.50895 0.60362
vt 0.51546 0.59548
vt 0.95917 0.25163
vt 0.31483 0.14505
vt 0.71165 0.15810
vt 0.31658 0.13814
vt 0.50233 0.59399
vt 0.96156 0.86747
vt 0.04309 0.94893
vt 0.03958 0.94329
vt 0.04996 0.93972
vt 0.03890 0.93620
vt 0.50588 0.62878
vt 0.95647 0.24242
vt 0.83505 0.38169
vt 0.83505 0.32867
vt 0.83947 0.33842
vt 0.50478 0.57458
vt 0.95050 0.23726
vt 0.79811 0.69483
vt 0.55185 0.62385
vt 0.53112 0.73300
vt 0.54781 0.73655
vt 0.49997 0.75940
vt 0.80219 0.68938
vt 0.81068 0.68694
vt 0.80479 0.71903
vt 0.49874 0.57659
vt 0.50366 0.61250
vt 0.44090 0.42835
vt 0.43698 0.43227
vt 0.43725 0.42085
vt 0.81587 0.69019
vt 0.23265 0.98420
vt 0.22244 0.98420
vt 0.22580 0.98094
vt 0.48699 0.54559
vt 0.50094 0.57138
vt 0.48083 0.41983
vt 0.96172 0.04030
vt 0.96469 0.02951
vt 0.96808 0.03457
vt 0.88852 0.59871
vt 0.88616 0.60378
vt 0.88323 0.59569
vt 0.15232 0.91574
vt 0.14099 0.91616
vt 0.14778 0.91477
vt 0.96677 0.03903
vt 0.51106 0.42751
vt 0.51258 0.42129
vt 0.55459 0.42496
vt 0.15250 0.92434
vt 0.89605 0.59960
vt 0.78947 0.69349
vt 0.96346 0.04511
vt 0.47238 0.52947
vt 0.89265 0.62208
vt 0.47194 0.67556
vt 0.46414 0.67101
vt 0.14445 0.93501
vt 0.87838 0.61681
vt 0.13861 0.92019
vt 0.08685 0.14725
vt 0.08301 0.14504
vt 0.08629 0.13208
vt 0.01133 0.41211
vt 0.01910 0.41211
vt 0.01494 0.41509
vt 0.81510 0.74345
vt 0.18816 0.03505
vt 0.20408 0.03505
vt 0.19630 0.03810
vt 0.80196 0.68746
vt 0.45120 0.76038
vt 0.47650 0.52497
vt 0.06650 0.30259
vt 0.07096 0.30896
vt 0.06667 0.31646
vt 0.31534 0.72721
vt 0.31886 0.73475
vt 0.31492 0.77598
vt 0.56381 0.98747
vt 0.56775 0.99141
vt 0.56408 0.99583
vt 0.58221 0.42176
vt 0.89678 0.63897
vt 0.89033 0.62425
vt 0.34337 0.57370
vt 0.34337 0.50476
vt 0.34735 0.57428
vt 0.48557 0.66587
vt 0.06727 0.95313
vt 0.07543 0.95016
vt 0.08050 0.95287
vt 0.61114 0.00364
vt 0.60787 0.00814
vt 0.60633 0.00399
vt 0.67805 0.11276
vt 0.68662 0.10800
vt 0.69407 0.11147
vt 0.84989 0.17701
vt 0.86208 0.17184
vt 0.85118 0.18555
vt 0.60478 0.42224
vt 0.66072 0.42713
vt 0.60419 0.42927
vt 0.82693 0.20425
vt 0.82924 0.19036
vt 0.83636 0.18625
vt 0.80530 0.74556
vt 0.88059 0.17666
vt 0.49744 0.42983
vt 0.38186 0.98190
vt 0.38186 0.99110
vt 0.37877 0.98406
vt 0.37857 0.98920
vt 0.81371 0.03045
vt 0.81371 0.04565
vt 0.80975 0.04269
vt 0.09356 0.56751
vt 0.09356 0.58271
vt 0.08710 0.56930
vt 0.82751 0.20903
vt 0.84663 0.20994
vt 0.67313 0.10767
vt 0.84923 0.18623
vt 0.84960 0.19432
vt 0.01458 0.71458
vt 0.00751 0.71458
vt 0.00888 0.71104
vt 0.03086 0.26906
vt 0.03573 0.26863
vt 0.02958 0.27818
vt 0.03621 0.27923
vt 0.87598 0.99902
vt 0.87244 0.99264
vt 0.88070 0.99299
vt 0.87187 0.99636
vt 0.13527 0.06540
vt 0.12307 0.07117
vt 0.12041 0.06638
vt 0.85029 0.18625
vt 0.85537 0.19008
vt 0.46885 0.67847
vt 0.02245 0.72646
vt 0.01625 0.72196
vt 0.02302 0.71586
vt 0.52698 0.79889
vt 0.61146 0.79889
vt 0.60807 0.80298
vt 0.11854 0.07322
vt 0.86470 0.36195
vt 0.85095 0.37477
vt 0.85330 0.33342
vt 0.08897 0.05535
vt 0.09976 0.04912
vt 0.10445 0.05593
vt 0.11660 0.99245
vt 0.10951 0.99245
vt 0.11828 0.98595
vt 0.44856 0.39109
vt 0.47434 0.68024
vt 0.01646 0.66810
vt 0.00907 0.66810
vt 0.01140 0.66278
vt 0.38067 0.60077
vt 0.38446 0.53193
vt 0.39347 0.53035
vt 0.12565 0.07991
vt 0.01358 0.39941
vt 0.01132 0.40639
vt 0.00753 0.39920
vt 0.05889 0.06447
vt 0.05889 0.07692
vt 0.05156 0.07605
vt 0.39400 0.61153
vt 0.01200 0.18642
vt 0.01205 0.17836
vt 0.01647 0.18433
vt 0.50861 0.41849
vt 0.64839 0.97699
vt 0.64540 0.98619
vt 0.64321 0.98022
vt 0.45312 0.39007
vt 0.47476 0.93079
vt 0.47054 0.93640
vt 0.45765 0.93171
vt 0.63088 0.00877
vt 0.63275 0.00301
vt 0.63667 0.00535
vt 0.48030 0.93665
vt 0.11022 0.98603
vt 0.01538 0.17833
vt 0.59078 0.43048
vt 0.48147 0.93031
vt 0.45737 0.38398
vt 0.58965 0.42673
vt 0.24692 0.61731
vt 0.25470 0.62199
vt 0.23859 0.61617
vt 0.62143 0.01732
vt 0.61331 0.01950
vt 0.60685 0.01762
vt 0.99290 0.00657
vt 0.98763 0.00770
vt 0.98648 0.00458
vt 0.85938 0.20268
vt 0.59266 0.86796
vt 0.60776 0.86796
vt 0.59465 0.87609
vt 0.51049 0.42648
vt 0.21706 0.01933
vt 0.23164 0.01933
vt 0.22739 0.02436
vt 0.17901 0.11140
vt 0.16414 0.12142
vt 0.16873 0.10704
vt 0.17844 0.11563
vt 0.03803 0.53241
vt 0.04335 0.54370
vt 0.03803 0.54358
vt 0.25041 0.13618
vt 0.26182 0.13477
vt 0.25370 0.14527
vt 0.04640 0.53239
vt 0.25795 0.62132
vt 0.25840 0.62592
vt 0.23778 0.61034
vt 0.00565 0.87195
vt 0.00565 0.87621
vt 0.00073 0.87420
vt 0.24887 0.60285
vt 0.26296 0.61927
vt 0.46322 0.37274
vt 0.46209 0.38453
vt 0.02383 0.36111
vt 0.02376 0.35719
vt 0.03171 0.35514
vt 0.87254 0.60781
vt 0.87678 0.61655
vt 0.87107 0.61984
vt 0.20523 0.50454
vt 0.21304 0.50410
vt 0.16888 0.12860
vt 0.87020 0.37556
vt 0.86370 0.37884
vt 0.26017 0.77086
vt 0.26448 0.78220
vt 0.25430 0.77694
vt 0.71299 0.96290
vt 0.72491 0.96290
vt 0.71612 0.97033
vt 0.21013 0.49254
vt 0.25278 0.60605
vt 0.88150 0.60402
vt 0.46455 0.39707
vt 0.38645 0.61144
vt 0.26618 0.14964
vt 0.27117 0.14432
vt 0.26842 0.13215
vt 0.37907 0.96950
vt 0.38283 0.96574
vt 0.38231 0.97633
vt 0.03298 0.41081
vt 0.03462 0.40236
vt 0.03967 0.40215
vt 0.23784 0.62171
vt 0.25081 0.62171
vt 0.23329 0.62715
vt 0.25750 0.78439
vt 0.03615 0.15778
vt 0.03953 0.16819
vt 0.03361 0.16966
vt 0.27294 0.78858
vt 0.26704 0.79027
vt 0.26170 0.79229
vt 0.85345 0.38185
vt 0.87257 0.57260
vt 0.30492 0.82517
vt 0.30993 0.83855
vt 0.30393 0.84074
vt 0.31357 0.82291
vt 0.27101 0.79583
vt 0.26608 0.79812
vt 0.29713 0.82289
vt 0.27389 0.13399
vt 0.61667 0.88726
vt 0.40993 0.99757
vt 0.40421 0.99832
vt 0.40421 0.99385
vt 0.41121 0.99039
vt 0.28582 0.27383
vt 0.29051 0.27005
vt 0.28897 0.27867
vt 0.29905 0.85310
vt 0.61991 0.86795
vt 0.12696 0.91583
vt 0.11927 0.91448
vt 0.12756 0.89978
vt 0.48889 0.40536
vt 0.23470 0.08483
vt 0.23693 0.08870
vt 0.22266 0.08352
vt 0.12413 0.89860
vt 0.11888 0.90237
vt 0.21815 0.08978
vt 0.01211 0.59217
vt 0.00703 0.59586
vt 0.00655 0.58950
vt 0.00939 0.58725
vt 0.58324 0.85650
vt 0.56627 0.86240
vt 0.58508 0.86296
vt 0.25590 0.36373
vt 0.25631 0.35602
vt 0.26236 0.36406
vt 0.07260 0.85470
vt 0.07260 0.86842
vt 0.06634 0.85522
vt 0.27085 0.33992
vt 0.26288 0.05450
vt 0.28008 0.05450
vt 0.26692 0.05841
vt 0.55439 0.63298
vt 0.50721 0.63657
vt 0.43404 0.38963
vt 0.44038 0.38052
vt 0.08669 0.78533
vt 0.07923 0.78468
vt 0.08689 0.77103
vt 0.08492 0.29082
vt 0.08813 0.30476
vt 0.07975 0.29235
vt 0.66003 0.97182
vt 0.65465 0.97180
vt 0.65346 0.96506
vt 0.08278 0.30613
vt 0.66057 0.96436
vt 0.27368 0.98506
vt 0.28133 0.97954
vt 0.28153 0.98506
vt 0.07880 0.30102
vt 0.93078 0.01019
vt 0.93618 0.00519
vt 0.93603 0.00908
vt 0.07603 0.29923
vt 0.27373 0.97665
vt 0.28352 0.97675
vt 0.18548 0.81707
vt 0.17594 0.81590
vt 0.18793 0.81405
vt 0.93283 0.00405
vt 0.07904 0.77088
vt 0.07387 0.29433
vt 0.84112 0.01136
vt 0.85009 0.01182
vt 0.84856 0.01566
vt 0.16897 0.82219
vt 0.16984 0.80321
vt 0.18397 0.80599
vt 0.96330 0.95567
vt 0.96459 0.95870
vt 0.95580 0.95487
vt 0.00973 0.99998
vt 0.00402 0.99998
vt 0.00626 0.99756
vt 0.64905 0.96539
vt 0.64871 0.96998
vt 0.83867 0.01613
vt 0.95468 0.95862
vt 0.83327 0.00618
vt 0.83336 0.00158
vt 0.83870 0.00205
vt 0.17465 0.81059
vt 0.99208 0.08408
vt 0.99988 0.08012
vt 0.99558 0.08610
vt 0.10426 0.32212
vt 0.10586 0.30842
vt 0.11448 0.31573
vt 0.99786 0.14254
vt 0.99693 0.15228
vt 0.99326 0.15636
vt 0.98889 0.14601
vt 0.16046 0.12055
vt 0.14146 0.12055
vt 0.14517 0.11263
vt 0.11286 0.30980
vt 0.04003 0.70891
vt 0.05144 0.70475
vt 0.04333 0.71570
vt 0.11154 0.32634
vt 0.11715 0.31089
vt 0.04754 0.71537
vt 0.16462 0.21868
vt 0.16818 0.22012
vt 0.15824 0.22317
vt 0.07818 0.62379
vt 0.08144 0.63742
vt 0.07481 0.63638
vt 0.83879 0.00627
vt 0.16833 0.21599
vt 0.39295 0.18658
vt 0.39093 0.19362
vt 0.38815 0.17643
vt 0.99932 0.09907
vt 0.99482 0.16183
vt 0.17203 0.25308
vt 0.17257 0.27028
vt 0.16702 0.26175
vt 0.15914 0.21791
vt 0.95252 0.96266
vt 0.04899 0.56209
vt 0.04392 0.56410
vt 0.03998 0.55525
vt 0.95146 0.95548
vt 0.08631 0.63158
vt 0.13806 0.52960
vt 0.13863 0.51065
vt 0.14798 0.51147
vt 0.08398 0.62306
vt 0.12771 0.43074
vt 0.13340 0.44015
vt 0.12311 0.43662
vt 0.11795 0.43121
vt 0.03840 0.56601
vt 0.17412 0.80177
vt 0.01666 0.75091
vt 0.01132 0.75091
vt 0.01518 0.74296
vt 0.17160 0.01684
vt 0.17467 0.02342
vt 0.16076 0.02258
vt 0.05156 0.24079
vt 0.05888 0.24777
vt 0.05218 0.24785
vt 0.39498 0.19190
vt 0.05946 0.57871
vt 0.05946 0.56577
vt 0.06660 0.57905
vt 0.08670 0.63762
vt 0.16329 0.25631
vt 0.05887 0.24062
vt 0.88763 0.03042
vt 0.89637 0.03019
vt 0.89363 0.03860
vt 0.06671 0.56602
vt 0.40991 0.19341
vt 0.40396 0.19913
vt 0.40413 0.19429
vt 0.40888 0.20060
vt 0.16775 0.25009
vt 0.03575 0.55119
vt 0.02561 0.55119
vt 0.03234 0.54453
vt 0.74350 0.02227
vt 0.73668 0.02655
vt 0.73899 0.02227
vt 0.98245 0.08420
vt 0.69782 0.49317
vt 0.71465 0.52483
vt 0.69846 0.56932
vt 0.16321 0.26800
vt 0.88863 0.02467
vt 0.03987 0.70453
vt 0.16514 0.61083
vt 0.16840 0.61883
vt 0.15476 0.61961
vt 0.15371 0.20754
vt 0.36675 0.00708
vt 0.37281 0.00708
vt 0.36719 0.01075
vt 0.41865 0.05007
vt 0.40904 0.04339
vt 0.40988 0.03535
vt 0.04928 0.76818
vt 0.05436 0.75632
vt 0.05443 0.76728
vt 0.16397 0.62471
vt 0.89120 0.02227
vt 0.00795 0.49525
vt 0.01251 0.49142
vt 0.01267 0.49826
vt 0.04712 0.24636
vt 0.16014 0.01846
vt 0.14912 0.52885
vt 0.00812 0.78681
vt 0.00268 0.78681
vt 0.00468 0.78315
vt 0.89570 0.02568
vt 0.74252 0.03317
vt 0.71719 0.47093
vt 0.73132 0.51294
vt 0.71541 0.54707
vt 0.00943 0.49094
vt 0.04667 0.24270
vt 0.41853 0.04464
vt 0.37404 0.01255
vt 0.16108 0.20521
vt 0.85223 0.30665
vt 0.84520 0.30602
vt 0.84628 0.29983
vt 0.73062 0.47233
vt 0.17023 0.62089
vt 0.41440 0.03717
vt 0.39338 0.19820
vt 0.15616 0.62475
vt 0.90876 0.00311
vt 0.91206 0.00916
vt 0.90876 0.00890
vt 0.58346 0.97982
vt 0.57561 0.98552
vt 0.57265 0.97962
vt 0.98388 0.70099
vt 0.98688 0.69960
vt 0.99010 0.70097
vt 0.00746 0.95242
vt 0.01022 0.94913
vt 0.01022 0.95661
vt 0.15647 0.63463
vt 0.04175 0.81889
vt 0.04850 0.82362
vt 0.03741 0.82372
vt 0.99336 0.78674
vt 0.99313 0.77427
vt 0.99790 0.77774
vt 0.73494 0.03491
vt 0.91185 0.00352
vt 0.74334 0.99988
vt 0.74566 0.99276
vt 0.74954 0.99933
vt 0.71149 0.56686
vt 0.38636 0.19488
vt 0.16622 0.63132
vt 0.74371 0.03714
vt 0.15744 0.20294
vt 0.05127 0.87494
vt 0.05378 0.87793
vt 0.05145 0.88745
vt 0.04621 0.75612
vt 0.85782 0.01072
vt 0.86163 0.00548
vt 0.86187 0.01021
vt 0.00863 0.61698
vt 0.00646 0.61032
vt 0.01366 0.61045
vt 0.30355 0.99126
vt 0.30911 0.99329
vt 0.30378 0.99892
vt 0.30802 0.99861
vt 0.88631 0.08699
vt 0.88286 0.08242
vt 0.88657 0.08121
vt 0.18626 0.82592
vt 0.18467 0.81998
vt 0.19338 0.82901
vt 0.80462 0.30566
vt 0.88169 0.09307
vt 0.87934 0.09169
vt 0.50324 0.94571
vt 0.51632 0.94571
vt 0.50339 0.95218
vt 0.67145 0.46321
vt 0.63526 0.45003
vt 0.67585 0.45148
vt 0.17675 0.82828
vt 0.17235 0.82439
vt 0.87830 0.08787
vt 0.71538 0.49619
vt 0.69631 0.48608
vt 0.89569 0.95745
vt 0.90124 0.96342
vt 0.89730 0.96345
vt 0.00831 0.62846
vt 0.00831 0.63467
vt 0.00446 0.62996
vt 0.37960 0.01629
vt 0.38233 0.01044
vt 0.38221 0.02155
vt 0.00848 0.41021
vt 0.01102 0.40717
vt 0.01558 0.40999
vt 0.03230 0.28628
vt 0.03223 0.29053
vt 0.02416 0.28482
vt 0.37467 0.01420
vt 0.37565 0.01036
vt 0.67736 0.45852
vt 0.98541 0.78473
vt 0.03952 0.06645
vt 0.03438 0.07670
vt 0.03313 0.06645
vt 0.08837 0.84649
vt 0.09720 0.84452
vt 0.09720 0.85060
vt 0.40951 0.91695
vt 0.41475 0.92533
vt 0.40148 0.92301
vt 0.86136 0.01558
vt 0.84998 0.01558
vt 0.85924 0.01387
vt 0.01549 0.12625
vt 0.00882 0.12842
vt 0.00808 0.12441
vt 0.08897 0.85995
vt 0.73083 0.55361
vt 0.50769 0.01121
vt 0.51150 0.00598
vt 0.51685 0.01020
vt 0.02268 0.46576
vt 0.02268 0.45618
vt 0.02936 0.45654
vt 0.08994 0.28203
vt 0.09290 0.27599
vt 0.10545 0.27599
vt 0.09555 0.85722
vt 0.98541 0.79513
vt 0.03430 0.67407
vt 0.03370 0.68363
vt 0.02608 0.68430
vt 0.23427 0.36189
vt 0.23965 0.36593
vt 0.23277 0.36937
vt 0.03763 0.07739
vt 0.09966 0.28316
vt 0.45684 0.99897
vt 0.45017 0.99927
vt 0.44939 0.99484
vt 0.23528 0.37649
vt 0.80150 0.24888
vt 0.78137 0.24808
vt 0.77882 0.24261
vt 0.86993 0.09111
vt 0.87464 0.08525
vt 0.57102 0.77082
vt 0.61467 0.77161
vt 0.58887 0.77915
vt 0.45674 0.99564
vt 0.24538 0.37350
vt 0.79965 0.24204
vt 0.05734 0.03719
vt 0.05572 0.03401
vt 0.06771 0.03831
vt 0.00763 0.70610
vt 0.01315 0.71011
vt 0.00697 0.71020
vt 0.01463 0.82429
vt 0.00746 0.83005
vt 0.00750 0.82238
vt 0.57698 0.77937
vt 0.51640 0.95210
vt 0.05857 0.04389
vt 0.05257 0.04454
vt 0.71557 0.48898
vt 0.91533 0.75375
vt 0.91430 0.74190
vt 0.92107 0.75742
vt 0.65133 0.46211
vt 0.14791 0.15851
vt 0.15042 0.16548
vt 0.14490 0.16782
vt 0.14626 0.15189
vt 0.15360 0.15867
vt 0.92204 0.73660
vt 0.68161 0.99998
vt 0.68161 0.99266
vt 0.68462 0.99727
vt 0.90210 0.96690
vt 0.89564 0.96940
vt 0.01424 0.82984
vt 0.49925 0.95071
vt 0.49535 0.94846
vt 0.49906 0.93785
vt 0.15862 0.14784
vt 0.16094 0.15790
vt 0.41688 0.00353
vt 0.41873 0.00923
vt 0.41485 0.00806
vt 0.30628 0.04018
vt 0.30261 0.04205
vt 0.30433 0.03502
vt 0.39746 0.92505
vt 0.40301 0.91622
vt 0.02658 0.67604
vt 0.59461 0.44873
vt 0.59710 0.46203
vt 0.14829 0.98542
vt 0.15952 0.98585
vt 0.15247 0.98686
vt 0.99419 0.80452
vt 0.60742 0.97324
vt 0.61791 0.97324
vt 0.61307 0.97865
vt 0.24153 0.36135
vt 0.36281 0.98853
vt 0.35999 0.98366
vt 0.36313 0.97907
vt 0.15236 0.99102
vt 0.62640 0.46046
vt 0.03034 0.68493
vt 0.02430 0.68964
vt 0.02121 0.68762
vt 0.70451 0.47751
vt 0.71403 0.47732
vt 0.24107 0.38583
vt 0.30238 0.73262
vt 0.29252 0.72885
vt 0.29709 0.72207
vt 0.58830 0.99005
vt 0.58853 0.99700
vt 0.58124 0.99637
vt 0.31890 0.04053
vt 0.37192 0.04840
vt 0.36201 0.05643
vt 0.36438 0.04960
vt 0.61008 0.78397
vt 0.28675 0.71736
vt 0.29691 0.73538
vt 0.58034 0.98974
vt 0.31288 0.03795
vt 0.29280 0.53812
vt 0.28290 0.54102
vt 0.28862 0.53435
vt 0.81863 0.24805
vt 0.93393 0.97208
vt 0.93458 0.96372
vt 0.94185 0.96372
vt 0.12060 0.26837
vt 0.10424 0.26837
vt 0.11507 0.26427
vt 0.28329 0.71641
vt 0.28549 0.70890
vt 0.29305 0.71254
vt 0.64323 0.77385
vt 0.28252 0.53734
vt 0.54826 0.01416
vt 0.53667 0.01416
vt 0.53912 0.01235
vt 0.63436 0.46456
vt 0.36947 0.04175
vt 0.54061 0.98162
vt 0.54852 0.97950
vt 0.53952 0.98842
vt 0.04874 0.01874
vt 0.05582 0.01874
vt 0.05363 0.03084
vt 0.39035 0.92169
vt 0.39537 0.91217
vt 0.01192 0.25728
vt 0.01999 0.25728
vt 0.01296 0.26015
vt 0.39615 0.01148
vt 0.40546 0.01148
vt 0.39425 0.01945
vt 0.91331 0.72018
vt 0.92420 0.71681
vt 0.05785 0.37555
vt 0.04977 0.37261
vt 0.06216 0.37290
vt 0.54885 0.98908
vt 0.29115 0.54243
vt 0.47460 0.97080
vt 0.47470 0.97582
vt 0.46394 0.97582
vt 0.20511 0.84902
vt 0.20511 0.85937
vt 0.19303 0.84860
vt 0.65041 0.77318
vt 0.66217 0.77295
vt 0.65285 0.77654
vt 0.46403 0.96969
vt 0.63536 0.47020
vt 0.97629 0.98213
vt 0.98574 0.97712
vt 0.98441 0.98508
vt 0.65151 0.78664
vt 0.54492 0.00771
vt 0.53987 0.00743
vt 0.53903 0.00430
vt 0.77060 0.98576
vt 0.76490 0.97791
vt 0.77708 0.98018
vt 0.54491 0.00309
vt 0.97597 0.97712
vt 0.03469 0.57607
vt 0.02996 0.58004
vt 0.02471 0.57618
vt 0.21385 0.01462
vt 0.20245 0.01462
vt 0.20881 0.01189
vt 0.40500 0.01906
vt 0.94579 0.97246
vt 0.21202 0.98230
vt 0.20183 0.98230
vt 0.21086 0.97990
vt 0.19399 0.83888
vt 0.20449 0.83724
vt 0.19324 0.85936
vt 0.96895 0.97698
vt 0.97188 0.98600
vt 0.96872 0.98669
vt 0.61158 0.79072
vt 0.64847 0.78872
vt 0.28436 0.55988
vt 0.58186 0.09277
vt 0.59146 0.08751
vt 0.60076 0.09185
vt 0.23479 0.95801
vt 0.24385 0.96326
vt 0.23734 0.96346
vt 0.34322 0.98181
vt 0.34322 0.97155
vt 0.34652 0.97659
vt 0.24382 0.95392
vt 0.59847 0.47223
vt 0.59711 0.46230
vt 0.29447 0.55181
vt 0.81270 0.98388
vt 0.82206 0.98388
vt 0.82198 0.98765
vt 0.58392 0.08691
vt 0.04891 0.93649
vt 0.04633 0.93714
vt 0.04424 0.92935
vt 0.25976 0.02759
vt 0.27485 0.02850
vt 0.27158 0.03310
vt 0.23645 0.95063
vt 0.04904 0.92541
vt 0.26163 0.03329
vt 0.66106 0.79226
vt 0.86447 0.04480
vt 0.85032 0.03501
vt 0.86052 0.03632
vt 0.08811 0.79843
vt 0.09255 0.79533
vt 0.09187 0.81096
vt 0.29148 0.56189
vt 0.28662 0.56481
vt 0.29873 0.55551
vt 0.29495 0.56268
vt 0.84883 0.04501
vt 0.85180 0.29619
vt 0.99742 0.79233
vt 0.60776 0.86796
vt 0.60776 0.86796
vt 0.60776 0.86796
vt 0.60776 0.86796
vt 0.60776 0.86796
vt 0.60776 0.86796
vt 0.60776 0.86796
vt 0.60776 0.86796
vt 0.60776 0.86796
vt 0.60776 0.86796
vt 0.60776 0.86796
vt 0.60776 0.86796
vt 0.60776 0.86796
vt 0.60776 0.86796
vt 0.60776 0.86796
vt 0.60776 0.86796
vt 0.60776 0.86796
vt 0.60776 0.86796
vt 0.60776 0.86796
vt 0.60776 0.86796
vt 0.60776 0.86796
vt 0.60776 0.86796
vt 0.60776 0.86796
vt 0.60776 0.86796
vt 0.60776 0.86796
vt 0.60776 0.86796
vt 0.60776 0.86796
vt 0.60776 0.86796
vn 0.3776 -0.5899 0.7137
vn 0.3776 -0.5899 0.7137
vn 0.3776 -0.5899 0.7137
vn -0.2724 0.1064 0.9563
vn -0.2317 0.0489 0.9716
vn -0.3748 0.2581 0.8905
vn -0.3044 0.4152 0.8573
vn -0.3044 0.4152 0.8573
vn -0.3044 0.4152 0.8573
vn 0.2080 -0.7516 0.6259
vn 0.2544 -0.8228 0.5082
vn 0.2189 -0.7691 0.6004
vn 0.9609 -0.1813 0.2091
vn 0.8761 -0.4474 0.1798
vn 0.8580 -0.4038 0.3174
vn 0.8539 -0.3324 0.4005
vn 0.8621 -0.3238 0.3898
vn 0.3096 -0.8854 0.3467
vn 0.3096 -0.8854 0.3467
vn 0.3096 -0.8854 0.3467
vn 0.1942 -0.6793 0.7077
vn 0.3557 -0.8523 0.3834
vn 0.1449 -0.8396 0.5236
vn 0.6302 -0.2879 -0.7210
vn 0.6302 -0.2879 -0.7210
vn 0.6302 -0.2879 -0.7210
vn 0.4004 -0.9000 -0.1724
vn 0.4047 -0.8991 -0.1667
vn 0.3906 -0.9018 -0.1852
vn 0.4309 0.4098 0.8040
vn 0.4309 0.4098 0.8040
vn 0.4309 0.4098 0.8040
vn 0.9948 -0.0126 0.1010
vn 0.2754 -0.8518 0.4456
vn 0.2497 -0.8304 0.4980
vn 0.2081 -0.8088 0.5500
vn 0.2707 -0.8018 0.5327
vn 0.9467 -0.0407 0.3197
vn 0.9542 0.0008 0.2992
vn 0.2253 -0.0271 -0.9739
vn 0.2253 -0.0271 -0.9739
vn 0.2253 -0.0271 -0.9739
vn 0.1207 -0.6319 0.7656
vn 0.3071 -0.8853 0.3492
vn 0.0736 -0.9666 0.2457
vn 0.2362 -0.8599 0.4525
vn 0.1850 -0.4819 0.8564
vn 0.1082 -0.1294 0.9857
vn 0.1987 -0.2329 0.9520
vn 0.1987 -0.2329 0.9520
vn 0.1987 -0.2329 0.9520
vn 0.0155 -0.7584 0.6517
vn -0.3247 0.8642 0.3844
vn -0.3247 0.8642 0.3844
vn -0.3247 0.8642 0.3844
vn 0.9662 -0.2547 -0.0389
vn 0.9662 -0.2547 -0.0389
vn 0.9662 -0.2547 -0.0389
vn 0.1794 -0.7761 0.6046
vn 0.9196 -0.3436 0.1903
vn 0.9196 -0.3436 0.1903
vn 0.9196 -0.3436 0.1903
vn 0.3065 -0.9501 0.0577
vn 0.2883 -0.9575 0.0125
vn 0.3333 -0.9342 0.1275
vn 0.1594 -0.5481 0.8211
vn 0.0365 0.1197 0.9921
vn 0.1009 0.0435 0.9939
vn 0.0623 0.0894 0.9940
vn 0.6290 0.3855 0.6751
vn 0.6290 0.3855 0.6751
vn 0.6290 0.3855 0.6751
vn 0.8661 -0.1710 -0.4698
vn 0.8578 -0.3010 -0.4166
vn 0.8652 -0.1304 -0.4842
vn 0.8248 0.1420 -0.5474
vn 0.8248 0.1420 -0.5474
vn 0.8248 0.1420 -0.5474
vn 0.8581 -0.0446 -0.5116
vn 0.2740 0.9601 -0.0564
vn 0.0808 0.9944 -0.0675
vn 0.1362 0.9864 -0.0915
vn 0.8867 -0.0664 0.4575
vn 0.8867 -0.0664 0.4575
vn 0.8867 -0.0664 0.4575
vn 0.2523 -0.9209 -0.2970
vn 0.3882 -0.8907 -0.2367
vn 0.2433 -0.9277 -0.2831
vn 0.8744 -0.1622 -0.4572
vn 0.8744 -0.1622 -0.4572
vn 0.8744 -0.1622 -0.4572
vn 0.9137 -0.3652 0.1783
vn 0.9137 -0.3652 0.1783
vn 0.9137 -0.3652 0.1783
vn 0.8890 -0.1361 0.4373
vn 0.7647 -0.2940 0.5734
vn 0.8316 -0.2185 0.5107
vn 0.1046 0.9868 -0.1237
vn 0.3374 0.9395 -0.0595
vn 0.8642 0.4866 -0.1282
vn 0.8363 0.3513 -0.4209
vn 0.8980 0.4289 -0.0986
vn 0.2652 0.9597 -0.0932
vn 0.4571 0.7876 -0.4131
vn 0.3174 0.9415 -0.1131
vn 0.4287 0.6817 -0.5929
vn 0.9553 -0.1979 -0.2195
vn 0.9553 -0.1979 -0.2195
vn 0.9553 -0.1979 -0.2195
vn 0.7253 -0.3320 0.6031
vn -0.3140 -0.3270 -0.8913
vn -0.3140 -0.3270 -0.8913
vn -0.3140 -0.3270 -0.8913
vn 0.0781 0.9969 0.0112
vn -0.1901 0.8602 0.4732
vn -0.1901 0.8602 0.4732
vn -0.1901 0.8602 0.4732
vn 0.7413 0.6154 -0.2679
vn -0.6996 0.1221 -0.7040
vn -0.6996 0.1221 -0.7040
vn -0.6996 0.1221 -0.7040
vn 0.1305 -0.9833 -0.1269
vn 0.2635 0.9517 0.1576
vn 0.0609 -0.9885 -0.1383
vn 0.6584 -0.6312 0.4100
vn 0.6521 -0.6457 0.3973
vn 0.6493 -0.6527 0.3903
vn -0.4821 -0.7516 -0.4502
vn -0.4821 -0.7516 -0.4502
vn -0.4821 -0.7516 -0.4502
vn 0.4654 -0.8129 -0.3501
vn 0.4674 -0.8122 -0.3492
vn 0.4660 -0.8127 -0.3498
vn -0.3757 -0.1773 -0.9096
vn -0.5196 -0.1741 -0.8365
vn -0.5140 -0.2197 -0.8292
vn 0.3538 0.9218 0.1584
vn 0.5397 -0.3477 -0.7667
vn 0.6297 -0.1044 -0.7698
vn 0.7113 0.4945 -0.4996
vn 0.6540 -0.6259 0.4249
vn -0.6842 -0.2028 -0.7005
vn 0.0335 -0.9878 -0.1518
vn -0.6071 -0.0912 -0.7894
vn 0.6459 0.2715 -0.7136
vn 0.4680 -0.8120 -0.3489
vn 0.3203 -0.3877 -0.8643
vn 0.2855 -0.5199 -0.8051
vn 0.2840 -0.5247 -0.8025
vn 0.2440 -0.6414 -0.7274
vn 0.3022 -0.6158 -0.7276
vn 0.6678 -0.6400 0.3799
vn -0.0606 0.8415 0.5369
vn -0.0606 0.8415 0.5369
vn -0.0606 0.8415 0.5369
vn 0.6348 0.6668 -0.3904
vn 0.6746 -0.6438 0.3610
vn 0.3245 0.9364 0.1338
vn 0.2595 -0.6905 -0.6752
vn -0.6001 0.3409 0.7237
vn -0.6328 0.3044 0.7120
vn -0.3990 0.5210 0.7545
vn -0.2995 -0.9302 -0.2121
vn -0.4229 -0.8970 -0.1287
vn -0.4405 -0.8920 -0.1011
vn 0.6328 0.3093 -0.7098
vn 0.4289 -0.6039 -0.6719
vn -0.5023 -0.6939 0.5160
vn -0.3121 -0.7784 0.5446
vn -0.5674 -0.6465 0.5100
vn -0.5113 -0.8574 -0.0595
vn 0.8644 -0.0928 0.4942
vn 0.8644 -0.0928 0.4942
vn 0.8644 -0.0928 0.4942
vn 0.6630 0.2725 -0.6972
vn 0.5230 -0.0406 -0.8513
vn -0.6539 -0.6623 0.3658
vn 0.4651 -0.5327 0.7070
vn 0.4999 -0.7603 0.4147
vn 0.5108 -0.7363 0.4439
vn 0.5737 0.7561 -0.3150
vn 0.4529 0.8570 -0.2456
vn 0.5674 0.6223 -0.5393
vn 0.0919 0.9848 -0.1475
vn 0.2253 0.9734 -0.0410
vn 0.1402 0.9862 -0.0881
vn 0.5101 -0.5866 0.6291
vn -0.6285 -0.0281 0.7773
vn -0.6277 -0.0229 0.7782
vn -0.6075 0.0826 0.7900
vn 0.3044 0.9473 -0.0996
vn 0.4963 0.8442 -0.2024
vn 0.5342 0.8076 0.2500
vn 0.3996 -0.3730 0.8374
vn 0.7199 0.1954 -0.6661
vn 0.1075 0.9857 -0.1296
vn 0.3208 -0.6435 -0.6949
vn 0.3867 -0.5810 -0.7162
vn 0.3784 0.9251 -0.0317
vn 0.1552 0.9859 -0.0630
vn 0.1409 0.9848 0.1012
vn 0.0182 -0.4888 -0.8722
vn 0.0182 -0.4888 -0.8722
vn 0.0182 -0.4888 -0.8722
vn -0.3808 -0.6084 0.6963
vn -0.3808 -0.6084 0.6963
vn -0.3808 -0.6084 0.6963
vn -0.4448 -0.8901 -0.0992
vn 0.9404 0.2451 -0.2356
vn 0.9404 0.2451 -0.2356
vn 0.9404 0.2451 -0.2356
vn 0.2732 0.9543 0.1215
vn -0.3722 0.5406 0.7545
vn 0.7554 0.0981 -0.6479
vn 0.5168 0.5044 0.6918
vn 0.5168 0.5044 0.6918
vn 0.5168 0.5044 0.6918
vn -0.3060 -0.8908 0.3359
vn -0.3060 -0.8908 0.3359
vn -0.3060 -0.8908 0.3359
vn -0.0450 0.9748 -0.2183
vn -0.0450 0.9748 -0.2183
vn -0.0450 0.9748 -0.2183
vn -0.6063 0.0880 0.7904
vn -0.0090 0.9892 -0.1462
vn -0.0058 0.9917 -0.1287
vn -0.4996 -0.8408 0.2086
vn -0.4996 -0.8408 0.2086
vn -0.4996 -0.8408 0.2086
vn 0.1624 -0.7293 -0.6647
vn -0.5571 0.6077 0.5659
vn -0.5571 0.6077 0.5659
vn -0.5571 0.6077 0.5659
vn -0.6958 0.4681 -0.5447
vn -0.6958 0.4681 -0.5447
vn -0.6958 0.4681 -0.5447
vn 0.5907 0.5480 -0.5923
vn 0.7677 0.3504 -0.5366
vn 0.8113 0.2836 -0.5112
vn -0.0593 0.9465 0.3171
vn 0.2738 0.9214 0.2759
vn 0.1180 0.9467 0.2996
vn -0.0820 -0.8236 -0.5612
vn -0.0128 -0.8847 -0.4660
vn -0.1065 -0.8160 -0.5682
vn 0.4833 0.7879 -0.3815
vn 0.5592 0.8278 -0.0451
vn 0.3875 0.9218 -0.0074
vn -0.4442 -0.8903 -0.1007
vn 0.3524 0.8988 0.2607
vn -0.6746 -0.6476 0.3543
vn 0.9864 -0.1641 -0.0113
vn 0.9865 -0.1507 0.0638
vn 0.9871 -0.1597 0.0139
vn 0.9835 -0.1414 0.1126
vn 0.0747 0.7707 0.6328
vn 0.0747 0.7707 0.6328
vn 0.0747 0.7707 0.6328
vn 0.6452 0.7220 -0.2500
vn 0.6452 0.7220 -0.2500
vn 0.6452 0.7220 -0.2500
vn 0.4258 0.5758 -0.6980
vn 0.6054 0.7364 -0.3018
vn 0.5287 0.5998 -0.6006
vn 0.3647 0.9310 -0.0168
vn 0.6623 0.7491 -0.0165
vn 0.1533 0.7031 0.6944
vn 0.1533 0.7031 0.6944
vn 0.1533 0.7031 0.6944
vn 0.3748 0.1605 -0.9131
vn 0.2091 0.2847 -0.9356
vn 0.0659 0.3776 -0.9236
vn -0.0521 0.4451 -0.8939
vn -0.0041 -0.9718 0.2358
vn -0.0261 -0.9668 0.2543
vn 0.0625 -0.9819 0.1787
vn -0.1631 -0.9166 0.3650
vn 0.7062 -0.3976 -0.5858
vn 0.6403 -0.3973 -0.6574
vn 0.6626 -0.4084 -0.6278
vn 0.8583 0.4769 0.1892
vn 0.8371 0.5047 0.2109
vn 0.5267 -0.5691 -0.6315
vn -0.8735 0.1716 -0.4556
vn -0.8735 0.1716 -0.4556
vn -0.8735 0.1716 -0.4556
vn -0.6412 -0.6820 0.3518
vn -0.6412 -0.6820 0.3518
vn -0.6412 -0.6820 0.3518
vn 0.6017 -0.3912 -0.6964
vn -0.4455 0.5208 0.7282
vn -0.5291 0.4440 0.7231
vn -0.4714 0.4804 0.7396
vn -0.1654 -0.2208 -0.9612
vn -0.1654 -0.2208 -0.9612
vn -0.1654 -0.2208 -0.9612
vn -0.4227 0.5206 -0.7418
vn -0.4239 0.5205 -0.7412
vn -0.4237 0.5205 -0.7413
vn -0.4934 -0.8696 0.0206
vn 0.0646 -0.7633 -0.6428
vn -0.2028 -0.9350 0.2909
vn -0.2028 -0.9350 0.2909
vn -0.2028 -0.9350 0.2909
vn -0.5860 0.1997 0.7853
vn -0.6151 0.1966 0.7635
vn -0.6155 0.1951 0.7636
vn 0.6068 -0.3682 -0.7044
vn -0.4742 -0.1029 -0.8744
vn -0.4742 -0.1029 -0.8744
vn -0.4742 -0.1029 -0.8744
vn -0.9722 -0.0431 -0.2300
vn -0.9722 -0.0431 -0.2300
vn -0.9722 -0.0431 -0.2300
vn -0.5257 0.2230 0.8209
vn -0.7244 0.5846 0.3654
vn -0.6997 0.6454 0.3062
vn -0.7147 0.6107 0.3409
vn -0.6875 -0.6462 0.3314
vn 0.0669 0.3521 -0.9336
vn 0.0669 0.3521 -0.9336
vn 0.0669 0.3521 -0.9336
vn -0.4198 -0.8924 0.1652
vn -0.7549 -0.3748 -0.5381
vn -0.7123 -0.4290 -0.5555
vn -0.7088 -0.4235 -0.5642
vn -0.9177 -0.0540 -0.3935
vn -0.9177 -0.0540 -0.3935
vn -0.9177 -0.0540 -0.3935
vn -0.7909 -0.3203 -0.5215
vn -0.4248 0.5204 -0.7408
vn -0.6798 0.6841 0.2645
vn -0.1368 -0.6560 -0.7423
vn -0.8391 -0.2152 -0.4996
vn -0.3500 -0.9242 0.1528
vn -0.1211 -0.6239 -0.7721
vn 0.6605 -0.2296 -0.7149
vn 0.4771 -0.1314 -0.8690
vn 0.7882 -0.1810 -0.5882
vn -0.2231 -0.6501 -0.7263
vn -0.2231 -0.6501 -0.7263
vn -0.2231 -0.6501 -0.7263
vn -0.9947 0.0161 0.1014
vn -0.9947 0.0161 0.1014
vn -0.9947 0.0161 0.1014
vn 0.7695 0.6321 -0.0912
vn 0.1774 -0.4498 -0.8753
vn 0.4133 -0.4719 -0.7787
vn 0.3348 -0.4496 -0.8281
vn -0.6957 -0.6512 0.3032
vn 0.9740 -0.1197 -0.1924
vn 0.9740 -0.1197 -0.1924
vn 0.9740 -0.1197 -0.1924
vn 0.8924 -0.3714 0.2562
vn 0.7880 -0.4536 0.4162
vn 0.8321 -0.3958 0.3884
vn 0.9114 -0.3723 0.1753
vn 0.1567 0.9634 -0.2175
vn 0.0410 0.9494 -0.3113
vn -0.0930 0.9072 -0.4104
vn -0.4396 0.3752 -0.8161
vn -0.5692 0.4759 -0.6705
vn -0.4858 0.4736 -0.7346
vn 0.2494 0.9587 -0.1366
vn 0.5398 -0.0241 -0.8414
vn 0.6027 0.0562 -0.7960
vn 0.4813 -0.2735 -0.8328
vn -0.2308 0.5910 0.7730
vn -0.2308 0.5910 0.7730
vn -0.2308 0.5910 0.7730
vn 0.4359 -0.2418 -0.8669
vn 0.6334 0.0199 -0.7736
vn -0.3047 -0.9474 0.0983
vn -0.1301 -0.9554 0.2653
vn -0.8335 0.3972 -0.3841
vn -0.8335 0.3972 -0.3841
vn -0.8335 0.3972 -0.3841
vn 0.2616 -0.8695 -0.4190
vn 0.1366 -0.9741 -0.1800
vn 0.1591 -0.9871 -0.0190
vn 0.7991 0.6010 0.0129
vn 0.8001 0.5998 0.0042
vn 0.7310 -0.4929 0.4719
vn -0.2825 0.7838 0.5531
vn -0.4464 0.5732 0.6872
vn -0.8573 -0.5036 0.1072
vn -0.9416 -0.3109 0.1295
vn -0.8459 -0.5111 0.1523
vn 0.0424 0.9751 -0.2176
vn 0.0424 0.9751 -0.2176
vn 0.0424 0.9751 -0.2176
vn 0.7860 0.6100 0.1009
vn 0.3382 -0.1720 -0.9252
vn 0.3846 -0.7819 -0.4906
vn 0.1522 -0.9093 0.3873
vn -0.3929 0.2680 0.8797
vn -0.5276 0.5457 -0.6510
vn -0.6191 0.5055 -0.6009
vn -0.7302 0.4349 -0.5270
vn 0.2141 -0.0201 0.9766
vn 0.2141 -0.0201 0.9766
vn 0.2141 -0.0201 0.9766
vn 0.8138 0.0555 0.5785
vn 0.8138 0.0555 0.5785
vn 0.8138 0.0555 0.5785
vn -0.0721 0.9573 0.2799
vn -0.4250 0.8971 0.1208
vn -0.2253 0.9439 0.2414
vn -0.9165 -0.3851 0.1080
vn 0.8416 -0.5022 0.1987
vn 0.8416 -0.5022 0.1987
vn 0.8416 -0.5022 0.1987
vn -0.9067 -0.1828 0.3800
vn -0.9580 -0.2539 0.1333
vn -0.9530 -0.2606 -0.1542
vn -0.6523 0.4015 0.6430
vn 0.5170 -0.7132 -0.4733
vn -0.2836 0.2408 0.9282
vn -0.2141 0.0581 0.9751
vn -0.2953 -0.0402 0.9546
vn -0.2247 0.3352 0.9149
vn -0.9276 -0.3600 0.1001
vn -0.9135 -0.3199 -0.2514
vn -0.3437 0.1518 0.9267
vn -0.7780 0.4227 -0.4647
vn 0.5180 -0.5326 -0.6693
vn 0.8772 0.2142 0.4297
vn 0.9303 0.0201 0.3662
vn 0.8899 0.1791 0.4195
vn 0.8262 0.3268 0.4589
vn 0.6751 0.7372 0.0294
vn 0.6754 0.7354 0.0544
vn 0.6841 0.7293 0.0117
vn -0.3265 -0.0839 0.9415
vn 0.4441 -0.5559 -0.7027
vn 0.3745 -0.4913 0.7864
vn 0.3766 -0.4936 0.7839
vn 0.3687 -0.4890 0.7905
vn 0.2576 -0.8991 0.3540
vn -0.0454 0.1872 0.9813
vn -0.1222 0.2562 0.9589
vn -0.2287 0.3490 0.9088
vn 0.3739 -0.4935 0.7853
vn 0.3908 -0.5057 0.7691
vn -0.2514 0.3683 0.8951
vn 0.8211 0.1553 0.5492
vn 0.8595 0.0723 0.5059
vn 0.8024 0.1897 0.5658
vn 0.7339 0.2962 0.6113
vn -0.4475 0.8134 0.3717
vn -0.3910 0.8754 0.2843
vn -0.4641 0.7944 0.3918
vn -0.5111 -0.3613 0.7799
vn -0.4013 -0.2896 0.8690
vn -0.4310 -0.3091 0.8478
vn 0.3941 -0.6485 0.6513
vn 0.3941 -0.6485 0.6513
vn 0.3941 -0.6485 0.6513
vn -0.3550 -0.2592 0.8982
vn -0.5128 0.3603 0.7793
vn -0.5128 0.3603 0.7793
vn -0.5128 0.3603 0.7793
vn 0.0957 -0.8410 -0.5326
vn 0.2064 -0.7060 -0.6775
vn -0.3725 -0.9261 -0.0598
vn -0.4435 -0.8961 -0.0167
vn 0.6432 0.0220 -0.7654
vn 0.6204 0.0360 -0.7835
vn 0.5927 0.0524 -0.8037
vn 0.8078 0.0506 0.5873
vn 0.8004 0.0550 0.5970
vn 0.7143 0.0496 0.6981
vn -0.0368 -0.9992 0.0167
vn -0.0432 -0.9984 0.0371
vn -0.0463 -0.9981 0.0415
vn 0.7756 0.0552 0.6288
vn -0.0380 -0.9992 0.0082
vn 0.1983 0.9734 -0.1146
vn 0.2686 0.9418 -0.2021
vn -0.0360 0.9988 -0.0340
vn 0.6281 0.0189 0.7779
vn 0.9582 -0.2670 -0.1032
vn 0.9586 -0.2694 -0.0921
vn 0.9539 -0.2545 -0.1591
vn 0.5264 0.0008 0.8503
vn 0.3539 0.9146 -0.1953
vn 0.3739 0.8774 -0.3007
vn 0.6943 0.3221 0.6436
vn 0.8081 0.1601 0.5669
vn 0.7352 0.3359 0.5888
vn 0.9592 -0.2794 -0.0430
vn 0.5684 0.0664 -0.8201
vn 0.6050 0.0925 0.7909
vn 0.4385 -0.7328 0.5203
vn 0.4052 -0.8029 0.4373
vn 0.4183 -0.7778 0.4691
vn 0.8273 -0.0187 0.5614
vn 0.8056 -0.0885 0.5859
vn 0.7647 0.3375 0.5490
vn 0.7509 -0.4225 0.5076
vn 0.7751 -0.3064 0.5526
vn 0.6866 -0.1140 0.7181
vn 0.5914 -0.6698 -0.4489
vn 0.5914 -0.6698 -0.4489
vn 0.5914 -0.6698 -0.4489
vn -0.0554 -0.9969 0.0560
vn -0.0564 -0.9974 0.0453
vn 0.4476 -0.7092 0.5447
vn 0.5319 -0.0864 0.8424
vn -0.6882 0.2491 0.6814
vn -0.6327 0.1791 0.7534
vn -0.7041 0.2709 0.6564
vn 0.8184 0.1703 0.5489
vn 0.2713 0.8923 -0.3608
vn 0.4484 0.7305 -0.5151
vn 0.4277 0.7458 -0.5108
vn -0.8800 -0.1401 -0.4539
vn -0.8928 -0.0353 -0.4490
vn -0.8788 -0.0412 -0.4755
vn 0.6177 0.4536 -0.6424
vn 0.6114 0.2406 -0.7539
vn 0.6610 0.3781 -0.6481
vn 0.6163 0.5095 -0.6005
vn 0.5349 0.5607 0.6321
vn 0.5349 0.5607 0.6321
vn 0.5349 0.5607 0.6321
vn -0.8553 0.0782 -0.5122
vn -0.1251 -0.9656 0.2281
vn -0.0906 -0.9820 0.1656
vn -0.0288 -0.9972 0.0689
vn -0.8572 -0.1796 -0.4826
vn -0.8458 0.0861 -0.5265
vn -0.0260 -0.9994 0.0233
vn -0.5979 0.0077 0.8016
vn -0.6743 -0.0977 0.7320
vn -0.4590 0.1396 0.8774
vn 0.7648 0.1131 0.6343
vn 0.7773 0.1152 0.6185
vn 0.8724 0.0292 0.4879
vn -0.7487 0.3383 0.5700
vn -0.7178 -0.2264 0.6584
vn 0.0504 0.9484 -0.3132
vn -0.0327 0.8157 -0.5775
vn 0.0563 0.9405 -0.3352
vn 0.4321 0.6135 -0.6610
vn 0.6834 0.3620 -0.6340
vn 0.8754 0.1294 0.4658
vn 0.8541 0.3890 0.3451
vn 0.8934 0.2506 0.3729
vn -0.5522 0.0023 0.8337
vn 0.4945 -0.0757 0.8659
vn -0.1361 -0.8648 -0.4833
vn -0.0654 -0.7539 -0.6538
vn -0.0577 -0.7399 -0.6703
vn 0.5101 -0.0734 0.8570
vn 0.7090 0.1604 0.6868
vn 0.6121 -0.2971 -0.7329
vn 0.5522 -0.3994 -0.7318
vn 0.5820 -0.3507 -0.7336
vn 0.7307 0.1211 0.6719
vn 0.5799 -0.1118 -0.8070
vn 0.5643 -0.0773 -0.8220
vn 0.5842 -0.1217 -0.8025
vn 0.6001 -0.1600 -0.7837
vn 0.0148 -0.5937 -0.8045
vn 0.7911 -0.1354 0.5965
vn 0.6367 -0.7222 0.2702
vn 0.6367 -0.7222 0.2702
vn 0.6367 -0.7222 0.2702
vn -0.7533 0.3233 0.5728
vn -0.7229 0.3963 0.5660
vn -0.8125 0.1095 0.5725
vn -0.0995 -0.9846 0.1436
vn -0.0661 -0.9932 0.0959
vn -0.0823 -0.9872 0.1365
vn -0.1253 0.8910 -0.4364
vn 0.5024 0.0286 -0.8642
vn 0.4578 -0.0014 -0.8891
vn 0.4811 0.0141 -0.8766
vn 0.6993 0.1658 0.6954
vn 0.8596 0.1455 0.4899
vn -0.0671 -0.9935 0.0923
vn 0.9337 -0.3222 0.1564
vn 0.9140 -0.3683 0.1700
vn 0.9648 -0.2509 0.0788
vn 0.4361 -0.0156 -0.8998
vn 0.0464 0.9429 -0.3299
vn -0.0053 0.9035 -0.4286
vn 0.0360 0.8471 -0.5302
vn 0.0826 0.9809 -0.1761
vn 0.8295 0.1157 0.5464
vn 0.9410 0.3002 0.1562
vn 0.9410 0.3002 0.1562
vn 0.9410 0.3002 0.1562
vn -0.6092 0.1276 0.7827
vn -0.7414 0.0631 0.6681
vn -0.4651 -0.0188 0.8850
vn 0.2019 0.9037 -0.3775
vn 0.6711 0.1968 0.7148
vn 0.6883 0.3780 0.6192
vn 0.8177 0.3974 0.4164
vn 0.7468 0.5678 0.3463
vn 0.8254 -0.5166 0.2277
vn -0.2307 -0.9021 0.3647
vn -0.8778 -0.0370 -0.4776
vn -0.9418 -0.0439 -0.3334
vn -0.9114 0.0618 -0.4069
vn -0.5663 -0.1048 0.8175
vn -0.3553 0.3434 0.8694
vn -0.5654 0.4810 0.6700
vn -0.4931 0.4350 0.7534
vn 0.1594 -0.9812 0.1091
vn 0.0070 -0.9835 0.1808
vn 0.1999 -0.9771 0.0729
vn -0.1062 -0.9894 0.0991
vn -0.0874 -0.9920 0.0915
vn -0.1277 -0.9859 0.1078
vn -0.9289 -0.0062 -0.3702
vn 0.7659 -0.5923 0.2502
vn 0.2538 -0.9238 -0.2867
vn 0.2349 -0.9163 -0.3244
vn 0.2826 -0.9322 -0.2260
vn -0.1377 -0.9703 0.1989
vn -0.8289 -0.0208 0.5590
vn 0.6372 -0.2476 -0.7298
vn -0.8758 -0.1684 -0.4523
vn -0.8758 -0.1684 -0.4523
vn -0.8758 -0.1684 -0.4523
vn 0.8453 -0.4444 0.2967
vn -0.7887 -0.0906 0.6081
vn 0.7690 -0.1481 -0.6219
vn 0.8101 -0.0986 -0.5780
vn 0.8281 -0.0916 -0.5531
vn 0.1818 -0.8875 -0.4234
vn -0.1850 -0.9586 0.2164
vn 0.2959 -0.9545 0.0359
vn -0.6451 0.5292 0.5512
vn -0.5498 -0.1044 0.8288
vn -0.0875 0.4342 0.8965
vn -0.0602 0.3938 0.9172
vn -0.0711 0.4061 0.9110
vn 0.7546 -0.1653 -0.6350
vn -0.9907 -0.0547 -0.1247
vn 0.4272 -0.9008 -0.0783
vn -0.1939 0.7779 -0.5977
vn -0.9004 0.1361 -0.4133
vn -0.0546 -0.9791 0.1959
vn -0.0284 -0.9814 0.1899
vn -0.0037 -0.9829 0.1840
vn -0.2038 0.9741 0.0982
vn -0.2038 0.9741 0.0982
vn -0.2038 0.9741 0.0982
vn -0.3318 0.0955 0.9385
vn -0.3318 0.0955 0.9385
vn -0.3318 0.0955 0.9385
vn -0.4375 -0.8873 0.1463
vn -0.4375 -0.8873 0.1463
vn -0.4375 -0.8873 0.1463
vn -0.9223 0.0040 -0.3864
vn 0.1171 -0.3029 -0.9458
vn 0.1171 -0.3029 -0.9458
vn 0.1171 -0.3029 -0.9458
vn -0.4334 0.3694 0.8220
vn -0.5582 0.2233 0.7991
vn -0.6087 0.1419 0.7806
vn -0.8564 -0.1537 0.4929
vn -0.0815 -0.9760 0.2020
vn 0.0484 -0.5377 0.8418
vn 0.0484 -0.5377 0.8418
vn 0.0484 -0.5377 0.8418
vn 0.8518 0.4032 0.3344
vn 0.1097 0.6587 -0.7444
vn -0.9632 -0.0969 -0.2506
vn -0.7271 -0.2127 0.6527
vn -0.3756 -0.0379 0.9260
vn -0.0258 0.0386 -0.9989
vn -0.0258 0.0386 -0.9989
vn -0.0258 0.0386 -0.9989
vn -0.0734 -0.9936 0.0859
vn -0.6199 -0.7701 -0.1503
vn -0.6199 -0.7701 -0.1503
vn -0.6199 -0.7701 -0.1503
vn -0.6751 0.3704 -0.6380
vn -0.6751 0.3704 -0.6380
vn -0.6751 0.3704 -0.6380
vn 0.9661 -0.2344 0.1079
vn 0.9621 -0.2554 0.0951
vn 0.9599 -0.2657 0.0888
vn 0.9519 -0.2987 0.0683
vn -0.8654 -0.4794 0.1459
vn -0.8169 -0.5766 0.0155
vn -0.7004 -0.7116 -0.0560
vn 0.9970 0.0735 -0.0242
vn 0.9993 -0.0379 -0.0047
vn 0.9751 0.2210 -0.0207
vn -0.0380 0.3538 0.9345
vn -0.9505 -0.2494 0.1851
vn -0.7960 -0.4372 0.4186
vn 0.2081 -0.0844 -0.9745
vn 0.1649 -0.1020 -0.9810
vn 0.1905 -0.0916 -0.9774
vn -0.5750 -0.4383 -0.6909
vn -0.4169 -0.4536 -0.7877
vn -0.6032 -0.4287 -0.6726
vn 0.9939 -0.1020 0.0409
vn 0.9940 -0.0876 0.0652
vn -0.6942 -0.5434 0.4720
vn 0.6120 0.3316 0.7180
vn 0.6108 0.2154 0.7619
vn 0.2963 -0.8448 0.4455
vn 0.5481 -0.7557 0.3584
vn 0.4598 -0.7841 0.4169
vn -0.0129 -0.9068 -0.4214
vn -0.0129 -0.9068 -0.4214
vn -0.0129 -0.9068 -0.4214
vn 0.8189 -0.3716 0.4374
vn 0.8370 -0.1980 0.5102
vn 0.7516 -0.5514 0.3620
vn -0.7994 0.1051 -0.5915
vn -0.7994 0.1051 -0.5915
vn -0.7994 0.1051 -0.5915
vn -0.1795 0.3452 0.9212
vn -0.1795 0.3452 0.9212
vn -0.1795 0.3452 0.9212
vn 0.8316 -0.0507 0.5531
vn 0.8057 -0.0080 0.5923
vn -0.6068 -0.4629 -0.6461
vn -0.4254 0.3314 0.8422
vn -0.1061 -0.9779 0.1801
vn -0.1227 -0.9781 0.1683
vn -0.0988 -0.9777 0.1852
vn 0.7346 0.1574 0.6599
vn 0.7738 0.2478 0.5829
vn 0.7334 0.1614 0.6604
vn 0.4553 -0.8726 -0.1770
vn 0.3278 -0.9283 -0.1756
vn 0.5956 -0.7880 -0.1558
vn -0.5198 -0.7609 -0.3883
vn -0.5198 -0.7609 -0.3883
vn -0.5198 -0.7609 -0.3883
vn -0.9647 -0.1543 0.2134
vn -0.9647 -0.1543 0.2134
vn -0.9647 -0.1543 0.2134
vn 0.7000 0.1054 0.7064
vn 0.8321 -0.0917 -0.5469
vn 0.0881 0.9829 -0.1617
vn 0.0881 0.9829 -0.1617
vn 0.0881 0.9829 -0.1617
vn 0.2057 -0.1400 -0.9686
vn 0.2057 -0.1400 -0.9686
vn 0.2057 -0.1400 -0.9686
vn -0.0129 0.8559 -0.5170
vn 0.1559 0.8848 -0.4391
vn -0.0951 0.8308 -0.5483
vn 0.6905 0.1113 0.7147
vn -0.3590 0.4069 0.8399
vn -0.1320 -0.9538 0.2699
vn -0.1176 -0.9592 0.2571
vn -0.1298 -0.9546 0.2680
vn -0.2848 -0.0440 -0.9576
vn -0.5778 -0.2309 -0.7828
vn -0.2398 -0.0872 -0.9669
vn -0.1333 -0.9779 0.1608
vn -0.2696 0.7530 -0.6003
vn -0.3554 0.2893 0.8888
vn -0.4085 0.2618 0.8744
vn -0.3836 0.2749 0.8816
vn -0.6372 0.0904 -0.7654
vn -0.8377 -0.0141 0.5459
vn -0.7356 0.2131 0.6431
vn -0.7695 0.1744 0.6144
vn -0.5011 -0.6686 0.5495
vn -0.4566 -0.6518 0.6055
vn -0.6398 0.1249 0.7583
vn -0.4514 0.2390 0.8597
vn -0.5542 0.1988 0.8083
vn -0.3265 0.3035 0.8951
vn -0.7371 0.0218 -0.6754
vn -0.8486 0.0071 0.5290
vn 0.4959 0.7936 -0.3527
vn 0.5056 0.7968 -0.3308
vn 0.5432 0.8107 -0.2182
vn -0.6354 0.7460 0.1993
vn -0.6354 0.7460 0.1993
vn -0.6354 0.7460 0.1993
vn 0.7027 0.0178 0.7113
vn 0.7074 0.0088 0.7067
vn 0.7452 -0.0693 0.6633
vn -0.7038 0.0468 0.7088
vn 0.1469 -0.1092 -0.9831
vn 0.4632 0.7723 -0.4347
vn 0.4639 0.7725 -0.4337
vn 0.5764 0.3289 0.7481
vn -0.7322 -0.3093 -0.6069
vn -0.8052 -0.4013 -0.4367
vn -0.7855 -0.3319 -0.5224
vn -0.3860 -0.5033 -0.7731
vn -0.9801 -0.0141 -0.1978
vn -0.9489 0.1932 -0.2494
vn -0.9091 0.3340 -0.2490
vn -0.9954 0.0122 -0.0953
vn -0.9866 -0.0438 -0.1570
vn -0.8038 -0.4769 -0.3556
vn -0.1368 0.9421 -0.3063
vn -0.1368 0.9421 -0.3063
vn -0.1368 0.9421 -0.3063
vn 0.6813 -0.6870 0.2526
vn 0.6446 -0.6956 0.3173
vn 0.6444 0.1164 0.7558
vn 0.9971 -0.0366 0.0660
vn 0.9971 -0.0366 0.0660
vn 0.9971 -0.0366 0.0660
vn -0.9954 0.0884 -0.0361
vn -0.9962 0.0588 -0.0647
vn -0.5999 0.1446 0.7869
vn -0.5999 0.1446 0.7869
vn -0.5999 0.1446 0.7869
vn -0.9206 0.1711 -0.3510
vn -0.8876 0.1815 -0.4233
vn -0.8422 0.1722 -0.5110
vn 0.7908 -0.5153 -0.3303
vn 0.7323 -0.6550 -0.1861
vn -0.1456 -0.9483 0.2821
vn -0.3762 -0.4049 -0.8334
vn -0.3751 -0.4045 -0.8341
vn 0.9057 -0.0974 -0.4126
vn 0.7385 0.0200 -0.6740
vn 0.8509 -0.0517 -0.5227
vn -0.3388 0.4258 0.8390
vn 0.7156 0.5317 -0.4530
vn 0.7156 0.5317 -0.4530
vn 0.7156 0.5317 -0.4530
vn -0.7451 -0.4120 -0.5245
vn 0.3576 0.9187 0.1678
vn 0.3576 0.9187 0.1678
vn 0.3576 0.9187 0.1678
vn 0.9509 -0.1500 -0.2708
vn -0.5978 -0.3923 -0.6991
vn 0.1639 -0.8823 0.4412
vn 0.1639 -0.8823 0.4412
vn 0.1639 -0.8823 0.4412
vn 0.4994 0.2373 0.8332
vn 0.5432 0.3618 0.7577
vn -0.7836 0.3074 -0.5399
vn 0.5264 0.1337 0.8397
vn 0.5298 0.1652 0.8319
vn 0.5342 0.1912 0.8235
vn -0.9906 0.1199 0.0651
vn -0.9945 0.0915 0.0500
vn -0.9899 0.1246 0.0675
vn -0.8663 0.0040 -0.4995
vn -0.6650 -0.6976 0.2667
vn -0.6544 -0.6194 0.4337
vn -0.6613 -0.6531 0.3689
vn -0.6565 0.1585 0.7375
vn 0.5312 0.1631 0.8314
vn 0.5391 0.1153 0.8343
vn -0.9849 0.1521 0.0822
vn -0.8131 -0.0577 -0.5793
vn -0.3348 0.2912 0.8962
vn -0.4717 0.2038 0.8579
vn -0.3267 0.2946 0.8981
vn -0.8345 -0.0850 0.5443
vn -0.6923 0.6995 0.1773
vn -0.6506 0.7333 0.1975
vn -0.6951 0.6971 0.1758
vn 0.1799 -0.4125 -0.8930
vn 0.1799 -0.4125 -0.8930
vn 0.1799 -0.4125 -0.8930
vn 0.5208 0.1516 0.8401
vn 0.5209 0.1703 0.8365
vn 0.5328 0.1882 0.8251
vn -0.6165 0.2106 0.7587
vn -0.3403 0.3016 0.8907
vn 0.8638 -0.1449 -0.4825
vn 0.8638 -0.1449 -0.4825
vn 0.8638 -0.1449 -0.4825
vn -0.7179 -0.3926 -0.5749
vn -0.6630 -0.7212 0.2007
vn -0.4091 0.3351 -0.8487
vn -0.4077 0.3539 -0.8418
vn -0.4078 0.3527 -0.8422
vn -0.9682 0.2455 0.0473
vn -0.9682 0.2455 0.0473
vn -0.9682 0.2455 0.0473
vn 0.8046 -0.3190 -0.5008
vn 0.8164 -0.4690 -0.3369
vn -0.4411 -0.8473 -0.2957
vn -0.4411 -0.8473 -0.2957
vn -0.4411 -0.8473 -0.2957
vn -0.6271 -0.2106 -0.7500
vn -0.6052 -0.1966 -0.7714
vn -0.6106 -0.2000 -0.7663
vn -0.8233 -0.5502 -0.1396
vn -0.8306 -0.5551 -0.0440
vn 0.8545 0.4315 0.2892
vn 0.8545 0.4315 0.2892
vn 0.8545 0.4315 0.2892
vn -0.4067 0.3656 -0.8372
vn -0.5011 0.1576 0.8509
vn -0.1624 -0.9710 0.1753
vn -0.1717 -0.9666 0.1903
vn -0.1509 -0.9761 0.1567
vn -0.9072 0.1533 0.3918
vn -0.9139 0.0957 0.3944
vn -0.9133 0.1707 0.3699
vn -0.6194 0.1913 0.7614
vn -0.5262 0.3617 0.7696
vn -0.6012 0.1852 0.7774
vn -0.1426 -0.9793 0.1434
vn -0.7831 -0.3216 -0.5323
vn -0.4760 -0.2419 -0.8455
vn -0.4108 -0.2265 -0.8831
vn -0.3102 -0.2012 -0.9291
vn -0.7571 0.1513 0.6356
vn 0.4928 -0.6697 0.5555
vn 0.4226 -0.7707 0.4768
vn 0.4726 -0.7020 0.5328
vn 0.2351 0.9339 0.2693
vn 0.2351 0.9339 0.2693
vn 0.2351 0.9339 0.2693
vn 0.5210 -0.6197 0.5870
vn -0.5861 -0.2661 -0.7653
vn 0.2524 0.2120 0.9441
vn 0.2524 0.2120 0.9441
vn 0.2524 0.2120 0.9441
vn 0.1343 -0.9792 0.1521
vn 0.1343 -0.9792 0.1521
vn 0.1343 -0.9792 0.1521
vn -0.5897 -0.1868 -0.7857
vn -0.7242 0.6707 0.1605
vn 0.1946 -0.8618 0.4683
vn 0.1946 -0.8618 0.4683
vn 0.1946 -0.8618 0.4683
vn -0.8961 0.2143 0.3888
vn -0.8816 0.1810 0.4360
vn -0.9122 0.0922 0.3992
vn -0.3421 0.7579 0.5554
vn -0.3421 0.7579 0.5554
vn -0.3421 0.7579 0.5554
vn -0.9602 -0.0639 0.2718
vn -0.8275 0.1173 0.5491
vn -0.3501 -0.0385 0.9359
vn -0.4903 0.8526 -0.1809
vn -0.3266 0.9038 -0.2767
vn -0.2410 0.9162 -0.3201
vn -0.5312 0.0479 0.8459
vn -0.4925 0.0209 0.8701
vn -0.5895 -0.1439 0.7949
vn -0.3337 0.7984 0.5012
vn -0.3337 0.7984 0.5012
vn -0.3337 0.7984 0.5012
vn -0.4970 0.1098 0.8608
vn -0.8767 -0.3277 -0.3521
vn -0.8929 -0.3322 -0.3041
vn -0.3125 -0.1563 0.9370
vn 0.0289 -0.9809 0.1926
vn 0.0289 -0.9809 0.1926
vn 0.0289 -0.9809 0.1926
vn -0.6233 0.7771 -0.0873
vn -0.7554 -0.6536 -0.0466
vn -0.7636 -0.6456 0.0093
vn -0.7370 -0.6621 -0.1362
vn -0.1688 -0.8640 0.4743
vn -0.1110 -0.8868 0.4486
vn -0.1285 -0.8804 0.4566
vn -0.5807 0.1105 0.8066
vn -0.7301 -0.6635 -0.1633
vn -0.1952 -0.8523 0.4853
vn -0.8208 0.1280 0.5566
vn -0.7781 -0.6095 0.1519
vn -0.7872 -0.5961 0.1582
vn -0.7461 -0.6530 0.1305
vn -0.1978 0.5334 0.8224
vn -0.1978 0.5334 0.8224
vn -0.1978 0.5334 0.8224
vn 0.0074 -0.2190 0.9757
vn -0.1876 -0.0554 0.9807
vn 0.2043 -0.4108 0.8885
vn 0.4754 -0.4199 0.7731
vn -0.8034 -0.5706 0.1698
vn -0.0900 0.4294 0.8986
vn -0.3516 0.4581 0.8164
vn 0.0000 1.0000 0.0000
vn 0.0000 1.0000 0.0000
vn 0.0000 1.0000 0.0000
vn 0.0000 1.0000 0.0000
vn 0.0000 1.0000 0.0000
vn 0.0000 1.0000 0.0000
vn 0.0000 1.0000 0.0000
vn 0.0000 1.0000 0.0000
vn 0.0000 1.0000 0.0000
vn 0.0000 1.0000 0.0000
vn 0.0000 1.0000 0.0000
vn 0.0000 1.0000 0.0000
vn 0.0000 1.0000 0.0000
vn 0.0000 1.0000 0.0000
vn 0.0000 1.0000 0.0000
vn 0.0000 1.0000 0.0000
vn 0.0000 1.0000 0.0000
vn 0.0000 1.0000 0.0000
vn 0.0000 1.0000 0.0000
vn 0.0000 1.0000 0.0000
vn 0.0000 1.0000 0.0000
vn 0.0000 1.0000 0.0000
vn 0.0000 1.0000 0.0000
vn 0.0000 1.0000 0.0000
vn 0.0000 1.0000 0.0000
vn 0.0000 1.0000 0.0000
vn 0.0000 1.0000 0.0000
vn 0.0000 1.0000 0.0000
f 467/467/467 468/468/468 469/469/469
f 470/470/470 471/471/471 472/472/472
f 473/473/473 474/474/474 475/475/475
f 472/472/472 471/471/471 476/476/476
f 475/475/475 477/477/477 473/473/473
f 478/478/478 479/479/479 480/480/480
f 481/481/481 472/472/472 476/476/476
f 482/482/482 483/483/483 484/484/484
f 472/472/472 481/481/481 485/485/485
f 486/486/486 487/487/487 479/479/479
f 488/488/488 489/489/489 490/490/490
f 491/491/491 483/483/483 482/482/482
f 469/469/469 468/468/468 492/492/492
f 493/493/493 472/472/472 485/485/485
f 494/494/494 495/495/495 496/496/496
f 489/489/489 497/497/497 498/498/498
f 499/499/499 490/490/490 489/489/489
f 500/500/500 501/501/501 502/502/502
f 503/503/503 504/504/504 505/505/505
f 506/506/506 474/474/474 507/507/507
f 494/494/494 496/496/496 508/508/508
f 478/478/478 486/486/486 479/479/479
f 475/475/475 474/474/474 506/506/506
f 509/509/509 502/502/502 501/501/501
f 510/510/510 511/511/511 512/512/512
f 489/489/489 513/513/513 499/499/499
f 514/514/514 515/515/515 516/516/516
f 517/517/517 518/518/518 519/519/519
f 520/520/520 521/521/521 522/522/522
f 520/520/520 522/522/522 523/523/523
f 524/524/524 525/525/525 526/526/526
f 518/518/518 527/527/527 519/519/519
f 528/528/528 529/529/529 530/530/530
f 519/519/519 531/531/531 517/517/517
f 532/532/532 519/519/519 527/527/527
f 530/530/530 529/529/529 533/533/533
f 534/534/534 535/535/535 536/536/536
f 537/537/537 538/538/538 539/539/539
f 510/510/510 512/512/512 540/540/540
f 541/541/541 535/535/535 534/534/534
f 542/542/542 543/543/543 544/544/544
f 515/515/515 545/545/545 516/516/516
f 521/521/521 546/546/546 522/522/522
f 547/547/547 548/548/548 549/549/549
f 536/536/536 550/550/550 534/534/534
f 509/509/509 551/551/551 502/502/502
f 552/552/552 553/553/553 554/554/554
f 502/502/502 551/551/551 555/555/555
f 537/537/537 556/556/556 538/538/538
f 557/557/557 558/558/558 559/559/559
f 556/556/556 537/537/537 560/560/560
f 561/561/561 562/562/562 563/563/563
f 513/513/513 489/489/489 498/498/498
f 561/561/561 563/563/563 564/564/564
f 565/565/565 554/554/554 553/553/553
f 513/513/513 498/498/498 566/566/566
f 567/567/567 568/568/568 569/569/569
f 570/570/570 571/571/571 572/572/572
f 573/573/573 574/574/574 575/575/575
f 542/542/542 576/576/576 543/543/543
f 577/577/577 578/578/578 579/579/579
f 556/556/556 580/580/580 538/538/538
f 549/549/549 581/581/581 547/547/547
f 573/573/573 582/582/582 574/574/574
f 583/583/583 584/584/584 585/585/585
f 578/578/578 586/586/586 579/579/579
f 587/587/587 588/588/588 589/589/589
f 590/590/590 588/588/588 587/587/587
f 547/547/547 581/581/581 591/591/591
f 592/592/592 593/593/593 594/594/594
f 595/595/595 596/596/596 597/597/597
f 514/514/514 516/516/516 598/598/598
f 599/599/599 600/600/600 601/601/601
f 588/588/588 576/576/576 589/589/589
f 602/602/602 549/549/549 548/548/548
f 584/584/584 583/583/583 603/603/603
f 528/528/528 604/604/604 529/529/529
f 605/605/605 606/606/606 607/607/607
f 550/550/550 608/608/608 534/534/534
f 609/609/609 610/610/610 611/611/611
f 612/612/612 613/613/613 614/614/614
f 615/615/615 616/616/616 617/617/617
f 606/606/606 618/618/618 607/607/607
f 603/603/603 619/619/619 584/584/584
f 620/620/620 621/621/621 622/622/622
f 623/623/623 573/573/573 575/575/575
f 624/624/624 570/570/570 572/572/572
f 625/625/625 557/557/557 559/559/559
f 626/626/626 627/627/627 628/628/628
f 619/619/619 629/629/629 584/584/584
f 596/596/596 595/595/595 630/630/630
f 631/631/631 632/632/632 633/633/633
f 634/634/634 621/621/621 620/620/620
f 623/623/623 635/635/635 573/573/573
f 614/614/614 636/636/636 612/612/612
f 610/610/610 637/637/637 611/611/611
f 638/638/638 534/534/534 608/608/608
f 639/639/639 640/640/640 641/641/641
f 632/632/632 631/631/631 642/642/642
f 606/606/606 643/643/643 618/618/618
f 614/614/614 644/644/644 636/636/636
f 576/576/576 588/588/588 645/645/645
f 618/618/618 646/646/646 607/607/607
f 647/647/647 648/648/648 649/649/649
f 576/576/576 645/645/645 543/543/543
f 650/650/650 651/651/651 652/652/652
f 653/653/653 654/654/654 655/655/655
f 656/656/656 657/657/657 658/658/658
f 646/646/646 618/618/618 659/659/659
f 660/660/660 661/661/661 662/662/662
f 663/663/663 664/664/664 665/665/665
f 666/666/666 596/596/596 630/630/630
f 647/647/647 667/667/667 648/648/648
f 668/668/668 669/669/669 670/670/670
f 601/601/601 600/600/600 671/671/671
f 543/543/543 645/645/645 672/672/672
f 618/618/618 673/673/673 659/659/659
f 674/674/674 666/666/666 630/630/630
f 608/608/608 675/675/675 638/638/638
f 676/676/676 677/677/677 678/678/678
f 70/70/70 71/71/71 72/72/72
f 639/639/639 641/641/641 982/982/982
f 616/616/616 615/615/615 679/679/679
f 680/680/680 681/681/681 682/682/682
f 683/683/683 684/684/684 685/685/685
f 686/686/686 687/687/687 688/688/688
f 687/687/687 689/689/689 688/688/688
f 690/690/690 691/691/691 692/692/692
f 693/693/693 694/694/694 695/695/695
f 640/640/640 696/696/696 641/641/641
f 697/697/697 698/698/698 690/690/690
f 699/699/699 700/700/700 701/701/701
f 73/73/73 74/74/74 75/75/75
f 702/702/702 703/703/703 704/704/704
f 694/694/694 705/705/705 706/706/706
f 698/698/698 707/707/707 690/690/690
f 694/694/694 693/693/693 705/705/705
f 708/708/708 599/599/599 709/709/709
f 710/710/710 711/711/711 712/712/712
f 713/713/713 714/714/714 715/715/715
f 716/716/716 717/717/717 718/718/718
f 719/719/719 720/720/720 721/721/721
f 722/722/722 723/723/723 724/724/724
f 717/717/717 725/725/725 726/726/726
f 716/716/716 725/725/725 717/717/717
f 76/76/76 77/77/77 78/78/78
f 707/707/707 691/691/691 690/690/690
f 704/704/704 727/727/727 702/702/702
f 664/664/664 663/663/663 728/728/728
f 729/729/729 730/730/730 731/731/731
f 732/732/732 733/733/733 734/734/734
f 735/735/735 736/736/736 737/737/737
f 73/73/73 75/75/75 79/79/79
f 738/738/738 739/739/739 740/740/740
f 80/80/80 81/81/81 82/82/82
f 741/741/741 742/742/742 743/743/743
f 732/732/732 734/734/734 744/744/744
f 633/633/633 632/632/632 745/745/745
f 746/746/746 747/747/747 748/748/748
f 83/83/83 84/84/84 85/85/85
f 749/749/749 750/750/750 751/751/751
f 752/752/752 753/753/753 754/754/754
f 734/734/734 755/755/755 744/744/744
f 663/663/663 756/756/756 728/728/728
f 757/757/757 758/758/758 759/759/759
f 760/760/760 761/761/761 762/762/762
f 756/756/756 663/663/663 983/983/983
f 729/729/729 763/763/763 730/730/730
f 764/764/764 752/752/752 754/754/754
f 765/765/765 766/766/766 767/767/767
f 762/762/762 761/761/761 768/768/768
f 769/769/769 770/770/770 771/771/771
f 86/86/86 87/87/87 88/88/88
f 89/89/89 90/90/90 91/91/91
f 707/707/707 772/772/772 773/773/773
f 92/92/92 93/93/93 94/94/94
f 95/95/95 96/96/96 97/97/97
f 774/774/774 775/775/775 776/776/776
f 767/767/767 777/777/777 765/765/765
f 772/772/772 707/707/707 698/698/698
f 81/81/81 98/98/98 82/82/82
f 768/768/768 761/761/761 778/778/778
f 779/779/779 769/769/769 771/771/771
f 80/80/80 82/82/82 99/99/99
f 780/780/780 781/781/781 782/782/782
f 783/783/783 784/784/784 785/785/785
f 786/786/786 787/787/787 788/788/788
f 789/789/789 774/774/774 776/776/776
f 701/701/701 700/700/700 790/790/790
f 599/599/599 708/708/708 600/600/600
f 781/781/781 791/791/791 792/792/792
f 709/709/709 793/793/793 708/708/708
f 100/100/100 101/101/101 102/102/102
f 103/103/103 104/104/104 105/105/105
f 794/794/794 795/795/795 796/796/796
f 703/703/703 702/702/702 797/797/797
f 104/104/104 106/106/106 105/105/105
f 798/798/798 799/799/799 800/800/800
f 798/798/798 801/801/801 802/802/802
f 796/796/796 795/795/795 803/803/803
f 804/804/804 805/805/805 806/806/806
f 107/107/107 108/108/108 109/109/109
f 96/96/96 110/110/110 97/97/97
f 711/711/711 807/807/807 808/808/808
f 787/787/787 786/786/786 809/809/809
f 799/799/799 798/798/798 802/802/802
f 810/810/810 811/811/811 812/812/812
f 801/801/801 813/813/813 814/814/814
f 815/815/815 816/816/816 817/817/817
f 818/818/818 819/819/819 820/820/820
f 737/737/737 821/821/821 822/822/822
f 757/757/757 759/759/759 823/823/823
f 808/808/808 712/712/712 711/711/711
f 824/824/824 703/703/703 825/825/825
f 826/826/826 827/827/827 828/828/828
f 801/801/801 814/814/814 802/802/802
f 756/756/756 983/983/983 829/829/829
f 781/781/781 780/780/780 791/791/791
f 822/822/822 735/735/735 737/737/737
f 830/830/830 831/831/831 832/832/832
f 833/833/833 778/778/778 761/761/761
f 834/834/834 835/835/835 836/836/836
f 828/828/828 837/837/837 826/826/826
f 838/838/838 825/825/825 703/703/703
f 839/839/839 840/840/840 841/841/841
f 842/842/842 843/843/843 709/709/709
f 844/844/844 768/768/768 778/778/778
f 845/845/845 846/846/846 847/847/847
f 848/848/848 849/849/849 850/850/850
f 851/851/851 819/819/819 818/818/818
f 852/852/852 853/853/853 854/854/854
f 775/775/775 855/855/855 776/776/776
f 847/847/847 846/846/846 856/856/856
f 845/845/845 857/857/857 846/846/846
f 797/797/797 838/838/838 703/703/703
f 850/850/850 858/858/858 848/848/848
f 851/851/851 818/818/818 859/859/859
f 860/860/860 861/861/861 862/862/862
f 779/779/779 863/863/863 769/769/769
f 111/111/111 112/112/112 113/113/113
f 864/864/864 865/865/865 866/866/866
f 867/867/867 868/868/868 869/869/869
f 870/870/870 871/871/871 872/872/872
f 105/105/105 114/114/114 103/103/103
f 855/855/855 775/775/775 873/873/873
f 874/874/874 862/862/862 861/861/861
f 875/875/875 876/876/876 877/877/877
f 797/797/797 878/878/878 838/838/838
f 115/115/115 116/116/116 117/117/117
f 856/856/856 870/870/870 872/872/872
f 101/101/101 118/118/118 102/102/102
f 852/852/852 854/854/854 879/879/879
f 119/119/119 120/120/120 121/121/121
f 880/880/880 881/881/881 882/882/882
f 883/883/883 884/884/884 885/885/885
f 886/886/886 887/887/887 821/821/821
f 856/856/856 872/872/872 847/847/847
f 822/822/822 821/821/821 887/887/887
f 843/843/843 793/793/793 709/709/709
f 888/888/888 889/889/889 890/890/890
f 891/891/891 892/892/892 893/893/893
f 894/894/894 803/803/803 795/795/795
f 88/88/88 122/122/122 86/86/86
f 114/114/114 105/105/105 123/123/123
f 803/803/803 894/894/894 895/895/895
f 896/896/896 897/897/897 898/898/898
f 899/899/899 882/882/882 881/881/881
f 861/861/861 860/860/860 900/900/900
f 901/901/901 902/902/902 903/903/903
f 124/124/124 122/122/122 88/88/88
f 904/904/904 905/905/905 906/906/906
f 907/907/907 908/908/908 909/909/909
f 901/901/901 903/903/903 910/910/910
f 911/911/911 838/838/838 878/878/878
f 125/125/125 126/126/126 127/127/127
f 912/912/912 913/913/913 914/914/914
f 128/128/128 129/129/129 130/130/130
f 915/915/915 907/907/907 909/909/909
f 916/916/916 917/917/917 918/918/918
f 907/907/907 915/915/915 873/873/873
f 919/919/919 920/920/920 921/921/921
f 922/922/922 916/916/916 918/918/918
f 913/913/913 912/912/912 923/923/923
f 924/924/924 925/925/925 926/926/926
f 927/927/927 928/928/928 929/929/929
f 930/930/930 893/893/893 892/892/892
f 931/931/931 864/864/864 866/866/866
f 855/855/855 873/873/873 915/915/915
f 932/932/932 933/933/933 934/934/934
f 904/904/904 935/935/935 936/936/936
f 131/131/131 132/132/132 133/133/133
f 906/906/906 905/905/905 937/937/937
f 134/134/134 135/135/135 136/136/136
f 123/123/123 105/105/105 137/137/137
f 938/938/938 939/939/939 940/940/940
f 138/138/138 139/139/139 101/101/101
f 941/941/941 855/855/855 942/942/942
f 101/101/101 139/139/139 140/140/140
f 943/943/943 861/861/861 900/900/900
f 126/126/126 125/125/125 141/141/141
f 935/935/935 904/904/904 906/906/906
f 136/136/136 135/135/135 142/142/142
f 944/944/944 945/945/945 946/946/946
f 124/124/124 143/143/143 122/122/122
f 947/947/947 948/948/948 949/949/949
f 950/950/950 951/951/951 952/952/952
f 948/948/948 947/947/947 953/953/953
f 838/838/838 911/911/911 954/954/954
f 838/838/838 954/954/954 955/955/955
f 915/915/915 942/942/942 855/855/855
f 900/900/900 956/956/956 943/943/943
f 957/957/957 958/958/958 959/959/959
f 101/101/101 140/140/140 118/118/118
f 945/945/945 944/944/944 960/960/960
f 142/142/142 135/135/135 144/144/144
f 145/145/145 140/140/140 139/139/139
f 961/961/961 962/962/962 963/963/963
f 964/964/964 965/965/965 966/966/966
f 947/947/947 967/967/967 953/953/953
f 133/133/133 132/132/132 146/146/146
f 147/147/147 148/148/148 149/149/149
f 148/148/148 150/150/150 149/149/149
f 968/968/968 961/961/961 963/963/963
f 964/964/964 966/966/966 969/969/969
f 139/139/139 138/138/138 151/151/151
f 915/915/915 970/970/970 942/942/942
f 125/125/125 152/152/152 141/141/141
f 153/153/153 154/154/154 155/155/155
f 156/156/156 118/118/118 140/140/140
f 125/125/125 157/157/157 152/152/152
f 123/123/123 137/137/137 158/158/158
f 151/151/151 138/138/138 159/159/159
f 971/971/971 972/972/972 973/973/973
f 160/160/160 161/161/161 162/162/162
f 974/974/974 975/975/975 976/976/976
f 943/943/943 956/956/956 977/977/977
f 163/163/163 164/164/164 165/165/165
f 159/159/159 463/463/463 464/464/464
f 943/943/943 977/977/977 978/978/978
f 140/140/140 145/145/145 166/166/166
f 979/979/979 977/977/977 956/956/956
f 977/977/977 979/979/979 980/980/980
f 971/971/971 981/981/981 972/972/972
f 167/167/167 139/139/139 151/151/151
f 168/168/168 169/169/169 170/170/170
f 140/140/140 166/166/166 156/156/156
f 171/171/171 165/165/165 164/164/164
f 172/172/172 173/173/173 174/174/174
f 145/145/145 175/175/175 166/166/166
f 176/176/176 166/166/166 175/175/175
f 168/168/168 170/170/170 177/177/177
f 178/178/178 179/179/179 180/180/180
f 181/181/181 182/182/182 183/183/183
f 184/184/184 185/185/185 186/186/186
f 180/180/180 187/187/187 178/178/178
f 188/188/188 189/189/189 190/190/190
f 184/184/184 191/191/191 185/185/185
f 181/181/181 192/192/192 182/182/182
f 137/137/137 193/193/193 158/158/158
f 159/159/159 464/464/464 151/151/151
f 178/178/178 187/187/187 194/194/194
f 175/175/175 145/145/145 195/195/195
f 192/192/192 196/196/196 182/182/182
f 167/167/167 151/151/151 197/197/197
f 198/198/198 167/167/167 197/197/197
f 185/185/185 191/191/191 199/199/199
f 200/200/200 182/182/182 196/196/196
f 185/185/185 199/199/199 201/201/201
f 202/202/202 203/203/203 204/204/204
f 205/205/205 206/206/206 207/207/207
f 208/208/208 165/165/165 171/171/171
f 209/209/209 210/210/210 211/211/211
f 193/193/193 212/212/212 158/158/158
f 213/213/213 160/160/160 162/162/162
f 195/195/195 214/214/214 175/175/175
f 215/215/215 216/216/216 217/217/217
f 218/218/218 219/219/219 220/220/220
f 221/221/221 222/222/222 223/223/223
f 189/189/189 224/224/224 190/190/190
f 196/196/196 225/225/225 226/226/226
f 227/227/227 228/228/228 229/229/229
f 464/464/464 230/230/230 151/151/151
f 196/196/196 226/226/226 200/200/200
f 231/231/231 232/232/232 233/233/233
f 234/234/234 235/235/235 236/236/236
f 237/237/237 238/238/238 239/239/239
f 240/240/240 241/241/241 242/242/242
f 243/243/243 244/244/244 245/245/245
f 246/246/246 247/247/247 248/248/248
f 208/208/208 249/249/249 165/165/165
f 242/242/242 241/241/241 250/250/250
f 177/177/177 251/251/251 168/168/168
f 252/252/252 253/253/253 254/254/254
f 255/255/255 254/254/254 253/253/253
f 256/256/256 257/257/257 258/258/258
f 259/259/259 260/260/260 261/261/261
f 262/262/262 246/246/246 263/263/263
f 264/264/264 238/238/238 237/237/237
f 265/265/265 266/266/266 246/246/246
f 267/267/267 268/268/268 269/269/269
f 270/270/270 271/271/271 272/272/272
f 265/265/265 246/246/246 248/248/248
f 272/272/272 271/271/271 273/273/273
f 274/274/274 275/275/275 276/276/276
f 277/277/277 275/275/275 274/274/274
f 278/278/278 279/279/279 280/280/280
f 281/281/281 282/282/282 266/266/266
f 151/151/151 230/230/230 197/197/197
f 283/283/283 198/198/198 197/197/197
f 284/284/284 285/285/285 286/286/286
f 287/287/287 288/288/288 289/289/289
f 279/279/279 290/290/290 280/280/280
f 291/291/291 292/292/292 293/293/293
f 294/294/294 295/295/295 296/296/296
f 297/297/297 298/298/298 299/299/299
f 465/465/465 466/466/466 300/300/300
f 197/197/197 230/230/230 301/301/301
f 302/302/302 303/303/303 304/304/304
f 305/305/305 306/306/306 307/307/307
f 290/290/290 279/279/279 308/308/308
f 309/309/309 310/310/310 311/311/311
f 312/312/312 313/313/313 314/314/314
f 315/315/315 305/305/305 307/307/307
f 246/246/246 266/266/266 263/263/263
f 316/316/316 317/317/317 318/318/318
f 319/319/319 251/251/251 177/177/177
f 320/320/320 321/321/321 322/322/322
f 466/466/466 323/323/323 300/300/300
f 324/324/324 325/325/325 326/326/326
f 327/327/327 328/328/328 329/329/329
f 325/325/325 324/324/324 330/330/330
f 299/299/299 298/298/298 331/331/331
f 317/317/317 332/332/332 318/318/318
f 245/245/245 333/333/333 243/243/243
f 330/330/330 324/324/324 334/334/334
f 466/466/466 335/335/335 323/323/323
f 336/336/336 243/243/243 333/333/333
f 337/337/337 338/338/338 339/339/339
f 340/340/340 341/341/341 342/342/342
f 343/343/343 344/344/344 345/345/345
f 346/346/346 266/266/266 282/282/282
f 347/347/347 348/348/348 349/349/349
f 350/350/350 251/251/251 319/319/319
f 351/351/351 352/352/352 353/353/353
f 263/263/263 266/266/266 346/346/346
f 354/354/354 355/355/355 356/356/356
f 355/355/355 354/354/354 357/357/357
f 358/358/358 359/359/359 360/360/360
f 361/361/361 362/362/362 363/363/363
f 364/364/364 359/359/359 358/358/358
f 365/365/365 366/366/366 338/338/338
f 338/338/338 337/337/337 367/367/367
f 368/368/368 369/369/369 370/370/370
f 367/367/367 371/371/371 338/338/338
f 366/366/366 365/365/365 372/372/372
f 335/335/335 373/373/373 374/374/374
f 323/323/323 335/335/335 374/374/374
f 375/375/375 376/376/376 377/377/377
f 378/378/378 379/379/379 380/380/380
f 355/355/355 357/357/357 383/383/383
f 384/384/384 385/385/385 291/291/291
f 385/385/385 292/292/292 291/291/291
f 386/386/386 387/387/387 388/388/388
f 389/389/389 390/390/390 391/391/391
f 382/382/382 381/381/381 392/392/392
f 365/365/365 338/338/338 393/393/393
f 379/379/379 378/378/378 394/394/394
f 371/371/371 393/393/393 338/338/338
f 395/395/395 323/323/323 374/374/374
f 305/305/305 315/315/315 396/396/396
f 362/362/362 397/397/397 363/363/363
f 398/398/398 362/362/362 399/399/399
f 397/397/397 362/362/362 398/398/398
f 400/400/400 401/401/401 402/402/402
f 403/403/403 404/404/404 405/405/405
f 406/406/406 407/407/407 408/408/408
f 388/388/388 387/387/387 409/409/409
f 410/410/410 411/411/411 412/412/412
f 413/413/413 414/414/414 387/387/387
f 414/414/414 415/415/415 409/409/409
f 292/292/292 385/385/385 416/416/416
f 378/378/378 417/417/417 394/394/394
f 418/418/418 419/419/419 420/420/420
f 418/418/418 421/421/421 419/419/419
f 415/415/415 422/422/422 423/423/423
f 414/414/414 413/413/413 422/422/422
f 420/420/420 424/424/424 418/418/418
f 409/409/409 387/387/387 414/414/414
f 422/422/422 415/415/415 414/414/414
f 399/399/399 425/425/425 398/398/398
f 10/10/10 11/11/11 12/12/12
f 427/427/427 428/428/428 429/429/429
f 429/429/429 430/430/430 427/427/427
f 431/431/431 432/432/432 433/433/433
f 420/420/420 434/434/434 424/424/424
f 348/348/348 435/435/435 426/426/426
f 436/436/436 437/437/437 438/438/438
f 395/395/395 374/374/374 439/439/439
f 13/13/13 14/14/14 15/15/15
f 440/440/440 441/441/441 442/442/442
f 437/437/437 443/443/443 438/438/438
f 15/15/15 17/17/17 16/16/16
f 18/18/18 19/19/19 20/20/20
f 437/437/437 444/444/444 443/443/443
f 442/442/442 441/441/441 445/445/445
f 21/21/21 22/22/22 23/23/23
f 24/24/24 25/25/25 26/26/26
f 446/446/446 447/447/447 448/448/448
f 27/27/27 28/28/28 29/29/29
f 448/448/448 449/449/449 446/446/446
f 30/30/30 31/31/31 32/32/32
f 11/11/11 34/34/34 12/12/12
f 35/35/35 36/36/36 37/37/37
f 38/38/38 39/39/39 33/33/33
f 452/452/452 451/451/451 450/450/450
f 40/40/40 41/41/41 42/42/42
f 23/23/23 43/43/43 21/21/21
f 44/44/44 45/45/45 46/46/46
f 453/453/453 454/454/454 455/455/455
f 1/1/1 2/2/2 3/3/3
f 47/47/47 48/48/48 21/21/21
f 456/456/456 457/457/457 458/458/458
f 49/49/49 50/50/50 51/51/51
f 23/23/23 52/52/52 43/43/43
f 459/459/459 455/455/455 454/454/454
f 460/460/460 461/461/461 462/462/462
f 53/53/53 54/54/54 55/55/55
f 43/43/43 47/47/47 21/21/21
f 4/4/4 5/5/5 6/6/6
f 56/56/56 57/57/57 58/58/58
f 36/36/36 59/59/59 37/37/37
f 7/7/7 8/8/8 9/9/9
f 60/60/60 61/61/61 62/62/62
f 63/63/63 64/64/64 65/65/65
f 47/47/47 43/43/43 66/66/66
f 67/67/67 68/68/68 69/69/69
f 984/984/984 985/985/985 986/986/986
f 984/984/984 986/986/986 985/985/985
f 984/984/984 986/986/986 987/987/987
f 984/984/984 987/987/987 986/986/986
f 984/984/984 987/987/987 988/988/988
f 984/984/984 988/988/988 987/987/987
f 984/984/984 988/988/988 989/989/989
f 984/984/984 989/989/989 988/988/988
f 984/984/984 989/989/989 990/990/990
f 984/984/984 990/990/990 989/989/989
f 984/984/984 990/990/990 991/991/991
f 984/984/984 991/991/991 990/990/990
f 984/984/984 991/991/991 992/992/992
f 984/984/984 992/992/992 991/991/991
f 984/984/984 992/992/992 993/993/993
f 984/984/984 993/993/993 992/992/992
f 984/984/984 993/993/993 994/994/994
f 984/984/984 994/994/994 993/993/993
f 984/984/984 994/994/994 995/995/995
f 984/984/984 995/995/995 994/994/994
f 984/984/984 995/995/995 996/996/996
f 984/984/984 996/996/996 995/995/995
f 984/984/984 996/996/996 997/997/997
f 984/984/984 997/997/997 996/996/996
f 984/984/984 997/997/997 998/998/998
f 984/984/984 998/998/998 997/997/997
f 984/984/984 998/998/998 999/999/999
f 984/984/984 999/999/999 998/998/998
f 984/984/984 999/999/999 1000/1000/1000
f 984/984/984 1000/1000/1000 999/999/999
f 984/984/984 1000/1000/1000 1001/1001/1001
f 984/984/984 1001/1001/1001 1000/1000/1000
f 984/984/984 1001/1001/1001 1002/1002/1002
f 984/984/984 1002/1002/1002 1001/1001/1001
f 984/984/984 1002/1002/1002 1003/1003/1003
f 984/984/984 1003/1003/1003 1002/1002/1002
f 984/984/984 1003/1003/1003 1004/1004/1004
f 984/984/984 1004/1004/1004 1003/1003/1003
f 984/984/984 1004/1004/1004 1005/1005/1005
f 984/984/984 1005/1005/1005 1004/1004/1004
f 984/984/984 1005/1005/1005 1006/1006/1006
f 984/984/984 1006/1006/1006 1005/1005/1005
f 984/984/984 1006/1006/1006 1007/1007/1007
f 984/984/984 1007/1007/1007 1006/1006/1006
f 984/984/984 1007/1007/1007 1008/1008/1008
f 984/984/984 1008/1008/1008 1007/1007/1007
f 984/984/984 1008/1008/1008 1009/1009/1009
f 984/984/984 1009/1009/1009 1008/1008/1008
f 984/984/984 1009/1009/1009 1010/1010/1010
f 984/984/984 1010/1010/1010 1009/1009/1009
f 984/984/984 1010/1010/1010 1011/1011/1011
f 984/984/984 1011/1011/1011 1010/1010/1010
f 984/984/984 1011/1011/1011 985/985/985
f 984/984/984 985/985/985 1011/1011/1011
