o leg_right_3
v 2.03993 2.42215 1.68524
v 2.00180 2.41270 1.76569
v 2.07722 2.38377 1.72466
v 2.06047 2.25766 1.64014
v 2.07722 2.38377 1.72466
v 2.02711 2.31128 1.74664
v 2.02711 2.31128 1.74664
v 2.00180 2.41270 1.76569
v 2.05639 2.38118 1.95300
v 2.03151 2.35850 1.61640
v 2.03993 2.42215 1.68524
v 2.07722 2.38377 1.72466
v 2.03161 2.24619 1.81539
v 2.02711 2.31128 1.74664
v 2.07722 2.38377 1.72466
v 2.00180 2.41270 1.76569
v 2.06047 2.25766 1.64014
v 2.05639 2.38118 1.95300
v 1.97026 2.27727 2.01803
v 2.04714 2.32952 1.95462
v 1.97026 2.27727 2.01803
v 2.13437 2.27825 1.98158
v 2.04714 2.32952 1.95462
v 2.04714 2.32952 1.95462
v 1.94893 2.26633 1.76851
v 1.96040 2.16913 1.64304
v 2.03161 2.24619 1.81539
v 1.94893 2.26633 1.76851
v 2.02711 2.31128 1.74664
v 2.03151 2.35850 1.61640
v 2.00180 2.41270 1.76569
v 2.03993 2.42215 1.68524
v 1.93250 2.41517 1.58122
v 2.00180 2.41270 1.76569
v 2.03151 2.35850 1.61640
v 2.06047 2.25766 1.64014
v 1.93250 2.41517 1.58122
v 2.03151 2.35850 1.61640
v 1.97026 2.27727 2.01803
v 1.74763 2.19276 1.86323
v 1.85105 2.17436 2.05815
v 2.08727 2.10358 2.12557
v 1.85105 2.17436 2.05815
v 1.93350 2.33506 1.48802
v 1.93250 2.41517 1.58122
v 2.06047 2.25766 1.64014
v 2.05604 2.13465 2.18286
v 1.85105 2.17436 2.05815
v 1.85272 2.17308 2.16030
v 2.06047 2.25766 1.64014
v 1.96040 2.16913 1.64304
v 1.78285 2.13975 1.56428
v 1.91459 2.42752 1.41611
v 1.93350 2.33506 1.48802
v 1.50327 2.35569 1.26903
v 1.88137 2.08264 1.73776
v 1.69355 2.07442 1.87468
v 1.78792 2.09913 1.81479
v 1.46040 2.82629 1.41835
v 1.93250 2.41517 1.58122
v 1.64295 2.72269 1.38727
v 1.78285 2.13975 1.56428
v 1.96040 2.16913 1.64304
v 1.91734 2.19304 1.71119
v 1.73732 2.02096 2.12440
v 1.87538 2.01885 2.23634
v 1.75951 2.08974 2.19150
v 1.79132 2.16227 1.62558
v 1.91734 2.19304 1.71119
v 1.88137 2.08264 1.73776
v 1.79132 2.16227 1.62558
v 1.85105 2.17436 2.05815
v 1.75951 2.08974 2.19150
v 1.85272 2.17308 2.16030
v 1.85272 2.17308 2.16030
v 1.75951 2.08974 2.19150
v 1.87538 2.01885 2.23634
v 1.64295 2.72269 1.38727
v 1.93250 2.41517 1.58122
v 1.91459 2.42752 1.41611
v 1.72941 2.10345 1.57164
v 1.71708 2.64160 1.27701
v 1.78140 2.07689 1.76159
v 1.88137 2.08264 1.73776
v 1.78792 2.09913 1.81479
v 1.46040 2.82629 1.41835
v 1.64860 2.36107 1.86668
v 1.74763 2.19276 1.86323
v 1.97026 2.27727 2.01803
v 1.71708 2.64160 1.27701
v 1.91459 2.42752 1.41611
v 1.93350 2.33506 1.48802
v 1.70913 2.56809 1.68768
v 2.05639 2.38118 1.95300
v 2.00180 2.41270 1.76569
v 1.70913 2.56809 1.68768
v 2.00180 2.41270 1.76569
v 1.46040 2.82629 1.41835
v 2.05639 2.38118 1.95300
v 1.64860 2.36107 1.86668
v 1.97026 2.27727 2.01803
v 1.72845 2.16104 1.67102
v 1.74763 2.19276 1.86323
v 1.71453 2.03546 1.60298
v 1.71453 2.03546 1.60298
v 1.50114 2.44569 1.75974
v 1.78140 2.07689 1.76159
v 1.78792 2.09913 1.81479
v 1.72845 2.16104 1.67102
v 1.79132 2.16227 1.62558
v 1.72941 2.10345 1.57164
v 1.68999 1.99239 2.02092
v 1.87084 1.82975 1.79197
v 1.66401 1.99246 1.98767
v 1.73732 2.02096 2.12440
v 1.75951 2.08974 2.19150
v 1.68999 1.99239 2.02092
v 1.79605 1.88251 1.87660
v 1.68999 1.99239 2.02092
v 1.66401 1.99246 1.98767
v 1.68999 1.99239 2.02092
v 1.66401 1.99246 1.98767
v 1.78140 2.07689 1.76159
v 1.62913 2.13811 1.64839
v 1.71453 2.03546 1.60298
v 1.56648 2.64436 1.64527
v 1.69355 2.07442 1.87468
v 1.62913 2.13811 1.64839
v 1.62913 2.13811 1.64839
v 1.78140 2.07689 1.76159
v 1.72845 2.16104 1.67102
v 1.64175 2.61606 1.27389
v 1.64295 2.72269 1.38727
v 1.71708 2.64160 1.27701
v 1.71489 1.87536 2.25675
v 1.73732 2.02096 2.12440
v 1.68999 1.99239 2.02092
v 1.72845 2.16104 1.67102
v 1.50327 2.35569 1.26903
v 1.78285 2.13975 1.56428
v 1.56648 2.64436 1.64527
v 1.62913 2.13811 1.64839
v 1.72941 2.10345 1.57164
v 1.71453 2.03546 1.60298
v 1.56648 2.64436 1.64527
v 1.49228 2.33969 1.67214
v 1.64175 2.61606 1.27389
v 1.60056 2.72590 1.25791
v 1.64295 2.72269 1.38727
v 1.55836 1.62670 2.28343
v 1.78140 2.07689 1.76159
v 1.41055 2.41607 1.51007
v 1.60056 2.72590 1.25791
v 1.64175 2.61606 1.27389
v 1.49100 2.52683 1.19823
v 1.71708 2.64160 1.27701
v 1.49100 2.52683 1.19823
v 1.49100 2.52683 1.19823
v 1.50102 2.78752 1.22144
v 1.46040 2.82629 1.41835
v 1.64295 2.72269 1.38727
v 1.45955 2.42980 1.20847
v 1.50114 2.44569 1.75974
v 1.46040 2.82629 1.41835
v 1.48913 2.54995 1.64111
v 1.56648 2.64436 1.64527
v 1.60056 2.72590 1.25791
v 1.43114 2.51277 1.67370
v 1.56648 2.64436 1.64527
v 1.48913 2.54995 1.64111
v 1.45147 2.61229 1.17634
v 1.43114 2.51277 1.67370
v 1.50102 2.78752 1.22144
v 1.40249 2.45907 1.57449
v 1.30626 2.75303 1.41050
v 1.43114 2.51277 1.67370
v 1.44739 2.41240 1.28919
v 1.45955 2.42980 1.20847
v 1.40249 2.45907 1.57449
v 1.45955 2.42980 1.20847
v 1.44739 2.41240 1.28919
v 1.49100 2.52683 1.19823
v 1.50102 2.78752 1.22144
v 1.45147 2.61229 1.17634
v 1.43166 2.64828 0.94139
v 1.45697 2.54924 1.08426
v 1.42561 2.83795 1.27664
v 1.43166 2.64828 0.94139
v 1.43676 2.91773 1.20295
v 1.50102 2.78752 1.22144
v 1.50102 2.78752 1.22144
v 1.43676 2.91773 1.20295
v 1.42561 2.83795 1.27664
v 1.44739 2.41240 1.28919
v 1.45147 2.61229 1.17634
v 1.49100 2.52683 1.19823
v 1.41055 2.41607 1.51007
v 1.40249 2.45907 1.57449
v 1.44739 2.41240 1.28919
v 1.26344 2.88808 1.37918
v 1.48913 2.54995 1.64111
v 1.30626 2.75303 1.41050
v 1.40249 2.45907 1.57449
v 1.40249 2.45907 1.57449
v 1.18960 2.63751 1.33035
v 1.44739 2.41240 1.28919
v 1.45147 2.61229 1.17634
v 1.33920 2.49048 1.14883
v 1.45697 2.54924 1.08426
v 1.29795 2.81272 0.89797
v 1.19343 2.53272 1.01128
v 1.13923 2.71186 0.94939
v 1.43676 2.91773 1.20295
v 1.28569 2.98924 1.11642
v 1.42561 2.83795 1.27664
v 1.29795 2.81272 0.89797
v 1.44739 2.41240 1.28919
v 1.33920 2.49048 1.14883
v 1.45147 2.61229 1.17634
v 1.18960 2.63751 1.33035
v 1.44739 2.41240 1.28919
v 1.18960 2.63751 1.33035
v 1.26978 2.55201 1.29750
v 1.33920 2.49048 1.14883
v 1.45697 2.54924 1.08426
v 1.19343 2.53272 1.01128
v 1.43166 2.64828 0.94139
v 1.33920 2.49048 1.14883
v 1.26176 2.45708 1.15023
v 1.43166 2.64828 0.94139
v 1.30626 2.75303 1.41050
v 1.26344 2.88808 1.37918
v 1.31654 2.79154 1.45561
v 1.21955 2.94483 1.14077
v 1.28569 2.98924 1.11642
v 1.46040 2.82629 1.41835
v 1.13428 3.00178 1.19724
v 1.26344 2.88808 1.37918
v 1.29795 2.81272 0.89797
v 1.21955 2.94483 1.14077
v 1.28569 2.98924 1.11642
v 1.13428 3.00178 1.19724
v 1.26176 2.45708 1.15023
v 1.33920 2.49048 1.14883
v 1.26978 2.55201 1.29750
v 1.19634 2.51173 1.27928
v 1.13923 2.71186 0.94939
v 1.31654 2.79154 1.45561
v 1.10872 2.70358 1.47085
v 1.30626 2.75303 1.41050
v 1.26344 2.88808 1.37918
v 1.13428 3.00178 1.19724
v 1.08969 2.79379 1.30911
v 1.21955 2.94483 1.14077
v 1.13923 2.71186 0.94939
v 1.13036 2.81868 1.02272
v 1.21955 2.94483 1.14077
v 1.26176 2.45708 1.15023
v 1.19634 2.51173 1.27928
v 1.10435 2.58581 1.29257
v 1.13036 2.81868 1.02272
v 1.17043 2.94192 1.05191
v 1.21955 2.94483 1.14077
v 1.19343 2.53272 1.01128
v 1.26978 2.55201 1.29750
v 1.10435 2.58581 1.29257
v 1.19634 2.51173 1.27928
v 1.18960 2.63751 1.33035
v 1.18960 2.63751 1.33035
v 1.17043 2.94192 1.05191
v 1.13036 2.81868 1.02272
v 1.09729 2.88444 1.03078
v 1.17043 2.94192 1.05191
v 1.10435 2.58581 1.29257
v 1.08969 2.79379 1.30911
v 1.04075 2.79312 1.39477
v 1.26344 2.88808 1.37918
v 1.09882 2.69753 1.08063
v 1.13923 2.71186 0.94939
v 1.31654 2.79154 1.45561
v 1.04075 2.79312 1.39477
v 1.10872 2.70358 1.47085
v 1.26344 2.88808 1.37918
v 1.13036 2.81868 1.02272
v 1.13428 3.00178 1.19724
v 1.17043 2.94192 1.05191
v 1.09729 2.88444 1.03078
v 1.09457 2.77139 1.26604
v 1.13036 2.81868 1.02272
v 1.05502 2.91294 1.20269
v 1.09729 2.88444 1.03078
v 1.05502 2.91294 1.20269
v 1.04706 2.68335 1.08335
v 1.09882 2.69753 1.08063
v 1.02907 2.74097 1.24364
v 1.02907 2.74097 1.24364
v 1.04075 2.79312 1.39477
v 1.10872 2.70358 1.47085
v 1.13036 2.81868 1.02272
v 1.09882 2.69753 1.08063
v 1.04706 2.68335 1.08335
v 0.99930 2.80455 1.02767
v 1.05502 2.91294 1.20269
v 1.09457 2.77139 1.26604
v 1.08969 2.79379 1.30911
v 0.99930 2.80455 1.02767
v 1.05502 2.91294 1.20269
v 1.13036 2.81868 1.02272
v 1.02907 2.74097 1.24364
v 0.94117 2.74205 1.25027
v 0.87625 2.85802 1.22948
v 1.04706 2.68335 1.08335
v 0.94117 2.74205 1.25027
v 0.99930 2.80455 1.02767
v 0.94117 2.74205 1.25027
v 1.08969 2.79379 1.30911
v 0.87625 2.85802 1.22948
v 0.87625 2.85802 1.22948
v 0.87625 2.85802 1.22948
v 1.97026 2.27727 2.01803
v 1.69355 2.07442 1.87468
v 2.23145 2.06645 1.83969
v 2.14708 1.82947 1.97068
v 2.15009 1.91749 1.89223
v 1.99845 2.11779 1.62800
v 2.14708 1.82947 1.97068
v 2.23145 2.06645 1.83969
v 2.04879 2.00059 2.13164
v 2.13437 2.27825 1.98158
v 2.23145 2.06645 1.83969
v 2.04714 2.32952 1.95462
v 2.13437 2.27825 1.98158
v 2.04879 2.00059 2.13164
v 2.13437 2.27825 1.98158
v 2.08727 2.10358 2.12557
v 2.08466 1.77384 2.03546
v 2.05458 1.77719 1.94823
v 2.02546 1.89925 1.79835
v 1.99845 2.11779 1.62800
v 1.94893 2.26633 1.76851
v 2.08466 1.77384 2.03546
v 2.08727 2.10358 2.12557
v 2.13437 2.27825 1.98158
v 1.97026 2.27727 2.01803
v 2.02366 2.03578 2.24086
v 2.05604 2.13465 2.18286
v 2.05458 1.77719 1.94823
v 2.08466 1.77384 2.03546
v 1.87625 1.83777 1.85256
v 2.03161 2.24619 1.81539
v 1.97013 1.97382 2.20277
v 1.97013 1.97382 2.20277
v 2.02366 2.03578 2.24086
v 1.87538 2.01885 2.23634
v 1.96040 2.16913 1.64304
v 1.87084 1.82975 1.79197
v 2.04879 2.00059 2.13164
v 2.02366 2.03578 2.24086
v 1.97013 1.97382 2.20277
v 2.05604 2.13465 2.18286
v 2.08727 2.10358 2.12557
v 1.85105 2.17436 2.05815
v 1.99845 2.11779 1.62800
v 1.91734 2.19304 1.71119
v 1.96040 2.16913 1.64304
v 1.88137 2.08264 1.73776
v 1.99845 2.11779 1.62800
v 1.87084 1.82975 1.79197
v 1.84579 1.63147 2.40183
v 1.84686 1.22976 2.37984
v 2.02366 2.03578 2.24086
v 2.05604 2.13465 2.18286
v 1.85272 2.17308 2.16030
v 1.91734 2.19304 1.71119
v 1.87538 2.01885 2.23634
v 1.69355 2.07442 1.87468
v 1.87084 1.82975 1.79197
v 1.97013 1.97382 2.20277
v 1.87538 2.01885 2.23634
v 1.73732 2.02096 2.12440
v 1.87625 1.83777 1.85256
v 2.08466 1.77384 2.03546
v 1.59787 1.29779 2.20179
v 1.84686 1.22976 2.37984
v 1.79605 1.88251 1.87660
v 1.73732 2.02096 2.12440
v 1.71489 1.87536 2.25675
v 1.97013 1.97382 2.20277
v 1.70092 1.22574 2.64046
v 1.84579 1.63147 2.40183
v 1.87625 1.83777 1.85256
v 1.59787 1.29779 2.20179
v 1.79605 1.88251 1.87660
v 1.79605 1.88251 1.87660
v 1.66401 1.99246 1.98767
v 1.58170 1.42102 2.54691
v 1.60164 1.61019 2.32061
v 1.71489 1.87536 2.25675
v 1.55836 1.62670 2.28343
v 1.51001 1.43344 2.52714
v 1.71489 1.87536 2.25675
v 1.60164 1.61019 2.32061
v 1.79605 1.88251 1.87660
v 1.55836 1.62670 2.28343
v 1.68999 1.99239 2.02092
v 1.59787 1.29779 2.20179
v 1.87084 1.82975 1.79197
v 1.90720 0.16639 2.58128
v 2.04390 0.01730 2.40894
v 1.99472 0.33400 2.46687
v 1.90850 0.05001 2.53662
v 2.04390 0.01730 2.40894
v 1.91644 0.01736 2.31445
v 1.91849 0.11718 2.31928
v 1.90850 0.05001 2.53662
v 1.81344 0.05000 2.46715
v 1.91644 0.01736 2.31445
v 1.99472 0.33400 2.46687
v 2.04390 0.01730 2.40894
v 1.90698 0.23526 2.58199
v 1.92182 0.33837 2.55724
v 1.87516 0.35051 2.36807
v 1.97309 0.13110 2.26725
v 1.94943 0.35051 2.28987
v 1.97309 0.13110 2.26725
v 1.91849 0.11718 2.31928
v 1.87170 0.11991 2.20267
v 1.87516 0.35051 2.36807
v 1.85963 0.34676 2.21947
v 1.97309 0.13110 2.26725
v 1.87170 0.11991 2.20267
v 1.91849 0.11718 2.31928
v 1.85963 0.34676 2.21947
v 1.87516 0.35051 2.36807
v 1.94943 0.35051 2.28987
v 1.84084 0.12218 2.40694
v 1.91849 0.11718 2.31928
v 1.91644 0.01736 2.31445
v 1.94943 0.35051 2.28987
v 1.90698 0.23526 2.58199
v 1.92182 0.33837 2.55724
v 1.87587 0.39250 2.55903
v 1.99472 0.33400 2.46687
v 1.71566 0.37156 2.48914
v 1.92182 0.33837 2.55724
v 1.84084 0.12218 2.40694
v 1.77531 0.12341 2.34117
v 1.74356 0.36698 2.29776
v 1.85963 0.34676 2.21947
v 1.87170 0.11991 2.20267
v 1.77531 0.12341 2.34117
v 1.81344 0.05000 2.46715
v 1.76397 0.40029 2.47864
v 1.87587 0.39250 2.55903
v 1.92182 0.33837 2.55724
v 1.87587 0.39250 2.55903
v 1.66148 0.40631 2.56411
v 1.82977 0.36570 2.65357
v 1.81029 0.16366 2.46873
v 1.81344 0.05000 2.46715
v 1.90720 0.16639 2.58128
v 1.82977 0.36570 2.65357
v 1.83304 0.22494 2.65357
v 1.75316 0.19596 2.46055
v 1.81029 0.16366 2.46873
v 1.90720 0.16639 2.58128
v 1.81029 0.16366 2.46873
v 1.76397 0.40029 2.47864
v 1.92182 0.33837 2.55724
v 1.71566 0.37156 2.48914
v 1.81029 0.16366 2.46873
v 1.79516 0.19126 2.41114
v 1.84084 0.12218 2.40694
v 1.76397 0.40029 2.47864
v 1.74356 0.36698 2.29776
v 1.90698 0.23526 2.58199
v 1.83304 0.22494 2.65357
v 1.75316 0.19596 2.46055
v 1.79516 0.19126 2.41114
v 1.82281 0.26933 2.38366
v 1.84084 0.12218 2.40694
v 1.90850 0.05001 2.53662
v 1.75316 0.19596 2.46055
v 1.90720 0.16639 2.58128
v 1.90698 0.23526 2.58199
v 1.72797 0.27458 2.75503
v 1.76899 0.24015 2.34528
v 1.74356 0.36698 2.29776
v 1.77531 0.12341 2.34117
v 1.82281 0.26933 2.38366
v 1.79516 0.19126 2.41114
v 1.76899 0.24015 2.34528
v 1.71494 0.19398 2.49971
v 1.72797 0.27458 2.75503
v 1.79516 0.19126 2.41114
v 1.81029 0.16366 2.46873
v 1.75316 0.19596 2.46055
v 1.71085 0.18994 2.34736
v 1.84084 0.12218 2.40694
v 1.82281 0.26933 2.38366
v 1.62676 0.40520 2.40670
v 1.76853 0.29190 2.14400
v 1.79388 0.01653 2.09973
v 1.64063 0.29305 2.06328
v 1.75316 0.19596 2.46055
v 1.71494 0.19398 2.49971
v 1.79516 0.19126 2.41114
v 1.76853 0.29190 2.14400
v 1.71851 0.04659 2.21565
v 1.79388 0.01653 2.09973
v 1.59158 0.21869 2.63938
v 1.79388 0.01653 2.09973
v 1.60021 0.01759 2.19319
v 1.67399 0.02114 2.02237
v 1.67991 0.10456 2.00986
v 1.79388 0.01653 2.09973
v 1.67399 0.02114 2.02237
v 1.65953 0.15917 2.25939
v 1.74356 0.36698 2.29776
v 1.69378 0.32935 2.23430
v 1.71566 0.37156 2.48914
v 1.66148 0.40631 2.56411
v 1.76397 0.40029 2.47864
v 1.72236 0.48135 2.74811
v 1.65159 0.47625 2.78492
v 1.79388 0.01653 2.09973
v 1.71851 0.04659 2.21565
v 1.66175 0.02903 2.24069
v 1.63036 1.32420 2.54737
v 1.70092 1.22574 2.64046
v 1.84579 1.63147 2.40183
v 1.70092 1.22574 2.64046
v 1.64773 0.68528 2.74408
v 1.84686 1.22976 2.37984
v 1.66148 0.40631 2.56411
v 1.72236 0.48135 2.74811
v 1.82977 0.36570 2.65357
v 1.66175 0.02903 2.24069
v 1.67991 0.10456 2.00986
v 1.71494 0.19398 2.49971
v 1.71566 0.37156 2.48914
v 1.69270 0.27030 2.50819
v 1.56297 0.79842 2.87767
v 1.76853 0.29190 2.14400
v 1.64063 0.29305 2.06328
v 1.60032 0.32587 2.16239
v 1.69248 0.28298 2.79860
v 1.66175 0.02903 2.24069
v 1.79516 0.19126 2.41114
v 1.71494 0.19398 2.49971
v 1.62062 0.19455 2.43746
v 1.58973 0.26942 2.63285
v 1.71494 0.19398 2.49971
v 1.69270 0.27030 2.50819
v 1.62062 0.19455 2.43746
v 1.66148 0.40631 2.56411
v 1.62676 0.40520 2.40670
v 1.74356 0.36698 2.29776
v 1.71085 0.18994 2.34736
v 1.71566 0.37156 2.48914
v 1.71494 0.19398 2.49971
v 1.58973 0.26942 2.63285
v 1.69248 0.28298 2.79860
v 1.65159 0.47625 2.78492
v 1.62075 0.29290 2.75000
v 1.84579 1.63147 2.40183
v 1.58170 1.42102 2.54691
v 1.63036 1.32420 2.54737
v 1.36733 0.70590 2.58403
v 1.84686 1.22976 2.37984
v 1.64773 0.68528 2.74408
v 1.65953 0.15917 2.25939
v 1.69378 0.32935 2.23430
v 1.65780 0.19745 2.32912
v 1.65763 0.30531 2.33120
v 1.69378 0.32935 2.23430
v 1.64773 0.68528 2.74408
v 1.61237 0.65439 2.95989
v 1.67818 0.55562 2.76218
v 1.71085 0.18994 2.34736
v 1.59158 0.21869 2.63938
v 1.67399 0.02114 2.02237
v 1.60021 0.01759 2.19319
v 1.67991 0.10456 2.00986
v 1.66175 0.02903 2.24069
v 1.54862 0.18027 2.19749
v 1.60021 0.01759 2.19319
v 1.65159 0.47625 2.78492
v 1.72236 0.48135 2.74811
v 1.35665 0.48640 2.52302
v 1.60443 0.78594 2.89273
v 1.65953 0.15917 2.25939
v 1.58973 0.26942 2.63285
v 1.72797 0.27458 2.75503
v 1.69248 0.28298 2.79860
v 1.55253 0.19536 2.44593
v 1.62062 0.19455 2.43746
v 1.59392 0.28212 2.42760
v 1.69378 0.32935 2.23430
v 1.59392 0.35996 2.38204
v 1.59392 0.28212 2.42760
v 1.35665 0.48640 2.52302
v 1.54862 0.18027 2.19749
v 1.64063 0.29305 2.06328
v 1.61680 0.53525 2.91480
v 1.65159 0.47625 2.78492
v 1.67818 0.55562 2.76218
v 1.56297 0.79842 2.87767
v 1.72797 0.27458 2.75503
v 1.58973 0.26942 2.63285
v 1.59158 0.21869 2.63938
v 1.59392 0.35996 2.38204
v 1.59392 0.28212 2.42760
v 1.69270 0.27030 2.50819
v 1.50085 0.28420 2.51086
v 1.61680 0.53525 2.91480
v 1.57930 0.51081 2.87763
v 1.65159 0.47625 2.78492
v 1.65159 0.47625 2.78492
v 1.35294 0.48197 2.58940
v 1.67818 0.55562 2.76218
v 1.54183 0.65382 2.97147
v 1.67818 0.55562 2.76218
v 1.61237 0.65439 2.95989
v 1.59458 0.12196 2.13185
v 1.60812 0.35037 2.92725
v 1.57930 0.51081 2.87763
v 1.61680 0.53525 2.91480
v 1.60443 0.78594 2.89273
v 1.64773 0.68528 2.74408
v 1.56297 0.79842 2.87767
v 1.66148 0.40631 2.56411
v 1.50896 0.42244 2.52250
v 1.62075 0.29290 2.75000
v 1.65159 0.47625 2.78492
v 1.56534 0.34095 2.89187
v 1.59787 1.29779 2.20179
v 1.65953 0.15917 2.25939
v 1.65780 0.19745 2.32912
v 1.54862 0.18027 2.19749
v 1.35283 0.55530 2.54804
v 1.56534 0.34095 2.89187
v 1.56297 0.79842 2.87767
v 1.57930 0.51081 2.87763
v 1.35294 0.48197 2.58940
v 1.54183 0.65382 2.97147
v 1.61680 0.53525 2.91480
v 1.67818 0.55562 2.76218
v 1.56102 0.57859 2.98088
v 1.58973 0.26942 2.63285
v 1.50896 0.42244 2.52250
v 1.61237 0.65439 2.95989
v 1.60443 0.78594 2.89273
v 1.54183 0.65382 2.97147
v 1.71489 1.87536 2.25675
v 1.51001 1.43344 2.52714
v 1.43530 0.27637 2.62670
v 1.65780 0.19745 2.32912
v 1.55253 0.19536 2.44593
v 1.52222 0.18627 2.26451
v 1.52410 0.31492 2.24269
v 1.43530 0.27637 2.62670
v 1.64063 0.29305 2.06328
v 1.52410 0.31492 2.24269
v 1.64773 0.68528 2.74408
v 1.36549 0.64654 2.51977
v 1.36733 0.70590 2.58403
v 1.60164 1.61019 2.32061
v 1.51293 1.38392 2.42360
v 1.51001 1.43344 2.52714
v 1.57136 0.64618 3.02575
v 1.55877 0.56798 3.04631
v 1.56102 0.57859 2.98088
v 1.54183 0.65382 2.97147
v 1.57136 0.64618 3.02575
v 1.56102 0.57859 2.98088
v 1.54862 0.18027 2.19749
v 1.55470 0.82713 2.96391
v 1.52386 0.57007 3.03666
v 1.60443 0.78594 2.89273
v 1.55470 0.82713 2.96391
v 1.49922 0.70325 3.01289
v 1.60812 0.35037 2.92725
v 1.44201 0.38532 3.08676
v 1.56534 0.34095 2.89187
v 1.52386 0.57007 3.03666
v 1.56102 0.57859 2.98088
v 1.55877 0.56798 3.04631
v 1.36733 0.70590 2.58403
v 1.55836 1.62670 2.28343
v 1.59787 1.29779 2.20179
v 1.60812 0.35037 2.92725
v 1.54716 0.28419 2.45845
v 1.62075 0.29290 2.75000
v 1.37204 0.32186 2.83404
v 1.43530 0.27637 2.62670
v 1.55877 0.56798 3.04631
v 1.57136 0.64618 3.02575
v 1.52386 0.57007 3.03666
v 1.36549 0.64654 2.51977
v 1.64773 0.68528 2.74408
v 1.51293 1.38392 2.42360
v 1.60164 1.61019 2.32061
v 1.55836 1.62670 2.28343
v 1.56534 0.34095 2.89187
v 1.44201 0.38532 3.08676
v 1.56644 0.23592 2.93308
v 1.56644 0.23592 2.93308
v 1.49636 0.23553 2.95889
v 1.47867 0.24294 2.90164
v 1.54716 0.28419 2.45845
v 1.43426 0.27419 2.36584
v 1.55253 0.19536 2.44593
v 1.54183 0.65382 2.97147
v 1.43345 0.25108 3.10034
v 1.56534 0.34095 2.89187
v 1.56644 0.23592 2.93308
v 1.47867 0.24294 2.90164
v 1.56534 0.34095 2.89187
v 1.57136 0.64618 3.02575
v 1.54183 0.65382 2.97147
v 1.49922 0.70325 3.01289
v 1.41815 0.19340 2.33706
v 1.47648 1.14986 2.57912
v 1.50085 0.28420 2.51086
v 1.43345 0.25108 3.10034
v 1.50896 0.42244 2.52250
v 1.50085 0.28420 2.51086
v 1.50896 0.42244 2.52250
v 1.41476 1.18474 2.50558
v 1.57136 0.64618 3.02575
v 1.49100 0.71578 3.07431
v 1.52386 0.57007 3.03666
v 1.44703 1.16037 2.68096
v 1.56297 0.79842 2.87767
v 1.41476 1.18474 2.50558
v 1.49100 0.71578 3.07431
v 1.52222 0.18627 2.26451
v 1.49636 0.23553 2.95889
v 1.49466 0.14063 2.94028
v 1.41411 0.40431 2.39552
v 1.59392 0.35996 2.38204
v 1.41815 0.19340 2.33706
v 1.46820 0.60501 3.10395
v 1.46029 0.56826 3.13267
v 1.49636 0.23553 2.95889
v 1.41094 0.14466 3.03797
v 1.49466 0.14063 2.94028
v 1.43987 0.31788 2.88593
v 1.56534 0.34095 2.89187
v 1.43987 0.31788 2.88593
v 1.37204 0.32186 2.83404
v 1.45143 0.40327 3.15325
v 1.44167 0.14511 2.88590
v 1.44703 1.16037 2.68096
v 1.47648 1.14986 2.57912
v 1.43426 0.27419 2.36584
v 1.45143 0.40327 3.15325
v 1.52410 0.31492 2.24269
v 1.41815 0.19340 2.33706
v 1.43358 0.31651 2.35346
v 1.52410 0.31492 2.24269
v 1.49466 0.14063 2.94028
v 1.41094 0.14466 3.03797
v 1.44167 0.14511 2.88590
v 1.43426 0.27419 2.36584
v 1.54716 0.28419 2.45845
v 1.50085 0.28420 2.51086
v 1.58973 0.26942 2.63285
v 1.43426 0.27419 2.36584
v 1.50085 0.28420 2.51086
v 1.52222 0.18627 2.26451
v 1.46029 0.56826 3.13267
v 1.52386 0.57007 3.03666
v 1.40801 0.55020 3.04406
v 1.28958 0.34180 2.71707
v 1.36638 0.24812 3.06200
v 1.55470 0.82713 2.96391
v 1.29780 0.74995 2.90842
v 1.49922 0.70325 3.01289
v 1.41411 0.40431 2.39552
v 1.33678 0.84780 2.85714
v 1.33678 0.84780 2.85714
v 1.46029 0.56826 3.13267
v 1.40801 0.55020 3.04406
v 1.45143 0.40327 3.15325
v 1.33224 0.27610 2.56179
v 1.41815 0.19340 2.33706
v 1.43426 0.27419 2.36584
v 1.43358 0.31651 2.35346
v 1.33678 0.84780 2.85714
v 1.43426 0.27419 2.36584
v 1.44201 0.38532 3.08676
v 1.46820 0.60501 3.10395
v 1.17231 0.61730 2.91486
v 1.52386 0.57007 3.03666
v 1.35487 0.33888 3.00296
v 1.43987 0.31788 2.88593
v 1.44167 0.14511 2.88590
v 1.32121 0.72362 2.82621
v 1.33678 0.84780 2.85714
v 1.29780 0.74995 2.90842
v 1.36638 0.24812 3.06200
v 1.33224 0.27610 2.56179
v 1.35665 0.48640 2.52302
v 1.43345 0.25108 3.10034
v 1.35487 0.33888 3.00296
v 1.36638 0.24812 3.06200
v 1.44201 0.38532 3.08676
v 1.30831 0.55984 2.98848
v 1.33683 0.14465 3.07137
v 1.33683 0.14465 3.07137
v 1.40801 0.55020 3.04406
v 1.17231 0.61730 2.91486
v 1.46820 0.60501 3.10395
v 1.49100 0.71578 3.07431
v 1.30570 0.34012 2.97098
v 1.30831 0.55984 2.98848
v 1.35294 0.48197 2.58940
v 1.33224 0.27610 2.56179
v 1.43530 0.27637 2.62670
v 1.33683 0.14465 3.07137
v 1.35294 0.48197 2.58940
v 1.43530 0.27637 2.62670
v 1.28958 0.34180 2.71707
v 1.36896 0.24961 2.85087
v 1.37204 0.32186 2.83404
v 1.30570 0.34012 2.97098
v 1.35487 0.33888 3.00296
v 1.33200 0.46635 2.56618
v 1.35294 0.48197 2.58940
v 1.35665 0.48640 2.52302
v 1.33683 0.14465 3.07137
v 1.36733 0.70590 2.58403
v 1.36549 0.64654 2.51977
v 1.23711 0.76247 2.67461
v 1.28135 0.25754 2.96914
v 1.28947 0.14076 2.80075
v 1.36896 0.24961 2.85087
v 1.34639 0.14390 2.85087
v 1.20606 0.57189 2.78880
v 1.37204 0.32186 2.83404
v 1.28958 0.22748 2.79633
v 1.28191 0.81266 2.73932
v 1.33200 0.46635 2.56618
v 1.33200 0.46635 2.56618
v 1.32121 0.72362 2.82621
v 1.28191 0.81266 2.73932
v 1.30570 0.34012 2.97098
v 1.29780 0.74995 2.90842
v 1.29780 0.74995 2.90842
v 1.28191 0.81266 2.73932
v 1.35294 0.48197 2.58940
v 1.30603 0.51988 2.70138
v 1.25147 0.55949 2.68070
v 1.30603 0.51988 2.70138
v 1.35294 0.48197 2.58940
v 1.28958 0.34180 2.71707
v 1.30831 0.55984 2.98848
v 1.26117 0.55774 3.02872
v 1.30570 0.34012 2.97098
v 1.20606 0.57189 2.78880
v 1.26492 0.23432 2.73737
v 1.37204 0.32186 2.83404
v 1.28958 0.22748 2.79633
v 1.20873 0.66191 2.70561
v 1.36549 0.64654 2.51977
v 1.35283 0.55530 2.54804
v 1.25147 0.55949 2.68070
v 1.35283 0.55530 2.54804
v 1.35294 0.48197 2.58940
v 1.34639 0.14390 2.85087
v 1.22111 0.75375 2.80683
v 1.34639 0.14390 2.85087
v 1.24279 0.14817 3.01766
v 1.28947 0.14076 2.80075
v 1.23711 0.76247 2.67461
v 1.28958 0.34180 2.71707
v 1.35283 0.55530 2.54804
v 1.25147 0.55949 2.68070
v 1.22834 0.66477 2.75222
v 1.30603 0.51988 2.70138
v 1.28958 0.34180 2.71707
v 1.25147 0.55949 2.68070
v 1.25463 0.39960 3.05027
v 1.22962 0.76149 2.88566
v 1.24026 0.38858 3.00027
v 1.30570 0.34012 2.97098
v 1.25463 0.39960 3.05027
v 1.24279 0.14817 3.01766
v 1.30570 0.34012 2.97098
v 1.24026 0.38858 3.00027
v 1.32121 0.72362 2.82621
v 1.22962 0.76149 2.88566
v 1.29780 0.74995 2.90842
v 1.22111 0.75375 2.80683
v 1.26117 0.55774 3.02872
v 1.28958 0.22748 2.79633
v 1.28947 0.14076 2.80075
v 1.17622 0.14449 2.96924
v 1.28191 0.81266 2.73932
v 1.23711 0.76247 2.67461
v 1.22111 0.75375 2.80683
v 1.22111 0.75375 2.80683
v 1.23711 0.76247 2.67461
v 1.22834 0.66477 2.75222
v 1.20606 0.57189 2.78880
v 1.20873 0.66191 2.70561
v 1.22834 0.66477 2.75222
v 1.23711 0.76247 2.67461
v 1.22834 0.66477 2.75222
v 1.20873 0.66191 2.70561
v 1.35283 0.55530 2.54804
v 1.18126 0.24154 2.96170
v 1.24026 0.38858 3.00027
v 1.17622 0.14449 2.96924
v 1.24279 0.14817 3.01766
v 1.22985 0.63290 2.81822
v 1.22962 0.76149 2.88566
v 1.20606 0.57189 2.78880
v 1.28958 0.22748 2.79633
v 1.18126 0.24154 2.96170
v 1.14429 0.25238 2.92075
v 1.25147 0.55949 2.68070
v 1.10256 0.56812 2.89817
v 1.18126 0.24154 2.96170
v 1.26492 0.23432 2.73737
v 1.22985 0.63290 2.81822
v 1.20606 0.57189 2.78880
v 1.17231 0.61730 2.91486
v 1.28958 0.34180 2.71707
v 1.26492 0.23432 2.73737
v 1.14429 0.25238 2.92075
v 1.17622 0.14449 2.96924
v 1.14876 0.38818 2.91253
v 1.22962 0.76149 2.88566
v 1.14429 0.25238 2.92075
v 1.25147 0.55949 2.68070
v 1.28958 0.34180 2.71707
v 1.09016 0.40356 2.91883
v 1.14876 0.38818 2.91253
v 1.09016 0.40356 2.91883
v 1.28958 0.34180 2.71707
v 1.14876 0.38818 2.91253
v 1.10256 0.56812 2.89817
v 1.25463 0.39960 3.05027
v 1.26117 0.55774 3.02872
v 1.10256 0.56812 2.89817
v 1.09016 0.40356 2.91883
v 1.58170 1.42102 2.54691
vt 0.25073 0.00114
vt 0.25073 0.00573
vt 0.24755 0.00235
vt 0.03196 0.47529
vt 0.03704 0.46934
vt 0.03814 0.47387
vt 0.03224 0.74113
vt 0.03768 0.74087
vt 0.03768 0.75100
vt 0.01181 0.95724
vt 0.01268 0.95249
vt 0.01607 0.95279
vt 0.02958 0.74520
vt 0.45164 0.00062
vt 0.45164 0.00527
vt 0.44723 0.00381
vt 0.01617 0.96061
vt 0.01334 0.12781
vt 0.02102 0.12781
vt 0.01549 0.12943
vt 0.73314 0.99400
vt 0.73314 0.98538
vt 0.73667 0.98943
vt 0.03504 0.75152
vt 0.04020 0.47815
vt 0.03305 0.48206
vt 0.00574 0.58882
vt 0.00574 0.59380
vt 0.00163 0.59141
vt 0.01574 0.82780
vt 0.02402 0.82780
vt 0.02002 0.83003
vt 0.88874 0.58329
vt 0.88225 0.59103
vt 0.88265 0.58276
vt 0.14652 0.97415
vt 0.15735 0.97415
vt 0.15161 0.97627
vt 0.18834 0.68218
vt 0.18383 0.66834
vt 0.19287 0.67520
vt 0.05335 0.57478
vt 0.05389 0.56169
vt 0.11543 0.80597
vt 0.11589 0.81225
vt 0.10530 0.80999
vt 0.05359 0.95364
vt 0.04974 0.94179
vt 0.05482 0.94305
vt 0.48066 0.86738
vt 0.48067 0.86054
vt 0.48714 0.85283
vt 0.12150 0.80582
vt 0.49140 0.86550
vt 0.51054 0.84980
vt 0.03751 0.56969
vt 0.03903 0.58151
vt 0.03718 0.57595
vt 0.53351 0.21394
vt 0.50037 0.21394
vt 0.52371 0.20923
vt 0.46365 0.97655
vt 0.47371 0.97647
vt 0.47334 0.98076
vt 0.01778 0.62365
vt 0.02689 0.62365
vt 0.02079 0.62770
vt 0.46550 0.97938
vt 0.06108 0.71823
vt 0.06317 0.71249
vt 0.06904 0.71853
vt 0.27391 0.94212
vt 0.26610 0.94725
vt 0.26876 0.94121
vt 0.00652 0.47087
vt 0.01312 0.47087
vt 0.01173 0.47807
vt 0.45840 0.93734
vt 0.43458 0.93757
vt 0.43903 0.93029
vt 0.07392 0.71681
vt 0.45557 0.92988
vt 0.95590 0.96667
vt 0.95480 0.97183
vt 0.95305 0.96582
vt 0.92138 0.58903
vt 0.58660 0.78821
vt 0.59713 0.78901
vt 0.61685 0.79724
vt 0.18732 0.56507
vt 0.18876 0.58155
vt 0.18630 0.58711
vt 0.97465 0.47604
vt 0.97224 0.45181
vt 0.97916 0.45920
vt 0.69829 0.86081
vt 0.68145 0.85629
vt 0.72062 0.85538
vt 0.39795 0.22906
vt 0.38052 0.21669
vt 0.39862 0.22142
vt 0.46345 0.98278
vt 0.03264 0.57953
vt 0.07441 0.71293
vt 0.96496 0.96700
vt 0.37023 0.21684
vt 0.59887 0.78735
vt 0.60061 0.79025
vt 0.02695 0.00523
vt 0.03084 0.00446
vt 0.03084 0.00963
vt 0.27373 0.95472
vt 0.12340 0.04920
vt 0.12859 0.06518
vt 0.97002 0.11701
vt 0.97490 0.11832
vt 0.96423 0.11863
vt 0.99983 0.01327
vt 0.99983 0.02404
vt 0.99772 0.02354
vt 0.19614 0.66303
vt 0.19465 0.66146
vt 0.03628 0.32148
vt 0.02607 0.32148
vt 0.02970 0.31524
vt 0.36540 0.22806
vt 0.18745 0.66271
vt 0.02414 0.00978
vt 0.22832 0.97943
vt 0.23854 0.97943
vt 0.23251 0.98277
vt 0.10984 0.75435
vt 0.11675 0.75036
vt 0.11272 0.75725
vt 0.78821 0.93001
vt 0.79816 0.93201
vt 0.79920 0.93793
vt 0.55454 0.75500
vt 0.52881 0.78844
vt 0.54437 0.75220
vt 0.97264 0.48437
vt 0.59938 0.00450
vt 0.59938 0.01121
vt 0.59552 0.01061
vt 0.70662 0.86284
vt 0.56849 0.77788
vt 0.01064 0.18697
vt 0.00458 0.18697
vt 0.00638 0.18023
vt 0.77517 0.93766
vt 0.55391 0.74375
vt 0.55322 0.79010
vt 0.04599 0.30712
vt 0.03996 0.30648
vt 0.03996 0.29671
vt 0.51332 0.86792
vt 0.51836 0.85529
vt 0.10073 0.75083
vt 0.96194 0.85117
vt 0.96907 0.85886
vt 0.95879 0.86240
vt 0.51586 0.85067
vt 0.57113 0.78478
vt 0.56262 0.90512
vt 0.58074 0.90302
vt 0.57808 0.90868
vt 0.95744 0.85556
vt 0.99241 0.02096
vt 0.98354 0.01684
vt 0.98965 0.01820
vt 0.04491 0.29671
vt 0.36377 0.21842
vt 0.05135 0.30384
vt 0.55427 0.79322
vt 0.56366 0.89642
vt 0.56083 0.79342
vt 0.53254 0.79565
vt 0.52552 0.79646
vt 0.99682 0.01696
vt 0.12950 0.99278
vt 0.12675 0.99605
vt 0.12686 0.98824
vt 0.11129 0.29294
vt 0.10412 0.28654
vt 0.11112 0.27653
vt 0.10325 0.28088
vt 0.96737 0.85156
vt 0.35916 0.06092
vt 0.34138 0.06830
vt 0.34274 0.06092
vt 0.69525 0.99481
vt 0.70239 0.99713
vt 0.69747 0.99979
vt 0.44135 0.01279
vt 0.45311 0.01279
vt 0.44878 0.01520
vt 0.74001 0.94319
vt 0.74363 0.94488
vt 0.72864 0.94472
vt 0.55622 0.89646
vt 0.77731 0.10781
vt 0.79563 0.10765
vt 0.77919 0.11484
vt 0.13819 0.18599
vt 0.14404 0.16796
vt 0.15292 0.18323
vt 0.77033 0.98788
vt 0.77851 0.99054
vt 0.77160 0.99346
vt 0.45927 0.93831
vt 0.44684 0.94897
vt 0.44932 0.93918
vt 0.06779 0.09217
vt 0.06779 0.08253
vt 0.07261 0.09500
vt 0.35899 0.07201
vt 0.02475 0.34492
vt 0.02475 0.33500
vt 0.03318 0.33672
vt 0.79805 0.11670
vt 0.12290 0.11295
vt 0.13729 0.12318
vt 0.13164 0.12055
vt 0.12297 0.12287
vt 0.07522 0.57640
vt 0.08924 0.57707
vt 0.07770 0.58505
vt 0.08050 0.57106
vt 0.08456 0.56958
vt 0.46087 0.94927
vt 0.00888 0.01746
vt 0.00888 0.01003
vt 0.01173 0.01628
vt 0.07186 0.08124
vt 0.34549 0.07702
vt 0.94232 0.13632
vt 0.92022 0.13632
vt 0.93237 0.13221
vt 0.40737 0.03160
vt 0.39328 0.03585
vt 0.39296 0.03160
vt 0.98070 0.84007
vt 0.01886 0.92757
vt 0.02306 0.92654
vt 0.02306 0.93551
vt 0.01867 0.93549
vt 0.40821 0.04155
vt 0.06006 0.65554
vt 0.07165 0.65570
vt 0.06112 0.65844
vt 0.49887 0.07640
vt 0.51165 0.07523
vt 0.50472 0.08541
vt 0.97471 0.83990
vt 0.13707 0.94493
vt 0.14333 0.94265
vt 0.15306 0.94478
vt 0.49480 0.91102
vt 0.48715 0.91309
vt 0.48216 0.90960
vt 0.02570 0.06528
vt 0.03160 0.06187
vt 0.03566 0.06512
vt 0.49564 0.90223
vt 0.62303 0.00516
vt 0.62979 0.01057
vt 0.62380 0.00949
vt 0.62927 0.00514
vt 0.06855 0.66412
vt 0.00608 0.25850
vt 0.01159 0.25450
vt 0.01096 0.25825
vt 0.97442 0.83470
vt 0.07347 0.66650
vt 0.07433 0.74432
vt 0.07180 0.73994
vt 0.08423 0.74014
vt 0.48618 0.89800
vt 0.49130 0.89311
vt 0.30733 0.96121
vt 0.32007 0.95435
vt 0.31891 0.96121
vt 0.30764 0.95435
vt 0.48498 0.89103
vt 0.02537 0.48882
vt 0.01713 0.48816
vt 0.01628 0.48335
vt 0.07408 0.74680
vt 0.84713 0.96232
vt 0.84370 0.97288
vt 0.84359 0.96369
vt 0.02545 0.48271
vt 0.04442 0.58785
vt 0.04691 0.58668
vt 0.04764 0.59601
vt 0.47757 0.90164
vt 0.47048 0.90580
vt 0.47165 0.91265
vt 0.01319 0.74329
vt 0.01040 0.74978
vt 0.00766 0.75002
vt 0.00645 0.74286
vt 0.51203 0.08132
vt 0.05152 0.59601
vt 0.05241 0.59835
vt 0.52637 0.03079
vt 0.52957 0.02034
vt 0.53313 0.03085
vt 0.07041 0.74803
vt 0.04381 0.59839
vt 0.51586 0.09021
vt 0.89334 0.96547
vt 0.88281 0.96455
vt 0.89325 0.95821
vt 0.05063 0.31849
vt 0.05923 0.31834
vt 0.04926 0.32525
vt 0.51989 0.02020
vt 0.88084 0.95795
vt 0.04626 0.56502
vt 0.12128 0.06511
vt 0.43935 0.88470
vt 0.45601 0.88375
vt 0.44964 0.88652
vt 0.43616 0.90319
vt 0.37797 0.50545
vt 0.37145 0.52080
vt 0.36344 0.50180
vt 0.35547 0.51930
vt 0.17763 0.47497
vt 0.15890 0.46776
vt 0.16465 0.46554
vt 0.26557 0.12189
vt 0.24989 0.13302
vt 0.25922 0.12312
vt 0.46222 0.88391
vt 0.45990 0.88882
vt 0.45069 0.89570
vt 0.16612 0.48978
vt 0.15767 0.48075
vt 0.37785 0.49923
vt 0.81598 0.94454
vt 0.82958 0.94454
vt 0.82623 0.95384
vt 0.26322 0.11539
vt 0.25740 0.11928
vt 0.18087 0.70668
vt 0.18591 0.70871
vt 0.16939 0.71143
vt 0.16187 0.47688
vt 0.36148 0.49567
vt 0.85934 0.98684
vt 0.86427 0.98485
vt 0.86115 0.99306
vt 0.16238 0.48884
vt 0.45737 0.90311
vt 0.66111 0.01175
vt 0.65455 0.00961
vt 0.65837 0.00593
vt 0.12742 0.02765
vt 0.12852 0.03175
vt 0.11350 0.03096
vt 0.01581 0.12288
vt 0.02395 0.12288
vt 0.01930 0.12454
vt 0.47060 0.09961
vt 0.46354 0.09302
vt 0.48442 0.09323
vt 0.37081 0.47311
vt 0.39121 0.46113
vt 0.85290 0.96858
vt 0.85034 0.96206
vt 0.86198 0.95827
vt 0.46377 0.10116
vt 0.86168 0.96847
vt 0.47860 0.11071
vt 0.16657 0.70918
vt 0.33529 0.01976
vt 0.33032 0.02393
vt 0.32058 0.02014
vt 0.87087 0.45090
vt 0.88704 0.45523
vt 0.86849 0.49204
vt 0.88658 0.49559
vt 0.16705 0.71649
vt 0.81791 0.24941
vt 0.82938 0.25144
vt 0.81894 0.26409
vt 0.38179 0.44631
vt 0.84334 0.26338
vt 0.90100 0.68531
vt 0.90100 0.64410
vt 0.90656 0.68476
vt 0.45274 0.08656
vt 0.46472 0.08772
vt 0.86202 0.25250
vt 0.76126 0.05770
vt 0.74389 0.05770
vt 0.76089 0.05423
vt 0.97622 0.26025
vt 0.97622 0.29301
vt 0.97125 0.27637
vt 0.90423 0.51655
vt 0.88860 0.54394
vt 0.89187 0.51655
vt 0.90332 0.55758
vt 0.44544 0.08720
vt 0.46898 0.05364
vt 0.47805 0.06271
vt 0.46234 0.06199
vt 0.47498 0.05412
vt 0.23117 0.05444
vt 0.23082 0.04679
vt 0.23565 0.04679
vt 0.80555 0.98538
vt 0.80534 0.99106
vt 0.79631 0.99106
vt 0.24687 0.05371
vt 0.79665 0.98341
vt 0.46571 0.05423
vt 0.46108 0.05653
vt 0.25387 0.01437
vt 0.26548 0.01921
vt 0.25478 0.01950
vt 0.02546 0.67525
vt 0.02513 0.67894
vt 0.01971 0.67622
vt 0.24733 0.04620
vt 0.51965 0.01959
vt 0.53013 0.01379
vt 0.53064 0.01959
vt 0.26552 0.01551
vt 0.21892 0.68858
vt 0.22476 0.68435
vt 0.22435 0.68954
vt 0.52540 0.97234
vt 0.53102 0.97300
vt 0.53076 0.97782
vt 0.51943 0.01409
vt 0.21433 0.08264
vt 0.21436 0.08781
vt 0.21174 0.09002
vt 0.23218 0.68563
vt 0.22409 0.67465
vt 0.23318 0.68011
vt 0.02512 0.68459
vt 0.02065 0.68431
vt 0.21797 0.68182
vt 0.05611 0.84266
vt 0.05734 0.85359
vt 0.04919 0.85359
vt 0.52200 0.97563
vt 0.98396 0.11866
vt 0.99040 0.11693
vt 0.99297 0.11920
vt 0.02010 0.31205
vt 0.02534 0.30310
vt 0.02532 0.31251
vt 0.01216 0.87865
vt 0.00667 0.87865
vt 0.01224 0.87148
vt 0.20739 0.08710
vt 0.20973 0.08072
vt 0.46552 0.98913
vt 0.46814 0.98730
vt 0.47508 0.98911
vt 0.52219 0.97014
vt 0.05072 0.10835
vt 0.04183 0.10679
vt 0.05242 0.10618
vt 0.71155 0.99512
vt 0.71456 0.99610
vt 0.71180 0.99899
vt 0.01933 0.30544
vt 0.04938 0.84155
vt 0.47455 0.96953
vt 0.46957 0.96910
vt 0.47394 0.95990
vt 0.17236 0.00657
vt 0.17618 0.00835
vt 0.16894 0.00865
vt 0.00641 0.87297
vt 0.03129 0.56448
vt 0.02173 0.56448
vt 0.02222 0.56119
vt 0.20228 0.08066
vt 0.99811 0.22700
vt 0.99927 0.22044
vt 0.99944 0.23248
vt 0.01684 0.90370
vt 0.01724 0.89951
vt 0.02012 0.90251
vt 0.47130 0.95977
vt 0.46213 0.96890
vt 0.79005 0.00568
vt 0.78907 0.00267
vt 0.79218 0.00338
vt 0.02234 0.89954
vt 0.99511 0.23365
vt 0.99467 0.22642
vt 0.21806 0.67389
vt 0.11990 0.94554
vt 0.13342 0.94554
vt 0.11990 0.95284
vt 0.23147 0.00209
vt 0.23411 0.00232
vt 0.22834 0.00222
vt 0.08960 0.20092
vt 0.10123 0.19615
vt 0.10299 0.20275
vt 0.46223 0.95986
vt 0.02578 0.72908
vt 0.02037 0.73794
vt 0.01889 0.72908
vt 0.34733 0.98874
vt 0.34480 0.99653
vt 0.34339 0.98979
vt 0.09559 0.19293
vt 0.02293 0.90854
vt 0.08748 0.19537
vt 0.00393 0.97831
vt 0.00687 0.97455
vt 0.00518 0.98077
vt 0.19909 0.09027
vt 0.19555 0.08873
vt 0.53347 0.98110
vt 0.53228 0.97438
vt 0.53399 0.97177
vt 0.63274 0.28271
vt 0.62752 0.27749
vt 0.65129 0.27694
vt 0.95258 0.59542
vt 0.96386 0.57123
vt 0.96396 0.60428
vt 0.23068 0.29457
vt 0.23786 0.28757
vt 0.23994 0.29620
vt 0.02415 0.73828
vt 0.12955 0.95276
vt 0.03072 0.78198
vt 0.02214 0.78153
vt 0.02714 0.78053
vt 0.95448 0.57098
vt 0.08720 0.80064
vt 0.07989 0.80058
vt 0.08083 0.79526
vt 0.19960 0.08007
vt 0.10194 0.19312
vt 0.00456 0.44028
vt 0.00443 0.43451
vt 0.00981 0.43356
vt 0.02784 0.77276
vt 0.42915 0.00591
vt 0.43295 0.00658
vt 0.42917 0.01137
vt 0.02083 0.77694
vt 0.10581 0.11170
vt 0.10575 0.11963
vt 0.09677 0.11885
vt 0.01896 0.85759
vt 0.01634 0.84941
vt 0.02588 0.84974
vt 0.08916 0.94291
vt 0.07971 0.94147
vt 0.08843 0.93876
vt 0.55777 0.32045
vt 0.57328 0.31185
vt 0.57665 0.31586
vt 0.62687 0.23617
vt 0.59388 0.22259
vt 0.62687 0.22055
vt 0.77928 0.06545
vt 0.77923 0.05698
vt 0.78289 0.06413
vt 0.78393 0.05903
vt 0.08650 0.79474
vt 0.04403 0.11189
vt 0.03791 0.12063
vt 0.03800 0.10949
vt 0.00963 0.43972
vt 0.02518 0.84737
vt 0.34567 0.02734
vt 0.35030 0.01964
vt 0.34873 0.03005
vt 0.01417 0.59640
vt 0.01865 0.58819
vt 0.01797 0.59640
vt 0.36196 0.11286
vt 0.36003 0.10952
vt 0.38076 0.10981
vt 0.04505 0.12075
vt 0.01277 0.59021
vt 0.75243 0.14303
vt 0.76126 0.14419
vt 0.76103 0.14693
vt 0.79033 0.06564
vt 0.09547 0.11283
vt 0.09960 0.11119
vt 0.77957 0.05633
vt 0.78827 0.05713
vt 0.43340 0.01275
vt 0.21713 0.28736
vt 0.35790 0.02281
vt 0.35808 0.03240
vt 0.01361 0.26596
vt 0.00652 0.26596
vt 0.00678 0.26178
vt 0.60300 0.27769
vt 0.02679 0.52357
vt 0.01788 0.52357
vt 0.01809 0.52111
vt 0.08627 0.78601
vt 0.41141 0.99893
vt 0.41141 0.99275
vt 0.41737 0.99988
vt 0.13487 0.00646
vt 0.13325 0.00876
vt 0.12778 0.00652
vt 0.14713 0.80804
vt 0.14562 0.82521
vt 0.14301 0.80726
vt 0.81330 0.96257
vt 0.80035 0.96257
vt 0.81115 0.95987
vt 0.35345 0.02457
vt 0.71122 0.98803
vt 0.70851 0.98027
vt 0.71106 0.97908
vt 0.78062 0.07357
vt 0.78201 0.08238
vt 0.77841 0.07371
vt 0.22499 0.66997
vt 0.21849 0.66588
vt 0.03473 0.77302
vt 0.02574 0.77143
vt 0.03293 0.76552
vt 0.59110 0.23748
vt 0.01788 0.31478
vt 0.02059 0.31750
vt 0.01230 0.31752
vt 0.14164 0.82602
vt 0.70855 0.98852
vt 0.60669 0.31844
vt 0.02467 0.76561
vt 0.37920 0.11261
vt 0.17564 0.22653
vt 0.16949 0.22259
vt 0.17047 0.21465
vt 0.17187 0.22661
vt 0.41922 0.99280
vt 0.10491 0.10374
vt 0.01744 0.67336
vt 0.01096 0.67035
vt 0.01898 0.67028
vt 0.81649 0.54307
vt 0.82013 0.56972
vt 0.08858 0.92798
vt 0.31149 0.98380
vt 0.31908 0.98380
vt 0.31356 0.99077
vt 0.36469 0.02439
vt 0.74609 0.14697
vt 0.07923 0.80042
vt 0.07956 0.79004
vt 0.11998 0.77900
vt 0.11998 0.76150
vt 0.12352 0.76379
vt 0.49771 0.32310
vt 0.48503 0.32433
vt 0.48455 0.31881
vt 0.00122 0.63673
vt 0.00517 0.63673
vt 0.00387 0.63966
vt 0.51169 0.99639
vt 0.51412 0.99462
vt 0.51482 0.99851
vt 0.31030 0.99202
vt 0.77877 0.06932
vt 0.17165 0.22987
vt 0.01554 0.30126
vt 0.01097 0.30047
vt 0.01158 0.29353
vt 0.06920 0.46943
vt 0.06629 0.48030
vt 0.06652 0.46896
vt 0.00015 0.01071
vt 0.00015 0.00745
vt 0.00182 0.01018
vt 0.84988 0.49061
vt 0.86293 0.53645
vt 0.84988 0.52640
vt 0.16063 0.22391
vt 0.79180 0.06156
vt 0.09969 0.78748
vt 0.10705 0.79789
vt 0.09636 0.79773
vt 0.03453 0.00007
vt 0.03772 0.00239
vt 0.03346 0.00146
vt 0.13699 0.82592
vt 0.13662 0.80841
vt 0.53695 0.32071
vt 0.54961 0.31932
vt 0.55059 0.32202
vt 0.04499 0.44205
vt 0.04499 0.45339
vt 0.03958 0.44271
vt 0.03344 0.96985
vt 0.03535 0.96679
vt 0.03774 0.96846
vt 0.78356 0.99262
vt 0.78356 0.98556
vt 0.78787 0.99215
vt 0.01530 0.29324
vt 0.03847 0.45300
vt 0.03815 0.14220
vt 0.03317 0.14104
vt 0.03600 0.13536
vt 0.10737 0.78812
vt 0.56713 0.03143
vt 0.57011 0.03178
vt 0.56921 0.03540
vt 0.31954 0.99214
vt 0.47137 0.32358
vt 0.79512 0.06216
vt 0.03351 0.95950
vt 0.79661 0.05562
vt 0.09838 0.10528
vt 0.22332 0.29239
vt 0.52575 0.32298
vt 0.00112 0.21471
vt 0.00674 0.21422
vt 0.00111 0.21908
vt 0.81958 0.58514
vt 0.80956 0.60321
vt 0.86027 0.51173
vt 0.56664 0.03705
vt 0.36008 0.02009
vt 0.03328 0.13573
vt 0.03291 0.13125
vt 0.21612 0.29512
vt 0.22301 0.30086
vt 0.78739 0.98381
vt 0.00560 0.21975
vt 0.17192 0.23542
vt 0.13197 0.97981
vt 0.13738 0.98446
vt 0.13116 0.98440
vt 0.04072 0.13676
vt 0.28986 0.95430
vt 0.29276 0.94886
vt 0.29650 0.94711
vt 0.16404 0.23699
vt 0.03584 0.13138
vt 0.46911 0.31896
vt 0.52343 0.31863
vt 0.73898 0.13658
vt 0.06837 0.48293
vt 0.21647 0.30518
vt 0.50233 0.12099
vt 0.50459 0.12660
vt 0.49810 0.12896
vt 0.95731 0.98214
vt 0.95119 0.98106
vt 0.95826 0.97859
vt 0.01605 0.62294
vt 0.00898 0.62294
vt 0.00911 0.61957
vt 0.79710 0.02404
vt 0.78218 0.02404
vt 0.78984 0.02308
vt 0.49649 0.12287
vt 0.24533 0.13956
vt 0.24437 0.14504
vt 0.24047 0.14090
vt 0.10301 0.80358
vt 0.14000 0.97956
vt 0.04488 0.51496
vt 0.05094 0.50320
vt 0.05183 0.51435
vt 0.50812 0.12984
vt 0.76732 0.07199
vt 0.45099 0.31877
vt 0.01897 0.31271
vt 0.01392 0.31271
vt 0.01822 0.30470
vt 0.74021 0.14717
vt 0.49189 0.99541
vt 0.49116 0.99126
vt 0.49215 0.98937
vt 0.82078 0.60322
vt 0.50442 0.12448
vt 0.01488 0.30438
vt 0.99138 0.09614
vt 0.97449 0.09762
vt 0.99156 0.09160
vt 0.02628 0.30364
vt 0.03324 0.30249
vt 0.03582 0.31042
vt 0.44644 0.32301
vt 0.04529 0.50321
vt 0.57769 0.04270
vt 0.03720 0.95897
vt 0.51451 0.12103
vt 0.51581 0.13134
vt 0.89222 0.11872
vt 0.88775 0.11285
vt 0.89255 0.11500
vt 0.88569 0.11875
vt 0.23504 0.13984
vt 0.94798 0.97880
vt 0.14130 0.98461
vt 0.87765 0.11639
vt 0.53548 0.06067
vt 0.51852 0.06076
vt 0.51852 0.05511
vt 0.29213 0.94114
vt 0.87700 0.11090
vt 0.02613 0.02044
vt 0.02455 0.01049
vt 0.03043 0.01049
vt 0.02604 0.31361
vt 0.03194 0.51752
vt 0.04071 0.52389
vt 0.03248 0.52715
vt 0.13607 0.33898
vt 0.13918 0.34137
vt 0.13112 0.34277
vt 0.28966 0.94252
vt 0.94737 0.00005
vt 0.94834 0.00143
vt 0.94513 0.00133
vt 0.89767 0.11400
vt 0.06458 0.28200
vt 0.06246 0.28565
vt 0.06144 0.27449
vt 0.12608 0.33801
vt 0.01533 0.07651
vt 0.02002 0.07139
vt 0.01899 0.07651
vt 0.97211 0.09139
vt 0.01977 0.06782
vt 0.01534 0.07232
vt 0.50359 0.32305
vt 0.51775 0.12963
vt 0.02463 0.01967
vt 0.49850 0.31934
vt 0.85982 0.48957
vt 0.88761 0.11002
vt 0.53078 0.05320
vt 0.44534 0.31884
vt 0.06521 0.27203
vt 0.00762 0.92797
vt 0.01021 0.93354
vt 0.00746 0.93555
vt 0.01580 0.51888
vt 0.01390 0.51303
vt 0.02341 0.51472
vt 0.03003 0.40124
vt 0.03003 0.39825
vt 0.04067 0.40134
vt 0.22495 0.14382
vt 0.00652 0.22100
vt 0.01410 0.21802
vt 0.00937 0.22221
vt 0.82124 0.96326
vt 0.81042 0.96786
vt 0.80972 0.96326
vt 0.79109 0.99647
vt 0.78860 0.98880
vt 0.79265 0.98905
vt 0.13458 0.33272
vt 0.49856 0.32447
vt 0.06159 0.98108
vt 0.07107 0.98108
vt 0.06098 0.98469
vt 0.82160 0.96851
vt 0.00753 0.21568
vt 0.60869 0.94061
vt 0.60902 0.94866
vt 0.60404 0.95242
vt 0.13723 0.97492
vt 0.12886 0.97268
vt 0.13967 0.97255
vt 0.03762 0.39690
vt 0.53429 0.05314
vt 0.38714 0.94721
vt 0.39106 0.94863
vt 0.38573 0.94935
vt 0.12555 0.33250
vt 0.12440 0.34211
vt 0.12150 0.34300
vt 0.17362 0.00585
vt 0.17010 0.00151
vt 0.17362 0.00153
vt 0.16855 0.00503
vt 0.23462 0.13688
vt 0.02417 0.59863
vt 0.02836 0.59873
vt 0.02836 0.60854
vt 0.15033 0.00569
vt 0.15033 0.00118
vt 0.15551 0.00501
vt 0.82496 0.97605
vt 0.82748 0.97012
vt 0.82999 0.97561
vt 0.60859 0.95434
vt 0.64209 0.01071
vt 0.63970 0.01122
vt 0.64156 0.00547
vt 0.05172 0.80712
vt 0.05383 0.80834
vt 0.05253 0.81979
vt 0.02367 0.60819
vt 0.04639 0.49092
vt 0.05036 0.50253
vt 0.04639 0.50256
vt 0.82995 0.97914
vt 0.82294 0.97932
vt 0.83341 0.97916
vt 0.86282 0.96788
vt 0.86257 0.95832
vt 0.86523 0.95889
vt 0.22300 0.14917
vt 0.22470 0.13655
vt 0.05016 0.49783
vt 0.86546 0.96952
vt 0.97372 0.99432
vt 0.97719 0.99438
vt 0.97328 0.99979
vt 0.04965 0.90083
vt 0.04433 0.89979
vt 0.04433 0.88916
vt 0.07078 0.98505
vt 0.05250 0.49057
vt 0.96685 0.99569
vt 0.05278 0.49714
vt 0.06750 0.72326
vt 0.07830 0.72285
vt 0.07587 0.73665
vt 0.38726 0.94109
vt 0.38499 0.93921
vt 0.39900 0.93957
vt 0.05090 0.88906
vt 0.03011 0.05060
vt 0.03778 0.06133
vt 0.03011 0.06053
vt 0.06787 0.73598
vt 0.03812 0.05117
vt 0.81649 0.56988
vn 0.4881 0.8095 0.3264
vn 0.4881 0.8095 0.3264
vn 0.4881 0.8095 0.3264
vn 0.6292 -0.5845 0.5122
vn 0.7914 -0.4094 0.4540
vn 0.6644 -0.5629 0.4916
vn 0.9778 0.1126 -0.1769
vn 0.9343 0.2757 -0.2259
vn 0.9949 -0.0183 -0.0991
vn 0.8801 0.2171 -0.4222
vn 0.8270 0.3588 -0.4329
vn 0.8637 0.2677 -0.4271
vn 0.9916 -0.0741 -0.1059
vn 0.4621 -0.0510 0.8854
vn 0.4621 -0.0510 0.8854
vn 0.4621 -0.0510 0.8854
vn 0.8956 0.1594 -0.4153
vn 0.6717 -0.0972 0.7344
vn 0.6717 -0.0972 0.7344
vn 0.6717 -0.0972 0.7344
vn 0.1595 0.6582 0.7357
vn 0.1595 0.6582 0.7357
vn 0.1595 0.6582 0.7357
vn 0.9843 -0.1764 -0.0042
vn 0.5508 -0.6509 0.5225
vn 0.5681 -0.6246 0.5358
vn 0.2138 -0.7023 -0.6790
vn 0.2138 -0.7023 -0.6790
vn 0.2138 -0.7023 -0.6790
vn -0.8184 0.4683 -0.3329
vn -0.8184 0.4683 -0.3329
vn -0.8184 0.4683 -0.3329
vn 0.6406 0.7323 -0.2309
vn 0.6224 0.7500 -0.2238
vn 0.5378 0.8211 -0.1911
vn 0.2522 -0.1526 -0.9556
vn 0.2522 -0.1526 -0.9556
vn 0.2522 -0.1526 -0.9556
vn -0.5384 0.7630 0.3577
vn -0.7174 0.6032 0.3486
vn -0.6143 0.6824 0.3963
vn -0.1097 0.4688 0.8765
vn -0.1097 0.4688 0.8765
vn 0.9229 0.2969 -0.2453
vn 0.8856 0.3569 -0.2972
vn 0.7779 0.4806 -0.4047
vn 0.1847 0.9827 0.0093
vn 0.1847 0.9827 0.0093
vn 0.1847 0.9827 0.0093
vn 0.3855 -0.5670 -0.7279
vn 0.4191 -0.4986 -0.7588
vn 0.4188 -0.4972 -0.7599
vn 0.9872 0.1260 -0.0976
vn 0.3196 -0.6584 -0.6815
vn 0.3915 -0.4602 -0.7969
vn -0.5659 0.3276 -0.7566
vn -0.5620 0.2033 -0.8018
vn -0.5656 0.2823 -0.7748
vn 0.4987 0.7469 0.4398
vn 0.4987 0.7469 0.4398
vn 0.4987 0.7469 0.4398
vn 0.0912 -0.9395 0.3301
vn 0.0072 -0.9421 0.3352
vn 0.0052 -0.9415 0.3369
vn -0.5565 -0.4812 0.6773
vn -0.5565 -0.4812 0.6773
vn -0.5565 -0.4812 0.6773
vn 0.1090 -0.9378 0.3296
vn 0.5825 -0.3647 -0.7264
vn 0.6283 -0.3294 -0.7048
vn 0.6886 -0.2022 -0.6963
vn -0.7070 0.7062 -0.0372
vn -0.7172 0.6950 -0.0513
vn -0.6626 0.7487 0.0202
vn -0.0843 0.4306 0.8986
vn -0.0843 0.4306 0.8986
vn -0.0843 0.4306 0.8986
vn 0.7363 0.6766 -0.0109
vn 0.7369 0.6753 -0.0294
vn 0.7368 0.6756 -0.0248
vn 0.6748 -0.3325 -0.6589
vn 0.7360 0.6770 -0.0031
vn 0.1230 -0.9500 0.2871
vn 0.1182 -0.9569 0.2654
vn 0.1403 -0.9195 0.3672
vn 0.6834 0.6867 -0.2476
vn -0.6336 -0.3904 0.6680
vn -0.6255 -0.4548 0.6340
vn -0.4685 -0.2927 0.8336
vn -0.1370 -0.6255 -0.7681
vn -0.1370 -0.6255 -0.7681
vn -0.1370 -0.6255 -0.7681
vn 0.4695 0.8829 0.0075
vn 0.4666 0.8844 0.0123
vn 0.4662 0.8846 0.0130
vn 0.2936 0.8109 0.5062
vn 0.2964 0.8113 0.5040
vn 0.2867 0.8099 0.5117
vn -0.1978 0.6084 0.7686
vn -0.1911 0.6249 0.7570
vn -0.1905 0.6294 0.7534
vn 0.2390 -0.9217 0.3057
vn -0.5600 0.1776 -0.8092
vn 0.6373 -0.4333 -0.6373
vn 0.1058 -0.9721 0.2093
vn -0.2680 0.5588 0.7848
vn -0.7222 -0.5630 0.4019
vn -0.8043 -0.5067 0.3104
vn -0.2088 0.8453 -0.4918
vn -0.3563 0.8069 -0.4711
vn -0.2104 0.8450 -0.4917
vn -0.7380 0.6699 -0.0815
vn -0.7760 -0.3965 -0.4905
vn -0.7760 -0.3965 -0.4905
vn -0.8830 -0.1493 0.4451
vn -0.8830 -0.1493 0.4451
vn -0.8830 -0.1493 0.4451
vn -0.4246 -0.8431 0.3298
vn -0.4246 -0.8431 0.3298
vn -0.4246 -0.8431 0.3298
vn -0.6838 0.4957 0.5354
vn -0.7480 0.5184 0.4144
vn -0.5926 -0.6824 0.4281
vn -0.5926 -0.6824 0.4281
vn -0.5926 -0.6824 0.4281
vn -0.2732 0.5461 0.7919
vn -0.9049 0.4202 0.0682
vn -0.0850 0.8617 -0.5002
vn -0.3069 0.6011 0.7379
vn -0.3069 0.6011 0.7379
vn -0.3069 0.6011 0.7379
vn -0.2517 0.8073 -0.5338
vn -0.2141 0.7127 -0.6680
vn -0.2250 0.7405 -0.6332
vn -0.7959 0.5046 0.3344
vn -0.8713 0.3968 0.2889
vn -0.8328 0.4558 0.3141
vn -0.5725 -0.7863 -0.2321
vn -0.6807 -0.7217 -0.1256
vn -0.5355 -0.8379 -0.1058
vn 0.4699 0.8827 0.0068
vn -0.6384 -0.2026 -0.7426
vn -0.6384 -0.2026 -0.7426
vn -0.6384 -0.2026 -0.7426
vn 0.2783 0.8087 0.5183
vn -0.7547 -0.5983 0.2693
vn 0.9091 0.2986 -0.2905
vn 0.9091 0.2986 -0.2905
vn 0.9091 0.2986 -0.2905
vn -0.7778 0.5264 0.3434
vn -0.5638 -0.7430 -0.3607
vn -0.7165 -0.6969 0.0301
vn 0.4296 0.0653 -0.9007
vn 0.4334 0.0314 -0.9006
vn 0.4654 0.0092 -0.8850
vn 0.4389 -0.2782 -0.8544
vn 0.4508 -0.2532 -0.8560
vn -0.2673 0.8448 -0.4636
vn 0.5155 0.8523 -0.0890
vn 0.4974 0.8653 -0.0629
vn 0.5097 0.8542 -0.1024
vn 0.4390 -0.3014 -0.8464
vn -0.7629 -0.3727 0.5282
vn -0.3084 0.4533 0.8363
vn -0.5134 0.5056 0.6934
vn -0.6003 0.4631 0.6520
vn 0.5619 0.8107 -0.1640
vn -0.6258 0.7258 -0.2855
vn -0.6486 0.5543 -0.5216
vn -0.6473 0.6164 -0.4485
vn 0.4614 0.0311 -0.8866
vn -0.3815 0.5525 0.7411
vn 0.4055 0.1186 -0.9064
vn -0.8640 -0.4024 0.3025
vn -0.2270 0.3817 0.8960
vn -0.8507 -0.3044 0.4285
vn -0.7314 -0.6611 -0.1673
vn -0.7328 -0.6341 -0.2470
vn -0.6139 0.7547 -0.2313
vn -0.9507 0.2998 -0.0786
vn -0.9507 0.2998 -0.0786
vn -0.9507 0.2998 -0.0786
vn 0.9631 -0.2419 -0.1182
vn 0.9881 -0.1162 -0.1011
vn 0.9931 -0.0695 -0.0944
vn 0.9839 0.1691 -0.0570
vn 0.5117 0.8572 -0.0581
vn 0.7647 0.4413 -0.4695
vn 0.7356 0.4989 -0.4583
vn 0.8466 0.3624 -0.3899
vn 0.7024 0.4275 0.5691
vn 0.7024 0.4275 0.5691
vn 0.7024 0.4275 0.5691
vn -0.4880 -0.4216 -0.7643
vn -0.4880 -0.4216 -0.7643
vn -0.4880 -0.4216 -0.7643
vn -0.9842 0.0632 -0.1652
vn -0.9842 0.0632 -0.1652
vn -0.9842 0.0632 -0.1652
vn -0.1363 0.1826 0.9737
vn -0.7009 0.1585 0.6954
vn -0.6786 0.1757 0.7132
vn -0.6935 0.1643 0.7015
vn -0.6558 -0.7547 0.0202
vn -0.6558 -0.7547 0.0202
vn -0.6558 -0.7547 0.0202
vn 0.5881 -0.6505 0.4806
vn 0.5881 -0.6505 0.4806
vn 0.5881 -0.6505 0.4806
vn -0.0998 -0.3410 -0.9347
vn -0.0976 -0.3418 -0.9347
vn -0.0818 -0.3475 -0.9341
vn -0.0922 0.6825 0.7250
vn -0.1453 0.6529 0.7434
vn -0.1133 0.6711 0.7327
vn 0.6947 0.5212 -0.4957
vn 0.6040 -0.4011 -0.6887
vn 0.6040 -0.4011 -0.6887
vn 0.6040 -0.4011 -0.6887
vn -0.6722 0.1805 0.7181
vn -0.6129 -0.7851 0.0891
vn -0.5104 -0.6806 0.5257
vn -0.5512 -0.7257 0.4118
vn -0.6164 -0.7865 0.0377
vn 0.2235 -0.8126 -0.5382
vn 0.2051 -0.8036 -0.5588
vn 0.2104 -0.7856 -0.5819
vn 0.3916 -0.9127 -0.1165
vn 0.2351 -0.8436 -0.4827
vn -0.1108 -0.3370 -0.9350
vn 0.9046 0.1995 -0.3766
vn 0.9046 0.1995 -0.3766
vn 0.9046 0.1995 -0.3766
vn -0.1582 0.6452 0.7474
vn 0.5860 0.6460 -0.4891
vn 0.1959 0.8881 0.4159
vn 0.1959 0.8881 0.4159
vn 0.1959 0.8881 0.4159
vn -0.5760 0.6255 -0.5263
vn -0.5902 0.6137 -0.5245
vn -0.5995 0.6058 -0.5232
vn 0.4715 0.8686 -0.1525
vn 0.3423 -0.7981 0.4958
vn 0.3520 -0.7953 0.4935
vn 0.3279 -0.8021 0.4992
vn 0.3170 -0.8049 0.5016
vn -0.5708 0.6297 -0.5269
vn 0.3579 -0.7489 0.5578
vn 0.3284 -0.7678 0.5501
vn 0.3579 -0.7488 0.5579
vn -0.5406 0.4855 0.6871
vn -0.5238 0.4879 0.6983
vn -0.3804 0.5602 0.7358
vn 0.4682 0.8675 -0.1680
vn 0.2489 0.5621 -0.7887
vn 0.2489 0.5621 -0.7887
vn 0.2489 0.5621 -0.7887
vn -0.6620 -0.7474 -0.0561
vn -0.6261 -0.7797 0.0128
vn -0.8434 -0.5371 -0.0166
vn 0.8649 -0.1693 -0.4726
vn 0.8649 -0.1693 -0.4726
vn 0.8649 -0.1693 -0.4726
vn -0.8206 -0.5403 -0.1865
vn -0.1018 -0.3634 0.9261
vn -0.1062 -0.3863 0.9162
vn -0.0852 -0.2775 0.9569
vn -0.1185 -0.4510 0.8846
vn 0.3009 -0.7845 0.5422
vn 0.1344 0.1868 -0.9732
vn 0.1344 0.1868 -0.9732
vn 0.1344 0.1868 -0.9732
vn 0.4132 0.8736 -0.2570
vn 0.2566 -0.8093 0.5283
vn -0.5889 0.7374 -0.3307
vn -0.4146 0.8715 -0.2618
vn -0.3957 0.8919 -0.2191
vn -0.9139 -0.3119 -0.2599
vn -0.9399 -0.1517 -0.3060
vn -0.1767 0.5515 0.8152
vn -0.1763 0.5539 0.8137
vn -0.1760 0.5564 0.8121
vn -0.1770 0.5492 0.8167
vn -0.9529 0.1138 -0.2810
vn -0.6553 0.6783 -0.3325
vn -0.4760 0.7651 -0.4335
vn -0.5870 0.7174 -0.3752
vn -0.4080 0.8569 -0.3152
vn -0.8908 -0.4298 -0.1478
vn -0.8908 -0.4298 -0.1478
vn -0.8908 -0.4298 -0.1478
vn -0.7244 0.6289 -0.2824
vn 0.2130 -0.9116 0.3516
vn 0.2646 -0.8977 0.3524
vn 0.0628 -0.8736 0.4827
vn -0.8986 -0.4386 -0.0082
vn -0.8835 -0.3951 0.2517
vn -0.8648 -0.4089 0.2914
vn 0.0252 -0.4216 -0.9064
vn 0.0754 -0.4460 -0.8919
vn 0.0417 -0.4298 -0.9020
vn 0.0103 -0.4141 -0.9102
vn -0.3347 0.5717 0.7491
vn 0.2349 -0.8513 0.4692
vn 0.1602 -0.8355 0.5256
vn -0.1969 0.8603 -0.4701
vn -0.2558 0.8562 -0.4489
vn -0.1115 0.8604 -0.4973
vn -0.3212 0.9026 -0.2866
vn 0.0223 -0.8966 0.4423
vn -0.0864 0.6495 0.7554
vn -0.8083 -0.4771 -0.3450
vn -0.7961 -0.4958 -0.3471
vn -0.8020 -0.4869 -0.3461
vn -0.3581 -0.0332 0.9331
vn -0.3581 -0.0332 0.9331
vn -0.3581 -0.0332 0.9331
vn -0.3234 0.8471 -0.4217
vn -0.7901 -0.5047 -0.3480
vn -0.1097 0.4688 0.8765
vn -0.7760 -0.3965 -0.4905
vn 0.5226 -0.5229 -0.6734
vn 0.5256 -0.6705 -0.5236
vn 0.5638 -0.5440 -0.6214
vn 0.4567 -0.5224 -0.7201
vn 0.8146 -0.0734 0.5754
vn 0.8464 0.0123 0.5323
vn 0.7789 -0.0942 0.6201
vn 0.8445 0.0288 0.5348
vn 0.5860 0.6275 -0.5126
vn 0.5894 0.6325 -0.5025
vn 0.5412 0.6250 -0.5626
vn 0.9195 -0.3311 0.2118
vn 0.9269 -0.3537 -0.1259
vn 0.9535 -0.2852 0.0973
vn 0.5192 -0.8282 -0.2109
vn 0.4904 -0.7121 -0.5025
vn 0.4368 -0.5774 -0.6898
vn 0.6084 0.6429 -0.4653
vn 0.5825 0.6090 -0.5383
vn 0.7987 -0.0777 0.5967
vn 0.1702 0.5991 0.7824
vn 0.1702 0.5991 0.7824
vn 0.1702 0.5991 0.7824
vn 0.9029 -0.2018 0.3795
vn 0.8768 -0.0050 0.4808
vn -0.3656 -0.9259 0.0951
vn -0.3631 -0.9274 0.0896
vn -0.4136 -0.8976 0.1522
vn 0.5700 0.5514 -0.6091
vn 0.7817 -0.0707 0.6196
vn 0.0368 -0.5462 0.8368
vn 0.0368 -0.5462 0.8368
vn 0.0368 -0.5462 0.8368
vn 0.6676 0.6169 -0.4169
vn 0.3149 -0.6358 -0.7047
vn 0.5799 -0.7270 0.3677
vn 0.5799 -0.7270 0.3677
vn 0.5799 -0.7270 0.3677
vn 0.3500 0.8901 -0.2920
vn 0.3500 0.8901 -0.2920
vn 0.3500 0.8901 -0.2920
vn -0.8017 -0.4968 -0.3323
vn -0.8017 -0.4968 -0.3323
vn -0.8017 -0.4968 -0.3323
vn -0.6424 -0.0960 -0.7603
vn -0.6775 -0.0372 -0.7346
vn -0.6066 -0.1424 -0.7822
vn 0.8473 -0.0174 0.5309
vn 0.8633 -0.0253 0.5041
vn -0.0333 0.4747 0.8795
vn -0.0000 0.5060 0.8625
vn -0.0434 0.4648 0.8843
vn -0.6913 0.0517 -0.7208
vn -0.0767 0.4318 0.8987
vn -0.5784 -0.1479 -0.8023
vn -0.4181 -0.8949 0.1559
vn -0.2978 -0.8879 0.3506
vn -0.2978 -0.8879 0.3506
vn -0.2978 -0.8879 0.3506
vn 0.3914 -0.6335 -0.6675
vn 0.3805 -0.6267 -0.6800
vn 0.3578 -0.6122 -0.7051
vn 0.3470 -0.6052 -0.7165
vn -0.4449 -0.8818 0.1566
vn -0.1076 0.6777 0.7274
vn -0.0317 0.5696 0.8213
vn -0.0579 0.5912 0.8044
vn 0.8724 -0.0244 0.4881
vn 0.0287 0.5224 0.8522
vn -0.4321 -0.3220 -0.8424
vn -0.4321 -0.3220 -0.8424
vn -0.4321 -0.3220 -0.8424
vn -0.7400 -0.6161 -0.2698
vn -0.7400 -0.6161 -0.2698
vn 0.0447 0.5284 0.8478
vn -0.5047 0.3998 0.7651
vn -0.5047 0.3998 0.7651
vn -0.5047 0.3998 0.7651
vn -0.9236 0.3725 -0.0910
vn -0.9236 0.3725 -0.0910
vn -0.9236 0.3725 -0.0910
vn -0.8465 -0.0555 -0.5295
vn -0.8631 -0.0011 -0.5050
vn -0.8341 -0.0904 -0.5441
vn -0.8684 0.0187 -0.4956
vn -0.7400 -0.6161 -0.2698
vn 0.7583 -0.0638 0.6488
vn 0.7368 -0.0978 0.6690
vn 0.7859 0.0176 0.6182
vn 0.6240 -0.2739 0.7319
vn 0.6546 0.1584 -0.7392
vn 0.5953 0.0266 -0.8031
vn 0.6493 0.1737 -0.7404
vn -0.1038 -0.9846 0.1410
vn -0.1029 -0.9846 0.1410
vn -0.1042 -0.9845 0.1410
vn 0.6521 0.2564 -0.7135
vn -0.1050 -0.9844 0.1409
vn 0.7925 0.0066 0.6098
vn 0.7786 0.0383 0.6263
vn 0.7178 0.0005 0.6962
vn 0.7014 -0.0144 0.7127
vn 0.7251 0.0072 0.6886
vn 0.1653 -0.9822 -0.0893
vn 0.0343 -0.9989 -0.0309
vn 0.0376 -0.9986 -0.0384
vn 0.6353 0.2693 -0.7238
vn 0.5827 0.1288 -0.8025
vn 0.5517 0.1070 -0.8272
vn 0.5279 0.0906 -0.8445
vn 0.6926 -0.0221 0.7209
vn 0.0735 0.9968 -0.0328
vn 0.1268 0.9918 -0.0143
vn -0.0239 0.9995 -0.0227
vn -0.8496 -0.0550 -0.5245
vn -0.7463 0.0475 -0.6639
vn -0.7869 -0.0235 -0.6166
vn 0.6065 0.1460 -0.7816
vn 0.5987 0.2305 0.7671
vn 0.2605 0.1898 0.9466
vn 0.6856 0.1422 0.7140
vn 0.1360 0.9901 0.0347
vn 0.2103 0.9770 0.0345
vn 0.1381 0.9884 0.0637
vn -0.0402 -0.9990 0.0214
vn -0.0421 -0.9991 0.0089
vn 0.1762 0.9792 -0.1003
vn -0.6753 -0.1397 -0.7242
vn -0.8208 -0.0014 -0.5712
vn -0.7463 -0.0784 -0.6610
vn -0.8662 -0.0823 -0.4929
vn 0.5345 0.4768 -0.6978
vn 0.5345 0.4768 -0.6978
vn 0.5345 0.4768 -0.6978
vn 0.0677 0.9780 0.1972
vn 0.0670 0.9881 0.1388
vn 0.0684 0.9506 0.3029
vn -0.7571 -0.0300 0.6526
vn -0.6827 -0.1511 0.7149
vn -0.6696 -0.1697 0.7231
vn 0.7769 0.0321 0.6288
vn 0.7366 0.0950 0.6696
vn -0.4889 -0.7536 0.4393
vn -0.4889 -0.7536 0.4393
vn -0.4889 -0.7536 0.4393
vn -0.9013 -0.0189 -0.4328
vn 0.1704 -0.5783 -0.7978
vn 0.1704 -0.5783 -0.7978
vn 0.1704 -0.5783 -0.7978
vn -0.8346 -0.5491 -0.0439
vn -0.8346 -0.5491 -0.0439
vn -0.8346 -0.5491 -0.0439
vn 0.0645 0.9979 0.0069
vn -0.5716 -0.2156 -0.7917
vn 0.1989 -0.9779 0.0645
vn 0.0061 -0.9797 0.2004
vn 0.1594 -0.9838 0.0817
vn -0.3697 -0.1892 -0.9097
vn -0.3697 -0.1892 -0.9097
vn -0.3697 -0.1892 -0.9097
vn -0.5625 -0.3017 0.7698
vn -0.6180 -0.0101 0.7861
vn -0.6180 -0.0101 0.7861
vn -0.6180 -0.0101 0.7861
vn 0.7051 0.1254 0.6980
vn -0.8432 -0.0316 0.5366
vn -0.9399 -0.0627 0.3356
vn -0.7437 -0.0637 0.6655
vn 0.6672 -0.4462 -0.5964
vn 0.5863 -0.5214 -0.6200
vn 0.4335 -0.4433 -0.7846
vn 0.0856 -0.9791 0.1844
vn -0.0079 -0.9535 0.3014
vn -0.4386 -0.8499 -0.2921
vn -0.4386 -0.8499 -0.2921
vn -0.4386 -0.8499 -0.2921
vn 0.3886 -0.4825 -0.7849
vn -0.6717 -0.0221 0.7405
vn -0.5987 0.0531 0.7992
vn 0.2387 0.9680 0.0768
vn 0.5260 0.1820 -0.8308
vn 0.6438 0.2620 -0.7190
vn 0.5958 0.2287 -0.7698
vn 0.6180 -0.5349 0.5761
vn 0.6180 -0.5349 0.5761
vn 0.6180 -0.5349 0.5761
vn 0.7617 -0.0111 0.6478
vn 0.6754 -0.0295 0.7369
vn 0.8370 -0.0109 0.5471
vn 0.1405 -0.9462 0.2915
vn 0.0036 -0.9998 0.0188
vn 0.0334 -0.9962 0.0806
vn -0.0196 -0.9994 -0.0293
vn 0.5306 -0.1625 -0.8319
vn 0.5306 -0.1625 -0.8319
vn 0.5306 -0.1625 -0.8319
vn 0.6630 0.0108 0.7485
vn 0.2272 -0.3014 -0.9260
vn 0.7574 -0.0565 0.6505
vn -0.4927 0.5972 -0.6330
vn -0.4927 0.5972 -0.6330
vn -0.4927 0.5972 -0.6330
vn 0.4599 -0.2656 0.8473
vn 0.6176 0.0023 0.7865
vn 0.4467 -0.7516 0.4854
vn 0.4467 -0.7516 0.4854
vn 0.4467 -0.7516 0.4854
vn -0.2703 0.5520 0.7888
vn -0.2881 0.5407 0.7903
vn -0.2622 0.5571 0.7880
vn 0.8689 0.0094 0.4948
vn 0.8568 0.0145 0.5154
vn 0.8724 0.0078 0.4886
vn 0.3306 0.8192 -0.4686
vn 0.3690 0.8116 -0.4530
vn 0.4316 0.7763 -0.4594
vn 0.0672 -0.9863 0.1505
vn 0.7272 0.3232 -0.6055
vn 0.4994 0.0494 0.8649
vn 0.7472 -0.0632 0.6616
vn 0.6236 0.0056 0.7817
vn 0.8507 0.0170 0.5254
vn 0.1647 0.9531 -0.2541
vn 0.1656 0.9543 -0.2487
vn -0.2398 0.9099 -0.3385
vn 0.7777 0.2066 0.5938
vn 0.4318 -0.1211 0.8938
vn -0.0146 -0.9995 0.0277
vn -0.0164 -0.9997 0.0158
vn -0.0149 -0.9995 0.0261
vn 0.7766 -0.0780 0.6251
vn -0.5350 -0.2457 0.8084
vn -0.5784 -0.1903 0.7933
vn -0.6023 -0.1575 0.7826
vn 0.7831 -0.1024 0.6135
vn -0.6639 0.0097 -0.7477
vn -0.6929 -0.0729 -0.7173
vn -0.6588 -0.1141 -0.7436
vn -0.7383 -0.0371 -0.6734
vn -0.7415 -0.0501 -0.6690
vn -0.7484 -0.0804 -0.6583
vn -0.5651 -0.0509 0.8235
vn -0.5657 -0.0615 0.8223
vn -0.5599 0.0112 0.8285
vn 0.3568 0.1837 0.9160
vn 0.4496 0.2301 0.8631
vn 0.5754 0.2929 0.7637
vn 0.3575 -0.6047 -0.7117
vn 0.3525 -0.6020 -0.7165
vn 0.3602 -0.6061 -0.7091
vn 0.9763 -0.1785 0.1222
vn 0.9628 -0.0761 0.2594
vn 0.9073 -0.0792 0.4130
vn 0.8294 0.2071 0.5188
vn 0.1214 0.9713 -0.2047
vn 0.9583 0.2152 0.1878
vn 0.9644 0.1889 0.1851
vn 0.9493 0.2496 0.1913
vn -0.0131 -0.9992 0.0380
vn -0.7545 -0.1109 -0.6468
vn -0.9180 0.0057 -0.3964
vn -0.8645 -0.2397 -0.4417
vn -0.8632 -0.0736 -0.4994
vn -0.5462 -0.1745 0.8193
vn -0.5289 -0.1574 0.8339
vn -0.5743 -0.2031 0.7930
vn -0.0320 0.9967 0.0747
vn -0.0326 0.9966 0.0754
vn -0.0251 0.9974 0.0670
vn 0.9718 0.1510 0.1809
vn -0.5021 -0.1314 0.8548
vn -0.0505 -0.9952 0.0833
vn -0.0766 -0.9888 0.1284
vn -0.0695 -0.9898 0.1241
vn 0.7695 0.0242 0.6381
vn -0.6847 -0.2843 -0.6711
vn -0.6407 -0.0162 -0.7676
vn 0.7598 0.5055 0.4088
vn 0.7759 0.1143 0.6204
vn -0.6362 -0.1079 0.7640
vn 0.3277 0.8335 -0.4448
vn -0.8738 -0.0521 -0.4834
vn -0.8267 0.0050 -0.5626
vn 0.9166 -0.2095 0.3406
vn 0.9166 -0.2095 0.3406
vn 0.9166 -0.2095 0.3406
vn -0.2970 0.5349 0.7910
vn -0.6620 0.0718 0.7460
vn -0.6620 0.0718 0.7460
vn -0.6620 0.0718 0.7460
vn -0.1007 0.9827 -0.1555
vn -0.0729 -0.9957 -0.0567
vn -0.0730 -0.9954 -0.0626
vn -0.0730 -0.9954 -0.0628
vn 0.1411 -0.8866 0.4405
vn 0.1411 -0.8866 0.4405
vn 0.1411 -0.8866 0.4405
vn 0.4994 -0.3890 -0.7741
vn 0.4981 -0.4210 -0.7581
vn 0.5605 -0.2257 -0.7968
vn 0.0838 -0.8800 0.4675
vn 0.0838 -0.8800 0.4675
vn 0.0838 -0.8800 0.4675
vn -0.8432 -0.1807 -0.5064
vn 0.6632 -0.1098 -0.7404
vn 0.7150 -0.0861 -0.6938
vn 0.7275 -0.0800 -0.6814
vn 0.3867 0.8484 -0.3614
vn 0.4001 0.8087 -0.4311
vn 0.3285 0.8873 -0.3238
vn 0.1815 0.9357 -0.3026
vn 0.2297 0.9715 -0.0588
vn 0.8784 -0.2278 0.4202
vn 0.8372 -0.1103 0.5356
vn 0.8531 -0.1484 0.5002
vn 0.3500 -0.6006 -0.7189
vn -0.3962 -0.8090 0.4342
vn -0.3962 -0.8090 0.4342
vn -0.3962 -0.8090 0.4342
vn 0.5118 -0.3662 -0.7771
vn 0.6480 -0.1164 -0.7527
vn 0.6621 0.3360 0.6699
vn 0.7862 -0.0128 0.6178
vn -0.0237 0.9976 0.0653
vn 0.8359 0.3129 0.4511
vn 0.8391 0.2034 0.5045
vn 0.8512 0.3521 0.3893
vn 0.8118 0.2202 0.5408
vn -0.0730 -0.9950 -0.0674
vn -0.6788 0.0824 -0.7296
vn 0.1406 0.4569 0.8784
vn 0.1406 0.4569 0.8784
vn 0.1406 0.4569 0.8784
vn -0.1286 0.5603 0.8182
vn -0.1370 0.5357 0.8332
vn -0.5559 0.0467 0.8299
vn 0.0559 -0.9969 0.0552
vn 0.0218 -0.9987 0.0464
vn 0.0220 -0.9972 0.0718
vn -0.8715 0.0059 -0.4903
vn -0.0325 -0.9991 0.0265
vn -0.5800 0.6732 -0.4588
vn -0.3387 0.9203 -0.1960
vn 0.4064 0.6653 -0.6263
vn 0.4064 0.6653 -0.6263
vn 0.4064 0.6653 -0.6263
vn -0.9414 0.2932 -0.1668
vn -0.9711 0.2036 -0.1247
vn -0.9740 0.1783 -0.1401
vn 0.9876 -0.1567 0.0086
vn 0.9876 -0.1567 0.0086
vn 0.9876 -0.1567 0.0086
vn 0.8758 0.1668 -0.4529
vn 0.8758 0.1668 -0.4529
vn 0.8758 0.1668 -0.4529
vn 0.0334 -0.9942 0.1020
vn 0.2676 0.9216 -0.2811
vn 0.8221 0.0491 0.5673
vn 0.7697 -0.0550 0.6361
vn 0.7839 -0.1094 0.6111
vn 0.7507 0.0048 0.6606
vn 0.0230 -0.9713 0.2367
vn 0.0395 -0.9667 0.2529
vn 0.0204 -0.9720 0.2342
vn -0.0147 -0.9869 -0.1606
vn -0.0147 -0.9869 -0.1606
vn -0.0147 -0.9869 -0.1606
vn -0.8690 0.0073 -0.4948
vn -0.8613 0.0129 -0.5079
vn -0.8686 0.0186 -0.4951
vn 0.8138 0.0200 0.5807
vn 0.8020 0.0990 0.5890
vn -0.0249 -0.9656 0.2590
vn -0.1560 -0.9685 0.1940
vn -0.1597 -0.9733 0.1648
vn -0.2398 0.2827 0.9287
vn -0.2398 0.2827 0.9287
vn -0.2398 0.2827 0.9287
vn 0.5477 -0.2475 -0.7993
vn 0.6188 0.0357 -0.7848
vn -0.4219 0.5145 0.7466
vn -0.4407 0.5093 0.7392
vn -0.4374 0.5096 0.7409
vn 0.8478 0.2014 0.4906
vn 0.8082 0.0719 0.5845
vn 0.8323 0.1420 0.5359
vn 0.0030 -1.0000 -0.0069
vn 0.0147 -0.9990 0.0425
vn -0.0375 -0.9925 -0.1167
vn -0.6196 -0.1461 0.7712
vn -0.6206 -0.1490 0.7698
vn -0.6201 -0.1474 0.7706
vn 0.7304 0.0595 0.6805
vn 0.7832 0.0130 0.6216
vn 0.1937 -0.2654 -0.9445
vn 0.2916 -0.3467 -0.8915
vn 0.4844 -0.1060 -0.8684
vn -0.0022 -0.9474 0.3200
vn 0.6299 0.7561 -0.1778
vn 0.6284 0.7408 -0.2375
vn 0.4924 0.8592 -0.1392
vn -0.0301 -0.9980 0.0550
vn -0.9601 0.1052 -0.2592
vn 0.8138 -0.0117 0.5811
vn -0.0046 -0.9942 0.1072
vn 0.8326 -0.0948 0.5457
vn -0.6620 0.1014 -0.7426
vn 0.2790 0.7747 -0.5674
vn -0.4884 0.5485 0.6787
vn 0.4234 -0.1359 0.8957
vn 0.6193 -0.0626 0.7827
vn 0.6152 -0.0643 0.7857
vn -0.0290 0.4756 0.8792
vn 0.0137 0.4808 0.8767
vn -0.8380 -0.0064 -0.5456
vn 0.4595 0.8803 -0.1182
vn -0.9309 -0.0479 -0.3622
vn 0.9561 0.0398 -0.2903
vn 0.8107 -0.0917 -0.5783
vn 0.2588 0.8986 -0.3543
vn 0.1999 0.9162 -0.3474
vn -0.6210 -0.1502 0.7692
vn 0.7732 0.0105 0.6340
vn 0.8279 0.0339 0.5598
vn 0.7041 -0.0453 0.7086
vn 0.5870 -0.0057 0.8096
vn 0.7489 -0.1404 0.6476
vn 0.1652 -0.1196 -0.9790
vn 0.1860 -0.9309 -0.3144
vn 0.0726 -0.9837 -0.1647
vn -0.0507 -0.9987 -0.0103
vn 0.8244 0.0263 0.5654
vn 0.6355 -0.1175 -0.7631
vn -0.9487 0.1307 -0.2879
vn -0.4720 0.5664 0.6756
vn -0.0249 -0.9997 0.0085
vn 0.0416 -0.9661 0.2549
vn 0.1931 0.9012 -0.3880
vn -0.6867 0.0348 -0.7261
vn -0.8684 0.0562 -0.4926
vn -0.7020 0.0488 -0.7105
vn -0.0673 -0.9976 -0.0165
vn -0.0138 -0.9999 -0.0058
vn -0.0512 -0.9986 -0.0133
vn 0.0511 -0.9977 0.0455
vn 0.0511 -0.9977 0.0455
vn 0.0511 -0.9977 0.0455
vn 0.5493 0.7776 -0.3059
vn 0.5493 0.7776 -0.3059
vn 0.5493 0.7776 -0.3059
vn -0.5730 -0.1290 -0.8094
vn -0.1743 0.9799 -0.0969
vn -0.1410 0.9890 0.0442
vn -0.1479 0.9563 0.2521
vn -0.3585 -0.9288 0.0944
vn 0.5409 0.0378 0.8403
vn -0.3222 0.4900 0.8100
vn -0.3259 0.5150 0.7928
vn -0.3187 0.4685 0.8240
vn -0.8814 0.0175 -0.4721
vn 0.2291 0.9299 -0.2876
vn -0.9396 0.1876 -0.2863
vn -0.8657 0.1074 0.4888
vn -0.9087 0.0402 0.4155
vn -0.9552 -0.0683 0.2879
vn -0.0027 -1.0000 0.0084
vn -0.9462 0.0767 0.3143
vn -0.9462 0.0767 0.3143
vn -0.9462 0.0767 0.3143
vn 0.0262 0.4838 0.8748
vn -0.9133 -0.0492 -0.4044
vn -0.9717 -0.1539 0.1793
vn -0.2268 -0.9283 0.2945
vn -0.2224 -0.9340 0.2797
vn -0.2256 -0.9298 0.2907
vn -0.8435 -0.0550 -0.5344
vn -0.8098 -0.0083 -0.5867
vn -0.8456 -0.0582 -0.5306
vn -0.9330 0.1927 -0.3039
vn -0.3292 0.5379 0.7761
vn 0.2976 0.9424 -0.1525
vn -0.0148 -0.9946 0.1027
vn -0.8935 0.0017 -0.4491
vn -0.8904 0.0195 -0.4547
vn -0.6184 0.2665 0.7393
vn -0.6280 0.0783 0.7742
vn -0.6527 0.3532 0.6702
vn -0.7110 0.0718 0.6995
vn -0.0429 0.9939 0.1016
vn -0.0014 -1.0000 -0.0032
vn 0.4106 -0.0348 0.9111
vn -0.5620 -0.0195 0.8269
vn -0.4413 0.4113 0.7975
vn -0.5010 0.3185 0.8047
vn -0.5048 0.3731 0.7784
vn -0.1022 -0.9900 0.0977
vn -0.4994 -0.0486 0.8650
vn -0.6658 -0.0331 0.7454
vn -0.5532 -0.0559 0.8312
vn -0.5319 -0.0598 0.8447
vn -0.8667 -0.0921 -0.4902
vn -0.6039 -0.3700 -0.7060
vn -0.6039 -0.3700 -0.7060
vn -0.6039 -0.3700 -0.7060
vn 0.8371 -0.0966 0.5384
vn 0.9014 0.0614 0.4285
vn 0.8219 -0.1534 0.5485
vn -0.0954 -0.9895 0.1082
vn -0.6109 0.7915 0.0187
vn -0.6109 0.7915 0.0187
vn -0.6109 0.7915 0.0187
vn -0.7746 0.2729 0.5705
vn -0.1332 0.7432 -0.6557
vn -0.1486 0.7285 -0.6687
vn -0.0709 0.7971 -0.5997
vn 0.7438 -0.0795 0.6637
vn 0.6204 -0.0946 -0.7785
vn 0.6027 -0.1584 -0.7821
vn 0.6586 -0.1406 -0.7392
vn -0.2217 -0.9348 0.2774
vn 0.5926 -0.2066 -0.7785
vn 0.5802 -0.0842 -0.8101
vn -0.2590 0.6186 0.7418
vn -0.8704 0.0103 -0.4923
vn -0.7371 -0.0165 0.6756
vn -0.1072 0.6698 0.7348
vn -0.8741 0.0070 -0.4857
vn -0.5453 -0.0601 0.8361
vn -0.4291 0.4442 0.7865
vn -0.9244 0.1972 -0.3264
vn -0.0573 0.8077 -0.5868
vn -0.5933 -0.8047 0.0239
vn -0.5933 -0.8047 0.0239
vn -0.5933 -0.8047 0.0239
vn -0.9152 0.0493 -0.4001
vn -0.9152 0.0493 -0.4001
vn -0.9152 0.0493 -0.4001
vn 0.6494 -0.0681 0.7574
vn 0.7100 -0.0412 0.7030
vn 0.8032 0.0063 0.5956
vn -0.1709 0.9786 -0.1143
vn 0.7719 -0.3905 -0.5016
vn 0.7703 -0.3652 -0.5228
vn 0.7664 -0.5174 -0.3806
vn -0.7647 -0.0099 -0.6443
vn -0.7654 -0.0636 -0.6404
vn -0.7649 -0.0915 -0.6377
vn -0.7572 -0.3217 -0.5684
vn -0.7572 -0.3217 -0.5684
vn -0.7572 -0.3217 -0.5684
vn 0.8132 -0.1260 0.5682
vn 0.0803 0.7141 0.6954
vn 0.0211 -0.9990 0.0387
vn 0.0251 -0.9989 0.0395
vn 0.0225 -0.9990 0.0390
vn -0.7636 0.0166 -0.6455
vn 0.7600 -0.2847 -0.5842
vn -0.7687 0.2351 -0.5948
vn -0.8180 0.1892 -0.5432
vn -0.8752 0.1252 -0.4673
vn 0.2814 -0.1100 -0.9533
vn 0.2814 -0.1100 -0.9533
vn 0.2814 -0.1100 -0.9533
vn 0.8522 0.0359 0.5220
vn -0.2586 0.2894 0.9216
vn -0.3505 -0.8884 0.2966
vn -0.4689 -0.8246 0.3166
vn -0.3758 -0.8776 0.2976
vn 0.8120 -0.0277 0.5830
vn 0.3313 -0.1185 0.9361
vn 0.4995 -0.0488 0.8649
vn 0.2747 0.9448 -0.1785
vn 0.2773 0.9448 -0.1746
vn 0.2377 0.9427 -0.2342
vn 0.3082 0.9430 -0.1258
vn 0.0109 0.9984 0.0564
vn -0.8318 -0.0193 -0.5547
vn -0.8299 -0.0273 -0.5572
vn -0.8348 -0.0067 -0.5505
vn -0.7185 0.6943 -0.0412
vn -0.7185 0.6943 -0.0412
vn -0.7185 0.6943 -0.0412
vn -0.9989 -0.0458 0.0118
vn -0.9927 -0.0066 -0.1205
vn -0.9994 0.0320 -0.0119
vn -0.9173 0.0653 -0.3928
vn -0.8703 0.3519 0.3446
vn -0.8703 0.3519 0.3446
vn -0.8703 0.3519 0.3446
vn -0.4077 -0.8848 0.2258
vn -0.4077 -0.8848 0.2258
vn -0.4077 -0.8848 0.2258
vn -0.8365 0.0008 -0.5480
vn -0.6709 0.0813 0.7371
vn -0.6100 0.0596 0.7902
vn -0.5894 0.0521 0.8062
vn -0.9890 0.1102 0.0982
vn -0.9917 -0.0610 0.1130
vn -0.9433 0.2899 0.1615
vn -0.1985 -0.9794 -0.0358
vn -0.2187 -0.9739 -0.0605
vn -0.2151 -0.9750 -0.0560
vn -0.2661 0.9386 -0.2195
vn -0.0081 0.9996 0.0268
vn -0.7022 0.0851 0.7068
vn -0.1954 -0.9802 -0.0320
vn -0.8190 0.3849 -0.4255
vn -0.7813 0.4906 -0.3859
vn -0.8339 0.3287 -0.4434
vn -0.8236 0.0518 -0.5648
vn -0.8285 0.0855 -0.5534
vn -0.8175 0.0168 -0.5758
vn 0.0263 -0.9989 0.0398
vn -0.6995 0.0829 0.7098
vn -0.8502 0.2434 -0.4669
vn -0.7321 0.0651 0.6781
vn -0.7653 -0.1604 -0.6234
vn -0.7263 -0.2351 -0.6459
vn -0.7882 -0.1095 -0.6056
vn -0.2377 -0.9598 0.1494
vn -0.2345 -0.9589 0.1595
vn -0.2485 -0.9673 0.0505
vn -0.8123 -0.0086 -0.5832
vn -0.6195 0.1383 0.7727
vn -0.6209 0.1363 0.7719
vn -0.6249 0.1307 0.7697
vn -0.8252 -0.0087 -0.5647
vn -0.6157 0.1436 0.7748
vn -0.1240 0.5291 0.8394
f 322/322/322 323/323/323 324/324/324
f 322/322/322 324/324/324 325/325/325
f 326/326/326 327/327/327 328/328/328
f 328/328/328 327/327/327 329/329/329
f 330/330/330 331/331/331 332/332/332
f 333/333/333 334/334/334 335/335/335
f 323/323/323 336/336/336 337/337/337
f 324/324/324 323/323/323 337/337/337
f 325/325/325 324/324/324 338/338/338
f 339/339/339 340/340/340 330/330/330
f 341/341/341 326/326/326 328/328/328
f 342/342/342 343/343/343 344/344/344
f 337/337/337 338/338/338 324/324/324
f 345/345/345 333/333/333 335/335/335
f 1/1/1 2/2/2 3/3/3
f 4/4/4 5/5/5 6/6/6
f 335/335/335 346/346/346 345/345/345
f 7/7/7 8/8/8 9/9/9
f 10/10/10 11/11/11 12/12/12
f 347/347/347 348/348/348 349/349/349
f 7/7/7 9/9/9 13/13/13
f 14/14/14 15/15/15 16/16/16
f 12/12/12 17/17/17 10/10/10
f 18/18/18 19/19/19 20/20/20
f 330/330/330 350/350/350 331/331/331
f 21/21/21 22/22/22 23/23/23
f 9/9/9 24/24/24 13/13/13
f 340/340/340 350/350/350 330/330/330
f 408/408/408 409/409/409 410/410/410
f 4/4/4 25/25/25 26/26/26
f 409/409/409 408/408/408 411/411/411
f 328/328/328 351/351/351 341/341/341
f 25/25/25 4/4/4 6/6/6
f 27/27/27 28/28/28 29/29/29
f 30/30/30 31/31/31 32/32/32
f 352/352/352 353/353/353 354/354/354
f 355/355/355 340/340/340 339/339/339
f 338/338/338 356/356/356 325/325/325
f 357/357/357 358/358/358 359/359/359
f 33/33/33 34/34/34 35/35/35
f 36/36/36 37/37/37 38/38/38
f 412/412/412 413/413/413 414/414/414
f 415/415/415 416/416/416 417/417/417
f 418/418/418 412/412/412 414/414/414
f 360/360/360 361/361/361 362/362/362
f 363/363/363 364/364/364 365/365/365
f 39/39/39 40/40/40 41/41/41
f 366/366/366 367/367/367 368/368/368
f 42/42/42 320/320/320 43/43/43
f 341/341/341 369/369/369 370/370/370
f 415/415/415 417/417/417 419/419/419
f 420/420/420 410/410/410 421/421/421
f 371/371/371 372/372/372 373/373/373
f 351/351/351 369/369/369 341/341/341
f 422/422/422 423/423/423 424/424/424
f 366/366/366 374/374/374 367/367/367
f 44/44/44 45/45/45 46/46/46
f 425/425/425 426/426/426 427/427/427
f 47/47/47 48/48/48 49/49/49
f 356/356/356 338/338/338 337/337/337
f 414/414/414 428/428/428 418/418/418
f 429/429/429 430/430/430 431/431/431
f 371/371/371 373/373/373 375/375/375
f 432/432/432 423/423/423 422/422/422
f 376/376/376 366/366/366 368/368/368
f 50/50/50 51/51/51 52/52/52
f 408/408/408 410/410/410 420/420/420
f 44/44/44 53/53/53 45/45/45
f 377/377/377 347/347/347 349/349/349
f 433/433/433 434/434/434 435/435/435
f 378/378/378 379/379/379 380/380/380
f 436/436/436 437/437/437 438/438/438
f 439/439/439 430/430/430 429/429/429
f 381/381/381 382/382/382 383/383/383
f 440/440/440 441/441/441 442/442/442
f 443/443/443 444/444/444 445/445/445
f 426/426/426 446/446/446 447/447/447
f 434/434/434 433/433/433 448/448/448
f 54/54/54 50/50/50 55/55/55
f 449/449/449 450/450/450 451/451/451
f 384/384/384 383/383/383 382/382/382
f 452/452/452 436/436/436 438/438/438
f 349/349/349 385/385/385 377/377/377
f 56/56/56 57/57/57 58/58/58
f 59/59/59 60/60/60 61/61/61
f 453/453/453 454/454/454 455/455/455
f 443/443/443 434/434/434 444/444/444
f 386/386/386 387/387/387 388/388/388
f 62/62/62 63/63/63 64/64/64
f 456/456/456 457/457/457 458/458/458
f 50/50/50 52/52/52 55/55/55
f 65/65/65 66/66/66 67/67/67
f 447/447/447 427/427/427 426/426/426
f 62/62/62 64/64/64 68/68/68
f 69/69/69 70/70/70 71/71/71
f 459/459/459 460/460/460 461/461/461
f 72/72/72 73/73/73 74/74/74
f 442/442/442 462/462/462 463/463/463
f 464/464/464 465/465/465 466/466/466
f 436/436/436 452/452/452 467/467/467
f 389/389/389 370/370/370 369/369/369
f 468/468/468 469/469/469 470/470/470
f 471/471/471 472/472/472 473/473/473
f 75/75/75 76/76/76 77/77/77
f 78/78/78 79/79/79 80/80/80
f 442/442/442 463/463/463 440/440/440
f 457/457/457 456/456/456 474/474/474
f 475/475/475 449/449/449 451/451/451
f 70/70/70 81/81/81 71/71/71
f 82/82/82 78/78/78 80/80/80
f 476/476/476 477/477/477 478/478/478
f 479/479/479 480/480/480 481/481/481
f 460/460/460 482/482/482 461/461/461
f 483/483/483 484/484/484 485/485/485
f 486/486/486 463/463/463 462/462/462
f 83/83/83 84/84/84 85/85/85
f 487/487/487 488/488/488 489/489/489
f 388/388/388 387/387/387 390/390/390
f 86/86/86 34/34/34 33/33/33
f 87/87/87 88/88/88 89/89/89
f 490/490/490 491/491/491 492/492/492
f 90/90/90 91/91/91 92/92/92
f 493/493/493 477/477/477 494/494/494
f 495/495/495 496/496/496 497/497/497
f 93/93/93 94/94/94 95/95/95
f 491/491/491 498/498/498 492/492/492
f 478/478/478 477/477/477 493/493/493
f 391/391/391 392/392/392 393/393/393
f 487/487/487 499/499/499 500/500/500
f 96/96/96 97/97/97 98/98/98
f 499/499/499 487/487/487 489/489/489
f 501/501/501 434/434/434 448/448/448
f 502/502/502 503/503/503 504/504/504
f 99/99/99 100/100/100 101/101/101
f 62/62/62 68/68/68 102/102/102
f 103/103/103 58/58/58 57/57/57
f 70/70/70 104/104/104 81/81/81
f 505/505/505 506/506/506 507/507/507
f 508/508/508 509/509/509 510/510/510
f 511/511/511 493/493/493 494/494/494
f 501/501/501 444/444/444 434/434/434
f 512/512/512 513/513/513 514/514/514
f 515/515/515 516/516/516 517/517/517
f 83/83/83 105/105/105 84/84/84
f 99/99/99 106/106/106 100/100/100
f 509/509/509 508/508/508 518/518/518
f 107/107/107 108/108/108 88/88/88
f 407/407/407 394/394/394 395/395/395
f 498/498/498 519/519/519 492/492/492
f 518/518/518 508/508/508 520/520/520
f 109/109/109 110/110/110 111/111/111
f 521/521/521 522/522/522 523/523/523
f 462/462/462 524/524/524 525/525/525
f 112/112/112 73/73/73 72/72/72
f 113/113/113 114/114/114 321/321/321
f 526/526/526 527/527/527 528/528/528
f 115/115/115 116/116/116 117/117/117
f 529/529/529 530/530/530 531/531/531
f 532/532/532 533/533/533 534/534/534
f 535/535/535 536/536/536 537/537/537
f 512/512/512 538/538/538 513/513/513
f 503/503/503 539/539/539 504/504/504
f 540/540/540 541/541/541 542/542/542
f 118/118/118 119/119/119 120/120/120
f 532/532/532 543/543/543 533/533/533
f 544/544/544 545/545/545 546/546/546
f 121/121/121 41/41/41 122/122/122
f 123/123/123 124/124/124 125/125/125
f 106/106/106 99/99/99 126/126/126
f 486/486/486 462/462/462 525/525/525
f 486/486/486 525/525/525 547/547/547
f 40/40/40 127/127/127 122/122/122
f 109/109/109 111/111/111 128/128/128
f 122/122/122 41/41/41 40/40/40
f 548/548/548 509/509/509 518/518/518
f 129/129/129 130/130/130 131/131/131
f 549/549/549 550/550/550 551/551/551
f 542/542/542 541/541/541 552/552/552
f 553/553/553 554/554/554 555/555/555
f 541/541/541 556/556/556 552/552/552
f 132/132/132 133/133/133 134/134/134
f 135/135/135 136/136/136 137/137/137
f 557/557/557 558/558/558 559/559/559
f 560/560/560 561/561/561 562/562/562
f 563/563/563 564/564/564 565/565/565
f 138/138/138 139/139/139 140/140/140
f 566/566/566 567/567/567 568/568/568
f 569/569/569 570/570/570 571/571/571
f 141/141/141 94/94/94 93/93/93
f 572/572/572 573/573/573 574/574/574
f 573/573/573 575/575/575 574/574/574
f 142/142/142 143/143/143 144/144/144
f 544/544/544 546/546/546 576/576/576
f 577/577/577 578/578/578 579/579/579
f 549/549/549 551/551/551 580/580/580
f 96/96/96 98/98/98 145/145/145
f 561/561/561 581/581/581 562/562/562
f 582/582/582 583/583/583 584/584/584
f 585/585/585 586/586/586 587/587/587
f 588/588/588 589/589/589 590/590/590
f 146/146/146 88/88/88 87/87/87
f 577/577/577 591/591/591 578/578/578
f 585/585/585 592/592/592 586/586/586
f 593/593/593 594/594/594 595/595/595
f 596/596/596 574/574/574 575/575/575
f 597/597/597 598/598/598 559/559/559
f 599/599/599 600/600/600 575/575/575
f 555/555/555 554/554/554 601/601/601
f 536/536/536 535/535/535 602/602/602
f 147/147/147 148/148/148 149/149/149
f 584/584/584 603/603/603 604/604/604
f 605/605/605 606/606/606 607/607/607
f 529/529/529 608/608/608 530/530/530
f 609/609/609 610/610/610 611/611/611
f 107/107/107 88/88/88 146/146/146
f 546/546/546 612/612/612 576/576/576
f 396/396/396 390/390/390 387/387/387
f 613/613/613 614/614/614 615/615/615
f 616/616/616 617/617/617 618/618/618
f 619/619/619 620/620/620 621/621/621
f 622/622/622 623/623/623 624/624/624
f 137/137/137 150/150/150 135/135/135
f 583/583/583 625/625/625 584/584/584
f 559/559/559 598/598/598 557/557/557
f 626/626/626 627/627/627 628/628/628
f 138/138/138 151/151/151 146/146/146
f 629/629/629 630/630/630 631/631/631
f 397/397/397 398/398/398 399/399/399
f 138/138/138 146/146/146 152/152/152
f 632/632/632 444/444/444 633/633/633
f 400/400/400 401/401/401 402/402/402
f 625/625/625 583/583/583 603/603/603
f 634/634/634 635/635/635 636/636/636
f 637/637/637 570/570/570 569/569/569
f 638/638/638 639/639/639 640/640/640
f 620/620/620 641/641/641 621/621/621
f 627/627/627 626/626/626 642/642/642
f 568/568/568 567/567/567 643/643/643
f 633/633/633 444/444/444 501/501/501
f 635/635/635 644/644/644 636/636/636
f 139/139/139 138/138/138 152/152/152
f 645/645/645 588/588/588 590/590/590
f 646/646/646 647/647/647 648/648/648
f 649/649/649 647/647/647 646/646/646
f 615/615/615 614/614/614 650/650/650
f 598/598/598 651/651/651 557/557/557
f 603/603/603 584/584/584 625/625/625
f 596/596/596 575/575/575 600/600/600
f 652/652/652 653/653/653 654/654/654
f 655/655/655 656/656/656 950/950/950
f 563/563/563 565/565/565 657/657/657
f 658/658/658 659/659/659 660/660/660
f 603/603/603 661/661/661 604/604/604
f 153/153/153 154/154/154 155/155/155
f 593/593/593 595/595/595 662/662/662
f 546/546/546 663/663/663 664/664/664
f 665/665/665 666/666/666 667/667/667
f 668/668/668 669/669/669 670/670/670
f 403/403/403 404/404/404 405/405/405
f 156/156/156 54/54/54 157/157/157
f 671/671/671 672/672/672 673/673/673
f 674/674/674 675/675/675 676/676/676
f 658/658/658 660/660/660 677/677/677
f 612/612/612 546/546/546 664/664/664
f 678/678/678 629/629/629 631/631/631
f 647/647/647 649/649/649 679/679/679
f 680/680/680 681/681/681 682/682/682
f 683/683/683 684/684/684 685/685/685
f 686/686/686 687/687/687 688/688/688
f 158/158/158 132/132/132 134/134/134
f 159/159/159 160/160/160 161/161/161
f 689/689/689 690/690/690 691/691/691
f 692/692/692 647/647/647 679/679/679
f 162/162/162 157/157/157 54/54/54
f 596/596/596 600/600/600 693/693/693
f 146/146/146 87/87/87 163/163/163
f 164/164/164 165/165/165 166/166/166
f 159/159/159 161/161/161 167/167/167
f 694/694/694 695/695/695 696/696/696
f 162/162/162 54/54/54 55/55/55
f 697/697/697 698/698/698 699/699/699
f 168/168/168 169/169/169 170/170/170
f 700/700/700 701/701/701 621/621/621
f 702/702/702 703/703/703 704/704/704
f 403/403/403 406/406/406 404/404/404
f 155/155/155 171/171/171 153/153/153
f 705/705/705 706/706/706 707/707/707
f 708/708/708 709/709/709 710/710/710
f 106/106/106 126/126/126 172/172/172
f 711/711/711 712/712/712 713/713/713
f 680/680/680 682/682/682 714/714/714
f 706/706/706 715/715/715 707/707/707
f 716/716/716 717/717/717 718/718/718
f 695/695/695 694/694/694 719/719/719
f 171/171/171 173/173/173 153/153/153
f 720/720/720 721/721/721 722/722/722
f 659/659/659 723/723/723 660/660/660
f 669/669/669 724/724/724 670/670/670
f 152/152/152 146/146/146 174/174/174
f 725/725/725 693/693/693 600/600/600
f 708/708/708 726/726/726 709/709/709
f 600/600/600 727/727/727 725/725/725
f 728/728/728 651/651/651 598/598/598
f 535/535/535 729/729/729 602/602/602
f 702/702/702 704/704/704 730/730/730
f 731/731/731 732/732/732 733/733/733
f 734/734/734 950/950/950 656/656/656
f 735/735/735 950/950/950 734/734/734
f 690/690/690 689/689/689 736/736/736
f 720/720/720 722/722/722 737/737/737
f 603/603/603 738/738/738 661/661/661
f 739/739/739 740/740/740 718/718/718
f 741/741/741 729/729/729 742/742/742
f 713/713/713 712/712/712 743/743/743
f 744/744/744 733/733/733 732/732/732
f 745/745/745 692/692/692 679/679/679
f 746/746/746 747/747/747 748/748/748
f 718/718/718 749/749/749 716/716/716
f 750/750/750 751/751/751 752/752/752
f 745/745/745 753/753/753 692/692/692
f 718/718/718 740/740/740 754/754/754
f 724/724/724 755/755/755 670/670/670
f 756/756/756 702/702/702 730/730/730
f 165/165/165 164/164/164 175/175/175
f 593/593/593 662/662/662 757/757/757
f 741/741/741 602/602/602 729/729/729
f 146/146/146 163/163/163 176/176/176
f 683/683/683 758/758/758 684/684/684
f 759/759/759 741/741/741 742/742/742
f 177/177/177 178/178/178 139/139/139
f 760/760/760 761/761/761 762/762/762
f 763/763/763 764/764/764 765/765/765
f 766/766/766 767/767/767 768/768/768
f 179/179/179 168/168/168 170/170/170
f 769/769/769 770/770/770 771/771/771
f 177/177/177 139/139/139 152/152/152
f 180/180/180 181/181/181 182/182/182
f 183/183/183 184/184/184 185/185/185
f 754/754/754 749/749/749 718/718/718
f 185/185/185 184/184/184 186/186/186
f 160/160/160 159/159/159 187/187/187
f 188/188/188 189/189/189 190/190/190
f 762/762/762 772/772/772 760/760/760
f 773/773/773 774/774/774 775/775/775
f 776/776/776 696/696/696 695/695/695
f 747/747/747 746/746/746 777/777/777
f 191/191/191 192/192/192 193/193/193
f 174/174/174 146/146/146 176/176/176
f 778/778/778 779/779/779 780/780/780
f 761/761/761 781/781/781 762/762/762
f 678/678/678 631/631/631 782/782/782
f 724/724/724 783/783/783 755/755/755
f 784/784/784 785/785/785 786/786/786
f 194/194/194 195/195/195 196/196/196
f 757/757/757 662/662/662 787/787/787
f 641/641/641 700/700/700 621/621/621
f 788/788/788 789/789/789 790/790/790
f 734/734/734 791/791/791 735/735/735
f 792/792/792 781/781/781 761/761/761
f 197/197/197 198/198/198 199/199/199
f 786/786/786 785/785/785 793/793/793
f 794/794/794 795/795/795 796/796/796
f 175/175/175 164/164/164 200/200/200
f 797/797/797 798/798/798 799/799/799
f 724/724/724 800/800/800 783/783/783
f 778/778/778 801/801/801 779/779/779
f 737/737/737 722/722/722 802/802/802
f 709/709/709 726/726/726 803/803/803
f 201/201/201 202/202/202 203/203/203
f 804/804/804 805/805/805 781/781/781
f 806/806/806 807/807/807 808/808/808
f 806/806/806 809/809/809 807/807/807
f 774/774/774 810/810/810 775/775/775
f 765/765/765 764/764/764 811/811/811
f 812/812/812 747/747/747 777/777/777
f 792/792/792 804/804/804 781/781/781
f 813/813/813 807/807/807 809/809/809
f 204/204/204 205/205/205 206/206/206
f 207/207/207 208/208/208 209/209/209
f 814/814/814 815/815/815 816/816/816
f 751/751/751 817/817/817 752/752/752
f 813/813/813 818/818/818 807/807/807
f 819/819/819 820/820/820 821/821/821
f 210/210/210 211/211/211 212/212/212
f 213/213/213 214/214/214 215/215/215
f 216/216/216 189/189/189 188/188/188
f 797/797/797 799/799/799 822/822/822
f 823/823/823 824/824/824 825/825/825
f 217/217/217 218/218/218 219/219/219
f 202/202/202 220/220/220 203/203/203
f 826/826/826 827/827/827 828/828/828
f 221/221/221 222/222/222 223/223/223
f 817/817/817 751/751/751 829/829/829
f 830/830/830 831/831/831 832/832/832
f 833/833/833 808/808/808 807/807/807
f 834/834/834 835/835/835 836/836/836
f 223/223/223 224/224/224 221/221/221
f 826/826/826 828/828/828 837/837/837
f 225/225/225 226/226/226 227/227/227
f 838/838/838 839/839/839 840/840/840
f 795/795/795 841/841/841 796/796/796
f 228/228/228 229/229/229 225/225/225
f 230/230/230 211/211/211 210/210/210
f 842/842/842 839/839/839 843/843/843
f 844/844/844 756/756/756 730/730/730
f 805/805/805 804/804/804 845/845/845
f 819/819/819 846/846/846 820/820/820
f 844/844/844 847/847/847 756/756/756
f 231/231/231 232/232/232 233/233/233
f 848/848/848 736/736/736 689/689/689
f 807/807/807 818/818/818 849/849/849
f 850/850/850 814/814/814 816/816/816
f 783/783/783 800/800/800 851/851/851
f 215/215/215 214/214/214 234/234/234
f 235/235/235 189/189/189 216/216/216
f 834/834/834 836/836/836 852/852/852
f 853/853/853 854/854/854 855/855/855
f 229/229/229 226/226/226 225/225/225
f 856/856/856 857/857/857 858/858/858
f 859/859/859 860/860/860 861/861/861
f 774/774/774 862/862/862 810/810/810
f 838/838/838 843/843/843 839/839/839
f 236/236/236 237/237/237 238/238/238
f 863/863/863 864/864/864 865/865/865
f 866/866/866 867/867/867 868/868/868
f 869/869/869 870/870/870 871/871/871
f 872/872/872 826/826/826 837/837/837
f 847/847/847 844/844/844 873/873/873
f 874/874/874 875/875/875 876/876/876
f 867/867/867 866/866/866 877/877/877
f 863/863/863 878/878/878 864/864/864
f 879/879/879 880/880/880 881/881/881
f 882/882/882 883/883/883 884/884/884
f 239/239/239 240/240/240 241/241/241
f 860/860/860 885/885/885 861/861/861
f 242/242/242 160/160/160 187/187/187
f 850/850/850 886/886/886 814/814/814
f 887/887/887 888/888/888 889/889/889
f 837/837/837 890/890/890 872/872/872
f 837/837/837 891/891/891 892/892/892
f 893/893/893 894/894/894 895/895/895
f 893/893/893 896/896/896 894/894/894
f 243/243/243 244/244/244 245/245/245
f 897/897/897 810/810/810 862/862/862
f 898/898/898 899/899/899 900/900/900
f 901/901/901 902/902/902 903/903/903
f 837/837/837 892/892/892 890/890/890
f 904/904/904 905/905/905 906/906/906
f 243/243/243 245/245/245 246/246/246
f 240/240/240 239/239/239 247/247/247
f 880/880/880 907/907/907 881/881/881
f 908/908/908 909/909/909 910/910/910
f 911/911/911 912/912/912 913/913/913
f 914/914/914 898/898/898 900/900/900
f 915/915/915 916/916/916 917/917/917
f 248/248/248 249/249/249 250/250/250
f 251/251/251 252/252/252 253/253/253
f 904/904/904 918/918/918 919/919/919
f 906/906/906 920/920/920 918/918/918
f 921/921/921 922/922/922 923/923/923
f 924/924/924 925/925/925 862/862/862
f 926/926/926 916/916/916 915/915/915
f 906/906/906 918/918/918 904/904/904
f 923/923/923 927/927/927 921/921/921
f 187/187/187 254/254/254 242/242/242
f 928/928/928 929/929/929 930/930/930
f 931/931/931 932/932/932 933/933/933
f 255/255/255 256/256/256 257/257/257
f 876/876/876 875/875/875 934/934/934
f 926/926/926 915/915/915 935/935/935
f 258/258/258 259/259/259 260/260/260
f 928/928/928 930/930/930 936/936/936
f 261/261/261 262/262/262 263/263/263
f 897/897/897 862/862/862 925/925/925
f 935/935/935 937/937/937 926/926/926
f 258/258/258 260/260/260 264/264/264
f 938/938/938 939/939/939 940/940/940
f 941/941/941 887/887/887 889/889/889
f 265/265/265 266/266/266 267/267/267
f 265/265/265 268/268/268 266/266/266
f 942/942/942 943/943/943 941/941/941
f 269/269/269 250/250/250 249/249/249
f 270/270/270 271/271/271 272/272/272
f 933/933/933 944/944/944 931/931/931
f 945/945/945 946/946/946 947/947/947
f 242/242/242 254/254/254 273/273/273
f 948/948/948 938/938/938 940/940/940
f 249/249/249 274/274/274 269/269/269
f 275/275/275 276/276/276 277/277/277
f 941/941/941 889/889/889 942/942/942
f 264/264/264 278/278/278 279/279/279
f 280/280/280 281/281/281 282/282/282
f 278/278/278 264/264/264 260/260/260
f 281/281/281 280/280/280 283/283/283
f 946/946/946 945/945/945 949/949/949
f 284/284/284 279/279/279 278/278/278
f 285/285/285 286/286/286 287/287/287
f 275/275/275 288/288/288 276/276/276
f 289/289/289 290/290/290 291/291/291
f 285/285/285 287/287/287 292/292/292
f 293/293/293 294/294/294 295/295/295
f 260/260/260 296/296/296 278/278/278
f 297/297/297 260/260/260 298/298/298
f 299/299/299 300/300/300 301/301/301
f 301/301/301 302/302/302 299/299/299
f 303/303/303 253/253/253 252/252/252
f 304/304/304 305/305/305 295/295/295
f 306/306/306 307/307/307 308/308/308
f 260/260/260 297/297/297 296/296/296
f 288/288/288 309/309/309 276/276/276
f 295/295/295 310/310/310 293/293/293
f 295/295/295 305/305/305 310/310/310
f 253/253/253 303/303/303 311/311/311
f 312/312/312 313/313/313 314/314/314
f 315/315/315 316/316/316 317/317/317
f 318/318/318 307/307/307 306/306/306
f 313/313/313 319/319/319 314/314/314
