o leg_right_1
v 2.48773 1.86240 -1.75889
v 2.47101 2.11433 -1.56607
v 2.47549 1.86218 -1.64429
v 2.48773 1.86240 -1.75889
v 2.47549 1.86218 -1.64429
v 2.42637 1.77236 -1.72663
v 2.30077 2.15927 -1.81266
v 2.47101 2.11433 -1.56607
v 2.48773 1.86240 -1.75889
v 2.32007 1.76355 -1.51149
v 2.32115 1.92945 -1.90726
v 2.48773 1.86240 -1.75889
v 2.42637 1.77236 -1.72663
v 2.32115 1.92945 -1.90726
v 2.24170 1.63664 -1.61932
v 2.14046 1.66015 -1.71079
v 2.24170 1.63664 -1.61932
v 2.14046 1.66015 -1.71079
v 2.12613 1.85061 -1.75074
v 2.32115 1.92945 -1.90726
v 2.30077 2.15927 -1.81266
v 2.32007 1.76355 -1.51149
v 2.10644 2.09112 -1.55246
v 2.14046 1.66015 -1.71079
v 2.24170 1.63664 -1.61932
v 2.14046 1.66015 -1.71079
v 2.10644 2.09112 -1.55246
v 2.12613 1.85061 -1.75074
v 2.45532 3.69189 -0.77254
v 2.38720 3.77243 -0.77016
v 2.08709 3.62028 -0.65540
v 2.06057 3.67037 -0.68205
v 2.22104 3.91864 -0.92122
v 2.00211 3.44957 -0.61198
v 2.21207 3.73722 -1.15176
v 2.22104 3.91864 -0.92122
v 2.38720 3.77243 -0.77016
v 2.17503 3.94717 -1.03554
v 2.16523 3.82426 -1.18344
v 1.94131 3.80793 -0.82082
v 2.17503 3.94717 -1.03554
v 2.16523 3.82426 -1.18344
v 2.15279 3.70655 -1.28513
v 1.83434 3.63012 -1.13068
v 1.89982 3.68751 -1.09427
v 2.17503 3.94717 -1.03554
v 2.06057 3.67037 -0.68205
v 1.94131 3.80793 -0.82082
v 2.08709 3.62028 -0.65540
v 1.89479 3.80624 -0.92267
v 2.08709 3.62028 -0.65540
v 1.94131 3.80793 -0.82082
v 1.45688 3.57100 -0.58361
v 2.12179 3.31881 -0.73166
v 1.51777 3.02205 -0.58703
v 1.89479 3.80624 -0.92267
v 1.75130 3.11453 -0.62446
v 2.12179 3.31881 -0.73166
v 1.51777 3.02205 -0.58703
v 1.45688 3.57100 -0.58361
v 1.52147 3.22388 -0.45992
v 1.55835 3.42953 -0.45578
v 1.55835 3.42953 -0.45578
v 1.33226 3.19940 -1.00699
v 1.83434 3.63012 -1.13068
v 1.97935 3.41546 -1.18741
v 1.52147 3.22388 -0.45992
v 1.51777 3.02205 -0.58703
v 1.56520 2.96829 -0.67175
v 1.75130 3.11453 -0.62446
v 1.38992 3.61051 -0.74094
v 1.52147 3.22388 -0.45992
v 1.51953 3.37386 -0.53138
v 1.47981 3.34229 -0.50133
v 1.51953 3.37386 -0.53138
v 1.52147 3.22388 -0.45992
v 1.55835 3.42953 -0.45578
v 1.33226 3.19940 -1.00699
v 1.93246 3.30080 -1.08628
v 1.44180 3.01454 -0.88772
v 1.56520 2.96829 -0.67175
v 1.51777 3.02205 -0.58703
v 1.51155 3.01082 -0.69593
v 1.45688 3.57100 -0.58361
v 1.38992 3.61051 -0.74094
v 1.51155 3.01082 -0.69593
v 1.51777 3.02205 -0.58703
v 1.49729 2.96011 -0.65450
v 1.40185 3.48437 -0.57304
v 1.45688 3.57100 -0.58361
v 1.44180 3.01454 -0.88772
v 1.47891 3.05127 -0.34359
v 1.63010 2.98178 -0.38625
v 1.38007 2.80336 -0.46806
v 1.52147 3.22388 -0.45992
v 1.46223 3.20096 -0.59052
v 1.51777 3.02205 -0.58703
v 1.51777 3.02205 -0.58703
v 1.46223 3.20096 -0.59052
v 1.47217 3.00608 -0.55910
v 1.47981 3.34229 -0.50133
v 1.47217 3.00608 -0.55910
v 1.42851 3.29139 -0.45518
v 1.39657 2.94603 -0.46620
v 1.46223 3.20096 -0.59052
v 1.49729 2.96011 -0.65450
v 1.51777 3.02205 -0.58703
v 1.36952 2.93617 -0.55403
v 1.44180 3.01454 -0.88772
v 1.47217 3.00608 -0.55910
v 1.39657 2.94603 -0.46620
v 1.36952 2.93617 -0.55403
v 1.46223 3.20096 -0.59052
v 1.47981 3.34229 -0.50133
v 1.40897 3.31449 -0.51988
v 1.47981 3.34229 -0.50133
v 1.40185 3.48437 -0.57304
v 1.40897 3.31449 -0.51988
v 1.40897 3.31449 -0.51988
v 1.47217 3.00608 -0.55910
v 1.32001 3.41309 -0.96611
v 1.34908 2.89458 -0.69474
v 1.44180 3.01454 -0.88772
v 1.34908 2.89458 -0.69474
v 1.30603 3.14752 -0.85984
v 1.32665 3.40851 -0.56952
v 1.34908 2.89458 -0.69474
v 1.41769 2.89948 -0.69875
v 1.35051 2.84745 -0.91847
v 1.46185 2.87768 -0.66809
v 1.41769 2.89948 -0.69875
v 1.34908 2.89458 -0.69474
v 1.31848 2.90500 -0.45398
v 1.32001 3.41309 -0.96611
v 1.38992 3.61051 -0.74094
v 1.32420 3.52411 -0.73575
v 1.45688 3.57100 -0.58361
v 1.30603 3.14752 -0.85984
v 1.35560 3.20068 -0.84118
v 1.44180 3.01454 -0.88772
v 1.32420 3.52411 -0.73575
v 1.34908 2.89458 -0.69474
v 1.32665 3.40851 -0.56952
v 1.38002 2.88725 -0.60274
v 1.36952 2.93617 -0.55403
v 1.38007 2.80336 -0.46806
v 1.31631 3.47836 -0.81745
v 1.31631 3.47836 -0.81745
v 1.32001 3.41309 -0.96611
v 1.33239 3.37528 -0.86504
v 1.46185 2.87768 -0.66809
v 1.34908 2.89458 -0.69474
v 1.38002 2.88725 -0.60274
v 1.34908 2.89458 -0.69474
v 1.31631 3.47836 -0.81745
v 1.33239 3.37528 -0.86504
v 1.30476 3.39979 -0.81835
v 1.40185 3.48437 -0.57304
v 1.38007 2.80336 -0.46806
v 1.36952 2.93617 -0.55403
v 1.31459 2.77440 -0.48272
v 1.31848 2.90500 -0.45398
v 1.40185 3.48437 -0.57304
v 1.31631 3.47836 -0.81745
v 1.32665 3.40851 -0.56952
v 1.34842 2.87188 -0.84063
v 1.33574 2.94600 -0.85682
v 1.34908 2.89458 -0.69474
v 1.33226 3.19940 -1.00699
v 1.35560 3.20068 -0.84118
v 1.31631 3.47836 -0.81745
v 1.23560 3.45453 -0.69551
v 1.32665 3.40851 -0.56952
v 1.30603 3.14752 -0.85984
v 1.31425 3.08040 -0.94441
v 1.34406 2.92561 -0.94448
v 1.32420 3.52411 -0.73575
v 1.31631 3.47836 -0.81745
v 1.40185 3.48437 -0.57304
v 1.44180 3.01454 -0.88772
v 1.31425 3.04887 -1.05085
v 1.27501 2.87854 -0.48052
v 1.33239 3.37528 -0.86504
v 1.31459 2.77440 -0.48272
v 1.36952 2.93617 -0.55403
v 1.27501 2.87854 -0.48052
v 1.27501 2.87854 -0.48052
v 1.26915 3.20613 -0.92645
v 1.27667 3.31488 -0.90841
v 1.31425 3.08040 -0.94441
v 1.31425 3.04887 -1.05085
v 1.24614 3.05444 -0.92496
v 1.33239 3.37528 -0.86504
v 1.27667 3.31488 -0.90841
v 1.30476 3.39979 -0.81835
v 1.26294 3.07553 -0.83402
v 1.31848 2.90500 -0.45398
v 1.20497 3.01764 -0.34117
v 1.26915 3.20613 -0.92645
v 1.30603 3.14752 -0.85984
v 1.26294 3.07553 -0.83402
v 1.23560 3.45453 -0.69551
v 1.30603 3.14752 -0.85984
v 1.31425 3.08040 -0.94441
v 1.26294 3.07553 -0.83402
v 1.24614 3.05444 -0.92496
v 1.31425 3.04887 -1.05085
v 1.23396 3.12051 -1.06458
v 1.24614 3.05444 -0.92496
v 1.23396 3.12051 -1.06458
v 1.26783 3.14176 -0.99399
v 1.26915 3.20613 -0.92645
v 1.21141 3.22879 -0.91038
v 1.13786 3.22684 -0.87294
v 1.24938 2.98347 -1.03766
v 1.23396 3.12051 -1.06458
v 1.31425 3.04887 -1.05085
v 1.32053 2.97733 -1.03794
v 1.26294 3.07553 -0.83402
v 1.21141 3.22879 -0.91038
v 1.26915 3.20613 -0.92645
v 1.26294 3.07553 -0.83402
v 1.24614 3.05444 -0.92496
v 1.21141 3.22879 -0.91038
v 1.21559 3.12569 -1.22545
v 1.23396 3.12051 -1.06458
v 1.24938 2.98347 -1.03766
v 1.26783 3.14176 -0.99399
v 1.21141 3.22879 -0.91038
v 1.24614 3.05444 -0.92496
v 1.26783 3.14176 -0.99399
v 1.23396 3.12051 -1.06458
v 1.21141 3.22879 -0.91038
v 1.21141 3.22879 -0.91038
v 0.99865 3.11394 -0.23786
v 1.21141 3.22879 -0.91038
v 1.17623 3.17370 -1.07467
v 1.13786 3.22684 -0.87294
v 1.23560 3.45453 -0.69551
v 0.92489 3.32533 -0.54441
v 0.91674 3.21856 -0.81981
v 0.92489 3.32533 -0.54441
v 1.23560 3.45453 -0.69551
v 0.92870 3.28320 -0.59795
v 1.42851 3.29139 -0.45518
v 0.91599 3.21779 -0.35493
v 0.99865 3.11394 -0.23786
v 0.94603 3.31505 -0.78693
v 0.94880 3.35816 -0.89258
v 0.91421 3.38422 -0.79673
v 0.94792 3.43300 -0.66230
v 0.91674 3.38990 -0.57288
v 0.91513 3.36552 -0.63856
v 0.91314 3.46527 -0.58552
v 0.91674 3.38990 -0.57288
v 0.94792 3.43300 -0.66230
v 1.23560 3.45453 -0.69551
v 0.90144 3.27779 -0.71835
v 0.92870 3.28320 -0.59795
v 0.91674 3.21856 -0.81981
v 0.94603 3.31505 -0.78693
v 0.90144 3.27779 -0.71835
v 0.90144 3.27779 -0.71835
v 0.90144 3.27779 -0.71835
v 0.89706 3.28087 -0.62813
v 0.92870 3.28320 -0.59795
v 0.92489 3.32533 -0.54441
v 0.92870 3.28320 -0.59795
v 0.89706 3.28087 -0.62813
v 0.91513 3.36552 -0.63856
v 0.90743 3.54227 -0.63911
v 0.90008 3.44348 -0.65636
v 0.91418 3.57755 -0.72015
v 0.90008 3.44348 -0.65636
v 0.91314 3.46527 -0.58552
v 0.94792 3.43300 -0.66230
v 0.91513 3.36552 -0.63856
v 0.90632 3.55796 -0.57730
v 0.90008 3.44348 -0.65636
v 0.94792 3.43300 -0.66230
v 0.94468 3.07171 -0.34569
v 0.89699 3.17823 -0.42748
v 0.91599 3.21779 -0.35493
v 0.88272 3.56231 -0.52829
v 0.90008 3.44348 -0.65636
v 0.90144 3.27779 -0.71835
v 0.91421 3.38422 -0.79673
v 0.87975 3.55682 -0.84715
v 0.89706 3.28087 -0.62813
v 0.92489 3.32533 -0.54441
v 0.87280 3.45033 -0.32725
v 0.90632 3.55796 -0.57730
v 0.90743 3.54227 -0.63911
v 0.88272 3.56231 -0.52829
v 0.90008 3.44348 -0.65636
v 0.86750 3.64487 -0.78681
v 0.91418 3.57755 -0.72015
v 0.86750 3.64487 -0.78681
v 0.90743 3.54227 -0.63911
v 0.91418 3.57755 -0.72015
v 2.00211 3.44957 -0.61198
v 0.91599 3.21779 -0.35493
v 2.45983 3.44886 -1.02534
v 2.47897 3.73295 -0.87736
v 2.49701 3.44758 -0.96368
v 2.47101 2.11433 -1.56607
v 2.47530 2.51372 -1.40407
v 2.32133 2.08211 -1.39019
v 2.44315 3.11011 -1.15549
v 2.49701 3.44758 -0.96368
v 2.47897 3.73295 -0.87736
v 2.37149 3.58054 -0.84413
v 2.49701 3.44758 -0.96368
v 2.38114 3.35043 -0.93611
v 2.45983 3.44886 -1.02534
v 2.38720 3.77243 -0.77016
v 2.45532 3.69189 -0.77254
v 2.47897 3.73295 -0.87736
v 2.44315 3.11011 -1.15549
v 2.43117 3.35625 -1.05836
v 2.38114 3.35043 -0.93611
v 2.45532 3.69189 -0.77254
v 2.37149 3.58054 -0.84413
v 2.47897 3.73295 -0.87736
v 2.45983 3.44886 -1.02534
v 2.43358 3.56268 -1.10755
v 2.38915 3.74149 -1.02741
v 2.38114 3.35043 -0.93611
v 2.45983 3.44886 -1.02534
v 2.43117 3.35625 -1.05836
v 2.25320 3.40009 -1.33156
v 2.45983 3.44886 -1.02534
v 2.38915 3.74149 -1.02741
v 2.28312 3.44122 -0.76828
v 2.43358 3.56268 -1.10755
v 2.24098 3.75432 -1.22541
v 2.38915 3.74149 -1.02741
v 2.30456 2.06233 -1.39890
v 2.30095 2.58140 -1.19124
v 2.38720 3.77243 -0.77016
v 2.47897 3.73295 -0.87736
v 2.21207 3.73722 -1.15176
v 2.38915 3.74149 -1.02741
v 2.47530 2.51372 -1.40407
v 2.47101 2.11433 -1.56607
v 2.27611 2.47503 -1.68444
v 2.47549 1.86218 -1.64429
v 2.47101 2.11433 -1.56607
v 2.30456 2.06233 -1.39890
v 2.44315 3.11011 -1.15549
v 2.27388 3.48299 -0.83809
v 2.30077 2.15927 -1.81266
v 2.32007 1.76355 -1.51149
v 2.26384 3.27542 -0.91052
v 2.27388 3.48299 -0.83809
v 2.24098 3.75432 -1.22541
v 2.16453 3.36505 -0.81589
v 2.26601 2.10395 -1.41750
v 2.10644 2.09112 -1.55246
v 2.30456 2.06233 -1.39890
v 2.30095 2.58140 -1.19124
v 2.32133 2.08211 -1.39019
v 2.24713 3.13945 -1.41278
v 2.32007 1.76355 -1.51149
v 2.26384 3.27542 -0.91052
v 2.17361 3.25889 -0.85645
v 2.16453 3.36505 -0.81589
v 2.12613 1.85061 -1.75074
v 2.27611 2.47503 -1.68444
v 2.30077 2.15927 -1.81266
v 2.12179 3.31881 -0.73166
v 2.16924 3.26220 -0.93401
v 2.00211 3.44957 -0.61198
v 2.12179 3.31881 -0.73166
v 2.45532 3.69189 -0.77254
v 2.24098 3.75432 -1.22541
v 2.16523 3.82426 -1.18344
v 2.21207 3.73722 -1.15176
v 2.15279 3.70655 -1.28513
v 2.16523 3.82426 -1.18344
v 2.24098 3.75432 -1.22541
v 2.02710 3.29715 -1.16795
v 2.24098 3.75432 -1.22541
v 2.25320 3.40009 -1.33156
v 2.24713 3.13945 -1.41278
v 2.28312 3.44122 -0.76828
v 2.26384 3.27542 -0.91052
v 2.17361 3.25889 -0.85645
v 2.16924 3.26220 -0.93401
v 2.07789 3.27123 -0.90590
v 2.25320 3.40009 -1.33156
v 2.07240 2.85383 -1.33617
v 2.24098 3.75432 -1.22541
v 2.07809 3.49562 -1.16605
v 2.15279 3.70655 -1.28513
v 2.07809 3.49562 -1.16605
v 2.00093 3.27111 -1.08607
v 2.10644 2.09112 -1.55246
v 2.13945 2.10845 -1.59146
v 2.12613 1.85061 -1.75074
v 2.07789 3.27123 -0.90590
v 2.25320 3.40009 -1.33156
v 2.00093 3.27111 -1.08607
v 2.02710 3.29715 -1.16795
v 2.00093 3.27111 -1.08607
v 2.17361 3.25889 -0.85645
v 2.16453 3.36505 -0.81589
v 2.07789 3.27123 -0.90590
v 2.13945 2.10845 -1.59146
v 2.07240 2.85383 -1.33617
v 2.12613 1.85061 -1.75074
v 2.02638 3.46814 -1.12987
v 2.02710 3.29715 -1.16795
v 2.00093 3.27111 -1.08607
v 2.02638 3.46814 -1.12987
v 2.00093 3.27111 -1.08607
v 1.97935 3.41546 -1.18741
v 2.07809 3.49562 -1.16605
v 2.02638 3.46814 -1.12987
v 2.02638 3.46814 -1.12987
v 2.00093 3.27111 -1.08607
v 1.98795 3.30412 -1.12764
v 1.97935 3.41546 -1.18741
v 1.97935 3.41546 -1.18741
v 1.93246 3.30080 -1.08628
v 2.00093 3.27111 -1.08607
v 1.93246 3.30080 -1.08628
v 1.98795 3.30412 -1.12764
v 1.97935 3.41546 -1.18741
v 1.83434 3.63012 -1.13068
v 2.15279 3.70655 -1.28513
v 1.97935 3.41546 -1.18741
v 1.75130 3.11453 -0.62446
v 1.56520 2.96829 -0.67175
v 2.07789 3.27123 -0.90590
v 1.56520 2.96829 -0.67175
v 1.44180 3.01454 -0.88772
v 1.63045 2.40119 -1.45117
v 1.93246 3.30080 -1.08628
v 1.50021 2.90127 -1.13219
v 1.33226 3.19940 -1.00699
v 1.97935 3.41546 -1.18741
v 1.93246 3.30080 -1.08628
v 1.46966 3.03416 -1.22103
v 1.36801 2.85174 -1.08965
v 1.36801 2.85174 -1.08965
v 1.86831 2.65049 -1.63328
v 1.50021 2.90127 -1.13219
v 1.31836 2.62817 -1.20045
v 1.50987 2.62360 -0.76388
v 1.51598 2.56811 -0.73905
v 1.51775 2.54495 -0.81361
v 1.50966 2.45877 -0.59611
v 1.46185 2.87768 -0.66809
v 1.47283 2.48576 -0.51157
v 1.46177 2.65454 -0.79948
v 1.49960 2.64446 -0.87338
v 1.49705 2.72425 -0.81381
v 1.51775 2.54495 -0.81361
v 1.47180 2.60236 -0.82125
v 1.50987 2.62360 -0.76388
v 1.49960 2.64446 -0.87338
v 1.45105 2.71164 -0.88968
v 1.49705 2.72425 -0.81381
v 1.46177 2.65454 -0.79948
v 1.51775 2.54495 -0.81361
v 1.51598 2.56811 -0.73905
v 1.46949 2.55150 -0.73761
v 1.51775 2.54495 -0.81361
v 1.46949 2.55150 -0.73761
v 1.47180 2.60236 -0.82125
v 1.43918 2.85567 -0.74296
v 1.46185 2.87768 -0.66809
v 1.50966 2.45877 -0.59611
v 1.50966 2.45877 -0.59611
v 1.46388 2.44481 -0.60224
v 1.43918 2.85567 -0.74296
v 1.46949 2.55150 -0.73761
v 1.51598 2.56811 -0.73905
v 1.50987 2.62360 -0.76388
v 1.47427 2.48195 -0.73513
v 1.47180 2.60236 -0.82125
v 1.46949 2.55150 -0.73761
v 1.46177 2.65454 -0.79948
v 1.45600 2.47550 -0.88746
v 1.47583 2.46804 -0.94313
v 1.43316 2.78883 -1.04980
v 1.45600 2.47550 -0.88746
v 1.43316 2.78883 -1.04980
v 1.47180 2.60236 -0.82125
v 1.46464 2.38065 -0.73118
v 1.46388 2.44481 -0.60224
v 1.47180 2.60236 -0.82125
v 1.43316 2.78883 -1.04980
v 1.49960 2.64446 -0.87338
v 1.43918 2.85567 -0.74296
v 1.45600 2.47550 -0.88746
v 1.47427 2.48195 -0.73513
v 1.42078 2.42710 -0.84820
v 1.46177 2.65454 -0.79948
v 1.49960 2.64446 -0.87338
v 1.43316 2.78883 -1.04980
v 1.45105 2.71164 -0.88968
v 1.41703 2.94089 -1.08841
v 1.47427 2.48195 -0.73513
v 1.46464 2.38065 -0.73118
v 1.40686 2.35591 -0.70904
v 1.43918 2.85567 -0.74296
v 1.43316 2.78883 -1.04980
v 1.47583 2.46804 -0.94313
v 1.40846 2.45849 -0.95125
v 1.43918 2.85567 -0.74296
v 1.43316 2.78883 -1.04980
v 1.43918 2.85567 -0.74296
v 1.45105 2.71164 -0.88968
v 1.38002 2.88725 -0.60274
v 1.36372 2.62082 -1.00502
v 1.40686 2.35591 -0.70904
v 1.41769 2.89948 -0.69875
v 1.46185 2.87768 -0.66809
v 1.42078 2.42710 -0.84820
v 1.40686 2.35591 -0.70904
v 1.42311 2.37305 -0.82587
v 1.45600 2.47550 -0.88746
v 1.42078 2.42710 -0.84820
v 1.34493 2.42222 -0.85455
v 1.41703 2.94089 -1.08841
v 1.41364 2.46029 -1.00174
v 1.36372 2.62082 -1.00502
v 1.40846 2.45849 -0.95125
v 1.36372 2.62082 -1.00502
v 1.41364 2.46029 -1.00174
v 1.40335 2.58849 -1.04021
v 1.45600 2.47550 -0.88746
v 1.40846 2.45849 -0.95125
v 1.47583 2.46804 -0.94313
v 1.34452 2.32801 -0.86092
v 1.40686 2.35591 -0.70904
v 1.34059 2.37274 -0.77233
v 1.41769 2.89948 -0.69875
v 1.43316 2.78883 -1.04980
v 1.35051 2.84745 -0.91847
v 1.34842 2.87188 -0.84063
v 1.35051 2.84745 -0.91847
v 1.34406 2.92561 -0.94448
v 1.40686 2.35591 -0.70904
v 1.34452 2.32801 -0.86092
v 1.42311 2.37305 -0.82587
v 1.42311 2.37305 -0.82587
v 1.34493 2.42222 -0.85455
v 1.33574 2.94600 -0.85682
v 1.40335 2.58849 -1.04021
v 1.33064 2.64196 -1.05463
v 1.36372 2.62082 -1.00502
v 1.34996 2.38052 -1.01145
v 1.40335 2.58849 -1.04021
v 1.41364 2.46029 -1.00174
v 1.34996 2.38052 -1.01145
v 1.41364 2.46029 -1.00174
v 1.34684 2.76913 -1.05042
v 1.34684 2.76913 -1.05042
v 1.27417 2.91977 -1.19286
v 1.41703 2.94089 -1.08841
v 1.34586 3.09184 -1.24058
v 1.34452 2.32801 -0.86092
v 1.33064 2.64196 -1.05463
v 1.36801 2.85174 -1.08965
v 1.36372 2.62082 -1.00502
v 1.33064 2.64196 -1.05463
v 1.34684 2.76913 -1.05042
v 1.34908 2.89458 -0.69474
v 1.33092 2.62137 -1.09933
v 1.33064 2.64196 -1.05463
v 1.34996 2.38052 -1.01145
v 1.22528 2.71300 -1.13799
v 1.32053 2.97733 -1.03794
v 1.34452 2.32801 -0.86092
v 1.34059 2.37274 -0.77233
v 1.34713 2.33648 -0.68957
v 1.34684 2.76913 -1.05042
v 1.31425 3.04887 -1.05085
v 1.31990 2.95923 -1.11278
v 1.31990 2.95923 -1.11278
v 1.34684 2.76913 -1.05042
v 1.27151 2.94445 -1.11840
v 1.33064 2.64196 -1.05463
v 1.33092 2.62137 -1.09933
v 1.26927 2.63790 -1.17199
v 1.33064 2.64196 -1.05463
v 1.28136 2.76667 -1.05963
v 1.26927 2.63790 -1.17199
v 1.33092 2.62137 -1.09933
v 1.34996 2.38052 -1.01145
v 1.26927 2.63790 -1.17199
v 1.28136 2.76667 -1.05963
v 1.18266 2.60375 -1.34573
v 1.31836 2.62817 -1.20045
v 1.26927 2.63790 -1.17199
v 1.22528 2.71300 -1.13799
v 1.31990 2.95923 -1.11278
v 1.27151 2.94445 -1.11840
v 1.24938 2.98347 -1.03766
v 1.32053 2.97733 -1.03794
v 1.27417 2.91977 -1.19286
v 1.27151 2.94445 -1.11840
v 1.22801 2.81570 -1.12875
v 1.27151 2.94445 -1.11840
v 1.28136 2.76667 -1.05963
v 1.22801 2.81570 -1.12875
v 1.15970 2.66878 -1.19957
v 1.28136 2.76667 -1.05963
v 1.26927 2.63790 -1.17199
v 1.22528 2.71300 -1.13799
v 1.22528 2.71300 -1.13799
v 1.22528 2.71300 -1.13799
v 1.27151 2.94445 -1.11840
v 1.23421 3.05501 -1.20383
v 1.24938 2.98347 -1.03766
v 1.27417 2.91977 -1.19286
v 1.15970 2.66878 -1.19957
v 1.21679 2.66659 -1.12935
v 1.26927 2.63790 -1.17199
v 1.26927 2.63790 -1.17199
v 1.21679 2.66659 -1.12935
v 1.22528 2.71300 -1.13799
v 1.15970 2.66878 -1.19957
v 1.22528 2.71300 -1.13799
v 1.21679 2.66659 -1.12935
v 1.42119 2.57194 -0.44674
v 1.38002 2.88725 -0.60274
v 1.38007 2.80336 -0.46806
v 1.31459 2.77440 -0.48272
v 1.27501 2.87854 -0.48052
v 1.38007 2.80336 -0.46806
v 1.03129 2.91749 -0.26063
v 0.97868 2.86476 -0.19614
v 1.45267 3.10470 -0.26490
v 1.03129 2.91749 -0.26063
v 1.20497 3.01764 -0.34117
v 0.99865 3.11394 -0.23786
v 1.44832 3.07162 -0.02431
v 0.94234 2.81674 -0.05721
v 0.99865 3.11394 -0.23786
v 0.97748 2.93778 -0.34592
v 1.03129 2.91749 -0.26063
v 0.97748 2.93778 -0.34592
v 0.94468 3.07171 -0.34569
v 0.97868 2.86476 -0.19614
v 0.97748 2.93778 -0.34592
v 0.96485 2.74034 -0.28024
v 0.94234 2.81674 -0.05721
v 0.97354 2.67451 0.02274
v 0.91517 2.79905 0.02296
v 0.93875 2.72825 -0.18032
v 0.94234 2.81674 -0.05721
v 0.91599 3.21779 -0.35493
v 0.93434 2.64193 -0.25514
v 0.90795 2.74880 -0.28087
v 0.90938 2.83910 -0.28154
v 0.94634 2.88236 -0.12325
v 0.94234 2.81674 -0.05721
v 0.93434 2.64193 -0.25514
v 0.96485 2.74034 -0.28024
v 0.90795 2.74880 -0.28087
v 0.97748 2.93778 -0.34592
v 0.91373 2.92299 -0.33658
v 0.94468 3.07171 -0.34569
v 0.93434 2.64193 -0.25514
v 0.93875 2.72825 -0.18032
v 0.94468 3.07171 -0.34569
v 0.93823 2.93352 -0.14326
v 0.94468 3.07171 -0.34569
v 0.91316 2.86985 -0.20081
v 0.91373 2.92299 -0.33658
v 0.91599 3.21779 -0.35493
v 0.97868 2.86476 -0.19614
v 1.50966 2.45877 -0.59611
v 1.47283 2.48576 -0.51157
v 1.46388 2.44481 -0.60224
v 1.46464 2.38065 -0.73118
v 1.40686 2.35591 -0.70904
v 1.38002 2.88725 -0.60274
v 1.46860 2.50809 -0.43113
v 1.47283 2.48576 -0.51157
v 1.31641 2.40490 -0.50967
v 1.41919 2.45424 -0.42745
v 1.47283 2.48576 -0.51157
v 1.46860 2.50809 -0.43113
v 1.39507 2.38525 -0.61679
v 1.42119 2.57194 -0.44674
v 1.46860 2.50809 -0.43113
v 1.38002 2.88725 -0.60274
v 1.41277 2.59707 -0.38601
v 1.42119 2.57194 -0.44674
v 1.38007 2.80336 -0.46806
v 1.47283 2.48576 -0.51157
v 1.36591 2.38464 -0.48938
v 1.31641 2.40490 -0.50967
v 1.40686 2.35591 -0.70904
v 1.39507 2.38525 -0.61679
v 1.39062 2.31447 -0.67463
v 1.41919 2.45424 -0.42745
v 1.46860 2.50809 -0.43113
v 1.42119 2.57194 -0.44674
v 1.36591 2.38464 -0.48938
v 1.41919 2.45424 -0.42745
v 1.42119 2.57194 -0.44674
v 1.36591 2.38464 -0.48938
v 1.37424 2.52918 -0.32436
v 1.36686 2.49806 -0.39727
v 1.31699 2.28976 -0.60843
v 1.39062 2.31447 -0.67463
v 1.41277 2.59707 -0.38601
v 1.34908 2.74236 -0.43147
v 1.37424 2.52918 -0.32436
v 1.36591 2.38464 -0.48938
v 1.38007 2.80336 -0.46806
v 1.40686 2.35591 -0.70904
v 1.39062 2.31447 -0.67463
v 1.34713 2.33648 -0.68957
v 1.34059 2.37274 -0.77233
v 1.39507 2.38525 -0.61679
v 1.37774 2.36848 -0.53852
v 1.31641 2.40490 -0.50967
v 1.28314 2.24573 -0.65243
v 1.28717 2.31526 -0.70624
v 1.34713 2.33648 -0.68957
v 1.39062 2.31447 -0.67463
v 1.31699 2.28976 -0.60843
v 1.31641 2.40490 -0.50967
v 1.31768 2.30897 -0.54101
v 1.31641 2.40490 -0.50967
v 1.36591 2.38464 -0.48938
v 1.27356 2.38607 -0.40054
v 1.27356 2.38607 -0.40054
v 1.20803 2.25169 -0.56519
v 1.31768 2.30897 -0.54101
v 1.11046 2.33163 -0.38978
v 1.10050 2.21854 -0.54588
v 1.31699 2.28976 -0.60843
v 1.62944 2.77509 -0.28017
v 1.63010 2.98178 -0.38625
v 1.63010 2.98178 -0.38625
v 1.56070 3.09956 -0.23154
v 1.63029 3.00661 -0.21162
v 1.56070 3.09956 -0.23154
v 1.50277 3.01972 0.02659
v 1.48343 3.06180 -0.26482
v 1.47891 3.05127 -0.34359
v 1.56070 3.09956 -0.23154
v 1.63010 2.98178 -0.38625
v 1.47891 3.05127 -0.34359
v 1.47891 3.05127 -0.34359
v 1.45267 3.10470 -0.26490
v 1.48343 3.06180 -0.26482
v 1.34908 2.74236 -0.43147
v 1.50277 3.01972 0.02659
v 1.44832 3.07162 -0.02431
v 1.45267 3.10470 -0.26490
v 1.47891 3.05127 -0.34359
v 1.31848 2.90500 -0.45398
v 1.38007 2.80336 -0.46806
v 1.23370 2.97533 -0.00296
v 1.47204 3.04732 0.10314
v 1.44832 3.07162 -0.02431
v 1.20497 3.01764 -0.34117
v 1.21774 2.92383 0.08254
v 0.94234 2.81674 -0.05721
v 1.45267 3.10470 -0.26490
v 0.97868 2.86476 -0.19614
v 1.44832 3.07162 -0.02431
v 1.23370 2.97533 -0.00296
v 0.94234 2.81674 -0.05721
v 1.03129 2.91749 -0.26063
v 1.20497 3.01764 -0.34117
v 1.44832 3.07162 -0.02431
v 1.45267 3.10470 -0.26490
v 1.23343 2.88489 -0.66339
v 1.56070 3.09956 -0.23154
v 1.63029 3.00661 -0.21162
v 1.63010 2.98178 -0.38625
v 1.62944 2.77509 -0.28017
v 1.34908 2.74236 -0.43147
v 1.37424 2.52918 -0.32436
v 1.42119 2.57194 -0.44674
v 1.36686 2.49806 -0.39727
v 1.36591 2.38464 -0.48938
v 1.27356 2.38607 -0.40054
v 1.31768 2.30897 -0.54101
v 1.20803 2.25169 -0.56519
v 1.31699 2.28976 -0.60843
v 1.28314 2.24573 -0.65243
v 1.39062 2.31447 -0.67463
v 1.28717 2.31526 -0.70624
v 1.34713 2.33648 -0.68957
v 1.34452 2.32801 -0.86092
v 1.34493 2.42222 -0.85455
v 1.34996 2.38052 -1.01145
v 1.26927 2.63790 -1.17199
v 1.18266 2.60375 -1.34573
v 1.31836 2.62817 -1.20045
v 1.63045 2.40119 -1.45117
v 1.36801 2.85174 -1.08965
v 1.86831 2.65049 -1.63328
v 1.50021 2.90127 -1.13219
v 1.46966 3.03416 -1.22103
v 1.41703 2.94089 -1.08841
v 1.34586 3.09184 -1.24058
v 1.27417 2.91977 -1.19286
v 1.23421 3.05501 -1.20383
v 1.24938 2.98347 -1.03766
v 1.21559 3.12569 -1.22545
v 1.21141 3.22879 -0.91038
v 1.17623 3.17370 -1.07467
v 1.13786 3.22684 -0.87294
v 0.91674 3.21856 -0.81981
v 0.94603 3.31505 -0.78693
v 0.94880 3.35816 -0.89258
v 0.91421 3.38422 -0.79673
v 0.87975 3.55682 -0.84715
v 0.90008 3.44348 -0.65636
v 0.86750 3.64487 -0.78681
v 0.90743 3.54227 -0.63911
v 0.88272 3.56231 -0.52829
v 0.92489 3.32533 -0.54441
v 0.87280 3.45033 -0.32725
v 0.91599 3.21779 -0.35493
v 0.93823 2.93352 -0.14326
v 0.94468 3.07171 -0.34569
v 0.91316 2.86985 -0.20081
v 0.90938 2.83910 -0.28154
v 0.94634 2.88236 -0.12325
v 0.94234 2.81674 -0.05721
v 1.21774 2.92383 0.08254
v 1.23370 2.97533 -0.00296
v 1.47204 3.04732 0.10314
v 1.44832 3.07162 -0.02431
v 1.50277 3.01972 0.02659
vt 0.12225 0.52094
vt 0.13646 0.51062
vt 0.12836 0.52276
vt 0.17032 0.53850
vt 0.16510 0.53484
vt 0.17195 0.53243
vt 0.11580 0.28493
vt 0.13240 0.28718
vt 0.12415 0.30269
vt 0.16321 0.52243
vt 0.18489 0.88393
vt 0.17201 0.88364
vt 0.17201 0.87736
vt 0.11208 0.29821
vt 0.17384 0.86348
vt 0.18150 0.86324
vt 0.17258 0.51845
vt 0.68965 0.17332
vt 0.67978 0.17768
vt 0.66953 0.16743
vt 0.65988 0.17728
vt 0.52430 0.91150
vt 0.50765 0.89753
vt 0.53310 0.89826
vt 0.53281 0.90591
vt 0.28133 0.90584
vt 0.30679 0.90584
vt 0.29049 0.91154
vt 0.80688 0.83585
vt 0.80104 0.83450
vt 0.80104 0.81429
vt 0.79751 0.81472
vt 0.78589 0.83295
vt 0.80751 0.80525
vt 0.93180 0.88391
vt 0.91863 0.89415
vt 0.90786 0.88338
vt 0.92552 0.89620
vt 0.93406 0.88936
vt 0.78450 0.81498
vt 0.77875 0.83382
vt 0.83914 0.60287
vt 0.83034 0.60175
vt 0.83391 0.58149
vt 0.83777 0.58521
vt 0.85008 0.60316
vt 0.47188 0.04294
vt 0.48489 0.04294
vt 0.46847 0.04395
vt 0.77813 0.81488
vt 0.39838 0.20090
vt 0.39821 0.21736
vt 0.36485 0.21444
vt 0.90561 0.51604
vt 0.90430 0.55514
vt 0.84957 0.58401
vt 0.90550 0.59681
vt 0.88079 0.59465
vt 0.91990 0.59577
vt 0.78562 0.78151
vt 0.80661 0.77387
vt 0.79685 0.78065
vt 0.36450 0.20217
vt 0.41836 0.24920
vt 0.45452 0.23671
vt 0.45842 0.25127
vt 0.91749 0.55200
vt 0.06559 0.09165
vt 0.05959 0.08970
vt 0.06528 0.07722
vt 0.77570 0.78251
vt 0.45086 0.13043
vt 0.45631 0.12272
vt 0.45693 0.12601
vt 0.89235 0.11939
vt 0.90180 0.11939
vt 0.89137 0.12508
vt 0.80270 0.21517
vt 0.83588 0.22595
vt 0.80182 0.22911
vt 0.48564 0.06575
vt 0.48160 0.06090
vt 0.48770 0.06218
vt 0.88024 0.11991
vt 0.84921 0.55155
vt 0.07683 0.31679
vt 0.07882 0.31089
vt 0.08054 0.31594
vt 0.46561 0.12089
vt 0.46569 0.11503
vt 0.49926 0.06113
vt 0.16933 0.62299
vt 0.17909 0.62265
vt 0.17242 0.63944
vt 0.12565 0.40931
vt 0.13104 0.40306
vt 0.13919 0.40990
vt 0.99068 0.01403
vt 0.98039 0.01128
vt 0.99162 0.01100
vt 0.12148 0.40306
vt 0.89520 0.62823
vt 0.90284 0.61256
vt 0.90167 0.63225
vt 0.89451 0.61702
vt 0.18438 0.96055
vt 0.18594 0.96565
vt 0.17606 0.96479
vt 0.07315 0.32780
vt 0.06095 0.19449
vt 0.06472 0.20111
vt 0.05948 0.20140
vt 0.03128 0.14231
vt 0.02173 0.14231
vt 0.02404 0.13850
vt 0.03140 0.72864
vt 0.03140 0.73871
vt 0.02704 0.72957
vt 0.89938 0.61045
vt 0.18291 0.96656
vt 0.42144 0.23720
vt 0.08639 0.32341
vt 0.55015 0.93875
vt 0.56143 0.94695
vt 0.54411 0.94785
vt 0.02555 0.73707
vt 0.75910 0.96219
vt 0.75910 0.95828
vt 0.77208 0.96156
vt 0.00585 0.14078
vt 0.00446 0.13780
vt 0.00583 0.13413
vt 0.16629 0.63649
vt 0.83200 0.54846
vt 0.35215 0.97874
vt 0.35215 0.97257
vt 0.36212 0.97883
vt 0.29834 0.13939
vt 0.30259 0.13983
vt 0.29656 0.15016
vt 0.84634 0.54608
vt 0.17586 0.95637
vt 0.89736 0.60307
vt 0.08257 0.17906
vt 0.08226 0.18302
vt 0.07365 0.18039
vt 0.84102 0.54647
vt 0.72346 0.85439
vt 0.72393 0.86361
vt 0.71936 0.85945
vt 0.00448 0.42040
vt 0.00987 0.41648
vt 0.01024 0.42200
vt 0.08738 0.17633
vt 0.64246 0.96497
vt 0.63820 0.96990
vt 0.63822 0.96652
vt 0.36263 0.97299
vt 0.03274 0.94966
vt 0.02966 0.95813
vt 0.02912 0.94762
vt 0.06412 0.20613
vt 0.08667 0.64261
vt 0.08667 0.65734
vt 0.08074 0.64394
vt 0.58227 0.07850
vt 0.58637 0.08000
vt 0.57892 0.08620
vt 0.71413 0.87119
vt 0.70980 0.86272
vt 0.93957 0.43471
vt 0.93314 0.42927
vt 0.93599 0.42050
vt 0.59626 0.08602
vt 0.59557 0.07990
vt 0.58800 0.07512
vt 0.07515 0.53188
vt 0.07782 0.52725
vt 0.07801 0.54197
vt 0.70023 0.86988
vt 0.59732 0.07384
vt 0.16504 0.63951
vt 0.30924 0.13223
vt 0.26989 0.97775
vt 0.26370 0.96923
vt 0.27091 0.97150
vt 0.06193 0.20855
vt 0.29844 0.13393
vt 0.30407 0.13114
vt 0.05522 0.29803
vt 0.06069 0.30119
vt 0.05255 0.30138
vt 0.79379 0.90980
vt 0.79164 0.91463
vt 0.79139 0.90742
vt 0.04830 0.29806
vt 0.90554 0.63551
vt 0.91506 0.62977
vt 0.02787 0.32608
vt 0.02314 0.32881
vt 0.01877 0.32639
vt 0.63785 0.95793
vt 0.00407 0.79242
vt 0.00769 0.78744
vt 0.00869 0.79429
vt 0.01298 0.34600
vt 0.01298 0.33785
vt 0.01893 0.33950
vt 0.39805 0.98382
vt 0.39805 0.99262
vt 0.39478 0.98937
vt 0.79086 0.92086
vt 0.78760 0.91925
vt 0.78295 0.91860
vt 0.02040 0.56585
vt 0.02047 0.57383
vt 0.01635 0.56924
vt 0.01641 0.56510
vt 0.18205 0.98518
vt 0.17239 0.98204
vt 0.17497 0.97947
vt 0.97006 0.97547
vt 0.97545 0.97547
vt 0.97280 0.98526
vt 0.15452 0.75977
vt 0.15084 0.76821
vt 0.14298 0.76682
vt 0.14678 0.98427
vt 0.14098 0.97940
vt 0.15112 0.97950
vt 0.84868 0.97097
vt 0.84499 0.97374
vt 0.84811 0.96342
vt 0.15375 0.77860
vt 0.92876 0.62596
vt 0.55068 0.13391
vt 0.54157 0.12966
vt 0.55361 0.13025
vt 0.78523 0.90143
vt 0.91287 0.42390
vt 0.77005 0.91953
vt 0.58412 0.11139
vt 0.56315 0.11139
vt 0.58353 0.10756
vt 0.93862 0.40987
vt 0.90874 0.41222
vt 0.91045 0.40230
vt 0.33476 0.97211
vt 0.33865 0.97730
vt 0.33282 0.97601
vt 0.39198 0.00350
vt 0.39546 0.00828
vt 0.39149 0.00794
vt 0.16398 0.29788
vt 0.16257 0.30142
vt 0.15899 0.29842
vt 0.97923 0.13546
vt 0.95776 0.13697
vt 0.95921 0.13009
vt 0.65292 0.00915
vt 0.65292 0.00312
vt 0.65783 0.00454
vt 0.33096 0.96870
vt 0.76733 0.91338
vt 0.95744 0.13184
vt 0.15914 0.30744
vt 0.16181 0.30594
vt 0.02377 0.40842
vt 0.02184 0.40685
vt 0.02540 0.40341
vt 0.16562 0.29277
vt 0.16081 0.29316
vt 0.16595 0.28771
vt 0.00288 0.95442
vt 0.00288 0.95870
vt 0.00007 0.95441
vt 0.15863 0.30395
vt 0.16809 0.29482
vt 0.02718 0.39914
vt 0.02922 0.40107
vt 0.01511 0.46990
vt 0.01762 0.47760
vt 0.01282 0.47806
vt 0.17127 0.29709
vt 0.94535 0.89237
vt 0.93681 0.89767
vt 0.93695 0.89012
vt 0.94093 0.88050
vt 0.94098 0.90067
vt 0.37214 0.95459
vt 0.38181 0.96545
vt 0.00546 0.94826
vt 0.00609 0.94469
vt 0.00632 0.95124
vt 0.33652 0.95005
vt 0.35028 0.95005
vt 0.34470 0.95226
vt 0.93148 0.95450
vt 0.93777 0.96288
vt 0.93353 0.96014
vt 0.91687 0.52061
vt 0.36831 0.96637
vt 0.17540 0.85887
vt 0.18451 0.83860
vt 0.18038 0.85887
vt 0.47592 0.68001
vt 0.50566 0.67741
vt 0.47971 0.69571
vt 0.55043 0.67562
vt 0.57754 0.67259
vt 0.59821 0.67171
vt 0.58965 0.68166
vt 0.69173 0.97832
vt 0.69173 0.96768
vt 0.69659 0.97720
vt 0.89320 0.99899
vt 0.89320 0.99168
vt 0.90111 0.99263
vt 0.20563 0.43234
vt 0.20447 0.41403
vt 0.21296 0.41060
vt 0.41921 0.49079
vt 0.41298 0.49968
vt 0.41245 0.48657
vt 0.45643 0.10811
vt 0.44832 0.11379
vt 0.43557 0.10820
vt 0.57248 0.68196
vt 0.20285 0.40713
vt 0.47802 0.55357
vt 0.45558 0.55752
vt 0.47893 0.54653
vt 0.17239 0.83824
vt 0.41668 0.51170
vt 0.47100 0.54062
vt 0.45234 0.53210
vt 0.46868 0.52689
vt 0.47804 0.69661
vt 0.51690 0.69349
vt 0.79634 0.21184
vt 0.80325 0.20441
vt 0.82414 0.22073
vt 0.81428 0.20944
vt 0.47886 0.61672
vt 0.47824 0.64656
vt 0.45683 0.62618
vt 0.18618 0.60592
vt 0.18639 0.58764
vt 0.20312 0.58764
vt 0.47842 0.57191
vt 0.41161 0.50915
vt 0.45750 0.64983
vt 0.20144 0.60971
vt 0.56875 0.69103
vt 0.58394 0.68933
vt 0.82909 0.21809
vt 0.57735 0.69844
vt 0.45134 0.59748
vt 0.43733 0.59372
vt 0.45475 0.59514
vt 0.45511 0.63396
vt 0.45581 0.59671
vt 0.45638 0.57642
vt 0.45500 0.57300
vt 0.45685 0.68572
vt 0.56945 0.69837
vt 0.41112 0.52038
vt 0.54440 0.72570
vt 0.50311 0.70854
vt 0.52677 0.70806
vt 0.41584 0.52593
vt 0.45013 0.68466
vt 0.52140 0.24588
vt 0.52594 0.23178
vt 0.55862 0.24368
vt 0.01453 0.22540
vt 0.01453 0.23311
vt 0.00953 0.22795
vt 0.03773 0.37088
vt 0.03773 0.38169
vt 0.03198 0.37656
vt 0.28855 0.37301
vt 0.28727 0.33784
vt 0.30286 0.35818
vt 0.45335 0.70847
vt 0.54007 0.23370
vt 0.24327 0.41401
vt 0.24992 0.41720
vt 0.24559 0.42042
vt 0.25071 0.42467
vt 0.43454 0.70647
vt 0.46913 0.72628
vt 0.57950 0.14941
vt 0.60107 0.14926
vt 0.58469 0.15560
vt 0.28492 0.35928
vt 0.24316 0.43595
vt 0.52381 0.73180
vt 0.52387 0.72807
vt 0.54484 0.72671
vt 0.40308 0.52762
vt 0.25039 0.63188
vt 0.27636 0.63188
vt 0.27081 0.63469
vt 0.43563 0.73241
vt 0.49725 0.99129
vt 0.50364 0.99593
vt 0.49292 0.99742
vt 0.34848 0.63305
vt 0.34371 0.68761
vt 0.34492 0.61234
vt 0.28182 0.36291
vt 0.42096 0.94403
vt 0.41785 0.93864
vt 0.43193 0.93886
vt 0.43465 0.68187
vt 0.02533 0.32145
vt 0.01640 0.32145
vt 0.01991 0.31822
vt 0.67116 0.93828
vt 0.68524 0.93877
vt 0.68243 0.94130
vt 0.67405 0.94389
vt 0.60901 0.15334
vt 0.24612 0.44019
vt 0.05924 0.22425
vt 0.05465 0.22186
vt 0.05924 0.22046
vt 0.22028 0.91109
vt 0.20191 0.91109
vt 0.21197 0.88812
vt 0.05903 0.21169
vt 0.41709 0.55613
vt 0.41019 0.57136
vt 0.89304 0.33449
vt 0.89340 0.37881
vt 0.87587 0.37881
vt 0.71631 0.82975
vt 0.87708 0.33715
vt 0.74097 0.71097
vt 0.48885 0.31791
vt 0.43997 0.31791
vt 0.44717 0.30949
vt 0.75224 0.71111
vt 0.67696 0.84931
vt 0.84978 0.32621
vt 0.85013 0.37924
vt 0.84256 0.33343
vt 0.68465 0.83346
vt 0.04076 0.00678
vt 0.04076 0.00255
vt 0.04613 0.00318
vt 0.99163 0.67387
vt 0.98237 0.64573
vt 0.99751 0.67075
vt 0.12809 0.92212
vt 0.13283 0.91880
vt 0.13228 0.92567
vt 0.01364 0.28285
vt 0.01038 0.28680
vt 0.00717 0.28298
vt 0.17209 0.05982
vt 0.16776 0.06375
vt 0.16543 0.05800
vt 0.00648 0.28759
vt 0.88107 0.00828
vt 0.87789 0.00390
vt 0.88076 0.00203
vt 0.00456 0.06064
vt 0.00649 0.05469
vt 0.00968 0.06068
vt 0.51960 0.15745
vt 0.51960 0.15182
vt 0.54913 0.15417
vt 0.99681 0.74332
vt 0.99739 0.74661
vt 0.96726 0.74647
vt 0.02013 0.50226
vt 0.01936 0.50560
vt 0.01513 0.50560
vt 0.83890 0.21671
vt 0.84838 0.22062
vt 0.84160 0.22072
vt 0.01178 0.50234
vt 0.84765 0.21067
vt 0.48308 0.92126
vt 0.45957 0.91920
vt 0.48398 0.91723
vt 0.86886 0.22293
vt 0.12785 0.91815
vt 0.83486 0.21093
vt 0.82972 0.21947
vt 0.26067 0.11122
vt 0.24007 0.11122
vt 0.25632 0.10871
vt 0.85307 0.23852
vt 0.40801 0.00950
vt 0.41864 0.00991
vt 0.41010 0.01399
vt 0.84901 0.22454
vt 0.96812 0.04581
vt 0.98377 0.05090
vt 0.97139 0.05067
vt 0.74255 0.71785
vt 0.05066 0.98227
vt 0.05766 0.98141
vt 0.06029 0.98521
vt 0.13006 0.93654
vt 0.21969 0.31196
vt 0.22037 0.33556
vt 0.21563 0.33556
vt 0.15437 0.05882
vt 0.25434 0.28697
vt 0.25690 0.26537
vt 0.26309 0.27822
vt 0.98902 0.64277
vt 0.21370 0.32347
vt 0.41919 0.01996
vt 0.25456 0.26146
vt 0.25827 0.25991
vt 0.25605 0.97629
vt 0.24518 0.97629
vt 0.25299 0.97363
vt 0.40364 0.06079
vt 0.40738 0.05755
vt 0.41235 0.05935
vt 0.84273 0.32636
vt 0.04674 0.72725
vt 0.05839 0.72725
vt 0.04666 0.73077
vt 0.03830 0.34844
vt 0.04190 0.33737
vt 0.04221 0.34666
vt 0.04728 0.08720
vt 0.04440 0.08235
vt 0.04902 0.08346
vt 0.67808 0.01036
vt 0.68962 0.01036
vt 0.68410 0.01370
vt 0.24703 0.83647
vt 0.24507 0.81102
vt 0.25125 0.82070
vt 0.31608 0.88051
vt 0.32173 0.88060
vt 0.32173 0.88632
vt 0.68323 0.01562
vt 0.67170 0.01562
vt 0.67647 0.01089
vt 0.40872 0.05372
vt 0.03852 0.08834
vt 0.31549 0.88581
vt 0.00919 0.83889
vt 0.00407 0.83516
vt 0.00842 0.83465
vt 0.12847 0.91740
vt 0.13300 0.90309
vt 0.13349 0.91238
vt 0.03836 0.07710
vt 0.04522 0.07893
vt 0.21360 0.31266
vt 0.25112 0.81007
vt 0.40970 0.22117
vt 0.40160 0.21185
vt 0.41715 0.21012
vt 0.41545 0.05359
vt 0.12817 0.89900
vt 0.39928 0.21851
vt 0.12412 0.97262
vt 0.12284 0.97681
vt 0.11397 0.97633
vt 0.30599 0.87880
vt 0.13360 0.85717
vt 0.13689 0.85629
vt 0.13679 0.87469
vt 0.39978 0.23269
vt 0.32688 0.89187
vt 0.40110 0.95798
vt 0.40401 0.96421
vt 0.40127 0.96986
vt 0.33210 0.87828
vt 0.32619 0.89688
vt 0.33220 0.89226
vt 0.19312 0.21692
vt 0.19312 0.20294
vt 0.19662 0.21652
vt 0.34037 0.97020
vt 0.33714 0.97128
vt 0.33158 0.96754
vt 0.19580 0.19447
vt 0.19765 0.20358
vt 0.68079 0.83246
vt 0.72826 0.11472
vt 0.71046 0.11472
vt 0.73137 0.10879
vt 0.34146 0.96097
vt 0.92750 0.93673
vt 0.93896 0.94456
vt 0.93610 0.94734
vt 0.67496 0.83527
vt 0.47695 0.00574
vt 0.47692 0.00927
vt 0.47052 0.00927
vt 0.47177 0.00448
vt 0.54134 0.06089
vt 0.53623 0.06275
vt 0.53639 0.05331
vt 0.10224 0.74797
vt 0.11434 0.74327
vt 0.11153 0.74961
vt 0.67375 0.82843
vt 0.92777 0.95798
vt 0.92777 0.96985
vt 0.92397 0.96461
vt 0.53733 0.04623
vt 0.11868 0.74956
vt 0.33478 0.96384
vt 0.32808 0.95640
vt 0.34006 0.96022
vt 0.32981 0.96604
vt 0.00458 0.11288
vt 0.00458 0.10661
vt 0.00966 0.10656
vt 0.99333 0.99977
vt 0.99773 0.99723
vt 0.99980 0.99983
vt 0.01403 0.53488
vt 0.00708 0.53488
vt 0.00852 0.53188
vt 0.87974 0.20532
vt 0.91358 0.20532
vt 0.90078 0.21343
vt 0.03711 0.10906
vt 0.03711 0.11971
vt 0.03014 0.10945
vt 0.55606 0.31337
vt 0.54854 0.30770
vt 0.59972 0.30749
vt 0.19041 0.42786
vt 0.17828 0.44456
vt 0.17238 0.42141
vt 0.32465 0.47584
vt 0.32421 0.53005
vt 0.74125 0.17816
vt 0.72273 0.18531
vt 0.72228 0.17549
vt 0.55346 0.32284
vt 0.73541 0.18888
vt 0.28827 0.20634
vt 0.28578 0.19062
vt 0.30205 0.20211
vt 0.28925 0.22077
vt 0.90684 0.60315
vt 0.91112 0.61557
vt 0.30075 0.21196
vt 0.91906 0.61328
vt 0.74900 0.19319
vt 0.31068 0.20741
vt 0.74723 0.22895
vt 0.75576 0.23026
vt 0.75744 0.24624
vt 0.75014 0.25134
vt 0.90509 0.39788
vt 0.90743 0.40773
vt 0.90195 0.40821
vt 0.90752 0.42765
vt 0.90152 0.42569
vt 0.90327 0.44012
vt 0.73649 0.23008
vt 0.74347 0.23847
vt 0.65007 0.34254
vt 0.66809 0.32757
vt 0.77897 0.22785
vt 0.75746 0.23834
vt 0.76451 0.22633
vt 0.63622 0.33920
vt 0.33803 0.52578
vt 0.31364 0.89400
vt 0.31355 0.90122
vt 0.30988 0.89307
vt 0.31335 0.88228
vt 0.30818 0.88298
vt 0.99734 0.33440
vt 0.99734 0.36515
vt 0.99136 0.36431
vt 0.30056 0.89941
vt 0.87173 0.97011
vt 0.86615 0.96501
vt 0.87219 0.96484
vt 0.30328 0.88994
vt 0.99503 0.62789
vt 0.99255 0.63319
vt 0.99221 0.60245
vt 0.97364 0.75174
vt 0.97423 0.75649
vt 0.95749 0.75320
vt 0.24727 0.96414
vt 0.24449 0.95375
vt 0.24791 0.95143
vt 0.01120 0.17787
vt 0.01120 0.18492
vt 0.00746 0.17946
vt 0.84202 0.99400
vt 0.83862 0.98995
vt 0.84229 0.98538
vt 0.86641 0.97576
vt 0.74924 0.02091
vt 0.74143 0.01727
vt 0.75587 0.01689
vt 0.97999 0.74837
vt 0.98132 0.75396
vt 0.29404 0.89260
vt 0.29680 0.88796
vt 0.65372 0.14149
vt 0.66518 0.13820
vt 0.65097 0.14813
vt 0.98728 0.76268
vt 0.66763 0.13316
vt 0.59092 0.98864
vt 0.59462 0.98695
vt 0.59526 0.99058
vt 0.59080 0.99537
vt 0.61987 0.97502
vt 0.62283 0.98014
vt 0.61968 0.98473
vt 0.28774 0.89032
vt 0.00901 0.77960
vt 0.01063 0.78406
vt 0.00910 0.78741
vt 0.11973 0.41590
vt 0.11368 0.42504
vt 0.11507 0.41788
vt 0.06008 0.99459
vt 0.05615 0.99331
vt 0.06216 0.98626
vt 0.10511 0.42459
vt 0.49939 0.25929
vt 0.49526 0.26530
vt 0.47526 0.25356
vt 0.49686 0.25288
vt 0.49841 0.26879
vt 0.60776 0.86796
vt 0.59465 0.87609
vt 0.21304 0.51581
vt 0.20523 0.50454
vt 0.21304 0.50410
vt 0.25081 0.62171
vt 0.23329 0.62715
vt 0.25288 0.62747
vt 0.03881 0.83944
vt 0.03881 0.82968
vt 0.05005 0.83753
vt 0.25812 0.62817
vt 0.28612 0.24907
vt 0.29052 0.25392
vt 0.28703 0.25427
vt 0.61667 0.88726
vt 0.28582 0.27383
vt 0.29051 0.27005
vt 0.41246 0.07739
vt 0.41424 0.07109
vt 0.42986 0.06690
vt 0.61168 0.88855
vt 0.58324 0.85650
vt 0.56627 0.86240
vt 0.56780 0.85378
vt 0.43044 0.07988
vt 0.58508 0.86296
vt 0.60555 0.85574
vt 0.51844 0.24437
vt 0.48967 0.22347
vt 0.52506 0.22967
vt 0.93187 0.44703
vt 0.93387 0.46925
vt 0.98895 0.27868
vt 0.99436 0.26540
vt 0.93460 0.43158
vt 0.98895 0.24807
vt 0.20523 0.50454
vt 0.20523 0.50454
vt 0.20523 0.50454
vt 0.20523 0.50454
vt 0.20523 0.50454
vt 0.20523 0.50454
vt 0.20523 0.50454
vt 0.20523 0.50454
vt 0.20523 0.50454
vt 0.20523 0.50454
vt 0.20523 0.50454
vt 0.20523 0.50454
vt 0.20523 0.50454
vt 0.20523 0.50454
vt 0.20523 0.50454
vt 0.20523 0.50454
vt 0.20523 0.50454
vt 0.20523 0.50454
vt 0.20523 0.50454
vt 0.20523 0.50454
vt 0.20523 0.50454
vt 0.20523 0.50454
vt 0.20523 0.50454
vt 0.20523 0.50454
vt 0.20523 0.50454
vt 0.20523 0.50454
vt 0.20523 0.50454
vt 0.20523 0.50454
vt 0.20523 0.50454
vt 0.20523 0.50454
vt 0.20523 0.50454
vt 0.20523 0.50454
vt 0.20523 0.50454
vt 0.20523 0.50454
vt 0.20523 0.50454
vt 0.20523 0.50454
vt 0.20523 0.50454
vt 0.20523 0.50454
vt 0.20523 0.50454
vt 0.20523 0.50454
vt 0.20523 0.50454
vt 0.20523 0.50454
vt 0.20523 0.50454
vt 0.20523 0.50454
vt 0.20523 0.50454
vt 0.20523 0.50454
vt 0.20523 0.50454
vt 0.20523 0.50454
vt 0.20523 0.50454
vt 0.20523 0.50454
vt 0.20523 0.50454
vt 0.20523 0.50454
vt 0.20523 0.50454
vt 0.20523 0.50454
vt 0.20523 0.50454
vt 0.20523 0.50454
vt 0.20523 0.50454
vt 0.20523 0.50454
vt 0.20523 0.50454
vt 0.20523 0.50454
vt 0.20523 0.50454
vn 0.9942 -0.0152 0.1061
vn 0.9942 -0.0152 0.1061
vn 0.9942 -0.0152 0.1061
vn 0.8376 -0.5391 0.0884
vn 0.7547 -0.6171 0.2228
vn 0.7395 -0.6297 0.2379
vn 0.7524 0.3759 -0.5409
vn 0.7840 0.4092 -0.4667
vn 0.7492 0.3727 -0.5475
vn 0.6763 -0.6697 0.3067
vn 0.2894 -0.6324 -0.7186
vn 0.4230 -0.5471 -0.7223
vn 0.3087 -0.6511 -0.6933
vn 0.6986 0.3244 -0.6377
vn 0.2861 -0.8028 -0.5230
vn 0.2599 -0.7482 -0.6104
vn 0.6727 -0.6743 0.3047
vn -0.5588 -0.2103 -0.8022
vn -0.6020 -0.0868 -0.7938
vn -0.6518 0.1282 -0.7475
vn -0.6643 0.2334 -0.7101
vn -0.6337 -0.2853 0.7191
vn -0.6188 -0.3135 0.7203
vn -0.6426 -0.2676 0.7180
vn -0.6821 -0.1808 0.7085
vn -0.9971 -0.0764 -0.0064
vn -0.9971 -0.0764 -0.0064
vn -0.9971 -0.0764 -0.0064
vn 0.2674 0.1751 0.9476
vn 0.1446 0.4324 0.8900
vn 0.2259 0.2262 0.9475
vn 0.0232 0.6128 0.7899
vn -0.1346 0.8287 0.5433
vn 0.2542 0.1176 0.9600
vn 0.8529 0.3846 -0.3530
vn 0.8318 0.4200 -0.3629
vn 0.7831 0.4735 -0.4031
vn 0.8988 0.3227 -0.2965
vn 0.8733 0.3446 -0.3443
vn -0.2694 0.8905 0.3666
vn -0.2778 0.9154 0.2913
vn -0.4999 0.6565 -0.5649
vn -0.4598 0.6079 -0.6473
vn -0.4580 0.7391 -0.4939
vn -0.4713 0.7594 -0.4485
vn -0.5297 0.6770 -0.5110
vn -0.8099 -0.1237 0.5734
vn -0.8099 -0.1237 0.5734
vn -0.8099 -0.1237 0.5734
vn -0.3687 0.9128 0.1754
vn 0.0310 0.6762 0.7361
vn 0.0313 0.6745 0.7376
vn 0.0303 0.6798 0.7327
vn 0.3939 -0.3978 0.8286
vn 0.4456 -0.4600 0.7680
vn -0.4932 0.7156 -0.4947
vn -0.1286 0.6336 0.7629
vn -0.1286 0.6336 0.7629
vn -0.1286 0.6336 0.7629
vn -0.2541 0.9168 0.3079
vn 0.3586 -0.0520 0.9320
vn 0.3791 -0.0865 0.9213
vn 0.0299 0.6819 0.7309
vn -0.3399 0.1286 -0.9316
vn -0.2996 0.0761 -0.9510
vn -0.2864 0.0592 -0.9563
vn 0.4612 -0.4789 0.7470
vn 0.3700 -0.6767 0.6365
vn 0.3700 -0.6767 0.6365
vn 0.3700 -0.6767 0.6365
vn -0.2356 0.9141 0.3299
vn 0.3193 0.4110 0.8539
vn 0.1800 0.4499 0.8748
vn 0.2766 0.4568 0.8455
vn -0.8989 0.0332 0.4370
vn -0.9209 0.1580 0.3564
vn -0.8861 -0.0115 0.4633
vn -0.0176 -0.5494 -0.8354
vn -0.0176 -0.5494 -0.8354
vn -0.0176 -0.5494 -0.8354
vn -0.6560 -0.7382 0.1572
vn -0.6483 -0.7527 0.1146
vn -0.6606 -0.7270 0.1873
vn -0.8409 -0.1279 0.5259
vn -0.5833 0.6928 -0.4239
vn 0.8778 -0.4259 -0.2191
vn 0.9569 -0.2893 -0.0247
vn 0.8020 -0.5630 -0.1998
vn -0.0905 0.2654 0.9599
vn -0.1449 0.2101 0.9669
vn -0.6659 -0.7102 0.2284
vn 0.0425 0.4347 -0.8996
vn -0.0385 0.4606 -0.8868
vn 0.2260 0.3676 -0.9021
vn -0.8781 -0.2018 0.4338
vn -0.8719 -0.2250 0.4350
vn -0.8617 -0.2590 0.4363
vn 0.4729 0.1637 0.8657
vn 0.4729 0.1637 0.8657
vn 0.4729 0.1637 0.8657
vn -0.8878 -0.1615 0.4310
vn 0.8601 -0.0532 0.5074
vn 0.8828 0.2490 0.3984
vn 0.5928 -0.1885 0.7829
vn 0.9780 0.1541 0.1407
vn 0.4555 -0.8010 0.3884
vn 0.5179 -0.7112 0.4753
vn 0.4190 -0.8476 0.3256
vn 0.5599 -0.7675 -0.3123
vn 0.5585 -0.8257 -0.0792
vn 0.5043 -0.8615 -0.0585
vn 0.5205 -0.8522 -0.0536
vn -0.0126 -0.5325 0.8463
vn -0.0126 -0.5325 0.8463
vn -0.0126 -0.5325 0.8463
vn -0.3410 0.2677 0.9012
vn -0.2748 0.2766 0.9208
vn -0.3085 0.2723 0.9114
vn 0.8081 0.5881 -0.0340
vn 0.5222 -0.7354 0.4319
vn -0.3599 0.1554 -0.9200
vn 0.4530 -0.8383 -0.3034
vn -0.6159 -0.5015 -0.6076
vn -0.6159 -0.5015 -0.6076
vn -0.6159 -0.5015 -0.6076
vn -0.2398 0.2807 0.9293
vn -0.0817 0.9751 -0.2059
vn -0.0817 0.9751 -0.2059
vn -0.0817 0.9751 -0.2059
vn -0.0220 0.7996 0.6001
vn -0.0220 0.7996 0.6001
vn -0.0220 0.7996 0.6001
vn 0.3301 0.3229 -0.8870
vn -0.5424 0.7088 -0.4509
vn -0.7020 0.5603 0.4395
vn -0.7080 0.5447 0.4495
vn -0.7134 0.5296 0.4589
vn 0.3902 0.1232 -0.9124
vn 0.3046 0.0500 -0.9512
vn 0.0695 0.2722 -0.9597
vn -0.7711 0.5790 -0.2650
vn 0.3440 -0.9129 0.2199
vn 0.7497 0.6617 0.0099
vn 0.9353 0.3294 -0.1294
vn 0.9734 0.2285 -0.0197
vn 0.9880 0.1311 0.0813
vn -0.6703 0.6732 -0.3122
vn -0.9825 -0.1781 0.0538
vn -0.9905 -0.1121 0.0794
vn -0.9879 -0.1287 0.0864
vn 0.1408 0.9895 0.0314
vn 0.1408 0.9895 0.0314
vn 0.1408 0.9895 0.0314
vn 0.8618 0.4386 -0.2549
vn -0.8341 0.1288 -0.5363
vn -0.8228 0.1274 -0.5539
vn -0.8290 0.1282 -0.5443
vn -0.7187 0.5138 0.4685
vn -0.3881 0.4789 0.7874
vn -0.3881 0.4789 0.7874
vn -0.3881 0.4789 0.7874
vn 0.4991 -0.8664 -0.0153
vn -0.6870 0.6914 0.2234
vn -0.6870 0.6914 0.2234
vn -0.6870 0.6914 0.2234
vn 0.9863 0.1623 -0.0297
vn 0.9870 0.1606 -0.0101
vn 0.9878 0.1522 -0.0330
vn -0.9605 -0.2473 0.1273
vn -0.9503 -0.2801 0.1359
vn 0.1174 0.9571 0.2648
vn -0.0068 0.9377 0.3474
vn -0.0341 0.8419 0.5385
vn 0.9890 0.1454 -0.0254
vn 0.9855 0.1685 -0.0216
vn 0.9819 0.1891 0.0129
vn -0.8591 -0.4067 0.3107
vn -0.8591 -0.4067 0.3107
vn -0.8591 -0.4067 0.3107
vn -0.8873 -0.4430 0.1283
vn 0.9804 0.1889 -0.0559
vn 0.3391 0.3276 -0.8819
vn 0.6132 -0.0889 -0.7849
vn 0.5309 0.1844 0.8271
vn 0.5309 0.1844 0.8271
vn 0.5309 0.1844 0.8271
vn 0.5202 -0.8540 -0.0006
vn 0.8811 0.0174 -0.4726
vn 0.7229 -0.0726 -0.6871
vn -0.4014 0.8893 -0.2189
vn -0.4077 0.8755 -0.2594
vn -0.3952 0.9003 -0.1826
vn -0.3398 0.7349 -0.5869
vn -0.4749 0.5922 -0.6510
vn -0.4721 0.6845 -0.5555
vn -0.3872 0.9114 -0.1397
vn 0.3640 -0.4499 0.8155
vn 0.4708 -0.0705 0.8794
vn 0.4541 -0.5290 -0.7169
vn 0.4541 -0.5290 -0.7169
vn 0.4541 -0.5290 -0.7169
vn -0.8383 0.1294 -0.5296
vn -0.8479 0.3720 -0.3777
vn -0.8479 0.3720 -0.3777
vn -0.8479 0.3720 -0.3777
vn 0.6073 0.7373 0.2959
vn 0.6073 0.7373 0.2959
vn 0.6073 0.7373 0.2959
vn 0.8562 -0.4341 -0.2800
vn 0.8562 -0.4341 -0.2800
vn 0.8562 -0.4341 -0.2800
vn -0.2001 0.1737 -0.9642
vn -0.3489 0.2848 -0.8928
vn -0.3455 0.6227 -0.7020
vn -0.0119 -0.1862 -0.9824
vn -0.0046 -0.1932 -0.9811
vn -0.0099 -0.1882 -0.9821
vn -0.0192 -0.1792 -0.9836
vn -0.4112 -0.5135 -0.7532
vn -0.4112 -0.5135 -0.7532
vn -0.4112 -0.5135 -0.7532
vn 0.9520 0.2083 -0.2243
vn 0.9520 0.2083 -0.2243
vn 0.9520 0.2083 -0.2243
vn 0.9753 0.2140 -0.0551
vn 0.9674 0.2315 -0.1030
vn 0.9880 0.1341 -0.0762
vn 0.8816 0.1378 0.4513
vn 0.8816 0.1378 0.4513
vn 0.8816 0.1378 0.4513
vn 0.4801 0.7493 -0.4560
vn 0.4801 0.7493 -0.4560
vn 0.4801 0.7493 -0.4560
vn 0.9381 0.3326 -0.0964
vn 0.4496 0.0049 0.8932
vn -0.1540 0.9463 -0.2844
vn -0.0269 0.9542 -0.2980
vn 0.0291 0.9679 -0.2495
vn -0.3864 0.6836 -0.6192
vn -0.1500 0.8675 0.4743
vn -0.3053 0.7329 -0.6081
vn -0.5340 0.6456 -0.5460
vn -0.5340 0.6456 -0.5460
vn -0.5340 0.6456 -0.5460
vn 0.0314 0.7225 0.6907
vn -0.0383 0.7946 0.6059
vn 0.0199 0.7548 0.6556
vn 0.7530 0.4662 0.4644
vn 0.8200 0.5221 0.2346
vn 0.8253 0.4313 0.3644
vn 0.9090 -0.3976 0.1254
vn 0.9090 -0.3976 0.1254
vn 0.9090 -0.3976 0.1254
vn 0.9940 0.0534 0.0953
vn 0.9827 0.1374 0.1243
vn 0.9218 0.1064 0.3728
vn -0.4701 0.8801 0.0669
vn -0.4015 0.9145 0.0498
vn -0.3576 0.9331 0.0390
vn 0.8563 -0.3794 0.3505
vn 0.8563 -0.3794 0.3505
vn 0.8563 -0.3794 0.3505
vn 0.6582 0.3937 0.6417
vn -0.3751 0.7749 -0.5088
vn -0.0391 0.9986 -0.0360
vn 0.9914 0.1221 -0.0464
vn 0.9828 0.1286 0.1325
vn 0.6804 -0.2309 -0.6955
vn 0.6374 -0.2268 -0.7364
vn 0.2407 -0.1971 -0.9504
vn 0.9996 -0.0250 -0.0128
vn 0.9941 -0.0581 -0.0912
vn 0.9955 -0.0824 0.0471
vn 0.1650 0.9337 -0.3177
vn 0.1650 0.9337 -0.3177
vn 0.1650 0.9337 -0.3177
vn 0.9892 0.1277 -0.0716
vn 0.9669 0.0713 0.2451
vn -0.1121 -0.2417 -0.9638
vn -0.1733 -0.2509 -0.9524
vn 0.9295 0.1616 -0.3315
vn 0.9295 0.1616 -0.3315
vn 0.9295 0.1616 -0.3315
vn 0.9039 0.0931 0.4175
vn 0.9956 0.0821 0.0458
vn 0.9966 -0.0213 0.0790
vn 0.9941 0.0880 0.0629
vn 0.9629 0.2365 -0.1302
vn 0.9988 -0.0100 0.0488
vn 0.9764 0.1647 0.1394
vn 0.9764 0.1647 0.1394
vn -0.3258 0.9150 -0.2382
vn -0.3258 0.9150 -0.2382
vn -0.3258 0.9150 -0.2382
vn 0.4924 -0.4157 -0.7647
vn 0.4924 -0.4157 -0.7647
vn 0.4924 -0.4157 -0.7647
vn 0.7815 0.5877 0.2097
vn 0.7901 0.5910 0.1626
vn 0.5489 0.7487 0.3717
vn 0.4070 -0.4135 0.8145
vn 0.9764 0.1647 0.1394
vn 0.8419 0.2036 -0.4998
vn 0.8447 0.2014 -0.4959
vn 0.8401 0.2050 -0.5022
vn 0.7550 -0.2854 0.5903
vn 0.7247 -0.2377 0.6468
vn 0.6995 -0.4892 0.5209
vn 0.6774 -0.2789 0.6807
vn 0.4898 -0.2801 0.8256
vn 0.5484 -0.2102 0.8094
vn 0.4852 -0.2663 0.8329
vn 0.5521 -0.7574 -0.3485
vn 0.5521 -0.7574 -0.3485
vn 0.5521 -0.7574 -0.3485
vn 0.7087 0.5879 0.3902
vn 0.7087 0.5879 0.3902
vn 0.7087 0.5879 0.3902
vn 0.9223 -0.1021 0.3726
vn 0.9053 -0.2258 0.3598
vn 0.9039 -0.2330 0.3588
vn 0.8141 -0.5782 -0.0539
vn 0.8007 -0.5855 -0.1269
vn 0.8118 -0.5822 -0.0449
vn 0.9719 0.2349 0.0148
vn 0.9719 0.2349 0.0148
vn 0.9719 0.2349 0.0148
vn 0.4556 -0.3879 0.8012
vn 0.8603 -0.3853 0.3338
vn 0.8298 0.0557 -0.5552
vn 0.8033 0.1125 -0.5849
vn 0.8314 -0.1284 -0.5406
vn 0.8455 0.2007 -0.4947
vn 0.6407 -0.6717 -0.3719
vn 0.7855 0.1033 -0.6102
vn 0.7035 0.3154 -0.6369
vn 0.7396 0.4197 -0.5263
vn 0.6093 -0.6890 0.3924
vn 0.7084 -0.2355 0.6653
vn 0.2020 0.9624 -0.1815
vn 0.1650 0.9755 -0.1453
vn -0.0895 0.9893 0.1149
vn -0.1127 0.9855 0.1266
vn 0.7689 0.2634 -0.5826
vn 0.7981 0.2516 -0.5474
vn 0.7846 0.2580 -0.5638
vn 0.7160 -0.2063 0.6670
vn 0.7247 -0.1924 0.6617
vn 0.7181 -0.2029 0.6657
vn 0.7794 0.2653 -0.5676
vn 0.6083 -0.6430 -0.4653
vn 0.8144 0.2718 -0.5127
vn 0.7098 -0.2158 0.6705
vn 0.5097 -0.3829 0.7704
vn 0.4177 -0.2970 0.8587
vn -0.1430 0.9750 0.1702
vn 0.4732 -0.2959 0.8297
vn -0.5684 -0.2852 0.7718
vn -0.6027 -0.3254 0.7286
vn -0.5522 -0.1746 0.8152
vn -0.4519 -0.3548 0.8185
vn -0.4943 -0.1921 0.8478
vn 0.7976 0.2342 -0.5559
vn -0.6105 -0.3068 0.7301
vn -0.1807 -0.3909 0.9025
vn 0.5310 -0.2624 0.8057
vn 0.6523 -0.7458 -0.1351
vn -0.6844 0.2386 -0.6890
vn -0.7028 0.2399 -0.6697
vn -0.6665 0.2352 -0.7074
vn 0.5996 -0.8001 0.0141
vn -0.3932 -0.3779 0.8382
vn 0.4659 -0.3263 0.8225
vn 0.4575 -0.3180 0.8304
vn 0.4479 -0.3084 0.8392
vn 0.7307 0.5436 0.4131
vn 0.7307 0.5436 0.4131
vn 0.7307 0.5436 0.4131
vn 0.1675 0.6343 -0.7547
vn 0.1675 0.6343 -0.7547
vn 0.1675 0.6343 -0.7547
vn -0.6152 0.1846 -0.7665
vn -0.6150 0.1916 -0.7649
vn -0.6329 0.2022 -0.7474
vn -0.6865 0.2346 -0.6882
vn 0.3947 -0.2562 0.8824
vn 0.1506 -0.9873 -0.0506
vn 0.0239 -0.9987 -0.0440
vn -0.0118 -0.9997 -0.0205
vn -0.1276 -0.9913 0.0316
vn -0.7224 0.2446 -0.6468
vn -0.8234 0.1634 -0.5434
vn 0.6530 -0.5343 -0.5368
vn 0.5865 -0.5456 -0.5985
vn 0.6435 -0.5363 -0.5462
vn -0.5579 0.1512 -0.8160
vn -0.3398 -0.9291 0.1458
vn -0.7972 0.2342 -0.5564
vn -0.7910 0.2490 -0.5588
vn -0.7855 0.3541 -0.5075
vn 0.5835 -0.8068 0.0934
vn 0.2748 -0.9382 -0.2105
vn 0.2748 -0.9382 -0.2105
vn 0.2748 -0.9382 -0.2105
vn -0.7633 0.2309 -0.6034
vn -0.4651 -0.3504 0.8130
vn -0.4651 -0.3504 0.8130
vn -0.4651 -0.3504 0.8130
vn -0.8653 -0.2303 0.4452
vn -0.8653 -0.2303 0.4452
vn -0.8653 -0.2303 0.4452
vn -0.6233 0.1675 -0.7638
vn -0.9562 0.0598 -0.2865
vn -0.9562 0.0598 -0.2865
vn -0.9562 0.0598 -0.2865
vn -0.6423 -0.3307 0.6915
vn 0.5805 -0.7786 0.2383
vn 0.5805 -0.7786 0.2383
vn 0.5805 -0.7786 0.2383
vn 0.8483 -0.2054 -0.4880
vn 0.8730 -0.2106 -0.4400
vn 0.8667 -0.2093 -0.4528
vn 0.8412 -0.2039 -0.5009
vn 0.5756 -0.5470 -0.6078
vn -0.3926 -0.9042 0.1683
vn -0.3390 -0.7854 -0.5179
vn -0.4468 -0.6159 -0.6489
vn -0.4582 -0.5927 -0.6624
vn -0.4263 -0.0492 -0.9033
vn -0.4263 -0.0492 -0.9033
vn -0.4263 -0.0492 -0.9033
vn -0.5213 -0.4346 -0.7344
vn 0.5590 -0.8045 0.2007
vn 0.5683 -0.7936 0.2176
vn 0.3333 -0.8542 -0.3991
vn 0.3373 -0.8625 -0.3774
vn 0.3361 -0.8600 -0.3840
vn 0.2647 -0.5975 0.7569
vn 0.3318 -0.8510 -0.4070
vn 0.7061 0.4866 0.5145
vn 0.0136 -0.6645 -0.7471
vn 0.0136 -0.6645 -0.7471
vn 0.0136 -0.6645 -0.7471
vn 0.5727 0.7522 0.3257
vn 0.3854 -0.3638 0.8480
vn 0.4204 -0.4408 0.7931
vn 0.4416 -0.6294 0.6394
vn 0.4339 -0.5359 0.7243
vn 0.2626 -0.5465 0.7953
vn 0.9944 0.1054 -0.0092
vn 0.9944 0.1054 -0.0092
vn 0.9944 0.1054 -0.0092
vn 0.9224 0.1652 0.3491
vn 0.6672 0.2923 0.6852
vn 0.8930 0.1883 0.4088
vn 0.8142 -0.1845 0.5505
vn 0.8641 -0.1860 0.4677
vn 0.6911 -0.2075 0.6923
vn 0.6598 0.4478 -0.6035
vn 0.6762 0.4212 -0.6045
vn 0.6780 0.4180 -0.6046
vn 0.7467 0.4131 -0.5214
vn 0.7156 0.4744 -0.5127
vn 0.6935 0.5132 -0.5057
vn 0.6964 0.3862 -0.6049
vn 0.3302 -0.8992 0.2871
vn 0.3302 -0.8992 0.2871
vn 0.3302 -0.8992 0.2871
vn -0.6937 -0.6068 -0.3882
vn -0.6937 -0.6068 -0.3882
vn -0.6937 -0.6068 -0.3882
vn 0.9509 0.0562 -0.3045
vn 0.9509 0.0562 -0.3045
vn 0.9509 0.0562 -0.3045
vn 0.2171 -0.3046 -0.9274
vn 0.2171 -0.3046 -0.9274
vn 0.2171 -0.3046 -0.9274
vn -0.1984 0.4317 0.8799
vn -0.1130 0.3954 0.9115
vn -0.2602 0.4558 0.8512
vn 0.9993 -0.0006 0.0371
vn 0.9910 -0.0260 -0.1313
vn 0.9922 0.0852 0.0914
vn -0.3072 0.4729 0.8258
vn 0.9876 -0.0446 -0.1503
vn 0.9273 0.2233 0.3005
vn 0.9273 0.2233 0.3005
vn 0.9273 0.2233 0.3005
vn 0.9821 -0.0250 -0.1865
vn 0.8889 -0.0201 0.4577
vn 0.9944 -0.0925 0.0519
vn 0.9962 0.0109 0.0860
vn -0.0091 -0.7756 -0.6312
vn -0.0091 -0.7756 -0.6312
vn -0.0091 -0.7756 -0.6312
vn 0.9915 0.1003 0.0828
vn 0.7801 -0.6221 -0.0672
vn 0.8359 -0.5314 -0.1377
vn 0.8129 -0.5725 -0.1068
vn 0.9941 0.0998 0.0422
vn 0.7687 0.6055 0.2060
vn 0.7687 0.6055 0.2060
vn 0.7687 0.6055 0.2060
vn 0.4695 0.6238 0.6249
vn -0.3569 -0.0025 -0.9341
vn -0.3569 -0.0025 -0.9341
vn -0.3569 -0.0025 -0.9341
vn 0.6113 -0.1497 0.7771
vn 0.0867 -0.2871 -0.9540
vn 0.1553 -0.2931 -0.9434
vn 0.1428 -0.2927 -0.9455
vn 0.6641 0.5597 -0.4957
vn 0.9797 0.1908 -0.0608
vn 0.8313 0.5264 -0.1784
vn 0.9903 0.1303 -0.0478
vn 0.6155 0.3071 0.7258
vn 0.0865 -0.2898 -0.9532
vn 0.8549 -0.4916 -0.1660
vn 0.6803 0.6585 -0.3219
vn 0.6102 0.6908 -0.3879
vn 0.9828 0.1052 0.1521
vn 0.9828 0.1052 0.1521
vn 0.9828 0.1052 0.1521
vn 0.1046 -0.6713 -0.7338
vn 0.1047 -0.5521 -0.8272
vn 0.4585 -0.1833 -0.8696
vn 0.3718 -0.2170 0.9026
vn 0.9487 0.2972 0.1078
vn 0.9487 0.2972 0.1078
vn 0.9487 0.2972 0.1078
vn 0.7478 0.2451 0.6170
vn 0.7478 0.2451 0.6170
vn 0.7478 0.2451 0.6170
vn 0.2855 -0.9574 0.0427
vn 0.4299 -0.9026 0.0237
vn 0.1178 -0.9778 0.1731
vn -0.5381 -0.7617 0.3608
vn -0.5381 -0.7617 0.3608
vn -0.5381 -0.7617 0.3608
vn 0.2096 0.9352 -0.2855
vn -0.0722 0.8931 -0.4441
vn 0.1343 0.9336 -0.3322
vn 0.9849 0.1727 -0.0123
vn 0.9929 0.0947 -0.0723
vn 0.9876 0.0489 -0.1494
vn 0.5146 -0.8557 -0.0540
vn 0.5146 -0.8557 -0.0540
vn 0.5146 -0.8557 -0.0540
vn 0.2558 -0.1504 -0.9550
vn 0.5927 -0.8034 0.0564
vn 0.9824 0.1794 0.0516
vn 0.5990 0.7986 -0.0591
vn 0.5990 0.7986 -0.0591
vn 0.5990 0.7986 -0.0591
vn 0.2885 -0.2035 -0.9356
vn 0.1340 -0.1694 -0.9764
vn 0.4211 -0.2295 -0.8775
vn 0.7557 -0.6265 0.1907
vn 0.7082 -0.6894 0.1523
vn 0.0717 -0.2845 -0.9560
vn -0.1896 0.8466 -0.4972
vn -0.6096 0.3861 0.6924
vn -0.5832 0.3714 0.7225
vn -0.7164 0.4470 0.5357
vn 0.5788 0.0525 -0.8138
vn 0.0801 -0.1567 -0.9844
vn -0.5842 0.3235 0.7443
vn 0.8121 -0.0843 -0.5774
vn 0.8121 -0.0843 -0.5774
vn 0.8121 -0.0843 -0.5774
vn 0.9804 0.1940 -0.0346
vn 0.9973 0.0695 -0.0257
vn 0.9973 0.0695 -0.0257
vn 0.9973 0.0695 -0.0257
vn -0.5772 0.3342 0.7451
vn 0.9850 0.0799 -0.1531
vn 0.9913 0.1297 -0.0215
vn 0.9913 0.1297 -0.0215
vn 0.9913 0.1297 -0.0215
vn 0.9877 0.1300 -0.0870
vn 0.9744 0.0458 -0.2200
vn 0.9911 0.1276 -0.0392
vn 0.1948 -0.2807 -0.9398
vn 0.1478 -0.1455 -0.9783
vn 0.1852 -0.2851 -0.9404
vn 0.7828 0.4546 -0.4250
vn 0.5909 0.7342 -0.3344
vn 0.7938 0.4301 -0.4300
vn 0.1387 0.0151 -0.9902
vn 0.1435 -0.1686 -0.9752
vn 0.0883 -0.4970 0.8633
vn 0.7286 -0.1832 -0.6599
vn 0.7607 -0.1548 -0.6304
vn 0.7421 -0.1716 -0.6480
vn 0.8372 0.3128 -0.4486
vn -0.1979 -0.9242 0.3267
vn -0.0635 -0.9728 0.2228
vn -0.1716 -0.9470 0.2717
vn -0.1091 -0.4623 0.8800
vn -0.0896 0.9202 -0.3811
vn -0.2071 0.8574 -0.4711
vn -0.0283 0.9432 -0.3310
vn 0.0826 0.9685 -0.2350
vn 0.9350 -0.2828 0.2140
vn 0.9343 -0.3271 0.1418
vn 0.8884 -0.1213 0.4428
vn 0.7100 -0.1852 -0.6794
vn 0.7681 -0.0626 -0.6373
vn 0.7513 -0.1017 -0.6521
vn -0.3461 -0.5476 0.7618
vn 0.4319 0.5696 -0.6993
vn 0.4319 0.5696 -0.6993
vn 0.4319 0.5696 -0.6993
vn 0.8590 -0.0684 0.5074
vn 0.8022 0.0323 -0.5962
vn 0.9429 0.3325 0.0186
vn 0.9459 0.3244 0.0068
vn 0.9259 0.3703 0.0749
vn 0.9587 0.2785 -0.0581
vn 0.3171 0.9203 -0.2290
vn 0.3171 0.9203 -0.2290
vn 0.3171 0.9203 -0.2290
vn -0.6389 -0.0261 -0.7689
vn -0.6389 -0.0261 -0.7689
vn -0.6389 -0.0261 -0.7689
vn 0.7471 -0.2512 -0.6154
vn 0.7471 -0.2512 -0.6154
vn 0.7471 -0.2512 -0.6154
vn 0.9763 0.1840 0.1142
vn 0.9763 0.1840 0.1142
vn 0.9763 0.1840 0.1142
vn 0.1799 0.0890 -0.9796
vn 0.1799 0.0890 -0.9796
vn 0.1799 0.0890 -0.9796
vn -0.3564 0.8445 0.3998
vn -0.3554 0.8445 0.4007
vn -0.3710 0.8439 0.3874
vn 0.4356 -0.0319 0.8996
vn 0.4356 -0.0319 0.8996
vn 0.4356 -0.0319 0.8996
vn -0.4517 0.8731 0.1836
vn -0.4517 0.8731 0.1836
vn -0.8529 -0.1744 0.4920
vn -0.8464 -0.2008 0.4932
vn -0.8496 -0.1978 0.4889
vn -0.3385 0.8447 0.4146
vn -0.8506 -0.1772 0.4951
vn -0.9839 0.1613 -0.0768
vn -0.9958 0.0792 0.0466
vn -0.9700 0.2038 -0.1327
vn -0.9494 0.2550 -0.1832
vn 0.8218 0.3844 0.4206
vn 0.8119 0.4412 0.3824
vn -0.9325 0.2955 -0.2078
vn 0.7506 0.5444 0.3744
vn -0.8628 -0.1388 0.4862
vn -0.9464 0.2377 -0.2184
vn 0.9775 0.0780 -0.1962
vn 0.9983 -0.0307 -0.0494
vn 0.9830 -0.1326 -0.1271
vn 0.9893 -0.0560 -0.1351
vn 0.0249 0.2398 0.9705
vn 0.0334 0.2733 0.9613
vn 0.0306 0.2772 0.9603
vn 0.1072 0.1579 0.9816
vn 0.0913 0.2068 0.9741
vn 0.1376 0.0320 0.9900
vn 0.9510 0.1732 -0.2560
vn 0.9396 0.2463 -0.2375
vn 0.9741 0.1712 0.1479
vn 0.9957 0.0615 0.0693
vn 0.9751 -0.2077 -0.0772
vn 0.9905 -0.1291 -0.0464
vn 0.9857 -0.1598 -0.0530
vn 0.9761 0.1738 0.1308
vn -0.4517 0.8731 0.1836
vn 0.2222 -0.8966 0.3830
vn 0.3792 -0.8567 0.3495
vn 0.4217 -0.8205 0.3860
vn 0.4849 -0.7818 0.3919
vn 0.5189 -0.7725 0.3660
vn 0.9748 0.2229 -0.0107
vn 0.9748 0.2229 -0.0107
vn 0.9748 0.2229 -0.0107
vn 0.5653 -0.6596 0.4953
vn 0.7072 -0.6792 0.1964
vn 0.7108 -0.6741 0.2007
vn 0.7264 -0.6515 0.2191
vn 0.5973 -0.6478 0.4729
vn 0.3375 0.4524 0.8254
vn 0.3375 0.4524 0.8254
vn 0.3375 0.4524 0.8254
vn 0.9818 -0.0832 0.1706
vn 0.9609 -0.1813 0.2091
vn 0.9817 0.1801 0.0616
vn 0.1992 -0.4063 -0.8918
vn 0.1992 -0.4063 -0.8918
vn 0.1992 -0.4063 -0.8918
vn 0.9574 -0.2165 0.1912
vn 0.9574 -0.2165 0.1912
vn 0.9574 -0.2165 0.1912
vn -0.1041 0.1626 0.9812
vn -0.1041 0.1626 0.9812
vn -0.1041 0.1626 0.9812
vn 0.6953 -0.6950 0.1830
vn -0.8105 0.1082 0.5757
vn -0.8105 0.1082 0.5757
vn -0.8105 0.1082 0.5757
vn 0.8761 -0.4474 0.1798
vn 0.8580 -0.4038 0.3174
vn 0.6220 -0.6316 0.4628
vn 0.6428 -0.5823 0.4977
vn 0.4380 0.4377 0.7852
vn 0.2914 0.3997 0.8691
vn 0.4567 0.4418 0.7721
vn 0.8539 -0.3324 0.4005
vn 0.2668 0.3924 0.8802
vn 0.0740 -0.8103 -0.5814
vn -0.0498 -0.6264 -0.7779
vn 0.0699 -0.8051 -0.5890
vn 0.1600 -0.8994 -0.4068
vn -0.5862 -0.7558 -0.2918
vn -0.5862 -0.7558 -0.2918
vn -0.5862 -0.7558 -0.2918
vn 0.5558 -0.7612 0.3342
vn 0.2909 -0.0727 -0.9540
vn 0.2909 -0.0727 -0.9540
vn 0.2909 -0.0727 -0.9540
vn 0.9997 0.0183 -0.0155
vn 0.9556 -0.0800 0.2836
vn 0.9948 -0.0126 0.1010
vn -0.2699 -0.9255 -0.2657
vn -0.2699 -0.9255 -0.2657
vn -0.2699 -0.9255 -0.2657
vn 0.9467 -0.0407 0.3197
vn 0.3553 -0.8445 0.4008
vn 0.3071 -0.8853 0.3492
vn 0.2362 -0.8599 0.4525
vn 0.3157 -0.7867 0.5304
vn 0.4272 -0.8386 0.3380
vn 0.4133 -0.4719 -0.7787
vn 0.3348 -0.4496 -0.8281
vn 0.8063 0.5855 -0.0841
vn 0.7991 0.6010 0.0129
vn 0.8001 0.5998 0.0042
vn -0.4250 0.8971 0.1208
vn -0.2253 0.9439 0.2414
vn -0.4377 0.8991 -0.0039
vn 0.2302 0.8213 -0.5220
vn 0.2302 0.8213 -0.5220
vn 0.2302 0.8213 -0.5220
vn -0.4023 0.9102 -0.0986
vn 0.8066 0.5781 -0.1235
vn 0.8127 0.5827 0.0097
vn 0.8014 0.5980 -0.0142
vn 0.5180 -0.5326 -0.6693
vn 0.6751 0.7372 0.0294
vn 0.6754 0.7354 0.0544
vn -0.1554 0.7322 -0.6631
vn -0.2718 0.7516 -0.6010
vn -0.0754 0.7118 -0.6983
vn 0.6039 -0.6126 -0.5099
vn -0.4475 0.8134 0.3717
vn -0.3910 0.8754 0.2843
vn -0.3773 0.8943 0.2408
vn -0.0233 0.6956 -0.7181
vn -0.4641 0.7944 0.3918
vn -0.4959 0.7817 0.3783
vn -0.4353 0.8929 0.1149
vn -0.4353 0.8929 0.1149
vn -0.4353 0.8929 0.1149
vn -0.4157 0.8625 -0.2887
vn -0.4157 0.8625 -0.2887
vn -0.3901 0.8839 0.2579
vn -0.3901 0.8839 0.2579
vn -0.4157 0.8625 -0.2887
vn -0.3901 0.8839 0.2579
vn 0.0000 1.0000 0.0000
vn 0.0000 1.0000 0.0000
vn 0.0000 1.0000 0.0000
vn 0.0000 1.0000 0.0000
vn 0.0000 1.0000 0.0000
vn 0.0000 1.0000 0.0000
vn 0.0000 1.0000 0.0000
vn 0.0000 1.0000 0.0000
vn 0.0000 1.0000 0.0000
vn 0.0000 1.0000 0.0000
vn 0.0000 1.0000 0.0000
vn 0.0000 1.0000 0.0000
vn 0.0000 1.0000 0.0000
vn 0.0000 1.0000 0.0000
vn 0.0000 1.0000 0.0000
vn 0.0000 1.0000 0.0000
vn 0.0000 1.0000 0.0000
vn 0.0000 1.0000 0.0000
vn 0.0000 1.0000 0.0000
vn 0.0000 1.0000 0.0000
vn 0.0000 1.0000 0.0000
vn 0.0000 1.0000 0.0000
vn 0.0000 1.0000 0.0000
vn 0.0000 1.0000 0.0000
vn 0.0000 1.0000 0.0000
vn 0.0000 1.0000 0.0000
vn 0.0000 1.0000 0.0000
vn 0.0000 1.0000 0.0000
vn 0.0000 1.0000 0.0000
vn 0.0000 1.0000 0.0000
vn 0.0000 1.0000 0.0000
vn 0.0000 1.0000 0.0000
vn 0.0000 1.0000 0.0000
vn 0.0000 1.0000 0.0000
vn 0.0000 1.0000 0.0000
vn 0.0000 1.0000 0.0000
vn 0.0000 1.0000 0.0000
vn 0.0000 1.0000 0.0000
vn 0.0000 1.0000 0.0000
vn 0.0000 1.0000 0.0000
vn 0.0000 1.0000 0.0000
vn 0.0000 1.0000 0.0000
vn 0.0000 1.0000 0.0000
vn 0.0000 1.0000 0.0000
vn 0.0000 1.0000 0.0000
vn 0.0000 1.0000 0.0000
vn 0.0000 1.0000 0.0000
vn 0.0000 1.0000 0.0000
vn 0.0000 1.0000 0.0000
vn 0.0000 1.0000 0.0000
vn 0.0000 1.0000 0.0000
vn 0.0000 1.0000 0.0000
vn 0.0000 1.0000 0.0000
vn 0.0000 1.0000 0.0000
vn 0.0000 1.0000 0.0000
vn 0.0000 1.0000 0.0000
vn 0.0000 1.0000 0.0000
vn 0.0000 1.0000 0.0000
vn 0.0000 1.0000 0.0000
vn 0.0000 1.0000 0.0000
vn 0.0000 1.0000 0.0000
f 1/1/1 2/2/2 3/3/3
f 303/303/303 304/304/304 305/305/305
f 4/4/4 5/5/5 6/6/6
f 306/306/306 307/307/307 308/308/308
f 309/309/309 308/308/308 307/307/307
f 310/310/310 311/311/311 312/312/312
f 7/7/7 8/8/8 9/9/9
f 313/313/313 314/314/314 315/315/315
f 316/316/316 317/317/317 318/318/318
f 319/319/319 320/320/320 321/321/321
f 322/322/322 323/323/323 324/324/324
f 325/325/325 326/326/326 327/327/327
f 312/312/312 328/328/328 310/310/310
f 320/320/320 329/329/329 321/321/321
f 330/330/330 331/331/331 332/332/332
f 303/303/303 333/333/333 304/304/304
f 10/10/10 6/6/6 5/5/5
f 11/11/11 12/12/12 13/13/13
f 323/323/323 322/322/322 334/334/334
f 335/335/335 336/336/336 337/337/337
f 308/308/308 338/338/338 306/306/306
f 308/308/308 309/309/309 339/339/339
f 340/340/340 341/341/341 342/342/342
f 342/342/342 341/341/341 343/343/343
f 14/14/14 7/7/7 9/9/9
f 344/344/344 345/345/345 346/346/346
f 332/332/332 331/331/331 335/335/335
f 29/29/29 30/30/30 31/31/31
f 347/347/347 348/348/348 349/349/349
f 346/346/346 350/350/350 344/344/344
f 351/351/351 323/323/323 334/334/334
f 346/346/346 345/345/345 352/352/352
f 353/353/353 347/347/347 349/349/349
f 13/13/13 15/15/15 16/16/16
f 328/328/328 354/354/354 309/309/309
f 355/355/355 328/328/328 312/312/312
f 32/32/32 31/31/31 30/30/30
f 32/32/32 30/30/30 33/33/33
f 31/31/31 34/34/34 29/29/29
f 342/342/342 343/343/343 356/356/356
f 328/328/328 357/357/357 354/354/354
f 339/339/339 309/309/309 354/354/354
f 35/35/35 36/36/36 37/37/37
f 357/357/357 328/328/328 355/355/355
f 358/358/358 359/359/359 360/360/360
f 6/6/6 10/10/10 17/17/17
f 361/361/361 358/358/358 362/362/362
f 350/350/350 363/363/363 330/330/330
f 16/16/16 11/11/11 13/13/13
f 362/362/362 358/358/358 360/360/360
f 350/350/350 346/346/346 363/363/363
f 360/360/360 359/359/359 364/364/364
f 18/18/18 19/19/19 20/20/20
f 363/363/363 331/331/331 330/330/330
f 358/358/358 361/361/361 365/365/365
f 21/21/21 20/20/20 19/19/19
f 336/336/336 335/335/335 331/331/331
f 354/354/354 357/357/357 366/366/366
f 351/351/351 334/334/334 367/367/367
f 368/368/368 369/369/369 370/370/370
f 371/371/371 367/367/367 334/334/334
f 358/358/358 372/372/372 359/359/359
f 373/373/373 374/374/374 375/375/375
f 35/35/35 38/38/38 36/36/36
f 376/376/376 377/377/377 378/378/378
f 358/358/358 365/365/365 372/372/372
f 379/379/379 380/380/380 381/381/381
f 382/382/382 383/383/383 384/384/384
f 385/385/385 369/369/369 368/368/368
f 22/22/22 23/23/23 24/24/24
f 35/35/35 39/39/39 38/38/38
f 375/375/375 374/374/374 386/386/386
f 387/387/387 388/388/388 389/389/389
f 389/389/389 388/388/388 390/390/390
f 391/391/391 385/385/385 392/392/392
f 393/393/393 394/394/394 395/395/395
f 22/22/22 24/24/24 25/25/25
f 396/396/396 383/383/383 382/382/382
f 389/389/389 390/390/390 397/397/397
f 40/40/40 33/33/33 41/41/41
f 398/398/398 399/399/399 400/400/400
f 26/26/26 27/27/27 28/28/28
f 385/385/385 368/368/368 392/392/392
f 371/371/371 401/401/401 367/367/367
f 402/402/402 403/403/403 404/404/404
f 392/392/392 405/405/405 391/391/391
f 406/406/406 407/407/407 408/408/408
f 409/409/409 410/410/410 411/411/411
f 42/42/42 43/43/43 44/44/44
f 40/40/40 32/32/32 33/33/33
f 399/399/399 398/398/398 392/392/392
f 396/396/396 382/382/382 412/412/412
f 413/413/413 414/414/414 415/415/415
f 372/372/372 416/416/416 359/359/359
f 405/405/405 392/392/392 398/398/398
f 417/417/417 418/418/418 419/419/419
f 42/42/42 45/45/45 46/46/46
f 420/420/420 421/421/421 422/422/422
f 420/420/420 422/422/422 423/423/423
f 424/424/424 395/395/395 394/394/394
f 47/47/47 48/48/48 49/49/49
f 40/40/40 41/41/41 50/50/50
f 390/390/390 425/425/425 397/397/397
f 51/51/51 52/52/52 53/53/53
f 426/426/426 427/427/427 428/428/428
f 429/429/429 430/430/430 431/431/431
f 428/428/428 427/427/427 432/432/432
f 44/44/44 45/45/45 42/42/42
f 54/54/54 301/301/301 55/55/55
f 46/46/46 45/45/45 56/56/56
f 433/433/433 401/401/401 371/371/371
f 57/57/57 58/58/58 59/59/59
f 434/434/434 401/401/401 433/433/433
f 40/40/40 50/50/50 60/60/60
f 435/435/435 436/436/436 437/437/437
f 56/56/56 45/45/45 44/44/44
f 61/61/61 31/31/31 62/62/62
f 61/61/61 34/34/34 31/31/31
f 53/53/53 63/63/63 51/51/51
f 64/64/64 65/65/65 66/66/66
f 439/439/439 435/435/435 437/437/437
f 55/55/55 301/301/301 67/67/67
f 68/68/68 69/69/69 70/70/70
f 743/743/743 744/744/744 745/745/745
f 441/441/441 442/442/442 443/443/443
f 60/60/60 50/50/50 71/71/71
f 746/746/746 748/748/748 747/747/747
f 72/72/72 73/73/73 74/74/74
f 75/75/75 76/76/76 77/77/77
f 446/446/446 447/447/447 448/448/448
f 78/78/78 79/79/79 80/80/80
f 81/81/81 82/82/82 83/83/83
f 749/749/749 750/750/750 751/751/751
f 438/438/438 445/445/445 449/449/449
f 77/77/77 84/84/84 75/75/75
f 450/450/450 451/451/451 452/452/452
f 85/85/85 56/56/56 44/44/44
f 86/86/86 87/87/87 88/88/88
f 453/453/453 454/454/454 455/455/455
f 746/746/746 752/752/752 748/748/748
f 89/89/89 73/73/73 90/90/90
f 456/456/456 457/457/457 458/458/458
f 459/459/459 460/460/460 461/461/461
f 81/81/81 83/83/83 91/91/91
f 462/462/462 463/463/463 464/464/464
f 465/465/465 461/461/461 460/460/460
f 92/92/92 93/93/93 94/94/94
f 466/466/466 467/467/467 468/468/468
f 677/677/677 678/678/678 679/679/679
f 469/469/469 470/470/470 471/471/471
f 472/472/472 473/473/473 474/474/474
f 95/95/95 96/96/96 97/97/97
f 753/753/753 754/754/754 755/755/755
f 475/475/475 476/476/476 477/477/477
f 478/478/478 479/479/479 480/480/480
f 98/98/98 99/99/99 100/100/100
f 95/95/95 101/101/101 96/96/96
f 102/102/102 103/103/103 104/104/104
f 756/756/756 742/742/742 741/741/741
f 481/481/481 482/482/482 483/483/483
f 73/73/73 89/89/89 74/74/74
f 484/484/484 478/478/478 480/480/480
f 757/757/757 755/755/755 758/758/758
f 481/481/481 485/485/485 482/482/482
f 486/486/486 487/487/487 488/488/488
f 102/102/102 105/105/105 103/103/103
f 489/489/489 482/482/482 485/485/485
f 490/490/490 457/457/457 456/456/456
f 106/106/106 107/107/107 108/108/108
f 86/86/86 88/88/88 109/109/109
f 491/491/491 481/481/481 492/492/492
f 493/493/493 494/494/494 495/495/495
f 483/483/483 492/492/492 481/481/481
f 492/492/492 483/483/483 496/496/496
f 497/497/497 498/498/498 499/499/499
f 758/758/758 755/755/755 754/754/754
f 110/110/110 111/111/111 112/112/112
f 496/496/496 483/483/483 500/500/500
f 501/501/501 502/502/502 503/503/503
f 440/440/440 444/444/444 504/504/504
f 680/680/680 679/679/679 681/681/681
f 505/505/505 506/506/506 507/507/507
f 508/508/508 456/456/456 458/458/458
f 509/509/509 510/510/510 511/511/511
f 113/113/113 114/114/114 115/115/115
f 116/116/116 117/117/117 118/118/118
f 463/463/463 512/512/512 464/464/464
f 513/513/513 514/514/514 515/515/515
f 105/105/105 119/119/119 103/103/103
f 120/120/120 108/108/108 107/107/107
f 682/682/682 683/683/683 684/684/684
f 759/759/759 760/760/760 761/761/761
f 679/679/679 678/678/678 685/685/685
f 64/64/64 121/121/121 65/65/65
f 122/122/122 109/109/109 88/88/88
f 516/516/516 455/455/455 454/454/454
f 686/686/686 687/687/687 688/688/688
f 511/511/511 517/517/517 509/509/509
f 499/499/499 498/498/498 518/518/518
f 514/514/514 513/513/513 519/519/519
f 123/123/123 124/124/124 125/125/125
f 689/689/689 679/679/679 685/685/685
f 519/519/519 520/520/520 514/514/514
f 742/742/742 756/756/756 762/762/762
f 521/521/521 522/522/522 523/523/523
f 524/524/524 525/525/525 526/526/526
f 690/690/690 691/691/691 692/692/692
f 448/448/448 527/527/527 446/446/446
f 693/693/693 694/694/694 695/695/695
f 117/117/117 126/126/126 118/118/118
f 528/528/528 529/529/529 530/530/530
f 531/531/531 532/532/532 533/533/533
f 127/127/127 128/128/128 129/129/129
f 130/130/130 131/131/131 132/132/132
f 534/534/534 535/535/535 536/536/536
f 679/679/679 689/689/689 681/681/681
f 133/133/133 92/92/92 94/94/94
f 85/85/85 44/44/44 134/134/134
f 537/537/537 538/538/538 539/539/539
f 540/540/540 541/541/541 542/542/542
f 696/696/696 697/697/697 698/698/698
f 699/699/699 700/700/700 701/701/701
f 543/543/543 544/544/544 545/545/545
f 546/546/546 547/547/547 548/548/548
f 702/702/702 703/703/703 704/704/704
f 525/525/525 549/549/549 526/526/526
f 534/534/534 550/550/550 535/535/535
f 135/135/135 136/136/136 137/137/137
f 545/545/545 551/551/551 543/543/543
f 705/705/705 687/687/687 686/686/686
f 706/706/706 707/707/707 708/708/708
f 552/552/552 553/553/553 554/554/554
f 138/138/138 139/139/139 140/140/140
f 141/141/141 85/85/85 134/134/134
f 555/555/555 556/556/556 557/557/557
f 629/629/629 630/630/630 631/631/631
f 709/709/709 694/694/694 693/693/693
f 106/106/106 108/108/108 142/142/142
f 103/103/103 119/119/119 143/143/143
f 144/144/144 145/145/145 146/146/146
f 689/689/689 711/711/711 712/712/712
f 558/558/558 559/559/559 550/550/550
f 509/509/509 517/517/517 560/560/560
f 713/713/713 714/714/714 715/715/715
f 134/134/134 147/147/147 141/141/141
f 148/148/148 149/149/149 150/150/150
f 694/694/694 710/710/710 716/716/716
f 559/559/559 535/535/535 550/550/550
f 151/151/151 152/152/152 153/153/153
f 542/542/542 541/541/541 561/561/561
f 144/144/144 154/154/154 145/145/145
f 717/717/717 714/714/714 713/713/713
f 562/562/562 563/563/563 564/564/564
f 155/155/155 156/156/156 157/157/157
f 136/136/136 158/158/158 137/137/137
f 718/718/718 719/719/719 720/720/720
f 720/720/720 721/721/721 718/718/718
f 565/565/565 526/526/526 549/549/549
f 556/556/556 555/555/555 566/566/566
f 159/159/159 160/160/160 161/161/161
f 562/562/562 567/567/567 563/563/563
f 111/111/111 162/162/162 112/112/112
f 722/722/722 723/723/723 724/724/724
f 163/163/163 164/164/164 165/165/165
f 568/568/568 569/569/569 570/570/570
f 571/571/571 544/544/544 543/543/543
f 166/166/166 167/167/167 168/168/168
f 572/572/572 573/573/573 574/574/574
f 567/567/567 562/562/562 575/575/575
f 545/545/545 544/544/544 576/576/576
f 169/169/169 170/170/170 150/150/150
f 577/577/577 578/578/578 579/579/579
f 171/171/171 172/172/172 173/173/173
f 167/167/167 174/174/174 168/168/168
f 175/175/175 167/167/167 176/176/176
f 177/177/177 178/178/178 179/179/179
f 576/576/576 544/544/544 580/580/580
f 685/685/685 711/711/711 689/689/689
f 545/545/545 576/576/576 581/581/581
f 180/180/180 170/170/170 169/169/169
f 580/580/580 582/582/582 576/576/576
f 176/176/176 181/181/181 175/175/175
f 133/133/133 94/94/94 182/182/182
f 712/712/712 711/711/711 725/725/725
f 726/726/726 727/727/727 728/728/728
f 167/167/167 175/175/175 174/174/174
f 729/729/729 730/730/730 731/731/731
f 183/183/183 139/139/139 138/138/138
f 150/150/150 149/149/149 169/169/169
f 632/632/632 633/633/633 634/634/634
f 583/583/583 584/584/584 585/585/585
f 184/184/184 185/185/185 186/186/186
f 586/586/586 587/587/587 588/588/588
f 589/589/589 590/590/590 584/584/584
f 591/591/591 449/449/449 445/445/445
f 592/592/592 593/593/593 594/594/594
f 732/732/732 733/733/733 734/734/734
f 187/187/187 112/112/112 162/162/162
f 138/138/138 188/188/188 189/189/189
f 763/763/763 764/764/764 765/765/765
f 585/585/585 584/584/584 590/590/590
f 190/190/190 191/191/191 192/192/192
f 193/193/193 194/194/194 195/195/195
f 586/586/586 588/588/588 595/595/595
f 138/138/138 189/189/189 183/183/183
f 190/190/190 192/192/192 196/196/196
f 197/197/197 104/104/104 198/198/198
f 596/596/596 597/597/597 598/598/598
f 199/199/199 200/200/200 201/201/201
f 731/731/731 730/730/730 735/735/735
f 591/591/591 445/445/445 599/599/599
f 157/157/157 202/202/202 155/155/155
f 203/203/203 204/204/204 205/205/205
f 206/206/206 207/207/207 208/208/208
f 209/209/209 210/210/210 211/211/211
f 600/600/600 601/601/601 602/602/602
f 603/603/603 600/600/600 602/602/602
f 766/766/766 759/759/759 761/761/761
f 604/604/604 605/605/605 606/606/606
f 607/607/607 608/608/608 609/609/609
f 212/212/212 213/213/213 194/194/194
f 591/591/591 599/599/599 610/610/610
f 611/611/611 612/612/612 613/613/613
f 194/194/194 213/213/213 214/214/214
f 604/604/604 606/606/606 614/614/614
f 215/215/215 216/216/216 217/217/217
f 217/217/217 218/218/218 215/215/215
f 615/615/615 609/609/609 608/608/608
f 104/104/104 103/103/103 198/198/198
f 219/219/219 220/220/220 221/221/221
f 616/616/616 617/617/617 618/618/618
f 617/617/617 616/616/616 619/619/619
f 222/222/222 223/223/223 224/224/224
f 225/225/225 226/226/226 227/227/227
f 740/740/740 737/737/737 736/736/736
f 228/228/228 229/229/229 230/230/230
f 231/231/231 232/232/232 233/233/233
f 767/767/767 763/763/763 768/768/768
f 620/620/620 621/621/621 622/622/622
f 623/623/623 624/624/624 625/625/625
f 225/225/225 234/234/234 226/226/226
f 769/769/769 770/770/770 771/771/771
f 626/626/626 627/627/627 628/628/628
f 235/235/235 198/198/198 103/103/103
f 772/772/772 776/776/776 773/773/773
f 195/195/195 194/194/194 214/214/214
f 737/737/737 738/738/738 739/739/739
f 635/635/635 636/636/636 637/637/637
f 238/238/238 236/236/236 237/237/237
f 239/239/239 195/195/195 214/214/214
f 774/774/774 777/777/777 775/775/775
f 173/173/173 172/172/172 240/240/240
f 638/638/638 639/639/639 640/640/640
f 239/239/239 214/214/214 241/241/241
f 242/242/242 243/243/243 244/244/244
f 245/245/245 246/246/246 247/247/247
f 173/173/173 246/246/246 245/245/245
f 641/641/641 676/676/676 642/642/642
f 643/643/643 644/644/644 645/645/645
f 646/646/646 636/636/636 635/635/635
f 246/246/246 173/173/173 240/240/240
f 643/643/643 647/647/647 644/644/644
f 648/648/648 649/649/649 650/650/650
f 648/648/648 650/650/650 651/651/651
f 248/248/248 249/249/249 250/250/250
f 650/650/650 654/654/654 651/651/651
f 655/655/655 653/653/653 652/652/652
f 643/643/643 656/656/656 647/647/647
f 657/657/657 654/654/654 650/650/650
f 658/658/658 659/659/659 660/660/660
f 251/251/251 252/252/252 253/253/253
f 658/658/658 660/660/660 661/661/661
f 254/254/254 255/255/255 256/256/256
f 257/257/257 258/258/258 259/259/259
f 260/260/260 261/261/261 262/262/262
f 662/662/662 663/663/663 664/664/664
f 663/663/663 665/665/665 666/666/666
f 248/248/248 250/250/250 263/263/263
f 241/241/241 264/264/264 239/239/239
f 663/663/663 666/666/666 664/664/664
f 665/665/665 667/667/667 666/666/666
f 258/258/258 265/265/265 259/259/259
f 668/668/668 658/658/658 669/669/669
f 661/661/661 669/669/669 658/658/658
f 266/266/266 255/255/255 267/267/267
f 268/268/268 269/269/269 270/270/270
f 271/271/271 272/272/272 273/273/273
f 274/274/274 275/275/275 276/276/276
f 255/255/255 266/266/266 277/277/277
f 672/672/672 673/673/673 674/674/674
f 254/254/254 271/271/271 278/278/278
f 659/659/659 674/674/674 673/673/673
f 254/254/254 272/272/272 271/271/271
f 270/270/270 269/269/269 279/279/279
f 279/279/279 280/280/280 270/270/270
f 675/675/675 671/671/671 670/670/670
f 674/674/674 659/659/659 658/658/658
f 254/254/254 278/278/278 255/255/255
f 281/281/281 282/282/282 283/283/283
f 278/278/278 284/284/284 255/255/255
f 284/284/284 267/267/267 255/255/255
f 285/285/285 286/286/286 287/287/287
f 285/285/285 287/287/287 288/288/288
f 285/285/285 289/289/289 286/286/286
f 302/302/302 290/290/290 291/291/291
f 292/292/292 293/293/293 294/294/294
f 295/295/295 296/296/296 297/297/297
f 298/298/298 299/299/299 300/300/300
f 778/778/778 779/779/779 780/780/780
f 778/778/778 780/780/780 779/779/779
f 778/778/778 780/780/780 781/781/781
f 778/778/778 781/781/781 780/780/780
f 778/778/778 781/781/781 782/782/782
f 778/778/778 782/782/782 781/781/781
f 778/778/778 782/782/782 783/783/783
f 778/778/778 783/783/783 782/782/782
f 778/778/778 783/783/783 784/784/784
f 778/778/778 784/784/784 783/783/783
f 778/778/778 784/784/784 785/785/785
f 778/778/778 785/785/785 784/784/784
f 778/778/778 785/785/785 786/786/786
f 778/778/778 786/786/786 785/785/785
f 778/778/778 786/786/786 787/787/787
f 778/778/778 787/787/787 786/786/786
f 778/778/778 787/787/787 788/788/788
f 778/778/778 788/788/788 787/787/787
f 778/778/778 788/788/788 789/789/789
f 778/778/778 789/789/789 788/788/788
f 778/778/778 789/789/789 790/790/790
f 778/778/778 790/790/790 789/789/789
f 778/778/778 790/790/790 791/791/791
f 778/778/778 791/791/791 790/790/790
f 778/778/778 791/791/791 792/792/792
f 778/778/778 792/792/792 791/791/791
f 778/778/778 792/792/792 793/793/793
f 778/778/778 793/793/793 792/792/792
f 778/778/778 793/793/793 794/794/794
f 778/778/778 794/794/794 793/793/793
f 778/778/778 794/794/794 795/795/795
f 778/778/778 795/795/795 794/794/794
f 778/778/778 795/795/795 796/796/796
f 778/778/778 796/796/796 795/795/795
f 778/778/778 796/796/796 797/797/797
f 778/778/778 797/797/797 796/796/796
f 778/778/778 797/797/797 798/798/798
f 778/778/778 798/798/798 797/797/797
f 778/778/778 798/798/798 799/799/799
f 778/778/778 799/799/799 798/798/798
f 778/778/778 799/799/799 800/800/800
f 778/778/778 800/800/800 799/799/799
f 778/778/778 800/800/800 801/801/801
f 778/778/778 801/801/801 800/800/800
f 778/778/778 801/801/801 802/802/802
f 778/778/778 802/802/802 801/801/801
f 778/778/778 802/802/802 803/803/803
f 778/778/778 803/803/803 802/802/802
f 778/778/778 803/803/803 804/804/804
f 778/778/778 804/804/804 803/803/803
f 778/778/778 804/804/804 805/805/805
f 778/778/778 805/805/805 804/804/804
f 778/778/778 805/805/805 806/806/806
f 778/778/778 806/806/806 805/805/805
f 778/778/778 806/806/806 807/807/807
f 778/778/778 807/807/807 806/806/806
f 778/778/778 807/807/807 808/808/808
f 778/778/778 808/808/808 807/807/807
f 778/778/778 808/808/808 809/809/809
f 778/778/778 809/809/809 808/808/808
f 778/778/778 809/809/809 810/810/810
f 778/778/778 810/810/810 809/809/809
f 778/778/778 810/810/810 811/811/811
f 778/778/778 811/811/811 810/810/810
f 778/778/778 811/811/811 812/812/812
f 778/778/778 812/812/812 811/811/811
f 778/778/778 812/812/812 813/813/813
f 778/778/778 813/813/813 812/812/812
f 778/778/778 813/813/813 814/814/814
f 778/778/778 814/814/814 813/813/813
f 778/778/778 814/814/814 815/815/815
f 778/778/778 815/815/815 814/814/814
f 778/778/778 815/815/815 816/816/816
f 778/778/778 816/816/816 815/815/815
f 778/778/778 816/816/816 817/817/817
f 778/778/778 817/817/817 816/816/816
f 778/778/778 817/817/817 818/818/818
f 778/778/778 818/818/818 817/817/817
f 778/778/778 818/818/818 819/819/819
f 778/778/778 819/819/819 818/818/818
f 778/778/778 819/819/819 820/820/820
f 778/778/778 820/820/820 819/819/819
f 778/778/778 820/820/820 821/821/821
f 778/778/778 821/821/821 820/820/820
f 778/778/778 821/821/821 822/822/822
f 778/778/778 822/822/822 821/821/821
f 778/778/778 822/822/822 823/823/823
f 778/778/778 823/823/823 822/822/822
f 778/778/778 823/823/823 824/824/824
f 778/778/778 824/824/824 823/823/823
f 778/778/778 824/824/824 825/825/825
f 778/778/778 825/825/825 824/824/824
f 778/778/778 825/825/825 826/826/826
f 778/778/778 826/826/826 825/825/825
f 778/778/778 826/826/826 827/827/827
f 778/778/778 827/827/827 826/826/826
f 778/778/778 827/827/827 828/828/828
f 778/778/778 828/828/828 827/827/827
f 778/778/778 828/828/828 829/829/829
f 778/778/778 829/829/829 828/828/828
f 778/778/778 829/829/829 830/830/830
f 778/778/778 830/830/830 829/829/829
f 778/778/778 830/830/830 831/831/831
f 778/778/778 831/831/831 830/830/830
f 778/778/778 831/831/831 832/832/832
f 778/778/778 832/832/832 831/831/831
f 778/778/778 832/832/832 833/833/833
f 778/778/778 833/833/833 832/832/832
f 778/778/778 833/833/833 834/834/834
f 778/778/778 834/834/834 833/833/833
f 778/778/778 834/834/834 835/835/835
f 778/778/778 835/835/835 834/834/834
f 778/778/778 835/835/835 836/836/836
f 778/778/778 836/836/836 835/835/835
f 778/778/778 836/836/836 837/837/837
f 778/778/778 837/837/837 836/836/836
f 778/778/778 837/837/837 838/838/838
f 778/778/778 838/838/838 837/837/837
f 778/778/778 838/838/838 779/779/779
f 778/778/778 779/779/779 838/838/838
