o arm_right
v 2.11009 4.93637 -0.97273
v 2.02707 5.35921 -0.80353
v 2.09989 5.12339 -0.45856
v 2.11009 4.93637 -0.97273
v 2.09989 5.12339 -0.45856
v 2.00928 4.90757 -0.97355
v 2.06921 5.41796 -0.48446
v 2.02707 5.35921 -0.80353
v 1.91181 5.80055 -0.37423
v 2.06921 5.41796 -0.48446
v 2.09989 5.12339 -0.45856
v 2.02707 5.35921 -0.80353
v 2.11009 4.93637 -0.97273
v 2.00928 4.90757 -0.97355
v 1.97294 5.21721 -0.98435
v 2.05389 5.53386 -0.03153
v 1.86634 5.52524 0.02262
v 2.06655 5.27410 -0.03979
v 2.06655 5.27410 -0.03979
v 2.08735 5.51572 -0.22553
v 2.05389 5.53386 -0.03153
v 2.11009 4.93637 -0.97273
v 1.97294 5.21721 -0.98435
v 2.02707 5.35921 -0.80353
v 1.95169 5.34457 -0.26973
v 2.08735 5.51572 -0.22553
v 2.06655 5.27410 -0.03979
v 2.00928 4.90757 -0.97355
v 2.09989 5.12339 -0.45856
v 2.08247 5.16161 -0.14077
v 1.94671 5.48936 -0.73433
v 1.91181 5.80055 -0.37423
v 2.02707 5.35921 -0.80353
v 2.08247 5.16161 -0.14077
v 1.99934 5.07002 -0.10827
v 2.12263 5.01878 -0.17307
v 2.06921 5.41796 -0.48446
v 1.91181 5.80055 -0.37423
v 2.08735 5.51572 -0.22553
v 2.09989 5.12339 -0.45856
v 2.06921 5.41796 -0.48446
v 1.99142 5.26262 -0.47288
v 2.09989 5.12339 -0.45856
v 1.99142 5.26262 -0.47288
v 2.08247 5.16161 -0.14077
v 1.93771 5.12252 0.06502
v 2.03301 4.93361 -0.00629
v 1.99934 5.07002 -0.10827
v 1.99142 5.26262 -0.47288
v 1.95169 5.34457 -0.26973
v 2.08247 5.16161 -0.14077
v 2.06655 5.27410 -0.03979
v 1.86634 5.52524 0.02262
v 2.03866 5.20634 0.08704
v 2.03866 5.20634 0.08704
v 1.93771 5.12252 0.06502
v 2.06655 5.27410 -0.03979
v 2.03866 5.20634 0.08704
v 1.86634 5.52524 0.02262
v 1.92808 5.37056 0.16334
v 1.93771 5.12252 0.06502
v 1.99934 5.07002 -0.10827
v 1.95169 5.34457 -0.26973
v 1.93771 5.12252 0.06502
v 1.71505 4.89283 0.02477
v 2.03301 4.93361 -0.00629
v 2.08247 5.16161 -0.14077
v 1.95169 5.34457 -0.26973
v 1.99934 5.07002 -0.10827
v 1.97294 5.21721 -0.98435
v 1.94671 5.48936 -0.73433
v 2.02707 5.35921 -0.80353
v 1.92808 5.37056 0.16334
v 1.93771 5.12252 0.06502
v 2.03866 5.20634 0.08704
v 1.95169 5.34457 -0.26973
v 2.06655 5.27410 -0.03979
v 1.93771 5.12252 0.06502
v 2.06921 5.41796 -0.48446
v 2.08735 5.51572 -0.22553
v 1.95169 5.34457 -0.26973
v 1.86634 5.52524 0.02262
v 2.08735 5.51572 -0.22553
v 1.89760 5.60341 -0.21549
v 1.86634 5.52524 0.02262
v 2.05389 5.53386 -0.03153
v 2.08735 5.51572 -0.22553
v 2.08735 5.51572 -0.22553
v 1.91181 5.80055 -0.37423
v 1.89760 5.60341 -0.21549
v 1.91667 4.90768 -1.37852
v 1.83638 5.15195 -1.02878
v 1.97294 5.21721 -0.98435
v 1.94671 5.48936 -0.73433
v 1.97294 5.21721 -0.98435
v 1.87617 5.30253 -1.06029
v 1.92808 5.37056 0.16334
v 1.86634 5.52524 0.02262
v 1.50026 5.36365 0.08282
v 1.92080 5.11432 0.23958
v 1.93771 5.12252 0.06502
v 1.86778 5.27810 0.30077
v 1.83638 5.15195 -1.02878
v 1.87617 5.30253 -1.06029
v 1.97294 5.21721 -0.98435
v 1.94671 5.48936 -0.73433
v 1.87617 5.30253 -1.06029
v 1.84042 5.50896 -0.75157
v 1.86778 5.27810 0.30077
v 1.93771 5.12252 0.06502
v 1.92808 5.37056 0.16334
v 1.94671 5.48936 -0.73433
v 1.86393 5.70452 -0.90385
v 1.91181 5.80055 -0.37423
v 1.89718 5.07617 -1.47171
v 1.87617 5.30253 -1.06029
v 1.83638 5.15195 -1.02878
v 1.86393 5.70452 -0.90385
v 1.60223 5.89840 -0.96009
v 1.91181 5.80055 -0.37423
v 1.94671 5.48936 -0.73433
v 1.73515 5.56256 -0.88438
v 1.86393 5.70452 -0.90385
v 1.78853 5.72376 -0.03748
v 1.86634 5.52524 0.02262
v 1.89760 5.60341 -0.21549
v 1.78057 5.10489 0.16854
v 1.93771 5.12252 0.06502
v 1.92080 5.11432 0.23958
v 2.06921 5.41796 -0.48446
v 1.66404 5.22122 -0.48121
v 1.99142 5.26262 -0.47288
v 2.06921 5.41796 -0.48446
v 1.95169 5.34457 -0.26973
v 1.66404 5.22122 -0.48121
v 1.86634 5.52524 0.02262
v 1.78853 5.72376 -0.03748
v 1.84867 5.62795 0.07177
v 2.03301 4.93361 -0.00629
v 1.71505 4.89283 0.02477
v 1.68314 4.85143 -0.10351
v 1.81506 5.83919 -0.21769
v 1.78853 5.72376 -0.03748
v 1.89760 5.60341 -0.21549
v 1.94671 5.48936 -0.73433
v 1.84042 5.50896 -0.75157
v 1.73515 5.56256 -0.88438
v 1.89760 5.60341 -0.21549
v 1.91181 5.80055 -0.37423
v 1.61718 6.02984 -0.42164
v 1.83000 5.85752 -0.10144
v 1.78853 5.72376 -0.03748
v 1.81506 5.83919 -0.21769
v 1.78057 5.10489 0.16854
v 1.92080 5.11432 0.23958
v 1.86778 5.27810 0.30077
v 1.61547 5.35897 -1.04033
v 1.87617 5.30253 -1.06029
v 1.89718 5.07617 -1.47171
v 1.89718 5.07617 -1.47171
v 1.44475 5.14701 -1.61623
v 1.64848 5.02754 -1.40186
v 1.60223 5.89840 -0.96009
v 1.61718 6.02984 -0.42164
v 1.91181 5.80055 -0.37423
v 1.99142 5.26262 -0.47288
v 1.66404 5.22122 -0.48121
v 1.95169 5.34457 -0.26973
v 1.86634 5.52524 0.02262
v 1.40430 5.42647 0.13406
v 1.50026 5.36365 0.08282
v 1.84867 5.62795 0.07177
v 1.40430 5.42647 0.13406
v 1.86634 5.52524 0.02262
v 1.92808 5.37056 0.16334
v 1.71360 5.21349 0.19812
v 1.86778 5.27810 0.30077
v 1.86778 5.27810 0.30077
v 1.71360 5.21349 0.19812
v 1.78057 5.10489 0.16854
v 1.84042 5.50896 -0.75157
v 1.69849 5.56067 -1.00239
v 1.73515 5.56256 -0.88438
v 1.81506 5.83919 -0.21769
v 1.89760 5.60341 -0.21549
v 1.61718 6.02984 -0.42164
v 1.78057 5.10489 0.16854
v 1.71505 4.89283 0.02477
v 1.93771 5.12252 0.06502
v 1.60223 5.89840 -0.96009
v 1.86393 5.70452 -0.90385
v 1.73515 5.56256 -0.88438
v 1.59552 5.46075 -0.90815
v 1.84042 5.50896 -0.75157
v 1.87617 5.30253 -1.06029
v 1.69849 5.56067 -1.00239
v 1.84042 5.50896 -0.75157
v 1.59552 5.46075 -0.90815
v 1.84867 5.62795 0.07177
v 1.78853 5.72376 -0.03748
v 1.40430 5.42647 0.13406
v 1.73515 5.56256 -0.88438
v 1.69849 5.56067 -1.00239
v 1.60223 5.89840 -0.96009
v 1.78057 5.10489 0.16854
v 1.71360 5.21349 0.19812
v 1.62088 5.10102 0.14718
v 1.78057 5.10489 0.16854
v 1.66928 5.08006 -0.06578
v 1.71505 4.89283 0.02477
v 1.59552 5.46075 -0.90815
v 1.87617 5.30253 -1.06029
v 1.61547 5.35897 -1.04033
v 1.83000 5.85752 -0.10144
v 1.81506 5.83919 -0.21769
v 1.54419 6.25925 -0.32953
v 1.71505 4.89283 0.02477
v 1.66928 5.08006 -0.06578
v 1.68314 4.85143 -0.10351
v 1.89718 5.07617 -1.47171
v 1.64848 5.02754 -1.40186
v 1.61547 5.35897 -1.04033
v 1.40548 5.04201 -1.42298
v 1.64848 5.02754 -1.40186
v 1.44475 5.14701 -1.61623
v 1.66928 5.08006 -0.06578
v 1.78057 5.10489 0.16854
v 1.62088 5.10102 0.14718
v 1.92808 5.37056 0.16334
v 1.50026 5.36365 0.08282
v 1.71360 5.21349 0.19812
v 1.81506 5.83919 -0.21769
v 1.61718 6.02984 -0.42164
v 1.51839 6.29909 -0.41031
v 1.55201 6.40781 -0.56249
v 1.61718 6.02984 -0.42164
v 1.66012 5.93225 -1.05524
v 1.64848 5.02754 -1.40186
v 1.62267 5.27812 -1.01825
v 1.61547 5.35897 -1.04033
v 1.54419 6.25925 -0.32953
v 1.81506 5.83919 -0.21769
v 1.51839 6.29909 -0.41031
v 1.78853 5.72376 -0.03748
v 1.83000 5.85752 -0.10144
v 1.61082 5.98717 -0.05950
v 1.69849 5.56067 -1.00239
v 1.21711 5.80242 -0.94726
v 1.60223 5.89840 -0.96009
v 1.60223 5.89840 -0.96009
v 1.66012 5.93225 -1.05524
v 1.61718 6.02984 -0.42164
v 1.71360 5.21349 0.19812
v 1.50026 5.36365 0.08282
v 1.62088 5.10102 0.14718
v 1.64848 5.02754 -1.40186
v 1.59040 5.06937 -1.39709
v 1.62267 5.27812 -1.01825
v 1.59552 5.46075 -0.90815
v 1.61547 5.35897 -1.04033
v 1.62267 5.27812 -1.01825
v 1.68314 4.85143 -0.10351
v 1.66928 5.08006 -0.06578
v 1.54393 4.81357 -0.08202
v 1.56388 6.32185 -1.13912
v 1.55201 6.40781 -0.56249
v 1.66012 5.93225 -1.05524
v 1.59552 5.46075 -0.90815
v 1.36006 5.42311 -0.94611
v 1.69849 5.56067 -1.00239
v 1.44535 4.91566 -0.29047
v 1.68314 4.85143 -0.10351
v 1.54393 4.81357 -0.08202
v 1.40430 5.42647 0.13406
v 1.78853 5.72376 -0.03748
v 1.33213 5.52778 0.03981
v 1.64233 4.78815 -0.38468
v 1.68314 4.85143 -0.10351
v 1.44535 4.91566 -0.29047
v 1.36663 5.16289 -0.16085
v 1.51780 4.99072 -0.04065
v 1.66928 5.08006 -0.06578
v 1.62088 5.10102 0.14718
v 1.47443 5.13137 0.00835
v 1.66928 5.08006 -0.06578
v 1.62088 5.10102 0.14718
v 1.50026 5.36365 0.08282
v 1.47443 5.13137 0.00835
v 1.64848 5.02754 -1.40186
v 1.40548 5.04201 -1.42298
v 1.59040 5.06937 -1.39709
v 1.47443 5.13137 0.00835
v 1.36663 5.16289 -0.16085
v 1.66928 5.08006 -0.06578
v 1.54393 4.81357 -0.08202
v 1.66928 5.08006 -0.06578
v 1.51780 4.99072 -0.04065
v 1.35822 5.36266 -0.80883
v 1.36006 5.42311 -0.94611
v 1.59552 5.46075 -0.90815
v 1.54393 4.81357 -0.08202
v 1.51780 4.99072 -0.04065
v 1.44535 4.91566 -0.29047
v 1.35822 5.36266 -0.80883
v 1.59552 5.46075 -0.90815
v 1.62267 5.27812 -1.01825
v 1.61718 6.02984 -0.42164
v 1.38958 6.26712 -0.43898
v 1.51839 6.29909 -0.41031
v 1.61718 6.02984 -0.42164
v 1.55201 6.40781 -0.56249
v 1.22198 6.40950 -0.51304
v 1.78853 5.72376 -0.03748
v 1.61082 5.98717 -0.05950
v 1.22804 5.85974 -0.00657
v 1.44535 4.91566 -0.29047
v 1.29847 4.87284 -0.54795
v 1.49691 4.67827 -0.60724
v 1.62267 5.27812 -1.01825
v 1.40548 5.04201 -1.42298
v 1.38292 5.20823 -1.16019
v 1.54419 6.25925 -0.32953
v 1.61082 5.98717 -0.05950
v 1.83000 5.85752 -0.10144
v 1.36006 5.42311 -0.94611
v 1.21711 5.80242 -0.94726
v 1.69849 5.56067 -1.00239
v 1.44535 4.91566 -0.29047
v 1.52063 5.12809 -0.38338
v 1.31768 5.12077 -0.48829
v 1.51780 4.99072 -0.04065
v 1.36663 5.16289 -0.16085
v 1.44535 4.91566 -0.29047
v 1.22198 6.40950 -0.51304
v 1.55201 6.40781 -0.56249
v 1.29619 6.56505 -0.58357
v 1.62267 5.27812 -1.01825
v 1.59040 5.06937 -1.39709
v 1.40548 5.04201 -1.42298
v 1.36663 5.16289 -0.16085
v 1.52063 5.12809 -0.38338
v 1.44535 4.91566 -0.29047
v 1.50026 5.36365 0.08282
v 1.40430 5.42647 0.13406
v 1.47443 5.13137 0.00835
v 1.51839 6.29909 -0.41031
v 1.38958 6.26712 -0.43898
v 1.54419 6.25925 -0.32953
v 1.56388 6.32185 -1.13912
v 1.29619 6.56505 -0.58357
v 1.55201 6.40781 -0.56249
v 1.36663 5.16289 -0.16085
v 1.31768 5.12077 -0.48829
v 1.52063 5.12809 -0.38338
v 1.38958 6.26712 -0.43898
v 1.34783 6.40009 -0.30675
v 1.54419 6.25925 -0.32953
v 1.36482 4.94982 -1.16586
v 1.40548 5.04201 -1.42298
v 1.35565 4.93138 -1.40299
v 1.62267 5.27812 -1.01825
v 1.38292 5.20823 -1.16019
v 1.35822 5.36266 -0.80883
v 1.40548 5.04201 -1.42298
v 1.36482 4.94982 -1.16586
v 1.38292 5.20823 -1.16019
v 1.44475 5.14701 -1.61623
v 1.31779 5.03264 -1.43428
v 1.40548 5.04201 -1.42298
v 1.61718 6.02984 -0.42164
v 1.22198 6.40950 -0.51304
v 1.38958 6.26712 -0.43898
v 1.33213 5.52778 0.03981
v 1.78853 5.72376 -0.03748
v 1.22804 5.85974 -0.00657
v 1.36663 5.16289 -0.16085
v 1.47443 5.13137 0.00835
v 1.40430 5.42647 0.13406
v 1.60223 5.89840 -0.96009
v 1.21711 5.80242 -0.94726
v 1.66012 5.93225 -1.05524
v 1.22198 6.40950 -0.51304
v 1.34783 6.40009 -0.30675
v 1.38958 6.26712 -0.43898
v 1.40430 5.42647 0.13406
v 1.31079 5.48512 -0.07822
v 1.36663 5.16289 -0.16085
v 1.31768 5.12077 -0.48829
v 1.29847 4.87284 -0.54795
v 1.44535 4.91566 -0.29047
v 1.19977 5.72078 -0.91267
v 1.36006 5.42311 -0.94611
v 1.35822 5.36266 -0.80883
v 1.54419 6.25925 -0.32953
v 1.05595 5.95671 -0.17138
v 1.22804 5.85974 -0.00657
v 1.29513 6.06547 -1.15786
v 1.56388 6.32185 -1.13912
v 1.66012 5.93225 -1.05524
v 1.31079 5.48512 -0.07822
v 1.40430 5.42647 0.13406
v 1.33213 5.52778 0.03981
v 1.05300 6.21423 -0.19800
v 1.05595 5.95671 -0.17138
v 1.54419 6.25925 -0.32953
v 1.29847 4.87284 -0.54795
v 1.31768 5.12077 -0.48829
v 1.24547 5.13604 -0.71101
v 1.35822 5.36266 -0.80883
v 1.14467 5.41404 -0.88715
v 1.19977 5.72078 -0.91267
v 1.66012 5.93225 -1.05524
v 1.23998 5.89670 -1.11191
v 1.29513 6.06547 -1.15786
v 1.31768 5.12077 -0.48829
v 1.35822 5.36266 -0.80883
v 1.24547 5.13604 -0.71101
v 1.56388 6.32185 -1.13912
v 1.15960 6.52218 -1.11146
v 1.29619 6.56505 -0.58357
v 1.54419 6.25925 -0.32953
v 1.34783 6.40009 -0.30675
v 1.19082 6.32479 -0.24660
v 1.20059 5.57491 -0.01105
v 1.31079 5.48512 -0.07822
v 1.33213 5.52778 0.03981
v 1.36006 5.42311 -0.94611
v 1.19977 5.72078 -0.91267
v 1.21711 5.80242 -0.94726
v 1.38292 5.20823 -1.16019
v 1.36482 4.94982 -1.16586
v 1.35822 5.36266 -0.80883
v 1.54419 6.25925 -0.32953
v 1.22804 5.85974 -0.00657
v 1.61082 5.98717 -0.05950
v 1.21711 5.80242 -0.94726
v 1.23998 5.89670 -1.11191
v 1.66012 5.93225 -1.05524
v 1.20059 5.57491 -0.01105
v 1.33213 5.52778 0.03981
v 1.22804 5.85974 -0.00657
v 1.35822 5.36266 -0.80883
v 1.36482 4.94982 -1.16586
v 1.24547 5.13604 -0.71101
v 1.38159 4.77560 -0.80534
v 1.24547 5.13604 -0.71101
v 1.36482 4.94982 -1.16586
v 1.38159 4.77560 -0.80534
v 1.29847 4.87284 -0.54795
v 1.24547 5.13604 -0.71101
v 1.20117 6.35167 -1.31039
v 1.29513 6.06547 -1.15786
v 1.28062 6.04739 -1.25349
v 1.22198 6.40950 -0.51304
v 1.19082 6.32479 -0.24660
v 1.34783 6.40009 -0.30675
v 1.36663 5.16289 -0.16085
v 1.31079 5.48512 -0.07822
v 1.20059 5.57491 -0.01105
v 1.54419 6.25925 -0.32953
v 1.19082 6.32479 -0.24660
v 1.05300 6.21423 -0.19800
v 1.21949 5.01545 0.87867
v 1.23976 4.97228 0.68878
v 1.22233 5.44695 0.53740
v 1.22233 5.44695 0.53740
v 1.23976 4.97228 0.68878
v 1.25799 5.14909 0.45588
v 1.22639 4.97612 0.32303
v 1.25799 5.14909 0.45588
v 1.29064 4.79335 0.57000
v 1.21949 5.01545 0.87867
v 1.22233 5.44695 0.53740
v 1.21640 5.35891 0.76997
v 1.21127 4.99059 0.11710
v 1.21197 5.33446 0.05868
v 1.22639 4.97612 0.32303
v 1.21197 5.33446 0.05868
v 1.21718 5.30606 0.26741
v 1.22639 4.97612 0.32303
v 1.15362 5.36840 0.30346
v 1.21710 5.69720 0.29411
v 1.22233 5.44695 0.53740
v 1.35822 5.36266 -0.80883
v 1.31768 5.12077 -0.48829
v 1.14467 5.41404 -0.88715
v 1.36663 5.16289 -0.16085
v 1.17496 5.36356 -0.29139
v 1.31768 5.12077 -0.48829
v 1.36663 5.16289 -0.16085
v 1.20059 5.57491 -0.01105
v 1.17496 5.36356 -0.29139
v 1.15960 6.52218 -1.11146
v 1.56388 6.32185 -1.13912
v 1.29513 6.06547 -1.15786
v 1.21197 5.33446 0.05868
v 1.28016 4.92715 0.00174
v 1.16969 5.18010 -0.08244
v 1.22233 5.44695 0.53740
v 1.09867 5.53322 0.56809
v 1.21640 5.35891 0.76997
v 1.25799 5.14909 0.45588
v 1.22639 4.97612 0.32303
v 1.13074 5.12946 0.33868
v 1.21711 5.80242 -0.94726
v 1.19977 5.72078 -0.91267
v 1.16721 5.75027 -1.13105
v 1.18948 6.02037 0.36698
v 1.12717 5.88702 0.41559
v 1.21710 5.69720 0.29411
v 1.20117 6.35167 -1.31039
v 1.15960 6.52218 -1.11146
v 1.29513 6.06547 -1.15786
v 1.21710 5.69720 0.29411
v 1.19129 5.93374 0.13871
v 1.18948 6.02037 0.36698
v 1.22233 5.44695 0.53740
v 1.21710 5.69720 0.29411
v 1.08182 5.69574 0.66081
v 1.21710 5.69720 0.29411
v 1.12717 5.88702 0.41559
v 1.08182 5.69574 0.66081
v 1.29513 6.06547 -1.15786
v 1.23998 5.89670 -1.11191
v 1.11735 6.00829 -1.09862
v 1.23998 5.89670 -1.11191
v 1.21711 5.80242 -0.94726
v 1.11735 6.00829 -1.09862
v 1.21197 5.33446 0.05868
v 1.20059 5.57491 -0.01105
v 1.19500 5.65043 0.12310
v 1.17487 6.15293 0.03080
v 1.18948 6.02037 0.36698
v 1.19129 5.93374 0.13871
v 1.19828 5.19104 -0.28355
v 1.21197 5.33446 0.05868
v 1.16969 5.18010 -0.08244
v 1.25799 5.14909 0.45588
v 1.13460 5.08188 0.55368
v 1.29064 4.79335 0.57000
v 1.23976 4.97228 0.68878
v 1.13460 5.08188 0.55368
v 1.25799 5.14909 0.45588
v 1.15362 5.36840 0.30346
v 1.22639 4.97612 0.32303
v 1.21718 5.30606 0.26741
v 1.06998 6.01767 -1.20816
v 1.28062 6.04739 -1.25349
v 1.29513 6.06547 -1.15786
v 1.19828 5.19104 -0.28355
v 1.17496 5.36356 -0.29139
v 1.21197 5.33446 0.05868
v 1.19129 5.93374 0.13871
v 1.21710 5.69720 0.29411
v 1.12033 5.70320 0.19062
v 1.07938 6.74885 -0.58284
v 1.29619 6.56505 -0.58357
v 1.15960 6.52218 -1.11146
v 1.25799 5.14909 0.45588
v 1.13074 5.12946 0.33868
v 1.12794 5.14093 0.46246
v 1.18948 6.02037 0.36698
v 1.17487 6.15293 0.03080
v 1.09980 6.30440 0.25467
v 1.21197 5.33446 0.05868
v 1.17496 5.36356 -0.29139
v 1.20059 5.57491 -0.01105
v 1.22233 5.44695 0.53740
v 1.11566 5.31119 0.45218
v 1.15362 5.36840 0.30346
v 1.20117 6.35167 -1.31039
v 0.96919 6.50143 -1.10771
v 1.15960 6.52218 -1.11146
v 1.05595 5.95671 -0.17138
v 1.20059 5.57491 -0.01105
v 1.22804 5.85974 -0.00657
v 1.16721 5.75027 -1.13105
v 1.11735 6.00829 -1.09862
v 1.21711 5.80242 -0.94726
v 1.19129 5.93374 0.13871
v 1.08785 5.92027 0.09793
v 1.17487 6.15293 0.03080
v 1.12033 5.70320 0.19062
v 1.08785 5.92027 0.09793
v 1.19129 5.93374 0.13871
v 1.11566 5.31119 0.45218
v 1.22233 5.44695 0.53740
v 1.25799 5.14909 0.45588
v 1.22639 4.97612 0.32303
v 1.15362 5.36840 0.30346
v 1.13074 5.12946 0.33868
v 1.08182 5.69574 0.66081
v 1.09867 5.53322 0.56809
v 1.22233 5.44695 0.53740
v 1.14467 5.41404 -0.88715
v 1.31768 5.12077 -0.48829
v 1.07476 5.52604 -0.63652
v 1.22198 6.40950 -0.51304
v 1.29619 6.56505 -0.58357
v 1.07938 6.74885 -0.58284
v 1.20059 5.57491 -0.01105
v 1.12033 5.70320 0.19062
v 1.19500 5.65043 0.12310
v 1.16969 5.18010 -0.08244
v 1.12704 4.67650 -0.17030
v 1.19828 5.19104 -0.28355
v 1.21710 5.69720 0.29411
v 1.15362 5.36840 0.30346
v 1.11370 5.66709 0.28810
v 1.00466 5.59699 -0.77212
v 1.16721 5.75027 -1.13105
v 1.19977 5.72078 -0.91267
v 1.11735 6.00829 -1.09862
v 1.06998 6.01767 -1.20816
v 1.29513 6.06547 -1.15786
v 1.31768 5.12077 -0.48829
v 1.17496 5.36356 -0.29139
v 1.07476 5.52604 -0.63652
v 1.23976 4.97228 0.68878
v 1.12247 4.83249 0.66656
v 1.13460 5.08188 0.55368
v 1.11566 5.31119 0.45218
v 1.25799 5.14909 0.45588
v 1.12794 5.14093 0.46246
v 1.21197 5.33446 0.05868
v 1.15362 5.36840 0.30346
v 1.21718 5.30606 0.26741
v 0.98784 6.31754 -1.30743
v 1.20117 6.35167 -1.31039
v 1.28062 6.04739 -1.25349
v 1.13849 6.53469 -0.39013
v 1.19082 6.32479 -0.24660
v 1.22198 6.40950 -0.51304
v 1.21710 5.69720 0.29411
v 1.11370 5.66709 0.28810
v 1.12033 5.70320 0.19062
v 0.99517 6.57175 -0.17579
v 1.19082 6.32479 -0.24660
v 1.13849 6.53469 -0.39013
v 1.05351 6.73176 -0.19808
v 1.17487 6.15293 0.03080
v 1.10171 6.40035 -0.10667
v 1.18948 6.02037 0.36698
v 1.09980 6.30440 0.25467
v 1.12717 5.88702 0.41559
v 1.06998 6.01767 -1.20816
v 1.11735 6.00829 -1.09862
v 1.16721 5.75027 -1.13105
v 1.13074 5.12946 0.33868
v 1.15362 5.36840 0.30346
v 1.12794 5.14093 0.46246
v 1.13849 6.53469 -0.39013
v 1.22198 6.40950 -0.51304
v 1.07938 6.74885 -0.58284
v 1.19828 5.19104 -0.28355
v 1.11488 5.17290 -0.39562
v 1.17496 5.36356 -0.29139
v 1.12033 5.70320 0.19062
v 1.21197 5.33446 0.05868
v 1.19500 5.65043 0.12310
v 1.05595 5.95671 -0.17138
v 1.12033 5.70320 0.19062
v 1.20059 5.57491 -0.01105
v 1.12794 5.14093 0.46246
v 1.15362 5.36840 0.30346
v 1.11566 5.31119 0.45218
v 1.08182 5.69574 0.66081
v 1.12717 5.88702 0.41559
v 1.10861 5.76400 0.66569
v 1.12033 5.70320 0.19062
v 1.15362 5.36840 0.30346
v 1.21197 5.33446 0.05868
v 1.15362 5.36840 0.30346
v 1.12033 5.70320 0.19062
v 1.11370 5.66709 0.28810
v 1.00466 5.59699 -0.77212
v 1.19977 5.72078 -0.91267
v 1.14467 5.41404 -0.88715
v 1.19082 6.32479 -0.24660
v 0.99517 6.57175 -0.17579
v 1.05300 6.21423 -0.19800
v 1.21640 5.35891 0.76997
v 1.09867 5.53322 0.56809
v 1.03834 5.23113 0.84140
v 1.13849 6.53469 -0.39013
v 0.94934 6.85412 -0.41464
v 0.93506 6.59467 -0.37575
v 1.05595 5.95671 -0.17138
v 1.08785 5.92027 0.09793
v 1.12033 5.70320 0.19062
v 0.98784 6.31754 -1.30743
v 0.96919 6.50143 -1.10771
v 1.20117 6.35167 -1.31039
v 1.10171 6.40035 -0.10667
v 1.17487 6.15293 0.03080
v 1.05300 6.21423 -0.19800
v 1.06998 6.01767 -1.20816
v 0.98784 6.31754 -1.30743
v 1.28062 6.04739 -1.25349
v 1.17487 6.15293 0.03080
v 1.08785 5.92027 0.09793
v 1.05300 6.21423 -0.19800
v 1.13849 6.53469 -0.39013
v 0.93506 6.59467 -0.37575
v 0.99517 6.57175 -0.17579
v 1.05300 6.21423 -0.19800
v 1.08785 5.92027 0.09793
v 1.05595 5.95671 -0.17138
v 1.10171 6.40035 -0.10667
v 0.99517 6.57175 -0.17579
v 1.05351 6.73176 -0.19808
v 1.09867 5.53322 0.56809
v 1.08182 5.69574 0.66081
v 1.02174 5.48677 0.85225
v 1.06998 6.01767 -1.20816
v 1.16721 5.75027 -1.13105
v 0.98433 5.78013 -1.14067
v 1.06998 6.01767 -1.20816
v 0.93298 6.36228 -1.07341
v 0.98784 6.31754 -1.30743
v 1.10171 6.40035 -0.10667
v 1.05300 6.21423 -0.19800
v 0.99517 6.57175 -0.17579
v 0.99517 6.57175 -0.17579
v 0.93506 6.59467 -0.37575
v 0.94934 6.85412 -0.41464
v 1.68531 4.97147 -0.80234
v 1.97294 5.21721 -0.98435
v 2.00928 4.90757 -0.97355
v 2.08247 5.16161 -0.14077
v 2.12263 5.01878 -0.17307
v 1.99934 5.07002 -0.10827
v 2.03301 4.93361 -0.00629
v 1.68314 4.85143 -0.10351
v 1.64233 4.78815 -0.38468
v 1.44535 4.91566 -0.29047
v 1.49691 4.67827 -0.60724
v 1.29847 4.87284 -0.54795
v 1.38159 4.77560 -0.80534
v 1.36482 4.94982 -1.16586
v 1.35565 4.93138 -1.40299
v 1.40548 5.04201 -1.42298
v 1.31779 5.03264 -1.43428
v 1.44475 5.14701 -1.61623
v 1.89718 5.07617 -1.47171
v 1.83638 5.15195 -1.02878
v 1.91667 4.90768 -1.37852
v 1.11579 5.66189 -0.11692
v 1.21949 5.01545 0.87867
v 1.23976 4.97228 0.68878
v 1.12247 4.83249 0.66656
v 1.13460 5.08188 0.55368
v 1.29064 4.79335 0.57000
v 1.22639 4.97612 0.32303
v 1.21127 4.99059 0.11710
v 1.21197 5.33446 0.05868
v 1.28016 4.92715 0.00174
v 1.16969 5.18010 -0.08244
v 1.12704 4.67650 -0.17030
v 1.19828 5.19104 -0.28355
v 1.11488 5.17290 -0.39562
v 1.17496 5.36356 -0.29139
v 1.07476 5.52604 -0.63652
v 1.14467 5.41404 -0.88715
v 1.00466 5.59699 -0.77212
v 1.16721 5.75027 -1.13105
v 0.98433 5.78013 -1.14067
v 1.06998 6.01767 -1.20816
v 0.93298 6.36228 -1.07341
v 0.98784 6.31754 -1.30743
v 0.96919 6.50143 -1.10771
v 1.15960 6.52218 -1.11146
v 1.07938 6.74885 -0.58284
v 1.13849 6.53469 -0.39013
v 0.94934 6.85412 -0.41464
v 0.99517 6.57175 -0.17579
v 1.05351 6.73176 -0.19808
v 1.17487 6.15293 0.03080
v 1.09980 6.30440 0.25467
v 1.12717 5.88702 0.41559
v 1.10861 5.76400 0.66569
v 1.08182 5.69574 0.66081
v 1.02174 5.48677 0.85225
v 1.09867 5.53322 0.56809
v 1.03834 5.23113 0.84140
v 1.21640 5.35891 0.76997
vt 0.69016 0.35424
vt 0.67582 0.34148
vt 0.69033 0.33156
vt 0.10385 0.33834
vt 0.10023 0.36070
vt 0.09982 0.33725
vt 0.67865 0.32822
vt 0.67584 0.34149
vt 0.66385 0.31847
vt 0.67848 0.32820
vt 0.69033 0.33156
vt 0.67583 0.34149
vt 0.92954 0.64623
vt 0.92871 0.64201
vt 0.94164 0.64161
vt 0.08233 0.06258
vt 0.08515 0.06860
vt 0.07421 0.06623
vt 0.96804 0.22933
vt 0.97442 0.22148
vt 0.97654 0.22790
vt 0.45146 0.99086
vt 0.43956 0.99564
vt 0.43237 0.99016
vt 0.05095 0.99289
vt 0.04453 0.99528
vt 0.04585 0.98534
vt 0.10123 0.44868
vt 0.10123 0.42523
vt 0.10551 0.41274
vt 0.67077 0.33699
vt 0.66385 0.31847
vt 0.67584 0.34149
vt 0.99461 0.34868
vt 0.99213 0.35195
vt 0.98952 0.34772
vt 0.67865 0.32800
vt 0.66356 0.31879
vt 0.67854 0.31656
vt 0.09076 0.52973
vt 0.07885 0.53289
vt 0.08374 0.52759
vt 0.93220 0.21508
vt 0.93826 0.21508
vt 0.93271 0.22604
vt 0.85829 0.41265
vt 0.86219 0.40618
vt 0.86439 0.41162
vt 0.93826 0.21508
vt 0.94073 0.22227
vt 0.93270 0.22604
vt 0.93240 0.12316
vt 0.92808 0.11314
vt 0.93683 0.12220
vt 0.04635 0.98012
vt 0.05076 0.97921
vt 0.04588 0.98511
vt 0.93683 0.12220
vt 0.92799 0.11322
vt 0.93448 0.11586
vt 0.85797 0.41251
vt 0.86445 0.41180
vt 0.86747 0.42238
vt 0.91206 0.29453
vt 0.92302 0.30038
vt 0.91025 0.30376
vt 0.97077 0.59739
vt 0.96732 0.60551
vt 0.96765 0.59479
vt 0.43991 0.99548
vt 0.42492 0.99216
vt 0.43160 0.99052
vt 0.32658 0.06001
vt 0.32759 0.06908
vt 0.32374 0.06667
vt 0.05071 0.99283
vt 0.04603 0.98520
vt 0.05056 0.97909
vt 0.97695 0.15578
vt 0.97090 0.14876
vt 0.97772 0.14711
vt 0.51697 0.05085
vt 0.52477 0.04292
vt 0.52543 0.04928
vt 0.51697 0.05085
vt 0.51848 0.04435
vt 0.52477 0.04292
vt 0.02366 0.09230
vt 0.03879 0.09119
vt 0.03053 0.09738
vt 0.87285 0.39220
vt 0.85547 0.39686
vt 0.85201 0.39151
vt 0.01798 0.89038
vt 0.01751 0.87564
vt 0.02131 0.87490
vt 0.04271 0.69418
vt 0.03542 0.69274
vt 0.03979 0.67959
vt 0.97615 0.13941
vt 0.98172 0.13745
vt 0.97648 0.14538
vt 0.98948 0.42595
vt 0.99574 0.42799
vt 0.99124 0.43225
vt 0.05526 0.06053
vt 0.04031 0.05833
vt 0.05568 0.05740
vt 0.97687 0.14563
vt 0.98146 0.13729
vt 0.98149 0.14639
vt 0.67078 0.33668
vt 0.65951 0.34044
vt 0.66352 0.31887
vt 0.53240 0.88269
vt 0.51315 0.88551
vt 0.51399 0.87898
vt 0.65951 0.34044
vt 0.64584 0.34014
vt 0.66368 0.31884
vt 0.45417 0.02467
vt 0.46369 0.01911
vt 0.46569 0.02684
vt 0.99125 0.93928
vt 0.98955 0.93235
vt 0.99581 0.93328
vt 0.99327 0.09987
vt 0.99785 0.09531
vt 0.99846 0.10129
vt 0.07885 0.53289
vt 0.08053 0.51432
vt 0.08374 0.52759
vt 0.04630 0.29434
vt 0.03650 0.29068
vt 0.04166 0.27636
vt 0.99327 0.37311
vt 0.99020 0.36619
vt 0.99451 0.36941
vt 0.33008 0.09899
vt 0.32687 0.08857
vt 0.33067 0.08625
vt 0.34663 0.00509
vt 0.35354 0.00689
vt 0.34827 0.01324
vt 0.05526 0.06053
vt 0.05568 0.05740
vt 0.05255 0.05101
vt 0.61929 0.98983
vt 0.61107 0.99633
vt 0.59650 0.99091
vt 0.99422 0.96459
vt 0.99938 0.96365
vt 0.99404 0.96856
vt 0.14660 0.00657
vt 0.14729 0.00201
vt 0.15338 0.00341
vt 0.46530 0.86180
vt 0.46827 0.85118
vt 0.48754 0.85201
vt 0.20079 0.27459
vt 0.19023 0.29147
vt 0.19053 0.27825
vt 0.64567 0.34002
vt 0.64821 0.31728
vt 0.66369 0.31893
vt 0.09285 0.10848
vt 0.08005 0.11301
vt 0.08901 0.10018
vt 0.69866 0.19372
vt 0.69494 0.17756
vt 0.69846 0.17987
vt 0.69492 0.19441
vt 0.69489 0.17757
vt 0.69873 0.19370
vt 0.98117 0.73753
vt 0.98872 0.73231
vt 0.98690 0.73865
vt 1.00000 0.11995
vt 0.99572 0.12022
vt 0.99462 0.11624
vt 0.85948 0.42890
vt 0.87133 0.43144
vt 0.86629 0.43174
vt 0.36688 0.99379
vt 0.35774 0.98984
vt 0.38050 0.99001
vt 0.91430 0.29301
vt 0.91996 0.29270
vt 0.91469 0.29955
vt 0.44785 0.11663
vt 0.43419 0.11563
vt 0.43541 0.10773
vt 0.45834 0.86204
vt 0.45268 0.85124
vt 0.46813 0.85110
vt 0.20766 0.47254
vt 0.21097 0.48408
vt 0.20165 0.47622
vt 0.13107 0.18373
vt 0.13130 0.17842
vt 0.14789 0.18415
vt 0.86629 0.43174
vt 0.87136 0.43171
vt 0.87097 0.44625
vt 0.99631 0.53168
vt 0.99284 0.52911
vt 0.99738 0.52641
vt 0.93873 0.44926
vt 0.93985 0.44042
vt 0.94566 0.44416
vt 0.45834 0.86204
vt 0.46828 0.85118
vt 0.46530 0.86180
vt 0.30522 0.92888
vt 0.30666 0.92431
vt 0.32755 0.92774
vt 0.12875 0.00473
vt 0.13410 0.00962
vt 0.12623 0.00875
vt 0.48754 0.85201
vt 0.48558 0.86210
vt 0.46530 0.86180
vt 0.18330 0.28534
vt 0.19053 0.27825
vt 0.19024 0.29147
vt 0.06830 0.50736
vt 0.06126 0.50205
vt 0.06645 0.50017
vt 0.04294 0.69417
vt 0.03984 0.67960
vt 0.04718 0.68603
vt 0.17206 0.21364
vt 0.18107 0.20279
vt 0.19269 0.20127
vt 0.68649 0.27797
vt 0.68949 0.29428
vt 0.66308 0.29466
vt 0.88481 0.67839
vt 0.88516 0.65939
vt 0.88847 0.65838
vt 0.32771 0.92781
vt 0.30679 0.92442
vt 0.33079 0.92544
vt 0.96503 0.76488
vt 0.96144 0.76112
vt 0.96698 0.75434
vt 0.20772 0.47231
vt 0.19287 0.45551
vt 0.20918 0.45776
vt 0.16239 0.40557
vt 0.16171 0.41034
vt 0.14873 0.38709
vt 0.12066 0.03552
vt 0.11757 0.04478
vt 0.11541 0.03488
vt 0.87410 0.28921
vt 0.87318 0.29161
vt 0.85522 0.29144
vt 0.98855 0.94892
vt 0.99070 0.95554
vt 0.98826 0.95775
vt 0.11015 0.00695
vt 0.11802 0.00642
vt 0.10961 0.01192
vt 0.66231 0.27768
vt 0.68649 0.27797
vt 0.66308 0.29466
vt 0.20167 0.47608
vt 0.19229 0.47268
vt 0.20759 0.47246
vt 0.97699 0.93643
vt 0.97186 0.92739
vt 0.97682 0.92803
vt 0.14792 0.18404
vt 0.13127 0.17853
vt 0.14847 0.17914
vt 0.96972 0.93681
vt 0.97186 0.92739
vt 0.97764 0.93621
vt 0.94499 0.64310
vt 0.95089 0.63654
vt 0.95578 0.64003
vt 0.06645 0.50017
vt 0.07307 0.50214
vt 0.06806 0.50749
vt 0.67598 0.02695
vt 0.68489 0.03177
vt 0.67699 0.03315
vt 0.96402 0.51296
vt 0.95524 0.51798
vt 0.96112 0.51281
vt 0.07322 0.50212
vt 0.07919 0.50569
vt 0.06837 0.50692
vt 0.10961 0.01192
vt 0.11809 0.00650
vt 0.11590 0.01211
vt 0.19052 0.47857
vt 0.19229 0.47268
vt 0.20165 0.47622
vt 0.08611 0.06602
vt 0.08878 0.06032
vt 0.09462 0.06752
vt 0.93459 0.89664
vt 0.93556 0.88528
vt 0.94442 0.88610
vt 0.72524 0.10208
vt 0.72457 0.08847
vt 0.72958 0.09103
vt 0.24805 0.24332
vt 0.26339 0.23619
vt 0.27059 0.24800
vt 0.08088 0.12463
vt 0.08032 0.11383
vt 0.09357 0.10953
vt 0.12454 0.64628
vt 0.11775 0.65394
vt 0.11091 0.64702
vt 0.48486 0.91918
vt 0.50388 0.92898
vt 0.49096 0.92939
vt 0.94017 0.14427
vt 0.94568 0.15942
vt 0.93788 0.16660
vt 0.19229 0.47268
vt 0.19259 0.45624
vt 0.20761 0.47259
vt 0.97892 0.89873
vt 0.97088 0.89909
vt 0.97116 0.89141
vt 0.08878 0.06032
vt 0.09726 0.05802
vt 0.09461 0.06753
vt 0.54816 0.93712
vt 0.55943 0.92980
vt 0.55462 0.94093
vt 0.48484 0.91922
vt 0.50269 0.92125
vt 0.50388 0.92898
vt 0.76021 0.00511
vt 0.76950 0.00490
vt 0.76679 0.01240
vt 0.62237 0.02684
vt 0.62501 0.03011
vt 0.61404 0.02768
vt 0.33075 0.92549
vt 0.33402 0.92532
vt 0.32770 0.92782
vt 0.13773 0.87323
vt 0.12317 0.84993
vt 0.13563 0.84915
vt 0.94903 0.84444
vt 0.95499 0.85419
vt 0.94724 0.85355
vt 0.97927 0.79354
vt 0.97459 0.78710
vt 0.98462 0.78780
vt 0.14641 0.12185
vt 0.13676 0.12789
vt 0.13666 0.12318
vt 0.48475 0.91926
vt 0.49096 0.92939
vt 0.47503 0.92987
vt 0.13676 0.12789
vt 0.14644 0.12193
vt 0.14891 0.13230
vt 0.19024 0.29145
vt 0.18056 0.28781
vt 0.18330 0.28534
vt 0.06051 0.67463
vt 0.05723 0.69729
vt 0.05736 0.68791
vt 0.09743 0.12057
vt 0.08073 0.12451
vt 0.09357 0.10953
vt 0.90903 0.30774
vt 0.90208 0.30772
vt 0.90125 0.29684
vt 0.58866 0.19827
vt 0.57244 0.20100
vt 0.59078 0.19395
vt 0.79684 0.03140
vt 0.80632 0.02997
vt 0.80368 0.03748
vt 0.90124 0.29687
vt 0.90938 0.29628
vt 0.90907 0.30766
vt 0.97746 0.68480
vt 0.96913 0.68211
vt 0.97573 0.67427
vt 0.08285 0.76056
vt 0.06933 0.76450
vt 0.06612 0.75918
vt 0.81534 0.66645
vt 0.81712 0.69096
vt 0.80653 0.68973
vt 0.24151 0.29071
vt 0.23416 0.27716
vt 0.25115 0.27713
vt 0.90936 0.29626
vt 0.90119 0.29679
vt 0.90569 0.29391
vt 0.62457 0.26304
vt 0.62447 0.27367
vt 0.60369 0.26034
vt 0.21758 0.58927
vt 0.20801 0.59383
vt 0.20557 0.58456
vt 0.06737 0.51596
vt 0.07698 0.51635
vt 0.07752 0.52930
vt 0.25115 0.27713
vt 0.24804 0.29449
vt 0.24147 0.29068
vt 0.20811 0.59379
vt 0.19505 0.58339
vt 0.20601 0.58438
vt 0.13773 0.87323
vt 0.11902 0.87222
vt 0.12317 0.84993
vt 0.60369 0.26035
vt 0.61195 0.25472
vt 0.61870 0.25820
vt 0.92509 0.47438
vt 0.92843 0.47161
vt 0.93006 0.47336
vt 0.06933 0.76450
vt 0.08285 0.76056
vt 0.08600 0.76248
vt 0.19715 0.56752
vt 0.20740 0.56441
vt 0.19502 0.58331
vt 0.10391 0.28821
vt 0.09904 0.30816
vt 0.09304 0.29559
vt 0.57245 0.20104
vt 0.57316 0.19315
vt 0.59078 0.19395
vt 0.92509 0.47438
vt 0.93006 0.47336
vt 0.92487 0.48417
vt 0.19505 0.58333
vt 0.20733 0.56436
vt 0.20604 0.58512
vt 0.22225 0.76172
vt 0.20913 0.77163
vt 0.20984 0.75068
vt 0.22240 0.76200
vt 0.22188 0.77353
vt 0.20907 0.77116
vt 0.85864 0.84409
vt 0.85646 0.83027
vt 0.86048 0.83097
vt 0.42827 0.03638
vt 0.43924 0.03326
vt 0.43740 0.04046
vt 0.93537 0.04925
vt 0.92423 0.05229
vt 0.91934 0.05005
vt 0.60369 0.26035
vt 0.61870 0.25820
vt 0.62458 0.26301
vt 0.51188 0.72513
vt 0.50782 0.73046
vt 0.49345 0.72125
vt 0.49344 0.72128
vt 0.50782 0.73045
vt 0.49780 0.73097
vt 0.29290 0.24633
vt 0.28744 0.24148
vt 0.29980 0.23814
vt 0.51188 0.72513
vt 0.49347 0.72118
vt 0.50151 0.71844
vt 0.09883 0.11912
vt 0.11047 0.11641
vt 0.09875 0.12615
vt 0.11047 0.11641
vt 0.10994 0.12361
vt 0.09880 0.12620
vt 0.48901 0.72827
vt 0.48157 0.71990
vt 0.49344 0.72123
vt 0.83233 0.49373
vt 0.82620 0.50922
vt 0.82505 0.48751
vt 0.65632 0.92887
vt 0.65479 0.93915
vt 0.64538 0.93217
vt 0.65632 0.92887
vt 0.66642 0.94131
vt 0.65474 0.93920
vt 0.22164 0.29111
vt 0.23416 0.27716
vt 0.24141 0.29064
vt 0.11047 0.11641
vt 0.09638 0.11517
vt 0.10494 0.11200
vt 0.19527 0.10976
vt 0.19705 0.11422
vt 0.18729 0.11214
vt 0.41387 0.00338
vt 0.41463 0.01054
vt 0.40971 0.00676
vt 0.08801 0.33573
vt 0.08866 0.33217
vt 0.09590 0.33788
vt 0.42882 0.06927
vt 0.43305 0.06608
vt 0.44012 0.07041
vt 0.85864 0.84409
vt 0.84859 0.84856
vt 0.85636 0.83037
vt 0.19160 0.21113
vt 0.18810 0.20205
vt 0.19637 0.20079
vt 0.49344 0.72124
vt 0.48157 0.71991
vt 0.49136 0.71079
vt 0.48155 0.71990
vt 0.48094 0.71188
vt 0.49127 0.71072
vt 0.24153 0.29057
vt 0.24804 0.29449
vt 0.24252 0.29863
vt 0.94950 0.87839
vt 0.95738 0.87908
vt 0.94771 0.88505
vt 0.70058 0.77655
vt 0.69602 0.78077
vt 0.68926 0.77881
vt 0.18607 0.19392
vt 0.19637 0.20079
vt 0.18810 0.20204
vt 0.71934 0.77192
vt 0.70040 0.76527
vt 0.71107 0.76500
vt 0.69082 0.09006
vt 0.69385 0.08521
vt 0.70357 0.09087
vt 0.99541 0.22037
vt 0.99636 0.22692
vt 0.99101 0.22925
vt 0.16957 0.09865
vt 0.15603 0.10046
vt 0.16686 0.09682
vt 0.96843 0.13614
vt 0.97062 0.14489
vt 0.96668 0.14572
vt 0.71934 0.77192
vt 0.71547 0.77905
vt 0.69969 0.76453
vt 0.80898 0.01149
vt 0.81736 0.01366
vt 0.81528 0.01692
vt 0.83363 0.52991
vt 0.84594 0.52837
vt 0.84406 0.54949
vt 0.55703 0.00280
vt 0.55187 0.00577
vt 0.55273 0.00160
vt 0.19637 0.20079
vt 0.18602 0.19399
vt 0.19477 0.19004
vt 0.69975 0.76518
vt 0.71540 0.77845
vt 0.69805 0.78353
vt 0.49101 0.00873
vt 0.49263 0.00299
vt 0.49809 0.00423
vt 0.93076 0.58837
vt 0.93960 0.59948
vt 0.93167 0.59933
vt 0.61908 0.15447
vt 0.61781 0.16942
vt 0.61304 0.16089
vt 0.09585 0.33778
vt 0.08990 0.34696
vt 0.08802 0.33575
vt 0.18810 0.20204
vt 0.18668 0.20173
vt 0.18607 0.19392
vt 0.34541 0.95468
vt 0.34537 0.94652
vt 0.34690 0.94715
vt 0.09583 0.01485
vt 0.10052 0.01062
vt 0.10004 0.02079
vt 0.15605 0.10065
vt 0.16958 0.09873
vt 0.16201 0.10211
vt 0.69605 0.03103
vt 0.69841 0.02589
vt 0.70336 0.02416
vt 0.22369 0.88701
vt 0.20574 0.87490
vt 0.22617 0.87553
vt 0.54813 0.93720
vt 0.55462 0.94093
vt 0.55141 0.95192
vt 0.33717 0.95598
vt 0.34541 0.95468
vt 0.34193 0.95643
vt 0.61457 0.96504
vt 0.59706 0.96425
vt 0.61423 0.95819
vt 0.41295 0.05606
vt 0.42408 0.05874
vt 0.41379 0.05946
vt 0.12793 0.01312
vt 0.14214 0.02284
vt 0.13317 0.02297
vt 0.96387 0.13818
vt 0.96838 0.13613
vt 0.96680 0.14574
vt 0.20565 0.87473
vt 0.21476 0.86386
vt 0.22616 0.87551
vt 0.97113 0.72902
vt 0.97223 0.72288
vt 0.97792 0.73034
vt 0.09583 0.01485
vt 0.10009 0.02075
vt 0.09580 0.02070
vt 0.27676 0.10612
vt 0.27078 0.09984
vt 0.27400 0.09945
vt 0.06456 0.11467
vt 0.06539 0.10576
vt 0.07864 0.10576
vt 0.75180 0.70824
vt 0.75167 0.69780
vt 0.75947 0.70495
vt 0.99858 0.36957
vt 0.99886 0.37325
vt 0.99530 0.37313
vt 0.74381 0.70274
vt 0.75184 0.69758
vt 0.75180 0.70824
vt 0.62950 0.33361
vt 0.65104 0.34734
vt 0.64036 0.34239
vt 0.08279 0.42841
vt 0.08540 0.41808
vt 0.08504 0.43287
vt 0.09391 0.34986
vt 0.08990 0.34696
vt 0.09601 0.33785
vt 0.97790 0.91822
vt 0.97807 0.92647
vt 0.97364 0.91807
vt 0.75180 0.70824
vt 0.75949 0.70492
vt 0.75526 0.71957
vt 0.72091 0.09169
vt 0.71703 0.09169
vt 0.72075 0.08574
vt 0.18885 0.07998
vt 0.20112 0.08596
vt 0.19049 0.08351
vt 0.33735 0.94168
vt 0.34541 0.95468
vt 0.33708 0.95665
vt 0.97364 0.91807
vt 0.97815 0.92643
vt 0.97323 0.92391
vt 0.68605 0.48764
vt 0.68160 0.47790
vt 0.68722 0.48564
vt 0.18885 0.07998
vt 0.20079 0.07790
vt 0.20098 0.08647
vt 0.20073 0.07762
vt 0.18885 0.07998
vt 0.19047 0.07681
vt 0.93964 0.15411
vt 0.94808 0.14723
vt 0.94800 0.16020
vt 0.76156 0.09786
vt 0.74931 0.09458
vt 0.76330 0.09048
vt 0.18729 0.11214
vt 0.19705 0.11422
vt 0.18388 0.11926
vt 0.37143 0.15020
vt 0.36339 0.16279
vt 0.36312 0.15228
vt 0.33735 0.94168
vt 0.34537 0.94652
vt 0.34541 0.95468
vt 0.93972 0.58820
vt 0.93960 0.59948
vt 0.93076 0.58837
vt 0.95457 0.30379
vt 0.94961 0.31453
vt 0.94579 0.30464
vt 0.07791 0.11447
vt 0.06456 0.11467
vt 0.07864 0.10576
vt 0.49569 0.08222
vt 0.50030 0.07477
vt 0.50183 0.08896
vt 0.96644 0.87313
vt 0.97405 0.87705
vt 0.96851 0.88339
vt 0.34002 0.93322
vt 0.34538 0.94652
vt 0.33735 0.94168
vt 0.55709 0.01831
vt 0.55858 0.01014
vt 0.56461 0.00716
vt 0.68035 0.49101
vt 0.68592 0.48788
vt 0.68822 0.49751
vt 0.81680 0.34075
vt 0.81800 0.35273
vt 0.81096 0.34965
vt 0.83044 0.69596
vt 0.82940 0.67975
vt 0.83802 0.68476
vt 0.00107 0.47564
vt 0.00082 0.46869
vt 0.00074 0.48327
vt 0.06936 0.39840
vt 0.07583 0.39297
vt 0.08422 0.39889
vt 0.94164 0.64161
vt 0.94164 0.64161
vt 0.94164 0.64161
vt 0.94164 0.64161
vt 0.94164 0.64161
vt 0.94164 0.64161
vt 0.94164 0.64161
vt 0.94164 0.64161
vt 0.94164 0.64161
vt 0.94164 0.64161
vt 0.94164 0.64161
vt 0.94164 0.64161
vt 0.94164 0.64161
vt 0.94164 0.64161
vt 0.94164 0.64161
vt 0.94164 0.64161
vt 0.94164 0.64161
vt 0.94164 0.64161
vt 0.94164 0.64161
vt 0.94164 0.64161
vt 0.94164 0.64161
vt 0.51188 0.72513
vt 0.51188 0.72513
vt 0.51188 0.72513
vt 0.51188 0.72513
vt 0.51188 0.72513
vt 0.51188 0.72513
vt 0.51188 0.72513
vt 0.51188 0.72513
vt 0.51188 0.72513
vt 0.51188 0.72513
vt 0.51188 0.72513
vt 0.51188 0.72513
vt 0.51188 0.72513
vt 0.51188 0.72513
vt 0.51188 0.72513
vt 0.51188 0.72513
vt 0.51188 0.72513
vt 0.51188 0.72513
vt 0.51188 0.72513
vt 0.51188 0.72513
vt 0.51188 0.72513
vt 0.51188 0.72513
vt 0.51188 0.72513
vt 0.51188 0.72513
vt 0.51188 0.72513
vt 0.51188 0.72513
vt 0.51188 0.72513
vt 0.51188 0.72513
vt 0.51188 0.72513
vt 0.51188 0.72513
vt 0.51188 0.72513
vt 0.51188 0.72513
vt 0.51188 0.72513
vt 0.51188 0.72513
vt 0.51188 0.72513
vt 0.51188 0.72513
vt 0.51188 0.72513
vt 0.51188 0.72513
vt 0.51188 0.72513
vn 0.7089 -0.5093 -0.4879
vn 0.7927 0.4534 -0.4075
vn 0.9847 -0.1122 0.1333
vn 0.7089 -0.5093 -0.4879
vn 0.9847 -0.1122 0.1333
vn 0.9062 -0.2557 -0.3369
vn 0.9954 0.0094 0.0956
vn 0.7927 0.4534 -0.4075
vn 0.6864 0.6788 0.2610
vn 0.9954 0.0094 0.0956
vn 0.9847 -0.1122 0.1333
vn 0.7927 0.4534 -0.4075
vn 0.7089 -0.5093 -0.4879
vn 0.9062 -0.2557 -0.3369
vn 0.6694 0.3566 -0.6517
vn 0.5552 0.6622 0.5032
vn 0.5523 0.4443 0.7054
vn 0.9465 -0.3228 -0.0006
vn 0.9465 -0.3228 -0.0006
vn 0.9589 0.2748 0.0701
vn 0.5552 0.6622 0.5032
vn 0.7089 -0.5093 -0.4879
vn 0.6694 0.3566 -0.6517
vn 0.7927 0.4534 -0.4075
vn 0.9606 -0.2068 -0.1858
vn 0.9589 0.2748 0.0701
vn 0.9465 -0.3228 -0.0006
vn 0.9062 -0.2557 -0.3369
vn 0.9847 -0.1122 0.1333
vn 0.6352 0.4409 0.6341
vn 0.6799 0.4782 -0.5560
vn 0.6864 0.6788 0.2610
vn 0.7927 0.4534 -0.4075
vn 0.6352 0.4409 0.6341
vn 0.8412 0.1190 0.5275
vn 0.8581 -0.2769 0.4324
vn 0.9954 0.0094 0.0956
vn 0.6864 0.6788 0.2610
vn 0.9589 0.2748 0.0701
vn 0.9847 -0.1122 0.1333
vn 0.9954 0.0094 0.0956
vn 0.2690 0.6047 0.7496
vn 0.9847 -0.1122 0.1333
vn 0.2690 0.6047 0.7496
vn 0.6352 0.4409 0.6341
vn 0.7657 -0.4224 0.4851
vn 0.7797 -0.4082 0.4748
vn 0.8412 0.1190 0.5275
vn 0.2690 0.6047 0.7496
vn 0.9606 -0.2068 -0.1858
vn 0.6352 0.4409 0.6341
vn 0.9465 -0.3228 -0.0006
vn 0.5523 0.4443 0.7054
vn 0.7923 -0.3426 0.5049
vn 0.7923 -0.3426 0.5049
vn 0.7657 -0.4224 0.4851
vn 0.9465 -0.3228 -0.0006
vn 0.7923 -0.3426 0.5049
vn 0.5523 0.4443 0.7054
vn 0.5203 0.5255 0.6732
vn 0.7657 -0.4224 0.4851
vn 0.8412 0.1190 0.5275
vn 0.9606 -0.2068 -0.1858
vn 0.7657 -0.4224 0.4851
vn -0.4468 -0.6304 0.6348
vn 0.7797 -0.4082 0.4748
vn 0.6352 0.4409 0.6341
vn 0.9606 -0.2068 -0.1858
vn 0.8412 0.1190 0.5275
vn 0.6694 0.3566 -0.6517
vn 0.6799 0.4782 -0.5560
vn 0.7927 0.4534 -0.4075
vn 0.5203 0.5255 0.6732
vn 0.7657 -0.4224 0.4851
vn 0.7923 -0.3426 0.5049
vn 0.9606 -0.2068 -0.1858
vn 0.9465 -0.3228 -0.0006
vn 0.7657 -0.4224 0.4851
vn 0.9954 0.0094 0.0956
vn 0.9589 0.2748 0.0701
vn 0.9606 -0.2068 -0.1858
vn 0.5523 0.4443 0.7054
vn 0.9589 0.2748 0.0701
vn 0.6061 0.6374 0.4759
vn 0.5523 0.4443 0.7054
vn 0.5552 0.6622 0.5032
vn 0.9589 0.2748 0.0701
vn 0.9589 0.2748 0.0701
vn 0.6864 0.6788 0.2610
vn 0.6061 0.6374 0.4759
vn 0.9589 0.2226 0.1757
vn 0.7145 0.3438 -0.6093
vn 0.6694 0.3566 -0.6517
vn 0.6799 0.4782 -0.5560
vn 0.6694 0.3566 -0.6517
vn 0.6155 0.5466 -0.5678
vn 0.5203 0.5255 0.6732
vn 0.5523 0.4443 0.7054
vn 0.0376 -0.1434 0.9889
vn 0.5685 -0.5696 0.5936
vn 0.7657 -0.4224 0.4851
vn 0.1305 0.3437 0.9300
vn 0.7145 0.3438 -0.6093
vn 0.6155 0.5466 -0.5678
vn 0.6694 0.3566 -0.6517
vn 0.6799 0.4782 -0.5560
vn 0.6155 0.5466 -0.5678
vn 0.2494 -0.1955 -0.9485
vn 0.1305 0.3437 0.9300
vn 0.7657 -0.4224 0.4851
vn 0.5203 0.5255 0.6732
vn 0.6799 0.4782 -0.5560
vn 0.6663 0.1953 -0.7197
vn 0.6864 0.6788 0.2610
vn 0.6081 0.7861 -0.1108
vn 0.6155 0.5466 -0.5678
vn 0.7145 0.3438 -0.6093
vn 0.6663 0.1953 -0.7197
vn 0.6780 -0.5049 -0.5342
vn 0.6864 0.6788 0.2610
vn 0.6799 0.4782 -0.5560
vn 0.7143 0.2615 -0.6491
vn 0.6663 0.1953 -0.7197
vn 0.5789 0.4281 0.6940
vn 0.5523 0.4443 0.7054
vn 0.6061 0.6374 0.4759
vn -0.1241 -0.7148 0.6882
vn 0.7657 -0.4224 0.4851
vn 0.5685 -0.5696 0.5936
vn 0.9954 0.0094 0.0956
vn 0.9277 0.3113 0.2059
vn 0.2690 0.6047 0.7496
vn 0.9954 0.0094 0.0956
vn 0.9606 -0.2068 -0.1858
vn 0.9277 0.3113 0.2059
vn 0.5523 0.4443 0.7054
vn 0.5789 0.4281 0.6940
vn 0.6488 0.3814 0.6585
vn 0.7797 -0.4082 0.4748
vn -0.4468 -0.6304 0.6348
vn -0.0872 -0.8910 0.4456
vn 0.9219 0.3018 -0.2432
vn 0.5789 0.4281 0.6940
vn 0.6061 0.6374 0.4759
vn 0.6799 0.4782 -0.5560
vn 0.2494 -0.1955 -0.9485
vn 0.7143 0.2615 -0.6491
vn 0.6061 0.6374 0.4759
vn 0.6864 0.6788 0.2610
vn 0.8563 0.4791 -0.1931
vn 0.8929 0.2473 0.3763
vn 0.5789 0.4281 0.6940
vn 0.9219 0.3018 -0.2432
vn -0.1241 -0.7148 0.6882
vn 0.5685 -0.5696 0.5936
vn 0.1305 0.3437 0.9300
vn -0.6815 0.5525 -0.4798
vn 0.6155 0.5466 -0.5678
vn 0.6081 0.7861 -0.1108
vn 0.6081 0.7861 -0.1108
vn -0.2179 0.9687 -0.1192
vn -0.0274 0.9823 -0.1855
vn 0.6780 -0.5049 -0.5342
vn 0.8563 0.4791 -0.1931
vn 0.6864 0.6788 0.2610
vn 0.2690 0.6047 0.7496
vn 0.9277 0.3113 0.2059
vn 0.9606 -0.2068 -0.1858
vn 0.5523 0.4443 0.7054
vn -0.4076 -0.0356 0.9125
vn 0.0376 -0.1434 0.9889
vn 0.6488 0.3814 0.6585
vn -0.4076 -0.0356 0.9125
vn 0.5523 0.4443 0.7054
vn 0.5203 0.5255 0.6732
vn -0.3537 0.0451 0.9343
vn 0.1305 0.3437 0.9300
vn 0.1305 0.3437 0.9300
vn -0.3537 0.0451 0.9343
vn -0.1241 -0.7148 0.6882
vn 0.2494 -0.1955 -0.9485
vn 0.5545 -0.2084 -0.8057
vn 0.7143 0.2615 -0.6491
vn 0.9219 0.3018 -0.2432
vn 0.6061 0.6374 0.4759
vn 0.8563 0.4791 -0.1931
vn -0.1241 -0.7148 0.6882
vn -0.4468 -0.6304 0.6348
vn 0.7657 -0.4224 0.4851
vn 0.6780 -0.5049 -0.5342
vn 0.6663 0.1953 -0.7197
vn 0.7143 0.2615 -0.6491
vn 0.0700 -0.2315 -0.9703
vn 0.2494 -0.1955 -0.9485
vn 0.6155 0.5466 -0.5678
vn 0.5545 -0.2084 -0.8057
vn 0.2494 -0.1955 -0.9485
vn 0.0700 -0.2315 -0.9703
vn 0.6488 0.3814 0.6585
vn 0.5789 0.4281 0.6940
vn -0.4076 -0.0356 0.9125
vn 0.7143 0.2615 -0.6491
vn 0.5545 -0.2084 -0.8057
vn 0.6780 -0.5049 -0.5342
vn -0.1241 -0.7148 0.6882
vn -0.3537 0.0451 0.9343
vn -0.3693 -0.6774 0.6362
vn -0.1241 -0.7148 0.6882
vn -0.4958 -0.5355 0.6836
vn -0.4468 -0.6304 0.6348
vn 0.0700 -0.2315 -0.9703
vn 0.6155 0.5466 -0.5678
vn -0.6815 0.5525 -0.4798
vn 0.8929 0.2473 0.3763
vn 0.9219 0.3018 -0.2432
vn 0.5163 0.7610 0.3928
vn -0.4468 -0.6304 0.6348
vn -0.4958 -0.5355 0.6836
vn -0.0872 -0.8910 0.4456
vn 0.6081 0.7861 -0.1108
vn -0.0274 0.9823 -0.1855
vn -0.6815 0.5525 -0.4798
vn -0.4043 0.8756 0.2644
vn -0.0274 0.9823 -0.1855
vn -0.2179 0.9687 -0.1192
vn -0.4958 -0.5355 0.6836
vn -0.1241 -0.7148 0.6882
vn -0.3693 -0.6774 0.6362
vn 0.5203 0.5255 0.6732
vn 0.0376 -0.1434 0.9889
vn -0.3537 0.0451 0.9343
vn 0.9219 0.3018 -0.2432
vn 0.8563 0.4791 -0.1931
vn 0.2630 0.8983 -0.3520
vn 0.6724 0.5870 0.4509
vn 0.8563 0.4791 -0.1931
vn 0.7596 -0.4456 -0.4738
vn -0.0274 0.9823 -0.1855
vn -0.7330 0.5207 -0.4378
vn -0.6815 0.5525 -0.4798
vn 0.5163 0.7610 0.3928
vn 0.9219 0.3018 -0.2432
vn 0.2630 0.8983 -0.3520
vn 0.5789 0.4281 0.6940
vn 0.8929 0.2473 0.3763
vn 0.1998 0.5261 0.8266
vn 0.5545 -0.2084 -0.8057
vn 0.4277 -0.4274 -0.7965
vn 0.6780 -0.5049 -0.5342
vn 0.6780 -0.5049 -0.5342
vn 0.7596 -0.4456 -0.4738
vn 0.8563 0.4791 -0.1931
vn -0.3537 0.0451 0.9343
vn 0.0376 -0.1434 0.9889
vn -0.3693 -0.6774 0.6362
vn -0.0274 0.9823 -0.1855
vn 0.1907 0.6552 -0.7310
vn -0.7330 0.5207 -0.4378
vn 0.0700 -0.2315 -0.9703
vn -0.6815 0.5525 -0.4798
vn -0.7330 0.5207 -0.4378
vn -0.0872 -0.8910 0.4456
vn -0.4958 -0.5355 0.6836
vn -0.2613 -0.8593 0.4396
vn 0.6199 0.4130 -0.6671
vn 0.6724 0.5870 0.4509
vn 0.7596 -0.4456 -0.4738
vn 0.0700 -0.2315 -0.9703
vn -0.3658 -0.6246 -0.6900
vn 0.5545 -0.2084 -0.8057
vn -0.8004 -0.4947 0.3385
vn -0.0872 -0.8910 0.4456
vn -0.2613 -0.8593 0.4396
vn -0.4076 -0.0356 0.9125
vn 0.5789 0.4281 0.6940
vn -0.5137 -0.0987 0.8523
vn -0.0952 -0.9264 0.3644
vn -0.0872 -0.8910 0.4456
vn -0.8004 -0.4947 0.3385
vn -0.7819 -0.5387 0.3138
vn -0.3853 -0.0698 0.9201
vn -0.4958 -0.5355 0.6836
vn -0.3693 -0.6774 0.6362
vn -0.5692 -0.7213 0.3945
vn -0.4958 -0.5355 0.6836
vn -0.3693 -0.6774 0.6362
vn 0.0376 -0.1434 0.9889
vn -0.5692 -0.7213 0.3945
vn -0.0274 0.9823 -0.1855
vn -0.4043 0.8756 0.2644
vn 0.1907 0.6552 -0.7310
vn -0.5692 -0.7213 0.3945
vn -0.7819 -0.5387 0.3138
vn -0.4958 -0.5355 0.6836
vn -0.2613 -0.8593 0.4396
vn -0.4958 -0.5355 0.6836
vn -0.3853 -0.0698 0.9201
vn -0.5500 -0.2812 -0.7864
vn -0.3658 -0.6246 -0.6900
vn 0.0700 -0.2315 -0.9703
vn -0.2613 -0.8593 0.4396
vn -0.3853 -0.0698 0.9201
vn -0.8004 -0.4947 0.3385
vn -0.5500 -0.2812 -0.7864
vn 0.0700 -0.2315 -0.9703
vn -0.7330 0.5207 -0.4378
vn 0.8563 0.4791 -0.1931
vn 0.5667 0.6606 -0.4923
vn 0.2630 0.8983 -0.3520
vn 0.8563 0.4791 -0.1931
vn 0.6724 0.5870 0.4509
vn 0.5573 0.6102 0.5631
vn 0.5789 0.4281 0.6940
vn 0.1998 0.5261 0.8266
vn -0.3122 0.3352 0.8889
vn -0.8004 -0.4947 0.3385
vn -0.8763 -0.4140 0.2464
vn -0.2497 -0.9438 0.2166
vn -0.7330 0.5207 -0.4378
vn -0.4043 0.8756 0.2644
vn -0.6353 0.6526 -0.4129
vn 0.5163 0.7610 0.3928
vn 0.1998 0.5261 0.8266
vn 0.8929 0.2473 0.3763
vn -0.3658 -0.6246 -0.6900
vn 0.4277 -0.4274 -0.7965
vn 0.5545 -0.2084 -0.8057
vn -0.8004 -0.4947 0.3385
vn -0.8675 -0.3689 0.3336
vn -0.8889 -0.3207 0.3271
vn -0.3853 -0.0698 0.9201
vn -0.7819 -0.5387 0.3138
vn -0.8004 -0.4947 0.3385
vn 0.5573 0.6102 0.5631
vn 0.6724 0.5870 0.4509
vn 0.4861 0.7294 0.4813
vn -0.7330 0.5207 -0.4378
vn 0.1907 0.6552 -0.7310
vn -0.4043 0.8756 0.2644
vn -0.7819 -0.5387 0.3138
vn -0.8675 -0.3689 0.3336
vn -0.8004 -0.4947 0.3385
vn 0.0376 -0.1434 0.9889
vn -0.4076 -0.0356 0.9125
vn -0.5692 -0.7213 0.3945
vn 0.2630 0.8983 -0.3520
vn 0.5667 0.6606 -0.4923
vn 0.5163 0.7610 0.3928
vn 0.6199 0.4130 -0.6671
vn 0.4861 0.7294 0.4813
vn 0.6724 0.5870 0.4509
vn -0.7819 -0.5387 0.3138
vn -0.8889 -0.3207 0.3271
vn -0.8675 -0.3689 0.3336
vn 0.5667 0.6606 -0.4923
vn 0.3413 0.8545 0.3915
vn 0.5163 0.7610 0.3928
vn -0.9387 -0.2929 -0.1819
vn -0.4043 0.8756 0.2644
vn -0.9154 -0.1768 0.3617
vn -0.7330 0.5207 -0.4378
vn -0.6353 0.6526 -0.4129
vn -0.5500 -0.2812 -0.7864
vn -0.4043 0.8756 0.2644
vn -0.9387 -0.2929 -0.1819
vn -0.6353 0.6526 -0.4129
vn -0.2179 0.9687 -0.1192
vn -0.7915 0.3586 0.4949
vn -0.4043 0.8756 0.2644
vn 0.8563 0.4791 -0.1931
vn 0.5573 0.6102 0.5631
vn 0.5667 0.6606 -0.4923
vn -0.5137 -0.0987 0.8523
vn 0.5789 0.4281 0.6940
vn -0.3122 0.3352 0.8889
vn -0.7819 -0.5387 0.3138
vn -0.5692 -0.7213 0.3945
vn -0.4076 -0.0356 0.9125
vn 0.6780 -0.5049 -0.5342
vn 0.4277 -0.4274 -0.7965
vn 0.7596 -0.4456 -0.4738
vn 0.5573 0.6102 0.5631
vn 0.3413 0.8545 0.3915
vn 0.5667 0.6606 -0.4923
vn -0.4076 -0.0356 0.9125
vn -0.3421 -0.4641 0.8171
vn -0.7819 -0.5387 0.3138
vn -0.8889 -0.3207 0.3271
vn -0.8763 -0.4140 0.2464
vn -0.8004 -0.4947 0.3385
vn -0.0144 -0.5993 -0.8004
vn -0.3658 -0.6246 -0.6900
vn -0.5500 -0.2812 -0.7864
vn 0.5163 0.7610 0.3928
vn 0.6576 0.4062 0.6345
vn -0.3122 0.3352 0.8889
vn 0.4157 -0.3474 -0.8405
vn 0.6199 0.4130 -0.6671
vn 0.7596 -0.4456 -0.4738
vn -0.3421 -0.4641 0.8171
vn -0.4076 -0.0356 0.9125
vn -0.5137 -0.0987 0.8523
vn 0.8960 0.0118 0.4440
vn 0.6576 0.4062 0.6345
vn 0.5163 0.7610 0.3928
vn -0.8763 -0.4140 0.2464
vn -0.8889 -0.3207 0.3271
vn -0.9868 0.1615 0.0125
vn -0.5500 -0.2812 -0.7864
vn -0.4196 -0.5017 -0.7564
vn -0.0144 -0.5993 -0.8004
vn 0.7596 -0.4456 -0.4738
vn -0.1979 -0.6151 -0.7632
vn 0.4157 -0.3474 -0.8405
vn -0.8889 -0.3207 0.3271
vn -0.5500 -0.2812 -0.7864
vn -0.9868 0.1615 0.0125
vn 0.6199 0.4130 -0.6671
vn 0.4296 0.6518 -0.6250
vn 0.4861 0.7294 0.4813
vn 0.5163 0.7610 0.3928
vn 0.3413 0.8545 0.3915
vn 0.3818 0.3444 0.8576
vn 0.6284 -0.0408 0.7768
vn -0.3421 -0.4641 0.8171
vn -0.5137 -0.0987 0.8523
vn -0.3658 -0.6246 -0.6900
vn -0.0144 -0.5993 -0.8004
vn 0.4277 -0.4274 -0.7965
vn -0.6353 0.6526 -0.4129
vn -0.9387 -0.2929 -0.1819
vn -0.5500 -0.2812 -0.7864
vn 0.5163 0.7610 0.3928
vn -0.3122 0.3352 0.8889
vn 0.1998 0.5261 0.8266
vn 0.4277 -0.4274 -0.7965
vn -0.1979 -0.6151 -0.7632
vn 0.7596 -0.4456 -0.4738
vn 0.6284 -0.0408 0.7768
vn -0.5137 -0.0987 0.8523
vn -0.3122 0.3352 0.8889
vn -0.5500 -0.2812 -0.7864
vn -0.9387 -0.2929 -0.1819
vn -0.9868 0.1615 0.0125
vn -0.7181 -0.6646 -0.2065
vn -0.9868 0.1615 0.0125
vn -0.9387 -0.2929 -0.1819
vn -0.7181 -0.6646 -0.2065
vn -0.8763 -0.4140 0.2464
vn -0.9868 0.1615 0.0125
vn 0.5166 0.3830 -0.7658
vn 0.4157 -0.3474 -0.8405
vn 0.6099 -0.5768 -0.5434
vn 0.5573 0.6102 0.5631
vn 0.3818 0.3444 0.8576
vn 0.3413 0.8545 0.3915
vn -0.7819 -0.5387 0.3138
vn -0.3421 -0.4641 0.8171
vn 0.6284 -0.0408 0.7768
vn 0.5163 0.7610 0.3928
vn 0.3818 0.3444 0.8576
vn 0.8960 0.0118 0.4440
vn 0.6856 0.3072 0.6599
vn 0.9125 -0.2823 -0.2960
vn 0.9789 0.1855 0.0863
vn 0.9789 0.1855 0.0863
vn 0.9125 -0.2823 -0.2960
vn 0.8819 0.2676 -0.3881
vn 0.8484 0.5032 0.1645
vn 0.8819 0.2676 -0.3881
vn 0.8506 0.5250 -0.0305
vn 0.6856 0.3072 0.6599
vn 0.9789 0.1855 0.0863
vn 0.6071 0.5063 0.6125
vn 0.7943 0.5984 0.1046
vn 0.9962 0.0863 0.0140
vn 0.8484 0.5032 0.1645
vn 0.9962 0.0863 0.0140
vn 0.8770 0.3201 0.3584
vn 0.8484 0.5032 0.1645
vn 0.9888 0.0511 0.1405
vn 0.9461 -0.1648 -0.2789
vn 0.9789 0.1855 0.0863
vn -0.5500 -0.2812 -0.7864
vn -0.8889 -0.3207 0.3271
vn -0.4196 -0.5017 -0.7564
vn -0.7819 -0.5387 0.3138
vn 0.0202 -0.8532 -0.5212
vn -0.8889 -0.3207 0.3271
vn -0.7819 -0.5387 0.3138
vn 0.6284 -0.0408 0.7768
vn 0.0202 -0.8532 -0.5212
vn 0.4296 0.6518 -0.6250
vn 0.6199 0.4130 -0.6671
vn 0.4157 -0.3474 -0.8405
vn 0.9962 0.0863 0.0140
vn 0.6534 0.4363 -0.6187
vn 0.9808 -0.0918 -0.1718
vn 0.9789 0.1855 0.0863
vn 0.5325 -0.0034 0.8464
vn 0.6071 0.5063 0.6125
vn 0.8819 0.2676 -0.3881
vn 0.8484 0.5032 0.1645
vn 0.8384 0.4096 0.3596
vn 0.4277 -0.4274 -0.7965
vn -0.0144 -0.5993 -0.8004
vn 0.6197 -0.4261 -0.6591
vn 0.6937 0.2862 0.6609
vn 0.8685 0.1228 0.4802
vn 0.9461 -0.1648 -0.2789
vn 0.5166 0.3830 -0.7658
vn 0.4296 0.6518 -0.6250
vn 0.4157 -0.3474 -0.8405
vn 0.9461 -0.1648 -0.2789
vn 0.8373 -0.1728 -0.5188
vn 0.6937 0.2862 0.6609
vn 0.9789 0.1855 0.0863
vn 0.9461 -0.1648 -0.2789
vn 0.6853 0.1492 0.7128
vn 0.9461 -0.1648 -0.2789
vn 0.8685 0.1228 0.4802
vn 0.6853 0.1492 0.7128
vn 0.4157 -0.3474 -0.8405
vn -0.1979 -0.6151 -0.7632
vn 0.5132 -0.4850 -0.7081
vn -0.1979 -0.6151 -0.7632
vn 0.4277 -0.4274 -0.7965
vn 0.5132 -0.4850 -0.7081
vn 0.9962 0.0863 0.0140
vn 0.6284 -0.0408 0.7768
vn 0.8050 0.5673 0.1739
vn 0.9598 -0.0692 -0.2722
vn 0.6937 0.2862 0.6609
vn 0.8373 -0.1728 -0.5188
vn 0.9637 0.0019 -0.2671
vn 0.9962 0.0863 0.0140
vn 0.9808 -0.0918 -0.1718
vn 0.8819 0.2676 -0.3881
vn 0.8221 -0.5588 0.1085
vn 0.8506 0.5250 -0.0305
vn 0.9125 -0.2823 -0.2960
vn 0.8221 -0.5588 0.1085
vn 0.8819 0.2676 -0.3881
vn 0.9888 0.0511 0.1405
vn 0.8484 0.5032 0.1645
vn 0.8770 0.3201 0.3584
vn -0.2040 -0.4028 -0.8923
vn 0.6099 -0.5768 -0.5434
vn 0.4157 -0.3474 -0.8405
vn 0.9637 0.0019 -0.2671
vn 0.0202 -0.8532 -0.5212
vn 0.9962 0.0863 0.0140
vn 0.8373 -0.1728 -0.5188
vn 0.9461 -0.1648 -0.2789
vn 0.9781 -0.0815 -0.1914
vn 0.8661 0.4997 -0.0117
vn 0.4861 0.7294 0.4813
vn 0.4296 0.6518 -0.6250
vn 0.8819 0.2676 -0.3881
vn 0.8384 0.4096 0.3596
vn 0.5735 0.5431 -0.6133
vn 0.6937 0.2862 0.6609
vn 0.9598 -0.0692 -0.2722
vn 0.8114 0.4186 0.4079
vn 0.9962 0.0863 0.0140
vn 0.0202 -0.8532 -0.5212
vn 0.6284 -0.0408 0.7768
vn 0.9789 0.1855 0.0863
vn 0.9072 -0.0843 -0.4122
vn 0.9888 0.0511 0.1405
vn 0.5166 0.3830 -0.7658
vn -0.8199 0.4975 -0.2835
vn 0.4296 0.6518 -0.6250
vn 0.6576 0.4062 0.6345
vn 0.6284 -0.0408 0.7768
vn -0.3122 0.3352 0.8889
vn 0.6197 -0.4261 -0.6591
vn 0.5132 -0.4850 -0.7081
vn 0.4277 -0.4274 -0.7965
vn 0.8373 -0.1728 -0.5188
vn 0.8109 -0.1876 -0.5543
vn 0.9598 -0.0692 -0.2722
vn 0.9781 -0.0815 -0.1914
vn 0.8109 -0.1876 -0.5543
vn 0.8373 -0.1728 -0.5188
vn 0.9072 -0.0843 -0.4122
vn 0.9789 0.1855 0.0863
vn 0.8819 0.2676 -0.3881
vn 0.8484 0.5032 0.1645
vn 0.9888 0.0511 0.1405
vn 0.8384 0.4096 0.3596
vn 0.6853 0.1492 0.7128
vn 0.5325 -0.0034 0.8464
vn 0.9789 0.1855 0.0863
vn -0.4196 -0.5017 -0.7564
vn -0.8889 -0.3207 0.3271
vn 0.0441 -0.8905 -0.4528
vn 0.5573 0.6102 0.5631
vn 0.4861 0.7294 0.4813
vn 0.8661 0.4997 -0.0117
vn 0.6284 -0.0408 0.7768
vn 0.9781 -0.0815 -0.1914
vn 0.8050 0.5673 0.1739
vn 0.9808 -0.0918 -0.1718
vn 0.8571 0.3568 -0.3716
vn 0.9637 0.0019 -0.2671
vn 0.9461 -0.1648 -0.2789
vn 0.9888 0.0511 0.1405
vn 0.7387 -0.3384 -0.5829
vn -0.1849 -0.4700 -0.8631
vn 0.6197 -0.4261 -0.6591
vn -0.0144 -0.5993 -0.8004
vn 0.5132 -0.4850 -0.7081
vn -0.2040 -0.4028 -0.8923
vn 0.4157 -0.3474 -0.8405
vn -0.8889 -0.3207 0.3271
vn 0.0202 -0.8532 -0.5212
vn 0.0441 -0.8905 -0.4528
vn 0.9125 -0.2823 -0.2960
vn 0.9529 0.2857 0.1019
vn 0.8221 -0.5588 0.1085
vn 0.9072 -0.0843 -0.4122
vn 0.8819 0.2676 -0.3881
vn 0.5735 0.5431 -0.6133
vn 0.9962 0.0863 0.0140
vn 0.9888 0.0511 0.1405
vn 0.8770 0.3201 0.3584
vn -0.6088 0.1077 -0.7860
vn 0.5166 0.3830 -0.7658
vn 0.6099 -0.5768 -0.5434
vn 0.7810 0.5028 0.3703
vn 0.3818 0.3444 0.8576
vn 0.5573 0.6102 0.5631
vn 0.9461 -0.1648 -0.2789
vn 0.7387 -0.3384 -0.5829
vn 0.9781 -0.0815 -0.1914
vn 0.8247 0.1398 -0.5481
vn 0.3818 0.3444 0.8576
vn 0.7810 0.5028 0.3703
vn 0.9529 0.1159 -0.2804
vn 0.9598 -0.0692 -0.2722
vn 0.8076 0.0360 -0.5886
vn 0.6937 0.2862 0.6609
vn 0.8114 0.4186 0.4079
vn 0.8685 0.1228 0.4802
vn -0.2040 -0.4028 -0.8923
vn 0.5132 -0.4850 -0.7081
vn 0.6197 -0.4261 -0.6591
vn 0.8384 0.4096 0.3596
vn 0.9888 0.0511 0.1405
vn 0.5735 0.5431 -0.6133
vn 0.7810 0.5028 0.3703
vn 0.5573 0.6102 0.5631
vn 0.8661 0.4997 -0.0117
vn 0.9637 0.0019 -0.2671
vn 0.9061 0.0278 -0.4222
vn 0.0202 -0.8532 -0.5212
vn 0.9781 -0.0815 -0.1914
vn 0.9962 0.0863 0.0140
vn 0.8050 0.5673 0.1739
vn 0.6576 0.4062 0.6345
vn 0.9781 -0.0815 -0.1914
vn 0.6284 -0.0408 0.7768
vn 0.5735 0.5431 -0.6133
vn 0.9888 0.0511 0.1405
vn 0.9072 -0.0843 -0.4122
vn 0.6853 0.1492 0.7128
vn 0.8685 0.1228 0.4802
vn 0.6028 -0.0549 0.7960
vn 0.9781 -0.0815 -0.1914
vn 0.9888 0.0511 0.1405
vn 0.9962 0.0863 0.0140
vn 0.9888 0.0511 0.1405
vn 0.9781 -0.0815 -0.1914
vn 0.7387 -0.3384 -0.5829
vn -0.1849 -0.4700 -0.8631
vn -0.0144 -0.5993 -0.8004
vn -0.4196 -0.5017 -0.7564
vn 0.3818 0.3444 0.8576
vn 0.8247 0.1398 -0.5481
vn 0.8960 0.0118 0.4440
vn 0.6071 0.5063 0.6125
vn 0.5325 -0.0034 0.8464
vn 0.8302 0.2208 0.5118
vn 0.7810 0.5028 0.3703
vn 0.9491 0.1902 0.2512
vn 0.7790 0.4591 0.4270
vn 0.6576 0.4062 0.6345
vn 0.8109 -0.1876 -0.5543
vn 0.9781 -0.0815 -0.1914
vn -0.6088 0.1077 -0.7860
vn -0.8199 0.4975 -0.2835
vn 0.5166 0.3830 -0.7658
vn 0.8076 0.0360 -0.5886
vn 0.9598 -0.0692 -0.2722
vn 0.8960 0.0118 0.4440
vn -0.2040 -0.4028 -0.8923
vn -0.6088 0.1077 -0.7860
vn 0.6099 -0.5768 -0.5434
vn 0.9598 -0.0692 -0.2722
vn 0.8109 -0.1876 -0.5543
vn 0.8960 0.0118 0.4440
vn 0.7810 0.5028 0.3703
vn 0.7790 0.4591 0.4270
vn 0.8247 0.1398 -0.5481
vn 0.8960 0.0118 0.4440
vn 0.8109 -0.1876 -0.5543
vn 0.6576 0.4062 0.6345
vn 0.8076 0.0360 -0.5886
vn 0.8247 0.1398 -0.5481
vn 0.9529 0.1159 -0.2804
vn 0.5325 -0.0034 0.8464
vn 0.6853 0.1492 0.7128
vn 0.7780 0.5914 0.2120
vn -0.2040 -0.4028 -0.8923
vn 0.6197 -0.4261 -0.6591
vn 0.3368 -0.6995 -0.6302
vn -0.2040 -0.4028 -0.8923
vn -0.3246 0.2181 -0.9204
vn -0.6088 0.1077 -0.7860
vn 0.8076 0.0360 -0.5886
vn 0.8960 0.0118 0.4440
vn 0.8247 0.1398 -0.5481
vn 0.8247 0.1398 -0.5481
vn 0.7790 0.4591 0.4270
vn 0.9491 0.1902 0.2512
vn 0.0000 1.0000 0.0000
vn 0.0000 1.0000 0.0000
vn 0.0000 1.0000 0.0000
vn 0.0000 1.0000 0.0000
vn 0.0000 1.0000 0.0000
vn 0.0000 1.0000 0.0000
vn 0.0000 1.0000 0.0000
vn 0.0000 1.0000 0.0000
vn 0.0000 1.0000 0.0000
vn 0.0000 1.0000 0.0000
vn 0.0000 1.0000 0.0000
vn 0.0000 1.0000 0.0000
vn 0.0000 1.0000 0.0000
vn 0.0000 1.0000 0.0000
vn 0.0000 1.0000 0.0000
vn 0.0000 1.0000 0.0000
vn 0.0000 1.0000 0.0000
vn 0.0000 1.0000 0.0000
vn 0.0000 1.0000 0.0000
vn 0.0000 1.0000 0.0000
vn 0.0000 1.0000 0.0000
vn 0.0000 1.0000 0.0000
vn 0.0000 1.0000 0.0000
vn 0.0000 1.0000 0.0000
vn 0.0000 1.0000 0.0000
vn 0.0000 1.0000 0.0000
vn 0.0000 1.0000 0.0000
vn 0.0000 1.0000 0.0000
vn 0.0000 1.0000 0.0000
vn 0.0000 1.0000 0.0000
vn 0.0000 1.0000 0.0000
vn 0.0000 1.0000 0.0000
vn 0.0000 1.0000 0.0000
vn 0.0000 1.0000 0.0000
vn 0.0000 1.0000 0.0000
vn 0.0000 1.0000 0.0000
vn 0.0000 1.0000 0.0000
vn 0.0000 1.0000 0.0000
vn 0.0000 1.0000 0.0000
vn 0.0000 1.0000 0.0000
vn 0.0000 1.0000 0.0000
vn 0.0000 1.0000 0.0000
vn 0.0000 1.0000 0.0000
vn 0.0000 1.0000 0.0000
vn 0.0000 1.0000 0.0000
vn 0.0000 1.0000 0.0000
vn 0.0000 1.0000 0.0000
vn 0.0000 1.0000 0.0000
vn 0.0000 1.0000 0.0000
vn 0.0000 1.0000 0.0000
vn 0.0000 1.0000 0.0000
vn 0.0000 1.0000 0.0000
vn 0.0000 1.0000 0.0000
vn 0.0000 1.0000 0.0000
vn 0.0000 1.0000 0.0000
vn 0.0000 1.0000 0.0000
vn 0.0000 1.0000 0.0000
vn 0.0000 1.0000 0.0000
vn 0.0000 1.0000 0.0000
vn 0.0000 1.0000 0.0000
f 1/1/1 2/2/2 3/3/3
f 4/4/4 5/5/5 6/6/6
f 7/7/7 8/8/8 9/9/9
f 10/10/10 11/11/11 12/12/12
f 13/13/13 14/14/14 15/15/15
f 16/16/16 17/17/17 18/18/18
f 19/19/19 20/20/20 21/21/21
f 22/22/22 23/23/23 24/24/24
f 25/25/25 26/26/26 27/27/27
f 28/28/28 29/29/29 30/30/30
f 31/31/31 32/32/32 33/33/33
f 34/34/34 35/35/35 36/36/36
f 37/37/37 38/38/38 39/39/39
f 40/40/40 41/41/41 42/42/42
f 43/43/43 44/44/44 45/45/45
f 46/46/46 47/47/47 48/48/48
f 49/49/49 50/50/50 51/51/51
f 52/52/52 53/53/53 54/54/54
f 55/55/55 56/56/56 57/57/57
f 58/58/58 59/59/59 60/60/60
f 61/61/61 62/62/62 63/63/63
f 64/64/64 65/65/65 66/66/66
f 67/67/67 68/68/68 69/69/69
f 70/70/70 71/71/71 72/72/72
f 73/73/73 74/74/74 75/75/75
f 76/76/76 77/77/77 78/78/78
f 79/79/79 80/80/80 81/81/81
f 82/82/82 83/83/83 84/84/84
f 85/85/85 86/86/86 87/87/87
f 88/88/88 89/89/89 90/90/90
f 91/91/91 92/92/92 93/93/93
f 94/94/94 95/95/95 96/96/96
f 97/97/97 98/98/98 99/99/99
f 100/100/100 101/101/101 102/102/102
f 103/103/103 104/104/104 105/105/105
f 106/106/106 107/107/107 108/108/108
f 109/109/109 110/110/110 111/111/111
f 112/112/112 113/113/113 114/114/114
f 115/115/115 116/116/116 117/117/117
f 118/118/118 119/119/119 120/120/120
f 121/121/121 122/122/122 123/123/123
f 124/124/124 125/125/125 126/126/126
f 127/127/127 128/128/128 129/129/129
f 130/130/130 131/131/131 132/132/132
f 133/133/133 134/134/134 135/135/135
f 136/136/136 137/137/137 138/138/138
f 139/139/139 140/140/140 141/141/141
f 142/142/142 143/143/143 144/144/144
f 145/145/145 146/146/146 147/147/147
f 148/148/148 149/149/149 150/150/150
f 151/151/151 152/152/152 153/153/153
f 154/154/154 155/155/155 156/156/156
f 157/157/157 158/158/158 159/159/159
f 160/160/160 161/161/161 162/162/162
f 163/163/163 164/164/164 165/165/165
f 166/166/166 167/167/167 168/168/168
f 169/169/169 170/170/170 171/171/171
f 172/172/172 173/173/173 174/174/174
f 175/175/175 176/176/176 177/177/177
f 178/178/178 179/179/179 180/180/180
f 181/181/181 182/182/182 183/183/183
f 184/184/184 185/185/185 186/186/186
f 187/187/187 188/188/188 189/189/189
f 190/190/190 191/191/191 192/192/192
f 193/193/193 194/194/194 195/195/195
f 196/196/196 197/197/197 198/198/198
f 199/199/199 200/200/200 201/201/201
f 202/202/202 203/203/203 204/204/204
f 205/205/205 206/206/206 207/207/207
f 208/208/208 209/209/209 210/210/210
f 211/211/211 212/212/212 213/213/213
f 214/214/214 215/215/215 216/216/216
f 217/217/217 218/218/218 219/219/219
f 220/220/220 221/221/221 222/222/222
f 223/223/223 224/224/224 225/225/225
f 226/226/226 227/227/227 228/228/228
f 229/229/229 230/230/230 231/231/231
f 232/232/232 233/233/233 234/234/234
f 235/235/235 236/236/236 237/237/237
f 238/238/238 239/239/239 240/240/240
f 241/241/241 242/242/242 243/243/243
f 244/244/244 245/245/245 246/246/246
f 247/247/247 248/248/248 249/249/249
f 250/250/250 251/251/251 252/252/252
f 253/253/253 254/254/254 255/255/255
f 256/256/256 257/257/257 258/258/258
f 259/259/259 260/260/260 261/261/261
f 262/262/262 263/263/263 264/264/264
f 265/265/265 266/266/266 267/267/267
f 268/268/268 269/269/269 270/270/270
f 271/271/271 272/272/272 273/273/273
f 274/274/274 275/275/275 276/276/276
f 277/277/277 278/278/278 279/279/279
f 280/280/280 281/281/281 282/282/282
f 283/283/283 284/284/284 285/285/285
f 286/286/286 287/287/287 288/288/288
f 289/289/289 290/290/290 291/291/291
f 292/292/292 293/293/293 294/294/294
f 295/295/295 296/296/296 297/297/297
f 298/298/298 299/299/299 300/300/300
f 301/301/301 302/302/302 303/303/303
f 304/304/304 305/305/305 306/306/306
f 307/307/307 308/308/308 309/309/309
f 310/310/310 311/311/311 312/312/312
f 313/313/313 314/314/314 315/315/315
f 316/316/316 317/317/317 318/318/318
f 319/319/319 320/320/320 321/321/321
f 322/322/322 323/323/323 324/324/324
f 325/325/325 326/326/326 327/327/327
f 328/328/328 329/329/329 330/330/330
f 331/331/331 332/332/332 333/333/333
f 334/334/334 335/335/335 336/336/336
f 337/337/337 338/338/338 339/339/339
f 340/340/340 341/341/341 342/342/342
f 343/343/343 344/344/344 345/345/345
f 346/346/346 347/347/347 348/348/348
f 349/349/349 350/350/350 351/351/351
f 352/352/352 353/353/353 354/354/354
f 355/355/355 356/356/356 357/357/357
f 358/358/358 359/359/359 360/360/360
f 361/361/361 362/362/362 363/363/363
f 364/364/364 365/365/365 366/366/366
f 367/367/367 368/368/368 369/369/369
f 370/370/370 371/371/371 372/372/372
f 373/373/373 374/374/374 375/375/375
f 376/376/376 377/377/377 378/378/378
f 379/379/379 380/380/380 381/381/381
f 382/382/382 383/383/383 384/384/384
f 385/385/385 386/386/386 387/387/387
f 388/388/388 389/389/389 390/390/390
f 391/391/391 392/392/392 393/393/393
f 394/394/394 395/395/395 396/396/396
f 397/397/397 398/398/398 399/399/399
f 400/400/400 401/401/401 402/402/402
f 403/403/403 404/404/404 405/405/405
f 406/406/406 407/407/407 408/408/408
f 409/409/409 410/410/410 411/411/411
f 412/412/412 413/413/413 414/414/414
f 415/415/415 416/416/416 417/417/417
f 418/418/418 419/419/419 420/420/420
f 421/421/421 422/422/422 423/423/423
f 424/424/424 425/425/425 426/426/426
f 427/427/427 428/428/428 429/429/429
f 430/430/430 431/431/431 432/432/432
f 433/433/433 434/434/434 435/435/435
f 436/436/436 437/437/437 438/438/438
f 439/439/439 440/440/440 441/441/441
f 442/442/442 443/443/443 444/444/444
f 445/445/445 446/446/446 447/447/447
f 448/448/448 449/449/449 450/450/450
f 451/451/451 452/452/452 453/453/453
f 454/454/454 455/455/455 456/456/456
f 457/457/457 458/458/458 459/459/459
f 460/460/460 461/461/461 462/462/462
f 463/463/463 464/464/464 465/465/465
f 466/466/466 467/467/467 468/468/468
f 469/469/469 470/470/470 471/471/471
f 472/472/472 473/473/473 474/474/474
f 475/475/475 476/476/476 477/477/477
f 478/478/478 479/479/479 480/480/480
f 481/481/481 482/482/482 483/483/483
f 484/484/484 485/485/485 486/486/486
f 487/487/487 488/488/488 489/489/489
f 490/490/490 491/491/491 492/492/492
f 493/493/493 494/494/494 495/495/495
f 496/496/496 497/497/497 498/498/498
f 499/499/499 500/500/500 501/501/501
f 502/502/502 503/503/503 504/504/504
f 505/505/505 506/506/506 507/507/507
f 508/508/508 509/509/509 510/510/510
f 511/511/511 512/512/512 513/513/513
f 514/514/514 515/515/515 516/516/516
f 517/517/517 518/518/518 519/519/519
f 520/520/520 521/521/521 522/522/522
f 523/523/523 524/524/524 525/525/525
f 526/526/526 527/527/527 528/528/528
f 529/529/529 530/530/530 531/531/531
f 532/532/532 533/533/533 534/534/534
f 535/535/535 536/536/536 537/537/537
f 538/538/538 539/539/539 540/540/540
f 541/541/541 542/542/542 543/543/543
f 544/544/544 545/545/545 546/546/546
f 547/547/547 548/548/548 549/549/549
f 550/550/550 551/551/551 552/552/552
f 553/553/553 554/554/554 555/555/555
f 556/556/556 557/557/557 558/558/558
f 559/559/559 560/560/560 561/561/561
f 562/562/562 563/563/563 564/564/564
f 565/565/565 566/566/566 567/567/567
f 568/568/568 569/569/569 570/570/570
f 571/571/571 572/572/572 573/573/573
f 574/574/574 575/575/575 576/576/576
f 577/577/577 578/578/578 579/579/579
f 580/580/580 581/581/581 582/582/582
f 583/583/583 584/584/584 585/585/585
f 586/586/586 587/587/587 588/588/588
f 589/589/589 590/590/590 591/591/591
f 592/592/592 593/593/593 594/594/594
f 595/595/595 596/596/596 597/597/597
f 598/598/598 599/599/599 600/600/600
f 601/601/601 602/602/602 603/603/603
f 604/604/604 605/605/605 606/606/606
f 607/607/607 608/608/608 609/609/609
f 610/610/610 611/611/611 612/612/612
f 613/613/613 614/614/614 615/615/615
f 616/616/616 617/617/617 618/618/618
f 619/619/619 620/620/620 621/621/621
f 622/622/622 623/623/623 624/624/624
f 625/625/625 626/626/626 627/627/627
f 628/628/628 629/629/629 630/630/630
f 631/631/631 632/632/632 633/633/633
f 634/634/634 635/635/635 636/636/636
f 637/637/637 638/638/638 639/639/639
f 640/640/640 641/641/641 642/642/642
f 643/643/643 644/644/644 645/645/645
f 646/646/646 647/647/647 648/648/648
f 649/649/649 650/650/650 651/651/651
f 652/652/652 653/653/653 654/654/654
f 655/655/655 656/656/656 657/657/657
f 658/658/658 659/659/659 660/660/660
f 661/661/661 662/662/662 663/663/663
f 664/664/664 665/665/665 666/666/666
f 667/667/667 668/668/668 669/669/669
f 670/670/670 671/671/671 672/672/672
f 673/673/673 674/674/674 675/675/675
f 676/676/676 677/677/677 678/678/678
f 679/679/679 680/680/680 681/681/681
f 682/682/682 683/683/683 684/684/684
f 685/685/685 686/686/686 687/687/687
f 688/688/688 689/689/689 690/690/690
f 691/691/691 692/692/692 693/693/693
f 694/694/694 695/695/695 696/696/696
f 697/697/697 698/698/698 699/699/699
f 700/700/700 701/701/701 702/702/702
f 703/703/703 704/704/704 705/705/705
f 706/706/706 707/707/707 708/708/708
f 709/709/709 710/710/710 711/711/711
f 712/712/712 713/713/713 714/714/714
f 715/715/715 716/716/716 717/717/717
f 718/718/718 719/719/719 720/720/720
f 721/721/721 722/722/722 723/723/723
f 724/724/724 725/725/725 726/726/726
f 727/727/727 728/728/728 729/729/729
f 727/727/727 729/729/729 728/728/728
f 727/727/727 729/729/729 730/730/730
f 727/727/727 730/730/730 729/729/729
f 727/727/727 730/730/730 731/731/731
f 727/727/727 731/731/731 730/730/730
f 727/727/727 731/731/731 732/732/732
f 727/727/727 732/732/732 731/731/731
f 727/727/727 732/732/732 733/733/733
f 727/727/727 733/733/733 732/732/732
f 727/727/727 733/733/733 734/734/734
f 727/727/727 734/734/734 733/733/733
f 727/727/727 734/734/734 735/735/735
f 727/727/727 735/735/735 734/734/734
f 727/727/727 735/735/735 736/736/736
f 727/727/727 736/736/736 735/735/735
f 727/727/727 736/736/736 737/737/737
f 727/727/727 737/737/737 736/736/736
f 727/727/727 737/737/737 738/738/738
f 727/727/727 738/738/738 737/737/737
f 727/727/727 738/738/738 739/739/739
f 727/727/727 739/739/739 738/738/738
f 727/727/727 739/739/739 740/740/740
f 727/727/727 740/740/740 739/739/739
f 727/727/727 740/740/740 741/741/741
f 727/727/727 741/741/741 740/740/740
f 727/727/727 741/741/741 742/742/742
f 727/727/727 742/742/742 741/741/741
f 727/727/727 742/742/742 743/743/743
f 727/727/727 743/743/743 742/742/742
f 727/727/727 743/743/743 744/744/744
f 727/727/727 744/744/744 743/743/743
f 727/727/727 744/744/744 745/745/745
f 727/727/727 745/745/745 744/744/744
f 727/727/727 745/745/745 746/746/746
f 727/727/727 746/746/746 745/745/745
f 727/727/727 746/746/746 747/747/747
f 727/727/727 747/747/747 746/746/746
f 727/727/727 747/747/747 728/728/728
f 727/727/727 728/728/728 747/747/747
f 748/748/748 749/749/749 750/750/750
f 748/748/748 750/750/750 749/749/749
f 748/748/748 750/750/750 751/751/751
f 748/748/748 751/751/751 750/750/750
f 748/748/748 751/751/751 752/752/752
f 748/748/748 752/752/752 751/751/751
f 748/748/748 752/752/752 753/753/753
f 748/748/748 753/753/753 752/752/752
f 748/748/748 753/753/753 754/754/754
f 748/748/748 754/754/754 753/753/753
f 748/748/748 754/754/754 755/755/755
f 748/748/748 755/755/755 754/754/754
f 748/748/748 755/755/755 756/756/756
f 748/748/748 756/756/756 755/755/755
f 748/748/748 756/756/756 757/757/757
f 748/748/748 757/757/757 756/756/756
f 748/748/748 757/757/757 758/758/758
f 748/748/748 758/758/758 757/757/757
f 748/748/748 758/758/758 759/759/759
f 748/748/748 759/759/759 758/758/758
f 748/748/748 759/759/759 760/760/760
f 748/748/748 760/760/760 759/759/759
f 748/748/748 760/760/760 761/761/761
f 748/748/748 761/761/761 760/760/760
f 748/748/748 761/761/761 762/762/762
f 748/748/748 762/762/762 761/761/761
f 748/748/748 762/762/762 763/763/763
f 748/748/748 763/763/763 762/762/762
f 748/748/748 763/763/763 764/764/764
f 748/748/748 764/764/764 763/763/763
f 748/748/748 764/764/764 765/765/765
f 748/748/748 765/765/765 764/764/764
f 748/748/748 765/765/765 766/766/766
f 748/748/748 766/766/766 765/765/765
f 748/748/748 766/766/766 767/767/767
f 748/748/748 767/767/767 766/766/766
f 748/748/748 767/767/767 768/768/768
f 748/748/748 768/768/768 767/767/767
f 748/748/748 768/768/768 769/769/769
f 748/748/748 769/769/769 768/768/768
f 748/748/748 769/769/769 770/770/770
f 748/748/748 770/770/770 769/769/769
f 748/748/748 770/770/770 771/771/771
f 748/748/748 771/771/771 770/770/770
f 748/748/748 771/771/771 772/772/772
f 748/748/748 772/772/772 771/771/771
f 748/748/748 772/772/772 773/773/773
f 748/748/748 773/773/773 772/772/772
f 748/748/748 773/773/773 774/774/774
f 748/748/748 774/774/774 773/773/773
f 748/748/748 774/774/774 775/775/775
f 748/748/748 775/775/775 774/774/774
f 748/748/748 775/775/775 776/776/776
f 748/748/748 776/776/776 775/775/775
f 748/748/748 776/776/776 777/777/777
f 748/748/748 777/777/777 776/776/776
f 748/748/748 777/777/777 778/778/778
f 748/748/748 778/778/778 777/777/777
f 748/748/748 778/778/778 779/779/779
f 748/748/748 779/779/779 778/778/778
f 748/748/748 779/779/779 780/780/780
f 748/748/748 780/780/780 779/779/779
f 748/748/748 780/780/780 781/781/781
f 748/748/748 781/781/781 780/780/780
f 748/748/748 781/781/781 782/782/782
f 748/748/748 782/782/782 781/781/781
f 748/748/748 782/782/782 783/783/783
f 748/748/748 783/783/783 782/782/782
f 748/748/748 783/783/783 784/784/784
f 748/748/748 784/784/784 783/783/783
f 748/748/748 784/784/784 785/785/785
f 748/748/748 785/785/785 784/784/784
f 748/748/748 785/785/785 786/786/786
f 748/748/748 786/786/786 785/785/785
f 748/748/748 786/786/786 749/749/749
f 748/748/748 749/749/749 786/786/786
