o forearm_left
v -1.00732 3.95402 -1.68095
v -0.96426 3.89656 -1.77646
v -0.93141 4.08180 -1.84058
v -1.00732 3.95402 -1.68095
v -0.93141 4.08180 -1.84058
v -1.10682 4.53043 -1.69038
v -0.93141 4.08180 -1.84058
v -0.96426 3.89656 -1.77646
v -1.03758 4.05524 -1.89677
v -1.00732 3.95402 -1.68095
v -1.07939 3.90677 -1.77362
v -0.96426 3.89656 -1.77646
v -1.03758 4.05524 -1.89677
v -0.96426 3.89656 -1.77646
v -1.07939 3.90677 -1.77362
v -1.00732 3.95402 -1.68095
v -1.10682 4.53043 -1.69038
v -1.17956 4.56244 -1.52879
v -0.93141 4.08180 -1.84058
v -1.14357 4.42453 -1.76164
v -1.10682 4.53043 -1.69038
v -0.93141 4.08180 -1.84058
v -1.03758 4.05524 -1.89677
v -1.14357 4.42453 -1.76164
v -1.07939 3.90677 -1.77362
v -1.00732 3.95402 -1.68095
v -1.19559 4.31390 -1.64930
v -1.00732 3.95402 -1.68095
v -1.17956 4.56244 -1.52879
v -1.19559 4.31390 -1.64930
v -1.13730 4.03599 -2.30856
v -1.18663 4.57151 -2.10780
v -1.12319 3.89363 -2.10067
v -1.13038 3.86597 -2.20408
v -1.13730 4.03599 -2.30856
v -1.12319 3.89363 -2.10067
v -1.03758 4.05524 -1.89677
v -1.07939 3.90677 -1.77362
v -1.19559 4.31390 -1.64930
v -1.12319 3.89363 -2.10067
v -1.18663 4.57151 -2.10780
v -1.12245 4.32715 -1.95368
v -1.14357 4.42453 -1.76164
v -1.03758 4.05524 -1.89677
v -1.19559 4.31390 -1.64930
v -1.16860 4.52941 -1.90838
v -1.12245 4.32715 -1.95368
v -1.18663 4.57151 -2.10780
v -1.13038 3.86597 -2.20408
v -1.12319 3.89363 -2.10067
v -1.23639 3.88276 -2.09741
v -1.18056 4.21596 -2.01009
v -1.12245 4.32715 -1.95368
v -1.30393 4.22170 -1.97879
v -1.12245 4.32715 -1.95368
v -1.23595 4.49894 -1.83000
v -1.30393 4.22170 -1.97879
v -1.13038 3.86597 -2.20408
v -1.23865 4.01081 -2.30661
v -1.13730 4.03599 -2.30856
v -1.13730 4.03599 -2.30856
v -1.23865 4.01081 -2.30661
v -1.18663 4.57151 -2.10780
v -1.12319 3.89363 -2.10067
v -1.12245 4.32715 -1.95368
v -1.19833 4.22115 -2.10527
v -1.31996 4.63320 -1.69642
v -1.17956 4.56244 -1.52879
v -1.10682 4.53043 -1.69038
v -1.17956 4.56244 -1.52879
v -1.19619 4.37114 -1.50298
v -1.19559 4.31390 -1.64930
v -1.12245 4.32715 -1.95368
v -1.18056 4.21596 -2.01009
v -1.19833 4.22115 -2.10527
v -1.16860 4.52941 -1.90838
v -1.23595 4.49894 -1.83000
v -1.12245 4.32715 -1.95368
v -1.24638 4.48759 -1.11555
v -1.22102 4.89594 -0.48735
v -1.27076 4.74654 -0.49589
v -1.16860 4.52941 -1.90838
v -1.32306 4.56083 -1.86842
v -1.23595 4.49894 -1.83000
v -1.23074 3.86596 -2.20059
v -1.23865 4.01081 -2.30661
v -1.13038 3.86597 -2.20408
v -1.14357 4.42453 -1.76164
v -1.20574 4.31138 -1.78111
v -1.10682 4.53043 -1.69038
v -1.14357 4.42453 -1.76164
v -1.19559 4.31390 -1.64930
v -1.20574 4.31138 -1.78111
v -1.13038 3.86597 -2.20408
v -1.23639 3.88276 -2.09741
v -1.23074 3.86596 -2.20059
v -1.23595 4.49894 -1.83000
v -1.20574 4.31138 -1.78111
v -1.30393 4.22170 -1.97879
v -1.27202 4.15132 -1.85515
v -1.30393 4.22170 -1.97879
v -1.20574 4.31138 -1.78111
v -1.23595 4.49894 -1.83000
v -1.10682 4.53043 -1.69038
v -1.20574 4.31138 -1.78111
v -1.22953 4.60533 -1.24411
v -1.27260 4.46549 -1.37896
v -1.22953 4.95442 -1.34729
v -1.31870 4.55386 -2.13790
v -1.16860 4.52941 -1.90838
v -1.18663 4.57151 -2.10780
v -1.38342 4.41233 -1.57936
v -1.19559 4.31390 -1.64930
v -1.19619 4.37114 -1.50298
v -1.37260 4.63263 -1.55360
v -1.19619 4.37114 -1.50298
v -1.17956 4.56244 -1.52879
v -1.24638 4.48759 -1.11555
v -1.27076 4.74654 -0.49589
v -1.32168 4.60050 -0.81677
v -1.31996 4.63320 -1.69642
v -1.10682 4.53043 -1.69038
v -1.32306 4.56083 -1.86842
v -1.27179 4.66020 -1.53810
v -1.22953 4.95442 -1.34729
v -1.27260 4.46549 -1.37896
v -1.31870 4.55386 -2.13790
v -1.32306 4.56083 -1.86842
v -1.16860 4.52941 -1.90838
v -1.37260 4.63263 -1.55360
v -1.17956 4.56244 -1.52879
v -1.31996 4.63320 -1.69642
v -1.10682 4.53043 -1.69038
v -1.23595 4.49894 -1.83000
v -1.32306 4.56083 -1.86842
v -1.27179 4.66020 -1.53810
v -1.37260 4.63263 -1.55360
v -1.22953 4.95442 -1.34729
v -1.18056 4.21596 -2.01009
v -1.30393 4.22170 -1.97879
v -1.19833 4.22115 -2.10527
v -1.19833 4.22115 -2.10527
v -1.23639 3.88276 -2.09741
v -1.12319 3.89363 -2.10067
v -1.23639 3.88276 -2.09741
v -1.23865 4.01081 -2.30661
v -1.23074 3.86596 -2.20059
v -1.18663 4.57151 -2.10780
v -1.23865 4.01081 -2.30661
v -1.31870 4.55386 -2.13790
v -1.13823 4.73094 -1.13197
v -1.24638 4.48759 -1.11555
v -1.22953 4.60533 -1.24411
v -1.19833 4.22115 -2.10527
v -1.35344 4.38927 -1.98008
v -1.23639 3.88276 -2.09741
v -1.22953 4.60533 -1.24411
v -1.24638 4.48759 -1.11555
v -1.31546 4.39859 -1.27334
v -1.23639 3.88276 -2.09741
v -1.35344 4.38927 -1.98008
v -1.23865 4.01081 -2.30661
v -1.38342 4.41233 -1.57936
v -1.20574 4.31138 -1.78111
v -1.19559 4.31390 -1.64930
v -1.35344 4.38927 -1.98008
v -1.19833 4.22115 -2.10527
v -1.30393 4.22170 -1.97879
v -1.27260 4.46549 -1.37896
v -1.37260 4.63263 -1.55360
v -1.27179 4.66020 -1.53810
v -1.35344 4.38927 -1.98008
v -1.31870 4.55386 -2.13790
v -1.23865 4.01081 -2.30661
v -1.46655 4.41416 -1.11610
v -1.31546 4.39859 -1.27334
v -1.24638 4.48759 -1.11555
v -1.19619 4.37114 -1.50298
v -1.37260 4.63263 -1.55360
v -1.38342 4.41233 -1.57936
v -1.27260 4.46549 -1.37896
v -1.38342 4.41233 -1.57936
v -1.37260 4.63263 -1.55360
v -1.31870 4.55386 -2.13790
v -1.35344 4.38927 -1.98008
v -1.32306 4.56083 -1.86842
v -1.32168 4.60050 -0.81677
v -1.46655 4.41416 -1.11610
v -1.24638 4.48759 -1.11555
v -1.32168 4.60050 -0.81677
v -1.27076 4.74654 -0.49589
v -1.41763 4.79162 -0.48822
v -1.31996 4.63320 -1.69642
v -1.32306 4.56083 -1.86842
v -1.37599 4.71350 -1.67936
v -1.31712 5.06541 -1.43130
v -1.37260 4.63263 -1.55360
v -1.31996 4.63320 -1.69642
v -1.39103 4.78490 -1.85158
v -1.37599 4.71350 -1.67936
v -1.32306 4.56083 -1.86842
v -1.31996 4.63320 -1.69642
v -1.37599 4.71350 -1.67936
v -1.31712 5.06541 -1.43130
v -1.46655 4.41416 -1.11610
v -1.45574 4.33254 -1.31519
v -1.31546 4.39859 -1.27334
v -1.36379 3.97140 -2.24812
v -1.38563 4.07844 -2.33699
v -1.36968 4.01481 -2.14743
v -1.27260 4.46549 -1.37896
v -1.22953 4.60533 -1.24411
v -1.45574 4.33254 -1.31519
v -1.32306 4.56083 -1.86842
v -1.42453 4.64937 -1.94707
v -1.39103 4.78490 -1.85158
v -1.31546 4.39859 -1.27334
v -1.45574 4.33254 -1.31519
v -1.22953 4.60533 -1.24411
v -1.38342 4.41233 -1.57936
v -1.27260 4.46549 -1.37896
v -1.56386 4.39627 -1.53924
v -1.45574 4.33254 -1.31519
v -1.46893 4.30378 -1.44346
v -1.27260 4.46549 -1.37896
v -1.27202 4.15132 -1.85515
v -1.20574 4.31138 -1.78111
v -1.38342 4.41233 -1.57936
v -1.42453 4.64937 -1.94707
v -1.32306 4.56083 -1.86842
v -1.35344 4.38927 -1.98008
v -1.38563 4.07844 -2.33699
v -1.44373 4.56552 -2.25067
v -1.36968 4.01481 -2.14743
v -1.42485 4.57397 -2.14775
v -1.36968 4.01481 -2.14743
v -1.44373 4.56552 -2.25067
v -1.36968 4.01481 -2.14743
v -1.42485 4.57397 -2.14775
v -1.42275 4.40374 -2.11486
v -1.57312 4.71489 -1.68142
v -1.31712 5.06541 -1.43130
v -1.37599 4.71350 -1.67936
v -1.35344 4.38927 -1.98008
v -1.42485 4.57397 -2.14775
v -1.42453 4.64937 -1.94707
v -1.45115 4.70395 -2.06271
v -1.42453 4.64937 -1.94707
v -1.42485 4.57397 -2.14775
v -1.32168 4.60050 -0.81677
v -1.41763 4.79162 -0.48822
v -1.42921 4.65367 -0.83905
v -1.42485 4.57397 -2.14775
v -1.35344 4.38927 -1.98008
v -1.42275 4.40374 -2.11486
v -1.44938 4.00122 -2.14841
v -1.45131 3.96260 -2.24270
v -1.36379 3.97140 -2.24812
v -1.46893 4.30378 -1.44346
v -1.56386 4.39627 -1.53924
v -1.27260 4.46549 -1.37896
v -1.62553 4.96913 -1.40221
v -1.31712 5.06541 -1.43130
v -1.57312 4.71489 -1.68142
v -1.44938 4.00122 -2.14841
v -1.36379 3.97140 -2.24812
v -1.36968 4.01481 -2.14743
v -1.44373 4.56552 -2.25067
v -1.38563 4.07844 -2.33699
v -1.50988 4.20588 -2.35942
v -1.41763 4.79162 -0.48822
v -1.48802 4.58812 -0.79154
v -1.42921 4.65367 -0.83905
v -1.41763 4.79162 -0.48822
v -1.45169 4.76240 -0.39440
v -1.48802 4.58812 -0.79154
v -1.36379 3.97140 -2.24812
v -1.45131 3.96260 -2.24270
v -1.38563 4.07844 -2.33699
v -1.50988 4.20588 -2.35942
v -1.56845 4.55897 -2.23996
v -1.44373 4.56552 -2.25067
v -1.42275 4.40374 -2.11486
v -1.35344 4.38927 -1.98008
v -1.54166 4.37316 -2.13014
v -1.30393 4.22170 -1.97879
v -1.87170 4.22292 -1.87455
v -1.35344 4.38927 -1.98008
v -1.38563 4.07844 -2.33699
v -1.45131 3.96260 -2.24270
v -1.50988 4.20588 -2.35942
v -1.44938 4.00122 -2.14841
v -1.36968 4.01481 -2.14743
v -1.42275 4.40374 -2.11486
v -1.42485 4.57397 -2.14775
v -1.57039 4.69590 -2.06991
v -1.45115 4.70395 -2.06271
v -1.57142 4.69919 -1.90486
v -1.39103 4.78490 -1.85158
v -1.42453 4.64937 -1.94707
v -1.46655 4.41416 -1.11610
v -1.32168 4.60050 -0.81677
v -1.42921 4.65367 -0.83905
v -1.44373 4.56552 -2.25067
v -1.56845 4.55897 -2.23996
v -1.42485 4.57397 -2.14775
v -1.42275 4.40374 -2.11486
v -1.54166 4.37316 -2.13014
v -1.44938 4.00122 -2.14841
v -1.44938 4.00122 -2.14841
v -1.56845 4.55897 -2.23996
v -1.45131 3.96260 -2.24270
v -1.50988 4.20588 -2.35942
v -1.45131 3.96260 -2.24270
v -1.56845 4.55897 -2.23996
v -1.48802 4.58812 -0.79154
v -1.72352 4.68062 -0.78238
v -1.42921 4.65367 -0.83905
v -1.45115 4.70395 -2.06271
v -1.57142 4.69919 -1.90486
v -1.42453 4.64937 -1.94707
v -1.56386 4.39627 -1.53924
v -1.27202 4.15132 -1.85515
v -1.38342 4.41233 -1.57936
v -1.35344 4.38927 -1.98008
v -1.59273 4.41150 -1.99535
v -1.54166 4.37316 -2.13014
v -1.54166 4.37316 -2.13014
v -1.56845 4.55897 -2.23996
v -1.44938 4.00122 -2.14841
v -1.35344 4.38927 -1.98008
v -1.60949 4.28739 -1.96387
v -1.59273 4.41150 -1.99535
v -1.42485 4.57397 -2.14775
v -1.56845 4.55897 -2.23996
v -1.58352 4.58211 -2.11218
v -1.35344 4.38927 -1.98008
v -1.87170 4.22292 -1.87455
v -1.60949 4.28739 -1.96387
v -1.57142 4.69919 -1.90486
v -1.45115 4.70395 -2.06271
v -1.57039 4.69590 -2.06991
v -1.58352 4.58211 -2.11218
v -1.57039 4.69590 -2.06991
v -1.42485 4.57397 -2.14775
v -1.54166 4.37316 -2.13014
v -1.59273 4.41150 -1.99535
v -1.56845 4.55897 -2.23996
v -1.56386 4.39627 -1.53924
v -1.46893 4.30378 -1.44346
v -1.61960 4.30312 -1.46385
v -1.57112 3.93038 -2.13771
v -1.68316 3.87073 -2.15130
v -1.58065 3.88602 -2.22060
v -1.46893 4.30378 -1.44346
v -1.45574 4.33254 -1.31519
v -1.61960 4.30312 -1.46385
v -1.48802 4.58812 -0.79154
v -1.45169 4.76240 -0.39440
v -1.72352 4.68062 -0.78238
v -1.62421 4.68131 -1.58035
v -1.62553 4.96913 -1.40221
v -1.57312 4.71489 -1.68142
v -1.85488 4.71903 -1.78460
v -1.37599 4.71350 -1.67936
v -1.39103 4.78490 -1.85158
v -1.85488 4.71903 -1.78460
v -1.57312 4.71489 -1.68142
v -1.37599 4.71350 -1.67936
v -1.39103 4.78490 -1.85158
v -1.57142 4.69919 -1.90486
v -1.85488 4.71903 -1.78460
v -1.27202 4.15132 -1.85515
v -1.87170 4.22292 -1.87455
v -1.30393 4.22170 -1.97879
v -1.64035 4.26855 -2.08941
v -1.57112 3.93038 -2.13771
v -1.58065 3.88602 -2.22060
v -1.58352 4.58211 -2.11218
v -1.56845 4.55897 -2.23996
v -1.61546 4.53295 -2.00101
v -1.58352 4.58211 -2.11218
v -1.61546 4.53295 -2.00101
v -1.57039 4.69590 -2.06991
v -1.57039 4.69590 -2.06991
v -1.61546 4.53295 -2.00101
v -1.57142 4.69919 -1.90486
v -1.75917 4.37790 -1.30429
v -1.45574 4.33254 -1.31519
v -1.46655 4.41416 -1.11610
v -1.42921 4.65367 -0.83905
v -1.84737 4.61590 -0.94400
v -1.46655 4.41416 -1.11610
v -1.59273 4.41150 -1.99535
v -1.61546 4.53295 -2.00101
v -1.56845 4.55897 -2.23996
v -1.64035 4.26855 -2.08941
v -1.59273 4.41150 -1.99535
v -1.60949 4.28739 -1.96387
v -1.61960 4.30312 -1.46385
v -1.65698 4.46895 -1.42380
v -1.56386 4.39627 -1.53924
v -1.59273 4.41150 -1.99535
v -1.64035 4.26855 -2.08941
v -1.66947 4.52837 -2.17319
v -1.58065 3.88602 -2.22060
v -1.66362 4.01672 -2.32909
v -1.64035 4.26855 -2.08941
v -1.65698 4.46895 -1.42380
v -1.89113 4.22838 -1.60764
v -1.56386 4.39627 -1.53924
v -1.57312 4.71489 -1.68142
v -1.81242 4.68432 -1.64139
v -1.62421 4.68131 -1.58035
v -1.61546 4.53295 -2.00101
v -1.59273 4.41150 -1.99535
v -1.66947 4.52837 -2.17319
v -1.58065 3.88602 -2.22060
v -1.80506 4.01488 -2.29037
v -1.66362 4.01672 -2.32909
v -1.61960 4.30312 -1.46385
v -1.45574 4.33254 -1.31519
v -1.65698 4.46895 -1.42380
v -1.45169 4.76240 -0.39440
v -1.68207 4.84056 -0.37913
v -1.72352 4.68062 -0.78238
v -1.66362 4.01672 -2.32909
v -1.66947 4.52837 -2.17319
v -1.64035 4.26855 -2.08941
v -1.27202 4.15132 -1.85515
v -1.56386 4.39627 -1.53924
v -1.89113 4.22838 -1.60764
v -1.68316 3.87073 -2.15130
v -1.80506 4.01488 -2.29037
v -1.58065 3.88602 -2.22060
v -1.85488 4.71903 -1.78460
v -1.81242 4.68432 -1.64139
v -1.57312 4.71489 -1.68142
v -1.87170 4.22292 -1.87455
v -1.27202 4.15132 -1.85515
v -1.78248 4.10829 -1.71656
v -1.79235 4.31190 -2.03533
v -1.57112 3.93038 -2.13771
v -1.64035 4.26855 -2.08941
v -1.60949 4.28739 -1.96387
v -1.79235 4.31190 -2.03533
v -1.64035 4.26855 -2.08941
v -1.46655 4.41416 -1.11610
v -1.84737 4.61590 -0.94400
v -1.75917 4.37790 -1.30429
v -1.45574 4.33254 -1.31519
v -1.75917 4.37790 -1.30429
v -1.65698 4.46895 -1.42380
v -1.42921 4.65367 -0.83905
v -1.72352 4.68062 -0.78238
v -1.84737 4.61590 -0.94400
v -1.65698 4.46895 -1.42380
v -1.75917 4.37790 -1.30429
v -1.73664 4.47356 -1.39479
v -1.81242 4.68432 -1.64139
v -1.62553 4.96913 -1.40221
v -1.62421 4.68131 -1.58035
v -1.83228 4.46178 -1.98886
v -1.57142 4.69919 -1.90486
v -1.61546 4.53295 -2.00101
v -1.89113 4.22838 -1.60764
v -1.78248 4.10829 -1.71656
v -1.27202 4.15132 -1.85515
v -1.57112 3.93038 -2.13771
v -1.79235 4.31190 -2.03533
v -1.68316 3.87073 -2.15130
v -1.66947 4.52837 -2.17319
v -1.80506 4.01488 -2.29037
v -1.79851 4.52743 -2.12582
v -1.65698 4.46895 -1.42380
v -1.84590 4.52839 -1.45418
v -1.89113 4.22838 -1.60764
v -1.65698 4.46895 -1.42380
v -1.73664 4.47356 -1.39479
v -1.84590 4.52839 -1.45418
v -1.61546 4.53295 -2.00101
v -1.66947 4.52837 -2.17319
v -1.79851 4.52743 -2.12582
v -1.60949 4.28739 -1.96387
v -1.87170 4.22292 -1.87455
v -1.79235 4.31190 -2.03533
v -1.66362 4.01672 -2.32909
v -1.80506 4.01488 -2.29037
v -1.66947 4.52837 -2.17319
v -1.57142 4.69919 -1.90486
v -1.86457 4.59827 -1.98625
v -1.85488 4.71903 -1.78460
v -1.79235 4.31190 -2.03533
v -1.80506 4.01488 -2.29037
v -1.68316 3.87073 -2.15130
v -1.79340 3.72364 -2.09590
v -1.81729 3.95171 -2.08577
v -1.85763 3.77989 -1.97508
v -1.79235 4.31190 -2.03533
v -1.87170 4.22292 -1.87455
v -1.84959 4.20856 -2.01037
v -1.83228 4.46178 -1.98886
v -1.61546 4.53295 -2.00101
v -1.79851 4.52743 -2.12582
v -1.84959 4.20856 -2.01037
v -1.87170 4.22292 -1.87455
v -1.97348 4.25967 -1.91244
v -1.83228 4.46178 -1.98886
v -1.86457 4.59827 -1.98625
v -1.57142 4.69919 -1.90486
v -1.77784 4.56562 -1.58406
v -1.84590 4.52839 -1.45418
v -1.81242 4.68432 -1.64139
v -1.86105 5.06901 -1.35562
v -1.62553 4.96913 -1.40221
v -1.81242 4.68432 -1.64139
v -1.72352 4.68062 -0.78238
v -1.85146 4.93047 -0.51429
v -1.84737 4.61590 -0.94400
v -1.79235 4.31190 -2.03533
v -1.83228 4.46178 -1.98886
v -1.79851 4.52743 -2.12582
v -1.83228 4.46178 -1.98886
v -1.79235 4.31190 -2.03533
v -1.89807 4.26612 -2.15719
v -1.75917 4.37790 -1.30429
v -1.84737 4.61590 -0.94400
v -1.86766 4.54450 -1.19078
v -1.79235 4.31190 -2.03533
v -1.84959 4.20856 -2.01037
v -1.89807 4.26612 -2.15719
v -1.79235 4.31190 -2.03533
v -1.79851 4.52743 -2.12582
v -1.80506 4.01488 -2.29037
v -1.73664 4.47356 -1.39479
v -1.86766 4.54450 -1.19078
v -1.90076 4.71950 -1.25784
v -1.81729 3.95171 -2.08577
v -1.79340 3.72364 -2.09590
v -1.86457 3.82063 -2.21769
v -1.89807 4.26612 -2.15719
v -1.87290 4.44642 -2.07493
v -1.83228 4.46178 -1.98886
v -1.75917 4.37790 -1.30429
v -1.86766 4.54450 -1.19078
v -1.73664 4.47356 -1.39479
v -1.81242 4.68432 -1.64139
v -1.85488 4.71903 -1.78460
v -1.77784 4.56562 -1.58406
v -1.78248 4.10829 -1.71656
v -1.89113 4.22838 -1.60764
v -1.87170 4.22292 -1.87455
v -1.81729 3.95171 -2.08577
v -1.89807 4.26612 -2.15719
v -1.84959 4.20856 -2.01037
v -1.84590 4.52839 -1.45418
v -1.73664 4.47356 -1.39479
v -1.90076 4.71950 -1.25784
v -1.86105 5.06901 -1.35562
v -1.81242 4.68432 -1.64139
v -1.84590 4.52839 -1.45418
v -1.85488 4.71903 -1.78460
v -1.86712 4.51948 -1.77209
v -1.77784 4.56562 -1.58406
v -1.81729 3.95171 -2.08577
v -1.92507 3.94916 -2.01980
v -1.85763 3.77989 -1.97508
v -2.02565 3.92909 -2.22478
v -1.86457 3.82063 -2.21769
v -1.79340 3.72364 -2.09590
v -1.79340 3.72364 -2.09590
v -1.85763 3.77989 -1.97508
v -2.02565 3.92909 -2.22478
v -1.81299 5.05070 -0.48475
v -1.86766 4.54450 -1.19078
v -1.84737 4.61590 -0.94400
v -1.86457 3.82063 -2.21769
v -1.89807 4.26612 -2.15719
v -1.81729 3.95171 -2.08577
v -1.86457 4.59827 -1.98625
v -1.83228 4.46178 -1.98886
v -1.86712 4.51948 -1.77209
v -1.86712 4.51948 -1.77209
v -1.85488 4.71903 -1.78460
v -1.86457 4.59827 -1.98625
v -1.77784 4.56562 -1.58406
v -1.86712 4.51948 -1.77209
v -1.93605 4.55120 -1.69221
v -1.84590 4.52839 -1.45418
v -1.90076 4.71950 -1.25784
v -1.86105 5.06901 -1.35562
v -1.84959 4.20856 -2.01037
v -1.97348 4.25967 -1.91244
v -1.81729 3.95171 -2.08577
v -1.83228 4.46178 -1.98886
v -1.94386 4.53640 -1.87865
v -1.86712 4.51948 -1.77209
v -1.77784 4.56562 -1.58406
v -1.93605 4.55120 -1.69221
v -1.84590 4.52839 -1.45418
v -1.92507 3.94916 -2.01980
v -1.81729 3.95171 -2.08577
v -1.97348 4.25967 -1.91244
v -1.86766 4.54450 -1.19078
v -1.86084 5.03196 -0.70608
v -1.90076 4.71950 -1.25784
v -1.87170 4.22292 -1.87455
v -1.89113 4.22838 -1.60764
v -1.94887 4.29928 -1.81512
v -1.85763 3.77989 -1.97508
v -1.92507 3.94916 -2.01980
v -2.02565 3.92909 -2.22478
v -1.89113 4.22838 -1.60764
v -1.84590 4.52839 -1.45418
v -1.93605 4.55120 -1.69221
v -1.87170 4.22292 -1.87455
v -1.94887 4.29928 -1.81512
v -1.97348 4.25967 -1.91244
v -1.89113 4.22838 -1.60764
v -1.93605 4.55120 -1.69221
v -1.94887 4.29928 -1.81512
v -2.02565 3.92909 -2.22478
v -1.89807 4.26612 -2.15719
v -1.86457 3.82063 -2.21769
v -1.86712 4.51948 -1.77209
v -1.94887 4.29928 -1.81512
v -1.93605 4.55120 -1.69221
v -1.94887 4.29928 -1.81512
v -1.86712 4.51948 -1.77209
v -1.94386 4.53640 -1.87865
v -1.83228 4.46178 -1.98886
v -2.03043 4.40148 -2.01116
v -1.94386 4.53640 -1.87865
v -1.92507 3.94916 -2.01980
v -1.97348 4.25967 -1.91244
v -2.03043 4.40148 -2.01116
v -1.83228 4.46178 -1.98886
v -1.87290 4.44642 -2.07493
v -2.03043 4.40148 -2.01116
v -1.94887 4.29928 -1.81512
v -1.94386 4.53640 -1.87865
v -2.03043 4.40148 -2.01116
v -1.89807 4.26612 -2.15719
v -2.03043 4.40148 -2.01116
v -1.87290 4.44642 -2.07493
v -1.92507 3.94916 -2.01980
v -2.03043 4.40148 -2.01116
v -2.02565 3.92909 -2.22478
v -1.97348 4.25967 -1.91244
v -1.94887 4.29928 -1.81512
v -2.03043 4.40148 -2.01116
v -1.89807 4.26612 -2.15719
v -2.02565 3.92909 -2.22478
v -2.03043 4.40148 -2.01116
v -1.54639 4.80626 -0.93534
v -1.24638 4.48759 -1.11555
v -1.22102 4.89594 -0.48735
v -1.27076 4.74654 -0.49589
v -1.41763 4.79162 -0.48822
v -1.45169 4.76240 -0.39440
v -1.68207 4.84056 -0.37913
v -1.72352 4.68062 -0.78238
v -1.85146 4.93047 -0.51429
v -1.84737 4.61590 -0.94400
v -1.81299 5.05070 -0.48475
v -1.86766 4.54450 -1.19078
v -1.86084 5.03196 -0.70608
v -1.90076 4.71950 -1.25784
v -1.86105 5.06901 -1.35562
v -1.62553 4.96913 -1.40221
v -1.31712 5.06541 -1.43130
v -1.37260 4.63263 -1.55360
v -1.22953 4.95442 -1.34729
v -1.22953 4.60533 -1.24411
v -1.13823 4.73094 -1.13197
vt 0.18027 0.04327
vt 0.17603 0.04294
vt 0.17751 0.03602
vt 0.83193 0.50265
vt 0.83871 0.50687
vt 0.83207 0.52423
vt 0.99235 0.48657
vt 0.98539 0.48571
vt 0.99213 0.48230
vt 0.76385 0.00008
vt 0.76735 0.00285
vt 0.76355 0.00432
vt 0.99213 0.48230
vt 0.98539 0.48571
vt 0.98522 0.48176
vt 0.14324 0.58516
vt 0.14933 0.60789
vt 0.14295 0.61133
vt 0.05704 0.62400
vt 0.05485 0.60763
vt 0.05854 0.60376
vt 0.19396 0.13894
vt 0.19712 0.13593
vt 0.20576 0.14755
vt 0.30698 0.11322
vt 0.31075 0.11509
vt 0.30607 0.12880
vt 0.11197 0.47632
vt 0.11197 0.45232
vt 0.11580 0.46178
vt 0.21305 0.25411
vt 0.19263 0.25411
vt 0.21524 0.24540
vt 0.21744 0.24852
vt 0.21305 0.25411
vt 0.21524 0.24540
vt 0.11739 0.13385
vt 0.11709 0.12684
vt 0.13131 0.13348
vt 0.21524 0.24540
vt 0.19263 0.25411
vt 0.19895 0.24569
vt 0.39095 0.12805
vt 0.37592 0.12805
vt 0.38912 0.12220
vt 0.97455 0.23036
vt 0.97455 0.23891
vt 0.96631 0.23030
vt 0.40658 0.99995
vt 0.40633 0.99614
vt 0.41038 0.99614
vt 0.16638 0.01534
vt 0.16919 0.01133
vt 0.16923 0.01883
vt 0.95322 0.19118
vt 0.95890 0.18336
vt 0.96002 0.19625
vt 0.76893 0.01551
vt 0.77536 0.01186
vt 0.77604 0.01551
vt 0.84913 0.93952
vt 0.85272 0.93856
vt 0.85171 0.95978
vt 0.34408 0.14917
vt 0.33090 0.15874
vt 0.33241 0.15179
vt 0.36560 0.17072
vt 0.35637 0.17131
vt 0.35849 0.16438
vt 0.92877 0.67980
vt 0.93346 0.67357
vt 0.93927 0.67608
vt 0.98056 0.58627
vt 0.98500 0.58420
vt 0.98767 0.58638
vt 0.95792 0.91577
vt 0.95362 0.91629
vt 0.95706 0.90726
vt 0.14376 0.42196
vt 0.16941 0.42099
vt 0.16649 0.42554
vt 0.98589 0.43699
vt 0.99211 0.43901
vt 0.98792 0.44082
vt 0.76897 0.01194
vt 0.77536 0.01186
vt 0.76893 0.01551
vt 0.84497 0.04882
vt 0.83990 0.04746
vt 0.85023 0.04785
vt 0.67423 0.99858
vt 0.67963 0.99466
vt 0.67930 0.99997
vt 0.40658 0.99995
vt 0.41038 0.99614
vt 0.41015 0.99986
vt 0.02530 0.43304
vt 0.02904 0.43999
vt 0.02104 0.44527
vt 0.49000 0.02413
vt 0.48509 0.02572
vt 0.48801 0.01776
vt 0.02530 0.43304
vt 0.03254 0.43026
vt 0.02904 0.43999
vt 0.86594 0.16143
vt 0.87382 0.16278
vt 0.85678 0.17284
vt 0.95847 0.40075
vt 0.95234 0.40997
vt 0.95308 0.40177
vt 0.09797 0.05377
vt 0.10407 0.06037
vt 0.09797 0.06207
vt 0.56229 0.05219
vt 0.57310 0.04524
vt 0.57060 0.05263
vt 0.39857 0.92915
vt 0.37155 0.92987
vt 0.38558 0.92692
vt 0.36560 0.17072
vt 0.35849 0.16438
vt 0.36982 0.16451
vt 0.87103 0.17251
vt 0.85683 0.17292
vt 0.87382 0.16278
vt 0.95837 0.40068
vt 0.95870 0.41152
vt 0.95234 0.40997
vt 0.36304 0.17629
vt 0.35637 0.17131
vt 0.36560 0.17072
vt 0.03254 0.43026
vt 0.02530 0.43304
vt 0.02122 0.43096
vt 0.73076 0.13590
vt 0.73256 0.13976
vt 0.71656 0.13608
vt 0.03841 0.00714
vt 0.03430 0.00525
vt 0.04004 0.00410
vt 0.78490 0.07847
vt 0.77278 0.07847
vt 0.77362 0.07451
vt 0.88215 0.50302
vt 0.87353 0.50163
vt 0.87975 0.50016
vt 0.11770 0.40685
vt 0.11770 0.43088
vt 0.11259 0.40838
vt 0.56966 0.80164
vt 0.58187 0.79872
vt 0.57810 0.80276
vt 0.89693 0.80037
vt 0.90157 0.79233
vt 0.90219 0.81128
vt 0.57765 0.80224
vt 0.58194 0.79883
vt 0.58930 0.80170
vt 0.88215 0.50302
vt 0.87347 0.51988
vt 0.87353 0.50163
vt 0.09797 0.05377
vt 0.10877 0.05789
vt 0.10407 0.06037
vt 0.63048 0.04473
vt 0.62761 0.03591
vt 0.63261 0.03892
vt 0.95005 0.21857
vt 0.94004 0.22182
vt 0.93998 0.21757
vt 0.33692 0.91287
vt 0.33598 0.90367
vt 0.35754 0.91195
vt 0.94727 0.46781
vt 0.95596 0.46645
vt 0.95420 0.47402
vt 0.57310 0.04524
vt 0.56229 0.05219
vt 0.56495 0.04366
vt 0.26654 0.04531
vt 0.26362 0.03631
vt 0.27255 0.03666
vt 0.33594 0.90364
vt 0.33692 0.91287
vt 0.32868 0.91170
vt 0.04579 0.84112
vt 0.03045 0.84112
vt 0.03528 0.83341
vt 0.17022 0.18305
vt 0.18729 0.18205
vt 0.18794 0.18941
vt 0.36560 0.17072
vt 0.36982 0.16451
vt 0.36749 0.17424
vt 0.10805 0.99651
vt 0.10333 0.97890
vt 0.10879 0.97612
vt 0.37482 0.17253
vt 0.36749 0.17424
vt 0.36982 0.16451
vt 0.86704 0.33565
vt 0.86489 0.33227
vt 0.86942 0.31538
vt 0.94727 0.46781
vt 0.95257 0.46095
vt 0.95596 0.46645
vt 0.53546 0.98475
vt 0.53112 0.98726
vt 0.53449 0.98097
vt 0.06573 0.29818
vt 0.07038 0.29179
vt 0.07063 0.30628
vt 0.04502 0.55345
vt 0.05126 0.55415
vt 0.05079 0.56094
vt 0.45785 0.05632
vt 0.45564 0.06240
vt 0.45460 0.04796
vt 0.13981 0.10693
vt 0.14454 0.09873
vt 0.14489 0.11239
vt 0.07063 0.30628
vt 0.06611 0.30863
vt 0.06573 0.29818
vt 0.40940 0.26339
vt 0.41181 0.26961
vt 0.40424 0.27648
vt 0.05126 0.55415
vt 0.04502 0.55345
vt 0.04509 0.54512
vt 0.53112 0.98726
vt 0.51439 0.98142
vt 0.53449 0.98097
vt 0.82560 0.57411
vt 0.82560 0.55150
vt 0.82982 0.57385
vt 0.82894 0.65182
vt 0.82894 0.62921
vt 0.83039 0.63604
vt 0.85702 0.33128
vt 0.86942 0.31538
vt 0.86489 0.33227
vt 0.90747 0.78119
vt 0.91496 0.78847
vt 0.90714 0.79211
vt 0.91201 0.79408
vt 0.90714 0.79211
vt 0.91496 0.78847
vt 0.17022 0.18305
vt 0.18794 0.18941
vt 0.16984 0.18890
vt 0.91496 0.78847
vt 0.90747 0.78119
vt 0.91358 0.78163
vt 0.99986 0.14788
vt 0.99986 0.15151
vt 0.99672 0.15151
vt 0.00086 0.87323
vt 0.00613 0.86939
vt 0.00494 0.88297
vt 0.85641 0.31597
vt 0.86942 0.31538
vt 0.85702 0.33128
vt 0.99986 0.14788
vt 0.99672 0.15151
vt 0.99699 0.14761
vt 0.51651 0.99029
vt 0.53654 0.99099
vt 0.53094 0.99554
vt 0.62497 0.29098
vt 0.60712 0.29156
vt 0.60737 0.28676
vt 0.62497 0.29098
vt 0.62771 0.29516
vt 0.60712 0.29156
vt 0.89727 0.04327
vt 0.89700 0.04640
vt 0.89227 0.04303
vt 0.53094 0.99554
vt 0.51576 0.99528
vt 0.51651 0.99029
vt 0.95524 0.09570
vt 0.94969 0.09311
vt 0.95940 0.09296
vt 0.88287 0.56894
vt 0.87792 0.58878
vt 0.87694 0.56908
vt 0.89227 0.04303
vt 0.89700 0.04640
vt 0.88719 0.04690
vt 0.00458 0.32672
vt 0.00171 0.32687
vt 0.00049 0.31291
vt 0.98699 0.13584
vt 0.99395 0.13139
vt 0.99332 0.13617
vt 0.71091 0.20763
vt 0.71825 0.20372
vt 0.71677 0.21036
vt 0.10863 0.84685
vt 0.10926 0.83152
vt 0.11394 0.83302
vt 0.37215 0.00744
vt 0.37717 0.00700
vt 0.37210 0.01167
vt 0.00049 0.31291
vt 0.00489 0.31307
vt 0.00458 0.32672
vt 0.30145 0.22880
vt 0.32201 0.22880
vt 0.30067 0.23234
vt 0.31012 0.23504
vt 0.30067 0.23234
vt 0.32201 0.22880
vt 0.01594 0.69850
vt 0.01107 0.70963
vt 0.01240 0.69525
vt 0.96182 0.02072
vt 0.95712 0.02718
vt 0.95656 0.02074
vt 0.39764 0.27646
vt 0.40943 0.26339
vt 0.40424 0.27648
vt 0.95364 0.70866
vt 0.95364 0.69897
vt 0.95936 0.70081
vt 0.51456 0.31267
vt 0.50837 0.30648
vt 0.52969 0.31575
vt 0.92968 0.06323
vt 0.94079 0.06323
vt 0.93825 0.06776
vt 0.37210 0.01167
vt 0.37717 0.00700
vt 0.37864 0.01206
vt 0.29268 0.97932
vt 0.27037 0.97932
vt 0.28170 0.97767
vt 0.98035 0.28364
vt 0.97389 0.28833
vt 0.97371 0.28352
vt 0.98933 0.12972
vt 0.99395 0.13139
vt 0.98699 0.13584
vt 0.51456 0.31267
vt 0.51122 0.31766
vt 0.50837 0.30648
vt 0.18012 0.99518
vt 0.18201 1.00000
vt 0.17704 0.99873
vt 0.99759 0.47650
vt 0.99369 0.47418
vt 0.99801 0.47316
vt 0.59077 0.02482
vt 0.59429 0.02819
vt 0.58606 0.02786
vt 0.51188 0.96872
vt 0.53278 0.96872
vt 0.51312 0.98068
vt 0.58272 0.15640
vt 0.58673 0.14338
vt 0.58687 0.15872
vt 0.14790 0.21602
vt 0.14041 0.19777
vt 0.14790 0.19698
vt 0.14790 0.21602
vt 0.14186 0.20557
vt 0.14041 0.19777
vt 0.71825 0.20372
vt 0.71091 0.20763
vt 0.69920 0.20348
vt 0.83180 0.30538
vt 0.83842 0.28495
vt 0.83698 0.30542
vt 0.40790 0.17419
vt 0.40765 0.16179
vt 0.41040 0.15986
vt 0.50590 0.31113
vt 0.50837 0.30648
vt 0.50648 0.31616
vt 0.50590 0.31113
vt 0.50648 0.31616
vt 0.50099 0.31127
vt 0.50099 0.31127
vt 0.50648 0.31616
vt 0.49866 0.31749
vt 0.93032 0.09609
vt 0.93032 0.08476
vt 0.93820 0.08586
vt 0.11394 0.83302
vt 0.12714 0.84438
vt 0.10863 0.84685
vt 0.51122 0.31766
vt 0.50648 0.31616
vt 0.50837 0.30648
vt 0.93551 0.62800
vt 0.94043 0.62281
vt 0.94077 0.62800
vt 0.98304 0.90785
vt 0.99007 0.90785
vt 0.98543 0.91260
vt 0.94043 0.62281
vt 0.93551 0.62800
vt 0.93328 0.61718
vt 0.41040 0.15986
vt 0.41542 0.16434
vt 0.40790 0.17419
vt 0.30291 0.13578
vt 0.28751 0.13578
vt 0.30113 0.12937
vt 0.14186 0.20557
vt 0.14176 0.21541
vt 0.13802 0.20837
vt 0.94055 0.61784
vt 0.94043 0.62281
vt 0.93333 0.61713
vt 0.53380 0.01701
vt 0.54190 0.01198
vt 0.54053 0.01701
vt 0.71757 0.03003
vt 0.72611 0.03281
vt 0.71622 0.03693
vt 0.53278 0.96872
vt 0.53406 0.98035
vt 0.51322 0.98084
vt 0.41542 0.16434
vt 0.41197 0.18304
vt 0.40790 0.17419
vt 0.40942 0.26339
vt 0.39764 0.27647
vt 0.38633 0.26945
vt 0.53356 0.01260
vt 0.54188 0.01195
vt 0.53380 0.01701
vt 0.14790 0.21602
vt 0.14176 0.21541
vt 0.14186 0.20557
vt 0.83842 0.28495
vt 0.83186 0.30541
vt 0.83096 0.28656
vt 0.08286 0.84740
vt 0.06752 0.84249
vt 0.07991 0.84224
vt 0.59372 0.02241
vt 0.58614 0.02487
vt 0.58962 0.01912
vt 0.10863 0.84685
vt 0.12710 0.84458
vt 0.11636 0.85861
vt 0.51807 0.19772
vt 0.50832 0.19012
vt 0.51512 0.18742
vt 0.11394 0.83302
vt 0.12566 0.83594
vt 0.12714 0.84437
vt 0.51512 0.18742
vt 0.50832 0.19012
vt 0.51196 0.18619
vt 0.22705 0.32275
vt 0.21832 0.33703
vt 0.21912 0.32344
vt 0.76295 0.13406
vt 0.74840 0.13517
vt 0.75459 0.13022
vt 0.38633 0.26945
vt 0.39057 0.26395
vt 0.40944 0.26345
vt 0.06752 0.84249
vt 0.08286 0.84740
vt 0.06621 0.84673
vt 0.39198 0.04137
vt 0.41351 0.04514
vt 0.39196 0.04690
vt 0.47212 0.09934
vt 0.47212 0.10740
vt 0.45847 0.10648
vt 0.51512 0.18742
vt 0.51196 0.18621
vt 0.51014 0.18107
vt 0.22879 0.02820
vt 0.22939 0.02097
vt 0.23486 0.02166
vt 0.94631 0.08607
vt 0.95594 0.08920
vt 0.94954 0.09233
vt 0.08252 0.09692
vt 0.07735 0.09635
vt 0.08308 0.07793
vt 0.71091 0.20763
vt 0.69915 0.21294
vt 0.69920 0.20348
vt 0.07811 0.35722
vt 0.06600 0.36412
vt 0.06142 0.35716
vt 0.97945 0.53950
vt 0.97284 0.53470
vt 0.98024 0.53430
vt 0.98817 0.10703
vt 0.98104 0.10703
vt 0.98501 0.10411
vt 0.23790 0.02709
vt 0.22879 0.02820
vt 0.23486 0.02166
vt 0.94673 0.00450
vt 0.95071 0.00161
vt 0.95259 0.00523
vt 0.14968 0.13202
vt 0.15489 0.13412
vt 0.15131 0.14651
vt 0.44116 0.04635
vt 0.43812 0.05162
vt 0.43821 0.04173
vt 0.22732 0.34210
vt 0.21831 0.33703
vt 0.22705 0.32275
vt 0.48944 0.22414
vt 0.50667 0.23118
vt 0.48113 0.23011
vt 0.97059 0.43336
vt 0.97198 0.43959
vt 0.96623 0.44170
vt 0.41819 0.04309
vt 0.42470 0.04318
vt 0.42667 0.04964
vt 0.45269 0.98332
vt 0.44969 0.96584
vt 0.45538 0.97451
vt 0.57863 0.00150
vt 0.58210 0.00402
vt 0.57723 0.00730
vt 0.07811 0.35722
vt 0.08488 0.36183
vt 0.06595 0.36402
vt 0.22369 0.09434
vt 0.23344 0.09152
vt 0.23607 0.09859
vt 0.89740 0.56586
vt 0.89642 0.55775
vt 0.90179 0.56063
vt 0.42667 0.04964
vt 0.41918 0.04672
vt 0.41828 0.04301
vt 0.22456 0.08906
vt 0.23344 0.09152
vt 0.22369 0.09434
vt 0.07593 0.90446
vt 0.07172 0.89995
vt 0.08141 0.90430
vt 0.72323 0.01339
vt 0.72323 0.02033
vt 0.71568 0.01453
vt 0.89740 0.56586
vt 0.90221 0.57666
vt 0.89648 0.57540
vt 0.56350 0.81916
vt 0.56359 0.82456
vt 0.55244 0.81817
vt 0.68781 0.69042
vt 0.68697 0.67106
vt 0.69683 0.67022
vt 0.07172 0.89995
vt 0.07882 0.89612
vt 0.08141 0.90430
vt 0.98735 0.91594
vt 0.99163 0.91733
vt 0.98856 0.92326
vt 0.94648 0.63186
vt 0.94147 0.62712
vt 0.94147 0.62103
vt 0.94147 0.62103
vt 0.94660 0.61983
vt 0.94666 0.63177
vt 0.25267 0.90863
vt 0.21771 0.90666
vt 0.22765 0.90376
vt 0.90179 0.56063
vt 0.90221 0.57666
vt 0.89740 0.56586
vt 0.07157 0.89048
vt 0.07615 0.88749
vt 0.07882 0.89612
vt 0.07882 0.89612
vt 0.07172 0.89995
vt 0.07157 0.89048
vt 0.80868 0.02549
vt 0.81133 0.03365
vt 0.80695 0.03303
vt 0.69683 0.67022
vt 0.69921 0.68117
vt 0.68781 0.69042
vt 0.90813 0.22405
vt 0.90248 0.22577
vt 0.91081 0.21484
vt 0.17504 0.02659
vt 0.17973 0.03175
vt 0.17609 0.03565
vt 0.95197 0.62344
vt 0.94754 0.62977
vt 0.94734 0.61949
vt 0.90632 0.21460
vt 0.91081 0.21484
vt 0.90248 0.22577
vt 0.21771 0.90666
vt 0.24467 0.91283
vt 0.21916 0.91411
vt 0.71568 0.01453
vt 0.72323 0.02033
vt 0.71535 0.01883
vt 0.86476 0.46726
vt 0.87041 0.46372
vt 0.87657 0.46906
vt 0.11289 0.10103
vt 0.12640 0.09880
vt 0.12399 0.10880
vt 0.99123 0.55293
vt 0.99537 0.55373
vt 0.99309 0.55656
vt 0.11289 0.10103
vt 0.12399 0.10880
vt 0.11287 0.11002
vt 0.04617 0.66455
vt 0.05128 0.65254
vt 0.05179 0.66857
vt 0.32735 0.06965
vt 0.32573 0.07912
vt 0.32319 0.06812
vt 0.19171 0.14150
vt 0.20027 0.14585
vt 0.19685 0.14993
vt 0.47180 0.01541
vt 0.46568 0.02106
vt 0.46536 0.01272
vt 0.87041 0.46372
vt 0.87489 0.45278
vt 0.88116 0.45116
vt 0.47165 0.01520
vt 0.47245 0.01895
vt 0.46573 0.02113
vt 0.19171 0.14150
vt 0.19685 0.14993
vt 0.18853 0.15039
vt 0.96939 0.70934
vt 0.97620 0.70258
vt 0.97743 0.70951
vt 0.87041 0.46372
vt 0.88120 0.45122
vt 0.87657 0.46906
vt 0.18779 0.14302
vt 0.19180 0.14155
vt 0.18837 0.15030
vt 0.96793 0.57676
vt 0.98070 0.57449
vt 0.96547 0.58487
vt 0.61836 0.11303
vt 0.61836 0.11303
vt 0.61836 0.11303
vt 0.61836 0.11303
vt 0.61836 0.11303
vt 0.61836 0.11303
vt 0.61836 0.11303
vt 0.61836 0.11303
vt 0.61836 0.11303
vt 0.61836 0.11303
vt 0.61836 0.11303
vt 0.61836 0.11303
vt 0.61836 0.11303
vt 0.61836 0.11303
vt 0.61836 0.11303
vt 0.61836 0.11303
vt 0.61836 0.11303
vt 0.61836 0.11303
vt 0.61836 0.11303
vt 0.61836 0.11303
vt 0.61836 0.11303
vn 0.2574 -0.4174 0.8715
vn 0.5943 -0.7994 -0.0883
vn 0.9248 0.1198 -0.3611
vn 0.2574 -0.4174 0.8715
vn 0.9248 0.1198 -0.3611
vn 0.8160 0.5513 -0.1738
vn 0.9248 0.1198 -0.3611
vn 0.5943 -0.7994 -0.0883
vn -0.2038 -0.1124 -0.9725
vn 0.2574 -0.4174 0.8715
vn -0.6185 -0.7801 -0.0947
vn 0.5943 -0.7994 -0.0883
vn -0.2038 -0.1124 -0.9725
vn 0.5943 -0.7994 -0.0883
vn -0.6185 -0.7801 -0.0947
vn 0.2574 -0.4174 0.8715
vn 0.8160 0.5513 -0.1738
vn 0.5090 0.5187 0.6869
vn 0.9248 0.1198 -0.3611
vn -0.3509 0.4327 -0.8305
vn 0.8160 0.5513 -0.1738
vn 0.9248 0.1198 -0.3611
vn -0.2038 -0.1124 -0.9725
vn -0.3509 0.4327 -0.8305
vn -0.6185 -0.7801 -0.0947
vn 0.2574 -0.4174 0.8715
vn -0.5318 -0.7863 0.3145
vn 0.2574 -0.4174 0.8715
vn 0.5090 0.5187 0.6869
vn -0.5318 -0.7863 0.3145
vn 0.6179 0.0090 -0.7862
vn 0.4917 0.7925 -0.3608
vn 0.6512 -0.4481 0.6125
vn 0.5935 -0.7375 -0.3222
vn 0.6179 0.0090 -0.7862
vn 0.6512 -0.4481 0.6125
vn -0.2038 -0.1124 -0.9725
vn -0.6185 -0.7801 -0.0947
vn -0.5318 -0.7863 0.3145
vn 0.6512 -0.4481 0.6125
vn 0.4917 0.7925 -0.3608
vn 0.8505 -0.2552 0.4600
vn -0.3509 0.4327 -0.8305
vn -0.2038 -0.1124 -0.9725
vn -0.5318 -0.7863 0.3145
vn 0.7119 0.6134 0.3418
vn 0.8505 -0.2552 0.4600
vn 0.4917 0.7925 -0.3608
vn 0.5935 -0.7375 -0.3222
vn 0.6512 -0.4481 0.6125
vn -0.5224 -0.5915 0.6141
vn 0.5094 -0.8189 0.2645
vn 0.8505 -0.2552 0.4600
vn -0.0097 -0.8120 -0.5836
vn 0.8505 -0.2552 0.4600
vn 0.9180 0.3770 -0.1232
vn -0.0097 -0.8120 -0.5836
vn 0.5935 -0.7375 -0.3222
vn -0.5504 -0.1999 -0.8106
vn 0.6179 0.0090 -0.7862
vn 0.6179 0.0090 -0.7862
vn -0.5504 -0.1999 -0.8106
vn 0.4917 0.7925 -0.3608
vn 0.6512 -0.4481 0.6125
vn 0.8505 -0.2552 0.4600
vn -0.1079 -0.5647 0.8182
vn 0.6875 0.7038 -0.1787
vn 0.5090 0.5187 0.6869
vn 0.8160 0.5513 -0.1738
vn 0.5090 0.5187 0.6869
vn 0.4110 -0.5095 0.7560
vn -0.5318 -0.7863 0.3145
vn 0.8505 -0.2552 0.4600
vn 0.5094 -0.8189 0.2645
vn -0.1079 -0.5647 0.8182
vn 0.7119 0.6134 0.3418
vn 0.9180 0.3770 -0.1232
vn 0.8505 -0.2552 0.4600
vn 0.7310 -0.6589 0.1775
vn 0.6621 0.1684 0.7302
vn 0.3998 -0.5952 0.6971
vn 0.7119 0.6134 0.3418
vn 0.5525 0.7542 -0.3549
vn 0.9180 0.3770 -0.1232
vn -0.5714 -0.7619 -0.3049
vn -0.5504 -0.1999 -0.8106
vn 0.5935 -0.7375 -0.3222
vn -0.3509 0.4327 -0.8305
vn 0.8662 -0.4957 -0.0635
vn 0.8160 0.5513 -0.1738
vn -0.3509 0.4327 -0.8305
vn -0.5318 -0.7863 0.3145
vn 0.8662 -0.4957 -0.0635
vn 0.5935 -0.7375 -0.3222
vn -0.5224 -0.5915 0.6141
vn -0.5714 -0.7619 -0.3049
vn 0.9180 0.3770 -0.1232
vn 0.8662 -0.4957 -0.0635
vn -0.0097 -0.8120 -0.5836
vn 0.5533 -0.8330 0.0036
vn -0.0097 -0.8120 -0.5836
vn 0.8662 -0.4957 -0.0635
vn 0.9180 0.3770 -0.1232
vn 0.8160 0.5513 -0.1738
vn 0.8662 -0.4957 -0.0635
vn 0.9034 -0.3332 -0.2700
vn 0.8410 -0.5373 -0.0638
vn 0.5798 0.1277 -0.8047
vn -0.5343 0.6439 -0.5477
vn 0.7119 0.6134 0.3418
vn 0.4917 0.7925 -0.3608
vn 0.1477 -0.8014 0.5796
vn -0.5318 -0.7863 0.3145
vn 0.4110 -0.5095 0.7560
vn 0.9680 0.2234 -0.1144
vn 0.4110 -0.5095 0.7560
vn 0.5090 0.5187 0.6869
vn 0.7310 -0.6589 0.1775
vn 0.3998 -0.5952 0.6971
vn -0.1053 -0.8838 0.4559
vn 0.6875 0.7038 -0.1787
vn 0.8160 0.5513 -0.1738
vn 0.5525 0.7542 -0.3549
vn 0.6060 0.0134 -0.7954
vn 0.5798 0.1277 -0.8047
vn 0.8410 -0.5373 -0.0638
vn -0.5343 0.6439 -0.5477
vn 0.5525 0.7542 -0.3549
vn 0.7119 0.6134 0.3418
vn 0.9680 0.2234 -0.1144
vn 0.5090 0.5187 0.6869
vn 0.6875 0.7038 -0.1787
vn 0.8160 0.5513 -0.1738
vn 0.9180 0.3770 -0.1232
vn 0.5525 0.7542 -0.3549
vn 0.6060 0.0134 -0.7954
vn 0.9680 0.2234 -0.1144
vn 0.5798 0.1277 -0.8047
vn 0.5094 -0.8189 0.2645
vn -0.0097 -0.8120 -0.5836
vn -0.1079 -0.5647 0.8182
vn -0.1079 -0.5647 0.8182
vn -0.5224 -0.5915 0.6141
vn 0.6512 -0.4481 0.6125
vn -0.5224 -0.5915 0.6141
vn -0.5504 -0.1999 -0.8106
vn -0.5714 -0.7619 -0.3049
vn 0.4917 0.7925 -0.3608
vn -0.5504 -0.1999 -0.8106
vn -0.5343 0.6439 -0.5477
vn 0.8957 -0.4365 0.0848
vn 0.7310 -0.6589 0.1775
vn 0.9034 -0.3332 -0.2700
vn -0.1079 -0.5647 0.8182
vn -0.4698 -0.2998 -0.8303
vn -0.5224 -0.5915 0.6141
vn 0.9034 -0.3332 -0.2700
vn 0.7310 -0.6589 0.1775
vn 0.6043 -0.6558 -0.4525
vn -0.5224 -0.5915 0.6141
vn -0.4698 -0.2998 -0.8303
vn -0.5504 -0.1999 -0.8106
vn 0.1477 -0.8014 0.5796
vn 0.8662 -0.4957 -0.0635
vn -0.5318 -0.7863 0.3145
vn -0.4698 -0.2998 -0.8303
vn -0.1079 -0.5647 0.8182
vn -0.0097 -0.8120 -0.5836
vn 0.8410 -0.5373 -0.0638
vn 0.9680 0.2234 -0.1144
vn 0.6060 0.0134 -0.7954
vn -0.4698 -0.2998 -0.8303
vn -0.5343 0.6439 -0.5477
vn -0.5504 -0.1999 -0.8106
vn 0.0269 -0.8766 0.4804
vn 0.6043 -0.6558 -0.4525
vn 0.7310 -0.6589 0.1775
vn 0.4110 -0.5095 0.7560
vn 0.9680 0.2234 -0.1144
vn 0.1477 -0.8014 0.5796
vn 0.8410 -0.5373 -0.0638
vn 0.1477 -0.8014 0.5796
vn 0.9680 0.2234 -0.1144
vn -0.5343 0.6439 -0.5477
vn -0.4698 -0.2998 -0.8303
vn 0.5525 0.7542 -0.3549
vn -0.1053 -0.8838 0.4559
vn 0.0269 -0.8766 0.4804
vn 0.7310 -0.6589 0.1775
vn -0.1053 -0.8838 0.4559
vn 0.3998 -0.5952 0.6971
vn 0.5884 -0.6560 0.4727
vn 0.6875 0.7038 -0.1787
vn 0.5525 0.7542 -0.3549
vn 0.4506 0.7410 -0.4979
vn 0.4572 0.4231 -0.7823
vn 0.9680 0.2234 -0.1144
vn 0.6875 0.7038 -0.1787
vn 0.4516 0.8539 -0.2587
vn 0.4506 0.7410 -0.4979
vn 0.5525 0.7542 -0.3549
vn 0.6875 0.7038 -0.1787
vn 0.4506 0.7410 -0.4979
vn 0.4572 0.4231 -0.7823
vn 0.0269 -0.8766 0.4804
vn 0.1853 -0.9565 0.2252
vn 0.6043 -0.6558 -0.4525
vn 0.6940 -0.6858 -0.2193
vn 0.5611 -0.2305 -0.7950
vn 0.6749 -0.3671 0.6401
vn 0.8410 -0.5373 -0.0638
vn 0.9034 -0.3332 -0.2700
vn 0.1853 -0.9565 0.2252
vn 0.5525 0.7542 -0.3549
vn 0.7177 0.5623 -0.4107
vn 0.4516 0.8539 -0.2587
vn 0.6043 -0.6558 -0.4525
vn 0.1853 -0.9565 0.2252
vn 0.9034 -0.3332 -0.2700
vn 0.1477 -0.8014 0.5796
vn 0.8410 -0.5373 -0.0638
vn 0.1165 -0.9828 0.1430
vn 0.1853 -0.9565 0.2252
vn 0.3754 -0.8555 -0.3567
vn 0.8410 -0.5373 -0.0638
vn 0.5533 -0.8330 0.0036
vn 0.8662 -0.4957 -0.0635
vn 0.1477 -0.8014 0.5796
vn 0.7177 0.5623 -0.4107
vn 0.5525 0.7542 -0.3549
vn -0.4698 -0.2998 -0.8303
vn 0.5611 -0.2305 -0.7950
vn 0.4754 0.6692 -0.5711
vn 0.6749 -0.3671 0.6401
vn 0.7462 0.5441 -0.3836
vn 0.6749 -0.3671 0.6401
vn 0.4754 0.6692 -0.5711
vn 0.6749 -0.3671 0.6401
vn 0.7462 0.5441 -0.3836
vn 0.8939 -0.3804 0.2372
vn -0.2105 0.9531 -0.2176
vn 0.4572 0.4231 -0.7823
vn 0.4506 0.7410 -0.4979
vn -0.4698 -0.2998 -0.8303
vn 0.7462 0.5441 -0.3836
vn 0.7177 0.5623 -0.4107
vn 0.4953 0.8056 -0.3251
vn 0.7177 0.5623 -0.4107
vn 0.7462 0.5441 -0.3836
vn -0.1053 -0.8838 0.4559
vn 0.5884 -0.6560 0.4727
vn -0.1187 -0.9219 0.3687
vn 0.7462 0.5441 -0.3836
vn -0.4698 -0.2998 -0.8303
vn 0.8939 -0.3804 0.2372
vn -0.4833 -0.5636 0.6699
vn -0.5006 -0.8455 -0.1857
vn 0.6940 -0.6858 -0.2193
vn 0.3754 -0.8555 -0.3567
vn 0.1165 -0.9828 0.1430
vn 0.8410 -0.5373 -0.0638
vn -0.2008 0.3321 -0.9216
vn 0.4572 0.4231 -0.7823
vn -0.2105 0.9531 -0.2176
vn -0.4833 -0.5636 0.6699
vn 0.6940 -0.6858 -0.2193
vn 0.6749 -0.3671 0.6401
vn 0.4754 0.6692 -0.5711
vn 0.5611 -0.2305 -0.7950
vn -0.5770 -0.0675 -0.8140
vn 0.5884 -0.6560 0.4727
vn 0.1547 -0.9605 -0.2312
vn -0.1187 -0.9219 0.3687
vn 0.5884 -0.6560 0.4727
vn 0.3154 -0.7089 0.6308
vn 0.1547 -0.9605 -0.2312
vn 0.6940 -0.6858 -0.2193
vn -0.5006 -0.8455 -0.1857
vn 0.5611 -0.2305 -0.7950
vn -0.5770 -0.0675 -0.8140
vn -0.6388 0.5351 -0.5528
vn 0.4754 0.6692 -0.5711
vn 0.8939 -0.3804 0.2372
vn -0.4698 -0.2998 -0.8303
vn -0.8079 -0.5659 0.1647
vn -0.0097 -0.8120 -0.5836
vn -0.3035 -0.9434 -0.1341
vn -0.4698 -0.2998 -0.8303
vn 0.5611 -0.2305 -0.7950
vn -0.5006 -0.8455 -0.1857
vn -0.5770 -0.0675 -0.8140
vn -0.4833 -0.5636 0.6699
vn 0.6749 -0.3671 0.6401
vn 0.8939 -0.3804 0.2372
vn 0.7462 0.5441 -0.3836
vn -0.5470 0.7072 -0.4479
vn 0.4953 0.8056 -0.3251
vn -0.2362 0.8147 -0.5296
vn 0.4516 0.8539 -0.2587
vn 0.7177 0.5623 -0.4107
vn 0.0269 -0.8766 0.4804
vn -0.1053 -0.8838 0.4559
vn -0.1187 -0.9219 0.3687
vn 0.4754 0.6692 -0.5711
vn -0.6388 0.5351 -0.5528
vn 0.7462 0.5441 -0.3836
vn 0.8939 -0.3804 0.2372
vn -0.8079 -0.5659 0.1647
vn -0.4833 -0.5636 0.6699
vn -0.4833 -0.5636 0.6699
vn -0.6388 0.5351 -0.5528
vn -0.5006 -0.8455 -0.1857
vn -0.5770 -0.0675 -0.8140
vn -0.5006 -0.8455 -0.1857
vn -0.6388 0.5351 -0.5528
vn 0.1547 -0.9605 -0.2312
vn -0.2678 -0.8691 0.4159
vn -0.1187 -0.9219 0.3687
vn 0.4953 0.8056 -0.3251
vn -0.2362 0.8147 -0.5296
vn 0.7177 0.5623 -0.4107
vn 0.1165 -0.9828 0.1430
vn 0.5533 -0.8330 0.0036
vn 0.1477 -0.8014 0.5796
vn -0.4698 -0.2998 -0.8303
vn 0.3254 -0.5749 -0.7508
vn -0.8079 -0.5659 0.1647
vn -0.8079 -0.5659 0.1647
vn -0.6388 0.5351 -0.5528
vn -0.4833 -0.5636 0.6699
vn -0.4698 -0.2998 -0.8303
vn 0.4598 -0.8869 -0.0443
vn 0.3254 -0.5749 -0.7508
vn 0.7462 0.5441 -0.3836
vn -0.6388 0.5351 -0.5528
vn -0.7627 0.4871 -0.4254
vn -0.4698 -0.2998 -0.8303
vn -0.3035 -0.9434 -0.1341
vn 0.4598 -0.8869 -0.0443
vn -0.2362 0.8147 -0.5296
vn 0.4953 0.8056 -0.3251
vn -0.5470 0.7072 -0.4479
vn -0.7627 0.4871 -0.4254
vn -0.5470 0.7072 -0.4479
vn 0.7462 0.5441 -0.3836
vn -0.8079 -0.5659 0.1647
vn 0.3254 -0.5749 -0.7508
vn -0.6388 0.5351 -0.5528
vn 0.1165 -0.9828 0.1430
vn 0.3754 -0.8555 -0.3567
vn -0.6471 -0.7466 -0.1546
vn 0.7970 -0.2678 0.5413
vn -0.3268 -0.8695 0.3704
vn 0.6445 -0.6563 -0.3923
vn 0.3754 -0.8555 -0.3567
vn 0.1853 -0.9565 0.2252
vn -0.6471 -0.7466 -0.1546
vn 0.1547 -0.9605 -0.2312
vn 0.3154 -0.7089 0.6308
vn -0.2678 -0.8691 0.4159
vn -0.3540 0.8207 -0.4485
vn -0.2008 0.3321 -0.9216
vn -0.2105 0.9531 -0.2176
vn -0.6900 0.7235 0.0178
vn 0.4506 0.7410 -0.4979
vn 0.4516 0.8539 -0.2587
vn -0.6900 0.7235 0.0178
vn -0.2105 0.9531 -0.2176
vn 0.4506 0.7410 -0.4979
vn 0.4516 0.8539 -0.2587
vn -0.2362 0.8147 -0.5296
vn -0.6900 0.7235 0.0178
vn 0.5533 -0.8330 0.0036
vn -0.3035 -0.9434 -0.1341
vn -0.0097 -0.8120 -0.5836
vn 0.9325 -0.2824 0.2252
vn 0.7970 -0.2678 0.5413
vn 0.6445 -0.6563 -0.3923
vn -0.7627 0.4871 -0.4254
vn -0.6388 0.5351 -0.5528
vn -0.5704 0.6133 -0.5464
vn -0.7627 0.4871 -0.4254
vn -0.5704 0.6133 -0.5464
vn -0.5470 0.7072 -0.4479
vn -0.5470 0.7072 -0.4479
vn -0.5704 0.6133 -0.5464
vn -0.2362 0.8147 -0.5296
vn -0.5449 -0.8189 -0.1801
vn 0.1853 -0.9565 0.2252
vn 0.0269 -0.8766 0.4804
vn -0.1187 -0.9219 0.3687
vn -0.7359 -0.5552 0.3876
vn 0.0269 -0.8766 0.4804
vn 0.3254 -0.5749 -0.7508
vn -0.5704 0.6133 -0.5464
vn -0.6388 0.5351 -0.5528
vn 0.9325 -0.2824 0.2252
vn 0.3254 -0.5749 -0.7508
vn 0.4598 -0.8869 -0.0443
vn -0.6471 -0.7466 -0.1546
vn -0.4220 -0.9047 0.0584
vn 0.1165 -0.9828 0.1430
vn 0.3254 -0.5749 -0.7508
vn 0.9325 -0.2824 0.2252
vn 0.3800 0.6562 -0.6520
vn 0.6445 -0.6563 -0.3923
vn 0.3403 -0.1103 -0.9338
vn 0.9325 -0.2824 0.2252
vn -0.4220 -0.9047 0.0584
vn -0.5800 -0.5896 0.5621
vn 0.1165 -0.9828 0.1430
vn -0.2105 0.9531 -0.2176
vn -0.8643 0.4828 -0.1412
vn -0.3540 0.8207 -0.4485
vn -0.5704 0.6133 -0.5464
vn 0.3254 -0.5749 -0.7508
vn 0.3800 0.6562 -0.6520
vn 0.6445 -0.6563 -0.3923
vn -0.8010 -0.3090 -0.5127
vn 0.3403 -0.1103 -0.9338
vn -0.6471 -0.7466 -0.1546
vn 0.1853 -0.9565 0.2252
vn -0.4220 -0.9047 0.0584
vn 0.3154 -0.7089 0.6308
vn -0.6456 -0.3600 0.6735
vn -0.2678 -0.8691 0.4159
vn 0.3403 -0.1103 -0.9338
vn 0.3800 0.6562 -0.6520
vn 0.9325 -0.2824 0.2252
vn 0.5533 -0.8330 0.0036
vn 0.1165 -0.9828 0.1430
vn -0.5800 -0.5896 0.5621
vn -0.3268 -0.8695 0.3704
vn -0.8010 -0.3090 -0.5127
vn 0.6445 -0.6563 -0.3923
vn -0.6900 0.7235 0.0178
vn -0.8643 0.4828 -0.1412
vn -0.2105 0.9531 -0.2176
vn -0.3035 -0.9434 -0.1341
vn 0.5533 -0.8330 0.0036
vn -0.1703 -0.9589 0.2272
vn -0.0905 -0.9135 -0.3965
vn 0.7970 -0.2678 0.5413
vn 0.9325 -0.2824 0.2252
vn 0.4598 -0.8869 -0.0443
vn -0.0905 -0.9135 -0.3965
vn 0.9325 -0.2824 0.2252
vn 0.0269 -0.8766 0.4804
vn -0.7359 -0.5552 0.3876
vn -0.5449 -0.8189 -0.1801
vn 0.1853 -0.9565 0.2252
vn -0.5449 -0.8189 -0.1801
vn -0.4220 -0.9047 0.0584
vn -0.1187 -0.9219 0.3687
vn -0.2678 -0.8691 0.4159
vn -0.7359 -0.5552 0.3876
vn -0.4220 -0.9047 0.0584
vn -0.5449 -0.8189 -0.1801
vn -0.5250 -0.7228 -0.4494
vn -0.8643 0.4828 -0.1412
vn -0.2008 0.3321 -0.9216
vn -0.3540 0.8207 -0.4485
vn -0.4090 0.6662 -0.6236
vn -0.2362 0.8147 -0.5296
vn -0.5704 0.6133 -0.5464
vn -0.5800 -0.5896 0.5621
vn -0.1703 -0.9589 0.2272
vn 0.5533 -0.8330 0.0036
vn 0.7970 -0.2678 0.5413
vn -0.0905 -0.9135 -0.3965
vn -0.3268 -0.8695 0.3704
vn 0.3800 0.6562 -0.6520
vn -0.8010 -0.3090 -0.5127
vn -0.6549 0.6873 -0.3143
vn -0.4220 -0.9047 0.0584
vn -0.8938 -0.2742 0.3548
vn -0.5800 -0.5896 0.5621
vn -0.4220 -0.9047 0.0584
vn -0.5250 -0.7228 -0.4494
vn -0.8938 -0.2742 0.3548
vn -0.5704 0.6133 -0.5464
vn 0.3800 0.6562 -0.6520
vn -0.6549 0.6873 -0.3143
vn 0.4598 -0.8869 -0.0443
vn -0.3035 -0.9434 -0.1341
vn -0.0905 -0.9135 -0.3965
vn 0.3403 -0.1103 -0.9338
vn -0.8010 -0.3090 -0.5127
vn 0.3800 0.6562 -0.6520
vn -0.2362 0.8147 -0.5296
vn -0.6060 0.2811 -0.7441
vn -0.6900 0.7235 0.0178
vn -0.0905 -0.9135 -0.3965
vn -0.8010 -0.3090 -0.5127
vn -0.3268 -0.8695 0.3704
vn 0.5235 -0.8501 -0.0568
vn 0.9747 0.1343 0.1789
vn 0.0102 -0.4981 0.8670
vn -0.0905 -0.9135 -0.3965
vn -0.3035 -0.9434 -0.1341
vn 0.8998 -0.3842 0.2067
vn -0.4090 0.6662 -0.6236
vn -0.5704 0.6133 -0.5464
vn -0.6549 0.6873 -0.3143
vn 0.8998 -0.3842 0.2067
vn -0.3035 -0.9434 -0.1341
vn -0.7511 -0.5037 0.4268
vn -0.4090 0.6662 -0.6236
vn -0.6060 0.2811 -0.7441
vn -0.2362 0.8147 -0.5296
vn -0.9198 0.3648 -0.1443
vn -0.8938 -0.2742 0.3548
vn -0.8643 0.4828 -0.1412
vn -0.5842 0.5339 -0.6113
vn -0.2008 0.3321 -0.9216
vn -0.8643 0.4828 -0.1412
vn -0.2678 -0.8691 0.4159
vn -0.8507 -0.1620 0.5000
vn -0.7359 -0.5552 0.3876
vn -0.0905 -0.9135 -0.3965
vn -0.4090 0.6662 -0.6236
vn -0.6549 0.6873 -0.3143
vn -0.4090 0.6662 -0.6236
vn -0.0905 -0.9135 -0.3965
vn 0.2612 0.2846 -0.9224
vn -0.5449 -0.8189 -0.1801
vn -0.7359 -0.5552 0.3876
vn -0.9121 -0.4089 -0.0298
vn -0.0905 -0.9135 -0.3965
vn 0.8998 -0.3842 0.2067
vn 0.2612 0.2846 -0.9224
vn -0.0905 -0.9135 -0.3965
vn -0.6549 0.6873 -0.3143
vn -0.8010 -0.3090 -0.5127
vn -0.5250 -0.7228 -0.4494
vn -0.9121 -0.4089 -0.0298
vn -0.9897 -0.1136 -0.0875
vn 0.9747 0.1343 0.1789
vn 0.5235 -0.8501 -0.0568
vn 0.2567 -0.4778 -0.8401
vn 0.2612 0.2846 -0.9224
vn 0.2647 0.7180 -0.6438
vn -0.4090 0.6662 -0.6236
vn -0.5449 -0.8189 -0.1801
vn -0.9121 -0.4089 -0.0298
vn -0.5250 -0.7228 -0.4494
vn -0.8643 0.4828 -0.1412
vn -0.6900 0.7235 0.0178
vn -0.9198 0.3648 -0.1443
vn -0.1703 -0.9589 0.2272
vn -0.5800 -0.5896 0.5621
vn -0.3035 -0.9434 -0.1341
vn 0.9747 0.1343 0.1789
vn 0.2612 0.2846 -0.9224
vn 0.8998 -0.3842 0.2067
vn -0.8938 -0.2742 0.3548
vn -0.5250 -0.7228 -0.4494
vn -0.9897 -0.1136 -0.0875
vn -0.5842 0.5339 -0.6113
vn -0.8643 0.4828 -0.1412
vn -0.8938 -0.2742 0.3548
vn -0.6900 0.7235 0.0178
vn -0.8601 0.5061 -0.0641
vn -0.9198 0.3648 -0.1443
vn 0.9747 0.1343 0.1789
vn -0.3618 -0.1415 0.9214
vn 0.0102 -0.4981 0.8670
vn -0.7706 -0.2374 -0.5915
vn 0.2567 -0.4778 -0.8401
vn 0.5235 -0.8501 -0.0568
vn 0.5235 -0.8501 -0.0568
vn 0.0102 -0.4981 0.8670
vn -0.7706 -0.2374 -0.5915
vn -0.4961 0.3387 0.7994
vn -0.9121 -0.4089 -0.0298
vn -0.7359 -0.5552 0.3876
vn 0.2567 -0.4778 -0.8401
vn 0.2612 0.2846 -0.9224
vn 0.9747 0.1343 0.1789
vn -0.6060 0.2811 -0.7441
vn -0.4090 0.6662 -0.6236
vn -0.8601 0.5061 -0.0641
vn -0.8601 0.5061 -0.0641
vn -0.6900 0.7235 0.0178
vn -0.6060 0.2811 -0.7441
vn -0.9198 0.3648 -0.1443
vn -0.8601 0.5061 -0.0641
vn -0.7206 0.6830 -0.1191
vn -0.8938 -0.2742 0.3548
vn -0.9897 -0.1136 -0.0875
vn -0.5842 0.5339 -0.6113
vn 0.8998 -0.3842 0.2067
vn -0.7511 -0.5037 0.4268
vn 0.9747 0.1343 0.1789
vn -0.4090 0.6662 -0.6236
vn -0.4625 0.8844 0.0627
vn -0.8601 0.5061 -0.0641
vn -0.9198 0.3648 -0.1443
vn -0.7206 0.6830 -0.1191
vn -0.8938 -0.2742 0.3548
vn -0.3618 -0.1415 0.9214
vn 0.9747 0.1343 0.1789
vn -0.7511 -0.5037 0.4268
vn -0.9121 -0.4089 -0.0298
vn -0.9820 0.0711 0.1749
vn -0.9897 -0.1136 -0.0875
vn -0.3035 -0.9434 -0.1341
vn -0.5800 -0.5896 0.5621
vn -0.9154 -0.3169 0.2483
vn 0.0102 -0.4981 0.8670
vn -0.3618 -0.1415 0.9214
vn -0.7706 -0.2374 -0.5915
vn -0.5800 -0.5896 0.5621
vn -0.8938 -0.2742 0.3548
vn -0.7206 0.6830 -0.1191
vn -0.3035 -0.9434 -0.1341
vn -0.9154 -0.3169 0.2483
vn -0.7511 -0.5037 0.4268
vn -0.5800 -0.5896 0.5621
vn -0.7206 0.6830 -0.1191
vn -0.9154 -0.3169 0.2483
vn -0.7706 -0.2374 -0.5915
vn 0.2612 0.2846 -0.9224
vn 0.2567 -0.4778 -0.8401
vn -0.8601 0.5061 -0.0641
vn -0.9154 -0.3169 0.2483
vn -0.7206 0.6830 -0.1191
vn -0.9154 -0.3169 0.2483
vn -0.8601 0.5061 -0.0641
vn -0.4625 0.8844 0.0627
vn -0.4090 0.6662 -0.6236
vn -0.8858 0.4054 -0.2259
vn -0.4625 0.8844 0.0627
vn -0.3618 -0.1415 0.9214
vn -0.7511 -0.5037 0.4268
vn -0.8858 0.4054 -0.2259
vn -0.4090 0.6662 -0.6236
vn 0.2647 0.7180 -0.6438
vn -0.8858 0.4054 -0.2259
vn -0.9154 -0.3169 0.2483
vn -0.4625 0.8844 0.0627
vn -0.8858 0.4054 -0.2259
vn 0.2612 0.2846 -0.9224
vn -0.8858 0.4054 -0.2259
vn 0.2647 0.7180 -0.6438
vn -0.3618 -0.1415 0.9214
vn -0.8858 0.4054 -0.2259
vn -0.7706 -0.2374 -0.5915
vn -0.7511 -0.5037 0.4268
vn -0.9154 -0.3169 0.2483
vn -0.8858 0.4054 -0.2259
vn 0.2612 0.2846 -0.9224
vn -0.7706 -0.2374 -0.5915
vn -0.8858 0.4054 -0.2259
vn 0.0000 1.0000 0.0000
vn 0.0000 1.0000 0.0000
vn 0.0000 1.0000 0.0000
vn 0.0000 1.0000 0.0000
vn 0.0000 1.0000 0.0000
vn 0.0000 1.0000 0.0000
vn 0.0000 1.0000 0.0000
vn 0.0000 1.0000 0.0000
vn 0.0000 1.0000 0.0000
vn 0.0000 1.0000 0.0000
vn 0.0000 1.0000 0.0000
vn 0.0000 1.0000 0.0000
vn 0.0000 1.0000 0.0000
vn 0.0000 1.0000 0.0000
vn 0.0000 1.0000 0.0000
vn 0.0000 1.0000 0.0000
vn 0.0000 1.0000 0.0000
vn 0.0000 1.0000 0.0000
vn 0.0000 1.0000 0.0000
vn 0.0000 1.0000 0.0000
vn 0.0000 1.0000 0.0000
f 1/1/1 2/2/2 3/3/3
f 4/4/4 5/5/5 6/6/6
f 7/7/7 8/8/8 9/9/9
f 10/10/10 11/11/11 12/12/12
f 13/13/13 14/14/14 15/15/15
f 16/16/16 17/17/17 18/18/18
f 19/19/19 20/20/20 21/21/21
f 22/22/22 23/23/23 24/24/24
f 25/25/25 26/26/26 27/27/27
f 28/28/28 29/29/29 30/30/30
f 31/31/31 32/32/32 33/33/33
f 34/34/34 35/35/35 36/36/36
f 37/37/37 38/38/38 39/39/39
f 40/40/40 41/41/41 42/42/42
f 43/43/43 44/44/44 45/45/45
f 46/46/46 47/47/47 48/48/48
f 49/49/49 50/50/50 51/51/51
f 52/52/52 53/53/53 54/54/54
f 55/55/55 56/56/56 57/57/57
f 58/58/58 59/59/59 60/60/60
f 61/61/61 62/62/62 63/63/63
f 64/64/64 65/65/65 66/66/66
f 67/67/67 68/68/68 69/69/69
f 70/70/70 71/71/71 72/72/72
f 73/73/73 74/74/74 75/75/75
f 76/76/76 77/77/77 78/78/78
f 79/79/79 80/80/80 81/81/81
f 82/82/82 83/83/83 84/84/84
f 85/85/85 86/86/86 87/87/87
f 88/88/88 89/89/89 90/90/90
f 91/91/91 92/92/92 93/93/93
f 94/94/94 95/95/95 96/96/96
f 97/97/97 98/98/98 99/99/99
f 100/100/100 101/101/101 102/102/102
f 103/103/103 104/104/104 105/105/105
f 106/106/106 107/107/107 108/108/108
f 109/109/109 110/110/110 111/111/111
f 112/112/112 113/113/113 114/114/114
f 115/115/115 116/116/116 117/117/117
f 118/118/118 119/119/119 120/120/120
f 121/121/121 122/122/122 123/123/123
f 124/124/124 125/125/125 126/126/126
f 127/127/127 128/128/128 129/129/129
f 130/130/130 131/131/131 132/132/132
f 133/133/133 134/134/134 135/135/135
f 136/136/136 137/137/137 138/138/138
f 139/139/139 140/140/140 141/141/141
f 142/142/142 143/143/143 144/144/144
f 145/145/145 146/146/146 147/147/147
f 148/148/148 149/149/149 150/150/150
f 151/151/151 152/152/152 153/153/153
f 154/154/154 155/155/155 156/156/156
f 157/157/157 158/158/158 159/159/159
f 160/160/160 161/161/161 162/162/162
f 163/163/163 164/164/164 165/165/165
f 166/166/166 167/167/167 168/168/168
f 169/169/169 170/170/170 171/171/171
f 172/172/172 173/173/173 174/174/174
f 175/175/175 176/176/176 177/177/177
f 178/178/178 179/179/179 180/180/180
f 181/181/181 182/182/182 183/183/183
f 184/184/184 185/185/185 186/186/186
f 187/187/187 188/188/188 189/189/189
f 190/190/190 191/191/191 192/192/192
f 193/193/193 194/194/194 195/195/195
f 196/196/196 197/197/197 198/198/198
f 199/199/199 200/200/200 201/201/201
f 202/202/202 203/203/203 204/204/204
f 205/205/205 206/206/206 207/207/207
f 208/208/208 209/209/209 210/210/210
f 211/211/211 212/212/212 213/213/213
f 214/214/214 215/215/215 216/216/216
f 217/217/217 218/218/218 219/219/219
f 220/220/220 221/221/221 222/222/222
f 223/223/223 224/224/224 225/225/225
f 226/226/226 227/227/227 228/228/228
f 229/229/229 230/230/230 231/231/231
f 232/232/232 233/233/233 234/234/234
f 235/235/235 236/236/236 237/237/237
f 238/238/238 239/239/239 240/240/240
f 241/241/241 242/242/242 243/243/243
f 244/244/244 245/245/245 246/246/246
f 247/247/247 248/248/248 249/249/249
f 250/250/250 251/251/251 252/252/252
f 253/253/253 254/254/254 255/255/255
f 256/256/256 257/257/257 258/258/258
f 259/259/259 260/260/260 261/261/261
f 262/262/262 263/263/263 264/264/264
f 265/265/265 266/266/266 267/267/267
f 268/268/268 269/269/269 270/270/270
f 271/271/271 272/272/272 273/273/273
f 274/274/274 275/275/275 276/276/276
f 277/277/277 278/278/278 279/279/279
f 280/280/280 281/281/281 282/282/282
f 283/283/283 284/284/284 285/285/285
f 286/286/286 287/287/287 288/288/288
f 289/289/289 290/290/290 291/291/291
f 292/292/292 293/293/293 294/294/294
f 295/295/295 296/296/296 297/297/297
f 298/298/298 299/299/299 300/300/300
f 301/301/301 302/302/302 303/303/303
f 304/304/304 305/305/305 306/306/306
f 307/307/307 308/308/308 309/309/309
f 310/310/310 311/311/311 312/312/312
f 313/313/313 314/314/314 315/315/315
f 316/316/316 317/317/317 318/318/318
f 319/319/319 320/320/320 321/321/321
f 322/322/322 323/323/323 324/324/324
f 325/325/325 326/326/326 327/327/327
f 328/328/328 329/329/329 330/330/330
f 331/331/331 332/332/332 333/333/333
f 334/334/334 335/335/335 336/336/336
f 337/337/337 338/338/338 339/339/339
f 340/340/340 341/341/341 342/342/342
f 343/343/343 344/344/344 345/345/345
f 346/346/346 347/347/347 348/348/348
f 349/349/349 350/350/350 351/351/351
f 352/352/352 353/353/353 354/354/354
f 355/355/355 356/356/356 357/357/357
f 358/358/358 359/359/359 360/360/360
f 361/361/361 362/362/362 363/363/363
f 364/364/364 365/365/365 366/366/366
f 367/367/367 368/368/368 369/369/369
f 370/370/370 371/371/371 372/372/372
f 373/373/373 374/374/374 375/375/375
f 376/376/376 377/377/377 378/378/378
f 379/379/379 380/380/380 381/381/381
f 382/382/382 383/383/383 384/384/384
f 385/385/385 386/386/386 387/387/387
f 388/388/388 389/389/389 390/390/390
f 391/391/391 392/392/392 393/393/393
f 394/394/394 395/395/395 396/396/396
f 397/397/397 398/398/398 399/399/399
f 400/400/400 401/401/401 402/402/402
f 403/403/403 404/404/404 405/405/405
f 406/406/406 407/407/407 408/408/408
f 409/409/409 410/410/410 411/411/411
f 412/412/412 413/413/413 414/414/414
f 415/415/415 416/416/416 417/417/417
f 418/418/418 419/419/419 420/420/420
f 421/421/421 422/422/422 423/423/423
f 424/424/424 425/425/425 426/426/426
f 427/427/427 428/428/428 429/429/429
f 430/430/430 431/431/431 432/432/432
f 433/433/433 434/434/434 435/435/435
f 436/436/436 437/437/437 438/438/438
f 439/439/439 440/440/440 441/441/441
f 442/442/442 443/443/443 444/444/444
f 445/445/445 446/446/446 447/447/447
f 448/448/448 449/449/449 450/450/450
f 451/451/451 452/452/452 453/453/453
f 454/454/454 455/455/455 456/456/456
f 457/457/457 458/458/458 459/459/459
f 460/460/460 461/461/461 462/462/462
f 463/463/463 464/464/464 465/465/465
f 466/466/466 467/467/467 468/468/468
f 469/469/469 470/470/470 471/471/471
f 472/472/472 473/473/473 474/474/474
f 475/475/475 476/476/476 477/477/477
f 478/478/478 479/479/479 480/480/480
f 481/481/481 482/482/482 483/483/483
f 484/484/484 485/485/485 486/486/486
f 487/487/487 488/488/488 489/489/489
f 490/490/490 491/491/491 492/492/492
f 493/493/493 494/494/494 495/495/495
f 496/496/496 497/497/497 498/498/498
f 499/499/499 500/500/500 501/501/501
f 502/502/502 503/503/503 504/504/504
f 505/505/505 506/506/506 507/507/507
f 508/508/508 509/509/509 510/510/510
f 511/511/511 512/512/512 513/513/513
f 514/514/514 515/515/515 516/516/516
f 517/517/517 518/518/518 519/519/519
f 520/520/520 521/521/521 522/522/522
f 523/523/523 524/524/524 525/525/525
f 526/526/526 527/527/527 528/528/528
f 529/529/529 530/530/530 531/531/531
f 532/532/532 533/533/533 534/534/534
f 535/535/535 536/536/536 537/537/537
f 538/538/538 539/539/539 540/540/540
f 541/541/541 542/542/542 543/543/543
f 544/544/544 545/545/545 546/546/546
f 547/547/547 548/548/548 549/549/549
f 550/550/550 551/551/551 552/552/552
f 553/553/553 554/554/554 555/555/555
f 556/556/556 557/557/557 558/558/558
f 559/559/559 560/560/560 561/561/561
f 562/562/562 563/563/563 564/564/564
f 565/565/565 566/566/566 567/567/567
f 568/568/568 569/569/569 570/570/570
f 571/571/571 572/572/572 573/573/573
f 574/574/574 575/575/575 576/576/576
f 577/577/577 578/578/578 579/579/579
f 580/580/580 581/581/581 582/582/582
f 583/583/583 584/584/584 585/585/585
f 586/586/586 587/587/587 588/588/588
f 589/589/589 590/590/590 591/591/591
f 592/592/592 593/593/593 594/594/594
f 595/595/595 596/596/596 597/597/597
f 598/598/598 599/599/599 600/600/600
f 601/601/601 602/602/602 603/603/603
f 604/604/604 605/605/605 606/606/606
f 607/607/607 608/608/608 609/609/609
f 610/610/610 611/611/611 612/612/612
f 613/613/613 614/614/614 615/615/615
f 616/616/616 617/617/617 618/618/618
f 619/619/619 620/620/620 621/621/621
f 622/622/622 623/623/623 624/624/624
f 625/625/625 626/626/626 627/627/627
f 628/628/628 629/629/629 630/630/630
f 631/631/631 632/632/632 633/633/633
f 634/634/634 635/635/635 636/636/636
f 637/637/637 638/638/638 639/639/639
f 640/640/640 641/641/641 642/642/642
f 643/643/643 644/644/644 645/645/645
f 646/646/646 647/647/647 648/648/648
f 649/649/649 650/650/650 651/651/651
f 652/652/652 653/653/653 654/654/654
f 655/655/655 656/656/656 657/657/657
f 655/655/655 657/657/657 656/656/656
f 655/655/655 657/657/657 658/658/658
f 655/655/655 658/658/658 657/657/657
f 655/655/655 658/658/658 659/659/659
f 655/655/655 659/659/659 658/658/658
f 655/655/655 659/659/659 660/660/660
f 655/655/655 660/660/660 659/659/659
f 655/655/655 660/660/660 661/661/661
f 655/655/655 661/661/661 660/660/660
f 655/655/655 661/661/661 662/662/662
f 655/655/655 662/662/662 661/661/661
f 655/655/655 662/662/662 663/663/663
f 655/655/655 663/663/663 662/662/662
f 655/655/655 663/663/663 664/664/664
f 655/655/655 664/664/664 663/663/663
f 655/655/655 664/664/664 665/665/665
f 655/655/655 665/665/665 664/664/664
f 655/655/655 665/665/665 666/666/666
f 655/655/655 666/666/666 665/665/665
f 655/655/655 666/666/666 667/667/667
f 655/655/655 667/667/667 666/666/666
f 655/655/655 667/667/667 668/668/668
f 655/655/655 668/668/668 667/667/667
f 655/655/655 668/668/668 669/669/669
f 655/655/655 669/669/669 668/668/668
f 655/655/655 669/669/669 670/670/670
f 655/655/655 670/670/670 669/669/669
f 655/655/655 670/670/670 671/671/671
f 655/655/655 671/671/671 670/670/670
f 655/655/655 671/671/671 672/672/672
f 655/655/655 672/672/672 671/671/671
f 655/655/655 672/672/672 673/673/673
f 655/655/655 673/673/673 672/672/672
f 655/655/655 673/673/673 674/674/674
f 655/655/655 674/674/674 673/673/673
f 655/655/655 674/674/674 675/675/675
f 655/655/655 675/675/675 674/674/674
f 655/655/655 675/675/675 656/656/656
f 655/655/655 656/656/656 675/675/675
