o fang_left
v -0.12799 0.50535 -1.35189
v -0.12065 0.63312 -1.35920
v -0.14691 0.51481 -1.47662
v -0.15531 0.61422 -1.54145
v -0.16178 0.50781 -1.52596
v -0.14691 0.51481 -1.47662
v -0.12799 0.50535 -1.35189
v -0.13099 0.20358 -1.38053
v -0.15590 0.52141 -1.54619
v -0.15590 0.52141 -1.54619
v -0.14691 0.51481 -1.47662
v -0.16066 0.51433 -1.52458
v -0.16419 0.20998 -1.53214
v -0.16066 0.51433 -1.52458
v -0.16178 0.50781 -1.52596
v -0.16330 0.43340 -1.53239
v -0.15590 0.52141 -1.54619
v -0.15590 0.52141 -1.54619
v -0.24808 0.52085 -1.54345
v -0.15531 0.61422 -1.54145
v -0.33062 0.19735 -1.52206
v -0.15590 0.52141 -1.54619
v -0.25090 0.51795 -1.52541
v -0.24808 0.52085 -1.54345
v -0.16178 0.50781 -1.52596
v -0.16330 0.43340 -1.53239
v -0.25090 0.51795 -1.52541
v -0.16419 0.20998 -1.53214
v -0.16178 0.50781 -1.52596
v -0.25090 0.51795 -1.52541
v -0.25378 0.60154 -1.52257
v -0.24754 0.60801 -1.53944
v -0.24808 0.52085 -1.54345
v -0.41728 0.45504 -1.51593
v -0.25378 0.60154 -1.52257
v -0.36853 0.28854 -1.52238
v -0.39502 0.35708 -1.52109
v -0.35451 0.59841 -1.51783
v -0.16419 0.20998 -1.53214
v -0.33062 0.19735 -1.52206
v -0.40500 0.32888 -1.36702
v -0.33062 0.19735 -1.52206
v -0.36853 0.28854 -1.52238
v -0.39502 0.35708 -1.52109
v -0.41590 0.59879 -1.51027
v -0.41944 0.41911 -1.35556
v -0.41924 0.59570 -1.34197
v -0.41590 0.59879 -1.51027
v -0.41728 0.45504 -1.51593
v -0.41608 0.60458 -1.52852
v -0.41590 0.59879 -1.51027
vt 0.07610 0.77369
vt 0.09448 0.78117
vt 0.08563 0.76417
vt 0.10276 0.76245
vt 0.01410 0.39752
vt 0.01261 0.39174
vt 0.01261 0.37722
vt 0.67226 0.06737
vt 0.09170 0.75823
vt 0.00178 0.14591
vt 0.00178 0.15400
vt 0.00074 0.14836
vt 0.03641 0.76374
vt 0.01333 0.39743
vt 0.06589 0.75866
vt 0.05954 0.76014
vt 0.01264 0.40000
vt 0.86677 0.79560
vt 0.87736 0.79560
vt 0.86665 0.80627
vt 0.68993 0.04552
vt 0.02262 0.48298
vt 0.01165 0.48507
vt 0.01204 0.48298
vt 0.10836 0.88461
vt 0.11652 0.88726
vt 0.10428 0.89406
vt 0.68989 0.06472
vt 0.02192 0.48577
vt 0.01239 0.83920
vt 0.00279 0.83882
vt 0.00222 0.83670
vt 0.01223 0.83709
vt 0.10559 0.91447
vt 0.09500 0.89159
vt 0.12553 0.91468
vt 0.11711 0.91529
vt 0.09196 0.90277
vt 0.14102 0.89485
vt 0.13681 0.91359
vt 0.14008 0.08579
vt 0.12171 0.10254
vt 0.13302 0.10333
vt 0.14257 0.10364
vt 0.08983 0.90954
vt 0.15060 0.08480
vt 0.61810 0.95362
vt 0.17063 0.10324
vt 0.15411 0.10334
vt 0.61752 0.97506
vt 0.61701 0.97292
vn 0.9951 -0.0316 -0.0939
vn 0.9961 0.0144 -0.0869
vn 0.9869 -0.0794 -0.1407
vn 0.9848 0.0237 -0.1722
vn 0.9797 -0.1865 -0.0741
vn 0.8228 -0.5420 -0.1710
vn 0.8129 -0.5583 -0.1657
vn 0.0595 -0.9962 -0.0643
vn 0.9854 -0.0309 -0.1673
vn 0.5483 -0.8229 -0.1489
vn 0.5483 -0.8229 -0.1489
vn 0.5483 -0.8229 -0.1489
vn 0.9786 0.0055 -0.2055
vn 0.9854 -0.1551 -0.0707
vn 0.9817 -0.0036 -0.1906
vn 0.9817 -0.0039 -0.1905
vn 0.9688 -0.1985 0.1485
vn -0.0299 0.0512 -0.9982
vn -0.0252 0.0549 -0.9982
vn -0.0395 0.0606 -0.9974
vn 0.0504 -0.9975 -0.0487
vn -0.0833 -0.8487 -0.5224
vn -0.0160 -0.9718 -0.2354
vn 0.0014 -0.9874 -0.1584
vn 0.0036 0.0861 -0.9963
vn -0.0397 0.0307 -0.9987
vn -0.0559 0.0329 -0.9979
vn 0.0721 -0.9957 -0.0578
vn -0.0960 -0.8128 -0.5746
vn -0.9834 0.0085 -0.1810
vn -0.9351 -0.0202 -0.3538
vn -0.9464 -0.0149 -0.3227
vn -0.9882 0.0131 -0.1527
vn -0.0690 0.0300 -0.9972
vn -0.0592 0.0209 -0.9980
vn -0.0510 -0.0075 -0.9987
vn -0.0550 0.0190 -0.9983
vn -0.0747 0.0195 -0.9970
vn -0.0508 -0.0081 -0.9987
vn -0.0584 -0.0278 -0.9979
vn -0.9631 -0.2665 0.0368
vn -0.9236 -0.3568 -0.1404
vn -0.9207 -0.3713 -0.1197
vn -0.9579 -0.2703 -0.0965
vn -0.1219 0.0402 -0.9917
vn -0.9937 -0.0793 0.0787
vn -0.9964 0.0072 0.0842
vn -0.9990 0.0384 0.0217
vn -0.9951 -0.0923 -0.0341
vn -0.9997 -0.0140 -0.0176
vn -0.9949 -0.0987 -0.0215
f 5/5/5 6/6/6 7/7/7
f 9/9/9 2/2/2 3/3/3
f 10/10/10 11/11/11 12/12/12
f 2/2/2 9/9/9 4/4/4
f 5/5/5 14/14/14 6/6/6
f 15/15/15 1/1/1 16/16/16
f 17/17/17 14/14/14 5/5/5
f 16/16/16 1/1/1 13/13/13
f 18/18/18 19/19/19 20/20/20
f 22/22/22 23/23/23 24/24/24
f 25/25/25 26/26/26 27/27/27
f 8/8/8 21/21/21 28/28/28
f 22/22/22 29/29/29 23/23/23
f 30/30/30 31/31/31 32/32/32
f 30/30/30 32/32/32 33/33/33
f 34/34/34 27/27/27 26/26/26
f 34/34/34 35/35/35 27/27/27
f 26/26/26 36/36/36 37/37/37
f 35/35/35 34/34/34 38/38/38
f 39/39/39 40/40/40 36/36/36
f 39/39/39 36/36/36 26/26/26
f 42/42/42 41/41/41 43/43/43
f 41/41/41 44/44/44 43/43/43
f 38/38/38 34/34/34 45/45/45
f 26/26/26 37/37/37 34/34/34
f 49/49/49 44/44/44 46/46/46
f 50/50/50 51/51/51 47/47/47
f 46/46/46 48/48/48 49/49/49
