o fang_right
v 0.41376 0.45224 -1.51275
v 0.40726 0.59417 -1.51283
v 0.41357 0.60596 -1.52451
v 0.41357 0.60596 -1.52451
v 0.41267 0.41388 -1.34593
v 0.41376 0.45224 -1.51275
v 0.39169 0.35313 -1.51489
v 0.24911 0.60254 -1.53589
v 0.41376 0.45224 -1.51275
v 0.40436 0.43088 -1.52016
v 0.40726 0.59417 -1.51283
v 0.40726 0.59417 -1.51283
v 0.40436 0.43088 -1.52016
v 0.36045 0.59565 -1.51445
v 0.39169 0.35313 -1.51489
v 0.39872 0.32383 -1.36715
v 0.40443 0.60265 -1.52996
v 0.40726 0.59417 -1.51283
v 0.36045 0.59565 -1.51445
v 0.37613 0.32028 -1.52160
v 0.32522 0.20157 -1.52520
v 0.37613 0.32028 -1.52160
v 0.32522 0.20157 -1.52520
v 0.16313 0.20580 -1.53131
v 0.37613 0.32028 -1.52160
v 0.34680 0.19682 -1.41222
v 0.32614 0.19698 -1.51728
v 0.34680 0.19682 -1.41222
v 0.25198 0.60008 -1.52214
v 0.25198 0.60008 -1.52214
v 0.15722 0.40923 -1.53452
v 0.16313 0.20580 -1.53131
v 0.32522 0.20157 -1.52520
v 0.32614 0.19698 -1.51728
v 0.24643 0.52179 -1.52723
v 0.15385 0.59527 -1.54576
v 0.32614 0.19698 -1.51728
v 0.16313 0.20580 -1.53131
v 0.25198 0.60008 -1.52214
v 0.24643 0.52179 -1.52723
v 0.24911 0.60254 -1.53589
v 0.24472 0.52387 -1.54241
v 0.24643 0.52179 -1.52723
v 0.23715 0.51726 -1.54124
v 0.24472 0.52387 -1.54241
v 0.15806 0.51396 -1.52808
v 0.23715 0.51726 -1.54124
v 0.24643 0.52179 -1.52723
v 0.24472 0.52387 -1.54241
v 0.23715 0.51726 -1.54124
v 0.15433 0.51935 -1.54870
v 0.15433 0.51935 -1.54870
v 0.15806 0.51396 -1.52808
v 0.13666 0.51269 -1.44695
v 0.15433 0.51935 -1.54870
v 0.11544 0.62825 -1.36038
v 0.15385 0.59527 -1.54576
v 0.12530 0.34511 -1.37057
v 0.16313 0.20580 -1.53131
v 0.13178 0.50024 -1.38429
v 0.15722 0.40923 -1.53452
v 0.15806 0.51396 -1.52808
v 0.13666 0.51269 -1.44695
vt 0.00560 0.15073
vt 0.00701 0.16688
vt 0.00559 0.16832
vt 0.85672 0.76038
vt 0.83611 0.73869
vt 0.85519 0.74286
vt 0.85536 0.73128
vt 0.20487 0.90622
vt 0.16438 0.98008
vt 0.16691 0.98126
vt 0.14827 0.98188
vt 0.88463 0.53763
vt 0.87887 0.51989
vt 0.88974 0.53604
vt 0.17591 0.98114
vt 0.83842 0.72827
vt 0.21002 0.00169
vt 0.21044 0.00385
vt 0.20509 0.00385
vt 0.17986 0.98263
vt 0.85682 0.71242
vt 0.85620 0.72714
vt 0.87879 0.49221
vt 0.89642 0.48657
vt 0.87775 0.50691
vt 0.84369 0.71266
vt 0.85588 0.71194
vt 0.70691 0.04438
vt 0.90162 0.53243
vt 0.19268 0.00340
vt 0.90472 0.50825
vt 0.32333 0.00477
vt 0.34184 0.00477
vt 0.34199 0.00581
vt 0.89931 0.52376
vt 0.20549 0.91715
vt 0.69523 0.04796
vt 0.69556 0.06665
vt 0.01071 0.94191
vt 0.00174 0.94191
vt 0.01086 0.94029
vt 0.00185 0.94015
vt 0.86541 0.99975
vt 0.86342 0.99975
vt 0.86397 0.99874
vt 0.98599 0.37191
vt 0.97698 0.37352
vt 0.97587 0.37187
vt 0.21386 0.90697
vt 0.21462 0.90783
vt 0.21415 0.91731
vt 0.98643 0.37434
vt 0.90854 0.51960
vt 0.98893 0.36280
vt 0.37017 0.76189
vt 0.37907 0.74231
vt 0.38048 0.76338
vt 0.33325 0.75344
vt 0.31272 0.76758
vt 0.98935 0.35550
vt 0.33531 0.76832
vt 0.34712 0.76610
vt 0.36579 0.75342
vn -0.8617 -0.0398 -0.5058
vn -0.8617 -0.0398 -0.5058
vn -0.8617 -0.0398 -0.5058
vn 0.9985 0.0347 0.0423
vn 0.9921 -0.0778 0.0987
vn 0.9958 -0.0909 -0.0144
vn 0.9514 -0.2953 -0.0873
vn 0.0922 0.0442 -0.9948
vn 0.6146 0.0031 -0.7888
vn 0.7875 -0.1434 -0.5993
vn 0.5815 0.0261 -0.8132
vn 0.0359 0.0441 -0.9984
vn 0.0545 0.0216 -0.9983
vn 0.0578 0.0499 -0.9971
vn 0.6574 -0.1570 -0.7370
vn 0.9624 -0.2701 0.0291
vn -0.0109 -0.9045 -0.4262
vn -0.0131 -0.8970 -0.4418
vn -0.0075 -0.9034 -0.4288
vn 0.6504 -0.1563 -0.7433
vn 0.9388 -0.3024 -0.1648
vn 0.9103 -0.3950 -0.1241
vn 0.0380 0.0140 -0.9992
vn 0.0502 -0.0026 -0.9987
vn 0.0432 0.0044 -0.9991
vn 0.9338 -0.3411 -0.1080
vn 0.9719 -0.1371 -0.1913
vn -0.0361 -0.9983 -0.0459
vn 0.0757 0.0565 -0.9955
vn 0.0064 -0.9805 -0.1965
vn 0.0561 0.0215 -0.9982
vn -0.0037 -0.8652 -0.5014
vn -0.0037 -0.8652 -0.5014
vn -0.0037 -0.8652 -0.5014
vn 0.0429 -0.0031 -0.9991
vn 0.0783 0.0504 -0.9957
vn -0.0548 -0.9985 0.0092
vn -0.0386 -0.9991 -0.0158
vn 0.9754 -0.0553 -0.2135
vn 0.9905 -0.0468 -0.1296
vn 0.9780 -0.0541 -0.2014
vn 0.9919 -0.0456 -0.1185
vn 0.6322 -0.7547 -0.1754
vn 0.6322 -0.7547 -0.1754
vn 0.6322 -0.7547 -0.1754
vn -0.3068 -0.9363 -0.1711
vn 0.0740 -0.9772 0.1992
vn 0.0828 -0.9631 0.2560
vn 0.0840 -0.0339 -0.9959
vn 0.0800 -0.2624 -0.9616
vn 0.0681 0.0244 -0.9974
vn -0.1149 -0.9659 -0.2319
vn 0.0432 0.0327 -0.9985
vn -0.6829 -0.7050 -0.1911
vn -0.9811 -0.0172 -0.1927
vn -0.9963 0.0107 -0.0857
vn -0.9819 0.0191 -0.1882
vn -0.9930 -0.0053 -0.1181
vn -0.9757 -0.0123 -0.2189
vn -0.6891 -0.6986 -0.1926
vn -0.9815 -0.0006 -0.1913
vn -0.9833 0.0221 -0.1808
vn -0.9834 -0.0757 -0.1652
f 1/1/1 2/2/2 3/3/3
f 4/4/4 5/5/5 6/6/6
f 6/6/6 5/5/5 7/7/7
f 9/9/9 10/10/10 11/11/11
f 12/12/12 13/13/13 14/14/14
f 10/10/10 9/9/9 15/15/15
f 17/17/17 18/18/18 19/19/19
f 20/20/20 10/10/10 15/15/15
f 21/21/21 22/22/22 16/16/16
f 22/22/22 7/7/7 16/16/16
f 23/23/23 24/24/24 25/25/25
f 21/21/21 26/26/26 27/27/27
f 24/24/24 13/13/13 25/25/25
f 14/14/14 13/13/13 29/29/29
f 30/30/30 17/17/17 19/19/19
f 13/13/13 24/24/24 31/31/31
f 32/32/32 33/33/33 34/34/34
f 13/13/13 35/35/35 29/29/29
f 37/37/37 28/28/28 38/38/38
f 39/39/39 40/40/40 41/41/41
f 40/40/40 42/42/42 41/41/41
f 43/43/43 44/44/44 45/45/45
f 46/46/46 47/47/47 48/48/48
f 49/49/49 50/50/50 51/51/51
f 52/52/52 47/47/47 46/46/46
f 53/53/53 35/35/35 13/13/13
f 31/31/31 53/53/53 13/13/13
f 36/36/36 49/49/49 51/51/51
f 36/36/36 8/8/8 49/49/49
f 46/46/46 54/54/54 52/52/52
f 55/55/55 56/56/56 57/57/57
f 46/46/46 60/60/60 54/54/54
f 61/61/61 59/59/59 58/58/58
f 58/58/58 62/62/62 61/61/61
f 56/56/56 55/55/55 63/63/63
