o leg_right_1
v 0.68527 2.37674 -0.41652
v 0.66351 2.45820 -0.15512
v 0.86625 2.58487 -0.43276
v 0.67824 2.50151 -0.48265
v 0.85932 2.30704 -0.43279
v 0.87361 2.65707 -0.44538
v 0.87361 2.65707 -0.44538
v 0.87361 2.65707 -0.44538
v 1.19886 2.73601 -0.43799
v 1.26756 2.79890 -0.44680
v 1.11874 2.87770 -0.45791
v 1.26756 2.79890 -0.44680
v 1.26756 2.79890 -0.44680
v 1.22578 2.91056 -0.42890
v 1.28115 2.64240 -0.15755
v 1.39804 2.93214 -0.42683
v 1.19787 2.93923 -0.45141
v 1.19787 2.93923 -0.45141
v 1.38152 2.90922 -0.12430
v 1.42312 2.41190 -0.41827
v 1.42312 2.41190 -0.41827
v 1.54024 2.54825 -0.13928
v 1.54024 2.54825 -0.13928
v 1.57710 2.55499 -0.18001
v 1.60815 2.44999 -0.15260
v 1.50267 1.94942 -0.28601
v 1.52103 1.91313 -0.25412
v 1.72709 2.25129 -0.30200
v 1.72709 2.25129 -0.30200
v 1.72709 2.25129 -0.30200
v 1.72150 2.05700 -0.14916
v 1.59198 1.77830 -0.40183
v 1.54571 1.95526 -0.40002
v 1.57928 1.82093 -0.40401
v 1.57837 1.83040 -0.41774
v 1.68885 2.04053 -0.12003
v 1.72819 1.97348 -0.12434
v 1.75552 1.95133 -0.14425
v 1.75552 1.95133 -0.14425
v 1.75552 1.95133 -0.14425
v 1.76693 1.98113 -0.36452
v 1.80049 1.92427 -0.13490
v 1.80049 1.92427 -0.13490
v 1.81549 1.98736 -0.32085
v 1.81549 1.98736 -0.32085
v 1.81549 1.98736 -0.32085
v 1.60004 1.75982 -0.43388
v 1.65745 1.54143 -0.43010
v 1.83581 1.61244 -0.11582
v 1.90703 1.37107 -0.11717
v 1.88792 1.62613 -0.12670
v 1.88727 1.62319 -0.15988
v 1.83775 1.60862 -0.15766
v 1.88727 1.62319 -0.15988
v 1.90528 1.72186 -0.20008
v 1.89363 1.62694 -0.19426
v 1.89363 1.62694 -0.19426
v 1.93156 1.63652 -0.19961
v 1.92928 1.63683 -0.29593
v 1.87122 0.82887 -0.16883
v 2.04120 0.88135 -0.41395
v 2.08245 0.88929 -0.34923
v 2.08245 0.88929 -0.34923
v 2.10610 0.93046 -0.33911
v 2.08338 0.83181 -0.18120
v 1.94302 0.57494 -0.39143
v 2.01206 0.41936 -0.41244
v 1.95668 0.49227 -0.39178
v 1.94302 0.57494 -0.39143
v 1.98520 0.52585 -0.42046
v 1.98520 0.52585 -0.42046
v 2.08953 0.04403 -0.39118
v 2.08953 0.04403 -0.39118
v 2.07557 0.12184 -0.39818
v 2.08992 0.09427 -0.15106
v 2.06434 0.13480 -0.14640
v 2.25000 0.05164 -0.38176
v 2.24612 0.05786 -0.35995
v 2.25000 0.05164 -0.38176
v 2.20898 0.06572 -0.18873
v 0.87549 2.50697 -0.47284
v 0.70592 2.30508 -0.42315
v 0.87549 2.50697 -0.47284
v 0.87549 2.50697 -0.47284
v 0.87549 2.50697 -0.47284
v 0.83089 2.40372 -0.45190
v 0.84236 2.35274 -0.43719
v 0.63710 2.48429 -0.16630
v 0.82312 2.55748 -0.14028
v 0.78609 2.59968 -0.16124
v 0.80867 2.60471 -0.26956
v 0.81567 2.60770 -0.37259
v 0.82465 2.61403 -0.43592
v 0.85366 2.20435 -0.37614
v 0.87158 2.26515 -0.41285
v 0.87585 2.20078 -0.33875
v 0.93361 2.45279 -0.43124
v 0.86625 2.58487 -0.43276
v 0.86625 2.58487 -0.43276
v 0.86625 2.58487 -0.43276
v 0.85732 2.55805 -0.46243
v 0.85732 2.55805 -0.46243
v 0.86560 2.67846 -0.36287
v 0.97084 2.75952 -0.34736
v 0.95028 2.74461 -0.47009
v 0.95028 2.74461 -0.47009
v 0.88886 2.63055 -0.47259
v 0.88886 2.63055 -0.47259
v 0.88886 2.63055 -0.47259
v 0.88886 2.63055 -0.47259
v 1.24022 2.64729 -0.41074
v 1.19886 2.73601 -0.43799
v 1.28890 2.69589 -0.41281
v 1.34776 2.66294 -0.42762
v 1.41119 2.52320 -0.43395
v 1.31056 2.59672 -0.37313
v 1.27456 2.76410 -0.41856
v 1.27456 2.76410 -0.41856
v 1.31768 2.73614 -0.42173
v 1.11874 2.87770 -0.45791
v 1.23253 2.88487 -0.44833
v 1.23253 2.88487 -0.44833
v 1.23253 2.88487 -0.44833
v 1.25564 2.91387 -0.41365
v 1.25564 2.91387 -0.41365
v 1.25564 2.91387 -0.41365
v 1.29053 2.86821 -0.42923
v 1.29053 2.86821 -0.42923
v 1.29053 2.86821 -0.42923
v 1.12734 2.88230 -0.35904
v 1.22161 2.94357 -0.38433
v 1.22161 2.94357 -0.38433
v 1.27361 2.62531 -0.18927
v 1.27361 2.62531 -0.18927
v 1.28861 2.60982 -0.20502
v 1.34109 2.65878 -0.14235
v 1.30347 2.77322 -0.12775
v 1.23839 2.66232 -0.14659
v 1.25977 2.65236 -0.15207
v 1.24822 2.61162 -0.18758
v 1.24822 2.61162 -0.18758
v 1.29042 2.96537 -0.39327
v 1.29307 2.91294 -0.42690
v 1.34274 2.96089 -0.41360
v 1.35316 2.88978 -0.45382
v 1.31411 2.87013 -0.45148
v 1.31411 2.87013 -0.45148
v 1.43688 2.90656 -0.15159
v 1.39387 2.94634 -0.14189
v 1.30721 2.86687 -0.11979
v 1.32940 2.94197 -0.13493
v 1.38996 2.96890 -0.18073
v 1.46727 2.22102 -0.42302
v 1.41852 2.26935 -0.38298
v 1.41852 2.26935 -0.38298
v 1.36664 2.47118 -0.36947
v 1.50259 2.31373 -0.44344
v 1.56630 2.44032 -0.13528
v 1.47931 2.54362 -0.13127
v 1.52326 2.37929 -0.12401
v 1.68295 2.40196 -0.20804
v 1.59261 2.66103 -0.20210
v 1.62466 2.21343 -0.12556
v 1.42621 2.18994 -0.28695
v 1.47539 2.07448 -0.36567
v 1.47539 2.07448 -0.36567
v 1.55080 1.80426 -0.36315
v 1.44400 2.20481 -0.23057
v 1.51753 1.94254 -0.21496
v 1.68613 2.28019 -0.31834
v 1.68613 2.28019 -0.31834
v 1.71024 2.36243 -0.31850
v 1.62598 2.57044 -0.32349
v 1.68000 2.46778 -0.23722
v 1.72150 2.05700 -0.14916
v 1.74891 2.12300 -0.21689
v 1.67451 1.49397 -0.39774
v 1.53040 2.01911 -0.41771
v 1.68885 2.04053 -0.12003
v 1.63375 2.00278 -0.12446
v 1.67220 1.86903 -0.12169
v 1.83357 1.82413 -0.16903
v 1.83357 1.82413 -0.16903
v 1.72326 2.08042 -0.19537
v 1.78023 1.95601 -0.17813
v 1.78023 1.95601 -0.17813
v 1.74003 2.00275 -0.39443
v 1.74003 2.00275 -0.39443
v 1.68227 2.20388 -0.38359
v 1.68227 2.20388 -0.38359
v 1.71537 2.16861 -0.33006
v 1.81079 1.86563 -0.39427
v 1.79343 1.86809 -0.43304
v 1.81551 1.97809 -0.22938
v 1.74845 2.16823 -0.25014
v 1.87090 1.84005 -0.20017
v 1.87090 1.84005 -0.20017
v 1.87090 1.84005 -0.20017
v 1.85378 1.85682 -0.30978
v 1.54673 1.71274 -0.27507
v 1.60648 1.57790 -0.34134
v 1.67451 1.49397 -0.39774
v 1.66391 1.47687 -0.33265
v 1.66772 1.63217 -0.43492
v 1.71672 1.50156 -0.41483
v 1.78088 1.53475 -0.12659
v 1.86064 1.71510 -0.12889
v 1.86064 1.71510 -0.12889
v 1.83678 1.61053 -0.13674
v 1.86906 1.69562 -0.16440
v 1.87783 1.70414 -0.19701
v 1.96014 1.40185 -0.19549
v 1.91256 1.57316 -0.27498
v 1.91256 1.57316 -0.27498
v 1.91256 1.57316 -0.27498
v 1.92928 1.63683 -0.29593
v 1.92928 1.63683 -0.29593
v 1.89571 1.73505 -0.30009
v 1.90748 0.86199 -0.14351
v 1.87689 0.96584 -0.13953
v 1.81794 0.95327 -0.15865
v 1.86529 0.77056 -0.20673
v 1.93441 0.74320 -0.13889
v 1.96497 0.96966 -0.44422
v 2.01325 0.98984 -0.43638
v 2.03627 0.99853 -0.41320
v 2.03627 0.99853 -0.41320
v 2.10616 0.73407 -0.38588
v 2.00883 0.85383 -0.41467
v 2.05187 1.00582 -0.37191
v 2.05187 1.00582 -0.37191
v 2.08165 1.01594 -0.33990
v 2.00257 1.19396 -0.38111
v 2.10610 0.93046 -0.33911
v 2.10876 0.91835 -0.29197
v 2.09594 0.87361 -0.29601
v 2.11684 0.75075 -0.29418
v 2.12694 0.67728 -0.32603
v 2.03855 1.02681 -0.15557
v 2.09254 0.97911 -0.20635
v 2.08783 0.75897 -0.16054
v 2.12329 0.75997 -0.24344
v 2.09604 0.87788 -0.25071
v 2.10942 0.91879 -0.24183
v 2.08257 1.02855 -0.23721
v 1.97028 0.64358 -0.39042
v 1.97028 0.64358 -0.39042
v 1.97035 0.40960 -0.39213
v 1.94730 0.40497 -0.34148
v 1.90077 0.58276 -0.34140
v 1.96134 0.65148 -0.41933
v 2.08736 0.03799 -0.37421
v 2.08736 0.03799 -0.37421
v 2.08736 0.03799 -0.37421
v 2.01770 0.23492 -0.37876
v 2.04543 0.11167 -0.37643
v 2.07557 0.12184 -0.39818
v 2.11669 0.13469 -0.39986
v 2.15943 0.03088 -0.37669
v 2.13885 0.02825 -0.37655
v 2.08992 0.09427 -0.15106
v 2.04617 0.11707 -0.18983
v 2.08960 0.07236 -0.19470
v 2.13104 0.09846 -0.15781
v 2.13104 0.09846 -0.15781
v 2.11219 0.19309 -0.13744
v 2.13440 0.05488 -0.19294
v 2.23841 0.10314 -0.37602
v 2.24364 0.10576 -0.33914
v 2.24224 0.06407 -0.33814
v 2.21490 0.04553 -0.33838
v 2.23220 0.11344 -0.19242
v 2.23558 0.09375 -0.21649
v 2.20420 0.10611 -0.16410
v 2.20420 0.10611 -0.16410
v 2.23896 0.07405 -0.24057
v 2.23858 0.17035 -0.26222
v 2.22837 0.17450 -0.19105
v 2.22837 0.17450 -0.19105
v 2.24531 0.06843 -0.28982
v 2.24531 0.06843 -0.28982
v 2.24775 0.10747 -0.26172
v 2.23812 0.28715 -0.23365
v 2.23333 0.17207 -0.33768
v 2.22708 0.28971 -0.33555
v 2.19710 0.44323 -0.32167
v 2.21859 0.22724 -0.37778
v 2.15587 0.52235 -0.37638
v 2.21128 0.28638 -0.37831
v 2.18134 0.27855 -0.40735
v 2.08580 0.47370 -0.41527
v 2.10718 0.28909 -0.41183
v 2.05379 0.24516 -0.40333
v 2.04543 0.11167 -0.37643
v 2.04171 0.10892 -0.33612
v 2.00052 0.21398 -0.32762
v 1.91659 0.48454 -0.28590
v 1.98908 0.22694 -0.22981
v 1.90826 0.53046 -0.22608
v 1.85428 0.75333 -0.26245
v 1.96079 0.41063 -0.17871
v 1.92473 0.58405 -0.17699
v 1.96270 0.58774 -0.13389
v 1.96270 0.58774 -0.13389
v 2.05179 0.43343 -0.12317
v 2.00133 0.61103 -0.13346
v 1.96693 0.87694 -0.13170
v 2.07153 0.60174 -0.14538
v 2.03372 0.79696 -0.14333
v 2.00671 1.01770 -0.13522
v 1.95952 1.00329 -0.12868
v 1.95952 1.00329 -0.12868
v 1.96386 1.16646 -0.11587
v 1.96386 1.16646 -0.11587
v 1.96386 1.16646 -0.11587
v 1.84791 1.28816 -0.12283
v 1.96931 1.18772 -0.14605
v 1.96931 1.18772 -0.14605
v 1.99959 1.19706 -0.16914
v 2.03687 1.20054 -0.19677
v 2.03687 1.20054 -0.19677
v 2.03729 1.19654 -0.27601
v 1.97024 1.39228 -0.25281
v 1.90782 1.54959 -0.33317
v 1.89178 1.64025 -0.35533
v 1.94390 1.38470 -0.35050
v 1.89757 1.53628 -0.37455
v 1.87556 1.63913 -0.39825
v 1.88367 1.63969 -0.37679
v 1.84691 1.74588 -0.40543
v 1.84691 1.74588 -0.40543
v 1.86042 1.73941 -0.36212
v 1.85680 1.57955 -0.41794
v 1.81899 1.74926 -0.43762
v 1.79343 1.86809 -0.43304
v 1.79540 1.63431 -0.44726
v 1.77377 1.75098 -0.45084
v 1.75857 1.86752 -0.44153
v 1.71234 2.00928 -0.41635
v 1.71879 1.75418 -0.46222
v 1.71471 1.86159 -0.45684
v 1.67321 2.00389 -0.43094
v 1.61680 2.19249 -0.43322
v 1.65511 2.19821 -0.41589
v 1.65503 1.84908 -0.45512
v 1.62408 1.99613 -0.44035
v 1.57298 2.19188 -0.44082
v 1.54199 2.33874 -0.44965
v 1.58665 2.32723 -0.44474
v 1.58289 1.99736 -0.43369
v 1.61133 1.83663 -0.43996
v 1.64361 1.76050 -0.43825
v 1.68431 1.64811 -0.43660
v 1.73933 1.63744 -0.46381
v 1.72786 1.50358 -0.42945
v 1.74985 1.50364 -0.42372
v 1.83785 1.34502 -0.41578
v 1.78311 1.32229 -0.42438
v 1.78311 1.32229 -0.42438
v 1.76539 1.31059 -0.41009
v 1.88679 1.14971 -0.43424
v 1.82712 1.01357 -0.42155
v 1.76539 1.31059 -0.41009
v 1.73098 1.29776 -0.40316
v 1.76102 1.09714 -0.35299
v 1.70311 1.28570 -0.32888
v 1.66113 1.46589 -0.27105
v 1.59691 1.55311 -0.28430
v 1.59691 1.55311 -0.28430
v 1.71306 1.29652 -0.22607
v 1.66903 1.46723 -0.21848
v 1.61230 1.58854 -0.22248
v 1.54673 1.71274 -0.27507
v 1.69245 1.47762 -0.17304
v 1.63961 1.60672 -0.16894
v 1.58897 1.87719 -0.15481
v 1.59720 1.78001 -0.17265
v 1.54271 1.95307 -0.16945
v 1.51983 2.02740 -0.17470
v 1.70353 1.56674 -0.13180
v 1.60411 1.89457 -0.13202
v 1.53204 2.13772 -0.14127
v 1.49695 2.10173 -0.17995
v 1.57897 2.17487 -0.13084
v 1.48357 2.32173 -0.12714
v 1.42178 2.51024 -0.13679
v 1.38468 2.47409 -0.16964
v 1.38468 2.47409 -0.16964
v 1.48357 2.32173 -0.12714
v 1.45283 2.27591 -0.17215
v 1.36890 2.44133 -0.21609
v 1.30130 2.57577 -0.22213
v 1.30734 2.55563 -0.27197
v 1.36684 2.41197 -0.26988
v 1.33041 2.52146 -0.32037
v 1.37670 2.36131 -0.32147
v 1.37670 2.36131 -0.32147
v 1.28204 2.60883 -0.30369
v 1.24119 2.60901 -0.23161
v 1.24579 2.62351 -0.34141
v 1.20157 2.56658 -0.29709
v 1.19936 2.55666 -0.18964
v 1.11926 2.47339 -0.20465
v 1.17697 2.57880 -0.15070
v 1.10099 2.47844 -0.14730
v 1.10099 2.47844 -0.14730
v 1.00712 2.38658 -0.17801
v 1.00712 2.38658 -0.17801
v 1.01423 2.39553 -0.22732
v 1.09028 2.57407 -0.13635
v 0.97722 2.40928 -0.15647
v 0.87507 2.30345 -0.15820
v 0.92133 2.28931 -0.19631
v 0.95340 2.28761 -0.24365
v 0.95257 2.49610 -0.13838
v 0.82002 2.33379 -0.14163
v 0.73631 2.26971 -0.15978
v 0.78472 2.23666 -0.18501
v 0.88401 2.49194 -0.13287
v 0.75125 2.38055 -0.12488
v 0.67322 2.31752 -0.14918
v 0.67488 2.23632 -0.19878
v 0.71033 2.19630 -0.21182
v 0.73708 2.16897 -0.23114
v 0.81986 2.21649 -0.21309
v 0.75454 2.15648 -0.25572
v 0.85119 2.20190 -0.24361
v 0.86535 2.20334 -0.28909
v 0.97002 2.29637 -0.30327
v 1.11327 2.47504 -0.33771
v 1.09896 2.47343 -0.39961
v 1.19735 2.56764 -0.36792
v 1.04706 2.50151 -0.42147
v 1.04706 2.50151 -0.42147
v 0.95271 2.51734 -0.46823
v 0.95271 2.51734 -0.46823
v 1.12065 2.60558 -0.42538
v 1.06089 2.66681 -0.46001
v 0.90717 2.51201 -0.43460
v 0.90717 2.51201 -0.43460
v 0.90717 2.51201 -0.43460
v 0.90717 2.51201 -0.43460
v 0.93361 2.45279 -0.43124
v 0.93361 2.45279 -0.43124
v 0.76345 2.15818 -0.29371
v 0.76319 2.17047 -0.32727
v 0.68393 2.09548 -0.35563
v 0.67324 2.11561 -0.39860
v 0.76080 2.18734 -0.35624
v 0.71702 2.15147 -0.37742
v 0.68594 2.09073 -0.30943
v 0.68146 2.09499 -0.26747
v 0.64991 2.14956 -0.42956
v 0.74762 2.21425 -0.38891
v 0.72684 2.25478 -0.41235
v 0.96794 2.59760 -0.11083
v 0.91611 2.64968 -0.12548
v 0.91611 2.64968 -0.12548
v 0.99713 2.77223 -0.18077
v 1.05189 2.72034 -0.10815
v 0.88785 2.67980 -0.17152
v 0.88785 2.67980 -0.17152
v 0.86644 2.67777 -0.25923
v 1.11580 2.87280 -0.24392
v 1.22771 2.96880 -0.24650
v 1.22524 2.96976 -0.31005
v 1.30210 2.99110 -0.33072
v 1.37635 2.98896 -0.28980
v 1.36242 2.99170 -0.35398
v 1.44163 2.95472 -0.30246
v 1.49492 2.88164 -0.37332
v 1.44163 2.95472 -0.30246
v 1.51051 2.87368 -0.28346
v 1.45765 2.86512 -0.42659
v 1.45765 2.86512 -0.42659
v 1.56328 2.74441 -0.35404
v 1.53252 2.74377 -0.40939
v 1.40883 2.83895 -0.45332
v 1.36199 2.82587 -0.46998
v 1.36199 2.82587 -0.46998
v 1.36795 2.73171 -0.47071
v 1.36795 2.73171 -0.47071
v 1.32735 2.81353 -0.44881
v 1.34105 2.73757 -0.44102
v 1.44560 2.61406 -0.45648
v 1.40677 2.67289 -0.46360
v 1.36584 2.68465 -0.44864
v 1.39062 2.63173 -0.45626
v 1.53578 2.46522 -0.44609
v 1.48270 2.48299 -0.43701
v 1.50076 2.60360 -0.43998
v 1.58668 2.45416 -0.43593
v 1.63080 2.31961 -0.42702
v 1.64787 2.37647 -0.39829
v 1.63147 2.43898 -0.40359
v 1.66427 2.31396 -0.39299
v 1.67508 2.41429 -0.36312
v 1.68446 2.30813 -0.35031
v 1.68446 2.30813 -0.35031
v 1.55726 2.59828 -0.42215
v 1.59902 2.58908 -0.37729
v 1.57927 2.73487 -0.29642
v 1.58936 2.71177 -0.24291
v 1.50751 2.84376 -0.19529
v 1.44809 2.92862 -0.19052
v 1.40903 2.87711 -0.12776
v 1.49150 2.80110 -0.15440
v 1.44634 2.94250 -0.24295
v 1.38996 2.96890 -0.18073
v 1.32013 2.96898 -0.16806
v 1.32013 2.96898 -0.16806
v 1.31438 2.98157 -0.21585
v 1.23279 2.95607 -0.19146
v 1.24387 2.93474 -0.14826
v 1.26214 2.89781 -0.12233
v 1.24387 2.93474 -0.14826
v 1.14602 2.83953 -0.11912
v 1.17185 2.79711 -0.11566
v 1.17185 2.79711 -0.11566
v 1.13069 2.86477 -0.15935
v 1.20002 2.73397 -0.12101
v 1.09193 2.67168 -0.11239
v 1.46230 2.77313 -0.12136
v 1.46230 2.77313 -0.12136
v 1.40362 2.73541 -0.12313
v 1.71108 1.48752 -0.15536
v 1.73028 1.30367 -0.17469
v 1.78825 1.21714 -0.14025
v 1.78825 1.21714 -0.14025
v 1.79128 0.93782 -0.21736
v 1.75191 1.10498 -0.19228
v 1.75191 1.10498 -0.19228
v 1.74703 1.10211 -0.25180
v 1.78973 0.93024 -0.27337
v 1.85387 0.75439 -0.31602
v 1.79102 0.92343 -0.32910
v 1.87195 0.75459 -0.36630
v 1.94302 0.57494 -0.39143
v 1.74337 1.09728 -0.31113
v 1.86293 0.92471 -0.42783
v 1.92681 0.79487 -0.41871
v 1.92066 0.94767 -0.43861
v 1.96737 0.83021 -0.41637
v 1.93627 1.17245 -0.43790
v 1.88658 1.36484 -0.41278
v 1.97260 1.18463 -0.42101
v 1.93042 1.37953 -0.39273
v 1.93042 1.37953 -0.39273
v 2.02747 1.19932 -0.34037
v 1.82274 1.51285 -0.40775
v 1.85378 1.85682 -0.30978
v 2.12100 0.60985 -0.16220
v 2.10876 0.44578 -0.13251
v 2.15405 0.45467 -0.15978
v 2.12100 0.60985 -0.16220
v 2.11859 0.76459 -0.19345
v 2.17500 0.53876 -0.18873
v 2.18693 0.52236 -0.22812
v 2.22598 0.28728 -0.18533
v 2.20100 0.17003 -0.15577
v 2.22598 0.28728 -0.18533
v 2.18782 0.28128 -0.15583
v 2.15650 0.22815 -0.14108
v 2.16949 0.10026 -0.15892
v 2.17469 0.05345 -0.19019
v 2.17469 0.05345 -0.19019
v 2.13633 0.03455 -0.24706
v 2.21359 0.04785 -0.24638
v 2.18118 0.03800 -0.24651
v 2.13897 0.03139 -0.34090
v 2.18000 0.03352 -0.37684
v 2.20395 0.09494 -0.38981
v 2.19744 0.15894 -0.39488
v 2.09047 0.04577 -0.34070
v 2.08912 0.04499 -0.32802
v 2.11026 0.05276 -0.22077
v 2.08611 0.05064 -0.24860
v 2.03897 0.10959 -0.24419
v 2.00098 0.23050 -0.18120
v 2.03580 0.24267 -0.14118
v 1.85010 1.82156 -0.19734
v 1.85010 1.82156 -0.19734
v 1.85010 1.82156 -0.19734
v 1.79920 1.96563 -0.19989
v 1.79920 1.96563 -0.19989
v 1.77625 2.00405 -0.33987
v 1.77625 2.00405 -0.33987
v 1.77625 2.00405 -0.33987
v 1.77625 2.00405 -0.33987
v 1.71537 2.16861 -0.33006
vt 0.74324 0.49145
vt 0.57640 0.76344
vt 0.22821 0.60747
vt 0.24958 0.61385
vt 0.24814 0.58562
vt 0.79401 0.83329
vt 0.79401 0.83329
vt 0.79401 0.83329
vt 0.19104 0.59627
vt 0.77115 0.91093
vt 0.18778 0.61324
vt 0.77115 0.91093
vt 0.77115 0.91093
vt 0.76635 0.51689
vt 0.41256 0.60102
vt 0.79291 0.89363
vt 0.17708 0.61265
vt 0.17708 0.61265
vt 0.43285 0.62482
vt 0.96286 0.54706
vt 0.96286 0.54706
vt 0.90877 0.82008
vt 0.90877 0.82008
vt 0.43900 0.58153
vt 0.87291 0.78696
vt 0.94892 0.59718
vt 0.94564 0.60135
vt 0.88905 0.76282
vt 0.88905 0.76282
vt 0.88905 0.76282
vt 0.87201 0.74333
vt 0.12546 0.32826
vt 0.96142 0.59735
vt 0.12554 0.33299
vt 0.22311 0.49769
vt 0.86857 0.74269
vt 0.43390 0.51799
vt 0.87137 0.73149
vt 0.87137 0.73149
vt 0.87137 0.73149
vt 0.89500 0.73392
vt 0.43933 0.51041
vt 0.43933 0.51041
vt 0.89081 0.73311
vt 0.89081 0.73311
vt 0.89081 0.73311
vt 0.96525 0.61889
vt 0.23750 0.46809
vt 0.90660 0.20764
vt 0.90644 0.23449
vt 0.43757 0.47738
vt 0.91246 0.30952
vt 0.57465 0.90841
vt 0.91246 0.30952
vt 0.87772 0.70336
vt 0.87664 0.69403
vt 0.87664 0.69403
vt 0.87757 0.69384
vt 0.88779 0.69382
vt 0.93827 0.72189
vt 0.25260 0.38814
vt 0.89190 0.61267
vt 0.89190 0.61267
vt 0.89119 0.61616
vt 0.42870 0.39807
vt 0.96225 0.74984
vt 0.28714 0.35305
vt 0.28194 0.36348
vt 0.96225 0.74984
vt 0.28194 0.36348
vt 0.28194 0.36348
vt 0.30689 0.31749
vt 0.30689 0.31749
vt 0.30266 0.32471
vt 0.93737 0.80319
vt 0.40216 0.32124
vt 0.79591 0.48423
vt 0.79591 0.48423
vt 0.79591 0.48423
vt 0.41392 0.30891
vt 0.29479 0.90255
vt 0.26049 0.59624
vt 0.29479 0.90255
vt 0.29479 0.90255
vt 0.29479 0.90255
vt 0.24386 0.59534
vt 0.24636 0.59047
vt 0.73093 0.51826
vt 0.36369 0.60901
vt 0.82485 0.82399
vt 0.81323 0.82608
vt 0.80223 0.82652
vt 0.79542 0.82737
vt 0.25521 0.57788
vt 0.77222 0.78205
vt 0.76400 0.78323
vt 0.23200 0.59213
vt 0.22821 0.60747
vt 0.22821 0.60747
vt 0.22821 0.60747
vt 0.23108 0.60587
vt 0.23108 0.60587
vt 0.80266 0.83314
vt 0.80352 0.84578
vt 0.21069 0.61433
vt 0.21069 0.61433
vt 0.22359 0.60947
vt 0.22359 0.60947
vt 0.22359 0.60947
vt 0.22359 0.60947
vt 0.19365 0.58630
vt 0.19104 0.59627
vt 0.18638 0.58678
vt 0.77414 0.89534
vt 0.18882 0.56428
vt 0.78074 0.83315
vt 0.18283 0.59326
vt 0.18283 0.59326
vt 0.77416 0.90363
vt 0.18778 0.61324
vt 0.17806 0.60585
vt 0.17806 0.60585
vt 0.17806 0.60585
vt 0.17385 0.60664
vt 0.17385 0.60664
vt 0.17385 0.60664
vt 0.17439 0.60049
vt 0.17439 0.60049
vt 0.17439 0.60049
vt 0.80107 0.86450
vt 0.76974 0.52166
vt 0.76974 0.52166
vt 0.93748 0.52189
vt 0.93748 0.52189
vt 0.93748 0.52189
vt 0.41927 0.60059
vt 0.41966 0.61350
vt 0.40905 0.60461
vt 0.41256 0.60102
vt 0.76021 0.83118
vt 0.76021 0.83118
vt 0.79649 0.88308
vt 0.17104 0.60391
vt 0.16359 0.60431
vt 0.16809 0.59777
vt 0.17258 0.59894
vt 0.17258 0.59894
vt 0.87308 0.83889
vt 0.82316 0.89443
vt 0.42003 0.62130
vt 0.42821 0.62947
vt 0.81887 0.89432
vt 0.96352 0.56795
vt 0.95890 0.56196
vt 0.95890 0.56196
vt 0.95726 0.53978
vt 0.19134 0.54024
vt 0.43416 0.57061
vt 0.42913 0.58412
vt 0.42775 0.56608
vt 0.87927 0.77969
vt 0.32448 0.38442
vt 0.43202 0.54579
vt 0.94865 0.57047
vt 0.95731 0.58351
vt 0.95731 0.58351
vt 0.95736 0.61332
vt 0.94231 0.56544
vt 0.94148 0.59821
vt 0.65119 0.74915
vt 0.65119 0.74915
vt 0.89109 0.77467
vt 0.89169 0.79852
vt 0.88260 0.78647
vt 0.87201 0.74333
vt 0.87970 0.74914
vt 0.96173 0.64824
vt 0.21425 0.51543
vt 0.86857 0.74269
vt 0.42546 0.52432
vt 0.42459 0.50952
vt 0.87419 0.71606
vt 0.87419 0.71606
vt 0.87703 0.74561
vt 0.87521 0.73116
vt 0.87521 0.73116
vt 0.19836 0.49945
vt 0.19836 0.49945
vt 0.18886 0.51970
vt 0.18886 0.51970
vt 0.89161 0.75470
vt 0.89810 0.72073
vt 0.90208 0.72147
vt 0.88105 0.73227
vt 0.88341 0.75374
vt 0.87789 0.71650
vt 0.87789 0.71650
vt 0.87789 0.71650
vt 0.88946 0.71861
vt 0.94784 0.62288
vt 0.95524 0.63815
vt 0.96173 0.64824
vt 0.95469 0.64985
vt 0.23039 0.47465
vt 0.31888 0.40580
vt 0.42358 0.47204
vt 0.43798 0.48728
vt 0.43798 0.48728
vt 0.57686 0.90856
vt 0.87352 0.70184
vt 0.12578 0.55633
vt 0.87647 0.66899
vt 0.88517 0.68786
vt 0.88517 0.68786
vt 0.88517 0.68786
vt 0.88779 0.69382
vt 0.88779 0.69382
vt 0.88832 0.70489
vt 0.41227 0.39988
vt 0.41292 0.41142
vt 0.40642 0.41218
vt 0.94217 0.72789
vt 0.41078 0.38701
vt 0.25284 0.40052
vt 0.24749 0.39877
vt 0.24481 0.39791
vt 0.24481 0.39791
vt 0.25739 0.37181
vt 0.25750 0.38828
vt 0.89449 0.62549
vt 0.89449 0.62549
vt 0.89139 0.62564
vt 0.23358 0.41605
vt 0.89119 0.61616
vt 0.88615 0.61489
vt 0.88630 0.61072
vt 0.88581 0.59752
vt 0.89066 0.59693
vt 0.43119 0.41167
vt 0.87512 0.61649
vt 0.42659 0.38299
vt 0.88051 0.59833
vt 0.88150 0.61120
vt 0.88083 0.61498
vt 0.88053 0.62703
vt 0.78469 0.84056
vt 0.78469 0.84056
vt 0.96236 0.76772
vt 0.95676 0.76779
vt 0.95657 0.74824
vt 0.96547 0.74214
vt 0.77854 0.48487
vt 0.77854 0.48487
vt 0.77854 0.48487
vt 0.96113 0.78697
vt 0.96097 0.80044
vt 0.30266 0.32471
vt 0.29848 0.32285
vt 0.30390 0.31279
vt 0.30390 0.31279
vt 0.93737 0.80319
vt 0.94114 0.79995
vt 0.94198 0.80547
vt 0.78400 0.50764
vt 0.78400 0.50764
vt 0.40802 0.32152
vt 0.78366 0.50415
vt 0.89306 0.52752
vt 0.88920 0.52767
vt 0.88892 0.52345
vt 0.79209 0.48884
vt 0.87353 0.52898
vt 0.79400 0.50344
vt 0.41505 0.31325
vt 0.41505 0.31325
vt 0.87856 0.52469
vt 0.87905 0.53521
vt 0.87359 0.53534
vt 0.87359 0.53534
vt 0.79564 0.49392
vt 0.79564 0.49392
vt 0.87893 0.52864
vt 0.87879 0.54671
vt 0.88921 0.53476
vt 0.88938 0.54698
vt 0.88916 0.56520
vt 0.28011 0.32846
vt 0.27150 0.34435
vt 0.28011 0.32846
vt 0.28333 0.32987
vt 0.27842 0.34781
vt 0.29162 0.33405
vt 0.29585 0.33614
vt 0.96097 0.80044
vt 0.95708 0.80051
vt 0.95645 0.78724
vt 0.95077 0.76779
vt 0.94503 0.78732
vt 0.94423 0.74837
vt 0.94798 0.72947
vt 0.40133 0.35249
vt 0.93930 0.74861
vt 0.40814 0.37041
vt 0.40814 0.37041
vt 0.41167 0.35178
vt 0.41383 0.36915
vt 0.41885 0.39930
vt 0.41948 0.36786
vt 0.42179 0.38407
vt 0.42782 0.41199
vt 0.42262 0.41227
vt 0.42262 0.41227
vt 0.42894 0.42856
vt 0.42894 0.42856
vt 0.42894 0.42856
vt 0.42219 0.45002
vt 0.43003 0.43035
vt 0.43003 0.43035
vt 0.87323 0.64688
vt 0.87650 0.64605
vt 0.87650 0.64605
vt 0.88576 0.64597
vt 0.88224 0.66872
vt 0.89122 0.68553
vt 0.89379 0.69526
vt 0.89274 0.66755
vt 0.89548 0.68443
vt 0.89821 0.69559
vt 0.89379 0.69526
vt 0.89913 0.70737
vt 0.89913 0.70737
vt 0.89462 0.70635
vt 0.22132 0.45172
vt 0.90233 0.70854
vt 0.90208 0.72147
vt 0.22012 0.46584
vt 0.21375 0.47673
vt 0.20675 0.48718
vt 0.20033 0.50187
vt 0.21805 0.48082
vt 0.21083 0.48975
vt 0.20399 0.50415
vt 0.19538 0.52327
vt 0.19174 0.52108
vt 0.21647 0.49293
vt 0.20856 0.50696
vt 0.19901 0.52628
vt 0.19134 0.54024
vt 0.18851 0.53619
vt 0.21171 0.50996
vt 0.22070 0.49503
vt 0.22340 0.48665
vt 0.22796 0.47477
vt 0.22456 0.46999
vt 0.32053 0.40577
vt 0.23084 0.45706
vt 0.23659 0.43967
vt 0.32055 0.42586
vt 0.32055 0.42586
vt 0.31888 0.42678
vt 0.24646 0.42050
vt 0.96586 0.71158
vt 0.31888 0.42678
vt 0.96255 0.66991
vt 0.95723 0.69156
vt 0.95510 0.66982
vt 0.94810 0.65097
vt 0.94906 0.64059
vt 0.94906 0.64059
vt 0.94356 0.66976
vt 0.94258 0.65100
vt 0.94275 0.63792
vt 0.94784 0.62288
vt 0.93796 0.65037
vt 0.93723 0.63581
vt 0.41813 0.50565
vt 0.93747 0.61680
vt 0.41424 0.52238
vt 0.94264 0.58574
vt 0.41704 0.47008
vt 0.42459 0.50952
vt 0.41993 0.54143
vt 0.93778 0.58112
vt 0.42603 0.54353
vt 0.42170 0.56171
vt 0.42213 0.58281
vt 0.41688 0.58035
vt 0.41688 0.58035
vt 0.42170 0.56171
vt 0.93678 0.56199
vt 0.94093 0.54301
vt 0.94115 0.52761
vt 0.94648 0.52982
vt 0.94660 0.54604
vt 0.95178 0.53383
vt 0.95210 0.55153
vt 0.95210 0.55153
vt 0.94691 0.52303
vt 0.76462 0.82941
vt 0.77628 0.82759
vt 0.77050 0.82303
vt 0.40107 0.59520
vt 0.75742 0.81495
vt 0.39989 0.59841
vt 0.75157 0.81495
vt 0.75157 0.81495
vt 0.75187 0.80320
vt 0.75187 0.80320
vt 0.75724 0.80294
vt 0.39715 0.60455
vt 0.37378 0.58853
vt 0.35975 0.58156
vt 0.36362 0.57830
vt 0.75661 0.79470
vt 0.37099 0.59355
vt 0.35542 0.58666
vt 0.34461 0.58314
vt 0.34812 0.57797
vt 0.36753 0.60028
vt 0.35030 0.59390
vt 0.34005 0.59026
vt 0.33698 0.58181
vt 0.33903 0.57646
vt 0.34060 0.57266
vt 0.35073 0.57455
vt 0.75231 0.77196
vt 0.75358 0.78288
vt 0.75863 0.78332
vt 0.76325 0.79517
vt 0.77162 0.81181
vt 0.77774 0.80889
vt 0.77746 0.82116
vt 0.21941 0.58810
vt 0.21941 0.58810
vt 0.22633 0.59589
vt 0.22633 0.59589
vt 0.20629 0.59130
vt 0.20715 0.60034
vt 0.29101 0.90225
vt 0.29101 0.90225
vt 0.29101 0.90225
vt 0.29101 0.90225
vt 0.23200 0.59213
vt 0.23200 0.59213
vt 0.75647 0.77204
vt 0.76007 0.77142
vt 0.76060 0.76149
vt 0.76503 0.75970
vt 0.26366 0.58307
vt 0.76503 0.75970
vt 0.75579 0.76268
vt 0.75137 0.76324
vt 0.27589 0.58766
vt 0.26315 0.58609
vt 0.26222 0.59075
vt 0.37986 0.60798
vt 0.37641 0.61500
vt 0.37641 0.61500
vt 0.82111 0.84935
vt 0.39267 0.61731
vt 0.82297 0.83616
vt 0.82297 0.83616
vt 0.81341 0.83397
vt 0.81044 0.86459
vt 0.81223 0.87706
vt 0.80547 0.87660
vt 0.80262 0.88465
vt 0.80715 0.89290
vt 0.80033 0.89127
vt 0.80590 0.89906
vt 0.89705 0.83429
vt 0.80590 0.89906
vt 0.89021 0.83358
vt 0.90233 0.83368
vt 0.90233 0.83368
vt 0.89507 0.81818
vt 0.90068 0.81900
vt 0.16736 0.59004
vt 0.17200 0.59198
vt 0.17200 0.59198
vt 0.17809 0.58399
vt 0.17809 0.58399
vt 0.17544 0.59346
vt 0.77194 0.90314
vt 0.17994 0.56912
vt 0.77115 0.89096
vt 0.77414 0.89534
vt 0.77115 0.89096
vt 0.18298 0.55085
vt 0.18591 0.55602
vt 0.17608 0.56444
vt 0.17957 0.54641
vt 0.18533 0.53252
vt 0.89573 0.78100
vt 0.89975 0.78482
vt 0.18272 0.52979
vt 0.89573 0.78100
vt 0.89404 0.76988
vt 0.89404 0.76988
vt 0.17175 0.56009
vt 0.16861 0.55652
vt 0.88904 0.81678
vt 0.88336 0.81418
vt 0.32178 0.40577
vt 0.87740 0.84075
vt 0.43395 0.62014
vt 0.31907 0.40216
vt 0.88301 0.84216
vt 0.81887 0.89432
vt 0.42800 0.63236
vt 0.42800 0.63236
vt 0.81522 0.88651
vt 0.81817 0.87754
vt 0.41927 0.63175
vt 0.41998 0.62751
vt 0.41927 0.63175
vt 0.40627 0.62584
vt 0.40738 0.62067
vt 0.40738 0.62067
vt 0.82245 0.86520
vt 0.40793 0.61330
vt 0.39493 0.61096
vt 0.90935 0.84553
vt 0.90935 0.84553
vt 0.42840 0.60613
vt 0.41704 0.47008
vt 0.93825 0.66935
vt 0.41510 0.45045
vt 0.41510 0.45045
vt 0.94287 0.70891
vt 0.94007 0.69062
vt 0.94007 0.69062
vt 0.94635 0.69081
vt 0.94880 0.70966
vt 0.95368 0.72933
vt 0.95473 0.71038
vt 0.95918 0.72964
vt 0.96225 0.74984
vt 0.95262 0.69123
vt 0.96586 0.71158
vt 0.96528 0.72643
vt 0.25813 0.40209
vt 0.26263 0.38876
vt 0.24094 0.41885
vt 0.23127 0.43786
vt 0.23701 0.41732
vt 0.22654 0.43600
vt 0.22654 0.43600
vt 0.89168 0.64605
vt 0.22602 0.45424
vt 0.88946 0.71861
vt 0.42461 0.36682
vt 0.41776 0.35093
vt 0.42243 0.35007
vt 0.42461 0.36682
vt 0.87517 0.59900
vt 0.42638 0.34925
vt 0.87867 0.56546
vt 0.87340 0.54694
vt 0.86959 0.53577
vt 0.87340 0.54694
vt 0.41969 0.33147
vt 0.41486 0.33223
vt 0.41139 0.31394
vt 0.78789 0.50452
vt 0.78789 0.50452
vt 0.78355 0.49848
vt 0.79201 0.49902
vt 0.78811 0.49871
vt 0.78385 0.48853
vt 0.30024 0.31033
vt 0.29405 0.31309
vt 0.29026 0.31915
vt 0.95748 0.80823
vt 0.95748 0.80823
vt 0.78366 0.50415
vt 0.77854 0.49817
vt 0.94685 0.80058
vt 0.93997 0.78718
vt 0.93603 0.78658
vt 0.12631 0.56918
vt 0.12631 0.56918
vt 0.12631 0.56918
vt 0.32304 0.30711
vt 0.32304 0.30711
vt 0.65005 0.71810
vt 0.65005 0.71810
vt 0.65005 0.71810
vt 0.65005 0.71810
vt 0.89161 0.75470
vn -0.0532 0.0161 -0.9985
vn -0.2890 0.0828 0.9537
vn 0.0000 0.0000 0.0000
vn 0.0426 0.2140 -0.9759
vn -0.0105 -0.2333 -0.9723
vn -0.8711 0.0029 -0.4911
vn -0.7022 0.7002 -0.1289
vn -0.6267 0.3527 -0.6949
vn 0.2011 -0.1350 -0.9702
vn -0.4612 -0.6131 -0.6414
vn 0.1382 -0.0281 -0.9900
vn 0.0874 0.2175 -0.9721
vn 0.4440 -0.1965 -0.8742
vn 0.3731 0.5761 -0.7272
vn -0.2550 -0.8248 0.5047
vn 0.3011 0.2646 -0.9161
vn -0.5630 0.8228 0.0772
vn 0.0840 -0.0027 -0.9965
vn 0.1603 0.2309 0.9597
vn -0.4674 -0.1563 -0.8701
vn -0.7443 -0.1797 -0.6432
vn 0.1578 0.0399 0.9867
vn 0.7090 0.1775 0.6825
vn 0.7148 0.1782 0.6763
vn 0.3543 0.1258 0.9266
vn -0.9639 -0.2621 0.0472
vn -0.9649 -0.1927 0.1786
vn 0.0000 0.0000 0.0000
vn 0.5014 0.2275 -0.8348
vn 0.9702 0.2320 -0.0702
vn 0.9315 0.3088 0.1920
vn -0.9643 -0.2624 -0.0343
vn -0.7824 -0.2124 -0.5855
vn -0.7516 -0.2308 -0.6180
vn -0.9643 -0.2624 -0.0343
vn -0.0866 0.0035 0.9962
vn 0.6677 0.2607 0.6973
vn 0.4065 0.8169 0.4092
vn 0.6958 0.2552 0.6713
vn 0.9315 0.3088 0.1920
vn 0.7565 0.3856 -0.5282
vn 0.1824 0.0806 0.9799
vn 0.8442 0.5360 -0.0023
vn 0.4554 0.0583 -0.8884
vn 0.5014 0.2275 -0.8348
vn 0.9564 0.2714 -0.1078
vn -0.1340 -0.0540 -0.9895
vn -0.9643 -0.2624 -0.0343
vn -0.0853 -0.0280 0.9960
vn 0.9049 0.2535 0.3420
vn 0.2815 -0.9559 0.0844
vn 0.9460 0.2620 0.1907
vn 0.2766 -0.9565 0.0926
vn 0.2846 -0.9554 0.0790
vn 0.0965 0.0261 0.9950
vn 0.6096 -0.7807 0.1378
vn 0.9473 0.2686 0.1747
vn 0.2436 -0.9698 -0.0089
vn 0.8820 0.2841 -0.3759
vn -0.5143 -0.1204 0.8491
vn 0.1294 -0.1140 -0.9850
vn 0.4744 0.0677 -0.8777
vn 0.9681 0.0552 -0.2444
vn 0.2836 0.0722 -0.9562
vn 0.5943 0.1681 0.7865
vn -0.1554 0.0763 -0.9849
vn -0.2292 -0.1199 -0.9660
vn -0.8229 -0.2146 -0.5261
vn -0.7704 -0.0474 -0.6358
vn -0.6519 -0.1171 -0.7492
vn 0.0867 0.0098 -0.9962
vn -0.0489 -0.5415 -0.8393
vn -0.7989 -0.4288 -0.4218
vn -0.0771 -0.0893 -0.9930
vn -0.0540 -0.7554 0.6531
vn -0.7222 -0.4798 0.4981
vn 0.1196 -0.0572 -0.9912
vn 0.4119 -0.9112 -0.0026
vn 0.9957 0.0769 0.0509
vn 0.4193 -0.8571 0.2992
vn -0.2167 -0.1033 -0.9708
vn 0.0553 -0.0399 -0.9977
vn 0.0426 0.2140 -0.9759
vn 0.5252 -0.0866 -0.8466
vn 0.6900 0.3720 -0.6209
vn 0.0045 -0.2180 -0.9759
vn 0.0208 -0.1458 -0.9891
vn -0.5965 0.8003 -0.0599
vn -0.1788 0.0941 0.9794
vn -0.3607 0.3085 0.8802
vn -0.6702 0.7416 -0.0291
vn -0.6752 0.7366 -0.0387
vn -0.6421 0.7665 -0.0144
vn 0.2032 -0.9397 -0.2752
vn 0.0018 -0.4293 -0.9032
vn 0.4211 -0.9064 0.0331
vn 0.2207 -0.1990 -0.9548
vn -0.8711 0.0029 -0.4911
vn -0.5712 -0.3386 -0.7477
vn 0.7028 0.4094 -0.5818
vn 0.0426 0.2140 -0.9759
vn 0.6989 0.3974 -0.5946
vn -0.7039 0.7004 -0.1182
vn -0.6307 0.7759 -0.0130
vn -0.6267 0.3527 -0.6949
vn -0.6898 0.7235 0.0282
vn -0.5783 -0.3545 -0.7348
vn -0.6267 0.3527 -0.6949
vn -0.8711 0.0029 -0.4911
vn 0.1020 -0.1424 -0.9845
vn 0.1895 -0.2065 -0.9599
vn 0.1387 -0.2843 -0.9487
vn 0.3688 -0.2215 -0.9027
vn -0.6296 -0.2525 -0.7347
vn -0.3356 -0.1805 -0.9246
vn -0.8624 -0.4121 -0.2940
vn -0.4615 -0.6178 -0.6366
vn 0.9783 0.2068 0.0124
vn -0.4627 -0.6446 -0.6086
vn 0.0840 -0.0027 -0.9965
vn 0.3421 0.1228 -0.9316
vn 0.0840 -0.0027 -0.9965
vn 0.4004 0.6175 -0.6771
vn -0.2792 0.4934 -0.8238
vn -0.4598 0.1433 -0.8764
vn 0.3399 0.5257 -0.7798
vn -0.6526 -0.2551 -0.7135
vn 0.1808 0.1849 -0.9660
vn 0.3713 0.5734 -0.7303
vn -0.5861 0.8099 0.0212
vn -0.2792 0.4934 -0.8238
vn -0.5139 0.8515 -0.1041
vn 0.1298 -0.6937 0.7085
vn 0.4734 -0.8805 -0.0235
vn -0.8998 -0.3981 0.1786
vn -0.1767 -0.1309 0.9755
vn -0.2035 -0.0950 0.9745
vn 0.0068 -0.7528 0.6583
vn 0.0997 -0.1905 0.9766
vn 0.3465 -0.5482 0.7612
vn 0.6068 -0.7933 -0.0500
vn -0.1958 0.9199 -0.3399
vn -0.3004 0.3789 -0.8753
vn -0.1142 0.9140 -0.3892
vn 0.1167 0.1022 -0.9879
vn -0.5509 -0.0146 -0.8344
vn 0.0399 0.1791 -0.9830
vn 0.6533 0.5623 0.5069
vn 0.1491 0.3824 0.9119
vn 0.0040 0.0153 0.9999
vn -0.3281 0.6851 0.6504
vn 0.1832 0.9670 0.1772
vn -0.3056 -0.0955 -0.9474
vn -0.8570 -0.1882 -0.4798
vn -0.9257 -0.3708 -0.0750
vn -0.8471 -0.3051 -0.4352
vn -0.2340 -0.0573 -0.9706
vn 0.2532 0.0930 0.9629
vn 0.0231 -0.0077 0.9997
vn 0.0583 0.0209 0.9981
vn 0.8930 0.2197 0.3927
vn 0.8857 0.3241 0.3324
vn -0.0916 0.0108 0.9957
vn -0.9590 -0.2783 0.0534
vn -0.4785 -0.0294 -0.8776
vn -0.9473 -0.2899 -0.1364
vn -0.8950 -0.2280 -0.3834
vn -0.8789 -0.2717 0.3921
vn -0.8956 -0.2463 0.3704
vn 0.3817 0.1950 -0.9035
vn 0.9594 0.2352 0.1554
vn 0.8325 0.0947 -0.5459
vn 0.9095 0.3106 -0.2765
vn 0.9336 0.3059 0.1865
vn 0.5920 0.2728 0.7584
vn 0.8724 0.2938 0.3906
vn -0.8816 -0.3522 -0.3143
vn -0.3276 -0.0972 -0.9398
vn 0.5580 0.2771 0.7822
vn -0.1278 -0.0091 0.9918
vn -0.1676 -0.0687 0.9835
vn 0.9181 0.3599 -0.1661
vn 0.8491 0.3116 0.4265
vn 0.9315 0.3088 0.1920
vn 0.6954 0.6947 0.1840
vn 0.8190 0.3620 0.4452
vn 0.6136 0.2849 -0.7365
vn 0.8077 0.3195 -0.4956
vn 0.7402 0.1695 -0.6507
vn 0.8797 0.1638 -0.4464
vn 0.6777 0.2419 -0.6944
vn 0.8609 0.3360 -0.3821
vn 0.2286 0.1999 -0.9528
vn 0.7163 0.2883 0.6355
vn 0.9457 0.2244 0.2352
vn -0.0379 0.1923 0.9806
vn 0.1066 0.0317 0.9938
vn 0.9481 0.3012 -0.1022
vn 0.4554 0.0583 -0.8884
vn -0.9363 -0.2393 -0.2571
vn -0.8468 -0.3459 -0.4039
vn -0.5846 -0.2374 -0.7758
vn -0.9118 -0.3662 -0.1858
vn -0.5846 -0.2374 -0.7758
vn -0.7636 -0.2098 -0.6107
vn -0.1075 -0.0310 0.9937
vn 0.1824 0.0806 0.9799
vn 0.9613 0.2623 0.0840
vn 0.2722 -0.9570 0.1000
vn 0.9525 0.2398 0.1876
vn 0.0951 0.0253 0.9951
vn 0.9366 0.3102 0.1632
vn 0.9522 0.2931 -0.0856
vn 0.9687 -0.2474 0.0212
vn 0.9382 -0.1427 0.3152
vn 0.8755 -0.4020 0.2679
vn 0.9364 -0.0851 -0.3405
vn 0.9117 0.2963 -0.2846
vn -0.3242 -0.0879 0.9419
vn -0.1461 -0.0761 0.9863
vn -0.8219 -0.3344 0.4612
vn -0.9059 -0.2962 0.3025
vn -0.3158 -0.0535 0.9473
vn 0.0535 -0.0580 -0.9969
vn 0.1507 -0.0273 -0.9882
vn 0.3930 0.0961 -0.9145
vn 0.9123 0.1666 -0.3740
vn 0.9690 0.1952 -0.1513
vn 0.0933 -0.0877 -0.9918
vn 0.7222 0.0554 -0.6894
vn 0.9123 0.1666 -0.3740
vn 0.6562 0.0596 -0.7523
vn 0.8024 0.3270 -0.4992
vn 0.9691 0.2449 -0.0283
vn 0.9573 -0.2637 -0.1183
vn 0.9905 -0.0275 -0.1351
vn 0.9663 0.2081 -0.1518
vn 0.9587 0.2248 -0.1740
vn 0.5040 0.0353 0.8630
vn 0.9748 0.2199 0.0373
vn 0.3408 0.0604 0.9382
vn 0.9700 0.2283 -0.0835
vn 0.9964 -0.0843 -0.0097
vn 0.9555 -0.2948 0.0082
vn 0.9703 0.2407 0.0237
vn -0.1554 0.0763 -0.9849
vn -0.8683 0.3395 0.3615
vn -0.4225 -0.1536 -0.8933
vn -0.9088 -0.2484 -0.3352
vn -0.9061 -0.2007 -0.3724
vn -0.9736 0.2279 -0.0139
vn -0.1895 -0.9171 -0.3508
vn -0.8314 -0.4814 -0.2777
vn -0.8556 -0.4811 0.1911
vn -0.5214 -0.1684 -0.8365
vn -0.5992 -0.2229 -0.7689
vn -0.5382 -0.1708 -0.8253
vn 0.0345 -0.0864 -0.9957
vn 0.0977 -0.9948 -0.0301
vn -0.1895 -0.9171 -0.3508
vn 0.0859 -0.1550 0.9842
vn -0.7406 -0.5583 0.3739
vn -0.3437 -0.8383 0.4233
vn 0.0909 -0.2755 0.9570
vn 0.1885 -0.6076 0.7716
vn 0.0321 -0.1025 0.9942
vn -0.1073 -0.7786 0.6183
vn 0.3753 0.0838 -0.9231
vn 0.9946 0.0945 -0.0425
vn 0.9967 -0.0294 0.0757
vn 0.3179 -0.9480 -0.0135
vn 0.7456 -0.0202 0.6661
vn 0.9683 -0.0541 0.2440
vn 0.2201 -0.2708 0.9371
vn 0.7170 -0.0546 0.6949
vn 0.6769 -0.7034 0.2168
vn 0.9957 0.0873 0.0295
vn 0.7874 0.0357 0.6154
vn 0.9860 0.0434 0.1609
vn 0.6601 -0.7396 0.1316
vn 0.9983 -0.0583 -0.0055
vn 0.9950 -0.0091 0.0991
vn 0.9923 0.0917 0.0837
vn 0.9855 0.1197 -0.1204
vn 0.9545 0.1442 -0.2609
vn 0.9470 0.2280 -0.2261
vn 0.9533 0.1066 -0.2824
vn 0.9196 0.2518 -0.3015
vn 0.4846 0.0609 -0.8726
vn 0.0552 -0.0613 -0.9966
vn 0.0372 0.0012 -0.9993
vn -0.0087 -0.0545 -0.9985
vn -0.3130 -0.1165 -0.9426
vn -0.8838 -0.4535 -0.1147
vn -0.8694 -0.4894 -0.0677
vn -0.9374 -0.3132 -0.1525
vn -0.9660 -0.2532 -0.0526
vn -0.9376 -0.3330 0.1003
vn -0.9400 -0.2204 0.2603
vn -0.9543 -0.2734 0.1206
vn -0.8666 -0.1990 0.4576
vn -0.7111 -0.1225 0.6924
vn -0.0557 0.0269 0.9981
vn -0.7407 -0.1135 0.6622
vn -0.0272 -0.0105 0.9996
vn 0.0606 0.0449 0.9972
vn -0.0166 -0.0211 0.9996
vn 0.2419 0.0916 0.9660
vn 0.2622 0.0299 0.9646
vn 0.2756 0.0378 0.9605
vn -0.0236 -0.0458 0.9987
vn 0.2411 0.0783 0.9673
vn -0.1283 -0.0656 0.9896
vn 0.9049 0.2535 0.3420
vn 0.9877 -0.0382 0.1515
vn -0.1422 -0.0491 0.9886
vn 0.9113 -0.0096 0.4116
vn 0.9049 0.2535 0.3420
vn 0.5691 0.2119 0.7945
vn 0.5691 0.2119 0.7945
vn 0.9554 0.2954 0.0053
vn 0.9522 0.2977 -0.0688
vn 0.9439 0.3229 -0.0697
vn 0.9570 -0.1234 -0.2625
vn 0.8460 0.0193 -0.5329
vn 0.9057 0.2954 -0.3040
vn 0.9313 0.2561 -0.2592
vn 0.6543 0.0669 -0.7533
vn 0.8657 0.2644 -0.4249
vn 0.7539 0.1595 -0.6374
vn 0.9227 0.2849 -0.2599
vn 0.8912 0.2657 -0.3676
vn 0.2812 -0.1451 -0.9486
vn 0.4329 0.0786 -0.8980
vn 0.8547 0.3660 -0.3680
vn 0.3197 -0.0969 -0.9425
vn 0.2529 0.0641 -0.9654
vn 0.2828 0.2116 -0.9355
vn 0.4906 0.2238 -0.8422
vn -0.3066 -0.0407 -0.9510
vn 0.1080 0.1170 -0.9872
vn 0.2372 0.1381 -0.9616
vn 0.2864 0.0264 -0.9577
vn 0.5812 0.1118 -0.8060
vn -0.1324 -0.0470 -0.9901
vn 0.0103 0.0551 -0.9984
vn 0.0588 -0.0259 -0.9979
vn 0.0022 0.0339 -0.9994
vn 0.2479 0.0468 -0.9677
vn -0.2358 -0.0266 -0.9714
vn -0.2948 -0.0555 -0.9539
vn -0.1805 -0.0722 -0.9809
vn -0.2480 -0.1040 -0.9632
vn 0.2616 -0.0951 -0.9605
vn -0.7488 -0.2087 -0.6291
vn 0.2185 -0.1070 -0.9699
vn 0.0764 0.0821 -0.9937
vn -0.5388 -0.1872 -0.8214
vn 0.1239 0.0760 -0.9894
vn -0.5570 -0.1894 -0.8086
vn -0.1236 0.0121 -0.9923
vn -0.8392 -0.2827 -0.4645
vn -0.3432 -0.0905 -0.9349
vn -0.9015 -0.2211 -0.3720
vn -0.8616 -0.2937 -0.4140
vn -0.9635 -0.2217 -0.1498
vn -0.9311 -0.3616 0.0482
vn -0.8011 -0.4111 0.4351
vn -0.8149 -0.4689 -0.3406
vn -0.9452 -0.2276 0.2341
vn -0.8941 -0.3095 0.3237
vn -0.8312 -0.3188 0.4556
vn -0.8575 -0.2405 0.4548
vn -0.8252 -0.2755 0.4931
vn -0.8210 -0.2616 0.5075
vn -0.3750 -0.0500 0.9257
vn -0.7770 -0.2181 0.5906
vn -0.3750 -0.0500 0.9257
vn -0.8415 -0.2180 0.4942
vn -0.1041 -0.0376 0.9939
vn -0.1619 -0.0372 0.9861
vn -0.1749 -0.0551 0.9830
vn -0.3750 -0.0500 0.9257
vn -0.1170 -0.0344 0.9925
vn -0.0563 -0.0304 0.9980
vn -0.3155 -0.1119 0.9423
vn -0.5452 -0.1838 0.8179
vn -0.7817 -0.3529 0.5143
vn -0.5721 -0.1462 0.8070
vn -0.8388 -0.2792 0.4674
vn -0.8666 -0.3422 0.3631
vn -0.8996 -0.4183 0.1258
vn -0.9030 -0.4297 -0.0015
vn -0.9444 -0.3034 0.1269
vn -0.9007 -0.3833 -0.2043
vn -0.9155 -0.3391 -0.2166
vn -0.9549 -0.2902 -0.0633
vn -0.8973 -0.4279 -0.1085
vn 0.7257 -0.6858 -0.0543
vn 0.7667 -0.6399 -0.0523
vn 0.7496 -0.6600 -0.0505
vn 0.7358 -0.6772 -0.0094
vn 0.6484 -0.7531 0.1118
vn 0.1777 -0.1802 0.9674
vn 0.0592 -0.1508 0.9868
vn 0.6222 -0.7511 0.2206
vn 0.2583 -0.4639 0.8474
vn 0.7847 -0.6199 0.0007
vn 0.7387 -0.6737 0.0234
vn 0.1314 -0.1820 0.9745
vn 0.2049 -0.3067 0.9295
vn 0.2658 -0.4463 0.8545
vn 0.4109 -0.5388 0.7354
vn 0.8683 -0.4948 0.0354
vn 0.1113 -0.2033 0.9728
vn 0.0992 -0.2679 0.9583
vn -0.0506 -0.4810 0.8753
vn 0.1072 -0.5971 0.7950
vn 0.0065 -0.0553 0.9984
vn -0.0800 -0.0863 0.9931
vn -0.2941 -0.2492 0.9227
vn -0.0622 -0.3663 0.9284
vn 0.0906 -0.4027 0.9108
vn 0.1499 -0.4687 0.8706
vn 0.2139 -0.6423 0.7360
vn 0.5327 -0.8408 0.0970
vn 0.5084 -0.8510 0.1313
vn 0.5240 -0.8427 0.1237
vn 0.6669 -0.7228 0.1811
vn 0.6887 -0.7238 -0.0425
vn 0.2163 -0.3188 -0.9228
vn 0.7484 -0.6611 -0.0535
vn 0.2994 -0.5395 -0.7869
vn 0.2163 -0.3188 -0.9228
vn -0.0440 -0.4869 -0.8724
vn -0.5603 -0.3150 -0.7661
vn 0.2208 -0.2734 -0.9362
vn 0.1551 -0.1896 -0.9695
vn -0.5470 -0.2873 -0.7863
vn -0.5466 -0.2887 -0.7860
vn 0.6951 0.3862 -0.6064
vn 0.7192 0.2851 -0.6336
vn -0.0825 -0.4770 -0.8750
vn 0.4941 -0.1298 -0.8596
vn 0.5402 -0.8354 -0.1016
vn 0.4312 -0.8478 -0.3085
vn 0.6722 -0.6818 -0.2884
vn 0.6471 -0.6231 -0.4393
vn 0.0495 -0.8614 -0.5056
vn 0.5663 -0.4121 -0.7138
vn 0.6418 -0.7667 0.0195
vn 0.5798 -0.7902 0.1987
vn 0.4274 -0.2616 -0.8654
vn 0.3010 -0.3685 -0.8795
vn 0.1753 -0.2577 -0.9502
vn -0.0351 -0.1067 0.9937
vn -0.2005 0.0432 0.9787
vn -0.4051 0.5116 0.7578
vn -0.6141 0.7817 0.1085
vn 0.0247 -0.0156 0.9996
vn -0.4205 0.6192 0.6632
vn -0.6673 0.7396 0.0880
vn -0.7181 0.6916 0.0772
vn -0.6204 0.7805 0.0774
vn -0.4365 0.8898 0.1328
vn -0.4972 0.8594 -0.1191
vn -0.1657 0.9769 -0.1350
vn 0.2527 0.9658 0.0581
vn 0.0319 0.9835 -0.1779
vn 0.4695 0.8823 0.0341
vn 0.8351 0.4434 -0.3255
vn 0.7605 0.6492 0.0121
vn 0.8376 0.5446 0.0427
vn 0.3649 0.2182 -0.9051
vn 0.7570 0.3201 -0.5696
vn 0.8754 0.3561 -0.3268
vn 0.8126 0.3634 -0.4557
vn 0.3031 0.2091 -0.9297
vn 0.2283 0.3292 -0.9163
vn 0.0000 0.0000 0.0000
vn 0.0000 0.0000 0.0000
vn -0.4111 -0.3720 -0.8323
vn -0.0996 0.2754 -0.9562
vn -0.4621 -0.6300 -0.6241
vn -0.4111 -0.3720 -0.8323
vn -0.0288 -0.1263 -0.9916
vn -0.4019 -0.3526 -0.8451
vn -0.6015 -0.2686 -0.7523
vn 0.0271 -0.0106 -0.9996
vn -0.1335 -0.0820 -0.9876
vn 0.3087 0.1006 -0.9458
vn 0.4557 0.1216 -0.8818
vn 0.5725 0.0797 -0.8161
vn 0.6910 0.1570 -0.7056
vn 0.7281 0.2239 -0.6479
vn 0.8777 0.0870 -0.4712
vn 0.8330 0.2247 -0.5056
vn 0.8853 0.0758 -0.4587
vn 0.9594 0.2352 0.1554
vn 0.3514 0.1326 -0.9268
vn 0.8761 0.2911 -0.3843
vn 0.9163 0.3869 -0.1037
vn 0.9044 0.3838 0.1863
vn 0.8245 0.5099 0.2453
vn 0.6909 0.6441 0.3284
vn 0.1316 0.0886 0.9873
vn 0.6707 0.1724 0.7214
vn 0.7383 0.6589 0.1445
vn 0.5722 0.7397 0.3541
vn -0.1622 0.9492 0.2695
vn -0.3281 0.6851 0.6504
vn -0.0910 0.9741 0.2068
vn -0.3817 0.8507 0.3613
vn -0.2612 0.3498 0.8997
vn -0.1851 0.2633 0.9468
vn -0.3599 0.8150 0.4541
vn 0.1341 0.1615 0.9777
vn 0.0203 0.2204 0.9752
vn 0.1045 -0.0343 0.9939
vn -0.5963 0.7715 0.2218
vn 0.1600 -0.1296 0.9786
vn 0.1278 -0.1407 0.9818
vn 0.0199 -0.0125 0.9997
vn 0.6618 0.1712 0.7298
vn -0.0593 -0.0723 0.9956
vn -0.6425 -0.1413 0.7532
vn -0.9187 -0.2161 0.3306
vn -0.2020 -0.0698 0.9769
vn -0.6425 -0.1413 0.7532
vn -0.9263 -0.3144 0.2079
vn -0.6425 -0.1413 0.7532
vn -0.9810 -0.1726 0.0888
vn -0.9733 -0.2102 0.0923
vn -0.9532 -0.2995 0.0414
vn -0.9422 -0.3092 -0.1288
vn -0.9516 -0.3073 0.0032
vn -0.1554 0.0763 -0.9849
vn -0.8084 -0.1641 -0.5653
vn -0.9611 -0.2571 -0.1014
vn -0.1568 -0.0686 -0.9852
vn 0.0542 -0.0393 -0.9978
vn -0.1030 -0.0859 -0.9910
vn 0.0928 -0.0761 -0.9928
vn 0.1356 0.0880 -0.9869
vn 0.2008 0.1486 -0.9683
vn 0.3727 0.1556 -0.9148
vn 0.3141 0.1627 -0.9354
vn 0.9042 0.2795 -0.3228
vn 0.9062 0.3250 -0.2704
vn 0.1422 -0.1050 -0.9843
vn 0.9197 0.2935 -0.2610
vn 0.5943 0.1681 0.7865
vn 0.3205 0.0729 0.9445
vn 0.5488 0.1200 0.8273
vn 0.3410 0.1017 0.9346
vn 0.5943 0.1681 0.7865
vn 0.9534 0.2383 0.1851
vn 0.9694 0.2423 0.0397
vn 0.5940 0.1342 0.7932
vn 0.7628 0.0020 0.6466
vn 0.9707 0.0889 0.2233
vn 0.4278 0.0880 0.8996
vn 0.2646 -0.0213 0.9641
vn 0.1286 -0.3572 0.9251
vn 0.1310 -0.5407 0.8310
vn 0.1471 -0.9346 0.3239
vn -0.1706 -0.9661 0.1938
vn 0.4767 -0.8603 0.1806
vn 0.1846 -0.9705 0.1547
vn -0.1411 -0.9894 -0.0348
vn 0.0748 -0.2340 -0.9694
vn 0.1778 -0.0781 -0.9810
vn 0.2703 -0.0187 -0.9626
vn -0.8231 -0.5652 0.0547
vn -0.3043 -0.9524 0.0173
vn -0.3145 -0.8973 0.3096
vn -0.7554 -0.6476 0.0997
vn -0.8576 -0.5080 0.0800
vn -0.9033 -0.3266 0.2781
vn -0.1206 -0.0888 0.9887
vn 0.1051 0.0309 0.9940
vn 0.1094 0.2225 0.9688
vn 0.8459 0.2927 0.4459
vn 0.7822 0.2861 0.5535
vn 0.8505 0.3171 0.4196
vn 0.5014 0.2275 -0.8348
vn 0.4554 0.0583 -0.8884
vn 0.7553 0.3434 -0.5583
vn 0.3817 0.1950 -0.9035
vn 0.9594 0.2352 0.1554
f 1/1/1 81/81/81 86/86/86
f 1/1/1 86/86/86 87/87/87
f 1/1/1 87/87/87 82/82/82
f 5/5/5 87/87/87 97/97/97
f 7/7/7 93/93/93 92/92/92
f 7/7/7 92/92/92 103/103/103
f 7/7/7 103/103/103 104/104/104
f 7/7/7 104/104/104 106/106/106
f 6/6/6 109/109/109 98/98/98
f 6/6/6 98/98/98 3/3/3
f 13/13/13 118/118/118 113/113/113
f 13/13/13 113/113/113 112/112/112
f 14/14/14 126/126/126 129/129/129
f 14/14/14 129/129/129 123/123/123
f 17/17/17 130/130/130 132/132/132
f 138/138/138 140/140/140 133/133/133
f 138/138/138 133/133/133 15/15/15
f 139/139/139 136/136/136 137/137/137
f 19/19/19 506/506/506 149/149/149
f 19/19/19 150/150/150 506/506/506
f 21/21/21 154/154/154 156/156/156
f 20/20/20 114/114/114 115/115/115
f 20/20/20 115/115/115 157/157/157
f 21/21/21 156/156/156 116/116/116
f 20/20/20 157/157/157 153/153/153
f 22/22/22 158/158/158 25/25/25
f 22/22/22 159/159/159 160/160/160
f 22/22/22 160/160/160 158/158/158
f 25/25/25 158/158/158 163/163/163
f 26/26/26 164/164/164 166/166/166
f 26/26/26 166/166/166 167/167/167
f 26/26/26 168/168/168 164/164/164
f 26/26/26 27/27/27 169/169/169
f 26/26/26 169/169/169 168/168/168
f 30/30/30 173/173/173 174/174/174
f 30/30/30 174/174/174 195/195/195
f 36/36/36 180/180/180 181/181/181
f 37/37/37 39/39/39 175/175/175
f 37/37/37 175/175/175 179/179/179
f 38/38/38 43/43/43 185/185/185
f 43/43/43 182/182/182 185/185/185
f 40/40/40 184/184/184 31/31/31
f 41/41/41 188/188/188 190/190/190
f 41/41/41 190/190/190 191/191/191
f 41/41/41 192/192/192 335/335/335
f 41/41/41 335/335/335 188/188/188
f 46/46/46 198/198/198 551/551/551
f 200/200/200 26/26/26 167/167/167
f 200/200/200 167/167/167 201/201/201
f 201/201/201 167/167/167 177/177/177
f 177/177/177 203/203/203 201/201/201
f 49/49/49 207/207/207 42/42/42
f 51/51/51 209/209/209 53/53/53
f 51/51/51 53/53/53 54/54/54
f 52/52/52 210/210/210 208/208/208
f 52/52/52 57/57/57 210/210/210
f 52/52/52 212/212/212 57/57/57
f 56/56/56 215/215/215 216/216/216
f 56/56/56 216/216/216 58/58/58
f 59/59/59 218/218/218 198/198/198
f 60/60/60 219/219/219 220/220/220
f 60/60/60 223/223/223 219/219/219
f 61/61/61 229/229/229 224/224/224
f 61/61/61 224/224/224 225/225/225
f 62/62/62 230/230/230 232/232/232
f 62/62/62 232/232/232 64/64/64
f 63/63/63 227/227/227 231/231/231
f 63/63/63 235/235/235 236/236/236
f 63/63/63 236/236/236 237/237/237
f 63/63/63 237/237/237 238/238/238
f 63/63/63 238/238/238 228/228/228
f 68/68/68 249/249/249 250/250/250
f 71/71/71 543/543/543 292/292/292
f 71/71/71 292/292/292 67/67/67
f 73/73/73 253/253/253 256/256/256
f 73/73/73 256/256/256 257/257/257
f 74/74/74 258/258/258 72/72/72
f 72/72/72 260/260/260 252/252/252
f 76/76/76 262/262/262 577/577/577
f 261/261/261 264/264/264 266/266/266
f 75/75/75 263/263/263 267/267/267
f 75/75/75 267/267/267 265/265/265
f 79/79/79 269/269/269 270/270/270
f 77/77/77 572/572/572 268/268/268
f 78/78/78 271/271/271 259/259/259
f 80/80/80 568/568/568 276/276/276
f 282/282/282 277/277/277 279/279/279
f 282/282/282 279/279/279 273/273/273
f 282/282/282 273/273/273 281/281/281
f 277/277/277 282/282/282 269/269/269
f 277/277/277 269/269/269 284/284/284
f 277/277/277 284/284/284 285/285/285
f 277/277/277 285/285/285 283/283/283
f 285/285/285 286/286/286 283/283/283
f 285/285/285 284/284/284 287/287/287
f 285/285/285 287/287/287 288/288/288
f 285/285/285 288/288/288 286/286/286
f 288/288/288 238/238/238 286/286/286
f 290/290/290 291/291/291 229/229/229
f 290/290/290 229/229/229 61/61/61
f 291/291/291 292/292/292 543/543/543
f 291/291/291 543/543/543 229/229/229
f 291/291/291 290/290/290 292/292/292
f 292/292/292 572/572/572 258/258/258
f 292/292/292 258/258/258 74/74/74
f 292/292/292 74/74/74 293/293/293
f 292/292/292 293/293/293 67/67/67
f 293/293/293 74/74/74 255/255/255
f 293/293/293 255/255/255 248/248/248
f 293/293/293 248/248/248 67/67/67
f 294/294/294 295/295/295 296/296/296
f 294/294/294 296/296/296 249/249/249
f 294/294/294 249/249/249 68/68/68
f 296/296/296 297/297/297 249/249/249
f 297/297/297 250/250/250 249/249/249
f 297/297/297 296/296/296 298/298/298
f 297/297/297 298/298/298 299/299/299
f 299/299/299 222/222/222 300/300/300
f 299/299/299 300/300/300 297/297/297
f 299/299/299 301/301/301 222/222/222
f 302/302/302 304/304/304 223/223/223
f 302/302/302 223/223/223 60/60/60
f 303/303/303 305/305/305 306/306/306
f 303/303/303 306/306/306 223/223/223
f 306/306/306 307/307/307 219/219/219
f 306/306/306 219/219/219 223/223/223
f 306/306/306 308/308/308 309/309/309
f 306/306/306 309/309/309 307/307/307
f 309/309/309 310/310/310 311/311/311
f 309/309/309 311/311/311 307/307/307
f 309/309/309 241/241/241 239/239/239
f 309/309/309 239/239/239 310/310/310
f 311/311/311 313/313/313 316/316/316
f 311/311/311 316/316/316 220/220/220
f 311/311/311 220/220/220 219/219/219
f 311/311/311 219/219/219 307/307/307
f 312/312/312 310/310/310 317/317/317
f 312/312/312 317/317/317 315/315/315
f 318/318/318 50/50/50 314/314/314
f 319/319/319 320/320/320 212/212/212
f 321/321/321 240/240/240 245/245/245
f 321/321/321 245/245/245 322/322/322
f 321/321/321 322/322/322 323/323/323
f 321/321/321 323/323/323 212/212/212
f 323/323/323 213/213/213 57/57/57
f 323/323/323 57/57/57 212/212/212
f 323/323/323 327/327/327 213/213/213
f 324/324/324 325/325/325 217/217/217
f 324/324/324 217/217/217 214/214/214
f 327/327/327 323/323/323 326/326/326
f 329/329/329 331/331/331 332/332/332
f 328/328/328 333/333/333 334/334/334
f 328/328/328 334/334/334 330/330/330
f 335/335/335 192/192/192 331/331/331
f 334/334/334 333/333/333 336/336/336
f 334/334/334 336/336/336 337/337/337
f 334/334/334 337/337/337 338/338/338
f 334/334/334 338/338/338 193/193/193
f 338/338/338 339/339/339 187/187/187
f 338/338/338 187/187/187 193/193/193
f 338/338/338 337/337/337 341/341/341
f 338/338/338 341/341/341 342/342/342
f 338/338/338 342/342/342 339/339/339
f 342/342/342 343/343/343 344/344/344
f 342/342/342 344/344/344 339/339/339
f 342/342/342 341/341/341 345/345/345
f 342/342/342 345/345/345 346/346/346
f 342/342/342 346/346/346 347/347/347
f 342/342/342 347/347/347 343/343/343
f 347/347/347 348/348/348 349/349/349
f 347/347/347 349/349/349 343/343/343
f 347/347/347 346/346/346 350/350/350
f 347/347/347 350/350/350 157/157/157
f 347/347/347 157/157/157 348/348/348
f 350/350/350 346/346/346 345/345/345
f 350/350/350 345/345/345 351/351/351
f 350/350/350 351/351/351 178/178/178
f 350/350/350 178/178/178 153/153/153
f 350/350/350 153/153/153 157/157/157
f 351/351/351 345/345/345 352/352/352
f 351/351/351 352/352/352 47/47/47
f 351/351/351 47/47/47 178/178/178
f 352/352/352 353/353/353 47/47/47
f 353/353/353 352/352/352 340/340/340
f 356/356/356 357/357/357 359/359/359
f 355/355/355 358/358/358 360/360/360
f 355/355/355 360/360/360 205/205/205
f 363/363/363 361/361/361 542/542/542
f 363/363/363 542/542/542 540/540/540
f 363/363/363 202/202/202 204/204/204
f 364/364/364 362/362/362 365/365/365
f 364/364/364 365/365/365 366/366/366
f 364/364/364 366/366/366 203/203/203
f 364/364/364 203/203/203 177/177/177
f 366/366/366 365/365/365 539/539/539
f 366/366/366 367/367/367 203/203/203
f 367/367/367 369/369/369 201/201/201
f 367/367/367 201/201/201 203/203/203
f 367/367/367 366/366/366 370/370/370
f 367/367/367 370/370/370 371/371/371
f 367/367/367 371/371/371 372/372/372
f 367/367/367 372/372/372 368/368/368
f 372/372/372 373/373/373 368/368/368
f 372/372/372 371/371/371 374/374/374
f 372/372/372 374/374/374 375/375/375
f 372/372/372 375/375/375 377/377/377
f 377/377/377 379/379/379 169/169/169
f 377/377/377 169/169/169 372/372/372
f 376/376/376 383/383/383 378/378/378
f 381/381/381 181/181/181 180/180/180
f 381/381/381 180/180/180 384/384/384
f 381/381/381 384/384/384 382/382/382
f 384/384/384 160/160/160 385/385/385
f 384/384/384 385/385/385 382/382/382
f 384/384/384 180/180/180 36/36/36
f 384/384/384 36/36/36 163/163/163
f 384/384/384 163/163/163 158/158/158
f 384/384/384 158/158/158 160/160/160
f 389/389/389 386/386/386 387/387/387
f 385/385/385 160/160/160 159/159/159
f 385/385/385 159/159/159 386/386/386
f 390/390/390 388/388/388 391/391/391
f 390/390/390 391/391/391 168/168/168
f 390/390/390 168/168/168 379/379/379
f 391/391/391 392/392/392 393/393/393
f 391/391/391 393/393/393 394/394/394
f 391/391/391 394/394/394 164/164/164
f 391/391/391 164/164/164 168/168/168
f 391/391/391 388/388/388 135/135/135
f 391/391/391 135/135/135 392/392/392
f 394/394/394 393/393/393 395/395/395
f 394/394/394 395/395/395 397/397/397
f 394/394/394 397/397/397 166/166/166
f 394/394/394 166/166/166 164/164/164
f 397/397/397 395/395/395 156/156/156
f 397/397/397 156/156/156 154/154/154
f 396/396/396 155/155/155 33/33/33
f 396/396/396 33/33/33 165/165/165
f 395/395/395 398/398/398 116/116/116
f 395/395/395 116/116/116 156/156/156
f 395/395/395 393/393/393 398/398/398
f 398/398/398 393/393/393 392/392/392
f 398/398/398 392/392/392 135/135/135
f 399/399/399 134/134/134 141/141/141
f 399/399/399 141/141/141 402/402/402
f 399/399/399 402/402/402 401/401/401
f 402/402/402 403/403/403 401/401/401
f 402/402/402 406/406/406 403/403/403
f 406/406/406 408/408/408 409/409/409
f 406/406/406 409/409/409 403/403/403
f 405/405/405 404/404/404 410/410/410
f 405/405/405 410/410/410 411/411/411
f 405/405/405 411/411/411 407/407/407
f 411/411/411 412/412/412 413/413/413
f 411/411/411 413/413/413 407/407/407
f 411/411/411 410/410/410 415/415/415
f 411/411/411 415/415/415 416/416/416
f 411/411/411 416/416/416 412/412/412
f 416/416/416 417/417/417 418/418/418
f 416/416/416 418/418/418 412/412/412
f 416/416/416 415/415/415 419/419/419
f 416/416/416 419/419/419 420/420/420
f 416/416/416 420/420/420 421/421/421
f 416/416/416 421/421/421 417/417/417
f 422/422/422 423/423/423 418/418/418
f 422/422/422 418/418/418 417/417/417
f 423/423/423 424/424/424 425/425/425
f 423/423/423 425/425/425 418/418/418
f 425/425/425 413/413/413 412/412/412
f 425/425/425 412/412/412 418/418/418
f 427/427/427 428/428/428 429/429/429
f 414/414/414 409/409/409 408/408/408
f 430/430/430 403/403/403 409/409/409
f 430/430/430 432/432/432 401/401/401
f 430/430/430 401/401/401 403/403/403
f 432/432/432 400/400/400 399/399/399
f 432/432/432 399/399/399 401/401/401
f 437/437/437 110/110/110 438/438/438
f 437/437/437 438/438/438 9/9/9
f 437/437/437 9/9/9 111/111/111
f 436/436/436 439/439/439 99/99/99
f 436/436/436 99/99/99 107/107/107
f 435/435/435 433/433/433 443/443/443
f 435/435/435 443/443/443 440/440/440
f 444/444/444 86/86/86 84/84/84
f 444/444/444 84/84/84 442/442/442
f 97/97/97 434/434/434 431/431/431
f 97/97/97 87/87/87 86/86/86
f 429/429/429 428/428/428 96/96/96
f 428/428/428 445/445/445 446/446/446
f 428/428/428 446/446/446 96/96/96
f 428/428/428 427/427/427 426/426/426
f 428/428/428 426/426/426 445/445/445
f 446/446/446 447/447/447 448/448/448
f 446/446/446 449/449/449 94/94/94
f 446/446/446 94/94/94 96/96/96
f 446/446/446 445/445/445 451/451/451
f 446/446/446 451/451/451 447/447/447
f 451/451/451 445/445/445 426/426/426
f 451/451/451 426/426/426 452/452/452
f 450/450/450 453/453/453 454/454/454
f 454/454/454 455/455/455 5/5/5
f 454/454/454 5/5/5 95/95/95
f 455/455/455 82/82/82 87/87/87
f 455/455/455 87/87/87 5/5/5
f 420/420/420 419/419/419 89/89/89
f 420/420/420 89/89/89 2/2/2
f 419/419/419 415/415/415 456/456/456
f 419/419/419 456/456/456 457/457/457
f 419/419/419 457/457/457 89/89/89
f 457/457/457 456/456/456 460/460/460
f 458/458/458 461/461/461 90/90/90
f 458/458/458 90/90/90 89/89/89
f 462/462/462 459/459/459 463/463/463
f 462/462/462 463/463/463 91/91/91
f 462/462/462 91/91/91 88/88/88
f 463/463/463 104/104/104 103/103/103
f 463/463/463 103/103/103 92/92/92
f 463/463/463 92/92/92 91/91/91
f 463/463/463 459/459/459 464/464/464
f 463/463/463 464/464/464 130/130/130
f 463/463/463 130/130/130 104/104/104
f 464/464/464 465/465/465 466/466/466
f 464/464/464 466/466/466 132/132/132
f 464/464/464 132/132/132 130/130/130
f 466/466/466 465/465/465 467/467/467
f 466/466/466 467/467/467 142/142/142
f 466/466/466 142/142/142 132/132/132
f 467/467/467 468/468/468 469/469/469
f 467/467/467 469/469/469 144/144/144
f 467/467/467 144/144/144 142/142/142
f 469/469/469 468/468/468 470/470/470
f 472/472/472 473/473/473 471/471/471
f 475/475/475 471/471/471 476/476/476
f 475/475/475 476/476/476 477/477/477
f 474/474/474 478/478/478 145/145/145
f 474/474/474 145/145/145 16/16/16
f 478/478/478 479/479/479 147/147/147
f 478/478/478 147/147/147 145/145/145
f 480/480/480 479/479/479 481/481/481
f 487/487/487 482/482/482 485/485/485
f 484/484/484 119/119/119 117/117/117
f 484/484/484 117/117/117 10/10/10
f 487/487/487 486/486/486 489/489/489
f 487/487/487 489/489/489 490/490/490
f 488/488/488 490/490/490 115/115/115
f 488/488/488 115/115/115 114/114/114
f 490/490/490 489/489/489 349/349/349
f 490/490/490 349/349/349 348/348/348
f 490/490/490 348/348/348 157/157/157
f 490/490/490 157/157/157 115/115/115
f 489/489/489 486/486/486 491/491/491
f 489/489/489 491/491/491 492/492/492
f 489/489/489 492/492/492 493/493/493
f 489/489/489 493/493/493 349/349/349
f 493/493/493 492/492/492 494/494/494
f 493/493/493 494/494/494 189/189/189
f 493/493/493 189/189/189 344/344/344
f 493/493/493 344/344/344 343/343/343
f 493/493/493 343/343/343 349/349/349
f 496/496/496 495/495/495 497/497/497
f 496/496/496 497/497/497 498/498/498
f 496/496/496 498/498/498 191/191/191
f 496/496/496 191/191/191 190/190/190
f 498/498/498 497/497/497 172/172/172
f 497/497/497 501/501/501 173/173/173
f 497/497/497 173/173/173 172/172/172
f 497/497/497 495/495/495 501/501/501
f 500/500/500 478/478/478 474/474/474
f 500/500/500 494/494/494 492/492/492
f 500/500/500 492/492/492 491/491/491
f 500/500/500 491/491/491 479/479/479
f 500/500/500 479/479/479 478/478/478
f 501/501/501 477/477/477 476/476/476
f 501/501/501 476/476/476 173/173/173
f 491/491/491 486/486/486 479/479/479
f 476/476/476 471/471/471 473/473/473
f 476/476/476 473/473/473 502/502/502
f 476/476/476 502/502/502 173/173/173
f 502/502/502 473/473/473 503/503/503
f 502/502/502 503/503/503 174/174/174
f 502/502/502 174/174/174 173/173/173
f 503/503/503 473/473/473 504/504/504
f 503/503/503 504/504/504 162/162/162
f 503/503/503 162/162/162 161/161/161
f 503/503/503 161/161/161 174/174/174
f 504/504/504 505/505/505 148/148/148
f 504/504/504 473/473/473 508/508/508
f 504/504/504 508/508/508 505/505/505
f 508/508/508 509/509/509 505/505/505
f 508/508/508 473/473/473 472/472/472
f 152/152/152 470/470/470 468/468/468
f 509/509/509 148/148/148 505/505/505
f 152/152/152 512/512/512 510/510/510
f 512/512/512 513/513/513 516/516/516
f 512/512/512 516/516/516 510/510/510
f 512/512/512 152/152/152 468/468/468
f 512/512/512 468/468/468 467/467/467
f 512/512/512 467/467/467 465/465/465
f 512/512/512 465/465/465 513/513/513
f 514/514/514 517/517/517 518/518/518
f 514/514/514 518/518/518 515/515/515
f 515/515/515 151/151/151 511/511/511
f 516/516/516 513/513/513 520/520/520
f 520/520/520 513/513/513 465/465/465
f 520/520/520 465/465/465 464/464/464
f 520/520/520 464/464/464 459/459/459
f 515/515/515 519/519/519 521/521/521
f 515/515/515 521/521/521 150/150/150
f 515/515/515 150/150/150 19/19/19
f 515/515/515 19/19/19 149/149/149
f 150/150/150 521/521/521 139/139/139
f 150/150/150 139/139/139 137/137/137
f 521/521/521 410/410/410 404/404/404
f 521/521/521 404/404/404 139/139/139
f 521/521/521 519/519/519 522/522/522
f 521/521/521 522/522/522 410/410/410
f 522/522/522 415/415/415 410/410/410
f 522/522/522 519/519/519 460/460/460
f 522/522/522 460/460/460 456/456/456
f 522/522/522 456/456/456 415/415/415
f 507/507/507 524/524/524 23/23/23
f 507/507/507 23/23/23 24/24/24
f 523/523/523 506/506/506 150/150/150
f 523/523/523 150/150/150 525/525/525
f 523/523/523 525/525/525 159/159/159
f 523/523/523 159/159/159 22/22/22
f 525/525/525 150/150/150 137/137/137
f 525/525/525 137/137/137 136/136/136
f 525/525/525 136/136/136 386/386/386
f 525/525/525 386/386/386 159/159/159
f 387/387/387 386/386/386 136/136/136
f 379/379/379 168/168/168 169/169/169
f 381/381/381 380/380/380 49/49/49
f 381/381/381 49/49/49 181/181/181
f 380/380/380 206/206/206 49/49/49
f 380/380/380 528/528/528 316/316/316
f 380/380/380 316/316/316 206/206/206
f 316/316/316 313/313/313 49/49/49
f 316/316/316 49/49/49 206/206/206
f 529/529/529 526/526/526 531/531/531
f 528/528/528 220/220/220 316/316/316
f 530/530/530 532/532/532 533/533/533
f 530/530/530 533/533/533 534/534/534
f 530/530/530 534/534/534 535/535/535
f 530/530/530 535/535/535 300/300/300
f 530/530/530 300/300/300 222/222/222
f 530/530/530 222/222/222 221/221/221
f 535/535/535 534/534/534 536/536/536
f 535/535/535 536/536/536 538/538/538
f 535/535/535 538/538/538 250/250/250
f 535/535/535 250/250/250 297/297/297
f 535/535/535 297/297/297 300/300/300
f 537/537/537 246/246/246 66/66/66
f 541/541/541 540/540/540 542/542/542
f 541/541/541 542/542/542 543/543/543
f 541/541/541 543/543/543 71/71/71
f 543/543/543 542/542/542 224/224/224
f 543/543/543 224/224/224 229/229/229
f 542/542/542 361/361/361 224/224/224
f 362/362/362 539/539/539 365/365/365
f 536/536/536 534/534/534 533/533/533
f 536/536/536 533/533/533 539/539/539
f 533/533/533 370/370/370 366/366/366
f 533/533/533 366/366/366 539/539/539
f 533/533/533 532/532/532 527/527/527
f 533/533/533 527/527/527 370/370/370
f 527/527/527 374/374/374 371/371/371
f 527/527/527 371/371/371 370/370/370
f 200/200/200 27/27/27 26/26/26
f 369/369/369 200/200/200 201/201/201
f 373/373/373 372/372/372 169/169/169
f 373/373/373 169/169/169 27/27/27
f 361/361/361 359/359/359 357/357/357
f 361/361/361 357/357/357 544/544/544
f 361/361/361 544/544/544 225/225/225
f 361/361/361 225/225/225 224/224/224
f 544/544/544 357/357/357 545/545/545
f 544/544/544 545/545/545 546/546/546
f 544/544/544 546/546/546 226/226/226
f 546/546/546 545/545/545 547/547/547
f 233/233/233 548/548/548 326/326/326
f 233/233/233 326/326/326 549/549/549
f 549/549/549 326/326/326 323/323/323
f 549/549/549 323/323/323 322/322/322
f 549/549/549 322/322/322 234/234/234
f 548/548/548 327/327/327 326/326/326
f 547/547/547 545/545/545 550/550/550
f 547/547/547 550/550/550 333/333/333
f 550/550/550 336/336/336 333/333/333
f 550/550/550 545/545/545 357/357/357
f 550/550/550 357/357/357 356/356/356
f 550/550/550 356/356/356 354/354/354
f 550/550/550 354/354/354 336/336/336
f 354/354/354 341/341/341 337/337/337
f 354/354/354 337/337/337 336/336/336
f 352/352/352 345/345/345 341/341/341
f 352/352/352 341/341/341 340/340/340
f 344/344/344 189/189/189 187/187/187
f 344/344/344 187/187/187 339/339/339
f 332/332/332 551/551/551 218/218/218
f 332/332/332 218/218/218 59/59/59
f 332/332/332 59/59/59 329/329/329
f 332/332/332 331/331/331 192/192/192
f 332/332/332 192/192/192 551/551/551
f 309/309/309 308/308/308 555/555/555
f 309/309/309 555/555/555 241/241/241
f 555/555/555 308/308/308 553/553/553
f 555/555/555 553/553/553 554/554/554
f 552/552/552 556/556/556 65/65/65
f 557/557/557 558/558/558 242/242/242
f 557/557/557 242/242/242 243/243/243
f 558/558/558 237/237/237 242/242/242
f 558/558/558 286/286/286 238/238/238
f 558/558/558 238/238/238 237/237/237
f 558/558/558 557/557/557 561/561/561
f 558/558/558 561/561/561 283/283/283
f 558/558/558 283/283/283 286/286/286
f 559/559/559 555/555/555 554/554/554
f 559/559/559 554/554/554 562/562/562
f 561/561/561 279/279/279 277/277/277
f 561/561/561 277/277/277 283/283/283
f 274/274/274 562/562/562 563/563/563
f 274/274/274 563/563/563 564/564/564
f 560/560/560 275/275/275 272/272/272
f 560/560/560 272/272/272 278/278/278
f 564/564/564 563/563/563 266/266/266
f 564/564/564 266/266/266 264/264/264
f 564/564/564 264/264/264 565/565/565
f 564/564/564 565/565/565 274/274/274
f 566/566/566 576/576/576 567/567/567
f 566/566/566 567/567/567 569/569/569
f 566/566/566 569/569/569 568/568/568
f 566/566/566 568/568/568 80/80/80
f 568/568/568 569/569/569 271/271/271
f 568/568/568 271/271/271 78/78/78
f 568/568/568 78/78/78 280/280/280
f 568/568/568 280/280/280 276/276/276
f 569/569/569 570/570/570 259/259/259
f 569/569/569 259/259/259 271/271/271
f 569/569/569 567/567/567 570/570/570
f 571/571/571 72/72/72 572/572/572
f 571/571/571 572/572/572 77/77/77
f 572/572/572 72/72/72 258/258/258
f 573/573/573 289/289/289 268/268/268
f 573/573/573 268/268/268 572/572/572
f 573/573/573 572/572/572 292/292/292
f 573/573/573 292/292/292 290/290/290
f 570/570/570 575/575/575 259/259/259
f 570/570/570 567/567/567 575/575/575
f 575/575/575 567/567/567 576/576/576
f 574/574/574 577/577/577 578/578/578
f 574/574/574 578/578/578 295/295/295
f 578/578/578 298/298/298 296/296/296
f 578/578/578 296/296/296 295/295/295
f 578/578/578 577/577/577 262/262/262
f 578/578/578 262/262/262 579/579/579
f 578/578/578 579/579/579 298/298/298
f 579/579/579 301/301/301 299/299/299
f 579/579/579 299/299/299 298/298/298
f 579/579/579 262/262/262 76/76/76
f 580/580/580 261/261/261 266/266/266
f 580/580/580 266/266/266 305/305/305
f 580/580/580 305/305/305 303/303/303
f 266/266/266 563/563/563 553/553/553
f 266/266/266 553/553/553 305/305/305
f 574/574/574 295/295/295 294/294/294
f 574/574/574 294/294/294 254/254/254
f 563/563/563 562/562/562 554/554/554
f 563/563/563 554/554/554 553/553/553
f 553/553/553 308/308/308 306/306/306
f 553/553/553 306/306/306 305/305/305
f 238/238/238 288/288/288 228/228/228
f 287/287/287 284/284/284 269/269/269
f 287/287/287 269/269/269 79/79/79
f 282/282/282 281/281/281 270/270/270
f 282/282/282 270/270/270 269/269/269
f 245/245/245 240/240/240 234/234/234
f 245/245/245 234/234/234 322/322/322
f 244/244/244 243/243/243 236/236/236
f 244/244/244 236/236/236 235/235/235
f 243/243/243 242/242/242 237/237/237
f 243/243/243 237/237/237 236/236/236
f 218/218/218 551/551/551 198/198/198
f 55/55/55 197/197/197 581/581/581
f 55/55/55 581/581/581 211/211/211
f 583/583/583 186/186/186 183/183/183
f 583/583/583 183/183/183 210/210/210
f 583/583/583 210/210/210 57/57/57
f 582/582/582 196/196/196 194/194/194
f 582/582/582 194/194/194 584/584/584
f 585/585/585 195/195/195 176/176/176
f 210/210/210 183/183/183 208/208/208
f 48/48/48 32/32/32 35/35/35
f 176/176/176 195/195/195 174/174/174
f 176/176/176 174/174/174 161/161/161
f 146/146/146 127/127/127 125/125/125
f 146/146/146 125/125/125 143/143/143
f 143/143/143 124/124/124 131/131/131
f 130/130/130 17/17/17 106/106/106
f 130/130/130 106/106/106 104/104/104
f 11/11/11 9/9/9 438/438/438
f 11/11/11 438/438/438 110/110/110
f 92/92/92 93/93/93 88/88/88
f 92/92/92 88/88/88 91/91/91
f 69/69/69 247/247/247 251/251/251
f 69/69/69 251/251/251 70/70/70
f 128/128/128 483/483/483 12/12/12
f 128/128/128 12/12/12 121/121/121
f 102/102/102 100/100/100 441/441/441
f 102/102/102 441/441/441 85/85/85
f 41/41/41 191/191/191 588/588/588
f 499/499/499 171/171/171 590/590/590
f 499/499/499 590/590/590 191/191/191
f 192/192/192 41/41/41 588/588/588
f 192/192/192 588/588/588 551/551/551
f 587/587/587 44/44/44 199/199/199
f 587/587/587 199/199/199 551/551/551
f 586/586/586 28/28/28 29/29/29
f 586/586/586 29/29/29 45/45/45
f 589/589/589 191/191/191 170/170/170
f 177/177/177 167/167/167 34/34/34
f 108/108/108 8/8/8 105/105/105
f 120/120/120 18/18/18 122/122/122
f 4/4/4 101/101/101 83/83/83
