o leg_right_3
v 0.74010 1.46623 0.85273
v 0.66019 1.46864 1.11035
v 0.72955 1.46636 1.44181
v 0.53399 1.26390 0.11137
v 0.45114 1.26222 0.18902
v 0.53326 1.25652 0.21490
v 0.92210 0.83319 0.63470
v 0.79324 0.77899 0.33533
v 0.84718 0.80028 0.41919
v 0.79324 0.77899 0.33533
v 0.85612 0.96692 0.45928
v 0.84718 0.80028 0.41919
v 0.75691 0.76738 0.27616
v 0.72773 0.92377 0.25661
v 0.77084 0.77827 0.62167
v 0.74343 0.77131 0.60281
v 0.72246 0.76797 0.57584
v 0.73313 1.10165 0.32128
v 0.64690 0.75124 0.45429
v 0.75691 0.76738 0.27616
v 0.73313 1.10165 0.32128
v 0.55987 1.08109 0.38869
v 0.84274 1.13242 0.49328
v 0.75691 0.76738 0.27616
v 0.72648 0.81398 0.27692
v 0.71806 0.86522 0.27053
v 0.72773 0.92377 0.25661
v 0.72246 0.76797 0.57584
v 0.74343 0.77131 0.60281
v 0.73317 0.86982 0.66666
v 0.65111 0.91181 0.54957
v 0.68395 1.07924 0.24042
v 0.71806 0.86522 0.27053
v 0.72648 0.81398 0.27692
v 0.70012 0.77840 0.23556
v 0.70085 0.80752 0.29492
v 0.68707 0.98113 0.25624
v 0.66709 0.73260 0.18189
v 0.68395 1.07924 0.24042
v 0.68118 1.08985 0.24687
v 0.64415 0.69624 0.14516
v 0.68707 0.98113 0.25624
v 0.66715 1.06127 0.24692
v 0.59538 0.74230 0.23687
v 0.70012 0.77840 0.23556
v 0.72648 0.81398 0.27692
v 0.67109 1.08289 0.24516
v 0.66709 0.73260 0.18189
v 0.68395 1.07924 0.24042
v 0.67109 1.08289 0.24516
v 0.68118 1.08985 0.24687
v 0.66715 1.06127 0.24692
v 0.61616 1.07724 0.13669
v 0.68118 1.08985 0.24687
v 0.67109 1.08289 0.24516
v 0.60275 1.08222 0.30950
v 0.60275 1.08222 0.30950
v 0.70085 0.80752 0.29492
v 0.62384 1.05014 0.29104
v 0.64415 0.69624 0.14516
v 0.61762 0.68324 0.14399
v 0.59707 0.64223 0.23066
v 0.62613 0.63806 0.07622
v 0.66715 1.06127 0.24692
v 0.61616 1.07724 0.13669
v 0.60909 1.07845 0.16018
v 0.58488 0.73245 0.28603
v 0.58939 1.05601 0.24804
v 0.62384 1.05014 0.29104
v 0.60624 1.14917 0.15740
v 0.59782 0.63175 0.20084
v 0.60909 1.07845 0.16018
v 0.61762 0.68324 0.14399
v 0.58135 1.04796 0.29706
v 0.59538 0.74230 0.23687
v 0.59512 0.53087 0.18913
v 0.58488 0.73245 0.28603
v 0.56181 0.64003 0.39545
v 0.58939 1.05601 0.24804
v 0.54481 0.53282 0.39551
v 0.59928 1.04659 0.31185
v 0.58832 1.14967 0.22702
v 0.58420 1.14516 0.26668
v 0.60624 1.14917 0.15740
v 0.57509 1.04710 0.33061
v 0.58135 1.04796 0.29706
v 0.50475 1.15218 0.20314
v 0.49105 1.15263 0.25251
v 0.58832 1.14967 0.22702
v 0.58420 1.14516 0.26668
v 0.55126 1.14831 0.39336
v 0.51869 1.15194 0.15171
v 0.53326 1.25652 0.21490
v 0.53582 1.17817 0.11095
v 0.46768 1.15446 0.34075
v 0.52812 1.17692 0.39048
v 0.52783 1.24392 0.39558
v 0.51875 1.16918 0.16679
v 0.51869 1.15194 0.15171
v 0.50475 1.15218 0.20314
v 0.48229 1.17196 0.30046
v 0.53582 1.17817 0.11095
v 0.52812 1.17692 0.39048
v 0.48229 1.17196 0.30046
v 0.72246 0.76797 0.57584
v 0.60624 1.14917 0.15740
v 0.53582 1.17817 0.11095
v 1.08618 1.01885 0.72898
v 1.02172 1.21152 0.71151
v 1.14076 1.23707 0.89378
v 1.05261 0.85287 0.69494
v 1.04570 0.85690 0.68769
v 1.01139 1.00128 0.65801
v 1.05261 0.85287 0.69494
v 0.95659 0.83580 0.75105
v 1.04570 0.85690 0.68769
v 0.96669 1.16151 0.63657
v 1.14076 1.23707 0.89378
v 0.94840 1.21472 0.99071
v 1.20239 1.24813 0.98293
v 1.03508 0.89152 1.08812
v 1.01252 1.06337 1.11037
v 0.96747 0.86646 0.99474
v 1.02092 0.85815 0.69798
v 1.02310 0.87102 0.69355
v 0.96996 1.17336 0.63736
v 1.00182 0.95999 0.68050
v 1.01139 1.00128 0.65801
v 1.02172 1.21152 0.71151
v 0.96996 1.17336 0.63736
v 0.96114 1.17603 0.63966
v 1.00182 0.95999 0.68050
v 1.02310 0.87102 0.69355
v 0.93411 0.99287 0.56812
v 0.99056 0.99713 0.67489
v 0.99056 0.99713 0.67489
v 1.08859 0.90875 1.16159
v 0.94450 1.20959 0.76011
v 1.06081 1.23732 1.16428
v 0.95796 0.84966 0.73865
v 1.18308 0.90595 0.89293
v 1.03508 0.89152 1.08812
v 0.96747 0.86646 0.99474
v 0.96669 1.16151 0.63657
v 0.97064 1.07632 0.66096
v 0.93411 0.99287 0.56812
v 1.02310 0.87102 0.69355
v 1.02092 0.85815 0.69798
v 0.90434 0.83842 0.89587
v 1.05261 0.85287 0.69494
v 0.92210 0.83319 0.63470
v 1.02092 0.85815 0.69798
v 0.77084 0.77827 0.62167
v 1.06081 1.23732 1.16428
v 0.94840 1.21472 0.99071
v 0.95370 1.14344 0.64950
v 0.97064 1.07632 0.66096
v 0.95796 0.84966 0.73865
v 0.96267 0.84091 0.60093
v 0.96669 1.16151 0.63657
v 0.96114 1.17603 0.63966
v 0.96996 1.17336 0.63736
v 0.96114 1.17603 0.63966
v 0.85612 0.96692 0.45928
v 0.93190 0.82962 0.55529
v 0.94658 1.14859 0.65349
v 0.95659 0.83580 0.75105
v 0.89663 1.20598 0.90812
v 0.92544 1.03487 0.95977
v 0.85580 0.99779 0.87844
v 0.89663 1.20598 0.90812
v 0.91281 1.17066 0.67329
v 0.94658 1.14859 0.65349
v 0.95370 1.14344 0.64950
v 0.94001 1.14602 0.64183
v 0.91010 1.14284 0.67914
v 0.87492 0.83016 0.85836
v 0.85567 0.82181 0.82315
v 0.96267 0.84091 0.60093
v 0.93190 0.82962 0.55529
v 0.95370 1.14344 0.64950
v 0.85567 0.82181 0.82315
v 1.02092 0.85815 0.69798
v 0.94001 1.14602 0.64183
v 0.91010 1.14284 0.67914
v 0.94658 1.14859 0.65349
v 0.90434 0.83842 0.89587
v 0.85073 0.83228 0.81162
v 0.86617 1.16360 0.70581
v 0.91281 1.17066 0.67329
v 0.84274 1.13242 0.49328
v 0.84274 1.13242 0.49328
v 0.88333 1.14073 0.69743
v 0.88333 1.14073 0.69743
v 0.87492 0.83016 0.85836
v 0.84718 0.80028 0.41919
v 0.79874 1.15299 0.76124
v 0.84077 1.13524 0.72838
v 0.86617 1.16360 0.70581
v 0.72246 0.76797 0.57584
v 0.84274 1.13242 0.49328
v 0.71997 1.11525 0.49120
v 0.81777 0.95552 0.79797
v 0.79874 1.15299 0.76124
v 0.85567 0.82181 0.82315
v 0.84077 1.13524 0.72838
v 0.83711 0.87915 0.80920
v 0.85073 0.83228 0.81162
v 0.79876 1.12873 0.76595
v 0.76499 1.11806 0.72131
v 0.76424 0.94272 0.75716
v 0.85073 0.83228 0.81162
v 0.79874 1.15299 0.76124
v 0.84718 0.80028 0.41919
v 0.73317 0.86982 0.66666
v 0.80432 0.81041 0.72837
v 0.80064 1.13374 0.75885
v 0.80432 0.81041 0.72837
v 0.85073 0.83228 0.81162
v 0.79876 1.12873 0.76595
v 0.79874 1.15299 0.76124
v 0.80064 1.13374 0.75885
v 0.80064 1.13374 0.75885
v 0.80064 1.13374 0.75885
v 0.76499 1.11806 0.72131
v 0.79876 1.12873 0.76595
v 0.76499 1.11806 0.72131
v 0.73313 1.10165 0.32128
v 0.74343 0.77131 0.60281
v 0.74343 0.77131 0.60281
v 0.70303 1.09273 0.63963
v 0.70303 1.09273 0.63963
v 0.55987 1.08109 0.38869
v 0.74152 0.70764 0.84755
v 0.74010 1.46623 0.85273
v 0.72955 1.46636 1.44181
v 0.66850 1.04494 0.84716
v 0.74010 1.46623 0.85273
v 0.74152 0.70764 0.84755
v 0.64617 1.08540 0.54734
v 0.73438 0.70069 0.85194
v 0.66992 0.70708 0.84530
v 0.65111 0.91181 0.54957
v 0.74152 0.70764 0.84755
v 0.66280 0.70013 1.19146
v 0.73438 0.70069 0.85194
v 1.14600 1.24224 1.28526
v 1.15286 1.24483 1.28075
v 1.14321 1.25680 1.27642
v 1.15286 1.24483 1.28075
v 1.13317 1.24180 1.22720
v 1.14321 1.25680 1.27642
v 1.14600 1.24224 1.28526
v 1.14321 1.25680 1.27642
v 1.13500 1.25271 1.27607
v 1.16946 1.10959 1.31190
v 1.13500 1.25271 1.27607
v 1.07857 1.07562 1.18431
v 1.13500 1.25271 1.27607
v 1.14321 1.25680 1.27642
v 1.06081 1.23732 1.16428
v 1.06081 1.23732 1.16428
v 1.14321 1.25680 1.27642
v 1.13317 1.24180 1.22720
v 1.06081 1.23732 1.16428
v 1.15095 0.92860 1.24629
v 1.20239 1.24813 0.98293
v 1.01252 1.06337 1.11037
v 1.08859 0.90875 1.16159
v 0.71800 0.70164 1.92207
v 0.74152 0.70764 0.84755
v 0.72955 1.46636 1.44181
v 0.72202 0.71420 1.95923
v 0.71056 1.46562 2.17203
v 0.71577 0.70639 1.93410
v 0.71800 0.70164 1.92207
v 0.72202 0.71420 1.95923
v 0.70863 0.70178 1.92675
v 0.65439 0.69735 1.78304
v 0.74152 0.70764 0.84755
v 1.53725 1.35432 1.43335
v 1.39450 1.31312 1.22616
v 1.21942 1.30464 1.38948
v 1.33079 1.29900 1.14553
v 1.38470 1.01459 1.20046
v 1.41225 0.97904 1.19967
v 1.39035 0.98752 1.20792
v 1.41225 0.97904 1.19967
v 1.23069 0.94300 1.36426
v 1.40955 0.97271 1.20824
v 1.39450 1.31312 1.22616
v 1.41225 0.97904 1.19967
v 1.33789 1.29462 1.14457
v 1.37066 1.06033 1.19122
v 1.39035 0.98752 1.20792
v 1.30720 1.10463 1.06906
v 1.38470 1.01459 1.20046
v 1.40955 0.97271 1.20824
v 1.34382 0.96842 1.14079
v 1.28017 0.96881 1.30289
v 1.37066 1.06033 1.19122
v 1.34382 0.96842 1.14079
v 1.39035 0.98752 1.20792
v 1.28017 0.96881 1.30289
v 1.34625 1.22838 1.14941
v 1.33805 1.17752 1.16927
v 1.33805 1.17752 1.16927
v 1.39450 1.31312 1.22616
v 1.33789 1.29462 1.14457
v 1.33079 1.29900 1.14553
v 1.34625 1.22838 1.14941
v 1.32962 1.29273 1.14081
v 1.30616 0.95577 1.08023
v 1.30616 0.95577 1.08023
v 1.32322 1.23577 1.15859
v 1.23069 0.94300 1.36426
v 1.32962 1.29273 1.14081
v 1.32322 1.23577 1.15859
v 1.30993 1.27034 1.14399
v 1.31150 1.27193 1.15346
v 1.32962 1.29273 1.14081
v 1.28168 1.29308 1.18343
v 1.33079 1.29900 1.14553
v 1.26771 0.93987 1.02182
v 1.31150 1.27193 1.15346
v 1.21942 1.30464 1.38948
v 1.17720 1.16316 1.31995
v 1.42114 0.99973 1.62770
v 1.28168 1.29308 1.18343
v 1.20239 1.24813 0.98293
v 1.29645 1.27308 1.16991
v 1.26771 0.93987 1.02182
v 1.24614 1.29406 1.21853
v 1.15095 0.92860 1.24629
v 1.29645 1.27308 1.16991
v 1.31150 1.27193 1.15346
v 1.18759 1.24683 1.13886
v 1.26876 1.26724 1.19309
v 1.26876 1.26724 1.19309
v 1.31150 1.27193 1.15346
v 1.22884 1.26244 1.12379
v 1.24400 0.96629 1.33329
v 1.24614 1.29406 1.21853
v 1.18308 0.90595 0.89293
v 1.23069 0.94300 1.36426
v 1.21340 1.29081 1.24517
v 1.21820 1.25771 1.23873
v 1.31150 1.27193 1.15346
v 1.30993 1.27034 1.14399
v 1.20239 1.24813 0.98293
v 1.21340 1.29081 1.24517
v 1.24400 0.96629 1.33329
v 1.22085 0.95329 1.34270
v 1.28017 0.96881 1.30289
v 1.21820 1.25771 1.23873
v 1.22184 1.07487 0.95901
v 1.23659 1.00860 1.32162
v 1.21639 0.99309 1.34689
v 1.22085 0.95329 1.34270
v 1.24400 0.96629 1.33329
v 1.23659 1.00860 1.32162
v 1.22247 1.06512 1.31289
v 1.21667 1.07515 1.30751
v 1.23659 1.00860 1.32162
v 1.14076 1.23707 0.89378
v 1.14854 1.05913 0.85243
v 1.20271 1.11933 1.29875
v 1.19388 1.08950 1.32714
v 1.22247 1.06512 1.31289
v 1.20533 1.12107 1.30485
v 1.21639 0.99309 1.34689
v 1.17142 1.24801 1.28505
v 1.16946 1.10959 1.31190
v 1.21667 1.07515 1.30751
v 1.19388 1.08950 1.32714
v 1.17142 1.24801 1.28505
v 1.20533 1.12107 1.30485
v 1.22085 0.95329 1.34270
v 1.18497 0.93999 1.29407
v 1.20271 1.11933 1.29875
v 1.20271 1.11933 1.29875
v 1.20533 1.12107 1.30485
v 1.19388 1.08950 1.32714
v 1.16946 1.10959 1.31190
v 1.18497 0.93999 1.29407
v 1.22085 0.95329 1.34270
v 1.13317 1.24180 1.22720
v 1.19388 1.08950 1.32714
v 1.17720 1.16316 1.31995
v 1.20271 1.11933 1.29875
v 1.15443 1.28491 1.29914
v 1.16791 1.24109 1.29210
v 1.15680 1.26440 1.29734
v 1.14600 1.24224 1.28526
v 1.16791 1.24109 1.29210
v 1.14600 1.24224 1.28526
v 1.20271 1.11933 1.29875
v 1.15680 1.26440 1.29734
v 1.16791 1.24109 1.29210
v 1.17142 1.24801 1.28505
v 1.15286 1.24483 1.28075
v 1.15286 1.24483 1.28075
v 1.15443 1.28491 1.29914
v 1.14600 1.24224 1.28526
v 1.15443 1.28491 1.29914
v 1.14600 1.24224 1.28526
v 1.13500 1.25271 1.27607
v 1.08859 0.90875 1.16159
v 1.15095 0.92860 1.24629
v 1.08618 1.01885 0.72898
v 1.03508 0.89152 1.08812
v 1.18308 0.90595 0.89293
v 1.05261 0.85287 0.69494
v 1.18759 1.24683 1.13886
v 1.16946 1.10959 1.31190
v 1.13317 1.24180 1.22720
v 1.91314 1.06308 1.76249
v 2.05847 1.25117 1.93478
v 2.12366 1.11863 1.98886
v 2.02305 1.29757 1.93036
v 2.12366 1.11863 1.98886
v 2.05847 1.25117 1.93478
v 2.01904 1.33017 1.90090
v 2.01904 1.33017 1.90090
v 1.97637 1.32713 1.96856
v 1.90521 1.16430 2.21132
v 2.17410 0.73960 2.25707
v 1.84062 1.02158 1.82823
v 1.98546 0.89645 1.82997
v 2.05030 0.74483 1.89224
v 1.87350 1.15706 1.73109
v 1.92875 1.35285 1.82152
v 1.83815 1.25951 1.69745
v 1.91314 1.06308 1.76249
v 1.85011 1.32178 2.15243
v 2.07865 0.65265 1.93383
v 1.81582 1.01956 1.90837
v 1.84062 1.02158 1.82823
v 2.01904 1.33017 1.90090
v 1.92875 1.35285 1.82152
v 1.97637 1.32713 1.96856
v 1.90521 1.16430 2.21132
v 1.85011 1.32178 2.15243
v 1.84364 1.31892 2.15521
v 1.78890 1.38386 1.70007
v 1.90521 1.16430 2.21132
v 1.71670 0.97166 2.03062
v 1.91144 1.13013 2.22301
v 1.78893 1.33624 2.10062
v 1.84364 1.31892 2.15521
v 1.73385 1.24511 1.78960
v 1.83815 1.25951 1.69745
v 1.87350 1.15706 1.73109
v 1.85386 0.69022 2.16219
v 1.79574 0.81030 2.10705
v 1.85011 1.32178 2.15243
v 1.78893 1.33624 2.10062
v 1.84364 1.31892 2.15521
v 1.79239 1.12294 1.80995
v 1.79294 1.36177 1.69731
v 1.66586 1.37798 1.89519
v 1.71497 1.37915 1.82580
v 1.78890 1.38386 1.70007
v 1.79294 1.36177 1.69731
v 1.77014 1.38399 1.71462
v 1.78890 1.38386 1.70007
v 1.74477 1.21518 1.80024
v 1.76134 0.87922 2.07176
v 1.77014 1.38399 1.71462
v 1.72268 1.21186 1.85892
v 1.69150 1.21491 1.88138
v 1.76134 0.87922 2.07176
v 1.79574 0.81030 2.10705
v 1.73869 0.92484 2.04919
v 1.73069 1.38110 1.77662
v 1.74477 1.21518 1.80024
v 1.73300 1.21876 1.81364
v 1.73072 1.24544 1.81063
v 1.73684 1.38523 1.72382
v 1.81356 1.13399 1.72150
v 1.73691 1.38364 1.71113
v 1.73339 1.38955 1.71541
v 1.73869 0.92484 2.04919
v 1.73300 1.21876 1.81364
v 1.73072 1.24544 1.81063
v 1.81356 1.13399 1.72150
v 1.73684 1.38523 1.72382
v 1.69398 1.38654 1.76241
v 1.73339 1.38955 1.71541
v 1.69398 1.38654 1.76241
v 1.73684 1.38523 1.72382
v 1.73300 1.21876 1.81364
v 1.72268 1.21186 1.85892
v 1.70128 1.19872 1.78930
v 1.69946 1.00813 2.00643
v 1.71072 1.12799 1.78214
v 1.71665 1.32682 1.78661
v 1.73069 1.38110 1.77662
v 1.69965 1.22840 1.77939
v 1.73072 1.24544 1.81063
v 1.73300 1.21876 1.81364
v 1.70128 1.19872 1.78930
v 1.71479 1.32573 1.80639
v 1.71497 1.37915 1.82580
v 1.69946 1.00813 2.00643
v 1.73869 0.92484 2.04919
v 1.69965 1.22840 1.77939
v 1.68844 1.32737 1.78082
v 1.71479 1.32573 1.80639
v 1.71959 1.09268 1.61806
v 1.73691 1.38364 1.71113
v 1.81356 1.13399 1.72150
v 1.69947 1.32742 1.83450
v 1.81356 1.13399 1.72150
v 1.71072 1.12799 1.78214
v 1.60787 1.11114 1.83508
v 1.71072 1.12799 1.78214
v 1.69965 1.22840 1.77939
v 1.70128 1.19872 1.78930
v 1.71479 1.32573 1.80639
v 1.66437 1.33236 1.79585
v 1.69947 1.32742 1.83450
v 1.68844 1.32737 1.78082
v 1.70128 1.19872 1.78930
v 1.62206 1.17895 1.83078
v 1.68844 1.32737 1.78082
v 1.81356 1.13399 1.72150
v 1.60787 1.11114 1.83508
v 1.55137 1.07807 1.77451
v 1.69314 1.08549 1.58610
v 1.69150 1.21491 1.88138
v 1.65872 1.19401 1.85061
v 1.63169 1.37555 1.93988
v 1.69314 1.08549 1.58610
v 1.71959 1.09268 1.61806
v 1.66607 1.06998 1.55859
v 1.66586 1.37798 1.89519
v 1.66891 1.09225 1.97875
v 1.66891 1.09225 1.97875
v 1.62878 1.21257 1.93281
v 1.66607 1.06998 1.55859
v 1.66437 1.33236 1.79585
v 1.67088 1.31446 1.87420
v 1.62206 1.17895 1.83078
v 1.67947 1.24951 1.87686
v 1.64282 1.38316 1.80184
v 1.65872 1.19401 1.85061
v 1.69150 1.21491 1.88138
v 1.67947 1.24951 1.87686
v 1.61806 1.33026 1.81913
v 1.61774 1.04763 1.49149
v 1.54448 1.34991 1.43210
v 1.62720 1.21747 1.93895
v 1.58191 1.38404 1.83069
v 1.58264 1.32464 1.83477
v 1.67088 1.31446 1.87420
v 1.63169 1.37555 1.93988
v 1.64282 1.38316 1.80184
v 1.61774 1.04763 1.49149
v 1.66607 1.06998 1.55859
v 1.60030 1.04330 1.51462
v 1.66891 1.09225 1.97875
v 1.62720 1.21747 1.93895
v 1.55981 1.37919 1.84313
v 1.63169 1.37555 1.93988
v 1.62206 1.17895 1.83078
v 1.58264 1.32464 1.83477
v 1.67088 1.31446 1.87420
v 1.58191 1.38404 1.83069
v 1.61225 1.04535 1.47123
v 1.61774 1.04763 1.49149
v 1.60959 1.03883 1.47088
v 1.61225 1.04535 1.47123
v 1.60959 1.03883 1.47088
v 1.61806 1.33026 1.81913
v 1.58191 1.38404 1.83069
v 1.73339 1.38955 1.71541
v 1.73691 1.38364 1.71113
v 1.73691 1.38364 1.71113
v 1.55303 1.38396 1.83583
v 1.58191 1.38404 1.83069
v 1.58264 1.32464 1.83477
v 1.42114 0.99973 1.62770
v 1.71959 1.09268 1.61806
v 1.55981 1.37919 1.84313
v 1.58191 1.38404 1.83069
v 1.55303 1.38396 1.83583
v 1.49205 1.04434 1.71208
v 1.54448 1.34991 1.43210
v 1.54311 1.34787 1.44761
v 1.23069 0.94300 1.36426
v 1.61225 1.04535 1.47123
v 1.42114 0.99973 1.62770
v 1.55981 1.37919 1.84313
v 1.44140 1.03793 1.66558
v 1.60787 1.11114 1.83508
v 1.54448 1.34991 1.43210
v 1.53725 1.35432 1.43335
v 1.55137 1.07807 1.77451
v 1.46004 1.02515 1.67756
v 1.39450 1.31312 1.22616
v 1.42114 0.99973 1.62770
v 1.61225 1.04535 1.47123
v 1.60959 1.03883 1.47088
v 1.45815 1.34473 1.52092
v 1.41225 0.97904 1.19967
v 1.41225 0.97904 1.19967
v 1.48199 1.36411 1.74008
v 1.55303 1.38396 1.83583
v 1.49205 1.04434 1.71208
v 1.48199 1.36411 1.74008
v 1.54448 1.34991 1.43210
v 1.39450 1.31312 1.22616
v 1.53725 1.35432 1.43335
v 1.36320 1.34161 1.59034
v 1.46004 1.02515 1.67756
v 1.37622 1.33989 1.59155
v 1.37622 1.33989 1.59155
v 1.42266 1.00503 1.63830
v 1.42266 1.00503 1.63830
v 1.39009 1.22126 1.61094
v 1.37148 1.27048 1.59906
v 1.36320 1.34161 1.59034
v 1.37148 1.27048 1.59906
v 1.36320 1.34161 1.59034
v 1.21942 1.30464 1.38948
v 1.42114 0.99973 1.62770
v 1.42266 1.00503 1.63830
v 1.21942 1.30464 1.38948
v 0.71577 0.70639 1.93410
v 0.71662 0.70571 2.16268
v 0.71037 0.70271 2.16681
v 0.72202 0.71420 1.95923
v 0.72202 0.71420 1.95923
v 0.71056 1.46562 2.17203
v 0.71662 0.70571 2.16268
v 0.70863 0.70178 1.92675
v 1.81582 1.01956 1.90837
v 1.72268 1.21186 1.85892
v 1.71497 1.37915 1.82580
v 1.69947 1.32742 1.83450
v 2.56929 0.17043 2.36559
v 2.52583 0.27570 2.32307
v 2.19091 0.72134 2.27483
v 2.55561 0.15776 2.35301
v 2.56929 0.17043 2.36559
v 2.42586 0.15209 2.51399
v 2.38895 0.04195 2.20887
v 2.55561 0.15776 2.35301
v 2.52583 0.27570 2.32307
v 2.56929 0.17043 2.36559
v 2.43722 0.48002 2.23711
v 2.43722 0.48002 2.23711
v 2.26683 0.23970 2.09303
v 2.35808 0.66074 2.15785
v 2.38895 0.04195 2.20887
v 2.32732 0.16311 2.61991
v 2.42586 0.15209 2.51399
v 2.32692 0.17207 2.62426
v 2.42586 0.15209 2.51399
v 2.32732 0.16311 2.61991
v 2.27838 0.12073 2.56784
v 2.35808 0.66074 2.15785
v 2.35520 0.01925 2.18330
v 2.18981 0.00304 2.35994
v 2.33543 0.07007 2.16070
v 2.35520 0.01925 2.18330
v 2.22452 0.07270 2.50579
v 2.16567 0.02472 2.44046
v 2.32692 0.17207 2.62426
v 2.31247 0.76486 2.11023
v 2.18981 0.00304 2.35994
v 2.27628 0.01355 2.25600
v 2.35520 0.01925 2.18330
v 2.31247 0.76486 2.11023
v 2.27900 0.80766 2.11328
v 2.32732 0.16311 2.61991
v 2.32692 0.17207 2.62426
v 2.31295 0.15498 2.60991
v 2.35520 0.01925 2.18330
v 2.21639 0.12278 2.24500
v 2.11453 0.25191 2.26604
v 2.31295 0.15498 2.60991
v 2.32692 0.17207 2.62426
v 2.20336 0.41029 2.50300
v 2.31295 0.15498 2.60991
v 2.27838 0.12073 2.56784
v 2.33543 0.07007 2.16070
v 2.26746 0.75082 2.08732
v 2.27900 0.80766 2.11328
v 2.31247 0.76486 2.11023
v 2.24532 0.73184 2.05299
v 2.24532 0.73184 2.05299
v 2.26746 0.75082 2.08732
v 2.31247 0.76486 2.11023
v 2.20256 0.51376 2.43524
v 2.27628 0.01355 2.25600
v 2.23275 0.03028 2.28064
v 2.21078 0.71973 2.03652
v 2.26683 0.23970 2.09303
v 2.20336 0.41029 2.50300
v 2.18981 0.00304 2.35994
v 2.27900 0.80766 2.11328
v 2.26746 0.75082 2.08732
v 2.20488 0.95355 2.05484
v 2.15755 0.68330 1.97700
v 2.20004 0.40033 2.02785
v 2.16053 0.08755 2.43968
v 2.17410 0.73960 2.25707
v 2.20488 0.95355 2.05484
v 2.22452 0.07270 2.50579
v 2.14846 0.71433 2.30462
v 2.17473 0.03830 2.34020
v 2.20004 0.40033 2.02785
v 2.15755 0.68330 1.97700
v 2.12366 1.11863 1.98886
v 2.05823 0.69516 2.35823
v 2.12366 1.11863 1.98886
v 2.16567 0.02472 2.44046
v 2.19091 0.72134 2.27483
v 2.17410 0.73960 2.25707
v 2.17569 0.74150 2.29496
v 2.14846 0.71433 2.30462
v 2.19091 0.72134 2.27483
v 2.13928 0.73576 2.34336
v 2.14017 0.68021 1.97452
v 2.19091 0.72134 2.27483
v 2.17569 0.74150 2.29496
v 2.13928 0.73576 2.34336
v 2.16567 0.02472 2.44046
v 2.15456 0.04779 2.43466
v 2.17569 0.74150 2.29496
v 2.17410 0.73960 2.25707
v 2.14744 0.74207 2.29237
v 2.15456 0.04779 2.43466
v 2.12132 0.58413 1.95165
v 1.99433 0.60316 2.09967
v 2.12132 0.58413 1.95165
v 2.05823 0.69516 2.35823
v 2.13928 0.73576 2.34336
v 2.21078 0.71973 2.03652
v 1.91314 1.06308 1.76249
v 2.12066 0.12412 2.40640
v 2.13928 0.73576 2.34336
v 2.12067 0.72847 2.37269
v 2.08109 0.71994 2.38957
v 2.12066 0.12412 2.40640
v 2.09942 0.64785 1.92728
v 2.14017 0.68021 1.97452
v 1.98546 0.89645 1.82997
v 2.09589 0.17869 2.38529
v 2.08236 0.73472 2.38776
v 2.09589 0.17869 2.38529
v 2.12067 0.72847 2.37269
v 1.96761 0.64511 2.28092
v 2.08899 0.72902 2.40137
v 2.08236 0.73472 2.38776
v 2.14744 0.74207 2.29237
v 2.04170 0.83015 2.35018
v 2.09537 0.72260 2.40382
v 2.09942 0.64785 1.92728
v 2.09537 0.72260 2.40382
v 2.07865 0.65265 1.93383
v 2.09942 0.64785 1.92728
v 2.04087 0.30061 2.33761
v 2.14017 0.68021 1.97452
v 2.09942 0.64785 1.92728
v 2.09019 0.65624 1.92920
v 2.17410 0.73960 2.25707
v 2.08109 0.71994 2.38957
v 2.05823 0.69516 2.35823
v 2.09019 0.65624 1.92920
v 2.09537 0.72260 2.40382
v 2.08899 0.72902 2.40137
v 2.08109 0.71994 2.38957
v 2.09019 0.65624 1.92920
v 2.05030 0.74483 1.89224
v 2.02305 1.29757 1.93036
v 2.08899 0.72902 2.40137
v 2.08236 0.73472 2.38776
v 2.08109 0.71994 2.38957
v 2.04087 0.30061 2.33761
v 2.07098 0.63531 1.96300
v 2.05030 0.74483 1.89224
v 1.97430 0.61809 2.08519
v 2.02171 0.62669 2.03647
v 1.97887 0.43306 2.28085
v 2.08236 0.73472 2.38776
v 2.04170 0.83015 2.35018
v 2.08109 0.71994 2.38957
v 2.08109 0.71994 2.38957
v 1.91144 1.13013 2.22301
v 1.89721 0.60107 2.20231
v 2.04170 0.83015 2.35018
v 2.17410 0.73960 2.25707
v 2.08109 0.71994 2.38957
v 1.97887 0.43306 2.28085
v 2.07098 0.63531 1.96300
v 2.02171 0.62669 2.03647
v 1.97430 0.61809 2.08519
v 1.84062 1.02158 1.82823
v 1.96761 0.64511 2.28092
v 2.05823 0.69516 2.35823
v 2.08109 0.71994 2.38957
v 1.90521 1.16430 2.21132
v 1.89721 0.60107 2.20231
v 1.94263 0.51086 2.25116
v 1.89721 0.60107 2.20231
v 1.97887 0.43306 2.28085
v 1.94263 0.51086 2.25116
v 1.89721 0.60107 2.20231
v 1.81582 1.01956 1.90837
v 1.89721 0.60107 2.20231
v 1.87732 0.64061 2.18490
v 1.87732 0.64061 2.18490
v 2.08109 0.71994 2.38957
v 1.85386 0.69022 2.16219
v 1.79574 0.81030 2.10705
v 1.91144 1.13013 2.22301
v 1.85386 0.69022 2.16219
v 2.07865 0.65265 1.93383
v 2.07098 0.63531 1.96300
v 2.17410 0.73960 2.25707
v 2.05030 0.74483 1.89224
v 2.07865 0.65265 1.93383
v 0.62783 0.67048 0.26708
v 0.64690 0.75124 0.45429
v 0.75691 0.76738 0.27616
v 0.70085 0.80752 0.29492
v 0.58488 0.73245 0.28603
v 0.59707 0.64223 0.23066
v 0.62613 0.63806 0.07622
v 0.59782 0.63175 0.20084
v 0.59512 0.53087 0.18913
v 0.54481 0.53282 0.39551
v 0.68098 0.99957 0.56420
v 0.55987 1.08109 0.38869
v 0.71997 1.11525 0.49120
v 0.70303 1.09273 0.63963
v 0.64617 1.08540 0.54734
v 0.76424 0.94272 0.75716
v 0.65111 0.91181 0.54957
v 0.72246 0.76797 0.57584
v 0.70182 0.94547 1.43726
v 0.66850 1.04494 0.84716
v 0.74010 1.46623 0.85273
v 0.66019 1.46864 1.11035
v 0.72955 1.46636 1.44181
v 0.71056 1.46562 2.17203
v 0.71662 0.70571 2.16268
v 0.71037 0.70271 2.16681
v 0.70863 0.70178 1.92675
v 0.71800 0.70164 1.92207
v 0.65439 0.69735 1.78304
v 0.74152 0.70764 0.84755
v 0.66992 0.70708 0.84530
v 0.73438 0.70069 0.85194
v 0.66280 0.70013 1.19146
v 0.57727 1.09162 0.25085
v 0.73313 1.10165 0.32128
v 0.68118 1.08985 0.24687
v 0.60275 1.08222 0.30950
v 0.62384 1.05014 0.29104
v 0.59928 1.04659 0.31185
v 0.58135 1.04796 0.29706
v 0.57509 1.04710 0.33061
v 0.58420 1.14516 0.26668
v 0.55126 1.14831 0.39336
v 0.58832 1.14967 0.22702
v 0.46768 1.15446 0.34075
v 0.49105 1.15263 0.25251
v 0.50475 1.15218 0.20314
v 0.48229 1.17196 0.30046
v 0.52812 1.17692 0.39048
v 0.52783 1.24392 0.39558
v 0.53326 1.25652 0.21490
v 0.53582 1.17817 0.11095
v 0.51875 1.16918 0.16679
v 0.51869 1.15194 0.15171
v 0.60624 1.14917 0.15740
v 0.60909 1.07845 0.16018
v 0.61616 1.07724 0.13669
v 0.68707 0.98113 0.25624
v 0.64415 0.69624 0.14516
v 0.61762 0.68324 0.14399
vt 0.79001 0.64940
vt 0.79819 0.67307
vt 0.79273 0.70404
vt 0.96437 0.32388
vt 0.97203 0.33113
vt 0.96437 0.33351
vt 0.96580 0.41940
vt 0.96330 0.44423
vt 0.96278 0.43655
vt 0.65735 0.02273
vt 0.65025 0.00656
vt 0.65973 0.01540
vt 0.65549 0.02771
vt 0.64401 0.02389
vt 0.45844 0.00003
vt 0.45592 0.00047
vt 0.45335 0.00009
vt 0.63435 0.01333
vt 0.97755 0.44216
vt 0.96351 0.44955
vt 0.97448 0.35277
vt 0.98822 0.34952
vt 0.97484 0.36835
vt 0.96022 0.22815
vt 0.96403 0.22637
vt 0.96799 0.22637
vt 0.97233 0.22791
vt 0.79694 0.02013
vt 0.79435 0.02026
vt 0.78990 0.01255
vt 0.80033 0.00831
vt 0.63226 0.02038
vt 0.32818 0.98202
vt 0.32442 0.98324
vt 0.32130 0.97989
vt 0.96366 0.22399
vt 0.97707 0.22552
vt 0.31728 0.97560
vt 0.98451 0.22654
vt 0.63160 0.01968
vt 0.31415 0.97269
vt 0.33668 0.97871
vt 0.98333 0.22502
vt 0.89785 0.98289
vt 0.89287 0.98962
vt 0.88830 0.98962
vt 0.98491 0.22554
vt 0.89876 0.98970
vt 0.71954 0.00090
vt 0.71847 0.00090
vt 0.71898 0.00011
vt 0.34260 0.97662
vt 0.34253 0.96736
vt 0.62120 0.99887
vt 0.62174 0.99810
vt 0.62880 0.99870
vt 0.98580 0.21851
vt 0.88845 0.98721
vt 0.98311 0.22028
vt 0.90303 0.98974
vt 0.90455 0.98810
vt 0.26568 0.74229
vt 0.25245 0.73365
vt 0.55709 0.99631
vt 0.54959 0.99088
vt 0.55144 0.99066
vt 0.89570 0.97968
vt 0.55844 0.99058
vt 0.56112 0.99381
vt 0.34280 0.73547
vt 0.26293 0.74178
vt 0.34249 0.73325
vt 0.26097 0.73388
vt 0.56224 0.99076
vt 0.27231 0.73748
vt 0.25249 0.74196
vt 0.27727 0.74102
vt 0.27557 0.75363
vt 0.33437 0.73381
vt 0.24013 0.75468
vt 0.56306 0.99232
vt 0.23897 0.00222
vt 0.24196 0.00274
vt 0.23354 0.00230
vt 0.32731 0.73616
vt 0.32988 0.73506
vt 0.84918 0.97694
vt 0.85305 0.97694
vt 0.84923 0.98350
vt 0.33065 0.73930
vt 0.25184 0.00245
vt 0.84515 0.97691
vt 0.60015 0.97687
vt 0.59274 0.98333
vt 0.85994 0.97702
vt 0.61381 0.98192
vt 0.61384 0.97685
vt 0.50964 0.03742
vt 0.51099 0.03850
vt 0.51092 0.03447
vt 0.50932 0.02695
vt 0.98615 0.01735
vt 0.99136 0.03782
vt 0.98615 0.03223
vt 0.97721 0.43129
vt 0.84380 0.98340
vt 0.50900 0.04183
vt 0.90449 0.57489
vt 0.90219 0.55505
vt 0.92366 0.55542
vt 0.89711 0.59011
vt 0.89621 0.58956
vt 0.89425 0.57486
vt 0.93438 0.76853
vt 0.94540 0.76832
vt 0.93456 0.76957
vt 0.89237 0.55854
vt 0.56100 0.09401
vt 0.58189 0.09032
vt 0.56129 0.10467
vt 0.64404 0.38306
vt 0.62713 0.38531
vt 0.64256 0.37128
vt 0.93714 0.77012
vt 0.93656 0.77134
vt 0.89288 0.55744
vt 0.93651 0.78039
vt 0.93402 0.78438
vt 0.55986 0.07257
vt 0.55960 0.06295
vt 0.56050 0.06274
vt 0.75392 0.45439
vt 0.75463 0.46204
vt 0.74436 0.44236
vt 0.75479 0.45245
vt 0.93668 0.78423
vt 0.64465 0.39202
vt 0.56878 0.07192
vt 0.58305 0.11067
vt 0.94452 0.76992
vt 0.96106 0.75967
vt 0.93821 0.76711
vt 0.93775 0.75556
vt 0.93463 0.80080
vt 0.93662 0.79235
vt 0.59502 0.00350
vt 0.57580 0.00350
vt 0.57484 0.00255
vt 0.93792 0.74375
vt 0.96112 0.73587
vt 0.80554 0.04761
vt 0.79489 0.05258
vt 0.81512 0.03502
vt 0.60772 0.39460
vt 0.60760 0.37613
vt 0.93659 0.79922
vt 0.75694 0.44863
vt 0.79480 0.04519
vt 0.80611 0.05281
vt 0.69958 0.00100
vt 0.69810 0.00052
vt 0.69888 0.00001
vt 0.93509 0.80229
vt 0.74555 0.42378
vt 0.72802 0.43395
vt 0.93732 0.79982
vt 0.95014 0.73491
vt 0.58119 0.08076
vt 0.62660 0.36714
vt 0.62871 0.35491
vt 0.60977 0.36577
vt 0.94088 0.80241
vt 0.36259 0.00521
vt 0.36259 0.00426
vt 0.36392 0.00507
vt 0.94172 0.79974
vt 0.93757 0.73902
vt 0.93791 0.73502
vt 0.72678 0.43866
vt 0.81161 0.05259
vt 0.76296 0.44466
vt 0.95761 0.76765
vt 0.72192 0.44543
vt 0.16035 0.89509
vt 0.15583 0.89382
vt 0.16023 0.89376
vt 0.64472 0.35910
vt 0.95732 0.76923
vt 0.57242 0.06221
vt 0.56629 0.06242
vt 0.76011 0.42333
vt 0.38136 0.00532
vt 0.15265 0.89389
vt 0.94490 0.79990
vt 0.64449 0.35419
vt 0.72472 0.41849
vt 0.58102 0.06271
vt 0.95009 0.79993
vt 0.94649 0.80235
vt 0.82153 0.03343
vt 0.16120 0.91251
vt 0.15153 0.91986
vt 0.63226 0.34452
vt 0.61197 0.34722
vt 0.64492 0.34840
vt 0.14746 0.89388
vt 0.64078 0.34516
vt 0.64455 0.34698
vt 0.61442 0.34607
vt 0.14171 0.89891
vt 0.63188 0.33689
vt 0.64388 0.34404
vt 0.95510 0.80221
vt 0.82757 0.05258
vt 0.63687 0.32978
vt 0.64462 0.33295
vt 0.95501 0.80030
vt 0.80398 0.03262
vt 0.79440 0.03237
vt 0.67394 0.00020
vt 0.67636 0.00020
vt 0.67456 0.00081
vt 0.14253 0.89368
vt 0.38007 0.00009
vt 0.38535 0.00056
vt 0.37977 0.00091
vt 0.61301 0.34055
vt 0.76269 0.40187
vt 0.64336 0.32152
vt 0.81814 0.03362
vt 0.14122 0.90924
vt 0.61322 0.33066
vt 0.14461 0.93748
vt 0.59747 0.28440
vt 0.67178 0.28440
vt 0.67219 0.34211
vt 0.34778 0.28616
vt 0.30655 0.27889
vt 0.38086 0.27920
vt 0.61237 0.32059
vt 0.38168 0.27989
vt 0.38089 0.28622
vt 0.63040 0.31760
vt 0.25313 0.03937
vt 0.28770 0.03937
vt 0.25372 0.04026
vt 0.71439 0.00082
vt 0.71439 0.00019
vt 0.71555 0.00032
vt 0.20518 0.99860
vt 0.20914 0.99989
vt 0.20532 0.99976
vt 0.70552 0.00083
vt 0.70426 0.00083
vt 0.70440 0.00018
vt 0.97411 0.07772
vt 0.98435 0.08186
vt 0.97103 0.08900
vt 0.01367 0.76439
vt 0.01328 0.76384
vt 0.02351 0.76438
vt 0.98270 0.09157
vt 0.02125 0.86839
vt 0.02482 0.86974
vt 0.02832 0.87580
vt 0.96057 0.08166
vt 0.04327 0.86815
vt 0.96976 0.09617
vt 0.95869 0.08924
vt 0.49959 0.56342
vt 0.52697 0.49000
vt 0.56399 0.54973
vt 0.49952 0.56629
vt 0.54562 0.59971
vt 0.62372 0.53549
vt 0.62381 0.53454
vt 0.62435 0.53736
vt 0.62314 0.53491
vt 0.61865 0.52465
vt 0.62157 0.45621
vt 0.28286 0.10193
vt 0.31951 0.10001
vt 0.31650 0.13436
vt 0.33444 0.10018
vt 0.80319 0.84560
vt 0.80596 0.85145
vt 0.80283 0.84970
vt 0.94404 0.93051
vt 0.94404 0.96616
vt 0.94306 0.93175
vt 0.48628 0.91469
vt 0.43912 0.90424
vt 0.48628 0.90015
vt 0.80300 0.83858
vt 0.20451 0.85670
vt 0.18596 0.83474
vt 0.20415 0.85259
vt 0.80483 0.85256
vt 0.19244 0.85657
vt 0.78178 0.85136
vt 0.20371 0.84559
vt 0.10903 0.15709
vt 0.12110 0.15691
vt 0.12294 0.17794
vt 0.47666 0.89961
vt 0.20299 0.82782
vt 0.80285 0.82079
vt 0.70128 0.99501
vt 0.71579 0.99414
vt 0.71621 0.99528
vt 0.80628 0.81363
vt 0.48627 0.89882
vt 0.18204 0.85586
vt 0.09861 0.15666
vt 0.80293 0.81201
vt 0.77051 0.85529
vt 0.71707 0.99453
vt 0.20273 0.81903
vt 0.20126 0.81349
vt 0.80256 0.80650
vt 0.80613 0.80398
vt 0.79701 0.80257
vt 0.80597 0.80285
vt 0.08829 0.15657
vt 0.20266 0.81351
vt 0.40511 0.10083
vt 0.40027 0.12382
vt 0.34238 0.10388
vt 0.33457 0.10914
vt 0.17354 0.80917
vt 0.79941 0.80586
vt 0.17172 0.85567
vt 0.33369 0.11628
vt 0.10495 0.18899
vt 0.16103 0.03504
vt 0.15828 0.03469
vt 0.16832 0.02141
vt 0.16578 0.03501
vt 0.79415 0.80589
vt 0.93264 0.68287
vt 0.94022 0.68688
vt 0.77497 0.85143
vt 0.78993 0.80130
vt 0.14900 0.85508
vt 0.37189 0.14110
vt 0.33360 0.12237
vt 0.17483 0.03482
vt 0.93994 0.67606
vt 0.94074 0.67673
vt 0.96051 0.68916
vt 0.78385 0.80088
vt 0.01140 0.99187
vt 0.00759 0.99049
vt 0.01811 0.99071
vt 0.78425 0.80576
vt 0.16547 0.83407
vt 0.77531 0.84504
vt 0.77071 0.84739
vt 0.93683 0.60523
vt 0.93288 0.60432
vt 0.93177 0.59802
vt 0.00473 0.23188
vt 0.00536 0.23015
vt 0.00508 0.24035
vt 0.15807 0.80661
vt 0.14685 0.83184
vt 0.00553 0.22336
vt 0.77022 0.83287
vt 0.77465 0.83658
vt 0.00455 0.22337
vt 0.37912 0.13793
vt 0.18405 0.03270
vt 0.93645 0.58114
vt 0.93130 0.58782
vt 0.39155 0.13040
vt 0.77467 0.80569
vt 0.77359 0.82815
vt 0.12245 0.18845
vt 0.11355 0.18882
vt 0.93111 0.58104
vt 0.27444 0.00096
vt 0.27478 0.00003
vt 0.28050 0.00098
vt 0.14754 0.03170
vt 0.13870 0.00870
vt 0.14754 0.00761
vt 0.18316 0.02143
vt 0.76882 0.82879
vt 0.76955 0.81789
vt 0.77339 0.82481
vt 0.41518 0.11361
vt 0.77344 0.80656
vt 0.77232 0.80293
vt 0.93347 0.56160
vt 0.49502 0.00203
vt 0.49642 0.00503
vt 0.47687 0.00394
vt 0.41324 0.11587
vt 0.17943 0.99999
vt 0.17917 0.99850
vt 0.18193 0.99880
vt 0.18598 0.03028
vt 0.33277 0.13388
vt 0.18273 0.99975
vt 0.77235 0.79995
vt 0.52143 0.98939
vt 0.51934 0.98793
vt 0.08956 0.18955
vt 0.13018 0.00994
vt 0.12614 0.83289
vt 0.07625 0.18997
vt 0.06557 0.15630
vt 0.11404 0.85460
vt 0.93968 0.69316
vt 0.54115 0.98798
vt 0.93363 0.70650
vt 0.04426 0.06424
vt 0.03271 0.04473
vt 0.04389 0.03998
vt 0.82071 0.76730
vt 0.80565 0.76059
vt 0.81715 0.76451
vt 0.02602 0.04768
vt 0.82408 0.76680
vt 0.82150 0.77242
vt 0.80167 0.78454
vt 0.76967 0.76227
vt 0.10254 0.69447
vt 0.08328 0.67993
vt 0.07218 0.66400
vt 0.03645 0.06688
vt 0.02266 0.05651
vt 0.02803 0.06931
vt 0.09952 0.70047
vt 0.81481 0.78830
vt 0.17328 0.69925
vt 0.12321 0.70791
vt 0.12149 0.70464
vt 0.60659 0.01181
vt 0.61603 0.01181
vt 0.60558 0.01791
vt 0.24171 0.99726
vt 0.22805 0.99726
vt 0.22816 0.99669
vt 0.01773 0.07016
vt 0.88348 0.09743
vt 0.85889 0.09261
vt 0.88323 0.09461
vt 0.87795 0.11474
vt 0.88278 0.11098
vt 0.10077 0.72173
vt 0.09166 0.72214
vt 0.09233 0.71025
vt 0.71267 0.78862
vt 0.71508 0.77658
vt 0.60349 0.03501
vt 0.60978 0.03513
vt 0.60368 0.03557
vt 0.10863 0.70843
vt 0.01946 0.07040
vt 0.62769 0.02949
vt 0.62839 0.02296
vt 0.63054 0.01190
vt 0.08861 0.73518
vt 0.08954 0.73793
vt 0.08853 0.73761
vt 0.10305 0.71943
vt 0.71674 0.76951
vt 0.63089 0.01370
vt 0.73034 0.73951
vt 0.72820 0.73852
vt 0.86006 0.08415
vt 0.86122 0.07771
vt 0.71785 0.76486
vt 0.62999 0.01931
vt 0.84744 0.99928
vt 0.84834 0.99820
vt 0.85014 0.99925
vt 0.71859 0.00251
vt 0.69831 0.00165
vt 0.71850 0.00152
vt 0.71903 0.00187
vt 0.85934 0.08839
vt 0.10432 0.72010
vt 0.10187 0.72322
vt 0.97347 0.17770
vt 0.97669 0.15766
vt 0.98113 0.15727
vt 0.49878 0.99596
vt 0.49413 0.99505
vt 0.49858 0.99521
vt 0.99843 0.97247
vt 0.99503 0.97371
vt 0.99829 0.96902
vt 0.71993 0.75640
vt 0.98269 0.17728
vt 0.09582 0.73307
vt 0.09289 0.73825
vt 0.00392 0.59248
vt 0.00475 0.59603
vt 0.00267 0.59603
vt 0.00151 0.59277
vt 0.09665 0.73316
vt 0.09451 0.73922
vt 0.85796 0.09612
vt 0.85915 0.08837
vt 0.98260 0.16948
vt 0.98278 0.16179
vt 0.01107 0.59579
vt 0.81133 0.52053
vt 0.83248 0.53106
vt 0.81231 0.53175
vt 0.09712 0.73579
vt 0.97403 0.17836
vt 0.98321 0.17742
vt 0.99224 0.17749
vt 0.60925 0.99985
vt 0.60144 0.99985
vt 0.60375 0.99914
vt 0.01040 0.42847
vt 0.00651 0.42750
vt 0.01027 0.42599
vt 0.01159 0.59300
vt 0.98336 0.17188
vt 0.99041 0.17245
vt 0.00771 0.42937
vt 0.18605 0.00824
vt 0.20400 0.01145
vt 0.20460 0.01831
vt 0.81139 0.51728
vt 0.99213 0.97300
vt 0.99252 0.96919
vt 0.62736 0.03383
vt 0.22099 0.00003
vt 0.22423 0.00031
vt 0.21781 0.00047
vt 0.73717 0.72637
vt 0.85795 0.10336
vt 0.72013 0.74796
vt 0.72294 0.73689
vt 0.81084 0.51412
vt 0.98492 0.16116
vt 0.73559 0.73129
vt 0.99199 0.96581
vt 0.73071 0.73588
vt 0.98612 0.15704
vt 0.00683 0.47360
vt 0.00315 0.47255
vt 0.00364 0.46974
vt 0.00409 0.42430
vt 0.81031 0.50752
vt 0.83462 0.50484
vt 0.85806 0.11400
vt 0.48408 0.99639
vt 0.01046 0.46242
vt 0.00331 0.46469
vt 0.73318 0.72659
vt 0.48913 0.99514
vt 0.18695 0.03247
vt 0.18723 0.02588
vt 0.18917 0.03203
vt 0.71236 0.72600
vt 0.72310 0.73636
vt 0.99327 0.15647
vt 0.86356 0.12492
vt 0.01022 0.47408
vt 0.00220 0.42194
vt 0.00971 0.42213
vt 0.99128 0.15632
vt 0.81035 0.50589
vt 0.68993 0.00049
vt 0.68809 0.00049
vt 0.68837 0.00002
vt 0.18650 0.03426
vt 0.98891 0.16083
vt 0.55090 0.99344
vt 0.53619 0.99344
vt 0.53579 0.99296
vt 0.91691 0.90270
vt 0.93672 0.90321
vt 0.93429 0.90418
vt 0.99193 0.16089
vt 0.20567 0.03460
vt 0.18683 0.01947
vt 0.67743 0.00012
vt 0.67931 0.00081
vt 0.67704 0.00088
vt 0.20528 0.02542
vt 0.91636 0.87629
vt 0.91745 0.87670
vt 0.98223 0.72163
vt 0.96283 0.69666
vt 0.98223 0.69614
vt 0.97404 0.87738
vt 0.98944 0.85037
vt 0.99341 0.86916
vt 0.91712 0.87558
vt 0.91764 0.87543
vt 0.99256 0.86232
vt 0.20561 0.02934
vt 0.83548 0.48498
vt 0.46812 0.00201
vt 0.44872 0.00201
vt 0.44895 0.00152
vt 0.92576 0.87859
vt 0.96316 0.72321
vt 0.81018 0.47934
vt 0.97033 0.86805
vt 0.97335 0.87688
vt 0.99161 0.85524
vt 0.93644 0.89452
vt 0.57849 0.00586
vt 0.55861 0.00586
vt 0.57829 0.00523
vt 0.93425 0.87977
vt 0.99116 0.85134
vt 0.93361 0.88059
vt 0.96530 0.85476
vt 0.99047 0.84692
vt 0.20609 0.03378
vt 0.97423 0.85200
vt 0.97006 0.85221
vt 0.96475 0.85390
vt 0.61014 0.05469
vt 0.61476 0.05157
vt 0.62582 0.06738
vt 0.59214 0.06622
vt 0.59192 0.06533
vt 0.93797 0.86245
vt 0.03366 0.97785
vt 0.01605 0.97918
vt 0.01570 0.97867
vt 0.03178 0.97876
vt 0.05334 0.23740
vt 0.11072 0.25604
vt 0.05209 0.25309
vt 0.03418 0.97715
vt 0.73097 0.75948
vt 0.10690 0.71912
vt 0.74177 0.72653
vt 0.73909 0.73072
vt 0.22982 0.49207
vt 0.24266 0.49186
vt 0.29820 0.51207
vt 0.04330 0.93516
vt 0.04567 0.93516
vt 0.04413 0.95700
vt 0.01701 0.93569
vt 0.50213 0.30034
vt 0.51518 0.30255
vt 0.50234 0.30271
vt 0.54038 0.30173
vt 0.26787 0.49151
vt 0.52974 0.26876
vt 0.29033 0.49101
vt 0.50283 0.27405
vt 0.69014 0.99347
vt 0.70546 0.99347
vt 0.68970 0.99443
vt 0.22844 0.51392
vt 0.04452 0.97232
vt 0.03576 0.97169
vt 0.56282 0.30076
vt 0.01195 0.93609
vt 0.01078 0.96168
vt 0.50913 0.26887
vt 0.50290 0.26898
vt 0.02576 0.97064
vt 0.01523 0.96970
vt 0.23017 0.52961
vt 0.57582 0.30007
vt 0.99106 0.70065
vt 0.99231 0.71492
vt 0.99177 0.72626
vt 0.30334 0.49055
vt 0.30844 0.49320
vt 0.64776 0.00017
vt 0.64857 0.00084
vt 0.64579 0.00069
vt 0.03841 0.85895
vt 0.05062 0.84601
vt 0.06601 0.83866
vt 0.04250 0.97260
vt 0.23454 0.36861
vt 0.26553 0.37132
vt 0.23408 0.37135
vt 0.23392 0.37815
vt 0.04860 0.85979
vt 0.99211 0.80292
vt 0.99882 0.80292
vt 0.99529 0.80746
vt 0.57733 0.29024
vt 0.22538 0.98008
vt 0.22998 0.97887
vt 0.23533 0.98030
vt 0.27308 0.52382
vt 0.03797 0.84563
vt 0.04120 0.84315
vt 0.22129 0.97895
vt 0.06842 0.86433
vt 0.26128 0.52945
vt 0.03956 0.83537
vt 0.76464 0.49626
vt 0.76079 0.49076
vt 0.78298 0.49543
vt 0.57884 0.27703
vt 0.54936 0.26846
vt 0.24038 0.39572
vt 0.30143 0.51207
vt 0.32678 0.49378
vt 0.23403 0.38820
vt 0.29824 0.51760
vt 0.04439 0.83588
vt 0.08648 0.86390
vt 0.21209 0.98002
vt 0.34743 0.49423
vt 0.29835 0.52902
vt 0.80361 0.49465
vt 0.23446 0.39877
vt 0.00414 0.42658
vt 0.00604 0.42919
vt 0.00203 0.42926
vt 0.00561 0.01378
vt 0.00561 0.00826
vt 0.00946 0.01660
vt 0.21053 0.97897
vt 0.01089 0.51780
vt 0.00794 0.51950
vt 0.00171 0.51794
vt 0.03824 0.82872
vt 0.04080 0.82824
vt 0.00755 0.11497
vt 0.00524 0.11826
vt 0.00489 0.11359
vt 0.23723 0.39862
vt 0.10769 0.86338
vt 0.10686 0.84139
vt 0.57196 0.26786
vt 0.30247 0.37439
vt 0.00710 0.10856
vt 0.76199 0.48216
vt 0.81481 0.46342
vt 0.24654 0.39838
vt 0.99845 0.69865
vt 0.99474 0.69922
vt 0.99054 0.69726
vt 0.04803 0.82567
vt 0.57952 0.26815
vt 0.76336 0.47148
vt 0.79435 0.46361
vt 0.05401 0.82394
vt 0.00455 0.10138
vt 0.25324 0.39839
vt 0.00729 0.10482
vt 0.30445 0.38789
vt 0.00601 0.10049
vt 0.25087 0.98869
vt 0.23869 0.98762
vt 0.25038 0.97704
vt 0.99046 0.69941
vt 0.20318 0.98004
vt 0.00700 0.10055
vt 0.11567 0.86120
vt 0.11488 0.86350
vt 0.26824 0.39832
vt 0.36467 0.99988
vt 0.37198 0.99859
vt 0.37223 0.99990
vt 0.23401 0.98781
vt 0.00948 0.02462
vt 0.00463 0.02501
vt 0.11590 0.86242
vt 0.68012 0.00091
vt 0.68069 0.00010
vt 0.68227 0.00091
vt 0.76475 0.46404
vt 0.77573 0.46378
vt 0.36985 0.49663
vt 0.86849 0.99985
vt 0.86849 0.99814
vt 0.86992 0.99879
vt 0.06748 0.82704
vt 0.11379 0.85772
vt 0.12483 0.86528
vt 0.35137 0.08349
vt 0.11180 0.84815
vt 0.08169 0.82222
vt 0.84163 0.99456
vt 0.85328 0.99456
vt 0.84026 0.99536
vt 0.82489 0.58852
vt 0.81632 0.53917
vt 0.10590 0.82427
vt 0.97796 0.07772
vt 0.99381 0.06621
vt 0.98990 0.08298
vt 0.28480 0.39872
vt 0.96592 0.77403
vt 0.96585 0.76465
vt 0.96711 0.75752
vt 0.87560 0.63699
vt 0.23753 0.00538
vt 0.25113 0.00419
vt 0.25591 0.00507
vt 0.81518 0.53548
vt 0.30619 0.39984
vt 0.29440 0.39871
vt 0.01178 0.35017
vt 0.01178 0.32876
vt 0.01242 0.33833
vt 0.96690 0.74260
vt 0.39452 0.10049
vt 0.35809 0.06717
vt 0.36248 0.06894
vt 0.31121 0.40007
vt 0.30269 0.36959
vt 0.31748 0.40032
vt 0.33271 0.40104
vt 0.35277 0.36882
vt 0.36891 0.07140
vt 0.34681 0.10168
vt 0.34590 0.09768
vt 0.80767 0.58826
vt 0.87361 0.59975
vt 0.87740 0.58932
vt 0.97755 0.44216
vt 0.97755 0.44216
vt 0.97755 0.44216
vt 0.97755 0.44216
vt 0.97755 0.44216
vt 0.97755 0.44216
vt 0.97755 0.44216
vt 0.97755 0.44216
vt 0.97755 0.44216
vt 0.97755 0.44216
vt 0.98822 0.34952
vt 0.98822 0.34952
vt 0.98822 0.34952
vt 0.98822 0.34952
vt 0.98822 0.34952
vt 0.98822 0.34952
vt 0.98822 0.34952
vt 0.98822 0.34952
vt 0.34778 0.28616
vt 0.34778 0.28616
vt 0.34778 0.28616
vt 0.34778 0.28616
vt 0.34778 0.28616
vt 0.34778 0.28616
vt 0.34778 0.28616
vt 0.34778 0.28616
vt 0.34778 0.28616
vt 0.34778 0.28616
vt 0.34778 0.28616
vt 0.34778 0.28616
vt 0.34778 0.28616
vt 0.34778 0.28616
vt 0.34778 0.28616
vt 0.63435 0.01333
vt 0.63435 0.01333
vt 0.63435 0.01333
vt 0.63435 0.01333
vt 0.63435 0.01333
vt 0.63435 0.01333
vt 0.63435 0.01333
vt 0.63435 0.01333
vt 0.63435 0.01333
vt 0.63435 0.01333
vt 0.63435 0.01333
vt 0.63435 0.01333
vt 0.63435 0.01333
vt 0.63435 0.01333
vt 0.63435 0.01333
vt 0.63435 0.01333
vt 0.63435 0.01333
vt 0.63435 0.01333
vt 0.63435 0.01333
vt 0.63435 0.01333
vt 0.63435 0.01333
vt 0.63435 0.01333
vt 0.63435 0.01333
vt 0.63435 0.01333
vt 0.63435 0.01333
vt 0.63435 0.01333
vt 0.63435 0.01333
vn -0.0167 0.9998 -0.0145
vn 0.0256 0.9997 -0.0014
vn 0.0312 0.9995 0.0003
vn 0.0376 0.9974 0.0617
vn 0.0487 0.9966 0.0664
vn 0.0413 0.9970 0.0653
vn 0.2759 -0.9609 0.0232
vn 0.2380 -0.9695 0.0589
vn 0.3234 -0.9457 0.0320
vn 0.8403 0.0731 -0.5371
vn 0.8259 0.1230 -0.5503
vn 0.8272 0.0891 -0.5547
vn 0.8373 0.0801 -0.5409
vn 0.8250 0.1326 -0.5493
vn 0.3372 -0.9299 -0.1469
vn 0.3372 -0.9299 -0.1469
vn 0.3372 -0.9299 -0.1469
vn 0.8115 0.1926 -0.5517
vn 0.2576 -0.9651 0.0473
vn 0.2245 -0.9735 0.0442
vn -0.1450 0.9868 -0.0719
vn -0.0788 0.9963 -0.0340
vn -0.1487 0.9855 -0.0816
vn -0.4512 -0.2945 -0.8425
vn -0.3670 -0.2247 -0.9027
vn -0.2923 -0.1741 -0.9403
vn -0.2536 -0.1805 -0.9503
vn -0.7756 -0.3484 0.5264
vn -0.6780 -0.4483 0.5826
vn -0.8049 -0.3456 0.4824
vn -0.8121 -0.2987 0.5013
vn 0.7711 0.3114 -0.5553
vn 0.7846 0.1088 -0.6104
vn 0.8164 0.0626 -0.5741
vn 0.8277 0.0540 -0.5585
vn -0.5032 -0.3292 -0.7990
vn -0.2223 -0.1648 -0.9609
vn 0.8101 0.0772 -0.5812
vn -0.2795 -0.0869 -0.9562
vn 0.6673 0.5064 -0.5462
vn 0.8637 0.0613 -0.5003
vn 0.8738 0.1061 -0.4746
vn -0.4382 -0.0622 -0.8967
vn 0.4283 -0.8544 0.2941
vn 0.2851 -0.8088 0.5143
vn 0.3581 -0.8591 0.3656
vn -0.5199 0.0254 -0.8538
vn 0.3059 -0.7857 0.5377
vn -0.1823 0.4757 -0.8605
vn -0.1823 0.4757 -0.8605
vn -0.1823 0.4757 -0.8605
vn 0.9026 0.1788 -0.3916
vn 0.8913 0.1104 -0.4399
vn -0.4471 0.7630 -0.4669
vn -0.4471 0.7630 -0.4669
vn -0.4471 0.7630 -0.4669
vn -0.6564 0.0112 -0.7543
vn 0.4570 -0.8752 0.1586
vn -0.6880 -0.0352 -0.7248
vn 0.3358 -0.7580 0.5592
vn 0.3442 -0.7528 0.5611
vn 0.9503 -0.2347 0.2046
vn 0.9691 -0.1423 0.2013
vn -0.0380 0.9794 0.1985
vn 0.2489 0.9682 0.0251
vn 0.1695 0.9822 0.0811
vn 0.4511 -0.8924 0.0135
vn -0.0536 0.9786 0.1987
vn -0.0458 0.9851 0.1655
vn 0.9742 0.0395 0.2224
vn 0.9444 -0.2554 0.2073
vn 0.9682 0.0612 0.2428
vn 0.9737 -0.0061 0.2279
vn -0.0037 0.9940 0.1092
vn 0.9759 0.0030 0.2184
vn 0.9718 -0.0526 0.2299
vn 0.9801 -0.0102 0.1982
vn 0.9070 -0.3664 0.2076
vn 0.9836 0.0006 0.1806
vn 0.9705 -0.0603 0.2336
vn 0.0027 0.9960 0.0888
vn 0.6132 0.7752 0.1517
vn 0.6520 0.7429 0.1516
vn 0.6109 0.7770 0.1517
vn 0.9873 0.0095 0.1584
vn 0.9701 0.1569 0.1850
vn 0.0304 0.9995 0.0008
vn 0.0279 0.9996 -0.0093
vn 0.0351 0.9994 0.0020
vn 0.9781 0.0442 0.2035
vn 0.5722 0.8100 0.1287
vn 0.0335 0.9990 -0.0307
vn 0.9997 -0.0003 0.0248
vn 0.9998 0.0110 0.0170
vn 0.0486 0.9985 0.0242
vn 0.9996 0.0022 0.0276
vn 0.9996 0.0005 0.0279
vn 0.9433 -0.2018 0.2636
vn 0.9261 -0.2503 0.2822
vn 0.9404 -0.2185 0.2604
vn 0.9453 -0.1990 0.2584
vn 0.1104 -0.9939 -0.0014
vn 0.0464 -0.9882 0.1462
vn 0.0981 -0.9952 0.0049
vn 0.3297 -0.9411 -0.0755
vn 0.0325 0.9991 -0.0258
vn 0.9495 -0.1719 0.2626
vn 0.7272 0.1107 -0.6775
vn 0.7792 0.2070 -0.5915
vn 0.8028 0.2182 -0.5549
vn 0.7227 -0.0044 -0.6911
vn 0.7126 0.0008 -0.7016
vn 0.6805 0.0550 -0.7307
vn -0.0850 -0.9034 -0.4203
vn -0.3947 -0.6023 -0.6938
vn -0.2640 -0.6658 -0.6979
vn 0.5681 -0.0560 -0.8210
vn -0.1230 0.9918 -0.0349
vn -0.1300 0.9911 -0.0294
vn -0.1315 0.9906 -0.0376
vn -0.7737 -0.1802 0.6074
vn -0.8365 -0.0459 0.5460
vn -0.8015 -0.1380 0.5819
vn -0.3451 -0.5539 -0.7577
vn -0.3760 -0.2286 -0.8980
vn 0.6708 0.0666 -0.7386
vn -0.5516 -0.2880 -0.7828
vn -0.5703 -0.2765 -0.7735
vn -0.1328 0.9718 -0.1948
vn 0.1206 0.8459 -0.5196
vn -0.0976 0.9112 -0.4002
vn 0.8656 0.1552 -0.4761
vn 0.8657 0.1364 -0.4817
vn 0.8258 0.1264 -0.5497
vn 0.8686 0.1686 -0.4660
vn -0.5671 -0.2767 -0.7758
vn -0.7745 -0.1802 0.6064
vn -0.2330 0.9601 -0.1548
vn -0.1316 0.9903 -0.0437
vn -0.3850 -0.6002 -0.7011
vn 0.2322 -0.9668 0.1069
vn 0.2239 -0.9697 0.0981
vn 0.2301 -0.9667 0.1123
vn -0.5966 -0.1425 -0.7898
vn -0.4579 -0.2642 -0.8488
vn 0.5670 -0.3524 -0.7446
vn 0.5670 -0.3524 -0.7446
vn 0.5670 -0.3524 -0.7446
vn 0.2153 -0.9712 0.1022
vn 0.2342 -0.9667 0.1032
vn 0.2958 -0.9526 -0.0713
vn 0.2600 -0.9622 0.0807
vn 0.2188 -0.9730 0.0735
vn -0.8414 0.0675 0.5362
vn -0.8465 0.0597 0.5290
vn -0.5194 -0.1978 -0.8313
vn 0.8725 0.1391 -0.4684
vn 0.2428 -0.9540 0.1757
vn 0.2334 -0.9706 0.0585
vn -0.2152 0.1237 -0.9687
vn -0.2152 0.1237 -0.9687
vn -0.2152 0.1237 -0.9687
vn -0.5918 -0.1051 -0.7992
vn 0.8093 0.1261 -0.5737
vn 0.8252 0.0508 -0.5625
vn -0.5559 -0.1200 -0.8226
vn 0.2235 -0.9696 0.0999
vn -0.2033 0.9782 -0.0419
vn -0.8149 -0.0197 0.5793
vn -0.8304 -0.0404 0.5557
vn -0.8381 0.0574 0.5426
vn -0.5586 -0.1187 -0.8209
vn 0.3809 0.8342 -0.3988
vn 0.3674 0.8541 -0.3682
vn 0.3468 0.8808 -0.3223
vn -0.5556 -0.1188 -0.8229
vn 0.1896 -0.9774 0.0929
vn 0.2149 -0.9701 0.1125
vn 0.8399 0.0411 -0.5412
vn 0.2277 -0.9711 0.0718
vn 0.8267 0.1804 -0.5329
vn -0.2844 -0.7536 -0.5926
vn 0.8527 0.0480 -0.5202
vn -0.2014 0.9785 -0.0439
vn -0.0613 0.9975 0.0359
vn -0.2177 0.9717 -0.0917
vn -0.7830 -0.1731 0.5974
vn -0.2708 -0.7677 -0.5807
vn -0.3444 0.9004 -0.2658
vn -0.3175 0.9031 -0.2890
vn 0.7977 0.1903 -0.5723
vn 0.3378 0.8912 -0.3028
vn -0.2142 0.9686 -0.1262
vn -0.5742 -0.0905 -0.8137
vn -0.8162 -0.1559 0.5564
vn 0.8376 0.0849 -0.5397
vn -0.3582 0.9192 -0.1639
vn -0.6142 -0.0574 -0.7870
vn -0.5635 -0.1427 -0.8137
vn 0.3491 -0.9231 -0.1610
vn -0.1382 0.9903 -0.0155
vn -0.1814 0.9833 -0.0154
vn -0.7592 -0.0381 0.6497
vn -0.8400 0.0946 0.5342
vn -0.8872 -0.1786 0.4254
vn -0.2067 0.9681 -0.1417
vn -0.7387 -0.1283 0.6617
vn -0.9496 -0.2673 0.1639
vn -0.8212 0.0933 0.5630
vn -0.2107 0.9659 -0.1507
vn -0.7631 -0.0870 0.6404
vn -0.7436 -0.2954 0.5997
vn -0.6127 0.0125 -0.7903
vn 0.2225 -0.9723 0.0712
vn -0.7995 -0.3233 0.5062
vn -0.7665 -0.3810 0.5170
vn -0.6052 0.0392 -0.7951
vn 0.2239 -0.9563 0.1881
vn 0.2381 -0.9637 0.1204
vn -0.9544 -0.0577 -0.2930
vn -0.9544 -0.0577 -0.2930
vn -0.9544 -0.0577 -0.2930
vn -0.1971 0.9570 -0.2127
vn -0.6433 0.6953 0.3205
vn -0.6433 0.6953 0.3205
vn -0.6433 0.6953 0.3205
vn -0.8069 0.1216 0.5780
vn 0.8148 0.1791 -0.5513
vn -0.7681 -0.4027 0.4979
vn 0.0572 -0.9608 0.2715
vn -0.2385 0.9701 0.0438
vn -0.8384 0.0802 0.5391
vn -0.1356 0.9839 -0.1161
vn 0.9998 0.0018 0.0179
vn 0.9998 0.0018 0.0179
vn 0.9998 0.0018 0.0179
vn 0.0525 0.0051 -0.9986
vn 0.1199 -0.0073 -0.9928
vn 0.0499 -0.2121 -0.9760
vn -0.8683 0.0107 0.4959
vn 0.0302 -0.5576 -0.8296
vn 0.0307 -0.3668 -0.9298
vn -0.8711 -0.0729 0.4856
vn 0.7361 -0.6591 0.1541
vn 0.7361 -0.6591 0.1541
vn 0.7361 -0.6591 0.1541
vn 0.3127 0.5360 0.7842
vn 0.3127 0.5360 0.7842
vn 0.3127 0.5360 0.7842
vn 0.7907 0.5217 -0.3203
vn 0.7907 0.5217 -0.3203
vn 0.7907 0.5217 -0.3203
vn -0.2664 0.4622 0.8458
vn -0.2664 0.4622 0.8458
vn -0.2664 0.4622 0.8458
vn -0.8009 -0.0841 0.5929
vn -0.8201 -0.0347 0.5712
vn -0.7711 -0.0607 0.6338
vn -0.4455 0.8781 0.1748
vn -0.4455 0.8781 0.1748
vn -0.4455 0.8781 0.1748
vn -0.8102 -0.0164 0.5860
vn 0.2267 0.9178 -0.3260
vn 0.1368 0.9645 -0.2259
vn -0.0301 0.9989 -0.0364
vn -0.7738 -0.1419 0.6174
vn -0.0676 0.9977 0.0067
vn -0.7501 -0.0615 0.6585
vn -0.7721 -0.1777 0.6102
vn 0.9979 -0.0442 -0.0464
vn 0.9998 -0.0014 0.0219
vn 0.9998 0.0014 0.0217
vn 0.9985 -0.0374 -0.0399
vn 0.9996 0.0079 0.0260
vn -0.0937 -0.9317 0.3509
vn 0.0491 -0.9858 0.1603
vn -0.1802 -0.9257 0.3325
vn 0.0770 -0.9891 0.1257
vn 0.0734 -0.9973 -0.0015
vn 0.0784 -0.9969 -0.0049
vn -0.1403 0.9851 -0.0992
vn -0.1298 0.9876 -0.0879
vn -0.1467 0.9850 -0.0907
vn -0.1479 0.9849 -0.0903
vn -0.4166 -0.3039 -0.8568
vn -0.4582 -0.4935 -0.7392
vn -0.4587 -0.4922 -0.7398
vn 0.4318 0.6553 0.6198
vn 0.4318 0.6553 0.6198
vn 0.4318 0.6553 0.6198
vn 0.8088 0.0891 -0.5813
vn 0.7967 0.0832 -0.5986
vn 0.6352 0.0382 -0.7714
vn -0.3307 -0.2634 -0.9062
vn 0.8504 -0.0197 -0.5258
vn 0.8391 0.1114 -0.5325
vn 0.8824 0.0837 -0.4631
vn -0.4667 -0.6223 -0.6284
vn 0.8385 -0.0598 -0.5416
vn -0.4454 -0.6377 -0.6284
vn 0.8978 0.1890 -0.3978
vn 0.2148 -0.9728 0.0867
vn 0.2502 -0.9630 0.1005
vn 0.2621 -0.9622 0.0745
vn 0.6695 0.0303 -0.7422
vn 0.9000 0.1678 -0.4022
vn -0.3931 -0.2777 -0.8766
vn 0.4176 0.7797 -0.4665
vn 0.3647 0.7211 -0.5891
vn 0.3342 0.6847 -0.6477
vn -0.4164 -0.2608 -0.8710
vn 0.4166 -0.0138 -0.9090
vn 0.8458 -0.0458 -0.5315
vn 0.2505 -0.9643 0.0857
vn -0.4292 -0.2637 -0.8638
vn -0.6042 -0.4959 -0.6237
vn 0.2349 0.5566 -0.7969
vn 0.8787 0.1461 -0.4544
vn 0.8922 0.2367 -0.3846
vn -0.5529 -0.0658 -0.8306
vn -0.5613 0.2171 -0.7987
vn -0.6752 0.0718 -0.7342
vn -0.5448 0.5674 -0.6175
vn 0.2393 -0.9669 0.0881
vn 0.9396 0.2760 -0.2024
vn -0.8005 -0.0545 0.5969
vn -0.8115 -0.0663 0.5806
vn -0.7991 -0.0679 0.5974
vn -0.1799 0.9776 -0.1092
vn 0.7877 0.1920 -0.5854
vn -0.7145 -0.0565 -0.6973
vn 0.8405 -0.0467 -0.5399
vn -0.0693 0.9950 -0.0724
vn 0.2510 -0.9655 0.0689
vn -0.1884 0.9692 -0.1588
vn -0.1686 0.9606 -0.2210
vn -0.1997 0.9787 -0.0468
vn -0.2239 0.9741 -0.0315
vn -0.6740 0.0779 -0.7346
vn -0.2248 0.9156 0.3334
vn -0.2169 0.9716 0.0948
vn -0.5921 -0.4775 -0.6492
vn -0.6467 0.1616 -0.7454
vn 0.8397 0.0111 -0.5429
vn -0.8147 -0.0824 0.5740
vn -0.1709 0.9814 -0.0869
vn -0.2291 0.9727 -0.0357
vn -0.0573 0.9861 -0.1558
vn -0.0622 0.9886 -0.1373
vn -0.1781 0.9828 -0.0490
vn -0.6818 0.0454 -0.7301
vn 0.5604 -0.5473 0.6217
vn 0.5604 -0.5473 0.6217
vn 0.5604 -0.5473 0.6217
vn -0.6896 0.0404 -0.7230
vn 0.7890 0.1114 -0.6042
vn -0.6426 -0.2960 -0.7067
vn -0.6590 -0.3288 -0.6765
vn 0.2420 0.2847 0.9276
vn 0.2138 0.2942 0.9315
vn 0.2689 0.2766 0.9226
vn -0.7635 -0.0962 0.6386
vn -0.7813 -0.1234 0.6118
vn -0.7556 -0.0885 0.6490
vn 0.8141 0.1653 -0.5566
vn 0.8477 0.1099 -0.5190
vn -0.8732 -0.2027 0.4432
vn -0.6180 -0.2888 -0.7313
vn -0.6056 -0.2733 -0.7473
vn -0.8765 -0.2060 0.4351
vn -0.9460 -0.1747 0.2732
vn -0.1776 0.9840 -0.0157
vn 0.2897 0.2575 0.9218
vn 0.2886 0.2789 0.9159
vn -0.9746 -0.2145 0.0637
vn -0.7167 -0.1041 -0.6896
vn -0.6152 -0.2937 -0.7316
vn 0.2850 -0.9571 0.0515
vn 0.2870 -0.9574 0.0308
vn 0.2899 0.2554 0.9223
vn 0.8511 -0.4715 -0.2308
vn 0.8511 -0.4715 -0.2308
vn 0.8511 -0.4715 -0.2308
vn -0.7849 -0.1354 0.6046
vn -0.7864 -0.1353 0.6027
vn -0.7792 -0.1356 0.6120
vn -0.1321 0.9911 -0.0191
vn -0.8288 -0.2372 -0.5068
vn -0.8440 -0.2659 -0.4658
vn -0.8321 -0.2448 -0.4977
vn -0.8351 -0.0628 0.5465
vn -0.7878 -0.2489 -0.5633
vn -0.7125 -0.0850 -0.6965
vn 0.2960 0.2381 0.9250
vn -0.2996 -0.0335 0.9535
vn -0.2996 -0.0335 0.9535
vn -0.2996 -0.0335 0.9535
vn -0.9554 -0.1337 0.2633
vn -0.2285 0.7933 0.5643
vn -0.2685 0.7509 0.6034
vn -0.1237 0.8821 0.4546
vn -0.1706 0.9853 0.0070
vn -0.1772 0.9804 -0.0866
vn -0.0786 0.9112 0.4044
vn -0.6744 -0.0133 -0.7383
vn -0.6112 0.0506 0.7899
vn -0.6112 0.0506 0.7899
vn 0.2209 -0.9730 0.0664
vn -0.7917 -0.1351 0.5958
vn 0.8612 0.0281 -0.5076
vn 0.2246 -0.9712 0.0798
vn 0.2306 -0.9676 0.1033
vn 0.8408 -0.0597 -0.5381
vn -0.1817 0.9829 0.0295
vn -0.6112 0.0506 0.7899
vn -0.0927 0.9957 -0.0005
vn 0.7208 0.0722 -0.6894
vn 0.7232 0.0705 -0.6870
vn 0.7212 0.0737 -0.6888
vn 0.6871 0.5186 0.5089
vn 0.6363 0.5384 0.5526
vn 0.6383 0.5396 0.5489
vn 0.7194 0.1014 -0.6871
vn 0.6957 0.5268 0.4883
vn 0.7169 0.4853 0.5005
vn 0.7056 0.4784 0.5228
vn 0.6923 0.4949 0.5251
vn -0.4535 -0.4379 -0.7763
vn -0.4157 -0.4917 -0.7651
vn -0.4159 -0.4920 -0.7648
vn 0.7289 0.0564 -0.6822
vn 0.6712 0.2674 -0.6913
vn 0.7032 0.1642 -0.6918
vn -0.4780 -0.4394 -0.7606
vn 0.7274 0.4508 0.5173
vn -0.7776 -0.5747 -0.2551
vn -0.8100 -0.5200 -0.2711
vn -0.8166 -0.5125 -0.2656
vn 0.1338 0.9826 0.1286
vn 0.1288 0.9840 0.1228
vn 0.1321 0.9832 0.1256
vn 0.2036 0.4046 0.8915
vn 0.2036 0.4046 0.8915
vn 0.2036 0.4046 0.8915
vn 0.6305 0.2650 -0.7295
vn -0.7139 0.0373 0.6992
vn -0.8832 -0.2324 0.4075
vn -0.7301 0.0687 0.6798
vn -0.7050 -0.0028 0.7092
vn -0.7104 -0.0276 0.7033
vn -0.8241 -0.3230 -0.4654
vn -0.6034 -0.3444 -0.7192
vn -0.5727 -0.4556 -0.6815
vn -0.5379 -0.5527 -0.6365
vn -0.5283 -0.5574 -0.6405
vn -0.0129 0.9591 0.2829
vn 0.1217 0.9839 0.1312
vn -0.1855 0.8676 0.4613
vn -0.6908 -0.4392 -0.5744
vn 0.4296 0.1887 -0.8831
vn 0.1209 0.9849 0.1241
vn 0.1160 0.9880 0.1021
vn 0.1110 0.9885 0.1023
vn -0.7349 -0.2691 -0.6225
vn -0.7083 -0.1366 -0.6925
vn -0.6131 -0.0137 -0.7899
vn -0.7930 -0.4784 -0.3773
vn -0.4864 -0.5761 -0.6570
vn 0.0620 0.9953 0.0741
vn -0.5508 -0.4479 -0.7043
vn -0.5698 -0.4033 -0.7160
vn -0.7107 0.0011 0.7035
vn -0.7127 0.0035 0.7015
vn -0.4959 -0.5701 -0.6551
vn -0.0222 0.9992 0.0325
vn -0.7621 -0.1365 -0.6329
vn -0.7621 -0.1365 -0.6329
vn -0.7621 -0.1365 -0.6329
vn 0.9253 0.3769 -0.0421
vn 0.9558 0.2922 -0.0313
vn 0.9218 0.3852 -0.0432
vn 0.8362 0.5448 -0.0636
vn -0.6988 -0.0175 0.7151
vn -0.5257 -0.8149 -0.2439
vn -0.9504 -0.2793 -0.1367
vn 0.5260 0.1125 0.8430
vn 0.6596 0.1947 0.7260
vn 0.6240 0.1645 0.7639
vn 0.2751 0.9168 0.2894
vn 0.0528 0.9924 0.1110
vn 0.3200 0.8898 0.3253
vn 0.5374 -0.8433 -0.0059
vn 0.3119 -0.9337 0.1759
vn 0.3599 -0.9296 0.0795
vn -0.5279 -0.5098 -0.6793
vn 0.5115 0.0982 0.8537
vn -0.9190 -0.0668 -0.3885
vn -0.8871 0.1491 -0.4369
vn 0.6918 -0.0386 -0.7210
vn 0.6953 0.0470 -0.7172
vn 0.7022 -0.0832 -0.7071
vn 0.6731 -0.2005 -0.7119
vn -0.9792 -0.0131 -0.2026
vn -0.9326 0.1627 -0.3222
vn -0.9248 -0.2429 0.2930
vn -0.9068 -0.4215 0.0109
vn 0.7344 0.0984 0.6715
vn 0.7476 0.1324 0.6508
vn 0.6919 0.0911 -0.7163
vn 0.7248 0.1704 -0.6676
vn 0.7654 0.1296 -0.6304
vn 0.6902 0.1829 -0.7001
vn -0.8596 0.1769 -0.4793
vn 0.4576 -0.5144 0.7253
vn 0.4745 -0.3617 0.8025
vn 0.4124 -0.0404 0.9101
vn 0.9779 0.1126 0.1761
vn 0.9779 0.1126 0.1761
vn 0.9779 0.1126 0.1761
vn 0.1346 0.9907 -0.0206
vn 0.0675 0.9966 0.0469
vn 0.0472 0.9887 0.1423
vn 0.6964 0.0892 -0.7121
vn 0.4690 -0.0268 0.8828
vn 0.3090 -0.0020 0.9511
vn 0.1483 0.9849 -0.0895
vn 0.2666 -0.9431 0.1987
vn 0.2529 -0.9287 0.2712
vn 0.2522 -0.9304 0.2661
vn 0.6659 0.2033 -0.7178
vn 0.1985 -0.8961 0.3971
vn 0.2738 -0.9455 0.1765
vn 0.1076 0.9849 0.1356
vn 0.7586 -0.3515 -0.5486
vn 0.7586 -0.3515 -0.5486
vn 0.7586 -0.3515 -0.5486
vn -0.8013 0.1340 -0.5830
vn -0.7246 -0.0025 0.6892
vn -0.5777 -0.4396 -0.6878
vn -0.8604 -0.2683 -0.4334
vn 0.7531 0.1423 -0.6424
vn 0.5275 0.1470 0.8368
vn -0.8120 0.0563 -0.5810
vn 0.3092 -0.9403 0.1425
vn -0.6599 -0.1940 -0.7259
vn 0.5024 0.1168 0.8567
vn -0.4222 -0.2537 0.8703
vn -0.6368 -0.1220 0.7613
vn -0.5028 -0.1265 0.8551
vn -0.0148 0.9662 0.2572
vn 0.8842 0.1367 -0.4466
vn 0.8088 0.0953 -0.5803
vn -0.7074 0.0012 0.7068
vn 0.0873 0.9800 0.1791
vn -0.4606 -0.0994 0.8820
vn -0.4096 -0.0168 0.9121
vn -0.8246 0.0812 -0.5598
vn 0.1367 0.9561 0.2593
vn 0.4128 -0.8996 0.1428
vn 0.3510 -0.9354 0.0427
vn 0.3299 -0.9341 0.1365
vn -0.9492 -0.3145 0.0053
vn -0.9793 -0.0911 -0.1808
vn 0.4299 0.0865 0.8987
vn -0.7128 0.0161 0.7012
vn -0.4555 -0.1964 0.8683
vn -0.0220 0.9554 0.2946
vn -0.0220 0.9550 0.2959
vn 0.4085 0.3260 0.8525
vn 0.8869 0.1384 -0.4407
vn 0.9099 -0.3603 -0.2058
vn 0.9099 -0.3603 -0.2058
vn 0.9099 -0.3603 -0.2058
vn 0.3938 -0.9022 0.1759
vn 0.4333 0.0752 0.8981
vn -0.5975 0.2048 -0.7753
vn -0.5975 0.2048 -0.7753
vn -0.5975 0.2048 -0.7753
vn -0.0938 0.9916 -0.0886
vn -0.0734 0.9911 -0.1107
vn -0.0046 0.9999 -0.0092
vn 0.4279 0.0436 0.9028
vn 0.2711 -0.9274 0.2578
vn 0.3044 -0.9472 0.1012
vn 0.0846 0.8681 0.4891
vn 0.0846 0.8681 0.4891
vn 0.0846 0.8681 0.4891
vn 0.2504 -0.9273 0.2783
vn -0.3074 0.9466 0.0975
vn -0.0235 0.9904 0.1360
vn 0.2472 -0.9680 0.0446
vn 0.2488 -0.9678 0.0386
vn 0.2522 -0.9673 0.0260
vn -0.7558 -0.1064 0.6461
vn -0.7226 -0.1383 0.6772
vn -0.6727 -0.1486 0.7248
vn 0.5334 0.8313 0.1565
vn 0.2538 0.9541 0.1593
vn -0.6265 -0.2689 0.7316
vn 0.2961 -0.9333 0.2031
vn 0.7934 0.0949 -0.6013
vn -0.6461 0.3014 -0.7013
vn -0.6461 0.3014 -0.7013
vn -0.6461 0.3014 -0.7013
vn 0.0196 0.9960 0.0876
vn 0.2438 -0.9682 0.0569
vn 0.7913 0.0900 -0.6048
vn -0.8009 -0.0388 0.5976
vn -0.7746 -0.1684 0.6096
vn -0.6435 -0.2245 0.7318
vn -0.0886 0.9898 -0.1120
vn 0.4102 0.7981 -0.4413
vn 0.4102 0.7981 -0.4413
vn 0.4102 0.7981 -0.4413
vn -0.0503 0.9985 0.0229
vn -0.6378 -0.2462 0.7298
vn 0.0243 0.9960 0.0858
vn -0.4540 0.0557 0.8893
vn -0.7466 -0.1032 0.6572
vn 0.0137 -0.8951 0.4457
vn -0.5463 0.0488 0.8361
vn -0.2818 0.1174 0.9523
vn -0.0771 0.1125 0.9907
vn -0.8154 -0.0632 0.5754
vn -0.8110 -0.0227 0.5847
vn -0.8128 -0.0685 0.5785
vn -0.9312 -0.1350 0.3386
vn -0.9644 -0.1542 0.2150
vn -0.1433 0.9865 -0.0790
vn 0.5805 -0.8143 -0.0013
vn 0.4402 -0.8979 -0.0043
vn 0.1923 -0.9813 0.0089
vn 0.7884 -0.6151 -0.0048
vn 0.9996 0.0076 0.0268
vn 0.9996 0.0076 0.0268
vn 0.9996 0.0076 0.0268
vn 0.2937 -0.9559 0.0016
vn -0.5293 -0.5030 -0.6832
vn -0.8034 -0.5025 -0.3193
vn -0.8087 0.1464 -0.5698
vn -0.8151 0.1346 -0.5635
vn 0.5843 0.5059 0.6346
vn 0.5735 0.5012 0.6480
vn 0.4855 0.6028 0.6331
vn 0.4160 -0.8566 0.3051
vn 0.4540 -0.8249 0.3368
vn 0.3594 -0.8762 0.3210
vn 0.3806 -0.8829 0.2749
vn 0.6734 -0.0195 -0.7390
vn 0.6777 -0.0156 -0.7352
vn 0.6831 -0.0129 -0.7302
vn 0.6687 -0.0281 -0.7430
vn 0.6015 0.5190 0.6074
vn 0.6649 -0.0286 -0.7464
vn 0.6136 0.5219 0.5926
vn 0.6571 -0.0456 -0.7524
vn 0.6846 -0.2933 0.6674
vn 0.6846 -0.2933 0.6674
vn 0.6846 -0.2933 0.6674
vn 0.6387 0.5068 0.5790
vn 0.2882 -0.8572 0.4268
vn 0.3194 -0.8617 0.3943
vn 0.6790 -0.0343 -0.7333
vn 0.3826 -0.8813 0.2774
vn 0.3596 -0.8824 0.3035
vn 0.6550 -0.0456 -0.7543
vn 0.6395 -0.0907 -0.7634
vn 0.3304 -0.8745 0.3551
vn 0.3345 -0.8792 0.3393
vn 0.6448 0.5155 0.5643
vn 0.6666 -0.0335 -0.7447
vn -0.0879 -0.9811 -0.1723
vn -0.0879 -0.9811 -0.1723
vn -0.0879 -0.9811 -0.1723
vn 0.7134 0.5249 0.4642
vn 0.5739 0.5394 0.6162
vn -0.3440 -0.4225 0.8385
vn -0.3440 -0.4225 0.8385
vn -0.3440 -0.4225 0.8385
vn -0.6319 -0.4465 -0.6335
vn -0.6158 -0.3673 -0.6970
vn -0.7073 -0.4590 -0.5377
vn -0.0011 -0.7751 0.6319
vn -0.7102 -0.0101 0.7039
vn -0.7374 -0.0348 0.6746
vn -0.7331 -0.0302 0.6794
vn -0.7396 -0.0454 0.6716
vn -0.6721 -0.5001 -0.5461
vn 0.3439 0.3314 -0.8786
vn 0.3439 0.3314 -0.8786
vn 0.3439 0.3314 -0.8786
vn 0.6600 -0.0331 -0.7506
vn -0.1048 0.8965 -0.4306
vn -0.0464 0.8866 -0.4603
vn -0.0400 0.8852 -0.4636
vn 0.3633 0.5510 0.7512
vn -0.5625 -0.5332 -0.6318
vn -0.6118 -0.5042 -0.6095
vn -0.0929 0.8850 -0.4562
vn -0.6685 -0.4968 -0.5535
vn 0.2329 0.5341 0.8127
vn -0.7822 -0.5305 -0.3267
vn 0.7627 0.1341 -0.6327
vn 0.7192 0.0676 -0.6915
vn 0.7838 0.1452 -0.6038
vn 0.6615 -0.0402 -0.7489
vn 0.6566 -0.0335 -0.7535
vn -0.6838 -0.0257 0.7292
vn 0.3642 0.7118 0.6005
vn 0.5502 0.5304 0.6449
vn -0.7244 -0.0679 0.6860
vn 0.3708 0.5750 0.7293
vn -0.7814 -0.4758 -0.4039
vn -0.6754 -0.4984 -0.5436
vn -0.0890 0.8781 -0.4701
vn 0.5630 0.5260 0.6374
vn 0.3120 0.5707 0.7595
vn 0.7220 0.0989 -0.6848
vn -0.6713 -0.0457 0.7398
vn 0.7646 0.6413 -0.0642
vn 0.7646 0.6413 -0.0642
vn 0.7646 0.6413 -0.0642
vn 0.4702 -0.7204 0.5098
vn 0.4758 -0.7171 0.5093
vn 0.4657 -0.7475 0.4737
vn -0.0805 0.8590 -0.5056
vn 0.7989 0.0026 0.6014
vn 0.7989 0.0026 0.6014
vn 0.7989 0.0026 0.6014
vn -0.8779 -0.4578 -0.1400
vn -0.8807 -0.4518 -0.1421
vn 0.0182 0.9996 0.0218
vn 0.0248 0.9984 -0.0513
vn 0.0255 0.9973 0.0687
vn -0.5430 -0.0244 0.8394
vn -0.6566 -0.5238 -0.5427
vn -0.5927 -0.6059 -0.5306
vn 0.6515 -0.0444 -0.7574
vn -0.6690 -0.0130 0.7432
vn 0.1028 0.9804 0.1682
vn 0.6695 -0.0136 -0.7427
vn 0.7013 0.0563 -0.7106
vn -0.6359 0.0090 0.7717
vn 0.1466 -0.9778 -0.1500
vn 0.1556 -0.9793 -0.1296
vn 0.1923 -0.9803 -0.0442
vn -0.8823 -0.4503 -0.1369
vn 0.6679 -0.0543 -0.7422
vn 0.6683 -0.0170 -0.7437
vn 0.6715 -0.0101 -0.7410
vn -0.8818 -0.4515 -0.1361
vn 0.2393 0.9329 0.2693
vn -0.6240 0.0235 0.7811
vn 0.3101 0.8632 0.3983
vn -0.6996 0.0103 0.7145
vn 0.3788 0.8335 0.4023
vn 0.6972 0.4996 0.5142
vn 0.6994 0.5129 0.4979
vn 0.6976 0.5022 0.5109
vn 0.2022 -0.9791 -0.0203
vn -0.0777 0.8524 -0.5170
vn 0.4920 0.6907 0.5300
vn -0.4000 -0.4542 -0.7961
vn -0.3570 -0.3809 -0.8529
vn -0.6728 -0.0205 0.7396
vn 0.3770 0.5796 -0.7224
vn 0.3770 0.5796 -0.7224
vn 0.3770 0.5796 -0.7224
vn 0.7000 0.5173 0.4923
vn 0.4707 -0.8261 0.3100
vn 0.4693 -0.7998 0.3742
vn -0.2797 -0.2828 -0.9175
vn -0.6257 -0.3572 0.6935
vn -0.6257 -0.3572 0.6935
vn -0.6257 -0.3572 0.6935
vn 0.6731 -0.0054 -0.7395
vn 0.6681 -0.0181 -0.7439
vn 0.5646 0.5255 0.6365
vn -0.8679 0.1331 0.4786
vn -0.8679 0.1331 0.4786
vn -0.8679 0.1331 0.4786
vn -0.7706 -0.4860 -0.4122
vn -0.6682 -0.5448 -0.5067
vn -0.2061 -0.4544 -0.8667
vn -0.6691 -0.5088 -0.5417
vn -0.6482 -0.5758 -0.4983
vn -0.7577 -0.5371 -0.3707
vn -0.4635 0.1466 0.8739
vn -0.4635 0.1466 0.8739
vn -0.4635 0.1466 0.8739
vn 0.6723 0.4998 0.5461
vn 0.4616 0.3804 0.8014
vn -0.6384 -0.5288 -0.5593
vn -0.6987 -0.4488 -0.5571
vn -0.6987 -0.4488 -0.5571
vn -0.6987 -0.4488 -0.5571
vn -0.7118 -0.0380 0.7013
vn 0.1919 -0.9813 0.0135
vn 0.1881 -0.9821 0.0097
vn 0.1016 -0.9919 -0.0762
vn -0.3861 -0.4754 -0.7905
vn -0.2207 -0.6802 0.6990
vn -0.2207 -0.6802 0.6990
vn -0.2207 -0.6802 0.6990
vn 0.4301 0.3614 0.8273
vn -0.7329 -0.0406 0.6791
vn -0.6973 -0.0290 0.7162
vn -0.9141 -0.3433 0.2159
vn -0.9141 -0.3433 0.2159
vn -0.9141 -0.3433 0.2159
vn 0.0984 -0.9920 -0.0793
vn -0.6540 -0.5101 -0.5586
vn -0.6542 -0.5158 -0.5532
vn -0.5414 -0.5512 -0.6349
vn -0.7269 -0.0409 0.6855
vn -0.7061 0.0085 0.7080
vn -0.7117 -0.0113 0.7024
vn -0.7048 -0.0079 0.7094
vn -0.7040 -0.0028 0.7102
vn -0.5510 -0.5484 -0.6290
vn -0.6293 -0.5414 -0.5575
vn -0.5527 -0.6445 -0.5283
vn 0.6679 0.4975 0.5535
vn -0.3861 -0.4754 -0.7905
vn -0.3861 -0.4754 -0.7905
vn 0.0000 1.0000 0.0000
vn 0.0000 1.0000 0.0000
vn 0.0000 1.0000 0.0000
vn 0.0000 1.0000 0.0000
vn 0.0000 1.0000 0.0000
vn 0.0000 1.0000 0.0000
vn 0.0000 1.0000 0.0000
vn 0.0000 1.0000 0.0000
vn 0.0000 1.0000 0.0000
vn 0.0000 1.0000 0.0000
vn 0.0000 1.0000 0.0000
vn 0.0000 1.0000 0.0000
vn 0.0000 1.0000 0.0000
vn 0.0000 1.0000 0.0000
vn 0.0000 1.0000 0.0000
vn 0.0000 1.0000 0.0000
vn 0.0000 1.0000 0.0000
vn 0.0000 1.0000 0.0000
vn 0.0000 1.0000 0.0000
vn 0.0000 1.0000 0.0000
vn 0.0000 1.0000 0.0000
vn 0.0000 1.0000 0.0000
vn 0.0000 1.0000 0.0000
vn 0.0000 1.0000 0.0000
vn 0.0000 1.0000 0.0000
vn 0.0000 1.0000 0.0000
vn 0.0000 1.0000 0.0000
vn 0.0000 1.0000 0.0000
vn 0.0000 1.0000 0.0000
vn 0.0000 1.0000 0.0000
vn 0.0000 1.0000 0.0000
vn 0.0000 1.0000 0.0000
vn 0.0000 1.0000 0.0000
vn 0.0000 1.0000 0.0000
vn 0.0000 1.0000 0.0000
vn 0.0000 1.0000 0.0000
vn 0.0000 1.0000 0.0000
vn 0.0000 1.0000 0.0000
vn 0.0000 1.0000 0.0000
vn 0.0000 1.0000 0.0000
vn 0.0000 1.0000 0.0000
vn 0.0000 1.0000 0.0000
vn 0.0000 1.0000 0.0000
vn 0.0000 1.0000 0.0000
vn 0.0000 1.0000 0.0000
vn 0.0000 1.0000 0.0000
vn 0.0000 1.0000 0.0000
vn 0.0000 1.0000 0.0000
vn 0.0000 1.0000 0.0000
vn 0.0000 1.0000 0.0000
vn 0.0000 1.0000 0.0000
vn 0.0000 1.0000 0.0000
vn 0.0000 1.0000 0.0000
vn 0.0000 1.0000 0.0000
vn 0.0000 1.0000 0.0000
vn 0.0000 1.0000 0.0000
vn 0.0000 1.0000 0.0000
vn 0.0000 1.0000 0.0000
vn 0.0000 1.0000 0.0000
vn 0.0000 1.0000 0.0000
f 642/642/642 643/643/643 644/644/644
f 645/645/645 646/646/646 647/647/647
f 645/645/645 647/647/647 648/648/648
f 649/649/649 650/650/650 651/651/651
f 652/652/652 650/650/650 649/649/649
f 643/643/643 653/653/653 644/644/644
f 652/652/652 649/649/649 654/654/654
f 644/644/644 653/653/653 655/655/655
f 656/656/656 654/654/654 649/649/649
f 657/657/657 658/658/658 659/659/659
f 644/644/644 660/660/660 642/642/642
f 661/661/661 662/662/662 647/647/647
f 654/654/654 663/663/663 652/652/652
f 664/664/664 648/648/648 665/665/665
f 666/666/666 656/656/656 667/667/667
f 654/654/654 656/656/656 666/666/666
f 647/647/647 668/668/668 669/669/669
f 670/670/670 660/660/660 644/644/644
f 663/663/663 654/654/654 671/671/671
f 672/672/672 673/673/673 674/674/674
f 675/675/675 676/676/676 655/655/655
f 677/677/677 678/678/678 679/679/679
f 647/647/647 669/669/669 665/665/665
f 647/647/647 665/665/665 648/648/648
f 680/680/680 681/681/681 682/682/682
f 662/662/662 661/661/661 683/683/683
f 684/684/684 685/685/685 686/686/686
f 685/685/685 687/687/687 686/686/686
f 682/682/682 688/688/688 680/680/680
f 689/689/689 690/690/690 691/691/691
f 692/692/692 671/671/671 654/654/654
f 693/693/693 694/694/694 695/695/695
f 696/696/696 670/670/670 644/644/644
f 697/697/697 698/698/698 680/680/680
f 693/693/693 699/699/699 694/694/694
f 655/655/655 676/676/676 644/644/644
f 668/668/668 647/647/647 662/662/662
f 682/682/682 700/700/700 688/688/688
f 696/696/696 701/701/701 670/670/670
f 680/680/680 698/698/698 681/681/681
f 697/697/697 702/702/702 698/698/698
f 703/703/703 704/704/704 705/705/705
f 706/706/706 692/692/692 707/707/707
f 687/687/687 685/685/685 708/708/708
f 709/709/709 644/644/644 676/676/676
f 710/710/710 709/709/709 676/676/676
f 654/654/654 707/707/707 692/692/692
f 708/708/708 711/711/711 687/687/687
f 644/644/644 712/712/712 696/696/696
f 698/698/698 702/702/702 713/713/713
f 698/698/698 713/713/713 681/681/681
f 714/714/714 700/700/700 682/682/682
f 693/693/693 715/715/715 699/699/699
f 710/710/710 716/716/716 709/709/709
f 701/701/701 696/696/696 717/717/717
f 704/704/704 718/718/718 705/705/705
f 719/719/719 711/711/711 708/708/708
f 720/720/720 721/721/721 722/722/722
f 723/723/723 724/724/724 725/725/725
f 715/715/715 726/726/726 699/699/699
f 727/727/727 728/728/728 729/729/729
f 702/702/702 730/730/730 731/731/731
f 732/732/732 733/733/733 734/734/734
f 708/708/708 735/735/735 719/719/719
f 681/681/681 713/713/713 682/682/682
f 736/736/736 714/714/714 737/737/737
f 713/713/713 702/702/702 731/731/731
f 706/706/706 707/707/707 738/738/738
f 696/696/696 712/712/712 717/717/717
f 739/739/739 708/708/708 685/685/685
f 740/740/740 732/732/732 734/734/734
f 704/704/704 741/741/741 742/742/742
f 743/743/743 735/735/735 708/708/708
f 744/744/744 745/745/745 746/746/746
f 747/747/747 713/713/713 731/731/731
f 748/748/748 706/706/706 738/738/738
f 749/749/749 750/750/750 741/741/741
f 747/747/747 751/751/751 713/713/713
f 734/734/734 752/752/752 740/740/740
f 753/753/753 743/743/743 708/708/708
f 740/740/740 752/752/752 754/754/754
f 739/739/739 755/755/755 708/708/708
f 756/756/756 754/754/754 752/752/752
f 757/757/757 758/758/758 759/759/759
f 760/760/760 746/746/746 745/745/745
f 726/726/726 715/715/715 761/761/761
f 762/762/762 754/754/754 756/756/756
f 736/736/736 763/763/763 764/764/764
f 708/708/708 755/755/755 765/765/765
f 750/750/750 742/742/742 741/741/741
f 766/766/766 767/767/767 768/768/768
f 417/417/417 418/418/418 419/419/419
f 769/769/769 759/759/759 758/758/758
f 725/725/725 770/770/770 771/771/771
f 764/764/764 763/763/763 772/772/772
f 773/773/773 774/774/774 775/775/775
f 725/725/725 771/771/771 723/723/723
f 749/749/749 776/776/776 777/777/777
f 753/753/753 708/708/708 765/765/765
f 749/749/749 777/777/777 750/750/750
f 778/778/778 709/709/709 716/716/716
f 779/779/779 780/780/780 781/781/781
f 713/713/713 751/751/751 782/782/782
f 736/736/736 783/783/783 763/763/763
f 772/772/772 763/763/763 784/784/784
f 682/682/682 713/713/713 782/782/782
f 821/821/821 822/822/822 785/785/785
f 420/420/420 421/421/421 422/422/422
f 418/418/418 417/417/417 423/423/423
f 714/714/714 682/682/682 737/737/737
f 742/742/742 718/718/718 704/704/704
f 786/786/786 736/736/736 737/737/737
f 420/420/420 422/422/422 424/424/424
f 682/682/682 782/782/782 787/787/787
f 786/786/786 783/783/783 736/736/736
f 788/788/788 789/789/789 790/790/790
f 791/791/791 823/823/823 792/792/792
f 737/737/737 682/682/682 793/793/793
f 682/682/682 787/787/787 793/793/793
f 794/794/794 795/795/795 796/796/796
f 420/420/420 424/424/424 425/425/425
f 420/420/420 426/426/426 427/427/427
f 755/755/755 797/797/797 765/765/765
f 798/798/798 799/799/799 800/800/800
f 824/824/824 825/825/825 801/801/801
f 428/428/428 429/429/429 430/430/430
f 802/802/802 803/803/803 804/804/804
f 737/737/737 793/793/793 786/786/786
f 823/823/823 805/805/805 792/792/792
f 755/755/755 806/806/806 807/807/807
f 807/807/807 797/797/797 755/755/755
f 808/808/808 809/809/809 810/810/810
f 423/423/423 417/417/417 431/431/431
f 811/811/811 800/800/800 799/799/799
f 432/432/432 423/423/423 433/433/433
f 812/812/812 813/813/813 814/814/814
f 785/785/785 813/813/813 812/812/812
f 785/785/785 812/812/812 821/821/821
f 429/429/429 428/428/428 434/434/434
f 435/435/435 426/426/426 420/420/420
f 436/436/436 437/437/437 438/438/438
f 439/439/439 440/440/440 441/441/441
f 806/806/806 755/755/755 815/815/815
f 755/755/755 816/816/816 817/817/817
f 442/442/442 443/443/443 444/444/444
f 432/432/432 433/433/433 445/445/445
f 425/425/425 435/435/435 420/420/420
f 446/446/446 447/447/447 448/448/448
f 817/817/817 816/816/816 818/818/818
f 819/819/819 818/818/818 816/816/816
f 815/815/815 755/755/755 817/817/817
f 423/423/423 431/431/431 433/433/433
f 449/449/449 446/446/446 450/450/450
f 447/447/447 446/446/446 449/449/449
f 812/812/812 814/814/814 820/820/820
f 451/451/451 452/452/452 453/453/453
f 453/453/453 434/434/434 451/451/451
f 638/638/638 454/454/454 455/455/455
f 456/456/456 457/457/457 458/458/458
f 438/438/438 437/437/437 459/459/459
f 460/460/460 445/445/445 433/433/433
f 441/441/441 440/440/440 461/461/461
f 462/462/462 440/440/440 463/463/463
f 464/464/464 452/452/452 465/465/465
f 441/441/441 457/457/457 456/456/456
f 434/434/434 428/428/428 459/459/459
f 465/465/465 452/452/452 451/451/451
f 459/459/459 451/451/451 434/434/434
f 464/464/464 465/465/465 466/466/466
f 461/461/461 457/457/457 441/441/441
f 451/451/451 459/459/459 467/467/467
f 638/638/638 455/455/455 468/468/468
f 462/462/462 463/463/463 469/469/469
f 470/470/470 638/638/638 471/471/471
f 472/472/472 473/473/473 448/448/448
f 638/638/638 468/468/468 474/474/474
f 459/459/459 437/437/437 639/639/639
f 461/461/461 440/440/440 462/462/462
f 459/459/459 639/639/639 467/467/467
f 469/469/469 475/475/475 462/462/462
f 476/476/476 477/477/477 478/478/478
f 479/479/479 480/480/480 481/481/481
f 482/482/482 479/479/479 481/481/481
f 448/448/448 447/447/447 483/483/483
f 448/448/448 483/483/483 472/472/472
f 484/484/484 467/467/467 639/639/639
f 467/467/467 485/485/485 451/451/451
f 486/486/486 487/487/487 488/488/488
f 489/489/489 490/490/490 491/491/491
f 492/492/492 493/493/493 494/494/494
f 495/495/495 638/638/638 474/474/474
f 486/486/486 488/488/488 496/496/496
f 497/497/497 498/498/498 465/465/465
f 499/499/499 500/500/500 501/501/501
f 451/451/451 497/497/497 465/465/465
f 501/501/501 502/502/502 499/499/499
f 485/485/485 503/503/503 451/451/451
f 497/497/497 451/451/451 503/503/503
f 504/504/504 498/498/498 497/497/497
f 505/505/505 506/506/506 447/447/447
f 504/504/504 497/497/497 503/503/503
f 496/496/496 488/488/488 507/507/507
f 507/507/507 488/488/488 508/508/508
f 500/500/500 499/499/499 509/509/509
f 510/510/510 511/511/511 512/512/512
f 503/503/503 513/513/513 504/504/504
f 514/514/514 515/515/515 516/516/516
f 517/517/517 518/518/518 519/519/519
f 495/495/495 471/471/471 638/638/638
f 520/520/520 521/521/521 522/522/522
f 523/523/523 509/509/509 499/499/499
f 515/515/515 524/524/524 525/525/525
f 520/520/520 526/526/526 521/521/521
f 527/527/527 528/528/528 529/529/529
f 530/530/530 511/511/511 510/510/510
f 531/531/531 532/532/532 493/493/493
f 461/461/461 533/533/533 457/457/457
f 534/534/534 535/535/535 536/536/536
f 537/537/537 640/640/640 641/641/641
f 505/505/505 447/447/447 538/538/538
f 539/539/539 471/471/471 495/495/495
f 471/471/471 539/539/539 540/540/540
f 511/511/511 530/530/530 541/541/541
f 542/542/542 508/508/508 488/488/488
f 537/537/537 641/641/641 543/543/543
f 525/525/525 516/516/516 515/515/515
f 494/494/494 532/532/532 544/544/544
f 545/545/545 471/471/471 540/540/540
f 542/542/542 488/488/488 546/546/546
f 494/494/494 493/493/493 532/532/532
f 547/547/547 548/548/548 549/549/549
f 543/543/543 545/545/545 540/540/540
f 522/522/522 521/521/521 550/550/550
f 551/551/551 552/552/552 511/511/511
f 447/447/447 449/449/449 538/538/538
f 449/449/449 553/553/553 538/538/538
f 554/554/554 490/490/490 489/489/489
f 555/555/555 549/549/549 556/556/556
f 557/557/557 537/537/537 543/543/543
f 558/558/558 490/490/490 554/554/554
f 540/540/540 557/557/557 543/543/543
f 559/559/559 560/560/560 561/561/561
f 540/540/540 562/562/562 563/563/563
f 542/542/542 546/546/546 564/564/564
f 449/449/449 565/565/565 553/553/553
f 555/555/555 566/566/566 549/549/549
f 547/547/547 549/549/549 566/566/566
f 567/567/567 568/568/568 522/522/522
f 557/557/557 540/540/540 563/563/563
f 564/564/564 546/546/546 569/569/569
f 551/551/551 570/570/570 552/552/552
f 571/571/571 572/572/572 573/573/573
f 559/559/559 561/561/561 574/574/574
f 564/564/564 575/575/575 542/542/542
f 567/567/567 522/522/522 550/550/550
f 576/576/576 577/577/577 578/578/578
f 579/579/579 580/580/580 581/581/581
f 516/516/516 525/525/525 582/582/582
f 582/582/582 564/564/564 516/516/516
f 551/551/551 511/511/511 541/541/541
f 583/583/583 574/574/574 561/561/561
f 564/564/564 582/582/582 575/575/575
f 584/584/584 561/561/561 560/560/560
f 585/585/585 586/586/586 587/587/587
f 588/588/588 527/527/527 529/529/529
f 579/579/579 589/589/589 590/590/590
f 591/591/591 592/592/592 593/593/593
f 594/594/594 595/595/595 596/596/596
f 597/597/597 598/598/598 590/590/590
f 595/595/595 599/599/599 596/596/596
f 527/527/527 600/600/600 561/561/561
f 552/552/552 570/570/570 601/601/601
f 602/602/602 603/603/603 604/604/604
f 590/590/590 598/598/598 605/605/605
f 591/591/591 606/606/606 592/592/592
f 570/570/570 607/607/607 601/601/601
f 608/608/608 594/594/594 609/609/609
f 610/610/610 599/599/599 595/595/595
f 580/580/580 579/579/579 611/611/611
f 527/527/527 588/588/588 600/600/600
f 605/605/605 579/579/579 590/590/590
f 600/600/600 583/583/583 561/561/561
f 612/612/612 613/613/613 614/614/614
f 594/594/594 608/608/608 595/595/595
f 605/605/605 598/598/598 615/615/615
f 610/610/610 595/595/595 616/616/616
f 561/561/561 584/584/584 527/527/527
f 579/579/579 617/617/617 611/611/611
f 595/595/595 608/608/608 618/618/618
f 619/619/619 616/616/616 595/595/595
f 600/600/600 620/620/620 583/583/583
f 281/281/281 282/282/282 283/283/283
f 619/619/619 595/595/595 621/621/621
f 617/617/617 605/605/605 615/615/615
f 617/617/617 579/579/579 605/605/605
f 284/284/284 283/283/283 282/282/282
f 621/621/621 622/622/622 619/619/619
f 621/621/621 595/595/595 618/618/618
f 285/285/285 286/286/286 287/287/287
f 288/288/288 289/289/289 290/290/290
f 291/291/291 292/292/292 293/293/293
f 294/294/294 286/286/286 285/285/285
f 295/295/295 296/296/296 297/297/297
f 286/286/286 298/298/298 287/287/287
f 299/299/299 296/296/296 295/295/295
f 618/618/618 622/622/622 621/621/621
f 618/618/618 623/623/623 622/622/622
f 287/287/287 298/298/298 300/300/300
f 297/297/297 296/296/296 301/301/301
f 302/302/302 303/303/303 304/304/304
f 624/624/624 625/625/625 626/626/626
f 292/292/292 305/305/305 293/293/293
f 296/296/296 306/306/306 301/301/301
f 307/307/307 286/286/286 294/294/294
f 624/624/624 627/627/627 628/628/628
f 308/308/308 309/309/309 310/310/310
f 311/311/311 286/286/286 307/307/307
f 305/305/305 312/312/312 293/293/293
f 296/296/296 299/299/299 313/313/313
f 304/304/304 314/314/314 302/302/302
f 307/307/307 315/315/315 311/311/311
f 300/300/300 298/298/298 316/316/316
f 309/309/309 317/317/317 310/310/310
f 318/318/318 306/306/306 319/319/319
f 315/315/315 320/320/320 311/311/311
f 311/311/311 320/320/320 321/321/321
f 321/321/321 322/322/322 323/323/323
f 627/627/627 624/624/624 626/626/626
f 324/324/324 314/314/314 304/304/304
f 296/296/296 319/319/319 306/306/306
f 320/320/320 322/322/322 321/321/321
f 319/319/319 325/325/325 318/318/318
f 326/326/326 327/327/327 328/328/328
f 283/283/283 284/284/284 329/329/329
f 296/296/296 330/330/330 319/319/319
f 320/320/320 331/331/331 322/322/322
f 296/296/296 313/313/313 332/332/332
f 283/283/283 329/329/329 333/333/333
f 324/324/324 304/304/304 334/334/334
f 335/335/335 336/336/336 337/337/337
f 598/598/598 629/629/629 615/615/615
f 337/337/337 338/338/338 335/335/335
f 339/339/339 322/322/322 331/331/331
f 414/414/414 340/340/340 341/341/341
f 300/300/300 316/316/316 342/342/342
f 339/339/339 343/343/343 322/322/322
f 344/344/344 296/296/296 332/332/332
f 328/328/328 327/327/327 345/345/345
f 283/283/283 333/333/333 346/346/346
f 338/338/338 337/337/337 347/347/347
f 348/348/348 349/349/349 341/341/341
f 341/341/341 349/349/349 350/350/350
f 343/343/343 339/339/339 351/351/351
f 352/352/352 353/353/353 354/354/354
f 339/339/339 355/355/355 351/351/351
f 330/330/330 296/296/296 356/356/356
f 357/357/357 342/342/342 358/358/358
f 344/344/344 356/356/356 296/296/296
f 359/359/359 360/360/360 361/361/361
f 342/342/342 316/316/316 358/358/358
f 362/362/362 363/363/363 364/364/364
f 365/365/365 330/330/330 356/356/356
f 365/365/365 356/356/356 366/366/366
f 363/363/363 362/362/362 367/367/367
f 368/368/368 357/357/357 358/358/358
f 368/368/368 369/369/369 357/357/357
f 362/362/362 370/370/370 367/367/367
f 345/345/345 327/327/327 371/371/371
f 347/347/347 337/337/337 372/372/372
f 373/373/373 359/359/359 361/361/361
f 374/374/374 373/373/373 361/361/361
f 327/327/327 375/375/375 371/371/371
f 356/356/356 344/344/344 366/366/366
f 350/350/350 414/414/414 341/341/341
f 351/351/351 355/355/355 376/376/376
f 368/368/368 377/377/377 369/369/369
f 304/304/304 378/378/378 379/379/379
f 373/373/373 374/374/374 380/380/380
f 381/381/381 382/382/382 383/383/383
f 384/384/384 385/385/385 386/386/386
f 372/372/372 337/337/337 387/387/387
f 388/388/388 389/389/389 390/390/390
f 391/391/391 327/327/327 326/326/326
f 376/376/376 392/392/392 393/393/393
f 376/376/376 393/393/393 351/351/351
f 390/390/390 389/389/389 393/393/393
f 392/392/392 390/390/390 393/393/393
f 380/380/380 394/394/394 373/373/373
f 395/395/395 396/396/396 397/397/397
f 334/334/334 304/304/304 379/379/379
f 327/327/327 391/391/391 398/398/398
f 399/399/399 400/400/400 401/401/401
f 387/387/387 402/402/402 372/372/372
f 346/346/346 403/403/403 283/283/283
f 399/399/399 401/401/401 404/404/404
f 351/351/351 393/393/393 405/405/405
f 406/406/406 407/407/407 415/415/415
f 324/324/324 334/334/334 408/408/408
f 385/385/385 384/384/384 409/409/409
f 247/247/247 248/248/248 249/249/249
f 250/250/250 251/251/251 252/252/252
f 253/253/253 254/254/254 255/255/255
f 410/410/410 366/366/366 344/344/344
f 414/414/414 350/350/350 416/416/416
f 324/324/324 411/411/411 412/412/412
f 410/410/410 365/365/365 366/366/366
f 344/344/344 413/413/413 410/410/410
f 256/256/256 257/257/257 258/258/258
f 259/259/259 260/260/260 261/261/261
f 257/257/257 262/262/262 258/258/258
f 263/263/263 264/264/264 265/265/265
f 324/324/324 408/408/408 411/411/411
f 258/258/258 266/266/266 256/256/256
f 264/264/264 267/267/267 265/265/265
f 108/108/108 109/109/109 110/110/110
f 268/268/268 266/266/266 258/258/258
f 111/111/111 112/112/112 108/108/108
f 266/266/266 268/268/268 269/269/269
f 108/108/108 112/112/112 113/113/113
f 258/258/258 262/262/262 268/268/268
f 114/114/114 115/115/115 116/116/116
f 108/108/108 113/113/113 117/117/117
f 118/118/118 119/119/119 120/120/120
f 121/121/121 122/122/122 123/123/123
f 116/116/116 124/124/124 125/125/125
f 116/116/116 115/115/115 124/124/124
f 126/126/126 109/109/109 108/108/108
f 116/116/116 125/125/125 127/127/127
f 128/128/128 116/116/116 127/127/127
f 108/108/108 117/117/117 126/126/126
f 129/129/129 130/130/130 131/131/131
f 132/132/132 133/133/133 134/134/134
f 132/132/132 134/134/134 135/135/135
f 128/128/128 127/127/127 136/136/136
f 121/121/121 137/137/137 122/122/122
f 138/138/138 118/118/118 129/129/129
f 120/120/120 119/119/119 139/139/139
f 124/124/124 115/115/115 140/140/140
f 141/141/141 142/142/142 143/143/143
f 144/144/144 128/128/128 136/136/136
f 119/119/119 118/118/118 138/138/138
f 136/136/136 145/145/145 144/144/144
f 146/146/146 147/147/147 148/148/148
f 141/141/141 143/143/143 149/149/149
f 150/150/150 141/141/141 149/149/149
f 151/151/151 152/152/152 153/153/153
f 122/122/122 154/154/154 155/155/155
f 138/138/138 129/129/129 131/131/131
f 156/156/156 144/144/144 145/145/145
f 157/157/157 135/135/135 134/134/134
f 158/158/158 153/153/153 152/152/152
f 159/159/159 152/152/152 151/151/151
f 160/160/160 161/161/161 162/162/162
f 144/144/144 156/156/156 163/163/163
f 164/164/164 134/134/134 165/165/165
f 163/163/163 156/156/156 166/166/166
f 167/167/167 150/150/150 149/149/149
f 138/138/138 168/168/168 119/119/119
f 123/123/123 169/169/169 170/170/170
f 122/122/122 171/171/171 169/169/169
f 172/172/172 163/163/163 166/166/166
f 173/173/173 174/174/174 175/175/175
f 171/171/171 122/122/122 155/155/155
f 166/166/166 176/176/176 172/172/172
f 167/167/167 177/177/177 178/178/178
f 134/134/134 179/179/179 165/165/165
f 151/151/151 180/180/180 159/159/159
f 134/134/134 181/181/181 157/157/157
f 123/123/123 122/122/122 169/169/169
f 140/140/140 115/115/115 182/182/182
f 134/134/134 183/183/183 179/179/179
f 184/184/184 185/185/185 186/186/186
f 123/123/123 170/170/170 187/187/187
f 167/167/167 149/149/149 177/177/177
f 140/140/140 182/182/182 188/188/188
f 189/189/189 138/138/138 190/190/190
f 181/181/181 134/134/134 191/191/191
f 174/174/174 192/192/192 175/175/175
f 193/193/193 185/185/185 184/184/184
f 194/194/194 172/172/172 176/176/176
f 191/191/191 134/134/134 164/164/164
f 170/170/170 195/195/195 187/187/187
f 138/138/138 131/131/131 190/190/190
f 196/196/196 164/164/164 165/165/165
f 7/7/7 8/8/8 9/9/9
f 171/171/171 170/170/170 169/169/169
f 168/168/168 138/138/138 197/197/197
f 172/172/172 194/194/194 198/198/198
f 199/199/199 172/172/172 198/198/198
f 151/151/151 153/153/153 200/200/200
f 201/201/201 202/202/202 184/184/184
f 170/170/170 203/203/203 195/195/195
f 204/204/204 170/170/170 171/171/171
f 195/195/195 203/203/203 205/205/205
f 193/193/193 184/184/184 206/206/206
f 205/205/205 207/207/207 208/208/208
f 205/205/205 203/203/203 207/207/207
f 170/170/170 209/209/209 203/203/203
f 184/184/184 210/210/210 206/206/206
f 211/211/211 212/212/212 207/207/207
f 198/198/198 213/213/213 199/199/199
f 170/170/170 204/204/204 209/209/209
f 138/138/138 189/189/189 197/197/197
f 151/151/151 214/214/214 180/180/180
f 203/203/203 211/211/211 207/207/207
f 215/215/215 216/216/216 212/212/212
f 198/198/198 217/217/217 213/213/213
f 218/218/218 158/158/158 219/219/219
f 203/203/203 209/209/209 211/211/211
f 220/220/220 221/221/221 222/222/222
f 10/10/10 11/11/11 12/12/12
f 11/11/11 13/13/13 14/14/14
f 210/210/210 223/223/223 206/206/206
f 215/215/215 212/212/212 211/211/211
f 224/224/224 225/225/225 226/226/226
f 11/11/11 10/10/10 13/13/13
f 218/218/218 153/153/153 158/158/158
f 209/209/209 227/227/227 211/211/211
f 228/228/228 191/191/191 164/164/164
f 15/15/15 16/16/16 17/17/17
f 11/11/11 14/14/14 18/18/18
f 215/215/215 229/229/229 216/216/216
f 230/230/230 153/153/153 218/218/218
f 184/184/184 231/231/231 210/210/210
f 227/227/227 232/232/232 211/211/211
f 19/19/19 20/20/20 8/8/8
f 233/233/233 202/202/202 201/201/201
f 234/234/234 235/235/235 236/236/236
f 270/270/270 271/271/271 272/272/272
f 237/237/237 238/238/238 239/239/239
f 21/21/21 22/22/22 23/23/23
f 24/24/24 25/25/25 26/26/26
f 270/270/270 272/272/272 273/273/273
f 24/24/24 26/26/26 27/27/27
f 1/1/1 2/2/2 3/3/3
f 273/273/273 272/272/272 274/274/274
f 28/28/28 29/29/29 30/30/30
f 28/28/28 30/30/30 31/31/31
f 275/275/275 276/276/276 277/277/277
f 630/630/630 631/631/631 632/632/632
f 633/633/633 631/631/631 630/630/630
f 634/634/634 635/635/635 636/636/636
f 105/105/105 19/19/19 7/7/7
f 632/632/632 637/637/637 630/630/630
f 276/276/276 275/275/275 278/278/278
f 14/14/14 32/32/32 18/18/18
f 240/240/240 211/211/211 232/232/232
f 33/33/33 34/34/34 35/35/35
f 231/231/231 184/184/184 202/202/202
f 24/24/24 36/36/36 25/25/25
f 26/26/26 37/37/37 27/27/27
f 19/19/19 8/8/8 7/7/7
f 239/239/239 241/241/241 242/242/242
f 35/35/35 38/38/38 33/33/33
f 37/37/37 39/39/39 27/27/27
f 18/18/18 32/32/32 40/40/40
f 41/41/41 42/42/42 33/33/33
f 243/243/243 215/215/215 211/211/211
f 244/244/244 245/245/245 246/246/246
f 39/39/39 37/37/37 43/43/43
f 44/44/44 45/45/45 46/46/46
f 39/39/39 43/43/43 47/47/47
f 44/44/44 48/48/48 45/45/45
f 49/49/49 50/50/50 51/51/51
f 41/41/41 33/33/33 38/38/38
f 279/279/279 280/280/280 276/276/276
f 52/52/52 42/42/42 53/53/53
f 54/54/54 55/55/55 56/56/56
f 47/47/47 43/43/43 57/57/57
f 44/44/44 46/46/46 58/58/58
f 43/43/43 59/59/59 57/57/57
f 48/48/48 44/44/44 60/60/60
f 44/44/44 61/61/61 60/60/60
f 64/64/64 65/65/65 66/66/66
f 67/67/67 44/44/44 58/58/58
f 68/68/68 69/69/69 64/64/64
f 68/68/68 64/64/64 66/66/66
f 63/63/63 62/62/62 71/71/71
f 68/68/68 74/74/74 69/69/69
f 73/73/73 75/75/75 62/62/62
f 72/72/72 70/70/70 79/79/79
f 80/80/80 76/76/76 71/71/71
f 71/71/71 62/62/62 78/78/78
f 74/74/74 81/81/81 69/69/69
f 82/82/82 83/83/83 84/84/84
f 79/79/79 70/70/70 85/85/85
f 79/79/79 85/85/85 86/86/86
f 87/87/87 88/88/88 89/89/89
f 62/62/62 75/75/75 77/77/77
f 70/70/70 90/90/90 85/85/85
f 83/83/83 82/82/82 91/91/91
f 92/92/92 87/87/87 106/106/106
f 95/95/95 89/89/89 88/88/88
f 96/96/96 94/94/94 97/97/97
f 97/97/97 94/94/94 93/93/93
f 87/87/87 89/89/89 106/106/106
f 4/4/4 5/5/5 6/6/6
f 99/99/99 98/98/98 100/100/100
f 98/98/98 107/107/107 101/101/101
f 98/98/98 101/101/101 100/100/100
f 102/102/102 103/103/103 104/104/104
f 826/826/826 827/827/827 828/828/828
f 826/826/826 828/828/828 827/827/827
f 826/826/826 828/828/828 829/829/829
f 826/826/826 829/829/829 828/828/828
f 826/826/826 829/829/829 830/830/830
f 826/826/826 830/830/830 829/829/829
f 826/826/826 830/830/830 831/831/831
f 826/826/826 831/831/831 830/830/830
f 826/826/826 831/831/831 832/832/832
f 826/826/826 832/832/832 831/831/831
f 826/826/826 832/832/832 833/833/833
f 826/826/826 833/833/833 832/832/832
f 826/826/826 833/833/833 834/834/834
f 826/826/826 834/834/834 833/833/833
f 826/826/826 834/834/834 835/835/835
f 826/826/826 835/835/835 834/834/834
f 826/826/826 835/835/835 827/827/827
f 826/826/826 827/827/827 835/835/835
f 836/836/836 837/837/837 838/838/838
f 836/836/836 838/838/838 837/837/837
f 836/836/836 838/838/838 839/839/839
f 836/836/836 839/839/839 838/838/838
f 836/836/836 839/839/839 840/840/840
f 836/836/836 840/840/840 839/839/839
f 836/836/836 840/840/840 841/841/841
f 836/836/836 841/841/841 840/840/840
f 836/836/836 841/841/841 842/842/842
f 836/836/836 842/842/842 841/841/841
f 836/836/836 842/842/842 843/843/843
f 836/836/836 843/843/843 842/842/842
f 836/836/836 843/843/843 837/837/837
f 836/836/836 837/837/837 843/843/843
f 844/844/844 845/845/845 846/846/846
f 844/844/844 846/846/846 845/845/845
f 844/844/844 846/846/846 847/847/847
f 844/844/844 847/847/847 846/846/846
f 844/844/844 847/847/847 848/848/848
f 844/844/844 848/848/848 847/847/847
f 844/844/844 848/848/848 849/849/849
f 844/844/844 849/849/849 848/848/848
f 844/844/844 849/849/849 850/850/850
f 844/844/844 850/850/850 849/849/849
f 844/844/844 850/850/850 851/851/851
f 844/844/844 851/851/851 850/850/850
f 844/844/844 851/851/851 852/852/852
f 844/844/844 852/852/852 851/851/851
f 844/844/844 852/852/852 853/853/853
f 844/844/844 853/853/853 852/852/852
f 844/844/844 853/853/853 854/854/854
f 844/844/844 854/854/854 853/853/853
f 844/844/844 854/854/854 855/855/855
f 844/844/844 855/855/855 854/854/854
f 844/844/844 855/855/855 856/856/856
f 844/844/844 856/856/856 855/855/855
f 844/844/844 856/856/856 857/857/857
f 844/844/844 857/857/857 856/856/856
f 844/844/844 857/857/857 858/858/858
f 844/844/844 858/858/858 857/857/857
f 844/844/844 858/858/858 845/845/845
f 844/844/844 845/845/845 858/858/858
f 859/859/859 860/860/860 861/861/861
f 859/859/859 861/861/861 860/860/860
f 859/859/859 861/861/861 862/862/862
f 859/859/859 862/862/862 861/861/861
f 859/859/859 862/862/862 863/863/863
f 859/859/859 863/863/863 862/862/862
f 859/859/859 863/863/863 864/864/864
f 859/859/859 864/864/864 863/863/863
f 859/859/859 864/864/864 865/865/865
f 859/859/859 865/865/865 864/864/864
f 859/859/859 865/865/865 866/866/866
f 859/859/859 866/866/866 865/865/865
f 859/859/859 866/866/866 867/867/867
f 859/859/859 867/867/867 866/866/866
f 859/859/859 867/867/867 868/868/868
f 859/859/859 868/868/868 867/867/867
f 859/859/859 868/868/868 869/869/869
f 859/859/859 869/869/869 868/868/868
f 859/859/859 869/869/869 870/870/870
f 859/859/859 870/870/870 869/869/869
f 859/859/859 870/870/870 871/871/871
f 859/859/859 871/871/871 870/870/870
f 859/859/859 871/871/871 872/872/872
f 859/859/859 872/872/872 871/871/871
f 859/859/859 872/872/872 873/873/873
f 859/859/859 873/873/873 872/872/872
f 859/859/859 873/873/873 874/874/874
f 859/859/859 874/874/874 873/873/873
f 859/859/859 874/874/874 875/875/875
f 859/859/859 875/875/875 874/874/874
f 859/859/859 875/875/875 876/876/876
f 859/859/859 876/876/876 875/875/875
f 859/859/859 876/876/876 877/877/877
f 859/859/859 877/877/877 876/876/876
f 859/859/859 877/877/877 878/878/878
f 859/859/859 878/878/878 877/877/877
f 859/859/859 878/878/878 879/879/879
f 859/859/859 879/879/879 878/878/878
f 859/859/859 879/879/879 880/880/880
f 859/859/859 880/880/880 879/879/879
f 859/859/859 880/880/880 881/881/881
f 859/859/859 881/881/881 880/880/880
f 859/859/859 881/881/881 882/882/882
f 859/859/859 882/882/882 881/881/881
f 859/859/859 882/882/882 883/883/883
f 859/859/859 883/883/883 882/882/882
f 859/859/859 883/883/883 884/884/884
f 859/859/859 884/884/884 883/883/883
f 859/859/859 884/884/884 885/885/885
f 859/859/859 885/885/885 884/884/884
f 859/859/859 885/885/885 860/860/860
f 859/859/859 860/860/860 885/885/885
