o leg_right_0
v 1.49770 0.90519 -2.11481
v 1.47935 0.96004 -2.08800
v 1.50781 0.90370 -2.12213
v 1.47935 0.96004 -2.08800
v 1.44008 0.80776 -1.97479
v 1.50781 0.90370 -2.12213
v 1.49770 0.90519 -2.11481
v 1.50781 0.90370 -2.12213
v 1.38711 0.91113 -2.16339
v 1.50781 0.90370 -2.12213
v 1.44008 0.80776 -1.97479
v 1.46532 0.82150 -2.00915
v 1.49770 0.90519 -2.11481
v 1.38711 0.91113 -2.16339
v 1.47935 0.96004 -2.08800
v 1.43699 0.78461 -1.94947
v 1.52122 0.66931 -2.05318
v 1.46532 0.82150 -2.00915
v 1.46098 0.59694 -1.97711
v 1.41479 0.75379 -1.90689
v 1.43199 1.10567 -2.02169
v 1.30541 0.91198 -2.21059
v 1.43699 0.78461 -1.94947
v 1.43199 1.10567 -2.02169
v 1.35531 0.90275 -1.83631
v 1.43199 1.10567 -2.02169
v 1.41414 1.15192 -2.00305
v 1.40035 1.19751 -1.97245
v 1.41479 0.75379 -1.90689
v 1.40266 0.76089 -1.90390
v 1.40035 1.19751 -1.97245
v 1.40266 0.76089 -1.90390
v 1.37699 0.74091 -1.89973
v 1.41479 0.75379 -1.90689
v 1.40266 0.76089 -1.90390
v 1.38057 1.25166 -1.93736
v 1.13505 1.07830 -2.16127
v 1.40035 1.19751 -1.97245
v 1.41414 1.15192 -2.00305
v 1.36765 0.75124 -1.90140
v 1.36775 1.28629 -1.91424
v 1.38057 1.25166 -1.93736
v 1.35338 1.31696 -1.88491
v 1.35473 1.32128 -1.89447
v 1.35531 0.90275 -1.83631
v 1.28363 0.98568 -1.78266
v 1.40266 0.76089 -1.90390
v 1.35080 1.32348 -1.89447
v 1.26542 0.74143 -1.94928
v 1.36765 0.75124 -1.90140
v 1.36765 0.75124 -1.90140
v 1.35080 1.32348 -1.89447
v 1.36775 1.28629 -1.91424
v 1.38057 1.25166 -1.93736
v 1.35338 1.31696 -1.88491
v 1.35473 1.32128 -1.89447
v 1.35080 1.32348 -1.89447
v 1.26343 0.91275 -2.22237
v 1.28363 0.98568 -1.78266
v 1.09621 0.89570 -1.92976
v 1.19280 0.75301 -1.98153
v 1.26343 0.91275 -2.22237
v 1.28979 1.33246 -1.74685
v 1.35473 1.32128 -1.89447
v 1.28692 1.06957 -1.74535
v 1.28692 1.06957 -1.74535
v 1.30541 0.91198 -2.21059
v 1.50781 0.90370 -2.12213
v 1.23221 0.78408 -2.33118
v 1.23947 1.08111 -1.73212
v 1.23631 1.22288 -1.69535
v 1.19545 0.91529 -2.25330
v 1.23631 1.22288 -1.69535
v 1.28979 1.33246 -1.74685
v 1.19808 0.87908 -2.28311
v 1.18742 0.91073 -2.26460
v 1.21527 0.83134 -2.30751
v 1.28979 1.33246 -1.74685
v 1.35080 1.32348 -1.89447
v 1.07389 1.32747 -1.99319
v 1.23071 1.23671 -1.68963
v 1.24793 1.33872 -1.65845
v 1.23947 1.08111 -1.73212
v 1.06980 1.29909 -1.74328
v 1.04523 1.09231 -1.81337
v 1.21813 1.00381 -1.69867
v 1.21450 1.00662 -1.70978
v 1.21960 1.13918 -1.68824
v 1.19545 0.91529 -2.25330
v 1.23071 1.23671 -1.68963
v 1.19545 0.91529 -2.25330
v 1.11826 0.78100 -2.08401
v 1.19808 0.87908 -2.28311
v 1.21527 0.83134 -2.30751
v 1.21976 1.28858 -1.66847
v 1.21960 1.13918 -1.68824
v 1.12480 1.29689 -1.71283
v 1.19545 0.91529 -2.25330
v 1.18742 0.91073 -2.26460
v 1.18675 0.91348 -2.25041
v 1.18742 0.91073 -2.26460
v 1.21559 1.29350 -1.66848
v 1.18675 0.91348 -2.25041
v 1.16146 0.99806 -2.20603
v 1.19545 0.91529 -2.25330
v 1.16146 0.99806 -2.20603
v 1.24793 1.33872 -1.65845
v 1.05415 1.34704 -1.74369
v 1.21450 1.00662 -1.70978
v 1.21813 1.00381 -1.69867
v 1.14950 0.95384 -1.54538
v 1.18675 0.91348 -2.25041
v 1.14651 0.84307 -2.14809
v 1.13745 0.74104 -2.00849
v 1.21960 1.13918 -1.68824
v 1.14950 0.95384 -1.54538
v 1.21813 1.00381 -1.69867
v 1.21559 1.29350 -1.66848
v 1.12480 1.29689 -1.71283
v 1.12249 1.30060 -1.70801
v 1.16146 0.99806 -2.20603
v 1.13505 1.07830 -2.16127
v 1.12523 1.09676 -2.14834
v 1.14025 0.62635 -2.11079
v 1.10458 0.75374 -2.04541
v 1.05415 1.34704 -1.74369
v 1.10727 0.74992 -2.03419
v 1.14025 0.62635 -2.11079
v 1.14025 0.62635 -2.11079
v 1.10727 0.74992 -2.03419
v 1.10458 0.75374 -2.04541
v 1.02444 0.90506 -1.53913
v 1.03710 0.98229 -1.91615
v 1.09762 0.92829 -1.43193
v 1.10458 0.75374 -2.04541
v 1.03710 0.98229 -1.91615
v 1.07389 1.32747 -1.99319
v 1.10559 1.16766 -2.10367
v 1.21450 1.00662 -1.70978
v 1.00102 1.31167 -1.76060
v 1.13745 0.74104 -2.00849
v 1.10458 0.75374 -2.04541
v 1.10727 0.74992 -2.03419
v 1.10559 1.16766 -2.10367
v 1.13505 1.07830 -2.16127
v 1.12523 1.09676 -2.14834
v 1.10559 1.16766 -2.10367
v 1.01029 1.31625 -1.75796
v 0.99341 1.34130 -1.79138
v 1.07389 1.32747 -1.99319
v 1.01029 1.31625 -1.75796
v 1.02024 1.25033 -1.78234
v 1.00726 1.34467 -1.76553
v 1.12249 1.30060 -1.70801
v 1.01029 1.31625 -1.75796
v 1.00102 1.31167 -1.76060
v 0.99341 1.34130 -1.79138
v 0.99664 1.34704 -1.79267
v 1.05415 1.34704 -1.74369
v 0.99618 1.09877 -1.84442
v 0.99341 1.34130 -1.79138
v 0.99618 1.09877 -1.84442
v 0.96657 0.90565 -1.42525
v 1.06696 0.91451 -1.36747
v 1.05415 1.34704 -1.74369
v 0.99664 1.34704 -1.79267
v 1.00726 1.34467 -1.76553
v 0.88479 0.94434 -1.56355
v 0.89738 0.95535 -1.59583
v 0.99341 1.34130 -1.79138
v 1.21559 1.29350 -1.66848
v 1.12249 1.30060 -1.70801
v 0.87201 1.25658 -1.50798
v 1.00726 1.34467 -1.76553
v 0.99664 1.34704 -1.79267
v 0.99341 1.34130 -1.79138
v 1.00726 1.34467 -1.76553
v 0.98738 1.01320 -1.79450
v 1.21450 1.00662 -1.70978
v 1.00102 1.31167 -1.76060
v 0.98137 1.12684 -1.78264
v 0.98738 1.01320 -1.79450
v 0.94261 0.90032 -1.37753
v 0.82667 0.91503 -1.44083
v 0.89738 0.95535 -1.59583
v 0.98137 1.12684 -1.78264
v 0.98738 1.01320 -1.79450
v 0.87201 1.25658 -1.50798
v 1.00102 1.31167 -1.76060
v 0.81975 1.08375 -1.39953
v 0.88479 0.94434 -1.56355
v 0.74769 0.86904 -1.26590
v 0.82667 0.91503 -1.44083
v 1.43699 0.78461 -1.94947
v 1.37699 0.74091 -1.89973
v 1.13745 0.74104 -2.00849
v 1.02444 0.90506 -1.53913
v 1.67440 0.15466 -2.48632
v 1.68039 0.34283 -2.37472
v 1.73703 0.15630 -2.45315
v 1.65307 0.42105 -2.34577
v 1.65738 0.41829 -2.34122
v 1.68039 0.34283 -2.37472
v 1.65738 0.41829 -2.34122
v 1.65190 0.41458 -2.32844
v 1.73703 0.15630 -2.45315
v 1.63538 0.06051 -2.25041
v 1.65738 0.41829 -2.34122
v 1.65307 0.42105 -2.34577
v 1.65190 0.41458 -2.32844
v 1.41982 0.42726 -2.45891
v 1.63538 0.06051 -2.25041
v 1.61375 0.15329 -2.51826
v 1.67440 0.15466 -2.48632
v 1.73703 0.15630 -2.45315
v 1.61375 0.15329 -2.51826
v 1.62279 0.42315 -2.34263
v 1.61798 0.49960 -2.27065
v 1.65190 0.41458 -2.32844
v 1.62279 0.42315 -2.34263
v 1.55615 0.28037 -2.13184
v 1.61247 0.04152 -2.20625
v 1.58524 0.02859 -2.19665
v 1.61247 0.04152 -2.20625
v 1.61798 0.49960 -2.27065
v 1.60373 0.53932 -2.23957
v 1.48696 0.51705 -2.04040
v 1.60373 0.53932 -2.23957
v 1.50323 0.15073 -2.57588
v 1.55615 0.28037 -2.13184
v 1.48696 0.51705 -2.04040
v 1.54855 0.28666 -2.13429
v 1.56836 0.62981 -2.17367
v 1.60373 0.53932 -2.23957
v 1.57273 0.61603 -2.19329
v 1.41982 0.42726 -2.45891
v 1.58524 0.02859 -2.19665
v 1.61247 0.04152 -2.20625
v 1.57324 0.02943 -2.19257
v 1.56836 0.62981 -2.17367
v 1.57273 0.61603 -2.19329
v 1.57335 0.62871 -2.19267
v 1.58925 0.64425 -2.23346
v 1.50323 0.15073 -2.57588
v 1.57273 0.61603 -2.19329
v 1.55287 0.62374 -2.20383
v 1.57335 0.62871 -2.19267
v 1.50762 0.25382 -2.12167
v 1.55615 0.28037 -2.13184
v 1.41275 0.65110 -2.32109
v 1.50781 0.90370 -2.12213
v 1.58925 0.64425 -2.23346
v 1.57335 0.62871 -2.19267
v 1.55287 0.62374 -2.20383
v 1.58925 0.64425 -2.23346
v 1.56836 0.62981 -2.17367
v 1.55615 0.28037 -2.13184
v 1.54147 0.27635 -2.12470
v 1.50762 0.25382 -2.12167
v 1.54147 0.27635 -2.12470
v 1.55615 0.28037 -2.13184
v 1.54855 0.28666 -2.13429
v 1.56836 0.62981 -2.17367
v 1.48908 0.51639 -2.01961
v 1.48696 0.51705 -2.04040
v 1.49588 0.62967 -2.23450
v 1.49588 0.62967 -2.23450
v 1.42965 0.01884 -2.26995
v 1.50833 0.27498 -2.12881
v 1.57273 0.61603 -2.19329
v 1.49588 0.62967 -2.23450
v 1.52122 0.66931 -2.05318
v 1.50833 0.27498 -2.12881
v 1.54855 0.28666 -2.13429
v 1.48696 0.51705 -2.04040
v 1.48908 0.51639 -2.01961
v 1.50611 0.26664 -2.12094
v 1.54147 0.27635 -2.12470
v 1.50611 0.26664 -2.12094
v 1.50762 0.25382 -2.12167
v 1.32400 0.45480 -2.47236
v 1.44861 0.42631 -2.42731
v 1.45924 0.63249 -2.25733
v 1.43533 0.26935 -2.16274
v 1.43699 0.78461 -1.94947
v 1.44861 0.42631 -2.42731
v 1.44709 0.50090 -2.03653
v 1.46532 0.82150 -2.00915
v 1.50781 0.90370 -2.12213
v 1.58524 0.02859 -2.19665
v 1.57324 0.02943 -2.19257
v 1.50762 0.25382 -2.12167
v 1.48696 0.51705 -2.04040
v 1.48908 0.51639 -2.01961
v 1.46398 0.50936 -2.03569
v 1.41275 0.65110 -2.32109
v 1.46098 0.59694 -1.97711
v 1.50833 0.27498 -2.12881
v 1.44709 0.50090 -2.03653
v 1.40052 0.27395 -2.18124
v 1.45924 0.63249 -2.25733
v 1.40052 0.27395 -2.18124
v 1.42965 0.01884 -2.26995
v 1.58524 0.02859 -2.19665
v 1.50762 0.25382 -2.12167
v 1.44662 0.50173 -2.01567
v 1.45684 0.50668 -2.01151
v 1.48696 0.51705 -2.04040
v 1.44709 0.50090 -2.03653
v 1.50611 0.26664 -2.12094
v 1.27489 0.26056 -2.23605
v 1.30953 0.02202 -2.36182
v 1.27489 0.26056 -2.23605
v 1.42127 0.63891 -2.28408
v 1.48908 0.51639 -2.01961
v 1.46098 0.59694 -1.97711
v 1.45684 0.50668 -2.01151
v 1.41479 0.75379 -1.90689
v 1.42127 0.63891 -2.28408
v 1.40519 0.14609 -2.62231
v 1.41191 0.15060 -2.62426
v 1.32873 0.42468 -2.48501
v 1.37699 0.74091 -1.89973
v 1.44662 0.50173 -2.01567
v 1.41191 0.15060 -2.62426
v 1.38001 0.24895 -2.58266
v 1.32873 0.42468 -2.48501
v 1.35913 0.08587 -2.49677
v 1.39101 0.64106 -2.30221
v 1.41191 0.15060 -2.62426
v 1.40519 0.14609 -2.62231
v 1.38001 0.24895 -2.58266
v 1.24910 0.50471 -2.12611
v 1.27489 0.26056 -2.23605
v 1.35927 0.01493 -2.30973
v 1.35927 0.01493 -2.30973
v 1.39101 0.64106 -2.30221
v 1.28303 0.59140 -2.40127
v 1.37048 0.29487 -2.56302
v 1.34331 0.37442 -2.52625
v 1.40052 0.27395 -2.18124
v 1.32205 0.26920 -2.22074
v 1.27489 0.26056 -2.23605
v 1.26605 0.66480 -2.39112
v 1.33941 0.41195 -2.51192
v 1.26542 0.74143 -1.94928
v 1.34062 0.64389 -2.33356
v 1.24691 0.26266 -2.27016
v 1.40519 0.14609 -2.62231
v 1.35913 0.08587 -2.49677
v 1.34331 0.37442 -2.52625
v 1.37048 0.29487 -2.56302
v 1.38001 0.24895 -2.58266
v 1.30953 0.02202 -2.36182
v 1.31835 0.04010 -2.39491
v 1.35913 0.08587 -2.49677
v 1.34331 0.37442 -2.52625
v 1.38001 0.24895 -2.58266
v 1.28441 0.33565 -2.38178
v 1.34062 0.64389 -2.33356
v 1.32948 0.42343 -2.50348
v 1.32948 0.42343 -2.50348
v 1.19969 0.50228 -2.13580
v 1.24910 0.50471 -2.12611
v 1.32205 0.26920 -2.22074
v 1.33941 0.41195 -2.51192
v 1.34331 0.37442 -2.52625
v 1.32948 0.42343 -2.50348
v 1.27025 0.65480 -2.39026
v 1.33390 0.01590 -2.31828
v 1.33390 0.01590 -2.31828
v 1.30419 0.02773 -2.35569
v 1.32948 0.42343 -2.50348
v 1.27025 0.65480 -2.39026
v 1.33390 0.01590 -2.31828
v 1.30419 0.02773 -2.35569
v 1.30953 0.02202 -2.36182
v 1.29708 0.64975 -2.36035
v 1.32948 0.42343 -2.50348
v 1.32873 0.42468 -2.48501
v 1.32400 0.45480 -2.47236
v 1.29770 0.52898 -2.43128
v 1.28303 0.59140 -2.40127
v 1.29708 0.64975 -2.36035
v 1.29903 0.36726 -2.41100
v 1.24244 0.72977 -2.35604
v 1.32400 0.45480 -2.47236
v 1.29770 0.52898 -2.43128
v 1.27902 0.27047 -2.24356
v 1.28303 0.59140 -2.40127
v 1.27261 0.62457 -2.38491
v 1.27261 0.62457 -2.38491
v 1.25131 0.63029 -2.34363
v 1.25109 0.27987 -2.27840
v 1.26324 0.64977 -2.37730
v 1.26324 0.64977 -2.37730
v 1.23221 0.78408 -2.33118
v 1.30419 0.02773 -2.35569
v 1.24691 0.26266 -2.27016
v 1.24691 0.26266 -2.27016
v 1.26324 0.64977 -2.37730
v 1.26212 0.65868 -2.38928
v 1.27025 0.65480 -2.39026
v 1.26605 0.66480 -2.39112
v 1.27025 0.65480 -2.39026
v 1.26212 0.65868 -2.38928
v 1.26324 0.64977 -2.37730
v 1.25109 0.27987 -2.27840
v 1.25131 0.63029 -2.34363
v 1.27902 0.27047 -2.24356
v 1.21108 0.50526 -2.15033
v 1.23067 0.35528 -2.24618
v 1.26605 0.66480 -2.39112
v 1.26212 0.65868 -2.38928
v 1.24244 0.72977 -2.35604
v 1.25109 0.27987 -2.27840
v 1.13745 0.74104 -2.00849
v 1.19969 0.50228 -2.13580
v 1.26322 0.50108 -2.10634
v 1.23067 0.35528 -2.24618
v 1.22104 0.60299 -2.30254
v 1.22106 0.57946 -2.26711
v 1.23221 0.78408 -2.33118
v 1.24244 0.72977 -2.35604
v 1.21527 0.83134 -2.30751
v 1.19836 0.56590 -2.24565
v 1.11826 0.78100 -2.08401
v 1.21527 0.83134 -2.30751
v 1.20959 0.55742 -2.23594
v 1.22106 0.57946 -2.26711
v 1.20959 0.55742 -2.23594
v 1.15500 0.66046 -2.19893
v 1.22104 0.60299 -2.30254
v 1.19836 0.56590 -2.24565
v 1.18723 0.51614 -2.17956
v 1.21108 0.50526 -2.15033
v 1.18723 0.51614 -2.17956
v 1.17412 0.51355 -2.16665
v 1.18723 0.51614 -2.17956
v 1.18723 0.51614 -2.17956
v 1.17412 0.51355 -2.16665
v 1.14025 0.62635 -2.11079
v 1.17412 0.51355 -2.16665
v 1.17412 0.51355 -2.16665
v 1.14025 0.62635 -2.11079
v 1.24910 0.50471 -2.12611
v 1.19969 0.50228 -2.13580
v 1.19969 0.50228 -2.13580
v 1.24793 1.33872 -1.65845
v 1.24071 1.26933 -1.68063
v 1.28979 1.33246 -1.74685
v 1.23631 1.22288 -1.69535
v 1.23631 1.22288 -1.69535
v 1.24071 1.26933 -1.68063
v 1.23071 1.23671 -1.68963
v 1.21976 1.28858 -1.66847
v 1.21559 1.29350 -1.66848
v 1.20567 1.28825 -1.63512
v 1.21960 1.13918 -1.68824
v 1.21976 1.28858 -1.66847
v 1.20567 1.28825 -1.63512
v 1.24793 1.33872 -1.65845
v 1.15594 1.27971 -1.53286
v 1.15594 1.27971 -1.53286
v 1.14194 1.27241 -1.49589
v 1.14950 0.95384 -1.54538
v 1.09762 0.92829 -1.43193
v 0.87201 1.25658 -1.50798
v 1.14194 1.27241 -1.49589
v 1.02444 0.90506 -1.53913
v 1.09762 0.92829 -1.43193
v 1.06696 0.91451 -1.36747
v 0.90316 0.98743 -1.00643
v 1.04436 1.22842 -1.29996
v 1.06696 0.91451 -1.36747
v 1.04436 1.22842 -1.29996
v 0.99364 0.87501 -1.21792
v 0.77994 1.20680 -1.30982
v 0.99975 1.20624 -1.21430
v 0.99364 0.87501 -1.21792
v 0.94261 0.90032 -1.37753
v 0.96657 0.90565 -1.42525
v 0.95938 0.85586 -1.14489
v 0.80137 1.21703 -1.35624
v 0.80137 1.21703 -1.35624
v 0.87201 1.25658 -1.50798
v 0.81975 1.08375 -1.39953
v 1.04436 1.22842 -1.29996
v 1.06696 0.91451 -1.36747
v 0.99975 1.20624 -1.21430
v 0.90316 0.98743 -1.00643
v 1.04436 1.22842 -1.29996
v 0.97320 1.19427 -1.16741
v 0.99975 1.20624 -1.21430
v 0.77994 1.20680 -1.30982
v 0.97320 1.19427 -1.16741
v 0.90321 1.15790 -1.02834
v 0.99364 0.87501 -1.21792
v 0.95938 0.85586 -1.14489
v 0.91465 0.82947 -1.04915
v 0.71774 1.17577 -1.18277
v 0.90321 1.15790 -1.02834
v 0.86977 1.14399 -0.96561
v 1.04436 1.22842 -1.29996
v 0.80137 1.21703 -1.35624
v 0.85794 0.94311 -0.87010
v 0.85038 0.78744 -0.90540
v 0.76379 1.13715 -0.99664
v 0.86977 1.14399 -0.96561
v 0.94261 0.90032 -1.37753
v 0.95938 0.85586 -1.14489
v 0.78742 0.81503 -1.07810
v 0.81865 1.11288 -0.85576
v 0.77625 1.09043 -0.76815
v 0.79849 0.94235 -0.78555
v 0.80986 0.76209 -0.81381
v 0.91465 0.82947 -1.04915
v 0.75223 0.76782 -0.94785
v 0.85038 0.78744 -0.90540
v 0.80633 0.87122 -0.79679
v 0.80986 0.76209 -0.81381
v 0.81865 1.11288 -0.85576
v 0.68161 0.83008 -1.11578
v 0.74769 0.86904 -1.26590
v 0.77994 1.20680 -1.30982
v 0.80137 1.21703 -1.35624
v 0.81975 1.08375 -1.39953
v 0.79677 0.76474 -0.80685
v 0.75214 0.76676 -0.83602
v 0.80986 0.76209 -0.81381
v 0.77625 1.09043 -0.76815
v 0.76877 1.09274 -0.76758
v 0.72431 0.75839 -0.86077
v 0.80986 0.76209 -0.81381
v 0.75214 0.76676 -0.83602
v 0.72431 0.75839 -0.86077
v 0.71774 1.17577 -1.18277
v 0.62035 0.79564 -0.98940
v 0.66900 1.00265 -1.08712
v 0.82667 0.91503 -1.44083
v 0.74769 0.86904 -1.26590
v 0.76628 1.07721 -0.76213
v 0.76427 1.09016 -0.76572
v 0.69517 1.07828 -0.80675
v 0.68419 1.15635 -1.11179
v 0.76427 1.09016 -0.76572
v 0.76877 1.09274 -0.76758
v 0.69517 1.07828 -0.80675
v 0.68531 0.77047 -0.87026
v 0.67173 0.76242 -0.88194
v 0.68161 0.83008 -1.11578
v 0.67173 0.76242 -0.88194
v 0.62465 1.09184 -0.84456
v 0.68419 1.15635 -1.11179
v 0.76877 1.09274 -0.76758
v 0.62465 1.09184 -0.84456
v 0.69517 1.07828 -0.80675
v 0.64324 1.13217 -1.02908
v 0.65868 0.77235 -0.88030
v 0.62470 0.66810 -0.54963
v 0.65868 0.77235 -0.88030
v 0.68531 0.77047 -0.87026
v 0.63321 1.08010 -0.84064
v 0.59780 0.77056 -0.91524
v 0.64324 1.13217 -1.02908
v 0.61211 1.11530 -0.96634
v 0.59780 0.77056 -0.91524
v 0.59780 0.77056 -0.91524
v 0.59305 0.94346 -0.95665
v 0.61211 1.11530 -0.96634
v 0.54385 1.04313 -0.78701
v 0.63321 1.08010 -0.84064
v 0.57945 1.07721 -0.86337
v 0.62035 0.79564 -0.98940
v 0.57227 0.89666 -0.90738
v 0.57945 1.07721 -0.86337
v 0.69517 1.07828 -0.80675
v 0.56956 1.08980 -0.87053
v 0.58523 1.10272 -0.90290
v 0.59780 0.77056 -0.91524
v 0.58575 0.89913 -0.89133
v 0.57227 0.89666 -0.90738
v 0.59780 0.77056 -0.91524
v 0.58575 0.89913 -0.89133
v 0.59780 0.77056 -0.91524
v 0.57590 0.74813 -0.83799
v 0.58523 1.10272 -0.90290
v 0.56956 1.08980 -0.87053
v 0.57590 0.74813 -0.83799
v 0.58575 0.89913 -0.89133
v 0.57550 0.90029 -0.89910
v 0.57227 0.89666 -0.90738
v 0.57550 0.90029 -0.89910
v 0.58575 0.89913 -0.89133
v 0.57474 1.06594 -0.86900
v 0.56956 1.08980 -0.87053
v 0.54385 1.04313 -0.78701
v 0.57474 1.06594 -0.86900
v 0.57227 0.89666 -0.90738
v 0.57945 1.07721 -0.86337
v 0.54415 1.03062 -0.73772
v 0.54443 0.77277 -0.76024
v 0.54382 0.84494 -0.76576
v 0.54144 0.70859 -0.74332
v 0.54759 0.88244 -0.77950
v 0.54384 0.92968 -0.77139
v 0.54446 1.02238 -1.22054
v 0.54253 0.93298 -1.14327
v 0.54429 0.93456 -1.22641
v 0.54427 1.12382 -1.21215
v 0.54144 1.37812 -0.89577
v 0.54452 1.42390 -1.14585
v 0.54443 1.39732 -1.06343
v 0.54452 1.42390 -1.14585
v 0.54427 1.12382 -1.21215
v 0.53842 1.42629 -1.15043
v 0.54462 0.73802 -1.14323
v 0.54233 0.52980 -1.14867
v 0.53842 1.42323 -1.06538
v 0.54427 1.12382 -1.21215
v 0.54003 1.18403 -1.21262
v 0.54245 1.18678 -1.20460
v 0.54385 1.04313 -0.78701
v 0.54384 0.92968 -0.77139
v 0.54288 0.88484 -0.78781
v 0.54443 1.39732 -1.06343
v 0.53842 1.42323 -1.06538
v 0.54003 1.40304 -1.06056
v 0.54415 1.03062 -0.73772
v 0.53134 0.94729 -1.23303
v 0.54446 1.02238 -1.22054
v 0.54429 0.93456 -1.22641
v 0.54759 0.88244 -0.77950
v 0.54382 0.84494 -0.76576
v 0.54288 0.88484 -0.78781
v 0.54384 0.92968 -0.77139
v 0.54452 1.42390 -1.14585
v 0.53842 1.42629 -1.15043
v 0.53842 1.42323 -1.06538
v 0.53923 1.02615 -0.49468
v 0.53128 1.08359 -1.21784
v 0.54427 1.12382 -1.21215
v 0.54099 1.39492 -1.00674
v 0.54443 1.39732 -1.06343
v 0.54144 1.37812 -0.89577
v 0.54003 1.40304 -1.06056
v 0.54144 1.37812 -0.89577
v 0.54443 1.39732 -1.06343
v 0.54003 1.40304 -1.06056
v 0.42224 1.39483 -1.04892
v 0.54144 1.37812 -0.89577
v 0.52754 0.94568 -1.24354
v 0.52728 1.00880 -1.24626
v 0.53134 0.94729 -1.23303
v 0.53005 1.08124 -1.24005
v 0.53128 1.08359 -1.21784
v 0.53134 0.94729 -1.23303
v 0.54429 0.93456 -1.22641
v 0.52754 0.94568 -1.24354
v 0.48497 1.03630 -1.24329
v 0.52728 1.00880 -1.24626
v 0.49438 0.98716 -1.24841
v 0.52754 0.94568 -1.24354
v 0.48204 0.80228 -1.14721
v 0.48208 0.92913 -1.14419
v 0.54253 0.93298 -1.14327
v 0.53005 1.08124 -1.24005
v 0.54427 1.12382 -1.21215
v 0.54245 1.18678 -1.20460
v 0.47232 1.18814 -1.20769
v 0.47984 0.93318 -1.23843
v 0.54429 0.93456 -1.22641
v 0.46788 1.18338 -1.21235
v 0.54003 1.18403 -1.21262
v 0.47984 0.93318 -1.23843
v 0.54429 0.93456 -1.22641
v 0.54253 0.93298 -1.14327
v 0.47232 1.18814 -1.20769
v 0.54245 1.18678 -1.20460
v 0.54003 1.18403 -1.21262
v 0.48208 0.92913 -1.14419
v 0.53680 0.72744 -1.14846
v 0.53842 1.42629 -1.15043
v 0.54427 1.12382 -1.21215
v 0.46345 1.18207 -1.16613
v 0.42224 1.39483 -1.04892
v 0.54003 1.40304 -1.06056
v 0.53842 1.42323 -1.06538
v 0.77994 1.20680 -1.30982
v 0.49438 0.98716 -1.24841
v 0.52728 1.00880 -1.24626
v 0.53680 0.72744 -1.14846
v 0.54462 0.73802 -1.14323
v 0.54233 0.52980 -1.14867
v 0.54253 0.93298 -1.14327
v 0.54233 0.52980 -1.14867
v 0.54288 0.88484 -0.78781
v 0.54382 0.84494 -0.76576
v 0.54273 0.69864 -0.71356
v 0.53599 0.53066 -0.50293
v 0.54144 0.70859 -0.74332
v 0.47796 0.71270 -1.14937
v 0.53680 0.72744 -1.14846
v 0.54233 0.52980 -1.14867
v 0.70794 0.97250 -0.45056
v 0.88459 1.02350 -0.52371
v 0.80633 0.87122 -0.79679
v 0.79677 0.76474 -0.80685
v 0.80986 0.76209 -0.81381
v 0.79591 0.85005 -0.79704
v 0.79849 0.94235 -0.78555
v 0.66223 1.11596 -0.38215
v 0.77258 1.05187 -0.76473
v 0.79677 0.76474 -0.80685
v 0.63719 0.97424 -0.49455
v 0.76498 0.73898 -0.72313
v 0.77625 1.09043 -0.76815
v 0.76628 1.07721 -0.76213
v 0.76877 1.09274 -0.76758
v 0.76427 1.09016 -0.76572
v 0.79591 0.85005 -0.79704
v 0.77258 1.05187 -0.76473
v 0.76628 1.07721 -0.76213
v 0.74492 1.05612 -0.70926
v 0.62470 0.66810 -0.54963
v 0.79677 0.76474 -0.80685
v 0.76498 0.73898 -0.72313
v 0.73688 0.71412 -0.66467
v 0.73688 0.71412 -0.66467
v 0.75214 0.76676 -0.83602
v 0.69517 1.07828 -0.80675
v 0.74492 1.05612 -0.70926
v 0.76628 1.07721 -0.76213
v 0.68974 1.01227 -0.59227
v 0.68087 0.67019 -0.52126
v 0.68531 0.77047 -0.87026
v 0.68087 0.67019 -0.52126
v 0.67280 0.66492 -0.52435
v 0.73688 0.71412 -0.66467
v 0.54568 0.97401 -0.55507
v 0.68974 1.01227 -0.59227
v 0.67280 0.66492 -0.52435
v 0.54273 0.69864 -0.71356
v 0.54144 0.70859 -0.74332
v 0.63719 0.97424 -0.49455
v 0.57590 0.74813 -0.83799
v 0.54141 0.96918 -0.55126
v 0.63719 0.97424 -0.49455
v 0.54141 0.96918 -0.55126
v 0.54139 0.87278 -0.56541
v 0.54415 1.03062 -0.73772
v 0.54115 0.98219 -0.58012
v 0.54415 1.03062 -0.73772
v 0.53923 1.02615 -0.49468
v 0.54568 0.97401 -0.55507
v 0.54144 1.37812 -0.89577
v 0.53894 1.36155 -0.58467
v 0.53886 1.31728 -0.58488
v 0.54141 0.96918 -0.55126
v 0.54115 0.98219 -0.58012
v 0.53923 1.02615 -0.49468
v 0.54115 0.98219 -0.58012
v 0.54568 0.97401 -0.55507
v 0.53923 1.02615 -0.49468
v 0.54139 0.87278 -0.56541
v 0.53866 1.29620 -0.47733
v 0.53463 1.14484 -0.41408
v 0.53760 1.14801 -0.37921
v 0.53866 1.29620 -0.47733
v 0.53886 1.31728 -0.58488
v 0.48187 1.31861 -0.57962
v 0.53894 1.36155 -0.58467
v 0.47919 1.36098 -0.57943
v 0.53886 1.31728 -0.58488
v 0.45956 1.29613 -0.43249
v 0.53572 1.28188 -0.26391
v 0.62470 0.66810 -0.54963
v 0.53923 1.02615 -0.49468
v 0.70794 0.97250 -0.45056
v 0.55099 0.83593 -0.31473
v 0.66223 1.11596 -0.38215
v 0.66223 1.11596 -0.38215
v 0.55267 1.09007 -0.30251
v 0.57841 1.05591 -0.25460
v 0.58105 1.08445 -0.24886
v 0.53855 1.05014 -0.30243
v 0.58805 1.09720 -0.33241
v 0.58805 1.09720 -0.33241
v 0.55267 1.09007 -0.30251
v 0.54773 1.06045 -0.29827
v 0.55267 1.09007 -0.30251
v 0.54126 1.05034 -0.25519
v 0.54318 0.97158 -0.16989
v 0.57841 1.05591 -0.25460
v 0.53855 1.05014 -0.30243
v 0.54126 1.05034 -0.25519
v 0.57841 1.05591 -0.25460
v 0.53855 1.05014 -0.30243
v 0.53923 1.02615 -0.49468
v 0.53463 1.14484 -0.41408
v 0.53898 1.02039 -0.42655
v 0.53855 1.05014 -0.30243
v 0.53760 1.14801 -0.37921
v 0.53572 1.28188 -0.26391
v 0.53463 1.14484 -0.41408
v 0.53309 1.01347 -0.42090
v 0.53898 1.02039 -0.42655
v 0.53541 1.13266 -0.15665
v 0.53866 1.29620 -0.47733
v 0.53898 1.02039 -0.42655
v 0.53309 1.01347 -0.42090
v 0.53923 1.02615 -0.49468
v 0.53855 1.05014 -0.30243
v 0.54318 0.97158 -0.16989
v 0.54126 1.05034 -0.25519
v 0.54318 0.97158 -0.16989
v 0.53760 1.14801 -0.37921
v 0.48161 1.14108 -0.41290
v 0.53463 1.14484 -0.41408
v 0.48071 1.14222 -0.38601
v 0.48351 1.01803 -0.49497
v 0.53923 1.02615 -0.49468
v 0.48071 1.14222 -0.38601
v 0.53923 1.02615 -0.49468
v 0.53309 1.01347 -0.42090
v 0.53309 1.01347 -0.42090
v 0.53463 1.14484 -0.41408
v 0.48161 1.14108 -0.41290
v 0.72798 0.94564 -0.46113
v 0.73728 0.80919 -0.43166
v 0.55099 0.83593 -0.31473
v 0.70794 0.97250 -0.45056
v 0.68087 0.67019 -0.52126
v 0.67563 0.67045 -0.51854
v 0.67280 0.66492 -0.52435
v 0.62470 0.66810 -0.54963
v 0.67280 0.66492 -0.52435
v 0.67563 0.67045 -0.51854
v 0.64435 0.74699 -0.20775
v 0.57024 0.74876 -0.31338
v 0.68087 0.67019 -0.52126
v 0.62470 0.66810 -0.54963
v 0.67563 0.67045 -0.51854
v 0.53909 0.77886 -0.18071
v 0.63126 0.78701 -0.20513
v 0.57216 0.74511 -0.30914
v 0.57024 0.74876 -0.31338
v 0.73728 0.80919 -0.43166
v 0.57516 0.79604 -0.27691
v 0.57216 0.74511 -0.30914
v 0.55417 0.79921 -0.30101
v 0.57516 0.79604 -0.27691
v 0.54139 0.87278 -0.56541
v 0.68087 0.67019 -0.52126
v 0.63719 0.97424 -0.49455
v 0.54082 0.80035 -0.57226
v 0.62470 0.66810 -0.54963
v 0.57024 0.74876 -0.31338
v 0.55099 0.83593 -0.31473
v 0.53847 0.78505 -0.23974
v 0.55417 0.79921 -0.30101
v 0.54105 0.74977 -0.57981
v 0.62470 0.66810 -0.54963
v 0.54103 0.67327 -0.58883
v 0.54134 0.67199 -0.61822
v 0.53835 0.85766 -0.31083
v 0.53855 1.05014 -0.30243
v 0.55417 0.79921 -0.30101
v 0.54309 0.79997 -0.30586
v 0.55099 0.83593 -0.31473
v 0.54103 0.67327 -0.58883
v 0.54309 0.79997 -0.30586
v 0.54273 0.69864 -0.71356
v 0.54309 0.79997 -0.30586
v 0.54134 0.67199 -0.61822
v 0.53599 0.53066 -0.50293
v 0.54273 0.69864 -0.71356
v 0.53863 0.69433 -0.50324
v 0.54139 0.87278 -0.56541
v 0.53923 1.02615 -0.49468
v 0.54103 0.67327 -0.58883
v 0.54105 0.74977 -0.57981
v 0.54082 0.80035 -0.57226
v 0.53847 0.78505 -0.23974
v 0.53093 0.53044 -0.39285
v 0.54309 0.79997 -0.30586
v 0.53835 0.85766 -0.31083
v 0.53855 1.05014 -0.30243
v 0.53601 0.53294 -0.17416
v 0.53760 1.14801 -0.37921
v 0.53307 0.66248 -0.16692
v 0.53909 0.77886 -0.18071
v 0.53093 0.53044 -0.39285
v 0.48071 1.14222 -0.38601
v 0.53760 1.14801 -0.37921
v 0.48203 0.58217 -0.50039
v 0.53863 0.69433 -0.50324
v 0.53923 1.02615 -0.49468
v 0.53599 0.53066 -0.50293
v 0.48351 1.01803 -0.49497
v 0.55099 0.83593 -0.31473
v 1.23077 0.50333 -2.12965
v 1.24910 0.50471 -2.12611
v 1.26322 0.50108 -2.10634
v 1.19969 0.50228 -2.13580
v 1.21108 0.50526 -2.15033
v 0.56917 1.21387 -0.49762
v 0.70794 0.97250 -0.45056
v 0.88459 1.02350 -0.52371
v 0.66223 1.11596 -0.38215
v 0.55267 1.09007 -0.30251
v 0.58105 1.08445 -0.24886
v 0.57841 1.05591 -0.25460
v 0.54318 0.97158 -0.16989
v 0.53541 1.13266 -0.15665
v 0.53572 1.28188 -0.26391
v 0.45956 1.29613 -0.43249
v 0.53866 1.29620 -0.47733
v 0.48187 1.31861 -0.57962
v 0.53886 1.31728 -0.58488
v 0.47919 1.36098 -0.57943
v 0.53894 1.36155 -0.58467
v 0.54144 1.37812 -0.89577
v 0.54099 1.39492 -1.00674
v 0.54443 1.39732 -1.06343
v 0.57574 0.84139 -0.31467
v 0.72798 0.94564 -0.46113
v 0.73728 0.80919 -0.43166
v 0.57216 0.74511 -0.30914
v 0.64435 0.74699 -0.20775
v 0.57516 0.79604 -0.27691
v 0.63126 0.78701 -0.20513
v 0.53909 0.77886 -0.18071
v 0.53307 0.66248 -0.16692
v 0.53601 0.53294 -0.17416
v 0.53093 0.53044 -0.39285
v 0.48071 1.14222 -0.38601
v 0.53760 1.14801 -0.37921
v 0.48161 1.14108 -0.41290
v 0.53309 1.01347 -0.42090
v 0.50811 0.93616 -1.15733
v 0.53599 0.53066 -0.50293
v 0.54233 0.52980 -1.14867
v 0.47796 0.71270 -1.14937
v 0.53680 0.72744 -1.14846
v 0.48204 0.80228 -1.14721
v 0.48208 0.92913 -1.14419
v 0.47984 0.93318 -1.23843
v 0.52754 0.94568 -1.24354
v 0.49438 0.98716 -1.24841
v 0.48497 1.03630 -1.24329
v 0.53005 1.08124 -1.24005
v 0.53128 1.08359 -1.21784
v 0.54427 1.12382 -1.21215
v 0.47232 1.18814 -1.20769
v 0.54003 1.18403 -1.21262
v 0.46788 1.18338 -1.21235
v 0.51343 1.34386 -1.12731
v 0.53842 1.42323 -1.06538
v 0.53842 1.42629 -1.15043
v 0.46345 1.18207 -1.16613
vt 0.00136 0.27324
vt 0.00066 0.28120
vt 0.00016 0.27223
vt 0.67109 0.45011
vt 0.64828 0.44180
vt 0.67187 0.44115
vt 0.92577 0.53733
vt 0.92440 0.53811
vt 0.92590 0.52218
vt 0.95634 0.26459
vt 0.95633 0.24099
vt 0.95793 0.24636
vt 0.19329 0.23133
vt 0.19461 0.21624
vt 0.20126 0.23094
vt 0.02314 0.76519
vt 0.01630 0.78622
vt 0.01366 0.76534
vt 0.74655 0.95182
vt 0.74682 0.97411
vt 0.22214 0.22976
vt 0.92463 0.51042
vt 0.95769 0.23689
vt 0.67232 0.47097
vt 0.63753 0.46277
vt 0.76234 0.99103
vt 0.76894 0.99045
vt 0.77597 0.99140
vt 0.95764 0.22974
vt 0.95588 0.22936
vt 0.67229 0.48462
vt 0.63666 0.44223
vt 0.72361 0.99818
vt 0.72869 0.99827
vt 0.72747 0.99959
vt 0.67164 0.49305
vt 0.22053 0.18853
vt 0.23581 0.22919
vt 0.22872 0.22894
vt 0.72292 0.99980
vt 0.67115 0.49848
vt 0.24426 0.22904
vt 0.66973 0.50391
vt 0.67105 0.50377
vt 0.70634 0.70723
vt 0.71157 0.69286
vt 0.70645 0.72779
vt 0.25536 0.22825
vt 0.20576 0.86322
vt 0.20699 0.84908
vt 0.71099 0.72742
vt 0.97100 0.18102
vt 0.97668 0.18080
vt 0.98212 0.18128
vt 0.60954 0.00168
vt 0.61069 0.00234
vt 0.61045 0.00286
vt 0.92541 0.50502
vt 0.24139 0.85241
vt 0.22817 0.88145
vt 0.20721 0.87317
vt 0.19528 0.19909
vt 0.59042 0.00238
vt 0.97140 0.18062
vt 0.63680 0.48806
vt 0.70784 0.68197
vt 0.43740 0.92777
vt 0.41231 0.91606
vt 0.45816 0.91601
vt 0.71301 0.67832
vt 0.70753 0.66080
vt 0.19591 0.18975
vt 0.63986 0.50901
vt 0.65490 0.51601
vt 0.45406 0.92940
vt 0.45245 0.93391
vt 0.45613 0.92266
vt 0.55222 0.96283
vt 0.55322 0.98285
vt 0.51639 0.98285
vt 0.70765 0.65881
vt 0.55099 0.95062
vt 0.25581 0.85479
vt 0.28423 0.87459
vt 0.25750 0.88115
vt 0.00706 0.23799
vt 0.00856 0.23812
vt 0.00829 0.25495
vt 0.92531 0.49566
vt 0.27601 0.85350
vt 0.45067 0.93429
vt 0.53045 0.38372
vt 0.50110 0.38028
vt 0.50110 0.37323
vt 0.61246 0.97621
vt 0.59359 0.97621
vt 0.61275 0.96304
vt 0.13247 0.99929
vt 0.13064 0.99929
vt 0.13208 0.99819
vt 0.50131 0.38506
vt 0.61309 0.97570
vt 0.10943 0.99566
vt 0.12176 0.99674
vt 0.10909 0.99678
vt 0.20855 0.18877
vt 0.28904 0.84983
vt 0.29030 0.87634
vt 0.03281 0.29348
vt 0.03380 0.29462
vt 0.03380 0.31657
vt 0.50258 0.38635
vt 0.51893 0.38589
vt 0.20570 0.88088
vt 0.96583 0.60426
vt 0.96583 0.57366
vt 0.97772 0.59211
vt 0.33721 0.01861
vt 0.34984 0.01767
vt 0.34991 0.01849
vt 0.50255 0.39873
vt 0.50288 0.41070
vt 0.50331 0.41369
vt 0.53712 0.36503
vt 0.53661 0.38350
vt 0.52451 0.95247
vt 0.97554 0.37523
vt 0.99422 0.37523
vt 0.37023 0.00302
vt 0.35155 0.00302
vt 0.35180 0.00152
vt 0.01932 0.32517
vt 0.23975 0.88762
vt 0.03411 0.33252
vt 0.20579 0.88728
vt 0.53736 0.41746
vt 0.25883 0.19158
vt 0.23435 0.18862
vt 0.57677 0.97545
vt 0.61376 0.94635
vt 0.23127 0.00085
vt 0.22488 0.00085
vt 0.22623 0.00015
vt 0.25641 0.99745
vt 0.24259 0.99745
vt 0.24563 0.99700
vt 0.50396 0.42446
vt 0.36542 0.01862
vt 0.51533 0.95560
vt 0.50594 0.44904
vt 0.61441 0.94752
vt 0.27788 0.88230
vt 0.28998 0.88288
vt 0.00517 0.32610
vt 0.00517 0.31059
vt 0.00592 0.30948
vt 0.01089 0.57520
vt 0.01067 0.57601
vt 0.00121 0.57586
vt 0.53872 0.43529
vt 0.52833 0.46461
vt 0.25762 0.88846
vt 0.63470 0.65852
vt 0.62052 0.65525
vt 0.00064 0.36133
vt 0.00064 0.35187
vt 0.00239 0.35509
vt 0.65023 0.67221
vt 0.65029 0.67677
vt 0.28866 0.88655
vt 0.51166 0.09504
vt 0.51691 0.08348
vt 0.55739 0.08136
vt 0.28964 0.88298
vt 0.58083 0.00092
vt 0.58083 0.00008
vt 0.58449 0.00066
vt 0.57612 0.94508
vt 0.61958 0.70643
vt 0.52364 0.06826
vt 0.59042 0.94415
vt 0.64992 0.70503
vt 0.63567 0.65187
vt 0.65204 0.65490
vt 0.40329 0.14344
vt 0.37298 0.15763
vt 0.37502 0.14344
vt 0.40476 0.18290
vt 0.36863 0.18067
vt 0.42478 0.16571
vt 0.40784 0.14321
vt 0.65411 0.63026
vt 0.42522 0.14394
vt 0.75395 0.97460
vt 0.20567 0.84793
vt 0.97565 0.38032
vt 0.63192 0.67428
vt 0.32181 0.13529
vt 0.31254 0.16674
vt 0.31119 0.13529
vt 0.31385 0.17983
vt 0.31286 0.17958
vt 0.60679 0.51992
vt 0.60615 0.53274
vt 0.60403 0.53312
vt 0.60784 0.48845
vt 0.57098 0.48993
vt 0.62440 0.12241
vt 0.62537 0.12205
vt 0.62414 0.12455
vt 0.35264 0.18208
vt 0.79014 0.59598
vt 0.75266 0.61621
vt 0.75295 0.60594
vt 0.75326 0.59533
vt 0.33208 0.13533
vt 0.62916 0.12461
vt 0.25447 0.14342
vt 0.25363 0.12722
vt 0.25855 0.12821
vt 0.56583 0.52885
vt 0.79811 0.59617
vt 0.80168 0.59930
vt 0.56303 0.49054
vt 0.60039 0.54892
vt 0.59833 0.55650
vt 0.56563 0.56825
vt 0.25435 0.15127
vt 0.75220 0.63488
vt 0.01997 0.16856
vt 0.01997 0.20796
vt 0.01884 0.16958
vt 0.00691 0.13662
vt 0.00691 0.15421
vt 0.00569 0.14006
vt 0.66419 0.12346
vt 0.02863 0.34047
vt 0.03335 0.34088
vt 0.02688 0.34121
vt 0.90016 0.35330
vt 0.90192 0.35010
vt 0.90272 0.35183
vt 0.90963 0.35106
vt 0.35076 0.13543
vt 0.16762 0.99742
vt 0.16419 0.99650
vt 0.16762 0.99552
vt 0.02584 0.37779
vt 0.03414 0.37929
vt 0.78834 0.72017
vt 0.81897 0.75998
vt 0.77680 0.74736
vt 0.79387 0.16040
vt 0.79418 0.16396
vt 0.78697 0.16133
vt 0.59399 0.57354
vt 0.00094 0.21515
vt 0.00007 0.21278
vt 0.00085 0.20672
vt 0.73657 0.07046
vt 0.73461 0.06889
vt 0.73596 0.06818
vt 0.79144 0.02285
vt 0.82247 0.02285
vt 0.82022 0.02503
vt 0.15445 0.99628
vt 0.79388 0.17369
vt 0.80237 0.62509
vt 0.74152 0.07120
vt 0.25564 0.16542
vt 0.26881 0.16663
vt 0.88539 0.36718
vt 0.02286 0.48929
vt 0.02918 0.48912
vt 0.02918 0.52751
vt 0.86939 0.34937
vt 0.74150 0.07295
vt 0.71701 0.99845
vt 0.71168 0.99988
vt 0.71091 0.99810
vt 0.30737 0.13272
vt 0.28757 0.12824
vt 0.79338 0.18015
vt 0.75360 0.07059
vt 0.87459 0.39131
vt 0.65816 0.12563
vt 0.02273 0.52699
vt 0.88766 0.39225
vt 0.90936 0.39508
vt 0.01447 0.93478
vt 0.01275 0.93397
vt 0.01335 0.89738
vt 0.89633 0.69582
vt 0.89362 0.69738
vt 0.89415 0.69283
vt 0.78765 0.19086
vt 0.86758 0.36354
vt 0.80790 0.89994
vt 0.80790 0.93764
vt 0.78996 0.90085
vt 0.27529 0.16651
vt 0.75937 0.06915
vt 0.87550 0.45546
vt 0.87588 0.48126
vt 0.83861 0.47800
vt 0.89023 0.69154
vt 0.89036 0.69335
vt 0.89645 0.69572
vt 0.89306 0.69021
vt 0.83667 0.47796
vt 0.83531 0.43928
vt 0.79790 0.64731
vt 0.78001 0.06903
vt 0.79228 0.18709
vt 0.81560 0.34957
vt 0.80138 0.34833
vt 0.81532 0.34439
vt 0.77473 0.34739
vt 0.28232 0.16653
vt 0.75252 0.65114
vt 0.75156 0.65035
vt 0.30749 0.12778
vt 0.77475 0.34131
vt 0.81590 0.34267
vt 0.36624 0.13572
vt 0.36722 0.15238
vt 0.67808 0.12643
vt 0.77441 0.64929
vt 0.79196 0.19238
vt 0.00468 0.24126
vt 0.00591 0.24104
vt 0.00490 0.25795
vt 0.89188 0.65767
vt 0.78000 0.06881
vt 0.80184 0.63721
vt 0.87558 0.44333
vt 0.28761 0.16647
vt 0.30857 0.15656
vt 0.36695 0.16000
vt 0.36767 0.17372
vt 0.94685 0.02097
vt 0.93383 0.01891
vt 0.92675 0.01633
vt 0.79902 0.69818
vt 0.36706 0.17974
vt 0.77419 0.32303
vt 0.29651 0.16625
vt 0.46002 0.33656
vt 0.51244 0.31758
vt 0.50383 0.34432
vt 0.99402 0.53409
vt 0.99402 0.52035
vt 0.99489 0.51278
vt 0.49251 0.36264
vt 0.49497 0.36224
vt 0.50377 0.37224
vt 0.48211 0.29851
vt 0.49786 0.30431
vt 0.46094 0.31223
vt 0.79132 0.20125
vt 0.67929 0.12393
vt 0.36774 0.18225
vt 0.88984 0.65040
vt 0.77546 0.94045
vt 0.77678 0.90091
vt 0.00124 0.20515
vt 0.00229 0.19920
vt 0.00224 0.20756
vt 0.79739 0.69822
vt 0.87497 0.43936
vt 0.80230 0.64120
vt 0.49108 0.36183
vt 0.47900 0.29460
vt 0.78845 0.21459
vt 0.64507 0.99948
vt 0.63770 0.99948
vt 0.63769 0.99800
vt 0.79066 0.20893
vt 0.44773 0.29585
vt 0.44786 0.29777
vt 0.98759 0.61223
vt 0.98759 0.59892
vt 0.98872 0.58838
vt 0.30421 0.16654
vt 0.45262 0.31065
vt 0.81012 0.70159
vt 0.44433 0.29766
vt 0.43190 0.29673
vt 0.92656 0.01828
vt 0.42112 0.29514
vt 0.30904 0.16230
vt 0.41452 0.29709
vt 0.41225 0.30494
vt 0.45943 0.33487
vt 0.79079 0.21460
vt 0.30988 0.16640
vt 0.81848 0.70515
vt 0.87410 0.43204
vt 0.92024 0.01756
vt 0.83568 0.43267
vt 0.92507 0.49259
vt 0.92597 0.49465
vt 0.92463 0.49488
vt 0.69739 0.00097
vt 0.69576 0.00097
vt 0.69675 0.00004
vt 0.41045 0.29912
vt 0.92009 0.02048
vt 0.92493 0.48650
vt 0.76950 0.90139
vt 0.76871 0.94057
vt 0.76281 0.91440
vt 0.76158 0.94036
vt 0.76060 0.94092
vt 0.76044 0.92880
vt 0.76267 0.90174
vt 0.77382 0.30191
vt 0.81542 0.30154
vt 0.89508 0.65949
vt 0.44293 0.33664
vt 0.92687 0.47805
vt 0.92484 0.47201
vt 0.00796 0.19746
vt 0.00716 0.20651
vt 0.00748 0.18916
vt 0.92685 0.46732
vt 0.72427 0.90127
vt 0.76012 0.91145
vt 0.41160 0.32969
vt 0.41095 0.32292
vt 0.92463 0.46604
vt 0.73161 0.92575
vt 0.74400 0.94185
vt 0.73331 0.94275
vt 0.76287 0.94129
vt 0.99636 0.40580
vt 0.99632 0.39992
vt 0.99356 0.40029
vt 0.41322 0.33907
vt 0.92444 0.45505
vt 0.92592 0.45270
vt 0.79566 0.29458
vt 0.81517 0.29530
vt 0.71742 0.94349
vt 0.71725 0.92396
vt 0.88984 0.65040
vt 0.89188 0.65767
vt 0.99365 0.40653
vt 0.01005 0.89819
vt 0.01005 0.90483
vt 0.00155 0.90079
vt 0.01004 0.90927
vt 0.01867 0.99661
vt 0.02309 0.99691
vt 0.01992 0.99734
vt 0.64532 0.94445
vt 0.64475 0.94431
vt 0.64531 0.94117
vt 0.65966 0.82617
vt 0.64602 0.82703
vt 0.64545 0.82379
vt 0.02972 0.99731
vt 0.64526 0.93083
vt 0.64436 0.81351
vt 0.64436 0.80987
vt 0.67358 0.80894
vt 0.67382 0.79740
vt 0.62307 0.91741
vt 0.64558 0.92720
vt 0.69801 0.97333
vt 0.70210 0.98456
vt 0.69760 0.98938
vt 0.66089 0.75664
vt 0.64537 0.90695
vt 0.67388 0.79081
vt 0.64471 0.78963
vt 0.67469 0.77531
vt 0.38252 0.00670
vt 0.38399 0.02838
vt 0.03706 0.01710
vt 0.02291 0.02308
vt 0.01835 0.02138
vt 0.04415 0.01959
vt 0.62332 0.90182
vt 0.01589 0.78721
vt 0.00672 0.79982
vt 0.00478 0.78082
vt 0.37508 0.02959
vt 0.02251 0.01170
vt 0.56397 0.37439
vt 0.58634 0.33563
vt 0.56416 0.38838
vt 0.56378 0.36659
vt 0.15998 0.28305
vt 0.15998 0.24920
vt 0.16774 0.28225
vt 0.56356 0.34401
vt 0.60902 0.36379
vt 0.60915 0.35208
vt 0.60949 0.33670
vt 0.18042 0.24830
vt 0.19028 0.28103
vt 0.56308 0.33379
vt 0.82931 0.96338
vt 0.86423 0.96829
vt 0.58789 0.31445
vt 0.61045 0.31370
vt 0.20261 0.26475
vt 0.20049 0.28023
vt 0.62861 0.76870
vt 0.64341 0.79879
vt 0.62454 0.81766
vt 0.56326 0.31613
vt 0.56302 0.30202
vt 0.58424 0.30032
vt 0.61087 0.29912
vt 0.64275 0.81416
vt 0.62688 0.83772
vt 0.64222 0.83718
vt 0.59445 0.29960
vt 0.64197 0.85176
vt 0.21815 0.27980
vt 0.60854 0.81790
vt 0.60910 0.79410
vt 0.59859 0.56620
vt 0.59899 0.55884
vt 0.61887 0.55710
vt 0.00018 0.24246
vt 0.00149 0.23504
vt 0.00184 0.24379
vt 0.23225 0.27933
vt 0.23266 0.27830
vt 0.62823 0.85063
vt 0.96083 0.38160
vt 0.96107 0.39035
vt 0.95879 0.39524
vt 0.59786 0.58664
vt 0.60709 0.83828
vt 0.61777 0.60741
vt 0.64342 0.55753
vt 0.64294 0.58541
vt 0.03805 0.99388
vt 0.03795 0.99196
vt 0.04925 0.99000
vt 0.59776 0.59806
vt 0.94362 0.99130
vt 0.94312 0.99070
vt 0.95507 0.99056
vt 0.96036 0.40095
vt 0.61971 0.85045
vt 0.64248 0.60921
vt 0.95883 0.40326
vt 0.23088 0.25530
vt 0.19183 0.24795
vt 0.90875 0.86444
vt 0.88729 0.87290
vt 0.89706 0.86692
vt 0.59782 0.61153
vt 0.96041 0.40497
vt 0.46893 0.11582
vt 0.51797 0.11186
vt 0.51723 0.11582
vt 0.88790 0.87087
vt 0.60822 0.84973
vt 0.20529 0.24731
vt 0.21546 0.24681
vt 0.52099 0.10241
vt 0.95888 0.41477
vt 0.62062 0.63013
vt 0.59765 0.62171
vt 0.66304 0.01419
vt 0.67425 0.02506
vt 0.66614 0.02664
vt 0.64223 0.62963
vt 0.62530 0.63900
vt 0.88010 0.87357
vt 0.68374 0.02198
vt 0.87921 0.87588
vt 0.22535 0.24689
vt 0.64340 0.64098
vt 0.28624 0.00156
vt 0.28572 0.00449
vt 0.26769 0.00195
vt 0.84966 0.32952
vt 0.83111 0.32983
vt 0.83009 0.31810
vt 0.59700 0.63158
vt 0.59757 0.63755
vt 0.50926 0.10142
vt 0.64514 0.00033
vt 0.64338 0.00080
vt 0.64216 0.00020
vt 0.86680 0.85181
vt 0.86840 0.85093
vt 0.87853 0.87249
vt 0.23075 0.24669
vt 0.87262 0.31774
vt 0.87346 0.33049
vt 0.86544 0.85176
vt 0.87535 0.33028
vt 0.66438 0.00713
vt 0.83574 0.30712
vt 0.84563 0.30972
vt 0.82727 0.30307
vt 0.85046 0.31268
vt 0.85725 0.31269
vt 0.51303 0.49563
vt 0.50216 0.48297
vt 0.51390 0.48323
vt 0.51180 0.50995
vt 0.46700 0.54573
vt 0.50231 0.55231
vt 0.49068 0.54852
vt 0.93619 0.54656
vt 0.93619 0.50315
vt 0.93730 0.54675
vt 0.50223 0.45543
vt 0.50308 0.42602
vt 0.49091 0.55228
vt 0.00059 0.26266
vt 0.00134 0.27115
vt 0.00018 0.27161
vt 0.45178 0.49837
vt 0.44963 0.48234
vt 0.45196 0.47601
vt 0.57170 0.00019
vt 0.57547 0.00019
vt 0.57260 0.00082
vt 0.44483 0.49658
vt 0.93982 0.10676
vt 0.93793 0.11751
vt 0.93767 0.10508
vt 0.06078 0.99391
vt 0.06636 0.99292
vt 0.06035 0.99523
vt 0.05410 0.99268
vt 0.94272 0.99643
vt 0.94208 0.99551
vt 0.95409 0.99566
vt 0.41050 0.49586
vt 0.93991 0.12613
vt 0.93811 0.13188
vt 0.99259 0.59437
vt 0.99329 0.58637
vt 0.99321 0.61020
vt 0.99065 0.60689
vt 0.99065 0.58336
vt 0.99171 0.60717
vt 0.57963 0.20477
vt 0.57817 0.22146
vt 0.55609 0.20505
vt 0.51733 0.00334
vt 0.52614 0.00192
vt 0.51774 0.00488
vt 0.53641 0.00167
vt 0.53711 0.00475
vt 0.18831 0.99870
vt 0.19087 0.99963
vt 0.18715 0.99979
vt 0.21857 0.01927
vt 0.22490 0.01504
vt 0.22577 0.01940
vt 0.94806 0.62772
vt 0.60340 0.03921
vt 0.60381 0.05713
vt 0.59528 0.05787
vt 0.21813 0.00824
vt 0.21344 0.99643
vt 0.21978 0.99009
vt 0.22708 0.99680
vt 0.94947 0.63474
vt 0.95042 0.62572
vt 0.94890 0.14029
vt 0.93871 0.14039
vt 0.01289 0.44642
vt 0.00375 0.44492
vt 0.00375 0.43317
vt 0.00922 0.81800
vt 0.01913 0.81764
vt 0.01879 0.81884
vt 0.01230 0.43311
vt 0.59542 0.02882
vt 0.92460 0.58254
vt 0.92460 0.53893
vt 0.93679 0.54851
vt 0.00508 0.29116
vt 0.00508 0.27440
vt 0.00802 0.27436
vt 0.86475 0.97563
vt 0.93988 0.62960
vt 0.93893 0.62458
vt 0.34624 0.93279
vt 0.34500 0.93175
vt 0.36876 0.93162
vt 0.32277 0.93260
vt 0.72390 0.15547
vt 0.78165 0.15539
vt 0.78026 0.16040
vt 0.77281 0.17649
vt 0.77654 0.20701
vt 0.77119 0.17330
vt 0.10452 0.97233
vt 0.10592 0.97910
vt 0.08337 0.97880
vt 0.89979 0.05306
vt 0.91900 0.04679
vt 0.01223 0.60300
vt 0.01450 0.61373
vt 0.01305 0.61426
vt 0.01356 0.60501
vt 0.01222 0.59561
vt 0.89181 0.03818
vt 0.01364 0.58401
vt 0.86925 0.08261
vt 0.89754 0.05196
vt 0.87877 0.08261
vt 0.01246 0.58021
vt 0.01387 0.58134
vt 0.01314 0.57980
vt 0.01368 0.57996
vt 0.86767 0.07398
vt 0.86571 0.05307
vt 0.86545 0.05040
vt 0.87165 0.05085
vt 0.90053 0.97559
vt 0.86944 0.96424
vt 0.87887 0.96549
vt 0.88584 0.08316
vt 0.88580 0.96697
vt 0.86756 0.96936
vt 0.31594 0.96676
vt 0.30655 0.96030
vt 0.31259 0.95887
vt 0.88558 0.05138
vt 0.90219 0.08310
vt 0.86563 0.97679
vt 0.00680 0.30971
vt 0.00782 0.30953
vt 0.00723 0.32605
vt 0.28640 0.97836
vt 0.29316 0.96420
vt 0.90201 0.97024
vt 0.77957 0.02130
vt 0.78273 0.02186
vt 0.28184 0.96813
vt 0.79218 0.02759
vt 0.28578 0.97880
vt 0.94347 0.98248
vt 0.93476 0.98980
vt 0.92750 0.98299
vt 0.30573 0.98115
vt 0.28898 0.97927
vt 0.99341 0.67106
vt 0.99341 0.69588
vt 0.98794 0.68980
vt 0.78528 0.13326
vt 0.75995 0.15250
vt 0.75704 0.14903
vt 0.15758 0.98545
vt 0.15758 0.98869
vt 0.14989 0.98258
vt 0.98603 0.13537
vt 0.98778 0.13328
vt 0.99582 0.13475
vt 0.16714 0.98272
vt 0.74727 0.15449
vt 0.73234 0.14688
vt 0.72984 0.14945
vt 0.55269 0.06530
vt 0.55269 0.07649
vt 0.54687 0.07599
vt 0.99798 0.79306
vt 0.99798 0.79918
vt 0.99345 0.79311
vt 0.54458 0.06078
vt 0.55227 0.04347
vt 0.76125 0.02621
vt 0.73080 0.13231
vt 0.97549 0.54592
vt 0.99168 0.53184
vt 0.98401 0.55737
vt 0.98009 0.00430
vt 0.99181 0.00222
vt 0.94609 0.30487
vt 0.94682 0.30729
vt 0.99578 0.54994
vt 0.99142 0.55468
vt 0.98778 0.00261
vt 0.99531 0.55357
vt 0.94152 0.30562
vt 0.94164 0.30824
vt 0.98465 0.99372
vt 0.97497 0.99112
vt 0.98572 0.99066
vt 0.94069 0.30470
vt 0.99613 0.42455
vt 0.99636 0.42778
vt 0.99205 0.42454
vt 0.07349 0.99728
vt 0.06109 0.99728
vt 0.07059 0.99213
vt 0.83231 0.15326
vt 0.84006 0.14582
vt 0.85256 0.15457
vt 0.03617 0.99633
vt 0.02481 0.99633
vt 0.02539 0.99561
vt 0.84066 0.16508
vt 0.85194 0.13611
vt 0.19720 0.00086
vt 0.19661 0.00015
vt 0.20309 0.00041
vt 0.81920 0.99063
vt 0.83251 0.99063
vt 0.82271 0.99273
vt 0.82669 0.16533
vt 0.99894 0.78579
vt 0.99409 0.78285
vt 0.99867 0.78276
vt 0.30116 0.99649
vt 0.31472 0.99208
vt 0.31578 0.99683
vt 0.40196 0.99047
vt 0.41659 0.99047
vt 0.41307 0.99592
vt 0.98426 0.99624
vt 0.97290 0.99624
vt 0.97327 0.99166
vt 0.39232 0.02844
vt 0.39978 0.01833
vt 0.41502 0.03112
vt 0.39272 0.03157
vt 0.72568 0.00024
vt 0.72568 0.00077
vt 0.72492 0.00073
vt 0.42833 0.00037
vt 0.42347 0.00080
vt 0.42298 0.00021
vt 0.97394 0.21073
vt 0.41816 0.02374
vt 0.35263 0.00047
vt 0.34697 0.00047
vt 0.35232 0.00004
vt 0.01267 0.67344
vt 0.00936 0.68137
vt 0.44792 0.00152
vt 0.44774 0.00202
vt 0.42859 0.00151
vt 0.98220 0.20542
vt 0.98509 0.21000
vt 0.98502 0.20483
vt 0.01758 0.68140
vt 0.21761 0.02283
vt 0.23599 0.03570
vt 0.20840 0.03344
vt 0.22414 0.02247
vt 0.23615 0.03005
vt 0.98552 0.20969
vt 0.98679 0.20178
vt 0.01692 0.67665
vt 0.02046 0.68127
vt 0.22872 0.02216
vt 0.22104 0.98343
vt 0.21474 0.98885
vt 0.21235 0.98773
vt 0.47808 0.98808
vt 0.49538 0.98808
vt 0.82920 0.99928
vt 0.82920 0.99820
vt 0.83260 0.99832
vt 0.23562 0.02176
vt 0.02142 0.68077
vt 0.20436 0.98383
vt 0.47287 0.98824
vt 0.84463 0.91359
vt 0.85717 0.90306
vt 0.84235 0.92218
vt 0.84248 0.90329
vt 0.82654 0.90909
vt 0.81268 0.90292
vt 0.84447 0.91095
vt 0.83760 0.91023
vt 0.83305 0.90962
vt 0.77707 0.43967
vt 0.76449 0.46320
vt 0.77106 0.43861
vt 0.77026 0.43346
vt 0.77006 0.41616
vt 0.78409 0.46198
vt 0.76270 0.40777
vt 0.78417 0.45033
vt 0.78239 0.43995
vt 0.25328 0.13561
vt 0.19838 0.14039
vt 0.19782 0.13525
vt 0.91857 0.14644
vt 0.92366 0.15651
vt 0.92366 0.18631
vt 0.92342 0.14182
vt 0.91866 0.18558
vt 0.47612 0.98924
vt 0.89188 0.65767
vt 0.89188 0.65767
vt 0.89188 0.65767
vt 0.89188 0.65767
vt 0.89188 0.65767
vt 0.89979 0.05306
vt 0.89979 0.05306
vt 0.89979 0.05306
vt 0.89979 0.05306
vt 0.89979 0.05306
vt 0.89979 0.05306
vt 0.89979 0.05306
vt 0.89979 0.05306
vt 0.89979 0.05306
vt 0.89979 0.05306
vt 0.89979 0.05306
vt 0.89979 0.05306
vt 0.89979 0.05306
vt 0.89979 0.05306
vt 0.89979 0.05306
vt 0.89979 0.05306
vt 0.89979 0.05306
vt 0.89979 0.05306
vt 0.89979 0.05306
vt 0.90224 0.05568
vt 0.90224 0.05568
vt 0.90224 0.05568
vt 0.90224 0.05568
vt 0.90224 0.05568
vt 0.90224 0.05568
vt 0.90224 0.05568
vt 0.90224 0.05568
vt 0.90224 0.05568
vt 0.90224 0.05568
vt 0.90224 0.05568
vt 0.90224 0.05568
vt 0.90224 0.05568
vt 0.90224 0.05568
vt 0.90224 0.05568
vt 0.77654 0.20701
vt 0.77654 0.20701
vt 0.77654 0.20701
vt 0.77654 0.20701
vt 0.77654 0.20701
vt 0.77654 0.20701
vt 0.77654 0.20701
vt 0.77654 0.20701
vt 0.77654 0.20701
vt 0.77654 0.20701
vt 0.77654 0.20701
vt 0.77654 0.20701
vt 0.77654 0.20701
vt 0.77654 0.20701
vt 0.77654 0.20701
vt 0.77654 0.20701
vt 0.77654 0.20701
vt 0.96399 0.48087
vt 0.96399 0.48087
vt 0.96399 0.48087
vt 0.96399 0.48087
vn -0.5531 0.2092 -0.8064
vn -0.5531 0.2092 -0.8064
vn -0.5531 0.2092 -0.8064
vn 0.8759 0.1119 0.4694
vn 0.8745 0.0975 0.4752
vn 0.8619 0.1400 0.4874
vn 0.0886 0.9928 -0.0801
vn 0.0922 0.9916 -0.0909
vn 0.1279 0.9709 -0.2024
vn 0.5291 0.5791 0.6202
vn 0.4983 0.6074 0.6187
vn 0.5272 0.5813 0.6198
vn 0.3698 0.5049 -0.7800
vn 0.3820 0.4858 -0.7862
vn 0.3798 0.4916 -0.7836
vn 0.8474 0.1653 0.5045
vn 0.8474 0.1653 0.5045
vn 0.8474 0.1653 0.5045
vn 0.8737 0.0403 0.4847
vn 0.8737 0.0403 0.4847
vn 0.4070 0.4746 -0.7805
vn 0.0287 0.9991 -0.0296
vn 0.4234 0.6388 0.6424
vn 0.8903 0.0740 0.4493
vn 0.8784 0.0771 0.4717
vn 0.8577 0.4390 -0.2677
vn 0.8577 0.4390 -0.2677
vn 0.8577 0.4390 -0.2677
vn 0.4931 0.5621 0.6640
vn 0.4805 0.5757 0.6616
vn 0.9009 0.0608 0.4298
vn 0.8678 0.0543 0.4940
vn 0.0530 0.1383 0.9890
vn 0.2055 -0.0601 0.9768
vn 0.1758 -0.0205 0.9842
vn 0.9058 0.0560 0.4200
vn 0.2933 0.5588 -0.7757
vn 0.2739 0.5916 -0.7583
vn 0.3146 0.5524 -0.7719
vn 0.0214 0.1778 0.9838
vn 0.9181 0.0647 0.3910
vn 0.2844 0.5817 -0.7621
vn 0.9146 0.0777 0.3968
vn 0.9470 0.2206 0.2333
vn 0.2806 -0.3386 0.8981
vn 0.1982 -0.4001 0.8948
vn 0.1853 -0.3887 0.9025
vn 0.2852 0.5796 -0.7634
vn -0.4154 -0.0910 0.9051
vn -0.3880 -0.3361 0.8582
vn 0.1735 -0.3948 0.9022
vn 0.3418 0.5580 -0.7562
vn 0.6954 0.5579 -0.4529
vn 0.7027 0.5563 -0.4437
vn 0.6764 0.6807 0.2814
vn 0.4429 0.7919 0.4204
vn 0.5718 0.7414 0.3511
vn -0.0099 0.9949 0.1006
vn -0.3500 -0.5389 0.7663
vn -0.4637 -0.5141 0.7216
vn -0.3809 -0.3276 0.8646
vn 0.3784 0.4847 -0.7886
vn 0.7117 0.6548 0.2543
vn 0.3090 0.5525 -0.7741
vn 0.8433 0.0738 0.5324
vn 0.1748 -0.3577 0.9173
vn 0.3559 0.5342 -0.7668
vn 0.3592 0.5231 -0.7729
vn 0.3637 0.5203 -0.7726
vn 0.1920 -0.2933 0.9365
vn 0.3486 -0.2280 0.9091
vn 0.3257 0.5282 -0.7841
vn 0.8503 0.0024 0.5263
vn 0.8750 -0.2258 0.4283
vn 0.3521 0.5385 -0.7655
vn 0.3111 0.6486 -0.6946
vn 0.3648 0.5202 -0.7722
vn 0.0352 0.9981 -0.0511
vn 0.0314 0.9984 -0.0478
vn 0.0357 0.9974 -0.0632
vn 0.3630 -0.2263 0.9039
vn 0.0531 0.9967 -0.0611
vn -0.3721 -0.4247 0.8253
vn -0.4010 -0.1807 0.8981
vn -0.4566 -0.4091 0.7900
vn 0.9513 0.0134 -0.3080
vn 0.9513 0.0134 -0.3080
vn 0.9513 0.0134 -0.3080
vn -0.0120 0.9941 0.1079
vn -0.3956 -0.2320 0.8886
vn 0.2173 0.8417 -0.4942
vn -0.9596 0.1841 -0.2126
vn -0.9072 -0.0939 -0.4100
vn -0.9021 -0.1119 -0.4168
vn 0.4289 0.2030 -0.8802
vn 0.4041 0.1223 -0.9065
vn 0.3859 0.0893 -0.9182
vn -0.2617 0.9451 -0.1956
vn -0.2617 0.9451 -0.1956
vn -0.2617 0.9451 -0.1956
vn -0.9463 0.0762 -0.3143
vn 0.4210 0.3547 -0.8348
vn -0.3601 0.3467 -0.8661
vn -0.3601 0.3467 -0.8661
vn -0.3601 0.3467 -0.8661
vn 0.2909 0.5526 -0.7810
vn -0.4015 -0.2051 0.8926
vn -0.3970 -0.1356 0.9078
vn 0.1966 -0.9535 -0.2284
vn 0.0900 -0.9581 -0.2720
vn 0.3523 -0.9280 -0.1213
vn -0.9510 0.1954 -0.2396
vn -0.9470 0.0795 -0.3112
vn -0.5249 -0.4873 0.6978
vn 0.9168 -0.0406 0.3973
vn 0.9168 -0.0406 0.3973
vn 0.9168 -0.0406 0.3973
vn 0.2750 0.8211 -0.5003
vn 0.2989 0.8201 -0.4880
vn 0.3016 0.8199 -0.4866
vn -0.9093 -0.0659 -0.4109
vn -0.8553 -0.0704 -0.5133
vn -0.9102 -0.0545 -0.4105
vn -0.9247 -0.0666 -0.3748
vn -0.9229 -0.0426 -0.3827
vn 0.0387 0.9964 -0.0751
vn -0.6370 -0.5218 0.5675
vn -0.6370 -0.5218 0.5675
vn -0.9395 -0.3225 0.1158
vn -0.9395 -0.3225 0.1158
vn -0.9395 -0.3225 0.1158
vn 0.3582 -0.9295 -0.0884
vn -0.6025 -0.5189 0.6064
vn 0.3611 -0.9314 -0.0447
vn -0.7288 -0.4873 0.4811
vn -0.9156 -0.0296 -0.4010
vn 0.2803 0.5829 -0.7627
vn 0.2798 0.5834 -0.7625
vn 0.3737 0.1081 -0.9212
vn 0.3548 0.0300 -0.9345
vn 0.0063 0.9473 0.3202
vn 0.0063 0.9473 0.3202
vn 0.0063 0.9473 0.3202
vn -0.2349 0.4707 -0.8504
vn -0.2349 0.4707 -0.8504
vn -0.2349 0.4707 -0.8504
vn -0.9407 0.0043 -0.3393
vn 0.3252 0.8183 -0.4740
vn -0.0309 0.9963 -0.0806
vn -0.9278 0.0411 -0.3708
vn 0.3398 -0.1537 -0.9279
vn -0.6001 -0.2039 0.7735
vn -0.4434 -0.1799 0.8781
vn -0.3692 0.2287 0.9008
vn -0.3692 0.2287 0.9008
vn -0.3692 0.2287 0.9008
vn 0.5715 -0.4722 -0.6711
vn 0.5715 -0.4722 -0.6711
vn 0.5715 -0.4722 -0.6711
vn -0.8941 0.0125 -0.4478
vn -0.9248 0.0712 -0.3737
vn -0.5423 -0.4067 0.7352
vn -0.0990 -0.9904 -0.0963
vn 0.0658 -0.9971 0.0386
vn -0.1103 0.9854 0.1295
vn -0.1103 0.9854 0.1295
vn -0.1103 0.9854 0.1295
vn -0.1601 -0.9493 -0.2707
vn -0.0910 -0.9083 -0.4082
vn -0.8300 -0.1928 0.5234
vn -0.0110 0.9794 0.2018
vn -0.0081 0.9787 0.2053
vn -0.0056 0.9781 0.2082
vn -0.8518 -0.2033 0.4827
vn -0.7801 0.5183 0.3505
vn -0.7801 0.5183 0.3505
vn -0.7801 0.5183 0.3505
vn 0.3353 0.0912 -0.9377
vn 0.0144 -0.9262 -0.3767
vn -0.0026 0.9773 0.2118
vn 0.0925 0.1082 -0.9898
vn 0.0658 -0.9656 -0.2514
vn -0.0384 -0.9736 -0.2248
vn 0.0075 -0.9709 -0.2394
vn -0.9214 0.0502 -0.3854
vn -0.9372 0.0926 -0.3363
vn -0.9103 -0.0049 -0.4138
vn -0.8888 -0.0187 -0.4580
vn -0.9221 0.0785 -0.3788
vn -0.9070 0.0496 -0.4182
vn -0.9251 0.0149 -0.3795
vn 0.0129 -0.9685 -0.2488
vn -0.9078 0.0642 -0.4145
vn 0.8737 0.0403 0.4847
vn -0.3972 -0.2153 0.8921
vn -0.6370 -0.5218 0.5675
vn -0.1153 -0.9400 -0.3211
vn 0.4067 0.4564 -0.7914
vn 0.4136 0.4513 -0.7908
vn 0.4072 0.4563 -0.7912
vn 0.5723 0.4529 -0.6837
vn 0.7696 0.4400 -0.4626
vn 0.8826 0.0617 0.4661
vn 0.9052 0.0917 0.4151
vn 0.8912 0.0589 0.4498
vn 0.8786 0.0680 0.4727
vn 0.8734 0.0728 0.4815
vn 0.2104 0.9110 0.3547
vn 0.1256 0.9538 0.2729
vn 0.1264 0.9264 0.3547
vn 0.4004 0.4597 -0.7927
vn 0.2245 -0.9173 -0.3288
vn 0.1965 -0.9215 -0.3351
vn 0.1989 -0.9211 -0.3347
vn 0.2012 -0.9208 -0.3342
vn 0.4037 0.4579 -0.7920
vn 0.0685 0.9976 0.0082
vn 0.3715 0.6487 -0.6642
vn 0.4843 0.6157 -0.6216
vn 0.4546 0.5982 -0.6599
vn 0.8788 0.0593 0.4735
vn 0.3599 -0.9103 -0.2047
vn 0.2453 -0.9167 -0.3154
vn 0.8777 0.0674 0.4745
vn 0.8768 0.0181 0.4805
vn 0.8640 -0.0639 0.4994
vn 0.8684 0.0232 0.4953
vn 0.4785 0.6163 -0.6255
vn 0.2155 -0.9113 -0.3509
vn -0.5821 -0.4355 0.6867
vn -0.5821 -0.4355 0.6867
vn -0.5821 -0.4355 0.6867
vn 0.9018 0.4217 -0.0949
vn 0.9018 0.4217 -0.0949
vn 0.9018 0.4217 -0.0949
vn -0.0396 0.9975 0.0590
vn 0.3229 0.0228 0.9462
vn 0.3612 -0.1673 0.9173
vn 0.3651 -0.1440 0.9198
vn 0.9407 -0.0056 0.3392
vn 0.9646 -0.0597 0.2570
vn 0.9467 -0.1902 0.2599
vn 0.9283 0.1143 0.3538
vn 0.4070 0.4599 -0.7892
vn 0.4746 0.0204 -0.8800
vn 0.4756 0.0241 -0.8793
vn 0.4744 0.0198 -0.8801
vn 0.3178 -0.2113 0.9243
vn 0.3116 -0.2149 0.9256
vn 0.4150 0.4557 -0.7875
vn 0.4014 0.4710 -0.7855
vn 0.4080 0.4652 -0.7856
vn 0.3397 -0.9153 -0.2164
vn 0.2194 -0.9073 -0.3587
vn 0.2037 -0.9116 -0.3570
vn 0.8637 -0.0287 0.5032
vn 0.4728 -0.6271 0.6190
vn 0.4728 -0.6271 0.6190
vn 0.4728 -0.6271 0.6190
vn -0.0424 0.6935 0.7192
vn 0.2241 0.5767 0.7856
vn 0.0986 0.6405 0.7616
vn 0.7491 -0.6554 -0.0970
vn 0.7491 -0.6554 -0.0970
vn 0.7491 -0.6554 -0.0970
vn 0.4759 0.0249 -0.8792
vn 0.1476 -0.9183 -0.3674
vn 0.2258 -0.9125 -0.3411
vn -0.2242 0.6960 0.6821
vn 0.4609 0.5875 -0.6652
vn 0.4598 0.6100 -0.6454
vn 0.8862 0.0566 0.4598
vn 0.2182 -0.3177 0.9227
vn 0.2182 -0.3177 0.9227
vn 0.2181 -0.3177 0.9227
vn 0.8573 -0.0503 0.5124
vn -0.2474 0.7025 0.6673
vn 0.1173 -0.0426 0.9922
vn 0.1173 -0.0426 0.9922
vn 0.1173 -0.0426 0.9922
vn 0.3979 0.4793 -0.7823
vn 0.3931 0.4638 -0.7940
vn 0.1427 -0.9185 -0.3687
vn -0.3758 0.5568 0.7408
vn 0.7855 -0.0092 0.6188
vn -0.0006 0.9995 0.0306
vn 0.2181 -0.3178 0.9227
vn 0.9110 0.1515 0.3836
vn 0.9033 0.1050 0.4161
vn -0.3017 0.2059 -0.9309
vn -0.3017 0.2059 -0.9309
vn -0.3017 0.2059 -0.9309
vn 0.3055 -0.9502 -0.0610
vn 0.3144 -0.9484 -0.0417
vn 0.3720 -0.9022 0.2182
vn 0.1363 -0.9296 -0.3424
vn 0.8639 0.0364 0.5023
vn -0.3900 -0.4368 0.8106
vn -0.3811 -0.4411 0.8125
vn -0.3852 -0.4386 0.8119
vn 0.4905 0.6290 -0.6032
vn -0.4071 0.3358 0.8494
vn -0.4180 -0.3815 0.8244
vn -0.3687 -0.4055 0.8364
vn -0.4226 -0.2619 0.8676
vn 0.2289 -0.9726 0.0400
vn 0.3366 -0.9071 0.2527
vn 0.3651 -0.7800 0.5083
vn 0.1885 -0.9800 0.0638
vn -0.4412 -0.1025 0.8916
vn -0.5873 -0.3840 0.7125
vn 0.2093 -0.9234 -0.3218
vn -0.2927 0.7846 0.5466
vn 0.0876 -0.9400 -0.3298
vn 0.3259 -0.3497 0.8784
vn 0.1962 -0.3570 0.9133
vn 0.0810 -0.4192 0.9043
vn 0.2766 -0.3344 0.9009
vn 0.4669 0.6099 -0.6404
vn 0.2543 -0.8553 -0.4514
vn 0.3190 -0.7334 -0.6003
vn 0.3915 0.4080 -0.8248
vn -0.0543 -0.4399 0.8964
vn -0.2631 -0.4880 0.8323
vn 0.4139 0.4652 -0.7825
vn 0.3934 0.4378 -0.8084
vn -0.0125 0.9984 -0.0552
vn 0.2162 -0.9105 -0.3526
vn 0.1440 -0.9329 -0.3301
vn -0.4139 0.2374 -0.8788
vn -0.4139 0.2374 -0.8788
vn -0.4139 0.2374 -0.8788
vn 0.0789 -0.9827 -0.1676
vn -0.4064 0.3384 0.8487
vn 0.2228 -0.9147 -0.3373
vn -0.3382 -0.4435 0.8301
vn 0.4272 0.5406 -0.7247
vn 0.4356 0.4905 -0.7547
vn 0.4544 0.4852 -0.7471
vn 0.4247 0.4303 -0.7965
vn -0.3174 0.7818 0.5366
vn -0.3197 0.7724 0.5488
vn -0.4571 0.6563 0.6003
vn 0.4040 0.3577 -0.8420
vn 0.3886 0.5413 -0.7457
vn -0.3611 -0.4923 0.7920
vn 0.4994 0.4255 -0.7547
vn -0.9347 -0.0455 -0.3526
vn -0.9170 -0.0872 -0.3892
vn -0.9179 -0.0862 -0.3873
vn -0.2349 0.3406 -0.9104
vn -0.2349 0.3406 -0.9104
vn -0.2349 0.3406 -0.9104
vn -0.8302 -0.3655 -0.4209
vn -0.7726 -0.4139 -0.4815
vn -0.5033 -0.6948 -0.5137
vn -0.9147 -0.0833 -0.3954
vn -0.9123 -0.0722 -0.4030
vn -0.9568 0.1054 -0.2709
vn 0.1460 -0.9240 -0.3535
vn -0.0090 0.9977 -0.0674
vn 0.2846 0.7153 -0.6382
vn 0.0823 -0.9814 -0.1736
vn -0.4321 -0.4431 0.7854
vn -0.4035 -0.4448 0.7996
vn -0.4033 0.2893 -0.8681
vn -0.4033 0.2893 -0.8681
vn -0.4033 0.2893 -0.8681
vn 0.4365 0.1069 -0.8933
vn -0.5721 -0.4115 0.7095
vn 0.0107 -0.9894 -0.1449
vn -0.9037 -0.1868 -0.3852
vn -0.9161 -0.0756 -0.3938
vn 0.1254 -0.9505 -0.2844
vn -0.5852 -0.7811 0.2177
vn -0.5852 -0.7811 0.2177
vn -0.5852 -0.7811 0.2177
vn -0.0425 -0.9907 -0.1291
vn -0.9208 0.3848 -0.0635
vn -0.9526 0.2297 -0.1997
vn -0.4995 0.2773 -0.8207
vn -0.4995 0.2773 -0.8207
vn -0.4995 0.2773 -0.8207
vn 0.4654 0.4179 -0.7802
vn -0.9527 0.1305 -0.2744
vn 0.3584 0.5072 -0.7838
vn -0.9053 -0.0383 -0.4231
vn -0.9265 -0.0543 -0.3723
vn -0.4870 0.6274 0.6076
vn -0.8951 -0.0468 -0.4433
vn 0.3399 0.4665 -0.8166
vn -0.8897 -0.1025 -0.4450
vn -0.8998 -0.0897 -0.4269
vn -0.9533 0.0477 -0.2982
vn 0.1443 -0.9464 -0.2891
vn 0.4104 0.4004 -0.8193
vn 0.4122 0.4423 -0.7965
vn -0.7773 -0.3622 0.5145
vn -0.6248 0.4852 0.6117
vn -0.7252 -0.3847 0.5711
vn -0.3126 -0.7758 -0.5481
vn -0.3530 -0.7721 -0.5285
vn -0.4190 -0.7467 -0.5165
vn -0.1953 -0.1648 -0.9668
vn -0.1953 -0.1648 -0.9668
vn -0.1953 -0.1648 -0.9668
vn -0.8818 -0.1989 -0.4276
vn -0.6313 0.4542 0.6286
vn 0.0551 -0.8525 -0.5198
vn -0.6039 -0.4439 0.6620
vn -0.6510 -0.4329 0.6236
vn -0.7610 -0.4172 0.4969
vn -0.6305 0.1787 -0.7554
vn -0.8072 0.0573 -0.5874
vn -0.9079 -0.0533 -0.4158
vn -0.7605 -0.4182 0.4967
vn -0.4401 -0.5022 0.7444
vn -0.5823 -0.4990 0.6419
vn 0.0955 -0.9648 -0.2452
vn -0.9168 -0.0756 -0.3922
vn 0.0017 -0.8344 -0.5511
vn -0.0314 -0.8284 -0.5593
vn -0.2293 0.3691 -0.9007
vn -0.2293 0.3691 -0.9007
vn -0.2293 0.3691 -0.9007
vn -0.0904 -0.7983 -0.5954
vn -0.9313 -0.0122 -0.3640
vn -0.9121 -0.0495 -0.4070
vn -0.9139 -0.0751 -0.3988
vn -0.9112 -0.0768 -0.4048
vn -0.0772 -0.7932 -0.6041
vn -0.9306 -0.0282 -0.3650
vn -0.8679 -0.1355 -0.4780
vn -0.8806 -0.1891 -0.4345
vn -0.7757 -0.4087 0.4810
vn -0.0999 -0.9564 -0.2746
vn -0.0894 -0.9565 -0.2776
vn -0.0855 -0.9566 -0.2787
vn -0.9074 -0.0736 -0.4138
vn -0.4192 -0.6900 -0.5901
vn -0.4427 -0.6789 -0.5857
vn -0.7455 -0.4553 0.4868
vn -0.7597 -0.4572 0.4625
vn -0.9286 -0.1748 -0.3275
vn -0.8965 -0.0513 -0.4401
vn 0.0955 -0.9648 -0.2452
vn 0.0955 -0.9648 -0.2452
vn -0.0956 -0.9564 -0.2758
vn 0.8736 -0.2283 0.4299
vn 0.8728 -0.2235 0.4339
vn 0.8732 -0.2259 0.4318
vn 0.8724 -0.2208 0.4361
vn 0.1796 -0.3126 0.9328
vn 0.1982 -0.3168 0.9276
vn 0.1806 -0.3128 0.9325
vn 0.7241 0.6151 0.3121
vn 0.5204 0.8128 0.2618
vn 0.3764 0.8914 0.2522
vn 0.9143 -0.0444 0.4026
vn 0.9201 -0.0523 0.3882
vn 0.9080 -0.0628 0.4143
vn 0.1994 -0.3171 0.9272
vn -0.0663 0.9922 0.1057
vn 0.9259 0.0018 0.3777
vn 0.9160 -0.0179 0.4008
vn 0.9137 -0.0411 0.4043
vn 0.9087 -0.0408 0.4155
vn -0.0802 0.9804 0.1798
vn -0.0655 0.9822 0.1762
vn 0.3481 -0.9368 -0.0347
vn 0.3481 -0.9368 -0.0347
vn 0.3481 -0.9368 -0.0347
vn 0.9042 -0.0382 0.4254
vn -0.0763 0.9777 0.1956
vn 0.9056 -0.0509 0.4211
vn 0.8926 0.0254 0.4502
vn 0.9029 -0.0709 0.4239
vn -0.0874 0.9745 0.2069
vn -0.0874 0.9745 0.2069
vn 0.1275 -0.9725 -0.1950
vn 0.1229 -0.9837 -0.1309
vn 0.1174 -0.9917 -0.0519
vn 0.1277 -0.9724 -0.1950
vn -0.0942 0.9732 0.2098
vn -0.9076 0.0111 -0.4196
vn -0.9076 0.0111 -0.4196
vn -0.9076 0.0111 -0.4196
vn -0.0874 0.9745 0.2069
vn 0.1245 -0.9798 -0.1562
vn 0.8743 0.0703 0.4803
vn 0.9250 0.0365 0.3781
vn 0.8785 0.0622 0.4737
vn 0.8600 0.0985 0.5007
vn -0.0849 0.9759 0.2011
vn -0.0830 0.9766 0.1985
vn -0.0839 0.9752 0.2047
vn 0.8813 0.0600 0.4687
vn 0.9090 -0.0473 0.4140
vn 0.9093 -0.0467 0.4135
vn 0.9236 -0.0597 0.3788
vn -0.0879 0.9738 0.2096
vn -0.0699 0.9779 0.1971
vn 0.8914 0.1031 0.4412
vn -0.0868 0.9805 0.1761
vn -0.0868 0.9805 0.1761
vn 0.8959 0.0164 0.4439
vn 0.9192 -0.1290 0.3721
vn -0.1121 0.9696 0.2174
vn -0.1044 0.9723 0.2092
vn 0.0696 -0.9696 -0.2344
vn 0.1539 -0.9685 -0.1958
vn 0.0656 -0.9556 -0.2874
vn 0.8736 0.1634 0.4585
vn 0.8556 0.1271 0.5018
vn 0.8175 0.0304 0.5751
vn 0.8957 -0.1034 0.4326
vn 0.1785 -0.9604 -0.2141
vn 0.0735 -0.9734 -0.2171
vn 0.2582 -0.9533 -0.1566
vn 0.8341 -0.0376 0.5504
vn 0.1819 -0.9760 -0.1199
vn -0.0671 0.9771 0.2019
vn -0.0398 -0.9520 -0.3035
vn 0.0154 -0.9695 -0.2448
vn -0.9033 0.0202 -0.4285
vn -0.9088 0.0102 -0.4172
vn -0.9046 0.0428 -0.4241
vn -0.1296 -0.9829 0.1305
vn -0.1296 -0.9829 0.1305
vn -0.1296 -0.9829 0.1305
vn 0.3003 0.8789 0.3706
vn 0.0688 0.9603 0.2705
vn 0.0337 -0.9947 -0.0970
vn -0.2843 -0.7646 0.5783
vn -0.2944 -0.7547 0.5863
vn -0.3571 -0.6738 0.6469
vn -0.9036 0.0070 -0.4282
vn -0.0958 -0.9406 -0.3256
vn -0.8938 0.0156 -0.4482
vn -0.9076 0.0495 -0.4169
vn -0.9131 0.0075 -0.4076
vn -0.5238 0.1510 0.8383
vn -0.5238 0.1510 0.8383
vn -0.5238 0.1510 0.8383
vn -0.9012 0.0169 -0.4330
vn -0.3545 0.8690 0.3452
vn -0.3545 0.8690 0.3452
vn -0.3545 0.8690 0.3452
vn -0.3493 -0.5500 0.7586
vn -0.0406 -0.9906 -0.1308
vn -0.9078 0.0033 -0.4195
vn -0.3446 -0.5652 0.7495
vn -0.1031 0.9720 0.2112
vn -0.0935 0.9696 0.2263
vn -0.4712 0.0090 0.8820
vn -0.4199 0.0160 0.9074
vn -0.4717 0.0058 0.8818
vn -0.8923 0.0422 -0.4495
vn -0.3671 -0.5999 0.7109
vn 0.1115 -0.9531 -0.2814
vn 0.1304 -0.9493 -0.2859
vn 0.0441 -0.9541 -0.2963
vn -0.4547 -0.0338 0.8900
vn -0.0739 -0.9601 -0.2697
vn -0.0996 0.9701 0.2214
vn -0.0854 0.9758 0.2014
vn 0.1475 -0.9495 -0.2769
vn -0.3795 -0.6132 0.6927
vn -0.8734 -0.0814 -0.4801
vn -0.9086 0.0813 -0.4097
vn -0.1859 0.9427 0.2772
vn -0.1738 0.9220 0.3461
vn -0.1877 0.9265 0.3261
vn -0.9044 -0.0667 -0.4215
vn -0.9056 -0.0447 -0.4218
vn -0.5376 0.0451 0.8420
vn -0.1742 0.9307 0.3217
vn -0.5817 0.0319 0.8128
vn -0.0630 0.9726 0.2239
vn -0.9263 -0.1665 -0.3380
vn -0.7373 -0.1897 0.6484
vn -0.7373 -0.1897 0.6484
vn -0.7373 -0.1897 0.6484
vn -0.9448 -0.0374 -0.3255
vn -0.9585 -0.0373 -0.2826
vn -0.9422 -0.0467 -0.3318
vn -0.9041 0.2728 -0.3289
vn -0.9230 0.0868 -0.3749
vn 0.0272 -0.9620 -0.2716
vn -0.4630 -0.7311 0.5012
vn -0.4630 -0.7311 0.5012
vn -0.4630 -0.7311 0.5012
vn -0.8073 -0.1160 0.5786
vn -0.6084 -0.1446 0.7804
vn -0.7298 -0.1169 0.6736
vn -0.1726 0.9407 0.2921
vn -0.9425 0.0083 -0.3341
vn -0.9293 0.2353 -0.2846
vn -0.9140 -0.0884 0.3959
vn -0.8655 0.4602 -0.1980
vn -0.1893 0.9514 0.2427
vn -0.9449 -0.0369 -0.3254
vn -0.9393 -0.0423 -0.3404
vn -0.9342 -0.0496 -0.3532
vn -0.9452 -0.0221 -0.3258
vn -0.9461 -0.0339 -0.3220
vn 0.9997 -0.0010 0.0237
vn 1.0000 0.0046 -0.0004
vn 0.9998 -0.0033 0.0210
vn 0.9999 -0.0043 0.0137
vn 1.0000 0.0006 0.0086
vn 0.9991 0.0397 0.0139
vn 0.9980 0.0567 0.0275
vn 0.6333 0.1665 -0.7558
vn 0.6333 0.1665 -0.7558
vn 0.6333 0.1665 -0.7558
vn 0.9993 -0.0095 0.0375
vn 0.9999 -0.0042 0.0119
vn 0.9701 0.2308 0.0755
vn 0.9491 0.0643 -0.3083
vn 0.9491 0.0643 -0.3083
vn 0.9491 0.0643 -0.3083
vn 1.0000 0.0041 -0.0067
vn 1.0000 -0.0055 0.0018
vn 0.9990 -0.0325 0.0304
vn 0.7158 0.2162 0.6640
vn 0.7158 0.2162 0.6640
vn 0.7158 0.2162 0.6640
vn 0.9998 0.0136 0.0128
vn 0.4832 0.0609 -0.8734
vn 0.3023 0.1014 -0.9478
vn 0.4984 0.0569 -0.8651
vn 0.8520 -0.1044 -0.5130
vn 0.7999 -0.2758 -0.5330
vn 0.8688 -0.0098 -0.4951
vn 0.8782 0.1478 -0.4549
vn 0.3419 0.9391 0.0338
vn 0.3419 0.9391 0.0338
vn 0.3419 0.9391 0.0338
vn 0.9996 0.0171 0.0206
vn 0.0896 0.1142 -0.9894
vn -0.0094 0.0549 -0.9984
vn -0.8578 -0.5087 -0.0735
vn -0.8578 -0.5087 -0.0735
vn -0.8578 -0.5087 -0.0735
vn 0.8099 0.5810 0.0810
vn 0.8099 0.5810 0.0810
vn 0.8099 0.5810 0.0810
vn -0.0541 0.9872 0.1498
vn -0.0428 0.9891 0.1412
vn 0.0131 0.9980 0.0624
vn 0.9410 -0.0107 -0.3382
vn 0.9447 -0.0082 -0.3279
vn 0.9497 -0.0089 -0.3129
vn 0.9969 0.0055 -0.0786
vn 0.9984 0.0067 -0.0560
vn 0.7415 0.5690 -0.3555
vn 0.7415 0.5690 -0.3555
vn 0.7415 0.5690 -0.3555
vn 0.0149 0.0745 -0.9971
vn -0.0081 0.0951 -0.9954
vn -0.0027 0.1032 -0.9947
vn 0.1011 -0.5015 -0.8592
vn 0.0116 0.0247 -0.9996
vn 0.0137 0.0237 -0.9996
vn 0.0130 0.0241 -0.9996
vn 0.0081 0.0638 -0.9979
vn -0.0460 -0.1202 0.9917
vn -0.0460 -0.1202 0.9917
vn -0.0460 -0.1202 0.9917
vn 0.0688 -0.3006 -0.9513
vn 0.1336 -0.7666 -0.6280
vn -0.0336 -0.0465 -0.9984
vn -0.0037 -0.0081 -1.0000
vn 0.0410 -0.9987 -0.0290
vn 0.0248 -0.9995 -0.0184
vn 0.0491 -0.9982 -0.0344
vn -0.0067 0.7209 -0.6930
vn 0.0329 0.9423 -0.3332
vn 0.0309 0.9344 -0.3549
vn 0.0642 -0.9970 -0.0443
vn 0.0112 0.0249 -0.9996
vn -0.3875 0.1771 -0.9047
vn -0.3875 0.1771 -0.9047
vn -0.3875 0.1771 -0.9047
vn 0.0790 0.2379 0.9681
vn 0.0790 0.2379 0.9681
vn 0.0790 0.2379 0.9681
vn -0.0868 0.9805 0.1761
vn 0.0517 -0.0389 -0.9979
vn 0.0930 -0.0424 -0.9948
vn 0.5422 0.0137 -0.8401
vn 0.5475 0.0081 -0.8367
vn 0.5400 0.0160 -0.8415
vn 0.5497 0.0057 -0.8353
vn 0.9999 -0.0137 0.0047
vn 0.9998 0.0147 -0.0160
vn 1.0000 0.0033 -0.0066
vn 1.0000 -0.0063 0.0015
vn 0.9996 -0.0278 0.0098
vn 0.9996 0.0265 -0.0095
vn 0.0063 0.0117 -0.9999
vn 0.0126 0.0119 -0.9999
vn 0.0189 0.0165 -0.9997
vn -0.4235 0.1901 -0.8858
vn -0.4666 0.0753 -0.8813
vn 0.2400 -0.1245 0.9628
vn 0.4333 -0.1232 0.8928
vn 0.4462 -0.1238 0.8863
vn 0.2071 -0.1130 0.9718
vn 0.2539 -0.1223 0.9595
vn -0.4757 0.1757 -0.8619
vn 0.6132 0.0048 0.7899
vn 0.8989 0.0335 0.4369
vn 0.9034 0.0372 0.4271
vn 0.9080 0.0974 0.4074
vn 0.3464 0.1906 0.9185
vn 0.4135 0.1003 0.9050
vn 0.1792 0.3520 0.9187
vn 0.1835 0.3046 0.9346
vn 0.8818 -0.0206 0.4712
vn 0.8923 0.0878 0.4428
vn 0.8862 0.1765 0.4283
vn 0.8949 0.0701 0.4408
vn 0.0943 -0.9517 -0.2921
vn 0.1442 -0.9542 -0.2621
vn 0.2046 -0.9529 -0.2239
vn 0.9025 0.0677 0.4253
vn -0.0320 -0.9168 -0.3980
vn 0.1120 -0.9538 -0.2787
vn -0.1649 0.9406 0.2968
vn -0.1672 0.9412 0.2936
vn -0.1759 0.9367 0.3026
vn 0.8842 -0.3035 0.3551
vn 0.9165 0.0976 0.3878
vn 0.0940 -0.9534 -0.2866
vn 0.5563 -0.8302 -0.0370
vn 0.5563 -0.8302 -0.0370
vn 0.5563 -0.8302 -0.0370
vn -0.3730 0.8414 0.3911
vn -0.1816 0.9458 0.2693
vn 0.0908 -0.9520 -0.2923
vn 0.2923 -0.9032 -0.3144
vn 0.2495 -0.9208 -0.2997
vn -0.1896 0.9401 0.2831
vn 0.2427 -0.9234 -0.2974
vn -0.4369 0.7616 0.4786
vn -0.5005 -0.1256 0.8565
vn -0.5005 -0.1256 0.8565
vn -0.5005 -0.1256 0.8565
vn -0.1632 0.9420 0.2933
vn -0.5509 0.7589 0.3474
vn 0.9950 0.0977 0.0219
vn 0.9950 0.0977 0.0219
vn 0.9950 0.0977 0.0219
vn 1.0000 0.0029 0.0088
vn 1.0000 -0.0017 0.0080
vn 1.0000 0.0018 0.0071
vn 0.9995 0.0104 0.0282
vn 0.9994 0.0329 0.0055
vn 0.9996 0.0119 0.0267
vn -0.9672 -0.2339 0.0987
vn -0.9672 -0.2339 0.0987
vn -0.9672 -0.2339 0.0987
vn 0.9989 -0.0069 0.0456
vn 1.0000 -0.0037 0.0069
vn 0.9996 -0.0287 -0.0051
vn 0.9951 -0.0595 -0.0791
vn 0.0828 0.9865 0.1416
vn 0.0406 0.9805 0.1923
vn 0.0732 0.9819 0.1745
vn 0.0874 -0.0048 0.9962
vn 0.0900 -0.0012 0.9959
vn 0.0892 -0.0024 0.9960
vn 0.0697 0.9905 0.1186
vn 0.0373 0.9970 0.0674
vn 0.2528 -0.9195 -0.3009
vn 0.9997 0.0014 0.0259
vn -0.7036 0.1105 -0.7019
vn -0.6333 0.0659 -0.7711
vn -0.6319 0.0707 -0.7718
vn -0.1593 0.9806 0.1143
vn -0.1723 0.9773 0.1232
vn -0.8278 -0.0071 0.5610
vn -0.8394 0.0029 0.5434
vn -0.5767 0.0695 -0.8140
vn -0.5850 0.1028 -0.8045
vn -0.3960 0.8812 -0.2582
vn -0.6548 0.2302 -0.7199
vn -0.7193 0.2690 0.6405
vn -0.8272 0.2124 0.5203
vn -0.1197 0.7281 0.6750
vn -0.1197 0.7281 0.6750
vn -0.1197 0.7281 0.6750
vn -0.6813 0.3459 0.6452
vn -0.1482 0.9889 0.0043
vn -0.1482 0.9889 0.0043
vn -0.1482 0.9889 0.0043
vn 0.9994 0.0343 0.0065
vn 0.9994 0.0343 0.0065
vn 0.9994 0.0343 0.0065
vn 0.9997 0.0251 0.0037
vn 0.9999 0.0077 0.0074
vn 0.9999 0.0054 0.0099
vn 0.7176 -0.0445 0.6950
vn 0.7176 -0.0445 0.6950
vn 0.7176 -0.0445 0.6950
vn 0.9999 0.0145 0.0057
vn 0.9999 0.0020 0.0139
vn 0.7376 -0.6731 -0.0543
vn 0.7376 -0.6731 -0.0543
vn 0.7376 -0.6731 -0.0543
vn -0.9977 0.0374 0.0570
vn -0.9977 0.0374 0.0570
vn -0.9977 0.0374 0.0570
vn 0.9988 0.0487 -0.0060
vn 0.0795 -0.9942 0.0723
vn 0.0877 -0.9944 0.0588
vn 0.0722 -0.9938 0.0844
vn 0.0916 -0.6556 0.7495
vn 0.0916 -0.6556 0.7495
vn 0.0916 -0.6556 0.7495
vn -0.9300 -0.3415 -0.1361
vn -0.9300 -0.3415 -0.1361
vn -0.9300 -0.3415 -0.1361
vn 0.0260 -0.0521 0.9983
vn 0.0260 -0.0521 0.9983
vn 0.0260 -0.0521 0.9983
vn -0.5672 -0.1624 -0.8074
vn -0.5414 -0.1955 -0.8178
vn -0.5443 -0.1551 -0.8244
vn -0.5865 -0.1223 -0.8007
vn 0.2692 -0.7600 0.5916
vn 0.2692 -0.7600 0.5916
vn 0.2692 -0.7600 0.5916
vn -0.4169 -0.5488 0.7245
vn -0.4169 -0.5488 0.7245
vn -0.4169 -0.5488 0.7245
vn -0.7523 -0.3051 0.5840
vn -0.5405 -0.1322 -0.8309
vn 0.0053 0.9964 -0.0841
vn 0.0053 0.9964 -0.0841
vn 0.0053 0.9964 -0.0841
vn 0.0815 -0.9879 -0.1321
vn 0.0584 -0.9921 -0.1110
vn -0.1463 -0.7819 -0.6061
vn -0.1463 -0.7819 -0.6061
vn -0.1463 -0.7819 -0.6061
vn -0.7575 -0.3146 0.5721
vn -0.8452 -0.3296 0.4206
vn -0.9585 -0.2851 -0.0090
vn 0.0864 -0.9806 -0.1759
vn -0.4631 -0.1277 0.8770
vn -0.4525 -0.1279 0.8825
vn -0.4843 -0.1454 0.8628
vn -0.4196 -0.0971 0.9025
vn -0.4401 -0.1244 0.8893
vn -0.9429 -0.3215 0.0866
vn -0.9161 -0.2076 -0.3431
vn 0.1611 -0.9786 -0.1280
vn 0.0488 -0.9758 -0.2131
vn -0.4433 -0.1261 0.8875
vn 0.0809 -0.9847 -0.1542
vn -0.0815 -0.9958 0.0426
vn 0.1009 -0.9788 -0.1782
vn -0.2671 0.0174 -0.9635
vn -0.2266 0.0427 -0.9731
vn 0.3654 -0.2979 -0.8819
vn 0.3654 -0.2979 -0.8819
vn 0.3654 -0.2979 -0.8819
vn -0.4273 -0.1058 0.8979
vn 0.0281 -0.9755 -0.2183
vn 0.1720 -0.9494 -0.2629
vn -0.4664 -0.1140 -0.8772
vn 0.9995 -0.0321 0.0070
vn 0.9995 -0.0221 0.0224
vn 0.9994 -0.0336 0.0052
vn 0.9995 -0.0088 0.0305
vn 0.9994 -0.0038 0.0336
vn 0.9993 -0.0028 0.0365
vn 0.9996 -0.0183 0.0220
vn 0.9995 -0.0013 0.0307
vn 0.9998 -0.0074 0.0204
vn 0.9989 -0.0419 0.0199
vn 0.9994 -0.0183 -0.0279
vn 0.9860 0.0092 -0.1662
vn 0.9922 0.0087 -0.1246
vn 0.9995 -0.0095 -0.0297
vn 1.0000 -0.0096 0.0007
vn 0.9996 -0.0102 -0.0255
vn 0.9952 0.0058 0.0977
vn 0.9813 -0.0371 0.1890
vn 0.1685 0.0790 -0.9825
vn 0.1124 0.0203 -0.9935
vn 0.1165 0.0207 -0.9930
vn 0.0530 -0.0035 0.9986
vn 0.0936 -0.0219 0.9954
vn 0.0059 -0.0136 0.9999
vn 0.0480 0.0011 0.9988
vn -0.0034 -0.0124 0.9999
vn -0.4282 -0.0877 -0.8994
vn 0.0000 1.0000 0.0000
vn 0.0000 1.0000 0.0000
vn 0.0000 1.0000 0.0000
vn 0.0000 1.0000 0.0000
vn 0.0000 1.0000 0.0000
vn 0.0000 1.0000 0.0000
vn 0.0000 1.0000 0.0000
vn 0.0000 1.0000 0.0000
vn 0.0000 1.0000 0.0000
vn 0.0000 1.0000 0.0000
vn 0.0000 1.0000 0.0000
vn 0.0000 1.0000 0.0000
vn 0.0000 1.0000 0.0000
vn 0.0000 1.0000 0.0000
vn 0.0000 1.0000 0.0000
vn 0.0000 1.0000 0.0000
vn 0.0000 1.0000 0.0000
vn 0.0000 1.0000 0.0000
vn 0.0000 1.0000 0.0000
vn 0.0000 1.0000 0.0000
vn 0.0000 1.0000 0.0000
vn 0.0000 1.0000 0.0000
vn 0.0000 1.0000 0.0000
vn 0.0000 1.0000 0.0000
vn 0.0000 1.0000 0.0000
vn 0.0000 1.0000 0.0000
vn 0.0000 1.0000 0.0000
vn 0.0000 1.0000 0.0000
vn 0.0000 1.0000 0.0000
vn 0.0000 1.0000 0.0000
vn 0.0000 1.0000 0.0000
vn 0.0000 1.0000 0.0000
vn 0.0000 1.0000 0.0000
vn 0.0000 1.0000 0.0000
vn 0.0000 1.0000 0.0000
vn 0.0000 1.0000 0.0000
vn 0.0000 1.0000 0.0000
vn 0.0000 1.0000 0.0000
vn 0.0000 1.0000 0.0000
vn 0.0000 1.0000 0.0000
vn 0.0000 1.0000 0.0000
vn 0.0000 1.0000 0.0000
vn 0.0000 1.0000 0.0000
vn 0.0000 1.0000 0.0000
vn 0.0000 1.0000 0.0000
vn 0.0000 1.0000 0.0000
vn 0.0000 1.0000 0.0000
vn 0.0000 1.0000 0.0000
vn 0.0000 1.0000 0.0000
vn 0.0000 1.0000 0.0000
vn 0.0000 1.0000 0.0000
vn 0.0000 1.0000 0.0000
vn 0.0000 1.0000 0.0000
vn 0.0000 1.0000 0.0000
vn 0.0000 1.0000 0.0000
vn 0.0000 1.0000 0.0000
vn 0.0000 1.0000 0.0000
vn 0.0000 1.0000 0.0000
vn 0.0000 1.0000 0.0000
vn 0.0000 1.0000 0.0000
f 198/198/198 199/199/199 200/200/200
f 199/199/199 201/201/201 202/202/202
f 203/203/203 204/204/204 205/205/205
f 206/206/206 203/203/203 207/207/207
f 208/208/208 209/209/209 210/210/210
f 211/211/211 201/201/201 199/199/199
f 212/212/212 213/213/213 214/214/214
f 212/212/212 214/214/214 215/215/215
f 216/216/216 199/199/199 198/198/198
f 210/210/210 209/209/209 217/217/217
f 218/218/218 219/219/219 220/220/220
f 203/203/203 205/205/205 221/221/221
f 222/222/222 223/223/223 212/212/212
f 207/207/207 203/203/203 224/224/224
f 221/221/221 205/205/205 225/225/225
f 225/225/225 226/226/226 227/227/227
f 220/220/220 228/228/228 218/218/218
f 213/213/213 212/212/212 229/229/229
f 221/221/221 225/225/225 227/227/227
f 221/221/221 224/224/224 203/203/203
f 230/230/230 231/231/231 232/232/232
f 233/233/233 234/234/234 235/235/235
f 209/209/209 236/236/236 217/217/217
f 237/237/237 238/238/238 239/239/239
f 240/240/240 241/241/241 242/242/242
f 243/243/243 240/240/240 242/242/242
f 216/216/216 244/244/244 199/199/199
f 245/245/245 246/246/246 247/247/247
f 239/239/239 238/238/238 248/248/248
f 249/249/249 248/248/248 238/238/238
f 244/244/244 211/211/211 199/199/199
f 250/250/250 251/251/251 252/252/252
f 253/253/253 254/254/254 255/255/255
f 227/227/227 226/226/226 256/256/256
f 257/257/257 258/258/258 259/259/259
f 260/260/260 261/261/261 262/262/262
f 263/263/263 264/264/264 265/265/265
f 246/246/246 245/245/245 266/266/266
f 254/254/254 267/267/267 255/255/255
f 212/212/212 223/223/223 268/268/268
f 260/260/260 262/262/262 269/269/269
f 270/270/270 228/228/228 271/271/271
f 240/240/240 243/243/243 272/272/272
f 273/273/273 274/274/274 275/275/275
f 240/240/240 272/272/272 276/276/276
f 260/260/260 269/269/269 277/277/277
f 278/278/278 279/279/279 280/280/280
f 281/281/281 220/220/220 282/282/282
f 212/212/212 268/268/268 229/229/229
f 271/271/271 228/228/228 220/220/220
f 255/255/255 267/267/267 283/283/283
f 269/269/269 284/284/284 277/277/277
f 1/1/1 2/2/2 3/3/3
f 276/276/276 272/272/272 285/285/285
f 4/4/4 5/5/5 6/6/6
f 236/236/236 286/286/286 217/217/217
f 275/275/275 287/287/287 273/273/273
f 7/7/7 8/8/8 9/9/9
f 288/288/288 243/243/243 289/289/289
f 290/290/290 291/291/291 292/292/292
f 293/293/293 294/294/294 295/295/295
f 255/255/255 283/283/283 296/296/296
f 10/10/10 11/11/11 12/12/12
f 13/13/13 14/14/14 15/15/15
f 288/288/288 272/272/272 243/243/243
f 285/285/285 297/297/297 276/276/276
f 298/298/298 299/299/299 300/300/300
f 301/301/301 271/271/271 220/220/220
f 269/269/269 302/302/302 284/284/284
f 303/303/303 304/304/304 305/305/305
f 306/306/306 294/294/294 307/307/307
f 16/16/16 17/17/17 18/18/18
f 306/306/306 295/295/295 294/294/294
f 308/308/308 295/295/295 309/309/309
f 305/305/305 310/310/310 311/311/311
f 229/229/229 268/268/268 312/312/312
f 313/313/313 277/277/277 284/284/284
f 19/19/19 194/194/194 20/20/20
f 21/21/21 15/15/15 14/14/14
f 8/8/8 22/22/22 9/9/9
f 296/296/296 283/283/283 314/314/314
f 12/12/12 11/11/11 23/23/23
f 306/306/306 309/309/309 295/295/295
f 315/315/315 316/316/316 317/317/317
f 317/317/317 316/316/316 318/318/318
f 24/24/24 25/25/25 4/4/4
f 301/301/301 220/220/220 319/319/319
f 320/320/320 321/321/321 229/229/229
f 281/281/281 282/282/282 322/322/322
f 4/4/4 25/25/25 5/5/5
f 317/317/317 318/318/318 323/323/323
f 317/317/317 323/323/323 324/324/324
f 26/26/26 27/27/27 28/28/28
f 244/244/244 325/325/325 326/326/326
f 286/286/286 236/236/236 327/327/327
f 229/229/229 312/312/312 328/328/328
f 314/314/314 329/329/329 296/296/296
f 29/29/29 23/23/23 30/30/30
f 23/23/23 11/11/11 30/30/30
f 24/24/24 31/31/31 25/25/25
f 330/330/330 331/331/331 332/332/332
f 333/333/333 309/309/309 306/306/306
f 328/328/328 320/320/320 229/229/229
f 284/284/284 302/302/302 334/334/334
f 312/312/312 268/268/268 335/335/335
f 303/303/303 305/305/305 336/336/336
f 32/32/32 5/5/5 25/25/25
f 33/33/33 34/34/34 35/35/35
f 319/319/319 220/220/220 337/337/337
f 36/36/36 25/25/25 31/31/31
f 37/37/37 38/38/38 39/39/39
f 281/281/281 338/338/338 337/337/337
f 337/337/337 220/220/220 281/281/281
f 39/39/39 21/21/21 14/14/14
f 33/33/33 35/35/35 40/40/40
f 244/244/244 326/326/326 339/339/339
f 41/41/41 25/25/25 36/36/36
f 340/340/340 244/244/244 339/339/339
f 244/244/244 340/340/340 211/211/211
f 341/341/341 342/342/342 343/343/343
f 344/344/344 251/251/251 250/250/250
f 211/211/211 340/340/340 345/345/345
f 324/324/324 323/323/323 346/346/346
f 338/338/338 347/347/347 337/337/337
f 37/37/37 42/42/42 38/38/38
f 348/348/348 349/349/349 350/350/350
f 43/43/43 25/25/25 41/41/41
f 351/351/351 352/352/352 353/353/353
f 43/43/43 41/41/41 44/44/44
f 45/45/45 46/46/46 47/47/47
f 48/48/48 42/42/42 37/37/37
f 49/49/49 195/195/195 50/50/50
f 47/47/47 46/46/46 51/51/51
f 52/52/52 53/53/53 54/54/54
f 354/354/354 355/355/355 356/356/356
f 357/357/357 358/358/358 359/359/359
f 55/55/55 56/56/56 57/57/57
f 296/296/296 329/329/329 360/360/360
f 9/9/9 22/22/22 58/58/58
f 59/59/59 60/60/60 50/50/50
f 236/236/236 361/361/361 327/327/327
f 345/345/345 362/362/362 211/211/211
f 350/350/350 355/355/355 348/348/348
f 306/306/306 363/363/363 333/333/333
f 50/50/50 61/61/61 49/49/49
f 359/359/359 358/358/358 349/349/349
f 299/299/299 364/364/364 365/365/365
f 366/366/366 367/367/367 368/368/368
f 14/14/14 62/62/62 39/39/39
f 250/250/250 369/369/369 344/344/344
f 55/55/55 57/57/57 63/63/63
f 370/370/370 336/336/336 305/305/305
f 335/335/335 371/371/371 312/312/312
f 348/348/348 355/355/355 372/372/372
f 305/305/305 311/311/311 370/370/370
f 365/365/365 300/300/300 299/299/299
f 52/52/52 64/64/64 53/53/53
f 359/359/359 373/373/373 357/357/357
f 296/296/296 360/360/360 374/374/374
f 375/375/375 376/376/376 377/377/377
f 25/25/25 43/43/43 65/65/65
f 61/61/61 50/50/50 60/60/60
f 374/374/374 360/360/360 378/378/378
f 379/379/379 359/359/359 380/380/380
f 381/381/381 382/382/382 383/383/383
f 338/338/338 384/384/384 347/347/347
f 359/359/359 385/385/385 380/380/380
f 344/344/344 386/386/386 251/251/251
f 355/355/355 354/354/354 372/372/372
f 387/387/387 380/380/380 385/385/385
f 385/385/385 388/388/388 387/387/387
f 45/45/45 66/66/66 46/46/46
f 342/342/342 389/389/389 343/343/343
f 359/359/359 349/349/349 348/348/348
f 385/385/385 390/390/390 388/388/388
f 67/67/67 68/68/68 69/69/69
f 338/338/338 391/391/391 384/384/384
f 392/392/392 390/390/390 393/393/393
f 394/394/394 385/385/385 359/359/359
f 374/374/374 378/378/378 395/395/395
f 384/384/384 391/391/391 396/396/396
f 386/386/386 397/397/397 251/251/251
f 393/393/393 390/390/390 385/385/385
f 398/398/398 370/370/370 311/311/311
f 389/389/389 399/399/399 343/343/343
f 398/398/398 311/311/311 400/400/400
f 70/70/70 66/66/66 71/71/71
f 66/66/66 70/70/70 46/46/46
f 72/72/72 39/39/39 62/62/62
f 401/401/401 402/402/402 403/403/403
f 404/404/404 405/405/405 406/406/406
f 43/43/43 73/73/73 65/65/65
f 392/392/392 393/393/393 407/407/407
f 74/74/74 73/73/73 43/43/43
f 389/389/389 408/408/408 399/399/399
f 409/409/409 402/402/402 401/401/401
f 410/410/410 411/411/411 412/412/412
f 413/413/413 414/414/414 415/415/415
f 359/359/359 348/348/348 394/394/394
f 412/412/412 416/416/416 410/410/410
f 449/449/449 450/450/450 451/451/451
f 417/417/417 418/418/418 324/324/324
f 67/67/67 75/75/75 76/76/76
f 451/451/451 450/450/450 452/452/452
f 446/446/446 419/419/419 447/447/447
f 420/420/420 385/385/385 394/394/394
f 410/410/410 365/365/365 364/364/364
f 67/67/67 77/77/77 75/75/75
f 78/78/78 79/79/79 80/80/80
f 393/393/393 385/385/385 420/420/420
f 411/411/411 410/410/410 364/364/364
f 409/409/409 421/421/421 402/402/402
f 453/453/453 454/454/454 455/455/455
f 71/71/71 81/81/81 70/70/70
f 422/422/422 421/421/421 409/409/409
f 423/423/423 424/424/424 425/425/425
f 80/80/80 82/82/82 78/78/78
f 346/346/346 417/417/417 324/324/324
f 83/83/83 84/84/84 85/85/85
f 77/77/77 67/67/67 69/69/69
f 422/422/422 426/426/426 421/421/421
f 86/86/86 87/87/87 88/88/88
f 58/58/58 22/22/22 89/89/89
f 427/427/427 428/428/428 415/415/415
f 456/456/456 457/457/457 458/458/458
f 420/420/420 429/429/429 430/430/430
f 431/431/431 426/426/426 422/422/422
f 432/432/432 433/433/433 434/434/434
f 84/84/84 83/83/83 90/90/90
f 67/67/67 76/76/76 91/91/91
f 459/459/459 460/460/460 461/461/461
f 393/393/393 420/420/420 430/430/430
f 454/454/454 462/462/462 455/455/455
f 92/92/92 93/93/93 94/94/94
f 95/95/95 96/96/96 97/97/97
f 412/412/412 411/411/411 435/435/435
f 436/436/436 448/448/448 437/437/437
f 458/458/458 457/457/457 463/463/463
f 448/448/448 438/438/438 437/437/437
f 420/420/420 439/439/439 429/429/429
f 464/464/464 459/459/459 461/461/461
f 98/98/98 99/99/99 100/100/100
f 93/93/93 92/92/92 101/101/101
f 440/440/440 441/441/441 426/426/426
f 102/102/102 95/95/95 97/97/97
f 103/103/103 104/104/104 105/105/105
f 59/59/59 83/83/83 85/85/85
f 106/106/106 39/39/39 72/72/72
f 465/465/465 466/466/466 459/459/459
f 90/90/90 107/107/107 108/108/108
f 109/109/109 110/110/110 111/111/111
f 442/442/442 443/443/443 418/418/418
f 112/112/112 101/101/101 113/113/113
f 433/433/433 432/432/432 414/414/414
f 113/113/113 101/101/101 92/92/92
f 442/442/442 418/418/418 417/417/417
f 49/49/49 61/61/61 114/114/114
f 444/444/444 432/432/432 434/434/434
f 464/464/464 465/465/465 459/459/459
f 115/115/115 116/116/116 117/117/117
f 427/427/427 415/415/415 414/414/414
f 414/414/414 432/432/432 427/427/427
f 106/106/106 37/37/37 39/39/39
f 118/118/118 119/119/119 120/120/120
f 112/112/112 113/113/113 121/121/121
f 444/444/444 427/427/427 432/432/432
f 114/114/114 61/61/61 60/60/60
f 122/122/122 121/121/121 113/113/113
f 122/122/122 113/113/113 123/123/123
f 444/444/444 445/445/445 427/427/427
f 92/92/92 124/124/124 125/125/125
f 126/126/126 82/82/82 80/80/80
f 466/466/466 465/465/465 467/467/467
f 127/127/127 128/128/128 196/196/196
f 129/129/129 130/130/130 131/131/131
f 132/132/132 109/109/109 111/111/111
f 133/133/133 114/114/114 60/60/60
f 111/111/111 134/134/134 132/132/132
f 114/114/114 133/133/133 135/135/135
f 108/108/108 84/84/84 90/90/90
f 136/136/136 113/113/113 125/125/125
f 113/113/113 92/92/92 125/125/125
f 137/137/137 48/48/48 138/138/138
f 96/96/96 139/139/139 140/140/140
f 141/141/141 142/142/142 143/143/143
f 144/144/144 145/145/145 146/146/146
f 48/48/48 37/37/37 138/138/138
f 96/96/96 140/140/140 97/97/97
f 136/136/136 147/147/147 123/123/123
f 457/457/457 468/468/468 463/463/463
f 60/60/60 85/85/85 133/133/133
f 469/469/469 463/463/463 468/468/468
f 470/470/470 471/471/471 472/472/472
f 123/123/123 113/113/113 136/136/136
f 467/467/467 465/465/465 473/473/473
f 119/119/119 148/148/148 120/120/120
f 60/60/60 59/59/59 85/85/85
f 149/149/149 126/126/126 80/80/80
f 474/474/474 469/469/469 468/468/468
f 147/147/147 136/136/136 150/150/150
f 475/475/475 467/467/467 473/473/473
f 97/97/97 140/140/140 151/151/151
f 152/152/152 85/85/85 84/84/84
f 476/476/476 473/473/473 465/465/465
f 477/477/477 475/475/475 473/473/473
f 153/153/153 84/84/84 108/108/108
f 154/154/154 155/155/155 156/156/156
f 84/84/84 153/153/153 152/152/152
f 157/157/157 158/158/158 159/159/159
f 160/160/160 161/161/161 150/150/150
f 85/85/85 152/152/152 162/162/162
f 163/163/163 197/197/197 164/164/164
f 165/165/165 166/166/166 167/167/167
f 490/490/490 491/491/491 492/492/492
f 197/197/197 168/168/168 169/169/169
f 488/488/488 478/478/478 479/479/479
f 152/152/152 170/170/170 162/162/162
f 171/171/171 172/172/172 173/173/173
f 174/174/174 170/170/170 152/152/152
f 133/133/133 85/85/85 162/162/162
f 175/175/175 176/176/176 177/177/177
f 160/160/160 150/150/150 136/136/136
f 140/140/140 139/139/139 178/178/178
f 490/490/490 493/493/493 491/491/491
f 169/169/169 179/179/179 197/197/197
f 180/180/180 173/173/173 172/172/172
f 480/480/480 481/481/481 489/489/489
f 178/178/178 181/181/181 140/140/140
f 179/179/179 169/169/169 182/182/182
f 494/494/494 495/495/495 496/496/496
f 497/497/497 491/491/491 493/493/493
f 482/482/482 489/489/489 481/481/481
f 168/168/168 197/197/197 163/163/163
f 498/498/498 491/491/491 499/499/499
f 183/183/183 184/184/184 168/168/168
f 185/185/185 186/186/186 187/187/187
f 481/481/481 480/480/480 483/483/483
f 183/183/183 168/168/168 163/163/163
f 499/499/499 491/491/491 500/500/500
f 501/501/501 502/502/502 496/496/496
f 188/188/188 189/189/189 190/190/190
f 497/497/497 503/503/503 491/491/491
f 185/185/185 190/190/190 189/189/189
f 504/504/504 505/505/505 689/689/689
f 189/189/189 186/186/186 185/185/185
f 484/484/484 474/474/474 468/468/468
f 500/500/500 491/491/491 506/506/506
f 191/191/191 190/190/190 185/185/185
f 507/507/507 500/500/500 506/506/506
f 491/491/491 503/503/503 506/506/506
f 501/501/501 508/508/508 509/509/509
f 501/501/501 509/509/509 502/502/502
f 510/510/510 511/511/511 512/512/512
f 513/513/513 506/506/506 503/503/503
f 506/506/506 514/514/514 515/515/515
f 485/485/485 486/486/486 487/487/487
f 516/516/516 507/507/507 506/506/506
f 184/184/184 183/183/183 192/192/192
f 512/512/512 517/517/517 518/518/518
f 496/496/496 495/495/495 501/501/501
f 190/190/190 191/191/191 193/193/193
f 518/518/518 517/517/517 519/519/519
f 512/512/512 511/511/511 517/517/517
f 506/506/506 513/513/513 514/514/514
f 516/516/516 506/506/506 520/520/520
f 707/707/707 708/708/708 709/709/709
f 521/521/521 518/518/518 519/519/519
f 520/520/520 506/506/506 515/515/515
f 509/509/509 508/508/508 522/522/522
f 523/523/523 524/524/524 510/510/510
f 707/707/707 710/710/710 708/708/708
f 707/707/707 711/711/711 710/710/710
f 710/710/710 711/711/711 713/713/713
f 525/525/525 526/526/526 527/527/527
f 528/528/528 529/529/529 530/530/530
f 531/531/531 522/522/522 532/532/532
f 518/518/518 521/521/521 533/533/533
f 714/714/714 715/715/715 716/716/716
f 717/717/717 713/713/713 711/711/711
f 717/717/717 718/718/718 713/713/713
f 717/717/717 719/719/719 720/720/720
f 715/715/715 714/714/714 721/721/721
f 722/722/722 723/723/723 724/724/724
f 717/717/717 720/720/720 718/718/718
f 725/725/725 726/726/726 727/727/727
f 706/706/706 705/705/705 712/712/712
f 534/534/534 535/535/535 536/536/536
f 525/525/525 527/527/527 537/537/537
f 522/522/522 508/508/508 532/532/532
f 518/518/518 538/538/538 523/523/523
f 539/539/539 540/540/540 541/541/541
f 542/542/542 543/543/543 544/544/544
f 539/539/539 527/527/527 540/540/540
f 722/722/722 715/715/715 721/721/721
f 728/728/728 716/716/716 715/715/715
f 527/527/527 539/539/539 545/545/545
f 546/546/546 547/547/547 548/548/548
f 729/729/729 725/725/725 727/727/727
f 726/726/726 725/725/725 730/730/730
f 731/731/731 732/732/732 733/733/733
f 545/545/545 537/537/537 527/527/527
f 535/535/535 549/549/549 536/536/536
f 722/722/722 724/724/724 734/734/734
f 518/518/518 533/533/533 550/550/550
f 829/829/829 830/830/830 831/831/831
f 512/512/512 523/523/523 510/510/510
f 832/832/832 829/829/829 831/831/831
f 539/539/539 541/541/541 551/551/551
f 779/779/779 780/780/780 781/781/781
f 735/735/735 728/728/728 715/715/715
f 549/549/549 552/552/552 536/536/536
f 523/523/523 512/512/512 518/518/518
f 553/553/553 532/532/532 508/508/508
f 725/725/725 736/736/736 730/730/730
f 734/734/734 715/715/715 722/722/722
f 737/737/737 738/738/738 739/739/739
f 740/740/740 741/741/741 732/732/732
f 501/501/501 554/554/554 508/508/508
f 833/833/833 834/834/834 835/835/835
f 555/555/555 556/556/556 557/557/557
f 545/545/545 539/539/539 558/558/558
f 549/549/549 559/559/559 552/552/552
f 560/560/560 561/561/561 562/562/562
f 729/729/729 742/742/742 725/725/725
f 836/836/836 837/837/837 838/838/838
f 557/557/557 556/556/556 563/563/563
f 518/518/518 550/550/550 564/564/564
f 565/565/565 566/566/566 508/508/508
f 565/565/565 508/508/508 554/554/554
f 743/743/743 744/744/744 777/777/777
f 560/560/560 567/567/567 561/561/561
f 831/831/831 830/830/830 840/840/840
f 508/508/508 566/566/566 553/553/553
f 552/552/552 559/559/559 568/568/568
f 841/841/841 842/842/842 843/843/843
f 558/558/558 569/569/569 570/570/570
f 846/846/846 847/847/847 848/848/848
f 571/571/571 572/572/572 573/573/573
f 558/558/558 539/539/539 569/569/569
f 538/538/538 518/518/518 564/564/564
f 574/574/574 539/539/539 551/551/551
f 731/731/731 740/740/740 732/732/732
f 575/575/575 569/569/569 539/539/539
f 556/556/556 576/576/576 563/563/563
f 571/571/571 577/577/577 572/572/572
f 556/556/556 578/578/578 576/576/576
f 574/574/574 575/575/575 539/539/539
f 553/553/553 566/566/566 579/579/579
f 740/740/740 745/745/745 741/741/741
f 781/781/781 786/786/786 787/787/787
f 783/783/783 782/782/782 788/788/788
f 574/574/574 580/580/580 575/575/575
f 581/581/581 582/582/582 583/583/583
f 584/584/584 585/585/585 586/586/586
f 849/849/849 850/850/850 839/839/839
f 587/587/587 570/570/570 588/588/588
f 849/849/849 851/851/851 850/850/850
f 567/567/567 560/560/560 589/589/589
f 852/852/852 845/845/845 844/844/844
f 590/590/590 591/591/591 592/592/592
f 569/569/569 588/588/588 570/570/570
f 777/777/777 744/744/744 746/746/746
f 853/853/853 854/854/854 855/855/855
f 593/593/593 594/594/594 595/595/595
f 553/553/553 579/579/579 596/596/596
f 787/787/787 786/786/786 789/789/789
f 576/576/576 578/578/578 595/595/595
f 569/569/569 575/575/575 588/588/588
f 595/595/595 578/578/578 593/593/593
f 584/584/584 597/597/597 598/598/598
f 593/593/593 578/578/578 599/599/599
f 785/785/785 790/790/790 784/784/784
f 600/600/600 598/598/598 597/597/597
f 854/854/854 856/856/856 857/857/857
f 856/856/856 854/854/854 853/853/853
f 851/851/851 858/858/858 850/850/850
f 790/790/790 785/785/785 791/791/791
f 786/786/786 781/781/781 780/780/780
f 577/577/577 571/571/571 601/601/601
f 792/792/792 793/793/793 794/794/794
f 586/586/586 602/602/602 603/603/603
f 851/851/851 859/859/859 858/858/858
f 745/745/745 740/740/740 747/747/747
f 852/852/852 860/860/860 861/861/861
f 857/857/857 856/856/856 862/862/862
f 784/784/784 790/790/790 795/795/795
f 863/863/863 864/864/864 865/865/865
f 901/901/901 866/866/866 867/867/867
f 748/748/748 749/749/749 750/750/750
f 604/604/604 602/602/602 586/586/586
f 852/852/852 844/844/844 860/860/860
f 584/584/584 586/586/586 603/603/603
f 605/605/605 606/606/606 584/584/584
f 751/751/751 740/740/740 731/731/731
f 868/868/868 869/869/869 870/870/870
f 871/871/871 857/857/857 862/862/862
f 791/791/791 795/795/795 790/790/790
f 584/584/584 606/606/606 597/597/597
f 860/860/860 872/872/872 861/861/861
f 873/873/873 863/863/863 865/865/865
f 866/866/866 901/901/901 874/874/874
f 740/740/740 752/752/752 747/747/747
f 796/796/796 797/797/797 798/798/798
f 607/607/607 608/608/608 609/609/609
f 608/608/608 607/607/607 610/610/610
f 608/608/608 610/610/610 611/611/611
f 610/610/610 612/612/612 613/613/613
f 614/614/614 615/615/615 616/616/616
f 692/692/692 693/693/693 694/694/694
f 605/605/605 584/584/584 603/603/603
f 617/617/617 611/611/611 618/618/618
f 611/611/611 610/610/610 613/613/613
f 608/608/608 611/611/611 617/617/617
f 693/693/693 692/692/692 695/695/695
f 612/612/612 619/619/619 613/613/613
f 620/620/620 621/621/621 622/622/622
f 611/611/611 623/623/623 618/618/618
f 618/618/618 624/624/624 625/625/625
f 623/623/623 624/624/624 618/618/618
f 696/696/696 697/697/697 698/698/698
f 626/626/626 627/627/627 628/628/628
f 696/696/696 699/699/699 700/700/700
f 629/629/629 623/623/623 611/611/611
f 630/630/630 631/631/631 632/632/632
f 633/633/633 634/634/634 635/635/635
f 701/701/701 699/699/699 696/696/696
f 696/696/696 698/698/698 701/701/701
f 635/635/635 636/636/636 633/633/633
f 604/604/604 603/603/603 602/602/602
f 637/637/637 638/638/638 639/639/639
f 640/640/640 629/629/629 611/611/611
f 753/753/753 754/754/754 755/755/755
f 756/756/756 757/757/757 758/758/758
f 759/759/759 760/760/760 761/761/761
f 762/762/762 763/763/763 764/764/764
f 875/875/875 876/876/876 877/877/877
f 878/878/878 879/879/879 880/880/880
f 881/881/881 882/882/882 878/878/878
f 878/878/878 882/882/882 883/883/883
f 881/881/881 878/878/878 876/876/876
f 876/876/876 875/875/875 881/881/881
f 761/761/761 765/765/765 759/759/759
f 778/778/778 756/756/756 758/758/758
f 879/879/879 878/878/878 883/883/883
f 631/631/631 641/641/641 642/642/642
f 643/643/643 644/644/644 645/645/645
f 646/646/646 647/647/647 648/648/648
f 766/766/766 778/778/778 758/758/758
f 799/799/799 800/800/800 801/801/801
f 767/767/767 778/778/778 766/766/766
f 802/802/802 803/803/803 804/804/804
f 805/805/805 806/806/806 807/807/807
f 766/766/766 768/768/768 767/767/767
f 884/884/884 885/885/885 886/886/886
f 802/802/802 804/804/804 808/808/808
f 885/885/885 887/887/887 886/886/886
f 804/804/804 803/803/803 809/809/809
f 888/888/888 887/887/887 885/885/885
f 885/885/885 884/884/884 889/889/889
f 890/890/890 888/888/888 885/885/885
f 810/810/810 811/811/811 812/812/812
f 891/891/891 889/889/889 884/884/884
f 813/813/813 814/814/814 815/815/815
f 891/891/891 884/884/884 892/892/892
f 631/631/631 630/630/630 641/641/641
f 649/649/649 650/650/650 651/651/651
f 808/808/808 816/816/816 802/802/802
f 893/893/893 894/894/894 895/895/895
f 817/817/817 818/818/818 819/819/819
f 652/652/652 653/653/653 654/654/654
f 654/654/654 653/653/653 655/655/655
f 654/654/654 655/655/655 656/656/656
f 657/657/657 658/658/658 659/659/659
f 896/896/896 897/897/897 898/898/898
f 660/660/660 661/661/661 662/662/662
f 663/663/663 690/690/690 691/691/691
f 820/820/820 821/821/821 822/822/822
f 664/664/664 665/665/665 666/666/666
f 769/769/769 770/770/770 771/771/771
f 823/823/823 824/824/824 825/825/825
f 668/668/668 669/669/669 670/670/670
f 899/899/899 897/897/897 896/896/896
f 900/900/900 896/896/896 898/898/898
f 671/671/671 663/663/663 672/672/672
f 772/772/772 773/773/773 774/774/774
f 660/660/660 667/667/667 661/661/661
f 642/642/642 673/673/673 674/674/674
f 675/675/675 676/676/676 677/677/677
f 826/826/826 827/827/827 828/828/828
f 678/678/678 679/679/679 680/680/680
f 681/681/681 675/675/675 677/677/677
f 664/664/664 666/666/666 682/682/682
f 683/683/683 684/684/684 685/685/685
f 686/686/686 687/687/687 688/688/688
f 775/775/775 776/776/776 769/769/769
f 704/704/704 702/702/702 703/703/703
f 431/431/431 440/440/440 426/426/426
f 902/902/902 903/903/903 904/904/904
f 902/902/902 904/904/904 903/903/903
f 902/902/902 904/904/904 905/905/905
f 902/902/902 905/905/905 904/904/904
f 902/902/902 905/905/905 906/906/906
f 902/902/902 906/906/906 905/905/905
f 902/902/902 906/906/906 903/903/903
f 902/902/902 903/903/903 906/906/906
f 907/907/907 908/908/908 909/909/909
f 907/907/907 909/909/909 908/908/908
f 907/907/907 909/909/909 910/910/910
f 907/907/907 910/910/910 909/909/909
f 907/907/907 910/910/910 911/911/911
f 907/907/907 911/911/911 910/910/910
f 907/907/907 911/911/911 912/912/912
f 907/907/907 912/912/912 911/911/911
f 907/907/907 912/912/912 913/913/913
f 907/907/907 913/913/913 912/912/912
f 907/907/907 913/913/913 914/914/914
f 907/907/907 914/914/914 913/913/913
f 907/907/907 914/914/914 915/915/915
f 907/907/907 915/915/915 914/914/914
f 907/907/907 915/915/915 916/916/916
f 907/907/907 916/916/916 915/915/915
f 907/907/907 916/916/916 917/917/917
f 907/907/907 917/917/917 916/916/916
f 907/907/907 917/917/917 918/918/918
f 907/907/907 918/918/918 917/917/917
f 907/907/907 918/918/918 919/919/919
f 907/907/907 919/919/919 918/918/918
f 907/907/907 919/919/919 920/920/920
f 907/907/907 920/920/920 919/919/919
f 907/907/907 920/920/920 921/921/921
f 907/907/907 921/921/921 920/920/920
f 907/907/907 921/921/921 922/922/922
f 907/907/907 922/922/922 921/921/921
f 907/907/907 922/922/922 923/923/923
f 907/907/907 923/923/923 922/922/922
f 907/907/907 923/923/923 924/924/924
f 907/907/907 924/924/924 923/923/923
f 907/907/907 924/924/924 925/925/925
f 907/907/907 925/925/925 924/924/924
f 907/907/907 925/925/925 908/908/908
f 907/907/907 908/908/908 925/925/925
f 926/926/926 927/927/927 928/928/928
f 926/926/926 928/928/928 927/927/927
f 926/926/926 928/928/928 929/929/929
f 926/926/926 929/929/929 928/928/928
f 926/926/926 929/929/929 930/930/930
f 926/926/926 930/930/930 929/929/929
f 926/926/926 930/930/930 931/931/931
f 926/926/926 931/931/931 930/930/930
f 926/926/926 931/931/931 932/932/932
f 926/926/926 932/932/932 931/931/931
f 926/926/926 932/932/932 933/933/933
f 926/926/926 933/933/933 932/932/932
f 926/926/926 933/933/933 934/934/934
f 926/926/926 934/934/934 933/933/933
f 926/926/926 934/934/934 935/935/935
f 926/926/926 935/935/935 934/934/934
f 926/926/926 935/935/935 936/936/936
f 926/926/926 936/936/936 935/935/935
f 926/926/926 936/936/936 937/937/937
f 926/926/926 937/937/937 936/936/936
f 926/926/926 937/937/937 938/938/938
f 926/926/926 938/938/938 937/937/937
f 926/926/926 938/938/938 939/939/939
f 926/926/926 939/939/939 938/938/938
f 926/926/926 939/939/939 940/940/940
f 926/926/926 940/940/940 939/939/939
f 926/926/926 940/940/940 927/927/927
f 926/926/926 927/927/927 940/940/940
f 941/941/941 942/942/942 943/943/943
f 941/941/941 943/943/943 942/942/942
f 941/941/941 943/943/943 944/944/944
f 941/941/941 944/944/944 943/943/943
f 941/941/941 944/944/944 945/945/945
f 941/941/941 945/945/945 944/944/944
f 941/941/941 945/945/945 946/946/946
f 941/941/941 946/946/946 945/945/945
f 941/941/941 946/946/946 947/947/947
f 941/941/941 947/947/947 946/946/946
f 941/941/941 947/947/947 948/948/948
f 941/941/941 948/948/948 947/947/947
f 941/941/941 948/948/948 949/949/949
f 941/941/941 949/949/949 948/948/948
f 941/941/941 949/949/949 950/950/950
f 941/941/941 950/950/950 949/949/949
f 941/941/941 950/950/950 951/951/951
f 941/941/941 951/951/951 950/950/950
f 941/941/941 951/951/951 952/952/952
f 941/941/941 952/952/952 951/951/951
f 941/941/941 952/952/952 953/953/953
f 941/941/941 953/953/953 952/952/952
f 941/941/941 953/953/953 954/954/954
f 941/941/941 954/954/954 953/953/953
f 941/941/941 954/954/954 955/955/955
f 941/941/941 955/955/955 954/954/954
f 941/941/941 955/955/955 956/956/956
f 941/941/941 956/956/956 955/955/955
f 941/941/941 956/956/956 957/957/957
f 941/941/941 957/957/957 956/956/956
f 941/941/941 957/957/957 942/942/942
f 941/941/941 942/942/942 957/957/957
f 958/958/958 959/959/959 960/960/960
f 958/958/958 960/960/960 959/959/959
f 958/958/958 960/960/960 961/961/961
f 958/958/958 961/961/961 960/960/960
f 958/958/958 961/961/961 959/959/959
f 958/958/958 959/959/959 961/961/961
