o arm_left
v -0.24142 1.59942 0.11003
v -0.22369 1.54368 0.10630
v -0.24324 1.46577 -0.03273
v -0.24000 1.55306 0.11000
v -0.24241 1.55740 0.11001
v -0.27233 1.60082 0.06201
v -0.24000 1.55306 0.11000
v -0.24241 1.55740 0.11001
v -0.25363 1.55093 0.09811
v -0.27757 1.53066 0.09881
v -0.25888 1.59843 0.09225
v -0.24142 1.59942 0.11003
v -0.25363 1.55093 0.09811
v -0.26282 1.54394 0.10066
v -0.24000 1.55306 0.11000
v -0.25494 1.55642 -0.02143
v -0.25371 1.55215 -0.01823
v -0.25592 1.46342 0.10119
v -0.25379 1.55219 0.02965
v -0.27224 1.60094 0.01397
v -0.25371 1.55214 0.01048
v -0.25345 1.55268 0.06387
v -0.25379 1.55219 0.02965
v -0.25746 1.55029 0.06209
v -0.26148 1.54878 0.06669
v -0.27757 1.53066 0.09881
v -0.25686 1.59938 -0.01937
v -0.25765 1.60731 0.01482
v -0.26658 1.65207 0.02318
v -0.25371 1.55214 0.01048
v -0.26508 1.54499 0.06995
v -0.26463 1.54517 0.03959
v -0.25951 1.54955 0.00912
v -0.26907 1.59037 0.06907
v -0.25345 1.55268 0.06387
v -0.25363 1.55093 0.09811
v -0.25943 1.54903 0.01424
v -0.26434 1.60610 0.02423
v -0.25679 1.54903 -0.03060
v -0.25943 1.54903 0.01424
v -0.25951 1.54955 0.00912
v -0.26207 1.56054 0.01092
v -0.25746 1.55029 0.06209
v -0.26463 1.54517 0.03959
v -0.26398 1.56362 0.06492
v -0.25746 1.55029 0.06209
v -0.26398 1.56362 0.06492
v -0.26148 1.54878 0.06669
v -0.25765 1.60731 0.01482
v -0.26823 1.60160 0.00515
v -0.27224 1.60094 0.01397
v -0.26434 1.60610 0.02423
v -0.26658 1.54488 0.02739
v -0.27224 1.60094 0.01397
v -0.26977 1.54473 0.03251
v -0.26823 1.60160 0.00515
v -0.27763 1.53389 -0.02707
v -0.28123 1.53564 -0.00803
v -0.26207 1.56054 0.01092
v -0.25951 1.54955 0.00912
v -0.27118 1.58204 0.00933
v -0.26893 1.57843 0.01212
v -0.27694 1.46334 -0.02894
v -0.26658 1.54488 0.02739
v -0.26977 1.54473 0.03251
v -0.27189 1.55788 0.03648
v -0.26977 1.54473 0.03251
v -0.26893 1.57843 0.01212
v -0.27757 1.53066 0.09881
v -0.27233 1.60082 0.06201
v -0.27487 1.58957 0.01096
v -0.27410 1.58758 0.06613
v -0.29415 1.58058 0.07663
v -0.26977 1.54473 0.03251
v -0.27686 1.55995 0.03555
v -0.27189 1.55788 0.03648
v -0.27837 1.53059 -0.02830
v -0.25679 1.54903 -0.03060
v -0.27837 1.53059 -0.02830
v -0.27763 1.53389 -0.02707
v -0.27410 1.58758 0.06613
v -0.27686 1.55995 0.03555
v -0.28664 1.58397 0.03501
v -0.27487 1.58957 0.01096
v -0.28516 1.53405 0.08178
v -0.28406 1.53563 0.07805
v -0.28230 1.56788 0.03729
v -0.28035 1.57807 0.03906
v -0.28081 1.58796 0.02202
v -0.28294 1.58621 0.04088
v -0.28035 1.57807 0.03906
v -0.26508 1.54499 0.06995
v -0.27410 1.58758 0.06613
v -0.28294 1.58621 0.04088
v -0.28651 1.58807 0.04429
v -0.28230 1.56788 0.03729
v -0.29330 1.57937 -0.00462
v -0.27487 1.58957 0.01096
v -0.28562 1.53375 -0.01218
v -0.28123 1.53564 -0.00803
v -0.28919 1.56602 -0.00585
v -0.27837 1.53059 -0.02830
v -0.27694 1.46334 -0.02894
v -0.28562 1.53375 -0.01218
v -0.27763 1.53389 -0.02707
v -0.27410 1.58758 0.06613
v -0.28651 1.58807 0.04429
v -0.28918 1.59886 0.04612
v -0.28659 1.58583 0.04122
v -0.28294 1.58621 0.04088
v -0.29031 1.58748 0.03279
v -0.28819 1.53516 -0.00038
v -0.29496 1.46270 0.00304
v -0.28230 1.56788 0.03729
v -0.28387 1.56395 0.03859
v -0.28659 1.58583 0.04122
v -0.28294 1.58621 0.04088
v -0.28659 1.58583 0.04122
v -0.28651 1.58807 0.04429
v -0.29599 1.58347 -0.00202
v -0.28762 1.62095 0.01143
v -0.28406 1.53563 0.07805
v -0.28123 1.53564 -0.00803
v -0.28819 1.53516 -0.00038
v -0.28919 1.56602 -0.00585
v -0.28230 1.56788 0.03729
v -0.28664 1.58397 0.03501
v -0.28387 1.56395 0.03859
v -0.28669 1.53630 0.07721
v -0.28452 1.53990 0.03811
v -0.29865 1.53460 0.02665
v -0.29024 1.53622 0.03964
v -0.27757 1.53066 0.09881
v -0.28516 1.53405 0.08178
v -0.29294 1.46269 0.07015
v -0.28452 1.53990 0.03811
v -0.28387 1.56395 0.03859
v -0.29865 1.53460 0.02665
v -0.28826 1.62036 0.06705
v -0.30515 1.61285 0.07613
v -0.27487 1.58957 0.01096
v -0.28762 1.62095 0.01143
v -0.29946 1.61944 0.02732
v -0.27487 1.58957 0.01096
v -0.29455 1.62020 0.05015
v -0.30739 1.57813 0.05130
v -0.29707 1.53381 0.00706
v -0.29082 1.58402 0.03519
v -0.29707 1.53381 0.00706
v -0.29031 1.58748 0.03279
v -0.29031 1.58748 0.03279
v -0.28826 1.62036 0.06705
v -0.30739 1.57813 0.05130
v -0.28669 1.53630 0.07721
v -0.30584 1.53213 0.04931
v -0.28651 1.58807 0.04429
v -0.30739 1.57813 0.05130
v -0.28918 1.59886 0.04612
v -0.29415 1.58058 0.07663
v -0.28669 1.53630 0.07721
v -0.28406 1.53563 0.07805
v -0.28762 1.62095 0.01143
v -0.30303 1.61380 0.00011
v -0.30257 1.61499 0.00164
v -0.30303 1.61380 0.00011
v -0.29082 1.58402 0.03519
v -0.29967 1.61504 0.02887
v -0.28826 1.62036 0.06705
v -0.29455 1.62020 0.05015
v -0.29753 1.62107 0.05186
v -0.30039 1.53626 0.04785
v -0.29024 1.53622 0.03964
v -0.29911 1.53523 0.04503
v -0.28452 1.53990 0.03811
v -0.29082 1.58402 0.03519
v -0.29753 1.62107 0.05186
v -0.30515 1.61285 0.07613
v -0.28826 1.62036 0.06705
v -0.30232 1.53378 0.01941
v -0.30145 1.53316 0.01304
v -0.29911 1.53523 0.04503
v -0.29330 1.57937 -0.00462
v -0.31445 1.61128 0.01711
v -0.30933 1.57551 0.01911
v -0.31324 1.61230 0.05812
v -0.30365 1.61748 0.05287
v -0.29455 1.62020 0.05015
v -0.29753 1.62107 0.05186
v -0.30227 1.59645 0.07556
v -0.30739 1.57813 0.05130
v -0.28669 1.53630 0.07721
v -0.30232 1.53378 0.01941
v -0.29967 1.61504 0.02887
v -0.30515 1.61285 0.07613
v -0.30227 1.59645 0.07556
v -0.29911 1.53523 0.04503
v -0.30584 1.53213 0.04931
v -0.30039 1.53626 0.04785
v -0.29946 1.61944 0.02732
v -0.30584 1.53213 0.04931
v -0.30039 1.53626 0.04785
v -0.31509 1.61118 0.01501
v -0.29946 1.61944 0.02732
v -0.28762 1.62095 0.01143
v -0.29911 1.53523 0.04503
v -0.30039 1.53626 0.04785
v -0.30739 1.57813 0.05130
v -0.29707 1.53381 0.00706
v -0.30516 1.53155 0.01647
v -0.30257 1.61499 0.00164
v -0.30303 1.61380 0.00011
v -0.30718 1.55718 0.01972
v -0.30232 1.53378 0.01941
v -0.30516 1.53155 0.01647
v -0.30718 1.55718 0.01972
v -0.30955 1.57600 0.01610
v -0.30613 1.46354 0.04939
v -0.30584 1.53213 0.04931
v -0.30516 1.53155 0.01647
v -0.30365 1.61748 0.05287
v -0.31324 1.61230 0.05812
v -0.30515 1.61285 0.07613
v -0.31324 1.61230 0.05812
v -0.30933 1.57551 0.01911
v -0.29599 1.58347 -0.00202
v -0.31509 1.61118 0.01501
v -0.30303 1.61380 0.00011
v -0.31445 1.61128 0.01711
v -0.31509 1.61118 0.01501
v -0.31445 1.61128 0.01711
v -0.24685 1.60780 -0.00018
v -0.19517 1.38064 0.05406
v -0.22648 1.42753 -0.01120
v -0.21262 1.33098 0.05399
v -0.22574 1.46445 0.09607
v -0.16111 1.48197 0.05202
v -0.19517 1.38064 0.05406
v -0.27398 1.26971 0.08746
v -0.21262 1.33098 0.05399
v -0.22392 1.29817 0.05505
v -0.22648 1.42753 -0.01120
v -0.22459 1.46540 -0.00648
v -0.22392 1.29817 0.05505
v -0.28071 1.27656 -0.01121
v -0.22574 1.46445 0.09607
v -0.22500 1.49669 0.10381
v -0.22595 1.46569 0.10302
v -0.22830 1.46589 0.10483
v -0.22595 1.46569 0.10302
v -0.22500 1.49669 0.10381
v -0.24815 1.43160 0.10378
v -0.24506 1.23964 0.05606
v -0.22589 1.46544 -0.03183
v -0.23667 1.46397 0.00037
v -0.22574 1.46445 0.09607
v -0.22595 1.46569 0.10302
v -0.23790 1.46379 0.10371
v -0.22830 1.46589 0.10483
v -0.23667 1.46397 0.00037
v -0.23790 1.46379 0.10371
v -0.24476 1.44323 0.10378
v -0.26969 1.36178 0.10514
v -0.22830 1.46589 0.10483
v -0.22369 1.54368 0.10630
v -0.25592 1.46342 0.10119
v -0.23790 1.46379 0.10371
v -0.24249 1.46390 0.09764
v -0.24476 1.44323 0.10378
v -0.23790 1.46379 0.10371
v -0.25160 1.46204 0.00946
v -0.30356 1.26940 0.10843
v -0.25086 1.35513 -0.01129
v -0.24506 1.23964 0.05606
v -0.25564 1.24232 0.06387
v -0.24518 1.23878 0.05401
v -0.24815 1.43160 0.10378
v -0.23790 1.46379 0.10371
v -0.25592 1.46342 0.10119
v -0.24249 1.46390 0.09764
v -0.27259 1.25108 0.07980
v -0.24506 1.23964 0.05606
v -0.25564 1.24232 0.06387
v -0.24518 1.23878 0.05401
v -0.25535 1.24373 0.04589
v -0.24506 1.23964 0.05606
v -0.25535 1.24373 0.04589
v -0.24518 1.23878 0.05401
v -0.25492 1.24235 0.04888
v -0.25645 1.46205 0.07770
v -0.27896 1.46259 0.09502
v -0.28900 1.46137 0.03104
v -0.25535 1.24373 0.04589
v -0.25492 1.24235 0.04888
v -0.26365 1.21598 0.04576
v -0.25160 1.46204 0.00946
v -0.25564 1.24232 0.06387
v -0.26820 1.24741 0.07082
v -0.26723 1.26845 0.08086
v -0.24506 1.23964 0.05606
v -0.26450 1.25367 0.03244
v -0.24506 1.23964 0.05606
v -0.26450 1.25367 0.03244
v -0.28071 1.27656 -0.01121
v -0.28900 1.46137 0.03104
v -0.27694 1.46334 -0.02894
v -0.24324 1.46577 -0.03273
v -0.27757 1.53066 0.09881
v -0.27754 1.46368 0.09879
v -0.26969 1.36178 0.10514
v -0.27097 1.25973 0.02384
v -0.27259 1.25108 0.07980
v -0.27398 1.26971 0.08746
v -0.26978 1.26734 0.08603
v -0.26723 1.26845 0.08086
v -0.27682 1.26423 0.01676
v -0.26978 1.26734 0.08603
v -0.27457 1.24890 0.08249
v -0.25086 1.35513 -0.01129
v -0.30367 1.41003 0.03087
v -0.28071 1.27656 -0.01121
v -0.27169 1.26528 0.00712
v -0.28131 1.27393 -0.00924
v -0.27754 1.46368 0.09879
v -0.28538 1.25669 0.08937
v -0.26978 1.26734 0.08603
v -0.30623 1.40778 0.03278
v -0.29294 1.46269 0.07015
v -0.27169 1.26528 0.00712
v -0.28645 1.27107 0.01056
v -0.28131 1.27393 -0.00924
v -0.28071 1.27656 -0.01121
v -0.27682 1.26423 0.01676
v -0.27169 1.26528 0.00712
v -0.27682 1.26423 0.01676
v -0.27757 1.53066 0.09881
v -0.27896 1.46259 0.09502
v -0.27754 1.46368 0.09879
v -0.28645 1.27107 0.01056
v -0.27682 1.26423 0.01676
v -0.28304 1.26838 0.01002
v -0.25645 1.46205 0.07770
v -0.29496 1.46270 0.00304
v -0.29666 1.43567 0.03343
v -0.28900 1.46137 0.03104
v -0.29294 1.46269 0.07015
v -0.29892 1.46133 0.01271
v -0.33482 1.32368 0.03298
v -0.30124 1.46339 0.05796
v -0.30124 1.46339 0.05796
v -0.30584 1.53213 0.04931
v -0.30518 1.46298 0.01668
v -0.30367 1.41003 0.03087
v -0.29666 1.43567 0.03343
v -0.28900 1.46137 0.03104
v -0.30512 1.46184 0.03947
v -0.30613 1.46354 0.04939
v -0.30516 1.53155 0.01647
v -0.29496 1.46270 0.00304
v -0.30518 1.46298 0.01668
v -0.29666 1.43567 0.03343
v -0.30623 1.40778 0.03278
v -0.33482 1.32368 0.03298
v -0.30613 1.46354 0.04939
v -0.34546 1.28979 0.03289
v -0.30613 1.46354 0.04939
v -0.30518 1.46298 0.01668
v -0.30512 1.46184 0.03947
v -0.30516 1.53155 0.01647
v -0.30356 1.26940 0.10843
v -0.32735 1.30795 0.05532
v -0.28071 1.27656 -0.01121
v -0.25592 1.46342 0.10119
v -0.27398 1.26971 0.08746
v -0.29294 1.46269 0.07015
v -0.25492 1.24235 0.04888
v -0.26477 1.21446 0.04693
v -0.26365 1.21598 0.04576
v -0.26820 1.24741 0.07082
v -0.26702 1.19677 0.04000
v -0.26708 1.19811 0.03703
v -0.27013 1.20126 0.05152
v -0.26477 1.21446 0.04693
v -0.27443 1.20764 0.04888
v -0.26365 1.21598 0.04576
v -0.26365 1.21598 0.04576
v -0.27682 1.26423 0.01676
v -0.27097 1.25973 0.02384
v -0.28285 1.21819 0.07137
v -0.27259 1.25108 0.07980
v -0.29536 1.23493 0.00557
v -0.27443 1.20764 0.04888
v -0.27944 1.21191 0.06221
v -0.27443 1.20764 0.04888
v -0.27944 1.21191 0.06221
v -0.27947 1.21863 0.03095
v -0.27568 1.20573 0.06940
v -0.31383 1.17273 0.08180
v -0.27013 1.20126 0.05152
v -0.27568 1.20573 0.06940
v -0.26978 1.26734 0.08603
v -0.28538 1.25669 0.08937
v -0.27457 1.24890 0.08249
v -0.28044 1.21299 0.08819
v -0.26450 1.25367 0.03244
v -0.28045 1.21974 0.02434
v -0.26702 1.19677 0.04000
v -0.27947 1.21863 0.03095
v -0.27457 1.24890 0.08249
v -0.28044 1.21299 0.08819
v -0.26365 1.21598 0.04576
v -0.27947 1.21863 0.03095
v -0.28045 1.21974 0.02434
v -0.28583 1.22032 0.08096
v -0.29279 1.22581 0.08532
v -0.28583 1.22032 0.08096
v -0.27944 1.21191 0.06221
v -0.32122 1.13599 0.03251
v -0.26708 1.19811 0.03703
v -0.26702 1.19677 0.04000
v -0.28304 1.26838 0.01002
v -0.29536 1.23493 0.00557
v -0.28645 1.27107 0.01056
v -0.28304 1.26838 0.01002
v -0.28045 1.21974 0.02434
v -0.28583 1.22032 0.08096
v -0.29279 1.22581 0.08532
v -0.31177 1.23953 0.10822
v -0.30718 1.23806 0.09452
v -0.30356 1.26940 0.10843
v -0.27398 1.26971 0.08746
v -0.28071 1.27656 -0.01121
v -0.28131 1.27393 -0.00924
v -0.32477 1.28304 0.01929
v -0.32122 1.13599 0.03251
v -0.29920 1.23964 0.00657
v -0.29536 1.23493 0.00557
v -0.28045 1.21974 0.02434
v -0.30780 1.21388 0.01086
v -0.28645 1.27107 0.01056
v -0.29920 1.23964 0.00657
v -0.29946 1.24210 0.00944
v -0.30718 1.23806 0.09452
v -0.30430 1.26766 0.10738
v -0.28131 1.27393 -0.00924
v -0.28645 1.27107 0.01056
v -0.32477 1.28304 0.01929
v -0.31006 1.24025 0.10617
v -0.31177 1.23953 0.10822
v -0.30718 1.23806 0.09452
v -0.30780 1.21388 0.01086
v -0.30048 1.26298 0.09745
v -0.28538 1.25669 0.08937
v -0.30430 1.26766 0.10738
v -0.29920 1.23964 0.00657
v -0.30505 1.24943 0.00111
v -0.29946 1.24210 0.00944
v -0.26708 1.19811 0.03703
v -0.30048 1.26298 0.09745
v -0.29946 1.24210 0.00944
v -0.30874 1.25002 0.01705
v -0.28645 1.27107 0.01056
v -0.29946 1.24210 0.00944
v -0.30505 1.24943 0.00111
v -0.30874 1.25002 0.01705
v -0.30599 1.27659 0.02074
v -0.30599 1.27659 0.02074
v -0.30430 1.26766 0.10738
v -0.30870 1.27139 0.09823
v -0.30048 1.26298 0.09745
v -0.30430 1.26766 0.10738
v -0.30356 1.26940 0.10843
v -0.30870 1.27139 0.09823
v -0.30557 1.26633 0.09425
v -0.30972 1.25914 0.09176
v -0.30048 1.26298 0.09745
v -0.30557 1.26633 0.09425
v -0.30356 1.26940 0.10843
v -0.32735 1.30795 0.05532
v -0.31900 1.28719 0.07976
v -0.31190 1.24250 0.09605
v -0.31830 1.28323 0.08725
v -0.31280 1.27248 0.09712
v -0.30356 1.26940 0.10843
v -0.30505 1.24943 0.00111
v -0.29920 1.23964 0.00657
v -0.31280 1.27248 0.09712
v -0.31580 1.27866 0.02355
v -0.30557 1.26633 0.09425
v -0.31280 1.27248 0.09712
v -0.30972 1.25914 0.09176
v -0.31485 1.23451 0.10842
v -0.28044 1.21299 0.08819
v -0.31177 1.23953 0.10822
v -0.30718 1.23806 0.09452
v -0.31190 1.24250 0.09605
v -0.31006 1.24025 0.10617
v -0.30356 1.26940 0.10843
v -0.31280 1.27248 0.09712
v -0.30870 1.27139 0.09823
v -0.31815 1.28008 0.02283
v -0.30356 1.26940 0.10843
v -0.31900 1.28719 0.07976
v -0.31830 1.28323 0.08725
v -0.36236 1.15609 0.09052
v -0.31383 1.17273 0.08180
v -0.31190 1.24250 0.09605
v -0.31956 1.26063 0.02078
v -0.31478 1.24688 0.09124
v -0.31956 1.26063 0.02078
v -0.31580 1.27866 0.02355
v -0.31785 1.24688 0.09374
v -0.32280 1.25406 0.09454
v -0.31478 1.24688 0.09124
v -0.31006 1.24025 0.10617
v -0.31190 1.24250 0.09605
v -0.31177 1.23953 0.10822
v -0.31190 1.24250 0.09605
v -0.31478 1.24688 0.09124
v -0.31177 1.23953 0.10822
v -0.31785 1.24688 0.09374
v -0.31280 1.27248 0.09712
v -0.32280 1.25406 0.09454
v -0.31478 1.24688 0.09124
v -0.31785 1.24688 0.09374
v -0.31177 1.23953 0.10822
v -0.31922 1.27868 0.02633
v -0.31922 1.27868 0.02633
v -0.31785 1.24688 0.09374
v -0.32512 1.24374 0.09399
v -0.31177 1.23953 0.10822
v -0.32512 1.24374 0.09399
v -0.34872 1.19756 0.10439
v -0.32416 1.26556 0.02418
v -0.32416 1.26556 0.02418
v -0.32122 1.13599 0.03251
v -0.39396 1.15230 -0.00992
v -0.34192 1.14263 0.07927
v -0.31922 1.27868 0.02633
v -0.32642 1.28040 0.03836
v -0.31815 1.28008 0.02283
v -0.32969 1.12617 0.03189
v -0.32642 1.28040 0.03836
v -0.31922 1.27868 0.02633
v -0.32416 1.26556 0.02418
v -0.33236 1.13696 0.05085
v -0.32969 1.12617 0.03189
v -0.33128 1.21706 0.10631
v -0.32416 1.26556 0.02418
v -0.30505 1.24943 0.00111
v -0.32819 1.26648 0.02534
v -0.33523 1.29576 0.06253
v -0.34546 1.28979 0.03289
v -0.34072 1.22445 0.09355
v -0.31485 1.23451 0.10842
v -0.32642 1.28040 0.03836
v -0.33798 1.28219 0.04991
v -0.35023 1.10360 0.02982
v -0.33229 1.29633 0.05811
v -0.32951 1.26972 0.03628
v -0.32951 1.26972 0.03628
v -0.35281 1.19640 -0.00511
v -0.33128 1.21706 0.10631
v -0.33229 1.29633 0.05811
v -0.33226 1.27150 0.04072
v -0.33949 1.23143 0.09415
v -0.34192 1.14263 0.07927
v -0.33985 1.27614 0.03904
v -0.33236 1.13696 0.05085
v -0.34192 1.14263 0.07927
v -0.33588 1.13856 0.05133
v -0.33226 1.27150 0.04072
v -0.32819 1.26648 0.02534
v -0.30505 1.24943 0.00111
v -0.35852 1.26624 0.04368
v -0.34072 1.22445 0.09355
v -0.34834 1.26619 0.06112
v -0.33949 1.23143 0.09415
v -0.33836 1.27557 0.05268
v -0.33649 1.27967 0.05093
v -0.33482 1.32368 0.03298
v -0.33649 1.27967 0.05093
v -0.33798 1.28219 0.04991
v -0.32642 1.28040 0.03836
v -0.33229 1.29633 0.05811
v -0.33713 1.29511 0.06017
v -0.33523 1.29576 0.06253
v -0.33523 1.29576 0.06253
v -0.33713 1.29511 0.06017
v -0.34502 1.28742 0.03420
v -0.33649 1.27967 0.05093
v -0.33604 1.28275 0.05504
v -0.33798 1.28219 0.04991
v -0.33649 1.27967 0.05093
v -0.33790 1.27300 0.05451
v -0.33604 1.28275 0.05504
v -0.33649 1.27967 0.05093
v -0.33836 1.27557 0.05268
v -0.33790 1.27300 0.05451
v -0.33604 1.28275 0.05504
v -0.33713 1.29511 0.06017
v -0.33229 1.29633 0.05811
v -0.34318 1.28749 0.04335
v -0.34318 1.28749 0.04335
v -0.33604 1.28275 0.05504
v -0.33836 1.27557 0.05268
v -0.35023 1.10360 0.02982
v -0.33790 1.27300 0.05451
v -0.34506 1.26575 0.05556
v -0.34872 1.19756 0.10439
v -0.34626 1.29146 0.03565
v -0.33236 1.13696 0.05085
v -0.33588 1.13856 0.05133
v -0.35283 1.11853 0.05010
v -0.34478 1.28019 0.04566
v -0.34546 1.28979 0.03289
v -0.34626 1.29146 0.03565
v -0.33482 1.32368 0.03298
v -0.34478 1.28019 0.04566
v -0.34502 1.28742 0.03420
v -0.35386 1.20679 0.09392
v -0.34502 1.28742 0.03420
v -0.34506 1.26575 0.05556
v -0.36925 1.11853 0.04050
v -0.33588 1.13856 0.05133
v -0.34667 1.13989 0.04299
v -0.33985 1.27614 0.03904
v -0.35283 1.11853 0.05010
v -0.34834 1.26619 0.06112
v -0.34546 1.28979 0.03289
v -0.34626 1.29146 0.03565
v -0.34478 1.28019 0.04566
v -0.35295 1.14338 0.06843
v -0.35488 1.20987 0.09318
v -0.35691 1.11021 0.04796
v -0.34667 1.13989 0.04299
v -0.35852 1.26624 0.04368
v -0.35386 1.20679 0.09392
v -0.35944 1.14480 0.05145
v -0.38742 1.21479 0.05681
v -0.36020 1.15393 0.08673
v -0.36047 1.24830 0.05446
v -0.34667 1.13989 0.04299
v -0.35944 1.14480 0.05145
v -0.36925 1.11853 0.04050
v -0.36236 1.15609 0.09052
v -0.38742 1.21479 0.05681
v -0.35488 1.20987 0.09318
v -0.38742 1.21479 0.05681
v -0.43244 1.18479 0.03385
v -0.36925 1.10210 0.04876
v -0.36823 1.17600 0.10229
v -0.36823 1.17600 0.10229
v -0.36020 1.15393 0.08673
v -0.36270 1.15403 0.08788
v -0.36823 1.15551 0.07967
v -0.36020 1.15393 0.08673
v -0.36270 1.15403 0.08788
v -0.36925 1.10210 0.04876
v -0.36525 1.08784 0.02741
v -0.36823 1.15551 0.07967
v -0.36525 1.08784 0.02741
v -0.35023 1.10360 0.02982
v -0.37981 1.07084 0.02744
v -0.38157 1.16163 0.10048
v -0.35281 1.19640 -0.00511
v -0.38157 1.16163 0.10048
v -0.38742 1.21479 0.05681
v -0.35386 1.20679 0.09392
v -0.35488 1.20987 0.09318
v -0.37746 1.11031 0.03973
v -0.37981 1.07084 0.02744
v -0.37830 1.15617 0.06938
v -0.38197 1.22355 0.05332
v -0.37746 1.11031 0.03973
v -0.39396 1.15230 -0.00992
v -0.38830 1.08108 0.04735
v -0.36270 1.15403 0.08788
v -0.38277 1.13283 0.08584
v -0.36823 1.15551 0.07967
v -0.38888 1.14634 0.06838
v -0.37830 1.15617 0.06938
v -0.38978 1.09697 0.03840
v -0.38277 1.13283 0.08584
v -0.40791 1.13265 0.09769
v -0.37830 1.15617 0.06938
v -0.38888 1.14634 0.06838
v -0.40791 1.13265 0.09769
v -0.38978 1.09697 0.03840
v -0.40443 1.11058 0.08552
v -0.40669 1.09528 0.04620
v -0.41239 1.10113 0.05210
v -0.40876 1.12622 0.06479
v -0.40876 1.12622 0.06479
v -0.38277 1.13283 0.08584
v -0.40443 1.11058 0.08552
v -0.41484 1.09945 0.08213
v -0.43244 1.18479 0.03385
v -0.42852 1.09739 0.07043
v -0.44255 1.17373 0.03338
v -0.45595 1.08199 -0.01743
v -0.44255 1.17373 0.03338
v -0.28538 1.25669 0.08937
v -0.35691 1.11021 0.04796
v -0.36925 1.10210 0.04876
v -0.38978 1.09697 0.03840
v -0.38830 1.08108 0.04735
v -0.39755 1.05126 0.02369
v -0.36525 1.08784 0.02741
v -0.37981 1.07084 0.02744
v -0.45595 1.08199 -0.01743
v -0.39396 1.15230 -0.00992
v -0.36525 1.08784 0.02741
v -0.38830 1.08108 0.04735
v -0.40472 1.06208 0.04526
v -0.35691 1.11021 0.04796
v -0.37981 1.07084 0.02744
v -0.40327 1.08568 0.03634
v -0.40472 1.06208 0.04526
v -0.40669 1.09528 0.04620
v -0.40327 1.08568 0.03634
v -0.38978 1.09697 0.03840
v -0.40472 1.06208 0.04526
v -0.40327 1.08568 0.03634
v -0.40669 1.09528 0.04620
v -0.41162 1.08568 0.06298
v -0.41239 1.10113 0.05210
v -0.41387 1.07609 0.06573
v -0.41865 1.03426 0.06232
v -0.40443 1.11058 0.08552
v -0.44315 1.09389 0.09334
v -0.42631 1.08819 0.08330
v -0.40791 1.13265 0.09769
v -0.41484 1.09945 0.08213
v -0.40443 1.11058 0.08552
v -0.42631 1.08819 0.08330
v -0.40876 1.12622 0.06479
v -0.42852 1.09739 0.07043
v -0.42579 1.10836 0.06213
v -0.38277 1.13283 0.08584
v -0.41484 1.09945 0.08213
v -0.42579 1.10836 0.06213
v -0.41239 1.10113 0.05210
v -0.40876 1.12622 0.06479
v -0.43249 1.08445 0.07686
v -0.42852 1.09739 0.07043
v -0.43561 1.07837 0.08134
v -0.43593 1.04559 0.08358
v -0.42579 1.10836 0.06213
v -0.43561 1.07837 0.08134
v -0.43561 1.07837 0.08134
v -0.43561 1.07837 0.08134
v -0.44315 1.09389 0.09334
v -0.40791 1.13265 0.09769
v -0.44255 1.17373 0.03338
v -0.45936 1.07460 0.09144
v -0.43593 1.04559 0.08358
v -0.43593 1.04559 0.08358
v -0.45936 1.07460 0.09144
v -0.46252 1.04736 0.06876
v -0.45936 1.07460 0.09144
v -0.48914 1.12168 0.02737
v -0.42852 1.09739 0.07043
v -0.24400 1.52720 0.03114
v -0.22648 1.42753 -0.01120
v -0.19517 1.38064 0.05406
v -0.27398 1.26971 0.08746
v -0.16111 1.48197 0.05202
v -0.22574 1.46445 0.09607
v -0.22500 1.49669 0.10381
v -0.22830 1.46589 0.10483
v -0.22369 1.54368 0.10630
v -0.24000 1.55306 0.11000
v -0.24142 1.59942 0.11003
v -0.25888 1.59843 0.09225
v -0.27233 1.60082 0.06201
v -0.26434 1.60610 0.02423
v -0.26658 1.65207 0.02318
v -0.25765 1.60731 0.01482
v -0.24685 1.60780 -0.00018
v -0.26823 1.60160 0.00515
v -0.25686 1.59938 -0.01937
v -0.27224 1.60094 0.01397
v -0.25494 1.55642 -0.02143
v -0.25371 1.55214 0.01048
v -0.25371 1.55215 -0.01823
v -0.27763 1.53389 -0.02707
v -0.25679 1.54903 -0.03060
v -0.24324 1.46577 -0.03273
v -0.22589 1.46544 -0.03183
v -0.23667 1.46397 0.00037
v -0.22459 1.46540 -0.00648
v -0.42711 1.07728 0.04491
v -0.39755 1.05126 0.02369
v -0.36525 1.08784 0.02741
v -0.45595 1.08199 -0.01743
v -0.44255 1.17373 0.03338
v -0.48914 1.12168 0.02737
v -0.45936 1.07460 0.09144
v -0.46252 1.04736 0.06876
v -0.43593 1.04559 0.08358
v -0.41865 1.03426 0.06232
v -0.41387 1.07609 0.06573
v -0.40472 1.06208 0.04526
v -0.37981 1.07084 0.02744
vt 0.38877 0.68044
vt 0.36984 0.63644
vt 0.50166 0.11146
vt 0.36471 0.65265
vt 0.36560 0.65596
vt 0.59694 0.36577
vt 0.42127 0.29180
vt 0.42476 0.29157
vt 0.42542 0.30397
vt 0.33160 0.66394
vt 0.45825 0.29508
vt 0.45157 0.27878
vt 0.13013 0.60600
vt 0.13836 0.60745
vt 0.12175 0.61576
vt 0.45822 0.38272
vt 0.12471 0.52396
vt 0.29789 0.65063
vt 0.44278 0.34995
vt 0.48116 0.34754
vt 0.44745 0.36267
vt 0.12810 0.58186
vt 0.12697 0.55771
vt 0.13131 0.58040
vt 0.13451 0.58349
vt 0.15243 0.60706
vt 0.80493 0.53442
vt 0.88660 0.06246
vt 0.90097 0.03300
vt 0.12609 0.54420
vt 0.13827 0.58568
vt 0.13652 0.56415
vt 0.13050 0.54293
vt 0.46035 0.31374
vt 0.43461 0.32720
vt 0.42517 0.30490
vt 0.13085 0.54655
vt 0.87988 0.05776
vt 0.48026 0.16710
vt 0.88338 0.35414
vt 0.88701 0.35426
vt 0.88631 0.36230
vt 0.87118 0.89185
vt 0.87559 0.90833
vt 0.86051 0.89213
vt 0.77285 0.41585
vt 0.77100 0.42636
vt 0.76841 0.41597
vt 0.58569 0.33225
vt 0.59426 0.32552
vt 0.59694 0.33184
vt 0.59026 0.33906
vt 0.13727 0.55545
vt 0.82128 0.55459
vt 0.13979 0.55889
vt 0.81639 0.54977
vt 0.14539 0.51603
vt 0.14783 0.52956
vt 0.16748 0.14279
vt 0.17552 0.14349
vt 0.15127 0.14602
vt 0.15395 0.14363
vt 0.52319 0.12210
vt 0.87242 0.35360
vt 0.86824 0.35446
vt 0.86595 0.91267
vt 0.87560 0.91452
vt 0.88604 0.37586
vt 0.15232 0.60564
vt 0.46934 0.31573
vt 0.14524 0.14573
vt 0.77028 0.44474
vt 0.75356 0.44540
vt 0.85877 0.91991
vt 0.84672 0.92025
vt 0.84928 0.91737
vt 0.50007 0.16362
vt 0.69983 0.04343
vt 0.69983 0.02331
vt 0.70159 0.02514
vt 0.84230 0.89473
vt 0.86640 0.36638
vt 0.86720 0.38471
vt 0.88653 0.38480
vt 0.15511 0.59255
vt 0.15370 0.58994
vt 0.83992 0.92145
vt 0.83371 0.91735
vt 0.87762 0.38554
vt 0.84427 0.91355
vt 0.85043 0.91387
vt 0.76434 0.41442
vt 0.71046 0.00967
vt 0.72938 0.00967
vt 0.72788 0.01308
vt 0.86476 0.37308
vt 0.14972 0.16453
vt 0.14525 0.14657
vt 0.15110 0.52652
vt 0.18186 0.16444
vt 0.15962 0.16433
vt 0.78951 0.68439
vt 0.78951 0.73192
vt 0.77706 0.68195
vt 0.78900 0.68190
vt 0.93248 0.18028
vt 0.95023 0.18019
vt 0.95023 0.18815
vt 0.82677 0.91926
vt 0.82758 0.91677
vt 0.86793 0.38856
vt 0.15278 0.53495
vt 0.76358 0.73192
vt 0.15576 0.90384
vt 0.15410 0.90119
vt 0.16877 0.90676
vt 0.50402 0.01598
vt 0.50142 0.01600
vt 0.50142 0.01332
vt 0.14580 0.16459
vt 0.12148 0.14927
vt 0.74838 0.41325
vt 0.50271 0.16673
vt 0.50570 0.16005
vt 0.52428 0.17212
vt 0.35682 0.00799
vt 0.34494 0.00799
vt 0.35932 0.00611
vt 0.15535 0.58880
vt 0.15033 0.56263
vt 0.16062 0.55408
vt 0.15515 0.56362
vt 0.03202 0.77408
vt 0.04540 0.77352
vt 0.04808 0.82483
vt 0.07022 0.19156
vt 0.07317 0.20829
vt 0.05697 0.18965
vt 0.76936 0.46996
vt 0.75482 0.46946
vt 0.88655 0.38506
vt 0.03244 0.94646
vt 0.03367 0.96044
vt 0.00859 0.94459
vt 0.95000 0.20395
vt 0.48435 0.01378
vt 0.15920 0.54011
vt 0.34415 0.00515
vt 0.76125 0.68163
vt 0.01006 0.96347
vt 0.34139 0.00632
vt 0.93732 0.20505
vt 0.17226 0.88991
vt 0.04893 0.77224
vt 0.07213 0.77870
vt 0.92651 0.94026
vt 0.90969 0.94323
vt 0.92625 0.93231
vt 0.55881 0.11484
vt 0.52732 0.11873
vt 0.52632 0.11699
vt 0.99283 0.44147
vt 0.99283 0.45590
vt 0.99200 0.45476
vt 0.12378 0.16351
vt 0.00779 0.96542
vt 0.03076 0.96199
vt 0.44662 0.99548
vt 0.45935 0.99548
vt 0.45895 0.99795
vt 0.07176 0.77377
vt 0.13916 0.88752
vt 0.14241 0.88090
vt 0.13954 0.89243
vt 0.06984 0.22312
vt 0.97832 0.45798
vt 0.99286 0.47004
vt 0.97832 0.47056
vt 0.51233 0.14418
vt 0.16238 0.54429
vt 0.16168 0.56704
vt 0.53397 0.17414
vt 0.05171 0.24513
vt 0.05185 0.21956
vt 0.91031 0.91827
vt 0.91872 0.91671
vt 0.92569 0.91651
vt 0.92355 0.91521
vt 0.76986 0.28004
vt 0.74916 0.27327
vt 0.76018 0.23721
vt 0.16296 0.54881
vt 0.06529 0.24590
vt 0.58288 0.11571
vt 0.57121 0.11719
vt 0.00641 0.21164
vt 0.00066 0.20977
vt 0.00560 0.20949
vt 0.06516 0.24919
vt 0.16710 0.56971
vt 0.73869 0.24506
vt 0.99038 0.25604
vt 0.99032 0.27126
vt 0.97628 0.27126
vt 0.53396 0.93629
vt 0.53511 0.93429
vt 0.56513 0.93620
vt 0.15930 0.54003
vt 0.16536 0.54656
vt 0.97731 0.25799
vt 0.97673 0.25671
vt 0.05146 0.20652
vt 0.05120 0.18964
vt 0.75245 0.68309
vt 0.52837 0.14947
vt 0.54011 0.15642
vt 0.12066 0.13337
vt 0.10569 0.08729
vt 0.12788 0.08048
vt 0.98311 0.45633
vt 0.99165 0.45613
vt 0.77344 0.29125
vt 0.76020 0.29565
vt 0.54049 0.15430
vt 0.53775 0.17309
vt 0.56342 0.16593
vt 0.55903 0.17887
vt 0.99137 0.25725
vt 0.56349 0.16574
vt 0.56403 0.16428
vt 0.57867 0.32124
vt 0.35061 0.56608
vt 0.33703 0.60025
vt 0.37304 0.56555
vt 0.20840 0.56105
vt 0.19132 0.59063
vt 0.23686 0.59197
vt 0.29325 0.57230
vt 0.25929 0.59270
vt 0.27408 0.59294
vt 0.28906 0.67734
vt 0.30466 0.67269
vt 0.38781 0.56475
vt 0.40540 0.59879
vt 0.95661 0.10117
vt 0.97058 0.10332
vt 0.95738 0.10408
vt 0.39052 0.00291
vt 0.39052 0.00164
vt 0.40372 0.00244
vt 0.22493 0.55608
vt 0.41432 0.56385
vt 0.41271 0.67868
vt 0.43085 0.68291
vt 0.99213 0.37238
vt 0.99379 0.36986
vt 0.99826 0.37244
vt 0.99505 0.36972
vt 0.30250 0.66715
vt 0.21055 0.55531
vt 0.21978 0.55569
vt 0.25604 0.55763
vt 0.27832 0.89019
vt 0.24623 0.88160
vt 0.28309 0.87927
vt 0.53765 0.70149
vt 0.53821 0.69829
vt 0.54689 0.70148
vt 0.28048 0.88657
vt 0.29974 0.66018
vt 0.29800 0.55759
vt 0.36958 0.59922
vt 0.99724 0.00087
vt 0.99154 0.00037
vt 0.99784 0.00014
vt 0.55205 0.70156
vt 0.49376 0.70299
vt 0.48871 0.70576
vt 0.49050 0.70174
vt 0.30041 0.57709
vt 0.30061 0.59333
vt 0.30126 0.58765
vt 0.99248 0.19221
vt 0.99840 0.19273
vt 0.99200 0.19302
vt 0.96519 0.98477
vt 0.96520 0.97883
vt 0.96610 0.98368
vt 0.47973 0.69919
vt 0.48033 0.70928
vt 0.29453 0.64253
vt 0.98720 0.52336
vt 0.98813 0.52443
vt 0.98147 0.53430
vt 0.43659 0.68786
vt 0.97139 0.98007
vt 0.97722 0.98293
vt 0.29269 0.57632
vt 0.99274 0.52657
vt 0.98183 0.51726
vt 0.88109 0.24753
vt 0.87927 0.23330
vt 0.88311 0.21152
vt 0.45313 0.69949
vt 0.42439 0.69801
vt 0.41572 0.68553
vt 0.77568 0.93622
vt 0.77572 0.90767
vt 0.58319 0.70231
vt 0.87881 0.22805
vt 0.98172 0.98240
vt 0.99773 0.34053
vt 0.99588 0.34160
vt 0.99367 0.34040
vt 0.87827 0.22373
vt 0.29357 0.57398
vt 0.30161 0.57587
vt 0.25650 0.67708
vt 0.27178 0.64327
vt 0.12192 0.00006
vt 0.13187 0.00006
vt 0.12303 0.00096
vt 0.48218 0.70975
vt 0.98353 0.37012
vt 0.99170 0.37015
vt 0.56936 0.66507
vt 0.46623 0.71023
vt 0.29171 0.99204
vt 0.29698 0.98756
vt 0.29970 0.99593
vt 0.96765 0.39893
vt 0.98078 0.39893
vt 0.97715 0.40188
vt 0.29130 0.98738
vt 0.89378 0.69755
vt 0.90449 0.67053
vt 0.90585 0.67168
vt 0.99311 0.89102
vt 0.99880 0.89102
vt 0.99465 0.89209
vt 0.54080 0.68822
vt 0.44004 0.70711
vt 0.55680 0.66541
vt 0.54536 0.66440
vt 0.89345 0.66544
vt 0.44429 0.70686
vt 0.23268 0.64175
vt 0.45947 0.71203
vt 0.52464 0.93220
vt 0.55385 0.92746
vt 0.44423 0.71177
vt 0.27477 0.97439
vt 0.28611 0.97339
vt 0.29753 0.97453
vt 0.45234 0.70980
vt 0.45514 0.71363
vt 0.60791 0.90658
vt 0.62566 0.93102
vt 0.61889 0.93366
vt 0.28310 0.64210
vt 0.27053 0.64217
vt 0.60722 0.66486
vt 0.52595 0.93620
vt 0.21754 0.64190
vt 0.46772 0.90519
vt 0.47353 0.91787
vt 0.46883 0.90935
vt 0.49992 0.90532
vt 0.62514 0.70263
vt 0.61267 0.67563
vt 0.22071 0.67562
vt 0.78499 0.90756
vt 0.99069 0.37204
vt 0.52249 0.92629
vt 0.26894 0.00358
vt 0.26743 0.01565
vt 0.26695 0.01488
vt 0.27965 0.00419
vt 0.82433 0.85209
vt 0.82528 0.85303
vt 0.81911 0.85232
vt 0.99640 0.09548
vt 0.99425 0.09990
vt 0.99637 0.09457
vt 0.93448 0.13903
vt 0.95308 0.12431
vt 0.95170 0.12827
vt 0.27985 0.01759
vt 0.28398 0.00364
vt 0.93988 0.11729
vt 0.26936 0.02018
vt 0.27540 0.01929
vt 0.81886 0.85565
vt 0.81276 0.85588
vt 0.98742 0.09424
vt 0.81121 0.85199
vt 0.71608 0.19822
vt 0.69231 0.19131
vt 0.69841 0.18630
vt 0.85569 0.03615
vt 0.85310 0.02872
vt 0.85925 0.02904
vt 0.70425 0.18013
vt 0.94971 0.13293
vt 0.82598 0.86467
vt 0.68869 0.19509
vt 0.82370 0.86309
vt 0.28512 0.00482
vt 0.80273 0.85224
vt 0.22748 0.97845
vt 0.22826 0.98737
vt 0.22674 0.98970
vt 0.80399 0.85684
vt 0.85888 0.01693
vt 0.28406 0.01739
vt 0.27549 0.01952
vt 0.89322 0.54500
vt 0.89322 0.57886
vt 0.89192 0.57853
vt 0.95430 0.12036
vt 0.94089 0.50112
vt 0.94259 0.51643
vt 0.94089 0.51586
vt 0.93478 0.12776
vt 0.86294 0.01698
vt 0.80084 0.85939
vt 0.78828 0.86418
vt 0.85026 0.01711
vt 0.98601 0.19681
vt 0.98545 0.21168
vt 0.20209 0.91913
vt 0.20164 0.92042
vt 0.17998 0.92042
vt 0.70821 0.22237
vt 0.94305 0.50243
vt 0.09365 0.25808
vt 0.10529 0.25808
vt 0.09702 0.26777
vt 0.34068 0.00286
vt 0.32666 0.00286
vt 0.32769 0.00169
vt 0.79420 0.86489
vt 0.98690 0.19683
vt 0.89060 0.14613
vt 0.89623 0.15245
vt 0.88911 0.16773
vt 0.99345 0.93456
vt 0.99247 0.93399
vt 0.99843 0.93402
vt 0.94334 0.49115
vt 0.66264 0.99600
vt 0.66987 0.99793
vt 0.65824 0.99786
vt 0.99361 0.18579
vt 0.99880 0.18579
vt 0.99394 0.18731
vt 0.11667 0.26066
vt 0.84586 0.02682
vt 0.98533 0.79265
vt 0.97974 0.79078
vt 0.98617 0.77964
vt 0.99158 0.67268
vt 0.98689 0.67069
vt 0.99239 0.66684
vt 0.89453 0.16162
vt 0.97686 0.78010
vt 0.99315 0.11288
vt 0.99707 0.11497
vt 0.99305 0.11765
vt 0.99745 0.10475
vt 0.99783 0.10556
vt 0.99307 0.10547
vt 0.31766 0.99635
vt 0.31704 0.99285
vt 0.32047 0.99609
vt 0.99587 0.11765
vt 0.82709 0.69706
vt 0.82657 0.66843
vt 0.82842 0.68190
vt 0.32016 0.98646
vt 0.83560 0.61326
vt 0.82970 0.61575
vt 0.82367 0.61468
vt 0.08689 0.25649
vt 0.09194 0.25771
vt 0.99887 0.11490
vt 0.97262 0.78063
vt 0.78048 0.98585
vt 0.78452 0.98535
vt 0.78003 0.98938
vt 0.40001 0.82599
vt 0.40163 0.80745
vt 0.40242 0.82618
vt 0.00443 0.52240
vt 0.00443 0.52513
vt 0.00012 0.52493
vt 0.00635 0.60966
vt 0.00275 0.60470
vt 0.00445 0.60530
vt 0.89209 0.16628
vt 0.48985 0.96175
vt 0.47471 0.96328
vt 0.47784 0.96175
vt 0.36233 0.81892
vt 0.38002 0.80695
vt 0.84754 0.01732
vt 0.99121 0.66054
vt 0.31740 0.98741
vt 0.97389 0.78817
vt 0.89305 0.16562
vt 0.78066 0.99544
vt 0.83000 0.62441
vt 0.77918 0.99476
vt 0.99402 0.20286
vt 0.99827 0.20361
vt 0.99313 0.20357
vt 0.99513 0.12046
vt 0.99778 0.12170
vt 0.99009 0.12146
vt 0.46789 0.93071
vt 0.45807 0.92622
vt 0.46666 0.92733
vt 0.99629 0.80710
vt 0.99609 0.80871
vt 0.98905 0.80968
vt 0.97086 0.78104
vt 0.89321 0.16743
vt 0.05887 0.57954
vt 0.05943 0.58274
vt 0.05176 0.57987
vt 0.47067 0.92901
vt 0.37939 0.82681
vt 0.97109 0.78685
vt 0.99130 0.65745
vt 0.11741 0.29451
vt 0.08617 0.31070
vt 0.36312 0.80790
vt 0.99253 0.16598
vt 0.99830 0.16648
vt 0.99108 0.16668
vt 0.11757 0.29984
vt 0.99207 0.03202
vt 0.99321 0.03770
vt 0.98758 0.03921
vt 0.71640 0.21910
vt 0.71143 0.22663
vt 0.39015 0.82646
vt 0.93165 0.12145
vt 0.93287 0.13535
vt 0.93050 0.12011
vt 0.46452 0.96159
vt 0.16949 0.91948
vt 0.05856 0.59288
vt 0.05125 0.58223
vt 0.89523 0.17277
vt 0.89618 0.17945
vt 0.71892 0.23669
vt 0.46363 0.96359
vt 0.98767 0.03352
vt 0.93242 0.11581
vt 0.08665 0.28588
vt 0.05141 0.59210
vt 0.83112 0.67115
vt 0.98766 0.03126
vt 0.47820 0.92713
vt 0.72643 0.21161
vt 0.92919 0.11183
vt 0.95216 0.55349
vt 0.94918 0.54133
vt 0.95334 0.55242
vt 0.93249 0.11354
vt 0.55982 0.24940
vt 0.57525 0.24940
vt 0.54736 0.25689
vt 0.48083 0.92840
vt 0.84788 0.62611
vt 0.83045 0.63594
vt 0.98760 0.02550
vt 0.98954 0.02591
vt 0.82582 0.65683
vt 0.00102 0.24257
vt 0.00120 0.24131
vt 0.00757 0.24352
vt 0.99459 0.79338
vt 0.99681 0.79338
vt 0.99642 0.79459
vt 0.84892 0.61286
vt 0.84998 0.61356
vt 0.88890 0.17821
vt 0.75278 0.99426
vt 0.75094 0.99531
vt 0.75195 0.99329
vt 0.99627 0.02130
vt 0.99469 0.02403
vt 0.99463 0.01995
vt 0.08199 0.57636
vt 0.08098 0.57807
vt 0.07981 0.57864
vt 0.10030 0.85476
vt 0.09612 0.85834
vt 0.09469 0.85665
vt 0.75087 0.98936
vt 0.83819 0.66670
vt 0.83688 0.67250
vt 0.93316 0.10783
vt 0.11754 0.31239
vt 0.10417 0.85348
vt 0.10820 0.85469
vt 0.05129 0.60286
vt 0.83849 0.66294
vt 0.23629 0.91967
vt 0.23685 0.91817
vt 0.24758 0.91911
vt 0.08527 0.57873
vt 0.99152 0.47074
vt 0.99280 0.47121
vt 0.99259 0.48528
vt 0.92882 0.10808
vt 0.75257 0.98593
vt 0.05731 0.60183
vt 0.16951 0.92061
vt 0.07933 0.58283
vt 0.89921 0.01740
vt 0.88331 0.02208
vt 0.88641 0.01740
vt 0.55145 0.24902
vt 0.89402 0.02323
vt 0.10880 0.85728
vt 0.75198 0.98497
vt 0.75076 0.98559
vt 0.54769 0.24883
vt 0.95542 0.54252
vt 0.48908 0.92715
vt 0.72523 0.23116
vt 0.95895 0.55278
vt 0.08564 0.58680
vt 0.48986 0.92826
vt 0.96160 0.54673
vt 0.85024 0.65256
vt 0.95417 0.53344
vt 0.07902 0.59239
vt 0.80356 0.93524
vt 0.79730 0.93315
vt 0.80347 0.92245
vt 0.95412 0.53145
vt 0.13534 0.85638
vt 0.83096 0.64680
vt 0.07648 0.60988
vt 0.54646 0.30219
vt 0.25713 0.91922
vt 0.36744 0.82727
vt 0.05119 0.61482
vt 0.36187 0.81698
vt 0.36133 0.81797
vt 0.99842 0.03818
vt 0.99399 0.03818
vt 0.99445 0.03715
vt 0.90356 0.02355
vt 0.11714 0.32136
vt 0.95859 0.53385
vt 0.31356 0.00770
vt 0.32251 0.00848
vt 0.30438 0.00803
vt 0.35937 0.82759
vt 0.57471 0.27879
vt 0.05132 0.62290
vt 0.91580 0.98577
vt 0.93557 0.97935
vt 0.93527 0.98068
vt 0.90398 0.01753
vt 0.72992 0.25112
vt 0.96437 0.53507
vt 0.07838 0.60583
vt 0.80351 0.91767
vt 0.57380 0.30360
vt 0.26877 0.91982
vt 0.04396 0.02458
vt 0.03259 0.02845
vt 0.04143 0.02135
vt 0.03130 0.01915
vt 0.03699 0.01744
vt 0.91144 0.01795
vt 0.34936 0.81889
vt 0.34328 0.82854
vt 0.78578 0.93140
vt 0.78566 0.92546
vt 0.05119 0.63901
vt 0.80383 0.91021
vt 0.33671 0.82043
vt 0.79820 0.90500
vt 0.79406 0.90517
vt 0.78624 0.91378
vt 0.02004 0.02229
vt 0.72489 0.01335
vt 0.71220 0.01446
vt 0.70584 0.01367
vt 0.08582 0.63211
vt 0.00811 0.03059
vt 0.08557 0.63826
vt 0.57322 0.34218
vt 0.54609 0.30833
vt 0.99130 0.20758
vt 0.25121 0.92055
vt 0.69303 0.90761
vt 0.68279 0.91636
vt 0.67679 0.90779
vt 0.32765 0.69246
vt 0.29693 0.70173
vt 0.31087 0.69744
vt 0.36277 0.65475
vt 0.40479 0.70174
vt 0.35351 0.71583
vt 0.02151 0.51230
vt 0.02151 0.52671
vt 0.01834 0.48802
vt 0.00789 0.51460
vt 0.67279 0.91797
vt 0.66238 0.90795
vt 0.05387 0.00120
vt 0.05638 0.00891
vt 0.04625 0.00870
vt 0.79658 0.74865
vt 0.79091 0.73536
vt 0.79664 0.72963
vt 0.80686 0.73470
vt 0.80086 0.72571
vt 0.80906 0.74013
vt 0.80953 0.76427
vt 0.05264 0.14798
vt 0.05791 0.12403
vt 0.06394 0.13403
vt 0.03816 0.14668
vt 0.53511 0.96084
vt 0.52632 0.95929
vt 0.54427 0.95973
vt 0.96185 0.69480
vt 0.94260 0.70105
vt 0.94766 0.69483
vt 0.74267 0.04791
vt 0.71612 0.04749
vt 0.99290 0.07322
vt 0.98447 0.07935
vt 0.98283 0.06322
vt 0.82121 0.73473
vt 0.81498 0.72520
vt 0.55204 0.96051
vt 0.82603 0.75684
vt 0.80928 0.71955
vt 0.69919 0.04782
vt 0.06917 0.12823
vt 0.82451 0.73803
vt 0.21076 0.32724
vt 0.18071 0.32661
vt 0.18071 0.27869
vt 0.06769 0.11340
vt 0.08722 0.12304
vt 0.92563 0.72887
vt 0.90652 0.71841
vt 0.92563 0.71144
vt 0.22519 0.32798
vt 0.22079 0.27963
vt 0.70946 0.03956
vt 0.33703 0.60025
vt 0.33703 0.60025
vt 0.33703 0.60025
vt 0.33703 0.60025
vt 0.33703 0.60025
vt 0.33703 0.60025
vt 0.33703 0.60025
vt 0.33703 0.60025
vt 0.33703 0.60025
vt 0.33703 0.60025
vt 0.33703 0.60025
vt 0.33703 0.60025
vt 0.33703 0.60025
vt 0.33703 0.60025
vt 0.33703 0.60025
vt 0.33703 0.60025
vt 0.33703 0.60025
vt 0.33703 0.60025
vt 0.33703 0.60025
vt 0.33703 0.60025
vt 0.33703 0.60025
vt 0.33703 0.60025
vt 0.33703 0.60025
vt 0.33703 0.60025
vt 0.33703 0.60025
vt 0.33703 0.60025
vt 0.33703 0.60025
vt 0.33703 0.60025
vt 0.33703 0.60025
vt 0.32765 0.69246
vt 0.32765 0.69246
vt 0.32765 0.69246
vt 0.32765 0.69246
vt 0.32765 0.69246
vt 0.32765 0.69246
vt 0.32765 0.69246
vt 0.32765 0.69246
vt 0.32765 0.69246
vt 0.32765 0.69246
vt 0.32765 0.69246
vt 0.32765 0.69246
vt 0.32765 0.69246
vn 0.1624 -0.0082 0.9867
vn 0.0734 -0.0704 0.9948
vn -0.0680 -0.0007 -0.9977
vn 0.0941 -0.1807 0.9790
vn 0.0014 -0.0004 1.0000
vn -0.3491 0.9275 0.1340
vn -0.5911 -0.3294 0.7363
vn -0.6767 -0.1440 0.7220
vn -0.7695 -0.0525 0.6365
vn -0.1185 -0.0797 0.9898
vn -0.8363 -0.0170 0.5480
vn -0.7137 0.0165 0.7002
vn -0.5321 0.8069 0.2567
vn -0.5955 0.6716 0.4409
vn -0.4934 0.6847 0.5363
vn -0.9064 -0.3955 -0.1486
vn -0.5056 0.8585 -0.0856
vn -0.1358 -0.0085 0.9907
vn -0.9360 -0.3518 0.0073
vn -0.9346 -0.3558 -0.0061
vn -0.9363 -0.3510 -0.0069
vn -0.4681 0.8836 -0.0120
vn -0.4883 0.8727 -0.0041
vn -0.4969 0.8657 -0.0604
vn -0.5267 0.8488 0.0455
vn -0.4844 0.4321 0.7607
vn -0.8526 -0.0135 -0.5224
vn -0.7950 -0.0456 -0.6049
vn -0.7913 -0.0440 -0.6098
vn -0.4411 0.8969 0.0305
vn -0.5970 0.7890 0.1454
vn -0.4781 0.8783 -0.0016
vn -0.4485 0.8934 0.0248
vn -0.9583 -0.2025 0.2014
vn -0.9280 -0.3725 -0.0132
vn -0.9247 -0.3799 -0.0243
vn -0.4468 0.8928 0.0577
vn -0.8107 -0.0529 -0.5831
vn -0.1960 -0.0068 -0.9806
vn 0.9057 0.2739 0.3235
vn 0.9742 0.2255 0.0080
vn 0.8938 0.3006 0.3329
vn 0.8041 0.4706 -0.3634
vn 0.8197 0.3724 -0.4351
vn 0.8549 0.4086 -0.3196
vn 0.7046 0.2000 0.6808
vn 0.5679 0.1912 0.8006
vn 0.5720 0.2136 0.7920
vn -0.3564 0.9191 -0.1681
vn -0.3513 0.9201 -0.1731
vn -0.4356 0.8952 -0.0942
vn -0.4592 0.8877 -0.0328
vn -0.3555 0.9341 0.0341
vn -0.9083 -0.0239 -0.4176
vn -0.0676 0.9976 -0.0133
vn -0.9079 -0.0479 -0.4164
vn -0.5243 0.8382 -0.1503
vn -0.3904 0.9099 -0.1401
vn 0.7593 0.2782 -0.5883
vn 0.5506 0.2044 -0.8093
vn 0.7430 0.3934 -0.5414
vn 0.8962 0.3780 -0.2324
vn -0.1124 0.0071 -0.9936
vn 0.8228 0.2302 0.5196
vn 0.8101 0.2683 0.5214
vn 0.8405 0.3820 -0.3842
vn 0.7645 0.2962 -0.5725
vn 0.7843 0.3639 0.5025
vn -0.5280 0.8292 0.1831
vn -0.9678 -0.2226 0.1172
vn 0.8814 0.4575 -0.1176
vn 0.4206 0.1530 0.8942
vn 0.4089 0.1497 0.9002
vn 0.3009 0.3199 -0.8984
vn 0.3232 0.3898 -0.8623
vn 0.2748 0.3126 -0.9092
vn -0.1118 0.0070 -0.9937
vn -0.4270 0.3987 -0.8116
vn -0.4270 0.3987 -0.8116
vn -0.4270 0.3987 -0.8116
vn 0.8645 0.3884 -0.3189
vn 0.7802 0.3293 0.5318
vn 0.6759 0.5324 0.5097
vn 0.7561 0.4502 0.4750
vn -0.2363 0.9136 0.3309
vn -0.1496 0.9257 0.3474
vn 0.0710 0.1853 -0.9801
vn -0.0705 0.1837 -0.9805
vn 0.5581 0.7214 0.4100
vn 0.8555 0.3871 -0.3440
vn 0.6378 0.3549 -0.6836
vn 0.4285 0.1839 0.8846
vn 0.3272 0.9304 -0.1651
vn 0.3272 0.9304 -0.1651
vn 0.3272 0.9304 -0.1651
vn 0.7627 0.3423 0.5488
vn 0.4044 0.4316 -0.8063
vn 0.4534 0.3234 -0.8306
vn -0.2706 0.9505 -0.1529
vn 0.5266 0.1972 -0.8269
vn 0.5162 0.2086 -0.8307
vn -0.8939 0.1327 -0.4281
vn -0.8782 0.0055 -0.4783
vn -0.8829 0.0193 -0.4691
vn -0.8269 0.3497 -0.4405
vn 0.8477 0.3224 -0.4214
vn 0.8358 0.2860 -0.4686
vn 0.8357 0.2933 -0.4644
vn -0.1067 0.1854 -0.9769
vn -0.1091 0.1834 -0.9770
vn 0.4512 0.7802 0.4333
vn -0.2790 0.9456 -0.1670
vn -0.8595 0.0089 -0.5111
vn -0.6535 0.0096 -0.7569
vn -0.4893 0.0369 -0.8714
vn -0.4705 0.0473 -0.8811
vn -0.1358 0.8027 -0.5807
vn -0.3181 0.7706 -0.5523
vn -0.3870 0.7505 -0.5358
vn 0.3859 0.4354 -0.8133
vn 0.5016 0.1908 -0.8438
vn 0.3452 0.1069 0.9324
vn -0.7278 -0.1428 -0.6707
vn -0.7705 -0.1357 -0.6229
vn -0.7670 -0.1644 -0.6202
vn 0.2681 0.2053 0.9413
vn 0.0546 0.3108 0.9489
vn 0.2080 0.1999 0.9575
vn 0.0991 0.9057 0.4122
vn -0.4886 0.8468 0.2102
vn -0.1794 0.9837 -0.0134
vn -0.3385 0.9354 0.1019
vn -0.9105 0.0320 0.4124
vn -0.8756 0.0840 0.4757
vn -0.8671 0.0133 0.4980
vn -0.6304 0.0015 0.7762
vn -0.5749 -0.0430 0.8171
vn -0.7467 -0.0944 0.6584
vn 0.4141 0.1539 0.8971
vn 0.4145 0.1544 0.8969
vn 0.2679 0.9225 0.2779
vn 0.7521 0.2967 0.5885
vn 0.7096 0.3028 0.6363
vn 0.7576 0.3085 0.5752
vn 0.8561 0.3507 -0.3797
vn -0.5033 0.7051 -0.4995
vn -0.1715 0.9848 -0.0258
vn 0.0432 0.3963 0.9171
vn -0.8134 0.0087 -0.5816
vn 0.7258 0.3237 0.6070
vn 0.0415 0.5649 0.8241
vn 0.8647 0.3827 -0.3253
vn -0.4530 0.0464 -0.8903
vn -0.7639 0.4566 0.4561
vn -0.7789 0.4410 0.4459
vn -0.3481 0.0722 -0.9347
vn -0.3783 0.1025 -0.9200
vn -0.3767 0.0799 -0.9229
vn -0.1660 -0.0174 0.9860
vn -0.3077 -0.0394 0.9507
vn -0.3143 -0.0405 0.9485
vn 0.1043 0.7706 -0.6287
vn 0.1043 0.7706 -0.6287
vn 0.1043 0.7706 -0.6287
vn 0.5268 0.1805 -0.8306
vn 0.7089 0.3293 0.6237
vn 0.4643 0.2772 0.8412
vn 0.2287 0.9689 -0.0944
vn 0.2287 0.9689 -0.0944
vn 0.2287 0.9689 -0.0944
vn -0.5410 0.8026 0.2513
vn -0.4967 0.4680 -0.7310
vn -0.4573 0.0897 -0.8848
vn -0.4516 0.0953 -0.8871
vn -0.6258 -0.0387 0.7790
vn -0.3787 0.9106 0.1657
vn -0.3655 0.9105 0.1935
vn -0.2937 0.9296 0.2226
vn -0.7921 -0.1555 -0.5903
vn -0.4927 0.8283 -0.2668
vn -0.3165 0.9485 -0.0137
vn -0.7658 -0.1541 -0.6243
vn -0.6342 0.0092 0.7731
vn -0.6502 -0.0398 0.7587
vn -0.4293 0.0371 -0.9024
vn -0.4064 0.0466 -0.9125
vn -0.3308 0.1791 -0.9266
vn -0.3691 0.3906 -0.8434
vn -0.9029 -0.2116 0.3742
vn -0.9022 -0.2164 0.3732
vn -0.8965 -0.1982 0.3963
vn -0.4982 0.8644 -0.0676
vn -0.6371 0.1284 0.7600
vn -0.2904 -0.0844 0.9532
vn -0.2809 -0.0793 0.9565
vn -0.6040 0.6206 -0.5001
vn -0.6040 0.6206 -0.5001
vn -0.6040 0.6206 -0.5001
vn -0.6401 0.2821 0.7146
vn -0.4406 0.8977 -0.0024
vn -0.8908 -0.1832 0.4159
vn -0.4243 0.9040 -0.0524
vn -0.3589 0.9194 -0.1606
vn -0.3464 0.9305 -0.1190
vn -0.9199 -0.1232 -0.3723
vn -0.9199 -0.1232 -0.3723
vn -0.9199 -0.1232 -0.3723
vn -0.6530 0.6380 -0.4081
vn -0.5554 0.8221 -0.1252
vn -0.4886 0.8450 -0.2175
vn -0.6053 0.7068 -0.3661
vn -0.7411 -0.0753 0.6672
vn -0.8675 -0.1864 0.4612
vn -0.7599 0.0142 -0.6499
vn -0.9203 -0.1820 -0.3462
vn -0.9337 -0.1596 -0.3206
vn -0.9998 0.0041 -0.0208
vn -0.9998 0.0041 -0.0208
vn -0.9998 0.0041 -0.0208
vn -0.5163 0.8499 -0.1051
vn -0.4368 0.8875 0.1472
vn -0.8967 -0.1719 0.4079
vn -0.9016 -0.2047 0.3811
vn -0.9898 -0.1309 0.0559
vn -0.7683 -0.1234 -0.6280
vn -0.7611 -0.1349 -0.6345
vn -0.7589 -0.1314 -0.6378
vn -0.5390 0.8328 0.1261
vn -0.9520 -0.1216 0.2811
vn -0.9484 -0.1196 0.2938
vn -0.3222 0.9206 -0.2207
vn 0.7766 -0.2722 -0.5682
vn 0.7779 -0.2646 -0.5700
vn 0.7766 -0.2797 -0.5645
vn 0.5758 -0.1818 0.7972
vn 0.5829 -0.1671 0.7952
vn 0.5946 -0.1871 0.7819
vn 0.5933 -0.2074 0.7778
vn 0.6245 -0.2152 0.7508
vn 0.6044 -0.1933 0.7729
vn -0.4954 0.1490 -0.8558
vn -0.4553 0.1420 -0.8790
vn 0.7717 -0.2857 -0.5683
vn 0.7723 -0.2904 -0.5651
vn 0.9985 -0.0333 0.0445
vn 0.9923 -0.0497 0.1133
vn 0.9988 -0.0315 0.0369
vn 0.6062 -0.0388 0.7944
vn 0.6062 -0.0388 0.7944
vn 0.6062 -0.0388 0.7944
vn 0.5676 -0.1689 0.8058
vn 0.7714 -0.2885 -0.5671
vn 0.0652 -0.9953 -0.0712
vn 0.1234 -0.9923 -0.0038
vn 0.1641 -0.9703 0.1778
vn 0.1651 -0.9617 0.2190
vn 0.1651 -0.9624 0.2158
vn 0.1664 -0.9317 0.3228
vn -0.5164 0.1246 -0.8472
vn 0.5305 -0.1740 0.8296
vn 0.5131 -0.1530 0.8446
vn 0.5812 -0.1763 0.7944
vn -0.1302 -0.0023 0.9915
vn -0.1294 -0.0111 0.9915
vn -0.1301 -0.0035 0.9915
vn -0.7687 0.2581 0.5853
vn -0.7820 0.2606 0.5662
vn -0.8215 0.2432 0.5158
vn -0.1399 0.1188 0.9830
vn -0.5053 0.1419 -0.8512
vn 0.5701 -0.1805 0.8015
vn 0.7804 -0.2781 -0.5600
vn 0.0481 -0.9229 0.3819
vn 0.0481 -0.9229 0.3819
vn 0.0481 -0.9229 0.3819
vn -0.7678 0.2468 0.5913
vn 0.0262 -0.9990 -0.0373
vn 0.0309 -0.9979 0.0571
vn 0.0358 -0.9994 -0.0012
vn 0.7708 -0.2764 0.5740
vn 0.5795 -0.2284 0.7823
vn 0.3972 -0.5571 0.7293
vn 0.6138 0.7160 -0.3326
vn 0.6138 0.7160 -0.3326
vn 0.6138 0.7160 -0.3326
vn -0.1198 -0.9072 -0.4032
vn -0.3299 -0.9418 -0.0649
vn -0.2228 -0.9462 -0.2347
vn 0.0113 -0.9992 0.0382
vn -0.0161 -0.9936 0.1114
vn -0.4981 0.1467 -0.8546
vn 0.6869 -0.3739 -0.6232
vn 0.9253 -0.2754 -0.2606
vn 0.7774 -0.2296 -0.5856
vn 0.0323 -0.9987 -0.0394
vn -0.4298 -0.8947 -0.1219
vn -0.2546 -0.9413 0.2217
vn 0.6912 -0.2830 0.6650
vn 0.5024 -0.4961 -0.7082
vn 0.6969 -0.2620 -0.6676
vn -0.1386 -0.8973 -0.4191
vn -0.1619 -0.8974 -0.4105
vn -0.2510 -0.8946 -0.3697
vn -0.0155 -0.9996 0.0224
vn 0.0126 -0.9984 -0.0550
vn 0.0086 -0.8753 -0.4834
vn -0.1108 -0.0004 0.9938
vn -0.1108 -0.0004 0.9938
vn -0.7815 0.2773 0.5589
vn -0.3901 -0.8677 -0.3082
vn -0.2285 -0.9350 0.2713
vn 0.5502 0.7185 0.4256
vn 0.5502 0.7185 0.4256
vn 0.5502 0.7185 0.4256
vn -0.2528 -0.8977 -0.3608
vn 0.8794 -0.2953 0.3733
vn 0.8680 -0.3015 0.3945
vn -0.5087 0.1730 -0.8434
vn -0.6110 0.2076 -0.7639
vn 0.5251 -0.5849 -0.6182
vn 0.5251 -0.5849 -0.6182
vn 0.5251 -0.5849 -0.6182
vn -0.0442 -0.9552 0.2926
vn 0.2707 -0.0965 0.9578
vn 0.2707 -0.0965 0.9578
vn -0.7863 0.2604 0.5604
vn -0.0696 -0.9972 0.0266
vn -0.4053 -0.8739 -0.2684
vn -0.4047 -0.8758 -0.2629
vn -0.4016 -0.8859 -0.2323
vn 0.4202 0.8504 0.3167
vn 0.4202 0.8504 0.3167
vn 0.4202 0.8504 0.3167
vn -0.4090 -0.8577 -0.3115
vn -0.8813 -0.0082 0.4725
vn -0.9018 -0.0055 0.4322
vn -0.9351 -0.0005 0.3545
vn 0.6102 0.7884 -0.0776
vn 0.6102 0.7884 -0.0776
vn 0.6102 0.7884 -0.0776
vn -0.7943 0.2879 0.5349
vn -0.0380 -0.9930 -0.1117
vn -0.7871 0.2660 0.5565
vn -0.7879 0.2856 0.5456
vn -0.8718 -0.0094 0.4897
vn -0.2020 -0.9681 -0.1481
vn -0.5090 0.1624 -0.8453
vn -0.1076 -0.9939 0.0256
vn -0.8456 0.0105 0.5337
vn -0.8444 0.0108 0.5356
vn -0.3051 -0.9483 -0.0876
vn -0.9542 0.2730 -0.1225
vn -0.9542 0.2730 -0.1225
vn -0.9542 0.2730 -0.1225
vn 0.0153 -0.9931 0.1166
vn -0.0502 -0.9962 0.0705
vn -0.8003 -0.0016 -0.5996
vn -0.8003 -0.0016 -0.5996
vn -0.8003 -0.0016 -0.5996
vn -0.7142 0.2602 -0.6498
vn -0.7089 0.2438 -0.6619
vn -0.7813 0.3145 0.5391
vn -0.8685 0.0042 0.4957
vn -0.5155 0.1797 -0.8378
vn -0.9981 -0.0555 -0.0279
vn -0.9994 -0.0194 -0.0285
vn -0.9038 -0.4276 -0.0188
vn -0.9996 0.0002 -0.0289
vn -0.7689 0.3020 0.5635
vn -0.7756 0.3361 0.5343
vn -0.5238 0.1981 -0.8285
vn -0.1108 -0.0004 0.9938
vn 0.2707 -0.0965 0.9578
vn -0.8260 0.0155 0.5635
vn 0.7816 -0.3136 0.5392
vn 0.7407 -0.4333 0.5135
vn 0.8586 -0.3306 0.3919
vn 0.7585 -0.3538 0.5472
vn 0.9377 0.3235 0.1265
vn 0.8638 0.4973 0.0812
vn 0.8173 0.5706 0.0801
vn 0.3997 -0.7264 -0.5591
vn 0.4004 -0.7268 -0.5581
vn 0.4002 -0.7267 -0.5583
vn 0.7275 -0.1703 -0.6646
vn 0.6923 -0.1879 -0.6967
vn 0.6735 -0.2378 -0.6999
vn 0.8965 -0.1578 0.4140
vn 0.8173 -0.3686 0.4430
vn 0.7236 -0.1705 -0.6688
vn 0.5756 -0.6908 0.4375
vn 0.6604 -0.5129 0.5485
vn 0.8196 0.5676 0.0777
vn 0.8126 0.5792 0.0641
vn 0.4004 -0.7268 -0.5581
vn 0.8300 0.5561 0.0433
vn 0.6665 -0.6385 0.3849
vn 0.6794 -0.6135 0.4025
vn 0.6720 -0.6317 0.3865
vn 0.3726 -0.2676 0.8886
vn 0.3915 -0.2283 0.8914
vn 0.3942 -0.2342 0.8887
vn 0.6693 -0.6200 0.4094
vn 0.6954 -0.2254 -0.6824
vn 0.8816 0.4716 0.0163
vn 0.6751 -0.6204 0.3992
vn 0.9540 0.2849 -0.0936
vn 0.8664 -0.3593 0.3467
vn 0.7632 0.6403 0.0867
vn -0.0121 -0.9864 -0.1639
vn -0.0121 -0.9864 -0.1639
vn -0.0121 -0.9864 -0.1639
vn 0.7444 0.6581 0.1128
vn 0.3980 -0.2086 0.8934
vn 0.8853 -0.3131 0.3437
vn 0.9549 0.1286 0.2675
vn 0.7315 -0.6163 -0.2917
vn 0.7315 -0.6163 -0.2917
vn 0.7315 -0.6163 -0.2917
vn 0.6772 -0.1537 -0.7196
vn -0.2288 0.0199 -0.9733
vn -0.0428 0.1469 -0.9882
vn -0.0393 0.1461 -0.9885
vn 0.7877 0.0119 -0.6159
vn 0.3983 -0.2046 0.8941
vn 0.6923 0.7025 0.1651
vn 0.6960 0.7006 0.1575
vn 0.3161 -0.1944 0.9286
vn 0.4152 -0.5227 0.7446
vn 0.5414 -0.3629 0.7584
vn -0.5603 -0.4017 -0.7244
vn -0.5588 -0.4112 -0.7202
vn -0.5789 -0.1686 -0.7978
vn 0.6565 -0.6381 0.4023
vn -0.1534 0.0850 -0.9845
vn 0.4695 -0.4660 -0.7499
vn 0.4725 -0.2904 -0.8321
vn 0.4324 -0.3151 -0.8449
vn -0.8271 0.3870 -0.4076
vn -0.8271 0.3870 -0.4076
vn -0.8271 0.3870 -0.4076
vn 0.6971 0.6990 0.1594
vn 0.3528 -0.5875 0.7283
vn -0.3361 -0.9159 -0.2197
vn -0.3342 -0.9198 -0.2059
vn -0.3232 -0.9307 -0.1714
vn 0.6486 -0.7027 0.2926
vn 0.6486 -0.7027 0.2926
vn 0.6486 -0.7027 0.2926
vn -0.3132 -0.0531 -0.9482
vn -0.1893 -0.9143 0.3581
vn -0.1893 -0.9143 0.3581
vn -0.1893 -0.9143 0.3581
vn 0.8860 0.3885 -0.2532
vn 0.8860 0.3885 -0.2532
vn 0.8860 0.3885 -0.2532
vn 0.4400 -0.2797 -0.8533
vn 0.3587 -0.2033 0.9110
vn -0.4788 0.2473 -0.8424
vn -0.3826 0.2070 -0.9004
vn -0.4379 0.1930 -0.8781
vn 0.7055 0.6952 0.1377
vn 0.7145 0.6844 0.1455
vn 0.7140 0.6860 0.1400
vn -0.3171 -0.9401 -0.1250
vn -0.3204 0.1631 -0.9331
vn -0.7116 -0.7003 0.0568
vn -0.5299 -0.7317 0.4288
vn -0.6977 -0.6969 0.1657
vn -0.8817 0.0933 0.4625
vn -0.8817 0.0933 0.4625
vn -0.8817 0.0933 0.4625
vn -0.5275 0.0100 0.8495
vn -0.5931 0.2161 0.7756
vn -0.5604 0.1377 0.8167
vn -0.6128 -0.6868 0.3910
vn -0.5885 0.5059 0.6307
vn -0.7002 0.4376 0.5641
vn -0.5991 0.4976 0.6273
vn -0.6602 0.2676 0.7019
vn -0.7203 0.2646 0.6412
vn -0.7051 0.2488 0.6640
vn -0.7224 0.2292 0.6523
vn 0.3953 -0.2712 -0.8776
vn 0.3726 -0.2720 -0.8872
vn -0.3543 -0.7039 0.6157
vn -0.4237 0.2094 -0.8813
vn 0.0637 -0.3594 0.9310
vn 0.2728 -0.3038 0.9128
vn 0.4356 -0.2564 0.8628
vn 0.3397 -0.2961 0.8927
vn 0.2983 -0.3612 0.8835
vn 0.3963 -0.2073 0.8944
vn 0.6902 0.7228 0.0355
vn 0.6902 0.7228 0.0355
vn 0.6902 0.7228 0.0355
vn -0.2378 -0.9688 -0.0696
vn -0.2378 -0.9688 -0.0696
vn -0.2378 -0.9688 -0.0696
vn -0.3267 -0.9027 -0.2800
vn 0.1818 0.8765 0.4458
vn 0.0083 0.8900 0.4559
vn 0.1507 0.8799 0.4506
vn 0.2343 -0.5766 0.7827
vn 0.2859 -0.3705 0.8837
vn 0.1663 -0.1590 0.9732
vn 0.7797 0.5750 0.2479
vn -0.7040 0.2625 0.6600
vn -0.2410 0.2120 -0.9471
vn -0.3316 -0.7984 -0.5026
vn 0.5811 -0.2601 0.7711
vn -0.6722 0.3588 0.6476
vn 0.6064 -0.2814 0.7437
vn -0.1241 0.9636 0.2367
vn -0.1241 0.9636 0.2367
vn -0.1241 0.9636 0.2367
vn 0.7410 0.6541 0.1522
vn 0.7410 0.6541 0.1522
vn 0.7410 0.6541 0.1522
vn 0.0307 -0.0885 0.9956
vn -0.0241 -0.1259 0.9918
vn 0.0094 -0.1039 0.9945
vn 0.2764 0.8988 0.3403
vn 0.2764 0.8988 0.3403
vn 0.2764 0.8988 0.3403
vn -0.5628 0.2526 -0.7870
vn -0.3641 -0.8207 -0.4403
vn -0.3200 0.7838 0.5323
vn -0.4973 0.5859 0.6399
vn -0.5284 0.5079 0.6803
vn 0.0692 -0.0697 0.9952
vn 0.3021 -0.3815 0.8736
vn -0.3581 0.2805 -0.8906
vn 0.7902 0.5503 0.2698
vn 0.4259 -0.3110 -0.8497
vn 0.4281 -0.3063 -0.8503
vn 0.2764 -0.3338 0.9012
vn -0.8004 -0.4302 -0.4175
vn -0.8004 -0.4302 -0.4175
vn -0.8004 -0.4302 -0.4175
vn 0.4257 -0.3121 -0.8493
vn -0.7797 0.3358 -0.5285
vn -0.7712 0.3745 -0.5148
vn -0.7906 0.3557 -0.4983
vn 0.5332 -0.7596 0.3724
vn 0.6516 -0.6162 0.4425
vn 0.2884 -0.3560 0.8889
vn 0.0583 0.8707 -0.4883
vn 0.0294 0.8305 -0.5563
vn 0.1876 0.9321 -0.3098
vn 0.1970 0.9391 0.2816
vn -0.5884 -0.4530 -0.6697
vn -0.5753 0.4473 0.6848
vn -0.5682 0.3928 0.7231
vn -0.2745 -0.9532 -0.1269
vn -0.3177 -0.9345 -0.1606
vn 0.6380 -0.6193 0.4576
vn 0.2153 0.9400 0.2648
vn -0.7876 0.3298 -0.5206
vn 0.4629 0.8716 -0.1616
vn 0.4191 -0.2940 -0.8590
vn -0.5724 0.4505 0.6851
vn -0.7625 0.3477 0.5456
vn -0.7576 0.3512 -0.5501
vn 0.0928 -0.0989 0.9908
vn 0.6461 -0.6619 0.3800
vn 0.5426 0.8383 -0.0540
vn -0.4072 -0.9122 0.0450
vn -0.3053 -0.9249 0.2264
vn -0.2959 -0.9527 0.0697
vn 0.5246 0.8511 -0.0194
vn -0.4616 0.4619 -0.7574
vn -0.4454 0.4833 -0.7537
vn -0.4493 0.4997 -0.7406
vn 0.0670 -0.0875 0.9939
vn -0.6714 0.3709 0.6416
vn -0.6360 0.4390 0.6346
vn -0.7844 0.2149 -0.5818
vn -0.7797 0.0923 -0.6193
vn -0.8024 0.3620 0.4745
vn -0.6191 -0.5797 -0.5298
vn -0.6191 -0.5797 -0.5298
vn -0.6191 -0.5797 -0.5298
vn -0.2645 0.9630 -0.0511
vn -0.2645 0.9630 -0.0511
vn -0.2645 0.9630 -0.0511
vn -0.7877 0.1257 0.6030
vn -0.7376 0.2409 0.6308
vn -0.3233 -0.9318 -0.1652
vn -0.8597 -0.3588 0.3636
vn -0.8548 -0.3708 0.3630
vn -0.8503 -0.3965 0.3462
vn -0.9812 0.1898 -0.0346
vn -0.9812 0.1898 -0.0346
vn -0.9812 0.1898 -0.0346
vn -0.3550 0.4996 0.7902
vn -0.4272 0.4728 0.7707
vn -0.4241 0.5026 0.7533
vn -0.5193 0.2638 -0.8128
vn -0.5028 0.3068 -0.8081
vn -0.4375 0.3117 -0.8435
vn -0.8260 -0.5324 0.1853
vn -0.8431 0.2166 0.4922
vn -0.8292 0.1042 0.5492
vn 0.5690 0.8219 -0.0274
vn 0.4352 -0.3014 -0.8484
vn -0.2414 0.0986 -0.9654
vn -0.7211 0.3937 -0.5701
vn -0.5765 0.4505 0.6817
vn -0.8366 0.3068 0.4538
vn 0.0966 -0.1473 0.9844
vn 0.0766 -0.1253 0.9891
vn 0.2960 -0.3648 0.8828
vn -0.5147 0.4872 0.7055
vn -0.8669 0.2734 -0.4167
vn -0.8669 0.2734 -0.4167
vn -0.8669 0.2734 -0.4167
vn 0.6076 0.7936 -0.0328
vn -0.9309 -0.3564 0.0805
vn -0.5878 0.4545 0.6693
vn -0.5869 -0.4717 -0.6581
vn -0.5371 0.4872 0.6886
vn -0.4715 0.3942 0.7888
vn -0.4971 0.4169 0.7610
vn -0.5093 0.4531 0.7317
vn -0.4563 0.5225 -0.7203
vn -0.4699 0.3640 0.8042
vn -0.7528 0.4498 -0.4805
vn -0.9602 -0.2488 -0.1274
vn -0.9436 -0.3200 0.0854
vn -0.4662 0.5564 -0.6878
vn -0.3338 -0.9249 0.1822
vn -0.1788 0.1486 0.9726
vn 0.6343 -0.6214 0.4598
vn -0.2443 -0.9670 0.0721
vn -0.5791 0.4690 0.6668
vn -0.1968 0.1663 0.9662
vn -0.3794 -0.9228 0.0676
vn -0.6425 0.4339 0.6316
vn -0.4299 -0.8585 0.2796
vn -0.6426 0.5341 0.5494
vn 0.3552 -0.4695 0.8083
vn 0.3830 -0.4833 0.7872
vn 0.3942 -0.4750 0.7867
vn -0.4348 -0.8663 0.2461
vn -0.6910 0.5633 -0.4530
vn -0.6428 0.4307 0.6335
vn -0.6347 0.5390 0.5537
vn -0.4546 0.4757 -0.7531
vn 0.2517 -0.2930 0.9224
vn 0.3406 -0.4019 0.8500
vn -0.5802 0.4544 0.6759
vn 0.2366 -0.7803 0.5790
vn 0.2487 -0.6916 0.6781
vn -0.0923 -0.9889 -0.1162
vn -0.0923 -0.9889 -0.1162
vn -0.0923 -0.9889 -0.1162
vn -0.4750 0.3893 0.7892
vn 0.4435 -0.2930 -0.8471
vn -0.4241 -0.8423 0.3327
vn 0.6859 -0.5880 -0.4287
vn 0.6859 -0.5880 -0.4287
vn 0.6859 -0.5880 -0.4287
vn 0.3485 -0.4401 0.8276
vn -0.4401 0.4871 -0.7543
vn -0.5927 0.4692 0.6547
vn -0.7482 -0.0916 0.6571
vn -0.7482 -0.0916 0.6571
vn -0.7482 -0.0916 0.6571
vn -0.4810 0.3852 0.7876
vn 0.6424 -0.6132 0.4597
vn -0.4297 -0.8692 0.2445
vn -0.6598 0.5466 0.5157
vn 0.4436 -0.4875 0.7520
vn -0.4484 0.4851 -0.7507
vn 0.2475 -0.2864 0.9256
vn 0.6402 -0.5551 -0.5310
vn 0.6044 -0.5271 -0.5973
vn 0.6103 -0.5508 -0.5693
vn 0.5948 -0.5249 -0.6088
vn 0.5749 -0.5579 -0.5985
vn -0.4906 0.3746 0.7867
vn 0.3859 -0.4212 0.8208
vn 0.3913 -0.4108 0.8235
vn 0.4071 -0.5144 0.7548
vn 0.4034 -0.5252 0.7493
vn -0.6048 0.4706 0.6425
vn 0.4122 -0.4739 0.7782
vn 0.3941 -0.3955 0.8296
vn 0.3897 -0.4566 0.7997
vn 0.3828 -0.4521 0.8056
vn 0.3923 -0.4765 0.7868
vn 0.6122 -0.5249 -0.5913
vn 0.7125 -0.6951 0.0957
vn 0.7125 -0.6951 0.0957
vn 0.7125 -0.6951 0.0957
vn -0.6393 0.5590 0.5279
vn 0.6102 -0.5327 -0.5864
vn -0.6238 0.4901 0.6088
vn -0.4552 0.4813 -0.7491
vn -0.4627 0.4698 -0.7518
vn 0.5351 -0.3720 0.7585
vn 0.2988 -0.3684 0.8804
vn -0.4907 0.3925 0.7779
vn -0.4768 0.3973 0.7841
vn -0.4804 0.3743 0.7932
vn 0.6030 -0.4592 -0.6523
vn 0.7451 -0.6382 -0.1939
vn 0.7449 -0.6374 -0.1970
vn 0.4377 -0.2994 -0.8478
vn 0.4385 -0.2960 -0.8486
vn 0.4384 -0.2981 -0.8479
vn 0.3521 -0.3974 0.8474
vn 0.5873 -0.5953 0.5483
vn 0.5725 -0.6002 0.5586
vn 0.5918 -0.6086 0.5286
vn -0.4752 0.3670 0.7996
vn -0.4894 0.3346 0.8053
vn 0.3861 -0.5905 0.7087
vn 0.3861 -0.5905 0.7087
vn 0.3861 -0.5905 0.7087
vn 0.9226 -0.1489 0.3558
vn 0.9575 0.0485 0.2845
vn 0.9171 0.1698 0.3607
vn 0.7760 0.1877 0.6021
vn 0.7300 0.3955 0.5573
vn 0.7411 -0.0152 0.6712
vn 0.8471 -0.2047 0.4905
vn 0.3482 -0.4139 0.8411
vn 0.3685 -0.4335 0.8224
vn 0.3422 -0.4453 0.8274
vn 0.3472 -0.4104 0.8432
vn 0.7006 -0.6987 0.1450
vn 0.7007 -0.6988 0.1442
vn 0.6995 -0.6955 0.1644
vn 0.6582 -0.5512 -0.5128
vn 0.6582 -0.5512 -0.5128
vn 0.6582 -0.5512 -0.5128
vn 0.6021 -0.5102 -0.6141
vn 0.5981 -0.5233 -0.6070
vn 0.3575 -0.4621 0.8116
vn 0.3575 -0.4621 0.8116
vn 0.3575 -0.4621 0.8116
vn 0.6684 0.1158 0.7347
vn 0.5981 0.3268 0.7318
vn 0.6994 -0.6953 0.1654
vn 0.6883 -0.0575 0.7231
vn 0.6734 0.3324 0.6604
vn 0.5870 -0.5563 -0.5883
vn 0.3859 -0.2671 0.8830
vn 0.7959 0.0363 0.6044
vn -0.6232 0.4726 0.6231
vn -0.6066 0.4803 0.6336
vn -0.6121 0.4759 0.6315
vn 0.4081 -0.1656 0.8978
vn 0.3827 0.0592 0.9220
vn -0.4354 -0.5457 0.7160
vn -0.4196 -0.5280 0.7383
vn -0.4152 -0.5950 0.6881
vn -0.6518 0.4385 0.6188
vn -0.6099 0.4654 0.6414
vn 0.5914 -0.5434 -0.5957
vn 0.0000 1.0000 0.0000
vn 0.0000 1.0000 0.0000
vn 0.0000 1.0000 0.0000
vn 0.0000 1.0000 0.0000
vn 0.0000 1.0000 0.0000
vn 0.0000 1.0000 0.0000
vn 0.0000 1.0000 0.0000
vn 0.0000 1.0000 0.0000
vn 0.0000 1.0000 0.0000
vn 0.0000 1.0000 0.0000
vn 0.0000 1.0000 0.0000
vn 0.0000 1.0000 0.0000
vn 0.0000 1.0000 0.0000
vn 0.0000 1.0000 0.0000
vn 0.0000 1.0000 0.0000
vn 0.0000 1.0000 0.0000
vn 0.0000 1.0000 0.0000
vn 0.0000 1.0000 0.0000
vn 0.0000 1.0000 0.0000
vn 0.0000 1.0000 0.0000
vn 0.0000 1.0000 0.0000
vn 0.0000 1.0000 0.0000
vn 0.0000 1.0000 0.0000
vn 0.0000 1.0000 0.0000
vn 0.0000 1.0000 0.0000
vn 0.0000 1.0000 0.0000
vn 0.0000 1.0000 0.0000
vn 0.0000 1.0000 0.0000
vn 0.0000 1.0000 0.0000
vn 0.0000 1.0000 0.0000
vn 0.0000 1.0000 0.0000
vn 0.0000 1.0000 0.0000
vn 0.0000 1.0000 0.0000
vn 0.0000 1.0000 0.0000
vn 0.0000 1.0000 0.0000
vn 0.0000 1.0000 0.0000
vn 0.0000 1.0000 0.0000
vn 0.0000 1.0000 0.0000
vn 0.0000 1.0000 0.0000
vn 0.0000 1.0000 0.0000
vn 0.0000 1.0000 0.0000
vn 0.0000 1.0000 0.0000
f 232/232/232 234/234/234 233/233/233
f 239/239/239 237/237/237 238/238/238
f 238/238/238 240/240/240 239/239/239
f 243/243/243 244/244/244 234/234/234
f 247/247/247 245/245/245 246/246/246
f 248/248/248 249/249/249 250/250/250
f 235/235/235 251/251/251 236/236/236
f 243/243/243 252/252/252 244/244/244
f 255/255/255 256/256/256 257/257/257
f 258/258/258 257/257/257 256/256/256
f 241/241/241 259/259/259 242/242/242
f 235/235/235 260/260/260 261/261/261
f 1/1/1 5/5/5 4/4/4
f 262/262/262 236/236/236 251/251/251
f 263/263/263 264/264/264 265/265/265
f 266/266/266 267/267/267 268/268/268
f 251/251/251 235/235/235 261/261/261
f 263/263/263 265/265/265 269/269/269
f 259/259/259 241/241/241 270/270/270
f 7/7/7 8/8/8 9/9/9
f 238/238/238 262/262/262 271/271/271
f 236/236/236 262/262/262 238/238/238
f 234/234/234 272/272/272 233/233/233
f 273/273/273 274/274/274 275/275/275
f 234/234/234 244/244/244 272/272/272
f 267/267/267 276/276/276 268/268/268
f 2/2/2 4/4/4 10/10/10
f 11/11/11 8/8/8 12/12/12
f 277/277/277 278/278/278 279/279/279
f 13/13/13 14/14/14 15/15/15
f 280/280/280 281/281/281 240/240/240
f 9/9/9 8/8/8 11/11/11
f 281/281/281 280/280/280 282/282/282
f 283/283/283 284/284/284 285/285/285
f 286/286/286 287/287/287 288/288/288
f 279/279/279 278/278/278 289/289/289
f 10/10/10 18/18/18 2/2/2
f 19/19/19 20/20/20 21/21/21
f 22/22/22 23/23/23 24/24/24
f 22/22/22 25/25/25 13/13/13
f 26/26/26 15/15/15 14/14/14
f 30/30/30 24/24/24 23/23/23
f 25/25/25 31/31/31 13/13/13
f 21/21/21 20/20/20 16/16/16
f 30/30/30 32/32/32 24/24/24
f 33/33/33 30/30/30 17/17/17
f 278/278/278 290/290/290 289/289/289
f 22/22/22 24/24/24 25/25/25
f 241/241/241 291/291/291 270/270/270
f 34/34/34 35/35/35 36/36/36
f 35/35/35 20/20/20 19/19/19
f 292/292/292 293/293/293 294/294/294
f 295/295/295 253/253/253 254/254/254
f 296/296/296 297/297/297 287/287/287
f 298/298/298 280/280/280 240/240/240
f 33/33/33 37/37/37 30/30/30
f 14/14/14 13/13/13 31/31/31
f 375/375/375 376/376/376 377/377/377
f 9/9/9 11/11/11 34/34/34
f 299/299/299 292/292/292 300/300/300
f 32/32/32 30/30/30 37/37/37
f 288/288/288 287/287/287 297/297/297
f 301/301/301 302/302/302 303/303/303
f 289/289/289 290/290/290 304/304/304
f 253/253/253 305/305/305 306/306/306
f 372/372/372 307/307/307 308/308/308
f 29/29/29 28/28/28 38/38/38
f 40/40/40 41/41/41 42/42/42
f 43/43/43 44/44/44 45/45/45
f 46/46/46 47/47/47 48/48/48
f 49/49/49 231/231/231 50/50/50
f 309/309/309 276/276/276 267/267/267
f 49/49/49 51/51/51 52/52/52
f 53/53/53 32/32/32 37/37/37
f 32/32/32 53/53/53 55/55/55
f 27/27/27 54/54/54 56/56/56
f 17/17/17 57/57/57 58/58/58
f 50/50/50 51/51/51 49/49/49
f 376/376/376 375/375/375 378/378/378
f 300/300/300 292/292/292 294/294/294
f 59/59/59 60/60/60 61/61/61
f 62/62/62 59/59/59 61/61/61
f 302/302/302 310/310/310 303/303/303
f 3/3/3 63/63/63 39/39/39
f 240/240/240 238/238/238 298/298/298
f 297/297/297 296/296/296 311/311/311
f 379/379/379 380/380/380 381/381/381
f 64/64/64 40/40/40 65/65/65
f 66/66/66 44/44/44 67/67/67
f 40/40/40 42/42/42 68/68/68
f 33/33/33 17/17/17 58/58/58
f 382/382/382 383/383/383 384/384/384
f 312/312/312 313/313/313 314/314/314
f 69/69/69 14/14/14 31/31/31
f 11/11/11 70/70/70 34/34/34
f 385/385/385 386/386/386 387/387/387
f 388/388/388 378/378/378 389/389/389
f 303/303/303 310/310/310 315/315/315
f 20/20/20 35/35/35 34/34/34
f 385/385/385 390/390/390 386/386/386
f 391/391/391 376/376/376 392/392/392
f 376/376/376 378/378/378 388/388/388
f 62/62/62 61/61/61 71/71/71
f 51/51/51 6/6/6 52/52/52
f 316/316/316 317/317/317 280/280/280
f 381/381/381 393/393/393 394/394/394
f 316/316/316 280/280/280 298/298/298
f 34/34/34 70/70/70 20/20/20
f 395/395/395 384/384/384 383/383/383
f 381/381/381 394/394/394 396/396/396
f 72/72/72 73/73/73 48/48/48
f 74/74/74 75/75/75 76/76/76
f 241/241/241 318/318/318 319/319/319
f 77/77/77 39/39/39 63/63/63
f 397/397/397 398/398/398 399/399/399
f 400/400/400 401/401/401 402/402/402
f 78/78/78 79/79/79 80/80/80
f 320/320/320 321/321/321 322/322/322
f 44/44/44 81/81/81 45/45/45
f 40/40/40 82/82/82 65/65/65
f 83/83/83 68/68/68 84/84/84
f 397/397/397 399/399/399 403/403/403
f 44/44/44 66/66/66 81/81/81
f 392/392/392 376/376/376 388/388/388
f 290/290/290 278/278/278 323/323/323
f 381/381/381 380/380/380 393/393/393
f 373/373/373 324/324/324 325/325/325
f 82/82/82 40/40/40 68/68/68
f 31/31/31 85/85/85 69/69/69
f 31/31/31 86/86/86 85/85/85
f 76/76/76 75/75/75 87/87/87
f 76/76/76 87/87/87 88/88/88
f 385/385/385 387/387/387 404/404/404
f 405/405/405 393/393/393 380/380/380
f 309/309/309 267/267/267 326/326/326
f 83/83/83 84/84/84 89/89/89
f 81/81/81 66/66/66 90/90/90
f 290/290/290 327/327/327 304/304/304
f 328/328/328 329/329/329 330/330/330
f 331/331/331 332/332/332 333/333/333
f 253/253/253 295/295/295 305/305/305
f 66/66/66 91/91/91 90/90/90
f 328/328/328 334/334/334 329/329/329
f 397/397/397 406/406/406 398/398/398
f 73/73/73 92/92/92 48/48/48
f 393/393/393 405/405/405 407/407/407
f 93/93/93 94/94/94 95/95/95
f 408/408/408 388/388/388 389/389/389
f 96/96/96 82/82/82 68/68/68
f 61/61/61 97/97/97 98/98/98
f 57/57/57 99/99/99 58/58/58
f 335/335/335 336/336/336 337/337/337
f 60/60/60 100/100/100 101/101/101
f 102/102/102 103/103/103 104/104/104
f 102/102/102 104/104/104 105/105/105
f 96/96/96 68/68/68 83/83/83
f 396/396/396 394/394/394 409/409/409
f 338/338/338 339/339/339 340/340/340
f 410/410/410 411/411/411 412/412/412
f 291/291/291 241/241/241 319/319/319
f 267/267/267 341/341/341 326/326/326
f 413/413/413 409/409/409 394/394/394
f 106/106/106 107/107/107 108/108/108
f 88/88/88 87/87/87 109/109/109
f 88/88/88 109/109/109 110/110/110
f 402/402/402 401/401/401 414/414/414
f 388/388/388 408/408/408 415/415/415
f 83/83/83 89/89/89 111/111/111
f 388/388/388 415/415/415 416/416/416
f 417/417/417 418/418/418 419/419/419
f 58/58/58 99/99/99 112/112/112
f 295/295/295 342/342/342 305/305/305
f 103/103/103 113/113/113 104/104/104
f 420/420/420 386/386/386 390/390/390
f 343/343/343 341/341/341 344/344/344
f 114/114/114 115/115/115 116/116/116
f 335/335/335 345/345/345 336/336/336
f 117/117/117 118/118/118 119/119/119
f 61/61/61 101/101/101 97/97/97
f 120/120/120 121/121/121 98/98/98
f 48/48/48 47/47/47 72/72/72
f 92/92/92 73/73/73 122/122/122
f 421/421/421 422/422/422 423/423/423
f 123/123/123 124/124/124 125/125/125
f 61/61/61 60/60/60 101/101/101
f 385/385/385 424/424/424 390/390/390
f 126/126/126 127/127/127 128/128/128
f 414/414/414 425/425/425 402/402/402
f 86/86/86 129/129/129 85/85/85
f 130/130/130 131/131/131 132/132/132
f 133/133/133 134/134/134 135/135/135
f 136/136/136 137/137/137 138/138/138
f 72/72/72 139/139/139 140/140/140
f 89/89/89 141/141/141 111/111/111
f 426/426/426 427/427/427 409/409/409
f 142/142/142 143/143/143 144/144/144
f 106/106/106 108/108/108 145/145/145
f 426/426/426 409/409/409 413/413/413
f 119/119/119 118/118/118 146/146/146
f 112/112/112 99/99/99 147/147/147
f 128/128/128 127/127/127 148/148/148
f 149/149/149 104/104/104 113/113/113
f 326/326/326 341/341/341 343/343/343
f 143/143/143 150/150/150 144/144/144
f 127/127/127 151/151/151 148/148/148
f 145/145/145 152/152/152 106/106/106
f 98/98/98 97/97/97 120/120/120
f 153/153/153 116/116/116 115/115/115
f 295/295/295 346/346/346 342/342/342
f 154/154/154 155/155/155 134/134/134
f 428/428/428 414/414/414 401/401/401
f 429/429/429 702/702/702 430/430/430
f 156/156/156 157/157/157 158/158/158
f 159/159/159 160/160/160 161/161/161
f 431/431/431 432/432/432 433/433/433
f 162/162/162 163/163/163 164/164/164
f 120/120/120 165/165/165 121/121/121
f 166/166/166 150/150/150 167/167/167
f 397/397/397 434/434/434 406/406/406
f 318/318/318 347/347/347 319/319/319
f 168/168/168 169/169/169 170/170/170
f 421/421/421 435/435/435 422/422/422
f 134/134/134 155/155/155 135/135/135
f 154/154/154 171/171/171 155/155/155
f 150/150/150 143/143/143 167/167/167
f 436/436/436 437/437/437 438/438/438
f 439/439/439 440/440/440 441/441/441
f 304/304/304 327/327/327 348/348/348
f 172/172/172 173/173/173 174/174/174
f 349/349/349 374/374/374 350/350/350
f 138/138/138 137/137/137 175/175/175
f 295/295/295 304/304/304 346/346/346
f 176/176/176 177/177/177 178/178/178
f 179/179/179 125/125/125 124/124/124
f 112/112/112 147/147/147 180/180/180
f 132/132/132 131/131/131 181/181/181
f 179/179/179 182/182/182 125/125/125
f 175/175/175 183/183/183 184/184/184
f 346/346/346 351/351/351 342/342/342
f 72/72/72 140/140/140 73/73/73
f 173/173/173 153/153/153 115/115/115
f 158/158/158 185/185/185 186/186/186
f 187/187/187 186/186/186 188/188/188
f 426/426/426 442/442/442 427/427/427
f 158/158/158 186/186/186 187/187/187
f 352/352/352 353/353/353 354/354/354
f 189/189/189 190/190/190 191/191/191
f 702/702/702 429/429/429 443/443/443
f 444/444/444 445/445/445 446/446/446
f 115/115/115 174/174/174 173/173/173
f 192/192/192 112/112/112 180/180/180
f 447/447/447 448/448/448 449/449/449
f 175/175/175 193/193/193 183/183/183
f 450/450/450 435/435/435 421/421/421
f 194/194/194 195/195/195 159/159/159
f 451/451/451 452/452/452 453/453/453
f 131/131/131 192/192/192 181/181/181
f 196/196/196 197/197/197 198/198/198
f 454/454/454 455/455/455 456/456/456
f 438/438/438 437/437/437 457/457/457
f 193/193/193 199/199/199 183/183/183
f 346/346/346 304/304/304 355/355/355
f 181/181/181 192/192/192 200/200/200
f 191/191/191 190/190/190 201/201/201
f 458/458/458 428/428/428 401/401/401
f 459/459/459 460/460/460 461/461/461
f 462/462/462 463/463/463 464/464/464
f 202/202/202 203/203/203 204/204/204
f 304/304/304 348/348/348 356/356/356
f 304/304/304 356/356/356 355/355/355
f 205/205/205 206/206/206 207/207/207
f 357/357/357 358/358/358 359/359/359
f 360/360/360 319/319/319 361/361/361
f 180/180/180 208/208/208 209/209/209
f 210/210/210 211/211/211 202/202/202
f 309/309/309 326/326/326 362/362/362
f 138/138/138 212/212/212 213/213/213
f 355/355/355 351/351/351 346/346/346
f 363/363/363 349/349/349 350/350/350
f 445/445/445 465/465/465 446/446/446
f 460/460/460 466/466/466 461/461/461
f 214/214/214 149/149/149 113/113/113
f 202/202/202 204/204/204 210/210/210
f 215/215/215 216/216/216 179/179/179
f 138/138/138 184/184/184 212/212/212
f 347/347/347 318/318/318 364/364/364
f 180/180/180 209/209/209 192/192/192
f 217/217/217 218/218/218 219/219/219
f 176/176/176 220/220/220 221/221/221
f 216/216/216 182/182/182 179/179/179
f 365/365/365 366/366/366 367/367/367
f 368/368/368 366/366/366 365/365/365
f 209/209/209 200/200/200 192/192/192
f 467/467/467 468/468/468 469/469/469
f 189/189/189 222/222/222 223/223/223
f 470/470/470 471/471/471 472/472/472
f 176/176/176 221/221/221 177/177/177
f 473/473/473 474/474/474 475/475/475
f 469/469/469 468/468/468 476/476/476
f 477/477/477 478/478/478 479/479/479
f 138/138/138 175/175/175 184/184/184
f 185/185/185 158/158/158 157/157/157
f 474/474/474 480/480/480 475/475/475
f 481/481/481 482/482/482 483/483/483
f 484/484/484 485/485/485 438/438/438
f 369/369/369 309/309/309 370/370/370
f 468/468/468 486/486/486 476/476/476
f 487/487/487 466/466/466 460/460/460
f 488/488/488 489/489/489 490/490/490
f 491/491/491 492/492/492 493/493/493
f 224/224/224 216/216/216 215/215/215
f 494/494/494 495/495/495 496/496/496
f 497/497/497 498/498/498 499/499/499
f 216/216/216 225/225/225 182/182/182
f 446/446/446 465/465/465 500/500/500
f 501/501/501 502/502/502 503/503/503
f 189/189/189 223/223/223 190/190/190
f 504/504/504 505/505/505 492/492/492
f 428/428/428 458/458/458 506/506/506
f 225/225/225 226/226/226 227/227/227
f 226/226/226 225/225/225 216/216/216
f 464/464/464 463/463/463 507/507/507
f 203/203/203 202/202/202 228/228/228
f 224/224/224 229/229/229 216/216/216
f 480/480/480 474/474/474 508/508/508
f 460/460/460 509/509/509 487/487/487
f 465/465/465 510/510/510 500/500/500
f 224/224/224 230/230/230 229/229/229
f 371/371/371 364/364/364 318/318/318
f 490/490/490 489/489/489 511/511/511
f 481/481/481 512/512/512 482/482/482
f 490/490/490 511/511/511 513/513/513
f 514/514/514 515/515/515 516/516/516
f 517/517/517 518/518/518 519/519/519
f 520/520/520 521/521/521 522/522/522
f 523/523/523 524/524/524 525/525/525
f 509/509/509 526/526/526 487/487/487
f 510/510/510 527/527/527 500/500/500
f 528/528/528 529/529/529 530/530/530
f 361/361/361 319/319/319 347/347/347
f 520/520/520 522/522/522 531/531/531
f 504/504/504 492/492/492 532/532/532
f 509/509/509 533/533/533 526/526/526
f 507/507/507 463/463/463 534/534/534
f 535/535/535 536/536/536 457/457/457
f 505/505/505 504/504/504 537/537/537
f 538/538/538 539/539/539 540/540/540
f 536/536/536 535/535/535 541/541/541
f 542/542/542 543/543/543 544/544/544
f 434/434/434 545/545/545 546/546/546
f 492/492/492 491/491/491 547/547/547
f 548/548/548 549/549/549 550/550/550
f 551/551/551 503/503/503 502/502/502
f 457/457/457 536/536/536 438/438/438
f 552/552/552 431/431/431 433/433/433
f 553/553/553 554/554/554 530/530/530
f 555/555/555 556/556/556 500/500/500
f 557/557/557 546/546/546 545/545/545
f 502/502/502 558/558/558 551/551/551
f 542/542/542 544/544/544 559/559/559
f 370/370/370 309/309/309 362/362/362
f 560/560/560 548/548/548 550/550/550
f 553/553/553 530/530/530 529/529/529
f 484/484/484 438/438/438 561/561/561
f 553/553/553 562/562/562 554/554/554
f 479/479/479 478/478/478 563/563/563
f 542/542/542 559/559/559 564/564/564
f 531/531/531 522/522/522 565/565/565
f 556/556/556 446/446/446 500/500/500
f 566/566/566 545/545/545 434/434/434
f 560/560/560 550/550/550 567/567/567
f 568/568/568 569/569/569 570/570/570
f 566/566/566 434/434/434 397/397/397
f 560/560/560 567/567/567 571/571/571
f 572/572/572 573/573/573 574/574/574
f 531/531/531 565/565/565 575/575/575
f 576/576/576 577/577/577 512/512/512
f 542/542/542 578/578/578 579/579/579
f 478/478/478 580/580/580 563/563/563
f 542/542/542 564/564/564 578/578/578
f 581/581/581 582/582/582 583/583/583
f 584/584/584 585/585/585 586/586/586
f 438/438/438 536/536/536 561/561/561
f 587/587/587 588/588/588 481/481/481
f 588/588/588 512/512/512 481/481/481
f 547/547/547 532/532/532 492/492/492
f 446/446/446 556/556/556 589/589/589
f 590/590/590 591/591/591 592/592/592
f 593/593/593 594/594/594 595/595/595
f 596/596/596 597/597/597 598/598/598
f 599/599/599 600/600/600 601/601/601
f 591/591/591 602/602/602 592/592/592
f 603/603/603 604/604/604 563/563/563
f 571/571/571 567/567/567 605/605/605
f 536/536/536 541/541/541 606/606/606
f 599/599/599 607/607/607 608/608/608
f 562/562/562 553/553/553 609/609/609
f 599/599/599 608/608/608 600/600/600
f 563/563/563 580/580/580 610/610/610
f 611/611/611 612/612/612 613/613/613
f 597/597/597 614/614/614 598/598/598
f 615/615/615 616/616/616 617/617/617
f 618/618/618 605/605/605 567/567/567
f 610/610/610 603/603/603 563/563/563
f 592/592/592 602/602/602 619/619/619
f 620/620/620 609/609/609 553/553/553
f 433/433/433 621/621/621 552/552/552
f 598/598/598 614/614/614 622/622/622
f 623/623/623 624/624/624 625/625/625
f 572/572/572 574/574/574 626/626/626
f 588/588/588 576/576/576 512/512/512
f 627/627/627 624/624/624 623/623/623
f 600/600/600 608/608/608 628/628/628
f 629/629/629 619/619/619 630/630/630
f 631/631/631 626/626/626 574/574/574
f 602/602/602 630/630/630 619/619/619
f 570/570/570 569/569/569 632/632/632
f 575/575/575 565/565/565 633/633/633
f 557/557/557 545/545/545 634/634/634
f 632/632/632 635/635/635 570/570/570
f 636/636/636 622/622/622 614/614/614
f 575/575/575 633/633/633 637/637/637
f 611/611/611 613/613/613 703/703/703
f 635/635/635 632/632/632 638/638/638
f 577/577/577 576/576/576 639/639/639
f 640/640/640 632/632/632 569/569/569
f 636/636/636 641/641/641 622/622/622
f 642/642/642 643/643/643 644/644/644
f 569/569/569 645/645/645 640/640/640
f 608/608/608 646/646/646 628/628/628
f 639/639/639 647/647/647 577/577/577
f 622/622/622 641/641/641 648/648/648
f 649/649/649 574/574/574 573/573/573
f 703/703/703 613/613/613 650/650/650
f 504/504/504 532/532/532 651/651/651
f 620/620/620 652/652/652 609/609/609
f 653/653/653 504/504/504 654/654/654
f 655/655/655 656/656/656 657/657/657
f 627/627/627 623/623/623 658/658/658
f 659/659/659 536/536/536 606/606/606
f 660/660/660 632/632/632 640/640/640
f 661/661/661 662/662/662 663/663/663
f 504/504/504 651/651/651 664/664/664
f 573/573/573 665/665/665 649/649/649
f 648/648/648 666/666/666 620/620/620
f 667/667/667 668/668/668 669/669/669
f 652/652/652 620/620/620 666/666/666
f 658/658/658 623/623/623 670/670/670
f 557/557/557 634/634/634 671/671/671
f 672/672/672 632/632/632 660/660/660
f 632/632/632 672/672/672 638/638/638
f 641/641/641 673/673/673 648/648/648
f 644/644/644 643/643/643 674/674/674
f 675/675/675 649/649/649 665/665/665
f 664/664/664 654/654/654 504/504/504
f 703/703/703 650/650/650 676/676/676
f 677/677/677 678/678/678 679/679/679
f 679/679/679 680/680/680 681/681/681
f 670/670/670 682/682/682 658/658/658
f 654/654/654 664/664/664 683/683/683
f 641/641/641 636/636/636 673/673/673
f 704/704/704 705/705/705 706/706/706
f 664/664/664 684/684/684 683/683/683
f 643/643/643 685/685/685 686/686/686
f 707/707/707 708/708/708 709/709/709
f 710/710/710 711/711/711 712/712/712
f 687/687/687 666/666/666 648/648/648
f 674/674/674 643/643/643 688/688/688
f 713/713/713 714/714/714 715/715/715
f 716/716/716 715/715/715 714/714/714
f 678/678/678 680/680/680 679/679/679
f 683/683/683 684/684/684 689/689/689
f 705/705/705 717/717/717 706/706/706
f 717/717/717 718/718/718 706/706/706
f 688/688/688 643/643/643 690/690/690
f 719/719/719 720/720/720 721/721/721
f 690/690/690 643/643/643 691/691/691
f 643/643/643 686/686/686 692/692/692
f 680/680/680 678/678/678 693/693/693
f 722/722/722 723/723/723 724/724/724
f 724/724/724 725/725/725 722/722/722
f 694/694/694 695/695/695 696/696/696
f 726/726/726 725/725/725 724/724/724
f 729/729/729 730/730/730 731/731/731
f 725/725/725 727/727/727 722/722/722
f 732/732/732 730/730/730 729/729/729
f 697/697/697 648/648/648 673/673/673
f 643/643/643 692/692/692 691/691/691
f 733/733/733 734/734/734 735/735/735
f 678/678/678 698/698/698 693/693/693
f 697/697/697 673/673/673 636/636/636
f 736/736/736 737/737/737 738/738/738
f 762/762/762 739/739/739 740/740/740
f 741/741/741 742/742/742 743/743/743
f 727/727/727 725/725/725 744/744/744
f 745/745/745 744/744/744 725/725/725
f 746/746/746 733/733/733 735/735/735
f 725/725/725 726/726/726 745/745/745
f 727/727/727 744/744/744 747/747/747
f 699/699/699 687/687/687 648/648/648
f 726/726/726 748/748/748 745/745/745
f 728/728/728 727/727/727 747/747/747
f 700/700/700 701/701/701 675/675/675
f 740/740/740 749/749/749 762/762/762
f 730/730/730 750/750/750 731/731/731
f 745/745/745 751/751/751 744/744/744
f 752/752/752 753/753/753 754/754/754
f 648/648/648 697/697/697 699/699/699
f 744/744/744 751/751/751 747/747/747
f 750/750/750 730/730/730 755/755/755
f 675/675/675 701/701/701 649/649/649
f 756/756/756 750/750/750 755/755/755
f 757/757/757 758/758/758 759/759/759
f 760/760/760 752/752/752 754/754/754
f 760/760/760 754/754/754 761/761/761
f 160/160/160 159/159/159 195/195/195
f 763/763/763 764/764/764 765/765/765
f 763/763/763 765/765/765 764/764/764
f 763/763/763 765/765/765 766/766/766
f 763/763/763 766/766/766 765/765/765
f 763/763/763 766/766/766 767/767/767
f 763/763/763 767/767/767 766/766/766
f 763/763/763 767/767/767 768/768/768
f 763/763/763 768/768/768 767/767/767
f 763/763/763 768/768/768 769/769/769
f 763/763/763 769/769/769 768/768/768
f 763/763/763 769/769/769 770/770/770
f 763/763/763 770/770/770 769/769/769
f 763/763/763 770/770/770 771/771/771
f 763/763/763 771/771/771 770/770/770
f 763/763/763 771/771/771 772/772/772
f 763/763/763 772/772/772 771/771/771
f 763/763/763 772/772/772 773/773/773
f 763/763/763 773/773/773 772/772/772
f 763/763/763 773/773/773 774/774/774
f 763/763/763 774/774/774 773/773/773
f 763/763/763 774/774/774 775/775/775
f 763/763/763 775/775/775 774/774/774
f 763/763/763 775/775/775 776/776/776
f 763/763/763 776/776/776 775/775/775
f 763/763/763 776/776/776 777/777/777
f 763/763/763 777/777/777 776/776/776
f 763/763/763 777/777/777 778/778/778
f 763/763/763 778/778/778 777/777/777
f 763/763/763 778/778/778 779/779/779
f 763/763/763 779/779/779 778/778/778
f 763/763/763 779/779/779 780/780/780
f 763/763/763 780/780/780 779/779/779
f 763/763/763 780/780/780 781/781/781
f 763/763/763 781/781/781 780/780/780
f 763/763/763 781/781/781 782/782/782
f 763/763/763 782/782/782 781/781/781
f 763/763/763 782/782/782 783/783/783
f 763/763/763 783/783/783 782/782/782
f 763/763/763 783/783/783 784/784/784
f 763/763/763 784/784/784 783/783/783
f 763/763/763 784/784/784 785/785/785
f 763/763/763 785/785/785 784/784/784
f 763/763/763 785/785/785 786/786/786
f 763/763/763 786/786/786 785/785/785
f 763/763/763 786/786/786 787/787/787
f 763/763/763 787/787/787 786/786/786
f 763/763/763 787/787/787 788/788/788
f 763/763/763 788/788/788 787/787/787
f 763/763/763 788/788/788 789/789/789
f 763/763/763 789/789/789 788/788/788
f 763/763/763 789/789/789 790/790/790
f 763/763/763 790/790/790 789/789/789
f 763/763/763 790/790/790 791/791/791
f 763/763/763 791/791/791 790/790/790
f 763/763/763 791/791/791 764/764/764
f 763/763/763 764/764/764 791/791/791
f 792/792/792 793/793/793 794/794/794
f 792/792/792 794/794/794 793/793/793
f 792/792/792 794/794/794 795/795/795
f 792/792/792 795/795/795 794/794/794
f 792/792/792 795/795/795 796/796/796
f 792/792/792 796/796/796 795/795/795
f 792/792/792 796/796/796 797/797/797
f 792/792/792 797/797/797 796/796/796
f 792/792/792 797/797/797 798/798/798
f 792/792/792 798/798/798 797/797/797
f 792/792/792 798/798/798 799/799/799
f 792/792/792 799/799/799 798/798/798
f 792/792/792 799/799/799 800/800/800
f 792/792/792 800/800/800 799/799/799
f 792/792/792 800/800/800 801/801/801
f 792/792/792 801/801/801 800/800/800
f 792/792/792 801/801/801 802/802/802
f 792/792/792 802/802/802 801/801/801
f 792/792/792 802/802/802 803/803/803
f 792/792/792 803/803/803 802/802/802
f 792/792/792 803/803/803 804/804/804
f 792/792/792 804/804/804 803/803/803
f 792/792/792 804/804/804 793/793/793
f 792/792/792 793/793/793 804/804/804
