o forearm_right
v 0.68681 0.99600 -0.01578
v 0.66887 0.99184 -0.03363
v 0.68105 0.99506 -0.01297
v 0.68381 0.99517 -0.01197
v 0.68105 0.99506 -0.01297
v 0.66887 0.99184 -0.03363
v 0.67084 0.98602 -0.01689
v 0.66677 0.98920 -0.03900
v 0.66887 0.99184 -0.03363
v 0.68681 0.99600 -0.01578
v 0.67221 1.00009 -0.00141
v 0.67252 0.98208 -0.00552
v 0.66288 0.99611 -0.02091
v 0.66288 0.99611 -0.02091
v 0.65374 0.99489 -0.03584
v 0.67221 1.00009 -0.00141
v 0.65374 0.99489 -0.03584
v 0.65516 0.99909 0.00689
v 0.67221 1.00009 -0.00141
v 0.67221 1.00009 -0.00141
v 0.65516 0.99909 0.00689
v 0.64505 0.99779 0.01333
v 0.65302 0.99246 -0.03688
v 0.65374 0.99489 -0.03584
v 0.63415 0.99375 -0.02648
v 0.65302 0.99246 -0.03688
v 0.63415 0.99375 -0.02648
v 0.65374 0.99489 -0.03584
v 0.64505 0.99779 0.01333
v 0.60640 0.99248 -0.00535
v 0.62299 0.99572 0.02470
v 0.62366 0.98583 0.02688
v 0.62299 0.99572 0.02470
v 0.60640 0.99248 -0.00535
v 0.60510 0.99201 -0.01138
v 0.59707 0.99573 0.01860
v 0.59383 0.98851 0.00988
v 0.59204 1.00442 0.01917
v 0.59707 0.99573 0.01860
v 0.59204 1.00442 0.01917
v 0.59159 0.98655 0.03386
v 0.57245 1.02667 0.02064
v 0.57245 1.02667 0.02064
v 0.55740 1.04364 0.02122
v 0.49701 1.03744 -0.01917
v 0.55740 1.04364 0.02122
v 0.49954 1.04508 0.07298
v 0.54220 1.06098 0.02317
v 0.54220 1.06098 0.02317
v 0.52339 1.08210 0.02412
v 0.52339 1.08210 0.02412
v 0.53057 0.99509 0.05647
v 0.55406 0.97137 0.06040
v 0.51811 1.01101 0.06593
v 0.51856 1.01281 -0.02101
v 0.55334 0.98694 0.06699
v 0.48740 1.11347 0.03436
v 0.53702 1.00116 0.06901
v 0.55334 0.98694 0.06699
v 0.49954 1.04508 0.07298
v 0.50052 1.03980 0.07283
v 0.51811 1.01101 0.06593
v 0.53702 1.00116 0.06901
v 0.50052 1.03980 0.07283
v 0.49447 1.03491 0.05756
v 0.47648 1.06618 0.07634
v 0.48683 1.04391 0.06935
v 0.49257 1.11617 0.02553
v 0.48760 1.04879 -0.01835
v 0.48683 1.04391 0.06935
v 0.53057 0.99509 0.05647
v 0.46433 1.05002 0.06988
v 0.49071 1.02092 0.06782
v 0.49257 1.11617 0.02553
v 0.47648 1.06618 0.07634
v 0.49447 1.03491 0.05756
v 0.49071 1.02092 0.06782
v 0.46433 1.05002 0.06988
v 0.47080 0.99378 0.04014
v 0.46224 1.00575 0.02024
v 0.51856 1.01281 -0.02101
v 0.49133 0.97326 0.01911
v 0.47648 1.06618 0.07634
v 0.47966 1.05072 0.05817
v 0.49701 1.03744 -0.01917
v 0.47966 1.05072 0.05817
v 0.47508 1.05548 0.06838
v 0.47508 1.05548 0.06838
v 0.48227 0.99393 0.02891
v 0.47080 0.99378 0.04014
v 0.45918 1.00680 0.03980
v 0.48227 0.99393 0.02891
v 0.47261 1.00457 0.02928
v 0.47333 0.99324 0.02130
v 0.44561 1.16882 0.03142
v 0.45162 1.08792 -0.01534
v 0.46850 1.05087 0.06627
v 0.47237 1.05887 0.05937
v 0.47237 1.05887 0.05937
v 0.47261 1.00457 0.02928
v 0.47237 1.05887 0.05937
v 0.47508 1.05548 0.06838
v 0.46850 1.05087 0.06627
v 0.45862 1.07584 0.09150
v 0.48760 1.04879 -0.01835
v 0.47333 0.99324 0.02130
v 0.45827 1.00975 0.02210
v 0.46224 1.00575 0.02024
v 0.46850 1.05087 0.06627
v 0.47508 1.05548 0.06838
v 0.46433 1.05002 0.06988
v 0.45827 1.00975 0.02210
v 0.45787 1.02004 0.03041
v 0.47648 1.06618 0.07634
v 0.45787 1.02004 0.03041
v 0.43775 1.03255 0.02400
v 0.45862 1.07584 0.09150
v 0.45059 1.03807 0.05542
v 0.44504 1.03376 0.03143
v 0.43775 1.03255 0.02400
v 0.44504 1.03376 0.03143
v 0.43775 1.03255 0.02400
v 0.45162 1.08792 -0.01534
v 0.45059 1.03807 0.05542
v 0.43280 1.04408 0.08229
v 0.44475 1.05665 0.08657
v 0.43645 1.03140 0.04375
v 0.43645 1.03140 0.04375
v 0.41387 1.12377 0.09675
v 0.43645 1.03140 0.04375
v 0.43396 1.04668 0.08427
v 0.44504 1.03376 0.03143
v 0.43645 1.03140 0.04375
v 0.44475 1.05665 0.08657
v 0.45862 1.07584 0.09150
v 0.43384 1.07770 0.08024
v 0.43396 1.04668 0.08427
v 0.41048 1.03894 0.02171
v 0.36081 1.19792 0.09312
v 0.42507 1.03839 0.07150
v 0.43280 1.04408 0.08229
v 0.41629 1.06897 0.06880
v 0.45862 1.07584 0.09150
v 0.41387 1.12377 0.09675
v 0.43384 1.07770 0.08024
v 0.39137 1.12271 0.08576
v 0.42507 1.03839 0.07150
v 0.42580 1.10604 0.06467
v 0.43194 1.08338 0.07726
v 0.39137 1.12271 0.08576
v 0.43194 1.08338 0.07726
v 0.42580 1.10604 0.06467
v 0.40915 1.08638 0.06087
v 0.41809 1.03366 0.06120
v 0.41809 1.03366 0.06120
v 0.43384 1.07770 0.08024
v 0.41809 1.03366 0.06120
v 0.40814 1.03787 0.02444
v 0.40423 1.05892 0.04495
v 0.40814 1.03787 0.02444
v 0.40627 1.09702 0.05000
v 0.37028 1.08110 0.02801
v 0.40328 1.06751 0.04417
v 0.40627 1.09702 0.05000
v 0.42580 1.10604 0.06467
v 0.40112 1.08295 0.03804
v 0.40627 1.09702 0.05000
v 0.40112 1.08295 0.03804
v 0.40220 1.13043 0.06657
v 0.40112 1.08295 0.03804
v 0.42580 1.10604 0.06467
v 0.40814 1.03787 0.02444
v 0.66288 0.99611 -0.02091
v 0.67765 0.97791 -0.00122
v 0.68681 0.99600 -0.01578
v 0.68381 0.99517 -0.01197
v 0.68381 0.99517 -0.01197
v 0.68105 0.99506 -0.01297
v 0.67765 0.97791 -0.00122
v 0.67084 0.98602 -0.01689
v 0.67084 0.98602 -0.01689
v 0.67252 0.98208 -0.00552
v 0.67765 0.97791 -0.00122
v 0.67765 0.97791 -0.00122
v 0.67182 0.97615 -0.00169
v 0.67630 0.97438 -0.00085
v 0.67252 0.98208 -0.00552
v 0.67221 1.00009 -0.00141
v 0.67301 0.96215 0.00623
v 0.67182 0.97615 -0.00169
v 0.66677 0.98920 -0.03900
v 0.68681 0.99600 -0.01578
v 0.68381 0.98085 -0.04838
v 0.67252 0.98208 -0.00552
v 0.67182 0.97615 -0.00169
v 0.66993 0.97436 -0.00609
v 0.66292 0.96165 -0.02399
v 0.66993 0.97436 -0.00609
v 0.66276 0.95893 -0.01423
v 0.66375 0.97030 -0.01642
v 0.67252 0.98208 -0.00552
v 0.67084 0.98602 -0.01689
v 0.66283 0.98355 -0.02031
v 0.66375 0.97030 -0.01642
v 0.66288 0.99611 -0.02091
v 0.67252 0.98208 -0.00552
v 0.66283 0.98355 -0.02031
v 0.66887 0.99184 -0.03363
v 0.66677 0.98920 -0.03900
v 0.66380 0.98343 -0.03475
v 0.66380 0.98343 -0.03475
v 0.67221 1.00009 -0.00141
v 0.64505 0.99779 0.01333
v 0.67301 0.96215 0.00623
v 0.66677 0.98920 -0.03900
v 0.66175 0.96204 -0.02752
v 0.66380 0.98343 -0.03475
v 0.66186 0.97353 -0.02120
v 0.66040 0.98194 -0.02391
v 0.66186 0.97353 -0.02120
v 0.66175 0.96204 -0.02752
v 0.66380 0.98343 -0.03475
v 0.66040 0.98194 -0.02391
v 0.65294 0.95640 -0.03007
v 0.66040 0.98194 -0.02391
v 0.65302 0.99246 -0.03688
v 0.65302 0.99246 -0.03688
v 0.65294 0.95640 -0.03007
v 0.65048 0.95583 -0.02966
v 0.62454 0.97587 0.03014
v 0.67106 0.95991 0.00532
v 0.67301 0.96215 0.00623
v 0.62325 0.97455 0.02972
v 0.64168 0.94399 0.02534
v 0.61805 0.96976 0.03465
v 0.65462 0.92284 0.03199
v 0.64426 0.89276 0.05832
v 0.58697 0.94199 0.07500
v 0.63926 0.88690 0.06386
v 0.62325 0.97455 0.02972
v 0.61329 0.96734 0.00680
v 0.67106 0.95991 0.00532
v 0.63415 0.99375 -0.02648
v 0.62454 0.97587 0.03014
v 0.62299 0.99572 0.02470
v 0.60438 0.96715 -0.00807
v 0.61090 0.96968 0.01022
v 0.62326 0.96664 0.02831
v 0.64168 0.94399 0.02534
v 0.65577 0.92351 0.02037
v 0.62418 0.93994 0.01177
v 0.60149 0.97073 -0.00552
v 0.62326 0.96664 0.02831
v 0.61737 0.95253 0.01501
v 0.62899 0.94799 0.00575
v 0.62483 0.94669 0.00008
v 0.62890 0.95072 0.00525
v 0.65048 0.95583 -0.02966
v 0.62899 0.94799 0.00575
v 0.62890 0.95072 0.00525
v 0.62497 0.94406 0.01304
v 0.62418 0.93994 0.01177
v 0.62899 0.94799 0.00575
v 0.62418 0.93994 0.01177
v 0.62483 0.94669 0.00008
v 0.59486 0.92247 -0.01203
v 0.60816 0.93035 -0.00169
v 0.61737 0.95253 0.01501
v 0.62418 0.93994 0.01177
v 0.62497 0.94406 0.01304
v 0.62299 0.99572 0.02470
v 0.62129 0.97590 0.02912
v 0.62454 0.97587 0.03014
v 0.62299 0.99572 0.02470
v 0.62366 0.98583 0.02688
v 0.62129 0.97590 0.02912
v 0.63497 0.88813 0.06487
v 0.62325 0.97455 0.02972
v 0.60438 0.96715 -0.00807
v 0.60724 0.96396 0.01542
v 0.61737 0.95253 0.01501
v 0.62497 0.94406 0.01304
v 0.62129 0.97590 0.02912
v 0.60825 0.98281 0.03214
v 0.60962 0.93687 -0.01356
v 0.62129 0.97590 0.02912
v 0.62366 0.98583 0.02688
v 0.61090 0.96968 0.01022
v 0.60724 0.96396 0.01542
v 0.61090 0.96968 0.01022
v 0.62890 0.95072 0.00525
v 0.61329 0.96734 0.00680
v 0.61090 0.96968 0.01022
v 0.60724 0.96396 0.01542
v 0.60510 0.99201 -0.01138
v 0.60683 0.98346 0.03485
v 0.60825 0.98281 0.03214
v 0.62890 0.95072 0.00525
v 0.62483 0.94669 0.00008
v 0.60933 0.96802 0.00421
v 0.60933 0.96802 0.00421
v 0.60962 0.93687 -0.01356
v 0.60816 0.93035 -0.00169
v 0.59486 0.92247 -0.01203
v 0.60857 0.97271 0.00681
v 0.60224 0.96822 -0.00404
v 0.60149 0.97073 -0.00552
v 0.61329 0.96734 0.00680
v 0.61090 0.96968 0.01022
v 0.60857 0.97271 0.00681
v 0.59383 0.98851 0.00988
v 0.61015 0.89375 -0.01711
v 0.59494 0.88784 -0.02774
v 0.60640 0.99248 -0.00535
v 0.60224 0.96822 -0.00404
v 0.60933 0.96802 0.00421
v 0.59794 0.95682 0.05963
v 0.59576 0.97517 0.02014
v 0.60683 0.98346 0.03485
v 0.60825 0.98281 0.03214
v 0.59576 0.97517 0.02014
v 0.60857 0.97271 0.00681
v 0.59383 0.98851 0.00988
v 0.60510 0.99201 -0.01138
v 0.59383 0.98851 0.00988
v 0.59904 0.93043 -0.02240
v 0.60224 0.96822 -0.00404
v 0.60149 0.97073 -0.00552
v 0.60438 0.96715 -0.00807
v 0.59904 0.93043 -0.02240
v 0.59924 0.97940 0.03270
v 0.59576 0.97517 0.02014
v 0.60683 0.98346 0.03485
v 0.59924 0.97940 0.03270
v 0.59660 0.96913 0.04315
v 0.59341 0.95356 0.06329
v 0.58793 0.94858 0.06369
v 0.59341 0.95356 0.06329
v 0.59493 0.97628 0.02376
v 0.59904 0.93043 -0.02240
v 0.59486 0.92247 -0.01203
v 0.59487 0.93191 -0.02256
v 0.59924 0.97940 0.03270
v 0.59159 0.98655 0.03386
v 0.59660 0.96913 0.04315
v 0.59924 0.97940 0.03270
v 0.59493 0.97628 0.02376
v 0.59301 0.98719 0.02941
v 0.59301 0.98719 0.02941
v 0.58933 0.98202 0.02014
v 0.58697 0.94199 0.07500
v 0.59301 0.98719 0.02941
v 0.59707 0.99573 0.01860
v 0.59159 0.98655 0.03386
v 0.58933 0.98202 0.02014
v 0.59383 0.98851 0.00988
v 0.59707 0.99573 0.01860
v 0.59093 0.98764 0.01557
v 0.59493 0.97628 0.02376
v 0.59576 0.97517 0.02014
v 0.58933 0.98202 0.02014
v 0.59301 0.98719 0.02941
v 0.59487 0.93191 -0.02256
v 0.58425 0.94609 -0.02131
v 0.59383 0.98851 0.00988
v 0.59093 0.98764 0.01557
v 0.58933 0.98202 0.02014
v 0.58933 0.98202 0.02014
v 0.59487 0.93191 -0.02256
v 0.59486 0.92247 -0.01203
v 0.58425 0.94609 -0.02131
v 0.58697 0.94199 0.07500
v 0.59494 0.88784 -0.02774
v 0.59114 0.88410 -0.02751
v 0.57809 0.90607 -0.02639
v 0.58938 0.92762 -0.01248
v 0.57809 0.90607 -0.02639
v 0.57967 0.94244 0.05448
v 0.56621 0.97104 -0.01755
v 0.58938 0.92762 -0.01248
v 0.56073 0.92868 -0.02329
v 0.55433 0.87837 0.02135
v 0.57495 0.85298 0.01496
v 0.59331 0.86151 0.02877
v 0.57462 0.93617 0.06367
v 0.57083 0.94814 -0.01130
v 0.57083 0.94814 -0.01130
v 0.56369 0.96871 -0.01901
v 0.55334 0.98694 0.06699
v 0.58793 0.94858 0.06369
v 0.63497 0.88813 0.06487
v 0.58697 0.94199 0.07500
v 0.54940 0.91523 0.04193
v 0.57169 0.95482 0.05943
v 0.57967 0.94244 0.05448
v 0.58793 0.94858 0.06369
v 0.57495 0.85298 0.01496
v 0.55433 0.87837 0.02135
v 0.57643 0.85724 0.00322
v 0.56369 0.96871 -0.01901
v 0.57296 0.95096 0.05532
v 0.57462 0.93617 0.06367
v 0.58697 0.94199 0.07500
v 0.57296 0.95096 0.05532
v 0.56350 0.96046 0.05538
v 0.57967 0.94244 0.05448
v 0.54368 0.93022 -0.00505
v 0.57809 0.90607 -0.02639
v 0.59114 0.88410 -0.02751
v 0.55406 0.97137 0.06040
v 0.54867 0.94577 -0.02054
v 0.57967 0.94244 0.05448
v 0.56350 0.96046 0.05538
v 0.57462 0.93617 0.06367
v 0.55812 0.97028 -0.02347
v 0.51856 1.01281 -0.02101
v 0.56350 0.96046 0.05538
v 0.54375 0.91583 0.03598
v 0.53743 0.91508 0.01293
v 0.55505 0.96925 0.05552
v 0.55892 0.96290 -0.00915
v 0.56073 0.92868 -0.02329
v 0.56369 0.96871 -0.01901
v 0.55610 0.96813 -0.02351
v 0.55812 0.97028 -0.02347
v 0.56621 0.97104 -0.01755
v 0.56369 0.96871 -0.01901
v 0.55792 0.96521 -0.01188
v 0.55610 0.96813 -0.02351
v 0.56369 0.96871 -0.01901
v 0.55892 0.96290 -0.00915
v 0.55792 0.96521 -0.01188
v 0.55505 0.96925 0.05552
v 0.57083 0.94814 -0.01130
v 0.54935 0.96001 -0.01420
v 0.55892 0.96290 -0.00915
v 0.55892 0.96290 -0.00915
v 0.54935 0.96001 -0.01420
v 0.55308 0.95020 -0.01406
v 0.55308 0.95020 -0.01406
v 0.51811 1.01101 0.06593
v 0.54867 0.94577 -0.02054
v 0.54293 0.98202 0.05644
v 0.55308 0.95020 -0.01406
v 0.54368 0.93022 -0.00505
v 0.54747 0.93378 0.00064
v 0.54867 0.94577 -0.02054
v 0.53702 1.00116 0.06901
v 0.55812 0.97028 -0.02347
v 0.55610 0.96813 -0.02351
v 0.51856 1.01281 -0.02101
v 0.53743 0.91508 0.01293
v 0.54585 0.91667 0.02904
v 0.54769 0.92357 0.02319
v 0.57462 0.93617 0.06367
v 0.52722 0.93216 0.03619
v 0.54375 0.91583 0.03598
v 0.55308 0.95020 -0.01406
v 0.54747 0.93378 0.00064
v 0.51781 0.94451 0.01705
v 0.53334 0.90539 0.02807
v 0.54769 0.92357 0.02319
v 0.54280 0.91873 0.01735
v 0.53743 0.91508 0.01293
v 0.54293 0.98202 0.05644
v 0.54283 0.92167 0.01064
v 0.54585 0.91667 0.02904
v 0.54349 0.91633 0.03275
v 0.54769 0.92357 0.02319
v 0.53057 0.99509 0.05647
v 0.55610 0.96813 -0.02351
v 0.54935 0.96001 -0.01420
v 0.49133 0.97326 0.01911
v 0.53702 1.00116 0.06901
v 0.58793 0.94858 0.06369
v 0.55334 0.98694 0.06699
v 0.54585 0.91667 0.02904
v 0.54375 0.91583 0.03598
v 0.54349 0.91633 0.03275
v 0.53334 0.90539 0.02807
v 0.54283 0.92167 0.01064
v 0.53743 0.91508 0.01293
v 0.54280 0.91873 0.01735
v 0.53313 0.90820 0.02843
v 0.54375 0.91583 0.03598
v 0.53057 0.99509 0.05647
v 0.54375 0.91583 0.03598
v 0.53647 0.92192 0.03609
v 0.53313 0.90820 0.02843
v 0.52722 0.93216 0.03619
v 0.51856 1.01281 -0.02101
v 0.49071 1.02092 0.06782
v 0.53647 0.92192 0.03609
v 0.54375 0.91583 0.03598
v 0.52722 0.93216 0.03619
v 0.53056 0.94170 0.02500
v 0.54280 0.91873 0.01735
v 0.53056 0.94170 0.02500
v 0.51781 0.94451 0.01705
v 0.54769 0.92357 0.02319
v 0.51781 0.94451 0.01705
v 0.54283 0.92167 0.01064
v 0.54280 0.91873 0.01735
v 0.53313 0.90820 0.02843
v 0.49071 1.02092 0.06782
v 0.52201 0.95156 0.02527
v 0.52201 0.95156 0.02527
v 0.49133 0.97326 0.01911
v 0.50563 0.95574 0.03693
v 0.50887 0.96512 0.02681
v 0.50887 0.96512 0.02681
v 0.49882 0.97557 0.02662
v 0.47333 0.99324 0.02130
v 0.49882 0.97557 0.02662
v 0.50563 0.95574 0.03693
v 0.47080 0.99378 0.04014
v 0.47080 0.99378 0.04014
v 0.48227 0.99393 0.02891
v 0.48227 0.99393 0.02891
v 0.46224 1.00575 0.02024
v 0.49133 0.97326 0.01911
v 0.47333 0.99324 0.02130
v 0.67182 0.97615 -0.00169
v 0.67084 0.98602 -0.01689
v 0.66375 0.97030 -0.01642
v 0.59486 0.92247 -0.01203
v 0.54940 0.91523 0.04193
v 0.55433 0.87837 0.02135
v 0.76123 0.83833 -0.00118
v 0.75949 0.83661 0.00032
v 0.74325 0.82426 -0.01885
v 0.73532 0.84743 0.01590
v 0.75949 0.83661 0.00032
v 0.76123 0.83833 -0.00118
v 0.74497 0.85115 -0.03481
v 0.74986 0.86652 -0.01208
v 0.76229 0.85958 -0.01750
v 0.76229 0.85958 -0.01750
v 0.76229 0.85958 -0.01750
v 0.76123 0.83833 -0.00118
v 0.74325 0.82426 -0.01885
v 0.74986 0.86652 -0.01208
v 0.73554 0.87264 -0.00105
v 0.74529 0.84663 -0.03391
v 0.68076 0.84858 0.01810
v 0.74325 0.82426 -0.01885
v 0.75949 0.83661 0.00032
v 0.73532 0.84743 0.01590
v 0.74497 0.85115 -0.03481
v 0.74529 0.84663 -0.03391
v 0.74273 0.84813 -0.03487
v 0.74497 0.85115 -0.03481
v 0.74325 0.82426 -0.01885
v 0.74497 0.85115 -0.03481
v 0.74273 0.84813 -0.03487
v 0.73214 0.85368 -0.02871
v 0.72281 0.87836 0.00474
v 0.73669 0.83271 -0.04198
v 0.72589 0.84015 -0.03220
v 0.73742 0.83217 -0.03939
v 0.73669 0.83271 -0.04198
v 0.73742 0.83217 -0.03939
v 0.73536 0.80856 -0.02502
v 0.73370 0.80599 -0.02531
v 0.73214 0.85368 -0.02871
v 0.72281 0.87836 0.00474
v 0.70046 0.86789 -0.00925
v 0.71073 0.82075 -0.00605
v 0.73536 0.80856 -0.02502
v 0.73742 0.83217 -0.03939
v 0.72281 0.87836 0.00474
v 0.73536 0.80856 -0.02502
v 0.71073 0.82075 -0.00605
v 0.73370 0.80599 -0.02531
v 0.71823 0.79881 -0.04092
v 0.71900 0.82387 -0.05529
v 0.72589 0.84015 -0.03220
v 0.73669 0.83271 -0.04198
v 0.71900 0.82387 -0.05529
v 0.72589 0.84015 -0.03220
v 0.71501 0.79875 -0.03984
v 0.71823 0.79881 -0.04092
v 0.73370 0.80599 -0.02531
v 0.73214 0.85368 -0.02871
v 0.74273 0.84813 -0.03487
v 0.74325 0.82426 -0.01885
v 0.70406 0.85129 -0.01681
v 0.71050 0.84759 -0.01986
v 0.72589 0.84015 -0.03220
v 0.70406 0.85129 -0.01681
v 0.69201 0.83119 0.00731
v 0.71050 0.84759 -0.01986
v 0.70642 0.85682 0.03262
v 0.70642 0.85682 0.03262
v 0.71501 0.79875 -0.03984
v 0.71900 0.82387 -0.05529
v 0.71823 0.79881 -0.04092
v 0.69612 0.88926 0.02102
v 0.72281 0.87836 0.00474
v 0.69645 0.88915 0.01887
v 0.69612 0.88926 0.02102
v 0.71300 0.98042 -0.03015
v 0.70485 0.95480 -0.01525
v 0.71312 0.97822 -0.03179
v 0.68076 0.84858 0.01810
v 0.68882 0.85864 -0.00466
v 0.70499 0.95364 -0.01681
v 0.71300 0.98042 -0.03015
v 0.71312 0.97822 -0.03179
v 0.68681 0.99600 -0.01578
v 0.71300 0.98042 -0.03015
v 0.68681 0.99600 -0.01578
v 0.70205 0.98690 -0.02297
v 0.68882 0.85864 -0.00466
v 0.70499 0.95364 -0.01681
v 0.69461 0.97433 -0.05428
v 0.71312 0.97822 -0.03179
v 0.68051 0.81624 -0.01336
v 0.70485 0.95480 -0.01525
v 0.68461 0.96636 -0.00493
v 0.70499 0.95364 -0.01681
v 0.68681 0.99600 -0.01578
v 0.71312 0.97822 -0.03179
v 0.69461 0.97433 -0.05428
v 0.71073 0.82075 -0.00605
v 0.69645 0.88915 0.01887
v 0.69533 0.86839 0.03574
v 0.70483 0.83167 -0.04607
v 0.69304 0.96754 -0.05202
v 0.67710 0.84502 -0.02864
v 0.70485 0.95480 -0.01525
v 0.71300 0.98042 -0.03015
v 0.67765 0.97791 -0.00122
v 0.69479 0.85975 0.03882
v 0.68791 0.85972 -0.00655
v 0.70483 0.83167 -0.04607
v 0.69360 0.80183 -0.04932
v 0.69653 0.82843 -0.06239
v 0.69413 0.83012 -0.05781
v 0.69275 0.80142 -0.04667
v 0.68959 0.94654 -0.03528
v 0.68586 0.94634 -0.04025
v 0.69612 0.88926 0.02102
v 0.69202 0.88712 0.02101
v 0.69533 0.86839 0.03574
v 0.68894 0.85234 0.02635
v 0.69479 0.85975 0.03882
v 0.68959 0.94654 -0.03528
v 0.69612 0.88926 0.02102
v 0.68549 0.88078 0.01163
v 0.69202 0.88712 0.02101
v 0.70205 0.98690 -0.02297
v 0.69645 0.88915 0.01887
v 0.69201 0.83119 0.00731
v 0.66944 0.83513 0.01501
v 0.69533 0.86839 0.03574
v 0.69202 0.88712 0.02101
v 0.69479 0.85975 0.03882
v 0.68894 0.85234 0.02635
v 0.69479 0.85975 0.03882
v 0.68838 0.85631 0.04219
v 0.66292 0.96165 -0.02399
v 0.65404 0.82833 -0.00039
v 0.69653 0.82843 -0.06239
v 0.69360 0.80183 -0.04932
v 0.67683 0.81984 -0.07690
v 0.67853 0.87425 0.00439
v 0.70046 0.86789 -0.00925
v 0.65404 0.82833 -0.00039
v 0.68381 0.98085 -0.04838
v 0.69413 0.83012 -0.05781
v 0.69653 0.82843 -0.06239
v 0.68320 0.83569 -0.04863
v 0.69275 0.80142 -0.04667
v 0.68381 0.79756 -0.05376
v 0.69360 0.80183 -0.04932
v 0.68180 0.87525 0.00149
v 0.68681 0.99600 -0.01578
v 0.68180 0.87525 0.00149
v 0.64918 0.83293 -0.05544
v 0.68180 0.87525 0.00149
v 0.69461 0.97433 -0.05428
v 0.69304 0.96754 -0.05202
v 0.68381 0.98085 -0.04838
v 0.68461 0.96636 -0.00493
v 0.67800 0.86334 0.00311
v 0.67560 0.84405 0.02647
v 0.67710 0.84502 -0.02864
v 0.67249 0.86499 -0.00041
v 0.68320 0.83569 -0.04863
v 0.67620 0.81097 -0.02956
v 0.67853 0.87425 0.00439
v 0.67249 0.86499 -0.00041
v 0.68791 0.85972 -0.00655
v 0.67282 0.79458 -0.06465
v 0.67800 0.86334 0.00311
v 0.67397 0.82145 -0.07587
v 0.67683 0.81984 -0.07690
v 0.67630 0.97438 -0.00085
v 0.64467 0.80589 -0.04063
v 0.69275 0.80142 -0.04667
v 0.67620 0.81097 -0.02956
v 0.68076 0.84858 0.01810
v 0.67218 0.84102 -0.03858
v 0.67218 0.84102 -0.03858
v 0.67404 0.84396 0.02473
v 0.68586 0.94634 -0.04025
v 0.67282 0.79458 -0.06465
v 0.67182 0.97615 -0.00169
v 0.67630 0.97438 -0.00085
v 0.67404 0.84396 0.02473
v 0.66992 0.83671 0.02075
v 0.67354 0.86475 0.00253
v 0.68381 0.79756 -0.05376
v 0.67282 0.79458 -0.06465
v 0.66636 0.84983 0.02736
v 0.67560 0.84405 0.02647
v 0.68838 0.85631 0.04219
v 0.66677 0.98920 -0.03900
v 0.69201 0.83119 0.00731
v 0.66992 0.83671 0.02075
v 0.66944 0.83513 0.01501
v 0.65970 0.85526 -0.01526
v 0.67683 0.81984 -0.07690
v 0.67282 0.79458 -0.06465
v 0.67397 0.82145 -0.07587
v 0.65609 0.85167 -0.01464
v 0.68586 0.94634 -0.04025
v 0.67301 0.96215 0.00623
v 0.67231 0.96062 0.00372
v 0.67182 0.97615 -0.00169
v 0.67231 0.96062 0.00372
v 0.67301 0.96215 0.00623
v 0.67106 0.95991 0.00532
v 0.67800 0.86334 0.00311
v 0.67354 0.86475 0.00253
v 0.66992 0.83671 0.02075
v 0.67853 0.87425 0.00439
v 0.65913 0.88963 0.00845
v 0.69202 0.88712 0.02101
v 0.66679 0.87997 0.00723
v 0.66636 0.84983 0.02736
v 0.67354 0.86475 0.00253
v 0.67249 0.86499 -0.00041
v 0.66180 0.87874 0.00496
v 0.69479 0.85975 0.03882
v 0.64489 0.89162 0.05638
v 0.68838 0.85631 0.04219
v 0.66276 0.95893 -0.01423
v 0.67404 0.84396 0.02473
v 0.62010 0.81710 -0.01792
v 0.66192 0.91339 0.02826
v 0.65970 0.85526 -0.01526
v 0.67710 0.84502 -0.02864
v 0.65609 0.85167 -0.01464
v 0.66175 0.96204 -0.02752
v 0.65913 0.88963 0.00845
v 0.63593 0.90876 0.01357
v 0.66175 0.96204 -0.02752
v 0.64918 0.83293 -0.05544
v 0.65970 0.85526 -0.01526
v 0.66059 0.85611 -0.01006
v 0.67249 0.86499 -0.00041
v 0.66180 0.87874 0.00496
v 0.67249 0.86499 -0.00041
v 0.66059 0.85611 -0.01006
v 0.65902 0.84721 -0.02913
v 0.69202 0.88712 0.02101
v 0.66992 0.83671 0.02075
v 0.67354 0.86475 0.00253
v 0.66180 0.87874 0.00496
v 0.65609 0.85167 -0.01464
v 0.66992 0.83671 0.02075
v 0.66078 0.84918 0.02482
v 0.62852 0.87747 0.03479
v 0.66276 0.95893 -0.01423
v 0.66375 0.97030 -0.01642
v 0.66175 0.96204 -0.02752
v 0.66292 0.96165 -0.02399
v 0.64467 0.80589 -0.04063
v 0.63866 0.88526 0.02528
v 0.64731 0.82739 0.00546
v 0.63765 0.83939 -0.04536
v 0.65902 0.84721 -0.02913
v 0.66192 0.91339 0.02826
v 0.65609 0.85167 -0.01464
v 0.65589 0.91838 0.02859
v 0.64731 0.82739 0.00546
v 0.62633 0.88041 -0.00971
v 0.64489 0.89162 0.05638
v 0.65404 0.82833 -0.00039
v 0.64891 0.82736 0.00192
v 0.66078 0.84918 0.02482
v 0.65462 0.92284 0.03199
v 0.65577 0.92351 0.02037
v 0.65462 0.92284 0.03199
v 0.65589 0.91838 0.02859
v 0.64442 0.85325 -0.01863
v 0.64168 0.94399 0.02534
v 0.64344 0.89670 0.01380
v 0.64426 0.89276 0.05832
v 0.66192 0.91339 0.02826
v 0.64686 0.85775 -0.01432
v 0.64686 0.85775 -0.01432
v 0.64105 0.90227 0.01266
v 0.65294 0.95640 -0.03007
v 0.65048 0.95583 -0.02966
v 0.64082 0.82495 -0.00040
v 0.63593 0.90876 0.01357
v 0.63605 0.87473 0.03609
v 0.64082 0.82495 -0.00040
v 0.64891 0.82736 0.00192
v 0.63866 0.88526 0.02528
v 0.64426 0.89276 0.05832
v 0.64489 0.89162 0.05638
v 0.66192 0.91339 0.02826
v 0.65577 0.92351 0.02037
v 0.65589 0.91838 0.02859
v 0.63593 0.90876 0.01357
v 0.65152 0.89021 0.00833
v 0.64074 0.87127 0.03256
v 0.66636 0.84983 0.02736
v 0.63605 0.87473 0.03609
v 0.64074 0.87127 0.03256
v 0.63706 0.87684 0.03198
v 0.65577 0.92351 0.02037
v 0.63593 0.90876 0.01357
v 0.63969 0.91039 0.00687
v 0.64074 0.87127 0.03256
v 0.64074 0.87127 0.03256
v 0.64344 0.89670 0.01380
v 0.63866 0.88526 0.02528
v 0.64076 0.89223 0.01962
v 0.64344 0.89670 0.01380
v 0.65152 0.89021 0.00833
v 0.63557 0.88656 0.04785
v 0.64105 0.90227 0.01266
v 0.63302 0.84112 0.00887
v 0.63706 0.87684 0.03198
v 0.63926 0.88690 0.06386
v 0.62018 0.84640 -0.03017
v 0.63104 0.86353 -0.00494
v 0.64731 0.82739 0.00546
v 0.63302 0.84112 0.00887
v 0.64442 0.85325 -0.01863
v 0.62633 0.88041 -0.00971
v 0.63967 0.85364 -0.01578
v 0.63728 0.88390 0.06093
v 0.64105 0.90227 0.01266
v 0.63188 0.90667 0.00859
v 0.63765 0.83939 -0.04536
v 0.62530 0.88416 0.03780
v 0.64489 0.89162 0.05638
v 0.62530 0.88416 0.03780
v 0.63557 0.88656 0.04785
v 0.63638 0.84546 -0.00552
v 0.63728 0.88390 0.06093
v 0.63926 0.88690 0.06386
v 0.63497 0.88813 0.06487
v 0.63597 0.87480 0.03313
v 0.63259 0.87804 0.03455
v 0.63593 0.90876 0.01357
v 0.62473 0.90148 0.00325
v 0.62495 0.87781 0.05253
v 0.63188 0.90667 0.00859
v 0.63597 0.87480 0.03313
v 0.63259 0.87804 0.03455
v 0.64074 0.87127 0.03256
v 0.62495 0.87781 0.05253
v 0.63259 0.87804 0.03455
v 0.62018 0.84640 -0.03017
v 0.63967 0.85364 -0.01578
v 0.64082 0.82495 -0.00040
v 0.63557 0.82316 0.00444
v 0.63044 0.82018 0.00038
v 0.62530 0.88416 0.03780
v 0.61683 0.85028 0.01366
v 0.61768 0.85741 0.01264
v 0.62530 0.88416 0.03780
v 0.61645 0.89658 -0.00385
v 0.62820 0.90323 -0.00244
v 0.62307 0.90093 -0.00734
v 0.63969 0.91039 0.00687
v 0.62820 0.90323 -0.00244
v 0.63557 0.82316 0.00444
v 0.60897 0.86523 0.01685
v 0.65577 0.92351 0.02037
v 0.61956 0.81836 -0.02144
v 0.64467 0.80589 -0.04063
v 0.62010 0.81710 -0.01792
v 0.62530 0.88416 0.03780
v 0.63202 0.86357 -0.01213
v 0.61956 0.81836 -0.02144
v 0.61812 0.81530 -0.01038
v 0.63557 0.82316 0.00444
v 0.61812 0.81530 -0.01038
v 0.63044 0.82018 0.00038
v 0.62307 0.90093 -0.00734
v 0.62473 0.90148 0.00325
v 0.62010 0.81710 -0.01792
v 0.63557 0.82316 0.00444
v 0.61683 0.85028 0.01366
v 0.57919 0.85718 0.00374
v 0.61645 0.89658 -0.00385
v 0.62018 0.84640 -0.03017
v 0.60683 0.86398 -0.02697
v 0.63202 0.86357 -0.01213
v 0.60897 0.86523 0.01685
v 0.59331 0.86151 0.02877
v 0.61512 0.88014 0.03245
v 0.61754 0.81523 -0.01318
v 0.61512 0.88014 0.03245
v 0.62018 0.84640 -0.03017
v 0.61956 0.81836 -0.02144
v 0.61754 0.81523 -0.01318
v 0.63967 0.85364 -0.01578
v 0.61956 0.81836 -0.02144
v 0.61307 0.89385 -0.00513
v 0.60729 0.87737 0.00897
v 0.60875 0.87790 0.02726
v 0.61307 0.89385 -0.00513
v 0.60459 0.88612 0.00605
v 0.61307 0.89385 -0.00513
v 0.61781 0.88317 -0.00962
v 0.60683 0.86398 -0.02697
v 0.61754 0.81523 -0.01318
v 0.61812 0.81530 -0.01038
v 0.61112 0.89257 -0.01065
v 0.61015 0.89375 -0.01711
v 0.60875 0.87790 0.02726
v 0.60734 0.86758 0.01452
v 0.61812 0.81530 -0.01038
v 0.60683 0.86398 -0.02697
v 0.62018 0.84640 -0.03017
v 0.61754 0.81523 -0.01318
v 0.60734 0.86758 0.01452
v 0.59486 0.92247 -0.01203
v 0.60728 0.89227 -0.00221
v 0.61683 0.85028 0.01366
v 0.60734 0.86758 0.01452
v 0.60897 0.86523 0.01685
v 0.61112 0.89257 -0.01065
v 0.60728 0.89227 -0.00221
v 0.58632 0.85683 0.02107
v 0.60718 0.89035 -0.01305
v 0.61781 0.88317 -0.00962
v 0.60405 0.88958 -0.02100
v 0.60729 0.87737 0.00897
v 0.61307 0.89385 -0.00513
v 0.60459 0.88612 0.00605
v 0.60728 0.89227 -0.00221
v 0.61112 0.89257 -0.01065
v 0.59815 0.88475 -0.02149
v 0.60718 0.89035 -0.01305
v 0.60459 0.88612 0.00605
v 0.59815 0.88475 -0.02149
v 0.59331 0.86151 0.02877
v 0.60683 0.86398 -0.02697
v 0.61812 0.81530 -0.01038
v 0.57919 0.85718 0.00374
v 0.61015 0.89375 -0.01711
v 0.60405 0.88958 -0.02100
v 0.59494 0.88784 -0.02774
v 0.59688 0.86879 0.01941
v 0.61015 0.89375 -0.01711
v 0.61683 0.85028 0.01366
v 0.60897 0.86523 0.01685
v 0.59688 0.86879 0.01941
v 0.59451 0.88143 -0.02396
v 0.59688 0.86879 0.01941
v 0.59688 0.86879 0.01941
v 0.59114 0.88410 -0.02751
v 0.59451 0.88143 -0.02396
v 0.59451 0.88143 -0.02396
v 0.59451 0.88143 -0.02396
v 0.57919 0.85718 0.00374
v 0.57787 0.85210 0.01501
v 0.58632 0.85683 0.02107
v 0.59331 0.86151 0.02877
v 0.57787 0.85210 0.01501
v 0.59451 0.88143 -0.02396
v 0.57919 0.85718 0.00374
v 0.57643 0.85724 0.00322
v 0.57787 0.85210 0.01501
v 0.57495 0.85298 0.01496
v 0.59114 0.88410 -0.02751
v 0.57787 0.85210 0.01501
v 0.57495 0.85298 0.01496
v 0.65462 0.92284 0.03199
v 0.59331 0.86151 0.02877
v 0.64095 0.89140 0.01957
v 0.63866 0.88526 0.02528
v 0.64076 0.89223 0.01962
v 0.64344 0.89670 0.01380
v 0.41737 1.10131 0.04656
v 0.44561 1.16882 0.03142
v 0.48740 1.11347 0.03436
v 0.36081 1.19792 0.09312
v 0.41387 1.12377 0.09675
v 0.39137 1.12271 0.08576
v 0.42580 1.10604 0.06467
v 0.40220 1.13043 0.06657
v 0.40112 1.08295 0.03804
v 0.40328 1.06751 0.04417
v 0.40915 1.08638 0.06087
v 0.40423 1.05892 0.04495
v 0.40814 1.03787 0.02444
v 0.37028 1.08110 0.02801
v 0.41048 1.03894 0.02171
v 0.45162 1.08792 -0.01534
v 0.49257 1.11617 0.02553
vt 0.98257 0.23866
vt 0.99079 0.23868
vt 0.98328 0.24061
vt 0.98242 0.24023
vt 0.99787 0.86239
vt 0.99050 0.86479
vt 0.99389 0.86019
vt 0.10064 0.00093
vt 0.10248 0.00008
vt 0.11069 0.00042
vt 0.99192 0.35382
vt 0.99192 0.34790
vt 0.99847 0.35124
vt 0.52624 0.00254
vt 0.53184 0.00303
vt 0.51922 0.00300
vt 0.01861 0.01739
vt 0.01253 0.00505
vt 0.01861 0.00477
vt 0.15309 0.00050
vt 0.14700 0.00050
vt 0.14317 0.00001
vt 0.99213 0.36233
vt 0.99268 0.36164
vt 0.01165 0.01777
vt 0.00750 0.21379
vt 0.00059 0.21379
vt 0.00750 0.21291
vt 0.00867 0.00482
vt 0.00060 0.01608
vt 0.00070 0.00504
vt 0.15988 0.99723
vt 0.16099 0.99417
vt 0.17177 0.99660
vt 0.00115 0.01798
vt 0.14910 0.61687
vt 0.14781 0.61332
vt 0.15230 0.61719
vt 0.42326 0.46455
vt 0.42270 0.46138
vt 0.42922 0.46490
vt 0.42205 0.45189
vt 0.16181 0.61683
vt 0.16906 0.61641
vt 0.17890 0.59522
vt 0.42143 0.44465
vt 0.44141 0.42983
vt 0.42110 0.43725
vt 0.17648 0.61631
vt 0.18553 0.61583
vt 0.42040 0.42821
vt 0.86516 0.17486
vt 0.86329 0.18547
vt 0.86243 0.16825
vt 0.16840 0.59556
vt 0.44226 0.45527
vt 0.42257 0.41271
vt 0.75183 0.90730
vt 0.74489 0.90669
vt 0.77034 0.90615
vt 0.49796 0.94351
vt 0.50853 0.94035
vt 0.51501 0.94271
vt 0.76890 0.90710
vt 0.86570 0.15765
vt 0.44187 0.41977
vt 0.86213 0.15367
vt 0.41927 0.41352
vt 0.18363 0.59517
vt 0.49396 0.94102
vt 0.93109 0.07932
vt 0.93447 0.05162
vt 0.93514 0.06421
vt 0.20023 0.61493
vt 0.78039 0.90679
vt 0.92983 0.06214
vt 0.22674 0.00426
vt 0.23935 0.00426
vt 0.22412 0.01798
vt 0.52829 0.27269
vt 0.50618 0.26864
vt 0.52398 0.25940
vt 0.48650 0.94438
vt 0.86588 0.15071
vt 0.50954 0.27859
vt 0.92944 0.05521
vt 0.48868 0.94068
vt 0.86273 0.14842
vt 0.68712 0.01420
vt 0.68985 0.00984
vt 0.69542 0.01033
vt 0.85232 0.01343
vt 0.84772 0.01329
vt 0.85073 0.01002
vt 0.41845 0.39086
vt 0.20067 0.59431
vt 0.93289 0.05246
vt 0.92937 0.05169
vt 0.86569 0.14719
vt 0.69172 0.01441
vt 0.99781 0.27176
vt 0.99461 0.27176
vt 0.99529 0.26919
vt 0.44634 0.41300
vt 0.51095 0.28310
vt 0.66491 0.00859
vt 0.67207 0.00850
vt 0.67025 0.00906
vt 0.95347 0.38976
vt 0.95085 0.39022
vt 0.95410 0.38809
vt 0.84357 0.00984
vt 0.69857 0.01448
vt 0.94731 0.38778
vt 0.84087 0.01311
vt 0.53254 0.28359
vt 0.94712 0.37967
vt 0.23922 0.01171
vt 0.70468 0.01441
vt 0.68191 0.00813
vt 0.83484 0.01299
vt 0.83372 0.00982
vt 0.51671 0.29916
vt 0.96139 0.38964
vt 0.96057 0.37916
vt 0.95486 0.37961
vt 0.70621 0.00978
vt 0.96762 0.39015
vt 0.44566 0.39193
vt 0.24049 0.01784
vt 0.95955 0.37874
vt 0.53230 0.28024
vt 0.53704 0.27910
vt 0.18429 0.46903
vt 0.17719 0.46020
vt 0.19610 0.45411
vt 0.19045 0.47343
vt 0.53864 0.29022
vt 0.44004 0.36346
vt 0.20130 0.47504
vt 0.19207 0.47413
vt 0.20859 0.45423
vt 0.58187 0.79472
vt 0.58165 0.77364
vt 0.58856 0.78910
vt 0.58833 0.76920
vt 0.96496 0.38065
vt 0.11001 0.89662
vt 0.10347 0.89114
vt 0.12163 0.88882
vt 0.19544 0.44942
vt 0.19520 0.43369
vt 0.20877 0.44191
vt 0.54518 0.27889
vt 0.96896 0.38211
vt 0.10176 0.88986
vt 0.20875 0.47341
vt 0.53980 0.28992
vt 0.22902 0.45393
vt 0.22935 0.46362
vt 0.20454 0.43143
vt 0.54501 0.30787
vt 0.22509 0.44804
vt 0.99085 0.05635
vt 0.99129 0.06468
vt 0.98697 0.05159
vt 0.20702 0.43213
vt 0.21639 0.43955
vt 0.38157 0.95892
vt 0.39276 0.94514
vt 0.39247 0.95892
vt 0.53984 0.29016
vt 0.99826 0.36233
vt 0.82768 0.98460
vt 0.82768 0.96889
vt 0.82955 0.97136
vt 0.99522 0.10311
vt 0.99382 0.10431
vt 0.98530 0.09415
vt 0.98506 0.10605
vt 0.18037 0.99374
vt 0.17298 0.99572
vt 0.16847 0.99366
vt 0.00467 0.82803
vt 0.00152 0.83024
vt 0.00239 0.82729
vt 0.00505 0.83297
vt 0.61447 0.96624
vt 0.63881 0.96741
vt 0.62904 0.97014
vt 0.97045 0.92650
vt 0.95068 0.92650
vt 0.96911 0.91324
vt 0.62481 0.97158
vt 0.48278 0.00439
vt 0.47960 0.00485
vt 0.46514 0.00359
vt 0.21455 0.87967
vt 0.21589 0.88902
vt 0.20913 0.88705
vt 0.62870 0.01266
vt 0.62162 0.01555
vt 0.61759 0.01152
vt 0.47178 0.00653
vt 0.18962 0.89780
vt 0.18517 0.88890
vt 0.19650 0.89142
vt 0.64347 0.99125
vt 0.63962 0.99022
vt 0.64091 0.98551
vt 0.60942 0.01556
vt 0.88554 0.71807
vt 0.88215 0.73729
vt 0.86118 0.71745
vt 0.76725 0.01593
vt 0.74842 0.01593
vt 0.76261 0.01441
vt 0.20586 0.88977
vt 0.61478 0.01073
vt 0.98714 0.72997
vt 0.98082 0.72467
vt 0.98099 0.73893
vt 0.98739 0.73560
vt 0.21521 0.90173
vt 0.19979 0.89182
vt 0.19619 0.90284
vt 0.87433 0.47484
vt 0.87449 0.49794
vt 0.87293 0.49836
vt 0.74712 0.90246
vt 0.71253 0.90492
vt 0.71203 0.90303
vt 0.74753 0.90358
vt 0.05210 0.25940
vt 0.07479 0.26139
vt 0.03768 0.26670
vt 0.03100 0.29182
vt 0.07935 0.29762
vt 0.03102 0.29780
vt 0.86647 0.68739
vt 0.85016 0.68596
vt 0.86495 0.65240
vt 0.86075 0.47531
vt 0.86641 0.75216
vt 0.87939 0.75272
vt 0.83929 0.68697
vt 0.85167 0.68857
vt 0.16438 0.04494
vt 0.18230 0.04042
vt 0.19814 0.03848
vt 0.18165 0.05460
vt 0.83785 0.49210
vt 0.07051 0.25789
vt 0.17242 0.05485
vt 0.00492 0.83724
vt 0.00492 0.84175
vt 0.00317 0.83722
vt 0.83933 0.65414
vt 0.87744 0.34845
vt 0.87632 0.34712
vt 0.88320 0.34777
vt 0.88420 0.35035
vt 0.01010 0.73601
vt 0.00332 0.73419
vt 0.01146 0.73171
vt 0.18654 0.08033
vt 0.18440 0.06882
vt 0.99832 0.37329
vt 0.99832 0.38253
vt 0.99662 0.38035
vt 0.98459 0.05335
vt 0.98452 0.04052
vt 0.98666 0.04052
vt 0.48196 0.00283
vt 0.48826 0.00172
vt 0.49479 0.00251
vt 0.03352 0.29924
vt 0.98582 0.03968
vt 0.84036 0.49426
vt 0.71519 0.00363
vt 0.70561 0.00446
vt 0.69836 0.00405
vt 0.86580 0.68878
vt 0.08461 0.25797
vt 0.01117 0.71744
vt 0.76172 0.93659
vt 0.76115 0.94314
vt 0.74812 0.93273
vt 0.88226 0.33096
vt 0.87691 0.33037
vt 0.75401 0.00844
vt 0.76835 0.00719
vt 0.77076 0.00899
vt 0.16331 0.05795
vt 0.84033 0.47824
vt 0.08578 0.25955
vt 0.15070 0.04831
vt 0.72876 0.29214
vt 0.72390 0.29214
vt 0.72751 0.27573
vt 0.84762 0.68758
vt 0.70983 0.28976
vt 0.00290 0.71971
vt 0.00219 0.70802
vt 0.74549 0.93459
vt 0.84101 0.68937
vt 0.73654 0.93336
vt 0.72971 0.27778
vt 0.93034 0.40331
vt 0.93262 0.40103
vt 0.94630 0.40226
vt 0.04868 0.07687
vt 0.05039 0.08901
vt 0.73813 0.94731
vt 0.73758 0.93178
vt 0.74442 0.93136
vt 0.08002 0.28252
vt 0.15298 0.06000
vt 0.98135 0.70893
vt 0.98255 0.70737
vt 0.99388 0.71105
vt 0.72990 0.27330
vt 0.73147 0.25964
vt 0.73424 0.94725
vt 0.87515 0.31447
vt 0.70044 0.28794
vt 0.99449 0.08841
vt 0.99449 0.08652
vt 0.99742 0.08806
vt 0.01083 0.70788
vt 0.98542 0.71275
vt 0.88391 0.32055
vt 0.86502 0.29769
vt 0.86005 0.29513
vt 0.86168 0.28590
vt 0.08112 0.28657
vt 0.86316 0.26687
vt 0.86622 0.27040
vt 0.99197 0.71257
vt 0.98557 0.80649
vt 0.99421 0.80649
vt 0.98575 0.80928
vt 0.89844 0.81507
vt 0.90345 0.81943
vt 0.89066 0.82029
vt 0.99848 0.31305
vt 0.99734 0.31950
vt 0.99191 0.31386
vt 0.90483 0.81679
vt 0.88330 0.31468
vt 0.07991 0.29763
vt 0.64802 0.00168
vt 0.65703 0.00246
vt 0.64530 0.00287
vt 0.99200 0.32093
vt 0.72261 0.98792
vt 0.72987 0.98940
vt 0.72366 0.99184
vt 0.99737 0.22599
vt 0.99881 0.22797
vt 0.99310 0.22952
vt 0.72951 0.99843
vt 0.69927 0.28540
vt 0.70112 0.27437
vt 0.98405 0.00187
vt 0.98773 0.00015
vt 0.99219 0.00152
vt 0.72273 0.99641
vt 0.06139 0.88898
vt 0.05333 0.89274
vt 0.06211 0.87782
vt 0.86642 0.25928
vt 0.93997 0.00898
vt 0.93939 0.00568
vt 0.95546 0.00672
vt 0.05358 0.88800
vt 0.03612 0.09543
vt 0.85451 0.26608
vt 0.70498 0.25524
vt 0.02413 0.08247
vt 0.01896 0.10106
vt 0.74648 0.47311
vt 0.76979 0.47188
vt 0.77275 0.48432
vt 0.85528 0.25842
vt 0.00821 0.08957
vt 0.05433 0.87059
vt 0.70263 0.25514
vt 0.90220 0.85125
vt 0.87576 0.83222
vt 0.77340 0.52375
vt 0.72710 0.52963
vt 0.72981 0.49240
vt 0.74611 0.46213
vt 0.74946 0.47132
vt 0.74080 0.47208
vt 0.05063 0.07436
vt 0.07161 0.07436
vt 0.05068 0.08228
vt 0.06245 0.85853
vt 0.74887 0.46450
vt 0.31342 0.15904
vt 0.30286 0.16213
vt 0.16478 0.98800
vt 0.17319 0.98874
vt 0.15795 0.98834
vt 0.09771 0.10107
vt 0.07029 0.11244
vt 0.05450 0.10932
vt 0.74634 0.44690
vt 0.00617 0.10462
vt 0.16857 0.78261
vt 0.18382 0.78261
vt 0.16797 0.79028
vt 0.69954 0.25199
vt 0.70141 0.21544
vt 0.74919 0.45607
vt 0.33929 0.14876
vt 0.09486 0.08603
vt 0.74939 0.44839
vt 0.05465 0.85857
vt 0.08830 0.11370
vt 0.00302 0.64178
vt 0.00858 0.64197
vt 0.00734 0.64335
vt 0.00102 0.64302
vt 0.99888 0.20109
vt 0.99276 0.20195
vt 0.99725 0.19578
vt 0.99430 0.79270
vt 0.98649 0.79270
vt 0.98830 0.79122
vt 0.19150 0.78265
vt 0.98136 0.71089
vt 0.98813 0.72490
vt 0.98136 0.72291
vt 0.99113 0.20362
vt 0.98848 0.19708
vt 0.00320 0.09980
vt 0.98982 0.71852
vt 0.74342 0.41316
vt 0.10154 0.11472
vt 0.74919 0.43730
vt 0.19727 0.94161
vt 0.21100 0.93554
vt 0.21154 0.94036
vt 0.19684 0.93596
vt 0.73885 0.42593
vt 0.27024 0.88886
vt 0.27040 0.89071
vt 0.23365 0.88950
vt 0.23104 0.98689
vt 0.23766 0.99628
vt 0.23197 0.99744
vt 0.69525 0.68134
vt 0.72530 0.66422
vt 0.72422 0.67881
vt 0.47793 0.07376
vt 0.47462 0.05983
vt 0.49401 0.04864
vt 0.09356 0.07450
vt 0.99697 0.62236
vt 0.99747 0.62803
vt 0.99701 0.63295
vt 0.20259 0.78299
vt 0.22174 0.93893
vt 0.07909 0.50981
vt 0.08169 0.51076
vt 0.07385 0.51234
vt 0.21391 0.78291
vt 0.48366 0.08534
vt 0.48395 0.07649
vt 0.51853 0.05103
vt 0.45889 0.04989
vt 0.41270 0.04989
vt 0.44526 0.04870
vt 0.00493 0.82227
vt 0.00493 0.82687
vt 0.00417 0.82494
vt 0.34868 0.14552
vt 0.47233 0.04978
vt 0.22632 0.93577
vt 0.22600 0.94070
vt 0.24203 0.98770
vt 0.24216 0.99720
vt 0.74953 0.42598
vt 0.08373 0.51038
vt 0.08394 0.51635
vt 0.34739 0.14424
vt 0.08390 0.52504
vt 0.52008 0.09039
vt 0.69895 0.60632
vt 0.26077 0.00228
vt 0.25482 0.00176
vt 0.26945 0.00183
vt 0.07490 0.52804
vt 0.33111 0.83810
vt 0.31532 0.84458
vt 0.30851 0.83778
vt 0.33104 0.84378
vt 0.95933 0.91195
vt 0.95556 0.89058
vt 0.96001 0.88936
vt 0.09527 0.07502
vt 0.24305 0.79272
vt 0.07489 0.53626
vt 0.30711 0.84498
vt 0.28390 0.83898
vt 0.08427 0.54517
vt 0.29520 0.84561
vt 0.07586 0.54815
vt 0.28607 0.84547
vt 0.26697 0.84024
vt 0.07592 0.55728
vt 0.72584 0.64409
vt 0.72588 0.61157
vt 0.08590 0.57766
vt 0.27050 0.84675
vt 0.07701 0.57287
vt 0.92724 0.12723
vt 0.92724 0.09977
vt 0.92817 0.11673
vt 0.21675 0.87673
vt 0.65310 0.98549
vt 0.98935 0.72685
vt 0.02819 0.08003
vt 0.33728 0.15524
vt 0.36297 0.16096
vt 0.22556 0.96621
vt 0.22743 0.96689
vt 0.22575 0.98627
vt 0.73382 0.35323
vt 0.73274 0.33191
vt 0.73437 0.33076
vt 0.64231 0.11582
vt 0.65130 0.13298
vt 0.64074 0.13375
vt 0.75291 0.32879
vt 0.25399 0.96817
vt 0.27261 0.96725
vt 0.27436 0.98725
vt 0.75537 0.33910
vt 0.75492 0.35235
vt 0.25557 0.98683
vt 0.29445 0.12291
vt 0.34766 0.12307
vt 0.34766 0.14252
vt 0.32633 0.14352
vt 0.25244 0.98611
vt 0.96702 0.51042
vt 0.96523 0.50921
vt 0.96690 0.50721
vt 0.96594 0.52919
vt 0.07882 0.00004
vt 0.07793 0.00249
vt 0.06880 0.00045
vt 0.75634 0.36276
vt 0.75137 0.98420
vt 0.75137 0.97283
vt 0.75318 0.98363
vt 0.95203 0.50745
vt 0.95056 0.50624
vt 0.95056 0.48698
vt 0.95208 0.48547
vt 0.65215 0.11390
vt 0.75689 0.36267
vt 0.67981 0.11372
vt 0.73149 0.20683
vt 0.73237 0.18364
vt 0.75164 0.18364
vt 0.67492 0.13283
vt 0.00436 0.93734
vt 0.00436 0.96054
vt 0.00222 0.93742
vt 0.96814 0.48599
vt 0.36963 0.16297
vt 0.37793 0.18140
vt 0.36676 0.17929
vt 0.96855 0.50607
vt 0.75318 0.19448
vt 0.63785 0.11494
vt 0.63999 0.11595
vt 0.63999 0.13201
vt 0.48393 0.61764
vt 0.47485 0.61541
vt 0.47763 0.59562
vt 0.39801 0.18249
vt 0.29067 0.06310
vt 0.27607 0.06182
vt 0.29618 0.06223
vt 0.73189 0.22438
vt 0.75235 0.20911
vt 0.73362 0.37734
vt 0.30224 0.14271
vt 0.40176 0.26438
vt 0.40428 0.28492
vt 0.39962 0.26538
vt 0.12930 0.97253
vt 0.10629 0.97253
vt 0.12836 0.97135
vt 0.75715 0.38575
vt 0.63968 0.97426
vt 0.66104 0.97485
vt 0.64034 0.97605
vt 0.53026 0.60351
vt 0.75229 0.22905
vt 0.66113 0.97620
vt 0.68793 0.96763
vt 0.68658 0.96628
vt 0.71130 0.96614
vt 0.18739 0.97206
vt 0.16398 0.97206
vt 0.17726 0.97132
vt 0.31060 0.06346
vt 0.93332 0.75202
vt 0.95363 0.77492
vt 0.93332 0.77281
vt 0.60527 0.11524
vt 0.24121 0.92147
vt 0.25893 0.92147
vt 0.24033 0.92250
vt 0.92087 0.41195
vt 0.94461 0.40506
vt 0.94920 0.42496
vt 0.61683 0.13376
vt 0.69697 0.13143
vt 0.73944 0.38708
vt 0.38256 0.16348
vt 0.95435 0.76989
vt 0.40715 0.16366
vt 0.46290 0.94416
vt 0.46290 0.96552
vt 0.43649 0.94781
vt 0.73306 0.38671
vt 0.31071 0.06182
vt 0.41712 0.28327
vt 0.45865 0.24061
vt 0.46383 0.22057
vt 0.46733 0.22200
vt 0.45992 0.24210
vt 0.24140 0.93990
vt 0.95495 0.75231
vt 0.43098 0.00657
vt 0.43208 0.00354
vt 0.44870 0.00538
vt 0.29537 0.13135
vt 0.29288 0.14193
vt 0.95074 0.75137
vt 0.44334 0.01486
vt 0.43199 0.01308
vt 0.44106 0.01259
vt 0.45277 0.96485
vt 0.44240 0.01605
vt 0.59927 0.13383
vt 0.58366 0.12762
vt 0.08876 0.97077
vt 0.10542 0.97223
vt 0.08265 0.97260
vt 0.01147 0.65399
vt 0.00952 0.66468
vt 0.00428 0.66278
vt 0.26407 0.94114
vt 0.45548 0.25520
vt 0.22483 0.98427
vt 0.20413 0.98427
vt 0.22257 0.96639
vt 0.52958 0.62378
vt 0.51113 0.62268
vt 0.58347 0.11137
vt 0.94004 0.42810
vt 0.75195 0.14940
vt 0.75324 0.14585
vt 0.75218 0.16004
vt 0.66788 0.01029
vt 0.67625 0.01051
vt 0.66839 0.01218
vt 0.42389 0.01541
vt 0.43946 0.96491
vt 0.52676 0.62510
vt 0.77254 0.17312
vt 0.69561 0.11296
vt 0.95140 0.31631
vt 0.94633 0.31676
vt 0.95189 0.30664
vt 0.44519 0.94348
vt 0.32041 0.06399
vt 0.00369 0.64633
vt 0.44137 0.27924
vt 0.32265 0.05988
vt 0.47762 0.22474
vt 0.47707 0.24697
vt 0.42370 0.01226
vt 0.42445 0.18065
vt 0.41254 0.18283
vt 0.68703 0.01246
vt 0.75172 0.23885
vt 0.77180 0.14942
vt 0.77122 0.14710
vt 0.43686 0.94520
vt 0.00882 0.61988
vt 0.02828 0.59222
vt 0.03011 0.60995
vt 0.01117 0.64551
vt 0.48814 0.22797
vt 0.75204 0.17105
vt 0.53606 0.59907
vt 0.24203 0.94417
vt 0.20288 0.96567
vt 0.27029 0.92267
vt 0.26742 0.92084
vt 0.00391 0.64472
vt 0.72912 0.24255
vt 0.32302 0.06202
vt 0.01993 0.59279
vt 0.00898 0.59298
vt 0.79063 0.57981
vt 0.79225 0.57239
vt 0.80865 0.57382
vt 0.95143 0.29194
vt 0.91650 0.63693
vt 0.89824 0.63487
vt 0.90062 0.63146
vt 0.42388 0.16545
vt 0.19174 0.13232
vt 0.19346 0.11269
vt 0.19405 0.13293
vt 0.45873 0.27398
vt 0.92880 0.31544
vt 0.22217 0.00156
vt 0.22282 0.00356
vt 0.21146 0.00487
vt 0.92086 0.47345
vt 0.92086 0.47556
vt 0.91944 0.47393
vt 0.13624 0.96679
vt 0.13680 0.97001
vt 0.11345 0.96906
vt 0.28787 0.84802
vt 0.30524 0.84649
vt 0.28949 0.86530
vt 0.53820 0.62726
vt 0.54218 0.60239
vt 0.43758 0.99563
vt 0.43758 0.99780
vt 0.42491 0.99755
vt 0.80379 0.21307
vt 0.79784 0.25558
vt 0.79874 0.21543
vt 0.22123 0.01765
vt 0.79070 0.57284
vt 0.00967 0.64439
vt 0.31768 0.86413
vt 0.30594 0.00371
vt 0.32252 0.00663
vt 0.30438 0.00691
vt 0.93072 0.29366
vt 0.54394 0.63368
vt 0.32639 0.84503
vt 0.26389 0.94374
vt 0.21775 0.13344
vt 0.45147 0.00657
vt 0.45437 0.00424
vt 0.46663 0.00531
vt 0.81858 0.19910
vt 0.81675 0.21163
vt 0.80444 0.21163
vt 0.49984 0.23089
vt 0.82388 0.22382
vt 0.81269 0.35133
vt 0.79142 0.34162
vt 0.79031 0.32886
vt 0.79905 0.21229
vt 0.42507 0.09568
vt 0.43524 0.10015
vt 0.46001 0.11815
vt 0.92145 0.45929
vt 0.99886 0.41981
vt 0.99886 0.42953
vt 0.99709 0.42763
vt 0.22034 0.11194
vt 0.56171 0.62684
vt 0.89341 0.61541
vt 0.77239 0.18467
vt 0.75303 0.18307
vt 0.82501 0.25201
vt 0.44894 0.00405
vt 0.32307 0.86333
vt 0.41778 0.11436
vt 0.79698 0.18341
vt 0.80810 0.61398
vt 0.89963 0.61563
vt 0.45874 0.25294
vt 0.81231 0.34023
vt 0.32622 0.86579
vt 0.96619 0.24264
vt 0.96488 0.23461
vt 0.96850 0.23631
vt 0.51250 0.23457
vt 0.94859 0.24190
vt 0.55591 0.63737
vt 0.89593 0.34703
vt 0.92409 0.34703
vt 0.46622 0.27573
vt 0.79695 0.20490
vt 0.55755 0.64134
vt 0.92096 0.44623
vt 0.91930 0.44557
vt 0.50858 0.25777
vt 0.56152 0.64554
vt 0.78979 0.60773
vt 0.02927 0.64325
vt 0.89588 0.61434
vt 0.80419 0.31195
vt 0.69938 0.52288
vt 0.69883 0.52441
vt 0.67157 0.52727
vt 0.96501 0.69485
vt 0.96709 0.70125
vt 0.94848 0.70152
vt 0.79022 0.31790
vt 0.56149 0.61578
vt 0.53138 0.87005
vt 0.52956 0.84218
vt 0.53138 0.84655
vt 0.81133 0.31444
vt 0.34406 0.14462
vt 0.32710 0.15007
vt 0.32686 0.14462
vt 0.81291 0.31882
vt 0.45389 0.11069
vt 0.79259 0.31011
vt 0.63923 0.99758
vt 0.64561 0.99702
vt 0.65097 0.99792
vt 0.81906 0.18815
vt 0.79871 0.61514
vt 0.79044 0.30640
vt 0.42914 0.12251
vt 0.56408 0.61966
vt 0.70598 0.52300
vt 0.24608 0.13369
vt 0.47925 0.27263
vt 0.46061 0.25099
vt 0.47398 0.25506
vt 0.75430 0.19619
vt 0.48643 0.28301
vt 0.51592 0.23636
vt 0.70682 0.52611
vt 0.82028 0.17671
vt 0.81566 0.17067
vt 0.22928 0.13427
vt 0.70213 0.54359
vt 0.05978 0.00984
vt 0.07925 0.00984
vt 0.06918 0.01089
vt 0.51742 0.24564
vt 0.82055 0.61835
vt 0.82165 0.61532
vt 0.82454 0.61667
vt 0.53161 0.84241
vt 0.45980 0.11529
vt 0.82034 0.17093
vt 0.80848 0.17058
vt 0.71080 0.53658
vt 0.32254 0.14898
vt 0.00606 0.23659
vt 0.00943 0.23611
vt 0.00220 0.23810
vt 0.82157 0.62950
vt 0.53112 0.83905
vt 0.77282 0.20147
vt 0.75532 0.19991
vt 0.68285 0.97798
vt 0.68252 0.98309
vt 0.67759 0.98396
vt 0.78892 0.61770
vt 0.53453 0.25463
vt 0.48895 0.26000
vt 0.52985 0.83217
vt 0.80019 0.17000
vt 0.78506 0.44423
vt 0.78506 0.43905
vt 0.78684 0.45551
vt 0.31544 0.14443
vt 0.51183 0.26173
vt 0.44963 0.13559
vt 0.79124 0.47214
vt 0.67026 0.97062
vt 0.64674 0.96857
vt 0.67126 0.96820
vt 0.46543 0.11943
vt 0.52468 0.23397
vt 0.24390 0.11338
vt 0.66579 0.98511
vt 0.72833 0.00480
vt 0.71151 0.00480
vt 0.72336 0.00430
vt 0.31029 0.14389
vt 0.31538 0.14935
vt 0.66333 0.98012
vt 0.81697 0.11348
vt 0.79346 0.11708
vt 0.77403 0.09765
vt 0.30707 0.14898
vt 0.09615 0.90744
vt 0.08064 0.90744
vt 0.08986 0.88933
vt 0.49753 0.26106
vt 0.72045 0.56471
vt 0.46262 0.12742
vt 0.66414 0.98400
vt 0.70537 0.55141
vt 0.69668 0.96981
vt 0.71679 0.96626
vt 0.72142 0.97054
vt 0.09891 0.89008
vt 0.66143 0.97832
vt 0.30406 0.14991
vt 0.54854 0.24003
vt 0.46068 0.13284
vt 0.49950 0.28642
vt 0.50432 0.27639
vt 0.79704 0.16991
vt 0.54020 0.22711
vt 0.87518 0.17323
vt 0.87518 0.13723
vt 0.87709 0.13668
vt 0.30058 0.14762
vt 0.29797 0.14382
vt 0.70669 0.55719
vt 0.54628 0.24752
vt 0.81495 0.09677
vt 0.87523 0.24136
vt 0.88412 0.25406
vt 0.87576 0.27735
vt 0.49866 0.26338
vt 0.80669 0.42675
vt 0.30179 0.15396
vt 0.99378 0.05253
vt 0.98954 0.03948
vt 0.99176 0.04076
vt 0.54685 0.22256
vt 0.55116 0.22735
vt 0.72231 0.57242
vt 0.06489 0.89396
vt 0.07295 0.88946
vt 0.29219 0.14446
vt 0.50059 0.27085
vt 0.77720 0.99065
vt 0.77720 0.97952
vt 0.77942 0.98658
vt 0.06495 0.89040
vt 0.06505 0.90339
vt 0.29704 0.14795
vt 0.55247 0.23463
vt 0.28764 0.14718
vt 0.82327 0.65920
vt 0.82418 0.10381
vt 0.79830 0.07793
vt 0.83922 0.07889
vt 0.97888 0.06671
vt 0.97973 0.06097
vt 0.98371 0.05407
vt 0.45470 0.14295
vt 0.78380 0.42679
vt 0.61204 0.01135
vt 0.60081 0.01544
vt 0.59271 0.01166
vt 0.06565 0.90717
vt 0.71230 0.56750
vt 0.77416 0.11595
vt 0.98246 0.05058
vt 0.28384 0.14769
vt 0.97888 0.05206
vt 0.83891 0.10660
vt 0.71827 0.58480
vt 0.72530 0.57977
vt 0.84227 0.00446
vt 0.83437 0.00377
vt 0.85016 0.00363
vt 0.86521 0.35011
vt 0.86341 0.37776
vt 0.86149 0.37810
vt 0.64293 0.00371
vt 0.64164 0.00539
vt 0.86198 0.34795
vt 0.86550 0.38615
vt 0.86344 0.38663
vt 0.92329 0.35570
vt 0.65867 0.00509
vt 0.56171 0.62684
vt 0.56171 0.62684
vt 0.56171 0.62684
vt 0.56171 0.62684
vt 0.41845 0.39086
vt 0.41845 0.39086
vt 0.41845 0.39086
vt 0.41845 0.39086
vt 0.41845 0.39086
vt 0.41845 0.39086
vt 0.41845 0.39086
vt 0.41845 0.39086
vt 0.41845 0.39086
vt 0.41845 0.39086
vt 0.41845 0.39086
vt 0.41845 0.39086
vt 0.41845 0.39086
vt 0.41845 0.39086
vt 0.41845 0.39086
vt 0.41845 0.39086
vt 0.41845 0.39086
vn -0.1590 0.9873 0.0051
vn -0.1827 0.9821 -0.0453
vn -0.1537 0.9880 0.0162
vn -0.0912 0.9855 0.1433
vn -0.6938 0.6510 0.3079
vn -0.6938 0.6510 0.3079
vn -0.6938 0.6510 0.3079
vn 0.3308 0.7896 -0.5168
vn 0.3308 0.7896 -0.5168
vn 0.3308 0.7896 -0.5168
vn 0.8863 0.1170 -0.4481
vn 0.8863 0.1170 -0.4481
vn 0.8863 0.1170 -0.4481
vn 0.6104 0.6664 -0.4282
vn 0.6104 0.6664 -0.4282
vn 0.6104 0.6664 -0.4282
vn -0.1031 0.9902 -0.0939
vn -0.1318 0.9884 -0.0755
vn -0.1037 0.9902 -0.0939
vn 0.1517 0.8951 0.4193
vn 0.1517 0.8951 0.4193
vn 0.1517 0.8951 0.4193
vn 0.8534 -0.0311 -0.5204
vn 0.8534 -0.0311 -0.5204
vn -0.1071 0.9910 -0.0804
vn -0.4050 0.4576 -0.7916
vn -0.4050 0.4576 -0.7916
vn -0.4050 0.4576 -0.7916
vn -0.1312 0.9897 -0.0568
vn -0.0998 0.9931 -0.0611
vn -0.1154 0.9924 -0.0433
vn -0.8766 0.0456 0.4790
vn -0.8766 0.0456 0.4790
vn -0.8766 0.0456 0.4790
vn -0.0902 0.9942 -0.0590
vn 0.6707 0.4291 -0.6049
vn 0.5301 0.4612 -0.7115
vn 0.5297 0.4717 -0.7049
vn 0.7561 0.4043 0.5147
vn 0.6552 0.4699 0.5915
vn 0.6229 0.4732 0.6229
vn 0.5891 0.4936 0.6397
vn 0.5235 0.4900 -0.6971
vn 0.4621 0.4699 -0.7522
vn 0.4680 0.4573 -0.7562
vn 0.5903 0.4833 0.6465
vn 0.5766 0.4795 0.6615
vn 0.5925 0.4669 0.6565
vn 0.4614 0.4691 -0.7531
vn 0.4716 0.4552 -0.7552
vn 0.5922 0.4849 0.6436
vn -0.7153 -0.6727 0.1893
vn -0.7130 -0.6738 0.1942
vn -0.7269 -0.6695 0.1529
vn 0.4601 0.4592 -0.7599
vn 0.5809 0.4691 0.6652
vn 0.6273 0.5010 0.5962
vn 0.1695 0.0557 0.9840
vn 0.1708 0.0568 0.9837
vn 0.1349 -0.0021 0.9909
vn -0.3396 -0.4124 0.8453
vn -0.3517 -0.4157 0.8387
vn -0.3530 -0.4163 0.8379
vn 0.1018 -0.0091 0.9948
vn -0.7231 -0.6875 0.0664
vn 0.6283 0.4303 0.6482
vn -0.7195 -0.6931 0.0438
vn 0.6442 0.5398 0.5418
vn 0.4660 0.4560 -0.7582
vn -0.3675 -0.4274 0.8260
vn 0.5003 0.4181 0.7583
vn 0.5159 0.4466 0.7310
vn 0.4666 0.3661 0.8051
vn 0.4477 0.4674 -0.7623
vn 0.1431 -0.0013 0.9897
vn 0.5228 0.4555 0.7206
vn -0.4452 -0.4582 0.7693
vn -0.4324 -0.4600 0.7755
vn -0.4334 -0.4602 0.7748
vn -0.5154 -0.3932 -0.7614
vn -0.5075 -0.4027 -0.7618
vn -0.5007 -0.4219 -0.7558
vn -0.4563 -0.4524 0.7662
vn -0.7233 -0.6904 0.0141
vn -0.5170 -0.3843 -0.7649
vn 0.5317 0.4392 0.7242
vn -0.5181 -0.4658 0.7173
vn -0.7250 -0.6887 -0.0040
vn -0.5845 -0.5236 -0.6199
vn -0.5957 -0.5466 -0.5885
vn -0.6883 -0.6066 -0.3978
vn -0.5351 -0.5088 0.6744
vn -0.5279 -0.5186 0.6726
vn -0.5310 -0.5101 0.6766
vn 0.6916 0.5472 0.4714
vn 0.4434 0.4696 -0.7634
vn 0.5310 0.4420 0.7229
vn 0.5472 0.3786 0.7465
vn -0.7474 -0.6639 -0.0255
vn -0.5822 -0.5063 -0.6362
vn 0.6059 -0.6668 -0.4338
vn 0.6059 -0.6668 -0.4338
vn 0.6059 -0.6668 -0.4338
vn 0.6465 0.4456 0.6192
vn -0.5181 -0.3897 -0.7613
vn -0.7347 -0.6628 -0.1444
vn -0.7382 -0.6508 -0.1777
vn -0.7350 -0.6619 -0.1471
vn 0.4625 -0.8180 0.3421
vn 0.4117 -0.6306 0.6579
vn 0.3950 -0.6885 0.6082
vn -0.5294 -0.5378 0.6561
vn -0.5877 -0.5059 -0.6315
vn 0.3542 -0.5643 0.7457
vn -0.5370 -0.5447 0.6442
vn -0.2394 -0.7843 -0.5723
vn 0.4034 -0.5334 0.7435
vn -0.4224 -0.4618 0.7799
vn -0.6400 -0.5132 -0.5718
vn -0.7385 -0.6496 -0.1810
vn -0.5456 -0.5569 0.6262
vn -0.5441 -0.5513 0.6325
vn -0.4210 -0.3690 -0.8286
vn 0.2366 -0.9030 0.3586
vn 0.3087 -0.8178 0.4858
vn 0.4213 -0.5573 0.7155
vn -0.6592 -0.5225 -0.5407
vn 0.1834 -0.9299 0.3190
vn 0.6066 0.4741 0.6381
vn -0.4244 -0.4623 0.7786
vn 0.3856 -0.6395 0.6651
vn 0.2066 -0.9775 -0.0437
vn -0.1147 -0.9912 -0.0656
vn -0.3520 0.0978 0.9309
vn -0.4092 0.0620 0.9103
vn -0.5073 0.1256 0.8526
vn -0.6214 -0.0227 0.7832
vn -0.3170 -0.6099 -0.7263
vn 0.6069 0.4617 0.6469
vn -0.7693 -0.1654 0.6171
vn -0.7729 -0.1283 0.6214
vn -0.7384 -0.0261 0.6738
vn -0.3964 -0.4572 0.7962
vn -0.3797 -0.4419 0.8128
vn -0.3923 -0.4563 0.7987
vn -0.3787 -0.4283 0.8204
vn 0.2104 -0.9241 0.3190
vn -0.6151 -0.5144 -0.5975
vn -0.6218 -0.5135 -0.5914
vn -0.6097 -0.5469 -0.5737
vn -0.5422 0.2557 0.8004
vn -0.5811 0.3501 0.7347
vn -0.7849 0.1585 0.5991
vn -0.1801 -0.9814 -0.0659
vn 0.1776 -0.9346 0.3082
vn -0.6239 -0.5169 -0.5861
vn -0.8590 -0.2291 0.4579
vn -0.1748 -0.9536 -0.2452
vn -0.8220 -0.3631 0.4386
vn -0.8029 -0.4857 0.3456
vn -0.6601 0.4416 0.6077
vn -0.4278 -0.2947 -0.8545
vn -0.9258 -0.0438 0.3754
vn 0.3344 0.5363 -0.7750
vn 0.3344 0.5363 -0.7750
vn 0.3344 0.5363 -0.7750
vn -0.9442 0.0722 0.3215
vn -0.9441 0.0248 0.3286
vn -0.4280 -0.4695 0.7722
vn -0.4301 -0.4578 0.7781
vn -0.4141 -0.4619 0.7843
vn -0.5818 -0.4538 -0.6750
vn 0.8534 -0.0311 -0.5204
vn 0.7666 0.1194 0.6309
vn 0.7666 0.1194 0.6309
vn 0.7666 0.1194 0.6309
vn -0.2987 0.5791 0.7585
vn -0.4560 0.5629 0.6893
vn -0.6102 0.5267 0.5918
vn -0.6613 0.5090 0.5510
vn 0.4991 0.8389 0.2174
vn 0.4991 0.8389 0.2174
vn 0.4991 0.8389 0.2174
vn -0.1843 0.3688 0.9111
vn -0.1976 0.4193 0.8861
vn -0.1235 0.1499 0.9810
vn -0.2298 0.5469 0.8050
vn 0.9998 -0.0163 -0.0103
vn 0.9848 -0.0142 -0.1732
vn 0.9933 -0.0150 -0.1143
vn 0.1967 0.8821 -0.4281
vn 0.1967 0.8821 -0.4281
vn 0.1967 0.8821 -0.4281
vn 0.9883 -0.0180 0.1516
vn -0.8953 -0.1133 0.4308
vn -0.8821 -0.1451 0.4482
vn -0.7119 -0.4103 0.5699
vn 0.9125 -0.2551 -0.3197
vn 0.8641 -0.1816 -0.4694
vn 0.8741 -0.1642 -0.4572
vn -0.4105 0.8411 0.3523
vn -0.3813 0.8904 0.2484
vn -0.3666 0.9291 0.0487
vn -0.6818 -0.4436 0.5817
vn 0.8463 -0.0291 -0.5319
vn 0.8348 -0.0300 -0.5497
vn 0.8421 -0.0384 -0.5380
vn -0.9291 0.3015 0.2143
vn -0.8514 0.4738 0.2248
vn -0.7880 0.5722 0.2273
vn -0.3708 0.9281 -0.0329
vn 0.4566 0.1850 0.8703
vn 0.4606 0.2126 0.8618
vn 0.4674 0.1950 0.8623
vn -0.6774 -0.1766 -0.7141
vn -0.6774 -0.1766 -0.7141
vn -0.6774 -0.1766 -0.7141
vn 0.8110 -0.1170 -0.5733
vn -0.5086 0.8600 -0.0416
vn -0.9650 -0.1195 0.2334
vn -0.9962 -0.0830 0.0265
vn -0.9537 -0.0103 -0.3007
vn -0.9830 -0.0342 -0.1801
vn 0.8294 -0.1412 -0.5405
vn 0.8247 -0.0846 -0.5592
vn 0.8382 -0.0722 -0.5406
vn -0.4709 -0.1389 -0.8712
vn -0.1157 -0.1842 -0.9761
vn -0.3158 -0.1493 -0.9370
vn 0.2600 -0.5137 0.8176
vn 0.2442 -0.5403 0.8052
vn 0.2439 -0.5408 0.8050
vn 0.2605 -0.5128 0.8180
vn 0.7512 0.5662 0.3391
vn 0.6744 0.5242 0.5200
vn 0.6122 0.4399 0.6570
vn 0.5415 0.3676 0.7560
vn 0.5741 0.3739 0.7284
vn 0.4487 0.2525 0.8572
vn -0.3227 -0.8401 0.4360
vn -0.1709 -0.9584 0.2287
vn -0.1326 -0.9651 0.2259
vn -0.4719 -0.1377 -0.8708
vn 0.4531 0.2354 0.8598
vn 0.4209 0.2702 0.8659
vn -0.1678 -0.9753 0.1439
vn -0.2985 -0.8642 0.4050
vn 0.4749 0.5177 -0.7117
vn 0.5616 0.5390 -0.6278
vn 0.4517 0.4458 -0.7728
vn 0.4512 0.4451 -0.7735
vn -0.4353 -0.0176 -0.9001
vn 0.7476 0.5765 0.3298
vn 0.5111 0.4669 -0.7217
vn 0.8122 -0.0787 -0.5781
vn 0.8122 -0.0787 -0.5781
vn 0.8122 -0.0787 -0.5781
vn -0.1450 -0.9693 0.1985
vn 0.8581 0.0657 0.5092
vn 0.6794 0.3338 0.6535
vn 0.8403 0.0477 0.5400
vn 0.8964 -0.2782 0.3452
vn 0.6716 -0.6573 -0.3420
vn 0.6829 -0.6548 -0.3239
vn 0.6913 -0.6418 -0.3319
vn 0.4345 0.3541 -0.8281
vn 0.4340 0.3649 -0.8237
vn -0.0677 -0.2827 0.9568
vn -0.0677 -0.2827 0.9568
vn -0.0677 -0.2827 0.9568
vn -0.2900 0.2318 0.9285
vn -0.2945 0.1681 0.9408
vn -0.2957 0.1467 0.9439
vn -0.0173 -0.2162 -0.9762
vn -0.0173 -0.2162 -0.9762
vn -0.0173 -0.2162 -0.9762
vn 0.2380 0.0296 0.9708
vn -0.3003 -0.0093 0.9538
vn -0.3199 0.3651 -0.8743
vn 0.7485 0.6616 0.0449
vn 0.7485 0.6616 0.0449
vn 0.7485 0.6616 0.0449
vn -0.5872 -0.6155 0.5257
vn 0.7487 0.6120 0.2549
vn 0.6625 -0.6871 -0.2984
vn -0.8748 0.2955 0.3840
vn -0.8640 0.2402 0.4424
vn -0.8284 0.0834 0.5540
vn 0.5583 0.4067 0.7231
vn 0.5026 0.3835 0.7748
vn 0.7303 0.6816 0.0449
vn 0.7303 0.6816 0.0449
vn 0.7303 0.6816 0.0449
vn 0.4338 0.5526 -0.7116
vn -0.4470 -0.1661 -0.8790
vn 0.6631 0.5546 0.5027
vn 0.3890 0.5996 -0.6994
vn 0.4706 0.4882 -0.7350
vn 0.4380 0.4670 -0.7681
vn 0.4322 0.4889 -0.7577
vn -0.2696 -0.9468 0.1758
vn 0.3949 0.4581 -0.7964
vn 0.6563 -0.6924 -0.2997
vn 0.6535 -0.7002 -0.2876
vn -0.8472 0.1047 0.5209
vn -0.2035 -0.9674 0.1506
vn -0.8762 0.1372 0.4620
vn 0.5209 0.5500 -0.6528
vn 0.7370 0.6696 0.0923
vn 0.7370 0.6696 0.0923
vn 0.7370 0.6696 0.0923
vn 0.4291 0.3737 -0.8223
vn 0.3954 0.3800 -0.8362
vn -0.9147 0.2036 0.3492
vn -0.8525 -0.0547 0.5198
vn -0.6891 -0.4332 0.5809
vn 0.4754 0.4404 0.7616
vn 0.3112 0.6213 -0.7192
vn -0.3005 0.9098 -0.2862
vn -0.2307 0.9117 -0.3399
vn -0.2219 0.9374 -0.2684
vn 0.3672 0.4955 -0.7872
vn 0.4271 0.4997 -0.7536
vn -0.9582 0.2146 0.1890
vn 0.6065 0.5076 0.6120
vn 0.3464 0.3885 -0.8539
vn -0.8358 -0.4419 -0.3259
vn -0.8358 -0.4419 -0.3259
vn -0.8358 -0.4419 -0.3259
vn 0.6569 -0.7023 -0.2742
vn -0.3990 0.8968 -0.1911
vn 0.6650 0.5135 0.5423
vn -0.5368 0.6764 0.5043
vn -0.5112 0.6742 0.5330
vn -0.5920 0.6767 0.4378
vn 0.1036 0.6762 0.7294
vn -0.6699 0.6588 0.3424
vn -0.5937 0.6864 0.4198
vn -0.0552 0.9509 -0.3044
vn -0.2306 -0.7246 -0.6494
vn -0.2306 -0.7246 -0.6494
vn -0.2306 -0.7246 -0.6494
vn 0.5998 0.5462 0.5847
vn 0.6190 0.5788 0.5309
vn 0.5678 0.4851 0.6651
vn 0.7654 0.3968 -0.5067
vn 0.7579 0.4000 -0.5153
vn 0.7591 0.3995 -0.5140
vn 0.6740 0.6698 0.3116
vn 0.5828 0.5469 0.6011
vn 0.0982 0.6803 0.7263
vn 0.9527 -0.0828 0.2925
vn 0.9527 -0.0828 0.2925
vn 0.9527 -0.0828 0.2925
vn 0.7512 0.4027 -0.5229
vn 0.7171 -0.6441 0.2665
vn 0.7974 -0.6034 -0.0054
vn 0.8240 -0.5662 0.0226
vn 0.7285 0.6837 -0.0429
vn 0.7285 0.6837 -0.0429
vn 0.7285 0.6837 -0.0429
vn 0.8596 -0.4900 -0.1450
vn 0.0955 0.1587 -0.9827
vn 0.3090 0.3541 -0.8827
vn 0.8751 0.1307 0.4659
vn 0.8751 0.1307 0.4659
vn 0.8751 0.1307 0.4659
vn 0.9125 -0.3807 -0.1495
vn -0.7316 -0.5075 -0.4552
vn -0.5970 -0.5110 -0.6184
vn -0.5907 -0.4793 -0.6491
vn -0.6607 0.6963 0.2804
vn -0.0691 0.0098 -0.9976
vn -0.0691 0.0098 -0.9976
vn -0.0691 0.0098 -0.9976
vn -0.4289 -0.4837 -0.7629
vn 0.3512 0.3869 -0.8526
vn -0.6504 0.7181 0.2475
vn 0.4031 0.4358 -0.8047
vn 0.3458 0.3109 -0.8853
vn 0.3384 0.3669 -0.8665
vn -0.3632 -0.4915 0.7915
vn -0.3640 -0.4943 0.7894
vn -0.3657 -0.4932 0.7893
vn -0.5743 0.7880 0.2219
vn 0.3188 0.4188 -0.8503
vn -0.5918 -0.4614 -0.6609
vn 0.2416 0.3129 -0.9185
vn 0.5666 0.4743 0.6738
vn 0.5660 0.4508 0.6902
vn -0.3667 -0.4860 0.7933
vn -0.3653 -0.4759 0.8001
vn -0.3654 -0.4857 0.7941
vn -0.5080 -0.5740 0.6422
vn -0.4650 -0.5706 0.6769
vn -0.3970 -0.5194 0.7567
vn -0.7761 -0.5547 -0.2999
vn -0.7804 -0.5250 -0.3397
vn -0.7476 -0.4607 -0.4783
vn -0.6350 -0.4548 -0.6244
vn -0.6957 -0.6232 0.3573
vn -0.6993 0.1088 0.7065
vn -0.6989 0.1076 0.7071
vn -0.3785 -0.3815 0.8434
vn -0.3785 -0.3815 0.8434
vn -0.3785 -0.3815 0.8434
vn -0.6848 -0.4098 -0.6026
vn -0.6635 -0.3712 -0.6496
vn -0.6806 -0.3670 -0.6341
vn -0.5873 -0.6172 0.5235
vn 0.2800 0.5229 -0.8051
vn 0.5803 0.4882 0.6519
vn 0.5185 0.4791 0.7083
vn 0.5619 0.4849 0.6701
vn 0.4833 0.4914 -0.7246
vn 0.4653 0.4688 -0.7508
vn -0.6964 -0.6914 0.1925
vn -0.6881 0.2568 0.6786
vn -0.7358 -0.3995 -0.5468
vn -0.7107 -0.6862 0.1547
vn -0.6679 -0.4534 -0.5902
vn -0.6800 -0.4214 -0.6001
vn 0.5820 -0.1831 -0.7923
vn 0.4827 -0.4382 -0.7583
vn 0.5000 -0.4020 -0.7671
vn 0.5925 -0.1461 -0.7922
vn 0.2316 -0.9344 -0.2708
vn 0.4860 -0.7437 -0.4591
vn 0.3859 -0.8787 -0.2810
vn -0.2383 -0.7821 -0.5757
vn -0.2383 -0.7821 -0.5757
vn -0.2383 -0.7821 -0.5757
vn 0.5691 0.4981 0.6542
vn 0.2581 0.2375 -0.9365
vn 0.2587 0.2388 -0.9360
vn 0.3334 0.3934 -0.8568
vn 0.5137 -0.5535 -0.6556
vn 0.5529 -0.7394 -0.3842
vn 0.1858 0.7480 -0.6372
vn 0.1589 0.0458 -0.9862
vn -0.3687 -0.4417 0.8179
vn -0.6893 -0.3882 -0.6116
vn -0.7130 -0.6755 0.1883
vn -0.8361 0.4974 0.2314
vn -0.8185 0.5198 0.2448
vn -0.8303 0.5046 0.2367
vn -0.8372 0.4968 0.2289
vn -0.3593 -0.4315 0.8275
vn -0.0216 0.0377 -0.9991
vn -0.0216 0.0377 -0.9991
vn -0.0216 0.0377 -0.9991
vn -0.6484 0.7122 0.2688
vn -0.6469 0.7453 0.1614
vn -0.7808 0.5121 0.3578
vn -0.4196 -0.4483 0.7893
vn -0.4289 -0.4498 0.7834
vn -0.4228 -0.4382 0.7932
vn -0.5975 -0.3188 -0.7358
vn -0.5510 -0.4249 -0.7182
vn -0.5389 -0.4123 -0.7346
vn -0.8693 -0.2847 -0.4040
vn 0.0065 0.7672 -0.6413
vn 0.0065 0.7672 -0.6413
vn 0.0065 0.7672 -0.6413
vn 0.4849 0.4533 0.7479
vn -0.6979 0.6479 0.3052
vn -0.8082 -0.2401 -0.5378
vn -0.6906 -0.5923 -0.4152
vn -0.6345 -0.4633 -0.6187
vn 0.5078 0.4681 0.7232
vn -0.5242 -0.4078 -0.7476
vn -0.5580 -0.3611 -0.7472
vn -0.5237 -0.4131 -0.7450
vn 0.2182 0.1132 0.9693
vn 0.2182 0.1132 0.9693
vn 0.2182 0.1132 0.9693
vn -0.0873 -0.9854 -0.1461
vn -0.0873 -0.9854 -0.1461
vn -0.0873 -0.9854 -0.1461
vn -0.4765 -0.3549 0.8043
vn -0.5500 -0.3965 -0.7350
vn -0.6822 0.6650 0.3039
vn -0.6886 0.6651 0.2889
vn -0.5542 0.8224 0.1286
vn -0.5510 0.8319 -0.0658
vn -0.7131 -0.6743 0.1918
vn -0.6410 -0.7646 -0.0663
vn -0.6805 -0.6322 -0.3705
vn -0.6089 -0.1019 0.7867
vn -0.6038 -0.5113 -0.6115
vn -0.5257 -0.3998 -0.7509
vn -0.4366 -0.4607 0.7727
vn 0.0308 0.0182 0.9994
vn 0.0308 0.0182 0.9994
vn 0.0308 0.0182 0.9994
vn -0.6046 -0.5083 -0.6133
vn -0.4582 -0.4909 0.7410
vn -0.5165 -0.5053 0.6914
vn -0.5300 -0.5281 0.6635
vn -0.4311 -0.4834 0.7619
vn -0.6841 -0.6665 -0.2962
vn -0.6841 -0.6665 -0.2962
vn -0.6841 -0.6665 -0.2962
vn -0.9591 -0.0341 -0.2811
vn 0.5095 0.4691 0.7213
vn -0.5874 -0.5067 -0.6311
vn -0.4609 -0.4316 0.7754
vn -0.5342 -0.5519 0.6404
vn -0.5818 -0.5104 -0.6333
vn -0.5341 -0.5771 0.6177
vn -0.5555 -0.5136 -0.6539
vn -0.4655 -0.4406 0.7676
vn -0.5181 -0.5418 0.6618
vn -0.6036 -0.5156 -0.6082
vn -0.4717 -0.4635 0.7501
vn -0.4369 -0.4650 0.7700
vn -0.6164 -0.4917 -0.6150
vn -0.5172 -0.5485 0.6570
vn -0.6130 -0.4735 -0.6324
vn -0.7448 -0.6646 -0.0600
vn -0.7448 -0.6646 -0.0600
vn -0.7448 -0.6646 -0.0600
vn 0.9183 -0.2775 -0.2824
vn -0.8503 0.4759 0.2249
vn -0.9495 -0.1445 0.2786
vn 0.3661 0.3638 -0.8565
vn -0.6593 -0.0028 0.7519
vn -0.3783 -0.4892 0.7859
vn 0.6631 -0.7440 -0.0823
vn 0.6631 -0.7440 -0.0823
vn 0.6631 -0.7440 -0.0823
vn 0.5768 0.4541 0.6790
vn 0.5754 0.1204 0.8089
vn 0.5981 0.3525 0.7197
vn -0.0063 0.8290 -0.5593
vn 0.0483 0.8096 -0.5850
vn 0.1909 0.7936 -0.5778
vn 0.6070 0.4862 0.6287
vn 0.7787 -0.3723 -0.5049
vn 0.7822 -0.4035 -0.4747
vn 0.7790 -0.4015 -0.4817
vn 0.5583 0.7757 0.2943
vn 0.5489 0.7251 0.4159
vn 0.7670 -0.2694 -0.5824
vn 0.0254 -0.8742 0.4848
vn -0.0046 -0.8388 0.5444
vn -0.0020 -0.8336 0.5524
vn 0.0052 -0.8271 0.5621
vn 0.7246 -0.0852 -0.6839
vn 0.0712 -0.4500 -0.8902
vn 0.1560 -0.3319 -0.9303
vn 0.2584 -0.1715 -0.9507
vn -0.0150 -0.5574 -0.8301
vn -0.3644 0.2884 -0.8855
vn -0.3644 0.2884 -0.8855
vn -0.3644 0.2884 -0.8855
vn 0.5587 0.4573 0.6920
vn 0.5735 0.8192 0.0098
vn 0.5735 0.8192 0.0098
vn 0.5735 0.8192 0.0098
vn 0.7850 -0.3611 -0.5035
vn 0.9110 -0.2692 -0.3123
vn 0.7422 -0.4119 -0.5286
vn 0.7346 -0.4163 -0.5357
vn -0.0493 0.8153 -0.5769
vn 0.4317 0.9000 0.0609
vn -0.0132 0.7997 -0.6003
vn 0.6676 0.3560 0.6539
vn 0.6736 0.3407 0.6559
vn 0.6676 0.3533 0.6554
vn -0.0053 0.8046 -0.5938
vn 0.4402 -0.3780 0.8144
vn 0.4402 -0.3780 0.8144
vn 0.4402 -0.3780 0.8144
vn 0.7091 -0.4043 -0.5777
vn 0.0461 0.8193 -0.5716
vn 0.0165 0.8149 -0.5794
vn 0.0328 0.8122 -0.5824
vn 0.6699 -0.3848 -0.6349
vn 0.6663 0.3562 0.6551
vn 0.0030 -0.9042 0.4271
vn 0.1240 -0.9425 0.3105
vn -0.0307 -0.8553 0.5172
vn -0.5918 -0.4383 -0.6765
vn -0.6135 -0.4492 -0.6495
vn -0.5874 -0.4477 -0.6742
vn 0.0479 0.8233 -0.5656
vn 0.5620 0.7974 0.2199
vn 0.5619 0.7976 0.2195
vn 0.5629 0.7952 0.2253
vn 0.6243 0.3527 0.6970
vn 0.6737 0.3332 0.6597
vn 0.5745 0.4142 0.7059
vn 0.0222 -0.8755 0.4827
vn -0.4802 -0.3992 -0.7811
vn -0.6144 -0.3403 -0.7118
vn -0.2708 -0.4727 -0.8386
vn 0.3842 0.9232 0.0117
vn 0.3842 0.9232 0.0117
vn 0.3842 0.9232 0.0117
vn 0.6020 0.4314 0.6719
vn 0.9518 -0.1455 0.2699
vn 0.9577 -0.1794 0.2249
vn 0.9521 -0.1467 0.2684
vn -0.5098 -0.4421 -0.7380
vn 0.6465 0.3669 0.6689
vn 0.9580 -0.1812 0.2224
vn -0.0892 0.5902 -0.8023
vn -0.0892 0.5902 -0.8023
vn -0.0892 0.5902 -0.8023
vn 0.5226 0.8521 0.0287
vn 0.5226 0.8521 0.0287
vn 0.5226 0.8521 0.0287
vn 0.5355 0.8173 0.2129
vn 0.7355 -0.4895 -0.4685
vn 0.7833 -0.4263 -0.4524
vn 0.6989 -0.5263 -0.4843
vn -0.1896 -0.9063 0.3776
vn -0.1582 -0.7971 0.5827
vn -0.3036 -0.7775 0.5508
vn -0.2021 -0.8214 0.5333
vn 0.3133 0.8532 -0.4169
vn 0.3236 0.8510 -0.4136
vn 0.3066 0.8546 -0.4190
vn -0.0102 -0.8083 0.5887
vn -0.0138 0.7966 -0.6043
vn 0.5952 0.3794 0.7084
vn 0.0836 0.8287 -0.5534
vn 0.8168 -0.3854 -0.4294
vn 0.0529 0.8273 -0.5592
vn 0.5888 0.2212 0.7774
vn 0.6069 0.2280 0.7614
vn 0.5158 0.1290 0.8469
vn 0.5049 0.2620 0.8225
vn 0.5125 0.8387 0.1843
vn -0.6242 -0.3310 -0.7077
vn 0.9423 0.0797 0.3250
vn 0.8970 0.1114 0.4278
vn 0.8216 0.1884 0.5381
vn 0.8510 0.1538 0.5022
vn -0.2993 -0.8571 0.4193
vn 0.7510 -0.4658 -0.4681
vn -0.2921 0.5586 0.7763
vn -0.2921 0.5586 0.7763
vn -0.2921 0.5586 0.7763
vn 0.1162 -0.9324 0.3422
vn 0.0453 -0.8682 0.4941
vn 0.7887 -0.1857 -0.5861
vn -0.5116 0.8402 -0.1796
vn -0.5530 0.8128 -0.1831
vn -0.4514 0.8528 -0.2626
vn 0.6010 0.2245 0.7671
vn -0.5383 0.8302 -0.1450
vn 0.1214 -0.6925 0.7111
vn -0.0658 -0.8330 0.5494
vn -0.8509 0.2232 0.4755
vn -0.8509 0.2232 0.4755
vn -0.8509 0.2232 0.4755
vn 0.5299 -0.8376 0.1331
vn 0.5487 -0.8063 0.2211
vn 0.5367 -0.8139 0.2226
vn -0.4020 -0.8469 0.3481
vn -0.4323 -0.4341 -0.7904
vn 0.6504 -0.3915 -0.6510
vn 0.6393 -0.4055 -0.6534
vn 0.6406 -0.4038 -0.6531
vn -0.4964 -0.4106 -0.7648
vn -0.5374 -0.0486 -0.8419
vn -0.1525 -0.8587 0.4893
vn 0.2860 0.8586 -0.4254
vn 0.3278 0.9289 -0.1725
vn 0.0732 0.8943 -0.4415
vn 0.0279 0.8949 -0.4454
vn 0.4045 -0.9145 -0.0115
vn 0.4778 -0.8452 -0.2397
vn 0.4156 -0.9086 -0.0417
vn -0.4843 0.8301 -0.2766
vn 0.5570 0.3310 0.7617
vn -0.5656 -0.3344 -0.7538
vn 0.0375 0.8769 -0.4793
vn -0.0353 0.7947 -0.6060
vn -0.5420 -0.1500 -0.8269
vn -0.5636 -0.1980 -0.8020
vn -0.5308 -0.1398 -0.8359
vn 0.4411 -0.0223 0.8972
vn 0.3241 0.9458 -0.0194
vn 0.4560 -0.8838 -0.1044
vn -0.6086 -0.3577 -0.7082
vn 0.3074 0.9509 -0.0352
vn 0.7065 0.2958 0.6429
vn 0.7029 0.2780 0.6547
vn -0.5016 0.8247 -0.2612
vn 0.0514 0.8130 -0.5800
vn 0.0313 0.7960 -0.6045
vn 0.4826 -0.8368 -0.2585
vn 0.6025 0.3560 0.7143
vn 0.0753 0.8284 -0.5551
vn 0.1708 0.7286 -0.6633
vn 0.3962 -0.0556 0.9165
vn -0.0207 -0.9002 0.4349
vn -0.0203 -0.8744 0.4847
vn -0.0180 -0.8902 0.4552
vn 0.5022 -0.8514 -0.1510
vn 0.6765 0.2933 0.6756
vn 0.0354 0.8813 -0.4712
vn -0.5096 -0.4532 -0.7314
vn -0.3770 -0.8779 0.2952
vn 0.6292 -0.4179 -0.6553
vn -0.3827 -0.7002 0.6027
vn -0.3887 -0.7049 0.5933
vn 0.3526 -0.8967 -0.2677
vn 0.5495 0.3394 0.7635
vn 0.3049 0.9519 -0.0307
vn -0.0427 -0.8963 0.4414
vn -0.0847 -0.9361 0.3413
vn -0.3151 -0.6439 0.6972
vn -0.3689 -0.6869 0.6261
vn -0.2948 -0.6341 0.7149
vn -0.5668 -0.2180 -0.7945
vn -0.0756 -0.9598 0.2703
vn 0.0586 -0.9638 0.2601
vn 0.1018 -0.9631 0.2491
vn 0.0534 0.8188 -0.5716
vn -0.4767 -0.3212 -0.8183
vn -0.6708 -0.2625 -0.6936
vn -0.5964 -0.2874 -0.7495
vn -0.4560 -0.4301 -0.7791
vn -0.5748 -0.2331 -0.7844
vn 0.9696 -0.0528 -0.2390
vn 0.9326 -0.0922 -0.3490
vn 0.8974 -0.1196 -0.4246
vn 0.5132 -0.8580 0.0220
vn 0.6851 -0.6912 0.2297
vn 0.5436 -0.8375 0.0549
vn 0.0614 0.5383 0.8405
vn 0.0614 0.5383 0.8405
vn 0.0614 0.5383 0.8405
vn 0.3247 0.6021 -0.7294
vn 0.3241 0.5880 -0.7411
vn 0.3268 0.5917 -0.7370
vn -0.4209 -0.3001 -0.8560
vn -0.5612 -0.4528 -0.6929
vn 0.7311 0.6496 -0.2087
vn 0.7311 0.6496 -0.2087
vn 0.7311 0.6496 -0.2087
vn 0.4981 0.3404 0.7975
vn 0.5492 0.4459 0.7069
vn 0.4038 0.1336 0.9051
vn 0.8803 -0.1310 -0.4559
vn -0.4458 -0.7807 0.4379
vn -0.0104 -0.9046 0.4262
vn 0.3509 0.5606 -0.7501
vn -0.4562 0.3128 -0.8331
vn -0.4562 0.3128 -0.8331
vn -0.4562 0.3128 -0.8331
vn -0.5671 -0.2294 -0.7910
vn -0.5077 -0.3594 -0.7830
vn 0.3262 0.5675 -0.7560
vn -0.5158 -0.8533 0.0762
vn -0.6911 -0.2490 -0.6786
vn -0.6751 0.7377 -0.0042
vn -0.6108 0.7914 -0.0240
vn -0.5804 0.8137 -0.0329
vn 0.3276 0.5176 -0.7904
vn 0.2667 0.5230 -0.8095
vn 0.2977 0.5168 -0.8027
vn 0.6377 0.2938 0.7120
vn 0.5555 0.4797 0.6792
vn 0.6978 0.3662 0.6157
vn 0.5992 0.3805 0.7045
vn 0.6588 0.3947 0.6404
vn 0.3240 0.4909 -0.8088
vn -0.2581 -0.5385 0.8021
vn 0.0597 -0.2706 0.9608
vn -0.1243 -0.4722 0.8727
vn 0.3692 -0.9230 -0.1081
vn -0.9413 -0.1666 0.2936
vn -0.9413 -0.1666 0.2936
vn -0.9413 -0.1666 0.2936
vn -0.6843 -0.2461 -0.6864
vn -0.5258 -0.4586 -0.7164
vn 0.2535 -0.9552 0.1526
vn 0.0208 0.8798 -0.4749
vn 0.0444 0.8759 -0.4805
vn 0.5623 0.4536 0.6915
vn -0.7061 0.7081 0.0059
vn 0.4276 0.5630 -0.7072
vn -0.3151 -0.5650 0.7626
vn 0.3330 0.4974 -0.8011
vn -0.3000 -0.6570 0.6917
vn 0.2611 -0.9539 0.1480
vn -0.5389 -0.5321 -0.6530
vn 0.7164 0.3750 0.5883
vn 0.4759 0.6160 -0.6277
vn 0.8827 0.4559 0.1135
vn 0.9080 0.4035 0.1129
vn 0.9746 0.1965 0.1075
vn 0.5914 0.3684 0.7174
vn 0.8312 0.5442 0.1136
vn -0.4585 -0.4286 -0.7785
vn 0.7155 0.3039 0.6290
vn 0.7155 0.3039 0.6290
vn -0.5001 -0.4252 -0.7544
vn 0.2204 0.3823 -0.8974
vn -0.3200 -0.1456 -0.9362
vn 0.2301 -0.9731 0.0127
vn 0.2489 -0.9685 -0.0032
vn 0.6772 0.2921 0.6753
vn -0.2881 -0.0944 -0.9529
vn -0.3638 -0.6503 0.6669
vn -0.0119 -0.9073 0.4204
vn 0.2319 -0.9662 0.1124
vn 0.6677 0.3882 0.6352
vn 0.8645 -0.2530 0.4343
vn 0.8713 -0.4332 0.2308
vn 0.8972 -0.1814 0.4027
vn 0.6299 -0.6544 -0.4183
vn 0.6299 -0.6544 -0.4183
vn 0.6299 -0.6544 -0.4183
vn 0.6789 0.3927 0.6203
vn -0.5336 -0.4520 -0.7148
vn -0.6521 -0.7459 -0.1360
vn -0.6519 -0.7578 -0.0279
vn -0.6449 -0.7552 -0.1172
vn 0.6686 0.4138 0.6178
vn 0.5657 -0.8159 0.1195
vn 0.5028 -0.8613 0.0732
vn 0.5037 -0.8585 0.0968
vn 0.7440 0.5346 0.4007
vn 0.0134 -0.3145 0.9492
vn 0.7096 0.3868 0.5890
vn -0.8445 -0.1597 -0.5112
vn -0.8445 -0.1597 -0.5112
vn -0.8445 -0.1597 -0.5112
vn 0.3691 0.5299 -0.7635
vn -0.3129 -0.6759 0.6673
vn 0.7156 0.4207 0.5576
vn -0.3613 -0.5706 0.7375
vn -0.5636 -0.4462 -0.6952
vn 0.7669 -0.6127 0.1909
vn -0.6779 -0.2226 -0.7007
vn -0.6017 -0.4062 -0.6876
vn -0.6962 -0.6474 -0.3101
vn -0.6511 -0.4567 -0.6062
vn -0.0389 0.9099 -0.4129
vn -0.5998 -0.3659 -0.7116
vn 0.6540 0.3968 0.6440
vn 0.6559 -0.7384 -0.1567
vn 0.5467 0.6311 -0.5503
vn 0.4309 0.4873 -0.7595
vn -0.6500 0.0253 -0.7595
vn 0.5964 -0.7235 -0.3477
vn -0.7092 0.1438 0.6901
vn -0.7092 0.1438 0.6901
vn -0.7092 0.1438 0.6901
vn 0.7498 0.3348 0.5707
vn -0.0922 -0.7052 0.7030
vn -0.0269 -0.6892 0.7240
vn -0.0884 -0.6990 0.7096
vn -0.6393 -0.7689 0.0007
vn 0.0908 -0.2349 0.9678
vn 0.5421 0.5193 -0.6606
vn 0.3546 0.4819 -0.8013
vn 0.5921 -0.7449 -0.3074
vn 0.4571 -0.8860 0.0777
vn 0.4624 0.7114 -0.5292
vn 0.4624 0.7114 -0.5292
vn 0.4624 0.7114 -0.5292
vn -0.1864 -0.6739 0.7149
vn -0.6712 -0.7371 -0.0784
vn -0.0466 0.8988 -0.4360
vn -0.1152 0.9413 -0.3173
vn 0.4223 -0.9063 0.0179
vn 0.4219 -0.8980 0.1249
vn 0.4162 -0.9091 -0.0198
vn -0.4590 -0.6356 0.6208
vn 0.7019 0.3435 0.6239
vn -0.6874 -0.4967 -0.5299
vn -0.6653 -0.7401 -0.0982
vn 0.2310 0.4549 -0.8601
vn 0.7144 -0.4473 -0.5382
vn 0.4481 0.3464 -0.8241
vn 0.6652 -0.0504 -0.7450
vn 0.2533 -0.9445 0.2093
vn 0.6325 0.1810 0.7531
vn -0.2185 -0.6096 0.7620
vn 0.4645 0.3338 -0.8203
vn -0.5556 -0.8063 -0.2031
vn -0.5556 -0.8063 -0.2031
vn -0.5556 -0.8063 -0.2031
vn -0.1710 -0.4714 0.8652
vn 0.7158 0.3898 0.5793
vn -0.6575 -0.2109 -0.7233
vn 0.4392 -0.8936 -0.0928
vn -0.6922 0.2929 0.6596
vn -0.6922 0.2929 0.6596
vn -0.6922 0.2929 0.6596
vn 0.5402 -0.8412 -0.0236
vn 0.5932 -0.8035 -0.0512
vn 0.2001 -0.9449 -0.2590
vn -0.3430 -0.5526 0.7596
vn -0.3056 -0.5085 0.8051
vn -0.3187 -0.5495 0.7723
vn 0.5772 -0.8126 0.0807
vn 0.4242 0.5005 -0.7547
vn 0.4500 0.4276 -0.7840
vn 0.4274 0.4866 -0.7619
vn -0.5626 -0.6565 -0.5025
vn 0.6802 -0.6800 -0.2736
vn -0.2561 -0.6892 0.6778
vn 0.4556 -0.8841 -0.1043
vn 0.5636 -0.5351 -0.6294
vn -0.9642 -0.0594 -0.2586
vn -0.9642 -0.0594 -0.2586
vn -0.9642 -0.0594 -0.2586
vn 0.3540 0.5504 -0.7562
vn 0.0539 -0.9382 -0.3420
vn 0.4725 -0.8796 0.0550
vn 0.7196 0.3936 0.5720
vn -0.2186 -0.6395 0.7370
vn -0.6078 -0.3579 -0.7089
vn -0.6158 -0.3827 -0.6888
vn 0.0535 0.3689 -0.9279
vn 0.7271 0.4597 0.5099
vn -0.9668 -0.1549 0.2034
vn -0.9668 -0.1549 0.2034
vn -0.9668 -0.1549 0.2034
vn 0.5552 -0.8230 -0.1200
vn 0.6310 -0.7408 -0.2301
vn 0.6340 -0.6347 -0.4418
vn 0.7013 0.3541 0.6187
vn -0.3594 -0.5804 0.7307
vn -0.6147 -0.3369 -0.7132
vn -0.6147 -0.3369 -0.7132
vn -0.6147 -0.3369 -0.7132
vn -0.5650 -0.6036 -0.5626
vn 0.4254 0.3778 -0.8224
vn 0.3102 -0.9445 0.1080
vn 0.8674 0.4820 -0.1234
vn 0.8674 0.4820 -0.1234
vn 0.8674 0.4820 -0.1234
vn 0.7421 0.5666 0.3582
vn 0.7416 0.4607 0.4876
vn 0.6782 -0.6801 -0.2783
vn 0.4674 0.3525 -0.8107
vn 0.5348 0.4512 -0.7144
vn 0.6279 -0.7610 -0.1632
vn -0.6259 -0.4033 -0.6675
vn -0.0971 -0.7826 -0.6149
vn -0.0971 -0.7826 -0.6149
vn -0.0971 -0.7826 -0.6149
vn 0.4217 0.2033 -0.8837
vn 0.4005 0.3895 -0.8294
vn 0.5628 -0.8144 -0.1418
vn 0.7346 0.4075 0.5425
vn 0.6280 -0.7751 0.0694
vn -0.1936 -0.6695 0.7171
vn -0.6513 -0.3629 -0.6665
vn -0.6457 -0.3762 -0.6645
vn -0.6496 -0.3668 -0.6659
vn 0.6063 -0.1598 -0.7790
vn 0.6001 -0.2155 -0.7703
vn 0.5564 -0.5685 -0.6059
vn -0.0239 -0.6350 0.7721
vn 0.4206 0.3703 -0.8282
vn 0.1714 -0.1188 0.9780
vn 0.1714 -0.1188 0.9780
vn 0.1714 -0.1188 0.9780
vn 0.2816 0.3531 -0.8922
vn 0.6959 -0.6556 -0.2931
vn -0.3057 -0.5668 0.7651
vn 0.5470 -0.4499 -0.7060
vn 0.6219 -0.7732 0.1241
vn 0.5357 -0.3487 -0.7690
vn -0.6571 -0.3482 -0.6685
vn 0.6533 -0.7024 -0.2826
vn 0.6086 -0.7478 -0.2651
vn 0.3240 -0.9102 0.2581
vn 0.3240 -0.9102 0.2581
vn 0.3240 -0.9102 0.2581
vn 0.0680 -0.7673 -0.6377
vn 0.0768 -0.8478 -0.5248
vn 0.0475 -0.8570 -0.5131
vn -0.2137 -0.6782 0.7031
vn -0.2137 -0.6782 0.7031
vn 0.0670 -0.7671 -0.6381
vn -0.2194 -0.9038 -0.3676
vn -0.2623 -0.8958 -0.3588
vn 0.7155 0.3039 0.6290
vn -0.2137 -0.6782 0.7031
vn 0.0000 1.0000 0.0000
vn 0.0000 1.0000 0.0000
vn 0.0000 1.0000 0.0000
vn 0.0000 1.0000 0.0000
vn 0.0000 1.0000 0.0000
vn 0.0000 1.0000 0.0000
vn 0.0000 1.0000 0.0000
vn 0.0000 1.0000 0.0000
vn 0.0000 1.0000 0.0000
vn 0.0000 1.0000 0.0000
vn 0.0000 1.0000 0.0000
vn 0.0000 1.0000 0.0000
vn 0.0000 1.0000 0.0000
vn 0.0000 1.0000 0.0000
vn 0.0000 1.0000 0.0000
vn 0.0000 1.0000 0.0000
vn 0.0000 1.0000 0.0000
vn 0.0000 1.0000 0.0000
vn 0.0000 1.0000 0.0000
vn 0.0000 1.0000 0.0000
vn 0.0000 1.0000 0.0000
f 529/529/529 530/530/530 531/531/531
f 532/532/532 533/533/533 534/534/534
f 535/535/535 536/536/536 537/537/537
f 538/538/538 532/532/532 534/534/534
f 539/539/539 540/540/540 541/541/541
f 538/538/538 542/542/542 543/543/543
f 544/544/544 539/539/539 541/541/541
f 545/545/545 546/546/546 547/547/547
f 548/548/548 545/545/545 547/547/547
f 539/539/539 544/544/544 549/549/549
f 550/550/550 551/551/551 552/552/552
f 550/550/550 553/553/553 551/551/551
f 554/554/554 555/555/555 556/556/556
f 532/532/532 543/543/543 557/557/557
f 558/558/558 559/559/559 560/560/560
f 532/532/532 538/538/538 543/543/543
f 561/561/561 562/562/562 563/563/563
f 563/563/563 564/564/564 561/561/561
f 535/535/535 565/565/565 536/536/536
f 543/543/543 542/542/542 566/566/566
f 565/565/565 567/567/567 536/536/536
f 568/568/568 569/569/569 570/570/570
f 571/571/571 536/536/536 567/567/567
f 572/572/572 573/573/573 574/574/574
f 575/575/575 561/561/561 564/564/564
f 576/576/576 577/577/577 578/578/578
f 575/575/575 579/579/579 561/561/561
f 580/580/580 568/568/568 570/570/570
f 581/581/581 582/582/582 583/583/583
f 584/584/584 585/585/585 586/586/586
f 576/576/576 587/587/587 577/577/577
f 588/588/588 589/589/589 590/590/590
f 591/591/591 580/580/580 592/592/592
f 532/532/532 557/557/557 593/593/593
f 591/591/591 568/568/568 580/580/580
f 545/545/545 548/548/548 594/594/594
f 595/595/595 596/596/596 597/597/597
f 598/598/598 599/599/599 600/600/600
f 593/593/593 557/557/557 601/601/601
f 602/602/602 603/603/603 604/604/604
f 605/605/605 584/584/584 586/586/586
f 592/592/592 606/606/606 591/591/591
f 604/604/604 603/603/603 607/607/607
f 608/608/608 609/609/609 610/610/610
f 611/611/611 612/612/612 613/613/613
f 588/588/588 590/590/590 614/614/614
f 615/615/615 616/616/616 617/617/617
f 581/581/581 583/583/583 618/618/618
f 619/619/619 620/620/620 621/621/621
f 622/622/622 623/623/623 624/624/624
f 618/618/618 583/583/583 625/625/625
f 567/567/567 626/626/626 571/571/571
f 601/601/601 627/627/627 593/593/593
f 587/587/587 576/576/576 628/628/628
f 615/615/615 629/629/629 616/616/616
f 628/628/628 630/630/630 587/587/587
f 631/631/631 632/632/632 633/633/633
f 593/593/593 627/627/627 634/634/634
f 614/614/614 590/590/590 635/635/635
f 596/596/596 595/595/595 636/636/636
f 637/637/637 638/638/638 639/639/639
f 637/637/637 639/639/639 640/640/640
f 620/620/620 641/641/641 621/621/621
f 642/642/642 629/629/629 615/615/615
f 643/643/643 644/644/644 645/645/645
f 594/594/594 646/646/646 545/545/545
f 594/594/594 647/647/647 646/646/646
f 642/642/642 615/615/615 648/648/648
f 649/649/649 650/650/650 651/651/651
f 652/652/652 633/633/633 632/632/632
f 649/649/649 653/653/653 650/650/650
f 625/625/625 654/654/654 655/655/655
f 656/656/656 657/657/657 658/658/658
f 659/659/659 660/660/660 661/661/661
f 662/662/662 641/641/641 620/620/620
f 636/636/636 595/595/595 663/663/663
f 664/664/664 665/665/665 666/666/666
f 584/584/584 667/667/667 668/668/668
f 581/581/581 618/618/618 669/669/669
f 667/667/667 584/584/584 605/605/605
f 624/624/624 670/670/670 622/622/622
f 671/671/671 672/672/672 673/673/673
f 674/674/674 675/675/675 676/676/676
f 677/677/677 650/650/650 653/653/653
f 652/652/652 678/678/678 633/633/633
f 679/679/679 668/668/668 667/667/667
f 672/672/672 680/680/680 673/673/673
f 174/174/174 175/175/175 176/176/176
f 567/567/567 681/681/681 626/626/626
f 682/682/682 683/683/683 684/684/684
f 631/631/631 633/633/633 685/685/685
f 614/614/614 635/635/635 686/686/686
f 687/687/687 659/659/659 661/661/661
f 663/663/663 688/688/688 636/636/636
f 686/686/686 635/635/635 689/689/689
f 690/690/690 691/691/691 639/639/639
f 677/677/677 692/692/692 650/650/650
f 587/587/587 693/693/693 694/694/694
f 1/1/1 2/2/2 3/3/3
f 4/4/4 1/1/1 3/3/3
f 676/676/676 675/675/675 695/695/695
f 591/591/591 606/606/606 696/696/696
f 697/697/697 672/672/672 698/698/698
f 640/640/640 639/639/639 691/691/691
f 685/685/685 633/633/633 699/699/699
f 700/700/700 701/701/701 702/702/702
f 703/703/703 659/659/659 687/687/687
f 177/177/177 178/178/178 179/179/179
f 691/691/691 690/690/690 704/704/704
f 680/680/680 705/705/705 673/673/673
f 605/605/605 706/706/706 667/667/667
f 641/641/641 662/662/662 707/707/707
f 665/665/665 708/708/708 666/666/666
f 709/709/709 620/620/620 710/710/710
f 618/618/618 625/625/625 655/655/655
f 687/687/687 711/711/711 703/703/703
f 709/709/709 662/662/662 620/620/620
f 591/591/591 696/696/696 712/712/712
f 686/686/686 689/689/689 713/713/713
f 651/651/651 650/650/650 692/692/692
f 179/179/179 178/178/178 180/180/180
f 181/181/181 182/182/182 183/183/183
f 714/714/714 700/700/700 715/715/715
f 716/716/716 717/717/717 718/718/718
f 184/184/184 185/185/185 186/186/186
f 684/684/684 683/683/683 719/719/719
f 5/5/5 6/6/6 7/7/7
f 720/720/720 721/721/721 722/722/722
f 587/587/587 630/630/630 723/723/723
f 723/723/723 693/693/693 587/587/587
f 724/724/724 725/725/725 726/726/726
f 727/727/727 688/688/688 663/663/663
f 719/719/719 683/683/683 728/728/728
f 184/184/184 187/187/187 185/185/185
f 672/672/672 697/697/697 680/680/680
f 729/729/729 730/730/730 731/731/731
f 188/188/188 189/189/189 190/190/190
f 732/732/732 733/733/733 734/734/734
f 191/191/191 192/192/192 193/193/193
f 735/735/735 736/736/736 737/737/737
f 190/190/190 194/194/194 188/188/188
f 738/738/738 739/739/739 740/740/740
f 195/195/195 196/196/196 197/197/197
f 198/198/198 199/199/199 200/200/200
f 741/741/741 706/706/706 742/742/742
f 743/743/743 744/744/744 745/745/745
f 746/746/746 747/747/747 748/748/748
f 201/201/201 202/202/202 203/203/203
f 731/731/731 730/730/730 749/749/749
f 717/717/717 716/716/716 750/750/750
f 197/197/197 196/196/196 204/204/204
f 702/702/702 751/751/751 700/700/700
f 8/8/8 9/9/9 10/10/10
f 740/740/740 739/739/739 752/752/752
f 198/198/198 523/523/523 199/199/199
f 11/11/11 12/12/12 13/13/13
f 753/753/753 754/754/754 755/755/755
f 205/205/205 206/206/206 207/207/207
f 667/667/667 706/706/706 741/741/741
f 728/728/728 756/756/756 719/719/719
f 667/667/667 741/741/741 757/757/757
f 524/524/524 208/208/208 209/209/209
f 739/739/739 758/758/758 752/752/752
f 662/662/662 759/759/759 707/707/707
f 725/725/725 760/760/760 726/726/726
f 524/524/524 209/209/209 210/210/210
f 14/14/14 15/15/15 16/16/16
f 761/761/761 762/762/762 763/763/763
f 764/764/764 765/765/765 766/766/766
f 767/767/767 691/691/691 704/704/704
f 747/747/747 746/746/746 768/768/768
f 769/769/769 770/770/770 771/771/771
f 203/203/203 202/202/202 211/211/211
f 764/764/764 766/766/766 772/772/772
f 773/773/773 774/774/774 775/775/775
f 776/776/776 732/732/732 734/734/734
f 212/212/212 213/213/213 214/214/214
f 215/215/215 216/216/216 217/217/217
f 777/777/777 778/778/778 779/779/779
f 218/218/218 200/200/200 199/199/199
f 780/780/780 760/760/760 725/725/725
f 203/203/203 211/211/211 219/219/219
f 741/741/741 781/781/781 757/757/757
f 220/220/220 221/221/221 525/525/525
f 222/222/222 221/221/221 223/223/223
f 722/722/722 721/721/721 782/782/782
f 618/618/618 655/655/655 669/669/669
f 705/705/705 783/783/783 784/784/784
f 17/17/17 18/18/18 19/19/19
f 220/220/220 223/223/223 221/221/221
f 785/785/785 747/747/747 768/768/768
f 20/20/20 21/21/21 22/22/22
f 700/700/700 714/714/714 701/701/701
f 741/741/741 742/742/742 781/781/781
f 761/761/761 786/786/786 762/762/762
f 199/199/199 224/224/224 218/218/218
f 225/225/225 226/226/226 207/207/207
f 758/758/758 787/787/787 752/752/752
f 775/775/775 788/788/788 773/773/773
f 205/205/205 207/207/207 226/226/226
f 764/764/764 772/772/772 789/789/789
f 716/716/716 718/718/718 790/790/790
f 226/226/226 225/225/225 224/224/224
f 173/173/173 23/23/23 24/24/24
f 791/791/791 722/722/722 782/782/782
f 218/218/218 224/224/224 225/225/225
f 663/663/663 792/792/792 727/727/727
f 793/793/793 769/769/769 771/771/771
f 752/752/752 787/787/787 794/794/794
f 795/795/795 796/796/796 797/797/797
f 767/767/767 798/798/798 691/691/691
f 796/796/796 795/795/795 799/799/799
f 800/800/800 757/757/757 781/781/781
f 17/17/17 25/25/25 18/18/18
f 801/801/801 802/802/802 989/989/989
f 792/792/792 803/803/803 727/727/727
f 789/789/789 772/772/772 804/804/804
f 805/805/805 757/757/757 800/800/800
f 680/680/680 783/783/783 705/705/705
f 806/806/806 776/776/776 807/807/807
f 808/808/808 691/691/691 798/798/798
f 26/26/26 27/27/27 28/28/28
f 757/757/757 805/805/805 809/809/809
f 227/227/227 228/228/228 229/229/229
f 716/716/716 790/790/790 810/810/810
f 702/702/702 811/811/811 751/751/751
f 782/782/782 812/812/812 791/791/791
f 230/230/230 231/231/231 232/232/232
f 813/813/813 793/793/793 771/771/771
f 814/814/814 815/815/815 816/816/816
f 817/817/817 818/818/818 819/819/819
f 771/771/771 820/820/820 813/813/813
f 781/781/781 742/742/742 821/821/821
f 233/233/233 231/231/231 230/230/230
f 822/822/822 823/823/823 824/824/824
f 825/825/825 793/793/793 813/813/813
f 826/826/826 827/827/827 828/828/828
f 825/825/825 829/829/829 793/793/793
f 775/775/775 774/774/774 830/830/830
f 234/234/234 235/235/235 236/236/236
f 820/820/820 831/831/831 813/813/813
f 832/832/832 833/833/833 834/834/834
f 835/835/835 764/764/764 789/789/789
f 237/237/237 238/238/238 239/239/239
f 240/240/240 241/241/241 242/242/242
f 243/243/243 227/227/227 229/229/229
f 244/244/244 214/214/214 213/213/213
f 244/244/244 213/213/213 245/245/245
f 836/836/836 810/810/810 790/790/790
f 820/820/820 837/837/837 831/831/831
f 788/788/788 775/775/775 838/838/838
f 781/781/781 821/821/821 839/839/839
f 815/815/815 814/814/814 840/840/840
f 760/760/760 780/780/780 841/841/841
f 803/803/803 792/792/792 842/842/842
f 792/792/792 843/843/843 844/844/844
f 792/792/792 844/844/844 842/842/842
f 845/845/845 784/784/784 783/783/783
f 803/803/803 842/842/842 846/846/846
f 808/808/808 798/798/798 847/847/847
f 815/815/815 840/840/840 848/848/848
f 849/849/849 835/835/835 850/850/850
f 760/760/760 841/841/841 851/851/851
f 852/852/852 815/815/815 848/848/848
f 853/853/853 854/854/854 855/855/855
f 856/856/856 808/808/808 847/847/847
f 807/807/807 776/776/776 734/734/734
f 25/25/25 29/29/29 18/18/18
f 242/242/242 241/241/241 246/246/246
f 240/240/240 247/247/247 241/241/241
f 857/857/857 858/858/858 859/859/859
f 824/824/824 823/823/823 860/860/860
f 830/830/830 861/861/861 775/775/775
f 248/248/248 249/249/249 250/250/250
f 849/849/849 850/850/850 862/862/862
f 835/835/835 863/863/863 850/850/850
f 248/248/248 250/250/250 251/251/251
f 864/864/864 852/852/852 848/848/848
f 828/828/828 827/827/827 865/865/865
f 866/866/866 867/867/867 868/868/868
f 236/236/236 235/235/235 237/237/237
f 869/869/869 857/857/857 859/859/859
f 823/823/823 870/870/870 860/860/860
f 845/845/845 871/871/871 872/872/872
f 873/873/873 874/874/874 875/875/875
f 810/810/810 836/836/836 876/876/876
f 877/877/877 808/808/808 856/856/856
f 844/844/844 878/878/878 842/842/842
f 252/252/252 243/243/243 229/229/229
f 823/823/823 879/879/879 870/870/870
f 835/835/835 880/880/880 863/863/863
f 881/881/881 882/882/882 883/883/883
f 884/884/884 828/828/828 865/865/865
f 877/877/877 885/885/885 808/808/808
f 234/234/234 253/253/253 235/235/235
f 248/248/248 251/251/251 254/254/254
f 775/775/775 886/886/886 838/838/838
f 882/882/882 887/887/887 883/883/883
f 888/888/888 889/889/889 890/890/890
f 255/255/255 256/256/256 257/257/257
f 835/835/835 789/789/789 880/880/880
f 845/845/845 783/783/783 871/871/871
f 775/775/775 861/861/861 891/891/891
f 242/242/242 246/246/246 258/258/258
f 856/856/856 847/847/847 892/892/892
f 893/893/893 841/841/841 780/780/780
f 259/259/259 260/260/260 261/261/261
f 259/259/259 261/261/261 262/262/262
f 894/894/894 873/873/873 875/875/875
f 895/895/895 896/896/896 897/897/897
f 263/263/263 264/264/264 265/265/265
f 266/266/266 267/267/267 250/250/250
f 268/268/268 269/269/269 270/270/270
f 884/884/884 865/865/865 898/898/898
f 865/865/865 899/899/899 898/898/898
f 271/271/271 272/272/272 273/273/273
f 274/274/274 275/275/275 276/276/276
f 900/900/900 873/873/873 894/894/894
f 239/239/239 238/238/238 277/277/277
f 273/273/273 272/272/272 278/278/278
f 252/252/252 229/229/229 279/279/279
f 901/901/901 902/902/902 903/903/903
f 892/892/892 877/877/877 856/856/856
f 898/898/898 899/899/899 904/904/904
f 905/905/905 906/906/906 907/907/907
f 844/844/844 908/908/908 878/878/878
f 25/25/25 30/30/30 29/29/29
f 852/852/852 864/864/864 909/909/909
f 891/891/891 910/910/910 775/775/775
f 29/29/29 30/30/30 31/31/31
f 900/900/900 894/894/894 911/911/911
f 280/280/280 281/281/281 282/282/282
f 240/240/240 283/283/283 247/247/247
f 909/909/909 912/912/912 852/852/852
f 913/913/913 914/914/914 915/915/915
f 905/905/905 907/907/907 916/916/916
f 900/900/900 911/911/911 917/917/917
f 32/32/32 33/33/33 34/34/34
f 253/253/253 284/284/284 235/235/235
f 898/898/898 904/904/904 918/918/918
f 892/892/892 919/919/919 877/877/877
f 775/775/775 920/920/920 886/886/886
f 878/878/878 908/908/908 842/842/842
f 251/251/251 250/250/250 267/267/267
f 285/285/285 265/265/265 264/264/264
f 921/921/921 846/846/846 922/922/922
f 789/789/789 923/923/923 880/880/880
f 286/286/286 287/287/287 288/288/288
f 842/842/842 922/922/922 846/846/846
f 919/919/919 892/892/892 924/924/924
f 925/925/925 926/926/926 927/927/927
f 898/898/898 928/928/928 929/929/929
f 289/289/289 261/261/261 260/260/260
f 260/260/260 290/290/290 289/289/289
f 912/912/912 909/909/909 930/930/930
f 291/291/291 292/292/292 293/293/293
f 775/775/775 910/910/910 920/920/920
f 898/898/898 918/918/918 928/928/928
f 931/931/931 877/877/877 919/919/919
f 901/901/901 903/903/903 932/932/932
f 294/294/294 248/248/248 254/254/254
f 25/25/25 35/35/35 30/30/30
f 933/933/933 934/934/934 935/935/935
f 842/842/842 908/908/908 936/936/936
f 252/252/252 295/295/295 243/243/243
f 235/235/235 284/284/284 296/296/296
f 248/248/248 294/294/294 297/297/297
f 882/882/882 937/937/937 887/887/887
f 928/928/928 918/918/918 938/938/938
f 298/298/298 299/299/299 300/300/300
f 939/939/939 940/940/940 941/941/941
f 241/241/241 301/301/301 246/246/246
f 924/924/924 942/942/942 943/943/943
f 944/944/944 930/930/930 909/909/909
f 945/945/945 946/946/946 907/907/907
f 929/929/929 928/928/928 947/947/947
f 842/842/842 936/936/936 948/948/948
f 300/300/300 299/299/299 302/302/302
f 285/285/285 303/303/303 304/304/304
f 842/842/842 948/948/948 922/922/922
f 288/288/288 287/287/287 305/305/305
f 949/949/949 950/950/950 951/951/951
f 919/919/919 924/924/924 943/943/943
f 945/945/945 952/952/952 946/946/946
f 907/907/907 906/906/906 953/953/953
f 238/238/238 237/237/237 235/235/235
f 301/301/301 306/306/306 246/246/246
f 947/947/947 928/928/928 954/954/954
f 285/285/285 264/264/264 303/303/303
f 287/287/287 307/307/307 305/305/305
f 298/298/298 300/300/300 308/308/308
f 309/309/309 310/310/310 311/311/311
f 312/312/312 313/313/313 526/526/526
f 307/307/307 287/287/287 314/314/314
f 305/305/305 315/315/315 316/316/316
f 943/943/943 955/955/955 919/919/919
f 235/235/235 317/317/317 238/238/238
f 947/947/947 954/954/954 956/956/956
f 957/957/957 869/869/869 859/859/859
f 297/297/297 294/294/294 318/318/318
f 319/319/319 320/320/320 321/321/321
f 945/945/945 907/907/907 953/953/953
f 305/305/305 307/307/307 315/315/315
f 322/322/322 300/300/300 323/323/323
f 314/314/314 324/324/324 307/307/307
f 325/325/325 289/289/289 290/290/290
f 958/958/958 959/959/959 960/960/960
f 317/317/317 235/235/235 296/296/296
f 300/300/300 302/302/302 326/326/326
f 961/961/961 962/962/962 963/963/963
f 886/886/886 920/920/920 964/964/964
f 937/937/937 882/882/882 965/965/965
f 327/327/327 328/328/328 329/329/329
f 966/966/966 967/967/967 968/968/968
f 285/285/285 304/304/304 330/330/330
f 321/321/321 331/331/331 319/319/319
f 325/325/325 332/332/332 289/289/289
f 906/906/906 969/969/969 953/953/953
f 970/970/970 930/930/930 944/944/944
f 333/333/333 334/334/334 335/335/335
f 317/317/317 296/296/296 336/336/336
f 903/903/903 902/902/902 971/971/971
f 963/963/963 962/962/962 972/972/972
f 36/36/36 37/37/37 38/38/38
f 956/956/956 973/973/973 947/947/947
f 337/337/337 338/338/338 333/333/333
f 331/331/331 321/321/321 339/339/339
f 962/962/962 974/974/974 972/972/972
f 340/340/340 341/341/341 342/342/342
f 343/343/343 344/344/344 345/345/345
f 346/346/346 347/347/347 348/348/348
f 337/337/337 333/333/333 335/335/335
f 343/343/343 349/349/349 344/344/344
f 325/325/325 350/350/350 332/332/332
f 317/317/317 336/336/336 351/351/351
f 352/352/352 353/353/353 354/354/354
f 958/958/958 960/960/960 975/975/975
f 39/39/39 40/40/40 41/41/41
f 348/348/348 347/347/347 355/355/355
f 356/356/356 357/357/357 358/358/358
f 359/359/359 360/360/360 361/361/361
f 362/362/362 358/358/358 357/357/357
f 326/326/326 363/363/363 364/364/364
f 365/365/365 366/366/366 367/367/367
f 362/362/362 368/368/368 358/358/358
f 369/369/369 370/370/370 371/371/371
f 337/337/337 372/372/372 338/338/338
f 373/373/373 374/374/374 375/375/375
f 370/370/370 376/376/376 371/371/371
f 313/313/313 377/377/377 526/526/526
f 970/970/970 944/944/944 976/976/976
f 372/372/372 337/337/337 378/378/378
f 379/379/379 323/323/323 300/300/300
f 380/380/380 526/526/526 381/381/381
f 382/382/382 383/383/383 384/384/384
f 977/977/977 976/976/976 944/944/944
f 978/978/978 979/979/979 980/980/980
f 326/326/326 364/364/364 379/379/379
f 981/981/981 982/982/982 983/983/983
f 984/984/984 990/990/990 985/985/985
f 378/378/378 385/385/385 372/372/372
f 42/42/42 41/41/41 40/40/40
f 981/981/981 983/983/983 986/986/986
f 982/982/982 987/987/987 983/983/983
f 381/381/381 386/386/386 380/380/380
f 379/379/379 300/300/300 326/326/326
f 376/376/376 387/387/387 371/371/371
f 379/379/379 364/364/364 388/388/388
f 37/37/37 43/43/43 38/38/38
f 345/345/345 389/389/389 390/390/390
f 391/391/391 392/392/392 393/393/393
f 394/394/394 395/395/395 396/396/396
f 987/987/987 988/988/988 983/983/983
f 397/397/397 398/398/398 399/399/399
f 381/381/381 526/526/526 377/377/377
f 387/387/387 400/400/400 371/371/371
f 395/395/395 394/394/394 401/401/401
f 43/43/43 37/37/37 44/44/44
f 402/402/402 527/527/527 403/403/403
f 393/393/393 384/384/384 391/391/391
f 404/404/404 405/405/405 406/406/406
f 407/407/407 408/408/408 409/409/409
f 401/401/401 394/394/394 410/410/410
f 396/396/396 410/410/410 394/394/394
f 37/37/37 45/45/45 44/44/44
f 42/42/42 46/46/46 47/47/47
f 411/411/411 386/386/386 381/381/381
f 412/412/412 413/413/413 414/414/414
f 379/379/379 415/415/415 416/416/416
f 401/401/401 410/410/410 417/417/417
f 402/402/402 418/418/418 527/527/527
f 409/409/409 419/419/419 407/407/407
f 417/417/417 410/410/410 420/420/420
f 387/387/387 421/421/421 400/400/400
f 407/407/407 422/422/422 408/408/408
f 423/423/423 424/424/424 425/425/425
f 423/423/423 425/425/425 426/426/426
f 427/427/427 428/428/428 429/429/429
f 41/41/41 42/42/42 47/47/47
f 379/379/379 416/416/416 323/323/323
f 430/430/430 431/431/431 432/432/432
f 433/433/433 414/414/414 413/413/413
f 434/434/434 435/435/435 436/436/436
f 428/428/428 437/437/437 438/438/438
f 386/386/386 411/411/411 439/439/439
f 428/428/428 438/438/438 429/429/429
f 435/435/435 434/434/434 440/440/440
f 344/344/344 389/389/389 345/345/345
f 441/441/441 410/410/410 396/396/396
f 407/407/407 442/442/442 422/422/422
f 382/382/382 384/384/384 393/393/393
f 420/420/420 410/410/410 443/443/443
f 47/47/47 46/46/46 48/48/48
f 444/444/444 445/445/445 446/446/446
f 45/45/45 49/49/49 44/44/44
f 409/409/409 399/399/399 419/419/419
f 444/444/444 447/447/447 445/445/445
f 448/448/448 441/441/441 396/396/396
f 449/449/449 450/450/450 451/451/451
f 452/452/452 453/453/453 454/454/454
f 455/455/455 456/456/456 457/457/457
f 458/458/458 459/459/459 460/460/460
f 398/398/398 461/461/461 399/399/399
f 462/462/462 463/463/463 464/464/464
f 465/465/465 414/414/414 433/433/433
f 446/446/446 445/445/445 466/466/466
f 49/49/49 45/45/45 50/50/50
f 467/467/467 468/468/468 469/469/469
f 465/465/465 470/470/470 414/414/414
f 471/471/471 472/472/472 473/473/473
f 419/419/419 399/399/399 461/461/461
f 474/474/474 475/475/475 476/476/476
f 477/477/477 478/478/478 479/479/479
f 528/528/528 527/527/527 480/480/480
f 460/460/460 459/459/459 481/481/481
f 466/466/466 482/482/482 483/483/483
f 466/466/466 445/445/445 482/482/482
f 452/452/452 484/484/484 453/453/453
f 453/453/453 484/484/484 485/485/485
f 410/410/410 486/486/486 443/443/443
f 487/487/487 488/488/488 468/468/468
f 527/527/527 418/418/418 489/489/489
f 527/527/527 489/489/489 480/480/480
f 51/51/51 47/47/47 48/48/48
f 469/469/469 468/468/468 490/490/490
f 471/471/471 473/473/473 491/491/491
f 52/52/52 53/53/53 54/54/54
f 55/55/55 45/45/45 37/37/37
f 492/492/492 456/456/456 455/455/455
f 493/493/493 494/494/494 495/495/495
f 56/56/56 41/41/41 47/47/47
f 469/469/469 490/490/490 496/496/496
f 458/458/458 460/460/460 472/472/472
f 497/497/497 498/498/498 499/499/499
f 497/497/497 500/500/500 498/498/498
f 468/468/468 488/488/488 490/490/490
f 501/501/501 502/502/502 503/503/503
f 461/461/461 504/504/504 419/419/419
f 51/51/51 57/57/57 47/47/47
f 58/58/58 59/59/59 60/60/60
f 414/414/414 470/470/470 505/505/505
f 496/496/496 490/490/490 506/506/506
f 507/507/507 508/508/508 498/498/498
f 498/498/498 508/508/508 499/499/499
f 509/509/509 506/506/506 490/490/490
f 61/61/61 62/62/62 63/63/63
f 508/508/508 507/507/507 510/510/510
f 473/473/473 472/472/472 460/460/460
f 58/58/58 60/60/60 64/64/64
f 506/506/506 509/509/509 511/511/511
f 65/65/65 52/52/52 54/54/54
f 47/47/47 57/57/57 66/66/66
f 65/65/65 54/54/54 67/67/67
f 510/510/510 512/512/512 513/513/513
f 68/68/68 57/57/57 51/51/51
f 69/69/69 50/50/50 45/45/45
f 511/511/511 509/509/509 514/514/514
f 61/61/61 70/70/70 62/62/62
f 492/492/492 515/515/515 456/456/456
f 510/510/510 513/513/513 508/508/508
f 71/71/71 72/72/72 73/73/73
f 69/69/69 74/74/74 50/50/50
f 60/60/60 75/75/75 64/64/64
f 492/492/492 516/516/516 515/515/515
f 76/76/76 72/72/72 71/71/71
f 77/77/77 78/78/78 79/79/79
f 80/80/80 81/81/81 82/82/82
f 70/70/70 61/61/61 83/83/83
f 67/67/67 84/84/84 65/65/65
f 514/514/514 509/509/509 517/517/517
f 518/518/518 513/513/513 512/512/512
f 514/514/514 517/517/517 519/519/519
f 80/80/80 85/85/85 81/81/81
f 72/72/72 76/76/76 86/86/86
f 83/83/83 87/87/87 70/70/70
f 67/67/67 88/88/88 84/84/84
f 89/89/89 90/90/90 91/91/91
f 92/92/92 93/93/93 94/94/94
f 95/95/95 57/57/57 68/68/68
f 74/74/74 69/69/69 96/96/96
f 97/97/97 86/86/86 98/98/98
f 520/520/520 521/521/521 522/522/522
f 99/99/99 84/84/84 88/88/88
f 97/97/97 72/72/72 86/86/86
f 91/91/91 100/100/100 89/89/89
f 101/101/101 102/102/102 103/103/103
f 104/104/104 66/66/66 57/57/57
f 85/85/85 80/80/80 105/105/105
f 106/106/106 107/107/107 108/108/108
f 109/109/109 110/110/110 111/111/111
f 112/112/112 94/94/94 93/93/93
f 100/100/100 91/91/91 113/113/113
f 110/110/110 114/114/114 111/111/111
f 112/112/112 93/93/93 115/115/115
f 105/105/105 80/80/80 116/116/116
f 117/117/117 111/111/111 114/114/114
f 79/79/79 78/78/78 118/118/118
f 113/113/113 91/91/91 119/119/119
f 108/108/108 107/107/107 120/120/120
f 115/115/115 121/121/121 122/122/122
f 123/123/123 105/105/105 116/116/116
f 124/124/124 111/111/111 125/125/125
f 126/126/126 111/111/111 117/117/117
f 90/90/90 127/127/127 91/91/91
f 115/115/115 122/122/122 112/112/112
f 124/124/124 125/125/125 128/128/128
f 129/129/129 104/104/104 57/57/57
f 130/130/130 79/79/79 118/118/118
f 127/127/127 119/119/119 91/91/91
f 126/126/126 131/131/131 111/111/111
f 132/132/132 133/133/133 116/116/116
f 134/134/134 135/135/135 136/136/136
f 111/111/111 131/131/131 125/125/125
f 137/137/137 134/134/134 136/136/136
f 116/116/116 138/138/138 123/123/123
f 137/137/137 140/140/140 141/141/141
f 137/137/137 142/142/142 140/140/140
f 143/143/143 144/144/144 145/145/145
f 139/139/139 129/129/129 57/57/57
f 136/136/136 142/142/142 137/137/137
f 144/144/144 146/146/146 145/145/145
f 125/125/125 147/147/147 128/128/128
f 148/148/148 149/149/149 150/150/150
f 151/151/151 152/152/152 153/153/153
f 116/116/116 133/133/133 154/154/154
f 128/128/128 147/147/147 155/155/155
f 149/149/149 156/156/156 150/150/150
f 153/153/153 136/136/136 151/151/151
f 153/153/153 142/142/142 136/136/136
f 140/140/140 142/142/142 157/157/157
f 116/116/116 158/158/158 138/138/138
f 116/116/116 154/154/154 158/158/158
f 159/159/159 160/160/160 157/157/157
f 152/152/152 161/161/161 153/153/153
f 142/142/142 159/159/159 157/157/157
f 159/159/159 142/142/142 153/153/153
f 164/164/164 165/165/165 166/166/166
f 167/167/167 168/168/168 153/153/153
f 163/163/163 153/153/153 168/168/168
f 169/169/169 170/170/170 171/171/171
f 138/138/138 172/172/172 162/162/162
f 991/991/991 992/992/992 993/993/993
f 991/991/991 993/993/993 992/992/992
f 991/991/991 993/993/993 994/994/994
f 991/991/991 994/994/994 993/993/993
f 991/991/991 994/994/994 992/992/992
f 991/991/991 992/992/992 994/994/994
f 995/995/995 996/996/996 997/997/997
f 995/995/995 997/997/997 996/996/996
f 995/995/995 997/997/997 998/998/998
f 995/995/995 998/998/998 997/997/997
f 995/995/995 998/998/998 999/999/999
f 995/995/995 999/999/999 998/998/998
f 995/995/995 999/999/999 1000/1000/1000
f 995/995/995 1000/1000/1000 999/999/999
f 995/995/995 1000/1000/1000 1001/1001/1001
f 995/995/995 1001/1001/1001 1000/1000/1000
f 995/995/995 1001/1001/1001 1002/1002/1002
f 995/995/995 1002/1002/1002 1001/1001/1001
f 995/995/995 1002/1002/1002 1003/1003/1003
f 995/995/995 1003/1003/1003 1002/1002/1002
f 995/995/995 1003/1003/1003 1004/1004/1004
f 995/995/995 1004/1004/1004 1003/1003/1003
f 995/995/995 1004/1004/1004 1005/1005/1005
f 995/995/995 1005/1005/1005 1004/1004/1004
f 995/995/995 1005/1005/1005 1006/1006/1006
f 995/995/995 1006/1006/1006 1005/1005/1005
f 995/995/995 1006/1006/1006 1007/1007/1007
f 995/995/995 1007/1007/1007 1006/1006/1006
f 995/995/995 1007/1007/1007 1008/1008/1008
f 995/995/995 1008/1008/1008 1007/1007/1007
f 995/995/995 1008/1008/1008 1009/1009/1009
f 995/995/995 1009/1009/1009 1008/1008/1008
f 995/995/995 1009/1009/1009 1010/1010/1010
f 995/995/995 1010/1010/1010 1009/1009/1009
f 995/995/995 1010/1010/1010 1011/1011/1011
f 995/995/995 1011/1011/1011 1010/1010/1010
f 995/995/995 1011/1011/1011 996/996/996
f 995/995/995 996/996/996 1011/1011/1011
