o leg_left
v -0.03317 0.95342 0.02335
v -0.06593 0.87429 0.06372
v -0.03989 0.88352 0.02322
v -0.03989 0.88352 0.02322
v -0.04758 0.88104 0.02425
v -0.04417 0.88176 0.01706
v -0.03317 0.95342 0.02335
v -0.03989 0.88352 0.02322
v -0.04417 0.88176 0.01706
v -0.06593 0.87429 0.06372
v -0.06896 0.87345 -0.01647
v -0.04417 0.88176 0.01706
v -0.04927 0.88086 0.01809
v -0.04758 0.88104 0.02425
v -0.05816 0.87652 -0.00048
v -0.05816 0.87652 -0.00048
v -0.06593 0.87429 0.06372
v -0.05830 0.87599 0.04688
v -0.04758 0.88104 0.02425
v -0.07305 0.76291 0.05633
v -0.05790 0.76613 0.02425
v -0.07518 0.76085 -0.00446
v -0.04758 0.88104 0.02425
v -0.05790 0.76613 0.02425
v -0.06896 0.87345 -0.01647
v -0.05939 1.04250 -0.05454
v -0.06533 0.94609 -0.04863
v -0.06081 0.98746 0.10175
v -0.06810 0.87182 -0.00991
v -0.06896 0.85391 0.09151
v -0.06896 0.85391 0.09151
v -0.06720 0.86187 0.09090
v -0.06593 0.87429 0.06372
v -0.06810 0.87182 -0.00991
v -0.05790 0.76613 0.02425
v -0.06669 0.72018 0.03764
v -0.08040 0.64064 -0.00093
v -0.06896 0.87345 -0.01647
v -0.06720 0.86187 0.09090
v -0.07424 0.76718 0.08427
v -0.07388 0.75582 0.05189
v -0.05790 0.76613 0.02425
v -0.07482 0.74174 0.04409
v -0.06669 0.72018 0.03764
v -0.07213 0.82317 -0.04197
v -0.06885 0.68023 0.03661
v -0.07835 0.71186 0.04419
v -0.06720 0.86187 0.09090
v -0.06896 0.85391 0.09151
v -0.07002 0.82419 0.08845
v -0.08040 0.64064 -0.00093
v -0.06752 0.76323 0.02315
v -0.05790 0.76613 0.02425
v -0.07002 0.82419 0.08845
v -0.07112 0.79603 0.08511
v -0.12004 1.06344 0.10702
v -0.06896 0.85391 0.09151
v -0.07228 0.75902 0.04314
v -0.05790 0.76613 0.02425
v -0.06752 0.76323 0.02315
v -0.07518 0.76085 -0.00446
v -0.05790 0.76613 0.02425
v -0.07388 0.75582 0.05189
v -0.07228 0.75902 0.04314
v -0.07548 0.74307 -0.00018
v -0.06752 0.76323 0.02315
v -0.08040 0.64064 -0.00093
v -0.07002 0.82419 0.08845
v -0.07424 0.76718 0.08427
v -0.07112 0.79603 0.08511
v -0.07518 0.74235 0.05340
v -0.07525 0.73941 0.08114
v -0.07734 0.74041 -0.03780
v -0.07518 0.74235 0.05340
v -0.07525 0.73941 0.08114
v -0.07816 0.73774 0.06902
v -0.07712 0.73874 0.04428
v -0.07712 0.73874 0.04428
v -0.07482 0.74174 0.04409
v -0.07548 0.74307 -0.00018
v -0.07813 0.73922 -0.03696
v -0.07734 0.74041 -0.03780
v -0.08022 0.73907 -0.02194
v -0.07813 0.73922 -0.03696
v -0.08022 0.73907 -0.02194
v -0.08268 0.73930 -0.02446
v -0.07835 0.71186 0.04419
v -0.07926 0.71545 0.06482
v -0.07813 0.73922 -0.03696
v -0.13319 0.73942 -0.03774
v -0.07734 0.74041 -0.03780
v -0.08130 0.67031 0.05558
v -0.08488 0.64016 -0.01893
v -0.08022 0.73907 -0.02194
v -0.07926 0.71545 0.06482
v -0.13476 0.73823 0.06993
v -0.08130 0.67031 0.05558
v -0.07816 0.73774 0.06902
v -0.13319 0.73942 -0.03774
v -0.12498 1.06457 -0.05632
v -0.06533 0.94609 -0.04863
v -0.08022 0.73907 -0.02194
v -0.08488 0.64016 -0.01893
v -0.08268 0.73930 -0.02446
v -0.07816 0.73774 0.06902
v -0.07525 0.73941 0.08114
v -0.13476 0.73823 0.06993
v -0.12453 0.83676 0.08949
v -0.07002 0.82419 0.08845
v -0.13204 0.73896 -0.02501
v -0.12496 0.73827 0.08106
v -0.07213 0.82317 -0.04197
v -0.07734 0.74041 -0.03780
v -0.07424 0.76718 0.08427
v -0.08268 0.73930 -0.02446
v -0.08488 0.64016 -0.01893
v -0.13204 0.73896 -0.02501
v -0.14374 0.63528 0.04845
v -0.08333 0.63851 0.04950
v -0.07525 0.73941 0.08114
v -0.12496 0.73827 0.08106
v -0.13680 0.63872 -0.01848
v -0.12983 0.73907 0.07938
v -0.13319 0.73942 -0.03774
v -0.15571 1.06721 0.07454
v -0.12983 0.73907 0.07938
v -0.13319 0.73942 -0.03774
v -0.15716 1.06953 -0.02194
v -0.16246 0.74299 0.05452
v -0.14799 0.73938 0.05851
v -0.15313 0.63145 0.04423
v -0.15682 0.74109 0.05816
v -0.15939 0.64769 0.00035
v -0.13204 0.73896 -0.02501
v -0.13680 0.63872 -0.01848
v -0.14799 0.73938 0.05851
v -0.15720 0.74231 0.02396
v -0.14578 1.06745 0.02732
v -0.15716 1.06953 -0.02194
v -0.14417 0.74111 -0.02882
v -0.15682 0.74109 0.05816
v -0.15313 0.63145 0.04423
v -0.14799 0.73938 0.05851
v -0.15870 0.64645 0.00680
v -0.15347 0.74094 0.01706
v -0.14799 0.73938 0.05851
v -0.15317 0.74135 0.02561
v -0.15347 0.74094 0.01706
v -0.16565 0.74319 -0.00931
v -0.14417 0.74111 -0.02882
v -0.15577 0.74141 -0.00472
v -0.16246 0.74299 0.05452
v -0.15842 0.74122 0.00128
v -0.16045 0.64787 0.00397
v -0.15577 0.74141 -0.00472
v -0.15720 0.74231 0.02396
v -0.15842 0.74122 0.00128
v -0.15842 0.74122 0.00128
v -0.16045 0.64787 0.00397
v -0.15939 0.64769 0.00035
v -0.15770 0.64515 0.00171
v -0.16045 0.64787 0.00397
v -0.15870 0.64645 0.00680
v -0.16095 0.74209 0.00684
v -0.16246 0.74299 0.05452
v -0.16095 0.74209 0.00684
v -0.16095 0.74209 0.00684
v -0.16565 0.74319 -0.00931
v -0.16095 0.74209 0.00684
v -0.15720 0.74231 0.02396
v -0.16565 0.74319 -0.00931
v -0.16565 0.74319 -0.00931
v -0.05790 0.76613 0.02425
v -0.07482 0.74174 0.04409
v -0.07548 0.74307 -0.00018
v -0.06885 0.68023 0.03661
v -0.08040 0.64064 -0.00093
v -0.06669 0.72018 0.03764
v -0.06885 0.68023 0.03661
v -0.07835 0.71186 0.04419
v -0.07209 0.64284 0.03720
v -0.07211 0.49100 0.02974
v -0.06793 0.60692 0.02071
v -0.08550 0.55770 0.02882
v -0.09430 0.54067 -0.02217
v -0.07211 0.49100 0.02974
v -0.07415 0.45392 0.03196
v -0.08093 0.65668 0.04198
v -0.08040 0.64064 -0.00093
v -0.07209 0.64284 0.03720
v -0.08025 0.63945 0.02254
v -0.07209 0.64284 0.03720
v -0.09064 0.59854 -0.02446
v -0.06793 0.60692 0.02071
v -0.09170 0.43646 0.03603
v -0.07415 0.45392 0.03196
v -0.07817 0.45080 0.02425
v -0.08647 0.44674 0.00930
v -0.08254 0.59170 0.02569
v -0.08549 0.60374 0.02504
v -0.08488 0.64016 -0.01893
v -0.07548 0.74307 -0.00018
v -0.08040 0.64064 -0.00093
v -0.08549 0.60374 0.02504
v -0.08025 0.63945 0.02254
v -0.07209 0.64284 0.03720
v -0.08565 0.45239 0.03255
v -0.09170 0.44989 0.02085
v -0.07817 0.45080 0.02425
v -0.08127 0.61068 0.03618
v -0.08347 0.62668 0.04106
v -0.07835 0.71186 0.04419
v -0.08333 0.63851 0.04950
v -0.08093 0.65668 0.04198
v -0.08130 0.67031 0.05558
v -0.08488 0.64016 -0.01893
v -0.09223 0.63822 -0.00440
v -0.07415 0.45392 0.03196
v -0.08565 0.45239 0.03255
v -0.07415 0.45392 0.03196
v -0.09170 0.43646 0.03603
v -0.08772 0.51530 0.03050
v -0.08426 0.60896 0.03857
v -0.08127 0.61068 0.03618
v -0.08580 0.59815 0.02732
v -0.08035 0.59653 0.06472
v -0.08285 0.59918 0.05812
v -0.08514 0.59937 0.06041
v -0.08580 0.59815 0.02732
v -0.08285 0.59918 0.05812
v -0.08035 0.59653 0.06472
v -0.08127 0.61068 0.03618
v -0.08426 0.60896 0.03857
v -0.08580 0.59815 0.02732
v -0.08254 0.59170 0.02569
v -0.08093 0.65668 0.04198
v -0.08333 0.63851 0.04950
v -0.08461 0.63523 0.04827
v -0.08347 0.62668 0.04106
v -0.08093 0.65668 0.04198
v -0.08461 0.63523 0.04827
v -0.09223 0.63822 -0.00440
v -0.08035 0.59653 0.06472
v -0.08782 0.47999 0.07104
v -0.08254 0.59170 0.02569
v -0.08337 0.62300 0.04955
v -0.08285 0.59918 0.05812
v -0.08426 0.60896 0.03857
v -0.08580 0.59815 0.02732
v -0.08514 0.59937 0.06041
v -0.08550 0.55770 0.02882
v -0.08549 0.60374 0.02504
v -0.08580 0.59815 0.02732
v -0.08254 0.59170 0.02569
v -0.08647 0.44674 0.00930
v -0.08772 0.51530 0.03050
v -0.08549 0.60374 0.02504
v -0.06793 0.60692 0.02071
v -0.09826 0.60021 -0.00233
v -0.09505 0.44136 -0.00656
v -0.09205 0.39707 0.07426
v -0.09170 0.43646 0.03603
v -0.09370 0.41917 0.03806
v -0.09777 0.31917 0.04325
v -0.08565 0.45239 0.03255
v -0.09370 0.41917 0.03806
v -0.09170 0.43646 0.03603
v -0.09617 0.63857 -0.00650
v -0.10120 0.24465 0.06854
v -0.09826 0.60021 -0.00233
v -0.10144 0.44426 0.00363
v -0.10328 0.42162 0.00680
v -0.09170 0.44989 0.02085
v -0.08565 0.45239 0.03255
v -0.09505 0.44136 -0.00656
v -0.09064 0.59854 -0.02446
v -0.09985 0.44223 -0.01733
v -0.09647 0.41972 -0.00449
v -0.09505 0.44136 -0.00656
v -0.10328 0.42162 0.00680
v -0.10328 0.42162 0.00680
v -0.09647 0.41972 -0.00449
v -0.09669 0.42160 -0.00111
v -0.10144 0.44426 0.00363
v -0.10398 0.29622 0.04627
v -0.09617 0.63857 -0.00650
v -0.09223 0.63822 -0.00440
v -0.09826 0.60021 -0.00233
v -0.10144 0.44426 0.00363
v -0.09647 0.41972 -0.00449
v -0.10507 0.41495 -0.01526
v -0.09777 0.31917 0.04325
v -0.11526 0.30317 0.01657
v -0.09205 0.39707 0.07426
v -0.15688 0.32933 0.07739
v -0.15834 0.28379 0.07916
v -0.13680 0.63872 -0.01848
v -0.08035 0.59653 0.06472
v -0.14819 0.59742 0.06554
v -0.08782 0.47999 0.07104
v -0.10529 0.59768 -0.00406
v -0.09647 0.41972 -0.00449
v -0.10657 0.41207 -0.01367
v -0.10507 0.41495 -0.01526
v -0.10657 0.41207 -0.01367
v -0.15429 0.43240 0.07297
v -0.10529 0.59768 -0.00406
v -0.10821 0.39930 0.00633
v -0.14550 0.59894 0.05908
v -0.10861 0.41710 0.00334
v -0.09064 0.59854 -0.02446
v -0.09430 0.54067 -0.02217
v -0.15356 0.44548 -0.01836
v -0.10861 0.41710 0.00334
v -0.14819 0.59742 0.06554
v -0.15549 0.41178 -0.01342
v -0.10861 0.41710 0.00334
v -0.10821 0.39930 0.00633
v -0.13343 0.41667 0.00394
v -0.10507 0.41495 -0.01526
v -0.15549 0.41178 -0.01342
v -0.09985 0.44223 -0.01733
v -0.14876 0.59963 -0.02270
v -0.08461 0.63523 0.04827
v -0.14374 0.63528 0.04845
v -0.14353 0.63301 0.04858
v -0.13615 0.63908 -0.00464
v -0.13934 0.59768 -0.00297
v -0.13934 0.59768 -0.00297
v -0.15358 0.41655 0.00373
v -0.08333 0.63851 0.04950
v -0.10657 0.41207 -0.01367
v -0.15025 0.59785 -0.02460
v -0.15695 0.30608 0.01657
v -0.11526 0.30317 0.01657
v -0.13343 0.41667 0.00394
v -0.08514 0.59937 0.06041
v -0.13615 0.63908 -0.00464
v -0.15826 0.59116 0.00828
v -0.14550 0.59894 0.05908
v -0.15770 0.64515 0.00171
v -0.15870 0.64645 0.00680
v -0.14550 0.59894 0.05908
v -0.14353 0.63301 0.04858
v -0.15272 0.59712 0.04802
v -0.09064 0.59854 -0.02446
v -0.15025 0.59785 -0.02460
v -0.14876 0.59963 -0.02270
v -0.15313 0.63145 0.04423
v -0.15358 0.41655 0.00373
v -0.15272 0.59712 0.04802
v -0.15272 0.59712 0.04802
v -0.15115 0.59665 0.06355
v -0.15272 0.59712 0.04802
v -0.14819 0.59742 0.06554
v -0.17067 0.60483 -0.00297
v -0.15826 0.59116 0.00828
v -0.15272 0.59712 0.04802
v -0.15313 0.63145 0.04423
v -0.15815 0.32318 0.04356
v -0.15429 0.43240 0.07297
v -0.14819 0.59742 0.06554
v -0.13680 0.63872 -0.01848
v -0.15770 0.64515 0.00171
v -0.15939 0.64769 0.00035
v -0.15870 0.64645 0.00680
v -0.15936 0.47554 0.01245
v -0.15844 0.52095 0.01043
v -0.15826 0.59116 0.00828
v -0.14819 0.59742 0.06554
v -0.15272 0.59712 0.04802
v -0.15695 0.30608 0.01657
v -0.15669 0.42059 0.00680
v -0.15358 0.41655 0.00373
v -0.16884 0.60398 0.00544
v -0.13934 0.59768 -0.00297
v -0.16884 0.60398 0.00544
v -0.15826 0.59116 0.00828
v -0.15358 0.41655 0.00373
v -0.15669 0.42059 0.00680
v -0.16351 0.41998 -0.00390
v -0.15826 0.59116 0.00828
v -0.15688 0.32933 0.07739
v -0.15632 0.44974 0.00269
v -0.16351 0.41998 -0.00390
v -0.15669 0.42059 0.00680
v -0.17067 0.60483 -0.00297
v -0.15549 0.41178 -0.01342
v -0.16022 0.40942 0.02113
v -0.16034 0.37872 0.02368
v -0.15549 0.41178 -0.01342
v -0.16351 0.41998 -0.00390
v -0.16366 0.42198 -0.00732
v -0.15870 0.64645 0.00680
v -0.16042 0.34419 0.02682
v -0.16041 0.32893 0.02891
v -0.15632 0.44974 0.00269
v -0.16450 0.43560 0.01656
v -0.15356 0.44548 -0.01836
v -0.15549 0.41178 -0.01342
v -0.16366 0.42198 -0.00732
v -0.16475 0.45549 0.01262
v -0.16042 0.34419 0.02682
v -0.16034 0.37872 0.02368
v -0.16558 0.34429 0.02681
v -0.16450 0.43560 0.01656
v -0.16656 0.35554 0.02374
v -0.16022 0.40942 0.02113
v -0.16656 0.35554 0.02374
v -0.16542 0.37259 0.02364
v -0.16034 0.37872 0.02368
v -0.15936 0.47554 0.01245
v -0.16475 0.45549 0.01262
v -0.16022 0.40942 0.02113
v -0.16366 0.42198 -0.00732
v -0.15356 0.44548 -0.01836
v -0.16034 0.37872 0.02368
v -0.16022 0.40942 0.02113
v -0.16475 0.45549 0.01262
v -0.16450 0.43560 0.01656
v -0.16475 0.45549 0.01262
v -0.15356 0.44548 -0.01836
v -0.15632 0.44974 0.00269
v -0.16656 0.35554 0.02374
v -0.16041 0.32893 0.02891
v -0.16542 0.37259 0.02364
v -0.16972 0.49796 0.01144
v -0.15826 0.59116 0.00828
v -0.16884 0.60398 0.00544
v -0.15844 0.52095 0.01043
v -0.15025 0.59785 -0.02460
v -0.17266 0.60360 -0.00181
v -0.17067 0.60483 -0.00297
v -0.17060 0.45915 0.01241
v -0.16558 0.34429 0.02681
v -0.16542 0.37259 0.02364
v -0.16656 0.35554 0.02374
v -0.15356 0.44548 -0.01836
v -0.16763 0.30357 0.02922
v -0.17060 0.45915 0.01241
v -0.16884 0.60398 0.00544
v -0.17067 0.60483 -0.00297
v -0.17266 0.60360 -0.00181
v -0.17060 0.45915 0.01241
v -0.16972 0.49796 0.01144
v -0.17685 0.46082 0.00506
v -0.17685 0.46082 0.00506
v -0.16884 0.60398 0.00544
v -0.17266 0.60360 -0.00181
v -0.17685 0.46082 0.00506
v -0.09063 0.05985 0.08048
v -0.08973 0.05935 0.09709
v -0.09055 0.02772 0.09356
v -0.09140 0.00178 0.06322
v -0.09047 0.00220 0.08950
v -0.11213 0.06335 0.02172
v -0.09063 0.05985 0.08048
v -0.09180 0.06179 0.08040
v -0.08973 0.05935 0.09709
v -0.09160 0.00028 0.08836
v -0.09182 0.00030 0.06750
v -0.09697 0.06274 0.08619
v -0.08973 0.05935 0.09709
v -0.09180 0.06179 0.08040
v -0.09055 0.02772 0.09356
v -0.08973 0.05935 0.09709
v -0.15029 0.06085 0.10880
v -0.09581 0.00150 0.04863
v -0.09980 0.00123 0.03491
v -0.09581 0.00150 0.04863
v -0.09591 0.06272 0.08187
v -0.10120 0.24465 0.06854
v -0.09205 0.39707 0.07426
v -0.10088 0.23346 0.08118
v -0.09659 0.16259 0.08546
v -0.09697 0.06274 0.08619
v -0.09591 0.06272 0.08187
v -0.09659 0.16259 0.08546
v -0.09591 0.06272 0.08187
v -0.09895 0.06279 0.07172
v -0.09980 0.00123 0.03491
v -0.09895 0.06279 0.07172
v -0.09180 0.06179 0.08040
v -0.09063 0.05985 0.08048
v -0.09895 0.06279 0.07172
v -0.09047 0.00220 0.08950
v -0.09980 0.00123 0.03491
v -0.09182 0.00030 0.06750
v -0.09160 0.00028 0.08836
v -0.16911 0.06239 0.10141
v -0.09205 0.39707 0.07426
v -0.15834 0.28379 0.07916
v -0.10088 0.23346 0.08118
v -0.09370 0.41917 0.03806
v -0.10398 0.29622 0.04627
v -0.10179 0.27591 0.04589
v -0.09777 0.31917 0.04325
v -0.10398 0.29622 0.04627
v -0.10554 0.16409 0.08472
v -0.10808 0.24611 0.05014
v -0.10623 0.26185 0.04834
v -0.09063 0.05985 0.08048
v -0.10810 0.06387 0.04647
v -0.09895 0.06279 0.07172
v -0.10491 0.00026 0.02042
v -0.11273 0.19163 0.05335
v -0.10506 0.16436 0.08172
v -0.09659 0.16259 0.08546
v -0.11624 0.16232 0.02493
v -0.10554 0.16409 0.08472
v -0.09777 0.31917 0.04325
v -0.10179 0.27591 0.04589
v -0.11526 0.30317 0.01657
v -0.10513 0.27618 0.04731
v -0.10506 0.16436 0.08172
v -0.11273 0.19163 0.05335
v -0.10554 0.16409 0.08472
v -0.11213 0.06335 0.02172
v -0.10513 0.27618 0.04731
v -0.10905 0.00123 0.00312
v -0.10491 0.00026 0.02042
v -0.09980 0.00123 0.03491
v -0.10905 0.00123 0.00312
v -0.10623 0.26185 0.04834
v -0.10497 0.24256 0.04841
v -0.11527 0.16445 0.05552
v -0.10808 0.24611 0.05014
v -0.10497 0.24256 0.04841
v -0.11050 0.21655 0.05207
v -0.11202 0.16508 0.05296
v -0.11411 0.16251 0.08945
v -0.11050 0.21655 0.05207
v -0.10810 0.06387 0.04647
v -0.10554 0.16409 0.08472
v -0.16141 0.18497 0.08325
v -0.11624 0.16232 0.02493
v -0.11202 0.16508 0.05296
v -0.11527 0.16445 0.05552
v -0.11529 0.06481 0.02527
v -0.11273 0.19163 0.05335
v -0.11422 0.17575 0.05452
v -0.10506 0.16436 0.08172
v -0.11527 0.16445 0.05552
v -0.11422 0.17575 0.05452
v -0.11527 0.16445 0.05552
v -0.13421 0.00593 -0.08168
v -0.13279 0.04292 -0.07597
v -0.11529 0.06481 0.02527
v -0.11273 0.19163 0.05335
v -0.11624 0.16232 0.02493
v -0.12385 0.16343 0.03343
v -0.11202 0.16508 0.05296
v -0.11904 0.09113 0.02054
v -0.11834 0.16244 0.02166
v -0.11624 0.16232 0.02493
v -0.11729 0.10892 0.02169
v -0.11202 0.16508 0.05296
v -0.12385 0.16343 0.03343
v -0.11529 0.06481 0.02527
v -0.11213 0.06335 0.02172
v -0.11904 0.09113 0.02054
v -0.10905 0.00123 0.00312
v -0.11834 0.16244 0.02166
v -0.16198 0.16338 0.08487
v -0.12409 0.18812 0.02886
v -0.12138 0.00132 -0.03887
v -0.11904 0.09113 0.02054
v -0.11904 0.09113 0.02054
v -0.15695 0.30608 0.01657
v -0.11526 0.30317 0.01657
v -0.12409 0.18812 0.02886
v -0.11411 0.16251 0.08945
v -0.09697 0.06274 0.08619
v -0.09659 0.16259 0.08546
v -0.12538 0.00105 -0.05146
v -0.15834 0.16247 0.09865
v -0.11834 0.16244 0.02166
v -0.11904 0.09113 0.02054
v -0.15346 0.09075 0.02675
v -0.12385 0.16343 0.03343
v -0.16022 0.16441 0.03302
v -0.12538 0.00105 -0.05146
v -0.15679 0.00078 -0.07223
v -0.13681 0.00125 -0.09842
v -0.13279 0.04292 -0.07597
v -0.15784 0.04396 -0.07227
v -0.11904 0.09113 0.02054
v -0.15834 0.16247 0.09865
v -0.13810 0.04324 -0.10241
v -0.13810 0.04324 -0.10241
v -0.13421 0.04469 -0.07701
v -0.13279 0.04292 -0.07597
v -0.13681 0.00125 -0.09842
v -0.09160 0.00028 0.08836
v -0.17990 0.00125 0.10788
v -0.13421 0.04469 -0.07701
v -0.15784 0.04396 -0.07227
v -0.13279 0.04292 -0.07597
v -0.19169 0.09113 0.03351
v -0.19264 0.16195 0.03554
v -0.14392 0.00117 -0.13045
v -0.13832 0.03584 -0.10420
v -0.14390 0.03932 -0.13126
v -0.17064 0.05875 0.11409
v -0.15029 0.06085 0.10880
v -0.13421 0.04469 -0.07701
v -0.13810 0.04324 -0.10241
v -0.16369 0.04357 -0.09555
v -0.14579 0.00309 -0.13770
v -0.16369 0.04357 -0.09555
v -0.13810 0.04324 -0.10241
v -0.13832 0.03584 -0.10420
v -0.14743 0.00026 -0.13653
v -0.14392 0.00117 -0.13045
v -0.17096 0.00046 -0.13163
v -0.14579 0.00309 -0.13770
v -0.14392 0.00117 -0.13045
v -0.14743 0.00026 -0.13653
v -0.14802 0.00207 -0.13845
v -0.14579 0.00309 -0.13770
v -0.14802 0.00207 -0.13845
v -0.14390 0.03932 -0.13126
v -0.19264 0.16195 0.03554
v -0.15784 0.04396 -0.07227
v -0.17176 0.03932 -0.12430
v -0.13832 0.03584 -0.10420
v -0.14390 0.03932 -0.13126
v -0.16396 0.03485 -0.09886
v -0.16112 0.03927 -0.12806
v -0.21773 0.00033 -0.00523
v -0.12138 0.00132 -0.03887
v -0.17007 0.00079 -0.11751
v -0.16198 0.16338 0.08487
v -0.16911 0.06239 0.10141
v -0.17079 0.16156 0.10084
v -0.15346 0.09075 0.02675
v -0.17369 0.00033 -0.06792
v -0.15679 0.00078 -0.07223
v -0.16115 0.00188 -0.08454
v -0.17007 0.00079 -0.11751
v -0.14743 0.00026 -0.13653
v -0.17096 0.00046 -0.13163
v -0.14802 0.00207 -0.13845
v -0.16112 0.03927 -0.12806
v -0.17219 0.03776 -0.12685
v -0.12385 0.16343 0.03343
v -0.19264 0.16195 0.03554
v -0.16022 0.16441 0.03302
v -0.15815 0.32318 0.04356
v -0.15834 0.28379 0.07916
v -0.15688 0.32933 0.07739
v -0.16137 0.26301 0.03503
v -0.16140 0.30408 0.03091
v -0.16041 0.32893 0.02891
v -0.15784 0.04396 -0.07227
v -0.16494 0.03361 -0.09552
v -0.16115 0.00188 -0.08454
v -0.15679 0.00078 -0.07223
v -0.16238 0.21040 0.04014
v -0.16242 0.17873 0.04422
v -0.16141 0.18497 0.08325
v -0.16385 0.04377 -0.09318
v -0.15784 0.04396 -0.07227
v -0.15679 0.00078 -0.07223
v -0.17226 0.00179 -0.07012
v -0.16323 0.16330 0.04599
v -0.16140 0.30408 0.03091
v -0.16865 0.25092 0.03366
v -0.16137 0.26301 0.03503
v -0.16198 0.16338 0.08487
v -0.16041 0.32893 0.02891
v -0.16657 0.30322 0.03093
v -0.18818 0.00120 0.08452
v -0.17990 0.00125 0.10788
v -0.17165 0.05982 0.11313
v -0.16238 0.21040 0.04014
v -0.17155 0.16438 0.04375
v -0.16385 0.04377 -0.09318
v -0.16865 0.25092 0.03366
v -0.15695 0.30608 0.01657
v -0.16022 0.16441 0.03302
v -0.16656 0.35554 0.02374
v -0.16763 0.30357 0.02922
v -0.16369 0.04357 -0.09555
v -0.17079 0.16156 0.10084
v -0.17155 0.16438 0.04375
v -0.16396 0.03485 -0.09886
v -0.16323 0.16330 0.04599
v -0.16242 0.17873 0.04422
v -0.15679 0.00078 -0.07223
v -0.17369 0.00033 -0.06792
v -0.17226 0.00179 -0.07012
v -0.17096 0.00046 -0.13163
v -0.17381 0.00216 -0.13137
v -0.17417 0.04436 -0.06900
v -0.17223 0.04288 -0.06931
v -0.16558 0.34429 0.02681
v -0.15029 0.06085 0.10880
v -0.17165 0.05982 0.11313
v -0.17064 0.05875 0.11409
v -0.16323 0.16330 0.04599
v -0.17155 0.16438 0.04375
v -0.16657 0.30322 0.03093
v -0.16558 0.34429 0.02681
v -0.16763 0.30357 0.02922
v -0.16396 0.03485 -0.09886
v -0.17339 0.03645 -0.12430
v -0.17007 0.00079 -0.11751
v -0.16865 0.25092 0.03366
v -0.16494 0.03361 -0.09552
v -0.17219 0.03776 -0.12685
v -0.17530 0.03155 0.11121
v -0.16494 0.03361 -0.09552
v -0.17176 0.03932 -0.12430
v -0.17339 0.03645 -0.12430
v -0.17096 0.00046 -0.13163
v -0.17007 0.00079 -0.11751
v -0.17381 0.00216 -0.13137
v -0.17530 0.03155 0.11121
v -0.17064 0.05875 0.11409
v -0.17165 0.05982 0.11313
v -0.19066 0.16319 0.03554
v -0.17079 0.16156 0.10084
v -0.19264 0.16195 0.03554
v -0.17675 0.06180 0.08426
v -0.17747 0.03474 -0.09487
v -0.17226 0.00179 -0.07012
v -0.17483 0.00203 -0.08634
v -0.16911 0.06239 0.10141
v -0.17219 0.03776 -0.12685
v -0.17675 0.06180 0.08426
v -0.19264 0.16195 0.03554
v -0.17155 0.16438 0.04375
v -0.16022 0.16441 0.03302
v -0.17381 0.00216 -0.13137
v -0.17381 0.00216 -0.13137
v -0.17226 0.00179 -0.07012
v -0.17369 0.00033 -0.06792
v -0.17223 0.04288 -0.06931
v -0.17702 0.04289 -0.09305
v -0.17702 0.04289 -0.09305
v -0.17417 0.04436 -0.06900
v -0.17223 0.04288 -0.06931
v -0.18393 0.03930 -0.12408
v -0.17686 0.00024 -0.09121
v -0.18111 0.00186 -0.11337
v -0.18818 0.00120 0.08452
v -0.19332 0.00120 0.06915
v -0.17747 0.03474 -0.09487
v -0.18227 0.04352 -0.09235
v -0.17702 0.04289 -0.09305
v -0.19742 0.06134 0.04019
v -0.19264 0.16195 0.03554
v -0.19822 0.00154 -0.06338
v -0.19742 0.06134 0.04019
v -0.18709 0.00028 -0.12919
v -0.17990 0.00125 0.10788
v -0.18709 0.00028 -0.12919
v -0.18804 0.06182 0.05227
v -0.17155 0.16438 0.04375
v -0.19264 0.16195 0.03554
v -0.19066 0.16319 0.03554
v -0.19290 0.08141 0.03907
v -0.18804 0.06182 0.05227
v -0.20268 0.04359 -0.08536
v -0.17417 0.04436 -0.06900
v -0.17702 0.04289 -0.09305
v -0.20268 0.04359 -0.08536
v -0.17702 0.04289 -0.09305
v -0.18227 0.04352 -0.09235
v -0.19338 0.03528 -0.09026
v -0.18601 0.02086 -0.12817
v -0.18648 0.03854 -0.12568
v -0.18393 0.03930 -0.12408
v -0.18601 0.02086 -0.12817
v -0.17686 0.00024 -0.09121
v -0.18709 0.00028 -0.12919
v -0.18709 0.00028 -0.12919
v -0.18990 0.00115 -0.13031
v -0.18601 0.02086 -0.12817
v -0.19332 0.00120 0.06915
v -0.18648 0.03854 -0.12568
v -0.18601 0.02086 -0.12817
v -0.18990 0.00115 -0.13031
v -0.19324 0.06286 0.04012
v -0.19338 0.03528 -0.09026
v -0.17747 0.03474 -0.09487
v -0.21121 0.03976 -0.11514
v -0.18393 0.03930 -0.12408
v -0.20268 0.04359 -0.08536
v -0.21173 0.03931 -0.11790
v -0.19324 0.06286 0.04012
v -0.20153 0.00120 0.04453
v -0.19290 0.08141 0.03907
v -0.19264 0.16195 0.03554
v -0.19169 0.09113 0.03351
v -0.19324 0.06286 0.04012
v -0.19290 0.08141 0.03907
v -0.19742 0.06134 0.04019
v -0.20153 0.00120 0.04453
v -0.18648 0.03854 -0.12568
v -0.21173 0.03931 -0.11790
v -0.19780 0.04370 -0.06298
v -0.17417 0.04436 -0.06900
v -0.20370 0.03385 -0.08669
v -0.21376 0.00126 0.00940
v -0.19780 0.04370 -0.06298
v -0.21486 0.04534 -0.05707
v -0.17417 0.04436 -0.06900
v -0.21124 0.04299 -0.06056
v -0.20370 0.03385 -0.08669
v -0.20370 0.03385 -0.08669
v -0.19780 0.04370 -0.06298
v -0.20268 0.04359 -0.08536
v -0.19822 0.00154 -0.06338
v -0.21163 0.00040 -0.05967
v -0.19780 0.04370 -0.06298
v -0.19822 0.00154 -0.06338
v -0.20602 0.07490 0.00573
v -0.19169 0.09113 0.03351
v -0.21124 0.04299 -0.06056
v -0.21334 0.03773 -0.11531
v -0.20763 0.00027 -0.10364
v -0.23614 0.04285 -0.05440
v -0.21163 0.00040 -0.05967
v -0.20763 0.00027 -0.10364
v -0.21281 0.00123 -0.12311
v -0.23614 0.04285 -0.05440
v -0.21121 0.03976 -0.11514
v -0.21334 0.03773 -0.11531
v -0.20370 0.03385 -0.08669
v -0.21281 0.00123 -0.12311
v -0.21281 0.00123 -0.12311
v -0.18990 0.00115 -0.13031
v -0.23106 0.00034 -0.04424
v -0.21376 0.00126 0.00940
v -0.21163 0.00040 -0.05967
v -0.21175 0.01964 -0.06140
v -0.21124 0.04299 -0.06056
v -0.21173 0.03931 -0.11790
v -0.20602 0.07490 0.00573
v -0.21124 0.04299 -0.06056
v -0.21773 0.04340 -0.08611
v -0.21486 0.04534 -0.05707
v -0.21173 0.03931 -0.11790
v -0.21281 0.00123 -0.12311
v -0.21334 0.03773 -0.11531
v -0.21991 0.00131 -0.09843
v -0.21773 0.04340 -0.08611
v -0.17417 0.04436 -0.06900
v -0.21486 0.04534 -0.05707
v -0.23614 0.04285 -0.05440
v -0.21773 0.00033 -0.00523
v -0.21773 0.04340 -0.08611
v -0.22521 0.03902 -0.11667
v -0.22248 0.03534 -0.08736
v -0.22618 0.00120 -0.02730
v -0.22521 0.03902 -0.11667
v -0.22012 0.04272 -0.08706
v -0.21773 0.04340 -0.08611
v -0.22248 0.03534 -0.08736
v -0.23315 0.04554 -0.05233
v -0.21773 0.00033 -0.00523
v -0.22618 0.00120 -0.02730
v -0.23106 0.00034 -0.04424
v -0.22248 0.03534 -0.08736
v -0.22521 0.03902 -0.11667
v -0.22801 0.03934 -0.11698
v -0.22809 0.00124 -0.12199
v -0.23941 0.00134 -0.06558
v -0.22012 0.04272 -0.08706
v -0.24367 0.04356 -0.07605
v -0.21991 0.00131 -0.09843
v -0.23106 0.00034 -0.04424
v -0.23941 0.00134 -0.06558
v -0.23315 0.04554 -0.05233
v -0.25381 0.00125 -0.10779
v -0.22809 0.00124 -0.12199
v -0.23097 0.00110 -0.12223
v -0.22012 0.04272 -0.08706
v -0.22248 0.03534 -0.08736
v -0.24367 0.04356 -0.07605
v -0.24755 0.03124 -0.08181
v -0.24568 0.00111 -0.08374
v -0.23780 0.03877 -0.11203
v -0.25122 0.03877 -0.10302
v -0.22801 0.03934 -0.11698
v -0.24482 0.03463 -0.07835
v -0.24367 0.04356 -0.07605
v -0.24482 0.03463 -0.07835
v -0.23315 0.04554 -0.05233
v -0.24568 0.00111 -0.08374
v -0.23097 0.00110 -0.12223
v -0.23780 0.03877 -0.11203
v -0.22801 0.03934 -0.11698
v -0.23097 0.00110 -0.12223
v -0.22801 0.03934 -0.11698
v -0.22809 0.00124 -0.12199
v -0.25330 0.00192 -0.11099
v -0.24367 0.04356 -0.07605
v -0.24482 0.03463 -0.07835
v -0.24755 0.03124 -0.08181
v -0.25330 0.00192 -0.11099
v -0.25122 0.03877 -0.10302
v -0.24482 0.03463 -0.07835
v -0.25122 0.03877 -0.10302
v -0.25380 0.03730 -0.10356
v -0.25380 0.03730 -0.10356
v -0.25380 0.03730 -0.10356
v -0.24482 0.03463 -0.07835
v -0.24568 0.00111 -0.08374
v -0.25330 0.00192 -0.11099
v -0.25381 0.00125 -0.10779
v -0.25380 0.03730 -0.10356
v -0.25330 0.00192 -0.11099
v -0.22521 0.03902 -0.11667
v -0.10647 0.93280 0.02635
v -0.06593 0.87429 0.06372
v -0.03317 0.95342 0.02335
v -0.06896 0.87345 -0.01647
v -0.05939 1.04250 -0.05454
v -0.06533 0.94609 -0.04863
v -0.12498 1.06457 -0.05632
v -0.13319 0.73942 -0.03774
v -0.15716 1.06953 -0.02194
v -0.15720 0.74231 0.02396
v -0.14578 1.06745 0.02732
v -0.16246 0.74299 0.05452
v -0.15571 1.06721 0.07454
v -0.12453 0.83676 0.08949
v -0.12004 1.06344 0.10702
v -0.06896 0.85391 0.09151
v -0.06081 0.98746 0.10175
v -0.15069 0.59706 0.05904
v -0.15272 0.59712 0.04802
v -0.15115 0.59665 0.06355
v -0.14819 0.59742 0.06554
vt 0.09488 0.16570
vt 0.11981 0.14811
vt 0.11742 0.16373
vt 0.92691 0.83120
vt 0.92715 0.83381
vt 0.92487 0.83262
vt 0.04850 0.42487
vt 0.04795 0.44749
vt 0.04555 0.44813
vt 0.93967 0.84051
vt 0.03220 0.45125
vt 0.99724 0.89289
vt 0.99624 0.89427
vt 0.99467 0.89294
vt 0.03838 0.45008
vt 0.91907 0.83725
vt 0.78623 0.21731
vt 0.78010 0.21701
vt 0.77210 0.21552
vt 0.78376 0.25045
vt 0.16774 0.48235
vt 0.15698 0.48425
vt 0.16876 0.44518
vt 0.77237 0.25144
vt 0.15385 0.44783
vt 0.14267 0.39303
vt 0.14395 0.42419
vt 0.08247 0.13869
vt 0.91591 0.84069
vt 0.12572 0.13865
vt 0.15268 0.01695
vt 0.15066 0.01526
vt 0.15253 0.00580
vt 0.15597 0.44839
vt 0.61736 0.03173
vt 0.63094 0.02389
vt 0.65918 0.02965
vt 0.91372 0.84057
vt 0.79666 0.22199
vt 0.79696 0.25333
vt 0.78317 0.25309
vt 0.96359 0.67291
vt 0.95549 0.67563
vt 0.95220 0.66899
vt 0.14531 0.46390
vt 0.94136 0.66893
vt 0.94716 0.67687
vt 0.58517 0.00240
vt 0.58771 0.00172
vt 0.59734 0.00165
vt 0.18361 0.02429
vt 0.22409 0.02429
vt 0.22539 0.02728
vt 0.79716 0.23415
vt 0.79584 0.24427
vt 0.26358 0.61680
vt 0.33063 0.63576
vt 0.77912 0.25657
vt 0.00018 0.98342
vt 0.00285 0.98529
vt 0.00083 0.99433
vt 0.99695 0.64525
vt 0.99695 0.65606
vt 0.99597 0.65318
vt 0.15825 0.49001
vt 0.16622 0.48354
vt 0.15740 0.52305
vt 0.87147 0.01290
vt 0.85300 0.01290
vt 0.86234 0.01238
vt 0.78489 0.25827
vt 0.79396 0.25907
vt 0.14610 0.49064
vt 0.93933 0.10461
vt 0.94770 0.10790
vt 0.94365 0.10775
vt 0.95469 0.67653
vt 0.93614 0.10503
vt 0.93642 0.10384
vt 0.59629 0.00291
vt 0.60823 0.00254
vt 0.60846 0.00302
vt 0.60345 0.00153
vt 0.80438 0.91601
vt 0.80788 0.91260
vt 0.80801 0.91373
vt 0.93351 0.11329
vt 0.94020 0.11420
vt 0.34090 0.00908
vt 0.32316 0.00908
vt 0.34115 0.00861
vt 0.93299 0.12720
vt 0.34630 0.89094
vt 0.31510 0.89773
vt 0.07259 0.88853
vt 0.06595 0.87030
vt 0.08745 0.88860
vt 0.06527 0.88853
vt 0.15279 0.61812
vt 0.25773 0.61498
vt 0.22058 0.63628
vt 0.38852 0.92436
vt 0.42044 0.92436
vt 0.38846 0.92549
vt 0.66360 0.87799
vt 0.66670 0.88060
vt 0.64914 0.88912
vt 0.33685 0.61807
vt 0.34027 0.63578
vt 0.82043 0.92367
vt 0.65382 0.89012
vt 0.18085 0.63628
vt 0.15409 0.63607
vt 0.35873 0.63510
vt 0.88547 0.13447
vt 0.88547 0.10247
vt 0.90137 0.13402
vt 0.09994 0.86907
vt 0.09790 0.88846
vt 0.36774 0.63510
vt 0.36869 0.61911
vt 0.90219 0.10162
vt 0.65223 0.89066
vt 0.81820 0.92713
vt 0.26377 0.60083
vt 0.36854 0.61743
vt 0.49878 0.58217
vt 0.48353 0.47648
vt 0.36842 0.60415
vt 0.64351 0.88879
vt 0.10157 0.86593
vt 0.36888 0.60635
vt 0.89131 0.41860
vt 0.90218 0.38874
vt 0.90090 0.42112
vt 0.06647 0.86468
vt 0.51641 0.58863
vt 0.51883 0.48381
vt 0.53514 0.48381
vt 0.49419 0.58188
vt 0.64114 0.89047
vt 0.86752 0.87448
vt 0.86676 0.83937
vt 0.88019 0.87109
vt 0.63391 0.87932
vt 0.64364 0.88865
vt 0.63564 0.88146
vt 0.88021 0.84041
vt 0.83214 0.92645
vt 0.82279 0.92710
vt 0.89210 0.38834
vt 0.50643 0.58814
vt 0.88551 0.84096
vt 0.88131 0.87077
vt 0.83052 0.92328
vt 0.63426 0.88186
vt 0.62956 0.87623
vt 0.88999 0.38848
vt 0.89010 0.41859
vt 0.00276 0.12038
vt 0.00381 0.12057
vt 0.00280 0.12160
vt 0.00374 0.12229
vt 0.88801 0.38828
vt 0.63891 0.89070
vt 0.62997 0.87818
vt 0.83415 0.92140
vt 0.48482 0.58175
vt 0.99596 0.68564
vt 0.99645 0.68001
vt 0.99605 0.69107
vt 0.52748 0.58881
vt 0.77989 0.26274
vt 0.78349 0.25699
vt 0.31245 0.89094
vt 0.81579 0.96935
vt 0.80344 0.95971
vt 0.82699 0.96847
vt 0.42285 0.94438
vt 0.41423 0.94036
vt 0.43339 0.94428
vt 0.78287 0.31052
vt 0.78224 0.34320
vt 0.77792 0.32898
vt 0.03152 0.52345
vt 0.04694 0.53788
vt 0.04694 0.54833
vt 0.42974 0.94116
vt 0.16574 0.95047
vt 0.16282 0.93988
vt 0.16551 0.94387
vt 0.80531 0.97053
vt 0.03188 0.50716
vt 0.04614 0.50521
vt 0.77823 0.29482
vt 0.78293 0.30007
vt 0.04448 0.54914
vt 0.03965 0.55015
vt 0.77824 0.33860
vt 0.77724 0.34194
vt 0.24099 0.94415
vt 0.21149 0.94415
vt 0.23984 0.93907
vt 0.99395 0.40114
vt 0.98754 0.39326
vt 0.99057 0.38952
vt 0.98779 0.84391
vt 0.98403 0.84391
vt 0.98662 0.84097
vt 0.44268 0.94282
vt 0.43819 0.94128
vt 0.94431 0.69381
vt 0.92374 0.69616
vt 0.92878 0.69381
vt 0.93275 0.69749
vt 0.16720 0.95547
vt 0.16917 0.95130
vt 0.98922 0.84098
vt 0.00562 0.48598
vt 0.00735 0.48874
vt 0.00074 0.48629
vt 0.77804 0.31705
vt 0.44320 0.94176
vt 0.99543 0.39756
vt 0.99538 0.40205
vt 0.92800 0.97679
vt 0.92775 0.97890
vt 0.92695 0.97847
vt 0.91052 0.01662
vt 0.91097 0.00794
vt 0.91203 0.00610
vt 0.00498 0.87833
vt 0.00498 0.87951
vt 0.00058 0.87926
vt 0.91253 0.01715
vt 0.99151 0.17862
vt 0.99705 0.17814
vt 0.99787 0.17879
vt 0.97315 0.87163
vt 0.96521 0.86871
vt 0.97157 0.86889
vt 0.98131 0.39872
vt 0.21933 0.67387
vt 0.18648 0.67387
vt 0.21853 0.66284
vt 0.97494 0.86974
vt 0.98205 0.86969
vt 0.97759 0.87399
vt 0.97939 0.87801
vt 0.98221 0.86879
vt 0.20891 0.66318
vt 0.99745 0.04060
vt 0.99591 0.04132
vt 0.99396 0.04058
vt 0.98169 0.84109
vt 0.19698 0.66301
vt 0.70966 0.93356
vt 0.70748 0.93823
vt 0.70285 0.92841
vt 0.03454 0.55152
vt 0.16315 0.67353
vt 0.17476 0.66339
vt 0.16984 0.66367
vt 0.82554 0.69834
vt 0.82441 0.73602
vt 0.82309 0.72639
vt 0.82313 0.73131
vt 0.17029 0.95188
vt 0.12040 0.66969
vt 0.98798 0.40724
vt 0.97825 0.84407
vt 0.49663 0.03501
vt 0.48867 0.02992
vt 0.48801 0.02622
vt 0.97640 0.84112
vt 0.69630 0.92917
vt 0.03124 0.55118
vt 0.00706 0.53018
vt 0.00094 0.53018
vt 0.00696 0.52644
vt 0.97034 0.08100
vt 0.97364 0.08277
vt 0.97256 0.08286
vt 0.49020 0.03549
vt 0.82455 0.69169
vt 0.97038 0.18050
vt 0.97031 0.18176
vt 0.95953 0.18081
vt 0.00052 0.52673
vt 0.03478 0.55764
vt 0.03091 0.55899
vt 0.52570 0.02547
vt 0.53019 0.03443
vt 0.60738 0.53209
vt 0.62497 0.55171
vt 0.62497 0.56452
vt 0.18178 0.95496
vt 0.60588 0.47593
vt 0.62493 0.47630
vt 0.60693 0.50876
vt 0.70274 0.92626
vt 0.99351 0.07234
vt 0.99790 0.07234
vt 0.99749 0.07327
vt 0.97657 0.07949
vt 0.62516 0.52273
vt 0.95871 0.17882
vt 0.50300 0.03582
vt 0.91035 0.98192
vt 0.97157 0.07919
vt 0.03360 0.61303
vt 0.03409 0.59674
vt 0.04985 0.56945
vt 0.49801 0.03672
vt 0.90925 0.98024
vt 0.97580 0.06577
vt 0.89433 0.61017
vt 0.89389 0.60512
vt 0.90128 0.60957
vt 0.03593 0.56129
vt 0.05006 0.55987
vt 0.03474 0.56902
vt 0.69998 0.91325
vt 0.95701 0.34729
vt 0.95637 0.33069
vt 0.95701 0.33073
vt 0.96964 0.16928
vt 0.95796 0.16928
vt 0.70491 0.91694
vt 0.90692 0.60918
vt 0.95603 0.34768
vt 0.03633 0.56036
vt 0.05032 0.61229
vt 0.90583 0.57794
vt 0.89409 0.57790
vt 0.97107 0.07223
vt 0.96763 0.34674
vt 0.18150 0.95108
vt 0.95560 0.16328
vt 0.96699 0.32980
vt 0.18773 0.94909
vt 0.97109 0.16203
vt 0.98934 0.88306
vt 0.97931 0.88306
vt 0.98903 0.87933
vt 0.47430 0.97050
vt 0.49064 0.96686
vt 0.49039 0.96766
vt 0.95729 0.32775
vt 0.97083 0.06658
vt 0.96699 0.32778
vt 0.90871 0.98529
vt 0.00095 0.58052
vt 0.00532 0.58090
vt 0.00025 0.58126
vt 0.70661 0.90807
vt 0.97018 0.75462
vt 0.97963 0.74827
vt 0.98533 0.75612
vt 0.70988 0.51713
vt 0.70025 0.48683
vt 0.70025 0.44041
vt 0.12818 0.99921
vt 0.11985 0.99994
vt 0.11954 0.99905
vt 0.18804 0.94762
vt 0.71683 0.47401
vt 0.71684 0.46123
vt 0.77910 0.00378
vt 0.79472 0.00886
vt 0.78973 0.00788
vt 0.18160 0.02363
vt 0.21386 0.02229
vt 0.21286 0.02363
vt 0.70882 0.90906
vt 0.01684 0.00058
vt 0.02563 0.00058
vt 0.02232 0.00397
vt 0.99670 0.11054
vt 0.99684 0.11221
vt 0.99329 0.11183
vt 0.71663 0.44151
vt 0.70031 0.51582
vt 0.00683 0.53936
vt 0.00327 0.53132
vt 0.00683 0.53109
vt 0.49789 0.97146
vt 0.99254 0.10771
vt 0.71523 0.49267
vt 0.71487 0.50131
vt 0.00480 0.74329
vt 0.00082 0.74458
vt 0.00076 0.74347
vt 0.98032 0.76639
vt 0.71439 0.51104
vt 0.71398 0.51535
vt 0.22213 0.02237
vt 0.21766 0.01833
vt 0.99125 0.00254
vt 0.99125 0.01212
vt 0.98802 0.00967
vt 0.22335 0.01856
vt 0.32172 0.00299
vt 0.31198 0.00299
vt 0.32169 0.00154
vt 0.96327 0.84572
vt 0.96262 0.82314
vt 0.96458 0.83827
vt 0.99781 0.95112
vt 0.99308 0.95195
vt 0.99107 0.95098
vt 0.04784 0.34196
vt 0.04654 0.33628
vt 0.04884 0.32326
vt 0.00242 0.53204
vt 0.00075 0.53969
vt 0.96449 0.82962
vt 0.38957 0.00302
vt 0.37635 0.00302
vt 0.38203 0.00254
vt 0.36724 0.98905
vt 0.37139 0.99778
vt 0.36759 0.99303
vt 0.19508 0.01886
vt 0.32604 0.00301
vt 0.31369 0.00156
vt 0.04468 0.34815
vt 0.04686 0.37445
vt 0.04368 0.37796
vt 0.04759 0.35473
vt 0.82270 0.65981
vt 0.81365 0.65874
vt 0.81425 0.65832
vt 0.04486 0.33724
vt 0.09813 0.01051
vt 0.09013 0.01054
vt 0.09489 0.00994
vt 0.82336 0.70265
vt 0.10957 0.00968
vt 0.36851 0.98758
vt 0.99529 0.97073
vt 0.99529 0.97316
vt 0.99460 0.97292
vt 0.05320 0.85500
vt 0.06411 0.85501
vt 0.05368 0.85770
vt 0.81384 0.69890
vt 0.09392 0.85605
vt 0.09384 0.85835
vt 0.37126 0.98756
vt 0.23755 0.72304
vt 0.23223 0.72128
vt 0.23642 0.71140
vt 0.24872 0.70594
vt 0.24018 0.70354
vt 0.25734 0.73046
vt 0.99818 0.87880
vt 0.99831 0.87955
vt 0.99259 0.87928
vt 0.24078 0.70294
vt 0.24750 0.70501
vt 0.83004 0.04593
vt 0.83446 0.04703
vt 0.82887 0.04829
vt 0.60615 0.91583
vt 0.60593 0.92656
vt 0.58513 0.92656
vt 0.25367 0.70735
vt 0.25830 0.70867
vt 0.25382 0.70658
vt 0.82881 0.04679
vt 0.64257 0.58621
vt 0.64706 0.53488
vt 0.64666 0.59018
vt 0.89940 0.34520
vt 0.89940 0.31153
vt 0.90090 0.31153
vt 0.88043 0.31083
vt 0.88131 0.27714
vt 0.88488 0.27714
vt 0.25860 0.70721
vt 0.82525 0.04711
vt 0.00444 0.79291
vt 0.00488 0.79353
vt 0.00068 0.79355
vt 0.60664 0.90713
vt 0.61461 0.78404
vt 0.60274 0.78073
vt 0.59779 0.77795
vt 0.82708 0.02124
vt 0.50354 0.73578
vt 0.46483 0.75730
vt 0.44827 0.73756
vt 0.63504 0.52689
vt 0.63557 0.56859
vt 0.02544 0.76088
vt 0.02485 0.74622
vt 0.02664 0.75410
vt 0.64666 0.61365
vt 0.63596 0.58560
vt 0.63572 0.58022
vt 0.96845 0.18559
vt 0.96683 0.19845
vt 0.96668 0.18939
vt 0.26334 0.70990
vt 0.63608 0.60406
vt 0.09358 0.92276
vt 0.09601 0.92072
vt 0.09571 0.94217
vt 0.09315 0.92183
vt 0.01123 0.69794
vt 0.01160 0.68327
vt 0.02214 0.69285
vt 0.02667 0.76087
vt 0.97631 0.99530
vt 0.96279 0.99530
vt 0.97705 0.99459
vt 0.96861 0.20672
vt 0.63562 0.57536
vt 0.26899 0.71193
vt 0.99699 0.73190
vt 0.99745 0.72672
vt 0.99741 0.73789
vt 0.02681 0.76573
vt 0.01176 0.67194
vt 0.09290 0.93222
vt 0.02725 0.77109
vt 0.02597 0.77220
vt 0.02755 0.78111
vt 0.02686 0.79846
vt 0.08996 0.92084
vt 0.63609 0.59562
vt 0.89394 0.27746
vt 0.42482 0.73863
vt 0.43147 0.75761
vt 0.99647 0.53553
vt 0.99730 0.54510
vt 0.99612 0.54587
vt 0.96709 0.20600
vt 0.02779 0.78955
vt 0.75782 0.98324
vt 0.75503 0.99327
vt 0.75403 0.98384
vt 0.02803 0.79494
vt 0.02823 0.79878
vt 0.29705 0.72217
vt 0.29157 0.73355
vt 0.90149 0.27773
vt 0.76316 0.98247
vt 0.00976 0.66647
vt 0.00732 0.66946
vt 0.00016 0.66657
vt 0.90348 0.28662
vt 0.01096 0.66700
vt 0.90189 0.31065
vt 0.90296 0.29264
vt 0.01244 0.64567
vt 0.02015 0.64534
vt 0.99877 0.41880
vt 0.99719 0.41938
vt 0.99788 0.40974
vt 0.62723 0.78677
vt 0.90320 0.31069
vt 0.42417 0.75765
vt 0.02127 0.65373
vt 0.28310 0.71628
vt 0.90369 0.28664
vt 0.25545 0.73993
vt 0.18120 0.07399
vt 0.18130 0.08808
vt 0.14217 0.08808
vt 0.30473 0.89697
vt 0.27106 0.89124
vt 0.30473 0.89091
vt 0.28738 0.71749
vt 0.07473 0.92143
vt 0.95029 0.63736
vt 0.92624 0.63694
vt 0.92624 0.62515
vt 0.13373 0.08880
vt 0.13316 0.07654
vt 0.64874 0.78115
vt 0.65956 0.77442
vt 0.66208 0.78467
vt 0.83521 0.56343
vt 0.84333 0.56079
vt 0.84733 0.59804
vt 0.30478 0.91220
vt 0.30024 0.73627
vt 0.07076 0.99987
vt 0.06208 0.99987
vt 0.06170 0.99912
vt 0.30298 0.72222
vt 0.60636 0.90633
vt 0.57587 0.90610
vt 0.12939 0.99914
vt 0.13749 0.99985
vt 0.12894 0.99985
vt 0.92651 0.61206
vt 0.95040 0.61188
vt 0.31357 0.72546
vt 0.30154 0.73405
vt 0.31013 0.73786
vt 0.57805 0.92573
vt 0.83152 0.02644
vt 0.04312 0.99976
vt 0.04216 0.99114
vt 0.05110 0.99114
vt 0.31580 0.72681
vt 0.02216 0.99879
vt 0.01323 0.99838
vt 0.01323 0.99582
vt 0.67032 0.79504
vt 0.66654 0.79379
vt 0.67120 0.79011
vt 0.00415 0.77123
vt 0.00154 0.77129
vt 0.00365 0.77017
vt 0.00452 0.77045
vt 0.21299 0.99479
vt 0.21256 0.99404
vt 0.22542 0.99463
vt 0.01030 0.69248
vt 0.05124 0.99923
vt 0.27627 0.98766
vt 0.28565 0.99696
vt 0.27627 0.99735
vt 0.02207 0.99565
vt 0.27591 0.99145
vt 0.64133 0.74886
vt 0.64409 0.78222
vt 0.66953 0.78357
vt 0.07464 0.92624
vt 0.27105 0.91610
vt 0.30449 0.91647
vt 0.85856 0.59447
vt 0.65948 0.76719
vt 0.98273 0.95008
vt 0.98311 0.95448
vt 0.98251 0.96599
vt 0.98914 0.12230
vt 0.98103 0.12230
vt 0.98907 0.12138
vt 0.22524 0.98873
vt 0.22459 0.98499
vt 0.00011 0.69108
vt 0.00011 0.66787
vt 0.00090 0.67884
vt 0.62993 0.15472
vt 0.61559 0.14401
vt 0.63094 0.14317
vt 0.60998 0.15951
vt 0.62390 0.15967
vt 0.63231 0.15953
vt 0.79846 0.98731
vt 0.79025 0.98384
vt 0.79415 0.97313
vt 0.79855 0.97275
vt 0.59215 0.15944
vt 0.58139 0.15905
vt 0.58227 0.14575
vt 0.79112 0.98727
vt 0.97698 0.39340
vt 0.97696 0.37883
vt 0.98221 0.37929
vt 0.57615 0.15894
vt 0.05811 0.54587
vt 0.05550 0.52794
vt 0.05811 0.53195
vt 0.57497 0.14588
vt 0.05852 0.55427
vt 0.05636 0.54560
vt 0.60706 0.74183
vt 0.59812 0.74224
vt 0.83063 0.01913
vt 0.05781 0.51413
vt 0.05473 0.49856
vt 0.05136 0.99190
vt 0.16659 0.83334
vt 0.18578 0.83848
vt 0.13768 0.83815
vt 0.20203 0.83297
vt 0.18441 0.83300
vt 0.79032 0.98722
vt 0.07047 0.92168
vt 0.13720 0.83290
vt 0.78910 0.98432
vt 0.05762 0.49812
vt 0.05787 0.50336
vt 0.99150 0.12247
vt 0.99738 0.12247
vt 0.99672 0.12323
vt 0.21190 0.98598
vt 0.21248 0.98502
vt 0.98260 0.39366
vt 0.98194 0.39315
vt 0.05681 0.55951
vt 0.98899 0.10640
vt 0.99635 0.10640
vt 0.99610 0.10694
vt 0.07729 0.93909
vt 0.07472 0.94049
vt 0.47207 0.93231
vt 0.45818 0.93137
vt 0.47195 0.93163
vt 0.28536 0.98813
vt 0.78014 0.98481
vt 0.78263 0.97278
vt 0.48974 0.93264
vt 0.28642 0.98749
vt 0.27525 0.98772
vt 0.57692 0.91644
vt 0.32690 0.01079
vt 0.32496 0.02076
vt 0.32388 0.02049
vt 0.99807 0.06115
vt 0.99353 0.05968
vt 0.99838 0.06007
vt 0.38885 0.73290
vt 0.39039 0.72236
vt 0.39087 0.72206
vt 0.06907 0.94466
vt 0.89807 0.50802
vt 0.87486 0.50802
vt 0.89232 0.47435
vt 0.95117 0.42556
vt 0.96144 0.43071
vt 0.95827 0.43468
vt 0.89865 0.47458
vt 0.32424 0.02147
vt 0.82080 0.02038
vt 0.09222 0.98338
vt 0.09547 0.99033
vt 0.09210 0.99438
vt 0.31213 0.02157
vt 0.77779 0.97325
vt 0.96346 0.43485
vt 0.96389 0.43555
vt 0.95354 0.41873
vt 0.95000 0.42324
vt 0.96289 0.97716
vt 0.95470 0.97716
vt 0.95476 0.97633
vt 0.93955 0.43210
vt 0.95753 0.43615
vt 0.95211 0.44198
vt 0.39951 0.73671
vt 0.61295 0.74221
vt 0.97587 0.00067
vt 0.97289 0.00247
vt 0.97305 0.00067
vt 0.80457 0.01794
vt 0.06829 0.94480
vt 0.65967 0.75739
vt 0.41550 0.71068
vt 0.95019 0.44629
vt 0.39586 0.73940
vt 0.94379 0.44367
vt 0.80938 0.01981
vt 0.17269 0.99996
vt 0.16502 0.99996
vt 0.16568 0.99953
vt 0.87610 0.48086
vt 0.88089 0.47429
vt 0.98751 0.15737
vt 0.99834 0.15974
vt 0.99216 0.16511
vt 0.08035 0.99941
vt 0.07131 0.99941
vt 0.07309 0.99908
vt 0.97569 0.00626
vt 0.99839 0.20623
vt 0.99239 0.20675
vt 0.99200 0.20578
vt 0.94095 0.43788
vt 0.66501 0.76631
vt 0.67346 0.76570
vt 0.99147 0.22423
vt 0.99165 0.22319
vt 0.99842 0.22399
vt 0.40898 0.73333
vt 0.99297 0.12353
vt 0.99326 0.12955
vt 0.99208 0.13626
vt 0.87643 0.47461
vt 0.89792 0.98915
vt 0.89792 0.99474
vt 0.88809 0.98567
vt 0.88773 0.99534
vt 0.97281 0.00974
vt 0.98408 0.12309
vt 0.80493 0.01939
vt 0.62251 0.74364
vt 0.41644 0.70483
vt 0.41136 0.67870
vt 0.41814 0.70227
vt 0.99225 0.19375
vt 0.99842 0.19484
vt 0.99147 0.19503
vt 0.41762 0.73180
vt 0.88693 0.99467
vt 0.88714 0.98576
vt 0.99380 0.15289
vt 0.84874 0.55927
vt 0.97613 0.00994
vt 0.63620 0.74685
vt 0.27482 0.00229
vt 0.28091 0.00283
vt 0.26661 0.00277
vt 0.27940 0.00172
vt 0.89820 0.98545
vt 0.96582 0.21561
vt 0.96898 0.20731
vt 0.96910 0.21503
vt 0.95477 0.20775
vt 0.83568 0.99174
vt 0.82105 0.98703
vt 0.83526 0.98705
vt 0.87060 0.57872
vt 0.87106 0.59058
vt 0.82131 0.99163
vt 0.96729 0.22578
vt 0.95456 0.22170
vt 0.45114 0.71935
vt 0.65912 0.75216
vt 0.66908 0.75707
vt 0.67356 0.75789
vt 0.86945 0.55362
vt 0.99695 0.67848
vt 0.99597 0.67866
vt 0.99621 0.66839
vt 0.98399 0.13606
vt 0.95500 0.22848
vt 0.67396 0.76516
vt 0.65492 0.74588
vt 0.43059 0.73590
vt 0.95167 0.63323
vt 0.95813 0.63239
vt 0.96601 0.63239
vt 0.99683 0.67943
vt 0.42738 0.70644
vt 0.10556 0.98976
vt 0.11441 0.98899
vt 0.10488 0.99151
vt 0.44177 0.00281
vt 0.42881 0.00281
vt 0.44134 0.00174
vt 0.95144 0.61987
vt 0.96579 0.62351
vt 0.66114 0.98011
vt 0.64684 0.98065
vt 0.63967 0.97938
vt 0.43572 0.73684
vt 0.88007 0.98505
vt 0.87676 0.99524
vt 0.87689 0.98523
vt 0.44368 0.73669
vt 0.96390 0.61296
vt 0.99666 0.93244
vt 0.99729 0.93308
vt 0.99411 0.93302
vt 0.64047 0.98068
vt 0.93263 0.99460
vt 0.92469 0.99529
vt 0.91874 0.99510
vt 0.83959 0.99412
vt 0.83823 0.98421
vt 0.83912 0.98389
vt 0.95108 0.61146
vt 0.66001 0.74068
vt 0.11504 0.98963
vt 0.11429 0.99837
vt 0.66738 0.74295
vt 0.44930 0.73648
vt 0.45639 0.73447
vt 0.10554 0.99785
vt 0.67068 0.73264
vt 0.67420 0.73606
vt 0.67420 0.73542
vt 0.99380 0.97231
vt 0.99309 0.97482
vt 0.98504 0.97189
vt 0.46017 0.72293
vt 0.66405 0.73730
vt 0.99838 0.51334
vt 0.99886 0.50791
vt 0.99855 0.51704
vt 0.98496 0.97502
vt 0.45845 0.71989
vt 0.84761 0.99539
vt 0.45114 0.71829
vt 0.46242 0.73376
vt 0.98448 0.08043
vt 0.98818 0.09327
vt 0.98448 0.09348
vt 0.41755 0.00250
vt 0.40451 0.00301
vt 0.41738 0.00154
vt 0.99291 0.08064
vt 0.00592 0.24429
vt 0.00290 0.24510
vt 0.00116 0.24440
vt 0.67200 0.73176
vt 0.84782 0.98668
vt 0.06116 0.99921
vt 0.05248 0.99997
vt 0.05209 0.99902
vt 0.99811 0.50722
vt 0.46994 0.72360
vt 0.46042 0.72150
vt 0.99848 0.56879
vt 0.99848 0.57833
vt 0.99798 0.57733
vt 0.99428 0.09275
vt 0.47111 0.73481
vt 0.40449 0.00205
vt 0.11981 0.14811
vt 0.11981 0.14811
vt 0.11981 0.14811
vt 0.11981 0.14811
vt 0.11981 0.14811
vt 0.11981 0.14811
vt 0.11981 0.14811
vt 0.11981 0.14811
vt 0.11981 0.14811
vt 0.11981 0.14811
vt 0.11981 0.14811
vt 0.11981 0.14811
vt 0.11981 0.14811
vt 0.11981 0.14811
vt 0.11981 0.14811
vt 0.11981 0.14811
vt 0.11981 0.14811
vt 0.98903 0.87933
vt 0.98903 0.87933
vt 0.98903 0.87933
vt 0.98903 0.87933
vn 0.8428 -0.0772 0.5326
vn 0.9653 -0.0730 0.2509
vn 0.8467 -0.0823 0.5257
vn 0.3089 -0.9509 0.0202
vn 0.3103 -0.9506 0.0104
vn 0.3035 -0.9516 0.0492
vn 0.8068 -0.0701 -0.5867
vn 0.8288 -0.0786 -0.5541
vn 0.8049 -0.0719 -0.5891
vn 0.3038 -0.9525 -0.0217
vn 0.8223 -0.0881 -0.5621
vn -0.1698 0.9853 0.0177
vn -0.1698 0.9853 0.0177
vn -0.1698 0.9853 0.0177
vn 0.8209 -0.0922 -0.5635
vn 0.4530 -0.8905 -0.0430
vn 0.9656 -0.0797 0.2475
vn 0.9081 -0.1170 0.4021
vn 0.9070 -0.0857 0.4122
vn 0.9653 -0.1606 0.2059
vn 0.8604 -0.0772 -0.5037
vn 0.9780 -0.0648 -0.1981
vn 0.8631 -0.0790 -0.4988
vn 0.9028 -0.1126 0.4151
vn 0.9976 -0.0328 -0.0612
vn 0.9980 -0.0603 -0.0168
vn 0.9976 -0.0625 -0.0288
vn 0.9965 -0.0632 0.0539
vn 0.5918 -0.7694 -0.2403
vn 0.9960 -0.0655 0.0608
vn -0.9739 0.2203 0.0551
vn -0.9739 0.2203 0.0551
vn -0.9739 0.2203 0.0551
vn 0.9529 -0.0506 -0.2992
vn 0.9832 -0.1811 0.0241
vn 0.9832 -0.1811 0.0241
vn 0.9832 -0.1811 0.0241
vn 0.6061 -0.7499 -0.2651
vn 0.9975 -0.0668 0.0224
vn 0.9949 -0.0914 0.0424
vn 0.9711 -0.1783 0.1585
vn 0.7192 0.0640 0.6918
vn 0.5904 0.0305 0.8065
vn 0.5803 -0.0249 0.8140
vn 0.9977 -0.0609 -0.0281
vn 0.5168 -0.0537 0.8544
vn 0.4918 -0.0552 0.8689
vn 0.6913 -0.0982 0.7159
vn 0.6913 -0.0982 0.7159
vn 0.6913 -0.0982 0.7159
vn 0.0549 0.1870 -0.9808
vn 0.0549 0.1870 -0.9808
vn 0.0549 0.1870 -0.9808
vn 0.9963 -0.0732 0.0457
vn 0.9986 -0.0518 -0.0071
vn -0.0102 -0.0763 0.9970
vn -0.0091 -0.0866 0.9962
vn 0.8969 -0.1081 0.4288
vn 0.2884 -0.9575 0.0023
vn 0.2884 -0.9575 0.0023
vn 0.2884 -0.9575 0.0023
vn 0.0162 -0.9399 -0.3412
vn 0.0162 -0.9399 -0.3412
vn 0.0162 -0.9399 -0.3412
vn 0.9760 -0.0477 -0.2123
vn 0.9595 -0.0605 -0.2750
vn 0.9565 -0.0438 -0.2884
vn 0.7883 -0.1029 0.6066
vn 0.7883 -0.1029 0.6066
vn 0.7883 -0.1029 0.6066
vn 0.9962 -0.0798 0.0340
vn 0.9993 -0.0362 -0.0012
vn 0.9981 -0.0531 -0.0322
vn 0.8438 -0.5364 0.0154
vn 0.7070 -0.7035 -0.0725
vn 0.8650 -0.5010 -0.0286
vn 0.0924 -0.0076 0.9957
vn 0.9400 -0.3375 0.0497
vn 0.7931 -0.6050 0.0701
vn 0.5592 -0.8278 0.0462
vn 0.8011 -0.5985 0.0048
vn 0.8303 -0.5574 -0.0016
vn 0.4775 -0.8768 0.0572
vn -0.0065 -1.0000 -0.0029
vn -0.0732 -0.9971 -0.0206
vn -0.0343 -0.9994 -0.0064
vn 0.9973 -0.0541 0.0505
vn 0.9968 -0.0583 0.0544
vn 0.0093 -0.5815 -0.8135
vn 0.0093 -0.5815 -0.8135
vn 0.0093 -0.5815 -0.8135
vn 0.9970 -0.0561 0.0541
vn 0.9777 -0.0522 -0.2034
vn 0.9777 -0.0522 -0.2034
vn 0.0101 -0.1951 0.9807
vn -0.3141 -0.1489 0.9377
vn 0.0196 -0.1919 0.9812
vn 0.0141 -0.1857 0.9825
vn 0.0038 -0.0525 -0.9986
vn 0.0147 -0.0574 -0.9982
vn 0.0138 -0.0571 -0.9983
vn 0.7130 -0.0549 -0.6990
vn 0.7130 -0.0549 -0.6990
vn 0.7130 -0.0549 -0.6990
vn -0.0064 -0.9904 0.1382
vn -0.0023 -0.9931 0.1168
vn -0.2102 -0.9608 0.1810
vn -0.3575 -0.0662 0.9316
vn -0.0009 -0.0862 0.9963
vn -0.0925 -0.9951 -0.0360
vn -0.0247 -0.9994 0.0247
vn 0.0044 -0.0536 -0.9986
vn -0.0002 -0.0503 -0.9987
vn -0.0059 -0.0911 0.9958
vn 0.0114 -0.0560 -0.9984
vn -0.0016 -0.0622 -0.9981
vn 0.0059 -0.0586 -0.9983
vn -0.2125 -0.1818 0.9601
vn 0.0031 -0.1992 0.9800
vn 0.0010 -0.1118 0.9937
vn -0.1706 -0.0877 0.9814
vn -0.0069 -0.0647 -0.9979
vn -0.2295 -0.9521 0.2019
vn -0.0699 -0.9971 -0.0302
vn -0.6694 -0.0429 0.7417
vn -0.4814 -0.0630 0.8742
vn -0.6411 -0.0098 -0.7674
vn -0.7254 -0.0196 -0.6881
vn -0.6100 -0.0744 0.7889
vn -0.1964 -0.9762 0.0924
vn -0.3947 -0.1502 0.9064
vn -0.5885 -0.3828 0.7121
vn -0.8259 -0.0041 -0.5638
vn -0.6495 -0.0166 -0.7602
vn -0.6447 -0.0192 -0.7642
vn -0.6552 -0.0684 0.7524
vn -0.9986 0.0362 0.0395
vn -0.9994 0.0333 0.0135
vn -0.9732 0.0321 0.2278
vn -0.6504 -0.0098 -0.7596
vn -0.2265 -0.9740 0.0060
vn -0.9872 0.0262 0.1572
vn -0.9896 0.0367 0.1388
vn -0.9520 0.0310 0.3047
vn -0.2649 -0.9625 0.0590
vn -0.6599 -0.7491 0.0589
vn -0.4472 -0.8940 0.0284
vn -0.9768 0.0310 0.2119
vn -0.1591 -0.9864 -0.0418
vn -0.1589 -0.9860 -0.0510
vn -0.8026 -0.0032 -0.5964
vn -0.9842 0.0361 -0.1733
vn -0.9521 0.0205 0.3052
vn -0.8414 0.0339 0.5393
vn -0.1588 -0.9865 -0.0399
vn -0.2405 -0.9704 0.0222
vn -0.2202 -0.9737 0.0586
vn -0.9141 -0.0326 -0.4042
vn -0.9594 0.0127 -0.2818
vn -0.7657 -0.6134 -0.1934
vn -0.7360 -0.6713 -0.0877
vn -0.7176 -0.6955 -0.0363
vn -0.6794 -0.7318 0.0538
vn -0.9123 -0.0579 -0.4055
vn -0.3013 -0.9530 -0.0307
vn -0.2073 -0.9766 0.0580
vn -0.1688 -0.9855 -0.0181
vn -0.6728 -0.0111 -0.7397
vn -0.7359 -0.6556 0.1695
vn -0.7359 -0.6556 0.1695
vn -0.7359 -0.6556 0.1695
vn -0.9685 0.0347 0.2468
vn 0.8081 -0.0866 0.5827
vn 0.9659 -0.1050 0.2367
vn 0.9777 -0.0522 -0.2034
vn 0.9694 -0.0562 -0.2389
vn 0.9727 -0.0755 -0.2195
vn 0.9674 -0.0460 -0.2491
vn 0.5502 -0.0347 0.8343
vn 0.4960 -0.0430 0.8672
vn 0.4303 -0.0748 0.8996
vn 0.1517 0.0577 0.9867
vn 0.2418 0.0843 0.9667
vn 0.2479 0.0632 0.9667
vn 0.8897 -0.0746 -0.4503
vn 0.8897 -0.0745 -0.4504
vn 0.8937 -0.0691 -0.4433
vn 0.4051 -0.0569 0.9125
vn 0.2307 -0.9721 -0.0423
vn 0.4562 -0.8886 -0.0480
vn 0.4239 -0.9044 -0.0486
vn 0.9744 -0.0877 -0.2071
vn 0.8944 -0.0686 -0.4419
vn 0.8963 -0.0665 -0.4384
vn 0.1653 0.0542 0.9848
vn 0.1792 0.0489 0.9826
vn 0.8894 -0.0734 -0.4512
vn 0.8840 -0.0806 -0.4604
vn 0.2479 0.0779 0.9656
vn 0.2197 0.1063 0.9698
vn 0.9697 -0.0448 -0.2403
vn 0.9697 -0.0448 -0.2403
vn 0.9697 -0.0448 -0.2403
vn 0.9304 -0.1774 -0.3207
vn 0.8907 -0.1604 -0.4254
vn 0.8982 -0.1835 -0.3994
vn 0.0670 -0.9670 0.2458
vn 0.0182 -0.9674 0.2527
vn 0.0590 -0.9641 0.2590
vn 0.6366 -0.1435 0.7578
vn 0.5211 -0.1539 0.8395
vn 0.9950 -0.0619 0.0785
vn 0.9922 -0.0594 0.1096
vn 0.9814 -0.0533 0.1843
vn 0.9977 -0.0665 0.0162
vn 0.0931 -0.9926 -0.0777
vn 0.1195 -0.9897 -0.0783
vn 0.1409 -0.9411 0.3074
vn -0.0222 -0.2057 -0.9784
vn -0.0222 -0.2057 -0.9784
vn -0.0222 -0.2057 -0.9784
vn 0.1100 0.0396 0.9931
vn 0.6638 -0.1331 0.7359
vn 0.9469 -0.2482 -0.2045
vn 0.9519 -0.1598 -0.2616
vn 0.1054 0.8924 0.4387
vn 0.3208 0.9149 0.2451
vn 0.1176 0.8845 0.4515
vn 0.8740 0.4739 -0.1070
vn 0.8330 0.5445 -0.0979
vn 0.8480 0.5203 -0.1012
vn 0.6870 -0.5686 0.4525
vn 0.6870 -0.5686 0.4525
vn 0.6870 -0.5686 0.4525
vn 0.8761 0.4701 -0.1074
vn 0.9199 -0.2473 -0.3044
vn 0.9199 -0.2473 -0.3044
vn 0.9199 -0.2473 -0.3044
vn 0.9984 0.0059 0.0567
vn 0.9618 -0.0895 0.2586
vn 0.9756 -0.0210 0.2183
vn 0.9034 -0.1624 -0.3969
vn 0.9966 -0.0665 -0.0477
vn 0.9973 -0.0563 -0.0477
vn 0.9955 -0.0723 -0.0621
vn 0.9897 0.0680 0.1259
vn 0.9136 0.1286 0.3857
vn 0.9965 -0.0294 -0.0781
vn 0.9946 -0.0437 -0.0938
vn 0.6995 0.2199 0.6799
vn 0.9893 -0.0914 -0.1141
vn 0.7446 0.2168 0.6313
vn 0.7446 0.2168 0.6313
vn 0.7446 0.2168 0.6313
vn 0.0349 -0.9589 0.2816
vn 0.9976 -0.0538 -0.0445
vn -0.1874 0.9815 -0.0391
vn -0.1674 0.9837 -0.0661
vn -0.2044 0.9700 -0.1318
vn 0.8878 -0.1134 -0.4461
vn 0.9952 -0.0618 -0.0753
vn 0.9957 -0.0691 -0.0616
vn 0.9878 -0.1086 -0.1114
vn 0.3310 0.0355 0.9430
vn 0.4351 0.0438 0.8993
vn 0.4845 0.0271 0.8744
vn 0.3592 0.0674 0.9308
vn 0.0082 -0.9945 -0.1043
vn 0.9952 -0.0568 -0.0801
vn 0.9017 -0.1650 -0.3996
vn 0.0471 -0.9546 0.2942
vn 0.8587 -0.1694 -0.4836
vn 0.8884 -0.1477 -0.4347
vn 0.8803 -0.1436 -0.4522
vn 0.0451 -0.9532 0.2990
vn -0.0872 0.9950 -0.0479
vn 0.9011 -0.1334 -0.4126
vn 0.8558 -0.0071 0.5172
vn 0.8504 0.0012 0.5261
vn 0.8532 -0.0030 0.5216
vn 0.4344 -0.8333 0.3418
vn 0.3876 -0.8420 0.3752
vn 0.5250 -0.7291 0.4391
vn 0.8807 -0.1350 -0.4540
vn 0.3277 0.0357 0.9441
vn 0.2311 -0.0888 -0.9689
vn 0.4588 -0.1208 -0.8803
vn 0.2881 -0.1191 -0.9502
vn 0.8477 0.0053 0.5305
vn 0.7998 -0.1089 -0.5904
vn 0.8349 -0.1415 -0.5319
vn 0.8615 -0.1180 -0.4938
vn 0.8606 -0.1177 -0.4955
vn 0.0031 0.0407 0.9992
vn 0.0070 0.0396 0.9992
vn 0.0080 0.0386 0.9992
vn -0.0974 -0.9951 0.0145
vn 0.0128 0.0534 0.9985
vn 0.0077 0.0507 0.9987
vn 0.0008 0.0447 0.9990
vn -0.0944 0.9954 -0.0190
vn 0.7444 -0.5751 -0.3394
vn 0.7444 -0.5751 -0.3394
vn 0.7444 -0.5751 -0.3394
vn 0.1579 -0.9375 0.3100
vn 0.0008 0.0420 0.9991
vn 0.0827 -0.0778 -0.9935
vn 0.8466 -0.1276 -0.5168
vn -0.1795 0.9704 0.1616
vn 0.2881 -0.9097 0.2989
vn 0.0020 -0.0406 -0.9992
vn 0.0019 -0.0411 -0.9992
vn 0.0108 -0.0956 -0.9954
vn 0.6092 -0.1180 -0.7842
vn -0.1209 0.9762 0.1799
vn 0.0083 -0.9638 0.2666
vn -0.0210 -0.1661 -0.9859
vn -0.0005 -0.1304 -0.9915
vn 0.0045 -0.1298 -0.9915
vn -0.0211 -0.2275 -0.9735
vn -0.0025 -0.1386 -0.9903
vn 0.0010 -0.0738 -0.9973
vn 0.1235 0.9918 0.0333
vn -0.0017 -0.0560 0.9984
vn -0.1955 0.0300 0.9802
vn -0.2019 0.1244 0.9715
vn -0.2742 -0.0287 -0.9612
vn -0.3167 -0.0172 -0.9484
vn 0.0943 0.9938 0.0581
vn 0.0123 -0.1170 -0.9931
vn 0.0026 -0.3505 0.9366
vn -0.0015 -0.4828 -0.8757
vn 0.0028 -0.0409 -0.9992
vn -0.0018 -0.1083 -0.9941
vn -0.0075 -0.1054 -0.9944
vn 0.0183 -0.9682 0.2493
vn -0.0126 0.3121 0.9500
vn -0.1494 -0.9879 0.0411
vn -0.4927 -0.0074 -0.8702
vn -0.0231 0.2957 0.9550
vn -0.2195 -0.9601 0.1732
vn -0.4594 -0.0274 -0.8878
vn -0.8348 0.2058 0.5107
vn -0.8348 0.2058 0.5107
vn -0.8348 0.2058 0.5107
vn -0.0068 0.7318 -0.6814
vn -0.1643 0.7803 -0.6034
vn -0.1357 0.7734 -0.6193
vn -0.4227 0.0854 0.9022
vn 0.0027 -0.9635 0.2678
vn -0.4236 0.0944 0.9009
vn -0.3498 0.9338 0.0747
vn 0.2884 -0.9557 -0.0585
vn 0.2884 -0.9557 -0.0585
vn 0.2884 -0.9557 -0.0585
vn 0.2226 0.9745 0.0299
vn -0.9899 -0.0005 0.1417
vn -0.9905 0.0032 0.1376
vn -0.9898 -0.0010 0.1422
vn -0.9952 0.0248 0.0944
vn -0.9994 0.0357 -0.0014
vn -0.9885 0.0164 0.1501
vn -0.6225 -0.6488 -0.4377
vn -0.6225 -0.6488 -0.4377
vn -0.6225 -0.6488 -0.4377
vn -0.2096 -0.9564 0.2032
vn -0.9875 0.0246 0.1558
vn -0.9881 0.0227 0.1524
vn -0.7294 -0.6542 0.1998
vn -0.7294 -0.6542 0.1998
vn -0.7294 -0.6542 0.1998
vn -0.7572 -0.0458 -0.6515
vn -0.8011 -0.0535 -0.5961
vn -0.7363 -0.0559 -0.6743
vn 0.2224 0.9736 0.0513
vn 0.3327 0.4577 0.8245
vn 0.3327 0.4577 0.8245
vn 0.3327 0.4577 0.8245
vn -0.5339 -0.7700 0.3493
vn -0.5564 -0.7303 0.3964
vn -0.5154 -0.7979 0.3127
vn -0.9850 0.0078 0.1724
vn -0.9991 0.0266 0.0326
vn -0.9651 0.2607 0.0267
vn -0.9258 0.1467 0.3484
vn -0.8423 0.0858 0.5322
vn -0.2850 0.8004 -0.5274
vn -0.5001 -0.8182 0.2836
vn -0.9621 0.0468 0.2686
vn -0.9877 0.0168 0.1555
vn -0.8234 -0.5055 -0.2577
vn -0.8234 -0.5055 -0.2577
vn -0.8234 -0.5055 -0.2577
vn -0.9894 -0.0040 0.1455
vn -0.9876 0.0174 0.1559
vn -0.9868 0.0213 0.1607
vn -0.8058 -0.1049 -0.5828
vn -0.8133 -0.0762 -0.5769
vn -0.6537 -0.0729 -0.7532
vn -0.6537 -0.0729 -0.7532
vn -0.6537 -0.0729 -0.7532
vn -0.7912 -0.1281 -0.5980
vn -0.0002 0.1132 0.9936
vn -0.1129 0.1070 0.9878
vn -0.0076 0.1113 0.9938
vn -0.4072 0.0920 0.9087
vn -0.3376 0.0852 0.9374
vn -0.4026 0.0915 0.9108
vn 0.0175 -0.0072 -0.9998
vn 0.0175 -0.0072 -0.9998
vn 0.0175 -0.0072 -0.9998
vn -0.0686 0.0361 0.9970
vn -0.3086 0.0905 0.9469
vn -0.4307 0.1229 0.8941
vn -0.9700 0.2368 0.0554
vn -0.9314 0.3133 -0.1853
vn -0.2908 0.0804 0.9534
vn 0.1517 0.1940 0.9692
vn 0.1517 0.1940 0.9692
vn 0.1517 0.1940 0.9692
vn -0.5201 -0.8497 0.0867
vn -0.4656 -0.8761 0.1251
vn -0.4611 -0.8795 0.1176
vn -0.7286 -0.0426 -0.6837
vn 0.0003 0.1353 0.9908
vn -0.1430 0.1111 0.9835
vn -0.0113 0.0408 0.9991
vn -0.1832 0.0558 0.9815
vn -0.1939 0.0570 0.9794
vn 0.0230 0.0325 0.9992
vn -0.7131 -0.0015 -0.7010
vn -0.6948 0.1086 -0.7110
vn -0.6227 0.3487 -0.7004
vn -0.0300 0.0180 0.9994
vn -0.8399 0.0734 0.5378
vn -0.8638 0.0611 0.5002
vn -0.8622 0.0619 0.5028
vn -0.7135 -0.0128 -0.7005
vn -0.8383 0.0742 0.5401
vn -0.4722 -0.8724 0.1260
vn -0.4380 0.8797 0.1849
vn -0.4380 0.8797 0.1849
vn -0.4380 0.8797 0.1849
vn -0.7579 0.0335 0.6515
vn -0.7769 0.0412 0.6282
vn -0.7651 0.0350 0.6429
vn -0.7133 -0.0128 -0.7007
vn -0.8804 0.0480 0.4718
vn -0.8848 0.0482 0.4635
vn -0.4262 -0.8905 0.1595
vn 0.9850 0.0292 -0.1701
vn 0.9983 -0.0196 -0.0545
vn 0.9995 -0.0052 -0.0307
vn 0.9222 -0.3296 -0.2022
vn 0.9818 -0.1882 -0.0271
vn 0.9506 0.1463 -0.2739
vn 0.8571 0.5142 -0.0305
vn 0.8571 0.5142 -0.0305
vn 0.8571 0.5142 -0.0305
vn 0.8632 -0.5048 -0.0095
vn 0.9112 -0.4089 -0.0500
vn 0.1765 0.9688 0.1739
vn 0.1192 0.9709 0.2078
vn 0.2398 0.9706 0.0208
vn 0.1708 -0.1407 0.9752
vn 0.1859 -0.1138 0.9760
vn 0.2376 -0.0736 0.9686
vn 0.9500 0.1263 -0.2857
vn 0.9445 0.1227 -0.3046
vn 0.7075 -0.6799 -0.1928
vn 0.2234 0.9747 0.0093
vn 0.9722 -0.0868 -0.2174
vn 0.9955 -0.0569 -0.0757
vn 0.9941 -0.0676 -0.0851
vn 0.9712 -0.0020 0.2383
vn 0.9712 -0.0020 0.2383
vn 0.9712 -0.0020 0.2383
vn 0.9478 0.0082 -0.3188
vn 0.9579 0.0168 -0.2867
vn 0.9488 0.0209 -0.3153
vn 0.7092 -0.6781 -0.1930
vn 0.2016 0.9780 -0.0539
vn 0.7253 0.4141 -0.5499
vn 0.7253 0.4141 -0.5499
vn 0.7253 0.4141 -0.5499
vn 0.1852 -0.3389 0.9224
vn 0.1210 -0.9920 -0.0363
vn -0.1158 -0.9933 0.0001
vn -0.0083 -1.0000 -0.0020
vn -0.1948 0.9680 0.1584
vn 0.0019 0.0422 0.9991
vn 0.0016 0.0419 0.9991
vn -0.0008 0.0442 0.9990
vn 0.9311 -0.1012 -0.3505
vn 0.9345 -0.0975 -0.3423
vn 0.3923 0.0307 0.9193
vn 0.3693 0.0225 0.9291
vn 0.3707 0.0226 0.9285
vn 0.9549 -0.1071 -0.2769
vn 0.9257 -0.1264 -0.3564
vn 0.9388 -0.1093 -0.3266
vn 0.4204 0.9007 -0.1095
vn 0.3699 0.9255 -0.0811
vn 0.4423 0.8885 -0.1222
vn 0.9526 0.1147 -0.2817
vn 0.9402 -0.1123 -0.3216
vn 0.2080 0.9781 -0.0115
vn 0.1964 0.9763 0.0911
vn 0.2162 0.9733 -0.0775
vn 0.1175 0.9324 0.3419
vn 0.8603 -0.1104 -0.4976
vn 0.8568 -0.1171 -0.5022
vn 0.8584 -0.1142 -0.5002
vn 0.3926 0.0306 0.9192
vn 0.8807 0.4373 0.1822
vn 0.8807 0.4373 0.1822
vn 0.8807 0.4373 0.1822
vn 0.3497 0.9337 -0.0766
vn 0.9552 -0.0741 -0.2867
vn 0.9594 0.1224 -0.2541
vn -0.7163 0.6660 0.2083
vn -0.7163 0.6660 0.2083
vn -0.7163 0.6660 0.2083
vn 0.2958 0.0724 0.9525
vn 0.8541 -0.1170 -0.5068
vn 0.1994 0.9771 -0.0744
vn 0.4939 0.0189 0.8693
vn 0.5020 0.0156 0.8647
vn 0.5547 -0.0013 0.8320
vn 0.6072 0.0104 0.7945
vn 0.0978 0.8769 0.4707
vn 0.9301 -0.1009 -0.3531
vn 0.9445 0.0194 -0.3281
vn -0.0050 0.0567 0.9984
vn -0.0013 0.0579 0.9983
vn 0.2351 -0.9701 0.0600
vn 0.2351 -0.9701 0.0600
vn 0.2351 -0.9701 0.0600
vn 0.3457 0.9353 -0.0760
vn 0.4997 0.0006 0.8662
vn 0.9258 -0.1151 -0.3602
vn 0.9256 -0.1156 -0.3604
vn 0.9251 -0.1175 -0.3610
vn 0.5929 0.0048 0.8053
vn 0.6167 0.0124 0.7871
vn 0.9673 0.1382 -0.2128
vn 0.9786 0.0106 -0.2057
vn 0.9364 0.0358 -0.3492
vn 0.9261 -0.1137 -0.3597
vn 0.0831 0.9950 -0.0555
vn 0.0093 0.9955 -0.0941
vn 0.0306 0.9943 -0.1024
vn 0.9346 0.0283 -0.3545
vn 0.0439 0.9970 -0.0633
vn 0.9059 0.0079 -0.4235
vn 0.7931 -0.0271 -0.6085
vn 0.8544 -0.1076 -0.5083
vn 0.8481 -0.1040 -0.5195
vn 0.7709 0.2174 0.5988
vn 0.7709 0.2174 0.5988
vn 0.7709 0.2174 0.5988
vn 0.0122 -0.9999 -0.0105
vn 0.8370 0.0160 -0.5470
vn 0.0018 0.0750 0.9972
vn 0.8343 -0.0981 -0.5426
vn 0.9583 0.0449 -0.2823
vn 0.4850 0.0089 -0.8745
vn 0.9429 0.2243 -0.2464
vn -0.0136 -0.1074 -0.9941
vn -0.0075 -0.1057 -0.9944
vn -0.0218 -0.1343 -0.9907
vn 0.2119 0.0044 0.9773
vn 0.2057 0.0059 0.9786
vn 0.2221 0.0063 0.9750
vn 0.9490 -0.1107 -0.2951
vn -0.0324 0.9960 0.0827
vn -0.1797 0.0209 -0.9835
vn -0.1778 0.0172 -0.9839
vn -0.1752 0.0159 -0.9844
vn 0.0062 -0.1818 -0.9833
vn -0.0215 -0.1408 -0.9898
vn 0.0150 -0.9999 0.0061
vn 0.0181 -0.9998 -0.0127
vn 0.0153 -0.9999 -0.0047
vn -0.0282 0.8959 -0.4435
vn -0.0501 0.9002 -0.4326
vn -0.0778 0.9015 -0.4256
vn 0.1839 -0.0096 0.9829
vn 0.9830 0.0020 -0.1837
vn 0.8133 0.5603 -0.1566
vn 0.8133 0.5603 -0.1566
vn 0.8133 0.5603 -0.1566
vn 0.9809 0.0362 -0.1910
vn 0.1704 -0.5761 0.7994
vn 0.2006 -0.1452 0.9688
vn 0.1423 0.5826 0.8002
vn 0.1423 0.5826 0.8002
vn 0.1423 0.5826 0.8002
vn -0.1788 0.0206 -0.9837
vn -0.1837 0.0257 -0.9827
vn 0.9733 -0.0018 -0.2293
vn 0.9821 0.0082 -0.1884
vn 0.9780 -0.0050 -0.2087
vn 0.2224 -0.1061 0.9692
vn 0.0346 0.9924 0.1182
vn -0.0165 0.9993 -0.0341
vn -0.0023 0.9984 -0.0567
vn 0.0217 0.9990 -0.0398
vn 0.9677 -0.0059 -0.2522
vn -0.2122 0.3318 -0.9192
vn -0.2490 0.2341 -0.9398
vn -0.2396 0.2600 -0.9354
vn 0.0199 -0.9903 0.1374
vn 0.0182 -0.9985 0.0522
vn 0.0244 -0.9990 0.0383
vn 0.6469 -0.5767 -0.4989
vn 0.7458 -0.5701 -0.3445
vn 0.6680 -0.5770 -0.4700
vn 0.4845 -0.5559 -0.6754
vn 0.2512 0.1565 -0.9552
vn -0.0479 0.1552 -0.9867
vn -0.1637 0.2044 -0.9651
vn -0.0244 0.9952 -0.0952
vn -0.0275 0.9996 -0.0099
vn -0.0823 0.9839 -0.1586
vn 0.0148 0.9891 0.1464
vn 0.0286 0.9930 0.1148
vn -0.2036 0.3534 -0.9131
vn -0.0255 0.9960 -0.0860
vn -0.0062 -0.9999 0.0124
vn 0.0125 -0.9999 0.0062
vn 0.0194 -0.9998 0.0070
vn -0.0592 0.9964 0.0605
vn 0.2064 0.0091 0.9784
vn 0.1868 -0.0061 0.9824
vn -0.0901 0.8974 -0.4318
vn -0.0179 -0.9998 -0.0021
vn -0.8058 -0.5430 0.2362
vn -0.8058 -0.5430 0.2362
vn -0.8058 -0.5430 0.2362
vn -0.1433 -0.7407 -0.6563
vn -0.1433 -0.7407 -0.6563
vn -0.1433 -0.7407 -0.6563
vn -0.1536 0.2153 -0.9644
vn -0.1831 0.1897 -0.9646
vn -0.0090 -0.6532 -0.7571
vn -0.0090 -0.6532 -0.7571
vn -0.0090 -0.6532 -0.7571
vn -0.9931 0.0397 0.1102
vn -0.9988 0.0350 0.0353
vn -0.9990 0.0331 0.0314
vn -0.9884 0.0319 0.1482
vn -0.9775 0.0280 0.2091
vn -0.9835 0.0531 0.1727
vn -0.9545 -0.0007 0.2982
vn -0.9856 0.0220 0.1678
vn -0.9543 -0.0213 0.2981
vn -0.9431 -0.0227 0.3316
vn -0.9989 0.0250 0.0400
vn -0.9993 0.0302 0.0209
vn -0.9991 0.0278 0.0319
vn -0.9882 0.0759 0.1329
vn -0.1881 0.0100 -0.9821
vn -0.1354 -0.0042 -0.9908
vn -0.1493 0.0007 -0.9888
vn -0.9987 0.0468 0.0217
vn -0.0229 0.0703 0.9973
vn -0.3564 0.1144 0.9273
vn -0.3328 0.0980 0.9379
vn -0.9991 0.0289 0.0321
vn -0.0930 0.1003 0.9906
vn -0.0135 0.0663 0.9977
vn -0.0097 -0.9999 0.0040
vn -0.0098 -0.9999 0.0054
vn -0.1132 0.9762 0.1849
vn -0.1121 0.0998 0.9887
vn -0.2420 0.1223 0.9625
vn 0.2121 0.9748 -0.0696
vn -0.7168 -0.0621 -0.6945
vn -0.7548 -0.0492 -0.6541
vn -0.6888 -0.0618 -0.7223
vn -0.7579 -0.0531 -0.6502
vn -0.7589 -0.0456 -0.6496
vn -0.9864 0.1240 -0.1077
vn -0.0885 0.9935 0.0716
vn -0.6858 -0.0615 -0.7252
vn -0.9637 0.1208 -0.2383
vn -0.2437 0.1236 0.9619
vn -0.2443 0.1240 0.9617
vn -0.1342 -0.7839 -0.6062
vn -0.1342 -0.7839 -0.6062
vn -0.1342 -0.7839 -0.6062
vn -0.2546 -0.2862 -0.9237
vn -0.2646 0.0236 -0.9641
vn -0.1978 -0.0532 -0.9788
vn -0.2001 -0.0238 -0.9795
vn -0.0992 0.1017 0.9899
vn 0.1052 0.7161 0.6900
vn 0.1052 0.7161 0.6900
vn 0.1052 0.7161 0.6900
vn 0.1309 0.9914 -0.0064
vn -0.0111 0.9996 0.0268
vn -0.8414 0.0669 0.5363
vn -0.8403 0.0741 0.5371
vn -0.8411 0.0686 0.5365
vn -0.1853 0.9566 0.2248
vn -0.9613 -0.0375 0.2729
vn -0.9639 -0.0348 0.2640
vn -0.8422 0.0615 0.5357
vn -0.3006 0.9194 0.2536
vn -0.1699 0.8537 -0.4923
vn 0.2008 -0.1371 0.9700
vn -0.8324 0.4717 0.2908
vn -0.8643 0.4899 0.1139
vn -0.9360 0.3363 -0.1038
vn -0.5063 -0.8608 0.0514
vn -0.5063 -0.8608 0.0514
vn -0.5063 -0.8608 0.0514
vn -0.9330 0.0985 0.3461
vn -0.6691 0.0362 0.7423
vn -0.8510 0.0761 0.5196
vn -0.3914 0.9095 0.1402
vn -0.9447 0.0019 0.3280
vn -0.9458 0.0079 0.3248
vn -0.9310 -0.0020 0.3650
vn 0.9794 0.0118 -0.2017
vn 0.9842 0.0237 -0.1756
vn 0.9415 -0.2972 -0.1589
vn -0.9133 -0.0132 0.4071
vn -0.9144 0.2894 -0.2832
vn -0.2627 0.9585 0.1106
vn -0.0821 0.9931 -0.0837
vn -0.0821 0.9931 -0.0837
vn -0.0821 0.9931 -0.0837
vn -0.9175 0.0911 -0.3872
vn -0.9657 -0.0410 0.2565
vn 0.6211 -0.7760 -0.1099
vn 0.6467 -0.7548 -0.1095
vn 0.9796 0.0008 -0.2009
vn 0.9802 -0.0101 -0.1975
vn 0.5913 0.7977 -0.1189
vn 0.5913 0.7977 -0.1189
vn 0.5913 0.7977 -0.1189
vn 0.9655 0.0017 -0.2602
vn 0.8587 -0.4768 -0.1879
vn 0.8914 -0.3765 -0.2522
vn -0.9394 0.0982 0.3284
vn -0.0097 -0.9999 0.0032
vn -0.2135 0.1597 -0.9638
vn -0.2309 0.1697 -0.9581
vn -0.1023 0.2222 -0.9696
vn -0.2861 0.9411 0.1800
vn -0.5235 0.8328 0.1800
vn -0.0166 -0.9998 -0.0111
vn -0.9307 0.1512 0.3331
vn 0.6683 -0.7215 -0.1809
vn -0.9374 0.1057 0.3320
vn 0.9363 -0.0301 -0.3498
vn -0.1172 0.9918 0.0511
vn 0.3552 -0.5651 -0.7447
vn 0.3552 -0.5651 -0.7447
vn 0.3552 -0.5651 -0.7447
vn -0.9361 0.0171 0.3514
vn -0.9363 0.0044 0.3511
vn -0.0096 0.9995 -0.0301
vn -0.0077 0.9994 -0.0336
vn 0.0088 0.9980 -0.0622
vn 0.1681 0.8600 0.4817
vn 0.1681 0.8600 0.4817
vn 0.1681 0.8600 0.4817
vn -0.3147 0.1711 -0.9336
vn 0.4969 0.1340 -0.8574
vn 0.4969 0.1340 -0.8574
vn 0.4969 0.1340 -0.8574
vn 0.9444 -0.0337 -0.3271
vn -0.0464 -0.9989 0.0110
vn -0.0523 -0.9918 -0.1170
vn 0.3802 0.0257 -0.9245
vn 0.3802 0.0257 -0.9245
vn 0.3802 0.0257 -0.9245
vn -0.9448 0.0876 0.3156
vn -0.2772 0.1430 -0.9501
vn -0.1383 0.1342 -0.9813
vn -0.2840 0.1397 -0.9486
vn -0.9175 0.0393 0.3959
vn 0.0180 0.9862 0.1645
vn 0.0668 0.9888 0.1338
vn 0.0041 0.9999 0.0103
vn 0.0128 0.9994 -0.0326
vn -0.3320 0.1748 -0.9270
vn -0.2909 0.1415 -0.9463
vn -0.3304 0.9180 0.2195
vn -0.0092 -1.0000 0.0020
vn -0.9734 0.1925 0.1239
vn -0.9745 -0.0067 -0.2244
vn -0.9954 0.0899 -0.0322
vn -0.0046 0.0569 0.9984
vn -0.0046 0.0569 0.9984
vn -0.0046 0.0569 0.9984
vn -0.9393 0.0773 0.3343
vn -0.0734 0.9407 -0.3311
vn -0.0358 0.9861 -0.1623
vn -0.0276 0.9996 0.0011
vn -0.0910 0.9038 -0.4182
vn -0.3424 0.1622 -0.9255
vn -0.0485 -0.9969 0.0626
vn -0.2123 0.5926 -0.7770
vn -0.1659 0.7164 -0.6777
vn -0.2158 0.5817 -0.7843
vn -0.1578 0.7350 -0.6594
vn -0.0595 0.9742 0.2179
vn -0.9590 0.0565 0.2777
vn -0.9724 0.0234 0.2322
vn -0.9745 0.0729 0.2122
vn -0.9670 -0.0101 0.2547
vn -0.2487 0.0055 -0.9686
vn -0.1949 -0.0126 -0.9807
vn -0.2673 0.0118 -0.9635
vn -0.0939 0.8936 -0.4390
vn -0.0750 0.8774 -0.4739
vn -0.1760 -0.0189 -0.9842
vn -0.9636 -0.0308 0.2655
vn -0.9683 -0.0733 0.2386
vn -0.9027 0.2636 0.3399
vn 0.0240 -0.9997 -0.0075
vn 0.0083 -0.9999 0.0062
vn -0.0497 -0.9973 -0.0545
vn -0.1146 0.9022 -0.4158
vn -0.6846 0.7045 0.1872
vn -0.6837 0.7026 0.1972
vn -0.6669 0.6748 0.3161
vn -0.2967 0.1377 -0.9450
vn -0.9650 -0.0683 0.2532
vn -0.1251 -0.9139 -0.3863
vn -0.0091 -0.9998 -0.0152
vn -0.9480 -0.0232 0.3173
vn 0.9777 -0.0126 -0.2097
vn 0.9751 -0.0077 -0.2214
vn 0.9694 -0.0123 -0.2453
vn -0.6893 0.7244 0.0122
vn -0.9126 0.2479 0.3252
vn 0.4701 0.8763 -0.1050
vn -0.0207 0.9853 -0.1694
vn 0.1610 0.9832 -0.0858
vn -0.8684 0.0913 -0.4874
vn -0.8684 0.0913 -0.4874
vn -0.8684 0.0913 -0.4874
vn 0.9651 -0.0023 -0.2620
vn 0.9719 0.0101 -0.2351
vn 0.1682 -0.7532 0.6359
vn 0.1683 -0.7509 0.6386
vn 0.1690 -0.7176 0.6756
vn -0.9546 -0.0821 0.2864
vn -0.8622 0.4864 0.1413
vn -0.8622 0.4864 0.1413
vn -0.8622 0.4864 0.1413
vn -0.9428 -0.0085 0.3334
vn 0.9629 0.0048 -0.2700
vn 0.3909 -0.0878 -0.9162
vn 0.3909 -0.0878 -0.9162
vn 0.3909 -0.0878 -0.9162
vn 0.1691 -0.7115 0.6820
vn -0.6713 -0.7049 0.2292
vn -0.6713 -0.7049 0.2292
vn -0.6713 -0.7049 0.2292
vn 0.0248 0.9913 0.1291
vn 0.0997 0.9884 0.1148
vn 0.0723 0.9893 0.1270
vn 0.9443 -0.0259 -0.3280
vn -0.0169 -0.9997 -0.0160
vn -0.1286 0.9294 -0.3459
vn -0.0209 0.9964 -0.0827
vn -0.0040 -1.0000 -0.0037
vn -0.9486 -0.0381 0.3143
vn -0.9319 -0.0450 0.3598
vn -0.0100 0.9968 -0.0787
vn -0.0461 -0.9962 -0.0738
vn 0.0130 -0.9996 0.0245
vn 0.0342 -0.9973 0.0645
vn -0.4125 0.1690 -0.8951
vn -0.4039 0.1906 -0.8947
vn -0.3765 0.2555 -0.8905
vn -0.9372 0.0947 0.3357
vn 0.0087 -1.0000 0.0016
vn -0.2214 0.9176 -0.3301
vn -0.3408 0.7910 -0.5082
vn -0.2157 0.9220 -0.3216
vn -0.3673 0.2761 -0.8882
vn -0.9289 0.1710 0.3286
vn 0.0414 0.9895 0.1385
vn -0.7420 0.6100 0.2780
vn -0.9528 -0.0757 0.2940
vn -0.4417 0.1592 -0.8829
vn -0.4573 0.1635 -0.8742
vn -0.4527 0.1558 -0.8780
vn 0.0775 0.1299 -0.9885
vn 0.1197 0.1293 -0.9843
vn 0.0794 0.1299 -0.9883
vn -0.4486 0.1640 -0.8785
vn 0.7474 0.0732 -0.6603
vn 0.7474 0.0732 -0.6603
vn 0.7474 0.0732 -0.6603
vn -0.1489 -0.9629 -0.2253
vn 0.0654 0.9867 0.1486
vn -0.5204 0.8098 0.2708
vn -0.5204 0.8098 0.2708
vn -0.5204 0.8098 0.2708
vn -0.3436 0.7871 -0.5122
vn -0.9617 -0.0300 0.2724
vn -0.8714 0.3469 0.3469
vn -0.3748 0.9176 0.1322
vn -0.3748 0.9176 0.1322
vn -0.3748 0.9176 0.1322
vn -0.4729 0.1746 -0.8637
vn -0.9612 -0.0697 0.2668
vn 0.1219 0.1293 -0.9841
vn 0.0000 1.0000 0.0000
vn 0.0000 1.0000 0.0000
vn 0.0000 1.0000 0.0000
vn 0.0000 1.0000 0.0000
vn 0.0000 1.0000 0.0000
vn 0.0000 1.0000 0.0000
vn 0.0000 1.0000 0.0000
vn 0.0000 1.0000 0.0000
vn 0.0000 1.0000 0.0000
vn 0.0000 1.0000 0.0000
vn 0.0000 1.0000 0.0000
vn 0.0000 1.0000 0.0000
vn 0.0000 1.0000 0.0000
vn 0.0000 1.0000 0.0000
vn 0.0000 1.0000 0.0000
vn 0.0000 1.0000 0.0000
vn 0.0000 1.0000 0.0000
vn 0.0000 1.0000 0.0000
vn 0.0000 1.0000 0.0000
vn 0.0000 1.0000 0.0000
vn 0.0000 1.0000 0.0000
f 1/1/1 2/2/2 3/3/3
f 4/4/4 5/5/5 6/6/6
f 7/7/7 8/8/8 9/9/9
f 5/5/5 4/4/4 10/10/10
f 12/12/12 13/13/13 14/14/14
f 9/9/9 15/15/15 7/7/7
f 6/6/6 5/5/5 16/16/16
f 17/17/17 18/18/18 19/19/19
f 19/19/19 18/18/18 20/20/20
f 21/21/21 22/22/22 23/23/23
f 24/24/24 19/19/19 20/20/20
f 26/26/26 25/25/25 27/27/27
f 16/16/16 5/5/5 29/29/29
f 7/7/7 15/15/15 11/11/11
f 30/30/30 2/2/2 28/28/28
f 18/18/18 17/17/17 20/20/20
f 31/31/31 32/32/32 33/33/33
f 34/34/34 23/23/23 22/22/22
f 35/35/35 36/36/36 37/37/37
f 176/176/176 177/177/177 178/178/178
f 16/16/16 29/29/29 38/38/38
f 39/39/39 20/20/20 17/17/17
f 40/40/40 41/41/41 20/20/20
f 42/42/42 43/43/43 44/44/44
f 45/45/45 27/27/27 25/25/25
f 46/46/46 43/43/43 47/47/47
f 48/48/48 49/49/49 50/50/50
f 179/179/179 180/180/180 181/181/181
f 51/51/51 52/52/52 53/53/53
f 20/20/20 54/54/54 55/55/55
f 45/45/45 25/25/25 34/34/34
f 46/46/46 44/44/44 43/43/43
f 20/20/20 41/41/41 24/24/24
f 22/22/22 45/45/45 34/34/34
f 20/20/20 39/39/39 54/54/54
f 173/173/173 58/58/58 174/174/174
f 59/59/59 60/60/60 61/61/61
f 62/62/62 63/63/63 64/64/64
f 40/40/40 20/20/20 55/55/55
f 65/65/65 66/66/66 67/67/67
f 182/182/182 183/183/183 184/184/184
f 185/185/185 186/186/186 187/187/187
f 66/66/66 65/65/65 22/22/22
f 181/181/181 180/180/180 188/188/188
f 68/68/68 69/69/69 70/70/70
f 71/71/71 40/40/40 72/72/72
f 40/40/40 174/174/174 41/41/41
f 174/174/174 40/40/40 71/71/71
f 41/41/41 174/174/174 58/58/58
f 189/189/189 190/190/190 191/191/191
f 73/73/73 22/22/22 65/65/65
f 74/74/74 75/75/75 76/76/76
f 73/73/73 45/45/45 22/22/22
f 177/177/177 176/176/176 192/192/192
f 186/186/186 193/193/193 194/194/194
f 47/47/47 43/43/43 77/77/77
f 182/182/182 195/195/195 196/196/196
f 74/74/74 76/76/76 78/78/78
f 74/74/74 78/78/78 79/79/79
f 80/80/80 81/81/81 82/82/82
f 80/80/80 83/83/83 81/81/81
f 84/84/84 85/85/85 86/86/86
f 185/185/185 197/197/197 198/198/198
f 87/87/87 78/78/78 76/76/76
f 199/199/199 183/183/183 200/200/200
f 76/76/76 88/88/88 87/87/87
f 185/185/185 187/187/187 197/197/197
f 201/201/201 202/202/202 203/203/203
f 204/204/204 205/205/205 206/206/206
f 207/207/207 208/208/208 209/209/209
f 210/210/210 181/181/181 211/211/211
f 89/89/89 90/90/90 91/91/91
f 92/92/92 87/87/87 88/88/88
f 212/212/212 213/213/213 214/214/214
f 212/212/212 215/215/215 213/213/213
f 216/216/216 189/189/189 217/217/217
f 207/207/207 209/209/209 218/218/218
f 219/219/219 220/220/220 221/221/221
f 182/182/182 222/222/222 195/195/195
f 211/211/211 181/181/181 188/188/188
f 217/217/217 189/189/189 191/191/191
f 210/210/210 211/211/211 223/223/223
f 175/175/175 93/93/93 94/94/94
f 206/206/206 224/224/224 204/204/204
f 204/204/204 224/224/224 225/225/225
f 226/226/226 227/227/227 228/228/228
f 95/95/95 96/96/96 97/97/97
f 96/96/96 95/95/95 98/98/98
f 99/99/99 100/100/100 101/101/101
f 102/102/102 103/103/103 104/104/104
f 229/229/229 230/230/230 231/231/231
f 232/232/232 233/233/233 234/234/234
f 235/235/235 229/229/229 231/231/231
f 184/184/184 183/183/183 199/199/199
f 236/236/236 237/237/237 238/238/238
f 239/239/239 240/240/240 241/241/241
f 242/242/242 205/205/205 204/204/204
f 243/243/243 244/244/244 245/245/245
f 246/246/246 239/239/239 241/241/241
f 247/247/247 248/248/248 246/246/246
f 246/246/246 241/241/241 247/247/247
f 249/249/249 248/248/248 247/247/247
f 239/239/239 246/246/246 248/248/248
f 247/247/247 241/241/241 250/250/250
f 222/222/222 182/182/182 184/184/184
f 251/251/251 245/245/245 244/244/244
f 252/252/252 253/253/253 254/254/254
f 255/255/255 209/209/209 208/208/208
f 256/256/256 251/251/251 244/244/244
f 105/105/105 106/106/106 107/107/107
f 108/108/108 109/109/109 57/57/57
f 257/257/257 258/258/258 259/259/259
f 185/185/185 198/198/198 260/260/260
f 244/244/244 261/261/261 262/262/262
f 261/261/261 263/263/263 262/262/262
f 451/451/451 452/452/452 453/453/453
f 451/451/451 453/453/453 454/454/454
f 454/454/454 453/453/453 455/455/455
f 264/264/264 265/265/265 266/266/266
f 265/265/265 267/267/267 266/266/266
f 456/456/456 451/451/451 454/454/454
f 457/457/457 458/458/458 459/459/459
f 244/244/244 262/262/262 256/256/256
f 455/455/455 460/460/460 461/461/461
f 185/185/185 193/193/193 186/186/186
f 462/462/462 463/463/463 464/464/464
f 465/465/465 466/466/466 467/467/467
f 216/216/216 217/217/217 268/268/268
f 261/261/261 269/269/269 263/263/263
f 270/270/270 242/242/242 204/204/204
f 456/456/456 468/468/468 469/469/469
f 454/454/454 461/461/461 470/470/470
f 462/462/462 464/464/464 471/471/471
f 255/255/255 208/208/208 271/271/271
f 272/272/272 273/273/273 274/274/274
f 275/275/275 255/255/255 271/271/271
f 259/259/259 258/258/258 276/276/276
f 472/472/472 473/473/473 474/474/474
f 185/185/185 260/260/260 277/277/277
f 475/475/475 476/476/476 477/477/477
f 456/456/456 454/454/454 468/468/468
f 455/455/455 461/461/461 454/454/454
f 84/84/84 86/86/86 110/110/110
f 478/478/478 479/479/479 480/480/480
f 278/278/278 279/279/279 280/280/280
f 470/470/470 461/461/461 481/481/481
f 281/281/281 282/282/282 283/283/283
f 464/464/464 482/482/482 471/471/471
f 483/483/483 484/484/484 485/485/485
f 272/272/272 284/284/284 273/273/273
f 486/486/486 465/465/465 467/467/467
f 285/285/285 264/264/264 266/266/266
f 286/286/286 287/287/287 288/288/288
f 487/487/487 488/488/488 489/489/489
f 279/279/279 289/289/289 280/280/280
f 290/290/290 291/291/291 260/260/260
f 463/463/463 462/462/462 490/490/490
f 491/491/491 492/492/492 493/493/493
f 107/107/107 106/106/106 111/111/111
f 494/494/494 472/472/472 495/495/495
f 496/496/496 497/497/497 498/498/498
f 260/260/260 291/291/291 277/277/277
f 274/274/274 292/292/292 293/293/293
f 294/294/294 295/295/295 296/296/296
f 216/216/216 268/268/268 297/297/297
f 474/474/474 499/499/499 472/472/472
f 472/472/472 500/500/500 501/501/501
f 502/502/502 503/503/503 504/504/504
f 298/298/298 299/299/299 300/300/300
f 276/276/276 301/301/301 259/259/259
f 456/456/456 469/469/469 505/505/505
f 472/472/472 499/499/499 506/506/506
f 302/302/302 303/303/303 304/304/304
f 281/281/281 305/305/305 282/282/282
f 507/507/507 508/508/508 509/509/509
f 510/510/510 508/508/508 507/507/507
f 306/306/306 294/294/294 300/300/300
f 511/511/511 512/512/512 513/513/513
f 514/514/514 496/496/496 498/498/498
f 99/99/99 112/112/112 113/113/113
f 515/515/515 516/516/516 517/517/517
f 307/307/307 286/286/286 288/288/288
f 274/274/274 308/308/308 272/272/272
f 109/109/109 108/108/108 114/114/114
f 502/502/502 518/518/518 503/503/503
f 472/472/472 519/519/519 495/495/495
f 505/505/505 520/520/520 456/456/456
f 521/521/521 522/522/522 523/523/523
f 496/496/496 514/514/514 524/524/524
f 226/226/226 228/228/228 309/309/309
f 472/472/472 501/501/501 519/519/519
f 525/525/525 513/513/513 512/512/512
f 509/509/509 526/526/526 507/507/507
f 281/281/281 310/310/310 305/305/305
f 496/496/496 527/527/527 528/528/528
f 496/496/496 524/524/524 527/527/527
f 311/311/311 312/312/312 313/313/313
f 272/272/272 308/308/308 314/314/314
f 528/528/528 529/529/529 530/530/530
f 508/508/508 510/510/510 531/531/531
f 226/226/226 309/309/309 315/315/315
f 500/500/500 472/472/472 532/532/532
f 527/527/527 529/529/529 528/528/528
f 293/293/293 308/308/308 274/274/274
f 533/533/533 478/478/478 480/480/480
f 534/534/534 493/493/493 535/535/535
f 316/316/316 305/305/305 310/310/310
f 115/115/115 116/116/116 117/117/117
f 506/506/506 532/532/532 472/472/472
f 536/536/536 537/537/537 538/538/538
f 503/503/503 518/518/518 539/539/539
f 530/530/530 529/529/529 540/540/540
f 541/541/541 542/542/542 543/543/543
f 317/317/317 318/318/318 319/319/319
f 118/118/118 119/119/119 96/96/96
f 530/530/530 540/540/540 544/544/544
f 530/530/530 544/544/544 545/545/545
f 456/456/456 546/546/546 547/547/547
f 320/320/320 321/321/321 322/322/322
f 323/323/323 301/301/301 276/276/276
f 533/533/533 548/548/548 478/478/478
f 324/324/324 325/325/325 326/326/326
f 541/541/541 549/549/549 542/542/542
f 550/550/550 551/551/551 552/552/552
f 548/548/548 553/553/553 478/478/478
f 550/550/550 554/554/554 551/551/551
f 120/120/120 114/114/114 121/121/121
f 555/555/555 478/478/478 556/556/556
f 119/119/119 97/97/97 96/96/96
f 557/557/557 558/558/558 525/525/525
f 559/559/559 560/560/560 561/561/561
f 487/487/487 489/489/489 562/562/562
f 122/122/122 117/117/117 116/116/116
f 114/114/114 108/108/108 121/121/121
f 556/556/556 478/478/478 553/553/553
f 556/556/556 563/563/563 555/555/555
f 534/534/534 535/535/535 564/564/564
f 327/327/327 286/286/286 328/328/328
f 513/513/513 525/525/525 565/565/565
f 566/566/566 546/546/546 520/520/520
f 112/112/112 99/99/99 101/101/101
f 567/567/567 563/563/563 556/556/556
f 456/456/456 520/520/520 546/546/546
f 568/568/568 456/456/456 547/547/547
f 525/525/525 558/558/558 565/565/565
f 313/313/313 312/312/312 322/322/322
f 286/286/286 307/307/307 328/328/328
f 107/107/107 111/111/111 123/123/123
f 294/294/294 306/306/306 295/295/295
f 323/323/323 329/329/329 301/301/301
f 84/84/84 110/110/110 124/124/124
f 56/56/56 108/108/108 57/57/57
f 569/569/569 570/570/570 571/571/571
f 572/572/572 573/573/573 574/574/574
f 318/318/318 330/330/330 319/319/319
f 324/324/324 331/331/331 325/325/325
f 566/566/566 575/575/575 546/546/546
f 320/320/320 332/332/332 321/321/321
f 126/126/126 108/108/108 125/125/125
f 576/576/576 531/531/531 510/510/510
f 311/311/311 313/313/313 333/333/333
f 108/108/108 126/126/126 121/121/121
f 577/577/577 578/578/578 579/579/579
f 334/334/334 318/318/318 335/335/335
f 316/316/316 310/310/310 336/336/336
f 580/580/580 581/581/581 571/571/571
f 299/299/299 306/306/306 300/300/300
f 324/324/324 326/326/326 337/337/337
f 582/582/582 583/583/583 584/584/584
f 585/585/585 586/586/586 587/587/587
f 588/588/588 573/573/573 572/572/572
f 297/297/297 268/268/268 338/338/338
f 547/547/547 546/546/546 589/589/589
f 590/590/590 591/591/591 592/592/592
f 575/575/575 593/593/593 546/546/546
f 493/493/493 492/492/492 535/535/535
f 594/594/594 486/486/486 595/595/595
f 589/589/589 546/546/546 593/593/593
f 596/596/596 597/597/597 598/598/598
f 599/599/599 600/600/600 577/577/577
f 593/593/593 601/601/601 602/602/602
f 602/602/602 601/601/601 603/603/603
f 129/129/129 126/126/126 125/125/125
f 328/328/328 339/339/339 327/327/327
f 589/589/589 593/593/593 602/602/602
f 467/467/467 604/604/604 486/486/486
f 605/605/605 463/463/463 490/490/490
f 337/337/337 326/326/326 340/340/340
f 130/130/130 107/107/107 123/123/123
f 118/118/118 96/96/96 131/131/131
f 606/606/606 607/607/607 608/608/608
f 601/601/601 609/609/609 603/603/603
f 610/610/610 611/611/611 612/612/612
f 338/338/338 341/341/341 297/297/297
f 327/327/327 339/339/339 342/342/342
f 569/569/569 571/571/571 581/581/581
f 613/613/613 614/614/614 615/615/615
f 129/129/129 132/132/132 126/126/126
f 616/616/616 617/617/617 618/618/618
f 343/343/343 344/344/344 345/345/345
f 133/133/133 134/134/134 135/135/135
f 618/618/618 619/619/619 616/616/616
f 620/620/620 621/621/621 622/622/622
f 551/551/551 554/554/554 623/623/623
f 606/606/606 608/608/608 624/624/624
f 346/346/346 347/347/347 348/348/348
f 325/325/325 349/349/349 326/326/326
f 131/131/131 96/96/96 136/136/136
f 625/625/625 626/626/626 627/627/627
f 316/316/316 336/336/336 350/350/350
f 351/351/351 326/326/326 349/349/349
f 315/315/315 309/309/309 352/352/352
f 128/128/128 127/127/127 140/140/140
f 123/123/123 141/141/141 130/130/130
f 142/142/142 143/143/143 144/144/144
f 612/612/612 628/628/628 610/610/610
f 145/145/145 146/146/146 147/147/147
f 629/629/629 625/625/625 627/627/627
f 143/143/143 148/148/148 144/144/144
f 353/353/353 354/354/354 355/355/355
f 147/147/147 130/130/130 141/141/141
f 149/149/149 150/150/150 110/110/110
f 329/329/329 323/323/323 356/356/356
f 330/330/330 318/318/318 334/334/334
f 313/313/313 322/322/322 321/321/321
f 630/630/630 582/582/582 631/631/631
f 150/150/150 124/124/124 110/110/110
f 133/133/133 151/151/151 134/134/134
f 357/357/357 358/358/358 359/359/359
f 360/360/360 361/361/361 362/362/362
f 363/363/363 364/364/364 365/365/365
f 152/152/152 138/138/138 137/137/137
f 153/153/153 154/154/154 144/144/144
f 149/149/149 110/110/110 155/155/155
f 584/584/584 583/583/583 632/632/632
f 577/577/577 579/579/579 599/599/599
f 633/633/633 576/576/576 510/510/510
f 366/366/366 341/341/341 338/338/338
f 147/147/147 141/141/141 156/156/156
f 367/367/367 362/362/362 368/368/368
f 369/369/369 370/370/370 371/371/371
f 634/634/634 573/573/573 635/635/635
f 372/372/372 373/373/373 374/374/374
f 636/636/636 587/587/587 586/586/586
f 329/329/329 356/356/356 375/375/375
f 376/376/376 377/377/377 378/378/378
f 156/156/156 157/157/157 145/145/145
f 379/379/379 380/380/380 381/381/381
f 362/362/362 382/382/382 368/368/368
f 361/361/361 360/360/360 383/383/383
f 360/360/360 362/362/362 367/367/367
f 384/384/384 385/385/385 386/386/386
f 562/562/562 630/630/630 631/631/631
f 637/637/637 583/583/583 582/582/582
f 348/348/348 347/347/347 387/387/387
f 379/379/379 381/381/381 388/388/388
f 133/133/133 158/158/158 151/151/151
f 360/360/360 389/389/389 390/390/390
f 391/391/391 392/392/392 393/393/393
f 357/357/357 359/359/359 394/394/394
f 389/389/389 360/360/360 367/367/367
f 638/638/638 639/639/639 640/640/640
f 641/641/641 642/642/642 643/643/643
f 644/644/644 621/621/621 645/645/645
f 646/646/646 647/647/647 648/648/648
f 158/158/158 133/133/133 159/159/159
f 360/360/360 395/395/395 396/396/396
f 397/397/397 373/373/373 398/398/398
f 160/160/160 161/161/161 162/162/162
f 153/153/153 144/144/144 148/148/148
f 163/163/163 162/162/162 161/161/161
f 399/399/399 400/400/400 401/401/401
f 158/158/158 164/164/164 151/151/151
f 156/156/156 141/141/141 165/165/165
f 156/156/156 166/166/166 157/157/157
f 649/649/649 650/650/650 651/651/651
f 652/652/652 649/649/649 653/653/653
f 390/390/390 395/395/395 360/360/360
f 653/653/653 649/649/649 654/654/654
f 655/655/655 656/656/656 657/657/657
f 655/655/655 657/657/657 658/658/658
f 397/397/397 398/398/398 402/402/402
f 659/659/659 650/650/650 649/649/649
f 659/659/659 660/660/660 661/661/661
f 662/662/662 656/656/656 655/655/655
f 403/403/403 404/404/404 405/405/405
f 406/406/406 407/407/407 408/408/408
f 155/155/155 167/167/167 149/149/149
f 409/409/409 410/410/410 411/411/411
f 412/412/412 413/413/413 414/414/414
f 384/384/384 415/415/415 385/385/385
f 384/384/384 416/416/416 415/415/415
f 663/663/663 664/664/664 665/665/665
f 659/659/659 661/661/661 650/650/650
f 372/372/372 398/398/398 373/373/373
f 659/659/659 649/649/649 652/652/652
f 660/660/660 666/666/666 661/661/661
f 632/632/632 614/614/614 584/584/584
f 667/667/667 668/668/668 669/669/669
f 417/417/417 408/408/408 407/407/407
f 418/418/418 419/419/419 420/420/420
f 670/670/670 661/661/661 666/666/666
f 421/421/421 422/422/422 423/423/423
f 168/168/168 128/128/128 140/140/140
f 372/372/372 424/424/424 398/398/398
f 671/671/671 672/672/672 667/667/667
f 673/673/673 489/489/489 674/674/674
f 644/644/644 622/622/622 621/621/621
f 605/605/605 490/490/490 675/675/675
f 676/676/676 669/669/669 677/677/677
f 677/677/677 669/669/669 668/668/668
f 403/403/403 405/405/405 425/425/425
f 404/404/404 426/426/426 405/405/405
f 427/427/427 428/428/428 429/429/429
f 608/608/608 678/678/678 624/624/624
f 679/679/679 680/680/680 681/681/681
f 682/682/682 680/680/680 683/683/683
f 169/169/169 170/170/170 171/171/171
f 172/172/172 137/137/137 139/139/139
f 667/667/667 672/672/672 668/668/668
f 662/662/662 684/684/684 656/656/656
f 637/637/637 582/582/582 630/630/630
f 685/685/685 576/576/576 633/633/633
f 430/430/430 427/427/427 412/412/412
f 431/431/431 432/432/432 433/433/433
f 686/686/686 679/679/679 681/681/681
f 684/684/684 687/687/687 656/656/656
f 688/688/688 689/689/689 677/677/677
f 632/632/632 615/615/615 614/614/614
f 690/690/690 691/691/691 692/692/692
f 621/621/621 693/693/693 694/694/694
f 695/695/695 663/663/663 696/696/696
f 676/676/676 677/677/677 689/689/689
f 697/697/697 672/672/672 671/671/671
f 412/412/412 434/434/434 413/413/413
f 435/435/435 436/436/436 437/437/437
f 680/680/680 679/679/679 683/683/683
f 588/588/588 635/635/635 573/573/573
f 432/432/432 431/431/431 438/438/438
f 698/698/698 699/699/699 700/700/700
f 633/633/633 701/701/701 702/702/702
f 703/703/703 704/704/704 705/705/705
f 663/663/663 665/665/665 696/696/696
f 437/437/437 439/439/439 435/435/435
f 427/427/427 434/434/434 412/412/412
f 625/625/625 706/706/706 626/626/626
f 707/707/707 708/708/708 656/656/656
f 708/708/708 657/657/657 656/656/656
f 709/709/709 703/703/703 705/705/705
f 706/706/706 625/625/625 710/710/710
f 629/629/629 711/711/711 625/625/625
f 440/440/440 422/422/422 421/421/421
f 427/427/427 430/430/430 428/428/428
f 441/441/441 442/442/442 443/443/443
f 712/712/712 595/595/595 486/486/486
f 444/444/444 445/445/445 446/446/446
f 432/432/432 438/438/438 447/447/447
f 713/713/713 714/714/714 715/715/715
f 446/446/446 448/448/448 449/449/449
f 645/645/645 621/621/621 694/694/694
f 716/716/716 717/717/717 718/718/718
f 719/719/719 720/720/720 721/721/721
f 633/633/633 722/722/722 685/685/685
f 723/723/723 724/724/724 725/725/725
f 726/726/726 727/727/727 728/728/728
f 712/712/712 486/486/486 604/604/604
f 723/723/723 725/725/725 729/729/729
f 730/730/730 715/715/715 714/714/714
f 440/440/440 450/450/450 422/422/422
f 490/490/490 731/731/731 675/675/675
f 732/732/732 733/733/733 734/734/734
f 633/633/633 702/702/702 722/722/722
f 730/730/730 735/735/735 715/715/715
f 736/736/736 708/708/708 707/707/707
f 737/737/737 738/738/738 728/728/728
f 726/726/726 739/739/739 727/727/727
f 739/739/739 726/726/726 740/740/740
f 741/741/741 742/742/742 743/743/743
f 445/445/445 448/448/448 446/446/446
f 726/726/726 728/728/728 744/744/744
f 745/745/745 728/728/728 738/738/738
f 728/728/728 745/745/745 746/746/746
f 721/721/721 747/747/747 719/719/719
f 748/748/748 489/489/489 673/673/673
f 749/749/749 750/750/750 751/751/751
f 731/731/731 752/752/752 675/675/675
f 728/728/728 746/746/746 744/744/744
f 685/685/685 722/722/722 753/753/753
f 637/637/637 630/630/630 754/754/754
f 747/747/747 721/721/721 755/755/755
f 746/746/746 745/745/745 756/756/756
f 719/719/719 747/747/747 757/757/757
f 746/746/746 758/758/758 744/744/744
f 731/731/731 759/759/759 752/752/752
f 760/760/760 761/761/761 762/762/762
f 725/725/725 763/763/763 764/764/764
f 765/765/765 766/766/766 767/767/767
f 768/768/768 769/769/769 770/770/770
f 749/749/749 771/771/771 750/750/750
f 772/772/772 773/773/773 774/774/774
f 763/763/763 725/725/725 724/724/724
f 744/744/744 758/758/758 775/775/775
f 776/776/776 754/754/754 777/777/777
f 778/778/778 779/779/779 780/780/780
f 747/747/747 755/755/755 781/781/781
f 782/782/782 783/783/783 784/784/784
f 764/764/764 763/763/763 785/785/785
f 786/786/786 787/787/787 788/788/788
f 789/789/789 788/788/788 787/787/787
f 750/750/750 771/771/771 790/790/790
f 754/754/754 776/776/776 637/637/637
f 489/489/489 630/630/630 562/562/562
f 782/782/782 784/784/784 791/791/791
f 759/759/759 792/792/792 752/752/752
f 489/489/489 748/748/748 793/793/793
f 794/794/794 795/795/795 796/796/796
f 797/797/797 798/798/798 799/799/799
f 781/781/781 755/755/755 800/800/800
f 801/801/801 802/802/802 789/789/789
f 803/803/803 766/766/766 765/765/765
f 804/804/804 636/636/636 586/586/586
f 755/755/755 794/794/794 796/796/796
f 805/805/805 790/790/790 771/771/771
f 806/806/806 489/489/489 793/793/793
f 807/807/807 808/808/808 809/809/809
f 808/808/808 807/807/807 810/810/810
f 811/811/811 786/786/786 788/788/788
f 812/812/812 813/813/813 814/814/814
f 812/812/812 815/815/815 813/813/813
f 816/816/816 817/817/817 818/818/818
f 819/819/819 820/820/820 636/636/636
f 816/816/816 821/821/821 817/817/817
f 822/822/822 823/823/823 815/815/815
f 824/824/824 800/800/800 755/755/755
f 489/489/489 806/806/806 630/630/630
f 825/825/825 754/754/754 630/630/630
f 826/826/826 777/777/777 754/754/754
f 777/777/777 826/826/826 827/827/827
f 636/636/636 828/828/828 819/819/819
f 815/815/815 812/812/812 822/822/822
f 829/829/829 830/830/830 831/831/831
f 784/784/784 832/832/832 791/791/791
f 822/822/822 833/833/833 823/823/823
f 834/834/834 777/777/777 827/827/827
f 789/789/789 802/802/802 788/788/788
f 825/825/825 630/630/630 835/835/835
f 804/804/804 828/828/828 636/636/636
f 824/824/824 836/836/836 800/800/800
f 837/837/837 838/838/838 839/839/839
f 829/829/829 840/840/840 830/830/830
f 841/841/841 755/755/755 796/796/796
f 842/842/842 843/843/843 844/844/844
f 755/755/755 841/841/841 824/824/824
f 845/845/845 846/846/846 847/847/847
f 848/848/848 849/849/849 838/838/838
f 848/848/848 838/838/838 837/837/837
f 849/849/849 839/839/839 838/838/838
f 850/850/850 851/851/851 852/852/852
f 824/824/824 853/853/853 836/836/836
f 854/854/854 855/855/855 856/856/856
f 857/857/857 853/853/853 824/824/824
f 848/848/848 858/858/858 849/849/849
f 859/859/859 860/860/860 861/861/861
f 851/851/851 862/862/862 852/852/852
f 863/863/863 864/864/864 865/865/865
f 866/866/866 867/867/867 868/868/868
f 858/858/858 848/848/848 869/869/869
f 835/835/835 870/870/870 825/825/825
f 843/843/843 871/871/871 872/872/872
f 844/844/844 843/843/843 872/872/872
f 873/873/873 825/825/825 870/870/870
f 874/874/874 824/824/824 875/875/875
f 857/857/857 824/824/824 874/874/874
f 844/844/844 872/872/872 876/876/876
f 873/873/873 877/877/877 878/878/878
f 879/879/879 878/878/878 877/877/877
f 880/880/880 881/881/881 882/882/882
f 824/824/824 883/883/883 875/875/875
f 873/873/873 884/884/884 877/877/877
f 885/885/885 886/886/886 887/887/887
f 881/881/881 888/888/888 882/882/882
f 884/884/884 873/873/873 870/870/870
f 824/824/824 889/889/889 883/883/883
f 868/868/868 890/890/890 866/866/866
f 824/824/824 891/891/891 889/889/889
f 883/883/883 892/892/892 875/875/875
f 893/893/893 894/894/894 895/895/895
f 896/896/896 897/897/897 898/898/898
f 893/893/893 899/899/899 894/894/894
f 900/900/900 901/901/901 902/902/902
f 879/879/879 877/877/877 903/903/903
f 868/868/868 904/904/904 890/890/890
f 905/905/905 906/906/906 907/907/907
f 886/886/886 885/885/885 908/908/908
f 909/909/909 883/883/883 910/910/910
f 911/911/911 912/912/912 913/913/913
f 899/899/899 914/914/914 894/894/894
f 892/892/892 883/883/883 909/909/909
f 892/892/892 909/909/909 915/915/915
f 147/147/147 156/156/156 145/145/145
f 916/916/916 898/898/898 897/897/897
f 917/917/917 918/918/918 919/919/919
f 917/917/917 919/919/919 918/918/918
f 917/917/917 919/919/919 920/920/920
f 917/917/917 920/920/920 919/919/919
f 917/917/917 920/920/920 921/921/921
f 917/917/917 921/921/921 920/920/920
f 917/917/917 921/921/921 922/922/922
f 917/917/917 922/922/922 921/921/921
f 917/917/917 922/922/922 923/923/923
f 917/917/917 923/923/923 922/922/922
f 917/917/917 923/923/923 924/924/924
f 917/917/917 924/924/924 923/923/923
f 917/917/917 924/924/924 925/925/925
f 917/917/917 925/925/925 924/924/924
f 917/917/917 925/925/925 926/926/926
f 917/917/917 926/926/926 925/925/925
f 917/917/917 926/926/926 927/927/927
f 917/917/917 927/927/927 926/926/926
f 917/917/917 927/927/927 928/928/928
f 917/917/917 928/928/928 927/927/927
f 917/917/917 928/928/928 929/929/929
f 917/917/917 929/929/929 928/928/928
f 917/917/917 929/929/929 930/930/930
f 917/917/917 930/930/930 929/929/929
f 917/917/917 930/930/930 931/931/931
f 917/917/917 931/931/931 930/930/930
f 917/917/917 931/931/931 932/932/932
f 917/917/917 932/932/932 931/931/931
f 917/917/917 932/932/932 933/933/933
f 917/917/917 933/933/933 932/932/932
f 917/917/917 933/933/933 918/918/918
f 917/917/917 918/918/918 933/933/933
f 934/934/934 935/935/935 936/936/936
f 934/934/934 936/936/936 935/935/935
f 934/934/934 936/936/936 937/937/937
f 934/934/934 937/937/937 936/936/936
f 934/934/934 937/937/937 935/935/935
f 934/934/934 935/935/935 937/937/937
