o leg_right
v 0.14763 1.06878 0.04813
v 0.14442 1.06677 0.02510
v 0.15807 1.01688 -0.02093
v 0.15586 1.06986 -0.02194
v 0.14248 1.06886 0.02732
v 0.13428 1.06803 0.01020
v 0.14442 1.06677 0.02510
v 0.16421 0.74383 -0.00971
v 0.14734 0.74040 -0.02317
v 0.12770 0.89655 -0.04708
v 0.16316 0.74226 -0.00962
v 0.15669 0.74042 -0.00141
v 0.15317 0.74113 -0.00648
v 0.16316 0.74226 -0.00962
v 0.14827 0.74039 0.05950
v 0.15879 0.74235 0.03907
v 0.16094 0.74323 0.05467
v 0.14442 1.06677 0.02510
v 0.15882 0.85428 0.06171
v 0.16094 0.74323 0.05467
v 0.15886 0.64784 0.00217
v 0.15669 0.74042 -0.00141
v 0.15198 0.74079 0.01937
v 0.16421 0.74383 -0.00971
v 0.15724 0.74411 0.02108
v 0.16316 0.74226 -0.00962
v 0.15807 1.01688 -0.02093
v 0.15734 0.64639 0.00885
v 0.15879 0.74235 0.03907
v 0.15724 0.74411 0.02108
v 0.15380 1.06721 0.07519
v 0.15198 0.74079 0.01937
v 0.16421 0.74383 -0.00971
v 0.15724 0.74411 0.02108
v 0.15879 0.74235 0.03907
v 0.16316 0.74226 -0.00962
v 0.15886 0.64784 0.00217
v 0.14292 0.73992 -0.01477
v 0.15669 0.74042 -0.00141
v 0.13155 0.73870 -0.02392
v 0.15807 1.01688 -0.02093
v 0.14292 0.73992 -0.01477
v 0.15200 0.64940 0.04692
v 0.14964 0.68865 0.05355
v 0.14827 0.74039 0.05950
v 0.14292 0.73992 -0.01477
v 0.15882 0.85428 0.06171
v 0.15380 1.06721 0.07519
v 0.12546 0.73895 0.08142
v 0.13987 0.74074 -0.03128
v 0.14734 0.74040 -0.02317
v 0.13836 1.06678 -0.04204
v 0.14827 0.74039 0.05950
v 0.12500 0.73794 0.07019
v 0.14964 0.68865 0.05355
v 0.12546 0.73895 0.08142
v 0.13237 0.73919 -0.03697
v 0.13237 0.73919 -0.03697
v 0.15200 0.64940 0.04692
v 0.14091 0.63470 0.04838
v 0.12500 0.73794 0.07019
v 0.13987 0.74074 -0.03128
v 0.14734 0.74040 -0.02317
v 0.13237 0.73919 -0.03697
v 0.13417 0.63975 -0.01940
v 0.13155 0.73870 -0.02392
v 0.16094 0.74323 0.05467
v 0.07525 0.73962 0.06734
v 0.08082 0.64206 0.04898
v 0.08080 0.69504 -0.02144
v 0.13155 0.73870 -0.02392
v 0.13417 0.63975 -0.01940
v 0.08023 0.73860 -0.02400
v 0.07474 0.73935 0.08114
v 0.07670 0.74026 -0.03790
v 0.07452 0.76371 -0.03901
v 0.13237 0.73919 -0.03697
v 0.07568 0.73925 -0.03576
v 0.09722 0.73825 0.06992
v 0.07525 0.73962 0.06734
v 0.12770 0.89655 -0.04708
v 0.08023 0.73860 -0.02400
v 0.07052 0.83551 -0.04301
v 0.06894 0.87020 -0.04528
v 0.07318 0.77572 0.08522
v 0.12546 0.73895 0.08142
v 0.06419 0.91446 0.09767
v 0.07670 0.74026 -0.03790
v 0.12507 1.06468 -0.05542
v 0.07590 0.74129 -0.01189
v 0.07590 0.74129 -0.01189
v 0.08023 0.73860 -0.02400
v 0.08080 0.69504 -0.02144
v 0.07474 0.73935 0.08114
v 0.07525 0.73962 0.06734
v 0.07572 0.73939 0.04320
v 0.07776 0.67663 0.04117
v 0.07776 0.67663 0.04117
v 0.07307 0.74393 0.04306
v 0.06218 0.76345 0.03656
v 0.07307 0.74393 0.04306
v 0.07568 0.73925 -0.03576
v 0.07452 0.76371 -0.03901
v 0.07670 0.74026 -0.03790
v 0.07474 0.73935 0.08114
v 0.07352 0.76310 -0.00439
v 0.06765 0.87070 -0.01484
v 0.07354 0.64266 0.01912
v 0.06218 0.76345 0.03656
v 0.07157 0.76094 0.00519
v 0.07307 0.74393 0.04306
v 0.07302 0.75552 0.05575
v 0.07058 0.75883 0.04320
v 0.07572 0.73939 0.04320
v 0.07474 0.73935 0.08114
v 0.07052 0.83551 -0.04301
v 0.07318 0.77572 0.08522
v 0.06549 0.87043 0.06144
v 0.07302 0.75552 0.05575
v 0.06654 0.76097 0.04477
v 0.07058 0.75883 0.04320
v 0.05615 0.76597 0.02469
v 0.06654 0.76097 0.04477
v 0.07307 0.74393 0.04306
v 0.07058 0.75883 0.04320
v 0.06444 0.76042 0.04016
v 0.05772 0.87610 0.00364
v 0.06894 0.87020 -0.04528
v 0.07157 0.76094 0.00519
v 0.05615 0.76597 0.02469
v 0.07352 0.76310 -0.00439
v 0.06218 0.76345 0.03656
v 0.06218 0.76345 0.03656
v 0.06444 0.76042 0.04016
v 0.06444 0.76042 0.04016
v 0.07307 0.74393 0.04306
v 0.05729 1.04114 -0.02160
v 0.06765 0.87070 -0.01484
v 0.05772 0.87610 0.00364
v 0.05303 0.87885 0.00327
v 0.04902 0.87994 0.01865
v 0.05615 0.76597 0.02469
v 0.03776 0.88431 0.02424
v 0.03776 0.88431 0.02424
v 0.06765 0.87070 -0.01484
v 0.05303 0.87885 0.00327
v 0.12500 0.73794 0.07019
v 0.07590 0.74129 -0.01189
v 0.17539 0.45983 0.00493
v 0.17525 0.47767 0.00422
v 0.17011 0.45999 0.01346
v 0.17539 0.45983 0.00493
v 0.17011 0.45999 0.01346
v 0.16441 0.45654 0.01382
v 0.16699 0.60379 0.00730
v 0.17011 0.45999 0.01346
v 0.16699 0.60379 0.00730
v 0.15871 0.59901 0.00932
v 0.17137 0.60406 -0.00124
v 0.17525 0.47767 0.00422
v 0.14852 0.59766 -0.02459
v 0.17137 0.60406 -0.00124
v 0.16419 0.42021 0.01987
v 0.15983 0.42330 0.02064
v 0.16498 0.38938 0.02062
v 0.16498 0.38938 0.02062
v 0.16441 0.45654 0.01382
v 0.16419 0.42021 0.01987
v 0.16086 0.37030 0.02475
v 0.16086 0.33048 0.02984
v 0.15803 0.45271 0.00680
v 0.16441 0.45654 0.01382
v 0.17011 0.45999 0.01346
v 0.15985 0.44871 0.01762
v 0.15985 0.44871 0.01762
v 0.15985 0.44871 0.01762
v 0.16441 0.45654 0.01382
v 0.16079 0.39842 0.02267
v 0.16498 0.38938 0.02062
v 0.15457 0.31532 0.01555
v 0.15511 0.42162 0.00577
v 0.15620 0.60145 0.00789
v 0.16179 0.30029 0.03186
v 0.16086 0.33048 0.02984
v 0.15947 0.42082 0.04535
v 0.16441 0.45654 0.01382
v 0.16086 0.37030 0.02475
v 0.16079 0.39842 0.02267
v 0.16699 0.60379 0.00730
v 0.17137 0.60406 -0.00124
v 0.13915 0.59754 -0.00286
v 0.15983 0.42330 0.02064
v 0.15576 0.43374 0.07301
v 0.16310 0.16354 0.08429
v 0.15985 0.44871 0.01762
v 0.16009 0.45135 -0.00963
v 0.15871 0.59901 0.00932
v 0.16195 0.42106 -0.00613
v 0.16009 0.45135 -0.00963
v 0.15439 0.44936 0.00038
v 0.16009 0.45135 -0.00963
v 0.16195 0.42106 -0.00613
v 0.15112 0.43846 -0.01803
v 0.15200 0.64940 0.04692
v 0.15170 0.59768 0.06484
v 0.15734 0.64639 0.00885
v 0.15871 0.59901 0.00932
v 0.15620 0.60145 0.00789
v 0.15734 0.64639 0.00885
v 0.17137 0.60406 -0.00124
v 0.14852 0.59766 -0.02459
v 0.14678 0.59957 -0.02288
v 0.16195 0.42106 -0.00613
v 0.15511 0.42162 0.00577
v 0.15361 0.41185 -0.01149
v 0.15886 0.64784 0.00217
v 0.15734 0.64639 0.00885
v 0.15651 0.64500 0.00064
v 0.15439 0.44936 0.00038
v 0.15414 0.44769 0.00270
v 0.15803 0.45271 0.00680
v 0.15511 0.42162 0.00577
v 0.15361 0.41185 -0.01149
v 0.15215 0.41256 -0.01453
v 0.15414 0.44769 0.00270
v 0.15803 0.45271 0.00680
v 0.15414 0.44769 0.00270
v 0.15439 0.44936 0.00038
v 0.15112 0.41725 0.00355
v 0.15620 0.60145 0.00789
v 0.15112 0.41725 0.00355
v 0.15170 0.59768 0.06484
v 0.15200 0.64940 0.04692
v 0.14091 0.63470 0.04838
v 0.17539 0.45983 0.00493
v 0.15112 0.43846 -0.01803
v 0.15215 0.41256 -0.01453
v 0.10319 0.41276 -0.01437
v 0.15651 0.64500 0.00064
v 0.15734 0.64639 0.00885
v 0.13578 0.63918 -0.00428
v 0.14678 0.59957 -0.02288
v 0.13915 0.59754 -0.00286
v 0.14028 0.63980 -0.01416
v 0.15886 0.64784 0.00217
v 0.15651 0.64500 0.00064
v 0.14397 0.59848 0.06017
v 0.10588 0.41647 0.00373
v 0.15112 0.41725 0.00355
v 0.10855 0.35760 0.01144
v 0.13578 0.63918 -0.00428
v 0.14028 0.63980 -0.01416
v 0.13417 0.63975 -0.01940
v 0.10588 0.41647 0.00373
v 0.15361 0.41185 -0.01149
v 0.15112 0.41725 0.00355
v 0.15170 0.59768 0.06484
v 0.09216 0.38928 0.07508
v 0.15576 0.43374 0.07301
v 0.15170 0.59768 0.06484
v 0.08338 0.59950 0.06033
v 0.08059 0.59781 0.06427
v 0.13915 0.59754 -0.00286
v 0.09672 0.60012 -0.00347
v 0.13578 0.63918 -0.00428
v 0.12500 0.73794 0.07019
v 0.08082 0.64206 0.04898
v 0.10740 0.59761 -0.00395
v 0.15457 0.31532 0.01555
v 0.09819 0.26535 0.07932
v 0.09077 0.59821 -0.02511
v 0.13417 0.63975 -0.01940
v 0.08406 0.63978 -0.01933
v 0.08080 0.69504 -0.02144
v 0.14397 0.59848 0.06017
v 0.09363 0.51608 -0.02082
v 0.14852 0.59766 -0.02459
v 0.09077 0.59821 -0.02511
v 0.09835 0.43987 -0.01717
v 0.10740 0.59761 -0.00395
v 0.08266 0.55428 0.06710
v 0.10855 0.35760 0.01144
v 0.09822 0.29565 0.04429
v 0.10588 0.41647 0.00373
v 0.08882 0.59979 -0.02273
v 0.10441 0.41183 -0.01201
v 0.10319 0.41276 -0.01437
v 0.15215 0.41256 -0.01453
v 0.15361 0.41185 -0.01149
v 0.10441 0.41183 -0.01201
v 0.10588 0.41647 0.00373
v 0.10319 0.41276 -0.01437
v 0.10441 0.41183 -0.01201
v 0.10588 0.41647 0.00373
v 0.09490 0.41978 -0.00244
v 0.10319 0.41276 -0.01437
v 0.08338 0.59950 0.06033
v 0.09156 0.63869 -0.00533
v 0.08406 0.63978 -0.01933
v 0.10215 0.41956 0.00684
v 0.08804 0.41650 0.03550
v 0.08294 0.63592 0.04834
v 0.08278 0.61436 0.05463
v 0.10215 0.41956 0.00684
v 0.10238 0.33595 0.04316
v 0.09932 0.37473 0.04014
v 0.09980 0.35632 0.04117
v 0.09421 0.44784 0.01444
v 0.10033 0.44275 0.00317
v 0.10319 0.41276 -0.01437
v 0.09490 0.41978 -0.00244
v 0.09351 0.44112 -0.00655
v 0.09932 0.37473 0.04014
v 0.10238 0.33595 0.04316
v 0.09688 0.31161 0.06379
v 0.09415 0.36479 0.04120
v 0.09835 0.43987 -0.01717
v 0.10238 0.33595 0.04316
v 0.09422 0.62454 -0.00393
v 0.09415 0.36479 0.04120
v 0.10033 0.44275 0.00317
v 0.09421 0.44784 0.01444
v 0.09351 0.44112 -0.00655
v 0.09351 0.44112 -0.00655
v 0.10215 0.41956 0.00684
v 0.10033 0.44275 0.00317
v 0.09784 0.39075 0.03898
v 0.07860 0.60288 -0.00320
v 0.09672 0.60012 -0.00347
v 0.09784 0.39075 0.03898
v 0.08439 0.45230 0.03357
v 0.09490 0.41978 -0.00244
v 0.08894 0.42438 0.03711
v 0.08168 0.59669 0.06587
v 0.09156 0.63869 -0.00533
v 0.09363 0.51608 -0.02082
v 0.08509 0.52372 0.04520
v 0.09522 0.42396 0.03702
v 0.08819 0.60329 0.01705
v 0.09422 0.62454 -0.00393
v 0.09672 0.60012 -0.00347
v 0.09522 0.42396 0.03702
v 0.13417 0.63975 -0.01940
v 0.09324 0.44933 0.03579
v 0.09213 0.46749 0.03393
v 0.09216 0.38928 0.07508
v 0.09324 0.44933 0.03579
v 0.08870 0.59301 -0.02406
v 0.08168 0.59669 0.06587
v 0.06642 0.58309 0.02254
v 0.09415 0.36479 0.04120
v 0.08894 0.42438 0.03711
v 0.08804 0.41650 0.03550
v 0.08439 0.45230 0.03357
v 0.09213 0.46749 0.03393
v 0.08882 0.59979 -0.02273
v 0.09009 0.48968 0.03191
v 0.08914 0.50763 0.03173
v 0.08882 0.59979 -0.02273
v 0.08439 0.45230 0.03357
v 0.08700 0.52681 0.02987
v 0.06642 0.58309 0.02254
v 0.09009 0.48968 0.03191
v 0.08914 0.50763 0.03173
v 0.07452 0.45188 0.03003
v 0.07156 0.64070 0.03656
v 0.09156 0.63869 -0.00533
v 0.08439 0.45230 0.03357
v 0.07146 0.60591 0.01123
v 0.07860 0.60288 -0.00320
v 0.08622 0.54064 0.02933
v 0.08266 0.55428 0.06710
v 0.08494 0.56088 0.02780
v 0.08819 0.60329 0.01705
v 0.06917 0.60740 0.02113
v 0.08392 0.60157 0.02576
v 0.07452 0.45188 0.03003
v 0.08700 0.52681 0.02987
v 0.07156 0.64070 0.03656
v 0.08392 0.60157 0.02576
v 0.08288 0.59348 0.02578
v 0.08264 0.59816 0.03357
v 0.08282 0.59931 0.03998
v 0.08218 0.60731 0.03757
v 0.08406 0.63978 -0.01933
v 0.07354 0.64266 0.01912
v 0.08080 0.69504 -0.02144
v 0.08278 0.61436 0.05463
v 0.08059 0.59781 0.06427
v 0.08338 0.59950 0.06033
v 0.08059 0.59781 0.06427
v 0.08278 0.61436 0.05463
v 0.08080 0.64278 0.04144
v 0.08294 0.63592 0.04834
v 0.08266 0.55428 0.06710
v 0.08168 0.59669 0.06587
v 0.08059 0.59781 0.06427
v 0.08294 0.63592 0.04834
v 0.08082 0.64206 0.04898
v 0.08080 0.64278 0.04144
v 0.08622 0.54064 0.02933
v 0.07146 0.60591 0.01123
v 0.07590 0.74129 -0.01189
v 0.08392 0.60157 0.02576
v 0.06917 0.60740 0.02113
v 0.06650 0.60575 0.02267
v 0.07156 0.64070 0.03656
v 0.08494 0.56088 0.02780
v 0.07776 0.67663 0.04117
v 0.07525 0.73962 0.06734
v 0.08080 0.64278 0.04144
v 0.07156 0.64070 0.03656
v 0.08218 0.60731 0.03757
v 0.08406 0.63978 -0.01933
v 0.07156 0.64070 0.03656
v 0.06951 0.64564 0.03646
v 0.08288 0.59348 0.02578
v 0.06650 0.60575 0.02267
v 0.07452 0.45188 0.03003
v 0.07776 0.67663 0.04117
v 0.08392 0.60157 0.02576
v 0.06951 0.64564 0.03646
v 0.06218 0.76345 0.03656
v 0.06634 0.60694 0.02117
v 0.06218 0.76345 0.03656
v 0.06634 0.60694 0.02117
v 0.06634 0.60694 0.02117
v 0.06650 0.60575 0.02267
v 0.06634 0.60694 0.02117
v 0.06642 0.58309 0.02254
v 0.08392 0.60157 0.02576
v 0.08264 0.59816 0.03357
v 0.07354 0.64266 0.01912
v 0.25205 0.03673 -0.10200
v 0.25030 0.00116 -0.11084
v 0.25023 0.03933 -0.10351
v 0.24367 0.03157 -0.07804
v 0.25030 0.00116 -0.11084
v 0.25205 0.03673 -0.10200
v 0.24301 0.00129 -0.11484
v 0.22502 0.03953 -0.11620
v 0.25205 0.03673 -0.10200
v 0.25023 0.03933 -0.10351
v 0.24612 0.03523 -0.08598
v 0.24612 0.03523 -0.08598
v 0.25030 0.00116 -0.11084
v 0.24427 0.00029 -0.09116
v 0.24301 0.00129 -0.11484
v 0.24427 0.00029 -0.09116
v 0.22558 0.00026 -0.12200
v 0.24219 0.03463 -0.07834
v 0.24219 0.03463 -0.07834
v 0.24219 0.03463 -0.07834
v 0.25023 0.03933 -0.10351
v 0.21578 0.03568 -0.08754
v 0.24367 0.03157 -0.07804
v 0.24219 0.03463 -0.07834
v 0.24198 0.04344 -0.07531
v 0.24198 0.04344 -0.07531
v 0.23168 0.04438 -0.05020
v 0.22836 0.00042 -0.04350
v 0.24198 0.04344 -0.07531
v 0.23118 0.04505 -0.05479
v 0.23168 0.04438 -0.05020
v 0.22707 0.00293 -0.12278
v 0.21681 0.04426 -0.08470
v 0.22836 0.00042 -0.04350
v 0.20919 0.00144 -0.06238
v 0.21681 0.04426 -0.08470
v 0.22558 0.00026 -0.12200
v 0.22707 0.00293 -0.12278
v 0.24301 0.00129 -0.11484
v 0.22242 0.03933 -0.11488
v 0.22502 0.03953 -0.11620
v 0.22507 0.01616 -0.12080
v 0.23168 0.04438 -0.05020
v 0.23118 0.04505 -0.05479
v 0.22148 0.05576 -0.03061
v 0.21578 0.03568 -0.08754
v 0.22507 0.01616 -0.12080
v 0.22707 0.00293 -0.12278
v 0.22558 0.00026 -0.12200
v 0.22502 0.03953 -0.11620
v 0.22507 0.01616 -0.12080
v 0.22558 0.00026 -0.12200
v 0.22558 0.00026 -0.12200
v 0.22242 0.03933 -0.11488
v 0.22502 0.03953 -0.11620
v 0.21578 0.03568 -0.08754
v 0.22242 0.03933 -0.11488
v 0.21733 0.03619 -0.09829
v 0.21733 0.03619 -0.09829
v 0.22558 0.00026 -0.12200
v 0.21626 0.00146 -0.09536
v 0.19502 0.06131 0.04035
v 0.22148 0.05576 -0.03061
v 0.21339 0.06405 -0.01476
v 0.22242 0.03933 -0.11488
v 0.20918 0.04434 -0.06049
v 0.21626 0.00146 -0.09536
v 0.21339 0.06405 -0.01476
v 0.22148 0.05576 -0.03061
v 0.12165 0.07431 -0.01348
v 0.21681 0.04426 -0.08470
v 0.21578 0.03568 -0.08754
v 0.21426 0.04208 -0.08458
v 0.21578 0.03568 -0.08754
v 0.20918 0.04434 -0.06049
v 0.21681 0.04426 -0.08470
v 0.21426 0.04208 -0.08458
v 0.20919 0.00144 -0.06238
v 0.21426 0.04208 -0.08458
v 0.21118 0.00027 -0.12099
v 0.21132 0.00304 -0.12221
v 0.21120 0.02833 -0.11788
v 0.21124 0.03842 -0.11534
v 0.21124 0.03842 -0.11534
v 0.21004 0.03922 -0.11681
v 0.20720 0.03637 -0.10325
v 0.21004 0.03922 -0.11681
v 0.21124 0.03842 -0.11534
v 0.21120 0.02833 -0.11788
v 0.20720 0.03637 -0.10325
v 0.21132 0.00304 -0.12221
v 0.20918 0.04434 -0.06049
v 0.20919 0.00144 -0.06238
v 0.20166 0.03365 -0.08660
v 0.19686 0.04455 -0.06158
v 0.19033 0.08795 0.03802
v 0.16977 0.00046 -0.06900
v 0.21118 0.00027 -0.12099
v 0.18552 0.00025 -0.12919
v 0.21132 0.00304 -0.12221
v 0.21118 0.00027 -0.12099
v 0.20918 0.04434 -0.06049
v 0.20919 0.00144 -0.06238
v 0.19686 0.04455 -0.06158
v 0.20166 0.03365 -0.08660
v 0.20091 0.04341 -0.08508
v 0.19585 0.04261 -0.06534
v 0.19011 0.08941 0.03331
v 0.19033 0.08795 0.03802
v 0.12165 0.07431 -0.01348
v 0.17532 0.00048 -0.10043
v 0.18333 0.03937 -0.12511
v 0.19686 0.04455 -0.06158
v 0.20091 0.04341 -0.08508
v 0.19686 0.04455 -0.06158
v 0.19585 0.04261 -0.06534
v 0.20091 0.04341 -0.08508
v 0.20166 0.03365 -0.08660
v 0.17500 0.03531 -0.09584
v 0.18023 0.03945 -0.12425
v 0.19033 0.08795 0.03802
v 0.17026 0.05847 0.11309
v 0.17725 0.00135 0.10788
v 0.18552 0.00025 -0.12919
v 0.18333 0.03937 -0.12511
v 0.18552 0.00025 -0.12919
v 0.19502 0.06131 0.04035
v 0.19033 0.08795 0.03802
v 0.18858 0.06288 0.04213
v 0.16869 0.04390 -0.06911
v 0.19033 0.08795 0.03802
v 0.19011 0.08941 0.03331
v 0.18968 0.16252 0.03495
v 0.19011 0.08941 0.03331
v 0.13461 0.09068 0.02379
v 0.18968 0.16252 0.03495
v 0.19502 0.06131 0.04035
v 0.18858 0.06288 0.04213
v 0.18444 0.06183 0.05540
v 0.17725 0.00135 0.10788
v 0.10540 0.00123 0.00827
v 0.18444 0.06183 0.05540
v 0.18858 0.06288 0.04213
v 0.17500 0.03531 -0.09584
v 0.17026 0.05847 0.11309
v 0.19502 0.06131 0.04035
v 0.17518 0.06082 0.09447
v 0.18338 0.00146 -0.12923
v 0.17514 0.04345 -0.09334
v 0.20091 0.04341 -0.08508
v 0.17622 0.06178 0.07802
v 0.17622 0.06178 0.07802
v 0.18023 0.03945 -0.12425
v 0.17640 0.16258 0.07641
v 0.18023 0.03945 -0.12425
v 0.17532 0.00048 -0.10043
v 0.17324 0.03223 -0.09734
v 0.15154 0.16354 0.02876
v 0.17514 0.04345 -0.09334
v 0.18338 0.00146 -0.12923
v 0.18552 0.00025 -0.12919
v 0.17532 0.00048 -0.10043
v 0.18338 0.00146 -0.12923
v 0.16828 0.16264 0.10000
v 0.16848 0.06150 0.10115
v 0.17500 0.03531 -0.09584
v 0.18023 0.03945 -0.12425
v 0.17324 0.03223 -0.09734
v 0.16848 0.06150 0.10115
v 0.17514 0.04345 -0.09334
v 0.17500 0.03531 -0.09584
v 0.17317 0.04245 -0.09238
v 0.17514 0.04345 -0.09334
v 0.17317 0.04245 -0.09238
v 0.16869 0.04390 -0.06911
v 0.17500 0.03531 -0.09584
v 0.17324 0.03223 -0.09734
v 0.17317 0.04245 -0.09238
v 0.17026 0.05847 0.11309
v 0.16822 0.05989 0.11411
v 0.17725 0.00135 0.10788
v 0.16289 0.16346 0.04526
v 0.17640 0.16258 0.07641
v 0.16905 0.16446 0.04282
v 0.16977 0.00046 -0.06900
v 0.16828 0.16264 0.10000
v 0.16869 0.04390 -0.06911
v 0.17317 0.04245 -0.09238
v 0.16822 0.05989 0.11411
v 0.18968 0.16252 0.03495
v 0.15761 0.16445 0.03300
v 0.16869 0.04390 -0.06911
v 0.16977 0.00046 -0.06900
v 0.16808 0.02065 -0.06966
v 0.17011 0.03734 -0.12397
v 0.17015 0.02200 -0.12817
v 0.16905 0.03826 -0.12614
v 0.12710 0.05877 -0.04704
v 0.17011 0.03734 -0.12397
v 0.16905 0.03826 -0.12614
v 0.16513 0.03630 -0.10949
v 0.17015 0.02200 -0.12817
v 0.16213 0.03469 -0.09784
v 0.17024 0.00114 -0.13139
v 0.16310 0.16354 0.08429
v 0.16779 0.20203 0.03763
v 0.16905 0.16446 0.04282
v 0.15765 0.19080 0.02880
v 0.17011 0.03734 -0.12397
v 0.16779 0.20203 0.03763
v 0.16610 0.21921 0.03917
v 0.16905 0.16446 0.04282
v 0.12165 0.07431 -0.01348
v 0.13461 0.09068 0.02379
v 0.19011 0.08941 0.03331
v 0.16704 0.26823 0.03297
v 0.15457 0.31532 0.01555
v 0.16704 0.26823 0.03297
v 0.16213 0.03469 -0.09784
v 0.15486 0.04353 -0.07326
v 0.16281 0.20745 0.04013
v 0.16905 0.16446 0.04282
v 0.16610 0.21921 0.03917
v 0.16704 0.26823 0.03297
v 0.16179 0.30029 0.03186
v 0.16209 0.25335 0.03645
v 0.15154 0.16354 0.02876
v 0.16289 0.16346 0.04526
v 0.16704 0.26823 0.03297
v 0.16281 0.20745 0.04013
v 0.17024 0.00114 -0.13139
v 0.16191 0.00035 -0.09881
v 0.14240 0.00027 -0.13640
v 0.16086 0.33048 0.02984
v 0.16498 0.38938 0.02062
v 0.16281 0.20745 0.04013
v 0.16310 0.16354 0.08429
v 0.16289 0.16346 0.04526
v 0.15486 0.04353 -0.07326
v 0.15556 0.00286 -0.07262
v 0.16209 0.25335 0.03645
v 0.16179 0.30029 0.03186
v 0.15761 0.16445 0.03300
v 0.15556 0.00286 -0.07262
v 0.15947 0.42082 0.04535
v 0.16498 0.38938 0.02062
v 0.16191 0.00035 -0.09881
v 0.16977 0.00046 -0.06900
v 0.15042 0.00012 -0.07170
v 0.15556 0.00286 -0.07262
v 0.13460 0.03364 -0.10428
v 0.16213 0.03469 -0.09784
v 0.16194 0.04346 -0.09441
v 0.15042 0.00012 -0.07170
v 0.13483 0.04291 -0.10102
v 0.16194 0.04346 -0.09441
v 0.16213 0.03469 -0.09784
v 0.15042 0.00012 -0.07170
v 0.16191 0.00035 -0.09881
v 0.15556 0.00286 -0.07262
v 0.17015 0.02200 -0.12817
v 0.17024 0.00114 -0.13139
v 0.15080 0.00120 -0.13644
v 0.13090 0.00000 -0.07337
v 0.15486 0.04353 -0.07326
v 0.12239 0.16405 0.03352
v 0.16905 0.03826 -0.12614
v 0.15080 0.00120 -0.13644
v 0.13460 0.03364 -0.10428
v 0.13209 0.05993 0.10690
v 0.11081 0.00033 0.09345
v 0.15765 0.19080 0.02880
v 0.12183 0.19002 0.02884
v 0.11890 0.22931 0.02474
v 0.14129 0.03932 -0.13129
v 0.15761 0.16445 0.03300
v 0.12239 0.16405 0.03352
v 0.14235 0.02105 -0.13539
v 0.14129 0.03932 -0.13129
v 0.14240 0.00027 -0.13640
v 0.16194 0.04346 -0.09441
v 0.13483 0.04291 -0.10102
v 0.15576 0.43374 0.07301
v 0.09819 0.26535 0.07932
v 0.10439 0.16453 0.08431
v 0.16828 0.16264 0.10000
v 0.14055 0.16247 0.09553
v 0.16848 0.06150 0.10115
v 0.14240 0.00027 -0.13640
v 0.14129 0.03932 -0.13129
v 0.14235 0.02105 -0.13539
v 0.14055 0.16247 0.09553
v 0.13617 0.00119 -0.11272
v 0.13005 0.04468 -0.07466
v 0.13460 0.03364 -0.10428
v 0.13617 0.00119 -0.11272
v 0.16310 0.16354 0.08429
v 0.13114 0.00161 -0.08182
v 0.13483 0.04291 -0.10102
v 0.13005 0.04468 -0.07466
v 0.09542 0.16345 0.08519
v 0.10872 0.06323 0.02343
v 0.12710 0.05877 -0.04704
v 0.10439 0.16453 0.08431
v 0.12165 0.07431 -0.01348
v 0.09465 0.06258 0.08680
v 0.11537 0.09017 0.02039
v 0.11520 0.16267 0.02243
v 0.12239 0.16405 0.03352
v 0.11471 0.16346 0.04323
v 0.12183 0.19002 0.02884
v 0.11374 0.29692 0.01755
v 0.11520 0.16267 0.02243
v 0.11537 0.09017 0.02039
v 0.16822 0.05989 0.11411
v 0.11081 0.00033 0.09345
v 0.17725 0.00135 0.10788
v 0.09465 0.06258 0.08680
v 0.08801 0.05977 0.09762
v 0.11471 0.16346 0.04323
v 0.11537 0.09017 0.02039
v 0.15457 0.31532 0.01555
v 0.13209 0.05993 0.10690
v 0.10644 0.20325 0.04931
v 0.11890 0.22931 0.02474
v 0.11520 0.16267 0.02243
v 0.11537 0.09017 0.02039
v 0.11163 0.06492 0.02574
v 0.11029 0.16502 0.05388
v 0.11387 0.16529 0.05448
v 0.11369 0.17801 0.05345
v 0.11163 0.06492 0.02574
v 0.11537 0.09017 0.02039
v 0.10872 0.06323 0.02343
v 0.10847 0.19145 0.05250
v 0.10855 0.35760 0.01144
v 0.11374 0.29692 0.01755
v 0.10336 0.23827 0.04853
v 0.11387 0.16529 0.05448
v 0.10439 0.16453 0.08431
v 0.11369 0.17801 0.05345
v 0.11059 0.20998 0.05144
v 0.11060 0.16346 0.04939
v 0.09364 0.06251 0.08073
v 0.09822 0.29565 0.04429
v 0.10855 0.35760 0.01144
v 0.08796 0.00128 0.08947
v 0.08898 0.00028 0.06719
v 0.11387 0.16529 0.05448
v 0.11029 0.16502 0.05388
v 0.11060 0.16346 0.04939
v 0.10548 0.22506 0.05044
v 0.10540 0.00123 0.00827
v 0.11059 0.20998 0.05144
v 0.10853 0.23790 0.04938
v 0.10667 0.26584 0.04726
v 0.11060 0.16346 0.04939
v 0.10847 0.19145 0.05250
v 0.10644 0.20325 0.04931
v 0.11029 0.16502 0.05388
v 0.11163 0.06492 0.02574
v 0.10872 0.06323 0.02343
v 0.10609 0.06322 0.03246
v 0.11060 0.16346 0.04939
v 0.10853 0.23790 0.04938
v 0.10667 0.26584 0.04726
v 0.10431 0.16256 0.05214
v 0.09688 0.31161 0.06379
v 0.10548 0.22506 0.05044
v 0.09542 0.16345 0.08519
v 0.10336 0.23827 0.04853
v 0.10548 0.28975 0.04626
v 0.11387 0.16529 0.05448
v 0.10609 0.06322 0.03246
v 0.08767 0.00292 0.06674
v 0.10336 0.23827 0.04853
v 0.09980 0.06242 0.05093
v 0.09364 0.06251 0.08073
v 0.10548 0.28975 0.04626
v 0.10238 0.33595 0.04316
v 0.08801 0.05977 0.09762
v 0.08796 0.00128 0.08947
v 0.09822 0.29565 0.04429
v 0.09415 0.36479 0.04120
v 0.10238 0.33595 0.04316
v 0.09980 0.06242 0.05093
v 0.09819 0.26535 0.07932
v 0.10431 0.16256 0.05214
v 0.09335 0.16193 0.08366
v 0.09308 0.06199 0.06983
v 0.09335 0.16193 0.08366
v 0.09465 0.06258 0.08680
v 0.09335 0.16193 0.08366
v 0.09216 0.38928 0.07508
v 0.10540 0.00123 0.00827
v 0.08898 0.00028 0.06719
v 0.09308 0.06199 0.06983
v 0.08772 0.05916 0.08370
v 0.08772 0.05916 0.08370
v 0.08801 0.05977 0.09762
v 0.08796 0.00128 0.08947
v 0.13114 0.00161 -0.08182
v 0.13090 0.00000 -0.07337
v 0.11060 0.16346 0.04939
v 0.10431 0.16256 0.05214
v 0.09590 0.92981 0.01267
v 0.14442 1.06677 0.02510
v 0.15380 1.06721 0.07519
v 0.12546 0.73895 0.08142
v 0.06419 0.91446 0.09767
v 0.07318 0.77572 0.08522
v 0.06549 0.87043 0.06144
v 0.05615 0.76597 0.02469
v 0.04902 0.87994 0.01865
v 0.05772 0.87610 0.00364
v 0.03776 0.88431 0.02424
v 0.06765 0.87070 -0.01484
v 0.05729 1.04114 -0.02160
v 0.06894 0.87020 -0.04528
v 0.12507 1.06468 -0.05542
v 0.12770 0.89655 -0.04708
v 0.13836 1.06678 -0.04204
v 0.15807 1.01688 -0.02093
v 0.15586 1.06986 -0.02194
v 0.14146 1.06856 0.02855
v 0.14763 1.06878 0.04813
v 0.14248 1.06886 0.02732
v 0.13428 1.06803 0.01020
vt 0.68655 0.96903
vt 0.91870 0.72963
vt 0.94379 0.72963
vt 0.93004 0.74307
vt 0.67879 0.96936
vt 0.67193 0.96877
vt 0.67823 0.97055
vt 0.53608 0.48767
vt 0.54302 0.48668
vt 0.55188 0.53693
vt 0.48679 0.84277
vt 0.48937 0.84500
vt 0.48767 0.84604
vt 0.53633 0.48711
vt 0.50886 0.84800
vt 0.50237 0.84445
vt 0.50739 0.84381
vt 0.53291 0.36713
vt 0.48011 0.32229
vt 0.45914 0.29342
vt 0.84583 0.92589
vt 0.87394 0.91628
vt 0.87606 0.92277
vt 0.08973 0.00020
vt 0.09985 0.00020
vt 0.08983 0.00081
vt 0.53832 0.57526
vt 0.84603 0.92812
vt 0.46286 0.29000
vt 0.46768 0.28675
vt 0.52038 0.37760
vt 0.49602 0.84656
vt 0.47534 0.28014
vt 0.98033 0.01281
vt 0.98134 0.00708
vt 0.98176 0.02275
vt 0.90785 0.19887
vt 0.90170 0.16906
vt 0.90785 0.16916
vt 0.89701 0.16925
vt 0.53429 0.34497
vt 0.48488 0.84923
vt 0.85052 0.93964
vt 0.86321 0.93811
vt 0.87965 0.93518
vt 0.48502 0.84935
vt 0.44594 0.62397
vt 0.51435 0.62397
vt 0.40971 0.63840
vt 0.54655 0.48686
vt 0.48224 0.84769
vt 0.54725 0.59144
vt 0.87530 0.87333
vt 0.88355 0.87333
vt 0.87568 0.89002
vt 0.51589 0.85533
vt 0.54958 0.48642
vt 0.47763 0.85232
vt 0.87533 0.90280
vt 0.87922 0.90726
vt 0.51228 0.85551
vt 0.99393 0.99872
vt 0.99745 0.99903
vt 0.99092 0.99926
vt 0.89724 0.20101
vt 0.48179 0.85277
vt 0.41026 0.62410
vt 0.90983 0.70686
vt 0.87884 0.71430
vt 0.90985 0.64910
vt 0.89340 0.66291
vt 0.89298 0.63115
vt 0.90985 0.66309
vt 0.51597 0.87159
vt 0.28616 0.24655
vt 0.29369 0.24589
vt 0.28571 0.26440
vt 0.47719 0.87049
vt 0.51228 0.86441
vt 0.51154 0.87148
vt 0.33626 0.26317
vt 0.48103 0.86920
vt 0.31675 0.24473
vt 0.32790 0.24428
vt 0.29813 0.28184
vt 0.28635 0.26503
vt 0.34277 0.28492
vt 0.47645 0.87013
vt 0.39023 0.26261
vt 0.48486 0.87096
vt 0.98700 0.27222
vt 0.99082 0.27400
vt 0.98693 0.28744
vt 0.28640 0.28128
vt 0.95898 0.20016
vt 0.95124 0.19982
vt 0.95124 0.17968
vt 0.61172 0.94154
vt 0.59019 0.94364
vt 0.58342 0.94049
vt 0.95116 0.20151
vt 0.36184 0.36160
vt 0.36146 0.36951
vt 0.36109 0.36196
vt 0.96340 0.20028
vt 0.37251 0.36840
vt 0.37206 0.40311
vt 0.37707 0.32932
vt 0.38612 0.36756
vt 0.37559 0.36749
vt 0.67591 0.79950
vt 0.66912 0.79986
vt 0.67244 0.79730
vt 0.59176 0.94424
vt 0.67317 0.80632
vt 0.36211 0.39259
vt 0.66041 0.80599
vt 0.62387 0.80582
vt 0.99845 0.99692
vt 0.99401 0.99695
vt 0.99447 0.99547
vt 0.38340 0.36886
vt 0.66722 0.79787
vt 0.99847 0.82629
vt 0.99392 0.82794
vt 0.99243 0.82625
vt 0.37886 0.40452
vt 0.36232 0.40374
vt 0.99129 0.01575
vt 0.98851 0.02339
vt 0.99042 0.01266
vt 0.99177 0.02627
vt 0.66611 0.79632
vt 0.99245 0.99646
vt 0.66760 0.79694
vt 0.67388 0.79551
vt 0.37449 0.45783
vt 0.59710 0.78083
vt 0.60406 0.78667
vt 0.60294 0.78759
vt 0.38447 0.40550
vt 0.66233 0.78842
vt 0.60812 0.79288
vt 0.80672 0.00635
vt 0.79035 0.00635
vt 0.79823 0.00578
vt 0.90490 0.69166
vt 0.36952 0.36160
vt 0.60610 0.90523
vt 0.60180 0.90523
vt 0.60613 0.90282
vt 0.99344 0.19148
vt 0.99299 0.18911
vt 0.99422 0.18807
vt 0.57146 0.90265
vt 0.53389 0.89129
vt 0.49923 0.89040
vt 0.50041 0.88836
vt 0.57132 0.90496
vt 0.79917 0.71258
vt 0.79025 0.68351
vt 0.79815 0.68211
vt 0.92398 0.45461
vt 0.92291 0.45536
vt 0.92411 0.44718
vt 0.80405 0.00527
vt 0.82031 0.00527
vt 0.81146 0.00585
vt 0.92283 0.44255
vt 0.92239 0.43289
vt 0.99667 0.18829
vt 0.00343 0.10386
vt 0.00494 0.10441
vt 0.00113 0.10443
vt 0.53667 0.88868
vt 0.92309 0.46152
vt 0.92443 0.46347
vt 0.92295 0.44934
vt 0.89209 0.64685
vt 0.88896 0.66463
vt 0.88808 0.63894
vt 0.49971 0.88778
vt 0.41571 0.37082
vt 0.41553 0.37811
vt 0.40982 0.39943
vt 0.89129 0.63061
vt 0.41588 0.38777
vt 0.41576 0.39456
vt 0.92589 0.30574
vt 0.92358 0.30570
vt 0.92694 0.29852
vt 0.41569 0.40058
vt 0.40284 0.40193
vt 0.40624 0.33686
vt 0.41585 0.40674
vt 0.99892 0.19160
vt 0.41450 0.44297
vt 0.00747 0.57785
vt 0.00012 0.57814
vt 0.00068 0.57538
vt 0.79411 0.71883
vt 0.79488 0.72614
vt 0.79109 0.72188
vt 0.40426 0.45424
vt 0.40111 0.44144
vt 0.41355 0.45434
vt 0.68101 0.99582
vt 0.68035 0.99520
vt 0.68129 0.98441
vt 0.16819 0.98053
vt 0.16127 0.98458
vt 0.16098 0.98390
vt 0.00441 0.76614
vt 0.00441 0.76945
vt 0.00115 0.76594
vt 0.00251 0.10221
vt 0.00404 0.10293
vt 0.00203 0.10304
vt 0.99856 0.18881
vt 0.88757 0.63263
vt 0.88897 0.63146
vt 0.00743 0.57454
vt 0.79253 0.72840
vt 0.79174 0.72814
vt 0.00111 0.57484
vt 0.00445 0.66415
vt 0.00263 0.66415
vt 0.00263 0.66346
vt 0.00289 0.76943
vt 0.92725 0.30345
vt 0.88698 0.63998
vt 0.88621 0.64611
vt 0.87375 0.65040
vt 0.87613 0.64664
vt 0.79923 0.71688
vt 0.79780 0.09006
vt 0.79807 0.09635
vt 0.78627 0.09635
vt 0.00343 0.97487
vt 0.00315 0.97287
vt 0.00862 0.97605
vt 0.92178 0.29794
vt 0.67545 0.99587
vt 0.98493 0.85719
vt 0.99117 0.85667
vt 0.99037 0.85719
vt 0.88503 0.64428
vt 0.85948 0.96950
vt 0.85948 0.95860
vt 0.87378 0.96911
vt 0.67513 0.98581
vt 0.00753 0.97843
vt 0.98304 0.85676
vt 0.15875 0.99398
vt 0.14726 0.99783
vt 0.14785 0.99398
vt 0.67103 0.17835
vt 0.68661 0.22823
vt 0.67103 0.21789
vt 0.64152 0.00368
vt 0.62511 0.00542
vt 0.62441 0.00441
vt 0.85766 0.99381
vt 0.86166 0.98439
vt 0.86739 0.99640
vt 0.85089 0.65151
vt 0.86964 0.63358
vt 0.93020 0.29160
vt 0.88421 0.95821
vt 0.68590 0.25812
vt 0.14761 0.98198
vt 0.97227 0.89554
vt 0.97416 0.90746
vt 0.96113 0.91033
vt 0.63970 0.00489
vt 0.78386 0.07142
vt 0.79698 0.05169
vt 0.78307 0.05162
vt 0.78508 0.08979
vt 0.86021 0.98660
vt 0.68791 0.18840
vt 0.55160 0.85786
vt 0.53613 0.85065
vt 0.56591 0.85832
vt 0.92819 0.28553
vt 0.15911 0.99793
vt 0.37386 0.99709
vt 0.38565 0.99710
vt 0.38600 0.99785
vt 0.37415 0.99770
vt 0.99643 0.36344
vt 0.99194 0.36344
vt 0.99249 0.36305
vt 0.00058 0.48430
vt 0.00271 0.48200
vt 0.00499 0.48514
vt 0.87996 0.63059
vt 0.01927 0.97628
vt 0.02108 0.97966
vt 0.56670 0.85718
vt 0.56542 0.84955
vt 0.87121 0.63357
vt 0.87630 0.63173
vt 0.00006 0.48301
vt 0.73369 0.60810
vt 0.73404 0.59871
vt 0.73413 0.60315
vt 0.57338 0.85421
vt 0.57237 0.85737
vt 0.78043 0.09649
vt 0.77704 0.09460
vt 0.77799 0.08945
vt 0.11640 0.42544
vt 0.12564 0.42874
vt 0.12819 0.43774
vt 0.73540 0.60105
vt 0.78079 0.08984
vt 0.73377 0.60810
vt 0.86741 0.98578
vt 0.55281 0.84979
vt 0.87233 0.99546
vt 0.87233 0.99214
vt 0.87490 0.99679
vt 0.00119 0.50048
vt 0.00588 0.49605
vt 0.00394 0.50138
vt 0.11174 0.42328
vt 0.93355 0.28539
vt 0.93151 0.28930
vt 0.73421 0.59483
vt 0.57408 0.84896
vt 0.00309 0.49559
vt 0.73597 0.58662
vt 0.68790 0.17818
vt 0.87085 0.98632
vt 0.78172 0.07145
vt 0.09281 0.43386
vt 0.10627 0.42321
vt 0.68770 0.99499
vt 0.69280 0.99007
vt 0.69325 0.99594
vt 0.73447 0.58679
vt 0.00901 0.97969
vt 0.10177 0.42451
vt 0.09822 0.42502
vt 0.11456 0.44484
vt 0.73466 0.58066
vt 0.78254 0.05288
vt 0.62465 0.00393
vt 0.77003 0.05484
vt 0.96981 0.93349
vt 0.97054 0.94792
vt 0.96981 0.94611
vt 0.87232 0.98685
vt 0.73474 0.57626
vt 0.14728 0.98122
vt 0.09351 0.42775
vt 0.09068 0.43046
vt 0.78233 0.05123
vt 0.73680 0.57981
vt 0.08746 0.43295
vt 0.73951 0.54800
vt 0.73497 0.57087
vt 0.73489 0.56654
vt 0.73933 0.57971
vt 0.68220 0.98595
vt 0.69343 0.98618
vt 0.97027 0.95478
vt 0.93749 0.28535
vt 0.77705 0.05032
vt 0.08497 0.43468
vt 0.08175 0.44452
vt 0.08047 0.43714
vt 0.93690 0.28962
vt 0.93991 0.28589
vt 0.93927 0.28982
vt 0.87483 0.98653
vt 0.73519 0.56188
vt 0.02415 0.96621
vt 0.07323 0.43552
vt 0.07480 0.43688
vt 0.07265 0.43712
vt 0.07215 0.43830
vt 0.07091 0.43784
vt 0.95137 0.68427
vt 0.94358 0.68993
vt 0.94299 0.67389
vt 0.99828 0.32651
vt 0.99363 0.32651
vt 0.99453 0.32567
vt 0.07397 0.44256
vt 0.07018 0.44073
vt 0.06601 0.43909
vt 0.06646 0.44155
vt 0.99643 0.57993
vt 0.99643 0.59016
vt 0.99598 0.59044
vt 0.55827 0.96160
vt 0.55984 0.96173
vt 0.55968 0.96354
vt 0.73518 0.55854
vt 0.77320 0.04945
vt 0.93387 0.66699
vt 0.00025 0.60983
vt 0.00419 0.60934
vt 0.00461 0.61007
vt 0.06494 0.43769
vt 0.73524 0.55365
vt 0.56772 0.96509
vt 0.58379 0.96163
vt 0.39943 0.84649
vt 0.39687 0.84627
vt 0.39834 0.83796
vt 0.89777 0.24721
vt 0.88535 0.24120
vt 0.39656 0.84752
vt 0.73530 0.54576
vt 0.73912 0.54255
vt 0.76816 0.08650
vt 0.39970 0.85467
vt 0.73493 0.54383
vt 0.88581 0.24000
vt 0.39831 0.87590
vt 0.00481 0.60965
vt 0.89698 0.21386
vt 0.94020 0.28526
vt 0.77052 0.04911
vt 0.02078 0.99957
vt 0.02108 0.99993
vt 0.01532 0.99978
vt 0.68524 0.99558
vt 0.68338 0.99636
vt 0.88943 0.24240
vt 0.99521 0.95897
vt 0.99418 0.97084
vt 0.99435 0.95821
vt 0.70497 0.42694
vt 0.71146 0.44012
vt 0.70102 0.43437
vt 0.99148 0.97101
vt 0.98520 0.95878
vt 0.97429 0.18431
vt 0.97390 0.18323
vt 0.97986 0.18399
vt 0.70305 0.42918
vt 0.61383 0.38809
vt 0.61931 0.38636
vt 0.61405 0.39037
vt 0.71362 0.43378
vt 0.61597 0.39406
vt 0.98262 0.18355
vt 0.70394 0.42653
vt 0.07960 0.00019
vt 0.08833 0.00019
vt 0.07989 0.00928
vt 0.31037 0.98756
vt 0.30944 0.98818
vt 0.30642 0.98818
vt 0.70157 0.42484
vt 0.70383 0.41630
vt 0.71821 0.41811
vt 0.26735 0.01789
vt 0.25984 0.01869
vt 0.25853 0.01793
vt 0.98567 0.97088
vt 0.26715 0.02662
vt 0.63110 0.38014
vt 0.63490 0.38321
vt 0.30697 0.99690
vt 0.99213 0.20827
vt 0.99248 0.20730
vt 0.99826 0.20796
vt 0.08909 0.00992
vt 0.08976 0.00925
vt 0.98507 0.96653
vt 0.93609 0.99725
vt 0.93502 0.99618
vt 0.94415 0.99678
vt 0.30990 0.99727
vt 0.00587 0.51915
vt 0.00150 0.51953
vt 0.00070 0.51889
vt 0.46903 0.00234
vt 0.46129 0.00234
vt 0.45614 0.00170
vt 0.45541 0.00249
vt 0.44247 0.00249
vt 0.44254 0.00155
vt 0.99845 0.59928
vt 0.99845 0.60850
vt 0.99801 0.60279
vt 0.76018 0.98152
vt 0.75199 0.96986
vt 0.76116 0.97023
vt 0.70773 0.38432
vt 0.70226 0.40838
vt 0.70127 0.40208
vt 0.75454 0.98255
vt 0.25893 0.02602
vt 0.62508 0.38934
vt 0.24432 0.01892
vt 0.25069 0.01853
vt 0.23194 0.04625
vt 0.00451 0.88715
vt 0.00155 0.88715
vt 0.00376 0.88636
vt 0.76371 0.98135
vt 0.99174 0.14436
vt 0.98349 0.14436
vt 0.98377 0.14331
vt 0.77213 0.97019
vt 0.76478 0.98343
vt 0.11771 0.98730
vt 0.11732 0.98640
vt 0.11877 0.97818
vt 0.11961 0.97491
vt 0.70632 0.98843
vt 0.70686 0.98805
vt 0.70645 0.99263
vt 0.99413 0.91264
vt 0.99477 0.91283
vt 0.99448 0.91620
vt 0.12374 0.97563
vt 0.99425 0.92454
vt 0.77278 0.98414
vt 0.13677 0.98729
vt 0.70663 0.99839
vt 0.25777 0.02987
vt 0.22405 0.01912
vt 0.64777 0.38131
vt 0.63629 0.39670
vt 0.11862 0.99999
vt 0.10989 0.99999
vt 0.10992 0.99900
vt 0.02262 0.99089
vt 0.00867 0.99089
vt 0.02268 0.98687
vt 0.12949 0.97613
vt 0.13002 0.97295
vt 0.13664 0.97319
vt 0.64191 0.94236
vt 0.64111 0.94098
vt 0.66930 0.94275
vt 0.64772 0.39302
vt 0.98504 0.91279
vt 0.13799 0.97276
vt 0.99579 0.24104
vt 0.98803 0.24104
vt 0.98921 0.24026
vt 0.03189 0.99561
vt 0.03215 0.99883
vt 0.02296 0.99883
vt 0.71684 0.98852
vt 0.69924 0.38191
vt 0.71586 0.36069
vt 0.73302 0.36834
vt 0.64372 0.39918
vt 0.71596 0.98795
vt 0.98558 0.92558
vt 0.03475 0.00230
vt 0.02592 0.00230
vt 0.03393 0.00023
vt 0.25663 0.03928
vt 0.88187 0.78076
vt 0.88032 0.78032
vt 0.88032 0.75655
vt 0.77763 0.94831
vt 0.79594 0.94831
vt 0.77821 0.97207
vt 0.02574 0.01768
vt 0.02478 0.01969
vt 0.02026 0.02008
vt 0.63135 0.31568
vt 0.66491 0.34542
vt 0.88806 0.78908
vt 0.88353 0.78887
vt 0.71581 0.99794
vt 0.00091 0.02059
vt 0.02570 0.01740
vt 0.00722 0.02047
vt 0.98489 0.92518
vt 0.26472 0.04027
vt 0.26535 0.03150
vt 0.01253 0.02123
vt 0.89587 0.78889
vt 0.98400 0.91272
vt 0.89447 0.75615
vt 0.96838 0.76984
vt 0.95565 0.76205
vt 0.96597 0.76083
vt 0.79077 0.97212
vt 0.02311 0.99606
vt 0.95604 0.77177
vt 0.15379 0.00012
vt 0.16370 0.00012
vt 0.15401 0.00089
vt 0.90257 0.75591
vt 0.90380 0.78876
vt 0.99711 0.39225
vt 0.99711 0.38277
vt 0.99834 0.39202
vt 0.00466 0.02219
vt 0.99532 0.25595
vt 0.99532 0.25872
vt 0.99457 0.25618
vt 0.97393 0.85725
vt 0.97438 0.85660
vt 0.98208 0.85712
vt 0.00379 0.57299
vt 0.00488 0.57362
vt 0.00119 0.57346
vt 0.13118 0.01035
vt 0.13062 0.00968
vt 0.14996 0.01055
vt 0.93015 0.03324
vt 0.92111 0.02691
vt 0.93135 0.03142
vt 0.95553 0.75168
vt 0.91307 0.02797
vt 0.96965 0.75149
vt 0.96928 0.75920
vt 0.00049 0.02136
vt 0.93517 0.02532
vt 0.93378 0.03569
vt 0.07145 0.99271
vt 0.05734 0.99229
vt 0.06392 0.99205
vt 0.99322 0.11839
vt 0.99837 0.11885
vt 0.99304 0.11922
vt 0.24379 0.04891
vt 0.99006 0.49636
vt 0.98942 0.49582
vt 0.99502 0.49576
vt 0.55798 0.01881
vt 0.56832 0.01505
vt 0.55672 0.02556
vt 0.91774 0.03066
vt 0.22309 0.19866
vt 0.23542 0.19826
vt 0.22636 0.20333
vt 0.55948 0.01386
vt 0.89012 0.58046
vt 0.89110 0.57492
vt 0.89086 0.59277
vt 0.94836 0.04922
vt 0.93587 0.04314
vt 0.93587 0.02483
vt 0.88999 0.55889
vt 0.18565 0.20353
vt 0.20153 0.19802
vt 0.99896 0.49570
vt 0.07158 0.98800
vt 0.43451 0.90246
vt 0.44845 0.90492
vt 0.43065 0.90342
vt 0.22572 0.13686
vt 0.21532 0.13502
vt 0.23065 0.13512
vt 0.93482 0.03787
vt 0.44891 0.90279
vt 0.41459 0.90317
vt 0.24561 0.13545
vt 0.67466 0.39514
vt 0.66517 0.38622
vt 0.67940 0.39162
vt 0.20549 0.13463
vt 0.18614 0.13635
vt 0.54867 0.19310
vt 0.56451 0.18050
vt 0.56306 0.19310
vt 0.57674 0.01247
vt 0.57642 0.02569
vt 0.53371 0.19256
vt 0.51839 0.19227
vt 0.23503 0.20315
vt 0.05837 0.98757
vt 0.47998 0.18337
vt 0.16195 0.19788
vt 0.56764 0.02619
vt 0.99050 0.14307
vt 0.99686 0.14307
vt 0.99523 0.14408
vt 0.99892 0.48645
vt 0.99895 0.49564
vt 0.56950 0.01223
vt 0.65499 0.37971
vt 0.71757 0.99701
vt 0.71760 0.98794
vt 0.72065 0.98821
vt 0.99714 0.40898
vt 0.99714 0.39941
vt 0.99882 0.40805
vt 0.99387 0.41388
vt 0.99365 0.42074
vt 0.98713 0.42074
vt 0.66135 0.37660
vt 0.25620 0.04396
vt 0.93163 0.04693
vt 0.99367 0.40855
vt 0.67810 0.39377
vt 0.72075 0.99740
vt 0.00023 0.03333
vt 0.66097 0.31653
vt 0.21796 0.84427
vt 0.21857 0.83264
vt 0.23144 0.83264
vt 0.98969 0.48664
vt 0.20932 0.84361
vt 0.21000 0.83219
vt 0.98450 0.41423
vt 0.98450 0.40813
vt 0.98439 0.42099
vt 0.26344 0.04443
vt 0.26209 0.05340
vt 0.50379 0.18984
vt 0.44857 0.20713
vt 0.41582 0.20427
vt 0.13504 0.89750
vt 0.13504 0.90663
vt 0.10217 0.89757
vt 0.59965 0.72567
vt 0.60424 0.74003
vt 0.60162 0.73395
vt 0.91265 0.03708
vt 0.60699 0.72505
vt 0.25355 0.05159
vt 0.61246 0.73768
vt 0.67262 0.38453
vt 0.41600 0.18519
vt 0.66401 0.37779
vt 0.61424 0.74067
vt 0.62105 0.74168
vt 0.13545 0.92168
vt 0.65351 0.73357
vt 0.63147 0.74447
vt 0.91388 0.04935
vt 0.64309 0.74200
vt 0.00405 0.04663
vt 0.93603 0.04949
vt 0.93480 0.04987
vt 0.33225 0.84633
vt 0.33190 0.84232
vt 0.34080 0.84707
vt 0.25360 0.83260
vt 0.80275 0.97157
vt 0.80228 0.94800
vt 0.92343 0.76165
vt 0.90468 0.78206
vt 0.90415 0.75997
vt 0.10266 0.92202
vt 0.00004 0.04797
vt 0.92810 0.04887
vt 0.65279 0.74118
vt 0.25862 0.84628
vt 0.92394 0.77362
vt 0.34471 0.83856
vt 0.35367 0.84702
vt 0.90699 0.72127
vt 0.90736 0.74484
vt 0.90517 0.75303
vt 0.73618 0.41179
vt 0.73736 0.41174
vt 0.73772 0.41587
vt 0.95564 0.99613
vt 0.96409 0.99687
vt 0.95502 0.99730
vt 0.73649 0.42040
vt 0.27350 0.83239
vt 0.37583 0.84696
vt 0.35610 0.83764
vt 0.22906 0.76910
vt 0.22995 0.77924
vt 0.22491 0.76906
vt 0.73781 0.42633
vt 0.33178 0.83992
vt 0.88635 0.75355
vt 0.37486 0.83696
vt 0.39572 0.84673
vt 0.66774 0.31677
vt 0.66918 0.32512
vt 0.00308 0.81419
vt 0.00399 0.81495
vt 0.00314 0.81624
vt 0.73667 0.43139
vt 0.64368 0.71256
vt 0.21446 0.76941
vt 0.20534 0.76956
vt 0.19621 0.76967
vt 0.63465 0.97088
vt 0.64376 0.96977
vt 0.64765 0.97081
vt 0.63515 0.96941
vt 0.02468 0.04660
vt 0.02513 0.04785
vt 0.02207 0.04784
vt 0.92590 0.04985
vt 0.73809 0.43545
vt 0.73844 0.44457
vt 0.92469 0.05175
vt 0.18169 0.77669
vt 0.65474 0.97028
vt 0.91291 0.05213
vt 0.73638 0.43577
vt 0.73891 0.45234
vt 0.92403 0.04862
vt 0.65596 0.73280
vt 0.66247 0.71148
vt 0.65908 0.97094
vt 0.01574 0.04820
vt 0.00587 0.04746
vt 0.18843 0.76996
vt 0.17335 0.77027
vt 0.92447 0.78825
vt 0.90532 0.78958
vt 0.73671 0.45454
vt 0.73793 0.47704
vt 0.73956 0.46741
vt 0.66110 0.73201
vt 0.19710 0.78045
vt 0.89670 0.72117
vt 0.91325 0.05305
vt 0.00923 0.04862
vt 0.88585 0.72123
vt 0.88435 0.75350
vt 0.13497 0.92252
vt 0.15681 0.78251
vt 0.67505 0.69891
vt 0.66323 0.71112
vt 0.66699 0.73146
vt 0.67135 0.73042
vt 0.00436 0.04934
vt 0.67537 0.73013
vt 0.66906 0.71123
vt 0.61632 0.72307
vt 0.61845 0.72097
vt 0.92540 0.05015
vt 0.92404 0.05195
vt 0.91870 0.72963
vt 0.91870 0.72963
vt 0.91870 0.72963
vt 0.91870 0.72963
vt 0.91870 0.72963
vt 0.91870 0.72963
vt 0.91870 0.72963
vt 0.91870 0.72963
vt 0.91870 0.72963
vt 0.91870 0.72963
vt 0.91870 0.72963
vt 0.91870 0.72963
vt 0.91870 0.72963
vt 0.91870 0.72963
vt 0.91870 0.72963
vt 0.91870 0.72963
vt 0.91870 0.72963
vt 0.91870 0.72963
vt 0.91870 0.72963
vt 0.68655 0.96903
vt 0.68655 0.96903
vt 0.68655 0.96903
vt 0.68655 0.96903
vn 0.8362 0.5237 -0.1627
vn 0.9700 0.0451 0.2388
vn 0.9700 0.0451 0.2388
vn 0.9700 0.0451 0.2388
vn 0.5980 0.7745 -0.2061
vn 0.5269 0.7986 -0.2908
vn 0.5781 0.7794 -0.2416
vn 0.6420 -0.1928 -0.7421
vn 0.6788 -0.0377 -0.7334
vn 0.6837 -0.0167 -0.7296
vn 0.1480 -0.9886 -0.0284
vn 0.3005 -0.9537 -0.0101
vn 0.2515 -0.9409 -0.2270
vn 0.6122 -0.4439 -0.6543
vn 0.2691 -0.9463 0.1791
vn 0.2016 -0.9794 0.0125
vn 0.2389 -0.9694 0.0569
vn 0.9984 0.0349 -0.0444
vn 0.9792 0.0318 -0.2005
vn 0.9888 0.0373 -0.1447
vn 0.9733 0.0300 0.2274
vn 0.9749 0.0314 0.2203
vn 0.9876 0.0394 0.1519
vn 0.8205 -0.5388 0.1908
vn 0.8205 -0.5388 0.1908
vn 0.8205 -0.5388 0.1908
vn 0.7006 -0.0218 -0.7133
vn 0.9829 0.0311 0.1814
vn 0.9930 0.0392 -0.1118
vn 0.9970 0.0388 0.0673
vn 0.9823 0.0348 -0.1843
vn 0.1901 -0.9816 0.0209
vn 0.9740 0.0356 0.2236
vn 0.4926 0.8692 0.0425
vn 0.4926 0.8692 0.0425
vn 0.4926 0.8692 0.0425
vn 0.6624 -0.0176 -0.7490
vn 0.6591 -0.0241 -0.7517
vn 0.6962 -0.0115 -0.7177
vn 0.6358 -0.0303 -0.7712
vn 0.9672 0.0321 0.2521
vn 0.1090 -0.9940 -0.0052
vn 0.9900 0.0365 0.1360
vn 0.9875 0.0135 0.1573
vn 0.9932 0.0360 0.1109
vn 0.4286 -0.8042 -0.4119
vn 0.5996 -0.0368 0.7994
vn 0.6778 -0.0446 0.7339
vn 0.6111 -0.0391 0.7906
vn 0.6765 -0.0218 -0.7361
vn 0.1002 -0.9950 -0.0046
vn 0.7030 -0.0230 -0.7108
vn 0.4237 -0.0925 0.9011
vn 0.4059 -0.1038 0.9080
vn 0.3501 -0.1364 0.9267
vn 0.0591 -0.9936 0.0963
vn 0.6081 -0.0329 -0.7932
vn 0.0403 -0.9985 -0.0382
vn 0.3094 -0.1402 0.9405
vn 0.3213 -0.1417 0.9363
vn 0.0724 -0.9943 0.0777
vn 0.5303 -0.6727 -0.5160
vn 0.5303 -0.6727 -0.5160
vn 0.5303 -0.6727 -0.5160
vn 0.6608 -0.0168 -0.7504
vn 0.0735 -0.9967 -0.0336
vn 0.6045 -0.0389 0.7957
vn -0.0625 -0.1881 0.9802
vn -0.0625 -0.1881 0.9802
vn -0.0053 -0.0506 -0.9987
vn -0.0044 -0.0516 -0.9987
vn -0.0094 -0.0459 -0.9989
vn 0.0018 -0.0588 -0.9983
vn -0.0446 -0.9990 0.0094
vn 0.0159 -0.0457 -0.9988
vn 0.0082 -0.0565 -0.9984
vn 0.0101 -0.0593 -0.9982
vn -0.0539 -0.9791 -0.1959
vn -0.0138 -0.9828 -0.1840
vn -0.0575 -0.9976 -0.0394
vn -0.0056 -0.0543 -0.9985
vn -0.1943 -0.9807 0.0209
vn -0.0085 -0.0585 -0.9982
vn -0.0019 -0.0599 -0.9982
vn 0.0054 -0.0953 0.9954
vn 0.0118 -0.0923 0.9957
vn 0.2125 -0.0163 0.9770
vn -0.0101 -0.9032 -0.4292
vn 0.0023 -0.0528 -0.9986
vn -0.3476 -0.9340 0.0829
vn -0.9433 -0.0319 -0.3303
vn -0.9433 -0.0319 -0.3303
vn -0.9433 -0.0319 -0.3303
vn -0.0062 -0.1116 0.9937
vn -0.8777 -0.4780 -0.0352
vn -0.9618 -0.2732 -0.0160
vn -0.9993 -0.0318 -0.0191
vn -0.5006 -0.0591 0.8637
vn -0.5301 -0.0606 0.8457
vn -0.5928 -0.0638 0.8028
vn -0.8604 -0.5094 -0.0133
vn -0.9801 -0.0709 -0.1853
vn -0.9973 -0.0648 -0.0333
vn -0.8765 -0.1039 -0.4701
vn -0.7793 -0.6253 -0.0412
vn -0.9757 -0.0710 -0.2075
vn -0.9788 -0.0662 -0.1940
vn -0.9670 -0.0551 -0.2487
vn -0.9653 -0.0307 -0.2593
vn -0.9642 0.0176 -0.2646
vn -0.9902 -0.1051 0.0916
vn -0.9864 -0.0772 0.1448
vn -0.9754 -0.1649 0.1463
vn -0.1149 -0.0359 0.9927
vn -0.9982 -0.0468 0.0379
vn -0.9979 -0.0552 -0.0328
vn -0.9969 -0.0622 0.0477
vn -0.9348 -0.2208 0.2780
vn -0.5025 -0.8551 -0.1277
vn -0.4365 -0.8946 0.0958
vn -0.4647 -0.8854 0.0107
vn -0.8634 -0.0915 -0.4961
vn -0.8832 -0.0879 0.4607
vn -0.4614 -0.0861 0.8830
vn -0.4614 -0.0861 0.8830
vn -0.4614 -0.0861 0.8830
vn -0.8790 -0.0774 -0.4705
vn -0.9975 -0.0551 -0.0436
vn -0.5781 -0.7743 -0.2574
vn -0.3648 -0.9298 -0.0485
vn -0.6082 -0.7388 -0.2903
vn -0.3404 -0.9399 -0.0266
vn -0.9001 -0.1272 0.4167
vn -0.3662 -0.8903 0.2707
vn -0.9003 -0.3034 0.3120
vn -0.8825 -0.4273 0.1963
vn -0.9962 -0.0590 -0.0642
vn -0.5060 -0.8623 -0.0202
vn -0.4916 -0.8695 -0.0468
vn -0.4985 -0.8608 -0.1026
vn -0.8687 -0.0803 -0.4888
vn -0.8961 -0.0738 0.4376
vn -0.3835 -0.9233 -0.0181
vn 0.8011 0.3348 0.4961
vn 0.8011 0.3348 0.4961
vn 0.8011 0.3348 0.4961
vn -0.0625 -0.1881 0.9802
vn -0.9878 -0.0545 -0.1459
vn 0.8502 0.0277 0.5258
vn 0.8408 0.0394 0.5399
vn 0.8460 0.0322 0.5322
vn 0.4176 -0.8910 0.1783
vn 0.5043 -0.7993 0.3267
vn 0.4231 -0.8849 0.1949
vn 0.8861 0.0467 0.4611
vn 0.3203 0.0545 0.9458
vn 0.1506 0.1515 0.9769
vn 0.0966 0.2447 0.9648
vn 0.8884 0.0470 0.4567
vn 0.6847 -0.0224 -0.7285
vn 0.7124 -0.0099 -0.7017
vn 0.7158 -0.0082 -0.6982
vn 0.2253 0.0575 0.9726
vn 0.2518 0.0909 0.9635
vn 0.5289 0.0674 0.8460
vn 0.9761 0.0301 0.2152
vn 0.9761 0.0301 0.2152
vn 0.9761 0.0301 0.2152
vn 0.3893 0.1135 0.9141
vn 0.3752 0.1177 0.9194
vn 0.4234 -0.8961 0.1329
vn 0.2799 -0.5455 -0.7900
vn 0.2799 -0.5455 -0.7900
vn 0.2799 -0.5455 -0.7900
vn 0.3231 0.0547 0.9448
vn 0.4664 0.1398 0.8735
vn 0.4795 0.1412 0.8661
vn 0.5798 0.0845 0.8104
vn 0.7637 -0.0623 -0.6426
vn 0.7284 -0.0664 -0.6819
vn 0.7254 -0.0625 -0.6855
vn -0.0524 0.4646 0.8840
vn 0.9975 0.0265 -0.0653
vn 0.9982 0.0247 -0.0545
vn 0.9969 0.0243 0.0746
vn 0.7585 -0.0516 -0.6497
vn 0.9987 0.0065 0.0513
vn 0.9990 0.0155 0.0430
vn -0.1978 0.9784 -0.0592
vn -0.1964 0.9799 -0.0349
vn -0.0972 0.9938 0.0540
vn 0.9997 0.0181 0.0164
vn 0.9925 0.0310 0.1186
vn 0.9925 0.0319 0.1182
vn 0.9998 0.0072 0.0211
vn 0.4364 -0.8905 0.1285
vn 0.9919 0.0313 0.1234
vn 0.8610 0.1161 0.4951
vn 0.8540 0.1112 0.5083
vn 0.9083 0.0973 0.4068
vn 0.6993 -0.0221 -0.7145
vn 0.7052 -0.0939 -0.7028
vn 0.7021 -0.0393 -0.7110
vn 0.9908 0.0342 0.1309
vn 0.9915 0.0332 0.1255
vn 0.9902 0.0299 0.1365
vn 0.4997 0.0059 -0.8662
vn 0.5143 0.0053 -0.8576
vn 0.5207 0.0099 -0.8537
vn 0.3288 0.7782 -0.5350
vn 0.2057 0.7501 -0.6286
vn 0.1496 0.7340 -0.6624
vn 0.5749 -0.7324 0.3648
vn 0.5837 -0.7272 0.3611
vn 0.5796 -0.7297 0.3629
vn 0.7608 -0.6481 0.0336
vn 0.7608 -0.6481 0.0336
vn 0.7608 -0.6481 0.0336
vn 0.5312 -0.8363 0.1359
vn 0.7534 -0.0490 -0.6558
vn 0.7516 -0.0438 -0.6582
vn 0.8723 0.1149 0.4754
vn 0.7725 -0.4240 -0.4728
vn 0.7414 -0.2335 -0.6292
vn 0.9883 0.0534 0.1430
vn 0.8532 -0.4617 -0.2426
vn 0.8532 -0.4617 -0.2426
vn 0.8532 -0.4617 -0.2426
vn 0.5918 -0.7224 0.3577
vn -0.2122 0.9770 -0.0190
vn 0.5491 -0.0793 -0.8320
vn -0.4474 0.2513 0.8583
vn -0.2978 0.3141 0.9015
vn -0.1462 0.1848 0.9718
vn 0.6931 -0.0192 -0.7206
vn -0.0110 -0.0870 -0.9961
vn -0.0038 -0.1342 -0.9909
vn -0.0148 -0.1142 -0.9933
vn 0.2410 -0.9627 0.1227
vn 0.2367 -0.9615 0.1393
vn 0.1242 -0.9923 0.0023
vn -0.1009 0.9928 0.0638
vn 0.5271 0.0073 -0.8498
vn 0.6523 0.0303 -0.7574
vn 0.6911 -0.1723 -0.7019
vn 0.6943 -0.2024 -0.6907
vn -0.2779 0.2761 0.9201
vn -0.0015 -0.1300 -0.9915
vn -0.0088 -0.1249 -0.9921
vn -0.0143 -0.1210 -0.9926
vn 0.5171 0.0125 -0.8558
vn 0.1106 -0.9939 0.0008
vn 0.6504 0.0371 -0.7587
vn 0.0013 -0.9558 0.2941
vn 0.0129 -0.9448 0.3274
vn 0.0177 -0.9400 0.3408
vn 0.0055 0.0421 0.9991
vn 0.0054 0.0393 0.9992
vn 0.0001 0.0463 0.9989
vn 0.0140 0.9812 0.1923
vn -0.0009 0.9229 0.3849
vn -0.0023 0.8722 0.4891
vn 0.0133 -0.0185 -0.9997
vn 0.0079 0.0067 -0.9999
vn 0.0110 -0.0415 -0.9991
vn -0.0159 -0.2091 0.9778
vn -0.0098 -0.1602 0.9870
vn 0.0607 0.9968 0.0530
vn -0.0193 -0.1175 -0.9929
vn 0.0083 0.0346 0.9994
vn 0.0019 0.8317 -0.5552
vn -0.0013 -0.0381 -0.9993
vn -0.0013 -0.0381 -0.9993
vn -0.0013 -0.0381 -0.9993
vn 0.0169 0.9897 0.1423
vn -0.0092 -0.0450 -0.9989
vn 0.0024 -0.0478 -0.9989
vn -0.3925 0.0417 -0.9188
vn -0.0183 -0.0749 -0.9970
vn 0.0333 0.3230 -0.9458
vn 0.0062 0.0421 0.9991
vn -0.8786 -0.1010 -0.4668
vn -0.9050 -0.0827 -0.4172
vn -0.8552 -0.2441 -0.4572
vn 0.1086 0.9940 -0.0115
vn -0.0027 -0.9592 0.2828
vn 0.0036 -0.9330 -0.3598
vn -0.0046 -0.9738 -0.2275
vn -0.0043 -0.9723 -0.2338
vn 0.0041 -0.9301 -0.3673
vn -0.8274 -0.5130 0.2285
vn -0.8274 -0.5130 0.2285
vn -0.8274 -0.5130 0.2285
vn -0.4188 -0.8632 0.2821
vn -0.4100 -0.8741 0.2605
vn -0.4018 -0.8834 0.2410
vn -0.0130 0.3404 0.9402
vn -0.0597 -0.9972 -0.0448
vn -0.0451 -0.9978 -0.0494
vn -0.8315 -0.3399 -0.4393
vn -0.8719 -0.1484 -0.4667
vn 0.0008 0.0690 0.9976
vn -0.0130 0.3273 0.9448
vn -0.4331 -0.8433 0.3183
vn -0.3793 0.0420 0.9243
vn 0.0550 0.0734 0.9958
vn -0.1017 0.0790 0.9917
vn -0.8942 -0.1364 -0.4264
vn -0.8951 -0.1372 -0.4242
vn -0.8702 -0.1694 -0.4627
vn -0.8515 -0.1522 -0.5018
vn -0.8983 -0.1160 -0.4237
vn -0.9137 -0.1112 -0.3908
vn -0.9249 -0.1016 -0.3664
vn -0.9616 -0.0858 -0.2608
vn 0.0967 0.0682 0.9930
vn -0.9070 -0.1420 -0.3965
vn 0.1821 0.1182 0.9761
vn 0.0099 -0.0519 -0.9986
vn -0.9098 -0.0876 -0.4056
vn -0.2115 -0.9287 0.3046
vn 0.0930 -0.9491 0.3009
vn -0.0928 -0.9508 0.2954
vn -0.8102 0.0383 0.5848
vn -0.7975 0.0534 0.6009
vn -0.8199 0.0264 0.5719
vn -0.9532 -0.0813 -0.2911
vn 0.1480 0.9824 -0.1144
vn 0.1867 0.9775 -0.0980
vn 0.0681 0.0740 0.9949
vn -0.8897 -0.1240 -0.4393
vn -0.7856 0.0669 0.6151
vn -0.0037 0.0594 0.9982
vn 0.0142 0.0294 0.9995
vn 0.0246 -0.0934 -0.9953
vn -0.8962 -0.0801 -0.4363
vn -0.9933 -0.0686 -0.0935
vn -0.9835 -0.0869 -0.1585
vn -0.8942 -0.1456 -0.4234
vn -0.8976 -0.1677 -0.4076
vn -0.9241 -0.1018 -0.3684
vn 0.0179 0.0556 0.9983
vn -0.0007 -0.9999 0.0108
vn -0.9803 -0.0849 -0.1782
vn -0.9766 -0.0825 -0.1987
vn -0.9981 -0.0575 -0.0225
vn -0.1891 0.0843 0.9783
vn -0.6759 -0.0146 -0.7369
vn -0.0031 0.8177 0.5756
vn -0.8954 -0.0528 -0.4421
vn -0.8029 -0.0293 0.5954
vn -0.7694 -0.0417 0.6374
vn -0.7990 -0.0308 0.6005
vn -0.0211 -0.9643 0.2640
vn -0.2686 0.0786 0.9601
vn 0.0016 0.8346 -0.5509
vn -0.9872 -0.0952 -0.1281
vn -0.9754 -0.0711 -0.2086
vn -0.8260 0.1233 -0.5500
vn -0.2734 0.1163 0.9548
vn -0.9861 -0.0876 -0.1409
vn -0.2686 0.0059 0.9632
vn -0.2404 0.0418 0.9698
vn -0.3959 -0.0073 0.9183
vn -0.2850 0.0942 0.9539
vn -0.8952 -0.1843 -0.4057
vn -0.8866 -0.2072 -0.4135
vn -0.7651 -0.0432 0.6425
vn 0.1518 0.9824 -0.1085
vn -0.8989 -0.0009 -0.4382
vn -0.9868 -0.0708 -0.1456
vn -0.9973 -0.0468 -0.0572
vn -0.9961 -0.0526 -0.0712
vn 0.2112 0.9767 0.0387
vn 0.0186 0.9962 -0.0852
vn 0.2638 0.9133 0.3103
vn -0.0509 -0.9649 0.2575
vn -0.1436 0.0760 0.9867
vn -0.1238 -0.9922 -0.0115
vn -0.9863 0.1260 -0.1061
vn -0.9976 0.0175 -0.0677
vn -0.9947 -0.0863 0.0553
vn -0.9979 0.0609 -0.0239
vn -0.9533 -0.1436 0.2658
vn -0.9637 -0.0667 -0.2587
vn -0.9651 -0.0629 -0.2541
vn -0.9678 -0.0559 -0.2455
vn 0.7274 0.2712 0.6303
vn 0.7274 0.2712 0.6303
vn 0.7274 0.2712 0.6303
vn -0.9974 0.0086 -0.0709
vn -0.9999 0.0099 0.0135
vn -0.9788 0.0240 0.2036
vn -0.9050 0.1253 0.4064
vn -0.8278 -0.0030 0.5610
vn -0.8278 -0.0030 0.5610
vn -0.8278 -0.0030 0.5610
vn -0.9456 -0.3243 -0.0280
vn -0.9792 -0.2026 -0.0061
vn -0.9869 -0.1606 -0.0121
vn -0.2744 0.0259 0.9613
vn -0.8948 -0.0232 -0.4459
vn -0.9689 -0.0529 -0.2417
vn 0.0257 0.6603 0.7506
vn -0.0071 0.6891 0.7246
vn -0.0451 0.7202 0.6923
vn -0.8386 -0.2524 0.4828
vn -0.2063 0.0535 0.9770
vn -0.9950 -0.0725 0.0694
vn -0.9946 -0.0711 0.0757
vn -0.4289 -0.0860 0.8993
vn -0.4379 -0.1396 0.8881
vn -0.4439 -0.1145 0.8888
vn -0.7516 -0.6405 -0.1577
vn -0.9005 -0.4087 -0.1486
vn -0.4196 -0.0747 0.9046
vn -0.1547 0.0431 0.9870
vn -0.1943 0.0265 0.9806
vn -0.8941 -0.0803 -0.4406
vn -0.4166 -0.0271 0.9087
vn -0.1686 0.0241 0.9854
vn -0.9609 -0.2027 -0.1887
vn -0.4176 -0.0268 0.9083
vn -0.1178 0.7731 0.6233
vn -0.9744 -0.0604 -0.2164
vn -0.1601 0.9700 -0.1832
vn -0.8899 -0.0289 -0.4552
vn -0.9943 0.0030 0.1070
vn -0.9943 0.0030 0.1070
vn -0.9943 0.0030 0.1070
vn -0.9130 -0.1885 -0.3617
vn -0.9404 -0.2272 -0.2529
vn -0.8587 -0.4796 -0.1805
vn 0.7372 0.1288 -0.6633
vn 0.4753 0.1819 -0.8608
vn 0.5605 0.1572 -0.8131
vn 0.9272 0.0486 0.3714
vn 0.9492 -0.1108 0.2946
vn 0.9456 -0.1036 0.3083
vn 0.4671 0.1892 -0.8637
vn 0.4448 0.1761 -0.8782
vn 0.6827 0.6597 0.3142
vn 0.6677 0.6749 0.3142
vn 0.4762 0.8250 0.3043
vn 0.9108 0.1877 0.3676
vn 0.0058 -0.9991 -0.0428
vn -0.0064 -1.0000 -0.0066
vn 0.0538 -0.9975 -0.0453
vn 0.9487 -0.1066 0.2978
vn 0.0061 -0.9999 -0.0155
vn 0.4618 0.8337 0.3030
vn 0.7912 0.4247 0.4401
vn -0.0225 0.9841 0.1764
vn -0.0359 0.9887 0.1455
vn -0.0368 0.9885 0.1465
vn 0.6676 0.2559 -0.6992
vn 0.5492 0.2788 -0.7878
vn 0.3736 0.3090 -0.8746
vn 0.9249 0.0449 0.3775
vn 0.9242 0.0197 0.3814
vn 0.9333 -0.0168 0.3586
vn 0.0701 0.9967 -0.0410
vn 0.1705 0.9832 -0.0648
vn 0.3307 0.9384 0.1007
vn 0.4447 0.1827 -0.8768
vn 0.0118 0.9994 -0.0318
vn -0.0108 -0.9999 -0.0120
vn 0.0064 -0.9993 -0.0364
vn 0.3296 0.2715 -0.9042
vn 0.3629 -0.4429 -0.8199
vn 0.3629 -0.4429 -0.8199
vn 0.3629 -0.4429 -0.8199
vn -0.0441 0.9932 0.1075
vn -0.0354 0.9956 0.0863
vn 0.2967 0.1852 -0.9369
vn 0.7551 0.6554 0.0124
vn 0.7551 0.6554 0.0124
vn 0.7551 0.6554 0.0124
vn 0.3269 0.2616 -0.9082
vn -0.5283 0.0472 -0.8477
vn -0.5283 0.0472 -0.8477
vn -0.5283 0.0472 -0.8477
vn -0.9703 -0.0488 0.2368
vn -0.9703 -0.0488 0.2368
vn -0.9703 -0.0488 0.2368
vn -0.4557 0.1238 -0.8815
vn -0.4557 0.1238 -0.8815
vn -0.4557 0.1238 -0.8815
vn -0.6535 0.7547 -0.0581
vn -0.6535 0.7547 -0.0581
vn -0.6535 0.7547 -0.0581
vn -0.9715 0.0004 -0.2371
vn -0.9474 -0.0063 -0.3199
vn -0.9651 0.0168 -0.2613
vn 0.9380 0.1122 0.3278
vn 0.9092 0.2688 0.3180
vn 0.9101 0.2671 0.3167
vn -0.9545 -0.0229 -0.2972
vn 0.0454 0.9600 -0.2763
vn -0.3204 -0.9448 -0.0694
vn 0.0959 0.9088 -0.4061
vn 0.0925 0.9125 -0.3986
vn 0.0991 0.9123 -0.3974
vn -0.3242 0.3321 -0.8858
vn -0.3242 0.3321 -0.8858
vn -0.3242 0.3321 -0.8858
vn -0.9683 -0.0188 -0.2490
vn -0.6420 0.7389 -0.2047
vn -0.6420 0.7389 -0.2047
vn -0.6420 0.7389 -0.2047
vn -0.9754 0.0167 -0.2200
vn -0.9631 -0.0262 -0.2677
vn 0.9949 0.0419 0.0913
vn 0.9963 -0.0100 0.0856
vn 0.9998 0.0018 -0.0214
vn 0.9560 -0.0442 0.2899
vn 0.3004 0.9188 0.2562
vn 0.0923 0.9751 0.2016
vn 0.3417 0.9027 0.2614
vn 0.5412 0.1546 -0.8265
vn 0.8033 0.1425 -0.5782
vn 0.5879 0.1411 -0.7965
vn 0.9712 0.1136 0.2096
vn 0.2731 0.1290 -0.9533
vn -0.9783 0.0088 -0.2071
vn 0.9658 0.2418 0.0934
vn -0.0006 0.9865 0.1636
vn 0.0460 0.9436 -0.3280
vn 0.0978 0.9220 -0.3746
vn 0.0222 -0.9990 -0.0382
vn 0.0052 -0.9999 0.0102
vn 0.2794 -0.3979 -0.8738
vn 0.2794 -0.3979 -0.8738
vn 0.2794 -0.3979 -0.8738
vn 0.0890 0.0439 -0.9951
vn 0.0890 0.0439 -0.9951
vn 0.0890 0.0439 -0.9951
vn 0.9073 0.3267 0.2649
vn 0.9677 0.0358 0.2496
vn 0.9557 0.2626 -0.1329
vn 0.3905 -0.8739 -0.2893
vn 0.3905 -0.8739 -0.2893
vn 0.3905 -0.8739 -0.2893
vn -0.0058 -1.0000 0.0003
vn -0.0007 0.1240 -0.9923
vn 0.8897 0.2615 -0.3743
vn 0.7188 -0.6773 0.1567
vn 0.7188 -0.6773 0.1567
vn 0.7188 -0.6773 0.1567
vn 0.3253 0.1901 -0.9263
vn 0.3320 0.1705 -0.9278
vn 0.3028 0.2522 -0.9191
vn -0.0062 0.9939 0.1104
vn 0.9282 0.1914 0.3190
vn 0.9439 0.0825 0.3197
vn 0.9440 0.0865 0.3183
vn -0.0016 -1.0000 0.0076
vn 0.0167 0.9992 -0.0361
vn 0.1827 0.1119 -0.9768
vn 0.2950 0.1345 0.9460
vn 0.2950 0.1345 0.9460
vn 0.2950 0.1345 0.9460
vn 0.0596 0.9548 -0.2912
vn 0.9759 0.0053 0.2181
vn 0.9990 0.0068 -0.0436
vn 0.9563 0.0203 0.2918
vn 0.1695 0.0230 -0.9853
vn 0.1706 0.0261 -0.9850
vn 0.1645 0.0270 -0.9860
vn 0.2369 0.9625 0.1320
vn 0.2753 0.9478 0.1608
vn 0.1253 0.9907 0.0538
vn 0.0051 -1.0000 -0.0025
vn 0.0027 -1.0000 0.0044
vn 0.9444 0.0059 0.3288
vn 0.9548 -0.0178 0.2967
vn 0.0109 0.9892 0.1463
vn 0.6431 0.7201 0.2607
vn 0.7242 0.6339 0.2713
vn 0.4743 0.8610 0.1836
vn 0.0708 0.1079 -0.9916
vn -0.0026 0.9995 -0.0326
vn 0.0163 0.9988 -0.0455
vn 0.1592 0.9850 0.0669
vn 0.9468 -0.0195 0.3212
vn -0.2656 0.1039 -0.9585
vn 0.9478 0.0130 0.3186
vn -0.9632 -0.0408 -0.2656
vn -0.9738 -0.0444 -0.2232
vn -0.9789 -0.0157 -0.2038
vn 0.1653 0.0290 -0.9858
vn 0.2938 0.2759 -0.9152
vn -0.9617 -0.0441 -0.2706
vn -0.4844 -0.8592 -0.1648
vn -0.4844 -0.8592 -0.1648
vn -0.4844 -0.8592 -0.1648
vn 0.9449 0.0075 0.3272
vn 0.9453 -0.0020 0.3262
vn -0.8482 0.5236 -0.0799
vn -0.8482 0.5236 -0.0799
vn -0.8482 0.5236 -0.0799
vn 0.1250 0.9846 0.1219
vn -0.5241 0.2589 -0.8114
vn -0.5241 0.2589 -0.8114
vn -0.5241 0.2589 -0.8114
vn -0.5041 0.8505 -0.1498
vn -0.5041 0.8505 -0.1498
vn -0.5041 0.8505 -0.1498
vn 0.0050 0.4369 -0.8995
vn 0.0050 0.4369 -0.8995
vn 0.0050 0.4369 -0.8995
vn 0.4322 -0.0294 0.9013
vn 0.4322 -0.0294 0.9013
vn 0.4322 -0.0294 0.9013
vn -0.0860 0.9940 0.0677
vn 0.0405 0.9990 0.0192
vn 0.0265 0.9996 0.0028
vn -0.9861 -0.0370 -0.1622
vn 0.0228 0.9989 0.0417
vn -0.9873 -0.0005 -0.1589
vn -0.9772 0.0874 -0.1936
vn 0.2559 0.9494 0.1821
vn 0.0918 0.9955 -0.0253
vn 0.0594 0.9659 -0.2519
vn 0.2932 0.0148 -0.9559
vn 0.2552 -0.0101 -0.9668
vn 0.3518 0.0009 -0.9361
vn 0.9114 0.1108 -0.3964
vn 0.9114 0.1108 -0.3964
vn 0.9114 0.1108 -0.3964
vn 0.1015 0.9050 -0.4131
vn 0.3878 0.9002 0.1982
vn 0.0995 0.9803 0.1706
vn 0.2729 0.9424 0.1935
vn 0.9604 -0.0492 0.2743
vn 0.9614 -0.0305 0.2736
vn 0.9660 -0.0242 0.2576
vn 0.1055 0.9940 0.0299
vn 0.6889 -0.0531 -0.7229
vn 0.6646 -0.1060 -0.7396
vn 0.6912 -0.0729 -0.7190
vn 0.9558 -0.0757 0.2842
vn 0.9562 0.0684 0.2847
vn 0.8829 0.0450 0.4673
vn 0.9597 0.0699 0.2723
vn 0.0752 0.9031 -0.4228
vn 0.0784 0.9025 -0.4236
vn 0.0938 0.8991 -0.4275
vn 0.8775 0.0435 0.4776
vn 0.7337 -0.0562 -0.6771
vn 0.7346 -0.0531 -0.6764
vn 0.5836 0.7706 0.2563
vn 0.2732 0.0064 -0.9619
vn 0.0458 0.0751 0.9961
vn 0.3357 0.1074 0.9358
vn -0.1458 0.1211 0.9819
vn 0.3747 0.0912 0.9226
vn 0.2413 0.0732 0.9677
vn 0.3973 0.0810 0.9141
vn 0.0006 0.9797 -0.2004
vn 0.3512 0.1092 0.9299
vn -0.1670 0.1267 0.9778
vn 0.4007 0.0795 0.9128
vn 0.0377 -0.9987 -0.0355
vn 0.0149 -0.9999 -0.0062
vn 0.0086 -0.9984 -0.0556
vn 0.5229 0.0946 0.8471
vn 0.5292 0.0950 0.8432
vn 0.9999 0.0132 0.0067
vn 1.0000 0.0072 0.0012
vn 1.0000 0.0012 -0.0053
vn 0.9584 -0.0049 0.2854
vn 0.9675 0.0009 0.2530
vn 0.9999 0.0066 -0.0086
vn 0.9997 0.0160 0.0169
vn 0.6463 -0.1212 -0.7534
vn 0.2450 -0.0111 -0.9695
vn 0.9997 0.0171 0.0197
vn 0.7332 -0.0566 -0.6777
vn 0.9701 -0.0132 0.2422
vn 0.1266 -0.5223 -0.8433
vn 0.1266 -0.5223 -0.8433
vn 0.1266 -0.5223 -0.8433
vn -0.0351 0.9870 0.1571
vn -0.0658 0.9906 0.1197
vn 0.9431 -0.1028 0.3161
vn 0.0077 -0.9999 -0.0098
vn 0.2060 0.3280 -0.9219
vn 0.2140 0.3600 -0.9081
vn 0.2119 0.3517 -0.9118
vn 0.4875 -0.8500 0.1994
vn 0.4875 -0.8500 0.1994
vn 0.4875 -0.8500 0.1994
vn 0.2582 0.1398 -0.9559
vn 0.2489 0.1489 -0.9570
vn 0.1443 0.1195 -0.9823
vn -0.0495 -0.9988 -0.0039
vn 0.0628 0.9581 -0.2795
vn -0.0618 0.9943 -0.0865
vn 0.2102 0.1643 -0.9638
vn 0.0993 -0.9140 -0.3933
vn 0.2040 0.3201 -0.9252
vn -0.0210 0.9864 0.1632
vn -0.0064 -0.9999 -0.0102
vn -0.0031 -0.1351 -0.9908
vn 0.0020 -0.1401 -0.9901
vn -0.0003 -0.1053 -0.9944
vn -0.0008 0.9786 0.2056
vn -0.0129 -0.1574 -0.9874
vn -0.0036 -0.1693 -0.9856
vn 0.3621 0.2025 -0.9099
vn 0.2170 0.1836 -0.9588
vn -0.0105 0.0485 -0.9988
vn -0.0177 0.9998 -0.0095
vn 0.0180 0.9992 -0.0352
vn -0.0112 0.0441 0.9990
vn -0.0300 0.0476 0.9984
vn -0.0036 0.0426 0.9991
vn -0.1592 0.0109 0.9872
vn -0.1972 0.0000 0.9804
vn -0.1927 0.0104 0.9812
vn -0.9663 0.0061 -0.2574
vn -0.9688 0.0112 -0.2476
vn -0.9544 0.0118 -0.2984
vn 0.0077 0.9925 0.1221
vn -0.9772 0.0031 -0.2125
vn 0.0597 0.9609 -0.2704
vn -0.9819 0.0211 -0.1882
vn -0.4774 -0.8740 -0.0904
vn 0.0011 0.0417 0.9991
vn -0.8262 -0.5488 -0.1273
vn -0.9790 0.0886 -0.1834
vn -0.9794 0.0403 -0.1981
vn -0.3758 0.0087 0.9267
vn -0.9507 0.1462 -0.2736
vn -0.9170 0.3039 -0.2583
vn -0.0869 0.9711 0.2225
vn -0.9388 0.2242 -0.2614
vn -0.2046 0.9713 0.1209
vn 0.0498 0.9080 -0.4161
vn -0.0674 0.9945 -0.0807
vn -0.7739 -0.1286 -0.6201
vn -0.8103 -0.1003 -0.5773
vn -0.8187 -0.1034 -0.5649
vn -0.0021 -0.1038 -0.9946
vn 0.1709 0.0281 -0.9849
vn 0.1727 0.0272 -0.9846
vn -0.2015 -0.1419 0.9691
vn -0.1865 -0.1503 0.9709
vn -0.2083 -0.1352 0.9687
vn -0.1975 0.0172 0.9802
vn -0.1856 0.9710 0.1509
vn -0.0729 0.9965 -0.0399
vn -0.9417 0.2020 -0.2691
vn -0.0024 -0.1032 -0.9947
vn -0.1949 -0.1461 0.9699
vn -0.8326 -0.0990 -0.5449
vn -0.8452 -0.1079 -0.5234
vn -0.9396 0.0095 -0.3421
vn -0.8470 0.0129 -0.5314
vn -0.9419 0.0230 -0.3352
vn -0.1464 0.0714 0.9866
vn -0.1696 0.0773 0.9825
vn -0.0639 0.0519 0.9966
vn -0.6857 0.2465 0.6849
vn -0.6857 0.2465 0.6849
vn -0.6857 0.2465 0.6849
vn -0.0277 0.0592 0.9979
vn -0.0036 -0.1006 -0.9949
vn -0.8554 -0.1199 -0.5039
vn -0.8513 -0.1052 -0.5141
vn -0.9520 -0.0381 -0.3036
vn -0.9492 -0.0841 -0.3032
vn -0.9430 -0.0856 -0.3216
vn -0.0153 0.0610 0.9980
vn -0.8290 -0.0880 -0.5523
vn -0.9966 0.0048 -0.0820
vn -0.8564 -0.1178 -0.5027
vn -0.8556 -0.1238 -0.5026
vn -0.0105 -0.9999 -0.0017
vn 0.2540 -0.9656 0.0551
vn 0.0144 -0.9443 0.3288
vn 0.0144 -0.9443 0.3288
vn 0.0144 -0.9443 0.3288
vn 0.0029 0.0752 0.9972
vn -0.9476 0.1229 -0.2949
vn -0.9455 -0.0961 -0.3112
vn -0.9517 -0.0865 -0.2945
vn -0.9448 -0.0869 -0.3159
vn -0.9971 -0.0741 -0.0185
vn -0.9671 -0.0965 0.2355
vn -0.9304 -0.0636 0.3610
vn -0.9964 -0.0711 -0.0452
vn -0.4152 0.9024 -0.1157
vn -0.4236 0.8975 -0.1230
vn -0.3982 0.9120 -0.0983
vn -0.1488 0.9874 -0.0546
vn 0.0238 0.0768 0.9968
vn 0.0135 0.0454 0.9989
vn -0.1662 0.9844 -0.0574
vn -0.9771 -0.0676 -0.2017
vn -0.8617 -0.0641 0.5033
vn -0.3080 0.9507 -0.0368
vn -0.3167 0.0806 0.9451
vn -0.2138 0.0468 0.9758
vn -0.2958 0.9475 -0.1212
vn -0.9489 0.1252 -0.2896
vn -0.9676 -0.1905 -0.1658
vn -0.8585 -0.0642 0.5088
vn -0.3549 0.9318 -0.0767
vn -0.4504 0.8927 -0.0138
vn -0.9264 -0.0676 -0.3704
vn -0.9327 -0.0862 -0.3503
vn -0.2038 -0.1349 0.9697
vn -0.1873 -0.1478 0.9711
vn -0.2353 0.0351 0.9713
vn -0.1036 0.0514 0.9933
vn -0.0025 0.0669 0.9978
vn -0.9407 0.1062 -0.3221
vn -0.9917 -0.0652 -0.1105
vn -0.9412 0.0038 -0.3377
vn -0.5054 0.8481 -0.1588
vn -0.2224 0.9743 -0.0356
vn -0.9504 0.0064 -0.3109
vn -0.9863 -0.0078 0.1645
vn -0.6021 0.0173 0.7983
vn -0.9964 -0.0508 -0.0672
vn -0.8513 -0.4641 -0.2447
vn -0.8794 -0.4582 -0.1290
vn -0.9364 0.1033 -0.3353
vn -0.9893 0.0430 -0.1395
vn -0.5021 0.8645 -0.0241
vn -0.9998 -0.0043 0.0190
vn -0.9994 -0.0341 0.0102
vn -0.9868 -0.0492 -0.1543
vn -0.9793 -0.1662 -0.1158
vn -0.2545 0.9611 -0.1076
vn -0.1853 0.9797 -0.0762
vn 0.0000 1.0000 0.0000
vn 0.0000 1.0000 0.0000
vn 0.0000 1.0000 0.0000
vn 0.0000 1.0000 0.0000
vn 0.0000 1.0000 0.0000
vn 0.0000 1.0000 0.0000
vn 0.0000 1.0000 0.0000
vn 0.0000 1.0000 0.0000
vn 0.0000 1.0000 0.0000
vn 0.0000 1.0000 0.0000
vn 0.0000 1.0000 0.0000
vn 0.0000 1.0000 0.0000
vn 0.0000 1.0000 0.0000
vn 0.0000 1.0000 0.0000
vn 0.0000 1.0000 0.0000
vn 0.0000 1.0000 0.0000
vn 0.0000 1.0000 0.0000
vn 0.0000 1.0000 0.0000
vn 0.0000 1.0000 0.0000
vn 0.0000 1.0000 0.0000
vn 0.0000 1.0000 0.0000
vn 0.0000 1.0000 0.0000
vn 0.0000 1.0000 0.0000
f 434/434/434 435/435/435 436/436/436
f 437/437/437 438/438/438 439/439/439
f 435/435/435 440/440/440 441/441/441
f 436/436/436 435/435/435 441/441/441
f 442/442/442 443/443/443 444/444/444
f 437/437/437 439/439/439 445/445/445
f 446/446/446 447/447/447 448/448/448
f 437/437/437 449/449/449 438/438/438
f 447/447/447 450/450/450 448/448/448
f 444/444/444 443/443/443 451/451/451
f 437/437/437 445/445/445 452/452/452
f 453/453/453 454/454/454 455/455/455
f 456/456/456 457/457/457 458/458/458
f 437/437/437 459/459/459 460/460/460
f 449/449/449 437/437/437 461/461/461
f 460/460/460 461/461/461 437/437/437
f 462/462/462 463/463/463 464/464/464
f 440/440/440 465/465/465 441/441/441
f 463/463/463 462/462/462 466/466/466
f 467/467/467 468/468/468 447/447/447
f 469/469/469 458/458/458 457/457/457
f 470/470/470 471/471/471 472/472/472
f 473/473/473 454/454/454 474/474/474
f 465/465/465 475/475/475 441/441/441
f 476/476/476 477/477/477 478/478/478
f 457/457/457 479/479/479 469/469/469
f 455/455/455 454/454/454 473/473/473
f 480/480/480 481/481/481 482/482/482
f 483/483/483 484/484/484 485/485/485
f 486/486/486 487/487/487 488/488/488
f 489/489/489 490/490/490 491/491/491
f 492/492/492 493/493/493 494/494/494
f 495/495/495 496/496/496 497/497/497
f 492/492/492 498/498/498 493/493/493
f 495/495/495 460/460/460 496/496/496
f 499/499/499 463/463/463 466/466/466
f 450/450/450 447/447/447 468/468/468
f 450/450/450 468/468/468 500/500/500
f 501/501/501 502/502/502 503/503/503
f 504/504/504 505/505/505 506/506/506
f 494/494/494 507/507/507 492/492/492
f 508/508/508 509/509/509 510/510/510
f 507/507/507 511/511/511 512/512/512
f 499/499/499 502/502/502 463/463/463
f 507/507/507 494/494/494 511/511/511
f 513/513/513 514/514/514 515/515/515
f 515/515/515 516/516/516 513/513/513
f 517/517/517 518/518/518 519/519/519
f 520/520/520 521/521/521 522/522/522
f 513/513/513 516/516/516 523/523/523
f 524/524/524 520/520/520 522/522/522
f 512/512/512 511/511/511 525/525/525
f 460/460/460 495/495/495 461/461/461
f 513/513/513 523/523/523 526/526/526
f 519/519/519 518/518/518 527/527/527
f 499/499/499 528/528/528 503/503/503
f 529/529/529 501/501/501 503/503/503
f 530/530/530 531/531/531 468/468/468
f 532/532/532 533/533/533 534/534/534
f 535/535/535 536/536/536 537/537/537
f 503/503/503 502/502/502 499/499/499
f 526/526/526 523/523/523 538/538/538
f 538/538/538 539/539/539 540/540/540
f 541/541/541 542/542/542 543/543/543
f 530/530/530 544/544/544 531/531/531
f 526/526/526 538/538/538 540/540/540
f 520/520/520 524/524/524 545/545/545
f 546/546/546 526/526/526 540/540/540
f 547/547/547 548/548/548 549/549/549
f 550/550/550 551/551/551 552/552/552
f 527/527/527 518/518/518 553/553/553
f 554/554/554 495/495/495 497/497/497
f 461/461/461 555/555/555 556/556/556
f 461/461/461 495/495/495 555/555/555
f 544/544/544 557/557/557 531/531/531
f 467/467/467 530/530/530 468/468/468
f 558/558/558 553/553/553 518/518/518
f 524/524/524 559/559/559 545/545/545
f 560/560/560 561/561/561 562/562/562
f 528/528/528 563/563/563 503/503/503
f 564/564/564 565/565/565 566/566/566
f 567/567/567 568/568/568 569/569/569
f 570/570/570 571/571/571 572/572/572
f 573/573/573 574/574/574 467/467/467
f 564/564/564 575/575/575 576/576/576
f 527/527/527 553/553/553 577/577/577
f 578/578/578 579/579/579 580/580/580
f 545/545/545 559/559/559 581/581/581
f 582/582/582 528/528/528 583/583/583
f 570/570/570 572/572/572 584/584/584
f 564/564/564 585/585/585 575/575/575
f 545/545/545 581/581/581 586/586/586
f 566/566/566 587/587/587 564/564/564
f 588/588/588 589/589/589 590/590/590
f 591/591/591 569/569/569 568/568/568
f 592/592/592 550/550/550 552/552/552
f 570/570/570 584/584/584 580/580/580
f 589/589/589 588/588/588 593/593/593
f 594/594/594 595/595/595 596/596/596
f 564/564/564 587/587/587 597/597/597
f 563/563/563 528/528/528 582/582/582
f 585/585/585 564/564/564 598/598/598
f 599/599/599 600/600/600 601/601/601
f 149/149/149 150/150/150 151/151/151
f 580/580/580 584/584/584 602/602/602
f 603/603/603 604/604/604 605/605/605
f 606/606/606 607/607/607 608/608/608
f 609/609/609 610/610/610 611/611/611
f 612/612/612 613/613/613 614/614/614
f 615/615/615 616/616/616 617/617/617
f 589/589/589 618/618/618 590/590/590
f 615/615/615 619/619/619 616/616/616
f 564/564/564 597/597/597 598/598/598
f 590/590/590 620/620/620 621/621/621
f 618/618/618 620/620/620 590/590/590
f 580/580/580 622/622/622 578/578/578
f 623/623/623 624/624/624 617/617/617
f 580/580/580 602/602/602 622/622/622
f 625/625/625 626/626/626 627/627/627
f 628/628/628 629/629/629 630/630/630
f 631/631/631 503/503/503 563/563/563
f 632/632/632 633/633/633 634/634/634
f 616/616/616 623/623/623 617/617/617
f 152/152/152 153/153/153 154/154/154
f 635/635/635 636/636/636 637/637/637
f 155/155/155 151/151/151 150/150/150
f 638/638/638 619/619/619 615/615/615
f 639/639/639 640/640/640 641/641/641
f 156/156/156 157/157/157 158/158/158
f 155/155/155 150/150/150 159/159/159
f 635/635/635 642/642/642 636/636/636
f 643/643/643 644/644/644 645/645/645
f 160/160/160 161/161/161 162/162/162
f 646/646/646 647/647/647 648/648/648
f 649/649/649 644/644/644 643/643/643
f 641/641/641 650/650/650 651/651/651
f 632/632/632 634/634/634 652/652/652
f 627/627/627 653/653/653 625/625/625
f 654/654/654 655/655/655 656/656/656
f 657/657/657 658/658/658 659/659/659
f 163/163/163 164/164/164 165/165/165
f 623/623/623 660/660/660 624/624/624
f 655/655/655 654/654/654 661/661/661
f 656/656/656 662/662/662 654/654/654
f 659/659/659 663/663/663 657/657/657
f 8/8/8 9/9/9 10/10/10
f 166/166/166 167/167/167 168/168/168
f 664/664/664 665/665/665 666/666/666
f 653/653/653 627/627/627 626/626/626
f 657/657/657 667/667/667 658/658/658
f 667/667/667 657/657/657 668/668/668
f 165/165/165 169/169/169 170/170/170
f 152/152/152 154/154/154 171/171/171
f 172/172/172 173/173/173 174/174/174
f 175/175/175 156/156/156 158/158/158
f 176/176/176 163/163/163 177/177/177
f 669/669/669 670/670/670 671/671/671
f 636/636/636 672/672/672 673/673/673
f 165/165/165 178/178/178 169/169/169
f 165/165/165 164/164/164 178/178/178
f 670/670/670 669/669/669 674/674/674
f 179/179/179 180/180/180 181/181/181
f 670/670/670 674/674/674 675/675/675
f 641/641/641 640/640/640 676/676/676
f 653/653/653 626/626/626 677/677/677
f 163/163/163 176/176/176 164/164/164
f 158/158/158 157/157/157 182/182/182
f 675/675/675 678/678/678 670/670/670
f 650/650/650 679/679/679 651/651/651
f 183/183/183 184/184/184 185/185/185
f 186/186/186 179/179/179 181/181/181
f 184/184/184 187/187/187 185/185/185
f 680/680/680 637/637/637 636/636/636
f 185/185/185 187/187/187 188/188/188
f 189/189/189 190/190/190 191/191/191
f 192/192/192 185/185/185 188/188/188
f 193/193/193 194/194/194 185/185/185
f 195/195/195 185/185/185 192/192/192
f 196/196/196 152/152/152 171/171/171
f 681/681/681 682/682/682 683/683/683
f 11/11/11 12/12/12 13/13/13
f 185/185/185 195/195/195 197/197/197
f 8/8/8 14/14/14 9/9/9
f 198/198/198 199/199/199 200/200/200
f 15/15/15 16/16/16 17/17/17
f 18/18/18 19/19/19 20/20/20
f 201/201/201 202/202/202 203/203/203
f 641/641/641 651/651/651 639/639/639
f 21/21/21 22/22/22 23/23/23
f 636/636/636 673/673/673 680/680/680
f 197/197/197 204/204/204 205/205/205
f 197/197/197 206/206/206 204/204/204
f 24/24/24 25/25/25 26/26/26
f 207/207/207 208/208/208 209/209/209
f 8/8/8 10/10/10 27/27/27
f 23/23/23 28/28/28 21/21/21
f 18/18/18 29/29/29 30/30/30
f 210/210/210 211/211/211 212/212/212
f 19/19/19 18/18/18 31/31/31
f 18/18/18 20/20/20 29/29/29
f 213/213/213 214/214/214 215/215/215
f 634/634/634 684/684/684 685/685/685
f 11/11/11 32/32/32 12/12/12
f 672/672/672 636/636/636 686/686/686
f 216/216/216 217/217/217 218/218/218
f 171/171/171 219/219/219 196/196/196
f 687/687/687 530/530/530 467/467/467
f 634/634/634 633/633/633 684/684/684
f 688/688/688 689/689/689 690/690/690
f 32/32/32 16/16/16 15/15/15
f 220/220/220 186/186/186 181/181/181
f 221/221/221 186/186/186 220/220/220
f 18/18/18 30/30/30 33/33/33
f 11/11/11 16/16/16 32/32/32
f 34/34/34 35/35/35 36/36/36
f 198/198/198 200/200/200 222/222/222
f 37/37/37 38/38/38 39/39/39
f 38/38/38 37/37/37 40/40/40
f 202/202/202 223/223/223 224/224/224
f 222/222/222 200/200/200 225/225/225
f 197/197/197 205/205/205 185/185/185
f 226/226/226 227/227/227 228/228/228
f 193/193/193 185/185/185 205/205/205
f 41/41/41 18/18/18 33/33/33
f 691/691/691 692/692/692 693/693/693
f 229/229/229 215/215/215 214/214/214
f 189/189/189 191/191/191 230/230/230
f 203/203/203 161/161/161 201/201/201
f 203/203/203 202/202/202 224/224/224
f 694/694/694 695/695/695 696/696/696
f 697/697/697 665/665/665 687/687/687
f 698/698/698 631/631/631 563/563/563
f 231/231/231 181/181/181 180/180/180
f 11/11/11 13/13/13 42/42/42
f 43/43/43 28/28/28 44/44/44
f 23/23/23 45/45/45 28/28/28
f 232/232/232 233/233/233 234/234/234
f 624/624/624 660/660/660 699/699/699
f 161/161/161 235/235/235 201/201/201
f 235/235/235 161/161/161 160/160/160
f 2/2/2 3/3/3 4/4/4
f 28/28/28 45/45/45 44/44/44
f 697/697/697 666/666/666 665/665/665
f 697/697/697 687/687/687 467/467/467
f 694/694/694 696/696/696 700/700/700
f 236/236/236 237/237/237 238/238/238
f 239/239/239 240/240/240 241/241/241
f 46/46/46 13/13/13 12/12/12
f 47/47/47 48/48/48 49/49/49
f 242/242/242 191/191/191 190/190/190
f 10/10/10 9/9/9 50/50/50
f 208/208/208 243/243/243 209/209/209
f 701/701/701 664/664/664 666/666/666
f 702/702/702 688/688/688 690/690/690
f 622/622/622 602/602/602 703/703/703
f 574/574/574 573/573/573 704/704/704
f 705/705/705 706/706/706 707/707/707
f 42/42/42 51/51/51 11/11/11
f 244/244/244 245/245/245 246/246/246
f 232/232/232 234/234/234 247/247/247
f 697/697/697 467/467/467 574/574/574
f 684/684/684 633/633/633 708/708/708
f 705/705/705 709/709/709 710/710/710
f 696/696/696 711/711/711 712/712/712
f 696/696/696 713/713/713 711/711/711
f 714/714/714 715/715/715 698/698/698
f 248/248/248 249/249/249 250/250/250
f 251/251/251 209/209/209 243/243/243
f 1/1/1 7/7/7 5/5/5
f 696/696/696 712/712/712 700/700/700
f 241/241/241 252/252/252 239/239/239
f 5/5/5 7/7/7 6/6/6
f 27/27/27 10/10/10 52/52/52
f 53/53/53 54/54/54 55/55/55
f 253/253/253 245/245/245 244/244/244
f 716/716/716 717/717/717 718/718/718
f 719/719/719 720/720/720 721/721/721
f 254/254/254 255/255/255 256/256/256
f 17/17/17 56/56/56 15/15/15
f 722/722/722 723/723/723 724/724/724
f 638/638/638 725/725/725 619/619/619
f 257/257/257 258/258/258 259/259/259
f 726/726/726 723/723/723 722/722/722
f 10/10/10 50/50/50 57/57/57
f 51/51/51 42/42/42 58/58/58
f 59/59/59 55/55/55 60/60/60
f 705/705/705 710/710/710 706/706/706
f 260/260/260 261/261/261 262/262/262
f 56/56/56 61/61/61 15/15/15
f 715/715/715 727/727/727 698/698/698
f 728/728/728 723/723/723 726/726/726
f 62/62/62 63/63/63 64/64/64
f 727/727/727 631/631/631 698/698/698
f 40/40/40 37/37/37 65/65/65
f 263/263/263 264/264/264 265/265/265
f 60/60/60 55/55/55 54/54/54
f 697/697/697 729/729/729 666/666/666
f 730/730/730 716/716/716 718/718/718
f 266/266/266 267/267/267 234/234/234
f 58/58/58 42/42/42 66/66/66
f 697/697/697 731/731/731 729/729/729
f 191/191/191 242/242/242 268/268/268
f 732/732/732 728/728/728 733/733/733
f 721/721/721 720/720/720 734/734/734
f 726/726/726 835/835/835 728/728/728
f 250/250/250 249/249/249 269/269/269
f 733/733/733 728/728/728 835/835/835
f 835/835/835 735/735/735 733/733/733
f 49/49/49 67/67/67 47/47/47
f 147/147/147 68/68/68 69/69/69
f 733/733/733 735/735/735 736/736/736
f 725/725/725 638/638/638 737/737/737
f 259/259/259 258/258/258 270/270/270
f 738/738/738 736/736/736 735/735/735
f 703/703/703 602/602/602 739/739/739
f 212/212/212 211/211/211 271/271/271
f 272/272/272 273/273/273 274/274/274
f 647/647/647 646/646/646 740/740/740
f 70/70/70 71/71/71 72/72/72
f 699/699/699 660/660/660 741/741/741
f 275/275/275 261/261/261 260/260/260
f 742/742/742 743/743/743 744/744/744
f 705/705/705 707/707/707 745/745/745
f 746/746/746 591/591/591 747/747/747
f 748/748/748 749/749/749 750/750/750
f 71/71/71 70/70/70 73/73/73
f 56/56/56 74/74/74 61/61/61
f 721/721/721 734/734/734 751/751/751
f 739/739/739 752/752/752 703/703/703
f 699/699/699 741/741/741 753/753/753
f 735/735/735 754/754/754 738/738/738
f 591/591/591 568/568/568 747/747/747
f 745/745/745 755/755/755 705/705/705
f 748/748/748 756/756/756 749/749/749
f 75/75/75 76/76/76 77/77/77
f 744/744/744 743/743/743 757/757/757
f 276/276/276 277/277/277 236/236/236
f 278/278/278 277/277/277 276/276/276
f 66/66/66 78/78/78 58/58/58
f 835/835/835 836/836/836 735/735/735
f 758/758/758 744/744/744 757/757/757
f 759/759/759 760/760/760 761/761/761
f 762/762/762 763/763/763 764/764/764
f 276/276/276 236/236/236 279/279/279
f 280/280/280 264/264/264 263/263/263
f 765/765/765 766/766/766 767/767/767
f 764/764/764 768/768/768 762/762/762
f 769/769/769 755/755/755 745/745/745
f 770/770/770 758/758/758 771/771/771
f 772/772/772 773/773/773 774/774/774
f 757/757/757 771/771/771 758/758/758
f 764/764/764 775/775/775 768/768/768
f 281/281/281 258/258/258 257/257/257
f 757/757/757 743/743/743 776/776/776
f 761/761/761 777/777/777 759/759/759
f 770/770/770 778/778/778 779/779/779
f 780/780/780 781/781/781 574/574/574
f 782/782/782 783/783/783 784/784/784
f 775/775/775 785/785/785 768/768/768
f 735/735/735 836/836/836 786/786/786
f 787/787/787 774/774/774 773/773/773
f 788/788/788 773/773/773 789/789/789
f 790/790/790 791/791/791 792/792/792
f 793/793/793 791/791/791 790/790/790
f 788/788/788 787/787/787 773/773/773
f 794/794/794 795/795/795 796/796/796
f 797/797/797 753/753/753 741/741/741
f 282/282/282 283/283/283 284/284/284
f 775/775/775 798/798/798 785/785/785
f 285/285/285 268/268/268 242/242/242
f 798/798/798 799/799/799 785/785/785
f 286/286/286 255/255/255 254/254/254
f 79/79/79 80/80/80 61/61/61
f 741/741/741 800/800/800 797/797/797
f 789/789/789 773/773/773 801/801/801
f 802/802/802 792/792/792 791/791/791
f 725/725/725 737/737/737 803/803/803
f 785/785/785 799/799/799 804/804/804
f 81/81/81 77/77/77 76/76/76
f 287/287/287 288/288/288 289/289/289
f 287/287/287 289/289/289 290/290/290
f 238/238/238 279/279/279 236/236/236
f 804/804/804 799/799/799 805/805/805
f 837/837/837 803/803/803 806/806/806
f 807/807/807 735/735/735 808/808/808
f 792/792/792 802/802/802 809/809/809
f 61/61/61 74/74/74 79/79/79
f 794/794/794 810/810/810 811/811/811
f 794/794/794 796/796/796 810/810/810
f 837/837/837 838/838/838 803/803/803
f 291/291/291 292/292/292 293/293/293
f 78/78/78 66/66/66 82/82/82
f 294/294/294 295/295/295 296/296/296
f 812/812/812 801/801/801 813/813/813
f 806/806/806 803/803/803 737/737/737
f 247/247/247 234/234/234 297/297/297
f 298/298/298 299/299/299 252/252/252
f 814/814/814 815/815/815 756/756/756
f 300/300/300 284/284/284 301/301/301
f 805/805/805 816/816/816 804/804/804
f 234/234/234 302/302/302 303/303/303
f 295/295/295 294/294/294 304/304/304
f 801/801/801 812/812/812 789/789/789
f 241/241/241 298/298/298 252/252/252
f 817/817/817 805/805/805 818/818/818
f 807/807/807 808/808/808 819/819/819
f 770/770/770 771/771/771 778/778/778
f 305/305/305 306/306/306 307/307/307
f 816/816/816 805/805/805 817/817/817
f 820/820/820 801/801/801 773/773/773
f 821/821/821 759/759/759 777/777/777
f 308/308/308 309/309/309 300/300/300
f 310/310/310 311/311/311 312/312/312
f 313/313/313 314/314/314 315/315/315
f 808/808/808 735/735/735 786/786/786
f 307/307/307 306/306/306 316/316/316
f 317/317/317 310/310/310 312/312/312
f 316/316/316 318/318/318 307/307/307
f 803/803/803 838/838/838 822/822/822
f 811/811/811 810/810/810 823/823/823
f 319/319/319 265/265/265 264/264/264
f 81/81/81 83/83/83 84/84/84
f 320/320/320 284/284/284 283/283/283
f 321/321/321 322/322/322 323/323/323
f 324/324/324 325/325/325 326/326/326
f 327/327/327 313/313/313 315/315/315
f 777/777/777 824/824/824 821/821/821
f 739/739/739 811/811/811 752/752/752
f 285/285/285 328/328/328 329/329/329
f 306/306/306 330/330/330 316/316/316
f 301/301/301 331/331/331 300/300/300
f 285/285/285 329/329/329 268/268/268
f 332/332/332 325/325/325 324/324/324
f 574/574/574 704/704/704 780/780/780
f 333/333/333 316/316/316 330/330/330
f 257/257/257 334/334/334 281/281/281
f 319/319/319 335/335/335 265/265/265
f 317/317/317 312/312/312 336/336/336
f 284/284/284 320/320/320 301/301/301
f 825/825/825 824/824/824 777/777/777
f 337/337/337 327/327/327 315/315/315
f 826/826/826 751/751/751 734/734/734
f 337/337/337 338/338/338 327/327/327
f 339/339/339 340/340/340 341/341/341
f 827/827/827 801/801/801 820/820/820
f 333/333/333 330/330/330 342/342/342
f 343/343/343 252/252/252 299/299/299
f 344/344/344 337/337/337 345/345/345
f 346/346/346 337/337/337 315/315/315
f 828/828/828 829/829/829 808/808/808
f 333/333/333 342/342/342 347/347/347
f 348/348/348 278/278/278 276/276/276
f 262/262/262 349/349/349 260/260/260
f 815/815/815 749/749/749 756/756/756
f 830/830/830 808/808/808 831/831/831
f 336/336/336 350/350/350 348/348/348
f 351/351/351 352/352/352 353/353/353
f 323/323/323 322/322/322 354/354/354
f 347/347/347 355/355/355 333/333/333
f 271/271/271 356/356/356 212/212/212
f 74/74/74 80/80/80 79/79/79
f 337/337/337 344/344/344 338/338/338
f 808/808/808 830/830/830 819/819/819
f 300/300/300 331/331/331 308/308/308
f 823/823/823 832/832/832 811/811/811
f 357/357/357 337/337/337 358/358/358
f 752/752/752 811/811/811 832/832/832
f 348/348/348 359/359/359 278/278/278
f 337/337/337 357/357/357 345/345/345
f 85/85/85 86/86/86 87/87/87
f 333/333/333 355/355/355 360/360/360
f 831/831/831 808/808/808 833/833/833
f 358/358/358 337/337/337 361/361/361
f 362/362/362 363/363/363 364/364/364
f 363/363/363 362/362/362 365/365/365
f 58/58/58 78/78/78 88/88/88
f 834/834/834 833/833/833 808/808/808
f 808/808/808 829/829/829 834/834/834
f 366/366/366 340/340/340 339/339/339
f 340/340/340 366/366/366 367/367/367
f 352/352/352 368/368/368 353/353/353
f 81/81/81 76/76/76 83/83/83
f 369/369/369 329/329/329 328/328/328
f 348/348/348 370/370/370 359/359/359
f 371/371/371 361/361/361 337/337/337
f 372/372/372 373/373/373 337/337/337
f 355/355/355 365/365/365 360/360/360
f 297/297/297 234/234/234 303/303/303
f 81/81/81 84/84/84 89/89/89
f 373/373/373 371/371/371 337/337/337
f 374/374/374 375/375/375 376/376/376
f 234/234/234 267/267/267 302/302/302
f 323/323/323 354/354/354 377/377/377
f 362/362/362 364/364/364 378/378/378
f 299/299/299 298/298/298 379/379/379
f 380/380/380 381/381/381 382/382/382
f 374/374/374 329/329/329 369/369/369
f 382/382/382 383/383/383 384/384/384
f 339/339/339 431/431/431 366/366/366
f 382/382/382 381/381/381 383/383/383
f 385/385/385 386/386/386 387/387/387
f 388/388/388 389/389/389 390/390/390
f 391/391/391 392/392/392 383/383/383
f 78/78/78 82/82/82 90/90/90
f 393/393/393 383/383/383 392/392/392
f 372/372/372 337/337/337 346/346/346
f 383/383/383 393/393/393 384/384/384
f 336/336/336 312/312/312 350/350/350
f 394/394/394 393/393/393 392/392/392
f 370/370/370 348/348/348 350/350/350
f 372/372/372 391/391/391 373/373/373
f 395/395/395 396/396/396 397/397/397
f 398/398/398 399/399/399 400/400/400
f 391/391/391 383/383/383 381/381/381
f 378/378/378 401/401/401 362/362/362
f 391/391/391 381/381/381 373/373/373
f 350/350/350 402/402/402 370/370/370
f 432/432/432 366/366/366 431/431/431
f 91/91/91 92/92/92 93/93/93
f 387/387/387 386/386/386 403/403/403
f 404/404/404 405/405/405 406/406/406
f 384/384/384 407/407/407 382/382/382
f 365/365/365 355/355/355 363/363/363
f 362/362/362 401/401/401 408/408/408
f 409/409/409 399/399/399 410/410/410
f 409/409/409 400/400/400 399/399/399
f 374/374/374 369/369/369 375/375/375
f 411/411/411 412/412/412 413/413/413
f 86/86/86 85/85/85 94/94/94
f 433/433/433 414/414/414 415/415/415
f 95/95/95 96/96/96 97/97/97
f 98/98/98 99/99/99 100/100/100
f 411/411/411 416/416/416 412/412/412
f 417/417/417 418/418/418 408/408/408
f 96/96/96 95/95/95 101/101/101
f 350/350/350 312/312/312 419/419/419
f 102/102/102 148/148/148 103/103/103
f 102/102/102 103/103/103 104/104/104
f 101/101/101 95/95/95 105/105/105
f 103/103/103 106/106/106 107/107/107
f 108/108/108 109/109/109 148/148/148
f 103/103/103 148/148/148 106/106/106
f 148/148/148 110/110/110 106/106/106
f 420/420/420 416/416/416 411/411/411
f 421/421/421 418/418/418 417/417/417
f 111/111/111 112/112/112 113/113/113
f 98/98/98 114/114/114 99/99/99
f 115/115/115 112/112/112 111/111/111
f 107/107/107 116/116/116 103/103/103
f 418/418/418 362/362/362 408/408/408
f 117/117/117 118/118/118 112/112/112
f 433/433/433 415/415/415 422/422/422
f 416/416/416 420/420/420 423/423/423
f 119/119/119 120/120/120 121/121/121
f 107/107/107 106/106/106 122/122/122
f 117/117/117 112/112/112 115/115/115
f 118/118/118 123/123/123 112/112/112
f 124/124/124 125/125/125 126/126/126
f 107/107/107 122/122/122 127/127/127
f 406/406/406 405/405/405 424/424/424
f 116/116/116 107/107/107 128/128/128
f 422/422/422 425/425/425 433/433/433
f 375/375/375 369/369/369 426/426/426
f 129/129/129 130/130/130 131/131/131
f 109/109/109 110/110/110 148/148/148
f 350/350/350 427/427/427 402/402/402
f 428/428/428 429/429/429 430/430/430
f 130/130/130 129/129/129 132/132/132
f 118/118/118 133/133/133 123/123/123
f 121/121/121 120/120/120 134/134/134
f 123/123/123 133/133/133 135/135/135
f 135/135/135 133/133/133 136/136/136
f 137/137/137 128/128/128 107/107/107
f 138/138/138 139/139/139 140/140/140
f 141/141/141 127/127/127 122/122/122
f 118/118/118 142/142/142 133/133/133
f 139/139/139 143/143/143 140/140/140
f 144/144/144 145/145/145 146/146/146
f 839/839/839 840/840/840 841/841/841
f 839/839/839 841/841/841 840/840/840
f 839/839/839 841/841/841 842/842/842
f 839/839/839 842/842/842 841/841/841
f 839/839/839 842/842/842 843/843/843
f 839/839/839 843/843/843 842/842/842
f 839/839/839 843/843/843 844/844/844
f 839/839/839 844/844/844 843/843/843
f 839/839/839 844/844/844 845/845/845
f 839/839/839 845/845/845 844/844/844
f 839/839/839 845/845/845 846/846/846
f 839/839/839 846/846/846 845/845/845
f 839/839/839 846/846/846 847/847/847
f 839/839/839 847/847/847 846/846/846
f 839/839/839 847/847/847 848/848/848
f 839/839/839 848/848/848 847/847/847
f 839/839/839 848/848/848 849/849/849
f 839/839/839 849/849/849 848/848/848
f 839/839/839 849/849/849 850/850/850
f 839/839/839 850/850/850 849/849/849
f 839/839/839 850/850/850 851/851/851
f 839/839/839 851/851/851 850/850/850
f 839/839/839 851/851/851 852/852/852
f 839/839/839 852/852/852 851/851/851
f 839/839/839 852/852/852 853/853/853
f 839/839/839 853/853/853 852/852/852
f 839/839/839 853/853/853 854/854/854
f 839/839/839 854/854/854 853/853/853
f 839/839/839 854/854/854 855/855/855
f 839/839/839 855/855/855 854/854/854
f 839/839/839 855/855/855 856/856/856
f 839/839/839 856/856/856 855/855/855
f 839/839/839 856/856/856 857/857/857
f 839/839/839 857/857/857 856/856/856
f 839/839/839 857/857/857 840/840/840
f 839/839/839 840/840/840 857/857/857
f 858/858/858 859/859/859 860/860/860
f 858/858/858 860/860/860 859/859/859
f 858/858/858 860/860/860 861/861/861
f 858/858/858 861/861/861 860/860/860
f 858/858/858 861/861/861 859/859/859
f 858/858/858 859/859/859 861/861/861
