o leg_left_2
v 0.25046 0.86519 1.66997
v 0.24408 0.73423 1.94033
v 0.24348 0.68275 1.85250
v 0.21897 0.70391 1.90546
v 0.24348 0.68275 1.85250
v 0.24408 0.73423 1.94033
v 0.24408 0.73423 1.94033
v 0.21344 0.72925 1.94297
v 0.21897 0.70391 1.90546
v 0.21878 0.54406 2.04861
v 0.21184 0.59351 2.17005
v 0.20984 0.22318 2.22293
v 0.21612 0.58054 1.99109
v 0.21897 0.70391 1.90546
v 0.21344 0.72925 1.94297
v 0.21897 0.70391 1.90546
v 0.21612 0.58054 1.99109
v 0.21324 0.57396 1.94667
v 0.21184 0.59351 2.17005
v 0.21027 0.26759 2.31317
v 0.20984 0.22318 2.22293
v 0.24408 0.73423 1.94033
v 0.25046 0.86519 1.66997
v 0.18026 0.78349 1.98028
v 0.21324 0.57396 1.94667
v 0.21612 0.58054 1.99109
v 0.16943 0.56964 1.94832
v 0.21612 0.58054 1.99109
v 0.21344 0.72925 1.94297
v 0.18242 0.72507 1.96185
v 0.24348 0.68275 1.85250
v 0.13950 0.68178 1.83232
v 0.23786 0.80391 1.58750
v 0.21344 0.72925 1.94297
v 0.24408 0.73423 1.94033
v 0.18026 0.78349 1.98028
v 0.18404 0.26482 2.32197
v 0.20984 0.22318 2.22293
v 0.21027 0.26759 2.31317
v 0.21878 0.54406 2.04861
v 0.18365 0.59405 2.15710
v 0.21184 0.59351 2.17005
v 0.18242 0.72507 1.96185
v 0.18100 0.57994 1.99416
v 0.21612 0.58054 1.99109
v 0.21897 0.70391 1.90546
v 0.17603 0.70008 1.88302
v 0.24348 0.68275 1.85250
v 0.18404 0.26482 2.32197
v 0.21027 0.26759 2.31317
v 0.21184 0.59351 2.17005
v 0.18988 0.07558 2.32463
v 0.20984 0.22318 2.22293
v 0.17463 0.10441 2.38971
v 0.17603 0.70008 1.88302
v 0.13950 0.68178 1.83232
v 0.24348 0.68275 1.85250
v 0.21878 0.54406 2.04861
v 0.18834 0.60874 2.02385
v 0.18365 0.59405 2.15710
v 0.21897 0.70391 1.90546
v 0.21324 0.57396 1.94667
v 0.16943 0.56964 1.94832
v 0.16943 0.56964 1.94832
v 0.21612 0.58054 1.99109
v 0.18100 0.57994 1.99416
v 0.18404 0.26482 2.32197
v 0.17463 0.10441 2.38971
v 0.20984 0.22318 2.22293
v 0.18834 0.60874 2.02385
v 0.21878 0.54406 2.04861
v 0.17252 0.47610 2.07749
v 0.18834 0.60874 2.02385
v 0.18318 0.62494 2.07140
v 0.18251 0.63895 2.13796
v 0.18365 0.59405 2.15710
v 0.18834 0.60874 2.02385
v 0.18251 0.63895 2.13796
v 0.18227 0.72943 2.02699
v 0.18318 0.62494 2.07140
v 0.18834 0.60874 2.02385
v 0.18227 0.72943 2.02699
v 0.18100 0.57994 1.99416
v 0.18242 0.72507 1.96185
v 0.17463 0.10441 2.38971
v 0.17779 0.09145 2.37056
v 0.18988 0.07558 2.32463
v 0.21897 0.70391 1.90546
v 0.16943 0.56964 1.94832
v 0.17603 0.70008 1.88302
v 0.18100 0.57994 1.99416
v 0.18227 0.72943 2.02699
v 0.18834 0.60874 2.02385
v 0.18988 0.07558 2.32463
v 0.17779 0.09145 2.37056
v 0.16846 0.00182 2.38393
v 0.18100 0.57994 1.99416
v 0.18834 0.60874 2.02385
v 0.17252 0.47610 2.07749
v 0.18100 0.57994 1.99416
v 0.17252 0.47610 2.07749
v 0.17345 0.47544 2.04161
v 0.21184 0.59351 2.17005
v 0.09015 0.58660 2.18052
v 0.18404 0.26482 2.32197
v 0.20984 0.22318 2.22293
v 0.18988 0.07558 2.32463
v 0.13720 0.07044 2.31641
v 0.18251 0.63895 2.13796
v 0.13180 0.63125 2.06501
v 0.12704 0.63864 2.13980
v 0.15269 0.56432 1.91029
v 0.17603 0.70008 1.88302
v 0.16943 0.56964 1.94832
v 0.14123 0.00000 2.38753
v 0.13364 0.07342 2.34053
v 0.16846 0.00182 2.38393
v 0.18251 0.63895 2.13796
v 0.18318 0.62494 2.07140
v 0.13180 0.63125 2.06501
v 0.18242 0.72507 1.96185
v 0.13288 0.72684 1.95664
v 0.18227 0.72943 2.02699
v 0.16846 0.00182 2.38393
v 0.13364 0.07342 2.34053
v 0.18988 0.07558 2.32463
v 0.18242 0.72507 1.96185
v 0.21344 0.72925 1.94297
v 0.13288 0.72684 1.95664
v 0.18227 0.72943 2.02699
v 0.13137 0.73276 2.03113
v 0.18318 0.62494 2.07140
v 0.15269 0.56432 1.91029
v 0.16943 0.56964 1.94832
v 0.13453 0.57305 1.94778
v 0.15269 0.56432 1.91029
v 0.13559 0.69640 1.85991
v 0.17603 0.70008 1.88302
v 0.18026 0.78349 1.98028
v 0.11270 0.76479 1.96306
v 0.21344 0.72925 1.94297
v 0.18988 0.07558 2.32463
v 0.13364 0.07342 2.34053
v 0.13720 0.07044 2.31641
v 0.16846 0.00182 2.38393
v 0.17779 0.09145 2.37056
v 0.14123 0.00000 2.38753
v 0.17252 0.47610 2.07749
v 0.21878 0.54406 2.04861
v 0.20984 0.22318 2.22293
v 0.18365 0.59405 2.15710
v 0.12704 0.63864 2.13980
v 0.13132 0.58876 2.16045
v 0.18365 0.59405 2.15710
v 0.18251 0.63895 2.13796
v 0.12704 0.63864 2.13980
v 0.13601 0.47848 2.04165
v 0.17345 0.47544 2.04161
v 0.17252 0.47610 2.07749
v 0.16943 0.56964 1.94832
v 0.18100 0.57994 1.99416
v 0.13558 0.57952 1.99725
v 0.17779 0.09145 2.37056
v 0.17463 0.10441 2.38971
v 0.13951 0.09093 2.37127
v 0.11308 0.32141 2.28871
v 0.17463 0.10441 2.38971
v 0.18404 0.26482 2.32197
v 0.21344 0.72925 1.94297
v 0.11270 0.76479 1.96306
v 0.13440 0.75084 1.95418
v 0.13720 0.07044 2.31641
v 0.17252 0.47610 2.07749
v 0.20984 0.22318 2.22293
v 0.13453 0.57305 1.94778
v 0.16943 0.56964 1.94832
v 0.13558 0.57952 1.99725
v 0.21344 0.72925 1.94297
v 0.13440 0.75084 1.95418
v 0.13288 0.72684 1.95664
v 0.18100 0.57994 1.99416
v 0.17345 0.47544 2.04161
v 0.13558 0.57952 1.99725
v 0.14123 0.00000 2.38753
v 0.17779 0.09145 2.37056
v 0.13951 0.09093 2.37127
v 0.17345 0.47544 2.04161
v 0.13601 0.47848 2.04165
v 0.13558 0.57952 1.99725
v 0.13180 0.63125 2.06501
v 0.18318 0.62494 2.07140
v 0.13137 0.73276 2.03113
v 0.13288 0.72684 1.95664
v 0.13137 0.73276 2.03113
v 0.18227 0.72943 2.02699
v 0.13950 0.68178 1.83232
v 0.17603 0.70008 1.88302
v 0.13559 0.69640 1.85991
v 0.12962 0.29726 2.20507
v 0.17252 0.47610 2.07749
v 0.13720 0.07044 2.31641
v 0.11308 0.32141 2.28871
v 0.18404 0.26482 2.32197
v 0.09015 0.58660 2.18052
v 0.15269 0.56432 1.91029
v 0.12743 0.72188 1.90098
v 0.13559 0.69640 1.85991
v 0.13951 0.09093 2.37127
v 0.17463 0.10441 2.38971
v 0.11726 0.10140 2.36963
v 0.13601 0.47848 2.04165
v 0.17252 0.47610 2.07749
v 0.12741 0.49151 2.10083
v 0.12962 0.29726 2.20507
v 0.12741 0.49151 2.10083
v 0.17252 0.47610 2.07749
v 0.13364 0.07342 2.34053
v 0.14123 0.00000 2.38753
v 0.13951 0.09093 2.37127
v 0.12743 0.72188 1.90098
v 0.15269 0.56432 1.91029
v 0.13453 0.57305 1.94778
v 0.13558 0.57952 1.99725
v 0.08923 0.58518 1.99369
v 0.13453 0.57305 1.94778
v 0.21184 0.59351 2.17005
v 0.18365 0.59405 2.15710
v 0.13132 0.58876 2.16045
v 0.17463 0.10441 2.38971
v 0.11308 0.32141 2.28871
v 0.11726 0.10140 2.36963
v 0.13558 0.57952 1.99725
v 0.13601 0.47848 2.04165
v 0.12741 0.49151 2.10083
v 0.13950 0.68178 1.83232
v 0.13559 0.69640 1.85991
v 0.13147 0.80017 1.59533
v 0.13137 0.73276 2.03113
v 0.13288 0.72684 1.95664
v 0.13558 0.57952 1.99725
v 0.13558 0.57952 1.99725
v 0.13180 0.63125 2.06501
v 0.13137 0.73276 2.03113
v 0.13558 0.57952 1.99725
v 0.12704 0.63864 2.13980
v 0.13180 0.63125 2.06501
v 0.13558 0.57952 1.99725
v 0.12741 0.49151 2.10083
v 0.12232 0.54777 2.08421
v 0.13720 0.07044 2.31641
v 0.13364 0.07342 2.34053
v 0.11726 0.10140 2.36963
v 0.13364 0.07342 2.34053
v 0.13951 0.09093 2.37127
v 0.11726 0.10140 2.36963
v 0.12743 0.72188 1.90098
v 0.10838 0.71488 1.85195
v 0.13559 0.69640 1.85991
v 0.12743 0.72188 1.90098
v 0.13288 0.72684 1.95664
v 0.13440 0.75084 1.95418
v 0.13558 0.57952 1.99725
v 0.12232 0.54777 2.08421
v 0.12704 0.63864 2.13980
v 0.07178 0.53257 2.08299
v 0.12741 0.49151 2.10083
v 0.12962 0.29726 2.20507
v 0.18026 0.78349 1.98028
v 0.11405 0.90028 1.69791
v 0.11270 0.76479 1.96306
v 0.12704 0.63864 2.13980
v 0.12232 0.54777 2.08421
v 0.13132 0.58876 2.16045
v 0.08923 0.58518 1.99369
v 0.09345 0.57433 1.94664
v 0.13453 0.57305 1.94778
v 0.13720 0.07044 2.31641
v 0.11308 0.32141 2.28871
v 0.12962 0.29726 2.20507
v 0.10796 0.83836 1.61937
v 0.13559 0.69640 1.85991
v 0.10838 0.71488 1.85195
v 0.21184 0.59351 2.17005
v 0.13132 0.58876 2.16045
v 0.09015 0.58660 2.18052
v 0.12743 0.72188 1.90098
v 0.09357 0.71120 1.90354
v 0.13288 0.72684 1.95664
v 0.13720 0.07044 2.31641
v 0.11726 0.10140 2.36963
v 0.11308 0.32141 2.28871
v 0.13453 0.57305 1.94778
v 0.09345 0.57433 1.94664
v 0.09357 0.71120 1.90354
v 0.12743 0.72188 1.90098
v 0.13440 0.75084 1.95418
v 0.11270 0.76479 1.96306
v 0.07178 0.53257 2.08299
v 0.12232 0.54777 2.08421
v 0.12741 0.49151 2.10083
v 0.10796 0.83836 1.61937
v 0.10838 0.71488 1.85195
v 0.11270 0.76479 1.96306
v 0.12743 0.72188 1.90098
v 0.11270 0.76479 1.96306
v 0.10838 0.71488 1.85195
v 0.07178 0.53257 2.08299
v 0.13132 0.58876 2.16045
v 0.12232 0.54777 2.08421
v 0.09015 0.58660 2.18052
v 0.07138 0.32255 2.27650
v 0.11308 0.32141 2.28871
v 0.09357 0.71120 1.90354
v 0.12743 0.72188 1.90098
v 0.13453 0.57305 1.94778
v 0.13288 0.72684 1.95664
v 0.08923 0.58518 1.99369
v 0.13558 0.57952 1.99725
v 0.09357 0.71120 1.90354
v 0.09016 0.72187 1.95549
v 0.13288 0.72684 1.95664
v 0.13288 0.72684 1.95664
v 0.09016 0.72187 1.95549
v 0.08923 0.58518 1.99369
v 0.07178 0.53257 2.08299
v 0.05575 0.56323 2.16033
v 0.13132 0.58876 2.16045
v 0.09015 0.58660 2.18052
v 0.13132 0.58876 2.16045
v 0.05575 0.56323 2.16033
v 0.11308 0.32141 2.28871
v 0.07138 0.32255 2.27650
v 0.08069 0.29995 2.20502
v 0.09357 0.71120 1.90354
v 0.09345 0.57433 1.94664
v 0.09016 0.72187 1.95549
v 0.12962 0.29726 2.20507
v 0.08069 0.29995 2.20502
v 0.07178 0.53257 2.08299
v 0.09016 0.72187 1.95549
v 0.09345 0.57433 1.94664
v 0.08923 0.58518 1.99369
v 0.12962 0.29726 2.20507
v 0.11308 0.32141 2.28871
v 0.08069 0.29995 2.20502
v 0.07178 0.53257 2.08299
v 0.08069 0.29995 2.20502
v 0.07138 0.32255 2.27650
v 0.07178 0.53257 2.08299
v 0.07138 0.32255 2.27650
v 0.05575 0.56323 2.16033
v 0.05575 0.56323 2.16033
v 0.07138 0.32255 2.27650
v 0.09015 0.58660 2.18052
v 0.16533 0.78171 1.76581
v 0.24348 0.68275 1.85250
v 0.25046 0.86519 1.66997
v 0.18026 0.78349 1.98028
v 0.11405 0.90028 1.69791
v 0.11270 0.76479 1.96306
v 0.10796 0.83836 1.61937
v 0.13559 0.69640 1.85991
v 0.13147 0.80017 1.59533
v 0.13950 0.68178 1.83232
v 0.23786 0.80391 1.58750
vt 0.15478 0.30814
vt 0.15361 0.28348
vt 0.16078 0.28780
vt 0.94022 0.71006
vt 0.93960 0.71513
vt 0.93701 0.70717
vt 0.93701 0.70717
vt 0.93944 0.70640
vt 0.94022 0.71006
vt 0.16213 0.52101
vt 0.15142 0.51990
vt 0.16186 0.49100
vt 0.22391 0.94125
vt 0.21222 0.94519
vt 0.21107 0.94162
vt 0.21222 0.94519
vt 0.22391 0.94125
vt 0.22342 0.94491
vt 0.15141 0.51990
vt 0.15365 0.49073
vt 0.16182 0.49099
vt 0.10099 0.48751
vt 0.10146 0.46283
vt 0.10824 0.48895
vt 0.30848 0.97144
vt 0.30818 0.96783
vt 0.31194 0.97161
vt 0.42712 0.95382
vt 0.43992 0.95379
vt 0.43926 0.95651
vt 0.80136 0.81586
vt 0.80279 0.80727
vt 0.82530 0.81528
vt 0.93946 0.70645
vt 0.93701 0.70717
vt 0.94002 0.70042
vt 0.02462 0.98890
vt 0.01560 0.98794
vt 0.02378 0.98677
vt 0.93854 0.01191
vt 0.93978 0.02206
vt 0.93730 0.02262
vt 0.43926 0.95651
vt 0.42704 0.95672
vt 0.42712 0.95382
vt 0.94022 0.71006
vt 0.94414 0.71084
vt 0.93960 0.71513
vt 0.65552 0.60567
vt 0.65510 0.60790
vt 0.62588 0.60902
vt 0.04653 0.79694
vt 0.04286 0.78263
vt 0.05250 0.79666
vt 0.94414 0.71084
vt 0.94826 0.71426
vt 0.93960 0.71513
vt 0.68662 0.97878
vt 0.69278 0.97939
vt 0.68730 0.98894
vt 0.06904 0.95629
vt 0.05783 0.95660
vt 0.05720 0.95304
vt 0.31194 0.97161
vt 0.30818 0.96783
vt 0.31094 0.96759
vt 0.05195 0.78236
vt 0.05248 0.79667
vt 0.04293 0.78259
vt 0.05825 0.96099
vt 0.06373 0.95806
vt 0.07007 0.96136
vt 0.09718 0.97173
vt 0.09694 0.96759
vt 0.09742 0.96202
vt 0.68730 0.98894
vt 0.69256 0.97927
vt 0.69131 0.98889
vt 0.15385 0.83106
vt 0.14460 0.83234
vt 0.14434 0.82821
vt 0.15385 0.83106
vt 0.14271 0.82522
vt 0.15491 0.82580
vt 0.02770 0.99646
vt 0.02583 0.99682
vt 0.02173 0.99659
vt 0.06904 0.95629
vt 0.05720 0.95304
vt 0.06914 0.95245
vt 0.14271 0.82522
vt 0.15385 0.83106
vt 0.14432 0.82826
vt 0.98555 0.35369
vt 0.98572 0.34958
vt 0.99306 0.35103
vt 0.14271 0.82522
vt 0.14435 0.82824
vt 0.13263 0.82944
vt 0.14271 0.82522
vt 0.13258 0.82936
vt 0.13336 0.82658
vt 0.62587 0.60891
vt 0.62639 0.59892
vt 0.65552 0.60565
vt 0.55251 0.60639
vt 0.53774 0.60541
vt 0.53753 0.60111
vt 0.09742 0.96202
vt 0.09265 0.96758
vt 0.09291 0.96140
vt 0.97204 0.30416
vt 0.97322 0.29279
vt 0.97513 0.30463
vt 0.87376 0.98863
vt 0.87434 0.99578
vt 0.87198 0.98897
vt 0.09742 0.96202
vt 0.09694 0.96759
vt 0.09265 0.96758
vt 0.43751 0.99112
vt 0.43342 0.99087
vt 0.43837 0.98583
vt 0.32080 0.00540
vt 0.32381 0.01221
vt 0.31943 0.01312
vt 0.43751 0.99112
vt 0.43973 0.99314
vt 0.43343 0.99083
vt 0.98056 0.11972
vt 0.97636 0.11972
vt 0.98090 0.11040
vt 0.31409 0.97470
vt 0.31194 0.97161
vt 0.31502 0.97176
vt 0.08037 0.96018
vt 0.09192 0.95830
vt 0.09174 0.96194
vt 0.94002 0.70042
vt 0.94595 0.70034
vt 0.93944 0.70645
vt 0.99076 0.99496
vt 0.99214 0.99036
vt 0.99367 0.99166
vt 0.06952 0.00921
vt 0.07684 0.00812
vt 0.06927 0.01129
vt 0.57631 0.60220
vt 0.58251 0.60563
vt 0.55251 0.60638
vt 0.69907 0.00139
vt 0.69454 0.00545
vt 0.69476 0.00101
vt 0.69907 0.00139
vt 0.69910 0.00540
vt 0.69454 0.00545
vt 0.00341 0.50346
vt 0.00033 0.50340
vt 0.00046 0.50046
vt 0.31194 0.97161
vt 0.31094 0.96759
vt 0.31465 0.96750
vt 0.99994 0.03795
vt 0.99804 0.03786
vt 0.99965 0.03482
vt 0.64998 0.59998
vt 0.66979 0.60439
vt 0.65552 0.60565
vt 0.93944 0.70645
vt 0.94595 0.70034
vt 0.94478 0.70225
vt 0.53754 0.60110
vt 0.57631 0.60219
vt 0.55251 0.60638
vt 0.31502 0.97176
vt 0.31194 0.97161
vt 0.31465 0.96750
vt 0.00783 0.17755
vt 0.00107 0.17727
vt 0.00159 0.17552
vt 0.28864 0.97490
vt 0.28864 0.98435
vt 0.28492 0.97528
vt 0.06924 0.01122
vt 0.07684 0.00812
vt 0.07683 0.01126
vt 0.28864 0.98435
vt 0.28555 0.98432
vt 0.28492 0.97528
vt 0.97665 0.11093
vt 0.98090 0.11040
vt 0.97636 0.11972
vt 0.43342 0.99086
vt 0.43430 0.98479
vt 0.43837 0.98583
vt 0.94826 0.71426
vt 0.94415 0.71083
vt 0.94786 0.71173
vt 0.24040 0.03664
vt 0.24348 0.01853
vt 0.24255 0.05730
vt 0.64997 0.59998
vt 0.65552 0.60565
vt 0.62639 0.59892
vt 0.96499 0.94530
vt 0.95234 0.94866
vt 0.95335 0.94476
vt 0.33607 0.99997
vt 0.33291 0.99869
vt 0.33788 0.99905
vt 0.00341 0.50346
vt 0.00055 0.50043
vt 0.00444 0.49853
vt 0.24039 0.03664
vt 0.23927 0.01857
vt 0.24339 0.01852
vt 0.45083 0.01727
vt 0.45129 0.01016
vt 0.45357 0.01740
vt 0.95234 0.94866
vt 0.96499 0.94530
vt 0.96518 0.94863
vt 0.31465 0.96750
vt 0.31856 0.96740
vt 0.31502 0.97176
vt 0.93731 0.02255
vt 0.93978 0.02206
vt 0.94393 0.02333
vt 0.91428 0.44667
vt 0.91069 0.46655
vt 0.90961 0.44732
vt 0.50116 0.82791
vt 0.49209 0.82794
vt 0.49110 0.82301
vt 0.43517 0.81193
vt 0.43367 0.80982
vt 0.45694 0.81169
vt 0.51164 0.82038
vt 0.51360 0.82619
vt 0.50116 0.82791
vt 0.50116 0.82791
vt 0.50287 0.82111
vt 0.51164 0.82038
vt 0.50116 0.82791
vt 0.50101 0.81521
vt 0.50287 0.82111
vt 0.50116 0.82791
vt 0.49110 0.82301
vt 0.49589 0.82232
vt 0.99365 0.99165
vt 0.99203 0.99044
vt 0.99087 0.98721
vt 0.00460 0.23071
vt 0.00341 0.23340
vt 0.00156 0.23258
vt 0.94753 0.70648
vt 0.95116 0.70890
vt 0.94889 0.71013
vt 0.99300 0.21969
vt 0.99712 0.21764
vt 0.99800 0.21939
vt 0.50116 0.82791
vt 0.49589 0.82232
vt 0.50101 0.81521
vt 0.57096 0.79458
vt 0.57553 0.79827
vt 0.57565 0.81638
vt 0.74478 0.79452
vt 0.76981 0.80022
vt 0.74537 0.80042
vt 0.50101 0.81521
vt 0.49589 0.82232
vt 0.49656 0.81520
vt 0.31856 0.96740
vt 0.31825 0.97146
vt 0.31502 0.97176
vt 0.24251 0.05730
vt 0.23336 0.03858
vt 0.24037 0.03665
vt 0.07266 0.47551
vt 0.09563 0.47355
vt 0.09429 0.47594
vt 0.93730 0.02254
vt 0.94393 0.02333
vt 0.94684 0.02572
vt 0.28998 0.00046
vt 0.29290 0.00055
vt 0.28961 0.00505
vt 0.24251 0.05731
vt 0.23720 0.05745
vt 0.23336 0.03858
vt 0.76397 0.93987
vt 0.76734 0.93999
vt 0.76734 0.95178
vt 0.94748 0.70647
vt 0.94478 0.70225
vt 0.94595 0.70034
vt 0.57096 0.79459
vt 0.57514 0.79344
vt 0.57553 0.79827
vt 0.45490 0.54858
vt 0.45515 0.57021
vt 0.44731 0.57644
vt 0.94756 0.70645
vt 0.94598 0.70033
vt 0.95116 0.70890
vt 0.95107 0.01744
vt 0.94393 0.02333
vt 0.94679 0.01677
vt 0.06892 0.15248
vt 0.06655 0.12947
vt 0.06966 0.12891
vt 0.76734 0.95178
vt 0.76456 0.95269
vt 0.76397 0.93987
vt 0.93922 0.94900
vt 0.95109 0.94493
vt 0.95177 0.94871
vt 0.29290 0.00055
vt 0.29310 0.00491
vt 0.28958 0.00502
vt 0.93922 0.94900
vt 0.93944 0.94547
vt 0.95109 0.94493
vt 0.95109 0.01746
vt 0.95039 0.02438
vt 0.94393 0.02333
vt 0.94684 0.02572
vt 0.94393 0.02333
vt 0.95039 0.02438
vt 0.46495 0.00912
vt 0.46841 0.01001
vt 0.46771 0.01618
vt 0.97151 0.57051
vt 0.95972 0.57051
vt 0.97106 0.56617
vt 0.57565 0.81638
vt 0.57163 0.81617
vt 0.57096 0.79459
vt 0.97106 0.56617
vt 0.95972 0.57051
vt 0.95941 0.56654
vt 0.46369 0.01629
vt 0.46495 0.00912
vt 0.46771 0.01618
vt 0.87260 0.44161
vt 0.87291 0.42002
vt 0.87903 0.41905
vt 0.87260 0.44161
vt 0.87903 0.41905
vt 0.87954 0.44104
vt 0.06527 0.15143
vt 0.06652 0.12947
vt 0.06892 0.15248
vt 0.16078 0.28780
vt 0.16078 0.28780
vt 0.16078 0.28780
vt 0.16078 0.28780
vt 0.16078 0.28780
vt 0.16078 0.28780
vt 0.16078 0.28780
vt 0.16078 0.28780
vt 0.16078 0.28780
vt 0.16078 0.28780
vt 0.16078 0.28780
vn 0.8865 -0.2215 0.4063
vn 0.7678 -0.1720 0.6172
vn 0.6211 -0.7832 0.0282
vn 0.5850 -0.7999 0.1336
vn 0.6211 -0.7832 0.0282
vn 0.7678 -0.1720 0.6172
vn 0.7678 -0.1720 0.6172
vn 0.4373 -0.3134 0.8429
vn 0.5850 -0.7999 0.1336
vn 0.7566 -0.0584 -0.6513
vn 0.6032 0.7242 0.3341
vn 0.7228 -0.4285 -0.5422
vn 0.6213 -0.4483 0.6427
vn 0.5850 -0.7999 0.1336
vn 0.4373 -0.3134 0.8429
vn 0.5850 -0.7999 0.1336
vn 0.6213 -0.4483 0.6427
vn 0.5737 -0.6767 -0.4615
vn 0.6032 0.7242 0.3341
vn 0.7038 -0.2509 0.6646
vn 0.7228 -0.4285 -0.5422
vn 0.7678 -0.1720 0.6172
vn 0.8865 -0.2215 0.4063
vn 0.1571 0.3384 0.9278
vn 0.5737 -0.6767 -0.4615
vn 0.6213 -0.4483 0.6427
vn 0.2312 -0.9517 -0.2020
vn 0.6213 -0.4483 0.6427
vn 0.4373 -0.3134 0.8429
vn 0.4167 0.8304 0.3698
vn 0.6211 -0.7832 0.0282
vn -0.5493 -0.8336 -0.0580
vn 0.4945 -0.8675 -0.0540
vn 0.4373 -0.3134 0.8429
vn 0.7678 -0.1720 0.6172
vn 0.1571 0.3384 0.9278
vn 0.3428 0.1612 0.9255
vn 0.7228 -0.4285 -0.5422
vn 0.7038 -0.2509 0.6646
vn 0.7566 -0.0584 -0.6513
vn 0.3072 0.9066 0.2892
vn 0.6032 0.7242 0.3341
vn 0.4167 0.8304 0.3698
vn 0.6451 -0.7571 0.1032
vn 0.6213 -0.4483 0.6427
vn 0.5850 -0.7999 0.1336
vn 0.3149 -0.9004 -0.3002
vn 0.6211 -0.7832 0.0282
vn 0.3428 0.1612 0.9255
vn 0.7038 -0.2509 0.6646
vn 0.6032 0.7242 0.3341
vn 0.7666 -0.5302 -0.3623
vn 0.7228 -0.4285 -0.5422
vn 0.4001 -0.1874 0.8971
vn 0.3149 -0.9004 -0.3002
vn -0.5493 -0.8336 -0.0580
vn 0.6211 -0.7832 0.0282
vn 0.7566 -0.0584 -0.6513
vn 0.9827 0.0648 -0.1733
vn 0.3072 0.9066 0.2892
vn 0.5850 -0.7999 0.1336
vn 0.5737 -0.6767 -0.4615
vn 0.2312 -0.9517 -0.2020
vn 0.2312 -0.9517 -0.2020
vn 0.6213 -0.4483 0.6427
vn 0.6451 -0.7571 0.1032
vn 0.3428 0.1612 0.9255
vn 0.4001 -0.1874 0.8971
vn 0.7228 -0.4285 -0.5422
vn 0.9827 0.0648 -0.1733
vn 0.7566 -0.0584 -0.6513
vn 0.0689 -0.7532 -0.6542
vn 0.9827 0.0648 -0.1733
vn 0.7112 0.6899 0.1347
vn 0.5790 0.7137 0.3942
vn 0.3072 0.9066 0.2892
vn 0.9827 0.0648 -0.1733
vn 0.5790 0.7137 0.3942
vn 0.6296 0.6718 0.3901
vn 0.7112 0.6899 0.1347
vn 0.9827 0.0648 -0.1733
vn 0.6296 0.6718 0.3901
vn 0.6451 -0.7571 0.1032
vn 0.4167 0.8304 0.3698
vn 0.4001 -0.1874 0.8971
vn 0.7112 -0.3146 0.6287
vn 0.7666 -0.5302 -0.3623
vn 0.5850 -0.7999 0.1336
vn 0.2312 -0.9517 -0.2020
vn 0.3149 -0.9004 -0.3002
vn 0.6451 -0.7571 0.1032
vn 0.6296 0.6718 0.3901
vn 0.9827 0.0648 -0.1733
vn 0.7666 -0.5302 -0.3623
vn 0.7112 -0.3146 0.6287
vn 0.4823 -0.8317 0.2751
vn 0.6451 -0.7571 0.1032
vn 0.9827 0.0648 -0.1733
vn 0.0689 -0.7532 -0.6542
vn 0.6451 -0.7571 0.1032
vn 0.0689 -0.7532 -0.6542
vn 0.5585 -0.7144 -0.4217
vn 0.6032 0.7242 0.3341
vn -0.3608 0.8523 0.3786
vn 0.3428 0.1612 0.9255
vn 0.7228 -0.4285 -0.5422
vn 0.7666 -0.5302 -0.3623
vn -0.4439 -0.7868 -0.4288
vn 0.5790 0.7137 0.3942
vn -0.8870 0.4025 0.2262
vn -0.5980 0.6841 0.4175
vn -0.0156 -0.7777 -0.6284
vn 0.3149 -0.9004 -0.3002
vn 0.2312 -0.9517 -0.2020
vn -0.4803 -0.8016 0.3561
vn -0.7443 -0.6524 -0.1424
vn 0.4823 -0.8317 0.2751
vn 0.5790 0.7137 0.3942
vn 0.7112 0.6899 0.1347
vn -0.8870 0.4025 0.2262
vn 0.4167 0.8304 0.3698
vn -0.5375 0.6833 0.4942
vn 0.6296 0.6718 0.3901
vn 0.4823 -0.8317 0.2751
vn -0.7443 -0.6524 -0.1424
vn 0.7666 -0.5302 -0.3623
vn 0.4167 0.8304 0.3698
vn 0.4373 -0.3134 0.8429
vn -0.5375 0.6833 0.4942
vn 0.6296 0.6718 0.3901
vn -0.5737 0.6916 0.4387
vn 0.7112 0.6899 0.1347
vn -0.0156 -0.7777 -0.6284
vn 0.2312 -0.9517 -0.2020
vn -0.3237 -0.9133 -0.2473
vn -0.0156 -0.7777 -0.6284
vn -0.6398 -0.7638 -0.0853
vn 0.3149 -0.9004 -0.3002
vn 0.1571 0.3384 0.9278
vn -0.6915 -0.0030 0.7224
vn 0.4373 -0.3134 0.8429
vn 0.7666 -0.5302 -0.3623
vn -0.7443 -0.6524 -0.1424
vn -0.4439 -0.7868 -0.4288
vn 0.4823 -0.8317 0.2751
vn 0.7112 -0.3146 0.6287
vn -0.4803 -0.8016 0.3561
vn 0.0689 -0.7532 -0.6542
vn 0.7566 -0.0584 -0.6513
vn 0.7228 -0.4285 -0.5422
vn 0.3072 0.9066 0.2892
vn -0.5980 0.6841 0.4175
vn -0.4210 0.8936 0.1559
vn 0.3072 0.9066 0.2892
vn 0.5790 0.7137 0.3942
vn -0.5980 0.6841 0.4175
vn -0.5827 -0.6878 -0.4329
vn 0.5585 -0.7144 -0.4217
vn 0.0689 -0.7532 -0.6542
vn 0.2312 -0.9517 -0.2020
vn 0.6451 -0.7571 0.1032
vn -0.7175 -0.6962 0.0229
vn 0.7112 -0.3146 0.6287
vn 0.4001 -0.1874 0.8971
vn -0.4100 -0.4072 0.8161
vn -0.5128 0.0066 0.8585
vn 0.4001 -0.1874 0.8971
vn 0.3428 0.1612 0.9255
vn 0.4373 -0.3134 0.8429
vn -0.6915 -0.0030 0.7224
vn -0.2923 -0.5221 0.8012
vn -0.4439 -0.7868 -0.4288
vn 0.0689 -0.7532 -0.6542
vn 0.7228 -0.4285 -0.5422
vn -0.3237 -0.9133 -0.2473
vn 0.2312 -0.9517 -0.2020
vn -0.7175 -0.6962 0.0229
vn 0.4373 -0.3134 0.8429
vn -0.2923 -0.5221 0.8012
vn -0.5375 0.6833 0.4942
vn 0.6451 -0.7571 0.1032
vn 0.5585 -0.7144 -0.4217
vn -0.7175 -0.6962 0.0229
vn -0.4803 -0.8016 0.3561
vn 0.7112 -0.3146 0.6287
vn -0.4100 -0.4072 0.8161
vn 0.5585 -0.7144 -0.4217
vn -0.5827 -0.6878 -0.4329
vn -0.7175 -0.6962 0.0229
vn -0.8870 0.4025 0.2262
vn 0.7112 0.6899 0.1347
vn -0.5737 0.6916 0.4387
vn -0.5375 0.6833 0.4942
vn -0.5737 0.6916 0.4387
vn 0.6296 0.6718 0.3901
vn -0.5493 -0.8336 -0.0580
vn 0.3149 -0.9004 -0.3002
vn -0.6398 -0.7638 -0.0853
vn -0.5667 -0.5745 -0.5906
vn 0.0689 -0.7532 -0.6542
vn -0.4439 -0.7868 -0.4288
vn -0.5128 0.0066 0.8585
vn 0.3428 0.1612 0.9255
vn -0.3608 0.8523 0.3786
vn -0.0156 -0.7777 -0.6284
vn -0.9382 -0.3398 -0.0660
vn -0.6398 -0.7638 -0.0853
vn -0.4100 -0.4072 0.8161
vn 0.4001 -0.1874 0.8971
vn -0.8183 -0.2148 0.5332
vn -0.5827 -0.6878 -0.4329
vn 0.0689 -0.7532 -0.6542
vn -0.4614 -0.5265 -0.7141
vn -0.5667 -0.5745 -0.5906
vn -0.4614 -0.5265 -0.7141
vn 0.0689 -0.7532 -0.6542
vn -0.7443 -0.6524 -0.1424
vn -0.4803 -0.8016 0.3561
vn -0.4100 -0.4072 0.8161
vn -0.9382 -0.3398 -0.0660
vn -0.0156 -0.7777 -0.6284
vn -0.3237 -0.9133 -0.2473
vn -0.7175 -0.6962 0.0229
vn -0.6408 -0.3991 0.6558
vn -0.3237 -0.9133 -0.2473
vn 0.6032 0.7242 0.3341
vn 0.3072 0.9066 0.2892
vn -0.4210 0.8936 0.1559
vn 0.4001 -0.1874 0.8971
vn -0.5128 0.0066 0.8585
vn -0.8183 -0.2148 0.5332
vn -0.7175 -0.6962 0.0229
vn -0.5827 -0.6878 -0.4329
vn -0.4614 -0.5265 -0.7141
vn -0.5493 -0.8336 -0.0580
vn -0.6398 -0.7638 -0.0853
vn -0.7021 -0.7108 0.0426
vn -0.5737 0.6916 0.4387
vn -0.5375 0.6833 0.4942
vn -0.7175 -0.6962 0.0229
vn -0.7175 -0.6962 0.0229
vn -0.8870 0.4025 0.2262
vn -0.5737 0.6916 0.4387
vn -0.7175 -0.6962 0.0229
vn -0.5980 0.6841 0.4175
vn -0.8870 0.4025 0.2262
vn -0.7175 -0.6962 0.0229
vn -0.4614 -0.5265 -0.7141
vn -0.8516 0.1949 -0.4866
vn -0.4439 -0.7868 -0.4288
vn -0.7443 -0.6524 -0.1424
vn -0.8183 -0.2148 0.5332
vn -0.7443 -0.6524 -0.1424
vn -0.4100 -0.4072 0.8161
vn -0.8183 -0.2148 0.5332
vn -0.9382 -0.3398 -0.0660
vn -0.8301 -0.5542 -0.0621
vn -0.6398 -0.7638 -0.0853
vn -0.9382 -0.3398 -0.0660
vn -0.5375 0.6833 0.4942
vn -0.2923 -0.5221 0.8012
vn -0.7175 -0.6962 0.0229
vn -0.8516 0.1949 -0.4866
vn -0.5980 0.6841 0.4175
vn -0.5751 0.1745 -0.7992
vn -0.4614 -0.5265 -0.7141
vn -0.5667 -0.5745 -0.5906
vn 0.1571 0.3384 0.9278
vn -0.8039 0.5255 0.2785
vn -0.6915 -0.0030 0.7224
vn -0.5980 0.6841 0.4175
vn -0.8516 0.1949 -0.4866
vn -0.4210 0.8936 0.1559
vn -0.6408 -0.3991 0.6558
vn -0.5602 -0.7046 -0.4355
vn -0.3237 -0.9133 -0.2473
vn -0.4439 -0.7868 -0.4288
vn -0.5128 0.0066 0.8585
vn -0.5667 -0.5745 -0.5906
vn -0.9360 -0.3479 -0.0540
vn -0.6398 -0.7638 -0.0853
vn -0.8301 -0.5542 -0.0621
vn 0.6032 0.7242 0.3341
vn -0.4210 0.8936 0.1559
vn -0.3608 0.8523 0.3786
vn -0.9382 -0.3398 -0.0660
vn -0.6131 0.3420 -0.7121
vn -0.5375 0.6833 0.4942
vn -0.4439 -0.7868 -0.4288
vn -0.8183 -0.2148 0.5332
vn -0.5128 0.0066 0.8585
vn -0.3237 -0.9133 -0.2473
vn -0.5602 -0.7046 -0.4355
vn -0.6131 0.3420 -0.7121
vn -0.9382 -0.3398 -0.0660
vn -0.2923 -0.5221 0.8012
vn -0.6915 -0.0030 0.7224
vn -0.5751 0.1745 -0.7992
vn -0.8516 0.1949 -0.4866
vn -0.4614 -0.5265 -0.7141
vn -0.9360 -0.3479 -0.0540
vn -0.8301 -0.5542 -0.0621
vn -0.6915 -0.0030 0.7224
vn -0.9382 -0.3398 -0.0660
vn -0.6915 -0.0030 0.7224
vn -0.8301 -0.5542 -0.0621
vn -0.5751 0.1745 -0.7992
vn -0.4210 0.8936 0.1559
vn -0.8516 0.1949 -0.4866
vn -0.3608 0.8523 0.3786
vn -0.6882 -0.3757 0.6207
vn -0.5128 0.0066 0.8585
vn -0.6131 0.3420 -0.7121
vn -0.9382 -0.3398 -0.0660
vn -0.3237 -0.9133 -0.2473
vn -0.5375 0.6833 0.4942
vn -0.6408 -0.3991 0.6558
vn -0.7175 -0.6962 0.0229
vn -0.6131 0.3420 -0.7121
vn -0.6419 0.6539 0.4004
vn -0.5375 0.6833 0.4942
vn -0.5375 0.6833 0.4942
vn -0.6419 0.6539 0.4004
vn -0.6408 -0.3991 0.6558
vn -0.5751 0.1745 -0.7992
vn -0.8474 0.5289 0.0461
vn -0.4210 0.8936 0.1559
vn -0.3608 0.8523 0.3786
vn -0.4210 0.8936 0.1559
vn -0.8474 0.5289 0.0461
vn -0.5128 0.0066 0.8585
vn -0.6882 -0.3757 0.6207
vn -0.5554 -0.7566 -0.3452
vn -0.6131 0.3420 -0.7121
vn -0.5602 -0.7046 -0.4355
vn -0.6419 0.6539 0.4004
vn -0.5667 -0.5745 -0.5906
vn -0.5554 -0.7566 -0.3452
vn -0.5751 0.1745 -0.7992
vn -0.6419 0.6539 0.4004
vn -0.5602 -0.7046 -0.4355
vn -0.6408 -0.3991 0.6558
vn -0.5667 -0.5745 -0.5906
vn -0.5128 0.0066 0.8585
vn -0.5554 -0.7566 -0.3452
vn -0.5751 0.1745 -0.7992
vn -0.5554 -0.7566 -0.3452
vn -0.6882 -0.3757 0.6207
vn -0.5751 0.1745 -0.7992
vn -0.6882 -0.3757 0.6207
vn -0.8474 0.5289 0.0461
vn -0.8474 0.5289 0.0461
vn -0.6882 -0.3757 0.6207
vn -0.3608 0.8523 0.3786
vn 0.0000 1.0000 0.0000
vn 0.0000 1.0000 0.0000
vn 0.0000 1.0000 0.0000
vn 0.0000 1.0000 0.0000
vn 0.0000 1.0000 0.0000
vn 0.0000 1.0000 0.0000
vn 0.0000 1.0000 0.0000
vn 0.0000 1.0000 0.0000
vn 0.0000 1.0000 0.0000
vn 0.0000 1.0000 0.0000
vn 0.0000 1.0000 0.0000
f 1/1/1 2/2/2 3/3/3
f 4/4/4 5/5/5 6/6/6
f 7/7/7 8/8/8 9/9/9
f 10/10/10 11/11/11 12/12/12
f 13/13/13 14/14/14 15/15/15
f 16/16/16 17/17/17 18/18/18
f 19/19/19 20/20/20 21/21/21
f 22/22/22 23/23/23 24/24/24
f 25/25/25 26/26/26 27/27/27
f 28/28/28 29/29/29 30/30/30
f 31/31/31 32/32/32 33/33/33
f 34/34/34 35/35/35 36/36/36
f 37/37/37 38/38/38 39/39/39
f 40/40/40 41/41/41 42/42/42
f 43/43/43 44/44/44 45/45/45
f 46/46/46 47/47/47 48/48/48
f 49/49/49 50/50/50 51/51/51
f 52/52/52 53/53/53 54/54/54
f 55/55/55 56/56/56 57/57/57
f 58/58/58 59/59/59 60/60/60
f 61/61/61 62/62/62 63/63/63
f 64/64/64 65/65/65 66/66/66
f 67/67/67 68/68/68 69/69/69
f 70/70/70 71/71/71 72/72/72
f 73/73/73 74/74/74 75/75/75
f 76/76/76 77/77/77 78/78/78
f 79/79/79 80/80/80 81/81/81
f 82/82/82 83/83/83 84/84/84
f 85/85/85 86/86/86 87/87/87
f 88/88/88 89/89/89 90/90/90
f 91/91/91 92/92/92 93/93/93
f 94/94/94 95/95/95 96/96/96
f 97/97/97 98/98/98 99/99/99
f 100/100/100 101/101/101 102/102/102
f 103/103/103 104/104/104 105/105/105
f 106/106/106 107/107/107 108/108/108
f 109/109/109 110/110/110 111/111/111
f 112/112/112 113/113/113 114/114/114
f 115/115/115 116/116/116 117/117/117
f 118/118/118 119/119/119 120/120/120
f 121/121/121 122/122/122 123/123/123
f 124/124/124 125/125/125 126/126/126
f 127/127/127 128/128/128 129/129/129
f 130/130/130 131/131/131 132/132/132
f 133/133/133 134/134/134 135/135/135
f 136/136/136 137/137/137 138/138/138
f 139/139/139 140/140/140 141/141/141
f 142/142/142 143/143/143 144/144/144
f 145/145/145 146/146/146 147/147/147
f 148/148/148 149/149/149 150/150/150
f 151/151/151 152/152/152 153/153/153
f 154/154/154 155/155/155 156/156/156
f 157/157/157 158/158/158 159/159/159
f 160/160/160 161/161/161 162/162/162
f 163/163/163 164/164/164 165/165/165
f 166/166/166 167/167/167 168/168/168
f 169/169/169 170/170/170 171/171/171
f 172/172/172 173/173/173 174/174/174
f 175/175/175 176/176/176 177/177/177
f 178/178/178 179/179/179 180/180/180
f 181/181/181 182/182/182 183/183/183
f 184/184/184 185/185/185 186/186/186
f 187/187/187 188/188/188 189/189/189
f 190/190/190 191/191/191 192/192/192
f 193/193/193 194/194/194 195/195/195
f 196/196/196 197/197/197 198/198/198
f 199/199/199 200/200/200 201/201/201
f 202/202/202 203/203/203 204/204/204
f 205/205/205 206/206/206 207/207/207
f 208/208/208 209/209/209 210/210/210
f 211/211/211 212/212/212 213/213/213
f 214/214/214 215/215/215 216/216/216
f 217/217/217 218/218/218 219/219/219
f 220/220/220 221/221/221 222/222/222
f 223/223/223 224/224/224 225/225/225
f 226/226/226 227/227/227 228/228/228
f 229/229/229 230/230/230 231/231/231
f 232/232/232 233/233/233 234/234/234
f 235/235/235 236/236/236 237/237/237
f 238/238/238 239/239/239 240/240/240
f 241/241/241 242/242/242 243/243/243
f 244/244/244 245/245/245 246/246/246
f 247/247/247 248/248/248 249/249/249
f 250/250/250 251/251/251 252/252/252
f 253/253/253 254/254/254 255/255/255
f 256/256/256 257/257/257 258/258/258
f 259/259/259 260/260/260 261/261/261
f 262/262/262 263/263/263 264/264/264
f 265/265/265 266/266/266 267/267/267
f 268/268/268 269/269/269 270/270/270
f 271/271/271 272/272/272 273/273/273
f 274/274/274 275/275/275 276/276/276
f 277/277/277 278/278/278 279/279/279
f 280/280/280 281/281/281 282/282/282
f 283/283/283 284/284/284 285/285/285
f 286/286/286 287/287/287 288/288/288
f 289/289/289 290/290/290 291/291/291
f 292/292/292 293/293/293 294/294/294
f 295/295/295 296/296/296 297/297/297
f 298/298/298 299/299/299 300/300/300
f 301/301/301 302/302/302 303/303/303
f 304/304/304 305/305/305 306/306/306
f 307/307/307 308/308/308 309/309/309
f 310/310/310 311/311/311 312/312/312
f 313/313/313 314/314/314 315/315/315
f 316/316/316 317/317/317 318/318/318
f 319/319/319 320/320/320 321/321/321
f 322/322/322 323/323/323 324/324/324
f 325/325/325 326/326/326 327/327/327
f 328/328/328 329/329/329 330/330/330
f 331/331/331 332/332/332 333/333/333
f 334/334/334 335/335/335 336/336/336
f 337/337/337 338/338/338 339/339/339
f 340/340/340 341/341/341 342/342/342
f 343/343/343 344/344/344 345/345/345
f 346/346/346 347/347/347 348/348/348
f 349/349/349 350/350/350 351/351/351
f 352/352/352 353/353/353 354/354/354
f 355/355/355 356/356/356 357/357/357
f 355/355/355 357/357/357 356/356/356
f 355/355/355 357/357/357 358/358/358
f 355/355/355 358/358/358 357/357/357
f 355/355/355 358/358/358 359/359/359
f 355/355/355 359/359/359 358/358/358
f 355/355/355 359/359/359 360/360/360
f 355/355/355 360/360/360 359/359/359
f 355/355/355 360/360/360 361/361/361
f 355/355/355 361/361/361 360/360/360
f 355/355/355 361/361/361 362/362/362
f 355/355/355 362/362/362 361/361/361
f 355/355/355 362/362/362 363/363/363
f 355/355/355 363/363/363 362/362/362
f 355/355/355 363/363/363 364/364/364
f 355/355/355 364/364/364 363/363/363
f 355/355/355 364/364/364 365/365/365
f 355/355/355 365/365/365 364/364/364
f 355/355/355 365/365/365 356/356/356
f 355/355/355 356/356/356 365/365/365
