o leg_right_2
v 1.40160 0.42832 0.93878
v 1.42877 0.02250 0.92474
v 1.41554 0.43975 0.87878
v 1.41554 0.43975 0.87878
v 1.42877 0.02250 0.92474
v 1.41005 0.23504 0.87454
v 1.42877 0.02250 0.92474
v 1.40160 0.42832 0.93878
v 1.40322 0.02137 0.93719
v 1.41554 0.43975 0.87878
v 1.41005 0.23504 0.87454
v 1.37475 0.41780 0.83047
v 1.36056 0.73808 0.93105
v 1.40160 0.42832 0.93878
v 1.41554 0.43975 0.87878
v 1.39590 0.42600 0.81853
v 1.41554 0.43975 0.87878
v 1.37475 0.41780 0.83047
v 1.40160 0.42832 0.93878
v 1.36309 0.21905 0.93994
v 1.40322 0.02137 0.93719
v 1.40160 0.42832 0.93878
v 1.36056 0.73808 0.93105
v 1.29820 0.42761 0.94443
v 1.41005 0.23504 0.87454
v 1.42877 0.02250 0.92474
v 1.34880 0.22525 0.89005
v 1.41554 0.43975 0.87878
v 1.35742 0.73436 0.84540
v 1.36056 0.73808 0.93105
v 1.41554 0.43975 0.87878
v 1.39590 0.42600 0.81853
v 1.33977 0.73185 0.77466
v 1.34880 0.22525 0.89005
v 1.42877 0.02250 0.92474
v 1.40322 0.02137 0.93719
v 1.29820 0.42761 0.94443
v 1.36309 0.21905 0.93994
v 1.40160 0.42832 0.93878
v 1.36309 0.21905 0.93994
v 1.34880 0.22525 0.89005
v 1.40322 0.02137 0.93719
v 1.33977 0.73185 0.77466
v 1.35742 0.73436 0.84540
v 1.41554 0.43975 0.87878
v 1.35755 0.81444 0.98260
v 1.34934 0.80951 0.91876
v 1.35494 0.90401 0.97671
v 1.35766 0.90077 0.91458
v 1.35494 0.90401 0.97671
v 1.34934 0.80951 0.91876
v 1.29429 0.41331 0.85037
v 1.41005 0.23504 0.87454
v 1.34880 0.22525 0.89005
v 1.30235 0.65922 0.78987
v 1.33977 0.73185 0.77466
v 1.39590 0.42600 0.81853
v 1.34266 0.84363 0.82393
v 1.34934 0.80951 0.91876
v 1.35742 0.73436 0.84540
v 1.30057 0.92333 0.72318
v 1.35742 0.73436 0.84540
v 1.33977 0.73185 0.77466
v 1.35742 0.73436 0.84540
v 1.34934 0.80951 0.91876
v 1.36056 0.73808 0.93105
v 1.32550 0.90338 0.91573
v 1.35494 0.90401 0.97671
v 1.35766 0.90077 0.91458
v 1.34266 0.84363 0.82393
v 1.35742 0.73436 0.84540
v 1.30057 0.92333 0.72318
v 1.36309 0.21905 0.93994
v 1.29820 0.42761 0.94443
v 1.34880 0.22525 0.89005
v 1.34934 0.80951 0.91876
v 1.34266 0.84363 0.82393
v 1.32550 0.90338 0.91573
v 1.41005 0.23504 0.87454
v 1.29429 0.41331 0.85037
v 1.37475 0.41780 0.83047
v 1.34934 0.80951 0.91876
v 1.32550 0.90338 0.91573
v 1.35766 0.90077 0.91458
v 1.29820 0.42761 0.94443
v 1.29429 0.41331 0.85037
v 1.34880 0.22525 0.89005
v 1.26210 0.81561 0.93325
v 1.36056 0.73808 0.93105
v 1.34934 0.80951 0.91876
v 1.35494 0.90401 0.97671
v 1.27424 0.79613 0.98236
v 1.35755 0.81444 0.98260
v 1.30235 0.65922 0.78987
v 1.30057 0.92333 0.72318
v 1.33977 0.73185 0.77466
v 1.26905 1.07104 0.70711
v 1.34266 0.84363 0.82393
v 1.30057 0.92333 0.72318
v 1.26905 1.07104 0.70711
v 1.21111 1.35251 0.75165
v 1.34266 0.84363 0.82393
v 1.34934 0.80951 0.91876
v 1.35755 0.81444 0.98260
v 1.27424 0.79613 0.98236
v 1.35494 0.90401 0.97671
v 1.24622 0.90419 0.97476
v 1.27424 0.79613 0.98236
v 1.30228 1.10079 0.96695
v 1.28397 1.19650 0.89582
v 1.28429 1.19677 0.96149
v 1.21111 1.35251 0.75165
v 1.25143 1.19794 0.88865
v 1.34266 0.84363 0.82393
v 1.30228 1.10079 0.96695
v 1.29113 1.09729 0.89781
v 1.28397 1.19650 0.89582
v 1.30235 0.65922 0.78987
v 1.28023 0.75934 0.77349
v 1.30057 0.92333 0.72318
v 1.34266 0.84363 0.82393
v 1.29113 1.09729 0.89781
v 1.32550 0.90338 0.91573
v 1.20487 0.80754 0.92886
v 1.36056 0.73808 0.93105
v 1.26210 0.81561 0.93325
v 1.25609 0.57728 0.82233
v 1.37475 0.41780 0.83047
v 1.29429 0.41331 0.85037
v 1.28397 1.19650 0.89582
v 1.29113 1.09729 0.89781
v 1.25143 1.19794 0.88865
v 1.27573 0.66980 0.75746
v 1.26812 0.75875 0.73929
v 1.30235 0.65922 0.78987
v 1.25143 1.19794 0.88865
v 1.29113 1.09729 0.89781
v 1.34266 0.84363 0.82393
v 1.25609 0.57728 0.82233
v 1.39590 0.42600 0.81853
v 1.37475 0.41780 0.83047
v 1.22570 1.06697 0.90541
v 1.32550 0.90338 0.91573
v 1.29113 1.09729 0.89781
v 1.34934 0.80951 0.91876
v 1.27424 0.79613 0.98236
v 1.26210 0.81561 0.93325
v 1.28023 0.75934 0.77349
v 1.30235 0.65922 0.78987
v 1.26812 0.75875 0.73929
v 1.22979 1.06914 0.97108
v 1.29113 1.09729 0.89781
v 1.30228 1.10079 0.96695
v 1.30057 0.92333 0.72318
v 1.28023 0.75934 0.77349
v 1.24806 0.85288 0.76985
v 1.23019 0.66851 0.83261
v 1.30235 0.65922 0.78987
v 1.25609 0.57728 0.82233
v 1.39590 0.42600 0.81853
v 1.25609 0.57728 0.82233
v 1.30235 0.65922 0.78987
v 1.24622 0.90419 0.97476
v 1.35494 0.90401 0.97671
v 1.32550 0.90338 0.91573
v 1.30235 0.65922 0.78987
v 1.20631 0.67231 0.77242
v 1.27573 0.66980 0.75746
v 1.24534 0.89955 0.92340
v 1.24622 0.90419 0.97476
v 1.32550 0.90338 0.91573
v 1.30228 1.10079 0.96695
v 1.28429 1.19677 0.96149
v 1.22979 1.06914 0.97108
v 1.26905 1.07104 0.70711
v 1.30057 0.92333 0.72318
v 1.21149 1.03781 0.71070
v 1.27424 0.79613 0.98236
v 1.24534 0.89955 0.92340
v 1.26210 0.81561 0.93325
v 1.26812 0.75875 0.73929
v 1.20329 0.77624 0.81677
v 1.28023 0.75934 0.77349
v 1.29429 0.41331 0.85037
v 1.29820 0.42761 0.94443
v 1.25609 0.57728 0.82233
v 1.30057 0.92333 0.72318
v 1.24806 0.85288 0.76985
v 1.22829 0.94310 0.72986
v 1.36056 0.73808 0.93105
v 1.20487 0.80754 0.92886
v 1.29820 0.42761 0.94443
v 1.32550 0.90338 0.91573
v 1.22192 0.85331 0.92553
v 1.24534 0.89955 0.92340
v 1.24534 0.89955 0.92340
v 1.22192 0.85331 0.92553
v 1.26210 0.81561 0.93325
v 1.22570 1.06697 0.90541
v 1.29113 1.09729 0.89781
v 1.22979 1.06914 0.97108
v 1.27424 0.79613 0.98236
v 1.24622 0.90419 0.97476
v 1.24534 0.89955 0.92340
v 1.20631 0.67231 0.77242
v 1.30235 0.65922 0.78987
v 1.23019 0.66851 0.83261
v 1.26210 0.81561 0.93325
v 1.22780 0.81463 0.97602
v 1.20487 0.80754 0.92886
v 1.28429 1.19677 0.96149
v 1.28397 1.19650 0.89582
v 1.25143 1.19794 0.88865
v 1.22979 1.06914 0.97108
v 1.28429 1.19677 0.96149
v 1.18466 1.19678 0.96133
v 1.20487 0.80754 0.92886
v 1.25609 0.57728 0.82233
v 1.29820 0.42761 0.94443
v 1.28023 0.75934 0.77349
v 1.20329 0.77624 0.81677
v 1.24806 0.85288 0.76985
v 1.22829 0.94310 0.72986
v 1.21149 1.03781 0.71070
v 1.30057 0.92333 0.72318
v 1.24806 0.85288 0.76985
v 1.20329 0.77624 0.81677
v 1.18999 0.84125 0.78742
v 1.20487 0.80754 0.92886
v 1.23019 0.66851 0.83261
v 1.25609 0.57728 0.82233
v 1.22192 0.85331 0.92553
v 1.32550 0.90338 0.91573
v 1.17872 0.95274 0.91279
v 1.26210 0.81561 0.93325
v 1.22192 0.85331 0.92553
v 1.22780 0.81463 0.97602
v 1.23019 0.66851 0.83261
v 1.20487 0.80754 0.92886
v 1.20329 0.77624 0.81677
v 1.26812 0.75875 0.73929
v 1.20631 0.67231 0.77242
v 1.19119 0.76826 0.75140
v 1.20631 0.67231 0.77242
v 1.26812 0.75875 0.73929
v 1.27573 0.66980 0.75746
v 1.17127 0.92980 0.74378
v 1.22829 0.94310 0.72986
v 1.24806 0.85288 0.76985
v 1.20953 0.67252 0.83182
v 1.20631 0.67231 0.77242
v 1.23019 0.66851 0.83261
v 1.18466 1.19678 0.96133
v 1.28429 1.19677 0.96149
v 1.25143 1.19794 0.88865
v 1.20654 0.93766 0.69300
v 1.18975 1.03138 0.67726
v 1.22829 0.94310 0.72986
v 1.26812 0.75875 0.73929
v 1.19119 0.76826 0.75140
v 1.20329 0.77624 0.81677
v 1.18819 0.94699 0.97326
v 1.13251 0.81097 0.97662
v 1.22780 0.81463 0.97602
v 1.25143 1.19794 0.88865
v 1.19565 1.40936 0.85916
v 1.11220 1.31189 0.87951
v 1.21111 1.35251 0.75165
v 1.26905 1.07104 0.70711
v 1.15092 1.46838 0.65863
v 1.20329 0.77624 0.81677
v 1.20487 0.80754 0.92886
v 1.19864 0.81040 0.85561
v 1.25143 1.19794 0.88865
v 1.18799 1.41751 0.79170
v 1.19565 1.40936 0.85916
v 1.20953 0.67252 0.83182
v 1.23019 0.66851 0.83261
v 1.20329 0.77624 0.81677
v 1.18975 1.03138 0.67726
v 1.21149 1.03781 0.71070
v 1.22829 0.94310 0.72986
v 1.22570 1.06697 0.90541
v 1.22979 1.06914 0.97108
v 1.18104 1.19392 0.88662
v 1.18104 1.19392 0.88662
v 1.22979 1.06914 0.97108
v 1.18466 1.19678 0.96133
v 1.18799 1.41751 0.79170
v 1.25143 1.19794 0.88865
v 1.21111 1.35251 0.75165
v 1.22780 0.81463 0.97602
v 1.22192 0.85331 0.92553
v 1.18819 0.94699 0.97326
v 1.18104 1.19392 0.88662
v 1.18466 1.19678 0.96133
v 1.25143 1.19794 0.88865
v 1.19565 1.40936 0.85916
v 1.18502 1.50705 0.78852
v 1.18855 1.51368 0.83188
v 1.19565 1.40936 0.85916
v 1.18799 1.41751 0.79170
v 1.18502 1.50705 0.78852
v 1.24806 0.85288 0.76985
v 1.18999 0.84125 0.78742
v 1.17127 0.92980 0.74378
v 1.22192 0.85331 0.92553
v 1.17872 0.95274 0.91279
v 1.18819 0.94699 0.97326
v 1.19864 0.81040 0.85561
v 1.18999 0.84125 0.78742
v 1.20329 0.77624 0.81677
v 1.21111 1.35251 0.75165
v 1.16190 1.49961 0.78590
v 1.18799 1.41751 0.79170
v 1.19864 0.81040 0.85561
v 1.20487 0.80754 0.92886
v 1.13137 0.80536 0.85837
v 1.20631 0.67231 0.77242
v 1.20953 0.67252 0.83182
v 1.19119 0.76826 0.75140
v 1.18104 1.19392 0.88662
v 1.25143 1.19794 0.88865
v 1.11220 1.31189 0.87951
v 1.13585 0.93139 0.71128
v 1.18975 1.03138 0.67726
v 1.20654 0.93766 0.69300
v 1.20487 0.80754 0.92886
v 1.22780 0.81463 0.97602
v 1.13137 0.80536 0.85837
v 1.20329 0.77624 0.81677
v 1.19119 0.76826 0.75140
v 1.20953 0.67252 0.83182
v 1.22829 0.94310 0.72986
v 1.13585 0.93139 0.71128
v 1.20654 0.93766 0.69300
v 1.22829 0.94310 0.72986
v 1.17127 0.92980 0.74378
v 1.13585 0.93139 0.71128
v 1.17872 0.95274 0.91279
v 1.10070 0.94329 0.96950
v 1.18819 0.94699 0.97326
v 1.14380 1.30241 0.67844
v 1.15092 1.46838 0.65863
v 1.26905 1.07104 0.70711
v 1.14380 1.30241 0.67844
v 1.26905 1.07104 0.70711
v 1.21149 1.03781 0.71070
v 1.18799 1.41751 0.79170
v 1.16190 1.49961 0.78590
v 1.18502 1.50705 0.78852
v 1.18975 1.03138 0.67726
v 1.11119 1.03936 0.69303
v 1.13358 1.04815 0.74310
v 1.16190 1.49961 0.78590
v 1.18855 1.51368 0.83188
v 1.18502 1.50705 0.78852
v 1.18855 1.51368 0.83188
v 1.16190 1.49961 0.78590
v 1.14706 1.51091 0.85886
v 1.15901 0.95186 0.85780
v 1.18999 0.84125 0.78742
v 1.19864 0.81040 0.85561
v 1.15901 0.95186 0.85780
v 1.16212 0.93889 0.78434
v 1.18999 0.84125 0.78742
v 1.21111 1.35251 0.75165
v 1.15092 1.46838 0.65863
v 1.16190 1.49961 0.78590
v 1.17127 0.92980 0.74378
v 1.18999 0.84125 0.78742
v 1.16212 0.93889 0.78434
v 1.22570 1.06697 0.90541
v 1.18104 1.19392 0.88662
v 1.11724 1.12216 0.89628
v 1.22780 0.81463 0.97602
v 1.13251 0.81097 0.97662
v 1.13137 0.80536 0.85837
v 1.18819 0.94699 0.97326
v 1.10070 0.94329 0.96950
v 1.13251 0.81097 0.97662
v 1.13585 0.93139 0.71128
v 1.11119 1.03936 0.69303
v 1.18975 1.03138 0.67726
v 1.22570 1.06697 0.90541
v 1.11724 1.12216 0.89628
v 1.17872 0.95274 0.91279
v 1.16212 0.93889 0.78434
v 1.13582 0.93751 0.77924
v 1.17127 0.92980 0.74378
v 1.18975 1.03138 0.67726
v 1.13358 1.04815 0.74310
v 1.21149 1.03781 0.71070
v 1.14706 1.51091 0.85886
v 1.19565 1.40936 0.85916
v 1.18855 1.51368 0.83188
v 1.10465 1.56119 0.65893
v 1.16190 1.49961 0.78590
v 1.15092 1.46838 0.65863
v 1.17872 0.95274 0.91279
v 1.32550 0.90338 0.91573
v 1.22570 1.06697 0.90541
v 1.15092 1.46838 0.65863
v 1.14380 1.30241 0.67844
v 1.12379 1.39043 0.66452
v 1.15901 0.95186 0.85780
v 1.17872 0.95274 0.91279
v 1.11724 1.12216 0.89628
v 1.10070 0.94329 0.96950
v 1.15901 0.95186 0.85780
v 1.09300 0.93930 0.85768
v 1.14280 1.46527 0.59293
v 1.09907 1.57186 0.65053
v 1.15092 1.46838 0.65863
v 1.15901 0.95186 0.85780
v 1.11724 1.12216 0.89628
v 1.16212 0.93889 0.78434
v 1.10070 0.94329 0.96950
v 1.17872 0.95274 0.91279
v 1.15901 0.95186 0.85780
v 1.13585 0.93139 0.71128
v 1.17127 0.92980 0.74378
v 1.13582 0.93751 0.77924
v 1.16212 0.93889 0.78434
v 1.11724 1.12216 0.89628
v 1.12307 1.04598 0.76684
v 1.14380 1.30241 0.67844
v 1.13587 1.29770 0.64357
v 1.12379 1.39043 0.66452
v 1.11892 1.38854 0.62982
v 1.12379 1.39043 0.66452
v 1.13587 1.29770 0.64357
v 1.13582 0.93751 0.77924
v 1.16212 0.93889 0.78434
v 1.12307 1.04598 0.76684
v 1.14706 1.51091 0.85886
v 1.03578 1.68268 0.84114
v 1.06092 1.44835 0.86515
v 1.13358 1.04815 0.74310
v 1.12307 1.04598 0.76684
v 1.11724 1.12216 0.89628
v 1.13585 0.93139 0.71128
v 1.13582 0.93751 0.77924
v 1.11119 1.03936 0.69303
v 1.06092 1.44835 0.86515
v 1.19565 1.40936 0.85916
v 1.14706 1.51091 0.85886
v 1.09907 1.57186 0.65053
v 1.10465 1.56119 0.65893
v 1.15092 1.46838 0.65863
v 1.11119 1.03936 0.69303
v 1.12307 1.04598 0.76684
v 1.13358 1.04815 0.74310
v 1.14380 1.30241 0.67844
v 1.09519 1.28809 0.64609
v 1.13587 1.29770 0.64357
v 1.19864 0.81040 0.85561
v 1.09300 0.93930 0.85768
v 1.15901 0.95186 0.85780
v 1.03578 1.68268 0.84114
v 1.14706 1.51091 0.85886
v 1.16190 1.49961 0.78590
v 1.09907 1.57186 0.65053
v 1.14280 1.46527 0.59293
v 1.08196 1.57291 0.59383
v 1.13582 0.93751 0.77924
v 1.12307 1.04598 0.76684
v 1.11119 1.03936 0.69303
v 1.21149 1.03781 0.71070
v 1.05883 1.27853 0.71662
v 1.14380 1.30241 0.67844
v 1.09321 1.39332 0.67122
v 1.15092 1.46838 0.65863
v 1.12379 1.39043 0.66452
v 1.13137 0.80536 0.85837
v 1.09300 0.93930 0.85768
v 1.19864 0.81040 0.85561
v 1.13251 0.81097 0.97662
v 1.10070 0.94329 0.96950
v 1.13137 0.80536 0.85837
v 1.14280 1.46527 0.59293
v 1.15092 1.46838 0.65863
v 1.08244 1.43512 0.66243
v 1.21149 1.03781 0.71070
v 1.13358 1.04815 0.74310
v 1.08045 1.22096 0.72379
v 1.21149 1.03781 0.71070
v 1.08045 1.22096 0.72379
v 1.05883 1.27853 0.71662
v 1.03578 1.68268 0.84114
v 1.16190 1.49961 0.78590
v 1.10465 1.56119 0.65893
v 1.13358 1.04815 0.74310
v 1.11724 1.12216 0.89628
v 1.08045 1.22096 0.72379
v 1.12379 1.39043 0.66452
v 1.11892 1.38854 0.62982
v 1.09321 1.39332 0.67122
v 1.18104 1.19392 0.88662
v 1.06094 1.29010 0.88099
v 1.11724 1.12216 0.89628
v 1.11892 1.38854 0.62982
v 1.13587 1.29770 0.64357
v 1.09519 1.28809 0.64609
v 1.15092 1.46838 0.65863
v 1.09321 1.39332 0.67122
v 1.08244 1.43512 0.66243
v 1.09300 0.93930 0.85768
v 1.13137 0.80536 0.85837
v 1.10070 0.94329 0.96950
v 1.14280 1.46527 0.59293
v 1.08244 1.43512 0.66243
v 1.07175 1.44023 0.61648
v 1.18104 1.19392 0.88662
v 1.11220 1.31189 0.87951
v 1.06094 1.29010 0.88099
v 1.09519 1.28809 0.64609
v 1.14380 1.30241 0.67844
v 1.05883 1.27853 0.71662
v 1.06094 1.29010 0.88099
v 1.11220 1.31189 0.87951
v 1.09804 1.31171 0.93734
v 1.11892 1.38854 0.62982
v 1.09519 1.28809 0.64609
v 1.05702 1.36689 0.64481
v 1.05506 1.44524 0.93286
v 1.11220 1.31189 0.87951
v 1.06092 1.44835 0.86515
v 1.11220 1.31189 0.87951
v 1.05506 1.44524 0.93286
v 1.09804 1.31171 0.93734
v 1.06094 1.29010 0.88099
v 1.08045 1.22096 0.72379
v 1.11724 1.12216 0.89628
v 1.19565 1.40936 0.85916
v 1.06092 1.44835 0.86515
v 1.11220 1.31189 0.87951
v 1.05883 1.27853 0.71662
v 1.08045 1.22096 0.72379
v 1.06281 1.27129 0.83001
v 1.08045 1.22096 0.72379
v 1.06094 1.29010 0.88099
v 1.06281 1.27129 0.83001
v 1.09519 1.28809 0.64609
v 1.05883 1.27853 0.71662
v 1.05702 1.36689 0.64481
v 1.09321 1.39332 0.67122
v 1.11892 1.38854 0.62982
v 1.04879 1.37793 0.65091
v 1.08244 1.43512 0.66243
v 1.05353 1.42839 0.64898
v 1.07175 1.44023 0.61648
v 1.06092 1.44835 0.86515
v 1.03578 1.68268 0.84114
v 0.98599 1.44499 0.86309
v 1.02859 1.53174 0.62054
v 1.14280 1.46527 0.59293
v 1.07175 1.44023 0.61648
v 1.05702 1.36689 0.64481
v 1.04879 1.37793 0.65091
v 1.11892 1.38854 0.62982
v 1.02995 1.69085 0.78725
v 1.03578 1.68268 0.84114
v 1.10465 1.56119 0.65893
v 1.03814 1.33165 0.82021
v 1.05883 1.27853 0.71662
v 1.06281 1.27129 0.83001
v 1.09804 1.31171 0.93734
v 1.05578 1.28645 0.92996
v 1.06094 1.29010 0.88099
v 1.09907 1.57186 0.65053
v 1.08196 1.57291 0.59383
v 1.02859 1.53174 0.62054
v 1.09321 1.39332 0.67122
v 1.05353 1.42839 0.64898
v 1.08244 1.43512 0.66243
v 1.09321 1.39332 0.67122
v 1.04879 1.37793 0.65091
v 1.05353 1.42839 0.64898
v 1.06094 1.29010 0.88099
v 1.05578 1.28645 0.92996
v 1.06281 1.27129 0.83001
v 1.08196 1.57291 0.59383
v 1.14280 1.46527 0.59293
v 1.02859 1.53174 0.62054
v 1.05702 1.36689 0.64481
v 1.05883 1.27853 0.71662
v 1.03044 1.35667 0.72951
v 1.03814 1.33165 0.82021
v 1.03044 1.35667 0.72951
v 1.05883 1.27853 0.71662
v 1.02859 1.53174 0.62054
v 1.07175 1.44023 0.61648
v 1.05353 1.42839 0.64898
v 1.03419 1.32876 0.74545
v 1.03044 1.35667 0.72951
v 1.03814 1.33165 0.82021
v 1.05702 1.36689 0.64481
v 1.03044 1.35667 0.72951
v 1.00340 1.34677 0.67644
v 1.05702 1.36689 0.64481
v 1.00340 1.34677 0.67644
v 1.04879 1.37793 0.65091
v 0.98599 1.44499 0.86309
v 1.05506 1.44524 0.93286
v 1.06092 1.44835 0.86515
v 1.03578 1.68268 0.84114
v 1.02995 1.69085 0.78725
v 1.00468 1.67821 0.84121
v 0.94748 1.26052 0.93683
v 1.06281 1.27129 0.83001
v 1.05578 1.28645 0.92996
v 1.09907 1.57186 0.65053
v 1.02859 1.53174 0.62054
v 0.96082 1.74532 0.62165
v 1.03044 1.35667 0.72951
v 1.03419 1.32876 0.74545
v 0.96248 1.31314 0.74465
v 1.06281 1.27129 0.83001
v 0.94748 1.26052 0.93683
v 0.94371 1.25857 0.82949
v 1.09804 1.31171 0.93734
v 0.94748 1.26052 0.93683
v 1.05578 1.28645 0.92996
v 1.02995 1.69085 0.78725
v 1.00955 1.68283 0.80687
v 1.00468 1.67821 0.84121
v 1.09907 1.57186 0.65053
v 0.96082 1.74532 0.62165
v 1.10465 1.56119 0.65893
v 1.03814 1.33165 0.82021
v 1.06281 1.27129 0.83001
v 0.94371 1.25857 0.82949
v 0.99735 1.35487 0.73542
v 1.00340 1.34677 0.67644
v 1.03044 1.35667 0.72951
v 0.90438 1.84988 0.70603
v 1.10465 1.56119 0.65893
v 0.96082 1.74532 0.62165
v 1.05506 1.44524 0.93286
v 0.94748 1.26052 0.93683
v 1.09804 1.31171 0.93734
v 1.00468 1.67821 0.84121
v 1.00955 1.68283 0.80687
v 0.98213 1.72270 0.82522
v 0.96248 1.31314 0.74465
v 1.03419 1.32876 0.74545
v 0.96493 1.31433 0.82308
v 1.04879 1.37793 0.65091
v 1.02859 1.53174 0.62054
v 1.05353 1.42839 0.64898
v 1.04879 1.37793 0.65091
v 1.00340 1.34677 0.67644
v 0.95569 1.46091 0.65828
v 0.99735 1.35487 0.73542
v 1.03044 1.35667 0.72951
v 0.96248 1.31314 0.74465
v 1.10465 1.56119 0.65893
v 0.91160 1.84318 0.75482
v 1.02995 1.69085 0.78725
v 1.02859 1.53174 0.62054
v 1.04879 1.37793 0.65091
v 0.97162 1.54954 0.61975
v 1.03814 1.33165 0.82021
v 0.94371 1.25857 0.82949
v 0.96493 1.31433 0.82308
v 1.02859 1.53174 0.62054
v 0.97162 1.54954 0.61975
v 0.96082 1.74532 0.62165
v 0.91160 1.84318 0.75482
v 1.10465 1.56119 0.65893
v 0.90438 1.84988 0.70603
v 1.00468 1.67821 0.84121
v 0.98213 1.72270 0.82522
v 0.93587 1.72419 0.83804
v 0.91160 1.84318 0.75482
v 1.00955 1.68283 0.80687
v 1.02995 1.69085 0.78725
v 1.00955 1.68283 0.80687
v 0.94337 1.77923 0.77457
v 0.98213 1.72270 0.82522
v 0.95569 1.46091 0.65828
v 0.97162 1.54954 0.61975
v 1.04879 1.37793 0.65091
v 1.03419 1.32876 0.74545
v 1.03814 1.33165 0.82021
v 0.96493 1.31433 0.82308
v 0.91160 1.84318 0.75482
v 0.94337 1.77923 0.77457
v 1.00955 1.68283 0.80687
v 0.95465 1.46746 0.72416
v 0.95569 1.46091 0.65828
v 1.00340 1.34677 0.67644
v 1.05506 1.44524 0.93286
v 0.98599 1.44499 0.86309
v 0.91516 1.43349 0.82093
v 0.95465 1.46746 0.72416
v 1.00340 1.34677 0.67644
v 0.99735 1.35487 0.73542
v 0.96952 1.44268 0.81920
v 0.91516 1.43349 0.82093
v 0.98599 1.44499 0.86309
v 0.96248 1.31314 0.74465
v 0.91238 1.45996 0.72516
v 0.99735 1.35487 0.73542
v 0.91238 1.45996 0.72516
v 0.95465 1.46746 0.72416
v 0.99735 1.35487 0.73542
v 1.03578 1.68268 0.84114
v 1.00468 1.67821 0.84121
v 0.98599 1.44499 0.86309
v 0.96952 1.44268 0.81920
v 0.98599 1.44499 0.86309
v 0.95455 1.48630 0.81541
v 0.94337 1.77923 0.77457
v 0.94773 1.77786 0.80064
v 0.98213 1.72270 0.82522
v 0.98599 1.44499 0.86309
v 0.94853 1.49963 0.84002
v 0.95455 1.48630 0.81541
v 0.98213 1.72270 0.82522
v 0.94773 1.77786 0.80064
v 0.92234 1.73908 0.81319
v 0.94748 1.26052 0.93683
v 1.05506 1.44524 0.93286
v 0.89172 1.42790 0.93358
v 0.91238 1.45996 0.72516
v 0.95569 1.46091 0.65828
v 0.95465 1.46746 0.72416
v 0.87414 1.70651 0.62974
v 0.96082 1.74532 0.62165
v 0.97162 1.54954 0.61975
v 0.92234 1.73908 0.81319
v 0.93587 1.72419 0.83804
v 0.98213 1.72270 0.82522
v 0.90438 1.84988 0.70603
v 0.96082 1.74532 0.62165
v 0.89884 1.83384 0.60984
v 0.93587 1.72419 0.83804
v 0.98599 1.44499 0.86309
v 1.00468 1.67821 0.84121
v 0.91238 1.45996 0.72516
v 0.90913 1.46399 0.64968
v 0.95569 1.46091 0.65828
v 0.96493 1.31433 0.82308
v 0.91516 1.43349 0.82093
v 0.96248 1.31314 0.74465
v 0.91516 1.43349 0.82093
v 0.96952 1.44268 0.81920
v 0.89778 1.47479 0.81462
v 0.97162 1.54954 0.61975
v 0.95569 1.46091 0.65828
v 0.90641 1.58894 0.64596
v 0.96952 1.44268 0.81920
v 0.95455 1.48630 0.81541
v 0.89778 1.47479 0.81462
v 0.95455 1.48630 0.81541
v 0.94853 1.49963 0.84002
v 0.89778 1.47479 0.81462
v 0.87414 1.70651 0.62974
v 0.89884 1.83384 0.60984
v 0.96082 1.74532 0.62165
v 0.95569 1.46091 0.65828
v 0.90913 1.46399 0.64968
v 0.90641 1.58894 0.64596
v 0.91516 1.43349 0.82093
v 0.91238 1.45996 0.72516
v 0.96248 1.31314 0.74465
v 0.97162 1.54954 0.61975
v 0.90641 1.58894 0.64596
v 0.87414 1.70651 0.62974
v 0.94371 1.25857 0.82949
v 0.91516 1.43349 0.82093
v 0.96493 1.31433 0.82308
v 0.94853 1.49963 0.84002
v 0.98599 1.44499 0.86309
v 0.89979 1.59982 0.80914
v 0.93587 1.72419 0.83804
v 0.92234 1.73908 0.81319
v 0.84450 1.70658 0.83791
v 0.94748 1.26052 0.93683
v 0.89172 1.42790 0.93358
v 0.94371 1.25857 0.82949
v 0.89172 1.42790 0.93358
v 1.05506 1.44524 0.93286
v 0.91516 1.43349 0.82093
v 0.86029 1.75235 0.77168
v 0.94337 1.77923 0.77457
v 0.91160 1.84318 0.75482
v 0.89778 1.47479 0.81462
v 0.91238 1.45996 0.72516
v 0.91516 1.43349 0.82093
v 0.84450 1.70658 0.83791
v 0.92234 1.73908 0.81319
v 0.86796 1.73217 0.81238
v 0.94337 1.77923 0.77457
v 0.86029 1.75235 0.77168
v 0.94773 1.77786 0.80064
v 0.90641 1.58894 0.64596
v 0.89979 1.59982 0.80914
v 0.89282 1.68321 0.77959
v 0.91160 1.84318 0.75482
v 0.88951 1.83927 0.74144
v 0.86616 1.81111 0.75296
v 0.90913 1.46399 0.64968
v 0.85851 1.58515 0.64659
v 0.90641 1.58894 0.64596
v 0.93587 1.72419 0.83804
v 0.84450 1.70658 0.83791
v 0.98599 1.44499 0.86309
v 0.90913 1.46399 0.64968
v 0.91238 1.45996 0.72516
v 0.89778 1.47479 0.81462
v 0.90438 1.84988 0.70603
v 0.88951 1.83927 0.74144
v 0.91160 1.84318 0.75482
v 0.90641 1.58894 0.64596
v 0.88949 1.68009 0.71182
v 0.87377 1.65723 0.68651
v 0.88949 1.68009 0.71182
v 0.90641 1.58894 0.64596
v 0.89282 1.68321 0.77959
v 0.89979 1.59982 0.80914
v 0.84696 1.70289 0.78342
v 0.89282 1.68321 0.77959
v 0.91160 1.84318 0.75482
v 0.86616 1.81111 0.75296
v 0.86029 1.75235 0.77168
v 0.98599 1.44499 0.86309
v 0.84450 1.70658 0.83791
v 0.89979 1.59982 0.80914
v 0.87598 1.73822 0.62785
v 0.89884 1.83384 0.60984
v 0.87414 1.70651 0.62974
v 0.92234 1.73908 0.81319
v 0.94773 1.77786 0.80064
v 0.86796 1.73217 0.81238
v 0.90438 1.84988 0.70603
v 0.89884 1.83384 0.60984
v 0.86521 1.88026 0.61234
v 0.94371 1.25857 0.82949
v 0.89172 1.42790 0.93358
v 0.91516 1.43349 0.82093
v 0.94853 1.49963 0.84002
v 0.89979 1.59982 0.80914
v 0.85234 1.58761 0.82248
v 0.90641 1.58894 0.64596
v 0.87306 1.65659 0.63922
v 0.87414 1.70651 0.62974
v 0.88949 1.68009 0.71182
v 0.89282 1.68321 0.77959
v 0.86482 1.71423 0.77900
v 0.90438 1.84988 0.70603
v 0.86504 1.90170 0.74236
v 0.88951 1.83927 0.74144
v 0.86796 1.73217 0.81238
v 0.94773 1.77786 0.80064
v 0.86029 1.75235 0.77168
v 0.87414 1.70651 0.62974
v 0.87431 1.70499 0.64686
v 0.87598 1.73822 0.62785
v 0.89979 1.59982 0.80914
v 0.85851 1.58515 0.64659
v 0.85234 1.58761 0.82248
v 0.89282 1.68321 0.77959
v 0.84696 1.70289 0.78342
v 0.86482 1.71423 0.77900
v 0.90913 1.46399 0.64968
v 0.89778 1.47479 0.81462
v 0.85851 1.58515 0.64659
v 0.86521 1.88026 0.61234
v 0.86504 1.90170 0.74236
v 0.90438 1.84988 0.70603
v 0.85851 1.58515 0.64659
v 0.89979 1.59982 0.80914
v 0.90641 1.58894 0.64596
v 0.87377 1.65723 0.68651
v 0.87306 1.65659 0.63922
v 0.90641 1.58894 0.64596
v 0.85851 1.58515 0.64659
v 0.89778 1.47479 0.81462
v 0.85234 1.58761 0.82248
v 0.85234 1.58761 0.82248
v 0.89778 1.47479 0.81462
v 0.94853 1.49963 0.84002
v 0.88951 1.83927 0.74144
v 0.86504 1.90170 0.74236
v 0.86616 1.81111 0.75296
v 0.84450 1.70658 0.83791
v 0.84696 1.70289 0.78342
v 0.89979 1.59982 0.80914
v 0.86796 1.73217 0.81238
v 0.86482 1.71423 0.77900
v 0.84450 1.70658 0.83791
v 0.87306 1.65659 0.63922
v 0.84597 1.64437 0.61812
v 0.87414 1.70651 0.62974
v 0.84696 1.70289 0.78342
v 0.84450 1.70658 0.83791
v 0.86482 1.71423 0.77900
v 0.87431 1.70499 0.64686
v 0.87414 1.70651 0.62974
v 0.87598 1.73822 0.62785
v 0.86482 1.71423 0.77900
v 0.85324 1.74975 0.73182
v 0.88949 1.68009 0.71182
v 0.86029 1.75235 0.77168
v 0.86482 1.71423 0.77900
v 0.86796 1.73217 0.81238
v 0.89884 1.83384 0.60984
v 0.83598 1.78467 0.61863
v 0.86521 1.88026 0.61234
v 0.85324 1.74975 0.73182
v 0.86482 1.71423 0.77900
v 0.86029 1.75235 0.77168
v 0.86616 1.81111 0.75296
v 0.85324 1.74975 0.73182
v 0.86029 1.75235 0.77168
v 0.87598 1.73822 0.62785
v 0.83598 1.78467 0.61863
v 0.89884 1.83384 0.60984
v 0.84597 1.64437 0.61812
v 0.87598 1.73822 0.62785
v 0.87414 1.70651 0.62974
v 0.85324 1.74975 0.73182
v 0.86616 1.81111 0.75296
v 0.81139 1.77812 0.73891
v 0.87598 1.73822 0.62785
v 0.80901 1.70472 0.58136
v 0.83598 1.78467 0.61863
v 0.80954 1.88903 0.74150
v 0.86521 1.88026 0.61234
v 0.81541 1.86526 0.61260
v 0.86521 1.88026 0.61234
v 0.83598 1.78467 0.61863
v 0.81541 1.86526 0.61260
v 0.80954 1.88903 0.74150
v 0.86504 1.90170 0.74236
v 0.86521 1.88026 0.61234
v 0.87377 1.65723 0.68651
v 0.88949 1.68009 0.71182
v 0.85324 1.74975 0.73182
v 0.87377 1.65723 0.68651
v 0.84155 1.63916 0.69050
v 0.73852 1.48454 0.62560
v 0.83598 1.78467 0.61863
v 0.80649 1.80197 0.65360
v 0.81541 1.86526 0.61260
v 0.80954 1.88903 0.74150
v 0.81139 1.77812 0.73891
v 0.86616 1.81111 0.75296
v 0.84155 1.63916 0.69050
v 0.77322 1.70032 0.73510
v 0.80357 1.65885 0.73619
v 0.83598 1.78467 0.61863
v 0.80901 1.70472 0.58136
v 0.80649 1.80197 0.65360
v 0.80954 1.88903 0.74150
v 0.86616 1.81111 0.75296
v 0.86504 1.90170 0.74236
v 0.85324 1.74975 0.73182
v 0.77567 1.70122 0.70812
v 0.87377 1.65723 0.68651
v 0.81541 1.86526 0.61260
v 0.80649 1.80197 0.65360
v 0.81139 1.77812 0.73891
v 0.81139 1.77812 0.73891
v 0.80954 1.88903 0.74150
v 0.81541 1.86526 0.61260
v 0.84155 1.63916 0.69050
v 0.87377 1.65723 0.68651
v 0.77567 1.70122 0.70812
v 0.77322 1.70032 0.73510
v 0.84155 1.63916 0.69050
v 0.77567 1.70122 0.70812
v 0.85324 1.74975 0.73182
v 0.81139 1.77812 0.73891
v 0.78771 1.78474 0.71771
v 0.78771 1.78474 0.71771
v 0.81139 1.77812 0.73891
v 0.80649 1.80197 0.65360
v 0.77567 1.70122 0.70812
v 0.85324 1.74975 0.73182
v 0.78771 1.78474 0.71771
v 0.80649 1.80197 0.65360
v 0.80901 1.70472 0.58136
v 0.74837 1.71765 0.61274
v 0.69378 1.49634 0.46900
v 0.80901 1.70472 0.58136
v 0.87598 1.73822 0.62785
v 0.87598 1.73822 0.62785
v 0.84597 1.64437 0.61812
v 0.72774 1.43336 0.48768
v 0.87306 1.65659 0.63922
v 0.72774 1.43336 0.48768
v 0.84597 1.64437 0.61812
v 0.78771 1.78474 0.71771
v 0.80649 1.80197 0.65360
v 0.74837 1.71765 0.61274
v 0.84155 1.63916 0.69050
v 0.57246 1.25720 0.67103
v 0.73852 1.48454 0.62560
v 0.74837 1.71765 0.61274
v 0.77567 1.70122 0.70812
v 0.78771 1.78474 0.71771
v 0.87306 1.65659 0.63922
v 0.87377 1.65723 0.68651
v 0.72348 1.36836 0.58869
v 0.74837 1.71765 0.61274
v 0.75619 1.69542 0.66047
v 0.77567 1.70122 0.70812
v 0.72348 1.36836 0.58869
v 0.87377 1.65723 0.68651
v 0.73852 1.48454 0.62560
v 0.75619 1.69542 0.66047
v 0.77322 1.70032 0.73510
v 0.77567 1.70122 0.70812
v 0.75619 1.69542 0.66047
v 0.74837 1.71765 0.61274
v 0.73920 1.70749 0.64970
v 0.63353 1.50414 0.49263
v 0.74837 1.71765 0.61274
v 0.80901 1.70472 0.58136
v 0.72348 1.36836 0.58869
v 0.72774 1.43336 0.48768
v 0.87306 1.65659 0.63922
v 0.84155 1.63916 0.69050
v 0.80357 1.65885 0.73619
v 0.57246 1.25720 0.67103
v 0.87598 1.73822 0.62785
v 0.72774 1.43336 0.48768
v 0.69378 1.49634 0.46900
v 0.72348 1.36836 0.58869
v 0.71407 1.35326 0.43088
v 0.72774 1.43336 0.48768
v 0.75619 1.69542 0.66047
v 0.73920 1.70749 0.64970
v 0.64109 1.50224 0.58476
v 0.80357 1.65885 0.73619
v 0.77322 1.70032 0.73510
v 0.63966 1.50794 0.72709
v 0.64109 1.50224 0.58476
v 0.77322 1.70032 0.73510
v 0.75619 1.69542 0.66047
v 0.74837 1.71765 0.61274
v 0.63353 1.50414 0.49263
v 0.73920 1.70749 0.64970
v 0.64109 1.50224 0.58476
v 0.63966 1.50794 0.72709
v 0.77322 1.70032 0.73510
v 0.63353 1.50414 0.49263
v 0.64109 1.50224 0.58476
v 0.73920 1.70749 0.64970
v 0.80357 1.65885 0.73619
v 0.63966 1.50794 0.72709
v 0.53863 1.30964 0.71894
v 0.72348 1.36836 0.58869
v 0.73852 1.48454 0.62560
v 0.60107 1.36457 0.58285
v 0.63966 1.50794 0.72709
v 0.64109 1.50224 0.58476
v 0.60994 1.49326 0.70784
v 0.63966 1.50794 0.72709
v 0.60994 1.49326 0.70784
v 0.50889 1.35626 0.71263
v 0.64109 1.50224 0.58476
v 0.46079 1.50156 0.64834
v 0.60994 1.49326 0.70784
v 0.65101 1.45601 0.61034
v 0.69378 1.49634 0.46900
v 0.80901 1.70472 0.58136
v 0.63353 1.50414 0.49263
v 0.64109 1.50224 0.58476
v 0.46079 1.50156 0.64834
v 0.60994 1.49326 0.70784
v 0.50889 1.35626 0.71263
v 0.63966 1.50794 0.72709
v 0.53863 1.30964 0.71894
v 0.80357 1.65885 0.73619
v 0.57246 1.25720 0.67103
v 0.73852 1.48454 0.62560
v 0.60107 1.36457 0.58285
v 0.72348 1.36836 0.58869
v 0.71407 1.35326 0.43088
v 0.72774 1.43336 0.48768
vt 0.53082 0.76892
vt 0.50445 0.76222
vt 0.53239 0.76504
vt 0.53238 0.76511
vt 0.50446 0.76212
vt 0.51911 0.76173
vt 0.29768 0.77786
vt 0.27051 0.77783
vt 0.29764 0.77600
vt 0.53237 0.76515
vt 0.51911 0.76173
vt 0.53186 0.76071
vt 0.88116 0.46435
vt 0.88230 0.44348
vt 0.88633 0.44444
vt 0.82088 0.98375
vt 0.81680 0.98521
vt 0.82012 0.98221
vt 0.27051 0.77789
vt 0.28425 0.77419
vt 0.29763 0.77578
vt 0.77272 0.76979
vt 0.75186 0.77098
vt 0.77149 0.76299
vt 0.71540 0.92664
vt 0.73005 0.92694
vt 0.71585 0.93088
vt 0.88634 0.44444
vt 0.88684 0.46464
vt 0.88116 0.46435
vt 0.88647 0.44437
vt 0.89078 0.44392
vt 0.89183 0.46517
vt 0.71585 0.93088
vt 0.73005 0.92694
vt 0.73012 0.92882
vt 0.27001 0.77098
vt 0.28424 0.77418
vt 0.27051 0.77788
vt 0.93983 0.01570
vt 0.93876 0.01240
vt 0.95316 0.01367
vt 0.89182 0.46511
vt 0.88698 0.46464
vt 0.88648 0.44444
vt 0.62349 0.00675
vt 0.62319 0.00251
vt 0.62949 0.00636
vt 0.62927 0.00220
vt 0.62949 0.00636
vt 0.62319 0.00250
vt 0.04102 0.35116
vt 0.03526 0.33807
vt 0.03951 0.33791
vt 0.53054 0.46346
vt 0.52629 0.45991
vt 0.54726 0.46094
vt 0.49552 0.17209
vt 0.48270 0.16917
vt 0.48127 0.16442
vt 0.50595 0.17332
vt 0.48111 0.16437
vt 0.48068 0.16061
vt 0.48127 0.16442
vt 0.48271 0.16918
vt 0.47426 0.16471
vt 0.45894 0.01354
vt 0.46306 0.01542
vt 0.45891 0.01570
vt 0.49552 0.17209
vt 0.48111 0.16437
vt 0.50595 0.17332
vt 0.62414 0.93326
vt 0.63868 0.93254
vt 0.62486 0.93661
vt 0.48267 0.16914
vt 0.49552 0.17209
vt 0.49463 0.17637
vt 0.03526 0.33807
vt 0.04100 0.35117
vt 0.03548 0.35084
vt 0.87353 0.01325
vt 0.87296 0.00680
vt 0.87505 0.00731
vt 0.63869 0.93257
vt 0.63801 0.93889
vt 0.62486 0.93660
vt 0.74550 0.76551
vt 0.75186 0.77097
vt 0.74700 0.77120
vt 0.99146 0.31778
vt 0.98585 0.31072
vt 0.99146 0.31177
vt 0.53054 0.46347
vt 0.51277 0.45947
vt 0.52625 0.45994
vt 0.52913 0.18004
vt 0.49552 0.17209
vt 0.50725 0.17225
vt 0.53253 0.18164
vt 0.56339 0.19484
vt 0.49552 0.17209
vt 0.99048 0.73326
vt 0.99475 0.73260
vt 0.99480 0.73831
vt 0.99146 0.31778
vt 0.98419 0.31801
vt 0.98585 0.31072
vt 0.00542 0.31651
vt 0.00104 0.30974
vt 0.00542 0.30997
vt 0.56339 0.19484
vt 0.53695 0.19042
vt 0.49552 0.17209
vt 0.00542 0.31651
vt 0.00085 0.31630
vt 0.00104 0.30974
vt 0.53054 0.46348
vt 0.52363 0.46338
vt 0.51276 0.45946
vt 0.49552 0.17209
vt 0.52202 0.18543
vt 0.49460 0.17647
vt 0.74534 0.76162
vt 0.75180 0.77101
vt 0.74553 0.76549
vt 0.53582 0.46860
vt 0.54762 0.46248
vt 0.54721 0.46801
vt 0.20704 0.00729
vt 0.20047 0.00623
vt 0.20765 0.00514
vt 0.35671 0.01115
vt 0.36280 0.01115
vt 0.35544 0.01375
vt 0.53695 0.19042
vt 0.52177 0.18542
vt 0.49552 0.17209
vt 0.53582 0.46860
vt 0.54723 0.46090
vt 0.54766 0.46256
vt 0.37956 0.05996
vt 0.36690 0.05781
vt 0.37985 0.05512
vt 0.99047 0.73327
vt 0.99480 0.73831
vt 0.99149 0.73899
vt 0.36235 0.01349
vt 0.35543 0.01373
vt 0.36280 0.01115
vt 0.99698 0.23933
vt 0.99222 0.23467
vt 0.99686 0.23404
vt 0.91005 0.02257
vt 0.92114 0.02558
vt 0.91474 0.02721
vt 0.52960 0.46993
vt 0.53065 0.46441
vt 0.53582 0.46860
vt 0.54715 0.46082
vt 0.53582 0.46860
vt 0.53065 0.46441
vt 0.46277 0.00816
vt 0.46306 0.01542
vt 0.45894 0.01354
vt 0.98839 0.60490
vt 0.99195 0.59936
vt 0.99115 0.60404
vt 0.45933 0.00817
vt 0.46277 0.00816
vt 0.45894 0.01354
vt 0.98400 0.67937
vt 0.98457 0.68589
vt 0.97876 0.67862
vt 0.50262 0.45931
vt 0.51277 0.45946
vt 0.50394 0.46355
vt 0.45748 0.00769
vt 0.45407 0.01514
vt 0.45428 0.00938
vt 0.99322 0.33448
vt 0.99757 0.32919
vt 0.99561 0.33486
vt 0.28570 0.73001
vt 0.28510 0.73634
vt 0.27437 0.72864
vt 0.91005 0.02257
vt 0.91474 0.02721
vt 0.90813 0.02673
vt 0.75186 0.77098
vt 0.74534 0.76162
vt 0.77149 0.76299
vt 0.99816 0.55580
vt 1.00000 0.56311
vt 0.99778 0.56117
vt 0.45035 0.99269
vt 0.45255 0.99538
vt 0.45046 0.99845
vt 0.99258 0.23951
vt 0.99221 0.23467
vt 0.99698 0.23933
vt 0.45748 0.00769
vt 0.45751 0.01517
vt 0.45406 0.01513
vt 0.99195 0.59936
vt 0.98838 0.60489
vt 0.98762 0.59930
vt 0.97774 0.16402
vt 0.98012 0.16126
vt 0.98156 0.16449
vt 0.98806 0.77193
vt 0.99244 0.77213
vt 0.99283 0.77433
vt 0.97876 0.67862
vt 0.98457 0.68589
vt 0.97815 0.68768
vt 0.25893 0.73646
vt 0.27437 0.72864
vt 0.28511 0.73634
vt 0.13869 0.00158
vt 0.14418 0.00321
vt 0.13981 0.00809
vt 0.51049 0.46395
vt 0.50394 0.46355
vt 0.51278 0.45948
vt 0.13988 0.00814
vt 0.14414 0.00318
vt 0.14398 0.00790
vt 0.25893 0.73646
vt 0.26806 0.72958
vt 0.27437 0.72864
vt 0.93289 0.95503
vt 0.93855 0.96028
vt 0.92821 0.96061
vt 0.99593 0.43962
vt 0.99583 0.43590
vt 0.99935 0.43832
vt 0.26806 0.72958
vt 0.25893 0.73646
vt 0.26060 0.72886
vt 0.98723 0.16884
vt 0.99199 0.16312
vt 0.99239 0.16975
vt 0.99199 0.16312
vt 0.98723 0.16884
vt 0.98725 0.16275
vt 0.51064 0.46797
vt 0.51049 0.46395
vt 0.51718 0.46439
vt 0.98821 0.59800
vt 0.99195 0.59936
vt 0.98761 0.59927
vt 0.98779 0.77859
vt 0.98806 0.77193
vt 0.99283 0.77433
vt 0.46863 0.99046
vt 0.46863 0.99692
vt 0.46576 0.99016
vt 0.99322 0.33448
vt 0.99307 0.32923
vt 0.99754 0.32916
vt 0.96877 0.12858
vt 0.97642 0.12241
vt 0.97801 0.12858
vt 0.38713 0.05507
vt 0.40177 0.05321
vt 0.39769 0.06088
vt 0.56339 0.19484
vt 0.60210 0.15865
vt 0.55465 0.21457
vt 0.26059 0.72886
vt 0.25893 0.73646
vt 0.25842 0.73157
vt 0.53695 0.19042
vt 0.56771 0.20461
vt 0.56217 0.20506
vt 0.98466 0.47470
vt 0.98524 0.47595
vt 0.97774 0.47576
vt 0.46863 0.99692
vt 0.46594 0.99672
vt 0.46576 0.99016
vt 0.87283 0.97998
vt 0.87244 0.97559
vt 0.88190 0.98035
vt 0.88191 0.98033
vt 0.87244 0.97559
vt 0.88152 0.97535
vt 0.56771 0.20461
vt 0.53695 0.19042
vt 0.56339 0.19484
vt 0.49282 0.96938
vt 0.49609 0.97213
vt 0.49258 0.97862
vt 0.99277 0.77904
vt 0.98779 0.77859
vt 0.99283 0.77433
vt 0.98526 0.89654
vt 0.98974 0.90325
vt 0.98681 0.90357
vt 0.98541 0.89647
vt 0.98983 0.89726
vt 0.98974 0.90325
vt 0.51719 0.46441
vt 0.51731 0.46854
vt 0.51064 0.46797
vt 0.49609 0.97213
vt 0.49654 0.97939
vt 0.49258 0.97862
vt 0.25842 0.73157
vt 0.25599 0.72716
vt 0.26053 0.72884
vt 0.56339 0.19484
vt 0.57478 0.21465
vt 0.56771 0.20461
vt 0.98188 0.16940
vt 0.98156 0.16449
vt 0.98640 0.16929
vt 0.99111 0.55730
vt 0.98715 0.55764
vt 0.99198 0.55071
vt 0.38864 0.05954
vt 0.38713 0.05507
vt 0.39769 0.06088
vt 0.00193 0.25463
vt 0.00795 0.25979
vt 0.00150 0.25952
vt 0.98156 0.16449
vt 0.98012 0.16126
vt 0.98640 0.16929
vt 0.98759 0.55069
vt 0.99198 0.55071
vt 0.98715 0.55764
vt 0.99254 0.87706
vt 0.98675 0.87445
vt 0.99165 0.87432
vt 0.99254 0.87706
vt 0.98851 0.87713
vt 0.98675 0.87445
vt 0.98810 0.39732
vt 0.98292 0.39342
vt 0.98878 0.39326
vt 0.48557 0.46437
vt 0.47472 0.46166
vt 0.50254 0.45935
vt 0.48557 0.46437
vt 0.50253 0.45933
vt 0.50394 0.46355
vt 0.99734 0.01004
vt 0.99734 0.01581
vt 0.99570 0.01580
vt 0.00195 0.88322
vt 0.00732 0.88288
vt 0.00680 0.88656
vt 0.51670 0.00255
vt 0.51362 0.00456
vt 0.51514 0.00204
vt 0.51362 0.00456
vt 0.51670 0.00255
vt 0.51534 0.00740
vt 0.32751 0.63753
vt 0.33459 0.63196
vt 0.33725 0.63624
vt 0.32751 0.63753
vt 0.32782 0.63255
vt 0.33459 0.63196
vt 0.56339 0.19484
vt 0.57922 0.21097
vt 0.57478 0.21465
vt 0.32824 0.62974
vt 0.33459 0.63195
vt 0.32782 0.63255
vt 0.37956 0.05996
vt 0.38863 0.05954
vt 0.38573 0.06530
vt 0.98012 0.16126
vt 0.98649 0.16137
vt 0.98640 0.16929
vt 0.96877 0.12858
vt 0.96732 0.12291
vt 0.97642 0.12241
vt 0.00193 0.25463
vt 0.00943 0.25462
vt 0.00795 0.25979
vt 0.37956 0.05996
vt 0.38573 0.06530
vt 0.37364 0.06573
vt 0.98720 0.87966
vt 0.98559 0.87886
vt 0.98851 0.87713
vt 0.00195 0.88322
vt 0.00680 0.88656
vt 0.00117 0.88580
vt 0.98474 0.38826
vt 0.99203 0.39011
vt 0.98496 0.39156
vt 0.58330 0.22646
vt 0.57478 0.21465
vt 0.57915 0.21096
vt 0.37360 0.06570
vt 0.36691 0.05780
vt 0.37956 0.05996
vt 0.47471 0.46166
vt 0.48557 0.46437
vt 0.47946 0.46450
vt 0.32751 0.63753
vt 0.32824 0.64128
vt 0.31617 0.64147
vt 0.98292 0.39342
vt 0.98670 0.40097
vt 0.98221 0.40088
vt 0.01017 0.33707
vt 0.00638 0.34479
vt 0.00584 0.33707
vt 0.32751 0.63753
vt 0.31617 0.64147
vt 0.32782 0.63255
vt 0.98292 0.39342
vt 0.98809 0.39732
vt 0.98670 0.40097
vt 0.98675 0.87445
vt 0.98851 0.87713
vt 0.98559 0.87886
vt 0.32782 0.63255
vt 0.31617 0.64147
vt 0.32013 0.63224
vt 0.01888 0.99537
vt 0.01867 0.99778
vt 0.01278 0.99527
vt 0.01243 0.99759
vt 0.01278 0.99527
vt 0.01867 0.99778
vt 0.22568 0.00906
vt 0.22603 0.01082
vt 0.21837 0.00990
vt 0.40925 0.05374
vt 0.42274 0.05638
vt 0.40748 0.06065
vt 0.31993 0.63067
vt 0.32032 0.63232
vt 0.31617 0.64147
vt 0.26365 0.01417
vt 0.26365 0.00961
vt 0.27114 0.01474
vt 0.40748 0.06065
vt 0.40175 0.05322
vt 0.40925 0.05374
vt 0.98811 0.80519
vt 0.98791 0.80438
vt 0.98806 0.79745
vt 0.00732 0.88288
vt 0.00796 0.88785
vt 0.00680 0.88656
vt 0.00339 0.80934
vt 0.00196 0.81310
vt 0.00123 0.81040
vt 0.88250 0.96979
vt 0.87242 0.97455
vt 0.87268 0.97006
vt 0.58513 0.24378
vt 0.57309 0.22281
vt 0.57478 0.21465
vt 0.00638 0.34481
vt 0.01022 0.33710
vt 0.01029 0.34536
vt 0.26365 0.00961
vt 0.27095 0.00980
vt 0.27114 0.01474
vt 0.50394 0.46355
vt 0.48629 0.47075
vt 0.48557 0.46437
vt 0.47888 0.46651
vt 0.47469 0.46169
vt 0.47946 0.46450
vt 0.88174 0.97425
vt 0.87244 0.97456
vt 0.88251 0.96980
vt 0.97470 0.32898
vt 0.97472 0.31987
vt 0.98262 0.32893
vt 0.98903 0.38708
vt 0.98462 0.38662
vt 0.98556 0.38161
vt 0.50394 0.46355
vt 0.50249 0.46905
vt 0.49038 0.47017
vt 0.50394 0.46355
vt 0.49038 0.47017
vt 0.48629 0.47076
vt 0.58521 0.24863
vt 0.57478 0.21465
vt 0.58422 0.22687
vt 0.31993 0.63067
vt 0.31617 0.64147
vt 0.30777 0.63088
vt 0.99414 0.88253
vt 0.99454 0.88022
vt 0.99616 0.88306
vt 0.38864 0.05954
vt 0.39760 0.06461
vt 0.38573 0.06530
vt 0.99058 0.86518
vt 0.99093 0.85894
vt 0.99373 0.85894
vt 0.47471 0.46168
vt 0.47882 0.46655
vt 0.47588 0.46660
vt 0.98222 0.31963
vt 0.98261 0.32894
vt 0.97472 0.31987
vt 0.98903 0.38708
vt 0.98558 0.38160
vt 0.98874 0.38181
vt 0.38864 0.05954
vt 0.39769 0.06088
vt 0.39761 0.06460
vt 0.00196 0.81310
vt 0.00339 0.80934
vt 0.00709 0.81460
vt 0.63012 0.95719
vt 0.62645 0.95665
vt 0.62798 0.95298
vt 0.99058 0.86518
vt 0.99373 0.85894
vt 0.99496 0.86460
vt 0.02028 0.44711
vt 0.01054 0.44363
vt 0.02028 0.44256
vt 0.01054 0.44363
vt 0.02028 0.44711
vt 0.01091 0.44759
vt 0.30429 0.64190
vt 0.30777 0.63088
vt 0.31617 0.64147
vt 0.40176 0.05321
vt 0.40748 0.06065
vt 0.39769 0.06088
vt 0.30363 0.63089
vt 0.30777 0.63088
vt 0.30508 0.63836
vt 0.30777 0.63088
vt 0.30432 0.64190
vt 0.30508 0.63836
vt 0.98921 0.53397
vt 0.99451 0.53342
vt 0.99027 0.53973
vt 0.99614 0.88308
vt 0.99454 0.88022
vt 0.99927 0.88169
vt 0.98558 0.38159
vt 0.98695 0.37991
vt 0.98874 0.38181
vt 0.40748 0.06065
vt 0.42274 0.05638
vt 0.40914 0.06538
vt 0.43304 0.99387
vt 0.42757 0.98670
vt 0.43283 0.98712
vt 0.99891 0.88104
vt 0.99927 0.88169
vt 0.99454 0.88022
vt 0.58764 0.24908
vt 0.58504 0.24758
vt 0.58444 0.22821
vt 0.30069 0.63823
vt 0.30363 0.63089
vt 0.30508 0.63836
vt 0.62798 0.95298
vt 0.63108 0.95403
vt 0.63013 0.95718
vt 0.98996 0.75593
vt 0.99203 0.75256
vt 0.99574 0.75568
vt 0.99633 0.26848
vt 0.99935 0.26613
vt 0.99926 0.26827
vt 0.99635 0.26852
vt 0.99613 0.26510
vt 0.99935 0.26613
vt 0.02969 0.00092
vt 0.02943 0.00421
vt 0.02851 0.00000
vt 0.42833 0.99495
vt 0.42755 0.98672
vt 0.43305 0.99388
vt 0.99027 0.53973
vt 0.99454 0.53343
vt 0.99608 0.53880
vt 0.30068 0.63822
vt 0.29821 0.63241
vt 0.30363 0.63089
vt 0.59884 0.98864
vt 0.60088 0.99509
vt 0.59842 0.99599
vt 0.49149 0.00832
vt 0.48972 0.00956
vt 0.49084 0.00335
vt 1.00000 0.42661
vt 0.99437 0.42536
vt 0.99773 0.42315
vt 0.32977 0.75645
vt 0.33005 0.76079
vt 0.32909 0.75685
vt 0.47059 0.96083
vt 0.47535 0.95631
vt 0.47561 0.96085
vt 0.99828 0.76372
vt 0.99465 0.76322
vt 0.99840 0.76163
vt 0.75876 0.01685
vt 0.76630 0.00949
vt 0.76614 0.01620
vt 0.31853 0.74820
vt 0.31896 0.75394
vt 0.30409 0.75209
vt 0.62610 0.95936
vt 0.62643 0.95727
vt 0.63132 0.95773
vt 0.76630 0.00949
vt 0.75876 0.01685
vt 0.75829 0.00969
vt 0.62798 0.95298
vt 0.63846 0.95476
vt 0.63106 0.95406
vt 0.99465 0.76322
vt 0.99607 0.76186
vt 0.99840 0.76163
vt 0.58440 0.22864
vt 0.59926 0.25810
vt 0.58341 0.22731
vt 0.03544 0.02729
vt 0.03496 0.02291
vt 0.04285 0.02426
vt 0.99373 0.42318
vt 0.99773 0.42315
vt 0.99434 0.42534
vt 0.60383 0.27347
vt 0.58346 0.23040
vt 0.59926 0.25810
vt 0.03683 0.13823
vt 0.02691 0.14852
vt 0.02745 0.13790
vt 0.53109 0.97616
vt 0.53329 0.97696
vt 0.53112 0.97966
vt 0.63818 0.99462
vt 0.64309 0.99467
vt 0.63837 0.99987
vt 0.32904 0.75691
vt 0.31890 0.75390
vt 0.32614 0.75519
vt 0.32903 0.75687
vt 0.33005 0.76079
vt 0.32168 0.76085
vt 0.62825 0.95977
vt 0.62609 0.95934
vt 0.63132 0.95773
vt 0.58360 0.22964
vt 0.60090 0.27385
vt 0.58764 0.24908
vt 0.31892 0.75386
vt 0.32906 0.75686
vt 0.31631 0.75686
vt 0.03544 0.02729
vt 0.04286 0.02426
vt 0.04047 0.02749
vt 0.31896 0.75389
vt 0.31631 0.75686
vt 0.30409 0.75209
vt 0.60090 0.27385
vt 0.58335 0.23047
vt 0.60379 0.27342
vt 0.42323 0.05842
vt 0.42662 0.05869
vt 0.42780 0.06155
vt 0.52068 0.94681
vt 0.50765 0.94681
vt 0.50775 0.94484
vt 0.53329 0.97696
vt 0.53297 0.98507
vt 0.53114 0.97968
vt 0.32168 0.76085
vt 0.31631 0.75686
vt 0.32903 0.75682
vt 0.64309 0.99467
vt 0.64340 0.99966
vt 0.63837 0.99987
vt 0.52814 0.94486
vt 0.52320 0.94529
vt 0.51510 0.94490
vt 0.01316 0.43790
vt 0.01338 0.44232
vt 0.00501 0.44232
vt 0.47535 0.95631
vt 0.47061 0.96085
vt 0.46567 0.96341
vt 0.01316 0.43790
vt 0.00501 0.44232
vt 0.00508 0.43832
vt 0.46933 0.96370
vt 0.46565 0.96338
vt 0.47060 0.96083
vt 0.63132 0.95773
vt 0.63165 0.96818
vt 0.62825 0.95977
vt 0.63165 0.96818
vt 0.62880 0.96784
vt 0.62825 0.95977
vt 0.42274 0.05638
vt 0.42323 0.05842
vt 0.40915 0.06538
vt 0.86670 0.07897
vt 0.86594 0.07594
vt 0.86978 0.07865
vt 0.53297 0.98507
vt 0.53137 0.98432
vt 0.53114 0.97968
vt 0.86589 0.07600
vt 0.87049 0.07688
vt 0.86978 0.07865
vt 0.98963 0.48243
vt 0.98633 0.48558
vt 0.98549 0.48248
vt 0.02691 0.14852
vt 0.03683 0.13823
vt 0.03870 0.14905
vt 0.53164 0.99980
vt 0.53461 0.99537
vt 0.53451 0.99980
vt 0.30404 0.75844
vt 0.30409 0.75209
vt 0.31631 0.75686
vt 0.00157 0.24979
vt 0.00299 0.24819
vt 0.00502 0.24909
vt 0.06412 0.59177
vt 0.05401 0.60331
vt 0.05384 0.59186
vt 0.42780 0.06155
vt 0.40915 0.06538
vt 0.42323 0.05842
vt 0.53164 0.99980
vt 0.53150 0.99474
vt 0.53461 0.99537
vt 0.06042 0.58297
vt 0.06050 0.57434
vt 0.06566 0.58294
vt 0.53855 0.99621
vt 0.53859 0.99990
vt 0.53565 0.99557
vt 0.31631 0.75686
vt 0.32168 0.76085
vt 0.31236 0.76053
vt 0.53859 0.99990
vt 0.53551 0.99952
vt 0.53547 0.99570
vt 0.57750 0.00463
vt 0.57559 0.00473
vt 0.57689 0.00080
vt 0.05493 0.31066
vt 0.06328 0.29964
vt 0.06497 0.31097
vt 0.01411 0.08713
vt 0.01698 0.08848
vt 0.01412 0.09634
vt 0.06049 0.57435
vt 0.06688 0.57256
vt 0.06566 0.58294
vt 0.31631 0.75686
vt 0.31236 0.76053
vt 0.30421 0.75946
vt 0.04284 0.02425
vt 0.04159 0.03605
vt 0.04047 0.02749
vt 0.87049 0.07688
vt 0.86591 0.07591
vt 0.87818 0.07759
vt 0.42780 0.06155
vt 0.42909 0.06202
vt 0.42897 0.06766
vt 0.96136 0.73793
vt 0.96126 0.72613
vt 0.96854 0.73778
vt 0.46438 0.95578
vt 0.47535 0.95631
vt 0.46565 0.96338
vt 0.97959 0.09327
vt 0.97820 0.08417
vt 0.98601 0.08417
vt 0.06087 0.57128
vt 0.06688 0.57256
vt 0.06046 0.57425
vt 0.98286 0.10838
vt 0.98277 0.10060
vt 0.98431 0.10495
vt 0.99176 0.92178
vt 0.98612 0.92026
vt 0.99251 0.92017
vt 0.02225 0.37901
vt 0.01135 0.37966
vt 0.01254 0.37390
vt 0.00991 0.00565
vt 0.00812 0.00773
vt 0.00418 0.00685
vt 0.01698 0.08848
vt 0.01720 0.09726
vt 0.01412 0.09634
vt 0.42780 0.06155
vt 0.42897 0.06766
vt 0.40914 0.06538
vt 0.07192 0.57212
vt 0.06688 0.57256
vt 0.06087 0.57128
vt 0.48023 0.99979
vt 0.47904 0.99585
vt 0.48155 0.99475
vt 0.10008 0.00913
vt 0.10767 0.00868
vt 0.10571 0.01025
vt 0.01706 0.37345
vt 0.02225 0.37901
vt 0.01254 0.37390
vt 0.12413 0.02184
vt 0.12325 0.02965
vt 0.12129 0.02693
vt 0.98601 0.08417
vt 0.98510 0.08989
vt 0.97959 0.09327
vt 0.86591 0.07591
vt 0.88579 0.07463
vt 0.87818 0.07759
vt 0.05657 0.30775
vt 0.06328 0.29964
vt 0.05495 0.31067
vt 0.98548 0.48249
vt 0.98633 0.48558
vt 0.98211 0.48105
vt 0.06412 0.59161
vt 0.05384 0.59186
vt 0.05456 0.58586
vt 0.96854 0.73778
vt 0.96126 0.72613
vt 0.96874 0.72607
vt 0.00455 0.50694
vt 0.00515 0.49930
vt 0.00838 0.49902
vt 0.31236 0.76053
vt 0.30730 0.76079
vt 0.30422 0.75942
vt 0.01706 0.37345
vt 0.01254 0.37390
vt 0.01230 0.37111
vt 0.06393 0.59144
vt 0.06842 0.58506
vt 0.06794 0.59210
vt 0.06236 0.99543
vt 0.05491 0.99225
vt 0.06338 0.99174
vt 0.65690 0.56156
vt 0.65600 0.56001
vt 0.65428 0.56365
vt 0.81961 0.94459
vt 0.81698 0.95553
vt 0.81632 0.94378
vt 0.26651 0.99316
vt 0.26789 0.99739
vt 0.26609 0.99683
vt 0.07192 0.57212
vt 0.06087 0.57128
vt 0.07202 0.56333
vt 0.05456 0.58586
vt 0.06842 0.58506
vt 0.06412 0.59161
vt 0.81698 0.95553
vt 0.81961 0.94459
vt 0.82019 0.95552
vt 0.99744 0.20780
vt 0.99428 0.20795
vt 0.99447 0.20289
vt 0.07202 0.56333
vt 0.06087 0.57128
vt 0.06025 0.56316
vt 0.00838 0.49902
vt 0.00851 0.50708
vt 0.00455 0.50694
vt 0.94502 0.47203
vt 0.93837 0.46966
vt 0.94798 0.46941
vt 0.88585 0.07463
vt 0.88607 0.07828
vt 0.87816 0.07767
vt 0.98418 0.10491
vt 0.98735 0.10507
vt 0.98287 0.10838
vt 0.66045 0.55754
vt 0.66378 0.55944
vt 0.65678 0.56143
vt 0.98752 0.10700
vt 0.98287 0.10838
vt 0.98737 0.10510
vt 0.65600 0.56001
vt 0.65690 0.56156
vt 0.65428 0.56365
vt 0.21158 0.89536
vt 0.20598 0.89832
vt 0.20533 0.88982
vt 0.99671 0.80047
vt 0.99611 0.79706
vt 0.99941 0.79748
vt 0.06328 0.29964
vt 0.05501 0.30141
vt 0.06221 0.29369
vt 0.20593 0.89827
vt 0.21149 0.89529
vt 0.21011 0.89914
vt 0.20755 0.90514
vt 0.20593 0.89836
vt 0.21011 0.89914
vt 0.05656 0.30775
vt 0.05501 0.30141
vt 0.06328 0.29964
vt 0.66373 0.55953
vt 0.65419 0.56355
vt 0.65681 0.56146
vt 0.95448 0.46766
vt 0.94795 0.46945
vt 0.95123 0.46345
vt 0.86094 0.46015
vt 0.85817 0.46902
vt 0.85441 0.46006
vt 0.96115 0.68860
vt 0.94735 0.69408
vt 0.94732 0.68860
vt 0.06221 0.29369
vt 0.05501 0.30141
vt 0.05680 0.29280
vt 0.96115 0.68860
vt 0.96122 0.69460
vt 0.94735 0.69408
vt 0.00461 0.00586
vt 0.00690 0.00908
vt 0.00337 0.01685
vt 0.98949 0.09224
vt 0.98647 0.09460
vt 0.96577 0.09529
vt 0.05277 0.72786
vt 0.05042 0.73241
vt 0.04399 0.72769
vt 0.93949 0.46376
vt 0.95116 0.46340
vt 0.94797 0.46947
vt 0.97619 0.03091
vt 0.97547 0.02019
vt 0.97841 0.02471
vt 0.97445 0.09809
vt 0.97445 0.10781
vt 0.96979 0.09593
vt 0.93949 0.46376
vt 0.94798 0.46944
vt 0.93837 0.46966
vt 0.93882 0.16471
vt 0.94113 0.17440
vt 0.92998 0.17137
vt 0.04399 0.72769
vt 0.05058 0.73214
vt 0.05308 0.74106
vt 0.05306 0.74108
vt 0.04137 0.74127
vt 0.04399 0.72769
vt 0.93144 0.17501
vt 0.92997 0.17138
vt 0.94114 0.17435
vt 0.98532 0.93043
vt 0.99591 0.92935
vt 0.98702 0.93265
vt 0.00751 0.78105
vt 0.00224 0.78199
vt 0.00000 0.78015
vt 0.89846 0.99620
vt 0.89594 0.99849
vt 0.89658 0.98918
vt 0.94112 0.17440
vt 0.93863 0.16479
vt 0.94624 0.16706
vt 0.96969 0.09597
vt 0.97445 0.10781
vt 0.96716 0.10728
vt 0.86466 0.49599
vt 0.85817 0.46902
vt 0.86094 0.46015
vt 0.65418 0.56351
vt 0.66378 0.55944
vt 0.69272 0.56055
vt 0.66056 0.55791
vt 0.69272 0.56054
vt 0.66378 0.55944
vt 0.02208 0.38550
vt 0.02186 0.37841
vt 0.03328 0.37751
vt 0.81520 0.10802
vt 0.81836 0.15719
vt 0.81047 0.12821
vt 0.03324 0.37745
vt 0.03071 0.38766
vt 0.02208 0.38550
vt 0.66716 0.75010
vt 0.66552 0.74741
vt 0.68763 0.74211
vt 0.03324 0.37745
vt 0.03348 0.38304
vt 0.03071 0.38766
vt 0.96057 0.03392
vt 0.96188 0.05662
vt 0.95836 0.04181
vt 0.79568 0.77000
vt 0.80315 0.76691
vt 0.80097 0.76867
vt 0.70949 0.96245
vt 0.70537 0.96626
vt 0.70702 0.96245
vt 0.13523 0.62463
vt 0.13564 0.59612
vt 0.14295 0.59605
vt 0.68763 0.74212
vt 0.68767 0.75015
vt 0.66718 0.75012
vt 0.70402 0.56512
vt 0.70453 0.55858
vt 0.75329 0.56580
vt 0.86094 0.46015
vt 0.87227 0.49709
vt 0.86466 0.49599
vt 0.68763 0.74212
vt 0.69424 0.75043
vt 0.68762 0.75015
vt 0.57933 0.73223
vt 0.58178 0.73244
vt 0.57918 0.75723
vt 0.37720 0.77621
vt 0.38259 0.77568
vt 0.37686 0.79970
vt 0.77617 0.75455
vt 0.80314 0.76688
vt 0.79578 0.77006
vt 0.14324 0.27103
vt 0.14342 0.29953
vt 0.13921 0.27055
vt 0.77619 0.75450
vt 0.78897 0.74675
vt 0.80311 0.76696
vt 0.14342 0.29953
vt 0.13477 0.29508
vt 0.13921 0.27055
vt 0.84347 0.23666
vt 0.84790 0.26199
vt 0.84326 0.28724
vt 0.09455 0.31581
vt 0.10547 0.32275
vt 0.08591 0.32537
vt 0.20239 0.12148
vt 0.21532 0.12910
vt 0.20240 0.12552
vt 0.20230 0.12156
vt 0.20244 0.12549
vt 0.19159 0.13978
vt 0.21531 0.12917
vt 0.20002 0.14230
vt 0.20240 0.12552
vt 0.86466 0.49599
vt 0.86466 0.49599
vt 0.86466 0.49599
vt 0.86466 0.49599
vt 0.86466 0.49599
vt 0.86466 0.49599
vt 0.86466 0.49599
vt 0.86466 0.49599
vt 0.86466 0.49599
vt 0.86466 0.49599
vt 0.86466 0.49599
vt 0.86466 0.49599
vt 0.86466 0.49599
vt 0.86466 0.49599
vt 0.86466 0.49599
vt 0.86466 0.49599
vt 0.86466 0.49599
vn 0.6390 0.0646 0.7665
vn 0.5629 -0.8161 -0.1304
vn 0.9933 0.0300 -0.1118
vn 0.9933 0.0300 -0.1118
vn 0.5629 -0.8161 -0.1304
vn 0.4607 -0.1663 -0.8718
vn 0.5629 -0.8161 -0.1304
vn 0.6390 0.0646 0.7665
vn -0.3468 -0.8814 0.3207
vn 0.9933 0.0300 -0.1118
vn 0.4607 -0.1663 -0.8718
vn 0.0899 -0.4345 -0.8962
vn 0.7049 0.1604 0.6909
vn 0.6390 0.0646 0.7665
vn 0.9933 0.0300 -0.1118
vn 0.4848 -0.5505 -0.6797
vn 0.9933 0.0300 -0.1118
vn 0.0899 -0.4345 -0.8962
vn 0.6390 0.0646 0.7665
vn -0.5638 -0.1549 0.8113
vn -0.3468 -0.8814 0.3207
vn 0.6390 0.0646 0.7665
vn 0.7049 0.1604 0.6909
vn -0.6407 -0.1570 0.7516
vn 0.4607 -0.1663 -0.8718
vn 0.5629 -0.8161 -0.1304
vn -0.7885 -0.3478 -0.5072
vn 0.9933 0.0300 -0.1118
vn 0.9777 0.1511 -0.1459
vn 0.7049 0.1604 0.6909
vn 0.9933 0.0300 -0.1118
vn 0.4848 -0.5505 -0.6797
vn 0.6456 -0.0482 -0.7621
vn -0.7885 -0.3478 -0.5072
vn 0.5629 -0.8161 -0.1304
vn -0.3468 -0.8814 0.3207
vn -0.6407 -0.1570 0.7516
vn -0.5638 -0.1549 0.8113
vn 0.6390 0.0646 0.7665
vn -0.5638 -0.1549 0.8113
vn -0.7885 -0.3478 -0.5072
vn -0.3468 -0.8814 0.3207
vn 0.6456 -0.0482 -0.7621
vn 0.9777 0.1511 -0.1459
vn 0.9933 0.0300 -0.1118
vn 0.6695 -0.4531 0.5886
vn 0.9717 -0.1221 0.2023
vn 0.5815 0.5929 0.5571
vn 0.6279 0.4941 -0.6013
vn 0.5815 0.5929 0.5571
vn 0.9717 -0.1221 0.2023
vn -0.7677 -0.3074 -0.5623
vn 0.4607 -0.1663 -0.8718
vn -0.7885 -0.3478 -0.5072
vn -0.0559 -0.3680 -0.9282
vn 0.6456 -0.0482 -0.7621
vn 0.4848 -0.5505 -0.6797
vn 0.9758 0.1450 -0.1637
vn 0.9717 -0.1221 0.2023
vn 0.9777 0.1511 -0.1459
vn 0.5148 -0.0977 -0.8517
vn 0.9777 0.1511 -0.1459
vn 0.6456 -0.0482 -0.7621
vn 0.9777 0.1511 -0.1459
vn 0.9717 -0.1221 0.2023
vn 0.7049 0.1604 0.6909
vn 0.6190 0.7839 0.0486
vn 0.5815 0.5929 0.5571
vn 0.6279 0.4941 -0.6013
vn 0.9758 0.1450 -0.1637
vn 0.9777 0.1511 -0.1459
vn 0.5148 -0.0977 -0.8517
vn -0.5638 -0.1549 0.8113
vn -0.6407 -0.1570 0.7516
vn -0.7885 -0.3478 -0.5072
vn 0.9717 -0.1221 0.2023
vn 0.9758 0.1450 -0.1637
vn 0.6190 0.7839 0.0486
vn 0.4607 -0.1663 -0.8718
vn -0.7677 -0.3074 -0.5623
vn 0.0899 -0.4345 -0.8962
vn 0.9717 -0.1221 0.2023
vn 0.6190 0.7839 0.0486
vn 0.6279 0.4941 -0.6013
vn -0.6407 -0.1570 0.7516
vn -0.7677 -0.3074 -0.5623
vn -0.7885 -0.3478 -0.5072
vn -0.3168 -0.4086 0.8560
vn 0.7049 0.1604 0.6909
vn 0.9717 -0.1221 0.2023
vn 0.5815 0.5929 0.5571
vn -0.4226 -0.7190 0.5517
vn 0.6695 -0.4531 0.5886
vn -0.0559 -0.3680 -0.9282
vn 0.5148 -0.0977 -0.8517
vn 0.6456 -0.0482 -0.7621
vn 0.6388 0.0725 -0.7659
vn 0.9758 0.1450 -0.1637
vn 0.5148 -0.0977 -0.8517
vn 0.6388 0.0725 -0.7659
vn 0.9521 0.2797 -0.1235
vn 0.9758 0.1450 -0.1637
vn 0.9717 -0.1221 0.2023
vn 0.6695 -0.4531 0.5886
vn -0.4226 -0.7190 0.5517
vn 0.5815 0.5929 0.5571
vn -0.6544 0.5392 0.5301
vn -0.4226 -0.7190 0.5517
vn 0.7461 -0.3643 0.5573
vn 0.5966 0.6019 -0.5308
vn 0.5234 0.6381 0.5647
vn 0.9521 0.2797 -0.1235
vn 0.6404 0.7678 0.0193
vn 0.9758 0.1450 -0.1637
vn 0.7461 -0.3643 0.5573
vn 0.9940 -0.0723 -0.0826
vn 0.5966 0.6019 -0.5308
vn -0.0559 -0.3680 -0.9282
vn 0.0190 0.2136 -0.9767
vn 0.5148 -0.0977 -0.8517
vn 0.9758 0.1450 -0.1637
vn 0.9940 -0.0723 -0.0826
vn 0.6190 0.7839 0.0486
vn -0.3554 -0.8409 0.4081
vn 0.7049 0.1604 0.6909
vn -0.3168 -0.4086 0.8560
vn -0.7798 -0.2559 -0.5714
vn 0.0899 -0.4345 -0.8962
vn -0.7677 -0.3074 -0.5623
vn 0.5966 0.6019 -0.5308
vn 0.9940 -0.0723 -0.0826
vn 0.6404 0.7678 0.0193
vn 0.2499 -0.5810 -0.7746
vn 0.3789 0.4806 -0.7909
vn -0.0559 -0.3680 -0.9282
vn 0.6404 0.7678 0.0193
vn 0.9940 -0.0723 -0.0826
vn 0.9758 0.1450 -0.1637
vn -0.7798 -0.2559 -0.5714
vn 0.4848 -0.5505 -0.6797
vn 0.0899 -0.4345 -0.8962
vn -0.1734 -0.2961 0.9393
vn 0.6190 0.7839 0.0486
vn 0.9940 -0.0723 -0.0826
vn 0.9717 -0.1221 0.2023
vn -0.4226 -0.7190 0.5517
vn -0.3168 -0.4086 0.8560
vn 0.0190 0.2136 -0.9767
vn -0.0559 -0.3680 -0.9282
vn 0.3789 0.4806 -0.7909
vn -0.2963 -0.7238 0.6232
vn 0.9940 -0.0723 -0.0826
vn 0.7461 -0.3643 0.5573
vn 0.5148 -0.0977 -0.8517
vn 0.0190 0.2136 -0.9767
vn -0.3349 -0.3336 -0.8812
vn -0.7780 -0.6178 0.1139
vn -0.0559 -0.3680 -0.9282
vn -0.7798 -0.2559 -0.5714
vn 0.4848 -0.5505 -0.6797
vn -0.7798 -0.2559 -0.5714
vn -0.0559 -0.3680 -0.9282
vn -0.6544 0.5392 0.5301
vn 0.5815 0.5929 0.5571
vn 0.6190 0.7839 0.0486
vn -0.0559 -0.3680 -0.9282
vn -0.6322 -0.6360 -0.4425
vn 0.2499 -0.5810 -0.7746
vn -0.6831 0.4974 -0.5348
vn -0.6544 0.5392 0.5301
vn 0.6190 0.7839 0.0486
vn 0.7461 -0.3643 0.5573
vn 0.5234 0.6381 0.5647
vn -0.2963 -0.7238 0.6232
vn 0.6388 0.0725 -0.7659
vn 0.5148 -0.0977 -0.8517
vn 0.1574 0.1309 -0.9788
vn -0.4226 -0.7190 0.5517
vn -0.6831 0.4974 -0.5348
vn -0.3168 -0.4086 0.8560
vn 0.3789 0.4806 -0.7909
vn -0.9854 -0.0092 -0.1699
vn 0.0190 0.2136 -0.9767
vn -0.7677 -0.3074 -0.5623
vn -0.6407 -0.1570 0.7516
vn -0.7798 -0.2559 -0.5714
vn 0.5148 -0.0977 -0.8517
vn -0.3349 -0.3336 -0.8812
vn 0.1179 -0.4730 -0.8732
vn 0.7049 0.1604 0.6909
vn -0.3554 -0.8409 0.4081
vn -0.6407 -0.1570 0.7516
vn 0.6190 0.7839 0.0486
vn 0.5623 0.3937 0.7272
vn -0.6831 0.4974 -0.5348
vn -0.6831 0.4974 -0.5348
vn 0.5623 0.3937 0.7272
vn -0.3168 -0.4086 0.8560
vn -0.1734 -0.2961 0.9393
vn 0.9940 -0.0723 -0.0826
vn -0.2963 -0.7238 0.6232
vn -0.4226 -0.7190 0.5517
vn -0.6544 0.5392 0.5301
vn -0.6831 0.4974 -0.5348
vn -0.6322 -0.6360 -0.4425
vn -0.0559 -0.3680 -0.9282
vn -0.7780 -0.6178 0.1139
vn -0.3168 -0.4086 0.8560
vn 0.5346 -0.4484 0.7164
vn -0.3554 -0.8409 0.4081
vn 0.5234 0.6381 0.5647
vn 0.5966 0.6019 -0.5308
vn 0.6404 0.7678 0.0193
vn -0.2963 -0.7238 0.6232
vn 0.5234 0.6381 0.5647
vn -0.6667 0.4993 0.5534
vn -0.3554 -0.8409 0.4081
vn -0.7798 -0.2559 -0.5714
vn -0.6407 -0.1570 0.7516
vn 0.0190 0.2136 -0.9767
vn -0.9854 -0.0092 -0.1699
vn -0.3349 -0.3336 -0.8812
vn 0.1179 -0.4730 -0.8732
vn 0.1574 0.1309 -0.9788
vn 0.5148 -0.0977 -0.8517
vn -0.3349 -0.3336 -0.8812
vn -0.9854 -0.0092 -0.1699
vn -0.7140 -0.4355 -0.5482
vn -0.3554 -0.8409 0.4081
vn -0.7780 -0.6178 0.1139
vn -0.7798 -0.2559 -0.5714
vn 0.5623 0.3937 0.7272
vn 0.6190 0.7839 0.0486
vn -0.0610 0.6810 0.7298
vn -0.3168 -0.4086 0.8560
vn 0.5623 0.3937 0.7272
vn 0.5346 -0.4484 0.7164
vn -0.7780 -0.6178 0.1139
vn -0.3554 -0.8409 0.4081
vn -0.9854 -0.0092 -0.1699
vn 0.3789 0.4806 -0.7909
vn -0.6322 -0.6360 -0.4425
vn -0.6656 0.4904 -0.5626
vn -0.6322 -0.6360 -0.4425
vn 0.3789 0.4806 -0.7909
vn 0.2499 -0.5810 -0.7746
vn -0.2399 -0.9097 -0.3391
vn 0.1179 -0.4730 -0.8732
vn -0.3349 -0.3336 -0.8812
vn -0.5745 -0.4968 0.6505
vn -0.6322 -0.6360 -0.4425
vn -0.7780 -0.6178 0.1139
vn -0.6667 0.4993 0.5534
vn 0.5234 0.6381 0.5647
vn 0.6404 0.7678 0.0193
vn 0.3972 -0.6288 -0.6684
vn 0.2752 0.4546 -0.8471
vn 0.1179 -0.4730 -0.8732
vn 0.3789 0.4806 -0.7909
vn -0.6656 0.4904 -0.5626
vn -0.9854 -0.0092 -0.1699
vn 0.4741 0.6506 0.5932
vn -0.4867 -0.6195 0.6159
vn 0.5346 -0.4484 0.7164
vn 0.6404 0.7678 0.0193
vn 0.7334 0.2003 0.6496
vn 0.3936 -0.0362 0.9186
vn 0.9521 0.2797 -0.1235
vn 0.6388 0.0725 -0.7659
vn 0.9068 0.0579 -0.4175
vn -0.9854 -0.0092 -0.1699
vn -0.3554 -0.8409 0.4081
vn -0.8374 -0.4966 -0.2286
vn 0.6404 0.7678 0.0193
vn 0.9744 0.2176 -0.0573
vn 0.7334 0.2003 0.6496
vn -0.5745 -0.4968 0.6505
vn -0.7780 -0.6178 0.1139
vn -0.9854 -0.0092 -0.1699
vn 0.2752 0.4546 -0.8471
vn 0.1574 0.1309 -0.9788
vn 0.1179 -0.4730 -0.8732
vn -0.1734 -0.2961 0.9393
vn -0.2963 -0.7238 0.6232
vn -0.2725 0.2642 0.9252
vn -0.2725 0.2642 0.9252
vn -0.2963 -0.7238 0.6232
vn -0.6667 0.4993 0.5534
vn 0.9744 0.2176 -0.0573
vn 0.6404 0.7678 0.0193
vn 0.9521 0.2797 -0.1235
vn 0.5346 -0.4484 0.7164
vn 0.5623 0.3937 0.7272
vn 0.4741 0.6506 0.5932
vn -0.2725 0.2642 0.9252
vn -0.6667 0.4993 0.5534
vn 0.6404 0.7678 0.0193
vn 0.7334 0.2003 0.6496
vn 0.4781 0.6331 -0.6088
vn 0.6215 0.7545 0.2109
vn 0.7334 0.2003 0.6496
vn 0.9744 0.2176 -0.0573
vn 0.4781 0.6331 -0.6088
vn -0.3349 -0.3336 -0.8812
vn -0.7140 -0.4355 -0.5482
vn -0.2399 -0.9097 -0.3391
vn 0.5623 0.3937 0.7272
vn -0.0610 0.6810 0.7298
vn 0.4741 0.6506 0.5932
vn -0.8374 -0.4966 -0.2286
vn -0.7140 -0.4355 -0.5482
vn -0.9854 -0.0092 -0.1699
vn 0.9521 0.2797 -0.1235
vn 0.6605 0.6481 -0.3792
vn 0.9744 0.2176 -0.0573
vn -0.8374 -0.4966 -0.2286
vn -0.3554 -0.8409 0.4081
vn -0.4953 -0.6670 -0.5566
vn -0.6322 -0.6360 -0.4425
vn -0.5745 -0.4968 0.6505
vn -0.6656 0.4904 -0.5626
vn -0.2725 0.2642 0.9252
vn 0.6404 0.7678 0.0193
vn 0.3936 -0.0362 0.9186
vn -0.5466 -0.7105 -0.4431
vn 0.2752 0.4546 -0.8471
vn 0.3972 -0.6288 -0.6684
vn -0.3554 -0.8409 0.4081
vn 0.5346 -0.4484 0.7164
vn -0.4953 -0.6670 -0.5566
vn -0.9854 -0.0092 -0.1699
vn -0.6656 0.4904 -0.5626
vn -0.5745 -0.4968 0.6505
vn 0.1179 -0.4730 -0.8732
vn -0.5466 -0.7105 -0.4431
vn 0.3972 -0.6288 -0.6684
vn 0.1179 -0.4730 -0.8732
vn -0.2399 -0.9097 -0.3391
vn -0.5466 -0.7105 -0.4431
vn -0.0610 0.6810 0.7298
vn -0.6649 0.4904 0.5634
vn 0.4741 0.6506 0.5932
vn 0.2614 -0.3861 -0.8846
vn 0.9068 0.0579 -0.4175
vn 0.6388 0.0725 -0.7659
vn 0.2614 -0.3861 -0.8846
vn 0.6388 0.0725 -0.7659
vn 0.1574 0.1309 -0.9788
vn 0.9744 0.2176 -0.0573
vn 0.6605 0.6481 -0.3792
vn 0.4781 0.6331 -0.6088
vn 0.2752 0.4546 -0.8471
vn -0.6985 0.4576 -0.5502
vn -0.6052 0.6516 -0.4574
vn 0.6605 0.6481 -0.3792
vn 0.6215 0.7545 0.2109
vn 0.4781 0.6331 -0.6088
vn 0.6215 0.7545 0.2109
vn 0.6605 0.6481 -0.3792
vn 0.3975 0.4473 0.8012
vn -0.9627 0.1304 -0.2371
vn -0.7140 -0.4355 -0.5482
vn -0.8374 -0.4966 -0.2286
vn -0.9627 0.1304 -0.2371
vn -0.8323 -0.4858 0.2671
vn -0.7140 -0.4355 -0.5482
vn 0.9521 0.2797 -0.1235
vn 0.9068 0.0579 -0.4175
vn 0.6605 0.6481 -0.3792
vn -0.2399 -0.9097 -0.3391
vn -0.7140 -0.4355 -0.5482
vn -0.8323 -0.4858 0.2671
vn -0.1734 -0.2961 0.9393
vn -0.2725 0.2642 0.9252
vn -0.6707 -0.1148 0.7328
vn 0.5346 -0.4484 0.7164
vn -0.4867 -0.6195 0.6159
vn -0.4953 -0.6670 -0.5566
vn 0.4741 0.6506 0.5932
vn -0.6649 0.4904 0.5634
vn -0.4867 -0.6195 0.6159
vn -0.5466 -0.7105 -0.4431
vn -0.6985 0.4576 -0.5502
vn 0.2752 0.4546 -0.8471
vn -0.1734 -0.2961 0.9393
vn -0.6707 -0.1148 0.7328
vn -0.0610 0.6810 0.7298
vn -0.8323 -0.4858 0.2671
vn -0.5747 -0.5547 0.6016
vn -0.2399 -0.9097 -0.3391
vn 0.2752 0.4546 -0.8471
vn -0.6052 0.6516 -0.4574
vn 0.1574 0.1309 -0.9788
vn 0.3975 0.4473 0.8012
vn 0.7334 0.2003 0.6496
vn 0.6215 0.7545 0.2109
vn 0.8574 0.5119 -0.0523
vn 0.6605 0.6481 -0.3792
vn 0.9068 0.0579 -0.4175
vn -0.0610 0.6810 0.7298
vn 0.6190 0.7839 0.0486
vn -0.1734 -0.2961 0.9393
vn 0.9068 0.0579 -0.4175
vn 0.2614 -0.3861 -0.8846
vn 0.3333 0.3042 -0.8924
vn -0.9627 0.1304 -0.2371
vn -0.0610 0.6810 0.7298
vn -0.6707 -0.1148 0.7328
vn -0.6649 0.4904 0.5634
vn -0.9627 0.1304 -0.2371
vn -0.7212 0.4154 -0.5543
vn 0.6313 -0.3181 -0.7073
vn 0.7165 0.6861 -0.1266
vn 0.9068 0.0579 -0.4175
vn -0.9627 0.1304 -0.2371
vn -0.6707 -0.1148 0.7328
vn -0.8323 -0.4858 0.2671
vn -0.6649 0.4904 0.5634
vn -0.0610 0.6810 0.7298
vn -0.9627 0.1304 -0.2371
vn -0.5466 -0.7105 -0.4431
vn -0.2399 -0.9097 -0.3391
vn -0.5747 -0.5547 0.6016
vn -0.8323 -0.4858 0.2671
vn -0.6707 -0.1148 0.7328
vn -0.9847 0.1740 -0.0037
vn 0.2614 -0.3861 -0.8846
vn 0.6152 -0.5318 -0.5820
vn 0.3333 0.3042 -0.8924
vn 0.3856 0.5615 -0.7321
vn 0.3333 0.3042 -0.8924
vn 0.6152 -0.5318 -0.5820
vn -0.5747 -0.5547 0.6016
vn -0.8323 -0.4858 0.2671
vn -0.9847 0.1740 -0.0037
vn 0.3975 0.4473 0.8012
vn 0.3559 0.7200 0.5958
vn 0.2541 0.4547 0.8536
vn -0.6052 0.6516 -0.4574
vn -0.9847 0.1740 -0.0037
vn -0.6707 -0.1148 0.7328
vn -0.5466 -0.7105 -0.4431
vn -0.5747 -0.5547 0.6016
vn -0.6985 0.4576 -0.5502
vn 0.2541 0.4547 0.8536
vn 0.7334 0.2003 0.6496
vn 0.3975 0.4473 0.8012
vn 0.7165 0.6861 -0.1266
vn 0.8574 0.5119 -0.0523
vn 0.9068 0.0579 -0.4175
vn -0.6985 0.4576 -0.5502
vn -0.9847 0.1740 -0.0037
vn -0.6052 0.6516 -0.4574
vn 0.2614 -0.3861 -0.8846
vn -0.2071 -0.7526 -0.6251
vn 0.6152 -0.5318 -0.5820
vn -0.8374 -0.4966 -0.2286
vn -0.7212 0.4154 -0.5543
vn -0.9627 0.1304 -0.2371
vn 0.3559 0.7200 0.5958
vn 0.3975 0.4473 0.8012
vn 0.6605 0.6481 -0.3792
vn 0.7165 0.6861 -0.1266
vn 0.6313 -0.3181 -0.7073
vn -0.0218 0.7428 -0.6692
vn -0.5747 -0.5547 0.6016
vn -0.9847 0.1740 -0.0037
vn -0.6985 0.4576 -0.5502
vn 0.1574 0.1309 -0.9788
vn -0.8112 -0.4568 -0.3651
vn 0.2614 -0.3861 -0.8846
vn 0.0492 0.4863 -0.8724
vn 0.9068 0.0579 -0.4175
vn 0.3333 0.3042 -0.8924
vn -0.4953 -0.6670 -0.5566
vn -0.7212 0.4154 -0.5543
vn -0.8374 -0.4966 -0.2286
vn -0.4867 -0.6195 0.6159
vn -0.6649 0.4904 0.5634
vn -0.4953 -0.6670 -0.5566
vn 0.6313 -0.3181 -0.7073
vn 0.9068 0.0579 -0.4175
vn 0.3403 -0.5968 -0.7267
vn 0.1574 0.1309 -0.9788
vn -0.6052 0.6516 -0.4574
vn -0.8114 -0.3479 -0.4698
vn 0.1574 0.1309 -0.9788
vn -0.8114 -0.3479 -0.4698
vn -0.8112 -0.4568 -0.3651
vn 0.3559 0.7200 0.5958
vn 0.6605 0.6481 -0.3792
vn 0.8574 0.5119 -0.0523
vn -0.6052 0.6516 -0.4574
vn -0.6707 -0.1148 0.7328
vn -0.8114 -0.3479 -0.4698
vn 0.3333 0.3042 -0.8924
vn 0.3856 0.5615 -0.7321
vn 0.0492 0.4863 -0.8724
vn -0.2725 0.2642 0.9252
vn 0.5899 -0.6045 0.5354
vn -0.6707 -0.1148 0.7328
vn 0.3856 0.5615 -0.7321
vn 0.6152 -0.5318 -0.5820
vn -0.2071 -0.7526 -0.6251
vn 0.9068 0.0579 -0.4175
vn 0.0492 0.4863 -0.8724
vn 0.3403 -0.5968 -0.7267
vn -0.7212 0.4154 -0.5543
vn -0.4953 -0.6670 -0.5566
vn -0.6649 0.4904 0.5634
vn 0.6313 -0.3181 -0.7073
vn 0.3403 -0.5968 -0.7267
vn -0.2366 -0.6973 -0.6767
vn -0.2725 0.2642 0.9252
vn 0.3936 -0.0362 0.9186
vn 0.5899 -0.6045 0.5354
vn -0.2071 -0.7526 -0.6251
vn 0.2614 -0.3861 -0.8846
vn -0.8112 -0.4568 -0.3651
vn 0.5899 -0.6045 0.5354
vn 0.3936 -0.0362 0.9186
vn 0.6732 -0.3159 0.6686
vn 0.3856 0.5615 -0.7321
vn -0.2071 -0.7526 -0.6251
vn -0.4731 -0.1428 -0.8694
vn 0.3996 0.6740 0.6213
vn 0.3936 -0.0362 0.9186
vn 0.2541 0.4547 0.8536
vn 0.3936 -0.0362 0.9186
vn 0.3996 0.6740 0.6213
vn 0.6732 -0.3159 0.6686
vn 0.5899 -0.6045 0.5354
vn -0.8114 -0.3479 -0.4698
vn -0.6707 -0.1148 0.7328
vn 0.7334 0.2003 0.6496
vn 0.2541 0.4547 0.8536
vn 0.3936 -0.0362 0.9186
vn -0.8112 -0.4568 -0.3651
vn -0.8114 -0.3479 -0.4698
vn -0.5496 -0.8332 -0.0605
vn -0.8114 -0.3479 -0.4698
vn 0.5899 -0.6045 0.5354
vn -0.5496 -0.8332 -0.0605
vn -0.2071 -0.7526 -0.6251
vn -0.8112 -0.4568 -0.3651
vn -0.4731 -0.1428 -0.8694
vn 0.0492 0.4863 -0.8724
vn 0.3856 0.5615 -0.7321
vn -0.2243 0.0662 -0.9723
vn 0.3403 -0.5968 -0.7267
vn 0.3452 -0.3794 -0.8584
vn -0.2366 -0.6973 -0.6767
vn 0.2541 0.4547 0.8536
vn 0.3559 0.7200 0.5958
vn -0.4330 0.6576 0.6165
vn -0.1287 -0.0028 -0.9917
vn 0.6313 -0.3181 -0.7073
vn -0.2366 -0.6973 -0.6767
vn -0.4731 -0.1428 -0.8694
vn -0.2243 0.0662 -0.9723
vn 0.3856 0.5615 -0.7321
vn 0.7065 0.6932 0.1425
vn 0.3559 0.7200 0.5958
vn 0.8574 0.5119 -0.0523
vn -0.3694 -0.7656 -0.5266
vn -0.8112 -0.4568 -0.3651
vn -0.5496 -0.8332 -0.0605
vn 0.6732 -0.3159 0.6686
vn 0.3521 -0.8147 0.4607
vn 0.5899 -0.6045 0.5354
vn 0.7165 0.6861 -0.1266
vn -0.0218 0.7428 -0.6692
vn -0.1287 -0.0028 -0.9917
vn 0.0492 0.4863 -0.8724
vn 0.3452 -0.3794 -0.8584
vn 0.3403 -0.5968 -0.7267
vn 0.0492 0.4863 -0.8724
vn -0.2243 0.0662 -0.9723
vn 0.3452 -0.3794 -0.8584
vn 0.5899 -0.6045 0.5354
vn 0.3521 -0.8147 0.4607
vn -0.5496 -0.8332 -0.0605
vn -0.0218 0.7428 -0.6692
vn 0.6313 -0.3181 -0.7073
vn -0.1287 -0.0028 -0.9917
vn -0.4731 -0.1428 -0.8694
vn -0.8112 -0.4568 -0.3651
vn -0.3538 -0.8271 -0.4367
vn -0.3694 -0.7656 -0.5266
vn -0.3538 -0.8271 -0.4367
vn -0.8112 -0.4568 -0.3651
vn -0.1287 -0.0028 -0.9917
vn -0.2366 -0.6973 -0.6767
vn 0.3452 -0.3794 -0.8584
vn 0.6990 -0.5878 -0.4073
vn -0.3538 -0.8271 -0.4367
vn -0.3694 -0.7656 -0.5266
vn -0.4731 -0.1428 -0.8694
vn -0.3538 -0.8271 -0.4367
vn -0.3928 -0.8363 -0.3826
vn -0.4731 -0.1428 -0.8694
vn -0.3928 -0.8363 -0.3826
vn -0.2243 0.0662 -0.9723
vn -0.4330 0.6576 0.6165
vn 0.3996 0.6740 0.6213
vn 0.2541 0.4547 0.8536
vn 0.3559 0.7200 0.5958
vn 0.7065 0.6932 0.1425
vn 0.1703 0.4688 0.8667
vn -0.4022 -0.6790 0.6141
vn -0.5496 -0.8332 -0.0605
vn 0.3521 -0.8147 0.4607
vn 0.7165 0.6861 -0.1266
vn -0.1287 -0.0028 -0.9917
vn 0.5184 0.3429 -0.7833
vn -0.3538 -0.8271 -0.4367
vn 0.6990 -0.5878 -0.4073
vn -0.4087 -0.7616 -0.5030
vn -0.5496 -0.8332 -0.0605
vn -0.4022 -0.6790 0.6141
vn -0.4715 -0.6922 -0.5464
vn 0.6732 -0.3159 0.6686
vn -0.4022 -0.6790 0.6141
vn 0.3521 -0.8147 0.4607
vn 0.7065 0.6932 0.1425
vn 0.3347 0.8808 0.3349
vn 0.1703 0.4688 0.8667
vn 0.7165 0.6861 -0.1266
vn 0.5184 0.3429 -0.7833
vn 0.8574 0.5119 -0.0523
vn -0.3694 -0.7656 -0.5266
vn -0.5496 -0.8332 -0.0605
vn -0.4715 -0.6922 -0.5464
vn -0.3743 -0.4497 -0.8110
vn -0.3928 -0.8363 -0.3826
vn -0.3538 -0.8271 -0.4367
vn 0.7758 0.6308 0.0103
vn 0.8574 0.5119 -0.0523
vn 0.5184 0.3429 -0.7833
vn 0.3996 0.6740 0.6213
vn -0.4022 -0.6790 0.6141
vn 0.6732 -0.3159 0.6686
vn 0.1703 0.4688 0.8667
vn 0.3347 0.8808 0.3349
vn 0.5909 0.6228 0.5128
vn -0.4087 -0.7616 -0.5030
vn 0.6990 -0.5878 -0.4073
vn -0.2651 -0.4775 -0.8377
vn -0.2243 0.0662 -0.9723
vn -0.1287 -0.0028 -0.9917
vn 0.3452 -0.3794 -0.8584
vn -0.2243 0.0662 -0.9723
vn -0.3928 -0.8363 -0.3826
vn -0.4222 -0.5919 -0.6866
vn -0.3743 -0.4497 -0.8110
vn -0.3538 -0.8271 -0.4367
vn -0.4087 -0.7616 -0.5030
vn 0.8574 0.5119 -0.0523
vn 0.2332 0.8030 0.5485
vn 0.7065 0.6932 0.1425
vn -0.1287 -0.0028 -0.9917
vn -0.2243 0.0662 -0.9723
vn -0.2362 -0.1601 -0.9584
vn -0.3694 -0.7656 -0.5266
vn -0.4715 -0.6922 -0.5464
vn -0.2651 -0.4775 -0.8377
vn -0.1287 -0.0028 -0.9917
vn -0.2362 -0.1601 -0.9584
vn 0.5184 0.3429 -0.7833
vn 0.2332 0.8030 0.5485
vn 0.8574 0.5119 -0.0523
vn 0.7758 0.6308 0.0103
vn 0.1703 0.4688 0.8667
vn 0.5909 0.6228 0.5128
vn 0.0415 0.5707 0.8201
vn 0.2332 0.8030 0.5485
vn 0.3347 0.8808 0.3349
vn 0.7065 0.6932 0.1425
vn 0.3347 0.8808 0.3349
vn -0.0187 0.6032 0.7974
vn 0.5909 0.6228 0.5128
vn -0.4222 -0.5919 -0.6866
vn -0.2362 -0.1601 -0.9584
vn -0.2243 0.0662 -0.9723
vn 0.6990 -0.5878 -0.4073
vn -0.3694 -0.7656 -0.5266
vn -0.2651 -0.4775 -0.8377
vn 0.2332 0.8030 0.5485
vn -0.0187 0.6032 0.7974
vn 0.3347 0.8808 0.3349
vn -0.3870 -0.7626 -0.5183
vn -0.4222 -0.5919 -0.6866
vn -0.3928 -0.8363 -0.3826
vn 0.3996 0.6740 0.6213
vn -0.4330 0.6576 0.6165
vn -0.9589 0.1461 0.2433
vn -0.3870 -0.7626 -0.5183
vn -0.3928 -0.8363 -0.3826
vn -0.3743 -0.4497 -0.8110
vn -0.5914 0.4912 0.6395
vn -0.9589 0.1461 0.2433
vn -0.4330 0.6576 0.6165
vn -0.4087 -0.7616 -0.5030
vn -0.6137 -0.7462 -0.2579
vn -0.3743 -0.4497 -0.8110
vn -0.6137 -0.7462 -0.2579
vn -0.3870 -0.7626 -0.5183
vn -0.3743 -0.4497 -0.8110
vn 0.3559 0.7200 0.5958
vn 0.1703 0.4688 0.8667
vn -0.4330 0.6576 0.6165
vn -0.5914 0.4912 0.6395
vn -0.4330 0.6576 0.6165
vn -0.4160 -0.5364 0.7343
vn -0.0187 0.6032 0.7974
vn 0.3150 0.8432 0.4356
vn 0.5909 0.6228 0.5128
vn -0.4330 0.6576 0.6165
vn -0.4831 -0.3079 0.8197
vn -0.4160 -0.5364 0.7343
vn 0.5909 0.6228 0.5128
vn 0.3150 0.8432 0.4356
vn -0.0671 0.5871 0.8067
vn -0.4022 -0.6790 0.6141
vn 0.3996 0.6740 0.6213
vn -0.7253 0.4489 0.5219
vn -0.6137 -0.7462 -0.2579
vn -0.4222 -0.5919 -0.6866
vn -0.3870 -0.7626 -0.5183
vn 0.2204 -0.0976 -0.9705
vn 0.5184 0.3429 -0.7833
vn -0.2362 -0.1601 -0.9584
vn -0.0671 0.5871 0.8067
vn 0.0415 0.5707 0.8201
vn 0.5909 0.6228 0.5128
vn 0.7758 0.6308 0.0103
vn 0.5184 0.3429 -0.7833
vn 0.5024 0.3234 -0.8019
vn 0.0415 0.5707 0.8201
vn -0.4330 0.6576 0.6165
vn 0.1703 0.4688 0.8667
vn -0.6137 -0.7462 -0.2579
vn -0.3964 -0.6415 -0.6568
vn -0.4222 -0.5919 -0.6866
vn -0.2651 -0.4775 -0.8377
vn -0.9589 0.1461 0.2433
vn -0.4087 -0.7616 -0.5030
vn -0.9589 0.1461 0.2433
vn -0.5914 0.4912 0.6395
vn -0.7243 -0.3879 0.5700
vn -0.2362 -0.1601 -0.9584
vn -0.4222 -0.5919 -0.6866
vn -0.5647 0.0217 -0.8250
vn -0.5914 0.4912 0.6395
vn -0.4160 -0.5364 0.7343
vn -0.7243 -0.3879 0.5700
vn -0.4160 -0.5364 0.7343
vn -0.4831 -0.3079 0.8197
vn -0.7243 -0.3879 0.5700
vn 0.2204 -0.0976 -0.9705
vn 0.5024 0.3234 -0.8019
vn 0.5184 0.3429 -0.7833
vn -0.4222 -0.5919 -0.6866
vn -0.3964 -0.6415 -0.6568
vn -0.5647 0.0217 -0.8250
vn -0.9589 0.1461 0.2433
vn -0.6137 -0.7462 -0.2579
vn -0.4087 -0.7616 -0.5030
vn -0.2362 -0.1601 -0.9584
vn -0.5647 0.0217 -0.8250
vn 0.2204 -0.0976 -0.9705
vn -0.4715 -0.6922 -0.5464
vn -0.9589 0.1461 0.2433
vn -0.2651 -0.4775 -0.8377
vn -0.4831 -0.3079 0.8197
vn -0.4330 0.6576 0.6165
vn -0.9452 0.1614 0.2837
vn 0.0415 0.5707 0.8201
vn -0.0671 0.5871 0.8067
vn -0.7825 0.2389 0.5750
vn -0.4022 -0.6790 0.6141
vn -0.7253 0.4489 0.5219
vn -0.4715 -0.6922 -0.5464
vn -0.7253 0.4489 0.5219
vn 0.3996 0.6740 0.6213
vn -0.9589 0.1461 0.2433
vn -0.8520 0.2859 0.4386
vn -0.0187 0.6032 0.7974
vn 0.2332 0.8030 0.5485
vn -0.7243 -0.3879 0.5700
vn -0.6137 -0.7462 -0.2579
vn -0.9589 0.1461 0.2433
vn -0.7825 0.2389 0.5750
vn -0.0671 0.5871 0.8067
vn -0.5852 0.6962 0.4157
vn -0.0187 0.6032 0.7974
vn -0.8520 0.2859 0.4386
vn 0.3150 0.8432 0.4356
vn -0.5647 0.0217 -0.8250
vn -0.9452 0.1614 0.2837
vn -0.7636 -0.4436 -0.4691
vn 0.2332 0.8030 0.5485
vn 0.0837 0.6585 0.7479
vn -0.2590 0.1530 0.9537
vn -0.3964 -0.6415 -0.6568
vn -0.6945 0.4083 -0.5924
vn -0.5647 0.0217 -0.8250
vn 0.0415 0.5707 0.8201
vn -0.7825 0.2389 0.5750
vn -0.4330 0.6576 0.6165
vn -0.3964 -0.6415 -0.6568
vn -0.6137 -0.7462 -0.2579
vn -0.7243 -0.3879 0.5700
vn 0.7758 0.6308 0.0103
vn 0.0837 0.6585 0.7479
vn 0.2332 0.8030 0.5485
vn -0.5647 0.0217 -0.8250
vn -0.8081 -0.4570 0.3716
vn -0.0982 -0.6205 0.7780
vn -0.8081 -0.4570 0.3716
vn -0.5647 0.0217 -0.8250
vn -0.7636 -0.4436 -0.4691
vn -0.9452 0.1614 0.2837
vn -0.8124 0.1339 -0.5676
vn -0.7636 -0.4436 -0.4691
vn 0.2332 0.8030 0.5485
vn -0.2590 0.1530 0.9537
vn -0.8520 0.2859 0.4386
vn -0.4330 0.6576 0.6165
vn -0.7825 0.2389 0.5750
vn -0.9452 0.1614 0.2837
vn -0.0615 0.0142 -0.9980
vn 0.5024 0.3234 -0.8019
vn 0.2204 -0.0976 -0.9705
vn -0.0671 0.5871 0.8067
vn 0.3150 0.8432 0.4356
vn -0.5852 0.6962 0.4157
vn 0.7758 0.6308 0.0103
vn 0.5024 0.3234 -0.8019
vn 0.2371 0.6966 -0.6771
vn -0.4715 -0.6922 -0.5464
vn -0.7253 0.4489 0.5219
vn -0.9589 0.1461 0.2433
vn -0.4831 -0.3079 0.8197
vn -0.9452 0.1614 0.2837
vn -0.7150 0.4069 0.5686
vn -0.5647 0.0217 -0.8250
vn 0.2964 -0.4398 -0.8478
vn 0.2204 -0.0976 -0.9705
vn -0.8081 -0.4570 0.3716
vn -0.7636 -0.4436 -0.4691
vn -0.9495 -0.0734 -0.3050
vn 0.7758 0.6308 0.0103
vn 0.2960 0.7965 0.5271
vn 0.0837 0.6585 0.7479
vn -0.5852 0.6962 0.4157
vn 0.3150 0.8432 0.4356
vn -0.8520 0.2859 0.4386
vn 0.2204 -0.0976 -0.9705
vn -0.0000 0.0000 0.0000
vn -0.0615 0.0142 -0.9980
vn -0.9452 0.1614 0.2837
vn -0.6945 0.4083 -0.5924
vn -0.7150 0.4069 0.5686
vn -0.7636 -0.4436 -0.4691
vn -0.8124 0.1339 -0.5676
vn -0.9495 -0.0734 -0.3050
vn -0.3964 -0.6415 -0.6568
vn -0.7243 -0.3879 0.5700
vn -0.6945 0.4083 -0.5924
vn 0.2371 0.6966 -0.6771
vn 0.2960 0.7965 0.5271
vn 0.7758 0.6308 0.0103
vn -0.6945 0.4083 -0.5924
vn -0.9452 0.1614 0.2837
vn -0.5647 0.0217 -0.8250
vn -0.0982 -0.6205 0.7780
vn 0.2964 -0.4398 -0.8478
vn -0.5647 0.0217 -0.8250
vn -0.6945 0.4083 -0.5924
vn -0.7243 -0.3879 0.5700
vn -0.7150 0.4069 0.5686
vn -0.7150 0.4069 0.5686
vn -0.7243 -0.3879 0.5700
vn -0.4831 -0.3079 0.8197
vn 0.0837 0.6585 0.7479
vn 0.2960 0.7965 0.5271
vn -0.2590 0.1530 0.9537
vn -0.7825 0.2389 0.5750
vn -0.8124 0.1339 -0.5676
vn -0.9452 0.1614 0.2837
vn -0.5852 0.6962 0.4157
vn -0.9495 -0.0734 -0.3050
vn -0.7825 0.2389 0.5750
vn 0.2964 -0.4398 -0.8478
vn 0.7436 -0.0452 -0.6671
vn 0.2204 -0.0976 -0.9705
vn -0.8124 0.1339 -0.5676
vn -0.7825 0.2389 0.5750
vn -0.9495 -0.0734 -0.3050
vn -0.0000 0.0000 0.0000
vn 0.2204 -0.0976 -0.9705
vn -0.0615 0.0142 -0.9980
vn -0.9495 -0.0734 -0.3050
vn -0.6519 -0.3304 0.6826
vn -0.8081 -0.4570 0.3716
vn -0.8520 0.2859 0.4386
vn -0.9495 -0.0734 -0.3050
vn -0.5852 0.6962 0.4157
vn 0.5024 0.3234 -0.8019
vn -0.2463 0.1117 -0.9627
vn 0.2371 0.6966 -0.6771
vn -0.6519 -0.3304 0.6826
vn -0.9495 -0.0734 -0.3050
vn -0.8520 0.2859 0.4386
vn -0.2590 0.1530 0.9537
vn -0.6519 -0.3304 0.6826
vn -0.8520 0.2859 0.4386
vn -0.0615 0.0142 -0.9980
vn -0.2463 0.1117 -0.9627
vn 0.5024 0.3234 -0.8019
vn 0.7436 -0.0452 -0.6671
vn -0.0615 0.0142 -0.9980
vn 0.2204 -0.0976 -0.9705
vn -0.6519 -0.3304 0.6826
vn -0.2590 0.1530 0.9537
vn -0.6312 -0.3311 0.7014
vn -0.0615 0.0142 -0.9980
vn 0.1245 0.4138 -0.9018
vn -0.2463 0.1117 -0.9627
vn -0.6645 0.5561 0.4992
vn 0.2371 0.6966 -0.6771
vn -0.6302 0.3867 -0.6732
vn 0.2371 0.6966 -0.6771
vn -0.2463 0.1117 -0.9627
vn -0.6302 0.3867 -0.6732
vn -0.6645 0.5561 0.4992
vn 0.2960 0.7965 0.5271
vn 0.2371 0.6966 -0.6771
vn -0.0982 -0.6205 0.7780
vn -0.8081 -0.4570 0.3716
vn -0.6519 -0.3304 0.6826
vn -0.0982 -0.6205 0.7780
vn 0.4902 -0.3361 0.8042
vn 0.4808 -0.5718 0.6648
vn -0.2463 0.1117 -0.9627
vn -0.8954 0.3624 -0.2589
vn -0.6302 0.3867 -0.6732
vn -0.6645 0.5561 0.4992
vn -0.6312 -0.3311 0.7014
vn -0.2590 0.1530 0.9537
vn 0.4902 -0.3361 0.8042
vn -0.0739 0.7745 0.6282
vn 0.5442 0.1020 0.8327
vn -0.2463 0.1117 -0.9627
vn 0.1245 0.4138 -0.9018
vn -0.8954 0.3624 -0.2589
vn -0.6645 0.5561 0.4992
vn -0.2590 0.1530 0.9537
vn 0.2960 0.7965 0.5271
vn -0.6519 -0.3304 0.6826
vn -0.3010 0.7427 0.5982
vn -0.0982 -0.6205 0.7780
vn -0.6302 0.3867 -0.6732
vn -0.8954 0.3624 -0.2589
vn -0.6312 -0.3311 0.7014
vn -0.6312 -0.3311 0.7014
vn -0.6645 0.5561 0.4992
vn -0.6302 0.3867 -0.6732
vn 0.4902 -0.3361 0.8042
vn -0.0982 -0.6205 0.7780
vn -0.3010 0.7427 0.5982
vn -0.0739 0.7745 0.6282
vn 0.4902 -0.3361 0.8042
vn -0.3010 0.7427 0.5982
vn -0.6519 -0.3304 0.6826
vn -0.6312 -0.3311 0.7014
vn -0.5886 0.5721 0.5712
vn -0.5886 0.5721 0.5712
vn -0.6312 -0.3311 0.7014
vn -0.8954 0.3624 -0.2589
vn -0.3010 0.7427 0.5982
vn -0.6519 -0.3304 0.6826
vn -0.5886 0.5721 0.5712
vn -0.8954 0.3624 -0.2589
vn 0.1245 0.4138 -0.9018
vn -0.6565 0.6477 -0.3867
vn 0.3936 0.6814 -0.6170
vn 0.1245 0.4138 -0.9018
vn -0.0615 0.0142 -0.9980
vn -0.0615 0.0142 -0.9980
vn 0.7436 -0.0452 -0.6671
vn 0.9560 -0.0664 -0.2858
vn 0.2964 -0.4398 -0.8478
vn 0.9560 -0.0664 -0.2858
vn 0.7436 -0.0452 -0.6671
vn -0.5886 0.5721 0.5712
vn -0.8954 0.3624 -0.2589
vn -0.6565 0.6477 -0.3867
vn 0.4902 -0.3361 0.8042
vn 0.7609 -0.5514 0.3421
vn 0.4808 -0.5718 0.6648
vn -0.6565 0.6477 -0.3867
vn -0.3010 0.7427 0.5982
vn -0.5886 0.5721 0.5712
vn 0.2964 -0.4398 -0.8478
vn -0.0982 -0.6205 0.7780
vn 0.4830 -0.7302 0.4833
vn -0.6565 0.6477 -0.3867
vn -0.7743 0.4476 0.4473
vn -0.3010 0.7427 0.5982
vn 0.4830 -0.7302 0.4833
vn -0.0982 -0.6205 0.7780
vn 0.4808 -0.5718 0.6648
vn -0.7743 0.4476 0.4473
vn -0.0739 0.7745 0.6282
vn -0.3010 0.7427 0.5982
vn -0.7743 0.4476 0.4473
vn -0.6565 0.6477 -0.3867
vn -0.4289 0.7173 0.5491
vn -0.2426 0.9408 -0.2369
vn -0.6565 0.6477 -0.3867
vn 0.1245 0.4138 -0.9018
vn 0.4830 -0.7302 0.4833
vn 0.9560 -0.0664 -0.2858
vn 0.2964 -0.4398 -0.8478
vn 0.4902 -0.3361 0.8042
vn 0.5442 0.1020 0.8327
vn 0.7609 -0.5514 0.3421
vn -0.0615 0.0142 -0.9980
vn 0.9560 -0.0664 -0.2858
vn 0.3936 0.6814 -0.6170
vn 0.4830 -0.7302 0.4833
vn 0.5276 -0.6599 -0.5349
vn 0.9560 -0.0664 -0.2858
vn -0.7743 0.4476 0.4473
vn -0.4289 0.7173 0.5491
vn -0.5580 0.8237 0.1007
vn 0.5442 0.1020 0.8327
vn -0.0739 0.7745 0.6282
vn -0.4886 0.4480 0.7487
vn -0.5580 0.8237 0.1007
vn -0.0739 0.7745 0.6282
vn -0.7743 0.4476 0.4473
vn -0.6565 0.6477 -0.3867
vn -0.2426 0.9408 -0.2369
vn -0.4289 0.7173 0.5491
vn -0.5580 0.8237 0.1007
vn -0.4886 0.4480 0.7487
vn -0.0739 0.7745 0.6282
vn -0.2426 0.9408 -0.2369
vn -0.5580 0.8237 0.1007
vn -0.4289 0.7173 0.5491
vn 0.5442 0.1020 0.8327
vn -0.4886 0.4480 0.7487
vn 0.2026 -0.2301 0.9518
vn 0.4830 -0.7302 0.4833
vn 0.4808 -0.5718 0.6648
vn 0.1842 -0.6049 -0.7747
vn -0.4886 0.4480 0.7487
vn -0.5580 0.8237 0.1007
vn -0.4235 0.7971 0.4305
vn -0.4886 0.4480 0.7487
vn -0.4235 0.7971 0.4305
vn -0.2402 0.3232 0.9154
vn -0.5580 0.8237 0.1007
vn -0.3016 0.8918 0.3372
vn -0.4235 0.7971 0.4305
vn 0.0000 1.0000 0.0000
vn 0.0000 1.0000 0.0000
vn 0.0000 1.0000 0.0000
vn 0.0000 1.0000 0.0000
vn 0.0000 1.0000 0.0000
vn 0.0000 1.0000 0.0000
vn 0.0000 1.0000 0.0000
vn 0.0000 1.0000 0.0000
vn 0.0000 1.0000 0.0000
vn 0.0000 1.0000 0.0000
vn 0.0000 1.0000 0.0000
vn 0.0000 1.0000 0.0000
vn 0.0000 1.0000 0.0000
vn 0.0000 1.0000 0.0000
vn 0.0000 1.0000 0.0000
vn 0.0000 1.0000 0.0000
vn 0.0000 1.0000 0.0000
f 1/1/1 2/2/2 3/3/3
f 4/4/4 5/5/5 6/6/6
f 7/7/7 8/8/8 9/9/9
f 10/10/10 11/11/11 12/12/12
f 13/13/13 14/14/14 15/15/15
f 16/16/16 17/17/17 18/18/18
f 19/19/19 20/20/20 21/21/21
f 22/22/22 23/23/23 24/24/24
f 25/25/25 26/26/26 27/27/27
f 28/28/28 29/29/29 30/30/30
f 31/31/31 32/32/32 33/33/33
f 34/34/34 35/35/35 36/36/36
f 37/37/37 38/38/38 39/39/39
f 40/40/40 41/41/41 42/42/42
f 43/43/43 44/44/44 45/45/45
f 46/46/46 47/47/47 48/48/48
f 49/49/49 50/50/50 51/51/51
f 52/52/52 53/53/53 54/54/54
f 55/55/55 56/56/56 57/57/57
f 58/58/58 59/59/59 60/60/60
f 61/61/61 62/62/62 63/63/63
f 64/64/64 65/65/65 66/66/66
f 67/67/67 68/68/68 69/69/69
f 70/70/70 71/71/71 72/72/72
f 73/73/73 74/74/74 75/75/75
f 76/76/76 77/77/77 78/78/78
f 79/79/79 80/80/80 81/81/81
f 82/82/82 83/83/83 84/84/84
f 85/85/85 86/86/86 87/87/87
f 88/88/88 89/89/89 90/90/90
f 91/91/91 92/92/92 93/93/93
f 94/94/94 95/95/95 96/96/96
f 97/97/97 98/98/98 99/99/99
f 100/100/100 101/101/101 102/102/102
f 103/103/103 104/104/104 105/105/105
f 106/106/106 107/107/107 108/108/108
f 109/109/109 110/110/110 111/111/111
f 112/112/112 113/113/113 114/114/114
f 115/115/115 116/116/116 117/117/117
f 118/118/118 119/119/119 120/120/120
f 121/121/121 122/122/122 123/123/123
f 124/124/124 125/125/125 126/126/126
f 127/127/127 128/128/128 129/129/129
f 130/130/130 131/131/131 132/132/132
f 133/133/133 134/134/134 135/135/135
f 136/136/136 137/137/137 138/138/138
f 139/139/139 140/140/140 141/141/141
f 142/142/142 143/143/143 144/144/144
f 145/145/145 146/146/146 147/147/147
f 148/148/148 149/149/149 150/150/150
f 151/151/151 152/152/152 153/153/153
f 154/154/154 155/155/155 156/156/156
f 157/157/157 158/158/158 159/159/159
f 160/160/160 161/161/161 162/162/162
f 163/163/163 164/164/164 165/165/165
f 166/166/166 167/167/167 168/168/168
f 169/169/169 170/170/170 171/171/171
f 172/172/172 173/173/173 174/174/174
f 175/175/175 176/176/176 177/177/177
f 178/178/178 179/179/179 180/180/180
f 181/181/181 182/182/182 183/183/183
f 184/184/184 185/185/185 186/186/186
f 187/187/187 188/188/188 189/189/189
f 190/190/190 191/191/191 192/192/192
f 193/193/193 194/194/194 195/195/195
f 196/196/196 197/197/197 198/198/198
f 199/199/199 200/200/200 201/201/201
f 202/202/202 203/203/203 204/204/204
f 205/205/205 206/206/206 207/207/207
f 208/208/208 209/209/209 210/210/210
f 211/211/211 212/212/212 213/213/213
f 214/214/214 215/215/215 216/216/216
f 217/217/217 218/218/218 219/219/219
f 220/220/220 221/221/221 222/222/222
f 223/223/223 224/224/224 225/225/225
f 226/226/226 227/227/227 228/228/228
f 229/229/229 230/230/230 231/231/231
f 232/232/232 233/233/233 234/234/234
f 235/235/235 236/236/236 237/237/237
f 238/238/238 239/239/239 240/240/240
f 241/241/241 242/242/242 243/243/243
f 244/244/244 245/245/245 246/246/246
f 247/247/247 248/248/248 249/249/249
f 250/250/250 251/251/251 252/252/252
f 253/253/253 254/254/254 255/255/255
f 256/256/256 257/257/257 258/258/258
f 259/259/259 260/260/260 261/261/261
f 262/262/262 263/263/263 264/264/264
f 265/265/265 266/266/266 267/267/267
f 268/268/268 269/269/269 270/270/270
f 271/271/271 272/272/272 273/273/273
f 274/274/274 275/275/275 276/276/276
f 277/277/277 278/278/278 279/279/279
f 280/280/280 281/281/281 282/282/282
f 283/283/283 284/284/284 285/285/285
f 286/286/286 287/287/287 288/288/288
f 289/289/289 290/290/290 291/291/291
f 292/292/292 293/293/293 294/294/294
f 295/295/295 296/296/296 297/297/297
f 298/298/298 299/299/299 300/300/300
f 301/301/301 302/302/302 303/303/303
f 304/304/304 305/305/305 306/306/306
f 307/307/307 308/308/308 309/309/309
f 310/310/310 311/311/311 312/312/312
f 313/313/313 314/314/314 315/315/315
f 316/316/316 317/317/317 318/318/318
f 319/319/319 320/320/320 321/321/321
f 322/322/322 323/323/323 324/324/324
f 325/325/325 326/326/326 327/327/327
f 328/328/328 329/329/329 330/330/330
f 331/331/331 332/332/332 333/333/333
f 334/334/334 335/335/335 336/336/336
f 337/337/337 338/338/338 339/339/339
f 340/340/340 341/341/341 342/342/342
f 343/343/343 344/344/344 345/345/345
f 346/346/346 347/347/347 348/348/348
f 349/349/349 350/350/350 351/351/351
f 352/352/352 353/353/353 354/354/354
f 355/355/355 356/356/356 357/357/357
f 358/358/358 359/359/359 360/360/360
f 361/361/361 362/362/362 363/363/363
f 364/364/364 365/365/365 366/366/366
f 367/367/367 368/368/368 369/369/369
f 370/370/370 371/371/371 372/372/372
f 373/373/373 374/374/374 375/375/375
f 376/376/376 377/377/377 378/378/378
f 379/379/379 380/380/380 381/381/381
f 382/382/382 383/383/383 384/384/384
f 385/385/385 386/386/386 387/387/387
f 388/388/388 389/389/389 390/390/390
f 391/391/391 392/392/392 393/393/393
f 394/394/394 395/395/395 396/396/396
f 397/397/397 398/398/398 399/399/399
f 400/400/400 401/401/401 402/402/402
f 403/403/403 404/404/404 405/405/405
f 406/406/406 407/407/407 408/408/408
f 409/409/409 410/410/410 411/411/411
f 412/412/412 413/413/413 414/414/414
f 415/415/415 416/416/416 417/417/417
f 418/418/418 419/419/419 420/420/420
f 421/421/421 422/422/422 423/423/423
f 424/424/424 425/425/425 426/426/426
f 427/427/427 428/428/428 429/429/429
f 430/430/430 431/431/431 432/432/432
f 433/433/433 434/434/434 435/435/435
f 436/436/436 437/437/437 438/438/438
f 439/439/439 440/440/440 441/441/441
f 442/442/442 443/443/443 444/444/444
f 445/445/445 446/446/446 447/447/447
f 448/448/448 449/449/449 450/450/450
f 451/451/451 452/452/452 453/453/453
f 454/454/454 455/455/455 456/456/456
f 457/457/457 458/458/458 459/459/459
f 460/460/460 461/461/461 462/462/462
f 463/463/463 464/464/464 465/465/465
f 466/466/466 467/467/467 468/468/468
f 469/469/469 470/470/470 471/471/471
f 472/472/472 473/473/473 474/474/474
f 475/475/475 476/476/476 477/477/477
f 478/478/478 479/479/479 480/480/480
f 481/481/481 482/482/482 483/483/483
f 484/484/484 485/485/485 486/486/486
f 487/487/487 488/488/488 489/489/489
f 490/490/490 491/491/491 492/492/492
f 493/493/493 494/494/494 495/495/495
f 496/496/496 497/497/497 498/498/498
f 499/499/499 500/500/500 501/501/501
f 502/502/502 503/503/503 504/504/504
f 505/505/505 506/506/506 507/507/507
f 508/508/508 509/509/509 510/510/510
f 511/511/511 512/512/512 513/513/513
f 514/514/514 515/515/515 516/516/516
f 517/517/517 518/518/518 519/519/519
f 520/520/520 521/521/521 522/522/522
f 523/523/523 524/524/524 525/525/525
f 526/526/526 527/527/527 528/528/528
f 529/529/529 530/530/530 531/531/531
f 532/532/532 533/533/533 534/534/534
f 535/535/535 536/536/536 537/537/537
f 538/538/538 539/539/539 540/540/540
f 541/541/541 542/542/542 543/543/543
f 544/544/544 545/545/545 546/546/546
f 547/547/547 548/548/548 549/549/549
f 550/550/550 551/551/551 552/552/552
f 553/553/553 554/554/554 555/555/555
f 556/556/556 557/557/557 558/558/558
f 559/559/559 560/560/560 561/561/561
f 562/562/562 563/563/563 564/564/564
f 565/565/565 566/566/566 567/567/567
f 568/568/568 569/569/569 570/570/570
f 571/571/571 572/572/572 573/573/573
f 574/574/574 575/575/575 576/576/576
f 577/577/577 578/578/578 579/579/579
f 580/580/580 581/581/581 582/582/582
f 583/583/583 584/584/584 585/585/585
f 586/586/586 587/587/587 588/588/588
f 589/589/589 590/590/590 591/591/591
f 592/592/592 593/593/593 594/594/594
f 595/595/595 596/596/596 597/597/597
f 598/598/598 599/599/599 600/600/600
f 601/601/601 602/602/602 603/603/603
f 604/604/604 605/605/605 606/606/606
f 607/607/607 608/608/608 609/609/609
f 610/610/610 611/611/611 612/612/612
f 613/613/613 614/614/614 615/615/615
f 616/616/616 617/617/617 618/618/618
f 619/619/619 620/620/620 621/621/621
f 622/622/622 623/623/623 624/624/624
f 625/625/625 626/626/626 627/627/627
f 628/628/628 629/629/629 630/630/630
f 631/631/631 632/632/632 633/633/633
f 634/634/634 635/635/635 636/636/636
f 637/637/637 638/638/638 639/639/639
f 640/640/640 641/641/641 642/642/642
f 643/643/643 644/644/644 645/645/645
f 646/646/646 647/647/647 648/648/648
f 649/649/649 650/650/650 651/651/651
f 652/652/652 653/653/653 654/654/654
f 655/655/655 656/656/656 657/657/657
f 658/658/658 659/659/659 660/660/660
f 661/661/661 662/662/662 663/663/663
f 664/664/664 665/665/665 666/666/666
f 667/667/667 668/668/668 669/669/669
f 670/670/670 671/671/671 672/672/672
f 673/673/673 674/674/674 675/675/675
f 676/676/676 677/677/677 678/678/678
f 679/679/679 680/680/680 681/681/681
f 682/682/682 683/683/683 684/684/684
f 685/685/685 686/686/686 687/687/687
f 688/688/688 689/689/689 690/690/690
f 691/691/691 692/692/692 693/693/693
f 694/694/694 695/695/695 696/696/696
f 697/697/697 698/698/698 699/699/699
f 700/700/700 701/701/701 702/702/702
f 703/703/703 704/704/704 705/705/705
f 706/706/706 707/707/707 708/708/708
f 709/709/709 710/710/710 711/711/711
f 712/712/712 713/713/713 714/714/714
f 715/715/715 716/716/716 717/717/717
f 718/718/718 719/719/719 720/720/720
f 721/721/721 722/722/722 723/723/723
f 724/724/724 725/725/725 726/726/726
f 727/727/727 728/728/728 729/729/729
f 730/730/730 731/731/731 732/732/732
f 733/733/733 734/734/734 735/735/735
f 736/736/736 737/737/737 738/738/738
f 739/739/739 740/740/740 741/741/741
f 742/742/742 743/743/743 744/744/744
f 745/745/745 746/746/746 747/747/747
f 748/748/748 749/749/749 750/750/750
f 751/751/751 752/752/752 753/753/753
f 754/754/754 755/755/755 756/756/756
f 757/757/757 758/758/758 759/759/759
f 760/760/760 761/761/761 762/762/762
f 763/763/763 764/764/764 765/765/765
f 766/766/766 767/767/767 768/768/768
f 769/769/769 770/770/770 771/771/771
f 772/772/772 773/773/773 774/774/774
f 775/775/775 776/776/776 777/777/777
f 778/778/778 779/779/779 780/780/780
f 781/781/781 782/782/782 783/783/783
f 784/784/784 785/785/785 786/786/786
f 787/787/787 788/788/788 789/789/789
f 790/790/790 791/791/791 792/792/792
f 793/793/793 794/794/794 795/795/795
f 796/796/796 797/797/797 798/798/798
f 799/799/799 800/800/800 801/801/801
f 802/802/802 803/803/803 804/804/804
f 805/805/805 806/806/806 807/807/807
f 808/808/808 809/809/809 810/810/810
f 811/811/811 812/812/812 813/813/813
f 814/814/814 815/815/815 816/816/816
f 817/817/817 818/818/818 819/819/819
f 820/820/820 821/821/821 822/822/822
f 823/823/823 824/824/824 825/825/825
f 826/826/826 827/827/827 828/828/828
f 829/829/829 830/830/830 831/831/831
f 832/832/832 833/833/833 834/834/834
f 835/835/835 836/836/836 837/837/837
f 838/838/838 839/839/839 840/840/840
f 841/841/841 842/842/842 843/843/843
f 844/844/844 845/845/845 846/846/846
f 847/847/847 848/848/848 849/849/849
f 850/850/850 851/851/851 852/852/852
f 853/853/853 854/854/854 855/855/855
f 856/856/856 857/857/857 858/858/858
f 859/859/859 860/860/860 861/861/861
f 862/862/862 863/863/863 864/864/864
f 865/865/865 866/866/866 867/867/867
f 868/868/868 869/869/869 870/870/870
f 871/871/871 872/872/872 873/873/873
f 874/874/874 875/875/875 876/876/876
f 877/877/877 878/878/878 879/879/879
f 880/880/880 881/881/881 882/882/882
f 883/883/883 884/884/884 885/885/885
f 886/886/886 887/887/887 888/888/888
f 889/889/889 890/890/890 891/891/891
f 892/892/892 893/893/893 894/894/894
f 895/895/895 896/896/896 897/897/897
f 898/898/898 899/899/899 900/900/900
f 901/901/901 902/902/902 903/903/903
f 904/904/904 905/905/905 906/906/906
f 907/907/907 908/908/908 909/909/909
f 910/910/910 911/911/911 912/912/912
f 913/913/913 914/914/914 915/915/915
f 916/916/916 917/917/917 918/918/918
f 919/919/919 920/920/920 921/921/921
f 922/922/922 923/923/923 924/924/924
f 925/925/925 926/926/926 927/927/927
f 928/928/928 929/929/929 930/930/930
f 931/931/931 932/932/932 933/933/933
f 934/934/934 935/935/935 936/936/936
f 937/937/937 938/938/938 939/939/939
f 940/940/940 941/941/941 942/942/942
f 943/943/943 944/944/944 945/945/945
f 946/946/946 947/947/947 948/948/948
f 949/949/949 950/950/950 951/951/951
f 952/952/952 953/953/953 954/954/954
f 955/955/955 956/956/956 957/957/957
f 958/958/958 959/959/959 960/960/960
f 961/961/961 962/962/962 963/963/963
f 964/964/964 965/965/965 966/966/966
f 967/967/967 968/968/968 969/969/969
f 970/970/970 971/971/971 972/972/972
f 973/973/973 974/974/974 975/975/975
f 976/976/976 977/977/977 978/978/978
f 979/979/979 980/980/980 981/981/981
f 982/982/982 983/983/983 984/984/984
f 985/985/985 986/986/986 987/987/987
f 988/988/988 989/989/989 990/990/990
f 991/991/991 992/992/992 993/993/993
f 994/994/994 995/995/995 996/996/996
f 997/997/997 998/998/998 999/999/999
f 1000/1000/1000 1001/1001/1001 1002/1002/1002
f 1003/1003/1003 1004/1004/1004 1005/1005/1005
f 1006/1006/1006 1007/1007/1007 1008/1008/1008
f 1009/1009/1009 1010/1010/1010 1011/1011/1011
f 1012/1012/1012 1013/1013/1013 1014/1014/1014
f 1015/1015/1015 1016/1016/1016 1017/1017/1017
f 1018/1018/1018 1019/1019/1019 1020/1020/1020
f 1021/1021/1021 1022/1022/1022 1023/1023/1023
f 1024/1024/1024 1025/1025/1025 1026/1026/1026
f 1027/1027/1027 1028/1028/1028 1029/1029/1029
f 1030/1030/1030 1031/1031/1031 1032/1032/1032
f 1033/1033/1033 1034/1034/1034 1035/1035/1035
f 1036/1036/1036 1037/1037/1037 1038/1038/1038
f 1039/1039/1039 1040/1040/1040 1041/1041/1041
f 1042/1042/1042 1043/1043/1043 1044/1044/1044
f 1045/1045/1045 1046/1046/1046 1047/1047/1047
f 1048/1048/1048 1049/1049/1049 1050/1050/1050
f 1051/1051/1051 1052/1052/1052 1053/1053/1053
f 1054/1054/1054 1055/1055/1055 1056/1056/1056
f 1057/1057/1057 1058/1058/1058 1059/1059/1059
f 1060/1060/1060 1061/1061/1061 1062/1062/1062
f 1063/1063/1063 1064/1064/1064 1065/1065/1065
f 1066/1066/1066 1067/1067/1067 1068/1068/1068
f 1069/1069/1069 1070/1070/1070 1071/1071/1071
f 1069/1069/1069 1071/1071/1071 1070/1070/1070
f 1069/1069/1069 1071/1071/1071 1072/1072/1072
f 1069/1069/1069 1072/1072/1072 1071/1071/1071
f 1069/1069/1069 1072/1072/1072 1073/1073/1073
f 1069/1069/1069 1073/1073/1073 1072/1072/1072
f 1069/1069/1069 1073/1073/1073 1074/1074/1074
f 1069/1069/1069 1074/1074/1074 1073/1073/1073
f 1069/1069/1069 1074/1074/1074 1075/1075/1075
f 1069/1069/1069 1075/1075/1075 1074/1074/1074
f 1069/1069/1069 1075/1075/1075 1076/1076/1076
f 1069/1069/1069 1076/1076/1076 1075/1075/1075
f 1069/1069/1069 1076/1076/1076 1077/1077/1077
f 1069/1069/1069 1077/1077/1077 1076/1076/1076
f 1069/1069/1069 1077/1077/1077 1078/1078/1078
f 1069/1069/1069 1078/1078/1078 1077/1077/1077
f 1069/1069/1069 1078/1078/1078 1079/1079/1079
f 1069/1069/1069 1079/1079/1079 1078/1078/1078
f 1069/1069/1069 1079/1079/1079 1080/1080/1080
f 1069/1069/1069 1080/1080/1080 1079/1079/1079
f 1069/1069/1069 1080/1080/1080 1081/1081/1081
f 1069/1069/1069 1081/1081/1081 1080/1080/1080
f 1069/1069/1069 1081/1081/1081 1082/1082/1082
f 1069/1069/1069 1082/1082/1082 1081/1081/1081
f 1069/1069/1069 1082/1082/1082 1083/1083/1083
f 1069/1069/1069 1083/1083/1083 1082/1082/1082
f 1069/1069/1069 1083/1083/1083 1084/1084/1084
f 1069/1069/1069 1084/1084/1084 1083/1083/1083
f 1069/1069/1069 1084/1084/1084 1085/1085/1085
f 1069/1069/1069 1085/1085/1085 1084/1084/1084
f 1069/1069/1069 1085/1085/1085 1070/1070/1070
f 1069/1069/1069 1070/1070/1070 1085/1085/1085
