o arm_left
v -1.69651 2.94197 -1.17468
v -1.92440 2.89816 -1.15819
v -1.72059 3.21367 -1.37639
v -1.93240 3.02552 -1.24993
v -1.83003 3.24070 -1.37755
v -1.92092 2.96145 -1.19613
v -1.92092 2.96145 -1.19613
v -1.93240 3.02552 -1.24993
v -1.92440 2.89816 -1.15819
v -1.97401 3.08223 -1.14722
v -1.93240 3.02552 -1.24993
v -1.98185 3.03219 -1.22626
v -1.96681 2.91100 -1.13958
v -1.97401 3.08223 -1.14722
v -2.03428 3.22956 -1.05461
v -1.83003 3.24070 -1.37755
v -1.98185 3.03219 -1.22626
v -1.98185 3.03219 -1.22626
v -2.08876 3.12119 -1.08224
v -1.97401 3.08223 -1.14722
v -1.97401 3.08223 -1.14722
v -2.08876 3.12119 -1.08224
v -2.02495 3.09102 -1.03433
v -2.35059 3.13967 -1.06465
v -2.30518 3.15588 -0.88129
v -2.32088 3.14465 -1.04655
v -2.31324 3.13683 -0.98187
v -2.32088 3.14465 -1.04655
v -2.32669 3.05903 -0.97513
v -2.30440 3.12919 -0.85057
v -2.31794 3.11056 -0.97201
v -2.37862 3.03642 -0.93339
v -2.31794 3.11056 -0.97201
v -2.30440 3.12919 -0.85057
v -2.48832 3.14818 -0.98664
v -2.28554 3.23256 -0.78282
v -2.31324 3.13683 -0.98187
v -2.32669 3.05903 -0.97513
v -2.35680 3.02948 -0.89884
v -2.35881 3.09519 -0.74418
v -2.32669 3.05903 -0.97513
v -2.32088 3.14465 -1.04655
v -2.35059 3.13967 -1.06465
v -2.36720 3.11751 -0.73535
v -2.35852 2.98661 -0.90741
v -2.31324 3.13683 -0.98187
v -2.31794 3.11056 -0.97201
v -2.37862 3.03642 -0.93339
v -2.37862 3.03642 -0.93339
v -2.35881 3.09519 -0.74418
v -2.35680 3.02948 -0.89884
v -2.35680 3.02948 -0.89884
v -2.35852 2.98661 -0.90741
v -2.37862 3.03642 -0.93339
v -2.35852 2.98661 -0.90741
v -2.35852 2.98661 -0.90741
v -2.38481 2.97777 -1.17426
v -2.35059 3.13967 -1.06465
v -2.40498 2.89228 -1.10469
v -2.35852 2.98661 -0.90741
v -2.48832 3.14818 -0.98664
v -2.51364 2.98445 -0.88077
v -2.51568 2.93022 -0.78690
v -2.46784 3.26830 -0.77419
v -2.48832 3.14818 -0.98664
v -2.51364 2.98445 -0.88077
v -0.96984 3.74160 -1.69207
v -1.15572 3.96099 -1.85520
v -1.21378 3.16645 -1.14225
v -1.02657 3.72362 -1.02804
v -1.04776 3.87202 -1.26227
v -1.26181 3.87187 -1.46066
v -1.21378 3.16645 -1.14225
v -1.09444 3.77432 -1.17838
v -1.06253 3.69207 -0.84378
v -1.07395 3.72462 -0.76524
v -1.24732 3.20697 -0.82407
v -1.09444 3.77432 -1.17838
v -0.96311 3.80247 -1.52141
v -1.51266 3.74158 -1.77435
v -0.96984 3.74160 -1.69207
v -1.00106 3.80339 -1.45426
v -1.26440 3.80627 -1.49848
v -1.17662 3.95318 -0.44684
v -1.16578 3.50196 -1.26296
v -1.25916 3.89565 -1.34393
v -1.04776 3.87202 -1.26227
v -1.26661 3.82337 -1.45632
v -1.00106 3.80339 -1.45426
v -1.26181 3.87187 -1.46066
v -1.25916 3.89565 -1.34393
v -1.24732 3.20697 -0.82407
v -1.25622 3.21385 -0.84297
v -1.02657 3.72362 -1.02804
v -1.23967 3.31133 -1.16763
v -1.16578 3.50196 -1.26296
v -1.16512 3.47725 -1.29776
v -1.23967 3.31133 -1.16763
v -1.36293 3.47343 -0.37044
v -1.25622 3.21385 -0.84297
v -1.09735 4.32521 -1.95872
v -1.51171 3.92023 -1.84958
v -1.28320 3.17597 -1.15425
v -1.16512 3.47725 -1.29776
v -1.35566 3.55249 -1.36944
v -1.29902 3.08520 -1.26078
v -1.26661 3.82337 -1.45632
v -1.27302 3.89420 -1.37468
v -1.51266 3.74158 -1.77435
v -1.35566 3.55249 -1.36944
v -1.16512 3.47725 -1.29776
v -1.29902 3.08520 -1.26078
v -1.26440 3.80627 -1.49848
v -1.26661 3.82337 -1.45632
v -1.26595 3.86010 -1.51431
v -1.26181 3.87187 -1.46066
v -1.26440 3.80627 -1.49848
v -1.26595 3.86010 -1.51431
v -1.53592 3.89591 -1.57307
v -1.27302 3.89420 -1.37468
v -1.25916 3.89565 -1.34393
v -1.35566 3.55249 -1.36944
v -1.33860 3.59897 -1.34039
v -1.28320 3.17597 -1.15425
v -1.53592 3.89591 -1.57307
v -1.33860 3.59897 -1.34039
v -1.26595 3.86010 -1.51431
v -1.48704 4.34024 -1.97713
v -1.46866 3.14520 -1.35533
v -1.56899 3.79829 -1.57005
v -1.27302 3.89420 -1.37468
v -1.64047 3.80566 -1.36915
v -1.48497 3.10434 -1.34116
v -1.72059 3.21367 -1.37639
v -1.53279 3.92327 -1.41396
v -1.64151 3.54406 -1.35664
v -1.51171 3.92023 -1.84958
v -1.51920 4.40819 -1.82167
v -1.53279 3.92327 -1.41396
v -1.55254 4.03153 -1.61900
v -1.56899 3.79829 -1.57005
v -1.63417 3.93376 -1.57482
v -1.58030 3.91240 -1.60595
v -1.51266 3.74158 -1.77435
v -1.56899 3.79829 -1.57005
v -1.53279 3.92327 -1.41396
v -1.64047 3.80566 -1.36915
v -1.61266 3.94286 -1.39013
v -1.55254 4.03153 -1.61900
v -1.58030 3.91240 -1.60595
v -1.60456 3.92469 -1.62849
v -1.60564 4.20502 -1.61334
v -1.57570 4.04686 -1.62756
v -1.54273 4.18692 -1.68046
v -1.58030 3.91240 -1.60595
v -1.63417 3.93376 -1.57482
v -1.58030 3.91240 -1.60595
v -1.61266 3.94286 -1.39013
v -1.63417 3.93376 -1.57482
v -1.60456 3.92469 -1.62849
v -1.57570 4.04686 -1.62756
v -1.60456 3.92469 -1.62849
v -1.63417 3.93376 -1.57482
v -1.76461 4.08902 -1.22619
v -1.67125 3.97545 -1.22009
v -1.74403 3.99334 -1.22971
v -1.61266 3.94286 -1.39013
v -1.64047 3.80566 -1.36915
v -1.69058 3.88726 -1.20796
v -1.67125 3.97545 -1.22009
v -1.70328 4.17118 -1.18967
v -1.78611 3.39050 -1.38828
v -1.70914 4.14671 -1.12082
v -1.72088 3.61237 -1.36771
v -1.74403 3.99334 -1.22971
v -1.67125 3.97545 -1.22009
v -1.69058 3.88726 -1.20796
v -1.76461 4.08902 -1.22619
v -1.76461 4.08902 -1.22619
v -1.70328 4.17118 -1.18967
v -1.64297 4.31849 -1.14499
v -1.74408 3.73681 -1.27998
v -1.72088 3.61237 -1.36771
v -1.72088 3.61237 -1.36771
v -1.79535 4.09130 -1.14250
v -1.70914 4.14671 -1.12082
v -1.76461 4.08902 -1.22619
v -1.73675 3.76483 -1.17429
v -1.63417 3.93376 -1.57482
v -1.74403 3.99334 -1.22971
v -1.80509 4.04099 -1.10987
v -1.75541 4.13549 -1.09633
v -1.75541 4.13549 -1.09633
v -1.80509 4.04099 -1.10987
v -1.81939 4.25255 -0.93911
v -1.79557 3.81034 -1.20079
v -1.73675 3.76483 -1.17429
v -1.74682 4.00863 -1.11349
v -1.80426 3.80794 -1.11759
v -1.74682 4.00863 -1.11349
v -1.74403 3.99334 -1.22971
v -1.83389 3.46008 -1.31039
v -1.83389 3.46008 -1.31039
v -1.75541 4.13549 -1.09633
v -1.79535 4.09130 -1.14250
v -1.77387 4.04535 -1.08901
v -1.77387 4.04535 -1.08901
v -1.80887 4.10779 -0.98690
v -1.74682 4.00863 -1.11349
v -1.77387 4.04535 -1.08901
v -1.80509 4.04099 -1.10987
v -1.74682 4.00863 -1.11349
v -1.80028 4.05995 -0.97872
v -1.80028 4.05995 -0.97872
v -1.79557 3.81034 -1.20079
v -1.79557 3.81034 -1.20079
v -1.73675 3.76483 -1.17429
v -1.80426 3.80794 -1.11759
v -1.78611 3.39050 -1.38828
v -1.80509 4.04099 -1.10987
v -1.80199 4.03230 -0.90611
v -1.81771 4.07771 -0.82687
v -1.80028 4.05995 -0.97872
v -1.79535 4.09130 -1.14250
v -1.80887 4.10779 -0.98690
v -1.80028 4.05995 -0.97872
v -1.85534 4.09736 -0.98092
v -1.84622 3.97593 -0.86689
v -1.81771 4.07771 -0.82687
v -1.80199 4.03230 -0.90611
v -1.81771 4.07771 -0.82687
v -1.85534 4.09736 -0.98092
v -1.80028 4.05995 -0.97872
v -1.80199 4.03230 -0.90611
v -1.80028 4.05995 -0.97872
v -1.87585 3.94526 -0.89384
v -1.81939 4.25255 -0.93911
v -1.84622 3.97593 -0.86689
v -1.88676 4.12270 -0.64758
v -1.07395 3.72462 -0.76524
v -1.24732 3.20697 -0.82407
v -1.07395 3.72462 -0.76524
v -1.37511 3.31982 -0.45829
v -1.36293 3.47343 -0.37044
v -1.21378 3.16645 -1.14225
v -1.25622 3.21385 -0.84297
v -1.28320 3.17597 -1.15425
v -1.25622 3.21385 -0.84297
v -1.24732 3.20697 -0.82407
v -1.31103 3.21966 -0.87668
v -1.31103 3.21966 -0.87668
v -1.28320 3.17597 -1.15425
v -1.31103 3.21966 -0.87668
v -1.32457 3.05342 -1.08397
v -1.37511 3.31982 -0.45829
v -1.41665 3.32916 -0.48615
v -1.24732 3.20697 -0.82407
v -1.29902 3.08520 -1.26078
v -1.31103 3.21966 -0.87668
v -1.37124 3.72130 -0.41303
v -1.36293 3.47343 -0.37044
v -1.30659 3.95424 -0.46411
v -1.38171 3.12155 -0.78951
v -1.39265 2.88787 -1.13825
v -1.41665 3.32916 -0.48615
v -1.43966 3.05781 -0.76439
v -1.41408 3.54577 -0.35194
v -1.56684 2.95095 -1.24397
v -1.29902 3.08520 -1.26078
v -1.38171 3.12155 -0.78951
v -1.41765 3.06256 -0.71139
v -1.43966 3.05781 -0.76439
v -1.41665 3.32916 -0.48615
v -1.37511 3.31982 -0.45829
v -1.41826 3.16378 -0.54854
v -1.46594 3.09340 -0.59136
v -1.45141 3.17214 -0.54784
v -1.41665 3.32916 -0.48615
v -1.41826 3.16378 -0.54854
v -1.48497 3.10434 -1.34116
v -1.45141 3.17214 -0.54784
v -1.41765 3.06256 -0.71139
v -1.46594 3.09340 -0.59136
v -1.49305 3.08442 -0.63780
v -1.49654 2.95482 -1.01992
v -1.43456 3.74214 -0.36804
v -1.46100 3.55263 -0.30590
v -1.41408 3.54577 -0.35194
v -1.51539 3.03573 -0.81510
v -1.37511 3.31982 -0.45829
v -1.56873 2.81071 -0.26787
v -1.41826 3.16378 -0.54854
v -1.45141 3.17214 -0.54784
v -1.41826 3.16378 -0.54854
v -1.49666 3.08690 -0.50478
v -1.49666 3.08690 -0.50478
v -1.55701 3.76125 -0.38299
v -1.43456 3.74214 -0.36804
v -1.47546 3.99198 -0.43262
v -1.56684 2.95095 -1.24397
v -1.46866 3.14520 -1.35533
v -1.48497 3.10434 -1.34116
v -1.55701 3.76125 -0.38299
v -1.47546 3.99198 -0.43262
v -1.49260 4.00125 -0.40905
v -1.57821 2.92545 -0.78653
v -1.51539 3.03573 -0.81510
v -1.49305 3.08442 -0.63780
v -1.56070 2.88058 -0.51104
v -1.63556 3.09688 -0.52587
v -1.49666 3.08690 -0.50478
v -1.62087 3.10967 -0.49758
v -1.56070 2.88058 -0.51104
v -1.49305 3.08442 -0.63780
v -1.46594 3.09340 -0.59136
v -1.57357 2.98955 -1.23504
v -1.57357 2.98955 -1.23504
v -1.72059 3.21367 -1.37639
v -1.46866 3.14520 -1.35533
v -1.69651 2.94197 -1.17468
v -1.55701 3.76125 -0.38299
v -1.49260 4.00125 -0.40905
v -1.75616 3.88585 -0.47986
v -1.70775 2.95742 -0.51014
v -1.49666 3.08690 -0.50478
v -1.63556 3.09688 -0.52587
v -1.72963 3.84932 -0.49415
v -1.63803 3.63453 -0.38464
v -1.55701 3.76125 -0.38299
v -1.62324 4.28939 -0.51820
v -1.63556 3.09688 -0.52587
v -1.62087 3.10967 -0.49758
v -1.70775 2.95742 -0.51014
v -1.55701 3.76125 -0.38299
v -1.75616 3.88585 -0.47986
v -1.72963 3.84932 -0.49415
v -1.63803 3.63453 -0.38464
v -1.91866 3.81892 -0.37669
v -1.55701 3.76125 -0.38299
v -1.69224 4.06936 -0.56726
v -1.68658 4.05160 -0.63254
v -1.75616 3.88585 -0.47986
v -1.62324 4.28939 -0.51820
v -1.68658 4.05160 -0.63254
v -1.69224 4.06936 -0.56726
v -1.82829 4.08915 -0.69793
v -1.73461 3.83348 -0.60546
v -1.73461 3.83348 -0.60546
v -1.55701 3.76125 -0.38299
v -1.91866 3.81892 -0.37669
v -1.90411 3.87765 -0.30211
v -1.78611 3.39050 -1.38828
v -1.83003 3.24070 -1.37755
v -1.80694 3.61991 -0.47064
v -1.68658 4.05160 -0.63254
v -1.82829 4.08915 -0.69793
v -1.73461 3.83348 -0.60546
v -1.73461 3.83348 -0.60546
v -1.80694 3.61991 -0.47064
v -1.72963 3.84932 -0.49415
v -1.92098 3.59757 -0.63017
v -1.81855 3.55113 -0.58447
v -1.88676 4.12270 -0.64758
v -1.80694 3.61991 -0.47064
v -1.87518 3.63226 -0.48746
v -1.63803 3.63453 -0.38464
v -1.81855 3.55113 -0.58447
v -1.81771 4.07771 -0.82687
v -1.83003 3.24070 -1.37755
v -1.83389 3.46008 -1.31039
v -1.78611 3.39050 -1.38828
v -1.84622 3.97593 -0.86689
v -1.87874 3.92929 -0.79854
v -1.81771 4.07771 -0.82687
v -1.82829 4.08915 -0.69793
v -1.80028 4.05995 -0.97872
v -1.80426 3.80794 -1.11759
v -2.01039 3.51087 -1.00408
v -1.81855 3.55113 -0.58447
v -1.94501 3.68300 -0.38187
v -1.98754 3.39037 -1.10025
v -1.73675 3.76483 -1.17429
v -1.92098 3.59757 -0.63017
v -1.84622 3.97593 -0.86689
v -1.87585 3.94526 -0.89384
v -1.92895 3.82131 -0.89421
v -1.89041 3.80259 -0.85705
v -1.89041 3.80259 -0.85705
v -2.01039 3.51087 -1.00408
v -1.88263 3.79486 -0.98435
v -1.80028 4.05995 -0.97872
v -1.94501 3.68300 -0.38187
v -1.89041 3.80259 -0.85705
v -1.92895 3.82131 -0.89421
v -1.84626 3.76129 -0.96081
v -1.84626 3.76129 -0.96081
v -1.88263 3.79486 -0.98435
v -1.98081 3.58795 -0.66193
v -1.80028 4.05995 -0.97872
v -1.92895 3.82131 -0.89421
v -1.87585 3.94526 -0.89384
v -1.98249 3.47136 -0.89663
v -1.84626 3.76129 -0.96081
v -1.90097 3.60185 -0.95399
v -1.88263 3.79486 -0.98435
v -1.90097 3.60185 -0.95399
v -1.92147 3.66315 -0.53589
v -1.94501 3.68300 -0.38187
v -1.98081 3.58795 -0.66193
v -1.99986 3.68232 -0.53784
v -1.92098 3.59757 -0.63017
v -1.98081 3.58795 -0.66193
v -1.90411 3.87765 -0.30211
v -1.91866 3.81892 -0.37669
v -1.94501 3.68300 -0.38187
v -2.02329 3.45781 -0.72431
v -1.97064 3.72711 -0.27169
v -1.90411 3.87765 -0.30211
v -1.97064 3.72711 -0.27169
v -1.93890 3.86343 -0.33631
v -2.01790 3.17639 -1.01135
v -1.97226 3.39747 -0.95441
v -1.93777 3.36414 -1.07278
v -2.03428 3.22956 -1.05461
v -2.02867 3.25715 -0.88115
v -2.01957 3.64683 -0.45283
v -2.02867 3.25715 -0.88115
v -1.90097 3.60185 -0.95399
v -1.94501 3.68300 -0.38187
v -2.01957 3.64683 -0.45283
v -2.01702 3.65268 -0.41443
v -1.99986 3.68232 -0.53784
v -1.90411 3.87765 -0.30211
v -1.93890 3.86343 -0.33631
v -2.06272 3.87572 -0.32392
v -2.03455 3.42388 -1.01035
v -1.93777 3.36414 -1.07278
v -1.97226 3.39747 -0.95441
v -1.97064 3.72711 -0.27169
v -2.01790 3.17639 -1.01135
v -1.93777 3.36414 -1.07278
v -1.98754 3.39037 -1.10025
v -1.98754 3.39037 -1.10025
v -2.01702 3.65268 -0.41443
v -2.03068 3.46942 -0.88209
v -2.02329 3.45781 -0.72431
v -1.98249 3.47136 -0.89663
v -2.03428 3.22956 -1.05461
v -2.02867 3.25715 -0.88115
v -2.09258 3.26897 -0.87332
v -1.98249 3.47136 -0.89663
v -1.97226 3.39747 -0.95441
v -2.03455 3.42388 -1.01035
v -2.03455 3.42388 -1.01035
v -2.06371 3.54829 -0.71350
v -1.98081 3.58795 -0.66193
v -2.02329 3.45781 -0.72431
v -2.16210 3.51792 -0.55452
v -1.93890 3.86343 -0.33631
v -2.01957 3.64683 -0.45283
v -2.03067 3.63521 -0.48414
v -2.02495 3.09102 -1.03433
v -1.97401 3.08223 -1.14722
v -1.97401 3.08223 -1.14722
v -2.01790 3.17639 -1.01135
v -2.06371 3.54829 -0.71350
v -2.09258 3.26897 -0.87332
v -2.02329 3.45781 -0.72431
v -2.03068 3.46942 -0.88209
v -2.03068 3.46942 -0.88209
v -2.06272 3.87572 -0.32392
v -2.16210 3.51792 -0.55452
v -2.11722 3.71048 -0.05866
v -1.90411 3.87765 -0.30211
v -2.06272 3.87572 -0.32392
v -2.09615 3.44899 -0.61867
v -2.06371 3.54829 -0.71350
v -2.08429 3.29311 -0.81798
v -2.08429 3.29311 -0.81798
v -2.09113 3.45583 -0.71969
v -2.02329 3.45781 -0.72431
v -2.06371 3.54829 -0.71350
v -2.02495 3.09102 -1.03433
v -2.08876 3.12119 -1.08224
v -2.02867 3.25715 -0.88115
v -2.09258 3.26897 -0.87332
v -2.02867 3.25715 -0.88115
v -2.08876 3.12119 -1.08224
v -2.09615 3.44899 -0.61867
v -2.16210 3.51792 -0.55452
v -2.03067 3.63521 -0.48414
v -2.09113 3.45583 -0.71969
v -2.11722 3.71048 -0.05866
v -2.06272 3.87572 -0.32392
v -2.18565 3.45811 -0.10208
v -2.11676 3.37791 -0.67818
v -2.08429 3.29311 -0.81798
v -2.09615 3.44899 -0.61867
v -2.12837 3.32884 -0.59853
v -2.21111 3.48468 -0.60039
v -2.12837 3.32884 -0.59853
v -2.12837 3.32884 -0.59853
v -2.11676 3.37791 -0.67818
v -2.23038 3.38016 -0.67486
v -2.21111 3.48468 -0.60039
v -2.16210 3.51792 -0.55452
v -2.32088 3.14465 -1.04655
v -2.08429 3.29311 -0.81798
v -2.16638 3.48203 -0.39297
v -2.18565 3.45811 -0.10208
v -2.16210 3.51792 -0.55452
v -2.16638 3.48203 -0.39297
v -2.16210 3.51792 -0.55452
v -2.23308 3.52841 -0.49022
v -2.16638 3.48203 -0.39297
v -2.24821 3.48827 -0.41606
v -2.17728 3.41846 -0.40449
v -2.23038 3.38016 -0.67486
v -2.11676 3.37791 -0.67818
v -2.17728 3.41846 -0.40449
v -2.19651 3.51877 0.03380
v -2.23048 3.35492 -0.62486
v -2.12837 3.32884 -0.59853
v -2.23048 3.35492 -0.62486
v -2.21111 3.48468 -0.60039
v -2.20478 3.26378 -0.32612
v -2.28099 3.32429 -0.36619
v -2.20478 3.26378 -0.32612
v -2.17728 3.41846 -0.40449
v -2.25576 3.42373 -0.42350
v -2.23308 3.52841 -0.49022
v -2.30664 3.39524 -0.25607
v -2.19651 3.51877 0.03380
v -2.18565 3.45811 -0.10208
v -2.20478 3.26378 -0.32612
v -2.25576 3.42373 -0.42350
v -2.26879 3.27983 -0.52481
v -2.23308 3.52841 -0.49022
v -2.21111 3.48468 -0.60039
v -2.25576 3.42373 -0.42350
v -2.24821 3.48827 -0.41606
v -2.29082 3.51528 -0.01612
v -2.28099 3.32429 -0.36619
v -2.23038 3.38016 -0.67486
v -2.29485 3.14732 -0.71228
v -2.26879 3.27983 -0.52481
v -2.23048 3.35492 -0.62486
v -2.23038 3.38016 -0.67486
v -2.26879 3.27983 -0.52481
v -2.23048 3.35492 -0.62486
v -2.24821 3.48827 -0.41606
v -2.28099 3.32429 -0.36619
v -2.32088 3.14465 -1.04655
v -2.28554 3.23256 -0.78282
v -2.29485 3.14732 -0.71228
v -2.30400 3.19674 -0.64647
v -2.26879 3.27983 -0.52481
v -2.30518 3.15588 -0.88129
v -2.29656 3.20117 -0.75460
v -2.30400 3.19674 -0.64647
v -2.30041 3.22504 -0.54165
v -2.28099 3.32429 -0.36619
v -2.33019 3.23467 -0.54348
v -2.30664 3.39524 -0.25607
v -2.30041 3.22504 -0.54165
v -2.30440 3.12919 -0.85057
v -2.32669 3.05903 -0.97513
v -2.31324 3.13683 -0.98187
v -2.28554 3.23256 -0.78282
v -2.30518 3.15588 -0.88129
v -2.36287 3.09849 -0.69440
v -2.29485 3.14732 -0.71228
v -2.35881 3.09519 -0.74418
v -2.36720 3.11751 -0.73535
v -2.30440 3.12919 -0.85057
v -2.29656 3.20117 -0.75460
v -2.32669 3.05903 -0.97513
v -2.30041 3.22504 -0.54165
v -2.31933 3.10699 -0.45231
v -2.33019 3.23467 -0.54348
v -2.29656 3.20117 -0.75460
v -2.28554 3.23256 -0.78282
v -2.39725 3.16728 -0.69485
v -2.34651 3.05487 -0.60049
v -2.30041 3.22504 -0.54165
v -2.36287 3.09849 -0.69440
v -2.39725 3.16728 -0.69485
v -2.36720 3.11751 -0.73535
v -2.29656 3.20117 -0.75460
v -2.35881 3.09519 -0.74418
v -2.37862 3.03642 -0.93339
v -2.36720 3.11751 -0.73535
v -2.36287 3.09849 -0.69440
v -2.39725 3.16728 -0.69485
v -2.34651 3.05487 -0.60049
v -2.46784 3.26830 -0.77419
v -2.47990 2.98885 -0.49062
v -2.28554 3.23256 -0.78282
v -2.48832 3.14818 -0.98664
v -2.46784 3.26830 -0.77419
v -1.72059 3.21367 -1.37639
v -1.92147 3.66315 -0.53589
v -1.99986 3.68232 -0.53784
v -2.03428 3.22956 -1.05461
v -2.03067 3.63521 -0.48414
v -1.99986 3.68232 -0.53784
v -1.12862 3.85295 -0.38577
v -1.13268 3.96184 -0.43142
v -1.16258 3.93535 -0.00416
v -1.12720 4.32450 0.14851
v -1.16070 3.98948 0.20595
v -1.13268 3.96184 -0.43142
v -1.17662 3.95318 -0.44684
v -1.15441 4.27423 -0.22053
v -1.16498 4.03735 -0.16223
v -1.16498 4.03735 -0.16223
v -1.46380 4.34543 -0.31393
v -1.30659 3.95424 -0.46411
v -1.36293 3.47343 -0.37044
v -1.17662 3.95318 -0.44684
v -1.31451 3.96934 -0.40806
v -1.30659 3.95424 -0.46411
v -1.16498 4.03735 -0.16223
v -1.30430 3.61303 -0.02613
v -1.37511 3.31982 -0.45829
v -1.27840 3.74353 -0.19531
v -1.32643 3.50842 0.10722
v -1.30430 3.61303 -0.02613
v -1.39171 3.76378 -0.20210
v -1.32643 3.50842 0.10722
v -1.35363 3.38822 0.14132
v -1.27840 3.74353 -0.19531
v -1.30659 3.95424 -0.46411
v -1.31451 3.96934 -0.40806
v -1.37124 3.72130 -0.41303
v -1.27840 3.74353 -0.19531
v -1.37511 3.31982 -0.45829
v -1.36293 3.47343 -0.37044
v -1.41408 3.54577 -0.35194
v -1.41408 3.54577 -0.35194
v -1.31451 3.96934 -0.40806
v -1.43456 3.74214 -0.36804
v -1.41408 3.54577 -0.35194
v -1.49421 4.04935 -0.22872
v -1.49260 4.00125 -0.40905
v -1.39171 3.76378 -0.20210
v -1.41408 3.54577 -0.35194
v -1.43692 3.63780 -0.25418
v -1.39171 3.76378 -0.20210
v -1.39171 3.76378 -0.20210
v -1.43692 3.63780 -0.25418
v -1.42231 3.78346 -0.25990
v -1.43456 3.74214 -0.36804
v -1.46100 3.55263 -0.30590
v -1.46100 3.55263 -0.30590
v -1.46273 4.37109 -0.48166
v -1.47546 3.99198 -0.43262
v -1.49421 4.04935 -0.22872
v -1.47546 3.99198 -0.43262
v -1.36543 3.43585 0.18801
v -1.49421 4.04935 -0.22872
v -1.49260 4.00125 -0.40905
v -1.55701 3.76125 -0.38299
v -1.42231 3.78346 -0.25990
v -1.43456 3.74214 -0.36804
v -1.90411 3.87765 -0.30211
v -1.90411 3.87765 -0.30211
v -1.42231 3.78346 -0.25990
v -2.16734 3.56410 0.16881
v -2.11722 3.71048 -0.05866
v -2.16734 3.56410 0.16881
v -2.11722 3.71048 -0.05866
v -2.19651 3.51877 0.03380
v -1.35363 3.38822 0.14132
v -1.32643 3.50842 0.10722
v -1.36543 3.43585 0.18801
v -1.41656 3.19740 0.25113
v -1.35363 3.38822 0.14132
v -1.53269 3.37189 0.13296
v -1.55132 2.83147 0.15542
v -1.37511 3.31982 -0.45829
v -1.45408 3.03613 0.26273
v -1.41656 3.19740 0.25113
v -1.51044 3.04867 0.32806
v -1.41656 3.19740 0.25113
v -1.49666 3.08690 -0.50478
v -1.41826 3.16378 -0.54854
v -1.56873 2.81071 -0.26787
v -1.62087 3.10967 -0.49758
v -1.71678 3.12269 0.33910
v -1.51044 3.04867 0.32806
v -1.53269 3.37189 0.13296
v -1.35363 3.38822 0.14132
v -2.18077 3.51570 0.13620
v -1.72220 3.01162 0.28849
v -1.71678 3.12269 0.33910
v -1.51044 3.04867 0.32806
v -1.36543 3.43585 0.18801
v -2.18077 3.51570 0.13620
v -1.35363 3.38822 0.14132
v -2.18077 3.51570 0.13620
v -2.16797 3.32923 0.26106
v -2.16734 3.56410 0.16881
v -2.15277 2.90484 0.06594
v -2.21126 3.18435 0.29808
v -2.27378 2.94917 0.09097
v -2.20781 3.24138 0.31430
v -2.29549 3.40013 0.24459
v -2.20781 3.24138 0.31430
v -2.20781 3.24138 0.31430
v -2.16797 3.32923 0.26106
v -2.17647 3.26477 0.17159
v -2.18077 3.51570 0.13620
v -2.16734 3.56410 0.16881
v -2.19651 3.51877 0.03380
v -2.19887 3.13102 0.00804
v -2.27378 2.94917 0.09097
v -2.24654 3.00518 -0.16890
v -2.28487 3.52259 0.14511
v -2.18077 3.51570 0.13620
v -2.19651 3.51877 0.03380
v -2.20781 3.24138 0.31430
v -2.27378 2.94917 0.09097
v -2.21126 3.18435 0.29808
v -2.29082 3.51528 -0.01612
v -2.37882 3.06596 -0.16196
v -2.24654 3.00518 -0.16890
v -2.19887 3.13102 0.00804
v -2.28487 3.52259 0.14511
v -2.29902 3.36122 0.26149
v -2.29902 3.36122 0.26149
v -2.16797 3.32923 0.26106
v -2.17647 3.26477 0.17159
v -2.28487 3.52259 0.14511
v -2.29082 3.51528 -0.01612
v -2.29902 3.36122 0.26149
v -2.37882 3.06596 -0.16196
v -2.29549 3.40013 0.24459
v -2.30664 3.39524 -0.25607
v -2.34690 2.95533 -0.50402
v -2.31759 2.95735 -0.31028
v -2.31933 3.10699 -0.45231
v -2.31759 2.95735 -0.31028
v -2.38824 2.98103 -0.31815
v -2.31933 3.10699 -0.45231
v -2.30041 3.22504 -0.54165
v -2.34651 3.05487 -0.60049
v -2.33019 3.23467 -0.54348
v -2.33019 3.23467 -0.54348
v -2.38824 2.98103 -0.31815
v -2.38824 2.98103 -0.31815
v -2.34651 3.05487 -0.60049
v -2.47990 2.98885 -0.49062
v -2.39725 3.16728 -0.69485
v -2.47990 2.98885 -0.49062
v -2.46784 3.26830 -0.77419
v -2.49957 2.89472 -0.45414
v -2.51568 2.93022 -0.78690
v -1.35363 3.38822 0.14132
vt 0.88257 0.28183
vt 0.89422 0.27969
vt 0.88358 0.29907
vt 0.89454 0.28771
vt 0.88916 0.30037
vt 0.89401 0.28344
vt 0.03916 0.00839
vt 0.03987 0.00415
vt 0.21169 0.97914
vt 0.21897 0.97271
vt 0.21969 0.97900
vt 0.04261 0.00479
vt 0.73655 0.00779
vt 0.72919 0.00308
vt 0.22230 0.96395
vt 0.23342 0.97992
vt 0.72893 0.00785
vt 0.57507 0.65174
vt 0.57735 0.66220
vt 0.57041 0.65564
vt 0.00023 0.26037
vt 0.00722 0.26037
vt 0.00523 0.26422
vt 0.59563 0.66863
vt 0.06840 0.99235
vt 0.07508 0.98715
vt 0.07288 0.98966
vt 0.59372 0.66963
vt 0.07537 0.99283
vt 0.06819 0.99447
vt 0.07344 0.99099
vt 0.17971 0.98976
vt 0.17448 0.99033
vt 0.17503 0.98407
vt 0.97707 0.23479
vt 0.96182 0.23479
vt 0.97104 0.22820
vt 0.97835 0.91355
vt 0.98209 0.91117
vt 0.99036 0.91338
vt 0.99344 0.85726
vt 0.99342 0.86295
vt 0.99166 0.86326
vt 0.17926 0.97887
vt 0.98125 0.90911
vt 0.34130 0.01592
vt 0.34275 0.01600
vt 0.34730 0.01862
vt 0.07689 0.96190
vt 0.07689 0.97203
vt 0.07561 0.96358
vt 0.36625 0.99409
vt 0.36756 0.99229
vt 0.36798 0.99529
vt 0.99226 0.85210
vt 0.35004 0.01730
vt 0.08142 0.35187
vt 0.08265 0.34185
vt 0.07583 0.35297
vt 0.07149 0.34245
vt 0.34164 0.02485
vt 0.35164 0.02515
vt 0.97352 0.45068
vt 0.97843 0.46736
vt 0.96642 0.46402
vt 0.96955 0.45451
vt 0.27331 0.56277
vt 0.25855 0.54353
vt 0.88074 0.33660
vt 0.84390 0.31268
vt 0.72871 0.31396
vt 0.70970 0.30410
vt 0.32331 0.64873
vt 0.31800 0.60352
vt 0.18622 0.71802
vt 0.19213 0.71587
vt 0.18901 0.75603
vt 0.68444 0.53529
vt 0.22793 0.35758
vt 0.24120 0.31499
vt 0.24103 0.35527
vt 0.22266 0.35552
vt 0.22313 0.33593
vt 0.16285 0.90861
vt 0.35838 0.15476
vt 0.38381 0.13833
vt 0.38688 0.15476
vt 0.94268 0.54065
vt 0.94268 0.56019
vt 0.93909 0.54073
vt 0.71205 0.31252
vt 0.20818 0.58204
vt 0.20672 0.58135
vt 0.20858 0.53818
vt 0.31804 0.63913
vt 0.66363 0.54097
vt 0.66078 0.53967
vt 0.65473 0.55493
vt 0.20048 0.90220
vt 0.88704 0.31506
vt 0.26181 0.51561
vt 0.23256 0.54747
vt 0.31816 0.64960
vt 0.35530 0.15422
vt 0.35721 0.13841
vt 0.63657 0.55825
vt 0.21980 0.33619
vt 0.71046 0.31062
vt 0.23304 0.56168
vt 0.32603 0.68788
vt 0.31015 0.68671
vt 0.31015 0.65619
vt 0.91458 0.00116
vt 0.91787 0.00174
vt 0.91427 0.00526
vt 0.91831 0.00530
vt 0.02728 0.24313
vt 0.03131 0.24399
vt 0.03131 0.26443
vt 0.25931 0.07345
vt 0.25888 0.07101
vt 0.28508 0.07217
vt 0.36130 0.13943
vt 0.64643 0.56132
vt 0.68803 0.30162
vt 0.28140 0.07012
vt 0.70843 0.30026
vt 0.23317 0.51522
vt 0.32505 0.65687
vt 0.22522 0.31306
vt 0.32757 0.71363
vt 0.35145 0.69952
vt 0.32483 0.65348
vt 0.34426 0.65621
vt 0.34675 0.71073
vt 0.34592 0.68112
vt 0.28171 0.78317
vt 0.29133 0.81772
vt 0.69121 0.31303
vt 0.30023 0.78753
vt 0.02387 0.26583
vt 0.68064 0.30389
vt 0.29969 0.77852
vt 0.28400 0.76914
vt 0.30008 0.76971
vt 0.97381 0.55743
vt 0.98596 0.55743
vt 0.97707 0.56279
vt 0.92550 0.57064
vt 0.92523 0.56162
vt 0.92776 0.56219
vt 0.76681 0.26304
vt 0.92749 0.57140
vt 0.92818 0.58263
vt 0.03226 0.26855
vt 0.78588 0.25635
vt 0.68398 0.30040
vt 0.68596 0.31647
vt 0.92921 0.56144
vt 0.68157 0.29944
vt 0.82365 0.98830
vt 0.83110 0.99372
vt 0.82828 0.99729
vt 0.78887 0.28604
vt 0.68510 0.32986
vt 0.67964 0.33080
vt 0.22453 0.70251
vt 0.22344 0.71284
vt 0.21052 0.70813
vt 0.21116 0.70148
vt 0.72489 0.10764
vt 0.35285 0.66709
vt 0.71955 0.10833
vt 0.35304 0.68412
vt 0.96431 0.83127
vt 0.96457 0.83680
vt 0.95791 0.83739
vt 0.72605 0.11554
vt 0.93348 0.81640
vt 0.93487 0.82426
vt 0.93395 0.83636
vt 0.21496 0.72019
vt 0.22294 0.72819
vt 0.22294 0.72819
vt 0.41076 0.99102
vt 0.40582 0.99690
vt 0.40544 0.98720
vt 0.20737 0.71753
vt 0.62845 0.18961
vt 0.65533 0.18792
vt 0.66564 0.18974
vt 0.40972 0.99645
vt 0.69908 0.63264
vt 0.79627 0.29231
vt 0.70685 0.63534
vt 0.95021 0.83171
vt 0.94800 0.83706
vt 0.66353 0.18532
vt 0.93135 0.30052
vt 0.92129 0.31207
vt 0.91565 0.30558
vt 0.21719 0.74154
vt 0.21719 0.74154
vt 0.04955 0.00829
vt 0.04528 0.00477
vt 0.04960 0.00152
vt 0.71243 0.62692
vt 0.71608 0.62935
vt 0.57908 0.00891
vt 0.57690 0.00580
vt 0.57903 0.00401
vt 0.71241 0.62350
vt 0.72371 0.62594
vt 0.92775 0.32132
vt 0.92658 0.29666
vt 0.20809 0.00106
vt 0.21150 0.00575
vt 0.20430 0.00589
vt 0.22482 0.74512
vt 0.04697 0.00065
vt 0.99448 0.19744
vt 0.99161 0.20360
vt 0.99198 0.19232
vt 0.79183 0.29187
vt 0.95462 0.58361
vt 0.95822 0.58330
vt 0.95514 0.58710
vt 0.98964 0.64636
vt 0.99794 0.64636
vt 0.99317 0.65121
vt 0.01000 0.44569
vt 0.01484 0.45636
vt 0.01000 0.45698
vt 0.79230 0.01646
vt 0.78864 0.02083
vt 0.78842 0.00898
vt 0.94342 0.58417
vt 0.79180 0.01049
vt 0.01389 0.43174
vt 0.17679 0.93486
vt 0.46786 0.27119
vt 0.44335 0.23745
vt 0.48710 0.24733
vt 0.48498 0.23403
vt 0.65074 0.93252
vt 0.65074 0.95576
vt 0.64534 0.93247
vt 0.04075 0.00141
vt 0.03931 0.00058
vt 0.04564 0.00099
vt 0.64620 0.95390
vt 0.41866 0.39942
vt 0.43980 0.40300
vt 0.42098 0.41036
vt 0.11101 0.16446
vt 0.11476 0.16536
vt 0.10953 0.19508
vt 0.40888 0.40376
vt 0.11551 0.19719
vt 0.89025 0.62305
vt 0.89357 0.60423
vt 0.89263 0.64167
vt 0.44414 0.41346
vt 0.41354 0.42246
vt 0.47140 0.40688
vt 0.44485 0.42024
vt 0.88834 0.60869
vt 0.94517 0.21660
vt 0.92915 0.23281
vt 0.63964 0.32563
vt 0.64660 0.32941
vt 0.64284 0.33165
vt 0.83028 0.01130
vt 0.82928 0.00757
vt 0.84335 0.00821
vt 0.45829 0.42193
vt 0.38174 0.02306
vt 0.38401 0.01018
vt 0.38428 0.02360
vt 0.94456 0.23172
vt 0.46328 0.41713
vt 0.44834 0.42017
vt 0.65650 0.33142
vt 0.65331 0.33407
vt 0.62315 0.33995
vt 0.96517 0.73271
vt 0.94989 0.73271
vt 0.95094 0.72780
vt 0.63984 0.33811
vt 0.79948 0.31128
vt 0.79948 0.26745
vt 0.81006 0.30199
vt 0.09313 0.99921
vt 0.09259 0.99667
vt 0.10115 0.99936
vt 0.46455 0.42506
vt 0.01762 0.03776
vt 0.02529 0.04333
vt 0.00899 0.05464
vt 0.92030 0.77318
vt 0.91791 0.75477
vt 0.91898 0.75811
vt 0.65296 0.03883
vt 0.67193 0.03883
vt 0.67180 0.04115
vt 0.08472 0.31089
vt 0.09458 0.31159
vt 0.09458 0.32566
vt 0.45932 0.44062
vt 0.93554 0.99268
vt 0.94623 0.99268
vt 0.93689 0.99491
vt 0.94516 0.07374
vt 0.94516 0.09268
vt 0.94108 0.09200
vt 0.91763 0.77170
vt 0.01848 0.36744
vt 0.00899 0.34647
vt 0.02770 0.35324
vt 0.00856 0.37223
vt 0.14818 0.79957
vt 0.15404 0.78152
vt 0.16748 0.79957
vt 0.33426 0.04772
vt 0.33426 0.06654
vt 0.32794 0.05791
vt 0.30928 0.03089
vt 0.29333 0.04227
vt 0.29231 0.03089
vt 0.17572 0.76824
vt 0.50476 0.98641
vt 0.50326 0.98428
vt 0.51661 0.98459
vt 0.91539 0.86837
vt 0.89618 0.87028
vt 0.89844 0.86748
vt 0.07528 0.18671
vt 0.05215 0.17593
vt 0.07997 0.17630
vt 0.59703 0.17820
vt 0.59793 0.17313
vt 0.61212 0.18405
vt 0.57974 0.18286
vt 0.26319 0.02975
vt 0.26186 0.02477
vt 0.27538 0.02972
vt 0.61499 0.17399
vt 0.89435 0.85997
vt 0.82831 0.10514
vt 0.85477 0.09655
vt 0.85674 0.10357
vt 0.98308 0.86519
vt 0.97354 0.85811
vt 0.30606 0.04909
vt 0.64747 0.22627
vt 0.64747 0.21407
vt 0.66449 0.22776
vt 0.70972 0.94101
vt 0.72744 0.95020
vt 0.70898 0.94953
vt 0.68553 0.21869
vt 0.73215 0.94122
vt 0.27833 0.02405
vt 0.76706 0.21871
vt 0.76651 0.21250
vt 0.77361 0.23627
vt 0.75406 0.21499
vt 0.27863 0.03904
vt 0.73159 0.45985
vt 0.71455 0.46350
vt 0.72011 0.45678
vt 0.59516 0.43465
vt 0.59769 0.44092
vt 0.58661 0.43540
vt 0.58333 0.44471
vt 0.66533 0.48236
vt 0.68554 0.47404
vt 0.70932 0.49026
vt 0.68692 0.22781
vt 0.05167 0.18644
vt 0.71902 0.48347
vt 0.68840 0.46716
vt 0.75272 0.20520
vt 0.61158 0.96346
vt 0.61392 0.96649
vt 0.61392 0.97674
vt 0.60812 0.43881
vt 0.60962 0.97693
vt 0.26206 0.75807
vt 0.26510 0.78158
vt 0.26510 0.80266
vt 0.77535 0.21500
vt 0.00991 0.47674
vt 0.00566 0.47599
vt 0.00964 0.46762
vt 0.26895 0.77999
vt 0.00549 0.46804
vt 0.62079 0.45842
vt 0.92161 0.92087
vt 0.92895 0.90059
vt 0.92864 0.91083
vt 0.63406 0.44302
vt 0.61247 0.43080
vt 0.62462 0.43488
vt 0.92103 0.89979
vt 0.26901 0.76718
vt 0.76576 0.20561
vt 0.77489 0.20041
vt 0.68735 0.21382
vt 0.88808 0.04744
vt 0.87868 0.05305
vt 0.87633 0.04805
vt 0.46996 0.98154
vt 0.47318 0.97499
vt 0.48334 0.97226
vt 0.63209 0.45673
vt 0.48268 0.98146
vt 0.88778 0.47496
vt 0.89519 0.46463
vt 0.89155 0.47576
vt 0.22303 0.63643
vt 0.20835 0.64630
vt 0.20684 0.63672
vt 0.73104 0.48888
vt 0.65015 0.44746
vt 0.91004 0.46907
vt 0.22102 0.64792
vt 0.19279 0.65159
vt 0.49413 0.19286
vt 0.49705 0.18465
vt 0.49727 0.18813
vt 0.48853 0.18018
vt 0.02099 0.98708
vt 0.02395 0.98460
vt 0.03316 0.98694
vt 0.42740 0.99453
vt 0.41945 0.98871
vt 0.42913 0.98809
vt 0.49624 0.20263
vt 0.06086 0.02809
vt 0.04470 0.02912
vt 0.04347 0.02453
vt 0.41936 0.99347
vt 0.90761 0.46739
vt 0.00887 0.95588
vt 0.00576 0.96750
vt 0.00553 0.95401
vt 0.05665 0.02478
vt 0.95968 0.87333
vt 0.96011 0.87828
vt 0.94301 0.87416
vt 0.26869 0.75074
vt 0.26204 0.75120
vt 0.71615 0.49106
vt 0.98527 0.50618
vt 0.97914 0.50104
vt 0.99056 0.50077
vt 0.54652 0.15969
vt 0.58115 0.16689
vt 0.56149 0.16667
vt 0.49702 0.18177
vt 0.22847 0.63246
vt 0.22519 0.62362
vt 0.98489 0.86463
vt 0.97438 0.85700
vt 0.21151 0.21001
vt 0.96030 0.50230
vt 0.96713 0.52005
vt 0.95538 0.51747
vt 0.94417 0.87781
vt 0.57965 0.15751
vt 0.50800 0.16945
vt 0.07444 0.68487
vt 0.04677 0.68487
vt 0.05279 0.67430
vt 0.20788 0.20018
vt 0.87198 0.04193
vt 0.96384 0.50529
vt 0.92935 0.63540
vt 0.92926 0.64985
vt 0.92410 0.64957
vt 0.92665 0.65671
vt 0.93541 0.40836
vt 0.93620 0.41479
vt 0.91825 0.40859
vt 0.13626 0.24227
vt 0.13129 0.24204
vt 0.13295 0.22311
vt 0.08370 0.03899
vt 0.09218 0.03693
vt 0.09804 0.05010
vt 0.20440 0.20723
vt 0.39995 0.22133
vt 0.39995 0.19723
vt 0.41837 0.22944
vt 0.20117 0.20142
vt 0.19092 0.20978
vt 0.23781 0.99600
vt 0.23007 0.99038
vt 0.24335 0.98860
vt 0.20045 0.19386
vt 0.24249 0.99704
vt 0.24435 0.99013
vt 0.25230 0.99350
vt 0.08960 0.03187
vt 0.43314 0.19803
vt 0.15087 0.22357
vt 0.13646 0.24689
vt 0.03659 0.59932
vt 0.04007 0.57738
vt 0.03641 0.61189
vt 0.91226 0.97866
vt 0.92480 0.97966
vt 0.91964 0.98485
vt 0.00496 0.46753
vt 0.00496 0.47400
vt 0.00003 0.46820
vt 0.14946 0.25767
vt 0.14089 0.25875
vt 0.03163 0.59896
vt 0.40909 0.23595
vt 0.25073 0.99745
vt 0.76989 0.01579
vt 0.76166 0.01521
vt 0.76183 0.00508
vt 0.02153 0.59025
vt 0.02501 0.00558
vt 0.02960 0.01213
vt 0.01626 0.01230
vt 0.00001 0.47435
vt 0.09862 0.03345
vt 0.46283 0.16626
vt 0.43874 0.15833
vt 0.45003 0.15730
vt 0.47259 0.15664
vt 0.01610 0.00616
vt 0.60892 0.37046
vt 0.59452 0.35767
vt 0.60305 0.35434
vt 0.59593 0.36715
vt 0.91313 0.98508
vt 0.44242 0.16556
vt 0.47283 0.16463
vt 0.48138 0.22325
vt 0.46863 0.20975
vt 0.48617 0.21008
vt 0.61092 0.36072
vt 0.19454 0.98287
vt 0.18052 0.98287
vt 0.19041 0.98186
vt 0.59228 0.36378
vt 0.59762 0.37591
vt 0.44726 0.22393
vt 0.46777 0.21822
vt 0.16560 0.02466
vt 0.17167 0.02303
vt 0.18314 0.02402
vt 0.45819 0.21759
vt 0.46806 0.21492
vt 0.62042 0.37034
vt 0.61282 0.37354
vt 0.01528 0.54091
vt 0.01258 0.55622
vt 0.01254 0.53115
vt 0.01496 0.55629
vt 0.45896 0.21414
vt 0.44798 0.21455
vt 0.96148 0.80403
vt 0.96148 0.78712
vt 0.96351 0.79650
vt 0.62853 0.37515
vt 0.62656 0.36896
vt 0.63178 0.37318
vt 0.66407 0.98680
vt 0.66097 0.99631
vt 0.65585 0.98875
vt 0.64717 0.36399
vt 0.97320 0.73782
vt 0.98436 0.73979
vt 0.97242 0.74007
vt 0.09632 0.65492
vt 0.09961 0.65538
vt 0.08878 0.66029
vt 0.97243 0.94173
vt 0.97243 0.92762
vt 0.98038 0.94127
vt 0.00152 0.75283
vt 0.00663 0.75117
vt 0.00792 0.75951
vt 0.62018 0.06963
vt 0.63516 0.07174
vt 0.61890 0.07107
vt 0.61654 0.06856
vt 0.61437 0.07399
vt 0.61124 0.06262
vt 0.09575 0.66897
vt 0.06731 0.65867
vt 0.88976 0.43835
vt 0.91252 0.43835
vt 0.89792 0.44988
vt 0.96873 0.86519
vt 0.88778 0.05395
vt 0.76766 0.19791
vt 0.97758 0.85271
vt 0.22614 0.20027
vt 0.22836 0.20697
vt 0.65397 0.45785
vt 0.66135 0.45741
vt 0.64810 0.43403
vt 0.66570 0.41453
vt 0.64524 0.42074
vt 0.65594 0.08743
vt 0.65394 0.08525
vt 0.67313 0.43672
vt 0.65821 0.44006
vt 0.26907 0.85171
vt 0.24838 0.87132
vt 0.70518 0.15151
vt 0.67477 0.14615
vt 0.70725 0.14357
vt 0.64501 0.08388
vt 0.64703 0.08081
vt 0.64653 0.10233
vt 0.16050 0.46358
vt 0.15595 0.49627
vt 0.14719 0.46569
vt 0.58022 0.33879
vt 0.57989 0.34949
vt 0.57213 0.36292
vt 0.17109 0.46200
vt 0.17820 0.46569
vt 0.57936 0.36296
vt 0.03295 0.22702
vt 0.03660 0.22670
vt 0.03415 0.24245
vt 0.31670 0.14146
vt 0.28489 0.14085
vt 0.29594 0.13964
vt 0.29978 0.13548
vt 0.03642 0.25418
vt 0.32153 0.09589
vt 0.30849 0.10565
vt 0.29611 0.10630
vt 0.62950 0.08997
vt 0.63459 0.07945
vt 0.31636 0.13425
vt 0.38940 0.03960
vt 0.38623 0.03168
vt 0.38856 0.02299
vt 0.05563 0.02374
vt 0.04663 0.02374
vt 0.05479 0.01955
vt 0.04952 0.01451
vt 0.38556 0.03807
vt 0.04025 0.02304
vt 0.57109 0.32482
vt 0.63624 0.07849
vt 0.24802 0.85193
vt 0.32486 0.10563
vt 0.57890 0.33169
vt 0.54655 0.31717
vt 0.54775 0.32880
vt 0.80041 0.12295
vt 0.79208 0.13090
vt 0.79262 0.12363
vt 0.82292 0.12964
vt 0.53892 0.36701
vt 0.56977 0.36649
vt 0.52807 0.32947
vt 0.52856 0.34669
vt 0.94422 0.63950
vt 0.95816 0.64962
vt 0.94397 0.64860
vt 0.99681 0.54636
vt 0.98779 0.54636
vt 0.99471 0.54207
vt 0.39269 0.74585
vt 0.37675 0.74839
vt 0.37895 0.73589
vt 0.86097 0.38139
vt 0.80633 0.39645
vt 0.85221 0.36603
vt 0.84390 0.35780
vt 0.85679 0.36193
vt 0.84210 0.36014
vt 0.34155 0.16529
vt 0.34910 0.16881
vt 0.31558 0.16840
vt 0.33967 0.15657
vt 0.40314 0.72572
vt 0.40534 0.74104
vt 0.30492 0.72241
vt 0.30164 0.73467
vt 0.30250 0.67566
vt 0.32304 0.33059
vt 0.32445 0.32209
vt 0.30909 0.32403
vt 0.30175 0.79145
vt 0.30680 0.73378
vt 0.30633 0.79280
vt 0.37657 0.68914
vt 0.39215 0.69204
vt 0.30259 0.73417
vt 0.35060 0.35216
vt 0.35951 0.32779
vt 0.35967 0.35032
vt 0.36034 0.32368
vt 0.38857 0.68233
vt 0.39971 0.69022
vt 0.40243 0.83145
vt 0.41020 0.83134
vt 0.40952 0.83911
vt 0.98701 0.38861
vt 0.99047 0.39103
vt 0.98022 0.39132
vt 0.40722 0.85391
vt 0.39228 0.85576
vt 0.40523 0.86946
vt 0.98463 0.81622
vt 0.99202 0.81635
vt 0.99138 0.82363
vt 0.13834 0.06328
vt 0.16469 0.06328
vt 0.14221 0.06488
vt 0.98498 0.82760
vt 0.65615 0.84978
vt 0.65976 0.85728
vt 0.64243 0.85925
vt 0.37743 0.68181
vt 0.39156 0.68255
vt 0.61604 0.85446
vt 0.61735 0.86268
vt 0.62596 0.86183
vt 0.29275 0.53145
vt 0.29757 0.54177
vt 0.27882 0.52951
vt 0.27390 0.56602
vt 0.28181 0.52928
vt 0.29800 0.56072
vt 0.24431 0.92983
vt 0.25319 0.94042
vt 0.23866 0.93981
vt 0.61762 0.06786
vt 0.61915 0.06280
vt 0.63217 0.06753
vt 0.22818 0.94075
vt 0.23455 0.92930
vt 0.29744 0.58398
vt 0.64318 0.06621
vt 0.66987 0.84776
vt 0.27378 0.57857
vt 0.39520 0.08748
vt 0.40407 0.09705
vt 0.39977 0.07752
vt 0.18501 0.16762
vt 0.21308 0.16860
vt 0.17838 0.17055
vt 0.19632 0.18591
vt 0.82602 0.35870
vn 0.0850 -0.5920 -0.8015
vn -0.0081 -0.5511 -0.8344
vn -0.0393 -0.5268 -0.8491
vn 0.0705 -0.6099 -0.7893
vn -0.1066 -0.4692 -0.8766
vn -0.0838 -0.5345 -0.8410
vn 0.2844 0.5678 0.7724
vn 0.3072 0.6436 0.7010
vn -0.9329 -0.2154 -0.2884
vn -0.9391 -0.2278 -0.2572
vn -0.9176 -0.0914 -0.3868
vn 0.3651 0.6129 0.7008
vn 0.9753 0.0843 -0.2040
vn 0.9922 0.0364 -0.1189
vn -0.8749 0.0262 -0.4837
vn -0.8433 0.0867 -0.5304
vn 0.9920 0.0363 -0.1213
vn -0.0332 0.8476 -0.5296
vn 0.0171 0.8562 -0.5164
vn -0.0151 0.8455 -0.5337
vn 0.3673 0.9254 0.0937
vn 0.3673 0.9254 0.0937
vn 0.3673 0.9254 0.0937
vn 0.0298 0.8838 -0.4670
vn -0.9874 -0.1209 0.1020
vn -0.9838 0.1221 0.1310
vn -0.9940 0.0039 0.1091
vn 0.0442 0.9422 -0.3321
vn -0.9811 0.1690 0.0945
vn -0.9832 0.1618 0.0847
vn -0.9859 0.1661 0.0216
vn 0.7247 -0.6799 0.1121
vn 0.7764 -0.6302 0.0101
vn 0.6771 -0.7110 0.1896
vn 0.0700 0.8952 -0.4402
vn 0.0700 0.8952 -0.4402
vn 0.0700 0.8952 -0.4402
vn -0.9242 0.2850 -0.2544
vn -0.9238 0.2869 -0.2535
vn -0.8887 0.4176 -0.1890
vn -0.1964 0.7019 0.6846
vn -0.4934 0.5767 0.6511
vn -0.4397 0.6058 0.6631
vn 0.6234 -0.7356 0.2652
vn -0.9382 0.1035 -0.3302
vn -0.0560 -0.4043 -0.9129
vn -0.2105 -0.3105 -0.9270
vn -0.0958 -0.4851 -0.8692
vn 0.6680 0.6880 -0.2836
vn 0.6680 0.6880 -0.2836
vn 0.6680 0.6880 -0.2836
vn 0.8497 0.0704 -0.5225
vn 0.8497 0.0704 -0.5225
vn 0.8497 0.0704 -0.5225
vn -0.1629 0.7111 0.6840
vn -0.1540 -0.6865 -0.7106
vn -0.9711 0.2350 -0.0410
vn -0.9760 0.2107 0.0554
vn -0.9730 0.2133 0.0885
vn -0.9703 0.2032 0.1314
vn -0.0683 -0.4829 -0.8730
vn -0.1013 -0.7352 -0.6702
vn -0.9859 0.1622 0.0420
vn -0.9901 0.1395 0.0166
vn -0.9886 0.1484 0.0265
vn -0.9704 0.2178 0.1047
vn 0.0935 -0.5419 -0.8352
vn 0.1118 -0.3943 -0.9122
vn 0.9252 -0.3438 0.1606
vn 0.9438 -0.3270 0.0484
vn -0.2336 -0.9389 0.2527
vn -0.1955 -0.9540 0.2274
vn 0.1875 -0.1350 -0.9730
vn 0.2288 -0.0885 -0.9694
vn 0.9189 -0.3421 0.1964
vn 0.9035 -0.3332 0.2695
vn 0.9231 -0.3447 0.1702
vn 0.9387 -0.3007 0.1684
vn -0.0287 -0.9811 0.1915
vn -0.0210 -0.9607 0.2769
vn -0.0511 -0.9400 0.3373
vn -0.0171 -0.9992 0.0369
vn -0.0263 -0.9796 0.1994
vn 0.8369 -0.2826 0.4688
vn 0.4730 0.3346 -0.8151
vn 0.3502 -0.1083 -0.9304
vn 0.3475 -0.1091 -0.9313
vn -0.0010 0.0894 0.9960
vn -0.0010 0.0894 0.9960
vn -0.0010 0.0894 0.9960
vn -0.2129 -0.9564 0.1997
vn 0.6988 -0.5004 -0.5112
vn 0.6988 -0.5004 -0.5112
vn 0.6988 -0.5004 -0.5112
vn 0.2709 -0.1189 -0.9552
vn 0.9441 -0.2832 0.1687
vn 0.9426 -0.2748 0.1896
vn 0.9426 -0.3010 0.1448
vn 0.8505 -0.2572 0.4589
vn 0.9194 -0.3469 0.1853
vn 0.0264 -0.2852 -0.9581
vn 0.0279 -0.3415 -0.9395
vn 0.1493 -0.1447 -0.9782
vn 0.4745 0.7220 -0.5035
vn 0.5274 0.3645 -0.7675
vn 0.9450 -0.3008 0.1282
vn -0.0725 -0.9255 0.3716
vn -0.2718 -0.9411 0.2010
vn 0.0690 -0.4418 -0.8944
vn 0.0978 -0.0634 -0.9932
vn 0.2812 -0.1849 -0.9417
vn 0.3850 -0.1976 -0.9015
vn -0.9986 -0.0394 -0.0364
vn -0.9995 0.0308 0.0080
vn -0.9993 0.0349 0.0107
vn -0.9932 0.1031 0.0539
vn -0.1837 0.2374 0.9539
vn -0.1698 0.2736 0.9467
vn -0.3772 0.1665 0.9110
vn 0.8928 -0.2219 -0.3919
vn 0.8981 -0.2244 -0.3783
vn 0.9486 -0.2526 -0.1906
vn 0.4489 0.0902 -0.8890
vn 0.9493 -0.2944 0.1099
vn -0.2783 -0.9486 0.1505
vn 0.9548 -0.2574 -0.1489
vn -0.1758 -0.9586 0.2238
vn 0.0339 -0.2922 -0.9557
vn 0.2859 -0.2091 -0.9352
vn -0.0134 -0.9681 0.2502
vn 0.0143 -0.1214 -0.9925
vn 0.0167 -0.1225 -0.9923
vn 0.3226 -0.4225 -0.8470
vn 0.0752 -0.0031 -0.9972
vn 0.0888 -0.4246 -0.9010
vn 0.0481 0.0131 -0.9988
vn -0.9734 -0.0134 -0.2286
vn -0.9897 0.0219 -0.1417
vn -0.2015 -0.9701 0.1352
vn -0.9738 0.0818 -0.2121
vn -0.3211 0.1378 0.9370
vn -0.3336 -0.9401 0.0700
vn -0.9674 0.0001 -0.2533
vn -0.9582 -0.1260 -0.2570
vn -0.9617 -0.1644 -0.2195
vn -0.3037 -0.0835 -0.9491
vn -0.3037 -0.0835 -0.9491
vn -0.3037 -0.0835 -0.9491
vn 0.2713 -0.1876 -0.9440
vn 0.6000 -0.2240 -0.7680
vn 0.5662 -0.2048 -0.7985
vn -0.8516 0.0294 -0.5234
vn -0.0453 -0.2756 -0.9602
vn -0.0627 -0.3397 -0.9384
vn -0.5320 0.2057 0.8214
vn -0.9047 0.0266 -0.4251
vn -0.3753 -0.9268 -0.0133
vn -0.2515 -0.9647 0.0787
vn -0.2882 -0.2783 -0.9162
vn -0.4009 -0.9137 -0.0667
vn -0.8425 0.2028 -0.4990
vn -0.8425 0.2028 -0.4990
vn -0.8425 0.2028 -0.4990
vn -0.9369 0.0022 -0.3496
vn -0.2498 -0.9633 0.0986
vn -0.2560 -0.9622 0.0931
vn -0.9251 0.1396 -0.3531
vn -0.8292 0.2995 -0.4719
vn -0.9021 0.2820 -0.3266
vn -0.9246 0.1547 -0.3482
vn -0.8669 0.4833 0.1223
vn 0.1979 0.0155 -0.9801
vn -0.8695 0.4840 0.0980
vn 0.1261 -0.0142 -0.9919
vn 0.0766 -0.1631 -0.9836
vn 0.0918 -0.1555 -0.9836
vn 0.0890 -0.1986 -0.9760
vn -0.8212 0.5562 0.1278
vn -0.3835 -0.1207 0.9156
vn -0.3835 -0.1207 0.9156
vn -0.3835 -0.1207 0.9156
vn -0.8695 0.3637 -0.3341
vn -0.7248 0.3016 -0.6195
vn -0.6970 0.2666 -0.6657
vn -0.4754 0.8409 -0.2588
vn -0.4567 0.8328 -0.3128
vn -0.4925 0.8461 -0.2039
vn -0.9425 0.3333 -0.0229
vn -0.7557 -0.6420 -0.1297
vn -0.7243 -0.6825 -0.0977
vn -0.5266 -0.8473 0.0686
vn -0.4158 0.8093 -0.4149
vn -0.7833 0.2147 -0.5834
vn -0.9393 -0.0349 -0.3413
vn -0.8575 0.2719 -0.4367
vn 0.1344 -0.2722 -0.9528
vn 0.1715 -0.3209 -0.9315
vn -0.4779 -0.8723 0.1033
vn -0.9479 0.2647 -0.1774
vn -0.9223 0.2696 -0.2769
vn -0.9602 0.2711 -0.0675
vn -0.7035 0.2755 -0.6551
vn -0.9505 0.3102 -0.0163
vn -0.8303 0.2120 0.5154
vn -0.7589 0.3113 0.5720
vn -0.6908 0.3877 0.6103
vn -0.9229 -0.3052 -0.2345
vn -0.9358 -0.0003 -0.3525
vn -0.3383 -0.6818 0.6485
vn -0.3383 -0.6818 0.6485
vn -0.3383 -0.6818 0.6485
vn -0.8377 -0.5304 -0.1303
vn -0.9479 -0.2532 -0.1934
vn -0.8614 0.2555 -0.4390
vn -0.9621 0.2562 -0.0931
vn -0.5856 -0.8062 -0.0845
vn -0.5856 -0.8062 -0.0845
vn -0.5856 -0.8062 -0.0845
vn -0.6970 0.2666 -0.6657
vn -0.5203 0.5333 0.6670
vn -0.9795 -0.1794 -0.0915
vn -0.9795 -0.1794 -0.0915
vn -0.9795 -0.1794 -0.0915
vn -0.9383 -0.0410 -0.3434
vn -0.1429 0.0710 -0.9872
vn -0.0850 -0.1826 -0.9795
vn -0.1491 0.1007 -0.9837
vn -0.8368 0.3868 -0.3876
vn -0.8368 0.3868 -0.3876
vn -0.8368 0.3868 -0.3876
vn -0.5223 -0.8525 0.0189
vn -0.5517 -0.8336 0.0285
vn -0.5626 -0.8261 0.0321
vn -0.7316 0.6498 0.2060
vn -0.7259 0.6483 0.2297
vn -0.7442 0.6519 0.1452
vn -0.1869 0.2957 -0.9368
vn -0.7536 0.6516 0.0869
vn -0.5152 -0.8569 0.0166
vn 0.8437 -0.2686 0.4648
vn 0.8541 -0.3316 0.4007
vn 0.8531 -0.3253 0.4079
vn 0.8523 -0.3207 0.4132
vn 0.8503 -0.3104 0.4249
vn -0.1573 -0.9786 0.1327
vn -0.1803 -0.9744 0.1342
vn -0.1608 -0.9780 0.1329
vn 0.1502 -0.9042 -0.3999
vn 0.1502 -0.9042 -0.3999
vn 0.1502 -0.9042 -0.3999
vn -0.1858 -0.9733 0.1345
vn 0.9592 -0.2603 0.1108
vn 0.8965 -0.3547 0.2655
vn 0.9172 -0.3627 0.1651
vn -0.3252 -0.9297 0.1732
vn -0.3254 -0.9296 0.1731
vn -0.3270 -0.9292 0.1721
vn 0.9401 -0.3324 0.0761
vn -0.3271 -0.9292 0.1720
vn 0.1870 0.1725 0.9671
vn 0.4670 0.1650 0.8688
vn 0.1485 0.1723 0.9738
vn 0.8622 -0.3878 0.3260
vn 0.8799 -0.4380 0.1842
vn 0.8854 -0.3322 0.3252
vn 0.7580 -0.5526 0.3465
vn 0.5290 0.1609 0.8333
vn 0.2540 -0.6016 -0.7574
vn 0.2545 -0.6025 -0.7565
vn 0.6777 -0.7021 -0.2185
vn 0.2410 -0.9663 0.0901
vn 0.3707 -0.9287 -0.0081
vn 0.5773 0.2833 -0.7658
vn 0.5773 0.2833 -0.7658
vn 0.5773 0.2833 -0.7658
vn 0.9006 -0.2986 0.3159
vn 0.0690 0.3516 -0.9336
vn 0.0690 0.3516 -0.9336
vn 0.0690 0.3516 -0.9336
vn 0.2599 -0.6120 -0.7470
vn 0.9246 -0.3002 0.2346
vn 0.9217 -0.0525 0.3843
vn -0.0627 -0.9724 0.2246
vn -0.0483 -0.9699 0.2386
vn -0.1797 -0.9191 0.3506
vn 0.7040 0.1306 0.6981
vn 0.7040 0.1306 0.6981
vn 0.7040 0.1306 0.6981
vn 0.0365 -0.9469 0.3195
vn 0.9419 -0.3198 0.1026
vn 0.9419 -0.3198 0.1026
vn 0.9419 -0.3198 0.1026
vn -0.1193 -0.3965 -0.9103
vn -0.1193 -0.3965 -0.9103
vn -0.1193 -0.3965 -0.9103
vn 0.9047 -0.3043 0.2982
vn -0.0813 0.2370 0.9681
vn -0.0813 0.2370 0.9681
vn -0.0813 0.2370 0.9681
vn -0.8916 -0.0464 -0.4505
vn -0.8420 0.1247 -0.5249
vn -0.8852 0.2092 -0.4155
vn 0.7736 -0.1405 0.6179
vn 0.7736 -0.1405 0.6179
vn 0.7736 -0.1405 0.6179
vn 0.8864 -0.4198 0.1952
vn 0.8756 -0.4642 0.1332
vn 0.8714 -0.4899 0.0247
vn 0.9083 -0.2910 0.3005
vn -0.1335 -0.8753 0.4648
vn -0.1335 -0.8753 0.4648
vn -0.1335 -0.8753 0.4648
vn 0.7906 -0.4904 -0.3668
vn 0.7906 -0.4904 -0.3668
vn 0.7906 -0.4904 -0.3668
vn -0.8508 -0.0271 -0.5248
vn -0.0895 -0.6526 -0.7524
vn -0.1114 -0.5814 -0.8060
vn -0.0872 -0.5717 -0.8158
vn -0.0986 -0.6741 -0.7320
vn -0.3312 0.1893 0.9244
vn -0.3330 0.1943 0.9227
vn -0.3326 0.1934 0.9230
vn -0.1351 0.1798 0.9744
vn -0.1351 0.1798 0.9744
vn -0.1351 0.1798 0.9744
vn -0.4429 0.2501 0.8610
vn -0.4416 0.2509 0.8614
vn -0.4252 0.2606 0.8668
vn -0.3341 0.1976 0.9216
vn 0.8531 -0.4677 -0.2314
vn 0.8531 -0.4677 -0.2314
vn 0.8531 -0.4677 -0.2314
vn -0.6210 -0.6321 0.4635
vn -0.7162 -0.6340 0.2915
vn -0.7085 -0.6349 0.3080
vn -0.0116 0.0255 -0.9996
vn -0.0058 0.0342 -0.9994
vn -0.0139 0.0219 -0.9997
vn -0.9531 0.2886 -0.0911
vn -0.9553 0.2314 -0.1840
vn -0.9573 0.2173 -0.1909
vn -0.9501 0.3085 -0.0472
vn -0.3430 -0.9135 0.2188
vn -0.3421 -0.9141 0.2178
vn -0.4126 -0.9026 0.1229
vn -0.9541 0.1804 -0.2389
vn -0.7798 -0.6140 0.1222
vn 0.1118 0.7700 -0.6282
vn 0.1118 0.7700 -0.6282
vn 0.1118 0.7700 -0.6282
vn -0.0066 -0.0695 -0.9976
vn -0.0066 -0.0695 -0.9976
vn -0.4568 0.2417 0.8561
vn -0.3682 0.1940 0.9093
vn -0.3773 0.1955 0.9052
vn -0.3631 0.1910 0.9119
vn -0.9511 0.3080 -0.0224
vn -0.9559 0.2882 -0.0562
vn -0.9477 0.3191 -0.0030
vn -0.4157 0.1929 0.8888
vn -0.9575 0.2794 -0.0711
vn -0.3844 -0.9093 0.1594
vn 0.2860 0.7205 -0.6317
vn 0.4232 0.8428 -0.3324
vn 0.1704 0.8948 -0.4127
vn 0.4461 0.7974 -0.4064
vn -0.4714 -0.8810 0.0395
vn -0.8122 0.1450 -0.5650
vn -0.8067 0.2845 -0.5179
vn -0.7599 0.1780 -0.6251
vn -0.9243 0.3014 -0.2341
vn -0.9481 0.2838 -0.1434
vn -0.9252 0.3546 -0.1351
vn -0.9403 0.3349 -0.0606
vn -0.7667 0.3191 -0.5571
vn -0.7012 0.2285 -0.6754
vn -0.7366 0.3107 -0.6007
vn -0.3367 0.1690 0.9263
vn -0.0029 0.0386 -0.9992
vn -0.8044 0.2500 -0.5389
vn -0.6919 0.2570 -0.6747
vn 0.5960 0.7152 -0.3651
vn -0.7421 0.2904 0.6041
vn -0.8009 0.3416 0.4918
vn -0.6494 0.2188 0.7283
vn -0.8514 0.2813 -0.4428
vn -0.6269 0.2025 0.7523
vn -0.4670 0.0865 0.8800
vn -0.3630 0.0989 0.9265
vn -0.3264 0.0814 0.9417
vn 0.1430 0.9257 -0.3503
vn -0.5214 -0.8456 0.1147
vn -0.5556 -0.8294 0.0577
vn -0.6054 -0.7951 -0.0350
vn -0.4627 0.1523 0.8733
vn -0.6376 -0.7634 -0.1035
vn -0.9506 0.2870 -0.1185
vn -0.8553 0.3157 -0.4108
vn -0.8395 0.2898 -0.4597
vn -0.8837 0.3794 -0.2741
vn -0.8132 0.1888 -0.5505
vn -0.8301 0.2838 -0.4800
vn -0.7819 0.2346 -0.5776
vn -0.8233 0.2664 -0.5012
vn -0.5535 0.2103 0.8059
vn 0.5725 0.7936 -0.2060
vn 0.4082 0.9112 -0.0550
vn -0.4846 0.2085 0.8495
vn 0.1529 0.8028 -0.5764
vn 0.1876 0.7982 -0.5724
vn 0.0632 0.7990 -0.5980
vn -0.9493 0.2672 -0.1653
vn -0.9811 0.1886 0.0430
vn -0.9277 0.2908 -0.2340
vn -0.9049 0.3837 -0.1841
vn -0.8849 0.3233 -0.3353
vn 0.7165 -0.4280 -0.5509
vn 0.9265 -0.3225 -0.1939
vn 0.8224 -0.3885 -0.4155
vn -0.9543 0.1776 -0.2404
vn -0.9354 0.3045 -0.1797
vn -0.9002 0.2732 -0.3392
vn -0.8428 0.0946 -0.5298
vn -0.6654 0.0899 -0.7411
vn 0.9196 -0.3851 -0.0777
vn -0.9462 0.2470 -0.2092
vn -0.9398 0.3280 -0.0955
vn -0.3024 0.9177 -0.2575
vn -0.6081 0.7901 0.0773
vn -0.3031 0.9322 -0.1978
vn -0.6621 0.7337 0.1528
vn 0.0473 0.9044 -0.4241
vn 0.0473 0.9044 -0.4241
vn 0.0473 0.9044 -0.4241
vn -0.4769 -0.8736 0.0967
vn -0.4836 -0.8712 0.0841
vn -0.4699 -0.8759 0.1097
vn -0.1943 0.8943 -0.4032
vn -0.4981 0.3920 0.7734
vn -0.2710 0.4019 0.8747
vn -0.3226 0.4018 0.8570
vn -0.4933 -0.8674 0.0655
vn 0.8184 -0.5736 0.0332
vn -0.0179 0.9971 0.0742
vn -0.0179 0.9971 0.0742
vn -0.0179 0.9971 0.0742
vn -0.6143 0.3755 0.6940
vn -0.1295 -0.0437 -0.9906
vn -0.1527 -0.0307 -0.9878
vn -0.2559 0.0279 -0.9663
vn -0.6029 0.2087 0.7700
vn -0.5699 0.1733 0.8033
vn -0.8112 0.2630 -0.5222
vn 0.4045 0.2845 -0.8691
vn 0.4045 0.2845 -0.8691
vn 0.4045 0.2845 -0.8691
vn 0.1255 0.4705 -0.8734
vn 0.0165 0.5262 -0.8502
vn 0.3018 0.3620 -0.8820
vn -0.7209 0.6930 -0.0014
vn -0.9150 0.1736 -0.3642
vn -0.8902 0.1855 -0.4161
vn -0.9373 -0.3422 -0.0656
vn -0.9373 -0.3422 -0.0656
vn -0.9423 0.3346 -0.0110
vn -0.9463 0.3218 0.0322
vn -0.9508 0.3047 0.0560
vn -0.9525 0.2971 0.0665
vn -0.2902 0.0478 -0.9558
vn -0.0294 0.5472 -0.8365
vn -0.6497 0.7585 -0.0509
vn -0.0812 0.8534 0.5149
vn -0.0812 0.8534 0.5149
vn -0.0812 0.8534 0.5149
vn -0.9549 0.2969 -0.0029
vn -0.0038 0.7957 -0.6057
vn -0.9349 0.3545 -0.0145
vn -0.0731 0.5134 -0.8550
vn -0.0736 0.3290 -0.9415
vn -0.0735 0.3165 -0.9457
vn -0.0701 0.0874 -0.9937
vn 0.6565 0.5193 -0.5472
vn 0.6565 0.5193 -0.5472
vn 0.6565 0.5193 -0.5472
vn -0.0941 0.8771 -0.4710
vn 0.0802 0.8145 -0.5746
vn 0.0074 0.8165 -0.5774
vn -0.0216 0.6700 -0.7421
vn -0.0911 0.7626 -0.6404
vn -0.1247 0.6095 -0.7830
vn -0.9616 0.2516 -0.1100
vn -0.9595 0.2725 -0.0717
vn -0.9619 0.2727 -0.0197
vn -0.9556 0.2798 -0.0928
vn -0.9657 0.2318 -0.1171
vn -0.9405 0.1458 -0.3069
vn -0.1900 -0.1125 -0.9753
vn -0.1900 -0.1125 -0.9753
vn -0.1900 -0.1125 -0.9753
vn -0.9648 0.2623 0.0209
vn 0.0553 0.8612 0.5052
vn 0.0322 0.8488 0.5277
vn 0.0741 0.8707 0.4863
vn -0.0341 0.8263 -0.5622
vn -0.9611 0.2757 -0.0136
vn -0.0249 0.8353 -0.5492
vn -0.0564 0.8660 -0.4969
vn -0.9905 -0.1151 -0.0751
vn -0.9898 0.1335 -0.0506
vn -0.9583 -0.2724 -0.0859
vn 0.1186 0.9254 0.3600
vn 0.3290 0.9200 0.2131
vn 0.2134 0.9306 0.2975
vn -0.2783 -0.1248 0.9524
vn -0.2565 -0.1012 0.9612
vn -0.2625 -0.1076 0.9589
vn -0.0082 0.8506 -0.5257
vn 0.0018 0.8552 -0.5183
vn -0.9851 0.1649 -0.0489
vn -0.9355 0.2887 -0.2037
vn 0.1110 0.8871 0.4481
vn 0.2801 0.1374 -0.9501
vn 0.2801 0.1374 -0.9501
vn 0.2801 0.1374 -0.9501
vn -0.9873 0.1516 -0.0472
vn -0.1155 0.4807 0.8692
vn -0.0954 0.4633 0.8810
vn -0.1382 0.4999 0.8550
vn -0.2399 -0.0833 0.9672
vn -0.2295 0.8881 -0.3983
vn 0.4382 0.7325 -0.5210
vn 0.1491 0.8880 -0.4351
vn 0.1247 0.8804 -0.4575
vn 0.5768 0.6845 -0.4458
vn -0.1671 0.5237 0.8353
vn -0.9071 0.3782 -0.1848
vn -0.9708 0.1582 -0.1805
vn -0.9521 0.1759 -0.2500
vn -0.9817 0.1564 -0.1088
vn -0.0639 0.8830 0.4650
vn 0.2053 0.8698 -0.4487
vn 0.6825 0.6764 -0.2768
vn -0.9573 0.2889 0.0086
vn -0.9810 0.1650 0.1016
vn -0.9593 0.2755 -0.0614
vn -0.9561 0.1855 -0.2269
vn -0.4990 0.7740 0.3898
vn -0.4990 0.7740 0.3898
vn -0.4990 0.7740 0.3898
vn -0.9829 0.1301 -0.1301
vn -0.9589 0.2453 -0.1425
vn -0.9684 0.2446 0.0483
vn -0.9444 0.3285 0.0175
vn 0.1274 0.8015 -0.5843
vn 0.1274 0.8015 -0.5843
vn 0.1274 0.8015 -0.5843
vn -0.9859 0.1449 0.0838
vn -0.9711 0.1789 0.1580
vn -0.7884 0.5747 -0.2192
vn -0.8361 0.5309 -0.1381
vn 0.2325 0.8405 -0.4894
vn 0.2875 0.8203 -0.4944
vn 0.2289 0.8417 -0.4890
vn 0.2947 0.8174 -0.4950
vn -0.9766 0.2114 0.0398
vn -0.9686 0.2461 0.0347
vn 0.9793 -0.1982 -0.0410
vn 0.9793 -0.1982 -0.0410
vn 0.9793 -0.1982 -0.0410
vn -0.6509 0.7205 -0.2394
vn -0.5897 0.7181 -0.3695
vn -0.5727 0.8032 -0.1640
vn 0.7531 -0.5544 0.3543
vn 0.7531 -0.5544 0.3543
vn 0.7531 -0.5544 0.3543
vn -0.5555 0.8062 -0.2035
vn -0.1394 -0.5833 -0.8002
vn -0.1394 -0.5833 -0.8002
vn -0.1394 -0.5833 -0.8002
vn 0.2514 0.5967 0.7621
vn 0.2006 0.6475 0.7352
vn 0.1994 0.6826 0.7030
vn -0.9536 0.1730 0.2466
vn -0.9536 0.1730 0.2466
vn -0.9536 0.1730 0.2466
vn 0.5590 -0.2936 0.7754
vn 0.5590 -0.2936 0.7754
vn 0.5590 -0.2936 0.7754
vn 0.9105 0.3929 -0.1286
vn 0.8805 0.4187 -0.2222
vn 0.9172 0.3983 0.0112
vn 0.8999 0.4302 0.0710
vn 0.8913 0.4460 0.0816
vn 0.8932 0.4467 0.0518
vn 0.1839 0.6834 0.7065
vn 0.2134 0.6913 0.6903
vn 0.1441 0.8554 -0.4975
vn 0.1441 0.8554 -0.4975
vn 0.1441 0.8554 -0.4975
vn -0.0066 -0.0695 -0.9976
vn 0.2103 0.8031 -0.5575
vn 0.2387 0.9671 -0.0881
vn -0.9373 -0.3422 -0.0656
vn -0.8972 0.4401 -0.0376
vn -0.8665 0.4952 -0.0629
vn -0.9888 -0.0916 -0.1181
vn -0.9859 -0.0947 -0.1383
vn -0.9998 0.0205 0.0066
vn -0.9927 0.0646 0.1014
vn -0.9896 0.1141 0.0882
vn 0.0519 -0.9603 0.2740
vn 0.0465 -0.9347 0.3524
vn -0.9977 0.0517 0.0433
vn -0.9996 -0.0259 -0.0070
vn -0.2048 0.2652 0.9422
vn -0.2054 0.2853 0.9362
vn -0.1273 0.2040 0.9707
vn -0.1273 0.2040 0.9707
vn -0.1273 0.2040 0.9707
vn -0.0720 -0.9563 0.2833
vn -0.0417 -0.9662 0.2543
vn -0.0589 -0.9523 0.2993
vn 0.9760 -0.2173 -0.0125
vn 0.9759 -0.2178 -0.0124
vn 0.9768 -0.2136 -0.0152
vn -0.0634 0.7630 0.6433
vn 0.0874 0.7776 0.6227
vn 0.0851 0.8243 0.5597
vn 0.9750 -0.2219 -0.0099
vn 0.9747 -0.2233 -0.0094
vn 0.1024 0.7800 0.6173
vn 0.9553 -0.2224 0.1950
vn 0.9582 -0.2227 0.1797
vn 0.9733 -0.2236 0.0524
vn 0.1832 0.5295 -0.8283
vn 0.2761 0.4606 -0.8436
vn 0.2871 0.4563 -0.8423
vn 0.2928 0.4620 -0.8371
vn 0.9739 -0.2235 0.0405
vn -0.0714 0.2095 0.9752
vn 0.0947 0.1240 0.9878
vn 0.1466 0.0960 0.9845
vn -0.1304 -0.9475 0.2920
vn -0.1721 -0.9525 0.2513
vn 0.1475 0.5499 -0.8221
vn -0.5750 0.5244 -0.6280
vn -0.6265 0.4891 -0.6068
vn -0.6413 0.4782 -0.6000
vn 0.8634 -0.1060 -0.4932
vn 0.9709 -0.1523 -0.1850
vn 0.9495 -0.1068 -0.2950
vn 0.9869 -0.1288 -0.0975
vn -0.5468 0.5421 -0.6381
vn 0.9715 -0.1843 -0.1487
vn -0.9984 0.0557 -0.0028
vn -0.1721 -0.9530 0.2493
vn -0.1794 0.2891 0.9404
vn -0.1149 0.2310 0.9662
vn 0.0467 0.7804 0.6236
vn -0.9964 0.0823 -0.0193
vn -0.9968 0.0748 -0.0288
vn 0.2040 0.8998 -0.3856
vn 0.1982 0.9035 -0.3799
vn 0.1871 0.9104 -0.3690
vn 0.2095 0.8963 -0.3910
vn 0.0804 0.8055 0.5870
vn 0.1663 0.9570 0.2378
vn 0.0849 0.8068 0.5847
vn -0.0557 0.8452 0.5316
vn -0.9117 0.4063 0.0606
vn -0.9117 0.4063 0.0606
vn -0.9117 0.4063 0.0606
vn 0.9305 -0.1116 0.3490
vn 0.9305 -0.1116 0.3490
vn 0.9305 -0.1116 0.3490
vn 0.0630 0.5229 0.8501
vn -0.0870 0.5183 0.8508
vn 0.0428 0.5643 0.8244
vn 0.9399 -0.3415 0.0071
vn 0.9419 -0.3358 -0.0119
vn 0.8811 -0.3576 0.3094
vn 0.7393 -0.1243 0.6618
vn 0.6872 -0.3170 0.6537
vn 0.9600 -0.2100 0.1853
vn 0.1136 -0.6638 -0.7393
vn 0.2649 -0.6667 -0.6967
vn -0.2681 -0.6272 -0.7312
vn -0.2079 -0.6185 -0.7578
vn 0.1236 0.5359 0.8352
vn 0.1784 0.3609 0.9154
vn -0.0312 -0.1627 0.9862
vn -0.0312 -0.1627 0.9862
vn -0.0312 -0.1627 0.9862
vn -0.1354 -0.5606 0.8169
vn -0.1135 -0.4020 0.9086
vn -0.0647 -0.5320 0.8443
vn -0.1135 -0.7036 0.7015
vn -0.1062 -0.5454 0.8314
vn -0.1137 -0.7097 0.6952
vn 0.1396 0.5778 0.8042
vn 0.1259 0.5306 0.8382
vn -0.1057 -0.5353 0.8381
vn -0.1446 -0.6462 0.7494
vn -0.1488 -0.4589 0.8759
vn -0.0789 -0.6446 0.7605
vn -0.1125 -0.2655 0.9575
vn 0.1487 0.5094 0.8476
vn 0.0750 0.4917 0.8675
vn -0.9325 0.3298 -0.1476
vn -0.9315 0.3314 -0.1502
vn -0.9300 0.3359 -0.1492
vn -0.9739 0.1661 0.1547
vn -0.9739 0.1661 0.1547
vn -0.9739 0.1661 0.1547
vn -0.9339 0.3458 -0.0911
vn -0.9337 0.3529 -0.0604
vn -0.9517 0.2944 -0.0874
vn 0.0301 0.9995 -0.0104
vn 0.0677 0.9975 0.0195
vn 0.0170 0.9996 -0.0209
vn -0.9450 -0.0353 0.3253
vn -0.9450 -0.0353 0.3253
vn -0.9450 -0.0353 0.3253
vn -0.0132 0.9989 -0.0448
vn -0.3201 -0.7789 0.5393
vn -0.3212 -0.7878 0.5256
vn -0.2632 -0.7583 0.5964
vn 0.1076 0.6212 0.7762
vn 0.0979 0.3889 0.9161
vn -0.1972 -0.7737 0.6020
vn -0.1904 -0.7878 0.5857
vn -0.1458 -0.7673 0.6245
vn -0.9935 0.1096 0.0311
vn -0.9853 0.1684 0.0288
vn -0.9879 0.1469 0.0508
vn -0.9812 0.1921 -0.0162
vn -0.9954 0.0947 0.0103
vn -0.9783 0.2041 -0.0360
vn -0.9829 0.1195 0.1401
vn -0.9843 0.0968 0.1479
vn -0.9855 0.1579 0.0622
vn -0.1486 -0.6817 -0.7164
vn -0.1803 -0.6692 -0.7209
vn -0.3746 -0.5721 -0.7296
vn -0.9776 0.1830 0.1043
vn -0.9616 0.1930 0.1952
vn -0.9793 0.1991 -0.0368
vn -0.4041 -0.5541 -0.7278
vn -0.3389 -0.8235 0.4550
vn -0.9815 0.1869 -0.0424
vn 0.2336 0.6818 0.6933
vn 0.1872 0.5254 0.8300
vn 0.2307 0.6846 0.6915
vn -0.9257 0.2884 0.2448
vn -0.9846 0.1544 0.0826
vn -0.9825 0.1555 0.1023
vn -0.9888 0.1358 0.0623
vn 0.9459 -0.3242 -0.0104
f 75/75/75 76/76/76 77/77/77
f 79/79/79 80/80/80 81/81/81
f 85/85/85 86/86/86 87/87/87
f 88/88/88 89/89/89 90/90/90
f 71/71/71 91/91/91 72/72/72
f 92/92/92 93/93/93 94/94/94
f 615/615/615 608/608/608 607/607/607
f 611/611/611 610/610/610 609/609/609
f 609/609/609 615/615/615 607/607/607
f 609/609/609 614/614/614 615/615/615
f 73/73/73 95/95/95 74/74/74
f 97/97/97 96/96/96 98/98/98
f 96/96/96 78/78/78 98/98/98
f 84/84/84 99/99/99 240/240/240
f 100/100/100 69/69/69 70/70/70
f 241/241/241 242/242/242 243/243/243
f 101/101/101 68/68/68 102/102/102
f 95/95/95 73/73/73 103/103/103
f 244/244/244 243/243/243 242/242/242
f 85/85/85 104/104/104 105/105/105
f 98/98/98 106/106/106 97/97/97
f 245/245/245 246/246/246 247/247/247
f 83/83/83 82/82/82 107/107/107
f 108/108/108 72/72/72 91/91/91
f 68/68/68 109/109/109 102/102/102
f 110/110/110 111/111/111 112/112/112
f 248/248/248 249/249/249 250/250/250
f 618/618/618 619/619/619 620/620/620
f 113/113/113 114/114/114 115/115/115
f 114/114/114 116/116/116 115/115/115
f 117/117/117 118/118/118 119/119/119
f 120/120/120 121/121/121 122/122/122
f 85/85/85 123/123/123 86/86/86
f 98/98/98 124/124/124 106/106/106
f 246/246/246 251/251/251 247/247/247
f 613/613/613 621/621/621 622/622/622
f 613/613/613 612/612/612 621/621/621
f 612/612/612 623/623/623 621/621/621
f 109/109/109 68/68/68 67/67/67
f 252/252/252 253/253/253 254/254/254
f 72/72/72 108/108/108 125/125/125
f 255/255/255 256/256/256 257/257/257
f 258/258/258 252/252/252 254/254/254
f 126/126/126 122/122/122 121/121/121
f 624/624/624 625/625/625 626/626/626
f 256/256/256 259/259/259 257/257/257
f 260/260/260 261/261/261 262/262/262
f 85/85/85 105/105/105 123/123/123
f 627/627/627 628/628/628 629/629/629
f 254/254/254 253/253/253 263/263/263
f 625/625/625 624/624/624 630/630/630
f 625/625/625 630/630/630 631/631/631
f 125/125/125 127/127/127 72/72/72
f 254/254/254 263/263/263 264/264/264
f 628/628/628 632/632/632 629/629/629
f 633/633/633 634/634/634 635/635/635
f 636/636/636 637/637/637 638/638/638
f 264/264/264 258/258/258 254/254/254
f 253/253/253 265/265/265 263/263/263
f 102/102/102 128/128/128 101/101/101
f 674/674/674 675/675/675 676/676/676
f 110/110/110 112/112/112 129/129/129
f 638/638/638 639/639/639 636/636/636
f 263/263/263 266/266/266 264/264/264
f 261/261/261 260/260/260 267/267/267
f 130/130/130 79/79/79 83/83/83
f 634/634/634 640/640/640 635/635/635
f 641/641/641 642/642/642 643/643/643
f 131/131/131 110/110/110 132/132/132
f 677/677/677 678/678/678 679/679/679
f 270/270/270 271/271/271 272/272/272
f 273/273/273 274/274/274 275/275/275
f 263/263/263 265/265/265 276/276/276
f 621/621/621 644/644/644 645/645/645
f 639/639/639 646/646/646 636/636/636
f 647/647/647 648/648/648 649/649/649
f 650/650/650 651/651/651 652/652/652
f 277/277/277 278/278/278 279/279/279
f 269/269/269 268/268/268 280/280/280
f 651/651/651 653/653/653 652/652/652
f 276/276/276 265/265/265 281/281/281
f 680/680/680 681/681/681 759/759/759
f 133/133/133 129/129/129 112/112/112
f 276/276/276 282/282/282 263/263/263
f 271/271/271 283/283/283 284/284/284
f 682/682/682 683/683/683 684/684/684
f 647/647/647 654/654/654 648/648/648
f 759/759/759 685/685/685 682/682/682
f 653/653/653 651/651/651 655/655/655
f 286/286/286 287/287/287 288/288/288
f 80/80/80 79/79/79 130/130/130
f 272/272/272 271/271/271 289/289/289
f 290/290/290 291/291/291 292/292/292
f 621/621/621 645/645/645 657/657/657
f 616/616/616 617/617/617 658/658/658
f 293/293/293 294/294/294 295/295/295
f 759/759/759 682/682/682 680/680/680
f 276/276/276 281/281/281 296/296/296
f 110/110/110 129/129/129 134/134/134
f 642/642/642 641/641/641 659/659/659
f 271/271/271 284/284/284 289/289/289
f 686/686/686 687/687/687 688/688/688
f 297/297/297 298/298/298 299/299/299
f 132/132/132 135/135/135 131/131/131
f 660/660/660 627/627/627 629/629/629
f 621/621/621 623/623/623 644/644/644
f 110/110/110 134/134/134 136/136/136
f 661/661/661 656/656/656 662/662/662
f 663/663/663 664/664/664 665/665/665
f 285/285/285 272/272/272 289/289/289
f 125/125/125 108/108/108 139/139/139
f 688/688/688 689/689/689 686/686/686
f 300/300/300 301/301/301 302/302/302
f 132/132/132 110/110/110 136/136/136
f 138/138/138 137/137/137 140/140/140
f 677/677/677 679/679/679 690/690/690
f 303/303/303 304/304/304 305/305/305
f 306/306/306 307/307/307 308/308/308
f 296/296/296 309/309/309 276/276/276
f 141/141/141 117/117/117 119/119/119
f 310/310/310 311/311/311 312/312/312
f 125/125/125 139/139/139 142/142/142
f 143/143/143 144/144/144 145/145/145
f 313/313/313 314/314/314 315/315/315
f 143/143/143 140/140/140 137/137/137
f 143/143/143 137/137/137 144/144/144
f 300/300/300 316/316/316 301/301/301
f 690/690/690 691/691/691 677/677/677
f 317/317/317 318/318/318 319/319/319
f 146/146/146 147/147/147 148/148/148
f 149/149/149 150/150/150 151/151/151
f 149/149/149 153/153/153 154/154/154
f 692/692/692 693/693/693 694/694/694
f 153/153/153 149/149/149 151/151/151
f 119/119/119 155/155/155 141/141/141
f 696/696/696 695/695/695 697/697/697
f 125/125/125 142/142/142 157/157/157
f 142/142/142 139/139/139 158/158/158
f 159/159/159 154/154/154 153/153/153
f 698/698/698 699/699/699 700/700/700
f 321/321/321 322/322/322 323/323/323
f 157/157/157 142/142/142 160/160/160
f 318/318/318 317/317/317 320/320/320
f 666/666/666 664/664/664 663/663/663
f 324/324/324 325/325/325 326/326/326
f 161/161/161 162/162/162 163/163/163
f 152/152/152 156/156/156 164/164/164
f 629/629/629 667/667/667 660/660/660
f 327/327/327 328/328/328 329/329/329
f 323/323/323 322/322/322 330/330/330
f 158/158/158 165/165/165 166/166/166
f 679/679/679 701/701/701 702/702/702
f 331/331/331 332/332/332 333/333/333
f 167/167/167 168/168/168 169/169/169
f 167/167/167 169/169/169 170/170/170
f 334/334/334 335/335/335 336/336/336
f 337/337/337 338/338/338 339/339/339
f 134/134/134 172/172/172 136/136/136
f 702/702/702 690/690/690 679/679/679
f 629/629/629 668/668/668 667/667/667
f 136/136/136 174/174/174 132/132/132
f 175/175/175 176/176/176 177/177/177
f 142/142/142 158/158/158 166/166/166
f 340/340/340 341/341/341 342/342/342
f 342/342/342 343/343/343 340/340/340
f 173/173/173 171/171/171 178/178/178
f 179/179/179 180/180/180 181/181/181
f 344/344/344 345/345/345 346/346/346
f 667/667/667 669/669/669 660/660/660
f 168/168/168 182/182/182 169/169/169
f 174/174/174 136/136/136 172/172/172
f 703/703/703 699/699/699 698/698/698
f 2/2/2 3/3/3 1/1/1
f 182/182/182 168/168/168 183/183/183
f 185/185/185 186/186/186 187/187/187
f 169/169/169 182/182/182 188/188/188
f 189/189/189 190/190/190 191/191/191
f 192/192/192 186/186/186 185/185/185
f 164/164/164 156/156/156 194/194/194
f 695/695/695 696/696/696 705/705/705
f 175/175/175 177/177/177 196/196/196
f 177/177/177 197/197/197 196/196/196
f 342/342/342 341/341/341 347/347/347
f 190/190/190 198/198/198 191/191/191
f 695/695/695 705/705/705 704/704/704
f 336/336/336 335/335/335 348/348/348
f 199/199/199 200/200/200 201/201/201
f 349/349/349 350/350/350 351/351/351
f 183/183/183 202/202/202 182/182/182
f 204/204/204 205/205/205 206/206/206
f 193/193/193 207/207/207 208/208/208
f 352/352/352 601/601/601 353/353/353
f 209/209/209 210/210/210 211/211/211
f 354/354/354 328/328/328 327/327/327
f 212/212/212 213/213/213 207/207/207
f 200/200/200 199/199/199 214/214/214
f 199/199/199 201/201/201 215/215/215
f 355/355/355 356/356/356 357/357/357
f 216/216/216 217/217/217 218/218/218
f 219/219/219 202/202/202 184/184/184
f 3/3/3 4/4/4 5/5/5
f 208/208/208 195/195/195 193/193/193
f 6/6/6 3/3/3 2/2/2
f 358/358/358 359/359/359 360/360/360
f 220/220/220 206/206/206 205/205/205
f 207/207/207 213/213/213 208/208/208
f 221/221/221 222/222/222 223/223/223
f 164/164/164 194/194/194 224/224/224
f 361/361/361 357/357/357 356/356/356
f 362/362/362 359/359/359 358/358/358
f 225/225/225 226/226/226 227/227/227
f 363/363/363 346/346/346 345/345/345
f 364/364/364 365/365/365 366/366/366
f 6/6/6 4/4/4 3/3/3
f 228/228/228 229/229/229 230/230/230
f 231/231/231 232/232/232 233/233/233
f 234/234/234 235/235/235 236/236/236
f 203/203/203 188/188/188 182/182/182
f 367/367/367 365/365/365 364/364/364
f 368/368/368 346/346/346 363/363/363
f 237/237/237 225/225/225 227/227/227
f 369/369/369 370/370/370 371/371/371
f 236/236/236 238/238/238 234/234/234
f 231/231/231 239/239/239 232/232/232
f 372/372/372 373/373/373 374/374/374
f 373/373/373 375/375/375 374/374/374
f 376/376/376 377/377/377 378/378/378
f 361/361/361 379/379/379 357/357/357
f 337/337/337 380/380/380 338/338/338
f 370/370/370 381/381/381 382/382/382
f 365/365/365 367/367/367 383/383/383
f 384/384/384 385/385/385 386/386/386
f 373/373/373 372/372/372 387/387/387
f 386/386/386 388/388/388 384/384/384
f 389/389/389 390/390/390 391/391/391
f 392/392/392 366/366/366 365/365/365
f 378/378/378 377/377/377 382/382/382
f 393/393/393 394/394/394 395/395/395
f 381/381/381 370/370/370 369/369/369
f 390/390/390 389/389/389 396/396/396
f 395/395/395 394/394/394 397/397/397
f 398/398/398 375/375/375 373/373/373
f 399/399/399 400/400/400 401/401/401
f 402/402/402 387/387/387 403/403/403
f 403/403/403 404/404/404 402/402/402
f 405/405/405 400/400/400 399/399/399
f 406/406/406 396/396/396 389/389/389
f 407/407/407 365/365/365 383/383/383
f 373/373/373 387/387/387 402/402/402
f 408/408/408 365/365/365 407/407/407
f 409/409/409 361/361/361 356/356/356
f 410/410/410 411/411/411 412/412/412
f 413/413/413 414/414/414 415/415/415
f 9/9/9 10/10/10 11/11/11
f 402/402/402 416/416/416 398/398/398
f 413/413/413 415/415/415 417/417/417
f 418/418/418 419/419/419 420/420/420
f 410/410/410 602/602/602 411/411/411
f 381/381/381 378/378/378 382/382/382
f 8/8/8 12/12/12 7/7/7
f 407/407/407 603/603/603 408/408/408
f 421/421/421 422/422/422 423/423/423
f 369/369/369 424/424/424 381/381/381
f 404/404/404 425/425/425 402/402/402
f 419/419/419 426/426/426 420/420/420
f 402/402/402 398/398/398 373/373/373
f 427/427/427 428/428/428 422/422/422
f 429/429/429 430/430/430 431/431/431
f 429/429/429 432/432/432 430/430/430
f 433/433/433 434/434/434 435/435/435
f 436/436/436 437/437/437 438/438/438
f 429/429/429 431/431/431 439/439/439
f 440/440/440 441/441/441 442/442/442
f 443/443/443 437/437/437 436/436/436
f 15/15/15 11/11/11 10/10/10
f 16/16/16 11/11/11 15/15/15
f 14/14/14 13/13/13 17/17/17
f 421/421/421 427/427/427 422/422/422
f 419/419/419 444/444/444 426/426/426
f 445/445/445 446/446/446 447/447/447
f 442/442/442 448/448/448 440/440/440
f 449/449/449 450/450/450 451/451/451
f 452/452/452 406/406/406 453/453/453
f 381/381/381 454/454/454 378/378/378
f 455/455/455 456/456/456 457/457/457
f 667/667/667 670/670/670 669/669/669
f 705/705/705 706/706/706 704/704/704
f 19/19/19 20/20/20 18/18/18
f 458/458/458 459/459/459 460/460/460
f 432/432/432 461/461/461 430/430/430
f 462/462/462 421/421/421 463/463/463
f 464/464/464 465/465/465 604/604/604
f 389/389/389 453/453/453 406/406/406
f 605/605/605 606/606/606 466/466/466
f 467/467/467 468/468/468 469/469/469
f 421/421/421 462/462/462 427/427/427
f 696/696/696 707/707/707 705/705/705
f 451/451/451 450/450/450 470/470/470
f 458/458/458 471/471/471 459/459/459
f 472/472/472 430/430/430 461/461/461
f 473/473/473 474/474/474 475/475/475
f 466/466/466 476/476/476 605/605/605
f 412/412/412 477/477/477 410/410/410
f 468/468/468 467/467/467 478/478/478
f 479/479/479 480/480/480 481/481/481
f 482/482/482 481/481/481 480/480/480
f 483/483/483 484/484/484 485/485/485
f 486/486/486 487/487/487 488/488/488
f 701/701/701 708/708/708 702/702/702
f 489/489/489 490/490/490 491/491/491
f 466/466/466 492/492/492 476/476/476
f 21/21/21 22/22/22 23/23/23
f 690/690/690 702/702/702 709/709/709
f 493/493/493 494/494/494 495/495/495
f 476/476/476 492/492/492 496/496/496
f 492/492/492 497/497/497 496/496/496
f 498/498/498 499/499/499 500/500/500
f 476/476/476 496/496/496 501/501/501
f 502/502/502 503/503/503 504/504/504
f 490/490/490 489/489/489 505/505/505
f 506/506/506 495/495/495 494/494/494
f 486/486/486 507/507/507 508/508/508
f 488/488/488 507/507/507 486/486/486
f 509/509/509 510/510/510 511/511/511
f 512/512/512 513/513/513 514/514/514
f 671/671/671 672/672/672 673/673/673
f 515/515/515 516/516/516 517/517/517
f 518/518/518 519/519/519 508/508/508
f 710/710/710 711/711/711 712/712/712
f 520/520/520 510/510/510 509/509/509
f 521/521/521 493/493/493 495/495/495
f 713/713/713 714/714/714 715/715/715
f 502/502/502 504/504/504 522/522/522
f 523/523/523 524/524/524 525/525/525
f 710/710/710 712/712/712 716/716/716
f 520/520/520 526/526/526 510/510/510
f 527/527/527 528/528/528 529/529/529
f 710/710/710 716/716/716 717/717/717
f 516/516/516 530/530/530 517/517/517
f 505/505/505 531/531/531 490/490/490
f 718/718/718 717/717/717 716/716/716
f 532/532/532 533/533/533 534/534/534
f 508/508/508 507/507/507 518/518/518
f 719/719/719 720/720/720 721/721/721
f 722/722/722 723/723/723 724/724/724
f 534/534/534 535/535/535 532/532/532
f 529/529/529 536/536/536 527/527/527
f 537/537/537 538/538/538 539/539/539
f 537/537/537 540/540/540 538/538/538
f 512/512/512 514/514/514 541/541/541
f 533/533/533 532/532/532 542/542/542
f 532/532/532 535/535/535 543/543/543
f 544/544/544 545/545/545 546/546/546
f 537/537/537 539/539/539 547/547/547
f 548/548/548 549/549/549 550/550/550
f 551/551/551 538/538/538 540/540/540
f 719/719/719 721/721/721 725/725/725
f 726/726/726 727/727/727 728/728/728
f 708/708/708 701/701/701 729/729/729
f 540/540/540 537/537/537 552/552/552
f 553/553/553 554/554/554 544/544/544
f 555/555/555 556/556/556 557/557/557
f 730/730/730 702/702/702 708/708/708
f 554/554/554 553/553/553 558/558/558
f 554/554/554 559/559/559 544/544/544
f 560/560/560 561/561/561 537/537/537
f 544/544/544 559/559/559 545/545/545
f 731/731/731 726/726/726 728/728/728
f 552/552/552 537/537/537 561/561/561
f 732/732/732 731/731/731 733/733/733
f 734/734/734 735/735/735 736/736/736
f 562/562/562 563/563/563 564/564/564
f 563/563/563 562/562/562 565/565/565
f 25/25/25 26/26/26 27/27/27
f 559/559/559 566/566/566 545/545/545
f 566/566/566 567/567/567 545/545/545
f 568/568/568 569/569/569 570/570/570
f 24/24/24 28/28/28 19/19/19
f 737/737/737 736/736/736 735/735/735
f 738/738/738 734/734/734 736/736/736
f 737/737/737 735/735/735 739/739/739
f 29/29/29 30/30/30 31/31/31
f 571/571/571 572/572/572 573/573/573
f 574/574/574 575/575/575 576/576/576
f 27/27/27 26/26/26 29/29/29
f 29/29/29 31/31/31 27/27/27
f 572/572/572 571/571/571 560/560/560
f 560/560/560 571/571/571 561/561/561
f 731/731/731 728/728/728 733/733/733
f 740/740/740 741/741/741 742/742/742
f 573/573/573 572/572/572 577/577/577
f 743/743/743 744/744/744 745/745/745
f 578/578/578 579/579/579 580/580/580
f 581/581/581 582/582/582 583/583/583
f 32/32/32 33/33/33 34/34/34
f 740/740/740 746/746/746 747/747/747
f 740/740/740 742/742/742 746/746/746
f 35/35/35 36/36/36 37/37/37
f 38/38/38 39/39/39 40/40/40
f 584/584/584 585/585/585 586/586/586
f 41/41/41 42/42/42 43/43/43
f 587/587/587 588/588/588 589/589/589
f 32/32/32 34/34/34 44/44/44
f 739/739/739 748/748/748 737/737/737
f 39/39/39 38/38/38 45/45/45
f 745/745/745 744/744/744 749/749/749
f 46/46/46 47/47/47 48/48/48
f 590/590/590 591/591/591 592/592/592
f 727/727/727 726/726/726 750/750/750
f 49/49/49 50/50/50 51/51/51
f 52/52/52 53/53/53 54/54/54
f 41/41/41 43/43/43 55/55/55
f 748/748/748 751/751/751 737/737/737
f 590/590/590 592/592/592 593/593/593
f 594/594/594 593/593/593 592/592/592
f 58/58/58 59/59/59 60/60/60
f 595/595/595 593/593/593 594/594/594
f 57/57/57 59/59/59 58/58/58
f 596/596/596 583/583/583 582/582/582
f 48/48/48 61/61/61 46/46/46
f 597/597/597 583/583/583 596/596/596
f 754/754/754 753/753/753 752/752/752
f 62/62/62 48/48/48 56/56/56
f 598/598/598 599/599/599 600/600/600
f 755/755/755 756/756/756 757/757/757
f 61/61/61 48/48/48 62/62/62
f 756/756/756 758/758/758 757/757/757
f 63/63/63 64/64/64 65/65/65
f 63/63/63 65/65/65 66/66/66
