o arm_right
v 1.90632 3.87098 -1.19633
v 1.89396 3.80728 -1.31629
v 1.86343 4.14935 -1.60144
v 1.76081 3.84031 -1.21426
v 1.90632 3.87098 -1.19633
v 1.75339 3.97178 -1.02489
v 1.75339 3.97178 -1.02489
v 2.00985 3.40228 -0.96082
v 1.88169 3.58328 -1.12084
v 1.82602 4.34571 -1.38507
v 1.72506 4.32831 -0.72998
v 1.87870 3.88880 -0.70728
v 1.85352 3.87690 -0.77783
v 1.80896 4.10971 -0.83396
v 1.77764 4.09333 -0.83023
v 1.77783 3.83666 -0.66671
v 1.85352 3.87690 -0.77783
v 1.87870 3.88880 -0.70728
v 1.95845 3.54861 -0.76720
v 1.89396 3.80728 -1.31629
v 1.79174 3.79745 -1.11916
v 1.67740 3.91545 -1.41597
v 1.86343 4.14935 -1.60144
v 1.89396 3.80728 -1.31629
v 1.70925 3.76530 -1.12768
v 1.79174 3.79745 -1.11916
v 1.87870 3.88880 -0.70728
v 1.72506 4.32831 -0.72998
v 1.66586 4.10342 -0.66755
v 1.80896 4.10971 -0.83396
v 1.77764 4.09333 -0.83023
v 1.80192 3.76307 -0.70413
v 1.85352 3.87690 -0.77783
v 1.77783 3.83666 -0.66671
v 1.77783 3.83666 -0.66671
v 1.80604 3.89313 -0.57400
v 1.72285 3.84876 -0.53086
v 1.76081 3.84031 -1.21426
v 1.80604 3.89313 -0.57400
v 1.77783 3.83666 -0.66671
v 1.77650 3.97547 -0.57716
v 1.69818 4.01701 -1.53394
v 1.67984 4.14536 -1.62598
v 1.72285 3.84876 -0.53086
v 1.77783 3.83666 -0.66671
v 1.77764 4.09333 -0.83023
v 1.80896 4.10971 -0.83396
v 1.80232 4.26702 -1.00382
v 1.78035 3.57242 -1.14787
v 1.66586 4.10342 -0.66755
v 1.77650 3.97547 -0.57716
v 1.65898 3.98422 -0.51005
v 1.80604 3.89313 -0.57400
v 1.73966 3.25999 -1.37305
v 1.58740 3.48911 -1.33783
v 1.72685 3.50716 -1.27352
v 1.77650 3.97547 -0.57716
v 1.69192 4.00578 -0.56685
v 1.65898 3.98422 -0.51005
v 1.78035 3.57242 -1.14787
v 1.70925 3.76530 -1.12768
v 1.66586 4.10342 -0.66755
v 1.70925 3.76530 -1.12768
v 1.76081 3.84031 -1.21426
v 1.79174 3.79745 -1.11916
v 1.67184 3.79661 -1.33428
v 1.72285 3.84876 -0.53086
v 1.64946 3.83581 -1.20391
v 1.64946 3.83581 -1.20391
v 1.61734 3.81967 -1.27933
v 1.67184 3.79661 -1.33428
v 1.64946 3.83581 -1.20391
v 1.71422 3.86885 -0.42836
v 1.65898 3.98422 -0.51005
v 1.63824 4.23568 -1.86073
v 1.63824 4.23568 -1.86073
v 1.67984 4.14536 -1.62598
v 1.69818 4.01701 -1.53394
v 1.60384 4.16136 -0.42609
v 1.61734 3.81967 -1.27933
v 1.63388 3.71125 -1.60418
v 1.67740 3.91545 -1.41597
v 1.67184 3.79661 -1.33428
v 1.63824 4.23568 -1.86073
v 1.66586 4.10342 -0.66755
v 1.60437 4.32101 -0.61730
v 1.48913 3.24130 -1.36381
v 1.52759 3.80021 -1.33859
v 1.63388 3.71125 -1.60418
v 1.65898 3.98422 -0.51005
v 1.61734 3.81967 -1.27933
v 1.52759 3.80021 -1.33859
v 1.55609 3.76707 -0.34568
v 1.71422 3.86885 -0.42836
v 1.60384 4.16136 -0.42609
v 1.28365 3.80374 -1.33047
v 1.63388 3.71125 -1.60418
v 1.41161 4.05982 -1.84869
v 1.63824 4.23568 -1.86073
v 1.48692 3.86962 -0.32894
v 1.39271 3.57150 -1.31694
v 1.52759 3.80021 -1.33859
v 1.48692 3.86962 -0.32894
v 1.42202 3.94653 -0.35221
v 1.54906 3.75198 -0.36783
v 1.32802 4.14113 -0.34247
v 1.39890 3.69294 -1.63432
v 1.54906 3.75198 -0.36783
v 1.42202 3.94653 -0.35221
v 1.32754 3.96935 -0.33969
v 1.38911 4.24260 -1.90098
v 1.43984 3.34891 -1.32958
v 1.28365 3.80374 -1.33047
v 1.16964 3.69913 -1.63992
v 1.39890 3.69294 -1.63432
v 1.10097 3.93597 -0.39668
v 1.21704 3.47326 -1.26153
v 1.34121 3.16606 -1.26882
v 1.54906 3.75198 -0.36783
v 1.10097 3.93597 -0.39668
v 1.32416 3.66849 -0.29566
v 1.32802 4.14113 -0.34247
v 1.19091 4.23738 -1.91590
v 1.32802 4.14113 -0.34247
v 1.39271 3.57150 -1.31694
v 1.21704 3.47326 -1.26153
v 1.21372 3.50244 -1.22607
v 1.34121 3.16606 -1.26882
v 1.42559 2.90284 -1.22138
v 1.21372 3.50244 -1.22607
v 1.21397 3.82687 -1.72212
v 1.19973 3.94140 -1.77028
v 1.15083 3.72977 -1.24846
v 1.32754 3.96935 -0.33969
v 1.32802 4.14113 -0.34247
v 1.30842 3.99725 -0.18938
v 1.17803 3.83954 -1.30416
v 1.21177 3.82216 -1.28519
v 1.21704 3.47326 -1.26153
v 1.27559 3.18747 -1.14113
v 1.26632 4.29990 -0.05183
v 1.21372 3.50244 -1.22607
v 1.21372 3.50244 -1.22607
v 1.27559 3.18747 -1.14113
v 1.23335 3.19885 -1.14072
v 1.23335 3.19885 -1.14072
v 1.15410 3.62014 -1.17177
v 1.21372 3.50244 -1.22607
v 1.10097 3.93597 -0.39668
v 1.27284 3.61804 -0.36340
v 1.32416 3.66849 -0.29566
v 1.16964 3.69913 -1.63992
v 1.26854 4.04196 0.00433
v 1.32754 3.96935 -0.33969
v 1.30842 3.99725 -0.18938
v 1.17803 3.83954 -1.30416
v 1.28365 3.80374 -1.33047
v 1.21177 3.82216 -1.28519
v 1.19973 3.94140 -1.77028
v 1.21397 3.82687 -1.72212
v 1.14416 3.88027 -1.63946
v 1.15083 3.72977 -1.24846
v 1.09611 3.75379 -1.17387
v 1.17803 3.83954 -1.30416
v 1.19091 4.23738 -1.91590
v 1.19973 3.94140 -1.77028
v 1.13945 4.09713 -1.48828
v 1.16964 3.69913 -1.63992
v 1.16964 3.69913 -1.63992
v 1.14416 3.88027 -1.63946
v 1.14618 3.34281 -0.65721
v 0.99006 3.70152 -0.63855
v 1.23335 3.19885 -1.14072
v 0.99006 3.70152 -0.63855
v 1.33960 3.30594 -0.40132
v 1.17803 3.83954 -1.30416
v 1.16591 3.97180 -1.35203
v 1.12382 4.11309 -1.37142
v 1.14416 3.88027 -1.63946
v 1.15410 3.62014 -1.17177
v 1.23335 3.19885 -1.14072
v 0.99737 3.76410 -1.16414
v 0.94773 4.01505 0.01224
v 1.26854 4.04196 0.00433
v 1.21177 3.82216 -1.28519
v 1.15083 3.72977 -1.24846
v 1.77764 4.09333 -0.83023
v 1.88169 3.58328 -1.12084
v 1.72685 3.50716 -1.27352
v 1.72285 3.84876 -0.53086
v 1.10097 3.93597 -0.39668
v 1.10097 3.93597 -0.39668
v 1.30842 3.99725 -0.18938
v 1.51699 3.69447 -0.32024
v 1.63986 3.74976 -0.40206
v 1.54906 3.75198 -0.36783
v 1.54014 3.45772 -0.01778
v 1.63370 3.73962 -0.28781
v 1.52492 3.69980 -0.29196
v 1.52492 3.69980 -0.29196
v 1.63370 3.73962 -0.28781
v 1.51699 3.69447 -0.32024
v 1.45861 3.22348 0.10177
v 1.57431 3.28102 0.14198
v 1.55609 3.76707 -0.34568
v 1.48692 3.86962 -0.32894
v 1.54906 3.75198 -0.36783
v 1.54014 3.45772 -0.01778
v 1.52492 3.69980 -0.29196
v 1.51699 3.69447 -0.32024
v 1.50135 2.88099 -0.39366
v 1.32416 3.66849 -0.29566
v 1.42246 3.12656 -0.34758
v 1.42613 3.09162 -0.54149
v 1.32536 3.36845 -0.00369
v 1.36158 3.16773 0.14429
v 1.55324 3.03411 0.26799
v 1.57431 3.28102 0.14198
v 1.40050 3.16733 -0.08215
v 1.45861 3.22348 0.10177
v 1.36158 3.16773 0.14429
v 1.57431 3.28102 0.14198
v 1.43984 3.34891 -1.32958
v 1.48913 3.24130 -1.36381
v 1.50193 3.04619 -1.28783
v 1.43355 3.01568 0.22938
v 1.38556 3.11005 0.04664
v 1.40050 3.16733 -0.08215
v 1.44557 2.83689 -1.09306
v 1.43355 3.01568 0.22938
v 1.50193 3.04619 -1.28783
v 1.34121 3.16606 -1.26882
v 1.43984 3.34891 -1.32958
v 1.42613 3.09162 -0.54149
v 1.43994 2.85323 -0.97917
v 1.43994 2.85323 -0.97917
v 1.32373 3.05362 -0.79439
v 1.36046 3.10089 -0.53391
v 1.33960 3.30594 -0.40132
v 1.32582 3.34242 -0.13175
v 1.42246 3.12656 -0.34758
v 1.36046 3.10089 -0.53391
v 1.38556 3.11005 0.04664
v 1.43355 3.01568 0.22938
v 1.36158 3.16773 0.14429
v 1.27559 3.18747 -1.14113
v 1.30984 3.49920 -0.10813
v 1.33389 3.25922 -0.44818
v 1.36158 3.16773 0.14429
v 1.32536 3.36845 -0.00369
v 1.30984 3.49920 -0.10813
v 1.29036 3.67558 -0.31959
v 1.27284 3.61804 -0.36340
v 1.28182 3.22301 -0.70027
v 1.26195 3.19925 -0.93294
v 1.32416 3.66849 -0.29566
v 1.27284 3.61804 -0.36340
v 1.29036 3.67558 -0.31959
v 1.29036 3.67558 -0.31959
v 1.14618 3.34281 -0.65721
v 1.33389 3.25922 -0.44818
v 1.20220 3.22245 -0.66586
v 1.28182 3.22301 -0.70027
v 1.27559 3.18747 -1.14113
v 1.26195 3.19925 -0.93294
v 1.23335 3.19885 -1.14072
v 1.20220 3.22245 -0.66586
v 1.10097 3.93597 -0.39668
v 1.27284 3.61804 -0.36340
v 1.14618 3.34281 -0.65721
v 1.23335 3.19885 -1.14072
v 1.20220 3.22245 -0.66586
v 0.99006 3.70152 -0.63855
v 1.54014 3.45772 -0.01778
v 1.42559 2.90284 -1.22138
v 1.42246 3.12656 -0.34758
v 1.32582 3.34242 -0.13175
v 1.36158 3.16773 0.14429
v 1.33389 3.25922 -0.44818
v 1.33960 3.30594 -0.40132
v 1.33960 3.30594 -0.40132
v 2.44013 2.90925 -0.50466
v 2.45399 3.06641 -1.00363
v 2.42235 3.21159 -0.79898
v 2.46242 2.90255 -0.91543
v 2.32023 2.96913 -0.96807
v 2.43165 3.03327 -0.59501
v 2.43165 3.03327 -0.59501
v 2.26828 2.96715 -0.55772
v 2.31573 3.15829 -0.75464
v 2.42235 3.21159 -0.79898
v 2.45399 3.06641 -1.00363
v 2.26176 3.05464 -1.00802
v 2.34297 3.07320 -0.65673
v 2.29356 2.99111 -1.25283
v 2.31573 3.15829 -0.75464
v 2.32622 3.07186 -0.70392
v 2.34297 3.07320 -0.65673
v 2.30788 3.11855 -0.75996
v 2.22490 3.15726 -0.77841
v 2.28379 2.96005 -0.95821
v 2.26176 3.05464 -1.00802
v 2.32023 2.96913 -0.96807
v 2.32034 2.99867 -0.96026
v 2.32023 2.96913 -0.96807
v 2.32034 2.99867 -0.96026
v 2.29356 2.99111 -1.25283
v 1.93725 2.99215 -1.26227
v 2.32622 3.07186 -0.70392
v 2.32023 2.96913 -0.96807
v 2.28324 2.99754 -0.81312
v 2.26461 3.04242 -0.64610
v 2.32034 2.99867 -0.96026
v 2.30788 3.11855 -0.75996
v 2.24439 3.09717 -0.83452
v 2.26176 3.05464 -1.00802
v 2.42235 3.21159 -0.79898
v 2.45399 3.06641 -1.00363
v 2.22983 3.15914 -0.85205
v 2.28324 2.99754 -0.81312
v 2.30788 3.11855 -0.75996
v 2.31573 3.15829 -0.75464
v 2.22490 3.15726 -0.77841
v 2.27635 2.89412 -0.33847
v 2.28526 3.14888 -0.50469
v 2.24885 3.13572 -0.03056
v 2.28324 2.99754 -0.81312
v 2.26461 3.04242 -0.64610
v 2.34297 3.07320 -0.65673
v 2.28526 3.14888 -0.50469
v 2.23787 2.92735 -0.37997
v 2.26176 3.05464 -1.00802
v 2.26176 3.05464 -1.00802
v 2.32034 2.99867 -0.96026
v 2.24439 3.09717 -0.83452
v 2.22674 3.41751 -0.15814
v 2.21531 3.15547 -0.70210
v 2.24439 3.09717 -0.83452
v 2.22490 3.15726 -0.77841
v 2.42235 3.21159 -0.79898
v 2.22983 3.15914 -0.85205
v 2.22490 3.15726 -0.77841
v 2.26461 3.04242 -0.64610
v 2.28324 2.99754 -0.81312
v 2.26828 2.96715 -0.55772
v 2.23787 2.92735 -0.37997
v 2.23769 3.11677 -0.62282
v 2.22983 3.15914 -0.85205
v 2.22204 3.14919 -0.51362
v 2.24885 3.13572 -0.03056
v 2.18815 3.07234 -0.10661
v 2.27635 2.89412 -0.33847
v 2.21436 3.48344 -0.76388
v 2.22204 3.14919 -0.51362
v 2.28526 3.14888 -0.50469
v 2.22204 3.14919 -0.51362
v 2.18806 3.19641 -0.42636
v 2.19966 3.25813 -0.81411
v 2.22490 3.15726 -0.77841
v 2.21442 3.46820 -0.76931
v 2.17430 3.23359 -0.40226
v 2.28526 3.14888 -0.50469
v 2.18806 3.19641 -0.42636
v 2.22674 3.41751 -0.15814
v 2.28526 3.14888 -0.50469
v 2.03819 3.55159 -0.05388
v 2.17806 3.54757 -0.00163
v 2.18793 3.30923 0.20676
v 2.17430 3.23359 -0.40226
v 2.18806 3.19641 -0.42636
v 2.19966 3.25813 -0.81411
v 2.06141 3.19273 -0.92450
v 2.17806 3.54757 -0.00163
v 2.17806 3.54757 -0.00163
v 1.98036 3.27578 0.20751
v 2.18793 3.30923 0.20676
v 2.17430 3.23359 -0.40226
v 2.18806 3.19641 -0.42636
v 2.17478 3.14596 -0.39091
v 2.10988 3.73127 -0.44806
v 2.10801 2.86114 0.05158
v 2.10903 3.06760 -0.19323
v 2.10903 3.06760 -0.19323
v 2.18339 3.00903 -0.35200
v 2.18815 3.07234 -0.10661
v 2.17430 3.23359 -0.40226
v 2.17478 3.14596 -0.39091
v 2.13295 3.22389 -0.37556
v 2.07800 3.24767 -0.83952
v 2.21531 3.15547 -0.70210
v 2.19966 3.25813 -0.81411
v 2.21436 3.48344 -0.76388
v 2.21442 3.46820 -0.76931
v 2.03340 3.42525 -0.81937
v 2.15209 2.93691 -0.37018
v 2.18339 3.00903 -0.35200
v 2.10903 3.06760 -0.19323
v 2.18806 3.19641 -0.42636
v 2.17430 3.23359 -0.40226
v 2.13295 3.22389 -0.37556
v 2.09191 3.15351 -0.71018
v 2.23769 3.11677 -0.62282
v 2.13295 3.22389 -0.37556
v 2.17478 3.14596 -0.39091
v 2.18806 3.19641 -0.42636
v 2.17430 3.23359 -0.40226
v 2.23769 3.11677 -0.62282
v 2.09191 3.15351 -0.71018
v 2.03340 3.42525 -0.81937
v 2.18793 3.30923 0.20676
v 1.98036 3.27578 0.20751
v 2.02446 3.61753 -0.06702
v 2.01068 3.08208 0.31631
v 2.07800 3.24767 -0.83952
v 2.21442 3.46820 -0.76931
v 2.05321 3.83877 -0.28907
v 1.92971 3.07495 -1.13146
v 2.03635 3.07628 -1.11941
v 2.05734 3.15212 0.03588
v 2.03384 3.53076 -0.00368
v 2.07800 3.24767 -0.83952
v 2.03340 3.42525 -0.81937
v 2.09191 3.15351 -0.71018
v 2.05734 3.15212 0.03588
v 2.03819 3.55159 -0.05388
v 2.06141 3.19273 -0.92450
v 2.03819 3.55159 -0.05388
v 2.05734 3.15212 0.03588
v 1.98036 3.27578 0.20751
v 2.03590 3.17660 -0.95822
v 1.87114 3.82746 -0.31234
v 2.05321 3.83877 -0.28907
v 2.10988 3.73127 -0.44806
v 2.03384 3.53076 -0.00368
v 2.00591 3.38572 -0.89391
v 1.87175 3.58147 -0.68616
v 2.02446 3.61753 -0.06702
v 1.99189 3.17665 -0.93422
v 1.96507 3.12204 -1.00338
v 1.96785 3.06244 -1.06813
v 1.98790 3.50651 -0.75107
v 1.97607 3.27548 -1.14691
v 2.00547 3.30446 -1.08230
v 2.03590 3.17660 -0.95822
v 2.03590 3.17660 -0.95822
v 2.00547 3.30446 -1.08230
v 1.94176 3.30753 -1.03618
v 1.99700 3.19690 -0.90783
v 1.97607 3.27548 -1.14691
v 2.03590 3.17660 -0.95822
v 1.90364 3.24912 -1.19730
v 1.99700 3.19690 -0.90783
v 1.95301 3.35635 -0.89920
v 2.06141 3.19273 -0.92450
v 1.99189 3.17665 -0.93422
v 1.95845 3.54861 -0.76720
v 2.00591 3.38572 -0.89391
v 2.00985 3.40228 -0.96082
v 1.95845 3.54861 -0.76720
v 2.00591 3.38572 -0.89391
v 1.96507 3.12204 -1.00338
v 1.98790 3.50651 -0.75107
v 1.85344 3.79489 -0.29011
v 2.05321 3.83877 -0.28907
v 2.00547 3.30446 -1.08230
v 1.93790 3.34413 -1.01623
v 1.94176 3.30753 -1.03618
v 1.88169 3.58328 -1.12084
v 1.99700 3.19690 -0.90783
v 1.99189 3.17665 -0.93422
v 1.95301 3.35635 -0.89920
v 1.93790 3.34413 -1.01623
v 2.00547 3.30446 -1.08230
v 2.00985 3.40228 -0.96082
v 2.03635 3.07628 -1.11941
v 1.92971 3.07495 -1.13146
v 1.96785 3.06244 -1.06813
v 1.94176 3.30753 -1.03618
v 1.83757 3.68374 -0.15663
v 2.00591 3.38572 -0.89391
v 1.95301 3.35635 -0.89920
v 2.00985 3.40228 -0.96082
v 1.90253 3.27985 0.21532
v 1.93790 3.34413 -1.01623
v 1.93790 3.34413 -1.01623
v 1.96507 3.12204 -1.00338
v 1.92971 3.07495 -1.13146
v 1.90364 3.24912 -1.19730
v 2.01068 3.08208 0.31631
v 1.90364 3.24912 -1.19730
v 1.77764 4.09333 -0.83023
v 1.96785 3.06244 -1.06813
v 1.95845 3.54861 -0.76720
v 1.87175 3.58147 -0.68616
v 1.98790 3.50651 -0.75107
v 1.88042 3.75272 -0.42161
v 1.84603 3.23034 -1.31590
v 1.87114 3.82746 -0.31234
v 1.78035 3.57242 -1.14787
v 1.77890 3.25739 0.18002
v 1.85570 3.75108 -0.39848
v 1.87426 3.73492 -0.34323
v 1.85344 3.79489 -0.29011
v 1.88042 3.75272 -0.42161
v 1.87426 3.73492 -0.34323
v 1.85344 3.79489 -0.29011
v 1.87114 3.82746 -0.31234
v 1.88042 3.75272 -0.42161
v 1.85344 3.79489 -0.29011
v 1.87426 3.73492 -0.34323
v 1.85570 3.75108 -0.39848
v 1.79036 3.11534 -1.36456
v 1.80192 3.76307 -0.70413
v 1.78035 3.57242 -1.14787
v 1.72797 3.73291 -0.44239
v 1.77519 2.85870 -1.17583
v 1.82681 3.82602 -0.32595
v 1.82681 3.82602 -0.32595
v 1.72685 3.50716 -1.27352
v 1.55324 3.03411 0.26799
v 1.72797 3.73291 -0.44239
v 1.85352 3.87690 -0.77783
v 1.79036 3.11534 -1.36456
v 1.73966 3.25999 -1.37305
v 1.54014 3.45772 -0.01778
v 1.63370 3.73962 -0.28781
v 1.72285 3.84876 -0.53086
v 1.71422 3.86885 -0.42836
v 1.64668 3.79226 -0.35111
v 1.78587 2.96307 -1.27360
v 1.82681 3.82602 -0.32595
v 1.64668 3.79226 -0.35111
v 1.56924 3.00276 -1.32458
v 1.79036 3.11534 -1.36456
v 1.54352 3.09689 -1.36507
v 1.77890 3.25739 0.18002
v 1.90253 3.27985 0.21532
v 1.57431 3.28102 0.14198
v 1.63986 3.74976 -0.40206
v 1.72797 3.73291 -0.44239
v 1.71422 3.86885 -0.42836
v 1.63986 3.74976 -0.40206
v 1.57431 3.28102 0.14198
v 1.64668 3.79226 -0.35111
v 1.63986 3.74976 -0.40206
v 1.63370 3.73962 -0.28781
v 1.63986 3.74976 -0.40206
v 1.51699 3.69447 -0.32024
v 1.63370 3.73962 -0.28781
v 1.56924 3.00276 -1.32458
v 1.48913 3.24130 -1.36381
v 1.54906 3.75198 -0.36783
v 1.57431 3.28102 0.14198
v 1.54073 2.95190 -1.23669
v 1.71422 3.86885 -0.42836
v 1.55609 3.76707 -0.34568
v 1.54906 3.75198 -0.36783
v 1.50193 3.04619 -1.28783
v 1.54352 3.09689 -1.36507
v 1.56924 3.00276 -1.32458
v 1.48913 3.24130 -1.36381
v 1.48913 3.24130 -1.36381
v 2.28379 2.96005 -0.95821
v 2.24439 3.09717 -0.83452
v 2.22490 3.15726 -0.77841
v 2.21531 3.15547 -0.70210
v 2.00985 3.40228 -0.96082
v 1.73966 3.25999 -1.37305
vt 0.15860 0.42950
vt 0.15419 0.43710
vt 0.12686 0.42822
vt 0.52615 0.71263
vt 0.51838 0.70755
vt 0.52222 0.69996
vt 0.77492 0.29211
vt 0.76040 0.32984
vt 0.75717 0.31253
vt 0.13170 0.40988
vt 0.65755 0.91754
vt 0.68660 0.92511
vt 0.68533 0.92983
vt 0.16972 0.40312
vt 0.78978 0.29228
vt 0.00268 0.73337
vt 0.01172 0.73337
vt 0.00922 0.73757
vt 0.70666 0.93598
vt 0.51666 0.71556
vt 0.76406 0.29926
vt 0.23274 0.44647
vt 0.21975 0.46502
vt 0.21931 0.43628
vt 0.02370 0.01344
vt 0.02355 0.01917
vt 0.80132 0.15204
vt 0.77133 0.15332
vt 0.78353 0.14375
vt 0.51825 0.68224
vt 0.52049 0.68373
vt 0.01000 0.60851
vt 0.01924 0.60713
vt 0.01269 0.61335
vt 0.26432 0.00638
vt 0.27016 0.00213
vt 0.27368 0.00780
vt 0.76013 0.29347
vt 0.94425 0.74529
vt 0.94672 0.75208
vt 0.93861 0.74519
vt 0.23122 0.45646
vt 0.23156 0.46669
vt 0.00858 0.62188
vt 0.80215 0.14433
vt 0.17342 0.40100
vt 0.17561 0.40165
vt 0.17691 0.41650
vt 0.01042 0.01263
vt 0.92810 0.75166
vt 0.39584 0.99590
vt 0.39147 0.98834
vt 0.40138 0.99488
vt 0.37562 0.45741
vt 0.39263 0.46804
vt 0.38472 0.47170
vt 0.97686 0.20279
vt 0.97943 0.20801
vt 0.97669 0.21152
vt 0.41032 0.95503
vt 0.40888 0.96825
vt 0.98853 0.20680
vt 0.00779 0.16445
vt 0.00159 0.16964
vt 0.00234 0.16268
vt 0.23364 0.43722
vt 0.40120 0.98821
vt 0.00835 0.17214
vt 0.52983 0.72046
vt 0.52709 0.72606
vt 0.52118 0.72664
vt 0.41406 0.97397
vt 0.37385 0.81384
vt 0.36818 0.80588
vt 0.23524 0.48175
vt 0.43448 0.24867
vt 0.42726 0.23392
vt 0.42850 0.22376
vt 0.37309 0.79373
vt 0.41944 0.97383
vt 0.60644 0.23162
vt 0.59580 0.24626
vt 0.58971 0.23925
vt 0.62688 0.26316
vt 0.27417 0.70190
vt 0.27310 0.71678
vt 0.38514 0.44501
vt 0.52868 0.73366
vt 0.50775 0.74529
vt 0.26281 0.69617
vt 0.37640 0.49435
vt 0.38039 0.49507
vt 0.85519 0.43608
vt 0.85269 0.44907
vt 0.83256 0.44907
vt 0.53855 0.74872
vt 0.35769 0.20829
vt 0.33070 0.22339
vt 0.32010 0.20824
vt 0.84743 0.43398
vt 0.41230 0.45815
vt 0.42197 0.47064
vt 0.04957 0.34575
vt 0.04730 0.35200
vt 0.04776 0.33701
vt 0.82735 0.43121
vt 0.51613 0.76055
vt 0.80553 0.11919
vt 0.79054 0.11872
vt 0.78608 0.11426
vt 0.31841 0.22441
vt 0.39355 0.44836
vt 0.43599 0.46098
vt 0.52885 0.77181
vt 0.35807 0.22358
vt 0.78090 0.09998
vt 0.40757 0.43756
vt 0.38478 0.42892
vt 0.62243 0.13156
vt 0.59118 0.13156
vt 0.61137 0.11981
vt 0.04758 0.36592
vt 0.31804 0.23721
vt 0.77668 0.12009
vt 0.32687 0.96099
vt 0.32687 0.97443
vt 0.32390 0.97433
vt 0.17804 0.41286
vt 0.18117 0.39508
vt 0.18079 0.43602
vt 0.34805 0.23573
vt 0.34007 0.23687
vt 0.44157 0.45593
vt 0.89500 0.56204
vt 0.90589 0.56396
vt 0.89491 0.57196
vt 0.54640 0.75402
vt 0.43984 0.46077
vt 0.17846 0.43420
vt 0.18709 0.41559
vt 0.91234 0.58467
vt 0.42423 0.45098
vt 0.55217 0.97445
vt 0.53079 0.97445
vt 0.53199 0.97190
vt 0.13241 0.46832
vt 0.13319 0.44066
vt 0.13768 0.44867
vt 0.19038 0.91854
vt 0.19760 0.94076
vt 0.19133 0.94187
vt 0.35789 0.23835
vt 0.89535 0.58501
vt 0.01964 0.17865
vt 0.00976 0.17779
vt 0.00288 0.98116
vt 0.00288 0.98854
vt 0.00110 0.98323
vt 0.93950 0.86133
vt 0.94755 0.86105
vt 0.94620 0.86870
vt 0.13802 0.43342
vt 0.13223 0.43133
vt 0.60150 0.10820
vt 0.76922 0.35657
vt 0.78567 0.35537
vt 0.78064 0.38009
vt 0.95717 0.86441
vt 0.80458 0.40369
vt 0.79660 0.39217
vt 0.17113 0.35084
vt 0.19435 0.34099
vt 0.17186 0.38380
vt 0.32813 0.24861
vt 0.36458 0.25635
vt 0.78782 0.40138
vt 0.78347 0.39295
vt 0.77850 0.38739
vt 0.79255 0.36413
vt 0.73862 0.21469
vt 0.76587 0.21950
vt 0.72643 0.22097
vt 0.68233 0.07809
vt 0.67237 0.09628
vt 0.60303 0.10593
vt 0.60945 0.10981
vt 0.67024 0.92854
vt 0.00860 0.01917
vt 0.41974 0.95251
vt 0.36733 0.81558
vt 0.02310 0.16386
vt 0.32375 0.27102
vt 0.68233 0.10472
vt 0.82199 0.35898
vt 0.81908 0.36892
vt 0.81809 0.36262
vt 0.12656 0.06522
vt 0.10146 0.07338
vt 0.10250 0.06583
vt 0.38287 0.00966
vt 0.38154 0.01716
vt 0.38117 0.00867
vt 0.86005 0.34018
vt 0.86181 0.34890
vt 0.87502 0.99726
vt 0.88310 0.99869
vt 0.87398 0.99876
vt 0.01015 0.55485
vt 0.01015 0.53079
vt 0.01171 0.52960
vt 0.57233 0.48937
vt 0.81991 0.34626
vt 0.55635 0.47730
vt 0.56885 0.47241
vt 0.84581 0.33661
vt 0.64338 0.01842
vt 0.63604 0.03417
vt 0.62755 0.01799
vt 0.53702 0.48366
vt 0.00835 0.86193
vt 0.00566 0.86932
vt 0.00556 0.85348
vt 0.40409 0.95300
vt 0.40813 0.96002
vt 0.40513 0.97347
vt 0.18579 0.95947
vt 0.17196 0.96068
vt 0.16294 0.95835
vt 0.75197 0.73051
vt 0.64369 0.03081
vt 0.07585 0.51945
vt 0.08545 0.51033
vt 0.09635 0.51948
vt 0.54350 0.26766
vt 0.57618 0.26526
vt 0.74217 0.72444
vt 0.73527 0.70261
vt 0.54233 0.26343
vt 0.71111 0.67362
vt 0.69115 0.66305
vt 0.53062 0.26911
vt 0.71586 0.69242
vt 0.52733 0.47949
vt 0.51537 0.47106
vt 0.52366 0.47204
vt 0.76265 0.69724
vt 0.83520 0.33970
vt 0.71363 0.67764
vt 0.86186 0.33252
vt 0.68686 0.65505
vt 0.69374 0.65313
vt 0.81772 0.34457
vt 0.70622 0.65013
vt 0.73279 0.68739
vt 0.74992 0.69293
vt 0.99629 0.67756
vt 0.98980 0.67756
vt 0.99430 0.67565
vt 0.70284 0.64544
vt 0.87274 0.60463
vt 0.48393 0.27021
vt 0.49888 0.26233
vt 0.50083 0.26769
vt 0.52989 0.26888
vt 0.51625 0.26725
vt 0.52998 0.26600
vt 0.87271 0.59601
vt 0.56206 0.26182
vt 0.58559 0.26575
vt 0.10799 0.52502
vt 0.10799 0.49137
vt 0.11605 0.52163
vt 0.87040 0.62975
vt 0.84628 0.35192
vt 0.06709 0.51195
vt 0.70166 0.68518
vt 0.53764 0.47214
vt 0.67137 0.64870
vt 0.88951 0.59579
vt 0.89314 0.60015
vt 0.60635 0.26182
vt 0.26090 0.16813
vt 0.29338 0.15761
vt 0.28797 0.17319
vt 0.28250 0.15219
vt 0.10733 0.78445
vt 0.27038 0.17136
vt 0.49771 0.15638
vt 0.50173 0.14534
vt 0.48406 0.14961
vt 0.48004 0.15687
vt 0.11661 0.77848
vt 0.10406 0.77800
vt 0.49262 0.15086
vt 0.81145 0.84527
vt 0.91025 0.21908
vt 0.90978 0.22564
vt 0.90682 0.22702
vt 0.91187 0.22120
vt 0.48255 0.14368
vt 0.79269 0.81827
vt 0.69226 0.98272
vt 0.69226 0.98996
vt 0.69075 0.98866
vt 0.92825 0.22468
vt 0.92699 0.22313
vt 0.72993 0.94002
vt 0.73442 0.91721
vt 0.88296 0.03713
vt 0.90144 0.03677
vt 0.89147 0.04023
vt 0.49416 0.14554
vt 0.70360 0.98012
vt 0.70006 0.96529
vt 0.70560 0.96876
vt 0.96542 0.05067
vt 0.95003 0.03790
vt 0.96652 0.03816
vt 0.95301 0.05103
vt 0.91880 0.22656
vt 0.62075 0.99552
vt 0.61821 0.99634
vt 0.61771 0.99024
vt 0.23613 0.79382
vt 0.21636 0.79209
vt 0.23619 0.76823
vt 0.98372 0.51949
vt 0.99039 0.51031
vt 0.99442 0.51410
vt 0.92205 0.83961
vt 0.92498 0.82301
vt 0.79082 0.83601
vt 0.10796 0.98024
vt 0.11410 0.98024
vt 0.11135 0.99144
vt 0.21659 0.76324
vt 0.66200 0.88561
vt 0.65387 0.88417
vt 0.70580 0.96325
vt 0.71175 0.00370
vt 0.71175 0.01717
vt 0.70702 0.01626
vt 0.66225 0.89036
vt 0.65272 0.88898
vt 0.65934 0.89543
vt 0.66260 0.90261
vt 0.66801 0.88829
vt 0.77218 0.83577
vt 0.92620 0.83988
vt 0.24229 0.82726
vt 0.23709 0.82175
vt 0.23882 0.80191
vt 0.68166 0.86239
vt 0.67475 0.89196
vt 0.05701 0.99618
vt 0.05434 0.99937
vt 0.04830 0.99616
vt 0.76402 0.84403
vt 0.65906 0.88356
vt 0.68063 0.86289
vt 0.99647 0.42331
vt 0.99647 0.43461
vt 0.99509 0.42601
vt 0.20694 0.55380
vt 0.20443 0.58254
vt 0.19694 0.54062
vt 0.21621 0.74959
vt 0.23685 0.74866
vt 0.68492 0.89216
vt 0.68183 0.89298
vt 0.76396 0.94121
vt 0.75772 0.93061
vt 0.20667 0.54016
vt 0.41839 0.65018
vt 0.42480 0.67325
vt 0.41748 0.67267
vt 0.88045 0.00358
vt 0.88259 0.00572
vt 0.88064 0.00934
vt 0.71157 0.86969
vt 0.24517 0.72421
vt 0.22511 0.73003
vt 0.03997 0.62795
vt 0.04207 0.61608
vt 0.04646 0.63202
vt 0.52493 0.00407
vt 0.52493 0.00984
vt 0.52177 0.00491
vt 0.01951 0.03657
vt 0.03348 0.03530
vt 0.02583 0.04169
vt 0.22406 0.89318
vt 0.22353 0.89409
vt 0.21129 0.89126
vt 0.76958 0.95445
vt 0.77389 0.95747
vt 0.77051 0.96904
vt 0.01030 0.41894
vt 0.00782 0.42068
vt 0.00510 0.41887
vt 0.02754 0.02984
vt 0.03861 0.03232
vt 0.99260 0.92619
vt 0.99846 0.92619
vt 0.99640 0.92975
vt 0.19915 0.57256
vt 0.02185 0.28491
vt 0.01181 0.27964
vt 0.01011 0.26024
vt 0.24228 0.84684
vt 0.22865 0.84837
vt 0.72052 0.89548
vt 0.24253 0.70099
vt 0.76394 0.93308
vt 0.02268 0.26005
vt 0.72621 0.87177
vt 0.74439 0.91889
vt 0.74361 0.92584
vt 0.04037 0.64423
vt 0.42777 0.65028
vt 0.07163 0.14549
vt 0.08323 0.14860
vt 0.06424 0.15291
vt 0.22869 0.71415
vt 0.42672 0.64661
vt 0.06938 0.13919
vt 0.71740 0.89983
vt 0.23074 0.83383
vt 0.22798 0.69948
vt 0.75571 0.92845
vt 0.22559 0.84990
vt 0.23643 0.85502
vt 0.23264 0.86752
vt 0.72066 0.90136
vt 0.08209 0.14292
vt 0.20958 0.87430
vt 0.43103 0.64363
vt 0.75778 0.92591
vt 0.75246 0.92278
vt 0.74692 0.92126
vt 0.21250 0.88383
vt 0.08219 0.80953
vt 0.07743 0.81107
vt 0.06985 0.80204
vt 0.01164 0.56582
vt 0.01272 0.57756
vt 0.00764 0.57679
vt 0.75979 0.92679
vt 0.09777 0.02250
vt 0.11220 0.02250
vt 0.09446 0.02751
vt 0.97762 0.16375
vt 0.96681 0.16375
vt 0.97905 0.15965
vt 0.00838 0.56551
vt 0.47480 0.33714
vt 0.46809 0.34921
vt 0.46360 0.34882
vt 0.09274 0.15172
vt 0.96581 0.15992
vt 0.11006 0.02867
vt 0.08943 0.15288
vt 0.44964 0.63007
vt 0.43791 0.62566
vt 0.01030 0.40782
vt 0.00361 0.40782
vt 0.00554 0.40589
vt 0.08201 0.83059
vt 0.98095 0.52205
vt 0.98275 0.52079
vt 0.98087 0.53286
vt 0.00703 0.52079
vt 0.00808 0.51418
vt 0.01383 0.52258
vt 0.99128 0.82467
vt 0.99828 0.82467
vt 0.99536 0.82859
vt 0.98982 0.52962
vt 0.44718 0.64149
vt 0.00274 0.05579
vt 0.00254 0.05183
vt 0.00725 0.05592
vt 0.43194 0.67853
vt 0.98857 0.53205
vt 0.00988 0.04940
vt 0.63379 0.31553
vt 0.63897 0.30839
vt 0.65032 0.31331
vt 0.42090 0.68195
vt 0.08818 0.80905
vt 0.46584 0.30057
vt 0.63454 0.31074
vt 0.77012 0.09916
vt 0.77740 0.09577
vt 0.77022 0.10267
vt 0.22135 0.85744
vt 0.65639 0.30521
vt 0.44936 0.62719
vt 0.08877 0.83184
vt 0.43305 0.68979
vt 0.22073 0.85532
vt 0.22372 0.85275
vt 0.00212 0.19262
vt 0.00212 0.18344
vt 0.00483 0.18795
vt 0.00484 0.18316
vt 0.00212 0.18243
vt 0.00412 0.17401
vt 0.54517 0.00200
vt 0.54532 0.00740
vt 0.54161 0.00875
vt 0.65186 0.29765
vt 0.77763 0.08302
vt 0.66901 0.32863
vt 0.21203 0.85351
vt 0.63041 0.29333
vt 0.54163 0.00169
vt 0.45276 0.62765
vt 0.67362 0.31715
vt 0.42621 0.70518
vt 0.79536 0.08502
vt 0.77061 0.07668
vt 0.66176 0.29830
vt 0.66376 0.30370
vt 0.46650 0.66287
vt 0.46550 0.63416
vt 0.78994 0.07721
vt 0.79670 0.07617
vt 0.46677 0.62870
vt 0.11720 0.79062
vt 0.22275 0.84856
vt 0.21135 0.84461
vt 0.13141 0.79455
vt 0.11691 0.80219
vt 0.13303 0.80125
vt 0.91890 0.67745
vt 0.91742 0.68583
vt 0.91717 0.66390
vt 0.20868 0.84804
vt 0.98748 0.87092
vt 0.98221 0.87817
vt 0.98139 0.86889
vt 0.43727 0.69878
vt 0.29841 0.99520
vt 0.29533 0.99828
vt 0.29524 0.99079
vt 0.98914 0.79159
vt 0.99745 0.79763
vt 0.98915 0.79908
vt 0.13574 0.84769
vt 0.13644 0.81072
vt 0.97576 0.86600
vt 0.46368 0.67913
vt 0.13217 0.84181
vt 0.98481 0.63097
vt 0.98598 0.64432
vt 0.98422 0.64473
vt 0.13946 0.84331
vt 0.96314 0.82281
vt 0.96135 0.82947
vt 0.96163 0.81286
vt 0.15235 0.84789
vt 0.64339 0.88550
vt 0.78051 0.82855
vt 0.76138 0.83736
vt 0.75433 0.83662
vt 0.06970 0.81768
vt 0.12007 0.81169
vn 0.9913 0.1300 0.0193
vn 0.9946 0.0023 -0.1037
vn 0.9896 0.1440 -0.0058
vn 0.0623 -0.9081 0.4140
vn 0.1132 -0.8475 0.5186
vn 0.1126 -0.8197 0.5616
vn 0.8870 0.3497 -0.3014
vn 0.8800 0.3617 -0.3078
vn 0.8820 0.3649 -0.2981
vn 0.9803 0.1841 0.0720
vn 0.9186 0.3058 -0.2503
vn 0.8847 0.2904 -0.3647
vn 0.9315 0.2962 -0.2113
vn 0.9746 0.1932 0.1129
vn 0.8737 0.3562 -0.3313
vn 0.4553 -0.8903 -0.0122
vn 0.4553 -0.8903 -0.0122
vn 0.4553 -0.8903 -0.0122
vn 0.9445 0.2974 -0.1394
vn 0.0816 -0.9121 0.4017
vn 0.8998 0.3435 -0.2691
vn 0.1235 -0.6454 -0.7538
vn 0.1354 -0.6321 -0.7629
vn 0.0582 -0.6110 -0.7895
vn 0.1255 0.0817 -0.9887
vn 0.0857 0.0438 -0.9954
vn 0.3187 0.1425 0.9371
vn 0.3335 0.1697 0.9274
vn 0.3349 0.1631 0.9280
vn 0.3624 -0.8024 0.4742
vn 0.4583 -0.7784 0.4290
vn 0.8670 0.0309 0.4974
vn 0.8286 -0.0133 0.5596
vn 0.8950 0.0690 0.4406
vn 0.5647 -0.7699 0.2971
vn 0.5647 -0.7699 0.2971
vn 0.5647 -0.7699 0.2971
vn 0.9389 0.2988 -0.1706
vn 0.8525 0.2891 -0.4356
vn 0.8218 0.3144 -0.4752
vn 0.8125 0.3215 -0.4864
vn 0.3388 -0.7153 -0.6112
vn 0.1213 -0.5670 -0.8148
vn 0.9241 0.1177 0.3635
vn 0.3099 0.1331 0.9414
vn -0.2036 0.7064 0.6779
vn -0.2865 0.6973 0.6570
vn -0.0549 0.6537 0.7548
vn 0.2346 0.1864 -0.9541
vn 0.7968 0.3329 -0.5042
vn 0.4965 0.2104 0.8421
vn 0.4616 0.1292 0.8776
vn 0.4621 0.1301 0.8772
vn 0.0964 0.2135 -0.9722
vn 0.1230 0.1409 -0.9824
vn 0.3795 0.2456 -0.8920
vn 0.3378 0.7485 0.5707
vn 0.3950 0.7343 0.5521
vn 0.4098 0.7482 0.5218
vn 0.7864 0.3436 -0.5133
vn 0.8493 0.3024 -0.4327
vn 0.3864 0.7101 0.5885
vn 0.1757 -0.7934 -0.5827
vn 0.1371 -0.7877 -0.6007
vn 0.3613 -0.8005 -0.4783
vn 0.0935 -0.5670 -0.8184
vn 0.4317 0.0654 0.8997
vn -0.0317 -0.7460 -0.6651
vn 0.0569 -0.9810 0.1857
vn -0.0146 -0.9452 0.3261
vn -0.0222 -0.9412 0.3372
vn 0.8598 0.2913 -0.4194
vn 0.9137 0.4036 -0.0479
vn 0.9198 0.3742 -0.1183
vn 0.3898 -0.7307 -0.5604
vn 0.9830 0.1382 -0.1210
vn 0.9839 0.0831 -0.1581
vn 0.9858 0.0215 -0.1664
vn 0.8836 0.3945 -0.2521
vn 0.8558 0.2920 -0.4269
vn 0.9873 -0.0897 -0.1310
vn 0.9876 -0.0967 -0.1235
vn 0.9879 -0.1164 -0.1022
vn 0.9866 -0.0783 -0.1432
vn 0.9536 0.2227 0.2026
vn 0.9063 0.3108 0.2865
vn -0.1267 0.1530 -0.9801
vn -0.0176 -0.9474 0.3194
vn 0.0028 -0.9441 0.3297
vn 0.9106 0.2520 0.3277
vn 0.4979 0.1072 -0.8606
vn 0.5329 0.1004 -0.8402
vn 0.4006 0.1363 0.9061
vn 0.3871 0.1390 0.9115
vn 0.3080 0.1479 0.9398
vn -0.0992 -0.9289 0.3567
vn 0.1920 -0.4786 -0.8568
vn 0.1045 -0.3992 -0.9109
vn 0.2265 -0.3540 -0.9074
vn 0.3716 0.1558 0.9152
vn -0.2090 -0.0674 -0.9756
vn -0.0682 -0.0541 -0.9962
vn -0.7551 -0.5141 0.4068
vn -0.6697 -0.3703 0.6438
vn -0.7606 -0.5271 0.3791
vn 0.2769 0.1493 0.9492
vn 0.0025 -0.9392 0.3434
vn -0.0796 -0.2073 0.9750
vn 0.1336 0.0096 0.9910
vn -0.0213 -0.1471 0.9889
vn 0.1101 -0.2608 -0.9591
vn -0.2543 0.0410 -0.9663
vn -0.3130 -0.1373 -0.9398
vn -0.0704 -0.9368 0.3426
vn 0.0874 -0.5132 -0.8538
vn -0.1882 -0.3123 0.9312
vn -0.3198 -0.0553 -0.9459
vn -0.3505 -0.1196 -0.9289
vn 0.1228 0.4387 0.8902
vn 0.1228 0.4387 0.8902
vn 0.1228 0.4387 0.8902
vn -0.6548 -0.3498 0.6699
vn -0.0088 -0.3635 -0.9315
vn 0.1350 0.0156 0.9907
vn -0.5309 0.6293 -0.5675
vn -0.5309 0.6293 -0.5675
vn -0.5309 0.6293 -0.5675
vn -0.9292 -0.3314 -0.1635
vn -0.8704 -0.3106 -0.3820
vn -0.9309 -0.3652 0.0076
vn -0.0027 -0.4958 -0.8684
vn -0.1046 -0.4122 -0.9051
vn -0.4275 -0.1750 -0.8869
vn 0.9920 -0.0008 0.1263
vn 0.9869 0.0336 0.1579
vn 0.9854 0.0370 0.1662
vn -0.2100 -0.9001 0.3817
vn -0.5305 0.0130 -0.8476
vn -0.9026 -0.3700 0.2200
vn -0.8200 -0.2936 -0.4913
vn 0.9814 0.0528 0.1843
vn -0.3832 -0.1949 -0.9029
vn -0.0831 -0.2747 -0.9579
vn -0.0831 -0.2747 -0.9579
vn -0.0831 -0.2747 -0.9579
vn -0.8427 -0.1955 -0.5016
vn -0.9081 -0.3675 -0.2006
vn -0.8495 -0.2202 -0.4795
vn -0.6535 -0.2797 0.7034
vn -0.6535 -0.2797 0.7034
vn -0.6535 -0.2797 0.7034
vn 0.0059 -0.5425 -0.8400
vn 0.9804 0.0499 0.1904
vn 0.0952 -0.9765 0.1933
vn 0.0767 -0.9744 0.2113
vn -0.3585 -0.9122 -0.1981
vn -0.3585 -0.9122 -0.1981
vn -0.3585 -0.9122 -0.1981
vn -0.8156 -0.3075 -0.4902
vn -0.8094 -0.2085 -0.5490
vn -0.8089 -0.2044 -0.5512
vn -0.8152 -0.2757 -0.5093
vn -0.8420 -0.3010 -0.4477
vn 0.1437 -0.4346 -0.8891
vn -0.9867 -0.0598 -0.1512
vn -0.9770 0.0079 -0.2132
vn -0.9931 -0.0767 -0.0891
vn -0.7932 -0.1101 -0.5989
vn -0.9888 -0.1124 0.0981
vn -0.9762 -0.1378 0.1672
vn -0.9168 -0.3966 -0.0472
vn -0.9097 -0.4144 -0.0260
vn -0.9162 -0.3967 -0.0572
vn -0.6967 -0.3284 0.6378
vn -0.7373 -0.2838 0.6131
vn -0.9925 -0.0892 0.0832
vn -0.9899 -0.0867 0.1125
vn -0.9783 -0.1731 -0.1136
vn -0.9323 0.1930 -0.3059
vn -0.1337 -0.0932 -0.9866
vn -0.1386 -0.0987 -0.9854
vn -0.1182 -0.0762 -0.9901
vn 0.0870 -0.9666 0.2410
vn 0.0870 -0.9666 0.2410
vn 0.2254 -0.4847 -0.8451
vn 0.1285 -0.4739 -0.8711
vn 0.9343 0.2952 -0.2000
vn 0.1939 0.1472 -0.9699
vn 0.8222 0.3204 -0.4704
vn 0.9040 0.4275 -0.0077
vn 0.0674 -0.9731 0.2202
vn -0.6950 -0.3302 0.6387
vn 0.0870 -0.9666 0.2410
vn 0.0390 0.6779 0.7341
vn 0.3174 0.4932 0.8099
vn 0.2450 0.5334 0.8096
vn -0.2846 0.7107 0.6433
vn -0.2846 0.7107 0.6433
vn -0.2846 0.7107 0.6433
vn -0.3399 0.9370 -0.0813
vn -0.3399 0.9370 -0.0813
vn -0.3399 0.9370 -0.0813
vn -0.1886 0.5612 0.8059
vn -0.5005 0.5254 0.6881
vn -0.6413 -0.5240 0.5605
vn -0.6413 -0.5240 0.5605
vn -0.6413 -0.5240 0.5605
vn -0.9526 0.1998 0.2293
vn -0.9526 0.1998 0.2293
vn -0.9526 0.1998 0.2293
vn -0.9454 -0.3196 -0.0639
vn -0.1737 0.7438 0.6454
vn -0.9497 -0.3127 -0.0138
vn -0.9282 -0.3684 -0.0527
vn -0.1440 0.5547 0.8195
vn -0.2639 0.4237 0.8665
vn -0.2798 0.4047 0.8706
vn -0.2345 0.4577 0.8576
vn -0.9207 -0.3703 -0.1231
vn -0.4676 0.8797 0.0865
vn -0.4676 0.8797 0.0865
vn -0.4676 0.8797 0.0865
vn -0.8491 -0.2391 -0.4710
vn -0.8491 -0.2391 -0.4710
vn -0.8491 -0.2391 -0.4710
vn -0.1689 -0.8931 -0.4169
vn -0.1689 -0.8931 -0.4169
vn -0.1689 -0.8931 -0.4169
vn -0.9526 -0.3010 -0.0444
vn -0.3356 0.3340 0.8808
vn -0.2871 -0.2377 -0.9280
vn -0.2646 -0.2053 -0.9422
vn -0.2484 -0.1822 -0.9514
vn -0.0896 -0.9329 0.3489
vn 0.0049 -0.8781 0.4784
vn -0.8387 -0.5414 0.0596
vn -0.8702 -0.4756 0.1292
vn -0.0960 -0.9422 0.3210
vn -0.9407 -0.3165 0.1223
vn -0.9874 -0.1582 -0.0045
vn -0.1179 -0.9777 0.1739
vn -0.9163 -0.3230 0.2367
vn -0.9285 -0.3635 -0.0754
vn -0.9086 -0.4171 0.0232
vn -0.9313 -0.3639 -0.0138
vn -0.8983 -0.4363 -0.0519
vn -0.1587 0.6928 0.7035
vn -0.8273 -0.3743 0.4190
vn 0.0107 0.5946 0.8039
vn -0.9901 -0.1384 0.0246
vn -0.9925 -0.1193 0.0274
vn -0.2935 0.7206 0.6281
vn -0.9911 -0.0316 0.1290
vn -0.9202 -0.3376 0.1979
vn -0.9231 -0.3846 0.0074
vn 0.5873 0.3694 -0.7201
vn 0.5873 0.3694 -0.7201
vn 0.5873 0.3694 -0.7201
vn -0.9688 0.1389 0.2051
vn -0.7635 -0.3749 0.5258
vn 0.0628 -0.9896 0.1292
vn 0.0396 -0.9930 0.1117
vn 0.0548 -0.9923 0.1107
vn -0.2594 -0.9650 0.0376
vn -0.2057 -0.9778 0.0397
vn -0.2556 -0.9661 0.0370
vn -0.7572 -0.3900 0.5240
vn -0.5557 -0.2164 0.8027
vn -0.5557 -0.2164 0.8027
vn -0.9070 -0.4193 -0.0387
vn -0.9070 -0.4193 -0.0387
vn -0.9070 -0.4193 -0.0387
vn -0.7680 -0.3618 0.5284
vn -0.1959 0.6261 0.7548
vn -0.3041 -0.2625 -0.9157
vn -0.9111 -0.3613 0.1985
vn -0.9166 -0.3894 -0.0903
vn -0.9872 -0.1572 0.0284
vn -0.7536 -0.4126 0.5117
vn -0.7593 -0.3952 0.5170
vn -0.5557 -0.2164 0.8027
vn 0.9856 0.1227 0.1166
vn 0.9917 0.0967 0.0847
vn 0.9912 0.1178 0.0598
vn 0.9927 0.1161 0.0334
vn 0.0230 -0.5441 -0.8387
vn 0.9946 0.0964 0.0389
vn -0.1095 0.6806 0.7244
vn -0.1413 0.5640 0.8136
vn -0.1363 0.7764 0.6153
vn -0.1142 0.7604 0.6394
vn 0.0828 -0.4405 -0.8939
vn 0.0453 -0.3972 -0.9166
vn -0.1567 0.7112 0.6853
vn 0.9717 0.2194 0.0880
vn -0.9185 0.1113 0.3796
vn -0.9546 0.0166 0.2973
vn -0.9406 0.0717 0.3318
vn -0.9626 -0.0617 0.2637
vn -0.1601 0.8006 0.5774
vn 0.9720 0.2248 0.0686
vn -0.7174 -0.1757 0.6741
vn -0.7174 -0.1757 0.6741
vn -0.7174 -0.1757 0.6741
vn -0.9997 -0.0027 0.0237
vn -0.9990 -0.0323 0.0322
vn 0.0170 0.8555 -0.5176
vn 0.0165 0.8481 -0.5296
vn -0.5934 0.7546 -0.2800
vn -0.3634 0.8971 -0.2512
vn -0.5699 0.7733 -0.2778
vn -0.1626 0.7310 0.6627
vn -0.2833 -0.8306 0.4795
vn -0.3740 -0.7571 0.5356
vn -0.3427 -0.7845 0.5168
vn -0.0501 0.8168 -0.5748
vn -0.0521 0.8174 -0.5737
vn -0.0365 0.8124 -0.5819
vn -0.0683 0.8223 -0.5649
vn -0.9414 0.0559 0.3325
vn -0.2516 -0.0796 0.9646
vn -0.2516 -0.0796 0.9646
vn -0.2516 -0.0796 0.9646
vn 0.9969 0.0154 0.0770
vn 0.9954 0.0562 0.0780
vn 0.9878 0.1111 0.1089
vn -0.3836 0.8802 -0.2794
vn -0.3836 0.8802 -0.2794
vn -0.3836 0.8802 -0.2794
vn 0.1460 -0.5089 -0.8484
vn 0.1679 -0.6281 -0.7598
vn 0.9751 0.2132 0.0619
vn -0.7267 -0.6805 0.0941
vn -0.7267 -0.6805 0.0941
vn -0.7267 -0.6805 0.0941
vn 0.9813 0.1378 0.1344
vn 0.9389 0.3442 -0.0019
vn 0.9773 0.1514 0.1479
vn -0.4472 -0.6836 0.5768
vn -0.2646 0.9643 0.0068
vn -0.2646 0.9643 0.0068
vn -0.2646 0.9643 0.0068
vn 0.9380 0.3375 0.0789
vn 0.8904 0.4462 -0.0900
vn 0.9496 0.2349 0.2075
vn 0.9699 0.1604 0.1832
vn 0.9701 0.2327 0.0686
vn 0.9617 0.2695 0.0496
vn 0.1181 -0.5062 -0.8543
vn 0.0701 -0.7931 0.6050
vn 0.0685 -0.7855 0.6151
vn 0.0262 -0.7877 0.6155
vn 0.9851 0.1189 0.1243
vn 0.9757 0.1517 0.1582
vn 0.0685 0.8884 -0.4540
vn 0.0685 0.8884 -0.4540
vn 0.0685 0.8884 -0.4540
vn 0.9586 0.2752 0.0736
vn 0.9722 0.1969 0.1268
vn 0.9962 0.0324 -0.0805
vn -0.4813 0.3443 -0.8061
vn -0.4813 0.3443 -0.8061
vn -0.4813 0.3443 -0.8061
vn 0.2434 0.7851 -0.5695
vn 0.0658 0.7618 -0.6444
vn 0.2181 0.7820 -0.5838
vn 0.9755 0.1568 0.1544
vn 0.9781 0.1586 0.1351
vn 0.9551 0.1739 0.2397
vn 0.9459 0.1717 0.2754
vn 0.0209 0.8484 -0.5289
vn -0.0093 0.8648 -0.5021
vn 0.2377 0.7821 -0.5760
vn -0.0978 0.7145 0.6928
vn 0.0568 0.5870 0.8076
vn -0.1024 0.6524 0.7510
vn -0.9037 -0.0598 -0.4239
vn -0.9037 -0.0598 -0.4239
vn -0.9037 -0.0598 -0.4239
vn 0.9603 0.1416 0.2405
vn 0.9611 0.2054 0.1844
vn 0.9658 0.2100 0.1522
vn -0.2283 -0.9382 0.2600
vn -0.2147 -0.9447 0.2479
vn -0.2426 -0.9310 0.2727
vn -0.5203 -0.1125 -0.8466
vn -0.5203 -0.1125 -0.8466
vn -0.5203 -0.1125 -0.8466
vn -0.1365 0.7541 0.6424
vn -0.0752 0.8442 0.5307
vn -0.2023 0.7077 0.6769
vn 0.1136 0.5919 -0.7979
vn 0.1779 0.3305 -0.9269
vn 0.0309 0.6378 -0.7696
vn 0.7351 -0.4474 0.5093
vn 0.7351 -0.4474 0.5093
vn 0.7351 -0.4474 0.5093
vn 0.5662 -0.2903 0.7714
vn 0.5662 -0.2903 0.7714
vn 0.5662 -0.2903 0.7714
vn -0.0497 0.8276 0.5591
vn -0.0435 0.8929 0.4482
vn 0.7214 0.2608 0.6416
vn 0.7214 0.2608 0.6416
vn 0.7214 0.2608 0.6416
vn -0.0890 0.7181 -0.6902
vn 0.3990 -0.2900 -0.8699
vn 0.4515 -0.2473 -0.8573
vn 0.3562 -0.3228 -0.8769
vn 0.1233 -0.7916 0.5985
vn 0.1447 -0.7841 0.6035
vn 0.9587 0.1836 0.2172
vn 0.9538 0.2223 0.2024
vn 0.0427 0.8352 -0.5483
vn 0.3254 -0.3454 -0.8803
vn 0.9585 0.1301 0.2537
vn 0.0246 0.8554 -0.5173
vn -0.0609 0.8542 -0.5164
vn -0.2549 -0.9245 0.2835
vn 0.0622 0.7117 0.6997
vn 0.9552 0.2566 -0.1472
vn 0.7669 0.4848 -0.4204
vn 0.9694 0.2359 0.0674
vn 0.9706 0.1391 0.1962
vn -0.1126 0.9212 0.3724
vn 0.8773 0.2814 -0.3887
vn 0.9571 0.2335 0.1714
vn 0.2495 -0.7291 0.6373
vn 0.9359 0.2722 0.2237
vn -0.0288 0.8870 -0.4609
vn 0.0154 0.8284 -0.5599
vn 0.0193 0.8314 -0.5553
vn 0.0400 0.8236 -0.5657
vn 0.9552 0.2348 0.1801
vn 0.7796 0.3867 -0.4926
vn 0.0425 0.8035 -0.5938
vn -0.0827 0.6854 0.7235
vn -0.1287 0.8575 -0.4981
vn -0.3696 0.7643 -0.5285
vn -0.5533 0.6008 -0.5769
vn 0.0263 0.6705 -0.7415
vn 0.7390 0.1748 -0.6506
vn 0.9017 0.1332 -0.4113
vn 0.9232 -0.1310 -0.3614
vn 0.3860 0.6608 0.6437
vn 0.4544 0.6737 0.5828
vn 0.4391 0.6713 0.5972
vn -0.1018 0.7987 -0.5931
vn 0.5857 -0.6266 -0.5141
vn 0.6790 -0.5082 -0.5298
vn 0.6269 -0.5782 -0.5222
vn -0.2516 -0.0170 -0.9677
vn -0.0364 0.1291 -0.9910
vn -0.1880 0.0273 -0.9818
vn 0.3623 0.6552 0.6629
vn 0.9523 0.3042 0.0229
vn 0.9738 0.2005 0.1070
vn 0.9653 0.2528 0.0652
vn 0.7712 0.5797 -0.2629
vn 0.0102 0.1594 -0.9872
vn 0.7029 -0.4721 -0.5320
vn 0.8324 0.5459 -0.0949
vn -0.0495 0.7302 0.6814
vn -0.1568 0.6974 0.6994
vn 0.5357 -0.3599 0.7639
vn 0.5357 -0.3599 0.7639
vn 0.5357 -0.3599 0.7639
vn 0.4903 0.2839 -0.8240
vn 0.8880 0.2654 -0.3755
vn 0.9289 0.2536 -0.2698
vn 0.9553 0.2328 -0.1824
vn 0.1495 -0.7727 0.6169
vn 0.1495 -0.7727 0.6169
vn 0.1495 -0.7727 0.6169
vn -0.0364 0.9760 0.2148
vn -0.0364 0.9760 0.2148
vn -0.0364 0.9760 0.2148
vn 0.9634 0.2176 -0.1566
vn -0.1300 0.7242 0.6772
vn 0.4912 -0.8518 -0.1819
vn 0.5726 -0.8159 -0.0800
vn 0.5835 -0.8095 -0.0652
vn -0.1019 0.5152 0.8510
vn 0.9727 0.1816 -0.1445
vn 0.6286 -0.7778 0.0001
vn 0.9262 0.1901 -0.3256
vn 0.8922 -0.1308 -0.4323
vn 0.8918 0.1499 -0.4268
vn -0.1330 0.4443 0.8859
vn 0.4486 0.2273 -0.8644
vn 0.9486 0.3163 0.0128
vn 0.7978 0.4603 -0.3895
vn 0.6700 0.5136 0.5361
vn 0.7690 0.3794 0.5145
vn 0.6475 0.6218 0.4406
vn 0.0007 0.9140 -0.4056
vn 0.7466 0.1411 -0.6502
vn -0.1377 0.6083 0.7817
vn 0.2276 0.2314 -0.9459
vn -0.1735 0.4342 0.8840
vn 0.0053 0.9905 -0.1371
vn 0.1517 0.9613 0.2302
vn -0.9665 -0.2234 -0.1266
vn -0.9665 -0.2234 -0.1266
vn -0.9665 -0.2234 -0.1266
vn -0.9104 0.3014 -0.2834
vn -0.9104 0.3014 -0.2834
vn -0.9104 0.3014 -0.2834
vn 0.8537 0.4888 -0.1798
vn 0.8781 0.4497 -0.1635
vn 0.8644 0.4721 -0.1728
vn 0.7985 -0.2899 -0.5276
vn 0.7811 0.2980 0.5487
vn 0.7667 0.3956 -0.5056
vn -0.0177 0.9053 -0.4243
vn 0.7482 -0.4312 -0.5042
vn 0.8423 0.5055 -0.1868
vn -0.1580 0.7574 0.6335
vn 0.7135 0.3957 -0.5782
vn -0.1273 0.4723 0.8722
vn 0.9460 0.2395 0.2182
vn 0.6076 0.2189 0.7635
vn 0.4962 0.1234 -0.8594
vn 0.5124 0.2615 -0.8180
vn -0.1746 0.6663 0.7250
vn -0.2228 0.7403 0.6343
vn 0.9586 0.1983 0.2042
vn 0.9935 0.0937 0.0653
vn -0.2275 0.7711 0.5947
vn 0.0727 -0.6148 -0.7854
vn -0.0281 0.6895 -0.7237
vn -0.0034 0.7472 -0.6645
vn 0.0618 -0.5192 -0.8524
vn 0.0494 -0.2875 -0.9565
vn 0.0006 -0.1821 -0.9833
vn -0.2083 -0.3107 0.9274
vn -0.2083 -0.3107 0.9274
vn -0.2083 -0.3107 0.9274
vn 0.0047 0.8129 -0.5823
vn 0.4072 -0.0529 0.9118
vn 0.3878 -0.0388 0.9209
vn 0.3720 -0.0273 0.9278
vn -0.1108 0.4593 0.8814
vn -0.9793 0.1993 -0.0352
vn -0.9793 0.1993 -0.0352
vn -0.9793 0.1993 -0.0352
vn -0.3750 0.9250 0.0619
vn -0.3750 0.9250 0.0619
vn -0.3750 0.9250 0.0619
vn -0.6047 -0.5210 -0.6024
vn -0.0365 -0.0050 -0.9993
vn 0.3525 -0.0134 0.9357
vn -0.1647 0.6438 0.7473
vn -0.4834 -0.6805 -0.5506
vn 0.6217 -0.7249 0.2967
vn 0.6217 -0.7249 0.2967
vn 0.6217 -0.7249 0.2967
vn -0.6262 -0.4090 -0.6637
vn -0.9145 -0.3425 -0.2153
vn -0.9145 -0.3425 -0.2153
vn -0.9145 -0.3425 -0.2153
vn -0.6055 -0.3230 -0.7274
vn 0.9258 0.3759 -0.0393
vn 0.9688 0.2451 0.0369
vn 0.9554 0.2761 0.1045
vn 0.9509 0.2826 0.1261
vn 0.8834 0.3489 -0.3128
vn -0.0082 -0.0391 -0.9992
f 283/283/283 284/284/284 285/285/285
f 284/284/284 287/287/287 282/282/282
f 290/290/290 288/288/288 291/291/291
f 293/293/293 292/292/292 286/286/286
f 290/290/290 294/294/294 288/288/288
f 296/296/296 297/297/297 298/298/298
f 299/299/299 297/297/297 296/296/296
f 291/291/291 300/300/300 290/290/290
f 302/302/302 303/303/303 304/304/304
f 305/305/305 297/297/297 306/306/306
f 306/306/306 297/297/297 299/299/299
f 309/309/309 310/310/310 311/311/311
f 288/288/288 294/294/294 312/312/312
f 313/313/313 314/314/314 315/315/315
f 288/288/288 312/312/312 289/289/289
f 316/316/316 317/317/317 318/318/318
f 316/316/316 319/319/319 317/317/317
f 320/320/320 298/298/298 297/297/297
f 321/321/321 322/322/322 323/323/323
f 324/324/324 325/325/325 326/326/326
f 327/327/327 328/328/328 329/329/329
f 333/333/333 334/334/334 335/335/335
f 336/336/336 326/326/326 325/325/325
f 337/337/337 563/563/563 338/338/338
f 314/314/314 339/339/339 315/315/315
f 340/340/340 341/341/341 342/342/342
f 343/343/343 344/344/344 337/337/337
f 337/337/337 344/344/344 563/563/563
f 564/564/564 301/301/301 332/332/332
f 347/347/347 343/343/343 337/337/337
f 332/332/332 295/295/295 348/348/348
f 331/331/331 349/349/349 330/330/330
f 343/343/343 347/347/347 345/345/345
f 350/350/350 351/351/351 352/352/352
f 353/353/353 354/354/354 347/347/347
f 347/347/347 346/346/346 345/345/345
f 346/346/346 347/347/347 354/354/354
f 355/355/355 356/356/356 357/357/357
f 358/358/358 348/348/348 295/295/295
f 359/359/359 337/337/337 338/338/338
f 358/358/358 565/565/565 348/348/348
f 347/347/347 360/360/360 353/353/353
f 565/565/565 358/358/358 566/566/566
f 361/361/361 362/362/362 363/363/363
f 364/364/364 365/365/365 366/366/366
f 326/326/326 367/367/367 368/368/368
f 369/369/369 370/370/370 354/354/354
f 336/336/336 367/367/367 326/326/326
f 371/371/371 307/307/307 372/372/372
f 354/354/354 353/353/353 369/369/369
f 364/364/364 366/366/366 373/373/373
f 374/374/374 375/375/375 376/376/376
f 377/377/377 378/378/378 379/379/379
f 353/353/353 380/380/380 369/369/369
f 383/383/383 384/384/384 385/385/385
f 386/386/386 387/387/387 388/388/388
f 389/389/389 390/390/390 391/391/391
f 392/392/392 393/393/393 394/394/394
f 395/395/395 396/396/396 397/397/397
f 398/398/398 399/399/399 400/400/400
f 390/390/390 401/401/401 402/402/402
f 403/403/403 404/404/404 405/405/405
f 366/366/366 365/365/365 406/406/406
f 407/407/407 408/408/408 409/409/409
f 350/350/350 410/410/410 351/351/351
f 411/411/411 351/351/351 410/410/410
f 380/380/380 412/412/412 369/369/369
f 413/413/413 381/381/381 382/382/382
f 372/372/372 414/414/414 371/371/371
f 409/409/409 415/415/415 407/407/407
f 412/412/412 380/380/380 416/416/416
f 390/390/390 389/389/389 401/401/401
f 417/417/417 418/418/418 307/307/307
f 385/385/385 419/419/419 383/383/383
f 418/418/418 372/372/372 307/307/307
f 374/374/374 420/420/420 375/375/375
f 421/421/421 422/422/422 423/423/423
f 413/413/413 382/382/382 424/424/424
f 374/374/374 425/425/425 420/420/420
f 422/422/422 421/421/421 426/426/426
f 369/369/369 412/412/412 427/427/427
f 351/351/351 411/411/411 428/428/428
f 429/429/429 413/413/413 424/424/424
f 417/417/417 307/307/307 308/308/308
f 372/372/372 418/418/418 430/430/430
f 431/431/431 432/432/432 433/433/433
f 412/412/412 434/434/434 427/427/427
f 435/435/435 422/422/422 426/426/426
f 392/392/392 436/436/436 433/433/433
f 437/437/437 375/375/375 420/420/420
f 372/372/372 430/430/430 438/438/438
f 439/439/439 418/418/418 440/440/440
f 418/418/418 439/439/439 430/430/430
f 392/392/392 394/394/394 441/441/441
f 442/442/442 443/443/443 444/444/444
f 445/445/445 446/446/446 447/447/447
f 372/372/372 438/438/438 448/448/448
f 449/449/449 450/450/450 451/451/451
f 452/452/452 453/453/453 454/454/454
f 445/445/445 447/447/447 455/455/455
f 456/456/456 457/457/457 458/458/458
f 422/422/422 435/435/435 459/459/459
f 460/460/460 454/454/454 453/453/453
f 450/450/450 461/461/461 451/451/451
f 459/459/459 462/462/462 422/422/422
f 463/463/463 437/437/437 464/464/464
f 436/436/436 392/392/392 441/441/441
f 465/465/465 466/466/466 467/467/467
f 442/442/442 468/468/468 443/443/443
f 469/469/469 470/470/470 471/471/471
f 472/472/472 473/473/473 474/474/474
f 475/475/475 476/476/476 477/477/477
f 470/470/470 478/478/478 471/471/471
f 443/443/443 468/468/468 567/567/567
f 463/463/463 479/479/479 437/437/437
f 480/480/480 481/481/481 482/482/482
f 483/483/483 375/375/375 437/437/437
f 478/478/478 484/484/484 471/471/471
f 481/481/481 485/485/485 482/482/482
f 486/486/486 487/487/487 488/488/488
f 483/483/483 489/489/489 375/375/375
f 442/442/442 490/490/490 468/468/468
f 491/491/491 456/456/456 458/458/458
f 486/486/486 492/492/492 487/487/487
f 493/493/493 494/494/494 495/495/495
f 479/479/479 483/483/483 437/437/437
f 496/496/496 433/433/433 436/436/436
f 497/497/497 488/488/488 487/487/487
f 463/463/463 464/464/464 498/498/498
f 1/1/1 2/2/2 3/3/3
f 4/4/4 5/5/5 6/6/6
f 431/431/431 433/433/433 496/496/496
f 468/468/468 490/490/490 499/499/499
f 7/7/7 8/8/8 9/9/9
f 483/483/483 500/500/500 489/489/489
f 496/496/496 501/501/501 502/502/502
f 503/503/503 504/504/504 505/505/505
f 506/506/506 507/507/507 508/508/508
f 509/509/509 510/510/510 511/511/511
f 487/487/487 512/512/512 497/497/497
f 493/493/493 513/513/513 494/494/494
f 497/497/497 514/514/514 488/488/488
f 436/436/436 515/515/515 496/496/496
f 10/10/10 1/1/1 3/3/3
f 517/517/517 509/509/509 511/511/511
f 463/463/463 518/518/518 479/479/479
f 516/516/516 512/512/512 487/487/487
f 11/11/11 12/12/12 13/13/13
f 501/501/501 496/496/496 515/515/515
f 1/1/1 10/10/10 14/14/14
f 15/15/15 8/8/8 7/7/7
f 16/16/16 17/17/17 18/18/18
f 497/497/497 519/519/519 514/514/514
f 489/489/489 500/500/500 520/520/520
f 13/13/13 19/19/19 187/187/187
f 20/20/20 5/5/5 4/4/4
f 9/9/9 21/21/21 7/7/7
f 494/494/494 513/513/513 521/521/521
f 187/187/187 11/11/11 13/13/13
f 513/513/513 493/493/493 522/522/522
f 22/22/22 23/23/23 24/24/24
f 25/25/25 26/26/26 188/188/188
f 27/27/27 28/28/28 29/29/29
f 30/30/30 6/6/6 5/5/5
f 30/30/30 31/31/31 6/6/6
f 497/497/497 523/523/523 524/524/524
f 32/32/32 33/33/33 34/34/34
f 35/35/35 36/36/36 37/37/37
f 479/479/479 525/525/525 483/483/483
f 524/524/524 519/519/519 497/497/497
f 21/21/21 38/38/38 7/7/7
f 39/39/39 40/40/40 41/41/41
f 23/23/23 42/42/42 43/43/43
f 32/32/32 34/34/34 44/44/44
f 526/526/526 479/479/479 518/518/518
f 29/29/29 45/45/45 27/27/27
f 46/46/46 47/47/47 48/48/48
f 25/25/25 188/188/188 49/49/49
f 513/513/513 527/527/527 521/521/521
f 23/23/23 22/22/22 42/42/42
f 41/41/41 40/40/40 50/50/50
f 51/51/51 52/52/52 53/53/53
f 521/521/521 527/527/527 528/528/528
f 525/525/525 479/479/479 526/526/526
f 54/54/54 55/55/55 56/56/56
f 57/57/57 58/58/58 59/59/59
f 529/529/529 526/526/526 518/518/518
f 60/60/60 189/189/189 61/61/61
f 57/57/57 62/62/62 58/58/58
f 63/63/63 64/64/64 65/65/65
f 22/22/22 24/24/24 66/66/66
f 531/531/531 501/501/501 532/532/532
f 52/52/52 67/67/67 53/53/53
f 68/68/68 64/64/64 63/63/63
f 4/4/4 69/69/69 70/70/70
f 20/20/20 4/4/4 71/71/71
f 189/189/189 72/72/72 61/61/61
f 71/71/71 4/4/4 70/70/70
f 73/73/73 190/190/190 74/74/74
f 534/534/534 533/533/533 535/535/535
f 42/42/42 22/22/22 75/75/75
f 530/530/530 533/533/533 534/534/534
f 536/536/536 537/537/537 538/538/538
f 76/76/76 77/77/77 78/78/78
f 73/73/73 74/74/74 79/79/79
f 539/539/539 532/532/532 501/501/501
f 539/539/539 501/501/501 515/515/515
f 189/189/189 80/80/80 72/72/72
f 59/59/59 58/58/58 62/62/62
f 81/81/81 82/82/82 83/83/83
f 82/82/82 81/81/81 84/84/84
f 540/540/540 541/541/541 542/542/542
f 520/520/520 500/500/500 543/543/543
f 544/544/544 545/545/545 546/546/546
f 547/547/547 548/548/548 549/549/549
f 87/87/87 55/55/55 54/54/54
f 71/71/71 88/88/88 89/89/89
f 71/71/71 70/70/70 88/88/88
f 86/86/86 90/90/90 85/85/85
f 551/551/551 568/568/568 535/535/535
f 91/91/91 56/56/56 55/55/55
f 194/194/194 195/195/195 196/196/196
f 91/91/91 55/55/55 92/92/92
f 542/542/542 541/541/541 552/552/552
f 483/483/483 525/525/525 553/553/553
f 93/93/93 94/94/94 95/95/95
f 535/535/535 568/568/568 534/534/534
f 197/197/197 198/198/198 199/199/199
f 200/200/200 201/201/201 202/202/202
f 555/555/555 556/556/556 557/557/557
f 96/96/96 89/89/89 88/88/88
f 274/274/274 203/203/203 204/204/204
f 558/558/558 550/550/550 554/554/554
f 97/97/97 98/98/98 99/99/99
f 205/205/205 206/206/206 207/207/207
f 208/208/208 209/209/209 210/210/210
f 194/194/194 196/196/196 212/212/212
f 93/93/93 95/95/95 100/100/100
f 101/101/101 102/102/102 55/55/55
f 559/559/559 560/560/560 561/561/561
f 562/562/562 550/550/550 558/558/558
f 211/211/211 213/213/213 214/214/214
f 103/103/103 104/104/104 105/105/105
f 215/215/215 203/203/203 274/274/274
f 100/100/100 95/95/95 106/106/106
f 107/107/107 89/89/89 96/96/96
f 216/216/216 217/217/217 218/218/218
f 108/108/108 109/109/109 110/110/110
f 99/99/99 98/98/98 111/111/111
f 101/101/101 55/55/55 112/112/112
f 102/102/102 101/101/101 113/113/113
f 220/220/220 221/221/221 222/222/222
f 112/112/112 55/55/55 87/87/87
f 223/223/223 224/224/224 225/225/225
f 114/114/114 107/107/107 96/96/96
f 226/226/226 227/227/227 228/228/228
f 217/217/217 216/216/216 230/230/230
f 97/97/97 115/115/115 98/98/98
f 108/108/108 110/110/110 116/116/116
f 231/231/231 232/232/232 233/233/233
f 231/231/231 275/275/275 232/232/232
f 235/235/235 234/234/234 238/238/238
f 239/239/239 276/276/276 240/240/240
f 234/234/234 241/241/241 238/238/238
f 112/112/112 117/117/117 101/101/101
f 118/118/118 117/117/117 112/112/112
f 119/119/119 120/120/120 121/121/121
f 276/276/276 239/239/239 242/242/242
f 243/243/243 244/244/244 245/245/245
f 246/246/246 229/229/229 237/237/237
f 104/104/104 103/103/103 122/122/122
f 111/111/111 98/98/98 123/123/123
f 124/124/124 110/110/110 109/109/109
f 212/212/212 274/274/274 194/194/194
f 277/277/277 219/219/219 243/243/243
f 242/242/242 237/237/237 236/236/236
f 219/219/219 277/277/277 213/213/213
f 247/247/247 215/215/215 274/274/274
f 125/125/125 126/126/126 127/127/127
f 245/245/245 277/277/277 243/243/243
f 242/242/242 239/239/239 248/248/248
f 203/203/203 215/215/215 249/249/249
f 247/247/247 274/274/274 212/212/212
f 128/128/128 129/129/129 130/130/130
f 242/242/242 248/248/248 237/237/237
f 115/115/115 131/131/131 98/98/98
f 123/123/123 98/98/98 132/132/132
f 240/240/240 278/278/278 250/250/250
f 133/133/133 113/113/113 101/101/101
f 134/134/134 135/135/135 136/136/136
f 96/96/96 137/137/137 114/114/114
f 133/133/133 138/138/138 113/113/113
f 128/128/128 130/130/130 139/139/139
f 251/251/251 239/239/239 240/240/240
f 247/247/247 212/212/212 252/252/252
f 250/250/250 251/251/251 240/240/240
f 129/129/129 140/140/140 130/130/130
f 136/136/136 135/135/135 141/141/141
f 253/253/253 239/239/239 251/251/251
f 237/237/237 248/248/248 254/254/254
f 142/142/142 133/133/133 101/101/101
f 143/143/143 144/144/144 145/145/145
f 146/146/146 147/147/147 148/148/148
f 237/237/237 255/255/255 246/246/246
f 149/149/149 150/150/150 151/151/151
f 115/115/115 152/152/152 131/131/131
f 136/136/136 141/141/141 153/153/153
f 256/256/256 257/257/257 258/258/258
f 253/253/253 251/251/251 259/259/259
f 279/279/279 280/280/280 260/260/260
f 154/154/154 155/155/155 191/191/191
f 261/261/261 262/262/262 263/263/263
f 254/254/254 255/255/255 237/237/237
f 264/264/264 265/265/265 266/266/266
f 156/156/156 157/157/157 158/158/158
f 132/132/132 98/98/98 131/131/131
f 260/260/260 267/267/267 279/279/279
f 266/266/266 265/265/265 262/262/262
f 262/262/262 265/265/265 263/263/263
f 268/268/268 281/281/281 269/269/269
f 159/159/159 160/160/160 161/161/161
f 270/270/270 271/271/271 272/272/272
f 162/162/162 148/148/148 163/163/163
f 165/165/165 166/166/166 167/167/167
f 161/161/161 160/160/160 168/168/168
f 169/169/169 167/167/167 170/170/170
f 171/171/171 172/172/172 173/173/173
f 280/280/280 273/273/273 260/260/260
f 174/174/174 175/175/175 192/192/192
f 167/167/167 169/169/169 176/176/176
f 177/177/177 167/167/167 176/176/176
f 166/166/166 179/179/179 167/167/167
f 163/163/163 148/148/148 147/147/147
f 165/165/165 167/167/167 178/178/178
f 180/180/180 181/181/181 182/182/182
f 183/183/183 193/193/193 184/184/184
f 164/164/164 185/185/185 186/186/186
