o forearm_right
v 2.13404 2.62649 -3.48381
v 2.13605 2.75069 -3.40930
v 2.17706 2.50196 -3.18633
v 2.15393 2.29588 -3.35923
v 2.15944 2.31865 -3.40625
v 2.15206 2.41676 -3.17343
v 2.16413 2.49065 -3.17467
v 2.15206 2.41676 -3.17343
v 2.17706 2.50196 -3.18633
v 2.16413 2.49065 -3.17467
v 2.17706 2.50196 -3.18633
v 2.13605 2.75069 -3.40930
v 2.14884 2.50752 -3.05907
v 2.15206 2.41676 -3.17343
v 2.16413 2.49065 -3.17467
v 2.15393 2.29588 -3.35923
v 2.08804 2.29459 -3.36489
v 2.15944 2.31865 -3.40625
v 2.13186 2.41976 -3.58838
v 2.13335 2.43402 -3.59565
v 2.13177 2.50173 -3.02126
v 2.11064 2.63753 -2.91355
v 2.13605 2.75069 -3.40930
v 2.10168 2.78405 -2.99777
v 2.13186 2.41976 -3.58838
v 2.02350 2.45311 -3.60649
v 2.13335 2.43402 -3.59565
v 2.07926 2.33051 -3.41115
v 2.04063 2.39444 -3.52461
v 2.13605 2.75069 -3.40930
v 2.13404 2.62649 -3.48381
v 1.92763 2.78175 -3.41789
v 2.02350 2.45311 -3.60649
v 2.01467 2.47539 -3.58690
v 2.13335 2.43402 -3.59565
v 2.13177 2.50173 -3.02126
v 1.89142 2.48793 -2.96030
v 2.15206 2.41676 -3.17343
v 2.08804 2.29459 -3.36489
v 2.06970 2.26172 -3.39721
v 2.07926 2.33051 -3.41115
v 2.02470 2.43062 -3.58851
v 2.04063 2.39444 -3.52461
v 1.95744 2.29669 -3.73569
v 1.86883 2.40249 -3.06752
v 1.99675 2.14571 -3.36139
v 1.89434 1.90862 -3.55727
v 1.85187 2.25877 -3.33683
v 2.06970 2.26172 -3.39721
v 2.08804 2.29459 -3.36489
v 2.01467 2.47539 -3.58690
v 2.02350 2.45311 -3.60649
v 2.00728 2.48291 -3.61737
v 2.02350 2.45311 -3.60649
v 2.02470 2.43062 -3.58851
v 2.01017 2.47391 -3.63156
v 2.15393 2.29588 -3.35923
v 2.01017 2.47391 -3.63156
v 2.01017 2.47391 -3.63156
v 2.02470 2.43062 -3.58851
v 1.99885 2.41706 -3.65885
v 1.89506 1.96704 -3.29394
v 2.01467 2.47539 -3.58690
v 2.00728 2.48291 -3.61737
v 1.81440 2.51148 -3.57177
v 1.88333 1.96195 -3.28814
v 1.89434 1.90862 -3.55727
v 1.89506 1.96704 -3.29394
v 2.06970 2.26172 -3.39721
v 1.85187 2.25877 -3.33683
v 1.99675 2.14571 -3.36139
v 2.00728 2.48291 -3.61737
v 1.81524 2.49333 -3.59377
v 1.81440 2.51148 -3.57177
v 2.13605 2.75069 -3.40930
v 1.92763 2.78175 -3.41789
v 1.85520 2.81125 -3.31590
v 2.01017 2.47391 -3.63156
v 1.89044 2.06111 -3.72680
v 1.95744 2.29669 -3.73569
v 1.88504 2.08508 -3.73362
v 1.89525 2.29665 -3.73287
v 1.89044 2.06111 -3.72680
v 1.86600 2.83833 -3.17549
v 1.88333 1.96195 -3.28814
v 1.89506 1.96704 -3.29394
v 1.95744 2.29669 -3.73569
v 1.75062 2.34981 -3.67664
v 2.10168 2.78405 -2.99777
v 1.76878 2.01569 -3.26509
v 1.88537 1.90457 -3.56287
v 1.88537 1.90457 -3.56287
v 1.87777 2.94592 -3.09253
v 1.86600 2.83833 -3.17549
v 1.85520 2.81125 -3.31590
v 1.85419 2.36299 -3.14623
v 1.89044 2.06111 -3.72680
v 1.70739 2.11505 -3.69594
v 1.85776 2.42191 -3.04866
v 1.88537 1.90457 -3.56287
v 1.76878 2.01569 -3.26509
v 1.70758 1.98440 -3.44050
v 1.81440 2.51148 -3.57177
v 1.88333 1.96195 -3.28814
v 1.77569 2.00139 -3.26567
v 1.88537 1.90457 -3.56287
v 1.85534 2.44358 -3.08404
v 1.85419 2.36299 -3.14623
v 1.85776 2.42191 -3.04866
v 1.78979 2.96896 -3.08207
v 1.87777 2.94592 -3.09253
v 1.84309 2.30639 -3.25941
v 1.83808 2.55613 -3.20883
v 1.84309 2.30639 -3.25941
v 1.84003 2.25873 -3.35072
v 1.81499 2.64037 -3.49779
v 1.82546 2.77129 -3.43605
v 1.75590 2.80591 -3.34262
v 1.67447 1.98117 -3.53324
v 1.88537 1.90457 -3.56287
v 1.84003 2.25873 -3.35072
v 1.89525 2.29665 -3.73287
v 1.82546 2.77129 -3.43605
v 1.82728 2.63582 -3.29265
v 1.84003 2.25873 -3.35072
v 1.70758 1.98440 -3.44050
v 1.85187 2.25877 -3.33683
v 1.81425 2.71794 -3.37409
v 1.72838 2.49797 -3.00730
v 1.52951 2.82849 -3.34828
v 1.82728 2.63582 -3.29265
v 1.83808 2.55613 -3.20883
v 1.75423 2.52539 -3.16655
v 1.80624 2.48237 -3.58000
v 1.81499 2.64037 -3.49779
v 1.76375 2.38892 -3.64158
v 1.83566 2.28704 -3.40446
v 1.81440 2.51148 -3.57177
v 1.80624 2.48237 -3.58000
v 1.81499 2.64037 -3.49779
v 1.82546 2.77129 -3.43605
v 1.76878 2.01569 -3.26509
v 1.69062 2.65170 -3.28850
v 1.81425 2.71794 -3.37409
v 1.77569 2.00139 -3.26567
v 1.74436 2.33778 -3.69866
v 1.81425 2.71794 -3.37409
v 1.75590 2.80591 -3.34262
v 1.82546 2.77129 -3.43605
v 1.85776 2.42191 -3.04866
v 1.81524 2.49333 -3.59377
v 1.74436 2.33778 -3.69866
v 1.77768 2.74535 -3.35092
v 1.81425 2.71794 -3.37409
v 1.77031 2.71658 -3.36059
v 1.77768 2.74535 -3.35092
v 1.73842 2.31546 -3.64940
v 1.75062 2.34981 -3.67664
v 1.77031 2.71658 -3.36059
v 1.45187 2.91333 -3.22921
v 1.64019 2.52731 -3.08720
v 1.70487 2.79582 -3.33690
v 1.75590 2.80591 -3.34262
v 1.75423 2.52539 -3.16655
v 1.73500 2.54436 -3.20461
v 1.69062 2.65170 -3.28850
v 1.71556 2.72437 -3.38166
v 1.74436 2.33778 -3.69866
v 1.77031 2.71658 -3.36059
v 1.71556 2.72437 -3.38166
v 1.72083 2.73929 -3.38570
v 1.68720 2.48692 -3.05478
v 1.68720 2.48692 -3.05478
v 1.68980 2.76278 -3.37708
v 1.72083 2.73929 -3.38570
v 1.70739 2.11505 -3.69594
v 1.67447 1.98117 -3.53324
v 1.88537 1.90457 -3.56287
v 1.77569 2.00139 -3.26567
v 1.76878 2.01569 -3.26509
v 1.73500 2.54436 -3.20461
v 1.72083 2.73929 -3.38570
v 1.71556 2.72437 -3.38166
v 1.68980 2.76278 -3.37708
v 1.73500 2.54436 -3.20461
v 1.69922 2.58402 -3.22621
v 1.69062 2.65170 -3.28850
v 1.67447 1.98117 -3.53324
v 1.68524 2.53322 -3.18581
v 1.66203 2.80065 -3.35365
v 1.66203 2.80065 -3.35365
v 1.70487 2.79582 -3.33690
v 1.66203 2.80065 -3.35365
v 1.75590 2.80591 -3.34262
v 1.64019 2.52731 -3.08720
v 1.68524 2.53322 -3.18581
v 1.73500 2.54436 -3.20461
v 1.68720 2.48692 -3.05478
v 1.72838 2.49797 -3.00730
v 1.67263 2.49949 -2.92321
v 1.69062 2.65170 -3.28850
v 1.71556 2.72437 -3.38166
v 1.69062 2.65170 -3.28850
v 1.68980 2.76278 -3.37708
v 1.68980 2.76278 -3.37708
v 1.67412 2.81582 -3.40111
v 1.66203 2.80065 -3.35365
v 1.67412 2.81582 -3.40111
v 1.69062 2.65170 -3.28850
v 1.68524 2.53322 -3.18581
v 1.58309 2.71962 -3.70718
v 1.67412 2.81582 -3.40111
v 1.52951 2.82849 -3.34828
v 1.66203 2.80065 -3.35365
v 1.67412 2.81582 -3.40111
v 1.63528 2.48705 -3.30835
v 1.48936 2.52080 -3.13065
v 1.55536 2.52724 -3.07400
v 1.55536 2.52724 -3.07400
v 1.45202 2.53810 -3.15817
v 1.44218 2.86105 -3.35630
v 1.57333 2.43024 -3.50019
v 1.33299 2.40978 -3.00308
v 1.56149 2.39990 -3.58014
v 1.53879 2.30639 -3.75849
v 1.58309 2.71962 -3.70718
v 1.53529 2.46228 -3.84499
v 1.30043 2.49260 -3.82597
v 1.67412 2.81582 -3.40111
v 1.58309 2.71962 -3.70718
v 1.44218 2.86105 -3.35630
v 1.53529 2.46228 -3.84499
v 1.48936 2.52080 -3.13065
v 1.45498 2.57004 -3.15029
v 1.45202 2.53810 -3.15817
v 1.34592 2.43872 -3.50343
v 1.57333 2.43024 -3.50019
v 1.63528 2.48705 -3.30835
v 1.47622 2.51029 -3.06262
v 1.53529 2.46228 -3.84499
v 1.53879 2.30639 -3.75849
v 1.28846 2.31186 -3.73646
v 1.47622 2.51029 -3.06262
v 1.68524 2.53322 -3.18581
v 1.36252 2.45880 -3.44594
v 1.44129 2.84455 -3.33662
v 1.56149 2.39990 -3.58014
v 1.44129 2.84455 -3.33662
v 1.33299 2.40978 -3.00308
v 1.44173 2.55146 -3.16364
v 1.45202 2.53810 -3.15817
v 1.42997 2.52100 -3.22462
v 1.44828 2.74439 -3.25755
v 1.44218 2.86105 -3.35630
v 1.34592 2.43872 -3.50343
v 1.45202 2.53810 -3.15817
v 1.44173 2.55146 -3.16364
v 1.42997 2.52100 -3.22462
v 1.44828 2.74439 -3.25755
v 1.44129 2.84455 -3.33662
v 1.44218 2.86105 -3.35630
v 1.40725 2.82693 -3.22757
v 1.39682 2.86005 -3.05459
v 1.46583 3.01815 -3.07092
v 1.44129 2.84455 -3.33662
v 1.45187 2.91333 -3.22921
v 1.45498 2.57004 -3.15029
v 1.44173 2.55146 -3.16364
v 1.40530 2.80100 -3.27834
v 1.36252 2.45880 -3.44594
v 1.44828 2.74439 -3.25755
v 1.40530 2.80100 -3.27834
v 1.44129 2.84455 -3.33662
v 1.26098 2.57824 -3.09626
v 1.45498 2.57004 -3.15029
v 1.41566 2.20224 -3.41012
v 1.40593 2.20869 -3.43072
v 1.34700 2.29679 -3.37054
v 1.48936 2.52080 -3.13065
v 1.31079 2.46228 -3.03325
v 1.31079 2.46228 -3.03325
v 1.36252 2.45880 -3.44594
v 1.41566 2.20224 -3.41012
v 1.36483 2.03386 -3.33662
v 1.40593 2.20869 -3.43072
v 1.40530 2.80100 -3.27834
v 1.37134 2.80147 -3.24603
v 1.40725 2.82693 -3.22757
v 1.40725 2.82693 -3.22757
v 1.32877 2.82658 -3.12652
v 1.39682 2.86005 -3.05459
v 1.35162 2.81548 -3.22110
v 1.40725 2.82693 -3.22757
v 1.35752 2.81531 -3.23754
v 1.33634 2.76027 -3.67328
v 1.28466 2.21748 -3.57774
v 1.32931 2.75478 -3.66059
v 1.34685 2.79000 -3.22361
v 1.37134 2.80147 -3.24603
v 1.35752 2.81531 -3.23754
v 1.40725 2.82693 -3.22757
v 1.40725 2.82693 -3.22757
v 1.35162 2.81548 -3.22110
v 1.34685 2.79000 -3.22361
v 1.28219 2.74453 -3.20549
v 1.34685 2.79000 -3.22361
v 1.35298 2.79620 -3.16165
v 1.32877 2.82658 -3.12652
v 1.44218 2.86105 -3.35630
v 1.33634 2.76027 -3.67328
v 1.32931 2.75478 -3.66059
v 1.31079 2.46228 -3.03325
v 1.36483 2.03386 -3.33662
v 1.41566 2.20224 -3.41012
v 1.29205 2.07229 -3.27058
v 1.37134 2.80147 -3.24603
v 1.34685 2.79000 -3.22361
v 1.35752 2.81531 -3.23754
v 1.30043 2.49260 -3.82597
v 1.32837 2.70324 -3.70727
v 1.33634 2.76027 -3.67328
v 1.36004 2.38849 -2.78261
v 1.34675 2.22709 -3.01077
v 1.36327 2.30025 -2.91406
v 1.31502 2.36635 -3.63091
v 1.33984 2.19192 -3.09260
v 1.36327 2.30025 -2.91406
v 1.34675 2.22709 -3.01077
v 1.35162 2.81548 -3.22110
v 1.35752 2.81531 -3.23754
v 1.34685 2.79000 -3.22361
v 1.28145 2.19603 -3.57350
v 1.26653 2.24341 -3.27827
v 1.34700 2.29679 -3.37054
v 1.34685 2.79000 -3.22361
v 1.35298 2.79620 -3.16165
v 1.33984 2.19192 -3.09260
v 1.33299 2.40978 -3.00308
v 1.36004 2.38849 -2.78261
v 1.33984 2.19192 -3.09260
v 1.36004 2.38849 -2.78261
v 1.36327 2.30025 -2.91406
v 1.32429 2.14710 -3.15006
v 1.31079 2.46228 -3.03325
v 1.33634 2.76027 -3.67328
v 1.32837 2.70324 -3.70727
v 1.28846 2.31186 -3.73646
v 1.53879 2.30639 -3.75849
v 1.26348 2.01758 -3.43261
v 1.29287 2.48852 -3.72426
v 1.26653 2.24341 -3.27827
v 1.34700 2.29679 -3.37054
v 1.27560 2.37691 -3.31972
v 1.24620 2.40668 -3.29141
v 1.27560 2.37691 -3.31972
v 1.24840 2.38724 -3.34433
v 1.30043 2.49260 -3.82597
v 1.29205 2.07229 -3.27058
v 1.32429 2.14710 -3.15006
v 1.28219 2.74453 -3.20549
v 1.32429 2.14710 -3.15006
v 1.29746 2.08877 -3.23470
v 1.29205 2.07229 -3.27058
v 1.28466 2.21748 -3.57774
v 1.29746 2.08877 -3.23470
v 1.32429 2.14710 -3.15006
v 1.25284 2.07458 -3.26459
v 1.31502 2.36635 -3.63091
v 1.28846 2.31186 -3.73646
v 1.35298 2.79620 -3.16165
v 1.21315 2.69979 -3.16990
v 1.32877 2.82658 -3.12652
v 1.29205 2.07229 -3.27058
v 1.26098 2.57824 -3.09626
v 1.34675 2.22709 -3.01077
v 1.21315 2.69979 -3.16990
v 1.21827 2.66541 -3.15163
v 1.24620 2.40668 -3.29141
v 1.36483 2.03386 -3.33662
v 1.28466 2.21748 -3.57774
v 1.28145 2.19603 -3.57350
v 1.22986 2.23104 -3.57667
v 1.19646 2.71667 -3.15419
v 1.16209 2.74535 -3.14630
v 1.28145 2.19603 -3.57350
v 1.26348 2.01758 -3.43261
v 1.08017 2.17707 -3.46065
v 1.24620 2.40668 -3.29141
v 1.21855 2.40704 -3.40472
v 1.23535 2.64910 -3.13704
v 1.20213 2.50650 -3.26311
v 1.21827 2.66541 -3.15163
v 1.26098 2.57824 -3.09626
v 1.22986 2.23104 -3.57667
v 1.21315 2.69979 -3.16990
v 1.26348 2.01758 -3.43261
v 1.20213 2.50650 -3.26311
v 1.17915 2.51910 -3.29704
v 1.20213 2.50650 -3.26311
v 1.24620 2.40668 -3.29141
v 1.07752 2.07222 -3.37054
v 1.21827 2.66541 -3.15163
v 1.19646 2.71667 -3.15419
v 1.21315 2.69979 -3.16990
v 1.19943 2.66776 -3.13542
v 1.21827 2.66541 -3.15163
v 1.20213 2.50650 -3.26311
v 1.17742 2.50984 -3.24842
v 1.19943 2.66776 -3.13542
v 1.17697 2.65146 -3.13619
v 1.12435 2.38488 -2.90851
v 1.15853 2.44684 -2.80685
v 1.06801 2.22011 -3.16217
v 1.08308 2.08363 -3.33675
v 1.07752 2.07222 -3.37054
v 1.05301 2.32096 -3.04195
v 1.09679 2.28700 -3.55570
v 1.06663 2.51681 -3.23498
v 1.16209 2.74535 -3.14630
v 1.22986 2.23104 -3.57667
v 1.21855 2.40704 -3.40472
v 1.28466 2.21748 -3.57774
v 1.17742 2.50984 -3.24842
v 1.20213 2.50650 -3.26311
v 1.06663 2.51681 -3.23498
v 1.09679 2.28700 -3.55570
v 1.17915 2.51910 -3.29704
v 1.06738 2.71017 -3.08788
v 1.06738 2.71017 -3.08788
v 1.08290 2.34922 -3.50056
v 1.06805 2.52748 -3.31930
v 1.07997 2.29068 -3.54889
v 1.17915 2.51910 -3.29704
v 1.07997 2.29068 -3.54889
v 1.06805 2.52748 -3.31930
v 1.05297 2.42857 -3.10062
v 1.05301 2.32096 -3.04195
v 1.12435 2.38488 -2.90851
v 1.07752 2.07222 -3.37054
v 1.06801 2.22011 -3.16217
v 1.08017 2.17707 -3.46065
v 1.07997 2.29068 -3.54889
v 1.06801 2.22011 -3.16217
v 1.07752 2.07222 -3.37054
v 1.08308 2.08363 -3.33675
v 1.06738 2.71017 -3.08788
v 1.06805 2.52748 -3.31930
v 1.08290 2.34922 -3.50056
v 1.07997 2.29068 -3.54889
v 1.06365 2.34688 -3.36681
v 1.02624 2.51323 -3.22907
v 1.05810 2.43136 -3.31151
v 1.06663 2.51681 -3.23498
v 1.06805 2.52748 -3.31930
v 1.05295 2.50363 -3.24796
v 1.05301 2.32096 -3.04195
v 1.05295 2.50363 -3.24796
v 1.06805 2.52748 -3.31930
v 1.02624 2.51323 -3.22907
v 1.06365 2.34688 -3.36681
v 1.05810 2.43136 -3.31151
v 1.05295 2.50363 -3.24796
v 1.01964 2.51713 -3.20507
v 1.01964 2.51713 -3.20507
v 1.06738 2.71017 -3.08788
v 1.02624 2.51323 -3.22907
v 1.01964 2.51713 -3.20507
v 2.16413 2.49065 -3.17467
v 1.80624 2.48237 -3.58000
v 1.84003 2.25873 -3.35072
v 2.11064 2.63753 -2.91355
v 2.13177 2.50173 -3.02126
v 2.14884 2.50752 -3.05907
v 2.16413 2.49065 -3.17467
v 2.10168 2.78405 -2.99777
v 2.07496 2.50711 -2.98402
v 2.13177 2.50173 -3.02126
v 2.11064 2.63753 -2.91355
v 2.10168 2.78405 -2.99777
v 2.09499 2.75047 -2.96779
v 2.11064 2.63753 -2.91355
v 1.99137 2.58448 -2.90785
v 1.92741 2.61786 -2.88704
v 2.11064 2.63753 -2.91355
v 2.09499 2.75047 -2.96779
v 1.92741 2.61786 -2.88704
v 2.10168 2.78405 -2.99777
v 1.93695 2.82937 -3.00946
v 2.07496 2.50711 -2.98402
v 1.95560 2.57329 -2.93298
v 1.89859 2.51882 -2.91479
v 1.99137 2.58448 -2.90785
v 1.95560 2.57329 -2.93298
v 2.07496 2.50711 -2.98402
v 2.07496 2.50711 -2.98402
v 1.89859 2.51882 -2.91479
v 2.13177 2.50173 -3.02126
v 1.95560 2.57329 -2.93298
v 1.88523 2.53632 -2.92199
v 1.89859 2.51882 -2.91479
v 1.92741 2.61786 -2.88704
v 1.89142 2.48793 -2.96030
v 1.93695 2.82937 -3.00946
v 2.10168 2.78405 -2.99777
v 1.88286 2.75888 -2.96080
v 1.95560 2.57329 -2.93298
v 1.87777 2.58665 -2.89196
v 1.88523 2.53632 -2.92199
v 1.88045 2.59252 -2.90492
v 1.87777 2.58665 -2.89196
v 1.95560 2.57329 -2.93298
v 1.88045 2.59252 -2.90492
v 1.87202 2.63753 -2.89689
v 1.92741 2.61786 -2.88704
v 1.87202 2.63753 -2.89689
v 1.88045 2.59252 -2.90492
v 2.10168 2.78405 -2.99777
v 1.86600 2.83833 -3.17549
v 1.88286 2.75888 -2.96080
v 1.89859 2.51882 -2.91479
v 1.88523 2.53632 -2.92199
v 1.89142 2.48793 -2.96030
v 1.88286 2.75888 -2.96080
v 1.87777 2.94592 -3.09253
v 1.87468 2.79026 -2.92962
v 1.88286 2.75888 -2.96080
v 1.86600 2.83833 -3.17549
v 1.87202 2.63753 -2.89689
v 1.86241 2.65250 -2.84748
v 1.86264 2.61478 -2.85386
v 1.87777 2.58665 -2.89196
v 1.88045 2.59252 -2.90492
v 1.83502 2.56821 -2.87862
v 1.86618 2.61170 -2.66090
v 1.85005 2.58675 -2.62470
v 1.85633 2.57593 -2.75129
v 1.86264 2.61478 -2.85386
v 1.87468 2.79026 -2.92962
v 1.81948 2.71584 -2.86705
v 1.86241 2.65250 -2.84748
v 1.86264 2.61478 -2.85386
v 1.86241 2.65250 -2.84748
v 1.83514 2.63188 -2.85006
v 1.81948 2.71584 -2.86705
v 1.86618 2.61170 -2.66090
v 1.85633 2.57593 -2.75129
v 1.86618 2.61170 -2.66090
v 1.83797 2.71801 -2.73454
v 1.84223 2.65576 -2.69217
v 1.83671 2.57881 -2.56891
v 1.84456 2.48698 -2.46880
v 1.86041 2.41982 -2.69508
v 1.84619 2.55884 -2.76171
v 1.85633 2.57593 -2.75129
v 1.70312 2.86714 -2.95221
v 1.87777 2.94592 -3.09253
v 1.78979 2.96896 -3.08207
v 1.85425 2.75186 -2.27839
v 1.83107 2.67349 -2.40827
v 1.84513 2.73928 -2.46857
v 1.86041 2.41982 -2.69508
v 1.84513 2.73928 -2.46857
v 1.82187 2.76725 -2.52944
v 1.81948 2.71584 -2.86705
v 1.83502 2.56821 -2.87862
v 1.85291 2.62590 -2.30434
v 1.85291 2.62590 -2.30434
v 1.83069 2.60964 -2.44344
v 1.75759 3.00118 -2.47133
v 1.75574 3.08397 -2.33022
v 1.89142 2.48793 -2.96030
v 1.86618 2.61170 -2.66090
v 1.84223 2.65576 -2.69217
v 1.80410 2.69889 -2.64072
v 1.83502 2.56821 -2.87862
v 1.83502 2.56821 -2.87862
v 1.83514 2.63188 -2.85006
v 1.82540 2.69083 -2.31286
v 1.82077 2.77472 -2.77890
v 1.83797 2.71801 -2.73454
v 1.82256 2.64722 -2.35935
v 1.82077 2.71632 -2.72283
v 1.82077 2.71632 -2.72283
v 1.80240 2.63699 -2.55066
v 1.82256 2.64722 -2.35935
v 1.80629 2.66998 -2.48499
v 1.83502 2.56821 -2.87862
v 1.72838 2.49797 -3.00730
v 1.82077 2.77472 -2.77890
v 1.80965 2.78024 -2.83115
v 1.80629 2.66998 -2.48499
v 1.79795 2.76509 -2.61447
v 1.80912 2.78353 -2.63066
v 1.82187 2.76725 -2.52944
v 1.82187 2.76725 -2.52944
v 1.79795 2.76509 -2.61447
v 1.80912 2.78353 -2.63066
v 1.82187 2.76725 -2.52944
v 1.81948 2.71584 -2.86705
v 1.76707 2.81305 -2.80523
v 1.80965 2.78024 -2.83115
v 1.77576 2.86059 -2.71474
v 1.76707 2.81305 -2.80523
v 1.81948 2.71584 -2.86705
v 1.70312 2.86714 -2.95221
v 1.80965 2.78024 -2.83115
v 1.76707 2.81305 -2.80523
v 1.77576 2.86059 -2.71474
v 1.83502 2.56821 -2.87862
v 1.84619 2.55884 -2.76171
v 1.74512 2.53361 -2.76086
v 1.30560 2.84480 -2.60006
v 1.75759 3.00118 -2.47133
v 1.75574 3.08397 -2.33022
v 1.67139 2.91241 -2.87277
v 1.67624 2.90607 -2.86299
v 1.67263 2.49949 -2.92321
v 1.72838 2.49797 -3.00730
v 1.61755 2.87832 -2.95413
v 1.46583 3.01815 -3.07092
v 1.70312 2.86714 -2.95221
v 1.61755 2.87832 -2.95413
v 1.67139 2.91241 -2.87277
v 1.38502 2.51004 -2.15655
v 1.86041 2.41982 -2.69508
v 1.84456 2.48698 -2.46880
v 1.55053 2.79283 -2.79697
v 1.76707 2.81305 -2.80523
v 1.67624 2.90607 -2.86299
v 1.49593 2.46595 -2.72577
v 1.55053 2.79283 -2.79697
v 1.45187 2.91333 -3.22921
v 1.46583 3.01815 -3.07092
v 1.78979 2.96896 -3.08207
v 1.67139 2.91241 -2.87277
v 1.45289 2.88912 -2.87014
v 1.49593 2.46595 -2.72577
v 1.84619 2.55884 -2.76171
v 1.86041 2.41982 -2.69508
v 1.38103 2.75863 -2.80333
v 1.42345 2.34573 -2.66800
v 1.40169 2.40739 -2.69581
v 1.45289 2.88912 -2.87014
v 1.40423 2.87853 -2.91603
v 1.40423 2.87853 -2.91603
v 1.42261 2.90756 -2.94634
v 1.40672 2.42446 -2.41613
v 1.59164 3.29726 -1.91691
v 1.37681 2.45125 -2.71514
v 1.14308 2.77505 -2.85398
v 1.37681 2.45125 -2.71514
v 1.33299 2.40978 -3.00308
v 1.41325 2.39697 -2.49595
v 1.32461 2.74082 -2.80335
v 1.42345 2.34573 -2.66800
v 1.42261 2.90756 -2.94634
v 1.39682 2.86005 -3.05459
v 1.40423 2.87853 -2.91603
v 1.41325 2.39697 -2.49595
v 1.40672 2.42446 -2.41613
v 1.37400 2.58936 -2.50870
v 1.46583 3.01815 -3.07092
v 1.40169 2.40739 -2.69581
v 1.42345 2.34573 -2.66800
v 1.37696 2.49080 -2.67113
v 1.37681 2.45125 -2.71514
v 1.38272 2.45284 -2.70388
v 1.38087 2.54608 -2.38689
v 1.38192 2.54748 -2.44313
v 1.37431 2.57843 -2.29493
v 1.35264 2.67054 -2.64128
v 1.38192 2.54748 -2.44313
v 1.33966 2.55224 -2.41439
v 1.37400 2.58936 -2.50870
v 1.36986 2.53056 -2.68626
v 1.37681 2.45125 -2.71514
v 1.38272 2.45284 -2.70388
v 1.36004 2.38849 -2.78261
v 1.38103 2.75863 -2.80333
v 1.37681 2.45125 -2.71514
v 1.36004 2.38849 -2.78261
v 1.33299 2.40978 -3.00308
v 1.35264 2.67054 -2.64128
v 1.32461 2.74082 -2.80335
v 1.33966 2.55224 -2.41439
v 1.38192 2.54748 -2.44313
v 1.38087 2.54608 -2.38689
v 1.37431 2.57843 -2.29493
v 1.34593 2.62319 -2.74031
v 1.33406 2.68515 -2.63964
v 1.39682 2.86005 -3.05459
v 1.32877 2.82658 -3.12652
v 1.32461 2.74082 -2.80335
v 1.32461 2.74082 -2.80335
v 1.15853 2.44684 -2.80685
v 1.34675 2.22709 -3.01077
v 1.36004 2.38849 -2.78261
v 1.30560 2.84480 -2.60006
v 1.33406 2.68515 -2.63964
v 1.19929 3.22885 -1.88000
v 1.32461 2.74082 -2.80335
v 1.33966 2.55224 -2.41439
v 1.34593 2.62319 -2.74031
v 1.38272 2.45284 -2.70388
v 1.14308 2.77505 -2.85398
v 1.16209 2.74535 -3.14630
v 1.37696 2.49080 -2.67113
v 1.18734 2.51112 -2.72297
v 1.18690 2.52707 -2.72351
v 1.37696 2.49080 -2.67113
v 1.18734 2.51112 -2.72297
v 1.18734 2.51112 -2.72297
v 1.18690 2.52707 -2.72351
v 1.15853 2.44684 -2.80685
v 1.12435 2.38488 -2.90851
v 1.14308 2.77505 -2.85398
v 1.06738 2.71017 -3.08788
v 1.06738 2.71017 -3.08788
v 2.11064 2.63753 -2.91355
v 1.85425 2.75186 -2.27839
v 1.83671 2.57881 -2.56891
v 1.80240 2.63699 -2.55066
v 1.89142 2.48793 -2.96030
v 1.82077 2.71632 -2.72283
v 1.80912 2.78353 -2.63066
v 1.80629 2.66998 -2.48499
v 1.84323 2.90067 -1.70871
v 1.87059 2.83539 -1.96857
v 1.86370 2.77886 -1.94030
v 1.84158 2.62426 -2.06095
v 1.86644 2.70801 -2.14804
v 1.86370 2.77886 -1.94030
v 1.86644 2.70801 -2.14804
v 1.84841 2.75243 -2.04641
v 1.86644 2.70801 -2.14804
v 1.85181 2.64321 -2.21901
v 1.84897 2.71698 -2.17533
v 1.84912 2.73494 -1.78052
v 1.85425 2.75186 -2.27839
v 1.84897 2.71698 -2.17533
v 1.74209 3.22837 -2.08427
v 1.84897 2.71698 -2.17533
v 1.85756 2.84669 -1.75939
v 1.85181 2.64321 -2.21901
v 1.84417 2.82974 -1.85550
v 1.84841 2.75243 -2.04641
v 1.84417 2.82974 -1.85550
v 1.84456 2.48698 -2.46880
v 1.85291 2.62590 -2.30434
v 1.75574 3.08397 -2.33022
v 1.82540 2.69083 -2.31286
v 1.85291 2.62590 -2.30434
v 1.82256 2.64722 -2.35935
v 1.85181 2.64321 -2.21901
v 1.82256 2.64722 -2.35935
v 1.71168 2.67862 -1.83728
v 1.84912 2.73494 -1.78052
v 1.84158 2.62426 -2.06095
v 1.38502 2.51004 -2.15655
v 1.84456 2.48698 -2.46880
v 1.58046 2.70014 -1.71511
v 1.37431 2.57843 -2.29493
v 1.40672 2.42446 -2.41613
v 1.38502 2.51004 -2.15655
v 1.35377 2.64366 -2.11029
v 1.34160 2.69450 -1.95182
v 1.35663 2.64571 -1.74971
v 1.37431 2.57843 -2.29493
v 1.31155 2.62345 -2.19775
v 1.33966 2.55224 -2.41439
v 1.35377 2.64366 -2.11029
v 1.28916 2.67411 -2.06142
v 1.31155 2.62345 -2.19775
v 1.19929 3.22885 -1.88000
v 1.33966 2.55224 -2.41439
v 1.34160 2.69450 -1.95182
v 1.23933 2.78146 -1.75795
v 1.28916 2.67411 -2.06142
v 1.82540 2.69083 -2.31286
v 1.59037 2.84967 -1.94746
v 1.84912 2.73494 -1.78052
v 1.86370 2.77886 -1.94030
v 1.85756 2.84669 -1.75939
v 1.84417 2.82974 -1.85550
v 1.84323 2.90067 -1.70871
v 1.87059 2.83539 -1.96857
v 1.74209 3.22837 -2.08427
v 1.75574 3.08397 -2.33022
v 1.59164 3.29726 -1.91691
v 1.30560 2.84480 -2.60006
v 1.19929 3.22885 -1.88000
v 1.28916 2.67411 -2.06142
v 1.23933 2.78146 -1.75795
v 1.34160 2.69450 -1.95182
v 1.35663 2.64571 -1.74971
v 1.38502 2.51004 -2.15655
v 1.58046 2.70014 -1.71511
v 1.71168 2.67862 -1.83728
vt 0.32267 0.04441
vt 0.33814 0.04441
vt 0.32767 0.07879
vt 0.29921 0.07421
vt 0.29878 0.06862
vt 0.32031 0.08493
vt 0.00297 0.85902
vt 0.00158 0.86689
vt 0.00156 0.85731
vt 0.91517 0.24119
vt 0.91674 0.24276
vt 0.91633 0.27869
vt 0.44172 0.03721
vt 0.42639 0.04010
vt 0.42989 0.03291
vt 0.93192 0.31471
vt 0.93888 0.31593
vt 0.93075 0.32019
vt 0.29800 0.04619
vt 0.29890 0.04474
vt 0.44513 0.04011
vt 0.46239 0.03236
vt 0.86335 0.18681
vt 0.87702 0.22889
vt 0.93108 0.34262
vt 0.94229 0.34760
vt 0.93079 0.34431
vt 0.93917 0.32225
vt 0.94165 0.33654
vt 0.89252 0.91852
vt 0.87705 0.91852
vt 0.89458 0.89609
vt 0.85417 0.90693
vt 0.85735 0.90603
vt 0.85328 0.91886
vt 0.10569 0.12982
vt 0.13130 0.12296
vt 0.10493 0.14854
vt 0.80717 0.79525
vt 0.81057 0.79931
vt 0.80305 0.80005
vt 0.94243 0.34452
vt 0.79578 0.81260
vt 0.80529 0.83721
vt 0.13522 0.13727
vt 0.82563 0.79787
vt 0.84923 0.82319
vt 0.13936 0.16965
vt 0.11636 0.17699
vt 0.11382 0.17235
vt 0.75477 0.00112
vt 0.75477 0.00442
vt 0.75156 0.00237
vt 0.00090 0.96112
vt 0.00010 0.96409
vt 0.00039 0.95740
vt 0.10676 0.17214
vt 0.75102 0.00411
vt 0.78672 0.82421
vt 0.79159 0.81945
vt 0.79273 0.82750
vt 0.84847 0.79440
vt 0.02624 0.58599
vt 0.02963 0.58659
vt 0.02673 0.60777
vt 0.40301 0.00867
vt 0.37370 0.00784
vt 0.40249 0.00725
vt 0.49847 0.90778
vt 0.51056 0.88689
vt 0.51353 0.90646
vt 0.37097 0.91927
vt 0.37490 0.93958
vt 0.37203 0.94063
vt 0.54692 0.42380
vt 0.53096 0.44218
vt 0.52034 0.44552
vt 0.37257 0.91841
vt 0.83134 0.83972
vt 0.48530 0.09221
vt 0.50913 0.09385
vt 0.48702 0.09864
vt 0.51147 0.09246
vt 0.51813 0.42945
vt 0.53778 0.90426
vt 0.53660 0.90518
vt 0.39521 0.91748
vt 0.39383 0.94110
vt 0.53639 0.39117
vt 0.53880 0.89057
vt 0.84991 0.82419
vt 0.37304 0.00885
vt 0.11184 0.93023
vt 0.12553 0.92525
vt 0.13979 0.93081
vt 0.13845 0.14624
vt 0.51163 0.09278
vt 0.51101 0.11342
vt 0.13614 0.13428
vt 0.93819 0.61423
vt 0.95117 0.64797
vt 0.93350 0.63835
vt 0.86116 0.88458
vt 0.91347 0.50851
vt 0.92526 0.51257
vt 0.89658 0.53326
vt 0.49044 0.11758
vt 0.48911 0.12907
vt 0.48678 0.11698
vt 0.48227 0.44978
vt 0.48430 0.44188
vt 0.14013 0.15993
vt 0.50564 0.11647
vt 0.49311 0.14206
vt 0.14084 0.17091
vt 0.87703 0.88437
vt 0.89251 0.88515
vt 0.52657 0.45527
vt 0.53361 0.11621
vt 0.53584 0.09215
vt 0.49766 0.15032
vt 0.39702 0.92388
vt 0.53404 0.45083
vt 0.51759 0.11677
vt 0.39958 0.50240
vt 0.43856 0.51740
vt 0.39841 0.50440
vt 0.53299 0.11812
vt 0.14941 0.12427
vt 0.52914 0.48238
vt 0.16157 0.74577
vt 0.17143 0.75329
vt 0.16942 0.76365
vt 0.53471 0.15000
vt 0.54090 0.12899
vt 0.41816 0.46224
vt 0.40246 0.49479
vt 0.41412 0.44319
vt 0.41463 0.44714
vt 0.41121 0.42444
vt 0.53716 0.11440
vt 0.42126 0.53480
vt 0.15101 0.75599
vt 0.15152 0.73846
vt 0.53978 0.89195
vt 0.39659 0.94097
vt 0.99840 0.85807
vt 0.99084 0.86708
vt 0.99053 0.85411
vt 0.18922 0.76693
vt 0.41467 0.44635
vt 0.48701 0.11573
vt 0.99661 0.86324
vt 0.52106 0.96591
vt 0.52504 0.96877
vt 0.52269 0.97113
vt 0.42601 0.47023
vt 0.42356 0.46412
vt 0.14910 0.74273
vt 0.50184 0.49056
vt 0.16552 0.77796
vt 0.52643 0.97995
vt 0.52123 0.97790
vt 0.02079 0.30156
vt 0.02249 0.30624
vt 0.02128 0.32149
vt 0.14344 0.74555
vt 0.42672 0.46374
vt 0.11478 0.99202
vt 0.11673 0.99803
vt 0.11503 0.99842
vt 0.15476 0.12848
vt 0.17299 0.77774
vt 0.53128 0.97667
vt 0.53021 0.97255
vt 0.45431 0.47996
vt 0.92402 0.63381
vt 0.35877 0.04002
vt 0.32340 0.04002
vt 0.32266 0.03849
vt 0.16481 0.76176
vt 0.00513 0.42577
vt 0.00600 0.42728
vt 0.00105 0.42697
vt 0.02124 0.43676
vt 0.02522 0.44145
vt 0.02608 0.45127
vt 0.45179 0.50808
vt 0.02657 0.43448
vt 0.53036 0.46776
vt 0.53079 0.98225
vt 0.17193 0.98915
vt 0.16924 0.99329
vt 0.17198 0.98356
vt 0.67844 0.07647
vt 0.68506 0.06696
vt 0.69077 0.06595
vt 0.88776 0.45135
vt 0.88381 0.45691
vt 0.87369 0.45322
vt 0.02643 0.45124
vt 0.03217 0.41996
vt 0.02672 0.43165
vt 0.02853 0.41659
vt 0.93251 0.00653
vt 0.92607 0.00653
vt 0.92918 0.00202
vt 0.02703 0.41032
vt 0.27578 0.32238
vt 0.29189 0.32700
vt 0.23403 0.34336
vt 0.25573 0.31512
vt 0.97252 0.79542
vt 0.97049 0.78110
vt 0.97563 0.77922
vt 0.28349 0.33938
vt 0.66339 0.06905
vt 0.66927 0.07627
vt 0.16032 0.78551
vt 0.66006 0.06495
vt 0.97566 0.80491
vt 0.26956 0.35688
vt 0.87400 0.41476
vt 0.26423 0.36441
vt 0.25390 0.38342
vt 0.94098 0.45956
vt 0.94062 0.49114
vt 0.91525 0.49114
vt 0.21910 0.07749
vt 0.21910 0.04188
vt 0.24476 0.07652
vt 0.23691 0.37481
vt 0.66870 0.00680
vt 0.66195 0.00694
vt 0.66412 0.00416
vt 0.41610 0.75223
vt 0.42130 0.72849
vt 0.44358 0.72654
vt 0.66055 0.07597
vt 0.56368 0.91055
vt 0.58272 0.91062
vt 0.58272 0.93746
vt 0.15658 0.79339
vt 0.45839 0.72437
vt 0.42283 0.75189
vt 0.97292 0.80507
vt 0.41211 0.72777
vt 0.51978 0.49559
vt 0.15637 0.81313
vt 0.66223 0.00413
vt 0.45601 0.74933
vt 0.44835 0.75008
vt 0.25701 0.47425
vt 0.27278 0.47848
vt 0.23872 0.51349
vt 0.76272 0.02172
vt 0.76232 0.02357
vt 0.75504 0.02229
vt 0.01490 0.24826
vt 0.01490 0.26190
vt 0.01429 0.26458
vt 0.63363 0.91803
vt 0.61484 0.91928
vt 0.61258 0.90092
vt 0.64459 0.91235
vt 0.63170 0.90782
vt 0.23529 0.47164
vt 0.23408 0.47419
vt 0.63956 0.91941
vt 0.72948 0.02337
vt 0.38983 0.10641
vt 0.39673 0.10255
vt 0.40337 0.10812
vt 0.36873 0.08262
vt 0.36808 0.10413
vt 0.85980 0.59370
vt 0.86154 0.59288
vt 0.86524 0.60544
vt 0.36204 0.10713
vt 0.35405 0.08599
vt 0.64189 0.07601
vt 0.23803 0.50679
vt 0.89458 0.92673
vt 0.91394 0.93303
vt 0.89276 0.92850
vt 0.63625 0.92878
vt 0.64063 0.93122
vt 0.63702 0.93483
vt 0.51657 0.96899
vt 0.50563 0.97716
vt 0.49774 0.96927
vt 0.00223 0.77420
vt 0.00834 0.77420
vt 0.00304 0.77588
vt 0.24592 0.03926
vt 0.88118 0.58682
vt 0.27643 0.51476
vt 0.51686 0.97655
vt 0.80058 0.00582
vt 0.79831 0.00582
vt 0.80052 0.00072
vt 0.99724 0.14465
vt 0.99151 0.14674
vt 0.98967 0.14465
vt 0.65264 0.92984
vt 0.01644 0.40364
vt 0.01016 0.40592
vt 0.00520 0.40334
vt 0.21416 0.03016
vt 0.17688 0.03016
vt 0.17772 0.02873
vt 0.14988 0.81081
vt 0.11259 0.56526
vt 0.13234 0.57019
vt 0.10874 0.57585
vt 0.83189 0.00165
vt 0.83189 0.00540
vt 0.82991 0.00277
vt 0.56121 0.93580
vt 0.91431 0.46517
vt 0.91408 0.45803
vt 0.41403 0.01143
vt 0.38416 0.01143
vt 0.39717 0.01021
vt 0.40010 0.75207
vt 0.48210 0.01089
vt 0.45967 0.01019
vt 0.47270 0.00924
vt 0.24625 0.00273
vt 0.24776 0.00163
vt 0.24797 0.00491
vt 0.88543 0.94740
vt 0.12166 0.58908
vt 0.13464 0.58316
vt 0.64428 0.93208
vt 0.64656 0.93835
vt 0.14425 0.69392
vt 0.15741 0.71537
vt 0.14146 0.73308
vt 0.91386 0.40765
vt 0.91386 0.44690
vt 0.91251 0.43005
vt 0.49000 0.01001
vt 0.16428 0.71588
vt 0.27774 0.51578
vt 0.27372 0.52168
vt 0.38710 0.75209
vt 0.39060 0.72548
vt 0.90979 0.94745
vt 0.25357 0.53339
vt 0.16176 0.68058
vt 0.79875 0.98397
vt 0.81143 0.98397
vt 0.81675 0.98483
vt 0.86961 0.61665
vt 0.87644 0.61662
vt 0.25880 0.54295
vt 0.14622 0.67054
vt 0.14437 0.68597
vt 0.38945 0.08783
vt 0.12275 0.98735
vt 0.11141 0.98735
vt 0.10724 0.98648
vt 0.88325 0.94651
vt 0.76479 0.64214
vt 0.77544 0.63826
vt 0.76178 0.64725
vt 0.23746 0.52944
vt 0.23695 0.54243
vt 0.13297 0.96245
vt 0.15113 0.96245
vt 0.13308 0.96804
vt 0.76065 0.64316
vt 0.17927 0.71731
vt 0.79230 0.63425
vt 0.66219 0.92910
vt 0.19120 0.71763
vt 0.13448 0.60118
vt 0.75171 0.63630
vt 0.42183 0.99386
vt 0.42417 0.99357
vt 0.42203 0.99989
vt 0.15150 0.96546
vt 0.15288 0.97012
vt 0.92812 0.21639
vt 0.92812 0.19204
vt 0.95040 0.20567
vt 0.86986 0.61981
vt 0.88403 0.61542
vt 0.37775 0.08109
vt 0.18508 0.69775
vt 0.38032 0.07960
vt 0.36867 0.08221
vt 0.93422 0.21909
vt 0.38451 0.07963
vt 0.74283 0.64841
vt 0.13887 0.61239
vt 0.88214 0.63068
vt 0.87846 0.63210
vt 0.87444 0.62236
vt 0.75403 0.66771
vt 0.98692 0.77231
vt 0.99157 0.76858
vt 0.99105 0.77158
vt 0.98609 0.76977
vt 0.74063 0.06031
vt 0.76139 0.05907
vt 0.76060 0.06206
vt 0.73973 0.06282
vt 0.74155 0.06516
vt 0.81305 0.65741
vt 0.82536 0.65257
vt 0.78142 0.66634
vt 0.75771 0.66654
vt 0.94982 0.19091
vt 0.79825 0.66681
vt 0.94964 0.22127
vt 0.76102 0.07399
vt 0.99342 0.76409
vt 0.52894 0.07440
vt 0.55484 0.07897
vt 0.52656 0.07994
vt 0.18339 0.01358
vt 0.18037 0.01294
vt 0.19507 0.01112
vt 0.53778 0.06158
vt 0.18160 0.00853
vt 0.73539 0.07800
vt 0.98595 0.75412
vt 0.54677 0.06201
vt 0.57359 0.06651
vt 0.95160 0.22098
vt 0.57196 0.07853
vt 0.53892 0.05997
vt 0.19214 0.00252
vt 0.05307 0.06495
vt 0.05141 0.05197
vt 0.06868 0.04893
vt 0.87469 0.83925
vt 0.87707 0.86645
vt 0.85992 0.83916
vt 0.84458 0.83985
vt 0.12362 0.00393
vt 0.09631 0.00393
vt 0.09994 0.00261
vt 0.07128 0.08897
vt 0.12280 0.91980
vt 0.09560 0.91980
vt 0.08757 0.91865
vt 0.85258 0.85864
vt 0.76163 0.07832
vt 0.84951 0.86899
vt 0.85228 0.99766
vt 0.86136 0.99766
vt 0.85345 0.99982
vt 0.87717 0.88328
vt 0.84800 0.87917
vt 0.84100 0.87490
vt 0.84842 0.88167
vt 0.78399 0.07140
vt 0.77330 0.07290
vt 0.76323 0.07505
vt 0.84970 0.88404
vt 0.97150 0.32270
vt 0.97365 0.29815
vt 0.97359 0.32440
vt 0.04850 0.07929
vt 0.84165 0.21742
vt 0.40645 0.46635
vt 0.39621 0.50013
vt 0.77544 0.97959
vt 0.75995 0.98232
vt 0.75752 0.97943
vt 0.33031 0.01473
vt 0.36169 0.01473
vt 0.97783 0.84555
vt 0.98081 0.85092
vt 0.96508 0.85066
vt 0.01202 0.55139
vt 0.01062 0.54754
vt 0.01109 0.53617
vt 0.96731 0.83909
vt 0.02712 0.65430
vt 0.02535 0.63761
vt 0.03661 0.63603
vt 0.96282 0.83403
vt 0.04034 0.63432
vt 0.04813 0.64764
vt 0.02537 0.40612
vt 0.02088 0.39378
vt 0.02643 0.38905
vt 0.79732 0.97017
vt 0.79560 0.96648
vt 0.80868 0.96533
vt 0.91452 0.94767
vt 0.91452 0.93057
vt 0.91577 0.95368
vt 0.13272 0.99735
vt 0.13049 0.99047
vt 0.13253 0.99006
vt 0.79055 0.97026
vt 0.91941 0.93160
vt 0.49658 0.95632
vt 0.49006 0.97030
vt 0.48983 0.95018
vt 0.32932 0.98651
vt 0.33708 0.98853
vt 0.33346 0.99244
vt 0.78820 0.96576
vt 0.00505 0.45364
vt 0.01307 0.45364
vt 0.00572 0.45476
vt 0.03035 0.65859
vt 0.99979 0.04495
vt 0.99468 0.04661
vt 0.99536 0.04247
vt 0.49695 0.91195
vt 0.52267 0.92031
vt 0.50469 0.93053
vt 0.33625 0.99507
vt 0.33814 0.99419
vt 0.33794 0.99977
vt 0.04203 0.65443
vt 0.91881 0.68809
vt 0.91926 0.70840
vt 0.91520 0.70840
vt 0.90661 0.68958
vt 0.91174 0.72030
vt 0.91593 0.72251
vt 0.91318 0.72459
vt 0.90876 0.72385
vt 0.90827 0.72265
vt 0.34006 0.99172
vt 0.14339 0.84001
vt 0.14945 0.83925
vt 0.13497 0.84824
vt 0.34104 0.98644
vt 0.15965 0.86397
vt 0.15909 0.85391
vt 0.16544 0.85068
vt 0.94044 0.98756
vt 0.94386 0.98713
vt 0.94233 0.98981
vt 0.40973 0.55684
vt 0.40045 0.54610
vt 0.40426 0.54005
vt 0.99714 0.65729
vt 0.99748 0.66921
vt 0.99622 0.66254
vt 0.15677 0.83829
vt 0.16478 0.84966
vt 0.04454 0.70514
vt 0.05208 0.71688
vt 0.05104 0.71861
vt 0.14261 0.86303
vt 0.15141 0.88253
vt 0.14364 0.87979
vt 0.93395 0.39911
vt 0.92326 0.41358
vt 0.91919 0.40386
vt 0.14023 0.85989
vt 0.39569 0.59922
vt 0.40223 0.59253
vt 0.95015 0.99046
vt 0.93611 0.99073
vt 0.18461 0.85396
vt 0.93296 0.43176
vt 0.92372 0.42509
vt 0.42900 0.60357
vt 0.43622 0.61984
vt 0.32957 0.99645
vt 0.14548 0.83586
vt 0.14250 0.82897
vt 0.14597 0.82481
vt 0.06266 0.71775
vt 0.40679 0.53668
vt 0.40857 0.54565
vt 0.93311 0.40715
vt 0.41041 0.56657
vt 0.40580 0.55831
vt 0.93262 0.42810
vt 0.99562 0.66892
vt 0.14089 0.82018
vt 0.91541 0.42538
vt 0.92864 0.41268
vt 0.91485 0.40788
vt 0.25285 0.97789
vt 0.26753 0.98504
vt 0.99783 0.67588
vt 0.41262 0.56128
vt 0.91945 0.42169
vt 0.14733 0.81583
vt 0.14590 0.81299
vt 0.91104 0.39863
vt 0.79805 0.99858
vt 0.79021 0.99997
vt 0.78876 0.99802
vt 0.15395 0.81334
vt 0.00763 0.68396
vt 0.01904 0.68396
vt 0.01404 0.68594
vt 0.41899 0.57473
vt 0.02481 0.74497
vt 0.03415 0.73843
vt 0.03383 0.75726
vt 0.84962 0.49932
vt 0.84716 0.50410
vt 0.83800 0.50538
vt 0.06943 0.27079
vt 0.07945 0.27430
vt 0.07578 0.28294
vt 0.83922 0.54900
vt 0.81362 0.51244
vt 0.79926 0.51577
vt 0.02525 0.75880
vt 0.02473 0.75779
vt 0.05949 0.28383
vt 0.05412 0.27649
vt 0.13524 0.86056
vt 0.11589 0.86963
vt 0.19147 0.77338
vt 0.18972 0.76580
vt 0.19866 0.76843
vt 0.14476 0.29710
vt 0.08423 0.27276
vt 0.10474 0.26695
vt 0.15850 0.46926
vt 0.16207 0.48854
vt 0.15032 0.48343
vt 0.06945 0.30555
vt 0.85174 0.52317
vt 0.03784 0.67122
vt 0.04314 0.65490
vt 0.07087 0.66510
vt 0.14919 0.48327
vt 0.14560 0.46380
vt 0.59663 0.89188
vt 0.59345 0.85922
vt 0.60735 0.86044
vt 0.85703 0.53783
vt 0.60730 0.90045
vt 0.60096 0.90129
vt 0.19303 0.74944
vt 0.18776 0.74637
vt 0.11867 0.85023
vt 0.11858 0.85436
vt 0.12094 0.30367
vt 0.76161 0.53939
vt 0.59631 0.90273
vt 0.14682 0.43404
vt 0.06615 0.31602
vt 0.04033 0.31003
vt 0.11360 0.30574
vt 0.85892 0.54282
vt 0.09805 0.31031
vt 0.02512 0.48678
vt 0.01464 0.48979
vt 0.02504 0.48265
vt 0.08916 0.56160
vt 0.09640 0.55919
vt 0.09911 0.57628
vt 0.02404 0.50225
vt 0.07557 0.57350
vt 0.07399 0.56729
vt 0.08210 0.57837
vt 0.07674 0.57822
vt 0.07764 0.57749
vt 0.10536 0.56643
vt 0.10142 0.56962
vt 0.11373 0.56369
vt 0.09430 0.58957
vt 0.16350 0.15198
vt 0.15930 0.15393
vt 0.16284 0.14496
vt 0.08326 0.58208
vt 0.00234 0.67486
vt 0.00168 0.67580
vt 0.00205 0.66642
vt 0.15641 0.45381
vt 0.97524 0.37435
vt 0.97040 0.36744
vt 0.97492 0.34784
vt 0.16116 0.13092
vt 0.15627 0.44848
vt 0.02186 0.70520
vt 0.02451 0.70899
vt 0.01944 0.70899
vt 0.01072 0.70784
vt 0.08467 0.59188
vt 0.15910 0.13036
vt 0.17537 0.74872
vt 0.16721 0.74402
vt 0.08685 0.60387
vt 0.16048 0.11481
vt 0.14623 0.06723
vt 0.12668 0.09244
vt 0.12720 0.06723
vt 0.73510 0.52552
vt 0.74573 0.53615
vt 0.66101 0.52873
vt 0.75570 0.52414
vt 0.73452 0.55689
vt 0.16834 0.44682
vt 0.12604 0.05792
vt 0.18597 0.72051
vt 0.16068 0.72854
vt 0.12714 0.05351
vt 0.14449 0.05752
vt 0.17212 0.43044
vt 0.18203 0.44554
vt 0.17347 0.42993
vt 0.91307 0.54992
vt 0.91246 0.54861
vt 0.92283 0.55138
vt 0.93398 0.55189
vt 0.91319 0.52307
vt 0.93555 0.51806
vt 0.16316 0.71832
vt 0.35428 0.02805
vt 0.39778 0.61979
vt 0.91764 0.42943
vt 0.15209 0.83208
vt 0.25285 0.98940
vt 0.40389 0.57113
vt 0.40718 0.58192
vt 0.15602 0.82403
vt 0.17104 0.60764
vt 0.18166 0.62244
vt 0.55162 0.41369
vt 0.54261 0.39556
vt 0.54679 0.39222
vt 0.57666 0.44445
vt 0.60017 0.45544
vt 0.58808 0.45074
vt 0.98410 0.92575
vt 0.98921 0.92274
vt 0.98588 0.92678
vt 0.54971 0.42897
vt 0.20395 0.61206
vt 0.19560 0.61222
vt 0.19772 0.64383
vt 0.60239 0.45732
vt 0.55584 0.43515
vt 0.54230 0.38229
vt 0.17851 0.61594
vt 0.18678 0.61625
vt 0.56597 0.44017
vt 0.53222 0.35232
vt 0.54065 0.37361
vt 0.21381 0.62886
vt 0.20615 0.60883
vt 0.00237 0.14414
vt 0.00065 0.14781
vt 0.00081 0.13906
vt 0.99778 0.92452
vt 0.37512 0.59792
vt 0.38463 0.59597
vt 0.37268 0.58198
vt 0.34575 0.59349
vt 0.35648 0.56131
vt 0.37345 0.60881
vt 0.26250 0.30249
vt 0.25555 0.31242
vt 0.25595 0.29569
vt 0.26309 0.29049
vt 0.26324 0.28031
vt 0.25658 0.26948
vt 0.39174 0.27598
vt 0.38738 0.28217
vt 0.39005 0.26841
vt 0.38961 0.28780
vt 0.38535 0.29092
vt 0.40746 0.31572
vt 0.43472 0.28548
vt 0.40527 0.32801
vt 0.38818 0.29788
vt 0.38088 0.31028
vt 0.40864 0.30775
vt 0.99454 0.92668
vt 0.54971 0.42897
vt 0.54971 0.42897
vt 0.54971 0.42897
vt 0.54971 0.42897
vt 0.54971 0.42897
vt 0.54971 0.42897
vt 0.54971 0.42897
vt 0.54971 0.42897
vt 0.54971 0.42897
vt 0.54971 0.42897
vt 0.54971 0.42897
vt 0.54971 0.42897
vt 0.54971 0.42897
vt 0.54971 0.42897
vt 0.54971 0.42897
vt 0.54971 0.42897
vt 0.54971 0.42897
vt 0.54971 0.42897
vt 0.54971 0.42897
vn 0.9918 0.0513 -0.1170
vn 0.9912 0.0559 -0.1199
vn 0.9978 -0.0647 -0.0115
vn 0.9845 -0.1636 0.0633
vn 0.9979 -0.0233 -0.0604
vn 0.9517 -0.2528 0.1740
vn 0.7154 -0.1053 0.6907
vn 0.7154 -0.1053 0.6907
vn 0.7154 -0.1053 0.6907
vn 0.0759 0.6725 0.7362
vn 0.0759 0.6725 0.7362
vn 0.0759 0.6725 0.7362
vn 0.9717 -0.1005 0.2136
vn 0.9633 -0.1963 0.1830
vn 0.9845 -0.0989 0.1447
vn 0.0545 -0.9012 -0.4300
vn -0.0314 -0.8395 -0.5424
vn -0.0471 -0.8695 -0.4917
vn 0.9990 0.0113 -0.0433
vn 0.9942 -0.0567 0.0914
vn 0.8618 -0.3852 0.3301
vn 0.9798 0.1706 0.1047
vn 0.9834 0.1680 0.0685
vn 0.9834 0.1680 0.0685
vn -0.0495 -0.7201 -0.6921
vn -0.0551 -0.6089 -0.7913
vn 0.0089 -0.4550 -0.8904
vn -0.0941 -0.8499 -0.5184
vn -0.0898 -0.8770 -0.4720
vn 0.1111 0.5099 -0.8530
vn 0.0840 0.5007 -0.8615
vn 0.0857 0.4662 -0.8805
vn 0.1889 0.6897 -0.6990
vn 0.0945 0.5678 -0.8177
vn 0.1235 0.5314 -0.8381
vn 0.1750 -0.8495 0.4977
vn 0.0287 -0.7969 0.6034
vn 0.2253 -0.8185 0.5285
vn 0.9248 -0.1948 -0.3268
vn 0.9272 -0.2613 -0.2684
vn 0.8957 -0.2046 -0.3949
vn -0.0751 -0.7491 -0.6581
vn 0.9359 -0.1224 -0.3302
vn 0.9217 -0.2006 -0.3321
vn -0.1260 -0.8295 0.5441
vn 0.8646 -0.4842 0.1341
vn 0.8220 -0.4850 -0.2985
vn -0.2075 -0.8574 0.4709
vn 0.1889 -0.7401 0.6454
vn 0.0904 -0.8855 0.4558
vn 0.8893 0.4450 -0.1057
vn 0.8892 0.4454 -0.1047
vn 0.8892 0.4456 -0.1039
vn 0.4812 -0.5315 -0.6971
vn 0.4812 -0.5315 -0.6971
vn 0.4812 -0.5315 -0.6971
vn 0.1048 -0.8967 0.4301
vn 0.8891 0.4461 -0.1027
vn 0.9294 -0.0078 -0.3690
vn 0.9395 -0.1123 -0.3237
vn 0.8652 0.0328 -0.5004
vn 0.8805 -0.4632 0.1004
vn 0.1881 0.9632 0.1923
vn 0.1881 0.9632 0.1923
vn 0.1881 0.9632 0.1923
vn 0.4639 -0.8652 0.1904
vn 0.3025 -0.9325 0.1972
vn 0.4685 -0.8628 0.1901
vn 0.2632 0.1296 0.9560
vn 0.2851 0.1600 0.9451
vn 0.2799 0.1568 0.9471
vn -0.0215 0.8378 -0.5455
vn -0.0730 0.6642 -0.7439
vn -0.0364 0.7704 -0.6365
vn 0.2079 0.9708 -0.1201
vn 0.0968 0.9693 -0.2262
vn 0.0969 0.9416 -0.3226
vn -0.0706 0.6847 -0.7254
vn 0.8992 -0.3003 -0.3183
vn -0.0240 -0.0016 -0.9997
vn 0.0541 -0.1668 -0.9845
vn -0.1362 0.0101 -0.9906
vn 0.4310 -0.1562 -0.8888
vn 0.2157 0.9697 -0.1144
vn 0.3094 0.1753 0.9347
vn 0.4000 0.1156 0.9092
vn -0.0925 0.5573 -0.8252
vn -0.0035 0.7048 -0.7094
vn 0.2640 0.9629 -0.0560
vn 0.2711 0.1545 0.9501
vn 0.6021 -0.5866 -0.5416
vn 0.2986 -0.9338 0.1972
vn 0.9961 -0.0584 -0.0654
vn 0.9961 -0.0584 -0.0654
vn 0.9961 -0.0584 -0.0654
vn -0.2402 -0.8494 0.4700
vn -0.3020 -0.5496 -0.7790
vn -0.2834 -0.3796 -0.8807
vn -0.2602 -0.7490 0.6094
vn -0.2788 -0.9378 0.2068
vn -0.2462 -0.9357 0.2528
vn -0.2769 -0.9378 0.2095
vn 0.0435 0.5021 -0.8637
vn -0.3019 -0.9337 0.1928
vn -0.3019 -0.9337 0.1928
vn -0.3019 -0.9337 0.1928
vn -0.9912 -0.1322 0.0011
vn -0.9938 -0.0451 0.1014
vn -0.9980 -0.0516 0.0367
vn 0.1237 0.8384 -0.5308
vn 0.1575 0.8386 -0.5215
vn -0.4327 -0.7890 0.4363
vn -0.9951 -0.0483 0.0859
vn -0.9970 -0.0341 0.0694
vn -0.4869 -0.7675 0.4169
vn 0.0128 0.4843 -0.8748
vn 0.1177 0.4159 -0.9018
vn 0.0686 0.8709 -0.4866
vn -0.3271 -0.6871 -0.6488
vn -0.3374 -0.6756 -0.6555
vn -0.9959 -0.0430 0.0798
vn -0.0254 0.6929 -0.7206
vn -0.0299 0.9298 -0.3669
vn -0.9937 -0.0491 0.1009
vn -0.8407 0.2484 0.4812
vn -0.8930 0.3250 0.3112
vn -0.8280 0.2448 0.5045
vn -0.9994 0.0320 0.0117
vn -0.3015 -0.7973 0.5229
vn 0.0921 0.8286 -0.5522
vn -0.0995 -0.7152 -0.6918
vn -0.0641 -0.7423 -0.6670
vn -0.1864 -0.8305 -0.5249
vn -0.9965 -0.0333 0.0769
vn -0.9938 0.0918 -0.0635
vn -0.9157 0.4011 0.0272
vn -0.9748 0.1102 0.1939
vn -0.7242 0.3681 -0.5831
vn -0.8611 0.4358 -0.2618
vn -0.6741 0.3700 -0.6393
vn -0.9900 0.1165 -0.0790
vn -0.8932 0.3774 0.2443
vn -0.0714 -0.7263 -0.6837
vn -0.1429 -0.6720 -0.7266
vn 0.2288 0.0712 0.9709
vn 0.1197 0.8565 -0.5021
vn -0.7742 -0.3178 -0.5473
vn -0.7620 -0.3001 -0.5739
vn -0.8058 -0.3687 -0.4634
vn -0.2095 -0.8120 -0.5447
vn -0.8747 0.4174 -0.2464
vn -0.2111 0.0176 -0.9773
vn -0.5854 -0.1006 -0.8045
vn -0.2833 0.3701 -0.8848
vn 0.0021 0.4688 -0.8833
vn -0.0896 0.2957 -0.9511
vn -0.9541 0.2591 0.1502
vn -0.9317 0.3631 0.0028
vn -0.1104 -0.6750 -0.7295
vn 0.0924 0.8378 -0.5381
vn -0.1910 -0.7667 -0.6129
vn 0.2232 0.4213 -0.8791
vn -0.1283 0.0890 -0.9877
vn 0.8975 0.0271 -0.4402
vn 0.8975 0.0271 -0.4402
vn 0.8975 0.0271 -0.4402
vn 0.1142 -0.7979 -0.5918
vn -0.9645 0.2640 0.0035
vn 0.2939 -0.3453 -0.8913
vn 0.2939 -0.3453 -0.8913
vn 0.2939 -0.3453 -0.8913
vn -0.3283 -0.8166 0.4748
vn -0.2156 -0.7315 -0.6469
vn 0.5073 0.7090 -0.4898
vn 0.5203 0.7982 -0.3036
vn -0.9842 0.1664 -0.0602
vn -0.3194 -0.9362 0.1468
vn -0.8871 -0.4206 -0.1903
vn -0.8871 -0.4206 -0.1903
vn -0.8871 -0.4206 -0.1903
vn -0.2454 -0.9114 -0.3304
vn -0.3538 -0.1267 -0.9267
vn -0.3538 -0.1267 -0.9267
vn -0.3538 -0.1267 -0.9267
vn -0.2063 -0.6051 -0.7690
vn -0.0559 -0.6664 -0.7435
vn -0.3267 -0.6622 -0.6744
vn -0.9380 0.2594 0.2299
vn -0.1078 -0.6006 -0.7923
vn 0.0722 0.5090 -0.8577
vn 0.4256 0.6037 -0.6741
vn 0.1087 -0.8456 -0.5227
vn 0.1087 -0.8456 -0.5227
vn 0.1087 -0.8456 -0.5227
vn 0.0661 -0.9978 -0.0028
vn 0.1754 -0.9845 0.0016
vn 0.2361 -0.9705 0.0497
vn 0.1939 -0.9743 0.1145
vn 0.1381 -0.9844 0.1093
vn 0.2053 -0.9719 0.1156
vn 0.2262 -0.6438 -0.7310
vn -0.7323 -0.4278 -0.5298
vn -0.7197 -0.4360 -0.5403
vn -0.6939 -0.4520 -0.5606
vn 0.8458 0.4067 0.3453
vn 0.8458 0.4067 0.3453
vn 0.8458 0.4067 0.3453
vn -0.6804 -0.4599 -0.5706
vn 0.9316 -0.2351 -0.2774
vn 0.9202 -0.2749 -0.2786
vn 0.9702 -0.1430 -0.1957
vn 0.9620 -0.0819 -0.2604
vn 0.2506 0.8251 0.5063
vn 0.2063 0.9156 0.3451
vn 0.2150 0.9030 0.3720
vn 0.9303 -0.2506 -0.2678
vn 0.0635 -0.9691 -0.2384
vn 0.0643 -0.9972 0.0385
vn -0.0340 -0.5184 -0.8545
vn -0.0728 -0.8859 -0.4582
vn 0.2271 0.7592 0.6099
vn 0.9679 -0.1670 -0.1878
vn 0.2277 -0.9666 0.1175
vn 0.9907 -0.1026 -0.0898
vn 0.9885 -0.0910 -0.1204
vn -0.0229 0.4890 -0.8720
vn -0.0102 0.4735 -0.8807
vn -0.0198 0.4827 -0.8756
vn 0.1189 0.9366 -0.3297
vn 0.1124 0.9364 -0.3323
vn 0.1146 0.9365 -0.3314
vn 0.9790 -0.0817 -0.1870
vn -0.6270 -0.1320 0.7677
vn -0.6164 -0.1349 0.7758
vn -0.6175 -0.1347 0.7750
vn -0.0228 -0.9136 0.4060
vn -0.0399 -0.9454 0.3235
vn -0.0866 -0.9265 0.3662
vn 0.2351 -0.9664 -0.1039
vn -0.1048 -0.4630 -0.8801
vn -0.0872 -0.4849 -0.8702
vn -0.1114 -0.4548 -0.8836
vn -0.0199 -0.4883 -0.8725
vn -0.0346 -0.9499 0.3106
vn -0.0650 -0.9392 0.3370
vn 0.2190 0.7430 0.6325
vn -0.0035 -0.9050 0.4255
vn 0.0803 0.8358 -0.5431
vn -0.0117 -0.4972 -0.8676
vn -0.5995 -0.1396 0.7881
vn 0.0089 -0.9691 0.2465
vn 0.0065 -0.9653 0.2611
vn -0.9608 0.1460 0.2355
vn -0.9559 0.1254 0.2656
vn -0.9629 0.0834 0.2568
vn -0.8006 -0.4598 0.3843
vn -0.8032 -0.4563 0.3830
vn -0.8251 -0.4254 0.3718
vn -0.9163 -0.2856 -0.2808
vn -0.9163 -0.2856 -0.2808
vn -0.9163 -0.2856 -0.2808
vn -0.8808 0.4347 -0.1880
vn -0.9136 0.3855 -0.1289
vn -0.9013 0.4041 -0.1562
vn -0.8710 0.4490 -0.1994
vn -0.8699 0.4453 -0.2119
vn -0.8417 0.2591 0.4737
vn -0.9209 0.1954 0.3374
vn -0.8691 0.4531 -0.1981
vn -0.8271 -0.4224 0.3707
vn -0.2942 -0.5226 -0.8002
vn -0.3526 -0.5481 -0.7585
vn -0.4259 -0.5787 -0.6955
vn -0.2394 -0.5253 -0.8166
vn -0.2508 -0.5090 -0.8234
vn 0.7639 0.6238 -0.1651
vn 0.6795 0.6655 -0.3089
vn 0.5728 0.7071 -0.4147
vn -0.2539 -0.5218 -0.8144
vn -0.2572 -0.5443 -0.7985
vn 0.2613 -0.9603 -0.0979
vn -0.9636 0.1383 0.2290
vn 0.7504 -0.4413 -0.4921
vn 0.6633 -0.4910 -0.5648
vn 0.7135 -0.4468 -0.5397
vn -0.4607 0.7369 -0.4947
vn -0.5456 0.6315 -0.5510
vn -0.3783 0.8302 -0.4095
vn -0.4105 0.8554 -0.3158
vn -0.3231 0.9134 -0.2477
vn -0.2575 0.9460 -0.1967
vn -0.2104 0.9738 -0.0859
vn -0.2104 0.9738 -0.0859
vn -0.2104 0.9738 -0.0859
vn 0.1083 0.9364 -0.3339
vn 0.6185 0.6729 -0.4058
vn -0.9812 0.1911 0.0254
vn -0.4997 0.7758 -0.3854
vn 0.0384 0.5504 -0.8340
vn 0.0384 0.5504 -0.8340
vn 0.0384 0.5504 -0.8340
vn 0.1395 -0.1226 0.9826
vn 0.1395 -0.1226 0.9826
vn 0.1395 -0.1226 0.9826
vn -0.5785 0.8102 -0.0942
vn -0.6893 -0.7109 0.1395
vn -0.6893 -0.7109 0.1395
vn -0.6893 -0.7109 0.1395
vn -0.6449 0.7638 -0.0275
vn -0.6449 0.7638 -0.0275
vn -0.6449 0.7638 -0.0275
vn -0.0083 -0.5008 -0.8655
vn 0.6970 0.0996 0.7101
vn 0.6831 0.1476 0.7152
vn 0.6868 0.1170 0.7173
vn -0.6259 -0.1564 -0.7640
vn -0.6259 -0.1564 -0.7640
vn -0.6259 -0.1564 -0.7640
vn -0.1282 -0.4333 -0.8921
vn -0.0321 0.5033 -0.8635
vn -0.0329 0.5151 -0.8565
vn 0.3392 -0.7772 0.5300
vn 0.3392 -0.7772 0.5300
vn 0.3392 -0.7772 0.5300
vn 0.0208 -0.8828 0.4692
vn 0.8812 -0.4567 0.1219
vn 0.9664 -0.2555 0.0282
vn 0.9637 -0.2649 0.0325
vn -0.9205 0.2052 -0.3327
vn -0.9205 0.2052 -0.3327
vn -0.9205 0.2052 -0.3327
vn 0.7158 -0.3471 -0.6060
vn 0.6910 0.1501 0.7071
vn 0.6888 0.1769 0.7031
vn -0.5995 0.7781 -0.1874
vn -0.5750 0.8174 -0.0346
vn 0.9474 0.1364 -0.2894
vn 0.9586 0.1334 -0.2515
vn 0.9904 0.0780 -0.1140
vn 0.3261 0.7886 -0.5213
vn 0.3261 0.7886 -0.5213
vn 0.3261 0.7886 -0.5213
vn 0.8757 -0.4661 0.1264
vn 0.9187 0.1908 -0.3458
vn -0.8791 0.3285 -0.3453
vn -0.9678 0.1848 -0.1710
vn 0.0205 -0.8905 0.4545
vn 0.0241 -0.8878 0.4596
vn 0.6301 -0.5193 -0.5773
vn -0.9942 0.0747 0.0768
vn 0.9246 0.1638 -0.3439
vn 0.7956 0.5551 0.2426
vn 0.7956 0.5551 0.2426
vn 0.7956 0.5551 0.2426
vn 0.5696 0.7613 -0.3098
vn 0.7234 0.6289 -0.2849
vn -0.9925 0.1005 -0.0696
vn 0.9364 0.1249 -0.3280
vn 0.9353 0.1155 -0.3346
vn -0.2093 -0.5171 -0.8299
vn 0.8017 -0.5798 0.1455
vn 0.8017 -0.5798 0.1455
vn 0.8017 -0.5798 0.1455
vn 0.7429 -0.2349 -0.6268
vn -0.1071 -0.8266 0.5525
vn 0.0916 -0.8661 0.4913
vn -0.1609 -0.8711 0.4640
vn -0.9715 0.0049 0.2368
vn -0.9906 0.0154 0.1358
vn -0.3522 0.5741 -0.7392
vn -0.2720 0.5241 -0.8071
vn -0.2986 0.5311 -0.7929
vn 0.0231 -0.8736 0.4861
vn 0.9096 0.2100 -0.3586
vn -0.2690 -0.7802 0.5648
vn -0.5643 0.8235 -0.0591
vn 0.8926 0.2201 -0.3934
vn 0.7364 0.1449 0.6609
vn -0.1236 -0.9338 0.3357
vn -0.0646 -0.1838 -0.9808
vn -0.0646 -0.1838 -0.9808
vn -0.0646 -0.1838 -0.9808
vn -0.1292 0.3855 -0.9136
vn -0.0093 0.2545 -0.9670
vn -0.3612 -0.5679 -0.7396
vn -0.3818 -0.5671 -0.7298
vn -0.3780 -0.5743 -0.7261
vn 0.5451 0.7940 -0.2690
vn 0.8248 0.5122 -0.2397
vn 0.1389 -0.4809 -0.8657
vn 0.8558 0.2360 -0.4603
vn 0.0670 -0.5585 -0.8268
vn 0.3945 -0.3471 -0.8508
vn -0.3550 -0.5843 -0.7298
vn -0.1351 -0.4807 -0.8664
vn -0.1595 -0.9379 0.3081
vn 0.7462 0.1452 0.6497
vn 0.7921 0.5267 -0.3086
vn 0.8039 0.5148 -0.2979
vn 0.8951 0.4294 -0.1205
vn -0.1837 -0.9278 0.3247
vn -0.6967 -0.3282 -0.6379
vn -0.5782 -0.3487 -0.7376
vn -0.8069 -0.3664 -0.4633
vn -0.5444 -0.3189 -0.7759
vn -0.4437 0.5808 -0.6825
vn -0.3666 0.5590 -0.7437
vn -0.2453 0.5923 -0.7674
vn -0.3857 0.5665 -0.7282
vn -0.2369 0.5280 -0.8156
vn -0.2958 -0.7770 0.5557
vn -0.2871 -0.7720 0.5671
vn -0.2961 -0.7588 0.5801
vn -0.2337 -0.8686 0.4370
vn -0.4062 -0.5896 -0.6981
vn -0.3047 -0.7652 0.5671
vn -0.3851 -0.5696 -0.7261
vn -0.1176 0.6492 -0.7515
vn -0.4251 -0.3232 -0.8455
vn 0.1673 0.6944 -0.6998
vn 0.1839 0.7022 -0.6878
vn 0.1583 0.6952 -0.7012
vn 0.0438 0.9876 -0.1510
vn 0.1113 0.9777 0.1781
vn 0.0665 0.9877 0.1413
vn 0.0781 0.6794 -0.7296
vn 0.1049 0.9685 0.2259
vn -0.0706 0.5738 -0.8160
vn -0.4098 -0.3172 -0.8553
vn 0.1792 0.6849 -0.7062
vn 0.1847 0.7116 -0.6779
vn -0.4131 -0.5591 -0.7189
vn 0.1890 0.7141 -0.6741
vn -0.1677 0.6326 -0.7561
vn 0.0495 0.9908 0.1262
vn -0.8942 0.1605 0.4178
vn -0.8925 0.2157 0.3962
vn -0.9237 0.1074 0.3677
vn -0.9992 -0.0086 -0.0395
vn -0.9959 -0.0805 -0.0414
vn -0.9990 -0.0231 -0.0374
vn -0.9973 -0.0338 -0.0656
vn -0.8317 -0.4699 0.2957
vn -0.8317 -0.4699 0.2957
vn -0.8317 -0.4699 0.2957
vn -0.9389 0.0326 0.3428
vn -0.7291 0.4572 -0.5094
vn -0.7291 0.4572 -0.5094
vn -0.7291 0.4572 -0.5094
vn -0.9944 -0.0836 -0.0643
vn -0.2233 0.6369 -0.7379
vn -0.9947 0.0161 -0.1011
vn -0.7276 0.6820 0.0741
vn -0.7276 0.6820 0.0741
vn -0.7276 0.6820 0.0741
vn -0.9874 -0.1497 -0.0519
vn -0.9831 0.0957 -0.1559
vn -0.9790 0.1144 -0.1688
vn -0.9637 -0.2425 -0.1114
vn -0.6850 0.3670 -0.6293
vn -0.6614 0.3885 -0.6415
vn -0.2387 0.6865 -0.6868
vn -0.9239 -0.3250 -0.2017
vn -0.8657 0.3982 -0.3032
vn -0.8657 0.3982 -0.3032
vn -0.8657 0.3982 -0.3032
vn -0.9354 0.0590 0.3486
vn 0.9834 0.1680 0.0685
vn -0.9246 0.1680 0.3418
vn -0.9894 -0.1452 0.0042
vn 0.9082 -0.1641 0.3849
vn 0.9082 -0.1641 0.3849
vn 0.9082 -0.1641 0.3849
vn 0.9830 0.1329 0.1266
vn 0.9830 0.1329 0.1266
vn 0.3767 -0.5180 0.7680
vn 0.4344 -0.5173 0.7374
vn 0.2900 -0.4740 0.8314
vn 0.7156 0.3805 0.5858
vn 0.7156 0.3805 0.5858
vn 0.7156 0.3805 0.5858
vn 0.2039 -0.3607 0.9101
vn 0.0363 0.4859 0.8733
vn 0.0820 0.4407 0.8939
vn 0.0755 0.5393 0.8387
vn 0.1663 -0.2719 0.9478
vn 0.1246 0.6468 0.7524
vn 0.0647 0.5135 0.8556
vn 0.3607 -0.0667 0.9303
vn 0.3607 -0.0667 0.9303
vn 0.3607 -0.0667 0.9303
vn -0.1849 -0.7728 0.6071
vn -0.1256 -0.7581 0.6399
vn -0.1768 -0.7809 0.5992
vn -0.0238 -0.9939 0.1073
vn 0.1751 -0.8374 0.5178
vn 0.1007 -0.9240 0.3688
vn -0.0399 0.3540 0.9344
vn -0.0399 0.3540 0.9344
vn -0.0399 0.3540 0.9344
vn 0.0049 -0.7162 0.6979
vn 0.1825 -0.8267 0.5323
vn -0.0834 -0.5220 -0.8488
vn -0.0834 -0.5220 -0.8488
vn -0.0834 -0.5220 -0.8488
vn 0.3590 -0.4382 0.8241
vn 0.4251 -0.4925 0.7594
vn 0.3399 -0.5068 0.7922
vn 0.0945 -0.6849 0.7225
vn 0.3746 0.8128 0.4462
vn 0.3746 0.8128 0.4462
vn 0.3746 0.8128 0.4462
vn 0.0436 0.4938 0.8685
vn -0.2443 -0.2145 0.9457
vn -0.2443 -0.2145 0.9457
vn -0.2443 -0.2145 0.9457
vn -0.0484 0.9355 0.3500
vn -0.0484 0.9355 0.3500
vn -0.0484 0.9355 0.3500
vn -0.7959 -0.4353 0.4208
vn -0.7959 -0.4353 0.4208
vn -0.7959 -0.4353 0.4208
vn 0.2108 0.4407 0.8726
vn 0.9980 -0.0164 -0.0618
vn 0.9819 0.0789 0.1721
vn 0.9882 0.0536 0.1434
vn 0.9950 -0.0378 -0.0920
vn 0.9808 0.0791 0.1784
vn 0.9750 0.0345 0.2195
vn 0.9106 -0.0637 0.4083
vn 0.9629 0.0986 0.2511
vn 0.9566 0.1329 0.2594
vn 0.4297 -0.5274 0.7329
vn 0.8874 -0.4536 0.0827
vn 0.9563 0.1735 0.2355
vn 0.9968 -0.0578 0.0543
vn 0.4643 -0.6144 0.6379
vn 0.2039 0.6099 0.7658
vn 0.2531 0.5057 0.8248
vn 0.3102 0.4663 0.8284
vn -0.0671 -0.3187 0.9455
vn -0.1230 0.0388 0.9916
vn -0.1002 -0.1345 0.9858
vn 0.9730 0.1785 -0.1461
vn 0.9785 0.1407 -0.1505
vn 0.9805 0.1209 -0.1550
vn -0.0504 0.5597 0.8272
vn 0.3917 0.5947 0.7020
vn -0.0053 0.5625 0.8268
vn 0.9191 0.3317 0.2124
vn 0.9989 0.0474 -0.0025
vn 0.8306 -0.1693 -0.5305
vn 0.8856 -0.3204 -0.3362
vn 0.8851 -0.3177 -0.3400
vn 0.1490 0.7111 0.6871
vn 0.2417 0.6862 0.6861
vn 0.2068 0.6930 0.6906
vn 0.9256 -0.3736 0.0603
vn 0.9833 -0.1748 -0.0502
vn 0.8888 -0.3455 -0.3012
vn 0.9978 0.0396 0.0529
vn 0.8415 0.5349 -0.0757
vn 0.9448 0.3157 -0.0880
vn -0.2094 0.1564 0.9652
vn -0.1270 -0.4059 0.9050
vn 0.9978 0.0156 -0.0639
vn 0.7376 0.6469 -0.1935
vn 0.8042 0.5662 -0.1806
vn 0.9538 0.2764 -0.1176
vn 0.9549 0.2613 -0.1408
vn 0.3008 -0.5680 0.7661
vn 0.7711 0.4431 0.4572
vn 0.8389 0.5079 0.1958
vn 0.9523 0.2211 0.2103
vn 0.8843 -0.4510 -0.1206
vn 0.9829 0.0740 -0.1689
vn 0.9822 0.1255 -0.1396
vn 0.8976 -0.4213 0.1299
vn 0.9397 0.3319 -0.0825
vn 0.9756 0.1699 -0.1388
vn 0.7748 0.6017 -0.1941
vn 0.4228 0.5719 0.7030
vn 0.9402 0.2190 0.2609
vn 0.8886 0.4422 -0.1217
vn 0.9862 -0.1311 0.1011
vn 0.8521 -0.3967 -0.3413
vn -0.2208 -0.7675 0.6019
vn -0.2208 -0.7675 0.6019
vn 0.3899 0.6378 0.6642
vn 0.9284 0.3342 -0.1624
vn 0.9469 0.2241 -0.2304
vn 0.9921 -0.1005 0.0755
vn 0.9087 -0.2743 0.3148
vn 0.8132 -0.3446 -0.4691
vn 0.7528 -0.6285 -0.1958
vn 0.7528 -0.6285 -0.1958
vn 0.7528 -0.6285 -0.1958
vn 0.9762 -0.1161 -0.1831
vn -0.1768 0.4586 -0.8709
vn -0.1768 0.4586 -0.8709
vn -0.1768 0.4586 -0.8709
vn 0.9193 0.3916 -0.0380
vn 0.8021 0.5825 -0.1316
vn 0.8237 0.5446 -0.1579
vn 0.7762 0.6210 -0.1091
vn 0.3473 0.8160 -0.4621
vn 0.1452 0.8749 -0.4619
vn -0.0954 0.8733 -0.4777
vn 0.3294 -0.9436 0.0331
vn 0.2401 -0.9652 -0.1036
vn 0.2733 -0.9593 -0.0703
vn -0.1591 0.8696 -0.4675
vn -0.1516 0.8514 -0.5021
vn -0.1525 0.8520 -0.5008
vn 0.7287 0.6843 -0.0254
vn 0.6582 0.7373 0.1524
vn 0.2954 -0.9489 0.1109
vn 0.3245 -0.9171 0.2317
vn 0.1209 0.7243 0.6788
vn 0.1337 0.7167 0.6844
vn 0.1256 0.8827 -0.4528
vn -0.0167 0.9329 -0.3598
vn 0.0043 0.9213 -0.3888
vn 0.1774 -0.9331 0.3129
vn 0.1696 -0.9382 0.3016
vn 0.1503 -0.9449 0.2910
vn -0.0806 0.5343 0.8414
vn -0.0156 0.5165 0.8562
vn -0.0510 0.6432 0.7640
vn 0.1533 -0.9876 -0.0330
vn -0.1157 0.9154 -0.3855
vn 0.1061 0.8247 -0.5555
vn 0.1061 0.8247 -0.5555
vn 0.1061 0.8247 -0.5555
vn -0.0803 0.8174 0.5704
vn -0.1172 0.5286 0.8407
vn 0.0090 -0.4602 -0.8878
vn 0.0215 -0.4303 -0.9024
vn 0.0199 -0.4327 -0.9013
vn -0.2083 0.8703 -0.4463
vn 0.0125 -0.4074 -0.9132
vn -0.0055 -0.4237 -0.9058
vn -0.1228 0.9838 -0.1308
vn -0.2967 0.9550 -0.0063
vn 0.1303 0.6754 0.7258
vn 0.1323 0.6934 0.7083
vn 0.1906 -0.9262 0.3254
vn -0.1528 0.8522 -0.5004
vn -0.0296 -0.4173 -0.9083
vn -0.1585 0.4627 0.8722
vn 0.1960 -0.9792 0.0517
vn 0.2310 -0.9674 0.1042
vn 0.1892 -0.9289 0.3182
vn -0.2673 0.8475 -0.4585
vn 0.1774 -0.9402 0.2906
vn -0.8811 0.4729 0.0024
vn -0.9033 0.4281 0.0274
vn -0.8554 0.5174 -0.0233
vn -0.9751 -0.2191 0.0334
vn -0.9793 -0.2021 -0.0105
vn -0.9799 -0.1982 0.0230
vn -0.9142 0.4033 0.0408
vn -0.9456 -0.3094 0.1005
vn -0.9476 -0.3171 0.0383
vn -0.9709 -0.2125 0.1102
vn -0.8379 -0.2648 0.4773
vn -0.8867 -0.3089 0.3439
vn -0.9784 -0.2064 -0.0069
vn -0.9796 -0.2006 -0.0143
vn -0.9780 -0.2088 0.0036
vn -0.9819 -0.1533 0.1113
vn -0.4009 -0.7933 -0.4582
vn -0.4016 -0.7962 -0.4525
vn -0.3521 -0.8201 -0.4510
vn -0.9696 -0.0936 0.2260
vn 0.8296 0.2908 -0.4766
vn 0.8296 0.2908 -0.4766
vn 0.8296 0.2908 -0.4766
vn -0.1413 0.5307 0.8357
vn 0.9838 -0.1205 -0.1323
vn 0.9838 -0.1205 -0.1323
vn 0.9838 -0.1205 -0.1323
vn -0.5874 -0.7365 -0.3354
vn -0.1562 0.4626 0.8727
vn -0.2127 -0.9719 0.1012
vn -0.1301 -0.9911 -0.0270
vn -0.2673 -0.9449 0.1891
vn -0.3292 -0.8979 0.2923
vn -0.9810 -0.1375 0.1367
vn -0.6061 -0.7370 -0.2991
vn -0.3467 0.9320 -0.1057
vn -0.3955 0.9125 -0.1045
vn -0.9861 -0.1138 0.1213
vn -0.6148 -0.7568 -0.2218
vn -0.2836 -0.7363 0.6144
vn -0.2916 -0.7728 0.5637
vn -0.2871 -0.7373 0.6116
vn -0.9854 -0.1647 -0.0443
vn -0.9857 -0.1643 -0.0365
vn -0.9858 -0.1553 -0.0638
vn -0.9846 -0.1749 -0.0025
vn -0.9861 -0.1527 -0.0657
vn -0.1658 0.4334 0.8858
vn -0.2727 -0.6813 0.6793
vn -0.3988 0.9132 -0.0841
vn -0.4177 0.9008 -0.1187
vn -0.2640 -0.6527 0.7101
vn -0.2746 -0.7074 0.6513
vn -0.2095 0.2746 0.9385
vn -0.1713 0.4014 0.8997
vn -0.2609 0.0265 0.9650
vn -0.9423 -0.0140 0.3344
vn -0.9460 -0.0036 0.3242
vn -0.9498 0.0111 0.3128
vn -0.9495 0.0024 0.3139
vn -0.9502 0.0020 0.3117
vn -0.9516 0.0027 0.3072
vn -0.4092 0.9047 -0.1186
vn 0.9830 0.1329 0.1266
vn 0.9454 0.3054 -0.1142
vn 0.8196 0.5642 -0.0993
vn 0.9825 0.1536 0.1056
vn -0.2208 -0.7675 0.6019
vn 0.9947 0.0709 0.0739
vn 0.9549 0.2945 -0.0376
vn 0.9885 -0.1506 0.0169
vn 0.8903 -0.4106 0.1969
vn 0.9964 -0.0789 0.0317
vn 0.9852 -0.1623 0.0545
vn 0.9784 -0.1979 0.0594
vn 0.9710 -0.2334 0.0526
vn 0.6560 0.7062 -0.2665
vn 0.6584 0.7256 -0.2003
vn 0.5100 0.8162 -0.2715
vn 0.8459 0.2953 -0.4441
vn 0.9569 0.1734 -0.2330
vn 0.8966 0.2505 -0.3651
vn 0.9925 -0.1053 0.0621
vn 0.9905 -0.1037 -0.0908
vn 0.9746 -0.2237 -0.0114
vn 0.9474 0.2992 -0.1140
vn 0.6708 0.7158 -0.1938
vn 0.9822 0.1763 -0.0640
vn 0.9826 -0.1808 0.0419
vn 0.9010 -0.3894 0.1911
vn 0.9285 -0.3539 0.1124
vn 0.7476 0.6271 -0.2186
vn 0.9925 -0.1135 0.0454
vn 0.9921 -0.1170 0.0454
vn 0.9550 0.2734 -0.1154
vn 0.9184 -0.3867 -0.0839
vn 0.7166 0.6853 -0.1297
vn 0.7166 0.6853 -0.1297
vn 0.7166 0.6853 -0.1297
vn 0.9691 0.1477 -0.1976
vn 0.1878 -0.9204 0.3430
vn 0.2378 -0.9134 0.3304
vn 0.1771 -0.9290 0.3250
vn 0.1671 -0.9321 0.3214
vn 0.1676 -0.9340 0.3156
vn 0.1774 -0.9262 0.3328
vn -0.9796 -0.1999 -0.0229
vn -0.9812 -0.1918 -0.0188
vn -0.9763 -0.2159 -0.0178
vn -0.9745 -0.2243 -0.0104
vn -0.9679 -0.2510 0.0087
vn -0.9551 -0.2952 -0.0243
vn -0.2346 -0.9310 0.2798
vn -0.2005 -0.9313 0.3043
vn -0.2426 -0.9305 0.2744
vn -0.2062 -0.9302 0.3037
vn -0.2238 -0.9305 0.2899
vn -0.9866 -0.1357 -0.0901
vn -0.9760 -0.1334 -0.1722
vn -0.9868 -0.1400 -0.0819
vn -0.2422 -0.9273 0.2853
vn -0.2374 -0.9077 0.3459
vn -0.9856 -0.1213 -0.1175
vn 0.9690 0.1489 -0.1970
vn 0.0000 1.0000 0.0000
vn 0.0000 1.0000 0.0000
vn 0.0000 1.0000 0.0000
vn 0.0000 1.0000 0.0000
vn 0.0000 1.0000 0.0000
vn 0.0000 1.0000 0.0000
vn 0.0000 1.0000 0.0000
vn 0.0000 1.0000 0.0000
vn 0.0000 1.0000 0.0000
vn 0.0000 1.0000 0.0000
vn 0.0000 1.0000 0.0000
vn 0.0000 1.0000 0.0000
vn 0.0000 1.0000 0.0000
vn 0.0000 1.0000 0.0000
vn 0.0000 1.0000 0.0000
vn 0.0000 1.0000 0.0000
vn 0.0000 1.0000 0.0000
vn 0.0000 1.0000 0.0000
vn 0.0000 1.0000 0.0000
f 1/1/1 2/2/2 3/3/3
f 3/3/3 4/4/4 5/5/5
f 5/5/5 1/1/1 3/3/3
f 3/3/3 6/6/6 4/4/4
f 7/7/7 8/8/8 9/9/9
f 10/10/10 11/11/11 12/12/12
f 13/13/13 14/14/14 15/15/15
f 16/16/16 17/17/17 18/18/18
f 19/19/19 20/20/20 1/1/1
f 19/19/19 1/1/1 5/5/5
f 13/13/13 21/21/21 14/14/14
f 471/471/471 472/472/472 473/473/473
f 13/13/13 15/15/15 22/22/22
f 474/474/474 475/475/475 719/719/719
f 23/23/23 24/24/24 468/468/468
f 476/476/476 477/477/477 478/478/478
f 25/25/25 26/26/26 27/27/27
f 479/479/479 480/480/480 481/481/481
f 18/18/18 17/17/17 28/28/28
f 29/29/29 25/25/25 18/18/18
f 30/30/30 31/31/31 32/32/32
f 33/33/33 34/34/34 35/35/35
f 29/29/29 18/18/18 28/28/28
f 36/36/36 37/37/37 38/38/38
f 39/39/39 40/40/40 41/41/41
f 25/25/25 29/29/29 42/42/42
f 40/40/40 43/43/43 41/41/41
f 476/476/476 478/478/478 482/482/482
f 25/25/25 42/42/42 26/26/26
f 483/483/483 484/484/484 485/485/485
f 482/482/482 478/478/478 486/486/486
f 40/40/40 44/44/44 43/43/43
f 45/45/45 38/38/38 37/37/37
f 40/40/40 46/46/46 47/47/47
f 485/485/485 487/487/487 488/488/488
f 48/48/48 49/49/49 50/50/50
f 51/51/51 52/52/52 53/53/53
f 54/54/54 55/55/55 56/56/56
f 489/489/489 490/490/490 491/491/491
f 50/50/50 57/57/57 45/45/45
f 58/58/58 53/53/53 52/52/52
f 35/35/35 34/34/34 31/31/31
f 492/492/492 493/493/493 494/494/494
f 495/495/495 496/496/496 497/497/497
f 59/59/59 60/60/60 61/61/61
f 46/46/46 62/62/62 47/47/47
f 45/45/45 57/57/57 38/38/38
f 63/63/63 64/64/64 65/65/65
f 43/43/43 44/44/44 61/61/61
f 43/43/43 61/61/61 60/60/60
f 66/66/66 67/67/67 68/68/68
f 59/59/59 61/61/61 44/44/44
f 69/69/69 70/70/70 71/71/71
f 498/498/498 499/499/499 500/500/500
f 72/72/72 73/73/73 74/74/74
f 75/75/75 76/76/76 77/77/77
f 72/72/72 78/78/78 73/73/73
f 79/79/79 44/44/44 40/40/40
f 501/501/501 493/493/493 492/492/492
f 496/496/496 502/502/502 497/497/497
f 503/503/503 504/504/504 505/505/505
f 80/80/80 81/81/81 82/82/82
f 47/47/47 79/79/79 40/40/40
f 80/80/80 83/83/83 81/81/81
f 50/50/50 45/45/45 48/48/48
f 75/75/75 77/77/77 84/84/84
f 506/506/506 507/507/507 508/508/508
f 493/493/493 501/501/501 509/509/509
f 71/71/71 85/85/85 86/86/86
f 510/510/510 511/511/511 512/512/512
f 87/87/87 88/88/88 78/78/78
f 485/485/485 513/513/513 483/483/483
f 89/89/89 75/75/75 84/84/84
f 485/485/485 488/488/488 513/513/513
f 514/514/514 515/515/515 516/516/516
f 90/90/90 85/85/85 71/71/71
f 517/517/517 518/518/518 519/519/519
f 520/520/520 521/521/521 522/522/522
f 91/91/91 79/79/79 47/47/47
f 67/67/67 66/66/66 92/92/92
f 488/488/488 523/523/523 513/513/513
f 70/70/70 90/90/90 71/71/71
f 524/524/524 525/525/525 526/526/526
f 526/526/526 527/527/527 524/524/524
f 525/525/525 528/528/528 526/526/526
f 525/525/525 529/529/529 528/528/528
f 530/530/530 531/531/531 529/529/529
f 532/532/532 528/528/528 531/531/531
f 507/507/507 533/533/533 508/508/508
f 529/529/529 531/531/531 528/528/528
f 93/93/93 94/94/94 95/95/95
f 48/48/48 45/45/45 96/96/96
f 81/81/81 97/97/97 98/98/98
f 99/99/99 45/45/45 37/37/37
f 100/100/100 101/101/101 102/102/102
f 729/729/729 730/730/730 731/731/731
f 732/732/732 733/733/733 734/734/734
f 735/735/735 736/736/736 737/737/737
f 534/534/534 535/535/535 536/536/536
f 537/537/537 533/533/533 507/507/507
f 103/103/103 32/32/32 31/31/31
f 729/729/729 738/738/738 730/730/730
f 739/739/739 728/728/728 740/740/740
f 45/45/45 99/99/99 96/96/96
f 538/538/538 539/539/539 540/540/540
f 541/541/541 542/542/542 543/543/543
f 104/104/104 105/105/105 106/106/106
f 733/733/733 742/742/742 734/734/734
f 744/744/744 731/731/731 730/730/730
f 544/544/544 545/545/545 546/546/546
f 728/728/728 745/745/745 746/746/746
f 728/728/728 727/727/727 745/745/745
f 107/107/107 108/108/108 109/109/109
f 734/734/734 747/747/747 732/732/732
f 77/77/77 110/110/110 111/111/111
f 547/547/547 548/548/548 549/549/549
f 550/550/550 551/551/551 535/535/535
f 740/740/740 728/728/728 746/746/746
f 747/747/747 743/743/743 732/732/732
f 552/552/552 553/553/553 554/554/554
f 538/538/538 555/555/555 539/539/539
f 48/48/48 96/96/96 112/112/112
f 556/556/556 557/557/557 555/555/555
f 555/555/555 538/538/538 556/556/556
f 558/558/558 559/559/559 560/560/560
f 730/730/730 748/748/748 749/749/749
f 107/107/107 113/113/113 108/108/108
f 739/739/739 750/750/750 728/728/728
f 535/535/535 561/561/561 536/536/536
f 720/720/720 562/562/562 563/563/563
f 108/108/108 113/113/113 114/114/114
f 730/730/730 749/749/749 744/744/744
f 551/551/551 561/561/561 535/535/535
f 31/31/31 34/34/34 103/103/103
f 543/543/543 542/542/542 564/564/564
f 112/112/112 115/115/115 48/48/48
f 565/565/565 541/541/541 543/543/543
f 116/116/116 117/117/117 32/32/32
f 566/566/566 551/551/551 550/550/550
f 567/567/567 721/721/721 568/568/568
f 720/720/720 569/569/569 570/570/570
f 751/751/751 739/739/739 740/740/740
f 109/109/109 113/113/113 107/107/107
f 533/533/533 571/571/571 508/508/508
f 32/32/32 103/103/103 116/116/116
f 76/76/76 118/118/118 77/77/77
f 572/572/572 573/573/573 574/574/574
f 119/119/119 97/97/97 120/120/120
f 554/554/554 553/553/553 575/575/575
f 114/114/114 113/113/113 121/121/121
f 737/737/737 736/736/736 779/779/779
f 546/546/546 576/576/576 577/577/577
f 558/558/558 578/578/578 559/559/559
f 546/546/546 577/577/577 544/544/544
f 574/574/574 535/535/535 572/572/572
f 78/78/78 88/88/88 73/73/73
f 752/752/752 753/753/753 754/754/754
f 122/122/122 88/88/88 87/87/87
f 76/76/76 123/123/123 118/118/118
f 124/124/124 121/121/121 113/113/113
f 544/544/544 579/579/579 580/580/580
f 728/728/728 750/750/750 741/741/741
f 125/125/125 126/126/126 127/127/127
f 567/567/567 568/568/568 581/581/581
f 124/124/124 128/128/128 121/121/121
f 779/779/779 736/736/736 755/755/755
f 548/548/548 582/582/582 549/549/549
f 129/129/129 99/99/99 37/37/37
f 77/77/77 118/118/118 130/130/130
f 574/574/574 573/573/573 583/583/583
f 568/568/568 721/721/721 584/584/584
f 544/544/544 580/580/580 545/545/545
f 585/585/585 568/568/568 559/559/559
f 559/559/559 578/578/578 585/585/585
f 720/720/720 563/563/563 569/569/569
f 535/535/535 574/574/574 722/722/722
f 722/722/722 550/550/550 535/535/535
f 559/559/559 586/586/586 560/560/560
f 119/119/119 98/98/98 97/97/97
f 723/723/723 587/587/587 588/588/588
f 131/131/131 132/132/132 133/133/133
f 589/589/589 582/582/582 548/548/548
f 134/134/134 128/128/128 135/135/135
f 136/136/136 137/137/137 469/469/469
f 590/590/590 579/579/579 544/544/544
f 568/568/568 591/591/591 559/559/559
f 138/138/138 139/139/139 140/140/140
f 141/141/141 135/135/135 128/128/128
f 137/137/137 470/470/470 469/469/469
f 574/574/574 583/583/583 592/592/592
f 126/126/126 142/142/142 127/127/127
f 583/583/583 593/593/593 592/592/592
f 560/560/560 586/586/586 594/594/594
f 143/143/143 144/144/144 131/131/131
f 145/145/145 85/85/85 90/90/90
f 122/122/122 146/146/146 88/88/88
f 724/724/724 579/579/579 725/725/725
f 147/147/147 148/148/148 149/149/149
f 128/128/128 134/134/134 121/121/121
f 595/595/595 596/596/596 597/597/597
f 126/126/126 125/125/125 137/137/137
f 568/568/568 584/584/584 591/591/591
f 132/132/132 150/150/150 133/133/133
f 138/138/138 151/151/151 139/139/139
f 598/598/598 726/726/726 722/722/722
f 599/599/599 600/600/600 601/601/601
f 722/722/722 592/592/592 598/598/598
f 722/722/722 574/574/574 592/592/592
f 152/152/152 82/82/82 81/81/81
f 757/757/757 756/756/756 758/758/758
f 725/725/725 579/579/579 602/602/602
f 563/563/563 725/725/725 569/569/569
f 603/603/603 604/604/604 605/605/605
f 579/579/579 590/590/590 602/602/602
f 148/148/148 147/147/147 153/153/153
f 154/154/154 155/155/155 156/156/156
f 569/569/569 725/725/725 602/602/602
f 139/139/139 151/151/151 136/136/136
f 606/606/606 607/607/607 608/608/608
f 609/609/609 610/610/610 611/611/611
f 137/137/137 157/157/157 126/126/126
f 131/131/131 133/133/133 143/143/143
f 151/151/151 158/158/158 136/136/136
f 159/159/159 144/144/144 143/143/143
f 160/160/160 110/110/110 77/77/77
f 133/133/133 150/150/150 161/161/161
f 158/158/158 157/157/157 136/136/136
f 156/156/156 162/162/162 163/163/163
f 164/164/164 165/165/165 166/166/166
f 612/612/612 613/613/613 608/608/608
f 156/156/156 155/155/155 162/162/162
f 159/159/159 143/143/143 167/167/167
f 158/158/158 168/168/168 157/157/157
f 612/612/612 614/614/614 613/613/613
f 169/169/169 170/170/170 171/171/171
f 99/99/99 129/129/129 172/172/172
f 157/157/157 137/137/137 136/136/136
f 81/81/81 98/98/98 152/152/152
f 161/161/161 150/150/150 173/173/173
f 174/174/174 155/155/155 175/175/175
f 157/157/157 168/168/168 176/176/176
f 603/603/603 605/605/605 615/615/615
f 177/177/177 100/100/100 102/102/102
f 178/178/178 179/179/179 180/180/180
f 161/161/161 181/181/181 133/133/133
f 603/603/603 615/615/615 616/616/616
f 182/182/182 183/183/183 184/184/184
f 185/185/185 186/186/186 187/187/187
f 617/617/617 618/618/618 609/609/609
f 188/188/188 126/126/126 157/157/157
f 185/185/185 189/189/189 186/186/186
f 130/130/130 118/118/118 190/190/190
f 155/155/155 191/191/191 162/162/162
f 192/192/192 193/193/193 194/194/194
f 157/157/157 176/176/176 188/188/188
f 195/195/195 196/196/196 197/197/197
f 198/198/198 199/199/199 200/200/200
f 186/186/186 189/189/189 201/201/201
f 202/202/202 203/203/203 204/204/204
f 155/155/155 174/174/174 191/191/191
f 205/205/205 206/206/206 207/207/207
f 619/619/619 557/557/557 620/620/620
f 621/621/621 622/622/622 623/623/623
f 204/204/204 203/203/203 208/208/208
f 209/209/209 210/210/210 211/211/211
f 617/617/617 609/609/609 611/611/611
f 624/624/624 625/625/625 626/626/626
f 756/756/756 759/759/759 758/758/758
f 758/758/758 759/759/759 760/760/760
f 627/627/627 628/628/628 629/629/629
f 209/209/209 211/211/211 212/212/212
f 130/130/130 160/160/160 77/77/77
f 213/213/213 214/214/214 215/215/215
f 608/608/608 607/607/607 612/612/612
f 216/216/216 211/211/211 210/210/210
f 196/196/196 195/195/195 217/217/217
f 555/555/555 557/557/557 619/619/619
f 217/217/217 195/195/195 218/218/218
f 611/611/611 630/630/630 617/617/617
f 161/161/161 173/173/173 219/219/219
f 220/220/220 196/196/196 217/217/217
f 221/221/221 213/213/213 215/215/215
f 631/631/631 612/612/612 607/607/607
f 211/211/211 216/216/216 222/222/222
f 610/610/610 630/630/630 611/611/611
f 198/198/198 200/200/200 223/223/223
f 759/759/759 756/756/756 761/761/761
f 632/632/632 633/633/633 634/634/634
f 224/224/224 211/211/211 222/222/222
f 635/635/635 636/636/636 629/629/629
f 211/211/211 224/224/224 225/225/225
f 226/226/226 227/227/227 228/228/228
f 637/637/637 638/638/638 639/639/639
f 229/229/229 230/230/230 231/231/231
f 232/232/232 211/211/211 225/225/225
f 233/233/233 234/234/234 235/235/235
f 236/236/236 237/237/237 238/238/238
f 217/217/217 218/218/218 239/239/239
f 240/240/240 241/241/241 242/242/242
f 631/631/631 640/640/640 612/612/612
f 641/641/641 642/642/642 639/639/639
f 643/643/643 623/623/623 622/622/622
f 219/219/219 173/173/173 243/243/243
f 244/244/244 245/245/245 238/238/238
f 644/644/644 643/643/643 622/622/622
f 639/639/639 642/642/642 637/637/637
f 246/246/246 213/213/213 221/221/221
f 237/237/237 236/236/236 247/247/247
f 245/245/245 236/236/236 238/238/238
f 645/645/645 619/619/619 646/646/646
f 248/248/248 160/160/160 130/130/130
f 646/646/646 619/619/619 620/620/620
f 647/647/647 625/625/625 624/624/624
f 648/648/648 614/614/614 612/612/612
f 629/629/629 636/636/636 627/627/627
f 642/642/642 649/649/649 637/637/637
f 173/173/173 249/249/249 243/243/243
f 235/235/235 234/234/234 250/250/250
f 244/244/244 251/251/251 252/252/252
f 650/650/650 627/627/627 636/636/636
f 617/617/617 651/651/651 652/652/652
f 253/253/253 254/254/254 255/255/255
f 256/256/256 257/257/257 258/258/258
f 259/259/259 260/260/260 261/261/261
f 262/262/262 263/263/263 264/264/264
f 265/265/265 262/262/262 266/266/266
f 244/244/244 252/252/252 245/245/245
f 262/262/262 264/264/264 266/266/266
f 625/625/625 647/647/647 653/653/653
f 654/654/654 612/612/612 640/640/640
f 625/625/625 653/653/653 655/655/655
f 617/617/617 630/630/630 651/651/651
f 267/267/267 253/253/253 268/268/268
f 265/265/265 269/269/269 262/262/262
f 257/257/257 270/270/270 258/258/258
f 271/271/271 272/272/272 273/273/273
f 274/274/274 271/271/271 275/275/275
f 656/656/656 657/657/657 658/658/658
f 276/276/276 277/277/277 278/278/278
f 279/279/279 280/280/280 274/274/274
f 239/239/239 281/281/281 217/217/217
f 659/659/659 660/660/660 661/661/661
f 274/274/274 275/275/275 279/279/279
f 656/656/656 662/662/662 657/657/657
f 663/663/663 664/664/664 659/659/659
f 282/282/282 268/268/268 253/253/253
f 283/283/283 284/284/284 285/285/285
f 659/659/659 665/665/665 663/663/663
f 666/666/666 663/663/663 667/667/667
f 282/282/282 253/253/253 255/255/255
f 286/286/286 287/287/287 288/288/288
f 289/289/289 290/290/290 291/291/291
f 668/668/668 669/669/669 660/660/660
f 661/661/661 660/660/660 669/669/669
f 292/292/292 293/293/293 294/294/294
f 230/230/230 295/295/295 231/231/231
f 660/660/660 670/670/670 668/668/668
f 663/663/663 665/665/665 667/667/667
f 296/296/296 278/278/278 277/277/277
f 297/297/297 255/255/255 254/254/254
f 665/665/665 659/659/659 671/671/671
f 762/762/762 763/763/763 764/764/764
f 289/289/289 298/298/298 290/290/290
f 672/672/672 673/673/673 674/674/674
f 299/299/299 300/300/300 301/301/301
f 302/302/302 303/303/303 304/304/304
f 671/671/671 675/675/675 665/665/665
f 286/286/286 305/305/305 287/287/287
f 676/676/676 677/677/677 678/678/678
f 306/306/306 307/307/307 308/308/308
f 671/671/671 659/659/659 661/661/661
f 764/764/764 765/765/765 762/762/762
f 766/766/766 764/764/764 767/767/767
f 309/309/309 310/310/310 311/311/311
f 243/243/243 249/249/249 312/312/312
f 679/679/679 627/627/627 650/650/650
f 680/680/680 681/681/681 682/682/682
f 313/313/313 314/314/314 315/315/315
f 274/274/274 272/272/272 271/271/271
f 673/673/673 683/683/683 674/674/674
f 650/650/650 684/684/684 679/679/679
f 316/316/316 317/317/317 318/318/318
f 319/319/319 240/240/240 242/242/242
f 685/685/685 686/686/686 687/687/687
f 226/226/226 320/320/320 321/321/321
f 322/322/322 323/323/323 324/324/324
f 325/325/325 247/247/247 236/236/236
f 688/688/688 685/685/685 687/687/687
f 671/671/671 689/689/689 675/675/675
f 326/326/326 327/327/327 328/328/328
f 765/765/765 764/764/764 766/766/766
f 329/329/329 330/330/330 331/331/331
f 332/332/332 285/285/285 284/284/284
f 333/333/333 314/314/314 334/334/334
f 335/335/335 305/305/305 336/336/336
f 337/337/337 338/338/338 339/339/339
f 305/305/305 335/335/335 287/287/287
f 315/315/315 314/314/314 333/333/333
f 228/228/228 320/320/320 226/226/226
f 768/768/768 769/769/769 770/770/770
f 340/340/340 341/341/341 342/342/342
f 675/675/675 689/689/689 665/665/665
f 683/683/683 673/673/673 690/690/690
f 326/326/326 328/328/328 343/343/343
f 768/768/768 771/771/771 769/769/769
f 644/644/644 691/691/691 692/692/692
f 693/693/693 689/689/689 671/671/671
f 690/690/690 694/694/694 683/683/683
f 344/344/344 338/338/338 337/337/337
f 345/345/345 346/346/346 297/297/297
f 347/347/347 348/348/348 325/325/325
f 771/771/771 772/772/772 769/769/769
f 332/332/332 284/284/284 349/349/349
f 255/255/255 297/297/297 350/350/350
f 351/351/351 344/344/344 337/337/337
f 325/325/325 348/348/348 247/247/247
f 352/352/352 353/353/353 354/354/354
f 773/773/773 774/774/774 775/775/775
f 695/695/695 696/696/696 697/697/697
f 698/698/698 699/699/699 700/700/700
f 772/772/772 771/771/771 776/776/776
f 698/698/698 701/701/701 699/699/699
f 297/297/297 346/346/346 350/350/350
f 700/700/700 699/699/699 702/702/702
f 355/355/355 278/278/278 356/356/356
f 346/346/346 357/357/357 350/350/350
f 358/358/358 351/351/351 359/359/359
f 274/274/274 360/360/360 272/272/272
f 361/361/361 362/362/362 363/363/363
f 332/332/332 364/364/364 285/285/285
f 365/365/365 366/366/366 367/367/367
f 255/255/255 350/350/350 368/368/368
f 351/351/351 337/337/337 359/359/359
f 350/350/350 357/357/357 369/369/369
f 774/774/774 773/773/773 778/778/778
f 370/370/370 371/371/371 372/372/372
f 365/365/365 367/367/367 373/373/373
f 350/350/350 369/369/369 368/368/368
f 374/374/374 344/344/344 351/351/351
f 375/375/375 367/367/367 366/366/366
f 376/376/376 336/336/336 305/305/305
f 776/776/776 777/777/777 772/772/772
f 278/278/278 296/296/296 356/356/356
f 351/351/351 377/377/377 374/374/374
f 333/333/333 334/334/334 378/378/378
f 379/379/379 373/373/373 367/367/367
f 380/380/380 381/381/381 382/382/382
f 650/650/650 703/703/703 684/684/684
f 695/695/695 697/697/697 704/704/704
f 372/372/372 383/383/383 384/384/384
f 705/705/705 692/692/692 706/706/706
f 385/385/385 386/386/386 387/387/387
f 371/371/371 383/383/383 372/372/372
f 355/355/355 356/356/356 388/388/388
f 389/389/389 356/356/356 296/296/296
f 274/274/274 390/390/390 360/360/360
f 705/705/705 644/644/644 692/692/692
f 351/351/351 391/391/391 377/377/377
f 704/704/704 707/707/707 708/708/708
f 360/360/360 390/390/390 392/392/392
f 708/708/708 695/695/695 704/704/704
f 393/393/393 392/392/392 390/390/390
f 394/394/394 385/385/385 387/387/387
f 395/395/395 360/360/360 392/392/392
f 367/367/367 396/396/396 379/379/379
f 397/397/397 333/333/333 378/378/378
f 356/356/356 389/389/389 398/398/398
f 356/356/356 399/399/399 400/400/400
f 703/703/703 709/709/709 710/710/710
f 356/356/356 398/398/398 399/399/399
f 711/711/711 710/710/710 709/709/709
f 367/367/367 401/401/401 396/396/396
f 703/703/703 650/650/650 709/709/709
f 402/402/402 403/403/403 404/404/404
f 402/402/402 405/405/405 403/403/403
f 406/406/406 407/407/407 408/408/408
f 409/409/409 406/406/406 410/410/410
f 411/411/411 375/375/375 412/412/412
f 408/408/408 410/410/410 406/406/406
f 712/712/712 713/713/713 714/714/714
f 705/705/705 643/643/643 644/644/644
f 375/375/375 413/413/413 414/414/414
f 387/387/387 386/386/386 415/415/415
f 375/375/375 416/416/416 413/413/413
f 417/417/417 394/394/394 387/387/387
f 408/408/408 418/418/418 410/410/410
f 714/714/714 713/713/713 715/715/715
f 403/403/403 405/405/405 419/419/419
f 420/420/420 421/421/421 422/422/422
f 423/423/423 424/424/424 425/425/425
f 421/421/421 420/420/420 426/426/426
f 424/424/424 427/427/427 425/425/425
f 715/715/715 713/713/713 716/716/716
f 410/410/410 428/428/428 409/409/409
f 405/405/405 429/429/429 419/419/419
f 421/421/421 430/430/430 431/431/431
f 716/716/716 717/717/717 715/715/715
f 411/411/411 416/416/416 375/375/375
f 417/417/417 387/387/387 432/432/432
f 705/705/705 706/706/706 718/718/718
f 367/367/367 414/414/414 401/401/401
f 421/421/421 431/431/431 433/433/433
f 426/426/426 434/434/434 430/430/430
f 421/421/421 426/426/426 430/430/430
f 435/435/435 425/425/425 427/427/427
f 428/428/428 410/410/410 418/418/418
f 375/375/375 414/414/414 367/367/367
f 436/436/436 437/437/437 438/438/438
f 439/439/439 440/440/440 441/441/441
f 440/440/440 442/442/442 441/441/441
f 443/443/443 444/444/444 445/445/445
f 436/436/436 438/438/438 446/446/446
f 447/447/447 448/448/448 449/449/449
f 440/440/440 450/450/450 442/442/442
f 428/428/428 418/418/418 451/451/451
f 442/442/442 450/450/450 452/452/452
f 453/453/453 454/454/454 455/455/455
f 456/456/456 450/450/450 440/440/440
f 442/442/442 452/452/452 457/457/457
f 442/442/442 457/457/457 458/458/458
f 450/450/450 456/456/456 459/459/459
f 460/460/460 451/451/451 461/461/461
f 461/461/461 451/451/451 462/462/462
f 462/462/462 451/451/451 418/418/418
f 456/456/456 463/463/463 459/459/459
f 464/464/464 465/465/465 466/466/466
f 436/436/436 467/467/467 437/437/437
f 436/436/436 446/446/446 467/467/467
f 780/780/780 781/781/781 782/782/782
f 780/780/780 782/782/782 781/781/781
f 780/780/780 782/782/782 783/783/783
f 780/780/780 783/783/783 782/782/782
f 780/780/780 783/783/783 784/784/784
f 780/780/780 784/784/784 783/783/783
f 780/780/780 784/784/784 785/785/785
f 780/780/780 785/785/785 784/784/784
f 780/780/780 785/785/785 786/786/786
f 780/780/780 786/786/786 785/785/785
f 780/780/780 786/786/786 787/787/787
f 780/780/780 787/787/787 786/786/786
f 780/780/780 787/787/787 788/788/788
f 780/780/780 788/788/788 787/787/787
f 780/780/780 788/788/788 789/789/789
f 780/780/780 789/789/789 788/788/788
f 780/780/780 789/789/789 790/790/790
f 780/780/780 790/790/790 789/789/789
f 780/780/780 790/790/790 791/791/791
f 780/780/780 791/791/791 790/790/790
f 780/780/780 791/791/791 792/792/792
f 780/780/780 792/792/792 791/791/791
f 780/780/780 792/792/792 793/793/793
f 780/780/780 793/793/793 792/792/792
f 780/780/780 793/793/793 794/794/794
f 780/780/780 794/794/794 793/793/793
f 780/780/780 794/794/794 795/795/795
f 780/780/780 795/795/795 794/794/794
f 780/780/780 795/795/795 796/796/796
f 780/780/780 796/796/796 795/795/795
f 780/780/780 796/796/796 797/797/797
f 780/780/780 797/797/797 796/796/796
f 780/780/780 797/797/797 798/798/798
f 780/780/780 798/798/798 797/797/797
f 780/780/780 798/798/798 781/781/781
f 780/780/780 781/781/781 798/798/798
