o jaw
v 0.66340 4.21346 -3.60154
v 0.67004 4.33169 -3.61671
v 0.66165 4.36761 -3.41147
v 0.63966 4.38902 -3.28594
v 0.66165 4.36761 -3.41147
v 0.66201 4.53122 -3.43702
v 0.65334 4.54394 -3.32090
v 0.66165 4.36761 -3.41147
v 0.67004 4.33169 -3.61671
v 0.63574 4.35817 -3.54146
v 0.63919 4.52363 -3.57302
v 0.67004 4.33169 -3.61671
v 0.65402 4.52340 -3.65701
v 0.63574 4.35817 -3.54146
v 0.63574 4.35817 -3.54146
v 0.63919 4.52363 -3.57302
v 0.54549 4.35738 -3.55785
v 0.65334 4.54394 -3.32090
v 0.66201 4.53122 -3.43702
v 0.56371 4.54651 -3.34024
v 0.65402 4.52340 -3.65701
v 0.56367 4.52799 -3.66571
v 0.63919 4.52363 -3.57302
v 0.65402 4.52340 -3.65701
v 0.67004 4.33169 -3.61671
v 0.55967 4.34140 -3.63760
v 0.66165 4.36761 -3.41147
v 0.56194 4.37124 -3.42053
v 0.66201 4.53122 -3.43702
v 0.54549 4.35738 -3.55785
v 0.56499 4.53241 -3.44129
v 0.66340 4.21346 -3.60154
v 0.55692 4.20915 -3.61865
v 0.55269 4.52830 -3.59386
v 0.65334 4.54394 -3.32090
v 0.56371 4.54651 -3.34024
v 0.63966 4.38902 -3.28594
v 0.55269 4.52830 -3.59386
v 0.56367 4.52799 -3.66571
v 0.56499 4.53241 -3.44129
v 0.55996 4.38900 -3.29459
v 0.55967 4.34140 -3.63760
v 0.55692 4.20915 -3.61865
v 0.54988 4.33601 -3.70119
v 0.55771 4.09929 -3.66878
v 0.56194 4.37124 -3.42053
v 0.55996 4.38900 -3.29459
v 0.56499 4.53241 -3.44129
v 0.44709 4.35334 -3.53886
v 0.56194 4.37124 -3.42053
v 0.56371 4.54651 -3.34024
v 0.55269 4.52830 -3.59386
v 0.56367 4.52799 -3.66571
v 0.55967 4.34140 -3.63760
v 0.54549 4.35738 -3.55785
v 0.55967 4.34140 -3.63760
v 0.54988 4.33601 -3.70119
v 0.55771 4.09929 -3.66878
v 0.45565 4.22938 -3.70613
v 0.54988 4.33601 -3.70119
v 0.42772 4.33607 -3.61292
v 0.46365 4.32939 -3.72138
v 0.46365 4.32939 -3.72138
v 0.42772 4.33607 -3.61292
v 0.45565 4.22938 -3.70613
v 0.43385 4.26146 -3.62013
v 0.46365 4.32939 -3.72138
v 0.44979 4.44752 -3.55264
v 0.42560 4.37523 -3.31683
v 0.44709 4.35334 -3.53886
v 0.34526 4.10313 -3.70500
v 0.35162 4.21507 -3.72697
v 0.43721 4.49549 -3.31453
v 0.43385 4.26146 -3.62013
v 0.40777 4.25460 -3.62020
v 0.42772 4.33607 -3.61292
v 0.45565 4.22938 -3.70613
v 0.35162 4.21507 -3.72697
v 0.43385 4.26146 -3.62013
v 0.40496 4.33862 -3.62265
v 0.40496 4.33862 -3.62265
v 0.35980 4.24908 -3.65939
v 0.40777 4.25460 -3.62020
v 0.43385 4.26146 -3.62013
v 0.40496 4.33862 -3.62265
v 0.40673 4.52562 -3.71056
v 0.39376 4.52793 -3.63278
v 0.35980 4.24908 -3.65939
v 0.40777 4.25460 -3.62020
v 0.25729 4.35156 -3.56481
v 0.40777 4.25460 -3.62020
v 0.35980 4.24908 -3.65939
v 0.40673 4.52562 -3.71056
v 0.35996 4.32939 -3.68242
v 0.44979 4.44752 -3.55264
v 0.25880 4.45741 -3.57154
v 0.43721 4.49549 -3.31453
v 0.40496 4.33862 -3.62265
v 0.39376 4.52793 -3.63278
v 0.29578 4.34896 -3.60434
v 0.31159 4.34616 -3.68681
v 0.39376 4.52793 -3.63278
v 0.40673 4.52562 -3.71056
v 0.31131 4.52570 -3.64236
v 0.35996 4.32939 -3.68242
v 0.35980 4.24908 -3.65939
v 0.35806 4.33182 -3.73735
v 0.35162 4.21507 -3.72697
v 0.35996 4.32939 -3.68242
v 0.35806 4.33182 -3.73735
v 0.31159 4.34616 -3.68681
v 0.44709 4.35334 -3.53886
v 0.25729 4.35156 -3.56481
v 0.44979 4.44752 -3.55264
v 0.35806 4.33182 -3.73735
v 0.35162 4.21507 -3.72697
v 0.21926 4.22146 -3.74622
v 0.29578 4.34896 -3.60434
v 0.22361 4.33230 -3.75747
v 0.31778 4.52290 -3.72439
v 0.31778 4.52290 -3.72439
v 0.31131 4.52570 -3.64236
v 0.29578 4.34896 -3.60434
v 0.31778 4.52290 -3.72439
v 0.31159 4.34616 -3.68681
v 0.31131 4.52570 -3.64236
v 0.25880 4.45741 -3.57154
v 0.21663 4.34601 -3.67866
v 0.22361 4.33230 -3.75747
v 0.20499 4.52665 -3.63734
v 0.21663 4.34601 -3.67866
v 0.21826 4.52150 -3.71074
v 0.21663 4.34601 -3.67866
v 0.22361 4.33230 -3.75747
v 0.21926 4.22146 -3.74622
v 0.20341 4.35299 -3.59105
v 0.21826 4.52150 -3.71074
v 0.21663 4.34601 -3.67866
v 0.13259 4.52229 -3.73271
v 0.10886 4.32705 -3.70521
v 0.10849 4.52474 -3.65156
v 0.20341 4.35299 -3.59105
v 0.20499 4.52665 -3.63734
v 0.10849 4.52474 -3.65156
v 0.20499 4.52665 -3.63734
v 0.21826 4.52150 -3.71074
v 0.13259 4.52229 -3.73271
v 0.10849 4.52474 -3.65156
v 0.13259 4.52229 -3.73271
v 0.10886 4.32705 -3.70521
v 0.45565 4.22938 -3.70613
v 0.29578 4.34896 -3.60434
v 0.64611 4.29464 -2.90413
v 0.66340 4.21346 -3.60154
v 0.66165 4.36761 -3.41147
v 0.65074 4.42847 -2.92110
v 0.66165 4.36761 -3.41147
v 0.63966 4.38902 -3.28594
v 0.65074 4.42847 -2.92110
v 0.63202 4.41880 -3.05035
v 0.63968 4.47452 -2.60001
v 0.63202 4.41880 -3.05035
v 0.64355 4.40541 -3.16658
v 0.64603 4.55212 -3.18903
v 0.63966 4.38902 -3.28594
v 0.64355 4.40541 -3.16658
v 0.63202 4.41880 -3.05035
v 0.63191 4.56112 -3.07758
v 0.62983 4.44758 -2.79998
v 0.65074 4.42847 -2.92110
v 0.63273 4.57493 -2.93974
v 0.64603 4.55212 -3.18903
v 0.64355 4.40541 -3.16658
v 0.55200 4.55343 -3.18964
v 0.63966 4.38902 -3.28594
v 0.54796 4.40177 -3.17427
v 0.64355 4.40541 -3.16658
v 0.54591 4.56296 -3.09368
v 0.64603 4.55212 -3.18903
v 0.55200 4.55343 -3.18964
v 0.55996 4.38900 -3.29459
v 0.66340 4.21346 -3.60154
v 0.64611 4.29464 -2.90413
v 0.51362 4.24740 -3.27694
v 0.63191 4.56112 -3.07758
v 0.54354 4.42135 -3.06230
v 0.54766 4.57618 -2.94536
v 0.63273 4.57493 -2.93974
v 0.54298 4.43049 -2.92741
v 0.65074 4.42847 -2.92110
v 0.54354 4.42135 -3.06230
v 0.63191 4.56112 -3.07758
v 0.54591 4.56296 -3.09368
v 0.54796 4.40177 -3.17427
v 0.63202 4.41880 -3.05035
v 0.54298 4.43049 -2.92741
v 0.55692 4.20915 -3.61865
v 0.54591 4.56296 -3.09368
v 0.55200 4.55343 -3.18964
v 0.54796 4.40177 -3.17427
v 0.54354 4.42135 -3.06230
v 0.55771 4.09929 -3.66878
v 0.55692 4.20915 -3.61865
v 0.50366 4.19284 -3.26098
v 0.51362 4.24740 -3.27694
v 0.54298 4.43049 -2.92741
v 0.53987 4.58457 -2.82646
v 0.54766 4.57618 -2.94536
v 0.53076 4.44603 -2.80652
v 0.49327 4.38704 -3.23622
v 0.56194 4.37124 -3.42053
v 0.50591 4.47137 -3.24549
v 0.49327 4.38704 -3.23622
v 0.43721 4.49549 -3.31453
v 0.53076 4.44603 -2.80652
v 0.45018 4.51347 -2.78938
v 0.49327 4.38704 -3.23622
v 0.50591 4.47137 -3.24549
v 0.45351 4.44319 -2.83256
v 0.37091 4.52418 -3.08338
v 0.45018 4.51347 -2.78938
v 0.50591 4.47137 -3.24549
v 0.42560 4.37523 -3.31683
v 0.45351 4.44319 -2.83256
v 0.58460 4.31636 -2.62649
v 0.36609 4.30804 -2.67972
v 0.42560 4.37523 -3.31683
v 0.44709 4.35334 -3.53886
v 0.55771 4.09929 -3.66878
v 0.32105 4.11325 -3.64266
v 0.34526 4.10313 -3.70500
v 0.43721 4.49549 -3.31453
v 0.34526 4.10313 -3.70500
v 0.45565 4.22938 -3.70613
v 0.55771 4.09929 -3.66878
v 0.07054 4.15859 -3.47377
v 0.50366 4.19284 -3.26098
v 0.32105 4.11325 -3.64266
v 0.32163 4.20744 -3.65668
v 0.35162 4.21507 -3.72697
v 0.34526 4.10313 -3.70500
v 0.17998 4.48942 -3.36905
v 0.23080 4.48142 -3.37185
v 0.09121 4.19298 -3.31582
v 0.50366 4.19284 -3.26098
v 0.51362 4.24740 -3.27694
v 0.25880 4.45741 -3.57154
v 0.09980 4.25200 -3.31803
v 0.09121 4.19298 -3.31582
v 0.21926 4.22146 -3.74622
v 0.35162 4.21507 -3.72697
v 0.32163 4.20744 -3.65668
v 0.29578 4.34896 -3.60434
v 0.21663 4.34601 -3.67866
v 0.25729 4.35156 -3.56481
v 0.32105 4.11325 -3.64266
v 0.10990 4.11546 -3.67311
v 0.32163 4.20744 -3.65668
v 0.16372 4.57898 -2.84249
v 0.25729 4.35156 -3.56481
v 0.22613 4.37314 -3.34406
v 0.25880 4.45741 -3.57154
v 0.13111 4.30913 -2.69746
v 0.23080 4.48142 -3.37185
v 0.09980 4.25200 -3.31803
v 0.22613 4.37314 -3.34406
v 0.14340 4.37498 -3.36229
v 0.22613 4.37314 -3.34406
v 0.17998 4.48942 -3.36905
v 0.23080 4.48142 -3.37185
v 0.19939 4.22413 -3.67883
v 0.20341 4.35299 -3.59105
v 0.00177 4.18755 -3.34041
v 0.21926 4.22146 -3.74622
v 0.19939 4.22413 -3.67883
v 0.21663 4.34601 -3.67866
v 0.10990 4.11546 -3.67311
v 0.19939 4.22413 -3.67883
v 0.14791 4.36672 -3.51484
v -0.07638 4.31345 -2.75979
v 0.21663 4.34601 -3.67866
v 0.10886 4.32705 -3.70521
v 0.14340 4.37498 -3.36229
v 0.12543 4.48060 -3.35875
v 0.12251 4.38655 -3.40898
v 0.17998 4.48942 -3.36905
v 0.05954 4.48403 -3.06728
v 0.12251 4.38655 -3.40898
v 0.14791 4.36672 -3.51484
v 0.11882 4.53534 -3.43282
v 0.05963 4.36602 -3.54632
v 0.15175 4.52442 -3.53867
v 0.10370 4.38183 -3.35050
v 0.12543 4.48060 -3.35875
v 0.10370 4.38183 -3.35050
v 0.09888 4.36103 -3.61847
v 0.20341 4.35299 -3.59105
v 0.10849 4.52474 -3.65156
v 0.11882 4.53534 -3.43282
v 0.02540 4.37647 -3.43130
v 0.12251 4.38655 -3.40898
v 0.11882 4.53534 -3.43282
v 0.15175 4.52442 -3.53867
v 0.05541 4.53484 -3.55870
v 0.14791 4.36672 -3.51484
v 0.05541 4.53484 -3.55870
v 0.15175 4.52442 -3.53867
v 0.09888 4.36103 -3.61847
v 0.02557 4.53675 -3.45539
v 0.10886 4.32705 -3.70521
v 0.09888 4.36103 -3.61847
v 0.10849 4.52474 -3.65156
v 0.05963 4.36602 -3.54632
v 0.09888 4.36103 -3.61847
v 0.10886 4.32705 -3.70521
v 0.02540 4.37647 -3.43130
v 0.05963 4.36602 -3.54632
v 0.10886 4.32705 -3.70521
v 0.10990 4.11546 -3.67311
v 0.07159 4.24232 -3.53767
v 0.07164 4.41076 -3.14677
v 0.12543 4.48060 -3.35875
v 0.10370 4.38183 -3.35050
v 0.05954 4.48403 -3.06728
v 0.07054 4.15859 -3.47377
v 0.06615 4.23612 -3.49638
v 0.07164 4.41076 -3.14677
v 0.05730 4.39516 -3.27220
v 0.05963 4.36602 -3.54632
v -0.00054 4.24451 -3.34239
v 0.13111 4.30913 -2.69746
v 0.11686 4.22388 -2.69164
v -0.07638 4.31345 -2.75979
v 0.07159 4.24232 -3.53767
v 0.06615 4.23612 -3.49638
v 0.03366 4.24324 -3.54502
v 0.02557 4.53675 -3.45539
v 0.05756 4.54784 -3.29239
v 0.03304 4.55905 -3.20191
v 0.05730 4.39516 -3.27220
v 0.03193 4.41345 -3.16646
v 0.03366 4.24324 -3.54502
v 0.05963 4.36602 -3.54632
v 0.07159 4.24232 -3.53767
v 0.06615 4.23612 -3.49638
v 0.07054 4.15859 -3.47377
v 0.02498 4.15973 -3.48185
v 0.03321 4.35608 -3.55317
v 0.03304 4.55905 -3.20191
v 0.05756 4.54784 -3.29239
v -0.05057 4.55538 -3.21634
v 0.02557 4.53675 -3.45539
v 0.05541 4.53484 -3.55870
v 0.05963 4.36602 -3.54632
v 0.03193 4.41345 -3.16646
v 0.03366 4.24324 -3.54502
v 0.06615 4.23612 -3.49638
v 0.02498 4.15973 -3.48185
v -0.04867 4.41127 -3.18225
v 0.02498 4.15973 -3.48185
v -0.02335 4.39732 -3.28293
v 0.05756 4.54784 -3.29239
v 0.05730 4.39516 -3.27220
v 0.05963 4.36602 -3.54632
v 0.03321 4.35608 -3.55317
v 0.02540 4.37647 -3.43130
v 0.02540 4.37647 -3.43130
v 0.03366 4.24324 -3.54502
v 0.02540 4.37647 -3.43130
v 0.03321 4.35608 -3.55317
v -0.05118 4.60410 -2.58648
v -0.00054 4.24451 -3.34239
v 0.00177 4.18755 -3.34041
v -0.03679 4.42232 -3.06258
v -0.04444 4.44215 -2.93434
v -0.00624 4.45920 -2.78002
v 0.02498 4.15973 -3.48185
v -0.04867 4.41127 -3.18225
v 0.03193 4.41345 -3.16646
v 0.03304 4.55905 -3.20191
v 0.00177 4.18755 -3.34041
v -0.02618 4.38305 -3.32025
v -0.02618 4.38305 -3.32025
v -0.02335 4.39732 -3.28293
v -0.01969 4.53678 -3.31741
v -0.01969 4.53678 -3.31741
v -0.05057 4.55538 -3.21634
v -0.02226 4.57185 -3.07631
v -0.04444 4.44215 -2.93434
v -0.03679 4.42232 -3.06258
v -0.01969 4.53678 -3.31741
v -0.02335 4.39732 -3.28293
v -0.05057 4.55538 -3.21634
v -0.10044 4.56943 -3.09881
v -0.02226 4.57185 -3.07631
v -0.03679 4.42232 -3.06258
v -0.03855 4.58729 -2.96552
v -0.13078 4.44384 -2.95054
v -0.02335 4.39732 -3.28293
v -0.02618 4.38305 -3.32025
v -0.09520 4.42606 -3.07513
v -0.04867 4.41127 -3.18225
v -0.09520 4.42606 -3.07513
v -0.04444 4.44215 -2.93434
v -0.03855 4.58729 -2.96552
v -0.13078 4.44384 -2.95054
v -0.16880 4.30967 -2.77104
v -0.17041 4.31148 -2.86836
v -0.17041 4.31148 -2.86836
v -0.00054 4.24451 -3.34239
v -0.17226 4.22577 -2.75951
v -0.13666 4.43344 -2.98286
v -0.13666 4.43344 -2.98286
v -0.10044 4.56943 -3.09881
v -0.09520 4.42606 -3.07513
v -0.13078 4.44384 -2.95054
v -0.10044 4.56943 -3.09881
v -0.03855 4.58729 -2.96552
v -0.02226 4.57185 -3.07631
v -0.21580 4.45684 -2.78337
v -0.13066 4.58044 -2.97928
v -0.13066 4.58044 -2.97928
v -0.13066 4.58044 -2.97928
v -0.21580 4.45684 -2.78337
v -0.16880 4.30967 -2.77104
v -0.22991 4.31990 -2.67744
v -0.22991 4.31990 -2.67744
v 0.54354 4.42135 -3.06230
v 0.54298 4.43049 -2.92741
v 0.16372 4.57898 -2.84249
v 0.03193 4.41345 -3.16646
v 0.07164 4.41076 -3.14677
v 0.07164 4.41076 -3.14677
v -0.03679 4.42232 -3.06258
v -0.13078 4.44384 -2.95054
v -0.13666 4.43344 -2.98286
v 0.63968 4.47452 -2.60001
v 0.64333 4.61316 -2.62218
v 0.62927 4.62792 -2.52338
v 0.63968 4.47452 -2.60001
v 0.65074 4.42847 -2.92110
v 0.62983 4.44758 -2.79998
v 0.60915 4.35607 -2.31205
v 0.64611 4.29464 -2.90413
v 0.63968 4.47452 -2.60001
v 0.55166 4.60928 -2.63723
v 0.64333 4.61316 -2.62218
v 0.62840 4.58127 -2.82275
v 0.62983 4.44758 -2.79998
v 0.63273 4.57493 -2.93974
v 0.64611 4.29464 -2.90413
v 0.60915 4.35607 -2.31205
v 0.58460 4.31636 -2.62649
v 0.54784 4.48126 -2.61070
v 0.63273 4.57493 -2.93974
v 0.54766 4.57618 -2.94536
v 0.62840 4.58127 -2.82275
v 0.58754 4.24008 -2.46513
v 0.57802 4.23102 -2.61317
v 0.58460 4.31636 -2.62649
v 0.53076 4.44603 -2.80652
v 0.62983 4.44758 -2.79998
v 0.62840 4.58127 -2.82275
v 0.44570 4.45945 -2.66995
v 0.53076 4.44603 -2.80652
v 0.53987 4.58457 -2.82646
v 0.53987 4.58457 -2.82646
v 0.55166 4.60928 -2.63723
v 0.54784 4.48126 -2.61070
v 0.53594 4.61744 -2.52647
v 0.54784 4.48126 -2.61070
v 0.57802 4.23102 -2.61317
v 0.38503 4.21532 -2.66890
v 0.58460 4.31636 -2.62649
v 0.45351 4.44319 -2.83256
v 0.36609 4.30804 -2.67972
v 0.43817 4.47214 -2.54115
v 0.44570 4.45945 -2.66995
v 0.45018 4.51347 -2.78938
v 0.43574 4.64506 -2.36882
v 0.45351 4.44319 -2.83256
v 0.37538 4.23430 -2.50363
v 0.38503 4.21532 -2.66890
v 0.57802 4.23102 -2.61317
v 0.45018 4.51347 -2.78938
v 0.37091 4.52418 -3.08338
v 0.34492 4.63167 -2.56312
v 0.37538 4.23430 -2.50363
v 0.36609 4.30804 -2.67972
v 0.38503 4.21532 -2.66890
v 0.16372 4.57898 -2.84249
v 0.34492 4.63167 -2.56312
v 0.13111 4.30913 -2.69746
v 0.36609 4.30804 -2.67972
v 0.08563 4.32328 -2.56050
v -0.00092 4.60811 -2.67543
v 0.05954 4.48403 -3.06728
v -0.05118 4.60410 -2.58648
v 0.07164 4.41076 -3.14677
v -0.00624 4.45920 -2.78002
v -0.05118 4.60410 -2.58648
v -0.21580 4.45684 -2.78337
v -0.11876 4.48219 -2.75592
v -0.00624 4.45920 -2.78002
v -0.12035 4.60170 -2.77462
v -0.14066 4.61744 -2.68650
v -0.11876 4.48219 -2.75592
v -0.21580 4.45684 -2.78337
v -0.21624 4.60070 -2.80360
v -0.11876 4.48219 -2.75592
v -0.12035 4.60170 -2.77462
v -0.21580 4.45684 -2.78337
v -0.23646 4.61751 -2.71450
v -0.21624 4.60070 -2.80360
v 0.63968 4.47452 -2.60001
v 0.37091 4.52418 -3.08338
v 0.71818 4.67118 -2.32039
v 0.70638 4.31885 -2.28124
v 0.62199 4.67371 -2.35458
v 0.62199 4.67371 -2.35458
v 0.62927 4.62792 -2.52338
v 0.63968 4.47452 -2.60001
v 0.60915 4.35607 -2.31205
v 0.60915 4.35607 -2.31205
v 0.53594 4.61744 -2.52647
v 0.53026 4.49516 -2.32746
v 0.54784 4.48126 -2.61070
v 0.53026 4.49516 -2.32746
v 0.44504 4.57113 -2.18460
v 0.54784 4.48126 -2.61070
v 0.43817 4.47214 -2.54115
v 0.53026 4.49516 -2.32746
v 0.43574 4.64506 -2.36882
v 0.43817 4.47214 -2.54115
v 0.44570 4.45945 -2.66995
v 0.44504 4.57113 -2.18460
v 0.43574 4.64506 -2.36882
v 0.43817 4.47214 -2.54115
v 0.45018 4.51347 -2.78938
v 0.34492 4.63167 -2.56312
v 0.04407 4.48151 -2.49968
v 0.04376 4.48677 -2.45159
v 0.04053 4.59949 -2.53043
v 0.03208 4.69839 -2.29106
v 0.02694 4.59749 -2.26614
v 0.04053 4.59949 -2.53043
v -0.05118 4.60410 -2.58648
v 0.04407 4.48151 -2.49968
v -0.04010 4.60143 -2.26761
v 0.02694 4.59749 -2.26614
v 0.04376 4.48677 -2.45159
v 0.04376 4.48677 -2.45159
v -0.15452 4.47518 -2.60499
v -0.17872 4.48142 -2.47949
v -0.02465 4.51082 -2.42157
v 0.04407 4.48151 -2.49968
v -0.17872 4.48142 -2.47949
v -0.04525 4.47495 -2.56230
v -0.05118 4.60410 -2.58648
v -0.00624 4.45920 -2.78002
v -0.04525 4.47495 -2.56230
v -0.00624 4.45920 -2.78002
v -0.11876 4.48219 -2.75592
v -0.04525 4.47495 -2.56230
v -0.17872 4.48142 -2.47949
v -0.03234 4.64151 -2.46984
v -0.02465 4.51082 -2.42157
v -0.16684 4.64292 -2.49611
v -0.14066 4.61744 -2.68650
v -0.17872 4.48142 -2.47949
v -0.15452 4.47518 -2.60499
v -0.16684 4.64292 -2.49611
v -0.11876 4.48219 -2.75592
v -0.28030 4.34564 -2.45113
v -0.23646 4.61751 -2.71450
v -0.21580 4.45684 -2.78337
v -0.24302 4.81238 -2.74110
v -0.35168 4.65341 -2.54895
v -0.27810 4.65898 -2.52354
v -0.35634 4.30919 -2.44958
v -0.35634 4.30919 -2.44958
v -0.41461 4.70482 -2.28257
v -0.35168 4.65341 -2.54895
v 0.58916 4.31246 -2.29444
v 0.58754 4.24008 -2.46513
v 0.60915 4.35607 -2.31205
v 0.58460 4.31636 -2.62649
v 0.58177 4.25806 -2.09093
v 0.57140 4.15049 -2.43756
v 0.37538 4.23430 -2.50363
v 0.58754 4.24008 -2.46513
v 0.57140 4.15049 -2.43756
v 0.58177 4.25806 -2.09093
v 0.37555 4.14945 -2.45386
v 0.57140 4.15049 -2.43756
v 0.57802 4.23102 -2.61317
v 0.58754 4.24008 -2.46513
v 0.37538 4.23430 -2.50363
v 0.37555 4.14945 -2.45386
v 0.36640 4.32574 -2.50282
v 0.36609 4.30804 -2.67972
v 0.37538 4.23430 -2.50363
v 0.37555 4.14945 -2.45386
v 0.36640 4.32574 -2.50282
v 0.08563 4.32328 -2.56050
v 0.36609 4.30804 -2.67972
v 0.34794 4.34654 -2.26627
v 0.34794 4.34654 -2.26627
v 0.35000 4.28863 -2.25115
v 0.04454 4.34847 -2.31044
v 0.13111 4.30913 -2.69746
v 0.08195 4.23419 -2.56248
v 0.11686 4.22388 -2.69164
v 0.08563 4.32328 -2.56050
v 0.08236 4.13355 -2.54128
v 0.03804 4.21178 -2.26877
v 0.04454 4.34847 -2.31044
v 0.08195 4.23419 -2.56248
v 0.08236 4.13355 -2.54128
v -0.20386 4.12742 -2.57466
v -0.20386 4.12742 -2.57466
v 0.08236 4.13355 -2.54128
v 0.03804 4.21178 -2.26877
v -0.20677 4.23018 -2.60336
v -0.25613 4.28102 -2.16693
v 0.08195 4.23419 -2.56248
v -0.17226 4.22577 -2.75951
v 0.11686 4.22388 -2.69164
v -0.20677 4.23018 -2.60336
v -0.20677 4.23018 -2.60336
v -0.16880 4.30967 -2.77104
v -0.17226 4.22577 -2.75951
v -0.22240 4.32707 -2.54021
v -0.20386 4.12742 -2.57466
v -0.22991 4.31990 -2.67744
v -0.16880 4.30967 -2.77104
v -0.22240 4.32707 -2.54021
v -0.24429 4.31611 -2.42234
v -0.21580 4.45684 -2.78337
v -0.22991 4.31990 -2.67744
v -0.28030 4.34564 -2.45113
v -0.28030 4.34564 -2.45113
v -0.24429 4.31611 -2.42234
v -0.26620 4.35198 -2.18882
v -0.25613 4.28102 -2.16693
v -0.24429 4.31611 -2.42234
v -0.35634 4.30919 -2.44958
v -0.28030 4.34564 -2.45113
v -0.27810 4.65898 -2.52354
v -0.39402 4.35979 -2.22826
v -0.24429 4.31611 -2.42234
v -0.35634 4.30919 -2.44958
v -0.35634 4.30919 -2.44958
v -0.39402 4.35979 -2.22826
v -0.41461 4.70482 -2.28257
vt 0.01984 0.82746
vt 0.00947 0.82148
vt 0.01913 0.80294
vt 0.96292 0.34747
vt 0.96309 0.36043
vt 0.94649 0.36043
vt 0.94699 0.34869
vt 0.21482 0.57629
vt 0.22601 0.57581
vt 0.22285 0.58238
vt 0.23649 0.04628
vt 0.22830 0.06450
vt 0.22807 0.04479
vt 0.23690 0.06316
vt 0.95567 0.05480
vt 0.95567 0.07169
vt 0.94647 0.05485
vt 0.65365 0.97773
vt 0.65365 0.98948
vt 0.64454 0.97896
vt 0.17011 0.99076
vt 0.17919 0.99155
vt 0.17004 0.99931
vt 0.83500 0.15220
vt 0.81543 0.15447
vt 0.81641 0.14321
vt 0.96061 0.30147
vt 0.95106 0.29837
vt 0.96499 0.28546
vt 0.22313 0.59145
vt 0.95564 0.28273
vt 0.80347 0.15408
vt 0.80302 0.14327
vt 0.94676 0.07237
vt 0.54720 0.02049
vt 0.54720 0.02969
vt 0.53123 0.02065
vt 0.17896 0.99883
vt 0.83533 0.14309
vt 0.64392 0.98918
vt 0.53079 0.02868
vt 0.51561 0.95456
vt 0.50221 0.95456
vt 0.51596 0.94810
vt 0.49199 0.94807
vt 0.56985 0.03121
vt 0.56985 0.01846
vt 0.58614 0.03102
vt 0.21628 0.59918
vt 0.20685 0.58590
vt 0.58613 0.02079
vt 0.21973 0.04401
vt 0.22694 0.04295
vt 0.22694 0.06187
vt 0.21867 0.06151
vt 0.23145 0.59592
vt 0.23478 0.60184
vt 0.51683 0.95385
vt 0.53070 0.94403
vt 0.54079 0.95413
vt 0.21985 0.60635
vt 0.54080 0.94523
vt 0.23201 0.60910
vt 0.67787 0.99037
vt 0.66748 0.98029
vt 0.67656 0.98295
vt 0.66639 0.99040
vt 0.00998 0.07973
vt 0.02064 0.05729
vt 0.01953 0.07973
vt 0.19221 0.98059
vt 0.18484 0.97181
vt 0.00867 0.05539
vt 0.99455 0.66981
vt 0.99502 0.67247
vt 0.98702 0.66980
vt 0.98761 0.96217
vt 0.99093 0.95196
vt 0.99661 0.96508
vt 0.21933 0.60991
vt 0.98659 0.67226
vt 0.01563 0.76420
vt 0.02177 0.76312
vt 0.02412 0.76445
vt 0.05229 0.19944
vt 0.05497 0.21998
vt 0.04736 0.21783
vt 0.99699 0.95659
vt 0.05464 0.19134
vt 0.20713 0.61992
vt 0.04733 0.22059
vt 0.05354 0.22105
vt 0.04858 0.24920
vt 0.05367 0.22943
vt 0.44800 0.15640
vt 0.44666 0.13719
vt 0.47237 0.15555
vt 0.93159 0.12945
vt 0.93325 0.11049
vt 0.94272 0.12884
vt 0.05849 0.23125
vt 0.00246 0.27045
vt 0.01037 0.27045
vt 0.00205 0.27876
vt 0.28457 0.00560
vt 0.28341 0.01389
vt 0.27964 0.00313
vt 0.27579 0.01425
vt 0.97387 0.54215
vt 0.97931 0.54310
vt 0.97366 0.54729
vt 0.36728 0.04535
vt 0.38649 0.04535
vt 0.36711 0.05490
vt 0.33948 0.01532
vt 0.33941 0.00355
vt 0.35283 0.00355
vt 0.21319 0.61839
vt 0.98008 0.55671
vt 0.01027 0.27948
vt 0.05761 0.24936
vt 0.94157 0.11069
vt 0.12522 0.06394
vt 0.13360 0.04435
vt 0.13352 0.06248
vt 0.12546 0.04575
vt 0.38635 0.05599
vt 0.97203 0.55671
vt 0.35309 0.01473
vt 0.93757 0.18365
vt 0.92904 0.20019
vt 0.93018 0.18234
vt 0.98104 0.10569
vt 0.97461 0.11054
vt 0.96730 0.10208
vt 0.93783 0.20166
vt 0.92411 0.07953
vt 0.92411 0.06165
vt 0.93297 0.07993
vt 0.93530 0.06016
vt 0.92220 0.94522
vt 0.92220 0.92463
vt 0.93076 0.94048
vt 0.00298 0.56525
vt 0.00329 0.55547
vt 0.01078 0.55547
vt 0.01142 0.56431
vt 0.34395 0.05293
vt 0.35203 0.05031
vt 0.35550 0.06991
vt 0.19196 0.96377
vt 0.96528 0.54816
vt 0.69084 0.79377
vt 0.61320 0.79352
vt 0.63608 0.77909
vt 0.78001 0.40915
vt 0.72979 0.39115
vt 0.74336 0.39349
vt 0.69072 0.77885
vt 0.76981 0.40147
vt 0.72660 0.77802
vt 0.90190 0.02306
vt 0.90140 0.03605
vt 0.88499 0.03605
vt 0.17291 0.07187
vt 0.18619 0.07071
vt 0.19917 0.07129
vt 0.88589 0.02363
vt 0.36685 0.03768
vt 0.36685 0.02392
vt 0.38327 0.02474
vt 0.71337 0.02798
vt 0.72978 0.02798
vt 0.71339 0.03838
vt 0.47613 0.67379
vt 0.48560 0.68625
vt 0.47018 0.68248
vt 0.05964 0.97606
vt 0.07002 0.98734
vt 0.05964 0.98674
vt 0.48759 0.67342
vt 0.56754 0.65730
vt 0.63285 0.69931
vt 0.58975 0.69022
vt 0.06925 0.97491
vt 0.77813 0.39198
vt 0.95811 0.93157
vt 0.96707 0.93449
vt 0.95295 0.94697
vt 0.96429 0.95069
vt 0.00610 0.03027
vt 0.02170 0.02060
vt 0.02213 0.03027
vt 0.73025 0.03858
vt 0.00569 0.02040
vt 0.78735 0.40332
vt 0.55977 0.66636
vt 0.79290 0.03322
vt 0.79286 0.02254
vt 0.80972 0.02254
vt 0.80883 0.03509
vt 0.32238 0.26638
vt 0.31439 0.27708
vt 0.27574 0.26673
vt 0.27629 0.27308
vt 0.95647 0.30360
vt 0.96965 0.31913
vt 0.95647 0.31984
vt 0.97001 0.30362
vt 0.49434 0.68040
vt 0.49422 0.65929
vt 0.97433 0.42237
vt 0.97433 0.41289
vt 0.98517 0.42470
vt 0.49338 0.73023
vt 0.58195 0.32497
vt 0.59143 0.37565
vt 0.58195 0.37598
vt 0.50552 0.72730
vt 0.48992 0.78750
vt 0.47840 0.81915
vt 0.47556 0.76822
vt 0.98593 0.41136
vt 0.58926 0.33043
vt 0.65564 0.72110
vt 0.63802 0.73867
vt 0.50095 0.66951
vt 0.50647 0.64433
vt 0.31840 0.93616
vt 0.31107 0.91083
vt 0.31840 0.91233
vt 0.48425 0.76133
vt 0.94913 0.91055
vt 0.93413 0.89965
vt 0.94773 0.88676
vt 0.28755 0.88659
vt 0.27178 0.93770
vt 0.36425 0.97277
vt 0.36451 0.98330
vt 0.35631 0.98550
vt 0.35678 0.97287
vt 0.51302 0.75710
vt 0.50741 0.75613
vt 0.31088 0.45604
vt 0.30905 0.41008
vt 0.31534 0.40897
vt 0.50555 0.73375
vt 0.31738 0.45490
vt 0.27028 0.89172
vt 0.72785 0.02727
vt 0.71304 0.02713
vt 0.71524 0.01893
vt 0.58135 0.40824
vt 0.58500 0.41695
vt 0.57619 0.41227
vt 0.04899 0.74662
vt 0.02540 0.74662
vt 0.04872 0.73609
vt 0.51113 0.81615
vt 0.02225 0.10784
vt 0.02225 0.13260
vt 0.01053 0.10821
vt 0.62286 0.75986
vt 0.01004 0.13065
vt 0.56216 0.72700
vt 0.55247 0.40809
vt 0.55028 0.41879
vt 0.97069 0.60932
vt 0.98361 0.60365
vt 0.98306 0.60932
vt 0.72908 0.01960
vt 0.57623 0.42129
vt 0.27143 0.88152
vt 0.48470 0.00605
vt 0.48470 0.01382
vt 0.47109 0.01381
vt 0.31050 0.88725
vt 0.03498 0.73433
vt 0.56587 0.42691
vt 0.60508 0.77591
vt 0.03680 0.72084
vt 0.02453 0.72297
vt 0.97083 0.59995
vt 0.98243 0.59755
vt 0.55281 0.42513
vt 0.78136 0.41127
vt 0.74547 0.41287
vt 0.95618 0.16132
vt 0.94395 0.16132
vt 0.95670 0.14467
vt 0.57401 0.43443
vt 0.94442 0.14369
vt 0.54646 0.42045
vt 0.77829 0.41667
vt 0.97143 0.59535
vt 0.90837 0.40066
vt 0.90816 0.41263
vt 0.88994 0.39909
vt 0.44954 0.02850
vt 0.43242 0.03956
vt 0.43287 0.02850
vt 0.97789 0.49819
vt 0.97766 0.48588
vt 0.98856 0.48683
vt 0.27768 0.04076
vt 0.25883 0.05164
vt 0.26004 0.04076
vt 0.58172 0.43112
vt 0.98849 0.49872
vt 0.91129 0.28722
vt 0.91148 0.29758
vt 0.89329 0.30096
vt 0.94592 0.18206
vt 0.94827 0.19085
vt 0.94598 0.20095
vt 0.54509 0.43109
vt 0.90589 0.74908
vt 0.88701 0.74908
vt 0.88495 0.72551
vt 0.90333 0.73555
vt 0.53644 0.79849
vt 0.52522 0.77573
vt 0.53644 0.77547
vt 0.52970 0.80846
vt 0.90790 0.72484
vt 0.90763 0.73378
vt 0.52429 0.41806
vt 0.53598 0.42207
vt 0.27754 0.05112
vt 0.31703 0.46634
vt 0.51132 0.16550
vt 0.51298 0.15607
vt 0.53524 0.16683
vt 0.99572 0.81092
vt 0.99928 0.81392
vt 0.99277 0.81401
vt 0.45034 0.03908
vt 0.41051 0.03920
vt 0.41051 0.02876
vt 0.42754 0.03905
vt 0.52455 0.42205
vt 0.98449 0.95027
vt 0.98084 0.96366
vt 0.98024 0.94990
vt 0.00924 0.12171
vt 0.00924 0.13065
vt 0.00417 0.13001
vt 0.98393 0.96277
vt 0.64246 0.98903
vt 0.63203 0.98903
vt 0.64329 0.97967
vt 0.80924 0.03589
vt 0.82111 0.03535
vt 0.82111 0.05407
vt 0.42697 0.02688
vt 0.25471 0.99388
vt 0.24944 0.99005
vt 0.25528 0.98228
vt 0.13684 0.29096
vt 0.28758 0.88148
vt 0.70460 0.02354
vt 0.69631 0.04055
vt 0.69560 0.02354
vt 0.46701 0.98745
vt 0.46701 0.98424
vt 0.48033 0.98740
vt 0.80780 0.05375
vt 0.81155 0.85857
vt 0.79677 0.84602
vt 0.81046 0.84611
vt 0.52467 0.86437
vt 0.78910 0.86212
vt 0.31072 0.46631
vt 0.26670 0.50181
vt 0.26048 0.48920
vt 0.26662 0.47168
vt 0.80609 0.86883
vt 0.95612 0.56510
vt 0.96520 0.56499
vt 0.96520 0.58156
vt 0.78995 0.86837
vt 0.53240 0.43140
vt 0.78329 0.84746
vt 0.53018 0.42871
vt 0.70530 0.03941
vt 0.63143 0.97999
vt 0.95581 0.58147
vt 0.75990 0.02532
vt 0.74283 0.03823
vt 0.74329 0.02387
vt 0.96320 0.58830
vt 0.96320 0.60419
vt 0.95136 0.58907
vt 0.55263 0.03207
vt 0.55255 0.02307
vt 0.56916 0.02453
vt 0.75925 0.03780
vt 0.24841 0.48570
vt 0.13053 0.29743
vt 0.12685 0.29784
vt 0.56868 0.03113
vt 0.95169 0.60544
vt 0.14449 0.28171
vt 0.82885 0.02441
vt 0.84527 0.02441
vt 0.82903 0.03412
vt 0.54553 0.16632
vt 0.73299 0.86427
vt 0.58943 0.77861
vt 0.55400 0.73503
vt 0.54581 0.15696
vt 0.74366 0.84871
vt 0.14658 0.27167
vt 0.97205 0.36081
vt 0.97187 0.37689
vt 0.95741 0.37689
vt 0.86277 0.01312
vt 0.84950 0.00354
vt 0.86199 0.00416
vt 0.24657 0.46651
vt 0.84910 0.01385
vt 0.84445 0.03470
vt 0.95838 0.36149
vt 0.71984 0.85016
vt 0.59873 0.78402
vt 0.60400 0.79525
vt 0.71106 0.86724
vt 0.48678 0.69899
vt 0.48984 0.71527
vt 0.72584 0.39108
vt 0.14711 0.30042
vt 0.15333 0.30434
vt 0.27818 0.50717
vt 0.14818 0.28690
vt 0.14800 0.26893
vt 0.24542 0.48728
vt 0.97572 0.44964
vt 0.98801 0.44964
vt 0.98789 0.45846
vt 0.88204 0.15662
vt 0.89070 0.18367
vt 0.88601 0.17385
vt 0.87244 0.56085
vt 0.87402 0.50870
vt 0.97929 0.12823
vt 0.98742 0.14018
vt 0.97929 0.14052
vt 0.95430 0.70126
vt 0.94801 0.69119
vt 0.96356 0.69685
vt 0.88770 0.49005
vt 0.88770 0.54224
vt 0.88379 0.51470
vt 0.98739 0.12874
vt 0.99763 0.48113
vt 0.99017 0.48113
vt 0.99792 0.47088
vt 0.95055 0.91140
vt 0.96327 0.90870
vt 0.96549 0.91594
vt 0.69263 0.97478
vt 0.70131 0.97473
vt 0.70131 0.98660
vt 0.86740 0.16725
vt 0.87783 0.17677
vt 0.99016 0.47068
vt 0.69357 0.98702
vt 0.98371 0.75336
vt 0.98371 0.74192
vt 0.99344 0.75205
vt 0.87443 0.15945
vt 0.57715 0.04611
vt 0.57715 0.06374
vt 0.56961 0.04530
vt 0.87195 0.18082
vt 0.56890 0.06498
vt 0.86339 0.15663
vt 0.61186 0.26196
vt 0.61998 0.27008
vt 0.58146 0.26785
vt 0.62569 0.26566
vt 0.95141 0.32751
vt 0.96320 0.33608
vt 0.94986 0.34760
vt 0.25254 0.68569
vt 0.27759 0.69481
vt 0.23110 0.69682
vt 0.73538 0.02310
vt 0.74055 0.03900
vt 0.73238 0.03736
vt 0.52500 0.31492
vt 0.50084 0.29800
vt 0.03126 0.19286
vt 0.02255 0.21155
vt 0.02140 0.18488
vt 0.50958 0.32870
vt 0.54577 0.32529
vt 0.35926 0.32215
vt 0.41222 0.32215
vt 0.37978 0.32862
vt 0.50213 0.33366
vt 0.94405 0.92451
vt 0.94716 0.93306
vt 0.94406 0.94285
vt 0.80559 0.99183
vt 0.79795 0.98935
vt 0.80910 0.98184
vt 0.70949 0.97667
vt 0.72220 0.97667
vt 0.71133 0.98558
vt 0.72191 0.98543
vt 0.40375 0.96746
vt 0.40375 0.98286
vt 0.39705 0.97826
vt 0.88613 0.53715
vt 0.54737 0.29774
vt 0.88444 0.06454
vt 0.86402 0.06454
vt 0.88462 0.05866
vt 0.09742 0.13257
vt 0.08734 0.13252
vt 0.08069 0.13985
vt 0.09494 0.15087
vt 0.86615 0.05866
vt 0.03633 0.78006
vt 0.02566 0.78826
vt 0.04199 0.78737
vt 0.47315 0.96111
vt 0.48203 0.95543
vt 0.22158 0.02915
vt 0.22588 0.02301
vt 0.23794 0.02900
vt 0.09684 0.33118
vt 0.08359 0.33588
vt 0.07657 0.33333
vt 0.10457 0.33961
vt 0.78660 0.17424
vt 0.46072 0.95594
vt 0.81197 0.17499
vt 0.79714 0.18072
vt 0.96876 0.23903
vt 0.96948 0.24172
vt 0.96179 0.23984
vt 0.96146 0.25476
vt 0.96741 0.25402
vt 0.00026 0.51491
vt 0.00636 0.51384
vt 0.00009 0.52193
vt 0.75755 0.97975
vt 0.75721 0.98360
vt 0.74474 0.98360
vt 0.94863 0.77198
vt 0.94128 0.75954
vt 0.94863 0.75907
vt 0.74723 0.97983
vt 0.94586 0.77165
vt 0.74418 0.97070
vt 0.94290 0.76610
vt 0.98199 0.21899
vt 0.96783 0.21899
vt 0.97865 0.21220
vt 0.93016 0.76684
vt 0.93239 0.76047
vt 0.00636 0.52141
vt 0.60075 0.99839
vt 0.61033 0.99036
vt 0.61038 0.99839
vt 0.60253 0.98919
vt 0.04583 0.69836
vt 0.05720 0.70725
vt 0.04984 0.70695
vt 0.05698 0.69788
vt 0.04098 0.70575
vt 0.07140 0.91229
vt 0.05893 0.93034
vt 0.05329 0.92192
vt 0.05944 0.94166
vt 0.32214 0.95541
vt 0.32664 0.95541
vt 0.32234 0.97604
vt 0.02374 0.72200
vt 0.02374 0.74695
vt 0.01054 0.73785
vt 0.80729 0.07614
vt 0.80958 0.08468
vt 0.80492 0.07673
vt 0.80504 0.09188
vt 0.81122 0.06689
vt 0.81405 0.08397
vt 0.01085 0.48344
vt 0.01051 0.49371
vt 0.00604 0.49292
vt 0.96005 0.69028
vt 0.94918 0.67283
vt 0.95855 0.67303
vt 0.16234 0.99684
vt 0.15817 0.99111
vt 0.16771 0.98726
vt 0.00616 0.48356
vt 0.26248 0.08849
vt 0.26746 0.08163
vt 0.26628 0.09067
vt 0.26855 0.09478
vt 0.92005 0.04528
vt 0.91886 0.05890
vt 0.91163 0.04627
vt 0.25584 0.09770
vt 0.93139 0.04486
vt 0.25785 0.09973
vt 0.93098 0.05947
vt 0.03737 0.14832
vt 0.04171 0.14193
vt 0.04150 0.14832
vt 0.03749 0.14141
vt 0.04658 0.14138
vt 0.04417 0.12791
vt 0.03749 0.12927
vt 0.38576 0.01403
vt 0.38573 0.00913
vt 0.39947 0.00913
vt 0.92440 0.13091
vt 0.91067 0.13143
vt 0.91067 0.11775
vt 0.39966 0.01422
vt 0.92375 0.11000
vt 0.67788 0.97582
vt 0.69146 0.98295
vt 0.67733 0.98219
vt 0.69178 0.97533
vt 0.05232 0.29929
vt 0.05703 0.30700
vt 0.05299 0.30689
vt 0.05656 0.29568
vt 0.04729 0.29855
vt 0.00570 0.80998
vt 0.00753 0.80495
vt 0.00754 0.81628
vt 0.05538 0.29007
vt 0.31982 0.03005
vt 0.31967 0.03833
vt 0.31009 0.04397
vt 0.00575 0.82110
vt 0.00821 0.82197
vt 0.05567 0.27876
vt 0.05214 0.27820
vt 0.95522 0.71063
vt 0.95456 0.71610
vt 0.95322 0.71231
vt 0.93797 0.71069
vt 0.55498 0.89279
vt 0.55179 0.88243
vt 0.54664 0.88251
vt 0.92137 0.48911
vt 0.91116 0.48511
vt 0.91604 0.46916
vn 0.9975 -0.0497 0.0495
vn 0.9975 -0.0497 0.0495
vn 0.9975 -0.0497 0.0495
vn 0.9908 -0.0125 0.1348
vn 0.9854 0.0242 0.1685
vn 0.9924 -0.0285 0.1199
vn 0.9942 -0.0693 0.0818
vn 0.0715 0.9909 -0.1141
vn 0.3881 0.9104 -0.1434
vn 0.2241 0.9678 -0.1149
vn 0.9676 0.1031 0.2305
vn 0.9405 0.0758 0.3311
vn 0.9780 0.1179 0.1723
vn 0.9159 0.0567 0.3975
vn -0.1771 0.1880 0.9661
vn -0.2059 0.2034 0.9572
vn -0.1899 0.1948 0.9623
vn 0.0512 0.9932 -0.1050
vn 0.0336 0.9919 -0.1227
vn 0.0368 0.9922 -0.1195
vn 0.0502 0.9987 0.0060
vn 0.0516 0.9987 0.0049
vn 0.0514 0.9987 0.0051
vn 0.1133 -0.1633 -0.9801
vn 0.1673 -0.1624 -0.9724
vn 0.1576 -0.1622 -0.9741
vn 0.0839 -0.1539 -0.9845
vn 0.0699 -0.1454 -0.9869
vn 0.0568 -0.1374 -0.9889
vn -0.0531 0.9923 -0.1116
vn 0.0421 -0.1284 -0.9908
vn 0.1625 -0.1345 -0.9775
vn 0.1670 -0.1387 -0.9761
vn -0.2183 0.2100 0.9530
vn -0.1988 0.2324 0.9521
vn -0.1704 0.2467 0.9540
vn -0.1343 0.2645 0.9550
vn 0.0529 0.9986 0.0039
vn 0.0872 -0.1502 -0.9848
vn 0.0183 0.9903 -0.1380
vn -0.1037 0.2791 0.9546
vn 0.9880 -0.0418 -0.1485
vn 0.9980 0.0153 -0.0615
vn 0.9928 -0.0219 -0.1182
vn 0.9987 0.0271 -0.0435
vn -0.9997 0.0166 -0.0180
vn -0.9997 0.0176 -0.0171
vn -0.9997 0.0182 -0.0165
vn -0.0275 0.9868 -0.1598
vn 0.0539 0.9783 -0.2003
vn -0.9997 0.0193 -0.0153
vn -0.9876 -0.0001 -0.1573
vn -0.9885 -0.0015 -0.1511
vn -0.9855 0.0029 -0.1696
vn -0.9844 0.0044 -0.1758
vn 0.0019 0.9930 -0.1180
vn -0.0425 0.9935 -0.1056
vn 0.1944 -0.1267 -0.9727
vn 0.2063 -0.1374 -0.9688
vn 0.2159 -0.1461 -0.9654
vn 0.0398 0.9748 -0.2193
vn 0.2369 -0.1650 -0.9574
vn -0.0576 0.9951 -0.0803
vn -0.9612 -0.0107 -0.2758
vn -0.9586 -0.0022 -0.2847
vn -0.9726 -0.0582 -0.2249
vn -0.9484 0.0277 -0.3159
vn 0.9952 -0.0396 0.0899
vn 0.9939 -0.0778 0.0781
vn 0.9951 -0.0142 0.0977
vn 0.2189 -0.1999 -0.9551
vn 0.2189 -0.1999 -0.9551
vn 0.9927 -0.0972 0.0720
vn -0.0221 0.0944 -0.9953
vn 0.0686 0.0722 -0.9950
vn 0.3201 0.0064 -0.9474
vn -0.0555 0.9308 -0.3613
vn 0.0064 0.9155 -0.4024
vn -0.0034 0.9182 -0.3960
vn 0.0823 0.9778 -0.1926
vn 0.3919 -0.0136 -0.9199
vn -0.2513 0.9522 0.1736
vn -0.2513 0.9522 0.1736
vn -0.2513 0.9522 0.1736
vn 0.9936 0.0401 0.1053
vn 0.9856 0.0641 0.1563
vn 0.9845 0.0669 0.1623
vn 0.0942 0.8847 -0.4566
vn 0.9946 0.0362 0.0971
vn 0.0538 0.9949 -0.0853
vn 0.6302 -0.2434 -0.7373
vn 0.6165 -0.2432 -0.7488
vn 0.2226 -0.2115 -0.9517
vn 0.3566 -0.2154 -0.9091
vn 0.0698 0.9786 -0.1935
vn 0.0698 0.9786 -0.1935
vn 0.0698 0.9786 -0.1935
vn 0.1709 0.0628 0.9833
vn -0.0189 0.1670 0.9858
vn 0.0954 0.1051 0.9899
vn 0.0663 -0.1654 -0.9840
vn -0.0232 0.9992 -0.0335
vn -0.0240 0.9991 -0.0348
vn -0.0241 0.9991 -0.0349
vn 0.9993 -0.0120 -0.0350
vn 0.9960 -0.0490 -0.0742
vn 0.9976 -0.0357 -0.0601
vn 0.9941 -0.0628 -0.0888
vn 0.3249 0.9453 0.0305
vn 0.1714 0.9779 -0.1198
vn 0.0742 0.9901 -0.1191
vn 0.1353 -0.1472 -0.9798
vn 0.1069 -0.0889 -0.9903
vn 0.1225 -0.1209 -0.9851
vn 0.1423 -0.0998 -0.9848
vn 0.1388 -0.0953 -0.9857
vn 0.1432 -0.1009 -0.9845
vn 0.0995 0.9945 0.0314
vn 0.0036 0.9805 -0.1967
vn -0.0249 0.9990 -0.0360
vn 0.1565 -0.2107 -0.9649
vn -0.1184 0.2188 0.9686
vn -0.9873 0.0158 -0.1581
vn -0.9926 0.0484 -0.1117
vn -0.9821 -0.0056 -0.1881
vn -0.9943 0.0700 -0.0808
vn 0.0950 -0.0645 -0.9934
vn -0.0119 0.9925 -0.1213
vn 0.1468 -0.1056 -0.9835
vn 0.9855 0.0251 0.1680
vn 0.9877 0.0284 0.1540
vn 0.9841 0.0231 0.1762
vn -0.9952 0.0296 -0.0933
vn -0.9952 0.0296 -0.0933
vn -0.9952 0.0296 -0.0933
vn 0.9887 0.0301 0.1468
vn 0.2430 -0.1766 -0.9538
vn 0.2579 -0.1687 -0.9513
vn 0.2501 -0.1729 -0.9527
vn 0.2633 -0.1659 -0.9503
vn -0.1460 0.2560 0.9556
vn -0.1460 0.2560 0.9556
vn -0.1460 0.2560 0.9556
vn 0.0046 0.9989 -0.0463
vn -0.0092 0.9974 -0.0717
vn 0.0021 0.9987 -0.0508
vn 0.0158 0.9995 -0.0255
vn -0.9552 0.0758 -0.2860
vn -0.9552 0.0758 -0.2860
vn -0.9552 0.0758 -0.2860
vn 0.2189 -0.1999 -0.9551
vn -0.0045 0.9994 -0.0349
vn 0.9991 -0.0297 0.0316
vn 0.9994 -0.0225 0.0274
vn 0.9994 -0.0234 0.0273
vn 0.0573 0.9954 -0.0769
vn 0.2891 0.9508 -0.1116
vn 0.2889 0.9508 -0.1116
vn 0.9990 -0.0304 0.0324
vn 0.1876 0.9771 -0.1002
vn 0.9988 -0.0297 0.0387
vn 0.9940 0.0092 0.1092
vn 0.9951 -0.0016 0.0989
vn 0.9935 0.0130 0.1129
vn 0.1631 -0.9782 0.1289
vn 0.1631 -0.9782 0.1289
vn 0.1631 -0.9782 0.1289
vn 0.9920 0.0244 0.1237
vn 0.9793 0.1391 0.1471
vn 0.9793 0.1391 0.1471
vn 0.9793 0.1391 0.1471
vn 0.0043 -0.1513 -0.9885
vn 0.0560 -0.1198 -0.9912
vn 0.0333 -0.1337 -0.9905
vn -0.0048 0.9931 -0.1173
vn -0.0605 0.9871 -0.1482
vn -0.0268 0.9905 -0.1351
vn 0.0263 0.9960 -0.0856
vn 0.0244 0.9959 -0.0876
vn 0.0145 0.9951 -0.0979
vn -0.0936 0.9878 -0.1248
vn 0.0232 -0.9932 0.1145
vn -0.0009 -0.9953 0.0963
vn 0.0047 -0.9923 0.1238
vn 0.0356 0.9965 -0.0759
vn 0.0319 0.9967 -0.0745
vn 0.0637 -0.1241 -0.9902
vn 0.0606 -0.1222 -0.9907
vn 0.0584 -0.1209 -0.9909
vn 0.0558 -0.1193 -0.9913
vn -0.1432 0.1965 0.9700
vn -0.1583 0.2056 0.9658
vn -0.1753 0.2158 0.9606
vn 0.0837 -0.1026 -0.9912
vn -0.1262 0.1863 0.9744
vn 0.0227 0.9975 -0.0675
vn 0.0220 -0.9932 0.1140
vn -0.9984 0.0150 -0.0554
vn -0.9977 0.0200 -0.0653
vn -0.9987 0.0123 -0.0500
vn -0.9991 0.0076 -0.0407
vn 0.9878 -0.0588 0.1444
vn 0.9874 -0.0647 0.1441
vn 0.9823 -0.1240 0.1406
vn 0.9805 -0.1383 0.1397
vn -0.9953 0.0382 -0.0890
vn -0.9958 0.0353 -0.0846
vn -0.9975 0.0238 -0.0670
vn -0.9930 0.0499 -0.1068
vn -0.1065 0.9867 -0.1228
vn -0.0642 0.9920 -0.1085
vn 0.6653 -0.1793 -0.7247
vn 0.7265 -0.1137 -0.6777
vn 0.7267 -0.1135 -0.6775
vn 0.0020 0.9907 -0.1362
vn 0.9936 -0.0379 0.1065
vn 0.9840 -0.1223 0.1295
vn 0.9823 -0.1326 0.1322
vn 0.0097 0.9905 -0.1368
vn 0.1809 0.9784 -0.1004
vn 0.3117 0.9489 -0.0495
vn 0.3372 0.9411 -0.0258
vn 0.7688 -0.0620 -0.6364
vn 0.9949 -0.0143 0.1000
vn 0.0180 -0.9965 0.0819
vn -0.0010 -0.9983 0.0583
vn -0.0495 0.9934 -0.1034
vn -0.0490 0.9935 -0.1027
vn -0.0334 -0.9782 0.2050
vn -0.0372 -0.9803 0.1939
vn -0.0424 -0.9887 0.1441
vn 0.1126 0.9886 -0.0995
vn 0.1634 -0.1516 -0.9748
vn 0.1634 -0.1516 -0.9748
vn 0.1634 -0.1516 -0.9748
vn -0.0352 -0.9781 0.2053
vn -0.0304 -0.9753 0.2189
vn -0.9272 -0.0308 -0.3733
vn -0.9164 -0.0535 -0.3968
vn -0.9235 -0.0387 -0.3816
vn -0.9330 -0.0175 -0.3594
vn 0.0449 0.9739 -0.2226
vn 0.0497 0.9138 -0.4032
vn -0.1828 0.0646 0.9810
vn -0.1257 0.2996 0.9458
vn -0.1233 0.2764 0.9531
vn -0.0332 0.9917 -0.1239
vn -0.1619 0.0604 0.9850
vn -0.0174 -0.9765 0.2149
vn -0.1004 -0.9941 -0.0408
vn -0.0303 -0.9922 -0.1206
vn -0.0620 -0.9945 -0.0848
vn 0.0128 0.9985 -0.0533
vn 0.0372 0.9974 -0.0619
vn 0.0463 0.9964 -0.0707
vn 0.1397 -0.1466 -0.9793
vn 0.1338 -0.1564 -0.9786
vn 0.1437 -0.1562 -0.9772
vn 0.0681 0.9839 -0.1652
vn -0.9901 0.0052 -0.1403
vn -0.9902 0.0064 -0.1399
vn -0.9901 0.0057 -0.1401
vn -0.0215 -0.9996 0.0164
vn -0.9902 0.0069 -0.1397
vn 0.0031 -0.9917 0.1283
vn 0.0423 0.9949 -0.0913
vn 0.1901 0.9817 0.0115
vn 0.1319 -0.1580 -0.9786
vn -0.0551 -0.1227 -0.9909
vn -0.0915 -0.2438 -0.9655
vn -0.1351 -0.9908 -0.0006
vn 0.0713 0.9946 -0.0756
vn -0.0097 -0.9782 0.2074
vn -0.9490 0.1347 -0.2851
vn -0.9490 0.1347 -0.2851
vn -0.9490 0.1347 -0.2851
vn -0.0397 -0.9782 0.2038
vn 0.1569 -0.1399 -0.9777
vn 0.1436 0.9858 -0.0869
vn -0.0192 -0.9981 0.0584
vn 0.2446 -0.0332 -0.9691
vn 0.1926 -0.0812 -0.9779
vn -0.0581 -0.0622 -0.9964
vn -0.2068 -0.0024 -0.9784
vn 0.2877 0.9575 0.0231
vn -0.2497 0.9648 -0.0824
vn -0.4314 0.8885 -0.1563
vn 0.9731 0.0597 0.2223
vn 0.9667 0.0442 0.2520
vn 0.9629 0.0361 0.2673
vn 0.0653 0.9947 -0.0798
vn 0.9553 0.0213 0.2950
vn 0.0546 0.9983 -0.0223
vn -0.1685 0.9844 -0.0497
vn -0.2873 -0.0168 -0.9577
vn -0.2335 0.2058 0.9503
vn -0.2335 0.2058 0.9503
vn -0.2335 0.2058 0.9503
vn -0.2326 0.1460 0.9616
vn -0.2341 0.1469 0.9610
vn -0.2361 0.1480 0.9604
vn 0.0666 0.9971 -0.0375
vn 0.1205 0.9906 -0.0647
vn 0.0744 0.9964 -0.0414
vn 0.2863 -0.0913 -0.9538
vn 0.2384 -0.1202 -0.9637
vn 0.1855 -0.1512 -0.9709
vn 0.0829 0.9963 -0.0238
vn 0.0184 0.9997 -0.0132
vn -0.9914 0.0326 -0.1268
vn -0.9914 0.0326 -0.1268
vn -0.9914 0.0326 -0.1268
vn -0.5614 0.7465 -0.3570
vn -0.5614 0.7465 -0.3570
vn -0.5614 0.7465 -0.3570
vn -0.0464 0.9969 -0.0631
vn -0.9674 -0.0711 -0.2431
vn -0.9574 -0.0479 -0.2849
vn -0.9721 -0.0847 -0.2187
vn -0.9791 -0.1216 -0.1631
vn -0.9705 0.1018 -0.2186
vn -0.9670 0.1712 -0.1889
vn -0.9638 0.1970 -0.1796
vn -0.9643 0.1046 -0.2432
vn -0.9797 -0.1052 -0.1707
vn -0.9797 -0.1168 -0.1628
vn 0.1199 0.9834 -0.1360
vn 0.0441 0.9883 -0.1458
vn 0.3358 -0.0605 -0.9400
vn -0.2572 0.0400 0.9655
vn 0.2837 -0.1125 -0.9523
vn 0.2622 -0.1433 -0.9543
vn 0.1480 -0.3765 -0.9145
vn 0.0048 -0.9890 -0.1480
vn 0.0048 -0.9890 -0.1480
vn 0.0048 -0.9890 -0.1480
vn -0.2307 0.1449 0.9622
vn 0.9657 0.0324 0.2577
vn 0.9688 0.0383 0.2451
vn 0.9706 0.0420 0.2370
vn 0.1346 0.9813 -0.1374
vn 0.2007 -0.0528 -0.9782
vn 0.2545 -0.0641 -0.9650
vn 0.1889 -0.0504 -0.9807
vn 0.1618 -0.2678 -0.9498
vn 0.1618 -0.2678 -0.9498
vn 0.1618 -0.2678 -0.9498
vn 0.2741 -0.0682 -0.9593
vn -0.0213 0.9915 -0.1286
vn -0.0519 0.9838 -0.1713
vn -0.0456 0.9856 -0.1625
vn -0.9595 -0.0431 -0.2784
vn -0.9600 -0.0443 -0.2765
vn -0.9592 -0.0424 -0.2796
vn 0.9731 0.0474 0.2253
vn 0.6968 -0.4774 -0.5353
vn 0.6968 -0.4774 -0.5353
vn 0.6968 -0.4774 -0.5353
vn -0.1391 0.9746 -0.1758
vn -0.0572 -0.9813 0.1836
vn 0.1909 -0.1634 -0.9679
vn 0.2640 -0.2012 -0.9433
vn 0.1273 -0.1302 -0.9833
vn -0.3062 0.9355 -0.1761
vn -0.3062 0.9355 -0.1761
vn -0.3062 0.9355 -0.1761
vn -0.9587 -0.0413 -0.2815
vn -0.9907 0.0162 -0.1351
vn -0.9734 -0.0010 -0.2291
vn -0.9980 -0.0086 -0.0625
vn -0.9619 0.1117 -0.2494
vn -0.9670 -0.0473 -0.2504
vn -0.2663 0.0227 0.9636
vn -0.0139 0.9880 -0.1536
vn 0.0392 0.9916 -0.1236
vn 0.0159 0.9948 -0.1007
vn -0.9861 -0.0271 -0.1640
vn -0.1873 0.2305 0.9549
vn -0.1931 0.2335 0.9530
vn -0.1811 0.2273 0.9568
vn -0.9872 -0.0454 -0.1531
vn -0.0283 0.9799 -0.1976
vn -0.9281 -0.1055 -0.3572
vn 0.0729 0.9298 -0.3609
vn 0.3298 -0.2348 -0.9144
vn -0.0743 0.9765 -0.2024
vn -0.1753 0.2244 0.9586
vn 0.9925 -0.0458 0.1132
vn 0.9930 -0.0565 0.1035
vn 0.9933 -0.0898 0.0731
vn -0.9577 -0.0451 -0.2843
vn -0.9653 -0.0591 -0.2542
vn -0.9629 -0.0543 -0.2645
vn 0.2588 -0.1239 -0.9580
vn 0.2779 -0.1146 -0.9537
vn 0.2243 -0.1404 -0.9643
vn 0.9892 -0.0086 0.1466
vn -0.1828 0.9666 -0.1796
vn -0.5778 0.7760 -0.2528
vn -0.4833 0.8379 -0.2537
vn 0.1982 -0.1527 -0.9682
vn -0.9697 -0.0682 -0.2344
vn -0.3101 0.9218 -0.2327
vn -0.1761 0.2135 0.9609
vn -0.1655 0.2070 0.9642
vn -0.1702 0.2099 0.9628
vn 0.2056 -0.2016 -0.9576
vn -0.9416 -0.0868 -0.3255
vn -0.0547 -0.9970 0.0556
vn 0.0367 -0.9876 0.1527
vn 0.2253 -0.1418 -0.9639
vn -0.9455 -0.0415 -0.3230
vn -0.3545 0.9059 -0.2317
vn -0.9658 -0.0636 -0.2515
vn -0.9615 -0.0786 -0.2633
vn -0.9652 -0.0657 -0.2531
vn -0.0208 0.9922 -0.1233
vn -0.0334 0.9925 -0.1175
vn 0.0087 0.9906 -0.1368
vn -0.0360 0.9948 -0.0957
vn -0.0581 0.9927 -0.1061
vn -0.1595 0.2034 0.9660
vn -0.9694 -0.0497 -0.2405
vn -0.9415 -0.1073 -0.3194
vn -0.0953 -0.9953 -0.0169
vn -0.1874 -0.9822 -0.0151
vn -0.9486 -0.1266 -0.2900
vn -0.3715 0.9254 -0.0751
vn -0.0670 0.9895 -0.1284
vn -0.4485 0.8787 -0.1633
vn -0.0845 0.9501 0.3004
vn 0.0136 0.9994 -0.0317
vn 0.0111 0.9900 -0.1403
vn 0.0617 0.9933 -0.0979
vn -0.3483 0.9090 -0.2291
vn -0.3238 0.9163 -0.2359
vn 0.9899 -0.0035 0.1414
vn 0.9899 -0.0035 0.1414
vn 0.9899 -0.0035 0.1414
vn 0.0051 0.9787 -0.2051
vn 0.1023 0.9852 -0.1378
vn 0.0573 0.9896 -0.1316
vn 0.9939 -0.0841 0.0708
vn 0.9939 -0.0841 0.0708
vn 0.1255 -0.1872 -0.9743
vn 0.1415 -0.1767 -0.9740
vn 0.1666 -0.1600 -0.9730
vn 0.9992 0.0169 0.0361
vn 0.9992 0.0169 0.0361
vn 0.9992 0.0169 0.0361
vn 0.1574 -0.9812 0.1116
vn 0.1574 -0.9812 0.1116
vn 0.1574 -0.9812 0.1116
vn 0.0983 -0.2048 -0.9739
vn 0.0182 0.9984 -0.0535
vn 0.0272 0.9979 -0.0593
vn 0.0314 0.9976 -0.0621
vn 0.9946 -0.0858 -0.0587
vn 0.9946 -0.0858 -0.0587
vn 0.9946 -0.0858 -0.0587
vn -0.0558 0.1586 0.9858
vn -0.0675 0.1668 0.9837
vn -0.0483 0.1534 0.9870
vn -0.0541 0.9885 -0.1411
vn -0.0064 0.9948 -0.1017
vn 0.0399 0.9969 -0.0677
vn -0.0361 0.1447 0.9888
vn -0.9901 0.0005 -0.1406
vn -0.9901 0.0005 -0.1406
vn -0.9901 0.0005 -0.1406
vn 0.0453 0.9096 -0.4130
vn 0.2861 -0.1692 -0.9431
vn 0.2495 -0.0881 -0.9643
vn 0.2730 -0.1398 -0.9518
vn -0.0030 0.9950 -0.0996
vn 0.2385 -0.0643 -0.9690
vn -0.1487 0.9832 -0.1056
vn 0.9993 0.0003 0.0377
vn 0.9990 0.0120 0.0430
vn 0.9994 -0.0042 0.0356
vn 0.9988 0.0190 0.0461
vn 0.0470 -0.9921 0.1167
vn 0.0470 -0.9921 0.1167
vn 0.0470 -0.9921 0.1167
vn 0.5999 0.7889 -0.1330
vn 0.5999 0.7889 -0.1330
vn 0.5999 0.7889 -0.1330
vn -0.9784 -0.2038 -0.0337
vn -0.9784 -0.2038 -0.0337
vn -0.9784 -0.2038 -0.0337
vn -0.0524 0.9664 -0.2517
vn 0.0342 0.9778 -0.2066
vn -0.0120 -0.9950 0.0989
vn -0.0120 -0.9950 0.0989
vn -0.0120 -0.9950 0.0989
vn -0.3908 0.8691 -0.3032
vn -0.2320 0.9165 -0.3260
vn -0.9785 -0.0315 -0.2036
vn -0.9785 -0.0315 -0.2036
vn -0.9785 -0.0315 -0.2036
vn -0.6259 0.7105 -0.3216
vn 0.0027 0.7299 -0.6836
vn 0.0027 0.7299 -0.6836
vn 0.0027 0.7299 -0.6836
vn 0.9752 0.0468 0.2164
vn 0.9752 0.0468 0.2164
vn 0.9752 0.0468 0.2164
vn 0.3016 -0.1319 -0.9443
vn 0.2939 -0.1387 -0.9457
vn 0.2963 -0.1366 -0.9453
vn 0.2877 -0.1443 -0.9468
vn -0.9760 -0.0332 -0.2153
vn -0.9760 -0.0332 -0.2153
vn -0.9760 -0.0332 -0.2153
vn 0.9939 -0.0841 0.0708
vn 0.0253 0.9793 -0.2011
vn 0.3300 -0.1151 -0.9369
vn 0.2688 -0.1332 -0.9539
vn 0.3159 -0.1194 -0.9413
vn 0.9988 -0.0143 0.0471
vn 0.9977 -0.0102 0.0670
vn 0.9938 0.0123 0.1104
vn 0.9966 -0.0107 0.0811
vn 0.2506 -0.1384 -0.9581
vn -0.9973 -0.0391 -0.0622
vn -0.9970 -0.0422 -0.0650
vn -0.9970 -0.0504 -0.0594
vn 0.3252 0.9015 -0.2854
vn 0.1657 0.9083 -0.3841
vn -0.1179 0.9914 -0.0560
vn -0.1179 0.9914 -0.0560
vn -0.1179 0.9914 -0.0560
vn 0.9993 0.0171 -0.0333
vn 0.9984 -0.0324 0.0466
vn 0.9968 -0.0488 0.0631
vn 0.9987 -0.0020 -0.0512
vn 0.6483 0.6757 -0.3510
vn 0.3689 0.8937 -0.2552
vn 0.4225 0.8690 -0.2574
vn 0.4670 0.8400 -0.2762
vn -0.9995 -0.0308 -0.0031
vn -0.9993 -0.0278 -0.0246
vn -0.9991 -0.0392 -0.0151
vn -0.9973 0.0002 -0.0728
vn -0.9942 0.0247 -0.1050
vn -0.5030 0.2038 0.8399
vn -0.5382 0.1668 0.8262
vn -0.5450 0.1594 0.8231
vn 0.0660 0.8601 -0.5059
vn 0.0617 0.8594 -0.5075
vn 0.0666 0.8503 -0.5220
vn 0.0100 0.9961 -0.0882
vn -0.0092 0.9999 -0.0102
vn -0.0174 0.9984 -0.0530
vn 0.0665 0.8472 -0.5271
vn 0.0299 0.9928 -0.1161
vn 0.0494 0.8314 -0.5534
vn 0.0863 0.9838 -0.1571
vn -0.9823 -0.0770 -0.1705
vn -0.9823 -0.0770 -0.1705
vn -0.9823 -0.0770 -0.1705
vn 0.1925 0.9806 -0.0364
vn 0.1319 0.9912 -0.0130
vn -0.5757 0.1249 0.8081
vn 0.2914 -0.2102 -0.9332
vn 0.2922 -0.2109 -0.9328
vn 0.3853 -0.2997 -0.8728
vn 0.1893 -0.1143 -0.9752
vn 0.9853 0.0003 0.1709
vn 0.9863 -0.0288 0.1624
vn 0.9790 0.0209 0.2030
vn 0.9940 -0.0261 0.1061
vn 0.9719 0.0383 0.2321
vn -0.9785 -0.0430 -0.2019
vn -0.9740 -0.0557 -0.2196
vn -0.9784 -0.0388 -0.2029
vn -0.9802 -0.0475 -0.1920
vn 0.3326 -0.2657 -0.9048
vn 0.3326 -0.2657 -0.9048
vn 0.3326 -0.2657 -0.9048
vn -0.9741 -0.0504 -0.2204
vn -0.9741 -0.0504 -0.2204
vn -0.9741 -0.0504 -0.2204
vn 0.9854 -0.1554 0.0702
vn 0.9903 -0.1381 -0.0143
vn 0.9530 -0.2906 0.0856
vn 0.9929 -0.0993 -0.0650
vn 0.9951 0.0771 0.0615
vn 0.9851 -0.1702 0.0234
vn 0.1046 -0.4532 -0.8852
vn 0.1777 -0.3185 -0.9311
vn 0.1512 -0.3693 -0.9169
vn -0.0446 -0.9498 0.3096
vn -0.0333 -0.9521 0.3039
vn -0.0196 -0.9547 0.2969
vn 0.0163 -0.9981 0.0600
vn 0.0163 -0.9981 0.0600
vn 0.0163 -0.9981 0.0600
vn 0.0743 -0.5045 -0.8602
vn -0.9955 -0.0860 -0.0407
vn -0.9951 -0.0978 0.0116
vn -0.9897 -0.0962 -0.1058
vn -0.9935 -0.0739 -0.0865
vn -0.0103 -0.9957 0.0925
vn -0.0146 -0.9954 0.0946
vn -0.0117 -0.9950 0.0996
vn -0.9948 -0.0635 -0.0797
vn -0.0144 -0.9957 0.0915
vn -0.9954 -0.0570 -0.0775
vn -0.0204 -0.9951 0.0969
vn 0.9518 -0.1057 0.2879
vn 0.9985 -0.0531 -0.0123
vn 0.9528 -0.1409 0.2688
vn 0.9748 -0.0229 0.2219
vn 0.9907 -0.0033 0.1359
vn 0.9788 -0.0099 0.2045
vn 0.9888 -0.0014 0.1494
vn 0.1225 -0.2174 -0.9684
vn 0.1177 -0.2042 -0.9718
vn 0.1344 -0.2503 -0.9588
vn -0.0564 -0.9502 0.3066
vn -0.0114 -0.9616 0.2742
vn -0.0677 -0.9352 0.3476
vn 0.1388 -0.2627 -0.9548
vn -0.0914 -0.9262 0.3657
vn -0.0135 -0.9981 0.0601
vn 0.0004 -0.9991 0.0422
vn -0.0237 -0.9970 0.0732
vn 0.0096 -0.9995 0.0303
vn -0.9827 -0.0373 -0.1816
vn -0.9757 0.0036 -0.2192
vn -0.9763 0.0106 -0.2160
vn -0.9802 -0.0451 -0.1929
vn -0.9866 -0.0965 -0.1313
vn -0.0938 -0.9940 0.0571
vn -0.0801 -0.9952 0.0564
vn -0.2537 -0.9669 0.0279
vn -0.9864 -0.1282 -0.1030
vn -0.9757 -0.0621 -0.2102
vn -0.9757 -0.0621 -0.2102
vn -0.9757 -0.0621 -0.2102
vn -0.4828 -0.8655 -0.1334
vn -0.5360 -0.8256 -0.1763
vn -0.9850 -0.1592 -0.0665
vn -0.9849 -0.1602 -0.0659
vn 0.2321 -0.5191 -0.8226
vn 0.1382 -0.3280 -0.9345
vn 0.1611 -0.3748 -0.9130
vn 0.0881 -0.2249 -0.9704
vn -0.1159 -0.9609 0.2515
vn -0.0296 -0.9798 0.1977
vn 0.0058 -0.9746 0.2238
vn -0.9854 -0.0823 -0.1490
vn -0.9847 -0.0829 -0.1532
vn -0.9844 -0.0831 -0.1550
f 517/517/517 518/518/518 519/519/519
f 1/1/1 2/2/2 3/3/3
f 153/153/153 154/154/154 155/155/155
f 4/4/4 5/5/5 6/6/6
f 156/156/156 157/157/157 158/158/158
f 153/153/153 155/155/155 159/159/159
f 4/4/4 6/6/6 7/7/7
f 8/8/8 9/9/9 10/10/10
f 158/158/158 160/160/160 156/156/156
f 159/159/159 161/161/161 153/153/153
f 11/11/11 12/12/12 13/13/13
f 162/162/162 163/163/163 164/164/164
f 165/165/165 166/166/166 167/167/167
f 437/437/437 438/438/438 439/439/439
f 162/162/162 164/164/164 168/168/168
f 440/440/440 441/441/441 442/442/442
f 11/11/11 14/14/14 12/12/12
f 515/515/515 443/443/443 444/444/444
f 169/169/169 170/170/170 171/171/171
f 445/445/445 446/446/446 447/447/447
f 448/448/448 449/449/449 450/450/450
f 15/15/15 16/16/16 17/17/17
f 172/172/172 173/173/173 174/174/174
f 18/18/18 19/19/19 20/20/20
f 175/175/175 176/176/176 177/177/177
f 522/522/522 521/521/521 523/523/523
f 519/519/519 518/518/518 524/524/524
f 21/21/21 22/22/22 23/23/23
f 521/521/521 520/520/520 523/523/523
f 178/178/178 179/179/179 180/180/180
f 24/24/24 25/25/25 26/26/26
f 451/451/451 452/452/452 453/453/453
f 27/27/27 28/28/28 29/29/29
f 30/30/30 8/8/8 10/10/10
f 176/176/176 175/175/175 181/181/181
f 31/31/31 29/29/29 28/28/28
f 25/25/25 32/32/32 33/33/33
f 446/446/446 445/445/445 454/454/454
f 455/455/455 456/456/456 457/457/457
f 182/182/182 183/183/183 184/184/184
f 178/178/178 185/185/185 179/179/179
f 584/584/584 585/585/585 586/586/586
f 586/586/586 585/585/585 587/587/587
f 156/156/156 160/160/160 186/186/186
f 187/187/187 188/188/188 189/189/189
f 589/589/589 585/585/585 588/588/588
f 458/458/458 459/459/459 460/460/460
f 16/16/16 34/34/34 17/17/17
f 25/25/25 33/33/33 26/26/26
f 461/461/461 462/462/462 463/463/463
f 35/35/35 36/36/36 37/37/37
f 23/23/23 22/22/22 38/38/38
f 190/190/190 189/189/189 188/188/188
f 191/191/191 192/192/192 193/193/193
f 194/194/194 174/174/174 173/173/173
f 39/39/39 24/24/24 26/26/26
f 20/20/20 19/19/19 40/40/40
f 192/192/192 191/191/191 195/195/195
f 36/36/36 41/41/41 37/37/37
f 464/464/464 442/442/442 465/465/465
f 186/186/186 196/196/196 156/156/156
f 466/466/466 457/457/457 456/456/456
f 42/42/42 43/43/43 44/44/44
f 43/43/43 45/45/45 44/44/44
f 46/46/46 47/47/47 48/48/48
f 197/197/197 182/182/182 184/184/184
f 49/49/49 8/8/8 30/30/30
f 8/8/8 49/49/49 50/50/50
f 48/48/48 47/47/47 51/51/51
f 464/464/464 440/440/440 442/442/442
f 52/52/52 53/53/53 54/54/54
f 54/54/54 55/55/55 52/52/52
f 463/463/463 467/467/467 461/461/461
f 198/198/198 199/199/199 200/200/200
f 200/200/200 201/201/201 198/198/198
f 202/202/202 203/203/203 204/204/204
f 203/203/203 205/205/205 204/204/204
f 468/468/468 469/469/469 470/470/470
f 206/206/206 207/207/207 208/208/208
f 206/206/206 209/209/209 207/207/207
f 525/525/525 527/527/527 526/526/526
f 176/176/176 210/210/210 428/428/428
f 49/49/49 30/30/30 56/56/56
f 181/181/181 210/210/210 176/176/176
f 464/464/464 471/471/471 440/440/440
f 590/590/590 591/591/591 592/592/592
f 211/211/211 210/210/210 181/181/181
f 472/472/472 473/473/473 474/474/474
f 593/593/593 594/594/594 595/595/595
f 57/57/57 49/49/49 56/56/56
f 212/212/212 213/213/213 214/214/214
f 429/429/429 428/428/428 210/210/210
f 530/530/530 531/531/531 532/532/532
f 215/215/215 429/429/429 210/210/210
f 216/216/216 217/217/217 218/218/218
f 215/215/215 210/210/210 219/219/219
f 464/464/464 465/465/465 475/475/475
f 58/58/58 59/59/59 60/60/60
f 596/596/596 597/597/597 598/598/598
f 220/220/220 221/221/221 222/222/222
f 213/213/213 223/223/223 214/214/214
f 57/57/57 61/61/61 49/49/49
f 60/60/60 59/59/59 62/62/62
f 57/57/57 63/63/63 61/61/61
f 224/224/224 217/217/217 216/216/216
f 473/473/473 476/476/476 474/474/474
f 477/477/477 471/471/471 464/464/464
f 183/183/183 225/225/225 226/226/226
f 64/64/64 65/65/65 66/66/66
f 478/478/478 479/479/479 480/480/480
f 64/64/64 67/67/67 65/65/65
f 533/533/533 534/534/534 535/535/535
f 479/479/479 478/478/478 481/481/481
f 68/68/68 69/69/69 70/70/70
f 227/227/227 210/210/210 211/211/211
f 227/227/227 211/211/211 228/228/228
f 71/71/71 72/72/72 151/151/151
f 68/68/68 73/73/73 69/69/69
f 536/536/536 534/534/534 533/533/533
f 229/229/229 230/230/230 231/231/231
f 74/74/74 75/75/75 76/76/76
f 77/77/77 78/78/78 79/79/79
f 528/528/528 538/538/538 529/529/529
f 539/539/539 540/540/540 537/537/537
f 220/220/220 222/222/222 232/232/232
f 61/61/61 80/80/80 49/49/49
f 76/76/76 75/75/75 81/81/81
f 82/82/82 83/83/83 84/84/84
f 85/85/85 86/86/86 87/87/87
f 79/79/79 78/78/78 88/88/88
f 85/85/85 89/89/89 86/86/86
f 590/590/590 592/592/592 599/599/599
f 482/482/482 483/483/483 484/484/484
f 49/49/49 80/80/80 90/90/90
f 91/91/91 92/92/92 93/93/93
f 92/92/92 94/94/94 93/93/93
f 485/485/485 486/486/486 487/487/487
f 95/95/95 96/96/96 97/97/97
f 98/98/98 99/99/99 100/100/100
f 94/94/94 101/101/101 93/93/93
f 233/233/233 234/234/234 235/235/235
f 488/488/488 489/489/489 490/490/490
f 600/600/600 601/601/601 602/602/602
f 102/102/102 103/103/103 104/104/104
f 600/600/600 602/602/602 603/603/603
f 105/105/105 106/106/106 107/107/107
f 107/107/107 106/106/106 108/108/108
f 604/604/604 605/605/605 606/606/606
f 607/607/607 600/600/600 603/603/603
f 109/109/109 110/110/110 111/111/111
f 236/236/236 229/229/229 237/237/237
f 605/605/605 604/604/604 608/608/608
f 112/112/112 113/113/113 114/114/114
f 609/609/609 607/607/607 603/603/603
f 115/115/115 116/116/116 117/117/117
f 80/80/80 118/118/118 90/90/90
f 110/110/110 119/119/119 111/111/111
f 238/238/238 239/239/239 240/240/240
f 241/241/241 238/238/238 240/240/240
f 242/242/242 232/232/232 243/243/243
f 103/103/103 120/120/120 104/104/104
f 244/244/244 245/245/245 246/246/246
f 121/121/121 93/93/93 101/101/101
f 516/516/516 491/491/491 492/492/492
f 99/99/99 122/122/122 100/100/100
f 243/243/243 232/232/232 247/247/247
f 123/123/123 124/124/124 125/125/125
f 123/123/123 126/126/126 124/124/124
f 127/127/127 114/114/114 113/113/113
f 248/248/248 244/244/244 246/246/246
f 111/111/111 128/128/128 152/152/152
f 249/249/249 236/236/236 237/237/237
f 250/250/250 251/251/251 252/252/252
f 119/119/119 128/128/128 111/111/111
f 253/253/253 254/254/254 255/255/255
f 230/230/230 229/229/229 236/236/236
f 256/256/256 257/257/257 258/258/258
f 220/220/220 232/232/232 242/242/242
f 242/242/242 259/259/259 220/220/220
f 260/260/260 261/261/261 262/262/262
f 115/115/115 117/117/117 129/129/129
f 226/226/226 263/263/263 183/183/183
f 262/262/262 261/261/261 264/264/264
f 184/184/184 183/183/183 265/265/265
f 493/493/493 494/494/494 495/495/495
f 266/266/266 255/255/255 267/267/267
f 268/268/268 269/269/269 270/270/270
f 252/252/252 271/271/271 250/250/250
f 254/254/254 272/272/272 255/255/255
f 130/130/130 131/131/131 132/132/132
f 133/133/133 134/134/134 135/135/135
f 131/131/131 130/130/130 136/136/136
f 249/249/249 273/273/273 236/236/236
f 137/137/137 138/138/138 139/139/139
f 274/274/274 275/275/275 276/276/276
f 272/272/272 267/267/267 255/255/255
f 139/139/139 138/138/138 140/140/140
f 236/236/236 277/277/277 230/230/230
f 257/257/257 278/278/278 258/258/258
f 267/267/267 272/272/272 279/279/279
f 141/141/141 142/142/142 143/143/143
f 263/263/263 280/280/280 183/183/183
f 281/281/281 278/278/278 282/282/282
f 144/144/144 145/145/145 146/146/146
f 268/268/268 283/283/283 269/269/269
f 269/269/269 283/283/283 284/284/284
f 278/278/278 257/257/257 282/282/282
f 610/610/610 605/605/605 608/608/608
f 267/267/267 279/279/279 285/285/285
f 146/146/146 147/147/147 144/144/144
f 430/430/430 286/286/286 287/287/287
f 288/288/288 289/289/289 290/290/290
f 291/291/291 279/279/279 272/272/272
f 289/289/289 292/292/292 290/290/290
f 267/267/267 285/285/285 293/293/293
f 294/294/294 287/287/287 286/286/286
f 611/611/611 612/612/612 613/613/613
f 283/283/283 295/295/295 284/284/284
f 296/296/296 297/297/297 298/298/298
f 148/148/148 149/149/149 150/150/150
f 299/299/299 300/300/300 301/301/301
f 302/302/302 303/303/303 304/304/304
f 611/611/611 614/614/614 612/612/612
f 305/305/305 306/306/306 307/307/307
f 272/272/272 308/308/308 291/291/291
f 302/302/302 304/304/304 309/309/309
f 310/310/310 311/311/311 312/312/312
f 265/265/265 183/183/183 280/280/280
f 313/313/313 314/314/314 315/315/315
f 491/491/491 497/497/497 496/496/496
f 285/285/285 316/316/316 293/293/293
f 317/317/317 318/318/318 319/319/319
f 320/320/320 317/317/317 319/319/319
f 321/321/321 322/322/322 323/323/323
f 322/322/322 321/321/321 324/324/324
f 325/325/325 326/326/326 319/319/319
f 327/327/327 293/293/293 328/328/328
f 319/319/319 326/326/326 320/320/320
f 615/615/615 612/612/612 614/614/614
f 329/329/329 306/306/306 305/305/305
f 615/615/615 614/614/614 616/616/616
f 244/244/244 248/248/248 330/330/330
f 331/331/331 332/332/332 333/333/333
f 334/334/334 335/335/335 336/336/336
f 299/299/299 337/337/337 300/300/300
f 338/338/338 339/339/339 340/340/340
f 616/616/616 614/614/614 617/617/617
f 328/328/328 341/341/341 327/327/327
f 328/328/328 293/293/293 316/316/316
f 342/342/342 343/343/343 344/344/344
f 345/345/345 346/346/346 347/347/347
f 618/618/618 619/619/619 620/620/620
f 343/343/343 342/342/342 348/348/348
f 541/541/541 542/542/542 543/543/543
f 349/349/349 350/350/350 351/351/351
f 352/352/352 353/353/353 354/354/354
f 355/355/355 340/340/340 339/339/339
f 356/356/356 357/357/357 358/358/358
f 542/542/542 544/544/544 543/543/543
f 431/431/431 359/359/359 432/432/432
f 236/236/236 273/273/273 360/360/360
f 542/542/542 545/545/545 544/544/544
f 361/361/361 362/362/362 363/363/363
f 546/546/546 547/547/547 548/548/548
f 364/364/364 365/365/365 366/366/366
f 352/352/352 354/354/354 367/367/367
f 549/549/549 550/550/550 551/551/551
f 498/498/498 499/499/499 500/500/500
f 368/368/368 369/369/369 370/370/370
f 496/496/496 497/497/497 501/501/501
f 371/371/371 324/324/324 321/321/321
f 552/552/552 553/553/553 554/554/554
f 368/368/368 372/372/372 369/369/369
f 373/373/373 244/244/244 330/330/330
f 433/433/433 374/374/374 375/375/375
f 433/433/433 375/375/375 376/376/376
f 549/549/549 551/551/551 555/555/555
f 368/368/368 377/377/377 372/372/372
f 378/378/378 379/379/379 380/380/380
f 377/377/377 381/381/381 372/372/372
f 328/328/328 316/316/316 382/382/382
f 552/552/552 556/556/556 553/553/553
f 369/369/369 372/372/372 383/383/383
f 621/621/621 622/622/622 623/623/623
f 384/384/384 328/328/328 382/382/382
f 551/551/551 557/557/557 555/555/555
f 362/362/362 361/361/361 385/385/385
f 556/556/556 558/558/558 553/553/553
f 502/502/502 503/503/503 504/504/504
f 350/350/350 386/386/386 351/351/351
f 378/378/378 380/380/380 387/387/387
f 388/388/388 389/389/389 390/390/390
f 559/559/559 560/560/560 561/561/561
f 391/391/391 392/392/392 393/393/393
f 359/359/359 434/434/434 432/432/432
f 562/562/562 563/563/563 558/558/558
f 394/394/394 395/395/395 396/396/396
f 389/389/389 388/388/388 397/397/397
f 548/548/548 547/547/547 564/564/564
f 375/375/375 398/398/398 376/376/376
f 399/399/399 400/400/400 359/359/359
f 394/394/394 396/396/396 401/401/401
f 393/393/393 392/392/392 402/402/402
f 618/618/618 620/620/620 624/624/624
f 403/403/403 359/359/359 400/400/400
f 404/404/404 405/405/405 406/406/406
f 565/565/565 566/566/566 567/567/567
f 333/333/333 332/332/332 407/407/407
f 434/434/434 359/359/359 403/403/403
f 383/383/383 372/372/372 408/408/408
f 409/409/409 410/410/410 265/265/265
f 558/558/558 563/563/563 553/553/553
f 332/332/332 411/411/411 407/407/407
f 626/626/626 627/627/627 628/628/628
f 412/412/412 383/383/383 408/408/408
f 403/403/403 400/400/400 413/413/413
f 409/409/409 265/265/265 280/280/280
f 414/414/414 415/415/415 416/416/416
f 417/417/417 418/418/418 419/419/419
f 398/398/398 420/420/420 376/376/376
f 417/417/417 421/421/421 418/418/418
f 413/413/413 435/435/435 403/403/403
f 405/405/405 422/422/422 406/406/406
f 566/566/566 565/565/565 568/568/568
f 414/414/414 416/416/416 423/423/423
f 505/505/505 506/506/506 507/507/507
f 569/569/569 570/570/570 571/571/571
f 569/569/569 571/571/571 573/573/573
f 627/627/627 626/626/626 629/629/629
f 436/436/436 420/420/420 398/398/398
f 412/412/412 408/408/408 424/424/424
f 280/280/280 425/425/425 409/409/409
f 572/572/572 570/570/570 569/569/569
f 409/409/409 425/425/425 426/426/426
f 630/630/630 631/631/631 632/632/632
f 508/508/508 509/509/509 510/510/510
f 633/633/633 630/630/630 634/634/634
f 635/635/635 636/636/636 637/637/637
f 509/509/509 511/511/511 510/510/510
f 633/633/633 631/631/631 630/630/630
f 424/424/424 408/408/408 427/427/427
f 625/625/625 621/621/621 623/623/623
f 512/512/512 513/513/513 514/514/514
f 633/633/633 634/634/634 638/638/638
f 574/574/574 575/575/575 576/576/576
f 639/639/639 640/640/640 641/641/641
f 577/577/577 575/575/575 574/574/574
f 635/635/635 637/637/637 642/642/642
f 637/637/637 643/643/643 642/642/642
f 634/634/634 644/644/644 638/638/638
f 645/645/645 644/644/644 634/634/634
f 646/646/646 647/647/647 648/648/648
f 649/649/649 648/648/648 647/647/647
f 578/578/578 579/579/579 580/580/580
f 652/652/652 651/651/651 650/650/650
f 653/653/653 654/654/654 655/655/655
f 581/581/581 582/582/582 583/583/583
