o tail_2
v -0.20757 1.93410 2.36069
v -0.03344 1.72448 2.52377
v -0.19153 1.91729 2.49626
v 0.65415 2.07787 3.14184
v 0.64604 2.09284 3.14518
v 0.64506 2.06922 3.15038
v 0.65066 1.98130 3.09732
v 0.65061 1.95624 3.09384
v 0.63929 1.87146 3.05427
v 0.65415 2.07787 3.14184
v 0.61313 2.12875 3.13515
v 0.64604 2.09284 3.14518
v 0.65043 2.05900 3.02405
v 0.62233 2.04480 3.06905
v 0.65066 1.98130 3.09732
v 0.63311 2.09474 3.09002
v 0.64506 2.06922 3.15038
v 0.64604 2.09284 3.14518
v 0.61313 2.12875 3.13515
v 0.63311 2.09474 3.09002
v 0.65415 2.07787 3.14184
v 0.62301 2.02892 3.13936
v 0.65415 2.07787 3.14184
v 0.64506 2.06922 3.15038
v 0.62301 2.02892 3.13936
v 0.65043 2.05900 3.02405
v 0.57652 1.98026 2.16615
v 0.61484 2.18528 2.26656
v 0.62253 1.78654 3.00845
v 0.62038 2.07668 3.07127
v 0.62233 2.04480 3.06905
v 0.62253 1.78654 3.00845
v 0.63929 1.87146 3.05427
v 0.62240 1.79793 3.02594
v 0.65066 1.98130 3.09732
v 0.65043 2.05900 3.02405
v 0.63311 2.09474 3.09002
v 0.62038 2.07668 3.07127
v 0.65043 2.05900 3.02405
v 0.62038 2.07668 3.07127
v 0.62233 2.04480 3.06905
v 0.65066 1.98130 3.09732
v 0.62301 2.02892 3.13936
v 0.65061 1.95624 3.09384
v 0.65043 2.05900 3.02405
v 0.61484 2.18528 2.26656
v 0.50941 2.45476 2.31989
v 0.58827 1.86019 2.55084
v 0.50821 1.84383 2.81198
v 0.58827 1.86019 2.55084
v 0.62253 1.78654 3.00845
v 0.50892 1.86611 2.65458
v 0.65061 1.95624 3.09384
v 0.62301 2.02892 3.13936
v 0.54796 2.02551 3.13835
v 0.62301 2.02892 3.13936
v 0.54541 1.95980 3.10184
v 0.48952 2.41142 3.02330
v 0.61313 2.12875 3.13515
v 0.58405 2.12659 3.14447
v 0.56008 2.09201 3.14973
v 0.65061 1.95624 3.09384
v 0.62240 1.79793 3.02594
v 0.63929 1.87146 3.05427
v 0.58405 2.12659 3.14447
v 0.54630 2.07811 3.36934
v 0.56008 2.09201 3.14973
v 0.57142 1.89414 2.34757
v 0.51449 1.88298 2.52834
v 0.62240 1.79793 3.02594
v 0.51853 1.83492 3.04040
v 0.54325 2.08103 3.19141
v 0.53563 2.19093 3.18778
v 0.56008 2.09201 3.14973
v 0.54325 2.08103 3.19141
v 0.54796 2.02551 3.13835
v 0.51853 1.83492 3.04040
v 0.62240 1.79793 3.02594
v 0.51853 1.83492 3.04040
v 0.62253 1.78654 3.00845
v 0.51924 2.06550 3.36095
v 0.46576 2.55849 2.34456
v 0.54541 1.95980 3.10184
v 0.49914 2.36053 3.21910
v 0.53563 2.19093 3.18778
v 0.50568 2.19992 3.23841
v 0.58405 2.12659 3.14447
v 0.61313 2.12875 3.13515
v 0.49914 2.36053 3.21910
v 0.44136 2.23893 3.25204
v 0.51924 2.06550 3.36095
v 0.47581 2.03394 3.69020
v 0.61313 2.12875 3.13515
v 0.44136 2.23893 3.25204
v 0.53563 2.19093 3.18778
v 0.54630 2.07811 3.36934
v 0.48130 2.17146 3.45681
v 0.51533 2.05738 3.58666
v 0.47581 2.03394 3.69020
v 0.53563 2.19093 3.18778
v 0.44136 2.23893 3.25204
v 0.50568 2.19992 3.23841
v 0.50892 1.86611 2.65458
v 0.50821 1.84383 2.81198
v 0.41323 1.64553 3.02564
v 0.43760 2.25312 3.50929
v 0.46423 2.02989 3.99343
v 0.51533 2.05738 3.58666
v 0.46413 2.18247 3.49561
v 0.51853 1.83492 3.04040
v 0.50568 2.19992 3.23841
v 0.44136 2.23893 3.25204
v 0.46484 2.18296 3.27560
v 0.48130 2.17146 3.45681
v 0.50568 2.19992 3.23841
v 0.48084 2.19386 3.33739
v 0.46484 2.18296 3.27560
v 0.48084 2.19386 3.33739
v 0.50568 2.19992 3.23841
v 0.41500 1.62060 3.93985
v 0.48130 2.17146 3.45681
v 0.48084 2.19386 3.33739
v 0.46484 2.18296 3.27560
v 0.40759 1.56603 3.62559
v 0.46325 2.31767 3.30968
v 0.47184 2.29834 3.31710
v 0.46142 2.29825 3.30372
v 0.46325 2.31767 3.30968
v 0.45869 2.29632 3.41763
v 0.47184 2.29834 3.31710
v 0.46413 2.18247 3.49561
v 0.48130 2.17146 3.45681
v 0.44089 2.17660 3.46525
v 0.51449 1.88298 2.52834
v 0.47184 2.29834 3.31710
v 0.43760 2.25312 3.50929
v 0.40930 2.22530 3.31100
v 0.46413 2.18247 3.49561
v 0.40629 2.19794 3.46835
v 0.43760 2.25312 3.50929
v 0.29265 2.62830 2.36399
v 0.48952 2.41142 3.02330
v 0.46576 2.55849 2.34456
v 0.46484 2.18296 3.27560
v 0.36388 2.39821 3.28172
v 0.35069 2.26696 3.31400
v 0.45869 2.29632 3.41763
v 0.47184 2.29834 3.31710
v 0.40930 2.22530 3.31100
v 0.46142 2.29825 3.30372
v 0.40629 2.19794 3.46835
v 0.39345 2.36812 3.33356
v 0.41086 1.60426 3.33927
v 0.45869 2.29632 3.41763
v 0.37248 2.32977 3.60229
v 0.40930 2.22530 3.31100
v 0.40629 2.19794 3.46835
v 0.40640 1.74727 2.27029
v 0.40770 2.20572 3.32608
v 0.40629 2.19794 3.46835
v 0.40770 2.20572 3.32608
v 0.40930 2.22530 3.31100
v 0.35069 2.26696 3.31400
v 0.46142 2.29825 3.30372
v 0.41086 1.60426 3.33927
v 0.00707 1.67379 2.89721
v 0.41323 1.64553 3.02564
v 0.40770 2.20572 3.32608
v 0.40759 1.56603 3.62559
v 0.10014 1.56695 3.65608
v 0.36388 2.39821 3.28172
v 0.49914 2.36053 3.21910
v 0.35069 2.26696 3.31400
v 0.46325 2.31767 3.30968
v 0.32336 2.40334 3.38386
v 0.34795 2.33427 3.58281
v 0.31440 2.31535 3.33378
v 0.37248 2.32977 3.60229
v 0.24516 2.41528 3.35935
v 0.39345 2.36812 3.33356
v 0.31685 2.40310 3.35898
v 0.31685 2.40310 3.35898
v 0.24516 2.41528 3.35935
v 0.31964 2.37053 3.48618
v 0.31392 2.32957 3.60041
v 0.35069 2.26696 3.31400
v 0.24516 2.41528 3.35935
v 0.31440 2.31535 3.33378
v 0.13076 2.68484 2.38067
v 0.31964 2.37053 3.48618
v 0.32336 2.40334 3.38386
v 0.31685 2.40310 3.35898
v 0.28091 2.30922 3.36271
v 0.31440 2.31535 3.33378
v 0.24516 2.41528 3.35935
v 0.31392 2.32957 3.60041
v 0.31685 2.40310 3.35898
v 0.31440 2.31535 3.33378
v 0.28091 2.30922 3.36271
v 0.20849 2.32803 3.63408
v 0.25626 2.20876 3.40189
v 0.28091 2.30922 3.36271
v 0.26098 2.23218 3.38142
v 0.26267 2.21880 3.49897
v 0.35650 2.28979 3.82836
v 0.20849 2.32803 3.63408
v 0.31392 2.32957 3.60041
v 0.23253 2.26979 3.58828
v 0.26098 2.23218 3.38142
v 0.26267 2.21880 3.49897
v 0.21729 2.19245 3.51248
v 0.40640 1.74727 2.27029
v -0.03344 1.72448 2.52377
v 0.25626 2.20876 3.40189
v 0.12514 2.51150 3.03543
v 0.13457 2.42582 3.35388
v 0.25626 2.20876 3.40189
v 0.26098 2.23218 3.38142
v 0.21544 2.19346 3.39306
v 0.18261 2.17847 3.44400
v 0.21544 2.19346 3.39306
v 0.11351 2.26153 3.38199
v 0.17115 2.20560 3.53407
v 0.10545 2.32608 3.61076
v 0.21544 2.19346 3.39306
v 0.17045 2.19327 3.40526
v 0.18261 2.17847 3.44400
v 0.21544 2.19346 3.39306
v 0.26098 2.23218 3.38142
v 0.16382 2.23313 3.37631
v 0.02877 2.32950 3.62010
v 0.16382 2.23313 3.37631
v 0.21729 2.19245 3.51248
v 0.13569 2.19917 3.49069
v 0.14041 2.19309 3.44235
v 0.11906 2.26731 3.56822
v 0.13457 2.42582 3.35388
v 0.11351 2.26153 3.38199
v 0.10545 2.32608 3.61076
v 0.14041 2.19309 3.44235
v 0.11351 2.26153 3.38199
v 0.13569 2.19917 3.49069
v -0.15231 2.50475 2.67569
v 0.12564 1.57751 4.01333
v 0.03625 1.79242 3.96307
v 0.07663 2.32637 3.34537
v 0.10545 2.32608 3.61076
v 0.11906 2.26731 3.56822
v 0.05168 2.40338 3.36447
v 0.07663 2.32637 3.34537
v 0.04768 2.33131 3.59609
v 0.03721 2.40694 3.36796
v 0.10014 1.56695 3.65608
v -0.15500 1.88364 3.08188
v 0.05168 2.40338 3.36447
v -0.12456 2.37538 3.23019
v -0.12137 1.83306 3.04471
v 0.00707 1.67379 2.89721
v -0.06256 2.24654 3.26905
v -0.08435 2.31253 3.36158
v 0.02877 2.32950 3.62010
v 0.03721 2.40694 3.36796
v -0.06723 2.03674 3.82228
v -0.13995 2.07834 3.47487
v 0.00210 2.24389 3.32840
v 0.07663 2.32637 3.34537
v -0.08458 2.30000 3.35193
v 0.05168 2.40338 3.36447
v -0.03344 2.02434 3.78285
v 0.03721 2.40694 3.36796
v -0.03344 1.72448 2.52377
v -0.07502 2.18301 3.50331
v 0.00210 2.24389 3.32840
v 0.00632 2.19363 3.46833
v -0.03731 2.26343 3.53577
v -0.01935 2.21354 3.36796
v -0.03731 2.26343 3.53577
v 0.00632 2.19363 3.46833
v -0.07502 2.18301 3.50331
v -0.06723 2.03674 3.82228
v -0.03731 2.26343 3.53577
v -0.02759 2.22770 3.33990
v -0.01935 2.21354 3.36796
v -0.02759 2.22770 3.33990
v -0.11244 2.20487 3.23498
v -0.02759 2.22770 3.33990
v 0.00210 2.24389 3.32840
v -0.11244 2.20487 3.23498
v -0.13995 2.07834 3.47487
v -0.02759 2.22770 3.33990
v -0.11244 2.20487 3.23498
v -0.07870 2.04665 3.55183
v -0.08458 2.30000 3.35193
v 0.00632 2.19363 3.46833
v -0.08435 2.31253 3.36158
v -0.08458 2.30000 3.35193
v -0.03731 2.26343 3.53577
v -0.12456 2.37538 3.23019
v -0.07870 2.04665 3.55183
v -0.08435 2.31253 3.36158
v -0.07502 2.18301 3.50331
v -0.14273 2.20669 3.22665
v -0.16172 2.08341 3.19808
v -0.20989 2.20789 3.16871
v -0.16332 1.88293 2.72675
v -0.20989 2.20789 3.16871
v -0.15216 2.08089 3.41517
v -0.16172 2.08341 3.19808
v -0.14273 2.20669 3.22665
v -0.30214 2.07794 2.90412
v -0.12456 2.37538 3.23019
v -0.15231 2.50475 2.67569
v -0.17542 2.09458 3.29404
v -0.15216 2.08089 3.41517
v -0.19153 1.91729 2.49626
v -0.19713 2.14249 3.15587
v -0.16172 2.08341 3.19808
v -0.16952 2.02990 3.16498
v -0.15500 1.88364 3.08188
v -0.25484 1.78090 3.05466
v -0.12137 1.83306 3.04471
v -0.25170 1.98731 3.15869
v -0.19713 2.14249 3.15587
v -0.14273 2.20669 3.22665
v -0.20989 2.20789 3.16871
v -0.17542 2.09458 3.29404
v -0.16952 2.02990 3.16498
v -0.16172 2.08341 3.19808
v -0.19713 2.14249 3.15587
v -0.20022 2.01003 3.15404
v -0.26589 1.87687 2.53287
v -0.19153 1.91729 2.49626
v -0.16332 1.88293 2.72675
v -0.16952 2.02990 3.16498
v -0.20022 2.01003 3.15404
v -0.24386 2.42271 2.33746
v -0.19713 2.14249 3.15587
v -0.12137 1.83306 3.04471
v -0.25955 1.80370 2.90726
v -0.25273 2.14118 3.09096
v -0.20989 2.20789 3.16871
v -0.23124 2.10483 3.12840
v -0.26515 2.12180 3.06269
v -0.26535 1.88233 3.10524
v -0.25273 2.14118 3.09096
v -0.20022 2.01003 3.15404
v -0.25273 2.14118 3.09096
v -0.25344 2.00738 3.17853
v -0.25344 2.00738 3.17853
v -0.20757 1.93410 2.36069
v -0.23124 2.10483 3.12840
v -0.25273 2.14118 3.09096
v -0.20022 2.01003 3.15404
v -0.25484 1.78090 3.05466
v -0.25484 1.78090 3.05466
v -0.26499 1.79001 3.05049
v -0.25484 1.78090 3.05466
v -0.26499 1.79001 3.05049
v -0.25955 1.80370 2.90726
v -0.29364 2.06405 3.04877
v -0.25170 1.98731 3.15869
v -0.26589 1.87687 2.53287
v -0.25955 1.80370 2.90726
v -0.29877 2.11428 3.14433
v -0.29877 2.11428 3.14433
v -0.27597 1.95916 3.13246
v -0.25170 1.98731 3.15869
v -0.29945 2.10269 3.13271
v -0.26515 2.12180 3.06269
v -0.25344 2.00738 3.17853
v -0.29945 2.10269 3.13271
v -0.25170 1.98731 3.15869
v -0.27597 1.95916 3.13246
v -0.29877 2.11428 3.14433
v -0.29364 2.06405 3.04877
v -0.29945 2.10269 3.13271
v -0.33009 2.20191 2.30123
v -0.26499 1.79001 3.05049
v -0.29364 2.06405 3.04877
v 0.20138 2.16837 2.45544
v 0.57652 1.98026 2.16615
v 0.61484 2.18528 2.26656
v 0.50941 2.45476 2.31989
v 0.46576 2.55849 2.34456
v 0.29265 2.62830 2.36399
v 0.48952 2.41142 3.02330
v 0.13076 2.68484 2.38067
v -0.15231 2.50475 2.67569
v -0.24386 2.42271 2.33746
v -0.30214 2.07794 2.90412
v -0.33009 2.20191 2.30123
v -0.26589 1.87687 2.53287
v -0.20757 1.93410 2.36069
v -0.03344 1.72448 2.52377
v 0.40640 1.74727 2.27029
v 0.51449 1.88298 2.52834
v 0.57142 1.89414 2.34757
v 0.58827 1.86019 2.55084
v 0.22274 1.95011 3.76257
v 0.47581 2.03394 3.69020
v 0.51533 2.05738 3.58666
v 0.46423 2.02989 3.99343
v 0.37248 2.32977 3.60229
v 0.35650 2.28979 3.82836
v 0.02877 2.32950 3.62010
v -0.06723 2.03674 3.82228
v -0.03344 2.02434 3.78285
v -0.07870 2.04665 3.55183
v 0.03625 1.79242 3.96307
v 0.12564 1.57751 4.01333
v 0.10014 1.56695 3.65608
v 0.40759 1.56603 3.62559
v 0.41500 1.62060 3.93985
vt 0.69996 0.61622
vt 0.71700 0.60672
vt 0.70746 0.61822
vt 0.99566 0.00023
vt 0.99631 0.00077
vt 0.99514 0.00075
vt 0.87035 0.83835
vt 0.86913 0.83842
vt 0.86470 0.83724
vt 0.74876 0.90380
vt 0.74768 0.90079
vt 0.74876 0.90295
vt 0.00118 0.57049
vt 0.00323 0.56878
vt 0.00637 0.57063
vt 0.74600 0.90317
vt 0.44229 0.00383
vt 0.44347 0.00375
vt 0.44532 0.00531
vt 0.99408 0.05234
vt 0.99411 0.04950
vt 0.99693 0.04950
vt 0.99034 0.91698
vt 0.98977 0.91745
vt 0.98752 0.91703
vt 0.87346 0.83420
vt 0.86238 0.79369
vt 0.87317 0.79686
vt 0.86021 0.83567
vt 0.99522 0.05316
vt 0.99676 0.05300
vt 0.95082 0.00025
vt 0.95557 0.00025
vt 0.95169 0.00076
vt 0.99989 0.05112
vt 0.38044 0.00165
vt 0.38044 0.00539
vt 0.37950 0.00434
vt 0.31005 0.99790
vt 0.31005 0.99505
vt 0.31149 0.99565
vt 0.97346 0.00019
vt 0.97677 0.00078
vt 0.97240 0.00081
vt 0.74331 0.90578
vt 0.70606 0.90819
vt 0.70530 0.89392
vt 0.85981 0.81310
vt 0.93201 0.56374
vt 0.92746 0.57623
vt 0.92670 0.55367
vt 0.93165 0.57146
vt 0.03029 0.94269
vt 0.03300 0.93926
vt 0.03635 0.94068
vt 0.44044 0.00519
vt 0.03520 0.94415
vt 0.73892 0.88748
vt 0.03503 0.93482
vt 0.03639 0.93542
vt 0.03694 0.93740
vt 0.00037 0.10522
vt 0.00037 0.11370
vt 0.00013 0.10979
vt 0.08408 0.73714
vt 0.08554 0.72591
vt 0.08607 0.73661
vt 0.92789 0.58627
vt 0.93111 0.57762
vt 0.02870 0.95102
vt 0.03410 0.95095
vt 0.08676 0.73447
vt 0.04025 0.93323
vt 0.78929 0.52067
vt 0.78708 0.52028
vt 0.78939 0.51734
vt 0.93239 0.55264
vt 0.93308 0.00003
vt 0.93846 0.00050
vt 0.93270 0.00097
vt 0.08703 0.72612
vt 0.70518 0.88833
vt 0.79079 0.51397
vt 0.74876 0.88765
vt 0.20425 0.39074
vt 0.20163 0.39196
vt 0.20618 0.38674
vt 0.97803 0.56589
vt 0.98573 0.57660
vt 0.97903 0.57727
vt 0.77873 0.52036
vt 0.08743 0.70992
vt 0.00376 0.31648
vt 0.00376 0.30506
vt 0.00429 0.31105
vt 0.19488 0.38615
vt 0.19086 0.39185
vt 0.08590 0.71521
vt 0.76252 0.52046
vt 0.40455 0.99196
vt 0.40455 0.99797
vt 0.40320 0.99452
vt 0.81174 0.50616
vt 0.80402 0.50617
vt 0.79236 0.49691
vt 0.18850 0.39649
vt 0.16424 0.38736
vt 0.18417 0.38649
vt 0.18896 0.39280
vt 0.79298 0.50744
vt 0.40105 0.99989
vt 0.39942 0.99655
vt 0.40245 0.99746
vt 0.00365 0.03658
vt 0.00365 0.02582
vt 0.00440 0.03073
vt 0.50773 0.99749
vt 0.50485 0.99877
vt 0.50768 0.99469
vt 0.74816 0.50169
vt 0.00125 0.15763
vt 0.00227 0.16344
vt 0.00147 0.16648
vt 0.76297 0.49712
vt 0.77036 0.00323
vt 0.77036 0.00432
vt 0.76965 0.00391
vt 0.75054 0.04035
vt 0.75586 0.03973
vt 0.75116 0.04124
vt 0.24452 0.01443
vt 0.24362 0.01251
vt 0.24560 0.01289
vt 0.81793 0.50622
vt 0.48885 0.99229
vt 0.49857 0.99178
vt 0.49012 0.99679
vt 0.05955 0.99557
vt 0.06274 0.99557
vt 0.06121 0.99890
vt 0.74464 0.11496
vt 0.77965 0.11349
vt 0.74746 0.12363
vt 0.24438 0.00368
vt 0.98460 0.58398
vt 0.97813 0.58270
vt 0.49360 0.99100
vt 0.95639 0.00014
vt 0.96107 0.00014
vt 0.95676 0.00087
vt 0.24753 0.01335
vt 0.75085 0.03602
vt 0.77700 0.49705
vt 0.19338 0.39770
vt 0.18408 0.40147
vt 0.40133 0.99383
vt 0.49775 0.99535
vt 0.82938 0.49636
vt 0.40251 0.99360
vt 0.24758 0.01297
vt 0.24744 0.00605
vt 0.00316 0.60064
vt 0.00316 0.59714
vt 0.00753 0.60066
vt 0.69363 0.50290
vt 0.67205 0.52268
vt 0.67827 0.50290
vt 0.49114 0.99743
vt 0.70766 0.50295
vt 0.70924 0.51787
vt 0.78924 0.10333
vt 0.78912 0.11080
vt 0.39920 0.99105
vt 0.00836 0.60013
vt 0.75259 0.03184
vt 0.76284 0.03282
vt 0.00407 0.59419
vt 0.76398 0.03385
vt 0.79058 0.09652
vt 0.00842 0.59579
vt 0.00766 0.59158
vt 0.75134 0.03178
vt 0.98261 0.59063
vt 0.75781 0.03154
vt 0.76369 0.03115
vt 0.44769 0.99986
vt 0.43857 0.99986
vt 0.44460 0.99963
vt 0.74208 0.10699
vt 0.75141 0.98453
vt 0.75663 0.98456
vt 0.75776 0.98509
vt 0.08032 0.01821
vt 0.07822 0.01765
vt 0.08219 0.01310
vt 0.74551 0.98469
vt 0.28993 0.00319
vt 0.29437 0.00319
vt 0.29431 0.00536
vt 0.76494 0.02580
vt 0.75269 0.99383
vt 0.75612 0.98969
vt 0.75401 0.99306
vt 0.74838 0.99184
vt 0.77505 0.03227
vt 0.87568 0.12935
vt 0.86999 0.13482
vt 0.86691 0.12629
vt 0.08132 0.02205
vt 0.85518 0.12670
vt 0.85779 0.12201
vt 0.64125 0.50351
vt 0.65376 0.52478
vt 0.84474 0.13147
vt 0.77316 0.09622
vt 0.78849 0.09154
vt 0.99719 0.04084
vt 0.99788 0.04220
vt 0.99507 0.04128
vt 0.84694 0.12626
vt 0.84199 0.13033
vt 0.08850 0.02072
vt 0.86007 0.11619
vt 0.87488 0.12232
vt 0.85739 0.09845
vt 0.85905 0.10048
vt 0.85795 0.10501
vt 0.85785 0.09567
vt 0.85708 0.08914
vt 0.85816 0.09518
vt 0.76363 0.01714
vt 0.08604 0.02211
vt 0.85763 0.11328
vt 0.86076 0.11054
vt 0.86027 0.10465
vt 0.86730 0.11778
vt 0.08757 0.01262
vt 0.85959 0.09538
vt 0.76343 0.02089
vt 0.00776 0.71976
vt 0.01007 0.71576
vt 0.00892 0.72184
vt 0.75266 0.08805
vt 0.72424 0.61666
vt 0.72859 0.60595
vt 0.09064 0.01731
vt 0.01690 0.72507
vt 0.01343 0.72417
vt 0.01678 0.71227
vt 0.01277 0.71276
vt 0.76252 0.01813
vt 0.75084 0.01828
vt 0.74135 0.61983
vt 0.77261 0.60602
vt 0.75076 0.01902
vt 0.77938 0.08070
vt 0.77380 0.60927
vt 0.77884 0.62044
vt 0.09870 0.02041
vt 0.17650 0.14794
vt 0.17341 0.16132
vt 0.16913 0.14924
vt 0.18817 0.17144
vt 0.18802 0.15408
vt 0.09450 0.02117
vt 0.72518 0.00320
vt 0.73205 0.00717
vt 0.72373 0.00697
vt 0.44024 0.13413
vt 0.72415 0.00758
vt 0.79724 0.62097
vt 0.18205 0.15552
vt 0.73055 0.00225
vt 0.25359 0.99079
vt 0.25844 0.98902
vt 0.25338 0.99590
vt 0.00535 0.21671
vt 0.00018 0.21671
vt 0.00254 0.21308
vt 0.44175 0.13623
vt 0.17768 0.15694
vt 0.25369 0.99745
vt 0.98512 0.02626
vt 0.98659 0.02568
vt 0.99283 0.02795
vt 0.00201 0.02272
vt 0.00051 0.02359
vt 0.00087 0.01617
vt 0.42440 0.13670
vt 0.73224 0.00267
vt 0.10188 0.02201
vt 0.75045 0.59571
vt 0.25810 0.99840
vt 0.98012 0.02737
vt 0.00236 0.68555
vt 0.00166 0.68587
vt 0.00178 0.67648
vt 0.10168 0.01386
vt 0.42875 0.13419
vt 0.73163 0.00781
vt 0.98018 0.03170
vt 0.99382 0.02912
vt 0.76819 0.59570
vt 0.10749 0.02150
vt 0.78957 0.60925
vt 0.99774 0.03091
vt 0.42144 0.13666
vt 0.41103 0.13491
vt 0.18257 0.14165
vt 0.05738 0.87090
vt 0.03800 0.88313
vt 0.03832 0.85554
vt 0.18814 0.14510
vt 0.18819 0.15113
vt 0.80097 0.60937
vt 0.18656 0.13810
vt 0.02163 0.96988
vt 0.02148 0.97262
vt 0.01843 0.97877
vt 0.02989 0.98432
vt 0.01577 0.98143
vt 0.02539 0.97500
vt 0.48450 0.99439
vt 0.47916 0.99427
vt 0.48261 0.99169
vt 0.41541 0.13672
vt 0.99930 0.07534
vt 0.99694 0.07732
vt 0.99365 0.07517
vt 0.02347 0.97338
vt 0.59042 0.90870
vt 0.58636 0.91060
vt 0.58555 0.89922
vt 0.48627 0.99976
vt 0.48812 0.99971
vt 0.04701 0.83916
vt 0.40830 0.13774
vt 0.58434 0.88351
vt 0.59120 0.89019
vt 0.05327 0.88019
vt 0.04840 0.88412
vt 0.48728 0.99478
vt 0.05448 0.87894
vt 0.02887 0.97974
vt 0.48799 0.99213
vt 0.73836 0.99998
vt 0.73836 0.99247
vt 0.74120 0.99970
vt 0.02569 0.97407
vt 0.58688 0.91726
vt 0.50672 0.00054
vt 0.50929 0.00147
vt 0.50178 0.00134
vt 0.59130 0.88294
vt 0.03405 0.98192
vt 0.03358 0.98126
vt 0.00018 0.93423
vt 0.00083 0.93447
vt 0.00069 0.94146
vt 0.05663 0.87784
vt 0.05618 0.88405
vt 0.07267 0.85644
vt 0.07338 0.87032
vt 0.05367 0.88260
vt 0.74176 0.99385
vt 0.02722 0.97654
vt 0.00051 0.52374
vt 0.00612 0.52112
vt 0.00855 0.52417
vt 0.00193 0.99412
vt 0.00745 0.99509
vt 0.00126 0.99531
vt 0.05743 0.88339
vt 0.00780 0.99438
vt 0.06178 0.87674
vt 0.05434 0.88239
vt 0.05897 0.84064
vt 0.07549 0.87476
vt 0.03170 0.97311
vt 0.90329 0.98944
vt 0.90329 0.98944
vt 0.90329 0.98944
vt 0.90329 0.98944
vt 0.90329 0.98944
vt 0.90329 0.98944
vt 0.90329 0.98944
vt 0.90329 0.98944
vt 0.90329 0.98944
vt 0.90329 0.98944
vt 0.90329 0.98944
vt 0.90329 0.98944
vt 0.90329 0.98944
vt 0.90329 0.98944
vt 0.90329 0.98944
vt 0.90329 0.98944
vt 0.90329 0.98944
vt 0.90329 0.98944
vt 0.90329 0.98944
vt 0.08743 0.70992
vt 0.08743 0.70992
vt 0.08743 0.70992
vt 0.08743 0.70992
vt 0.08743 0.70992
vt 0.08743 0.70992
vt 0.08743 0.70992
vt 0.08743 0.70992
vt 0.08743 0.70992
vt 0.08743 0.70992
vt 0.08743 0.70992
vt 0.08743 0.70992
vt 0.08743 0.70992
vt 0.08743 0.70992
vt 0.08743 0.70992
vn -0.7769 -0.6296 -0.0027
vn -0.7706 -0.6373 0.0037
vn -0.7741 -0.6329 0.0131
vn 0.5979 0.1493 0.7875
vn 0.5979 0.1493 0.7875
vn 0.5979 0.1493 0.7875
vn 0.9863 -0.0736 -0.1475
vn 0.9268 0.0500 -0.3722
vn 0.8398 0.1205 -0.5293
vn 0.7728 0.5937 -0.2244
vn 0.8752 0.4835 -0.0178
vn 0.6973 0.4940 -0.5194
vn 0.6324 0.5325 0.5626
vn 0.6324 0.5325 0.5626
vn 0.6324 0.5325 0.5626
vn 0.7610 0.6334 -0.1404
vn -0.3684 0.0402 0.9288
vn -0.0593 0.2176 0.9742
vn -0.3085 0.0772 0.9481
vn 0.8545 -0.3891 -0.3440
vn 0.7601 -0.4604 -0.4585
vn 0.9883 0.0146 -0.1517
vn 0.7928 -0.5205 0.3170
vn 0.7928 -0.5205 0.3170
vn 0.7928 -0.5205 0.3170
vn 0.9911 -0.1020 -0.0852
vn 0.9866 -0.1451 -0.0750
vn 0.9862 -0.1494 -0.0712
vn 0.9902 -0.0951 -0.1024
vn 0.9706 -0.1778 -0.1623
vn 0.9788 0.2018 0.0362
vn 0.9362 -0.2911 0.1971
vn 0.9362 -0.2911 0.1971
vn 0.9362 -0.2911 0.1971
vn 0.8938 0.4392 0.0906
vn 0.3499 -0.7822 0.5154
vn 0.3499 -0.7822 0.5154
vn 0.3499 -0.7822 0.5154
vn 0.8461 0.0150 0.5327
vn 0.8461 0.0150 0.5327
vn 0.8461 0.0150 0.5327
vn 0.7844 -0.0867 0.6142
vn 0.7844 -0.0867 0.6142
vn 0.7844 -0.0867 0.6142
vn 0.9090 0.4152 0.0369
vn 0.9323 0.3614 0.0165
vn 0.9254 0.3772 0.0368
vn 0.9531 -0.2795 -0.1163
vn -0.2781 -0.9535 -0.1165
vn -0.2522 -0.9577 -0.1384
vn -0.3807 -0.9235 -0.0478
vn -0.2509 -0.9582 -0.1373
vn 0.0282 -0.4627 0.8861
vn 0.0539 -0.3271 0.9434
vn 0.0163 -0.3592 0.9331
vn -0.4391 -0.0055 0.8984
vn 0.0512 -0.4679 0.8823
vn 0.9082 0.4149 0.0547
vn 0.2747 -0.0997 0.9564
vn 0.3128 -0.2161 0.9249
vn 0.1562 -0.0373 0.9870
vn 0.5907 -0.4047 0.6981
vn 0.5907 -0.4047 0.6981
vn 0.5907 -0.4047 0.6981
vn 0.8228 -0.5681 0.0157
vn 0.4574 -0.8889 -0.0239
vn 0.7796 -0.6262 0.0093
vn -0.2534 -0.9573 -0.1389
vn -0.2534 -0.9573 -0.1390
vn -0.0117 -0.3924 0.9197
vn 0.0102 -0.4123 0.9110
vn 0.5014 -0.8649 -0.0228
vn 0.3092 -0.3599 0.8803
vn 0.9231 -0.2219 0.3142
vn 0.9710 -0.1320 0.1992
vn 0.9340 -0.2022 0.2945
vn -0.4258 -0.9047 -0.0160
vn -0.2175 -0.8186 0.5315
vn -0.2175 -0.8186 0.5315
vn -0.2175 -0.8186 0.5315
vn 0.4287 -0.9031 -0.0257
vn 0.9247 0.3775 0.0494
vn 0.9815 -0.1648 0.0978
vn 0.9046 0.4213 0.0650
vn 0.8355 0.3362 0.4347
vn 0.8329 0.4901 0.2569
vn 0.8170 0.4956 0.2948
vn 0.5475 -0.0336 0.8361
vn 0.4829 0.0078 0.8757
vn 0.5261 0.0310 0.8498
vn 0.9900 -0.0637 0.1260
vn 0.5234 -0.8521 0.0064
vn -0.5653 -0.0061 -0.8249
vn -0.5653 -0.0061 -0.8249
vn -0.5653 -0.0061 -0.8249
vn 0.8584 0.4780 0.1862
vn 0.8896 0.3750 0.2608
vn 0.4846 -0.8746 -0.0131
vn 0.9898 -0.0701 0.1240
vn 0.5373 0.8258 0.1713
vn 0.5373 0.8258 0.1713
vn 0.5373 0.8258 0.1713
vn 0.9023 -0.4304 -0.0232
vn 0.8718 -0.4858 -0.0634
vn 0.8723 -0.4854 -0.0591
vn 0.8912 0.3915 0.2291
vn 0.8853 0.4500 0.1172
vn 0.8931 0.4287 0.1361
vn 0.9146 0.3991 0.0647
vn 0.9171 -0.3983 -0.0169
vn 0.4595 0.5014 0.7332
vn 0.5987 0.5636 0.5691
vn 0.5860 0.4983 0.6390
vn 0.4384 0.8837 0.1641
vn 0.4384 0.8837 0.1641
vn 0.4384 0.8837 0.1641
vn -0.4219 0.9052 -0.0505
vn -0.4219 0.9052 -0.0505
vn -0.4219 0.9052 -0.0505
vn 0.9626 -0.2634 0.0632
vn -0.8140 0.5703 0.1101
vn -0.8140 0.5703 0.1101
vn -0.8140 0.5703 0.1101
vn 0.9398 -0.3409 0.0240
vn 0.7836 0.1137 -0.6108
vn 0.7836 0.1137 -0.6108
vn 0.7836 0.1137 -0.6108
vn 0.7518 0.6401 0.1583
vn 0.5956 0.7816 0.1853
vn 0.8880 0.4425 0.1250
vn 0.2098 0.9175 -0.3379
vn 0.1146 0.9919 -0.0553
vn 0.3408 0.9226 -0.1806
vn 0.8565 -0.5114 -0.0698
vn 0.8008 -0.5989 0.0017
vn 0.8701 -0.4923 -0.0226
vn 0.8864 -0.4625 -0.0175
vn 0.4735 0.3356 -0.8144
vn 0.4735 0.3356 -0.8144
vn 0.4735 0.3356 -0.8144
vn 0.3596 0.9129 0.1929
vn 0.3250 0.9218 0.2112
vn 0.3853 0.9046 0.1825
vn 0.3710 0.9253 0.0779
vn 0.5295 0.1145 0.8405
vn 0.5765 0.1400 0.8050
vn 0.9693 -0.2134 0.1224
vn 0.6706 -0.5307 -0.5183
vn 0.6706 -0.5307 -0.5183
vn 0.6706 -0.5307 -0.5183
vn 0.4299 0.7664 -0.4773
vn 0.5698 0.8002 0.1872
vn 0.8759 -0.4794 -0.0545
vn 0.8795 0.3193 0.3529
vn 0.8635 0.4609 0.2050
vn 0.6328 0.5721 0.5218
vn 0.8972 -0.4378 -0.0589
vn 0.8471 -0.5256 -0.0785
vn 0.6906 0.4053 0.5990
vn 0.5276 0.8479 0.0516
vn 0.4448 0.8920 0.0806
vn -0.0807 -0.0417 -0.9959
vn -0.1361 0.1759 -0.9750
vn -0.1506 0.2162 -0.9647
vn -0.0212 -0.9907 -0.1343
vn -0.0261 -0.9908 -0.1324
vn -0.0271 -0.9910 -0.1314
vn 0.9970 -0.0770 0.0057
vn -0.0088 -0.9983 -0.0581
vn -0.0094 -0.9986 -0.0528
vn 0.2720 0.9452 0.1805
vn 0.3546 0.9091 0.2188
vn 0.5315 0.7149 0.4544
vn -0.1720 0.2791 -0.9447
vn 0.4916 0.8650 0.1006
vn 0.1555 0.9689 0.1922
vn -0.1579 0.2741 -0.9486
vn 0.0968 0.9916 0.0859
vn 0.1780 0.9560 0.2332
vn -0.2997 0.0366 -0.9533
vn -0.1705 0.2568 -0.9513
vn 0.3829 0.9174 -0.1086
vn 0.5561 0.1454 0.8183
vn 0.1451 0.9396 0.3101
vn 0.0068 0.9914 0.1308
vn 0.8176 0.4887 0.3044
vn 0.8176 0.4887 0.3044
vn 0.8176 0.4887 0.3044
vn -0.0065 0.9733 0.2293
vn -0.8059 0.5691 0.1634
vn -0.7297 0.6584 0.1846
vn -0.9039 0.4048 0.1383
vn 0.4484 0.1789 0.8758
vn 0.6117 0.2302 0.7568
vn 0.1298 0.1666 0.9774
vn -0.9344 0.3486 0.0728
vn -0.6603 0.2243 -0.7167
vn -0.6603 0.2243 -0.7167
vn -0.6603 0.2243 -0.7167
vn 0.0033 0.9851 0.1717
vn -0.9395 0.3304 0.0902
vn -0.8782 0.3448 0.3315
vn -0.9591 0.2693 0.0871
vn -0.9137 0.4059 0.0183
vn 0.0074 0.9850 0.1723
vn -0.0072 0.6163 -0.7875
vn -0.3661 0.6141 -0.6992
vn -0.1716 0.6442 -0.7453
vn 0.0788 0.0838 0.9934
vn -0.5438 0.7865 -0.2928
vn -0.3973 0.8312 -0.3889
vn -0.0255 -0.9908 -0.1332
vn -0.0260 -0.9908 -0.1327
vn -0.4066 0.9136 0.0032
vn -0.1377 0.9560 0.2589
vn -0.0831 0.9636 0.2541
vn -0.3854 0.6500 0.6549
vn -0.3854 0.6500 0.6549
vn -0.3854 0.6500 0.6549
vn -0.3743 0.9272 0.0122
vn -0.3589 0.9324 0.0430
vn -0.1297 0.1078 0.9857
vn 0.1816 0.7970 -0.5760
vn 0.1456 0.6097 -0.7792
vn 0.0860 0.9394 0.3317
vn 0.3155 0.7884 0.5281
vn 0.2254 0.9732 0.0451
vn 0.0371 0.4292 0.9025
vn -0.0461 0.3368 0.9404
vn 0.2830 0.5507 0.7853
vn 0.0820 0.9824 0.1679
vn -0.0531 -0.2853 0.9570
vn 0.1497 0.9520 -0.2670
vn 0.2974 0.9028 -0.3107
vn 0.4269 0.8843 0.1892
vn 0.2664 0.6290 -0.7304
vn -0.2528 0.1763 0.9513
vn 0.5037 0.6238 0.5976
vn 0.0255 0.9993 -0.0274
vn 0.9175 0.3957 0.0398
vn 0.9317 0.3546 -0.0781
vn 0.9531 0.3021 -0.0172
vn -0.3288 0.9144 0.2362
vn -0.9171 -0.3783 0.1261
vn -0.9542 -0.2506 0.1637
vn -0.5433 0.2578 0.7990
vn 0.9454 0.3216 -0.0522
vn 0.9782 0.2056 0.0291
vn 0.9151 0.3834 -0.1253
vn 0.8945 0.3566 -0.2695
vn 0.1298 0.9603 0.2468
vn 0.2511 0.9366 0.2443
vn -0.8320 -0.5506 0.0671
vn -0.9069 -0.4041 0.1195
vn 0.2843 0.9307 0.2301
vn -0.2911 0.9284 0.2312
vn -0.7906 -0.6121 0.0184
vn -0.7776 -0.6288 0.0018
vn -0.5857 0.1333 0.7995
vn -0.6746 0.6947 0.2496
vn -0.8343 0.4852 0.2618
vn -0.6061 0.7658 0.2149
vn -0.8705 0.4414 0.2177
vn -0.8658 0.4448 0.2293
vn -0.6155 0.3846 0.6879
vn -0.0780 0.2356 -0.9687
vn -0.2378 0.3348 -0.9118
vn -0.1076 0.2583 -0.9601
vn -0.3781 -0.9255 -0.0238
vn -0.1596 0.3217 -0.9333
vn -0.7742 -0.6329 0.0005
vn -0.8612 0.4675 0.1996
vn -0.1755 0.1376 -0.9748
vn -0.8038 -0.5882 0.0889
vn -0.8038 -0.5898 0.0784
vn -0.8777 -0.4768 0.0478
vn -0.3966 0.4974 -0.7715
vn -0.3966 0.4974 -0.7715
vn -0.3966 0.4974 -0.7715
vn -0.3628 -0.9317 -0.0178
vn -0.8504 0.2909 0.4383
vn -0.8234 -0.5641 0.0621
vn -0.5373 0.7781 0.3253
vn -0.7185 0.5131 0.4695
vn -0.0367 0.9949 0.0942
vn -0.4273 0.8913 0.1517
vn -0.4273 0.8913 0.1517
vn -0.4273 0.8913 0.1517
vn -0.5149 -0.8552 0.0598
vn -0.3157 -0.0917 -0.9444
vn -0.5762 0.0217 0.8170
vn -0.9719 -0.1286 0.1972
vn -0.7769 -0.6250 0.0755
vn -0.1508 0.9808 0.1240
vn -0.9643 -0.1501 0.2181
vn -0.9643 -0.1501 0.2181
vn -0.9643 -0.1501 0.2181
vn -0.4969 0.0226 0.8675
vn -0.4665 -0.8844 0.0101
vn -0.3997 0.5636 -0.7229
vn -0.0801 0.9925 0.0920
vn 0.0683 0.9972 -0.0301
vn -0.9653 -0.1549 0.2104
vn -0.5601 -0.0154 0.8283
vn -0.7724 -0.6351 0.0015
vn 0.0796 0.9943 -0.0716
vn -0.4533 -0.8912 0.0159
vn -0.7907 -0.6105 -0.0448
vn -0.8702 0.4200 0.2575
vn -0.9904 0.1221 0.0654
vn -0.9061 0.4027 0.1294
vn -0.9085 0.3912 0.1470
vn -0.8866 0.3991 0.2339
vn -0.9051 0.3732 0.2038
vn -0.7733 -0.6341 0.0001
vn -0.8625 0.4207 0.2814
vn -0.1741 -0.4994 0.8487
vn -0.1271 -0.4995 0.8570
vn 0.0377 -0.5632 0.8254
vn 0.2157 -0.4422 0.8706
vn 0.2202 -0.4526 0.8641
vn 0.1888 -0.5165 0.8352
vn -0.6847 -0.1229 0.7184
vn -0.6324 -0.2661 0.7275
vn -0.6691 -0.2666 0.6937
vn -0.6165 -0.7874 0.0037
vn -0.8598 -0.1719 0.4808
vn -0.8598 -0.1719 0.4808
vn -0.8598 -0.1719 0.4808
vn 0.1515 -0.4854 0.8610
vn 0.4013 -0.8987 -0.1766
vn 0.4053 -0.8985 -0.1687
vn 0.3951 -0.8999 -0.1845
vn -0.3326 -0.0052 0.9431
vn -0.4271 -0.0025 0.9042
vn -0.9094 0.3870 0.1523
vn -0.8381 -0.5427 -0.0564
vn 0.3652 -0.9150 -0.1716
vn 0.3770 -0.9084 -0.1807
vn -0.8324 0.5540 -0.0146
vn -0.9021 0.4046 0.1500
vn -0.6906 0.1037 0.7157
vn -0.8730 0.4776 0.0990
vn -0.4928 -0.4088 0.7681
vn -0.7592 -0.0137 0.6507
vn 0.3371 0.5143 0.7886
vn 0.4836 0.4775 0.7336
vn 0.3949 0.5016 0.7697
vn 0.3460 -0.6439 0.6825
vn 0.4095 -0.8982 -0.1598
vn -0.9225 -0.2152 0.3205
vn -0.9225 -0.2152 0.3205
vn -0.9225 -0.2152 0.3205
vn 0.3496 -0.9241 -0.1541
vn -0.6305 -0.3977 0.6666
vn -0.7348 -0.3552 0.5778
vn -0.6429 -0.7598 -0.0970
vn -0.6429 -0.7598 -0.0970
vn -0.6429 -0.7598 -0.0970
vn -0.8775 0.3510 0.3269
vn -0.8271 0.2610 0.4978
vn -0.9839 -0.1788 0.0008
vn -0.9875 -0.1538 -0.0347
vn -0.8208 0.4904 -0.2929
vn 0.5469 0.4564 0.7019
vn -0.8033 -0.2681 0.5319
vn -0.7615 -0.4254 -0.4891
vn -0.7615 -0.4254 -0.4891
vn -0.7615 -0.4254 -0.4891
vn -0.9134 -0.3199 0.2516
vn -0.9041 -0.2820 0.3211
vn -0.9139 -0.3228 0.2462
vn -0.8306 0.2551 0.4950
vn -0.9025 -0.2773 0.3295
vn -0.9934 -0.1036 0.0485
vn -0.8687 0.3754 -0.3232
vn -0.9903 0.1201 0.0706
vn -0.9902 -0.1384 -0.0207
vn -0.9914 -0.1032 0.0800
vn 0.0000 1.0000 0.0000
vn 0.0000 1.0000 0.0000
vn 0.0000 1.0000 0.0000
vn 0.0000 1.0000 0.0000
vn 0.0000 1.0000 0.0000
vn 0.0000 1.0000 0.0000
vn 0.0000 1.0000 0.0000
vn 0.0000 1.0000 0.0000
vn 0.0000 1.0000 0.0000
vn 0.0000 1.0000 0.0000
vn 0.0000 1.0000 0.0000
vn 0.0000 1.0000 0.0000
vn 0.0000 1.0000 0.0000
vn 0.0000 1.0000 0.0000
vn 0.0000 1.0000 0.0000
vn 0.0000 1.0000 0.0000
vn 0.0000 1.0000 0.0000
vn 0.0000 1.0000 0.0000
vn 0.0000 1.0000 0.0000
vn 0.0000 1.0000 0.0000
vn 0.0000 1.0000 0.0000
vn 0.0000 1.0000 0.0000
vn 0.0000 1.0000 0.0000
vn 0.0000 1.0000 0.0000
vn 0.0000 1.0000 0.0000
vn 0.0000 1.0000 0.0000
vn 0.0000 1.0000 0.0000
vn 0.0000 1.0000 0.0000
vn 0.0000 1.0000 0.0000
vn 0.0000 1.0000 0.0000
vn 0.0000 1.0000 0.0000
vn 0.0000 1.0000 0.0000
vn 0.0000 1.0000 0.0000
vn 0.0000 1.0000 0.0000
f 4/4/4 5/5/5 6/6/6
f 7/7/7 8/8/8 9/9/9
f 10/10/10 11/11/11 12/12/12
f 13/13/13 14/14/14 15/15/15
f 10/10/10 16/16/16 11/11/11
f 17/17/17 18/18/18 19/19/19
f 20/20/20 21/21/21 22/22/22
f 23/23/23 24/24/24 25/25/25
f 26/26/26 27/27/27 28/28/28
f 7/7/7 9/9/9 29/29/29
f 26/26/26 29/29/29 27/27/27
f 22/22/22 30/30/30 20/20/20
f 22/22/22 31/31/31 30/30/30
f 32/32/32 33/33/33 34/34/34
f 26/26/26 7/7/7 29/29/29
f 22/22/22 35/35/35 31/31/31
f 36/36/36 37/37/37 38/38/38
f 39/39/39 40/40/40 41/41/41
f 42/42/42 43/43/43 44/44/44
f 45/45/45 46/46/46 47/47/47
f 27/27/27 29/29/29 48/48/48
f 49/49/49 50/50/50 51/51/51
f 50/50/50 49/49/49 52/52/52
f 53/53/53 54/54/54 55/55/55
f 16/16/16 45/45/45 11/11/11
f 17/17/17 19/19/19 56/56/56
f 53/53/53 55/55/55 57/57/57
f 47/47/47 58/58/58 45/45/45
f 59/59/59 60/60/60 61/61/61
f 62/62/62 63/63/63 64/64/64
f 54/54/54 59/59/59 61/61/61
f 65/65/65 66/66/66 67/67/67
f 68/68/68 50/50/50 69/69/69
f 11/11/11 45/45/45 58/58/58
f 61/61/61 55/55/55 54/54/54
f 70/70/70 53/53/53 71/71/71
f 66/66/66 72/72/72 67/67/67
f 59/59/59 73/73/73 60/60/60
f 53/53/53 57/57/57 71/71/71
f 74/74/74 75/75/75 76/76/76
f 77/77/77 49/49/49 51/51/51
f 78/78/78 79/79/79 80/80/80
f 66/66/66 81/81/81 72/72/72
f 58/58/58 47/47/47 82/82/82
f 83/83/83 76/76/76 75/75/75
f 11/11/11 58/58/58 84/84/84
f 85/85/85 86/86/86 87/87/87
f 88/88/88 89/89/89 90/90/90
f 83/83/83 75/75/75 91/91/91
f 69/69/69 50/50/50 52/52/52
f 92/92/92 81/81/81 66/66/66
f 93/93/93 94/94/94 95/95/95
f 96/96/96 86/86/86 97/97/97
f 92/92/92 66/66/66 98/98/98
f 91/91/91 99/99/99 83/83/83
f 100/100/100 101/101/101 102/102/102
f 103/103/103 104/104/104 105/105/105
f 106/106/106 107/107/107 108/108/108
f 109/109/109 96/96/96 97/97/97
f 105/105/105 104/104/104 110/110/110
f 87/87/87 86/86/86 96/96/96
f 111/111/111 112/112/112 113/113/113
f 114/114/114 115/115/115 116/116/116
f 109/109/109 108/108/108 96/96/96
f 117/117/117 118/118/118 119/119/119
f 108/108/108 109/109/109 106/106/106
f 99/99/99 120/120/120 83/83/83
f 121/121/121 122/122/122 123/123/123
f 120/120/120 124/124/124 110/110/110
f 125/125/125 126/126/126 127/127/127
f 128/128/128 129/129/129 130/130/130
f 131/131/131 132/132/132 133/133/133
f 120/120/120 110/110/110 83/83/83
f 134/134/134 103/103/103 105/105/105
f 135/135/135 136/136/136 137/137/137
f 138/138/138 139/139/139 140/140/140
f 141/141/141 142/142/142 143/143/143
f 132/132/132 144/144/144 133/133/133
f 90/90/90 145/145/145 146/146/146
f 147/147/147 136/136/136 135/135/135
f 148/148/148 149/149/149 150/150/150
f 133/133/133 151/151/151 131/131/131
f 152/152/152 129/129/129 128/128/128
f 124/124/124 153/153/153 110/110/110
f 106/106/106 154/154/154 155/155/155
f 156/156/156 113/113/113 112/112/112
f 137/137/137 136/136/136 157/157/157
f 134/134/134 105/105/105 158/158/158
f 156/156/156 159/159/159 113/113/113
f 110/110/110 153/153/153 105/105/105
f 160/160/160 133/133/133 161/161/161
f 161/161/161 133/133/133 144/144/144
f 90/90/90 89/89/89 145/145/145
f 162/162/162 163/163/163 164/164/164
f 165/165/165 166/166/166 167/167/167
f 137/137/137 157/157/157 168/168/168
f 169/169/169 170/170/170 165/165/165
f 106/106/106 155/155/155 107/107/107
f 142/142/142 171/171/171 172/172/172
f 156/156/156 112/112/112 173/173/173
f 164/164/164 163/163/163 174/174/174
f 175/175/175 129/129/129 152/152/152
f 129/129/129 175/175/175 176/176/176
f 163/163/163 177/177/177 174/174/174
f 176/176/176 178/178/178 129/129/129
f 171/171/171 142/142/142 179/179/179
f 180/180/180 174/174/174 181/181/181
f 175/175/175 152/152/152 182/182/182
f 145/145/145 183/183/183 146/146/146
f 175/175/175 184/184/184 176/176/176
f 185/185/185 178/178/178 176/176/176
f 184/184/184 185/185/185 176/176/176
f 177/177/177 181/181/181 174/174/174
f 186/186/186 187/187/187 188/188/188
f 190/190/190 191/191/191 192/192/192
f 193/193/193 194/194/194 195/195/195
f 190/190/190 192/192/192 196/196/196
f 197/197/197 198/198/198 199/199/199
f 178/178/178 185/185/185 200/200/200
f 201/201/201 192/192/192 202/202/202
f 201/201/201 196/196/196 192/192/192
f 203/203/203 201/201/201 202/202/202
f 201/201/201 204/204/204 196/196/196
f 205/205/205 178/178/178 200/200/200
f 206/206/206 207/207/207 208/208/208
f 195/195/195 209/209/209 193/193/193
f 210/210/210 211/211/211 207/207/207
f 212/212/212 167/167/167 213/213/213
f 165/165/165 170/170/170 166/166/166
f 214/214/214 211/211/211 210/210/210
f 179/179/179 215/215/215 216/216/216
f 217/217/217 218/218/218 219/219/219
f 208/208/208 207/207/207 211/211/211
f 220/220/220 214/214/214 221/221/221
f 222/222/222 209/209/209 195/195/195
f 211/211/211 214/214/214 220/220/220
f 189/189/189 179/179/179 142/142/142
f 223/223/223 208/208/208 211/211/211
f 208/208/208 223/223/223 224/224/224
f 225/225/225 226/226/226 227/227/227
f 228/228/228 229/229/229 230/230/230
f 224/224/224 206/206/206 208/208/208
f 232/232/232 209/209/209 222/222/222
f 233/233/233 227/227/227 234/234/234
f 227/227/227 226/226/226 235/235/235
f 230/230/230 226/226/226 228/228/228
f 234/234/234 223/223/223 233/233/233
f 223/223/223 236/236/236 224/224/224
f 234/234/234 227/227/227 235/235/235
f 222/222/222 195/195/195 237/237/237
f 215/215/215 179/179/179 189/189/189
f 226/226/226 230/230/230 238/238/238
f 223/223/223 234/234/234 236/236/236
f 238/238/238 235/235/235 226/226/226
f 205/205/205 200/200/200 231/231/231
f 200/200/200 239/239/239 231/231/231
f 240/240/240 241/241/241 242/242/242
f 215/215/215 243/243/243 216/216/216
f 167/167/167 166/166/166 213/213/213
f 246/246/246 222/222/222 237/237/237
f 242/242/242 247/247/247 248/248/248
f 247/247/247 241/241/241 249/249/249
f 241/241/241 250/250/250 249/249/249
f 247/247/247 242/242/242 241/241/241
f 231/231/231 239/239/239 251/251/251
f 252/252/252 251/251/251 239/239/239
f 253/253/253 244/244/244 254/254/254
f 239/239/239 255/255/255 252/252/252
f 216/216/216 243/243/243 256/256/256
f 251/251/251 252/252/252 231/231/231
f 257/257/257 258/258/258 253/253/253
f 237/237/237 259/259/259 246/246/246
f 260/260/260 261/261/261 262/262/262
f 253/253/253 254/254/254 257/257/257
f 261/261/261 264/264/264 263/263/263
f 246/246/246 259/259/259 265/265/265
f 243/243/243 215/215/215 189/189/189
f 266/266/266 267/267/267 268/268/268
f 267/267/267 270/270/270 268/268/268
f 258/258/258 257/257/257 271/271/271
f 261/261/261 272/272/272 264/264/264
f 266/266/266 273/273/273 267/267/267
f 274/274/274 275/275/275 276/276/276
f 277/277/277 278/278/278 279/279/279
f 261/261/261 260/260/260 281/281/281
f 275/275/275 282/282/282 276/276/276
f 283/283/283 284/284/284 285/285/285
f 286/286/286 287/287/287 288/288/288
f 289/289/289 269/269/269 280/280/280
f 273/273/273 290/290/290 267/267/267
f 259/259/259 291/291/291 265/265/265
f 261/261/261 281/281/281 272/272/272
f 293/293/293 282/282/282 275/275/275
f 285/285/285 294/294/294 283/283/283
f 295/295/295 296/296/296 297/297/297
f 254/254/254 244/244/244 245/245/245
f 254/254/254 245/245/245 292/292/292
f 259/259/259 237/237/237 298/298/298
f 269/269/269 289/289/289 299/299/299
f 270/270/270 267/267/267 300/300/300
f 301/301/301 294/294/294 285/285/285
f 301/301/301 285/285/285 302/302/302
f 303/303/303 254/254/254 292/292/292
f 304/304/304 259/259/259 298/298/298
f 304/304/304 291/291/291 259/259/259
f 305/305/305 271/271/271 257/257/257
f 285/285/285 306/306/306 302/302/302
f 307/307/307 308/308/308 299/299/299
f 272/272/272 309/309/309 264/264/264
f 307/307/307 299/299/299 289/289/289
f 310/310/310 311/311/311 312/312/312
f 309/309/309 313/313/313 314/314/314
f 309/309/309 314/314/314 264/264/264
f 305/305/305 315/315/315 271/271/271
f 309/309/309 316/316/316 313/313/313
f 317/317/317 318/318/318 319/319/319
f 320/320/320 321/321/321 322/322/322
f 323/323/323 324/324/324 325/325/325
f 307/307/307 326/326/326 308/308/308
f 327/327/327 328/328/328 329/329/329
f 318/318/318 330/330/330 319/319/319
f 331/331/331 332/332/332 333/333/333
f 334/334/334 323/323/323 335/335/335
f 308/308/308 326/326/326 337/337/337
f 333/333/333 338/338/338 339/339/339
f 322/322/322 321/321/321 319/319/319
f 330/330/330 322/322/322 319/319/319
f 340/340/340 341/341/341 311/311/311
f 2/2/2 3/3/3 1/1/1
f 323/323/323 342/342/342 335/335/335
f 310/310/310 340/340/340 311/311/311
f 340/340/340 310/310/310 343/343/343
f 322/322/322 344/344/344 320/320/320
f 323/323/323 345/345/345 342/342/342
f 346/346/346 347/347/347 348/348/348
f 325/325/325 345/345/345 323/323/323
f 330/330/330 349/349/349 322/322/322
f 333/333/333 339/339/339 331/331/331
f 350/350/350 332/332/332 331/331/331
f 351/351/351 352/352/352 353/353/353
f 354/354/354 339/339/339 338/338/338
f 310/310/310 312/312/312 336/336/336
f 355/355/355 344/344/344 356/356/356
f 357/357/357 358/358/358 359/359/359
f 343/343/343 360/360/360 361/361/361
f 310/310/310 362/362/362 363/363/363
f 340/340/340 343/343/343 364/364/364
f 347/347/347 365/365/365 348/348/348
f 363/363/363 378/378/378 310/310/310
f 322/322/322 366/366/366 344/344/344
f 367/367/367 368/368/368 369/369/369
f 356/356/356 344/344/344 366/366/366
f 370/370/370 371/371/371 372/372/372
f 373/373/373 361/361/361 360/360/360
f 370/370/370 374/374/374 371/371/371
f 375/375/375 310/310/310 378/378/378
f 376/376/376 364/364/364 343/343/343
f 360/360/360 343/343/343 310/310/310
f 379/379/379 356/356/356 366/366/366
f 310/310/310 377/377/377 362/362/362
f 380/380/380 381/381/381 382/382/382
f 380/380/380 382/382/382 381/381/381
f 380/380/380 382/382/382 383/383/383
f 380/380/380 383/383/383 382/382/382
f 380/380/380 383/383/383 384/384/384
f 380/380/380 384/384/384 383/383/383
f 380/380/380 384/384/384 385/385/385
f 380/380/380 385/385/385 384/384/384
f 380/380/380 385/385/385 386/386/386
f 380/380/380 386/386/386 385/385/385
f 380/380/380 386/386/386 387/387/387
f 380/380/380 387/387/387 386/386/386
f 380/380/380 387/387/387 388/388/388
f 380/380/380 388/388/388 387/387/387
f 380/380/380 388/388/388 389/389/389
f 380/380/380 389/389/389 388/388/388
f 380/380/380 389/389/389 390/390/390
f 380/380/380 390/390/390 389/389/389
f 380/380/380 390/390/390 391/391/391
f 380/380/380 391/391/391 390/390/390
f 380/380/380 391/391/391 392/392/392
f 380/380/380 392/392/392 391/391/391
f 380/380/380 392/392/392 393/393/393
f 380/380/380 393/393/393 392/392/392
f 380/380/380 393/393/393 394/394/394
f 380/380/380 394/394/394 393/393/393
f 380/380/380 394/394/394 395/395/395
f 380/380/380 395/395/395 394/394/394
f 380/380/380 395/395/395 396/396/396
f 380/380/380 396/396/396 395/395/395
f 380/380/380 396/396/396 397/397/397
f 380/380/380 397/397/397 396/396/396
f 380/380/380 397/397/397 398/398/398
f 380/380/380 398/398/398 397/397/397
f 380/380/380 398/398/398 381/381/381
f 380/380/380 381/381/381 398/398/398
f 399/399/399 400/400/400 401/401/401
f 399/399/399 401/401/401 400/400/400
f 399/399/399 401/401/401 402/402/402
f 399/399/399 402/402/402 401/401/401
f 399/399/399 402/402/402 403/403/403
f 399/399/399 403/403/403 402/402/402
f 399/399/399 403/403/403 404/404/404
f 399/399/399 404/404/404 403/403/403
f 399/399/399 404/404/404 405/405/405
f 399/399/399 405/405/405 404/404/404
f 399/399/399 405/405/405 406/406/406
f 399/399/399 406/406/406 405/405/405
f 399/399/399 406/406/406 407/407/407
f 399/399/399 407/407/407 406/406/406
f 399/399/399 407/407/407 408/408/408
f 399/399/399 408/408/408 407/407/407
f 399/399/399 408/408/408 409/409/409
f 399/399/399 409/409/409 408/408/408
f 399/399/399 409/409/409 410/410/410
f 399/399/399 410/410/410 409/409/409
f 399/399/399 410/410/410 411/411/411
f 399/399/399 411/411/411 410/410/410
f 399/399/399 411/411/411 412/412/412
f 399/399/399 412/412/412 411/411/411
f 399/399/399 412/412/412 413/413/413
f 399/399/399 413/413/413 412/412/412
f 399/399/399 413/413/413 400/400/400
f 399/399/399 400/400/400 413/413/413
